<svg baseProfile="full" height="60" width="80" xmlns="http://www.w3.org/2000/svg"><path fill="#313131" d="M38 28h3v3h-3z"/><path fill="#313131" d="M40 28h3v3h-3z"/><path fill="#313131" d="M42 28h3v3h-3zM34 30h3v3h-3z"/><path fill="#313131" d="M36 30h3v3h-3z"/><path fill="#D6D66B" d="M38 30h3v3h-3z"/><path fill="#D6D66B" d="M40 30h3v3h-3z"/><path fill="#D6D66B" d="M42 30h3v3h-3z"/><path fill="#313131" d="M44 30h3v3h-3z"/><path fill="#313131" d="M46 30h3v3h-3zM32 32h3v3h-3z"/><path fill="#7B9C4A" d="M34 32h3v3h-3z"/><path fill="#9CCE4A" d="M36 32h3v3h-3z"/><path fill="#F7F7AD" d="M38 32h3v3h-3z"/><path fill="#F7F7AD" d="M40 32h3v3h-3z"/><path fill="#F7F7AD" d="M42 32h3v3h-3z"/><path fill="#F7F7AD" d="M44 32h3v3h-3z"/><path fill="#948C63" d="M46 32h3v3h-3z"/><path fill="#313131" d="M48 32h3v3h-3zM30 34h3v3h-3z"/><path fill="#7B9C4A" d="M32 34h3v3h-3z"/><path fill="#9CCE4A" d="M34 34h3v3h-3z"/><path fill="#9CCE4A" d="M36 34h3v3h-3z"/><path fill="#F7F7AD" d="M38 34h3v3h-3z"/><path fill="#F7F7AD" d="M40 34h3v3h-3z"/><path fill="#F7F7AD" d="M42 34h3v3h-3z"/><path fill="#F7F7AD" d="M44 34h3v3h-3z"/><path fill="#F7F7AD" d="M46 34h3v3h-3z"/><path fill="#948C63" d="M48 34h3v3h-3z"/><path fill="#313131" d="M50 34h3v3h-3zM30 36h3v3h-3z"/><path fill="#9CCE4A" d="M32 36h3v3h-3z"/><path fill="#9CCE4A" d="M34 36h3v3h-3z"/><path fill="#F7F7AD" d="M36 36h3v3h-3z"/><path fill="#F7F7AD" d="M38 36h3v3h-3z"/><path fill="#F7F7AD" d="M40 36h3v3h-3z"/><path fill="#F7F7AD" d="M42 36h3v3h-3z"/><path fill="#F7F7AD" d="M44 36h3v3h-3z"/><path fill="#F7F7AD" d="M46 36h3v3h-3z"/><path fill="#D6D66B" d="M48 36h3v3h-3z"/><path fill="#313131" d="M50 36h3v3h-3zM28 38h3v3h-3z"/><path fill="#948C63" d="M30 38h3v3h-3z"/><path fill="#F7F7AD" d="M32 38h3v3h-3z"/><path fill="#F7F7AD" d="M34 38h3v3h-3z"/><path fill="#F7F7AD" d="M36 38h3v3h-3z"/><path fill="#F7F7AD" d="M38 38h3v3h-3z"/><path fill="#F7F7AD" d="M40 38h3v3h-3z"/><path fill="#F7F7AD" d="M42 38h3v3h-3z"/><path fill="#9CCE4A" d="M44 38h3v3h-3z"/><path fill="#9CCE4A" d="M46 38h3v3h-3z"/><path fill="#D6D66B" d="M48 38h3v3h-3z"/><path fill="#948C63" d="M50 38h3v3h-3z"/><path fill="#313131" d="M52 38h3v3h-3zM28 40h3v3h-3z"/><path fill="#F7F7AD" d="M30 40h3v3h-3z"/><path fill="#F7F7AD" d="M32 40h3v3h-3z"/><path fill="#F7F7AD" d="M34 40h3v3h-3z"/><path fill="#F7F7AD" d="M36 40h3v3h-3z"/><path fill="#F7F7AD" d="M38 40h3v3h-3z"/><path fill="#F7F7AD" d="M40 40h3v3h-3z"/><path fill="#F7F7AD" d="M42 40h3v3h-3z"/><path fill="#9CCE4A" d="M44 40h3v3h-3z"/><path fill="#9CCE4A" d="M46 40h3v3h-3z"/><path fill="#7B9C4A" d="M48 40h3v3h-3z"/><path fill="#D6D66B" d="M50 40h3v3h-3z"/><path fill="#313131" d="M52 40h3v3h-3zM28 42h3v3h-3z"/><path fill="#F7F7AD" d="M30 42h3v3h-3z"/><path fill="#F7F7AD" d="M32 42h3v3h-3z"/><path fill="#F7F7AD" d="M34 42h3v3h-3z"/><path fill="#F7F7AD" d="M36 42h3v3h-3z"/><path fill="#F7F7AD" d="M38 42h3v3h-3z"/><path fill="#F7F7AD" d="M40 42h3v3h-3z"/><path fill="#F7F7AD" d="M42 42h3v3h-3z"/><path fill="#F7F7AD" d="M44 42h3v3h-3z"/><path fill="#7B9C4A" d="M46 42h3v3h-3z"/><path fill="#7B9C4A" d="M48 42h3v3h-3z"/><path fill="#D6D66B" d="M50 42h3v3h-3z"/><path fill="#313131" d="M52 42h3v3h-3zM28 44h3v3h-3z"/><path fill="#D6D66B" d="M30 44h3v3h-3z"/><path fill="#F7F7AD" d="M32 44h3v3h-3z"/><path fill="#9CCE4A" d="M34 44h3v3h-3z"/><path fill="#9CCE4A" d="M36 44h3v3h-3z"/><path fill="#F7F7AD" d="M38 44h3v3h-3z"/><path fill="#F7F7AD" d="M40 44h3v3h-3z"/><path fill="#F7F7AD" d="M42 44h3v3h-3z"/><path fill="#D6D66B" d="M44 44h3v3h-3z"/><path fill="#D6D66B" d="M46 44h3v3h-3z"/><path fill="#D6D66B" d="M48 44h3v3h-3z"/><path fill="#D6D66B" d="M50 44h3v3h-3z"/><path fill="#313131" d="M52 44h3v3h-3zM28 46h3v3h-3z"/><path fill="#948C63" d="M30 46h3v3h-3z"/><path fill="#D6D66B" d="M32 46h3v3h-3z"/><path fill="#9CCE4A" d="M34 46h3v3h-3z"/><path fill="#9CCE4A" d="M36 46h3v3h-3z"/><path fill="#D6D66B" d="M38 46h3v3h-3z"/><path fill="#D6D66B" d="M40 46h3v3h-3z"/><path fill="#7B9C4A" d="M42 46h3v3h-3z"/><path fill="#7B9C4A" d="M44 46h3v3h-3z"/><path fill="#7B9C4A" d="M46 46h3v3h-3z"/><path fill="#D6D66B" d="M48 46h3v3h-3z"/><path fill="#948C63" d="M50 46h3v3h-3z"/><path fill="#313131" d="M52 46h3v3h-3zM30 48h3v3h-3z"/><path fill="#D6D66B" d="M32 48h3v3h-3z"/><path fill="#D6D66B" d="M34 48h3v3h-3z"/><path fill="#D6D66B" d="M36 48h3v3h-3z"/><path fill="#D6D66B" d="M38 48h3v3h-3z"/><path fill="#7B9C4A" d="M40 48h3v3h-3z"/><path fill="#7B9C4A" d="M42 48h3v3h-3z"/><path fill="#7B9C4A" d="M44 48h3v3h-3z"/><path fill="#7B9C4A" d="M46 48h3v3h-3z"/><path fill="#7B9C4A" d="M48 48h3v3h-3z"/><path fill="#313131" d="M50 48h3v3h-3zM30 50h3v3h-3z"/><path fill="#948C63" d="M32 50h3v3h-3z"/><path fill="#D6D66B" d="M34 50h3v3h-3z"/><path fill="#D6D66B" d="M36 50h3v3h-3z"/><path fill="#D6D66B" d="M38 50h3v3h-3z"/><path fill="#7B9C4A" d="M40 50h3v3h-3z"/><path fill="#7B9C4A" d="M42 50h3v3h-3z"/><path fill="#7B9C4A" d="M44 50h3v3h-3z"/><path fill="#7B9C4A" d="M46 50h3v3h-3z"/><path fill="#63634A" d="M48 50h3v3h-3z"/><path fill="#313131" d="M50 50h3v3h-3zM32 52h3v3h-3z"/><path fill="#313131" d="M34 52h3v3h-3z"/><path fill="#D6D66B" d="M36 52h3v3h-3z"/><path fill="#D6D66B" d="M38 52h3v3h-3z"/><path fill="#D6D66B" d="M40 52h3v3h-3z"/><path fill="#7B9C4A" d="M42 52h3v3h-3z"/><path fill="#7B9C4A" d="M44 52h3v3h-3z"/><path fill="#313131" d="M46 52h3v3h-3z"/><path fill="#313131" d="M48 52h3v3h-3zM36 54h3v3h-3z"/><path fill="#313131" d="M38 54h3v3h-3z"/><path fill="#313131" d="M40 54h3v3h-3z"/><path fill="#313131" d="M42 54h3v3h-3z"/><path fill="#313131" d="M44 54h3v3h-3z"/></svg>