<svg baseProfile="full" height="28" width="64" xmlns="http://www.w3.org/2000/svg"><path fill="#D8D8C0" d="M2 0h3v3H2z"/><path fill="#D8D8C0" d="M4 0h3v3H4z"/><path fill="#D8D8C0" d="M6 0h3v3H6z"/><path fill="#D8D8C0" d="M8 0h3v3H8z"/><path fill="#D8D8C0" d="M10 0h3v3h-3z"/><path fill="#D8D8C0" d="M12 0h3v3h-3z"/><path fill="#D8D8C0" d="M14 0h3v3h-3z"/><path fill="#D8D8C0" d="M16 0h3v3h-3z"/><path fill="#D8D8C0" d="M18 0h3v3h-3z"/><path fill="#D8D8C0" d="M20 0h3v3h-3z"/><path fill="#D8D8C0" d="M22 0h3v3h-3z"/><path fill="#D8D8C0" d="M24 0h3v3h-3z"/><path fill="#D8D8C0" d="M26 0h3v3h-3z"/><path fill="#D8D8C0" d="M28 0h3v3h-3z"/><path fill="#D8D8C0" d="M30 0h3v3h-3z"/><path fill="#D8D8C0" d="M32 0h3v3h-3z"/><path fill="#D8D8C0" d="M34 0h3v3h-3z"/><path fill="#D8D8C0" d="M36 0h3v3h-3z"/><path fill="#D8D8C0" d="M38 0h3v3h-3z"/><path fill="#D8D8C0" d="M40 0h3v3h-3z"/><path fill="#D8D8C0" d="M42 0h3v3h-3z"/><path fill="#D8D8C0" d="M44 0h3v3h-3z"/><path fill="#D8D8C0" d="M46 0h3v3h-3z"/><path fill="#D8D8C0" d="M48 0h3v3h-3z"/><path fill="#D8D8C0" d="M50 0h3v3h-3z"/><path fill="#D8D8C0" d="M52 0h3v3h-3z"/><path fill="#D8D8C0" d="M54 0h3v3h-3z"/><path fill="#D8D8C0" d="M56 0h3v3h-3z"/><path fill="#D8D8C0" d="M58 0h3v3h-3z"/><path fill="#D8D8C0" d="M60 0h3v3h-3zM0 2h3v3H0z"/><path fill="#A8A878" d="M2 2h3v3H2z"/><path fill="#A8A878" d="M4 2h3v3H4z"/><path fill="#A8A878" d="M6 2h3v3H6z"/><path fill="#A8A878" d="M8 2h3v3H8z"/><path fill="#A8A878" d="M10 2h3v3h-3z"/><path fill="#A8A878" d="M12 2h3v3h-3z"/><path fill="#A8A878" d="M14 2h3v3h-3z"/><path fill="#A8A878" d="M16 2h3v3h-3z"/><path fill="#A8A878" d="M18 2h3v3h-3z"/><path fill="#A8A878" d="M20 2h3v3h-3z"/><path fill="#A8A878" d="M22 2h3v3h-3z"/><path fill="#A8A878" d="M24 2h3v3h-3z"/><path fill="#A8A878" d="M26 2h3v3h-3z"/><path fill="#A8A878" d="M28 2h3v3h-3z"/><path fill="#A8A878" d="M30 2h3v3h-3z"/><path fill="#A8A878" d="M32 2h3v3h-3z"/><path fill="#A8A878" d="M34 2h3v3h-3z"/><path fill="#A8A878" d="M36 2h3v3h-3z"/><path fill="#A8A878" d="M38 2h3v3h-3z"/><path fill="#A8A878" d="M40 2h3v3h-3z"/><path fill="#A8A878" d="M42 2h3v3h-3z"/><path fill="#A8A878" d="M44 2h3v3h-3z"/><path fill="#A8A878" d="M46 2h3v3h-3z"/><path fill="#A8A878" d="M48 2h3v3h-3z"/><path fill="#A8A878" d="M50 2h3v3h-3z"/><path fill="#A8A878" d="M52 2h3v3h-3z"/><path fill="#A8A878" d="M54 2h3v3h-3z"/><path fill="#A8A878" d="M56 2h3v3h-3z"/><path fill="#A8A878" d="M58 2h3v3h-3z"/><path fill="#A8A878" d="M60 2h3v3h-3z"/><path fill="#D8D8C0" d="M62 2h3v3h-3z"/><path fill="#A8A878" d="M0 4h3v3H0z"/><path fill="#A8A878" d="M2 4h3v3H2z"/><path fill="#A8A878" d="M4 4h3v3H4z"/><path fill="#A8A878" d="M6 4h3v3H6z"/><path fill="#A8A878" d="M8 4h3v3H8z"/><path fill="#A8A878" d="M10 4h3v3h-3z"/><path fill="#A8A878" d="M12 4h3v3h-3z"/><path fill="#A8A878" d="M14 4h3v3h-3z"/><path fill="#A8A878" d="M16 4h3v3h-3z"/><path fill="#A8A878" d="M18 4h3v3h-3z"/><path fill="#A8A878" d="M20 4h3v3h-3z"/><path fill="#A8A878" d="M22 4h3v3h-3z"/><path fill="#A8A878" d="M24 4h3v3h-3z"/><path fill="#A8A878" d="M26 4h3v3h-3z"/><path fill="#A8A878" d="M28 4h3v3h-3z"/><path fill="#A8A878" d="M30 4h3v3h-3z"/><path fill="#A8A878" d="M32 4h3v3h-3z"/><path fill="#A8A878" d="M34 4h3v3h-3z"/><path fill="#A8A878" d="M36 4h3v3h-3z"/><path fill="#A8A878" d="M38 4h3v3h-3z"/><path fill="#A8A878" d="M40 4h3v3h-3z"/><path fill="#A8A878" d="M42 4h3v3h-3z"/><path fill="#A8A878" d="M44 4h3v3h-3z"/><path fill="#A8A878" d="M46 4h3v3h-3z"/><path fill="#A8A878" d="M48 4h3v3h-3z"/><path fill="#A8A878" d="M50 4h3v3h-3z"/><path fill="#A8A878" d="M52 4h3v3h-3z"/><path fill="#A8A878" d="M54 4h3v3h-3z"/><path fill="#A8A878" d="M56 4h3v3h-3z"/><path fill="#A8A878" d="M58 4h3v3h-3z"/><path fill="#A8A878" d="M60 4h3v3h-3z"/><path fill="#A8A878" d="M62 4h3v3h-3zM0 6h3v3H0z"/><path fill="#F8F8F8" d="M2 6h3v3H2z"/><path fill="#807870" d="M4 6h3v3H4z"/><path fill="#A8A878" d="M6 6h3v3H6z"/><path fill="#F8F8F8" d="M8 6h3v3H8z"/><path fill="#807870" d="M10 6h3v3h-3z"/><path fill="#A8A878" d="M12 6h3v3h-3z"/><path fill="#F8F8F8" d="M14 6h3v3h-3z"/><path fill="#F8F8F8" d="M16 6h3v3h-3z"/><path fill="#807870" d="M18 6h3v3h-3z"/><path fill="#A8A878" d="M20 6h3v3h-3z"/><path fill="#F8F8F8" d="M22 6h3v3h-3z"/><path fill="#F8F8F8" d="M24 6h3v3h-3z"/><path fill="#F8F8F8" d="M26 6h3v3h-3z"/><path fill="#807870" d="M28 6h3v3h-3z"/><path fill="#A8A878" d="M30 6h3v3h-3z"/><path fill="#F8F8F8" d="M32 6h3v3h-3z"/><path fill="#807870" d="M34 6h3v3h-3z"/><path fill="#A8A878" d="M36 6h3v3h-3z"/><path fill="#A8A878" d="M38 6h3v3h-3z"/><path fill="#F8F8F8" d="M40 6h3v3h-3z"/><path fill="#807870" d="M42 6h3v3h-3z"/><path fill="#A8A878" d="M44 6h3v3h-3z"/><path fill="#F8F8F8" d="M46 6h3v3h-3z"/><path fill="#F8F8F8" d="M48 6h3v3h-3z"/><path fill="#807870" d="M50 6h3v3h-3z"/><path fill="#A8A878" d="M52 6h3v3h-3z"/><path fill="#F8F8F8" d="M54 6h3v3h-3z"/><path fill="#807870" d="M56 6h3v3h-3z"/><path fill="#A8A878" d="M58 6h3v3h-3z"/><path fill="#A8A878" d="M60 6h3v3h-3z"/><path fill="#A8A878" d="M62 6h3v3h-3zM0 8h3v3H0z"/><path fill="#F8F8F8" d="M2 8h3v3H2z"/><path fill="#F8F8F8" d="M4 8h3v3H4z"/><path fill="#807870" d="M6 8h3v3H6z"/><path fill="#F8F8F8" d="M8 8h3v3H8z"/><path fill="#807870" d="M10 8h3v3h-3z"/><path fill="#F8F8F8" d="M12 8h3v3h-3z"/><path fill="#807870" d="M14 8h3v3h-3z"/><path fill="#807870" d="M16 8h3v3h-3z"/><path fill="#F8F8F8" d="M18 8h3v3h-3z"/><path fill="#807870" d="M20 8h3v3h-3z"/><path fill="#F8F8F8" d="M22 8h3v3h-3z"/><path fill="#807870" d="M24 8h3v3h-3z"/><path fill="#807870" d="M26 8h3v3h-3z"/><path fill="#F8F8F8" d="M28 8h3v3h-3z"/><path fill="#807870" d="M30 8h3v3h-3z"/><path fill="#F8F8F8" d="M32 8h3v3h-3z"/><path fill="#F8F8F8" d="M34 8h3v3h-3z"/><path fill="#807870" d="M36 8h3v3h-3z"/><path fill="#F8F8F8" d="M38 8h3v3h-3z"/><path fill="#F8F8F8" d="M40 8h3v3h-3z"/><path fill="#807870" d="M42 8h3v3h-3z"/><path fill="#F8F8F8" d="M44 8h3v3h-3z"/><path fill="#807870" d="M46 8h3v3h-3z"/><path fill="#807870" d="M48 8h3v3h-3z"/><path fill="#F8F8F8" d="M50 8h3v3h-3z"/><path fill="#807870" d="M52 8h3v3h-3z"/><path fill="#F8F8F8" d="M54 8h3v3h-3z"/><path fill="#807870" d="M56 8h3v3h-3z"/><path fill="#A8A878" d="M58 8h3v3h-3z"/><path fill="#A8A878" d="M60 8h3v3h-3z"/><path fill="#A8A878" d="M62 8h3v3h-3zM0 10h3v3H0z"/><path fill="#F8F8F8" d="M2 10h3v3H2z"/><path fill="#F8F8F8" d="M4 10h3v3H4z"/><path fill="#807870" d="M6 10h3v3H6z"/><path fill="#F8F8F8" d="M8 10h3v3H8z"/><path fill="#807870" d="M10 10h3v3h-3z"/><path fill="#F8F8F8" d="M12 10h3v3h-3z"/><path fill="#807870" d="M14 10h3v3h-3z"/><path fill="#A8A878" d="M16 10h3v3h-3z"/><path fill="#F8F8F8" d="M18 10h3v3h-3z"/><path fill="#807870" d="M20 10h3v3h-3z"/><path fill="#F8F8F8" d="M22 10h3v3h-3z"/><path fill="#807870" d="M24 10h3v3h-3z"/><path fill="#A8A878" d="M26 10h3v3h-3z"/><path fill="#F8F8F8" d="M28 10h3v3h-3z"/><path fill="#807870" d="M30 10h3v3h-3z"/><path fill="#F8F8F8" d="M32 10h3v3h-3z"/><path fill="#F8F8F8" d="M34 10h3v3h-3z"/><path fill="#F8F8F8" d="M36 10h3v3h-3z"/><path fill="#F8F8F8" d="M38 10h3v3h-3z"/><path fill="#F8F8F8" d="M40 10h3v3h-3z"/><path fill="#807870" d="M42 10h3v3h-3z"/><path fill="#F8F8F8" d="M44 10h3v3h-3z"/><path fill="#807870" d="M46 10h3v3h-3z"/><path fill="#A8A878" d="M48 10h3v3h-3z"/><path fill="#F8F8F8" d="M50 10h3v3h-3z"/><path fill="#807870" d="M52 10h3v3h-3z"/><path fill="#F8F8F8" d="M54 10h3v3h-3z"/><path fill="#807870" d="M56 10h3v3h-3z"/><path fill="#A8A878" d="M58 10h3v3h-3z"/><path fill="#A8A878" d="M60 10h3v3h-3z"/><path fill="#A8A878" d="M62 10h3v3h-3zM0 12h3v3H0z"/><path fill="#F8F8F8" d="M2 12h3v3H2z"/><path fill="#F8F8F8" d="M4 12h3v3H4z"/><path fill="#F8F8F8" d="M6 12h3v3H6z"/><path fill="#F8F8F8" d="M8 12h3v3H8z"/><path fill="#807870" d="M10 12h3v3h-3z"/><path fill="#F8F8F8" d="M12 12h3v3h-3z"/><path fill="#807870" d="M14 12h3v3h-3z"/><path fill="#A8A878" d="M16 12h3v3h-3z"/><path fill="#F8F8F8" d="M18 12h3v3h-3z"/><path fill="#807870" d="M20 12h3v3h-3z"/><path fill="#F8F8F8" d="M22 12h3v3h-3z"/><path fill="#F8F8F8" d="M24 12h3v3h-3z"/><path fill="#F8F8F8" d="M26 12h3v3h-3z"/><path fill="#807870" d="M28 12h3v3h-3z"/><path fill="#A8A878" d="M30 12h3v3h-3z"/><path fill="#F8F8F8" d="M32 12h3v3h-3z"/><path fill="#807870" d="M34 12h3v3h-3z"/><path fill="#F8F8F8" d="M36 12h3v3h-3z"/><path fill="#807870" d="M38 12h3v3h-3z"/><path fill="#F8F8F8" d="M40 12h3v3h-3z"/><path fill="#807870" d="M42 12h3v3h-3z"/><path fill="#F8F8F8" d="M44 12h3v3h-3z"/><path fill="#807870" d="M46 12h3v3h-3z"/><path fill="#A8A878" d="M48 12h3v3h-3z"/><path fill="#F8F8F8" d="M50 12h3v3h-3z"/><path fill="#807870" d="M52 12h3v3h-3z"/><path fill="#F8F8F8" d="M54 12h3v3h-3z"/><path fill="#807870" d="M56 12h3v3h-3z"/><path fill="#A8A878" d="M58 12h3v3h-3z"/><path fill="#A8A878" d="M60 12h3v3h-3z"/><path fill="#A8A878" d="M62 12h3v3h-3zM0 14h3v3H0z"/><path fill="#F8F8F8" d="M2 14h3v3H2z"/><path fill="#807870" d="M4 14h3v3H4z"/><path fill="#F8F8F8" d="M6 14h3v3H6z"/><path fill="#F8F8F8" d="M8 14h3v3H8z"/><path fill="#807870" d="M10 14h3v3h-3z"/><path fill="#F8F8F8" d="M12 14h3v3h-3z"/><path fill="#807870" d="M14 14h3v3h-3z"/><path fill="#A8A878" d="M16 14h3v3h-3z"/><path fill="#F8F8F8" d="M18 14h3v3h-3z"/><path fill="#807870" d="M20 14h3v3h-3z"/><path fill="#F8F8F8" d="M22 14h3v3h-3z"/><path fill="#807870" d="M24 14h3v3h-3z"/><path fill="#F8F8F8" d="M26 14h3v3h-3z"/><path fill="#807870" d="M28 14h3v3h-3z"/><path fill="#A8A878" d="M30 14h3v3h-3z"/><path fill="#F8F8F8" d="M32 14h3v3h-3z"/><path fill="#807870" d="M34 14h3v3h-3z"/><path fill="#807870" d="M36 14h3v3h-3z"/><path fill="#A8A878" d="M38 14h3v3h-3z"/><path fill="#F8F8F8" d="M40 14h3v3h-3z"/><path fill="#807870" d="M42 14h3v3h-3z"/><path fill="#F8F8F8" d="M44 14h3v3h-3z"/><path fill="#F8F8F8" d="M46 14h3v3h-3z"/><path fill="#F8F8F8" d="M48 14h3v3h-3z"/><path fill="#F8F8F8" d="M50 14h3v3h-3z"/><path fill="#807870" d="M52 14h3v3h-3z"/><path fill="#F8F8F8" d="M54 14h3v3h-3z"/><path fill="#807870" d="M56 14h3v3h-3z"/><path fill="#A8A878" d="M58 14h3v3h-3z"/><path fill="#A8A878" d="M60 14h3v3h-3z"/><path fill="#A8A878" d="M62 14h3v3h-3zM0 16h3v3H0z"/><path fill="#F8F8F8" d="M2 16h3v3H2z"/><path fill="#807870" d="M4 16h3v3H4z"/><path fill="#F8F8F8" d="M6 16h3v3H6z"/><path fill="#F8F8F8" d="M8 16h3v3H8z"/><path fill="#807870" d="M10 16h3v3h-3z"/><path fill="#F8F8F8" d="M12 16h3v3h-3z"/><path fill="#807870" d="M14 16h3v3h-3z"/><path fill="#A8A878" d="M16 16h3v3h-3z"/><path fill="#F8F8F8" d="M18 16h3v3h-3z"/><path fill="#807870" d="M20 16h3v3h-3z"/><path fill="#F8F8F8" d="M22 16h3v3h-3z"/><path fill="#807870" d="M24 16h3v3h-3z"/><path fill="#A8A878" d="M26 16h3v3h-3z"/><path fill="#F8F8F8" d="M28 16h3v3h-3z"/><path fill="#807870" d="M30 16h3v3h-3z"/><path fill="#F8F8F8" d="M32 16h3v3h-3z"/><path fill="#807870" d="M34 16h3v3h-3z"/><path fill="#A8A878" d="M36 16h3v3h-3z"/><path fill="#A8A878" d="M38 16h3v3h-3z"/><path fill="#F8F8F8" d="M40 16h3v3h-3z"/><path fill="#807870" d="M42 16h3v3h-3z"/><path fill="#F8F8F8" d="M44 16h3v3h-3z"/><path fill="#807870" d="M46 16h3v3h-3z"/><path fill="#807870" d="M48 16h3v3h-3z"/><path fill="#F8F8F8" d="M50 16h3v3h-3z"/><path fill="#807870" d="M52 16h3v3h-3z"/><path fill="#F8F8F8" d="M54 16h3v3h-3z"/><path fill="#807870" d="M56 16h3v3h-3z"/><path fill="#A8A878" d="M58 16h3v3h-3z"/><path fill="#A8A878" d="M60 16h3v3h-3z"/><path fill="#A8A878" d="M62 16h3v3h-3zM0 18h3v3H0z"/><path fill="#F8F8F8" d="M2 18h3v3H2z"/><path fill="#807870" d="M4 18h3v3H4z"/><path fill="#807870" d="M6 18h3v3H6z"/><path fill="#F8F8F8" d="M8 18h3v3H8z"/><path fill="#807870" d="M10 18h3v3h-3z"/><path fill="#807870" d="M12 18h3v3h-3z"/><path fill="#F8F8F8" d="M14 18h3v3h-3z"/><path fill="#F8F8F8" d="M16 18h3v3h-3z"/><path fill="#807870" d="M18 18h3v3h-3z"/><path fill="#807870" d="M20 18h3v3h-3z"/><path fill="#F8F8F8" d="M22 18h3v3h-3z"/><path fill="#807870" d="M24 18h3v3h-3z"/><path fill="#A8A878" d="M26 18h3v3h-3z"/><path fill="#F8F8F8" d="M28 18h3v3h-3z"/><path fill="#807870" d="M30 18h3v3h-3z"/><path fill="#F8F8F8" d="M32 18h3v3h-3z"/><path fill="#807870" d="M34 18h3v3h-3z"/><path fill="#A8A878" d="M36 18h3v3h-3z"/><path fill="#A8A878" d="M38 18h3v3h-3z"/><path fill="#F8F8F8" d="M40 18h3v3h-3z"/><path fill="#807870" d="M42 18h3v3h-3z"/><path fill="#F8F8F8" d="M44 18h3v3h-3z"/><path fill="#807870" d="M46 18h3v3h-3z"/><path fill="#A8A878" d="M48 18h3v3h-3z"/><path fill="#F8F8F8" d="M50 18h3v3h-3z"/><path fill="#807870" d="M52 18h3v3h-3z"/><path fill="#F8F8F8" d="M54 18h3v3h-3z"/><path fill="#F8F8F8" d="M56 18h3v3h-3z"/><path fill="#F8F8F8" d="M58 18h3v3h-3z"/><path fill="#F8F8F8" d="M60 18h3v3h-3z"/><path fill="#807870" d="M62 18h3v3h-3z"/><path fill="#A8A878" d="M0 20h3v3H0z"/><path fill="#807870" d="M2 20h3v3H2z"/><path fill="#807870" d="M4 20h3v3H4z"/><path fill="#A8A878" d="M6 20h3v3H6z"/><path fill="#807870" d="M8 20h3v3H8z"/><path fill="#807870" d="M10 20h3v3h-3z"/><path fill="#A8A878" d="M12 20h3v3h-3z"/><path fill="#807870" d="M14 20h3v3h-3z"/><path fill="#807870" d="M16 20h3v3h-3z"/><path fill="#807870" d="M18 20h3v3h-3z"/><path fill="#A8A878" d="M20 20h3v3h-3z"/><path fill="#807870" d="M22 20h3v3h-3z"/><path fill="#807870" d="M24 20h3v3h-3z"/><path fill="#A8A878" d="M26 20h3v3h-3z"/><path fill="#807870" d="M28 20h3v3h-3z"/><path fill="#807870" d="M30 20h3v3h-3z"/><path fill="#807870" d="M32 20h3v3h-3z"/><path fill="#807870" d="M34 20h3v3h-3z"/><path fill="#A8A878" d="M36 20h3v3h-3z"/><path fill="#A8A878" d="M38 20h3v3h-3z"/><path fill="#807870" d="M40 20h3v3h-3z"/><path fill="#807870" d="M42 20h3v3h-3z"/><path fill="#807870" d="M44 20h3v3h-3z"/><path fill="#807870" d="M46 20h3v3h-3z"/><path fill="#A8A878" d="M48 20h3v3h-3z"/><path fill="#807870" d="M50 20h3v3h-3z"/><path fill="#807870" d="M52 20h3v3h-3z"/><path fill="#807870" d="M54 20h3v3h-3z"/><path fill="#807870" d="M56 20h3v3h-3z"/><path fill="#807870" d="M58 20h3v3h-3z"/><path fill="#807870" d="M60 20h3v3h-3z"/><path fill="#807870" d="M62 20h3v3h-3z"/><path fill="#A8A878" d="M0 22h3v3H0z"/><path fill="#A8A878" d="M2 22h3v3H2z"/><path fill="#A8A878" d="M4 22h3v3H4z"/><path fill="#A8A878" d="M6 22h3v3H6z"/><path fill="#A8A878" d="M8 22h3v3H8z"/><path fill="#A8A878" d="M10 22h3v3h-3z"/><path fill="#A8A878" d="M12 22h3v3h-3z"/><path fill="#A8A878" d="M14 22h3v3h-3z"/><path fill="#A8A878" d="M16 22h3v3h-3z"/><path fill="#A8A878" d="M18 22h3v3h-3z"/><path fill="#A8A878" d="M20 22h3v3h-3z"/><path fill="#A8A878" d="M22 22h3v3h-3z"/><path fill="#A8A878" d="M24 22h3v3h-3z"/><path fill="#A8A878" d="M26 22h3v3h-3z"/><path fill="#A8A878" d="M28 22h3v3h-3z"/><path fill="#A8A878" d="M30 22h3v3h-3z"/><path fill="#A8A878" d="M32 22h3v3h-3z"/><path fill="#A8A878" d="M34 22h3v3h-3z"/><path fill="#A8A878" d="M36 22h3v3h-3z"/><path fill="#A8A878" d="M38 22h3v3h-3z"/><path fill="#A8A878" d="M40 22h3v3h-3z"/><path fill="#A8A878" d="M42 22h3v3h-3z"/><path fill="#A8A878" d="M44 22h3v3h-3z"/><path fill="#A8A878" d="M46 22h3v3h-3z"/><path fill="#A8A878" d="M48 22h3v3h-3z"/><path fill="#A8A878" d="M50 22h3v3h-3z"/><path fill="#A8A878" d="M52 22h3v3h-3z"/><path fill="#A8A878" d="M54 22h3v3h-3z"/><path fill="#A8A878" d="M56 22h3v3h-3z"/><path fill="#A8A878" d="M58 22h3v3h-3z"/><path fill="#A8A878" d="M60 22h3v3h-3z"/><path fill="#A8A878" d="M62 22h3v3h-3z"/><path fill="#705848" d="M0 24h3v3H0z"/><path fill="#A8A878" d="M2 24h3v3H2z"/><path fill="#A8A878" d="M4 24h3v3H4z"/><path fill="#A8A878" d="M6 24h3v3H6z"/><path fill="#A8A878" d="M8 24h3v3H8z"/><path fill="#A8A878" d="M10 24h3v3h-3z"/><path fill="#A8A878" d="M12 24h3v3h-3z"/><path fill="#A8A878" d="M14 24h3v3h-3z"/><path fill="#A8A878" d="M16 24h3v3h-3z"/><path fill="#A8A878" d="M18 24h3v3h-3z"/><path fill="#A8A878" d="M20 24h3v3h-3z"/><path fill="#A8A878" d="M22 24h3v3h-3z"/><path fill="#A8A878" d="M24 24h3v3h-3z"/><path fill="#A8A878" d="M26 24h3v3h-3z"/><path fill="#A8A878" d="M28 24h3v3h-3z"/><path fill="#A8A878" d="M30 24h3v3h-3z"/><path fill="#A8A878" d="M32 24h3v3h-3z"/><path fill="#A8A878" d="M34 24h3v3h-3z"/><path fill="#A8A878" d="M36 24h3v3h-3z"/><path fill="#A8A878" d="M38 24h3v3h-3z"/><path fill="#A8A878" d="M40 24h3v3h-3z"/><path fill="#A8A878" d="M42 24h3v3h-3z"/><path fill="#A8A878" d="M44 24h3v3h-3z"/><path fill="#A8A878" d="M46 24h3v3h-3z"/><path fill="#A8A878" d="M48 24h3v3h-3z"/><path fill="#A8A878" d="M50 24h3v3h-3z"/><path fill="#A8A878" d="M52 24h3v3h-3z"/><path fill="#A8A878" d="M54 24h3v3h-3z"/><path fill="#A8A878" d="M56 24h3v3h-3z"/><path fill="#A8A878" d="M58 24h3v3h-3z"/><path fill="#A8A878" d="M60 24h3v3h-3z"/><path fill="#705848" d="M62 24h3v3h-3zM2 26h3v3H2z"/><path fill="#705848" d="M4 26h3v3H4z"/><path fill="#705848" d="M6 26h3v3H6z"/><path fill="#705848" d="M8 26h3v3H8z"/><path fill="#705848" d="M10 26h3v3h-3z"/><path fill="#705848" d="M12 26h3v3h-3z"/><path fill="#705848" d="M14 26h3v3h-3z"/><path fill="#705848" d="M16 26h3v3h-3z"/><path fill="#705848" d="M18 26h3v3h-3z"/><path fill="#705848" d="M20 26h3v3h-3z"/><path fill="#705848" d="M22 26h3v3h-3z"/><path fill="#705848" d="M24 26h3v3h-3z"/><path fill="#705848" d="M26 26h3v3h-3z"/><path fill="#705848" d="M28 26h3v3h-3z"/><path fill="#705848" d="M30 26h3v3h-3z"/><path fill="#705848" d="M32 26h3v3h-3z"/><path fill="#705848" d="M34 26h3v3h-3z"/><path fill="#705848" d="M36 26h3v3h-3z"/><path fill="#705848" d="M38 26h3v3h-3z"/><path fill="#705848" d="M40 26h3v3h-3z"/><path fill="#705848" d="M42 26h3v3h-3z"/><path fill="#705848" d="M44 26h3v3h-3z"/><path fill="#705848" d="M46 26h3v3h-3z"/><path fill="#705848" d="M48 26h3v3h-3z"/><path fill="#705848" d="M50 26h3v3h-3z"/><path fill="#705848" d="M52 26h3v3h-3z"/><path fill="#705848" d="M54 26h3v3h-3z"/><path fill="#705848" d="M56 26h3v3h-3z"/><path fill="#705848" d="M58 26h3v3h-3z"/><path fill="#705848" d="M60 26h3v3h-3z"/></svg>