<svg baseProfile="full" height="90" width="76" xmlns="http://www.w3.org/2000/svg"><path fill="#231815" d="M67 0h1v1h-1zM68 0h1v1h-1zM69 0h1v1h-1zM70 0h1v1h-1zM71 0h1v1h-1zM65 1h1v1h-1zM66 1h1v1h-1zM67 1h1v1h-1zM68 1h1v1h-1zM69 1h1v1h-1zM70 1h1v1h-1zM71 1h1v1h-1zM72 1h1v1h-1zM73 1h1v1h-1zM64 2h1v1h-1zM65 2h1v1h-1zM66 2h1v1h-1zM67 2h1v1h-1zM68 2h1v1h-1zM69 2h1v1h-1zM70 2h1v1h-1zM71 2h1v1h-1zM72 2h1v1h-1zM73 2h1v1h-1zM74 2h1v1h-1zM63 3h1v1h-1zM64 3h1v1h-1zM65 3h1v1h-1zM66 3h1v1h-1zM67 3h1v1h-1z"/><path fill="#343822" d="M68 3h1v1h-1z"/><path fill="#506C37" d="M69 3h1v1h-1z"/><path fill="#4A6232" d="M70 3h1v1h-1z"/><path fill="#292319" d="M71 3h1v1h-1z"/><path fill="#231815" d="M72 3h1v1h-1zM73 3h1v1h-1zM74 3h1v1h-1zM63 4h1v1h-1zM64 4h1v1h-1zM65 4h1v1h-1zM66 4h1v1h-1z"/><path fill="#5B813F" d="M67 4h1v1h-1z"/><path fill="#7DC058" d="M68 4h1v1h-1zM69 4h1v1h-1zM70 4h1v1h-1z"/><path fill="#6CA14B" d="M71 4h1v1h-1z"/><path fill="#231815" d="M72 4h1v1h-1zM73 4h1v1h-1zM74 4h1v1h-1zM75 4h1v1h-1zM63 5h1v1h-1zM64 5h1v1h-1zM65 5h1v1h-1z"/><path fill="#506C37" d="M66 5h1v1h-1z"/><path fill="#7DC058" d="M67 5h1v1h-1z"/><path fill="#8AC665" d="M68 5h1v1h-1z"/><path fill="#92C96D" d="M69 5h1v1h-1z"/><path fill="#80C15B" d="M70 5h1v1h-1z"/><path fill="#7DC058" d="M71 5h1v1h-1z"/><path fill="#45572E" d="M72 5h1v1h-1z"/><path fill="#231815" d="M73 5h1v1h-1zM74 5h1v1h-1zM75 5h1v1h-1zM63 6h1v1h-1zM64 6h1v1h-1zM65 6h1v1h-1z"/><path fill="#72AB50" d="M66 6h1v1h-1z"/><path fill="#88C563" d="M67 6h1v1h-1z"/><path fill="#A7D282" d="M68 6h1v1h-1zM69 6h1v1h-1z"/><path fill="#92C96D" d="M70 6h1v1h-1z"/><path fill="#7DC058" d="M71 6h1v1h-1z"/><path fill="#56773B" d="M72 6h1v1h-1z"/><path fill="#231815" d="M73 6h1v1h-1zM74 6h1v1h-1zM75 6h1v1h-1zM63 7h1v1h-1zM64 7h1v1h-1zM65 7h1v1h-1z"/><path fill="#7DC058" d="M66 7h1v1h-1z"/><path fill="#9DCE78" d="M67 7h1v1h-1z"/><path fill="#A7D282" d="M68 7h1v1h-1zM69 7h1v1h-1z"/><path fill="#9DCE78" d="M70 7h1v1h-1z"/><path fill="#7DC058" d="M71 7h1v1h-1z"/><path fill="#679647" d="M72 7h1v1h-1z"/><path fill="#231815" d="M73 7h1v1h-1zM74 7h1v1h-1zM75 7h1v1h-1zM62 8h1v1h-1zM63 8h1v1h-1zM64 8h1v1h-1zM65 8h1v1h-1z"/><path fill="#82C25D" d="M66 8h1v1h-1z"/><path fill="#A7D282" d="M67 8h1v1h-1zM68 8h1v1h-1zM69 8h1v1h-1z"/><path fill="#9DCE78" d="M70 8h1v1h-1z"/><path fill="#7DC058" d="M71 8h1v1h-1z"/><path fill="#5B813F" d="M72 8h1v1h-1z"/><path fill="#231815" d="M73 8h1v1h-1zM74 8h1v1h-1zM75 8h1v1h-1zM62 9h1v1h-1zM63 9h1v1h-1zM64 9h1v1h-1z"/><path fill="#343822" d="M65 9h1v1h-1z"/><path fill="#8DC768" d="M66 9h1v1h-1z"/><path fill="#A7D282" d="M67 9h1v1h-1zM68 9h1v1h-1zM69 9h1v1h-1z"/><path fill="#92C96D" d="M70 9h1v1h-1z"/><path fill="#7DC058" d="M71 9h1v1h-1z"/><path fill="#506C37" d="M72 9h1v1h-1z"/><path fill="#231815" d="M73 9h1v1h-1zM74 9h1v1h-1zM75 9h1v1h-1zM62 10h1v1h-1zM63 10h1v1h-1zM64 10h1v1h-1z"/><path fill="#3F4D2A" d="M65 10h1v1h-1z"/><path fill="#92C96D" d="M66 10h1v1h-1z"/><path fill="#A7D282" d="M67 10h1v1h-1zM68 10h1v1h-1zM69 10h1v1h-1z"/><path fill="#8AC665" d="M70 10h1v1h-1z"/><path fill="#7DC058" d="M71 10h1v1h-1z"/><path fill="#45572E" d="M72 10h1v1h-1z"/><path fill="#231815" d="M73 10h1v1h-1zM74 10h1v1h-1zM75 10h1v1h-1zM62 11h1v1h-1zM63 11h1v1h-1zM64 11h1v1h-1z"/><path fill="#506C37" d="M65 11h1v1h-1z"/><path fill="#92C96D" d="M66 11h1v1h-1z"/><path fill="#A7D282" d="M67 11h1v1h-1zM68 11h1v1h-1z"/><path fill="#A4D17F" d="M69 11h1v1h-1z"/><path fill="#7DC058" d="M70 11h1v1h-1zM71 11h1v1h-1z"/><path fill="#343822" d="M72 11h1v1h-1z"/><path fill="#231815" d="M73 11h1v1h-1zM74 11h1v1h-1zM75 11h1v1h-1zM62 12h1v1h-1zM63 12h1v1h-1zM64 12h1v1h-1z"/><path fill="#679647" d="M65 12h1v1h-1z"/><path fill="#8DC768" d="M66 12h1v1h-1z"/><path fill="#A7D282" d="M67 12h1v1h-1zM68 12h1v1h-1z"/><path fill="#8FC86A" d="M69 12h1v1h-1z"/><path fill="#7DC058" d="M70 12h1v1h-1zM71 12h1v1h-1z"/><path fill="#231815" d="M72 12h1v1h-1zM73 12h1v1h-1zM74 12h1v1h-1zM75 12h1v1h-1zM61 13h1v1h-1zM62 13h1v1h-1zM63 13h1v1h-1z"/><path fill="#292319" d="M64 13h1v1h-1z"/><path fill="#7DC058" d="M65 13h1v1h-1zM66 13h1v1h-1z"/><path fill="#8FC86A" d="M67 13h1v1h-1z"/><path fill="#8DC768" d="M68 13h1v1h-1z"/><path fill="#7DC058" d="M69 13h1v1h-1zM70 13h1v1h-1z"/><path fill="#679647" d="M71 13h1v1h-1z"/><path fill="#231815" d="M72 13h1v1h-1zM73 13h1v1h-1zM74 13h1v1h-1zM61 14h1v1h-1zM62 14h1v1h-1zM63 14h1v1h-1z"/><path fill="#45572E" d="M64 14h1v1h-1z"/><path fill="#7DC058" d="M65 14h1v1h-1zM66 14h1v1h-1zM67 14h1v1h-1zM68 14h1v1h-1zM69 14h1v1h-1zM70 14h1v1h-1z"/><path fill="#506C37" d="M71 14h1v1h-1z"/><path fill="#231815" d="M72 14h1v1h-1zM73 14h1v1h-1zM74 14h1v1h-1zM60 15h1v1h-1zM61 15h1v1h-1zM62 15h1v1h-1zM63 15h1v1h-1z"/><path fill="#72AB50" d="M64 15h1v1h-1z"/><path fill="#7DC058" d="M65 15h1v1h-1zM66 15h1v1h-1zM67 15h1v1h-1zM68 15h1v1h-1zM69 15h1v1h-1zM70 15h1v1h-1z"/><path fill="#343822" d="M71 15h1v1h-1z"/><path fill="#231815" d="M72 15h1v1h-1zM73 15h1v1h-1zM74 15h1v1h-1zM59 16h1v1h-1zM60 16h1v1h-1zM61 16h1v1h-1zM62 16h1v1h-1z"/><path fill="#45572E" d="M63 16h1v1h-1z"/><path fill="#7DC058" d="M64 16h1v1h-1zM65 16h1v1h-1zM66 16h1v1h-1zM67 16h1v1h-1zM68 16h1v1h-1zM69 16h1v1h-1z"/><path fill="#77B654" d="M70 16h1v1h-1z"/><path fill="#231815" d="M71 16h1v1h-1zM72 16h1v1h-1zM73 16h1v1h-1zM74 16h1v1h-1zM58 17h1v1h-1zM59 17h1v1h-1zM60 17h1v1h-1zM61 17h1v1h-1z"/><path fill="#292319" d="M62 17h1v1h-1z"/><path fill="#77B654" d="M63 17h1v1h-1z"/><path fill="#7DC058" d="M64 17h1v1h-1zM65 17h1v1h-1zM66 17h1v1h-1zM67 17h1v1h-1zM68 17h1v1h-1zM69 17h1v1h-1z"/><path fill="#5B813F" d="M70 17h1v1h-1z"/><path fill="#231815" d="M71 17h1v1h-1zM72 17h1v1h-1zM73 17h1v1h-1zM40 18h1v1h-1zM41 18h1v1h-1zM42 18h1v1h-1zM43 18h1v1h-1zM44 18h1v1h-1zM45 18h1v1h-1zM46 18h1v1h-1zM47 18h1v1h-1zM48 18h1v1h-1zM49 18h1v1h-1zM50 18h1v1h-1zM51 18h1v1h-1zM52 18h1v1h-1zM53 18h1v1h-1zM54 18h1v1h-1zM55 18h1v1h-1zM56 18h1v1h-1zM57 18h1v1h-1zM58 18h1v1h-1zM59 18h1v1h-1zM60 18h1v1h-1zM61 18h1v1h-1z"/><path fill="#679647" d="M62 18h1v1h-1z"/><path fill="#7DC058" d="M63 18h1v1h-1zM64 18h1v1h-1zM65 18h1v1h-1zM66 18h1v1h-1zM67 18h1v1h-1zM68 18h1v1h-1zM69 18h1v1h-1z"/><path fill="#3F4D2A" d="M70 18h1v1h-1z"/><path fill="#231815" d="M71 18h1v1h-1zM72 18h1v1h-1zM73 18h1v1h-1zM36 19h1v1h-1zM37 19h1v1h-1zM38 19h1v1h-1zM39 19h1v1h-1zM40 19h1v1h-1zM41 19h1v1h-1zM42 19h1v1h-1zM43 19h1v1h-1zM44 19h1v1h-1zM45 19h1v1h-1zM46 19h1v1h-1zM47 19h1v1h-1zM48 19h1v1h-1zM49 19h1v1h-1zM50 19h1v1h-1zM51 19h1v1h-1zM52 19h1v1h-1zM53 19h1v1h-1zM54 19h1v1h-1zM55 19h1v1h-1zM56 19h1v1h-1zM57 19h1v1h-1zM58 19h1v1h-1zM59 19h1v1h-1zM60 19h1v1h-1z"/><path fill="#5B813F" d="M61 19h1v1h-1z"/><path fill="#7DC058" d="M62 19h1v1h-1zM63 19h1v1h-1zM64 19h1v1h-1zM65 19h1v1h-1zM66 19h1v1h-1zM67 19h1v1h-1zM68 19h1v1h-1zM69 19h1v1h-1z"/><path fill="#292319" d="M70 19h1v1h-1z"/><path fill="#231815" d="M71 19h1v1h-1zM72 19h1v1h-1zM73 19h1v1h-1zM32 20h1v1h-1zM33 20h1v1h-1zM34 20h1v1h-1zM35 20h1v1h-1zM36 20h1v1h-1zM37 20h1v1h-1zM38 20h1v1h-1zM39 20h1v1h-1zM40 20h1v1h-1zM41 20h1v1h-1zM42 20h1v1h-1zM43 20h1v1h-1zM44 20h1v1h-1zM45 20h1v1h-1zM46 20h1v1h-1zM47 20h1v1h-1zM48 20h1v1h-1zM49 20h1v1h-1zM50 20h1v1h-1zM51 20h1v1h-1zM52 20h1v1h-1zM53 20h1v1h-1zM54 20h1v1h-1zM55 20h1v1h-1zM56 20h1v1h-1zM57 20h1v1h-1zM58 20h1v1h-1z"/><path fill="#292319" d="M59 20h1v1h-1z"/><path fill="#6CA14B" d="M60 20h1v1h-1z"/><path fill="#7DC058" d="M61 20h1v1h-1zM62 20h1v1h-1zM63 20h1v1h-1zM64 20h1v1h-1zM65 20h1v1h-1zM66 20h1v1h-1zM67 20h1v1h-1zM68 20h1v1h-1z"/><path fill="#5B813F" d="M69 20h1v1h-1z"/><path fill="#231815" d="M70 20h1v1h-1zM71 20h1v1h-1zM72 20h1v1h-1zM29 21h1v1h-1zM30 21h1v1h-1zM31 21h1v1h-1zM32 21h1v1h-1zM33 21h1v1h-1zM34 21h1v1h-1zM35 21h1v1h-1zM36 21h1v1h-1zM37 21h1v1h-1zM38 21h1v1h-1zM39 21h1v1h-1zM40 21h1v1h-1z"/><path fill="#3A4226" d="M41 21h1v1h-1z"/><path fill="#45572E" d="M42 21h1v1h-1z"/><path fill="#506C37" d="M43 21h1v1h-1z"/><path fill="#5B813F" d="M44 21h1v1h-1z"/><path fill="#679647" d="M45 21h1v1h-1zM46 21h1v1h-1zM47 21h1v1h-1z"/><path fill="#4BA634" d="M48 21h1v1h-1z"/><path fill="#499D32" d="M49 21h1v1h-1z"/><path fill="#41832C" d="M50 21h1v1h-1zM51 21h1v1h-1z"/><path fill="#5D9141" d="M52 21h1v1h-1z"/><path fill="#506C37" d="M53 21h1v1h-1z"/><path fill="#42552C" d="M54 21h1v1h-1z"/><path fill="#2B331B" d="M55 21h1v1h-1z"/><path fill="#231815" d="M56 21h1v1h-1zM57 21h1v1h-1z"/><path fill="#3F4D2A" d="M58 21h1v1h-1z"/><path fill="#77B654" d="M59 21h1v1h-1z"/><path fill="#7DC058" d="M60 21h1v1h-1zM61 21h1v1h-1zM62 21h1v1h-1zM63 21h1v1h-1zM64 21h1v1h-1zM65 21h1v1h-1zM66 21h1v1h-1zM67 21h1v1h-1zM68 21h1v1h-1z"/><path fill="#3F4D2A" d="M69 21h1v1h-1z"/><path fill="#231815" d="M70 21h1v1h-1zM71 21h1v1h-1zM72 21h1v1h-1zM26 22h1v1h-1zM27 22h1v1h-1zM28 22h1v1h-1zM29 22h1v1h-1zM30 22h1v1h-1zM31 22h1v1h-1zM32 22h1v1h-1zM33 22h1v1h-1zM34 22h1v1h-1zM35 22h1v1h-1z"/><path fill="#2E2D1D" d="M36 22h1v1h-1z"/><path fill="#45572E" d="M37 22h1v1h-1z"/><path fill="#5B813F" d="M38 22h1v1h-1z"/><path fill="#6CA14B" d="M39 22h1v1h-1z"/><path fill="#7DC058" d="M40 22h1v1h-1zM41 22h1v1h-1zM42 22h1v1h-1zM43 22h1v1h-1zM44 22h1v1h-1zM45 22h1v1h-1zM46 22h1v1h-1zM47 22h1v1h-1z"/><path fill="#51A939" d="M48 22h1v1h-1z"/><path fill="#4BA634" d="M49 22h1v1h-1zM50 22h1v1h-1zM51 22h1v1h-1z"/><path fill="#71BA4F" d="M52 22h1v1h-1z"/><path fill="#7DC058" d="M53 22h1v1h-1z"/><path fill="#71BA4F" d="M54 22h1v1h-1z"/><path fill="#4BA634" d="M55 22h1v1h-1z"/><path fill="#469430" d="M56 22h1v1h-1z"/><path fill="#448B2E" d="M57 22h1v1h-1z"/><path fill="#77BD54" d="M58 22h1v1h-1z"/><path fill="#7DC058" d="M59 22h1v1h-1zM60 22h1v1h-1zM61 22h1v1h-1zM62 22h1v1h-1zM63 22h1v1h-1zM64 22h1v1h-1zM65 22h1v1h-1zM66 22h1v1h-1zM67 22h1v1h-1z"/><path fill="#77B654" d="M68 22h1v1h-1z"/><path fill="#231815" d="M69 22h1v1h-1zM70 22h1v1h-1zM71 22h1v1h-1zM72 22h1v1h-1zM24 23h1v1h-1zM25 23h1v1h-1zM26 23h1v1h-1zM27 23h1v1h-1zM28 23h1v1h-1zM29 23h1v1h-1zM30 23h1v1h-1zM31 23h1v1h-1zM32 23h1v1h-1z"/><path fill="#3F4D2A" d="M33 23h1v1h-1z"/><path fill="#56773B" d="M34 23h1v1h-1z"/><path fill="#72AB50" d="M35 23h1v1h-1z"/><path fill="#7DC058" d="M36 23h1v1h-1zM37 23h1v1h-1zM38 23h1v1h-1zM39 23h1v1h-1zM40 23h1v1h-1zM41 23h1v1h-1zM42 23h1v1h-1zM43 23h1v1h-1zM44 23h1v1h-1zM45 23h1v1h-1zM46 23h1v1h-1zM47 23h1v1h-1z"/><path fill="#5BAE3F" d="M48 23h1v1h-1z"/><path fill="#4BA634" d="M49 23h1v1h-1zM50 23h1v1h-1zM51 23h1v1h-1z"/><path fill="#6DB84D" d="M52 23h1v1h-1z"/><path fill="#7DC058" d="M53 23h1v1h-1z"/><path fill="#77BD54" d="M54 23h1v1h-1z"/><path fill="#4BA634" d="M55 23h1v1h-1zM56 23h1v1h-1zM57 23h1v1h-1z"/><path fill="#71BA4F" d="M58 23h1v1h-1z"/><path fill="#7DC058" d="M59 23h1v1h-1zM60 23h1v1h-1zM61 23h1v1h-1zM62 23h1v1h-1zM63 23h1v1h-1zM64 23h1v1h-1zM65 23h1v1h-1zM66 23h1v1h-1zM67 23h1v1h-1z"/><path fill="#5B813F" d="M68 23h1v1h-1z"/><path fill="#231815" d="M69 23h1v1h-1zM70 23h1v1h-1zM71 23h1v1h-1zM22 24h1v1h-1zM23 24h1v1h-1zM24 24h1v1h-1zM25 24h1v1h-1zM26 24h1v1h-1zM27 24h1v1h-1zM28 24h1v1h-1zM29 24h1v1h-1z"/><path fill="#3A4226" d="M30 24h1v1h-1z"/><path fill="#5B813F" d="M31 24h1v1h-1z"/><path fill="#77B654" d="M32 24h1v1h-1z"/><path fill="#7DC058" d="M33 24h1v1h-1zM34 24h1v1h-1zM35 24h1v1h-1zM36 24h1v1h-1zM37 24h1v1h-1zM38 24h1v1h-1zM39 24h1v1h-1zM40 24h1v1h-1zM41 24h1v1h-1zM42 24h1v1h-1zM43 24h1v1h-1zM44 24h1v1h-1zM45 24h1v1h-1zM46 24h1v1h-1zM47 24h1v1h-1z"/><path fill="#67B548" d="M48 24h1v1h-1z"/><path fill="#4BA634" d="M49 24h1v1h-1zM50 24h1v1h-1zM51 24h1v1h-1z"/><path fill="#64B346" d="M52 24h1v1h-1z"/><path fill="#7DC058" d="M53 24h1v1h-1zM54 24h1v1h-1z"/><path fill="#51A939" d="M55 24h1v1h-1z"/><path fill="#4BA634" d="M56 24h1v1h-1zM57 24h1v1h-1z"/><path fill="#61B144" d="M58 24h1v1h-1z"/><path fill="#7DC058" d="M59 24h1v1h-1zM60 24h1v1h-1zM61 24h1v1h-1zM62 24h1v1h-1zM63 24h1v1h-1zM64 24h1v1h-1zM65 24h1v1h-1zM66 24h1v1h-1zM67 24h1v1h-1z"/><path fill="#343822" d="M68 24h1v1h-1z"/><path fill="#231815" d="M69 24h1v1h-1zM70 24h1v1h-1zM71 24h1v1h-1zM20 25h1v1h-1zM21 25h1v1h-1zM22 25h1v1h-1zM23 25h1v1h-1zM24 25h1v1h-1zM25 25h1v1h-1zM26 25h1v1h-1z"/><path fill="#2E2D1D" d="M27 25h1v1h-1z"/><path fill="#506C37" d="M28 25h1v1h-1z"/><path fill="#72AB50" d="M29 25h1v1h-1z"/><path fill="#7DC058" d="M30 25h1v1h-1zM31 25h1v1h-1zM32 25h1v1h-1zM33 25h1v1h-1zM34 25h1v1h-1zM35 25h1v1h-1zM36 25h1v1h-1zM37 25h1v1h-1zM38 25h1v1h-1zM39 25h1v1h-1zM40 25h1v1h-1zM41 25h1v1h-1zM42 25h1v1h-1zM43 25h1v1h-1zM44 25h1v1h-1zM45 25h1v1h-1zM46 25h1v1h-1zM47 25h1v1h-1z"/><path fill="#74BB51" d="M48 25h1v1h-1z"/><path fill="#4BA634" d="M49 25h1v1h-1zM50 25h1v1h-1zM51 25h1v1h-1z"/><path fill="#54AB3B" d="M52 25h1v1h-1z"/><path fill="#7DC058" d="M53 25h1v1h-1zM54 25h1v1h-1z"/><path fill="#61B144" d="M55 25h1v1h-1z"/><path fill="#4BA634" d="M56 25h1v1h-1zM57 25h1v1h-1z"/><path fill="#4EA836" d="M58 25h1v1h-1z"/><path fill="#7ABE56" d="M59 25h1v1h-1z"/><path fill="#7DC058" d="M60 25h1v1h-1zM61 25h1v1h-1zM62 25h1v1h-1zM63 25h1v1h-1zM64 25h1v1h-1zM65 25h1v1h-1zM66 25h1v1h-1z"/><path fill="#72AB50" d="M67 25h1v1h-1z"/><path fill="#231815" d="M68 25h1v1h-1zM69 25h1v1h-1zM70 25h1v1h-1zM71 25h1v1h-1zM18 26h1v1h-1zM19 26h1v1h-1zM20 26h1v1h-1zM21 26h1v1h-1zM22 26h1v1h-1zM23 26h1v1h-1zM24 26h1v1h-1z"/><path fill="#3A4226" d="M25 26h1v1h-1z"/><path fill="#618C43" d="M26 26h1v1h-1z"/><path fill="#7DC058" d="M27 26h1v1h-1zM28 26h1v1h-1zM29 26h1v1h-1zM30 26h1v1h-1zM31 26h1v1h-1zM32 26h1v1h-1zM33 26h1v1h-1zM34 26h1v1h-1zM35 26h1v1h-1zM36 26h1v1h-1zM37 26h1v1h-1zM38 26h1v1h-1zM39 26h1v1h-1zM40 26h1v1h-1zM41 26h1v1h-1zM42 26h1v1h-1zM43 26h1v1h-1zM44 26h1v1h-1zM45 26h1v1h-1zM46 26h1v1h-1zM47 26h1v1h-1zM48 26h1v1h-1z"/><path fill="#51A939" d="M49 26h1v1h-1z"/><path fill="#4BA634" d="M50 26h1v1h-1zM51 26h1v1h-1zM52 26h1v1h-1z"/><path fill="#77BD54" d="M53 26h1v1h-1z"/><path fill="#7DC058" d="M54 26h1v1h-1z"/><path fill="#77BD54" d="M55 26h1v1h-1z"/><path fill="#4BA634" d="M56 26h1v1h-1zM57 26h1v1h-1zM58 26h1v1h-1z"/><path fill="#5EB042" d="M59 26h1v1h-1z"/><path fill="#7DC058" d="M60 26h1v1h-1zM61 26h1v1h-1zM62 26h1v1h-1zM63 26h1v1h-1zM64 26h1v1h-1zM65 26h1v1h-1zM66 26h1v1h-1z"/><path fill="#4A6232" d="M67 26h1v1h-1z"/><path fill="#231815" d="M68 26h1v1h-1zM69 26h1v1h-1zM70 26h1v1h-1zM16 27h1v1h-1zM17 27h1v1h-1zM18 27h1v1h-1zM19 27h1v1h-1zM20 27h1v1h-1zM21 27h1v1h-1zM22 27h1v1h-1z"/><path fill="#45572E" d="M23 27h1v1h-1z"/><path fill="#679647" d="M24 27h1v1h-1z"/><path fill="#7DC058" d="M25 27h1v1h-1zM26 27h1v1h-1zM27 27h1v1h-1zM28 27h1v1h-1zM29 27h1v1h-1zM30 27h1v1h-1zM31 27h1v1h-1zM32 27h1v1h-1zM33 27h1v1h-1zM34 27h1v1h-1zM35 27h1v1h-1zM36 27h1v1h-1zM37 27h1v1h-1zM38 27h1v1h-1zM39 27h1v1h-1zM40 27h1v1h-1zM41 27h1v1h-1zM42 27h1v1h-1zM43 27h1v1h-1zM44 27h1v1h-1zM45 27h1v1h-1zM46 27h1v1h-1zM47 27h1v1h-1zM48 27h1v1h-1z"/><path fill="#6AB64B" d="M49 27h1v1h-1z"/><path fill="#4BA634" d="M50 27h1v1h-1zM51 27h1v1h-1zM52 27h1v1h-1z"/><path fill="#5BAE3F" d="M53 27h1v1h-1z"/><path fill="#7DC058" d="M54 27h1v1h-1zM55 27h1v1h-1z"/><path fill="#61B144" d="M56 27h1v1h-1z"/><path fill="#4BA634" d="M57 27h1v1h-1zM58 27h1v1h-1zM59 27h1v1h-1z"/><path fill="#58AD3D" d="M60 27h1v1h-1z"/><path fill="#77BD54" d="M61 27h1v1h-1z"/><path fill="#7DC058" d="M62 27h1v1h-1zM63 27h1v1h-1zM64 27h1v1h-1zM65 27h1v1h-1zM66 27h1v1h-1z"/><path fill="#292319" d="M67 27h1v1h-1z"/><path fill="#231815" d="M68 27h1v1h-1zM69 27h1v1h-1zM70 27h1v1h-1zM15 28h1v1h-1zM16 28h1v1h-1zM17 28h1v1h-1zM18 28h1v1h-1zM19 28h1v1h-1zM20 28h1v1h-1z"/><path fill="#3A4226" d="M21 28h1v1h-1z"/><path fill="#72AB50" d="M22 28h1v1h-1z"/><path fill="#7DC058" d="M23 28h1v1h-1zM24 28h1v1h-1zM25 28h1v1h-1zM26 28h1v1h-1zM27 28h1v1h-1zM28 28h1v1h-1zM29 28h1v1h-1zM30 28h1v1h-1zM31 28h1v1h-1zM32 28h1v1h-1zM33 28h1v1h-1zM34 28h1v1h-1zM35 28h1v1h-1zM36 28h1v1h-1zM37 28h1v1h-1zM38 28h1v1h-1zM39 28h1v1h-1zM40 28h1v1h-1zM41 28h1v1h-1zM42 28h1v1h-1zM43 28h1v1h-1zM44 28h1v1h-1zM45 28h1v1h-1zM46 28h1v1h-1zM47 28h1v1h-1zM48 28h1v1h-1zM49 28h1v1h-1z"/><path fill="#51A939" d="M50 28h1v1h-1z"/><path fill="#4BA634" d="M51 28h1v1h-1zM52 28h1v1h-1zM53 28h1v1h-1z"/><path fill="#6DB84D" d="M54 28h1v1h-1z"/><path fill="#7DC058" d="M55 28h1v1h-1zM56 28h1v1h-1z"/><path fill="#54AB3B" d="M57 28h1v1h-1z"/><path fill="#4BA634" d="M58 28h1v1h-1zM59 28h1v1h-1zM60 28h1v1h-1zM61 28h1v1h-1z"/><path fill="#54AB3B" d="M62 28h1v1h-1z"/><path fill="#64B346" d="M63 28h1v1h-1zM64 28h1v1h-1zM65 28h1v1h-1z"/><path fill="#61B144" d="M66 28h1v1h-1z"/><path fill="#231815" d="M67 28h1v1h-1zM68 28h1v1h-1zM69 28h1v1h-1zM13 29h1v1h-1zM14 29h1v1h-1zM15 29h1v1h-1zM16 29h1v1h-1zM17 29h1v1h-1zM18 29h1v1h-1z"/><path fill="#343822" d="M19 29h1v1h-1z"/><path fill="#679647" d="M20 29h1v1h-1z"/><path fill="#7DC058" d="M21 29h1v1h-1zM22 29h1v1h-1zM23 29h1v1h-1zM24 29h1v1h-1zM25 29h1v1h-1zM26 29h1v1h-1zM27 29h1v1h-1zM28 29h1v1h-1zM29 29h1v1h-1zM30 29h1v1h-1zM31 29h1v1h-1zM32 29h1v1h-1zM33 29h1v1h-1zM34 29h1v1h-1zM35 29h1v1h-1zM36 29h1v1h-1zM37 29h1v1h-1zM38 29h1v1h-1zM39 29h1v1h-1zM40 29h1v1h-1zM41 29h1v1h-1zM42 29h1v1h-1zM43 29h1v1h-1zM44 29h1v1h-1zM45 29h1v1h-1zM46 29h1v1h-1zM47 29h1v1h-1zM48 29h1v1h-1zM49 29h1v1h-1z"/><path fill="#6DB84D" d="M50 29h1v1h-1z"/><path fill="#4BA634" d="M51 29h1v1h-1zM52 29h1v1h-1zM53 29h1v1h-1z"/><path fill="#4EA836" d="M54 29h1v1h-1z"/><path fill="#74BB51" d="M55 29h1v1h-1z"/><path fill="#7DC058" d="M56 29h1v1h-1z"/><path fill="#7ABE56" d="M57 29h1v1h-1z"/><path fill="#5BAE3F" d="M58 29h1v1h-1z"/><path fill="#4BA634" d="M59 29h1v1h-1zM60 29h1v1h-1zM61 29h1v1h-1zM62 29h1v1h-1zM63 29h1v1h-1zM64 29h1v1h-1zM65 29h1v1h-1zM66 29h1v1h-1z"/><path fill="#231815" d="M67 29h1v1h-1zM68 29h1v1h-1zM69 29h1v1h-1zM12 30h1v1h-1zM13 30h1v1h-1zM14 30h1v1h-1zM15 30h1v1h-1zM16 30h1v1h-1z"/><path fill="#292319" d="M17 30h1v1h-1z"/><path fill="#56773B" d="M18 30h1v1h-1z"/><path fill="#7DC058" d="M19 30h1v1h-1zM20 30h1v1h-1zM21 30h1v1h-1zM22 30h1v1h-1zM23 30h1v1h-1zM24 30h1v1h-1zM25 30h1v1h-1zM26 30h1v1h-1zM27 30h1v1h-1zM28 30h1v1h-1zM29 30h1v1h-1zM30 30h1v1h-1zM31 30h1v1h-1zM32 30h1v1h-1zM33 30h1v1h-1zM34 30h1v1h-1zM35 30h1v1h-1zM36 30h1v1h-1zM37 30h1v1h-1z"/><path fill="#82C25D" d="M38 30h1v1h-1z"/><path fill="#88C563" d="M39 30h1v1h-1zM40 30h1v1h-1zM41 30h1v1h-1zM42 30h1v1h-1z"/><path fill="#80C15B" d="M43 30h1v1h-1z"/><path fill="#7DC058" d="M44 30h1v1h-1zM45 30h1v1h-1zM46 30h1v1h-1zM47 30h1v1h-1zM48 30h1v1h-1zM49 30h1v1h-1zM50 30h1v1h-1z"/><path fill="#5BAE3F" d="M51 30h1v1h-1z"/><path fill="#4BA634" d="M52 30h1v1h-1zM53 30h1v1h-1zM54 30h1v1h-1z"/><path fill="#4EA836" d="M55 30h1v1h-1z"/><path fill="#71BA4F" d="M56 30h1v1h-1z"/><path fill="#7DC058" d="M57 30h1v1h-1zM58 30h1v1h-1z"/><path fill="#6AB64B" d="M59 30h1v1h-1z"/><path fill="#51A939" d="M60 30h1v1h-1z"/><path fill="#4BA634" d="M61 30h1v1h-1zM62 30h1v1h-1zM63 30h1v1h-1zM64 30h1v1h-1zM65 30h1v1h-1zM66 30h1v1h-1z"/><path fill="#231815" d="M67 30h1v1h-1zM68 30h1v1h-1zM69 30h1v1h-1zM11 31h1v1h-1zM12 31h1v1h-1zM13 31h1v1h-1zM14 31h1v1h-1zM15 31h1v1h-1z"/><path fill="#3A4226" d="M16 31h1v1h-1z"/><path fill="#72AB50" d="M17 31h1v1h-1z"/><path fill="#7DC058" d="M18 31h1v1h-1zM19 31h1v1h-1zM20 31h1v1h-1zM21 31h1v1h-1zM22 31h1v1h-1zM23 31h1v1h-1zM24 31h1v1h-1zM25 31h1v1h-1zM26 31h1v1h-1zM27 31h1v1h-1zM28 31h1v1h-1zM29 31h1v1h-1zM30 31h1v1h-1zM31 31h1v1h-1zM32 31h1v1h-1z"/><path fill="#80C15B" d="M33 31h1v1h-1z"/><path fill="#8AC665" d="M34 31h1v1h-1z"/><path fill="#97CB72" d="M35 31h1v1h-1z"/><path fill="#9FCF7A" d="M36 31h1v1h-1z"/><path fill="#A7D282" d="M37 31h1v1h-1zM38 31h1v1h-1zM39 31h1v1h-1zM40 31h1v1h-1zM41 31h1v1h-1zM42 31h1v1h-1zM43 31h1v1h-1zM44 31h1v1h-1z"/><path fill="#9DCE78" d="M45 31h1v1h-1z"/><path fill="#95CA70" d="M46 31h1v1h-1z"/><path fill="#8AC665" d="M47 31h1v1h-1z"/><path fill="#7DC058" d="M48 31h1v1h-1zM49 31h1v1h-1zM50 31h1v1h-1z"/><path fill="#7ABE56" d="M51 31h1v1h-1z"/><path fill="#54AB3B" d="M52 31h1v1h-1z"/><path fill="#4BA634" d="M53 31h1v1h-1zM54 31h1v1h-1zM55 31h1v1h-1zM56 31h1v1h-1z"/><path fill="#64B346" d="M57 31h1v1h-1z"/><path fill="#7DC058" d="M58 31h1v1h-1zM59 31h1v1h-1zM60 31h1v1h-1z"/><path fill="#6DB84D" d="M61 31h1v1h-1z"/><path fill="#64B346" d="M62 31h1v1h-1z"/><path fill="#58AD3D" d="M63 31h1v1h-1zM64 31h1v1h-1zM65 31h1v1h-1zM66 31h1v1h-1z"/><path fill="#231815" d="M67 31h1v1h-1zM68 31h1v1h-1zM69 31h1v1h-1zM10 32h1v1h-1zM11 32h1v1h-1zM12 32h1v1h-1zM13 32h1v1h-1zM14 32h1v1h-1z"/><path fill="#56773B" d="M15 32h1v1h-1z"/><path fill="#7DC058" d="M16 32h1v1h-1zM17 32h1v1h-1zM18 32h1v1h-1zM19 32h1v1h-1zM20 32h1v1h-1zM21 32h1v1h-1zM22 32h1v1h-1zM23 32h1v1h-1zM24 32h1v1h-1zM25 32h1v1h-1zM26 32h1v1h-1zM27 32h1v1h-1zM28 32h1v1h-1zM29 32h1v1h-1zM30 32h1v1h-1z"/><path fill="#82C25D" d="M31 32h1v1h-1z"/><path fill="#97CB72" d="M32 32h1v1h-1z"/><path fill="#A4D17F" d="M33 32h1v1h-1z"/><path fill="#A7D282" d="M34 32h1v1h-1z"/><path fill="#B9DB9A" d="M35 32h1v1h-1z"/><path fill="#C4E1A8" d="M36 32h1v1h-1zM37 32h1v1h-1zM38 32h1v1h-1z"/><path fill="#B2D790" d="M39 32h1v1h-1z"/><path fill="#A7D282" d="M40 32h1v1h-1zM41 32h1v1h-1zM42 32h1v1h-1zM43 32h1v1h-1zM44 32h1v1h-1zM45 32h1v1h-1zM46 32h1v1h-1zM47 32h1v1h-1z"/><path fill="#A4D17F" d="M48 32h1v1h-1z"/><path fill="#97CB72" d="M49 32h1v1h-1z"/><path fill="#85C360" d="M50 32h1v1h-1z"/><path fill="#7DC058" d="M51 32h1v1h-1z"/><path fill="#7ABE56" d="M52 32h1v1h-1z"/><path fill="#54AB3B" d="M53 32h1v1h-1z"/><path fill="#4BA634" d="M54 32h1v1h-1zM55 32h1v1h-1zM56 32h1v1h-1zM57 32h1v1h-1z"/><path fill="#51A939" d="M58 32h1v1h-1z"/><path fill="#6AB64B" d="M59 32h1v1h-1z"/><path fill="#7ABE56" d="M60 32h1v1h-1z"/><path fill="#7DC058" d="M61 32h1v1h-1zM62 32h1v1h-1zM63 32h1v1h-1zM64 32h1v1h-1zM65 32h1v1h-1zM66 32h1v1h-1z"/><path fill="#2E2D1D" d="M67 32h1v1h-1z"/><path fill="#231815" d="M68 32h1v1h-1zM69 32h1v1h-1zM70 32h1v1h-1zM9 33h1v1H9zM10 33h1v1h-1zM11 33h1v1h-1zM12 33h1v1h-1z"/><path fill="#292319" d="M13 33h1v1h-1z"/><path fill="#6CA14B" d="M14 33h1v1h-1z"/><path fill="#7DC058" d="M15 33h1v1h-1zM16 33h1v1h-1zM17 33h1v1h-1zM18 33h1v1h-1zM19 33h1v1h-1zM20 33h1v1h-1zM21 33h1v1h-1zM22 33h1v1h-1zM23 33h1v1h-1zM24 33h1v1h-1zM25 33h1v1h-1zM26 33h1v1h-1zM27 33h1v1h-1zM28 33h1v1h-1z"/><path fill="#80C15B" d="M29 33h1v1h-1z"/><path fill="#95CA70" d="M30 33h1v1h-1z"/><path fill="#A7D282" d="M31 33h1v1h-1zM32 33h1v1h-1z"/><path fill="#B2D790" d="M33 33h1v1h-1z"/><path fill="#D6EAC0" d="M34 33h1v1h-1z"/><path fill="#E1EFCE" d="M35 33h1v1h-1zM36 33h1v1h-1zM37 33h1v1h-1zM38 33h1v1h-1zM39 33h1v1h-1z"/><path fill="#D3E8BB" d="M40 33h1v1h-1z"/><path fill="#ABD487" d="M41 33h1v1h-1z"/><path fill="#A7D282" d="M42 33h1v1h-1zM43 33h1v1h-1zM44 33h1v1h-1zM45 33h1v1h-1zM46 33h1v1h-1zM47 33h1v1h-1zM48 33h1v1h-1zM49 33h1v1h-1zM50 33h1v1h-1z"/><path fill="#9DCE78" d="M51 33h1v1h-1z"/><path fill="#85C360" d="M52 33h1v1h-1z"/><path fill="#7ABE56" d="M53 33h1v1h-1z"/><path fill="#54AB3B" d="M54 33h1v1h-1z"/><path fill="#4BA634" d="M55 33h1v1h-1zM56 33h1v1h-1zM57 33h1v1h-1zM58 33h1v1h-1zM59 33h1v1h-1zM60 33h1v1h-1z"/><path fill="#5BAE3F" d="M61 33h1v1h-1z"/><path fill="#64B346" d="M62 33h1v1h-1z"/><path fill="#71BA4F" d="M63 33h1v1h-1zM64 33h1v1h-1zM65 33h1v1h-1zM66 33h1v1h-1z"/><path fill="#364024" d="M67 33h1v1h-1z"/><path fill="#231815" d="M68 33h1v1h-1zM69 33h1v1h-1zM70 33h1v1h-1zM8 34h1v1H8zM9 34h1v1H9zM10 34h1v1h-1zM11 34h1v1h-1z"/><path fill="#343822" d="M12 34h1v1h-1z"/><path fill="#77B654" d="M13 34h1v1h-1z"/><path fill="#7DC058" d="M14 34h1v1h-1zM15 34h1v1h-1zM16 34h1v1h-1zM17 34h1v1h-1zM18 34h1v1h-1zM19 34h1v1h-1zM20 34h1v1h-1zM21 34h1v1h-1zM22 34h1v1h-1zM23 34h1v1h-1zM24 34h1v1h-1zM25 34h1v1h-1zM26 34h1v1h-1zM27 34h1v1h-1z"/><path fill="#85C360" d="M28 34h1v1h-1z"/><path fill="#A2D07D" d="M29 34h1v1h-1z"/><path fill="#A7D282" d="M30 34h1v1h-1zM31 34h1v1h-1z"/><path fill="#ABD487" d="M32 34h1v1h-1z"/><path fill="#DAEBC5" d="M33 34h1v1h-1z"/><path fill="#E1EFCE" d="M34 34h1v1h-1zM35 34h1v1h-1zM36 34h1v1h-1zM37 34h1v1h-1zM38 34h1v1h-1zM39 34h1v1h-1zM40 34h1v1h-1z"/><path fill="#D3E8BB" d="M41 34h1v1h-1z"/><path fill="#A7D282" d="M42 34h1v1h-1zM43 34h1v1h-1zM44 34h1v1h-1zM45 34h1v1h-1zM46 34h1v1h-1zM47 34h1v1h-1zM48 34h1v1h-1zM49 34h1v1h-1zM50 34h1v1h-1zM51 34h1v1h-1zM52 34h1v1h-1z"/><path fill="#92C96D" d="M53 34h1v1h-1z"/><path fill="#7ABE56" d="M54 34h1v1h-1z"/><path fill="#61B144" d="M55 34h1v1h-1z"/><path fill="#4BA634" d="M56 34h1v1h-1zM57 34h1v1h-1zM58 34h1v1h-1zM59 34h1v1h-1zM60 34h1v1h-1zM61 34h1v1h-1zM62 34h1v1h-1zM63 34h1v1h-1zM64 34h1v1h-1zM65 34h1v1h-1zM66 34h1v1h-1z"/><path fill="#2D3C1D" d="M67 34h1v1h-1z"/><path fill="#231815" d="M68 34h1v1h-1zM69 34h1v1h-1zM70 34h1v1h-1zM7 35h1v1H7zM8 35h1v1H8zM9 35h1v1H9zM10 35h1v1h-1z"/><path fill="#343822" d="M11 35h1v1h-1z"/><path fill="#77B654" d="M12 35h1v1h-1z"/><path fill="#7DC058" d="M13 35h1v1h-1zM14 35h1v1h-1zM15 35h1v1h-1zM16 35h1v1h-1zM17 35h1v1h-1zM18 35h1v1h-1zM19 35h1v1h-1zM20 35h1v1h-1zM21 35h1v1h-1zM22 35h1v1h-1zM23 35h1v1h-1zM24 35h1v1h-1zM25 35h1v1h-1zM26 35h1v1h-1z"/><path fill="#8DC768" d="M27 35h1v1h-1z"/><path fill="#A7D282" d="M28 35h1v1h-1zM29 35h1v1h-1zM30 35h1v1h-1zM31 35h1v1h-1z"/><path fill="#BDDD9F" d="M32 35h1v1h-1z"/><path fill="#E1EFCE" d="M33 35h1v1h-1zM34 35h1v1h-1zM35 35h1v1h-1zM36 35h1v1h-1zM37 35h1v1h-1zM38 35h1v1h-1zM39 35h1v1h-1zM40 35h1v1h-1zM41 35h1v1h-1z"/><path fill="#B2D790" d="M42 35h1v1h-1z"/><path fill="#A7D282" d="M43 35h1v1h-1zM44 35h1v1h-1zM45 35h1v1h-1zM46 35h1v1h-1zM47 35h1v1h-1zM48 35h1v1h-1zM49 35h1v1h-1zM50 35h1v1h-1zM51 35h1v1h-1zM52 35h1v1h-1zM53 35h1v1h-1z"/><path fill="#9FCF7A" d="M54 35h1v1h-1z"/><path fill="#80C15B" d="M55 35h1v1h-1z"/><path fill="#71BA4F" d="M56 35h1v1h-1z"/><path fill="#54AB3B" d="M57 35h1v1h-1z"/><path fill="#4BA634" d="M58 35h1v1h-1zM59 35h1v1h-1zM60 35h1v1h-1zM61 35h1v1h-1zM62 35h1v1h-1zM63 35h1v1h-1zM64 35h1v1h-1zM65 35h1v1h-1zM66 35h1v1h-1z"/><path fill="#2D3C1D" d="M67 35h1v1h-1z"/><path fill="#231815" d="M68 35h1v1h-1zM69 35h1v1h-1zM70 35h1v1h-1zM6 36h1v1H6zM7 36h1v1H7zM8 36h1v1H8zM9 36h1v1H9z"/><path fill="#343822" d="M10 36h1v1h-1z"/><path fill="#77B654" d="M11 36h1v1h-1z"/><path fill="#7DC058" d="M12 36h1v1h-1zM13 36h1v1h-1zM14 36h1v1h-1zM15 36h1v1h-1zM16 36h1v1h-1zM17 36h1v1h-1zM18 36h1v1h-1zM19 36h1v1h-1zM20 36h1v1h-1zM21 36h1v1h-1zM22 36h1v1h-1zM23 36h1v1h-1zM24 36h1v1h-1zM25 36h1v1h-1z"/><path fill="#8DC768" d="M26 36h1v1h-1z"/><path fill="#A7D282" d="M27 36h1v1h-1zM28 36h1v1h-1zM29 36h1v1h-1zM30 36h1v1h-1zM31 36h1v1h-1z"/><path fill="#C4E1A8" d="M32 36h1v1h-1z"/><path fill="#E1EFCE" d="M33 36h1v1h-1zM34 36h1v1h-1zM35 36h1v1h-1zM36 36h1v1h-1zM37 36h1v1h-1zM38 36h1v1h-1zM39 36h1v1h-1zM40 36h1v1h-1zM41 36h1v1h-1z"/><path fill="#B6D995" d="M42 36h1v1h-1z"/><path fill="#A7D282" d="M43 36h1v1h-1zM44 36h1v1h-1zM45 36h1v1h-1zM46 36h1v1h-1zM47 36h1v1h-1zM48 36h1v1h-1zM49 36h1v1h-1zM50 36h1v1h-1zM51 36h1v1h-1zM52 36h1v1h-1zM53 36h1v1h-1zM54 36h1v1h-1z"/><path fill="#A4D17F" d="M55 36h1v1h-1z"/><path fill="#85C360" d="M56 36h1v1h-1z"/><path fill="#7DC058" d="M57 36h1v1h-1z"/><path fill="#6AB64B" d="M58 36h1v1h-1z"/><path fill="#58AD3D" d="M59 36h1v1h-1z"/><path fill="#4BA634" d="M60 36h1v1h-1zM61 36h1v1h-1zM62 36h1v1h-1zM63 36h1v1h-1zM64 36h1v1h-1zM65 36h1v1h-1zM66 36h1v1h-1z"/><path fill="#2D3C1D" d="M67 36h1v1h-1z"/><path fill="#231815" d="M68 36h1v1h-1zM69 36h1v1h-1zM70 36h1v1h-1zM5 37h1v1H5zM6 37h1v1H6zM7 37h1v1H7zM8 37h1v1H8z"/><path fill="#343822" d="M9 37h1v1H9z"/><path fill="#77B654" d="M10 37h1v1h-1z"/><path fill="#7DC058" d="M11 37h1v1h-1zM12 37h1v1h-1zM13 37h1v1h-1zM14 37h1v1h-1zM15 37h1v1h-1zM16 37h1v1h-1zM17 37h1v1h-1zM18 37h1v1h-1z"/><path fill="#9EBF56" d="M19 37h1v1h-1z"/><path fill="#BABD55" d="M20 37h1v1h-1z"/><path fill="#D0BC53" d="M21 37h1v1h-1z"/><path fill="#CABD54" d="M22 37h1v1h-1z"/><path fill="#7DC058" d="M23 37h1v1h-1zM24 37h1v1h-1z"/><path fill="#88C563" d="M25 37h1v1h-1z"/><path fill="#A7D282" d="M26 37h1v1h-1zM27 37h1v1h-1zM28 37h1v1h-1zM29 37h1v1h-1zM30 37h1v1h-1zM31 37h1v1h-1z"/><path fill="#C0DFA3" d="M32 37h1v1h-1z"/><path fill="#E1EFCE" d="M33 37h1v1h-1zM34 37h1v1h-1zM35 37h1v1h-1zM36 37h1v1h-1zM37 37h1v1h-1zM38 37h1v1h-1zM39 37h1v1h-1zM40 37h1v1h-1zM41 37h1v1h-1z"/><path fill="#B6D995" d="M42 37h1v1h-1z"/><path fill="#A7D282" d="M43 37h1v1h-1zM44 37h1v1h-1zM45 37h1v1h-1z"/><path fill="#C1DA85" d="M46 37h1v1h-1z"/><path fill="#D2DF87" d="M47 37h1v1h-1z"/><path fill="#CEDD87" d="M48 37h1v1h-1z"/><path fill="#ABD383" d="M49 37h1v1h-1z"/><path fill="#A7D282" d="M50 37h1v1h-1zM51 37h1v1h-1zM52 37h1v1h-1zM53 37h1v1h-1zM54 37h1v1h-1zM55 37h1v1h-1z"/><path fill="#A4D17F" d="M56 37h1v1h-1z"/><path fill="#80C15B" d="M57 37h1v1h-1z"/><path fill="#7DC058" d="M58 37h1v1h-1zM59 37h1v1h-1z"/><path fill="#77BD54" d="M60 37h1v1h-1z"/><path fill="#6AB64B" d="M61 37h1v1h-1z"/><path fill="#5EB042" d="M62 37h1v1h-1z"/><path fill="#58AD3D" d="M63 37h1v1h-1z"/><path fill="#4EA836" d="M64 37h1v1h-1z"/><path fill="#4BA634" d="M65 37h1v1h-1zM66 37h1v1h-1z"/><path fill="#2D3C1D" d="M67 37h1v1h-1z"/><path fill="#231815" d="M68 37h1v1h-1zM69 37h1v1h-1zM70 37h1v1h-1zM4 38h1v1H4zM5 38h1v1H5zM6 38h1v1H6zM7 38h1v1H7z"/><path fill="#2E2D1D" d="M8 38h1v1H8z"/><path fill="#77B654" d="M9 38h1v1H9z"/><path fill="#7DC058" d="M10 38h1v1h-1zM11 38h1v1h-1zM12 38h1v1h-1zM13 38h1v1h-1zM14 38h1v1h-1zM15 38h1v1h-1zM16 38h1v1h-1z"/><path fill="#99BF56" d="M17 38h1v1h-1z"/><path fill="#CABD54" d="M18 38h1v1h-1z"/><path fill="#D5BC53" d="M19 38h1v1h-1zM20 38h1v1h-1zM21 38h1v1h-1zM22 38h1v1h-1z"/><path fill="#7DC058" d="M23 38h1v1h-1z"/><path fill="#80C15B" d="M24 38h1v1h-1z"/><path fill="#A4D17F" d="M25 38h1v1h-1z"/><path fill="#A7D282" d="M26 38h1v1h-1zM27 38h1v1h-1zM28 38h1v1h-1zM29 38h1v1h-1zM30 38h1v1h-1zM31 38h1v1h-1z"/><path fill="#ABD487" d="M32 38h1v1h-1z"/><path fill="#DDEDC9" d="M33 38h1v1h-1z"/><path fill="#E1EFCE" d="M34 38h1v1h-1zM35 38h1v1h-1zM36 38h1v1h-1zM37 38h1v1h-1zM38 38h1v1h-1zM39 38h1v1h-1zM40 38h1v1h-1z"/><path fill="#D6EAC0" d="M41 38h1v1h-1z"/><path fill="#A7D282" d="M42 38h1v1h-1zM43 38h1v1h-1z"/><path fill="#BDD885" d="M44 38h1v1h-1z"/><path fill="#E3E489" d="M45 38h1v1h-1z"/><path fill="#ECE68A" d="M46 38h1v1h-1zM47 38h1v1h-1zM48 38h1v1h-1z"/><path fill="#CADC86" d="M49 38h1v1h-1z"/><path fill="#A7D282" d="M50 38h1v1h-1zM51 38h1v1h-1zM52 38h1v1h-1zM53 38h1v1h-1zM54 38h1v1h-1zM55 38h1v1h-1zM56 38h1v1h-1z"/><path fill="#9FCF7A" d="M57 38h1v1h-1z"/><path fill="#7DC058" d="M58 38h1v1h-1zM59 38h1v1h-1zM60 38h1v1h-1zM61 38h1v1h-1zM62 38h1v1h-1zM63 38h1v1h-1zM64 38h1v1h-1zM65 38h1v1h-1zM66 38h1v1h-1z"/><path fill="#3A4226" d="M67 38h1v1h-1z"/><path fill="#231815" d="M68 38h1v1h-1zM69 38h1v1h-1zM70 38h1v1h-1zM4 39h1v1H4zM5 39h1v1H5zM6 39h1v1H6z"/><path fill="#292319" d="M7 39h1v1H7z"/><path fill="#6CA14B" d="M8 39h1v1H8z"/><path fill="#7DC058" d="M9 39h1v1H9zM10 39h1v1h-1zM11 39h1v1h-1zM12 39h1v1h-1zM13 39h1v1h-1zM14 39h1v1h-1z"/><path fill="#83C058" d="M15 39h1v1h-1z"/><path fill="#BABD55" d="M16 39h1v1h-1z"/><path fill="#D5BC53" d="M17 39h1v1h-1zM18 39h1v1h-1zM19 39h1v1h-1zM20 39h1v1h-1zM21 39h1v1h-1z"/><path fill="#B4BE55" d="M22 39h1v1h-1z"/><path fill="#7DC058" d="M23 39h1v1h-1z"/><path fill="#97CB72" d="M24 39h1v1h-1z"/><path fill="#A7D282" d="M25 39h1v1h-1zM26 39h1v1h-1zM27 39h1v1h-1zM28 39h1v1h-1zM29 39h1v1h-1zM30 39h1v1h-1zM31 39h1v1h-1zM32 39h1v1h-1z"/><path fill="#B2D790" d="M33 39h1v1h-1z"/><path fill="#DDEDC9" d="M34 39h1v1h-1z"/><path fill="#E1EFCE" d="M35 39h1v1h-1zM36 39h1v1h-1zM37 39h1v1h-1zM38 39h1v1h-1zM39 39h1v1h-1z"/><path fill="#DAEBC5" d="M40 39h1v1h-1z"/><path fill="#B2D790" d="M41 39h1v1h-1z"/><path fill="#A7D282" d="M42 39h1v1h-1z"/><path fill="#D2DF87" d="M43 39h1v1h-1z"/><path fill="#ECE68A" d="M44 39h1v1h-1zM45 39h1v1h-1zM46 39h1v1h-1zM47 39h1v1h-1zM48 39h1v1h-1z"/><path fill="#CADC86" d="M49 39h1v1h-1z"/><path fill="#A7D282" d="M50 39h1v1h-1zM51 39h1v1h-1zM52 39h1v1h-1zM53 39h1v1h-1zM54 39h1v1h-1zM55 39h1v1h-1zM56 39h1v1h-1zM57 39h1v1h-1z"/><path fill="#92C96D" d="M58 39h1v1h-1z"/><path fill="#7DC058" d="M59 39h1v1h-1zM60 39h1v1h-1zM61 39h1v1h-1zM62 39h1v1h-1zM63 39h1v1h-1zM64 39h1v1h-1zM65 39h1v1h-1zM66 39h1v1h-1z"/><path fill="#3A4226" d="M67 39h1v1h-1z"/><path fill="#231815" d="M68 39h1v1h-1zM69 39h1v1h-1zM70 39h1v1h-1zM3 40h1v1H3zM4 40h1v1H4zM5 40h1v1H5zM6 40h1v1H6z"/><path fill="#56773B" d="M7 40h1v1H7z"/><path fill="#7DC058" d="M8 40h1v1H8zM9 40h1v1H9zM10 40h1v1h-1zM11 40h1v1h-1zM12 40h1v1h-1zM13 40h1v1h-1z"/><path fill="#99BF56" d="M14 40h1v1h-1z"/><path fill="#D0BC53" d="M15 40h1v1h-1z"/><path fill="#D5BC53" d="M16 40h1v1h-1zM17 40h1v1h-1zM18 40h1v1h-1zM19 40h1v1h-1zM20 40h1v1h-1z"/><path fill="#D0BC53" d="M21 40h1v1h-1z"/><path fill="#88C057" d="M22 40h1v1h-1z"/><path fill="#88C563" d="M23 40h1v1h-1z"/><path fill="#A7D282" d="M24 40h1v1h-1zM25 40h1v1h-1zM26 40h1v1h-1zM27 40h1v1h-1zM28 40h1v1h-1zM29 40h1v1h-1zM30 40h1v1h-1zM31 40h1v1h-1zM32 40h1v1h-1zM33 40h1v1h-1z"/><path fill="#ABD487" d="M34 40h1v1h-1z"/><path fill="#C0DFA3" d="M35 40h1v1h-1z"/><path fill="#D3E8BB" d="M36 40h1v1h-1zM37 40h1v1h-1z"/><path fill="#CFE6B6" d="M38 40h1v1h-1z"/><path fill="#BDDD9F" d="M39 40h1v1h-1z"/><path fill="#ABD487" d="M40 40h1v1h-1z"/><path fill="#ABD383" d="M41 40h1v1h-1z"/><path fill="#DBE188" d="M42 40h1v1h-1z"/><path fill="#ECE68A" d="M43 40h1v1h-1zM44 40h1v1h-1zM45 40h1v1h-1zM46 40h1v1h-1zM47 40h1v1h-1zM48 40h1v1h-1z"/><path fill="#C5DB86" d="M49 40h1v1h-1z"/><path fill="#A7D282" d="M50 40h1v1h-1zM51 40h1v1h-1zM52 40h1v1h-1zM53 40h1v1h-1zM54 40h1v1h-1zM55 40h1v1h-1zM56 40h1v1h-1zM57 40h1v1h-1zM58 40h1v1h-1z"/><path fill="#82C25D" d="M59 40h1v1h-1z"/><path fill="#7DC058" d="M60 40h1v1h-1zM61 40h1v1h-1zM62 40h1v1h-1zM63 40h1v1h-1zM64 40h1v1h-1zM65 40h1v1h-1zM66 40h1v1h-1z"/><path fill="#3A4226" d="M67 40h1v1h-1z"/><path fill="#231815" d="M68 40h1v1h-1zM69 40h1v1h-1zM70 40h1v1h-1zM3 41h1v1H3zM4 41h1v1H4zM5 41h1v1H5z"/><path fill="#3A4226" d="M6 41h1v1H6z"/><path fill="#7DC058" d="M7 41h1v1H7zM8 41h1v1H8zM9 41h1v1H9zM10 41h1v1h-1zM11 41h1v1h-1zM12 41h1v1h-1z"/><path fill="#A9BE56" d="M13 41h1v1h-1z"/><path fill="#D5BC53" d="M14 41h1v1h-1zM15 41h1v1h-1zM16 41h1v1h-1zM17 41h1v1h-1zM18 41h1v1h-1zM19 41h1v1h-1zM20 41h1v1h-1z"/><path fill="#9EBF56" d="M21 41h1v1h-1z"/><path fill="#7DC058" d="M22 41h1v1h-1z"/><path fill="#97CB72" d="M23 41h1v1h-1z"/><path fill="#A7D282" d="M24 41h1v1h-1zM25 41h1v1h-1zM26 41h1v1h-1zM27 41h1v1h-1zM28 41h1v1h-1zM29 41h1v1h-1zM30 41h1v1h-1zM31 41h1v1h-1zM32 41h1v1h-1zM33 41h1v1h-1zM34 41h1v1h-1zM35 41h1v1h-1zM36 41h1v1h-1zM37 41h1v1h-1zM38 41h1v1h-1zM39 41h1v1h-1z"/><path fill="#ABD383" d="M40 41h1v1h-1z"/><path fill="#DFE289" d="M41 41h1v1h-1z"/><path fill="#ECE68A" d="M42 41h1v1h-1zM43 41h1v1h-1zM44 41h1v1h-1zM45 41h1v1h-1zM46 41h1v1h-1zM47 41h1v1h-1zM48 41h1v1h-1z"/><path fill="#B0D583" d="M49 41h1v1h-1z"/><path fill="#A7D282" d="M50 41h1v1h-1zM51 41h1v1h-1zM52 41h1v1h-1zM53 41h1v1h-1zM54 41h1v1h-1zM55 41h1v1h-1zM56 41h1v1h-1zM57 41h1v1h-1zM58 41h1v1h-1z"/><path fill="#97CB72" d="M59 41h1v1h-1z"/><path fill="#7DC058" d="M60 41h1v1h-1zM61 41h1v1h-1zM62 41h1v1h-1zM63 41h1v1h-1zM64 41h1v1h-1zM65 41h1v1h-1zM66 41h1v1h-1z"/><path fill="#343822" d="M67 41h1v1h-1z"/><path fill="#231815" d="M68 41h1v1h-1zM69 41h1v1h-1zM70 41h1v1h-1zM2 42h1v1H2zM3 42h1v1H3zM4 42h1v1H4zM5 42h1v1H5z"/><path fill="#6CA14B" d="M6 42h1v1H6z"/><path fill="#7DC058" d="M7 42h1v1H7zM8 42h1v1H8zM9 42h1v1H9zM10 42h1v1h-1zM11 42h1v1h-1z"/><path fill="#B4BE55" d="M12 42h1v1h-1z"/><path fill="#D5BC53" d="M13 42h1v1h-1zM14 42h1v1h-1zM15 42h1v1h-1zM16 42h1v1h-1zM17 42h1v1h-1zM18 42h1v1h-1zM19 42h1v1h-1z"/><path fill="#B4BE55" d="M20 42h1v1h-1z"/><path fill="#7DC058" d="M21 42h1v1h-1z"/><path fill="#80C15B" d="M22 42h1v1h-1z"/><path fill="#A7D282" d="M23 42h1v1h-1zM24 42h1v1h-1zM25 42h1v1h-1zM26 42h1v1h-1zM27 42h1v1h-1zM28 42h1v1h-1zM29 42h1v1h-1zM30 42h1v1h-1zM31 42h1v1h-1zM32 42h1v1h-1zM33 42h1v1h-1zM34 42h1v1h-1zM35 42h1v1h-1zM36 42h1v1h-1zM37 42h1v1h-1zM38 42h1v1h-1zM39 42h1v1h-1z"/><path fill="#D2DF87" d="M40 42h1v1h-1z"/><path fill="#ECE68A" d="M41 42h1v1h-1zM42 42h1v1h-1zM43 42h1v1h-1zM44 42h1v1h-1zM45 42h1v1h-1zM46 42h1v1h-1zM47 42h1v1h-1z"/><path fill="#DBE188" d="M48 42h1v1h-1z"/><path fill="#A7D282" d="M49 42h1v1h-1zM50 42h1v1h-1zM51 42h1v1h-1zM52 42h1v1h-1zM53 42h1v1h-1zM54 42h1v1h-1zM55 42h1v1h-1zM56 42h1v1h-1zM57 42h1v1h-1zM58 42h1v1h-1z"/><path fill="#A4D17F" d="M59 42h1v1h-1z"/><path fill="#80C15B" d="M60 42h1v1h-1z"/><path fill="#7DC058" d="M61 42h1v1h-1zM62 42h1v1h-1zM63 42h1v1h-1zM64 42h1v1h-1zM65 42h1v1h-1zM66 42h1v1h-1z"/><path fill="#231815" d="M67 42h1v1h-1zM68 42h1v1h-1zM69 42h1v1h-1zM2 43h1v1H2zM3 43h1v1H3zM4 43h1v1H4z"/><path fill="#45572E" d="M5 43h1v1H5z"/><path fill="#7DC058" d="M6 43h1v1H6zM7 43h1v1H7zM8 43h1v1H8zM9 43h1v1H9zM10 43h1v1h-1z"/><path fill="#B4BE55" d="M11 43h1v1h-1z"/><path fill="#D5BC53" d="M12 43h1v1h-1zM13 43h1v1h-1zM14 43h1v1h-1zM15 43h1v1h-1zM16 43h1v1h-1zM17 43h1v1h-1zM18 43h1v1h-1z"/><path fill="#C5BD54" d="M19 43h1v1h-1z"/><path fill="#83C058" d="M20 43h1v1h-1z"/><path fill="#7DC058" d="M21 43h1v1h-1z"/><path fill="#8AC665" d="M22 43h1v1h-1z"/><path fill="#A7D282" d="M23 43h1v1h-1zM24 43h1v1h-1zM25 43h1v1h-1zM26 43h1v1h-1zM27 43h1v1h-1zM28 43h1v1h-1zM29 43h1v1h-1z"/><path fill="#B8D784" d="M30 43h1v1h-1z"/><path fill="#ABD383" d="M31 43h1v1h-1z"/><path fill="#A7D282" d="M32 43h1v1h-1zM33 43h1v1h-1zM34 43h1v1h-1zM35 43h1v1h-1zM36 43h1v1h-1zM37 43h1v1h-1zM38 43h1v1h-1z"/><path fill="#CADC86" d="M39 43h1v1h-1z"/><path fill="#ECE68A" d="M40 43h1v1h-1zM41 43h1v1h-1zM42 43h1v1h-1zM43 43h1v1h-1zM44 43h1v1h-1zM45 43h1v1h-1zM46 43h1v1h-1zM47 43h1v1h-1z"/><path fill="#B8D784" d="M48 43h1v1h-1z"/><path fill="#A7D282" d="M49 43h1v1h-1zM50 43h1v1h-1zM51 43h1v1h-1zM52 43h1v1h-1zM53 43h1v1h-1zM54 43h1v1h-1zM55 43h1v1h-1zM56 43h1v1h-1zM57 43h1v1h-1zM58 43h1v1h-1zM59 43h1v1h-1z"/><path fill="#8AC665" d="M60 43h1v1h-1z"/><path fill="#7DC058" d="M61 43h1v1h-1zM62 43h1v1h-1zM63 43h1v1h-1zM64 43h1v1h-1zM65 43h1v1h-1zM66 43h1v1h-1z"/><path fill="#231815" d="M67 43h1v1h-1zM68 43h1v1h-1zM69 43h1v1h-1zM1 44h1v1H1zM2 44h1v1H2zM3 44h1v1H3zM4 44h1v1H4z"/><path fill="#72AB50" d="M5 44h1v1H5z"/><path fill="#7DC058" d="M6 44h1v1H6zM7 44h1v1H7zM8 44h1v1H8zM9 44h1v1H9z"/><path fill="#B4BE55" d="M10 44h1v1h-1z"/><path fill="#D5BC53" d="M11 44h1v1h-1zM12 44h1v1h-1zM13 44h1v1h-1zM14 44h1v1h-1zM15 44h1v1h-1zM16 44h1v1h-1zM17 44h1v1h-1z"/><path fill="#D0BC53" d="M18 44h1v1h-1z"/><path fill="#88C057" d="M19 44h1v1h-1z"/><path fill="#7DC058" d="M20 44h1v1h-1zM21 44h1v1h-1z"/><path fill="#95CA70" d="M22 44h1v1h-1z"/><path fill="#A7D282" d="M23 44h1v1h-1zM24 44h1v1h-1zM25 44h1v1h-1zM26 44h1v1h-1zM27 44h1v1h-1z"/><path fill="#C5DB86" d="M28 44h1v1h-1z"/><path fill="#E8E58A" d="M29 44h1v1h-1z"/><path fill="#ECE68A" d="M30 44h1v1h-1z"/><path fill="#DFE289" d="M31 44h1v1h-1z"/><path fill="#A7D282" d="M32 44h1v1h-1zM33 44h1v1h-1zM34 44h1v1h-1zM35 44h1v1h-1zM36 44h1v1h-1zM37 44h1v1h-1z"/><path fill="#B8D784" d="M38 44h1v1h-1z"/><path fill="#ECE68A" d="M39 44h1v1h-1zM40 44h1v1h-1zM41 44h1v1h-1zM42 44h1v1h-1zM43 44h1v1h-1zM44 44h1v1h-1zM45 44h1v1h-1zM46 44h1v1h-1z"/><path fill="#D6E088" d="M47 44h1v1h-1z"/><path fill="#A7D282" d="M48 44h1v1h-1zM49 44h1v1h-1zM50 44h1v1h-1zM51 44h1v1h-1zM52 44h1v1h-1zM53 44h1v1h-1zM54 44h1v1h-1zM55 44h1v1h-1zM56 44h1v1h-1zM57 44h1v1h-1zM58 44h1v1h-1zM59 44h1v1h-1z"/><path fill="#95CA70" d="M60 44h1v1h-1z"/><path fill="#7DC058" d="M61 44h1v1h-1zM62 44h1v1h-1zM63 44h1v1h-1zM64 44h1v1h-1zM65 44h1v1h-1zM66 44h1v1h-1z"/><path fill="#231815" d="M67 44h1v1h-1zM68 44h1v1h-1zM69 44h1v1h-1zM1 45h1v1H1zM2 45h1v1H2zM3 45h1v1H3z"/><path fill="#3A4226" d="M4 45h1v1H4z"/><path fill="#7DC058" d="M5 45h1v1H5zM6 45h1v1H6zM7 45h1v1H7zM8 45h1v1H8z"/><path fill="#A9BE56" d="M9 45h1v1H9z"/><path fill="#D5BC53" d="M10 45h1v1h-1zM11 45h1v1h-1zM12 45h1v1h-1zM13 45h1v1h-1zM14 45h1v1h-1zM15 45h1v1h-1zM16 45h1v1h-1zM17 45h1v1h-1z"/><path fill="#99BF56" d="M18 45h1v1h-1z"/><path fill="#7DC058" d="M19 45h1v1h-1zM20 45h1v1h-1zM21 45h1v1h-1z"/><path fill="#9DCE78" d="M22 45h1v1h-1z"/><path fill="#A7D282" d="M23 45h1v1h-1zM24 45h1v1h-1zM25 45h1v1h-1zM26 45h1v1h-1z"/><path fill="#D2DF87" d="M27 45h1v1h-1z"/><path fill="#ECE68A" d="M28 45h1v1h-1zM29 45h1v1h-1zM30 45h1v1h-1zM31 45h1v1h-1z"/><path fill="#A7D282" d="M32 45h1v1h-1zM33 45h1v1h-1zM34 45h1v1h-1zM35 45h1v1h-1zM36 45h1v1h-1z"/><path fill="#ABD383" d="M37 45h1v1h-1z"/><path fill="#E3E489" d="M38 45h1v1h-1z"/><path fill="#ECE68A" d="M39 45h1v1h-1zM40 45h1v1h-1zM41 45h1v1h-1zM42 45h1v1h-1zM43 45h1v1h-1zM44 45h1v1h-1zM45 45h1v1h-1z"/><path fill="#E8E58A" d="M46 45h1v1h-1z"/><path fill="#ABD383" d="M47 45h1v1h-1z"/><path fill="#A7D282" d="M48 45h1v1h-1zM49 45h1v1h-1zM50 45h1v1h-1zM51 45h1v1h-1zM52 45h1v1h-1zM53 45h1v1h-1zM54 45h1v1h-1zM55 45h1v1h-1zM56 45h1v1h-1zM57 45h1v1h-1zM58 45h1v1h-1zM59 45h1v1h-1z"/><path fill="#9DCE78" d="M60 45h1v1h-1z"/><path fill="#7DC058" d="M61 45h1v1h-1zM62 45h1v1h-1zM63 45h1v1h-1zM64 45h1v1h-1zM65 45h1v1h-1zM66 45h1v1h-1z"/><path fill="#231815" d="M67 45h1v1h-1zM68 45h1v1h-1zM69 45h1v1h-1zM1 46h1v1H1zM2 46h1v1H2zM3 46h1v1H3z"/><path fill="#5B813F" d="M4 46h1v1H4z"/><path fill="#7DC058" d="M5 46h1v1H5zM6 46h1v1H6zM7 46h1v1H7z"/><path fill="#93BF57" d="M8 46h1v1H8z"/><path fill="#D5BC53" d="M9 46h1v1H9zM10 46h1v1h-1zM11 46h1v1h-1zM12 46h1v1h-1zM13 46h1v1h-1zM14 46h1v1h-1zM15 46h1v1h-1zM16 46h1v1h-1z"/><path fill="#A9BE56" d="M17 46h1v1h-1z"/><path fill="#7DC058" d="M18 46h1v1h-1zM19 46h1v1h-1zM20 46h1v1h-1zM21 46h1v1h-1z"/><path fill="#9FCF7A" d="M22 46h1v1h-1z"/><path fill="#A7D282" d="M23 46h1v1h-1zM24 46h1v1h-1z"/><path fill="#ABD383" d="M25 46h1v1h-1z"/><path fill="#DFE289" d="M26 46h1v1h-1z"/><path fill="#ECE68A" d="M27 46h1v1h-1zM28 46h1v1h-1zM29 46h1v1h-1zM30 46h1v1h-1z"/><path fill="#E8E58A" d="M31 46h1v1h-1z"/><path fill="#A7D282" d="M32 46h1v1h-1zM33 46h1v1h-1zM34 46h1v1h-1zM35 46h1v1h-1zM36 46h1v1h-1z"/><path fill="#CADC86" d="M37 46h1v1h-1z"/><path fill="#ECE68A" d="M38 46h1v1h-1zM39 46h1v1h-1zM40 46h1v1h-1zM41 46h1v1h-1zM42 46h1v1h-1zM43 46h1v1h-1zM44 46h1v1h-1zM45 46h1v1h-1z"/><path fill="#B8D784" d="M46 46h1v1h-1z"/><path fill="#A7D282" d="M47 46h1v1h-1zM48 46h1v1h-1zM49 46h1v1h-1zM50 46h1v1h-1zM51 46h1v1h-1zM52 46h1v1h-1zM53 46h1v1h-1zM54 46h1v1h-1zM55 46h1v1h-1zM56 46h1v1h-1zM57 46h1v1h-1zM58 46h1v1h-1zM59 46h1v1h-1z"/><path fill="#9DCE78" d="M60 46h1v1h-1z"/><path fill="#7DC058" d="M61 46h1v1h-1zM62 46h1v1h-1zM63 46h1v1h-1zM64 46h1v1h-1zM65 46h1v1h-1z"/><path fill="#679647" d="M66 46h1v1h-1z"/><path fill="#231815" d="M67 46h1v1h-1zM68 46h1v1h-1zM69 46h1v1h-1zM0 47h1v1H0zM1 47h1v1H1zM2 47h1v1H2zM3 47h1v1H3z"/><path fill="#77B654" d="M4 47h1v1H4z"/><path fill="#7DC058" d="M5 47h1v1H5zM6 47h1v1H6zM7 47h1v1H7z"/><path fill="#CABD54" d="M8 47h1v1H8z"/><path fill="#D5BC53" d="M9 47h1v1H9zM10 47h1v1h-1zM11 47h1v1h-1zM12 47h1v1h-1zM13 47h1v1h-1zM14 47h1v1h-1zM15 47h1v1h-1z"/><path fill="#BFBD54" d="M16 47h1v1h-1z"/><path fill="#7DC058" d="M17 47h1v1h-1zM18 47h1v1h-1zM19 47h1v1h-1zM20 47h1v1h-1zM21 47h1v1h-1z"/><path fill="#A7D282" d="M22 47h1v1h-1zM23 47h1v1h-1zM24 47h1v1h-1z"/><path fill="#DBE188" d="M25 47h1v1h-1z"/><path fill="#ECE68A" d="M26 47h1v1h-1zM27 47h1v1h-1zM28 47h1v1h-1zM29 47h1v1h-1zM30 47h1v1h-1z"/><path fill="#DBE188" d="M31 47h1v1h-1z"/><path fill="#A7D282" d="M32 47h1v1h-1zM33 47h1v1h-1zM34 47h1v1h-1zM35 47h1v1h-1z"/><path fill="#ABD383" d="M36 47h1v1h-1z"/><path fill="#E8E58A" d="M37 47h1v1h-1z"/><path fill="#ECE68A" d="M38 47h1v1h-1zM39 47h1v1h-1zM40 47h1v1h-1zM41 47h1v1h-1zM42 47h1v1h-1zM43 47h1v1h-1zM44 47h1v1h-1z"/><path fill="#C5DB86" d="M45 47h1v1h-1z"/><path fill="#A7D282" d="M46 47h1v1h-1zM47 47h1v1h-1zM48 47h1v1h-1zM49 47h1v1h-1zM50 47h1v1h-1zM51 47h1v1h-1zM52 47h1v1h-1zM53 47h1v1h-1zM54 47h1v1h-1zM55 47h1v1h-1zM56 47h1v1h-1zM57 47h1v1h-1zM58 47h1v1h-1zM59 47h1v1h-1z"/><path fill="#9DCE78" d="M60 47h1v1h-1z"/><path fill="#7DC058" d="M61 47h1v1h-1zM62 47h1v1h-1zM63 47h1v1h-1zM64 47h1v1h-1zM65 47h1v1h-1z"/><path fill="#679647" d="M66 47h1v1h-1z"/><path fill="#231815" d="M67 47h1v1h-1zM68 47h1v1h-1zM69 47h1v1h-1zM0 48h1v1H0zM1 48h1v1H1zM2 48h1v1H2z"/><path fill="#343822" d="M3 48h1v1H3z"/><path fill="#7DC058" d="M4 48h1v1H4zM5 48h1v1H5zM6 48h1v1H6z"/><path fill="#A9BE56" d="M7 48h1v1H7z"/><path fill="#D5BC53" d="M8 48h1v1H8zM9 48h1v1H9zM10 48h1v1h-1zM11 48h1v1h-1zM12 48h1v1h-1zM13 48h1v1h-1zM14 48h1v1h-1z"/><path fill="#D0BC53" d="M15 48h1v1h-1z"/><path fill="#83C058" d="M16 48h1v1h-1z"/><path fill="#7DC058" d="M17 48h1v1h-1zM18 48h1v1h-1zM19 48h1v1h-1zM20 48h1v1h-1zM21 48h1v1h-1z"/><path fill="#A2D07D" d="M22 48h1v1h-1z"/><path fill="#A7D282" d="M23 48h1v1h-1z"/><path fill="#D2DF87" d="M24 48h1v1h-1z"/><path fill="#ECE68A" d="M25 48h1v1h-1zM26 48h1v1h-1zM27 48h1v1h-1zM28 48h1v1h-1zM29 48h1v1h-1zM30 48h1v1h-1z"/><path fill="#C5DB86" d="M31 48h1v1h-1z"/><path fill="#A7D282" d="M32 48h1v1h-1zM33 48h1v1h-1zM34 48h1v1h-1zM35 48h1v1h-1z"/><path fill="#C1DA85" d="M36 48h1v1h-1z"/><path fill="#ECE68A" d="M37 48h1v1h-1zM38 48h1v1h-1zM39 48h1v1h-1zM40 48h1v1h-1zM41 48h1v1h-1zM42 48h1v1h-1zM43 48h1v1h-1z"/><path fill="#D2DF87" d="M44 48h1v1h-1z"/><path fill="#A7D282" d="M45 48h1v1h-1zM46 48h1v1h-1zM47 48h1v1h-1zM48 48h1v1h-1zM49 48h1v1h-1zM50 48h1v1h-1zM51 48h1v1h-1zM52 48h1v1h-1zM53 48h1v1h-1zM54 48h1v1h-1zM55 48h1v1h-1zM56 48h1v1h-1zM57 48h1v1h-1zM58 48h1v1h-1zM59 48h1v1h-1z"/><path fill="#9DCE78" d="M60 48h1v1h-1z"/><path fill="#7DC058" d="M61 48h1v1h-1zM62 48h1v1h-1zM63 48h1v1h-1zM64 48h1v1h-1zM65 48h1v1h-1z"/><path fill="#618C43" d="M66 48h1v1h-1z"/><path fill="#231815" d="M67 48h1v1h-1zM68 48h1v1h-1zM69 48h1v1h-1zM0 49h1v1H0zM1 49h1v1H1zM2 49h1v1H2z"/><path fill="#45572E" d="M3 49h1v1H3z"/><path fill="#7DC058" d="M4 49h1v1H4zM5 49h1v1H5zM6 49h1v1H6z"/><path fill="#CABD54" d="M7 49h1v1H7z"/><path fill="#D5BC53" d="M8 49h1v1H8zM9 49h1v1H9zM10 49h1v1h-1zM11 49h1v1h-1zM12 49h1v1h-1zM13 49h1v1h-1zM14 49h1v1h-1z"/><path fill="#99BF56" d="M15 49h1v1h-1z"/><path fill="#7DC058" d="M16 49h1v1h-1zM17 49h1v1h-1zM18 49h1v1h-1zM19 49h1v1h-1zM20 49h1v1h-1zM21 49h1v1h-1z"/><path fill="#9DCE78" d="M22 49h1v1h-1z"/><path fill="#C5DB86" d="M23 49h1v1h-1z"/><path fill="#ECE68A" d="M24 49h1v1h-1zM25 49h1v1h-1zM26 49h1v1h-1zM27 49h1v1h-1zM28 49h1v1h-1zM29 49h1v1h-1zM30 49h1v1h-1z"/><path fill="#B0D583" d="M31 49h1v1h-1z"/><path fill="#A7D282" d="M32 49h1v1h-1zM33 49h1v1h-1zM34 49h1v1h-1zM35 49h1v1h-1z"/><path fill="#D6E088" d="M36 49h1v1h-1z"/><path fill="#ECE68A" d="M37 49h1v1h-1zM38 49h1v1h-1zM39 49h1v1h-1zM40 49h1v1h-1zM41 49h1v1h-1zM42 49h1v1h-1z"/><path fill="#CEDD87" d="M43 49h1v1h-1z"/><path fill="#A7D282" d="M44 49h1v1h-1zM45 49h1v1h-1zM46 49h1v1h-1zM47 49h1v1h-1zM48 49h1v1h-1zM49 49h1v1h-1zM50 49h1v1h-1zM51 49h1v1h-1zM52 49h1v1h-1zM53 49h1v1h-1zM54 49h1v1h-1zM55 49h1v1h-1zM56 49h1v1h-1zM57 49h1v1h-1zM58 49h1v1h-1zM59 49h1v1h-1z"/><path fill="#9ACC75" d="M60 49h1v1h-1z"/><path fill="#7DC058" d="M61 49h1v1h-1zM62 49h1v1h-1zM63 49h1v1h-1zM64 49h1v1h-1zM65 49h1v1h-1z"/><path fill="#506C37" d="M66 49h1v1h-1z"/><path fill="#231815" d="M67 49h1v1h-1zM68 49h1v1h-1zM69 49h1v1h-1zM0 50h1v1H0zM1 50h1v1H1zM2 50h1v1H2z"/><path fill="#506C37" d="M3 50h1v1H3z"/><path fill="#7DC058" d="M4 50h1v1H4zM5 50h1v1H5z"/><path fill="#8EBF57" d="M6 50h1v1H6z"/><path fill="#D5BC53" d="M7 50h1v1H7zM8 50h1v1H8zM9 50h1v1H9zM10 50h1v1h-1zM11 50h1v1h-1zM12 50h1v1h-1zM13 50h1v1h-1z"/><path fill="#BABD55" d="M14 50h1v1h-1z"/><path fill="#7DC058" d="M15 50h1v1h-1zM16 50h1v1h-1zM17 50h1v1h-1zM18 50h1v1h-1zM19 50h1v1h-1zM20 50h1v1h-1zM21 50h1v1h-1z"/><path fill="#ABD177" d="M22 50h1v1h-1z"/><path fill="#ECE68A" d="M23 50h1v1h-1zM24 50h1v1h-1zM25 50h1v1h-1zM26 50h1v1h-1zM27 50h1v1h-1zM28 50h1v1h-1zM29 50h1v1h-1z"/><path fill="#D6E088" d="M30 50h1v1h-1z"/><path fill="#A7D282" d="M31 50h1v1h-1zM32 50h1v1h-1zM33 50h1v1h-1zM34 50h1v1h-1zM35 50h1v1h-1z"/><path fill="#DBE188" d="M36 50h1v1h-1z"/><path fill="#ECE68A" d="M37 50h1v1h-1zM38 50h1v1h-1zM39 50h1v1h-1zM40 50h1v1h-1z"/><path fill="#E8E58A" d="M41 50h1v1h-1z"/><path fill="#C1DA85" d="M42 50h1v1h-1z"/><path fill="#A7D282" d="M43 50h1v1h-1zM44 50h1v1h-1zM45 50h1v1h-1zM46 50h1v1h-1zM47 50h1v1h-1zM48 50h1v1h-1zM49 50h1v1h-1zM50 50h1v1h-1zM51 50h1v1h-1zM52 50h1v1h-1zM53 50h1v1h-1zM54 50h1v1h-1zM55 50h1v1h-1zM56 50h1v1h-1zM57 50h1v1h-1zM58 50h1v1h-1zM59 50h1v1h-1z"/><path fill="#92C96D" d="M60 50h1v1h-1z"/><path fill="#7DC058" d="M61 50h1v1h-1zM62 50h1v1h-1zM63 50h1v1h-1zM64 50h1v1h-1zM65 50h1v1h-1z"/><path fill="#506C37" d="M66 50h1v1h-1z"/><path fill="#231815" d="M67 50h1v1h-1zM68 50h1v1h-1zM69 50h1v1h-1zM0 51h1v1H0zM1 51h1v1H1zM2 51h1v1H2z"/><path fill="#5B813F" d="M3 51h1v1H3z"/><path fill="#7DC058" d="M4 51h1v1H4zM5 51h1v1H5z"/><path fill="#9EBF56" d="M6 51h1v1H6z"/><path fill="#D5BC53" d="M7 51h1v1H7zM8 51h1v1H8zM9 51h1v1H9zM10 51h1v1h-1zM11 51h1v1h-1zM12 51h1v1h-1z"/><path fill="#D0BC53" d="M13 51h1v1h-1z"/><path fill="#83C058" d="M14 51h1v1h-1z"/><path fill="#7DC058" d="M15 51h1v1h-1zM16 51h1v1h-1zM17 51h1v1h-1zM18 51h1v1h-1zM19 51h1v1h-1zM20 51h1v1h-1z"/><path fill="#83C058" d="M21 51h1v1h-1z"/><path fill="#DACF6B" d="M22 51h1v1h-1z"/><path fill="#ECE68A" d="M23 51h1v1h-1zM24 51h1v1h-1zM25 51h1v1h-1zM26 51h1v1h-1zM27 51h1v1h-1zM28 51h1v1h-1zM29 51h1v1h-1z"/><path fill="#B8D784" d="M30 51h1v1h-1z"/><path fill="#A7D282" d="M31 51h1v1h-1zM32 51h1v1h-1zM33 51h1v1h-1zM34 51h1v1h-1zM35 51h1v1h-1z"/><path fill="#D6E088" d="M36 51h1v1h-1z"/><path fill="#ECE68A" d="M37 51h1v1h-1zM38 51h1v1h-1zM39 51h1v1h-1z"/><path fill="#DBE188" d="M40 51h1v1h-1z"/><path fill="#B4D684" d="M41 51h1v1h-1z"/><path fill="#A7D282" d="M42 51h1v1h-1zM43 51h1v1h-1zM44 51h1v1h-1z"/><path fill="#C1DA85" d="M45 51h1v1h-1z"/><path fill="#DFE289" d="M46 51h1v1h-1z"/><path fill="#E8E58A" d="M47 51h1v1h-1z"/><path fill="#BDD885" d="M48 51h1v1h-1z"/><path fill="#A7D282" d="M49 51h1v1h-1zM50 51h1v1h-1zM51 51h1v1h-1zM52 51h1v1h-1zM53 51h1v1h-1zM54 51h1v1h-1zM55 51h1v1h-1zM56 51h1v1h-1zM57 51h1v1h-1zM58 51h1v1h-1zM59 51h1v1h-1z"/><path fill="#85C360" d="M60 51h1v1h-1z"/><path fill="#7DC058" d="M61 51h1v1h-1zM62 51h1v1h-1zM63 51h1v1h-1zM64 51h1v1h-1zM65 51h1v1h-1z"/><path fill="#3A4226" d="M66 51h1v1h-1z"/><path fill="#231815" d="M67 51h1v1h-1zM68 51h1v1h-1zM69 51h1v1h-1zM0 52h1v1H0zM1 52h1v1H1zM2 52h1v1H2z"/><path fill="#679647" d="M3 52h1v1H3z"/><path fill="#7DC058" d="M4 52h1v1H4zM5 52h1v1H5z"/><path fill="#A9BE56" d="M6 52h1v1H6z"/><path fill="#D5BC53" d="M7 52h1v1H7zM8 52h1v1H8zM9 52h1v1H9zM10 52h1v1h-1zM11 52h1v1h-1zM12 52h1v1h-1z"/><path fill="#99BF56" d="M13 52h1v1h-1z"/><path fill="#7DC058" d="M14 52h1v1h-1zM15 52h1v1h-1zM16 52h1v1h-1zM17 52h1v1h-1zM18 52h1v1h-1zM19 52h1v1h-1zM20 52h1v1h-1z"/><path fill="#BABD55" d="M21 52h1v1h-1z"/><path fill="#D8C15A" d="M22 52h1v1h-1z"/><path fill="#ECE68A" d="M23 52h1v1h-1zM24 52h1v1h-1zM25 52h1v1h-1zM26 52h1v1h-1zM27 52h1v1h-1zM28 52h1v1h-1z"/><path fill="#DBE188" d="M29 52h1v1h-1z"/><path fill="#A7D282" d="M30 52h1v1h-1zM31 52h1v1h-1zM32 52h1v1h-1zM33 52h1v1h-1zM34 52h1v1h-1zM35 52h1v1h-1z"/><path fill="#B0D583" d="M36 52h1v1h-1z"/><path fill="#CADC86" d="M37 52h1v1h-1zM38 52h1v1h-1z"/><path fill="#B8D784" d="M39 52h1v1h-1z"/><path fill="#A7D282" d="M40 52h1v1h-1zM41 52h1v1h-1zM42 52h1v1h-1z"/><path fill="#B4D684" d="M43 52h1v1h-1z"/><path fill="#DFE289" d="M44 52h1v1h-1z"/><path fill="#ECE68A" d="M45 52h1v1h-1zM46 52h1v1h-1zM47 52h1v1h-1z"/><path fill="#DBE188" d="M48 52h1v1h-1z"/><path fill="#A7D282" d="M49 52h1v1h-1zM50 52h1v1h-1zM51 52h1v1h-1zM52 52h1v1h-1zM53 52h1v1h-1zM54 52h1v1h-1zM55 52h1v1h-1zM56 52h1v1h-1zM57 52h1v1h-1zM58 52h1v1h-1z"/><path fill="#A2D07D" d="M59 52h1v1h-1z"/><path fill="#7DC058" d="M60 52h1v1h-1zM61 52h1v1h-1zM62 52h1v1h-1zM63 52h1v1h-1zM64 52h1v1h-1zM65 52h1v1h-1z"/><path fill="#343822" d="M66 52h1v1h-1z"/><path fill="#231815" d="M67 52h1v1h-1zM68 52h1v1h-1zM69 52h1v1h-1zM0 53h1v1H0zM1 53h1v1H1zM2 53h1v1H2z"/><path fill="#679647" d="M3 53h1v1H3z"/><path fill="#7DC058" d="M4 53h1v1H4zM5 53h1v1H5z"/><path fill="#93BF57" d="M6 53h1v1H6z"/><path fill="#D5BC53" d="M7 53h1v1H7zM8 53h1v1H8zM9 53h1v1H9zM10 53h1v1h-1zM11 53h1v1h-1z"/><path fill="#BFBD54" d="M12 53h1v1h-1z"/><path fill="#7DC058" d="M13 53h1v1h-1zM14 53h1v1h-1zM15 53h1v1h-1zM16 53h1v1h-1zM17 53h1v1h-1zM18 53h1v1h-1zM19 53h1v1h-1z"/><path fill="#99BF56" d="M20 53h1v1h-1z"/><path fill="#D5BC53" d="M21 53h1v1h-1zM22 53h1v1h-1z"/><path fill="#E8DE80" d="M23 53h1v1h-1z"/><path fill="#ECE68A" d="M24 53h1v1h-1zM25 53h1v1h-1zM26 53h1v1h-1zM27 53h1v1h-1zM28 53h1v1h-1z"/><path fill="#B8D784" d="M29 53h1v1h-1z"/><path fill="#A7D282" d="M30 53h1v1h-1zM31 53h1v1h-1zM32 53h1v1h-1zM33 53h1v1h-1zM34 53h1v1h-1zM35 53h1v1h-1zM36 53h1v1h-1zM37 53h1v1h-1zM38 53h1v1h-1zM39 53h1v1h-1zM40 53h1v1h-1zM41 53h1v1h-1z"/><path fill="#BDD885" d="M42 53h1v1h-1z"/><path fill="#E8E58A" d="M43 53h1v1h-1z"/><path fill="#ECE68A" d="M44 53h1v1h-1zM45 53h1v1h-1zM46 53h1v1h-1zM47 53h1v1h-1z"/><path fill="#DBE188" d="M48 53h1v1h-1z"/><path fill="#A7D282" d="M49 53h1v1h-1zM50 53h1v1h-1zM51 53h1v1h-1zM52 53h1v1h-1zM53 53h1v1h-1zM54 53h1v1h-1zM55 53h1v1h-1zM56 53h1v1h-1zM57 53h1v1h-1zM58 53h1v1h-1z"/><path fill="#8DC768" d="M59 53h1v1h-1z"/><path fill="#7DC058" d="M60 53h1v1h-1zM61 53h1v1h-1zM62 53h1v1h-1zM63 53h1v1h-1zM64 53h1v1h-1z"/><path fill="#76BD54" d="M65 53h1v1h-1z"/><path fill="#231815" d="M66 53h1v1h-1zM67 53h1v1h-1zM68 53h1v1h-1zM69 53h1v1h-1zM0 54h1v1H0zM1 54h1v1H1zM2 54h1v1H2z"/><path fill="#506C37" d="M3 54h1v1H3z"/><path fill="#7DC058" d="M4 54h1v1H4zM5 54h1v1H5z"/><path fill="#83C058" d="M6 54h1v1H6z"/><path fill="#D5BC53" d="M7 54h1v1H7zM8 54h1v1H8zM9 54h1v1H9zM10 54h1v1h-1zM11 54h1v1h-1z"/><path fill="#88C057" d="M12 54h1v1h-1z"/><path fill="#7DC058" d="M13 54h1v1h-1zM14 54h1v1h-1zM15 54h1v1h-1zM16 54h1v1h-1zM17 54h1v1h-1zM18 54h1v1h-1z"/><path fill="#83C058" d="M19 54h1v1h-1z"/><path fill="#D0BC53" d="M20 54h1v1h-1z"/><path fill="#D5BC53" d="M21 54h1v1h-1zM22 54h1v1h-1z"/><path fill="#DECC68" d="M23 54h1v1h-1z"/><path fill="#ECE68A" d="M24 54h1v1h-1zM25 54h1v1h-1zM26 54h1v1h-1zM27 54h1v1h-1z"/><path fill="#D6E088" d="M28 54h1v1h-1z"/><path fill="#A7D282" d="M29 54h1v1h-1zM30 54h1v1h-1zM31 54h1v1h-1zM32 54h1v1h-1zM33 54h1v1h-1zM34 54h1v1h-1zM35 54h1v1h-1zM36 54h1v1h-1zM37 54h1v1h-1zM38 54h1v1h-1zM39 54h1v1h-1zM40 54h1v1h-1z"/><path fill="#C1DA85" d="M41 54h1v1h-1z"/><path fill="#ECE68A" d="M42 54h1v1h-1zM43 54h1v1h-1zM44 54h1v1h-1zM45 54h1v1h-1zM46 54h1v1h-1zM47 54h1v1h-1z"/><path fill="#CEDD87" d="M48 54h1v1h-1z"/><path fill="#A7D282" d="M49 54h1v1h-1zM50 54h1v1h-1zM51 54h1v1h-1zM52 54h1v1h-1zM53 54h1v1h-1zM54 54h1v1h-1zM55 54h1v1h-1zM56 54h1v1h-1zM57 54h1v1h-1z"/><path fill="#A2D07D" d="M58 54h1v1h-1z"/><path fill="#7DC058" d="M59 54h1v1h-1zM60 54h1v1h-1zM61 54h1v1h-1zM62 54h1v1h-1zM63 54h1v1h-1zM64 54h1v1h-1z"/><path fill="#5B9A40" d="M65 54h1v1h-1z"/><path fill="#231815" d="M66 54h1v1h-1zM67 54h1v1h-1zM68 54h1v1h-1zM0 55h1v1H0zM1 55h1v1H1zM2 55h1v1H2z"/><path fill="#506C37" d="M3 55h1v1H3z"/><path fill="#7DC058" d="M4 55h1v1H4zM5 55h1v1H5zM6 55h1v1H6z"/><path fill="#A9BE56" d="M7 55h1v1H7z"/><path fill="#D5BC53" d="M8 55h1v1H8zM9 55h1v1H9zM10 55h1v1h-1z"/><path fill="#A4BE56" d="M11 55h1v1h-1z"/><path fill="#7DC058" d="M12 55h1v1h-1zM13 55h1v1h-1zM14 55h1v1h-1zM15 55h1v1h-1zM16 55h1v1h-1zM17 55h1v1h-1zM18 55h1v1h-1z"/><path fill="#AFBE55" d="M19 55h1v1h-1z"/><path fill="#D5BC53" d="M20 55h1v1h-1zM21 55h1v1h-1zM22 55h1v1h-1zM23 55h1v1h-1z"/><path fill="#E8DE80" d="M24 55h1v1h-1z"/><path fill="#ECE68A" d="M25 55h1v1h-1zM26 55h1v1h-1z"/><path fill="#E8E58A" d="M27 55h1v1h-1z"/><path fill="#B0D583" d="M28 55h1v1h-1z"/><path fill="#A7D282" d="M29 55h1v1h-1zM30 55h1v1h-1zM31 55h1v1h-1zM32 55h1v1h-1zM33 55h1v1h-1zM34 55h1v1h-1zM35 55h1v1h-1zM36 55h1v1h-1zM37 55h1v1h-1zM38 55h1v1h-1zM39 55h1v1h-1z"/><path fill="#C1DA85" d="M40 55h1v1h-1z"/><path fill="#ECE68A" d="M41 55h1v1h-1zM42 55h1v1h-1zM43 55h1v1h-1zM44 55h1v1h-1zM45 55h1v1h-1zM46 55h1v1h-1zM47 55h1v1h-1z"/><path fill="#BDD885" d="M48 55h1v1h-1z"/><path fill="#A7D282" d="M49 55h1v1h-1zM50 55h1v1h-1zM51 55h1v1h-1zM52 55h1v1h-1zM53 55h1v1h-1zM54 55h1v1h-1zM55 55h1v1h-1zM56 55h1v1h-1zM57 55h1v1h-1z"/><path fill="#88C563" d="M58 55h1v1h-1z"/><path fill="#7DC058" d="M59 55h1v1h-1zM60 55h1v1h-1zM61 55h1v1h-1zM62 55h1v1h-1zM63 55h1v1h-1z"/><path fill="#7ABF56" d="M64 55h1v1h-1z"/><path fill="#3F7E2D" d="M65 55h1v1h-1z"/><path fill="#231815" d="M66 55h1v1h-1zM67 55h1v1h-1zM68 55h1v1h-1zM0 56h1v1H0zM1 56h1v1H1zM2 56h1v1H2z"/><path fill="#3F4D2A" d="M3 56h1v1H3z"/><path fill="#7DC058" d="M4 56h1v1H4zM5 56h1v1H5zM6 56h1v1H6zM7 56h1v1H7z"/><path fill="#AFBE55" d="M8 56h1v1H8z"/><path fill="#D5BC53" d="M9 56h1v1H9z"/><path fill="#B4BE55" d="M10 56h1v1h-1z"/><path fill="#7DC058" d="M11 56h1v1h-1zM12 56h1v1h-1zM13 56h1v1h-1zM14 56h1v1h-1zM15 56h1v1h-1zM16 56h1v1h-1zM17 56h1v1h-1z"/><path fill="#88C057" d="M18 56h1v1h-1z"/><path fill="#D5BC53" d="M19 56h1v1h-1zM20 56h1v1h-1zM21 56h1v1h-1zM22 56h1v1h-1zM23 56h1v1h-1z"/><path fill="#D9C45D" d="M24 56h1v1h-1z"/><path fill="#ECE68A" d="M25 56h1v1h-1zM26 56h1v1h-1z"/><path fill="#C5DB86" d="M27 56h1v1h-1z"/><path fill="#A7D282" d="M28 56h1v1h-1zM29 56h1v1h-1zM30 56h1v1h-1zM31 56h1v1h-1zM32 56h1v1h-1zM33 56h1v1h-1zM34 56h1v1h-1zM35 56h1v1h-1zM36 56h1v1h-1zM37 56h1v1h-1zM38 56h1v1h-1z"/><path fill="#C1DA85" d="M39 56h1v1h-1z"/><path fill="#ECE68A" d="M40 56h1v1h-1zM41 56h1v1h-1zM42 56h1v1h-1zM43 56h1v1h-1zM44 56h1v1h-1zM45 56h1v1h-1zM46 56h1v1h-1z"/><path fill="#E3E489" d="M47 56h1v1h-1z"/><path fill="#A7D282" d="M48 56h1v1h-1zM49 56h1v1h-1zM50 56h1v1h-1zM51 56h1v1h-1zM52 56h1v1h-1zM53 56h1v1h-1zM54 56h1v1h-1zM55 56h1v1h-1zM56 56h1v1h-1z"/><path fill="#92C96D" d="M57 56h1v1h-1z"/><path fill="#7DC058" d="M58 56h1v1h-1zM59 56h1v1h-1zM60 56h1v1h-1zM61 56h1v1h-1zM62 56h1v1h-1zM63 56h1v1h-1z"/><path fill="#62B646" d="M64 56h1v1h-1z"/><path fill="#356225" d="M65 56h1v1h-1z"/><path fill="#231815" d="M66 56h1v1h-1zM67 56h1v1h-1zM68 56h1v1h-1zM0 57h1v1H0zM1 57h1v1H1zM2 57h1v1H2z"/><path fill="#2E2D1D" d="M3 57h1v1H3z"/><path fill="#7DC058" d="M4 57h1v1H4zM5 57h1v1H5zM6 57h1v1H6zM7 57h1v1H7zM8 57h1v1H8zM9 57h1v1H9zM10 57h1v1h-1zM11 57h1v1h-1zM12 57h1v1h-1zM13 57h1v1h-1zM14 57h1v1h-1zM15 57h1v1h-1zM16 57h1v1h-1zM17 57h1v1h-1z"/><path fill="#B4BE55" d="M18 57h1v1h-1z"/><path fill="#D5BC53" d="M19 57h1v1h-1zM20 57h1v1h-1zM21 57h1v1h-1zM22 57h1v1h-1zM23 57h1v1h-1zM24 57h1v1h-1z"/><path fill="#DECC68" d="M25 57h1v1h-1z"/><path fill="#DBE188" d="M26 57h1v1h-1z"/><path fill="#A7D282" d="M27 57h1v1h-1zM28 57h1v1h-1zM29 57h1v1h-1zM30 57h1v1h-1zM31 57h1v1h-1zM32 57h1v1h-1zM33 57h1v1h-1zM34 57h1v1h-1zM35 57h1v1h-1zM36 57h1v1h-1zM37 57h1v1h-1z"/><path fill="#BDD885" d="M38 57h1v1h-1z"/><path fill="#ECE68A" d="M39 57h1v1h-1zM40 57h1v1h-1zM41 57h1v1h-1zM42 57h1v1h-1zM43 57h1v1h-1zM44 57h1v1h-1zM45 57h1v1h-1zM46 57h1v1h-1z"/><path fill="#CADC86" d="M47 57h1v1h-1z"/><path fill="#A7D282" d="M48 57h1v1h-1zM49 57h1v1h-1zM50 57h1v1h-1zM51 57h1v1h-1zM52 57h1v1h-1zM53 57h1v1h-1zM54 57h1v1h-1zM55 57h1v1h-1z"/><path fill="#97CB72" d="M56 57h1v1h-1z"/><path fill="#7DC058" d="M57 57h1v1h-1zM58 57h1v1h-1zM59 57h1v1h-1zM60 57h1v1h-1zM61 57h1v1h-1zM62 57h1v1h-1z"/><path fill="#7ABF56" d="M63 57h1v1h-1z"/><path fill="#49AC36" d="M64 57h1v1h-1z"/><path fill="#2C3D1D" d="M65 57h1v1h-1z"/><path fill="#231815" d="M66 57h1v1h-1zM67 57h1v1h-1zM68 57h1v1h-1zM1 58h1v1H1zM2 58h1v1H2zM3 58h1v1H3z"/><path fill="#6CA14B" d="M4 58h1v1H4z"/><path fill="#7DC058" d="M5 58h1v1H5zM6 58h1v1H6zM7 58h1v1H7zM8 58h1v1H8zM9 58h1v1H9zM10 58h1v1h-1zM11 58h1v1h-1zM12 58h1v1h-1zM13 58h1v1h-1zM14 58h1v1h-1zM15 58h1v1h-1zM16 58h1v1h-1z"/><path fill="#88C057" d="M17 58h1v1h-1z"/><path fill="#D5BC53" d="M18 58h1v1h-1zM19 58h1v1h-1zM20 58h1v1h-1zM21 58h1v1h-1zM22 58h1v1h-1zM23 58h1v1h-1zM24 58h1v1h-1z"/><path fill="#D0BC53" d="M25 58h1v1h-1z"/><path fill="#98C667" d="M26 58h1v1h-1z"/><path fill="#A7D282" d="M27 58h1v1h-1zM28 58h1v1h-1zM29 58h1v1h-1zM30 58h1v1h-1zM31 58h1v1h-1zM32 58h1v1h-1zM33 58h1v1h-1zM34 58h1v1h-1zM35 58h1v1h-1zM36 58h1v1h-1z"/><path fill="#B4D684" d="M37 58h1v1h-1z"/><path fill="#E8E58A" d="M38 58h1v1h-1z"/><path fill="#ECE68A" d="M39 58h1v1h-1zM40 58h1v1h-1zM41 58h1v1h-1zM42 58h1v1h-1zM43 58h1v1h-1zM44 58h1v1h-1zM45 58h1v1h-1z"/><path fill="#E8E58A" d="M46 58h1v1h-1z"/><path fill="#ABD383" d="M47 58h1v1h-1z"/><path fill="#A7D282" d="M48 58h1v1h-1zM49 58h1v1h-1zM50 58h1v1h-1zM51 58h1v1h-1zM52 58h1v1h-1zM53 58h1v1h-1zM54 58h1v1h-1z"/><path fill="#97CB72" d="M55 58h1v1h-1z"/><path fill="#7DC058" d="M56 58h1v1h-1zM57 58h1v1h-1zM58 58h1v1h-1zM59 58h1v1h-1zM60 58h1v1h-1zM61 58h1v1h-1zM62 58h1v1h-1z"/><path fill="#57B23F" d="M63 58h1v1h-1z"/><path fill="#46AB34" d="M64 58h1v1h-1z"/><path fill="#252117" d="M65 58h1v1h-1z"/><path fill="#231815" d="M66 58h1v1h-1zM67 58h1v1h-1zM68 58h1v1h-1zM1 59h1v1H1zM2 59h1v1H2zM3 59h1v1H3z"/><path fill="#56773B" d="M4 59h1v1H4z"/><path fill="#7DC058" d="M5 59h1v1H5zM6 59h1v1H6zM7 59h1v1H7zM8 59h1v1H8zM9 59h1v1H9zM10 59h1v1h-1zM11 59h1v1h-1zM12 59h1v1h-1zM13 59h1v1h-1zM14 59h1v1h-1zM15 59h1v1h-1zM16 59h1v1h-1z"/><path fill="#AFBE55" d="M17 59h1v1h-1z"/><path fill="#D5BC53" d="M18 59h1v1h-1zM19 59h1v1h-1zM20 59h1v1h-1zM21 59h1v1h-1zM22 59h1v1h-1zM23 59h1v1h-1zM24 59h1v1h-1z"/><path fill="#99BF56" d="M25 59h1v1h-1z"/><path fill="#7DC058" d="M26 59h1v1h-1z"/><path fill="#8DC768" d="M27 59h1v1h-1z"/><path fill="#A7D282" d="M28 59h1v1h-1zM29 59h1v1h-1zM30 59h1v1h-1zM31 59h1v1h-1zM32 59h1v1h-1zM33 59h1v1h-1zM34 59h1v1h-1zM35 59h1v1h-1z"/><path fill="#ABD383" d="M36 59h1v1h-1z"/><path fill="#E8E58A" d="M37 59h1v1h-1z"/><path fill="#ECE68A" d="M38 59h1v1h-1zM39 59h1v1h-1zM40 59h1v1h-1zM41 59h1v1h-1zM42 59h1v1h-1zM43 59h1v1h-1zM44 59h1v1h-1zM45 59h1v1h-1z"/><path fill="#CADC86" d="M46 59h1v1h-1z"/><path fill="#A7D282" d="M47 59h1v1h-1zM48 59h1v1h-1zM49 59h1v1h-1zM50 59h1v1h-1zM51 59h1v1h-1zM52 59h1v1h-1zM53 59h1v1h-1z"/><path fill="#8FC86A" d="M54 59h1v1h-1z"/><path fill="#7DC058" d="M55 59h1v1h-1zM56 59h1v1h-1zM57 59h1v1h-1zM58 59h1v1h-1zM59 59h1v1h-1zM60 59h1v1h-1zM61 59h1v1h-1z"/><path fill="#6CB94D" d="M62 59h1v1h-1z"/><path fill="#46AB34" d="M63 59h1v1h-1z"/><path fill="#3F8F2E" d="M64 59h1v1h-1z"/><path fill="#231815" d="M65 59h1v1h-1zM66 59h1v1h-1zM67 59h1v1h-1zM1 60h1v1H1zM2 60h1v1H2zM3 60h1v1H3z"/><path fill="#2E2D1D" d="M4 60h1v1H4z"/><path fill="#7ABF56" d="M5 60h1v1H5z"/><path fill="#7DC058" d="M6 60h1v1H6zM7 60h1v1H7zM8 60h1v1H8zM9 60h1v1H9zM10 60h1v1h-1zM11 60h1v1h-1zM12 60h1v1h-1zM13 60h1v1h-1zM14 60h1v1h-1zM15 60h1v1h-1zM16 60h1v1h-1z"/><path fill="#D0BC53" d="M17 60h1v1h-1z"/><path fill="#D5BC53" d="M18 60h1v1h-1zM19 60h1v1h-1zM20 60h1v1h-1zM21 60h1v1h-1zM22 60h1v1h-1zM23 60h1v1h-1z"/><path fill="#AFBE55" d="M24 60h1v1h-1z"/><path fill="#7DC058" d="M25 60h1v1h-1zM26 60h1v1h-1zM27 60h1v1h-1z"/><path fill="#85C360" d="M28 60h1v1h-1z"/><path fill="#A2D07D" d="M29 60h1v1h-1z"/><path fill="#A7D282" d="M30 60h1v1h-1zM31 60h1v1h-1zM32 60h1v1h-1zM33 60h1v1h-1zM34 60h1v1h-1zM35 60h1v1h-1z"/><path fill="#DBE188" d="M36 60h1v1h-1z"/><path fill="#ECE68A" d="M37 60h1v1h-1zM38 60h1v1h-1zM39 60h1v1h-1zM40 60h1v1h-1zM41 60h1v1h-1zM42 60h1v1h-1zM43 60h1v1h-1zM44 60h1v1h-1z"/><path fill="#E8E58A" d="M45 60h1v1h-1z"/><path fill="#ABD383" d="M46 60h1v1h-1z"/><path fill="#A7D282" d="M47 60h1v1h-1zM48 60h1v1h-1zM49 60h1v1h-1zM50 60h1v1h-1zM51 60h1v1h-1z"/><path fill="#9FCF7A" d="M52 60h1v1h-1z"/><path fill="#85C360" d="M53 60h1v1h-1z"/><path fill="#7DC058" d="M54 60h1v1h-1zM55 60h1v1h-1zM56 60h1v1h-1zM57 60h1v1h-1zM58 60h1v1h-1zM59 60h1v1h-1zM60 60h1v1h-1z"/><path fill="#76BD54" d="M61 60h1v1h-1z"/><path fill="#49AC36" d="M62 60h1v1h-1z"/><path fill="#46AB34" d="M63 60h1v1h-1z"/><path fill="#376B26" d="M64 60h1v1h-1z"/><path fill="#231815" d="M65 60h1v1h-1zM66 60h1v1h-1zM67 60h1v1h-1zM1 61h1v1H1zM2 61h1v1H2zM3 61h1v1H3zM4 61h1v1H4z"/><path fill="#488A33" d="M5 61h1v1H5z"/><path fill="#7ABF56" d="M6 61h1v1H6z"/><path fill="#7DC058" d="M7 61h1v1H7zM8 61h1v1H8zM9 61h1v1H9zM10 61h1v1h-1zM11 61h1v1h-1zM12 61h1v1h-1zM13 61h1v1h-1zM14 61h1v1h-1zM15 61h1v1h-1z"/><path fill="#99BF56" d="M16 61h1v1h-1z"/><path fill="#D5BC53" d="M17 61h1v1h-1zM18 61h1v1h-1zM19 61h1v1h-1zM20 61h1v1h-1zM21 61h1v1h-1zM22 61h1v1h-1z"/><path fill="#B4BE55" d="M23 61h1v1h-1z"/><path fill="#7DC058" d="M24 61h1v1h-1zM25 61h1v1h-1zM26 61h1v1h-1zM27 61h1v1h-1zM28 61h1v1h-1z"/><path fill="#80C15B" d="M29 61h1v1h-1z"/><path fill="#92C96D" d="M30 61h1v1h-1z"/><path fill="#A4D17F" d="M31 61h1v1h-1z"/><path fill="#A7D282" d="M32 61h1v1h-1zM33 61h1v1h-1zM34 61h1v1h-1z"/><path fill="#CADC86" d="M35 61h1v1h-1z"/><path fill="#ECE68A" d="M36 61h1v1h-1zM37 61h1v1h-1zM38 61h1v1h-1zM39 61h1v1h-1zM40 61h1v1h-1zM41 61h1v1h-1zM42 61h1v1h-1zM43 61h1v1h-1zM44 61h1v1h-1z"/><path fill="#C5DB86" d="M45 61h1v1h-1z"/><path fill="#A7D282" d="M46 61h1v1h-1zM47 61h1v1h-1zM48 61h1v1h-1zM49 61h1v1h-1z"/><path fill="#A2D07D" d="M50 61h1v1h-1z"/><path fill="#8DC768" d="M51 61h1v1h-1z"/><path fill="#7DC058" d="M52 61h1v1h-1zM53 61h1v1h-1zM54 61h1v1h-1zM55 61h1v1h-1zM56 61h1v1h-1zM57 61h1v1h-1zM58 61h1v1h-1zM59 61h1v1h-1z"/><path fill="#7ABF56" d="M60 61h1v1h-1z"/><path fill="#50AF3B" d="M61 61h1v1h-1z"/><path fill="#46AB34" d="M62 61h1v1h-1zM63 61h1v1h-1z"/><path fill="#2E461F" d="M64 61h1v1h-1z"/><path fill="#231815" d="M65 61h1v1h-1zM66 61h1v1h-1zM67 61h1v1h-1zM2 62h1v1H2zM3 62h1v1H3zM4 62h1v1H4z"/><path fill="#2C3D1D" d="M5 62h1v1H5z"/><path fill="#49AC36" d="M6 62h1v1H6z"/><path fill="#73BC51" d="M7 62h1v1H7z"/><path fill="#7DC058" d="M8 62h1v1H8zM9 62h1v1H9zM10 62h1v1h-1zM11 62h1v1h-1zM12 62h1v1h-1zM13 62h1v1h-1zM14 62h1v1h-1zM15 62h1v1h-1z"/><path fill="#AFBE55" d="M16 62h1v1h-1z"/><path fill="#D5BC53" d="M17 62h1v1h-1zM18 62h1v1h-1zM19 62h1v1h-1zM20 62h1v1h-1zM21 62h1v1h-1z"/><path fill="#C5BD54" d="M22 62h1v1h-1z"/><path fill="#83C058" d="M23 62h1v1h-1z"/><path fill="#7DC058" d="M24 62h1v1h-1zM25 62h1v1h-1zM26 62h1v1h-1zM27 62h1v1h-1zM28 62h1v1h-1zM29 62h1v1h-1zM30 62h1v1h-1z"/><path fill="#80C15B" d="M31 62h1v1h-1z"/><path fill="#8DC768" d="M32 62h1v1h-1z"/><path fill="#9FCF7A" d="M33 62h1v1h-1z"/><path fill="#B8D784" d="M34 62h1v1h-1z"/><path fill="#ECE68A" d="M35 62h1v1h-1zM36 62h1v1h-1zM37 62h1v1h-1zM38 62h1v1h-1zM39 62h1v1h-1zM40 62h1v1h-1zM41 62h1v1h-1zM42 62h1v1h-1zM43 62h1v1h-1z"/><path fill="#DFE289" d="M44 62h1v1h-1z"/><path fill="#A7D282" d="M45 62h1v1h-1zM46 62h1v1h-1z"/><path fill="#A4D17F" d="M47 62h1v1h-1z"/><path fill="#97CB72" d="M48 62h1v1h-1z"/><path fill="#88C563" d="M49 62h1v1h-1z"/><path fill="#7DC058" d="M50 62h1v1h-1zM51 62h1v1h-1zM52 62h1v1h-1z"/><path fill="#9EBF56" d="M53 62h1v1h-1z"/><path fill="#C5BD54" d="M54 62h1v1h-1z"/><path fill="#D5BC53" d="M55 62h1v1h-1zM56 62h1v1h-1z"/><path fill="#88C057" d="M57 62h1v1h-1z"/><path fill="#7DC058" d="M58 62h1v1h-1z"/><path fill="#7ABF56" d="M59 62h1v1h-1z"/><path fill="#50AF3B" d="M60 62h1v1h-1z"/><path fill="#46AB34" d="M61 62h1v1h-1zM62 62h1v1h-1zM63 62h1v1h-1z"/><path fill="#252117" d="M64 62h1v1h-1z"/><path fill="#231815" d="M65 62h1v1h-1zM66 62h1v1h-1zM67 62h1v1h-1zM2 63h1v1H2zM3 63h1v1H3zM4 63h1v1H4zM5 63h1v1H5z"/><path fill="#3D862C" d="M6 63h1v1H6z"/><path fill="#46AB34" d="M7 63h1v1H7z"/><path fill="#65B748" d="M8 63h1v1H8z"/><path fill="#7DC058" d="M9 63h1v1H9zM10 63h1v1h-1zM11 63h1v1h-1zM12 63h1v1h-1zM13 63h1v1h-1zM14 63h1v1h-1zM15 63h1v1h-1z"/><path fill="#BFBD54" d="M16 63h1v1h-1z"/><path fill="#D5BC53" d="M17 63h1v1h-1zM18 63h1v1h-1zM19 63h1v1h-1zM20 63h1v1h-1z"/><path fill="#C5BD54" d="M21 63h1v1h-1z"/><path fill="#83C058" d="M22 63h1v1h-1z"/><path fill="#7DC058" d="M23 63h1v1h-1zM24 63h1v1h-1zM25 63h1v1h-1zM26 63h1v1h-1zM27 63h1v1h-1zM28 63h1v1h-1zM29 63h1v1h-1zM30 63h1v1h-1zM31 63h1v1h-1zM32 63h1v1h-1z"/><path fill="#83C058" d="M33 63h1v1h-1z"/><path fill="#C9C15A" d="M34 63h1v1h-1z"/><path fill="#D9CB67" d="M35 63h1v1h-1z"/><path fill="#E1D16F" d="M36 63h1v1h-1z"/><path fill="#E6DC7C" d="M37 63h1v1h-1zM38 63h1v1h-1z"/><path fill="#E9E183" d="M39 63h1v1h-1z"/><path fill="#ECE68A" d="M40 63h1v1h-1z"/><path fill="#E8E58A" d="M41 63h1v1h-1z"/><path fill="#E6DC7C" d="M42 63h1v1h-1zM43 63h1v1h-1z"/><path fill="#A9D074" d="M44 63h1v1h-1z"/><path fill="#8FC86A" d="M45 63h1v1h-1z"/><path fill="#88C563" d="M46 63h1v1h-1z"/><path fill="#7DC058" d="M47 63h1v1h-1zM48 63h1v1h-1zM49 63h1v1h-1zM50 63h1v1h-1z"/><path fill="#93BF57" d="M51 63h1v1h-1z"/><path fill="#CABD54" d="M52 63h1v1h-1z"/><path fill="#D5BC53" d="M53 63h1v1h-1zM54 63h1v1h-1zM55 63h1v1h-1zM56 63h1v1h-1z"/><path fill="#93BF57" d="M57 63h1v1h-1z"/><path fill="#7ABF56" d="M58 63h1v1h-1z"/><path fill="#50AF3B" d="M59 63h1v1h-1z"/><path fill="#46AB34" d="M60 63h1v1h-1zM61 63h1v1h-1zM62 63h1v1h-1z"/><path fill="#3B7D2A" d="M63 63h1v1h-1z"/><path fill="#231815" d="M64 63h1v1h-1zM65 63h1v1h-1zM66 63h1v1h-1zM3 64h1v1H3zM4 64h1v1H4zM5 64h1v1H5z"/><path fill="#2A341B" d="M6 64h1v1H6z"/><path fill="#46AB34" d="M7 64h1v1H7zM8 64h1v1H8z"/><path fill="#54B03D" d="M9 64h1v1H9z"/><path fill="#73BC51" d="M10 64h1v1h-1z"/><path fill="#7DC058" d="M11 64h1v1h-1zM12 64h1v1h-1zM13 64h1v1h-1zM14 64h1v1h-1zM15 64h1v1h-1z"/><path fill="#BFBD54" d="M16 64h1v1h-1z"/><path fill="#D5BC53" d="M17 64h1v1h-1zM18 64h1v1h-1zM19 64h1v1h-1z"/><path fill="#B4BE55" d="M20 64h1v1h-1z"/><path fill="#83C058" d="M21 64h1v1h-1z"/><path fill="#7DC058" d="M22 64h1v1h-1zM23 64h1v1h-1zM24 64h1v1h-1zM25 64h1v1h-1zM26 64h1v1h-1zM27 64h1v1h-1zM28 64h1v1h-1zM29 64h1v1h-1zM30 64h1v1h-1zM31 64h1v1h-1zM32 64h1v1h-1z"/><path fill="#AFBE55" d="M33 64h1v1h-1z"/><path fill="#D5BC53" d="M34 64h1v1h-1zM35 64h1v1h-1zM36 64h1v1h-1zM37 64h1v1h-1zM38 64h1v1h-1zM39 64h1v1h-1zM40 64h1v1h-1zM41 64h1v1h-1zM42 64h1v1h-1z"/><path fill="#AFBE55" d="M43 64h1v1h-1z"/><path fill="#7DC058" d="M44 64h1v1h-1zM45 64h1v1h-1zM46 64h1v1h-1zM47 64h1v1h-1zM48 64h1v1h-1z"/><path fill="#83C058" d="M49 64h1v1h-1z"/><path fill="#B4BE55" d="M50 64h1v1h-1z"/><path fill="#D5BC53" d="M51 64h1v1h-1zM52 64h1v1h-1zM53 64h1v1h-1zM54 64h1v1h-1zM55 64h1v1h-1zM56 64h1v1h-1z"/><path fill="#7CBD53" d="M57 64h1v1h-1z"/><path fill="#50AF3B" d="M58 64h1v1h-1z"/><path fill="#46AB34" d="M59 64h1v1h-1zM60 64h1v1h-1zM61 64h1v1h-1zM62 64h1v1h-1z"/><path fill="#304F21" d="M63 64h1v1h-1z"/><path fill="#231815" d="M64 64h1v1h-1zM65 64h1v1h-1zM66 64h1v1h-1zM3 65h1v1H3zM4 65h1v1H4zM5 65h1v1H5zM6 65h1v1H6z"/><path fill="#376B26" d="M7 65h1v1H7z"/><path fill="#46AB34" d="M8 65h1v1H8zM9 65h1v1H9zM10 65h1v1h-1z"/><path fill="#5EB444" d="M11 65h1v1h-1z"/><path fill="#7ABF56" d="M12 65h1v1h-1z"/><path fill="#7DC058" d="M13 65h1v1h-1zM14 65h1v1h-1zM15 65h1v1h-1z"/><path fill="#AFBE55" d="M16 65h1v1h-1z"/><path fill="#D5BC53" d="M17 65h1v1h-1z"/><path fill="#CABD54" d="M18 65h1v1h-1z"/><path fill="#99BF56" d="M19 65h1v1h-1z"/><path fill="#7DC058" d="M20 65h1v1h-1zM21 65h1v1h-1zM22 65h1v1h-1zM23 65h1v1h-1zM24 65h1v1h-1zM25 65h1v1h-1zM26 65h1v1h-1zM27 65h1v1h-1zM28 65h1v1h-1zM29 65h1v1h-1zM30 65h1v1h-1zM31 65h1v1h-1z"/><path fill="#93BF57" d="M32 65h1v1h-1z"/><path fill="#D5BC53" d="M33 65h1v1h-1zM34 65h1v1h-1zM35 65h1v1h-1zM36 65h1v1h-1zM37 65h1v1h-1zM38 65h1v1h-1zM39 65h1v1h-1zM40 65h1v1h-1zM41 65h1v1h-1z"/><path fill="#C5BD54" d="M42 65h1v1h-1z"/><path fill="#83C058" d="M43 65h1v1h-1z"/><path fill="#7DC058" d="M44 65h1v1h-1zM45 65h1v1h-1zM46 65h1v1h-1zM47 65h1v1h-1z"/><path fill="#88C057" d="M48 65h1v1h-1z"/><path fill="#C5BD54" d="M49 65h1v1h-1z"/><path fill="#D5BC53" d="M50 65h1v1h-1zM51 65h1v1h-1zM52 65h1v1h-1zM53 65h1v1h-1zM54 65h1v1h-1zM55 65h1v1h-1z"/><path fill="#B5B94E" d="M56 65h1v1h-1z"/><path fill="#49AC36" d="M57 65h1v1h-1z"/><path fill="#46AB34" d="M58 65h1v1h-1zM59 65h1v1h-1zM60 65h1v1h-1zM61 65h1v1h-1zM62 65h1v1h-1z"/><path fill="#252117" d="M63 65h1v1h-1z"/><path fill="#231815" d="M64 65h1v1h-1zM65 65h1v1h-1zM66 65h1v1h-1zM4 66h1v1H4zM5 66h1v1H5zM6 66h1v1H6z"/><path fill="#252117" d="M7 66h1v1H7z"/><path fill="#3F8F2E" d="M8 66h1v1H8z"/><path fill="#46AB34" d="M9 66h1v1H9zM10 66h1v1h-1zM11 66h1v1h-1z"/><path fill="#49AC36" d="M12 66h1v1h-1z"/><path fill="#62B646" d="M13 66h1v1h-1z"/><path fill="#7ABF56" d="M14 66h1v1h-1z"/><path fill="#7DC058" d="M15 66h1v1h-1zM16 66h1v1h-1zM17 66h1v1h-1zM18 66h1v1h-1zM19 66h1v1h-1zM20 66h1v1h-1zM21 66h1v1h-1zM22 66h1v1h-1zM23 66h1v1h-1zM24 66h1v1h-1zM25 66h1v1h-1zM26 66h1v1h-1zM27 66h1v1h-1zM28 66h1v1h-1zM29 66h1v1h-1zM30 66h1v1h-1zM31 66h1v1h-1z"/><path fill="#CABD54" d="M32 66h1v1h-1z"/><path fill="#D5BC53" d="M33 66h1v1h-1zM34 66h1v1h-1zM35 66h1v1h-1zM36 66h1v1h-1zM37 66h1v1h-1zM38 66h1v1h-1zM39 66h1v1h-1zM40 66h1v1h-1zM41 66h1v1h-1z"/><path fill="#8EBF57" d="M42 66h1v1h-1z"/><path fill="#7DC058" d="M43 66h1v1h-1zM44 66h1v1h-1zM45 66h1v1h-1zM46 66h1v1h-1z"/><path fill="#8EBF57" d="M47 66h1v1h-1z"/><path fill="#D0BC53" d="M48 66h1v1h-1z"/><path fill="#D5BC53" d="M49 66h1v1h-1zM50 66h1v1h-1zM51 66h1v1h-1zM52 66h1v1h-1zM53 66h1v1h-1zM54 66h1v1h-1z"/><path fill="#CEB33E" d="M55 66h1v1h-1z"/><path fill="#74A82B" d="M56 66h1v1h-1z"/><path fill="#46AB34" d="M57 66h1v1h-1zM58 66h1v1h-1zM59 66h1v1h-1zM60 66h1v1h-1zM61 66h1v1h-1z"/><path fill="#3B7D2A" d="M62 66h1v1h-1z"/><path fill="#231815" d="M63 66h1v1h-1zM64 66h1v1h-1zM65 66h1v1h-1zM4 67h1v1H4zM5 67h1v1H5zM6 67h1v1H6zM7 67h1v1H7z"/><path fill="#2A341B" d="M8 67h1v1H8z"/><path fill="#44A232" d="M9 67h1v1H9z"/><path fill="#46AB34" d="M10 67h1v1h-1zM11 67h1v1h-1zM12 67h1v1h-1zM13 67h1v1h-1zM14 67h1v1h-1z"/><path fill="#5BB342" d="M15 67h1v1h-1z"/><path fill="#73BC51" d="M16 67h1v1h-1z"/><path fill="#7DC058" d="M17 67h1v1h-1zM18 67h1v1h-1zM19 67h1v1h-1zM20 67h1v1h-1zM21 67h1v1h-1zM22 67h1v1h-1zM23 67h1v1h-1zM24 67h1v1h-1zM25 67h1v1h-1zM26 67h1v1h-1zM27 67h1v1h-1zM28 67h1v1h-1zM29 67h1v1h-1zM30 67h1v1h-1z"/><path fill="#A4BE56" d="M31 67h1v1h-1z"/><path fill="#D5BC53" d="M32 67h1v1h-1zM33 67h1v1h-1zM34 67h1v1h-1zM35 67h1v1h-1zM36 67h1v1h-1zM37 67h1v1h-1zM38 67h1v1h-1zM39 67h1v1h-1zM40 67h1v1h-1z"/><path fill="#9EBF56" d="M41 67h1v1h-1z"/><path fill="#7DC058" d="M42 67h1v1h-1zM43 67h1v1h-1zM44 67h1v1h-1zM45 67h1v1h-1z"/><path fill="#8EBF57" d="M46 67h1v1h-1z"/><path fill="#D0BC53" d="M47 67h1v1h-1z"/><path fill="#D5BC53" d="M48 67h1v1h-1zM49 67h1v1h-1zM50 67h1v1h-1zM51 67h1v1h-1zM52 67h1v1h-1z"/><path fill="#D1B849" d="M53 67h1v1h-1z"/><path fill="#C3A61F" d="M54 67h1v1h-1z"/><path fill="#A39C0A" d="M55 67h1v1h-1z"/><path fill="#46AB34" d="M56 67h1v1h-1zM57 67h1v1h-1zM58 67h1v1h-1zM59 67h1v1h-1zM60 67h1v1h-1zM61 67h1v1h-1z"/><path fill="#2E461F" d="M62 67h1v1h-1z"/><path fill="#231815" d="M63 67h1v1h-1zM64 67h1v1h-1zM65 67h1v1h-1zM5 68h1v1H5zM6 68h1v1H6zM7 68h1v1H7zM8 68h1v1H8z"/><path fill="#304F21" d="M9 68h1v1H9z"/><path fill="#46AB34" d="M10 68h1v1h-1zM11 68h1v1h-1zM12 68h1v1h-1zM13 68h1v1h-1zM14 68h1v1h-1zM15 68h1v1h-1zM16 68h1v1h-1z"/><path fill="#50AF3B" d="M17 68h1v1h-1z"/><path fill="#65B748" d="M18 68h1v1h-1z"/><path fill="#76BD54" d="M19 68h1v1h-1z"/><path fill="#7DC058" d="M20 68h1v1h-1zM21 68h1v1h-1zM22 68h1v1h-1zM23 68h1v1h-1zM24 68h1v1h-1zM25 68h1v1h-1zM26 68h1v1h-1zM27 68h1v1h-1zM28 68h1v1h-1zM29 68h1v1h-1z"/><path fill="#83C058" d="M30 68h1v1h-1z"/><path fill="#D0BC53" d="M31 68h1v1h-1z"/><path fill="#D5BC53" d="M32 68h1v1h-1zM33 68h1v1h-1zM34 68h1v1h-1zM35 68h1v1h-1zM36 68h1v1h-1zM37 68h1v1h-1zM38 68h1v1h-1zM39 68h1v1h-1z"/><path fill="#B4BE55" d="M40 68h1v1h-1z"/><path fill="#7DC058" d="M41 68h1v1h-1zM42 68h1v1h-1zM43 68h1v1h-1zM44 68h1v1h-1z"/><path fill="#88C057" d="M45 68h1v1h-1z"/><path fill="#D0BC53" d="M46 68h1v1h-1z"/><path fill="#D5BC53" d="M47 68h1v1h-1zM48 68h1v1h-1zM49 68h1v1h-1zM50 68h1v1h-1z"/><path fill="#D1B849" d="M51 68h1v1h-1z"/><path fill="#C5A824" d="M52 68h1v1h-1z"/><path fill="#BA9A05" d="M53 68h1v1h-1z"/><path fill="#B89800" d="M54 68h1v1h-1z"/><path fill="#63A627" d="M55 68h1v1h-1z"/><path fill="#46AB34" d="M56 68h1v1h-1zM57 68h1v1h-1zM58 68h1v1h-1zM59 68h1v1h-1zM60 68h1v1h-1z"/><path fill="#429930" d="M61 68h1v1h-1z"/><path fill="#231815" d="M62 68h1v1h-1zM63 68h1v1h-1zM64 68h1v1h-1zM65 68h1v1h-1zM6 69h1v1H6zM7 69h1v1H7zM8 69h1v1H8zM9 69h1v1H9z"/><path fill="#356225" d="M10 69h1v1h-1z"/><path fill="#46AB34" d="M11 69h1v1h-1zM12 69h1v1h-1zM13 69h1v1h-1zM14 69h1v1h-1zM15 69h1v1h-1zM16 69h1v1h-1zM17 69h1v1h-1zM18 69h1v1h-1zM19 69h1v1h-1z"/><path fill="#50AF3B" d="M20 69h1v1h-1z"/><path fill="#62B646" d="M21 69h1v1h-1z"/><path fill="#73BC51" d="M22 69h1v1h-1z"/><path fill="#7DC058" d="M23 69h1v1h-1zM24 69h1v1h-1zM25 69h1v1h-1zM26 69h1v1h-1zM27 69h1v1h-1zM28 69h1v1h-1zM29 69h1v1h-1z"/><path fill="#A9BE56" d="M30 69h1v1h-1z"/><path fill="#D5BC53" d="M31 69h1v1h-1zM32 69h1v1h-1zM33 69h1v1h-1zM34 69h1v1h-1zM35 69h1v1h-1zM36 69h1v1h-1zM37 69h1v1h-1zM38 69h1v1h-1z"/><path fill="#C5BD54" d="M39 69h1v1h-1z"/><path fill="#7DC058" d="M40 69h1v1h-1zM41 69h1v1h-1zM42 69h1v1h-1zM43 69h1v1h-1z"/><path fill="#83C058" d="M44 69h1v1h-1z"/><path fill="#C5BD54" d="M45 69h1v1h-1z"/><path fill="#D5BC53" d="M46 69h1v1h-1zM47 69h1v1h-1zM48 69h1v1h-1z"/><path fill="#CCB139" d="M49 69h1v1h-1z"/><path fill="#C1A31A" d="M50 69h1v1h-1z"/><path fill="#B89800" d="M51 69h1v1h-1zM52 69h1v1h-1zM53 69h1v1h-1z"/><path fill="#7FA21A" d="M54 69h1v1h-1z"/><path fill="#46AB34" d="M55 69h1v1h-1zM56 69h1v1h-1zM57 69h1v1h-1zM58 69h1v1h-1zM59 69h1v1h-1zM60 69h1v1h-1z"/><path fill="#304F21" d="M61 69h1v1h-1z"/><path fill="#231815" d="M62 69h1v1h-1zM63 69h1v1h-1zM64 69h1v1h-1zM7 70h1v1H7zM8 70h1v1H8zM9 70h1v1H9zM10 70h1v1h-1z"/><path fill="#3FA735" d="M11 70h1v1h-1z"/><path fill="#46AB34" d="M12 70h1v1h-1zM13 70h1v1h-1zM14 70h1v1h-1zM15 70h1v1h-1zM16 70h1v1h-1zM17 70h1v1h-1zM18 70h1v1h-1zM19 70h1v1h-1zM20 70h1v1h-1zM21 70h1v1h-1zM22 70h1v1h-1z"/><path fill="#49AC36" d="M23 70h1v1h-1z"/><path fill="#54B03D" d="M24 70h1v1h-1z"/><path fill="#62B646" d="M25 70h1v1h-1z"/><path fill="#6CB94D" d="M26 70h1v1h-1z"/><path fill="#76BD54" d="M27 70h1v1h-1z"/><path fill="#7DC058" d="M28 70h1v1h-1zM29 70h1v1h-1z"/><path fill="#D0BC53" d="M30 70h1v1h-1z"/><path fill="#D5BC53" d="M31 70h1v1h-1zM32 70h1v1h-1zM33 70h1v1h-1zM34 70h1v1h-1zM35 70h1v1h-1zM36 70h1v1h-1zM37 70h1v1h-1z"/><path fill="#C5BD54" d="M38 70h1v1h-1z"/><path fill="#83C058" d="M39 70h1v1h-1z"/><path fill="#7DC058" d="M40 70h1v1h-1zM41 70h1v1h-1zM42 70h1v1h-1z"/><path fill="#7ABF56" d="M43 70h1v1h-1z"/><path fill="#ABBC53" d="M44 70h1v1h-1z"/><path fill="#D0B543" d="M45 70h1v1h-1z"/><path fill="#C8AC2F" d="M46 70h1v1h-1z"/><path fill="#C1A31A" d="M47 70h1v1h-1z"/><path fill="#BA9A05" d="M48 70h1v1h-1z"/><path fill="#B89800" d="M49 70h1v1h-1zM50 70h1v1h-1zM51 70h1v1h-1zM52 70h1v1h-1z"/><path fill="#9C9D0D" d="M53 70h1v1h-1z"/><path fill="#46AB34" d="M54 70h1v1h-1zM55 70h1v1h-1zM56 70h1v1h-1zM57 70h1v1h-1zM58 70h1v1h-1zM59 70h1v1h-1z"/><path fill="#429930" d="M60 70h1v1h-1z"/><path fill="#231815" d="M61 70h1v1h-1zM62 70h1v1h-1zM63 70h1v1h-1zM64 70h1v1h-1zM7 71h1v1H7zM8 71h1v1H8zM9 71h1v1H9zM10 71h1v1h-1z"/><path fill="#24953A" d="M11 71h1v1h-1z"/><path fill="#3FA735" d="M12 71h1v1h-1z"/><path fill="#46AB34" d="M13 71h1v1h-1zM14 71h1v1h-1zM15 71h1v1h-1zM16 71h1v1h-1zM17 71h1v1h-1zM18 71h1v1h-1zM19 71h1v1h-1zM20 71h1v1h-1zM21 71h1v1h-1zM22 71h1v1h-1zM23 71h1v1h-1zM24 71h1v1h-1zM25 71h1v1h-1zM26 71h1v1h-1zM27 71h1v1h-1zM28 71h1v1h-1z"/><path fill="#79A92A" d="M29 71h1v1h-1z"/><path fill="#BFA115" d="M30 71h1v1h-1z"/><path fill="#C3A61F" d="M31 71h1v1h-1z"/><path fill="#C7AA2A" d="M32 71h1v1h-1zM33 71h1v1h-1zM34 71h1v1h-1zM35 71h1v1h-1zM36 71h1v1h-1z"/><path fill="#C1AD32" d="M37 71h1v1h-1z"/><path fill="#72B545" d="M38 71h1v1h-1z"/><path fill="#62B646" d="M39 71h1v1h-1z"/><path fill="#57B23F" d="M40 71h1v1h-1z"/><path fill="#54B03D" d="M41 71h1v1h-1z"/><path fill="#49AC36" d="M42 71h1v1h-1z"/><path fill="#63A627" d="M43 71h1v1h-1z"/><path fill="#B89800" d="M44 71h1v1h-1zM45 71h1v1h-1zM46 71h1v1h-1zM47 71h1v1h-1zM48 71h1v1h-1zM49 71h1v1h-1zM50 71h1v1h-1zM51 71h1v1h-1z"/><path fill="#A39C0A" d="M52 71h1v1h-1z"/><path fill="#4DAA31" d="M53 71h1v1h-1z"/><path fill="#46AB34" d="M54 71h1v1h-1zM55 71h1v1h-1zM56 71h1v1h-1zM57 71h1v1h-1zM58 71h1v1h-1zM59 71h1v1h-1z"/><path fill="#304F21" d="M60 71h1v1h-1z"/><path fill="#231815" d="M61 71h1v1h-1zM62 71h1v1h-1zM63 71h1v1h-1zM7 72h1v1H7zM8 72h1v1H8zM9 72h1v1H9z"/><path fill="#23371E" d="M10 72h1v1h-1z"/><path fill="#22943A" d="M11 72h1v1h-1z"/><path fill="#24953A" d="M12 72h1v1h-1z"/><path fill="#3FA735" d="M13 72h1v1h-1z"/><path fill="#46AB34" d="M14 72h1v1h-1zM15 72h1v1h-1zM16 72h1v1h-1zM17 72h1v1h-1zM18 72h1v1h-1zM19 72h1v1h-1zM20 72h1v1h-1zM21 72h1v1h-1zM22 72h1v1h-1zM23 72h1v1h-1zM24 72h1v1h-1zM25 72h1v1h-1zM26 72h1v1h-1zM27 72h1v1h-1zM28 72h1v1h-1z"/><path fill="#949E10" d="M29 72h1v1h-1z"/><path fill="#B89800" d="M30 72h1v1h-1zM31 72h1v1h-1zM32 72h1v1h-1zM33 72h1v1h-1zM34 72h1v1h-1zM35 72h1v1h-1z"/><path fill="#B19903" d="M36 72h1v1h-1z"/><path fill="#5BA72A" d="M37 72h1v1h-1z"/><path fill="#46AB34" d="M38 72h1v1h-1zM39 72h1v1h-1zM40 72h1v1h-1zM41 72h1v1h-1zM42 72h1v1h-1z"/><path fill="#AA9A07" d="M43 72h1v1h-1z"/><path fill="#B89800" d="M44 72h1v1h-1zM45 72h1v1h-1zM46 72h1v1h-1zM47 72h1v1h-1zM48 72h1v1h-1zM49 72h1v1h-1zM50 72h1v1h-1z"/><path fill="#A39C0A" d="M51 72h1v1h-1z"/><path fill="#4DAA31" d="M52 72h1v1h-1z"/><path fill="#46AB34" d="M53 72h1v1h-1zM54 72h1v1h-1zM55 72h1v1h-1zM56 72h1v1h-1zM57 72h1v1h-1zM58 72h1v1h-1z"/><path fill="#3D862C" d="M59 72h1v1h-1z"/><path fill="#231815" d="M60 72h1v1h-1zM61 72h1v1h-1zM62 72h1v1h-1zM63 72h1v1h-1zM7 73h1v1H7zM8 73h1v1H8zM9 73h1v1H9z"/><path fill="#23371E" d="M10 73h1v1h-1z"/><path fill="#22943A" d="M11 73h1v1h-1zM12 73h1v1h-1zM13 73h1v1h-1z"/><path fill="#39A236" d="M14 73h1v1h-1z"/><path fill="#46AB34" d="M15 73h1v1h-1zM16 73h1v1h-1zM17 73h1v1h-1zM18 73h1v1h-1zM19 73h1v1h-1zM20 73h1v1h-1zM21 73h1v1h-1zM22 73h1v1h-1zM23 73h1v1h-1zM24 73h1v1h-1zM25 73h1v1h-1zM26 73h1v1h-1zM27 73h1v1h-1zM28 73h1v1h-1z"/><path fill="#B89800" d="M29 73h1v1h-1zM30 73h1v1h-1zM31 73h1v1h-1zM32 73h1v1h-1zM33 73h1v1h-1zM34 73h1v1h-1z"/><path fill="#B19903" d="M35 73h1v1h-1z"/><path fill="#5BA72A" d="M36 73h1v1h-1z"/><path fill="#46AB34" d="M37 73h1v1h-1zM38 73h1v1h-1zM39 73h1v1h-1zM40 73h1v1h-1zM41 73h1v1h-1z"/><path fill="#71A421" d="M42 73h1v1h-1z"/><path fill="#B89800" d="M43 73h1v1h-1zM44 73h1v1h-1zM45 73h1v1h-1zM46 73h1v1h-1zM47 73h1v1h-1zM48 73h1v1h-1zM49 73h1v1h-1z"/><path fill="#A39C0A" d="M50 73h1v1h-1z"/><path fill="#4DAA31" d="M51 73h1v1h-1z"/><path fill="#46AB34" d="M52 73h1v1h-1zM53 73h1v1h-1zM54 73h1v1h-1zM55 73h1v1h-1zM56 73h1v1h-1zM57 73h1v1h-1z"/><path fill="#44A232" d="M58 73h1v1h-1z"/><path fill="#272A19" d="M59 73h1v1h-1z"/><path fill="#231815" d="M60 73h1v1h-1zM61 73h1v1h-1zM62 73h1v1h-1zM7 74h1v1H7zM8 74h1v1H8zM9 74h1v1H9z"/><path fill="#235628" d="M10 74h1v1h-1z"/><path fill="#22943A" d="M11 74h1v1h-1zM12 74h1v1h-1zM13 74h1v1h-1zM14 74h1v1h-1z"/><path fill="#39A236" d="M15 74h1v1h-1z"/><path fill="#46AB34" d="M16 74h1v1h-1zM17 74h1v1h-1zM18 74h1v1h-1zM19 74h1v1h-1zM20 74h1v1h-1zM21 74h1v1h-1zM22 74h1v1h-1zM23 74h1v1h-1zM24 74h1v1h-1zM25 74h1v1h-1zM26 74h1v1h-1zM27 74h1v1h-1z"/><path fill="#63A627" d="M28 74h1v1h-1z"/><path fill="#B89800" d="M29 74h1v1h-1zM30 74h1v1h-1zM31 74h1v1h-1zM32 74h1v1h-1zM33 74h1v1h-1z"/><path fill="#A39C0A" d="M34 74h1v1h-1z"/><path fill="#54A92E" d="M35 74h1v1h-1z"/><path fill="#46AB34" d="M36 74h1v1h-1zM37 74h1v1h-1zM38 74h1v1h-1zM39 74h1v1h-1zM40 74h1v1h-1zM41 74h1v1h-1z"/><path fill="#949E10" d="M42 74h1v1h-1z"/><path fill="#B89800" d="M43 74h1v1h-1zM44 74h1v1h-1zM45 74h1v1h-1zM46 74h1v1h-1zM47 74h1v1h-1zM48 74h1v1h-1z"/><path fill="#86A017" d="M49 74h1v1h-1z"/><path fill="#46AB34" d="M50 74h1v1h-1zM51 74h1v1h-1zM52 74h1v1h-1zM53 74h1v1h-1zM54 74h1v1h-1zM55 74h1v1h-1zM56 74h1v1h-1zM57 74h1v1h-1z"/><path fill="#304F21" d="M58 74h1v1h-1z"/><path fill="#231815" d="M59 74h1v1h-1zM60 74h1v1h-1zM61 74h1v1h-1zM62 74h1v1h-1zM7 75h1v1H7zM8 75h1v1H8zM9 75h1v1H9z"/><path fill="#326025" d="M10 75h1v1h-1z"/><path fill="#34A037" d="M11 75h1v1h-1z"/><path fill="#24953A" d="M12 75h1v1h-1z"/><path fill="#22943A" d="M13 75h1v1h-1zM14 75h1v1h-1zM15 75h1v1h-1z"/><path fill="#309D38" d="M16 75h1v1h-1z"/><path fill="#46AB34" d="M17 75h1v1h-1zM18 75h1v1h-1zM19 75h1v1h-1zM20 75h1v1h-1zM21 75h1v1h-1zM22 75h1v1h-1zM23 75h1v1h-1zM24 75h1v1h-1zM25 75h1v1h-1zM26 75h1v1h-1zM27 75h1v1h-1z"/><path fill="#63A627" d="M28 75h1v1h-1z"/><path fill="#B89800" d="M29 75h1v1h-1zM30 75h1v1h-1zM31 75h1v1h-1zM32 75h1v1h-1z"/><path fill="#949E10" d="M33 75h1v1h-1z"/><path fill="#4DAA31" d="M34 75h1v1h-1z"/><path fill="#46AB34" d="M35 75h1v1h-1zM36 75h1v1h-1zM37 75h1v1h-1zM38 75h1v1h-1zM39 75h1v1h-1zM40 75h1v1h-1zM41 75h1v1h-1z"/><path fill="#B89800" d="M42 75h1v1h-1zM43 75h1v1h-1zM44 75h1v1h-1zM45 75h1v1h-1zM46 75h1v1h-1z"/><path fill="#AA9A07" d="M47 75h1v1h-1z"/><path fill="#6AA524" d="M48 75h1v1h-1z"/><path fill="#46AB34" d="M49 75h1v1h-1zM50 75h1v1h-1zM51 75h1v1h-1zM52 75h1v1h-1zM53 75h1v1h-1zM54 75h1v1h-1zM55 75h1v1h-1zM56 75h1v1h-1z"/><path fill="#397428" d="M57 75h1v1h-1z"/><path fill="#231815" d="M58 75h1v1h-1zM59 75h1v1h-1zM60 75h1v1h-1zM61 75h1v1h-1zM7 76h1v1H7zM8 76h1v1H8zM9 76h1v1H9z"/><path fill="#397428" d="M10 76h1v1h-1z"/><path fill="#46AB34" d="M11 76h1v1h-1z"/><path fill="#42A835" d="M12 76h1v1h-1z"/><path fill="#2B9A39" d="M13 76h1v1h-1z"/><path fill="#22943A" d="M14 76h1v1h-1zM15 76h1v1h-1zM16 76h1v1h-1z"/><path fill="#2B9A39" d="M17 76h1v1h-1z"/><path fill="#44AA34" d="M18 76h1v1h-1z"/><path fill="#46AB34" d="M19 76h1v1h-1zM20 76h1v1h-1zM21 76h1v1h-1zM22 76h1v1h-1zM23 76h1v1h-1zM24 76h1v1h-1zM25 76h1v1h-1zM26 76h1v1h-1zM27 76h1v1h-1z"/><path fill="#4DAA31" d="M28 76h1v1h-1z"/><path fill="#B19903" d="M29 76h1v1h-1z"/><path fill="#B89800" d="M30 76h1v1h-1z"/><path fill="#A39C0A" d="M31 76h1v1h-1z"/><path fill="#6AA524" d="M32 76h1v1h-1z"/><path fill="#46AB34" d="M33 76h1v1h-1zM34 76h1v1h-1zM35 76h1v1h-1zM36 76h1v1h-1zM37 76h1v1h-1zM38 76h1v1h-1zM39 76h1v1h-1zM40 76h1v1h-1zM41 76h1v1h-1z"/><path fill="#B89800" d="M42 76h1v1h-1zM43 76h1v1h-1zM44 76h1v1h-1z"/><path fill="#B19903" d="M45 76h1v1h-1z"/><path fill="#7FA21A" d="M46 76h1v1h-1z"/><path fill="#4DAA31" d="M47 76h1v1h-1z"/><path fill="#46AB34" d="M48 76h1v1h-1zM49 76h1v1h-1zM50 76h1v1h-1zM51 76h1v1h-1zM52 76h1v1h-1zM53 76h1v1h-1zM54 76h1v1h-1zM55 76h1v1h-1z"/><path fill="#3B7D2A" d="M56 76h1v1h-1z"/><path fill="#231815" d="M57 76h1v1h-1zM58 76h1v1h-1zM59 76h1v1h-1zM60 76h1v1h-1zM7 77h1v1H7zM8 77h1v1H8zM9 77h1v1H9z"/><path fill="#3D862C" d="M10 77h1v1h-1z"/><path fill="#46AB34" d="M11 77h1v1h-1zM12 77h1v1h-1zM13 77h1v1h-1z"/><path fill="#36A137" d="M14 77h1v1h-1z"/><path fill="#22943A" d="M15 77h1v1h-1zM16 77h1v1h-1zM17 77h1v1h-1z"/><path fill="#299839" d="M18 77h1v1h-1z"/><path fill="#3FA735" d="M19 77h1v1h-1z"/><path fill="#46AB34" d="M20 77h1v1h-1zM21 77h1v1h-1zM22 77h1v1h-1zM23 77h1v1h-1zM24 77h1v1h-1zM25 77h1v1h-1zM26 77h1v1h-1zM27 77h1v1h-1zM28 77h1v1h-1zM29 77h1v1h-1zM30 77h1v1h-1zM31 77h1v1h-1zM32 77h1v1h-1zM33 77h1v1h-1zM34 77h1v1h-1zM35 77h1v1h-1zM36 77h1v1h-1zM37 77h1v1h-1zM38 77h1v1h-1zM39 77h1v1h-1zM40 77h1v1h-1zM41 77h1v1h-1z"/><path fill="#6AA524" d="M42 77h1v1h-1z"/><path fill="#7FA21A" d="M43 77h1v1h-1z"/><path fill="#6AA524" d="M44 77h1v1h-1z"/><path fill="#46AB34" d="M45 77h1v1h-1zM46 77h1v1h-1zM47 77h1v1h-1zM48 77h1v1h-1zM49 77h1v1h-1zM50 77h1v1h-1zM51 77h1v1h-1zM52 77h1v1h-1zM53 77h1v1h-1zM54 77h1v1h-1z"/><path fill="#3F8F2E" d="M55 77h1v1h-1z"/><path fill="#252117" d="M56 77h1v1h-1z"/><path fill="#231815" d="M57 77h1v1h-1zM58 77h1v1h-1zM59 77h1v1h-1zM60 77h1v1h-1zM7 78h1v1H7zM8 78h1v1H8zM9 78h1v1H9z"/><path fill="#3D862C" d="M10 78h1v1h-1z"/><path fill="#46AB34" d="M11 78h1v1h-1zM12 78h1v1h-1zM13 78h1v1h-1zM14 78h1v1h-1z"/><path fill="#39A236" d="M15 78h1v1h-1z"/><path fill="#22943A" d="M16 78h1v1h-1zM17 78h1v1h-1zM18 78h1v1h-1z"/><path fill="#24953A" d="M19 78h1v1h-1z"/><path fill="#3DA536" d="M20 78h1v1h-1z"/><path fill="#46AB34" d="M21 78h1v1h-1zM22 78h1v1h-1zM23 78h1v1h-1zM24 78h1v1h-1zM25 78h1v1h-1zM26 78h1v1h-1zM27 78h1v1h-1zM28 78h1v1h-1zM29 78h1v1h-1zM30 78h1v1h-1zM31 78h1v1h-1zM32 78h1v1h-1zM33 78h1v1h-1zM34 78h1v1h-1zM35 78h1v1h-1zM36 78h1v1h-1zM37 78h1v1h-1zM38 78h1v1h-1zM39 78h1v1h-1zM40 78h1v1h-1zM41 78h1v1h-1zM42 78h1v1h-1zM43 78h1v1h-1zM44 78h1v1h-1zM45 78h1v1h-1zM46 78h1v1h-1zM47 78h1v1h-1zM48 78h1v1h-1zM49 78h1v1h-1zM50 78h1v1h-1zM51 78h1v1h-1zM52 78h1v1h-1zM53 78h1v1h-1z"/><path fill="#3F8F2E" d="M54 78h1v1h-1z"/><path fill="#252117" d="M55 78h1v1h-1z"/><path fill="#231815" d="M56 78h1v1h-1zM57 78h1v1h-1zM58 78h1v1h-1zM59 78h1v1h-1zM7 79h1v1H7zM8 79h1v1H8zM9 79h1v1H9z"/><path fill="#3D862C" d="M10 79h1v1h-1z"/><path fill="#46AB34" d="M11 79h1v1h-1zM12 79h1v1h-1zM13 79h1v1h-1zM14 79h1v1h-1zM15 79h1v1h-1z"/><path fill="#39A236" d="M16 79h1v1h-1z"/><path fill="#22943A" d="M17 79h1v1h-1zM18 79h1v1h-1zM19 79h1v1h-1zM20 79h1v1h-1z"/><path fill="#34A037" d="M21 79h1v1h-1z"/><path fill="#46AB34" d="M22 79h1v1h-1zM23 79h1v1h-1zM24 79h1v1h-1zM25 79h1v1h-1zM26 79h1v1h-1zM27 79h1v1h-1zM28 79h1v1h-1zM29 79h1v1h-1zM30 79h1v1h-1zM31 79h1v1h-1zM32 79h1v1h-1zM33 79h1v1h-1zM34 79h1v1h-1zM35 79h1v1h-1zM36 79h1v1h-1zM37 79h1v1h-1zM38 79h1v1h-1zM39 79h1v1h-1zM40 79h1v1h-1zM41 79h1v1h-1zM42 79h1v1h-1zM43 79h1v1h-1zM44 79h1v1h-1zM45 79h1v1h-1zM46 79h1v1h-1zM47 79h1v1h-1zM48 79h1v1h-1zM49 79h1v1h-1zM50 79h1v1h-1zM51 79h1v1h-1zM52 79h1v1h-1z"/><path fill="#397428" d="M53 79h1v1h-1z"/><path fill="#252117" d="M54 79h1v1h-1z"/><path fill="#231815" d="M55 79h1v1h-1zM56 79h1v1h-1zM57 79h1v1h-1zM58 79h1v1h-1zM7 80h1v1H7zM8 80h1v1H8zM9 80h1v1H9z"/><path fill="#3D862C" d="M10 80h1v1h-1z"/><path fill="#46AB34" d="M11 80h1v1h-1zM12 80h1v1h-1zM13 80h1v1h-1zM14 80h1v1h-1zM15 80h1v1h-1zM16 80h1v1h-1z"/><path fill="#329E37" d="M17 80h1v1h-1z"/><path fill="#22943A" d="M18 80h1v1h-1zM19 80h1v1h-1zM20 80h1v1h-1zM21 80h1v1h-1z"/><path fill="#2D9B38" d="M22 80h1v1h-1z"/><path fill="#44AA34" d="M23 80h1v1h-1z"/><path fill="#46AB34" d="M24 80h1v1h-1zM25 80h1v1h-1zM26 80h1v1h-1zM27 80h1v1h-1zM28 80h1v1h-1zM29 80h1v1h-1zM30 80h1v1h-1zM31 80h1v1h-1zM32 80h1v1h-1zM33 80h1v1h-1zM34 80h1v1h-1zM35 80h1v1h-1zM36 80h1v1h-1zM37 80h1v1h-1zM38 80h1v1h-1zM39 80h1v1h-1zM40 80h1v1h-1zM41 80h1v1h-1zM42 80h1v1h-1zM43 80h1v1h-1zM44 80h1v1h-1zM45 80h1v1h-1zM46 80h1v1h-1zM47 80h1v1h-1zM48 80h1v1h-1zM49 80h1v1h-1zM50 80h1v1h-1zM51 80h1v1h-1z"/><path fill="#397428" d="M52 80h1v1h-1z"/><path fill="#231815" d="M53 80h1v1h-1zM54 80h1v1h-1zM55 80h1v1h-1zM56 80h1v1h-1zM57 80h1v1h-1zM7 81h1v1H7zM8 81h1v1H8zM9 81h1v1H9z"/><path fill="#3D862C" d="M10 81h1v1h-1z"/><path fill="#46AB34" d="M11 81h1v1h-1zM12 81h1v1h-1zM13 81h1v1h-1zM14 81h1v1h-1zM15 81h1v1h-1zM16 81h1v1h-1zM17 81h1v1h-1z"/><path fill="#279739" d="M18 81h1v1h-1z"/><path fill="#22943A" d="M19 81h1v1h-1zM20 81h1v1h-1zM21 81h1v1h-1zM22 81h1v1h-1z"/><path fill="#279739" d="M23 81h1v1h-1z"/><path fill="#3DA536" d="M24 81h1v1h-1z"/><path fill="#46AB34" d="M25 81h1v1h-1zM26 81h1v1h-1zM27 81h1v1h-1zM28 81h1v1h-1zM29 81h1v1h-1zM30 81h1v1h-1zM31 81h1v1h-1zM32 81h1v1h-1zM33 81h1v1h-1zM34 81h1v1h-1zM35 81h1v1h-1zM36 81h1v1h-1zM37 81h1v1h-1zM38 81h1v1h-1zM39 81h1v1h-1zM40 81h1v1h-1zM41 81h1v1h-1zM42 81h1v1h-1zM43 81h1v1h-1zM44 81h1v1h-1zM45 81h1v1h-1zM46 81h1v1h-1zM47 81h1v1h-1zM48 81h1v1h-1zM49 81h1v1h-1z"/><path fill="#44A232" d="M50 81h1v1h-1z"/><path fill="#304F21" d="M51 81h1v1h-1z"/><path fill="#231815" d="M52 81h1v1h-1zM53 81h1v1h-1zM54 81h1v1h-1zM55 81h1v1h-1zM56 81h1v1h-1zM7 82h1v1H7zM8 82h1v1H8zM9 82h1v1H9z"/><path fill="#3D862C" d="M10 82h1v1h-1z"/><path fill="#46AB34" d="M11 82h1v1h-1zM12 82h1v1h-1zM13 82h1v1h-1zM14 82h1v1h-1zM15 82h1v1h-1zM16 82h1v1h-1zM17 82h1v1h-1z"/><path fill="#39A236" d="M18 82h1v1h-1z"/><path fill="#22943A" d="M19 82h1v1h-1zM20 82h1v1h-1zM21 82h1v1h-1z"/><path fill="#228535" d="M22 82h1v1h-1z"/><path fill="#225E2A" d="M23 82h1v1h-1z"/><path fill="#234723" d="M24 82h1v1h-1z"/><path fill="#32702A" d="M25 82h1v1h-1z"/><path fill="#44AA34" d="M26 82h1v1h-1z"/><path fill="#46AB34" d="M27 82h1v1h-1zM28 82h1v1h-1zM29 82h1v1h-1zM30 82h1v1h-1zM31 82h1v1h-1zM32 82h1v1h-1zM33 82h1v1h-1zM34 82h1v1h-1zM35 82h1v1h-1zM36 82h1v1h-1zM37 82h1v1h-1zM38 82h1v1h-1zM39 82h1v1h-1zM40 82h1v1h-1zM41 82h1v1h-1zM42 82h1v1h-1zM43 82h1v1h-1zM44 82h1v1h-1zM45 82h1v1h-1zM46 82h1v1h-1zM47 82h1v1h-1zM48 82h1v1h-1z"/><path fill="#3D862C" d="M49 82h1v1h-1z"/><path fill="#272A19" d="M50 82h1v1h-1z"/><path fill="#231815" d="M51 82h1v1h-1zM52 82h1v1h-1zM53 82h1v1h-1zM54 82h1v1h-1zM55 82h1v1h-1zM7 83h1v1H7zM8 83h1v1H8zM9 83h1v1H9z"/><path fill="#356225" d="M10 83h1v1h-1z"/><path fill="#46AB34" d="M11 83h1v1h-1zM12 83h1v1h-1zM13 83h1v1h-1zM14 83h1v1h-1zM15 83h1v1h-1zM16 83h1v1h-1z"/><path fill="#44A232" d="M17 83h1v1h-1z"/><path fill="#3D862C" d="M18 83h1v1h-1z"/><path fill="#255F29" d="M19 83h1v1h-1z"/><path fill="#233F21" d="M20 83h1v1h-1z"/><path fill="#23281A" d="M21 83h1v1h-1z"/><path fill="#231815" d="M22 83h1v1h-1zM23 83h1v1h-1zM24 83h1v1h-1zM25 83h1v1h-1z"/><path fill="#2A3B1D" d="M26 83h1v1h-1z"/><path fill="#3D862C" d="M27 83h1v1h-1z"/><path fill="#46AB34" d="M28 83h1v1h-1zM29 83h1v1h-1zM30 83h1v1h-1zM31 83h1v1h-1zM32 83h1v1h-1zM33 83h1v1h-1zM34 83h1v1h-1zM35 83h1v1h-1zM36 83h1v1h-1zM37 83h1v1h-1zM38 83h1v1h-1zM39 83h1v1h-1zM40 83h1v1h-1zM41 83h1v1h-1zM42 83h1v1h-1zM43 83h1v1h-1zM44 83h1v1h-1zM45 83h1v1h-1zM46 83h1v1h-1z"/><path fill="#44A232" d="M47 83h1v1h-1z"/><path fill="#304F21" d="M48 83h1v1h-1z"/><path fill="#231815" d="M49 83h1v1h-1zM50 83h1v1h-1zM51 83h1v1h-1zM52 83h1v1h-1zM53 83h1v1h-1zM54 83h1v1h-1zM7 84h1v1H7zM8 84h1v1H8zM9 84h1v1H9zM10 84h1v1h-1z"/><path fill="#252117" d="M11 84h1v1h-1z"/><path fill="#2C3D1D" d="M12 84h1v1h-1zM13 84h1v1h-1zM14 84h1v1h-1z"/><path fill="#2A341B" d="M15 84h1v1h-1z"/><path fill="#231815" d="M16 84h1v1h-1zM17 84h1v1h-1zM18 84h1v1h-1zM19 84h1v1h-1zM20 84h1v1h-1zM21 84h1v1h-1zM22 84h1v1h-1zM23 84h1v1h-1zM24 84h1v1h-1zM25 84h1v1h-1zM26 84h1v1h-1zM27 84h1v1h-1z"/><path fill="#2C3D1D" d="M28 84h1v1h-1z"/><path fill="#3D862C" d="M29 84h1v1h-1z"/><path fill="#46AB34" d="M30 84h1v1h-1zM31 84h1v1h-1zM32 84h1v1h-1zM33 84h1v1h-1zM34 84h1v1h-1zM35 84h1v1h-1zM36 84h1v1h-1zM37 84h1v1h-1zM38 84h1v1h-1zM39 84h1v1h-1zM40 84h1v1h-1zM41 84h1v1h-1zM42 84h1v1h-1zM43 84h1v1h-1zM44 84h1v1h-1z"/><path fill="#429930" d="M45 84h1v1h-1z"/><path fill="#356225" d="M46 84h1v1h-1z"/><path fill="#252117" d="M47 84h1v1h-1z"/><path fill="#231815" d="M48 84h1v1h-1zM49 84h1v1h-1zM50 84h1v1h-1zM51 84h1v1h-1zM52 84h1v1h-1zM7 85h1v1H7zM8 85h1v1H8zM9 85h1v1H9zM10 85h1v1h-1zM11 85h1v1h-1zM12 85h1v1h-1zM13 85h1v1h-1zM14 85h1v1h-1zM15 85h1v1h-1zM16 85h1v1h-1zM17 85h1v1h-1zM18 85h1v1h-1zM19 85h1v1h-1zM20 85h1v1h-1zM21 85h1v1h-1zM22 85h1v1h-1zM23 85h1v1h-1zM24 85h1v1h-1zM25 85h1v1h-1zM26 85h1v1h-1zM27 85h1v1h-1zM28 85h1v1h-1zM29 85h1v1h-1z"/><path fill="#272A19" d="M30 85h1v1h-1z"/><path fill="#325823" d="M31 85h1v1h-1z"/><path fill="#3F8F2E" d="M32 85h1v1h-1z"/><path fill="#46AB34" d="M33 85h1v1h-1zM34 85h1v1h-1zM35 85h1v1h-1zM36 85h1v1h-1zM37 85h1v1h-1zM38 85h1v1h-1zM39 85h1v1h-1zM40 85h1v1h-1zM41 85h1v1h-1z"/><path fill="#44A232" d="M42 85h1v1h-1z"/><path fill="#397428" d="M43 85h1v1h-1z"/><path fill="#2E461F" d="M44 85h1v1h-1z"/><path fill="#231815" d="M45 85h1v1h-1zM46 85h1v1h-1zM47 85h1v1h-1zM48 85h1v1h-1zM49 85h1v1h-1zM50 85h1v1h-1zM51 85h1v1h-1zM8 86h1v1H8zM9 86h1v1H9zM10 86h1v1h-1zM11 86h1v1h-1zM12 86h1v1h-1zM13 86h1v1h-1zM14 86h1v1h-1zM15 86h1v1h-1zM16 86h1v1h-1zM17 86h1v1h-1zM18 86h1v1h-1zM19 86h1v1h-1zM20 86h1v1h-1zM21 86h1v1h-1zM25 86h1v1h-1zM26 86h1v1h-1zM27 86h1v1h-1zM28 86h1v1h-1zM29 86h1v1h-1zM30 86h1v1h-1zM31 86h1v1h-1zM32 86h1v1h-1zM33 86h1v1h-1z"/><path fill="#2C3D1D" d="M34 86h1v1h-1z"/><path fill="#304F21" d="M35 86h1v1h-1z"/><path fill="#356225" d="M36 86h1v1h-1zM37 86h1v1h-1zM38 86h1v1h-1zM39 86h1v1h-1z"/><path fill="#2C3D1D" d="M40 86h1v1h-1z"/><path fill="#272A19" d="M41 86h1v1h-1z"/><path fill="#231815" d="M42 86h1v1h-1zM43 86h1v1h-1zM44 86h1v1h-1zM45 86h1v1h-1zM46 86h1v1h-1zM47 86h1v1h-1zM48 86h1v1h-1zM49 86h1v1h-1zM11 87h1v1h-1zM12 87h1v1h-1zM13 87h1v1h-1zM14 87h1v1h-1zM15 87h1v1h-1zM27 87h1v1h-1zM28 87h1v1h-1zM29 87h1v1h-1zM30 87h1v1h-1zM31 87h1v1h-1zM32 87h1v1h-1zM33 87h1v1h-1zM34 87h1v1h-1zM35 87h1v1h-1zM36 87h1v1h-1zM37 87h1v1h-1zM38 87h1v1h-1zM39 87h1v1h-1zM40 87h1v1h-1zM41 87h1v1h-1zM42 87h1v1h-1zM43 87h1v1h-1zM44 87h1v1h-1zM45 87h1v1h-1zM46 87h1v1h-1zM47 87h1v1h-1zM29 88h1v1h-1zM30 88h1v1h-1zM31 88h1v1h-1zM32 88h1v1h-1zM33 88h1v1h-1zM34 88h1v1h-1zM35 88h1v1h-1zM36 88h1v1h-1zM37 88h1v1h-1zM38 88h1v1h-1zM39 88h1v1h-1zM40 88h1v1h-1zM41 88h1v1h-1zM42 88h1v1h-1zM43 88h1v1h-1zM44 88h1v1h-1zM45 88h1v1h-1zM33 89h1v1h-1zM34 89h1v1h-1zM35 89h1v1h-1zM36 89h1v1h-1zM37 89h1v1h-1zM38 89h1v1h-1zM39 89h1v1h-1zM40 89h1v1h-1zM41 89h1v1h-1z"/></svg>