<svg baseProfile="full" height="90" width="55" xmlns="http://www.w3.org/2000/svg"><path fill="#231815" d="M37 0h1v1h-1zM38 0h1v1h-1zM39 0h1v1h-1zM40 0h1v1h-1zM41 0h1v1h-1zM42 0h1v1h-1zM43 0h1v1h-1zM44 0h1v1h-1zM45 0h1v1h-1zM46 0h1v1h-1zM47 0h1v1h-1zM48 0h1v1h-1zM34 1h1v1h-1zM35 1h1v1h-1zM36 1h1v1h-1zM37 1h1v1h-1zM38 1h1v1h-1zM39 1h1v1h-1zM40 1h1v1h-1zM41 1h1v1h-1zM42 1h1v1h-1zM43 1h1v1h-1zM44 1h1v1h-1zM45 1h1v1h-1zM46 1h1v1h-1zM47 1h1v1h-1zM48 1h1v1h-1zM49 1h1v1h-1zM50 1h1v1h-1zM51 1h1v1h-1zM32 2h1v1h-1zM33 2h1v1h-1zM34 2h1v1h-1zM35 2h1v1h-1zM36 2h1v1h-1zM37 2h1v1h-1zM38 2h1v1h-1zM39 2h1v1h-1zM40 2h1v1h-1zM41 2h1v1h-1zM42 2h1v1h-1zM43 2h1v1h-1zM44 2h1v1h-1zM45 2h1v1h-1zM46 2h1v1h-1zM47 2h1v1h-1zM48 2h1v1h-1zM49 2h1v1h-1zM50 2h1v1h-1zM51 2h1v1h-1zM52 2h1v1h-1zM53 2h1v1h-1zM30 3h1v1h-1zM31 3h1v1h-1zM32 3h1v1h-1zM33 3h1v1h-1zM34 3h1v1h-1zM35 3h1v1h-1zM36 3h1v1h-1zM37 3h1v1h-1z"/><path fill="#766F6D" d="M38 3h1v1h-1z"/><path fill="#C8C5C5" d="M39 3h1v1h-1z"/><path fill="#F1F1F0" d="M40 3h1v1h-1z"/><path fill="#FFF" d="M41 3h1v1h-1z"/><path fill="#F1F1F0" d="M42 3h1v1h-1z"/><path fill="#C8C5C5" d="M43 3h1v1h-1zM44 3h1v1h-1z"/><path fill="#9F9A99" d="M45 3h1v1h-1z"/><path fill="#837D7B" d="M46 3h1v1h-1z"/><path fill="#5A5250" d="M47 3h1v1h-1z"/><path fill="#231815" d="M48 3h1v1h-1zM49 3h1v1h-1zM50 3h1v1h-1zM51 3h1v1h-1zM52 3h1v1h-1zM53 3h1v1h-1zM28 4h1v1h-1zM29 4h1v1h-1zM30 4h1v1h-1zM31 4h1v1h-1zM32 4h1v1h-1zM33 4h1v1h-1zM34 4h1v1h-1z"/><path fill="#3F3532" d="M35 4h1v1h-1z"/><path fill="#918C8A" d="M36 4h1v1h-1z"/><path fill="#F1F1F0" d="M37 4h1v1h-1z"/><path fill="#FFF" d="M38 4h1v1h-1zM39 4h1v1h-1zM40 4h1v1h-1zM41 4h1v1h-1zM42 4h1v1h-1zM43 4h1v1h-1zM44 4h1v1h-1zM45 4h1v1h-1zM46 4h1v1h-1zM47 4h1v1h-1zM48 4h1v1h-1z"/><path fill="#C8C5C5" d="M49 4h1v1h-1z"/><path fill="#766F6D" d="M50 4h1v1h-1z"/><path fill="#231815" d="M51 4h1v1h-1zM52 4h1v1h-1zM53 4h1v1h-1zM54 4h1v1h-1zM25 5h1v1h-1zM26 5h1v1h-1zM27 5h1v1h-1zM28 5h1v1h-1zM29 5h1v1h-1zM30 5h1v1h-1zM31 5h1v1h-1zM32 5h1v1h-1z"/><path fill="#4C4341" d="M33 5h1v1h-1z"/><path fill="#ADA8A7" d="M34 5h1v1h-1z"/><path fill="#FFF" d="M35 5h1v1h-1zM36 5h1v1h-1zM37 5h1v1h-1zM38 5h1v1h-1zM39 5h1v1h-1zM40 5h1v1h-1zM41 5h1v1h-1zM42 5h1v1h-1zM43 5h1v1h-1zM44 5h1v1h-1zM45 5h1v1h-1zM46 5h1v1h-1zM47 5h1v1h-1zM48 5h1v1h-1zM49 5h1v1h-1z"/><path fill="#F9F8F9" d="M50 5h1v1h-1z"/><path fill="#5B5351" d="M51 5h1v1h-1z"/><path fill="#231815" d="M52 5h1v1h-1zM53 5h1v1h-1zM54 5h1v1h-1zM23 6h1v1h-1zM24 6h1v1h-1zM25 6h1v1h-1zM26 6h1v1h-1zM27 6h1v1h-1zM28 6h1v1h-1zM29 6h1v1h-1zM30 6h1v1h-1z"/><path fill="#68605E" d="M31 6h1v1h-1z"/><path fill="#C8C5C5" d="M32 6h1v1h-1z"/><path fill="#FFF" d="M33 6h1v1h-1zM34 6h1v1h-1zM35 6h1v1h-1zM36 6h1v1h-1zM37 6h1v1h-1zM38 6h1v1h-1zM39 6h1v1h-1zM40 6h1v1h-1zM41 6h1v1h-1zM42 6h1v1h-1zM43 6h1v1h-1zM44 6h1v1h-1zM45 6h1v1h-1zM46 6h1v1h-1zM47 6h1v1h-1z"/><path fill="#F9F8F9" d="M48 6h1v1h-1z"/><path fill="#CECBCC" d="M49 6h1v1h-1z"/><path fill="#A29D9E" d="M50 6h1v1h-1z"/><path fill="#605757" d="M51 6h1v1h-1z"/><path fill="#231815" d="M52 6h1v1h-1zM53 6h1v1h-1zM54 6h1v1h-1zM21 7h1v1h-1zM22 7h1v1h-1zM23 7h1v1h-1zM24 7h1v1h-1zM25 7h1v1h-1zM26 7h1v1h-1zM27 7h1v1h-1z"/><path fill="#312624" d="M28 7h1v1h-1z"/><path fill="#766F6D" d="M29 7h1v1h-1z"/><path fill="#E4E2E2" d="M30 7h1v1h-1z"/><path fill="#FFF" d="M31 7h1v1h-1zM32 7h1v1h-1zM33 7h1v1h-1zM34 7h1v1h-1zM35 7h1v1h-1zM36 7h1v1h-1zM37 7h1v1h-1zM38 7h1v1h-1zM39 7h1v1h-1zM40 7h1v1h-1zM41 7h1v1h-1zM42 7h1v1h-1zM43 7h1v1h-1zM44 7h1v1h-1zM45 7h1v1h-1zM46 7h1v1h-1z"/><path fill="#D4D1D2" d="M47 7h1v1h-1z"/><path fill="#A29D9E" d="M48 7h1v1h-1z"/><path fill="#9C9698" d="M49 7h1v1h-1zM50 7h1v1h-1z"/><path fill="#6F6767" d="M51 7h1v1h-1z"/><path fill="#231815" d="M52 7h1v1h-1zM53 7h1v1h-1zM54 7h1v1h-1zM19 8h1v1h-1zM20 8h1v1h-1zM21 8h1v1h-1zM22 8h1v1h-1zM23 8h1v1h-1zM24 8h1v1h-1zM25 8h1v1h-1z"/><path fill="#3F3532" d="M26 8h1v1h-1z"/><path fill="#918C8A" d="M27 8h1v1h-1z"/><path fill="#F1F1F0" d="M28 8h1v1h-1z"/><path fill="#FFF" d="M29 8h1v1h-1zM30 8h1v1h-1zM31 8h1v1h-1zM32 8h1v1h-1zM33 8h1v1h-1zM34 8h1v1h-1zM35 8h1v1h-1zM36 8h1v1h-1zM37 8h1v1h-1zM38 8h1v1h-1zM39 8h1v1h-1zM40 8h1v1h-1zM41 8h1v1h-1zM42 8h1v1h-1zM43 8h1v1h-1zM44 8h1v1h-1z"/><path fill="#DAD8D8" d="M45 8h1v1h-1z"/><path fill="#A8A3A5" d="M46 8h1v1h-1z"/><path fill="#9C9698" d="M47 8h1v1h-1zM48 8h1v1h-1zM49 8h1v1h-1zM50 8h1v1h-1z"/><path fill="#7E7777" d="M51 8h1v1h-1z"/><path fill="#231815" d="M52 8h1v1h-1zM53 8h1v1h-1zM54 8h1v1h-1zM16 9h1v1h-1zM17 9h1v1h-1zM18 9h1v1h-1zM19 9h1v1h-1zM20 9h1v1h-1zM21 9h1v1h-1zM22 9h1v1h-1zM23 9h1v1h-1z"/><path fill="#4C4341" d="M24 9h1v1h-1z"/><path fill="#ADA8A7" d="M25 9h1v1h-1z"/><path fill="#FFF" d="M26 9h1v1h-1zM27 9h1v1h-1zM28 9h1v1h-1zM29 9h1v1h-1zM30 9h1v1h-1zM31 9h1v1h-1zM32 9h1v1h-1zM33 9h1v1h-1zM34 9h1v1h-1zM35 9h1v1h-1zM36 9h1v1h-1zM37 9h1v1h-1zM38 9h1v1h-1zM39 9h1v1h-1zM40 9h1v1h-1zM41 9h1v1h-1zM42 9h1v1h-1z"/><path fill="#E0DEDF" d="M43 9h1v1h-1z"/><path fill="#A8A3A5" d="M44 9h1v1h-1z"/><path fill="#9C9698" d="M45 9h1v1h-1zM46 9h1v1h-1zM47 9h1v1h-1zM48 9h1v1h-1zM49 9h1v1h-1zM50 9h1v1h-1z"/><path fill="#7E7777" d="M51 9h1v1h-1z"/><path fill="#231815" d="M52 9h1v1h-1zM53 9h1v1h-1zM54 9h1v1h-1zM14 10h1v1h-1zM15 10h1v1h-1zM16 10h1v1h-1zM17 10h1v1h-1zM18 10h1v1h-1zM19 10h1v1h-1zM20 10h1v1h-1zM21 10h1v1h-1z"/><path fill="#68605E" d="M22 10h1v1h-1z"/><path fill="#C8C5C5" d="M23 10h1v1h-1z"/><path fill="#FFF" d="M24 10h1v1h-1zM25 10h1v1h-1zM26 10h1v1h-1zM27 10h1v1h-1zM28 10h1v1h-1zM29 10h1v1h-1zM30 10h1v1h-1zM31 10h1v1h-1zM32 10h1v1h-1zM33 10h1v1h-1zM34 10h1v1h-1zM35 10h1v1h-1zM36 10h1v1h-1zM37 10h1v1h-1zM38 10h1v1h-1zM39 10h1v1h-1zM40 10h1v1h-1z"/><path fill="#E6E5E5" d="M41 10h1v1h-1z"/><path fill="#B5B0B2" d="M42 10h1v1h-1z"/><path fill="#9C9698" d="M43 10h1v1h-1zM44 10h1v1h-1zM45 10h1v1h-1zM46 10h1v1h-1zM47 10h1v1h-1zM48 10h1v1h-1zM49 10h1v1h-1zM50 10h1v1h-1z"/><path fill="#7E7777" d="M51 10h1v1h-1z"/><path fill="#231815" d="M52 10h1v1h-1zM53 10h1v1h-1zM54 10h1v1h-1zM12 11h1v1h-1zM13 11h1v1h-1zM14 11h1v1h-1zM15 11h1v1h-1zM16 11h1v1h-1zM17 11h1v1h-1zM18 11h1v1h-1zM19 11h1v1h-1z"/><path fill="#766F6D" d="M20 11h1v1h-1z"/><path fill="#E4E2E2" d="M21 11h1v1h-1z"/><path fill="#FFF" d="M22 11h1v1h-1zM23 11h1v1h-1zM24 11h1v1h-1zM25 11h1v1h-1zM26 11h1v1h-1zM27 11h1v1h-1zM28 11h1v1h-1zM29 11h1v1h-1zM30 11h1v1h-1zM31 11h1v1h-1zM32 11h1v1h-1zM33 11h1v1h-1zM34 11h1v1h-1zM35 11h1v1h-1zM36 11h1v1h-1zM37 11h1v1h-1zM38 11h1v1h-1z"/><path fill="#E6E5E5" d="M39 11h1v1h-1z"/><path fill="#B5B0B2" d="M40 11h1v1h-1z"/><path fill="#9C9698" d="M41 11h1v1h-1zM42 11h1v1h-1zM43 11h1v1h-1zM44 11h1v1h-1zM45 11h1v1h-1zM46 11h1v1h-1zM47 11h1v1h-1zM48 11h1v1h-1zM49 11h1v1h-1zM50 11h1v1h-1z"/><path fill="#7E7777" d="M51 11h1v1h-1z"/><path fill="#231815" d="M52 11h1v1h-1zM53 11h1v1h-1zM54 11h1v1h-1zM10 12h1v1h-1zM11 12h1v1h-1zM12 12h1v1h-1zM13 12h1v1h-1zM14 12h1v1h-1zM15 12h1v1h-1zM16 12h1v1h-1z"/><path fill="#312624" d="M17 12h1v1h-1z"/><path fill="#918C8A" d="M18 12h1v1h-1z"/><path fill="#F1F1F0" d="M19 12h1v1h-1z"/><path fill="#FFF" d="M20 12h1v1h-1zM21 12h1v1h-1zM22 12h1v1h-1zM23 12h1v1h-1zM24 12h1v1h-1zM25 12h1v1h-1zM26 12h1v1h-1zM27 12h1v1h-1zM28 12h1v1h-1zM29 12h1v1h-1zM30 12h1v1h-1zM31 12h1v1h-1zM32 12h1v1h-1zM33 12h1v1h-1zM34 12h1v1h-1zM35 12h1v1h-1zM36 12h1v1h-1z"/><path fill="#F3F2F2" d="M37 12h1v1h-1z"/><path fill="#C1BDBF" d="M38 12h1v1h-1z"/><path fill="#9C9698" d="M39 12h1v1h-1zM40 12h1v1h-1zM41 12h1v1h-1zM42 12h1v1h-1zM43 12h1v1h-1zM44 12h1v1h-1zM45 12h1v1h-1zM46 12h1v1h-1zM47 12h1v1h-1zM48 12h1v1h-1zM49 12h1v1h-1zM50 12h1v1h-1z"/><path fill="#7E7777" d="M51 12h1v1h-1z"/><path fill="#231815" d="M52 12h1v1h-1zM53 12h1v1h-1zM54 12h1v1h-1zM8 13h1v1H8zM9 13h1v1H9zM10 13h1v1h-1zM11 13h1v1h-1zM12 13h1v1h-1zM13 13h1v1h-1zM14 13h1v1h-1z"/><path fill="#3F3532" d="M15 13h1v1h-1z"/><path fill="#ADA8A7" d="M16 13h1v1h-1z"/><path fill="#FFF" d="M17 13h1v1h-1zM18 13h1v1h-1zM19 13h1v1h-1zM20 13h1v1h-1zM21 13h1v1h-1zM22 13h1v1h-1zM23 13h1v1h-1zM24 13h1v1h-1zM25 13h1v1h-1zM26 13h1v1h-1zM27 13h1v1h-1zM28 13h1v1h-1zM29 13h1v1h-1zM30 13h1v1h-1zM31 13h1v1h-1zM32 13h1v1h-1zM33 13h1v1h-1zM34 13h1v1h-1z"/><path fill="#F3F2F2" d="M35 13h1v1h-1z"/><path fill="#C1BDBF" d="M36 13h1v1h-1z"/><path fill="#9C9698" d="M37 13h1v1h-1zM38 13h1v1h-1zM39 13h1v1h-1zM40 13h1v1h-1zM41 13h1v1h-1zM42 13h1v1h-1zM43 13h1v1h-1zM44 13h1v1h-1zM45 13h1v1h-1zM46 13h1v1h-1zM47 13h1v1h-1zM48 13h1v1h-1zM49 13h1v1h-1zM50 13h1v1h-1z"/><path fill="#7E7777" d="M51 13h1v1h-1z"/><path fill="#231815" d="M52 13h1v1h-1zM53 13h1v1h-1zM54 13h1v1h-1zM6 14h1v1H6zM7 14h1v1H7zM8 14h1v1H8zM9 14h1v1H9zM10 14h1v1h-1zM11 14h1v1h-1zM12 14h1v1h-1z"/><path fill="#5A5250" d="M13 14h1v1h-1z"/><path fill="#BAB7B6" d="M14 14h1v1h-1z"/><path fill="#FFF" d="M15 14h1v1h-1zM16 14h1v1h-1zM17 14h1v1h-1zM18 14h1v1h-1zM19 14h1v1h-1zM20 14h1v1h-1zM21 14h1v1h-1zM22 14h1v1h-1zM23 14h1v1h-1zM24 14h1v1h-1zM25 14h1v1h-1zM26 14h1v1h-1zM27 14h1v1h-1zM28 14h1v1h-1zM29 14h1v1h-1zM30 14h1v1h-1zM31 14h1v1h-1zM32 14h1v1h-1z"/><path fill="#F9F8F9" d="M33 14h1v1h-1z"/><path fill="#CECBCC" d="M34 14h1v1h-1z"/><path fill="#A29D9E" d="M35 14h1v1h-1z"/><path fill="#9C9698" d="M36 14h1v1h-1zM37 14h1v1h-1zM38 14h1v1h-1zM39 14h1v1h-1zM40 14h1v1h-1zM41 14h1v1h-1zM42 14h1v1h-1zM43 14h1v1h-1zM44 14h1v1h-1zM45 14h1v1h-1zM46 14h1v1h-1zM47 14h1v1h-1zM48 14h1v1h-1zM49 14h1v1h-1zM50 14h1v1h-1z"/><path fill="#7E7777" d="M51 14h1v1h-1z"/><path fill="#231815" d="M52 14h1v1h-1zM53 14h1v1h-1zM54 14h1v1h-1zM4 15h1v1H4zM5 15h1v1H5zM6 15h1v1H6zM7 15h1v1H7zM8 15h1v1H8zM9 15h1v1H9zM10 15h1v1h-1z"/><path fill="#68605E" d="M11 15h1v1h-1z"/><path fill="#C8C5C5" d="M12 15h1v1h-1z"/><path fill="#FFF" d="M13 15h1v1h-1zM14 15h1v1h-1zM15 15h1v1h-1zM16 15h1v1h-1zM17 15h1v1h-1zM18 15h1v1h-1zM19 15h1v1h-1zM20 15h1v1h-1zM21 15h1v1h-1zM22 15h1v1h-1zM23 15h1v1h-1zM24 15h1v1h-1zM25 15h1v1h-1zM26 15h1v1h-1zM27 15h1v1h-1zM28 15h1v1h-1zM29 15h1v1h-1zM30 15h1v1h-1z"/><path fill="#F9F8F9" d="M31 15h1v1h-1z"/><path fill="#CECBCC" d="M32 15h1v1h-1z"/><path fill="#A29D9E" d="M33 15h1v1h-1z"/><path fill="#9C9698" d="M34 15h1v1h-1zM35 15h1v1h-1zM36 15h1v1h-1zM37 15h1v1h-1zM38 15h1v1h-1zM39 15h1v1h-1zM40 15h1v1h-1zM41 15h1v1h-1zM42 15h1v1h-1zM43 15h1v1h-1zM44 15h1v1h-1zM45 15h1v1h-1zM46 15h1v1h-1zM47 15h1v1h-1zM48 15h1v1h-1zM49 15h1v1h-1zM50 15h1v1h-1z"/><path fill="#605757" d="M51 15h1v1h-1z"/><path fill="#231815" d="M52 15h1v1h-1zM53 15h1v1h-1zM54 15h1v1h-1zM3 16h1v1H3zM4 16h1v1H4zM5 16h1v1H5zM6 16h1v1H6zM7 16h1v1H7zM8 16h1v1H8z"/><path fill="#766F6D" d="M9 16h1v1H9z"/><path fill="#E4E2E2" d="M10 16h1v1h-1z"/><path fill="#FFF" d="M11 16h1v1h-1zM12 16h1v1h-1zM13 16h1v1h-1zM14 16h1v1h-1zM15 16h1v1h-1zM16 16h1v1h-1zM17 16h1v1h-1zM18 16h1v1h-1zM19 16h1v1h-1zM20 16h1v1h-1zM21 16h1v1h-1zM22 16h1v1h-1zM23 16h1v1h-1zM24 16h1v1h-1zM25 16h1v1h-1zM26 16h1v1h-1zM27 16h1v1h-1zM28 16h1v1h-1zM29 16h1v1h-1z"/><path fill="#DAD8D8" d="M30 16h1v1h-1z"/><path fill="#A29D9E" d="M31 16h1v1h-1z"/><path fill="#9C9698" d="M32 16h1v1h-1zM33 16h1v1h-1zM34 16h1v1h-1zM35 16h1v1h-1zM36 16h1v1h-1zM37 16h1v1h-1zM38 16h1v1h-1zM39 16h1v1h-1zM40 16h1v1h-1zM41 16h1v1h-1zM42 16h1v1h-1zM43 16h1v1h-1zM44 16h1v1h-1zM45 16h1v1h-1zM46 16h1v1h-1zM47 16h1v1h-1zM48 16h1v1h-1zM49 16h1v1h-1zM50 16h1v1h-1z"/><path fill="#584F4E" d="M51 16h1v1h-1z"/><path fill="#231815" d="M52 16h1v1h-1zM53 16h1v1h-1zM54 16h1v1h-1zM2 17h1v1H2zM3 17h1v1H3zM4 17h1v1H4zM5 17h1v1H5zM6 17h1v1H6z"/><path fill="#5A5250" d="M7 17h1v1H7z"/><path fill="#D6D4D3" d="M8 17h1v1H8z"/><path fill="#FFF" d="M9 17h1v1H9zM10 17h1v1h-1zM11 17h1v1h-1zM12 17h1v1h-1zM13 17h1v1h-1zM14 17h1v1h-1zM15 17h1v1h-1zM16 17h1v1h-1zM17 17h1v1h-1zM18 17h1v1h-1zM19 17h1v1h-1zM20 17h1v1h-1zM21 17h1v1h-1zM22 17h1v1h-1zM23 17h1v1h-1zM24 17h1v1h-1zM25 17h1v1h-1zM26 17h1v1h-1zM27 17h1v1h-1z"/><path fill="#DAD8D8" d="M28 17h1v1h-1z"/><path fill="#A8A3A5" d="M29 17h1v1h-1z"/><path fill="#9C9698" d="M30 17h1v1h-1zM31 17h1v1h-1zM32 17h1v1h-1zM33 17h1v1h-1zM34 17h1v1h-1zM35 17h1v1h-1zM36 17h1v1h-1zM37 17h1v1h-1zM38 17h1v1h-1zM39 17h1v1h-1zM40 17h1v1h-1zM41 17h1v1h-1zM42 17h1v1h-1zM43 17h1v1h-1zM44 17h1v1h-1zM45 17h1v1h-1zM46 17h1v1h-1zM47 17h1v1h-1zM48 17h1v1h-1zM49 17h1v1h-1z"/><path fill="#857E7F" d="M50 17h1v1h-1z"/><path fill="#322825" d="M51 17h1v1h-1z"/><path fill="#231815" d="M52 17h1v1h-1zM53 17h1v1h-1zM54 17h1v1h-1zM1 18h1v1H1zM2 18h1v1H2zM3 18h1v1H3zM4 18h1v1H4z"/><path fill="#312624" d="M5 18h1v1H5z"/><path fill="#9F9A99" d="M6 18h1v1H6z"/><path fill="#FFF" d="M7 18h1v1H7zM8 18h1v1H8zM9 18h1v1H9zM10 18h1v1h-1zM11 18h1v1h-1zM12 18h1v1h-1zM13 18h1v1h-1zM14 18h1v1h-1zM15 18h1v1h-1zM16 18h1v1h-1zM17 18h1v1h-1zM18 18h1v1h-1zM19 18h1v1h-1zM20 18h1v1h-1zM21 18h1v1h-1zM22 18h1v1h-1zM23 18h1v1h-1zM24 18h1v1h-1zM25 18h1v1h-1z"/><path fill="#E6E5E5" d="M26 18h1v1h-1z"/><path fill="#A8A3A5" d="M27 18h1v1h-1z"/><path fill="#9C9698" d="M28 18h1v1h-1zM29 18h1v1h-1zM30 18h1v1h-1zM31 18h1v1h-1zM32 18h1v1h-1zM33 18h1v1h-1zM34 18h1v1h-1zM35 18h1v1h-1zM36 18h1v1h-1zM37 18h1v1h-1zM38 18h1v1h-1zM39 18h1v1h-1zM40 18h1v1h-1zM41 18h1v1h-1zM42 18h1v1h-1zM43 18h1v1h-1zM44 18h1v1h-1zM45 18h1v1h-1zM46 18h1v1h-1zM47 18h1v1h-1z"/><path fill="#948E90" d="M48 18h1v1h-1z"/><path fill="#605757" d="M49 18h1v1h-1z"/><path fill="#231815" d="M50 18h1v1h-1zM51 18h1v1h-1zM52 18h1v1h-1zM53 18h1v1h-1zM54 18h1v1h-1zM0 19h1v1H0zM1 19h1v1H1zM2 19h1v1H2zM3 19h1v1H3z"/><path fill="#382E2B" d="M4 19h1v1H4z"/><path fill="#BAB8B6" d="M5 19h1v1H5z"/><path fill="#E4E3E2" d="M6 19h1v1H6z"/><path fill="#E7E7E6" d="M7 19h1v1H7z"/><path fill="#F1F1F1" d="M8 19h1v1H8z"/><path fill="#FCFCFB" d="M9 19h1v1H9z"/><path fill="#FFF" d="M10 19h1v1h-1zM11 19h1v1h-1zM12 19h1v1h-1zM13 19h1v1h-1zM14 19h1v1h-1zM15 19h1v1h-1zM16 19h1v1h-1zM17 19h1v1h-1zM18 19h1v1h-1zM19 19h1v1h-1zM20 19h1v1h-1zM21 19h1v1h-1zM22 19h1v1h-1zM23 19h1v1h-1z"/><path fill="#E6E5E5" d="M24 19h1v1h-1z"/><path fill="#B5B0B2" d="M25 19h1v1h-1z"/><path fill="#9C9698" d="M26 19h1v1h-1zM27 19h1v1h-1zM28 19h1v1h-1zM29 19h1v1h-1zM30 19h1v1h-1zM31 19h1v1h-1zM32 19h1v1h-1zM33 19h1v1h-1zM34 19h1v1h-1zM35 19h1v1h-1zM36 19h1v1h-1zM37 19h1v1h-1zM38 19h1v1h-1zM39 19h1v1h-1zM40 19h1v1h-1zM41 19h1v1h-1zM42 19h1v1h-1zM43 19h1v1h-1zM44 19h1v1h-1zM45 19h1v1h-1zM46 19h1v1h-1z"/><path fill="#766F6F" d="M47 19h1v1h-1z"/><path fill="#322825" d="M48 19h1v1h-1z"/><path fill="#231815" d="M49 19h1v1h-1zM50 19h1v1h-1zM51 19h1v1h-1zM52 19h1v1h-1zM53 19h1v1h-1zM0 20h1v1H0zM1 20h1v1H1zM2 20h1v1H2z"/><path fill="#2D2320" d="M3 20h1v1H3z"/><path fill="#A9A6A4" d="M4 20h1v1H4z"/><path fill="#C8C7C5" d="M5 20h1v1H5zM6 20h1v1H6zM7 20h1v1H7zM8 20h1v1H8zM9 20h1v1H9z"/><path fill="#D2D2D0" d="M10 20h1v1h-1z"/><path fill="#E0E0DE" d="M11 20h1v1h-1z"/><path fill="#F5F5F4" d="M12 20h1v1h-1z"/><path fill="#FFF" d="M13 20h1v1h-1zM14 20h1v1h-1zM15 20h1v1h-1zM16 20h1v1h-1zM17 20h1v1h-1zM18 20h1v1h-1zM19 20h1v1h-1zM20 20h1v1h-1zM21 20h1v1h-1z"/><path fill="#F3F2F2" d="M22 20h1v1h-1z"/><path fill="#B5B0B2" d="M23 20h1v1h-1z"/><path fill="#9C9698" d="M24 20h1v1h-1zM25 20h1v1h-1zM26 20h1v1h-1zM27 20h1v1h-1zM28 20h1v1h-1zM29 20h1v1h-1zM30 20h1v1h-1zM31 20h1v1h-1zM32 20h1v1h-1zM33 20h1v1h-1zM34 20h1v1h-1zM35 20h1v1h-1zM36 20h1v1h-1zM37 20h1v1h-1zM38 20h1v1h-1zM39 20h1v1h-1zM40 20h1v1h-1zM41 20h1v1h-1zM42 20h1v1h-1zM43 20h1v1h-1zM44 20h1v1h-1z"/><path fill="#8D8688" d="M45 20h1v1h-1z"/><path fill="#413836" d="M46 20h1v1h-1z"/><path fill="#231815" d="M47 20h1v1h-1zM48 20h1v1h-1zM49 20h1v1h-1zM50 20h1v1h-1zM51 20h1v1h-1zM52 20h1v1h-1zM0 21h1v1H0zM1 21h1v1H1zM2 21h1v1H2z"/><path fill="#76706D" d="M3 21h1v1H3z"/><path fill="#C8C7C5" d="M4 21h1v1H4zM5 21h1v1H5zM6 21h1v1H6zM7 21h1v1H7zM8 21h1v1H8zM9 21h1v1H9zM10 21h1v1h-1zM11 21h1v1h-1zM12 21h1v1h-1z"/><path fill="#CFCECC" d="M13 21h1v1h-1z"/><path fill="#E7E7E6" d="M14 21h1v1h-1z"/><path fill="#FCFCFB" d="M15 21h1v1h-1z"/><path fill="#FFF" d="M16 21h1v1h-1zM17 21h1v1h-1zM18 21h1v1h-1zM19 21h1v1h-1z"/><path fill="#F3F2F2" d="M20 21h1v1h-1z"/><path fill="#C1BDBF" d="M21 21h1v1h-1z"/><path fill="#9C9698" d="M22 21h1v1h-1zM23 21h1v1h-1zM24 21h1v1h-1zM25 21h1v1h-1zM26 21h1v1h-1zM27 21h1v1h-1zM28 21h1v1h-1zM29 21h1v1h-1zM30 21h1v1h-1zM31 21h1v1h-1zM32 21h1v1h-1zM33 21h1v1h-1zM34 21h1v1h-1zM35 21h1v1h-1zM36 21h1v1h-1zM37 21h1v1h-1zM38 21h1v1h-1zM39 21h1v1h-1zM40 21h1v1h-1zM41 21h1v1h-1zM42 21h1v1h-1z"/><path fill="#948E90" d="M43 21h1v1h-1z"/><path fill="#605757" d="M44 21h1v1h-1z"/><path fill="#231815" d="M45 21h1v1h-1zM46 21h1v1h-1zM47 21h1v1h-1zM48 21h1v1h-1zM49 21h1v1h-1zM50 21h1v1h-1zM0 22h1v1H0zM1 22h1v1H1zM2 22h1v1H2z"/><path fill="#9F9B99" d="M3 22h1v1H3z"/><path fill="#C8C7C5" d="M4 22h1v1H4zM5 22h1v1H5zM6 22h1v1H6zM7 22h1v1H7zM8 22h1v1H8zM9 22h1v1H9zM10 22h1v1h-1zM11 22h1v1h-1zM12 22h1v1h-1zM13 22h1v1h-1zM14 22h1v1h-1z"/><path fill="#CBCBC9" d="M15 22h1v1h-1z"/><path fill="#E7E7E6" d="M16 22h1v1h-1z"/><path fill="#FFF" d="M17 22h1v1h-1z"/><path fill="#F9F8F9" d="M18 22h1v1h-1z"/><path fill="#C1BDBF" d="M19 22h1v1h-1z"/><path fill="#9C9698" d="M20 22h1v1h-1zM21 22h1v1h-1zM22 22h1v1h-1zM23 22h1v1h-1zM24 22h1v1h-1zM25 22h1v1h-1zM26 22h1v1h-1zM27 22h1v1h-1zM28 22h1v1h-1zM29 22h1v1h-1zM30 22h1v1h-1zM31 22h1v1h-1zM32 22h1v1h-1zM33 22h1v1h-1zM34 22h1v1h-1z"/><path fill="#584F4E" d="M35 22h1v1h-1z"/><path fill="#231815" d="M36 22h1v1h-1z"/><path fill="#584F4E" d="M37 22h1v1h-1z"/><path fill="#9C9698" d="M38 22h1v1h-1zM39 22h1v1h-1zM40 22h1v1h-1zM41 22h1v1h-1zM42 22h1v1h-1z"/><path fill="#493F3E" d="M43 22h1v1h-1z"/><path fill="#231815" d="M44 22h1v1h-1zM45 22h1v1h-1zM46 22h1v1h-1zM47 22h1v1h-1zM48 22h1v1h-1zM49 22h1v1h-1zM0 23h1v1H0zM1 23h1v1H1zM2 23h1v1H2z"/><path fill="#9F9B99" d="M3 23h1v1H3z"/><path fill="#C8C7C5" d="M4 23h1v1H4zM5 23h1v1H5zM6 23h1v1H6zM7 23h1v1H7zM8 23h1v1H8zM9 23h1v1H9zM10 23h1v1h-1zM11 23h1v1h-1zM12 23h1v1h-1zM13 23h1v1h-1zM14 23h1v1h-1zM15 23h1v1h-1zM16 23h1v1h-1z"/><path fill="#CBC9C8" d="M17 23h1v1h-1z"/><path fill="#A29D9E" d="M18 23h1v1h-1z"/><path fill="#9C9698" d="M19 23h1v1h-1zM20 23h1v1h-1zM21 23h1v1h-1zM22 23h1v1h-1zM23 23h1v1h-1zM24 23h1v1h-1zM25 23h1v1h-1zM26 23h1v1h-1zM27 23h1v1h-1zM28 23h1v1h-1zM29 23h1v1h-1zM30 23h1v1h-1zM31 23h1v1h-1zM32 23h1v1h-1zM33 23h1v1h-1z"/><path fill="#766F6F" d="M34 23h1v1h-1z"/><path fill="#231815" d="M35 23h1v1h-1zM36 23h1v1h-1zM37 23h1v1h-1z"/><path fill="#6F6767" d="M38 23h1v1h-1z"/><path fill="#9C9698" d="M39 23h1v1h-1zM40 23h1v1h-1zM41 23h1v1h-1zM42 23h1v1h-1z"/><path fill="#231815" d="M43 23h1v1h-1zM44 23h1v1h-1zM45 23h1v1h-1zM46 23h1v1h-1zM47 23h1v1h-1zM0 24h1v1H0zM1 24h1v1H1zM2 24h1v1H2z"/><path fill="#9F9B99" d="M3 24h1v1H3z"/><path fill="#C8C7C5" d="M4 24h1v1H4zM5 24h1v1H5zM6 24h1v1H6zM7 24h1v1H7zM8 24h1v1H8zM9 24h1v1H9zM10 24h1v1h-1zM11 24h1v1h-1zM12 24h1v1h-1zM13 24h1v1h-1zM14 24h1v1h-1zM15 24h1v1h-1zM16 24h1v1h-1z"/><path fill="#BDBBBA" d="M17 24h1v1h-1z"/><path fill="#9C9698" d="M18 24h1v1h-1zM19 24h1v1h-1zM20 24h1v1h-1zM21 24h1v1h-1zM22 24h1v1h-1zM23 24h1v1h-1zM24 24h1v1h-1zM25 24h1v1h-1zM26 24h1v1h-1zM27 24h1v1h-1zM28 24h1v1h-1zM29 24h1v1h-1zM30 24h1v1h-1zM31 24h1v1h-1zM32 24h1v1h-1zM33 24h1v1h-1z"/><path fill="#605757" d="M34 24h1v1h-1z"/><path fill="#231815" d="M35 24h1v1h-1zM36 24h1v1h-1zM37 24h1v1h-1z"/><path fill="#605757" d="M38 24h1v1h-1z"/><path fill="#9C9698" d="M39 24h1v1h-1zM40 24h1v1h-1zM41 24h1v1h-1zM42 24h1v1h-1z"/><path fill="#231815" d="M43 24h1v1h-1zM44 24h1v1h-1zM45 24h1v1h-1zM0 25h1v1H0zM1 25h1v1H1zM2 25h1v1H2z"/><path fill="#9F9B99" d="M3 25h1v1H3z"/><path fill="#C8C7C5" d="M4 25h1v1H4zM5 25h1v1H5zM6 25h1v1H6zM7 25h1v1H7zM8 25h1v1H8zM9 25h1v1H9zM10 25h1v1h-1zM11 25h1v1h-1zM12 25h1v1h-1zM13 25h1v1h-1zM14 25h1v1h-1zM15 25h1v1h-1zM16 25h1v1h-1z"/><path fill="#BDBBBA" d="M17 25h1v1h-1z"/><path fill="#9C9698" d="M18 25h1v1h-1zM19 25h1v1h-1zM20 25h1v1h-1zM21 25h1v1h-1zM22 25h1v1h-1zM23 25h1v1h-1zM24 25h1v1h-1zM25 25h1v1h-1zM26 25h1v1h-1zM27 25h1v1h-1zM28 25h1v1h-1zM29 25h1v1h-1zM30 25h1v1h-1zM31 25h1v1h-1zM32 25h1v1h-1zM33 25h1v1h-1z"/><path fill="#605757" d="M34 25h1v1h-1z"/><path fill="#231815" d="M35 25h1v1h-1zM36 25h1v1h-1zM37 25h1v1h-1z"/><path fill="#605757" d="M38 25h1v1h-1z"/><path fill="#9C9698" d="M39 25h1v1h-1zM40 25h1v1h-1zM41 25h1v1h-1z"/><path fill="#7E7777" d="M42 25h1v1h-1z"/><path fill="#231815" d="M43 25h1v1h-1zM44 25h1v1h-1zM45 25h1v1h-1zM0 26h1v1H0zM1 26h1v1H1zM2 26h1v1H2z"/><path fill="#9F9B99" d="M3 26h1v1H3z"/><path fill="#C8C7C5" d="M4 26h1v1H4zM5 26h1v1H5zM6 26h1v1H6zM7 26h1v1H7zM8 26h1v1H8zM9 26h1v1H9zM10 26h1v1h-1zM11 26h1v1h-1zM12 26h1v1h-1zM13 26h1v1h-1zM14 26h1v1h-1zM15 26h1v1h-1zM16 26h1v1h-1z"/><path fill="#BDBBBA" d="M17 26h1v1h-1z"/><path fill="#9C9698" d="M18 26h1v1h-1zM19 26h1v1h-1zM20 26h1v1h-1zM21 26h1v1h-1zM22 26h1v1h-1zM23 26h1v1h-1zM24 26h1v1h-1zM25 26h1v1h-1zM26 26h1v1h-1zM27 26h1v1h-1zM28 26h1v1h-1zM29 26h1v1h-1zM30 26h1v1h-1zM31 26h1v1h-1zM32 26h1v1h-1zM33 26h1v1h-1z"/><path fill="#8D8688" d="M34 26h1v1h-1z"/><path fill="#231815" d="M35 26h1v1h-1zM36 26h1v1h-1zM37 26h1v1h-1z"/><path fill="#7E7777" d="M38 26h1v1h-1z"/><path fill="#9C9698" d="M39 26h1v1h-1zM40 26h1v1h-1zM41 26h1v1h-1z"/><path fill="#766F6F" d="M42 26h1v1h-1z"/><path fill="#231815" d="M43 26h1v1h-1zM44 26h1v1h-1zM45 26h1v1h-1zM0 27h1v1H0zM1 27h1v1H1zM2 27h1v1H2z"/><path fill="#9F9B99" d="M3 27h1v1H3z"/><path fill="#C8C7C5" d="M4 27h1v1H4zM5 27h1v1H5zM6 27h1v1H6zM7 27h1v1H7zM8 27h1v1H8zM9 27h1v1H9zM10 27h1v1h-1zM11 27h1v1h-1zM12 27h1v1h-1zM13 27h1v1h-1zM14 27h1v1h-1zM15 27h1v1h-1zM16 27h1v1h-1z"/><path fill="#BDBBBA" d="M17 27h1v1h-1z"/><path fill="#9C9698" d="M18 27h1v1h-1zM19 27h1v1h-1zM20 27h1v1h-1zM21 27h1v1h-1zM22 27h1v1h-1zM23 27h1v1h-1zM24 27h1v1h-1zM25 27h1v1h-1zM26 27h1v1h-1zM27 27h1v1h-1zM28 27h1v1h-1zM29 27h1v1h-1zM30 27h1v1h-1zM31 27h1v1h-1zM32 27h1v1h-1zM33 27h1v1h-1zM34 27h1v1h-1z"/><path fill="#7E7777" d="M35 27h1v1h-1z"/><path fill="#605757" d="M36 27h1v1h-1z"/><path fill="#766F6F" d="M37 27h1v1h-1z"/><path fill="#9C9698" d="M38 27h1v1h-1zM39 27h1v1h-1zM40 27h1v1h-1zM41 27h1v1h-1z"/><path fill="#605757" d="M42 27h1v1h-1z"/><path fill="#231815" d="M43 27h1v1h-1zM44 27h1v1h-1zM45 27h1v1h-1zM0 28h1v1H0zM1 28h1v1H1zM2 28h1v1H2z"/><path fill="#9F9B99" d="M3 28h1v1H3z"/><path fill="#C8C7C5" d="M4 28h1v1H4zM5 28h1v1H5zM6 28h1v1H6zM7 28h1v1H7zM8 28h1v1H8zM9 28h1v1H9zM10 28h1v1h-1zM11 28h1v1h-1zM12 28h1v1h-1zM13 28h1v1h-1zM14 28h1v1h-1zM15 28h1v1h-1zM16 28h1v1h-1z"/><path fill="#BDBBBA" d="M17 28h1v1h-1z"/><path fill="#9C9698" d="M18 28h1v1h-1zM19 28h1v1h-1zM20 28h1v1h-1zM21 28h1v1h-1zM22 28h1v1h-1zM23 28h1v1h-1zM24 28h1v1h-1zM25 28h1v1h-1zM26 28h1v1h-1zM27 28h1v1h-1zM28 28h1v1h-1zM29 28h1v1h-1zM30 28h1v1h-1zM31 28h1v1h-1zM32 28h1v1h-1zM33 28h1v1h-1zM34 28h1v1h-1zM35 28h1v1h-1zM36 28h1v1h-1zM37 28h1v1h-1zM38 28h1v1h-1zM39 28h1v1h-1zM40 28h1v1h-1zM41 28h1v1h-1z"/><path fill="#504746" d="M42 28h1v1h-1z"/><path fill="#231815" d="M43 28h1v1h-1zM44 28h1v1h-1zM45 28h1v1h-1zM46 28h1v1h-1zM47 28h1v1h-1zM0 29h1v1H0zM1 29h1v1H1zM2 29h1v1H2z"/><path fill="#9F9B99" d="M3 29h1v1H3z"/><path fill="#C8C7C5" d="M4 29h1v1H4zM5 29h1v1H5zM6 29h1v1H6zM7 29h1v1H7zM8 29h1v1H8zM9 29h1v1H9zM10 29h1v1h-1zM11 29h1v1h-1zM12 29h1v1h-1zM13 29h1v1h-1zM14 29h1v1h-1zM15 29h1v1h-1zM16 29h1v1h-1z"/><path fill="#BDBBBA" d="M17 29h1v1h-1z"/><path fill="#9C9698" d="M18 29h1v1h-1zM19 29h1v1h-1zM20 29h1v1h-1zM21 29h1v1h-1zM22 29h1v1h-1zM23 29h1v1h-1zM24 29h1v1h-1zM25 29h1v1h-1zM26 29h1v1h-1zM27 29h1v1h-1zM28 29h1v1h-1zM29 29h1v1h-1zM30 29h1v1h-1zM31 29h1v1h-1zM32 29h1v1h-1zM33 29h1v1h-1zM34 29h1v1h-1zM35 29h1v1h-1zM36 29h1v1h-1zM37 29h1v1h-1zM38 29h1v1h-1zM39 29h1v1h-1zM40 29h1v1h-1zM41 29h1v1h-1z"/><path fill="#403836" d="M42 29h1v1h-1z"/><path fill="#231815" d="M43 29h1v1h-1zM44 29h1v1h-1zM45 29h1v1h-1zM46 29h1v1h-1zM47 29h1v1h-1zM48 29h1v1h-1zM49 29h1v1h-1zM0 30h1v1H0zM1 30h1v1H1zM2 30h1v1H2z"/><path fill="#9F9B99" d="M3 30h1v1H3z"/><path fill="#C8C7C5" d="M4 30h1v1H4zM5 30h1v1H5zM6 30h1v1H6zM7 30h1v1H7zM8 30h1v1H8zM9 30h1v1H9zM10 30h1v1h-1zM11 30h1v1h-1zM12 30h1v1h-1zM13 30h1v1h-1zM14 30h1v1h-1zM15 30h1v1h-1zM16 30h1v1h-1z"/><path fill="#BDBBBA" d="M17 30h1v1h-1z"/><path fill="#9C9698" d="M18 30h1v1h-1zM19 30h1v1h-1zM20 30h1v1h-1zM21 30h1v1h-1zM22 30h1v1h-1zM23 30h1v1h-1zM24 30h1v1h-1zM25 30h1v1h-1zM26 30h1v1h-1z"/><path fill="#847E80" d="M27 30h1v1h-1z"/><path fill="#6B6768" d="M28 30h1v1h-1z"/><path fill="#6F6B6C" d="M29 30h1v1h-1z"/><path fill="#989294" d="M30 30h1v1h-1z"/><path fill="#9C9698" d="M31 30h1v1h-1zM32 30h1v1h-1zM33 30h1v1h-1zM34 30h1v1h-1zM35 30h1v1h-1zM36 30h1v1h-1zM37 30h1v1h-1zM38 30h1v1h-1zM39 30h1v1h-1zM40 30h1v1h-1z"/><path fill="#948E90" d="M41 30h1v1h-1z"/><path fill="#585354" d="M42 30h1v1h-1z"/><path fill="#3C3432" d="M43 30h1v1h-1z"/><path fill="#2A201D" d="M44 30h1v1h-1z"/><path fill="#231815" d="M45 30h1v1h-1zM46 30h1v1h-1zM47 30h1v1h-1zM48 30h1v1h-1zM49 30h1v1h-1zM50 30h1v1h-1zM0 31h1v1H0zM1 31h1v1H1zM2 31h1v1H2z"/><path fill="#9F9B99" d="M3 31h1v1H3z"/><path fill="#C8C7C5" d="M4 31h1v1H4zM5 31h1v1H5zM6 31h1v1H6zM7 31h1v1H7zM8 31h1v1H8zM9 31h1v1H9zM10 31h1v1h-1zM11 31h1v1h-1zM12 31h1v1h-1zM13 31h1v1h-1zM14 31h1v1h-1zM15 31h1v1h-1zM16 31h1v1h-1z"/><path fill="#BDBBBA" d="M17 31h1v1h-1z"/><path fill="#9C9698" d="M18 31h1v1h-1zM19 31h1v1h-1zM20 31h1v1h-1zM21 31h1v1h-1zM22 31h1v1h-1zM23 31h1v1h-1zM24 31h1v1h-1z"/><path fill="#908A8C" d="M25 31h1v1h-1z"/><path fill="#6B6768" d="M26 31h1v1h-1z"/><path fill="#5B5758" d="M27 31h1v1h-1zM28 31h1v1h-1zM29 31h1v1h-1z"/><path fill="#888284" d="M30 31h1v1h-1z"/><path fill="#9C9698" d="M31 31h1v1h-1zM32 31h1v1h-1zM33 31h1v1h-1zM34 31h1v1h-1zM35 31h1v1h-1zM36 31h1v1h-1zM37 31h1v1h-1zM38 31h1v1h-1zM39 31h1v1h-1zM40 31h1v1h-1z"/><path fill="#736F70" d="M41 31h1v1h-1z"/><path fill="#5B5758" d="M42 31h1v1h-1zM43 31h1v1h-1z"/><path fill="#877651" d="M44 31h1v1h-1z"/><path fill="#B79236" d="M45 31h1v1h-1z"/><path fill="#544120" d="M46 31h1v1h-1z"/><path fill="#231815" d="M47 31h1v1h-1zM48 31h1v1h-1zM49 31h1v1h-1zM50 31h1v1h-1zM51 31h1v1h-1zM0 32h1v1H0zM1 32h1v1H1zM2 32h1v1H2z"/><path fill="#9F9B99" d="M3 32h1v1H3z"/><path fill="#C8C7C5" d="M4 32h1v1H4zM5 32h1v1H5zM6 32h1v1H6zM7 32h1v1H7zM8 32h1v1H8zM9 32h1v1H9zM10 32h1v1h-1zM11 32h1v1h-1zM12 32h1v1h-1zM13 32h1v1h-1zM14 32h1v1h-1zM15 32h1v1h-1zM16 32h1v1h-1z"/><path fill="#BDBBBA" d="M17 32h1v1h-1z"/><path fill="#9C9698" d="M18 32h1v1h-1zM19 32h1v1h-1zM20 32h1v1h-1zM21 32h1v1h-1zM22 32h1v1h-1z"/><path fill="#989294" d="M23 32h1v1h-1z"/><path fill="#777374" d="M24 32h1v1h-1z"/><path fill="#5B5758" d="M25 32h1v1h-1zM26 32h1v1h-1zM27 32h1v1h-1zM28 32h1v1h-1zM29 32h1v1h-1z"/><path fill="#777374" d="M30 32h1v1h-1z"/><path fill="#9C9698" d="M31 32h1v1h-1zM32 32h1v1h-1zM33 32h1v1h-1zM34 32h1v1h-1zM35 32h1v1h-1zM36 32h1v1h-1zM37 32h1v1h-1zM38 32h1v1h-1zM39 32h1v1h-1z"/><path fill="#908A8C" d="M40 32h1v1h-1z"/><path fill="#5B5758" d="M41 32h1v1h-1zM42 32h1v1h-1zM43 32h1v1h-1z"/><path fill="#B3954A" d="M44 32h1v1h-1z"/><path fill="#E8BA41" d="M45 32h1v1h-1zM46 32h1v1h-1z"/><path fill="#9E7D31" d="M47 32h1v1h-1z"/><path fill="#2F2218" d="M48 32h1v1h-1z"/><path fill="#231815" d="M49 32h1v1h-1zM50 32h1v1h-1zM51 32h1v1h-1zM52 32h1v1h-1zM0 33h1v1H0zM1 33h1v1H1zM2 33h1v1H2z"/><path fill="#94908E" d="M3 33h1v1H3z"/><path fill="#C8C7C5" d="M4 33h1v1H4zM5 33h1v1H5zM6 33h1v1H6zM7 33h1v1H7zM8 33h1v1H8zM9 33h1v1H9zM10 33h1v1h-1zM11 33h1v1h-1zM12 33h1v1h-1zM13 33h1v1h-1zM14 33h1v1h-1zM15 33h1v1h-1zM16 33h1v1h-1z"/><path fill="#BDBBBA" d="M17 33h1v1h-1z"/><path fill="#9C9698" d="M18 33h1v1h-1zM19 33h1v1h-1zM20 33h1v1h-1zM21 33h1v1h-1zM22 33h1v1h-1z"/><path fill="#6F6B6C" d="M23 33h1v1h-1z"/><path fill="#5B5758" d="M24 33h1v1h-1zM25 33h1v1h-1zM26 33h1v1h-1zM27 33h1v1h-1zM28 33h1v1h-1zM29 33h1v1h-1z"/><path fill="#635F60" d="M30 33h1v1h-1z"/><path fill="#9C9698" d="M31 33h1v1h-1zM32 33h1v1h-1zM33 33h1v1h-1zM34 33h1v1h-1zM35 33h1v1h-1zM36 33h1v1h-1zM37 33h1v1h-1zM38 33h1v1h-1z"/><path fill="#989294" d="M39 33h1v1h-1z"/><path fill="#676364" d="M40 33h1v1h-1z"/><path fill="#5B5758" d="M41 33h1v1h-1zM42 33h1v1h-1z"/><path fill="#6D6355" d="M43 33h1v1h-1z"/><path fill="#E8BA41" d="M44 33h1v1h-1zM45 33h1v1h-1zM46 33h1v1h-1zM47 33h1v1h-1z"/><path fill="#C39C39" d="M48 33h1v1h-1z"/><path fill="#48361D" d="M49 33h1v1h-1z"/><path fill="#231815" d="M50 33h1v1h-1zM51 33h1v1h-1zM52 33h1v1h-1zM53 33h1v1h-1zM0 34h1v1H0zM1 34h1v1H1zM2 34h1v1H2z"/><path fill="#76706D" d="M3 34h1v1H3z"/><path fill="#C8C7C5" d="M4 34h1v1H4zM5 34h1v1H5zM6 34h1v1H6zM7 34h1v1H7zM8 34h1v1H8zM9 34h1v1H9zM10 34h1v1h-1zM11 34h1v1h-1zM12 34h1v1h-1zM13 34h1v1h-1zM14 34h1v1h-1zM15 34h1v1h-1zM16 34h1v1h-1z"/><path fill="#BDBBBA" d="M17 34h1v1h-1z"/><path fill="#9C9698" d="M18 34h1v1h-1zM19 34h1v1h-1zM20 34h1v1h-1zM21 34h1v1h-1zM22 34h1v1h-1z"/><path fill="#5B5758" d="M23 34h1v1h-1zM24 34h1v1h-1zM25 34h1v1h-1z"/><path fill="#776750" d="M26 34h1v1h-1z"/><path fill="#C0903B" d="M27 34h1v1h-1z"/><path fill="#5B5758" d="M28 34h1v1h-1zM29 34h1v1h-1zM30 34h1v1h-1z"/><path fill="#807A7C" d="M31 34h1v1h-1z"/><path fill="#9C9698" d="M32 34h1v1h-1zM33 34h1v1h-1zM34 34h1v1h-1zM35 34h1v1h-1zM36 34h1v1h-1zM37 34h1v1h-1z"/><path fill="#989294" d="M38 34h1v1h-1z"/><path fill="#676364" d="M39 34h1v1h-1z"/><path fill="#5B5758" d="M40 34h1v1h-1zM41 34h1v1h-1zM42 34h1v1h-1z"/><path fill="#C5A147" d="M43 34h1v1h-1z"/><path fill="#E8BA41" d="M44 34h1v1h-1zM45 34h1v1h-1zM46 34h1v1h-1zM47 34h1v1h-1zM48 34h1v1h-1z"/><path fill="#DCB03E" d="M49 34h1v1h-1z"/><path fill="#2F2218" d="M50 34h1v1h-1z"/><path fill="#231815" d="M51 34h1v1h-1zM52 34h1v1h-1zM53 34h1v1h-1zM0 35h1v1H0zM1 35h1v1H1zM2 35h1v1H2z"/><path fill="#76706D" d="M3 35h1v1H3z"/><path fill="#C8C7C5" d="M4 35h1v1H4zM5 35h1v1H5zM6 35h1v1H6zM7 35h1v1H7zM8 35h1v1H8zM9 35h1v1H9zM10 35h1v1h-1zM11 35h1v1h-1zM12 35h1v1h-1zM13 35h1v1h-1zM14 35h1v1h-1zM15 35h1v1h-1zM16 35h1v1h-1z"/><path fill="#C5C4C2" d="M17 35h1v1h-1z"/><path fill="#9C9698" d="M18 35h1v1h-1zM19 35h1v1h-1zM20 35h1v1h-1zM21 35h1v1h-1zM22 35h1v1h-1z"/><path fill="#6B6768" d="M23 35h1v1h-1z"/><path fill="#5B5758" d="M24 35h1v1h-1zM25 35h1v1h-1z"/><path fill="#C99539" d="M26 35h1v1h-1z"/><path fill="#EEAA2E" d="M27 35h1v1h-1z"/><path fill="#927648" d="M28 35h1v1h-1z"/><path fill="#5B5758" d="M29 35h1v1h-1zM30 35h1v1h-1z"/><path fill="#5F5B5C" d="M31 35h1v1h-1z"/><path fill="#888284" d="M32 35h1v1h-1z"/><path fill="#9C9698" d="M33 35h1v1h-1zM34 35h1v1h-1zM35 35h1v1h-1zM36 35h1v1h-1z"/><path fill="#847E80" d="M37 35h1v1h-1z"/><path fill="#635F60" d="M38 35h1v1h-1z"/><path fill="#5B5758" d="M39 35h1v1h-1zM40 35h1v1h-1zM41 35h1v1h-1z"/><path fill="#A2894D" d="M42 35h1v1h-1z"/><path fill="#E8BA41" d="M43 35h1v1h-1zM44 35h1v1h-1zM45 35h1v1h-1zM46 35h1v1h-1zM47 35h1v1h-1zM48 35h1v1h-1zM49 35h1v1h-1z"/><path fill="#B79236" d="M50 35h1v1h-1z"/><path fill="#231815" d="M51 35h1v1h-1zM52 35h1v1h-1zM53 35h1v1h-1zM54 35h1v1h-1zM0 36h1v1H0zM1 36h1v1H1zM2 36h1v1H2z"/><path fill="#76706D" d="M3 36h1v1H3z"/><path fill="#C8C7C5" d="M4 36h1v1H4zM5 36h1v1H5zM6 36h1v1H6zM7 36h1v1H7zM8 36h1v1H8zM9 36h1v1H9zM10 36h1v1h-1zM11 36h1v1h-1zM12 36h1v1h-1zM13 36h1v1h-1zM14 36h1v1h-1zM15 36h1v1h-1zM16 36h1v1h-1zM17 36h1v1h-1z"/><path fill="#9C9698" d="M18 36h1v1h-1zM19 36h1v1h-1zM20 36h1v1h-1zM21 36h1v1h-1zM22 36h1v1h-1z"/><path fill="#6B6768" d="M23 36h1v1h-1z"/><path fill="#5B5758" d="M24 36h1v1h-1zM25 36h1v1h-1z"/><path fill="#C99539" d="M26 36h1v1h-1z"/><path fill="#EEAA2E" d="M27 36h1v1h-1z"/><path fill="#E5A531" d="M28 36h1v1h-1z"/><path fill="#645C55" d="M29 36h1v1h-1z"/><path fill="#5B5758" d="M30 36h1v1h-1zM31 36h1v1h-1zM32 36h1v1h-1z"/><path fill="#676364" d="M33 36h1v1h-1z"/><path fill="#736F70" d="M34 36h1v1h-1z"/><path fill="#6B6768" d="M35 36h1v1h-1z"/><path fill="#5F5B5C" d="M36 36h1v1h-1z"/><path fill="#5B5758" d="M37 36h1v1h-1zM38 36h1v1h-1zM39 36h1v1h-1zM40 36h1v1h-1z"/><path fill="#907C4F" d="M41 36h1v1h-1z"/><path fill="#E8BA41" d="M42 36h1v1h-1zM43 36h1v1h-1zM44 36h1v1h-1zM45 36h1v1h-1zM46 36h1v1h-1zM47 36h1v1h-1zM48 36h1v1h-1zM49 36h1v1h-1zM50 36h1v1h-1z"/><path fill="#6E5626" d="M51 36h1v1h-1z"/><path fill="#231815" d="M52 36h1v1h-1zM53 36h1v1h-1zM54 36h1v1h-1zM0 37h1v1H0zM1 37h1v1H1zM2 37h1v1H2z"/><path fill="#76706D" d="M3 37h1v1H3z"/><path fill="#C8C7C5" d="M4 37h1v1H4zM5 37h1v1H5zM6 37h1v1H6zM7 37h1v1H7zM8 37h1v1H8zM9 37h1v1H9zM10 37h1v1h-1zM11 37h1v1h-1zM12 37h1v1h-1zM13 37h1v1h-1zM14 37h1v1h-1zM15 37h1v1h-1zM16 37h1v1h-1zM17 37h1v1h-1z"/><path fill="#9C9698" d="M18 37h1v1h-1zM19 37h1v1h-1zM20 37h1v1h-1zM21 37h1v1h-1zM22 37h1v1h-1z"/><path fill="#6B6768" d="M23 37h1v1h-1z"/><path fill="#5B5758" d="M24 37h1v1h-1zM25 37h1v1h-1z"/><path fill="#C99539" d="M26 37h1v1h-1z"/><path fill="#EEAA2E" d="M27 37h1v1h-1zM28 37h1v1h-1z"/><path fill="#D29A36" d="M29 37h1v1h-1z"/><path fill="#645C55" d="M30 37h1v1h-1z"/><path fill="#5B5758" d="M31 37h1v1h-1zM32 37h1v1h-1zM33 37h1v1h-1zM34 37h1v1h-1zM35 37h1v1h-1zM36 37h1v1h-1zM37 37h1v1h-1zM38 37h1v1h-1z"/><path fill="#645D57" d="M39 37h1v1h-1z"/><path fill="#AA8F4B" d="M40 37h1v1h-1z"/><path fill="#E8BA41" d="M41 37h1v1h-1zM42 37h1v1h-1zM43 37h1v1h-1zM44 37h1v1h-1zM45 37h1v1h-1zM46 37h1v1h-1zM47 37h1v1h-1zM48 37h1v1h-1zM49 37h1v1h-1z"/><path fill="#EABE44" d="M50 37h1v1h-1z"/><path fill="#A58A39" d="M51 37h1v1h-1z"/><path fill="#231815" d="M52 37h1v1h-1zM53 37h1v1h-1zM54 37h1v1h-1zM0 38h1v1H0zM1 38h1v1H1zM2 38h1v1H2z"/><path fill="#76706D" d="M3 38h1v1H3z"/><path fill="#C8C7C5" d="M4 38h1v1H4zM5 38h1v1H5zM6 38h1v1H6zM7 38h1v1H7zM8 38h1v1H8z"/><path fill="#CECBB9" d="M9 38h1v1H9z"/><path fill="#DFD894" d="M10 38h1v1h-1zM11 38h1v1h-1z"/><path fill="#CBC9BF" d="M12 38h1v1h-1z"/><path fill="#C8C7C5" d="M13 38h1v1h-1zM14 38h1v1h-1zM15 38h1v1h-1zM16 38h1v1h-1zM17 38h1v1h-1z"/><path fill="#9C9698" d="M18 38h1v1h-1zM19 38h1v1h-1zM20 38h1v1h-1zM21 38h1v1h-1zM22 38h1v1h-1z"/><path fill="#6B6768" d="M23 38h1v1h-1z"/><path fill="#5B5758" d="M24 38h1v1h-1zM25 38h1v1h-1z"/><path fill="#C99539" d="M26 38h1v1h-1z"/><path fill="#EEAA2E" d="M27 38h1v1h-1zM28 38h1v1h-1zM29 38h1v1h-1z"/><path fill="#DCA033" d="M30 38h1v1h-1z"/><path fill="#806C4E" d="M31 38h1v1h-1z"/><path fill="#5B5758" d="M32 38h1v1h-1zM33 38h1v1h-1zM34 38h1v1h-1zM35 38h1v1h-1zM36 38h1v1h-1z"/><path fill="#645C55" d="M37 38h1v1h-1z"/><path fill="#91784B" d="M38 38h1v1h-1z"/><path fill="#D6AE44" d="M39 38h1v1h-1z"/><path fill="#E8BA41" d="M40 38h1v1h-1zM41 38h1v1h-1zM42 38h1v1h-1zM43 38h1v1h-1zM44 38h1v1h-1zM45 38h1v1h-1zM46 38h1v1h-1zM47 38h1v1h-1zM48 38h1v1h-1z"/><path fill="#EABE44" d="M49 38h1v1h-1z"/><path fill="#F3CF4F" d="M50 38h1v1h-1z"/><path fill="#C0A241" d="M51 38h1v1h-1z"/><path fill="#231815" d="M52 38h1v1h-1zM53 38h1v1h-1zM54 38h1v1h-1zM0 39h1v1H0zM1 39h1v1H1zM2 39h1v1H2z"/><path fill="#76706D" d="M3 39h1v1H3z"/><path fill="#C8C7C5" d="M4 39h1v1H4zM5 39h1v1H5zM6 39h1v1H6zM7 39h1v1H7zM8 39h1v1H8z"/><path fill="#EBE07B" d="M9 39h1v1H9z"/><path fill="#F6E862" d="M10 39h1v1h-1zM11 39h1v1h-1z"/><path fill="#F3E668" d="M12 39h1v1h-1z"/><path fill="#CECBB9" d="M13 39h1v1h-1z"/><path fill="#C8C7C5" d="M14 39h1v1h-1zM15 39h1v1h-1zM16 39h1v1h-1zM17 39h1v1h-1z"/><path fill="#9C9698" d="M18 39h1v1h-1zM19 39h1v1h-1zM20 39h1v1h-1zM21 39h1v1h-1zM22 39h1v1h-1z"/><path fill="#6B6768" d="M23 39h1v1h-1z"/><path fill="#5B5758" d="M24 39h1v1h-1zM25 39h1v1h-1z"/><path fill="#C99539" d="M26 39h1v1h-1z"/><path fill="#EEAA2E" d="M27 39h1v1h-1zM28 39h1v1h-1zM29 39h1v1h-1zM30 39h1v1h-1zM31 39h1v1h-1z"/><path fill="#DCA033" d="M32 39h1v1h-1z"/><path fill="#C99539" d="M33 39h1v1h-1z"/><path fill="#A58143" d="M34 39h1v1h-1z"/><path fill="#C99539" d="M35 39h1v1h-1z"/><path fill="#D29A36" d="M36 39h1v1h-1z"/><path fill="#EEAA2E" d="M37 39h1v1h-1z"/><path fill="#EBB339" d="M38 39h1v1h-1z"/><path fill="#E8BA41" d="M39 39h1v1h-1zM40 39h1v1h-1zM41 39h1v1h-1zM42 39h1v1h-1zM43 39h1v1h-1zM44 39h1v1h-1zM45 39h1v1h-1zM46 39h1v1h-1zM47 39h1v1h-1z"/><path fill="#EABE44" d="M48 39h1v1h-1z"/><path fill="#F3CF4F" d="M49 39h1v1h-1z"/><path fill="#F4D050" d="M50 39h1v1h-1z"/><path fill="#C0A241" d="M51 39h1v1h-1z"/><path fill="#231815" d="M52 39h1v1h-1zM53 39h1v1h-1zM54 39h1v1h-1zM0 40h1v1H0zM1 40h1v1H1zM2 40h1v1H2z"/><path fill="#76706D" d="M3 40h1v1H3z"/><path fill="#C8C7C5" d="M4 40h1v1H4zM5 40h1v1H5zM6 40h1v1H6zM7 40h1v1H7zM8 40h1v1H8z"/><path fill="#F6E862" d="M9 40h1v1H9zM10 40h1v1h-1zM11 40h1v1h-1zM12 40h1v1h-1z"/><path fill="#E2DA8D" d="M13 40h1v1h-1z"/><path fill="#C8C7C5" d="M14 40h1v1h-1zM15 40h1v1h-1zM16 40h1v1h-1zM17 40h1v1h-1z"/><path fill="#9C9698" d="M18 40h1v1h-1zM19 40h1v1h-1zM20 40h1v1h-1zM21 40h1v1h-1zM22 40h1v1h-1z"/><path fill="#6B6768" d="M23 40h1v1h-1z"/><path fill="#5B5758" d="M24 40h1v1h-1zM25 40h1v1h-1z"/><path fill="#C99539" d="M26 40h1v1h-1z"/><path fill="#EEAA2E" d="M27 40h1v1h-1zM28 40h1v1h-1zM29 40h1v1h-1zM30 40h1v1h-1zM31 40h1v1h-1zM32 40h1v1h-1zM33 40h1v1h-1zM34 40h1v1h-1zM35 40h1v1h-1zM36 40h1v1h-1z"/><path fill="#EEAB2F" d="M37 40h1v1h-1z"/><path fill="#E8B940" d="M38 40h1v1h-1z"/><path fill="#E8BA41" d="M39 40h1v1h-1zM40 40h1v1h-1zM41 40h1v1h-1zM42 40h1v1h-1zM43 40h1v1h-1zM44 40h1v1h-1zM45 40h1v1h-1zM46 40h1v1h-1z"/><path fill="#EDC247" d="M47 40h1v1h-1z"/><path fill="#F3CF4F" d="M48 40h1v1h-1z"/><path fill="#F4D050" d="M49 40h1v1h-1zM50 40h1v1h-1z"/><path fill="#C0A241" d="M51 40h1v1h-1z"/><path fill="#231815" d="M52 40h1v1h-1zM53 40h1v1h-1zM54 40h1v1h-1zM0 41h1v1H0zM1 41h1v1H1zM2 41h1v1H2z"/><path fill="#76706D" d="M3 41h1v1H3z"/><path fill="#C8C7C5" d="M4 41h1v1H4zM5 41h1v1H5zM6 41h1v1H6zM7 41h1v1H7zM8 41h1v1H8z"/><path fill="#F6E862" d="M9 41h1v1H9zM10 41h1v1h-1zM11 41h1v1h-1zM12 41h1v1h-1z"/><path fill="#EBE07B" d="M13 41h1v1h-1z"/><path fill="#C8C7C5" d="M14 41h1v1h-1zM15 41h1v1h-1zM16 41h1v1h-1zM17 41h1v1h-1z"/><path fill="#9C9698" d="M18 41h1v1h-1zM19 41h1v1h-1zM20 41h1v1h-1zM21 41h1v1h-1zM22 41h1v1h-1z"/><path fill="#6B6768" d="M23 41h1v1h-1z"/><path fill="#5B5758" d="M24 41h1v1h-1zM25 41h1v1h-1z"/><path fill="#C99539" d="M26 41h1v1h-1z"/><path fill="#EEAA2E" d="M27 41h1v1h-1zM28 41h1v1h-1zM29 41h1v1h-1zM30 41h1v1h-1zM31 41h1v1h-1zM32 41h1v1h-1zM33 41h1v1h-1zM34 41h1v1h-1zM35 41h1v1h-1zM36 41h1v1h-1z"/><path fill="#EBB339" d="M37 41h1v1h-1z"/><path fill="#E8BA41" d="M38 41h1v1h-1zM39 41h1v1h-1zM40 41h1v1h-1zM41 41h1v1h-1zM42 41h1v1h-1zM43 41h1v1h-1zM44 41h1v1h-1z"/><path fill="#E9BB42" d="M45 41h1v1h-1z"/><path fill="#EFC649" d="M46 41h1v1h-1z"/><path fill="#F4D050" d="M47 41h1v1h-1zM48 41h1v1h-1zM49 41h1v1h-1zM50 41h1v1h-1z"/><path fill="#C0A241" d="M51 41h1v1h-1z"/><path fill="#231815" d="M52 41h1v1h-1zM53 41h1v1h-1zM54 41h1v1h-1zM0 42h1v1H0zM1 42h1v1H1zM2 42h1v1H2z"/><path fill="#76706D" d="M3 42h1v1H3z"/><path fill="#C8C7C5" d="M4 42h1v1H4zM5 42h1v1H5zM6 42h1v1H6zM7 42h1v1H7zM8 42h1v1H8z"/><path fill="#F6E862" d="M9 42h1v1H9zM10 42h1v1h-1zM11 42h1v1h-1zM12 42h1v1h-1z"/><path fill="#EBE07B" d="M13 42h1v1h-1z"/><path fill="#C8C7C5" d="M14 42h1v1h-1zM15 42h1v1h-1zM16 42h1v1h-1zM17 42h1v1h-1z"/><path fill="#9C9698" d="M18 42h1v1h-1zM19 42h1v1h-1zM20 42h1v1h-1zM21 42h1v1h-1zM22 42h1v1h-1z"/><path fill="#6B6768" d="M23 42h1v1h-1z"/><path fill="#5B5758" d="M24 42h1v1h-1zM25 42h1v1h-1z"/><path fill="#C99539" d="M26 42h1v1h-1z"/><path fill="#EEAA2E" d="M27 42h1v1h-1zM28 42h1v1h-1zM29 42h1v1h-1zM30 42h1v1h-1zM31 42h1v1h-1zM32 42h1v1h-1zM33 42h1v1h-1zM34 42h1v1h-1zM35 42h1v1h-1z"/><path fill="#EDAD32" d="M36 42h1v1h-1z"/><path fill="#E8BA41" d="M37 42h1v1h-1zM38 42h1v1h-1zM39 42h1v1h-1zM40 42h1v1h-1zM41 42h1v1h-1zM42 42h1v1h-1zM43 42h1v1h-1z"/><path fill="#EABE44" d="M44 42h1v1h-1z"/><path fill="#F2CC4D" d="M45 42h1v1h-1z"/><path fill="#F4D050" d="M46 42h1v1h-1zM47 42h1v1h-1zM48 42h1v1h-1zM49 42h1v1h-1zM50 42h1v1h-1z"/><path fill="#C0A241" d="M51 42h1v1h-1z"/><path fill="#231815" d="M52 42h1v1h-1zM53 42h1v1h-1zM54 42h1v1h-1zM0 43h1v1H0zM1 43h1v1H1zM2 43h1v1H2z"/><path fill="#76706D" d="M3 43h1v1H3z"/><path fill="#C8C7C5" d="M4 43h1v1H4zM5 43h1v1H5zM6 43h1v1H6zM7 43h1v1H7zM8 43h1v1H8z"/><path fill="#F3DF5C" d="M9 43h1v1H9z"/><path fill="#F6E862" d="M10 43h1v1h-1zM11 43h1v1h-1zM12 43h1v1h-1z"/><path fill="#EBE07B" d="M13 43h1v1h-1z"/><path fill="#C8C7C5" d="M14 43h1v1h-1zM15 43h1v1h-1zM16 43h1v1h-1zM17 43h1v1h-1z"/><path fill="#9C9698" d="M18 43h1v1h-1zM19 43h1v1h-1zM20 43h1v1h-1zM21 43h1v1h-1zM22 43h1v1h-1z"/><path fill="#6B6768" d="M23 43h1v1h-1z"/><path fill="#5B5758" d="M24 43h1v1h-1zM25 43h1v1h-1z"/><path fill="#C99539" d="M26 43h1v1h-1z"/><path fill="#EEAA2E" d="M27 43h1v1h-1zM28 43h1v1h-1zM29 43h1v1h-1zM30 43h1v1h-1zM31 43h1v1h-1zM32 43h1v1h-1zM33 43h1v1h-1zM34 43h1v1h-1zM35 43h1v1h-1z"/><path fill="#EAB63C" d="M36 43h1v1h-1z"/><path fill="#E8BA41" d="M37 43h1v1h-1zM38 43h1v1h-1zM39 43h1v1h-1zM40 43h1v1h-1zM41 43h1v1h-1z"/><path fill="#E9BB42" d="M42 43h1v1h-1z"/><path fill="#EFC649" d="M43 43h1v1h-1z"/><path fill="#F4D050" d="M44 43h1v1h-1zM45 43h1v1h-1zM46 43h1v1h-1zM47 43h1v1h-1zM48 43h1v1h-1zM49 43h1v1h-1zM50 43h1v1h-1z"/><path fill="#C0A241" d="M51 43h1v1h-1z"/><path fill="#231815" d="M52 43h1v1h-1zM53 43h1v1h-1zM54 43h1v1h-1zM0 44h1v1H0zM1 44h1v1H1zM2 44h1v1H2z"/><path fill="#76706D" d="M3 44h1v1H3z"/><path fill="#C8C7C5" d="M4 44h1v1H4zM5 44h1v1H5zM6 44h1v1H6zM7 44h1v1H7zM8 44h1v1H8z"/><path fill="#EBC347" d="M9 44h1v1H9z"/><path fill="#F5E560" d="M10 44h1v1h-1z"/><path fill="#F6E862" d="M11 44h1v1h-1zM12 44h1v1h-1z"/><path fill="#E6D170" d="M13 44h1v1h-1z"/><path fill="#C8C7C5" d="M14 44h1v1h-1zM15 44h1v1h-1zM16 44h1v1h-1zM17 44h1v1h-1z"/><path fill="#9C9698" d="M18 44h1v1h-1zM19 44h1v1h-1zM20 44h1v1h-1zM21 44h1v1h-1zM22 44h1v1h-1z"/><path fill="#6B6768" d="M23 44h1v1h-1z"/><path fill="#5B5758" d="M24 44h1v1h-1zM25 44h1v1h-1z"/><path fill="#C99539" d="M26 44h1v1h-1z"/><path fill="#EEAA2E" d="M27 44h1v1h-1zM28 44h1v1h-1zM29 44h1v1h-1zM30 44h1v1h-1zM31 44h1v1h-1zM32 44h1v1h-1zM33 44h1v1h-1zM34 44h1v1h-1z"/><path fill="#EBB136" d="M35 44h1v1h-1z"/><path fill="#E8BA41" d="M36 44h1v1h-1zM37 44h1v1h-1zM38 44h1v1h-1zM39 44h1v1h-1zM40 44h1v1h-1z"/><path fill="#EDC448" d="M41 44h1v1h-1z"/><path fill="#F3CF4F" d="M42 44h1v1h-1z"/><path fill="#F4D050" d="M43 44h1v1h-1zM44 44h1v1h-1zM45 44h1v1h-1zM46 44h1v1h-1zM47 44h1v1h-1zM48 44h1v1h-1zM49 44h1v1h-1zM50 44h1v1h-1z"/><path fill="#C0A241" d="M51 44h1v1h-1z"/><path fill="#231815" d="M52 44h1v1h-1zM53 44h1v1h-1zM54 44h1v1h-1zM0 45h1v1H0zM1 45h1v1H1zM2 45h1v1H2z"/><path fill="#76706D" d="M3 45h1v1H3z"/><path fill="#C8C7C5" d="M4 45h1v1H4zM5 45h1v1H5zM6 45h1v1H6zM7 45h1v1H7zM8 45h1v1H8z"/><path fill="#E8BA41" d="M9 45h1v1H9z"/><path fill="#EAC045" d="M10 45h1v1h-1z"/><path fill="#EDCB4D" d="M11 45h1v1h-1z"/><path fill="#ECC84B" d="M12 45h1v1h-1z"/><path fill="#E0BD62" d="M13 45h1v1h-1z"/><path fill="#C8C7C5" d="M14 45h1v1h-1zM15 45h1v1h-1zM16 45h1v1h-1zM17 45h1v1h-1z"/><path fill="#9C9698" d="M18 45h1v1h-1zM19 45h1v1h-1zM20 45h1v1h-1zM21 45h1v1h-1zM22 45h1v1h-1z"/><path fill="#6B6768" d="M23 45h1v1h-1z"/><path fill="#5B5758" d="M24 45h1v1h-1zM25 45h1v1h-1z"/><path fill="#C99539" d="M26 45h1v1h-1z"/><path fill="#EEAA2E" d="M27 45h1v1h-1zM28 45h1v1h-1zM29 45h1v1h-1zM30 45h1v1h-1zM31 45h1v1h-1zM32 45h1v1h-1zM33 45h1v1h-1z"/><path fill="#EDAD32" d="M34 45h1v1h-1z"/><path fill="#E8BA41" d="M35 45h1v1h-1zM36 45h1v1h-1zM37 45h1v1h-1zM38 45h1v1h-1z"/><path fill="#EDC247" d="M39 45h1v1h-1z"/><path fill="#F3CD4E" d="M40 45h1v1h-1z"/><path fill="#F4D050" d="M41 45h1v1h-1zM42 45h1v1h-1zM43 45h1v1h-1zM44 45h1v1h-1zM45 45h1v1h-1zM46 45h1v1h-1zM47 45h1v1h-1zM48 45h1v1h-1zM49 45h1v1h-1zM50 45h1v1h-1z"/><path fill="#C0A241" d="M51 45h1v1h-1z"/><path fill="#231815" d="M52 45h1v1h-1zM53 45h1v1h-1zM54 45h1v1h-1zM0 46h1v1H0zM1 46h1v1H1zM2 46h1v1H2z"/><path fill="#4C4441" d="M3 46h1v1H3z"/><path fill="#C8C7C5" d="M4 46h1v1H4zM5 46h1v1H5zM6 46h1v1H6zM7 46h1v1H7zM8 46h1v1H8z"/><path fill="#E4BC52" d="M9 46h1v1H9z"/><path fill="#E8BA41" d="M10 46h1v1h-1zM11 46h1v1h-1zM12 46h1v1h-1z"/><path fill="#E0BD62" d="M13 46h1v1h-1z"/><path fill="#C8C7C5" d="M14 46h1v1h-1zM15 46h1v1h-1zM16 46h1v1h-1zM17 46h1v1h-1z"/><path fill="#9C9698" d="M18 46h1v1h-1zM19 46h1v1h-1zM20 46h1v1h-1zM21 46h1v1h-1zM22 46h1v1h-1z"/><path fill="#6B6768" d="M23 46h1v1h-1z"/><path fill="#5B5758" d="M24 46h1v1h-1zM25 46h1v1h-1z"/><path fill="#C99539" d="M26 46h1v1h-1z"/><path fill="#EEAA2E" d="M27 46h1v1h-1zM28 46h1v1h-1zM29 46h1v1h-1zM30 46h1v1h-1zM31 46h1v1h-1zM32 46h1v1h-1z"/><path fill="#EEAB2F" d="M33 46h1v1h-1z"/><path fill="#E9B83F" d="M34 46h1v1h-1z"/><path fill="#E8BA41" d="M35 46h1v1h-1z"/><path fill="#EAC045" d="M36 46h1v1h-1z"/><path fill="#EFD152" d="M37 46h1v1h-1z"/><path fill="#F3D252" d="M38 46h1v1h-1z"/><path fill="#F4D050" d="M39 46h1v1h-1zM40 46h1v1h-1zM41 46h1v1h-1zM42 46h1v1h-1zM43 46h1v1h-1zM44 46h1v1h-1zM45 46h1v1h-1zM46 46h1v1h-1zM47 46h1v1h-1zM48 46h1v1h-1zM49 46h1v1h-1zM50 46h1v1h-1z"/><path fill="#C0A241" d="M51 46h1v1h-1z"/><path fill="#231815" d="M52 46h1v1h-1zM53 46h1v1h-1zM54 46h1v1h-1zM0 47h1v1H0zM1 47h1v1H1zM2 47h1v1H2z"/><path fill="#4C4441" d="M3 47h1v1H3z"/><path fill="#C8C7C5" d="M4 47h1v1H4zM5 47h1v1H5zM6 47h1v1H6zM7 47h1v1H7zM8 47h1v1H8z"/><path fill="#D2C39C" d="M9 47h1v1H9z"/><path fill="#E8BA41" d="M10 47h1v1h-1zM11 47h1v1h-1zM12 47h1v1h-1z"/><path fill="#D8C183" d="M13 47h1v1h-1z"/><path fill="#C8C7C5" d="M14 47h1v1h-1zM15 47h1v1h-1zM16 47h1v1h-1zM17 47h1v1h-1z"/><path fill="#9C9698" d="M18 47h1v1h-1zM19 47h1v1h-1zM20 47h1v1h-1zM21 47h1v1h-1zM22 47h1v1h-1z"/><path fill="#6B6768" d="M23 47h1v1h-1z"/><path fill="#5B5758" d="M24 47h1v1h-1zM25 47h1v1h-1z"/><path fill="#C99539" d="M26 47h1v1h-1z"/><path fill="#EEAA2E" d="M27 47h1v1h-1zM28 47h1v1h-1zM29 47h1v1h-1zM30 47h1v1h-1zM31 47h1v1h-1zM32 47h1v1h-1z"/><path fill="#EAB93E" d="M33 47h1v1h-1z"/><path fill="#EDCB4D" d="M34 47h1v1h-1z"/><path fill="#F2DA58" d="M35 47h1v1h-1z"/><path fill="#F6E862" d="M36 47h1v1h-1zM37 47h1v1h-1z"/><path fill="#F5D655" d="M38 47h1v1h-1z"/><path fill="#F4D050" d="M39 47h1v1h-1zM40 47h1v1h-1zM41 47h1v1h-1zM42 47h1v1h-1zM43 47h1v1h-1zM44 47h1v1h-1zM45 47h1v1h-1zM46 47h1v1h-1zM47 47h1v1h-1zM48 47h1v1h-1zM49 47h1v1h-1zM50 47h1v1h-1z"/><path fill="#C0A241" d="M51 47h1v1h-1z"/><path fill="#231815" d="M52 47h1v1h-1zM53 47h1v1h-1zM54 47h1v1h-1zM0 48h1v1H0zM1 48h1v1H1zM2 48h1v1H2z"/><path fill="#4C4441" d="M3 48h1v1H3z"/><path fill="#C8C7C5" d="M4 48h1v1H4zM5 48h1v1H5zM6 48h1v1H6zM7 48h1v1H7zM8 48h1v1H8zM9 48h1v1H9z"/><path fill="#CCC5B5" d="M10 48h1v1h-1z"/><path fill="#D8C183" d="M11 48h1v1h-1z"/><path fill="#D4C294" d="M12 48h1v1h-1z"/><path fill="#C8C7C5" d="M13 48h1v1h-1zM14 48h1v1h-1zM15 48h1v1h-1zM16 48h1v1h-1zM17 48h1v1h-1z"/><path fill="#9C9698" d="M18 48h1v1h-1zM19 48h1v1h-1zM20 48h1v1h-1zM21 48h1v1h-1zM22 48h1v1h-1z"/><path fill="#6B6768" d="M23 48h1v1h-1z"/><path fill="#5B5758" d="M24 48h1v1h-1zM25 48h1v1h-1z"/><path fill="#C99539" d="M26 48h1v1h-1z"/><path fill="#EEAA2E" d="M27 48h1v1h-1zM28 48h1v1h-1z"/><path fill="#F0B437" d="M29 48h1v1h-1zM30 48h1v1h-1z"/><path fill="#F1BB3D" d="M31 48h1v1h-1z"/><path fill="#F3D04F" d="M32 48h1v1h-1z"/><path fill="#F6E862" d="M33 48h1v1h-1zM34 48h1v1h-1zM35 48h1v1h-1zM36 48h1v1h-1zM37 48h1v1h-1z"/><path fill="#F5D655" d="M38 48h1v1h-1z"/><path fill="#F4D050" d="M39 48h1v1h-1zM40 48h1v1h-1zM41 48h1v1h-1zM42 48h1v1h-1zM43 48h1v1h-1zM44 48h1v1h-1zM45 48h1v1h-1zM46 48h1v1h-1zM47 48h1v1h-1zM48 48h1v1h-1zM49 48h1v1h-1zM50 48h1v1h-1z"/><path fill="#C0A241" d="M51 48h1v1h-1z"/><path fill="#231815" d="M52 48h1v1h-1zM53 48h1v1h-1zM54 48h1v1h-1zM0 49h1v1H0zM1 49h1v1H1zM2 49h1v1H2zM3 49h1v1H3z"/><path fill="#7D7979" d="M4 49h1v1H4z"/><path fill="#BAB9B7" d="M5 49h1v1H5z"/><path fill="#C8C7C5" d="M6 49h1v1H6zM7 49h1v1H7zM8 49h1v1H8zM9 49h1v1H9zM10 49h1v1h-1zM11 49h1v1h-1zM12 49h1v1h-1zM13 49h1v1h-1zM14 49h1v1h-1zM15 49h1v1h-1zM16 49h1v1h-1zM17 49h1v1h-1z"/><path fill="#9C9698" d="M18 49h1v1h-1zM19 49h1v1h-1zM20 49h1v1h-1zM21 49h1v1h-1zM22 49h1v1h-1z"/><path fill="#6B6768" d="M23 49h1v1h-1z"/><path fill="#5B5758" d="M24 49h1v1h-1zM25 49h1v1h-1z"/><path fill="#CEB252" d="M26 49h1v1h-1z"/><path fill="#F4D050" d="M27 49h1v1h-1zM28 49h1v1h-1zM29 49h1v1h-1zM30 49h1v1h-1z"/><path fill="#F5DF5B" d="M31 49h1v1h-1z"/><path fill="#F6E862" d="M32 49h1v1h-1zM33 49h1v1h-1zM34 49h1v1h-1zM35 49h1v1h-1zM36 49h1v1h-1zM37 49h1v1h-1z"/><path fill="#F5D655" d="M38 49h1v1h-1z"/><path fill="#F4D050" d="M39 49h1v1h-1zM40 49h1v1h-1zM41 49h1v1h-1zM42 49h1v1h-1zM43 49h1v1h-1zM44 49h1v1h-1zM45 49h1v1h-1zM46 49h1v1h-1zM47 49h1v1h-1zM48 49h1v1h-1zM49 49h1v1h-1zM50 49h1v1h-1z"/><path fill="#C0A241" d="M51 49h1v1h-1z"/><path fill="#231815" d="M52 49h1v1h-1zM53 49h1v1h-1zM54 49h1v1h-1zM0 50h1v1H0zM1 50h1v1H1zM2 50h1v1H2zM3 50h1v1H3z"/><path fill="#4D4747" d="M4 50h1v1H4z"/><path fill="#5B5758" d="M5 50h1v1H5z"/><path fill="#7D7A7A" d="M6 50h1v1H6z"/><path fill="#A6A4A3" d="M7 50h1v1H7z"/><path fill="#C8C7C5" d="M8 50h1v1H8zM9 50h1v1H9zM10 50h1v1h-1zM11 50h1v1h-1zM12 50h1v1h-1zM13 50h1v1h-1zM14 50h1v1h-1zM15 50h1v1h-1zM16 50h1v1h-1zM17 50h1v1h-1z"/><path fill="#9C9698" d="M18 50h1v1h-1zM19 50h1v1h-1zM20 50h1v1h-1zM21 50h1v1h-1zM22 50h1v1h-1z"/><path fill="#6B6768" d="M23 50h1v1h-1z"/><path fill="#5B5758" d="M24 50h1v1h-1zM25 50h1v1h-1z"/><path fill="#CEB252" d="M26 50h1v1h-1z"/><path fill="#F4D050" d="M27 50h1v1h-1zM28 50h1v1h-1zM29 50h1v1h-1z"/><path fill="#F5DB58" d="M30 50h1v1h-1z"/><path fill="#F6E862" d="M31 50h1v1h-1zM32 50h1v1h-1zM33 50h1v1h-1zM34 50h1v1h-1zM35 50h1v1h-1zM36 50h1v1h-1zM37 50h1v1h-1z"/><path fill="#F5D655" d="M38 50h1v1h-1z"/><path fill="#F4D050" d="M39 50h1v1h-1zM40 50h1v1h-1zM41 50h1v1h-1zM42 50h1v1h-1zM43 50h1v1h-1zM44 50h1v1h-1zM45 50h1v1h-1zM46 50h1v1h-1zM47 50h1v1h-1zM48 50h1v1h-1zM49 50h1v1h-1zM50 50h1v1h-1z"/><path fill="#C0A241" d="M51 50h1v1h-1z"/><path fill="#231815" d="M52 50h1v1h-1zM53 50h1v1h-1zM54 50h1v1h-1zM1 51h1v1H1zM2 51h1v1H2zM3 51h1v1H3z"/><path fill="#4D4747" d="M4 51h1v1H4z"/><path fill="#5B5758" d="M5 51h1v1H5zM6 51h1v1H6zM7 51h1v1H7z"/><path fill="#696566" d="M8 51h1v1H8z"/><path fill="#928F8F" d="M9 51h1v1H9z"/><path fill="#BAB9B7" d="M10 51h1v1h-1z"/><path fill="#C8C7C5" d="M11 51h1v1h-1zM12 51h1v1h-1zM13 51h1v1h-1zM14 51h1v1h-1zM15 51h1v1h-1zM16 51h1v1h-1zM17 51h1v1h-1z"/><path fill="#9C9698" d="M18 51h1v1h-1zM19 51h1v1h-1zM20 51h1v1h-1zM21 51h1v1h-1z"/><path fill="#989294" d="M22 51h1v1h-1z"/><path fill="#635F60" d="M23 51h1v1h-1z"/><path fill="#5B5758" d="M24 51h1v1h-1zM25 51h1v1h-1z"/><path fill="#CEB252" d="M26 51h1v1h-1z"/><path fill="#F4D050" d="M27 51h1v1h-1zM28 51h1v1h-1z"/><path fill="#F5DF5B" d="M29 51h1v1h-1z"/><path fill="#F6E862" d="M30 51h1v1h-1zM31 51h1v1h-1zM32 51h1v1h-1zM33 51h1v1h-1zM34 51h1v1h-1zM35 51h1v1h-1zM36 51h1v1h-1zM37 51h1v1h-1z"/><path fill="#F5D655" d="M38 51h1v1h-1z"/><path fill="#F4D050" d="M39 51h1v1h-1zM40 51h1v1h-1zM41 51h1v1h-1zM42 51h1v1h-1zM43 51h1v1h-1zM44 51h1v1h-1zM45 51h1v1h-1zM46 51h1v1h-1zM47 51h1v1h-1zM48 51h1v1h-1zM49 51h1v1h-1zM50 51h1v1h-1z"/><path fill="#C0A241" d="M51 51h1v1h-1z"/><path fill="#231815" d="M52 51h1v1h-1zM53 51h1v1h-1zM54 51h1v1h-1zM1 52h1v1H1zM2 52h1v1H2zM3 52h1v1H3z"/><path fill="#605949" d="M4 52h1v1H4z"/><path fill="#5B5758" d="M5 52h1v1H5zM6 52h1v1H6zM7 52h1v1H7zM8 52h1v1H8zM9 52h1v1H9zM10 52h1v1h-1z"/><path fill="#6F6C6C" d="M11 52h1v1h-1z"/><path fill="#989695" d="M12 52h1v1h-1z"/><path fill="#BAB9B7" d="M13 52h1v1h-1z"/><path fill="#C8C7C5" d="M14 52h1v1h-1zM15 52h1v1h-1zM16 52h1v1h-1zM17 52h1v1h-1z"/><path fill="#9C9698" d="M18 52h1v1h-1zM19 52h1v1h-1zM20 52h1v1h-1z"/><path fill="#8C8688" d="M21 52h1v1h-1z"/><path fill="#676364" d="M22 52h1v1h-1z"/><path fill="#5B5758" d="M23 52h1v1h-1zM24 52h1v1h-1zM25 52h1v1h-1z"/><path fill="#EAC851" d="M26 52h1v1h-1z"/><path fill="#F4D050" d="M27 52h1v1h-1z"/><path fill="#F5DF5B" d="M28 52h1v1h-1z"/><path fill="#F6E862" d="M29 52h1v1h-1zM30 52h1v1h-1zM31 52h1v1h-1zM32 52h1v1h-1zM33 52h1v1h-1zM34 52h1v1h-1zM35 52h1v1h-1zM36 52h1v1h-1zM37 52h1v1h-1z"/><path fill="#F5D655" d="M38 52h1v1h-1z"/><path fill="#F4D050" d="M39 52h1v1h-1zM40 52h1v1h-1zM41 52h1v1h-1zM42 52h1v1h-1zM43 52h1v1h-1zM44 52h1v1h-1zM45 52h1v1h-1zM46 52h1v1h-1zM47 52h1v1h-1zM48 52h1v1h-1zM49 52h1v1h-1zM50 52h1v1h-1z"/><path fill="#C0A241" d="M51 52h1v1h-1z"/><path fill="#231815" d="M52 52h1v1h-1zM53 52h1v1h-1zM54 52h1v1h-1zM1 53h1v1H1zM2 53h1v1H2zM3 53h1v1H3z"/><path fill="#C1B44F" d="M4 53h1v1H4z"/><path fill="#D9CD60" d="M5 53h1v1H5z"/><path fill="#958D5C" d="M6 53h1v1H6z"/><path fill="#5B5758" d="M7 53h1v1H7zM8 53h1v1H8zM9 53h1v1H9zM10 53h1v1h-1zM11 53h1v1h-1zM12 53h1v1h-1zM13 53h1v1h-1z"/><path fill="#6F6C6C" d="M14 53h1v1h-1z"/><path fill="#8B8888" d="M15 53h1v1h-1z"/><path fill="#ADABAA" d="M16 53h1v1h-1zM17 53h1v1h-1z"/><path fill="#8C8688" d="M18 53h1v1h-1z"/><path fill="#807A7C" d="M19 53h1v1h-1z"/><path fill="#676364" d="M20 53h1v1h-1z"/><path fill="#5B5758" d="M21 53h1v1h-1zM22 53h1v1h-1zM23 53h1v1h-1zM24 53h1v1h-1z"/><path fill="#A89454" d="M25 53h1v1h-1z"/><path fill="#F4D251" d="M26 53h1v1h-1z"/><path fill="#F6E25E" d="M27 53h1v1h-1z"/><path fill="#F6E862" d="M28 53h1v1h-1zM29 53h1v1h-1zM30 53h1v1h-1zM31 53h1v1h-1zM32 53h1v1h-1zM33 53h1v1h-1zM34 53h1v1h-1zM35 53h1v1h-1zM36 53h1v1h-1zM37 53h1v1h-1z"/><path fill="#F5D655" d="M38 53h1v1h-1z"/><path fill="#F4D050" d="M39 53h1v1h-1zM40 53h1v1h-1zM41 53h1v1h-1zM42 53h1v1h-1zM43 53h1v1h-1zM44 53h1v1h-1zM45 53h1v1h-1zM46 53h1v1h-1zM47 53h1v1h-1zM48 53h1v1h-1zM49 53h1v1h-1zM50 53h1v1h-1z"/><path fill="#C0A241" d="M51 53h1v1h-1z"/><path fill="#231815" d="M52 53h1v1h-1zM53 53h1v1h-1zM54 53h1v1h-1zM1 54h1v1H1zM2 54h1v1H2zM3 54h1v1H3z"/><path fill="#C1B44F" d="M4 54h1v1H4z"/><path fill="#F6E862" d="M5 54h1v1H5zM6 54h1v1H6z"/><path fill="#EAC851" d="M7 54h1v1H7z"/><path fill="#BBA353" d="M8 54h1v1H8z"/><path fill="#786E57" d="M9 54h1v1H9z"/><path fill="#5B5758" d="M10 54h1v1h-1zM11 54h1v1h-1zM12 54h1v1h-1zM13 54h1v1h-1zM14 54h1v1h-1zM15 54h1v1h-1zM16 54h1v1h-1zM17 54h1v1h-1zM18 54h1v1h-1zM19 54h1v1h-1zM20 54h1v1h-1zM21 54h1v1h-1zM22 54h1v1h-1zM23 54h1v1h-1z"/><path fill="#9E8C55" d="M24 54h1v1h-1z"/><path fill="#F4D558" d="M25 54h1v1h-1z"/><path fill="#F6E560" d="M26 54h1v1h-1z"/><path fill="#F6E862" d="M27 54h1v1h-1zM28 54h1v1h-1zM29 54h1v1h-1zM30 54h1v1h-1zM31 54h1v1h-1zM32 54h1v1h-1zM33 54h1v1h-1zM34 54h1v1h-1zM35 54h1v1h-1zM36 54h1v1h-1zM37 54h1v1h-1z"/><path fill="#F5D655" d="M38 54h1v1h-1z"/><path fill="#F4D050" d="M39 54h1v1h-1zM40 54h1v1h-1zM41 54h1v1h-1zM42 54h1v1h-1zM43 54h1v1h-1zM44 54h1v1h-1zM45 54h1v1h-1zM46 54h1v1h-1zM47 54h1v1h-1zM48 54h1v1h-1zM49 54h1v1h-1zM50 54h1v1h-1z"/><path fill="#C0A241" d="M51 54h1v1h-1z"/><path fill="#231815" d="M52 54h1v1h-1zM53 54h1v1h-1zM54 54h1v1h-1zM1 55h1v1H1zM2 55h1v1H2zM3 55h1v1H3z"/><path fill="#C1B44F" d="M4 55h1v1H4z"/><path fill="#F6E862" d="M5 55h1v1H5zM6 55h1v1H6z"/><path fill="#F4D050" d="M7 55h1v1H7zM8 55h1v1H8zM9 55h1v1H9z"/><path fill="#E1C151" d="M10 55h1v1h-1z"/><path fill="#B19B54" d="M11 55h1v1h-1z"/><path fill="#786E57" d="M12 55h1v1h-1z"/><path fill="#5B5758" d="M13 55h1v1h-1zM14 55h1v1h-1zM15 55h1v1h-1zM16 55h1v1h-1zM17 55h1v1h-1zM18 55h1v1h-1zM19 55h1v1h-1zM20 55h1v1h-1zM21 55h1v1h-1z"/><path fill="#817556" d="M22 55h1v1h-1z"/><path fill="#CEB252" d="M23 55h1v1h-1z"/><path fill="#F5E380" d="M24 55h1v1h-1z"/><path fill="#F6F29D" d="M25 55h1v1h-1z"/><path fill="#F6E862" d="M26 55h1v1h-1zM27 55h1v1h-1zM28 55h1v1h-1zM29 55h1v1h-1zM30 55h1v1h-1zM31 55h1v1h-1zM32 55h1v1h-1zM33 55h1v1h-1zM34 55h1v1h-1zM35 55h1v1h-1zM36 55h1v1h-1zM37 55h1v1h-1z"/><path fill="#F5D655" d="M38 55h1v1h-1z"/><path fill="#F4D050" d="M39 55h1v1h-1zM40 55h1v1h-1zM41 55h1v1h-1zM42 55h1v1h-1zM43 55h1v1h-1zM44 55h1v1h-1zM45 55h1v1h-1zM46 55h1v1h-1zM47 55h1v1h-1zM48 55h1v1h-1zM49 55h1v1h-1zM50 55h1v1h-1z"/><path fill="#C0A241" d="M51 55h1v1h-1z"/><path fill="#231815" d="M52 55h1v1h-1zM53 55h1v1h-1zM54 55h1v1h-1zM1 56h1v1H1zM2 56h1v1H2zM3 56h1v1H3z"/><path fill="#C1B44F" d="M4 56h1v1H4z"/><path fill="#F6E862" d="M5 56h1v1H5zM6 56h1v1H6z"/><path fill="#F4D050" d="M7 56h1v1H7zM8 56h1v1H8zM9 56h1v1H9zM10 56h1v1h-1zM11 56h1v1h-1zM12 56h1v1h-1z"/><path fill="#EAC851" d="M13 56h1v1h-1z"/><path fill="#BBA353" d="M14 56h1v1h-1z"/><path fill="#948455" d="M15 56h1v1h-1z"/><path fill="#817556" d="M16 56h1v1h-1zM17 56h1v1h-1zM18 56h1v1h-1z"/><path fill="#948455" d="M19 56h1v1h-1z"/><path fill="#B19B54" d="M20 56h1v1h-1z"/><path fill="#E1C151" d="M21 56h1v1h-1z"/><path fill="#F5D968" d="M22 56h1v1h-1z"/><path fill="#F6EE9E" d="M23 56h1v1h-1z"/><path fill="#F6F5B0" d="M24 56h1v1h-1z"/><path fill="#F6F29D" d="M25 56h1v1h-1z"/><path fill="#F6E862" d="M26 56h1v1h-1zM27 56h1v1h-1zM28 56h1v1h-1zM29 56h1v1h-1zM30 56h1v1h-1zM31 56h1v1h-1zM32 56h1v1h-1zM33 56h1v1h-1zM34 56h1v1h-1zM35 56h1v1h-1zM36 56h1v1h-1zM37 56h1v1h-1z"/><path fill="#F5D655" d="M38 56h1v1h-1z"/><path fill="#F4D050" d="M39 56h1v1h-1zM40 56h1v1h-1zM41 56h1v1h-1zM42 56h1v1h-1zM43 56h1v1h-1zM44 56h1v1h-1zM45 56h1v1h-1zM46 56h1v1h-1zM47 56h1v1h-1zM48 56h1v1h-1zM49 56h1v1h-1zM50 56h1v1h-1z"/><path fill="#C0A241" d="M51 56h1v1h-1z"/><path fill="#231815" d="M52 56h1v1h-1zM53 56h1v1h-1zM54 56h1v1h-1zM1 57h1v1H1zM2 57h1v1H2zM3 57h1v1H3z"/><path fill="#C1B44F" d="M4 57h1v1H4z"/><path fill="#F6E862" d="M5 57h1v1H5zM6 57h1v1H6z"/><path fill="#F5D655" d="M7 57h1v1H7z"/><path fill="#F4D050" d="M8 57h1v1H8zM9 57h1v1H9zM10 57h1v1h-1zM11 57h1v1h-1zM12 57h1v1h-1zM13 57h1v1h-1zM14 57h1v1h-1zM15 57h1v1h-1zM16 57h1v1h-1zM17 57h1v1h-1zM18 57h1v1h-1zM19 57h1v1h-1z"/><path fill="#F4D55C" d="M20 57h1v1h-1z"/><path fill="#F5E78C" d="M21 57h1v1h-1z"/><path fill="#F6F5B0" d="M22 57h1v1h-1zM23 57h1v1h-1zM24 57h1v1h-1z"/><path fill="#F6F29D" d="M25 57h1v1h-1z"/><path fill="#F6E862" d="M26 57h1v1h-1zM27 57h1v1h-1zM28 57h1v1h-1zM29 57h1v1h-1zM30 57h1v1h-1zM31 57h1v1h-1zM32 57h1v1h-1zM33 57h1v1h-1zM34 57h1v1h-1zM35 57h1v1h-1zM36 57h1v1h-1zM37 57h1v1h-1z"/><path fill="#F5D655" d="M38 57h1v1h-1z"/><path fill="#F4D050" d="M39 57h1v1h-1zM40 57h1v1h-1zM41 57h1v1h-1zM42 57h1v1h-1zM43 57h1v1h-1zM44 57h1v1h-1zM45 57h1v1h-1zM46 57h1v1h-1zM47 57h1v1h-1zM48 57h1v1h-1zM49 57h1v1h-1zM50 57h1v1h-1z"/><path fill="#C0A241" d="M51 57h1v1h-1z"/><path fill="#231815" d="M52 57h1v1h-1zM53 57h1v1h-1zM54 57h1v1h-1zM1 58h1v1H1zM2 58h1v1H2zM3 58h1v1H3z"/><path fill="#C1B44F" d="M4 58h1v1H4z"/><path fill="#F6E862" d="M5 58h1v1H5zM6 58h1v1H6z"/><path fill="#F5E15C" d="M7 58h1v1H7z"/><path fill="#F4D050" d="M8 58h1v1H8zM9 58h1v1H9zM10 58h1v1h-1zM11 58h1v1h-1zM12 58h1v1h-1zM13 58h1v1h-1zM14 58h1v1h-1zM15 58h1v1h-1zM16 58h1v1h-1zM17 58h1v1h-1z"/><path fill="#F4D55C" d="M18 58h1v1h-1z"/><path fill="#F5E78C" d="M19 58h1v1h-1z"/><path fill="#F6F5B0" d="M20 58h1v1h-1zM21 58h1v1h-1zM22 58h1v1h-1zM23 58h1v1h-1zM24 58h1v1h-1z"/><path fill="#F6F29D" d="M25 58h1v1h-1z"/><path fill="#F6E862" d="M26 58h1v1h-1zM27 58h1v1h-1zM28 58h1v1h-1zM29 58h1v1h-1zM30 58h1v1h-1zM31 58h1v1h-1zM32 58h1v1h-1zM33 58h1v1h-1zM34 58h1v1h-1zM35 58h1v1h-1zM36 58h1v1h-1zM37 58h1v1h-1z"/><path fill="#F5D655" d="M38 58h1v1h-1z"/><path fill="#F4D050" d="M39 58h1v1h-1zM40 58h1v1h-1zM41 58h1v1h-1zM42 58h1v1h-1zM43 58h1v1h-1zM44 58h1v1h-1zM45 58h1v1h-1zM46 58h1v1h-1zM47 58h1v1h-1zM48 58h1v1h-1zM49 58h1v1h-1zM50 58h1v1h-1z"/><path fill="#C0A241" d="M51 58h1v1h-1z"/><path fill="#231815" d="M52 58h1v1h-1zM53 58h1v1h-1zM54 58h1v1h-1zM1 59h1v1H1zM2 59h1v1H2zM3 59h1v1H3z"/><path fill="#C1B44F" d="M4 59h1v1H4z"/><path fill="#F6E862" d="M5 59h1v1H5zM6 59h1v1H6zM7 59h1v1H7z"/><path fill="#F5DC59" d="M8 59h1v1H8z"/><path fill="#F4D050" d="M9 59h1v1H9zM10 59h1v1h-1zM11 59h1v1h-1zM12 59h1v1h-1zM13 59h1v1h-1zM14 59h1v1h-1z"/><path fill="#F4D352" d="M15 59h1v1h-1z"/><path fill="#F5DB58" d="M16 59h1v1h-1z"/><path fill="#F6EC8F" d="M17 59h1v1h-1z"/><path fill="#F6F5B0" d="M18 59h1v1h-1zM19 59h1v1h-1zM20 59h1v1h-1zM21 59h1v1h-1zM22 59h1v1h-1zM23 59h1v1h-1zM24 59h1v1h-1z"/><path fill="#F6F29D" d="M25 59h1v1h-1z"/><path fill="#F6E862" d="M26 59h1v1h-1zM27 59h1v1h-1zM28 59h1v1h-1zM29 59h1v1h-1zM30 59h1v1h-1zM31 59h1v1h-1zM32 59h1v1h-1zM33 59h1v1h-1zM34 59h1v1h-1zM35 59h1v1h-1zM36 59h1v1h-1zM37 59h1v1h-1z"/><path fill="#F5D655" d="M38 59h1v1h-1z"/><path fill="#F4D050" d="M39 59h1v1h-1zM40 59h1v1h-1zM41 59h1v1h-1zM42 59h1v1h-1zM43 59h1v1h-1zM44 59h1v1h-1zM45 59h1v1h-1zM46 59h1v1h-1zM47 59h1v1h-1zM48 59h1v1h-1zM49 59h1v1h-1zM50 59h1v1h-1z"/><path fill="#C0A241" d="M51 59h1v1h-1z"/><path fill="#231815" d="M52 59h1v1h-1zM53 59h1v1h-1zM54 59h1v1h-1zM1 60h1v1H1zM2 60h1v1H2zM3 60h1v1H3z"/><path fill="#C1B44F" d="M4 60h1v1H4z"/><path fill="#F6E862" d="M5 60h1v1H5zM6 60h1v1H6zM7 60h1v1H7zM8 60h1v1H8z"/><path fill="#F6E761" d="M9 60h1v1H9z"/><path fill="#F6E25E" d="M10 60h1v1h-1z"/><path fill="#F5DE5A" d="M11 60h1v1h-1z"/><path fill="#F5DF5B" d="M12 60h1v1h-1z"/><path fill="#F6E25E" d="M13 60h1v1h-1z"/><path fill="#F6E560" d="M14 60h1v1h-1z"/><path fill="#F6E862" d="M15 60h1v1h-1zM16 60h1v1h-1z"/><path fill="#F6F29D" d="M17 60h1v1h-1z"/><path fill="#F6F5B0" d="M18 60h1v1h-1zM19 60h1v1h-1zM20 60h1v1h-1zM21 60h1v1h-1zM22 60h1v1h-1zM23 60h1v1h-1zM24 60h1v1h-1z"/><path fill="#F6F29D" d="M25 60h1v1h-1z"/><path fill="#F6E862" d="M26 60h1v1h-1zM27 60h1v1h-1zM28 60h1v1h-1zM29 60h1v1h-1zM30 60h1v1h-1zM31 60h1v1h-1zM32 60h1v1h-1zM33 60h1v1h-1zM34 60h1v1h-1zM35 60h1v1h-1zM36 60h1v1h-1zM37 60h1v1h-1z"/><path fill="#F5D655" d="M38 60h1v1h-1z"/><path fill="#F4D050" d="M39 60h1v1h-1zM40 60h1v1h-1zM41 60h1v1h-1zM42 60h1v1h-1zM43 60h1v1h-1zM44 60h1v1h-1zM45 60h1v1h-1zM46 60h1v1h-1zM47 60h1v1h-1zM48 60h1v1h-1zM49 60h1v1h-1zM50 60h1v1h-1z"/><path fill="#C0A241" d="M51 60h1v1h-1z"/><path fill="#231815" d="M52 60h1v1h-1zM53 60h1v1h-1zM54 60h1v1h-1zM1 61h1v1H1zM2 61h1v1H2zM3 61h1v1H3z"/><path fill="#C1B44F" d="M4 61h1v1H4z"/><path fill="#F6E862" d="M5 61h1v1H5zM6 61h1v1H6zM7 61h1v1H7zM8 61h1v1H8zM9 61h1v1H9zM10 61h1v1h-1zM11 61h1v1h-1zM12 61h1v1h-1zM13 61h1v1h-1zM14 61h1v1h-1zM15 61h1v1h-1zM16 61h1v1h-1z"/><path fill="#F6F29D" d="M17 61h1v1h-1z"/><path fill="#F6F5B0" d="M18 61h1v1h-1zM19 61h1v1h-1zM20 61h1v1h-1zM21 61h1v1h-1zM22 61h1v1h-1zM23 61h1v1h-1zM24 61h1v1h-1z"/><path fill="#F6F29D" d="M25 61h1v1h-1z"/><path fill="#F6E862" d="M26 61h1v1h-1zM27 61h1v1h-1zM28 61h1v1h-1zM29 61h1v1h-1zM30 61h1v1h-1zM31 61h1v1h-1zM32 61h1v1h-1zM33 61h1v1h-1zM34 61h1v1h-1zM35 61h1v1h-1zM36 61h1v1h-1zM37 61h1v1h-1z"/><path fill="#F5D655" d="M38 61h1v1h-1z"/><path fill="#F4D050" d="M39 61h1v1h-1zM40 61h1v1h-1zM41 61h1v1h-1zM42 61h1v1h-1zM43 61h1v1h-1zM44 61h1v1h-1zM45 61h1v1h-1zM46 61h1v1h-1zM47 61h1v1h-1zM48 61h1v1h-1zM49 61h1v1h-1zM50 61h1v1h-1z"/><path fill="#C0A241" d="M51 61h1v1h-1z"/><path fill="#231815" d="M52 61h1v1h-1zM53 61h1v1h-1zM54 61h1v1h-1zM1 62h1v1H1zM2 62h1v1H2zM3 62h1v1H3z"/><path fill="#C1B44F" d="M4 62h1v1H4z"/><path fill="#F6E862" d="M5 62h1v1H5zM6 62h1v1H6zM7 62h1v1H7zM8 62h1v1H8zM9 62h1v1H9zM10 62h1v1h-1zM11 62h1v1h-1zM12 62h1v1h-1zM13 62h1v1h-1zM14 62h1v1h-1zM15 62h1v1h-1zM16 62h1v1h-1z"/><path fill="#F6F29D" d="M17 62h1v1h-1z"/><path fill="#F6F5B0" d="M18 62h1v1h-1zM19 62h1v1h-1zM20 62h1v1h-1zM21 62h1v1h-1zM22 62h1v1h-1zM23 62h1v1h-1zM24 62h1v1h-1z"/><path fill="#F6F29D" d="M25 62h1v1h-1z"/><path fill="#F6E862" d="M26 62h1v1h-1zM27 62h1v1h-1zM28 62h1v1h-1zM29 62h1v1h-1zM30 62h1v1h-1zM31 62h1v1h-1zM32 62h1v1h-1zM33 62h1v1h-1zM34 62h1v1h-1zM35 62h1v1h-1zM36 62h1v1h-1zM37 62h1v1h-1z"/><path fill="#F5D655" d="M38 62h1v1h-1z"/><path fill="#F4D050" d="M39 62h1v1h-1zM40 62h1v1h-1zM41 62h1v1h-1zM42 62h1v1h-1zM43 62h1v1h-1zM44 62h1v1h-1zM45 62h1v1h-1zM46 62h1v1h-1zM47 62h1v1h-1zM48 62h1v1h-1zM49 62h1v1h-1zM50 62h1v1h-1z"/><path fill="#C0A241" d="M51 62h1v1h-1z"/><path fill="#231815" d="M52 62h1v1h-1zM53 62h1v1h-1zM54 62h1v1h-1zM1 63h1v1H1zM2 63h1v1H2zM3 63h1v1H3z"/><path fill="#C1B44F" d="M4 63h1v1H4z"/><path fill="#F6E862" d="M5 63h1v1H5zM6 63h1v1H6zM7 63h1v1H7zM8 63h1v1H8zM9 63h1v1H9zM10 63h1v1h-1zM11 63h1v1h-1zM12 63h1v1h-1zM13 63h1v1h-1zM14 63h1v1h-1zM15 63h1v1h-1zM16 63h1v1h-1z"/><path fill="#F6F29D" d="M17 63h1v1h-1z"/><path fill="#F6F5B0" d="M18 63h1v1h-1zM19 63h1v1h-1zM20 63h1v1h-1zM21 63h1v1h-1zM22 63h1v1h-1zM23 63h1v1h-1zM24 63h1v1h-1z"/><path fill="#F6F29D" d="M25 63h1v1h-1z"/><path fill="#F6E862" d="M26 63h1v1h-1zM27 63h1v1h-1zM28 63h1v1h-1zM29 63h1v1h-1zM30 63h1v1h-1zM31 63h1v1h-1zM32 63h1v1h-1zM33 63h1v1h-1zM34 63h1v1h-1zM35 63h1v1h-1zM36 63h1v1h-1zM37 63h1v1h-1z"/><path fill="#F5D655" d="M38 63h1v1h-1z"/><path fill="#F4D050" d="M39 63h1v1h-1zM40 63h1v1h-1zM41 63h1v1h-1zM42 63h1v1h-1zM43 63h1v1h-1zM44 63h1v1h-1zM45 63h1v1h-1zM46 63h1v1h-1zM47 63h1v1h-1zM48 63h1v1h-1zM49 63h1v1h-1zM50 63h1v1h-1z"/><path fill="#C0A241" d="M51 63h1v1h-1z"/><path fill="#231815" d="M52 63h1v1h-1zM53 63h1v1h-1zM54 63h1v1h-1zM1 64h1v1H1zM2 64h1v1H2zM3 64h1v1H3z"/><path fill="#C1B44F" d="M4 64h1v1H4z"/><path fill="#F6E862" d="M5 64h1v1H5zM6 64h1v1H6zM7 64h1v1H7zM8 64h1v1H8zM9 64h1v1H9zM10 64h1v1h-1zM11 64h1v1h-1zM12 64h1v1h-1zM13 64h1v1h-1zM14 64h1v1h-1zM15 64h1v1h-1zM16 64h1v1h-1z"/><path fill="#F6F29D" d="M17 64h1v1h-1z"/><path fill="#F6F5B0" d="M18 64h1v1h-1zM19 64h1v1h-1zM20 64h1v1h-1zM21 64h1v1h-1zM22 64h1v1h-1zM23 64h1v1h-1zM24 64h1v1h-1z"/><path fill="#F6F29D" d="M25 64h1v1h-1z"/><path fill="#F6E862" d="M26 64h1v1h-1zM27 64h1v1h-1zM28 64h1v1h-1zM29 64h1v1h-1zM30 64h1v1h-1zM31 64h1v1h-1zM32 64h1v1h-1zM33 64h1v1h-1zM34 64h1v1h-1zM35 64h1v1h-1zM36 64h1v1h-1zM37 64h1v1h-1z"/><path fill="#F5D655" d="M38 64h1v1h-1z"/><path fill="#F4D050" d="M39 64h1v1h-1zM40 64h1v1h-1zM41 64h1v1h-1zM42 64h1v1h-1zM43 64h1v1h-1zM44 64h1v1h-1zM45 64h1v1h-1zM46 64h1v1h-1zM47 64h1v1h-1zM48 64h1v1h-1zM49 64h1v1h-1zM50 64h1v1h-1z"/><path fill="#C0A241" d="M51 64h1v1h-1z"/><path fill="#231815" d="M52 64h1v1h-1zM53 64h1v1h-1zM54 64h1v1h-1zM1 65h1v1H1zM2 65h1v1H2zM3 65h1v1H3z"/><path fill="#C1B44F" d="M4 65h1v1H4z"/><path fill="#F6E862" d="M5 65h1v1H5zM6 65h1v1H6zM7 65h1v1H7zM8 65h1v1H8zM9 65h1v1H9zM10 65h1v1h-1zM11 65h1v1h-1zM12 65h1v1h-1zM13 65h1v1h-1zM14 65h1v1h-1zM15 65h1v1h-1zM16 65h1v1h-1z"/><path fill="#F6F29D" d="M17 65h1v1h-1z"/><path fill="#F6F5B0" d="M18 65h1v1h-1zM19 65h1v1h-1zM20 65h1v1h-1zM21 65h1v1h-1zM22 65h1v1h-1zM23 65h1v1h-1zM24 65h1v1h-1z"/><path fill="#F6F29D" d="M25 65h1v1h-1z"/><path fill="#F6E862" d="M26 65h1v1h-1zM27 65h1v1h-1zM28 65h1v1h-1zM29 65h1v1h-1zM30 65h1v1h-1zM31 65h1v1h-1zM32 65h1v1h-1zM33 65h1v1h-1zM34 65h1v1h-1zM35 65h1v1h-1zM36 65h1v1h-1zM37 65h1v1h-1z"/><path fill="#F5D655" d="M38 65h1v1h-1z"/><path fill="#F4D050" d="M39 65h1v1h-1zM40 65h1v1h-1zM41 65h1v1h-1zM42 65h1v1h-1zM43 65h1v1h-1zM44 65h1v1h-1zM45 65h1v1h-1zM46 65h1v1h-1zM47 65h1v1h-1zM48 65h1v1h-1zM49 65h1v1h-1zM50 65h1v1h-1z"/><path fill="#C0A241" d="M51 65h1v1h-1z"/><path fill="#231815" d="M52 65h1v1h-1zM53 65h1v1h-1zM54 65h1v1h-1zM1 66h1v1H1zM2 66h1v1H2zM3 66h1v1H3z"/><path fill="#C1B44F" d="M4 66h1v1H4z"/><path fill="#F6E862" d="M5 66h1v1H5zM6 66h1v1H6zM7 66h1v1H7zM8 66h1v1H8zM9 66h1v1H9zM10 66h1v1h-1zM11 66h1v1h-1zM12 66h1v1h-1zM13 66h1v1h-1zM14 66h1v1h-1zM15 66h1v1h-1zM16 66h1v1h-1z"/><path fill="#F6F29D" d="M17 66h1v1h-1z"/><path fill="#F6F5B0" d="M18 66h1v1h-1zM19 66h1v1h-1zM20 66h1v1h-1zM21 66h1v1h-1zM22 66h1v1h-1zM23 66h1v1h-1zM24 66h1v1h-1z"/><path fill="#F6F29D" d="M25 66h1v1h-1z"/><path fill="#F6E862" d="M26 66h1v1h-1zM27 66h1v1h-1zM28 66h1v1h-1zM29 66h1v1h-1zM30 66h1v1h-1zM31 66h1v1h-1zM32 66h1v1h-1zM33 66h1v1h-1zM34 66h1v1h-1zM35 66h1v1h-1zM36 66h1v1h-1zM37 66h1v1h-1z"/><path fill="#F5D655" d="M38 66h1v1h-1z"/><path fill="#F4D050" d="M39 66h1v1h-1zM40 66h1v1h-1zM41 66h1v1h-1zM42 66h1v1h-1zM43 66h1v1h-1zM44 66h1v1h-1zM45 66h1v1h-1zM46 66h1v1h-1zM47 66h1v1h-1zM48 66h1v1h-1zM49 66h1v1h-1zM50 66h1v1h-1z"/><path fill="#C0A241" d="M51 66h1v1h-1z"/><path fill="#231815" d="M52 66h1v1h-1zM53 66h1v1h-1zM54 66h1v1h-1zM1 67h1v1H1zM2 67h1v1H2zM3 67h1v1H3z"/><path fill="#C1B44F" d="M4 67h1v1H4z"/><path fill="#F6E862" d="M5 67h1v1H5zM6 67h1v1H6zM7 67h1v1H7zM8 67h1v1H8zM9 67h1v1H9zM10 67h1v1h-1zM11 67h1v1h-1zM12 67h1v1h-1zM13 67h1v1h-1zM14 67h1v1h-1zM15 67h1v1h-1zM16 67h1v1h-1z"/><path fill="#F6F29D" d="M17 67h1v1h-1z"/><path fill="#F6F5B0" d="M18 67h1v1h-1zM19 67h1v1h-1zM20 67h1v1h-1zM21 67h1v1h-1zM22 67h1v1h-1zM23 67h1v1h-1zM24 67h1v1h-1z"/><path fill="#F5EF9A" d="M25 67h1v1h-1z"/><path fill="#F3DD5A" d="M26 67h1v1h-1z"/><path fill="#F0D454" d="M27 67h1v1h-1z"/><path fill="#EFD152" d="M28 67h1v1h-1z"/><path fill="#EDCB4D" d="M29 67h1v1h-1z"/><path fill="#ECC649" d="M30 67h1v1h-1zM31 67h1v1h-1zM32 67h1v1h-1zM33 67h1v1h-1z"/><path fill="#E8BA41" d="M34 67h1v1h-1zM35 67h1v1h-1z"/><path fill="#EAC045" d="M36 67h1v1h-1z"/><path fill="#ECC649" d="M37 67h1v1h-1z"/><path fill="#EBC146" d="M38 67h1v1h-1z"/><path fill="#EBC045" d="M39 67h1v1h-1z"/><path fill="#EDC448" d="M40 67h1v1h-1z"/><path fill="#EEC549" d="M41 67h1v1h-1z"/><path fill="#F0C94B" d="M42 67h1v1h-1z"/><path fill="#F3CD4E" d="M43 67h1v1h-1z"/><path fill="#F4D050" d="M44 67h1v1h-1zM45 67h1v1h-1zM46 67h1v1h-1zM47 67h1v1h-1zM48 67h1v1h-1zM49 67h1v1h-1zM50 67h1v1h-1z"/><path fill="#C0A241" d="M51 67h1v1h-1z"/><path fill="#231815" d="M52 67h1v1h-1zM53 67h1v1h-1zM54 67h1v1h-1zM1 68h1v1H1zM2 68h1v1H2zM3 68h1v1H3z"/><path fill="#C1B44F" d="M4 68h1v1H4z"/><path fill="#F6E862" d="M5 68h1v1H5zM6 68h1v1H6zM7 68h1v1H7zM8 68h1v1H8zM9 68h1v1H9zM10 68h1v1h-1zM11 68h1v1h-1zM12 68h1v1h-1zM13 68h1v1h-1zM14 68h1v1h-1zM15 68h1v1h-1zM16 68h1v1h-1z"/><path fill="#F6F29D" d="M17 68h1v1h-1z"/><path fill="#F6F5B0" d="M18 68h1v1h-1zM19 68h1v1h-1zM20 68h1v1h-1zM21 68h1v1h-1zM22 68h1v1h-1zM23 68h1v1h-1zM24 68h1v1h-1z"/><path fill="#F3E694" d="M25 68h1v1h-1z"/><path fill="#E8BA41" d="M26 68h1v1h-1zM27 68h1v1h-1zM28 68h1v1h-1zM29 68h1v1h-1zM30 68h1v1h-1zM31 68h1v1h-1zM32 68h1v1h-1zM33 68h1v1h-1zM34 68h1v1h-1zM35 68h1v1h-1zM36 68h1v1h-1zM37 68h1v1h-1zM38 68h1v1h-1zM39 68h1v1h-1zM40 68h1v1h-1zM41 68h1v1h-1zM42 68h1v1h-1zM43 68h1v1h-1z"/><path fill="#E9BB42" d="M44 68h1v1h-1z"/><path fill="#EDC247" d="M45 68h1v1h-1z"/><path fill="#F0C84A" d="M46 68h1v1h-1z"/><path fill="#F3CF4F" d="M47 68h1v1h-1z"/><path fill="#F4D050" d="M48 68h1v1h-1zM49 68h1v1h-1zM50 68h1v1h-1z"/><path fill="#C0A241" d="M51 68h1v1h-1z"/><path fill="#231815" d="M52 68h1v1h-1zM53 68h1v1h-1zM54 68h1v1h-1zM1 69h1v1H1zM2 69h1v1H2zM3 69h1v1H3z"/><path fill="#C1B44F" d="M4 69h1v1H4z"/><path fill="#F6E862" d="M5 69h1v1H5zM6 69h1v1H6zM7 69h1v1H7zM8 69h1v1H8zM9 69h1v1H9zM10 69h1v1h-1zM11 69h1v1h-1zM12 69h1v1h-1zM13 69h1v1h-1zM14 69h1v1h-1zM15 69h1v1h-1zM16 69h1v1h-1z"/><path fill="#F5EF9A" d="M17 69h1v1h-1z"/><path fill="#F6F5B0" d="M18 69h1v1h-1zM19 69h1v1h-1zM20 69h1v1h-1zM21 69h1v1h-1zM22 69h1v1h-1zM23 69h1v1h-1zM24 69h1v1h-1z"/><path fill="#F3E694" d="M25 69h1v1h-1z"/><path fill="#E8BA41" d="M26 69h1v1h-1zM27 69h1v1h-1zM28 69h1v1h-1zM29 69h1v1h-1zM30 69h1v1h-1zM31 69h1v1h-1zM32 69h1v1h-1zM33 69h1v1h-1zM34 69h1v1h-1zM35 69h1v1h-1zM36 69h1v1h-1zM37 69h1v1h-1zM38 69h1v1h-1zM39 69h1v1h-1zM40 69h1v1h-1zM41 69h1v1h-1zM42 69h1v1h-1zM43 69h1v1h-1zM44 69h1v1h-1zM45 69h1v1h-1zM46 69h1v1h-1z"/><path fill="#E9BB42" d="M47 69h1v1h-1z"/><path fill="#EEC549" d="M48 69h1v1h-1z"/><path fill="#F3CF4F" d="M49 69h1v1h-1z"/><path fill="#F4D050" d="M50 69h1v1h-1z"/><path fill="#C0A241" d="M51 69h1v1h-1z"/><path fill="#231815" d="M52 69h1v1h-1zM53 69h1v1h-1zM54 69h1v1h-1zM1 70h1v1H1zM2 70h1v1H2zM3 70h1v1H3z"/><path fill="#C1B44F" d="M4 70h1v1H4z"/><path fill="#F6E862" d="M5 70h1v1H5zM6 70h1v1H6zM7 70h1v1H7zM8 70h1v1H8zM9 70h1v1H9zM10 70h1v1h-1zM11 70h1v1h-1zM12 70h1v1h-1zM13 70h1v1h-1z"/><path fill="#F3DF5C" d="M14 70h1v1h-1z"/><path fill="#EDCB4D" d="M15 70h1v1h-1z"/><path fill="#E9BD43" d="M16 70h1v1h-1z"/><path fill="#F3E694" d="M17 70h1v1h-1z"/><path fill="#F6F5B0" d="M18 70h1v1h-1zM19 70h1v1h-1zM20 70h1v1h-1zM21 70h1v1h-1zM22 70h1v1h-1zM23 70h1v1h-1zM24 70h1v1h-1z"/><path fill="#F3E694" d="M25 70h1v1h-1z"/><path fill="#E8BA41" d="M26 70h1v1h-1zM27 70h1v1h-1zM28 70h1v1h-1zM29 70h1v1h-1zM30 70h1v1h-1zM31 70h1v1h-1zM32 70h1v1h-1zM33 70h1v1h-1zM34 70h1v1h-1zM35 70h1v1h-1zM36 70h1v1h-1zM37 70h1v1h-1zM38 70h1v1h-1zM39 70h1v1h-1zM40 70h1v1h-1zM41 70h1v1h-1zM42 70h1v1h-1zM43 70h1v1h-1zM44 70h1v1h-1zM45 70h1v1h-1zM46 70h1v1h-1zM47 70h1v1h-1zM48 70h1v1h-1z"/><path fill="#E9BB42" d="M49 70h1v1h-1z"/><path fill="#F0C94B" d="M50 70h1v1h-1z"/><path fill="#C0A241" d="M51 70h1v1h-1z"/><path fill="#231815" d="M52 70h1v1h-1zM53 70h1v1h-1zM54 70h1v1h-1zM1 71h1v1H1zM2 71h1v1H2zM3 71h1v1H3z"/><path fill="#C1B44F" d="M4 71h1v1H4z"/><path fill="#F6E862" d="M5 71h1v1H5zM6 71h1v1H6zM7 71h1v1H7zM8 71h1v1H8zM9 71h1v1H9zM10 71h1v1h-1zM11 71h1v1h-1z"/><path fill="#F1D756" d="M12 71h1v1h-1z"/><path fill="#EBC347" d="M13 71h1v1h-1z"/><path fill="#E8BA41" d="M14 71h1v1h-1zM15 71h1v1h-1zM16 71h1v1h-1z"/><path fill="#F3E694" d="M17 71h1v1h-1z"/><path fill="#F6F5B0" d="M18 71h1v1h-1zM19 71h1v1h-1zM20 71h1v1h-1zM21 71h1v1h-1zM22 71h1v1h-1zM23 71h1v1h-1zM24 71h1v1h-1z"/><path fill="#F3E694" d="M25 71h1v1h-1z"/><path fill="#E8BA41" d="M26 71h1v1h-1zM27 71h1v1h-1zM28 71h1v1h-1zM29 71h1v1h-1zM30 71h1v1h-1zM31 71h1v1h-1zM32 71h1v1h-1zM33 71h1v1h-1zM34 71h1v1h-1zM35 71h1v1h-1zM36 71h1v1h-1zM37 71h1v1h-1zM38 71h1v1h-1zM39 71h1v1h-1zM40 71h1v1h-1zM41 71h1v1h-1zM42 71h1v1h-1zM43 71h1v1h-1zM44 71h1v1h-1zM45 71h1v1h-1zM46 71h1v1h-1zM47 71h1v1h-1zM48 71h1v1h-1zM49 71h1v1h-1zM50 71h1v1h-1z"/><path fill="#BB9A3C" d="M51 71h1v1h-1z"/><path fill="#231815" d="M52 71h1v1h-1zM53 71h1v1h-1zM54 71h1v1h-1zM1 72h1v1H1zM2 72h1v1H2zM3 72h1v1H3z"/><path fill="#C1B44F" d="M4 72h1v1H4z"/><path fill="#F6E862" d="M5 72h1v1H5zM6 72h1v1H6zM7 72h1v1H7zM8 72h1v1H8zM9 72h1v1H9z"/><path fill="#F1D756" d="M10 72h1v1h-1z"/><path fill="#EAC045" d="M11 72h1v1h-1z"/><path fill="#E8BA41" d="M12 72h1v1h-1zM13 72h1v1h-1zM14 72h1v1h-1zM15 72h1v1h-1zM16 72h1v1h-1z"/><path fill="#F3E694" d="M17 72h1v1h-1z"/><path fill="#F6F5B0" d="M18 72h1v1h-1zM19 72h1v1h-1zM20 72h1v1h-1zM21 72h1v1h-1zM22 72h1v1h-1zM23 72h1v1h-1zM24 72h1v1h-1z"/><path fill="#F3E694" d="M25 72h1v1h-1z"/><path fill="#E8BA41" d="M26 72h1v1h-1zM27 72h1v1h-1zM28 72h1v1h-1zM29 72h1v1h-1zM30 72h1v1h-1zM31 72h1v1h-1zM32 72h1v1h-1zM33 72h1v1h-1zM34 72h1v1h-1zM35 72h1v1h-1zM36 72h1v1h-1zM37 72h1v1h-1zM38 72h1v1h-1zM39 72h1v1h-1zM40 72h1v1h-1zM41 72h1v1h-1zM42 72h1v1h-1zM43 72h1v1h-1zM44 72h1v1h-1zM45 72h1v1h-1zM46 72h1v1h-1zM47 72h1v1h-1zM48 72h1v1h-1zM49 72h1v1h-1zM50 72h1v1h-1z"/><path fill="#B79236" d="M51 72h1v1h-1z"/><path fill="#231815" d="M52 72h1v1h-1zM53 72h1v1h-1zM54 72h1v1h-1zM1 73h1v1H1zM2 73h1v1H2zM3 73h1v1H3z"/><path fill="#C1B44F" d="M4 73h1v1H4z"/><path fill="#F6E862" d="M5 73h1v1H5zM6 73h1v1H6zM7 73h1v1H7z"/><path fill="#F3DF5C" d="M8 73h1v1H8z"/><path fill="#EBC347" d="M9 73h1v1H9z"/><path fill="#E8BA41" d="M10 73h1v1h-1zM11 73h1v1h-1zM12 73h1v1h-1zM13 73h1v1h-1zM14 73h1v1h-1zM15 73h1v1h-1zM16 73h1v1h-1z"/><path fill="#F3E694" d="M17 73h1v1h-1z"/><path fill="#F6F5B0" d="M18 73h1v1h-1zM19 73h1v1h-1zM20 73h1v1h-1zM21 73h1v1h-1zM22 73h1v1h-1zM23 73h1v1h-1zM24 73h1v1h-1z"/><path fill="#F3E694" d="M25 73h1v1h-1z"/><path fill="#E8BA41" d="M26 73h1v1h-1zM27 73h1v1h-1zM28 73h1v1h-1zM29 73h1v1h-1zM30 73h1v1h-1zM31 73h1v1h-1zM32 73h1v1h-1zM33 73h1v1h-1zM34 73h1v1h-1zM35 73h1v1h-1zM36 73h1v1h-1zM37 73h1v1h-1zM38 73h1v1h-1zM39 73h1v1h-1zM40 73h1v1h-1zM41 73h1v1h-1zM42 73h1v1h-1zM43 73h1v1h-1zM44 73h1v1h-1zM45 73h1v1h-1zM46 73h1v1h-1zM47 73h1v1h-1zM48 73h1v1h-1zM49 73h1v1h-1zM50 73h1v1h-1z"/><path fill="#AA8733" d="M51 73h1v1h-1z"/><path fill="#231815" d="M52 73h1v1h-1zM53 73h1v1h-1zM54 73h1v1h-1zM1 74h1v1H1zM2 74h1v1H2zM3 74h1v1H3z"/><path fill="#C1B44F" d="M4 74h1v1H4z"/><path fill="#F6E862" d="M5 74h1v1H5zM6 74h1v1H6z"/><path fill="#EFD152" d="M7 74h1v1H7z"/><path fill="#E8BA41" d="M8 74h1v1H8zM9 74h1v1H9zM10 74h1v1h-1zM11 74h1v1h-1zM12 74h1v1h-1zM13 74h1v1h-1zM14 74h1v1h-1zM15 74h1v1h-1zM16 74h1v1h-1z"/><path fill="#F3E694" d="M17 74h1v1h-1z"/><path fill="#F6F5B0" d="M18 74h1v1h-1zM19 74h1v1h-1zM20 74h1v1h-1zM21 74h1v1h-1zM22 74h1v1h-1zM23 74h1v1h-1zM24 74h1v1h-1z"/><path fill="#F3E694" d="M25 74h1v1h-1z"/><path fill="#E8BA41" d="M26 74h1v1h-1zM27 74h1v1h-1zM28 74h1v1h-1zM29 74h1v1h-1zM30 74h1v1h-1zM31 74h1v1h-1zM32 74h1v1h-1zM33 74h1v1h-1zM34 74h1v1h-1zM35 74h1v1h-1zM36 74h1v1h-1zM37 74h1v1h-1zM38 74h1v1h-1zM39 74h1v1h-1zM40 74h1v1h-1zM41 74h1v1h-1zM42 74h1v1h-1zM43 74h1v1h-1zM44 74h1v1h-1zM45 74h1v1h-1zM46 74h1v1h-1zM47 74h1v1h-1zM48 74h1v1h-1zM49 74h1v1h-1zM50 74h1v1h-1z"/><path fill="#614B23" d="M51 74h1v1h-1z"/><path fill="#231815" d="M52 74h1v1h-1zM53 74h1v1h-1zM54 74h1v1h-1zM1 75h1v1H1zM2 75h1v1H2zM3 75h1v1H3z"/><path fill="#C1B44F" d="M4 75h1v1H4z"/><path fill="#F6E862" d="M5 75h1v1H5z"/><path fill="#EDCB4D" d="M6 75h1v1H6z"/><path fill="#E8BA41" d="M7 75h1v1H7zM8 75h1v1H8zM9 75h1v1H9zM10 75h1v1h-1zM11 75h1v1h-1zM12 75h1v1h-1zM13 75h1v1h-1zM14 75h1v1h-1zM15 75h1v1h-1zM16 75h1v1h-1z"/><path fill="#F3E694" d="M17 75h1v1h-1z"/><path fill="#F6F5B0" d="M18 75h1v1h-1zM19 75h1v1h-1zM20 75h1v1h-1zM21 75h1v1h-1zM22 75h1v1h-1zM23 75h1v1h-1zM24 75h1v1h-1z"/><path fill="#F3E694" d="M25 75h1v1h-1z"/><path fill="#E8BA41" d="M26 75h1v1h-1zM27 75h1v1h-1zM28 75h1v1h-1zM29 75h1v1h-1zM30 75h1v1h-1zM31 75h1v1h-1zM32 75h1v1h-1zM33 75h1v1h-1zM34 75h1v1h-1zM35 75h1v1h-1zM36 75h1v1h-1zM37 75h1v1h-1zM38 75h1v1h-1zM39 75h1v1h-1zM40 75h1v1h-1zM41 75h1v1h-1zM42 75h1v1h-1zM43 75h1v1h-1zM44 75h1v1h-1zM45 75h1v1h-1zM46 75h1v1h-1zM47 75h1v1h-1zM48 75h1v1h-1zM49 75h1v1h-1z"/><path fill="#AA8733" d="M50 75h1v1h-1z"/><path fill="#231815" d="M51 75h1v1h-1zM52 75h1v1h-1zM53 75h1v1h-1zM54 75h1v1h-1zM1 76h1v1H1zM2 76h1v1H2zM3 76h1v1H3z"/><path fill="#C1B44F" d="M4 76h1v1H4z"/><path fill="#EDCB4D" d="M5 76h1v1H5z"/><path fill="#E8BA41" d="M6 76h1v1H6zM7 76h1v1H7zM8 76h1v1H8zM9 76h1v1H9zM10 76h1v1h-1zM11 76h1v1h-1zM12 76h1v1h-1zM13 76h1v1h-1zM14 76h1v1h-1zM15 76h1v1h-1zM16 76h1v1h-1z"/><path fill="#F3E694" d="M17 76h1v1h-1z"/><path fill="#F6F5B0" d="M18 76h1v1h-1zM19 76h1v1h-1zM20 76h1v1h-1zM21 76h1v1h-1zM22 76h1v1h-1zM23 76h1v1h-1zM24 76h1v1h-1z"/><path fill="#F3E694" d="M25 76h1v1h-1z"/><path fill="#E8BA41" d="M26 76h1v1h-1zM27 76h1v1h-1zM28 76h1v1h-1zM29 76h1v1h-1zM30 76h1v1h-1zM31 76h1v1h-1zM32 76h1v1h-1zM33 76h1v1h-1zM34 76h1v1h-1zM35 76h1v1h-1zM36 76h1v1h-1zM37 76h1v1h-1zM38 76h1v1h-1zM39 76h1v1h-1zM40 76h1v1h-1zM41 76h1v1h-1zM42 76h1v1h-1zM43 76h1v1h-1zM44 76h1v1h-1zM45 76h1v1h-1zM46 76h1v1h-1zM47 76h1v1h-1zM48 76h1v1h-1z"/><path fill="#C39C39" d="M49 76h1v1h-1z"/><path fill="#2F2218" d="M50 76h1v1h-1z"/><path fill="#231815" d="M51 76h1v1h-1zM52 76h1v1h-1zM53 76h1v1h-1zM1 77h1v1H1zM2 77h1v1H2zM3 77h1v1H3z"/><path fill="#BDA644" d="M4 77h1v1H4z"/><path fill="#E8BA41" d="M5 77h1v1H5zM6 77h1v1H6zM7 77h1v1H7zM8 77h1v1H8zM9 77h1v1H9zM10 77h1v1h-1zM11 77h1v1h-1zM12 77h1v1h-1zM13 77h1v1h-1zM14 77h1v1h-1zM15 77h1v1h-1zM16 77h1v1h-1z"/><path fill="#F3E694" d="M17 77h1v1h-1z"/><path fill="#F6F5B0" d="M18 77h1v1h-1zM19 77h1v1h-1zM20 77h1v1h-1zM21 77h1v1h-1zM22 77h1v1h-1zM23 77h1v1h-1zM24 77h1v1h-1z"/><path fill="#F3E694" d="M25 77h1v1h-1z"/><path fill="#E8BA41" d="M26 77h1v1h-1zM27 77h1v1h-1zM28 77h1v1h-1zM29 77h1v1h-1zM30 77h1v1h-1zM31 77h1v1h-1zM32 77h1v1h-1zM33 77h1v1h-1zM34 77h1v1h-1zM35 77h1v1h-1zM36 77h1v1h-1zM37 77h1v1h-1zM38 77h1v1h-1zM39 77h1v1h-1zM40 77h1v1h-1zM41 77h1v1h-1zM42 77h1v1h-1zM43 77h1v1h-1zM44 77h1v1h-1zM45 77h1v1h-1zM46 77h1v1h-1zM47 77h1v1h-1z"/><path fill="#C39C39" d="M48 77h1v1h-1z"/><path fill="#2F2218" d="M49 77h1v1h-1z"/><path fill="#231815" d="M50 77h1v1h-1zM51 77h1v1h-1zM52 77h1v1h-1zM53 77h1v1h-1zM1 78h1v1H1zM2 78h1v1H2zM3 78h1v1H3z"/><path fill="#B79236" d="M4 78h1v1H4z"/><path fill="#E8BA41" d="M5 78h1v1H5zM6 78h1v1H6zM7 78h1v1H7zM8 78h1v1H8zM9 78h1v1H9zM10 78h1v1h-1zM11 78h1v1h-1zM12 78h1v1h-1zM13 78h1v1h-1zM14 78h1v1h-1zM15 78h1v1h-1zM16 78h1v1h-1z"/><path fill="#F3E694" d="M17 78h1v1h-1z"/><path fill="#F6F5B0" d="M18 78h1v1h-1zM19 78h1v1h-1zM20 78h1v1h-1zM21 78h1v1h-1zM22 78h1v1h-1zM23 78h1v1h-1zM24 78h1v1h-1z"/><path fill="#F3E694" d="M25 78h1v1h-1z"/><path fill="#E8BA41" d="M26 78h1v1h-1zM27 78h1v1h-1zM28 78h1v1h-1zM29 78h1v1h-1zM30 78h1v1h-1zM31 78h1v1h-1zM32 78h1v1h-1zM33 78h1v1h-1zM34 78h1v1h-1zM35 78h1v1h-1zM36 78h1v1h-1zM37 78h1v1h-1zM38 78h1v1h-1zM39 78h1v1h-1zM40 78h1v1h-1zM41 78h1v1h-1zM42 78h1v1h-1zM43 78h1v1h-1zM44 78h1v1h-1zM45 78h1v1h-1zM46 78h1v1h-1z"/><path fill="#B79236" d="M47 78h1v1h-1z"/><path fill="#2F2218" d="M48 78h1v1h-1z"/><path fill="#231815" d="M49 78h1v1h-1zM50 78h1v1h-1zM51 78h1v1h-1zM52 78h1v1h-1zM1 79h1v1H1zM2 79h1v1H2zM3 79h1v1H3z"/><path fill="#86692B" d="M4 79h1v1H4z"/><path fill="#E8BA41" d="M5 79h1v1H5zM6 79h1v1H6zM7 79h1v1H7zM8 79h1v1H8zM9 79h1v1H9zM10 79h1v1h-1zM11 79h1v1h-1zM12 79h1v1h-1zM13 79h1v1h-1zM14 79h1v1h-1zM15 79h1v1h-1zM16 79h1v1h-1z"/><path fill="#F3E694" d="M17 79h1v1h-1z"/><path fill="#F6F5B0" d="M18 79h1v1h-1zM19 79h1v1h-1zM20 79h1v1h-1zM21 79h1v1h-1zM22 79h1v1h-1zM23 79h1v1h-1zM24 79h1v1h-1z"/><path fill="#F3E694" d="M25 79h1v1h-1z"/><path fill="#E8BA41" d="M26 79h1v1h-1zM27 79h1v1h-1zM28 79h1v1h-1zM29 79h1v1h-1zM30 79h1v1h-1zM31 79h1v1h-1zM32 79h1v1h-1zM33 79h1v1h-1zM34 79h1v1h-1zM35 79h1v1h-1zM36 79h1v1h-1zM37 79h1v1h-1zM38 79h1v1h-1zM39 79h1v1h-1zM40 79h1v1h-1zM41 79h1v1h-1zM42 79h1v1h-1zM43 79h1v1h-1zM44 79h1v1h-1zM45 79h1v1h-1z"/><path fill="#86692B" d="M46 79h1v1h-1z"/><path fill="#231815" d="M47 79h1v1h-1zM48 79h1v1h-1zM49 79h1v1h-1zM50 79h1v1h-1zM51 79h1v1h-1zM1 80h1v1H1zM2 80h1v1H2zM3 80h1v1H3z"/><path fill="#3C2C1B" d="M4 80h1v1H4z"/><path fill="#E8BA41" d="M5 80h1v1H5zM6 80h1v1H6zM7 80h1v1H7zM8 80h1v1H8zM9 80h1v1H9zM10 80h1v1h-1zM11 80h1v1h-1zM12 80h1v1h-1zM13 80h1v1h-1zM14 80h1v1h-1zM15 80h1v1h-1zM16 80h1v1h-1z"/><path fill="#F3E694" d="M17 80h1v1h-1z"/><path fill="#F6F5B0" d="M18 80h1v1h-1zM19 80h1v1h-1zM20 80h1v1h-1zM21 80h1v1h-1zM22 80h1v1h-1zM23 80h1v1h-1zM24 80h1v1h-1z"/><path fill="#F3E694" d="M25 80h1v1h-1z"/><path fill="#E8BA41" d="M26 80h1v1h-1zM27 80h1v1h-1zM28 80h1v1h-1zM29 80h1v1h-1zM30 80h1v1h-1zM31 80h1v1h-1zM32 80h1v1h-1zM33 80h1v1h-1zM34 80h1v1h-1zM35 80h1v1h-1zM36 80h1v1h-1zM37 80h1v1h-1zM38 80h1v1h-1zM39 80h1v1h-1zM40 80h1v1h-1zM41 80h1v1h-1zM42 80h1v1h-1zM43 80h1v1h-1z"/><path fill="#B79236" d="M44 80h1v1h-1z"/><path fill="#48361D" d="M45 80h1v1h-1z"/><path fill="#231815" d="M46 80h1v1h-1zM47 80h1v1h-1zM48 80h1v1h-1zM49 80h1v1h-1zM50 80h1v1h-1zM1 81h1v1H1zM2 81h1v1H2zM3 81h1v1H3zM4 81h1v1H4z"/><path fill="#92732E" d="M5 81h1v1H5z"/><path fill="#E8BA41" d="M6 81h1v1H6zM7 81h1v1H7zM8 81h1v1H8zM9 81h1v1H9zM10 81h1v1h-1zM11 81h1v1h-1zM12 81h1v1h-1zM13 81h1v1h-1zM14 81h1v1h-1zM15 81h1v1h-1zM16 81h1v1h-1z"/><path fill="#F3E694" d="M17 81h1v1h-1z"/><path fill="#F6F5B0" d="M18 81h1v1h-1zM19 81h1v1h-1zM20 81h1v1h-1zM21 81h1v1h-1zM22 81h1v1h-1zM23 81h1v1h-1zM24 81h1v1h-1z"/><path fill="#F3E694" d="M25 81h1v1h-1z"/><path fill="#E8BA41" d="M26 81h1v1h-1zM27 81h1v1h-1zM28 81h1v1h-1zM29 81h1v1h-1zM30 81h1v1h-1zM31 81h1v1h-1zM32 81h1v1h-1zM33 81h1v1h-1zM34 81h1v1h-1zM35 81h1v1h-1zM36 81h1v1h-1zM37 81h1v1h-1zM38 81h1v1h-1zM39 81h1v1h-1zM40 81h1v1h-1zM41 81h1v1h-1z"/><path fill="#CFA63C" d="M42 81h1v1h-1z"/><path fill="#6D5526" d="M43 81h1v1h-1z"/><path fill="#231815" d="M44 81h1v1h-1zM45 81h1v1h-1zM46 81h1v1h-1zM47 81h1v1h-1zM48 81h1v1h-1zM49 81h1v1h-1zM2 82h1v1H2zM3 82h1v1H3zM4 82h1v1H4zM5 82h1v1H5z"/><path fill="#9E7D31" d="M6 82h1v1H6z"/><path fill="#E8BA41" d="M7 82h1v1H7zM8 82h1v1H8zM9 82h1v1H9zM10 82h1v1h-1zM11 82h1v1h-1zM12 82h1v1h-1zM13 82h1v1h-1zM14 82h1v1h-1zM15 82h1v1h-1zM16 82h1v1h-1z"/><path fill="#F3E694" d="M17 82h1v1h-1z"/><path fill="#F6F5B0" d="M18 82h1v1h-1zM19 82h1v1h-1zM20 82h1v1h-1zM21 82h1v1h-1zM22 82h1v1h-1zM23 82h1v1h-1zM24 82h1v1h-1z"/><path fill="#F3E694" d="M25 82h1v1h-1z"/><path fill="#E8BA41" d="M26 82h1v1h-1zM27 82h1v1h-1zM28 82h1v1h-1zM29 82h1v1h-1zM30 82h1v1h-1zM31 82h1v1h-1zM32 82h1v1h-1zM33 82h1v1h-1zM34 82h1v1h-1zM35 82h1v1h-1zM36 82h1v1h-1zM37 82h1v1h-1zM38 82h1v1h-1zM39 82h1v1h-1z"/><path fill="#CFA63C" d="M40 82h1v1h-1z"/><path fill="#6D5526" d="M41 82h1v1h-1z"/><path fill="#231815" d="M42 82h1v1h-1zM43 82h1v1h-1zM44 82h1v1h-1zM45 82h1v1h-1zM46 82h1v1h-1zM47 82h1v1h-1zM2 83h1v1H2zM3 83h1v1H3zM4 83h1v1H4zM5 83h1v1H5zM6 83h1v1H6z"/><path fill="#6D5526" d="M7 83h1v1H7z"/><path fill="#DCB03E" d="M8 83h1v1H8z"/><path fill="#E8BA41" d="M9 83h1v1H9zM10 83h1v1h-1zM11 83h1v1h-1zM12 83h1v1h-1zM13 83h1v1h-1zM14 83h1v1h-1zM15 83h1v1h-1zM16 83h1v1h-1z"/><path fill="#F3E694" d="M17 83h1v1h-1z"/><path fill="#F6F5B0" d="M18 83h1v1h-1zM19 83h1v1h-1zM20 83h1v1h-1zM21 83h1v1h-1zM22 83h1v1h-1zM23 83h1v1h-1zM24 83h1v1h-1z"/><path fill="#F3E694" d="M25 83h1v1h-1z"/><path fill="#E8BA41" d="M26 83h1v1h-1zM27 83h1v1h-1zM28 83h1v1h-1zM29 83h1v1h-1zM30 83h1v1h-1zM31 83h1v1h-1zM32 83h1v1h-1zM33 83h1v1h-1zM34 83h1v1h-1zM35 83h1v1h-1zM36 83h1v1h-1zM37 83h1v1h-1z"/><path fill="#B79236" d="M38 83h1v1h-1z"/><path fill="#6D5526" d="M39 83h1v1h-1z"/><path fill="#231815" d="M40 83h1v1h-1zM41 83h1v1h-1zM42 83h1v1h-1zM43 83h1v1h-1zM44 83h1v1h-1zM45 83h1v1h-1zM46 83h1v1h-1zM3 84h1v1H3zM4 84h1v1H4zM5 84h1v1H5zM6 84h1v1H6zM7 84h1v1H7z"/><path fill="#2F2218" d="M8 84h1v1H8z"/><path fill="#86692B" d="M9 84h1v1H9z"/><path fill="#DCB03E" d="M10 84h1v1h-1z"/><path fill="#E8BA41" d="M11 84h1v1h-1zM12 84h1v1h-1zM13 84h1v1h-1zM14 84h1v1h-1zM15 84h1v1h-1zM16 84h1v1h-1z"/><path fill="#F3E694" d="M17 84h1v1h-1z"/><path fill="#F6F5B0" d="M18 84h1v1h-1zM19 84h1v1h-1zM20 84h1v1h-1zM21 84h1v1h-1zM22 84h1v1h-1zM23 84h1v1h-1zM24 84h1v1h-1z"/><path fill="#F3E694" d="M25 84h1v1h-1z"/><path fill="#E8BA41" d="M26 84h1v1h-1zM27 84h1v1h-1zM28 84h1v1h-1zM29 84h1v1h-1zM30 84h1v1h-1zM31 84h1v1h-1zM32 84h1v1h-1zM33 84h1v1h-1zM34 84h1v1h-1z"/><path fill="#CFA63C" d="M35 84h1v1h-1z"/><path fill="#86692B" d="M36 84h1v1h-1z"/><path fill="#3C2C1B" d="M37 84h1v1h-1z"/><path fill="#231815" d="M38 84h1v1h-1zM39 84h1v1h-1zM40 84h1v1h-1zM41 84h1v1h-1zM42 84h1v1h-1zM43 84h1v1h-1zM44 84h1v1h-1zM4 85h1v1H4zM5 85h1v1H5zM6 85h1v1H6zM7 85h1v1H7zM8 85h1v1H8zM9 85h1v1H9zM10 85h1v1h-1z"/><path fill="#614B23" d="M11 85h1v1h-1z"/><path fill="#9E7D31" d="M12 85h1v1h-1z"/><path fill="#CFA63C" d="M13 85h1v1h-1z"/><path fill="#E8BA41" d="M14 85h1v1h-1zM15 85h1v1h-1zM16 85h1v1h-1z"/><path fill="#F3E694" d="M17 85h1v1h-1z"/><path fill="#F6F5B0" d="M18 85h1v1h-1zM19 85h1v1h-1zM20 85h1v1h-1zM21 85h1v1h-1zM22 85h1v1h-1zM23 85h1v1h-1zM24 85h1v1h-1z"/><path fill="#F3E694" d="M25 85h1v1h-1z"/><path fill="#E8BA41" d="M26 85h1v1h-1zM27 85h1v1h-1zM28 85h1v1h-1zM29 85h1v1h-1zM30 85h1v1h-1z"/><path fill="#DCB03E" d="M31 85h1v1h-1z"/><path fill="#AA8733" d="M32 85h1v1h-1z"/><path fill="#795F28" d="M33 85h1v1h-1z"/><path fill="#3C2C1B" d="M34 85h1v1h-1z"/><path fill="#231815" d="M35 85h1v1h-1zM36 85h1v1h-1zM37 85h1v1h-1zM38 85h1v1h-1zM39 85h1v1h-1zM40 85h1v1h-1zM41 85h1v1h-1zM42 85h1v1h-1zM6 86h1v1H6zM7 86h1v1H7zM8 86h1v1H8zM9 86h1v1H9zM10 86h1v1h-1zM11 86h1v1h-1zM12 86h1v1h-1zM13 86h1v1h-1z"/><path fill="#2F2218" d="M14 86h1v1h-1z"/><path fill="#544120" d="M15 86h1v1h-1z"/><path fill="#86692B" d="M16 86h1v1h-1z"/><path fill="#988D5E" d="M17 86h1v1h-1z"/><path fill="#C1BE89" d="M18 86h1v1h-1zM19 86h1v1h-1zM20 86h1v1h-1z"/><path fill="#F6F5B0" d="M21 86h1v1h-1zM22 86h1v1h-1zM23 86h1v1h-1zM24 86h1v1h-1z"/><path fill="#CCC17E" d="M25 86h1v1h-1z"/><path fill="#B79236" d="M26 86h1v1h-1z"/><path fill="#AA8733" d="M27 86h1v1h-1z"/><path fill="#86692B" d="M28 86h1v1h-1z"/><path fill="#6D5526" d="M29 86h1v1h-1z"/><path fill="#48361D" d="M30 86h1v1h-1z"/><path fill="#231815" d="M31 86h1v1h-1zM32 86h1v1h-1zM33 86h1v1h-1zM34 86h1v1h-1zM35 86h1v1h-1zM36 86h1v1h-1zM37 86h1v1h-1zM38 86h1v1h-1zM39 86h1v1h-1zM40 86h1v1h-1zM7 87h1v1H7zM8 87h1v1H8zM9 87h1v1H9zM10 87h1v1h-1zM11 87h1v1h-1zM12 87h1v1h-1zM13 87h1v1h-1zM14 87h1v1h-1zM15 87h1v1h-1zM16 87h1v1h-1zM17 87h1v1h-1zM18 87h1v1h-1zM19 87h1v1h-1zM20 87h1v1h-1zM21 87h1v1h-1zM22 87h1v1h-1zM23 87h1v1h-1zM24 87h1v1h-1zM25 87h1v1h-1zM26 87h1v1h-1zM27 87h1v1h-1zM28 87h1v1h-1zM29 87h1v1h-1zM30 87h1v1h-1zM31 87h1v1h-1zM32 87h1v1h-1zM33 87h1v1h-1zM34 87h1v1h-1zM35 87h1v1h-1zM36 87h1v1h-1zM37 87h1v1h-1zM38 87h1v1h-1zM10 88h1v1h-1zM11 88h1v1h-1zM12 88h1v1h-1zM13 88h1v1h-1zM14 88h1v1h-1zM15 88h1v1h-1zM16 88h1v1h-1zM17 88h1v1h-1zM18 88h1v1h-1zM19 88h1v1h-1zM20 88h1v1h-1zM21 88h1v1h-1zM22 88h1v1h-1zM23 88h1v1h-1zM24 88h1v1h-1zM25 88h1v1h-1zM26 88h1v1h-1zM27 88h1v1h-1zM28 88h1v1h-1zM29 88h1v1h-1zM30 88h1v1h-1zM31 88h1v1h-1zM32 88h1v1h-1zM33 88h1v1h-1zM34 88h1v1h-1zM35 88h1v1h-1zM14 89h1v1h-1zM15 89h1v1h-1zM16 89h1v1h-1zM17 89h1v1h-1zM18 89h1v1h-1zM19 89h1v1h-1zM20 89h1v1h-1zM21 89h1v1h-1zM22 89h1v1h-1zM23 89h1v1h-1zM24 89h1v1h-1zM25 89h1v1h-1zM26 89h1v1h-1zM27 89h1v1h-1zM28 89h1v1h-1zM29 89h1v1h-1zM30 89h1v1h-1zM31 89h1v1h-1z"/></svg>