<svg baseProfile="full" height="76" width="90" xmlns="http://www.w3.org/2000/svg"><path fill="#231815" d="M63 0h1v1h-1zM64 0h1v1h-1zM65 0h1v1h-1zM66 0h1v1h-1zM67 0h1v1h-1zM68 0h1v1h-1zM69 0h1v1h-1zM70 0h1v1h-1zM71 0h1v1h-1zM72 0h1v1h-1zM73 0h1v1h-1zM74 0h1v1h-1zM75 0h1v1h-1zM76 0h1v1h-1zM77 0h1v1h-1zM59 1h1v1h-1zM60 1h1v1h-1zM61 1h1v1h-1zM62 1h1v1h-1zM63 1h1v1h-1zM64 1h1v1h-1zM65 1h1v1h-1zM66 1h1v1h-1zM67 1h1v1h-1zM68 1h1v1h-1zM69 1h1v1h-1zM70 1h1v1h-1zM71 1h1v1h-1zM72 1h1v1h-1zM73 1h1v1h-1zM74 1h1v1h-1zM75 1h1v1h-1zM76 1h1v1h-1zM77 1h1v1h-1zM78 1h1v1h-1zM79 1h1v1h-1zM80 1h1v1h-1zM57 2h1v1h-1zM58 2h1v1h-1zM59 2h1v1h-1zM60 2h1v1h-1zM61 2h1v1h-1zM62 2h1v1h-1zM63 2h1v1h-1zM64 2h1v1h-1zM65 2h1v1h-1zM66 2h1v1h-1zM67 2h1v1h-1zM68 2h1v1h-1zM69 2h1v1h-1zM70 2h1v1h-1zM71 2h1v1h-1zM72 2h1v1h-1zM73 2h1v1h-1zM74 2h1v1h-1zM75 2h1v1h-1zM76 2h1v1h-1zM77 2h1v1h-1zM78 2h1v1h-1zM79 2h1v1h-1zM80 2h1v1h-1zM81 2h1v1h-1zM55 3h1v1h-1zM56 3h1v1h-1zM57 3h1v1h-1zM58 3h1v1h-1zM59 3h1v1h-1zM60 3h1v1h-1zM61 3h1v1h-1zM62 3h1v1h-1z"/><path fill="#2A1C16" d="M63 3h1v1h-1z"/><path fill="#412919" d="M64 3h1v1h-1z"/><path fill="#5F3B1D" d="M65 3h1v1h-1z"/><path fill="#75471F" d="M66 3h1v1h-1z"/><path fill="#7C4C20" d="M67 3h1v1h-1z"/><path fill="#9A5D24" d="M68 3h1v1h-1zM69 3h1v1h-1zM70 3h1v1h-1zM71 3h1v1h-1zM72 3h1v1h-1z"/><path fill="#7C4C20" d="M73 3h1v1h-1z"/><path fill="#835B22" d="M74 3h1v1h-1z"/><path fill="#6C4C1F" d="M75 3h1v1h-1z"/><path fill="#3E2B19" d="M76 3h1v1h-1z"/><path fill="#231815" d="M77 3h1v1h-1zM78 3h1v1h-1zM79 3h1v1h-1zM80 3h1v1h-1zM81 3h1v1h-1zM82 3h1v1h-1zM83 3h1v1h-1zM53 4h1v1h-1zM54 4h1v1h-1zM55 4h1v1h-1zM56 4h1v1h-1zM57 4h1v1h-1zM58 4h1v1h-1zM59 4h1v1h-1z"/><path fill="#322117" d="M60 4h1v1h-1z"/><path fill="#57361C" d="M61 4h1v1h-1z"/><path fill="#845021" d="M62 4h1v1h-1z"/><path fill="#9A5D24" d="M63 4h1v1h-1zM64 4h1v1h-1zM65 4h1v1h-1zM66 4h1v1h-1zM67 4h1v1h-1zM68 4h1v1h-1zM69 4h1v1h-1zM70 4h1v1h-1zM71 4h1v1h-1zM72 4h1v1h-1zM73 4h1v1h-1z"/><path fill="#A26826" d="M74 4h1v1h-1z"/><path fill="#B47F29" d="M75 4h1v1h-1zM76 4h1v1h-1z"/><path fill="#A27227" d="M77 4h1v1h-1z"/><path fill="#6C4C1F" d="M78 4h1v1h-1z"/><path fill="#2C1E16" d="M79 4h1v1h-1z"/><path fill="#231815" d="M80 4h1v1h-1zM81 4h1v1h-1zM82 4h1v1h-1zM83 4h1v1h-1zM84 4h1v1h-1zM52 5h1v1h-1zM53 5h1v1h-1zM54 5h1v1h-1zM55 5h1v1h-1zM56 5h1v1h-1zM57 5h1v1h-1z"/><path fill="#412919" d="M58 5h1v1h-1z"/><path fill="#75471F" d="M59 5h1v1h-1z"/><path fill="#9A5D24" d="M60 5h1v1h-1zM61 5h1v1h-1zM62 5h1v1h-1zM63 5h1v1h-1zM64 5h1v1h-1zM65 5h1v1h-1zM66 5h1v1h-1zM67 5h1v1h-1zM68 5h1v1h-1zM69 5h1v1h-1zM70 5h1v1h-1zM71 5h1v1h-1zM72 5h1v1h-1zM73 5h1v1h-1zM74 5h1v1h-1z"/><path fill="#AE7728" d="M75 5h1v1h-1z"/><path fill="#B47F29" d="M76 5h1v1h-1zM77 5h1v1h-1zM78 5h1v1h-1z"/><path fill="#AB7928" d="M79 5h1v1h-1z"/><path fill="#6C4C1F" d="M80 5h1v1h-1z"/><path fill="#231815" d="M81 5h1v1h-1zM82 5h1v1h-1zM83 5h1v1h-1zM84 5h1v1h-1zM85 5h1v1h-1zM50 6h1v1h-1zM51 6h1v1h-1zM52 6h1v1h-1zM53 6h1v1h-1zM54 6h1v1h-1zM55 6h1v1h-1z"/><path fill="#412919" d="M56 6h1v1h-1z"/><path fill="#8B5422" d="M57 6h1v1h-1z"/><path fill="#9A5D24" d="M58 6h1v1h-1zM59 6h1v1h-1zM60 6h1v1h-1zM61 6h1v1h-1zM62 6h1v1h-1zM63 6h1v1h-1zM64 6h1v1h-1zM65 6h1v1h-1zM66 6h1v1h-1zM67 6h1v1h-1zM68 6h1v1h-1zM69 6h1v1h-1zM70 6h1v1h-1zM71 6h1v1h-1zM72 6h1v1h-1zM73 6h1v1h-1zM74 6h1v1h-1z"/><path fill="#9D6125" d="M75 6h1v1h-1z"/><path fill="#B47F29" d="M76 6h1v1h-1zM77 6h1v1h-1zM78 6h1v1h-1zM79 6h1v1h-1zM80 6h1v1h-1z"/><path fill="#906524" d="M81 6h1v1h-1z"/><path fill="#2C1E16" d="M82 6h1v1h-1z"/><path fill="#231815" d="M83 6h1v1h-1zM84 6h1v1h-1zM85 6h1v1h-1zM86 6h1v1h-1zM49 7h1v1h-1zM50 7h1v1h-1zM51 7h1v1h-1zM52 7h1v1h-1zM53 7h1v1h-1z"/><path fill="#322117" d="M54 7h1v1h-1z"/><path fill="#7C4C20" d="M55 7h1v1h-1z"/><path fill="#9A5D24" d="M56 7h1v1h-1zM57 7h1v1h-1zM58 7h1v1h-1zM59 7h1v1h-1zM60 7h1v1h-1zM61 7h1v1h-1zM62 7h1v1h-1zM63 7h1v1h-1zM64 7h1v1h-1zM65 7h1v1h-1zM66 7h1v1h-1zM67 7h1v1h-1zM68 7h1v1h-1zM69 7h1v1h-1zM70 7h1v1h-1zM71 7h1v1h-1zM72 7h1v1h-1zM73 7h1v1h-1zM74 7h1v1h-1zM75 7h1v1h-1z"/><path fill="#A97027" d="M76 7h1v1h-1z"/><path fill="#B47F29" d="M77 7h1v1h-1zM78 7h1v1h-1zM79 7h1v1h-1zM80 7h1v1h-1zM81 7h1v1h-1z"/><path fill="#996C25" d="M82 7h1v1h-1z"/><path fill="#2C1E16" d="M83 7h1v1h-1z"/><path fill="#231815" d="M84 7h1v1h-1zM85 7h1v1h-1zM86 7h1v1h-1zM48 8h1v1h-1zM49 8h1v1h-1zM50 8h1v1h-1zM51 8h1v1h-1zM52 8h1v1h-1z"/><path fill="#57361C" d="M53 8h1v1h-1z"/><path fill="#9A5D24" d="M54 8h1v1h-1zM55 8h1v1h-1zM56 8h1v1h-1zM57 8h1v1h-1zM58 8h1v1h-1zM59 8h1v1h-1zM60 8h1v1h-1zM61 8h1v1h-1zM62 8h1v1h-1zM63 8h1v1h-1zM64 8h1v1h-1zM65 8h1v1h-1zM66 8h1v1h-1zM67 8h1v1h-1zM68 8h1v1h-1zM69 8h1v1h-1zM70 8h1v1h-1zM71 8h1v1h-1zM72 8h1v1h-1zM73 8h1v1h-1zM74 8h1v1h-1zM75 8h1v1h-1z"/><path fill="#9C5F24" d="M76 8h1v1h-1z"/><path fill="#B27D29" d="M77 8h1v1h-1z"/><path fill="#B47F29" d="M78 8h1v1h-1zM79 8h1v1h-1zM80 8h1v1h-1zM81 8h1v1h-1zM82 8h1v1h-1z"/><path fill="#906524" d="M83 8h1v1h-1z"/><path fill="#231815" d="M84 8h1v1h-1zM85 8h1v1h-1zM86 8h1v1h-1zM87 8h1v1h-1zM47 9h1v1h-1zM48 9h1v1h-1zM49 9h1v1h-1zM50 9h1v1h-1z"/><path fill="#2A1C16" d="M51 9h1v1h-1z"/><path fill="#7C4C20" d="M52 9h1v1h-1z"/><path fill="#9A5D24" d="M53 9h1v1h-1zM54 9h1v1h-1zM55 9h1v1h-1zM56 9h1v1h-1zM57 9h1v1h-1zM58 9h1v1h-1zM59 9h1v1h-1zM60 9h1v1h-1zM61 9h1v1h-1zM62 9h1v1h-1zM63 9h1v1h-1zM64 9h1v1h-1zM65 9h1v1h-1zM66 9h1v1h-1zM67 9h1v1h-1zM68 9h1v1h-1zM69 9h1v1h-1zM70 9h1v1h-1zM71 9h1v1h-1zM72 9h1v1h-1zM73 9h1v1h-1zM74 9h1v1h-1zM75 9h1v1h-1zM76 9h1v1h-1z"/><path fill="#A76E27" d="M77 9h1v1h-1z"/><path fill="#B47F29" d="M78 9h1v1h-1zM79 9h1v1h-1zM80 9h1v1h-1zM81 9h1v1h-1zM82 9h1v1h-1zM83 9h1v1h-1z"/><path fill="#62451E" d="M84 9h1v1h-1z"/><path fill="#231815" d="M85 9h1v1h-1zM86 9h1v1h-1zM87 9h1v1h-1zM46 10h1v1h-1zM47 10h1v1h-1zM48 10h1v1h-1zM49 10h1v1h-1z"/><path fill="#392518" d="M50 10h1v1h-1z"/><path fill="#8B5422" d="M51 10h1v1h-1z"/><path fill="#9A5D24" d="M52 10h1v1h-1zM53 10h1v1h-1zM54 10h1v1h-1zM55 10h1v1h-1zM56 10h1v1h-1zM57 10h1v1h-1zM58 10h1v1h-1zM59 10h1v1h-1zM60 10h1v1h-1zM61 10h1v1h-1zM62 10h1v1h-1zM63 10h1v1h-1zM64 10h1v1h-1zM65 10h1v1h-1zM66 10h1v1h-1zM67 10h1v1h-1zM68 10h1v1h-1zM69 10h1v1h-1zM70 10h1v1h-1zM71 10h1v1h-1zM72 10h1v1h-1zM73 10h1v1h-1zM74 10h1v1h-1zM75 10h1v1h-1zM76 10h1v1h-1z"/><path fill="#9D6125" d="M77 10h1v1h-1z"/><path fill="#B47F29" d="M78 10h1v1h-1zM79 10h1v1h-1zM80 10h1v1h-1zM81 10h1v1h-1zM82 10h1v1h-1zM83 10h1v1h-1z"/><path fill="#AB7928" d="M84 10h1v1h-1z"/><path fill="#2C1E16" d="M85 10h1v1h-1z"/><path fill="#231815" d="M86 10h1v1h-1zM87 10h1v1h-1zM88 10h1v1h-1zM45 11h1v1h-1zM46 11h1v1h-1zM47 11h1v1h-1zM48 11h1v1h-1z"/><path fill="#392518" d="M49 11h1v1h-1z"/><path fill="#935923" d="M50 11h1v1h-1z"/><path fill="#9A5D24" d="M51 11h1v1h-1zM52 11h1v1h-1zM53 11h1v1h-1zM54 11h1v1h-1zM55 11h1v1h-1zM56 11h1v1h-1zM57 11h1v1h-1zM58 11h1v1h-1zM59 11h1v1h-1zM60 11h1v1h-1zM61 11h1v1h-1zM62 11h1v1h-1zM63 11h1v1h-1zM64 11h1v1h-1zM65 11h1v1h-1zM66 11h1v1h-1zM67 11h1v1h-1zM68 11h1v1h-1zM69 11h1v1h-1zM70 11h1v1h-1zM71 11h1v1h-1zM72 11h1v1h-1zM73 11h1v1h-1zM74 11h1v1h-1zM75 11h1v1h-1zM76 11h1v1h-1zM77 11h1v1h-1z"/><path fill="#AA7227" d="M78 11h1v1h-1z"/><path fill="#B47F29" d="M79 11h1v1h-1zM80 11h1v1h-1zM81 11h1v1h-1zM82 11h1v1h-1zM83 11h1v1h-1zM84 11h1v1h-1z"/><path fill="#62451E" d="M85 11h1v1h-1z"/><path fill="#231815" d="M86 11h1v1h-1zM87 11h1v1h-1zM88 11h1v1h-1zM44 12h1v1h-1zM45 12h1v1h-1zM46 12h1v1h-1zM47 12h1v1h-1z"/><path fill="#392518" d="M48 12h1v1h-1z"/><path fill="#935923" d="M49 12h1v1h-1z"/><path fill="#9A5D24" d="M50 12h1v1h-1zM51 12h1v1h-1zM52 12h1v1h-1zM53 12h1v1h-1zM54 12h1v1h-1zM55 12h1v1h-1zM56 12h1v1h-1zM57 12h1v1h-1zM58 12h1v1h-1zM59 12h1v1h-1zM60 12h1v1h-1zM61 12h1v1h-1zM62 12h1v1h-1zM63 12h1v1h-1zM64 12h1v1h-1zM65 12h1v1h-1zM66 12h1v1h-1zM67 12h1v1h-1zM68 12h1v1h-1zM69 12h1v1h-1zM70 12h1v1h-1zM71 12h1v1h-1zM72 12h1v1h-1zM73 12h1v1h-1zM74 12h1v1h-1zM75 12h1v1h-1zM76 12h1v1h-1zM77 12h1v1h-1z"/><path fill="#A26826" d="M78 12h1v1h-1z"/><path fill="#B47F29" d="M79 12h1v1h-1zM80 12h1v1h-1zM81 12h1v1h-1zM82 12h1v1h-1zM83 12h1v1h-1zM84 12h1v1h-1z"/><path fill="#A27227" d="M85 12h1v1h-1z"/><path fill="#231815" d="M86 12h1v1h-1zM87 12h1v1h-1zM88 12h1v1h-1zM89 12h1v1h-1zM43 13h1v1h-1zM44 13h1v1h-1zM45 13h1v1h-1zM46 13h1v1h-1z"/><path fill="#322117" d="M47 13h1v1h-1z"/><path fill="#935923" d="M48 13h1v1h-1z"/><path fill="#9A5D24" d="M49 13h1v1h-1zM50 13h1v1h-1zM51 13h1v1h-1zM52 13h1v1h-1zM53 13h1v1h-1zM54 13h1v1h-1zM55 13h1v1h-1zM56 13h1v1h-1zM57 13h1v1h-1zM58 13h1v1h-1zM59 13h1v1h-1zM60 13h1v1h-1zM61 13h1v1h-1zM62 13h1v1h-1zM63 13h1v1h-1zM64 13h1v1h-1zM65 13h1v1h-1zM66 13h1v1h-1zM67 13h1v1h-1zM68 13h1v1h-1zM69 13h1v1h-1zM70 13h1v1h-1zM71 13h1v1h-1zM72 13h1v1h-1zM73 13h1v1h-1zM74 13h1v1h-1zM75 13h1v1h-1zM76 13h1v1h-1zM77 13h1v1h-1zM78 13h1v1h-1z"/><path fill="#B47F29" d="M79 13h1v1h-1zM80 13h1v1h-1zM81 13h1v1h-1zM82 13h1v1h-1zM83 13h1v1h-1zM84 13h1v1h-1zM85 13h1v1h-1z"/><path fill="#3E2B19" d="M86 13h1v1h-1z"/><path fill="#231815" d="M87 13h1v1h-1zM88 13h1v1h-1zM89 13h1v1h-1zM43 14h1v1h-1zM44 14h1v1h-1zM45 14h1v1h-1z"/><path fill="#2A1C16" d="M46 14h1v1h-1z"/><path fill="#845021" d="M47 14h1v1h-1z"/><path fill="#9A5D24" d="M48 14h1v1h-1zM49 14h1v1h-1zM50 14h1v1h-1zM51 14h1v1h-1zM52 14h1v1h-1zM53 14h1v1h-1zM54 14h1v1h-1zM55 14h1v1h-1zM56 14h1v1h-1zM57 14h1v1h-1zM58 14h1v1h-1zM59 14h1v1h-1zM60 14h1v1h-1zM61 14h1v1h-1zM62 14h1v1h-1zM63 14h1v1h-1zM64 14h1v1h-1zM65 14h1v1h-1z"/><path fill="#845021" d="M66 14h1v1h-1z"/><path fill="#663F1D" d="M67 14h1v1h-1z"/><path fill="#5F3B1D" d="M68 14h1v1h-1z"/><path fill="#482E1A" d="M69 14h1v1h-1z"/><path fill="#412919" d="M70 14h1v1h-1zM71 14h1v1h-1z"/><path fill="#5F3B1D" d="M72 14h1v1h-1z"/><path fill="#6D431E" d="M73 14h1v1h-1z"/><path fill="#935923" d="M74 14h1v1h-1z"/><path fill="#9A5D24" d="M75 14h1v1h-1zM76 14h1v1h-1zM77 14h1v1h-1zM78 14h1v1h-1z"/><path fill="#AE7728" d="M79 14h1v1h-1z"/><path fill="#B47F29" d="M80 14h1v1h-1zM81 14h1v1h-1zM82 14h1v1h-1zM83 14h1v1h-1zM84 14h1v1h-1zM85 14h1v1h-1z"/><path fill="#62451E" d="M86 14h1v1h-1z"/><path fill="#231815" d="M87 14h1v1h-1zM88 14h1v1h-1zM89 14h1v1h-1zM42 15h1v1h-1zM43 15h1v1h-1zM44 15h1v1h-1zM45 15h1v1h-1z"/><path fill="#663F1D" d="M46 15h1v1h-1z"/><path fill="#9A5D24" d="M47 15h1v1h-1zM48 15h1v1h-1zM49 15h1v1h-1zM50 15h1v1h-1zM51 15h1v1h-1zM52 15h1v1h-1zM53 15h1v1h-1zM54 15h1v1h-1zM55 15h1v1h-1zM56 15h1v1h-1zM57 15h1v1h-1zM58 15h1v1h-1zM59 15h1v1h-1zM60 15h1v1h-1zM61 15h1v1h-1zM62 15h1v1h-1z"/><path fill="#7C4C20" d="M63 15h1v1h-1z"/><path fill="#50321B" d="M64 15h1v1h-1z"/><path fill="#2A1C16" d="M65 15h1v1h-1z"/><path fill="#231815" d="M66 15h1v1h-1zM67 15h1v1h-1zM68 15h1v1h-1zM69 15h1v1h-1zM70 15h1v1h-1zM71 15h1v1h-1zM72 15h1v1h-1zM73 15h1v1h-1z"/><path fill="#392518" d="M74 15h1v1h-1z"/><path fill="#9A5D24" d="M75 15h1v1h-1zM76 15h1v1h-1zM77 15h1v1h-1zM78 15h1v1h-1z"/><path fill="#A76E27" d="M79 15h1v1h-1z"/><path fill="#B47F29" d="M80 15h1v1h-1zM81 15h1v1h-1zM82 15h1v1h-1zM83 15h1v1h-1zM84 15h1v1h-1zM85 15h1v1h-1z"/><path fill="#815D28" d="M86 15h1v1h-1z"/><path fill="#231815" d="M87 15h1v1h-1zM88 15h1v1h-1zM89 15h1v1h-1zM42 16h1v1h-1zM43 16h1v1h-1zM44 16h1v1h-1z"/><path fill="#412919" d="M45 16h1v1h-1z"/><path fill="#9A5D24" d="M46 16h1v1h-1zM47 16h1v1h-1zM48 16h1v1h-1zM49 16h1v1h-1zM50 16h1v1h-1zM51 16h1v1h-1zM52 16h1v1h-1zM53 16h1v1h-1zM54 16h1v1h-1zM55 16h1v1h-1zM56 16h1v1h-1zM57 16h1v1h-1zM58 16h1v1h-1zM59 16h1v1h-1zM60 16h1v1h-1z"/><path fill="#7C4C20" d="M61 16h1v1h-1z"/><path fill="#412919" d="M62 16h1v1h-1z"/><path fill="#231815" d="M63 16h1v1h-1zM64 16h1v1h-1zM65 16h1v1h-1zM66 16h1v1h-1zM67 16h1v1h-1zM68 16h1v1h-1zM69 16h1v1h-1zM70 16h1v1h-1zM71 16h1v1h-1zM72 16h1v1h-1zM73 16h1v1h-1zM74 16h1v1h-1z"/><path fill="#75471F" d="M75 16h1v1h-1z"/><path fill="#9A5D24" d="M76 16h1v1h-1zM77 16h1v1h-1zM78 16h1v1h-1z"/><path fill="#A56C26" d="M79 16h1v1h-1z"/><path fill="#B47F29" d="M80 16h1v1h-1zM81 16h1v1h-1zM82 16h1v1h-1zM83 16h1v1h-1zM84 16h1v1h-1z"/><path fill="#BC8837" d="M85 16h1v1h-1z"/><path fill="#9F773F" d="M86 16h1v1h-1z"/><path fill="#231815" d="M87 16h1v1h-1zM88 16h1v1h-1zM89 16h1v1h-1zM41 17h1v1h-1zM42 17h1v1h-1zM43 17h1v1h-1z"/><path fill="#2A1C16" d="M44 17h1v1h-1z"/><path fill="#8B5422" d="M45 17h1v1h-1z"/><path fill="#9A5D24" d="M46 17h1v1h-1zM47 17h1v1h-1zM48 17h1v1h-1zM49 17h1v1h-1zM50 17h1v1h-1zM51 17h1v1h-1zM52 17h1v1h-1zM53 17h1v1h-1zM54 17h1v1h-1zM55 17h1v1h-1zM56 17h1v1h-1zM57 17h1v1h-1zM58 17h1v1h-1z"/><path fill="#8B5422" d="M59 17h1v1h-1z"/><path fill="#412919" d="M60 17h1v1h-1z"/><path fill="#231815" d="M61 17h1v1h-1zM62 17h1v1h-1zM63 17h1v1h-1zM64 17h1v1h-1zM65 17h1v1h-1zM66 17h1v1h-1zM67 17h1v1h-1zM68 17h1v1h-1zM69 17h1v1h-1zM70 17h1v1h-1zM71 17h1v1h-1zM72 17h1v1h-1zM73 17h1v1h-1zM74 17h1v1h-1z"/><path fill="#5F3B1D" d="M75 17h1v1h-1z"/><path fill="#9A5D24" d="M76 17h1v1h-1zM77 17h1v1h-1zM78 17h1v1h-1z"/><path fill="#A16625" d="M79 17h1v1h-1z"/><path fill="#B47F29" d="M80 17h1v1h-1zM81 17h1v1h-1zM82 17h1v1h-1z"/><path fill="#B98532" d="M83 17h1v1h-1z"/><path fill="#C39044" d="M84 17h1v1h-1z"/><path fill="#C8964D" d="M85 17h1v1h-1z"/><path fill="#9F773F" d="M86 17h1v1h-1z"/><path fill="#231815" d="M87 17h1v1h-1zM88 17h1v1h-1zM89 17h1v1h-1zM41 18h1v1h-1zM42 18h1v1h-1zM43 18h1v1h-1z"/><path fill="#5F3B1D" d="M44 18h1v1h-1z"/><path fill="#9A5D24" d="M45 18h1v1h-1zM46 18h1v1h-1zM47 18h1v1h-1zM48 18h1v1h-1zM49 18h1v1h-1zM50 18h1v1h-1zM51 18h1v1h-1zM52 18h1v1h-1zM53 18h1v1h-1zM54 18h1v1h-1zM55 18h1v1h-1zM56 18h1v1h-1zM57 18h1v1h-1z"/><path fill="#7C4C20" d="M58 18h1v1h-1z"/><path fill="#2A1C16" d="M59 18h1v1h-1z"/><path fill="#231815" d="M60 18h1v1h-1zM61 18h1v1h-1zM62 18h1v1h-1zM63 18h1v1h-1zM64 18h1v1h-1zM65 18h1v1h-1zM72 18h1v1h-1zM73 18h1v1h-1zM74 18h1v1h-1z"/><path fill="#5F3B1D" d="M75 18h1v1h-1z"/><path fill="#9A5D24" d="M76 18h1v1h-1zM77 18h1v1h-1zM78 18h1v1h-1z"/><path fill="#A3682A" d="M79 18h1v1h-1z"/><path fill="#BE8B3B" d="M80 18h1v1h-1zM81 18h1v1h-1z"/><path fill="#C49246" d="M82 18h1v1h-1z"/><path fill="#C8964D" d="M83 18h1v1h-1zM84 18h1v1h-1zM85 18h1v1h-1z"/><path fill="#9F773F" d="M86 18h1v1h-1z"/><path fill="#231815" d="M87 18h1v1h-1zM88 18h1v1h-1zM89 18h1v1h-1zM40 19h1v1h-1zM41 19h1v1h-1zM42 19h1v1h-1z"/><path fill="#2A1C16" d="M43 19h1v1h-1z"/><path fill="#935923" d="M44 19h1v1h-1z"/><path fill="#9A5D24" d="M45 19h1v1h-1zM46 19h1v1h-1zM47 19h1v1h-1zM48 19h1v1h-1zM49 19h1v1h-1zM50 19h1v1h-1zM51 19h1v1h-1zM52 19h1v1h-1zM53 19h1v1h-1zM54 19h1v1h-1zM55 19h1v1h-1zM56 19h1v1h-1z"/><path fill="#6D431E" d="M57 19h1v1h-1z"/><path fill="#231815" d="M58 19h1v1h-1zM59 19h1v1h-1zM60 19h1v1h-1zM61 19h1v1h-1zM62 19h1v1h-1zM63 19h1v1h-1zM72 19h1v1h-1zM73 19h1v1h-1zM74 19h1v1h-1z"/><path fill="#5F3B1D" d="M75 19h1v1h-1z"/><path fill="#9A5D24" d="M76 19h1v1h-1zM77 19h1v1h-1zM78 19h1v1h-1z"/><path fill="#B17A39" d="M79 19h1v1h-1z"/><path fill="#C8964D" d="M80 19h1v1h-1zM81 19h1v1h-1zM82 19h1v1h-1zM83 19h1v1h-1zM84 19h1v1h-1zM85 19h1v1h-1z"/><path fill="#9F773F" d="M86 19h1v1h-1z"/><path fill="#231815" d="M87 19h1v1h-1zM88 19h1v1h-1zM89 19h1v1h-1zM40 20h1v1h-1zM41 20h1v1h-1zM42 20h1v1h-1z"/><path fill="#5F3B1D" d="M43 20h1v1h-1z"/><path fill="#9A5D24" d="M44 20h1v1h-1zM45 20h1v1h-1zM46 20h1v1h-1zM47 20h1v1h-1zM48 20h1v1h-1zM49 20h1v1h-1zM50 20h1v1h-1zM51 20h1v1h-1zM52 20h1v1h-1zM53 20h1v1h-1zM54 20h1v1h-1zM55 20h1v1h-1z"/><path fill="#75471F" d="M56 20h1v1h-1z"/><path fill="#231815" d="M57 20h1v1h-1zM58 20h1v1h-1zM59 20h1v1h-1zM60 20h1v1h-1zM61 20h1v1h-1zM72 20h1v1h-1zM73 20h1v1h-1zM74 20h1v1h-1z"/><path fill="#7C4C20" d="M75 20h1v1h-1z"/><path fill="#9A5D24" d="M76 20h1v1h-1zM77 20h1v1h-1zM78 20h1v1h-1z"/><path fill="#B7813E" d="M79 20h1v1h-1z"/><path fill="#C8964D" d="M80 20h1v1h-1zM81 20h1v1h-1zM82 20h1v1h-1zM83 20h1v1h-1zM84 20h1v1h-1zM85 20h1v1h-1z"/><path fill="#9F773F" d="M86 20h1v1h-1z"/><path fill="#231815" d="M87 20h1v1h-1zM88 20h1v1h-1zM89 20h1v1h-1zM39 21h1v1h-1zM40 21h1v1h-1zM41 21h1v1h-1zM42 21h1v1h-1z"/><path fill="#8B5422" d="M43 21h1v1h-1z"/><path fill="#9A5D24" d="M44 21h1v1h-1zM45 21h1v1h-1zM46 21h1v1h-1zM47 21h1v1h-1zM48 21h1v1h-1zM49 21h1v1h-1zM50 21h1v1h-1zM51 21h1v1h-1zM52 21h1v1h-1zM53 21h1v1h-1zM54 21h1v1h-1z"/><path fill="#845021" d="M55 21h1v1h-1z"/><path fill="#2A1C16" d="M56 21h1v1h-1z"/><path fill="#231815" d="M57 21h1v1h-1zM58 21h1v1h-1zM59 21h1v1h-1zM60 21h1v1h-1zM71 21h1v1h-1zM72 21h1v1h-1zM73 21h1v1h-1z"/><path fill="#2A1C16" d="M74 21h1v1h-1z"/><path fill="#9A5D24" d="M75 21h1v1h-1zM76 21h1v1h-1zM77 21h1v1h-1zM78 21h1v1h-1z"/><path fill="#C5924A" d="M79 21h1v1h-1z"/><path fill="#C8964D" d="M80 21h1v1h-1zM81 21h1v1h-1zM82 21h1v1h-1zM83 21h1v1h-1zM84 21h1v1h-1zM85 21h1v1h-1z"/><path fill="#765731" d="M86 21h1v1h-1z"/><path fill="#231815" d="M87 21h1v1h-1zM88 21h1v1h-1zM89 21h1v1h-1zM39 22h1v1h-1zM40 22h1v1h-1zM41 22h1v1h-1z"/><path fill="#482E1A" d="M42 22h1v1h-1z"/><path fill="#9A5D24" d="M43 22h1v1h-1zM44 22h1v1h-1zM45 22h1v1h-1zM46 22h1v1h-1zM47 22h1v1h-1zM48 22h1v1h-1zM49 22h1v1h-1zM50 22h1v1h-1zM51 22h1v1h-1zM52 22h1v1h-1zM53 22h1v1h-1zM54 22h1v1h-1z"/><path fill="#392518" d="M55 22h1v1h-1z"/><path fill="#231815" d="M56 22h1v1h-1zM57 22h1v1h-1zM58 22h1v1h-1zM59 22h1v1h-1zM70 22h1v1h-1zM71 22h1v1h-1zM72 22h1v1h-1zM73 22h1v1h-1z"/><path fill="#57361C" d="M74 22h1v1h-1z"/><path fill="#9A5D24" d="M75 22h1v1h-1zM76 22h1v1h-1zM77 22h1v1h-1z"/><path fill="#AB7233" d="M78 22h1v1h-1z"/><path fill="#C8964D" d="M79 22h1v1h-1zM80 22h1v1h-1zM81 22h1v1h-1zM82 22h1v1h-1zM83 22h1v1h-1zM84 22h1v1h-1zM85 22h1v1h-1z"/><path fill="#61472A" d="M86 22h1v1h-1z"/><path fill="#231815" d="M87 22h1v1h-1zM88 22h1v1h-1zM89 22h1v1h-1zM39 23h1v1h-1zM40 23h1v1h-1zM41 23h1v1h-1z"/><path fill="#6D431E" d="M42 23h1v1h-1z"/><path fill="#9A5D24" d="M43 23h1v1h-1zM44 23h1v1h-1zM45 23h1v1h-1zM46 23h1v1h-1zM47 23h1v1h-1zM48 23h1v1h-1zM49 23h1v1h-1zM50 23h1v1h-1zM51 23h1v1h-1zM52 23h1v1h-1zM53 23h1v1h-1z"/><path fill="#6D431E" d="M54 23h1v1h-1z"/><path fill="#231815" d="M55 23h1v1h-1zM56 23h1v1h-1zM57 23h1v1h-1zM58 23h1v1h-1zM70 23h1v1h-1zM71 23h1v1h-1zM72 23h1v1h-1z"/><path fill="#2A1C16" d="M73 23h1v1h-1z"/><path fill="#8B5422" d="M74 23h1v1h-1z"/><path fill="#9A5D24" d="M75 23h1v1h-1zM76 23h1v1h-1z"/><path fill="#9D6127" d="M77 23h1v1h-1z"/><path fill="#C28F48" d="M78 23h1v1h-1z"/><path fill="#C8964D" d="M79 23h1v1h-1zM80 23h1v1h-1zM81 23h1v1h-1zM82 23h1v1h-1zM83 23h1v1h-1zM84 23h1v1h-1zM85 23h1v1h-1z"/><path fill="#38281C" d="M86 23h1v1h-1z"/><path fill="#231815" d="M87 23h1v1h-1zM88 23h1v1h-1zM89 23h1v1h-1zM38 24h1v1h-1zM39 24h1v1h-1zM40 24h1v1h-1zM41 24h1v1h-1z"/><path fill="#935923" d="M42 24h1v1h-1z"/><path fill="#9A5D24" d="M43 24h1v1h-1zM44 24h1v1h-1zM45 24h1v1h-1zM46 24h1v1h-1zM47 24h1v1h-1zM48 24h1v1h-1zM49 24h1v1h-1zM50 24h1v1h-1zM51 24h1v1h-1zM52 24h1v1h-1zM53 24h1v1h-1z"/><path fill="#2A1C16" d="M54 24h1v1h-1z"/><path fill="#231815" d="M55 24h1v1h-1zM56 24h1v1h-1zM57 24h1v1h-1zM69 24h1v1h-1zM70 24h1v1h-1zM71 24h1v1h-1zM72 24h1v1h-1z"/><path fill="#663F1D" d="M73 24h1v1h-1z"/><path fill="#9A5D24" d="M74 24h1v1h-1zM75 24h1v1h-1zM76 24h1v1h-1z"/><path fill="#BA8440" d="M77 24h1v1h-1z"/><path fill="#C8964D" d="M78 24h1v1h-1zM79 24h1v1h-1zM80 24h1v1h-1zM81 24h1v1h-1zM82 24h1v1h-1zM83 24h1v1h-1zM84 24h1v1h-1z"/><path fill="#A97E43" d="M85 24h1v1h-1z"/><path fill="#231815" d="M86 24h1v1h-1zM87 24h1v1h-1zM88 24h1v1h-1zM38 25h1v1h-1zM39 25h1v1h-1zM40 25h1v1h-1z"/><path fill="#392518" d="M41 25h1v1h-1z"/><path fill="#9A5D24" d="M42 25h1v1h-1zM43 25h1v1h-1zM44 25h1v1h-1zM45 25h1v1h-1zM46 25h1v1h-1zM47 25h1v1h-1zM48 25h1v1h-1zM49 25h1v1h-1zM50 25h1v1h-1zM51 25h1v1h-1zM52 25h1v1h-1z"/><path fill="#6D431E" d="M53 25h1v1h-1z"/><path fill="#231815" d="M54 25h1v1h-1zM55 25h1v1h-1zM56 25h1v1h-1zM57 25h1v1h-1zM67 25h1v1h-1zM68 25h1v1h-1zM69 25h1v1h-1zM70 25h1v1h-1zM71 25h1v1h-1z"/><path fill="#482E1A" d="M72 25h1v1h-1z"/><path fill="#9A5D24" d="M73 25h1v1h-1zM74 25h1v1h-1zM75 25h1v1h-1z"/><path fill="#B7813E" d="M76 25h1v1h-1z"/><path fill="#C8964D" d="M77 25h1v1h-1zM78 25h1v1h-1zM79 25h1v1h-1zM80 25h1v1h-1zM81 25h1v1h-1zM82 25h1v1h-1zM83 25h1v1h-1zM84 25h1v1h-1z"/><path fill="#6B4F2E" d="M85 25h1v1h-1z"/><path fill="#231815" d="M86 25h1v1h-1zM87 25h1v1h-1zM88 25h1v1h-1zM30 26h1v1h-1zM31 26h1v1h-1zM32 26h1v1h-1zM33 26h1v1h-1zM34 26h1v1h-1zM35 26h1v1h-1zM36 26h1v1h-1zM37 26h1v1h-1zM38 26h1v1h-1zM39 26h1v1h-1zM40 26h1v1h-1z"/><path fill="#392518" d="M41 26h1v1h-1z"/><path fill="#663F1D" d="M42 26h1v1h-1z"/><path fill="#7C4C20" d="M43 26h1v1h-1zM44 26h1v1h-1zM45 26h1v1h-1zM46 26h1v1h-1z"/><path fill="#845021" d="M47 26h1v1h-1z"/><path fill="#9A5D24" d="M48 26h1v1h-1zM49 26h1v1h-1zM50 26h1v1h-1zM51 26h1v1h-1zM52 26h1v1h-1z"/><path fill="#482E1A" d="M53 26h1v1h-1z"/><path fill="#231815" d="M54 26h1v1h-1zM55 26h1v1h-1zM56 26h1v1h-1zM65 26h1v1h-1zM66 26h1v1h-1zM67 26h1v1h-1zM68 26h1v1h-1zM69 26h1v1h-1zM70 26h1v1h-1z"/><path fill="#392518" d="M71 26h1v1h-1z"/><path fill="#935923" d="M72 26h1v1h-1z"/><path fill="#9A5D24" d="M73 26h1v1h-1z"/><path fill="#9D6127" d="M74 26h1v1h-1z"/><path fill="#BA8440" d="M75 26h1v1h-1z"/><path fill="#C8964D" d="M76 26h1v1h-1zM77 26h1v1h-1zM78 26h1v1h-1zM79 26h1v1h-1zM80 26h1v1h-1zM81 26h1v1h-1zM82 26h1v1h-1zM83 26h1v1h-1zM84 26h1v1h-1z"/><path fill="#38281C" d="M85 26h1v1h-1z"/><path fill="#231815" d="M86 26h1v1h-1zM87 26h1v1h-1zM88 26h1v1h-1zM25 27h1v1h-1zM26 27h1v1h-1zM27 27h1v1h-1zM28 27h1v1h-1zM29 27h1v1h-1zM30 27h1v1h-1zM31 27h1v1h-1zM32 27h1v1h-1zM33 27h1v1h-1zM34 27h1v1h-1zM35 27h1v1h-1zM36 27h1v1h-1zM37 27h1v1h-1zM38 27h1v1h-1zM39 27h1v1h-1zM40 27h1v1h-1zM41 27h1v1h-1zM42 27h1v1h-1zM43 27h1v1h-1zM44 27h1v1h-1zM45 27h1v1h-1zM46 27h1v1h-1zM47 27h1v1h-1zM48 27h1v1h-1zM49 27h1v1h-1zM50 27h1v1h-1zM51 27h1v1h-1zM52 27h1v1h-1zM53 27h1v1h-1zM54 27h1v1h-1zM55 27h1v1h-1zM56 27h1v1h-1zM57 27h1v1h-1zM58 27h1v1h-1zM59 27h1v1h-1zM60 27h1v1h-1zM61 27h1v1h-1zM62 27h1v1h-1zM63 27h1v1h-1zM64 27h1v1h-1zM65 27h1v1h-1zM66 27h1v1h-1zM67 27h1v1h-1zM68 27h1v1h-1zM69 27h1v1h-1z"/><path fill="#50321B" d="M70 27h1v1h-1z"/><path fill="#935923" d="M71 27h1v1h-1z"/><path fill="#9A5D24" d="M72 27h1v1h-1z"/><path fill="#A66B2E" d="M73 27h1v1h-1z"/><path fill="#C28F48" d="M74 27h1v1h-1z"/><path fill="#C8964D" d="M75 27h1v1h-1zM76 27h1v1h-1zM77 27h1v1h-1zM78 27h1v1h-1zM79 27h1v1h-1zM80 27h1v1h-1zM81 27h1v1h-1zM82 27h1v1h-1zM83 27h1v1h-1z"/><path fill="#8A6738" d="M84 27h1v1h-1z"/><path fill="#231815" d="M85 27h1v1h-1zM86 27h1v1h-1zM87 27h1v1h-1zM88 27h1v1h-1zM22 28h1v1h-1zM23 28h1v1h-1zM24 28h1v1h-1zM25 28h1v1h-1zM26 28h1v1h-1zM27 28h1v1h-1zM28 28h1v1h-1zM29 28h1v1h-1zM30 28h1v1h-1zM31 28h1v1h-1zM32 28h1v1h-1zM33 28h1v1h-1zM34 28h1v1h-1zM35 28h1v1h-1zM36 28h1v1h-1zM37 28h1v1h-1zM38 28h1v1h-1zM39 28h1v1h-1zM40 28h1v1h-1zM41 28h1v1h-1zM42 28h1v1h-1zM43 28h1v1h-1zM44 28h1v1h-1zM45 28h1v1h-1zM46 28h1v1h-1zM47 28h1v1h-1zM48 28h1v1h-1zM49 28h1v1h-1zM50 28h1v1h-1zM51 28h1v1h-1zM52 28h1v1h-1zM53 28h1v1h-1zM54 28h1v1h-1zM55 28h1v1h-1zM56 28h1v1h-1zM57 28h1v1h-1zM58 28h1v1h-1zM59 28h1v1h-1zM60 28h1v1h-1zM61 28h1v1h-1zM62 28h1v1h-1zM63 28h1v1h-1zM64 28h1v1h-1zM65 28h1v1h-1zM66 28h1v1h-1zM67 28h1v1h-1z"/><path fill="#2A1C16" d="M68 28h1v1h-1z"/><path fill="#75471F" d="M69 28h1v1h-1z"/><path fill="#9D6127" d="M70 28h1v1h-1z"/><path fill="#AB7233" d="M71 28h1v1h-1z"/><path fill="#BD8843" d="M72 28h1v1h-1z"/><path fill="#C8964D" d="M73 28h1v1h-1zM74 28h1v1h-1zM75 28h1v1h-1zM76 28h1v1h-1zM77 28h1v1h-1zM78 28h1v1h-1z"/><path fill="#C49246" d="M79 28h1v1h-1z"/><path fill="#BD8939" d="M80 28h1v1h-1z"/><path fill="#B88330" d="M81 28h1v1h-1z"/><path fill="#B47F29" d="M82 28h1v1h-1zM83 28h1v1h-1z"/><path fill="#352518" d="M84 28h1v1h-1z"/><path fill="#231815" d="M85 28h1v1h-1zM86 28h1v1h-1zM87 28h1v1h-1zM20 29h1v1h-1zM21 29h1v1h-1zM22 29h1v1h-1zM23 29h1v1h-1zM24 29h1v1h-1zM25 29h1v1h-1zM26 29h1v1h-1zM27 29h1v1h-1zM28 29h1v1h-1zM29 29h1v1h-1zM30 29h1v1h-1z"/><path fill="#4C3823" d="M31 29h1v1h-1zM32 29h1v1h-1z"/><path fill="#765731" d="M33 29h1v1h-1zM34 29h1v1h-1zM35 29h1v1h-1zM36 29h1v1h-1zM37 29h1v1h-1zM38 29h1v1h-1zM39 29h1v1h-1zM40 29h1v1h-1zM41 29h1v1h-1z"/><path fill="#6B4F2E" d="M42 29h1v1h-1z"/><path fill="#4C3823" d="M43 29h1v1h-1zM44 29h1v1h-1zM45 29h1v1h-1zM46 29h1v1h-1z"/><path fill="#423020" d="M47 29h1v1h-1z"/><path fill="#231815" d="M48 29h1v1h-1zM49 29h1v1h-1zM50 29h1v1h-1zM51 29h1v1h-1zM52 29h1v1h-1zM53 29h1v1h-1zM54 29h1v1h-1zM55 29h1v1h-1zM56 29h1v1h-1zM57 29h1v1h-1zM58 29h1v1h-1zM59 29h1v1h-1zM60 29h1v1h-1zM61 29h1v1h-1zM62 29h1v1h-1zM63 29h1v1h-1zM64 29h1v1h-1zM65 29h1v1h-1z"/><path fill="#423020" d="M66 29h1v1h-1z"/><path fill="#805F35" d="M67 29h1v1h-1z"/><path fill="#BE8E4A" d="M68 29h1v1h-1z"/><path fill="#C8964D" d="M69 29h1v1h-1zM70 29h1v1h-1zM71 29h1v1h-1zM72 29h1v1h-1zM73 29h1v1h-1zM74 29h1v1h-1zM75 29h1v1h-1zM76 29h1v1h-1z"/><path fill="#C39044" d="M77 29h1v1h-1z"/><path fill="#B98532" d="M78 29h1v1h-1z"/><path fill="#B47F29" d="M79 29h1v1h-1zM80 29h1v1h-1zM81 29h1v1h-1zM82 29h1v1h-1z"/><path fill="#755220" d="M83 29h1v1h-1z"/><path fill="#231815" d="M84 29h1v1h-1zM85 29h1v1h-1zM86 29h1v1h-1zM87 29h1v1h-1zM18 30h1v1h-1zM19 30h1v1h-1zM20 30h1v1h-1zM21 30h1v1h-1zM22 30h1v1h-1zM23 30h1v1h-1zM24 30h1v1h-1zM25 30h1v1h-1z"/><path fill="#38281C" d="M26 30h1v1h-1z"/><path fill="#6B4F2E" d="M27 30h1v1h-1z"/><path fill="#8A6738" d="M28 30h1v1h-1z"/><path fill="#B38646" d="M29 30h1v1h-1z"/><path fill="#C8964D" d="M30 30h1v1h-1zM31 30h1v1h-1zM32 30h1v1h-1zM33 30h1v1h-1zM34 30h1v1h-1zM35 30h1v1h-1zM36 30h1v1h-1zM37 30h1v1h-1zM38 30h1v1h-1zM39 30h1v1h-1zM40 30h1v1h-1zM41 30h1v1h-1zM42 30h1v1h-1zM43 30h1v1h-1zM44 30h1v1h-1zM45 30h1v1h-1zM46 30h1v1h-1zM47 30h1v1h-1zM48 30h1v1h-1zM49 30h1v1h-1zM50 30h1v1h-1zM51 30h1v1h-1z"/><path fill="#BE8E4A" d="M52 30h1v1h-1z"/><path fill="#9F773F" d="M53 30h1v1h-1zM54 30h1v1h-1zM55 30h1v1h-1zM56 30h1v1h-1zM57 30h1v1h-1z"/><path fill="#8A6738" d="M58 30h1v1h-1z"/><path fill="#765731" d="M59 30h1v1h-1zM60 30h1v1h-1zM61 30h1v1h-1zM62 30h1v1h-1z"/><path fill="#805F35" d="M63 30h1v1h-1z"/><path fill="#9F773F" d="M64 30h1v1h-1z"/><path fill="#BE8E4A" d="M65 30h1v1h-1z"/><path fill="#C8964D" d="M66 30h1v1h-1zM67 30h1v1h-1zM68 30h1v1h-1zM69 30h1v1h-1zM70 30h1v1h-1zM71 30h1v1h-1zM72 30h1v1h-1zM73 30h1v1h-1zM74 30h1v1h-1z"/><path fill="#C39044" d="M75 30h1v1h-1z"/><path fill="#B98532" d="M76 30h1v1h-1z"/><path fill="#B47F29" d="M77 30h1v1h-1zM78 30h1v1h-1zM79 30h1v1h-1zM80 30h1v1h-1zM81 30h1v1h-1z"/><path fill="#A27227" d="M82 30h1v1h-1z"/><path fill="#2C1E16" d="M83 30h1v1h-1z"/><path fill="#231815" d="M84 30h1v1h-1zM85 30h1v1h-1zM86 30h1v1h-1zM16 31h1v1h-1zM17 31h1v1h-1zM18 31h1v1h-1zM19 31h1v1h-1zM20 31h1v1h-1zM21 31h1v1h-1zM22 31h1v1h-1z"/><path fill="#38281C" d="M23 31h1v1h-1z"/><path fill="#6B4F2E" d="M24 31h1v1h-1z"/><path fill="#A97E43" d="M25 31h1v1h-1z"/><path fill="#C8964D" d="M26 31h1v1h-1zM27 31h1v1h-1zM28 31h1v1h-1zM29 31h1v1h-1zM30 31h1v1h-1zM31 31h1v1h-1zM32 31h1v1h-1zM33 31h1v1h-1zM34 31h1v1h-1zM35 31h1v1h-1zM36 31h1v1h-1zM37 31h1v1h-1zM38 31h1v1h-1zM39 31h1v1h-1zM40 31h1v1h-1zM41 31h1v1h-1zM42 31h1v1h-1zM43 31h1v1h-1zM44 31h1v1h-1zM45 31h1v1h-1zM46 31h1v1h-1zM47 31h1v1h-1zM48 31h1v1h-1zM49 31h1v1h-1zM50 31h1v1h-1zM51 31h1v1h-1zM52 31h1v1h-1zM53 31h1v1h-1zM54 31h1v1h-1zM55 31h1v1h-1zM56 31h1v1h-1zM57 31h1v1h-1zM58 31h1v1h-1zM59 31h1v1h-1zM60 31h1v1h-1zM61 31h1v1h-1zM62 31h1v1h-1zM63 31h1v1h-1zM64 31h1v1h-1zM65 31h1v1h-1zM66 31h1v1h-1zM67 31h1v1h-1zM68 31h1v1h-1zM69 31h1v1h-1zM70 31h1v1h-1zM71 31h1v1h-1zM72 31h1v1h-1z"/><path fill="#C69349" d="M73 31h1v1h-1z"/><path fill="#BA8634" d="M74 31h1v1h-1z"/><path fill="#B47F29" d="M75 31h1v1h-1zM76 31h1v1h-1zM77 31h1v1h-1zM78 31h1v1h-1zM79 31h1v1h-1zM80 31h1v1h-1zM81 31h1v1h-1z"/><path fill="#47321A" d="M82 31h1v1h-1z"/><path fill="#231815" d="M83 31h1v1h-1zM84 31h1v1h-1zM85 31h1v1h-1zM86 31h1v1h-1zM15 32h1v1h-1zM16 32h1v1h-1zM17 32h1v1h-1zM18 32h1v1h-1zM19 32h1v1h-1zM20 32h1v1h-1z"/><path fill="#4C3823" d="M21 32h1v1h-1z"/><path fill="#946F3C" d="M22 32h1v1h-1z"/><path fill="#C8964D" d="M23 32h1v1h-1zM24 32h1v1h-1zM25 32h1v1h-1zM26 32h1v1h-1zM27 32h1v1h-1zM28 32h1v1h-1zM29 32h1v1h-1zM30 32h1v1h-1zM31 32h1v1h-1zM32 32h1v1h-1zM33 32h1v1h-1zM34 32h1v1h-1zM35 32h1v1h-1zM36 32h1v1h-1zM37 32h1v1h-1zM38 32h1v1h-1zM39 32h1v1h-1zM40 32h1v1h-1zM41 32h1v1h-1zM42 32h1v1h-1zM43 32h1v1h-1zM44 32h1v1h-1zM45 32h1v1h-1zM46 32h1v1h-1zM47 32h1v1h-1zM48 32h1v1h-1zM49 32h1v1h-1zM50 32h1v1h-1zM51 32h1v1h-1zM52 32h1v1h-1zM53 32h1v1h-1zM54 32h1v1h-1zM55 32h1v1h-1zM56 32h1v1h-1zM57 32h1v1h-1zM58 32h1v1h-1zM59 32h1v1h-1zM60 32h1v1h-1zM61 32h1v1h-1zM62 32h1v1h-1zM63 32h1v1h-1zM64 32h1v1h-1zM65 32h1v1h-1zM66 32h1v1h-1zM67 32h1v1h-1zM68 32h1v1h-1zM69 32h1v1h-1zM70 32h1v1h-1z"/><path fill="#C7954B" d="M71 32h1v1h-1z"/><path fill="#BD8939" d="M72 32h1v1h-1z"/><path fill="#B47F29" d="M73 32h1v1h-1zM74 32h1v1h-1zM75 32h1v1h-1zM76 32h1v1h-1zM77 32h1v1h-1zM78 32h1v1h-1zM79 32h1v1h-1zM80 32h1v1h-1z"/><path fill="#62451E" d="M81 32h1v1h-1z"/><path fill="#231815" d="M82 32h1v1h-1zM83 32h1v1h-1zM84 32h1v1h-1zM85 32h1v1h-1zM13 33h1v1h-1zM14 33h1v1h-1zM15 33h1v1h-1zM16 33h1v1h-1zM17 33h1v1h-1zM18 33h1v1h-1z"/><path fill="#4C3823" d="M19 33h1v1h-1z"/><path fill="#9F773F" d="M20 33h1v1h-1z"/><path fill="#C8964D" d="M21 33h1v1h-1zM22 33h1v1h-1zM23 33h1v1h-1zM24 33h1v1h-1zM25 33h1v1h-1zM26 33h1v1h-1zM27 33h1v1h-1zM28 33h1v1h-1zM29 33h1v1h-1zM30 33h1v1h-1zM31 33h1v1h-1zM32 33h1v1h-1zM33 33h1v1h-1zM34 33h1v1h-1zM35 33h1v1h-1zM36 33h1v1h-1zM37 33h1v1h-1zM38 33h1v1h-1zM39 33h1v1h-1zM40 33h1v1h-1zM41 33h1v1h-1zM42 33h1v1h-1zM43 33h1v1h-1zM44 33h1v1h-1zM45 33h1v1h-1zM46 33h1v1h-1zM47 33h1v1h-1zM48 33h1v1h-1zM49 33h1v1h-1zM50 33h1v1h-1zM51 33h1v1h-1zM52 33h1v1h-1zM53 33h1v1h-1zM54 33h1v1h-1zM55 33h1v1h-1zM56 33h1v1h-1zM57 33h1v1h-1zM58 33h1v1h-1zM59 33h1v1h-1zM60 33h1v1h-1zM61 33h1v1h-1zM62 33h1v1h-1zM63 33h1v1h-1zM64 33h1v1h-1zM65 33h1v1h-1zM66 33h1v1h-1zM67 33h1v1h-1zM68 33h1v1h-1zM69 33h1v1h-1z"/><path fill="#BE8B3B" d="M70 33h1v1h-1z"/><path fill="#B5802B" d="M71 33h1v1h-1z"/><path fill="#B47F29" d="M72 33h1v1h-1zM73 33h1v1h-1zM74 33h1v1h-1zM75 33h1v1h-1zM76 33h1v1h-1zM77 33h1v1h-1zM78 33h1v1h-1zM79 33h1v1h-1z"/><path fill="#7E5822" d="M80 33h1v1h-1z"/><path fill="#231815" d="M81 33h1v1h-1zM82 33h1v1h-1zM83 33h1v1h-1zM84 33h1v1h-1zM12 34h1v1h-1zM13 34h1v1h-1zM14 34h1v1h-1zM15 34h1v1h-1zM16 34h1v1h-1z"/><path fill="#2D2019" d="M17 34h1v1h-1z"/><path fill="#8A6738" d="M18 34h1v1h-1z"/><path fill="#C8964D" d="M19 34h1v1h-1zM20 34h1v1h-1zM21 34h1v1h-1zM22 34h1v1h-1zM23 34h1v1h-1zM24 34h1v1h-1zM25 34h1v1h-1zM26 34h1v1h-1zM27 34h1v1h-1zM28 34h1v1h-1zM29 34h1v1h-1zM30 34h1v1h-1zM31 34h1v1h-1zM32 34h1v1h-1zM33 34h1v1h-1zM34 34h1v1h-1zM35 34h1v1h-1zM36 34h1v1h-1zM37 34h1v1h-1zM38 34h1v1h-1zM39 34h1v1h-1zM40 34h1v1h-1zM41 34h1v1h-1zM42 34h1v1h-1zM43 34h1v1h-1zM44 34h1v1h-1zM45 34h1v1h-1zM46 34h1v1h-1zM47 34h1v1h-1zM48 34h1v1h-1zM49 34h1v1h-1zM50 34h1v1h-1zM51 34h1v1h-1zM52 34h1v1h-1zM53 34h1v1h-1zM54 34h1v1h-1zM55 34h1v1h-1zM56 34h1v1h-1zM57 34h1v1h-1zM58 34h1v1h-1zM59 34h1v1h-1zM60 34h1v1h-1zM61 34h1v1h-1zM62 34h1v1h-1zM63 34h1v1h-1zM64 34h1v1h-1zM65 34h1v1h-1zM66 34h1v1h-1zM67 34h1v1h-1z"/><path fill="#C18D40" d="M68 34h1v1h-1z"/><path fill="#B7822E" d="M69 34h1v1h-1z"/><path fill="#B47F29" d="M70 34h1v1h-1zM71 34h1v1h-1zM72 34h1v1h-1zM73 34h1v1h-1zM74 34h1v1h-1zM75 34h1v1h-1zM76 34h1v1h-1zM77 34h1v1h-1zM78 34h1v1h-1z"/><path fill="#7E5822" d="M79 34h1v1h-1z"/><path fill="#231815" d="M80 34h1v1h-1zM81 34h1v1h-1zM82 34h1v1h-1zM83 34h1v1h-1zM84 34h1v1h-1zM11 35h1v1h-1zM12 35h1v1h-1zM13 35h1v1h-1zM14 35h1v1h-1zM15 35h1v1h-1z"/><path fill="#573F27" d="M16 35h1v1h-1z"/><path fill="#BE8E4A" d="M17 35h1v1h-1z"/><path fill="#C8964D" d="M18 35h1v1h-1zM19 35h1v1h-1zM20 35h1v1h-1zM21 35h1v1h-1zM22 35h1v1h-1zM23 35h1v1h-1zM24 35h1v1h-1zM25 35h1v1h-1zM26 35h1v1h-1zM27 35h1v1h-1zM28 35h1v1h-1zM29 35h1v1h-1zM30 35h1v1h-1zM31 35h1v1h-1zM32 35h1v1h-1zM33 35h1v1h-1zM34 35h1v1h-1zM35 35h1v1h-1zM36 35h1v1h-1zM37 35h1v1h-1zM38 35h1v1h-1zM39 35h1v1h-1zM40 35h1v1h-1zM41 35h1v1h-1zM42 35h1v1h-1zM43 35h1v1h-1zM44 35h1v1h-1zM45 35h1v1h-1zM46 35h1v1h-1zM47 35h1v1h-1zM48 35h1v1h-1zM49 35h1v1h-1zM50 35h1v1h-1zM51 35h1v1h-1zM52 35h1v1h-1zM53 35h1v1h-1zM54 35h1v1h-1zM55 35h1v1h-1zM56 35h1v1h-1zM57 35h1v1h-1zM58 35h1v1h-1zM59 35h1v1h-1zM60 35h1v1h-1zM61 35h1v1h-1zM62 35h1v1h-1zM63 35h1v1h-1zM64 35h1v1h-1z"/><path fill="#C7954B" d="M65 35h1v1h-1z"/><path fill="#BE8B3B" d="M66 35h1v1h-1z"/><path fill="#B7822E" d="M67 35h1v1h-1z"/><path fill="#B47F29" d="M68 35h1v1h-1zM69 35h1v1h-1zM70 35h1v1h-1zM71 35h1v1h-1zM72 35h1v1h-1zM73 35h1v1h-1zM74 35h1v1h-1zM75 35h1v1h-1zM76 35h1v1h-1zM77 35h1v1h-1z"/><path fill="#7E5822" d="M78 35h1v1h-1z"/><path fill="#231815" d="M79 35h1v1h-1zM80 35h1v1h-1zM81 35h1v1h-1zM82 35h1v1h-1zM83 35h1v1h-1zM10 36h1v1h-1zM11 36h1v1h-1zM12 36h1v1h-1zM13 36h1v1h-1zM14 36h1v1h-1z"/><path fill="#805F35" d="M15 36h1v1h-1z"/><path fill="#C8964D" d="M16 36h1v1h-1zM17 36h1v1h-1zM18 36h1v1h-1zM19 36h1v1h-1zM20 36h1v1h-1zM21 36h1v1h-1zM22 36h1v1h-1zM23 36h1v1h-1zM24 36h1v1h-1zM25 36h1v1h-1zM26 36h1v1h-1zM27 36h1v1h-1zM28 36h1v1h-1zM29 36h1v1h-1zM30 36h1v1h-1zM31 36h1v1h-1zM32 36h1v1h-1zM33 36h1v1h-1zM34 36h1v1h-1zM35 36h1v1h-1zM36 36h1v1h-1zM37 36h1v1h-1zM38 36h1v1h-1zM39 36h1v1h-1zM40 36h1v1h-1zM41 36h1v1h-1zM42 36h1v1h-1zM43 36h1v1h-1zM44 36h1v1h-1zM45 36h1v1h-1zM46 36h1v1h-1zM47 36h1v1h-1zM48 36h1v1h-1zM49 36h1v1h-1zM50 36h1v1h-1zM51 36h1v1h-1zM52 36h1v1h-1zM53 36h1v1h-1zM54 36h1v1h-1zM55 36h1v1h-1zM56 36h1v1h-1zM57 36h1v1h-1zM58 36h1v1h-1zM59 36h1v1h-1zM60 36h1v1h-1zM61 36h1v1h-1zM62 36h1v1h-1z"/><path fill="#C49246" d="M63 36h1v1h-1z"/><path fill="#BC8837" d="M64 36h1v1h-1z"/><path fill="#B5802B" d="M65 36h1v1h-1z"/><path fill="#B47F29" d="M66 36h1v1h-1zM67 36h1v1h-1zM68 36h1v1h-1zM69 36h1v1h-1zM70 36h1v1h-1zM71 36h1v1h-1zM72 36h1v1h-1zM73 36h1v1h-1zM74 36h1v1h-1zM75 36h1v1h-1zM76 36h1v1h-1z"/><path fill="#62451E" d="M77 36h1v1h-1z"/><path fill="#231815" d="M78 36h1v1h-1zM79 36h1v1h-1zM80 36h1v1h-1zM81 36h1v1h-1zM82 36h1v1h-1zM9 37h1v1H9zM10 37h1v1h-1zM11 37h1v1h-1zM12 37h1v1h-1z"/><path fill="#2D2019" d="M13 37h1v1h-1z"/><path fill="#9F773F" d="M14 37h1v1h-1z"/><path fill="#C8964D" d="M15 37h1v1h-1zM16 37h1v1h-1zM17 37h1v1h-1zM18 37h1v1h-1zM19 37h1v1h-1zM20 37h1v1h-1zM21 37h1v1h-1zM22 37h1v1h-1zM23 37h1v1h-1zM24 37h1v1h-1zM25 37h1v1h-1zM26 37h1v1h-1zM27 37h1v1h-1zM28 37h1v1h-1zM29 37h1v1h-1zM30 37h1v1h-1zM31 37h1v1h-1zM32 37h1v1h-1zM33 37h1v1h-1zM34 37h1v1h-1zM35 37h1v1h-1zM36 37h1v1h-1zM37 37h1v1h-1zM38 37h1v1h-1zM39 37h1v1h-1zM40 37h1v1h-1zM41 37h1v1h-1zM42 37h1v1h-1zM43 37h1v1h-1zM44 37h1v1h-1zM45 37h1v1h-1zM46 37h1v1h-1zM47 37h1v1h-1zM48 37h1v1h-1zM49 37h1v1h-1zM50 37h1v1h-1zM51 37h1v1h-1zM52 37h1v1h-1zM53 37h1v1h-1zM54 37h1v1h-1zM55 37h1v1h-1zM56 37h1v1h-1zM57 37h1v1h-1zM58 37h1v1h-1zM59 37h1v1h-1z"/><path fill="#C39044" d="M60 37h1v1h-1z"/><path fill="#BD8939" d="M61 37h1v1h-1z"/><path fill="#B7822E" d="M62 37h1v1h-1z"/><path fill="#B47F29" d="M63 37h1v1h-1zM64 37h1v1h-1zM65 37h1v1h-1zM66 37h1v1h-1zM67 37h1v1h-1zM68 37h1v1h-1zM69 37h1v1h-1zM70 37h1v1h-1zM71 37h1v1h-1zM72 37h1v1h-1zM73 37h1v1h-1zM74 37h1v1h-1z"/><path fill="#996C25" d="M75 37h1v1h-1z"/><path fill="#3E2B19" d="M76 37h1v1h-1z"/><path fill="#231815" d="M77 37h1v1h-1zM78 37h1v1h-1zM79 37h1v1h-1zM80 37h1v1h-1zM81 37h1v1h-1zM8 38h1v1H8zM9 38h1v1H9zM10 38h1v1h-1zM11 38h1v1h-1z"/><path fill="#2D2019" d="M12 38h1v1h-1z"/><path fill="#A97E43" d="M13 38h1v1h-1z"/><path fill="#C8964D" d="M14 38h1v1h-1zM15 38h1v1h-1zM16 38h1v1h-1zM17 38h1v1h-1zM18 38h1v1h-1zM19 38h1v1h-1zM20 38h1v1h-1zM21 38h1v1h-1zM22 38h1v1h-1zM23 38h1v1h-1zM24 38h1v1h-1zM25 38h1v1h-1zM26 38h1v1h-1zM27 38h1v1h-1zM28 38h1v1h-1zM29 38h1v1h-1zM30 38h1v1h-1zM31 38h1v1h-1zM32 38h1v1h-1zM33 38h1v1h-1zM34 38h1v1h-1zM35 38h1v1h-1zM36 38h1v1h-1zM37 38h1v1h-1zM38 38h1v1h-1zM39 38h1v1h-1zM40 38h1v1h-1zM41 38h1v1h-1zM42 38h1v1h-1zM43 38h1v1h-1zM44 38h1v1h-1zM45 38h1v1h-1zM46 38h1v1h-1zM47 38h1v1h-1zM48 38h1v1h-1zM49 38h1v1h-1z"/><path fill="#C7954B" d="M50 38h1v1h-1z"/><path fill="#C39044" d="M51 38h1v1h-1zM52 38h1v1h-1zM53 38h1v1h-1zM54 38h1v1h-1z"/><path fill="#BF8C3D" d="M55 38h1v1h-1z"/><path fill="#BE8B3B" d="M56 38h1v1h-1z"/><path fill="#BC8837" d="M57 38h1v1h-1z"/><path fill="#B88330" d="M58 38h1v1h-1z"/><path fill="#B47F29" d="M59 38h1v1h-1zM60 38h1v1h-1zM61 38h1v1h-1zM62 38h1v1h-1zM63 38h1v1h-1zM64 38h1v1h-1zM65 38h1v1h-1zM66 38h1v1h-1zM67 38h1v1h-1zM68 38h1v1h-1zM69 38h1v1h-1zM70 38h1v1h-1zM71 38h1v1h-1zM72 38h1v1h-1z"/><path fill="#AB7928" d="M73 38h1v1h-1z"/><path fill="#6C4C1F" d="M74 38h1v1h-1z"/><path fill="#231815" d="M75 38h1v1h-1zM76 38h1v1h-1zM77 38h1v1h-1zM78 38h1v1h-1zM79 38h1v1h-1zM80 38h1v1h-1zM7 39h1v1H7zM8 39h1v1H8zM9 39h1v1H9zM10 39h1v1h-1z"/><path fill="#2D2019" d="M11 39h1v1h-1z"/><path fill="#A97E43" d="M12 39h1v1h-1z"/><path fill="#C8964D" d="M13 39h1v1h-1zM14 39h1v1h-1zM15 39h1v1h-1zM16 39h1v1h-1zM17 39h1v1h-1zM18 39h1v1h-1zM19 39h1v1h-1zM20 39h1v1h-1zM21 39h1v1h-1zM22 39h1v1h-1zM23 39h1v1h-1zM24 39h1v1h-1zM25 39h1v1h-1zM26 39h1v1h-1zM27 39h1v1h-1zM28 39h1v1h-1zM29 39h1v1h-1zM30 39h1v1h-1zM31 39h1v1h-1zM32 39h1v1h-1zM33 39h1v1h-1zM34 39h1v1h-1zM35 39h1v1h-1zM36 39h1v1h-1zM37 39h1v1h-1zM38 39h1v1h-1zM39 39h1v1h-1zM40 39h1v1h-1zM41 39h1v1h-1zM42 39h1v1h-1zM43 39h1v1h-1zM44 39h1v1h-1zM45 39h1v1h-1zM46 39h1v1h-1zM47 39h1v1h-1z"/><path fill="#C69349" d="M48 39h1v1h-1z"/><path fill="#BA8634" d="M49 39h1v1h-1z"/><path fill="#B47F29" d="M50 39h1v1h-1zM51 39h1v1h-1zM52 39h1v1h-1zM53 39h1v1h-1zM54 39h1v1h-1zM55 39h1v1h-1zM56 39h1v1h-1zM57 39h1v1h-1zM58 39h1v1h-1zM59 39h1v1h-1zM60 39h1v1h-1zM61 39h1v1h-1zM62 39h1v1h-1zM63 39h1v1h-1zM64 39h1v1h-1zM65 39h1v1h-1zM66 39h1v1h-1zM67 39h1v1h-1zM68 39h1v1h-1zM69 39h1v1h-1zM70 39h1v1h-1z"/><path fill="#A27227" d="M71 39h1v1h-1z"/><path fill="#6C4C1F" d="M72 39h1v1h-1z"/><path fill="#2C1E16" d="M73 39h1v1h-1z"/><path fill="#231815" d="M74 39h1v1h-1zM75 39h1v1h-1zM76 39h1v1h-1zM77 39h1v1h-1zM78 39h1v1h-1zM7 40h1v1H7zM8 40h1v1H8zM9 40h1v1H9zM10 40h1v1h-1z"/><path fill="#A97E43" d="M11 40h1v1h-1z"/><path fill="#C8964D" d="M12 40h1v1h-1zM13 40h1v1h-1zM14 40h1v1h-1zM15 40h1v1h-1zM16 40h1v1h-1zM17 40h1v1h-1zM18 40h1v1h-1zM19 40h1v1h-1zM20 40h1v1h-1zM21 40h1v1h-1zM22 40h1v1h-1zM23 40h1v1h-1zM24 40h1v1h-1zM25 40h1v1h-1zM26 40h1v1h-1zM27 40h1v1h-1zM28 40h1v1h-1zM29 40h1v1h-1zM30 40h1v1h-1zM31 40h1v1h-1zM32 40h1v1h-1z"/><path fill="#B38646" d="M33 40h1v1h-1z"/><path fill="#9F773F" d="M34 40h1v1h-1zM35 40h1v1h-1zM36 40h1v1h-1zM37 40h1v1h-1zM38 40h1v1h-1zM39 40h1v1h-1zM40 40h1v1h-1z"/><path fill="#C8964D" d="M41 40h1v1h-1zM42 40h1v1h-1zM43 40h1v1h-1zM44 40h1v1h-1zM45 40h1v1h-1zM46 40h1v1h-1z"/><path fill="#C28F42" d="M47 40h1v1h-1z"/><path fill="#B5802B" d="M48 40h1v1h-1z"/><path fill="#B47F29" d="M49 40h1v1h-1zM50 40h1v1h-1zM51 40h1v1h-1zM52 40h1v1h-1zM53 40h1v1h-1zM54 40h1v1h-1zM55 40h1v1h-1zM56 40h1v1h-1zM57 40h1v1h-1zM58 40h1v1h-1zM59 40h1v1h-1zM60 40h1v1h-1zM61 40h1v1h-1zM62 40h1v1h-1zM63 40h1v1h-1zM64 40h1v1h-1zM65 40h1v1h-1zM66 40h1v1h-1zM67 40h1v1h-1z"/><path fill="#AB7928" d="M68 40h1v1h-1z"/><path fill="#7E5822" d="M69 40h1v1h-1z"/><path fill="#50381B" d="M70 40h1v1h-1z"/><path fill="#231815" d="M71 40h1v1h-1zM72 40h1v1h-1zM73 40h1v1h-1zM74 40h1v1h-1zM75 40h1v1h-1zM76 40h1v1h-1zM77 40h1v1h-1zM6 41h1v1H6zM7 41h1v1H7zM8 41h1v1H8zM9 41h1v1H9z"/><path fill="#8A6738" d="M10 41h1v1h-1z"/><path fill="#C8964D" d="M11 41h1v1h-1zM12 41h1v1h-1zM13 41h1v1h-1zM14 41h1v1h-1zM15 41h1v1h-1zM16 41h1v1h-1zM17 41h1v1h-1zM18 41h1v1h-1zM19 41h1v1h-1zM20 41h1v1h-1zM21 41h1v1h-1zM22 41h1v1h-1zM23 41h1v1h-1zM24 41h1v1h-1zM25 41h1v1h-1zM26 41h1v1h-1zM27 41h1v1h-1z"/><path fill="#BE8E4A" d="M28 41h1v1h-1z"/><path fill="#8A6738" d="M29 41h1v1h-1z"/><path fill="#61472A" d="M30 41h1v1h-1z"/><path fill="#423020" d="M31 41h1v1h-1z"/><path fill="#231815" d="M32 41h1v1h-1zM33 41h1v1h-1zM34 41h1v1h-1zM35 41h1v1h-1zM36 41h1v1h-1zM37 41h1v1h-1zM38 41h1v1h-1zM39 41h1v1h-1zM40 41h1v1h-1zM41 41h1v1h-1zM42 41h1v1h-1zM43 41h1v1h-1zM44 41h1v1h-1zM45 41h1v1h-1z"/><path fill="#423020" d="M46 41h1v1h-1z"/><path fill="#49331C" d="M47 41h1v1h-1z"/><path fill="#47321A" d="M48 41h1v1h-1zM49 41h1v1h-1zM50 41h1v1h-1z"/><path fill="#593F1D" d="M51 41h1v1h-1z"/><path fill="#6C4C1F" d="M52 41h1v1h-1zM53 41h1v1h-1zM54 41h1v1h-1zM55 41h1v1h-1zM56 41h1v1h-1z"/><path fill="#7E5822" d="M57 41h1v1h-1z"/><path fill="#906524" d="M58 41h1v1h-1zM59 41h1v1h-1zM60 41h1v1h-1zM61 41h1v1h-1zM62 41h1v1h-1zM63 41h1v1h-1z"/><path fill="#7E5822" d="M64 41h1v1h-1z"/><path fill="#6C4C1F" d="M65 41h1v1h-1z"/><path fill="#593F1D" d="M66 41h1v1h-1z"/><path fill="#3E2B19" d="M67 41h1v1h-1z"/><path fill="#231815" d="M68 41h1v1h-1zM69 41h1v1h-1zM70 41h1v1h-1zM71 41h1v1h-1zM72 41h1v1h-1zM73 41h1v1h-1zM74 41h1v1h-1zM75 41h1v1h-1zM5 42h1v1H5zM6 42h1v1H6zM7 42h1v1H7zM8 42h1v1H8z"/><path fill="#61472A" d="M9 42h1v1H9z"/><path fill="#C8964D" d="M10 42h1v1h-1zM11 42h1v1h-1zM12 42h1v1h-1zM13 42h1v1h-1zM14 42h1v1h-1zM15 42h1v1h-1zM16 42h1v1h-1zM17 42h1v1h-1zM18 42h1v1h-1zM19 42h1v1h-1zM20 42h1v1h-1zM21 42h1v1h-1zM22 42h1v1h-1zM23 42h1v1h-1zM24 42h1v1h-1zM25 42h1v1h-1z"/><path fill="#9F773F" d="M26 42h1v1h-1z"/><path fill="#573F27" d="M27 42h1v1h-1z"/><path fill="#231815" d="M28 42h1v1h-1zM29 42h1v1h-1zM30 42h1v1h-1zM31 42h1v1h-1zM32 42h1v1h-1zM33 42h1v1h-1zM34 42h1v1h-1zM35 42h1v1h-1zM36 42h1v1h-1zM37 42h1v1h-1zM38 42h1v1h-1zM39 42h1v1h-1zM40 42h1v1h-1zM41 42h1v1h-1zM42 42h1v1h-1zM43 42h1v1h-1zM44 42h1v1h-1zM45 42h1v1h-1zM46 42h1v1h-1zM47 42h1v1h-1zM48 42h1v1h-1zM49 42h1v1h-1zM50 42h1v1h-1zM51 42h1v1h-1zM52 42h1v1h-1zM53 42h1v1h-1zM54 42h1v1h-1zM55 42h1v1h-1zM56 42h1v1h-1zM57 42h1v1h-1zM58 42h1v1h-1zM59 42h1v1h-1zM60 42h1v1h-1zM61 42h1v1h-1zM62 42h1v1h-1zM63 42h1v1h-1zM64 42h1v1h-1zM65 42h1v1h-1zM66 42h1v1h-1zM67 42h1v1h-1zM68 42h1v1h-1zM69 42h1v1h-1zM70 42h1v1h-1zM71 42h1v1h-1zM72 42h1v1h-1zM73 42h1v1h-1zM5 43h1v1H5zM6 43h1v1H6zM7 43h1v1H7z"/><path fill="#38281C" d="M8 43h1v1H8z"/><path fill="#BE8E4A" d="M9 43h1v1H9z"/><path fill="#C8964D" d="M10 43h1v1h-1zM11 43h1v1h-1zM12 43h1v1h-1zM13 43h1v1h-1zM14 43h1v1h-1zM15 43h1v1h-1zM16 43h1v1h-1zM17 43h1v1h-1zM18 43h1v1h-1zM19 43h1v1h-1zM20 43h1v1h-1zM21 43h1v1h-1zM22 43h1v1h-1zM23 43h1v1h-1z"/><path fill="#9F773F" d="M24 43h1v1h-1z"/><path fill="#4C3823" d="M25 43h1v1h-1z"/><path fill="#231815" d="M26 43h1v1h-1zM27 43h1v1h-1zM28 43h1v1h-1zM29 43h1v1h-1zM30 43h1v1h-1zM31 43h1v1h-1zM32 43h1v1h-1zM33 43h1v1h-1zM34 43h1v1h-1zM35 43h1v1h-1zM36 43h1v1h-1zM37 43h1v1h-1zM38 43h1v1h-1zM39 43h1v1h-1z"/><path fill="#392518" d="M40 43h1v1h-1z"/><path fill="#231815" d="M41 43h1v1h-1zM42 43h1v1h-1zM43 43h1v1h-1zM44 43h1v1h-1zM45 43h1v1h-1zM46 43h1v1h-1zM47 43h1v1h-1zM48 43h1v1h-1zM49 43h1v1h-1zM50 43h1v1h-1zM51 43h1v1h-1zM52 43h1v1h-1zM53 43h1v1h-1zM54 43h1v1h-1zM55 43h1v1h-1zM56 43h1v1h-1zM57 43h1v1h-1zM58 43h1v1h-1zM59 43h1v1h-1zM60 43h1v1h-1zM61 43h1v1h-1zM62 43h1v1h-1zM63 43h1v1h-1zM64 43h1v1h-1zM65 43h1v1h-1zM66 43h1v1h-1zM67 43h1v1h-1zM68 43h1v1h-1zM69 43h1v1h-1zM70 43h1v1h-1zM71 43h1v1h-1zM4 44h1v1H4zM5 44h1v1H5zM6 44h1v1H6zM7 44h1v1H7z"/><path fill="#9F773F" d="M8 44h1v1H8z"/><path fill="#C8964D" d="M9 44h1v1H9zM10 44h1v1h-1zM11 44h1v1h-1zM12 44h1v1h-1zM13 44h1v1h-1zM14 44h1v1h-1zM15 44h1v1h-1zM16 44h1v1h-1zM17 44h1v1h-1zM18 44h1v1h-1zM19 44h1v1h-1zM20 44h1v1h-1zM21 44h1v1h-1zM22 44h1v1h-1z"/><path fill="#6B4F2E" d="M23 44h1v1h-1z"/><path fill="#231815" d="M24 44h1v1h-1zM25 44h1v1h-1zM26 44h1v1h-1zM27 44h1v1h-1zM28 44h1v1h-1zM29 44h1v1h-1zM30 44h1v1h-1zM31 44h1v1h-1zM32 44h1v1h-1zM36 44h1v1h-1zM37 44h1v1h-1zM38 44h1v1h-1z"/><path fill="#322117" d="M39 44h1v1h-1z"/><path fill="#9A5D24" d="M40 44h1v1h-1zM41 44h1v1h-1zM42 44h1v1h-1zM43 44h1v1h-1zM44 44h1v1h-1zM45 44h1v1h-1z"/><path fill="#7C4C20" d="M46 44h1v1h-1zM47 44h1v1h-1zM48 44h1v1h-1zM49 44h1v1h-1zM50 44h1v1h-1z"/><path fill="#482E1A" d="M51 44h1v1h-1z"/><path fill="#231815" d="M52 44h1v1h-1zM53 44h1v1h-1zM54 44h1v1h-1zM55 44h1v1h-1zM56 44h1v1h-1zM57 44h1v1h-1zM58 44h1v1h-1zM59 44h1v1h-1zM60 44h1v1h-1zM61 44h1v1h-1zM62 44h1v1h-1zM63 44h1v1h-1zM64 44h1v1h-1zM65 44h1v1h-1zM66 44h1v1h-1zM67 44h1v1h-1zM68 44h1v1h-1zM4 45h1v1H4zM5 45h1v1H5zM6 45h1v1H6z"/><path fill="#61472A" d="M7 45h1v1H7z"/><path fill="#C8964D" d="M8 45h1v1H8zM9 45h1v1H9zM10 45h1v1h-1zM11 45h1v1h-1zM12 45h1v1h-1zM13 45h1v1h-1zM14 45h1v1h-1zM15 45h1v1h-1zM16 45h1v1h-1zM17 45h1v1h-1zM18 45h1v1h-1zM19 45h1v1h-1zM20 45h1v1h-1z"/><path fill="#BE8E4A" d="M21 45h1v1h-1z"/><path fill="#423020" d="M22 45h1v1h-1z"/><path fill="#231815" d="M23 45h1v1h-1zM24 45h1v1h-1zM25 45h1v1h-1zM26 45h1v1h-1zM27 45h1v1h-1zM28 45h1v1h-1zM36 45h1v1h-1zM37 45h1v1h-1zM38 45h1v1h-1z"/><path fill="#50321B" d="M39 45h1v1h-1z"/><path fill="#9A5D24" d="M40 45h1v1h-1zM41 45h1v1h-1zM42 45h1v1h-1zM43 45h1v1h-1zM44 45h1v1h-1zM45 45h1v1h-1zM46 45h1v1h-1zM47 45h1v1h-1zM48 45h1v1h-1zM49 45h1v1h-1zM50 45h1v1h-1z"/><path fill="#412919" d="M51 45h1v1h-1z"/><path fill="#231815" d="M52 45h1v1h-1zM53 45h1v1h-1zM54 45h1v1h-1zM3 46h1v1H3zM4 46h1v1H4zM5 46h1v1H5z"/><path fill="#2D2019" d="M6 46h1v1H6z"/><path fill="#BE8E4A" d="M7 46h1v1H7z"/><path fill="#C8964D" d="M8 46h1v1H8zM9 46h1v1H9zM10 46h1v1h-1zM11 46h1v1h-1zM12 46h1v1h-1zM13 46h1v1h-1zM14 46h1v1h-1zM15 46h1v1h-1zM16 46h1v1h-1zM17 46h1v1h-1zM18 46h1v1h-1zM19 46h1v1h-1z"/><path fill="#A97E43" d="M20 46h1v1h-1z"/><path fill="#2D2019" d="M21 46h1v1h-1z"/><path fill="#231815" d="M22 46h1v1h-1zM23 46h1v1h-1zM24 46h1v1h-1zM25 46h1v1h-1zM26 46h1v1h-1zM35 46h1v1h-1zM36 46h1v1h-1zM37 46h1v1h-1zM38 46h1v1h-1z"/><path fill="#7C4C20" d="M39 46h1v1h-1z"/><path fill="#9A5D24" d="M40 46h1v1h-1zM41 46h1v1h-1zM42 46h1v1h-1zM43 46h1v1h-1zM44 46h1v1h-1zM45 46h1v1h-1zM46 46h1v1h-1zM47 46h1v1h-1zM48 46h1v1h-1zM49 46h1v1h-1zM50 46h1v1h-1z"/><path fill="#2A1C16" d="M51 46h1v1h-1z"/><path fill="#231815" d="M52 46h1v1h-1zM53 46h1v1h-1zM54 46h1v1h-1zM3 47h1v1H3zM4 47h1v1H4zM5 47h1v1H5z"/><path fill="#765731" d="M6 47h1v1H6z"/><path fill="#C8964D" d="M7 47h1v1H7zM8 47h1v1H8zM9 47h1v1H9zM10 47h1v1h-1zM11 47h1v1h-1zM12 47h1v1h-1zM13 47h1v1h-1zM14 47h1v1h-1zM15 47h1v1h-1zM16 47h1v1h-1zM17 47h1v1h-1zM18 47h1v1h-1z"/><path fill="#BE8E4A" d="M19 47h1v1h-1z"/><path fill="#2D2019" d="M20 47h1v1h-1z"/><path fill="#231815" d="M21 47h1v1h-1zM22 47h1v1h-1zM23 47h1v1h-1zM24 47h1v1h-1zM35 47h1v1h-1zM36 47h1v1h-1zM37 47h1v1h-1z"/><path fill="#392518" d="M38 47h1v1h-1z"/><path fill="#9A5D24" d="M39 47h1v1h-1zM40 47h1v1h-1zM41 47h1v1h-1zM42 47h1v1h-1zM43 47h1v1h-1zM44 47h1v1h-1zM45 47h1v1h-1zM46 47h1v1h-1zM47 47h1v1h-1zM48 47h1v1h-1zM49 47h1v1h-1z"/><path fill="#7C4C20" d="M50 47h1v1h-1z"/><path fill="#231815" d="M51 47h1v1h-1zM52 47h1v1h-1zM53 47h1v1h-1zM2 48h1v1H2zM3 48h1v1H3zM4 48h1v1H4zM5 48h1v1H5z"/><path fill="#BE8E4A" d="M6 48h1v1H6z"/><path fill="#C8964D" d="M7 48h1v1H7zM8 48h1v1H8zM9 48h1v1H9zM10 48h1v1h-1zM11 48h1v1h-1zM12 48h1v1h-1zM13 48h1v1h-1zM14 48h1v1h-1zM15 48h1v1h-1zM16 48h1v1h-1zM17 48h1v1h-1z"/><path fill="#BE8E4A" d="M18 48h1v1h-1z"/><path fill="#423020" d="M19 48h1v1h-1z"/><path fill="#231815" d="M20 48h1v1h-1zM21 48h1v1h-1zM22 48h1v1h-1zM23 48h1v1h-1zM34 48h1v1h-1zM35 48h1v1h-1zM36 48h1v1h-1zM37 48h1v1h-1z"/><path fill="#6D431E" d="M38 48h1v1h-1z"/><path fill="#9A5D24" d="M39 48h1v1h-1zM40 48h1v1h-1zM41 48h1v1h-1zM42 48h1v1h-1zM43 48h1v1h-1zM44 48h1v1h-1zM45 48h1v1h-1zM46 48h1v1h-1zM47 48h1v1h-1zM48 48h1v1h-1zM49 48h1v1h-1z"/><path fill="#57361C" d="M50 48h1v1h-1z"/><path fill="#231815" d="M51 48h1v1h-1zM52 48h1v1h-1zM53 48h1v1h-1zM2 49h1v1H2zM3 49h1v1H3zM4 49h1v1H4z"/><path fill="#61472A" d="M5 49h1v1H5z"/><path fill="#C8964D" d="M6 49h1v1H6zM7 49h1v1H7zM8 49h1v1H8zM9 49h1v1H9zM10 49h1v1h-1zM11 49h1v1h-1zM12 49h1v1h-1zM13 49h1v1h-1zM14 49h1v1h-1zM15 49h1v1h-1zM16 49h1v1h-1zM17 49h1v1h-1z"/><path fill="#61472A" d="M18 49h1v1h-1z"/><path fill="#231815" d="M19 49h1v1h-1zM20 49h1v1h-1zM21 49h1v1h-1zM22 49h1v1h-1zM33 49h1v1h-1zM34 49h1v1h-1zM35 49h1v1h-1zM36 49h1v1h-1z"/><path fill="#412919" d="M37 49h1v1h-1z"/><path fill="#9A5D24" d="M38 49h1v1h-1zM39 49h1v1h-1zM40 49h1v1h-1zM41 49h1v1h-1zM42 49h1v1h-1zM43 49h1v1h-1zM44 49h1v1h-1zM45 49h1v1h-1zM46 49h1v1h-1zM47 49h1v1h-1zM48 49h1v1h-1zM49 49h1v1h-1z"/><path fill="#322117" d="M50 49h1v1h-1z"/><path fill="#231815" d="M51 49h1v1h-1zM52 49h1v1h-1zM53 49h1v1h-1zM1 50h1v1H1zM2 50h1v1H2zM3 50h1v1H3zM4 50h1v1H4z"/><path fill="#A97E43" d="M5 50h1v1H5z"/><path fill="#C8964D" d="M6 50h1v1H6zM7 50h1v1H7zM8 50h1v1H8zM9 50h1v1H9zM10 50h1v1h-1zM11 50h1v1h-1zM12 50h1v1h-1zM13 50h1v1h-1zM14 50h1v1h-1zM15 50h1v1h-1zM16 50h1v1h-1z"/><path fill="#9F773F" d="M17 50h1v1h-1z"/><path fill="#231815" d="M18 50h1v1h-1zM19 50h1v1h-1zM20 50h1v1h-1zM21 50h1v1h-1zM33 50h1v1h-1zM34 50h1v1h-1zM35 50h1v1h-1zM36 50h1v1h-1z"/><path fill="#845021" d="M37 50h1v1h-1z"/><path fill="#9A5D24" d="M38 50h1v1h-1zM39 50h1v1h-1zM40 50h1v1h-1zM41 50h1v1h-1zM42 50h1v1h-1zM43 50h1v1h-1zM44 50h1v1h-1zM45 50h1v1h-1zM46 50h1v1h-1zM47 50h1v1h-1zM48 50h1v1h-1z"/><path fill="#7C4C20" d="M49 50h1v1h-1z"/><path fill="#231815" d="M50 50h1v1h-1zM51 50h1v1h-1zM52 50h1v1h-1zM53 50h1v1h-1zM1 51h1v1H1zM2 51h1v1H2zM3 51h1v1H3z"/><path fill="#423020" d="M4 51h1v1H4z"/><path fill="#C8964D" d="M5 51h1v1H5zM6 51h1v1H6zM7 51h1v1H7zM8 51h1v1H8zM9 51h1v1H9zM10 51h1v1h-1zM11 51h1v1h-1zM12 51h1v1h-1zM13 51h1v1h-1zM14 51h1v1h-1zM15 51h1v1h-1zM16 51h1v1h-1z"/><path fill="#38281C" d="M17 51h1v1h-1z"/><path fill="#231815" d="M18 51h1v1h-1zM19 51h1v1h-1zM20 51h1v1h-1zM32 51h1v1h-1zM33 51h1v1h-1zM34 51h1v1h-1zM35 51h1v1h-1z"/><path fill="#663F1D" d="M36 51h1v1h-1z"/><path fill="#9A5D24" d="M37 51h1v1h-1zM38 51h1v1h-1zM39 51h1v1h-1zM40 51h1v1h-1zM41 51h1v1h-1zM42 51h1v1h-1zM43 51h1v1h-1zM44 51h1v1h-1zM45 51h1v1h-1zM46 51h1v1h-1zM47 51h1v1h-1zM48 51h1v1h-1z"/><path fill="#50321B" d="M49 51h1v1h-1z"/><path fill="#231815" d="M50 51h1v1h-1zM51 51h1v1h-1zM52 51h1v1h-1zM1 52h1v1H1zM2 52h1v1H2zM3 52h1v1H3z"/><path fill="#765731" d="M4 52h1v1H4z"/><path fill="#C8964D" d="M5 52h1v1H5zM6 52h1v1H6zM7 52h1v1H7zM8 52h1v1H8zM9 52h1v1H9zM10 52h1v1h-1zM11 52h1v1h-1zM12 52h1v1h-1zM13 52h1v1h-1zM14 52h1v1h-1zM15 52h1v1h-1z"/><path fill="#8A6738" d="M16 52h1v1h-1z"/><path fill="#231815" d="M17 52h1v1h-1zM18 52h1v1h-1zM19 52h1v1h-1zM20 52h1v1h-1zM31 52h1v1h-1zM32 52h1v1h-1zM33 52h1v1h-1zM34 52h1v1h-1z"/><path fill="#50321B" d="M35 52h1v1h-1z"/><path fill="#9A5D24" d="M36 52h1v1h-1zM37 52h1v1h-1zM38 52h1v1h-1zM39 52h1v1h-1zM40 52h1v1h-1zM41 52h1v1h-1zM42 52h1v1h-1zM43 52h1v1h-1zM44 52h1v1h-1zM45 52h1v1h-1zM46 52h1v1h-1zM47 52h1v1h-1z"/><path fill="#8B5422" d="M48 52h1v1h-1z"/><path fill="#231815" d="M49 52h1v1h-1zM50 52h1v1h-1zM51 52h1v1h-1zM52 52h1v1h-1zM1 53h1v1H1zM2 53h1v1H2zM3 53h1v1H3z"/><path fill="#A97E43" d="M4 53h1v1H4z"/><path fill="#C8964D" d="M5 53h1v1H5zM6 53h1v1H6zM7 53h1v1H7zM8 53h1v1H8zM9 53h1v1H9zM10 53h1v1h-1zM11 53h1v1h-1zM12 53h1v1h-1zM13 53h1v1h-1zM14 53h1v1h-1zM15 53h1v1h-1z"/><path fill="#38281C" d="M16 53h1v1h-1z"/><path fill="#231815" d="M17 53h1v1h-1zM18 53h1v1h-1zM19 53h1v1h-1zM29 53h1v1h-1zM30 53h1v1h-1zM31 53h1v1h-1zM32 53h1v1h-1zM33 53h1v1h-1z"/><path fill="#392518" d="M34 53h1v1h-1z"/><path fill="#935923" d="M35 53h1v1h-1z"/><path fill="#9A5D24" d="M36 53h1v1h-1zM37 53h1v1h-1zM38 53h1v1h-1zM39 53h1v1h-1zM40 53h1v1h-1zM41 53h1v1h-1zM42 53h1v1h-1zM43 53h1v1h-1zM44 53h1v1h-1zM45 53h1v1h-1zM46 53h1v1h-1zM47 53h1v1h-1z"/><path fill="#50321B" d="M48 53h1v1h-1z"/><path fill="#231815" d="M49 53h1v1h-1zM50 53h1v1h-1zM51 53h1v1h-1zM0 54h1v1H0zM1 54h1v1H1zM2 54h1v1H2z"/><path fill="#2D2019" d="M3 54h1v1H3z"/><path fill="#C8964D" d="M4 54h1v1H4zM5 54h1v1H5zM6 54h1v1H6zM7 54h1v1H7zM8 54h1v1H8zM9 54h1v1H9zM10 54h1v1h-1zM11 54h1v1h-1zM12 54h1v1h-1zM13 54h1v1h-1zM14 54h1v1h-1z"/><path fill="#946F3C" d="M15 54h1v1h-1z"/><path fill="#231815" d="M16 54h1v1h-1zM17 54h1v1h-1zM18 54h1v1h-1zM19 54h1v1h-1zM28 54h1v1h-1zM29 54h1v1h-1zM30 54h1v1h-1zM31 54h1v1h-1zM32 54h1v1h-1z"/><path fill="#392518" d="M33 54h1v1h-1z"/><path fill="#935923" d="M34 54h1v1h-1z"/><path fill="#9A5D24" d="M35 54h1v1h-1zM36 54h1v1h-1zM37 54h1v1h-1zM38 54h1v1h-1zM39 54h1v1h-1zM40 54h1v1h-1zM41 54h1v1h-1zM42 54h1v1h-1zM43 54h1v1h-1zM44 54h1v1h-1zM45 54h1v1h-1zM46 54h1v1h-1z"/><path fill="#8B5422" d="M47 54h1v1h-1z"/><path fill="#231815" d="M48 54h1v1h-1zM49 54h1v1h-1zM50 54h1v1h-1zM51 54h1v1h-1zM0 55h1v1H0zM1 55h1v1H1zM2 55h1v1H2z"/><path fill="#4C3823" d="M3 55h1v1H3z"/><path fill="#C8964D" d="M4 55h1v1H4zM5 55h1v1H5zM6 55h1v1H6zM7 55h1v1H7zM8 55h1v1H8zM9 55h1v1H9zM10 55h1v1h-1zM11 55h1v1h-1zM12 55h1v1h-1zM13 55h1v1h-1zM14 55h1v1h-1z"/><path fill="#61472A" d="M15 55h1v1h-1z"/><path fill="#231815" d="M16 55h1v1h-1zM17 55h1v1h-1zM18 55h1v1h-1zM26 55h1v1h-1zM27 55h1v1h-1zM28 55h1v1h-1zM29 55h1v1h-1zM30 55h1v1h-1zM31 55h1v1h-1z"/><path fill="#50321B" d="M32 55h1v1h-1z"/><path fill="#935923" d="M33 55h1v1h-1z"/><path fill="#9A5D24" d="M34 55h1v1h-1zM35 55h1v1h-1zM36 55h1v1h-1zM37 55h1v1h-1zM38 55h1v1h-1zM39 55h1v1h-1zM40 55h1v1h-1zM41 55h1v1h-1zM42 55h1v1h-1zM43 55h1v1h-1zM44 55h1v1h-1zM45 55h1v1h-1zM46 55h1v1h-1z"/><path fill="#482E1A" d="M47 55h1v1h-1z"/><path fill="#231815" d="M48 55h1v1h-1zM49 55h1v1h-1zM50 55h1v1h-1zM0 56h1v1H0zM1 56h1v1H1zM2 56h1v1H2z"/><path fill="#765731" d="M3 56h1v1H3z"/><path fill="#C8964D" d="M4 56h1v1H4zM5 56h1v1H5zM6 56h1v1H6zM7 56h1v1H7zM8 56h1v1H8zM9 56h1v1H9zM10 56h1v1h-1zM11 56h1v1h-1zM12 56h1v1h-1zM13 56h1v1h-1zM14 56h1v1h-1z"/><path fill="#2D2019" d="M15 56h1v1h-1z"/><path fill="#231815" d="M16 56h1v1h-1zM17 56h1v1h-1zM18 56h1v1h-1zM24 56h1v1h-1zM25 56h1v1h-1zM26 56h1v1h-1zM27 56h1v1h-1zM28 56h1v1h-1zM29 56h1v1h-1zM30 56h1v1h-1z"/><path fill="#663F1D" d="M31 56h1v1h-1z"/><path fill="#9A5D24" d="M32 56h1v1h-1zM33 56h1v1h-1zM34 56h1v1h-1zM35 56h1v1h-1zM36 56h1v1h-1zM37 56h1v1h-1zM38 56h1v1h-1zM39 56h1v1h-1zM40 56h1v1h-1zM41 56h1v1h-1zM42 56h1v1h-1zM43 56h1v1h-1zM44 56h1v1h-1zM45 56h1v1h-1z"/><path fill="#75471F" d="M46 56h1v1h-1z"/><path fill="#231815" d="M47 56h1v1h-1zM48 56h1v1h-1zM49 56h1v1h-1zM50 56h1v1h-1zM0 57h1v1H0zM1 57h1v1H1zM2 57h1v1H2z"/><path fill="#85612F" d="M3 57h1v1H3z"/><path fill="#C8964D" d="M4 57h1v1H4zM5 57h1v1H5zM6 57h1v1H6zM7 57h1v1H7zM8 57h1v1H8zM9 57h1v1H9zM10 57h1v1h-1zM11 57h1v1h-1zM12 57h1v1h-1zM13 57h1v1h-1z"/><path fill="#A97E43" d="M14 57h1v1h-1z"/><path fill="#231815" d="M15 57h1v1h-1zM16 57h1v1h-1zM17 57h1v1h-1zM22 57h1v1h-1zM23 57h1v1h-1zM24 57h1v1h-1zM25 57h1v1h-1zM26 57h1v1h-1zM27 57h1v1h-1zM28 57h1v1h-1z"/><path fill="#392518" d="M29 57h1v1h-1z"/><path fill="#845021" d="M30 57h1v1h-1z"/><path fill="#9A5D24" d="M31 57h1v1h-1zM32 57h1v1h-1zM33 57h1v1h-1zM34 57h1v1h-1zM35 57h1v1h-1zM36 57h1v1h-1zM37 57h1v1h-1zM38 57h1v1h-1zM39 57h1v1h-1zM40 57h1v1h-1zM41 57h1v1h-1zM42 57h1v1h-1zM43 57h1v1h-1zM44 57h1v1h-1z"/><path fill="#935923" d="M45 57h1v1h-1z"/><path fill="#2A1C16" d="M46 57h1v1h-1z"/><path fill="#231815" d="M47 57h1v1h-1zM48 57h1v1h-1zM49 57h1v1h-1zM0 58h1v1H0zM1 58h1v1H1zM2 58h1v1H2z"/><path fill="#906524" d="M3 58h1v1H3z"/><path fill="#C28F42" d="M4 58h1v1H4z"/><path fill="#C8964D" d="M5 58h1v1H5zM6 58h1v1H6zM7 58h1v1H7zM8 58h1v1H8zM9 58h1v1H9zM10 58h1v1h-1zM11 58h1v1h-1zM12 58h1v1h-1zM13 58h1v1h-1z"/><path fill="#8A6738" d="M14 58h1v1h-1z"/><path fill="#231815" d="M15 58h1v1h-1zM16 58h1v1h-1zM17 58h1v1h-1zM18 58h1v1h-1zM19 58h1v1h-1zM20 58h1v1h-1zM21 58h1v1h-1zM22 58h1v1h-1zM23 58h1v1h-1zM24 58h1v1h-1zM25 58h1v1h-1zM26 58h1v1h-1z"/><path fill="#322117" d="M27 58h1v1h-1z"/><path fill="#6D431E" d="M28 58h1v1h-1z"/><path fill="#9A5D24" d="M29 58h1v1h-1zM30 58h1v1h-1zM31 58h1v1h-1zM32 58h1v1h-1zM33 58h1v1h-1zM34 58h1v1h-1zM35 58h1v1h-1zM36 58h1v1h-1zM37 58h1v1h-1zM38 58h1v1h-1zM39 58h1v1h-1zM40 58h1v1h-1zM41 58h1v1h-1zM42 58h1v1h-1zM43 58h1v1h-1zM44 58h1v1h-1z"/><path fill="#482E1A" d="M45 58h1v1h-1z"/><path fill="#231815" d="M46 58h1v1h-1zM47 58h1v1h-1zM48 58h1v1h-1zM49 58h1v1h-1zM0 59h1v1H0zM1 59h1v1H1zM2 59h1v1H2z"/><path fill="#906524" d="M3 59h1v1H3z"/><path fill="#B5802B" d="M4 59h1v1H4z"/><path fill="#C28F42" d="M5 59h1v1H5z"/><path fill="#C8964D" d="M6 59h1v1H6zM7 59h1v1H7zM8 59h1v1H8zM9 59h1v1H9zM10 59h1v1h-1zM11 59h1v1h-1zM12 59h1v1h-1zM13 59h1v1h-1z"/><path fill="#765731" d="M14 59h1v1h-1z"/><path fill="#231815" d="M15 59h1v1h-1zM16 59h1v1h-1zM17 59h1v1h-1zM18 59h1v1h-1zM19 59h1v1h-1zM20 59h1v1h-1zM21 59h1v1h-1zM22 59h1v1h-1zM23 59h1v1h-1zM24 59h1v1h-1z"/><path fill="#322117" d="M25 59h1v1h-1z"/><path fill="#6D431E" d="M26 59h1v1h-1z"/><path fill="#9A5D24" d="M27 59h1v1h-1zM28 59h1v1h-1zM29 59h1v1h-1zM30 59h1v1h-1zM31 59h1v1h-1zM32 59h1v1h-1zM33 59h1v1h-1zM34 59h1v1h-1zM35 59h1v1h-1zM36 59h1v1h-1zM37 59h1v1h-1zM38 59h1v1h-1zM39 59h1v1h-1zM40 59h1v1h-1zM41 59h1v1h-1zM42 59h1v1h-1zM43 59h1v1h-1z"/><path fill="#5F3B1D" d="M44 59h1v1h-1z"/><path fill="#231815" d="M45 59h1v1h-1zM46 59h1v1h-1zM47 59h1v1h-1zM48 59h1v1h-1zM0 60h1v1H0zM1 60h1v1H1zM2 60h1v1H2z"/><path fill="#906524" d="M3 60h1v1H3z"/><path fill="#B47F29" d="M4 60h1v1H4zM5 60h1v1H5z"/><path fill="#BE8B3B" d="M6 60h1v1H6z"/><path fill="#C7954B" d="M7 60h1v1H7z"/><path fill="#C8964D" d="M8 60h1v1H8zM9 60h1v1H9zM10 60h1v1h-1zM11 60h1v1h-1zM12 60h1v1h-1zM13 60h1v1h-1z"/><path fill="#765731" d="M14 60h1v1h-1z"/><path fill="#231815" d="M15 60h1v1h-1zM16 60h1v1h-1zM17 60h1v1h-1zM18 60h1v1h-1zM19 60h1v1h-1zM20 60h1v1h-1zM21 60h1v1h-1z"/><path fill="#322117" d="M22 60h1v1h-1z"/><path fill="#57361C" d="M23 60h1v1h-1z"/><path fill="#845021" d="M24 60h1v1h-1z"/><path fill="#9A5D24" d="M25 60h1v1h-1zM26 60h1v1h-1zM27 60h1v1h-1zM28 60h1v1h-1zM29 60h1v1h-1zM30 60h1v1h-1zM31 60h1v1h-1zM32 60h1v1h-1zM33 60h1v1h-1zM34 60h1v1h-1zM35 60h1v1h-1zM36 60h1v1h-1zM37 60h1v1h-1zM38 60h1v1h-1zM39 60h1v1h-1zM40 60h1v1h-1zM41 60h1v1h-1zM42 60h1v1h-1z"/><path fill="#6D431E" d="M43 60h1v1h-1z"/><path fill="#231815" d="M44 60h1v1h-1zM45 60h1v1h-1zM46 60h1v1h-1zM47 60h1v1h-1zM0 61h1v1H0zM1 61h1v1H1zM2 61h1v1H2z"/><path fill="#906524" d="M3 61h1v1H3z"/><path fill="#B47F29" d="M4 61h1v1H4zM5 61h1v1H5zM6 61h1v1H6z"/><path fill="#B7822E" d="M7 61h1v1H7z"/><path fill="#C18D40" d="M8 61h1v1H8z"/><path fill="#C7954B" d="M9 61h1v1H9z"/><path fill="#C8964D" d="M10 61h1v1h-1zM11 61h1v1h-1zM12 61h1v1h-1zM13 61h1v1h-1z"/><path fill="#61472A" d="M14 61h1v1h-1z"/><path fill="#231815" d="M15 61h1v1h-1zM16 61h1v1h-1z"/><path fill="#392518" d="M17 61h1v1h-1z"/><path fill="#482E1A" d="M18 61h1v1h-1z"/><path fill="#5F3B1D" d="M19 61h1v1h-1z"/><path fill="#6D431E" d="M20 61h1v1h-1z"/><path fill="#8B5422" d="M21 61h1v1h-1z"/><path fill="#9A5D24" d="M22 61h1v1h-1zM23 61h1v1h-1zM24 61h1v1h-1zM25 61h1v1h-1zM26 61h1v1h-1zM27 61h1v1h-1zM28 61h1v1h-1zM29 61h1v1h-1zM30 61h1v1h-1zM31 61h1v1h-1zM32 61h1v1h-1zM33 61h1v1h-1zM34 61h1v1h-1zM35 61h1v1h-1zM36 61h1v1h-1zM37 61h1v1h-1zM38 61h1v1h-1zM39 61h1v1h-1zM40 61h1v1h-1zM41 61h1v1h-1z"/><path fill="#6D431E" d="M42 61h1v1h-1z"/><path fill="#231815" d="M43 61h1v1h-1zM44 61h1v1h-1zM45 61h1v1h-1zM46 61h1v1h-1zM47 61h1v1h-1zM0 62h1v1H0zM1 62h1v1H1zM2 62h1v1H2z"/><path fill="#906524" d="M3 62h1v1H3z"/><path fill="#B47F29" d="M4 62h1v1H4zM5 62h1v1H5zM6 62h1v1H6zM7 62h1v1H7zM8 62h1v1H8z"/><path fill="#B5802B" d="M9 62h1v1H9z"/><path fill="#BC8837" d="M10 62h1v1h-1z"/><path fill="#C28F42" d="M11 62h1v1h-1z"/><path fill="#C7954B" d="M12 62h1v1h-1z"/><path fill="#C8964D" d="M13 62h1v1h-1z"/><path fill="#4C3823" d="M14 62h1v1h-1z"/><path fill="#231815" d="M15 62h1v1h-1zM16 62h1v1h-1z"/><path fill="#7C4C20" d="M17 62h1v1h-1z"/><path fill="#9A5D24" d="M18 62h1v1h-1zM19 62h1v1h-1zM20 62h1v1h-1zM21 62h1v1h-1zM22 62h1v1h-1zM23 62h1v1h-1zM24 62h1v1h-1zM25 62h1v1h-1zM26 62h1v1h-1zM27 62h1v1h-1zM28 62h1v1h-1zM29 62h1v1h-1zM30 62h1v1h-1zM31 62h1v1h-1zM32 62h1v1h-1zM33 62h1v1h-1zM34 62h1v1h-1zM35 62h1v1h-1zM36 62h1v1h-1zM37 62h1v1h-1zM38 62h1v1h-1zM39 62h1v1h-1zM40 62h1v1h-1z"/><path fill="#6D431E" d="M41 62h1v1h-1z"/><path fill="#231815" d="M42 62h1v1h-1zM43 62h1v1h-1zM44 62h1v1h-1zM45 62h1v1h-1zM46 62h1v1h-1zM0 63h1v1H0zM1 63h1v1H1zM2 63h1v1H2z"/><path fill="#755220" d="M3 63h1v1H3z"/><path fill="#B47F29" d="M4 63h1v1H4zM5 63h1v1H5zM6 63h1v1H6zM7 63h1v1H7zM8 63h1v1H8zM9 63h1v1H9zM10 63h1v1h-1zM11 63h1v1h-1zM12 63h1v1h-1z"/><path fill="#B88330" d="M13 63h1v1h-1z"/><path fill="#49331C" d="M14 63h1v1h-1z"/><path fill="#231815" d="M15 63h1v1h-1zM16 63h1v1h-1z"/><path fill="#75471F" d="M17 63h1v1h-1z"/><path fill="#9A5D24" d="M18 63h1v1h-1zM19 63h1v1h-1zM20 63h1v1h-1zM21 63h1v1h-1zM22 63h1v1h-1zM23 63h1v1h-1zM24 63h1v1h-1zM25 63h1v1h-1zM26 63h1v1h-1zM27 63h1v1h-1zM28 63h1v1h-1zM29 63h1v1h-1zM30 63h1v1h-1zM31 63h1v1h-1zM32 63h1v1h-1zM33 63h1v1h-1zM34 63h1v1h-1zM35 63h1v1h-1zM36 63h1v1h-1zM37 63h1v1h-1zM38 63h1v1h-1zM39 63h1v1h-1z"/><path fill="#6D431E" d="M40 63h1v1h-1z"/><path fill="#231815" d="M41 63h1v1h-1zM42 63h1v1h-1zM43 63h1v1h-1zM44 63h1v1h-1zM45 63h1v1h-1zM0 64h1v1H0zM1 64h1v1H1zM2 64h1v1H2z"/><path fill="#593F1D" d="M3 64h1v1H3z"/><path fill="#B47F29" d="M4 64h1v1H4zM5 64h1v1H5zM6 64h1v1H6zM7 64h1v1H7zM8 64h1v1H8zM9 64h1v1H9zM10 64h1v1h-1zM11 64h1v1h-1zM12 64h1v1h-1zM13 64h1v1h-1z"/><path fill="#50381B" d="M14 64h1v1h-1z"/><path fill="#231815" d="M15 64h1v1h-1zM16 64h1v1h-1z"/><path fill="#5F3B1D" d="M17 64h1v1h-1z"/><path fill="#9A5D24" d="M18 64h1v1h-1zM19 64h1v1h-1zM20 64h1v1h-1zM21 64h1v1h-1zM22 64h1v1h-1zM23 64h1v1h-1zM24 64h1v1h-1zM25 64h1v1h-1zM26 64h1v1h-1zM27 64h1v1h-1zM28 64h1v1h-1zM29 64h1v1h-1zM30 64h1v1h-1zM31 64h1v1h-1zM32 64h1v1h-1zM33 64h1v1h-1zM34 64h1v1h-1zM35 64h1v1h-1zM36 64h1v1h-1zM37 64h1v1h-1zM38 64h1v1h-1z"/><path fill="#57361C" d="M39 64h1v1h-1z"/><path fill="#231815" d="M40 64h1v1h-1zM41 64h1v1h-1zM42 64h1v1h-1zM43 64h1v1h-1zM44 64h1v1h-1zM0 65h1v1H0zM1 65h1v1H1zM2 65h1v1H2z"/><path fill="#352518" d="M3 65h1v1H3z"/><path fill="#B47F29" d="M4 65h1v1H4zM5 65h1v1H5zM6 65h1v1H6zM7 65h1v1H7zM8 65h1v1H8zM9 65h1v1H9zM10 65h1v1h-1zM11 65h1v1h-1zM12 65h1v1h-1zM13 65h1v1h-1z"/><path fill="#6C4C1F" d="M14 65h1v1h-1z"/><path fill="#231815" d="M15 65h1v1h-1zM16 65h1v1h-1z"/><path fill="#5F3B1D" d="M17 65h1v1h-1z"/><path fill="#9A5D24" d="M18 65h1v1h-1zM19 65h1v1h-1zM20 65h1v1h-1zM21 65h1v1h-1zM22 65h1v1h-1zM23 65h1v1h-1zM24 65h1v1h-1zM25 65h1v1h-1zM26 65h1v1h-1zM27 65h1v1h-1zM28 65h1v1h-1zM29 65h1v1h-1zM30 65h1v1h-1zM31 65h1v1h-1zM32 65h1v1h-1zM33 65h1v1h-1zM34 65h1v1h-1zM35 65h1v1h-1zM36 65h1v1h-1z"/><path fill="#935923" d="M37 65h1v1h-1z"/><path fill="#412919" d="M38 65h1v1h-1z"/><path fill="#231815" d="M39 65h1v1h-1zM40 65h1v1h-1zM41 65h1v1h-1zM42 65h1v1h-1zM43 65h1v1h-1zM1 66h1v1H1zM2 66h1v1H2zM3 66h1v1H3z"/><path fill="#875F23" d="M4 66h1v1H4z"/><path fill="#B47F29" d="M5 66h1v1H5zM6 66h1v1H6zM7 66h1v1H7zM8 66h1v1H8zM9 66h1v1H9zM10 66h1v1h-1zM11 66h1v1h-1zM12 66h1v1h-1zM13 66h1v1h-1z"/><path fill="#755220" d="M14 66h1v1h-1z"/><path fill="#231815" d="M15 66h1v1h-1zM16 66h1v1h-1z"/><path fill="#412919" d="M17 66h1v1h-1z"/><path fill="#9A5D24" d="M18 66h1v1h-1zM19 66h1v1h-1zM20 66h1v1h-1zM21 66h1v1h-1zM22 66h1v1h-1zM23 66h1v1h-1zM24 66h1v1h-1zM25 66h1v1h-1zM26 66h1v1h-1zM27 66h1v1h-1zM28 66h1v1h-1zM29 66h1v1h-1zM30 66h1v1h-1zM31 66h1v1h-1zM32 66h1v1h-1zM33 66h1v1h-1zM34 66h1v1h-1zM35 66h1v1h-1z"/><path fill="#75471F" d="M36 66h1v1h-1z"/><path fill="#2A1C16" d="M37 66h1v1h-1z"/><path fill="#231815" d="M38 66h1v1h-1zM39 66h1v1h-1zM40 66h1v1h-1zM41 66h1v1h-1zM42 66h1v1h-1zM1 67h1v1H1zM2 67h1v1H2zM3 67h1v1H3z"/><path fill="#3E2B19" d="M4 67h1v1H4z"/><path fill="#B47F29" d="M5 67h1v1H5zM6 67h1v1H6zM7 67h1v1H7zM8 67h1v1H8zM9 67h1v1H9zM10 67h1v1h-1zM11 67h1v1h-1zM12 67h1v1h-1zM13 67h1v1h-1z"/><path fill="#996C25" d="M14 67h1v1h-1z"/><path fill="#231815" d="M15 67h1v1h-1zM16 67h1v1h-1zM17 67h1v1h-1z"/><path fill="#935923" d="M18 67h1v1h-1z"/><path fill="#9A5D24" d="M19 67h1v1h-1zM20 67h1v1h-1zM21 67h1v1h-1zM22 67h1v1h-1zM23 67h1v1h-1zM24 67h1v1h-1zM25 67h1v1h-1zM26 67h1v1h-1zM27 67h1v1h-1zM28 67h1v1h-1zM29 67h1v1h-1zM30 67h1v1h-1zM31 67h1v1h-1zM32 67h1v1h-1zM33 67h1v1h-1z"/><path fill="#8B5422" d="M34 67h1v1h-1z"/><path fill="#412919" d="M35 67h1v1h-1z"/><path fill="#231815" d="M36 67h1v1h-1zM37 67h1v1h-1zM38 67h1v1h-1zM39 67h1v1h-1zM40 67h1v1h-1zM1 68h1v1H1zM2 68h1v1H2zM3 68h1v1H3zM4 68h1v1H4z"/><path fill="#6C4C1F" d="M5 68h1v1H5z"/><path fill="#B47F29" d="M6 68h1v1H6zM7 68h1v1H7zM8 68h1v1H8zM9 68h1v1H9zM10 68h1v1h-1zM11 68h1v1h-1zM12 68h1v1h-1zM13 68h1v1h-1zM14 68h1v1h-1z"/><path fill="#352518" d="M15 68h1v1h-1z"/><path fill="#231815" d="M16 68h1v1h-1zM17 68h1v1h-1z"/><path fill="#5F3B1D" d="M18 68h1v1h-1z"/><path fill="#9A5D24" d="M19 68h1v1h-1zM20 68h1v1h-1zM21 68h1v1h-1zM22 68h1v1h-1zM23 68h1v1h-1zM24 68h1v1h-1zM25 68h1v1h-1zM26 68h1v1h-1zM27 68h1v1h-1zM28 68h1v1h-1zM29 68h1v1h-1zM30 68h1v1h-1zM31 68h1v1h-1z"/><path fill="#935923" d="M32 68h1v1h-1z"/><path fill="#57361C" d="M33 68h1v1h-1z"/><path fill="#231815" d="M34 68h1v1h-1zM35 68h1v1h-1zM36 68h1v1h-1zM37 68h1v1h-1zM38 68h1v1h-1zM39 68h1v1h-1zM2 69h1v1H2zM3 69h1v1H3zM4 69h1v1H4zM5 69h1v1H5z"/><path fill="#7E5822" d="M6 69h1v1H6z"/><path fill="#B47F29" d="M7 69h1v1H7zM8 69h1v1H8zM9 69h1v1H9zM10 69h1v1h-1zM11 69h1v1h-1zM12 69h1v1h-1zM13 69h1v1h-1zM14 69h1v1h-1z"/><path fill="#6C4C1F" d="M15 69h1v1h-1z"/><path fill="#231815" d="M16 69h1v1h-1zM17 69h1v1h-1z"/><path fill="#2A1C16" d="M18 69h1v1h-1z"/><path fill="#845021" d="M19 69h1v1h-1z"/><path fill="#9A5D24" d="M20 69h1v1h-1zM21 69h1v1h-1zM22 69h1v1h-1zM23 69h1v1h-1zM24 69h1v1h-1zM25 69h1v1h-1zM26 69h1v1h-1zM27 69h1v1h-1zM28 69h1v1h-1zM29 69h1v1h-1z"/><path fill="#8B5422" d="M30 69h1v1h-1z"/><path fill="#57361C" d="M31 69h1v1h-1z"/><path fill="#2A1C16" d="M32 69h1v1h-1z"/><path fill="#231815" d="M33 69h1v1h-1zM34 69h1v1h-1zM35 69h1v1h-1zM36 69h1v1h-1zM37 69h1v1h-1zM38 69h1v1h-1zM2 70h1v1H2zM3 70h1v1H3zM4 70h1v1H4zM5 70h1v1H5zM6 70h1v1H6z"/><path fill="#62451E" d="M7 70h1v1H7z"/><path fill="#AB7928" d="M8 70h1v1H8z"/><path fill="#B47F29" d="M9 70h1v1H9zM10 70h1v1h-1zM11 70h1v1h-1zM12 70h1v1h-1zM13 70h1v1h-1zM14 70h1v1h-1z"/><path fill="#AB7928" d="M15 70h1v1h-1z"/><path fill="#352518" d="M16 70h1v1h-1z"/><path fill="#231815" d="M17 70h1v1h-1zM18 70h1v1h-1z"/><path fill="#2A1C16" d="M19 70h1v1h-1z"/><path fill="#75471F" d="M20 70h1v1h-1z"/><path fill="#9A5D24" d="M21 70h1v1h-1zM22 70h1v1h-1zM23 70h1v1h-1zM24 70h1v1h-1zM25 70h1v1h-1zM26 70h1v1h-1zM27 70h1v1h-1z"/><path fill="#75471F" d="M28 70h1v1h-1z"/><path fill="#482E1A" d="M29 70h1v1h-1z"/><path fill="#231815" d="M30 70h1v1h-1zM31 70h1v1h-1zM32 70h1v1h-1zM33 70h1v1h-1zM34 70h1v1h-1zM35 70h1v1h-1zM36 70h1v1h-1zM3 71h1v1H3zM4 71h1v1H4zM5 71h1v1H5zM6 71h1v1H6zM7 71h1v1H7z"/><path fill="#352518" d="M8 71h1v1H8z"/><path fill="#7E5822" d="M9 71h1v1H9z"/><path fill="#AB7928" d="M10 71h1v1h-1z"/><path fill="#B47F29" d="M11 71h1v1h-1zM12 71h1v1h-1zM13 71h1v1h-1zM14 71h1v1h-1zM15 71h1v1h-1z"/><path fill="#996C25" d="M16 71h1v1h-1z"/><path fill="#2C1E16" d="M17 71h1v1h-1z"/><path fill="#231815" d="M18 71h1v1h-1zM19 71h1v1h-1zM20 71h1v1h-1z"/><path fill="#392518" d="M21 71h1v1h-1z"/><path fill="#6D431E" d="M22 71h1v1h-1z"/><path fill="#8B5422" d="M23 71h1v1h-1z"/><path fill="#935923" d="M24 71h1v1h-1z"/><path fill="#75471F" d="M25 71h1v1h-1z"/><path fill="#50321B" d="M26 71h1v1h-1z"/><path fill="#2A1C16" d="M27 71h1v1h-1z"/><path fill="#231815" d="M28 71h1v1h-1zM29 71h1v1h-1zM30 71h1v1h-1zM31 71h1v1h-1zM32 71h1v1h-1zM33 71h1v1h-1zM34 71h1v1h-1zM4 72h1v1H4zM5 72h1v1H5zM6 72h1v1H6zM7 72h1v1H7zM8 72h1v1H8zM9 72h1v1H9zM10 72h1v1h-1z"/><path fill="#50381B" d="M11 72h1v1h-1z"/><path fill="#755220" d="M12 72h1v1h-1z"/><path fill="#906524" d="M13 72h1v1h-1z"/><path fill="#A27227" d="M14 72h1v1h-1z"/><path fill="#B47F29" d="M15 72h1v1h-1zM16 72h1v1h-1z"/><path fill="#996C25" d="M17 72h1v1h-1z"/><path fill="#2C1E16" d="M18 72h1v1h-1z"/><path fill="#231815" d="M19 72h1v1h-1zM20 72h1v1h-1zM21 72h1v1h-1zM22 72h1v1h-1zM23 72h1v1h-1zM24 72h1v1h-1zM25 72h1v1h-1zM26 72h1v1h-1zM27 72h1v1h-1zM28 72h1v1h-1zM29 72h1v1h-1zM30 72h1v1h-1zM31 72h1v1h-1zM32 72h1v1h-1zM6 73h1v1H6zM7 73h1v1H7zM8 73h1v1H8zM9 73h1v1H9zM10 73h1v1h-1zM11 73h1v1h-1zM12 73h1v1h-1zM13 73h1v1h-1zM14 73h1v1h-1zM15 73h1v1h-1zM16 73h1v1h-1zM17 73h1v1h-1zM18 73h1v1h-1zM19 73h1v1h-1zM20 73h1v1h-1zM21 73h1v1h-1zM22 73h1v1h-1zM23 73h1v1h-1zM24 73h1v1h-1zM25 73h1v1h-1zM26 73h1v1h-1zM27 73h1v1h-1zM28 73h1v1h-1zM29 73h1v1h-1zM30 73h1v1h-1zM7 74h1v1H7zM8 74h1v1H8zM9 74h1v1H9zM10 74h1v1h-1zM11 74h1v1h-1zM12 74h1v1h-1zM13 74h1v1h-1zM14 74h1v1h-1zM15 74h1v1h-1zM16 74h1v1h-1zM17 74h1v1h-1zM18 74h1v1h-1zM19 74h1v1h-1zM20 74h1v1h-1zM21 74h1v1h-1zM22 74h1v1h-1zM23 74h1v1h-1zM24 74h1v1h-1zM25 74h1v1h-1zM26 74h1v1h-1zM27 74h1v1h-1zM10 75h1v1h-1zM11 75h1v1h-1zM12 75h1v1h-1zM13 75h1v1h-1zM14 75h1v1h-1zM15 75h1v1h-1zM16 75h1v1h-1zM17 75h1v1h-1zM18 75h1v1h-1zM19 75h1v1h-1zM20 75h1v1h-1zM21 75h1v1h-1zM22 75h1v1h-1zM23 75h1v1h-1zM24 75h1v1h-1z"/></svg>