<svg baseProfile="full" height="76" width="90" xmlns="http://www.w3.org/2000/svg"><path fill="#231815" d="M51 0h1v1h-1zM52 0h1v1h-1zM53 0h1v1h-1zM54 0h1v1h-1zM55 0h1v1h-1zM56 0h1v1h-1zM57 0h1v1h-1zM58 0h1v1h-1zM59 0h1v1h-1zM60 0h1v1h-1zM61 0h1v1h-1zM62 0h1v1h-1zM63 0h1v1h-1zM64 0h1v1h-1zM47 1h1v1h-1zM48 1h1v1h-1zM49 1h1v1h-1zM50 1h1v1h-1zM51 1h1v1h-1zM52 1h1v1h-1zM53 1h1v1h-1zM54 1h1v1h-1zM55 1h1v1h-1zM56 1h1v1h-1zM57 1h1v1h-1zM58 1h1v1h-1zM59 1h1v1h-1zM60 1h1v1h-1zM61 1h1v1h-1zM62 1h1v1h-1zM63 1h1v1h-1zM64 1h1v1h-1zM65 1h1v1h-1zM66 1h1v1h-1zM67 1h1v1h-1zM68 1h1v1h-1zM69 1h1v1h-1zM45 2h1v1h-1zM46 2h1v1h-1zM47 2h1v1h-1zM48 2h1v1h-1zM49 2h1v1h-1zM50 2h1v1h-1zM51 2h1v1h-1zM52 2h1v1h-1zM53 2h1v1h-1zM54 2h1v1h-1zM55 2h1v1h-1zM56 2h1v1h-1zM57 2h1v1h-1zM58 2h1v1h-1zM59 2h1v1h-1zM60 2h1v1h-1zM61 2h1v1h-1zM62 2h1v1h-1zM63 2h1v1h-1zM64 2h1v1h-1zM65 2h1v1h-1zM66 2h1v1h-1zM67 2h1v1h-1zM68 2h1v1h-1zM69 2h1v1h-1zM70 2h1v1h-1zM71 2h1v1h-1zM72 2h1v1h-1zM43 3h1v1h-1zM44 3h1v1h-1zM45 3h1v1h-1zM46 3h1v1h-1zM47 3h1v1h-1zM48 3h1v1h-1zM49 3h1v1h-1zM50 3h1v1h-1zM51 3h1v1h-1z"/><path fill="#322F23" d="M52 3h1v1h-1z"/><path fill="#393A2A" d="M53 3h1v1h-1z"/><path fill="#404531" d="M54 3h1v1h-1zM55 3h1v1h-1z"/><path fill="#4F5C3E" d="M56 3h1v1h-1zM57 3h1v1h-1zM58 3h1v1h-1zM59 3h1v1h-1z"/><path fill="#404531" d="M60 3h1v1h-1zM61 3h1v1h-1z"/><path fill="#3C3F2D" d="M62 3h1v1h-1z"/><path fill="#322F23" d="M63 3h1v1h-1z"/><path fill="#2E291F" d="M64 3h1v1h-1z"/><path fill="#231815" d="M65 3h1v1h-1zM66 3h1v1h-1zM67 3h1v1h-1zM68 3h1v1h-1zM69 3h1v1h-1zM70 3h1v1h-1zM71 3h1v1h-1zM72 3h1v1h-1zM73 3h1v1h-1zM74 3h1v1h-1zM41 4h1v1h-1zM42 4h1v1h-1zM43 4h1v1h-1zM44 4h1v1h-1zM45 4h1v1h-1zM46 4h1v1h-1zM47 4h1v1h-1z"/><path fill="#2E291F" d="M48 4h1v1h-1z"/><path fill="#444B34" d="M49 4h1v1h-1z"/><path fill="#526142" d="M50 4h1v1h-1z"/><path fill="#5D724C" d="M51 4h1v1h-1zM52 4h1v1h-1zM53 4h1v1h-1zM54 4h1v1h-1zM55 4h1v1h-1zM56 4h1v1h-1zM57 4h1v1h-1zM58 4h1v1h-1zM59 4h1v1h-1zM60 4h1v1h-1zM61 4h1v1h-1zM62 4h1v1h-1zM63 4h1v1h-1zM64 4h1v1h-1zM65 4h1v1h-1z"/><path fill="#4F5C3E" d="M66 4h1v1h-1z"/><path fill="#444B34" d="M67 4h1v1h-1z"/><path fill="#393A2A" d="M68 4h1v1h-1z"/><path fill="#2A231C" d="M69 4h1v1h-1z"/><path fill="#231815" d="M70 4h1v1h-1zM71 4h1v1h-1zM72 4h1v1h-1zM73 4h1v1h-1zM74 4h1v1h-1zM75 4h1v1h-1zM76 4h1v1h-1zM39 5h1v1h-1zM40 5h1v1h-1zM41 5h1v1h-1zM42 5h1v1h-1zM43 5h1v1h-1zM44 5h1v1h-1z"/><path fill="#271E18" d="M45 5h1v1h-1z"/><path fill="#3C3F2D" d="M46 5h1v1h-1z"/><path fill="#566745" d="M47 5h1v1h-1z"/><path fill="#5D724C" d="M48 5h1v1h-1zM49 5h1v1h-1zM50 5h1v1h-1zM51 5h1v1h-1zM52 5h1v1h-1zM53 5h1v1h-1zM54 5h1v1h-1zM55 5h1v1h-1zM56 5h1v1h-1zM57 5h1v1h-1zM58 5h1v1h-1zM59 5h1v1h-1zM60 5h1v1h-1zM61 5h1v1h-1zM62 5h1v1h-1zM63 5h1v1h-1zM64 5h1v1h-1zM65 5h1v1h-1zM66 5h1v1h-1zM67 5h1v1h-1zM68 5h1v1h-1zM69 5h1v1h-1z"/><path fill="#526142" d="M70 5h1v1h-1z"/><path fill="#393A2A" d="M71 5h1v1h-1z"/><path fill="#231815" d="M72 5h1v1h-1zM73 5h1v1h-1zM74 5h1v1h-1zM75 5h1v1h-1zM76 5h1v1h-1zM77 5h1v1h-1zM78 5h1v1h-1zM38 6h1v1h-1zM39 6h1v1h-1zM40 6h1v1h-1zM41 6h1v1h-1zM42 6h1v1h-1zM43 6h1v1h-1z"/><path fill="#404531" d="M44 6h1v1h-1z"/><path fill="#596C49" d="M45 6h1v1h-1z"/><path fill="#5D724C" d="M46 6h1v1h-1zM47 6h1v1h-1zM48 6h1v1h-1zM49 6h1v1h-1z"/><path fill="#637D55" d="M50 6h1v1h-1zM51 6h1v1h-1zM52 6h1v1h-1zM53 6h1v1h-1zM54 6h1v1h-1zM55 6h1v1h-1z"/><path fill="#617A52" d="M56 6h1v1h-1z"/><path fill="#5D724C" d="M57 6h1v1h-1zM58 6h1v1h-1zM59 6h1v1h-1zM60 6h1v1h-1zM61 6h1v1h-1zM62 6h1v1h-1zM63 6h1v1h-1zM64 6h1v1h-1zM65 6h1v1h-1zM66 6h1v1h-1zM67 6h1v1h-1zM68 6h1v1h-1zM69 6h1v1h-1zM70 6h1v1h-1zM71 6h1v1h-1z"/><path fill="#596C49" d="M72 6h1v1h-1z"/><path fill="#404531" d="M73 6h1v1h-1z"/><path fill="#231815" d="M74 6h1v1h-1zM75 6h1v1h-1zM76 6h1v1h-1zM77 6h1v1h-1zM78 6h1v1h-1zM79 6h1v1h-1zM37 7h1v1h-1zM38 7h1v1h-1zM39 7h1v1h-1zM40 7h1v1h-1zM41 7h1v1h-1z"/><path fill="#322F23" d="M42 7h1v1h-1z"/><path fill="#566745" d="M43 7h1v1h-1z"/><path fill="#5D724C" d="M44 7h1v1h-1z"/><path fill="#617A52" d="M45 7h1v1h-1z"/><path fill="#67865B" d="M46 7h1v1h-1z"/><path fill="#6E9466" d="M47 7h1v1h-1z"/><path fill="#739C6C" d="M48 7h1v1h-1z"/><path fill="#749F6E" d="M49 7h1v1h-1zM50 7h1v1h-1zM51 7h1v1h-1zM52 7h1v1h-1zM53 7h1v1h-1zM54 7h1v1h-1zM55 7h1v1h-1zM56 7h1v1h-1zM57 7h1v1h-1z"/><path fill="#71996A" d="M58 7h1v1h-1z"/><path fill="#6E9466" d="M59 7h1v1h-1z"/><path fill="#69895D" d="M60 7h1v1h-1z"/><path fill="#637D55" d="M61 7h1v1h-1z"/><path fill="#5D724C" d="M62 7h1v1h-1zM63 7h1v1h-1zM64 7h1v1h-1zM65 7h1v1h-1zM66 7h1v1h-1zM67 7h1v1h-1zM68 7h1v1h-1zM69 7h1v1h-1zM70 7h1v1h-1zM71 7h1v1h-1zM72 7h1v1h-1zM73 7h1v1h-1z"/><path fill="#566745" d="M74 7h1v1h-1z"/><path fill="#322F23" d="M75 7h1v1h-1z"/><path fill="#231815" d="M76 7h1v1h-1zM77 7h1v1h-1zM78 7h1v1h-1zM79 7h1v1h-1zM80 7h1v1h-1zM36 8h1v1h-1zM37 8h1v1h-1zM38 8h1v1h-1zM39 8h1v1h-1zM40 8h1v1h-1z"/><path fill="#404531" d="M41 8h1v1h-1z"/><path fill="#5D724C" d="M42 8h1v1h-1z"/><path fill="#668359" d="M43 8h1v1h-1z"/><path fill="#709768" d="M44 8h1v1h-1z"/><path fill="#749F6E" d="M45 8h1v1h-1zM46 8h1v1h-1zM47 8h1v1h-1zM48 8h1v1h-1z"/><path fill="#76A471" d="M49 8h1v1h-1z"/><path fill="#78A974" d="M50 8h1v1h-1z"/><path fill="#7BB079" d="M51 8h1v1h-1z"/><path fill="#7CB37A" d="M52 8h1v1h-1zM53 8h1v1h-1zM54 8h1v1h-1zM55 8h1v1h-1zM56 8h1v1h-1z"/><path fill="#79AB76" d="M57 8h1v1h-1z"/><path fill="#77A673" d="M58 8h1v1h-1z"/><path fill="#749F6E" d="M59 8h1v1h-1zM60 8h1v1h-1zM61 8h1v1h-1zM62 8h1v1h-1z"/><path fill="#6D9163" d="M63 8h1v1h-1z"/><path fill="#668359" d="M64 8h1v1h-1z"/><path fill="#5D724C" d="M65 8h1v1h-1zM66 8h1v1h-1zM67 8h1v1h-1zM68 8h1v1h-1zM69 8h1v1h-1zM70 8h1v1h-1zM71 8h1v1h-1zM72 8h1v1h-1zM73 8h1v1h-1zM74 8h1v1h-1zM75 8h1v1h-1z"/><path fill="#444B34" d="M76 8h1v1h-1z"/><path fill="#271E18" d="M77 8h1v1h-1z"/><path fill="#231815" d="M78 8h1v1h-1zM79 8h1v1h-1zM80 8h1v1h-1zM81 8h1v1h-1zM35 9h1v1h-1zM36 9h1v1h-1zM37 9h1v1h-1zM38 9h1v1h-1zM39 9h1v1h-1z"/><path fill="#475037" d="M40 9h1v1h-1z"/><path fill="#617A52" d="M41 9h1v1h-1z"/><path fill="#709768" d="M42 9h1v1h-1z"/><path fill="#749F6E" d="M43 9h1v1h-1zM44 9h1v1h-1zM45 9h1v1h-1z"/><path fill="#79AB76" d="M46 9h1v1h-1z"/><path fill="#7DB77D" d="M47 9h1v1h-1z"/><path fill="#82C485" d="M48 9h1v1h-1z"/><path fill="#83C686" d="M49 9h1v1h-1zM50 9h1v1h-1zM51 9h1v1h-1zM52 9h1v1h-1zM53 9h1v1h-1zM54 9h1v1h-1zM55 9h1v1h-1zM56 9h1v1h-1zM57 9h1v1h-1zM58 9h1v1h-1zM59 9h1v1h-1z"/><path fill="#7FBC80" d="M60 9h1v1h-1z"/><path fill="#7BB079" d="M61 9h1v1h-1z"/><path fill="#76A471" d="M62 9h1v1h-1z"/><path fill="#749F6E" d="M63 9h1v1h-1zM64 9h1v1h-1z"/><path fill="#739C6C" d="M65 9h1v1h-1z"/><path fill="#6A8B5F" d="M66 9h1v1h-1z"/><path fill="#607850" d="M67 9h1v1h-1z"/><path fill="#5D724C" d="M68 9h1v1h-1zM69 9h1v1h-1zM70 9h1v1h-1zM71 9h1v1h-1zM72 9h1v1h-1zM73 9h1v1h-1zM74 9h1v1h-1zM75 9h1v1h-1zM76 9h1v1h-1z"/><path fill="#526142" d="M77 9h1v1h-1z"/><path fill="#2A231C" d="M78 9h1v1h-1z"/><path fill="#231815" d="M79 9h1v1h-1zM80 9h1v1h-1zM81 9h1v1h-1zM82 9h1v1h-1zM34 10h1v1h-1zM35 10h1v1h-1zM36 10h1v1h-1zM37 10h1v1h-1z"/><path fill="#271E18" d="M38 10h1v1h-1z"/><path fill="#526142" d="M39 10h1v1h-1z"/><path fill="#637D55" d="M40 10h1v1h-1z"/><path fill="#739C6C" d="M41 10h1v1h-1z"/><path fill="#749F6E" d="M42 10h1v1h-1zM43 10h1v1h-1z"/><path fill="#7AAE77" d="M44 10h1v1h-1z"/><path fill="#81C183" d="M45 10h1v1h-1z"/><path fill="#83C686" d="M46 10h1v1h-1zM47 10h1v1h-1zM48 10h1v1h-1zM49 10h1v1h-1zM50 10h1v1h-1zM51 10h1v1h-1zM52 10h1v1h-1zM53 10h1v1h-1zM54 10h1v1h-1zM55 10h1v1h-1zM56 10h1v1h-1zM57 10h1v1h-1zM58 10h1v1h-1zM59 10h1v1h-1zM60 10h1v1h-1zM61 10h1v1h-1zM62 10h1v1h-1z"/><path fill="#7EBA7F" d="M63 10h1v1h-1z"/><path fill="#77A673" d="M64 10h1v1h-1z"/><path fill="#749F6E" d="M65 10h1v1h-1zM66 10h1v1h-1zM67 10h1v1h-1z"/><path fill="#6B8E61" d="M68 10h1v1h-1z"/><path fill="#607850" d="M69 10h1v1h-1z"/><path fill="#5D724C" d="M70 10h1v1h-1zM71 10h1v1h-1zM72 10h1v1h-1zM73 10h1v1h-1zM74 10h1v1h-1zM75 10h1v1h-1zM76 10h1v1h-1zM77 10h1v1h-1z"/><path fill="#596C49" d="M78 10h1v1h-1z"/><path fill="#2E291F" d="M79 10h1v1h-1z"/><path fill="#231815" d="M80 10h1v1h-1zM81 10h1v1h-1zM82 10h1v1h-1zM83 10h1v1h-1zM34 11h1v1h-1zM35 11h1v1h-1zM36 11h1v1h-1zM37 11h1v1h-1z"/><path fill="#4B563B" d="M38 11h1v1h-1z"/><path fill="#668359" d="M39 11h1v1h-1z"/><path fill="#749F6E" d="M40 11h1v1h-1zM41 11h1v1h-1z"/><path fill="#7AAE77" d="M42 11h1v1h-1z"/><path fill="#81C183" d="M43 11h1v1h-1z"/><path fill="#83C686" d="M44 11h1v1h-1zM45 11h1v1h-1zM46 11h1v1h-1zM47 11h1v1h-1zM48 11h1v1h-1zM49 11h1v1h-1zM50 11h1v1h-1zM51 11h1v1h-1zM52 11h1v1h-1zM53 11h1v1h-1zM54 11h1v1h-1zM55 11h1v1h-1zM56 11h1v1h-1zM57 11h1v1h-1zM58 11h1v1h-1zM59 11h1v1h-1zM60 11h1v1h-1zM61 11h1v1h-1zM62 11h1v1h-1zM63 11h1v1h-1zM64 11h1v1h-1z"/><path fill="#7CB57C" d="M65 11h1v1h-1z"/><path fill="#75A170" d="M66 11h1v1h-1z"/><path fill="#749F6E" d="M67 11h1v1h-1zM68 11h1v1h-1z"/><path fill="#739C6C" d="M69 11h1v1h-1z"/><path fill="#69895D" d="M70 11h1v1h-1z"/><path fill="#5D724C" d="M71 11h1v1h-1zM72 11h1v1h-1zM73 11h1v1h-1zM74 11h1v1h-1zM75 11h1v1h-1zM76 11h1v1h-1zM77 11h1v1h-1zM78 11h1v1h-1z"/><path fill="#596C49" d="M79 11h1v1h-1z"/><path fill="#2E291F" d="M80 11h1v1h-1z"/><path fill="#231815" d="M81 11h1v1h-1zM82 11h1v1h-1zM83 11h1v1h-1zM84 11h1v1h-1zM33 12h1v1h-1zM34 12h1v1h-1zM35 12h1v1h-1zM36 12h1v1h-1z"/><path fill="#444B34" d="M37 12h1v1h-1z"/><path fill="#668359" d="M38 12h1v1h-1z"/><path fill="#749F6E" d="M39 12h1v1h-1z"/><path fill="#76A471" d="M40 12h1v1h-1z"/><path fill="#7FBC80" d="M41 12h1v1h-1z"/><path fill="#83C686" d="M42 12h1v1h-1zM43 12h1v1h-1zM44 12h1v1h-1zM45 12h1v1h-1zM46 12h1v1h-1zM47 12h1v1h-1zM48 12h1v1h-1zM49 12h1v1h-1zM50 12h1v1h-1zM51 12h1v1h-1zM52 12h1v1h-1zM53 12h1v1h-1zM54 12h1v1h-1zM55 12h1v1h-1zM56 12h1v1h-1zM57 12h1v1h-1zM58 12h1v1h-1zM59 12h1v1h-1zM60 12h1v1h-1zM61 12h1v1h-1zM62 12h1v1h-1zM63 12h1v1h-1zM64 12h1v1h-1zM65 12h1v1h-1z"/><path fill="#81C183" d="M66 12h1v1h-1z"/><path fill="#77A673" d="M67 12h1v1h-1z"/><path fill="#749F6E" d="M68 12h1v1h-1zM69 12h1v1h-1zM70 12h1v1h-1z"/><path fill="#709768" d="M71 12h1v1h-1z"/><path fill="#617A52" d="M72 12h1v1h-1z"/><path fill="#5D724C" d="M73 12h1v1h-1zM74 12h1v1h-1zM75 12h1v1h-1zM76 12h1v1h-1zM77 12h1v1h-1zM78 12h1v1h-1zM79 12h1v1h-1z"/><path fill="#596C49" d="M80 12h1v1h-1z"/><path fill="#2E291F" d="M81 12h1v1h-1z"/><path fill="#231815" d="M82 12h1v1h-1zM83 12h1v1h-1zM84 12h1v1h-1zM85 12h1v1h-1zM32 13h1v1h-1zM33 13h1v1h-1zM34 13h1v1h-1zM35 13h1v1h-1z"/><path fill="#353426" d="M36 13h1v1h-1z"/><path fill="#668359" d="M37 13h1v1h-1z"/><path fill="#749F6E" d="M38 13h1v1h-1z"/><path fill="#78A974" d="M39 13h1v1h-1z"/><path fill="#82C485" d="M40 13h1v1h-1z"/><path fill="#83C686" d="M41 13h1v1h-1zM42 13h1v1h-1zM43 13h1v1h-1zM44 13h1v1h-1zM45 13h1v1h-1zM46 13h1v1h-1zM47 13h1v1h-1zM48 13h1v1h-1zM49 13h1v1h-1zM50 13h1v1h-1zM51 13h1v1h-1zM52 13h1v1h-1zM53 13h1v1h-1zM54 13h1v1h-1zM55 13h1v1h-1zM56 13h1v1h-1zM57 13h1v1h-1zM58 13h1v1h-1zM59 13h1v1h-1zM60 13h1v1h-1zM61 13h1v1h-1zM62 13h1v1h-1zM63 13h1v1h-1zM64 13h1v1h-1zM65 13h1v1h-1zM66 13h1v1h-1z"/><path fill="#82C485" d="M67 13h1v1h-1z"/><path fill="#7AAE77" d="M68 13h1v1h-1z"/><path fill="#749F6E" d="M69 13h1v1h-1zM70 13h1v1h-1zM71 13h1v1h-1zM72 13h1v1h-1z"/><path fill="#668359" d="M73 13h1v1h-1z"/><path fill="#5D724C" d="M74 13h1v1h-1zM75 13h1v1h-1zM76 13h1v1h-1zM77 13h1v1h-1zM78 13h1v1h-1zM79 13h1v1h-1zM80 13h1v1h-1z"/><path fill="#566745" d="M81 13h1v1h-1z"/><path fill="#271E18" d="M82 13h1v1h-1z"/><path fill="#231815" d="M83 13h1v1h-1zM84 13h1v1h-1zM85 13h1v1h-1zM32 14h1v1h-1zM33 14h1v1h-1zM34 14h1v1h-1z"/><path fill="#2A231C" d="M35 14h1v1h-1z"/><path fill="#617A53" d="M36 14h1v1h-1z"/><path fill="#749F6E" d="M37 14h1v1h-1z"/><path fill="#79AB76" d="M38 14h1v1h-1z"/><path fill="#83C686" d="M39 14h1v1h-1zM40 14h1v1h-1zM41 14h1v1h-1zM42 14h1v1h-1zM43 14h1v1h-1zM44 14h1v1h-1zM45 14h1v1h-1zM46 14h1v1h-1zM47 14h1v1h-1zM48 14h1v1h-1zM49 14h1v1h-1zM50 14h1v1h-1zM51 14h1v1h-1zM52 14h1v1h-1zM53 14h1v1h-1zM54 14h1v1h-1zM55 14h1v1h-1zM56 14h1v1h-1zM57 14h1v1h-1zM58 14h1v1h-1zM59 14h1v1h-1zM60 14h1v1h-1zM61 14h1v1h-1zM62 14h1v1h-1zM63 14h1v1h-1zM64 14h1v1h-1zM65 14h1v1h-1zM66 14h1v1h-1zM67 14h1v1h-1z"/><path fill="#82C485" d="M68 14h1v1h-1z"/><path fill="#77A673" d="M69 14h1v1h-1z"/><path fill="#749F6E" d="M70 14h1v1h-1zM71 14h1v1h-1zM72 14h1v1h-1zM73 14h1v1h-1z"/><path fill="#6A8B5F" d="M74 14h1v1h-1z"/><path fill="#5D724C" d="M75 14h1v1h-1zM76 14h1v1h-1zM77 14h1v1h-1zM78 14h1v1h-1zM79 14h1v1h-1zM80 14h1v1h-1zM81 14h1v1h-1z"/><path fill="#4F5C3E" d="M82 14h1v1h-1z"/><path fill="#231815" d="M83 14h1v1h-1zM84 14h1v1h-1zM85 14h1v1h-1zM86 14h1v1h-1zM31 15h1v1h-1zM32 15h1v1h-1zM33 15h1v1h-1zM34 15h1v1h-1z"/><path fill="#4F5E41" d="M35 15h1v1h-1z"/><path fill="#739C6C" d="M36 15h1v1h-1z"/><path fill="#76A471" d="M37 15h1v1h-1z"/><path fill="#82C485" d="M38 15h1v1h-1z"/><path fill="#83C686" d="M39 15h1v1h-1zM40 15h1v1h-1zM41 15h1v1h-1zM42 15h1v1h-1zM43 15h1v1h-1zM44 15h1v1h-1zM45 15h1v1h-1zM46 15h1v1h-1zM47 15h1v1h-1zM48 15h1v1h-1zM49 15h1v1h-1zM50 15h1v1h-1zM51 15h1v1h-1zM52 15h1v1h-1zM53 15h1v1h-1zM54 15h1v1h-1zM55 15h1v1h-1zM56 15h1v1h-1zM57 15h1v1h-1zM58 15h1v1h-1zM59 15h1v1h-1zM60 15h1v1h-1zM61 15h1v1h-1zM62 15h1v1h-1zM63 15h1v1h-1zM64 15h1v1h-1zM65 15h1v1h-1zM66 15h1v1h-1zM67 15h1v1h-1zM68 15h1v1h-1z"/><path fill="#81C183" d="M69 15h1v1h-1z"/><path fill="#749F6E" d="M70 15h1v1h-1zM71 15h1v1h-1zM72 15h1v1h-1zM73 15h1v1h-1zM74 15h1v1h-1z"/><path fill="#67865B" d="M75 15h1v1h-1z"/><path fill="#5D724C" d="M76 15h1v1h-1zM77 15h1v1h-1zM78 15h1v1h-1zM79 15h1v1h-1zM80 15h1v1h-1zM81 15h1v1h-1zM82 15h1v1h-1z"/><path fill="#3C3F2D" d="M83 15h1v1h-1z"/><path fill="#231815" d="M84 15h1v1h-1zM85 15h1v1h-1zM86 15h1v1h-1zM87 15h1v1h-1zM31 16h1v1h-1zM32 16h1v1h-1zM33 16h1v1h-1z"/><path fill="#333125" d="M34 16h1v1h-1z"/><path fill="#71996A" d="M35 16h1v1h-1z"/><path fill="#749F6E" d="M36 16h1v1h-1z"/><path fill="#7DB77D" d="M37 16h1v1h-1z"/><path fill="#83C686" d="M38 16h1v1h-1zM39 16h1v1h-1zM40 16h1v1h-1zM41 16h1v1h-1zM42 16h1v1h-1zM43 16h1v1h-1zM44 16h1v1h-1zM45 16h1v1h-1zM46 16h1v1h-1zM47 16h1v1h-1zM48 16h1v1h-1zM49 16h1v1h-1zM50 16h1v1h-1zM51 16h1v1h-1zM52 16h1v1h-1zM53 16h1v1h-1zM54 16h1v1h-1zM55 16h1v1h-1zM56 16h1v1h-1zM57 16h1v1h-1zM58 16h1v1h-1zM59 16h1v1h-1zM60 16h1v1h-1zM61 16h1v1h-1zM62 16h1v1h-1zM63 16h1v1h-1zM64 16h1v1h-1zM65 16h1v1h-1zM66 16h1v1h-1zM67 16h1v1h-1zM68 16h1v1h-1zM69 16h1v1h-1z"/><path fill="#7AAE77" d="M70 16h1v1h-1z"/><path fill="#749F6E" d="M71 16h1v1h-1zM72 16h1v1h-1zM73 16h1v1h-1zM74 16h1v1h-1zM75 16h1v1h-1z"/><path fill="#637D55" d="M76 16h1v1h-1z"/><path fill="#5D724C" d="M77 16h1v1h-1zM78 16h1v1h-1zM79 16h1v1h-1zM80 16h1v1h-1zM81 16h1v1h-1zM82 16h1v1h-1z"/><path fill="#596C49" d="M83 16h1v1h-1z"/><path fill="#271E18" d="M84 16h1v1h-1z"/><path fill="#231815" d="M85 16h1v1h-1zM86 16h1v1h-1zM87 16h1v1h-1zM30 17h1v1h-1zM31 17h1v1h-1zM32 17h1v1h-1zM33 17h1v1h-1z"/><path fill="#5F7A55" d="M34 17h1v1h-1z"/><path fill="#749F6E" d="M35 17h1v1h-1zM36 17h1v1h-1z"/><path fill="#7FBC80" d="M37 17h1v1h-1z"/><path fill="#83C686" d="M38 17h1v1h-1zM39 17h1v1h-1zM40 17h1v1h-1zM41 17h1v1h-1zM42 17h1v1h-1zM43 17h1v1h-1zM44 17h1v1h-1zM45 17h1v1h-1zM46 17h1v1h-1zM47 17h1v1h-1zM48 17h1v1h-1zM49 17h1v1h-1zM50 17h1v1h-1zM51 17h1v1h-1zM52 17h1v1h-1zM53 17h1v1h-1zM54 17h1v1h-1zM55 17h1v1h-1zM56 17h1v1h-1zM57 17h1v1h-1zM58 17h1v1h-1zM59 17h1v1h-1zM60 17h1v1h-1zM61 17h1v1h-1zM62 17h1v1h-1zM63 17h1v1h-1zM64 17h1v1h-1zM65 17h1v1h-1zM66 17h1v1h-1zM67 17h1v1h-1zM68 17h1v1h-1zM69 17h1v1h-1z"/><path fill="#7CB57C" d="M70 17h1v1h-1z"/><path fill="#749F6E" d="M71 17h1v1h-1zM72 17h1v1h-1zM73 17h1v1h-1zM74 17h1v1h-1zM75 17h1v1h-1z"/><path fill="#6E9466" d="M76 17h1v1h-1z"/><path fill="#5D724C" d="M77 17h1v1h-1zM78 17h1v1h-1zM79 17h1v1h-1zM80 17h1v1h-1zM81 17h1v1h-1zM82 17h1v1h-1zM83 17h1v1h-1z"/><path fill="#475037" d="M84 17h1v1h-1z"/><path fill="#231815" d="M85 17h1v1h-1zM86 17h1v1h-1zM87 17h1v1h-1zM88 17h1v1h-1zM30 18h1v1h-1zM31 18h1v1h-1zM32 18h1v1h-1z"/><path fill="#3B3F2F" d="M33 18h1v1h-1z"/><path fill="#749F6E" d="M34 18h1v1h-1zM35 18h1v1h-1zM36 18h1v1h-1z"/><path fill="#7FBC80" d="M37 18h1v1h-1z"/><path fill="#83C686" d="M38 18h1v1h-1zM39 18h1v1h-1zM40 18h1v1h-1zM41 18h1v1h-1zM42 18h1v1h-1zM43 18h1v1h-1zM44 18h1v1h-1zM45 18h1v1h-1zM46 18h1v1h-1zM47 18h1v1h-1zM48 18h1v1h-1zM49 18h1v1h-1zM50 18h1v1h-1zM51 18h1v1h-1zM52 18h1v1h-1zM53 18h1v1h-1zM54 18h1v1h-1zM55 18h1v1h-1zM56 18h1v1h-1zM57 18h1v1h-1zM58 18h1v1h-1zM59 18h1v1h-1zM60 18h1v1h-1zM61 18h1v1h-1zM62 18h1v1h-1zM63 18h1v1h-1zM64 18h1v1h-1zM65 18h1v1h-1zM66 18h1v1h-1zM67 18h1v1h-1zM68 18h1v1h-1zM69 18h1v1h-1z"/><path fill="#7EBA7F" d="M70 18h1v1h-1z"/><path fill="#749F6E" d="M71 18h1v1h-1zM72 18h1v1h-1zM73 18h1v1h-1zM74 18h1v1h-1zM75 18h1v1h-1zM76 18h1v1h-1z"/><path fill="#617A52" d="M77 18h1v1h-1z"/><path fill="#5D724C" d="M78 18h1v1h-1zM79 18h1v1h-1zM80 18h1v1h-1zM81 18h1v1h-1zM82 18h1v1h-1zM83 18h1v1h-1zM84 18h1v1h-1z"/><path fill="#2A231C" d="M85 18h1v1h-1z"/><path fill="#231815" d="M86 18h1v1h-1zM87 18h1v1h-1zM88 18h1v1h-1zM29 19h1v1h-1zM30 19h1v1h-1zM31 19h1v1h-1zM32 19h1v1h-1z"/><path fill="#607D58" d="M33 19h1v1h-1z"/><path fill="#749F6E" d="M34 19h1v1h-1zM35 19h1v1h-1zM36 19h1v1h-1z"/><path fill="#78A974" d="M37 19h1v1h-1z"/><path fill="#83C686" d="M38 19h1v1h-1zM39 19h1v1h-1zM40 19h1v1h-1zM41 19h1v1h-1zM42 19h1v1h-1zM43 19h1v1h-1zM44 19h1v1h-1zM45 19h1v1h-1zM46 19h1v1h-1zM47 19h1v1h-1zM48 19h1v1h-1zM49 19h1v1h-1zM50 19h1v1h-1zM51 19h1v1h-1zM52 19h1v1h-1zM53 19h1v1h-1zM54 19h1v1h-1zM55 19h1v1h-1zM56 19h1v1h-1zM57 19h1v1h-1zM58 19h1v1h-1zM59 19h1v1h-1zM60 19h1v1h-1zM61 19h1v1h-1zM62 19h1v1h-1zM63 19h1v1h-1zM64 19h1v1h-1zM65 19h1v1h-1zM66 19h1v1h-1zM67 19h1v1h-1zM68 19h1v1h-1zM69 19h1v1h-1z"/><path fill="#7BB079" d="M70 19h1v1h-1z"/><path fill="#749F6E" d="M71 19h1v1h-1zM72 19h1v1h-1zM73 19h1v1h-1zM74 19h1v1h-1zM75 19h1v1h-1zM76 19h1v1h-1z"/><path fill="#69895D" d="M77 19h1v1h-1z"/><path fill="#5D724C" d="M78 19h1v1h-1zM79 19h1v1h-1zM80 19h1v1h-1zM81 19h1v1h-1zM82 19h1v1h-1zM83 19h1v1h-1zM84 19h1v1h-1z"/><path fill="#404531" d="M85 19h1v1h-1z"/><path fill="#231815" d="M86 19h1v1h-1zM87 19h1v1h-1zM88 19h1v1h-1zM29 20h1v1h-1zM30 20h1v1h-1zM31 20h1v1h-1z"/><path fill="#312F24" d="M32 20h1v1h-1z"/><path fill="#749F6E" d="M33 20h1v1h-1zM34 20h1v1h-1zM35 20h1v1h-1zM36 20h1v1h-1zM37 20h1v1h-1z"/><path fill="#79AB76" d="M38 20h1v1h-1z"/><path fill="#80BF82" d="M39 20h1v1h-1z"/><path fill="#83C686" d="M40 20h1v1h-1zM41 20h1v1h-1zM42 20h1v1h-1zM43 20h1v1h-1zM44 20h1v1h-1zM45 20h1v1h-1zM46 20h1v1h-1zM47 20h1v1h-1zM48 20h1v1h-1zM49 20h1v1h-1zM50 20h1v1h-1zM51 20h1v1h-1zM52 20h1v1h-1zM53 20h1v1h-1zM54 20h1v1h-1zM55 20h1v1h-1zM56 20h1v1h-1zM57 20h1v1h-1zM58 20h1v1h-1zM59 20h1v1h-1zM60 20h1v1h-1zM61 20h1v1h-1zM62 20h1v1h-1zM63 20h1v1h-1zM64 20h1v1h-1zM65 20h1v1h-1zM66 20h1v1h-1zM67 20h1v1h-1zM68 20h1v1h-1zM69 20h1v1h-1z"/><path fill="#76A471" d="M70 20h1v1h-1z"/><path fill="#749F6E" d="M71 20h1v1h-1zM72 20h1v1h-1zM73 20h1v1h-1zM74 20h1v1h-1zM75 20h1v1h-1zM76 20h1v1h-1z"/><path fill="#69895D" d="M77 20h1v1h-1z"/><path fill="#5D724C" d="M78 20h1v1h-1zM79 20h1v1h-1zM80 20h1v1h-1zM81 20h1v1h-1zM82 20h1v1h-1zM83 20h1v1h-1zM84 20h1v1h-1z"/><path fill="#566745" d="M85 20h1v1h-1z"/><path fill="#231815" d="M86 20h1v1h-1zM87 20h1v1h-1zM88 20h1v1h-1zM89 20h1v1h-1zM29 21h1v1h-1zM30 21h1v1h-1zM31 21h1v1h-1z"/><path fill="#536748" d="M32 21h1v1h-1z"/><path fill="#749F6E" d="M33 21h1v1h-1zM34 21h1v1h-1zM35 21h1v1h-1zM36 21h1v1h-1zM37 21h1v1h-1zM38 21h1v1h-1zM39 21h1v1h-1zM40 21h1v1h-1zM41 21h1v1h-1zM42 21h1v1h-1zM43 21h1v1h-1zM44 21h1v1h-1zM45 21h1v1h-1zM46 21h1v1h-1zM47 21h1v1h-1z"/><path fill="#76A471" d="M48 21h1v1h-1z"/><path fill="#80BF82" d="M49 21h1v1h-1z"/><path fill="#83C686" d="M50 21h1v1h-1zM51 21h1v1h-1zM52 21h1v1h-1zM53 21h1v1h-1zM54 21h1v1h-1zM55 21h1v1h-1zM56 21h1v1h-1zM57 21h1v1h-1zM58 21h1v1h-1zM59 21h1v1h-1zM60 21h1v1h-1zM61 21h1v1h-1zM62 21h1v1h-1zM63 21h1v1h-1zM64 21h1v1h-1zM65 21h1v1h-1zM66 21h1v1h-1zM67 21h1v1h-1zM68 21h1v1h-1z"/><path fill="#7CB37A" d="M69 21h1v1h-1z"/><path fill="#749F6E" d="M70 21h1v1h-1zM71 21h1v1h-1zM72 21h1v1h-1zM73 21h1v1h-1zM74 21h1v1h-1zM75 21h1v1h-1zM76 21h1v1h-1z"/><path fill="#69895D" d="M77 21h1v1h-1z"/><path fill="#5D724C" d="M78 21h1v1h-1zM79 21h1v1h-1zM80 21h1v1h-1zM81 21h1v1h-1zM82 21h1v1h-1zM83 21h1v1h-1zM84 21h1v1h-1zM85 21h1v1h-1z"/><path fill="#2E291F" d="M86 21h1v1h-1z"/><path fill="#231815" d="M87 21h1v1h-1zM88 21h1v1h-1zM89 21h1v1h-1zM28 22h1v1h-1zM29 22h1v1h-1zM30 22h1v1h-1z"/><path fill="#241D17" d="M31 22h1v1h-1z"/><path fill="#52774F" d="M32 22h1v1h-1z"/><path fill="#4B794E" d="M33 22h1v1h-1z"/><path fill="#437147" d="M34 22h1v1h-1z"/><path fill="#32623A" d="M35 22h1v1h-1zM36 22h1v1h-1zM37 22h1v1h-1z"/><path fill="#3A6A41" d="M38 22h1v1h-1z"/><path fill="#47754A" d="M39 22h1v1h-1z"/><path fill="#578457" d="M40 22h1v1h-1z"/><path fill="#6C9768" d="M41 22h1v1h-1z"/><path fill="#749F6E" d="M42 22h1v1h-1zM43 22h1v1h-1zM44 22h1v1h-1zM45 22h1v1h-1z"/><path fill="#6E9A69" d="M46 22h1v1h-1z"/><path fill="#6C9867" d="M47 22h1v1h-1z"/><path fill="#749F6E" d="M48 22h1v1h-1z"/><path fill="#78A974" d="M49 22h1v1h-1z"/><path fill="#83C686" d="M50 22h1v1h-1zM51 22h1v1h-1zM52 22h1v1h-1zM53 22h1v1h-1zM54 22h1v1h-1zM55 22h1v1h-1zM56 22h1v1h-1zM57 22h1v1h-1zM58 22h1v1h-1zM59 22h1v1h-1zM60 22h1v1h-1zM61 22h1v1h-1zM62 22h1v1h-1zM63 22h1v1h-1zM64 22h1v1h-1zM65 22h1v1h-1zM66 22h1v1h-1zM67 22h1v1h-1z"/><path fill="#7DB77D" d="M68 22h1v1h-1z"/><path fill="#749F6E" d="M69 22h1v1h-1zM70 22h1v1h-1zM71 22h1v1h-1zM72 22h1v1h-1zM73 22h1v1h-1zM74 22h1v1h-1zM75 22h1v1h-1zM76 22h1v1h-1z"/><path fill="#668359" d="M77 22h1v1h-1z"/><path fill="#5D724C" d="M78 22h1v1h-1zM79 22h1v1h-1zM80 22h1v1h-1zM81 22h1v1h-1zM82 22h1v1h-1zM83 22h1v1h-1zM84 22h1v1h-1zM85 22h1v1h-1z"/><path fill="#3C3F2D" d="M86 22h1v1h-1z"/><path fill="#231815" d="M87 22h1v1h-1zM88 22h1v1h-1zM89 22h1v1h-1zM28 23h1v1h-1z"/><path fill="#272B1E" d="M29 23h1v1h-1z"/><path fill="#2C462C" d="M30 23h1v1h-1z"/><path fill="#32623A" d="M31 23h1v1h-1zM32 23h1v1h-1zM33 23h1v1h-1zM34 23h1v1h-1zM35 23h1v1h-1zM36 23h1v1h-1zM37 23h1v1h-1zM38 23h1v1h-1zM39 23h1v1h-1zM40 23h1v1h-1zM41 23h1v1h-1z"/><path fill="#47754A" d="M42 23h1v1h-1z"/><path fill="#649061" d="M43 23h1v1h-1z"/><path fill="#719D6C" d="M44 23h1v1h-1z"/><path fill="#588755" d="M45 23h1v1h-1z"/><path fill="#477846" d="M46 23h1v1h-1zM47 23h1v1h-1z"/><path fill="#63905F" d="M48 23h1v1h-1z"/><path fill="#78A974" d="M49 23h1v1h-1z"/><path fill="#83C686" d="M50 23h1v1h-1zM51 23h1v1h-1zM52 23h1v1h-1zM53 23h1v1h-1zM54 23h1v1h-1zM55 23h1v1h-1zM56 23h1v1h-1zM57 23h1v1h-1zM58 23h1v1h-1zM59 23h1v1h-1zM60 23h1v1h-1zM61 23h1v1h-1zM62 23h1v1h-1zM63 23h1v1h-1zM64 23h1v1h-1zM65 23h1v1h-1zM66 23h1v1h-1z"/><path fill="#7DB77D" d="M67 23h1v1h-1z"/><path fill="#749F6E" d="M68 23h1v1h-1zM69 23h1v1h-1zM70 23h1v1h-1zM71 23h1v1h-1zM72 23h1v1h-1zM73 23h1v1h-1zM74 23h1v1h-1zM75 23h1v1h-1zM76 23h1v1h-1z"/><path fill="#607850" d="M77 23h1v1h-1z"/><path fill="#5D724C" d="M78 23h1v1h-1zM79 23h1v1h-1zM80 23h1v1h-1zM81 23h1v1h-1zM82 23h1v1h-1zM83 23h1v1h-1zM84 23h1v1h-1zM85 23h1v1h-1z"/><path fill="#404531" d="M86 23h1v1h-1z"/><path fill="#231815" d="M87 23h1v1h-1zM88 23h1v1h-1zM89 23h1v1h-1z"/><path fill="#32623A" d="M27 24h1v1h-1z"/><path fill="#305735" d="M28 24h1v1h-1z"/><path fill="#32623A" d="M29 24h1v1h-1zM30 24h1v1h-1zM31 24h1v1h-1zM32 24h1v1h-1zM33 24h1v1h-1zM34 24h1v1h-1zM35 24h1v1h-1zM36 24h1v1h-1zM37 24h1v1h-1zM38 24h1v1h-1zM39 24h1v1h-1zM40 24h1v1h-1zM41 24h1v1h-1zM42 24h1v1h-1zM43 24h1v1h-1z"/><path fill="#406F44" d="M44 24h1v1h-1z"/><path fill="#467745" d="M45 24h1v1h-1z"/><path fill="#477846" d="M46 24h1v1h-1zM47 24h1v1h-1z"/><path fill="#5E8C5A" d="M48 24h1v1h-1z"/><path fill="#78A974" d="M49 24h1v1h-1z"/><path fill="#83C686" d="M50 24h1v1h-1zM51 24h1v1h-1zM52 24h1v1h-1zM53 24h1v1h-1zM54 24h1v1h-1zM55 24h1v1h-1zM56 24h1v1h-1zM57 24h1v1h-1zM58 24h1v1h-1zM59 24h1v1h-1zM60 24h1v1h-1zM61 24h1v1h-1zM62 24h1v1h-1zM63 24h1v1h-1zM64 24h1v1h-1z"/><path fill="#82C485" d="M65 24h1v1h-1z"/><path fill="#7AAE77" d="M66 24h1v1h-1z"/><path fill="#749F6E" d="M67 24h1v1h-1zM68 24h1v1h-1zM69 24h1v1h-1zM70 24h1v1h-1zM71 24h1v1h-1zM72 24h1v1h-1zM73 24h1v1h-1zM74 24h1v1h-1zM75 24h1v1h-1z"/><path fill="#6B8E61" d="M76 24h1v1h-1z"/><path fill="#5D724C" d="M77 24h1v1h-1zM78 24h1v1h-1zM79 24h1v1h-1zM80 24h1v1h-1zM81 24h1v1h-1zM82 24h1v1h-1zM83 24h1v1h-1zM84 24h1v1h-1zM85 24h1v1h-1z"/><path fill="#4F5C3E" d="M86 24h1v1h-1z"/><path fill="#231815" d="M87 24h1v1h-1zM88 24h1v1h-1zM89 24h1v1h-1z"/><path fill="#32623A" d="M25 25h1v1h-1zM26 25h1v1h-1zM27 25h1v1h-1zM28 25h1v1h-1zM29 25h1v1h-1zM30 25h1v1h-1zM31 25h1v1h-1z"/><path fill="#3A6A41" d="M32 25h1v1h-1z"/><path fill="#538154" d="M33 25h1v1h-1z"/><path fill="#649061" d="M34 25h1v1h-1z"/><path fill="#709B6B" d="M35 25h1v1h-1z"/><path fill="#749F6E" d="M36 25h1v1h-1zM37 25h1v1h-1z"/><path fill="#649061" d="M38 25h1v1h-1z"/><path fill="#578457" d="M39 25h1v1h-1z"/><path fill="#3E6D44" d="M40 25h1v1h-1z"/><path fill="#32623A" d="M41 25h1v1h-1zM42 25h1v1h-1zM43 25h1v1h-1zM44 25h1v1h-1z"/><path fill="#33633B" d="M45 25h1v1h-1z"/><path fill="#427343" d="M46 25h1v1h-1z"/><path fill="#477846" d="M47 25h1v1h-1z"/><path fill="#63905F" d="M48 25h1v1h-1z"/><path fill="#78A974" d="M49 25h1v1h-1z"/><path fill="#83C686" d="M50 25h1v1h-1zM51 25h1v1h-1zM52 25h1v1h-1zM53 25h1v1h-1zM54 25h1v1h-1zM55 25h1v1h-1zM56 25h1v1h-1zM57 25h1v1h-1zM58 25h1v1h-1zM59 25h1v1h-1zM60 25h1v1h-1zM61 25h1v1h-1zM62 25h1v1h-1zM63 25h1v1h-1z"/><path fill="#7DB77D" d="M64 25h1v1h-1z"/><path fill="#75A170" d="M65 25h1v1h-1z"/><path fill="#749F6E" d="M66 25h1v1h-1zM67 25h1v1h-1zM68 25h1v1h-1zM69 25h1v1h-1zM70 25h1v1h-1zM71 25h1v1h-1zM72 25h1v1h-1zM73 25h1v1h-1zM74 25h1v1h-1z"/><path fill="#739C6C" d="M75 25h1v1h-1z"/><path fill="#607850" d="M76 25h1v1h-1z"/><path fill="#5D724C" d="M77 25h1v1h-1zM78 25h1v1h-1zM79 25h1v1h-1zM80 25h1v1h-1zM81 25h1v1h-1zM82 25h1v1h-1zM83 25h1v1h-1zM84 25h1v1h-1zM85 25h1v1h-1z"/><path fill="#4F5C3E" d="M86 25h1v1h-1z"/><path fill="#231815" d="M87 25h1v1h-1zM88 25h1v1h-1zM89 25h1v1h-1z"/><path fill="#32623A" d="M23 26h1v1h-1zM24 26h1v1h-1zM25 26h1v1h-1zM26 26h1v1h-1zM27 26h1v1h-1zM28 26h1v1h-1zM29 26h1v1h-1z"/><path fill="#437147" d="M30 26h1v1h-1z"/><path fill="#649061" d="M31 26h1v1h-1z"/><path fill="#749F6E" d="M32 26h1v1h-1zM33 26h1v1h-1zM34 26h1v1h-1zM35 26h1v1h-1zM36 26h1v1h-1zM37 26h1v1h-1zM38 26h1v1h-1zM39 26h1v1h-1zM40 26h1v1h-1z"/><path fill="#649061" d="M41 26h1v1h-1z"/><path fill="#3A6A40" d="M42 26h1v1h-1z"/><path fill="#32623A" d="M43 26h1v1h-1zM44 26h1v1h-1zM45 26h1v1h-1zM46 26h1v1h-1z"/><path fill="#3E6E41" d="M47 26h1v1h-1z"/><path fill="#719D6C" d="M48 26h1v1h-1z"/><path fill="#75A170" d="M49 26h1v1h-1z"/><path fill="#83C686" d="M50 26h1v1h-1zM51 26h1v1h-1zM52 26h1v1h-1zM53 26h1v1h-1zM54 26h1v1h-1zM55 26h1v1h-1zM56 26h1v1h-1zM57 26h1v1h-1zM58 26h1v1h-1zM59 26h1v1h-1zM60 26h1v1h-1zM61 26h1v1h-1z"/><path fill="#7DB77D" d="M62 26h1v1h-1z"/><path fill="#76A471" d="M63 26h1v1h-1z"/><path fill="#749F6E" d="M64 26h1v1h-1zM65 26h1v1h-1zM66 26h1v1h-1zM67 26h1v1h-1zM68 26h1v1h-1zM69 26h1v1h-1zM70 26h1v1h-1zM71 26h1v1h-1zM72 26h1v1h-1zM73 26h1v1h-1zM74 26h1v1h-1z"/><path fill="#648057" d="M75 26h1v1h-1z"/><path fill="#5D724C" d="M76 26h1v1h-1zM77 26h1v1h-1zM78 26h1v1h-1zM79 26h1v1h-1zM80 26h1v1h-1zM81 26h1v1h-1zM82 26h1v1h-1zM83 26h1v1h-1zM84 26h1v1h-1zM85 26h1v1h-1z"/><path fill="#475037" d="M86 26h1v1h-1z"/><path fill="#231815" d="M87 26h1v1h-1zM88 26h1v1h-1zM89 26h1v1h-1z"/><path fill="#32623A" d="M21 27h1v1h-1zM22 27h1v1h-1zM23 27h1v1h-1zM24 27h1v1h-1zM25 27h1v1h-1zM26 27h1v1h-1zM27 27h1v1h-1z"/><path fill="#3A6A41" d="M28 27h1v1h-1z"/><path fill="#649061" d="M29 27h1v1h-1z"/><path fill="#749F6E" d="M30 27h1v1h-1zM31 27h1v1h-1zM32 27h1v1h-1zM33 27h1v1h-1zM34 27h1v1h-1zM35 27h1v1h-1zM36 27h1v1h-1zM37 27h1v1h-1zM38 27h1v1h-1zM39 27h1v1h-1zM40 27h1v1h-1z"/><path fill="#6E9A69" d="M41 27h1v1h-1z"/><path fill="#477846" d="M42 27h1v1h-1z"/><path fill="#3E6E41" d="M43 27h1v1h-1z"/><path fill="#33633B" d="M44 27h1v1h-1z"/><path fill="#32623A" d="M45 27h1v1h-1zM46 27h1v1h-1zM47 27h1v1h-1z"/><path fill="#4B794E" d="M48 27h1v1h-1z"/><path fill="#749F6E" d="M49 27h1v1h-1z"/><path fill="#7CB37A" d="M50 27h1v1h-1z"/><path fill="#83C686" d="M51 27h1v1h-1zM52 27h1v1h-1zM53 27h1v1h-1zM54 27h1v1h-1zM55 27h1v1h-1zM56 27h1v1h-1zM57 27h1v1h-1zM58 27h1v1h-1z"/><path fill="#80BF82" d="M59 27h1v1h-1z"/><path fill="#7BB079" d="M60 27h1v1h-1z"/><path fill="#75A170" d="M61 27h1v1h-1z"/><path fill="#749F6E" d="M62 27h1v1h-1zM63 27h1v1h-1zM64 27h1v1h-1zM65 27h1v1h-1zM66 27h1v1h-1zM67 27h1v1h-1zM68 27h1v1h-1zM69 27h1v1h-1zM70 27h1v1h-1zM71 27h1v1h-1zM72 27h1v1h-1zM73 27h1v1h-1z"/><path fill="#668359" d="M74 27h1v1h-1z"/><path fill="#5D724C" d="M75 27h1v1h-1zM76 27h1v1h-1zM77 27h1v1h-1zM78 27h1v1h-1zM79 27h1v1h-1zM80 27h1v1h-1zM81 27h1v1h-1zM82 27h1v1h-1zM83 27h1v1h-1zM84 27h1v1h-1zM85 27h1v1h-1z"/><path fill="#404531" d="M86 27h1v1h-1z"/><path fill="#231815" d="M87 27h1v1h-1zM88 27h1v1h-1zM89 27h1v1h-1z"/><path fill="#32623A" d="M19 28h1v1h-1zM20 28h1v1h-1zM21 28h1v1h-1zM22 28h1v1h-1zM23 28h1v1h-1zM24 28h1v1h-1zM25 28h1v1h-1z"/><path fill="#37683F" d="M26 28h1v1h-1z"/><path fill="#65A16A" d="M27 28h1v1h-1z"/><path fill="#7FBC80" d="M28 28h1v1h-1zM29 28h1v1h-1zM30 28h1v1h-1zM31 28h1v1h-1zM32 28h1v1h-1z"/><path fill="#7CB37A" d="M33 28h1v1h-1z"/><path fill="#79AB76" d="M34 28h1v1h-1z"/><path fill="#75A170" d="M35 28h1v1h-1z"/><path fill="#749F6E" d="M36 28h1v1h-1zM37 28h1v1h-1zM38 28h1v1h-1zM39 28h1v1h-1zM40 28h1v1h-1z"/><path fill="#608E5D" d="M41 28h1v1h-1z"/><path fill="#477846" d="M42 28h1v1h-1zM43 28h1v1h-1z"/><path fill="#437444" d="M44 28h1v1h-1z"/><path fill="#36663C" d="M45 28h1v1h-1z"/><path fill="#32623A" d="M46 28h1v1h-1zM47 28h1v1h-1zM48 28h1v1h-1z"/><path fill="#437147" d="M49 28h1v1h-1z"/><path fill="#709B6B" d="M50 28h1v1h-1z"/><path fill="#78A974" d="M51 28h1v1h-1z"/><path fill="#7EBA7F" d="M52 28h1v1h-1z"/><path fill="#81C183" d="M53 28h1v1h-1z"/><path fill="#83C686" d="M54 28h1v1h-1z"/><path fill="#80BF82" d="M55 28h1v1h-1z"/><path fill="#7EBA7F" d="M56 28h1v1h-1z"/><path fill="#7BB079" d="M57 28h1v1h-1z"/><path fill="#76A471" d="M58 28h1v1h-1z"/><path fill="#749F6E" d="M59 28h1v1h-1zM60 28h1v1h-1zM61 28h1v1h-1zM62 28h1v1h-1zM63 28h1v1h-1zM64 28h1v1h-1zM65 28h1v1h-1zM66 28h1v1h-1zM67 28h1v1h-1zM68 28h1v1h-1zM69 28h1v1h-1zM70 28h1v1h-1zM71 28h1v1h-1zM72 28h1v1h-1z"/><path fill="#668359" d="M73 28h1v1h-1z"/><path fill="#5D724C" d="M74 28h1v1h-1zM75 28h1v1h-1zM76 28h1v1h-1zM77 28h1v1h-1zM78 28h1v1h-1zM79 28h1v1h-1zM80 28h1v1h-1zM81 28h1v1h-1zM82 28h1v1h-1zM83 28h1v1h-1zM84 28h1v1h-1zM85 28h1v1h-1z"/><path fill="#322F23" d="M86 28h1v1h-1z"/><path fill="#231815" d="M87 28h1v1h-1zM88 28h1v1h-1zM89 28h1v1h-1z"/><path fill="#32623A" d="M17 29h1v1h-1z"/><path fill="#2E4C2F" d="M18 29h1v1h-1z"/><path fill="#2E5031" d="M19 29h1v1h-1z"/><path fill="#32623A" d="M20 29h1v1h-1zM21 29h1v1h-1zM22 29h1v1h-1zM23 29h1v1h-1z"/><path fill="#37683F" d="M24 29h1v1h-1z"/><path fill="#5B9460" d="M25 29h1v1h-1z"/><path fill="#7EC081" d="M26 29h1v1h-1z"/><path fill="#83C686" d="M27 29h1v1h-1zM28 29h1v1h-1zM29 29h1v1h-1zM30 29h1v1h-1zM31 29h1v1h-1zM32 29h1v1h-1zM33 29h1v1h-1zM34 29h1v1h-1zM35 29h1v1h-1z"/><path fill="#7DB77D" d="M36 29h1v1h-1z"/><path fill="#75A170" d="M37 29h1v1h-1z"/><path fill="#749F6E" d="M38 29h1v1h-1zM39 29h1v1h-1zM40 29h1v1h-1z"/><path fill="#558453" d="M41 29h1v1h-1z"/><path fill="#477846" d="M42 29h1v1h-1zM43 29h1v1h-1zM44 29h1v1h-1z"/><path fill="#467745" d="M45 29h1v1h-1z"/><path fill="#37683D" d="M46 29h1v1h-1z"/><path fill="#32623A" d="M47 29h1v1h-1zM48 29h1v1h-1zM49 29h1v1h-1z"/><path fill="#3E6D44" d="M50 29h1v1h-1z"/><path fill="#709B6B" d="M51 29h1v1h-1z"/><path fill="#749F6E" d="M52 29h1v1h-1zM53 29h1v1h-1zM54 29h1v1h-1zM55 29h1v1h-1zM56 29h1v1h-1zM57 29h1v1h-1zM58 29h1v1h-1zM59 29h1v1h-1zM60 29h1v1h-1zM61 29h1v1h-1zM62 29h1v1h-1zM63 29h1v1h-1zM64 29h1v1h-1zM65 29h1v1h-1zM66 29h1v1h-1zM67 29h1v1h-1zM68 29h1v1h-1zM69 29h1v1h-1zM70 29h1v1h-1z"/><path fill="#739C6C" d="M71 29h1v1h-1z"/><path fill="#668359" d="M72 29h1v1h-1z"/><path fill="#5D724C" d="M73 29h1v1h-1zM74 29h1v1h-1zM75 29h1v1h-1zM76 29h1v1h-1zM77 29h1v1h-1zM78 29h1v1h-1zM79 29h1v1h-1zM80 29h1v1h-1zM81 29h1v1h-1zM82 29h1v1h-1zM83 29h1v1h-1zM84 29h1v1h-1z"/><path fill="#596C49" d="M85 29h1v1h-1z"/><path fill="#231815" d="M86 29h1v1h-1zM87 29h1v1h-1zM88 29h1v1h-1zM89 29h1v1h-1zM14 30h1v1h-1zM15 30h1v1h-1zM16 30h1v1h-1zM17 30h1v1h-1zM18 30h1v1h-1zM19 30h1v1h-1zM20 30h1v1h-1zM21 30h1v1h-1z"/><path fill="#2A3825" d="M22 30h1v1h-1z"/><path fill="#37683F" d="M23 30h1v1h-1z"/><path fill="#6AA76E" d="M24 30h1v1h-1z"/><path fill="#83C686" d="M25 30h1v1h-1zM26 30h1v1h-1zM27 30h1v1h-1zM28 30h1v1h-1zM29 30h1v1h-1zM30 30h1v1h-1zM31 30h1v1h-1zM32 30h1v1h-1zM33 30h1v1h-1zM34 30h1v1h-1zM35 30h1v1h-1zM36 30h1v1h-1z"/><path fill="#7CB37A" d="M37 30h1v1h-1z"/><path fill="#749F6E" d="M38 30h1v1h-1zM39 30h1v1h-1zM40 30h1v1h-1z"/><path fill="#528250" d="M41 30h1v1h-1z"/><path fill="#477846" d="M42 30h1v1h-1zM43 30h1v1h-1zM44 30h1v1h-1zM45 30h1v1h-1zM46 30h1v1h-1z"/><path fill="#3A6A3F" d="M47 30h1v1h-1z"/><path fill="#32623A" d="M48 30h1v1h-1zM49 30h1v1h-1zM50 30h1v1h-1z"/><path fill="#3E6D44" d="M51 30h1v1h-1z"/><path fill="#709B6B" d="M52 30h1v1h-1z"/><path fill="#749F6E" d="M53 30h1v1h-1zM54 30h1v1h-1z"/><path fill="#719D6C" d="M55 30h1v1h-1z"/><path fill="#699564" d="M56 30h1v1h-1zM57 30h1v1h-1zM58 30h1v1h-1z"/><path fill="#749F6E" d="M59 30h1v1h-1zM60 30h1v1h-1zM61 30h1v1h-1zM62 30h1v1h-1zM63 30h1v1h-1zM64 30h1v1h-1zM65 30h1v1h-1zM66 30h1v1h-1zM67 30h1v1h-1zM68 30h1v1h-1zM69 30h1v1h-1z"/><path fill="#709768" d="M70 30h1v1h-1z"/><path fill="#617A52" d="M71 30h1v1h-1z"/><path fill="#5D724C" d="M72 30h1v1h-1zM73 30h1v1h-1zM74 30h1v1h-1zM75 30h1v1h-1zM76 30h1v1h-1zM77 30h1v1h-1zM78 30h1v1h-1zM79 30h1v1h-1zM80 30h1v1h-1zM81 30h1v1h-1zM82 30h1v1h-1zM83 30h1v1h-1zM84 30h1v1h-1z"/><path fill="#475037" d="M85 30h1v1h-1z"/><path fill="#231815" d="M86 30h1v1h-1zM87 30h1v1h-1zM88 30h1v1h-1zM13 31h1v1h-1zM14 31h1v1h-1zM15 31h1v1h-1zM16 31h1v1h-1zM17 31h1v1h-1zM18 31h1v1h-1zM19 31h1v1h-1zM20 31h1v1h-1zM21 31h1v1h-1zM22 31h1v1h-1z"/><path fill="#2E5031" d="M23 31h1v1h-1z"/><path fill="#32623A" d="M24 31h1v1h-1z"/><path fill="#37683F" d="M25 31h1v1h-1z"/><path fill="#558E5B" d="M26 31h1v1h-1z"/><path fill="#79BA7D" d="M27 31h1v1h-1z"/><path fill="#83C686" d="M28 31h1v1h-1zM29 31h1v1h-1zM30 31h1v1h-1zM31 31h1v1h-1zM32 31h1v1h-1zM33 31h1v1h-1zM34 31h1v1h-1zM35 31h1v1h-1zM36 31h1v1h-1z"/><path fill="#79AB76" d="M37 31h1v1h-1z"/><path fill="#749F6E" d="M38 31h1v1h-1zM39 31h1v1h-1zM40 31h1v1h-1z"/><path fill="#588755" d="M41 31h1v1h-1z"/><path fill="#477846" d="M42 31h1v1h-1zM43 31h1v1h-1zM44 31h1v1h-1zM45 31h1v1h-1zM46 31h1v1h-1zM47 31h1v1h-1z"/><path fill="#3F7042" d="M48 31h1v1h-1z"/><path fill="#32623A" d="M49 31h1v1h-1zM50 31h1v1h-1zM51 31h1v1h-1z"/><path fill="#3E6D44" d="M52 31h1v1h-1z"/><path fill="#5C8A59" d="M53 31h1v1h-1z"/><path fill="#528250" d="M54 31h1v1h-1z"/><path fill="#477846" d="M55 31h1v1h-1zM56 31h1v1h-1zM57 31h1v1h-1zM58 31h1v1h-1z"/><path fill="#4A7A49" d="M59 31h1v1h-1z"/><path fill="#669362" d="M60 31h1v1h-1z"/><path fill="#749F6E" d="M61 31h1v1h-1zM62 31h1v1h-1zM63 31h1v1h-1zM64 31h1v1h-1zM65 31h1v1h-1zM66 31h1v1h-1zM67 31h1v1h-1zM68 31h1v1h-1z"/><path fill="#69895D" d="M69 31h1v1h-1z"/><path fill="#5D724C" d="M70 31h1v1h-1zM71 31h1v1h-1zM72 31h1v1h-1zM73 31h1v1h-1zM74 31h1v1h-1zM75 31h1v1h-1zM76 31h1v1h-1zM77 31h1v1h-1zM78 31h1v1h-1zM79 31h1v1h-1zM80 31h1v1h-1zM81 31h1v1h-1zM82 31h1v1h-1zM83 31h1v1h-1zM84 31h1v1h-1z"/><path fill="#2A231C" d="M85 31h1v1h-1z"/><path fill="#231815" d="M86 31h1v1h-1zM87 31h1v1h-1zM88 31h1v1h-1zM12 32h1v1h-1zM13 32h1v1h-1zM14 32h1v1h-1zM15 32h1v1h-1zM16 32h1v1h-1zM17 32h1v1h-1z"/><path fill="#2F2E23" d="M18 32h1v1h-1z"/><path fill="#35392A" d="M19 32h1v1h-1z"/><path fill="#231815" d="M20 32h1v1h-1zM21 32h1v1h-1z"/><path fill="#25211A" d="M22 32h1v1h-1z"/><path fill="#315D38" d="M23 32h1v1h-1z"/><path fill="#32623A" d="M24 32h1v1h-1zM25 32h1v1h-1zM26 32h1v1h-1zM27 32h1v1h-1z"/><path fill="#558E5B" d="M28 32h1v1h-1z"/><path fill="#7EC081" d="M29 32h1v1h-1z"/><path fill="#83C686" d="M30 32h1v1h-1zM31 32h1v1h-1zM32 32h1v1h-1zM33 32h1v1h-1z"/><path fill="#81C183" d="M34 32h1v1h-1z"/><path fill="#7CB57C" d="M35 32h1v1h-1z"/><path fill="#76A471" d="M36 32h1v1h-1z"/><path fill="#749F6E" d="M37 32h1v1h-1zM38 32h1v1h-1zM39 32h1v1h-1zM40 32h1v1h-1z"/><path fill="#6C9867" d="M41 32h1v1h-1z"/><path fill="#4A7A49" d="M42 32h1v1h-1z"/><path fill="#477846" d="M43 32h1v1h-1zM44 32h1v1h-1zM45 32h1v1h-1zM46 32h1v1h-1zM47 32h1v1h-1zM48 32h1v1h-1z"/><path fill="#3F7042" d="M49 32h1v1h-1z"/><path fill="#32623A" d="M50 32h1v1h-1zM51 32h1v1h-1zM52 32h1v1h-1z"/><path fill="#3B6C3F" d="M53 32h1v1h-1z"/><path fill="#477846" d="M54 32h1v1h-1zM55 32h1v1h-1zM56 32h1v1h-1zM57 32h1v1h-1zM58 32h1v1h-1zM59 32h1v1h-1z"/><path fill="#5E8C5A" d="M60 32h1v1h-1z"/><path fill="#749F6E" d="M61 32h1v1h-1zM62 32h1v1h-1zM63 32h1v1h-1zM64 32h1v1h-1zM65 32h1v1h-1zM66 32h1v1h-1z"/><path fill="#6E9466" d="M67 32h1v1h-1z"/><path fill="#617A52" d="M68 32h1v1h-1z"/><path fill="#5D724C" d="M69 32h1v1h-1zM70 32h1v1h-1zM71 32h1v1h-1zM72 32h1v1h-1zM73 32h1v1h-1zM74 32h1v1h-1zM75 32h1v1h-1zM76 32h1v1h-1zM77 32h1v1h-1zM78 32h1v1h-1zM79 32h1v1h-1zM80 32h1v1h-1zM81 32h1v1h-1zM82 32h1v1h-1zM83 32h1v1h-1z"/><path fill="#475037" d="M84 32h1v1h-1z"/><path fill="#231815" d="M85 32h1v1h-1zM86 32h1v1h-1zM87 32h1v1h-1zM88 32h1v1h-1zM11 33h1v1h-1zM12 33h1v1h-1zM13 33h1v1h-1zM14 33h1v1h-1z"/><path fill="#29231C" d="M15 33h1v1h-1z"/><path fill="#50724D" d="M16 33h1v1h-1z"/><path fill="#78B57A" d="M17 33h1v1h-1z"/><path fill="#83C686" d="M18 33h1v1h-1zM19 33h1v1h-1zM20 33h1v1h-1z"/><path fill="#79BA7D" d="M21 33h1v1h-1z"/><path fill="#65A16A" d="M22 33h1v1h-1z"/><path fill="#508857" d="M23 33h1v1h-1z"/><path fill="#37683F" d="M24 33h1v1h-1z"/><path fill="#32623A" d="M25 33h1v1h-1zM26 33h1v1h-1zM27 33h1v1h-1zM28 33h1v1h-1z"/><path fill="#3C6F44" d="M29 33h1v1h-1z"/><path fill="#6EA56F" d="M30 33h1v1h-1z"/><path fill="#78A974" d="M31 33h1v1h-1zM32 33h1v1h-1z"/><path fill="#75A170" d="M33 33h1v1h-1z"/><path fill="#749F6E" d="M34 33h1v1h-1zM35 33h1v1h-1zM36 33h1v1h-1zM37 33h1v1h-1zM38 33h1v1h-1zM39 33h1v1h-1zM40 33h1v1h-1zM41 33h1v1h-1z"/><path fill="#719D6C" d="M42 33h1v1h-1z"/><path fill="#63905F" d="M43 33h1v1h-1z"/><path fill="#5E8C5A" d="M44 33h1v1h-1zM45 33h1v1h-1z"/><path fill="#659562" d="M46 33h1v1h-1z"/><path fill="#6FA66F" d="M47 33h1v1h-1z"/><path fill="#649361" d="M48 33h1v1h-1z"/><path fill="#558453" d="M49 33h1v1h-1z"/><path fill="#3B6C3F" d="M50 33h1v1h-1z"/><path fill="#32623A" d="M51 33h1v1h-1zM52 33h1v1h-1zM53 33h1v1h-1z"/><path fill="#407142" d="M54 33h1v1h-1z"/><path fill="#477846" d="M55 33h1v1h-1zM56 33h1v1h-1zM57 33h1v1h-1zM58 33h1v1h-1z"/><path fill="#4F7F4E" d="M59 33h1v1h-1z"/><path fill="#719D6C" d="M60 33h1v1h-1z"/><path fill="#749F6E" d="M61 33h1v1h-1zM62 33h1v1h-1zM63 33h1v1h-1zM64 33h1v1h-1z"/><path fill="#71996A" d="M65 33h1v1h-1z"/><path fill="#668359" d="M66 33h1v1h-1z"/><path fill="#5D724C" d="M67 33h1v1h-1zM68 33h1v1h-1zM69 33h1v1h-1zM70 33h1v1h-1zM71 33h1v1h-1zM72 33h1v1h-1zM73 33h1v1h-1zM74 33h1v1h-1zM75 33h1v1h-1zM76 33h1v1h-1zM77 33h1v1h-1zM78 33h1v1h-1zM79 33h1v1h-1zM80 33h1v1h-1zM81 33h1v1h-1zM82 33h1v1h-1z"/><path fill="#566745" d="M83 33h1v1h-1z"/><path fill="#271E18" d="M84 33h1v1h-1z"/><path fill="#231815" d="M85 33h1v1h-1zM86 33h1v1h-1zM87 33h1v1h-1zM11 34h1v1h-1zM12 34h1v1h-1zM13 34h1v1h-1z"/><path fill="#2F2E23" d="M14 34h1v1h-1z"/><path fill="#77B078" d="M15 34h1v1h-1z"/><path fill="#83C686" d="M16 34h1v1h-1zM17 34h1v1h-1zM18 34h1v1h-1zM19 34h1v1h-1zM20 34h1v1h-1zM21 34h1v1h-1zM22 34h1v1h-1zM23 34h1v1h-1zM24 34h1v1h-1z"/><path fill="#65A16A" d="M25 34h1v1h-1z"/><path fill="#417548" d="M26 34h1v1h-1z"/><path fill="#32623A" d="M27 34h1v1h-1zM28 34h1v1h-1zM29 34h1v1h-1zM30 34h1v1h-1z"/><path fill="#5B885B" d="M31 34h1v1h-1z"/><path fill="#749F6E" d="M32 34h1v1h-1zM33 34h1v1h-1zM34 34h1v1h-1zM35 34h1v1h-1zM36 34h1v1h-1zM37 34h1v1h-1zM38 34h1v1h-1zM39 34h1v1h-1zM40 34h1v1h-1zM41 34h1v1h-1zM42 34h1v1h-1zM43 34h1v1h-1zM44 34h1v1h-1z"/><path fill="#75A170" d="M45 34h1v1h-1z"/><path fill="#82C485" d="M46 34h1v1h-1z"/><path fill="#83C686" d="M47 34h1v1h-1z"/><path fill="#80BF82" d="M48 34h1v1h-1z"/><path fill="#75A170" d="M49 34h1v1h-1z"/><path fill="#63905F" d="M50 34h1v1h-1z"/><path fill="#3D6C42" d="M51 34h1v1h-1z"/><path fill="#32623A" d="M52 34h1v1h-1zM53 34h1v1h-1z"/><path fill="#35653C" d="M54 34h1v1h-1z"/><path fill="#477846" d="M55 34h1v1h-1zM56 34h1v1h-1z"/><path fill="#4D7D4B" d="M57 34h1v1h-1z"/><path fill="#5E8C5A" d="M58 34h1v1h-1z"/><path fill="#719D6C" d="M59 34h1v1h-1z"/><path fill="#749F6E" d="M60 34h1v1h-1zM61 34h1v1h-1zM62 34h1v1h-1z"/><path fill="#71996A" d="M63 34h1v1h-1z"/><path fill="#668359" d="M64 34h1v1h-1z"/><path fill="#5D724C" d="M65 34h1v1h-1zM66 34h1v1h-1zM67 34h1v1h-1zM68 34h1v1h-1zM69 34h1v1h-1zM70 34h1v1h-1zM71 34h1v1h-1zM72 34h1v1h-1zM73 34h1v1h-1zM74 34h1v1h-1zM75 34h1v1h-1zM76 34h1v1h-1zM77 34h1v1h-1zM78 34h1v1h-1zM79 34h1v1h-1zM80 34h1v1h-1zM81 34h1v1h-1z"/><path fill="#596C49" d="M82 34h1v1h-1z"/><path fill="#2E291F" d="M83 34h1v1h-1z"/><path fill="#231815" d="M84 34h1v1h-1zM85 34h1v1h-1zM86 34h1v1h-1zM87 34h1v1h-1zM10 35h1v1h-1zM11 35h1v1h-1zM12 35h1v1h-1zM13 35h1v1h-1z"/><path fill="#71A571" d="M14 35h1v1h-1z"/><path fill="#83C686" d="M15 35h1v1h-1zM16 35h1v1h-1zM17 35h1v1h-1zM18 35h1v1h-1zM19 35h1v1h-1zM20 35h1v1h-1zM21 35h1v1h-1zM22 35h1v1h-1zM23 35h1v1h-1zM24 35h1v1h-1zM25 35h1v1h-1zM26 35h1v1h-1z"/><path fill="#609A65" d="M27 35h1v1h-1z"/><path fill="#37683F" d="M28 35h1v1h-1z"/><path fill="#32623A" d="M29 35h1v1h-1zM30 35h1v1h-1zM31 35h1v1h-1z"/><path fill="#5B885B" d="M32 35h1v1h-1z"/><path fill="#749F6E" d="M33 35h1v1h-1zM34 35h1v1h-1zM35 35h1v1h-1zM36 35h1v1h-1zM37 35h1v1h-1zM38 35h1v1h-1zM39 35h1v1h-1zM40 35h1v1h-1z"/><path fill="#77A673" d="M41 35h1v1h-1z"/><path fill="#7BB079" d="M42 35h1v1h-1z"/><path fill="#7CB37A" d="M43 35h1v1h-1z"/><path fill="#7CB57C" d="M44 35h1v1h-1z"/><path fill="#82C485" d="M45 35h1v1h-1z"/><path fill="#83C686" d="M46 35h1v1h-1zM47 35h1v1h-1zM48 35h1v1h-1z"/><path fill="#7DB77D" d="M49 35h1v1h-1z"/><path fill="#749F6E" d="M50 35h1v1h-1z"/><path fill="#6C9768" d="M51 35h1v1h-1z"/><path fill="#32623A" d="M52 35h1v1h-1zM53 35h1v1h-1zM54 35h1v1h-1z"/><path fill="#538153" d="M55 35h1v1h-1z"/><path fill="#719D6C" d="M56 35h1v1h-1z"/><path fill="#749F6E" d="M57 35h1v1h-1zM58 35h1v1h-1zM59 35h1v1h-1zM60 35h1v1h-1z"/><path fill="#6E9466" d="M61 35h1v1h-1z"/><path fill="#648057" d="M62 35h1v1h-1z"/><path fill="#5D724C" d="M63 35h1v1h-1zM64 35h1v1h-1zM65 35h1v1h-1zM66 35h1v1h-1zM67 35h1v1h-1zM68 35h1v1h-1zM69 35h1v1h-1zM70 35h1v1h-1zM71 35h1v1h-1zM72 35h1v1h-1zM73 35h1v1h-1zM74 35h1v1h-1zM75 35h1v1h-1zM76 35h1v1h-1zM77 35h1v1h-1zM78 35h1v1h-1zM79 35h1v1h-1zM80 35h1v1h-1zM81 35h1v1h-1z"/><path fill="#393A2A" d="M82 35h1v1h-1z"/><path fill="#231815" d="M83 35h1v1h-1zM84 35h1v1h-1zM85 35h1v1h-1zM86 35h1v1h-1zM10 36h1v1h-1zM11 36h1v1h-1zM12 36h1v1h-1z"/><path fill="#47593F" d="M13 36h1v1h-1z"/><path fill="#83C686" d="M14 36h1v1h-1zM15 36h1v1h-1zM16 36h1v1h-1zM17 36h1v1h-1zM18 36h1v1h-1zM19 36h1v1h-1zM20 36h1v1h-1zM21 36h1v1h-1zM22 36h1v1h-1zM23 36h1v1h-1zM24 36h1v1h-1zM25 36h1v1h-1zM26 36h1v1h-1zM27 36h1v1h-1z"/><path fill="#74B378" d="M28 36h1v1h-1z"/><path fill="#37683F" d="M29 36h1v1h-1z"/><path fill="#32623A" d="M30 36h1v1h-1zM31 36h1v1h-1zM32 36h1v1h-1z"/><path fill="#689464" d="M33 36h1v1h-1z"/><path fill="#749F6E" d="M34 36h1v1h-1zM35 36h1v1h-1zM36 36h1v1h-1zM37 36h1v1h-1zM38 36h1v1h-1z"/><path fill="#75A170" d="M39 36h1v1h-1z"/><path fill="#7FBC80" d="M40 36h1v1h-1z"/><path fill="#83C686" d="M41 36h1v1h-1zM42 36h1v1h-1zM43 36h1v1h-1zM44 36h1v1h-1zM45 36h1v1h-1zM46 36h1v1h-1zM47 36h1v1h-1zM48 36h1v1h-1zM49 36h1v1h-1z"/><path fill="#79AB76" d="M50 36h1v1h-1z"/><path fill="#749F6E" d="M51 36h1v1h-1z"/><path fill="#538154" d="M52 36h1v1h-1z"/><path fill="#32623A" d="M53 36h1v1h-1zM54 36h1v1h-1z"/><path fill="#3A6A41" d="M55 36h1v1h-1z"/><path fill="#749F6E" d="M56 36h1v1h-1zM57 36h1v1h-1zM58 36h1v1h-1zM59 36h1v1h-1z"/><path fill="#69895D" d="M60 36h1v1h-1z"/><path fill="#5D724C" d="M61 36h1v1h-1zM62 36h1v1h-1zM63 36h1v1h-1zM64 36h1v1h-1zM65 36h1v1h-1zM66 36h1v1h-1zM67 36h1v1h-1zM68 36h1v1h-1zM69 36h1v1h-1zM70 36h1v1h-1zM71 36h1v1h-1zM72 36h1v1h-1zM73 36h1v1h-1zM74 36h1v1h-1zM75 36h1v1h-1zM76 36h1v1h-1zM77 36h1v1h-1zM78 36h1v1h-1zM79 36h1v1h-1z"/><path fill="#596C49" d="M80 36h1v1h-1z"/><path fill="#393A2A" d="M81 36h1v1h-1z"/><path fill="#231815" d="M82 36h1v1h-1zM83 36h1v1h-1zM84 36h1v1h-1zM85 36h1v1h-1zM10 37h1v1h-1zM11 37h1v1h-1zM12 37h1v1h-1z"/><path fill="#659063" d="M13 37h1v1h-1z"/><path fill="#83C686" d="M14 37h1v1h-1zM15 37h1v1h-1zM16 37h1v1h-1zM17 37h1v1h-1zM18 37h1v1h-1zM19 37h1v1h-1zM20 37h1v1h-1zM21 37h1v1h-1zM22 37h1v1h-1z"/><path fill="#86C789" d="M23 37h1v1h-1z"/><path fill="#95CE99" d="M24 37h1v1h-1z"/><path fill="#9BD09F" d="M25 37h1v1h-1z"/><path fill="#A6D5AC" d="M26 37h1v1h-1z"/><path fill="#9DD1A2" d="M27 37h1v1h-1z"/><path fill="#95CE99" d="M28 37h1v1h-1z"/><path fill="#77B57B" d="M29 37h1v1h-1z"/><path fill="#37683F" d="M30 37h1v1h-1z"/><path fill="#32623A" d="M31 37h1v1h-1zM32 37h1v1h-1z"/><path fill="#36663D" d="M33 37h1v1h-1z"/><path fill="#5F8C5E" d="M34 37h1v1h-1z"/><path fill="#749F6E" d="M35 37h1v1h-1zM36 37h1v1h-1zM37 37h1v1h-1zM38 37h1v1h-1z"/><path fill="#77A673" d="M39 37h1v1h-1z"/><path fill="#83C686" d="M40 37h1v1h-1zM41 37h1v1h-1zM42 37h1v1h-1zM43 37h1v1h-1zM44 37h1v1h-1zM45 37h1v1h-1zM46 37h1v1h-1zM47 37h1v1h-1zM48 37h1v1h-1zM49 37h1v1h-1z"/><path fill="#82C485" d="M50 37h1v1h-1z"/><path fill="#75A170" d="M51 37h1v1h-1z"/><path fill="#709B6B" d="M52 37h1v1h-1z"/><path fill="#36663D" d="M53 37h1v1h-1z"/><path fill="#32623A" d="M54 37h1v1h-1zM55 37h1v1h-1z"/><path fill="#5F8C5E" d="M56 37h1v1h-1z"/><path fill="#749F6E" d="M57 37h1v1h-1zM58 37h1v1h-1z"/><path fill="#668359" d="M59 37h1v1h-1z"/><path fill="#5D724C" d="M60 37h1v1h-1zM61 37h1v1h-1zM62 37h1v1h-1zM63 37h1v1h-1zM64 37h1v1h-1zM65 37h1v1h-1zM66 37h1v1h-1zM67 37h1v1h-1zM68 37h1v1h-1zM69 37h1v1h-1zM70 37h1v1h-1zM71 37h1v1h-1zM72 37h1v1h-1zM73 37h1v1h-1zM74 37h1v1h-1zM75 37h1v1h-1zM76 37h1v1h-1zM77 37h1v1h-1zM78 37h1v1h-1z"/><path fill="#596C49" d="M79 37h1v1h-1z"/><path fill="#2E291F" d="M80 37h1v1h-1z"/><path fill="#231815" d="M81 37h1v1h-1zM82 37h1v1h-1zM83 37h1v1h-1zM84 37h1v1h-1zM10 38h1v1h-1zM11 38h1v1h-1zM12 38h1v1h-1z"/><path fill="#7DBB7F" d="M13 38h1v1h-1z"/><path fill="#83C686" d="M14 38h1v1h-1zM15 38h1v1h-1zM16 38h1v1h-1zM17 38h1v1h-1zM18 38h1v1h-1zM19 38h1v1h-1zM20 38h1v1h-1z"/><path fill="#86C789" d="M21 38h1v1h-1z"/><path fill="#A0D3A5" d="M22 38h1v1h-1z"/><path fill="#B2DAB8" d="M23 38h1v1h-1zM24 38h1v1h-1zM25 38h1v1h-1zM26 38h1v1h-1zM27 38h1v1h-1zM28 38h1v1h-1z"/><path fill="#AFD9B5" d="M29 38h1v1h-1z"/><path fill="#94C19A" d="M30 38h1v1h-1z"/><path fill="#3A6A42" d="M31 38h1v1h-1z"/><path fill="#32623A" d="M32 38h1v1h-1zM33 38h1v1h-1zM34 38h1v1h-1z"/><path fill="#437147" d="M35 38h1v1h-1z"/><path fill="#5B885B" d="M36 38h1v1h-1z"/><path fill="#689464" d="M37 38h1v1h-1z"/><path fill="#749F6E" d="M38 38h1v1h-1zM39 38h1v1h-1z"/><path fill="#78A974" d="M40 38h1v1h-1z"/><path fill="#7FBC80" d="M41 38h1v1h-1z"/><path fill="#83C686" d="M42 38h1v1h-1zM43 38h1v1h-1zM44 38h1v1h-1zM45 38h1v1h-1zM46 38h1v1h-1zM47 38h1v1h-1zM48 38h1v1h-1zM49 38h1v1h-1zM50 38h1v1h-1z"/><path fill="#7DB77D" d="M51 38h1v1h-1z"/><path fill="#749F6E" d="M52 38h1v1h-1z"/><path fill="#4B794E" d="M53 38h1v1h-1z"/><path fill="#32623A" d="M54 38h1v1h-1zM55 38h1v1h-1z"/><path fill="#4B794E" d="M56 38h1v1h-1z"/><path fill="#749F6E" d="M57 38h1v1h-1z"/><path fill="#668359" d="M58 38h1v1h-1z"/><path fill="#5D724C" d="M59 38h1v1h-1zM60 38h1v1h-1zM61 38h1v1h-1zM62 38h1v1h-1zM63 38h1v1h-1zM64 38h1v1h-1zM65 38h1v1h-1zM66 38h1v1h-1zM67 38h1v1h-1zM68 38h1v1h-1zM69 38h1v1h-1zM70 38h1v1h-1zM71 38h1v1h-1zM72 38h1v1h-1zM73 38h1v1h-1zM74 38h1v1h-1zM75 38h1v1h-1zM76 38h1v1h-1zM77 38h1v1h-1z"/><path fill="#4B563B" d="M78 38h1v1h-1z"/><path fill="#271E18" d="M79 38h1v1h-1z"/><path fill="#231815" d="M80 38h1v1h-1zM81 38h1v1h-1zM82 38h1v1h-1zM83 38h1v1h-1zM10 39h1v1h-1zM11 39h1v1h-1zM12 39h1v1h-1z"/><path fill="#83C686" d="M13 39h1v1h-1zM14 39h1v1h-1zM15 39h1v1h-1zM16 39h1v1h-1zM17 39h1v1h-1zM18 39h1v1h-1zM19 39h1v1h-1z"/><path fill="#8FCB93" d="M20 39h1v1h-1z"/><path fill="#AFD9B5" d="M21 39h1v1h-1z"/><path fill="#B2DAB8" d="M22 39h1v1h-1zM23 39h1v1h-1zM24 39h1v1h-1zM25 39h1v1h-1zM26 39h1v1h-1zM27 39h1v1h-1zM28 39h1v1h-1zM29 39h1v1h-1zM30 39h1v1h-1z"/><path fill="#9AC4A0" d="M31 39h1v1h-1z"/><path fill="#3A6A42" d="M32 39h1v1h-1z"/><path fill="#32623A" d="M33 39h1v1h-1zM34 39h1v1h-1zM35 39h1v1h-1zM36 39h1v1h-1zM37 39h1v1h-1zM38 39h1v1h-1z"/><path fill="#3A6A41" d="M39 39h1v1h-1z"/><path fill="#437147" d="M40 39h1v1h-1z"/><path fill="#538154" d="M41 39h1v1h-1z"/><path fill="#639664" d="M42 39h1v1h-1z"/><path fill="#7BB87D" d="M43 39h1v1h-1z"/><path fill="#83C686" d="M44 39h1v1h-1zM45 39h1v1h-1zM46 39h1v1h-1zM47 39h1v1h-1zM48 39h1v1h-1zM49 39h1v1h-1zM50 39h1v1h-1zM51 39h1v1h-1z"/><path fill="#75A170" d="M52 39h1v1h-1z"/><path fill="#5F8C5E" d="M53 39h1v1h-1z"/><path fill="#32623A" d="M54 39h1v1h-1zM55 39h1v1h-1z"/><path fill="#3A6A41" d="M56 39h1v1h-1z"/><path fill="#668359" d="M57 39h1v1h-1z"/><path fill="#5D724C" d="M58 39h1v1h-1zM59 39h1v1h-1zM60 39h1v1h-1zM61 39h1v1h-1zM62 39h1v1h-1zM63 39h1v1h-1zM64 39h1v1h-1zM65 39h1v1h-1zM66 39h1v1h-1zM67 39h1v1h-1zM68 39h1v1h-1zM69 39h1v1h-1zM70 39h1v1h-1zM71 39h1v1h-1zM72 39h1v1h-1zM73 39h1v1h-1zM74 39h1v1h-1zM75 39h1v1h-1z"/><path fill="#596C49" d="M76 39h1v1h-1z"/><path fill="#353426" d="M77 39h1v1h-1z"/><path fill="#231815" d="M78 39h1v1h-1zM79 39h1v1h-1zM80 39h1v1h-1zM81 39h1v1h-1zM82 39h1v1h-1zM9 40h1v1H9zM10 40h1v1h-1zM11 40h1v1h-1zM12 40h1v1h-1z"/><path fill="#83C686" d="M13 40h1v1h-1zM14 40h1v1h-1zM15 40h1v1h-1zM16 40h1v1h-1zM17 40h1v1h-1zM18 40h1v1h-1z"/><path fill="#92CC96" d="M19 40h1v1h-1z"/><path fill="#B2DAB8" d="M20 40h1v1h-1zM21 40h1v1h-1zM22 40h1v1h-1zM23 40h1v1h-1zM24 40h1v1h-1zM25 40h1v1h-1zM26 40h1v1h-1zM27 40h1v1h-1zM28 40h1v1h-1zM29 40h1v1h-1zM30 40h1v1h-1zM31 40h1v1h-1z"/><path fill="#AAD3B0" d="M32 40h1v1h-1z"/><path fill="#628F69" d="M33 40h1v1h-1z"/><path fill="#32623A" d="M34 40h1v1h-1zM35 40h1v1h-1zM36 40h1v1h-1zM37 40h1v1h-1zM38 40h1v1h-1zM39 40h1v1h-1zM40 40h1v1h-1zM41 40h1v1h-1zM42 40h1v1h-1zM43 40h1v1h-1z"/><path fill="#497C4F" d="M44 40h1v1h-1z"/><path fill="#6DA870" d="M45 40h1v1h-1z"/><path fill="#83C686" d="M46 40h1v1h-1zM47 40h1v1h-1zM48 40h1v1h-1zM49 40h1v1h-1zM50 40h1v1h-1zM51 40h1v1h-1z"/><path fill="#78A974" d="M52 40h1v1h-1z"/><path fill="#749F6E" d="M53 40h1v1h-1z"/><path fill="#32623A" d="M54 40h1v1h-1zM55 40h1v1h-1zM56 40h1v1h-1z"/><path fill="#5D724C" d="M57 40h1v1h-1zM58 40h1v1h-1zM59 40h1v1h-1zM60 40h1v1h-1zM61 40h1v1h-1zM62 40h1v1h-1zM63 40h1v1h-1zM64 40h1v1h-1zM65 40h1v1h-1zM66 40h1v1h-1zM67 40h1v1h-1zM68 40h1v1h-1zM69 40h1v1h-1zM70 40h1v1h-1zM71 40h1v1h-1zM72 40h1v1h-1zM73 40h1v1h-1z"/><path fill="#596C49" d="M74 40h1v1h-1z"/><path fill="#404531" d="M75 40h1v1h-1z"/><path fill="#271E18" d="M76 40h1v1h-1z"/><path fill="#231815" d="M77 40h1v1h-1zM78 40h1v1h-1zM79 40h1v1h-1zM80 40h1v1h-1zM81 40h1v1h-1zM10 41h1v1h-1zM11 41h1v1h-1zM12 41h1v1h-1z"/><path fill="#83C686" d="M13 41h1v1h-1zM14 41h1v1h-1zM15 41h1v1h-1zM16 41h1v1h-1zM17 41h1v1h-1z"/><path fill="#89C98C" d="M18 41h1v1h-1z"/><path fill="#AFD9B5" d="M19 41h1v1h-1z"/><path fill="#B2DAB8" d="M20 41h1v1h-1zM21 41h1v1h-1zM22 41h1v1h-1zM23 41h1v1h-1zM24 41h1v1h-1zM25 41h1v1h-1zM26 41h1v1h-1zM27 41h1v1h-1zM28 41h1v1h-1zM29 41h1v1h-1zM30 41h1v1h-1zM31 41h1v1h-1zM32 41h1v1h-1zM33 41h1v1h-1z"/><path fill="#A2CBA8" d="M34 41h1v1h-1z"/><path fill="#7AA681" d="M35 41h1v1h-1z"/><path fill="#5A8861" d="M36 41h1v1h-1z"/><path fill="#42714A" d="M37 41h1v1h-1z"/><path fill="#32623A" d="M38 41h1v1h-1zM39 41h1v1h-1zM40 41h1v1h-1zM41 41h1v1h-1zM42 41h1v1h-1zM43 41h1v1h-1zM44 41h1v1h-1zM45 41h1v1h-1z"/><path fill="#44764A" d="M46 41h1v1h-1z"/><path fill="#78B77B" d="M47 41h1v1h-1z"/><path fill="#83C686" d="M48 41h1v1h-1zM49 41h1v1h-1zM50 41h1v1h-1zM51 41h1v1h-1z"/><path fill="#77A673" d="M52 41h1v1h-1z"/><path fill="#749F6E" d="M53 41h1v1h-1z"/><path fill="#3A6A41" d="M54 41h1v1h-1z"/><path fill="#32623A" d="M55 41h1v1h-1zM56 41h1v1h-1z"/><path fill="#556F49" d="M57 41h1v1h-1z"/><path fill="#5D724C" d="M58 41h1v1h-1zM59 41h1v1h-1zM60 41h1v1h-1zM61 41h1v1h-1zM62 41h1v1h-1zM63 41h1v1h-1zM64 41h1v1h-1zM65 41h1v1h-1zM66 41h1v1h-1zM67 41h1v1h-1zM68 41h1v1h-1zM69 41h1v1h-1zM70 41h1v1h-1zM71 41h1v1h-1z"/><path fill="#596C49" d="M72 41h1v1h-1z"/><path fill="#404531" d="M73 41h1v1h-1z"/><path fill="#271E18" d="M74 41h1v1h-1z"/><path fill="#231815" d="M75 41h1v1h-1zM76 41h1v1h-1zM77 41h1v1h-1zM78 41h1v1h-1zM79 41h1v1h-1zM80 41h1v1h-1zM10 42h1v1h-1zM11 42h1v1h-1zM12 42h1v1h-1z"/><path fill="#7DBB7F" d="M13 42h1v1h-1z"/><path fill="#83C686" d="M14 42h1v1h-1zM15 42h1v1h-1zM16 42h1v1h-1zM17 42h1v1h-1z"/><path fill="#A0D3A5" d="M18 42h1v1h-1z"/><path fill="#B2DAB8" d="M19 42h1v1h-1zM20 42h1v1h-1zM21 42h1v1h-1zM22 42h1v1h-1zM23 42h1v1h-1zM24 42h1v1h-1zM25 42h1v1h-1zM26 42h1v1h-1zM27 42h1v1h-1zM28 42h1v1h-1zM29 42h1v1h-1zM30 42h1v1h-1zM31 42h1v1h-1zM32 42h1v1h-1zM33 42h1v1h-1zM34 42h1v1h-1zM35 42h1v1h-1zM36 42h1v1h-1zM37 42h1v1h-1zM38 42h1v1h-1z"/><path fill="#92BC99" d="M39 42h1v1h-1z"/><path fill="#7AA681" d="M40 42h1v1h-1z"/><path fill="#628F69" d="M41 42h1v1h-1z"/><path fill="#42714A" d="M42 42h1v1h-1z"/><path fill="#32623A" d="M43 42h1v1h-1zM44 42h1v1h-1zM45 42h1v1h-1zM46 42h1v1h-1z"/><path fill="#36663D" d="M47 42h1v1h-1z"/><path fill="#6FA770" d="M48 42h1v1h-1z"/><path fill="#81C183" d="M49 42h1v1h-1z"/><path fill="#83C686" d="M50 42h1v1h-1z"/><path fill="#7DB77D" d="M51 42h1v1h-1z"/><path fill="#749F6E" d="M52 42h1v1h-1zM53 42h1v1h-1z"/><path fill="#437147" d="M54 42h1v1h-1z"/><path fill="#32623A" d="M55 42h1v1h-1zM56 42h1v1h-1z"/><path fill="#526E48" d="M57 42h1v1h-1z"/><path fill="#5D724C" d="M58 42h1v1h-1zM59 42h1v1h-1zM60 42h1v1h-1zM61 42h1v1h-1zM62 42h1v1h-1zM63 42h1v1h-1zM64 42h1v1h-1zM65 42h1v1h-1zM66 42h1v1h-1zM67 42h1v1h-1zM68 42h1v1h-1zM69 42h1v1h-1z"/><path fill="#526142" d="M70 42h1v1h-1z"/><path fill="#393A2A" d="M71 42h1v1h-1z"/><path fill="#271E18" d="M72 42h1v1h-1z"/><path fill="#231815" d="M73 42h1v1h-1zM74 42h1v1h-1zM75 42h1v1h-1zM76 42h1v1h-1zM77 42h1v1h-1zM78 42h1v1h-1zM10 43h1v1h-1zM11 43h1v1h-1zM12 43h1v1h-1z"/><path fill="#5F855C" d="M13 43h1v1h-1z"/><path fill="#83C686" d="M14 43h1v1h-1zM15 43h1v1h-1zM16 43h1v1h-1zM17 43h1v1h-1z"/><path fill="#B2DAB8" d="M18 43h1v1h-1zM19 43h1v1h-1zM20 43h1v1h-1zM21 43h1v1h-1zM22 43h1v1h-1zM23 43h1v1h-1zM24 43h1v1h-1zM25 43h1v1h-1zM26 43h1v1h-1zM27 43h1v1h-1zM28 43h1v1h-1zM29 43h1v1h-1zM30 43h1v1h-1zM31 43h1v1h-1zM32 43h1v1h-1zM33 43h1v1h-1zM34 43h1v1h-1zM35 43h1v1h-1zM36 43h1v1h-1zM37 43h1v1h-1zM38 43h1v1h-1zM39 43h1v1h-1zM40 43h1v1h-1zM41 43h1v1h-1zM42 43h1v1h-1z"/><path fill="#9AC4A0" d="M43 43h1v1h-1z"/><path fill="#628F69" d="M44 43h1v1h-1z"/><path fill="#32623A" d="M45 43h1v1h-1zM46 43h1v1h-1zM47 43h1v1h-1z"/><path fill="#36663D" d="M48 43h1v1h-1z"/><path fill="#689464" d="M49 43h1v1h-1z"/><path fill="#749F6E" d="M50 43h1v1h-1zM51 43h1v1h-1zM52 43h1v1h-1zM53 43h1v1h-1z"/><path fill="#3A6A41" d="M54 43h1v1h-1z"/><path fill="#32623A" d="M55 43h1v1h-1zM56 43h1v1h-1z"/><path fill="#526E48" d="M57 43h1v1h-1z"/><path fill="#5D724C" d="M58 43h1v1h-1zM59 43h1v1h-1zM60 43h1v1h-1zM61 43h1v1h-1zM62 43h1v1h-1zM63 43h1v1h-1zM64 43h1v1h-1zM65 43h1v1h-1zM66 43h1v1h-1z"/><path fill="#566745" d="M67 43h1v1h-1z"/><path fill="#444B34" d="M68 43h1v1h-1z"/><path fill="#2E291F" d="M69 43h1v1h-1z"/><path fill="#231815" d="M70 43h1v1h-1zM71 43h1v1h-1zM72 43h1v1h-1zM73 43h1v1h-1zM74 43h1v1h-1zM75 43h1v1h-1zM76 43h1v1h-1zM77 43h1v1h-1zM10 44h1v1h-1zM11 44h1v1h-1zM12 44h1v1h-1z"/><path fill="#3B4431" d="M13 44h1v1h-1z"/><path fill="#83C686" d="M14 44h1v1h-1zM15 44h1v1h-1zM16 44h1v1h-1z"/><path fill="#8CCA8F" d="M17 44h1v1h-1z"/><path fill="#B2DAB8" d="M18 44h1v1h-1zM19 44h1v1h-1zM20 44h1v1h-1zM21 44h1v1h-1zM22 44h1v1h-1zM23 44h1v1h-1zM24 44h1v1h-1zM25 44h1v1h-1zM26 44h1v1h-1zM27 44h1v1h-1zM28 44h1v1h-1zM29 44h1v1h-1zM30 44h1v1h-1zM31 44h1v1h-1zM32 44h1v1h-1zM33 44h1v1h-1zM34 44h1v1h-1zM35 44h1v1h-1zM36 44h1v1h-1zM37 44h1v1h-1zM38 44h1v1h-1zM39 44h1v1h-1zM40 44h1v1h-1zM41 44h1v1h-1zM42 44h1v1h-1zM43 44h1v1h-1zM44 44h1v1h-1z"/><path fill="#92BC99" d="M45 44h1v1h-1z"/><path fill="#3A6A42" d="M46 44h1v1h-1z"/><path fill="#32623A" d="M47 44h1v1h-1zM48 44h1v1h-1z"/><path fill="#3E6D44" d="M49 44h1v1h-1z"/><path fill="#749F6E" d="M50 44h1v1h-1zM51 44h1v1h-1zM52 44h1v1h-1zM53 44h1v1h-1z"/><path fill="#32623A" d="M54 44h1v1h-1zM55 44h1v1h-1zM56 44h1v1h-1z"/><path fill="#5D724C" d="M57 44h1v1h-1zM58 44h1v1h-1zM59 44h1v1h-1zM60 44h1v1h-1zM61 44h1v1h-1zM62 44h1v1h-1zM63 44h1v1h-1z"/><path fill="#526142" d="M64 44h1v1h-1z"/><path fill="#404531" d="M65 44h1v1h-1z"/><path fill="#2E291F" d="M66 44h1v1h-1z"/><path fill="#231815" d="M67 44h1v1h-1zM68 44h1v1h-1zM69 44h1v1h-1zM70 44h1v1h-1zM71 44h1v1h-1zM72 44h1v1h-1zM73 44h1v1h-1zM74 44h1v1h-1zM75 44h1v1h-1zM10 45h1v1h-1zM11 45h1v1h-1zM12 45h1v1h-1zM13 45h1v1h-1z"/><path fill="#6B9B6A" d="M14 45h1v1h-1z"/><path fill="#5F855C" d="M15 45h1v1h-1z"/><path fill="#6B9B6A" d="M16 45h1v1h-1z"/><path fill="#95CE99" d="M17 45h1v1h-1z"/><path fill="#B2DAB8" d="M18 45h1v1h-1zM19 45h1v1h-1zM20 45h1v1h-1zM21 45h1v1h-1zM22 45h1v1h-1z"/><path fill="#B6DCBC" d="M23 45h1v1h-1z"/><path fill="#C3E2C7" d="M24 45h1v1h-1z"/><path fill="#BADEC0" d="M25 45h1v1h-1z"/><path fill="#B2DAB8" d="M26 45h1v1h-1zM27 45h1v1h-1zM28 45h1v1h-1zM29 45h1v1h-1zM30 45h1v1h-1zM31 45h1v1h-1zM32 45h1v1h-1zM33 45h1v1h-1zM34 45h1v1h-1zM35 45h1v1h-1zM36 45h1v1h-1zM37 45h1v1h-1zM38 45h1v1h-1zM39 45h1v1h-1zM40 45h1v1h-1zM41 45h1v1h-1zM42 45h1v1h-1zM43 45h1v1h-1zM44 45h1v1h-1zM45 45h1v1h-1z"/><path fill="#9AC4A0" d="M46 45h1v1h-1z"/><path fill="#32623A" d="M47 45h1v1h-1zM48 45h1v1h-1zM49 45h1v1h-1z"/><path fill="#5B885B" d="M50 45h1v1h-1z"/><path fill="#749F6E" d="M51 45h1v1h-1zM52 45h1v1h-1z"/><path fill="#5F8C5E" d="M53 45h1v1h-1z"/><path fill="#32623A" d="M54 45h1v1h-1zM55 45h1v1h-1z"/><path fill="#37643C" d="M56 45h1v1h-1z"/><path fill="#5D724C" d="M57 45h1v1h-1zM58 45h1v1h-1zM59 45h1v1h-1z"/><path fill="#526142" d="M60 45h1v1h-1z"/><path fill="#444B34" d="M61 45h1v1h-1z"/><path fill="#353426" d="M62 45h1v1h-1z"/><path fill="#271E18" d="M63 45h1v1h-1z"/><path fill="#231815" d="M64 45h1v1h-1zM65 45h1v1h-1zM66 45h1v1h-1zM67 45h1v1h-1zM68 45h1v1h-1zM69 45h1v1h-1zM70 45h1v1h-1zM71 45h1v1h-1zM72 45h1v1h-1zM11 46h1v1h-1zM12 46h1v1h-1zM13 46h1v1h-1zM14 46h1v1h-1zM15 46h1v1h-1zM16 46h1v1h-1z"/><path fill="#8EB290" d="M17 46h1v1h-1z"/><path fill="#B2DAB8" d="M18 46h1v1h-1zM19 46h1v1h-1z"/><path fill="#B4DBB9" d="M20 46h1v1h-1z"/><path fill="#BBDEBE" d="M21 46h1v1h-1z"/><path fill="#C1E1C4" d="M22 46h1v1h-1z"/><path fill="#F1F8F1" d="M23 46h1v1h-1z"/><path fill="#F5FAF5" d="M24 46h1v1h-1zM25 46h1v1h-1z"/><path fill="#CBE6CE" d="M26 46h1v1h-1z"/><path fill="#B2DAB8" d="M27 46h1v1h-1zM28 46h1v1h-1zM29 46h1v1h-1zM30 46h1v1h-1z"/><path fill="#C3E2C7" d="M31 46h1v1h-1z"/><path fill="#B6DCBC" d="M32 46h1v1h-1z"/><path fill="#B2DAB8" d="M33 46h1v1h-1zM34 46h1v1h-1zM35 46h1v1h-1zM36 46h1v1h-1zM37 46h1v1h-1zM38 46h1v1h-1zM39 46h1v1h-1zM40 46h1v1h-1zM41 46h1v1h-1zM42 46h1v1h-1zM43 46h1v1h-1zM44 46h1v1h-1zM45 46h1v1h-1zM46 46h1v1h-1z"/><path fill="#729E79" d="M47 46h1v1h-1z"/><path fill="#32623A" d="M48 46h1v1h-1zM49 46h1v1h-1z"/><path fill="#47754A" d="M50 46h1v1h-1z"/><path fill="#749F6E" d="M51 46h1v1h-1zM52 46h1v1h-1z"/><path fill="#4B794E" d="M53 46h1v1h-1z"/><path fill="#32623A" d="M54 46h1v1h-1zM55 46h1v1h-1z"/><path fill="#345233" d="M56 46h1v1h-1z"/><path fill="#3C3F2D" d="M57 46h1v1h-1z"/><path fill="#322F23" d="M58 46h1v1h-1z"/><path fill="#231815" d="M59 46h1v1h-1zM60 46h1v1h-1zM61 46h1v1h-1zM62 46h1v1h-1zM63 46h1v1h-1zM64 46h1v1h-1zM65 46h1v1h-1zM66 46h1v1h-1zM67 46h1v1h-1zM68 46h1v1h-1zM69 46h1v1h-1zM70 46h1v1h-1zM11 47h1v1h-1zM12 47h1v1h-1zM13 47h1v1h-1zM14 47h1v1h-1zM15 47h1v1h-1zM16 47h1v1h-1z"/><path fill="#9EB199" d="M17 47h1v1h-1z"/><path fill="#CDE6C9" d="M18 47h1v1h-1z"/><path fill="#D6EACE" d="M19 47h1v1h-1zM20 47h1v1h-1zM21 47h1v1h-1z"/><path fill="#E4F1DF" d="M22 47h1v1h-1z"/><path fill="#F5FAF5" d="M23 47h1v1h-1zM24 47h1v1h-1zM25 47h1v1h-1z"/><path fill="#EDF6EB" d="M26 47h1v1h-1z"/><path fill="#D6EACE" d="M27 47h1v1h-1z"/><path fill="#D2E8CB" d="M28 47h1v1h-1z"/><path fill="#CDE6CA" d="M29 47h1v1h-1z"/><path fill="#E8F4EA" d="M30 47h1v1h-1z"/><path fill="#F5FAF5" d="M31 47h1v1h-1z"/><path fill="#F1F8F1" d="M32 47h1v1h-1z"/><path fill="#BFE0C3" d="M33 47h1v1h-1z"/><path fill="#B2DAB8" d="M34 47h1v1h-1zM35 47h1v1h-1zM36 47h1v1h-1zM37 47h1v1h-1zM38 47h1v1h-1zM39 47h1v1h-1zM40 47h1v1h-1zM41 47h1v1h-1zM42 47h1v1h-1zM43 47h1v1h-1zM44 47h1v1h-1zM45 47h1v1h-1zM46 47h1v1h-1z"/><path fill="#A2CBA8" d="M47 47h1v1h-1z"/><path fill="#32623A" d="M48 47h1v1h-1zM49 47h1v1h-1zM50 47h1v1h-1z"/><path fill="#709B6B" d="M51 47h1v1h-1z"/><path fill="#689464" d="M52 47h1v1h-1z"/><path fill="#32623A" d="M53 47h1v1h-1zM54 47h1v1h-1zM55 47h1v1h-1z"/><path fill="#272B1E" d="M56 47h1v1h-1z"/><path fill="#231815" d="M57 47h1v1h-1zM58 47h1v1h-1zM59 47h1v1h-1zM60 47h1v1h-1zM61 47h1v1h-1zM62 47h1v1h-1zM63 47h1v1h-1zM64 47h1v1h-1zM65 47h1v1h-1zM66 47h1v1h-1zM67 47h1v1h-1zM10 48h1v1h-1zM11 48h1v1h-1zM12 48h1v1h-1zM13 48h1v1h-1zM14 48h1v1h-1zM15 48h1v1h-1z"/><path fill="#7D8172" d="M16 48h1v1h-1z"/><path fill="#D6EACE" d="M17 48h1v1h-1zM18 48h1v1h-1zM19 48h1v1h-1zM20 48h1v1h-1zM21 48h1v1h-1z"/><path fill="#EBF5E9" d="M22 48h1v1h-1z"/><path fill="#F5FAF5" d="M23 48h1v1h-1zM24 48h1v1h-1zM25 48h1v1h-1z"/><path fill="#EFF7EE" d="M26 48h1v1h-1z"/><path fill="#DEEED8" d="M27 48h1v1h-1z"/><path fill="#DAECD3" d="M28 48h1v1h-1z"/><path fill="#E4F1DF" d="M29 48h1v1h-1z"/><path fill="#F5FAF5" d="M30 48h1v1h-1zM31 48h1v1h-1zM32 48h1v1h-1z"/><path fill="#E0F0E2" d="M33 48h1v1h-1z"/><path fill="#B2DAB8" d="M34 48h1v1h-1zM35 48h1v1h-1zM36 48h1v1h-1zM37 48h1v1h-1zM38 48h1v1h-1zM39 48h1v1h-1zM40 48h1v1h-1zM41 48h1v1h-1zM42 48h1v1h-1zM43 48h1v1h-1zM44 48h1v1h-1zM45 48h1v1h-1zM46 48h1v1h-1z"/><path fill="#AFD9B5" d="M47 48h1v1h-1z"/><path fill="#417548" d="M48 48h1v1h-1z"/><path fill="#32623A" d="M49 48h1v1h-1zM50 48h1v1h-1z"/><path fill="#5B885B" d="M51 48h1v1h-1z"/><path fill="#437147" d="M52 48h1v1h-1z"/><path fill="#32623A" d="M53 48h1v1h-1zM54 48h1v1h-1z"/><path fill="#2E5031" d="M55 48h1v1h-1z"/><path fill="#231815" d="M56 48h1v1h-1zM57 48h1v1h-1zM58 48h1v1h-1zM59 48h1v1h-1zM60 48h1v1h-1zM61 48h1v1h-1zM62 48h1v1h-1zM63 48h1v1h-1zM9 49h1v1H9zM10 49h1v1h-1zM11 49h1v1h-1zM12 49h1v1h-1zM13 49h1v1h-1z"/><path fill="#453F38" d="M14 49h1v1h-1z"/><path fill="#B4C3AB" d="M15 49h1v1h-1z"/><path fill="#D6EACE" d="M16 49h1v1h-1zM17 49h1v1h-1z"/><path fill="#DBEDD4" d="M18 49h1v1h-1z"/><path fill="#EBF5E7" d="M19 49h1v1h-1z"/><path fill="#E4F1DF" d="M20 49h1v1h-1z"/><path fill="#EDF6EB" d="M21 49h1v1h-1z"/><path fill="#F5FAF5" d="M22 49h1v1h-1zM23 49h1v1h-1zM24 49h1v1h-1zM25 49h1v1h-1zM26 49h1v1h-1zM27 49h1v1h-1zM28 49h1v1h-1zM29 49h1v1h-1zM30 49h1v1h-1zM31 49h1v1h-1zM32 49h1v1h-1z"/><path fill="#EBF5E9" d="M33 49h1v1h-1z"/><path fill="#CDE6C9" d="M34 49h1v1h-1z"/><path fill="#B7DCBB" d="M35 49h1v1h-1z"/><path fill="#B2DAB8" d="M36 49h1v1h-1zM37 49h1v1h-1zM38 49h1v1h-1zM39 49h1v1h-1zM40 49h1v1h-1zM41 49h1v1h-1zM42 49h1v1h-1zM43 49h1v1h-1zM44 49h1v1h-1zM45 49h1v1h-1zM46 49h1v1h-1z"/><path fill="#A6D5AC" d="M47 49h1v1h-1z"/><path fill="#558E5B" d="M48 49h1v1h-1z"/><path fill="#32623A" d="M49 49h1v1h-1zM50 49h1v1h-1z"/><path fill="#36663D" d="M51 49h1v1h-1z"/><path fill="#32623A" d="M52 49h1v1h-1zM53 49h1v1h-1zM54 49h1v1h-1z"/><path fill="#272B1E" d="M55 49h1v1h-1z"/><path fill="#231815" d="M56 49h1v1h-1zM57 49h1v1h-1zM58 49h1v1h-1zM59 49h1v1h-1zM7 50h1v1H7zM8 50h1v1H8zM9 50h1v1H9zM10 50h1v1h-1zM11 50h1v1h-1zM12 50h1v1h-1z"/><path fill="#7D8172" d="M13 50h1v1h-1z"/><path fill="#D6EACE" d="M14 50h1v1h-1zM15 50h1v1h-1zM16 50h1v1h-1z"/><path fill="#DBEDD4" d="M17 50h1v1h-1z"/><path fill="#FCFEFC" d="M18 50h1v1h-1z"/><path fill="#FFF" d="M19 50h1v1h-1zM20 50h1v1h-1z"/><path fill="#FAFDFA" d="M21 50h1v1h-1z"/><path fill="#F5FAF5" d="M22 50h1v1h-1zM23 50h1v1h-1zM24 50h1v1h-1zM25 50h1v1h-1zM26 50h1v1h-1zM27 50h1v1h-1zM28 50h1v1h-1zM29 50h1v1h-1zM30 50h1v1h-1zM31 50h1v1h-1zM32 50h1v1h-1z"/><path fill="#E2F0DD" d="M33 50h1v1h-1z"/><path fill="#D6EACE" d="M34 50h1v1h-1z"/><path fill="#D4E9CD" d="M35 50h1v1h-1z"/><path fill="#BDDFBF" d="M36 50h1v1h-1z"/><path fill="#B2DAB8" d="M37 50h1v1h-1zM38 50h1v1h-1zM39 50h1v1h-1zM40 50h1v1h-1zM41 50h1v1h-1zM42 50h1v1h-1zM43 50h1v1h-1zM44 50h1v1h-1zM45 50h1v1h-1zM46 50h1v1h-1z"/><path fill="#A6D5AC" d="M47 50h1v1h-1z"/><path fill="#74B378" d="M48 50h1v1h-1z"/><path fill="#32623A" d="M49 50h1v1h-1zM50 50h1v1h-1zM51 50h1v1h-1zM52 50h1v1h-1zM53 50h1v1h-1z"/><path fill="#2C462C" d="M54 50h1v1h-1z"/><path fill="#231815" d="M55 50h1v1h-1zM56 50h1v1h-1zM57 50h1v1h-1zM6 51h1v1H6zM7 51h1v1H7zM8 51h1v1H8zM9 51h1v1H9zM10 51h1v1h-1z"/><path fill="#453F38" d="M11 51h1v1h-1z"/><path fill="#B4C3AB" d="M12 51h1v1h-1z"/><path fill="#D6EACE" d="M13 51h1v1h-1zM14 51h1v1h-1zM15 51h1v1h-1z"/><path fill="#DEEED8" d="M16 51h1v1h-1z"/><path fill="#F4FAF3" d="M17 51h1v1h-1z"/><path fill="#FFF" d="M18 51h1v1h-1zM19 51h1v1h-1zM20 51h1v1h-1z"/><path fill="#FDFEFD" d="M21 51h1v1h-1z"/><path fill="#F5FAF5" d="M22 51h1v1h-1zM23 51h1v1h-1zM24 51h1v1h-1zM25 51h1v1h-1zM26 51h1v1h-1zM27 51h1v1h-1zM28 51h1v1h-1zM29 51h1v1h-1zM30 51h1v1h-1zM31 51h1v1h-1zM32 51h1v1h-1z"/><path fill="#F3F9F3" d="M33 51h1v1h-1z"/><path fill="#DAECD3" d="M34 51h1v1h-1z"/><path fill="#D6EACE" d="M35 51h1v1h-1zM36 51h1v1h-1z"/><path fill="#B9DDBC" d="M37 51h1v1h-1z"/><path fill="#B2DAB8" d="M38 51h1v1h-1zM39 51h1v1h-1zM40 51h1v1h-1zM41 51h1v1h-1zM42 51h1v1h-1zM43 51h1v1h-1zM44 51h1v1h-1zM45 51h1v1h-1zM46 51h1v1h-1z"/><path fill="#9DD1A2" d="M47 51h1v1h-1z"/><path fill="#83C686" d="M48 51h1v1h-1z"/><path fill="#37683F" d="M49 51h1v1h-1z"/><path fill="#32623A" d="M50 51h1v1h-1zM51 51h1v1h-1zM52 51h1v1h-1zM53 51h1v1h-1z"/><path fill="#26281D" d="M54 51h1v1h-1z"/><path fill="#231815" d="M55 51h1v1h-1zM56 51h1v1h-1zM57 51h1v1h-1zM58 51h1v1h-1zM5 52h1v1H5zM6 52h1v1H6zM7 52h1v1H7zM8 52h1v1H8zM9 52h1v1H9z"/><path fill="#717466" d="M10 52h1v1h-1z"/><path fill="#D6EACE" d="M11 52h1v1h-1zM12 52h1v1h-1zM13 52h1v1h-1z"/><path fill="#DEEED8" d="M14 52h1v1h-1z"/><path fill="#EDF6EB" d="M15 52h1v1h-1z"/><path fill="#F5FAF5" d="M16 52h1v1h-1z"/><path fill="#F8FBF8" d="M17 52h1v1h-1z"/><path fill="#FFF" d="M18 52h1v1h-1zM19 52h1v1h-1zM20 52h1v1h-1z"/><path fill="#FBFDFB" d="M21 52h1v1h-1z"/><path fill="#F5FAF5" d="M22 52h1v1h-1zM23 52h1v1h-1zM24 52h1v1h-1zM25 52h1v1h-1zM26 52h1v1h-1zM27 52h1v1h-1zM28 52h1v1h-1zM29 52h1v1h-1zM30 52h1v1h-1zM31 52h1v1h-1zM32 52h1v1h-1zM33 52h1v1h-1z"/><path fill="#E9F4E6" d="M34 52h1v1h-1z"/><path fill="#D6EACE" d="M35 52h1v1h-1zM36 52h1v1h-1z"/><path fill="#D2E8CB" d="M37 52h1v1h-1z"/><path fill="#B4DBB9" d="M38 52h1v1h-1z"/><path fill="#B2DAB8" d="M39 52h1v1h-1zM40 52h1v1h-1zM41 52h1v1h-1zM42 52h1v1h-1zM43 52h1v1h-1zM44 52h1v1h-1zM45 52h1v1h-1zM46 52h1v1h-1z"/><path fill="#95CE99" d="M47 52h1v1h-1z"/><path fill="#83C686" d="M48 52h1v1h-1z"/><path fill="#4B8152" d="M49 52h1v1h-1z"/><path fill="#32623A" d="M50 52h1v1h-1zM51 52h1v1h-1zM52 52h1v1h-1zM53 52h1v1h-1z"/><path fill="#231815" d="M54 52h1v1h-1zM55 52h1v1h-1zM56 52h1v1h-1zM57 52h1v1h-1zM58 52h1v1h-1zM59 52h1v1h-1zM4 53h1v1H4zM5 53h1v1H5zM6 53h1v1H6zM7 53h1v1H7z"/><path fill="#2E2521" d="M8 53h1v1H8z"/><path fill="#A9B6A0" d="M9 53h1v1H9z"/><path fill="#D6EACE" d="M10 53h1v1h-1zM11 53h1v1h-1z"/><path fill="#DEEED8" d="M12 53h1v1h-1z"/><path fill="#EEF6EC" d="M13 53h1v1h-1z"/><path fill="#FCFDFC" d="M14 53h1v1h-1z"/><path fill="#FFF" d="M15 53h1v1h-1z"/><path fill="#FCFDFC" d="M16 53h1v1h-1z"/><path fill="#F6FAF6" d="M17 53h1v1h-1z"/><path fill="#FAFDFA" d="M18 53h1v1h-1z"/><path fill="#FDFEFD" d="M19 53h1v1h-1z"/><path fill="#FBFDFB" d="M20 53h1v1h-1z"/><path fill="#F6FAF6" d="M21 53h1v1h-1z"/><path fill="#F5FAF5" d="M22 53h1v1h-1z"/><path fill="#F8FCF8" d="M23 53h1v1h-1z"/><path fill="#FDFEFD" d="M24 53h1v1h-1z"/><path fill="#FAFDFA" d="M25 53h1v1h-1z"/><path fill="#F6FAF6" d="M26 53h1v1h-1z"/><path fill="#F5FAF5" d="M27 53h1v1h-1zM28 53h1v1h-1zM29 53h1v1h-1zM30 53h1v1h-1zM31 53h1v1h-1zM32 53h1v1h-1zM33 53h1v1h-1z"/><path fill="#F3F9F3" d="M34 53h1v1h-1z"/><path fill="#E6F2E2" d="M35 53h1v1h-1z"/><path fill="#DEEED8" d="M36 53h1v1h-1z"/><path fill="#D6EACE" d="M37 53h1v1h-1z"/><path fill="#C2E1C2" d="M38 53h1v1h-1z"/><path fill="#B2DAB8" d="M39 53h1v1h-1zM40 53h1v1h-1zM41 53h1v1h-1zM42 53h1v1h-1zM43 53h1v1h-1zM44 53h1v1h-1zM45 53h1v1h-1zM46 53h1v1h-1z"/><path fill="#89C98C" d="M47 53h1v1h-1z"/><path fill="#83C686" d="M48 53h1v1h-1z"/><path fill="#609A65" d="M49 53h1v1h-1z"/><path fill="#32623A" d="M50 53h1v1h-1zM51 53h1v1h-1zM52 53h1v1h-1zM53 53h1v1h-1z"/><path fill="#231815" d="M55 53h1v1h-1zM56 53h1v1h-1zM57 53h1v1h-1zM58 53h1v1h-1zM59 53h1v1h-1zM60 53h1v1h-1zM3 54h1v1H3zM4 54h1v1H4zM5 54h1v1H5zM6 54h1v1H6z"/><path fill="#453F38" d="M7 54h1v1H7z"/><path fill="#CBDDC2" d="M8 54h1v1H8z"/><path fill="#D6EACE" d="M9 54h1v1H9z"/><path fill="#D8EBD0" d="M10 54h1v1h-1z"/><path fill="#EBF5E9" d="M11 54h1v1h-1z"/><path fill="#F5FAF5" d="M12 54h1v1h-1z"/><path fill="#FAFDFA" d="M13 54h1v1h-1z"/><path fill="#FFF" d="M14 54h1v1h-1zM15 54h1v1h-1zM16 54h1v1h-1z"/><path fill="#F9FCF9" d="M17 54h1v1h-1z"/><path fill="#F5FAF5" d="M18 54h1v1h-1zM19 54h1v1h-1zM20 54h1v1h-1zM21 54h1v1h-1z"/><path fill="#F8FBF8" d="M22 54h1v1h-1z"/><path fill="#FFF" d="M23 54h1v1h-1zM24 54h1v1h-1zM25 54h1v1h-1z"/><path fill="#FBFDFB" d="M26 54h1v1h-1z"/><path fill="#F5FAF5" d="M27 54h1v1h-1zM28 54h1v1h-1zM29 54h1v1h-1zM30 54h1v1h-1zM31 54h1v1h-1zM32 54h1v1h-1zM33 54h1v1h-1zM34 54h1v1h-1zM35 54h1v1h-1zM36 54h1v1h-1z"/><path fill="#E2F0DD" d="M37 54h1v1h-1z"/><path fill="#CFE7CA" d="M38 54h1v1h-1z"/><path fill="#B2DAB8" d="M39 54h1v1h-1zM40 54h1v1h-1zM41 54h1v1h-1zM42 54h1v1h-1zM43 54h1v1h-1zM44 54h1v1h-1zM45 54h1v1h-1z"/><path fill="#A9D6AF" d="M46 54h1v1h-1z"/><path fill="#83C686" d="M47 54h1v1h-1zM48 54h1v1h-1z"/><path fill="#6FAD73" d="M49 54h1v1h-1z"/><path fill="#2F5433" d="M50 54h1v1h-1z"/><path fill="#272B1E" d="M51 54h1v1h-1z"/><path fill="#293423" d="M52 54h1v1h-1z"/><path fill="#32623A" d="M53 54h1v1h-1z"/><path fill="#231815" d="M56 54h1v1h-1zM57 54h1v1h-1zM58 54h1v1h-1zM59 54h1v1h-1zM60 54h1v1h-1zM61 54h1v1h-1zM2 55h1v1H2zM3 55h1v1H3zM4 55h1v1H4zM5 55h1v1H5z"/><path fill="#66675A" d="M6 55h1v1H6z"/><path fill="#CBDDC2" d="M7 55h1v1H7z"/><path fill="#D6EACE" d="M8 55h1v1H8z"/><path fill="#E0EFDA" d="M9 55h1v1H9z"/><path fill="#F3F9F3" d="M10 55h1v1h-1z"/><path fill="#F5FAF5" d="M11 55h1v1h-1zM12 55h1v1h-1z"/><path fill="#FAFDFA" d="M13 55h1v1h-1z"/><path fill="#FFF" d="M14 55h1v1h-1zM15 55h1v1h-1zM16 55h1v1h-1z"/><path fill="#FAFDFA" d="M17 55h1v1h-1z"/><path fill="#F5FAF5" d="M18 55h1v1h-1zM19 55h1v1h-1zM20 55h1v1h-1zM21 55h1v1h-1z"/><path fill="#FAFDFA" d="M22 55h1v1h-1z"/><path fill="#FFF" d="M23 55h1v1h-1zM24 55h1v1h-1zM25 55h1v1h-1z"/><path fill="#FDFEFD" d="M26 55h1v1h-1z"/><path fill="#F5FAF5" d="M27 55h1v1h-1zM28 55h1v1h-1zM29 55h1v1h-1zM30 55h1v1h-1zM31 55h1v1h-1zM32 55h1v1h-1zM33 55h1v1h-1zM34 55h1v1h-1zM35 55h1v1h-1zM36 55h1v1h-1z"/><path fill="#EDF6EB" d="M37 55h1v1h-1z"/><path fill="#D6EACE" d="M38 55h1v1h-1z"/><path fill="#B2DAB8" d="M39 55h1v1h-1zM40 55h1v1h-1zM41 55h1v1h-1zM42 55h1v1h-1zM43 55h1v1h-1zM44 55h1v1h-1zM45 55h1v1h-1z"/><path fill="#98CF9C" d="M46 55h1v1h-1z"/><path fill="#83C686" d="M47 55h1v1h-1zM48 55h1v1h-1z"/><path fill="#6FAC71" d="M49 55h1v1h-1z"/><path fill="#272B1E" d="M50 55h1v1h-1z"/><path fill="#231815" d="M51 55h1v1h-1zM52 55h1v1h-1z"/><path fill="#283121" d="M53 55h1v1h-1z"/><path fill="#231815" d="M57 55h1v1h-1zM58 55h1v1h-1zM59 55h1v1h-1zM60 55h1v1h-1zM61 55h1v1h-1zM62 55h1v1h-1zM1 56h1v1H1zM2 56h1v1H2zM3 56h1v1H3zM4 56h1v1H4z"/><path fill="#66675A" d="M5 56h1v1H5z"/><path fill="#D6EACE" d="M6 56h1v1H6zM7 56h1v1H7z"/><path fill="#E2F0DD" d="M8 56h1v1H8z"/><path fill="#F5FAF5" d="M9 56h1v1H9zM10 56h1v1h-1zM11 56h1v1h-1zM12 56h1v1h-1z"/><path fill="#F7FBF7" d="M13 56h1v1h-1z"/><path fill="#FEFFFE" d="M14 56h1v1h-1z"/><path fill="#FFF" d="M15 56h1v1h-1z"/><path fill="#FEFFFE" d="M16 56h1v1h-1z"/><path fill="#F7FBF7" d="M17 56h1v1h-1z"/><path fill="#F5FAF5" d="M18 56h1v1h-1zM19 56h1v1h-1zM20 56h1v1h-1zM21 56h1v1h-1z"/><path fill="#F7FBF7" d="M22 56h1v1h-1z"/><path fill="#FFF" d="M23 56h1v1h-1zM24 56h1v1h-1zM25 56h1v1h-1z"/><path fill="#FAFDFA" d="M26 56h1v1h-1z"/><path fill="#F5FAF5" d="M27 56h1v1h-1zM28 56h1v1h-1zM29 56h1v1h-1zM30 56h1v1h-1zM31 56h1v1h-1zM32 56h1v1h-1zM33 56h1v1h-1zM34 56h1v1h-1zM35 56h1v1h-1zM36 56h1v1h-1z"/><path fill="#E9F4E6" d="M37 56h1v1h-1z"/><path fill="#D6EACE" d="M38 56h1v1h-1z"/><path fill="#B2DAB8" d="M39 56h1v1h-1zM40 56h1v1h-1zM41 56h1v1h-1zM42 56h1v1h-1zM43 56h1v1h-1zM44 56h1v1h-1zM45 56h1v1h-1z"/><path fill="#86C789" d="M46 56h1v1h-1z"/><path fill="#83C686" d="M47 56h1v1h-1zM48 56h1v1h-1z"/><path fill="#5E955E" d="M49 56h1v1h-1z"/><path fill="#272B1E" d="M50 56h1v1h-1z"/><path fill="#231815" d="M51 56h1v1h-1zM52 56h1v1h-1zM53 56h1v1h-1zM58 56h1v1h-1zM59 56h1v1h-1zM60 56h1v1h-1zM61 56h1v1h-1zM62 56h1v1h-1zM63 56h1v1h-1zM64 56h1v1h-1zM1 57h1v1H1zM2 57h1v1H2zM3 57h1v1H3z"/><path fill="#453F38" d="M4 57h1v1H4z"/><path fill="#D6EACE" d="M5 57h1v1H5zM6 57h1v1H6z"/><path fill="#D8EBD0" d="M7 57h1v1H7z"/><path fill="#F3F9F3" d="M8 57h1v1H8z"/><path fill="#F5FAF5" d="M9 57h1v1H9zM10 57h1v1h-1z"/><path fill="#FAFDFA" d="M11 57h1v1h-1z"/><path fill="#FDFEFD" d="M12 57h1v1h-1z"/><path fill="#FCFDFC" d="M13 57h1v1h-1z"/><path fill="#F8FCF8" d="M14 57h1v1h-1z"/><path fill="#F8FBF8" d="M15 57h1v1h-1z"/><path fill="#F6FBF6" d="M16 57h1v1h-1z"/><path fill="#F5FAF5" d="M17 57h1v1h-1z"/><path fill="#F6FAF6" d="M18 57h1v1h-1z"/><path fill="#FCFDFC" d="M19 57h1v1h-1z"/><path fill="#FFF" d="M20 57h1v1h-1z"/><path fill="#FCFDFC" d="M21 57h1v1h-1z"/><path fill="#F6FAF6" d="M22 57h1v1h-1z"/><path fill="#F8FBF8" d="M23 57h1v1h-1z"/><path fill="#FAFDFA" d="M24 57h1v1h-1z"/><path fill="#F9FCF9" d="M25 57h1v1h-1z"/><path fill="#F5FAF5" d="M26 57h1v1h-1zM27 57h1v1h-1zM28 57h1v1h-1zM29 57h1v1h-1zM30 57h1v1h-1z"/><path fill="#EFF7EE" d="M31 57h1v1h-1z"/><path fill="#E9F4E6" d="M32 57h1v1h-1z"/><path fill="#F1F8F0" d="M33 57h1v1h-1z"/><path fill="#EBF5E9" d="M34 57h1v1h-1z"/><path fill="#EDF6EB" d="M35 57h1v1h-1z"/><path fill="#E9F4E6" d="M36 57h1v1h-1z"/><path fill="#D8EBD0" d="M37 57h1v1h-1z"/><path fill="#D6EACE" d="M38 57h1v1h-1z"/><path fill="#B2DAB8" d="M39 57h1v1h-1zM40 57h1v1h-1zM41 57h1v1h-1zM42 57h1v1h-1zM43 57h1v1h-1zM44 57h1v1h-1z"/><path fill="#A0D3A5" d="M45 57h1v1h-1z"/><path fill="#83C686" d="M46 57h1v1h-1zM47 57h1v1h-1z"/><path fill="#7FC182" d="M48 57h1v1h-1z"/><path fill="#4B7D4A" d="M49 57h1v1h-1z"/><path fill="#25211A" d="M50 57h1v1h-1z"/><path fill="#231815" d="M51 57h1v1h-1zM52 57h1v1h-1zM53 57h1v1h-1zM59 57h1v1h-1zM60 57h1v1h-1zM61 57h1v1h-1zM62 57h1v1h-1zM63 57h1v1h-1zM64 57h1v1h-1zM65 57h1v1h-1zM0 58h1v1H0zM1 58h1v1H1zM2 58h1v1H2z"/><path fill="#2E2521" d="M3 58h1v1H3z"/><path fill="#C0D0B7" d="M4 58h1v1H4z"/><path fill="#D6EACE" d="M5 58h1v1H5zM6 58h1v1H6z"/><path fill="#DEEED8" d="M7 58h1v1H7z"/><path fill="#F5FAF5" d="M8 58h1v1H8zM9 58h1v1H9z"/><path fill="#F7FBF7" d="M10 58h1v1h-1z"/><path fill="#FFF" d="M11 58h1v1h-1zM12 58h1v1h-1zM13 58h1v1h-1z"/><path fill="#FCFDFC" d="M14 58h1v1h-1z"/><path fill="#F5FAF5" d="M15 58h1v1h-1zM16 58h1v1h-1zM17 58h1v1h-1z"/><path fill="#F9FCF9" d="M18 58h1v1h-1z"/><path fill="#FFF" d="M19 58h1v1h-1zM20 58h1v1h-1zM21 58h1v1h-1z"/><path fill="#FBFDFB" d="M22 58h1v1h-1z"/><path fill="#F5FAF5" d="M23 58h1v1h-1zM24 58h1v1h-1zM25 58h1v1h-1zM26 58h1v1h-1zM27 58h1v1h-1zM28 58h1v1h-1zM29 58h1v1h-1z"/><path fill="#EBF5E9" d="M30 58h1v1h-1z"/><path fill="#D6EACE" d="M31 58h1v1h-1zM32 58h1v1h-1z"/><path fill="#D8EBD0" d="M33 58h1v1h-1z"/><path fill="#D6EACE" d="M34 58h1v1h-1zM35 58h1v1h-1zM36 58h1v1h-1zM37 58h1v1h-1z"/><path fill="#CDE6C9" d="M38 58h1v1h-1z"/><path fill="#B2DAB8" d="M39 58h1v1h-1zM40 58h1v1h-1zM41 58h1v1h-1zM42 58h1v1h-1zM43 58h1v1h-1zM44 58h1v1h-1z"/><path fill="#8CCA8F" d="M45 58h1v1h-1z"/><path fill="#83C686" d="M46 58h1v1h-1zM47 58h1v1h-1z"/><path fill="#6DA96E" d="M48 58h1v1h-1z"/><path fill="#457243" d="M49 58h1v1h-1z"/><path fill="#231815" d="M50 58h1v1h-1zM51 58h1v1h-1zM52 58h1v1h-1zM60 58h1v1h-1zM61 58h1v1h-1zM62 58h1v1h-1zM63 58h1v1h-1zM64 58h1v1h-1zM65 58h1v1h-1zM66 58h1v1h-1zM67 58h1v1h-1zM68 58h1v1h-1zM0 59h1v1H0zM1 59h1v1H1zM2 59h1v1H2z"/><path fill="#717466" d="M3 59h1v1H3z"/><path fill="#D6EACE" d="M4 59h1v1H4zM5 59h1v1H5zM6 59h1v1H6z"/><path fill="#D8EBD0" d="M7 59h1v1H7z"/><path fill="#F5FAF5" d="M8 59h1v1H8zM9 59h1v1H9z"/><path fill="#F8FBF8" d="M10 59h1v1h-1z"/><path fill="#FFF" d="M11 59h1v1h-1zM12 59h1v1h-1zM13 59h1v1h-1z"/><path fill="#FDFEFD" d="M14 59h1v1h-1z"/><path fill="#F5FAF5" d="M15 59h1v1h-1zM16 59h1v1h-1zM17 59h1v1h-1z"/><path fill="#FAFDFA" d="M18 59h1v1h-1z"/><path fill="#FFF" d="M19 59h1v1h-1zM20 59h1v1h-1zM21 59h1v1h-1z"/><path fill="#FBFDFB" d="M22 59h1v1h-1z"/><path fill="#F5FAF5" d="M23 59h1v1h-1zM24 59h1v1h-1zM25 59h1v1h-1zM26 59h1v1h-1zM27 59h1v1h-1zM28 59h1v1h-1zM29 59h1v1h-1z"/><path fill="#DEEED8" d="M30 59h1v1h-1z"/><path fill="#D6EACE" d="M31 59h1v1h-1zM32 59h1v1h-1zM33 59h1v1h-1zM34 59h1v1h-1zM35 59h1v1h-1zM36 59h1v1h-1zM37 59h1v1h-1z"/><path fill="#C2E1C2" d="M38 59h1v1h-1z"/><path fill="#B2DAB8" d="M39 59h1v1h-1zM40 59h1v1h-1zM41 59h1v1h-1zM42 59h1v1h-1zM43 59h1v1h-1z"/><path fill="#9DC9A1" d="M44 59h1v1h-1z"/><path fill="#71A571" d="M45 59h1v1h-1z"/><path fill="#83C686" d="M46 59h1v1h-1zM47 59h1v1h-1z"/><path fill="#4F824E" d="M48 59h1v1h-1z"/><path fill="#3A5434" d="M49 59h1v1h-1z"/><path fill="#231815" d="M50 59h1v1h-1zM51 59h1v1h-1z"/><path fill="#25221A" d="M52 59h1v1h-1z"/><path fill="#231815" d="M62 59h1v1h-1zM63 59h1v1h-1zM64 59h1v1h-1zM65 59h1v1h-1zM66 59h1v1h-1zM67 59h1v1h-1zM68 59h1v1h-1zM69 59h1v1h-1zM0 60h1v1H0zM1 60h1v1H1zM2 60h1v1H2z"/><path fill="#A9B6A0" d="M3 60h1v1H3z"/><path fill="#D6EACE" d="M4 60h1v1H4zM5 60h1v1H5zM6 60h1v1H6z"/><path fill="#E6F2E2" d="M7 60h1v1H7z"/><path fill="#F5FAF5" d="M8 60h1v1H8zM9 60h1v1H9z"/><path fill="#F6FAF6" d="M10 60h1v1h-1z"/><path fill="#FEFFFE" d="M11 60h1v1h-1z"/><path fill="#FFF" d="M12 60h1v1h-1zM13 60h1v1h-1z"/><path fill="#FAFDFA" d="M14 60h1v1h-1z"/><path fill="#F5FAF5" d="M15 60h1v1h-1zM16 60h1v1h-1zM17 60h1v1h-1z"/><path fill="#F7FBF7" d="M18 60h1v1h-1z"/><path fill="#FEFFFE" d="M19 60h1v1h-1z"/><path fill="#FFF" d="M20 60h1v1h-1zM21 60h1v1h-1z"/><path fill="#F8FBF8" d="M22 60h1v1h-1z"/><path fill="#F5FAF5" d="M23 60h1v1h-1zM24 60h1v1h-1zM25 60h1v1h-1zM26 60h1v1h-1zM27 60h1v1h-1zM28 60h1v1h-1zM29 60h1v1h-1z"/><path fill="#E2F0DD" d="M30 60h1v1h-1z"/><path fill="#D6EACE" d="M31 60h1v1h-1zM32 60h1v1h-1zM33 60h1v1h-1zM34 60h1v1h-1zM35 60h1v1h-1zM36 60h1v1h-1z"/><path fill="#D4E9CD" d="M37 60h1v1h-1z"/><path fill="#B4DBB9" d="M38 60h1v1h-1z"/><path fill="#B2DAB8" d="M39 60h1v1h-1zM40 60h1v1h-1zM41 60h1v1h-1zM42 60h1v1h-1zM43 60h1v1h-1z"/><path fill="#2C241F" d="M44 60h1v1h-1z"/><path fill="#231815" d="M45 60h1v1h-1z"/><path fill="#4D6446" d="M46 60h1v1h-1z"/><path fill="#6DA96E" d="M47 60h1v1h-1z"/><path fill="#477846" d="M48 60h1v1h-1z"/><path fill="#2C3021" d="M49 60h1v1h-1z"/><path fill="#231815" d="M50 60h1v1h-1zM51 60h1v1h-1zM52 60h1v1h-1zM63 60h1v1h-1zM64 60h1v1h-1zM65 60h1v1h-1zM66 60h1v1h-1zM67 60h1v1h-1zM68 60h1v1h-1zM69 60h1v1h-1zM0 61h1v1H0zM1 61h1v1H1zM2 61h1v1H2z"/><path fill="#717466" d="M3 61h1v1H3z"/><path fill="#D6EACE" d="M4 61h1v1H4zM5 61h1v1H5zM6 61h1v1H6z"/><path fill="#EDF6EB" d="M7 61h1v1H7z"/><path fill="#F5FAF5" d="M8 61h1v1H8zM9 61h1v1H9zM10 61h1v1h-1z"/><path fill="#F6FAF6" d="M11 61h1v1h-1z"/><path fill="#F9FCF9" d="M12 61h1v1h-1z"/><path fill="#F8FCF8" d="M13 61h1v1h-1z"/><path fill="#F5FAF5" d="M14 61h1v1h-1zM15 61h1v1h-1zM16 61h1v1h-1zM17 61h1v1h-1zM18 61h1v1h-1z"/><path fill="#F6FBF6" d="M19 61h1v1h-1z"/><path fill="#F8FBF8" d="M20 61h1v1h-1z"/><path fill="#F6FBF6" d="M21 61h1v1h-1z"/><path fill="#F5FAF5" d="M22 61h1v1h-1zM23 61h1v1h-1zM24 61h1v1h-1zM25 61h1v1h-1zM26 61h1v1h-1zM27 61h1v1h-1zM28 61h1v1h-1zM29 61h1v1h-1z"/><path fill="#F3F9F3" d="M30 61h1v1h-1z"/><path fill="#DEEED8" d="M31 61h1v1h-1z"/><path fill="#D6EACE" d="M32 61h1v1h-1zM33 61h1v1h-1zM34 61h1v1h-1zM35 61h1v1h-1zM36 61h1v1h-1z"/><path fill="#C2E1C2" d="M37 61h1v1h-1z"/><path fill="#B2DAB8" d="M38 61h1v1h-1zM39 61h1v1h-1zM40 61h1v1h-1zM41 61h1v1h-1zM42 61h1v1h-1z"/><path fill="#8EAA8F" d="M43 61h1v1h-1z"/><path fill="#231815" d="M44 61h1v1h-1zM45 61h1v1h-1z"/><path fill="#35392A" d="M46 61h1v1h-1z"/><path fill="#415E3C" d="M47 61h1v1h-1z"/><path fill="#2C3021" d="M48 61h1v1h-1z"/><path fill="#231815" d="M49 61h1v1h-1zM50 61h1v1h-1zM51 61h1v1h-1zM52 61h1v1h-1zM65 61h1v1h-1zM66 61h1v1h-1zM67 61h1v1h-1zM68 61h1v1h-1zM69 61h1v1h-1zM0 62h1v1H0zM1 62h1v1H1zM2 62h1v1H2zM3 62h1v1H3z"/><path fill="#B4C3AB" d="M4 62h1v1H4z"/><path fill="#D6EACE" d="M5 62h1v1H5zM6 62h1v1H6z"/><path fill="#E6F2E2" d="M7 62h1v1H7z"/><path fill="#F5FAF5" d="M8 62h1v1H8zM9 62h1v1H9zM10 62h1v1h-1z"/><path fill="#E0EFDA" d="M11 62h1v1h-1z"/><path fill="#E2F0DD" d="M12 62h1v1h-1z"/><path fill="#EBF5E9" d="M13 62h1v1h-1z"/><path fill="#F5FAF5" d="M14 62h1v1h-1zM15 62h1v1h-1zM16 62h1v1h-1zM17 62h1v1h-1zM18 62h1v1h-1zM19 62h1v1h-1zM20 62h1v1h-1zM21 62h1v1h-1zM22 62h1v1h-1zM23 62h1v1h-1zM24 62h1v1h-1zM25 62h1v1h-1zM26 62h1v1h-1zM27 62h1v1h-1zM28 62h1v1h-1zM29 62h1v1h-1z"/><path fill="#EFF7EE" d="M30 62h1v1h-1z"/><path fill="#D8EBD0" d="M31 62h1v1h-1z"/><path fill="#D6EACE" d="M32 62h1v1h-1zM33 62h1v1h-1zM34 62h1v1h-1zM35 62h1v1h-1z"/><path fill="#CFE7CA" d="M36 62h1v1h-1z"/><path fill="#B2DAB8" d="M37 62h1v1h-1zM38 62h1v1h-1zM39 62h1v1h-1zM40 62h1v1h-1zM41 62h1v1h-1zM42 62h1v1h-1z"/><path fill="#738571" d="M43 62h1v1h-1z"/><path fill="#231815" d="M44 62h1v1h-1zM45 62h1v1h-1zM46 62h1v1h-1zM47 62h1v1h-1zM48 62h1v1h-1zM49 62h1v1h-1zM50 62h1v1h-1zM51 62h1v1h-1zM1 63h1v1H1zM2 63h1v1H2zM3 63h1v1H3zM4 63h1v1H4z"/><path fill="#888E7D" d="M5 63h1v1H5z"/><path fill="#D6EACE" d="M6 63h1v1H6zM7 63h1v1H7z"/><path fill="#E4F1DF" d="M8 63h1v1H8z"/><path fill="#E6F2E2" d="M9 63h1v1H9z"/><path fill="#E0EFDA" d="M10 63h1v1h-1z"/><path fill="#D6EACE" d="M11 63h1v1h-1zM12 63h1v1h-1zM13 63h1v1h-1z"/><path fill="#E6F2E2" d="M14 63h1v1h-1z"/><path fill="#F5FAF5" d="M15 63h1v1h-1zM16 63h1v1h-1zM17 63h1v1h-1zM18 63h1v1h-1zM19 63h1v1h-1zM20 63h1v1h-1zM21 63h1v1h-1zM22 63h1v1h-1zM23 63h1v1h-1zM24 63h1v1h-1zM25 63h1v1h-1zM26 63h1v1h-1zM27 63h1v1h-1zM28 63h1v1h-1zM29 63h1v1h-1z"/><path fill="#EDF6EB" d="M30 63h1v1h-1z"/><path fill="#D6EACE" d="M31 63h1v1h-1zM32 63h1v1h-1zM33 63h1v1h-1zM34 63h1v1h-1z"/><path fill="#D4E9CD" d="M35 63h1v1h-1z"/><path fill="#B9DDBC" d="M36 63h1v1h-1z"/><path fill="#B2DAB8" d="M37 63h1v1h-1zM38 63h1v1h-1zM39 63h1v1h-1zM40 63h1v1h-1zM41 63h1v1h-1zM42 63h1v1h-1z"/><path fill="#3E3C34" d="M43 63h1v1h-1z"/><path fill="#231815" d="M44 63h1v1h-1zM45 63h1v1h-1zM46 63h1v1h-1zM47 63h1v1h-1zM48 63h1v1h-1zM49 63h1v1h-1zM50 63h1v1h-1zM1 64h1v1H1zM2 64h1v1H2zM3 64h1v1H3zM4 64h1v1H4zM5 64h1v1H5z"/><path fill="#504D43" d="M6 64h1v1H6z"/><path fill="#A9B6A0" d="M7 64h1v1H7z"/><path fill="#D6EACE" d="M8 64h1v1H8zM9 64h1v1H9zM10 64h1v1h-1zM11 64h1v1h-1zM12 64h1v1h-1zM13 64h1v1h-1z"/><path fill="#DCEDD5" d="M14 64h1v1h-1z"/><path fill="#F5FAF5" d="M15 64h1v1h-1zM16 64h1v1h-1zM17 64h1v1h-1z"/><path fill="#E7F3E4" d="M18 64h1v1h-1z"/><path fill="#DAECD3" d="M19 64h1v1h-1z"/><path fill="#DEEED8" d="M20 64h1v1h-1z"/><path fill="#F5FAF5" d="M21 64h1v1h-1zM22 64h1v1h-1zM23 64h1v1h-1zM24 64h1v1h-1z"/><path fill="#E0EFDA" d="M25 64h1v1h-1z"/><path fill="#E4F1DF" d="M26 64h1v1h-1z"/><path fill="#F5FAF5" d="M27 64h1v1h-1zM28 64h1v1h-1zM29 64h1v1h-1z"/><path fill="#EDF6EB" d="M30 64h1v1h-1z"/><path fill="#D6EACE" d="M31 64h1v1h-1zM32 64h1v1h-1zM33 64h1v1h-1zM34 64h1v1h-1z"/><path fill="#C0E0C0" d="M35 64h1v1h-1z"/><path fill="#B2DAB8" d="M36 64h1v1h-1zM37 64h1v1h-1zM38 64h1v1h-1zM39 64h1v1h-1zM40 64h1v1h-1zM41 64h1v1h-1z"/><path fill="#8EAA8F" d="M42 64h1v1h-1z"/><path fill="#231815" d="M43 64h1v1h-1zM44 64h1v1h-1zM45 64h1v1h-1zM46 64h1v1h-1zM47 64h1v1h-1zM48 64h1v1h-1zM49 64h1v1h-1zM2 65h1v1H2zM3 65h1v1H3zM4 65h1v1H4zM5 65h1v1H5zM6 65h1v1H6zM7 65h1v1H7z"/><path fill="#453F38" d="M8 65h1v1H8z"/><path fill="#939B89" d="M9 65h1v1H9z"/><path fill="#CBDDC2" d="M10 65h1v1h-1z"/><path fill="#D6EACE" d="M11 65h1v1h-1zM12 65h1v1h-1zM13 65h1v1h-1zM14 65h1v1h-1z"/><path fill="#DEEED8" d="M15 65h1v1h-1z"/><path fill="#E6F2E2" d="M16 65h1v1h-1z"/><path fill="#E4F1DF" d="M17 65h1v1h-1z"/><path fill="#D6EACE" d="M18 65h1v1h-1zM19 65h1v1h-1zM20 65h1v1h-1z"/><path fill="#F5FAF5" d="M21 65h1v1h-1zM22 65h1v1h-1zM23 65h1v1h-1z"/><path fill="#F3F9F3" d="M24 65h1v1h-1z"/><path fill="#D6EACE" d="M25 65h1v1h-1z"/><path fill="#D8EBD0" d="M26 65h1v1h-1z"/><path fill="#EFF7EE" d="M27 65h1v1h-1z"/><path fill="#F5FAF5" d="M28 65h1v1h-1zM29 65h1v1h-1z"/><path fill="#E2F0DD" d="M30 65h1v1h-1z"/><path fill="#D6EACE" d="M31 65h1v1h-1zM32 65h1v1h-1zM33 65h1v1h-1z"/><path fill="#C9E4C6" d="M34 65h1v1h-1z"/><path fill="#B2DAB8" d="M35 65h1v1h-1zM36 65h1v1h-1zM37 65h1v1h-1zM38 65h1v1h-1zM39 65h1v1h-1zM40 65h1v1h-1z"/><path fill="#A9CEAE" d="M41 65h1v1h-1z"/><path fill="#353029" d="M42 65h1v1h-1z"/><path fill="#231815" d="M43 65h1v1h-1zM44 65h1v1h-1zM45 65h1v1h-1zM3 66h1v1H3zM4 66h1v1H4zM5 66h1v1H5zM6 66h1v1H6zM7 66h1v1H7zM8 66h1v1H8zM9 66h1v1H9zM10 66h1v1h-1z"/><path fill="#5B5A4F" d="M11 66h1v1h-1z"/><path fill="#939B89" d="M12 66h1v1h-1z"/><path fill="#CBDDC2" d="M13 66h1v1h-1z"/><path fill="#D6EACE" d="M14 66h1v1h-1zM15 66h1v1h-1zM16 66h1v1h-1zM17 66h1v1h-1zM18 66h1v1h-1zM19 66h1v1h-1zM20 66h1v1h-1z"/><path fill="#E2F0DD" d="M21 66h1v1h-1z"/><path fill="#F1F8F0" d="M22 66h1v1h-1zM23 66h1v1h-1z"/><path fill="#E2F0DD" d="M24 66h1v1h-1z"/><path fill="#D6EACE" d="M25 66h1v1h-1zM26 66h1v1h-1zM27 66h1v1h-1z"/><path fill="#DEEED8" d="M28 66h1v1h-1z"/><path fill="#DAECD3" d="M29 66h1v1h-1z"/><path fill="#D6EACE" d="M30 66h1v1h-1zM31 66h1v1h-1zM32 66h1v1h-1z"/><path fill="#CFE7CA" d="M33 66h1v1h-1z"/><path fill="#B2DAB8" d="M34 66h1v1h-1zM35 66h1v1h-1zM36 66h1v1h-1zM37 66h1v1h-1zM38 66h1v1h-1zM39 66h1v1h-1zM40 66h1v1h-1z"/><path fill="#596152" d="M41 66h1v1h-1z"/><path fill="#231815" d="M42 66h1v1h-1zM43 66h1v1h-1zM44 66h1v1h-1zM45 66h1v1h-1zM5 67h1v1H5zM6 67h1v1H6zM7 67h1v1H7zM8 67h1v1H8zM9 67h1v1H9zM10 67h1v1h-1zM11 67h1v1h-1zM12 67h1v1h-1z"/><path fill="#453F38" d="M13 67h1v1h-1z"/><path fill="#D6EACE" d="M14 67h1v1h-1zM15 67h1v1h-1zM16 67h1v1h-1zM17 67h1v1h-1zM18 67h1v1h-1zM19 67h1v1h-1zM20 67h1v1h-1zM21 67h1v1h-1zM22 67h1v1h-1zM23 67h1v1h-1zM24 67h1v1h-1zM25 67h1v1h-1zM26 67h1v1h-1zM27 67h1v1h-1zM28 67h1v1h-1zM29 67h1v1h-1zM30 67h1v1h-1zM31 67h1v1h-1z"/><path fill="#D4E9CD" d="M32 67h1v1h-1z"/><path fill="#B4DBB9" d="M33 67h1v1h-1z"/><path fill="#B2DAB8" d="M34 67h1v1h-1zM35 67h1v1h-1zM36 67h1v1h-1zM37 67h1v1h-1zM38 67h1v1h-1zM39 67h1v1h-1z"/><path fill="#596152" d="M40 67h1v1h-1z"/><path fill="#231815" d="M41 67h1v1h-1zM42 67h1v1h-1zM43 67h1v1h-1zM44 67h1v1h-1zM7 68h1v1H7zM8 68h1v1H8zM9 68h1v1H9zM10 68h1v1h-1zM11 68h1v1h-1zM12 68h1v1h-1z"/><path fill="#2E2521" d="M13 68h1v1h-1z"/><path fill="#D6EACE" d="M14 68h1v1h-1zM15 68h1v1h-1zM16 68h1v1h-1zM17 68h1v1h-1zM18 68h1v1h-1zM19 68h1v1h-1zM20 68h1v1h-1zM21 68h1v1h-1zM22 68h1v1h-1zM23 68h1v1h-1zM24 68h1v1h-1zM25 68h1v1h-1zM26 68h1v1h-1zM27 68h1v1h-1zM28 68h1v1h-1zM29 68h1v1h-1zM30 68h1v1h-1z"/><path fill="#D4E9CD" d="M31 68h1v1h-1z"/><path fill="#B9DDBC" d="M32 68h1v1h-1z"/><path fill="#B2DAB8" d="M33 68h1v1h-1zM34 68h1v1h-1zM35 68h1v1h-1zM36 68h1v1h-1zM37 68h1v1h-1z"/><path fill="#A0C2A4" d="M38 68h1v1h-1z"/><path fill="#3E3C34" d="M39 68h1v1h-1z"/><path fill="#231815" d="M40 68h1v1h-1zM41 68h1v1h-1zM42 68h1v1h-1zM43 68h1v1h-1zM9 69h1v1H9zM10 69h1v1h-1zM11 69h1v1h-1z"/><path fill="#2E2521" d="M12 69h1v1h-1z"/><path fill="#9EA894" d="M13 69h1v1h-1z"/><path fill="#D6EACE" d="M14 69h1v1h-1zM15 69h1v1h-1zM16 69h1v1h-1zM17 69h1v1h-1zM18 69h1v1h-1zM19 69h1v1h-1zM20 69h1v1h-1zM21 69h1v1h-1zM22 69h1v1h-1zM23 69h1v1h-1zM24 69h1v1h-1zM25 69h1v1h-1zM26 69h1v1h-1zM27 69h1v1h-1zM28 69h1v1h-1zM29 69h1v1h-1zM30 69h1v1h-1z"/><path fill="#C0E0C0" d="M31 69h1v1h-1z"/><path fill="#B2DAB8" d="M32 69h1v1h-1zM33 69h1v1h-1zM34 69h1v1h-1zM35 69h1v1h-1z"/><path fill="#A9CEAE" d="M36 69h1v1h-1z"/><path fill="#6B7967" d="M37 69h1v1h-1z"/><path fill="#2C241F" d="M38 69h1v1h-1z"/><path fill="#231815" d="M39 69h1v1h-1zM40 69h1v1h-1zM41 69h1v1h-1zM42 69h1v1h-1zM9 70h1v1H9zM10 70h1v1h-1zM11 70h1v1h-1z"/><path fill="#5B5A4F" d="M12 70h1v1h-1z"/><path fill="#CBDDC2" d="M13 70h1v1h-1z"/><path fill="#D6EACE" d="M14 70h1v1h-1zM15 70h1v1h-1zM16 70h1v1h-1zM17 70h1v1h-1zM18 70h1v1h-1zM19 70h1v1h-1zM20 70h1v1h-1zM21 70h1v1h-1zM22 70h1v1h-1zM23 70h1v1h-1zM24 70h1v1h-1zM25 70h1v1h-1zM26 70h1v1h-1zM27 70h1v1h-1zM28 70h1v1h-1zM29 70h1v1h-1z"/><path fill="#C4E2C3" d="M30 70h1v1h-1z"/><path fill="#B2DAB8" d="M31 70h1v1h-1zM32 70h1v1h-1zM33 70h1v1h-1z"/><path fill="#A0C2A4" d="M34 70h1v1h-1z"/><path fill="#626D5C" d="M35 70h1v1h-1z"/><path fill="#2C241F" d="M36 70h1v1h-1z"/><path fill="#231815" d="M37 70h1v1h-1zM38 70h1v1h-1zM39 70h1v1h-1zM40 70h1v1h-1zM41 70h1v1h-1zM9 71h1v1H9zM10 71h1v1h-1zM11 71h1v1h-1zM12 71h1v1h-1z"/><path fill="#2E2521" d="M13 71h1v1h-1z"/><path fill="#717466" d="M14 71h1v1h-1z"/><path fill="#A9B6A0" d="M15 71h1v1h-1z"/><path fill="#D6EACE" d="M16 71h1v1h-1zM17 71h1v1h-1zM18 71h1v1h-1zM19 71h1v1h-1zM20 71h1v1h-1zM21 71h1v1h-1zM22 71h1v1h-1zM23 71h1v1h-1zM24 71h1v1h-1zM25 71h1v1h-1zM26 71h1v1h-1zM27 71h1v1h-1zM28 71h1v1h-1z"/><path fill="#CBE5C7" d="M29 71h1v1h-1z"/><path fill="#B2DAB8" d="M30 71h1v1h-1z"/><path fill="#8EAA8F" d="M31 71h1v1h-1z"/><path fill="#6B7967" d="M32 71h1v1h-1z"/><path fill="#3E3C34" d="M33 71h1v1h-1z"/><path fill="#231815" d="M34 71h1v1h-1zM35 71h1v1h-1zM36 71h1v1h-1zM37 71h1v1h-1zM38 71h1v1h-1zM39 71h1v1h-1zM40 71h1v1h-1zM10 72h1v1h-1zM11 72h1v1h-1zM12 72h1v1h-1zM13 72h1v1h-1zM14 72h1v1h-1zM15 72h1v1h-1zM16 72h1v1h-1z"/><path fill="#504D43" d="M17 72h1v1h-1z"/><path fill="#66675A" d="M18 72h1v1h-1z"/><path fill="#7D8172" d="M19 72h1v1h-1zM20 72h1v1h-1z"/><path fill="#A9B6A0" d="M21 72h1v1h-1zM22 72h1v1h-1zM23 72h1v1h-1zM24 72h1v1h-1z"/><path fill="#939B89" d="M25 72h1v1h-1z"/><path fill="#7D8172" d="M26 72h1v1h-1zM27 72h1v1h-1z"/><path fill="#5B5A4F" d="M28 72h1v1h-1z"/><path fill="#403D35" d="M29 72h1v1h-1z"/><path fill="#231815" d="M30 72h1v1h-1zM31 72h1v1h-1zM32 72h1v1h-1zM33 72h1v1h-1zM34 72h1v1h-1zM35 72h1v1h-1zM36 72h1v1h-1zM37 72h1v1h-1zM38 72h1v1h-1zM39 72h1v1h-1zM11 73h1v1h-1zM12 73h1v1h-1zM13 73h1v1h-1zM14 73h1v1h-1zM15 73h1v1h-1zM16 73h1v1h-1zM17 73h1v1h-1zM18 73h1v1h-1zM19 73h1v1h-1zM20 73h1v1h-1zM21 73h1v1h-1zM22 73h1v1h-1zM23 73h1v1h-1zM24 73h1v1h-1zM25 73h1v1h-1zM26 73h1v1h-1zM27 73h1v1h-1zM28 73h1v1h-1zM29 73h1v1h-1zM30 73h1v1h-1zM31 73h1v1h-1zM32 73h1v1h-1zM33 73h1v1h-1zM34 73h1v1h-1zM35 73h1v1h-1zM36 73h1v1h-1zM37 73h1v1h-1zM13 74h1v1h-1zM14 74h1v1h-1zM15 74h1v1h-1zM16 74h1v1h-1zM17 74h1v1h-1zM18 74h1v1h-1zM19 74h1v1h-1zM20 74h1v1h-1zM21 74h1v1h-1zM22 74h1v1h-1zM23 74h1v1h-1zM24 74h1v1h-1zM25 74h1v1h-1zM26 74h1v1h-1zM27 74h1v1h-1zM28 74h1v1h-1zM29 74h1v1h-1zM30 74h1v1h-1zM31 74h1v1h-1zM32 74h1v1h-1zM33 74h1v1h-1zM34 74h1v1h-1zM16 75h1v1h-1zM17 75h1v1h-1zM18 75h1v1h-1zM19 75h1v1h-1zM20 75h1v1h-1zM21 75h1v1h-1zM22 75h1v1h-1zM23 75h1v1h-1zM24 75h1v1h-1zM25 75h1v1h-1zM26 75h1v1h-1zM27 75h1v1h-1zM28 75h1v1h-1zM29 75h1v1h-1zM30 75h1v1h-1z"/></svg>