<svg baseProfile="full" height="90" width="67" xmlns="http://www.w3.org/2000/svg"><path fill="#231815" d="M32 0h1v1h-1zM33 0h1v1h-1zM34 0h1v1h-1zM35 0h1v1h-1zM36 0h1v1h-1zM37 0h1v1h-1zM30 1h1v1h-1zM31 1h1v1h-1zM32 1h1v1h-1zM33 1h1v1h-1zM34 1h1v1h-1zM35 1h1v1h-1zM36 1h1v1h-1zM37 1h1v1h-1zM38 1h1v1h-1zM29 2h1v1h-1zM30 2h1v1h-1zM31 2h1v1h-1zM32 2h1v1h-1zM33 2h1v1h-1zM34 2h1v1h-1zM35 2h1v1h-1zM36 2h1v1h-1zM37 2h1v1h-1zM38 2h1v1h-1zM39 2h1v1h-1zM28 3h1v1h-1zM29 3h1v1h-1zM30 3h1v1h-1zM31 3h1v1h-1zM32 3h1v1h-1z"/><path fill="#3F3532" d="M33 3h1v1h-1z"/><path fill="#837D7B" d="M34 3h1v1h-1z"/><path fill="#5A5250" d="M35 3h1v1h-1z"/><path fill="#231815" d="M36 3h1v1h-1zM37 3h1v1h-1zM38 3h1v1h-1zM39 3h1v1h-1zM40 3h1v1h-1zM41 3h1v1h-1zM27 4h1v1h-1zM28 4h1v1h-1zM29 4h1v1h-1zM30 4h1v1h-1zM31 4h1v1h-1z"/><path fill="#9F9A99" d="M32 4h1v1h-1z"/><path fill="#FFF" d="M33 4h1v1h-1zM34 4h1v1h-1zM35 4h1v1h-1z"/><path fill="#B0B2B2" d="M36 4h1v1h-1z"/><path fill="#2C2422" d="M37 4h1v1h-1z"/><path fill="#231815" d="M38 4h1v1h-1zM39 4h1v1h-1zM40 4h1v1h-1zM41 4h1v1h-1zM42 4h1v1h-1zM26 5h1v1h-1zM27 5h1v1h-1zM28 5h1v1h-1zM29 5h1v1h-1z"/><path fill="#312624" d="M30 5h1v1h-1z"/><path fill="#D6D4D3" d="M31 5h1v1h-1z"/><path fill="#FFF" d="M32 5h1v1h-1zM33 5h1v1h-1zM34 5h1v1h-1zM35 5h1v1h-1zM36 5h1v1h-1z"/><path fill="#B2C9D0" d="M37 5h1v1h-1z"/><path fill="#3D3C3B" d="M38 5h1v1h-1z"/><path fill="#231815" d="M39 5h1v1h-1zM40 5h1v1h-1zM41 5h1v1h-1zM42 5h1v1h-1zM43 5h1v1h-1zM26 6h1v1h-1zM27 6h1v1h-1zM28 6h1v1h-1zM29 6h1v1h-1z"/><path fill="#ADA8A7" d="M30 6h1v1h-1z"/><path fill="#FFF" d="M31 6h1v1h-1zM32 6h1v1h-1zM33 6h1v1h-1zM34 6h1v1h-1zM35 6h1v1h-1zM36 6h1v1h-1z"/><path fill="#F0F7FA" d="M37 6h1v1h-1z"/><path fill="#A6CAD5" d="M38 6h1v1h-1z"/><path fill="#3D3C3B" d="M39 6h1v1h-1z"/><path fill="#231815" d="M40 6h1v1h-1zM41 6h1v1h-1zM42 6h1v1h-1zM43 6h1v1h-1zM44 6h1v1h-1zM25 7h1v1h-1zM26 7h1v1h-1zM27 7h1v1h-1zM28 7h1v1h-1z"/><path fill="#837D7B" d="M29 7h1v1h-1z"/><path fill="#FFF" d="M30 7h1v1h-1zM31 7h1v1h-1zM32 7h1v1h-1zM33 7h1v1h-1zM34 7h1v1h-1zM35 7h1v1h-1zM36 7h1v1h-1zM37 7h1v1h-1z"/><path fill="#D7EBF1" d="M38 7h1v1h-1z"/><path fill="#A6CAD5" d="M39 7h1v1h-1z"/><path fill="#3D3C3B" d="M40 7h1v1h-1z"/><path fill="#231815" d="M41 7h1v1h-1zM42 7h1v1h-1zM43 7h1v1h-1zM44 7h1v1h-1zM25 8h1v1h-1zM26 8h1v1h-1zM27 8h1v1h-1z"/><path fill="#312624" d="M28 8h1v1h-1z"/><path fill="#F1F1F0" d="M29 8h1v1h-1z"/><path fill="#FFF" d="M30 8h1v1h-1zM31 8h1v1h-1zM32 8h1v1h-1zM33 8h1v1h-1zM34 8h1v1h-1zM35 8h1v1h-1zM36 8h1v1h-1zM37 8h1v1h-1z"/><path fill="#FAFCFD" d="M38 8h1v1h-1z"/><path fill="#B9DBE6" d="M39 8h1v1h-1z"/><path fill="#A6CAD5" d="M40 8h1v1h-1z"/><path fill="#3D3C3B" d="M41 8h1v1h-1z"/><path fill="#231815" d="M42 8h1v1h-1zM43 8h1v1h-1zM44 8h1v1h-1zM45 8h1v1h-1zM24 9h1v1h-1zM25 9h1v1h-1zM26 9h1v1h-1zM27 9h1v1h-1z"/><path fill="#9F9A99" d="M28 9h1v1h-1z"/><path fill="#FFF" d="M29 9h1v1h-1zM30 9h1v1h-1zM31 9h1v1h-1zM32 9h1v1h-1zM33 9h1v1h-1zM34 9h1v1h-1zM35 9h1v1h-1zM36 9h1v1h-1zM37 9h1v1h-1zM38 9h1v1h-1z"/><path fill="#E6F2F6" d="M39 9h1v1h-1z"/><path fill="#AFD6E2" d="M40 9h1v1h-1z"/><path fill="#A6CAD5" d="M41 9h1v1h-1z"/><path fill="#2C2422" d="M42 9h1v1h-1z"/><path fill="#231815" d="M43 9h1v1h-1zM44 9h1v1h-1zM45 9h1v1h-1zM46 9h1v1h-1zM24 10h1v1h-1zM25 10h1v1h-1zM26 10h1v1h-1z"/><path fill="#312624" d="M27 10h1v1h-1z"/><path fill="#F1F1F0" d="M28 10h1v1h-1z"/><path fill="#FFF" d="M29 10h1v1h-1zM30 10h1v1h-1zM31 10h1v1h-1zM32 10h1v1h-1zM33 10h1v1h-1zM34 10h1v1h-1zM35 10h1v1h-1zM36 10h1v1h-1zM37 10h1v1h-1zM38 10h1v1h-1zM39 10h1v1h-1z"/><path fill="#C8E3EB" d="M40 10h1v1h-1z"/><path fill="#AFD6E2" d="M41 10h1v1h-1z"/><path fill="#95B2BC" d="M42 10h1v1h-1z"/><path fill="#231815" d="M43 10h1v1h-1zM44 10h1v1h-1zM45 10h1v1h-1zM46 10h1v1h-1zM47 10h1v1h-1zM24 11h1v1h-1zM25 11h1v1h-1zM26 11h1v1h-1z"/><path fill="#837D7B" d="M27 11h1v1h-1z"/><path fill="#FFF" d="M28 11h1v1h-1zM29 11h1v1h-1zM30 11h1v1h-1zM31 11h1v1h-1zM32 11h1v1h-1zM33 11h1v1h-1zM34 11h1v1h-1zM35 11h1v1h-1zM36 11h1v1h-1zM37 11h1v1h-1zM38 11h1v1h-1zM39 11h1v1h-1z"/><path fill="#F5FAFB" d="M40 11h1v1h-1z"/><path fill="#B4D9E4" d="M41 11h1v1h-1z"/><path fill="#AFD6E2" d="M42 11h1v1h-1z"/><path fill="#728388" d="M43 11h1v1h-1z"/><path fill="#231815" d="M44 11h1v1h-1zM45 11h1v1h-1zM46 11h1v1h-1zM47 11h1v1h-1zM23 12h1v1h-1zM24 12h1v1h-1zM25 12h1v1h-1zM26 12h1v1h-1z"/><path fill="#AEBFC5" d="M27 12h1v1h-1z"/><path fill="#FFF" d="M28 12h1v1h-1zM29 12h1v1h-1zM30 12h1v1h-1zM31 12h1v1h-1zM32 12h1v1h-1zM33 12h1v1h-1zM34 12h1v1h-1zM35 12h1v1h-1zM36 12h1v1h-1zM37 12h1v1h-1zM38 12h1v1h-1zM39 12h1v1h-1zM40 12h1v1h-1z"/><path fill="#D7EBF1" d="M41 12h1v1h-1z"/><path fill="#AFD6E2" d="M42 12h1v1h-1zM43 12h1v1h-1z"/><path fill="#4F5355" d="M44 12h1v1h-1z"/><path fill="#231815" d="M45 12h1v1h-1zM46 12h1v1h-1zM47 12h1v1h-1zM48 12h1v1h-1zM23 13h1v1h-1zM24 13h1v1h-1zM25 13h1v1h-1z"/><path fill="#35302F" d="M26 13h1v1h-1z"/><path fill="#AFD6E2" d="M27 13h1v1h-1z"/><path fill="#E6F2F6" d="M28 13h1v1h-1z"/><path fill="#FFF" d="M29 13h1v1h-1zM30 13h1v1h-1zM31 13h1v1h-1zM32 13h1v1h-1zM33 13h1v1h-1zM34 13h1v1h-1zM35 13h1v1h-1zM36 13h1v1h-1zM37 13h1v1h-1zM38 13h1v1h-1zM39 13h1v1h-1zM40 13h1v1h-1zM41 13h1v1h-1z"/><path fill="#B9DBE6" d="M42 13h1v1h-1z"/><path fill="#AFD6E2" d="M43 13h1v1h-1z"/><path fill="#A6CAD5" d="M44 13h1v1h-1z"/><path fill="#2C2422" d="M45 13h1v1h-1z"/><path fill="#231815" d="M46 13h1v1h-1zM47 13h1v1h-1zM48 13h1v1h-1zM22 14h1v1h-1zM23 14h1v1h-1zM24 14h1v1h-1zM25 14h1v1h-1z"/><path fill="#585F62" d="M26 14h1v1h-1z"/><path fill="#AFD6E2" d="M27 14h1v1h-1z"/><path fill="#B4D9E4" d="M28 14h1v1h-1z"/><path fill="#F0F7FA" d="M29 14h1v1h-1z"/><path fill="#FFF" d="M30 14h1v1h-1zM31 14h1v1h-1zM32 14h1v1h-1zM33 14h1v1h-1zM34 14h1v1h-1zM35 14h1v1h-1zM36 14h1v1h-1zM37 14h1v1h-1zM38 14h1v1h-1zM39 14h1v1h-1zM40 14h1v1h-1zM41 14h1v1h-1z"/><path fill="#EBF5F8" d="M42 14h1v1h-1z"/><path fill="#AFD6E2" d="M43 14h1v1h-1zM44 14h1v1h-1z"/><path fill="#728388" d="M45 14h1v1h-1z"/><path fill="#231815" d="M46 14h1v1h-1zM47 14h1v1h-1zM48 14h1v1h-1zM49 14h1v1h-1zM20 15h1v1h-1zM21 15h1v1h-1zM22 15h1v1h-1zM23 15h1v1h-1zM24 15h1v1h-1zM25 15h1v1h-1z"/><path fill="#69777C" d="M26 15h1v1h-1z"/><path fill="#AFD6E2" d="M27 15h1v1h-1zM28 15h1v1h-1z"/><path fill="#B4D9E4" d="M29 15h1v1h-1z"/><path fill="#F0F7FA" d="M30 15h1v1h-1z"/><path fill="#FFF" d="M31 15h1v1h-1zM32 15h1v1h-1zM33 15h1v1h-1zM34 15h1v1h-1zM35 15h1v1h-1zM36 15h1v1h-1zM37 15h1v1h-1zM38 15h1v1h-1zM39 15h1v1h-1zM40 15h1v1h-1zM41 15h1v1h-1zM42 15h1v1h-1z"/><path fill="#C8E3EB" d="M43 15h1v1h-1z"/><path fill="#AFD6E2" d="M44 15h1v1h-1zM45 15h1v1h-1z"/><path fill="#35302F" d="M46 15h1v1h-1z"/><path fill="#231815" d="M47 15h1v1h-1zM48 15h1v1h-1zM49 15h1v1h-1zM19 16h1v1h-1zM20 16h1v1h-1zM21 16h1v1h-1zM22 16h1v1h-1zM23 16h1v1h-1zM24 16h1v1h-1zM25 16h1v1h-1z"/><path fill="#5D8391" d="M26 16h1v1h-1z"/><path fill="#AFD6E2" d="M27 16h1v1h-1zM28 16h1v1h-1zM29 16h1v1h-1z"/><path fill="#B4D9E4" d="M30 16h1v1h-1z"/><path fill="#E6F2F6" d="M31 16h1v1h-1z"/><path fill="#FFF" d="M32 16h1v1h-1zM33 16h1v1h-1zM34 16h1v1h-1zM35 16h1v1h-1zM36 16h1v1h-1zM37 16h1v1h-1zM38 16h1v1h-1zM39 16h1v1h-1zM40 16h1v1h-1zM41 16h1v1h-1zM42 16h1v1h-1z"/><path fill="#F5FAFB" d="M43 16h1v1h-1z"/><path fill="#B4D9E4" d="M44 16h1v1h-1z"/><path fill="#AFD6E2" d="M45 16h1v1h-1z"/><path fill="#7B8F95" d="M46 16h1v1h-1z"/><path fill="#231815" d="M47 16h1v1h-1zM48 16h1v1h-1zM49 16h1v1h-1zM50 16h1v1h-1zM17 17h1v1h-1zM18 17h1v1h-1zM19 17h1v1h-1zM20 17h1v1h-1zM21 17h1v1h-1zM22 17h1v1h-1zM23 17h1v1h-1z"/><path fill="#334046" d="M24 17h1v1h-1z"/><path fill="#4A7B8F" d="M25 17h1v1h-1z"/><path fill="#61B7D8" d="M26 17h1v1h-1z"/><path fill="#8DC8DE" d="M27 17h1v1h-1z"/><path fill="#AFD6E2" d="M28 17h1v1h-1zM29 17h1v1h-1zM30 17h1v1h-1zM31 17h1v1h-1z"/><path fill="#D2E8EF" d="M32 17h1v1h-1z"/><path fill="#FAFCFD" d="M33 17h1v1h-1z"/><path fill="#FFF" d="M34 17h1v1h-1zM35 17h1v1h-1zM36 17h1v1h-1zM37 17h1v1h-1zM38 17h1v1h-1zM39 17h1v1h-1zM40 17h1v1h-1zM41 17h1v1h-1zM42 17h1v1h-1zM43 17h1v1h-1z"/><path fill="#D7EBF1" d="M44 17h1v1h-1z"/><path fill="#AFD6E2" d="M45 17h1v1h-1zM46 17h1v1h-1z"/><path fill="#35302F" d="M47 17h1v1h-1z"/><path fill="#231815" d="M48 17h1v1h-1zM49 17h1v1h-1zM50 17h1v1h-1zM16 18h1v1h-1zM17 18h1v1h-1zM18 18h1v1h-1zM19 18h1v1h-1zM20 18h1v1h-1zM21 18h1v1h-1z"/><path fill="#68605E" d="M22 18h1v1h-1z"/><path fill="#CCCFD1" d="M23 18h1v1h-1z"/><path fill="#75C0DD" d="M24 18h1v1h-1z"/><path fill="#61B7D8" d="M25 18h1v1h-1zM26 18h1v1h-1zM27 18h1v1h-1z"/><path fill="#79C1DB" d="M28 18h1v1h-1z"/><path fill="#A0D0E0" d="M29 18h1v1h-1z"/><path fill="#AFD6E2" d="M30 18h1v1h-1zM31 18h1v1h-1zM32 18h1v1h-1z"/><path fill="#B4D9E4" d="M33 18h1v1h-1z"/><path fill="#E1F0F4" d="M34 18h1v1h-1z"/><path fill="#FFF" d="M35 18h1v1h-1zM36 18h1v1h-1zM37 18h1v1h-1zM38 18h1v1h-1zM39 18h1v1h-1zM40 18h1v1h-1zM41 18h1v1h-1zM42 18h1v1h-1zM43 18h1v1h-1z"/><path fill="#FAFCFD" d="M44 18h1v1h-1z"/><path fill="#B4D9E4" d="M45 18h1v1h-1z"/><path fill="#AFD6E2" d="M46 18h1v1h-1z"/><path fill="#728388" d="M47 18h1v1h-1z"/><path fill="#231815" d="M48 18h1v1h-1zM49 18h1v1h-1zM50 18h1v1h-1zM51 18h1v1h-1zM15 19h1v1h-1zM16 19h1v1h-1zM17 19h1v1h-1zM18 19h1v1h-1zM19 19h1v1h-1z"/><path fill="#3F3532" d="M20 19h1v1h-1z"/><path fill="#C8C5C5" d="M21 19h1v1h-1z"/><path fill="#FFF" d="M22 19h1v1h-1zM23 19h1v1h-1z"/><path fill="#E1F2F8" d="M24 19h1v1h-1z"/><path fill="#61B7D8" d="M25 19h1v1h-1zM26 19h1v1h-1zM27 19h1v1h-1zM28 19h1v1h-1zM29 19h1v1h-1z"/><path fill="#6BBBD9" d="M30 19h1v1h-1z"/><path fill="#79C1DB" d="M31 19h1v1h-1z"/><path fill="#A0D0E0" d="M32 19h1v1h-1z"/><path fill="#AFD6E2" d="M33 19h1v1h-1zM34 19h1v1h-1z"/><path fill="#B9DBE6" d="M35 19h1v1h-1z"/><path fill="#E1F0F4" d="M36 19h1v1h-1z"/><path fill="#FFF" d="M37 19h1v1h-1zM38 19h1v1h-1zM39 19h1v1h-1zM40 19h1v1h-1zM41 19h1v1h-1zM42 19h1v1h-1zM43 19h1v1h-1zM44 19h1v1h-1z"/><path fill="#D7EBF1" d="M45 19h1v1h-1z"/><path fill="#AFD6E2" d="M46 19h1v1h-1z"/><path fill="#A6CAD5" d="M47 19h1v1h-1z"/><path fill="#231815" d="M48 19h1v1h-1zM49 19h1v1h-1zM50 19h1v1h-1zM51 19h1v1h-1zM14 20h1v1h-1zM15 20h1v1h-1zM16 20h1v1h-1zM17 20h1v1h-1zM18 20h1v1h-1z"/><path fill="#68605E" d="M19 20h1v1h-1z"/><path fill="#F1F1F0" d="M20 20h1v1h-1z"/><path fill="#FFF" d="M21 20h1v1h-1zM22 20h1v1h-1zM23 20h1v1h-1zM24 20h1v1h-1z"/><path fill="#E1F2F8" d="M25 20h1v1h-1z"/><path fill="#6BBCDA" d="M26 20h1v1h-1z"/><path fill="#61B7D8" d="M27 20h1v1h-1zM28 20h1v1h-1zM29 20h1v1h-1zM30 20h1v1h-1zM31 20h1v1h-1z"/><path fill="#79C1DB" d="M32 20h1v1h-1z"/><path fill="#AFD6E2" d="M33 20h1v1h-1zM34 20h1v1h-1zM35 20h1v1h-1zM36 20h1v1h-1z"/><path fill="#C3E0E9" d="M37 20h1v1h-1z"/><path fill="#FFF" d="M38 20h1v1h-1zM39 20h1v1h-1zM40 20h1v1h-1zM41 20h1v1h-1zM42 20h1v1h-1zM43 20h1v1h-1zM44 20h1v1h-1z"/><path fill="#F5FAFB" d="M45 20h1v1h-1z"/><path fill="#AFD6E2" d="M46 20h1v1h-1zM47 20h1v1h-1z"/><path fill="#4F5355" d="M48 20h1v1h-1z"/><path fill="#231815" d="M49 20h1v1h-1zM50 20h1v1h-1zM51 20h1v1h-1zM14 21h1v1h-1zM15 21h1v1h-1zM16 21h1v1h-1zM17 21h1v1h-1z"/><path fill="#766F6D" d="M18 21h1v1h-1z"/><path fill="#FFF" d="M19 21h1v1h-1zM20 21h1v1h-1zM21 21h1v1h-1zM22 21h1v1h-1zM23 21h1v1h-1zM24 21h1v1h-1zM25 21h1v1h-1z"/><path fill="#F5FBFD" d="M26 21h1v1h-1z"/><path fill="#A6D7E9" d="M27 21h1v1h-1z"/><path fill="#6BBCDA" d="M28 21h1v1h-1z"/><path fill="#61B7D8" d="M29 21h1v1h-1zM30 21h1v1h-1zM31 21h1v1h-1z"/><path fill="#79C1DB" d="M32 21h1v1h-1z"/><path fill="#AFD6E2" d="M33 21h1v1h-1zM34 21h1v1h-1zM35 21h1v1h-1z"/><path fill="#B4D9E4" d="M36 21h1v1h-1z"/><path fill="#CDE5ED" d="M37 21h1v1h-1z"/><path fill="#FFF" d="M38 21h1v1h-1zM39 21h1v1h-1zM40 21h1v1h-1zM41 21h1v1h-1zM42 21h1v1h-1zM43 21h1v1h-1zM44 21h1v1h-1zM45 21h1v1h-1z"/><path fill="#B4D9E4" d="M46 21h1v1h-1z"/><path fill="#AFD6E2" d="M47 21h1v1h-1z"/><path fill="#728388" d="M48 21h1v1h-1z"/><path fill="#231815" d="M49 21h1v1h-1zM50 21h1v1h-1zM51 21h1v1h-1zM52 21h1v1h-1zM13 22h1v1h-1zM14 22h1v1h-1zM15 22h1v1h-1zM16 22h1v1h-1z"/><path fill="#4C4341" d="M17 22h1v1h-1z"/><path fill="#FFF" d="M18 22h1v1h-1zM19 22h1v1h-1zM20 22h1v1h-1zM21 22h1v1h-1zM22 22h1v1h-1zM23 22h1v1h-1zM24 22h1v1h-1zM25 22h1v1h-1zM26 22h1v1h-1zM27 22h1v1h-1z"/><path fill="#FAFCFD" d="M28 22h1v1h-1z"/><path fill="#CEE8F2" d="M29 22h1v1h-1z"/><path fill="#ABD8EA" d="M30 22h1v1h-1z"/><path fill="#9CD1E4" d="M31 22h1v1h-1z"/><path fill="#BEDEE9" d="M32 22h1v1h-1z"/><path fill="#D7EBF1" d="M33 22h1v1h-1z"/><path fill="#DCEDF2" d="M34 22h1v1h-1z"/><path fill="#F0F7FA" d="M35 22h1v1h-1z"/><path fill="#FFF" d="M36 22h1v1h-1zM37 22h1v1h-1zM38 22h1v1h-1zM39 22h1v1h-1zM40 22h1v1h-1zM41 22h1v1h-1zM42 22h1v1h-1zM43 22h1v1h-1zM44 22h1v1h-1zM45 22h1v1h-1z"/><path fill="#C3E0E9" d="M46 22h1v1h-1z"/><path fill="#AFD6E2" d="M47 22h1v1h-1z"/><path fill="#8CA7AF" d="M48 22h1v1h-1z"/><path fill="#231815" d="M49 22h1v1h-1zM50 22h1v1h-1zM51 22h1v1h-1zM52 22h1v1h-1zM53 22h1v1h-1zM13 23h1v1h-1zM14 23h1v1h-1zM15 23h1v1h-1z"/><path fill="#312624" d="M16 23h1v1h-1z"/><path fill="#E4E2E2" d="M17 23h1v1h-1z"/><path fill="#FFF" d="M18 23h1v1h-1zM19 23h1v1h-1zM20 23h1v1h-1zM21 23h1v1h-1zM22 23h1v1h-1zM23 23h1v1h-1zM24 23h1v1h-1zM25 23h1v1h-1zM26 23h1v1h-1zM27 23h1v1h-1zM28 23h1v1h-1zM29 23h1v1h-1zM30 23h1v1h-1zM31 23h1v1h-1zM32 23h1v1h-1zM33 23h1v1h-1zM34 23h1v1h-1zM35 23h1v1h-1zM36 23h1v1h-1zM37 23h1v1h-1zM38 23h1v1h-1zM39 23h1v1h-1zM40 23h1v1h-1zM41 23h1v1h-1zM42 23h1v1h-1zM43 23h1v1h-1zM44 23h1v1h-1zM45 23h1v1h-1z"/><path fill="#C3E0E9" d="M46 23h1v1h-1z"/><path fill="#AFD6E2" d="M47 23h1v1h-1zM48 23h1v1h-1z"/><path fill="#2B2C2D" d="M49 23h1v1h-1z"/><path fill="#231815" d="M50 23h1v1h-1zM51 23h1v1h-1zM52 23h1v1h-1zM53 23h1v1h-1zM54 23h1v1h-1zM55 23h1v1h-1zM12 24h1v1h-1zM13 24h1v1h-1zM14 24h1v1h-1zM15 24h1v1h-1z"/><path fill="#918C8A" d="M16 24h1v1h-1z"/><path fill="#FFF" d="M17 24h1v1h-1zM18 24h1v1h-1zM19 24h1v1h-1zM20 24h1v1h-1zM21 24h1v1h-1zM22 24h1v1h-1zM23 24h1v1h-1zM24 24h1v1h-1zM25 24h1v1h-1zM26 24h1v1h-1zM27 24h1v1h-1zM28 24h1v1h-1zM29 24h1v1h-1zM30 24h1v1h-1zM31 24h1v1h-1zM32 24h1v1h-1zM33 24h1v1h-1zM34 24h1v1h-1zM35 24h1v1h-1zM36 24h1v1h-1zM37 24h1v1h-1zM38 24h1v1h-1zM39 24h1v1h-1zM40 24h1v1h-1zM41 24h1v1h-1zM42 24h1v1h-1zM43 24h1v1h-1zM44 24h1v1h-1zM45 24h1v1h-1z"/><path fill="#C3E0E9" d="M46 24h1v1h-1z"/><path fill="#AFD6E2" d="M47 24h1v1h-1z"/><path fill="#AAD4E1" d="M48 24h1v1h-1z"/><path fill="#5DADCC" d="M49 24h1v1h-1z"/><path fill="#3E5E6A" d="M50 24h1v1h-1z"/><path fill="#231815" d="M51 24h1v1h-1zM52 24h1v1h-1zM53 24h1v1h-1zM54 24h1v1h-1zM55 24h1v1h-1zM56 24h1v1h-1zM12 25h1v1h-1zM13 25h1v1h-1zM14 25h1v1h-1zM15 25h1v1h-1z"/><path fill="#E4E2E2" d="M16 25h1v1h-1z"/><path fill="#FFF" d="M17 25h1v1h-1zM18 25h1v1h-1zM19 25h1v1h-1zM20 25h1v1h-1zM21 25h1v1h-1zM22 25h1v1h-1zM23 25h1v1h-1zM24 25h1v1h-1zM25 25h1v1h-1zM26 25h1v1h-1zM27 25h1v1h-1zM28 25h1v1h-1zM29 25h1v1h-1zM30 25h1v1h-1zM31 25h1v1h-1zM32 25h1v1h-1zM33 25h1v1h-1zM34 25h1v1h-1zM35 25h1v1h-1zM36 25h1v1h-1zM37 25h1v1h-1zM38 25h1v1h-1zM39 25h1v1h-1zM40 25h1v1h-1zM41 25h1v1h-1zM42 25h1v1h-1zM43 25h1v1h-1zM44 25h1v1h-1zM45 25h1v1h-1z"/><path fill="#C3E0E9" d="M46 25h1v1h-1z"/><path fill="#AFD6E2" d="M47 25h1v1h-1z"/><path fill="#92CADE" d="M48 25h1v1h-1z"/><path fill="#61B7D8" d="M49 25h1v1h-1zM50 25h1v1h-1z"/><path fill="#528FA7" d="M51 25h1v1h-1z"/><path fill="#35302F" d="M52 25h1v1h-1z"/><path fill="#231815" d="M53 25h1v1h-1zM54 25h1v1h-1zM55 25h1v1h-1zM56 25h1v1h-1zM57 25h1v1h-1zM12 26h1v1h-1zM13 26h1v1h-1zM14 26h1v1h-1z"/><path fill="#4C4341" d="M15 26h1v1h-1z"/><path fill="#FFF" d="M16 26h1v1h-1zM17 26h1v1h-1zM18 26h1v1h-1zM19 26h1v1h-1zM20 26h1v1h-1zM21 26h1v1h-1zM22 26h1v1h-1zM23 26h1v1h-1zM24 26h1v1h-1zM25 26h1v1h-1zM26 26h1v1h-1zM27 26h1v1h-1zM28 26h1v1h-1zM29 26h1v1h-1zM30 26h1v1h-1zM31 26h1v1h-1zM32 26h1v1h-1zM33 26h1v1h-1zM34 26h1v1h-1zM35 26h1v1h-1zM36 26h1v1h-1zM37 26h1v1h-1zM38 26h1v1h-1zM39 26h1v1h-1zM40 26h1v1h-1zM41 26h1v1h-1zM42 26h1v1h-1zM43 26h1v1h-1zM44 26h1v1h-1zM45 26h1v1h-1z"/><path fill="#AFD6E2" d="M46 26h1v1h-1zM47 26h1v1h-1z"/><path fill="#6BBBD9" d="M48 26h1v1h-1z"/><path fill="#61B7D8" d="M49 26h1v1h-1zM50 26h1v1h-1z"/><path fill="#75BFDB" d="M51 26h1v1h-1z"/><path fill="#A6CAD5" d="M52 26h1v1h-1z"/><path fill="#464848" d="M53 26h1v1h-1z"/><path fill="#231815" d="M54 26h1v1h-1zM55 26h1v1h-1zM56 26h1v1h-1zM57 26h1v1h-1zM58 26h1v1h-1zM10 27h1v1h-1zM11 27h1v1h-1zM12 27h1v1h-1zM13 27h1v1h-1zM14 27h1v1h-1z"/><path fill="#837D7B" d="M15 27h1v1h-1z"/><path fill="#FFF" d="M16 27h1v1h-1zM17 27h1v1h-1zM18 27h1v1h-1zM19 27h1v1h-1zM20 27h1v1h-1zM21 27h1v1h-1zM22 27h1v1h-1zM23 27h1v1h-1zM24 27h1v1h-1zM25 27h1v1h-1zM26 27h1v1h-1zM27 27h1v1h-1zM28 27h1v1h-1zM29 27h1v1h-1zM30 27h1v1h-1zM31 27h1v1h-1zM32 27h1v1h-1zM33 27h1v1h-1zM34 27h1v1h-1zM35 27h1v1h-1zM36 27h1v1h-1zM37 27h1v1h-1zM38 27h1v1h-1zM39 27h1v1h-1zM40 27h1v1h-1zM41 27h1v1h-1zM42 27h1v1h-1zM43 27h1v1h-1zM44 27h1v1h-1z"/><path fill="#F0F7FA" d="M45 27h1v1h-1z"/><path fill="#AFD6E2" d="M46 27h1v1h-1z"/><path fill="#8DC8DE" d="M47 27h1v1h-1z"/><path fill="#61B7D8" d="M48 27h1v1h-1zM49 27h1v1h-1zM50 27h1v1h-1z"/><path fill="#92CADE" d="M51 27h1v1h-1z"/><path fill="#AFD6E2" d="M52 27h1v1h-1zM53 27h1v1h-1z"/><path fill="#585F62" d="M54 27h1v1h-1z"/><path fill="#231815" d="M55 27h1v1h-1zM56 27h1v1h-1zM57 27h1v1h-1zM58 27h1v1h-1zM59 27h1v1h-1zM9 28h1v1H9zM10 28h1v1h-1zM11 28h1v1h-1zM12 28h1v1h-1zM13 28h1v1h-1zM14 28h1v1h-1z"/><path fill="#93A5AC" d="M15 28h1v1h-1z"/><path fill="#FFF" d="M16 28h1v1h-1zM17 28h1v1h-1zM18 28h1v1h-1zM19 28h1v1h-1zM20 28h1v1h-1zM21 28h1v1h-1zM22 28h1v1h-1zM23 28h1v1h-1zM24 28h1v1h-1zM25 28h1v1h-1zM26 28h1v1h-1zM27 28h1v1h-1zM28 28h1v1h-1zM29 28h1v1h-1zM30 28h1v1h-1zM31 28h1v1h-1zM32 28h1v1h-1zM33 28h1v1h-1zM34 28h1v1h-1zM35 28h1v1h-1zM36 28h1v1h-1zM37 28h1v1h-1zM38 28h1v1h-1zM39 28h1v1h-1zM40 28h1v1h-1zM41 28h1v1h-1zM42 28h1v1h-1zM43 28h1v1h-1zM44 28h1v1h-1z"/><path fill="#DCEDF2" d="M45 28h1v1h-1z"/><path fill="#A0D0E0" d="M46 28h1v1h-1z"/><path fill="#66B9D9" d="M47 28h1v1h-1z"/><path fill="#61B7D8" d="M48 28h1v1h-1zM49 28h1v1h-1z"/><path fill="#6BBBD9" d="M50 28h1v1h-1z"/><path fill="#AFD6E2" d="M51 28h1v1h-1zM52 28h1v1h-1zM53 28h1v1h-1zM54 28h1v1h-1z"/><path fill="#585F62" d="M55 28h1v1h-1z"/><path fill="#231815" d="M56 28h1v1h-1zM57 28h1v1h-1zM58 28h1v1h-1zM59 28h1v1h-1zM8 29h1v1H8zM9 29h1v1H9zM10 29h1v1h-1zM11 29h1v1h-1zM12 29h1v1h-1z"/><path fill="#2F363A" d="M13 29h1v1h-1z"/><path fill="#528FA7" d="M14 29h1v1h-1z"/><path fill="#7FC5DF" d="M15 29h1v1h-1z"/><path fill="#FFF" d="M16 29h1v1h-1zM17 29h1v1h-1zM18 29h1v1h-1zM19 29h1v1h-1zM20 29h1v1h-1zM21 29h1v1h-1zM22 29h1v1h-1zM23 29h1v1h-1zM24 29h1v1h-1zM25 29h1v1h-1zM26 29h1v1h-1zM27 29h1v1h-1zM28 29h1v1h-1zM29 29h1v1h-1zM30 29h1v1h-1zM31 29h1v1h-1zM32 29h1v1h-1zM33 29h1v1h-1zM34 29h1v1h-1zM35 29h1v1h-1zM36 29h1v1h-1zM37 29h1v1h-1zM38 29h1v1h-1zM39 29h1v1h-1zM40 29h1v1h-1zM41 29h1v1h-1zM42 29h1v1h-1zM43 29h1v1h-1zM44 29h1v1h-1z"/><path fill="#AAD5E4" d="M45 29h1v1h-1z"/><path fill="#66B9D9" d="M46 29h1v1h-1z"/><path fill="#61B7D8" d="M47 29h1v1h-1zM48 29h1v1h-1zM49 29h1v1h-1z"/><path fill="#9CCEE0" d="M50 29h1v1h-1z"/><path fill="#AFD6E2" d="M51 29h1v1h-1zM52 29h1v1h-1zM53 29h1v1h-1zM54 29h1v1h-1zM55 29h1v1h-1z"/><path fill="#4F5355" d="M56 29h1v1h-1z"/><path fill="#231815" d="M57 29h1v1h-1zM58 29h1v1h-1zM59 29h1v1h-1zM60 29h1v1h-1zM7 30h1v1H7zM8 30h1v1H8zM9 30h1v1H9zM10 30h1v1h-1zM11 30h1v1h-1z"/><path fill="#5A717A" d="M12 30h1v1h-1z"/><path fill="#61B7D8" d="M13 30h1v1h-1zM14 30h1v1h-1zM15 30h1v1h-1z"/><path fill="#D8EDF5" d="M16 30h1v1h-1z"/><path fill="#FFF" d="M17 30h1v1h-1zM18 30h1v1h-1zM19 30h1v1h-1zM20 30h1v1h-1zM21 30h1v1h-1zM22 30h1v1h-1zM23 30h1v1h-1zM24 30h1v1h-1zM25 30h1v1h-1zM26 30h1v1h-1zM27 30h1v1h-1zM28 30h1v1h-1zM29 30h1v1h-1zM30 30h1v1h-1zM31 30h1v1h-1zM32 30h1v1h-1zM33 30h1v1h-1zM34 30h1v1h-1zM35 30h1v1h-1zM36 30h1v1h-1zM37 30h1v1h-1zM38 30h1v1h-1zM39 30h1v1h-1zM40 30h1v1h-1zM41 30h1v1h-1zM42 30h1v1h-1zM43 30h1v1h-1z"/><path fill="#CDE7F0" d="M44 30h1v1h-1z"/><path fill="#66B9D9" d="M45 30h1v1h-1z"/><path fill="#61B7D8" d="M46 30h1v1h-1zM47 30h1v1h-1zM48 30h1v1h-1z"/><path fill="#A1D4E7" d="M49 30h1v1h-1z"/><path fill="#EBF5F8" d="M50 30h1v1h-1z"/><path fill="#D2E8EF" d="M51 30h1v1h-1z"/><path fill="#B4D9E4" d="M52 30h1v1h-1z"/><path fill="#AFD6E2" d="M53 30h1v1h-1zM54 30h1v1h-1zM55 30h1v1h-1z"/><path fill="#A6CAD5" d="M56 30h1v1h-1z"/><path fill="#3D3C3B" d="M57 30h1v1h-1z"/><path fill="#231815" d="M58 30h1v1h-1zM59 30h1v1h-1zM60 30h1v1h-1zM61 30h1v1h-1zM6 31h1v1H6zM7 31h1v1H7zM8 31h1v1H8zM9 31h1v1H9zM10 31h1v1h-1z"/><path fill="#7B8F95" d="M11 31h1v1h-1z"/><path fill="#AFD6E2" d="M12 31h1v1h-1z"/><path fill="#66B9D9" d="M13 31h1v1h-1z"/><path fill="#61B7D8" d="M14 31h1v1h-1zM15 31h1v1h-1z"/><path fill="#75C0DD" d="M16 31h1v1h-1z"/><path fill="#F5FBFD" d="M17 31h1v1h-1z"/><path fill="#FFF" d="M18 31h1v1h-1zM19 31h1v1h-1zM20 31h1v1h-1zM21 31h1v1h-1zM22 31h1v1h-1zM23 31h1v1h-1zM24 31h1v1h-1zM25 31h1v1h-1zM26 31h1v1h-1zM27 31h1v1h-1zM28 31h1v1h-1zM29 31h1v1h-1zM30 31h1v1h-1zM31 31h1v1h-1zM32 31h1v1h-1zM33 31h1v1h-1zM34 31h1v1h-1zM35 31h1v1h-1zM36 31h1v1h-1zM37 31h1v1h-1zM38 31h1v1h-1zM39 31h1v1h-1zM40 31h1v1h-1zM41 31h1v1h-1z"/><path fill="#F5FBFD" d="M42 31h1v1h-1z"/><path fill="#B0DBEC" d="M43 31h1v1h-1z"/><path fill="#61B7D8" d="M44 31h1v1h-1zM45 31h1v1h-1zM46 31h1v1h-1zM47 31h1v1h-1z"/><path fill="#9CD2E7" d="M48 31h1v1h-1z"/><path fill="#FFF" d="M49 31h1v1h-1zM50 31h1v1h-1zM51 31h1v1h-1z"/><path fill="#FAFCFD" d="M52 31h1v1h-1z"/><path fill="#D7EBF1" d="M53 31h1v1h-1z"/><path fill="#AFD6E2" d="M54 31h1v1h-1zM55 31h1v1h-1zM56 31h1v1h-1z"/><path fill="#95B2BC" d="M57 31h1v1h-1z"/><path fill="#231815" d="M58 31h1v1h-1zM59 31h1v1h-1zM60 31h1v1h-1zM61 31h1v1h-1zM5 32h1v1H5zM6 32h1v1H6zM7 32h1v1H7zM8 32h1v1H8zM9 32h1v1H9z"/><path fill="#7B8F95" d="M10 32h1v1h-1z"/><path fill="#AFD6E2" d="M11 32h1v1h-1zM12 32h1v1h-1z"/><path fill="#8DC8DE" d="M13 32h1v1h-1z"/><path fill="#61B7D8" d="M14 32h1v1h-1zM15 32h1v1h-1zM16 32h1v1h-1z"/><path fill="#7FC5DF" d="M17 32h1v1h-1z"/><path fill="#F5FBFD" d="M18 32h1v1h-1z"/><path fill="#FFF" d="M19 32h1v1h-1zM20 32h1v1h-1zM21 32h1v1h-1zM22 32h1v1h-1zM23 32h1v1h-1zM24 32h1v1h-1zM25 32h1v1h-1zM26 32h1v1h-1zM27 32h1v1h-1zM28 32h1v1h-1zM29 32h1v1h-1zM30 32h1v1h-1zM31 32h1v1h-1zM32 32h1v1h-1zM33 32h1v1h-1zM34 32h1v1h-1zM35 32h1v1h-1zM36 32h1v1h-1zM37 32h1v1h-1zM38 32h1v1h-1zM39 32h1v1h-1z"/><path fill="#F5FBFD" d="M40 32h1v1h-1z"/><path fill="#9CD2E7" d="M41 32h1v1h-1z"/><path fill="#6BBCDA" d="M42 32h1v1h-1z"/><path fill="#61B7D8" d="M43 32h1v1h-1zM44 32h1v1h-1zM45 32h1v1h-1zM46 32h1v1h-1z"/><path fill="#9CD2E7" d="M47 32h1v1h-1z"/><path fill="#FFF" d="M48 32h1v1h-1zM49 32h1v1h-1zM50 32h1v1h-1zM51 32h1v1h-1zM52 32h1v1h-1zM53 32h1v1h-1z"/><path fill="#F0F7FA" d="M54 32h1v1h-1z"/><path fill="#B4D9E4" d="M55 32h1v1h-1z"/><path fill="#AFD6E2" d="M56 32h1v1h-1zM57 32h1v1h-1z"/><path fill="#606B6F" d="M58 32h1v1h-1z"/><path fill="#231815" d="M59 32h1v1h-1zM60 32h1v1h-1zM61 32h1v1h-1zM62 32h1v1h-1zM4 33h1v1H4zM5 33h1v1H5zM6 33h1v1H6zM7 33h1v1H7zM8 33h1v1H8z"/><path fill="#7B8F95" d="M9 33h1v1H9z"/><path fill="#B4D9E4" d="M10 33h1v1h-1z"/><path fill="#D2E8EF" d="M11 33h1v1h-1z"/><path fill="#EBF5F8" d="M12 33h1v1h-1zM13 33h1v1h-1z"/><path fill="#89C9E2" d="M14 33h1v1h-1z"/><path fill="#61B7D8" d="M15 33h1v1h-1zM16 33h1v1h-1zM17 33h1v1h-1z"/><path fill="#7FC5DF" d="M18 33h1v1h-1z"/><path fill="#E1F2F8" d="M19 33h1v1h-1z"/><path fill="#FFF" d="M20 33h1v1h-1zM21 33h1v1h-1zM22 33h1v1h-1zM23 33h1v1h-1zM24 33h1v1h-1zM25 33h1v1h-1zM26 33h1v1h-1zM27 33h1v1h-1zM28 33h1v1h-1zM29 33h1v1h-1zM30 33h1v1h-1zM31 33h1v1h-1zM32 33h1v1h-1zM33 33h1v1h-1zM34 33h1v1h-1zM35 33h1v1h-1zM36 33h1v1h-1zM37 33h1v1h-1zM38 33h1v1h-1zM39 33h1v1h-1z"/><path fill="#A6D7E9" d="M40 33h1v1h-1z"/><path fill="#61B7D8" d="M41 33h1v1h-1zM42 33h1v1h-1zM43 33h1v1h-1zM44 33h1v1h-1zM45 33h1v1h-1z"/><path fill="#B0DBEC" d="M46 33h1v1h-1z"/><path fill="#FFF" d="M47 33h1v1h-1zM48 33h1v1h-1zM49 33h1v1h-1zM50 33h1v1h-1zM51 33h1v1h-1zM52 33h1v1h-1zM53 33h1v1h-1zM54 33h1v1h-1z"/><path fill="#F0F7FA" d="M55 33h1v1h-1z"/><path fill="#B4D9E4" d="M56 33h1v1h-1z"/><path fill="#AFD6E2" d="M57 33h1v1h-1z"/><path fill="#9EBEC8" d="M58 33h1v1h-1z"/><path fill="#231815" d="M59 33h1v1h-1zM60 33h1v1h-1zM61 33h1v1h-1zM62 33h1v1h-1zM4 34h1v1H4zM5 34h1v1H5zM6 34h1v1H6zM7 34h1v1H7z"/><path fill="#69777C" d="M8 34h1v1H8z"/><path fill="#D2E8EF" d="M9 34h1v1H9z"/><path fill="#FAFCFD" d="M10 34h1v1h-1z"/><path fill="#FFF" d="M11 34h1v1h-1zM12 34h1v1h-1zM13 34h1v1h-1z"/><path fill="#F5FBFD" d="M14 34h1v1h-1z"/><path fill="#7FC5DF" d="M15 34h1v1h-1z"/><path fill="#61B7D8" d="M16 34h1v1h-1zM17 34h1v1h-1zM18 34h1v1h-1z"/><path fill="#6BBCDA" d="M19 34h1v1h-1z"/><path fill="#BAE0EE" d="M20 34h1v1h-1z"/><path fill="#FFF" d="M21 34h1v1h-1zM22 34h1v1h-1zM23 34h1v1h-1zM24 34h1v1h-1zM25 34h1v1h-1zM26 34h1v1h-1zM27 34h1v1h-1zM28 34h1v1h-1zM29 34h1v1h-1zM30 34h1v1h-1zM31 34h1v1h-1zM32 34h1v1h-1zM33 34h1v1h-1zM34 34h1v1h-1zM35 34h1v1h-1zM36 34h1v1h-1zM37 34h1v1h-1zM38 34h1v1h-1zM39 34h1v1h-1z"/><path fill="#A6D7E9" d="M40 34h1v1h-1z"/><path fill="#61B7D8" d="M41 34h1v1h-1zM42 34h1v1h-1zM43 34h1v1h-1z"/><path fill="#89C9E2" d="M44 34h1v1h-1z"/><path fill="#EBF6FA" d="M45 34h1v1h-1z"/><path fill="#FFF" d="M46 34h1v1h-1zM47 34h1v1h-1zM48 34h1v1h-1zM49 34h1v1h-1zM50 34h1v1h-1zM51 34h1v1h-1zM52 34h1v1h-1zM53 34h1v1h-1zM54 34h1v1h-1zM55 34h1v1h-1z"/><path fill="#E1F0F4" d="M56 34h1v1h-1z"/><path fill="#AFD6E2" d="M57 34h1v1h-1zM58 34h1v1h-1z"/><path fill="#4F5355" d="M59 34h1v1h-1z"/><path fill="#231815" d="M60 34h1v1h-1zM61 34h1v1h-1zM62 34h1v1h-1zM3 35h1v1H3zM4 35h1v1H4zM5 35h1v1H5zM6 35h1v1H6z"/><path fill="#4B4A4A" d="M7 35h1v1H7z"/><path fill="#E1F0F4" d="M8 35h1v1H8z"/><path fill="#FFF" d="M9 35h1v1H9zM10 35h1v1h-1zM11 35h1v1h-1zM12 35h1v1h-1zM13 35h1v1h-1zM14 35h1v1h-1z"/><path fill="#F5FBFD" d="M15 35h1v1h-1z"/><path fill="#7FC5DF" d="M16 35h1v1h-1z"/><path fill="#61B7D8" d="M17 35h1v1h-1zM18 35h1v1h-1zM19 35h1v1h-1zM20 35h1v1h-1z"/><path fill="#7FC5DF" d="M21 35h1v1h-1z"/><path fill="#D8EDF5" d="M22 35h1v1h-1z"/><path fill="#FFF" d="M23 35h1v1h-1zM24 35h1v1h-1zM25 35h1v1h-1zM26 35h1v1h-1zM27 35h1v1h-1zM28 35h1v1h-1zM29 35h1v1h-1zM30 35h1v1h-1zM31 35h1v1h-1zM32 35h1v1h-1zM33 35h1v1h-1zM34 35h1v1h-1zM35 35h1v1h-1zM36 35h1v1h-1zM37 35h1v1h-1zM38 35h1v1h-1zM39 35h1v1h-1z"/><path fill="#F5FBFD" d="M40 35h1v1h-1z"/><path fill="#B0DBEC" d="M41 35h1v1h-1zM42 35h1v1h-1z"/><path fill="#EBF6FA" d="M43 35h1v1h-1z"/><path fill="#FFF" d="M44 35h1v1h-1zM45 35h1v1h-1zM46 35h1v1h-1zM47 35h1v1h-1zM48 35h1v1h-1zM49 35h1v1h-1zM50 35h1v1h-1zM51 35h1v1h-1zM52 35h1v1h-1zM53 35h1v1h-1zM54 35h1v1h-1zM55 35h1v1h-1zM56 35h1v1h-1z"/><path fill="#BEDEE7" d="M57 35h1v1h-1z"/><path fill="#AFD6E2" d="M58 35h1v1h-1z"/><path fill="#7B8F95" d="M59 35h1v1h-1z"/><path fill="#231815" d="M60 35h1v1h-1zM61 35h1v1h-1zM62 35h1v1h-1zM3 36h1v1H3zM4 36h1v1H4zM5 36h1v1H5z"/><path fill="#312624" d="M6 36h1v1H6z"/><path fill="#DFE0E0" d="M7 36h1v1H7z"/><path fill="#FFF" d="M8 36h1v1H8zM9 36h1v1H9zM10 36h1v1h-1zM11 36h1v1h-1zM12 36h1v1h-1zM13 36h1v1h-1zM14 36h1v1h-1zM15 36h1v1h-1zM16 36h1v1h-1z"/><path fill="#A6D7E9" d="M17 36h1v1h-1z"/><path fill="#61B7D8" d="M18 36h1v1h-1zM19 36h1v1h-1zM20 36h1v1h-1zM21 36h1v1h-1zM22 36h1v1h-1z"/><path fill="#89C9E2" d="M23 36h1v1h-1z"/><path fill="#C4E4F0" d="M24 36h1v1h-1z"/><path fill="#FFF" d="M25 36h1v1h-1zM26 36h1v1h-1zM27 36h1v1h-1zM28 36h1v1h-1zM29 36h1v1h-1zM30 36h1v1h-1zM31 36h1v1h-1zM32 36h1v1h-1zM33 36h1v1h-1zM34 36h1v1h-1zM35 36h1v1h-1zM36 36h1v1h-1zM37 36h1v1h-1zM38 36h1v1h-1zM39 36h1v1h-1zM40 36h1v1h-1zM41 36h1v1h-1zM42 36h1v1h-1zM43 36h1v1h-1zM44 36h1v1h-1zM45 36h1v1h-1zM46 36h1v1h-1zM47 36h1v1h-1zM48 36h1v1h-1zM49 36h1v1h-1zM50 36h1v1h-1zM51 36h1v1h-1zM52 36h1v1h-1zM53 36h1v1h-1zM54 36h1v1h-1zM55 36h1v1h-1zM56 36h1v1h-1z"/><path fill="#E1F0F4" d="M57 36h1v1h-1z"/><path fill="#AFD6E2" d="M58 36h1v1h-1z"/><path fill="#8CA7AF" d="M59 36h1v1h-1z"/><path fill="#231815" d="M60 36h1v1h-1zM61 36h1v1h-1zM62 36h1v1h-1zM2 37h1v1H2zM3 37h1v1H3zM4 37h1v1H4zM5 37h1v1H5z"/><path fill="#9F9A99" d="M6 37h1v1H6z"/><path fill="#FFF" d="M7 37h1v1H7zM8 37h1v1H8zM9 37h1v1H9zM10 37h1v1h-1zM11 37h1v1h-1zM12 37h1v1h-1zM13 37h1v1h-1zM14 37h1v1h-1zM15 37h1v1h-1zM16 37h1v1h-1zM17 37h1v1h-1z"/><path fill="#D8EDF5" d="M18 37h1v1h-1z"/><path fill="#75C0DD" d="M19 37h1v1h-1z"/><path fill="#61B7D8" d="M20 37h1v1h-1zM21 37h1v1h-1zM22 37h1v1h-1zM23 37h1v1h-1zM24 37h1v1h-1z"/><path fill="#6BBCDA" d="M25 37h1v1h-1z"/><path fill="#9CD2E7" d="M26 37h1v1h-1z"/><path fill="#C4E4F0" d="M27 37h1v1h-1z"/><path fill="#E1F2F8" d="M28 37h1v1h-1z"/><path fill="#FFF" d="M29 37h1v1h-1zM30 37h1v1h-1zM31 37h1v1h-1zM32 37h1v1h-1zM33 37h1v1h-1zM34 37h1v1h-1zM35 37h1v1h-1zM36 37h1v1h-1zM37 37h1v1h-1zM38 37h1v1h-1zM39 37h1v1h-1zM40 37h1v1h-1zM41 37h1v1h-1zM42 37h1v1h-1zM43 37h1v1h-1zM44 37h1v1h-1zM45 37h1v1h-1zM46 37h1v1h-1zM47 37h1v1h-1zM48 37h1v1h-1zM49 37h1v1h-1zM50 37h1v1h-1zM51 37h1v1h-1zM52 37h1v1h-1zM53 37h1v1h-1zM54 37h1v1h-1zM55 37h1v1h-1zM56 37h1v1h-1z"/><path fill="#F5FAFB" d="M57 37h1v1h-1z"/><path fill="#AFD6E2" d="M58 37h1v1h-1z"/><path fill="#8CA7AF" d="M59 37h1v1h-1z"/><path fill="#231815" d="M60 37h1v1h-1zM61 37h1v1h-1zM62 37h1v1h-1zM2 38h1v1H2zM3 38h1v1H3zM4 38h1v1H4z"/><path fill="#3F3532" d="M5 38h1v1H5z"/><path fill="#FFF" d="M6 38h1v1H6zM7 38h1v1H7zM8 38h1v1H8zM9 38h1v1H9zM10 38h1v1h-1zM11 38h1v1h-1zM12 38h1v1h-1zM13 38h1v1h-1zM14 38h1v1h-1zM15 38h1v1h-1zM16 38h1v1h-1zM17 38h1v1h-1zM18 38h1v1h-1zM19 38h1v1h-1z"/><path fill="#BAE0EE" d="M20 38h1v1h-1z"/><path fill="#6BBCDA" d="M21 38h1v1h-1z"/><path fill="#61B7D8" d="M22 38h1v1h-1zM23 38h1v1h-1zM24 38h1v1h-1zM25 38h1v1h-1zM26 38h1v1h-1zM27 38h1v1h-1zM28 38h1v1h-1zM29 38h1v1h-1zM30 38h1v1h-1z"/><path fill="#B0DBEC" d="M31 38h1v1h-1z"/><path fill="#FFF" d="M32 38h1v1h-1zM33 38h1v1h-1zM34 38h1v1h-1zM35 38h1v1h-1zM36 38h1v1h-1zM37 38h1v1h-1zM38 38h1v1h-1zM39 38h1v1h-1zM40 38h1v1h-1zM41 38h1v1h-1zM42 38h1v1h-1zM43 38h1v1h-1zM44 38h1v1h-1zM45 38h1v1h-1zM46 38h1v1h-1zM47 38h1v1h-1zM48 38h1v1h-1zM49 38h1v1h-1zM50 38h1v1h-1zM51 38h1v1h-1zM52 38h1v1h-1zM53 38h1v1h-1zM54 38h1v1h-1zM55 38h1v1h-1zM56 38h1v1h-1zM57 38h1v1h-1z"/><path fill="#AFD6E2" d="M58 38h1v1h-1z"/><path fill="#8CA7AF" d="M59 38h1v1h-1z"/><path fill="#231815" d="M60 38h1v1h-1zM61 38h1v1h-1zM62 38h1v1h-1zM1 39h1v1H1zM2 39h1v1H2zM3 39h1v1H3zM4 39h1v1H4z"/><path fill="#ADA8A7" d="M5 39h1v1H5z"/><path fill="#FFF" d="M6 39h1v1H6zM7 39h1v1H7zM8 39h1v1H8zM9 39h1v1H9zM10 39h1v1h-1zM11 39h1v1h-1zM12 39h1v1h-1zM13 39h1v1h-1zM14 39h1v1h-1zM15 39h1v1h-1zM16 39h1v1h-1zM17 39h1v1h-1zM18 39h1v1h-1zM19 39h1v1h-1zM20 39h1v1h-1zM21 39h1v1h-1z"/><path fill="#C4E4F0" d="M22 39h1v1h-1z"/><path fill="#7FC5DF" d="M23 39h1v1h-1z"/><path fill="#61B7D8" d="M24 39h1v1h-1zM25 39h1v1h-1zM26 39h1v1h-1zM27 39h1v1h-1zM28 39h1v1h-1zM29 39h1v1h-1zM30 39h1v1h-1zM31 39h1v1h-1z"/><path fill="#FFF" d="M32 39h1v1h-1zM33 39h1v1h-1zM34 39h1v1h-1zM35 39h1v1h-1zM36 39h1v1h-1zM37 39h1v1h-1zM38 39h1v1h-1zM39 39h1v1h-1zM40 39h1v1h-1zM41 39h1v1h-1zM42 39h1v1h-1zM43 39h1v1h-1zM44 39h1v1h-1zM45 39h1v1h-1zM46 39h1v1h-1zM47 39h1v1h-1zM48 39h1v1h-1zM49 39h1v1h-1zM50 39h1v1h-1zM51 39h1v1h-1zM52 39h1v1h-1zM53 39h1v1h-1zM54 39h1v1h-1zM55 39h1v1h-1zM56 39h1v1h-1zM57 39h1v1h-1z"/><path fill="#AFD6E2" d="M58 39h1v1h-1z"/><path fill="#728388" d="M59 39h1v1h-1z"/><path fill="#231815" d="M60 39h1v1h-1zM61 39h1v1h-1zM62 39h1v1h-1zM63 39h1v1h-1zM1 40h1v1H1zM2 40h1v1H2zM3 40h1v1H3z"/><path fill="#3F3532" d="M4 40h1v1H4z"/><path fill="#FFF" d="M5 40h1v1H5zM6 40h1v1H6zM7 40h1v1H7zM8 40h1v1H8zM9 40h1v1H9zM10 40h1v1h-1zM11 40h1v1h-1zM12 40h1v1h-1zM13 40h1v1h-1zM14 40h1v1h-1zM15 40h1v1h-1zM16 40h1v1h-1zM17 40h1v1h-1zM18 40h1v1h-1z"/><path fill="#F0F7FA" d="M19 40h1v1h-1z"/><path fill="#C3E0E9" d="M20 40h1v1h-1z"/><path fill="#CDE5ED" d="M21 40h1v1h-1z"/><path fill="#FAFCFD" d="M22 40h1v1h-1z"/><path fill="#FFF" d="M23 40h1v1h-1z"/><path fill="#E1F2F8" d="M24 40h1v1h-1z"/><path fill="#B0DBEC" d="M25 40h1v1h-1z"/><path fill="#89C9E2" d="M26 40h1v1h-1z"/><path fill="#61B7D8" d="M27 40h1v1h-1zM28 40h1v1h-1zM29 40h1v1h-1zM30 40h1v1h-1z"/><path fill="#89C9E2" d="M31 40h1v1h-1z"/><path fill="#FFF" d="M32 40h1v1h-1zM33 40h1v1h-1zM34 40h1v1h-1zM35 40h1v1h-1zM36 40h1v1h-1zM37 40h1v1h-1zM38 40h1v1h-1zM39 40h1v1h-1zM40 40h1v1h-1zM41 40h1v1h-1zM42 40h1v1h-1zM43 40h1v1h-1zM44 40h1v1h-1z"/><path fill="#FAFCFD" d="M45 40h1v1h-1z"/><path fill="#C3E0E9" d="M46 40h1v1h-1z"/><path fill="#B4D9E4" d="M47 40h1v1h-1z"/><path fill="#E1F0F4" d="M48 40h1v1h-1z"/><path fill="#FFF" d="M49 40h1v1h-1zM50 40h1v1h-1zM51 40h1v1h-1zM52 40h1v1h-1zM53 40h1v1h-1zM54 40h1v1h-1zM55 40h1v1h-1zM56 40h1v1h-1zM57 40h1v1h-1z"/><path fill="#B4D9E4" d="M58 40h1v1h-1z"/><path fill="#69777C" d="M59 40h1v1h-1z"/><path fill="#231815" d="M60 40h1v1h-1zM61 40h1v1h-1zM62 40h1v1h-1zM63 40h1v1h-1zM1 41h1v1H1zM2 41h1v1H2zM3 41h1v1H3z"/><path fill="#837D7B" d="M4 41h1v1H4z"/><path fill="#FFF" d="M5 41h1v1H5zM6 41h1v1H6zM7 41h1v1H7zM8 41h1v1H8zM9 41h1v1H9zM10 41h1v1h-1zM11 41h1v1h-1zM12 41h1v1h-1zM13 41h1v1h-1zM14 41h1v1h-1zM15 41h1v1h-1zM16 41h1v1h-1zM17 41h1v1h-1zM18 41h1v1h-1z"/><path fill="#C3E0E9" d="M19 41h1v1h-1z"/><path fill="#AFD6E2" d="M20 41h1v1h-1zM21 41h1v1h-1z"/><path fill="#E1F0F4" d="M22 41h1v1h-1z"/><path fill="#FFF" d="M23 41h1v1h-1zM24 41h1v1h-1zM25 41h1v1h-1zM26 41h1v1h-1zM27 41h1v1h-1z"/><path fill="#E1F2F8" d="M28 41h1v1h-1z"/><path fill="#D8EDF5" d="M29 41h1v1h-1zM30 41h1v1h-1z"/><path fill="#F5FBFD" d="M31 41h1v1h-1z"/><path fill="#FFF" d="M32 41h1v1h-1zM33 41h1v1h-1zM34 41h1v1h-1zM35 41h1v1h-1zM36 41h1v1h-1zM37 41h1v1h-1zM38 41h1v1h-1zM39 41h1v1h-1zM40 41h1v1h-1zM41 41h1v1h-1zM42 41h1v1h-1zM43 41h1v1h-1zM44 41h1v1h-1z"/><path fill="#DCEDF2" d="M45 41h1v1h-1z"/><path fill="#AFD6E2" d="M46 41h1v1h-1zM47 41h1v1h-1z"/><path fill="#C3E0E9" d="M48 41h1v1h-1z"/><path fill="#FFF" d="M49 41h1v1h-1zM50 41h1v1h-1zM51 41h1v1h-1zM52 41h1v1h-1zM53 41h1v1h-1zM54 41h1v1h-1zM55 41h1v1h-1zM56 41h1v1h-1zM57 41h1v1h-1z"/><path fill="#FAFCFD" d="M58 41h1v1h-1z"/><path fill="#B5D2DB" d="M59 41h1v1h-1z"/><path fill="#3D3C3B" d="M60 41h1v1h-1z"/><path fill="#231815" d="M61 41h1v1h-1zM62 41h1v1h-1zM63 41h1v1h-1zM64 41h1v1h-1zM0 42h1v1H0zM1 42h1v1H1zM2 42h1v1H2zM3 42h1v1H3z"/><path fill="#D6D4D3" d="M4 42h1v1H4z"/><path fill="#FFF" d="M5 42h1v1H5zM6 42h1v1H6zM7 42h1v1H7zM8 42h1v1H8zM9 42h1v1H9zM10 42h1v1h-1zM11 42h1v1h-1zM12 42h1v1h-1zM13 42h1v1h-1zM14 42h1v1h-1zM15 42h1v1h-1zM16 42h1v1h-1zM17 42h1v1h-1zM18 42h1v1h-1z"/><path fill="#C3E0E9" d="M19 42h1v1h-1z"/><path fill="#AFD6E2" d="M20 42h1v1h-1zM21 42h1v1h-1z"/><path fill="#D7EBF1" d="M22 42h1v1h-1z"/><path fill="#FFF" d="M23 42h1v1h-1zM24 42h1v1h-1zM25 42h1v1h-1zM26 42h1v1h-1zM27 42h1v1h-1zM28 42h1v1h-1zM29 42h1v1h-1zM30 42h1v1h-1zM31 42h1v1h-1zM32 42h1v1h-1zM33 42h1v1h-1zM34 42h1v1h-1zM35 42h1v1h-1zM36 42h1v1h-1zM37 42h1v1h-1zM38 42h1v1h-1zM39 42h1v1h-1zM40 42h1v1h-1zM41 42h1v1h-1zM42 42h1v1h-1zM43 42h1v1h-1zM44 42h1v1h-1z"/><path fill="#D7EBF1" d="M45 42h1v1h-1z"/><path fill="#AFD6E2" d="M46 42h1v1h-1zM47 42h1v1h-1z"/><path fill="#C3E0E9" d="M48 42h1v1h-1z"/><path fill="#FFF" d="M49 42h1v1h-1zM50 42h1v1h-1zM51 42h1v1h-1zM52 42h1v1h-1zM53 42h1v1h-1zM54 42h1v1h-1zM55 42h1v1h-1zM56 42h1v1h-1zM57 42h1v1h-1zM58 42h1v1h-1z"/><path fill="#FAFCFD" d="M59 42h1v1h-1z"/><path fill="#ABCDD7" d="M60 42h1v1h-1z"/><path fill="#3D3C3B" d="M61 42h1v1h-1z"/><path fill="#231815" d="M62 42h1v1h-1zM63 42h1v1h-1zM64 42h1v1h-1zM65 42h1v1h-1zM0 43h1v1H0zM1 43h1v1H1zM2 43h1v1H2z"/><path fill="#2C2422" d="M3 43h1v1H3z"/><path fill="#FFF" d="M4 43h1v1H4zM5 43h1v1H5zM6 43h1v1H6zM7 43h1v1H7zM8 43h1v1H8zM9 43h1v1H9zM10 43h1v1h-1zM11 43h1v1h-1zM12 43h1v1h-1zM13 43h1v1h-1zM14 43h1v1h-1zM15 43h1v1h-1zM16 43h1v1h-1zM17 43h1v1h-1zM18 43h1v1h-1z"/><path fill="#C3E0E9" d="M19 43h1v1h-1z"/><path fill="#AFD6E2" d="M20 43h1v1h-1zM21 43h1v1h-1z"/><path fill="#D7EBF1" d="M22 43h1v1h-1z"/><path fill="#FFF" d="M23 43h1v1h-1zM24 43h1v1h-1zM25 43h1v1h-1zM26 43h1v1h-1zM27 43h1v1h-1zM28 43h1v1h-1zM29 43h1v1h-1zM30 43h1v1h-1zM31 43h1v1h-1zM32 43h1v1h-1zM33 43h1v1h-1zM34 43h1v1h-1zM35 43h1v1h-1zM36 43h1v1h-1zM37 43h1v1h-1zM38 43h1v1h-1zM39 43h1v1h-1zM40 43h1v1h-1zM41 43h1v1h-1zM42 43h1v1h-1zM43 43h1v1h-1zM44 43h1v1h-1z"/><path fill="#D7EBF1" d="M45 43h1v1h-1z"/><path fill="#AFD6E2" d="M46 43h1v1h-1zM47 43h1v1h-1z"/><path fill="#C3E0E9" d="M48 43h1v1h-1z"/><path fill="#FFF" d="M49 43h1v1h-1zM50 43h1v1h-1zM51 43h1v1h-1zM52 43h1v1h-1zM53 43h1v1h-1zM54 43h1v1h-1zM55 43h1v1h-1zM56 43h1v1h-1zM57 43h1v1h-1zM58 43h1v1h-1zM59 43h1v1h-1z"/><path fill="#E1F0F4" d="M60 43h1v1h-1z"/><path fill="#8CA7AF" d="M61 43h1v1h-1z"/><path fill="#231815" d="M62 43h1v1h-1zM63 43h1v1h-1zM64 43h1v1h-1zM65 43h1v1h-1zM0 44h1v1H0zM1 44h1v1H1zM2 44h1v1H2z"/><path fill="#464848" d="M3 44h1v1H3z"/><path fill="#FAFCFD" d="M4 44h1v1H4z"/><path fill="#FFF" d="M5 44h1v1H5zM6 44h1v1H6zM7 44h1v1H7zM8 44h1v1H8zM9 44h1v1H9zM10 44h1v1h-1zM11 44h1v1h-1zM12 44h1v1h-1zM13 44h1v1h-1zM14 44h1v1h-1zM15 44h1v1h-1zM16 44h1v1h-1zM17 44h1v1h-1zM18 44h1v1h-1z"/><path fill="#C3E0E9" d="M19 44h1v1h-1z"/><path fill="#AFD6E2" d="M20 44h1v1h-1zM21 44h1v1h-1z"/><path fill="#D7EBF1" d="M22 44h1v1h-1z"/><path fill="#FFF" d="M23 44h1v1h-1zM24 44h1v1h-1zM25 44h1v1h-1zM26 44h1v1h-1zM27 44h1v1h-1zM28 44h1v1h-1zM29 44h1v1h-1zM30 44h1v1h-1zM31 44h1v1h-1zM32 44h1v1h-1zM33 44h1v1h-1zM34 44h1v1h-1zM35 44h1v1h-1zM36 44h1v1h-1zM37 44h1v1h-1zM38 44h1v1h-1zM39 44h1v1h-1zM40 44h1v1h-1z"/><path fill="#FAFCFD" d="M41 44h1v1h-1z"/><path fill="#EBF5F8" d="M42 44h1v1h-1zM43 44h1v1h-1zM44 44h1v1h-1z"/><path fill="#CDE5ED" d="M45 44h1v1h-1z"/><path fill="#AFD6E2" d="M46 44h1v1h-1zM47 44h1v1h-1z"/><path fill="#BEDEE7" d="M48 44h1v1h-1z"/><path fill="#EBF5F8" d="M49 44h1v1h-1zM50 44h1v1h-1zM51 44h1v1h-1z"/><path fill="#FFF" d="M52 44h1v1h-1zM53 44h1v1h-1zM54 44h1v1h-1zM55 44h1v1h-1zM56 44h1v1h-1zM57 44h1v1h-1zM58 44h1v1h-1zM59 44h1v1h-1zM60 44h1v1h-1z"/><path fill="#B4D9E4" d="M61 44h1v1h-1z"/><path fill="#464848" d="M62 44h1v1h-1z"/><path fill="#231815" d="M63 44h1v1h-1zM64 44h1v1h-1zM65 44h1v1h-1zM0 45h1v1H0zM1 45h1v1H1zM2 45h1v1H2z"/><path fill="#464848" d="M3 45h1v1H3z"/><path fill="#E1F0F4" d="M4 45h1v1H4z"/><path fill="#FFF" d="M5 45h1v1H5zM6 45h1v1H6zM7 45h1v1H7zM8 45h1v1H8zM9 45h1v1H9zM10 45h1v1h-1zM11 45h1v1h-1zM12 45h1v1h-1zM13 45h1v1h-1z"/><path fill="#EBF5F8" d="M14 45h1v1h-1z"/><path fill="#B4D9E4" d="M15 45h1v1h-1z"/><path fill="#AFD6E2" d="M16 45h1v1h-1zM17 45h1v1h-1zM18 45h1v1h-1zM19 45h1v1h-1zM20 45h1v1h-1zM21 45h1v1h-1zM22 45h1v1h-1zM23 45h1v1h-1zM24 45h1v1h-1z"/><path fill="#B4D9E4" d="M25 45h1v1h-1z"/><path fill="#F5FAFB" d="M26 45h1v1h-1z"/><path fill="#FFF" d="M27 45h1v1h-1zM28 45h1v1h-1zM29 45h1v1h-1zM30 45h1v1h-1zM31 45h1v1h-1zM32 45h1v1h-1zM33 45h1v1h-1zM34 45h1v1h-1zM35 45h1v1h-1zM36 45h1v1h-1zM37 45h1v1h-1zM38 45h1v1h-1zM39 45h1v1h-1zM40 45h1v1h-1z"/><path fill="#BEDEE7" d="M41 45h1v1h-1z"/><path fill="#AFD6E2" d="M42 45h1v1h-1zM43 45h1v1h-1zM44 45h1v1h-1zM45 45h1v1h-1zM46 45h1v1h-1zM47 45h1v1h-1zM48 45h1v1h-1zM49 45h1v1h-1zM50 45h1v1h-1zM51 45h1v1h-1z"/><path fill="#D2E8EF" d="M52 45h1v1h-1z"/><path fill="#FFF" d="M53 45h1v1h-1zM54 45h1v1h-1zM55 45h1v1h-1zM56 45h1v1h-1zM57 45h1v1h-1zM58 45h1v1h-1zM59 45h1v1h-1zM60 45h1v1h-1z"/><path fill="#C3E0E9" d="M61 45h1v1h-1z"/><path fill="#839BA2" d="M62 45h1v1h-1z"/><path fill="#231815" d="M63 45h1v1h-1zM64 45h1v1h-1zM65 45h1v1h-1zM66 45h1v1h-1zM0 46h1v1H0zM1 46h1v1H1zM2 46h1v1H2z"/><path fill="#464848" d="M3 46h1v1H3z"/><path fill="#BEDEE7" d="M4 46h1v1H4z"/><path fill="#FFF" d="M5 46h1v1H5zM6 46h1v1H6zM7 46h1v1H7zM8 46h1v1H8zM9 46h1v1H9zM10 46h1v1h-1zM11 46h1v1h-1zM12 46h1v1h-1zM13 46h1v1h-1z"/><path fill="#D7EBF1" d="M14 46h1v1h-1z"/><path fill="#AFD6E2" d="M15 46h1v1h-1zM16 46h1v1h-1zM17 46h1v1h-1zM18 46h1v1h-1zM19 46h1v1h-1zM20 46h1v1h-1zM21 46h1v1h-1zM22 46h1v1h-1zM23 46h1v1h-1zM24 46h1v1h-1zM25 46h1v1h-1z"/><path fill="#D7EBF1" d="M26 46h1v1h-1z"/><path fill="#FFF" d="M27 46h1v1h-1zM28 46h1v1h-1zM29 46h1v1h-1zM30 46h1v1h-1zM31 46h1v1h-1zM32 46h1v1h-1zM33 46h1v1h-1zM34 46h1v1h-1zM35 46h1v1h-1zM36 46h1v1h-1zM37 46h1v1h-1zM38 46h1v1h-1zM39 46h1v1h-1z"/><path fill="#FAFCFD" d="M40 46h1v1h-1z"/><path fill="#AFD6E2" d="M41 46h1v1h-1zM42 46h1v1h-1zM43 46h1v1h-1zM44 46h1v1h-1zM45 46h1v1h-1zM46 46h1v1h-1zM47 46h1v1h-1zM48 46h1v1h-1zM49 46h1v1h-1zM50 46h1v1h-1zM51 46h1v1h-1z"/><path fill="#BEDEE7" d="M52 46h1v1h-1z"/><path fill="#FFF" d="M53 46h1v1h-1zM54 46h1v1h-1zM55 46h1v1h-1zM56 46h1v1h-1zM57 46h1v1h-1zM58 46h1v1h-1zM59 46h1v1h-1zM60 46h1v1h-1z"/><path fill="#C3E0E9" d="M61 46h1v1h-1z"/><path fill="#AFD6E2" d="M62 46h1v1h-1z"/><path fill="#231815" d="M63 46h1v1h-1zM64 46h1v1h-1zM65 46h1v1h-1zM66 46h1v1h-1zM0 47h1v1H0zM1 47h1v1H1zM2 47h1v1H2z"/><path fill="#464848" d="M3 47h1v1H3z"/><path fill="#AFD6E2" d="M4 47h1v1H4z"/><path fill="#EBF5F8" d="M5 47h1v1H5z"/><path fill="#FFF" d="M6 47h1v1H6zM7 47h1v1H7zM8 47h1v1H8zM9 47h1v1H9zM10 47h1v1h-1zM11 47h1v1h-1zM12 47h1v1h-1zM13 47h1v1h-1z"/><path fill="#E6F2F6" d="M14 47h1v1h-1z"/><path fill="#AFD6E2" d="M15 47h1v1h-1zM16 47h1v1h-1zM17 47h1v1h-1zM18 47h1v1h-1zM19 47h1v1h-1zM20 47h1v1h-1zM21 47h1v1h-1zM22 47h1v1h-1zM23 47h1v1h-1zM24 47h1v1h-1z"/><path fill="#B4D9E4" d="M25 47h1v1h-1z"/><path fill="#F5FAFB" d="M26 47h1v1h-1z"/><path fill="#FFF" d="M27 47h1v1h-1zM28 47h1v1h-1zM29 47h1v1h-1zM30 47h1v1h-1zM31 47h1v1h-1zM32 47h1v1h-1zM33 47h1v1h-1zM34 47h1v1h-1zM35 47h1v1h-1zM36 47h1v1h-1zM37 47h1v1h-1zM38 47h1v1h-1zM39 47h1v1h-1zM40 47h1v1h-1z"/><path fill="#C8E3EB" d="M41 47h1v1h-1z"/><path fill="#AFD6E2" d="M42 47h1v1h-1zM43 47h1v1h-1zM44 47h1v1h-1zM45 47h1v1h-1zM46 47h1v1h-1zM47 47h1v1h-1zM48 47h1v1h-1zM49 47h1v1h-1zM50 47h1v1h-1zM51 47h1v1h-1z"/><path fill="#DCEDF2" d="M52 47h1v1h-1z"/><path fill="#FFF" d="M53 47h1v1h-1zM54 47h1v1h-1zM55 47h1v1h-1zM56 47h1v1h-1zM57 47h1v1h-1zM58 47h1v1h-1zM59 47h1v1h-1zM60 47h1v1h-1z"/><path fill="#C3E0E9" d="M61 47h1v1h-1z"/><path fill="#AFD6E2" d="M62 47h1v1h-1z"/><path fill="#464848" d="M63 47h1v1h-1z"/><path fill="#231815" d="M64 47h1v1h-1zM65 47h1v1h-1zM66 47h1v1h-1zM0 48h1v1H0zM1 48h1v1H1zM2 48h1v1H2z"/><path fill="#35302F" d="M3 48h1v1H3z"/><path fill="#AFD6E2" d="M4 48h1v1H4z"/><path fill="#C3E0E9" d="M5 48h1v1H5z"/><path fill="#FFF" d="M6 48h1v1H6zM7 48h1v1H7zM8 48h1v1H8zM9 48h1v1H9zM10 48h1v1h-1zM11 48h1v1h-1zM12 48h1v1h-1zM13 48h1v1h-1zM14 48h1v1h-1z"/><path fill="#F5FAFB" d="M15 48h1v1h-1z"/><path fill="#EBF5F8" d="M16 48h1v1h-1zM17 48h1v1h-1zM18 48h1v1h-1z"/><path fill="#BEDEE7" d="M19 48h1v1h-1z"/><path fill="#AFD6E2" d="M20 48h1v1h-1zM21 48h1v1h-1z"/><path fill="#CDE5ED" d="M22 48h1v1h-1z"/><path fill="#EBF5F8" d="M23 48h1v1h-1zM24 48h1v1h-1z"/><path fill="#FAFCFD" d="M25 48h1v1h-1z"/><path fill="#FFF" d="M26 48h1v1h-1zM27 48h1v1h-1zM28 48h1v1h-1zM29 48h1v1h-1zM30 48h1v1h-1zM31 48h1v1h-1z"/><path fill="#F0F7FA" d="M32 48h1v1h-1z"/><path fill="#D7EBF1" d="M33 48h1v1h-1z"/><path fill="#DCEDF2" d="M34 48h1v1h-1z"/><path fill="#FFF" d="M35 48h1v1h-1zM36 48h1v1h-1zM37 48h1v1h-1zM38 48h1v1h-1zM39 48h1v1h-1zM40 48h1v1h-1zM41 48h1v1h-1zM42 48h1v1h-1zM43 48h1v1h-1zM44 48h1v1h-1z"/><path fill="#D7EBF1" d="M45 48h1v1h-1z"/><path fill="#AFD6E2" d="M46 48h1v1h-1zM47 48h1v1h-1z"/><path fill="#C3E0E9" d="M48 48h1v1h-1z"/><path fill="#FFF" d="M49 48h1v1h-1zM50 48h1v1h-1zM51 48h1v1h-1zM52 48h1v1h-1zM53 48h1v1h-1zM54 48h1v1h-1zM55 48h1v1h-1zM56 48h1v1h-1zM57 48h1v1h-1zM58 48h1v1h-1zM59 48h1v1h-1zM60 48h1v1h-1z"/><path fill="#C3E0E9" d="M61 48h1v1h-1z"/><path fill="#AFD6E2" d="M62 48h1v1h-1z"/><path fill="#464848" d="M63 48h1v1h-1z"/><path fill="#231815" d="M64 48h1v1h-1zM65 48h1v1h-1zM66 48h1v1h-1zM0 49h1v1H0zM1 49h1v1H1zM2 49h1v1H2zM3 49h1v1H3z"/><path fill="#9EBEC8" d="M4 49h1v1H4z"/><path fill="#AFD6E2" d="M5 49h1v1H5z"/><path fill="#EBF5F8" d="M6 49h1v1H6z"/><path fill="#FFF" d="M7 49h1v1H7zM8 49h1v1H8zM9 49h1v1H9zM10 49h1v1h-1zM11 49h1v1h-1zM12 49h1v1h-1zM13 49h1v1h-1zM14 49h1v1h-1zM15 49h1v1h-1zM16 49h1v1h-1zM17 49h1v1h-1zM18 49h1v1h-1z"/><path fill="#C3E0E9" d="M19 49h1v1h-1z"/><path fill="#AFD6E2" d="M20 49h1v1h-1zM21 49h1v1h-1z"/><path fill="#D7EBF1" d="M22 49h1v1h-1z"/><path fill="#FFF" d="M23 49h1v1h-1zM24 49h1v1h-1zM25 49h1v1h-1zM26 49h1v1h-1zM27 49h1v1h-1zM28 49h1v1h-1zM29 49h1v1h-1zM30 49h1v1h-1zM31 49h1v1h-1z"/><path fill="#C3E0E9" d="M32 49h1v1h-1z"/><path fill="#AFD6E2" d="M33 49h1v1h-1zM34 49h1v1h-1z"/><path fill="#E6F2F6" d="M35 49h1v1h-1z"/><path fill="#FFF" d="M36 49h1v1h-1zM37 49h1v1h-1zM38 49h1v1h-1zM39 49h1v1h-1zM40 49h1v1h-1zM41 49h1v1h-1zM42 49h1v1h-1zM43 49h1v1h-1zM44 49h1v1h-1z"/><path fill="#D7EBF1" d="M45 49h1v1h-1z"/><path fill="#AFD6E2" d="M46 49h1v1h-1zM47 49h1v1h-1z"/><path fill="#C3E0E9" d="M48 49h1v1h-1z"/><path fill="#FFF" d="M49 49h1v1h-1zM50 49h1v1h-1zM51 49h1v1h-1zM52 49h1v1h-1zM53 49h1v1h-1zM54 49h1v1h-1zM55 49h1v1h-1zM56 49h1v1h-1zM57 49h1v1h-1zM58 49h1v1h-1zM59 49h1v1h-1zM60 49h1v1h-1z"/><path fill="#AFD6E2" d="M61 49h1v1h-1zM62 49h1v1h-1z"/><path fill="#464848" d="M63 49h1v1h-1z"/><path fill="#231815" d="M64 49h1v1h-1zM65 49h1v1h-1zM66 49h1v1h-1zM0 50h1v1H0zM1 50h1v1H1zM2 50h1v1H2zM3 50h1v1H3z"/><path fill="#728388" d="M4 50h1v1H4z"/><path fill="#AFD6E2" d="M5 50h1v1H5z"/><path fill="#B9DBE6" d="M6 50h1v1H6z"/><path fill="#FFF" d="M7 50h1v1H7zM8 50h1v1H8zM9 50h1v1H9zM10 50h1v1h-1zM11 50h1v1h-1zM12 50h1v1h-1zM13 50h1v1h-1zM14 50h1v1h-1zM15 50h1v1h-1zM16 50h1v1h-1zM17 50h1v1h-1zM18 50h1v1h-1z"/><path fill="#C3E0E9" d="M19 50h1v1h-1z"/><path fill="#AFD6E2" d="M20 50h1v1h-1zM21 50h1v1h-1z"/><path fill="#D7EBF1" d="M22 50h1v1h-1z"/><path fill="#FFF" d="M23 50h1v1h-1zM24 50h1v1h-1zM25 50h1v1h-1zM26 50h1v1h-1zM27 50h1v1h-1zM28 50h1v1h-1zM29 50h1v1h-1zM30 50h1v1h-1zM31 50h1v1h-1z"/><path fill="#C3E0E9" d="M32 50h1v1h-1z"/><path fill="#AFD6E2" d="M33 50h1v1h-1zM34 50h1v1h-1z"/><path fill="#D7EBF1" d="M35 50h1v1h-1z"/><path fill="#FFF" d="M36 50h1v1h-1zM37 50h1v1h-1zM38 50h1v1h-1zM39 50h1v1h-1zM40 50h1v1h-1zM41 50h1v1h-1zM42 50h1v1h-1zM43 50h1v1h-1zM44 50h1v1h-1z"/><path fill="#D7EBF1" d="M45 50h1v1h-1z"/><path fill="#AFD6E2" d="M46 50h1v1h-1zM47 50h1v1h-1z"/><path fill="#C3E0E9" d="M48 50h1v1h-1z"/><path fill="#FFF" d="M49 50h1v1h-1zM50 50h1v1h-1zM51 50h1v1h-1zM52 50h1v1h-1zM53 50h1v1h-1zM54 50h1v1h-1zM55 50h1v1h-1zM56 50h1v1h-1zM57 50h1v1h-1zM58 50h1v1h-1zM59 50h1v1h-1z"/><path fill="#E6F2F6" d="M60 50h1v1h-1z"/><path fill="#AFD6E2" d="M61 50h1v1h-1zM62 50h1v1h-1z"/><path fill="#464848" d="M63 50h1v1h-1z"/><path fill="#231815" d="M64 50h1v1h-1zM65 50h1v1h-1zM66 50h1v1h-1zM1 51h1v1H1zM2 51h1v1H2zM3 51h1v1H3z"/><path fill="#35302F" d="M4 51h1v1H4z"/><path fill="#A6CAD5" d="M5 51h1v1H5z"/><path fill="#AFD6E2" d="M6 51h1v1H6z"/><path fill="#D7EBF1" d="M7 51h1v1H7z"/><path fill="#FFF" d="M8 51h1v1H8zM9 51h1v1H9zM10 51h1v1h-1zM11 51h1v1h-1zM12 51h1v1h-1zM13 51h1v1h-1zM14 51h1v1h-1zM15 51h1v1h-1zM16 51h1v1h-1zM17 51h1v1h-1zM18 51h1v1h-1z"/><path fill="#C3E0E9" d="M19 51h1v1h-1z"/><path fill="#AFD6E2" d="M20 51h1v1h-1zM21 51h1v1h-1z"/><path fill="#E1F0F4" d="M22 51h1v1h-1z"/><path fill="#FFF" d="M23 51h1v1h-1zM24 51h1v1h-1zM25 51h1v1h-1zM26 51h1v1h-1zM27 51h1v1h-1zM28 51h1v1h-1zM29 51h1v1h-1zM30 51h1v1h-1zM31 51h1v1h-1z"/><path fill="#C3E0E9" d="M32 51h1v1h-1z"/><path fill="#AFD6E2" d="M33 51h1v1h-1zM34 51h1v1h-1z"/><path fill="#D7EBF1" d="M35 51h1v1h-1z"/><path fill="#FFF" d="M36 51h1v1h-1zM37 51h1v1h-1zM38 51h1v1h-1zM39 51h1v1h-1zM40 51h1v1h-1zM41 51h1v1h-1zM42 51h1v1h-1zM43 51h1v1h-1zM44 51h1v1h-1z"/><path fill="#E1F0F4" d="M45 51h1v1h-1z"/><path fill="#AFD6E2" d="M46 51h1v1h-1zM47 51h1v1h-1z"/><path fill="#C3E0E9" d="M48 51h1v1h-1z"/><path fill="#FFF" d="M49 51h1v1h-1zM50 51h1v1h-1zM51 51h1v1h-1zM52 51h1v1h-1zM53 51h1v1h-1zM54 51h1v1h-1zM55 51h1v1h-1zM56 51h1v1h-1zM57 51h1v1h-1zM58 51h1v1h-1zM59 51h1v1h-1z"/><path fill="#CDE5ED" d="M60 51h1v1h-1z"/><path fill="#AFD6E2" d="M61 51h1v1h-1zM62 51h1v1h-1z"/><path fill="#2C2422" d="M63 51h1v1h-1z"/><path fill="#231815" d="M64 51h1v1h-1zM65 51h1v1h-1zM66 51h1v1h-1zM1 52h1v1H1zM2 52h1v1H2zM3 52h1v1H3zM4 52h1v1H4z"/><path fill="#69777C" d="M5 52h1v1H5z"/><path fill="#AFD6E2" d="M6 52h1v1H6zM7 52h1v1H7z"/><path fill="#EBF5F8" d="M8 52h1v1H8z"/><path fill="#FFF" d="M9 52h1v1H9zM10 52h1v1h-1zM11 52h1v1h-1zM12 52h1v1h-1zM13 52h1v1h-1zM14 52h1v1h-1zM15 52h1v1h-1zM16 52h1v1h-1zM17 52h1v1h-1zM18 52h1v1h-1z"/><path fill="#E1F0F4" d="M19 52h1v1h-1z"/><path fill="#C3E0E9" d="M20 52h1v1h-1z"/><path fill="#C8E3EB" d="M21 52h1v1h-1z"/><path fill="#FAFCFD" d="M22 52h1v1h-1z"/><path fill="#FFF" d="M23 52h1v1h-1zM24 52h1v1h-1zM25 52h1v1h-1zM26 52h1v1h-1zM27 52h1v1h-1zM28 52h1v1h-1zM29 52h1v1h-1zM30 52h1v1h-1zM31 52h1v1h-1z"/><path fill="#C3E0E9" d="M32 52h1v1h-1z"/><path fill="#AFD6E2" d="M33 52h1v1h-1zM34 52h1v1h-1z"/><path fill="#D7EBF1" d="M35 52h1v1h-1z"/><path fill="#FFF" d="M36 52h1v1h-1zM37 52h1v1h-1zM38 52h1v1h-1zM39 52h1v1h-1zM40 52h1v1h-1zM41 52h1v1h-1zM42 52h1v1h-1zM43 52h1v1h-1zM44 52h1v1h-1zM45 52h1v1h-1z"/><path fill="#D2E8EF" d="M46 52h1v1h-1z"/><path fill="#C8E3EB" d="M47 52h1v1h-1z"/><path fill="#F0F7FA" d="M48 52h1v1h-1z"/><path fill="#FFF" d="M49 52h1v1h-1zM50 52h1v1h-1zM51 52h1v1h-1zM52 52h1v1h-1zM53 52h1v1h-1zM54 52h1v1h-1zM55 52h1v1h-1zM56 52h1v1h-1zM57 52h1v1h-1zM58 52h1v1h-1z"/><path fill="#F5FAFB" d="M59 52h1v1h-1z"/><path fill="#AFD6E2" d="M60 52h1v1h-1zM61 52h1v1h-1z"/><path fill="#95B2BC" d="M62 52h1v1h-1z"/><path fill="#231815" d="M63 52h1v1h-1zM64 52h1v1h-1zM65 52h1v1h-1zM66 52h1v1h-1zM2 53h1v1H2zM3 53h1v1H3zM4 53h1v1H4zM5 53h1v1H5z"/><path fill="#8CA7AF" d="M6 53h1v1H6z"/><path fill="#AFD6E2" d="M7 53h1v1H7z"/><path fill="#B4D9E4" d="M8 53h1v1H8z"/><path fill="#F5FAFB" d="M9 53h1v1H9z"/><path fill="#FFF" d="M10 53h1v1h-1zM11 53h1v1h-1zM12 53h1v1h-1zM13 53h1v1h-1zM14 53h1v1h-1zM15 53h1v1h-1zM16 53h1v1h-1zM17 53h1v1h-1zM18 53h1v1h-1zM19 53h1v1h-1zM20 53h1v1h-1zM21 53h1v1h-1zM22 53h1v1h-1zM23 53h1v1h-1zM24 53h1v1h-1zM25 53h1v1h-1zM26 53h1v1h-1z"/><path fill="#F0F7FA" d="M27 53h1v1h-1z"/><path fill="#BEDEE7" d="M28 53h1v1h-1z"/><path fill="#AFD6E2" d="M29 53h1v1h-1zM30 53h1v1h-1zM31 53h1v1h-1zM32 53h1v1h-1zM33 53h1v1h-1zM34 53h1v1h-1zM35 53h1v1h-1zM36 53h1v1h-1zM37 53h1v1h-1z"/><path fill="#C8E3EB" d="M38 53h1v1h-1z"/><path fill="#FAFCFD" d="M39 53h1v1h-1z"/><path fill="#FFF" d="M40 53h1v1h-1zM41 53h1v1h-1zM42 53h1v1h-1zM43 53h1v1h-1zM44 53h1v1h-1zM45 53h1v1h-1zM46 53h1v1h-1zM47 53h1v1h-1zM48 53h1v1h-1zM49 53h1v1h-1zM50 53h1v1h-1zM51 53h1v1h-1zM52 53h1v1h-1zM53 53h1v1h-1zM54 53h1v1h-1zM55 53h1v1h-1zM56 53h1v1h-1zM57 53h1v1h-1zM58 53h1v1h-1z"/><path fill="#C8E3EB" d="M59 53h1v1h-1z"/><path fill="#AFD6E2" d="M60 53h1v1h-1zM61 53h1v1h-1z"/><path fill="#606B6F" d="M62 53h1v1h-1z"/><path fill="#231815" d="M63 53h1v1h-1zM64 53h1v1h-1zM65 53h1v1h-1zM2 54h1v1H2zM3 54h1v1H3zM4 54h1v1H4zM5 54h1v1H5z"/><path fill="#2C2422" d="M6 54h1v1H6z"/><path fill="#95B2BC" d="M7 54h1v1H7z"/><path fill="#AFD6E2" d="M8 54h1v1H8z"/><path fill="#BEDEE7" d="M9 54h1v1H9z"/><path fill="#FAFCFD" d="M10 54h1v1h-1z"/><path fill="#FFF" d="M11 54h1v1h-1zM12 54h1v1h-1zM13 54h1v1h-1zM14 54h1v1h-1zM15 54h1v1h-1zM16 54h1v1h-1zM17 54h1v1h-1zM18 54h1v1h-1zM19 54h1v1h-1zM20 54h1v1h-1zM21 54h1v1h-1zM22 54h1v1h-1zM23 54h1v1h-1zM24 54h1v1h-1zM25 54h1v1h-1zM26 54h1v1h-1z"/><path fill="#D7EBF1" d="M27 54h1v1h-1z"/><path fill="#AFD6E2" d="M28 54h1v1h-1zM29 54h1v1h-1zM30 54h1v1h-1zM31 54h1v1h-1zM32 54h1v1h-1zM33 54h1v1h-1zM34 54h1v1h-1zM35 54h1v1h-1zM36 54h1v1h-1zM37 54h1v1h-1zM38 54h1v1h-1z"/><path fill="#DCEDF2" d="M39 54h1v1h-1z"/><path fill="#FFF" d="M40 54h1v1h-1zM41 54h1v1h-1zM42 54h1v1h-1zM43 54h1v1h-1zM44 54h1v1h-1zM45 54h1v1h-1zM46 54h1v1h-1zM47 54h1v1h-1zM48 54h1v1h-1zM49 54h1v1h-1zM50 54h1v1h-1zM51 54h1v1h-1zM52 54h1v1h-1zM53 54h1v1h-1zM54 54h1v1h-1zM55 54h1v1h-1zM56 54h1v1h-1zM57 54h1v1h-1z"/><path fill="#E6F2F6" d="M58 54h1v1h-1z"/><path fill="#AFD6E2" d="M59 54h1v1h-1zM60 54h1v1h-1z"/><path fill="#9EBEC8" d="M61 54h1v1h-1z"/><path fill="#2C2422" d="M62 54h1v1h-1z"/><path fill="#231815" d="M63 54h1v1h-1zM64 54h1v1h-1zM65 54h1v1h-1zM3 55h1v1H3zM4 55h1v1H4zM5 55h1v1H5zM6 55h1v1H6z"/><path fill="#2C2422" d="M7 55h1v1H7z"/><path fill="#95B2BC" d="M8 55h1v1H8z"/><path fill="#AFD6E2" d="M9 55h1v1H9z"/><path fill="#BEDEE7" d="M10 55h1v1h-1z"/><path fill="#FAFCFD" d="M11 55h1v1h-1z"/><path fill="#FFF" d="M12 55h1v1h-1zM13 55h1v1h-1zM14 55h1v1h-1zM15 55h1v1h-1zM16 55h1v1h-1zM17 55h1v1h-1zM18 55h1v1h-1zM19 55h1v1h-1zM20 55h1v1h-1zM21 55h1v1h-1zM22 55h1v1h-1zM23 55h1v1h-1zM24 55h1v1h-1zM25 55h1v1h-1zM26 55h1v1h-1z"/><path fill="#E1F0F4" d="M27 55h1v1h-1z"/><path fill="#AFD6E2" d="M28 55h1v1h-1zM29 55h1v1h-1zM30 55h1v1h-1zM31 55h1v1h-1zM32 55h1v1h-1zM33 55h1v1h-1zM34 55h1v1h-1zM35 55h1v1h-1zM36 55h1v1h-1zM37 55h1v1h-1zM38 55h1v1h-1z"/><path fill="#EBF5F8" d="M39 55h1v1h-1z"/><path fill="#FFF" d="M40 55h1v1h-1zM41 55h1v1h-1zM42 55h1v1h-1zM43 55h1v1h-1zM44 55h1v1h-1zM45 55h1v1h-1zM46 55h1v1h-1zM47 55h1v1h-1zM48 55h1v1h-1zM49 55h1v1h-1zM50 55h1v1h-1zM51 55h1v1h-1zM52 55h1v1h-1zM53 55h1v1h-1zM54 55h1v1h-1zM55 55h1v1h-1zM56 55h1v1h-1z"/><path fill="#F0F7FA" d="M57 55h1v1h-1z"/><path fill="#B4D9E4" d="M58 55h1v1h-1z"/><path fill="#AFD6E2" d="M59 55h1v1h-1zM60 55h1v1h-1z"/><path fill="#4F5355" d="M61 55h1v1h-1z"/><path fill="#231815" d="M62 55h1v1h-1zM63 55h1v1h-1zM64 55h1v1h-1zM65 55h1v1h-1zM4 56h1v1H4zM5 56h1v1H5zM6 56h1v1H6zM7 56h1v1H7zM8 56h1v1H8z"/><path fill="#7B8F95" d="M9 56h1v1H9z"/><path fill="#AFD6E2" d="M10 56h1v1h-1z"/><path fill="#BEDEE7" d="M11 56h1v1h-1z"/><path fill="#F0F7FA" d="M12 56h1v1h-1z"/><path fill="#FFF" d="M13 56h1v1h-1zM14 56h1v1h-1zM15 56h1v1h-1zM16 56h1v1h-1zM17 56h1v1h-1zM18 56h1v1h-1zM19 56h1v1h-1zM20 56h1v1h-1zM21 56h1v1h-1zM22 56h1v1h-1zM23 56h1v1h-1zM24 56h1v1h-1zM25 56h1v1h-1zM26 56h1v1h-1zM27 56h1v1h-1z"/><path fill="#F0F7FA" d="M28 56h1v1h-1z"/><path fill="#EBF5F8" d="M29 56h1v1h-1zM30 56h1v1h-1zM31 56h1v1h-1z"/><path fill="#BEDEE7" d="M32 56h1v1h-1z"/><path fill="#AFD6E2" d="M33 56h1v1h-1zM34 56h1v1h-1z"/><path fill="#CDE5ED" d="M35 56h1v1h-1z"/><path fill="#EBF5F8" d="M36 56h1v1h-1zM37 56h1v1h-1z"/><path fill="#F0F7FA" d="M38 56h1v1h-1z"/><path fill="#FFF" d="M39 56h1v1h-1zM40 56h1v1h-1zM41 56h1v1h-1zM42 56h1v1h-1zM43 56h1v1h-1zM44 56h1v1h-1zM45 56h1v1h-1zM46 56h1v1h-1zM47 56h1v1h-1zM48 56h1v1h-1zM49 56h1v1h-1zM50 56h1v1h-1zM51 56h1v1h-1zM52 56h1v1h-1zM53 56h1v1h-1zM54 56h1v1h-1zM55 56h1v1h-1z"/><path fill="#F0F7FA" d="M56 56h1v1h-1z"/><path fill="#B4D9E4" d="M57 56h1v1h-1z"/><path fill="#AFD6E2" d="M58 56h1v1h-1zM59 56h1v1h-1z"/><path fill="#8CA7AF" d="M60 56h1v1h-1z"/><path fill="#231815" d="M61 56h1v1h-1zM62 56h1v1h-1zM63 56h1v1h-1zM64 56h1v1h-1zM5 57h1v1H5zM6 57h1v1H6zM7 57h1v1H7zM8 57h1v1H8z"/><path fill="#35302F" d="M9 57h1v1H9z"/><path fill="#AFD6E2" d="M10 57h1v1h-1zM11 57h1v1h-1z"/><path fill="#B4D9E4" d="M12 57h1v1h-1z"/><path fill="#D7EBF1" d="M13 57h1v1h-1z"/><path fill="#FFF" d="M14 57h1v1h-1zM15 57h1v1h-1zM16 57h1v1h-1zM17 57h1v1h-1zM18 57h1v1h-1zM19 57h1v1h-1zM20 57h1v1h-1zM21 57h1v1h-1zM22 57h1v1h-1zM23 57h1v1h-1zM24 57h1v1h-1zM25 57h1v1h-1zM26 57h1v1h-1zM27 57h1v1h-1zM28 57h1v1h-1zM29 57h1v1h-1zM30 57h1v1h-1zM31 57h1v1h-1z"/><path fill="#C3E0E9" d="M32 57h1v1h-1z"/><path fill="#AFD6E2" d="M33 57h1v1h-1zM34 57h1v1h-1z"/><path fill="#D7EBF1" d="M35 57h1v1h-1z"/><path fill="#FFF" d="M36 57h1v1h-1zM37 57h1v1h-1zM38 57h1v1h-1zM39 57h1v1h-1zM40 57h1v1h-1zM41 57h1v1h-1zM42 57h1v1h-1zM43 57h1v1h-1zM44 57h1v1h-1zM45 57h1v1h-1zM46 57h1v1h-1zM47 57h1v1h-1zM48 57h1v1h-1zM49 57h1v1h-1zM50 57h1v1h-1zM51 57h1v1h-1zM52 57h1v1h-1zM53 57h1v1h-1z"/><path fill="#F5FAFB" d="M54 57h1v1h-1z"/><path fill="#D7EBF1" d="M55 57h1v1h-1z"/><path fill="#AFD6E2" d="M56 57h1v1h-1zM57 57h1v1h-1zM58 57h1v1h-1zM59 57h1v1h-1z"/><path fill="#35302F" d="M60 57h1v1h-1z"/><path fill="#231815" d="M61 57h1v1h-1zM62 57h1v1h-1zM63 57h1v1h-1zM64 57h1v1h-1zM6 58h1v1H6zM7 58h1v1H7zM8 58h1v1H8zM9 58h1v1H9z"/><path fill="#AFD6E2" d="M10 58h1v1h-1zM11 58h1v1h-1zM12 58h1v1h-1zM13 58h1v1h-1z"/><path fill="#B9DBE6" d="M14 58h1v1h-1z"/><path fill="#C3E0E9" d="M15 58h1v1h-1zM16 58h1v1h-1z"/><path fill="#E6F2F6" d="M17 58h1v1h-1z"/><path fill="#FFF" d="M18 58h1v1h-1zM19 58h1v1h-1zM20 58h1v1h-1zM21 58h1v1h-1zM22 58h1v1h-1zM23 58h1v1h-1zM24 58h1v1h-1zM25 58h1v1h-1zM26 58h1v1h-1zM27 58h1v1h-1zM28 58h1v1h-1zM29 58h1v1h-1zM30 58h1v1h-1zM31 58h1v1h-1z"/><path fill="#C3E0E9" d="M32 58h1v1h-1z"/><path fill="#AFD6E2" d="M33 58h1v1h-1zM34 58h1v1h-1z"/><path fill="#D7EBF1" d="M35 58h1v1h-1z"/><path fill="#FFF" d="M36 58h1v1h-1zM37 58h1v1h-1zM38 58h1v1h-1zM39 58h1v1h-1zM40 58h1v1h-1zM41 58h1v1h-1zM42 58h1v1h-1zM43 58h1v1h-1zM44 58h1v1h-1zM45 58h1v1h-1zM46 58h1v1h-1zM47 58h1v1h-1z"/><path fill="#F0F7FA" d="M48 58h1v1h-1z"/><path fill="#C8E3EB" d="M49 58h1v1h-1z"/><path fill="#C3E0E9" d="M50 58h1v1h-1z"/><path fill="#D2E8EF" d="M51 58h1v1h-1z"/><path fill="#C3E0E9" d="M52 58h1v1h-1z"/><path fill="#B9DBE6" d="M53 58h1v1h-1z"/><path fill="#AFD6E2" d="M54 58h1v1h-1zM55 58h1v1h-1zM56 58h1v1h-1zM57 58h1v1h-1zM58 58h1v1h-1z"/><path fill="#69777C" d="M59 58h1v1h-1z"/><path fill="#231815" d="M60 58h1v1h-1zM61 58h1v1h-1zM62 58h1v1h-1zM63 58h1v1h-1zM6 59h1v1H6zM7 59h1v1H7zM8 59h1v1H8zM9 59h1v1H9z"/><path fill="#8CA7AF" d="M10 59h1v1h-1z"/><path fill="#AFD6E2" d="M11 59h1v1h-1zM12 59h1v1h-1zM13 59h1v1h-1zM14 59h1v1h-1zM15 59h1v1h-1zM16 59h1v1h-1zM17 59h1v1h-1z"/><path fill="#FFF" d="M18 59h1v1h-1zM19 59h1v1h-1zM20 59h1v1h-1zM21 59h1v1h-1zM22 59h1v1h-1zM23 59h1v1h-1zM24 59h1v1h-1zM25 59h1v1h-1zM26 59h1v1h-1zM27 59h1v1h-1zM28 59h1v1h-1zM29 59h1v1h-1zM30 59h1v1h-1zM31 59h1v1h-1z"/><path fill="#C3E0E9" d="M32 59h1v1h-1z"/><path fill="#AFD6E2" d="M33 59h1v1h-1zM34 59h1v1h-1z"/><path fill="#DCEDF2" d="M35 59h1v1h-1z"/><path fill="#FFF" d="M36 59h1v1h-1zM37 59h1v1h-1zM38 59h1v1h-1zM39 59h1v1h-1zM40 59h1v1h-1zM41 59h1v1h-1zM42 59h1v1h-1z"/><path fill="#E8F3F7" d="M43 59h1v1h-1z"/><path fill="#CAE5EE" d="M44 59h1v1h-1z"/><path fill="#FAFCFD" d="M45 59h1v1h-1z"/><path fill="#FFF" d="M46 59h1v1h-1zM47 59h1v1h-1z"/><path fill="#C8E3EB" d="M48 59h1v1h-1z"/><path fill="#AFD6E2" d="M49 59h1v1h-1zM50 59h1v1h-1zM51 59h1v1h-1zM52 59h1v1h-1zM53 59h1v1h-1zM54 59h1v1h-1zM55 59h1v1h-1zM56 59h1v1h-1zM57 59h1v1h-1z"/><path fill="#95B2BC" d="M58 59h1v1h-1z"/><path fill="#231815" d="M59 59h1v1h-1zM60 59h1v1h-1zM61 59h1v1h-1zM62 59h1v1h-1zM7 60h1v1H7zM8 60h1v1H8zM9 60h1v1H9z"/><path fill="#69777C" d="M10 60h1v1h-1z"/><path fill="#AFD6E2" d="M11 60h1v1h-1zM12 60h1v1h-1zM13 60h1v1h-1zM14 60h1v1h-1zM15 60h1v1h-1zM16 60h1v1h-1z"/><path fill="#B4D9E4" d="M17 60h1v1h-1z"/><path fill="#FFF" d="M18 60h1v1h-1zM19 60h1v1h-1zM20 60h1v1h-1z"/><path fill="#CDE6EE" d="M21 60h1v1h-1z"/><path fill="#5DAFC9" d="M22 60h1v1h-1z"/><path fill="#67B4CD" d="M23 60h1v1h-1z"/><path fill="#EDF6F9" d="M24 60h1v1h-1z"/><path fill="#FFF" d="M25 60h1v1h-1zM26 60h1v1h-1zM27 60h1v1h-1zM28 60h1v1h-1zM29 60h1v1h-1zM30 60h1v1h-1zM31 60h1v1h-1z"/><path fill="#DCEDF2" d="M32 60h1v1h-1z"/><path fill="#AFD6E2" d="M33 60h1v1h-1z"/><path fill="#B9DBE6" d="M34 60h1v1h-1z"/><path fill="#F5FAFB" d="M35 60h1v1h-1z"/><path fill="#FFF" d="M36 60h1v1h-1zM37 60h1v1h-1zM38 60h1v1h-1zM39 60h1v1h-1zM40 60h1v1h-1zM41 60h1v1h-1z"/><path fill="#EDF6F9" d="M42 60h1v1h-1z"/><path fill="#319ABC" d="M43 60h1v1h-1z"/><path fill="#2996B9" d="M44 60h1v1h-1z"/><path fill="#50A9C5" d="M45 60h1v1h-1z"/><path fill="#F0F7FA" d="M46 60h1v1h-1z"/><path fill="#FFF" d="M47 60h1v1h-1z"/><path fill="#C8E3EB" d="M48 60h1v1h-1z"/><path fill="#AFD6E2" d="M49 60h1v1h-1zM50 60h1v1h-1zM51 60h1v1h-1zM52 60h1v1h-1zM53 60h1v1h-1zM54 60h1v1h-1zM55 60h1v1h-1zM56 60h1v1h-1z"/><path fill="#A6CAD5" d="M57 60h1v1h-1z"/><path fill="#35302F" d="M58 60h1v1h-1z"/><path fill="#231815" d="M59 60h1v1h-1zM60 60h1v1h-1zM61 60h1v1h-1zM62 60h1v1h-1zM7 61h1v1H7zM8 61h1v1H8zM9 61h1v1H9z"/><path fill="#35302F" d="M10 61h1v1h-1z"/><path fill="#AFD6E2" d="M11 61h1v1h-1z"/><path fill="#CDE5ED" d="M12 61h1v1h-1z"/><path fill="#EBF5F8" d="M13 61h1v1h-1z"/><path fill="#D7EBF1" d="M14 61h1v1h-1zM15 61h1v1h-1zM16 61h1v1h-1z"/><path fill="#EBF5F8" d="M17 61h1v1h-1z"/><path fill="#FFF" d="M18 61h1v1h-1zM19 61h1v1h-1z"/><path fill="#E1F0F4" d="M20 61h1v1h-1z"/><path fill="#53AAC6" d="M21 61h1v1h-1z"/><path fill="#2996B9" d="M22 61h1v1h-1zM23 61h1v1h-1z"/><path fill="#8FC8DA" d="M24 61h1v1h-1z"/><path fill="#FFF" d="M25 61h1v1h-1zM26 61h1v1h-1zM27 61h1v1h-1zM28 61h1v1h-1zM29 61h1v1h-1zM30 61h1v1h-1zM31 61h1v1h-1zM32 61h1v1h-1zM33 61h1v1h-1zM34 61h1v1h-1zM35 61h1v1h-1zM36 61h1v1h-1zM37 61h1v1h-1zM38 61h1v1h-1zM39 61h1v1h-1zM40 61h1v1h-1zM41 61h1v1h-1z"/><path fill="#B1D8E4" d="M42 61h1v1h-1z"/><path fill="#2996B9" d="M43 61h1v1h-1zM44 61h1v1h-1zM45 61h1v1h-1z"/><path fill="#B4D9E4" d="M46 61h1v1h-1z"/><path fill="#F5FAFB" d="M47 61h1v1h-1z"/><path fill="#FAFCFD" d="M48 61h1v1h-1z"/><path fill="#D7EBF1" d="M49 61h1v1h-1zM50 61h1v1h-1zM51 61h1v1h-1zM52 61h1v1h-1zM53 61h1v1h-1zM54 61h1v1h-1z"/><path fill="#EBF5F8" d="M55 61h1v1h-1z"/><path fill="#B9DBE6" d="M56 61h1v1h-1z"/><path fill="#464848" d="M57 61h1v1h-1z"/><path fill="#231815" d="M58 61h1v1h-1zM59 61h1v1h-1zM60 61h1v1h-1zM61 61h1v1h-1zM7 62h1v1H7zM8 62h1v1H8zM9 62h1v1H9zM10 62h1v1h-1z"/><path fill="#7B8F95" d="M11 62h1v1h-1z"/><path fill="#E1F0F4" d="M12 62h1v1h-1z"/><path fill="#FFF" d="M13 62h1v1h-1zM14 62h1v1h-1zM15 62h1v1h-1zM16 62h1v1h-1zM17 62h1v1h-1zM18 62h1v1h-1z"/><path fill="#EBF5F8" d="M19 62h1v1h-1z"/><path fill="#AFD6E2" d="M20 62h1v1h-1z"/><path fill="#5BAEC8" d="M21 62h1v1h-1z"/><path fill="#2996B9" d="M22 62h1v1h-1zM23 62h1v1h-1z"/><path fill="#5FB0CB" d="M24 62h1v1h-1z"/><path fill="#FFF" d="M25 62h1v1h-1zM26 62h1v1h-1zM27 62h1v1h-1zM28 62h1v1h-1zM29 62h1v1h-1zM30 62h1v1h-1zM31 62h1v1h-1zM32 62h1v1h-1zM33 62h1v1h-1zM34 62h1v1h-1zM35 62h1v1h-1zM36 62h1v1h-1zM37 62h1v1h-1zM38 62h1v1h-1zM39 62h1v1h-1zM40 62h1v1h-1zM41 62h1v1h-1z"/><path fill="#98CBDB" d="M42 62h1v1h-1z"/><path fill="#2996B9" d="M43 62h1v1h-1zM44 62h1v1h-1zM45 62h1v1h-1z"/><path fill="#AFD6E2" d="M46 62h1v1h-1z"/><path fill="#C3E0E9" d="M47 62h1v1h-1z"/><path fill="#FFF" d="M48 62h1v1h-1zM49 62h1v1h-1zM50 62h1v1h-1zM51 62h1v1h-1zM52 62h1v1h-1zM53 62h1v1h-1zM54 62h1v1h-1z"/><path fill="#FAFCFD" d="M55 62h1v1h-1z"/><path fill="#585F62" d="M56 62h1v1h-1z"/><path fill="#231815" d="M57 62h1v1h-1zM58 62h1v1h-1zM59 62h1v1h-1zM60 62h1v1h-1zM8 63h1v1H8zM9 63h1v1H9zM10 63h1v1h-1z"/><path fill="#35302F" d="M11 63h1v1h-1z"/><path fill="#C4DAE0" d="M12 63h1v1h-1z"/><path fill="#FFF" d="M13 63h1v1h-1zM14 63h1v1h-1zM15 63h1v1h-1zM16 63h1v1h-1zM17 63h1v1h-1z"/><path fill="#F0F7FA" d="M18 63h1v1h-1z"/><path fill="#B4D9E4" d="M19 63h1v1h-1z"/><path fill="#AFD6E2" d="M20 63h1v1h-1z"/><path fill="#6CB6CE" d="M21 63h1v1h-1z"/><path fill="#2996B9" d="M22 63h1v1h-1zM23 63h1v1h-1z"/><path fill="#42A2C1" d="M24 63h1v1h-1z"/><path fill="#FAFCFD" d="M25 63h1v1h-1z"/><path fill="#FFF" d="M26 63h1v1h-1zM27 63h1v1h-1zM28 63h1v1h-1zM29 63h1v1h-1zM30 63h1v1h-1zM31 63h1v1h-1zM32 63h1v1h-1zM33 63h1v1h-1zM34 63h1v1h-1zM35 63h1v1h-1zM36 63h1v1h-1zM37 63h1v1h-1zM38 63h1v1h-1zM39 63h1v1h-1zM40 63h1v1h-1z"/><path fill="#EBF5F8" d="M41 63h1v1h-1z"/><path fill="#7DBED3" d="M42 63h1v1h-1z"/><path fill="#2996B9" d="M43 63h1v1h-1zM44 63h1v1h-1z"/><path fill="#319ABC" d="M45 63h1v1h-1z"/><path fill="#AFD6E2" d="M46 63h1v1h-1zM47 63h1v1h-1z"/><path fill="#DCEDF2" d="M48 63h1v1h-1z"/><path fill="#FFF" d="M49 63h1v1h-1zM50 63h1v1h-1zM51 63h1v1h-1zM52 63h1v1h-1zM53 63h1v1h-1zM54 63h1v1h-1z"/><path fill="#766F6D" d="M55 63h1v1h-1z"/><path fill="#231815" d="M56 63h1v1h-1zM57 63h1v1h-1zM58 63h1v1h-1zM59 63h1v1h-1zM60 63h1v1h-1zM8 64h1v1H8zM9 64h1v1H9zM10 64h1v1h-1zM11 64h1v1h-1z"/><path fill="#585F62" d="M12 64h1v1h-1z"/><path fill="#D7EBF1" d="M13 64h1v1h-1z"/><path fill="#FFF" d="M14 64h1v1h-1zM15 64h1v1h-1zM16 64h1v1h-1z"/><path fill="#E6F2F6" d="M17 64h1v1h-1z"/><path fill="#B4D9E4" d="M18 64h1v1h-1z"/><path fill="#AFD6E2" d="M19 64h1v1h-1zM20 64h1v1h-1z"/><path fill="#85C2D5" d="M21 64h1v1h-1z"/><path fill="#2996B9" d="M22 64h1v1h-1zM23 64h1v1h-1zM24 64h1v1h-1z"/><path fill="#CFE7EE" d="M25 64h1v1h-1z"/><path fill="#FFF" d="M26 64h1v1h-1zM27 64h1v1h-1zM28 64h1v1h-1zM29 64h1v1h-1zM30 64h1v1h-1zM31 64h1v1h-1zM32 64h1v1h-1zM33 64h1v1h-1zM34 64h1v1h-1zM35 64h1v1h-1zM36 64h1v1h-1zM37 64h1v1h-1zM38 64h1v1h-1zM39 64h1v1h-1zM40 64h1v1h-1z"/><path fill="#CDE5ED" d="M41 64h1v1h-1z"/><path fill="#6CB6CE" d="M42 64h1v1h-1z"/><path fill="#2996B9" d="M43 64h1v1h-1zM44 64h1v1h-1z"/><path fill="#4BA6C3" d="M45 64h1v1h-1z"/><path fill="#AFD6E2" d="M46 64h1v1h-1zM47 64h1v1h-1z"/><path fill="#B4D9E4" d="M48 64h1v1h-1z"/><path fill="#EBF5F8" d="M49 64h1v1h-1z"/><path fill="#FFF" d="M50 64h1v1h-1zM51 64h1v1h-1zM52 64h1v1h-1z"/><path fill="#F1F1F0" d="M53 64h1v1h-1z"/><path fill="#68605E" d="M54 64h1v1h-1z"/><path fill="#231815" d="M55 64h1v1h-1zM56 64h1v1h-1zM57 64h1v1h-1zM58 64h1v1h-1zM59 64h1v1h-1zM9 65h1v1H9zM10 65h1v1h-1zM11 65h1v1h-1zM12 65h1v1h-1z"/><path fill="#4F5355" d="M13 65h1v1h-1z"/><path fill="#B0CFD9" d="M14 65h1v1h-1z"/><path fill="#C3E0E9" d="M15 65h1v1h-1z"/><path fill="#BEDEE7" d="M16 65h1v1h-1z"/><path fill="#AFD6E2" d="M17 65h1v1h-1zM18 65h1v1h-1zM19 65h1v1h-1zM20 65h1v1h-1z"/><path fill="#9ECEDD" d="M21 65h1v1h-1z"/><path fill="#2996B9" d="M22 65h1v1h-1zM23 65h1v1h-1zM24 65h1v1h-1z"/><path fill="#8AC5D7" d="M25 65h1v1h-1z"/><path fill="#F5FAFB" d="M26 65h1v1h-1z"/><path fill="#FFF" d="M27 65h1v1h-1zM28 65h1v1h-1zM29 65h1v1h-1zM30 65h1v1h-1zM31 65h1v1h-1zM32 65h1v1h-1zM33 65h1v1h-1zM34 65h1v1h-1zM35 65h1v1h-1zM36 65h1v1h-1zM37 65h1v1h-1zM38 65h1v1h-1zM39 65h1v1h-1z"/><path fill="#EBF5F8" d="M40 65h1v1h-1z"/><path fill="#AFD6E2" d="M41 65h1v1h-1z"/><path fill="#4BA6C3" d="M42 65h1v1h-1z"/><path fill="#2996B9" d="M43 65h1v1h-1zM44 65h1v1h-1z"/><path fill="#5BAEC8" d="M45 65h1v1h-1z"/><path fill="#AFD6E2" d="M46 65h1v1h-1zM47 65h1v1h-1zM48 65h1v1h-1zM49 65h1v1h-1z"/><path fill="#C8E3EB" d="M50 65h1v1h-1z"/><path fill="#D7EBF1" d="M51 65h1v1h-1z"/><path fill="#B3C2C6" d="M52 65h1v1h-1z"/><path fill="#3A3230" d="M53 65h1v1h-1z"/><path fill="#231815" d="M54 65h1v1h-1zM55 65h1v1h-1zM56 65h1v1h-1zM57 65h1v1h-1zM58 65h1v1h-1zM9 66h1v1H9zM10 66h1v1h-1zM11 66h1v1h-1zM12 66h1v1h-1zM13 66h1v1h-1z"/><path fill="#2C2422" d="M14 66h1v1h-1z"/><path fill="#728388" d="M15 66h1v1h-1z"/><path fill="#A6CAD5" d="M16 66h1v1h-1z"/><path fill="#AFD6E2" d="M17 66h1v1h-1zM18 66h1v1h-1zM19 66h1v1h-1zM20 66h1v1h-1zM21 66h1v1h-1z"/><path fill="#3A9EBE" d="M22 66h1v1h-1z"/><path fill="#2996B9" d="M23 66h1v1h-1zM24 66h1v1h-1z"/><path fill="#5BAEC8" d="M25 66h1v1h-1z"/><path fill="#BEDEE7" d="M26 66h1v1h-1z"/><path fill="#F0F7FA" d="M27 66h1v1h-1z"/><path fill="#FFF" d="M28 66h1v1h-1zM29 66h1v1h-1zM30 66h1v1h-1zM31 66h1v1h-1zM32 66h1v1h-1zM33 66h1v1h-1zM34 66h1v1h-1zM35 66h1v1h-1zM36 66h1v1h-1zM37 66h1v1h-1zM38 66h1v1h-1z"/><path fill="#F0F7FA" d="M39 66h1v1h-1z"/><path fill="#B4D9E4" d="M40 66h1v1h-1z"/><path fill="#9ECEDD" d="M41 66h1v1h-1z"/><path fill="#2996B9" d="M42 66h1v1h-1zM43 66h1v1h-1zM44 66h1v1h-1z"/><path fill="#7DBED3" d="M45 66h1v1h-1z"/><path fill="#AFD6E2" d="M46 66h1v1h-1zM47 66h1v1h-1zM48 66h1v1h-1zM49 66h1v1h-1z"/><path fill="#9EBEC8" d="M50 66h1v1h-1z"/><path fill="#585F62" d="M51 66h1v1h-1z"/><path fill="#231815" d="M52 66h1v1h-1zM53 66h1v1h-1zM54 66h1v1h-1zM55 66h1v1h-1zM56 66h1v1h-1zM57 66h1v1h-1zM10 67h1v1h-1zM11 67h1v1h-1zM12 67h1v1h-1zM13 67h1v1h-1zM14 67h1v1h-1zM15 67h1v1h-1zM16 67h1v1h-1z"/><path fill="#475F67" d="M17 67h1v1h-1z"/><path fill="#6CB6CE" d="M18 67h1v1h-1zM19 67h1v1h-1zM20 67h1v1h-1zM21 67h1v1h-1z"/><path fill="#42A2C1" d="M22 67h1v1h-1z"/><path fill="#2996B9" d="M23 67h1v1h-1zM24 67h1v1h-1z"/><path fill="#319ABC" d="M25 67h1v1h-1z"/><path fill="#A7D2DF" d="M26 67h1v1h-1z"/><path fill="#B4D9E4" d="M27 67h1v1h-1z"/><path fill="#D7EBF1" d="M28 67h1v1h-1z"/><path fill="#F5FAFB" d="M29 67h1v1h-1z"/><path fill="#FFF" d="M30 67h1v1h-1zM31 67h1v1h-1zM32 67h1v1h-1zM33 67h1v1h-1zM34 67h1v1h-1zM35 67h1v1h-1zM36 67h1v1h-1z"/><path fill="#F5FAFB" d="M37 67h1v1h-1z"/><path fill="#D7EBF1" d="M38 67h1v1h-1z"/><path fill="#AFD6E2" d="M39 67h1v1h-1zM40 67h1v1h-1z"/><path fill="#64B2CB" d="M41 67h1v1h-1z"/><path fill="#2996B9" d="M42 67h1v1h-1zM43 67h1v1h-1zM44 67h1v1h-1z"/><path fill="#A7D2DF" d="M45 67h1v1h-1z"/><path fill="#AFD6E2" d="M46 67h1v1h-1zM47 67h1v1h-1z"/><path fill="#85BACB" d="M48 67h1v1h-1z"/><path fill="#585F62" d="M49 67h1v1h-1z"/><path fill="#231815" d="M50 67h1v1h-1zM51 67h1v1h-1zM52 67h1v1h-1zM53 67h1v1h-1zM54 67h1v1h-1zM55 67h1v1h-1zM56 67h1v1h-1zM11 68h1v1h-1zM12 68h1v1h-1zM13 68h1v1h-1zM14 68h1v1h-1zM15 68h1v1h-1zM16 68h1v1h-1zM17 68h1v1h-1z"/><path fill="#2996B9" d="M18 68h1v1h-1zM19 68h1v1h-1zM20 68h1v1h-1zM21 68h1v1h-1zM22 68h1v1h-1zM23 68h1v1h-1zM24 68h1v1h-1zM25 68h1v1h-1z"/><path fill="#42A2C1" d="M26 68h1v1h-1z"/><path fill="#9ECEDD" d="M27 68h1v1h-1z"/><path fill="#AFD6E2" d="M28 68h1v1h-1zM29 68h1v1h-1z"/><path fill="#B9DBE6" d="M30 68h1v1h-1z"/><path fill="#C3E0E9" d="M31 68h1v1h-1z"/><path fill="#D7EBF1" d="M32 68h1v1h-1zM33 68h1v1h-1zM34 68h1v1h-1z"/><path fill="#C8E3EB" d="M35 68h1v1h-1z"/><path fill="#BEDEE7" d="M36 68h1v1h-1z"/><path fill="#AFD6E2" d="M37 68h1v1h-1zM38 68h1v1h-1zM39 68h1v1h-1z"/><path fill="#7DBED3" d="M40 68h1v1h-1z"/><path fill="#2996B9" d="M41 68h1v1h-1zM42 68h1v1h-1zM43 68h1v1h-1z"/><path fill="#319ABC" d="M44 68h1v1h-1z"/><path fill="#4BA6C3" d="M45 68h1v1h-1z"/><path fill="#42A2C1" d="M46 68h1v1h-1z"/><path fill="#2996B9" d="M47 68h1v1h-1z"/><path fill="#265F71" d="M48 68h1v1h-1z"/><path fill="#231815" d="M49 68h1v1h-1zM50 68h1v1h-1zM51 68h1v1h-1zM52 68h1v1h-1zM53 68h1v1h-1zM54 68h1v1h-1zM13 69h1v1h-1zM14 69h1v1h-1zM15 69h1v1h-1zM16 69h1v1h-1z"/><path fill="#24282A" d="M17 69h1v1h-1z"/><path fill="#2996B9" d="M18 69h1v1h-1zM19 69h1v1h-1zM20 69h1v1h-1zM21 69h1v1h-1zM22 69h1v1h-1zM23 69h1v1h-1zM24 69h1v1h-1zM25 69h1v1h-1zM26 69h1v1h-1zM27 69h1v1h-1z"/><path fill="#5BAEC8" d="M28 69h1v1h-1z"/><path fill="#85C2D5" d="M29 69h1v1h-1z"/><path fill="#A7D2DF" d="M30 69h1v1h-1z"/><path fill="#AFD6E2" d="M31 69h1v1h-1zM32 69h1v1h-1zM33 69h1v1h-1zM34 69h1v1h-1zM35 69h1v1h-1zM36 69h1v1h-1z"/><path fill="#A7D2DF" d="M37 69h1v1h-1z"/><path fill="#7DBED3" d="M38 69h1v1h-1z"/><path fill="#4BA6C3" d="M39 69h1v1h-1z"/><path fill="#2996B9" d="M40 69h1v1h-1zM41 69h1v1h-1zM42 69h1v1h-1zM43 69h1v1h-1zM44 69h1v1h-1zM45 69h1v1h-1zM46 69h1v1h-1zM47 69h1v1h-1z"/><path fill="#27677C" d="M48 69h1v1h-1z"/><path fill="#231815" d="M49 69h1v1h-1zM50 69h1v1h-1zM51 69h1v1h-1zM52 69h1v1h-1zM53 69h1v1h-1zM14 70h1v1h-1zM15 70h1v1h-1zM16 70h1v1h-1z"/><path fill="#3A5959" d="M17 70h1v1h-1z"/><path fill="#549C9D" d="M18 70h1v1h-1z"/><path fill="#5BA29E" d="M19 70h1v1h-1zM20 70h1v1h-1zM21 70h1v1h-1zM22 70h1v1h-1z"/><path fill="#59A09E" d="M23 70h1v1h-1z"/><path fill="#4799A3" d="M24 70h1v1h-1z"/><path fill="#2996B9" d="M25 70h1v1h-1zM26 70h1v1h-1zM27 70h1v1h-1zM28 70h1v1h-1zM29 70h1v1h-1zM30 70h1v1h-1z"/><path fill="#42A2C1" d="M31 70h1v1h-1z"/><path fill="#4BA6C3" d="M32 70h1v1h-1zM33 70h1v1h-1zM34 70h1v1h-1zM35 70h1v1h-1z"/><path fill="#3A9EBE" d="M36 70h1v1h-1z"/><path fill="#2996B9" d="M37 70h1v1h-1zM38 70h1v1h-1zM39 70h1v1h-1zM40 70h1v1h-1zM41 70h1v1h-1zM42 70h1v1h-1zM43 70h1v1h-1zM44 70h1v1h-1zM45 70h1v1h-1zM46 70h1v1h-1zM47 70h1v1h-1zM48 70h1v1h-1z"/><path fill="#406D6E" d="M49 70h1v1h-1z"/><path fill="#231815" d="M50 70h1v1h-1zM51 70h1v1h-1zM52 70h1v1h-1zM53 70h1v1h-1zM14 71h1v1h-1zM15 71h1v1h-1zM16 71h1v1h-1z"/><path fill="#624E27" d="M17 71h1v1h-1z"/><path fill="#CAA845" d="M18 71h1v1h-1z"/><path fill="#DEB84A" d="M19 71h1v1h-1z"/><path fill="#F2C74E" d="M20 71h1v1h-1zM21 71h1v1h-1zM22 71h1v1h-1z"/><path fill="#D2AE47" d="M23 71h1v1h-1z"/><path fill="#C0A74C" d="M24 71h1v1h-1z"/><path fill="#7A9F7F" d="M25 71h1v1h-1z"/><path fill="#2996B9" d="M26 71h1v1h-1zM27 71h1v1h-1zM28 71h1v1h-1zM29 71h1v1h-1zM30 71h1v1h-1zM31 71h1v1h-1zM32 71h1v1h-1zM33 71h1v1h-1zM34 71h1v1h-1zM35 71h1v1h-1zM36 71h1v1h-1zM37 71h1v1h-1zM38 71h1v1h-1zM39 71h1v1h-1zM40 71h1v1h-1z"/><path fill="#3D98AB" d="M41 71h1v1h-1z"/><path fill="#7A9F7F" d="M42 71h1v1h-1zM43 71h1v1h-1zM44 71h1v1h-1zM45 71h1v1h-1z"/><path fill="#81A581" d="M46 71h1v1h-1z"/><path fill="#B3B86F" d="M47 71h1v1h-1z"/><path fill="#D9C15B" d="M48 71h1v1h-1z"/><path fill="#F2C74E" d="M49 71h1v1h-1z"/><path fill="#231815" d="M50 71h1v1h-1zM51 71h1v1h-1zM52 71h1v1h-1zM53 71h1v1h-1zM14 72h1v1h-1zM15 72h1v1h-1zM16 72h1v1h-1z"/><path fill="#4D3C21" d="M17 72h1v1h-1z"/><path fill="#CAA845" d="M18 72h1v1h-1zM19 72h1v1h-1z"/><path fill="#D7B248" d="M20 72h1v1h-1z"/><path fill="#F0C54D" d="M21 72h1v1h-1z"/><path fill="#D9B448" d="M22 72h1v1h-1z"/><path fill="#CAA845" d="M23 72h1v1h-1zM24 72h1v1h-1zM25 72h1v1h-1z"/><path fill="#B6A654" d="M26 72h1v1h-1z"/><path fill="#7A9F7F" d="M27 72h1v1h-1z"/><path fill="#3D98AB" d="M28 72h1v1h-1z"/><path fill="#2996B9" d="M29 72h1v1h-1zM30 72h1v1h-1zM31 72h1v1h-1zM32 72h1v1h-1zM33 72h1v1h-1zM34 72h1v1h-1zM35 72h1v1h-1zM36 72h1v1h-1zM37 72h1v1h-1zM38 72h1v1h-1z"/><path fill="#4799A3" d="M39 72h1v1h-1z"/><path fill="#8EA171" d="M40 72h1v1h-1z"/><path fill="#C0A74C" d="M41 72h1v1h-1z"/><path fill="#CAA845" d="M42 72h1v1h-1zM43 72h1v1h-1zM44 72h1v1h-1zM45 72h1v1h-1z"/><path fill="#D9B448" d="M46 72h1v1h-1z"/><path fill="#F2C74E" d="M47 72h1v1h-1zM48 72h1v1h-1z"/><path fill="#CBA643" d="M49 72h1v1h-1z"/><path fill="#231815" d="M50 72h1v1h-1zM51 72h1v1h-1zM52 72h1v1h-1zM53 72h1v1h-1zM14 73h1v1h-1zM15 73h1v1h-1zM16 73h1v1h-1z"/><path fill="#42331E" d="M17 73h1v1h-1z"/><path fill="#CAA845" d="M18 73h1v1h-1zM19 73h1v1h-1zM20 73h1v1h-1z"/><path fill="#CDAA46" d="M21 73h1v1h-1z"/><path fill="#CAA845" d="M22 73h1v1h-1zM23 73h1v1h-1zM24 73h1v1h-1zM25 73h1v1h-1zM26 73h1v1h-1z"/><path fill="#CDAA46" d="M27 73h1v1h-1z"/><path fill="#EBC14C" d="M28 73h1v1h-1z"/><path fill="#D9C15B" d="M29 73h1v1h-1z"/><path fill="#C0BB69" d="M30 73h1v1h-1z"/><path fill="#8EAF84" d="M31 73h1v1h-1zM32 73h1v1h-1zM33 73h1v1h-1zM34 73h1v1h-1zM35 73h1v1h-1zM36 73h1v1h-1z"/><path fill="#B1AF65" d="M37 73h1v1h-1z"/><path fill="#C0A74C" d="M38 73h1v1h-1z"/><path fill="#CAA845" d="M39 73h1v1h-1zM40 73h1v1h-1zM41 73h1v1h-1zM42 73h1v1h-1zM43 73h1v1h-1zM44 73h1v1h-1zM45 73h1v1h-1zM46 73h1v1h-1z"/><path fill="#D2AE47" d="M47 73h1v1h-1z"/><path fill="#F0C54D" d="M48 73h1v1h-1z"/><path fill="#BE9B40" d="M49 73h1v1h-1z"/><path fill="#231815" d="M50 73h1v1h-1zM51 73h1v1h-1zM52 73h1v1h-1zM14 74h1v1h-1zM15 74h1v1h-1zM16 74h1v1h-1zM17 74h1v1h-1z"/><path fill="#CAA845" d="M18 74h1v1h-1zM19 74h1v1h-1zM20 74h1v1h-1zM21 74h1v1h-1zM22 74h1v1h-1zM23 74h1v1h-1zM24 74h1v1h-1zM25 74h1v1h-1z"/><path fill="#CDAA46" d="M26 74h1v1h-1z"/><path fill="#EBC14C" d="M27 74h1v1h-1z"/><path fill="#F2C74E" d="M28 74h1v1h-1zM29 74h1v1h-1zM30 74h1v1h-1zM31 74h1v1h-1zM32 74h1v1h-1zM33 74h1v1h-1zM34 74h1v1h-1zM35 74h1v1h-1z"/><path fill="#E3BB4B" d="M36 74h1v1h-1z"/><path fill="#CAA845" d="M37 74h1v1h-1zM38 74h1v1h-1zM39 74h1v1h-1zM40 74h1v1h-1zM41 74h1v1h-1zM42 74h1v1h-1zM43 74h1v1h-1zM44 74h1v1h-1zM45 74h1v1h-1zM46 74h1v1h-1zM47 74h1v1h-1z"/><path fill="#CDAA46" d="M48 74h1v1h-1z"/><path fill="#9D8037" d="M49 74h1v1h-1z"/><path fill="#231815" d="M50 74h1v1h-1zM51 74h1v1h-1zM52 74h1v1h-1zM14 75h1v1h-1zM15 75h1v1h-1zM16 75h1v1h-1zM17 75h1v1h-1z"/><path fill="#CAA845" d="M18 75h1v1h-1zM19 75h1v1h-1zM20 75h1v1h-1zM21 75h1v1h-1zM22 75h1v1h-1zM23 75h1v1h-1zM24 75h1v1h-1zM25 75h1v1h-1z"/><path fill="#E8BF4C" d="M26 75h1v1h-1z"/><path fill="#F2C74E" d="M27 75h1v1h-1zM28 75h1v1h-1zM29 75h1v1h-1zM30 75h1v1h-1zM31 75h1v1h-1zM32 75h1v1h-1zM33 75h1v1h-1zM34 75h1v1h-1z"/><path fill="#E3BB4B" d="M35 75h1v1h-1z"/><path fill="#CAA845" d="M36 75h1v1h-1zM37 75h1v1h-1zM38 75h1v1h-1zM39 75h1v1h-1zM40 75h1v1h-1zM41 75h1v1h-1zM42 75h1v1h-1zM43 75h1v1h-1zM44 75h1v1h-1zM45 75h1v1h-1zM46 75h1v1h-1zM47 75h1v1h-1zM48 75h1v1h-1z"/><path fill="#77602D" d="M49 75h1v1h-1z"/><path fill="#231815" d="M50 75h1v1h-1zM51 75h1v1h-1zM52 75h1v1h-1zM14 76h1v1h-1zM15 76h1v1h-1zM16 76h1v1h-1zM17 76h1v1h-1z"/><path fill="#A08439" d="M18 76h1v1h-1z"/><path fill="#CAA845" d="M19 76h1v1h-1zM20 76h1v1h-1zM21 76h1v1h-1zM22 76h1v1h-1zM23 76h1v1h-1zM24 76h1v1h-1z"/><path fill="#D4B047" d="M25 76h1v1h-1z"/><path fill="#F0C54D" d="M26 76h1v1h-1z"/><path fill="#F2C74E" d="M27 76h1v1h-1zM28 76h1v1h-1zM29 76h1v1h-1zM30 76h1v1h-1zM31 76h1v1h-1zM32 76h1v1h-1zM33 76h1v1h-1z"/><path fill="#E8BF4C" d="M34 76h1v1h-1z"/><path fill="#CAA845" d="M35 76h1v1h-1zM36 76h1v1h-1zM37 76h1v1h-1zM38 76h1v1h-1zM39 76h1v1h-1zM40 76h1v1h-1z"/><path fill="#D2AE47" d="M41 76h1v1h-1z"/><path fill="#EDC34D" d="M42 76h1v1h-1z"/><path fill="#D4B047" d="M43 76h1v1h-1z"/><path fill="#CAA845" d="M44 76h1v1h-1zM45 76h1v1h-1zM46 76h1v1h-1zM47 76h1v1h-1zM48 76h1v1h-1z"/><path fill="#77602D" d="M49 76h1v1h-1z"/><path fill="#231815" d="M50 76h1v1h-1zM51 76h1v1h-1zM52 76h1v1h-1zM15 77h1v1h-1zM16 77h1v1h-1zM17 77h1v1h-1z"/><path fill="#A08439" d="M18 77h1v1h-1z"/><path fill="#CAA845" d="M19 77h1v1h-1zM20 77h1v1h-1zM21 77h1v1h-1zM22 77h1v1h-1zM23 77h1v1h-1zM24 77h1v1h-1zM25 77h1v1h-1z"/><path fill="#D2AE47" d="M26 77h1v1h-1z"/><path fill="#EDC34D" d="M27 77h1v1h-1z"/><path fill="#F2C74E" d="M28 77h1v1h-1zM29 77h1v1h-1zM30 77h1v1h-1zM31 77h1v1h-1zM32 77h1v1h-1z"/><path fill="#EBC14C" d="M33 77h1v1h-1z"/><path fill="#CDAA46" d="M34 77h1v1h-1z"/><path fill="#CAA845" d="M35 77h1v1h-1zM36 77h1v1h-1zM37 77h1v1h-1zM38 77h1v1h-1zM39 77h1v1h-1z"/><path fill="#D2AE47" d="M40 77h1v1h-1z"/><path fill="#F0C54D" d="M41 77h1v1h-1z"/><path fill="#F2C74E" d="M42 77h1v1h-1zM43 77h1v1h-1z"/><path fill="#DEB84A" d="M44 77h1v1h-1z"/><path fill="#CAA845" d="M45 77h1v1h-1zM46 77h1v1h-1zM47 77h1v1h-1zM48 77h1v1h-1z"/><path fill="#4D3C21" d="M49 77h1v1h-1z"/><path fill="#231815" d="M50 77h1v1h-1zM51 77h1v1h-1zM52 77h1v1h-1zM15 78h1v1h-1zM16 78h1v1h-1zM17 78h1v1h-1z"/><path fill="#816930" d="M18 78h1v1h-1z"/><path fill="#CAA845" d="M19 78h1v1h-1zM20 78h1v1h-1zM21 78h1v1h-1zM22 78h1v1h-1zM23 78h1v1h-1zM24 78h1v1h-1zM25 78h1v1h-1zM26 78h1v1h-1z"/><path fill="#CDAA46" d="M27 78h1v1h-1z"/><path fill="#E8BF4C" d="M28 78h1v1h-1z"/><path fill="#F2C74E" d="M29 78h1v1h-1zM30 78h1v1h-1zM31 78h1v1h-1z"/><path fill="#EBC14C" d="M32 78h1v1h-1z"/><path fill="#CDAA46" d="M33 78h1v1h-1z"/><path fill="#CAA845" d="M34 78h1v1h-1zM35 78h1v1h-1zM36 78h1v1h-1zM37 78h1v1h-1zM38 78h1v1h-1z"/><path fill="#D2AE47" d="M39 78h1v1h-1z"/><path fill="#F0C54D" d="M40 78h1v1h-1z"/><path fill="#F2C74E" d="M41 78h1v1h-1zM42 78h1v1h-1zM43 78h1v1h-1zM44 78h1v1h-1z"/><path fill="#EBC14C" d="M45 78h1v1h-1z"/><path fill="#CFAC46" d="M46 78h1v1h-1z"/><path fill="#CAA845" d="M47 78h1v1h-1zM48 78h1v1h-1z"/><path fill="#4D3C21" d="M49 78h1v1h-1z"/><path fill="#231815" d="M50 78h1v1h-1zM51 78h1v1h-1zM52 78h1v1h-1zM15 79h1v1h-1zM16 79h1v1h-1zM17 79h1v1h-1z"/><path fill="#735929" d="M18 79h1v1h-1z"/><path fill="#C29B3C" d="M19 79h1v1h-1zM20 79h1v1h-1zM21 79h1v1h-1z"/><path fill="#C6A141" d="M22 79h1v1h-1z"/><path fill="#CAA845" d="M23 79h1v1h-1zM24 79h1v1h-1zM25 79h1v1h-1zM26 79h1v1h-1zM27 79h1v1h-1zM28 79h1v1h-1z"/><path fill="#E3BB4B" d="M29 79h1v1h-1z"/><path fill="#F2C74E" d="M30 79h1v1h-1z"/><path fill="#EBC14C" d="M31 79h1v1h-1z"/><path fill="#CDAA46" d="M32 79h1v1h-1z"/><path fill="#CAA845" d="M33 79h1v1h-1zM34 79h1v1h-1zM35 79h1v1h-1zM36 79h1v1h-1zM37 79h1v1h-1z"/><path fill="#D2AE47" d="M38 79h1v1h-1z"/><path fill="#F0C54D" d="M39 79h1v1h-1z"/><path fill="#F2C74E" d="M40 79h1v1h-1zM41 79h1v1h-1zM42 79h1v1h-1zM43 79h1v1h-1zM44 79h1v1h-1zM45 79h1v1h-1z"/><path fill="#F0C54D" d="M46 79h1v1h-1z"/><path fill="#D7B248" d="M47 79h1v1h-1z"/><path fill="#CAA845" d="M48 79h1v1h-1z"/><path fill="#2D2118" d="M49 79h1v1h-1z"/><path fill="#231815" d="M50 79h1v1h-1zM51 79h1v1h-1zM52 79h1v1h-1zM15 80h1v1h-1zM16 80h1v1h-1zM17 80h1v1h-1z"/><path fill="#4D3419" d="M18 80h1v1h-1z"/><path fill="#AA7322" d="M19 80h1v1h-1zM20 80h1v1h-1zM21 80h1v1h-1z"/><path fill="#BF9135" d="M22 80h1v1h-1z"/><path fill="#CAA845" d="M23 80h1v1h-1zM24 80h1v1h-1zM25 80h1v1h-1zM26 80h1v1h-1zM27 80h1v1h-1zM28 80h1v1h-1zM29 80h1v1h-1z"/><path fill="#D7B248" d="M30 80h1v1h-1z"/><path fill="#CDAA46" d="M31 80h1v1h-1z"/><path fill="#CAA845" d="M32 80h1v1h-1zM33 80h1v1h-1zM34 80h1v1h-1zM35 80h1v1h-1zM36 80h1v1h-1z"/><path fill="#D2AE47" d="M37 80h1v1h-1z"/><path fill="#F0C54D" d="M38 80h1v1h-1z"/><path fill="#F2C74E" d="M39 80h1v1h-1zM40 80h1v1h-1zM41 80h1v1h-1zM42 80h1v1h-1zM43 80h1v1h-1z"/><path fill="#CE9D38" d="M44 80h1v1h-1z"/><path fill="#AA7322" d="M45 80h1v1h-1zM46 80h1v1h-1zM47 80h1v1h-1zM48 80h1v1h-1z"/><path fill="#231815" d="M49 80h1v1h-1zM50 80h1v1h-1zM51 80h1v1h-1zM52 80h1v1h-1zM15 81h1v1h-1zM16 81h1v1h-1zM17 81h1v1h-1z"/><path fill="#452F18" d="M18 81h1v1h-1z"/><path fill="#AA7322" d="M19 81h1v1h-1zM20 81h1v1h-1zM21 81h1v1h-1z"/><path fill="#CE9D38" d="M22 81h1v1h-1z"/><path fill="#E3BB4B" d="M23 81h1v1h-1z"/><path fill="#CAA845" d="M24 81h1v1h-1zM25 81h1v1h-1zM26 81h1v1h-1zM27 81h1v1h-1zM28 81h1v1h-1zM29 81h1v1h-1zM30 81h1v1h-1zM31 81h1v1h-1zM32 81h1v1h-1zM33 81h1v1h-1zM34 81h1v1h-1zM35 81h1v1h-1z"/><path fill="#D2AE47" d="M36 81h1v1h-1z"/><path fill="#F0C54D" d="M37 81h1v1h-1z"/><path fill="#F2C74E" d="M38 81h1v1h-1zM39 81h1v1h-1zM40 81h1v1h-1zM41 81h1v1h-1zM42 81h1v1h-1zM43 81h1v1h-1z"/><path fill="#CE9D38" d="M44 81h1v1h-1z"/><path fill="#AA7322" d="M45 81h1v1h-1zM46 81h1v1h-1zM47 81h1v1h-1z"/><path fill="#A26D21" d="M48 81h1v1h-1z"/><path fill="#231815" d="M49 81h1v1h-1zM50 81h1v1h-1zM51 81h1v1h-1zM52 81h1v1h-1zM15 82h1v1h-1zM16 82h1v1h-1zM17 82h1v1h-1z"/><path fill="#342317" d="M18 82h1v1h-1z"/><path fill="#AA7322" d="M19 82h1v1h-1zM20 82h1v1h-1zM21 82h1v1h-1z"/><path fill="#CE9D38" d="M22 82h1v1h-1z"/><path fill="#F2C74E" d="M23 82h1v1h-1z"/><path fill="#EBC14C" d="M24 82h1v1h-1z"/><path fill="#CDAA46" d="M25 82h1v1h-1z"/><path fill="#CAA845" d="M26 82h1v1h-1zM27 82h1v1h-1zM28 82h1v1h-1zM29 82h1v1h-1zM30 82h1v1h-1zM31 82h1v1h-1zM32 82h1v1h-1zM33 82h1v1h-1zM34 82h1v1h-1z"/><path fill="#D2AE47" d="M35 82h1v1h-1z"/><path fill="#F0C54D" d="M36 82h1v1h-1z"/><path fill="#F2C74E" d="M37 82h1v1h-1zM38 82h1v1h-1zM39 82h1v1h-1zM40 82h1v1h-1zM41 82h1v1h-1zM42 82h1v1h-1zM43 82h1v1h-1z"/><path fill="#CE9D38" d="M44 82h1v1h-1z"/><path fill="#AA7322" d="M45 82h1v1h-1zM46 82h1v1h-1zM47 82h1v1h-1z"/><path fill="#885C1F" d="M48 82h1v1h-1z"/><path fill="#231815" d="M49 82h1v1h-1zM50 82h1v1h-1zM51 82h1v1h-1zM52 82h1v1h-1zM15 83h1v1h-1zM16 83h1v1h-1zM17 83h1v1h-1zM18 83h1v1h-1z"/><path fill="#AA7322" d="M19 83h1v1h-1zM20 83h1v1h-1zM21 83h1v1h-1z"/><path fill="#CE9D38" d="M22 83h1v1h-1z"/><path fill="#F2C74E" d="M23 83h1v1h-1zM24 83h1v1h-1z"/><path fill="#F0C54D" d="M25 83h1v1h-1z"/><path fill="#D2AE47" d="M26 83h1v1h-1z"/><path fill="#CAA845" d="M27 83h1v1h-1zM28 83h1v1h-1zM29 83h1v1h-1zM30 83h1v1h-1zM31 83h1v1h-1zM32 83h1v1h-1zM33 83h1v1h-1z"/><path fill="#D2AE47" d="M34 83h1v1h-1z"/><path fill="#F0C54D" d="M35 83h1v1h-1z"/><path fill="#F2C74E" d="M36 83h1v1h-1zM37 83h1v1h-1zM38 83h1v1h-1zM39 83h1v1h-1zM40 83h1v1h-1zM41 83h1v1h-1zM42 83h1v1h-1zM43 83h1v1h-1z"/><path fill="#CE9D38" d="M44 83h1v1h-1z"/><path fill="#AA7322" d="M45 83h1v1h-1zM46 83h1v1h-1zM47 83h1v1h-1z"/><path fill="#885C1F" d="M48 83h1v1h-1z"/><path fill="#231815" d="M49 83h1v1h-1zM50 83h1v1h-1zM51 83h1v1h-1zM15 84h1v1h-1zM16 84h1v1h-1zM17 84h1v1h-1zM18 84h1v1h-1z"/><path fill="#B99138" d="M19 84h1v1h-1z"/><path fill="#E0B243" d="M20 84h1v1h-1zM21 84h1v1h-1z"/><path fill="#E9BD49" d="M22 84h1v1h-1z"/><path fill="#F2C74E" d="M23 84h1v1h-1zM24 84h1v1h-1zM25 84h1v1h-1z"/><path fill="#F0C54D" d="M26 84h1v1h-1z"/><path fill="#D9B448" d="M27 84h1v1h-1z"/><path fill="#CAA845" d="M28 84h1v1h-1zM29 84h1v1h-1zM30 84h1v1h-1zM31 84h1v1h-1zM32 84h1v1h-1z"/><path fill="#D2AE47" d="M33 84h1v1h-1z"/><path fill="#F0C54D" d="M34 84h1v1h-1z"/><path fill="#F2C74E" d="M35 84h1v1h-1zM36 84h1v1h-1zM37 84h1v1h-1zM38 84h1v1h-1zM39 84h1v1h-1zM40 84h1v1h-1zM41 84h1v1h-1zM42 84h1v1h-1zM43 84h1v1h-1z"/><path fill="#E0B243" d="M44 84h1v1h-1z"/><path fill="#CE9D38" d="M45 84h1v1h-1zM46 84h1v1h-1zM47 84h1v1h-1z"/><path fill="#674A20" d="M48 84h1v1h-1z"/><path fill="#231815" d="M49 84h1v1h-1zM50 84h1v1h-1zM51 84h1v1h-1zM15 85h1v1h-1zM16 85h1v1h-1zM17 85h1v1h-1zM18 85h1v1h-1zM19 85h1v1h-1z"/><path fill="#302319" d="M20 85h1v1h-1z"/><path fill="#574423" d="M21 85h1v1h-1z"/><path fill="#8B7032" d="M22 85h1v1h-1z"/><path fill="#A48539" d="M23 85h1v1h-1z"/><path fill="#BE9B40" d="M24 85h1v1h-1z"/><path fill="#E5BC4A" d="M25 85h1v1h-1z"/><path fill="#F2C74E" d="M26 85h1v1h-1zM27 85h1v1h-1z"/><path fill="#E1B94A" d="M28 85h1v1h-1z"/><path fill="#CAA845" d="M29 85h1v1h-1zM30 85h1v1h-1zM31 85h1v1h-1z"/><path fill="#D2AE47" d="M32 85h1v1h-1z"/><path fill="#F0C54D" d="M33 85h1v1h-1z"/><path fill="#F2C74E" d="M34 85h1v1h-1zM35 85h1v1h-1zM36 85h1v1h-1zM37 85h1v1h-1zM38 85h1v1h-1zM39 85h1v1h-1zM40 85h1v1h-1zM41 85h1v1h-1zM42 85h1v1h-1z"/><path fill="#CBA643" d="M43 85h1v1h-1z"/><path fill="#B1903C" d="M44 85h1v1h-1z"/><path fill="#8B7032" d="M45 85h1v1h-1z"/><path fill="#574423" d="M46 85h1v1h-1z"/><path fill="#302319" d="M47 85h1v1h-1z"/><path fill="#231815" d="M48 85h1v1h-1zM49 85h1v1h-1zM50 85h1v1h-1zM51 85h1v1h-1zM16 86h1v1h-1zM17 86h1v1h-1zM18 86h1v1h-1zM19 86h1v1h-1zM20 86h1v1h-1zM21 86h1v1h-1zM22 86h1v1h-1zM23 86h1v1h-1zM24 86h1v1h-1zM25 86h1v1h-1zM26 86h1v1h-1z"/><path fill="#3D2E1C" d="M27 86h1v1h-1z"/><path fill="#574423" d="M28 86h1v1h-1z"/><path fill="#4F3E22" d="M29 86h1v1h-1z"/><path fill="#4D3C21" d="M30 86h1v1h-1z"/><path fill="#624E27" d="M31 86h1v1h-1z"/><path fill="#886E31" d="M32 86h1v1h-1z"/><path fill="#8B7032" d="M33 86h1v1h-1zM34 86h1v1h-1zM35 86h1v1h-1zM36 86h1v1h-1z"/><path fill="#644F27" d="M37 86h1v1h-1z"/><path fill="#574423" d="M38 86h1v1h-1zM39 86h1v1h-1zM40 86h1v1h-1z"/><path fill="#231815" d="M41 86h1v1h-1zM42 86h1v1h-1zM43 86h1v1h-1zM44 86h1v1h-1zM45 86h1v1h-1zM46 86h1v1h-1zM47 86h1v1h-1zM48 86h1v1h-1zM49 86h1v1h-1zM50 86h1v1h-1zM51 86h1v1h-1zM16 87h1v1h-1zM17 87h1v1h-1zM18 87h1v1h-1zM19 87h1v1h-1zM20 87h1v1h-1zM21 87h1v1h-1zM22 87h1v1h-1zM23 87h1v1h-1zM24 87h1v1h-1zM25 87h1v1h-1zM26 87h1v1h-1zM27 87h1v1h-1zM28 87h1v1h-1zM29 87h1v1h-1zM30 87h1v1h-1zM31 87h1v1h-1zM32 87h1v1h-1zM33 87h1v1h-1zM34 87h1v1h-1zM35 87h1v1h-1zM36 87h1v1h-1zM37 87h1v1h-1zM38 87h1v1h-1zM39 87h1v1h-1zM40 87h1v1h-1zM41 87h1v1h-1zM42 87h1v1h-1zM43 87h1v1h-1zM44 87h1v1h-1zM45 87h1v1h-1zM46 87h1v1h-1zM47 87h1v1h-1zM48 87h1v1h-1zM49 87h1v1h-1zM50 87h1v1h-1zM51 87h1v1h-1zM19 88h1v1h-1zM20 88h1v1h-1zM21 88h1v1h-1zM22 88h1v1h-1zM23 88h1v1h-1zM24 88h1v1h-1zM25 88h1v1h-1zM26 88h1v1h-1zM27 88h1v1h-1zM28 88h1v1h-1zM29 88h1v1h-1zM30 88h1v1h-1zM31 88h1v1h-1zM32 88h1v1h-1zM33 88h1v1h-1zM34 88h1v1h-1zM35 88h1v1h-1zM36 88h1v1h-1zM37 88h1v1h-1zM38 88h1v1h-1zM39 88h1v1h-1zM40 88h1v1h-1zM41 88h1v1h-1zM42 88h1v1h-1zM43 88h1v1h-1zM44 88h1v1h-1zM45 88h1v1h-1zM46 88h1v1h-1zM47 88h1v1h-1zM48 88h1v1h-1zM24 89h1v1h-1zM25 89h1v1h-1zM26 89h1v1h-1zM27 89h1v1h-1zM28 89h1v1h-1zM29 89h1v1h-1zM30 89h1v1h-1zM31 89h1v1h-1zM32 89h1v1h-1zM33 89h1v1h-1zM34 89h1v1h-1zM35 89h1v1h-1zM36 89h1v1h-1zM37 89h1v1h-1zM38 89h1v1h-1zM39 89h1v1h-1zM40 89h1v1h-1zM41 89h1v1h-1zM42 89h1v1h-1zM43 89h1v1h-1z"/></svg>