<svg baseProfile="full" height="90" width="33" xmlns="http://www.w3.org/2000/svg"><path fill="#848793" d="M11 0h1v1h-1zM12 0h1v1h-1zM13 0h1v1h-1zM14 0h1v1h-1zM15 0h1v1h-1zM16 0h1v1h-1zM17 0h1v1h-1zM18 0h1v1h-1zM19 0h1v1h-1zM20 0h1v1h-1zM21 0h1v1h-1zM9 1h1v1H9zM10 1h1v1h-1zM11 1h1v1h-1zM12 1h1v1h-1zM13 1h1v1h-1zM14 1h1v1h-1zM15 1h1v1h-1zM16 1h1v1h-1zM17 1h1v1h-1zM18 1h1v1h-1zM19 1h1v1h-1zM20 1h1v1h-1zM21 1h1v1h-1zM22 1h1v1h-1zM23 1h1v1h-1z"/><path fill="#433D3F" d="M7 2h1v1H7z"/><path fill="#848793" d="M8 2h1v1H8zM9 2h1v1H9zM10 2h1v1h-1zM11 2h1v1h-1zM12 2h1v1h-1zM13 2h1v1h-1zM14 2h1v1h-1zM15 2h1v1h-1zM16 2h1v1h-1zM17 2h1v1h-1zM18 2h1v1h-1zM19 2h1v1h-1zM20 2h1v1h-1zM21 2h1v1h-1zM22 2h1v1h-1zM23 2h1v1h-1z"/><path fill="#5D5B61" d="M24 2h1v1h-1z"/><path fill="#231815" d="M25 2h1v1h-1zM5 3h1v1H5zM6 3h1v1H6z"/><path fill="#6C6B74" d="M7 3h1v1H7z"/><path fill="#848793" d="M8 3h1v1H8zM9 3h1v1H9zM10 3h1v1h-1zM11 3h1v1h-1zM12 3h1v1h-1z"/><path fill="#9597A4" d="M13 3h1v1h-1z"/><path fill="#A6A8B4" d="M14 3h1v1h-1zM15 3h1v1h-1zM16 3h1v1h-1zM17 3h1v1h-1z"/><path fill="#9E9FAC" d="M18 3h1v1h-1z"/><path fill="#8D8F9B" d="M19 3h1v1h-1z"/><path fill="#848793" d="M20 3h1v1h-1zM21 3h1v1h-1zM22 3h1v1h-1zM23 3h1v1h-1zM24 3h1v1h-1z"/><path fill="#413B3C" d="M25 3h1v1h-1z"/><path fill="#231815" d="M26 3h1v1h-1zM27 3h1v1h-1zM3 4h1v1H3zM4 4h1v1H4zM5 4h1v1H5z"/><path fill="#474244" d="M6 4h1v1H6z"/><path fill="#848793" d="M7 4h1v1H7zM8 4h1v1H8zM9 4h1v1H9zM10 4h1v1h-1z"/><path fill="#A6A8B4" d="M11 4h1v1h-1z"/><path fill="#C4C4D1" d="M12 4h1v1h-1z"/><path fill="#C8C8D5" d="M13 4h1v1h-1zM14 4h1v1h-1zM15 4h1v1h-1zM16 4h1v1h-1zM17 4h1v1h-1zM18 4h1v1h-1zM19 4h1v1h-1z"/><path fill="#B7B8C5" d="M20 4h1v1h-1z"/><path fill="#9597A4" d="M21 4h1v1h-1z"/><path fill="#848793" d="M22 4h1v1h-1zM23 4h1v1h-1zM24 4h1v1h-1z"/><path fill="#787983" d="M25 4h1v1h-1z"/><path fill="#231815" d="M26 4h1v1h-1zM27 4h1v1h-1zM28 4h1v1h-1zM29 4h1v1h-1zM2 5h1v1H2zM3 5h1v1H3zM4 5h1v1H4zM5 5h1v1H5z"/><path fill="#6C6B74" d="M6 5h1v1H6z"/><path fill="#848793" d="M7 5h1v1H7zM8 5h1v1H8z"/><path fill="#888B97" d="M9 5h1v1H9z"/><path fill="#BBBCC9" d="M10 5h1v1h-1z"/><path fill="#C8C8D5" d="M11 5h1v1h-1zM12 5h1v1h-1zM13 5h1v1h-1zM14 5h1v1h-1zM15 5h1v1h-1zM16 5h1v1h-1zM17 5h1v1h-1zM18 5h1v1h-1zM19 5h1v1h-1zM20 5h1v1h-1zM21 5h1v1h-1z"/><path fill="#9E9FAC" d="M22 5h1v1h-1z"/><path fill="#848793" d="M23 5h1v1h-1zM24 5h1v1h-1zM25 5h1v1h-1z"/><path fill="#3B3435" d="M26 5h1v1h-1z"/><path fill="#231815" d="M27 5h1v1h-1zM28 5h1v1h-1zM29 5h1v1h-1zM30 5h1v1h-1zM1 6h1v1H1zM2 6h1v1H2zM3 6h1v1H3zM4 6h1v1H4zM5 6h1v1H5z"/><path fill="#6C6B74" d="M6 6h1v1H6z"/><path fill="#848793" d="M7 6h1v1H7zM8 6h1v1H8z"/><path fill="#9E9FAC" d="M9 6h1v1H9z"/><path fill="#C8C8D5" d="M10 6h1v1h-1zM11 6h1v1h-1zM12 6h1v1h-1zM13 6h1v1h-1zM14 6h1v1h-1zM15 6h1v1h-1zM16 6h1v1h-1zM17 6h1v1h-1zM18 6h1v1h-1zM19 6h1v1h-1zM20 6h1v1h-1zM21 6h1v1h-1z"/><path fill="#C4C4D1" d="M22 6h1v1h-1z"/><path fill="#848793" d="M23 6h1v1h-1zM24 6h1v1h-1zM25 6h1v1h-1z"/><path fill="#545054" d="M26 6h1v1h-1z"/><path fill="#231815" d="M27 6h1v1h-1zM28 6h1v1h-1zM29 6h1v1h-1zM30 6h1v1h-1zM31 6h1v1h-1zM1 7h1v1H1zM2 7h1v1H2zM3 7h1v1H3zM4 7h1v1H4z"/><path fill="#423939" d="M5 7h1v1H5z"/><path fill="#8B8C98" d="M6 7h1v1H6z"/><path fill="#848793" d="M7 7h1v1H7zM8 7h1v1H8z"/><path fill="#8D8F9B" d="M9 7h1v1H9z"/><path fill="#C4C4D1" d="M10 7h1v1h-1z"/><path fill="#C8C8D5" d="M11 7h1v1h-1zM12 7h1v1h-1zM13 7h1v1h-1zM14 7h1v1h-1zM15 7h1v1h-1zM16 7h1v1h-1zM17 7h1v1h-1zM18 7h1v1h-1zM19 7h1v1h-1zM20 7h1v1h-1zM21 7h1v1h-1z"/><path fill="#AAACB8" d="M22 7h1v1h-1z"/><path fill="#848793" d="M23 7h1v1h-1zM24 7h1v1h-1zM25 7h1v1h-1z"/><path fill="#9897A1" d="M26 7h1v1h-1z"/><path fill="#2D2321" d="M27 7h1v1h-1z"/><path fill="#231815" d="M28 7h1v1h-1zM29 7h1v1h-1zM30 7h1v1h-1zM31 7h1v1h-1zM0 8h1v1H0zM1 8h1v1H1zM2 8h1v1H2zM3 8h1v1H3z"/><path fill="#423939" d="M4 8h1v1H4z"/><path fill="#BEBDC9" d="M5 8h1v1H5z"/><path fill="#A6A8B4" d="M6 8h1v1H6z"/><path fill="#848793" d="M7 8h1v1H7zM8 8h1v1H8zM9 8h1v1H9z"/><path fill="#91939F" d="M10 8h1v1h-1z"/><path fill="#BBBCC9" d="M11 8h1v1h-1z"/><path fill="#C8C8D5" d="M12 8h1v1h-1zM13 8h1v1h-1zM14 8h1v1h-1zM15 8h1v1h-1zM16 8h1v1h-1zM17 8h1v1h-1zM18 8h1v1h-1zM19 8h1v1h-1zM20 8h1v1h-1z"/><path fill="#AAACB8" d="M21 8h1v1h-1z"/><path fill="#848793" d="M22 8h1v1h-1zM23 8h1v1h-1zM24 8h1v1h-1z"/><path fill="#888B97" d="M25 8h1v1h-1z"/><path fill="#C4C4D1" d="M26 8h1v1h-1z"/><path fill="#B3B2BD" d="M27 8h1v1h-1z"/><path fill="#2D2321" d="M28 8h1v1h-1z"/><path fill="#231815" d="M29 8h1v1h-1zM30 8h1v1h-1zM31 8h1v1h-1zM32 8h1v1h-1zM0 9h1v1H0zM1 9h1v1H1zM2 9h1v1H2zM3 9h1v1H3z"/><path fill="#B3B2BD" d="M4 9h1v1H4z"/><path fill="#C8C8D5" d="M5 9h1v1H5z"/><path fill="#C4C4D1" d="M6 9h1v1H6z"/><path fill="#888B97" d="M7 9h1v1H7z"/><path fill="#848793" d="M8 9h1v1H8zM9 9h1v1H9zM10 9h1v1h-1zM11 9h1v1h-1z"/><path fill="#999BA8" d="M12 9h1v1h-1z"/><path fill="#AAACB8" d="M13 9h1v1h-1z"/><path fill="#B7B8C5" d="M14 9h1v1h-1z"/><path fill="#C4C4D1" d="M15 9h1v1h-1z"/><path fill="#C8C8D5" d="M16 9h1v1h-1z"/><path fill="#BBBCC9" d="M17 9h1v1h-1z"/><path fill="#B3B4C0" d="M18 9h1v1h-1z"/><path fill="#A2A3B0" d="M19 9h1v1h-1z"/><path fill="#8D8F9B" d="M20 9h1v1h-1z"/><path fill="#848793" d="M21 9h1v1h-1zM22 9h1v1h-1zM23 9h1v1h-1zM24 9h1v1h-1z"/><path fill="#A6A8B4" d="M25 9h1v1h-1z"/><path fill="#C8C8D5" d="M26 9h1v1h-1zM27 9h1v1h-1z"/><path fill="#9F9CA5" d="M28 9h1v1h-1z"/><path fill="#231815" d="M29 9h1v1h-1zM30 9h1v1h-1zM31 9h1v1h-1zM32 9h1v1h-1zM0 10h1v1H0zM1 10h1v1H1zM2 10h1v1H2z"/><path fill="#574F51" d="M3 10h1v1H3z"/><path fill="#C8C8D5" d="M4 10h1v1H4zM5 10h1v1H5zM6 10h1v1H6z"/><path fill="#C2C3CE" d="M7 10h1v1H7z"/><path fill="#8C8F9A" d="M8 10h1v1H8z"/><path fill="#848793" d="M9 10h1v1H9zM10 10h1v1h-1zM11 10h1v1h-1zM12 10h1v1h-1zM13 10h1v1h-1zM14 10h1v1h-1zM15 10h1v1h-1zM16 10h1v1h-1zM17 10h1v1h-1zM18 10h1v1h-1zM19 10h1v1h-1zM20 10h1v1h-1zM21 10h1v1h-1zM22 10h1v1h-1zM23 10h1v1h-1z"/><path fill="#B2B4BC" d="M24 10h1v1h-1z"/><path fill="#CFCFDA" d="M25 10h1v1h-1z"/><path fill="#C8C8D5" d="M26 10h1v1h-1zM27 10h1v1h-1zM28 10h1v1h-1z"/><path fill="#4C4445" d="M29 10h1v1h-1z"/><path fill="#231815" d="M30 10h1v1h-1zM31 10h1v1h-1zM32 10h1v1h-1zM0 11h1v1H0zM1 11h1v1H1zM2 11h1v1H2z"/><path fill="#767075" d="M3 11h1v1H3z"/><path fill="#C8C8D5" d="M4 11h1v1H4zM5 11h1v1H5zM6 11h1v1H6z"/><path fill="#E0E0E7" d="M7 11h1v1H7z"/><path fill="#F0F0F2" d="M8 11h1v1H8z"/><path fill="#A3A5AE" d="M9 11h1v1H9z"/><path fill="#848793" d="M10 11h1v1h-1zM11 11h1v1h-1zM12 11h1v1h-1zM13 11h1v1h-1zM14 11h1v1h-1zM15 11h1v1h-1zM16 11h1v1h-1zM17 11h1v1h-1zM18 11h1v1h-1zM19 11h1v1h-1zM20 11h1v1h-1zM21 11h1v1h-1z"/><path fill="#8C8F9A" d="M22 11h1v1h-1z"/><path fill="#C2C3C9" d="M23 11h1v1h-1z"/><path fill="#FFF" d="M24 11h1v1h-1z"/><path fill="#E0E0E7" d="M25 11h1v1h-1z"/><path fill="#C8C8D5" d="M26 11h1v1h-1zM27 11h1v1h-1zM28 11h1v1h-1z"/><path fill="#767075" d="M29 11h1v1h-1z"/><path fill="#231815" d="M30 11h1v1h-1zM31 11h1v1h-1zM32 11h1v1h-1zM0 12h1v1H0zM1 12h1v1H1zM2 12h1v1H2z"/><path fill="#767075" d="M3 12h1v1H3z"/><path fill="#C8C8D5" d="M4 12h1v1H4zM5 12h1v1H5zM6 12h1v1H6z"/><path fill="#E4E4EA" d="M7 12h1v1H7z"/><path fill="#FFF" d="M8 12h1v1H8zM9 12h1v1H9z"/><path fill="#E0E1E4" d="M10 12h1v1h-1z"/><path fill="#B2B4BC" d="M11 12h1v1h-1z"/><path fill="#9396A1" d="M12 12h1v1h-1z"/><path fill="#848793" d="M13 12h1v1h-1zM14 12h1v1h-1zM15 12h1v1h-1zM16 12h1v1h-1zM17 12h1v1h-1zM18 12h1v1h-1zM19 12h1v1h-1z"/><path fill="#A3A5AE" d="M20 12h1v1h-1z"/><path fill="#C9CBD0" d="M21 12h1v1h-1z"/><path fill="#F7F8F8" d="M22 12h1v1h-1z"/><path fill="#FFF" d="M23 12h1v1h-1zM24 12h1v1h-1z"/><path fill="#E4E4EA" d="M25 12h1v1h-1z"/><path fill="#C8C8D5" d="M26 12h1v1h-1zM27 12h1v1h-1zM28 12h1v1h-1z"/><path fill="#767075" d="M29 12h1v1h-1z"/><path fill="#231815" d="M30 12h1v1h-1zM31 12h1v1h-1zM32 12h1v1h-1zM0 13h1v1H0zM1 13h1v1H1zM2 13h1v1H2z"/><path fill="#767075" d="M3 13h1v1H3z"/><path fill="#C8C8D5" d="M4 13h1v1H4zM5 13h1v1H5zM6 13h1v1H6z"/><path fill="#E4E4EA" d="M7 13h1v1H7z"/><path fill="#FFF" d="M8 13h1v1H8zM9 13h1v1H9zM10 13h1v1h-1zM11 13h1v1h-1zM12 13h1v1h-1z"/><path fill="#F7F8F8" d="M13 13h1v1h-1z"/><path fill="#E0E1E4" d="M14 13h1v1h-1zM15 13h1v1h-1zM16 13h1v1h-1zM17 13h1v1h-1z"/><path fill="#E8E9EB" d="M18 13h1v1h-1z"/><path fill="#FFF" d="M19 13h1v1h-1zM20 13h1v1h-1zM21 13h1v1h-1zM22 13h1v1h-1zM23 13h1v1h-1zM24 13h1v1h-1z"/><path fill="#E4E4EA" d="M25 13h1v1h-1z"/><path fill="#C8C8D5" d="M26 13h1v1h-1zM27 13h1v1h-1zM28 13h1v1h-1z"/><path fill="#767075" d="M29 13h1v1h-1z"/><path fill="#231815" d="M30 13h1v1h-1zM31 13h1v1h-1zM32 13h1v1h-1zM0 14h1v1H0zM1 14h1v1H1zM2 14h1v1H2z"/><path fill="#767075" d="M3 14h1v1H3z"/><path fill="#C8C8D5" d="M4 14h1v1H4zM5 14h1v1H5zM6 14h1v1H6z"/><path fill="#E4E4EA" d="M7 14h1v1H7z"/><path fill="#FFF" d="M8 14h1v1H8zM9 14h1v1H9zM10 14h1v1h-1zM11 14h1v1h-1zM12 14h1v1h-1zM13 14h1v1h-1zM14 14h1v1h-1zM15 14h1v1h-1zM16 14h1v1h-1zM17 14h1v1h-1zM18 14h1v1h-1zM19 14h1v1h-1zM20 14h1v1h-1zM21 14h1v1h-1zM22 14h1v1h-1zM23 14h1v1h-1zM24 14h1v1h-1z"/><path fill="#E4E4EA" d="M25 14h1v1h-1z"/><path fill="#C8C8D5" d="M26 14h1v1h-1zM27 14h1v1h-1zM28 14h1v1h-1z"/><path fill="#767075" d="M29 14h1v1h-1z"/><path fill="#231815" d="M30 14h1v1h-1zM31 14h1v1h-1zM32 14h1v1h-1zM0 15h1v1H0zM1 15h1v1H1zM2 15h1v1H2z"/><path fill="#767075" d="M3 15h1v1H3z"/><path fill="#C8C8D5" d="M4 15h1v1H4zM5 15h1v1H5zM6 15h1v1H6z"/><path fill="#E4E4EA" d="M7 15h1v1H7z"/><path fill="#FFF" d="M8 15h1v1H8zM9 15h1v1H9zM10 15h1v1h-1zM11 15h1v1h-1zM12 15h1v1h-1zM13 15h1v1h-1zM14 15h1v1h-1zM15 15h1v1h-1zM16 15h1v1h-1zM17 15h1v1h-1zM18 15h1v1h-1zM19 15h1v1h-1zM20 15h1v1h-1zM21 15h1v1h-1zM22 15h1v1h-1zM23 15h1v1h-1zM24 15h1v1h-1z"/><path fill="#E4E4EA" d="M25 15h1v1h-1z"/><path fill="#C8C8D5" d="M26 15h1v1h-1zM27 15h1v1h-1zM28 15h1v1h-1z"/><path fill="#767075" d="M29 15h1v1h-1z"/><path fill="#231815" d="M30 15h1v1h-1zM31 15h1v1h-1zM32 15h1v1h-1zM0 16h1v1H0zM1 16h1v1H1zM2 16h1v1H2z"/><path fill="#767075" d="M3 16h1v1H3z"/><path fill="#C8C8D5" d="M4 16h1v1H4zM5 16h1v1H5zM6 16h1v1H6z"/><path fill="#E4E4EA" d="M7 16h1v1H7z"/><path fill="#FFF" d="M8 16h1v1H8zM9 16h1v1H9zM10 16h1v1h-1zM11 16h1v1h-1zM12 16h1v1h-1zM13 16h1v1h-1zM14 16h1v1h-1zM15 16h1v1h-1zM16 16h1v1h-1zM17 16h1v1h-1zM18 16h1v1h-1zM19 16h1v1h-1zM20 16h1v1h-1zM21 16h1v1h-1zM22 16h1v1h-1zM23 16h1v1h-1zM24 16h1v1h-1z"/><path fill="#E4E4EA" d="M25 16h1v1h-1z"/><path fill="#C8C8D5" d="M26 16h1v1h-1zM27 16h1v1h-1zM28 16h1v1h-1z"/><path fill="#767075" d="M29 16h1v1h-1z"/><path fill="#231815" d="M30 16h1v1h-1zM31 16h1v1h-1zM32 16h1v1h-1zM0 17h1v1H0zM1 17h1v1H1zM2 17h1v1H2z"/><path fill="#767075" d="M3 17h1v1H3z"/><path fill="#C8C8D5" d="M4 17h1v1H4zM5 17h1v1H5zM6 17h1v1H6z"/><path fill="#E4E4EA" d="M7 17h1v1H7z"/><path fill="#FFF" d="M8 17h1v1H8zM9 17h1v1H9zM10 17h1v1h-1zM11 17h1v1h-1zM12 17h1v1h-1zM13 17h1v1h-1zM14 17h1v1h-1zM15 17h1v1h-1zM16 17h1v1h-1zM17 17h1v1h-1zM18 17h1v1h-1zM19 17h1v1h-1zM20 17h1v1h-1zM21 17h1v1h-1zM22 17h1v1h-1zM23 17h1v1h-1zM24 17h1v1h-1z"/><path fill="#E4E4EA" d="M25 17h1v1h-1z"/><path fill="#C8C8D5" d="M26 17h1v1h-1zM27 17h1v1h-1zM28 17h1v1h-1z"/><path fill="#767075" d="M29 17h1v1h-1z"/><path fill="#231815" d="M30 17h1v1h-1zM31 17h1v1h-1zM32 17h1v1h-1zM0 18h1v1H0zM1 18h1v1H1zM2 18h1v1H2z"/><path fill="#767075" d="M3 18h1v1H3z"/><path fill="#C8C8D5" d="M4 18h1v1H4zM5 18h1v1H5zM6 18h1v1H6z"/><path fill="#E4E4EA" d="M7 18h1v1H7z"/><path fill="#FFF" d="M8 18h1v1H8zM9 18h1v1H9zM10 18h1v1h-1zM11 18h1v1h-1zM12 18h1v1h-1zM13 18h1v1h-1zM14 18h1v1h-1zM15 18h1v1h-1zM16 18h1v1h-1zM17 18h1v1h-1zM18 18h1v1h-1zM19 18h1v1h-1zM20 18h1v1h-1zM21 18h1v1h-1zM22 18h1v1h-1zM23 18h1v1h-1zM24 18h1v1h-1z"/><path fill="#E4E4EA" d="M25 18h1v1h-1z"/><path fill="#C8C8D5" d="M26 18h1v1h-1zM27 18h1v1h-1zM28 18h1v1h-1z"/><path fill="#767075" d="M29 18h1v1h-1z"/><path fill="#231815" d="M30 18h1v1h-1zM31 18h1v1h-1zM32 18h1v1h-1zM0 19h1v1H0zM1 19h1v1H1zM2 19h1v1H2z"/><path fill="#767075" d="M3 19h1v1H3z"/><path fill="#C8C8D5" d="M4 19h1v1H4zM5 19h1v1H5zM6 19h1v1H6z"/><path fill="#E4E4EA" d="M7 19h1v1H7z"/><path fill="#FFF" d="M8 19h1v1H8zM9 19h1v1H9zM10 19h1v1h-1zM11 19h1v1h-1zM12 19h1v1h-1zM13 19h1v1h-1zM14 19h1v1h-1zM15 19h1v1h-1zM16 19h1v1h-1zM17 19h1v1h-1zM18 19h1v1h-1zM19 19h1v1h-1zM20 19h1v1h-1zM21 19h1v1h-1zM22 19h1v1h-1zM23 19h1v1h-1zM24 19h1v1h-1z"/><path fill="#E4E4EA" d="M25 19h1v1h-1z"/><path fill="#C8C8D5" d="M26 19h1v1h-1zM27 19h1v1h-1zM28 19h1v1h-1z"/><path fill="#767075" d="M29 19h1v1h-1z"/><path fill="#231815" d="M30 19h1v1h-1zM31 19h1v1h-1zM32 19h1v1h-1zM0 20h1v1H0zM1 20h1v1H1zM2 20h1v1H2z"/><path fill="#767075" d="M3 20h1v1H3z"/><path fill="#C8C8D5" d="M4 20h1v1H4zM5 20h1v1H5zM6 20h1v1H6z"/><path fill="#E4E4EA" d="M7 20h1v1H7z"/><path fill="#FFF" d="M8 20h1v1H8zM9 20h1v1H9zM10 20h1v1h-1zM11 20h1v1h-1zM12 20h1v1h-1zM13 20h1v1h-1zM14 20h1v1h-1zM15 20h1v1h-1zM16 20h1v1h-1zM17 20h1v1h-1zM18 20h1v1h-1zM19 20h1v1h-1zM20 20h1v1h-1zM21 20h1v1h-1zM22 20h1v1h-1zM23 20h1v1h-1zM24 20h1v1h-1z"/><path fill="#E4E4EA" d="M25 20h1v1h-1z"/><path fill="#C8C8D5" d="M26 20h1v1h-1zM27 20h1v1h-1zM28 20h1v1h-1z"/><path fill="#767075" d="M29 20h1v1h-1z"/><path fill="#231815" d="M30 20h1v1h-1zM31 20h1v1h-1zM32 20h1v1h-1zM0 21h1v1H0zM1 21h1v1H1zM2 21h1v1H2z"/><path fill="#767075" d="M3 21h1v1H3z"/><path fill="#C8C8D5" d="M4 21h1v1H4zM5 21h1v1H5zM6 21h1v1H6z"/><path fill="#E4E4EA" d="M7 21h1v1H7z"/><path fill="#FFF" d="M8 21h1v1H8zM9 21h1v1H9zM10 21h1v1h-1zM11 21h1v1h-1zM12 21h1v1h-1zM13 21h1v1h-1zM14 21h1v1h-1zM15 21h1v1h-1zM16 21h1v1h-1zM17 21h1v1h-1zM18 21h1v1h-1zM19 21h1v1h-1zM20 21h1v1h-1zM21 21h1v1h-1zM22 21h1v1h-1zM23 21h1v1h-1zM24 21h1v1h-1z"/><path fill="#E4E4EA" d="M25 21h1v1h-1z"/><path fill="#C8C8D5" d="M26 21h1v1h-1zM27 21h1v1h-1zM28 21h1v1h-1z"/><path fill="#767075" d="M29 21h1v1h-1z"/><path fill="#231815" d="M30 21h1v1h-1zM31 21h1v1h-1zM32 21h1v1h-1zM0 22h1v1H0zM1 22h1v1H1zM2 22h1v1H2z"/><path fill="#767075" d="M3 22h1v1H3z"/><path fill="#C8C8D5" d="M4 22h1v1H4zM5 22h1v1H5zM6 22h1v1H6z"/><path fill="#E4E4EA" d="M7 22h1v1H7z"/><path fill="#FFF" d="M8 22h1v1H8zM9 22h1v1H9zM10 22h1v1h-1zM11 22h1v1h-1zM12 22h1v1h-1zM13 22h1v1h-1zM14 22h1v1h-1zM15 22h1v1h-1zM16 22h1v1h-1zM17 22h1v1h-1zM18 22h1v1h-1zM19 22h1v1h-1zM20 22h1v1h-1zM21 22h1v1h-1zM22 22h1v1h-1zM23 22h1v1h-1zM24 22h1v1h-1z"/><path fill="#E4E4EA" d="M25 22h1v1h-1z"/><path fill="#C8C8D5" d="M26 22h1v1h-1zM27 22h1v1h-1zM28 22h1v1h-1z"/><path fill="#767075" d="M29 22h1v1h-1z"/><path fill="#231815" d="M30 22h1v1h-1zM31 22h1v1h-1zM32 22h1v1h-1zM0 23h1v1H0zM1 23h1v1H1zM2 23h1v1H2z"/><path fill="#767075" d="M3 23h1v1H3z"/><path fill="#C8C8D5" d="M4 23h1v1H4zM5 23h1v1H5zM6 23h1v1H6z"/><path fill="#E4E4EA" d="M7 23h1v1H7z"/><path fill="#FFF" d="M8 23h1v1H8zM9 23h1v1H9zM10 23h1v1h-1zM11 23h1v1h-1zM12 23h1v1h-1zM13 23h1v1h-1zM14 23h1v1h-1zM15 23h1v1h-1zM16 23h1v1h-1zM17 23h1v1h-1zM18 23h1v1h-1zM19 23h1v1h-1zM20 23h1v1h-1zM21 23h1v1h-1zM22 23h1v1h-1zM23 23h1v1h-1zM24 23h1v1h-1z"/><path fill="#E4E4EA" d="M25 23h1v1h-1z"/><path fill="#C8C8D5" d="M26 23h1v1h-1zM27 23h1v1h-1zM28 23h1v1h-1z"/><path fill="#767075" d="M29 23h1v1h-1z"/><path fill="#231815" d="M30 23h1v1h-1zM31 23h1v1h-1zM32 23h1v1h-1zM0 24h1v1H0zM1 24h1v1H1zM2 24h1v1H2z"/><path fill="#767075" d="M3 24h1v1H3z"/><path fill="#C8C8D5" d="M4 24h1v1H4zM5 24h1v1H5zM6 24h1v1H6z"/><path fill="#E4E4EA" d="M7 24h1v1H7z"/><path fill="#FFF" d="M8 24h1v1H8zM9 24h1v1H9zM10 24h1v1h-1zM11 24h1v1h-1zM12 24h1v1h-1zM13 24h1v1h-1zM14 24h1v1h-1zM15 24h1v1h-1zM16 24h1v1h-1zM17 24h1v1h-1zM18 24h1v1h-1zM19 24h1v1h-1zM20 24h1v1h-1zM21 24h1v1h-1zM22 24h1v1h-1zM23 24h1v1h-1zM24 24h1v1h-1z"/><path fill="#E4E4EA" d="M25 24h1v1h-1z"/><path fill="#C8C8D5" d="M26 24h1v1h-1zM27 24h1v1h-1zM28 24h1v1h-1z"/><path fill="#767075" d="M29 24h1v1h-1z"/><path fill="#231815" d="M30 24h1v1h-1zM31 24h1v1h-1zM32 24h1v1h-1zM0 25h1v1H0zM1 25h1v1H1zM2 25h1v1H2z"/><path fill="#767075" d="M3 25h1v1H3z"/><path fill="#C8C8D5" d="M4 25h1v1H4zM5 25h1v1H5zM6 25h1v1H6z"/><path fill="#E4E4EA" d="M7 25h1v1H7z"/><path fill="#FFF" d="M8 25h1v1H8zM9 25h1v1H9zM10 25h1v1h-1zM11 25h1v1h-1zM12 25h1v1h-1zM13 25h1v1h-1zM14 25h1v1h-1zM15 25h1v1h-1zM16 25h1v1h-1zM17 25h1v1h-1zM18 25h1v1h-1zM19 25h1v1h-1zM20 25h1v1h-1zM21 25h1v1h-1zM22 25h1v1h-1zM23 25h1v1h-1zM24 25h1v1h-1z"/><path fill="#E4E4EA" d="M25 25h1v1h-1z"/><path fill="#C8C8D5" d="M26 25h1v1h-1zM27 25h1v1h-1zM28 25h1v1h-1z"/><path fill="#767075" d="M29 25h1v1h-1z"/><path fill="#231815" d="M30 25h1v1h-1zM31 25h1v1h-1zM32 25h1v1h-1zM0 26h1v1H0zM1 26h1v1H1zM2 26h1v1H2z"/><path fill="#767075" d="M3 26h1v1H3z"/><path fill="#C8C8D5" d="M4 26h1v1H4zM5 26h1v1H5zM6 26h1v1H6z"/><path fill="#E4E4EA" d="M7 26h1v1H7z"/><path fill="#FFF" d="M8 26h1v1H8zM9 26h1v1H9zM10 26h1v1h-1zM11 26h1v1h-1zM12 26h1v1h-1zM13 26h1v1h-1zM14 26h1v1h-1zM15 26h1v1h-1zM16 26h1v1h-1zM17 26h1v1h-1zM18 26h1v1h-1zM19 26h1v1h-1zM20 26h1v1h-1zM21 26h1v1h-1zM22 26h1v1h-1zM23 26h1v1h-1zM24 26h1v1h-1z"/><path fill="#E4E4EA" d="M25 26h1v1h-1z"/><path fill="#C8C8D5" d="M26 26h1v1h-1zM27 26h1v1h-1zM28 26h1v1h-1z"/><path fill="#767075" d="M29 26h1v1h-1z"/><path fill="#231815" d="M30 26h1v1h-1zM31 26h1v1h-1zM32 26h1v1h-1zM0 27h1v1H0zM1 27h1v1H1zM2 27h1v1H2z"/><path fill="#767075" d="M3 27h1v1H3z"/><path fill="#C8C8D5" d="M4 27h1v1H4zM5 27h1v1H5zM6 27h1v1H6z"/><path fill="#E4E4EA" d="M7 27h1v1H7z"/><path fill="#FFF" d="M8 27h1v1H8zM9 27h1v1H9zM10 27h1v1h-1zM11 27h1v1h-1zM12 27h1v1h-1zM13 27h1v1h-1zM14 27h1v1h-1zM15 27h1v1h-1zM16 27h1v1h-1zM17 27h1v1h-1zM18 27h1v1h-1zM19 27h1v1h-1zM20 27h1v1h-1zM21 27h1v1h-1zM22 27h1v1h-1zM23 27h1v1h-1zM24 27h1v1h-1z"/><path fill="#E4E4EA" d="M25 27h1v1h-1z"/><path fill="#C8C8D5" d="M26 27h1v1h-1zM27 27h1v1h-1zM28 27h1v1h-1z"/><path fill="#767075" d="M29 27h1v1h-1z"/><path fill="#231815" d="M30 27h1v1h-1zM31 27h1v1h-1zM32 27h1v1h-1zM0 28h1v1H0zM1 28h1v1H1zM2 28h1v1H2z"/><path fill="#767075" d="M3 28h1v1H3z"/><path fill="#C8C8D5" d="M4 28h1v1H4zM5 28h1v1H5zM6 28h1v1H6z"/><path fill="#E4E4EA" d="M7 28h1v1H7z"/><path fill="#FFF" d="M8 28h1v1H8zM9 28h1v1H9zM10 28h1v1h-1zM11 28h1v1h-1zM12 28h1v1h-1zM13 28h1v1h-1zM14 28h1v1h-1zM15 28h1v1h-1zM16 28h1v1h-1zM17 28h1v1h-1zM18 28h1v1h-1zM19 28h1v1h-1zM20 28h1v1h-1zM21 28h1v1h-1zM22 28h1v1h-1zM23 28h1v1h-1zM24 28h1v1h-1z"/><path fill="#E4E4EA" d="M25 28h1v1h-1z"/><path fill="#C8C8D5" d="M26 28h1v1h-1zM27 28h1v1h-1zM28 28h1v1h-1z"/><path fill="#767075" d="M29 28h1v1h-1z"/><path fill="#231815" d="M30 28h1v1h-1zM31 28h1v1h-1zM32 28h1v1h-1zM0 29h1v1H0zM1 29h1v1H1zM2 29h1v1H2z"/><path fill="#767075" d="M3 29h1v1H3z"/><path fill="#C8C8D5" d="M4 29h1v1H4zM5 29h1v1H5zM6 29h1v1H6z"/><path fill="#E4E4EA" d="M7 29h1v1H7z"/><path fill="#FFF" d="M8 29h1v1H8zM9 29h1v1H9zM10 29h1v1h-1zM11 29h1v1h-1zM12 29h1v1h-1zM13 29h1v1h-1zM14 29h1v1h-1zM15 29h1v1h-1zM16 29h1v1h-1zM17 29h1v1h-1zM18 29h1v1h-1zM19 29h1v1h-1zM20 29h1v1h-1zM21 29h1v1h-1zM22 29h1v1h-1zM23 29h1v1h-1zM24 29h1v1h-1z"/><path fill="#E4E4EA" d="M25 29h1v1h-1z"/><path fill="#C8C8D5" d="M26 29h1v1h-1zM27 29h1v1h-1zM28 29h1v1h-1z"/><path fill="#767075" d="M29 29h1v1h-1z"/><path fill="#231815" d="M30 29h1v1h-1zM31 29h1v1h-1zM32 29h1v1h-1zM0 30h1v1H0zM1 30h1v1H1zM2 30h1v1H2z"/><path fill="#767075" d="M3 30h1v1H3z"/><path fill="#C8C8D5" d="M4 30h1v1H4zM5 30h1v1H5zM6 30h1v1H6z"/><path fill="#E4E4EA" d="M7 30h1v1H7z"/><path fill="#FFF" d="M8 30h1v1H8zM9 30h1v1H9zM10 30h1v1h-1zM11 30h1v1h-1zM12 30h1v1h-1zM13 30h1v1h-1zM14 30h1v1h-1zM15 30h1v1h-1zM16 30h1v1h-1zM17 30h1v1h-1zM18 30h1v1h-1zM19 30h1v1h-1zM20 30h1v1h-1zM21 30h1v1h-1zM22 30h1v1h-1zM23 30h1v1h-1zM24 30h1v1h-1z"/><path fill="#E4E4EA" d="M25 30h1v1h-1z"/><path fill="#C8C8D5" d="M26 30h1v1h-1zM27 30h1v1h-1zM28 30h1v1h-1z"/><path fill="#767075" d="M29 30h1v1h-1z"/><path fill="#231815" d="M30 30h1v1h-1zM31 30h1v1h-1zM32 30h1v1h-1zM0 31h1v1H0zM1 31h1v1H1zM2 31h1v1H2z"/><path fill="#767075" d="M3 31h1v1H3z"/><path fill="#C8C8D5" d="M4 31h1v1H4zM5 31h1v1H5zM6 31h1v1H6z"/><path fill="#E4E4EA" d="M7 31h1v1H7z"/><path fill="#FFF" d="M8 31h1v1H8zM9 31h1v1H9zM10 31h1v1h-1zM11 31h1v1h-1zM12 31h1v1h-1zM13 31h1v1h-1zM14 31h1v1h-1zM15 31h1v1h-1zM16 31h1v1h-1zM17 31h1v1h-1zM18 31h1v1h-1zM19 31h1v1h-1zM20 31h1v1h-1zM21 31h1v1h-1zM22 31h1v1h-1zM23 31h1v1h-1zM24 31h1v1h-1z"/><path fill="#E4E4EA" d="M25 31h1v1h-1z"/><path fill="#C8C8D5" d="M26 31h1v1h-1zM27 31h1v1h-1zM28 31h1v1h-1z"/><path fill="#767075" d="M29 31h1v1h-1z"/><path fill="#231815" d="M30 31h1v1h-1zM31 31h1v1h-1zM32 31h1v1h-1zM0 32h1v1H0zM1 32h1v1H1zM2 32h1v1H2z"/><path fill="#767075" d="M3 32h1v1H3z"/><path fill="#C8C8D5" d="M4 32h1v1H4zM5 32h1v1H5zM6 32h1v1H6z"/><path fill="#E4E4EA" d="M7 32h1v1H7z"/><path fill="#FFF" d="M8 32h1v1H8zM9 32h1v1H9zM10 32h1v1h-1zM11 32h1v1h-1zM12 32h1v1h-1zM13 32h1v1h-1zM14 32h1v1h-1zM15 32h1v1h-1zM16 32h1v1h-1zM17 32h1v1h-1zM18 32h1v1h-1zM19 32h1v1h-1zM20 32h1v1h-1zM21 32h1v1h-1zM22 32h1v1h-1zM23 32h1v1h-1zM24 32h1v1h-1z"/><path fill="#E4E4EA" d="M25 32h1v1h-1z"/><path fill="#C8C8D5" d="M26 32h1v1h-1zM27 32h1v1h-1zM28 32h1v1h-1z"/><path fill="#767075" d="M29 32h1v1h-1z"/><path fill="#231815" d="M30 32h1v1h-1zM31 32h1v1h-1zM32 32h1v1h-1zM0 33h1v1H0zM1 33h1v1H1zM2 33h1v1H2z"/><path fill="#767075" d="M3 33h1v1H3z"/><path fill="#C8C8D5" d="M4 33h1v1H4zM5 33h1v1H5zM6 33h1v1H6z"/><path fill="#E4E4EA" d="M7 33h1v1H7z"/><path fill="#FFF" d="M8 33h1v1H8zM9 33h1v1H9zM10 33h1v1h-1zM11 33h1v1h-1zM12 33h1v1h-1zM13 33h1v1h-1zM14 33h1v1h-1zM15 33h1v1h-1zM16 33h1v1h-1zM17 33h1v1h-1zM18 33h1v1h-1zM19 33h1v1h-1zM20 33h1v1h-1zM21 33h1v1h-1zM22 33h1v1h-1zM23 33h1v1h-1zM24 33h1v1h-1z"/><path fill="#E4E4EA" d="M25 33h1v1h-1z"/><path fill="#C8C8D5" d="M26 33h1v1h-1zM27 33h1v1h-1zM28 33h1v1h-1z"/><path fill="#767075" d="M29 33h1v1h-1z"/><path fill="#231815" d="M30 33h1v1h-1zM31 33h1v1h-1zM32 33h1v1h-1zM0 34h1v1H0zM1 34h1v1H1zM2 34h1v1H2z"/><path fill="#767075" d="M3 34h1v1H3z"/><path fill="#C8C8D5" d="M4 34h1v1H4zM5 34h1v1H5zM6 34h1v1H6z"/><path fill="#E4E4EA" d="M7 34h1v1H7z"/><path fill="#FFF" d="M8 34h1v1H8zM9 34h1v1H9zM10 34h1v1h-1zM11 34h1v1h-1zM12 34h1v1h-1zM13 34h1v1h-1zM14 34h1v1h-1zM15 34h1v1h-1zM16 34h1v1h-1zM17 34h1v1h-1zM18 34h1v1h-1zM19 34h1v1h-1zM20 34h1v1h-1zM21 34h1v1h-1zM22 34h1v1h-1zM23 34h1v1h-1zM24 34h1v1h-1z"/><path fill="#E4E4EA" d="M25 34h1v1h-1z"/><path fill="#C8C8D5" d="M26 34h1v1h-1zM27 34h1v1h-1zM28 34h1v1h-1z"/><path fill="#767075" d="M29 34h1v1h-1z"/><path fill="#231815" d="M30 34h1v1h-1zM31 34h1v1h-1zM32 34h1v1h-1zM0 35h1v1H0zM1 35h1v1H1zM2 35h1v1H2z"/><path fill="#767075" d="M3 35h1v1H3z"/><path fill="#C8C8D5" d="M4 35h1v1H4zM5 35h1v1H5zM6 35h1v1H6z"/><path fill="#E4E4EA" d="M7 35h1v1H7z"/><path fill="#FFF" d="M8 35h1v1H8zM9 35h1v1H9zM10 35h1v1h-1zM11 35h1v1h-1zM12 35h1v1h-1zM13 35h1v1h-1zM14 35h1v1h-1zM15 35h1v1h-1zM16 35h1v1h-1zM17 35h1v1h-1zM18 35h1v1h-1zM19 35h1v1h-1zM20 35h1v1h-1zM21 35h1v1h-1zM22 35h1v1h-1zM23 35h1v1h-1zM24 35h1v1h-1z"/><path fill="#E4E4EA" d="M25 35h1v1h-1z"/><path fill="#C8C8D5" d="M26 35h1v1h-1zM27 35h1v1h-1zM28 35h1v1h-1z"/><path fill="#767075" d="M29 35h1v1h-1z"/><path fill="#231815" d="M30 35h1v1h-1zM31 35h1v1h-1zM32 35h1v1h-1zM0 36h1v1H0zM1 36h1v1H1zM2 36h1v1H2z"/><path fill="#767075" d="M3 36h1v1H3z"/><path fill="#C8C8D5" d="M4 36h1v1H4zM5 36h1v1H5zM6 36h1v1H6z"/><path fill="#E4E4EA" d="M7 36h1v1H7z"/><path fill="#FFF" d="M8 36h1v1H8zM9 36h1v1H9zM10 36h1v1h-1zM11 36h1v1h-1zM12 36h1v1h-1zM13 36h1v1h-1zM14 36h1v1h-1zM15 36h1v1h-1zM16 36h1v1h-1zM17 36h1v1h-1zM18 36h1v1h-1zM19 36h1v1h-1zM20 36h1v1h-1zM21 36h1v1h-1zM22 36h1v1h-1zM23 36h1v1h-1zM24 36h1v1h-1z"/><path fill="#E4E4EA" d="M25 36h1v1h-1z"/><path fill="#C8C8D5" d="M26 36h1v1h-1zM27 36h1v1h-1zM28 36h1v1h-1z"/><path fill="#767075" d="M29 36h1v1h-1z"/><path fill="#231815" d="M30 36h1v1h-1zM31 36h1v1h-1zM32 36h1v1h-1zM0 37h1v1H0zM1 37h1v1H1zM2 37h1v1H2z"/><path fill="#767075" d="M3 37h1v1H3z"/><path fill="#C8C8D5" d="M4 37h1v1H4zM5 37h1v1H5zM6 37h1v1H6z"/><path fill="#E4E4EA" d="M7 37h1v1H7z"/><path fill="#FFF" d="M8 37h1v1H8zM9 37h1v1H9zM10 37h1v1h-1zM11 37h1v1h-1zM12 37h1v1h-1zM13 37h1v1h-1zM14 37h1v1h-1zM15 37h1v1h-1zM16 37h1v1h-1zM17 37h1v1h-1zM18 37h1v1h-1zM19 37h1v1h-1zM20 37h1v1h-1zM21 37h1v1h-1zM22 37h1v1h-1zM23 37h1v1h-1zM24 37h1v1h-1z"/><path fill="#E4E4EA" d="M25 37h1v1h-1z"/><path fill="#C8C8D5" d="M26 37h1v1h-1zM27 37h1v1h-1zM28 37h1v1h-1z"/><path fill="#767075" d="M29 37h1v1h-1z"/><path fill="#231815" d="M30 37h1v1h-1zM31 37h1v1h-1zM32 37h1v1h-1zM0 38h1v1H0zM1 38h1v1H1zM2 38h1v1H2z"/><path fill="#767075" d="M3 38h1v1H3z"/><path fill="#C8C8D5" d="M4 38h1v1H4zM5 38h1v1H5zM6 38h1v1H6z"/><path fill="#E4E4EA" d="M7 38h1v1H7z"/><path fill="#FFF" d="M8 38h1v1H8zM9 38h1v1H9zM10 38h1v1h-1zM11 38h1v1h-1zM12 38h1v1h-1zM13 38h1v1h-1zM14 38h1v1h-1zM15 38h1v1h-1zM16 38h1v1h-1zM17 38h1v1h-1zM18 38h1v1h-1zM19 38h1v1h-1zM20 38h1v1h-1zM21 38h1v1h-1zM22 38h1v1h-1zM23 38h1v1h-1zM24 38h1v1h-1z"/><path fill="#E4E4EA" d="M25 38h1v1h-1z"/><path fill="#C8C8D5" d="M26 38h1v1h-1zM27 38h1v1h-1zM28 38h1v1h-1z"/><path fill="#767075" d="M29 38h1v1h-1z"/><path fill="#231815" d="M30 38h1v1h-1zM31 38h1v1h-1zM32 38h1v1h-1zM0 39h1v1H0zM1 39h1v1H1zM2 39h1v1H2z"/><path fill="#767075" d="M3 39h1v1H3z"/><path fill="#C8C8D5" d="M4 39h1v1H4zM5 39h1v1H5zM6 39h1v1H6z"/><path fill="#E4E4EA" d="M7 39h1v1H7z"/><path fill="#FFF" d="M8 39h1v1H8zM9 39h1v1H9zM10 39h1v1h-1zM11 39h1v1h-1zM12 39h1v1h-1zM13 39h1v1h-1zM14 39h1v1h-1zM15 39h1v1h-1zM16 39h1v1h-1zM17 39h1v1h-1zM18 39h1v1h-1zM19 39h1v1h-1zM20 39h1v1h-1zM21 39h1v1h-1zM22 39h1v1h-1zM23 39h1v1h-1zM24 39h1v1h-1z"/><path fill="#E4E4EA" d="M25 39h1v1h-1z"/><path fill="#C8C8D5" d="M26 39h1v1h-1zM27 39h1v1h-1zM28 39h1v1h-1z"/><path fill="#767075" d="M29 39h1v1h-1z"/><path fill="#231815" d="M30 39h1v1h-1zM31 39h1v1h-1zM32 39h1v1h-1zM0 40h1v1H0zM1 40h1v1H1zM2 40h1v1H2z"/><path fill="#767075" d="M3 40h1v1H3z"/><path fill="#C8C8D5" d="M4 40h1v1H4zM5 40h1v1H5zM6 40h1v1H6z"/><path fill="#E4E4EA" d="M7 40h1v1H7z"/><path fill="#FFF" d="M8 40h1v1H8zM9 40h1v1H9zM10 40h1v1h-1zM11 40h1v1h-1zM12 40h1v1h-1zM13 40h1v1h-1zM14 40h1v1h-1zM15 40h1v1h-1zM16 40h1v1h-1zM17 40h1v1h-1zM18 40h1v1h-1zM19 40h1v1h-1zM20 40h1v1h-1zM21 40h1v1h-1zM22 40h1v1h-1zM23 40h1v1h-1zM24 40h1v1h-1z"/><path fill="#E4E4EA" d="M25 40h1v1h-1z"/><path fill="#C8C8D5" d="M26 40h1v1h-1zM27 40h1v1h-1zM28 40h1v1h-1z"/><path fill="#767075" d="M29 40h1v1h-1z"/><path fill="#231815" d="M30 40h1v1h-1zM31 40h1v1h-1zM32 40h1v1h-1zM0 41h1v1H0zM1 41h1v1H1zM2 41h1v1H2z"/><path fill="#767075" d="M3 41h1v1H3z"/><path fill="#C8C8D5" d="M4 41h1v1H4zM5 41h1v1H5zM6 41h1v1H6z"/><path fill="#E4E4EA" d="M7 41h1v1H7z"/><path fill="#FFF" d="M8 41h1v1H8zM9 41h1v1H9zM10 41h1v1h-1zM11 41h1v1h-1zM12 41h1v1h-1zM13 41h1v1h-1zM14 41h1v1h-1zM15 41h1v1h-1zM16 41h1v1h-1zM17 41h1v1h-1zM18 41h1v1h-1zM19 41h1v1h-1zM20 41h1v1h-1zM21 41h1v1h-1zM22 41h1v1h-1zM23 41h1v1h-1zM24 41h1v1h-1z"/><path fill="#E4E4EA" d="M25 41h1v1h-1z"/><path fill="#C8C8D5" d="M26 41h1v1h-1zM27 41h1v1h-1zM28 41h1v1h-1z"/><path fill="#767075" d="M29 41h1v1h-1z"/><path fill="#231815" d="M30 41h1v1h-1zM31 41h1v1h-1zM32 41h1v1h-1zM0 42h1v1H0zM1 42h1v1H1zM2 42h1v1H2z"/><path fill="#767075" d="M3 42h1v1H3z"/><path fill="#C8C8D5" d="M4 42h1v1H4zM5 42h1v1H5zM6 42h1v1H6z"/><path fill="#E4E4EA" d="M7 42h1v1H7z"/><path fill="#FFF" d="M8 42h1v1H8zM9 42h1v1H9zM10 42h1v1h-1zM11 42h1v1h-1zM12 42h1v1h-1zM13 42h1v1h-1zM14 42h1v1h-1zM15 42h1v1h-1zM16 42h1v1h-1zM17 42h1v1h-1zM18 42h1v1h-1zM19 42h1v1h-1zM20 42h1v1h-1zM21 42h1v1h-1zM22 42h1v1h-1zM23 42h1v1h-1zM24 42h1v1h-1z"/><path fill="#E4E4EA" d="M25 42h1v1h-1z"/><path fill="#C8C8D5" d="M26 42h1v1h-1zM27 42h1v1h-1zM28 42h1v1h-1z"/><path fill="#767075" d="M29 42h1v1h-1z"/><path fill="#231815" d="M30 42h1v1h-1zM31 42h1v1h-1zM32 42h1v1h-1zM0 43h1v1H0zM1 43h1v1H1zM2 43h1v1H2z"/><path fill="#767075" d="M3 43h1v1H3z"/><path fill="#C8C8D5" d="M4 43h1v1H4zM5 43h1v1H5zM6 43h1v1H6z"/><path fill="#E4E4EA" d="M7 43h1v1H7z"/><path fill="#FFF" d="M8 43h1v1H8zM9 43h1v1H9zM10 43h1v1h-1zM11 43h1v1h-1zM12 43h1v1h-1zM13 43h1v1h-1zM14 43h1v1h-1zM15 43h1v1h-1zM16 43h1v1h-1zM17 43h1v1h-1zM18 43h1v1h-1zM19 43h1v1h-1zM20 43h1v1h-1zM21 43h1v1h-1zM22 43h1v1h-1zM23 43h1v1h-1zM24 43h1v1h-1z"/><path fill="#E4E4EA" d="M25 43h1v1h-1z"/><path fill="#C8C8D5" d="M26 43h1v1h-1zM27 43h1v1h-1zM28 43h1v1h-1z"/><path fill="#767075" d="M29 43h1v1h-1z"/><path fill="#231815" d="M30 43h1v1h-1zM31 43h1v1h-1zM32 43h1v1h-1zM0 44h1v1H0zM1 44h1v1H1zM2 44h1v1H2z"/><path fill="#767075" d="M3 44h1v1H3z"/><path fill="#C8C8D5" d="M4 44h1v1H4zM5 44h1v1H5zM6 44h1v1H6z"/><path fill="#E4E4EA" d="M7 44h1v1H7z"/><path fill="#FFF" d="M8 44h1v1H8zM9 44h1v1H9zM10 44h1v1h-1zM11 44h1v1h-1zM12 44h1v1h-1zM13 44h1v1h-1zM14 44h1v1h-1zM15 44h1v1h-1zM16 44h1v1h-1zM17 44h1v1h-1zM18 44h1v1h-1zM19 44h1v1h-1zM20 44h1v1h-1zM21 44h1v1h-1zM22 44h1v1h-1zM23 44h1v1h-1zM24 44h1v1h-1z"/><path fill="#E4E4EA" d="M25 44h1v1h-1z"/><path fill="#C8C8D5" d="M26 44h1v1h-1zM27 44h1v1h-1zM28 44h1v1h-1z"/><path fill="#767075" d="M29 44h1v1h-1z"/><path fill="#231815" d="M30 44h1v1h-1zM31 44h1v1h-1zM32 44h1v1h-1zM0 45h1v1H0zM1 45h1v1H1zM2 45h1v1H2z"/><path fill="#767075" d="M3 45h1v1H3z"/><path fill="#C8C8D5" d="M4 45h1v1H4zM5 45h1v1H5zM6 45h1v1H6z"/><path fill="#E4E4EA" d="M7 45h1v1H7z"/><path fill="#FFF" d="M8 45h1v1H8zM9 45h1v1H9zM10 45h1v1h-1zM11 45h1v1h-1zM12 45h1v1h-1zM13 45h1v1h-1zM14 45h1v1h-1zM15 45h1v1h-1zM16 45h1v1h-1zM17 45h1v1h-1zM18 45h1v1h-1zM19 45h1v1h-1zM20 45h1v1h-1zM21 45h1v1h-1zM22 45h1v1h-1zM23 45h1v1h-1zM24 45h1v1h-1z"/><path fill="#E4E4EA" d="M25 45h1v1h-1z"/><path fill="#C8C8D5" d="M26 45h1v1h-1zM27 45h1v1h-1zM28 45h1v1h-1z"/><path fill="#767075" d="M29 45h1v1h-1z"/><path fill="#231815" d="M30 45h1v1h-1zM31 45h1v1h-1zM32 45h1v1h-1zM0 46h1v1H0zM1 46h1v1H1zM2 46h1v1H2z"/><path fill="#767075" d="M3 46h1v1H3z"/><path fill="#C8C8D5" d="M4 46h1v1H4zM5 46h1v1H5zM6 46h1v1H6z"/><path fill="#E4E4EA" d="M7 46h1v1H7z"/><path fill="#FFF" d="M8 46h1v1H8zM9 46h1v1H9zM10 46h1v1h-1zM11 46h1v1h-1zM12 46h1v1h-1zM13 46h1v1h-1zM14 46h1v1h-1zM15 46h1v1h-1zM16 46h1v1h-1zM17 46h1v1h-1zM18 46h1v1h-1zM19 46h1v1h-1zM20 46h1v1h-1zM21 46h1v1h-1zM22 46h1v1h-1zM23 46h1v1h-1zM24 46h1v1h-1z"/><path fill="#E4E4EA" d="M25 46h1v1h-1z"/><path fill="#C8C8D5" d="M26 46h1v1h-1zM27 46h1v1h-1zM28 46h1v1h-1z"/><path fill="#767075" d="M29 46h1v1h-1z"/><path fill="#231815" d="M30 46h1v1h-1zM31 46h1v1h-1zM32 46h1v1h-1zM0 47h1v1H0zM1 47h1v1H1zM2 47h1v1H2z"/><path fill="#767075" d="M3 47h1v1H3z"/><path fill="#C8C8D5" d="M4 47h1v1H4zM5 47h1v1H5zM6 47h1v1H6z"/><path fill="#E4E4EA" d="M7 47h1v1H7z"/><path fill="#FFF" d="M8 47h1v1H8zM9 47h1v1H9zM10 47h1v1h-1zM11 47h1v1h-1z"/><path fill="#E7F5FB" d="M12 47h1v1h-1zM13 47h1v1h-1zM14 47h1v1h-1zM15 47h1v1h-1zM16 47h1v1h-1zM17 47h1v1h-1zM18 47h1v1h-1zM19 47h1v1h-1zM20 47h1v1h-1z"/><path fill="#FFF" d="M21 47h1v1h-1zM22 47h1v1h-1zM23 47h1v1h-1zM24 47h1v1h-1z"/><path fill="#E4E4EA" d="M25 47h1v1h-1z"/><path fill="#C8C8D5" d="M26 47h1v1h-1zM27 47h1v1h-1zM28 47h1v1h-1z"/><path fill="#767075" d="M29 47h1v1h-1z"/><path fill="#231815" d="M30 47h1v1h-1zM31 47h1v1h-1zM32 47h1v1h-1zM0 48h1v1H0zM1 48h1v1H1zM2 48h1v1H2z"/><path fill="#767075" d="M3 48h1v1H3z"/><path fill="#C8C8D5" d="M4 48h1v1H4zM5 48h1v1H5zM6 48h1v1H6z"/><path fill="#E4E4EA" d="M7 48h1v1H7z"/><path fill="#FFF" d="M8 48h1v1H8zM9 48h1v1H9zM10 48h1v1h-1zM11 48h1v1h-1z"/><path fill="#9FD8EE" d="M12 48h1v1h-1zM13 48h1v1h-1zM14 48h1v1h-1zM15 48h1v1h-1zM16 48h1v1h-1zM17 48h1v1h-1zM18 48h1v1h-1zM19 48h1v1h-1zM20 48h1v1h-1z"/><path fill="#FFF" d="M21 48h1v1h-1zM22 48h1v1h-1zM23 48h1v1h-1zM24 48h1v1h-1z"/><path fill="#E4E4EA" d="M25 48h1v1h-1z"/><path fill="#C8C8D5" d="M26 48h1v1h-1zM27 48h1v1h-1zM28 48h1v1h-1z"/><path fill="#767075" d="M29 48h1v1h-1z"/><path fill="#231815" d="M30 48h1v1h-1zM31 48h1v1h-1zM32 48h1v1h-1zM0 49h1v1H0zM1 49h1v1H1zM2 49h1v1H2z"/><path fill="#767075" d="M3 49h1v1H3z"/><path fill="#C8C8D5" d="M4 49h1v1H4zM5 49h1v1H5zM6 49h1v1H6z"/><path fill="#E4E4EA" d="M7 49h1v1H7z"/><path fill="#FFF" d="M8 49h1v1H8zM9 49h1v1H9zM10 49h1v1h-1zM11 49h1v1h-1z"/><path fill="#9FD8EE" d="M12 49h1v1h-1zM13 49h1v1h-1zM14 49h1v1h-1zM15 49h1v1h-1zM16 49h1v1h-1zM17 49h1v1h-1zM18 49h1v1h-1zM19 49h1v1h-1zM20 49h1v1h-1z"/><path fill="#FFF" d="M21 49h1v1h-1zM22 49h1v1h-1zM23 49h1v1h-1zM24 49h1v1h-1z"/><path fill="#E4E4EA" d="M25 49h1v1h-1z"/><path fill="#C8C8D5" d="M26 49h1v1h-1zM27 49h1v1h-1zM28 49h1v1h-1z"/><path fill="#767075" d="M29 49h1v1h-1z"/><path fill="#231815" d="M30 49h1v1h-1zM31 49h1v1h-1zM32 49h1v1h-1zM0 50h1v1H0zM1 50h1v1H1zM2 50h1v1H2z"/><path fill="#767075" d="M3 50h1v1H3z"/><path fill="#C8C8D5" d="M4 50h1v1H4zM5 50h1v1H5zM6 50h1v1H6z"/><path fill="#E4E4EA" d="M7 50h1v1H7z"/><path fill="#FFF" d="M8 50h1v1H8zM9 50h1v1H9zM10 50h1v1h-1zM11 50h1v1h-1z"/><path fill="#9FD8EE" d="M12 50h1v1h-1zM13 50h1v1h-1zM14 50h1v1h-1zM15 50h1v1h-1zM16 50h1v1h-1zM17 50h1v1h-1zM18 50h1v1h-1zM19 50h1v1h-1zM20 50h1v1h-1z"/><path fill="#FFF" d="M21 50h1v1h-1zM22 50h1v1h-1zM23 50h1v1h-1zM24 50h1v1h-1z"/><path fill="#E4E4EA" d="M25 50h1v1h-1z"/><path fill="#C8C8D5" d="M26 50h1v1h-1zM27 50h1v1h-1zM28 50h1v1h-1z"/><path fill="#767075" d="M29 50h1v1h-1z"/><path fill="#231815" d="M30 50h1v1h-1zM31 50h1v1h-1zM32 50h1v1h-1zM0 51h1v1H0zM1 51h1v1H1zM2 51h1v1H2z"/><path fill="#767075" d="M3 51h1v1H3z"/><path fill="#C8C8D5" d="M4 51h1v1H4zM5 51h1v1H5zM6 51h1v1H6z"/><path fill="#E4E4EA" d="M7 51h1v1H7z"/><path fill="#FFF" d="M8 51h1v1H8zM9 51h1v1H9zM10 51h1v1h-1zM11 51h1v1h-1z"/><path fill="#9FD8EE" d="M12 51h1v1h-1zM13 51h1v1h-1zM14 51h1v1h-1zM15 51h1v1h-1zM16 51h1v1h-1zM17 51h1v1h-1zM18 51h1v1h-1zM19 51h1v1h-1zM20 51h1v1h-1z"/><path fill="#FFF" d="M21 51h1v1h-1zM22 51h1v1h-1zM23 51h1v1h-1zM24 51h1v1h-1z"/><path fill="#E4E4EA" d="M25 51h1v1h-1z"/><path fill="#C8C8D5" d="M26 51h1v1h-1zM27 51h1v1h-1zM28 51h1v1h-1z"/><path fill="#767075" d="M29 51h1v1h-1z"/><path fill="#231815" d="M30 51h1v1h-1zM31 51h1v1h-1zM32 51h1v1h-1zM0 52h1v1H0zM1 52h1v1H1zM2 52h1v1H2z"/><path fill="#767075" d="M3 52h1v1H3z"/><path fill="#C8C8D5" d="M4 52h1v1H4zM5 52h1v1H5zM6 52h1v1H6z"/><path fill="#E4E4EA" d="M7 52h1v1H7z"/><path fill="#FFF" d="M8 52h1v1H8zM9 52h1v1H9zM10 52h1v1h-1zM11 52h1v1h-1z"/><path fill="#E7F5FB" d="M12 52h1v1h-1zM13 52h1v1h-1zM14 52h1v1h-1zM15 52h1v1h-1zM16 52h1v1h-1zM17 52h1v1h-1zM18 52h1v1h-1zM19 52h1v1h-1zM20 52h1v1h-1z"/><path fill="#FFF" d="M21 52h1v1h-1zM22 52h1v1h-1zM23 52h1v1h-1zM24 52h1v1h-1z"/><path fill="#E4E4EA" d="M25 52h1v1h-1z"/><path fill="#C8C8D5" d="M26 52h1v1h-1zM27 52h1v1h-1zM28 52h1v1h-1z"/><path fill="#767075" d="M29 52h1v1h-1z"/><path fill="#231815" d="M30 52h1v1h-1zM31 52h1v1h-1zM32 52h1v1h-1zM0 53h1v1H0zM1 53h1v1H1zM2 53h1v1H2z"/><path fill="#767075" d="M3 53h1v1H3z"/><path fill="#C8C8D5" d="M4 53h1v1H4zM5 53h1v1H5zM6 53h1v1H6z"/><path fill="#E4E4EA" d="M7 53h1v1H7z"/><path fill="#FFF" d="M8 53h1v1H8zM9 53h1v1H9zM10 53h1v1h-1zM11 53h1v1h-1zM12 53h1v1h-1zM13 53h1v1h-1zM14 53h1v1h-1zM15 53h1v1h-1zM16 53h1v1h-1zM17 53h1v1h-1zM18 53h1v1h-1zM19 53h1v1h-1zM20 53h1v1h-1zM21 53h1v1h-1zM22 53h1v1h-1zM23 53h1v1h-1zM24 53h1v1h-1z"/><path fill="#E4E4EA" d="M25 53h1v1h-1z"/><path fill="#C8C8D5" d="M26 53h1v1h-1zM27 53h1v1h-1zM28 53h1v1h-1z"/><path fill="#767075" d="M29 53h1v1h-1z"/><path fill="#231815" d="M30 53h1v1h-1zM31 53h1v1h-1zM32 53h1v1h-1zM0 54h1v1H0zM1 54h1v1H1zM2 54h1v1H2z"/><path fill="#767075" d="M3 54h1v1H3z"/><path fill="#C8C8D5" d="M4 54h1v1H4zM5 54h1v1H5zM6 54h1v1H6z"/><path fill="#E4E4EA" d="M7 54h1v1H7z"/><path fill="#FFF" d="M8 54h1v1H8zM9 54h1v1H9zM10 54h1v1h-1zM11 54h1v1h-1zM12 54h1v1h-1zM13 54h1v1h-1zM14 54h1v1h-1zM15 54h1v1h-1zM16 54h1v1h-1zM17 54h1v1h-1zM18 54h1v1h-1zM19 54h1v1h-1zM20 54h1v1h-1zM21 54h1v1h-1zM22 54h1v1h-1zM23 54h1v1h-1zM24 54h1v1h-1z"/><path fill="#E4E4EA" d="M25 54h1v1h-1z"/><path fill="#C8C8D5" d="M26 54h1v1h-1zM27 54h1v1h-1zM28 54h1v1h-1z"/><path fill="#4C4445" d="M29 54h1v1h-1z"/><path fill="#231815" d="M30 54h1v1h-1zM31 54h1v1h-1zM32 54h1v1h-1zM0 55h1v1H0zM1 55h1v1H1zM2 55h1v1H2z"/><path fill="#767075" d="M3 55h1v1H3z"/><path fill="#C8C8D5" d="M4 55h1v1H4zM5 55h1v1H5zM6 55h1v1H6z"/><path fill="#E4E4EA" d="M7 55h1v1H7z"/><path fill="#FFF" d="M8 55h1v1H8zM9 55h1v1H9zM10 55h1v1h-1zM11 55h1v1h-1zM12 55h1v1h-1zM13 55h1v1h-1zM14 55h1v1h-1zM15 55h1v1h-1zM16 55h1v1h-1zM17 55h1v1h-1zM18 55h1v1h-1zM19 55h1v1h-1zM20 55h1v1h-1zM21 55h1v1h-1zM22 55h1v1h-1zM23 55h1v1h-1zM24 55h1v1h-1z"/><path fill="#E4E4EA" d="M25 55h1v1h-1z"/><path fill="#C8C8D5" d="M26 55h1v1h-1zM27 55h1v1h-1zM28 55h1v1h-1z"/><path fill="#4C4445" d="M29 55h1v1h-1z"/><path fill="#231815" d="M30 55h1v1h-1zM31 55h1v1h-1zM32 55h1v1h-1zM0 56h1v1H0zM1 56h1v1H1zM2 56h1v1H2z"/><path fill="#767075" d="M3 56h1v1H3z"/><path fill="#C8C8D5" d="M4 56h1v1H4zM5 56h1v1H5zM6 56h1v1H6z"/><path fill="#E4E4EA" d="M7 56h1v1H7z"/><path fill="#FFF" d="M8 56h1v1H8zM9 56h1v1H9zM10 56h1v1h-1zM11 56h1v1h-1z"/><path fill="#B7E2F2" d="M12 56h1v1h-1zM13 56h1v1h-1zM14 56h1v1h-1zM15 56h1v1h-1zM16 56h1v1h-1zM17 56h1v1h-1zM18 56h1v1h-1zM19 56h1v1h-1zM20 56h1v1h-1z"/><path fill="#FFF" d="M21 56h1v1h-1zM22 56h1v1h-1zM23 56h1v1h-1zM24 56h1v1h-1z"/><path fill="#E4E4EA" d="M25 56h1v1h-1z"/><path fill="#C8C8D5" d="M26 56h1v1h-1zM27 56h1v1h-1zM28 56h1v1h-1z"/><path fill="#4C4445" d="M29 56h1v1h-1z"/><path fill="#231815" d="M30 56h1v1h-1zM31 56h1v1h-1zM32 56h1v1h-1zM0 57h1v1H0zM1 57h1v1H1zM2 57h1v1H2z"/><path fill="#767075" d="M3 57h1v1H3z"/><path fill="#C8C8D5" d="M4 57h1v1H4zM5 57h1v1H5zM6 57h1v1H6z"/><path fill="#E4E4EA" d="M7 57h1v1H7z"/><path fill="#FFF" d="M8 57h1v1H8zM9 57h1v1H9zM10 57h1v1h-1zM11 57h1v1h-1z"/><path fill="#9FD8EE" d="M12 57h1v1h-1zM13 57h1v1h-1zM14 57h1v1h-1zM15 57h1v1h-1zM16 57h1v1h-1zM17 57h1v1h-1zM18 57h1v1h-1zM19 57h1v1h-1zM20 57h1v1h-1z"/><path fill="#FFF" d="M21 57h1v1h-1zM22 57h1v1h-1zM23 57h1v1h-1zM24 57h1v1h-1z"/><path fill="#E4E4EA" d="M25 57h1v1h-1z"/><path fill="#C8C8D5" d="M26 57h1v1h-1zM27 57h1v1h-1zM28 57h1v1h-1z"/><path fill="#4C4445" d="M29 57h1v1h-1z"/><path fill="#231815" d="M30 57h1v1h-1zM31 57h1v1h-1zM32 57h1v1h-1zM0 58h1v1H0zM1 58h1v1H1zM2 58h1v1H2z"/><path fill="#767075" d="M3 58h1v1H3z"/><path fill="#C8C8D5" d="M4 58h1v1H4zM5 58h1v1H5zM6 58h1v1H6z"/><path fill="#E4E4EA" d="M7 58h1v1H7z"/><path fill="#FFF" d="M8 58h1v1H8zM9 58h1v1H9zM10 58h1v1h-1zM11 58h1v1h-1z"/><path fill="#9FD8EE" d="M12 58h1v1h-1zM13 58h1v1h-1zM14 58h1v1h-1zM15 58h1v1h-1zM16 58h1v1h-1zM17 58h1v1h-1zM18 58h1v1h-1zM19 58h1v1h-1zM20 58h1v1h-1z"/><path fill="#FFF" d="M21 58h1v1h-1zM22 58h1v1h-1zM23 58h1v1h-1zM24 58h1v1h-1z"/><path fill="#E4E4EA" d="M25 58h1v1h-1z"/><path fill="#C8C8D5" d="M26 58h1v1h-1zM27 58h1v1h-1zM28 58h1v1h-1z"/><path fill="#4C4445" d="M29 58h1v1h-1z"/><path fill="#231815" d="M30 58h1v1h-1zM31 58h1v1h-1zM32 58h1v1h-1zM0 59h1v1H0zM1 59h1v1H1zM2 59h1v1H2z"/><path fill="#767075" d="M3 59h1v1H3z"/><path fill="#C8C8D5" d="M4 59h1v1H4zM5 59h1v1H5zM6 59h1v1H6z"/><path fill="#E4E4EA" d="M7 59h1v1H7z"/><path fill="#FFF" d="M8 59h1v1H8zM9 59h1v1H9zM10 59h1v1h-1zM11 59h1v1h-1z"/><path fill="#9FD8EE" d="M12 59h1v1h-1zM13 59h1v1h-1zM14 59h1v1h-1zM15 59h1v1h-1zM16 59h1v1h-1zM17 59h1v1h-1zM18 59h1v1h-1zM19 59h1v1h-1zM20 59h1v1h-1z"/><path fill="#FFF" d="M21 59h1v1h-1zM22 59h1v1h-1zM23 59h1v1h-1zM24 59h1v1h-1z"/><path fill="#E4E4EA" d="M25 59h1v1h-1z"/><path fill="#C8C8D5" d="M26 59h1v1h-1zM27 59h1v1h-1zM28 59h1v1h-1z"/><path fill="#4C4445" d="M29 59h1v1h-1z"/><path fill="#231815" d="M30 59h1v1h-1zM31 59h1v1h-1zM32 59h1v1h-1zM0 60h1v1H0zM1 60h1v1H1zM2 60h1v1H2z"/><path fill="#767075" d="M3 60h1v1H3z"/><path fill="#C8C8D5" d="M4 60h1v1H4zM5 60h1v1H5zM6 60h1v1H6z"/><path fill="#E4E4EA" d="M7 60h1v1H7z"/><path fill="#FFF" d="M8 60h1v1H8zM9 60h1v1H9zM10 60h1v1h-1zM11 60h1v1h-1z"/><path fill="#9FD8EE" d="M12 60h1v1h-1zM13 60h1v1h-1zM14 60h1v1h-1zM15 60h1v1h-1zM16 60h1v1h-1zM17 60h1v1h-1zM18 60h1v1h-1zM19 60h1v1h-1zM20 60h1v1h-1z"/><path fill="#FFF" d="M21 60h1v1h-1zM22 60h1v1h-1zM23 60h1v1h-1zM24 60h1v1h-1z"/><path fill="#E4E4EA" d="M25 60h1v1h-1z"/><path fill="#C8C8D5" d="M26 60h1v1h-1zM27 60h1v1h-1zM28 60h1v1h-1z"/><path fill="#4C4445" d="M29 60h1v1h-1z"/><path fill="#231815" d="M30 60h1v1h-1zM31 60h1v1h-1zM32 60h1v1h-1zM0 61h1v1H0zM1 61h1v1H1zM2 61h1v1H2z"/><path fill="#767075" d="M3 61h1v1H3z"/><path fill="#C8C8D5" d="M4 61h1v1H4zM5 61h1v1H5zM6 61h1v1H6z"/><path fill="#E4E4EA" d="M7 61h1v1H7z"/><path fill="#FFF" d="M8 61h1v1H8zM9 61h1v1H9zM10 61h1v1h-1zM11 61h1v1h-1z"/><path fill="#9FD8EE" d="M12 61h1v1h-1zM13 61h1v1h-1zM14 61h1v1h-1zM15 61h1v1h-1zM16 61h1v1h-1zM17 61h1v1h-1zM18 61h1v1h-1zM19 61h1v1h-1zM20 61h1v1h-1z"/><path fill="#FFF" d="M21 61h1v1h-1zM22 61h1v1h-1zM23 61h1v1h-1zM24 61h1v1h-1z"/><path fill="#E4E4EA" d="M25 61h1v1h-1z"/><path fill="#C8C8D5" d="M26 61h1v1h-1zM27 61h1v1h-1zM28 61h1v1h-1z"/><path fill="#4C4445" d="M29 61h1v1h-1z"/><path fill="#231815" d="M30 61h1v1h-1zM31 61h1v1h-1zM32 61h1v1h-1zM0 62h1v1H0zM1 62h1v1H1zM2 62h1v1H2z"/><path fill="#767075" d="M3 62h1v1H3z"/><path fill="#C8C8D5" d="M4 62h1v1H4zM5 62h1v1H5zM6 62h1v1H6z"/><path fill="#E4E4EA" d="M7 62h1v1H7z"/><path fill="#FFF" d="M8 62h1v1H8zM9 62h1v1H9zM10 62h1v1h-1zM11 62h1v1h-1z"/><path fill="#9FD8EE" d="M12 62h1v1h-1zM13 62h1v1h-1zM14 62h1v1h-1zM15 62h1v1h-1zM16 62h1v1h-1zM17 62h1v1h-1zM18 62h1v1h-1zM19 62h1v1h-1zM20 62h1v1h-1z"/><path fill="#FFF" d="M21 62h1v1h-1zM22 62h1v1h-1zM23 62h1v1h-1zM24 62h1v1h-1z"/><path fill="#E4E4EA" d="M25 62h1v1h-1z"/><path fill="#C8C8D5" d="M26 62h1v1h-1zM27 62h1v1h-1zM28 62h1v1h-1z"/><path fill="#4C4445" d="M29 62h1v1h-1z"/><path fill="#231815" d="M30 62h1v1h-1zM31 62h1v1h-1zM32 62h1v1h-1zM0 63h1v1H0zM1 63h1v1H1zM2 63h1v1H2z"/><path fill="#767075" d="M3 63h1v1H3z"/><path fill="#C8C8D5" d="M4 63h1v1H4zM5 63h1v1H5zM6 63h1v1H6z"/><path fill="#E4E4EA" d="M7 63h1v1H7z"/><path fill="#FFF" d="M8 63h1v1H8zM9 63h1v1H9zM10 63h1v1h-1zM11 63h1v1h-1z"/><path fill="#9FD8EE" d="M12 63h1v1h-1zM13 63h1v1h-1zM14 63h1v1h-1zM15 63h1v1h-1zM16 63h1v1h-1zM17 63h1v1h-1zM18 63h1v1h-1zM19 63h1v1h-1zM20 63h1v1h-1z"/><path fill="#FFF" d="M21 63h1v1h-1zM22 63h1v1h-1zM23 63h1v1h-1zM24 63h1v1h-1z"/><path fill="#E4E4EA" d="M25 63h1v1h-1z"/><path fill="#C8C8D5" d="M26 63h1v1h-1zM27 63h1v1h-1zM28 63h1v1h-1z"/><path fill="#4C4445" d="M29 63h1v1h-1z"/><path fill="#231815" d="M30 63h1v1h-1zM31 63h1v1h-1zM32 63h1v1h-1zM0 64h1v1H0zM1 64h1v1H1zM2 64h1v1H2z"/><path fill="#5B6D79" d="M3 64h1v1H3z"/><path fill="#C8C8D5" d="M4 64h1v1H4zM5 64h1v1H5zM6 64h1v1H6z"/><path fill="#E4E4EA" d="M7 64h1v1H7z"/><path fill="#FFF" d="M8 64h1v1H8zM9 64h1v1H9zM10 64h1v1h-1zM11 64h1v1h-1z"/><path fill="#B7E2F2" d="M12 64h1v1h-1zM13 64h1v1h-1zM14 64h1v1h-1zM15 64h1v1h-1zM16 64h1v1h-1zM17 64h1v1h-1zM18 64h1v1h-1zM19 64h1v1h-1zM20 64h1v1h-1z"/><path fill="#FFF" d="M21 64h1v1h-1zM22 64h1v1h-1zM23 64h1v1h-1zM24 64h1v1h-1z"/><path fill="#E4E4EA" d="M25 64h1v1h-1z"/><path fill="#C8C8D5" d="M26 64h1v1h-1zM27 64h1v1h-1z"/><path fill="#AEC5D9" d="M28 64h1v1h-1z"/><path fill="#3B4248" d="M29 64h1v1h-1z"/><path fill="#231815" d="M30 64h1v1h-1zM31 64h1v1h-1zM32 64h1v1h-1zM0 65h1v1H0zM1 65h1v1H1zM2 65h1v1H2z"/><path fill="#2F6880" d="M3 65h1v1H3z"/><path fill="#4DBAE8" d="M4 65h1v1H4z"/><path fill="#A5C4DB" d="M5 65h1v1H5z"/><path fill="#C8C8D5" d="M6 65h1v1H6z"/><path fill="#E4E4EA" d="M7 65h1v1H7z"/><path fill="#FFF" d="M8 65h1v1H8zM9 65h1v1H9zM10 65h1v1h-1zM11 65h1v1h-1zM12 65h1v1h-1zM13 65h1v1h-1zM14 65h1v1h-1zM15 65h1v1h-1zM16 65h1v1h-1zM17 65h1v1h-1zM18 65h1v1h-1zM19 65h1v1h-1zM20 65h1v1h-1zM21 65h1v1h-1zM22 65h1v1h-1zM23 65h1v1h-1zM24 65h1v1h-1z"/><path fill="#E4E4EA" d="M25 65h1v1h-1z"/><path fill="#BFC7D6" d="M26 65h1v1h-1z"/><path fill="#82C0E0" d="M27 65h1v1h-1z"/><path fill="#3BB8EB" d="M28 65h1v1h-1z"/><path fill="#29404B" d="M29 65h1v1h-1z"/><path fill="#231815" d="M30 65h1v1h-1zM31 65h1v1h-1zM32 65h1v1h-1zM0 66h1v1H0zM1 66h1v1H1zM2 66h1v1H2z"/><path fill="#2F6880" d="M3 66h1v1H3z"/><path fill="#3BB8EB" d="M4 66h1v1H4zM5 66h1v1H5z"/><path fill="#55BBE7" d="M6 66h1v1H6z"/><path fill="#B4DBED" d="M7 66h1v1H7z"/><path fill="#F9FDFE" d="M8 66h1v1H8z"/><path fill="#FFF" d="M9 66h1v1H9zM10 66h1v1h-1zM11 66h1v1h-1zM12 66h1v1h-1zM13 66h1v1h-1zM14 66h1v1h-1zM15 66h1v1h-1zM16 66h1v1h-1zM17 66h1v1h-1zM18 66h1v1h-1zM19 66h1v1h-1zM20 66h1v1h-1zM21 66h1v1h-1zM22 66h1v1h-1zM23 66h1v1h-1z"/><path fill="#F3FAFD" d="M24 66h1v1h-1z"/><path fill="#9FD5ED" d="M25 66h1v1h-1z"/><path fill="#44B9EA" d="M26 66h1v1h-1z"/><path fill="#3BB8EB" d="M27 66h1v1h-1zM28 66h1v1h-1z"/><path fill="#29404B" d="M29 66h1v1h-1z"/><path fill="#231815" d="M30 66h1v1h-1zM31 66h1v1h-1zM32 66h1v1h-1zM0 67h1v1H0zM1 67h1v1H1zM2 67h1v1H2z"/><path fill="#2C5465" d="M3 67h1v1H3z"/><path fill="#3BB8EB" d="M4 67h1v1H4zM5 67h1v1H5zM6 67h1v1H6z"/><path fill="#6DC8ED" d="M7 67h1v1H7z"/><path fill="#9FD8EE" d="M8 67h1v1H8z"/><path fill="#BDE4F3" d="M9 67h1v1H9z"/><path fill="#D5EEF8" d="M10 67h1v1h-1z"/><path fill="#E7F5FB" d="M11 67h1v1h-1z"/><path fill="#FFF" d="M12 67h1v1h-1zM13 67h1v1h-1zM14 67h1v1h-1zM15 67h1v1h-1zM16 67h1v1h-1zM17 67h1v1h-1zM18 67h1v1h-1zM19 67h1v1h-1z"/><path fill="#F9FDFE" d="M20 67h1v1h-1z"/><path fill="#E7F5FB" d="M21 67h1v1h-1z"/><path fill="#CFECF7" d="M22 67h1v1h-1z"/><path fill="#B1DFF1" d="M23 67h1v1h-1z"/><path fill="#9FD8EE" d="M24 67h1v1h-1z"/><path fill="#6DC8ED" d="M25 67h1v1h-1z"/><path fill="#3BB8EB" d="M26 67h1v1h-1zM27 67h1v1h-1zM28 67h1v1h-1z"/><path fill="#29404B" d="M29 67h1v1h-1z"/><path fill="#231815" d="M30 67h1v1h-1zM31 67h1v1h-1zM32 67h1v1h-1zM0 68h1v1H0zM1 68h1v1H1zM2 68h1v1H2z"/><path fill="#29404B" d="M3 68h1v1H3z"/><path fill="#3BB8EB" d="M4 68h1v1H4zM5 68h1v1H5zM6 68h1v1H6z"/><path fill="#6DC8ED" d="M7 68h1v1H7z"/><path fill="#9FD8EE" d="M8 68h1v1H8zM9 68h1v1H9zM10 68h1v1h-1zM11 68h1v1h-1zM12 68h1v1h-1zM13 68h1v1h-1z"/><path fill="#B7E2F2" d="M14 68h1v1h-1zM15 68h1v1h-1zM16 68h1v1h-1zM17 68h1v1h-1zM18 68h1v1h-1z"/><path fill="#9FD8EE" d="M19 68h1v1h-1zM20 68h1v1h-1zM21 68h1v1h-1zM22 68h1v1h-1zM23 68h1v1h-1zM24 68h1v1h-1z"/><path fill="#6DC8ED" d="M25 68h1v1h-1z"/><path fill="#3BB8EB" d="M26 68h1v1h-1zM27 68h1v1h-1zM28 68h1v1h-1z"/><path fill="#29404B" d="M29 68h1v1h-1z"/><path fill="#231815" d="M30 68h1v1h-1zM31 68h1v1h-1zM32 68h1v1h-1zM0 69h1v1H0zM1 69h1v1H1zM2 69h1v1H2z"/><path fill="#29404B" d="M3 69h1v1H3z"/><path fill="#3BB8EB" d="M4 69h1v1H4zM5 69h1v1H5zM6 69h1v1H6z"/><path fill="#6DC8ED" d="M7 69h1v1H7z"/><path fill="#9FD8EE" d="M8 69h1v1H8zM9 69h1v1H9zM10 69h1v1h-1zM11 69h1v1h-1zM12 69h1v1h-1zM13 69h1v1h-1zM14 69h1v1h-1zM15 69h1v1h-1zM16 69h1v1h-1zM17 69h1v1h-1zM18 69h1v1h-1zM19 69h1v1h-1zM20 69h1v1h-1zM21 69h1v1h-1zM22 69h1v1h-1zM23 69h1v1h-1zM24 69h1v1h-1z"/><path fill="#6DC8ED" d="M25 69h1v1h-1z"/><path fill="#3BB8EB" d="M26 69h1v1h-1zM27 69h1v1h-1zM28 69h1v1h-1z"/><path fill="#29404B" d="M29 69h1v1h-1z"/><path fill="#231815" d="M30 69h1v1h-1zM31 69h1v1h-1zM32 69h1v1h-1zM0 70h1v1H0zM1 70h1v1H1zM2 70h1v1H2z"/><path fill="#29404B" d="M3 70h1v1H3z"/><path fill="#3BB8EB" d="M4 70h1v1H4zM5 70h1v1H5zM6 70h1v1H6z"/><path fill="#6DC8ED" d="M7 70h1v1H7z"/><path fill="#9FD8EE" d="M8 70h1v1H8zM9 70h1v1H9zM10 70h1v1h-1zM11 70h1v1h-1zM12 70h1v1h-1zM13 70h1v1h-1zM14 70h1v1h-1zM15 70h1v1h-1zM16 70h1v1h-1zM17 70h1v1h-1zM18 70h1v1h-1zM19 70h1v1h-1zM20 70h1v1h-1zM21 70h1v1h-1zM22 70h1v1h-1zM23 70h1v1h-1zM24 70h1v1h-1z"/><path fill="#6DC8ED" d="M25 70h1v1h-1z"/><path fill="#3BB8EB" d="M26 70h1v1h-1zM27 70h1v1h-1zM28 70h1v1h-1z"/><path fill="#29404B" d="M29 70h1v1h-1z"/><path fill="#231815" d="M30 70h1v1h-1zM31 70h1v1h-1zM32 70h1v1h-1zM0 71h1v1H0zM1 71h1v1H1zM2 71h1v1H2z"/><path fill="#29404B" d="M3 71h1v1H3z"/><path fill="#3BB8EB" d="M4 71h1v1H4zM5 71h1v1H5zM6 71h1v1H6z"/><path fill="#6DC8ED" d="M7 71h1v1H7z"/><path fill="#9FD8EE" d="M8 71h1v1H8zM9 71h1v1H9zM10 71h1v1h-1zM11 71h1v1h-1zM12 71h1v1h-1zM13 71h1v1h-1zM14 71h1v1h-1zM15 71h1v1h-1zM16 71h1v1h-1zM17 71h1v1h-1zM18 71h1v1h-1zM19 71h1v1h-1zM20 71h1v1h-1zM21 71h1v1h-1zM22 71h1v1h-1zM23 71h1v1h-1zM24 71h1v1h-1z"/><path fill="#6DC8ED" d="M25 71h1v1h-1z"/><path fill="#3BB8EB" d="M26 71h1v1h-1zM27 71h1v1h-1zM28 71h1v1h-1z"/><path fill="#29404B" d="M29 71h1v1h-1z"/><path fill="#231815" d="M30 71h1v1h-1zM31 71h1v1h-1zM32 71h1v1h-1zM0 72h1v1H0zM1 72h1v1H1zM2 72h1v1H2z"/><path fill="#29404B" d="M3 72h1v1H3z"/><path fill="#3BB8EB" d="M4 72h1v1H4zM5 72h1v1H5zM6 72h1v1H6z"/><path fill="#6DC8ED" d="M7 72h1v1H7z"/><path fill="#9FD8EE" d="M8 72h1v1H8zM9 72h1v1H9zM10 72h1v1h-1zM11 72h1v1h-1zM12 72h1v1h-1zM13 72h1v1h-1zM14 72h1v1h-1zM15 72h1v1h-1zM16 72h1v1h-1zM17 72h1v1h-1zM18 72h1v1h-1zM19 72h1v1h-1zM20 72h1v1h-1zM21 72h1v1h-1zM22 72h1v1h-1zM23 72h1v1h-1zM24 72h1v1h-1z"/><path fill="#6DC8ED" d="M25 72h1v1h-1z"/><path fill="#3BB8EB" d="M26 72h1v1h-1zM27 72h1v1h-1zM28 72h1v1h-1z"/><path fill="#29404B" d="M29 72h1v1h-1z"/><path fill="#231815" d="M30 72h1v1h-1zM31 72h1v1h-1zM32 72h1v1h-1zM0 73h1v1H0zM1 73h1v1H1zM2 73h1v1H2z"/><path fill="#29404B" d="M3 73h1v1H3z"/><path fill="#3BB8EB" d="M4 73h1v1H4zM5 73h1v1H5zM6 73h1v1H6z"/><path fill="#6DC8ED" d="M7 73h1v1H7z"/><path fill="#9FD8EE" d="M8 73h1v1H8zM9 73h1v1H9zM10 73h1v1h-1zM11 73h1v1h-1zM12 73h1v1h-1zM13 73h1v1h-1zM14 73h1v1h-1zM15 73h1v1h-1zM16 73h1v1h-1zM17 73h1v1h-1zM18 73h1v1h-1zM19 73h1v1h-1zM20 73h1v1h-1zM21 73h1v1h-1zM22 73h1v1h-1zM23 73h1v1h-1zM24 73h1v1h-1z"/><path fill="#6DC8ED" d="M25 73h1v1h-1z"/><path fill="#3BB8EB" d="M26 73h1v1h-1zM27 73h1v1h-1zM28 73h1v1h-1z"/><path fill="#29404B" d="M29 73h1v1h-1z"/><path fill="#231815" d="M30 73h1v1h-1zM31 73h1v1h-1zM32 73h1v1h-1zM0 74h1v1H0zM1 74h1v1H1zM2 74h1v1H2z"/><path fill="#29404B" d="M3 74h1v1H3z"/><path fill="#3BB8EB" d="M4 74h1v1H4zM5 74h1v1H5zM6 74h1v1H6z"/><path fill="#6DC8ED" d="M7 74h1v1H7z"/><path fill="#9FD8EE" d="M8 74h1v1H8zM9 74h1v1H9zM10 74h1v1h-1zM11 74h1v1h-1zM12 74h1v1h-1zM13 74h1v1h-1zM14 74h1v1h-1zM15 74h1v1h-1zM16 74h1v1h-1zM17 74h1v1h-1zM18 74h1v1h-1zM19 74h1v1h-1zM20 74h1v1h-1zM21 74h1v1h-1zM22 74h1v1h-1zM23 74h1v1h-1zM24 74h1v1h-1z"/><path fill="#6DC8ED" d="M25 74h1v1h-1z"/><path fill="#3BB8EB" d="M26 74h1v1h-1zM27 74h1v1h-1zM28 74h1v1h-1z"/><path fill="#29404B" d="M29 74h1v1h-1z"/><path fill="#231815" d="M30 74h1v1h-1zM31 74h1v1h-1zM32 74h1v1h-1zM0 75h1v1H0zM1 75h1v1H1zM2 75h1v1H2z"/><path fill="#29404B" d="M3 75h1v1H3z"/><path fill="#3BB8EB" d="M4 75h1v1H4zM5 75h1v1H5zM6 75h1v1H6z"/><path fill="#6DC8ED" d="M7 75h1v1H7z"/><path fill="#9FD8EE" d="M8 75h1v1H8zM9 75h1v1H9zM10 75h1v1h-1zM11 75h1v1h-1zM12 75h1v1h-1zM13 75h1v1h-1zM14 75h1v1h-1zM15 75h1v1h-1zM16 75h1v1h-1zM17 75h1v1h-1zM18 75h1v1h-1zM19 75h1v1h-1zM20 75h1v1h-1zM21 75h1v1h-1zM22 75h1v1h-1zM23 75h1v1h-1zM24 75h1v1h-1z"/><path fill="#6DC8ED" d="M25 75h1v1h-1z"/><path fill="#3BB8EB" d="M26 75h1v1h-1zM27 75h1v1h-1zM28 75h1v1h-1z"/><path fill="#29404B" d="M29 75h1v1h-1z"/><path fill="#231815" d="M30 75h1v1h-1zM31 75h1v1h-1zM32 75h1v1h-1zM0 76h1v1H0zM1 76h1v1H1zM2 76h1v1H2z"/><path fill="#29404B" d="M3 76h1v1H3z"/><path fill="#3BB8EB" d="M4 76h1v1H4zM5 76h1v1H5zM6 76h1v1H6z"/><path fill="#6DC8ED" d="M7 76h1v1H7z"/><path fill="#9FD8EE" d="M8 76h1v1H8zM9 76h1v1H9zM10 76h1v1h-1zM11 76h1v1h-1zM12 76h1v1h-1zM13 76h1v1h-1zM14 76h1v1h-1zM15 76h1v1h-1zM16 76h1v1h-1zM17 76h1v1h-1zM18 76h1v1h-1zM19 76h1v1h-1zM20 76h1v1h-1zM21 76h1v1h-1zM22 76h1v1h-1zM23 76h1v1h-1zM24 76h1v1h-1z"/><path fill="#6DC8ED" d="M25 76h1v1h-1z"/><path fill="#3BB8EB" d="M26 76h1v1h-1zM27 76h1v1h-1zM28 76h1v1h-1z"/><path fill="#29404B" d="M29 76h1v1h-1z"/><path fill="#231815" d="M30 76h1v1h-1zM31 76h1v1h-1zM32 76h1v1h-1zM0 77h1v1H0zM1 77h1v1H1zM2 77h1v1H2z"/><path fill="#29404B" d="M3 77h1v1H3z"/><path fill="#3BB8EB" d="M4 77h1v1H4zM5 77h1v1H5zM6 77h1v1H6z"/><path fill="#6DC8ED" d="M7 77h1v1H7z"/><path fill="#9FD8EE" d="M8 77h1v1H8zM9 77h1v1H9zM10 77h1v1h-1zM11 77h1v1h-1zM12 77h1v1h-1zM13 77h1v1h-1zM14 77h1v1h-1zM15 77h1v1h-1zM16 77h1v1h-1zM17 77h1v1h-1zM18 77h1v1h-1zM19 77h1v1h-1zM20 77h1v1h-1zM21 77h1v1h-1zM22 77h1v1h-1zM23 77h1v1h-1zM24 77h1v1h-1z"/><path fill="#6DC8ED" d="M25 77h1v1h-1z"/><path fill="#3BB8EB" d="M26 77h1v1h-1zM27 77h1v1h-1zM28 77h1v1h-1z"/><path fill="#29404B" d="M29 77h1v1h-1z"/><path fill="#231815" d="M30 77h1v1h-1zM31 77h1v1h-1zM32 77h1v1h-1zM0 78h1v1H0zM1 78h1v1H1zM2 78h1v1H2z"/><path fill="#29404B" d="M3 78h1v1H3z"/><path fill="#3BB8EB" d="M4 78h1v1H4zM5 78h1v1H5zM6 78h1v1H6z"/><path fill="#6DC8ED" d="M7 78h1v1H7z"/><path fill="#9FD8EE" d="M8 78h1v1H8zM9 78h1v1H9zM10 78h1v1h-1zM11 78h1v1h-1zM12 78h1v1h-1zM13 78h1v1h-1zM14 78h1v1h-1zM15 78h1v1h-1zM16 78h1v1h-1zM17 78h1v1h-1zM18 78h1v1h-1zM19 78h1v1h-1zM20 78h1v1h-1zM21 78h1v1h-1zM22 78h1v1h-1zM23 78h1v1h-1zM24 78h1v1h-1z"/><path fill="#6DC8ED" d="M25 78h1v1h-1z"/><path fill="#3BB8EB" d="M26 78h1v1h-1zM27 78h1v1h-1zM28 78h1v1h-1z"/><path fill="#29404B" d="M29 78h1v1h-1z"/><path fill="#231815" d="M30 78h1v1h-1zM31 78h1v1h-1zM32 78h1v1h-1zM0 79h1v1H0zM1 79h1v1H1zM2 79h1v1H2z"/><path fill="#29404B" d="M3 79h1v1H3z"/><path fill="#3BB8EB" d="M4 79h1v1H4zM5 79h1v1H5zM6 79h1v1H6z"/><path fill="#67C6EC" d="M7 79h1v1H7z"/><path fill="#9FD8EE" d="M8 79h1v1H8zM9 79h1v1H9zM10 79h1v1h-1zM11 79h1v1h-1zM12 79h1v1h-1zM13 79h1v1h-1zM14 79h1v1h-1zM15 79h1v1h-1zM16 79h1v1h-1zM17 79h1v1h-1zM18 79h1v1h-1zM19 79h1v1h-1zM20 79h1v1h-1zM21 79h1v1h-1zM22 79h1v1h-1zM23 79h1v1h-1zM24 79h1v1h-1z"/><path fill="#67C6EC" d="M25 79h1v1h-1z"/><path fill="#3BB8EB" d="M26 79h1v1h-1zM27 79h1v1h-1zM28 79h1v1h-1z"/><path fill="#29404B" d="M29 79h1v1h-1z"/><path fill="#231815" d="M30 79h1v1h-1zM31 79h1v1h-1zM32 79h1v1h-1zM0 80h1v1H0zM1 80h1v1H1zM2 80h1v1H2z"/><path fill="#29404B" d="M3 80h1v1H3z"/><path fill="#3BB8EB" d="M4 80h1v1H4zM5 80h1v1H5zM6 80h1v1H6z"/><path fill="#48BCEB" d="M7 80h1v1H7z"/><path fill="#9FD8EE" d="M8 80h1v1H8zM9 80h1v1H9zM10 80h1v1h-1zM11 80h1v1h-1zM12 80h1v1h-1zM13 80h1v1h-1zM14 80h1v1h-1zM15 80h1v1h-1zM16 80h1v1h-1zM17 80h1v1h-1zM18 80h1v1h-1zM19 80h1v1h-1zM20 80h1v1h-1zM21 80h1v1h-1zM22 80h1v1h-1zM23 80h1v1h-1zM24 80h1v1h-1z"/><path fill="#4EBEEC" d="M25 80h1v1h-1z"/><path fill="#3BB8EB" d="M26 80h1v1h-1zM27 80h1v1h-1zM28 80h1v1h-1z"/><path fill="#29404B" d="M29 80h1v1h-1z"/><path fill="#231815" d="M30 80h1v1h-1zM31 80h1v1h-1zM32 80h1v1h-1zM0 81h1v1H0zM1 81h1v1H1zM2 81h1v1H2z"/><path fill="#252222" d="M3 81h1v1H3z"/><path fill="#3AAEDE" d="M4 81h1v1H4z"/><path fill="#3BB8EB" d="M5 81h1v1H5zM6 81h1v1H6zM7 81h1v1H7z"/><path fill="#86D0ED" d="M8 81h1v1H8z"/><path fill="#9FD8EE" d="M9 81h1v1H9zM10 81h1v1h-1zM11 81h1v1h-1zM12 81h1v1h-1zM13 81h1v1h-1zM14 81h1v1h-1zM15 81h1v1h-1zM16 81h1v1h-1zM17 81h1v1h-1zM18 81h1v1h-1zM19 81h1v1h-1zM20 81h1v1h-1zM21 81h1v1h-1zM22 81h1v1h-1zM23 81h1v1h-1z"/><path fill="#86D0ED" d="M24 81h1v1h-1z"/><path fill="#3BB8EB" d="M25 81h1v1h-1zM26 81h1v1h-1zM27 81h1v1h-1z"/><path fill="#3AAEDE" d="M28 81h1v1h-1z"/><path fill="#252222" d="M29 81h1v1h-1z"/><path fill="#231815" d="M30 81h1v1h-1zM31 81h1v1h-1zM32 81h1v1h-1zM0 82h1v1H0zM1 82h1v1H1zM2 82h1v1H2zM3 82h1v1H3z"/><path fill="#28363D" d="M4 82h1v1H4z"/><path fill="#3AAEDE" d="M5 82h1v1H5z"/><path fill="#3BB8EB" d="M6 82h1v1H6zM7 82h1v1H7z"/><path fill="#4EBEEC" d="M8 82h1v1H8z"/><path fill="#9FD8EE" d="M9 82h1v1H9zM10 82h1v1h-1zM11 82h1v1h-1zM12 82h1v1h-1zM13 82h1v1h-1zM14 82h1v1h-1zM15 82h1v1h-1zM16 82h1v1h-1zM17 82h1v1h-1zM18 82h1v1h-1zM19 82h1v1h-1zM20 82h1v1h-1zM21 82h1v1h-1zM22 82h1v1h-1zM23 82h1v1h-1z"/><path fill="#4EBEEC" d="M24 82h1v1h-1z"/><path fill="#3BB8EB" d="M25 82h1v1h-1zM26 82h1v1h-1z"/><path fill="#3AAEDE" d="M27 82h1v1h-1z"/><path fill="#28363D" d="M28 82h1v1h-1z"/><path fill="#231815" d="M29 82h1v1h-1zM30 82h1v1h-1zM31 82h1v1h-1zM32 82h1v1h-1zM1 83h1v1H1zM2 83h1v1H2zM3 83h1v1H3zM4 83h1v1H4z"/><path fill="#28363D" d="M5 83h1v1H5z"/><path fill="#38A4D0" d="M6 83h1v1H6z"/><path fill="#3BB8EB" d="M7 83h1v1H7zM8 83h1v1H8z"/><path fill="#61C4EC" d="M9 83h1v1H9z"/><path fill="#9FD8EE" d="M10 83h1v1h-1zM11 83h1v1h-1zM12 83h1v1h-1zM13 83h1v1h-1zM14 83h1v1h-1zM15 83h1v1h-1zM16 83h1v1h-1zM17 83h1v1h-1zM18 83h1v1h-1zM19 83h1v1h-1zM20 83h1v1h-1zM21 83h1v1h-1zM22 83h1v1h-1z"/><path fill="#61C4EC" d="M23 83h1v1h-1z"/><path fill="#3BB8EB" d="M24 83h1v1h-1zM25 83h1v1h-1z"/><path fill="#38A4D0" d="M26 83h1v1h-1z"/><path fill="#28363D" d="M27 83h1v1h-1z"/><path fill="#231815" d="M28 83h1v1h-1zM29 83h1v1h-1zM30 83h1v1h-1zM31 83h1v1h-1zM1 84h1v1H1zM2 84h1v1H2zM3 84h1v1H3zM4 84h1v1H4zM5 84h1v1H5z"/><path fill="#252222" d="M6 84h1v1H6z"/><path fill="#2F6880" d="M7 84h1v1H7z"/><path fill="#3AAEDE" d="M8 84h1v1H8z"/><path fill="#3BB8EB" d="M9 84h1v1H9z"/><path fill="#5AC2EC" d="M10 84h1v1h-1z"/><path fill="#99D6EE" d="M11 84h1v1h-1z"/><path fill="#9FD8EE" d="M12 84h1v1h-1zM13 84h1v1h-1zM14 84h1v1h-1zM15 84h1v1h-1zM16 84h1v1h-1zM17 84h1v1h-1zM18 84h1v1h-1zM19 84h1v1h-1zM20 84h1v1h-1z"/><path fill="#99D6EE" d="M21 84h1v1h-1z"/><path fill="#5AC2EC" d="M22 84h1v1h-1z"/><path fill="#3BB8EB" d="M23 84h1v1h-1z"/><path fill="#3AAEDE" d="M24 84h1v1h-1z"/><path fill="#2F6880" d="M25 84h1v1h-1z"/><path fill="#252222" d="M26 84h1v1h-1z"/><path fill="#231815" d="M27 84h1v1h-1zM28 84h1v1h-1zM29 84h1v1h-1zM30 84h1v1h-1zM31 84h1v1h-1zM2 85h1v1H2zM3 85h1v1H3zM4 85h1v1H4zM5 85h1v1H5zM6 85h1v1H6zM7 85h1v1H7z"/><path fill="#252222" d="M8 85h1v1H8z"/><path fill="#2E5E73" d="M9 85h1v1H9z"/><path fill="#3590B6" d="M10 85h1v1h-1z"/><path fill="#41BAEB" d="M11 85h1v1h-1z"/><path fill="#6DC8ED" d="M12 85h1v1h-1z"/><path fill="#93D4EE" d="M13 85h1v1h-1z"/><path fill="#9FD8EE" d="M14 85h1v1h-1zM15 85h1v1h-1zM16 85h1v1h-1zM17 85h1v1h-1zM18 85h1v1h-1z"/><path fill="#93D4EE" d="M19 85h1v1h-1z"/><path fill="#6DC8ED" d="M20 85h1v1h-1z"/><path fill="#41BAEB" d="M21 85h1v1h-1z"/><path fill="#3590B6" d="M22 85h1v1h-1z"/><path fill="#2E5E73" d="M23 85h1v1h-1z"/><path fill="#252222" d="M24 85h1v1h-1z"/><path fill="#231815" d="M25 85h1v1h-1zM26 85h1v1h-1zM27 85h1v1h-1zM28 85h1v1h-1zM29 85h1v1h-1zM30 85h1v1h-1zM3 86h1v1H3zM4 86h1v1H4zM5 86h1v1H5zM6 86h1v1H6zM7 86h1v1H7zM8 86h1v1H8zM9 86h1v1H9zM10 86h1v1h-1zM11 86h1v1h-1z"/><path fill="#29404B" d="M12 86h1v1h-1z"/><path fill="#2E5E73" d="M13 86h1v1h-1z"/><path fill="#3C6C80" d="M14 86h1v1h-1z"/><path fill="#487081" d="M15 86h1v1h-1zM16 86h1v1h-1zM17 86h1v1h-1z"/><path fill="#3C6C80" d="M18 86h1v1h-1z"/><path fill="#2E5E73" d="M19 86h1v1h-1z"/><path fill="#29404B" d="M20 86h1v1h-1z"/><path fill="#231815" d="M21 86h1v1h-1zM22 86h1v1h-1zM23 86h1v1h-1zM24 86h1v1h-1zM25 86h1v1h-1zM26 86h1v1h-1zM27 86h1v1h-1zM28 86h1v1h-1zM29 86h1v1h-1zM5 87h1v1H5zM6 87h1v1H6zM7 87h1v1H7zM8 87h1v1H8zM9 87h1v1H9zM10 87h1v1h-1zM11 87h1v1h-1zM12 87h1v1h-1zM13 87h1v1h-1zM14 87h1v1h-1zM15 87h1v1h-1zM16 87h1v1h-1zM17 87h1v1h-1zM18 87h1v1h-1zM19 87h1v1h-1zM20 87h1v1h-1zM21 87h1v1h-1zM22 87h1v1h-1zM23 87h1v1h-1zM24 87h1v1h-1zM25 87h1v1h-1zM26 87h1v1h-1zM27 87h1v1h-1zM6 88h1v1H6zM7 88h1v1H7zM8 88h1v1H8zM9 88h1v1H9zM10 88h1v1h-1zM11 88h1v1h-1zM12 88h1v1h-1zM13 88h1v1h-1zM14 88h1v1h-1zM15 88h1v1h-1zM16 88h1v1h-1zM17 88h1v1h-1zM18 88h1v1h-1zM19 88h1v1h-1zM20 88h1v1h-1zM21 88h1v1h-1zM22 88h1v1h-1zM23 88h1v1h-1zM24 88h1v1h-1zM25 88h1v1h-1zM26 88h1v1h-1zM9 89h1v1H9zM10 89h1v1h-1zM11 89h1v1h-1zM12 89h1v1h-1zM13 89h1v1h-1zM14 89h1v1h-1zM15 89h1v1h-1zM16 89h1v1h-1zM17 89h1v1h-1zM18 89h1v1h-1zM19 89h1v1h-1zM20 89h1v1h-1zM21 89h1v1h-1zM22 89h1v1h-1zM23 89h1v1h-1z"/></svg>