<svg baseProfile="full" height="69" width="90" xmlns="http://www.w3.org/2000/svg"><path fill="#231815" d="M39 0h1v1h-1zM40 0h1v1h-1zM41 0h1v1h-1zM42 0h1v1h-1zM43 0h1v1h-1zM44 0h1v1h-1zM37 1h1v1h-1zM38 1h1v1h-1zM39 1h1v1h-1zM40 1h1v1h-1zM41 1h1v1h-1zM42 1h1v1h-1zM43 1h1v1h-1zM44 1h1v1h-1zM45 1h1v1h-1zM35 2h1v1h-1zM36 2h1v1h-1zM37 2h1v1h-1zM38 2h1v1h-1zM39 2h1v1h-1zM40 2h1v1h-1zM41 2h1v1h-1zM42 2h1v1h-1zM43 2h1v1h-1zM44 2h1v1h-1zM45 2h1v1h-1zM33 3h1v1h-1zM34 3h1v1h-1zM35 3h1v1h-1zM36 3h1v1h-1zM37 3h1v1h-1zM38 3h1v1h-1zM39 3h1v1h-1z"/><path fill="#554320" d="M40 3h1v1h-1z"/><path fill="#AB8D33" d="M41 3h1v1h-1z"/><path fill="#DDB73E" d="M42 3h1v1h-1z"/><path fill="#231815" d="M43 3h1v1h-1zM44 3h1v1h-1zM45 3h1v1h-1zM46 3h1v1h-1zM31 4h1v1h-1zM32 4h1v1h-1zM33 4h1v1h-1zM34 4h1v1h-1zM35 4h1v1h-1zM36 4h1v1h-1zM37 4h1v1h-1z"/><path fill="#554320" d="M38 4h1v1h-1z"/><path fill="#B89836" d="M39 4h1v1h-1z"/><path fill="#E9C241" d="M40 4h1v1h-1zM41 4h1v1h-1zM42 4h1v1h-1z"/><path fill="#614D23" d="M43 4h1v1h-1z"/><path fill="#231815" d="M44 4h1v1h-1zM45 4h1v1h-1zM46 4h1v1h-1zM29 5h1v1h-1zM30 5h1v1h-1zM31 5h1v1h-1zM32 5h1v1h-1zM33 5h1v1h-1zM34 5h1v1h-1zM35 5h1v1h-1z"/><path fill="#554320" d="M36 5h1v1h-1z"/><path fill="#B89836" d="M37 5h1v1h-1z"/><path fill="#E9C241" d="M38 5h1v1h-1zM39 5h1v1h-1zM40 5h1v1h-1zM41 5h1v1h-1zM42 5h1v1h-1z"/><path fill="#866D2B" d="M43 5h1v1h-1z"/><path fill="#231815" d="M44 5h1v1h-1zM45 5h1v1h-1zM46 5h1v1h-1zM27 6h1v1h-1zM28 6h1v1h-1zM29 6h1v1h-1zM30 6h1v1h-1zM31 6h1v1h-1zM32 6h1v1h-1zM33 6h1v1h-1z"/><path fill="#554320" d="M34 6h1v1h-1z"/><path fill="#B89836" d="M35 6h1v1h-1z"/><path fill="#E9C241" d="M36 6h1v1h-1zM37 6h1v1h-1zM38 6h1v1h-1zM39 6h1v1h-1zM40 6h1v1h-1zM41 6h1v1h-1zM42 6h1v1h-1z"/><path fill="#9F8231" d="M43 6h1v1h-1z"/><path fill="#231815" d="M44 6h1v1h-1zM45 6h1v1h-1zM46 6h1v1h-1zM8 7h1v1H8zM9 7h1v1H9zM10 7h1v1h-1zM26 7h1v1h-1zM27 7h1v1h-1zM28 7h1v1h-1zM29 7h1v1h-1zM30 7h1v1h-1zM31 7h1v1h-1z"/><path fill="#3C2D1B" d="M32 7h1v1h-1z"/><path fill="#9F8231" d="M33 7h1v1h-1z"/><path fill="#E9C241" d="M34 7h1v1h-1zM35 7h1v1h-1zM36 7h1v1h-1zM37 7h1v1h-1zM38 7h1v1h-1zM39 7h1v1h-1zM40 7h1v1h-1zM41 7h1v1h-1zM42 7h1v1h-1z"/><path fill="#B89836" d="M43 7h1v1h-1z"/><path fill="#231815" d="M44 7h1v1h-1zM45 7h1v1h-1zM46 7h1v1h-1zM7 8h1v1H7zM8 8h1v1H8zM9 8h1v1H9zM10 8h1v1h-1zM11 8h1v1h-1zM24 8h1v1h-1zM25 8h1v1h-1zM26 8h1v1h-1zM27 8h1v1h-1zM28 8h1v1h-1zM29 8h1v1h-1z"/><path fill="#2F2318" d="M30 8h1v1h-1z"/><path fill="#9F8231" d="M31 8h1v1h-1z"/><path fill="#E9C241" d="M32 8h1v1h-1zM33 8h1v1h-1zM34 8h1v1h-1zM35 8h1v1h-1zM36 8h1v1h-1zM37 8h1v1h-1zM38 8h1v1h-1zM39 8h1v1h-1zM40 8h1v1h-1zM41 8h1v1h-1zM42 8h1v1h-1z"/><path fill="#B89836" d="M43 8h1v1h-1z"/><path fill="#231815" d="M44 8h1v1h-1zM45 8h1v1h-1zM46 8h1v1h-1zM7 9h1v1H7zM8 9h1v1H8zM9 9h1v1H9zM10 9h1v1h-1zM11 9h1v1h-1zM12 9h1v1h-1zM22 9h1v1h-1zM23 9h1v1h-1zM24 9h1v1h-1zM25 9h1v1h-1zM26 9h1v1h-1zM27 9h1v1h-1z"/><path fill="#2F2318" d="M28 9h1v1h-1z"/><path fill="#866D2B" d="M29 9h1v1h-1z"/><path fill="#DDB73E" d="M30 9h1v1h-1z"/><path fill="#E9C241" d="M31 9h1v1h-1zM32 9h1v1h-1zM33 9h1v1h-1zM34 9h1v1h-1zM35 9h1v1h-1zM36 9h1v1h-1zM37 9h1v1h-1zM38 9h1v1h-1zM39 9h1v1h-1zM40 9h1v1h-1zM41 9h1v1h-1zM42 9h1v1h-1z"/><path fill="#B89836" d="M43 9h1v1h-1z"/><path fill="#231815" d="M44 9h1v1h-1zM45 9h1v1h-1zM46 9h1v1h-1zM7 10h1v1H7zM8 10h1v1H8zM9 10h1v1H9zM10 10h1v1h-1zM11 10h1v1h-1zM12 10h1v1h-1zM13 10h1v1h-1zM20 10h1v1h-1zM21 10h1v1h-1zM22 10h1v1h-1zM23 10h1v1h-1zM24 10h1v1h-1zM25 10h1v1h-1zM26 10h1v1h-1z"/><path fill="#7A6228" d="M27 10h1v1h-1z"/><path fill="#DDB73E" d="M28 10h1v1h-1z"/><path fill="#E9C241" d="M29 10h1v1h-1zM30 10h1v1h-1zM31 10h1v1h-1zM32 10h1v1h-1zM33 10h1v1h-1zM34 10h1v1h-1zM35 10h1v1h-1zM36 10h1v1h-1zM37 10h1v1h-1zM38 10h1v1h-1z"/><path fill="#B89836" d="M39 10h1v1h-1zM40 10h1v1h-1z"/><path fill="#DDB73E" d="M41 10h1v1h-1z"/><path fill="#E9C241" d="M42 10h1v1h-1zM43 10h1v1h-1z"/><path fill="#231815" d="M44 10h1v1h-1zM45 10h1v1h-1zM46 10h1v1h-1zM6 11h1v1H6zM7 11h1v1H7zM8 11h1v1H8zM9 11h1v1H9z"/><path fill="#492C1D" d="M10 11h1v1h-1z"/><path fill="#231815" d="M11 11h1v1h-1zM12 11h1v1h-1zM13 11h1v1h-1zM14 11h1v1h-1zM18 11h1v1h-1zM19 11h1v1h-1zM20 11h1v1h-1zM21 11h1v1h-1zM22 11h1v1h-1zM23 11h1v1h-1zM24 11h1v1h-1z"/><path fill="#614D23" d="M25 11h1v1h-1z"/><path fill="#D0AD3C" d="M26 11h1v1h-1z"/><path fill="#E9C241" d="M27 11h1v1h-1zM28 11h1v1h-1zM29 11h1v1h-1zM30 11h1v1h-1zM31 11h1v1h-1zM32 11h1v1h-1zM33 11h1v1h-1zM34 11h1v1h-1zM35 11h1v1h-1z"/><path fill="#DDB73E" d="M36 11h1v1h-1z"/><path fill="#866D2B" d="M37 11h1v1h-1z"/><path fill="#2F2318" d="M38 11h1v1h-1z"/><path fill="#231815" d="M39 11h1v1h-1zM40 11h1v1h-1z"/><path fill="#2F2318" d="M41 11h1v1h-1z"/><path fill="#C4A239" d="M42 11h1v1h-1z"/><path fill="#E9C241" d="M43 11h1v1h-1z"/><path fill="#231815" d="M44 11h1v1h-1zM45 11h1v1h-1zM46 11h1v1h-1zM6 12h1v1H6zM7 12h1v1H7zM8 12h1v1H8z"/><path fill="#492C1D" d="M9 12h1v1H9z"/><path fill="#CA6F39" d="M10 12h1v1h-1z"/><path fill="#301F18" d="M11 12h1v1h-1z"/><path fill="#231815" d="M12 12h1v1h-1zM13 12h1v1h-1zM14 12h1v1h-1zM15 12h1v1h-1zM16 12h1v1h-1zM17 12h1v1h-1zM18 12h1v1h-1zM19 12h1v1h-1zM20 12h1v1h-1zM21 12h1v1h-1zM22 12h1v1h-1z"/><path fill="#2F2318" d="M23 12h1v1h-1z"/><path fill="#554320" d="M24 12h1v1h-1z"/><path fill="#9F8231" d="M25 12h1v1h-1z"/><path fill="#E9C241" d="M26 12h1v1h-1zM27 12h1v1h-1zM28 12h1v1h-1zM29 12h1v1h-1zM30 12h1v1h-1zM31 12h1v1h-1zM32 12h1v1h-1zM33 12h1v1h-1z"/><path fill="#DDB73E" d="M34 12h1v1h-1z"/><path fill="#866D2B" d="M35 12h1v1h-1z"/><path fill="#2F2318" d="M36 12h1v1h-1z"/><path fill="#231815" d="M37 12h1v1h-1zM38 12h1v1h-1zM39 12h1v1h-1zM40 12h1v1h-1zM41 12h1v1h-1z"/><path fill="#6D5826" d="M42 12h1v1h-1z"/><path fill="#E9C241" d="M43 12h1v1h-1z"/><path fill="#231815" d="M44 12h1v1h-1zM45 12h1v1h-1zM46 12h1v1h-1zM6 13h1v1H6zM7 13h1v1H7zM8 13h1v1H8z"/><path fill="#563320" d="M9 13h1v1H9z"/><path fill="#F08341" d="M10 13h1v1h-1z"/><path fill="#96542E" d="M11 13h1v1h-1z"/><path fill="#231815" d="M12 13h1v1h-1zM13 13h1v1h-1zM14 13h1v1h-1zM15 13h1v1h-1zM16 13h1v1h-1zM17 13h1v1h-1zM18 13h1v1h-1zM19 13h1v1h-1zM20 13h1v1h-1zM21 13h1v1h-1zM22 13h1v1h-1zM23 13h1v1h-1zM24 13h1v1h-1zM25 13h1v1h-1z"/><path fill="#866D2B" d="M26 13h1v1h-1z"/><path fill="#E9C241" d="M27 13h1v1h-1zM28 13h1v1h-1zM29 13h1v1h-1zM30 13h1v1h-1zM31 13h1v1h-1zM32 13h1v1h-1z"/><path fill="#AB8D33" d="M33 13h1v1h-1z"/><path fill="#3C2D1B" d="M34 13h1v1h-1z"/><path fill="#231815" d="M35 13h1v1h-1zM36 13h1v1h-1zM37 13h1v1h-1zM38 13h1v1h-1zM39 13h1v1h-1zM40 13h1v1h-1zM41 13h1v1h-1z"/><path fill="#554320" d="M42 13h1v1h-1z"/><path fill="#E9C241" d="M43 13h1v1h-1z"/><path fill="#231815" d="M44 13h1v1h-1zM45 13h1v1h-1zM46 13h1v1h-1zM6 14h1v1H6zM7 14h1v1H7zM8 14h1v1H8z"/><path fill="#7D4728" d="M9 14h1v1H9z"/><path fill="#F09748" d="M10 14h1v1h-1z"/><path fill="#EFBE55" d="M11 14h1v1h-1z"/><path fill="#564D29" d="M12 14h1v1h-1z"/><path fill="#231815" d="M13 14h1v1h-1zM14 14h1v1h-1zM15 14h1v1h-1zM16 14h1v1h-1zM17 14h1v1h-1zM18 14h1v1h-1zM19 14h1v1h-1zM20 14h1v1h-1zM21 14h1v1h-1zM22 14h1v1h-1zM23 14h1v1h-1zM24 14h1v1h-1zM25 14h1v1h-1z"/><path fill="#554320" d="M26 14h1v1h-1z"/><path fill="#E9C241" d="M27 14h1v1h-1zM28 14h1v1h-1zM29 14h1v1h-1zM30 14h1v1h-1z"/><path fill="#D0AD3C" d="M31 14h1v1h-1z"/><path fill="#614D23" d="M32 14h1v1h-1z"/><path fill="#231815" d="M33 14h1v1h-1zM34 14h1v1h-1zM35 14h1v1h-1zM36 14h1v1h-1zM37 14h1v1h-1zM38 14h1v1h-1zM39 14h1v1h-1zM40 14h1v1h-1zM41 14h1v1h-1z"/><path fill="#554320" d="M42 14h1v1h-1z"/><path fill="#E9C241" d="M43 14h1v1h-1z"/><path fill="#231815" d="M44 14h1v1h-1zM45 14h1v1h-1zM46 14h1v1h-1zM5 15h1v1H5zM6 15h1v1H6zM7 15h1v1H7zM8 15h1v1H8z"/><path fill="#897B3A" d="M9 15h1v1H9z"/><path fill="#EEEC64" d="M10 15h1v1h-1zM11 15h1v1h-1z"/><path fill="#E1DF5F" d="M12 15h1v1h-1z"/><path fill="#BBB750" d="M13 15h1v1h-1z"/><path fill="#89823D" d="M14 15h1v1h-1z"/><path fill="#6F6833" d="M15 15h1v1h-1z"/><path fill="#30251A" d="M16 15h1v1h-1z"/><path fill="#231815" d="M17 15h1v1h-1zM18 15h1v1h-1zM19 15h1v1h-1zM20 15h1v1h-1zM21 15h1v1h-1zM22 15h1v1h-1zM23 15h1v1h-1zM24 15h1v1h-1zM25 15h1v1h-1z"/><path fill="#554320" d="M26 15h1v1h-1z"/><path fill="#E9C241" d="M27 15h1v1h-1zM28 15h1v1h-1zM29 15h1v1h-1z"/><path fill="#92782E" d="M30 15h1v1h-1z"/><path fill="#2F2318" d="M31 15h1v1h-1z"/><path fill="#231815" d="M32 15h1v1h-1zM33 15h1v1h-1zM34 15h1v1h-1zM35 15h1v1h-1zM36 15h1v1h-1zM39 15h1v1h-1zM40 15h1v1h-1zM41 15h1v1h-1z"/><path fill="#554320" d="M42 15h1v1h-1z"/><path fill="#E9C241" d="M43 15h1v1h-1z"/><path fill="#231815" d="M44 15h1v1h-1zM45 15h1v1h-1zM46 15h1v1h-1zM5 16h1v1H5zM6 16h1v1H6zM7 16h1v1H7zM8 16h1v1H8z"/><path fill="#A29D46" d="M9 16h1v1H9z"/><path fill="#EEEC64" d="M10 16h1v1h-1zM11 16h1v1h-1zM12 16h1v1h-1zM13 16h1v1h-1zM14 16h1v1h-1zM15 16h1v1h-1zM16 16h1v1h-1z"/><path fill="#A29D46" d="M17 16h1v1h-1z"/><path fill="#30251A" d="M18 16h1v1h-1z"/><path fill="#231815" d="M19 16h1v1h-1zM20 16h1v1h-1zM21 16h1v1h-1z"/><path fill="#633923" d="M22 16h1v1h-1z"/><path fill="#704026" d="M23 16h1v1h-1z"/><path fill="#231815" d="M24 16h1v1h-1zM25 16h1v1h-1z"/><path fill="#7A6228" d="M26 16h1v1h-1z"/><path fill="#E9C241" d="M27 16h1v1h-1z"/><path fill="#D0AD3C" d="M28 16h1v1h-1z"/><path fill="#554320" d="M29 16h1v1h-1z"/><path fill="#231815" d="M30 16h1v1h-1zM31 16h1v1h-1zM32 16h1v1h-1zM33 16h1v1h-1zM34 16h1v1h-1zM35 16h1v1h-1zM39 16h1v1h-1zM40 16h1v1h-1zM41 16h1v1h-1z"/><path fill="#554320" d="M42 16h1v1h-1z"/><path fill="#DDB73E" d="M43 16h1v1h-1z"/><path fill="#231815" d="M44 16h1v1h-1zM45 16h1v1h-1zM46 16h1v1h-1zM4 17h1v1H4zM5 17h1v1H5zM6 17h1v1H6zM7 17h1v1H7z"/><path fill="#6F6833" d="M8 17h1v1H8z"/><path fill="#EEEC64" d="M9 17h1v1H9zM10 17h1v1h-1zM11 17h1v1h-1zM12 17h1v1h-1zM13 17h1v1h-1zM14 17h1v1h-1zM15 17h1v1h-1zM16 17h1v1h-1zM17 17h1v1h-1z"/><path fill="#E1DF5F" d="M18 17h1v1h-1z"/><path fill="#625A2E" d="M19 17h1v1h-1z"/><path fill="#564D29" d="M20 17h1v1h-1z"/><path fill="#BD6F38" d="M21 17h1v1h-1z"/><path fill="#F08341" d="M22 17h1v1h-1z"/><path fill="#7D4728" d="M23 17h1v1h-1z"/><path fill="#231815" d="M24 17h1v1h-1zM25 17h1v1h-1z"/><path fill="#866D2B" d="M26 17h1v1h-1z"/><path fill="#92782E" d="M27 17h1v1h-1z"/><path fill="#2F2318" d="M28 17h1v1h-1z"/><path fill="#231815" d="M29 17h1v1h-1zM30 17h1v1h-1zM31 17h1v1h-1zM32 17h1v1h-1zM33 17h1v1h-1zM39 17h1v1h-1zM40 17h1v1h-1zM41 17h1v1h-1z"/><path fill="#554320" d="M42 17h1v1h-1z"/><path fill="#B89836" d="M43 17h1v1h-1z"/><path fill="#231815" d="M44 17h1v1h-1zM45 17h1v1h-1zM46 17h1v1h-1zM3 18h1v1H3zM4 18h1v1H4zM5 18h1v1H5zM6 18h1v1H6z"/><path fill="#6F6833" d="M7 18h1v1H7z"/><path fill="#EEEC64" d="M8 18h1v1H8zM9 18h1v1H9zM10 18h1v1h-1zM11 18h1v1h-1zM12 18h1v1h-1zM13 18h1v1h-1zM14 18h1v1h-1zM15 18h1v1h-1zM16 18h1v1h-1zM17 18h1v1h-1zM18 18h1v1h-1zM19 18h1v1h-1zM20 18h1v1h-1z"/><path fill="#EFCB59" d="M21 18h1v1h-1z"/><path fill="#F08341" d="M22 18h1v1h-1z"/><path fill="#563320" d="M23 18h1v1h-1z"/><path fill="#231815" d="M24 18h1v1h-1zM25 18h1v1h-1z"/><path fill="#2F2318" d="M26 18h1v1h-1z"/><path fill="#231815" d="M27 18h1v1h-1zM28 18h1v1h-1zM29 18h1v1h-1zM30 18h1v1h-1zM31 18h1v1h-1zM32 18h1v1h-1zM39 18h1v1h-1zM40 18h1v1h-1zM41 18h1v1h-1z"/><path fill="#554320" d="M42 18h1v1h-1z"/><path fill="#9F8231" d="M43 18h1v1h-1z"/><path fill="#231815" d="M44 18h1v1h-1zM45 18h1v1h-1zM46 18h1v1h-1zM83 18h1v1h-1zM84 18h1v1h-1zM85 18h1v1h-1zM86 18h1v1h-1zM87 18h1v1h-1zM3 19h1v1H3zM4 19h1v1H4zM5 19h1v1H5z"/><path fill="#494024" d="M6 19h1v1H6z"/><path fill="#EEEC64" d="M7 19h1v1H7zM8 19h1v1H8zM9 19h1v1H9zM10 19h1v1h-1zM11 19h1v1h-1zM12 19h1v1h-1zM13 19h1v1h-1zM14 19h1v1h-1zM15 19h1v1h-1zM16 19h1v1h-1zM17 19h1v1h-1zM18 19h1v1h-1zM19 19h1v1h-1zM20 19h1v1h-1zM21 19h1v1h-1z"/><path fill="#EFB150" d="M22 19h1v1h-1z"/><path fill="#3D251B" d="M23 19h1v1h-1z"/><path fill="#231815" d="M24 19h1v1h-1zM25 19h1v1h-1zM26 19h1v1h-1zM27 19h1v1h-1zM28 19h1v1h-1zM29 19h1v1h-1zM30 19h1v1h-1zM39 19h1v1h-1zM40 19h1v1h-1zM41 19h1v1h-1z"/><path fill="#554320" d="M42 19h1v1h-1z"/><path fill="#614D23" d="M43 19h1v1h-1z"/><path fill="#231815" d="M44 19h1v1h-1zM45 19h1v1h-1zM46 19h1v1h-1zM80 19h1v1h-1zM81 19h1v1h-1zM82 19h1v1h-1zM83 19h1v1h-1zM84 19h1v1h-1zM85 19h1v1h-1zM86 19h1v1h-1zM87 19h1v1h-1zM2 20h1v1H2zM3 20h1v1H3zM4 20h1v1H4zM5 20h1v1H5z"/><path fill="#BBB750" d="M6 20h1v1H6z"/><path fill="#EEEC64" d="M7 20h1v1H7zM8 20h1v1H8zM9 20h1v1H9zM10 20h1v1h-1z"/><path fill="#EFD25B" d="M11 20h1v1h-1z"/><path fill="#EFB853" d="M12 20h1v1h-1zM13 20h1v1h-1zM14 20h1v1h-1z"/><path fill="#EFCB59" d="M15 20h1v1h-1z"/><path fill="#EEEC64" d="M16 20h1v1h-1zM17 20h1v1h-1zM18 20h1v1h-1zM19 20h1v1h-1zM20 20h1v1h-1zM21 20h1v1h-1z"/><path fill="#EEE562" d="M22 20h1v1h-1z"/><path fill="#231815" d="M23 20h1v1h-1zM24 20h1v1h-1zM25 20h1v1h-1zM26 20h1v1h-1zM27 20h1v1h-1zM28 20h1v1h-1zM29 20h1v1h-1zM39 20h1v1h-1zM40 20h1v1h-1zM41 20h1v1h-1zM42 20h1v1h-1zM43 20h1v1h-1zM44 20h1v1h-1zM45 20h1v1h-1zM46 20h1v1h-1zM78 20h1v1h-1zM79 20h1v1h-1zM80 20h1v1h-1zM81 20h1v1h-1zM82 20h1v1h-1zM83 20h1v1h-1zM84 20h1v1h-1zM85 20h1v1h-1zM86 20h1v1h-1zM87 20h1v1h-1zM88 20h1v1h-1zM2 21h1v1H2zM3 21h1v1H3zM4 21h1v1H4z"/><path fill="#6F6833" d="M5 21h1v1H5z"/><path fill="#EEEC64" d="M6 21h1v1H6zM7 21h1v1H7zM8 21h1v1H8z"/><path fill="#EED85D" d="M9 21h1v1H9z"/><path fill="#F09748" d="M10 21h1v1h-1z"/><path fill="#F08341" d="M11 21h1v1h-1zM12 21h1v1h-1zM13 21h1v1h-1zM14 21h1v1h-1zM15 21h1v1h-1z"/><path fill="#F09045" d="M16 21h1v1h-1z"/><path fill="#EFD25B" d="M17 21h1v1h-1z"/><path fill="#EEEC64" d="M18 21h1v1h-1zM19 21h1v1h-1zM20 21h1v1h-1zM21 21h1v1h-1z"/><path fill="#BBB750" d="M22 21h1v1h-1z"/><path fill="#231815" d="M23 21h1v1h-1zM24 21h1v1h-1zM25 21h1v1h-1zM26 21h1v1h-1zM27 21h1v1h-1zM37 21h1v1h-1zM38 21h1v1h-1zM39 21h1v1h-1zM40 21h1v1h-1zM41 21h1v1h-1zM42 21h1v1h-1zM43 21h1v1h-1zM44 21h1v1h-1zM45 21h1v1h-1zM76 21h1v1h-1zM77 21h1v1h-1zM78 21h1v1h-1zM79 21h1v1h-1zM80 21h1v1h-1zM81 21h1v1h-1zM82 21h1v1h-1z"/><path fill="#30251A" d="M83 21h1v1h-1z"/><path fill="#7C7538" d="M84 21h1v1h-1z"/><path fill="#625A2E" d="M85 21h1v1h-1z"/><path fill="#231815" d="M86 21h1v1h-1zM87 21h1v1h-1zM88 21h1v1h-1zM1 22h1v1H1zM2 22h1v1H2zM3 22h1v1H3zM4 22h1v1H4z"/><path fill="#BBB750" d="M5 22h1v1H5z"/><path fill="#EEEC64" d="M6 22h1v1H6zM7 22h1v1H7z"/><path fill="#EED85D" d="M8 22h1v1H8z"/><path fill="#F08A43" d="M9 22h1v1H9z"/><path fill="#F08341" d="M10 22h1v1h-1zM11 22h1v1h-1zM12 22h1v1h-1zM13 22h1v1h-1zM14 22h1v1h-1zM15 22h1v1h-1zM16 22h1v1h-1zM17 22h1v1h-1z"/><path fill="#EFC557" d="M18 22h1v1h-1z"/><path fill="#EEEC64" d="M19 22h1v1h-1zM20 22h1v1h-1zM21 22h1v1h-1z"/><path fill="#D5D25A" d="M22 22h1v1h-1z"/><path fill="#231815" d="M23 22h1v1h-1zM24 22h1v1h-1zM25 22h1v1h-1zM26 22h1v1h-1zM36 22h1v1h-1zM37 22h1v1h-1zM38 22h1v1h-1zM39 22h1v1h-1zM40 22h1v1h-1zM41 22h1v1h-1zM42 22h1v1h-1zM43 22h1v1h-1zM44 22h1v1h-1zM45 22h1v1h-1zM52 22h1v1h-1zM53 22h1v1h-1zM54 22h1v1h-1zM55 22h1v1h-1zM74 22h1v1h-1zM75 22h1v1h-1zM76 22h1v1h-1zM77 22h1v1h-1zM78 22h1v1h-1zM79 22h1v1h-1zM80 22h1v1h-1z"/><path fill="#3C331F" d="M81 22h1v1h-1z"/><path fill="#A29D46" d="M82 22h1v1h-1z"/><path fill="#EEEC64" d="M83 22h1v1h-1zM84 22h1v1h-1z"/><path fill="#D5D25A" d="M85 22h1v1h-1z"/><path fill="#231815" d="M86 22h1v1h-1zM87 22h1v1h-1zM88 22h1v1h-1zM1 23h1v1H1zM2 23h1v1H2zM3 23h1v1H3z"/><path fill="#3C331F" d="M4 23h1v1H4z"/><path fill="#EEEC64" d="M5 23h1v1H5zM6 23h1v1H6z"/><path fill="#EEDF60" d="M7 23h1v1H7z"/><path fill="#F08A43" d="M8 23h1v1H8z"/><path fill="#F08341" d="M9 23h1v1H9zM10 23h1v1h-1zM11 23h1v1h-1z"/><path fill="#EA5E36" d="M12 23h1v1h-1z"/><path fill="#E85232" d="M13 23h1v1h-1z"/><path fill="#E95834" d="M14 23h1v1h-1z"/><path fill="#EF7D3F" d="M15 23h1v1h-1z"/><path fill="#F08341" d="M16 23h1v1h-1zM17 23h1v1h-1zM18 23h1v1h-1z"/><path fill="#EFCB59" d="M19 23h1v1h-1z"/><path fill="#EEEC64" d="M20 23h1v1h-1zM21 23h1v1h-1zM22 23h1v1h-1z"/><path fill="#6F6833" d="M23 23h1v1h-1z"/><path fill="#231815" d="M24 23h1v1h-1zM25 23h1v1h-1zM26 23h1v1h-1zM36 23h1v1h-1zM37 23h1v1h-1zM38 23h1v1h-1zM39 23h1v1h-1zM40 23h1v1h-1zM41 23h1v1h-1zM42 23h1v1h-1zM43 23h1v1h-1zM44 23h1v1h-1zM45 23h1v1h-1zM46 23h1v1h-1zM51 23h1v1h-1zM52 23h1v1h-1zM53 23h1v1h-1zM54 23h1v1h-1zM55 23h1v1h-1zM72 23h1v1h-1zM73 23h1v1h-1zM74 23h1v1h-1zM75 23h1v1h-1zM76 23h1v1h-1zM77 23h1v1h-1zM78 23h1v1h-1z"/><path fill="#494024" d="M79 23h1v1h-1z"/><path fill="#A29D46" d="M80 23h1v1h-1z"/><path fill="#EEEC64" d="M81 23h1v1h-1zM82 23h1v1h-1zM83 23h1v1h-1zM84 23h1v1h-1zM85 23h1v1h-1z"/><path fill="#30251A" d="M86 23h1v1h-1z"/><path fill="#231815" d="M87 23h1v1h-1zM88 23h1v1h-1zM89 23h1v1h-1zM1 24h1v1H1zM2 24h1v1H2zM3 24h1v1H3z"/><path fill="#89823D" d="M4 24h1v1H4z"/><path fill="#EEEC64" d="M5 24h1v1H5zM6 24h1v1H6z"/><path fill="#F09D4A" d="M7 24h1v1H7z"/><path fill="#F08341" d="M8 24h1v1H8zM9 24h1v1H9z"/><path fill="#EF7D3F" d="M10 24h1v1h-1z"/><path fill="#E3392B" d="M11 24h1v1h-1z"/><path fill="#DF2023" d="M12 24h1v1h-1zM13 24h1v1h-1zM14 24h1v1h-1z"/><path fill="#E23329" d="M15 24h1v1h-1z"/><path fill="#EF7D3F" d="M16 24h1v1h-1z"/><path fill="#F08341" d="M17 24h1v1h-1zM18 24h1v1h-1z"/><path fill="#F08A43" d="M19 24h1v1h-1z"/><path fill="#EEE562" d="M20 24h1v1h-1z"/><path fill="#EEEC64" d="M21 24h1v1h-1zM22 24h1v1h-1z"/><path fill="#AFAA4B" d="M23 24h1v1h-1z"/><path fill="#231815" d="M24 24h1v1h-1zM25 24h1v1h-1zM26 24h1v1h-1zM35 24h1v1h-1zM36 24h1v1h-1zM37 24h1v1h-1zM38 24h1v1h-1zM39 24h1v1h-1zM40 24h1v1h-1zM41 24h1v1h-1zM42 24h1v1h-1zM43 24h1v1h-1zM44 24h1v1h-1zM45 24h1v1h-1zM46 24h1v1h-1zM47 24h1v1h-1zM48 24h1v1h-1zM49 24h1v1h-1zM50 24h1v1h-1zM51 24h1v1h-1zM52 24h1v1h-1zM53 24h1v1h-1zM54 24h1v1h-1zM55 24h1v1h-1zM70 24h1v1h-1zM71 24h1v1h-1zM72 24h1v1h-1zM73 24h1v1h-1zM74 24h1v1h-1zM75 24h1v1h-1zM76 24h1v1h-1z"/><path fill="#564D29" d="M77 24h1v1h-1z"/><path fill="#BBB750" d="M78 24h1v1h-1z"/><path fill="#EEEC64" d="M79 24h1v1h-1zM80 24h1v1h-1zM81 24h1v1h-1zM82 24h1v1h-1zM83 24h1v1h-1zM84 24h1v1h-1zM85 24h1v1h-1z"/><path fill="#564D29" d="M86 24h1v1h-1z"/><path fill="#231815" d="M87 24h1v1h-1zM88 24h1v1h-1zM89 24h1v1h-1zM1 25h1v1H1zM2 25h1v1H2zM3 25h1v1H3z"/><path fill="#BBB750" d="M4 25h1v1H4z"/><path fill="#EEEC64" d="M5 25h1v1H5z"/><path fill="#EFD25B" d="M6 25h1v1H6z"/><path fill="#F08341" d="M7 25h1v1H7zM8 25h1v1H8zM9 25h1v1H9z"/><path fill="#E5452E" d="M10 25h1v1h-1z"/><path fill="#DF2023" d="M11 25h1v1h-1zM12 25h1v1h-1zM13 25h1v1h-1zM14 25h1v1h-1zM15 25h1v1h-1z"/><path fill="#E23329" d="M16 25h1v1h-1z"/><path fill="#EF7D3F" d="M17 25h1v1h-1z"/><path fill="#F08341" d="M18 25h1v1h-1zM19 25h1v1h-1z"/><path fill="#EFB853" d="M20 25h1v1h-1z"/><path fill="#EEEC64" d="M21 25h1v1h-1zM22 25h1v1h-1zM23 25h1v1h-1z"/><path fill="#30251A" d="M24 25h1v1h-1z"/><path fill="#231815" d="M25 25h1v1h-1zM26 25h1v1h-1zM27 25h1v1h-1zM35 25h1v1h-1zM36 25h1v1h-1zM37 25h1v1h-1z"/><path fill="#3D251B" d="M38 25h1v1h-1z"/><path fill="#231815" d="M39 25h1v1h-1zM40 25h1v1h-1zM41 25h1v1h-1zM42 25h1v1h-1zM43 25h1v1h-1zM44 25h1v1h-1zM45 25h1v1h-1zM46 25h1v1h-1zM47 25h1v1h-1zM48 25h1v1h-1zM49 25h1v1h-1zM50 25h1v1h-1zM51 25h1v1h-1zM52 25h1v1h-1zM53 25h1v1h-1zM54 25h1v1h-1zM55 25h1v1h-1zM56 25h1v1h-1zM68 25h1v1h-1zM69 25h1v1h-1zM70 25h1v1h-1zM71 25h1v1h-1zM72 25h1v1h-1zM73 25h1v1h-1zM74 25h1v1h-1z"/><path fill="#564D29" d="M75 25h1v1h-1z"/><path fill="#BBB750" d="M76 25h1v1h-1z"/><path fill="#EEEC64" d="M77 25h1v1h-1zM78 25h1v1h-1zM79 25h1v1h-1zM80 25h1v1h-1zM81 25h1v1h-1zM82 25h1v1h-1zM83 25h1v1h-1zM84 25h1v1h-1zM85 25h1v1h-1z"/><path fill="#564D29" d="M86 25h1v1h-1z"/><path fill="#231815" d="M87 25h1v1h-1zM88 25h1v1h-1zM89 25h1v1h-1zM0 26h1v1H0zM1 26h1v1H1zM2 26h1v1H2zM3 26h1v1H3z"/><path fill="#EEEC64" d="M4 26h1v1H4zM5 26h1v1H5z"/><path fill="#EFAA4E" d="M6 26h1v1H6z"/><path fill="#F08341" d="M7 26h1v1H7zM8 26h1v1H8z"/><path fill="#EC6A3A" d="M9 26h1v1H9z"/><path fill="#DF2023" d="M10 26h1v1h-1zM11 26h1v1h-1zM12 26h1v1h-1zM13 26h1v1h-1zM14 26h1v1h-1zM15 26h1v1h-1zM16 26h1v1h-1z"/><path fill="#E85232" d="M17 26h1v1h-1z"/><path fill="#F08341" d="M18 26h1v1h-1zM19 26h1v1h-1z"/><path fill="#F08A43" d="M20 26h1v1h-1z"/><path fill="#EEE562" d="M21 26h1v1h-1z"/><path fill="#EEEC64" d="M22 26h1v1h-1zM23 26h1v1h-1z"/><path fill="#625A2E" d="M24 26h1v1h-1z"/><path fill="#231815" d="M25 26h1v1h-1zM26 26h1v1h-1zM27 26h1v1h-1zM35 26h1v1h-1zM36 26h1v1h-1zM37 26h1v1h-1z"/><path fill="#704026" d="M38 26h1v1h-1z"/><path fill="#8A4E2B" d="M39 26h1v1h-1z"/><path fill="#231815" d="M40 26h1v1h-1zM41 26h1v1h-1zM42 26h1v1h-1z"/><path fill="#3C331F" d="M43 26h1v1h-1z"/><path fill="#564D29" d="M44 26h1v1h-1zM45 26h1v1h-1z"/><path fill="#231815" d="M46 26h1v1h-1zM47 26h1v1h-1zM48 26h1v1h-1zM49 26h1v1h-1zM50 26h1v1h-1zM51 26h1v1h-1z"/><path fill="#704026" d="M52 26h1v1h-1z"/><path fill="#563320" d="M53 26h1v1h-1z"/><path fill="#231815" d="M54 26h1v1h-1zM55 26h1v1h-1zM56 26h1v1h-1zM66 26h1v1h-1zM67 26h1v1h-1zM68 26h1v1h-1zM69 26h1v1h-1zM70 26h1v1h-1zM71 26h1v1h-1zM72 26h1v1h-1z"/><path fill="#564D29" d="M73 26h1v1h-1z"/><path fill="#BBB750" d="M74 26h1v1h-1z"/><path fill="#EEEC64" d="M75 26h1v1h-1zM76 26h1v1h-1zM77 26h1v1h-1zM78 26h1v1h-1zM79 26h1v1h-1zM80 26h1v1h-1zM81 26h1v1h-1zM82 26h1v1h-1zM83 26h1v1h-1zM84 26h1v1h-1zM85 26h1v1h-1z"/><path fill="#7C7538" d="M86 26h1v1h-1z"/><path fill="#231815" d="M87 26h1v1h-1zM88 26h1v1h-1zM89 26h1v1h-1zM0 27h1v1H0zM1 27h1v1H1zM2 27h1v1H2z"/><path fill="#564D29" d="M3 27h1v1H3z"/><path fill="#EEEC64" d="M4 27h1v1H4zM5 27h1v1H5z"/><path fill="#F08A43" d="M6 27h1v1H6z"/><path fill="#F08341" d="M7 27h1v1H7zM8 27h1v1H8z"/><path fill="#E43F2C" d="M9 27h1v1H9z"/><path fill="#DF2023" d="M10 27h1v1h-1zM11 27h1v1h-1zM12 27h1v1h-1zM13 27h1v1h-1zM14 27h1v1h-1zM15 27h1v1h-1zM16 27h1v1h-1zM17 27h1v1h-1z"/><path fill="#EF7D3F" d="M18 27h1v1h-1z"/><path fill="#F08341" d="M19 27h1v1h-1zM20 27h1v1h-1z"/><path fill="#EFC557" d="M21 27h1v1h-1z"/><path fill="#EEEC64" d="M22 27h1v1h-1zM23 27h1v1h-1z"/><path fill="#89823D" d="M24 27h1v1h-1z"/><path fill="#231815" d="M25 27h1v1h-1zM26 27h1v1h-1zM27 27h1v1h-1zM35 27h1v1h-1zM36 27h1v1h-1zM37 27h1v1h-1z"/><path fill="#896834" d="M38 27h1v1h-1z"/><path fill="#E1D85D" d="M39 27h1v1h-1z"/><path fill="#89823D" d="M40 27h1v1h-1zM41 27h1v1h-1z"/><path fill="#C8C455" d="M42 27h1v1h-1z"/><path fill="#EEEC64" d="M43 27h1v1h-1zM44 27h1v1h-1zM45 27h1v1h-1zM46 27h1v1h-1z"/><path fill="#AFAA4B" d="M47 27h1v1h-1z"/><path fill="#564D29" d="M48 27h1v1h-1z"/><path fill="#231815" d="M49 27h1v1h-1zM50 27h1v1h-1z"/><path fill="#704026" d="M51 27h1v1h-1z"/><path fill="#F08341" d="M52 27h1v1h-1z"/><path fill="#563320" d="M53 27h1v1h-1z"/><path fill="#231815" d="M54 27h1v1h-1zM55 27h1v1h-1zM56 27h1v1h-1zM64 27h1v1h-1zM65 27h1v1h-1zM66 27h1v1h-1zM67 27h1v1h-1zM68 27h1v1h-1zM69 27h1v1h-1zM70 27h1v1h-1z"/><path fill="#564D29" d="M71 27h1v1h-1z"/><path fill="#BBB750" d="M72 27h1v1h-1z"/><path fill="#EEEC64" d="M73 27h1v1h-1zM74 27h1v1h-1zM75 27h1v1h-1zM76 27h1v1h-1zM77 27h1v1h-1zM78 27h1v1h-1zM79 27h1v1h-1zM80 27h1v1h-1zM81 27h1v1h-1zM82 27h1v1h-1zM83 27h1v1h-1zM84 27h1v1h-1zM85 27h1v1h-1z"/><path fill="#89823D" d="M86 27h1v1h-1z"/><path fill="#231815" d="M87 27h1v1h-1zM88 27h1v1h-1zM89 27h1v1h-1zM0 28h1v1H0zM1 28h1v1H1zM2 28h1v1H2z"/><path fill="#625A2E" d="M3 28h1v1H3z"/><path fill="#EEEC64" d="M4 28h1v1H4z"/><path fill="#EED85D" d="M5 28h1v1H5z"/><path fill="#F08341" d="M6 28h1v1H6zM7 28h1v1H7z"/><path fill="#EF7D3F" d="M8 28h1v1H8z"/><path fill="#DF2023" d="M9 28h1v1H9zM10 28h1v1h-1zM11 28h1v1h-1zM12 28h1v1h-1zM13 28h1v1h-1zM14 28h1v1h-1zM15 28h1v1h-1zM16 28h1v1h-1zM17 28h1v1h-1z"/><path fill="#E95834" d="M18 28h1v1h-1z"/><path fill="#F08341" d="M19 28h1v1h-1zM20 28h1v1h-1z"/><path fill="#EFAA4E" d="M21 28h1v1h-1z"/><path fill="#EEEC64" d="M22 28h1v1h-1zM23 28h1v1h-1z"/><path fill="#BBB750" d="M24 28h1v1h-1z"/><path fill="#231815" d="M25 28h1v1h-1zM26 28h1v1h-1zM27 28h1v1h-1zM35 28h1v1h-1zM36 28h1v1h-1zM37 28h1v1h-1z"/><path fill="#89823D" d="M38 28h1v1h-1z"/><path fill="#EEEC64" d="M39 28h1v1h-1zM40 28h1v1h-1zM41 28h1v1h-1zM42 28h1v1h-1zM43 28h1v1h-1zM44 28h1v1h-1zM45 28h1v1h-1zM46 28h1v1h-1zM47 28h1v1h-1zM48 28h1v1h-1z"/><path fill="#BBB750" d="M49 28h1v1h-1z"/><path fill="#AFAA4B" d="M50 28h1v1h-1z"/><path fill="#EFC557" d="M51 28h1v1h-1z"/><path fill="#F08341" d="M52 28h1v1h-1z"/><path fill="#7D4728" d="M53 28h1v1h-1z"/><path fill="#231815" d="M54 28h1v1h-1zM55 28h1v1h-1zM56 28h1v1h-1zM62 28h1v1h-1zM63 28h1v1h-1zM64 28h1v1h-1zM65 28h1v1h-1zM66 28h1v1h-1zM67 28h1v1h-1zM68 28h1v1h-1z"/><path fill="#3C331F" d="M69 28h1v1h-1z"/><path fill="#A29D46" d="M70 28h1v1h-1z"/><path fill="#EEEC64" d="M71 28h1v1h-1zM72 28h1v1h-1zM73 28h1v1h-1zM74 28h1v1h-1zM75 28h1v1h-1zM76 28h1v1h-1zM77 28h1v1h-1zM78 28h1v1h-1zM79 28h1v1h-1zM80 28h1v1h-1zM81 28h1v1h-1zM82 28h1v1h-1zM83 28h1v1h-1zM84 28h1v1h-1zM85 28h1v1h-1z"/><path fill="#89823D" d="M86 28h1v1h-1z"/><path fill="#231815" d="M87 28h1v1h-1zM88 28h1v1h-1zM89 28h1v1h-1zM0 29h1v1H0zM1 29h1v1H1zM2 29h1v1H2z"/><path fill="#89823D" d="M3 29h1v1H3z"/><path fill="#EEEC64" d="M4 29h1v1H4z"/><path fill="#EFC557" d="M5 29h1v1H5z"/><path fill="#F08341" d="M6 29h1v1H6zM7 29h1v1H7z"/><path fill="#EC6A3A" d="M8 29h1v1H8z"/><path fill="#DF2023" d="M9 29h1v1H9zM10 29h1v1h-1zM11 29h1v1h-1zM12 29h1v1h-1zM13 29h1v1h-1zM14 29h1v1h-1zM15 29h1v1h-1zM16 29h1v1h-1zM17 29h1v1h-1z"/><path fill="#E3392B" d="M18 29h1v1h-1z"/><path fill="#F08341" d="M19 29h1v1h-1zM20 29h1v1h-1z"/><path fill="#F09045" d="M21 29h1v1h-1z"/><path fill="#EEEC64" d="M22 29h1v1h-1zM23 29h1v1h-1z"/><path fill="#E1DF5F" d="M24 29h1v1h-1z"/><path fill="#231815" d="M25 29h1v1h-1zM26 29h1v1h-1zM27 29h1v1h-1zM28 29h1v1h-1zM34 29h1v1h-1zM35 29h1v1h-1zM36 29h1v1h-1zM37 29h1v1h-1z"/><path fill="#958F41" d="M38 29h1v1h-1z"/><path fill="#EEEC64" d="M39 29h1v1h-1zM40 29h1v1h-1zM41 29h1v1h-1zM42 29h1v1h-1zM43 29h1v1h-1zM44 29h1v1h-1zM45 29h1v1h-1zM46 29h1v1h-1zM47 29h1v1h-1zM48 29h1v1h-1zM49 29h1v1h-1zM50 29h1v1h-1zM51 29h1v1h-1z"/><path fill="#EFC557" d="M52 29h1v1h-1z"/><path fill="#8A4E2B" d="M53 29h1v1h-1z"/><path fill="#231815" d="M54 29h1v1h-1zM55 29h1v1h-1zM56 29h1v1h-1zM60 29h1v1h-1zM61 29h1v1h-1zM62 29h1v1h-1zM63 29h1v1h-1zM64 29h1v1h-1zM65 29h1v1h-1zM66 29h1v1h-1z"/><path fill="#3C331F" d="M67 29h1v1h-1z"/><path fill="#A29D46" d="M68 29h1v1h-1z"/><path fill="#EEEC64" d="M69 29h1v1h-1zM70 29h1v1h-1zM71 29h1v1h-1zM72 29h1v1h-1zM73 29h1v1h-1zM74 29h1v1h-1zM75 29h1v1h-1zM76 29h1v1h-1zM77 29h1v1h-1zM78 29h1v1h-1zM79 29h1v1h-1zM80 29h1v1h-1zM81 29h1v1h-1zM82 29h1v1h-1zM83 29h1v1h-1zM84 29h1v1h-1zM85 29h1v1h-1z"/><path fill="#89823D" d="M86 29h1v1h-1z"/><path fill="#231815" d="M87 29h1v1h-1zM88 29h1v1h-1zM89 29h1v1h-1zM0 30h1v1H0zM1 30h1v1H1zM2 30h1v1H2z"/><path fill="#89823D" d="M3 30h1v1H3z"/><path fill="#EEEC64" d="M4 30h1v1H4z"/><path fill="#EFB853" d="M5 30h1v1H5z"/><path fill="#F08341" d="M6 30h1v1H6zM7 30h1v1H7z"/><path fill="#E85232" d="M8 30h1v1H8z"/><path fill="#DF2023" d="M9 30h1v1H9zM10 30h1v1h-1zM11 30h1v1h-1zM12 30h1v1h-1zM13 30h1v1h-1zM14 30h1v1h-1zM15 30h1v1h-1zM16 30h1v1h-1zM17 30h1v1h-1zM18 30h1v1h-1z"/><path fill="#F08341" d="M19 30h1v1h-1zM20 30h1v1h-1zM21 30h1v1h-1z"/><path fill="#EEEC64" d="M22 30h1v1h-1zM23 30h1v1h-1zM24 30h1v1h-1z"/><path fill="#494024" d="M25 30h1v1h-1z"/><path fill="#231815" d="M26 30h1v1h-1zM27 30h1v1h-1zM28 30h1v1h-1zM33 30h1v1h-1zM34 30h1v1h-1zM35 30h1v1h-1zM36 30h1v1h-1z"/><path fill="#494024" d="M37 30h1v1h-1z"/><path fill="#E1DF5F" d="M38 30h1v1h-1z"/><path fill="#EEEC64" d="M39 30h1v1h-1zM40 30h1v1h-1zM41 30h1v1h-1zM42 30h1v1h-1zM43 30h1v1h-1zM44 30h1v1h-1zM45 30h1v1h-1zM46 30h1v1h-1zM47 30h1v1h-1zM48 30h1v1h-1zM49 30h1v1h-1zM50 30h1v1h-1zM51 30h1v1h-1zM52 30h1v1h-1z"/><path fill="#897B3A" d="M53 30h1v1h-1z"/><path fill="#231815" d="M54 30h1v1h-1zM55 30h1v1h-1zM56 30h1v1h-1zM59 30h1v1h-1zM60 30h1v1h-1zM61 30h1v1h-1zM62 30h1v1h-1zM63 30h1v1h-1zM64 30h1v1h-1z"/><path fill="#3C331F" d="M65 30h1v1h-1z"/><path fill="#A29D46" d="M66 30h1v1h-1z"/><path fill="#EEEC64" d="M67 30h1v1h-1zM68 30h1v1h-1zM69 30h1v1h-1zM70 30h1v1h-1zM71 30h1v1h-1zM72 30h1v1h-1zM73 30h1v1h-1zM74 30h1v1h-1zM75 30h1v1h-1zM76 30h1v1h-1zM77 30h1v1h-1zM78 30h1v1h-1z"/><path fill="#BBB750" d="M79 30h1v1h-1z"/><path fill="#625A2E" d="M80 30h1v1h-1z"/><path fill="#231815" d="M81 30h1v1h-1zM82 30h1v1h-1z"/><path fill="#30251A" d="M83 30h1v1h-1z"/><path fill="#AFAA4B" d="M84 30h1v1h-1z"/><path fill="#EEEC64" d="M85 30h1v1h-1z"/><path fill="#89823D" d="M86 30h1v1h-1z"/><path fill="#231815" d="M87 30h1v1h-1zM88 30h1v1h-1zM89 30h1v1h-1zM0 31h1v1H0zM1 31h1v1H1zM2 31h1v1H2z"/><path fill="#89823D" d="M3 31h1v1H3z"/><path fill="#EEEC64" d="M4 31h1v1H4z"/><path fill="#EFB853" d="M5 31h1v1H5z"/><path fill="#F08341" d="M6 31h1v1H6zM7 31h1v1H7z"/><path fill="#E85232" d="M8 31h1v1H8z"/><path fill="#DF2023" d="M9 31h1v1H9zM10 31h1v1h-1zM11 31h1v1h-1zM12 31h1v1h-1zM13 31h1v1h-1zM14 31h1v1h-1zM15 31h1v1h-1zM16 31h1v1h-1zM17 31h1v1h-1zM18 31h1v1h-1z"/><path fill="#EE773D" d="M19 31h1v1h-1z"/><path fill="#F08341" d="M20 31h1v1h-1zM21 31h1v1h-1z"/><path fill="#EEDF60" d="M22 31h1v1h-1z"/><path fill="#EEEC64" d="M23 31h1v1h-1zM24 31h1v1h-1z"/><path fill="#A29D46" d="M25 31h1v1h-1z"/><path fill="#231815" d="M26 31h1v1h-1zM27 31h1v1h-1zM28 31h1v1h-1zM29 31h1v1h-1zM30 31h1v1h-1zM31 31h1v1h-1zM33 31h1v1h-1zM34 31h1v1h-1zM35 31h1v1h-1z"/><path fill="#3C331F" d="M36 31h1v1h-1z"/><path fill="#E1DF5F" d="M37 31h1v1h-1z"/><path fill="#EEEC64" d="M38 31h1v1h-1zM39 31h1v1h-1zM40 31h1v1h-1zM41 31h1v1h-1zM42 31h1v1h-1z"/><path fill="#EFD25B" d="M43 31h1v1h-1zM44 31h1v1h-1zM45 31h1v1h-1z"/><path fill="#EEEC64" d="M46 31h1v1h-1zM47 31h1v1h-1zM48 31h1v1h-1zM49 31h1v1h-1zM50 31h1v1h-1zM51 31h1v1h-1zM52 31h1v1h-1z"/><path fill="#89823D" d="M53 31h1v1h-1z"/><path fill="#231815" d="M54 31h1v1h-1zM55 31h1v1h-1zM56 31h1v1h-1zM57 31h1v1h-1zM58 31h1v1h-1zM59 31h1v1h-1zM60 31h1v1h-1zM61 31h1v1h-1zM62 31h1v1h-1z"/><path fill="#30251A" d="M63 31h1v1h-1z"/><path fill="#958F41" d="M64 31h1v1h-1z"/><path fill="#EEEC64" d="M65 31h1v1h-1zM66 31h1v1h-1zM67 31h1v1h-1zM68 31h1v1h-1zM69 31h1v1h-1zM70 31h1v1h-1zM71 31h1v1h-1zM72 31h1v1h-1zM73 31h1v1h-1zM74 31h1v1h-1zM75 31h1v1h-1zM76 31h1v1h-1z"/><path fill="#BBB750" d="M77 31h1v1h-1z"/><path fill="#564D29" d="M78 31h1v1h-1z"/><path fill="#231815" d="M79 31h1v1h-1zM80 31h1v1h-1zM81 31h1v1h-1zM82 31h1v1h-1zM83 31h1v1h-1z"/><path fill="#30251A" d="M84 31h1v1h-1z"/><path fill="#E1DF5F" d="M85 31h1v1h-1z"/><path fill="#89823D" d="M86 31h1v1h-1z"/><path fill="#231815" d="M87 31h1v1h-1zM88 31h1v1h-1zM89 31h1v1h-1zM0 32h1v1H0zM1 32h1v1H1zM2 32h1v1H2z"/><path fill="#89823D" d="M3 32h1v1H3z"/><path fill="#EEEC64" d="M4 32h1v1H4z"/><path fill="#EFB853" d="M5 32h1v1H5z"/><path fill="#F08341" d="M6 32h1v1H6zM7 32h1v1H7z"/><path fill="#E85232" d="M8 32h1v1H8z"/><path fill="#DF2023" d="M9 32h1v1H9zM10 32h1v1h-1zM11 32h1v1h-1zM12 32h1v1h-1zM13 32h1v1h-1zM14 32h1v1h-1zM15 32h1v1h-1zM16 32h1v1h-1zM17 32h1v1h-1zM18 32h1v1h-1z"/><path fill="#EC6A3A" d="M19 32h1v1h-1z"/><path fill="#F08341" d="M20 32h1v1h-1zM21 32h1v1h-1z"/><path fill="#EFD25B" d="M22 32h1v1h-1z"/><path fill="#EEEC64" d="M23 32h1v1h-1zM24 32h1v1h-1zM25 32h1v1h-1z"/><path fill="#494024" d="M26 32h1v1h-1z"/><path fill="#231815" d="M27 32h1v1h-1zM28 32h1v1h-1zM29 32h1v1h-1zM30 32h1v1h-1zM31 32h1v1h-1zM32 32h1v1h-1zM33 32h1v1h-1zM34 32h1v1h-1zM35 32h1v1h-1z"/><path fill="#C8C455" d="M36 32h1v1h-1z"/><path fill="#EEEC64" d="M37 32h1v1h-1zM38 32h1v1h-1zM39 32h1v1h-1z"/><path fill="#EEE562" d="M40 32h1v1h-1z"/><path fill="#EFB853" d="M41 32h1v1h-1z"/><path fill="#F08A43" d="M42 32h1v1h-1z"/><path fill="#F08341" d="M43 32h1v1h-1zM44 32h1v1h-1zM45 32h1v1h-1zM46 32h1v1h-1z"/><path fill="#EFAA4E" d="M47 32h1v1h-1z"/><path fill="#EEE562" d="M48 32h1v1h-1z"/><path fill="#EEEC64" d="M49 32h1v1h-1zM50 32h1v1h-1zM51 32h1v1h-1zM52 32h1v1h-1z"/><path fill="#958F41" d="M53 32h1v1h-1z"/><path fill="#231815" d="M54 32h1v1h-1zM55 32h1v1h-1zM56 32h1v1h-1zM57 32h1v1h-1zM58 32h1v1h-1zM59 32h1v1h-1zM60 32h1v1h-1z"/><path fill="#30251A" d="M61 32h1v1h-1z"/><path fill="#89823D" d="M62 32h1v1h-1z"/><path fill="#E1DF5F" d="M63 32h1v1h-1z"/><path fill="#EEEC64" d="M64 32h1v1h-1zM65 32h1v1h-1zM66 32h1v1h-1zM67 32h1v1h-1zM68 32h1v1h-1zM69 32h1v1h-1zM70 32h1v1h-1zM71 32h1v1h-1zM72 32h1v1h-1zM73 32h1v1h-1zM74 32h1v1h-1z"/><path fill="#D5D25A" d="M75 32h1v1h-1z"/><path fill="#564D29" d="M76 32h1v1h-1z"/><path fill="#231815" d="M77 32h1v1h-1zM78 32h1v1h-1zM79 32h1v1h-1zM80 32h1v1h-1zM81 32h1v1h-1zM82 32h1v1h-1zM83 32h1v1h-1zM84 32h1v1h-1z"/><path fill="#BBB750" d="M85 32h1v1h-1z"/><path fill="#89823D" d="M86 32h1v1h-1z"/><path fill="#231815" d="M87 32h1v1h-1zM88 32h1v1h-1zM89 32h1v1h-1zM0 33h1v1H0zM1 33h1v1H1zM2 33h1v1H2z"/><path fill="#89823D" d="M3 33h1v1H3z"/><path fill="#EEEC64" d="M4 33h1v1H4z"/><path fill="#EFB853" d="M5 33h1v1H5z"/><path fill="#F08341" d="M6 33h1v1H6zM7 33h1v1H7z"/><path fill="#E85232" d="M8 33h1v1H8z"/><path fill="#DF2023" d="M9 33h1v1H9zM10 33h1v1h-1zM11 33h1v1h-1zM12 33h1v1h-1zM13 33h1v1h-1zM14 33h1v1h-1zM15 33h1v1h-1zM16 33h1v1h-1zM17 33h1v1h-1zM18 33h1v1h-1z"/><path fill="#EC6A3A" d="M19 33h1v1h-1z"/><path fill="#F08341" d="M20 33h1v1h-1zM21 33h1v1h-1z"/><path fill="#EFD25B" d="M22 33h1v1h-1z"/><path fill="#EEEC64" d="M23 33h1v1h-1zM24 33h1v1h-1zM25 33h1v1h-1z"/><path fill="#E1DF5F" d="M26 33h1v1h-1z"/><path fill="#6F6833" d="M27 33h1v1h-1z"/><path fill="#231815" d="M28 33h1v1h-1zM29 33h1v1h-1zM30 33h1v1h-1zM31 33h1v1h-1zM32 33h1v1h-1zM33 33h1v1h-1zM34 33h1v1h-1z"/><path fill="#7C7538" d="M35 33h1v1h-1z"/><path fill="#EEEC64" d="M36 33h1v1h-1zM37 33h1v1h-1zM38 33h1v1h-1z"/><path fill="#EEE562" d="M39 33h1v1h-1z"/><path fill="#F09748" d="M40 33h1v1h-1z"/><path fill="#F08341" d="M41 33h1v1h-1zM42 33h1v1h-1zM43 33h1v1h-1zM44 33h1v1h-1zM45 33h1v1h-1zM46 33h1v1h-1zM47 33h1v1h-1z"/><path fill="#F08A43" d="M48 33h1v1h-1z"/><path fill="#EED85D" d="M49 33h1v1h-1z"/><path fill="#EEEC64" d="M50 33h1v1h-1zM51 33h1v1h-1zM52 33h1v1h-1z"/><path fill="#E1DF5F" d="M53 33h1v1h-1z"/><path fill="#30251A" d="M54 33h1v1h-1z"/><path fill="#231815" d="M55 33h1v1h-1zM56 33h1v1h-1zM57 33h1v1h-1zM58 33h1v1h-1z"/><path fill="#30251A" d="M59 33h1v1h-1z"/><path fill="#89823D" d="M60 33h1v1h-1z"/><path fill="#E1DF5F" d="M61 33h1v1h-1z"/><path fill="#EEEC64" d="M62 33h1v1h-1zM63 33h1v1h-1zM64 33h1v1h-1zM65 33h1v1h-1zM66 33h1v1h-1zM67 33h1v1h-1zM68 33h1v1h-1zM69 33h1v1h-1zM70 33h1v1h-1zM71 33h1v1h-1zM72 33h1v1h-1z"/><path fill="#E1DF5F" d="M73 33h1v1h-1z"/><path fill="#7C7538" d="M74 33h1v1h-1z"/><path fill="#231815" d="M75 33h1v1h-1zM76 33h1v1h-1zM77 33h1v1h-1zM78 33h1v1h-1zM79 33h1v1h-1zM80 33h1v1h-1zM81 33h1v1h-1zM82 33h1v1h-1zM83 33h1v1h-1zM84 33h1v1h-1z"/><path fill="#89823D" d="M85 33h1v1h-1zM86 33h1v1h-1z"/><path fill="#231815" d="M87 33h1v1h-1zM88 33h1v1h-1zM89 33h1v1h-1zM0 34h1v1H0zM1 34h1v1H1zM2 34h1v1H2z"/><path fill="#89823D" d="M3 34h1v1H3z"/><path fill="#EEEC64" d="M4 34h1v1H4z"/><path fill="#EFB853" d="M5 34h1v1H5z"/><path fill="#F08341" d="M6 34h1v1H6zM7 34h1v1H7z"/><path fill="#E95834" d="M8 34h1v1H8z"/><path fill="#DF2023" d="M9 34h1v1H9zM10 34h1v1h-1zM11 34h1v1h-1zM12 34h1v1h-1zM13 34h1v1h-1zM14 34h1v1h-1zM15 34h1v1h-1zM16 34h1v1h-1zM17 34h1v1h-1zM18 34h1v1h-1z"/><path fill="#ED703B" d="M19 34h1v1h-1z"/><path fill="#F08341" d="M20 34h1v1h-1zM21 34h1v1h-1z"/><path fill="#EED85D" d="M22 34h1v1h-1z"/><path fill="#EEEC64" d="M23 34h1v1h-1zM24 34h1v1h-1zM25 34h1v1h-1zM26 34h1v1h-1zM27 34h1v1h-1z"/><path fill="#E1DF5F" d="M28 34h1v1h-1z"/><path fill="#A29D46" d="M29 34h1v1h-1z"/><path fill="#494024" d="M30 34h1v1h-1z"/><path fill="#231815" d="M31 34h1v1h-1zM32 34h1v1h-1zM33 34h1v1h-1z"/><path fill="#564D29" d="M34 34h1v1h-1z"/><path fill="#E1DF5F" d="M35 34h1v1h-1z"/><path fill="#EEEC64" d="M36 34h1v1h-1zM37 34h1v1h-1z"/><path fill="#EEE562" d="M38 34h1v1h-1z"/><path fill="#F09748" d="M39 34h1v1h-1z"/><path fill="#F08341" d="M40 34h1v1h-1zM41 34h1v1h-1zM42 34h1v1h-1z"/><path fill="#EE773D" d="M43 34h1v1h-1z"/><path fill="#EC6A3A" d="M44 34h1v1h-1z"/><path fill="#EE773D" d="M45 34h1v1h-1z"/><path fill="#F08341" d="M46 34h1v1h-1zM47 34h1v1h-1zM48 34h1v1h-1z"/><path fill="#F08A43" d="M49 34h1v1h-1z"/><path fill="#EED85D" d="M50 34h1v1h-1z"/><path fill="#EEEC64" d="M51 34h1v1h-1zM52 34h1v1h-1zM53 34h1v1h-1z"/><path fill="#89823D" d="M54 34h1v1h-1z"/><path fill="#231815" d="M55 34h1v1h-1zM56 34h1v1h-1zM57 34h1v1h-1z"/><path fill="#6F6833" d="M58 34h1v1h-1z"/><path fill="#E1DF5F" d="M59 34h1v1h-1z"/><path fill="#EEEC64" d="M60 34h1v1h-1zM61 34h1v1h-1zM62 34h1v1h-1zM63 34h1v1h-1zM64 34h1v1h-1zM65 34h1v1h-1zM66 34h1v1h-1zM67 34h1v1h-1zM68 34h1v1h-1zM69 34h1v1h-1zM70 34h1v1h-1zM71 34h1v1h-1z"/><path fill="#A29D46" d="M72 34h1v1h-1z"/><path fill="#30251A" d="M73 34h1v1h-1z"/><path fill="#231815" d="M74 34h1v1h-1zM75 34h1v1h-1zM76 34h1v1h-1zM77 34h1v1h-1zM78 34h1v1h-1zM79 34h1v1h-1zM82 34h1v1h-1zM83 34h1v1h-1zM84 34h1v1h-1z"/><path fill="#89823D" d="M85 34h1v1h-1zM86 34h1v1h-1z"/><path fill="#231815" d="M87 34h1v1h-1zM88 34h1v1h-1zM89 34h1v1h-1zM0 35h1v1H0zM1 35h1v1H1zM2 35h1v1H2z"/><path fill="#625A2E" d="M3 35h1v1H3z"/><path fill="#EEEC64" d="M4 35h1v1H4z"/><path fill="#EFD25B" d="M5 35h1v1H5z"/><path fill="#F08341" d="M6 35h1v1H6zM7 35h1v1H7z"/><path fill="#EC6A3A" d="M8 35h1v1H8z"/><path fill="#DF2023" d="M9 35h1v1H9zM10 35h1v1h-1zM11 35h1v1h-1zM12 35h1v1h-1zM13 35h1v1h-1zM14 35h1v1h-1zM15 35h1v1h-1zM16 35h1v1h-1zM17 35h1v1h-1zM18 35h1v1h-1z"/><path fill="#F08341" d="M19 35h1v1h-1zM20 35h1v1h-1zM21 35h1v1h-1z"/><path fill="#EEEC64" d="M22 35h1v1h-1zM23 35h1v1h-1zM24 35h1v1h-1zM25 35h1v1h-1zM26 35h1v1h-1zM27 35h1v1h-1zM28 35h1v1h-1zM29 35h1v1h-1zM30 35h1v1h-1z"/><path fill="#D5D25A" d="M31 35h1v1h-1z"/><path fill="#BBB750" d="M32 35h1v1h-1z"/><path fill="#C8C455" d="M33 35h1v1h-1z"/><path fill="#EEEC64" d="M34 35h1v1h-1zM35 35h1v1h-1zM36 35h1v1h-1zM37 35h1v1h-1z"/><path fill="#EFAA4E" d="M38 35h1v1h-1z"/><path fill="#F08341" d="M39 35h1v1h-1zM40 35h1v1h-1zM41 35h1v1h-1z"/><path fill="#E85232" d="M42 35h1v1h-1z"/><path fill="#DF2023" d="M43 35h1v1h-1zM44 35h1v1h-1zM45 35h1v1h-1z"/><path fill="#E64B30" d="M46 35h1v1h-1z"/><path fill="#EF7D3F" d="M47 35h1v1h-1z"/><path fill="#F08341" d="M48 35h1v1h-1zM49 35h1v1h-1z"/><path fill="#F09045" d="M50 35h1v1h-1z"/><path fill="#EEE562" d="M51 35h1v1h-1z"/><path fill="#EEEC64" d="M52 35h1v1h-1zM53 35h1v1h-1z"/><path fill="#D5D25A" d="M54 35h1v1h-1z"/><path fill="#231815" d="M55 35h1v1h-1zM56 35h1v1h-1zM57 35h1v1h-1z"/><path fill="#C8C455" d="M58 35h1v1h-1z"/><path fill="#EEEC64" d="M59 35h1v1h-1zM60 35h1v1h-1zM61 35h1v1h-1zM62 35h1v1h-1zM63 35h1v1h-1zM64 35h1v1h-1zM65 35h1v1h-1zM66 35h1v1h-1zM67 35h1v1h-1zM68 35h1v1h-1zM69 35h1v1h-1z"/><path fill="#BBB750" d="M70 35h1v1h-1z"/><path fill="#494024" d="M71 35h1v1h-1z"/><path fill="#231815" d="M72 35h1v1h-1zM73 35h1v1h-1zM74 35h1v1h-1zM75 35h1v1h-1zM76 35h1v1h-1zM77 35h1v1h-1zM82 35h1v1h-1zM83 35h1v1h-1zM84 35h1v1h-1z"/><path fill="#89823D" d="M85 35h1v1h-1zM86 35h1v1h-1z"/><path fill="#231815" d="M87 35h1v1h-1zM88 35h1v1h-1zM89 35h1v1h-1zM0 36h1v1H0zM1 36h1v1H1zM2 36h1v1H2z"/><path fill="#564D29" d="M3 36h1v1H3z"/><path fill="#EEEC64" d="M4 36h1v1H4z"/><path fill="#EEE562" d="M5 36h1v1H5z"/><path fill="#F08341" d="M6 36h1v1H6zM7 36h1v1H7zM8 36h1v1H8z"/><path fill="#E02625" d="M9 36h1v1H9z"/><path fill="#DF2023" d="M10 36h1v1h-1zM11 36h1v1h-1zM12 36h1v1h-1zM13 36h1v1h-1zM14 36h1v1h-1zM15 36h1v1h-1zM16 36h1v1h-1zM17 36h1v1h-1z"/><path fill="#E23329" d="M18 36h1v1h-1z"/><path fill="#F08341" d="M19 36h1v1h-1zM20 36h1v1h-1z"/><path fill="#F08A43" d="M21 36h1v1h-1z"/><path fill="#EEEC64" d="M22 36h1v1h-1zM23 36h1v1h-1zM24 36h1v1h-1zM25 36h1v1h-1zM26 36h1v1h-1zM27 36h1v1h-1zM28 36h1v1h-1zM29 36h1v1h-1zM30 36h1v1h-1zM31 36h1v1h-1zM32 36h1v1h-1zM33 36h1v1h-1zM34 36h1v1h-1zM35 36h1v1h-1zM36 36h1v1h-1z"/><path fill="#EFD25B" d="M37 36h1v1h-1z"/><path fill="#F08341" d="M38 36h1v1h-1zM39 36h1v1h-1zM40 36h1v1h-1z"/><path fill="#E85232" d="M41 36h1v1h-1z"/><path fill="#DF2023" d="M42 36h1v1h-1zM43 36h1v1h-1zM44 36h1v1h-1zM45 36h1v1h-1zM46 36h1v1h-1z"/><path fill="#E3392B" d="M47 36h1v1h-1z"/><path fill="#F08341" d="M48 36h1v1h-1zM49 36h1v1h-1zM50 36h1v1h-1z"/><path fill="#EFB853" d="M51 36h1v1h-1z"/><path fill="#EEEC64" d="M52 36h1v1h-1zM53 36h1v1h-1zM54 36h1v1h-1z"/><path fill="#625A2E" d="M55 36h1v1h-1z"/><path fill="#231815" d="M56 36h1v1h-1zM57 36h1v1h-1z"/><path fill="#89823D" d="M58 36h1v1h-1z"/><path fill="#EEEC64" d="M59 36h1v1h-1zM60 36h1v1h-1zM61 36h1v1h-1zM62 36h1v1h-1zM63 36h1v1h-1zM64 36h1v1h-1zM65 36h1v1h-1zM66 36h1v1h-1zM67 36h1v1h-1z"/><path fill="#D5D25A" d="M68 36h1v1h-1z"/><path fill="#625A2E" d="M69 36h1v1h-1z"/><path fill="#231815" d="M70 36h1v1h-1zM71 36h1v1h-1zM72 36h1v1h-1zM73 36h1v1h-1zM74 36h1v1h-1zM75 36h1v1h-1zM82 36h1v1h-1zM83 36h1v1h-1zM84 36h1v1h-1z"/><path fill="#A29D46" d="M85 36h1v1h-1z"/><path fill="#89823D" d="M86 36h1v1h-1z"/><path fill="#231815" d="M87 36h1v1h-1zM88 36h1v1h-1zM89 36h1v1h-1zM0 37h1v1H0zM1 37h1v1H1zM2 37h1v1H2zM3 37h1v1H3z"/><path fill="#EEEC64" d="M4 37h1v1H4zM5 37h1v1H5z"/><path fill="#F09748" d="M6 37h1v1H6z"/><path fill="#F08341" d="M7 37h1v1H7zM8 37h1v1H8z"/><path fill="#E5452E" d="M9 37h1v1H9z"/><path fill="#DF2023" d="M10 37h1v1h-1zM11 37h1v1h-1zM12 37h1v1h-1zM13 37h1v1h-1zM14 37h1v1h-1zM15 37h1v1h-1zM16 37h1v1h-1zM17 37h1v1h-1z"/><path fill="#E95834" d="M18 37h1v1h-1z"/><path fill="#F08341" d="M19 37h1v1h-1zM20 37h1v1h-1z"/><path fill="#EFA44C" d="M21 37h1v1h-1z"/><path fill="#EEEC64" d="M22 37h1v1h-1zM23 37h1v1h-1zM24 37h1v1h-1zM25 37h1v1h-1zM26 37h1v1h-1zM27 37h1v1h-1zM28 37h1v1h-1zM29 37h1v1h-1zM30 37h1v1h-1zM31 37h1v1h-1zM32 37h1v1h-1zM33 37h1v1h-1zM34 37h1v1h-1zM35 37h1v1h-1zM36 37h1v1h-1z"/><path fill="#EFAA4E" d="M37 37h1v1h-1z"/><path fill="#F08341" d="M38 37h1v1h-1zM39 37h1v1h-1z"/><path fill="#EC6A3A" d="M40 37h1v1h-1z"/><path fill="#DF2023" d="M41 37h1v1h-1zM42 37h1v1h-1zM43 37h1v1h-1zM44 37h1v1h-1zM45 37h1v1h-1zM46 37h1v1h-1zM47 37h1v1h-1z"/><path fill="#E85232" d="M48 37h1v1h-1z"/><path fill="#F08341" d="M49 37h1v1h-1zM50 37h1v1h-1z"/><path fill="#F08A43" d="M51 37h1v1h-1z"/><path fill="#EEE562" d="M52 37h1v1h-1z"/><path fill="#EEEC64" d="M53 37h1v1h-1zM54 37h1v1h-1z"/><path fill="#A29D46" d="M55 37h1v1h-1z"/><path fill="#231815" d="M56 37h1v1h-1zM57 37h1v1h-1z"/><path fill="#494024" d="M58 37h1v1h-1z"/><path fill="#EEEC64" d="M59 37h1v1h-1zM60 37h1v1h-1zM61 37h1v1h-1zM62 37h1v1h-1zM63 37h1v1h-1zM64 37h1v1h-1zM65 37h1v1h-1z"/><path fill="#E1DF5F" d="M66 37h1v1h-1z"/><path fill="#89823D" d="M67 37h1v1h-1z"/><path fill="#30251A" d="M68 37h1v1h-1z"/><path fill="#231815" d="M69 37h1v1h-1zM70 37h1v1h-1zM71 37h1v1h-1zM72 37h1v1h-1zM73 37h1v1h-1zM74 37h1v1h-1zM82 37h1v1h-1zM83 37h1v1h-1zM84 37h1v1h-1z"/><path fill="#BBB750" d="M85 37h1v1h-1z"/><path fill="#6F6833" d="M86 37h1v1h-1z"/><path fill="#231815" d="M87 37h1v1h-1zM88 37h1v1h-1zM89 37h1v1h-1zM1 38h1v1H1zM2 38h1v1H2zM3 38h1v1H3z"/><path fill="#BBB750" d="M4 38h1v1H4z"/><path fill="#EEEC64" d="M5 38h1v1H5z"/><path fill="#EFB853" d="M6 38h1v1H6z"/><path fill="#F08341" d="M7 38h1v1H7zM8 38h1v1H8z"/><path fill="#EE773D" d="M9 38h1v1H9z"/><path fill="#DF2023" d="M10 38h1v1h-1zM11 38h1v1h-1zM12 38h1v1h-1zM13 38h1v1h-1zM14 38h1v1h-1zM15 38h1v1h-1zM16 38h1v1h-1zM17 38h1v1h-1z"/><path fill="#EE773D" d="M18 38h1v1h-1z"/><path fill="#F08341" d="M19 38h1v1h-1zM20 38h1v1h-1z"/><path fill="#EFC557" d="M21 38h1v1h-1z"/><path fill="#EEEC64" d="M22 38h1v1h-1zM23 38h1v1h-1zM24 38h1v1h-1zM25 38h1v1h-1zM26 38h1v1h-1zM27 38h1v1h-1zM28 38h1v1h-1zM29 38h1v1h-1zM30 38h1v1h-1zM31 38h1v1h-1zM32 38h1v1h-1zM33 38h1v1h-1zM34 38h1v1h-1zM35 38h1v1h-1zM36 38h1v1h-1z"/><path fill="#F08341" d="M37 38h1v1h-1zM38 38h1v1h-1zM39 38h1v1h-1z"/><path fill="#E3392B" d="M40 38h1v1h-1z"/><path fill="#DF2023" d="M41 38h1v1h-1zM42 38h1v1h-1zM43 38h1v1h-1zM44 38h1v1h-1zM45 38h1v1h-1zM46 38h1v1h-1zM47 38h1v1h-1z"/><path fill="#E02625" d="M48 38h1v1h-1z"/><path fill="#EF7D3F" d="M49 38h1v1h-1z"/><path fill="#F08341" d="M50 38h1v1h-1zM51 38h1v1h-1z"/><path fill="#EFC557" d="M52 38h1v1h-1z"/><path fill="#EEEC64" d="M53 38h1v1h-1zM54 38h1v1h-1z"/><path fill="#D5D25A" d="M55 38h1v1h-1z"/><path fill="#231815" d="M56 38h1v1h-1zM57 38h1v1h-1zM58 38h1v1h-1z"/><path fill="#EEEC64" d="M59 38h1v1h-1zM60 38h1v1h-1zM61 38h1v1h-1zM62 38h1v1h-1zM63 38h1v1h-1zM64 38h1v1h-1z"/><path fill="#AFAA4B" d="M65 38h1v1h-1z"/><path fill="#3C331F" d="M66 38h1v1h-1z"/><path fill="#231815" d="M67 38h1v1h-1zM68 38h1v1h-1zM69 38h1v1h-1zM70 38h1v1h-1zM71 38h1v1h-1zM72 38h1v1h-1zM82 38h1v1h-1zM83 38h1v1h-1zM84 38h1v1h-1z"/><path fill="#BBB750" d="M85 38h1v1h-1z"/><path fill="#3C331F" d="M86 38h1v1h-1z"/><path fill="#231815" d="M87 38h1v1h-1zM88 38h1v1h-1zM89 38h1v1h-1zM1 39h1v1H1zM2 39h1v1H2zM3 39h1v1H3z"/><path fill="#89823D" d="M4 39h1v1H4z"/><path fill="#EEEC64" d="M5 39h1v1H5z"/><path fill="#EEDF60" d="M6 39h1v1H6z"/><path fill="#F08341" d="M7 39h1v1H7zM8 39h1v1H8zM9 39h1v1H9z"/><path fill="#E85232" d="M10 39h1v1h-1z"/><path fill="#DF2023" d="M11 39h1v1h-1zM12 39h1v1h-1zM13 39h1v1h-1zM14 39h1v1h-1zM15 39h1v1h-1zM16 39h1v1h-1z"/><path fill="#E64B30" d="M17 39h1v1h-1z"/><path fill="#F08341" d="M18 39h1v1h-1zM19 39h1v1h-1z"/><path fill="#F08A43" d="M20 39h1v1h-1z"/><path fill="#EEE562" d="M21 39h1v1h-1z"/><path fill="#EEEC64" d="M22 39h1v1h-1z"/><path fill="#E1DF5F" d="M23 39h1v1h-1z"/><path fill="#6F6833" d="M24 39h1v1h-1z"/><path fill="#564D29" d="M25 39h1v1h-1zM26 39h1v1h-1z"/><path fill="#7C7538" d="M27 39h1v1h-1z"/><path fill="#BBB750" d="M28 39h1v1h-1z"/><path fill="#EEEC64" d="M29 39h1v1h-1zM30 39h1v1h-1zM31 39h1v1h-1zM32 39h1v1h-1zM33 39h1v1h-1zM34 39h1v1h-1zM35 39h1v1h-1z"/><path fill="#EFD25B" d="M36 39h1v1h-1z"/><path fill="#F08341" d="M37 39h1v1h-1zM38 39h1v1h-1z"/><path fill="#EE773D" d="M39 39h1v1h-1z"/><path fill="#DF2023" d="M40 39h1v1h-1zM41 39h1v1h-1zM42 39h1v1h-1zM43 39h1v1h-1zM44 39h1v1h-1zM45 39h1v1h-1zM46 39h1v1h-1zM47 39h1v1h-1zM48 39h1v1h-1z"/><path fill="#E85232" d="M49 39h1v1h-1z"/><path fill="#F08341" d="M50 39h1v1h-1zM51 39h1v1h-1z"/><path fill="#EFA44C" d="M52 39h1v1h-1z"/><path fill="#EEEC64" d="M53 39h1v1h-1zM54 39h1v1h-1zM55 39h1v1h-1z"/><path fill="#3C331F" d="M56 39h1v1h-1z"/><path fill="#231815" d="M57 39h1v1h-1zM58 39h1v1h-1z"/><path fill="#BBB750" d="M59 39h1v1h-1z"/><path fill="#EEEC64" d="M60 39h1v1h-1zM61 39h1v1h-1zM62 39h1v1h-1z"/><path fill="#C8C455" d="M63 39h1v1h-1z"/><path fill="#564D29" d="M64 39h1v1h-1z"/><path fill="#231815" d="M65 39h1v1h-1zM66 39h1v1h-1zM67 39h1v1h-1zM68 39h1v1h-1zM69 39h1v1h-1zM70 39h1v1h-1zM82 39h1v1h-1zM83 39h1v1h-1zM84 39h1v1h-1z"/><path fill="#625A2E" d="M85 39h1v1h-1z"/><path fill="#231815" d="M86 39h1v1h-1zM87 39h1v1h-1zM88 39h1v1h-1zM89 39h1v1h-1zM1 40h1v1H1zM2 40h1v1H2zM3 40h1v1H3z"/><path fill="#494024" d="M4 40h1v1H4z"/><path fill="#EEEC64" d="M5 40h1v1H5zM6 40h1v1H6z"/><path fill="#EFB150" d="M7 40h1v1H7z"/><path fill="#F08341" d="M8 40h1v1H8zM9 40h1v1H9zM10 40h1v1h-1z"/><path fill="#E5452E" d="M11 40h1v1h-1z"/><path fill="#DF2023" d="M12 40h1v1h-1zM13 40h1v1h-1zM14 40h1v1h-1zM15 40h1v1h-1z"/><path fill="#E23329" d="M16 40h1v1h-1z"/><path fill="#EF7D3F" d="M17 40h1v1h-1z"/><path fill="#F08341" d="M18 40h1v1h-1zM19 40h1v1h-1z"/><path fill="#EFB150" d="M20 40h1v1h-1z"/><path fill="#EEEC64" d="M21 40h1v1h-1zM22 40h1v1h-1z"/><path fill="#625A2E" d="M23 40h1v1h-1z"/><path fill="#231815" d="M24 40h1v1h-1zM25 40h1v1h-1zM26 40h1v1h-1zM27 40h1v1h-1zM28 40h1v1h-1z"/><path fill="#564D29" d="M29 40h1v1h-1z"/><path fill="#D5D25A" d="M30 40h1v1h-1z"/><path fill="#EEEC64" d="M31 40h1v1h-1zM32 40h1v1h-1zM33 40h1v1h-1zM34 40h1v1h-1zM35 40h1v1h-1z"/><path fill="#EFB853" d="M36 40h1v1h-1z"/><path fill="#F08341" d="M37 40h1v1h-1zM38 40h1v1h-1z"/><path fill="#EA5E36" d="M39 40h1v1h-1z"/><path fill="#DF2023" d="M40 40h1v1h-1zM41 40h1v1h-1zM42 40h1v1h-1zM43 40h1v1h-1zM44 40h1v1h-1zM45 40h1v1h-1zM46 40h1v1h-1zM47 40h1v1h-1zM48 40h1v1h-1z"/><path fill="#E12C27" d="M49 40h1v1h-1z"/><path fill="#F08341" d="M50 40h1v1h-1zM51 40h1v1h-1zM52 40h1v1h-1z"/><path fill="#EEEC64" d="M53 40h1v1h-1zM54 40h1v1h-1zM55 40h1v1h-1z"/><path fill="#625A2E" d="M56 40h1v1h-1z"/><path fill="#231815" d="M57 40h1v1h-1zM58 40h1v1h-1z"/><path fill="#A29D46" d="M59 40h1v1h-1z"/><path fill="#EEEC64" d="M60 40h1v1h-1z"/><path fill="#E1DF5F" d="M61 40h1v1h-1z"/><path fill="#7C7538" d="M62 40h1v1h-1z"/><path fill="#231815" d="M63 40h1v1h-1zM64 40h1v1h-1zM65 40h1v1h-1zM66 40h1v1h-1zM67 40h1v1h-1zM68 40h1v1h-1zM69 40h1v1h-1zM82 40h1v1h-1zM83 40h1v1h-1zM84 40h1v1h-1zM85 40h1v1h-1zM86 40h1v1h-1zM87 40h1v1h-1zM88 40h1v1h-1zM1 41h1v1H1zM2 41h1v1H2zM3 41h1v1H3zM4 41h1v1H4z"/><path fill="#D5D25A" d="M5 41h1v1H5z"/><path fill="#EEEC64" d="M6 41h1v1H6z"/><path fill="#EEE562" d="M7 41h1v1H7z"/><path fill="#F09045" d="M8 41h1v1H8z"/><path fill="#F08341" d="M9 41h1v1H9zM10 41h1v1h-1zM11 41h1v1h-1z"/><path fill="#E85232" d="M12 41h1v1h-1z"/><path fill="#E02625" d="M13 41h1v1h-1z"/><path fill="#DF2023" d="M14 41h1v1h-1z"/><path fill="#E64B30" d="M15 41h1v1h-1z"/><path fill="#EF7D3F" d="M16 41h1v1h-1z"/><path fill="#F08341" d="M17 41h1v1h-1zM18 41h1v1h-1z"/><path fill="#F08A43" d="M19 41h1v1h-1z"/><path fill="#EEE562" d="M20 41h1v1h-1z"/><path fill="#EEEC64" d="M21 41h1v1h-1zM22 41h1v1h-1z"/><path fill="#231815" d="M23 41h1v1h-1zM24 41h1v1h-1zM25 41h1v1h-1zM26 41h1v1h-1zM27 41h1v1h-1zM28 41h1v1h-1zM29 41h1v1h-1z"/><path fill="#30251A" d="M30 41h1v1h-1z"/><path fill="#A29D46" d="M31 41h1v1h-1z"/><path fill="#EEEC64" d="M32 41h1v1h-1zM33 41h1v1h-1zM34 41h1v1h-1zM35 41h1v1h-1z"/><path fill="#EFA44C" d="M36 41h1v1h-1z"/><path fill="#F08341" d="M37 41h1v1h-1zM38 41h1v1h-1z"/><path fill="#E5452E" d="M39 41h1v1h-1z"/><path fill="#DF2023" d="M40 41h1v1h-1zM41 41h1v1h-1zM42 41h1v1h-1zM43 41h1v1h-1zM44 41h1v1h-1zM45 41h1v1h-1zM46 41h1v1h-1zM47 41h1v1h-1zM48 41h1v1h-1zM49 41h1v1h-1z"/><path fill="#EE773D" d="M50 41h1v1h-1z"/><path fill="#F08341" d="M51 41h1v1h-1zM52 41h1v1h-1z"/><path fill="#EED85D" d="M53 41h1v1h-1z"/><path fill="#EEEC64" d="M54 41h1v1h-1zM55 41h1v1h-1z"/><path fill="#89823D" d="M56 41h1v1h-1z"/><path fill="#231815" d="M57 41h1v1h-1zM58 41h1v1h-1z"/><path fill="#89823D" d="M59 41h1v1h-1z"/><path fill="#A29D46" d="M60 41h1v1h-1z"/><path fill="#30251A" d="M61 41h1v1h-1z"/><path fill="#231815" d="M62 41h1v1h-1zM63 41h1v1h-1zM64 41h1v1h-1zM65 41h1v1h-1zM66 41h1v1h-1zM67 41h1v1h-1zM82 41h1v1h-1zM83 41h1v1h-1zM84 41h1v1h-1zM85 41h1v1h-1zM86 41h1v1h-1zM87 41h1v1h-1zM88 41h1v1h-1zM2 42h1v1H2zM3 42h1v1H3zM4 42h1v1H4z"/><path fill="#6F6833" d="M5 42h1v1H5z"/><path fill="#EEEC64" d="M6 42h1v1H6zM7 42h1v1H7z"/><path fill="#EED85D" d="M8 42h1v1H8z"/><path fill="#F08A43" d="M9 42h1v1H9z"/><path fill="#F08341" d="M10 42h1v1h-1zM11 42h1v1h-1zM12 42h1v1h-1zM13 42h1v1h-1zM14 42h1v1h-1zM15 42h1v1h-1zM16 42h1v1h-1zM17 42h1v1h-1zM18 42h1v1h-1z"/><path fill="#EED85D" d="M19 42h1v1h-1z"/><path fill="#EEEC64" d="M20 42h1v1h-1zM21 42h1v1h-1z"/><path fill="#BBB750" d="M22 42h1v1h-1z"/><path fill="#231815" d="M23 42h1v1h-1zM24 42h1v1h-1zM25 42h1v1h-1zM26 42h1v1h-1zM27 42h1v1h-1zM28 42h1v1h-1zM29 42h1v1h-1zM30 42h1v1h-1zM31 42h1v1h-1z"/><path fill="#A29D46" d="M32 42h1v1h-1z"/><path fill="#EEEC64" d="M33 42h1v1h-1zM34 42h1v1h-1zM35 42h1v1h-1z"/><path fill="#F09D4A" d="M36 42h1v1h-1z"/><path fill="#F08341" d="M37 42h1v1h-1zM38 42h1v1h-1z"/><path fill="#E3392B" d="M39 42h1v1h-1z"/><path fill="#DF2023" d="M40 42h1v1h-1zM41 42h1v1h-1zM42 42h1v1h-1zM43 42h1v1h-1zM44 42h1v1h-1zM45 42h1v1h-1zM46 42h1v1h-1zM47 42h1v1h-1zM48 42h1v1h-1zM49 42h1v1h-1z"/><path fill="#EC6A3A" d="M50 42h1v1h-1z"/><path fill="#F08341" d="M51 42h1v1h-1zM52 42h1v1h-1z"/><path fill="#EFD25B" d="M53 42h1v1h-1z"/><path fill="#EEEC64" d="M54 42h1v1h-1zM55 42h1v1h-1z"/><path fill="#89823D" d="M56 42h1v1h-1z"/><path fill="#231815" d="M57 42h1v1h-1zM58 42h1v1h-1zM59 42h1v1h-1zM60 42h1v1h-1zM61 42h1v1h-1zM62 42h1v1h-1zM63 42h1v1h-1zM64 42h1v1h-1zM65 42h1v1h-1zM83 42h1v1h-1zM84 42h1v1h-1zM85 42h1v1h-1zM86 42h1v1h-1zM87 42h1v1h-1zM2 43h1v1H2zM3 43h1v1H3zM4 43h1v1H4z"/><path fill="#30251A" d="M5 43h1v1H5z"/><path fill="#E1DF5F" d="M6 43h1v1H6z"/><path fill="#EEEC64" d="M7 43h1v1H7zM8 43h1v1H8z"/><path fill="#EED85D" d="M9 43h1v1H9z"/><path fill="#F09045" d="M10 43h1v1h-1z"/><path fill="#F08341" d="M11 43h1v1h-1zM12 43h1v1h-1zM13 43h1v1h-1zM14 43h1v1h-1zM15 43h1v1h-1zM16 43h1v1h-1z"/><path fill="#F08A43" d="M17 43h1v1h-1z"/><path fill="#EFD25B" d="M18 43h1v1h-1z"/><path fill="#EEEC64" d="M19 43h1v1h-1zM20 43h1v1h-1zM21 43h1v1h-1z"/><path fill="#7C7538" d="M22 43h1v1h-1z"/><path fill="#231815" d="M23 43h1v1h-1zM24 43h1v1h-1zM25 43h1v1h-1zM28 43h1v1h-1zM29 43h1v1h-1zM30 43h1v1h-1zM31 43h1v1h-1z"/><path fill="#30251A" d="M32 43h1v1h-1z"/><path fill="#E1DF5F" d="M33 43h1v1h-1z"/><path fill="#EEEC64" d="M34 43h1v1h-1zM35 43h1v1h-1z"/><path fill="#F09D4A" d="M36 43h1v1h-1z"/><path fill="#F08341" d="M37 43h1v1h-1zM38 43h1v1h-1z"/><path fill="#E3392B" d="M39 43h1v1h-1z"/><path fill="#DF2023" d="M40 43h1v1h-1zM41 43h1v1h-1zM42 43h1v1h-1zM43 43h1v1h-1zM44 43h1v1h-1zM45 43h1v1h-1zM46 43h1v1h-1zM47 43h1v1h-1zM48 43h1v1h-1zM49 43h1v1h-1z"/><path fill="#E95834" d="M50 43h1v1h-1z"/><path fill="#F08341" d="M51 43h1v1h-1zM52 43h1v1h-1z"/><path fill="#EFB853" d="M53 43h1v1h-1z"/><path fill="#EEEC64" d="M54 43h1v1h-1zM55 43h1v1h-1z"/><path fill="#AFAA4B" d="M56 43h1v1h-1z"/><path fill="#231815" d="M57 43h1v1h-1zM58 43h1v1h-1zM59 43h1v1h-1zM60 43h1v1h-1zM61 43h1v1h-1zM62 43h1v1h-1zM63 43h1v1h-1zM3 44h1v1H3zM4 44h1v1H4zM5 44h1v1H5z"/><path fill="#6F6833" d="M6 44h1v1H6z"/><path fill="#EEEC64" d="M7 44h1v1H7zM8 44h1v1H8zM9 44h1v1H9z"/><path fill="#EEE562" d="M10 44h1v1h-1z"/><path fill="#EFBE55" d="M11 44h1v1h-1z"/><path fill="#F09748" d="M12 44h1v1h-1z"/><path fill="#F08341" d="M13 44h1v1h-1zM14 44h1v1h-1z"/><path fill="#F09045" d="M15 44h1v1h-1z"/><path fill="#EFB853" d="M16 44h1v1h-1z"/><path fill="#EEE562" d="M17 44h1v1h-1z"/><path fill="#EEEC64" d="M18 44h1v1h-1zM19 44h1v1h-1zM20 44h1v1h-1zM21 44h1v1h-1z"/><path fill="#30251A" d="M22 44h1v1h-1z"/><path fill="#231815" d="M23 44h1v1h-1zM24 44h1v1h-1zM25 44h1v1h-1zM29 44h1v1h-1zM30 44h1v1h-1zM31 44h1v1h-1zM32 44h1v1h-1z"/><path fill="#958F41" d="M33 44h1v1h-1z"/><path fill="#EEEC64" d="M34 44h1v1h-1zM35 44h1v1h-1z"/><path fill="#F09D4A" d="M36 44h1v1h-1z"/><path fill="#F08341" d="M37 44h1v1h-1zM38 44h1v1h-1z"/><path fill="#E3392B" d="M39 44h1v1h-1z"/><path fill="#DF2023" d="M40 44h1v1h-1zM41 44h1v1h-1zM42 44h1v1h-1zM43 44h1v1h-1zM44 44h1v1h-1zM45 44h1v1h-1zM46 44h1v1h-1zM47 44h1v1h-1zM48 44h1v1h-1zM49 44h1v1h-1z"/><path fill="#E85232" d="M50 44h1v1h-1z"/><path fill="#F08341" d="M51 44h1v1h-1zM52 44h1v1h-1z"/><path fill="#EFB853" d="M53 44h1v1h-1z"/><path fill="#EEEC64" d="M54 44h1v1h-1zM55 44h1v1h-1z"/><path fill="#BBB750" d="M56 44h1v1h-1z"/><path fill="#231815" d="M57 44h1v1h-1zM58 44h1v1h-1zM59 44h1v1h-1zM60 44h1v1h-1zM61 44h1v1h-1zM62 44h1v1h-1zM3 45h1v1H3zM4 45h1v1H4zM5 45h1v1H5zM6 45h1v1H6z"/><path fill="#BBB750" d="M7 45h1v1H7z"/><path fill="#EEEC64" d="M8 45h1v1H8zM9 45h1v1H9zM10 45h1v1h-1zM11 45h1v1h-1zM12 45h1v1h-1zM13 45h1v1h-1zM14 45h1v1h-1zM15 45h1v1h-1zM16 45h1v1h-1zM17 45h1v1h-1zM18 45h1v1h-1zM19 45h1v1h-1zM20 45h1v1h-1z"/><path fill="#958F41" d="M21 45h1v1h-1z"/><path fill="#231815" d="M22 45h1v1h-1zM23 45h1v1h-1zM24 45h1v1h-1zM30 45h1v1h-1zM31 45h1v1h-1zM32 45h1v1h-1z"/><path fill="#89823D" d="M33 45h1v1h-1z"/><path fill="#EEEC64" d="M34 45h1v1h-1zM35 45h1v1h-1z"/><path fill="#F09D4A" d="M36 45h1v1h-1z"/><path fill="#F08341" d="M37 45h1v1h-1zM38 45h1v1h-1z"/><path fill="#E3392B" d="M39 45h1v1h-1z"/><path fill="#DF2023" d="M40 45h1v1h-1zM41 45h1v1h-1zM42 45h1v1h-1zM43 45h1v1h-1zM44 45h1v1h-1zM45 45h1v1h-1zM46 45h1v1h-1zM47 45h1v1h-1zM48 45h1v1h-1zM49 45h1v1h-1z"/><path fill="#E85232" d="M50 45h1v1h-1z"/><path fill="#F08341" d="M51 45h1v1h-1zM52 45h1v1h-1z"/><path fill="#EFB853" d="M53 45h1v1h-1z"/><path fill="#EEEC64" d="M54 45h1v1h-1zM55 45h1v1h-1z"/><path fill="#AFAA4B" d="M56 45h1v1h-1z"/><path fill="#231815" d="M57 45h1v1h-1zM58 45h1v1h-1zM59 45h1v1h-1zM60 45h1v1h-1zM4 46h1v1H4zM5 46h1v1H5zM6 46h1v1H6z"/><path fill="#6F6833" d="M7 46h1v1H7z"/><path fill="#EEEC64" d="M8 46h1v1H8zM9 46h1v1H9zM10 46h1v1h-1zM11 46h1v1h-1zM12 46h1v1h-1zM13 46h1v1h-1zM14 46h1v1h-1zM15 46h1v1h-1zM16 46h1v1h-1zM17 46h1v1h-1zM18 46h1v1h-1zM19 46h1v1h-1z"/><path fill="#E1DF5F" d="M20 46h1v1h-1z"/><path fill="#30251A" d="M21 46h1v1h-1z"/><path fill="#231815" d="M22 46h1v1h-1zM23 46h1v1h-1zM24 46h1v1h-1zM30 46h1v1h-1zM31 46h1v1h-1zM32 46h1v1h-1z"/><path fill="#564D29" d="M33 46h1v1h-1z"/><path fill="#EEEC64" d="M34 46h1v1h-1zM35 46h1v1h-1z"/><path fill="#EFAA4E" d="M36 46h1v1h-1z"/><path fill="#F08341" d="M37 46h1v1h-1zM38 46h1v1h-1z"/><path fill="#E64B30" d="M39 46h1v1h-1z"/><path fill="#DF2023" d="M40 46h1v1h-1zM41 46h1v1h-1zM42 46h1v1h-1zM43 46h1v1h-1zM44 46h1v1h-1zM45 46h1v1h-1zM46 46h1v1h-1zM47 46h1v1h-1zM48 46h1v1h-1zM49 46h1v1h-1z"/><path fill="#EA5E36" d="M50 46h1v1h-1z"/><path fill="#F08341" d="M51 46h1v1h-1zM52 46h1v1h-1z"/><path fill="#EFC557" d="M53 46h1v1h-1z"/><path fill="#EEEC64" d="M54 46h1v1h-1zM55 46h1v1h-1z"/><path fill="#89823D" d="M56 46h1v1h-1z"/><path fill="#231815" d="M57 46h1v1h-1zM58 46h1v1h-1zM59 46h1v1h-1zM4 47h1v1H4zM5 47h1v1H5zM6 47h1v1H6z"/><path fill="#563922" d="M7 47h1v1H7z"/><path fill="#EED85D" d="M8 47h1v1H8z"/><path fill="#EEEC64" d="M9 47h1v1H9zM10 47h1v1h-1zM11 47h1v1h-1zM12 47h1v1h-1zM13 47h1v1h-1zM14 47h1v1h-1zM15 47h1v1h-1zM16 47h1v1h-1zM17 47h1v1h-1zM18 47h1v1h-1z"/><path fill="#E1DF5F" d="M19 47h1v1h-1z"/><path fill="#494024" d="M20 47h1v1h-1z"/><path fill="#231815" d="M21 47h1v1h-1zM22 47h1v1h-1zM23 47h1v1h-1zM24 47h1v1h-1zM30 47h1v1h-1zM31 47h1v1h-1zM32 47h1v1h-1z"/><path fill="#494024" d="M33 47h1v1h-1z"/><path fill="#EEEC64" d="M34 47h1v1h-1zM35 47h1v1h-1z"/><path fill="#EFB853" d="M36 47h1v1h-1z"/><path fill="#F08341" d="M37 47h1v1h-1zM38 47h1v1h-1z"/><path fill="#EA5E36" d="M39 47h1v1h-1z"/><path fill="#DF2023" d="M40 47h1v1h-1zM41 47h1v1h-1zM42 47h1v1h-1zM43 47h1v1h-1zM44 47h1v1h-1zM45 47h1v1h-1zM46 47h1v1h-1zM47 47h1v1h-1zM48 47h1v1h-1zM49 47h1v1h-1z"/><path fill="#EC6A3A" d="M50 47h1v1h-1z"/><path fill="#F08341" d="M51 47h1v1h-1zM52 47h1v1h-1z"/><path fill="#EFD25B" d="M53 47h1v1h-1z"/><path fill="#EEEC64" d="M54 47h1v1h-1zM55 47h1v1h-1z"/><path fill="#89823D" d="M56 47h1v1h-1z"/><path fill="#231815" d="M57 47h1v1h-1zM58 47h1v1h-1zM59 47h1v1h-1zM4 48h1v1H4zM5 48h1v1H5zM6 48h1v1H6z"/><path fill="#301F18" d="M7 48h1v1H7z"/><path fill="#231815" d="M8 48h1v1H8z"/><path fill="#3C331F" d="M9 48h1v1H9z"/><path fill="#C8C455" d="M10 48h1v1h-1z"/><path fill="#EEEC64" d="M11 48h1v1h-1zM12 48h1v1h-1zM13 48h1v1h-1zM14 48h1v1h-1zM15 48h1v1h-1zM16 48h1v1h-1zM17 48h1v1h-1zM18 48h1v1h-1z"/><path fill="#6F6833" d="M19 48h1v1h-1z"/><path fill="#231815" d="M20 48h1v1h-1zM21 48h1v1h-1zM22 48h1v1h-1zM23 48h1v1h-1zM31 48h1v1h-1zM32 48h1v1h-1zM33 48h1v1h-1z"/><path fill="#E1DF5F" d="M34 48h1v1h-1z"/><path fill="#EEEC64" d="M35 48h1v1h-1z"/><path fill="#EFD25B" d="M36 48h1v1h-1z"/><path fill="#F08341" d="M37 48h1v1h-1zM38 48h1v1h-1z"/><path fill="#EE773D" d="M39 48h1v1h-1z"/><path fill="#DF2023" d="M40 48h1v1h-1zM41 48h1v1h-1zM42 48h1v1h-1zM43 48h1v1h-1zM44 48h1v1h-1zM45 48h1v1h-1zM46 48h1v1h-1zM47 48h1v1h-1zM48 48h1v1h-1z"/><path fill="#E02625" d="M49 48h1v1h-1z"/><path fill="#F08341" d="M50 48h1v1h-1zM51 48h1v1h-1zM52 48h1v1h-1z"/><path fill="#EEE562" d="M53 48h1v1h-1z"/><path fill="#EEEC64" d="M54 48h1v1h-1zM55 48h1v1h-1z"/><path fill="#625A2E" d="M56 48h1v1h-1z"/><path fill="#231815" d="M57 48h1v1h-1zM58 48h1v1h-1zM59 48h1v1h-1zM4 49h1v1H4zM5 49h1v1H5zM6 49h1v1H6zM7 49h1v1H7zM8 49h1v1H8zM9 49h1v1H9zM10 49h1v1h-1z"/><path fill="#6F6833" d="M11 49h1v1h-1z"/><path fill="#BBB750" d="M12 49h1v1h-1z"/><path fill="#EEEC64" d="M13 49h1v1h-1zM14 49h1v1h-1z"/><path fill="#E1DF5F" d="M15 49h1v1h-1z"/><path fill="#BBB750" d="M16 49h1v1h-1zM17 49h1v1h-1z"/><path fill="#EFB853" d="M18 49h1v1h-1z"/><path fill="#3D2C1D" d="M19 49h1v1h-1z"/><path fill="#231815" d="M20 49h1v1h-1zM21 49h1v1h-1zM22 49h1v1h-1zM31 49h1v1h-1zM32 49h1v1h-1zM33 49h1v1h-1z"/><path fill="#AFAA4B" d="M34 49h1v1h-1z"/><path fill="#EEEC64" d="M35 49h1v1h-1zM36 49h1v1h-1z"/><path fill="#F08A43" d="M37 49h1v1h-1z"/><path fill="#F08341" d="M38 49h1v1h-1zM39 49h1v1h-1z"/><path fill="#E43F2C" d="M40 49h1v1h-1z"/><path fill="#DF2023" d="M41 49h1v1h-1zM42 49h1v1h-1zM43 49h1v1h-1zM44 49h1v1h-1zM45 49h1v1h-1zM46 49h1v1h-1zM47 49h1v1h-1zM48 49h1v1h-1z"/><path fill="#E5452E" d="M49 49h1v1h-1z"/><path fill="#F08341" d="M50 49h1v1h-1zM51 49h1v1h-1z"/><path fill="#F09045" d="M52 49h1v1h-1z"/><path fill="#EEEC64" d="M53 49h1v1h-1zM54 49h1v1h-1zM55 49h1v1h-1z"/><path fill="#3C331F" d="M56 49h1v1h-1z"/><path fill="#231815" d="M57 49h1v1h-1zM58 49h1v1h-1zM59 49h1v1h-1zM5 50h1v1H5zM6 50h1v1H6zM7 50h1v1H7zM8 50h1v1H8zM9 50h1v1H9zM10 50h1v1h-1zM11 50h1v1h-1zM12 50h1v1h-1zM13 50h1v1h-1zM14 50h1v1h-1zM15 50h1v1h-1zM16 50h1v1h-1zM17 50h1v1h-1z"/><path fill="#7D4728" d="M18 50h1v1h-1z"/><path fill="#231815" d="M19 50h1v1h-1zM20 50h1v1h-1zM21 50h1v1h-1zM31 50h1v1h-1zM32 50h1v1h-1zM33 50h1v1h-1z"/><path fill="#6F6833" d="M34 50h1v1h-1z"/><path fill="#EEEC64" d="M35 50h1v1h-1zM36 50h1v1h-1z"/><path fill="#EFAA4E" d="M37 50h1v1h-1z"/><path fill="#F08341" d="M38 50h1v1h-1zM39 50h1v1h-1z"/><path fill="#EC6A3A" d="M40 50h1v1h-1z"/><path fill="#DF2023" d="M41 50h1v1h-1zM42 50h1v1h-1zM43 50h1v1h-1zM44 50h1v1h-1zM45 50h1v1h-1zM46 50h1v1h-1zM47 50h1v1h-1zM48 50h1v1h-1z"/><path fill="#EC6A3A" d="M49 50h1v1h-1z"/><path fill="#F08341" d="M50 50h1v1h-1zM51 50h1v1h-1z"/><path fill="#EFB150" d="M52 50h1v1h-1z"/><path fill="#EEEC64" d="M53 50h1v1h-1zM54 50h1v1h-1z"/><path fill="#D5D25A" d="M55 50h1v1h-1z"/><path fill="#231815" d="M56 50h1v1h-1zM57 50h1v1h-1zM58 50h1v1h-1zM5 51h1v1H5zM6 51h1v1H6zM7 51h1v1H7zM8 51h1v1H8zM9 51h1v1H9zM10 51h1v1h-1zM11 51h1v1h-1zM12 51h1v1h-1zM13 51h1v1h-1zM14 51h1v1h-1zM15 51h1v1h-1zM16 51h1v1h-1zM17 51h1v1h-1zM18 51h1v1h-1zM19 51h1v1h-1zM20 51h1v1h-1zM21 51h1v1h-1zM31 51h1v1h-1zM32 51h1v1h-1zM33 51h1v1h-1z"/><path fill="#30251A" d="M34 51h1v1h-1z"/><path fill="#E1DF5F" d="M35 51h1v1h-1z"/><path fill="#EEEC64" d="M36 51h1v1h-1z"/><path fill="#EED85D" d="M37 51h1v1h-1z"/><path fill="#F08341" d="M38 51h1v1h-1zM39 51h1v1h-1zM40 51h1v1h-1z"/><path fill="#E64B30" d="M41 51h1v1h-1z"/><path fill="#DF2023" d="M42 51h1v1h-1zM43 51h1v1h-1zM44 51h1v1h-1zM45 51h1v1h-1zM46 51h1v1h-1zM47 51h1v1h-1z"/><path fill="#E43F2C" d="M48 51h1v1h-1z"/><path fill="#F08341" d="M49 51h1v1h-1zM50 51h1v1h-1zM51 51h1v1h-1z"/><path fill="#EED85D" d="M52 51h1v1h-1z"/><path fill="#EEEC64" d="M53 51h1v1h-1zM54 51h1v1h-1z"/><path fill="#A29D46" d="M55 51h1v1h-1z"/><path fill="#231815" d="M56 51h1v1h-1zM57 51h1v1h-1zM58 51h1v1h-1zM6 52h1v1H6zM7 52h1v1H7zM8 52h1v1H8zM10 52h1v1h-1zM11 52h1v1h-1zM12 52h1v1h-1zM13 52h1v1h-1zM14 52h1v1h-1zM15 52h1v1h-1zM16 52h1v1h-1zM17 52h1v1h-1zM18 52h1v1h-1zM19 52h1v1h-1zM20 52h1v1h-1zM21 52h1v1h-1zM32 52h1v1h-1zM33 52h1v1h-1zM34 52h1v1h-1z"/><path fill="#A29D46" d="M35 52h1v1h-1z"/><path fill="#EEEC64" d="M36 52h1v1h-1zM37 52h1v1h-1z"/><path fill="#EFA44C" d="M38 52h1v1h-1z"/><path fill="#F08341" d="M39 52h1v1h-1zM40 52h1v1h-1z"/><path fill="#EF7D3F" d="M41 52h1v1h-1z"/><path fill="#E23329" d="M42 52h1v1h-1z"/><path fill="#DF2023" d="M43 52h1v1h-1zM44 52h1v1h-1zM45 52h1v1h-1zM46 52h1v1h-1z"/><path fill="#E23329" d="M47 52h1v1h-1z"/><path fill="#EF7D3F" d="M48 52h1v1h-1z"/><path fill="#F08341" d="M49 52h1v1h-1zM50 52h1v1h-1z"/><path fill="#F09D4A" d="M51 52h1v1h-1z"/><path fill="#EEEC64" d="M52 52h1v1h-1zM53 52h1v1h-1zM54 52h1v1h-1z"/><path fill="#625A2E" d="M55 52h1v1h-1z"/><path fill="#231815" d="M56 52h1v1h-1zM57 52h1v1h-1zM58 52h1v1h-1zM16 53h1v1h-1zM17 53h1v1h-1zM18 53h1v1h-1zM19 53h1v1h-1zM20 53h1v1h-1zM21 53h1v1h-1zM32 53h1v1h-1zM33 53h1v1h-1zM34 53h1v1h-1z"/><path fill="#3C331F" d="M35 53h1v1h-1z"/><path fill="#EEEC64" d="M36 53h1v1h-1zM37 53h1v1h-1z"/><path fill="#EEE562" d="M38 53h1v1h-1z"/><path fill="#F08A43" d="M39 53h1v1h-1z"/><path fill="#F08341" d="M40 53h1v1h-1zM41 53h1v1h-1zM42 53h1v1h-1z"/><path fill="#E85232" d="M43 53h1v1h-1z"/><path fill="#E02625" d="M44 53h1v1h-1z"/><path fill="#DF2023" d="M45 53h1v1h-1z"/><path fill="#E5452E" d="M46 53h1v1h-1z"/><path fill="#EF7D3F" d="M47 53h1v1h-1z"/><path fill="#F08341" d="M48 53h1v1h-1zM49 53h1v1h-1z"/><path fill="#F08A43" d="M50 53h1v1h-1z"/><path fill="#EEDF60" d="M51 53h1v1h-1z"/><path fill="#EEEC64" d="M52 53h1v1h-1zM53 53h1v1h-1z"/><path fill="#D5D25A" d="M54 53h1v1h-1z"/><path fill="#231815" d="M55 53h1v1h-1zM56 53h1v1h-1zM57 53h1v1h-1zM58 53h1v1h-1zM16 54h1v1h-1zM17 54h1v1h-1zM18 54h1v1h-1zM19 54h1v1h-1zM20 54h1v1h-1zM32 54h1v1h-1zM33 54h1v1h-1zM34 54h1v1h-1zM35 54h1v1h-1z"/><path fill="#958F41" d="M36 54h1v1h-1z"/><path fill="#EEEC64" d="M37 54h1v1h-1zM38 54h1v1h-1z"/><path fill="#EED85D" d="M39 54h1v1h-1z"/><path fill="#F08A43" d="M40 54h1v1h-1z"/><path fill="#F08341" d="M41 54h1v1h-1zM42 54h1v1h-1zM43 54h1v1h-1zM44 54h1v1h-1zM45 54h1v1h-1zM46 54h1v1h-1zM47 54h1v1h-1zM48 54h1v1h-1zM49 54h1v1h-1z"/><path fill="#EFC557" d="M50 54h1v1h-1z"/><path fill="#EEEC64" d="M51 54h1v1h-1zM52 54h1v1h-1zM53 54h1v1h-1z"/><path fill="#6F6833" d="M54 54h1v1h-1z"/><path fill="#231815" d="M55 54h1v1h-1zM56 54h1v1h-1zM57 54h1v1h-1zM17 55h1v1h-1zM18 55h1v1h-1zM19 55h1v1h-1zM20 55h1v1h-1zM33 55h1v1h-1zM34 55h1v1h-1zM35 55h1v1h-1z"/><path fill="#30251A" d="M36 55h1v1h-1z"/><path fill="#EEEC64" d="M37 55h1v1h-1zM38 55h1v1h-1zM39 55h1v1h-1z"/><path fill="#EED85D" d="M40 55h1v1h-1z"/><path fill="#F09045" d="M41 55h1v1h-1z"/><path fill="#F08341" d="M42 55h1v1h-1zM43 55h1v1h-1zM44 55h1v1h-1zM45 55h1v1h-1zM46 55h1v1h-1zM47 55h1v1h-1z"/><path fill="#F08A43" d="M48 55h1v1h-1z"/><path fill="#EFCB59" d="M49 55h1v1h-1z"/><path fill="#EEEC64" d="M50 55h1v1h-1zM51 55h1v1h-1zM52 55h1v1h-1z"/><path fill="#D5D25A" d="M53 55h1v1h-1z"/><path fill="#231815" d="M54 55h1v1h-1zM55 55h1v1h-1zM56 55h1v1h-1zM57 55h1v1h-1zM33 56h1v1h-1zM34 56h1v1h-1zM35 56h1v1h-1zM36 56h1v1h-1z"/><path fill="#EEEC64" d="M37 56h1v1h-1zM38 56h1v1h-1zM39 56h1v1h-1zM40 56h1v1h-1z"/><path fill="#EEE562" d="M41 56h1v1h-1z"/><path fill="#EFBE55" d="M42 56h1v1h-1z"/><path fill="#F09748" d="M43 56h1v1h-1z"/><path fill="#F08341" d="M44 56h1v1h-1zM45 56h1v1h-1z"/><path fill="#F09748" d="M46 56h1v1h-1z"/><path fill="#EFB853" d="M47 56h1v1h-1z"/><path fill="#EEE562" d="M48 56h1v1h-1z"/><path fill="#EEEC64" d="M49 56h1v1h-1zM50 56h1v1h-1zM51 56h1v1h-1zM52 56h1v1h-1z"/><path fill="#564D29" d="M53 56h1v1h-1z"/><path fill="#231815" d="M54 56h1v1h-1zM55 56h1v1h-1zM56 56h1v1h-1zM33 57h1v1h-1zM34 57h1v1h-1zM35 57h1v1h-1z"/><path fill="#49331F" d="M36 57h1v1h-1z"/><path fill="#EEE562" d="M37 57h1v1h-1z"/><path fill="#EEEC64" d="M38 57h1v1h-1zM39 57h1v1h-1zM40 57h1v1h-1zM41 57h1v1h-1zM42 57h1v1h-1zM43 57h1v1h-1zM44 57h1v1h-1zM45 57h1v1h-1zM46 57h1v1h-1zM47 57h1v1h-1zM48 57h1v1h-1zM49 57h1v1h-1zM50 57h1v1h-1zM51 57h1v1h-1z"/><path fill="#7C7538" d="M52 57h1v1h-1z"/><path fill="#231815" d="M53 57h1v1h-1zM54 57h1v1h-1zM55 57h1v1h-1zM56 57h1v1h-1zM33 58h1v1h-1zM34 58h1v1h-1zM35 58h1v1h-1z"/><path fill="#563320" d="M36 58h1v1h-1z"/><path fill="#C9833F" d="M37 58h1v1h-1z"/><path fill="#6F6833" d="M38 58h1v1h-1z"/><path fill="#958F41" d="M39 58h1v1h-1z"/><path fill="#EEEC64" d="M40 58h1v1h-1zM41 58h1v1h-1zM42 58h1v1h-1zM43 58h1v1h-1zM44 58h1v1h-1zM45 58h1v1h-1zM46 58h1v1h-1zM47 58h1v1h-1zM48 58h1v1h-1zM49 58h1v1h-1zM50 58h1v1h-1z"/><path fill="#A29D46" d="M51 58h1v1h-1z"/><path fill="#231815" d="M52 58h1v1h-1zM53 58h1v1h-1zM54 58h1v1h-1zM55 58h1v1h-1zM33 59h1v1h-1zM34 59h1v1h-1zM35 59h1v1h-1z"/><path fill="#563320" d="M36 59h1v1h-1z"/><path fill="#3D251B" d="M37 59h1v1h-1z"/><path fill="#231815" d="M38 59h1v1h-1zM39 59h1v1h-1z"/><path fill="#625A2E" d="M40 59h1v1h-1z"/><path fill="#E1DF5F" d="M41 59h1v1h-1z"/><path fill="#EEEC64" d="M42 59h1v1h-1zM43 59h1v1h-1zM44 59h1v1h-1zM45 59h1v1h-1zM46 59h1v1h-1zM47 59h1v1h-1zM48 59h1v1h-1z"/><path fill="#E1DF5F" d="M49 59h1v1h-1z"/><path fill="#6F6833" d="M50 59h1v1h-1z"/><path fill="#231815" d="M51 59h1v1h-1zM52 59h1v1h-1zM53 59h1v1h-1zM54 59h1v1h-1zM55 59h1v1h-1zM33 60h1v1h-1zM34 60h1v1h-1zM35 60h1v1h-1zM36 60h1v1h-1zM37 60h1v1h-1zM38 60h1v1h-1zM39 60h1v1h-1zM40 60h1v1h-1z"/><path fill="#30251A" d="M41 60h1v1h-1z"/><path fill="#89823D" d="M42 60h1v1h-1z"/><path fill="#D5D25A" d="M43 60h1v1h-1z"/><path fill="#EEEC64" d="M44 60h1v1h-1zM45 60h1v1h-1zM46 60h1v1h-1zM47 60h1v1h-1zM48 60h1v1h-1z"/><path fill="#494024" d="M49 60h1v1h-1z"/><path fill="#231815" d="M50 60h1v1h-1zM51 60h1v1h-1zM52 60h1v1h-1zM53 60h1v1h-1zM54 60h1v1h-1zM33 61h1v1h-1zM34 61h1v1h-1zM35 61h1v1h-1zM36 61h1v1h-1zM37 61h1v1h-1zM38 61h1v1h-1zM39 61h1v1h-1zM40 61h1v1h-1zM41 61h1v1h-1zM42 61h1v1h-1zM43 61h1v1h-1z"/><path fill="#3C331F" d="M44 61h1v1h-1z"/><path fill="#564D29" d="M45 61h1v1h-1zM46 61h1v1h-1z"/><path fill="#A29644" d="M47 61h1v1h-1z"/><path fill="#D5BE54" d="M48 61h1v1h-1z"/><path fill="#231815" d="M49 61h1v1h-1zM50 61h1v1h-1zM51 61h1v1h-1zM52 61h1v1h-1zM53 61h1v1h-1zM33 62h1v1h-1zM34 62h1v1h-1zM35 62h1v1h-1zM36 62h1v1h-1zM37 62h1v1h-1zM38 62h1v1h-1zM39 62h1v1h-1zM40 62h1v1h-1zM41 62h1v1h-1zM42 62h1v1h-1zM43 62h1v1h-1zM44 62h1v1h-1zM45 62h1v1h-1zM46 62h1v1h-1z"/><path fill="#3D251B" d="M47 62h1v1h-1z"/><path fill="#BD6836" d="M48 62h1v1h-1z"/><path fill="#231815" d="M49 62h1v1h-1zM50 62h1v1h-1zM51 62h1v1h-1zM34 63h1v1h-1zM35 63h1v1h-1zM36 63h1v1h-1zM37 63h1v1h-1zM38 63h1v1h-1zM40 63h1v1h-1zM41 63h1v1h-1zM42 63h1v1h-1zM43 63h1v1h-1zM44 63h1v1h-1zM45 63h1v1h-1zM46 63h1v1h-1zM47 63h1v1h-1z"/><path fill="#704026" d="M48 63h1v1h-1z"/><path fill="#231815" d="M49 63h1v1h-1zM50 63h1v1h-1zM51 63h1v1h-1zM34 64h1v1h-1zM35 64h1v1h-1zM36 64h1v1h-1zM37 64h1v1h-1zM44 64h1v1h-1zM45 64h1v1h-1zM46 64h1v1h-1zM47 64h1v1h-1zM48 64h1v1h-1zM49 64h1v1h-1zM50 64h1v1h-1zM51 64h1v1h-1zM45 65h1v1h-1zM46 65h1v1h-1zM47 65h1v1h-1zM48 65h1v1h-1zM49 65h1v1h-1zM50 65h1v1h-1zM51 65h1v1h-1zM46 66h1v1h-1zM47 66h1v1h-1zM48 66h1v1h-1zM49 66h1v1h-1zM50 66h1v1h-1zM46 67h1v1h-1zM47 67h1v1h-1zM48 67h1v1h-1zM49 67h1v1h-1zM50 67h1v1h-1zM47 68h1v1h-1zM48 68h1v1h-1zM49 68h1v1h-1zM50 68h1v1h-1z"/></svg>