<svg baseProfile="full" height="62" width="90" xmlns="http://www.w3.org/2000/svg"><path fill="#231815" d="M52 0h1v1h-1zM53 0h1v1h-1zM54 0h1v1h-1zM55 0h1v1h-1zM56 0h1v1h-1zM57 0h1v1h-1zM58 0h1v1h-1zM59 0h1v1h-1zM60 0h1v1h-1zM61 0h1v1h-1zM62 0h1v1h-1zM63 0h1v1h-1zM64 0h1v1h-1zM65 0h1v1h-1zM66 0h1v1h-1zM67 0h1v1h-1zM68 0h1v1h-1zM47 1h1v1h-1zM48 1h1v1h-1zM49 1h1v1h-1zM50 1h1v1h-1zM51 1h1v1h-1zM52 1h1v1h-1zM53 1h1v1h-1zM54 1h1v1h-1zM55 1h1v1h-1zM56 1h1v1h-1zM57 1h1v1h-1zM58 1h1v1h-1zM59 1h1v1h-1zM60 1h1v1h-1zM61 1h1v1h-1zM62 1h1v1h-1zM63 1h1v1h-1zM64 1h1v1h-1zM65 1h1v1h-1zM66 1h1v1h-1zM67 1h1v1h-1zM68 1h1v1h-1zM69 1h1v1h-1zM70 1h1v1h-1zM71 1h1v1h-1zM72 1h1v1h-1zM73 1h1v1h-1zM43 2h1v1h-1zM44 2h1v1h-1zM45 2h1v1h-1zM46 2h1v1h-1zM47 2h1v1h-1zM48 2h1v1h-1zM49 2h1v1h-1zM50 2h1v1h-1zM51 2h1v1h-1zM52 2h1v1h-1zM53 2h1v1h-1zM54 2h1v1h-1zM55 2h1v1h-1zM56 2h1v1h-1zM57 2h1v1h-1zM58 2h1v1h-1zM59 2h1v1h-1zM60 2h1v1h-1zM61 2h1v1h-1zM62 2h1v1h-1zM63 2h1v1h-1zM64 2h1v1h-1zM65 2h1v1h-1zM66 2h1v1h-1zM67 2h1v1h-1zM68 2h1v1h-1zM69 2h1v1h-1zM70 2h1v1h-1zM71 2h1v1h-1zM72 2h1v1h-1zM73 2h1v1h-1zM74 2h1v1h-1zM75 2h1v1h-1zM76 2h1v1h-1zM77 2h1v1h-1zM40 3h1v1h-1zM41 3h1v1h-1zM42 3h1v1h-1zM43 3h1v1h-1zM44 3h1v1h-1zM45 3h1v1h-1zM46 3h1v1h-1zM47 3h1v1h-1zM48 3h1v1h-1zM49 3h1v1h-1zM50 3h1v1h-1zM51 3h1v1h-1zM52 3h1v1h-1z"/><path fill="#464945" d="M53 3h1v1h-1zM54 3h1v1h-1z"/><path fill="#6A7A75" d="M55 3h1v1h-1z"/><path fill="#6B7A73" d="M56 3h1v1h-1z"/><path fill="#777E67" d="M57 3h1v1h-1z"/><path fill="#A1B08F" d="M58 3h1v1h-1zM59 3h1v1h-1zM60 3h1v1h-1zM61 3h1v1h-1zM62 3h1v1h-1z"/><path fill="#8C977B" d="M63 3h1v1h-1z"/><path fill="#777E67" d="M64 3h1v1h-1zM65 3h1v1h-1z"/><path fill="#626452" d="M66 3h1v1h-1z"/><path fill="#4D4B3E" d="M67 3h1v1h-1z"/><path fill="#383129" d="M68 3h1v1h-1z"/><path fill="#231815" d="M69 3h1v1h-1zM70 3h1v1h-1zM71 3h1v1h-1zM72 3h1v1h-1zM73 3h1v1h-1zM74 3h1v1h-1zM75 3h1v1h-1zM76 3h1v1h-1zM77 3h1v1h-1zM78 3h1v1h-1zM79 3h1v1h-1zM80 3h1v1h-1zM38 4h1v1h-1zM39 4h1v1h-1zM40 4h1v1h-1zM41 4h1v1h-1zM42 4h1v1h-1zM43 4h1v1h-1zM44 4h1v1h-1zM45 4h1v1h-1zM46 4h1v1h-1zM47 4h1v1h-1z"/><path fill="#46494C" d="M48 4h1v1h-1z"/><path fill="#697A80" d="M49 4h1v1h-1z"/><path fill="#839FA0" d="M50 4h1v1h-1z"/><path fill="#9EC4BD" d="M51 4h1v1h-1z"/><path fill="#B0DCD5" d="M52 4h1v1h-1zM53 4h1v1h-1zM54 4h1v1h-1z"/><path fill="#B5DDD0" d="M55 4h1v1h-1z"/><path fill="#C9E3BA" d="M56 4h1v1h-1z"/><path fill="#CBE3B8" d="M57 4h1v1h-1zM58 4h1v1h-1zM59 4h1v1h-1zM60 4h1v1h-1zM61 4h1v1h-1zM62 4h1v1h-1zM63 4h1v1h-1zM64 4h1v1h-1zM65 4h1v1h-1z"/><path fill="#D4E6B3" d="M66 4h1v1h-1z"/><path fill="#E2ECAA" d="M67 4h1v1h-1z"/><path fill="#EDF0A4" d="M68 4h1v1h-1zM69 4h1v1h-1z"/><path fill="#BBBA80" d="M70 4h1v1h-1z"/><path fill="#959265" d="M71 4h1v1h-1z"/><path fill="#6F694B" d="M72 4h1v1h-1z"/><path fill="#3C3327" d="M73 4h1v1h-1z"/><path fill="#231815" d="M74 4h1v1h-1zM75 4h1v1h-1zM76 4h1v1h-1zM77 4h1v1h-1zM78 4h1v1h-1zM79 4h1v1h-1zM80 4h1v1h-1zM81 4h1v1h-1zM82 4h1v1h-1zM83 4h1v1h-1zM36 5h1v1h-1zM37 5h1v1h-1zM38 5h1v1h-1zM39 5h1v1h-1zM40 5h1v1h-1zM41 5h1v1h-1zM42 5h1v1h-1zM43 5h1v1h-1z"/><path fill="#343130" d="M44 5h1v1h-1z"/><path fill="#606E74" d="M45 5h1v1h-1z"/><path fill="#8BACB9" d="M46 5h1v1h-1z"/><path fill="#AEDDEC" d="M47 5h1v1h-1z"/><path fill="#AFDCDF" d="M48 5h1v1h-1z"/><path fill="#B0DCD5" d="M49 5h1v1h-1zM50 5h1v1h-1zM51 5h1v1h-1zM52 5h1v1h-1zM53 5h1v1h-1z"/><path fill="#B5DDD0" d="M54 5h1v1h-1z"/><path fill="#C9E3BA" d="M55 5h1v1h-1z"/><path fill="#CBE3B8" d="M56 5h1v1h-1zM57 5h1v1h-1zM58 5h1v1h-1zM59 5h1v1h-1zM60 5h1v1h-1zM61 5h1v1h-1zM62 5h1v1h-1zM63 5h1v1h-1z"/><path fill="#CDE4B7" d="M64 5h1v1h-1z"/><path fill="#E0EBAC" d="M65 5h1v1h-1z"/><path fill="#EDF0A4" d="M66 5h1v1h-1zM67 5h1v1h-1zM68 5h1v1h-1zM69 5h1v1h-1zM70 5h1v1h-1zM71 5h1v1h-1zM72 5h1v1h-1zM73 5h1v1h-1z"/><path fill="#D4D592" d="M74 5h1v1h-1z"/><path fill="#A19F6E" d="M75 5h1v1h-1z"/><path fill="#625C42" d="M76 5h1v1h-1z"/><path fill="#231815" d="M77 5h1v1h-1zM78 5h1v1h-1zM79 5h1v1h-1zM80 5h1v1h-1zM81 5h1v1h-1zM82 5h1v1h-1zM83 5h1v1h-1zM84 5h1v1h-1zM85 5h1v1h-1zM34 6h1v1h-1zM35 6h1v1h-1zM36 6h1v1h-1zM37 6h1v1h-1zM38 6h1v1h-1zM39 6h1v1h-1zM40 6h1v1h-1z"/><path fill="#343130" d="M41 6h1v1h-1z"/><path fill="#606E74" d="M42 6h1v1h-1z"/><path fill="#94B8C6" d="M43 6h1v1h-1z"/><path fill="#AEDDEF" d="M44 6h1v1h-1z"/><path fill="#AFDDE9" d="M45 6h1v1h-1z"/><path fill="#B0DCDC" d="M46 6h1v1h-1z"/><path fill="#B0DCD5" d="M47 6h1v1h-1zM48 6h1v1h-1zM49 6h1v1h-1zM50 6h1v1h-1zM51 6h1v1h-1zM52 6h1v1h-1z"/><path fill="#B5DDD0" d="M53 6h1v1h-1z"/><path fill="#C9E3BA" d="M54 6h1v1h-1z"/><path fill="#CBE3B8" d="M55 6h1v1h-1zM56 6h1v1h-1zM57 6h1v1h-1zM58 6h1v1h-1zM59 6h1v1h-1zM60 6h1v1h-1zM61 6h1v1h-1zM62 6h1v1h-1zM63 6h1v1h-1z"/><path fill="#E2ECAA" d="M64 6h1v1h-1z"/><path fill="#EDF0A4" d="M65 6h1v1h-1zM66 6h1v1h-1zM67 6h1v1h-1zM68 6h1v1h-1zM69 6h1v1h-1zM70 6h1v1h-1zM71 6h1v1h-1zM72 6h1v1h-1zM73 6h1v1h-1zM74 6h1v1h-1zM75 6h1v1h-1zM76 6h1v1h-1zM77 6h1v1h-1z"/><path fill="#A19F6E" d="M78 6h1v1h-1z"/><path fill="#625C42" d="M79 6h1v1h-1z"/><path fill="#231815" d="M80 6h1v1h-1zM81 6h1v1h-1zM82 6h1v1h-1zM83 6h1v1h-1zM84 6h1v1h-1zM85 6h1v1h-1zM86 6h1v1h-1zM87 6h1v1h-1zM32 7h1v1h-1zM33 7h1v1h-1zM34 7h1v1h-1zM35 7h1v1h-1zM36 7h1v1h-1zM37 7h1v1h-1zM38 7h1v1h-1z"/><path fill="#576267" d="M39 7h1v1h-1z"/><path fill="#8BACB9" d="M40 7h1v1h-1z"/><path fill="#AEDDEF" d="M41 7h1v1h-1zM42 7h1v1h-1z"/><path fill="#A8DBEF" d="M43 7h1v1h-1z"/><path fill="#A5DAEA" d="M44 7h1v1h-1z"/><path fill="#AFDCD7" d="M45 7h1v1h-1z"/><path fill="#B0DCD5" d="M46 7h1v1h-1zM47 7h1v1h-1zM48 7h1v1h-1zM49 7h1v1h-1zM50 7h1v1h-1zM51 7h1v1h-1z"/><path fill="#B2DCD3" d="M52 7h1v1h-1z"/><path fill="#C8E2BC" d="M53 7h1v1h-1z"/><path fill="#CBE3B8" d="M54 7h1v1h-1zM55 7h1v1h-1zM56 7h1v1h-1zM57 7h1v1h-1zM58 7h1v1h-1zM59 7h1v1h-1zM60 7h1v1h-1zM61 7h1v1h-1zM62 7h1v1h-1z"/><path fill="#D6E7B2" d="M63 7h1v1h-1z"/><path fill="#EDF0A4" d="M64 7h1v1h-1zM65 7h1v1h-1zM66 7h1v1h-1zM67 7h1v1h-1zM68 7h1v1h-1zM69 7h1v1h-1zM70 7h1v1h-1zM71 7h1v1h-1zM72 7h1v1h-1zM73 7h1v1h-1zM74 7h1v1h-1zM75 7h1v1h-1zM76 7h1v1h-1zM77 7h1v1h-1zM78 7h1v1h-1zM79 7h1v1h-1z"/><path fill="#E0E39B" d="M80 7h1v1h-1z"/><path fill="#959265" d="M81 7h1v1h-1z"/><path fill="#3C3327" d="M82 7h1v1h-1z"/><path fill="#231815" d="M83 7h1v1h-1zM84 7h1v1h-1zM85 7h1v1h-1zM86 7h1v1h-1zM87 7h1v1h-1zM88 7h1v1h-1zM30 8h1v1h-1zM31 8h1v1h-1zM32 8h1v1h-1zM33 8h1v1h-1zM34 8h1v1h-1zM35 8h1v1h-1z"/><path fill="#2C2423" d="M36 8h1v1h-1z"/><path fill="#697B82" d="M37 8h1v1h-1z"/><path fill="#9DC4D4" d="M38 8h1v1h-1z"/><path fill="#AEDDEF" d="M39 8h1v1h-1zM40 8h1v1h-1z"/><path fill="#A8DBEF" d="M41 8h1v1h-1z"/><path fill="#A1D9EE" d="M42 8h1v1h-1z"/><path fill="#9FD8EE" d="M43 8h1v1h-1z"/><path fill="#ADDBDA" d="M44 8h1v1h-1z"/><path fill="#B0DCD5" d="M45 8h1v1h-1zM46 8h1v1h-1zM47 8h1v1h-1zM48 8h1v1h-1zM49 8h1v1h-1zM50 8h1v1h-1zM51 8h1v1h-1z"/><path fill="#C3E1C1" d="M52 8h1v1h-1z"/><path fill="#CBE3B8" d="M53 8h1v1h-1zM54 8h1v1h-1zM55 8h1v1h-1zM56 8h1v1h-1zM57 8h1v1h-1zM58 8h1v1h-1zM59 8h1v1h-1zM60 8h1v1h-1zM61 8h1v1h-1zM62 8h1v1h-1z"/><path fill="#E2ECAA" d="M63 8h1v1h-1z"/><path fill="#EDF0A4" d="M64 8h1v1h-1zM65 8h1v1h-1zM66 8h1v1h-1zM67 8h1v1h-1zM68 8h1v1h-1zM69 8h1v1h-1zM70 8h1v1h-1zM71 8h1v1h-1zM72 8h1v1h-1zM73 8h1v1h-1zM74 8h1v1h-1zM75 8h1v1h-1zM76 8h1v1h-1zM77 8h1v1h-1zM78 8h1v1h-1zM79 8h1v1h-1zM80 8h1v1h-1zM81 8h1v1h-1zM82 8h1v1h-1z"/><path fill="#AEAD77" d="M83 8h1v1h-1z"/><path fill="#564E39" d="M84 8h1v1h-1z"/><path fill="#231815" d="M85 8h1v1h-1zM86 8h1v1h-1zM87 8h1v1h-1zM88 8h1v1h-1zM89 8h1v1h-1zM28 9h1v1h-1zM29 9h1v1h-1zM30 9h1v1h-1zM31 9h1v1h-1zM32 9h1v1h-1zM33 9h1v1h-1z"/><path fill="#2C2423" d="M34 9h1v1h-1z"/><path fill="#697B82" d="M35 9h1v1h-1z"/><path fill="#A5D1E1" d="M36 9h1v1h-1z"/><path fill="#AEDDEF" d="M37 9h1v1h-1zM38 9h1v1h-1z"/><path fill="#AADCEF" d="M39 9h1v1h-1z"/><path fill="#A1D9EE" d="M40 9h1v1h-1z"/><path fill="#9FD8EE" d="M41 9h1v1h-1zM42 9h1v1h-1z"/><path fill="#A8DAE2" d="M43 9h1v1h-1z"/><path fill="#B0DCD5" d="M44 9h1v1h-1zM45 9h1v1h-1zM46 9h1v1h-1zM47 9h1v1h-1zM48 9h1v1h-1zM49 9h1v1h-1zM50 9h1v1h-1z"/><path fill="#B8DECC" d="M51 9h1v1h-1z"/><path fill="#CBE3B8" d="M52 9h1v1h-1zM53 9h1v1h-1zM54 9h1v1h-1zM55 9h1v1h-1zM56 9h1v1h-1zM57 9h1v1h-1zM58 9h1v1h-1zM59 9h1v1h-1zM60 9h1v1h-1zM61 9h1v1h-1zM62 9h1v1h-1z"/><path fill="#EDF0A4" d="M63 9h1v1h-1zM64 9h1v1h-1zM65 9h1v1h-1zM66 9h1v1h-1zM67 9h1v1h-1zM68 9h1v1h-1zM69 9h1v1h-1zM70 9h1v1h-1zM71 9h1v1h-1zM72 9h1v1h-1zM73 9h1v1h-1zM74 9h1v1h-1zM75 9h1v1h-1zM76 9h1v1h-1zM77 9h1v1h-1zM78 9h1v1h-1zM79 9h1v1h-1zM80 9h1v1h-1zM81 9h1v1h-1zM82 9h1v1h-1zM83 9h1v1h-1zM84 9h1v1h-1z"/><path fill="#BBBA80" d="M85 9h1v1h-1z"/><path fill="#3C3327" d="M86 9h1v1h-1z"/><path fill="#231815" d="M87 9h1v1h-1zM88 9h1v1h-1zM89 9h1v1h-1zM27 10h1v1h-1zM28 10h1v1h-1zM29 10h1v1h-1zM30 10h1v1h-1zM31 10h1v1h-1zM32 10h1v1h-1z"/><path fill="#606E74" d="M33 10h1v1h-1z"/><path fill="#A5D1E1" d="M34 10h1v1h-1z"/><path fill="#AEDDEF" d="M35 10h1v1h-1zM36 10h1v1h-1z"/><path fill="#AADCEF" d="M37 10h1v1h-1z"/><path fill="#A3D9EE" d="M38 10h1v1h-1z"/><path fill="#9FD8EE" d="M39 10h1v1h-1zM40 10h1v1h-1zM41 10h1v1h-1z"/><path fill="#A1D9EB" d="M42 10h1v1h-1z"/><path fill="#B0DCD5" d="M43 10h1v1h-1zM44 10h1v1h-1zM45 10h1v1h-1zM46 10h1v1h-1zM47 10h1v1h-1zM48 10h1v1h-1zM49 10h1v1h-1z"/><path fill="#B2DCD3" d="M50 10h1v1h-1z"/><path fill="#C8E2BC" d="M51 10h1v1h-1z"/><path fill="#CBE3B8" d="M52 10h1v1h-1zM53 10h1v1h-1zM54 10h1v1h-1zM55 10h1v1h-1zM56 10h1v1h-1zM57 10h1v1h-1zM58 10h1v1h-1zM59 10h1v1h-1zM60 10h1v1h-1zM61 10h1v1h-1z"/><path fill="#D4E6B3" d="M62 10h1v1h-1z"/><path fill="#EDF0A4" d="M63 10h1v1h-1zM64 10h1v1h-1zM65 10h1v1h-1zM66 10h1v1h-1zM67 10h1v1h-1zM68 10h1v1h-1zM69 10h1v1h-1zM70 10h1v1h-1zM71 10h1v1h-1zM72 10h1v1h-1zM73 10h1v1h-1zM74 10h1v1h-1zM75 10h1v1h-1zM76 10h1v1h-1zM77 10h1v1h-1zM78 10h1v1h-1zM79 10h1v1h-1zM80 10h1v1h-1zM81 10h1v1h-1zM82 10h1v1h-1zM83 10h1v1h-1zM84 10h1v1h-1zM85 10h1v1h-1z"/><path fill="#4F626A" d="M86 10h1v1h-1z"/><path fill="#231815" d="M87 10h1v1h-1zM88 10h1v1h-1zM89 10h1v1h-1zM25 11h1v1h-1zM26 11h1v1h-1zM27 11h1v1h-1zM28 11h1v1h-1zM29 11h1v1h-1zM30 11h1v1h-1z"/><path fill="#46494C" d="M31 11h1v1h-1z"/><path fill="#9DC4D4" d="M32 11h1v1h-1z"/><path fill="#AEDDEF" d="M33 11h1v1h-1zM34 11h1v1h-1z"/><path fill="#ACDCEF" d="M35 11h1v1h-1z"/><path fill="#A5DAEE" d="M36 11h1v1h-1z"/><path fill="#9FD8EE" d="M37 11h1v1h-1zM38 11h1v1h-1zM39 11h1v1h-1zM40 11h1v1h-1zM41 11h1v1h-1z"/><path fill="#ACDBDB" d="M42 11h1v1h-1z"/><path fill="#B0DCD5" d="M43 11h1v1h-1zM44 11h1v1h-1zM45 11h1v1h-1zM46 11h1v1h-1zM47 11h1v1h-1zM48 11h1v1h-1zM49 11h1v1h-1z"/><path fill="#BEE0C7" d="M50 11h1v1h-1z"/><path fill="#CBE3B8" d="M51 11h1v1h-1zM52 11h1v1h-1zM53 11h1v1h-1zM54 11h1v1h-1zM55 11h1v1h-1zM56 11h1v1h-1zM57 11h1v1h-1zM58 11h1v1h-1zM59 11h1v1h-1zM60 11h1v1h-1zM61 11h1v1h-1z"/><path fill="#D4E6B3" d="M62 11h1v1h-1z"/><path fill="#EDF0A4" d="M63 11h1v1h-1zM64 11h1v1h-1zM65 11h1v1h-1zM66 11h1v1h-1zM67 11h1v1h-1zM68 11h1v1h-1zM69 11h1v1h-1zM70 11h1v1h-1zM71 11h1v1h-1zM72 11h1v1h-1zM73 11h1v1h-1zM74 11h1v1h-1zM75 11h1v1h-1zM76 11h1v1h-1zM77 11h1v1h-1zM78 11h1v1h-1zM79 11h1v1h-1zM80 11h1v1h-1zM81 11h1v1h-1zM82 11h1v1h-1zM83 11h1v1h-1zM84 11h1v1h-1zM85 11h1v1h-1z"/><path fill="#475D6C" d="M86 11h1v1h-1z"/><path fill="#231815" d="M87 11h1v1h-1zM88 11h1v1h-1zM89 11h1v1h-1zM24 12h1v1h-1zM25 12h1v1h-1zM26 12h1v1h-1zM27 12h1v1h-1zM28 12h1v1h-1z"/><path fill="#343130" d="M29 12h1v1h-1z"/><path fill="#839FAB" d="M30 12h1v1h-1z"/><path fill="#AEDDEF" d="M31 12h1v1h-1zM32 12h1v1h-1zM33 12h1v1h-1z"/><path fill="#A3D8EB" d="M34 12h1v1h-1z"/><path fill="#A0D8EE" d="M35 12h1v1h-1z"/><path fill="#9FD8EE" d="M36 12h1v1h-1zM37 12h1v1h-1zM38 12h1v1h-1zM39 12h1v1h-1zM40 12h1v1h-1z"/><path fill="#A3D9E8" d="M41 12h1v1h-1z"/><path fill="#B0DCD5" d="M42 12h1v1h-1zM43 12h1v1h-1zM44 12h1v1h-1zM45 12h1v1h-1zM46 12h1v1h-1zM47 12h1v1h-1zM48 12h1v1h-1zM49 12h1v1h-1z"/><path fill="#C8E2BC" d="M50 12h1v1h-1z"/><path fill="#CBE3B8" d="M51 12h1v1h-1zM52 12h1v1h-1zM53 12h1v1h-1zM54 12h1v1h-1zM55 12h1v1h-1zM56 12h1v1h-1zM57 12h1v1h-1zM58 12h1v1h-1zM59 12h1v1h-1zM60 12h1v1h-1zM61 12h1v1h-1z"/><path fill="#D4E6B3" d="M62 12h1v1h-1z"/><path fill="#EDF0A4" d="M63 12h1v1h-1zM64 12h1v1h-1zM65 12h1v1h-1zM66 12h1v1h-1zM67 12h1v1h-1zM68 12h1v1h-1zM69 12h1v1h-1zM70 12h1v1h-1zM71 12h1v1h-1zM72 12h1v1h-1zM73 12h1v1h-1zM74 12h1v1h-1zM75 12h1v1h-1zM76 12h1v1h-1zM77 12h1v1h-1zM78 12h1v1h-1zM79 12h1v1h-1zM80 12h1v1h-1zM81 12h1v1h-1zM82 12h1v1h-1zM83 12h1v1h-1zM84 12h1v1h-1z"/><path fill="#DDE6A8" d="M85 12h1v1h-1z"/><path fill="#598098" d="M86 12h1v1h-1z"/><path fill="#231815" d="M87 12h1v1h-1zM88 12h1v1h-1zM89 12h1v1h-1zM22 13h1v1h-1zM23 13h1v1h-1zM24 13h1v1h-1zM25 13h1v1h-1zM26 13h1v1h-1zM27 13h1v1h-1z"/><path fill="#606E74" d="M28 13h1v1h-1z"/><path fill="#A5D1E1" d="M29 13h1v1h-1z"/><path fill="#AEDDEF" d="M30 13h1v1h-1zM31 13h1v1h-1z"/><path fill="#A9DAEC" d="M32 13h1v1h-1z"/><path fill="#97CFE3" d="M33 13h1v1h-1z"/><path fill="#9CD5EB" d="M34 13h1v1h-1z"/><path fill="#9FD8EE" d="M35 13h1v1h-1zM36 13h1v1h-1zM37 13h1v1h-1zM38 13h1v1h-1zM39 13h1v1h-1zM40 13h1v1h-1z"/><path fill="#ACDBDB" d="M41 13h1v1h-1z"/><path fill="#B0DCD5" d="M42 13h1v1h-1zM43 13h1v1h-1zM44 13h1v1h-1zM45 13h1v1h-1zM46 13h1v1h-1zM47 13h1v1h-1zM48 13h1v1h-1z"/><path fill="#BADFCA" d="M49 13h1v1h-1z"/><path fill="#CBE3B8" d="M50 13h1v1h-1zM51 13h1v1h-1zM52 13h1v1h-1zM53 13h1v1h-1zM54 13h1v1h-1zM55 13h1v1h-1zM56 13h1v1h-1zM57 13h1v1h-1zM58 13h1v1h-1zM59 13h1v1h-1zM60 13h1v1h-1zM61 13h1v1h-1z"/><path fill="#D4E6B3" d="M62 13h1v1h-1z"/><path fill="#EDF0A4" d="M63 13h1v1h-1zM64 13h1v1h-1zM65 13h1v1h-1zM66 13h1v1h-1zM67 13h1v1h-1zM68 13h1v1h-1zM69 13h1v1h-1zM70 13h1v1h-1zM71 13h1v1h-1zM72 13h1v1h-1zM73 13h1v1h-1zM74 13h1v1h-1zM75 13h1v1h-1zM76 13h1v1h-1zM77 13h1v1h-1zM78 13h1v1h-1zM79 13h1v1h-1zM80 13h1v1h-1zM81 13h1v1h-1zM82 13h1v1h-1zM83 13h1v1h-1zM84 13h1v1h-1z"/><path fill="#CDDDAC" d="M85 13h1v1h-1z"/><path fill="#598098" d="M86 13h1v1h-1z"/><path fill="#231815" d="M87 13h1v1h-1zM88 13h1v1h-1zM89 13h1v1h-1zM21 14h1v1h-1zM22 14h1v1h-1zM23 14h1v1h-1zM24 14h1v1h-1zM25 14h1v1h-1z"/><path fill="#2C2423" d="M26 14h1v1h-1z"/><path fill="#839FAB" d="M27 14h1v1h-1z"/><path fill="#AEDDEF" d="M28 14h1v1h-1zM29 14h1v1h-1zM30 14h1v1h-1z"/><path fill="#A0D5E8" d="M31 14h1v1h-1z"/><path fill="#92CCE0" d="M32 14h1v1h-1z"/><path fill="#94CEE3" d="M33 14h1v1h-1z"/><path fill="#9FD8EE" d="M34 14h1v1h-1zM35 14h1v1h-1zM36 14h1v1h-1zM37 14h1v1h-1zM38 14h1v1h-1zM39 14h1v1h-1z"/><path fill="#A5DAE5" d="M40 14h1v1h-1z"/><path fill="#B0DCD5" d="M41 14h1v1h-1zM42 14h1v1h-1zM43 14h1v1h-1zM44 14h1v1h-1zM45 14h1v1h-1zM46 14h1v1h-1zM47 14h1v1h-1zM48 14h1v1h-1z"/><path fill="#C3E1C1" d="M49 14h1v1h-1z"/><path fill="#CBE3B8" d="M50 14h1v1h-1zM51 14h1v1h-1zM52 14h1v1h-1zM53 14h1v1h-1zM54 14h1v1h-1zM55 14h1v1h-1zM56 14h1v1h-1zM57 14h1v1h-1zM58 14h1v1h-1zM59 14h1v1h-1zM60 14h1v1h-1zM61 14h1v1h-1z"/><path fill="#CDE4B7" d="M62 14h1v1h-1z"/><path fill="#EDF0A4" d="M63 14h1v1h-1zM64 14h1v1h-1zM65 14h1v1h-1zM66 14h1v1h-1zM67 14h1v1h-1zM68 14h1v1h-1zM69 14h1v1h-1zM70 14h1v1h-1zM71 14h1v1h-1zM72 14h1v1h-1zM73 14h1v1h-1zM74 14h1v1h-1zM75 14h1v1h-1zM76 14h1v1h-1zM77 14h1v1h-1zM78 14h1v1h-1zM79 14h1v1h-1zM80 14h1v1h-1zM81 14h1v1h-1zM82 14h1v1h-1zM83 14h1v1h-1zM84 14h1v1h-1z"/><path fill="#ACC9B4" d="M85 14h1v1h-1z"/><path fill="#598098" d="M86 14h1v1h-1z"/><path fill="#231815" d="M87 14h1v1h-1zM88 14h1v1h-1zM89 14h1v1h-1zM20 15h1v1h-1zM21 15h1v1h-1zM22 15h1v1h-1zM23 15h1v1h-1zM24 15h1v1h-1z"/><path fill="#46494C" d="M25 15h1v1h-1z"/><path fill="#A5D1E1" d="M26 15h1v1h-1z"/><path fill="#AEDDEF" d="M27 15h1v1h-1zM28 15h1v1h-1z"/><path fill="#A9DAEC" d="M29 15h1v1h-1z"/><path fill="#97CFE3" d="M30 15h1v1h-1z"/><path fill="#92CCE0" d="M31 15h1v1h-1zM32 15h1v1h-1z"/><path fill="#9AD4E9" d="M33 15h1v1h-1z"/><path fill="#9FD8EE" d="M34 15h1v1h-1zM35 15h1v1h-1zM36 15h1v1h-1zM37 15h1v1h-1zM38 15h1v1h-1zM39 15h1v1h-1z"/><path fill="#ACDBDB" d="M40 15h1v1h-1z"/><path fill="#B0DCD5" d="M41 15h1v1h-1zM42 15h1v1h-1zM43 15h1v1h-1zM44 15h1v1h-1zM45 15h1v1h-1zM46 15h1v1h-1zM47 15h1v1h-1zM48 15h1v1h-1z"/><path fill="#C9E3BA" d="M49 15h1v1h-1z"/><path fill="#CBE3B8" d="M50 15h1v1h-1zM51 15h1v1h-1zM52 15h1v1h-1zM53 15h1v1h-1zM54 15h1v1h-1zM55 15h1v1h-1zM56 15h1v1h-1zM57 15h1v1h-1zM58 15h1v1h-1zM59 15h1v1h-1zM60 15h1v1h-1zM61 15h1v1h-1zM62 15h1v1h-1z"/><path fill="#D4E6B3" d="M63 15h1v1h-1z"/><path fill="#E5EDA9" d="M64 15h1v1h-1z"/><path fill="#EDF0A4" d="M65 15h1v1h-1zM66 15h1v1h-1zM67 15h1v1h-1zM68 15h1v1h-1zM69 15h1v1h-1zM70 15h1v1h-1zM71 15h1v1h-1zM72 15h1v1h-1zM73 15h1v1h-1zM74 15h1v1h-1zM75 15h1v1h-1zM76 15h1v1h-1zM77 15h1v1h-1zM78 15h1v1h-1zM79 15h1v1h-1zM80 15h1v1h-1zM81 15h1v1h-1zM82 15h1v1h-1zM83 15h1v1h-1zM84 15h1v1h-1z"/><path fill="#9CBFB7" d="M85 15h1v1h-1z"/><path fill="#598098" d="M86 15h1v1h-1z"/><path fill="#231815" d="M87 15h1v1h-1zM88 15h1v1h-1zM89 15h1v1h-1zM19 16h1v1h-1zM20 16h1v1h-1zM21 16h1v1h-1zM22 16h1v1h-1zM23 16h1v1h-1z"/><path fill="#606E74" d="M24 16h1v1h-1z"/><path fill="#AEDDEF" d="M25 16h1v1h-1zM26 16h1v1h-1zM27 16h1v1h-1z"/><path fill="#A2D6E8" d="M28 16h1v1h-1z"/><path fill="#92CCE0" d="M29 16h1v1h-1zM30 16h1v1h-1zM31 16h1v1h-1z"/><path fill="#93CDE1" d="M32 16h1v1h-1z"/><path fill="#9ED7ED" d="M33 16h1v1h-1z"/><path fill="#9FD8EE" d="M34 16h1v1h-1zM35 16h1v1h-1zM36 16h1v1h-1zM37 16h1v1h-1zM38 16h1v1h-1z"/><path fill="#A3D9E8" d="M39 16h1v1h-1z"/><path fill="#B0DCD5" d="M40 16h1v1h-1zM41 16h1v1h-1zM42 16h1v1h-1zM43 16h1v1h-1zM44 16h1v1h-1zM45 16h1v1h-1zM46 16h1v1h-1zM47 16h1v1h-1z"/><path fill="#B5DDD0" d="M48 16h1v1h-1z"/><path fill="#CBE3B8" d="M49 16h1v1h-1zM50 16h1v1h-1zM51 16h1v1h-1zM52 16h1v1h-1zM53 16h1v1h-1zM54 16h1v1h-1zM55 16h1v1h-1zM56 16h1v1h-1zM57 16h1v1h-1zM58 16h1v1h-1zM59 16h1v1h-1zM60 16h1v1h-1zM61 16h1v1h-1zM62 16h1v1h-1zM63 16h1v1h-1zM64 16h1v1h-1z"/><path fill="#D4E6B3" d="M65 16h1v1h-1z"/><path fill="#E5EDA9" d="M66 16h1v1h-1z"/><path fill="#EDF0A4" d="M67 16h1v1h-1zM68 16h1v1h-1zM69 16h1v1h-1zM70 16h1v1h-1zM71 16h1v1h-1zM72 16h1v1h-1zM73 16h1v1h-1zM74 16h1v1h-1zM75 16h1v1h-1zM76 16h1v1h-1zM77 16h1v1h-1zM78 16h1v1h-1zM79 16h1v1h-1zM80 16h1v1h-1zM81 16h1v1h-1zM82 16h1v1h-1zM83 16h1v1h-1zM84 16h1v1h-1z"/><path fill="#7BACBF" d="M85 16h1v1h-1z"/><path fill="#598098" d="M86 16h1v1h-1z"/><path fill="#231815" d="M87 16h1v1h-1zM88 16h1v1h-1zM89 16h1v1h-1zM18 17h1v1h-1zM19 17h1v1h-1zM20 17h1v1h-1zM21 17h1v1h-1z"/><path fill="#2C2423" d="M22 17h1v1h-1z"/><path fill="#7A939D" d="M23 17h1v1h-1z"/><path fill="#AEDDEF" d="M24 17h1v1h-1zM25 17h1v1h-1z"/><path fill="#ACDCEE" d="M26 17h1v1h-1z"/><path fill="#9BD1E5" d="M27 17h1v1h-1z"/><path fill="#92CCE0" d="M28 17h1v1h-1zM29 17h1v1h-1zM30 17h1v1h-1zM31 17h1v1h-1z"/><path fill="#97D1E5" d="M32 17h1v1h-1z"/><path fill="#9FD8EE" d="M33 17h1v1h-1zM34 17h1v1h-1zM35 17h1v1h-1zM36 17h1v1h-1zM37 17h1v1h-1zM38 17h1v1h-1z"/><path fill="#ABDBDD" d="M39 17h1v1h-1z"/><path fill="#B0DCD5" d="M40 17h1v1h-1zM41 17h1v1h-1zM42 17h1v1h-1zM43 17h1v1h-1zM44 17h1v1h-1zM45 17h1v1h-1zM46 17h1v1h-1zM47 17h1v1h-1z"/><path fill="#B7DECE" d="M48 17h1v1h-1z"/><path fill="#CBE3B8" d="M49 17h1v1h-1zM50 17h1v1h-1zM51 17h1v1h-1zM52 17h1v1h-1zM53 17h1v1h-1zM54 17h1v1h-1zM55 17h1v1h-1zM56 17h1v1h-1zM57 17h1v1h-1zM58 17h1v1h-1zM59 17h1v1h-1zM60 17h1v1h-1zM61 17h1v1h-1zM62 17h1v1h-1zM63 17h1v1h-1zM64 17h1v1h-1zM65 17h1v1h-1zM66 17h1v1h-1z"/><path fill="#CFE5B6" d="M67 17h1v1h-1z"/><path fill="#DEEAAD" d="M68 17h1v1h-1z"/><path fill="#E9EEA7" d="M69 17h1v1h-1z"/><path fill="#EDF0A4" d="M70 17h1v1h-1zM71 17h1v1h-1zM72 17h1v1h-1zM73 17h1v1h-1zM74 17h1v1h-1zM75 17h1v1h-1zM76 17h1v1h-1zM77 17h1v1h-1zM78 17h1v1h-1zM79 17h1v1h-1zM80 17h1v1h-1zM81 17h1v1h-1zM82 17h1v1h-1zM83 17h1v1h-1z"/><path fill="#DDE6A8" d="M84 17h1v1h-1z"/><path fill="#6BA2C3" d="M85 17h1v1h-1z"/><path fill="#4C6677" d="M86 17h1v1h-1z"/><path fill="#231815" d="M87 17h1v1h-1zM88 17h1v1h-1zM89 17h1v1h-1zM17 18h1v1h-1zM18 18h1v1h-1zM19 18h1v1h-1zM20 18h1v1h-1z"/><path fill="#2C2423" d="M21 18h1v1h-1z"/><path fill="#94B8C6" d="M22 18h1v1h-1z"/><path fill="#AEDDEF" d="M23 18h1v1h-1zM24 18h1v1h-1z"/><path fill="#ABDCEF" d="M25 18h1v1h-1z"/><path fill="#9AD1E5" d="M26 18h1v1h-1z"/><path fill="#92CCE0" d="M27 18h1v1h-1zM28 18h1v1h-1zM29 18h1v1h-1zM30 18h1v1h-1zM31 18h1v1h-1z"/><path fill="#9DD6EB" d="M32 18h1v1h-1z"/><path fill="#9FD8EE" d="M33 18h1v1h-1zM34 18h1v1h-1zM35 18h1v1h-1zM36 18h1v1h-1zM37 18h1v1h-1z"/><path fill="#A1D9EB" d="M38 18h1v1h-1z"/><path fill="#B0DCD5" d="M39 18h1v1h-1zM40 18h1v1h-1zM41 18h1v1h-1zM42 18h1v1h-1zM43 18h1v1h-1zM44 18h1v1h-1zM45 18h1v1h-1zM46 18h1v1h-1zM47 18h1v1h-1z"/><path fill="#BADFCA" d="M48 18h1v1h-1z"/><path fill="#CBE3B8" d="M49 18h1v1h-1zM50 18h1v1h-1zM51 18h1v1h-1zM52 18h1v1h-1zM53 18h1v1h-1zM54 18h1v1h-1zM55 18h1v1h-1zM56 18h1v1h-1zM57 18h1v1h-1zM58 18h1v1h-1zM59 18h1v1h-1zM60 18h1v1h-1zM61 18h1v1h-1zM62 18h1v1h-1zM63 18h1v1h-1zM64 18h1v1h-1zM65 18h1v1h-1zM66 18h1v1h-1zM67 18h1v1h-1zM68 18h1v1h-1zM69 18h1v1h-1z"/><path fill="#D1E5B4" d="M70 18h1v1h-1z"/><path fill="#DCEAAE" d="M71 18h1v1h-1z"/><path fill="#E5EDA9" d="M72 18h1v1h-1z"/><path fill="#EDF0A4" d="M73 18h1v1h-1zM74 18h1v1h-1zM75 18h1v1h-1zM76 18h1v1h-1zM77 18h1v1h-1zM78 18h1v1h-1zM79 18h1v1h-1zM80 18h1v1h-1zM81 18h1v1h-1zM82 18h1v1h-1z"/><path fill="#EBEFA5" d="M83 18h1v1h-1z"/><path fill="#B6D0B3" d="M84 18h1v1h-1z"/><path fill="#6BA2C3" d="M85 18h1v1h-1z"/><path fill="#475D6C" d="M86 18h1v1h-1z"/><path fill="#231815" d="M87 18h1v1h-1zM88 18h1v1h-1zM89 18h1v1h-1zM16 19h1v1h-1zM17 19h1v1h-1zM18 19h1v1h-1zM19 19h1v1h-1z"/><path fill="#3D3D3E" d="M20 19h1v1h-1z"/><path fill="#94B8C6" d="M21 19h1v1h-1z"/><path fill="#AEDDEF" d="M22 19h1v1h-1zM23 19h1v1h-1z"/><path fill="#A9DBEF" d="M24 19h1v1h-1z"/><path fill="#A0D8EE" d="M25 19h1v1h-1z"/><path fill="#93CDE1" d="M26 19h1v1h-1z"/><path fill="#92CCE0" d="M27 19h1v1h-1zM28 19h1v1h-1zM29 19h1v1h-1zM30 19h1v1h-1z"/><path fill="#94CEE3" d="M31 19h1v1h-1z"/><path fill="#9FD8EE" d="M32 19h1v1h-1zM33 19h1v1h-1zM34 19h1v1h-1zM35 19h1v1h-1zM36 19h1v1h-1zM37 19h1v1h-1z"/><path fill="#A8DAE2" d="M38 19h1v1h-1z"/><path fill="#B0DCD5" d="M39 19h1v1h-1zM40 19h1v1h-1zM41 19h1v1h-1zM42 19h1v1h-1zM43 19h1v1h-1zM44 19h1v1h-1zM45 19h1v1h-1zM46 19h1v1h-1zM47 19h1v1h-1z"/><path fill="#BCDFC8" d="M48 19h1v1h-1z"/><path fill="#CBE3B8" d="M49 19h1v1h-1zM50 19h1v1h-1zM51 19h1v1h-1zM52 19h1v1h-1zM53 19h1v1h-1zM54 19h1v1h-1zM55 19h1v1h-1zM56 19h1v1h-1zM57 19h1v1h-1zM58 19h1v1h-1zM59 19h1v1h-1zM60 19h1v1h-1zM61 19h1v1h-1zM62 19h1v1h-1zM63 19h1v1h-1zM64 19h1v1h-1zM65 19h1v1h-1zM66 19h1v1h-1zM67 19h1v1h-1zM68 19h1v1h-1zM69 19h1v1h-1zM70 19h1v1h-1zM71 19h1v1h-1zM72 19h1v1h-1zM73 19h1v1h-1z"/><path fill="#D1E5B4" d="M74 19h1v1h-1z"/><path fill="#D4E6B3" d="M75 19h1v1h-1z"/><path fill="#DCEAAE" d="M76 19h1v1h-1zM77 19h1v1h-1zM78 19h1v1h-1zM79 19h1v1h-1zM80 19h1v1h-1z"/><path fill="#D6E7B2" d="M81 19h1v1h-1z"/><path fill="#D1E5B4" d="M82 19h1v1h-1z"/><path fill="#CBE3B8" d="M83 19h1v1h-1z"/><path fill="#89B6C0" d="M84 19h1v1h-1z"/><path fill="#6BA2C3" d="M85 19h1v1h-1z"/><path fill="#3A434B" d="M86 19h1v1h-1z"/><path fill="#231815" d="M87 19h1v1h-1zM88 19h1v1h-1zM89 19h1v1h-1zM15 20h1v1h-1zM16 20h1v1h-1zM17 20h1v1h-1zM18 20h1v1h-1z"/><path fill="#3D3D3E" d="M19 20h1v1h-1z"/><path fill="#A5D1E1" d="M20 20h1v1h-1z"/><path fill="#AEDDEF" d="M21 20h1v1h-1zM22 20h1v1h-1z"/><path fill="#A8DBEF" d="M23 20h1v1h-1z"/><path fill="#9FD8EE" d="M24 20h1v1h-1z"/><path fill="#9BD4EA" d="M25 20h1v1h-1z"/><path fill="#92CCE0" d="M26 20h1v1h-1zM27 20h1v1h-1zM28 20h1v1h-1zM29 20h1v1h-1zM30 20h1v1h-1z"/><path fill="#99D3E8" d="M31 20h1v1h-1z"/><path fill="#9FD8EE" d="M32 20h1v1h-1zM33 20h1v1h-1zM34 20h1v1h-1zM35 20h1v1h-1zM36 20h1v1h-1zM37 20h1v1h-1z"/><path fill="#AEDCD8" d="M38 20h1v1h-1z"/><path fill="#B0DCD5" d="M39 20h1v1h-1zM40 20h1v1h-1zM41 20h1v1h-1zM42 20h1v1h-1zM43 20h1v1h-1zM44 20h1v1h-1zM45 20h1v1h-1zM46 20h1v1h-1zM47 20h1v1h-1z"/><path fill="#B7DECE" d="M48 20h1v1h-1z"/><path fill="#CBE3B8" d="M49 20h1v1h-1zM50 20h1v1h-1zM51 20h1v1h-1zM52 20h1v1h-1zM53 20h1v1h-1zM54 20h1v1h-1zM55 20h1v1h-1zM56 20h1v1h-1zM57 20h1v1h-1zM58 20h1v1h-1zM59 20h1v1h-1zM60 20h1v1h-1zM61 20h1v1h-1zM62 20h1v1h-1zM63 20h1v1h-1zM64 20h1v1h-1zM65 20h1v1h-1zM66 20h1v1h-1zM67 20h1v1h-1zM68 20h1v1h-1zM69 20h1v1h-1zM70 20h1v1h-1zM71 20h1v1h-1zM72 20h1v1h-1zM73 20h1v1h-1zM74 20h1v1h-1zM75 20h1v1h-1zM76 20h1v1h-1zM77 20h1v1h-1zM78 20h1v1h-1zM79 20h1v1h-1zM80 20h1v1h-1zM81 20h1v1h-1zM82 20h1v1h-1z"/><path fill="#C5DFB9" d="M83 20h1v1h-1z"/><path fill="#6BA2C3" d="M84 20h1v1h-1zM85 20h1v1h-1z"/><path fill="#2C292B" d="M86 20h1v1h-1z"/><path fill="#231815" d="M87 20h1v1h-1zM88 20h1v1h-1zM89 20h1v1h-1zM14 21h1v1h-1zM15 21h1v1h-1zM16 21h1v1h-1zM17 21h1v1h-1z"/><path fill="#3D3D3E" d="M18 21h1v1h-1z"/><path fill="#A5D1E1" d="M19 21h1v1h-1z"/><path fill="#AEDDEF" d="M20 21h1v1h-1zM21 21h1v1h-1z"/><path fill="#A7DBEF" d="M22 21h1v1h-1z"/><path fill="#9FD8EE" d="M23 21h1v1h-1zM24 21h1v1h-1z"/><path fill="#97D1E5" d="M25 21h1v1h-1z"/><path fill="#92CCE0" d="M26 21h1v1h-1zM27 21h1v1h-1zM28 21h1v1h-1zM29 21h1v1h-1zM30 21h1v1h-1z"/><path fill="#9DD7EC" d="M31 21h1v1h-1z"/><path fill="#9FD8EE" d="M32 21h1v1h-1zM33 21h1v1h-1zM34 21h1v1h-1zM35 21h1v1h-1zM36 21h1v1h-1z"/><path fill="#A2D9E9" d="M37 21h1v1h-1z"/><path fill="#B0DCD5" d="M38 21h1v1h-1zM39 21h1v1h-1zM40 21h1v1h-1zM41 21h1v1h-1zM42 21h1v1h-1zM43 21h1v1h-1zM44 21h1v1h-1zM45 21h1v1h-1zM46 21h1v1h-1zM47 21h1v1h-1z"/><path fill="#B3DDD1" d="M48 21h1v1h-1z"/><path fill="#C4E1BF" d="M49 21h1v1h-1z"/><path fill="#CBE3B8" d="M50 21h1v1h-1zM51 21h1v1h-1zM52 21h1v1h-1zM53 21h1v1h-1zM54 21h1v1h-1zM55 21h1v1h-1zM56 21h1v1h-1zM57 21h1v1h-1zM58 21h1v1h-1zM59 21h1v1h-1zM60 21h1v1h-1zM61 21h1v1h-1zM62 21h1v1h-1zM63 21h1v1h-1zM64 21h1v1h-1zM65 21h1v1h-1zM66 21h1v1h-1zM67 21h1v1h-1zM68 21h1v1h-1zM69 21h1v1h-1zM70 21h1v1h-1zM71 21h1v1h-1zM72 21h1v1h-1zM73 21h1v1h-1zM74 21h1v1h-1zM75 21h1v1h-1zM76 21h1v1h-1zM77 21h1v1h-1zM78 21h1v1h-1zM79 21h1v1h-1zM80 21h1v1h-1zM81 21h1v1h-1zM82 21h1v1h-1z"/><path fill="#A7CBBC" d="M83 21h1v1h-1z"/><path fill="#6BA2C3" d="M84 21h1v1h-1z"/><path fill="#6799B8" d="M85 21h1v1h-1z"/><path fill="#231815" d="M86 21h1v1h-1zM87 21h1v1h-1zM88 21h1v1h-1zM13 22h1v1h-1zM14 22h1v1h-1zM15 22h1v1h-1zM16 22h1v1h-1z"/><path fill="#3D3D3E" d="M17 22h1v1h-1z"/><path fill="#A5D1E1" d="M18 22h1v1h-1z"/><path fill="#AEDDEF" d="M19 22h1v1h-1zM20 22h1v1h-1z"/><path fill="#A5DAEE" d="M21 22h1v1h-1z"/><path fill="#9FD8EE" d="M22 22h1v1h-1zM23 22h1v1h-1zM24 22h1v1h-1z"/><path fill="#93CDE1" d="M25 22h1v1h-1z"/><path fill="#92CCE0" d="M26 22h1v1h-1zM27 22h1v1h-1zM28 22h1v1h-1zM29 22h1v1h-1z"/><path fill="#96D0E4" d="M30 22h1v1h-1z"/><path fill="#9FD8EE" d="M31 22h1v1h-1zM32 22h1v1h-1zM33 22h1v1h-1zM34 22h1v1h-1zM35 22h1v1h-1zM36 22h1v1h-1z"/><path fill="#A9DAE0" d="M37 22h1v1h-1z"/><path fill="#B0DCD5" d="M38 22h1v1h-1zM39 22h1v1h-1zM40 22h1v1h-1zM41 22h1v1h-1zM42 22h1v1h-1zM43 22h1v1h-1zM44 22h1v1h-1zM45 22h1v1h-1zM46 22h1v1h-1zM47 22h1v1h-1zM48 22h1v1h-1zM49 22h1v1h-1z"/><path fill="#B7DECE" d="M50 22h1v1h-1z"/><path fill="#C1E0C3" d="M51 22h1v1h-1z"/><path fill="#CBE3B8" d="M52 22h1v1h-1zM53 22h1v1h-1zM54 22h1v1h-1zM55 22h1v1h-1zM56 22h1v1h-1zM57 22h1v1h-1zM58 22h1v1h-1zM59 22h1v1h-1zM60 22h1v1h-1zM61 22h1v1h-1zM62 22h1v1h-1zM63 22h1v1h-1zM64 22h1v1h-1zM65 22h1v1h-1zM66 22h1v1h-1zM67 22h1v1h-1zM68 22h1v1h-1zM69 22h1v1h-1zM70 22h1v1h-1zM71 22h1v1h-1zM72 22h1v1h-1zM73 22h1v1h-1zM74 22h1v1h-1zM75 22h1v1h-1zM76 22h1v1h-1zM77 22h1v1h-1zM78 22h1v1h-1zM79 22h1v1h-1zM80 22h1v1h-1zM81 22h1v1h-1zM82 22h1v1h-1z"/><path fill="#83B2C0" d="M83 22h1v1h-1z"/><path fill="#6BA2C3" d="M84 22h1v1h-1z"/><path fill="#506E82" d="M85 22h1v1h-1z"/><path fill="#231815" d="M86 22h1v1h-1zM87 22h1v1h-1zM88 22h1v1h-1zM12 23h1v1h-1zM13 23h1v1h-1zM14 23h1v1h-1zM15 23h1v1h-1z"/><path fill="#3D3D3E" d="M16 23h1v1h-1z"/><path fill="#A5D1E1" d="M17 23h1v1h-1z"/><path fill="#AEDDEF" d="M18 23h1v1h-1zM19 23h1v1h-1z"/><path fill="#A5DAEE" d="M20 23h1v1h-1z"/><path fill="#9FD8EE" d="M21 23h1v1h-1zM22 23h1v1h-1zM23 23h1v1h-1z"/><path fill="#9BD4EA" d="M24 23h1v1h-1z"/><path fill="#92CCE0" d="M25 23h1v1h-1zM26 23h1v1h-1zM27 23h1v1h-1zM28 23h1v1h-1zM29 23h1v1h-1z"/><path fill="#9AD4E9" d="M30 23h1v1h-1z"/><path fill="#9FD8EE" d="M31 23h1v1h-1zM32 23h1v1h-1zM33 23h1v1h-1zM34 23h1v1h-1zM35 23h1v1h-1zM36 23h1v1h-1z"/><path fill="#ADDBDA" d="M37 23h1v1h-1z"/><path fill="#B0DCD5" d="M38 23h1v1h-1zM39 23h1v1h-1zM40 23h1v1h-1zM41 23h1v1h-1zM42 23h1v1h-1zM43 23h1v1h-1zM44 23h1v1h-1zM45 23h1v1h-1zM46 23h1v1h-1zM47 23h1v1h-1zM48 23h1v1h-1zM49 23h1v1h-1zM50 23h1v1h-1zM51 23h1v1h-1z"/><path fill="#B3DDD1" d="M52 23h1v1h-1z"/><path fill="#BCDFC8" d="M53 23h1v1h-1z"/><path fill="#C8E2BC" d="M54 23h1v1h-1z"/><path fill="#CBE3B8" d="M55 23h1v1h-1zM56 23h1v1h-1zM57 23h1v1h-1zM58 23h1v1h-1zM59 23h1v1h-1zM60 23h1v1h-1zM61 23h1v1h-1zM62 23h1v1h-1zM63 23h1v1h-1zM64 23h1v1h-1zM65 23h1v1h-1zM66 23h1v1h-1zM67 23h1v1h-1zM68 23h1v1h-1zM69 23h1v1h-1zM70 23h1v1h-1zM71 23h1v1h-1zM72 23h1v1h-1zM73 23h1v1h-1zM74 23h1v1h-1zM75 23h1v1h-1zM76 23h1v1h-1zM77 23h1v1h-1zM78 23h1v1h-1zM79 23h1v1h-1zM80 23h1v1h-1zM81 23h1v1h-1z"/><path fill="#BFDBB9" d="M82 23h1v1h-1z"/><path fill="#6BA2C3" d="M83 23h1v1h-1zM84 23h1v1h-1z"/><path fill="#3E4C56" d="M85 23h1v1h-1z"/><path fill="#231815" d="M86 23h1v1h-1zM87 23h1v1h-1zM88 23h1v1h-1zM11 24h1v1h-1zM12 24h1v1h-1zM13 24h1v1h-1zM14 24h1v1h-1z"/><path fill="#2C2423" d="M15 24h1v1h-1z"/><path fill="#9DC4D4" d="M16 24h1v1h-1z"/><path fill="#AEDDEF" d="M17 24h1v1h-1zM18 24h1v1h-1z"/><path fill="#A3D8ED" d="M19 24h1v1h-1z"/><path fill="#9FD8EE" d="M20 24h1v1h-1zM21 24h1v1h-1zM22 24h1v1h-1zM23 24h1v1h-1z"/><path fill="#98D1E6" d="M24 24h1v1h-1z"/><path fill="#92CCE0" d="M25 24h1v1h-1zM26 24h1v1h-1zM27 24h1v1h-1zM28 24h1v1h-1zM29 24h1v1h-1z"/><path fill="#9ED7ED" d="M30 24h1v1h-1z"/><path fill="#9FD8EE" d="M31 24h1v1h-1zM32 24h1v1h-1zM33 24h1v1h-1zM34 24h1v1h-1zM35 24h1v1h-1z"/><path fill="#A0D8EC" d="M36 24h1v1h-1z"/><path fill="#B0DCD5" d="M37 24h1v1h-1zM38 24h1v1h-1zM39 24h1v1h-1zM40 24h1v1h-1zM41 24h1v1h-1zM42 24h1v1h-1zM43 24h1v1h-1zM44 24h1v1h-1zM45 24h1v1h-1zM46 24h1v1h-1zM47 24h1v1h-1zM48 24h1v1h-1zM49 24h1v1h-1zM50 24h1v1h-1zM51 24h1v1h-1zM52 24h1v1h-1zM53 24h1v1h-1zM54 24h1v1h-1z"/><path fill="#B5DDD0" d="M55 24h1v1h-1z"/><path fill="#BEE0C7" d="M56 24h1v1h-1z"/><path fill="#C6E2BD" d="M57 24h1v1h-1z"/><path fill="#CBE3B8" d="M58 24h1v1h-1zM59 24h1v1h-1zM60 24h1v1h-1zM61 24h1v1h-1zM62 24h1v1h-1zM63 24h1v1h-1zM64 24h1v1h-1zM65 24h1v1h-1zM66 24h1v1h-1zM67 24h1v1h-1zM68 24h1v1h-1zM69 24h1v1h-1zM70 24h1v1h-1zM71 24h1v1h-1zM72 24h1v1h-1zM73 24h1v1h-1zM74 24h1v1h-1zM75 24h1v1h-1zM76 24h1v1h-1zM77 24h1v1h-1zM78 24h1v1h-1zM79 24h1v1h-1zM80 24h1v1h-1zM81 24h1v1h-1z"/><path fill="#8FBABF" d="M82 24h1v1h-1z"/><path fill="#6BA2C3" d="M83 24h1v1h-1zM84 24h1v1h-1z"/><path fill="#282120" d="M85 24h1v1h-1z"/><path fill="#231815" d="M86 24h1v1h-1zM87 24h1v1h-1zM88 24h1v1h-1zM10 25h1v1h-1zM11 25h1v1h-1zM12 25h1v1h-1zM13 25h1v1h-1z"/><path fill="#2C2423" d="M14 25h1v1h-1z"/><path fill="#94B8C6" d="M15 25h1v1h-1z"/><path fill="#AEDDEF" d="M16 25h1v1h-1zM17 25h1v1h-1z"/><path fill="#A4D7E9" d="M18 25h1v1h-1z"/><path fill="#9ED7ED" d="M19 25h1v1h-1z"/><path fill="#9FD8EE" d="M20 25h1v1h-1zM21 25h1v1h-1zM22 25h1v1h-1zM23 25h1v1h-1z"/><path fill="#94CEE2" d="M24 25h1v1h-1z"/><path fill="#92CCE0" d="M25 25h1v1h-1zM26 25h1v1h-1zM27 25h1v1h-1zM28 25h1v1h-1z"/><path fill="#96D0E4" d="M29 25h1v1h-1z"/><path fill="#9FD8EE" d="M30 25h1v1h-1zM31 25h1v1h-1zM32 25h1v1h-1zM33 25h1v1h-1zM34 25h1v1h-1zM35 25h1v1h-1z"/><path fill="#A3D9E8" d="M36 25h1v1h-1z"/><path fill="#B0DCD5" d="M37 25h1v1h-1zM38 25h1v1h-1zM39 25h1v1h-1zM40 25h1v1h-1zM41 25h1v1h-1zM42 25h1v1h-1zM43 25h1v1h-1zM44 25h1v1h-1zM45 25h1v1h-1zM46 25h1v1h-1zM47 25h1v1h-1zM48 25h1v1h-1zM49 25h1v1h-1zM50 25h1v1h-1zM51 25h1v1h-1zM52 25h1v1h-1zM53 25h1v1h-1zM54 25h1v1h-1zM55 25h1v1h-1zM56 25h1v1h-1zM57 25h1v1h-1z"/><path fill="#B3DDD1" d="M58 25h1v1h-1z"/><path fill="#BADFCA" d="M59 25h1v1h-1z"/><path fill="#C1E0C3" d="M60 25h1v1h-1z"/><path fill="#C8E2BC" d="M61 25h1v1h-1z"/><path fill="#CBE3B8" d="M62 25h1v1h-1zM63 25h1v1h-1zM64 25h1v1h-1zM65 25h1v1h-1zM66 25h1v1h-1zM67 25h1v1h-1zM68 25h1v1h-1zM69 25h1v1h-1zM70 25h1v1h-1zM71 25h1v1h-1zM72 25h1v1h-1zM73 25h1v1h-1zM74 25h1v1h-1zM75 25h1v1h-1zM76 25h1v1h-1zM77 25h1v1h-1zM78 25h1v1h-1zM79 25h1v1h-1zM80 25h1v1h-1z"/><path fill="#BFDBB9" d="M81 25h1v1h-1z"/><path fill="#6BA2C3" d="M82 25h1v1h-1zM83 25h1v1h-1z"/><path fill="#506E82" d="M84 25h1v1h-1z"/><path fill="#231815" d="M85 25h1v1h-1zM86 25h1v1h-1zM87 25h1v1h-1zM10 26h1v1h-1zM11 26h1v1h-1zM12 26h1v1h-1zM13 26h1v1h-1z"/><path fill="#7A939D" d="M14 26h1v1h-1z"/><path fill="#AEDDEF" d="M15 26h1v1h-1zM16 26h1v1h-1z"/><path fill="#A4D7E9" d="M17 26h1v1h-1z"/><path fill="#96D0E4" d="M18 26h1v1h-1z"/><path fill="#9FD8EE" d="M19 26h1v1h-1zM20 26h1v1h-1zM21 26h1v1h-1zM22 26h1v1h-1z"/><path fill="#9DD6EB" d="M23 26h1v1h-1z"/><path fill="#92CCE0" d="M24 26h1v1h-1zM25 26h1v1h-1zM26 26h1v1h-1zM27 26h1v1h-1zM28 26h1v1h-1z"/><path fill="#9AD4E9" d="M29 26h1v1h-1z"/><path fill="#9FD8EE" d="M30 26h1v1h-1zM31 26h1v1h-1zM32 26h1v1h-1zM33 26h1v1h-1zM34 26h1v1h-1zM35 26h1v1h-1z"/><path fill="#A8DAE2" d="M36 26h1v1h-1z"/><path fill="#B0DCD5" d="M37 26h1v1h-1zM38 26h1v1h-1zM39 26h1v1h-1zM40 26h1v1h-1zM41 26h1v1h-1zM42 26h1v1h-1zM43 26h1v1h-1zM44 26h1v1h-1zM45 26h1v1h-1zM46 26h1v1h-1zM47 26h1v1h-1zM48 26h1v1h-1zM49 26h1v1h-1zM50 26h1v1h-1zM51 26h1v1h-1zM52 26h1v1h-1zM53 26h1v1h-1zM54 26h1v1h-1zM55 26h1v1h-1zM56 26h1v1h-1zM57 26h1v1h-1zM58 26h1v1h-1zM59 26h1v1h-1zM60 26h1v1h-1zM61 26h1v1h-1z"/><path fill="#B2DCD3" d="M62 26h1v1h-1z"/><path fill="#B7DECE" d="M63 26h1v1h-1z"/><path fill="#BEE0C7" d="M64 26h1v1h-1z"/><path fill="#C3E1C1" d="M65 26h1v1h-1z"/><path fill="#C6E2BD" d="M66 26h1v1h-1z"/><path fill="#CBE3B8" d="M67 26h1v1h-1zM68 26h1v1h-1zM69 26h1v1h-1zM70 26h1v1h-1zM71 26h1v1h-1zM72 26h1v1h-1zM73 26h1v1h-1zM74 26h1v1h-1zM75 26h1v1h-1zM76 26h1v1h-1zM77 26h1v1h-1zM78 26h1v1h-1zM79 26h1v1h-1zM80 26h1v1h-1z"/><path fill="#8FBABF" d="M81 26h1v1h-1z"/><path fill="#6BA2C3" d="M82 26h1v1h-1zM83 26h1v1h-1z"/><path fill="#353B41" d="M84 26h1v1h-1z"/><path fill="#231815" d="M85 26h1v1h-1zM86 26h1v1h-1zM87 26h1v1h-1zM9 27h1v1H9zM10 27h1v1h-1zM11 27h1v1h-1zM12 27h1v1h-1z"/><path fill="#697B82" d="M13 27h1v1h-1z"/><path fill="#AEDDEF" d="M14 27h1v1h-1zM15 27h1v1h-1z"/><path fill="#A9DAEC" d="M16 27h1v1h-1z"/><path fill="#94CDE1" d="M17 27h1v1h-1z"/><path fill="#9AD4E9" d="M18 27h1v1h-1z"/><path fill="#9FD8EE" d="M19 27h1v1h-1zM20 27h1v1h-1zM21 27h1v1h-1zM22 27h1v1h-1z"/><path fill="#99D3E8" d="M23 27h1v1h-1z"/><path fill="#92CCE0" d="M24 27h1v1h-1zM25 27h1v1h-1zM26 27h1v1h-1zM27 27h1v1h-1zM28 27h1v1h-1z"/><path fill="#9ED7ED" d="M29 27h1v1h-1z"/><path fill="#9FD8EE" d="M30 27h1v1h-1zM31 27h1v1h-1zM32 27h1v1h-1zM33 27h1v1h-1zM34 27h1v1h-1zM35 27h1v1h-1z"/><path fill="#A8DAE2" d="M36 27h1v1h-1z"/><path fill="#B0DCD5" d="M37 27h1v1h-1zM38 27h1v1h-1zM39 27h1v1h-1zM40 27h1v1h-1zM41 27h1v1h-1zM42 27h1v1h-1zM43 27h1v1h-1zM44 27h1v1h-1zM45 27h1v1h-1zM46 27h1v1h-1zM47 27h1v1h-1zM48 27h1v1h-1zM49 27h1v1h-1zM50 27h1v1h-1zM51 27h1v1h-1zM52 27h1v1h-1zM53 27h1v1h-1zM54 27h1v1h-1zM55 27h1v1h-1zM56 27h1v1h-1zM57 27h1v1h-1zM58 27h1v1h-1zM59 27h1v1h-1zM60 27h1v1h-1zM61 27h1v1h-1zM62 27h1v1h-1zM63 27h1v1h-1zM64 27h1v1h-1zM65 27h1v1h-1zM66 27h1v1h-1zM67 27h1v1h-1z"/><path fill="#B3DDD1" d="M68 27h1v1h-1z"/><path fill="#B7DECE" d="M69 27h1v1h-1z"/><path fill="#B8DECC" d="M70 27h1v1h-1z"/><path fill="#BEE0C7" d="M71 27h1v1h-1zM72 27h1v1h-1zM73 27h1v1h-1zM74 27h1v1h-1z"/><path fill="#C4E1BF" d="M75 27h1v1h-1z"/><path fill="#C3E1C1" d="M76 27h1v1h-1z"/><path fill="#BEE0C7" d="M77 27h1v1h-1zM78 27h1v1h-1zM79 27h1v1h-1z"/><path fill="#B0D7CA" d="M80 27h1v1h-1z"/><path fill="#6BA2C3" d="M81 27h1v1h-1zM82 27h1v1h-1z"/><path fill="#6291AD" d="M83 27h1v1h-1z"/><path fill="#231815" d="M84 27h1v1h-1zM85 27h1v1h-1zM86 27h1v1h-1zM87 27h1v1h-1zM8 28h1v1H8zM9 28h1v1H9zM10 28h1v1h-1zM11 28h1v1h-1z"/><path fill="#46494C" d="M12 28h1v1h-1z"/><path fill="#AEDDEF" d="M13 28h1v1h-1zM14 28h1v1h-1z"/><path fill="#ACDCEE" d="M15 28h1v1h-1z"/><path fill="#94CDE1" d="M16 28h1v1h-1z"/><path fill="#92CCE0" d="M17 28h1v1h-1z"/><path fill="#9ED7ED" d="M18 28h1v1h-1z"/><path fill="#9FD8EE" d="M19 28h1v1h-1zM20 28h1v1h-1zM21 28h1v1h-1zM22 28h1v1h-1z"/><path fill="#96D0E4" d="M23 28h1v1h-1z"/><path fill="#92CCE0" d="M24 28h1v1h-1zM25 28h1v1h-1zM26 28h1v1h-1zM27 28h1v1h-1z"/><path fill="#96D0E4" d="M28 28h1v1h-1z"/><path fill="#9FD8EE" d="M29 28h1v1h-1zM30 28h1v1h-1zM31 28h1v1h-1zM32 28h1v1h-1zM33 28h1v1h-1zM34 28h1v1h-1zM35 28h1v1h-1zM36 28h1v1h-1z"/><path fill="#A5DAE5" d="M37 28h1v1h-1z"/><path fill="#AEDCD8" d="M38 28h1v1h-1z"/><path fill="#B0DCD5" d="M39 28h1v1h-1zM40 28h1v1h-1zM41 28h1v1h-1zM42 28h1v1h-1zM43 28h1v1h-1zM44 28h1v1h-1zM45 28h1v1h-1zM46 28h1v1h-1zM47 28h1v1h-1zM48 28h1v1h-1zM49 28h1v1h-1zM50 28h1v1h-1zM51 28h1v1h-1zM52 28h1v1h-1zM53 28h1v1h-1zM54 28h1v1h-1zM55 28h1v1h-1zM56 28h1v1h-1zM57 28h1v1h-1zM58 28h1v1h-1zM59 28h1v1h-1zM60 28h1v1h-1zM61 28h1v1h-1zM62 28h1v1h-1zM63 28h1v1h-1zM64 28h1v1h-1zM65 28h1v1h-1zM66 28h1v1h-1zM67 28h1v1h-1zM68 28h1v1h-1zM69 28h1v1h-1zM70 28h1v1h-1zM71 28h1v1h-1zM72 28h1v1h-1zM73 28h1v1h-1zM74 28h1v1h-1zM75 28h1v1h-1zM76 28h1v1h-1zM77 28h1v1h-1zM78 28h1v1h-1zM79 28h1v1h-1z"/><path fill="#81B4C9" d="M80 28h1v1h-1z"/><path fill="#6BA2C3" d="M81 28h1v1h-1zM82 28h1v1h-1z"/><path fill="#3E4C56" d="M83 28h1v1h-1z"/><path fill="#231815" d="M84 28h1v1h-1zM85 28h1v1h-1zM86 28h1v1h-1zM8 29h1v1H8zM9 29h1v1H9zM10 29h1v1h-1z"/><path fill="#2C2423" d="M11 29h1v1h-1z"/><path fill="#A5D1E1" d="M12 29h1v1h-1z"/><path fill="#AEDDEF" d="M13 29h1v1h-1zM14 29h1v1h-1z"/><path fill="#99D0E4" d="M15 29h1v1h-1z"/><path fill="#92CCE0" d="M16 29h1v1h-1z"/><path fill="#96D0E4" d="M17 29h1v1h-1z"/><path fill="#9FD8EE" d="M18 29h1v1h-1zM19 29h1v1h-1zM20 29h1v1h-1zM21 29h1v1h-1zM22 29h1v1h-1z"/><path fill="#92CCE0" d="M23 29h1v1h-1zM24 29h1v1h-1zM25 29h1v1h-1zM26 29h1v1h-1zM27 29h1v1h-1z"/><path fill="#99D3E8" d="M28 29h1v1h-1z"/><path fill="#9FD8EE" d="M29 29h1v1h-1zM30 29h1v1h-1zM31 29h1v1h-1zM32 29h1v1h-1zM33 29h1v1h-1zM34 29h1v1h-1zM35 29h1v1h-1zM36 29h1v1h-1zM37 29h1v1h-1zM38 29h1v1h-1z"/><path fill="#A3D9E8" d="M39 29h1v1h-1z"/><path fill="#AADBDE" d="M40 29h1v1h-1z"/><path fill="#B0DCD5" d="M41 29h1v1h-1zM42 29h1v1h-1zM43 29h1v1h-1zM44 29h1v1h-1zM45 29h1v1h-1zM46 29h1v1h-1zM47 29h1v1h-1zM48 29h1v1h-1zM49 29h1v1h-1zM50 29h1v1h-1zM51 29h1v1h-1zM52 29h1v1h-1zM53 29h1v1h-1zM54 29h1v1h-1zM55 29h1v1h-1zM56 29h1v1h-1zM57 29h1v1h-1zM58 29h1v1h-1zM59 29h1v1h-1zM60 29h1v1h-1zM61 29h1v1h-1zM62 29h1v1h-1zM63 29h1v1h-1zM64 29h1v1h-1zM65 29h1v1h-1zM66 29h1v1h-1zM67 29h1v1h-1zM68 29h1v1h-1zM69 29h1v1h-1zM70 29h1v1h-1zM71 29h1v1h-1zM72 29h1v1h-1zM73 29h1v1h-1zM74 29h1v1h-1zM75 29h1v1h-1zM76 29h1v1h-1zM77 29h1v1h-1zM78 29h1v1h-1z"/><path fill="#9ACACF" d="M79 29h1v1h-1z"/><path fill="#6BA2C3" d="M80 29h1v1h-1zM81 29h1v1h-1z"/><path fill="#6291AD" d="M82 29h1v1h-1z"/><path fill="#231815" d="M83 29h1v1h-1zM84 29h1v1h-1zM85 29h1v1h-1zM86 29h1v1h-1zM7 30h1v1H7zM8 30h1v1H8zM9 30h1v1H9zM10 30h1v1h-1z"/><path fill="#839FAB" d="M11 30h1v1h-1z"/><path fill="#AEDDEF" d="M12 30h1v1h-1zM13 30h1v1h-1z"/><path fill="#A0D5E8" d="M14 30h1v1h-1z"/><path fill="#92CCE0" d="M15 30h1v1h-1zM16 30h1v1h-1z"/><path fill="#99D3E8" d="M17 30h1v1h-1z"/><path fill="#9FD8EE" d="M18 30h1v1h-1zM19 30h1v1h-1zM20 30h1v1h-1zM21 30h1v1h-1z"/><path fill="#9CD5EB" d="M22 30h1v1h-1z"/><path fill="#92CCE0" d="M23 30h1v1h-1zM24 30h1v1h-1zM25 30h1v1h-1zM26 30h1v1h-1zM27 30h1v1h-1z"/><path fill="#9DD7EC" d="M28 30h1v1h-1z"/><path fill="#9FD8EE" d="M29 30h1v1h-1zM30 30h1v1h-1zM31 30h1v1h-1zM32 30h1v1h-1zM33 30h1v1h-1zM34 30h1v1h-1zM35 30h1v1h-1zM36 30h1v1h-1zM37 30h1v1h-1zM38 30h1v1h-1zM39 30h1v1h-1zM40 30h1v1h-1z"/><path fill="#A0D8EC" d="M41 30h1v1h-1z"/><path fill="#A5DAE5" d="M42 30h1v1h-1z"/><path fill="#ABDBDD" d="M43 30h1v1h-1z"/><path fill="#B0DCD5" d="M44 30h1v1h-1zM45 30h1v1h-1zM46 30h1v1h-1zM47 30h1v1h-1zM48 30h1v1h-1zM49 30h1v1h-1zM50 30h1v1h-1zM51 30h1v1h-1zM52 30h1v1h-1zM53 30h1v1h-1zM54 30h1v1h-1zM55 30h1v1h-1zM56 30h1v1h-1zM57 30h1v1h-1zM58 30h1v1h-1zM59 30h1v1h-1zM60 30h1v1h-1zM61 30h1v1h-1zM62 30h1v1h-1zM63 30h1v1h-1zM64 30h1v1h-1zM65 30h1v1h-1zM66 30h1v1h-1zM67 30h1v1h-1zM68 30h1v1h-1zM69 30h1v1h-1zM70 30h1v1h-1zM71 30h1v1h-1zM72 30h1v1h-1zM73 30h1v1h-1zM74 30h1v1h-1zM75 30h1v1h-1zM76 30h1v1h-1zM77 30h1v1h-1z"/><path fill="#ACD8D4" d="M78 30h1v1h-1z"/><path fill="#74A9C5" d="M79 30h1v1h-1z"/><path fill="#6BA2C3" d="M80 30h1v1h-1zM81 30h1v1h-1z"/><path fill="#353B41" d="M82 30h1v1h-1z"/><path fill="#231815" d="M83 30h1v1h-1zM84 30h1v1h-1zM85 30h1v1h-1zM6 31h1v1H6zM7 31h1v1H7zM8 31h1v1H8zM9 31h1v1H9z"/><path fill="#4E5659" d="M10 31h1v1h-1z"/><path fill="#AEDDEF" d="M11 31h1v1h-1zM12 31h1v1h-1z"/><path fill="#A9DAEC" d="M13 31h1v1h-1z"/><path fill="#92CCE0" d="M14 31h1v1h-1zM15 31h1v1h-1zM16 31h1v1h-1z"/><path fill="#9DD6EB" d="M17 31h1v1h-1z"/><path fill="#9FD8EE" d="M18 31h1v1h-1zM19 31h1v1h-1zM20 31h1v1h-1zM21 31h1v1h-1z"/><path fill="#99D2E7" d="M22 31h1v1h-1z"/><path fill="#92CCE0" d="M23 31h1v1h-1zM24 31h1v1h-1zM25 31h1v1h-1zM26 31h1v1h-1z"/><path fill="#94CEE3" d="M27 31h1v1h-1z"/><path fill="#9FD8EE" d="M28 31h1v1h-1zM29 31h1v1h-1zM30 31h1v1h-1zM31 31h1v1h-1zM32 31h1v1h-1zM33 31h1v1h-1zM34 31h1v1h-1zM35 31h1v1h-1zM36 31h1v1h-1zM37 31h1v1h-1zM38 31h1v1h-1zM39 31h1v1h-1zM40 31h1v1h-1zM41 31h1v1h-1zM42 31h1v1h-1zM43 31h1v1h-1z"/><path fill="#A0D8EC" d="M44 31h1v1h-1z"/><path fill="#A5DAE5" d="M45 31h1v1h-1z"/><path fill="#AADBDE" d="M46 31h1v1h-1z"/><path fill="#AEDCD8" d="M47 31h1v1h-1z"/><path fill="#B0DCD5" d="M48 31h1v1h-1zM49 31h1v1h-1zM50 31h1v1h-1zM51 31h1v1h-1zM52 31h1v1h-1zM53 31h1v1h-1zM54 31h1v1h-1zM55 31h1v1h-1zM56 31h1v1h-1zM57 31h1v1h-1zM58 31h1v1h-1zM59 31h1v1h-1zM60 31h1v1h-1zM61 31h1v1h-1zM62 31h1v1h-1zM63 31h1v1h-1zM64 31h1v1h-1zM65 31h1v1h-1zM66 31h1v1h-1zM67 31h1v1h-1zM68 31h1v1h-1zM69 31h1v1h-1zM70 31h1v1h-1zM71 31h1v1h-1zM72 31h1v1h-1zM73 31h1v1h-1zM74 31h1v1h-1zM75 31h1v1h-1zM76 31h1v1h-1zM77 31h1v1h-1z"/><path fill="#81B4C9" d="M78 31h1v1h-1z"/><path fill="#6BA2C3" d="M79 31h1v1h-1zM80 31h1v1h-1z"/><path fill="#55778D" d="M81 31h1v1h-1z"/><path fill="#231815" d="M82 31h1v1h-1zM83 31h1v1h-1zM84 31h1v1h-1zM85 31h1v1h-1zM6 32h1v1H6zM7 32h1v1H7zM8 32h1v1H8z"/><path fill="#2C2423" d="M9 32h1v1H9z"/><path fill="#A5D1E1" d="M10 32h1v1h-1z"/><path fill="#AEDDEF" d="M11 32h1v1h-1z"/><path fill="#ACDCEE" d="M12 32h1v1h-1z"/><path fill="#96CEE2" d="M13 32h1v1h-1z"/><path fill="#92CCE0" d="M14 32h1v1h-1zM15 32h1v1h-1z"/><path fill="#93CDE1" d="M16 32h1v1h-1z"/><path fill="#9FD8EE" d="M17 32h1v1h-1zM18 32h1v1h-1zM19 32h1v1h-1zM20 32h1v1h-1zM21 32h1v1h-1z"/><path fill="#95CFE4" d="M22 32h1v1h-1z"/><path fill="#92CCE0" d="M23 32h1v1h-1zM24 32h1v1h-1zM25 32h1v1h-1zM26 32h1v1h-1z"/><path fill="#99D2E7" d="M27 32h1v1h-1z"/><path fill="#9FD8EE" d="M28 32h1v1h-1zM29 32h1v1h-1zM30 32h1v1h-1zM31 32h1v1h-1zM32 32h1v1h-1zM33 32h1v1h-1zM34 32h1v1h-1zM35 32h1v1h-1zM36 32h1v1h-1zM37 32h1v1h-1zM38 32h1v1h-1zM39 32h1v1h-1zM40 32h1v1h-1zM41 32h1v1h-1zM42 32h1v1h-1zM43 32h1v1h-1zM44 32h1v1h-1zM45 32h1v1h-1zM46 32h1v1h-1zM47 32h1v1h-1z"/><path fill="#A1D9EB" d="M48 32h1v1h-1z"/><path fill="#A5DAE5" d="M49 32h1v1h-1z"/><path fill="#AADBDE" d="M50 32h1v1h-1z"/><path fill="#ADDBDA" d="M51 32h1v1h-1z"/><path fill="#B0DCD5" d="M52 32h1v1h-1zM53 32h1v1h-1zM54 32h1v1h-1zM55 32h1v1h-1zM56 32h1v1h-1zM57 32h1v1h-1zM58 32h1v1h-1zM59 32h1v1h-1zM60 32h1v1h-1zM61 32h1v1h-1zM62 32h1v1h-1zM63 32h1v1h-1zM64 32h1v1h-1zM65 32h1v1h-1zM66 32h1v1h-1zM67 32h1v1h-1zM68 32h1v1h-1zM69 32h1v1h-1zM70 32h1v1h-1zM71 32h1v1h-1zM72 32h1v1h-1zM73 32h1v1h-1zM74 32h1v1h-1zM75 32h1v1h-1zM76 32h1v1h-1z"/><path fill="#96C6CE" d="M77 32h1v1h-1z"/><path fill="#6BA2C3" d="M78 32h1v1h-1zM79 32h1v1h-1z"/><path fill="#6799B8" d="M80 32h1v1h-1z"/><path fill="#2C292B" d="M81 32h1v1h-1z"/><path fill="#231815" d="M82 32h1v1h-1zM83 32h1v1h-1zM84 32h1v1h-1zM5 33h1v1H5zM6 33h1v1H6zM7 33h1v1H7zM8 33h1v1H8z"/><path fill="#7A939D" d="M9 33h1v1H9z"/><path fill="#AEDDEF" d="M10 33h1v1h-1zM11 33h1v1h-1z"/><path fill="#A0D5E8" d="M12 33h1v1h-1z"/><path fill="#92CCE0" d="M13 33h1v1h-1zM14 33h1v1h-1zM15 33h1v1h-1z"/><path fill="#96D0E4" d="M16 33h1v1h-1z"/><path fill="#9FD8EE" d="M17 33h1v1h-1zM18 33h1v1h-1zM19 33h1v1h-1zM20 33h1v1h-1zM21 33h1v1h-1z"/><path fill="#92CCE0" d="M22 33h1v1h-1zM23 33h1v1h-1zM24 33h1v1h-1zM25 33h1v1h-1zM26 33h1v1h-1z"/><path fill="#9DD6EB" d="M27 33h1v1h-1z"/><path fill="#9FD8EE" d="M28 33h1v1h-1zM29 33h1v1h-1zM30 33h1v1h-1zM31 33h1v1h-1zM32 33h1v1h-1zM33 33h1v1h-1zM34 33h1v1h-1zM35 33h1v1h-1zM36 33h1v1h-1zM37 33h1v1h-1zM38 33h1v1h-1zM39 33h1v1h-1zM40 33h1v1h-1zM41 33h1v1h-1zM42 33h1v1h-1zM43 33h1v1h-1zM44 33h1v1h-1zM45 33h1v1h-1zM46 33h1v1h-1zM47 33h1v1h-1zM48 33h1v1h-1zM49 33h1v1h-1zM50 33h1v1h-1zM51 33h1v1h-1zM52 33h1v1h-1z"/><path fill="#A3D9E8" d="M53 33h1v1h-1z"/><path fill="#A6DAE3" d="M54 33h1v1h-1z"/><path fill="#A9DAE0" d="M55 33h1v1h-1z"/><path fill="#ACDBDB" d="M56 33h1v1h-1z"/><path fill="#AFDCD7" d="M57 33h1v1h-1z"/><path fill="#B0DCD5" d="M58 33h1v1h-1zM59 33h1v1h-1zM60 33h1v1h-1zM61 33h1v1h-1zM62 33h1v1h-1zM63 33h1v1h-1zM64 33h1v1h-1zM65 33h1v1h-1zM66 33h1v1h-1zM67 33h1v1h-1zM68 33h1v1h-1zM69 33h1v1h-1zM70 33h1v1h-1zM71 33h1v1h-1zM72 33h1v1h-1zM73 33h1v1h-1zM74 33h1v1h-1zM75 33h1v1h-1z"/><path fill="#A3D1D2" d="M76 33h1v1h-1z"/><path fill="#6FA6C4" d="M77 33h1v1h-1z"/><path fill="#6BA2C3" d="M78 33h1v1h-1zM79 33h1v1h-1z"/><path fill="#3E4C56" d="M80 33h1v1h-1z"/><path fill="#231815" d="M81 33h1v1h-1zM82 33h1v1h-1zM83 33h1v1h-1zM84 33h1v1h-1zM5 34h1v1H5zM6 34h1v1H6zM7 34h1v1H7z"/><path fill="#46494C" d="M8 34h1v1H8z"/><path fill="#AEDDEF" d="M9 34h1v1H9zM10 34h1v1h-1z"/><path fill="#ABDBED" d="M11 34h1v1h-1z"/><path fill="#92CCE0" d="M12 34h1v1h-1zM13 34h1v1h-1zM14 34h1v1h-1zM15 34h1v1h-1z"/><path fill="#99D3E8" d="M16 34h1v1h-1z"/><path fill="#9FD8EE" d="M17 34h1v1h-1zM18 34h1v1h-1zM19 34h1v1h-1zM20 34h1v1h-1z"/><path fill="#9CD5EB" d="M21 34h1v1h-1z"/><path fill="#92CCE0" d="M22 34h1v1h-1zM23 34h1v1h-1zM24 34h1v1h-1zM25 34h1v1h-1zM26 34h1v1h-1z"/><path fill="#94CEE2" d="M27 34h1v1h-1z"/><path fill="#99D3E8" d="M28 34h1v1h-1z"/><path fill="#9DD7EC" d="M29 34h1v1h-1z"/><path fill="#9FD8EE" d="M30 34h1v1h-1zM31 34h1v1h-1zM32 34h1v1h-1zM33 34h1v1h-1zM34 34h1v1h-1zM35 34h1v1h-1zM36 34h1v1h-1zM37 34h1v1h-1zM38 34h1v1h-1zM39 34h1v1h-1zM40 34h1v1h-1zM41 34h1v1h-1zM42 34h1v1h-1zM43 34h1v1h-1zM44 34h1v1h-1zM45 34h1v1h-1zM46 34h1v1h-1zM47 34h1v1h-1zM48 34h1v1h-1zM49 34h1v1h-1zM50 34h1v1h-1zM51 34h1v1h-1zM52 34h1v1h-1zM53 34h1v1h-1zM54 34h1v1h-1zM55 34h1v1h-1zM56 34h1v1h-1zM57 34h1v1h-1zM58 34h1v1h-1z"/><path fill="#A3D9E8" d="M59 34h1v1h-1zM60 34h1v1h-1z"/><path fill="#A8DAE2" d="M61 34h1v1h-1zM62 34h1v1h-1z"/><path fill="#ABDBDD" d="M63 34h1v1h-1z"/><path fill="#ACDBDB" d="M64 34h1v1h-1z"/><path fill="#ADDBDA" d="M65 34h1v1h-1z"/><path fill="#B0DCD5" d="M66 34h1v1h-1zM67 34h1v1h-1zM68 34h1v1h-1zM69 34h1v1h-1zM70 34h1v1h-1zM71 34h1v1h-1zM72 34h1v1h-1zM73 34h1v1h-1zM74 34h1v1h-1z"/><path fill="#ACD8D4" d="M75 34h1v1h-1z"/><path fill="#74A9C5" d="M76 34h1v1h-1z"/><path fill="#6BA2C3" d="M77 34h1v1h-1zM78 34h1v1h-1z"/><path fill="#55778D" d="M79 34h1v1h-1z"/><path fill="#231815" d="M80 34h1v1h-1zM81 34h1v1h-1zM82 34h1v1h-1zM83 34h1v1h-1zM4 35h1v1H4zM5 35h1v1H5zM6 35h1v1H6zM7 35h1v1H7z"/><path fill="#8BACB9" d="M8 35h1v1H8z"/><path fill="#AEDDEF" d="M9 35h1v1H9zM10 35h1v1h-1z"/><path fill="#99D0E4" d="M11 35h1v1h-1z"/><path fill="#92CCE0" d="M12 35h1v1h-1zM13 35h1v1h-1zM14 35h1v1h-1zM15 35h1v1h-1z"/><path fill="#9CD5EB" d="M16 35h1v1h-1z"/><path fill="#9FD8EE" d="M17 35h1v1h-1zM18 35h1v1h-1zM19 35h1v1h-1zM20 35h1v1h-1z"/><path fill="#99D3E8" d="M21 35h1v1h-1z"/><path fill="#92CCE0" d="M22 35h1v1h-1zM23 35h1v1h-1zM24 35h1v1h-1zM25 35h1v1h-1zM26 35h1v1h-1zM27 35h1v1h-1zM28 35h1v1h-1zM29 35h1v1h-1z"/><path fill="#96D0E4" d="M30 35h1v1h-1z"/><path fill="#9AD4E9" d="M31 35h1v1h-1z"/><path fill="#9ED7ED" d="M32 35h1v1h-1z"/><path fill="#9FD8EE" d="M33 35h1v1h-1zM34 35h1v1h-1zM35 35h1v1h-1zM36 35h1v1h-1zM37 35h1v1h-1zM38 35h1v1h-1zM39 35h1v1h-1zM40 35h1v1h-1zM41 35h1v1h-1zM42 35h1v1h-1zM43 35h1v1h-1zM44 35h1v1h-1zM45 35h1v1h-1zM46 35h1v1h-1zM47 35h1v1h-1zM48 35h1v1h-1zM49 35h1v1h-1zM50 35h1v1h-1zM51 35h1v1h-1zM52 35h1v1h-1zM53 35h1v1h-1zM54 35h1v1h-1zM55 35h1v1h-1zM56 35h1v1h-1zM57 35h1v1h-1zM58 35h1v1h-1zM59 35h1v1h-1zM60 35h1v1h-1zM61 35h1v1h-1zM62 35h1v1h-1zM63 35h1v1h-1zM64 35h1v1h-1zM65 35h1v1h-1zM66 35h1v1h-1zM67 35h1v1h-1zM68 35h1v1h-1z"/><path fill="#A1D9EB" d="M69 35h1v1h-1z"/><path fill="#A3D9E8" d="M70 35h1v1h-1zM71 35h1v1h-1zM72 35h1v1h-1zM73 35h1v1h-1z"/><path fill="#A0D6E5" d="M74 35h1v1h-1z"/><path fill="#77ADC8" d="M75 35h1v1h-1z"/><path fill="#6BA2C3" d="M76 35h1v1h-1zM77 35h1v1h-1z"/><path fill="#5E88A2" d="M78 35h1v1h-1z"/><path fill="#282120" d="M79 35h1v1h-1z"/><path fill="#231815" d="M80 35h1v1h-1zM81 35h1v1h-1zM82 35h1v1h-1zM4 36h1v1H4zM5 36h1v1H5zM6 36h1v1H6z"/><path fill="#576267" d="M7 36h1v1H7z"/><path fill="#AEDDEF" d="M8 36h1v1H8zM9 36h1v1H9z"/><path fill="#A7D9EB" d="M10 36h1v1h-1z"/><path fill="#92CCE0" d="M11 36h1v1h-1zM12 36h1v1h-1zM13 36h1v1h-1zM14 36h1v1h-1zM15 36h1v1h-1z"/><path fill="#9FD8EE" d="M16 36h1v1h-1zM17 36h1v1h-1zM18 36h1v1h-1zM19 36h1v1h-1zM20 36h1v1h-1z"/><path fill="#96D0E4" d="M21 36h1v1h-1z"/><path fill="#92CCE0" d="M22 36h1v1h-1zM23 36h1v1h-1zM24 36h1v1h-1zM25 36h1v1h-1zM26 36h1v1h-1zM27 36h1v1h-1zM28 36h1v1h-1zM29 36h1v1h-1zM30 36h1v1h-1zM31 36h1v1h-1zM32 36h1v1h-1z"/><path fill="#96D0E4" d="M33 36h1v1h-1z"/><path fill="#99D3E8" d="M34 36h1v1h-1z"/><path fill="#9DD7EC" d="M35 36h1v1h-1z"/><path fill="#9FD8EE" d="M36 36h1v1h-1zM37 36h1v1h-1zM38 36h1v1h-1zM39 36h1v1h-1zM40 36h1v1h-1zM41 36h1v1h-1zM42 36h1v1h-1zM43 36h1v1h-1zM44 36h1v1h-1zM45 36h1v1h-1zM46 36h1v1h-1zM47 36h1v1h-1zM48 36h1v1h-1zM49 36h1v1h-1zM50 36h1v1h-1zM51 36h1v1h-1zM52 36h1v1h-1zM53 36h1v1h-1zM54 36h1v1h-1zM55 36h1v1h-1zM56 36h1v1h-1zM57 36h1v1h-1zM58 36h1v1h-1zM59 36h1v1h-1zM60 36h1v1h-1zM61 36h1v1h-1zM62 36h1v1h-1zM63 36h1v1h-1zM64 36h1v1h-1zM65 36h1v1h-1zM66 36h1v1h-1zM67 36h1v1h-1zM68 36h1v1h-1zM69 36h1v1h-1zM70 36h1v1h-1zM71 36h1v1h-1zM72 36h1v1h-1z"/><path fill="#9CD5EB" d="M73 36h1v1h-1z"/><path fill="#75ACCB" d="M74 36h1v1h-1z"/><path fill="#6BA2C3" d="M75 36h1v1h-1zM76 36h1v1h-1z"/><path fill="#6799B8" d="M77 36h1v1h-1z"/><path fill="#313236" d="M78 36h1v1h-1z"/><path fill="#231815" d="M79 36h1v1h-1zM80 36h1v1h-1zM81 36h1v1h-1zM82 36h1v1h-1zM3 37h1v1H3zM4 37h1v1H4zM5 37h1v1H5zM6 37h1v1H6z"/><path fill="#9DC4D4" d="M7 37h1v1H7z"/><path fill="#AEDDEF" d="M8 37h1v1H8zM9 37h1v1H9z"/><path fill="#9AD3E7" d="M10 37h1v1h-1z"/><path fill="#92CCE0" d="M11 37h1v1h-1zM12 37h1v1h-1zM13 37h1v1h-1zM14 37h1v1h-1z"/><path fill="#94CEE3" d="M15 37h1v1h-1z"/><path fill="#9FD8EE" d="M16 37h1v1h-1zM17 37h1v1h-1zM18 37h1v1h-1zM19 37h1v1h-1zM20 37h1v1h-1z"/><path fill="#94CEE2" d="M21 37h1v1h-1z"/><path fill="#92CCE0" d="M22 37h1v1h-1zM23 37h1v1h-1zM24 37h1v1h-1zM25 37h1v1h-1zM26 37h1v1h-1zM27 37h1v1h-1zM28 37h1v1h-1zM29 37h1v1h-1zM30 37h1v1h-1zM31 37h1v1h-1zM32 37h1v1h-1zM33 37h1v1h-1zM34 37h1v1h-1zM35 37h1v1h-1z"/><path fill="#94CEE2" d="M36 37h1v1h-1z"/><path fill="#98D1E6" d="M37 37h1v1h-1z"/><path fill="#9BD4EA" d="M38 37h1v1h-1z"/><path fill="#9ED7ED" d="M39 37h1v1h-1z"/><path fill="#9FD8EE" d="M40 37h1v1h-1zM41 37h1v1h-1zM42 37h1v1h-1zM43 37h1v1h-1zM44 37h1v1h-1zM45 37h1v1h-1zM46 37h1v1h-1zM47 37h1v1h-1zM48 37h1v1h-1zM49 37h1v1h-1zM50 37h1v1h-1zM51 37h1v1h-1zM52 37h1v1h-1zM53 37h1v1h-1zM54 37h1v1h-1zM55 37h1v1h-1zM56 37h1v1h-1zM57 37h1v1h-1zM58 37h1v1h-1zM59 37h1v1h-1zM60 37h1v1h-1zM61 37h1v1h-1zM62 37h1v1h-1zM63 37h1v1h-1zM64 37h1v1h-1zM65 37h1v1h-1zM66 37h1v1h-1zM67 37h1v1h-1zM68 37h1v1h-1zM69 37h1v1h-1zM70 37h1v1h-1zM71 37h1v1h-1zM72 37h1v1h-1z"/><path fill="#7FB6D3" d="M73 37h1v1h-1z"/><path fill="#6BA2C3" d="M74 37h1v1h-1zM75 37h1v1h-1zM76 37h1v1h-1z"/><path fill="#313236" d="M77 37h1v1h-1z"/><path fill="#231815" d="M78 37h1v1h-1zM79 37h1v1h-1zM80 37h1v1h-1zM81 37h1v1h-1zM3 38h1v1H3zM4 38h1v1H4zM5 38h1v1H5z"/><path fill="#4E5659" d="M6 38h1v1H6z"/><path fill="#AEDDEF" d="M7 38h1v1H7zM8 38h1v1H8z"/><path fill="#A8DBEF" d="M9 38h1v1H9z"/><path fill="#95CFE4" d="M10 38h1v1h-1z"/><path fill="#92CCE0" d="M11 38h1v1h-1zM12 38h1v1h-1zM13 38h1v1h-1zM14 38h1v1h-1z"/><path fill="#97D1E5" d="M15 38h1v1h-1z"/><path fill="#9FD8EE" d="M16 38h1v1h-1zM17 38h1v1h-1zM18 38h1v1h-1zM19 38h1v1h-1zM20 38h1v1h-1z"/><path fill="#9AD4E9" d="M21 38h1v1h-1z"/><path fill="#94CEE3" d="M22 38h1v1h-1z"/><path fill="#92CCE0" d="M23 38h1v1h-1zM24 38h1v1h-1zM25 38h1v1h-1zM26 38h1v1h-1zM27 38h1v1h-1zM28 38h1v1h-1zM29 38h1v1h-1zM30 38h1v1h-1zM31 38h1v1h-1zM32 38h1v1h-1zM33 38h1v1h-1zM34 38h1v1h-1zM35 38h1v1h-1zM36 38h1v1h-1zM37 38h1v1h-1zM38 38h1v1h-1zM39 38h1v1h-1z"/><path fill="#95CFE4" d="M40 38h1v1h-1z"/><path fill="#99D2E7" d="M41 38h1v1h-1z"/><path fill="#9BD4EA" d="M42 38h1v1h-1z"/><path fill="#9ED7ED" d="M43 38h1v1h-1z"/><path fill="#9FD8EE" d="M44 38h1v1h-1zM45 38h1v1h-1zM46 38h1v1h-1zM47 38h1v1h-1zM48 38h1v1h-1zM49 38h1v1h-1zM50 38h1v1h-1zM51 38h1v1h-1zM52 38h1v1h-1zM53 38h1v1h-1zM54 38h1v1h-1zM55 38h1v1h-1zM56 38h1v1h-1zM57 38h1v1h-1zM58 38h1v1h-1zM59 38h1v1h-1zM60 38h1v1h-1zM61 38h1v1h-1zM62 38h1v1h-1zM63 38h1v1h-1zM64 38h1v1h-1zM65 38h1v1h-1zM66 38h1v1h-1zM67 38h1v1h-1zM68 38h1v1h-1zM69 38h1v1h-1zM70 38h1v1h-1z"/><path fill="#9CD5EB" d="M71 38h1v1h-1z"/><path fill="#75ACCB" d="M72 38h1v1h-1z"/><path fill="#6BA2C3" d="M73 38h1v1h-1zM74 38h1v1h-1zM75 38h1v1h-1z"/><path fill="#3E4C56" d="M76 38h1v1h-1z"/><path fill="#231815" d="M77 38h1v1h-1zM78 38h1v1h-1zM79 38h1v1h-1zM80 38h1v1h-1zM2 39h1v1H2zM3 39h1v1H3zM4 39h1v1H4zM5 39h1v1H5z"/><path fill="#8BACB9" d="M6 39h1v1H6z"/><path fill="#AEDDEF" d="M7 39h1v1H7zM8 39h1v1H8z"/><path fill="#A1D9EE" d="M9 39h1v1H9z"/><path fill="#94CEE2" d="M10 39h1v1h-1z"/><path fill="#92CCE0" d="M11 39h1v1h-1zM12 39h1v1h-1zM13 39h1v1h-1zM14 39h1v1h-1z"/><path fill="#99D2E7" d="M15 39h1v1h-1z"/><path fill="#9FD8EE" d="M16 39h1v1h-1zM17 39h1v1h-1zM18 39h1v1h-1zM19 39h1v1h-1zM20 39h1v1h-1zM21 39h1v1h-1zM22 39h1v1h-1z"/><path fill="#9CD5EB" d="M23 39h1v1h-1z"/><path fill="#97D1E5" d="M24 39h1v1h-1z"/><path fill="#92CCE0" d="M25 39h1v1h-1zM26 39h1v1h-1zM27 39h1v1h-1zM28 39h1v1h-1zM29 39h1v1h-1zM30 39h1v1h-1zM31 39h1v1h-1zM32 39h1v1h-1zM33 39h1v1h-1zM34 39h1v1h-1zM35 39h1v1h-1zM36 39h1v1h-1zM37 39h1v1h-1zM38 39h1v1h-1zM39 39h1v1h-1zM40 39h1v1h-1zM41 39h1v1h-1zM42 39h1v1h-1zM43 39h1v1h-1z"/><path fill="#94CEE3" d="M44 39h1v1h-1z"/><path fill="#97D1E5" d="M45 39h1v1h-1z"/><path fill="#99D3E8" d="M46 39h1v1h-1z"/><path fill="#9CD5EB" d="M47 39h1v1h-1z"/><path fill="#9FD8EE" d="M48 39h1v1h-1zM49 39h1v1h-1zM50 39h1v1h-1zM51 39h1v1h-1zM52 39h1v1h-1zM53 39h1v1h-1zM54 39h1v1h-1zM55 39h1v1h-1zM56 39h1v1h-1zM57 39h1v1h-1zM58 39h1v1h-1zM59 39h1v1h-1zM60 39h1v1h-1zM61 39h1v1h-1zM62 39h1v1h-1zM63 39h1v1h-1zM64 39h1v1h-1zM65 39h1v1h-1zM66 39h1v1h-1zM67 39h1v1h-1zM68 39h1v1h-1zM69 39h1v1h-1z"/><path fill="#9CD5EB" d="M70 39h1v1h-1z"/><path fill="#75ACCB" d="M71 39h1v1h-1z"/><path fill="#6BA2C3" d="M72 39h1v1h-1zM73 39h1v1h-1zM74 39h1v1h-1z"/><path fill="#3E4C56" d="M75 39h1v1h-1z"/><path fill="#231815" d="M76 39h1v1h-1zM77 39h1v1h-1zM78 39h1v1h-1zM79 39h1v1h-1zM2 40h1v1H2zM3 40h1v1H3zM4 40h1v1H4z"/><path fill="#343130" d="M5 40h1v1H5z"/><path fill="#AEDDEF" d="M6 40h1v1H6zM7 40h1v1H7z"/><path fill="#AADCEF" d="M8 40h1v1H8z"/><path fill="#9FD8EE" d="M9 40h1v1H9z"/><path fill="#92CCE0" d="M10 40h1v1h-1zM11 40h1v1h-1zM12 40h1v1h-1zM13 40h1v1h-1zM14 40h1v1h-1z"/><path fill="#9CD5EB" d="M15 40h1v1h-1z"/><path fill="#9FD8EE" d="M16 40h1v1h-1zM17 40h1v1h-1zM18 40h1v1h-1zM19 40h1v1h-1zM20 40h1v1h-1zM21 40h1v1h-1zM22 40h1v1h-1zM23 40h1v1h-1zM24 40h1v1h-1z"/><path fill="#9ED7ED" d="M25 40h1v1h-1z"/><path fill="#9AD4E9" d="M26 40h1v1h-1z"/><path fill="#94CEE3" d="M27 40h1v1h-1z"/><path fill="#92CCE0" d="M28 40h1v1h-1zM29 40h1v1h-1zM30 40h1v1h-1zM31 40h1v1h-1zM32 40h1v1h-1zM33 40h1v1h-1zM34 40h1v1h-1zM35 40h1v1h-1zM36 40h1v1h-1zM37 40h1v1h-1zM38 40h1v1h-1zM39 40h1v1h-1zM40 40h1v1h-1zM41 40h1v1h-1zM42 40h1v1h-1zM43 40h1v1h-1zM44 40h1v1h-1zM45 40h1v1h-1zM46 40h1v1h-1zM47 40h1v1h-1zM48 40h1v1h-1z"/><path fill="#94CEE3" d="M49 40h1v1h-1z"/><path fill="#97D1E5" d="M50 40h1v1h-1z"/><path fill="#99D2E7" d="M51 40h1v1h-1z"/><path fill="#9CD5EB" d="M52 40h1v1h-1z"/><path fill="#9DD7EC" d="M53 40h1v1h-1z"/><path fill="#9FD8EE" d="M54 40h1v1h-1zM55 40h1v1h-1zM56 40h1v1h-1zM57 40h1v1h-1zM58 40h1v1h-1zM59 40h1v1h-1zM60 40h1v1h-1zM61 40h1v1h-1zM62 40h1v1h-1zM63 40h1v1h-1zM64 40h1v1h-1zM65 40h1v1h-1zM66 40h1v1h-1zM67 40h1v1h-1zM68 40h1v1h-1z"/><path fill="#95CEE6" d="M69 40h1v1h-1z"/><path fill="#72A9C8" d="M70 40h1v1h-1z"/><path fill="#6BA2C3" d="M71 40h1v1h-1zM72 40h1v1h-1zM73 40h1v1h-1z"/><path fill="#3E4C56" d="M74 40h1v1h-1z"/><path fill="#231815" d="M75 40h1v1h-1zM76 40h1v1h-1zM77 40h1v1h-1zM78 40h1v1h-1zM2 41h1v1H2zM3 41h1v1H3zM4 41h1v1H4z"/><path fill="#718790" d="M5 41h1v1H5z"/><path fill="#AEDDEF" d="M6 41h1v1H6zM7 41h1v1H7z"/><path fill="#A3D9EE" d="M8 41h1v1H8z"/><path fill="#9DD6EB" d="M9 41h1v1H9z"/><path fill="#92CCE0" d="M10 41h1v1h-1zM11 41h1v1h-1zM12 41h1v1h-1zM13 41h1v1h-1zM14 41h1v1h-1z"/><path fill="#9DD6EB" d="M15 41h1v1h-1z"/><path fill="#9FD8EE" d="M16 41h1v1h-1zM17 41h1v1h-1zM18 41h1v1h-1zM19 41h1v1h-1zM20 41h1v1h-1zM21 41h1v1h-1zM22 41h1v1h-1zM23 41h1v1h-1zM24 41h1v1h-1zM25 41h1v1h-1zM26 41h1v1h-1zM27 41h1v1h-1z"/><path fill="#9DD7EC" d="M28 41h1v1h-1z"/><path fill="#99D3E8" d="M29 41h1v1h-1z"/><path fill="#94CEE3" d="M30 41h1v1h-1z"/><path fill="#92CCE0" d="M31 41h1v1h-1zM32 41h1v1h-1zM33 41h1v1h-1zM34 41h1v1h-1zM35 41h1v1h-1zM36 41h1v1h-1zM37 41h1v1h-1zM38 41h1v1h-1zM39 41h1v1h-1zM40 41h1v1h-1zM41 41h1v1h-1zM42 41h1v1h-1zM43 41h1v1h-1zM44 41h1v1h-1zM45 41h1v1h-1zM46 41h1v1h-1zM47 41h1v1h-1zM48 41h1v1h-1zM49 41h1v1h-1zM50 41h1v1h-1zM51 41h1v1h-1zM52 41h1v1h-1zM53 41h1v1h-1zM54 41h1v1h-1z"/><path fill="#94CEE3" d="M55 41h1v1h-1z"/><path fill="#95CFE4" d="M56 41h1v1h-1z"/><path fill="#99D2E7" d="M57 41h1v1h-1zM58 41h1v1h-1z"/><path fill="#9CD5EB" d="M59 41h1v1h-1zM60 41h1v1h-1z"/><path fill="#9FD8EE" d="M61 41h1v1h-1zM62 41h1v1h-1zM63 41h1v1h-1zM64 41h1v1h-1zM65 41h1v1h-1zM66 41h1v1h-1zM67 41h1v1h-1z"/><path fill="#8FC7E1" d="M68 41h1v1h-1z"/><path fill="#6EA5C6" d="M69 41h1v1h-1z"/><path fill="#6BA2C3" d="M70 41h1v1h-1zM71 41h1v1h-1z"/><path fill="#6799B8" d="M72 41h1v1h-1z"/><path fill="#3E4C56" d="M73 41h1v1h-1z"/><path fill="#231815" d="M74 41h1v1h-1zM75 41h1v1h-1zM76 41h1v1h-1zM77 41h1v1h-1zM1 42h1v1H1zM2 42h1v1H2zM3 42h1v1H3zM4 42h1v1H4z"/><path fill="#A5D1E1" d="M5 42h1v1H5z"/><path fill="#AEDDEF" d="M6 42h1v1H6z"/><path fill="#ACDCEF" d="M7 42h1v1H7z"/><path fill="#9FD8EE" d="M8 42h1v1H8z"/><path fill="#9CD5EB" d="M9 42h1v1H9z"/><path fill="#92CCE0" d="M10 42h1v1h-1zM11 42h1v1h-1zM12 42h1v1h-1zM13 42h1v1h-1zM14 42h1v1h-1z"/><path fill="#9DD6EB" d="M15 42h1v1h-1z"/><path fill="#9FD8EE" d="M16 42h1v1h-1zM17 42h1v1h-1zM18 42h1v1h-1zM19 42h1v1h-1zM20 42h1v1h-1zM21 42h1v1h-1zM22 42h1v1h-1zM23 42h1v1h-1zM24 42h1v1h-1zM25 42h1v1h-1zM26 42h1v1h-1zM27 42h1v1h-1zM28 42h1v1h-1zM29 42h1v1h-1zM30 42h1v1h-1z"/><path fill="#9DD7EC" d="M31 42h1v1h-1z"/><path fill="#99D3E8" d="M32 42h1v1h-1z"/><path fill="#96D0E4" d="M33 42h1v1h-1z"/><path fill="#92CCE0" d="M34 42h1v1h-1zM35 42h1v1h-1zM36 42h1v1h-1zM37 42h1v1h-1zM38 42h1v1h-1zM39 42h1v1h-1zM40 42h1v1h-1zM41 42h1v1h-1zM42 42h1v1h-1zM43 42h1v1h-1zM44 42h1v1h-1zM45 42h1v1h-1zM46 42h1v1h-1zM47 42h1v1h-1zM48 42h1v1h-1zM49 42h1v1h-1zM50 42h1v1h-1zM51 42h1v1h-1zM52 42h1v1h-1zM53 42h1v1h-1zM54 42h1v1h-1zM55 42h1v1h-1zM56 42h1v1h-1zM57 42h1v1h-1zM58 42h1v1h-1zM59 42h1v1h-1zM60 42h1v1h-1zM61 42h1v1h-1zM62 42h1v1h-1z"/><path fill="#94CEE3" d="M63 42h1v1h-1z"/><path fill="#95CFE4" d="M64 42h1v1h-1zM65 42h1v1h-1z"/><path fill="#99D2E7" d="M66 42h1v1h-1z"/><path fill="#81B9D5" d="M67 42h1v1h-1z"/><path fill="#6BA2C3" d="M68 42h1v1h-1zM69 42h1v1h-1zM70 42h1v1h-1z"/><path fill="#6799B8" d="M71 42h1v1h-1z"/><path fill="#313236" d="M72 42h1v1h-1z"/><path fill="#231815" d="M73 42h1v1h-1zM74 42h1v1h-1zM75 42h1v1h-1zM76 42h1v1h-1zM77 42h1v1h-1zM1 43h1v1H1zM2 43h1v1H2zM3 43h1v1H3z"/><path fill="#46494C" d="M4 43h1v1H4z"/><path fill="#AEDDEF" d="M5 43h1v1H5zM6 43h1v1H6z"/><path fill="#A6DAEE" d="M7 43h1v1H7z"/><path fill="#9FD8EE" d="M8 43h1v1H8z"/><path fill="#99D3E8" d="M9 43h1v1H9z"/><path fill="#92CCE0" d="M10 43h1v1h-1zM11 43h1v1h-1zM12 43h1v1h-1zM13 43h1v1h-1zM14 43h1v1h-1z"/><path fill="#93CDE1" d="M15 43h1v1h-1z"/><path fill="#99D3E8" d="M16 43h1v1h-1z"/><path fill="#9FD8EE" d="M17 43h1v1h-1zM18 43h1v1h-1zM19 43h1v1h-1zM20 43h1v1h-1zM21 43h1v1h-1zM22 43h1v1h-1zM23 43h1v1h-1zM24 43h1v1h-1zM25 43h1v1h-1zM26 43h1v1h-1zM27 43h1v1h-1zM28 43h1v1h-1zM29 43h1v1h-1zM30 43h1v1h-1zM31 43h1v1h-1zM32 43h1v1h-1zM33 43h1v1h-1zM34 43h1v1h-1z"/><path fill="#9BD4EA" d="M35 43h1v1h-1z"/><path fill="#98D1E6" d="M36 43h1v1h-1z"/><path fill="#94CEE3" d="M37 43h1v1h-1z"/><path fill="#92CCE0" d="M38 43h1v1h-1zM39 43h1v1h-1zM40 43h1v1h-1zM41 43h1v1h-1zM42 43h1v1h-1zM43 43h1v1h-1zM44 43h1v1h-1zM45 43h1v1h-1zM46 43h1v1h-1zM47 43h1v1h-1zM48 43h1v1h-1zM49 43h1v1h-1zM50 43h1v1h-1zM51 43h1v1h-1zM52 43h1v1h-1zM53 43h1v1h-1zM54 43h1v1h-1zM55 43h1v1h-1zM56 43h1v1h-1zM57 43h1v1h-1zM58 43h1v1h-1zM59 43h1v1h-1zM60 43h1v1h-1zM61 43h1v1h-1zM62 43h1v1h-1zM63 43h1v1h-1zM64 43h1v1h-1z"/><path fill="#8BC4DB" d="M65 43h1v1h-1z"/><path fill="#72AAC8" d="M66 43h1v1h-1z"/><path fill="#6BA2C3" d="M67 43h1v1h-1zM68 43h1v1h-1zM69 43h1v1h-1z"/><path fill="#5E88A2" d="M70 43h1v1h-1z"/><path fill="#2C292B" d="M71 43h1v1h-1z"/><path fill="#231815" d="M72 43h1v1h-1zM73 43h1v1h-1zM74 43h1v1h-1zM75 43h1v1h-1zM1 44h1v1H1zM2 44h1v1H2zM3 44h1v1H3z"/><path fill="#718790" d="M4 44h1v1H4z"/><path fill="#AEDDEF" d="M5 44h1v1H5zM6 44h1v1H6z"/><path fill="#A0D8EE" d="M7 44h1v1H7z"/><path fill="#9FD8EE" d="M8 44h1v1H8z"/><path fill="#99D2E7" d="M9 44h1v1H9z"/><path fill="#92CCE0" d="M10 44h1v1h-1zM11 44h1v1h-1zM12 44h1v1h-1zM13 44h1v1h-1zM14 44h1v1h-1zM15 44h1v1h-1zM16 44h1v1h-1z"/><path fill="#94CEE3" d="M17 44h1v1h-1z"/><path fill="#9CD5EB" d="M18 44h1v1h-1z"/><path fill="#9FD8EE" d="M19 44h1v1h-1zM20 44h1v1h-1zM21 44h1v1h-1zM22 44h1v1h-1zM23 44h1v1h-1zM24 44h1v1h-1zM25 44h1v1h-1zM26 44h1v1h-1zM27 44h1v1h-1zM28 44h1v1h-1zM29 44h1v1h-1zM30 44h1v1h-1zM31 44h1v1h-1zM32 44h1v1h-1zM33 44h1v1h-1zM34 44h1v1h-1zM35 44h1v1h-1zM36 44h1v1h-1zM37 44h1v1h-1z"/><path fill="#9ED7ED" d="M38 44h1v1h-1z"/><path fill="#9CD5EB" d="M39 44h1v1h-1z"/><path fill="#99D2E7" d="M40 44h1v1h-1z"/><path fill="#95CFE4" d="M41 44h1v1h-1z"/><path fill="#93CDE1" d="M42 44h1v1h-1z"/><path fill="#92CCE0" d="M43 44h1v1h-1zM44 44h1v1h-1zM45 44h1v1h-1zM46 44h1v1h-1zM47 44h1v1h-1zM48 44h1v1h-1zM49 44h1v1h-1zM50 44h1v1h-1zM51 44h1v1h-1zM52 44h1v1h-1zM53 44h1v1h-1zM54 44h1v1h-1zM55 44h1v1h-1zM56 44h1v1h-1zM57 44h1v1h-1zM58 44h1v1h-1zM59 44h1v1h-1zM60 44h1v1h-1zM61 44h1v1h-1zM62 44h1v1h-1zM63 44h1v1h-1z"/><path fill="#81BAD3" d="M64 44h1v1h-1z"/><path fill="#6DA5C5" d="M65 44h1v1h-1z"/><path fill="#6BA2C3" d="M66 44h1v1h-1zM67 44h1v1h-1zM68 44h1v1h-1z"/><path fill="#506E82" d="M69 44h1v1h-1z"/><path fill="#282120" d="M70 44h1v1h-1z"/><path fill="#231815" d="M71 44h1v1h-1zM72 44h1v1h-1zM73 44h1v1h-1zM74 44h1v1h-1zM1 45h1v1H1zM2 45h1v1H2zM3 45h1v1H3z"/><path fill="#94B8C6" d="M4 45h1v1H4z"/><path fill="#AEDDEF" d="M5 45h1v1H5z"/><path fill="#A9DBEF" d="M6 45h1v1H6z"/><path fill="#9FD8EE" d="M7 45h1v1H7zM8 45h1v1H8z"/><path fill="#99D2E7" d="M9 45h1v1H9z"/><path fill="#92CCE0" d="M10 45h1v1h-1zM11 45h1v1h-1zM12 45h1v1h-1zM13 45h1v1h-1zM14 45h1v1h-1zM15 45h1v1h-1zM16 45h1v1h-1zM17 45h1v1h-1zM18 45h1v1h-1z"/><path fill="#94CEE3" d="M19 45h1v1h-1z"/><path fill="#9AD4E9" d="M20 45h1v1h-1z"/><path fill="#9FD8EE" d="M21 45h1v1h-1zM22 45h1v1h-1zM23 45h1v1h-1zM24 45h1v1h-1zM25 45h1v1h-1zM26 45h1v1h-1zM27 45h1v1h-1zM28 45h1v1h-1zM29 45h1v1h-1zM30 45h1v1h-1zM31 45h1v1h-1zM32 45h1v1h-1zM33 45h1v1h-1zM34 45h1v1h-1zM35 45h1v1h-1zM36 45h1v1h-1zM37 45h1v1h-1zM38 45h1v1h-1zM39 45h1v1h-1zM40 45h1v1h-1zM41 45h1v1h-1zM42 45h1v1h-1z"/><path fill="#9DD6EB" d="M43 45h1v1h-1z"/><path fill="#9BD4EA" d="M44 45h1v1h-1z"/><path fill="#99D2E7" d="M45 45h1v1h-1z"/><path fill="#95CFE4" d="M46 45h1v1h-1z"/><path fill="#94CEE2" d="M47 45h1v1h-1z"/><path fill="#92CCE0" d="M48 45h1v1h-1zM49 45h1v1h-1zM50 45h1v1h-1zM51 45h1v1h-1zM52 45h1v1h-1zM53 45h1v1h-1zM54 45h1v1h-1zM55 45h1v1h-1zM56 45h1v1h-1zM57 45h1v1h-1zM58 45h1v1h-1zM59 45h1v1h-1zM60 45h1v1h-1zM61 45h1v1h-1z"/><path fill="#88C2D9" d="M62 45h1v1h-1z"/><path fill="#72AAC8" d="M63 45h1v1h-1z"/><path fill="#6BA2C3" d="M64 45h1v1h-1zM65 45h1v1h-1zM66 45h1v1h-1z"/><path fill="#6799B8" d="M67 45h1v1h-1z"/><path fill="#435461" d="M68 45h1v1h-1z"/><path fill="#231815" d="M69 45h1v1h-1zM70 45h1v1h-1zM71 45h1v1h-1zM72 45h1v1h-1zM73 45h1v1h-1zM0 46h1v1H0zM1 46h1v1H1zM2 46h1v1H2z"/><path fill="#2C2423" d="M3 46h1v1H3z"/><path fill="#AEDDEF" d="M4 46h1v1H4zM5 46h1v1H5z"/><path fill="#A5DAEE" d="M6 46h1v1H6z"/><path fill="#9FD8EE" d="M7 46h1v1H7zM8 46h1v1H8z"/><path fill="#98D1E6" d="M9 46h1v1H9z"/><path fill="#92CCE0" d="M10 46h1v1h-1zM11 46h1v1h-1zM12 46h1v1h-1zM13 46h1v1h-1zM14 46h1v1h-1zM15 46h1v1h-1zM16 46h1v1h-1zM17 46h1v1h-1zM18 46h1v1h-1zM19 46h1v1h-1zM20 46h1v1h-1z"/><path fill="#93CDE1" d="M21 46h1v1h-1z"/><path fill="#98D1E6" d="M22 46h1v1h-1z"/><path fill="#9DD6EB" d="M23 46h1v1h-1z"/><path fill="#9FD8EE" d="M24 46h1v1h-1zM25 46h1v1h-1zM26 46h1v1h-1zM27 46h1v1h-1zM28 46h1v1h-1zM29 46h1v1h-1zM30 46h1v1h-1zM31 46h1v1h-1zM32 46h1v1h-1zM33 46h1v1h-1zM34 46h1v1h-1zM35 46h1v1h-1zM36 46h1v1h-1zM37 46h1v1h-1zM38 46h1v1h-1zM39 46h1v1h-1zM40 46h1v1h-1zM41 46h1v1h-1zM42 46h1v1h-1zM43 46h1v1h-1zM44 46h1v1h-1zM45 46h1v1h-1zM46 46h1v1h-1zM47 46h1v1h-1zM48 46h1v1h-1z"/><path fill="#9CD5EB" d="M49 46h1v1h-1zM50 46h1v1h-1z"/><path fill="#99D2E7" d="M51 46h1v1h-1zM52 46h1v1h-1z"/><path fill="#95CFE4" d="M53 46h1v1h-1zM54 46h1v1h-1z"/><path fill="#93CDE1" d="M55 46h1v1h-1z"/><path fill="#92CCE0" d="M56 46h1v1h-1zM57 46h1v1h-1zM58 46h1v1h-1zM59 46h1v1h-1z"/><path fill="#8DC7DC" d="M60 46h1v1h-1z"/><path fill="#7AB2CE" d="M61 46h1v1h-1z"/><path fill="#6BA2C3" d="M62 46h1v1h-1zM63 46h1v1h-1zM64 46h1v1h-1zM65 46h1v1h-1z"/><path fill="#5E88A2" d="M66 46h1v1h-1z"/><path fill="#313236" d="M67 46h1v1h-1z"/><path fill="#231815" d="M68 46h1v1h-1zM69 46h1v1h-1zM70 46h1v1h-1zM71 46h1v1h-1zM72 46h1v1h-1zM0 47h1v1H0zM1 47h1v1H1zM2 47h1v1H2z"/><path fill="#46494C" d="M3 47h1v1H3z"/><path fill="#AEDDEF" d="M4 47h1v1H4zM5 47h1v1H5z"/><path fill="#A0D8EE" d="M6 47h1v1H6z"/><path fill="#9FD8EE" d="M7 47h1v1H7zM8 47h1v1H8z"/><path fill="#9ED7ED" d="M9 47h1v1H9z"/><path fill="#99D2E7" d="M10 47h1v1h-1z"/><path fill="#92CCE0" d="M11 47h1v1h-1zM12 47h1v1h-1zM13 47h1v1h-1zM14 47h1v1h-1zM15 47h1v1h-1zM16 47h1v1h-1zM17 47h1v1h-1zM18 47h1v1h-1zM19 47h1v1h-1zM20 47h1v1h-1zM21 47h1v1h-1zM22 47h1v1h-1zM23 47h1v1h-1z"/><path fill="#94CEE2" d="M24 47h1v1h-1z"/><path fill="#98D1E6" d="M25 47h1v1h-1z"/><path fill="#9DD6EB" d="M26 47h1v1h-1z"/><path fill="#9FD8EE" d="M27 47h1v1h-1zM28 47h1v1h-1zM29 47h1v1h-1zM30 47h1v1h-1zM31 47h1v1h-1zM32 47h1v1h-1zM33 47h1v1h-1zM34 47h1v1h-1zM35 47h1v1h-1zM36 47h1v1h-1zM37 47h1v1h-1zM38 47h1v1h-1zM39 47h1v1h-1zM40 47h1v1h-1zM41 47h1v1h-1zM42 47h1v1h-1zM43 47h1v1h-1zM44 47h1v1h-1zM45 47h1v1h-1zM46 47h1v1h-1zM47 47h1v1h-1zM48 47h1v1h-1zM49 47h1v1h-1zM50 47h1v1h-1zM51 47h1v1h-1zM52 47h1v1h-1zM53 47h1v1h-1zM54 47h1v1h-1zM55 47h1v1h-1zM56 47h1v1h-1zM57 47h1v1h-1z"/><path fill="#99D2E9" d="M58 47h1v1h-1z"/><path fill="#82BAD5" d="M59 47h1v1h-1z"/><path fill="#6DA5C5" d="M60 47h1v1h-1z"/><path fill="#6BA2C3" d="M61 47h1v1h-1zM62 47h1v1h-1zM63 47h1v1h-1z"/><path fill="#6799B8" d="M64 47h1v1h-1z"/><path fill="#475D6C" d="M65 47h1v1h-1z"/><path fill="#231815" d="M66 47h1v1h-1zM67 47h1v1h-1zM68 47h1v1h-1zM69 47h1v1h-1zM70 47h1v1h-1zM71 47h1v1h-1zM0 48h1v1H0zM1 48h1v1H1zM2 48h1v1H2z"/><path fill="#697B82" d="M3 48h1v1H3z"/><path fill="#AEDDEF" d="M4 48h1v1H4z"/><path fill="#AADCEF" d="M5 48h1v1H5z"/><path fill="#9FD8EE" d="M6 48h1v1H6zM7 48h1v1H7zM8 48h1v1H8zM9 48h1v1H9zM10 48h1v1h-1z"/><path fill="#9DD7EC" d="M11 48h1v1h-1z"/><path fill="#97D1E5" d="M12 48h1v1h-1z"/><path fill="#92CCE0" d="M13 48h1v1h-1zM14 48h1v1h-1zM15 48h1v1h-1zM16 48h1v1h-1zM17 48h1v1h-1zM18 48h1v1h-1zM19 48h1v1h-1zM20 48h1v1h-1zM21 48h1v1h-1zM22 48h1v1h-1zM23 48h1v1h-1zM24 48h1v1h-1zM25 48h1v1h-1zM26 48h1v1h-1z"/><path fill="#94CEE2" d="M27 48h1v1h-1z"/><path fill="#97D1E5" d="M28 48h1v1h-1z"/><path fill="#9BD4EA" d="M29 48h1v1h-1z"/><path fill="#9ED7ED" d="M30 48h1v1h-1z"/><path fill="#9FD8EE" d="M31 48h1v1h-1zM32 48h1v1h-1zM33 48h1v1h-1zM34 48h1v1h-1zM35 48h1v1h-1zM36 48h1v1h-1zM37 48h1v1h-1zM38 48h1v1h-1zM39 48h1v1h-1zM40 48h1v1h-1zM41 48h1v1h-1zM42 48h1v1h-1zM43 48h1v1h-1zM44 48h1v1h-1zM45 48h1v1h-1zM46 48h1v1h-1zM47 48h1v1h-1zM48 48h1v1h-1zM49 48h1v1h-1zM50 48h1v1h-1zM51 48h1v1h-1zM52 48h1v1h-1zM53 48h1v1h-1zM54 48h1v1h-1zM55 48h1v1h-1z"/><path fill="#9CD5EB" d="M56 48h1v1h-1z"/><path fill="#85BDD9" d="M57 48h1v1h-1z"/><path fill="#6EA5C6" d="M58 48h1v1h-1z"/><path fill="#6BA2C3" d="M59 48h1v1h-1zM60 48h1v1h-1zM61 48h1v1h-1zM62 48h1v1h-1z"/><path fill="#598098" d="M63 48h1v1h-1z"/><path fill="#2C292B" d="M64 48h1v1h-1z"/><path fill="#231815" d="M65 48h1v1h-1zM66 48h1v1h-1zM67 48h1v1h-1zM68 48h1v1h-1zM69 48h1v1h-1zM0 49h1v1H0zM1 49h1v1H1zM2 49h1v1H2z"/><path fill="#697B82" d="M3 49h1v1H3z"/><path fill="#AEDDEF" d="M4 49h1v1H4z"/><path fill="#A6DAEE" d="M5 49h1v1H5z"/><path fill="#9FD8EE" d="M6 49h1v1H6zM7 49h1v1H7zM8 49h1v1H8zM9 49h1v1H9zM10 49h1v1h-1zM11 49h1v1h-1zM12 49h1v1h-1z"/><path fill="#9DD7EC" d="M13 49h1v1h-1z"/><path fill="#97D1E5" d="M14 49h1v1h-1z"/><path fill="#92CCE0" d="M15 49h1v1h-1zM16 49h1v1h-1zM17 49h1v1h-1zM18 49h1v1h-1zM19 49h1v1h-1zM20 49h1v1h-1zM21 49h1v1h-1zM22 49h1v1h-1zM23 49h1v1h-1zM24 49h1v1h-1zM25 49h1v1h-1zM26 49h1v1h-1zM27 49h1v1h-1zM28 49h1v1h-1zM29 49h1v1h-1zM30 49h1v1h-1z"/><path fill="#94CEE3" d="M31 49h1v1h-1z"/><path fill="#98D1E6" d="M32 49h1v1h-1z"/><path fill="#9BD4EA" d="M33 49h1v1h-1z"/><path fill="#9DD7EC" d="M34 49h1v1h-1z"/><path fill="#9FD8EE" d="M35 49h1v1h-1zM36 49h1v1h-1zM37 49h1v1h-1zM38 49h1v1h-1zM39 49h1v1h-1zM40 49h1v1h-1zM41 49h1v1h-1zM42 49h1v1h-1zM43 49h1v1h-1zM44 49h1v1h-1zM45 49h1v1h-1zM46 49h1v1h-1zM47 49h1v1h-1zM48 49h1v1h-1zM49 49h1v1h-1zM50 49h1v1h-1zM51 49h1v1h-1zM52 49h1v1h-1zM53 49h1v1h-1z"/><path fill="#99D1E9" d="M54 49h1v1h-1z"/><path fill="#7FB6D3" d="M55 49h1v1h-1z"/><path fill="#6EA5C6" d="M56 49h1v1h-1z"/><path fill="#6BA2C3" d="M57 49h1v1h-1zM58 49h1v1h-1zM59 49h1v1h-1zM60 49h1v1h-1z"/><path fill="#6291AD" d="M61 49h1v1h-1z"/><path fill="#353B41" d="M62 49h1v1h-1z"/><path fill="#231815" d="M63 49h1v1h-1zM64 49h1v1h-1zM65 49h1v1h-1zM66 49h1v1h-1zM67 49h1v1h-1zM68 49h1v1h-1zM0 50h1v1H0zM1 50h1v1H1zM2 50h1v1H2z"/><path fill="#8BACB9" d="M3 50h1v1H3z"/><path fill="#AEDDEF" d="M4 50h1v1H4z"/><path fill="#A2D9EE" d="M5 50h1v1H5z"/><path fill="#9FD8EE" d="M6 50h1v1H6zM7 50h1v1H7zM8 50h1v1H8zM9 50h1v1H9zM10 50h1v1h-1zM11 50h1v1h-1zM12 50h1v1h-1zM13 50h1v1h-1zM14 50h1v1h-1z"/><path fill="#9ED7ED" d="M15 50h1v1h-1z"/><path fill="#99D2E7" d="M16 50h1v1h-1z"/><path fill="#94CEE2" d="M17 50h1v1h-1z"/><path fill="#92CCE0" d="M18 50h1v1h-1zM19 50h1v1h-1zM20 50h1v1h-1zM21 50h1v1h-1zM22 50h1v1h-1zM23 50h1v1h-1zM24 50h1v1h-1zM25 50h1v1h-1zM26 50h1v1h-1zM27 50h1v1h-1zM28 50h1v1h-1zM29 50h1v1h-1zM30 50h1v1h-1zM31 50h1v1h-1zM32 50h1v1h-1zM33 50h1v1h-1zM34 50h1v1h-1z"/><path fill="#93CDE1" d="M35 50h1v1h-1z"/><path fill="#95CFE4" d="M36 50h1v1h-1z"/><path fill="#99D2E7" d="M37 50h1v1h-1z"/><path fill="#9BD4EA" d="M38 50h1v1h-1z"/><path fill="#9DD7EC" d="M39 50h1v1h-1z"/><path fill="#9FD8EE" d="M40 50h1v1h-1zM41 50h1v1h-1zM42 50h1v1h-1zM43 50h1v1h-1zM44 50h1v1h-1zM45 50h1v1h-1zM46 50h1v1h-1zM47 50h1v1h-1zM48 50h1v1h-1zM49 50h1v1h-1zM50 50h1v1h-1zM51 50h1v1h-1z"/><path fill="#8FC7E1" d="M52 50h1v1h-1z"/><path fill="#78B0CE" d="M53 50h1v1h-1z"/><path fill="#6BA2C3" d="M54 50h1v1h-1zM55 50h1v1h-1zM56 50h1v1h-1zM57 50h1v1h-1zM58 50h1v1h-1z"/><path fill="#6291AD" d="M59 50h1v1h-1z"/><path fill="#3E4C56" d="M60 50h1v1h-1z"/><path fill="#231815" d="M61 50h1v1h-1zM62 50h1v1h-1zM63 50h1v1h-1zM64 50h1v1h-1zM65 50h1v1h-1zM66 50h1v1h-1zM0 51h1v1H0zM1 51h1v1H1zM2 51h1v1H2z"/><path fill="#8BACB9" d="M3 51h1v1H3z"/><path fill="#ADDDEF" d="M4 51h1v1H4z"/><path fill="#9FD8EE" d="M5 51h1v1H5zM6 51h1v1H6zM7 51h1v1H7zM8 51h1v1H8zM9 51h1v1H9zM10 51h1v1h-1zM11 51h1v1h-1zM12 51h1v1h-1zM13 51h1v1h-1zM14 51h1v1h-1zM15 51h1v1h-1zM16 51h1v1h-1zM17 51h1v1h-1z"/><path fill="#9BD4EA" d="M18 51h1v1h-1z"/><path fill="#96D0E4" d="M19 51h1v1h-1z"/><path fill="#92CCE0" d="M20 51h1v1h-1zM21 51h1v1h-1zM22 51h1v1h-1zM23 51h1v1h-1zM24 51h1v1h-1zM25 51h1v1h-1zM26 51h1v1h-1zM27 51h1v1h-1zM28 51h1v1h-1zM29 51h1v1h-1zM30 51h1v1h-1zM31 51h1v1h-1zM32 51h1v1h-1zM33 51h1v1h-1zM34 51h1v1h-1zM35 51h1v1h-1zM36 51h1v1h-1zM37 51h1v1h-1zM38 51h1v1h-1zM39 51h1v1h-1zM40 51h1v1h-1z"/><path fill="#95CFE4" d="M41 51h1v1h-1z"/><path fill="#97D1E5" d="M42 51h1v1h-1z"/><path fill="#99D2E7" d="M43 51h1v1h-1z"/><path fill="#9BD4EA" d="M44 51h1v1h-1z"/><path fill="#9CD5EB" d="M45 51h1v1h-1z"/><path fill="#9FD8EE" d="M46 51h1v1h-1zM47 51h1v1h-1zM48 51h1v1h-1z"/><path fill="#95CEE6" d="M49 51h1v1h-1z"/><path fill="#82BAD6" d="M50 51h1v1h-1z"/><path fill="#6EA5C6" d="M51 51h1v1h-1z"/><path fill="#6BA2C3" d="M52 51h1v1h-1zM53 51h1v1h-1zM54 51h1v1h-1zM55 51h1v1h-1zM56 51h1v1h-1z"/><path fill="#6291AD" d="M57 51h1v1h-1z"/><path fill="#3E4C56" d="M58 51h1v1h-1z"/><path fill="#231815" d="M59 51h1v1h-1zM60 51h1v1h-1zM61 51h1v1h-1zM62 51h1v1h-1zM63 51h1v1h-1zM64 51h1v1h-1zM65 51h1v1h-1zM0 52h1v1H0zM1 52h1v1H1zM2 52h1v1H2z"/><path fill="#7FA1B0" d="M3 52h1v1H3z"/><path fill="#9ACDE4" d="M4 52h1v1H4z"/><path fill="#92CBE3" d="M5 52h1v1H5z"/><path fill="#9CD5EB" d="M6 52h1v1H6z"/><path fill="#9FD8EE" d="M7 52h1v1H7zM8 52h1v1H8zM9 52h1v1H9zM10 52h1v1h-1zM11 52h1v1h-1zM12 52h1v1h-1zM13 52h1v1h-1zM14 52h1v1h-1zM15 52h1v1h-1zM16 52h1v1h-1zM17 52h1v1h-1zM18 52h1v1h-1zM19 52h1v1h-1z"/><path fill="#9ED7ED" d="M20 52h1v1h-1z"/><path fill="#9AD4E9" d="M21 52h1v1h-1z"/><path fill="#96D0E4" d="M22 52h1v1h-1z"/><path fill="#92CCE0" d="M23 52h1v1h-1zM24 52h1v1h-1zM25 52h1v1h-1zM26 52h1v1h-1zM27 52h1v1h-1zM28 52h1v1h-1zM29 52h1v1h-1zM30 52h1v1h-1zM31 52h1v1h-1zM32 52h1v1h-1zM33 52h1v1h-1zM34 52h1v1h-1zM35 52h1v1h-1zM36 52h1v1h-1zM37 52h1v1h-1zM38 52h1v1h-1zM39 52h1v1h-1zM40 52h1v1h-1zM41 52h1v1h-1zM42 52h1v1h-1zM43 52h1v1h-1zM44 52h1v1h-1zM45 52h1v1h-1z"/><path fill="#86BFD7" d="M46 52h1v1h-1z"/><path fill="#7DB5D1" d="M47 52h1v1h-1z"/><path fill="#72A9C8" d="M48 52h1v1h-1z"/><path fill="#6BA2C3" d="M49 52h1v1h-1zM50 52h1v1h-1zM51 52h1v1h-1zM52 52h1v1h-1zM53 52h1v1h-1zM54 52h1v1h-1z"/><path fill="#5E88A2" d="M55 52h1v1h-1z"/><path fill="#3E4C56" d="M56 52h1v1h-1z"/><path fill="#231815" d="M57 52h1v1h-1zM58 52h1v1h-1zM59 52h1v1h-1zM60 52h1v1h-1zM61 52h1v1h-1zM62 52h1v1h-1zM63 52h1v1h-1zM0 53h1v1H0zM1 53h1v1H1zM2 53h1v1H2z"/><path fill="#3A434B" d="M3 53h1v1H3z"/><path fill="#6291AD" d="M4 53h1v1H4z"/><path fill="#6BA2C3" d="M5 53h1v1H5zM6 53h1v1H6z"/><path fill="#75ACCB" d="M7 53h1v1H7z"/><path fill="#88C0DB" d="M8 53h1v1H8z"/><path fill="#99D1E9" d="M9 53h1v1H9z"/><path fill="#9FD8EE" d="M10 53h1v1h-1zM11 53h1v1h-1zM12 53h1v1h-1zM13 53h1v1h-1zM14 53h1v1h-1zM15 53h1v1h-1zM16 53h1v1h-1zM17 53h1v1h-1zM18 53h1v1h-1zM19 53h1v1h-1zM20 53h1v1h-1zM21 53h1v1h-1zM22 53h1v1h-1z"/><path fill="#9ED7ED" d="M23 53h1v1h-1z"/><path fill="#9AD4E9" d="M24 53h1v1h-1z"/><path fill="#97D1E5" d="M25 53h1v1h-1z"/><path fill="#93CDE1" d="M26 53h1v1h-1z"/><path fill="#92CCE0" d="M27 53h1v1h-1zM28 53h1v1h-1zM29 53h1v1h-1zM30 53h1v1h-1zM31 53h1v1h-1zM32 53h1v1h-1zM33 53h1v1h-1zM34 53h1v1h-1zM35 53h1v1h-1zM36 53h1v1h-1zM37 53h1v1h-1zM38 53h1v1h-1zM39 53h1v1h-1zM40 53h1v1h-1zM41 53h1v1h-1z"/><path fill="#8BC4DB" d="M42 53h1v1h-1z"/><path fill="#81BAD3" d="M43 53h1v1h-1z"/><path fill="#77AFCC" d="M44 53h1v1h-1z"/><path fill="#6DA5C5" d="M45 53h1v1h-1z"/><path fill="#6BA2C3" d="M46 53h1v1h-1zM47 53h1v1h-1zM48 53h1v1h-1zM49 53h1v1h-1zM50 53h1v1h-1zM51 53h1v1h-1z"/><path fill="#6799B8" d="M52 53h1v1h-1z"/><path fill="#506E82" d="M53 53h1v1h-1z"/><path fill="#313236" d="M54 53h1v1h-1z"/><path fill="#231815" d="M55 53h1v1h-1zM56 53h1v1h-1zM57 53h1v1h-1zM58 53h1v1h-1zM59 53h1v1h-1zM60 53h1v1h-1zM61 53h1v1h-1zM0 54h1v1H0zM1 54h1v1H1zM2 54h1v1H2zM3 54h1v1H3zM4 54h1v1H4z"/><path fill="#3E4C56" d="M5 54h1v1H5z"/><path fill="#598098" d="M6 54h1v1H6z"/><path fill="#6BA2C3" d="M7 54h1v1H7zM8 54h1v1H8zM9 54h1v1H9z"/><path fill="#72A9C8" d="M10 54h1v1h-1z"/><path fill="#7FB6D3" d="M11 54h1v1h-1z"/><path fill="#88C0DB" d="M12 54h1v1h-1z"/><path fill="#92CBE3" d="M13 54h1v1h-1z"/><path fill="#9FD8EE" d="M14 54h1v1h-1zM15 54h1v1h-1zM16 54h1v1h-1zM17 54h1v1h-1zM18 54h1v1h-1zM19 54h1v1h-1zM20 54h1v1h-1zM21 54h1v1h-1zM22 54h1v1h-1zM23 54h1v1h-1zM24 54h1v1h-1zM25 54h1v1h-1zM26 54h1v1h-1z"/><path fill="#9DD6EB" d="M27 54h1v1h-1z"/><path fill="#99D3E8" d="M28 54h1v1h-1z"/><path fill="#96D0E4" d="M29 54h1v1h-1z"/><path fill="#94CEE2" d="M30 54h1v1h-1z"/><path fill="#92CCE0" d="M31 54h1v1h-1zM32 54h1v1h-1zM33 54h1v1h-1zM34 54h1v1h-1zM35 54h1v1h-1zM36 54h1v1h-1z"/><path fill="#8BC4DB" d="M37 54h1v1h-1z"/><path fill="#83BCD5" d="M38 54h1v1h-1z"/><path fill="#7FB7D2" d="M39 54h1v1h-1z"/><path fill="#75ADCA" d="M40 54h1v1h-1z"/><path fill="#6BA2C3" d="M41 54h1v1h-1zM42 54h1v1h-1zM43 54h1v1h-1zM44 54h1v1h-1zM45 54h1v1h-1zM46 54h1v1h-1zM47 54h1v1h-1zM48 54h1v1h-1zM49 54h1v1h-1z"/><path fill="#55778D" d="M50 54h1v1h-1z"/><path fill="#3E4C56" d="M51 54h1v1h-1z"/><path fill="#282120" d="M52 54h1v1h-1z"/><path fill="#231815" d="M53 54h1v1h-1zM54 54h1v1h-1zM55 54h1v1h-1zM56 54h1v1h-1zM57 54h1v1h-1zM58 54h1v1h-1zM59 54h1v1h-1zM0 55h1v1H0zM1 55h1v1H1zM2 55h1v1H2zM3 55h1v1H3zM4 55h1v1H4zM5 55h1v1H5zM6 55h1v1H6z"/><path fill="#2C292B" d="M7 55h1v1H7z"/><path fill="#4C6677" d="M8 55h1v1H8z"/><path fill="#6291AD" d="M9 55h1v1H9z"/><path fill="#6BA2C3" d="M10 55h1v1h-1zM11 55h1v1h-1zM12 55h1v1h-1zM13 55h1v1h-1zM14 55h1v1h-1z"/><path fill="#75ACCB" d="M15 55h1v1h-1z"/><path fill="#78B0CE" d="M16 55h1v1h-1z"/><path fill="#85BDD9" d="M17 55h1v1h-1zM18 55h1v1h-1z"/><path fill="#8FC7E1" d="M19 55h1v1h-1z"/><path fill="#92CBE3" d="M20 55h1v1h-1zM21 55h1v1h-1zM22 55h1v1h-1z"/><path fill="#95CEE6" d="M23 55h1v1h-1z"/><path fill="#9FD8EE" d="M24 55h1v1h-1zM25 55h1v1h-1z"/><path fill="#99D1E9" d="M26 55h1v1h-1z"/><path fill="#92CBE3" d="M27 55h1v1h-1zM28 55h1v1h-1zM29 55h1v1h-1zM30 55h1v1h-1z"/><path fill="#87BFD9" d="M31 55h1v1h-1z"/><path fill="#82BAD5" d="M32 55h1v1h-1z"/><path fill="#7CB4D0" d="M33 55h1v1h-1z"/><path fill="#75ADCA" d="M34 55h1v1h-1z"/><path fill="#70A7C7" d="M35 55h1v1h-1z"/><path fill="#6BA2C3" d="M36 55h1v1h-1zM37 55h1v1h-1zM38 55h1v1h-1zM39 55h1v1h-1zM40 55h1v1h-1zM41 55h1v1h-1zM42 55h1v1h-1zM43 55h1v1h-1zM44 55h1v1h-1zM45 55h1v1h-1zM46 55h1v1h-1z"/><path fill="#55778D" d="M47 55h1v1h-1z"/><path fill="#3E4C56" d="M48 55h1v1h-1z"/><path fill="#282120" d="M49 55h1v1h-1z"/><path fill="#231815" d="M50 55h1v1h-1zM51 55h1v1h-1zM52 55h1v1h-1zM53 55h1v1h-1zM54 55h1v1h-1zM55 55h1v1h-1zM56 55h1v1h-1zM57 55h1v1h-1zM2 56h1v1H2zM3 56h1v1H3zM4 56h1v1H4zM5 56h1v1H5zM6 56h1v1H6zM7 56h1v1H7zM8 56h1v1H8zM9 56h1v1H9z"/><path fill="#313236" d="M10 56h1v1h-1z"/><path fill="#435461" d="M11 56h1v1h-1z"/><path fill="#598098" d="M12 56h1v1h-1z"/><path fill="#6BA2C3" d="M13 56h1v1h-1zM14 56h1v1h-1zM15 56h1v1h-1zM16 56h1v1h-1zM17 56h1v1h-1zM18 56h1v1h-1zM19 56h1v1h-1zM20 56h1v1h-1zM21 56h1v1h-1zM22 56h1v1h-1zM23 56h1v1h-1zM24 56h1v1h-1zM25 56h1v1h-1zM26 56h1v1h-1zM27 56h1v1h-1zM28 56h1v1h-1zM29 56h1v1h-1zM30 56h1v1h-1zM31 56h1v1h-1zM32 56h1v1h-1zM33 56h1v1h-1zM34 56h1v1h-1zM35 56h1v1h-1zM36 56h1v1h-1zM37 56h1v1h-1zM38 56h1v1h-1zM39 56h1v1h-1zM40 56h1v1h-1zM41 56h1v1h-1zM42 56h1v1h-1z"/><path fill="#5E88A2" d="M43 56h1v1h-1z"/><path fill="#4C6677" d="M44 56h1v1h-1z"/><path fill="#3A434B" d="M45 56h1v1h-1z"/><path fill="#231815" d="M46 56h1v1h-1zM47 56h1v1h-1zM48 56h1v1h-1zM49 56h1v1h-1zM50 56h1v1h-1zM51 56h1v1h-1zM52 56h1v1h-1zM53 56h1v1h-1zM54 56h1v1h-1zM55 56h1v1h-1zM4 57h1v1H4zM5 57h1v1H5zM6 57h1v1H6zM7 57h1v1H7zM8 57h1v1H8zM9 57h1v1H9zM10 57h1v1h-1zM11 57h1v1h-1zM12 57h1v1h-1zM13 57h1v1h-1z"/><path fill="#353B41" d="M14 57h1v1h-1z"/><path fill="#475D6C" d="M15 57h1v1h-1z"/><path fill="#55778D" d="M16 57h1v1h-1z"/><path fill="#5E88A2" d="M17 57h1v1h-1z"/><path fill="#6BA2C3" d="M18 57h1v1h-1zM19 57h1v1h-1zM20 57h1v1h-1zM21 57h1v1h-1zM22 57h1v1h-1zM23 57h1v1h-1zM24 57h1v1h-1zM25 57h1v1h-1zM26 57h1v1h-1zM27 57h1v1h-1zM28 57h1v1h-1zM29 57h1v1h-1zM30 57h1v1h-1zM31 57h1v1h-1zM32 57h1v1h-1zM33 57h1v1h-1zM34 57h1v1h-1zM35 57h1v1h-1zM36 57h1v1h-1zM37 57h1v1h-1z"/><path fill="#598098" d="M38 57h1v1h-1z"/><path fill="#506E82" d="M39 57h1v1h-1z"/><path fill="#435461" d="M40 57h1v1h-1z"/><path fill="#353B41" d="M41 57h1v1h-1z"/><path fill="#231815" d="M42 57h1v1h-1zM43 57h1v1h-1zM44 57h1v1h-1zM45 57h1v1h-1zM46 57h1v1h-1zM47 57h1v1h-1zM48 57h1v1h-1zM49 57h1v1h-1zM50 57h1v1h-1zM51 57h1v1h-1zM52 57h1v1h-1zM6 58h1v1H6zM7 58h1v1H7zM8 58h1v1H8zM9 58h1v1H9zM10 58h1v1h-1zM11 58h1v1h-1zM12 58h1v1h-1zM13 58h1v1h-1zM14 58h1v1h-1zM15 58h1v1h-1zM16 58h1v1h-1zM17 58h1v1h-1zM18 58h1v1h-1z"/><path fill="#313236" d="M19 58h1v1h-1z"/><path fill="#353B41" d="M20 58h1v1h-1z"/><path fill="#435461" d="M21 58h1v1h-1z"/><path fill="#475D6C" d="M22 58h1v1h-1zM23 58h1v1h-1z"/><path fill="#506E82" d="M24 58h1v1h-1z"/><path fill="#598098" d="M25 58h1v1h-1zM26 58h1v1h-1zM27 58h1v1h-1zM28 58h1v1h-1zM29 58h1v1h-1z"/><path fill="#55778D" d="M30 58h1v1h-1z"/><path fill="#475D6C" d="M31 58h1v1h-1zM32 58h1v1h-1zM33 58h1v1h-1z"/><path fill="#353B41" d="M34 58h1v1h-1zM35 58h1v1h-1z"/><path fill="#282120" d="M36 58h1v1h-1z"/><path fill="#231815" d="M37 58h1v1h-1zM38 58h1v1h-1zM39 58h1v1h-1zM40 58h1v1h-1zM41 58h1v1h-1zM42 58h1v1h-1zM43 58h1v1h-1zM44 58h1v1h-1zM45 58h1v1h-1zM46 58h1v1h-1zM47 58h1v1h-1zM48 58h1v1h-1zM49 58h1v1h-1zM9 59h1v1H9zM10 59h1v1h-1zM11 59h1v1h-1zM12 59h1v1h-1zM13 59h1v1h-1zM14 59h1v1h-1zM15 59h1v1h-1zM16 59h1v1h-1zM17 59h1v1h-1zM18 59h1v1h-1zM19 59h1v1h-1zM20 59h1v1h-1zM21 59h1v1h-1zM22 59h1v1h-1zM23 59h1v1h-1zM24 59h1v1h-1zM25 59h1v1h-1zM26 59h1v1h-1zM27 59h1v1h-1zM28 59h1v1h-1zM29 59h1v1h-1zM30 59h1v1h-1zM31 59h1v1h-1zM32 59h1v1h-1zM33 59h1v1h-1zM34 59h1v1h-1zM35 59h1v1h-1zM36 59h1v1h-1zM37 59h1v1h-1zM38 59h1v1h-1zM39 59h1v1h-1zM40 59h1v1h-1zM41 59h1v1h-1zM42 59h1v1h-1zM43 59h1v1h-1zM44 59h1v1h-1zM45 59h1v1h-1zM46 59h1v1h-1zM13 60h1v1h-1zM14 60h1v1h-1zM15 60h1v1h-1zM16 60h1v1h-1zM17 60h1v1h-1zM18 60h1v1h-1zM19 60h1v1h-1zM20 60h1v1h-1zM21 60h1v1h-1zM22 60h1v1h-1zM23 60h1v1h-1zM24 60h1v1h-1zM25 60h1v1h-1zM26 60h1v1h-1zM27 60h1v1h-1zM28 60h1v1h-1zM29 60h1v1h-1zM30 60h1v1h-1zM31 60h1v1h-1zM32 60h1v1h-1zM33 60h1v1h-1zM34 60h1v1h-1zM35 60h1v1h-1zM36 60h1v1h-1zM37 60h1v1h-1zM38 60h1v1h-1zM39 60h1v1h-1zM40 60h1v1h-1zM41 60h1v1h-1zM42 60h1v1h-1zM19 61h1v1h-1zM20 61h1v1h-1zM21 61h1v1h-1zM22 61h1v1h-1zM23 61h1v1h-1zM24 61h1v1h-1zM25 61h1v1h-1zM26 61h1v1h-1zM27 61h1v1h-1zM28 61h1v1h-1zM29 61h1v1h-1zM30 61h1v1h-1zM31 61h1v1h-1zM32 61h1v1h-1zM33 61h1v1h-1zM34 61h1v1h-1zM35 61h1v1h-1zM36 61h1v1h-1z"/></svg>