<svg baseProfile="full" height="80" width="90" xmlns="http://www.w3.org/2000/svg"><path fill="#5B5758" d="M22 0h1v1h-1zM23 0h1v1h-1zM24 0h1v1h-1zM25 0h1v1h-1zM26 0h1v1h-1zM27 0h1v1h-1zM28 0h1v1h-1zM29 0h1v1h-1zM30 0h1v1h-1zM31 0h1v1h-1zM32 0h1v1h-1zM33 0h1v1h-1zM34 0h1v1h-1zM35 0h1v1h-1zM36 0h1v1h-1zM37 0h1v1h-1zM38 0h1v1h-1zM39 0h1v1h-1zM40 0h1v1h-1zM41 0h1v1h-1zM42 0h1v1h-1zM43 0h1v1h-1zM44 0h1v1h-1zM45 0h1v1h-1zM46 0h1v1h-1zM47 0h1v1h-1zM48 0h1v1h-1zM49 0h1v1h-1zM50 0h1v1h-1zM51 0h1v1h-1zM52 0h1v1h-1zM53 0h1v1h-1zM54 0h1v1h-1zM55 0h1v1h-1zM56 0h1v1h-1zM57 0h1v1h-1zM58 0h1v1h-1zM59 0h1v1h-1zM60 0h1v1h-1zM61 0h1v1h-1zM62 0h1v1h-1zM63 0h1v1h-1zM64 0h1v1h-1zM65 0h1v1h-1zM66 0h1v1h-1zM67 0h1v1h-1zM21 1h1v1h-1zM22 1h1v1h-1zM23 1h1v1h-1zM24 1h1v1h-1zM25 1h1v1h-1zM26 1h1v1h-1zM27 1h1v1h-1zM28 1h1v1h-1zM29 1h1v1h-1zM30 1h1v1h-1zM31 1h1v1h-1zM32 1h1v1h-1zM33 1h1v1h-1zM34 1h1v1h-1zM35 1h1v1h-1zM36 1h1v1h-1zM37 1h1v1h-1zM38 1h1v1h-1zM39 1h1v1h-1zM40 1h1v1h-1zM41 1h1v1h-1zM42 1h1v1h-1zM43 1h1v1h-1zM44 1h1v1h-1zM45 1h1v1h-1zM46 1h1v1h-1zM47 1h1v1h-1zM48 1h1v1h-1zM49 1h1v1h-1zM50 1h1v1h-1zM51 1h1v1h-1zM52 1h1v1h-1zM53 1h1v1h-1zM54 1h1v1h-1zM55 1h1v1h-1zM56 1h1v1h-1zM57 1h1v1h-1zM58 1h1v1h-1zM59 1h1v1h-1zM60 1h1v1h-1zM61 1h1v1h-1zM62 1h1v1h-1zM63 1h1v1h-1zM64 1h1v1h-1zM65 1h1v1h-1zM66 1h1v1h-1zM67 1h1v1h-1zM68 1h1v1h-1zM20 2h1v1h-1zM21 2h1v1h-1zM22 2h1v1h-1zM23 2h1v1h-1zM24 2h1v1h-1zM25 2h1v1h-1zM26 2h1v1h-1zM27 2h1v1h-1zM28 2h1v1h-1zM29 2h1v1h-1zM30 2h1v1h-1zM31 2h1v1h-1zM32 2h1v1h-1zM33 2h1v1h-1zM34 2h1v1h-1zM35 2h1v1h-1zM36 2h1v1h-1zM37 2h1v1h-1zM38 2h1v1h-1zM39 2h1v1h-1zM40 2h1v1h-1zM41 2h1v1h-1zM42 2h1v1h-1zM43 2h1v1h-1zM44 2h1v1h-1zM45 2h1v1h-1zM46 2h1v1h-1zM47 2h1v1h-1zM48 2h1v1h-1zM49 2h1v1h-1zM50 2h1v1h-1zM51 2h1v1h-1zM52 2h1v1h-1zM53 2h1v1h-1zM54 2h1v1h-1zM55 2h1v1h-1zM56 2h1v1h-1zM57 2h1v1h-1zM58 2h1v1h-1zM59 2h1v1h-1zM60 2h1v1h-1zM61 2h1v1h-1zM62 2h1v1h-1zM63 2h1v1h-1zM64 2h1v1h-1zM65 2h1v1h-1zM66 2h1v1h-1zM67 2h1v1h-1zM68 2h1v1h-1z"/><path fill="#231815" d="M69 2h1v1h-1z"/><path fill="#5B5758" d="M19 3h1v1h-1zM20 3h1v1h-1zM21 3h1v1h-1zM22 3h1v1h-1zM23 3h1v1h-1zM24 3h1v1h-1zM25 3h1v1h-1zM26 3h1v1h-1zM27 3h1v1h-1zM28 3h1v1h-1zM29 3h1v1h-1zM30 3h1v1h-1zM31 3h1v1h-1zM32 3h1v1h-1zM33 3h1v1h-1zM34 3h1v1h-1zM35 3h1v1h-1zM36 3h1v1h-1zM37 3h1v1h-1zM38 3h1v1h-1zM39 3h1v1h-1zM40 3h1v1h-1zM41 3h1v1h-1zM42 3h1v1h-1zM43 3h1v1h-1zM44 3h1v1h-1zM45 3h1v1h-1zM46 3h1v1h-1zM47 3h1v1h-1zM48 3h1v1h-1zM49 3h1v1h-1zM50 3h1v1h-1zM51 3h1v1h-1zM52 3h1v1h-1zM53 3h1v1h-1zM54 3h1v1h-1zM55 3h1v1h-1zM56 3h1v1h-1zM57 3h1v1h-1zM58 3h1v1h-1zM59 3h1v1h-1zM60 3h1v1h-1zM61 3h1v1h-1zM62 3h1v1h-1zM63 3h1v1h-1zM64 3h1v1h-1zM65 3h1v1h-1zM66 3h1v1h-1zM67 3h1v1h-1zM68 3h1v1h-1z"/><path fill="#342B2A" d="M69 3h1v1h-1z"/><path fill="#231815" d="M70 3h1v1h-1z"/><path fill="#5B5758" d="M18 4h1v1h-1zM19 4h1v1h-1zM20 4h1v1h-1zM21 4h1v1h-1zM22 4h1v1h-1zM23 4h1v1h-1z"/><path fill="#73657B" d="M24 4h1v1h-1z"/><path fill="#8A739F" d="M25 4h1v1h-1zM26 4h1v1h-1zM27 4h1v1h-1zM28 4h1v1h-1zM29 4h1v1h-1z"/><path fill="#8B76A1" d="M30 4h1v1h-1z"/><path fill="#919DBB" d="M31 4h1v1h-1zM32 4h1v1h-1zM33 4h1v1h-1zM34 4h1v1h-1zM35 4h1v1h-1zM36 4h1v1h-1zM37 4h1v1h-1zM38 4h1v1h-1zM39 4h1v1h-1zM40 4h1v1h-1zM41 4h1v1h-1zM42 4h1v1h-1zM43 4h1v1h-1zM44 4h1v1h-1zM45 4h1v1h-1zM46 4h1v1h-1zM47 4h1v1h-1zM48 4h1v1h-1zM49 4h1v1h-1zM50 4h1v1h-1zM51 4h1v1h-1zM52 4h1v1h-1zM53 4h1v1h-1zM54 4h1v1h-1zM55 4h1v1h-1zM56 4h1v1h-1zM57 4h1v1h-1z"/><path fill="#8E8BAF" d="M58 4h1v1h-1z"/><path fill="#8A739F" d="M59 4h1v1h-1zM60 4h1v1h-1zM61 4h1v1h-1zM62 4h1v1h-1zM63 4h1v1h-1z"/><path fill="#79699A" d="M64 4h1v1h-1z"/><path fill="#625B76" d="M65 4h1v1h-1z"/><path fill="#5B5758" d="M66 4h1v1h-1zM67 4h1v1h-1z"/><path fill="#585354" d="M68 4h1v1h-1z"/><path fill="#2A201D" d="M69 4h1v1h-1z"/><path fill="#231815" d="M70 4h1v1h-1zM71 4h1v1h-1z"/><path fill="#5B5758" d="M17 5h1v1h-1zM18 5h1v1h-1zM19 5h1v1h-1zM20 5h1v1h-1zM21 5h1v1h-1zM22 5h1v1h-1z"/><path fill="#73657B" d="M23 5h1v1h-1z"/><path fill="#9A7CB6" d="M24 5h1v1h-1zM25 5h1v1h-1zM26 5h1v1h-1zM27 5h1v1h-1zM28 5h1v1h-1zM29 5h1v1h-1z"/><path fill="#9C8AC0" d="M30 5h1v1h-1z"/><path fill="#A3B4DC" d="M31 5h1v1h-1zM32 5h1v1h-1zM33 5h1v1h-1zM34 5h1v1h-1zM35 5h1v1h-1zM36 5h1v1h-1zM37 5h1v1h-1zM38 5h1v1h-1zM39 5h1v1h-1zM40 5h1v1h-1zM41 5h1v1h-1zM42 5h1v1h-1zM43 5h1v1h-1zM44 5h1v1h-1zM45 5h1v1h-1zM46 5h1v1h-1zM47 5h1v1h-1zM48 5h1v1h-1zM49 5h1v1h-1zM50 5h1v1h-1zM51 5h1v1h-1zM52 5h1v1h-1zM53 5h1v1h-1zM54 5h1v1h-1zM55 5h1v1h-1zM56 5h1v1h-1zM57 5h1v1h-1z"/><path fill="#A2B1DA" d="M58 5h1v1h-1z"/><path fill="#9B80B8" d="M59 5h1v1h-1z"/><path fill="#9A7CB6" d="M60 5h1v1h-1zM61 5h1v1h-1zM62 5h1v1h-1zM63 5h1v1h-1z"/><path fill="#846FB0" d="M64 5h1v1h-1z"/><path fill="#6D61A9" d="M65 5h1v1h-1z"/><path fill="#544B66" d="M66 5h1v1h-1z"/><path fill="#3F3837" d="M67 5h1v1h-1z"/><path fill="#2E2422" d="M68 5h1v1h-1z"/><path fill="#231815" d="M69 5h1v1h-1zM70 5h1v1h-1zM71 5h1v1h-1zM72 5h1v1h-1z"/><path fill="#5B5758" d="M16 6h1v1h-1zM17 6h1v1h-1zM18 6h1v1h-1zM19 6h1v1h-1zM20 6h1v1h-1zM21 6h1v1h-1z"/><path fill="#73657B" d="M22 6h1v1h-1z"/><path fill="#9A7CB6" d="M23 6h1v1h-1zM24 6h1v1h-1zM25 6h1v1h-1zM26 6h1v1h-1zM27 6h1v1h-1zM28 6h1v1h-1zM29 6h1v1h-1z"/><path fill="#9E95C7" d="M30 6h1v1h-1z"/><path fill="#A3B4DC" d="M31 6h1v1h-1zM32 6h1v1h-1zM33 6h1v1h-1zM34 6h1v1h-1zM35 6h1v1h-1zM36 6h1v1h-1zM37 6h1v1h-1zM38 6h1v1h-1zM39 6h1v1h-1zM40 6h1v1h-1zM41 6h1v1h-1zM42 6h1v1h-1zM43 6h1v1h-1zM44 6h1v1h-1zM45 6h1v1h-1zM46 6h1v1h-1zM47 6h1v1h-1zM48 6h1v1h-1zM49 6h1v1h-1zM50 6h1v1h-1zM51 6h1v1h-1zM52 6h1v1h-1zM53 6h1v1h-1zM54 6h1v1h-1zM55 6h1v1h-1zM56 6h1v1h-1zM57 6h1v1h-1zM58 6h1v1h-1z"/><path fill="#9D91C4" d="M59 6h1v1h-1z"/><path fill="#9A7CB6" d="M60 6h1v1h-1zM61 6h1v1h-1zM62 6h1v1h-1zM63 6h1v1h-1z"/><path fill="#7868AC" d="M64 6h1v1h-1z"/><path fill="#6D61A9" d="M65 6h1v1h-1zM66 6h1v1h-1z"/><path fill="#3F334D" d="M67 6h1v1h-1z"/><path fill="#231815" d="M68 6h1v1h-1zM69 6h1v1h-1zM70 6h1v1h-1zM71 6h1v1h-1zM72 6h1v1h-1zM73 6h1v1h-1z"/><path fill="#5B5758" d="M15 7h1v1h-1zM16 7h1v1h-1zM17 7h1v1h-1zM18 7h1v1h-1zM19 7h1v1h-1zM20 7h1v1h-1z"/><path fill="#73657B" d="M21 7h1v1h-1z"/><path fill="#9A7CB6" d="M22 7h1v1h-1zM23 7h1v1h-1zM24 7h1v1h-1zM25 7h1v1h-1zM26 7h1v1h-1zM27 7h1v1h-1zM28 7h1v1h-1zM29 7h1v1h-1z"/><path fill="#9F9CCB" d="M30 7h1v1h-1z"/><path fill="#A3B4DC" d="M31 7h1v1h-1zM32 7h1v1h-1zM33 7h1v1h-1zM34 7h1v1h-1zM35 7h1v1h-1zM36 7h1v1h-1zM37 7h1v1h-1zM38 7h1v1h-1zM39 7h1v1h-1zM40 7h1v1h-1zM41 7h1v1h-1zM42 7h1v1h-1zM43 7h1v1h-1zM44 7h1v1h-1zM45 7h1v1h-1zM46 7h1v1h-1zM47 7h1v1h-1zM48 7h1v1h-1zM49 7h1v1h-1zM50 7h1v1h-1zM51 7h1v1h-1zM52 7h1v1h-1zM53 7h1v1h-1zM54 7h1v1h-1zM55 7h1v1h-1zM56 7h1v1h-1zM57 7h1v1h-1zM58 7h1v1h-1z"/><path fill="#A1AAD5" d="M59 7h1v1h-1z"/><path fill="#9A7CB6" d="M60 7h1v1h-1zM61 7h1v1h-1zM62 7h1v1h-1zM63 7h1v1h-1z"/><path fill="#7868AC" d="M64 7h1v1h-1z"/><path fill="#6D61A9" d="M65 7h1v1h-1zM66 7h1v1h-1zM67 7h1v1h-1z"/><path fill="#535360" d="M68 7h1v1h-1z"/><path fill="#231815" d="M69 7h1v1h-1zM70 7h1v1h-1zM71 7h1v1h-1zM72 7h1v1h-1zM73 7h1v1h-1zM74 7h1v1h-1z"/><path fill="#5B5758" d="M14 8h1v1h-1zM15 8h1v1h-1zM16 8h1v1h-1zM17 8h1v1h-1zM18 8h1v1h-1zM19 8h1v1h-1z"/><path fill="#73657B" d="M20 8h1v1h-1z"/><path fill="#9A7CB6" d="M21 8h1v1h-1zM22 8h1v1h-1zM23 8h1v1h-1zM24 8h1v1h-1zM25 8h1v1h-1zM26 8h1v1h-1zM27 8h1v1h-1zM28 8h1v1h-1zM29 8h1v1h-1z"/><path fill="#A1A6D3" d="M30 8h1v1h-1z"/><path fill="#A3B4DC" d="M31 8h1v1h-1zM32 8h1v1h-1zM33 8h1v1h-1zM34 8h1v1h-1zM35 8h1v1h-1zM36 8h1v1h-1zM37 8h1v1h-1zM38 8h1v1h-1zM39 8h1v1h-1zM40 8h1v1h-1zM41 8h1v1h-1zM42 8h1v1h-1zM43 8h1v1h-1zM44 8h1v1h-1zM45 8h1v1h-1zM46 8h1v1h-1zM47 8h1v1h-1zM48 8h1v1h-1zM49 8h1v1h-1zM50 8h1v1h-1zM51 8h1v1h-1zM52 8h1v1h-1zM53 8h1v1h-1zM54 8h1v1h-1zM55 8h1v1h-1zM56 8h1v1h-1zM57 8h1v1h-1zM58 8h1v1h-1zM59 8h1v1h-1z"/><path fill="#9C87BD" d="M60 8h1v1h-1z"/><path fill="#9A7CB6" d="M61 8h1v1h-1zM62 8h1v1h-1zM63 8h1v1h-1z"/><path fill="#7868AC" d="M64 8h1v1h-1z"/><path fill="#6D61A9" d="M65 8h1v1h-1zM66 8h1v1h-1zM67 8h1v1h-1z"/><path fill="#A3B4DC" d="M68 8h1v1h-1z"/><path fill="#535360" d="M69 8h1v1h-1z"/><path fill="#231815" d="M70 8h1v1h-1zM71 8h1v1h-1zM72 8h1v1h-1zM73 8h1v1h-1zM74 8h1v1h-1zM75 8h1v1h-1z"/><path fill="#5B5758" d="M13 9h1v1h-1zM14 9h1v1h-1zM15 9h1v1h-1zM16 9h1v1h-1zM17 9h1v1h-1zM18 9h1v1h-1z"/><path fill="#73657B" d="M19 9h1v1h-1z"/><path fill="#9A7CB6" d="M20 9h1v1h-1zM21 9h1v1h-1zM22 9h1v1h-1zM23 9h1v1h-1zM24 9h1v1h-1zM25 9h1v1h-1zM26 9h1v1h-1zM27 9h1v1h-1zM28 9h1v1h-1zM29 9h1v1h-1z"/><path fill="#A2B1DA" d="M30 9h1v1h-1z"/><path fill="#A3B4DC" d="M31 9h1v1h-1zM32 9h1v1h-1zM33 9h1v1h-1zM34 9h1v1h-1zM35 9h1v1h-1zM36 9h1v1h-1zM37 9h1v1h-1zM38 9h1v1h-1zM39 9h1v1h-1zM40 9h1v1h-1zM41 9h1v1h-1zM42 9h1v1h-1zM43 9h1v1h-1zM44 9h1v1h-1zM45 9h1v1h-1zM46 9h1v1h-1zM47 9h1v1h-1zM48 9h1v1h-1zM49 9h1v1h-1zM50 9h1v1h-1zM51 9h1v1h-1zM52 9h1v1h-1zM53 9h1v1h-1zM54 9h1v1h-1zM55 9h1v1h-1zM56 9h1v1h-1zM57 9h1v1h-1zM58 9h1v1h-1zM59 9h1v1h-1z"/><path fill="#A09FCE" d="M60 9h1v1h-1z"/><path fill="#9A7CB6" d="M61 9h1v1h-1zM62 9h1v1h-1zM63 9h1v1h-1z"/><path fill="#6D61A9" d="M64 9h1v1h-1zM65 9h1v1h-1zM66 9h1v1h-1z"/><path fill="#7771B3" d="M67 9h1v1h-1z"/><path fill="#A3B4DC" d="M68 9h1v1h-1zM69 9h1v1h-1z"/><path fill="#535360" d="M70 9h1v1h-1z"/><path fill="#231815" d="M71 9h1v1h-1zM72 9h1v1h-1zM73 9h1v1h-1zM74 9h1v1h-1zM75 9h1v1h-1zM76 9h1v1h-1z"/><path fill="#5B5758" d="M12 10h1v1h-1zM13 10h1v1h-1zM14 10h1v1h-1zM15 10h1v1h-1zM16 10h1v1h-1zM17 10h1v1h-1z"/><path fill="#767A8A" d="M18 10h1v1h-1z"/><path fill="#9D91C4" d="M19 10h1v1h-1z"/><path fill="#9A7CB6" d="M20 10h1v1h-1zM21 10h1v1h-1zM22 10h1v1h-1zM23 10h1v1h-1zM24 10h1v1h-1zM25 10h1v1h-1zM26 10h1v1h-1zM27 10h1v1h-1zM28 10h1v1h-1z"/><path fill="#9B80B8" d="M29 10h1v1h-1z"/><path fill="#A3B4DC" d="M30 10h1v1h-1zM31 10h1v1h-1zM32 10h1v1h-1zM33 10h1v1h-1zM34 10h1v1h-1zM35 10h1v1h-1zM36 10h1v1h-1zM37 10h1v1h-1zM38 10h1v1h-1zM39 10h1v1h-1zM40 10h1v1h-1zM41 10h1v1h-1zM42 10h1v1h-1zM43 10h1v1h-1zM44 10h1v1h-1zM45 10h1v1h-1zM46 10h1v1h-1zM47 10h1v1h-1zM48 10h1v1h-1zM49 10h1v1h-1zM50 10h1v1h-1zM51 10h1v1h-1zM52 10h1v1h-1zM53 10h1v1h-1zM54 10h1v1h-1zM55 10h1v1h-1zM56 10h1v1h-1zM57 10h1v1h-1zM58 10h1v1h-1zM59 10h1v1h-1z"/><path fill="#A2B1DA" d="M60 10h1v1h-1z"/><path fill="#9B80B8" d="M61 10h1v1h-1z"/><path fill="#9A7CB6" d="M62 10h1v1h-1zM63 10h1v1h-1z"/><path fill="#6D61A9" d="M64 10h1v1h-1zM65 10h1v1h-1zM66 10h1v1h-1z"/><path fill="#7B76B6" d="M67 10h1v1h-1z"/><path fill="#A3B4DC" d="M68 10h1v1h-1zM69 10h1v1h-1zM70 10h1v1h-1z"/><path fill="#535360" d="M71 10h1v1h-1z"/><path fill="#231815" d="M72 10h1v1h-1zM73 10h1v1h-1zM74 10h1v1h-1zM75 10h1v1h-1zM76 10h1v1h-1zM77 10h1v1h-1z"/><path fill="#5B5758" d="M11 11h1v1h-1zM12 11h1v1h-1zM13 11h1v1h-1zM14 11h1v1h-1zM15 11h1v1h-1zM16 11h1v1h-1z"/><path fill="#767A8A" d="M17 11h1v1h-1z"/><path fill="#A3B4DC" d="M18 11h1v1h-1zM19 11h1v1h-1z"/><path fill="#9D91C4" d="M20 11h1v1h-1z"/><path fill="#9A7CB6" d="M21 11h1v1h-1zM22 11h1v1h-1zM23 11h1v1h-1zM24 11h1v1h-1zM25 11h1v1h-1zM26 11h1v1h-1zM27 11h1v1h-1zM28 11h1v1h-1z"/><path fill="#9C8AC0" d="M29 11h1v1h-1z"/><path fill="#A3B4DC" d="M30 11h1v1h-1zM31 11h1v1h-1zM32 11h1v1h-1zM33 11h1v1h-1zM34 11h1v1h-1zM35 11h1v1h-1zM36 11h1v1h-1zM37 11h1v1h-1zM38 11h1v1h-1zM39 11h1v1h-1zM40 11h1v1h-1zM41 11h1v1h-1zM42 11h1v1h-1zM43 11h1v1h-1zM44 11h1v1h-1zM45 11h1v1h-1zM46 11h1v1h-1zM47 11h1v1h-1zM48 11h1v1h-1zM49 11h1v1h-1zM50 11h1v1h-1zM51 11h1v1h-1zM52 11h1v1h-1zM53 11h1v1h-1zM54 11h1v1h-1zM55 11h1v1h-1zM56 11h1v1h-1zM57 11h1v1h-1zM58 11h1v1h-1zM59 11h1v1h-1zM60 11h1v1h-1z"/><path fill="#9D91C4" d="M61 11h1v1h-1z"/><path fill="#9A7CB6" d="M62 11h1v1h-1z"/><path fill="#977AB5" d="M63 11h1v1h-1z"/><path fill="#6D61A9" d="M64 11h1v1h-1zM65 11h1v1h-1zM66 11h1v1h-1z"/><path fill="#7B76B6" d="M67 11h1v1h-1z"/><path fill="#A3B4DC" d="M68 11h1v1h-1zM69 11h1v1h-1zM70 11h1v1h-1zM71 11h1v1h-1z"/><path fill="#535360" d="M72 11h1v1h-1z"/><path fill="#231815" d="M73 11h1v1h-1zM74 11h1v1h-1zM75 11h1v1h-1zM76 11h1v1h-1zM77 11h1v1h-1zM78 11h1v1h-1z"/><path fill="#5B5758" d="M10 12h1v1h-1zM11 12h1v1h-1zM12 12h1v1h-1zM13 12h1v1h-1zM14 12h1v1h-1zM15 12h1v1h-1z"/><path fill="#767A8A" d="M16 12h1v1h-1z"/><path fill="#A3B4DC" d="M17 12h1v1h-1zM18 12h1v1h-1zM19 12h1v1h-1zM20 12h1v1h-1z"/><path fill="#A09FCE" d="M21 12h1v1h-1z"/><path fill="#9A7CB6" d="M22 12h1v1h-1zM23 12h1v1h-1zM24 12h1v1h-1zM25 12h1v1h-1zM26 12h1v1h-1zM27 12h1v1h-1zM28 12h1v1h-1z"/><path fill="#9E95C7" d="M29 12h1v1h-1z"/><path fill="#A3B4DC" d="M30 12h1v1h-1zM31 12h1v1h-1zM32 12h1v1h-1zM33 12h1v1h-1zM34 12h1v1h-1zM35 12h1v1h-1zM36 12h1v1h-1zM37 12h1v1h-1zM38 12h1v1h-1zM39 12h1v1h-1zM40 12h1v1h-1zM41 12h1v1h-1zM42 12h1v1h-1zM43 12h1v1h-1zM44 12h1v1h-1zM45 12h1v1h-1zM46 12h1v1h-1zM47 12h1v1h-1zM48 12h1v1h-1zM49 12h1v1h-1zM50 12h1v1h-1zM51 12h1v1h-1zM52 12h1v1h-1zM53 12h1v1h-1zM54 12h1v1h-1zM55 12h1v1h-1zM56 12h1v1h-1zM57 12h1v1h-1zM58 12h1v1h-1zM59 12h1v1h-1zM60 12h1v1h-1z"/><path fill="#A1AAD5" d="M61 12h1v1h-1z"/><path fill="#9A7CB6" d="M62 12h1v1h-1z"/><path fill="#8F75B3" d="M63 12h1v1h-1z"/><path fill="#6D61A9" d="M64 12h1v1h-1zM65 12h1v1h-1zM66 12h1v1h-1z"/><path fill="#888BC3" d="M67 12h1v1h-1z"/><path fill="#A3B4DC" d="M68 12h1v1h-1zM69 12h1v1h-1zM70 12h1v1h-1zM71 12h1v1h-1zM72 12h1v1h-1z"/><path fill="#535360" d="M73 12h1v1h-1z"/><path fill="#231815" d="M74 12h1v1h-1zM75 12h1v1h-1zM76 12h1v1h-1zM77 12h1v1h-1zM78 12h1v1h-1zM79 12h1v1h-1z"/><path fill="#5B5758" d="M9 13h1v1H9zM10 13h1v1h-1zM11 13h1v1h-1zM12 13h1v1h-1zM13 13h1v1h-1zM14 13h1v1h-1z"/><path fill="#767A8A" d="M15 13h1v1h-1z"/><path fill="#A3B4DC" d="M16 13h1v1h-1zM17 13h1v1h-1zM18 13h1v1h-1zM19 13h1v1h-1zM20 13h1v1h-1zM21 13h1v1h-1z"/><path fill="#A09FCE" d="M22 13h1v1h-1z"/><path fill="#9A7CB6" d="M23 13h1v1h-1zM24 13h1v1h-1zM25 13h1v1h-1zM26 13h1v1h-1zM27 13h1v1h-1zM28 13h1v1h-1z"/><path fill="#9F9CCB" d="M29 13h1v1h-1z"/><path fill="#A3B4DC" d="M30 13h1v1h-1zM31 13h1v1h-1zM32 13h1v1h-1zM33 13h1v1h-1zM34 13h1v1h-1zM35 13h1v1h-1zM36 13h1v1h-1zM37 13h1v1h-1zM38 13h1v1h-1zM39 13h1v1h-1zM40 13h1v1h-1zM41 13h1v1h-1zM42 13h1v1h-1zM43 13h1v1h-1zM44 13h1v1h-1zM45 13h1v1h-1zM46 13h1v1h-1zM47 13h1v1h-1zM48 13h1v1h-1zM49 13h1v1h-1zM50 13h1v1h-1zM51 13h1v1h-1zM52 13h1v1h-1zM53 13h1v1h-1zM54 13h1v1h-1zM55 13h1v1h-1zM56 13h1v1h-1zM57 13h1v1h-1zM58 13h1v1h-1zM59 13h1v1h-1zM60 13h1v1h-1zM61 13h1v1h-1z"/><path fill="#9C8AC0" d="M62 13h1v1h-1z"/><path fill="#8F75B3" d="M63 13h1v1h-1z"/><path fill="#6D61A9" d="M64 13h1v1h-1zM65 13h1v1h-1zM66 13h1v1h-1z"/><path fill="#888BC3" d="M67 13h1v1h-1z"/><path fill="#A3B4DC" d="M68 13h1v1h-1zM69 13h1v1h-1zM70 13h1v1h-1zM71 13h1v1h-1zM72 13h1v1h-1zM73 13h1v1h-1z"/><path fill="#535360" d="M74 13h1v1h-1z"/><path fill="#231815" d="M75 13h1v1h-1zM76 13h1v1h-1zM77 13h1v1h-1zM78 13h1v1h-1zM79 13h1v1h-1zM80 13h1v1h-1z"/><path fill="#5B5758" d="M8 14h1v1H8zM9 14h1v1H9zM10 14h1v1h-1zM11 14h1v1h-1zM12 14h1v1h-1zM13 14h1v1h-1z"/><path fill="#767A8A" d="M14 14h1v1h-1z"/><path fill="#A3B4DC" d="M15 14h1v1h-1zM16 14h1v1h-1zM17 14h1v1h-1zM18 14h1v1h-1zM19 14h1v1h-1zM20 14h1v1h-1zM21 14h1v1h-1zM22 14h1v1h-1z"/><path fill="#A09FCE" d="M23 14h1v1h-1z"/><path fill="#9A7CB6" d="M24 14h1v1h-1zM25 14h1v1h-1zM26 14h1v1h-1zM27 14h1v1h-1zM28 14h1v1h-1z"/><path fill="#A1A6D3" d="M29 14h1v1h-1z"/><path fill="#A3B4DC" d="M30 14h1v1h-1zM31 14h1v1h-1zM32 14h1v1h-1zM33 14h1v1h-1zM34 14h1v1h-1zM35 14h1v1h-1zM36 14h1v1h-1zM37 14h1v1h-1zM38 14h1v1h-1zM39 14h1v1h-1zM40 14h1v1h-1zM41 14h1v1h-1zM42 14h1v1h-1zM43 14h1v1h-1zM44 14h1v1h-1zM45 14h1v1h-1zM46 14h1v1h-1zM47 14h1v1h-1zM48 14h1v1h-1zM49 14h1v1h-1zM50 14h1v1h-1zM51 14h1v1h-1zM52 14h1v1h-1zM53 14h1v1h-1zM54 14h1v1h-1zM55 14h1v1h-1zM56 14h1v1h-1zM57 14h1v1h-1zM58 14h1v1h-1zM59 14h1v1h-1zM60 14h1v1h-1zM61 14h1v1h-1z"/><path fill="#A09FCE" d="M62 14h1v1h-1z"/><path fill="#8C74B2" d="M63 14h1v1h-1z"/><path fill="#6D61A9" d="M64 14h1v1h-1zM65 14h1v1h-1zM66 14h1v1h-1z"/><path fill="#888BC3" d="M67 14h1v1h-1z"/><path fill="#A3B4DC" d="M68 14h1v1h-1zM69 14h1v1h-1zM70 14h1v1h-1zM71 14h1v1h-1zM72 14h1v1h-1zM73 14h1v1h-1zM74 14h1v1h-1z"/><path fill="#535360" d="M75 14h1v1h-1z"/><path fill="#231815" d="M76 14h1v1h-1zM77 14h1v1h-1zM78 14h1v1h-1zM79 14h1v1h-1zM80 14h1v1h-1zM81 14h1v1h-1z"/><path fill="#5B5758" d="M7 15h1v1H7zM8 15h1v1H8zM9 15h1v1H9zM10 15h1v1h-1zM11 15h1v1h-1zM12 15h1v1h-1z"/><path fill="#767A8A" d="M13 15h1v1h-1z"/><path fill="#A3B4DC" d="M14 15h1v1h-1zM15 15h1v1h-1zM16 15h1v1h-1zM17 15h1v1h-1zM18 15h1v1h-1zM19 15h1v1h-1zM20 15h1v1h-1zM21 15h1v1h-1zM22 15h1v1h-1zM23 15h1v1h-1z"/><path fill="#A09FCE" d="M24 15h1v1h-1z"/><path fill="#9A7CB6" d="M25 15h1v1h-1zM26 15h1v1h-1zM27 15h1v1h-1zM28 15h1v1h-1z"/><path fill="#A2B1DA" d="M29 15h1v1h-1z"/><path fill="#A3B4DC" d="M30 15h1v1h-1zM31 15h1v1h-1zM32 15h1v1h-1zM33 15h1v1h-1zM34 15h1v1h-1zM35 15h1v1h-1zM36 15h1v1h-1zM37 15h1v1h-1zM38 15h1v1h-1zM39 15h1v1h-1zM40 15h1v1h-1zM41 15h1v1h-1zM42 15h1v1h-1zM43 15h1v1h-1zM44 15h1v1h-1zM45 15h1v1h-1zM46 15h1v1h-1zM47 15h1v1h-1zM48 15h1v1h-1zM49 15h1v1h-1zM50 15h1v1h-1zM51 15h1v1h-1zM52 15h1v1h-1zM53 15h1v1h-1zM54 15h1v1h-1zM55 15h1v1h-1zM56 15h1v1h-1zM57 15h1v1h-1zM58 15h1v1h-1zM59 15h1v1h-1zM60 15h1v1h-1zM61 15h1v1h-1zM62 15h1v1h-1z"/><path fill="#8472B2" d="M63 15h1v1h-1z"/><path fill="#6D61A9" d="M64 15h1v1h-1zM65 15h1v1h-1zM66 15h1v1h-1z"/><path fill="#969FCF" d="M67 15h1v1h-1z"/><path fill="#A3B4DC" d="M68 15h1v1h-1zM69 15h1v1h-1zM70 15h1v1h-1zM71 15h1v1h-1zM72 15h1v1h-1zM73 15h1v1h-1zM74 15h1v1h-1zM75 15h1v1h-1z"/><path fill="#535360" d="M76 15h1v1h-1z"/><path fill="#231815" d="M77 15h1v1h-1zM78 15h1v1h-1zM79 15h1v1h-1zM80 15h1v1h-1zM81 15h1v1h-1zM82 15h1v1h-1z"/><path fill="#5B5758" d="M6 16h1v1H6zM7 16h1v1H7zM8 16h1v1H8zM9 16h1v1H9zM10 16h1v1h-1zM11 16h1v1h-1z"/><path fill="#767A8A" d="M12 16h1v1h-1z"/><path fill="#A3B4DC" d="M13 16h1v1h-1zM14 16h1v1h-1zM15 16h1v1h-1zM16 16h1v1h-1zM17 16h1v1h-1zM18 16h1v1h-1zM19 16h1v1h-1zM20 16h1v1h-1zM21 16h1v1h-1zM22 16h1v1h-1zM23 16h1v1h-1zM24 16h1v1h-1z"/><path fill="#A09FCE" d="M25 16h1v1h-1z"/><path fill="#9A7CB6" d="M26 16h1v1h-1zM27 16h1v1h-1z"/><path fill="#9B80B8" d="M28 16h1v1h-1z"/><path fill="#A3B4DC" d="M29 16h1v1h-1zM30 16h1v1h-1zM31 16h1v1h-1zM32 16h1v1h-1zM33 16h1v1h-1zM34 16h1v1h-1zM35 16h1v1h-1zM36 16h1v1h-1zM37 16h1v1h-1zM38 16h1v1h-1zM39 16h1v1h-1zM40 16h1v1h-1zM41 16h1v1h-1zM42 16h1v1h-1zM43 16h1v1h-1zM44 16h1v1h-1zM45 16h1v1h-1zM46 16h1v1h-1zM47 16h1v1h-1zM48 16h1v1h-1zM49 16h1v1h-1zM50 16h1v1h-1zM51 16h1v1h-1zM52 16h1v1h-1zM53 16h1v1h-1zM54 16h1v1h-1zM55 16h1v1h-1zM56 16h1v1h-1zM57 16h1v1h-1zM58 16h1v1h-1zM59 16h1v1h-1zM60 16h1v1h-1zM61 16h1v1h-1zM62 16h1v1h-1z"/><path fill="#8787C0" d="M63 16h1v1h-1z"/><path fill="#6D61A9" d="M64 16h1v1h-1zM65 16h1v1h-1zM66 16h1v1h-1z"/><path fill="#969FCF" d="M67 16h1v1h-1z"/><path fill="#A3B4DC" d="M68 16h1v1h-1zM69 16h1v1h-1zM70 16h1v1h-1zM71 16h1v1h-1zM72 16h1v1h-1zM73 16h1v1h-1zM74 16h1v1h-1zM75 16h1v1h-1zM76 16h1v1h-1z"/><path fill="#535360" d="M77 16h1v1h-1z"/><path fill="#231815" d="M78 16h1v1h-1zM79 16h1v1h-1zM80 16h1v1h-1zM81 16h1v1h-1zM82 16h1v1h-1zM83 16h1v1h-1z"/><path fill="#5B5758" d="M5 17h1v1H5zM6 17h1v1H6zM7 17h1v1H7zM8 17h1v1H8zM9 17h1v1H9zM10 17h1v1h-1z"/><path fill="#767A8A" d="M11 17h1v1h-1z"/><path fill="#A3B4DC" d="M12 17h1v1h-1zM13 17h1v1h-1zM14 17h1v1h-1zM15 17h1v1h-1zM16 17h1v1h-1zM17 17h1v1h-1zM18 17h1v1h-1zM19 17h1v1h-1zM20 17h1v1h-1zM21 17h1v1h-1zM22 17h1v1h-1zM23 17h1v1h-1zM24 17h1v1h-1z"/><path fill="#8585BF" d="M25 17h1v1h-1z"/><path fill="#6D61A9" d="M26 17h1v1h-1zM27 17h1v1h-1zM28 17h1v1h-1zM29 17h1v1h-1zM30 17h1v1h-1zM31 17h1v1h-1zM32 17h1v1h-1zM33 17h1v1h-1zM34 17h1v1h-1zM35 17h1v1h-1zM36 17h1v1h-1zM37 17h1v1h-1zM38 17h1v1h-1zM39 17h1v1h-1zM40 17h1v1h-1zM41 17h1v1h-1zM42 17h1v1h-1zM43 17h1v1h-1zM44 17h1v1h-1zM45 17h1v1h-1zM46 17h1v1h-1zM47 17h1v1h-1zM48 17h1v1h-1zM49 17h1v1h-1zM50 17h1v1h-1zM51 17h1v1h-1zM52 17h1v1h-1zM53 17h1v1h-1zM54 17h1v1h-1zM55 17h1v1h-1zM56 17h1v1h-1zM57 17h1v1h-1zM58 17h1v1h-1zM59 17h1v1h-1zM60 17h1v1h-1zM61 17h1v1h-1zM62 17h1v1h-1zM63 17h1v1h-1zM64 17h1v1h-1zM65 17h1v1h-1zM66 17h1v1h-1z"/><path fill="#969FCF" d="M67 17h1v1h-1z"/><path fill="#A3B4DC" d="M68 17h1v1h-1zM69 17h1v1h-1zM70 17h1v1h-1zM71 17h1v1h-1zM72 17h1v1h-1zM73 17h1v1h-1zM74 17h1v1h-1zM75 17h1v1h-1zM76 17h1v1h-1zM77 17h1v1h-1z"/><path fill="#535360" d="M78 17h1v1h-1z"/><path fill="#231815" d="M79 17h1v1h-1zM80 17h1v1h-1zM81 17h1v1h-1zM82 17h1v1h-1zM83 17h1v1h-1zM84 17h1v1h-1z"/><path fill="#5B5758" d="M4 18h1v1H4zM5 18h1v1H5zM6 18h1v1H6zM7 18h1v1H7zM8 18h1v1H8zM9 18h1v1H9z"/><path fill="#767A8A" d="M10 18h1v1h-1z"/><path fill="#A3B4DC" d="M11 18h1v1h-1zM12 18h1v1h-1zM13 18h1v1h-1zM14 18h1v1h-1zM15 18h1v1h-1zM16 18h1v1h-1zM17 18h1v1h-1zM18 18h1v1h-1zM19 18h1v1h-1zM20 18h1v1h-1zM21 18h1v1h-1zM22 18h1v1h-1zM23 18h1v1h-1z"/><path fill="#988EC3" d="M24 18h1v1h-1z"/><path fill="#6D61A9" d="M25 18h1v1h-1zM26 18h1v1h-1zM27 18h1v1h-1zM28 18h1v1h-1zM29 18h1v1h-1zM30 18h1v1h-1zM31 18h1v1h-1zM32 18h1v1h-1zM33 18h1v1h-1zM34 18h1v1h-1zM35 18h1v1h-1zM36 18h1v1h-1zM37 18h1v1h-1zM38 18h1v1h-1zM39 18h1v1h-1zM40 18h1v1h-1zM41 18h1v1h-1zM42 18h1v1h-1zM43 18h1v1h-1zM44 18h1v1h-1zM45 18h1v1h-1zM46 18h1v1h-1zM47 18h1v1h-1zM48 18h1v1h-1zM49 18h1v1h-1zM50 18h1v1h-1zM51 18h1v1h-1zM52 18h1v1h-1zM53 18h1v1h-1zM54 18h1v1h-1zM55 18h1v1h-1zM56 18h1v1h-1zM57 18h1v1h-1zM58 18h1v1h-1zM59 18h1v1h-1zM60 18h1v1h-1zM61 18h1v1h-1zM62 18h1v1h-1zM63 18h1v1h-1zM64 18h1v1h-1zM65 18h1v1h-1zM66 18h1v1h-1z"/><path fill="#7E7BB9" d="M67 18h1v1h-1z"/><path fill="#A0AFD9" d="M68 18h1v1h-1z"/><path fill="#A3B4DC" d="M69 18h1v1h-1zM70 18h1v1h-1zM71 18h1v1h-1zM72 18h1v1h-1zM73 18h1v1h-1zM74 18h1v1h-1zM75 18h1v1h-1zM76 18h1v1h-1zM77 18h1v1h-1zM78 18h1v1h-1z"/><path fill="#535360" d="M79 18h1v1h-1z"/><path fill="#231815" d="M80 18h1v1h-1zM81 18h1v1h-1zM82 18h1v1h-1zM83 18h1v1h-1zM84 18h1v1h-1zM85 18h1v1h-1z"/><path fill="#5B5758" d="M3 19h1v1H3zM4 19h1v1H4zM5 19h1v1H5zM6 19h1v1H6zM7 19h1v1H7zM8 19h1v1H8z"/><path fill="#767A8A" d="M9 19h1v1H9z"/><path fill="#A3B4DC" d="M10 19h1v1h-1zM11 19h1v1h-1zM12 19h1v1h-1zM13 19h1v1h-1zM14 19h1v1h-1zM15 19h1v1h-1zM16 19h1v1h-1zM17 19h1v1h-1zM18 19h1v1h-1zM19 19h1v1h-1zM20 19h1v1h-1zM21 19h1v1h-1zM22 19h1v1h-1z"/><path fill="#9D91C4" d="M23 19h1v1h-1z"/><path fill="#977AB5" d="M24 19h1v1h-1z"/><path fill="#6D61A9" d="M25 19h1v1h-1zM26 19h1v1h-1zM27 19h1v1h-1zM28 19h1v1h-1zM29 19h1v1h-1zM30 19h1v1h-1zM31 19h1v1h-1zM32 19h1v1h-1zM33 19h1v1h-1zM34 19h1v1h-1zM35 19h1v1h-1zM36 19h1v1h-1zM37 19h1v1h-1zM38 19h1v1h-1zM39 19h1v1h-1zM40 19h1v1h-1zM41 19h1v1h-1zM42 19h1v1h-1zM43 19h1v1h-1zM44 19h1v1h-1zM45 19h1v1h-1zM46 19h1v1h-1zM47 19h1v1h-1zM48 19h1v1h-1zM49 19h1v1h-1zM50 19h1v1h-1zM51 19h1v1h-1zM52 19h1v1h-1zM53 19h1v1h-1zM54 19h1v1h-1zM55 19h1v1h-1zM56 19h1v1h-1zM57 19h1v1h-1zM58 19h1v1h-1zM59 19h1v1h-1zM60 19h1v1h-1zM61 19h1v1h-1zM62 19h1v1h-1zM63 19h1v1h-1zM64 19h1v1h-1zM65 19h1v1h-1zM66 19h1v1h-1zM67 19h1v1h-1z"/><path fill="#7771B3" d="M68 19h1v1h-1z"/><path fill="#A0AFD9" d="M69 19h1v1h-1z"/><path fill="#A3B4DC" d="M70 19h1v1h-1zM71 19h1v1h-1zM72 19h1v1h-1zM73 19h1v1h-1zM74 19h1v1h-1zM75 19h1v1h-1zM76 19h1v1h-1zM77 19h1v1h-1zM78 19h1v1h-1zM79 19h1v1h-1z"/><path fill="#535360" d="M80 19h1v1h-1z"/><path fill="#231815" d="M81 19h1v1h-1zM82 19h1v1h-1zM83 19h1v1h-1zM84 19h1v1h-1zM85 19h1v1h-1zM86 19h1v1h-1z"/><path fill="#5B5758" d="M2 20h1v1H2zM3 20h1v1H3zM4 20h1v1H4zM5 20h1v1H5zM6 20h1v1H6zM7 20h1v1H7z"/><path fill="#767A8A" d="M8 20h1v1H8z"/><path fill="#A3B4DC" d="M9 20h1v1H9zM10 20h1v1h-1zM11 20h1v1h-1zM12 20h1v1h-1zM13 20h1v1h-1zM14 20h1v1h-1zM15 20h1v1h-1zM16 20h1v1h-1zM17 20h1v1h-1zM18 20h1v1h-1zM19 20h1v1h-1zM20 20h1v1h-1zM21 20h1v1h-1z"/><path fill="#9D91C4" d="M22 20h1v1h-1z"/><path fill="#9A7CB6" d="M23 20h1v1h-1zM24 20h1v1h-1z"/><path fill="#8C74B2" d="M25 20h1v1h-1z"/><path fill="#7868AC" d="M26 20h1v1h-1z"/><path fill="#8076B0" d="M27 20h1v1h-1z"/><path fill="#7E79B5" d="M28 20h1v1h-1z"/><path fill="#7B76B6" d="M29 20h1v1h-1zM30 20h1v1h-1zM31 20h1v1h-1zM32 20h1v1h-1zM33 20h1v1h-1zM34 20h1v1h-1zM35 20h1v1h-1zM36 20h1v1h-1zM37 20h1v1h-1zM38 20h1v1h-1zM39 20h1v1h-1zM40 20h1v1h-1zM41 20h1v1h-1zM42 20h1v1h-1zM43 20h1v1h-1zM44 20h1v1h-1zM45 20h1v1h-1zM46 20h1v1h-1zM47 20h1v1h-1zM48 20h1v1h-1zM49 20h1v1h-1zM50 20h1v1h-1zM51 20h1v1h-1zM52 20h1v1h-1zM53 20h1v1h-1zM54 20h1v1h-1zM55 20h1v1h-1zM56 20h1v1h-1zM57 20h1v1h-1zM58 20h1v1h-1zM59 20h1v1h-1zM60 20h1v1h-1zM61 20h1v1h-1zM62 20h1v1h-1z"/><path fill="#7A72B3" d="M63 20h1v1h-1z"/><path fill="#7364AB" d="M64 20h1v1h-1z"/><path fill="#6D61A9" d="M65 20h1v1h-1zM66 20h1v1h-1zM67 20h1v1h-1zM68 20h1v1h-1z"/><path fill="#7066AC" d="M69 20h1v1h-1z"/><path fill="#99A4D2" d="M70 20h1v1h-1z"/><path fill="#A3B4DC" d="M71 20h1v1h-1zM72 20h1v1h-1zM73 20h1v1h-1zM74 20h1v1h-1zM75 20h1v1h-1zM76 20h1v1h-1zM77 20h1v1h-1zM78 20h1v1h-1zM79 20h1v1h-1zM80 20h1v1h-1z"/><path fill="#535360" d="M81 20h1v1h-1z"/><path fill="#231815" d="M82 20h1v1h-1zM83 20h1v1h-1zM84 20h1v1h-1zM85 20h1v1h-1zM86 20h1v1h-1zM87 20h1v1h-1z"/><path fill="#5B5758" d="M1 21h1v1H1zM2 21h1v1H2zM3 21h1v1H3zM4 21h1v1H4zM5 21h1v1H5zM6 21h1v1H6z"/><path fill="#767A8A" d="M7 21h1v1H7z"/><path fill="#A3B4DC" d="M8 21h1v1H8zM9 21h1v1H9zM10 21h1v1h-1zM11 21h1v1h-1zM12 21h1v1h-1zM13 21h1v1h-1zM14 21h1v1h-1zM15 21h1v1h-1zM16 21h1v1h-1zM17 21h1v1h-1zM18 21h1v1h-1zM19 21h1v1h-1zM20 21h1v1h-1z"/><path fill="#9D91C4" d="M21 21h1v1h-1z"/><path fill="#9A7CB6" d="M22 21h1v1h-1zM23 21h1v1h-1zM24 21h1v1h-1zM25 21h1v1h-1z"/><path fill="#A591BC" d="M26 21h1v1h-1z"/><path fill="#D1E3D5" d="M27 21h1v1h-1z"/><path fill="#D2E7D7" d="M28 21h1v1h-1z"/><path fill="#ACBEDB" d="M29 21h1v1h-1z"/><path fill="#A3B4DC" d="M30 21h1v1h-1zM31 21h1v1h-1zM32 21h1v1h-1zM33 21h1v1h-1zM34 21h1v1h-1zM35 21h1v1h-1zM36 21h1v1h-1zM37 21h1v1h-1zM38 21h1v1h-1zM39 21h1v1h-1zM40 21h1v1h-1zM41 21h1v1h-1zM42 21h1v1h-1zM43 21h1v1h-1zM44 21h1v1h-1zM45 21h1v1h-1zM46 21h1v1h-1zM47 21h1v1h-1zM48 21h1v1h-1zM49 21h1v1h-1zM50 21h1v1h-1zM51 21h1v1h-1zM52 21h1v1h-1zM53 21h1v1h-1zM54 21h1v1h-1zM55 21h1v1h-1zM56 21h1v1h-1zM57 21h1v1h-1zM58 21h1v1h-1zM59 21h1v1h-1zM60 21h1v1h-1zM61 21h1v1h-1z"/><path fill="#A2B1DA" d="M62 21h1v1h-1z"/><path fill="#9C87BD" d="M63 21h1v1h-1z"/><path fill="#9A7CB6" d="M64 21h1v1h-1z"/><path fill="#7E6BAE" d="M65 21h1v1h-1z"/><path fill="#6D61A9" d="M66 21h1v1h-1zM67 21h1v1h-1zM68 21h1v1h-1zM69 21h1v1h-1z"/><path fill="#7066AC" d="M70 21h1v1h-1z"/><path fill="#929ACC" d="M71 21h1v1h-1z"/><path fill="#A3B4DC" d="M72 21h1v1h-1zM73 21h1v1h-1zM74 21h1v1h-1zM75 21h1v1h-1zM76 21h1v1h-1zM77 21h1v1h-1zM78 21h1v1h-1zM79 21h1v1h-1zM80 21h1v1h-1zM81 21h1v1h-1z"/><path fill="#535360" d="M82 21h1v1h-1z"/><path fill="#231815" d="M83 21h1v1h-1zM84 21h1v1h-1zM85 21h1v1h-1zM86 21h1v1h-1zM87 21h1v1h-1zM88 21h1v1h-1z"/><path fill="#5B5758" d="M0 22h1v1H0zM1 22h1v1H1zM2 22h1v1H2zM3 22h1v1H3zM4 22h1v1H4zM5 22h1v1H5z"/><path fill="#767A8A" d="M6 22h1v1H6z"/><path fill="#A3B4DC" d="M7 22h1v1H7zM8 22h1v1H8zM9 22h1v1H9zM10 22h1v1h-1zM11 22h1v1h-1zM12 22h1v1h-1zM13 22h1v1h-1zM14 22h1v1h-1zM15 22h1v1h-1zM16 22h1v1h-1zM17 22h1v1h-1zM18 22h1v1h-1zM19 22h1v1h-1z"/><path fill="#9D91C4" d="M20 22h1v1h-1z"/><path fill="#9A7CB6" d="M21 22h1v1h-1zM22 22h1v1h-1zM23 22h1v1h-1zM24 22h1v1h-1z"/><path fill="#A591BC" d="M25 22h1v1h-1z"/><path fill="#D1E3D5" d="M26 22h1v1h-1z"/><path fill="#D5EAD7" d="M27 22h1v1h-1zM28 22h1v1h-1z"/><path fill="#D2E7D7" d="M29 22h1v1h-1z"/><path fill="#B6C8DA" d="M30 22h1v1h-1z"/><path fill="#A3B4DC" d="M31 22h1v1h-1zM32 22h1v1h-1zM33 22h1v1h-1zM34 22h1v1h-1zM35 22h1v1h-1zM36 22h1v1h-1zM37 22h1v1h-1zM38 22h1v1h-1zM39 22h1v1h-1zM40 22h1v1h-1zM41 22h1v1h-1zM42 22h1v1h-1zM43 22h1v1h-1zM44 22h1v1h-1zM45 22h1v1h-1zM46 22h1v1h-1zM47 22h1v1h-1zM48 22h1v1h-1zM49 22h1v1h-1zM50 22h1v1h-1zM51 22h1v1h-1zM52 22h1v1h-1zM53 22h1v1h-1zM54 22h1v1h-1zM55 22h1v1h-1zM56 22h1v1h-1zM57 22h1v1h-1zM58 22h1v1h-1zM59 22h1v1h-1zM60 22h1v1h-1z"/><path fill="#A2B1DA" d="M61 22h1v1h-1z"/><path fill="#9C87BD" d="M62 22h1v1h-1z"/><path fill="#9A7CB6" d="M63 22h1v1h-1zM64 22h1v1h-1zM65 22h1v1h-1z"/><path fill="#846FB0" d="M66 22h1v1h-1z"/><path fill="#6D61A9" d="M67 22h1v1h-1zM68 22h1v1h-1zM69 22h1v1h-1zM70 22h1v1h-1zM71 22h1v1h-1z"/><path fill="#8F95C9" d="M72 22h1v1h-1z"/><path fill="#A3B4DC" d="M73 22h1v1h-1zM74 22h1v1h-1zM75 22h1v1h-1zM76 22h1v1h-1zM77 22h1v1h-1zM78 22h1v1h-1zM79 22h1v1h-1zM80 22h1v1h-1zM81 22h1v1h-1zM82 22h1v1h-1z"/><path fill="#535360" d="M83 22h1v1h-1z"/><path fill="#231815" d="M84 22h1v1h-1zM85 22h1v1h-1zM86 22h1v1h-1zM87 22h1v1h-1zM88 22h1v1h-1zM89 22h1v1h-1z"/><path fill="#5B5758" d="M0 23h1v1H0zM1 23h1v1H1zM2 23h1v1H2zM3 23h1v1H3zM4 23h1v1H4z"/><path fill="#767A8A" d="M5 23h1v1H5z"/><path fill="#A3B4DC" d="M6 23h1v1H6zM7 23h1v1H7zM8 23h1v1H8zM9 23h1v1H9zM10 23h1v1h-1zM11 23h1v1h-1zM12 23h1v1h-1zM13 23h1v1h-1zM14 23h1v1h-1zM15 23h1v1h-1zM16 23h1v1h-1zM17 23h1v1h-1zM18 23h1v1h-1z"/><path fill="#9D91C4" d="M19 23h1v1h-1z"/><path fill="#9A7CB6" d="M20 23h1v1h-1zM21 23h1v1h-1zM22 23h1v1h-1zM23 23h1v1h-1z"/><path fill="#A591BC" d="M24 23h1v1h-1z"/><path fill="#D1E3D5" d="M25 23h1v1h-1z"/><path fill="#D5EAD7" d="M26 23h1v1h-1zM27 23h1v1h-1zM28 23h1v1h-1zM29 23h1v1h-1zM30 23h1v1h-1z"/><path fill="#BCCFDA" d="M31 23h1v1h-1z"/><path fill="#A3B4DC" d="M32 23h1v1h-1zM33 23h1v1h-1zM34 23h1v1h-1zM35 23h1v1h-1zM36 23h1v1h-1zM37 23h1v1h-1zM38 23h1v1h-1zM39 23h1v1h-1zM40 23h1v1h-1zM41 23h1v1h-1zM42 23h1v1h-1zM43 23h1v1h-1zM44 23h1v1h-1zM45 23h1v1h-1zM46 23h1v1h-1zM47 23h1v1h-1zM48 23h1v1h-1zM49 23h1v1h-1zM50 23h1v1h-1zM51 23h1v1h-1zM52 23h1v1h-1zM53 23h1v1h-1zM54 23h1v1h-1zM55 23h1v1h-1zM56 23h1v1h-1zM57 23h1v1h-1zM58 23h1v1h-1zM59 23h1v1h-1z"/><path fill="#A2ADD7" d="M60 23h1v1h-1z"/><path fill="#9C87BD" d="M61 23h1v1h-1z"/><path fill="#9A7CB6" d="M62 23h1v1h-1zM63 23h1v1h-1zM64 23h1v1h-1zM65 23h1v1h-1zM66 23h1v1h-1z"/><path fill="#8972B1" d="M67 23h1v1h-1z"/><path fill="#6D61A9" d="M68 23h1v1h-1zM69 23h1v1h-1zM70 23h1v1h-1zM71 23h1v1h-1zM72 23h1v1h-1z"/><path fill="#8180BC" d="M73 23h1v1h-1z"/><path fill="#A3B4DC" d="M74 23h1v1h-1zM75 23h1v1h-1zM76 23h1v1h-1zM77 23h1v1h-1zM78 23h1v1h-1zM79 23h1v1h-1zM80 23h1v1h-1zM81 23h1v1h-1zM82 23h1v1h-1zM83 23h1v1h-1z"/><path fill="#535360" d="M84 23h1v1h-1z"/><path fill="#231815" d="M85 23h1v1h-1zM86 23h1v1h-1zM87 23h1v1h-1zM88 23h1v1h-1zM89 23h1v1h-1z"/><path fill="#5B5758" d="M0 24h1v1H0zM1 24h1v1H1zM2 24h1v1H2zM3 24h1v1H3z"/><path fill="#6F7083" d="M4 24h1v1H4z"/><path fill="#A3B4DC" d="M5 24h1v1H5zM6 24h1v1H6zM7 24h1v1H7zM8 24h1v1H8zM9 24h1v1H9zM10 24h1v1h-1zM11 24h1v1h-1zM12 24h1v1h-1zM13 24h1v1h-1zM14 24h1v1h-1zM15 24h1v1h-1zM16 24h1v1h-1zM17 24h1v1h-1z"/><path fill="#9D91C4" d="M18 24h1v1h-1z"/><path fill="#9A7CB6" d="M19 24h1v1h-1zM20 24h1v1h-1zM21 24h1v1h-1zM22 24h1v1h-1z"/><path fill="#A591BC" d="M23 24h1v1h-1z"/><path fill="#D1E3D5" d="M24 24h1v1h-1z"/><path fill="#D5EAD7" d="M25 24h1v1h-1zM26 24h1v1h-1zM27 24h1v1h-1zM28 24h1v1h-1zM29 24h1v1h-1zM30 24h1v1h-1zM31 24h1v1h-1z"/><path fill="#C2D6D9" d="M32 24h1v1h-1z"/><path fill="#A6B7DC" d="M33 24h1v1h-1z"/><path fill="#A3B4DC" d="M34 24h1v1h-1zM35 24h1v1h-1zM36 24h1v1h-1zM37 24h1v1h-1zM38 24h1v1h-1zM39 24h1v1h-1zM40 24h1v1h-1zM41 24h1v1h-1zM42 24h1v1h-1zM43 24h1v1h-1zM44 24h1v1h-1zM45 24h1v1h-1zM46 24h1v1h-1zM47 24h1v1h-1zM48 24h1v1h-1zM49 24h1v1h-1zM50 24h1v1h-1zM51 24h1v1h-1zM52 24h1v1h-1zM53 24h1v1h-1zM54 24h1v1h-1zM55 24h1v1h-1zM56 24h1v1h-1zM57 24h1v1h-1zM58 24h1v1h-1z"/><path fill="#A1AAD5" d="M59 24h1v1h-1z"/><path fill="#9B80B8" d="M60 24h1v1h-1z"/><path fill="#9A7CB6" d="M61 24h1v1h-1zM62 24h1v1h-1zM63 24h1v1h-1zM64 24h1v1h-1zM65 24h1v1h-1zM66 24h1v1h-1zM67 24h1v1h-1z"/><path fill="#9277B4" d="M68 24h1v1h-1z"/><path fill="#7063AA" d="M69 24h1v1h-1z"/><path fill="#6D61A9" d="M70 24h1v1h-1zM71 24h1v1h-1zM72 24h1v1h-1zM73 24h1v1h-1z"/><path fill="#7E7BB9" d="M74 24h1v1h-1z"/><path fill="#A0AFD9" d="M75 24h1v1h-1z"/><path fill="#A3B4DC" d="M76 24h1v1h-1zM77 24h1v1h-1zM78 24h1v1h-1zM79 24h1v1h-1zM80 24h1v1h-1zM81 24h1v1h-1zM82 24h1v1h-1zM83 24h1v1h-1zM84 24h1v1h-1z"/><path fill="#423950" d="M85 24h1v1h-1z"/><path fill="#231815" d="M86 24h1v1h-1zM87 24h1v1h-1zM88 24h1v1h-1zM89 24h1v1h-1z"/><path fill="#5B5758" d="M0 25h1v1H0zM1 25h1v1H1zM2 25h1v1H2zM3 25h1v1H3z"/><path fill="#695F95" d="M4 25h1v1H4z"/><path fill="#8F95C9" d="M5 25h1v1H5z"/><path fill="#A3B4DC" d="M6 25h1v1H6zM7 25h1v1H7zM8 25h1v1H8zM9 25h1v1H9zM10 25h1v1h-1zM11 25h1v1h-1zM12 25h1v1h-1zM13 25h1v1h-1zM14 25h1v1h-1zM15 25h1v1h-1zM16 25h1v1h-1z"/><path fill="#9D91C4" d="M17 25h1v1h-1z"/><path fill="#9A7CB6" d="M18 25h1v1h-1zM19 25h1v1h-1zM20 25h1v1h-1zM21 25h1v1h-1z"/><path fill="#A591BC" d="M22 25h1v1h-1z"/><path fill="#D1E3D5" d="M23 25h1v1h-1z"/><path fill="#D5EAD7" d="M24 25h1v1h-1zM25 25h1v1h-1zM26 25h1v1h-1zM27 25h1v1h-1zM28 25h1v1h-1zM29 25h1v1h-1zM30 25h1v1h-1zM31 25h1v1h-1zM32 25h1v1h-1z"/><path fill="#CCE0D8" d="M33 25h1v1h-1z"/><path fill="#A6B7DC" d="M34 25h1v1h-1z"/><path fill="#A3B4DC" d="M35 25h1v1h-1zM36 25h1v1h-1zM37 25h1v1h-1zM38 25h1v1h-1zM39 25h1v1h-1zM40 25h1v1h-1zM41 25h1v1h-1zM42 25h1v1h-1zM43 25h1v1h-1zM44 25h1v1h-1zM45 25h1v1h-1zM46 25h1v1h-1zM47 25h1v1h-1zM48 25h1v1h-1zM49 25h1v1h-1zM50 25h1v1h-1zM51 25h1v1h-1zM52 25h1v1h-1zM53 25h1v1h-1zM54 25h1v1h-1zM55 25h1v1h-1zM56 25h1v1h-1zM57 25h1v1h-1z"/><path fill="#A1AAD5" d="M58 25h1v1h-1z"/><path fill="#9B80B8" d="M59 25h1v1h-1z"/><path fill="#9A7CB6" d="M60 25h1v1h-1zM61 25h1v1h-1zM62 25h1v1h-1zM63 25h1v1h-1zM64 25h1v1h-1zM65 25h1v1h-1zM66 25h1v1h-1zM67 25h1v1h-1zM68 25h1v1h-1z"/><path fill="#9277B4" d="M69 25h1v1h-1z"/><path fill="#7566AB" d="M70 25h1v1h-1z"/><path fill="#6D61A9" d="M71 25h1v1h-1zM72 25h1v1h-1zM73 25h1v1h-1zM74 25h1v1h-1z"/><path fill="#7771B3" d="M75 25h1v1h-1z"/><path fill="#A0AFD9" d="M76 25h1v1h-1z"/><path fill="#A3B4DC" d="M77 25h1v1h-1zM78 25h1v1h-1zM79 25h1v1h-1zM80 25h1v1h-1zM81 25h1v1h-1zM82 25h1v1h-1zM83 25h1v1h-1z"/><path fill="#8180BC" d="M84 25h1v1h-1z"/><path fill="#5B4F84" d="M85 25h1v1h-1z"/><path fill="#231815" d="M86 25h1v1h-1zM87 25h1v1h-1zM88 25h1v1h-1zM89 25h1v1h-1z"/><path fill="#5B5758" d="M0 26h1v1H0zM1 26h1v1H1zM2 26h1v1H2zM3 26h1v1H3z"/><path fill="#695F95" d="M4 26h1v1H4z"/><path fill="#6D61A9" d="M5 26h1v1H5z"/><path fill="#8585BF" d="M6 26h1v1H6z"/><path fill="#A3B4DC" d="M7 26h1v1H7zM8 26h1v1H8zM9 26h1v1H9zM10 26h1v1h-1zM11 26h1v1h-1zM12 26h1v1h-1zM13 26h1v1h-1zM14 26h1v1h-1zM15 26h1v1h-1z"/><path fill="#9D91C4" d="M16 26h1v1h-1z"/><path fill="#9A7CB6" d="M17 26h1v1h-1zM18 26h1v1h-1zM19 26h1v1h-1zM20 26h1v1h-1z"/><path fill="#A591BC" d="M21 26h1v1h-1z"/><path fill="#D1E3D5" d="M22 26h1v1h-1z"/><path fill="#D5EAD7" d="M23 26h1v1h-1zM24 26h1v1h-1zM25 26h1v1h-1zM26 26h1v1h-1zM27 26h1v1h-1zM28 26h1v1h-1zM29 26h1v1h-1zM30 26h1v1h-1zM31 26h1v1h-1zM32 26h1v1h-1zM33 26h1v1h-1z"/><path fill="#D2E7D7" d="M34 26h1v1h-1z"/><path fill="#ACBEDB" d="M35 26h1v1h-1z"/><path fill="#A3B4DC" d="M36 26h1v1h-1zM37 26h1v1h-1zM38 26h1v1h-1zM39 26h1v1h-1zM40 26h1v1h-1zM41 26h1v1h-1zM42 26h1v1h-1zM43 26h1v1h-1zM44 26h1v1h-1zM45 26h1v1h-1zM46 26h1v1h-1zM47 26h1v1h-1zM48 26h1v1h-1zM49 26h1v1h-1zM50 26h1v1h-1zM51 26h1v1h-1zM52 26h1v1h-1zM53 26h1v1h-1zM54 26h1v1h-1zM55 26h1v1h-1zM56 26h1v1h-1z"/><path fill="#A1AAD5" d="M57 26h1v1h-1z"/><path fill="#9B80B8" d="M58 26h1v1h-1z"/><path fill="#9A7CB6" d="M59 26h1v1h-1zM60 26h1v1h-1zM61 26h1v1h-1zM62 26h1v1h-1zM63 26h1v1h-1zM64 26h1v1h-1zM65 26h1v1h-1zM66 26h1v1h-1zM67 26h1v1h-1zM68 26h1v1h-1zM69 26h1v1h-1z"/><path fill="#977AB5" d="M70 26h1v1h-1z"/><path fill="#7566AB" d="M71 26h1v1h-1z"/><path fill="#6D61A9" d="M72 26h1v1h-1zM73 26h1v1h-1zM74 26h1v1h-1zM75 26h1v1h-1z"/><path fill="#7066AC" d="M76 26h1v1h-1z"/><path fill="#99A4D2" d="M77 26h1v1h-1z"/><path fill="#A3B4DC" d="M78 26h1v1h-1zM79 26h1v1h-1zM80 26h1v1h-1zM81 26h1v1h-1zM82 26h1v1h-1z"/><path fill="#8180BC" d="M83 26h1v1h-1z"/><path fill="#6D61A9" d="M84 26h1v1h-1z"/><path fill="#5B4F84" d="M85 26h1v1h-1z"/><path fill="#231815" d="M86 26h1v1h-1zM87 26h1v1h-1zM88 26h1v1h-1zM89 26h1v1h-1z"/><path fill="#5B5758" d="M0 27h1v1H0zM1 27h1v1H1zM2 27h1v1H2zM3 27h1v1H3z"/><path fill="#695F95" d="M4 27h1v1H4z"/><path fill="#6D61A9" d="M5 27h1v1H5zM6 27h1v1H6z"/><path fill="#8180BC" d="M7 27h1v1H7z"/><path fill="#A3B4DC" d="M8 27h1v1H8zM9 27h1v1H9zM10 27h1v1h-1zM11 27h1v1h-1zM12 27h1v1h-1zM13 27h1v1h-1zM14 27h1v1h-1z"/><path fill="#9D91C4" d="M15 27h1v1h-1z"/><path fill="#9A7CB6" d="M16 27h1v1h-1zM17 27h1v1h-1zM18 27h1v1h-1zM19 27h1v1h-1z"/><path fill="#A591BC" d="M20 27h1v1h-1z"/><path fill="#D1E3D5" d="M21 27h1v1h-1z"/><path fill="#D5EAD7" d="M22 27h1v1h-1zM23 27h1v1h-1zM24 27h1v1h-1zM25 27h1v1h-1zM26 27h1v1h-1zM27 27h1v1h-1zM28 27h1v1h-1zM29 27h1v1h-1zM30 27h1v1h-1zM31 27h1v1h-1zM32 27h1v1h-1zM33 27h1v1h-1zM34 27h1v1h-1z"/><path fill="#D2E7D7" d="M35 27h1v1h-1z"/><path fill="#B6C8DA" d="M36 27h1v1h-1z"/><path fill="#A3B4DC" d="M37 27h1v1h-1zM38 27h1v1h-1zM39 27h1v1h-1zM40 27h1v1h-1zM41 27h1v1h-1zM42 27h1v1h-1zM43 27h1v1h-1zM44 27h1v1h-1zM45 27h1v1h-1zM46 27h1v1h-1zM47 27h1v1h-1zM48 27h1v1h-1zM49 27h1v1h-1zM50 27h1v1h-1zM51 27h1v1h-1zM52 27h1v1h-1zM53 27h1v1h-1zM54 27h1v1h-1zM55 27h1v1h-1z"/><path fill="#A1A6D3" d="M56 27h1v1h-1z"/><path fill="#9B80B8" d="M57 27h1v1h-1z"/><path fill="#9A7CB6" d="M58 27h1v1h-1zM59 27h1v1h-1zM60 27h1v1h-1zM61 27h1v1h-1zM62 27h1v1h-1zM63 27h1v1h-1zM64 27h1v1h-1zM65 27h1v1h-1zM66 27h1v1h-1zM67 27h1v1h-1zM68 27h1v1h-1zM69 27h1v1h-1zM70 27h1v1h-1zM71 27h1v1h-1z"/><path fill="#7E6BAE" d="M72 27h1v1h-1z"/><path fill="#6D61A9" d="M73 27h1v1h-1zM74 27h1v1h-1zM75 27h1v1h-1zM76 27h1v1h-1z"/><path fill="#7066AC" d="M77 27h1v1h-1z"/><path fill="#969FCF" d="M78 27h1v1h-1z"/><path fill="#A3B4DC" d="M79 27h1v1h-1zM80 27h1v1h-1zM81 27h1v1h-1z"/><path fill="#8180BC" d="M82 27h1v1h-1z"/><path fill="#6D61A9" d="M83 27h1v1h-1zM84 27h1v1h-1z"/><path fill="#5B4F84" d="M85 27h1v1h-1z"/><path fill="#231815" d="M86 27h1v1h-1zM87 27h1v1h-1zM88 27h1v1h-1zM89 27h1v1h-1z"/><path fill="#5B5758" d="M0 28h1v1H0zM1 28h1v1H1zM2 28h1v1H2zM3 28h1v1H3z"/><path fill="#695F95" d="M4 28h1v1H4z"/><path fill="#6D61A9" d="M5 28h1v1H5zM6 28h1v1H6zM7 28h1v1H7z"/><path fill="#8180BC" d="M8 28h1v1H8z"/><path fill="#A3B4DC" d="M9 28h1v1H9zM10 28h1v1h-1zM11 28h1v1h-1zM12 28h1v1h-1zM13 28h1v1h-1z"/><path fill="#9D91C4" d="M14 28h1v1h-1z"/><path fill="#9A7CB6" d="M15 28h1v1h-1zM16 28h1v1h-1zM17 28h1v1h-1zM18 28h1v1h-1z"/><path fill="#A591BC" d="M19 28h1v1h-1z"/><path fill="#D1E3D5" d="M20 28h1v1h-1z"/><path fill="#D5EAD7" d="M21 28h1v1h-1zM22 28h1v1h-1zM23 28h1v1h-1zM24 28h1v1h-1zM25 28h1v1h-1zM26 28h1v1h-1zM27 28h1v1h-1zM28 28h1v1h-1zM29 28h1v1h-1zM30 28h1v1h-1zM31 28h1v1h-1zM32 28h1v1h-1zM33 28h1v1h-1zM34 28h1v1h-1zM35 28h1v1h-1zM36 28h1v1h-1z"/><path fill="#BCCFDA" d="M37 28h1v1h-1z"/><path fill="#A3B4DC" d="M38 28h1v1h-1zM39 28h1v1h-1zM40 28h1v1h-1zM41 28h1v1h-1zM42 28h1v1h-1zM43 28h1v1h-1zM44 28h1v1h-1zM45 28h1v1h-1zM46 28h1v1h-1zM47 28h1v1h-1zM48 28h1v1h-1zM49 28h1v1h-1zM50 28h1v1h-1zM51 28h1v1h-1zM52 28h1v1h-1zM53 28h1v1h-1zM54 28h1v1h-1z"/><path fill="#A09FCE" d="M55 28h1v1h-1z"/><path fill="#9A7CB6" d="M56 28h1v1h-1zM57 28h1v1h-1zM58 28h1v1h-1zM59 28h1v1h-1zM60 28h1v1h-1zM61 28h1v1h-1zM62 28h1v1h-1zM63 28h1v1h-1zM64 28h1v1h-1zM65 28h1v1h-1zM66 28h1v1h-1zM67 28h1v1h-1zM68 28h1v1h-1zM69 28h1v1h-1zM70 28h1v1h-1zM71 28h1v1h-1zM72 28h1v1h-1z"/><path fill="#846FB0" d="M73 28h1v1h-1z"/><path fill="#6D61A9" d="M74 28h1v1h-1zM75 28h1v1h-1zM76 28h1v1h-1zM77 28h1v1h-1zM78 28h1v1h-1z"/><path fill="#8F95C9" d="M79 28h1v1h-1z"/><path fill="#A3B4DC" d="M80 28h1v1h-1z"/><path fill="#8180BC" d="M81 28h1v1h-1z"/><path fill="#6D61A9" d="M82 28h1v1h-1zM83 28h1v1h-1zM84 28h1v1h-1z"/><path fill="#5B4F84" d="M85 28h1v1h-1z"/><path fill="#231815" d="M86 28h1v1h-1zM87 28h1v1h-1zM88 28h1v1h-1zM89 28h1v1h-1z"/><path fill="#5B5758" d="M0 29h1v1H0zM1 29h1v1H1zM2 29h1v1H2zM3 29h1v1H3z"/><path fill="#6C6498" d="M4 29h1v1H4z"/><path fill="#6D61A9" d="M5 29h1v1H5zM6 29h1v1H6zM7 29h1v1H7zM8 29h1v1H8z"/><path fill="#8180BC" d="M9 29h1v1H9z"/><path fill="#A3B4DC" d="M10 29h1v1h-1zM11 29h1v1h-1zM12 29h1v1h-1z"/><path fill="#9D91C4" d="M13 29h1v1h-1z"/><path fill="#9A7CB6" d="M14 29h1v1h-1zM15 29h1v1h-1zM16 29h1v1h-1zM17 29h1v1h-1z"/><path fill="#A591BC" d="M18 29h1v1h-1z"/><path fill="#D1E3D5" d="M19 29h1v1h-1z"/><path fill="#D5EAD7" d="M20 29h1v1h-1zM21 29h1v1h-1zM22 29h1v1h-1zM23 29h1v1h-1zM24 29h1v1h-1zM25 29h1v1h-1zM26 29h1v1h-1zM27 29h1v1h-1zM28 29h1v1h-1zM29 29h1v1h-1zM30 29h1v1h-1zM31 29h1v1h-1zM32 29h1v1h-1zM33 29h1v1h-1zM34 29h1v1h-1zM35 29h1v1h-1zM36 29h1v1h-1zM37 29h1v1h-1z"/><path fill="#C2D6D9" d="M38 29h1v1h-1z"/><path fill="#A3B4DC" d="M39 29h1v1h-1zM40 29h1v1h-1zM41 29h1v1h-1zM42 29h1v1h-1zM43 29h1v1h-1zM44 29h1v1h-1zM45 29h1v1h-1zM46 29h1v1h-1zM47 29h1v1h-1zM48 29h1v1h-1zM49 29h1v1h-1zM50 29h1v1h-1zM51 29h1v1h-1zM52 29h1v1h-1zM53 29h1v1h-1z"/><path fill="#A09FCE" d="M54 29h1v1h-1z"/><path fill="#9A7CB6" d="M55 29h1v1h-1zM56 29h1v1h-1zM57 29h1v1h-1zM58 29h1v1h-1zM59 29h1v1h-1zM60 29h1v1h-1zM61 29h1v1h-1zM62 29h1v1h-1zM63 29h1v1h-1zM64 29h1v1h-1zM65 29h1v1h-1zM66 29h1v1h-1zM67 29h1v1h-1zM68 29h1v1h-1zM69 29h1v1h-1zM70 29h1v1h-1zM71 29h1v1h-1zM72 29h1v1h-1zM73 29h1v1h-1z"/><path fill="#8972B1" d="M74 29h1v1h-1z"/><path fill="#6D61A9" d="M75 29h1v1h-1zM76 29h1v1h-1zM77 29h1v1h-1zM78 29h1v1h-1zM79 29h1v1h-1z"/><path fill="#7771B3" d="M80 29h1v1h-1z"/><path fill="#6D61A9" d="M81 29h1v1h-1zM82 29h1v1h-1zM83 29h1v1h-1zM84 29h1v1h-1z"/><path fill="#5E5487" d="M85 29h1v1h-1z"/><path fill="#231815" d="M86 29h1v1h-1zM87 29h1v1h-1zM88 29h1v1h-1zM89 29h1v1h-1z"/><path fill="#5B5758" d="M0 30h1v1H0zM1 30h1v1H1zM2 30h1v1H2zM3 30h1v1H3z"/><path fill="#8E98B8" d="M4 30h1v1H4z"/><path fill="#7771B3" d="M5 30h1v1H5z"/><path fill="#6D61A9" d="M6 30h1v1H6zM7 30h1v1H7zM8 30h1v1H8zM9 30h1v1H9z"/><path fill="#7B76B6" d="M10 30h1v1h-1z"/><path fill="#A0AFD9" d="M11 30h1v1h-1z"/><path fill="#9D91C4" d="M12 30h1v1h-1z"/><path fill="#9A7CB6" d="M13 30h1v1h-1zM14 30h1v1h-1zM15 30h1v1h-1zM16 30h1v1h-1z"/><path fill="#A591BC" d="M17 30h1v1h-1z"/><path fill="#D1E3D5" d="M18 30h1v1h-1z"/><path fill="#D5EAD7" d="M19 30h1v1h-1zM20 30h1v1h-1zM21 30h1v1h-1zM22 30h1v1h-1zM23 30h1v1h-1zM24 30h1v1h-1zM25 30h1v1h-1zM26 30h1v1h-1zM27 30h1v1h-1zM28 30h1v1h-1zM29 30h1v1h-1zM30 30h1v1h-1zM31 30h1v1h-1zM32 30h1v1h-1zM33 30h1v1h-1zM34 30h1v1h-1zM35 30h1v1h-1zM36 30h1v1h-1zM37 30h1v1h-1zM38 30h1v1h-1z"/><path fill="#CCE0D8" d="M39 30h1v1h-1z"/><path fill="#A6B7DC" d="M40 30h1v1h-1z"/><path fill="#A3B4DC" d="M41 30h1v1h-1zM42 30h1v1h-1zM43 30h1v1h-1zM44 30h1v1h-1zM45 30h1v1h-1zM46 30h1v1h-1zM47 30h1v1h-1zM48 30h1v1h-1zM49 30h1v1h-1zM50 30h1v1h-1zM51 30h1v1h-1zM52 30h1v1h-1z"/><path fill="#A09FCE" d="M53 30h1v1h-1z"/><path fill="#9A7CB6" d="M54 30h1v1h-1zM55 30h1v1h-1zM56 30h1v1h-1zM57 30h1v1h-1zM58 30h1v1h-1zM59 30h1v1h-1zM60 30h1v1h-1zM61 30h1v1h-1zM62 30h1v1h-1zM63 30h1v1h-1zM64 30h1v1h-1zM65 30h1v1h-1zM66 30h1v1h-1zM67 30h1v1h-1zM68 30h1v1h-1zM69 30h1v1h-1zM70 30h1v1h-1zM71 30h1v1h-1zM72 30h1v1h-1zM73 30h1v1h-1zM74 30h1v1h-1z"/><path fill="#9277B4" d="M75 30h1v1h-1z"/><path fill="#7063AA" d="M76 30h1v1h-1z"/><path fill="#6D61A9" d="M77 30h1v1h-1zM78 30h1v1h-1zM79 30h1v1h-1zM80 30h1v1h-1zM81 30h1v1h-1zM82 30h1v1h-1zM83 30h1v1h-1z"/><path fill="#7771B3" d="M84 30h1v1h-1z"/><path fill="#8088A7" d="M85 30h1v1h-1z"/><path fill="#231815" d="M86 30h1v1h-1zM87 30h1v1h-1zM88 30h1v1h-1zM89 30h1v1h-1z"/><path fill="#5B5758" d="M0 31h1v1H0zM1 31h1v1H1zM2 31h1v1H2zM3 31h1v1H3z"/><path fill="#919DBB" d="M4 31h1v1H4z"/><path fill="#A0AFD9" d="M5 31h1v1H5z"/><path fill="#7771B3" d="M6 31h1v1H6z"/><path fill="#6D61A9" d="M7 31h1v1H7zM8 31h1v1H8zM9 31h1v1H9zM10 31h1v1h-1z"/><path fill="#766AAE" d="M11 31h1v1h-1z"/><path fill="#977AB5" d="M12 31h1v1h-1z"/><path fill="#9A7CB6" d="M13 31h1v1h-1zM14 31h1v1h-1zM15 31h1v1h-1z"/><path fill="#A591BC" d="M16 31h1v1h-1z"/><path fill="#D1E3D5" d="M17 31h1v1h-1z"/><path fill="#D5EAD7" d="M18 31h1v1h-1zM19 31h1v1h-1zM20 31h1v1h-1zM21 31h1v1h-1zM22 31h1v1h-1zM23 31h1v1h-1zM24 31h1v1h-1zM25 31h1v1h-1zM26 31h1v1h-1zM27 31h1v1h-1zM28 31h1v1h-1zM29 31h1v1h-1zM30 31h1v1h-1zM31 31h1v1h-1zM32 31h1v1h-1zM33 31h1v1h-1zM34 31h1v1h-1zM35 31h1v1h-1zM36 31h1v1h-1zM37 31h1v1h-1zM38 31h1v1h-1zM39 31h1v1h-1z"/><path fill="#CFE3D8" d="M40 31h1v1h-1z"/><path fill="#ACBEDB" d="M41 31h1v1h-1z"/><path fill="#A3B4DC" d="M42 31h1v1h-1zM43 31h1v1h-1zM44 31h1v1h-1zM45 31h1v1h-1zM46 31h1v1h-1zM47 31h1v1h-1zM48 31h1v1h-1zM49 31h1v1h-1zM50 31h1v1h-1zM51 31h1v1h-1z"/><path fill="#9F98C9" d="M52 31h1v1h-1z"/><path fill="#9A7CB6" d="M53 31h1v1h-1zM54 31h1v1h-1zM55 31h1v1h-1zM56 31h1v1h-1zM57 31h1v1h-1zM58 31h1v1h-1zM59 31h1v1h-1zM60 31h1v1h-1zM61 31h1v1h-1zM62 31h1v1h-1zM63 31h1v1h-1zM64 31h1v1h-1zM65 31h1v1h-1zM66 31h1v1h-1zM67 31h1v1h-1zM68 31h1v1h-1zM69 31h1v1h-1zM70 31h1v1h-1zM71 31h1v1h-1zM72 31h1v1h-1zM73 31h1v1h-1zM74 31h1v1h-1zM75 31h1v1h-1z"/><path fill="#9277B4" d="M76 31h1v1h-1z"/><path fill="#7364AB" d="M77 31h1v1h-1z"/><path fill="#6D61A9" d="M78 31h1v1h-1zM79 31h1v1h-1zM80 31h1v1h-1zM81 31h1v1h-1zM82 31h1v1h-1z"/><path fill="#7771B3" d="M83 31h1v1h-1z"/><path fill="#A0AFD9" d="M84 31h1v1h-1z"/><path fill="#838DAA" d="M85 31h1v1h-1z"/><path fill="#231815" d="M86 31h1v1h-1zM87 31h1v1h-1zM88 31h1v1h-1zM89 31h1v1h-1z"/><path fill="#5B5758" d="M0 32h1v1H0zM1 32h1v1H1zM2 32h1v1H2zM3 32h1v1H3z"/><path fill="#919DBB" d="M4 32h1v1H4z"/><path fill="#A3B4DC" d="M5 32h1v1H5zM6 32h1v1H6z"/><path fill="#8180BC" d="M7 32h1v1H7z"/><path fill="#6D61A9" d="M8 32h1v1H8zM9 32h1v1H9zM10 32h1v1h-1zM11 32h1v1h-1z"/><path fill="#7566AB" d="M12 32h1v1h-1z"/><path fill="#977AB5" d="M13 32h1v1h-1z"/><path fill="#9A7CB6" d="M14 32h1v1h-1z"/><path fill="#A591BC" d="M15 32h1v1h-1z"/><path fill="#D1E3D5" d="M16 32h1v1h-1z"/><path fill="#D5EAD7" d="M17 32h1v1h-1zM18 32h1v1h-1zM19 32h1v1h-1zM20 32h1v1h-1zM21 32h1v1h-1zM22 32h1v1h-1zM23 32h1v1h-1zM24 32h1v1h-1zM25 32h1v1h-1zM26 32h1v1h-1zM27 32h1v1h-1zM28 32h1v1h-1zM29 32h1v1h-1zM30 32h1v1h-1zM31 32h1v1h-1zM32 32h1v1h-1zM33 32h1v1h-1zM34 32h1v1h-1zM35 32h1v1h-1zM36 32h1v1h-1zM37 32h1v1h-1zM38 32h1v1h-1zM39 32h1v1h-1zM40 32h1v1h-1z"/><path fill="#D2E7D7" d="M41 32h1v1h-1z"/><path fill="#B3C5DA" d="M42 32h1v1h-1z"/><path fill="#A3B4DC" d="M43 32h1v1h-1zM44 32h1v1h-1zM45 32h1v1h-1zM46 32h1v1h-1zM47 32h1v1h-1zM48 32h1v1h-1zM49 32h1v1h-1zM50 32h1v1h-1z"/><path fill="#9D91C4" d="M51 32h1v1h-1z"/><path fill="#9A7CB6" d="M52 32h1v1h-1zM53 32h1v1h-1zM54 32h1v1h-1zM55 32h1v1h-1zM56 32h1v1h-1zM57 32h1v1h-1zM58 32h1v1h-1zM59 32h1v1h-1zM60 32h1v1h-1zM61 32h1v1h-1zM62 32h1v1h-1zM63 32h1v1h-1zM64 32h1v1h-1zM65 32h1v1h-1zM66 32h1v1h-1zM67 32h1v1h-1zM68 32h1v1h-1zM69 32h1v1h-1zM70 32h1v1h-1zM71 32h1v1h-1zM72 32h1v1h-1zM73 32h1v1h-1zM74 32h1v1h-1zM75 32h1v1h-1zM76 32h1v1h-1z"/><path fill="#8670B0" d="M77 32h1v1h-1z"/><path fill="#6D61A9" d="M78 32h1v1h-1zM79 32h1v1h-1zM80 32h1v1h-1zM81 32h1v1h-1zM82 32h1v1h-1z"/><path fill="#7771B3" d="M83 32h1v1h-1z"/><path fill="#A0AFD9" d="M84 32h1v1h-1z"/><path fill="#838DAA" d="M85 32h1v1h-1z"/><path fill="#231815" d="M86 32h1v1h-1zM87 32h1v1h-1zM88 32h1v1h-1zM89 32h1v1h-1z"/><path fill="#5B5758" d="M0 33h1v1H0zM1 33h1v1H1zM2 33h1v1H2zM3 33h1v1H3z"/><path fill="#919DBB" d="M4 33h1v1H4z"/><path fill="#A3B4DC" d="M5 33h1v1H5zM6 33h1v1H6zM7 33h1v1H7z"/><path fill="#8180BC" d="M8 33h1v1H8z"/><path fill="#6D61A9" d="M9 33h1v1H9zM10 33h1v1h-1zM11 33h1v1h-1zM12 33h1v1h-1z"/><path fill="#7566AB" d="M13 33h1v1h-1z"/><path fill="#A28FBB" d="M14 33h1v1h-1z"/><path fill="#D1E3D5" d="M15 33h1v1h-1z"/><path fill="#D5EAD7" d="M16 33h1v1h-1zM17 33h1v1h-1zM18 33h1v1h-1zM19 33h1v1h-1zM20 33h1v1h-1zM21 33h1v1h-1zM22 33h1v1h-1zM23 33h1v1h-1zM24 33h1v1h-1zM25 33h1v1h-1zM26 33h1v1h-1zM27 33h1v1h-1zM28 33h1v1h-1zM29 33h1v1h-1zM30 33h1v1h-1zM31 33h1v1h-1zM32 33h1v1h-1zM33 33h1v1h-1zM34 33h1v1h-1zM35 33h1v1h-1zM36 33h1v1h-1zM37 33h1v1h-1zM38 33h1v1h-1zM39 33h1v1h-1zM40 33h1v1h-1zM41 33h1v1h-1zM42 33h1v1h-1z"/><path fill="#B9CCDA" d="M43 33h1v1h-1z"/><path fill="#A3B4DC" d="M44 33h1v1h-1zM45 33h1v1h-1zM46 33h1v1h-1zM47 33h1v1h-1zM48 33h1v1h-1zM49 33h1v1h-1z"/><path fill="#9D91C4" d="M50 33h1v1h-1z"/><path fill="#9A7CB6" d="M51 33h1v1h-1zM52 33h1v1h-1zM53 33h1v1h-1zM54 33h1v1h-1zM55 33h1v1h-1zM56 33h1v1h-1zM57 33h1v1h-1zM58 33h1v1h-1zM59 33h1v1h-1zM60 33h1v1h-1zM61 33h1v1h-1zM62 33h1v1h-1zM63 33h1v1h-1zM64 33h1v1h-1zM65 33h1v1h-1zM66 33h1v1h-1zM67 33h1v1h-1zM68 33h1v1h-1zM69 33h1v1h-1zM70 33h1v1h-1zM71 33h1v1h-1zM72 33h1v1h-1zM73 33h1v1h-1zM74 33h1v1h-1zM75 33h1v1h-1z"/><path fill="#8972B1" d="M76 33h1v1h-1z"/><path fill="#6D61A9" d="M77 33h1v1h-1zM78 33h1v1h-1zM79 33h1v1h-1zM80 33h1v1h-1zM81 33h1v1h-1zM82 33h1v1h-1zM83 33h1v1h-1z"/><path fill="#7066AC" d="M84 33h1v1h-1z"/><path fill="#797DA1" d="M85 33h1v1h-1z"/><path fill="#231815" d="M86 33h1v1h-1zM87 33h1v1h-1zM88 33h1v1h-1zM89 33h1v1h-1z"/><path fill="#5B5758" d="M0 34h1v1H0zM1 34h1v1H1zM2 34h1v1H2zM3 34h1v1H3z"/><path fill="#49454B" d="M4 34h1v1H4z"/><path fill="#9BAAD0" d="M5 34h1v1H5z"/><path fill="#A3B4DC" d="M6 34h1v1H6zM7 34h1v1H7zM8 34h1v1H8z"/><path fill="#8180BC" d="M9 34h1v1H9z"/><path fill="#6D61A9" d="M10 34h1v1h-1zM11 34h1v1h-1zM12 34h1v1h-1zM13 34h1v1h-1z"/><path fill="#7A72AF" d="M14 34h1v1h-1z"/><path fill="#C2D0CE" d="M15 34h1v1h-1z"/><path fill="#D5EAD7" d="M16 34h1v1h-1zM17 34h1v1h-1zM18 34h1v1h-1zM19 34h1v1h-1zM20 34h1v1h-1zM21 34h1v1h-1zM22 34h1v1h-1zM23 34h1v1h-1zM24 34h1v1h-1zM25 34h1v1h-1zM26 34h1v1h-1zM27 34h1v1h-1zM28 34h1v1h-1zM29 34h1v1h-1zM30 34h1v1h-1zM31 34h1v1h-1zM32 34h1v1h-1zM33 34h1v1h-1zM34 34h1v1h-1zM35 34h1v1h-1zM36 34h1v1h-1zM37 34h1v1h-1zM38 34h1v1h-1zM39 34h1v1h-1zM40 34h1v1h-1zM41 34h1v1h-1zM42 34h1v1h-1zM43 34h1v1h-1z"/><path fill="#C2D6D9" d="M44 34h1v1h-1z"/><path fill="#A3B4DC" d="M45 34h1v1h-1zM46 34h1v1h-1zM47 34h1v1h-1zM48 34h1v1h-1z"/><path fill="#9D91C4" d="M49 34h1v1h-1z"/><path fill="#9A7CB6" d="M50 34h1v1h-1zM51 34h1v1h-1zM52 34h1v1h-1zM53 34h1v1h-1zM54 34h1v1h-1zM55 34h1v1h-1zM56 34h1v1h-1zM57 34h1v1h-1zM58 34h1v1h-1zM59 34h1v1h-1zM60 34h1v1h-1zM61 34h1v1h-1zM62 34h1v1h-1zM63 34h1v1h-1zM64 34h1v1h-1zM65 34h1v1h-1zM66 34h1v1h-1zM67 34h1v1h-1zM68 34h1v1h-1zM69 34h1v1h-1zM70 34h1v1h-1zM71 34h1v1h-1zM72 34h1v1h-1zM73 34h1v1h-1zM74 34h1v1h-1z"/><path fill="#8F75B3" d="M75 34h1v1h-1z"/><path fill="#6D61A9" d="M76 34h1v1h-1zM77 34h1v1h-1zM78 34h1v1h-1zM79 34h1v1h-1zM80 34h1v1h-1zM81 34h1v1h-1zM82 34h1v1h-1zM83 34h1v1h-1zM84 34h1v1h-1z"/><path fill="#3F334D" d="M85 34h1v1h-1z"/><path fill="#231815" d="M86 34h1v1h-1zM87 34h1v1h-1zM88 34h1v1h-1zM89 34h1v1h-1z"/><path fill="#5B5758" d="M0 35h1v1H0zM1 35h1v1H1zM2 35h1v1H2zM3 35h1v1H3z"/><path fill="#2A201D" d="M4 35h1v1H4z"/><path fill="#3B353A" d="M5 35h1v1H5z"/><path fill="#9BAAD0" d="M6 35h1v1H6z"/><path fill="#A3B4DC" d="M7 35h1v1H7zM8 35h1v1H8zM9 35h1v1H9z"/><path fill="#8180BC" d="M10 35h1v1h-1z"/><path fill="#6D61A9" d="M11 35h1v1h-1zM12 35h1v1h-1zM13 35h1v1h-1zM14 35h1v1h-1z"/><path fill="#746AAC" d="M15 35h1v1h-1z"/><path fill="#C2D0CE" d="M16 35h1v1h-1z"/><path fill="#D5EAD7" d="M17 35h1v1h-1zM18 35h1v1h-1zM19 35h1v1h-1zM20 35h1v1h-1zM21 35h1v1h-1zM22 35h1v1h-1zM23 35h1v1h-1zM24 35h1v1h-1zM25 35h1v1h-1zM26 35h1v1h-1zM27 35h1v1h-1zM28 35h1v1h-1zM29 35h1v1h-1zM30 35h1v1h-1zM31 35h1v1h-1zM32 35h1v1h-1zM33 35h1v1h-1zM34 35h1v1h-1zM35 35h1v1h-1zM36 35h1v1h-1zM37 35h1v1h-1zM38 35h1v1h-1zM39 35h1v1h-1zM40 35h1v1h-1zM41 35h1v1h-1zM42 35h1v1h-1zM43 35h1v1h-1zM44 35h1v1h-1z"/><path fill="#CCE0D8" d="M45 35h1v1h-1z"/><path fill="#A6B7DC" d="M46 35h1v1h-1z"/><path fill="#A2B1DA" d="M47 35h1v1h-1z"/><path fill="#9C8AC0" d="M48 35h1v1h-1z"/><path fill="#9A7CB6" d="M49 35h1v1h-1zM50 35h1v1h-1zM51 35h1v1h-1zM52 35h1v1h-1zM53 35h1v1h-1zM54 35h1v1h-1zM55 35h1v1h-1zM56 35h1v1h-1zM57 35h1v1h-1zM58 35h1v1h-1zM59 35h1v1h-1zM60 35h1v1h-1zM61 35h1v1h-1zM62 35h1v1h-1zM63 35h1v1h-1zM64 35h1v1h-1zM65 35h1v1h-1zM66 35h1v1h-1zM67 35h1v1h-1zM68 35h1v1h-1zM69 35h1v1h-1zM70 35h1v1h-1zM71 35h1v1h-1zM72 35h1v1h-1zM73 35h1v1h-1z"/><path fill="#9277B4" d="M74 35h1v1h-1z"/><path fill="#7063AA" d="M75 35h1v1h-1z"/><path fill="#6D61A9" d="M76 35h1v1h-1zM77 35h1v1h-1zM78 35h1v1h-1zM79 35h1v1h-1zM80 35h1v1h-1zM81 35h1v1h-1zM82 35h1v1h-1zM83 35h1v1h-1z"/><path fill="#3F334D" d="M84 35h1v1h-1z"/><path fill="#231815" d="M85 35h1v1h-1zM86 35h1v1h-1zM87 35h1v1h-1zM88 35h1v1h-1zM89 35h1v1h-1z"/><path fill="#504A4B" d="M1 36h1v1H1z"/><path fill="#4D4747" d="M2 36h1v1H2z"/><path fill="#352C2A" d="M3 36h1v1H3z"/><path fill="#231815" d="M4 36h1v1H4zM5 36h1v1H5z"/><path fill="#3B353A" d="M6 36h1v1H6z"/><path fill="#9BAAD0" d="M7 36h1v1H7z"/><path fill="#A3B4DC" d="M8 36h1v1H8zM9 36h1v1H9zM10 36h1v1h-1z"/><path fill="#8F95C9" d="M11 36h1v1h-1z"/><path fill="#6D61A9" d="M12 36h1v1h-1zM13 36h1v1h-1zM14 36h1v1h-1zM15 36h1v1h-1z"/><path fill="#746AAC" d="M16 36h1v1h-1z"/><path fill="#C2D0CE" d="M17 36h1v1h-1z"/><path fill="#D5EAD7" d="M18 36h1v1h-1zM19 36h1v1h-1zM20 36h1v1h-1zM21 36h1v1h-1zM22 36h1v1h-1zM23 36h1v1h-1zM24 36h1v1h-1zM25 36h1v1h-1zM26 36h1v1h-1zM27 36h1v1h-1zM28 36h1v1h-1zM29 36h1v1h-1zM30 36h1v1h-1zM31 36h1v1h-1zM32 36h1v1h-1zM33 36h1v1h-1zM34 36h1v1h-1zM35 36h1v1h-1zM36 36h1v1h-1zM37 36h1v1h-1zM38 36h1v1h-1zM39 36h1v1h-1zM40 36h1v1h-1zM41 36h1v1h-1zM42 36h1v1h-1zM43 36h1v1h-1zM44 36h1v1h-1zM45 36h1v1h-1z"/><path fill="#CFE3D8" d="M46 36h1v1h-1z"/><path fill="#A394C1" d="M47 36h1v1h-1z"/><path fill="#9A7CB6" d="M48 36h1v1h-1zM49 36h1v1h-1zM50 36h1v1h-1zM51 36h1v1h-1zM52 36h1v1h-1zM53 36h1v1h-1zM54 36h1v1h-1zM55 36h1v1h-1zM56 36h1v1h-1zM57 36h1v1h-1zM58 36h1v1h-1zM59 36h1v1h-1zM60 36h1v1h-1zM61 36h1v1h-1zM62 36h1v1h-1zM63 36h1v1h-1zM64 36h1v1h-1zM65 36h1v1h-1zM66 36h1v1h-1zM67 36h1v1h-1zM68 36h1v1h-1zM69 36h1v1h-1zM70 36h1v1h-1zM71 36h1v1h-1zM72 36h1v1h-1z"/><path fill="#9277B4" d="M73 36h1v1h-1z"/><path fill="#7063AA" d="M74 36h1v1h-1z"/><path fill="#6D61A9" d="M75 36h1v1h-1zM76 36h1v1h-1zM77 36h1v1h-1zM78 36h1v1h-1zM79 36h1v1h-1zM80 36h1v1h-1zM81 36h1v1h-1zM82 36h1v1h-1z"/><path fill="#3F334D" d="M83 36h1v1h-1z"/><path fill="#231815" d="M84 36h1v1h-1zM85 36h1v1h-1zM86 36h1v1h-1zM87 36h1v1h-1zM88 36h1v1h-1zM2 37h1v1H2zM3 37h1v1H3zM4 37h1v1H4zM5 37h1v1H5zM6 37h1v1H6z"/><path fill="#3B353A" d="M7 37h1v1H7z"/><path fill="#9BAAD0" d="M8 37h1v1H8z"/><path fill="#A3B4DC" d="M9 37h1v1H9zM10 37h1v1h-1zM11 37h1v1h-1z"/><path fill="#8F95C9" d="M12 37h1v1h-1z"/><path fill="#6D61A9" d="M13 37h1v1h-1zM14 37h1v1h-1zM15 37h1v1h-1zM16 37h1v1h-1z"/><path fill="#746AAC" d="M17 37h1v1h-1z"/><path fill="#C2D0CE" d="M18 37h1v1h-1z"/><path fill="#D5EAD7" d="M19 37h1v1h-1zM20 37h1v1h-1zM21 37h1v1h-1zM22 37h1v1h-1zM23 37h1v1h-1zM24 37h1v1h-1zM25 37h1v1h-1zM26 37h1v1h-1zM27 37h1v1h-1zM28 37h1v1h-1zM29 37h1v1h-1zM30 37h1v1h-1zM31 37h1v1h-1zM32 37h1v1h-1zM33 37h1v1h-1zM34 37h1v1h-1zM35 37h1v1h-1zM36 37h1v1h-1zM37 37h1v1h-1zM38 37h1v1h-1zM39 37h1v1h-1zM40 37h1v1h-1zM41 37h1v1h-1zM42 37h1v1h-1zM43 37h1v1h-1zM44 37h1v1h-1zM45 37h1v1h-1zM46 37h1v1h-1z"/><path fill="#A998BE" d="M47 37h1v1h-1z"/><path fill="#9A7CB6" d="M48 37h1v1h-1zM49 37h1v1h-1zM50 37h1v1h-1zM51 37h1v1h-1zM52 37h1v1h-1zM53 37h1v1h-1zM54 37h1v1h-1zM55 37h1v1h-1zM56 37h1v1h-1zM57 37h1v1h-1zM58 37h1v1h-1zM59 37h1v1h-1zM60 37h1v1h-1zM61 37h1v1h-1zM62 37h1v1h-1zM63 37h1v1h-1zM64 37h1v1h-1zM65 37h1v1h-1zM66 37h1v1h-1zM67 37h1v1h-1zM68 37h1v1h-1zM69 37h1v1h-1zM70 37h1v1h-1zM71 37h1v1h-1z"/><path fill="#9277B4" d="M72 37h1v1h-1z"/><path fill="#7063AA" d="M73 37h1v1h-1z"/><path fill="#6D61A9" d="M74 37h1v1h-1zM75 37h1v1h-1zM76 37h1v1h-1zM77 37h1v1h-1zM78 37h1v1h-1zM79 37h1v1h-1zM80 37h1v1h-1zM81 37h1v1h-1z"/><path fill="#483D5F" d="M82 37h1v1h-1z"/><path fill="#231815" d="M83 37h1v1h-1zM84 37h1v1h-1zM85 37h1v1h-1zM86 37h1v1h-1zM87 37h1v1h-1zM88 37h1v1h-1zM3 38h1v1H3zM4 38h1v1H4zM5 38h1v1H5zM6 38h1v1H6zM7 38h1v1H7z"/><path fill="#3B353A" d="M8 38h1v1H8z"/><path fill="#9BAAD0" d="M9 38h1v1H9z"/><path fill="#A3B4DC" d="M10 38h1v1h-1zM11 38h1v1h-1zM12 38h1v1h-1z"/><path fill="#8F95C9" d="M13 38h1v1h-1z"/><path fill="#6D61A9" d="M14 38h1v1h-1zM15 38h1v1h-1zM16 38h1v1h-1zM17 38h1v1h-1z"/><path fill="#746AAC" d="M18 38h1v1h-1z"/><path fill="#AEB7C6" d="M19 38h1v1h-1z"/><path fill="#D5EAD7" d="M20 38h1v1h-1zM21 38h1v1h-1zM22 38h1v1h-1zM23 38h1v1h-1zM24 38h1v1h-1zM25 38h1v1h-1zM26 38h1v1h-1zM27 38h1v1h-1zM28 38h1v1h-1zM29 38h1v1h-1zM30 38h1v1h-1zM31 38h1v1h-1zM32 38h1v1h-1zM33 38h1v1h-1zM34 38h1v1h-1zM35 38h1v1h-1zM36 38h1v1h-1zM37 38h1v1h-1zM38 38h1v1h-1zM39 38h1v1h-1zM40 38h1v1h-1zM41 38h1v1h-1zM42 38h1v1h-1zM43 38h1v1h-1zM44 38h1v1h-1zM45 38h1v1h-1zM46 38h1v1h-1z"/><path fill="#A998BE" d="M47 38h1v1h-1z"/><path fill="#9A7CB6" d="M48 38h1v1h-1zM49 38h1v1h-1zM50 38h1v1h-1zM51 38h1v1h-1zM52 38h1v1h-1zM53 38h1v1h-1zM54 38h1v1h-1zM55 38h1v1h-1zM56 38h1v1h-1zM57 38h1v1h-1zM58 38h1v1h-1zM59 38h1v1h-1zM60 38h1v1h-1zM61 38h1v1h-1zM62 38h1v1h-1zM63 38h1v1h-1zM64 38h1v1h-1zM65 38h1v1h-1zM66 38h1v1h-1zM67 38h1v1h-1zM68 38h1v1h-1zM69 38h1v1h-1zM70 38h1v1h-1z"/><path fill="#9277B4" d="M71 38h1v1h-1z"/><path fill="#7063AA" d="M72 38h1v1h-1z"/><path fill="#6D61A9" d="M73 38h1v1h-1zM74 38h1v1h-1zM75 38h1v1h-1zM76 38h1v1h-1zM77 38h1v1h-1zM78 38h1v1h-1zM79 38h1v1h-1zM80 38h1v1h-1z"/><path fill="#514672" d="M81 38h1v1h-1z"/><path fill="#231815" d="M82 38h1v1h-1zM83 38h1v1h-1zM84 38h1v1h-1zM85 38h1v1h-1zM86 38h1v1h-1zM87 38h1v1h-1zM4 39h1v1H4zM5 39h1v1H5zM6 39h1v1H6zM7 39h1v1H7zM8 39h1v1H8z"/><path fill="#332C2E" d="M9 39h1v1H9z"/><path fill="#8B97B7" d="M10 39h1v1h-1z"/><path fill="#A3B4DC" d="M11 39h1v1h-1zM12 39h1v1h-1zM13 39h1v1h-1z"/><path fill="#8F95C9" d="M14 39h1v1h-1z"/><path fill="#6D61A9" d="M15 39h1v1h-1zM16 39h1v1h-1zM17 39h1v1h-1zM18 39h1v1h-1zM19 39h1v1h-1z"/><path fill="#AEB7C6" d="M20 39h1v1h-1z"/><path fill="#D5EAD7" d="M21 39h1v1h-1zM22 39h1v1h-1zM23 39h1v1h-1zM24 39h1v1h-1zM25 39h1v1h-1zM26 39h1v1h-1zM27 39h1v1h-1zM28 39h1v1h-1zM29 39h1v1h-1zM30 39h1v1h-1zM31 39h1v1h-1zM32 39h1v1h-1zM33 39h1v1h-1zM34 39h1v1h-1zM35 39h1v1h-1zM36 39h1v1h-1zM37 39h1v1h-1zM38 39h1v1h-1zM39 39h1v1h-1zM40 39h1v1h-1zM41 39h1v1h-1zM42 39h1v1h-1zM43 39h1v1h-1zM44 39h1v1h-1zM45 39h1v1h-1zM46 39h1v1h-1z"/><path fill="#A998BE" d="M47 39h1v1h-1z"/><path fill="#9A7CB6" d="M48 39h1v1h-1zM49 39h1v1h-1zM50 39h1v1h-1zM51 39h1v1h-1zM52 39h1v1h-1zM53 39h1v1h-1zM54 39h1v1h-1zM55 39h1v1h-1zM56 39h1v1h-1zM57 39h1v1h-1zM58 39h1v1h-1zM59 39h1v1h-1zM60 39h1v1h-1zM61 39h1v1h-1zM62 39h1v1h-1zM63 39h1v1h-1zM64 39h1v1h-1zM65 39h1v1h-1zM66 39h1v1h-1zM67 39h1v1h-1zM68 39h1v1h-1zM69 39h1v1h-1z"/><path fill="#977AB5" d="M70 39h1v1h-1z"/><path fill="#7063AA" d="M71 39h1v1h-1z"/><path fill="#6D61A9" d="M72 39h1v1h-1zM73 39h1v1h-1zM74 39h1v1h-1zM75 39h1v1h-1zM76 39h1v1h-1zM77 39h1v1h-1zM78 39h1v1h-1zM79 39h1v1h-1z"/><path fill="#514672" d="M80 39h1v1h-1z"/><path fill="#231815" d="M81 39h1v1h-1zM82 39h1v1h-1zM83 39h1v1h-1zM84 39h1v1h-1zM85 39h1v1h-1zM86 39h1v1h-1zM5 40h1v1H5zM6 40h1v1H6zM7 40h1v1H7zM8 40h1v1H8zM9 40h1v1H9z"/><path fill="#2B2221" d="M10 40h1v1h-1z"/><path fill="#8B97B7" d="M11 40h1v1h-1z"/><path fill="#A3B4DC" d="M12 40h1v1h-1zM13 40h1v1h-1zM14 40h1v1h-1z"/><path fill="#99A4D2" d="M15 40h1v1h-1z"/><path fill="#7066AC" d="M16 40h1v1h-1z"/><path fill="#6D61A9" d="M17 40h1v1h-1zM18 40h1v1h-1zM19 40h1v1h-1zM20 40h1v1h-1z"/><path fill="#AEB7C6" d="M21 40h1v1h-1z"/><path fill="#D5EAD7" d="M22 40h1v1h-1zM23 40h1v1h-1zM24 40h1v1h-1zM25 40h1v1h-1zM26 40h1v1h-1zM27 40h1v1h-1zM28 40h1v1h-1zM29 40h1v1h-1zM30 40h1v1h-1zM31 40h1v1h-1zM32 40h1v1h-1zM33 40h1v1h-1zM34 40h1v1h-1zM35 40h1v1h-1zM36 40h1v1h-1zM37 40h1v1h-1zM38 40h1v1h-1zM39 40h1v1h-1zM40 40h1v1h-1zM41 40h1v1h-1zM42 40h1v1h-1zM43 40h1v1h-1zM44 40h1v1h-1zM45 40h1v1h-1zM46 40h1v1h-1z"/><path fill="#A998BE" d="M47 40h1v1h-1z"/><path fill="#9A7CB6" d="M48 40h1v1h-1zM49 40h1v1h-1zM50 40h1v1h-1zM51 40h1v1h-1zM52 40h1v1h-1zM53 40h1v1h-1zM54 40h1v1h-1zM55 40h1v1h-1zM56 40h1v1h-1zM57 40h1v1h-1zM58 40h1v1h-1zM59 40h1v1h-1zM60 40h1v1h-1zM61 40h1v1h-1zM62 40h1v1h-1zM63 40h1v1h-1zM64 40h1v1h-1zM65 40h1v1h-1zM66 40h1v1h-1zM67 40h1v1h-1zM68 40h1v1h-1z"/><path fill="#977AB5" d="M69 40h1v1h-1z"/><path fill="#7566AB" d="M70 40h1v1h-1z"/><path fill="#6D61A9" d="M71 40h1v1h-1zM72 40h1v1h-1zM73 40h1v1h-1zM74 40h1v1h-1zM75 40h1v1h-1zM76 40h1v1h-1zM77 40h1v1h-1zM78 40h1v1h-1z"/><path fill="#514672" d="M79 40h1v1h-1z"/><path fill="#231815" d="M80 40h1v1h-1zM81 40h1v1h-1zM82 40h1v1h-1zM83 40h1v1h-1zM84 40h1v1h-1zM85 40h1v1h-1zM6 41h1v1H6zM7 41h1v1H7zM8 41h1v1H8zM9 41h1v1H9zM10 41h1v1h-1z"/><path fill="#2B2221" d="M11 41h1v1h-1z"/><path fill="#8B97B7" d="M12 41h1v1h-1z"/><path fill="#A3B4DC" d="M13 41h1v1h-1zM14 41h1v1h-1zM15 41h1v1h-1z"/><path fill="#99A4D2" d="M16 41h1v1h-1z"/><path fill="#7066AC" d="M17 41h1v1h-1z"/><path fill="#6D61A9" d="M18 41h1v1h-1zM19 41h1v1h-1zM20 41h1v1h-1zM21 41h1v1h-1z"/><path fill="#9598B9" d="M22 41h1v1h-1z"/><path fill="#9197B6" d="M23 41h1v1h-1zM24 41h1v1h-1zM25 41h1v1h-1zM26 41h1v1h-1zM27 41h1v1h-1zM28 41h1v1h-1zM29 41h1v1h-1zM30 41h1v1h-1zM31 41h1v1h-1zM32 41h1v1h-1zM33 41h1v1h-1zM34 41h1v1h-1zM35 41h1v1h-1zM36 41h1v1h-1z"/><path fill="#999EBB" d="M37 41h1v1h-1z"/><path fill="#A1A6C0" d="M38 41h1v1h-1zM39 41h1v1h-1zM40 41h1v1h-1zM41 41h1v1h-1zM42 41h1v1h-1zM43 41h1v1h-1zM44 41h1v1h-1zM45 41h1v1h-1zM46 41h1v1h-1z"/><path fill="#846797" d="M47 41h1v1h-1z"/><path fill="#7D5A93" d="M48 41h1v1h-1zM49 41h1v1h-1zM50 41h1v1h-1zM51 41h1v1h-1zM52 41h1v1h-1zM53 41h1v1h-1zM54 41h1v1h-1zM55 41h1v1h-1zM56 41h1v1h-1zM57 41h1v1h-1zM58 41h1v1h-1zM59 41h1v1h-1zM60 41h1v1h-1zM61 41h1v1h-1zM62 41h1v1h-1z"/><path fill="#714D85" d="M63 41h1v1h-1z"/><path fill="#6E4881" d="M64 41h1v1h-1zM65 41h1v1h-1zM66 41h1v1h-1zM67 41h1v1h-1z"/><path fill="#6F4B84" d="M68 41h1v1h-1z"/><path fill="#7262A7" d="M69 41h1v1h-1z"/><path fill="#6D61A9" d="M70 41h1v1h-1zM71 41h1v1h-1zM72 41h1v1h-1zM73 41h1v1h-1z"/><path fill="#8670B0" d="M74 41h1v1h-1z"/><path fill="#8F75B3" d="M75 41h1v1h-1zM76 41h1v1h-1zM77 41h1v1h-1z"/><path fill="#6A5680" d="M78 41h1v1h-1z"/><path fill="#231815" d="M79 41h1v1h-1zM80 41h1v1h-1zM81 41h1v1h-1zM82 41h1v1h-1zM83 41h1v1h-1zM84 41h1v1h-1zM7 42h1v1H7zM8 42h1v1H8zM9 42h1v1H9zM10 42h1v1h-1zM11 42h1v1h-1z"/><path fill="#2B2221" d="M12 42h1v1h-1z"/><path fill="#8B97B7" d="M13 42h1v1h-1z"/><path fill="#A3B4DC" d="M14 42h1v1h-1zM15 42h1v1h-1zM16 42h1v1h-1z"/><path fill="#99A4D2" d="M17 42h1v1h-1z"/><path fill="#7066AC" d="M18 42h1v1h-1z"/><path fill="#6D61A9" d="M19 42h1v1h-1zM20 42h1v1h-1zM21 42h1v1h-1zM22 42h1v1h-1z"/><path fill="#5F54A0" d="M23 42h1v1h-1z"/><path fill="#4D4494" d="M24 42h1v1h-1zM25 42h1v1h-1zM26 42h1v1h-1zM27 42h1v1h-1zM28 42h1v1h-1zM29 42h1v1h-1zM30 42h1v1h-1zM31 42h1v1h-1zM32 42h1v1h-1zM33 42h1v1h-1zM34 42h1v1h-1zM35 42h1v1h-1z"/><path fill="#534998" d="M36 42h1v1h-1z"/><path fill="#6B5FA8" d="M37 42h1v1h-1z"/><path fill="#6D61A9" d="M38 42h1v1h-1zM39 42h1v1h-1zM40 42h1v1h-1zM41 42h1v1h-1zM42 42h1v1h-1zM43 42h1v1h-1zM44 42h1v1h-1zM45 42h1v1h-1zM46 42h1v1h-1z"/><path fill="#5F376F" d="M47 42h1v1h-1zM48 42h1v1h-1zM49 42h1v1h-1zM50 42h1v1h-1zM51 42h1v1h-1zM52 42h1v1h-1zM53 42h1v1h-1zM54 42h1v1h-1zM55 42h1v1h-1zM56 42h1v1h-1zM57 42h1v1h-1zM58 42h1v1h-1zM59 42h1v1h-1zM60 42h1v1h-1zM61 42h1v1h-1zM62 42h1v1h-1zM63 42h1v1h-1zM64 42h1v1h-1zM65 42h1v1h-1zM66 42h1v1h-1z"/><path fill="#603A73" d="M67 42h1v1h-1z"/><path fill="#6A599E" d="M68 42h1v1h-1z"/><path fill="#6D61A9" d="M69 42h1v1h-1zM70 42h1v1h-1zM71 42h1v1h-1zM72 42h1v1h-1z"/><path fill="#8972B1" d="M73 42h1v1h-1z"/><path fill="#9A7CB6" d="M74 42h1v1h-1zM75 42h1v1h-1zM76 42h1v1h-1z"/><path fill="#846998" d="M77 42h1v1h-1z"/><path fill="#2A1E1F" d="M78 42h1v1h-1z"/><path fill="#231815" d="M79 42h1v1h-1zM80 42h1v1h-1zM81 42h1v1h-1zM82 42h1v1h-1zM83 42h1v1h-1zM8 43h1v1H8zM9 43h1v1H9zM10 43h1v1h-1zM11 43h1v1h-1zM12 43h1v1h-1z"/><path fill="#2B2221" d="M13 43h1v1h-1z"/><path fill="#8B97B7" d="M14 43h1v1h-1z"/><path fill="#A3B4DC" d="M15 43h1v1h-1zM16 43h1v1h-1zM17 43h1v1h-1z"/><path fill="#99A4D2" d="M18 43h1v1h-1z"/><path fill="#7066AC" d="M19 43h1v1h-1z"/><path fill="#6D61A9" d="M20 43h1v1h-1zM21 43h1v1h-1zM22 43h1v1h-1zM23 43h1v1h-1z"/><path fill="#6156A1" d="M24 43h1v1h-1z"/><path fill="#4D4494" d="M25 43h1v1h-1zM26 43h1v1h-1zM27 43h1v1h-1zM28 43h1v1h-1zM29 43h1v1h-1zM30 43h1v1h-1zM31 43h1v1h-1zM32 43h1v1h-1zM33 43h1v1h-1zM34 43h1v1h-1z"/><path fill="#594F9C" d="M35 43h1v1h-1z"/><path fill="#6D61A9" d="M36 43h1v1h-1zM37 43h1v1h-1zM38 43h1v1h-1zM39 43h1v1h-1zM40 43h1v1h-1zM41 43h1v1h-1zM42 43h1v1h-1zM43 43h1v1h-1zM44 43h1v1h-1zM45 43h1v1h-1zM46 43h1v1h-1z"/><path fill="#5F376F" d="M47 43h1v1h-1zM48 43h1v1h-1zM49 43h1v1h-1zM50 43h1v1h-1zM51 43h1v1h-1zM52 43h1v1h-1zM53 43h1v1h-1zM54 43h1v1h-1zM55 43h1v1h-1zM56 43h1v1h-1zM57 43h1v1h-1zM58 43h1v1h-1zM59 43h1v1h-1zM60 43h1v1h-1zM61 43h1v1h-1zM62 43h1v1h-1zM63 43h1v1h-1zM64 43h1v1h-1zM65 43h1v1h-1z"/><path fill="#603A73" d="M66 43h1v1h-1z"/><path fill="#6A599E" d="M67 43h1v1h-1z"/><path fill="#6D61A9" d="M68 43h1v1h-1zM69 43h1v1h-1zM70 43h1v1h-1zM71 43h1v1h-1z"/><path fill="#816DAF" d="M72 43h1v1h-1z"/><path fill="#9A7CB6" d="M73 43h1v1h-1zM74 43h1v1h-1zM75 43h1v1h-1z"/><path fill="#846998" d="M76 43h1v1h-1z"/><path fill="#2A1E1F" d="M77 43h1v1h-1z"/><path fill="#231815" d="M78 43h1v1h-1zM79 43h1v1h-1zM80 43h1v1h-1zM81 43h1v1h-1zM82 43h1v1h-1zM9 44h1v1H9zM10 44h1v1h-1zM11 44h1v1h-1zM12 44h1v1h-1zM13 44h1v1h-1z"/><path fill="#2B2221" d="M14 44h1v1h-1z"/><path fill="#7B839E" d="M15 44h1v1h-1z"/><path fill="#A3B4DC" d="M16 44h1v1h-1zM17 44h1v1h-1zM18 44h1v1h-1z"/><path fill="#A0AFD9" d="M19 44h1v1h-1z"/><path fill="#7771B3" d="M20 44h1v1h-1z"/><path fill="#6D61A9" d="M21 44h1v1h-1zM22 44h1v1h-1zM23 44h1v1h-1zM24 44h1v1h-1z"/><path fill="#6156A1" d="M25 44h1v1h-1z"/><path fill="#4D4494" d="M26 44h1v1h-1zM27 44h1v1h-1zM28 44h1v1h-1zM29 44h1v1h-1zM30 44h1v1h-1zM31 44h1v1h-1zM32 44h1v1h-1zM33 44h1v1h-1z"/><path fill="#594F9C" d="M34 44h1v1h-1z"/><path fill="#6D61A9" d="M35 44h1v1h-1zM36 44h1v1h-1zM37 44h1v1h-1zM38 44h1v1h-1zM39 44h1v1h-1zM40 44h1v1h-1zM41 44h1v1h-1zM42 44h1v1h-1zM43 44h1v1h-1zM44 44h1v1h-1zM45 44h1v1h-1zM46 44h1v1h-1z"/><path fill="#5F376F" d="M47 44h1v1h-1zM48 44h1v1h-1zM49 44h1v1h-1zM50 44h1v1h-1zM51 44h1v1h-1zM52 44h1v1h-1zM53 44h1v1h-1zM54 44h1v1h-1zM55 44h1v1h-1zM56 44h1v1h-1zM57 44h1v1h-1zM58 44h1v1h-1zM59 44h1v1h-1zM60 44h1v1h-1zM61 44h1v1h-1zM62 44h1v1h-1zM63 44h1v1h-1zM64 44h1v1h-1zM65 44h1v1h-1z"/><path fill="#6A579B" d="M66 44h1v1h-1z"/><path fill="#6D61A9" d="M67 44h1v1h-1zM68 44h1v1h-1zM69 44h1v1h-1zM70 44h1v1h-1z"/><path fill="#7E6BAE" d="M71 44h1v1h-1z"/><path fill="#9A7CB6" d="M72 44h1v1h-1zM73 44h1v1h-1zM74 44h1v1h-1z"/><path fill="#846998" d="M75 44h1v1h-1z"/><path fill="#2A1E1F" d="M76 44h1v1h-1z"/><path fill="#231815" d="M77 44h1v1h-1zM78 44h1v1h-1zM79 44h1v1h-1zM80 44h1v1h-1zM81 44h1v1h-1zM10 45h1v1h-1zM11 45h1v1h-1zM12 45h1v1h-1zM13 45h1v1h-1zM14 45h1v1h-1zM15 45h1v1h-1z"/><path fill="#737A91" d="M16 45h1v1h-1z"/><path fill="#A3B4DC" d="M17 45h1v1h-1zM18 45h1v1h-1zM19 45h1v1h-1z"/><path fill="#A0AFD9" d="M20 45h1v1h-1z"/><path fill="#7771B3" d="M21 45h1v1h-1z"/><path fill="#6D61A9" d="M22 45h1v1h-1zM23 45h1v1h-1zM24 45h1v1h-1zM25 45h1v1h-1z"/><path fill="#6156A1" d="M26 45h1v1h-1z"/><path fill="#4D4494" d="M27 45h1v1h-1zM28 45h1v1h-1zM29 45h1v1h-1zM30 45h1v1h-1zM31 45h1v1h-1zM32 45h1v1h-1z"/><path fill="#5F54A0" d="M33 45h1v1h-1z"/><path fill="#6D61A9" d="M34 45h1v1h-1zM35 45h1v1h-1zM36 45h1v1h-1zM37 45h1v1h-1zM38 45h1v1h-1zM39 45h1v1h-1zM40 45h1v1h-1zM41 45h1v1h-1zM42 45h1v1h-1zM43 45h1v1h-1zM44 45h1v1h-1zM45 45h1v1h-1zM46 45h1v1h-1z"/><path fill="#5F376F" d="M47 45h1v1h-1zM48 45h1v1h-1zM49 45h1v1h-1zM50 45h1v1h-1zM51 45h1v1h-1zM52 45h1v1h-1zM53 45h1v1h-1zM54 45h1v1h-1zM55 45h1v1h-1zM56 45h1v1h-1zM57 45h1v1h-1zM58 45h1v1h-1zM59 45h1v1h-1zM60 45h1v1h-1zM61 45h1v1h-1zM62 45h1v1h-1zM63 45h1v1h-1zM64 45h1v1h-1z"/><path fill="#685193" d="M65 45h1v1h-1z"/><path fill="#6D61A9" d="M66 45h1v1h-1zM67 45h1v1h-1zM68 45h1v1h-1zM69 45h1v1h-1z"/><path fill="#7E6BAE" d="M70 45h1v1h-1z"/><path fill="#9A7CB6" d="M71 45h1v1h-1zM72 45h1v1h-1zM73 45h1v1h-1z"/><path fill="#846998" d="M74 45h1v1h-1z"/><path fill="#2A1E1F" d="M75 45h1v1h-1z"/><path fill="#231815" d="M76 45h1v1h-1zM77 45h1v1h-1zM78 45h1v1h-1zM79 45h1v1h-1zM80 45h1v1h-1zM11 46h1v1h-1zM12 46h1v1h-1zM13 46h1v1h-1zM14 46h1v1h-1zM15 46h1v1h-1zM16 46h1v1h-1z"/><path fill="#737A91" d="M17 46h1v1h-1z"/><path fill="#A3B4DC" d="M18 46h1v1h-1zM19 46h1v1h-1zM20 46h1v1h-1z"/><path fill="#A0AFD9" d="M21 46h1v1h-1z"/><path fill="#7771B3" d="M22 46h1v1h-1z"/><path fill="#6D61A9" d="M23 46h1v1h-1zM24 46h1v1h-1zM25 46h1v1h-1zM26 46h1v1h-1z"/><path fill="#675CA5" d="M27 46h1v1h-1z"/><path fill="#4F4695" d="M28 46h1v1h-1z"/><path fill="#4D4494" d="M29 46h1v1h-1zM30 46h1v1h-1zM31 46h1v1h-1z"/><path fill="#6156A1" d="M32 46h1v1h-1z"/><path fill="#6D61A9" d="M33 46h1v1h-1zM34 46h1v1h-1zM35 46h1v1h-1zM36 46h1v1h-1zM37 46h1v1h-1zM38 46h1v1h-1zM39 46h1v1h-1zM40 46h1v1h-1zM41 46h1v1h-1zM42 46h1v1h-1zM43 46h1v1h-1zM44 46h1v1h-1zM45 46h1v1h-1zM46 46h1v1h-1z"/><path fill="#5F376F" d="M47 46h1v1h-1zM48 46h1v1h-1zM49 46h1v1h-1zM50 46h1v1h-1zM51 46h1v1h-1zM52 46h1v1h-1zM53 46h1v1h-1zM54 46h1v1h-1zM55 46h1v1h-1zM56 46h1v1h-1zM57 46h1v1h-1zM58 46h1v1h-1zM59 46h1v1h-1zM60 46h1v1h-1zM61 46h1v1h-1zM62 46h1v1h-1zM63 46h1v1h-1z"/><path fill="#685193" d="M64 46h1v1h-1z"/><path fill="#6D61A9" d="M65 46h1v1h-1zM66 46h1v1h-1zM67 46h1v1h-1zM68 46h1v1h-1z"/><path fill="#7E6BAE" d="M69 46h1v1h-1z"/><path fill="#9A7CB6" d="M70 46h1v1h-1zM71 46h1v1h-1zM72 46h1v1h-1z"/><path fill="#9376AC" d="M73 46h1v1h-1z"/><path fill="#392B33" d="M74 46h1v1h-1z"/><path fill="#231815" d="M75 46h1v1h-1zM76 46h1v1h-1zM77 46h1v1h-1zM78 46h1v1h-1zM79 46h1v1h-1zM12 47h1v1h-1zM13 47h1v1h-1zM14 47h1v1h-1zM15 47h1v1h-1zM16 47h1v1h-1zM17 47h1v1h-1z"/><path fill="#737A91" d="M18 47h1v1h-1z"/><path fill="#A3B4DC" d="M19 47h1v1h-1zM20 47h1v1h-1zM21 47h1v1h-1z"/><path fill="#A0AFD9" d="M22 47h1v1h-1z"/><path fill="#7771B3" d="M23 47h1v1h-1z"/><path fill="#6D61A9" d="M24 47h1v1h-1zM25 47h1v1h-1zM26 47h1v1h-1zM27 47h1v1h-1z"/><path fill="#675CA5" d="M28 47h1v1h-1z"/><path fill="#4F4695" d="M29 47h1v1h-1zM30 47h1v1h-1z"/><path fill="#6156A1" d="M31 47h1v1h-1z"/><path fill="#6D61A9" d="M32 47h1v1h-1zM33 47h1v1h-1zM34 47h1v1h-1zM35 47h1v1h-1zM36 47h1v1h-1zM37 47h1v1h-1zM38 47h1v1h-1zM39 47h1v1h-1zM40 47h1v1h-1zM41 47h1v1h-1zM42 47h1v1h-1zM43 47h1v1h-1zM44 47h1v1h-1zM45 47h1v1h-1zM46 47h1v1h-1z"/><path fill="#5F376F" d="M47 47h1v1h-1zM48 47h1v1h-1zM49 47h1v1h-1zM50 47h1v1h-1zM51 47h1v1h-1zM52 47h1v1h-1zM53 47h1v1h-1zM54 47h1v1h-1zM55 47h1v1h-1zM56 47h1v1h-1zM57 47h1v1h-1zM58 47h1v1h-1zM59 47h1v1h-1zM60 47h1v1h-1zM61 47h1v1h-1zM62 47h1v1h-1z"/><path fill="#685193" d="M63 47h1v1h-1z"/><path fill="#6D61A9" d="M64 47h1v1h-1zM65 47h1v1h-1zM66 47h1v1h-1zM67 47h1v1h-1z"/><path fill="#7E6BAE" d="M68 47h1v1h-1z"/><path fill="#9A7CB6" d="M69 47h1v1h-1zM70 47h1v1h-1zM71 47h1v1h-1z"/><path fill="#9376AC" d="M72 47h1v1h-1z"/><path fill="#392B33" d="M73 47h1v1h-1z"/><path fill="#231815" d="M74 47h1v1h-1zM75 47h1v1h-1zM76 47h1v1h-1zM77 47h1v1h-1zM78 47h1v1h-1zM13 48h1v1h-1zM14 48h1v1h-1zM15 48h1v1h-1zM16 48h1v1h-1zM17 48h1v1h-1zM18 48h1v1h-1z"/><path fill="#737A91" d="M19 48h1v1h-1z"/><path fill="#A3B4DC" d="M20 48h1v1h-1zM21 48h1v1h-1zM22 48h1v1h-1zM23 48h1v1h-1z"/><path fill="#8180BC" d="M24 48h1v1h-1z"/><path fill="#6D61A9" d="M25 48h1v1h-1zM26 48h1v1h-1zM27 48h1v1h-1zM28 48h1v1h-1z"/><path fill="#675CA5" d="M29 48h1v1h-1zM30 48h1v1h-1z"/><path fill="#6D61A9" d="M31 48h1v1h-1zM32 48h1v1h-1zM33 48h1v1h-1zM34 48h1v1h-1zM35 48h1v1h-1zM36 48h1v1h-1zM37 48h1v1h-1zM38 48h1v1h-1zM39 48h1v1h-1zM40 48h1v1h-1zM41 48h1v1h-1zM42 48h1v1h-1zM43 48h1v1h-1zM44 48h1v1h-1zM45 48h1v1h-1zM46 48h1v1h-1z"/><path fill="#5F376F" d="M47 48h1v1h-1zM48 48h1v1h-1zM49 48h1v1h-1zM50 48h1v1h-1zM51 48h1v1h-1zM52 48h1v1h-1zM53 48h1v1h-1zM54 48h1v1h-1zM55 48h1v1h-1zM56 48h1v1h-1zM57 48h1v1h-1zM58 48h1v1h-1zM59 48h1v1h-1zM60 48h1v1h-1zM61 48h1v1h-1z"/><path fill="#685193" d="M62 48h1v1h-1z"/><path fill="#6D61A9" d="M63 48h1v1h-1zM64 48h1v1h-1zM65 48h1v1h-1zM66 48h1v1h-1z"/><path fill="#7566AB" d="M67 48h1v1h-1z"/><path fill="#9A7CB6" d="M68 48h1v1h-1zM69 48h1v1h-1zM70 48h1v1h-1z"/><path fill="#9376AC" d="M71 48h1v1h-1z"/><path fill="#392B33" d="M72 48h1v1h-1z"/><path fill="#231815" d="M73 48h1v1h-1zM74 48h1v1h-1zM75 48h1v1h-1zM76 48h1v1h-1zM77 48h1v1h-1zM14 49h1v1h-1zM15 49h1v1h-1zM16 49h1v1h-1zM17 49h1v1h-1zM18 49h1v1h-1zM19 49h1v1h-1z"/><path fill="#6B7085" d="M20 49h1v1h-1z"/><path fill="#A3B4DC" d="M21 49h1v1h-1zM22 49h1v1h-1zM23 49h1v1h-1zM24 49h1v1h-1z"/><path fill="#8180BC" d="M25 49h1v1h-1z"/><path fill="#6D61A9" d="M26 49h1v1h-1zM27 49h1v1h-1zM28 49h1v1h-1zM29 49h1v1h-1zM30 49h1v1h-1zM31 49h1v1h-1zM32 49h1v1h-1zM33 49h1v1h-1zM34 49h1v1h-1zM35 49h1v1h-1zM36 49h1v1h-1zM37 49h1v1h-1zM38 49h1v1h-1zM39 49h1v1h-1zM40 49h1v1h-1zM41 49h1v1h-1zM42 49h1v1h-1zM43 49h1v1h-1zM44 49h1v1h-1zM45 49h1v1h-1zM46 49h1v1h-1z"/><path fill="#5F376F" d="M47 49h1v1h-1zM48 49h1v1h-1zM49 49h1v1h-1zM50 49h1v1h-1zM51 49h1v1h-1zM52 49h1v1h-1zM53 49h1v1h-1zM54 49h1v1h-1zM55 49h1v1h-1zM56 49h1v1h-1zM57 49h1v1h-1zM58 49h1v1h-1zM59 49h1v1h-1zM60 49h1v1h-1z"/><path fill="#654988" d="M61 49h1v1h-1z"/><path fill="#6D61A9" d="M62 49h1v1h-1zM63 49h1v1h-1zM64 49h1v1h-1zM65 49h1v1h-1z"/><path fill="#7566AB" d="M66 49h1v1h-1z"/><path fill="#977AB5" d="M67 49h1v1h-1z"/><path fill="#9A7CB6" d="M68 49h1v1h-1zM69 49h1v1h-1z"/><path fill="#9376AC" d="M70 49h1v1h-1z"/><path fill="#392B33" d="M71 49h1v1h-1z"/><path fill="#231815" d="M72 49h1v1h-1zM73 49h1v1h-1zM74 49h1v1h-1zM75 49h1v1h-1zM76 49h1v1h-1zM15 50h1v1h-1zM16 50h1v1h-1zM17 50h1v1h-1zM18 50h1v1h-1zM19 50h1v1h-1zM20 50h1v1h-1z"/><path fill="#535360" d="M21 50h1v1h-1z"/><path fill="#A3B4DC" d="M22 50h1v1h-1zM23 50h1v1h-1zM24 50h1v1h-1zM25 50h1v1h-1z"/><path fill="#8180BC" d="M26 50h1v1h-1z"/><path fill="#6D61A9" d="M27 50h1v1h-1zM28 50h1v1h-1zM29 50h1v1h-1zM30 50h1v1h-1zM31 50h1v1h-1zM32 50h1v1h-1zM33 50h1v1h-1zM34 50h1v1h-1zM35 50h1v1h-1zM36 50h1v1h-1zM37 50h1v1h-1zM38 50h1v1h-1zM39 50h1v1h-1zM40 50h1v1h-1zM41 50h1v1h-1zM42 50h1v1h-1zM43 50h1v1h-1zM44 50h1v1h-1zM45 50h1v1h-1zM46 50h1v1h-1z"/><path fill="#5F376F" d="M47 50h1v1h-1zM48 50h1v1h-1zM49 50h1v1h-1zM50 50h1v1h-1zM51 50h1v1h-1zM52 50h1v1h-1zM53 50h1v1h-1zM54 50h1v1h-1zM55 50h1v1h-1zM56 50h1v1h-1zM57 50h1v1h-1zM58 50h1v1h-1zM59 50h1v1h-1z"/><path fill="#644785" d="M60 50h1v1h-1z"/><path fill="#6D61A9" d="M61 50h1v1h-1zM62 50h1v1h-1zM63 50h1v1h-1zM64 50h1v1h-1z"/><path fill="#7566AB" d="M65 50h1v1h-1z"/><path fill="#977AB5" d="M66 50h1v1h-1z"/><path fill="#9A7CB6" d="M67 50h1v1h-1zM68 50h1v1h-1zM69 50h1v1h-1z"/><path fill="#41313D" d="M70 50h1v1h-1z"/><path fill="#231815" d="M71 50h1v1h-1zM72 50h1v1h-1zM73 50h1v1h-1zM74 50h1v1h-1zM75 50h1v1h-1zM16 51h1v1h-1zM17 51h1v1h-1zM18 51h1v1h-1zM19 51h1v1h-1zM20 51h1v1h-1zM21 51h1v1h-1z"/><path fill="#535360" d="M22 51h1v1h-1z"/><path fill="#A3B4DC" d="M23 51h1v1h-1zM24 51h1v1h-1zM25 51h1v1h-1z"/><path fill="#BCCFDA" d="M26 51h1v1h-1z"/><path fill="#9494BA" d="M27 51h1v1h-1z"/><path fill="#6D61A9" d="M28 51h1v1h-1zM29 51h1v1h-1zM30 51h1v1h-1zM31 51h1v1h-1zM32 51h1v1h-1zM33 51h1v1h-1zM34 51h1v1h-1zM35 51h1v1h-1zM36 51h1v1h-1zM37 51h1v1h-1zM38 51h1v1h-1zM39 51h1v1h-1zM40 51h1v1h-1zM41 51h1v1h-1zM42 51h1v1h-1zM43 51h1v1h-1zM44 51h1v1h-1zM45 51h1v1h-1zM46 51h1v1h-1z"/><path fill="#5F376F" d="M47 51h1v1h-1zM48 51h1v1h-1zM49 51h1v1h-1zM50 51h1v1h-1zM51 51h1v1h-1zM52 51h1v1h-1zM53 51h1v1h-1zM54 51h1v1h-1zM55 51h1v1h-1zM56 51h1v1h-1zM57 51h1v1h-1zM58 51h1v1h-1z"/><path fill="#644785" d="M59 51h1v1h-1z"/><path fill="#6D61A9" d="M60 51h1v1h-1zM61 51h1v1h-1zM62 51h1v1h-1zM63 51h1v1h-1z"/><path fill="#7566AB" d="M64 51h1v1h-1z"/><path fill="#977AB5" d="M65 51h1v1h-1z"/><path fill="#9A7CB6" d="M66 51h1v1h-1zM67 51h1v1h-1zM68 51h1v1h-1z"/><path fill="#503E51" d="M69 51h1v1h-1z"/><path fill="#231815" d="M70 51h1v1h-1zM71 51h1v1h-1zM72 51h1v1h-1zM73 51h1v1h-1zM74 51h1v1h-1zM17 52h1v1h-1zM18 52h1v1h-1zM19 52h1v1h-1zM20 52h1v1h-1zM21 52h1v1h-1zM22 52h1v1h-1z"/><path fill="#535360" d="M23 52h1v1h-1z"/><path fill="#A3B4DC" d="M24 52h1v1h-1z"/><path fill="#B6C8DA" d="M25 52h1v1h-1z"/><path fill="#D5EAD7" d="M26 52h1v1h-1zM27 52h1v1h-1z"/><path fill="#AEB7C6" d="M28 52h1v1h-1z"/><path fill="#6D61A9" d="M29 52h1v1h-1zM30 52h1v1h-1zM31 52h1v1h-1zM32 52h1v1h-1zM33 52h1v1h-1zM34 52h1v1h-1zM35 52h1v1h-1zM36 52h1v1h-1zM37 52h1v1h-1zM38 52h1v1h-1zM39 52h1v1h-1zM40 52h1v1h-1zM41 52h1v1h-1zM42 52h1v1h-1zM43 52h1v1h-1zM44 52h1v1h-1zM45 52h1v1h-1zM46 52h1v1h-1z"/><path fill="#5F376F" d="M47 52h1v1h-1zM48 52h1v1h-1zM49 52h1v1h-1zM50 52h1v1h-1zM51 52h1v1h-1zM52 52h1v1h-1zM53 52h1v1h-1zM54 52h1v1h-1zM55 52h1v1h-1zM56 52h1v1h-1zM57 52h1v1h-1z"/><path fill="#644785" d="M58 52h1v1h-1z"/><path fill="#6D61A9" d="M59 52h1v1h-1zM60 52h1v1h-1zM61 52h1v1h-1zM62 52h1v1h-1z"/><path fill="#7566AB" d="M63 52h1v1h-1z"/><path fill="#977AB5" d="M64 52h1v1h-1z"/><path fill="#9A7CB6" d="M65 52h1v1h-1zM66 52h1v1h-1zM67 52h1v1h-1z"/><path fill="#503E51" d="M68 52h1v1h-1z"/><path fill="#231815" d="M69 52h1v1h-1zM70 52h1v1h-1zM71 52h1v1h-1zM72 52h1v1h-1zM73 52h1v1h-1zM18 53h1v1h-1zM19 53h1v1h-1zM20 53h1v1h-1zM21 53h1v1h-1zM22 53h1v1h-1zM23 53h1v1h-1z"/><path fill="#59595F" d="M24 53h1v1h-1z"/><path fill="#D5EAD7" d="M25 53h1v1h-1zM26 53h1v1h-1zM27 53h1v1h-1zM28 53h1v1h-1z"/><path fill="#AEB7C6" d="M29 53h1v1h-1z"/><path fill="#6D61A9" d="M30 53h1v1h-1zM31 53h1v1h-1zM32 53h1v1h-1zM33 53h1v1h-1zM34 53h1v1h-1zM35 53h1v1h-1zM36 53h1v1h-1zM37 53h1v1h-1zM38 53h1v1h-1zM39 53h1v1h-1zM40 53h1v1h-1zM41 53h1v1h-1zM42 53h1v1h-1zM43 53h1v1h-1zM44 53h1v1h-1zM45 53h1v1h-1zM46 53h1v1h-1z"/><path fill="#5F376F" d="M47 53h1v1h-1zM48 53h1v1h-1zM49 53h1v1h-1zM50 53h1v1h-1zM51 53h1v1h-1zM52 53h1v1h-1zM53 53h1v1h-1zM54 53h1v1h-1zM55 53h1v1h-1zM56 53h1v1h-1z"/><path fill="#644785" d="M57 53h1v1h-1z"/><path fill="#6D61A9" d="M58 53h1v1h-1zM59 53h1v1h-1zM60 53h1v1h-1zM61 53h1v1h-1z"/><path fill="#7063AA" d="M62 53h1v1h-1z"/><path fill="#9479B4" d="M63 53h1v1h-1z"/><path fill="#9A7CB6" d="M64 53h1v1h-1zM65 53h1v1h-1zM66 53h1v1h-1z"/><path fill="#503E51" d="M67 53h1v1h-1z"/><path fill="#231815" d="M68 53h1v1h-1zM69 53h1v1h-1zM70 53h1v1h-1zM71 53h1v1h-1zM72 53h1v1h-1zM19 54h1v1h-1zM20 54h1v1h-1zM21 54h1v1h-1zM22 54h1v1h-1zM23 54h1v1h-1zM24 54h1v1h-1z"/><path fill="#66675E" d="M25 54h1v1h-1z"/><path fill="#D5EAD7" d="M26 54h1v1h-1zM27 54h1v1h-1zM28 54h1v1h-1zM29 54h1v1h-1z"/><path fill="#AEB7C6" d="M30 54h1v1h-1z"/><path fill="#6D61A9" d="M31 54h1v1h-1zM32 54h1v1h-1zM33 54h1v1h-1zM34 54h1v1h-1zM35 54h1v1h-1zM36 54h1v1h-1zM37 54h1v1h-1zM38 54h1v1h-1zM39 54h1v1h-1zM40 54h1v1h-1zM41 54h1v1h-1zM42 54h1v1h-1zM43 54h1v1h-1zM44 54h1v1h-1zM45 54h1v1h-1zM46 54h1v1h-1z"/><path fill="#5F376F" d="M47 54h1v1h-1zM48 54h1v1h-1zM49 54h1v1h-1zM50 54h1v1h-1zM51 54h1v1h-1zM52 54h1v1h-1zM53 54h1v1h-1zM54 54h1v1h-1zM55 54h1v1h-1z"/><path fill="#623F7A" d="M56 54h1v1h-1z"/><path fill="#6D61A9" d="M57 54h1v1h-1zM58 54h1v1h-1zM59 54h1v1h-1zM60 54h1v1h-1z"/><path fill="#7063AA" d="M61 54h1v1h-1z"/><path fill="#9277B4" d="M62 54h1v1h-1z"/><path fill="#9A7CB6" d="M63 54h1v1h-1zM64 54h1v1h-1zM65 54h1v1h-1z"/><path fill="#57445B" d="M66 54h1v1h-1z"/><path fill="#231815" d="M67 54h1v1h-1zM68 54h1v1h-1zM69 54h1v1h-1zM70 54h1v1h-1zM71 54h1v1h-1zM72 54h1v1h-1zM20 55h1v1h-1zM21 55h1v1h-1zM22 55h1v1h-1zM23 55h1v1h-1zM24 55h1v1h-1zM25 55h1v1h-1z"/><path fill="#443F39" d="M26 55h1v1h-1z"/><path fill="#CADDCB" d="M27 55h1v1h-1z"/><path fill="#D5EAD7" d="M28 55h1v1h-1zM29 55h1v1h-1zM30 55h1v1h-1z"/><path fill="#AEB7C6" d="M31 55h1v1h-1z"/><path fill="#6D61A9" d="M32 55h1v1h-1zM33 55h1v1h-1zM34 55h1v1h-1zM35 55h1v1h-1zM36 55h1v1h-1zM37 55h1v1h-1zM38 55h1v1h-1zM39 55h1v1h-1zM40 55h1v1h-1zM41 55h1v1h-1zM42 55h1v1h-1zM43 55h1v1h-1zM44 55h1v1h-1zM45 55h1v1h-1zM46 55h1v1h-1z"/><path fill="#5F376F" d="M47 55h1v1h-1zM48 55h1v1h-1zM49 55h1v1h-1zM50 55h1v1h-1zM51 55h1v1h-1zM52 55h1v1h-1zM53 55h1v1h-1zM54 55h1v1h-1z"/><path fill="#623F7A" d="M55 55h1v1h-1z"/><path fill="#6C5EA5" d="M56 55h1v1h-1z"/><path fill="#6D61A9" d="M57 55h1v1h-1zM58 55h1v1h-1zM59 55h1v1h-1z"/><path fill="#7063AA" d="M60 55h1v1h-1z"/><path fill="#9277B4" d="M61 55h1v1h-1z"/><path fill="#9A7CB6" d="M62 55h1v1h-1zM63 55h1v1h-1zM64 55h1v1h-1z"/><path fill="#6D577A" d="M65 55h1v1h-1z"/><path fill="#231815" d="M66 55h1v1h-1zM67 55h1v1h-1zM68 55h1v1h-1zM69 55h1v1h-1zM70 55h1v1h-1zM71 55h1v1h-1zM21 56h1v1h-1zM22 56h1v1h-1zM23 56h1v1h-1zM24 56h1v1h-1zM25 56h1v1h-1zM26 56h1v1h-1z"/><path fill="#443F39" d="M27 56h1v1h-1z"/><path fill="#CADDCB" d="M28 56h1v1h-1z"/><path fill="#D5EAD7" d="M29 56h1v1h-1zM30 56h1v1h-1zM31 56h1v1h-1z"/><path fill="#C2D0CE" d="M32 56h1v1h-1z"/><path fill="#746AAC" d="M33 56h1v1h-1z"/><path fill="#6D61A9" d="M34 56h1v1h-1zM35 56h1v1h-1zM36 56h1v1h-1zM37 56h1v1h-1zM38 56h1v1h-1zM39 56h1v1h-1zM40 56h1v1h-1zM41 56h1v1h-1zM42 56h1v1h-1zM43 56h1v1h-1zM44 56h1v1h-1zM45 56h1v1h-1zM46 56h1v1h-1z"/><path fill="#5F376F" d="M47 56h1v1h-1zM48 56h1v1h-1zM49 56h1v1h-1zM50 56h1v1h-1zM51 56h1v1h-1zM52 56h1v1h-1zM53 56h1v1h-1z"/><path fill="#623F7A" d="M54 56h1v1h-1z"/><path fill="#6C5EA5" d="M55 56h1v1h-1z"/><path fill="#6D61A9" d="M56 56h1v1h-1zM57 56h1v1h-1zM58 56h1v1h-1z"/><path fill="#7063AA" d="M59 56h1v1h-1z"/><path fill="#9277B4" d="M60 56h1v1h-1z"/><path fill="#9A7CB6" d="M61 56h1v1h-1zM62 56h1v1h-1zM63 56h1v1h-1z"/><path fill="#6D577A" d="M64 56h1v1h-1z"/><path fill="#231815" d="M65 56h1v1h-1zM66 56h1v1h-1zM67 56h1v1h-1zM68 56h1v1h-1zM69 56h1v1h-1zM70 56h1v1h-1zM23 57h1v1h-1zM24 57h1v1h-1zM25 57h1v1h-1zM26 57h1v1h-1zM27 57h1v1h-1z"/><path fill="#443F39" d="M28 57h1v1h-1z"/><path fill="#CADDCB" d="M29 57h1v1h-1z"/><path fill="#D5EAD7" d="M30 57h1v1h-1zM31 57h1v1h-1zM32 57h1v1h-1z"/><path fill="#C2D0CE" d="M33 57h1v1h-1z"/><path fill="#746AAC" d="M34 57h1v1h-1z"/><path fill="#6D61A9" d="M35 57h1v1h-1zM36 57h1v1h-1zM37 57h1v1h-1zM38 57h1v1h-1zM39 57h1v1h-1zM40 57h1v1h-1zM41 57h1v1h-1zM42 57h1v1h-1zM43 57h1v1h-1zM44 57h1v1h-1zM45 57h1v1h-1zM46 57h1v1h-1z"/><path fill="#5F376F" d="M47 57h1v1h-1zM48 57h1v1h-1zM49 57h1v1h-1zM50 57h1v1h-1zM51 57h1v1h-1zM52 57h1v1h-1z"/><path fill="#623F7A" d="M53 57h1v1h-1z"/><path fill="#6C5EA5" d="M54 57h1v1h-1z"/><path fill="#6D61A9" d="M55 57h1v1h-1zM56 57h1v1h-1zM57 57h1v1h-1z"/><path fill="#7063AA" d="M58 57h1v1h-1z"/><path fill="#9277B4" d="M59 57h1v1h-1z"/><path fill="#9A7CB6" d="M60 57h1v1h-1zM61 57h1v1h-1zM62 57h1v1h-1z"/><path fill="#6D577A" d="M63 57h1v1h-1z"/><path fill="#231815" d="M64 57h1v1h-1zM65 57h1v1h-1zM66 57h1v1h-1zM67 57h1v1h-1zM68 57h1v1h-1zM69 57h1v1h-1zM24 58h1v1h-1zM25 58h1v1h-1zM26 58h1v1h-1zM27 58h1v1h-1zM28 58h1v1h-1z"/><path fill="#443F39" d="M29 58h1v1h-1z"/><path fill="#CADDCB" d="M30 58h1v1h-1z"/><path fill="#D5EAD7" d="M31 58h1v1h-1zM32 58h1v1h-1zM33 58h1v1h-1z"/><path fill="#C2D0CE" d="M34 58h1v1h-1z"/><path fill="#746AAC" d="M35 58h1v1h-1z"/><path fill="#6D61A9" d="M36 58h1v1h-1zM37 58h1v1h-1zM38 58h1v1h-1zM39 58h1v1h-1zM40 58h1v1h-1zM41 58h1v1h-1zM42 58h1v1h-1zM43 58h1v1h-1zM44 58h1v1h-1zM45 58h1v1h-1zM46 58h1v1h-1z"/><path fill="#5F376F" d="M47 58h1v1h-1zM48 58h1v1h-1zM49 58h1v1h-1zM50 58h1v1h-1zM51 58h1v1h-1z"/><path fill="#623F7A" d="M52 58h1v1h-1z"/><path fill="#6C5EA5" d="M53 58h1v1h-1z"/><path fill="#6D61A9" d="M54 58h1v1h-1zM55 58h1v1h-1zM56 58h1v1h-1zM57 58h1v1h-1z"/><path fill="#8972B1" d="M58 58h1v1h-1z"/><path fill="#9A7CB6" d="M59 58h1v1h-1zM60 58h1v1h-1zM61 58h1v1h-1z"/><path fill="#6D577A" d="M62 58h1v1h-1z"/><path fill="#231815" d="M63 58h1v1h-1zM64 58h1v1h-1zM65 58h1v1h-1zM66 58h1v1h-1zM67 58h1v1h-1zM68 58h1v1h-1zM25 59h1v1h-1zM26 59h1v1h-1zM27 59h1v1h-1zM28 59h1v1h-1zM29 59h1v1h-1z"/><path fill="#443F39" d="M30 59h1v1h-1z"/><path fill="#CADDCB" d="M31 59h1v1h-1z"/><path fill="#D5EAD7" d="M32 59h1v1h-1zM33 59h1v1h-1zM34 59h1v1h-1z"/><path fill="#C2D0CE" d="M35 59h1v1h-1z"/><path fill="#746AAC" d="M36 59h1v1h-1z"/><path fill="#6D61A9" d="M37 59h1v1h-1zM38 59h1v1h-1zM39 59h1v1h-1zM40 59h1v1h-1zM41 59h1v1h-1zM42 59h1v1h-1zM43 59h1v1h-1zM44 59h1v1h-1zM45 59h1v1h-1zM46 59h1v1h-1z"/><path fill="#63427E" d="M47 59h1v1h-1z"/><path fill="#5F376F" d="M48 59h1v1h-1zM49 59h1v1h-1zM50 59h1v1h-1z"/><path fill="#603A73" d="M51 59h1v1h-1z"/><path fill="#6B5CA2" d="M52 59h1v1h-1z"/><path fill="#6D61A9" d="M53 59h1v1h-1zM54 59h1v1h-1zM55 59h1v1h-1zM56 59h1v1h-1z"/><path fill="#8972B1" d="M57 59h1v1h-1z"/><path fill="#9A7CB6" d="M58 59h1v1h-1zM59 59h1v1h-1zM60 59h1v1h-1z"/><path fill="#846998" d="M61 59h1v1h-1z"/><path fill="#2A1E1F" d="M62 59h1v1h-1z"/><path fill="#231815" d="M63 59h1v1h-1zM64 59h1v1h-1zM65 59h1v1h-1zM66 59h1v1h-1zM67 59h1v1h-1zM26 60h1v1h-1zM27 60h1v1h-1zM28 60h1v1h-1zM29 60h1v1h-1zM30 60h1v1h-1z"/><path fill="#39322D" d="M31 60h1v1h-1z"/><path fill="#B4C3B3" d="M32 60h1v1h-1z"/><path fill="#D5EAD7" d="M33 60h1v1h-1zM34 60h1v1h-1zM35 60h1v1h-1z"/><path fill="#CFE1D4" d="M36 60h1v1h-1z"/><path fill="#7771B3" d="M37 60h1v1h-1z"/><path fill="#6D61A9" d="M38 60h1v1h-1zM39 60h1v1h-1zM40 60h1v1h-1zM41 60h1v1h-1zM42 60h1v1h-1zM43 60h1v1h-1zM44 60h1v1h-1zM45 60h1v1h-1zM46 60h1v1h-1z"/><path fill="#63427E" d="M47 60h1v1h-1z"/><path fill="#5F376F" d="M48 60h1v1h-1zM49 60h1v1h-1zM50 60h1v1h-1z"/><path fill="#6A599E" d="M51 60h1v1h-1z"/><path fill="#6D61A9" d="M52 60h1v1h-1zM53 60h1v1h-1zM54 60h1v1h-1zM55 60h1v1h-1z"/><path fill="#8972B1" d="M56 60h1v1h-1z"/><path fill="#9A7CB6" d="M57 60h1v1h-1zM58 60h1v1h-1zM59 60h1v1h-1z"/><path fill="#846998" d="M60 60h1v1h-1z"/><path fill="#2A1E1F" d="M61 60h1v1h-1z"/><path fill="#231815" d="M62 60h1v1h-1zM63 60h1v1h-1zM64 60h1v1h-1zM65 60h1v1h-1zM66 60h1v1h-1zM27 61h1v1h-1zM28 61h1v1h-1zM29 61h1v1h-1zM30 61h1v1h-1zM31 61h1v1h-1z"/><path fill="#2E2521" d="M32 61h1v1h-1z"/><path fill="#B4C3B3" d="M33 61h1v1h-1z"/><path fill="#D5EAD7" d="M34 61h1v1h-1zM35 61h1v1h-1zM36 61h1v1h-1z"/><path fill="#A0AFD9" d="M37 61h1v1h-1z"/><path fill="#7771B3" d="M38 61h1v1h-1z"/><path fill="#6D61A9" d="M39 61h1v1h-1zM40 61h1v1h-1zM41 61h1v1h-1zM42 61h1v1h-1zM43 61h1v1h-1zM44 61h1v1h-1zM45 61h1v1h-1zM46 61h1v1h-1z"/><path fill="#5B478E" d="M47 61h1v1h-1z"/><path fill="#5F376F" d="M48 61h1v1h-1zM49 61h1v1h-1z"/><path fill="#573D7F" d="M50 61h1v1h-1z"/><path fill="#6D61A9" d="M51 61h1v1h-1zM52 61h1v1h-1zM53 61h1v1h-1zM54 61h1v1h-1z"/><path fill="#8972B1" d="M55 61h1v1h-1z"/><path fill="#9A7CB6" d="M56 61h1v1h-1zM57 61h1v1h-1zM58 61h1v1h-1z"/><path fill="#846998" d="M59 61h1v1h-1z"/><path fill="#2A1E1F" d="M60 61h1v1h-1z"/><path fill="#231815" d="M61 61h1v1h-1zM62 61h1v1h-1zM63 61h1v1h-1zM64 61h1v1h-1zM65 61h1v1h-1zM28 62h1v1h-1zM29 62h1v1h-1zM30 62h1v1h-1zM31 62h1v1h-1zM32 62h1v1h-1z"/><path fill="#2E2521" d="M33 62h1v1h-1z"/><path fill="#B4C3B3" d="M34 62h1v1h-1z"/><path fill="#D5EAD7" d="M35 62h1v1h-1zM36 62h1v1h-1z"/><path fill="#A3B4DC" d="M37 62h1v1h-1z"/><path fill="#A0AFD9" d="M38 62h1v1h-1z"/><path fill="#7771B3" d="M39 62h1v1h-1z"/><path fill="#6D61A9" d="M40 62h1v1h-1zM41 62h1v1h-1zM42 62h1v1h-1zM43 62h1v1h-1zM44 62h1v1h-1zM45 62h1v1h-1zM46 62h1v1h-1z"/><path fill="#554B99" d="M47 62h1v1h-1z"/><path fill="#4E4392" d="M48 62h1v1h-1z"/><path fill="#4F428F" d="M49 62h1v1h-1z"/><path fill="#4D4494" d="M50 62h1v1h-1z"/><path fill="#6D61A9" d="M51 62h1v1h-1zM52 62h1v1h-1zM53 62h1v1h-1z"/><path fill="#8972B1" d="M54 62h1v1h-1z"/><path fill="#9A7CB6" d="M55 62h1v1h-1zM56 62h1v1h-1zM57 62h1v1h-1z"/><path fill="#846998" d="M58 62h1v1h-1z"/><path fill="#2A1E1F" d="M59 62h1v1h-1z"/><path fill="#231815" d="M60 62h1v1h-1zM61 62h1v1h-1zM62 62h1v1h-1zM63 62h1v1h-1zM64 62h1v1h-1zM29 63h1v1h-1zM30 63h1v1h-1zM31 63h1v1h-1zM32 63h1v1h-1zM33 63h1v1h-1z"/><path fill="#2E2521" d="M34 63h1v1h-1z"/><path fill="#B4C3B3" d="M35 63h1v1h-1z"/><path fill="#D5EAD7" d="M36 63h1v1h-1z"/><path fill="#A3B4DC" d="M37 63h1v1h-1zM38 63h1v1h-1z"/><path fill="#A0AFD9" d="M39 63h1v1h-1z"/><path fill="#7771B3" d="M40 63h1v1h-1z"/><path fill="#6D61A9" d="M41 63h1v1h-1zM42 63h1v1h-1zM43 63h1v1h-1zM44 63h1v1h-1zM45 63h1v1h-1zM46 63h1v1h-1z"/><path fill="#554B99" d="M47 63h1v1h-1z"/><path fill="#4D4494" d="M48 63h1v1h-1zM49 63h1v1h-1zM50 63h1v1h-1z"/><path fill="#6D61A9" d="M51 63h1v1h-1zM52 63h1v1h-1z"/><path fill="#7E6BAE" d="M53 63h1v1h-1z"/><path fill="#9A7CB6" d="M54 63h1v1h-1zM55 63h1v1h-1zM56 63h1v1h-1z"/><path fill="#9376AC" d="M57 63h1v1h-1z"/><path fill="#322529" d="M58 63h1v1h-1z"/><path fill="#231815" d="M59 63h1v1h-1zM60 63h1v1h-1zM61 63h1v1h-1zM62 63h1v1h-1zM63 63h1v1h-1zM30 64h1v1h-1zM31 64h1v1h-1zM32 64h1v1h-1zM33 64h1v1h-1zM34 64h1v1h-1z"/><path fill="#2E2521" d="M35 64h1v1h-1z"/><path fill="#B4C3B3" d="M36 64h1v1h-1z"/><path fill="#A3B4DC" d="M37 64h1v1h-1zM38 64h1v1h-1zM39 64h1v1h-1zM40 64h1v1h-1z"/><path fill="#8180BC" d="M41 64h1v1h-1z"/><path fill="#6D61A9" d="M42 64h1v1h-1zM43 64h1v1h-1zM44 64h1v1h-1zM45 64h1v1h-1zM46 64h1v1h-1z"/><path fill="#554B99" d="M47 64h1v1h-1z"/><path fill="#4D4494" d="M48 64h1v1h-1zM49 64h1v1h-1zM50 64h1v1h-1z"/><path fill="#6D61A9" d="M51 64h1v1h-1z"/><path fill="#7E6BAE" d="M52 64h1v1h-1z"/><path fill="#9A7CB6" d="M53 64h1v1h-1zM54 64h1v1h-1zM55 64h1v1h-1z"/><path fill="#9376AC" d="M56 64h1v1h-1z"/><path fill="#392B33" d="M57 64h1v1h-1z"/><path fill="#231815" d="M58 64h1v1h-1zM59 64h1v1h-1zM60 64h1v1h-1zM61 64h1v1h-1zM62 64h1v1h-1zM31 65h1v1h-1zM32 65h1v1h-1zM33 65h1v1h-1zM34 65h1v1h-1zM35 65h1v1h-1z"/><path fill="#2E2521" d="M36 65h1v1h-1z"/><path fill="#7B839E" d="M37 65h1v1h-1z"/><path fill="#A3B4DC" d="M38 65h1v1h-1zM39 65h1v1h-1zM40 65h1v1h-1zM41 65h1v1h-1z"/><path fill="#8180BC" d="M42 65h1v1h-1z"/><path fill="#6D61A9" d="M43 65h1v1h-1zM44 65h1v1h-1zM45 65h1v1h-1zM46 65h1v1h-1z"/><path fill="#554B99" d="M47 65h1v1h-1z"/><path fill="#4D4494" d="M48 65h1v1h-1zM49 65h1v1h-1zM50 65h1v1h-1z"/><path fill="#7E6BAE" d="M51 65h1v1h-1z"/><path fill="#9A7CB6" d="M52 65h1v1h-1zM53 65h1v1h-1zM54 65h1v1h-1z"/><path fill="#9376AC" d="M55 65h1v1h-1z"/><path fill="#392B33" d="M56 65h1v1h-1z"/><path fill="#231815" d="M57 65h1v1h-1zM58 65h1v1h-1zM59 65h1v1h-1zM60 65h1v1h-1zM61 65h1v1h-1zM32 66h1v1h-1zM33 66h1v1h-1zM34 66h1v1h-1zM35 66h1v1h-1zM36 66h1v1h-1zM37 66h1v1h-1z"/><path fill="#737A91" d="M38 66h1v1h-1z"/><path fill="#A3B4DC" d="M39 66h1v1h-1zM40 66h1v1h-1zM41 66h1v1h-1zM42 66h1v1h-1z"/><path fill="#8180BC" d="M43 66h1v1h-1z"/><path fill="#6D61A9" d="M44 66h1v1h-1zM45 66h1v1h-1zM46 66h1v1h-1z"/><path fill="#554B99" d="M47 66h1v1h-1z"/><path fill="#4D4494" d="M48 66h1v1h-1zM49 66h1v1h-1zM50 66h1v1h-1z"/><path fill="#9A7CB6" d="M51 66h1v1h-1zM52 66h1v1h-1zM53 66h1v1h-1z"/><path fill="#9376AC" d="M54 66h1v1h-1z"/><path fill="#392B33" d="M55 66h1v1h-1z"/><path fill="#231815" d="M56 66h1v1h-1zM57 66h1v1h-1zM58 66h1v1h-1zM59 66h1v1h-1zM60 66h1v1h-1zM33 67h1v1h-1zM34 67h1v1h-1zM35 67h1v1h-1zM36 67h1v1h-1zM37 67h1v1h-1zM38 67h1v1h-1z"/><path fill="#737A91" d="M39 67h1v1h-1z"/><path fill="#A3B4DC" d="M40 67h1v1h-1zM41 67h1v1h-1zM42 67h1v1h-1zM43 67h1v1h-1z"/><path fill="#8585BF" d="M44 67h1v1h-1z"/><path fill="#6D61A9" d="M45 67h1v1h-1zM46 67h1v1h-1z"/><path fill="#554B99" d="M47 67h1v1h-1z"/><path fill="#4D4494" d="M48 67h1v1h-1zM49 67h1v1h-1zM50 67h1v1h-1z"/><path fill="#9A7CB6" d="M51 67h1v1h-1zM52 67h1v1h-1zM53 67h1v1h-1z"/><path fill="#392B33" d="M54 67h1v1h-1z"/><path fill="#231815" d="M55 67h1v1h-1zM56 67h1v1h-1zM57 67h1v1h-1zM58 67h1v1h-1zM59 67h1v1h-1zM34 68h1v1h-1zM35 68h1v1h-1zM36 68h1v1h-1zM37 68h1v1h-1zM38 68h1v1h-1zM39 68h1v1h-1z"/><path fill="#737A91" d="M40 68h1v1h-1z"/><path fill="#A3B4DC" d="M41 68h1v1h-1zM42 68h1v1h-1zM43 68h1v1h-1zM44 68h1v1h-1z"/><path fill="#8F95C9" d="M45 68h1v1h-1z"/><path fill="#6D61A9" d="M46 68h1v1h-1z"/><path fill="#554B99" d="M47 68h1v1h-1z"/><path fill="#4D4494" d="M48 68h1v1h-1zM49 68h1v1h-1zM50 68h1v1h-1z"/><path fill="#9A7CB6" d="M51 68h1v1h-1zM52 68h1v1h-1z"/><path fill="#503E51" d="M53 68h1v1h-1z"/><path fill="#231815" d="M54 68h1v1h-1zM55 68h1v1h-1zM56 68h1v1h-1zM57 68h1v1h-1zM58 68h1v1h-1zM35 69h1v1h-1zM36 69h1v1h-1zM37 69h1v1h-1zM38 69h1v1h-1zM39 69h1v1h-1zM40 69h1v1h-1z"/><path fill="#737A91" d="M41 69h1v1h-1z"/><path fill="#A3B4DC" d="M42 69h1v1h-1zM43 69h1v1h-1zM44 69h1v1h-1zM45 69h1v1h-1z"/><path fill="#99A4D2" d="M46 69h1v1h-1z"/><path fill="#5F5BA3" d="M47 69h1v1h-1z"/><path fill="#4D4494" d="M48 69h1v1h-1zM49 69h1v1h-1zM50 69h1v1h-1z"/><path fill="#9A7CB6" d="M51 69h1v1h-1z"/><path fill="#503E51" d="M52 69h1v1h-1z"/><path fill="#231815" d="M53 69h1v1h-1zM54 69h1v1h-1zM55 69h1v1h-1zM56 69h1v1h-1zM57 69h1v1h-1zM36 70h1v1h-1zM37 70h1v1h-1zM38 70h1v1h-1zM39 70h1v1h-1zM40 70h1v1h-1zM41 70h1v1h-1z"/><path fill="#6B7085" d="M42 70h1v1h-1z"/><path fill="#A3B4DC" d="M43 70h1v1h-1zM44 70h1v1h-1zM45 70h1v1h-1zM46 70h1v1h-1z"/><path fill="#6360A6" d="M47 70h1v1h-1z"/><path fill="#4D4494" d="M48 70h1v1h-1zM49 70h1v1h-1zM50 70h1v1h-1z"/><path fill="#503E51" d="M51 70h1v1h-1z"/><path fill="#231815" d="M52 70h1v1h-1zM53 70h1v1h-1zM54 70h1v1h-1zM55 70h1v1h-1zM56 70h1v1h-1zM37 71h1v1h-1zM38 71h1v1h-1zM39 71h1v1h-1zM40 71h1v1h-1zM41 71h1v1h-1zM42 71h1v1h-1z"/><path fill="#535360" d="M43 71h1v1h-1z"/><path fill="#A3B4DC" d="M44 71h1v1h-1zM45 71h1v1h-1zM46 71h1v1h-1z"/><path fill="#6360A6" d="M47 71h1v1h-1z"/><path fill="#4D4494" d="M48 71h1v1h-1zM49 71h1v1h-1z"/><path fill="#332945" d="M50 71h1v1h-1z"/><path fill="#231815" d="M51 71h1v1h-1zM52 71h1v1h-1zM53 71h1v1h-1zM54 71h1v1h-1zM55 71h1v1h-1zM38 72h1v1h-1zM39 72h1v1h-1zM40 72h1v1h-1zM41 72h1v1h-1zM42 72h1v1h-1zM43 72h1v1h-1z"/><path fill="#535360" d="M44 72h1v1h-1z"/><path fill="#A3B4DC" d="M45 72h1v1h-1zM46 72h1v1h-1z"/><path fill="#6360A6" d="M47 72h1v1h-1z"/><path fill="#4D4494" d="M48 72h1v1h-1z"/><path fill="#3D3464" d="M49 72h1v1h-1z"/><path fill="#231815" d="M50 72h1v1h-1zM51 72h1v1h-1zM52 72h1v1h-1zM53 72h1v1h-1zM54 72h1v1h-1zM55 72h1v1h-1zM39 73h1v1h-1zM40 73h1v1h-1zM41 73h1v1h-1zM42 73h1v1h-1zM43 73h1v1h-1zM44 73h1v1h-1z"/><path fill="#535360" d="M45 73h1v1h-1z"/><path fill="#A3B4DC" d="M46 73h1v1h-1z"/><path fill="#6360A6" d="M47 73h1v1h-1z"/><path fill="#3D3464" d="M48 73h1v1h-1z"/><path fill="#231815" d="M49 73h1v1h-1zM50 73h1v1h-1zM51 73h1v1h-1zM52 73h1v1h-1zM53 73h1v1h-1zM54 73h1v1h-1zM40 74h1v1h-1zM41 74h1v1h-1zM42 74h1v1h-1zM43 74h1v1h-1zM44 74h1v1h-1zM45 74h1v1h-1z"/><path fill="#535360" d="M46 74h1v1h-1z"/><path fill="#535076" d="M47 74h1v1h-1z"/><path fill="#231815" d="M48 74h1v1h-1zM49 74h1v1h-1zM50 74h1v1h-1zM51 74h1v1h-1zM52 74h1v1h-1zM53 74h1v1h-1zM41 75h1v1h-1zM42 75h1v1h-1zM43 75h1v1h-1zM44 75h1v1h-1zM45 75h1v1h-1zM46 75h1v1h-1zM47 75h1v1h-1zM48 75h1v1h-1zM49 75h1v1h-1zM50 75h1v1h-1zM51 75h1v1h-1zM52 75h1v1h-1zM42 76h1v1h-1zM43 76h1v1h-1zM44 76h1v1h-1zM45 76h1v1h-1zM46 76h1v1h-1zM47 76h1v1h-1zM48 76h1v1h-1zM49 76h1v1h-1zM50 76h1v1h-1zM51 76h1v1h-1zM43 77h1v1h-1zM44 77h1v1h-1zM45 77h1v1h-1zM46 77h1v1h-1zM47 77h1v1h-1zM48 77h1v1h-1zM49 77h1v1h-1zM50 77h1v1h-1zM45 78h1v1h-1zM46 78h1v1h-1zM47 78h1v1h-1zM48 78h1v1h-1zM49 78h1v1h-1zM46 79h1v1h-1zM47 79h1v1h-1zM48 79h1v1h-1z"/></svg>