<svg baseProfile="full" height="90" width="76" xmlns="http://www.w3.org/2000/svg"><path fill="#231815" d="M60 0h1v1h-1zM61 0h1v1h-1zM62 0h1v1h-1zM63 0h1v1h-1zM64 0h1v1h-1zM65 0h1v1h-1zM59 1h1v1h-1zM60 1h1v1h-1zM61 1h1v1h-1zM62 1h1v1h-1zM63 1h1v1h-1zM64 1h1v1h-1zM65 1h1v1h-1zM66 1h1v1h-1zM59 2h1v1h-1zM60 2h1v1h-1zM61 2h1v1h-1zM62 2h1v1h-1zM63 2h1v1h-1zM64 2h1v1h-1zM65 2h1v1h-1zM66 2h1v1h-1zM67 2h1v1h-1zM59 3h1v1h-1zM60 3h1v1h-1zM61 3h1v1h-1z"/><path fill="#ADA8A7" d="M62 3h1v1h-1z"/><path fill="#BAB7B6" d="M63 3h1v1h-1z"/><path fill="#312624" d="M64 3h1v1h-1z"/><path fill="#231815" d="M65 3h1v1h-1zM66 3h1v1h-1zM67 3h1v1h-1zM68 3h1v1h-1zM59 4h1v1h-1zM60 4h1v1h-1zM61 4h1v1h-1z"/><path fill="#F1F1F0" d="M62 4h1v1h-1z"/><path fill="#FFF" d="M63 4h1v1h-1z"/><path fill="#E4E2E2" d="M64 4h1v1h-1z"/><path fill="#4C4341" d="M65 4h1v1h-1z"/><path fill="#231815" d="M66 4h1v1h-1zM67 4h1v1h-1zM68 4h1v1h-1zM69 4h1v1h-1zM58 5h1v1h-1zM59 5h1v1h-1zM60 5h1v1h-1z"/><path fill="#3F3532" d="M61 5h1v1h-1z"/><path fill="#FFF" d="M62 5h1v1h-1zM63 5h1v1h-1zM64 5h1v1h-1z"/><path fill="#F1F1F0" d="M65 5h1v1h-1z"/><path fill="#3F3532" d="M66 5h1v1h-1z"/><path fill="#231815" d="M67 5h1v1h-1zM68 5h1v1h-1zM69 5h1v1h-1zM70 5h1v1h-1zM58 6h1v1h-1zM59 6h1v1h-1zM60 6h1v1h-1z"/><path fill="#5A5250" d="M61 6h1v1h-1z"/><path fill="#FFF" d="M62 6h1v1h-1zM63 6h1v1h-1zM64 6h1v1h-1zM65 6h1v1h-1z"/><path fill="#D6D4D3" d="M66 6h1v1h-1z"/><path fill="#312624" d="M67 6h1v1h-1z"/><path fill="#231815" d="M68 6h1v1h-1zM69 6h1v1h-1zM70 6h1v1h-1zM58 7h1v1h-1zM59 7h1v1h-1zM60 7h1v1h-1z"/><path fill="#5A5250" d="M61 7h1v1h-1z"/><path fill="#FFF" d="M62 7h1v1h-1zM63 7h1v1h-1zM64 7h1v1h-1zM65 7h1v1h-1zM66 7h1v1h-1z"/><path fill="#ADA8A7" d="M67 7h1v1h-1z"/><path fill="#231815" d="M68 7h1v1h-1zM69 7h1v1h-1zM70 7h1v1h-1zM71 7h1v1h-1zM58 8h1v1h-1zM59 8h1v1h-1zM60 8h1v1h-1z"/><path fill="#5A5250" d="M61 8h1v1h-1z"/><path fill="#FFF" d="M62 8h1v1h-1zM63 8h1v1h-1zM64 8h1v1h-1zM65 8h1v1h-1zM66 8h1v1h-1zM67 8h1v1h-1z"/><path fill="#736966" d="M68 8h1v1h-1z"/><path fill="#231815" d="M69 8h1v1h-1zM70 8h1v1h-1zM71 8h1v1h-1zM72 8h1v1h-1zM58 9h1v1h-1zM59 9h1v1h-1zM60 9h1v1h-1z"/><path fill="#5A5250" d="M61 9h1v1h-1z"/><path fill="#FFF" d="M62 9h1v1h-1zM63 9h1v1h-1zM64 9h1v1h-1zM65 9h1v1h-1zM66 9h1v1h-1zM67 9h1v1h-1z"/><path fill="#E9E1DC" d="M68 9h1v1h-1z"/><path fill="#3D322F" d="M69 9h1v1h-1z"/><path fill="#231815" d="M70 9h1v1h-1zM71 9h1v1h-1zM72 9h1v1h-1zM58 10h1v1h-1zM59 10h1v1h-1zM60 10h1v1h-1z"/><path fill="#443734" d="M61 10h1v1h-1z"/><path fill="#FFF" d="M62 10h1v1h-1zM63 10h1v1h-1zM64 10h1v1h-1zM65 10h1v1h-1zM66 10h1v1h-1zM67 10h1v1h-1z"/><path fill="#F6EFE9" d="M68 10h1v1h-1z"/><path fill="#B2A8A2" d="M69 10h1v1h-1z"/><path fill="#231815" d="M70 10h1v1h-1zM71 10h1v1h-1zM72 10h1v1h-1zM73 10h1v1h-1zM59 11h1v1h-1zM60 11h1v1h-1zM61 11h1v1h-1z"/><path fill="#EAE1DF" d="M62 11h1v1h-1z"/><path fill="#FFF" d="M63 11h1v1h-1zM64 11h1v1h-1zM65 11h1v1h-1zM66 11h1v1h-1zM67 11h1v1h-1z"/><path fill="#F6EFE9" d="M68 11h1v1h-1z"/><path fill="#F3E9E2" d="M69 11h1v1h-1z"/><path fill="#4A3F3B" d="M70 11h1v1h-1z"/><path fill="#231815" d="M71 11h1v1h-1zM72 11h1v1h-1zM73 11h1v1h-1zM59 12h1v1h-1zM60 12h1v1h-1zM61 12h1v1h-1z"/><path fill="#DAC9C5" d="M62 12h1v1h-1z"/><path fill="#FFF" d="M63 12h1v1h-1zM64 12h1v1h-1zM65 12h1v1h-1zM66 12h1v1h-1zM67 12h1v1h-1z"/><path fill="#F8F1ED" d="M68 12h1v1h-1z"/><path fill="#F3E9E2" d="M69 12h1v1h-1z"/><path fill="#8B817C" d="M70 12h1v1h-1z"/><path fill="#231815" d="M71 12h1v1h-1zM72 12h1v1h-1zM73 12h1v1h-1zM59 13h1v1h-1zM60 13h1v1h-1zM61 13h1v1h-1z"/><path fill="#CEB7B2" d="M62 13h1v1h-1z"/><path fill="#FFF" d="M63 13h1v1h-1zM64 13h1v1h-1zM65 13h1v1h-1zM66 13h1v1h-1zM67 13h1v1h-1z"/><path fill="#FBF8F6" d="M68 13h1v1h-1z"/><path fill="#F3E9E2" d="M69 13h1v1h-1z"/><path fill="#CCC2BC" d="M70 13h1v1h-1z"/><path fill="#231815" d="M71 13h1v1h-1zM72 13h1v1h-1zM73 13h1v1h-1zM59 14h1v1h-1zM60 14h1v1h-1zM61 14h1v1h-1z"/><path fill="#BD9F98" d="M62 14h1v1h-1z"/><path fill="#FFF" d="M63 14h1v1h-1zM64 14h1v1h-1zM65 14h1v1h-1zM66 14h1v1h-1zM67 14h1v1h-1zM68 14h1v1h-1z"/><path fill="#F4EAE4" d="M69 14h1v1h-1z"/><path fill="#F3E9E2" d="M70 14h1v1h-1z"/><path fill="#302522" d="M71 14h1v1h-1z"/><path fill="#231815" d="M72 14h1v1h-1zM73 14h1v1h-1zM74 14h1v1h-1zM59 15h1v1h-1zM60 15h1v1h-1zM61 15h1v1h-1z"/><path fill="#BD9F98" d="M62 15h1v1h-1z"/><path fill="#F7F3F2" d="M63 15h1v1h-1z"/><path fill="#FFF" d="M64 15h1v1h-1zM65 15h1v1h-1zM66 15h1v1h-1zM67 15h1v1h-1zM68 15h1v1h-1z"/><path fill="#F9F4F1" d="M69 15h1v1h-1z"/><path fill="#F3E9E2" d="M70 15h1v1h-1z"/><path fill="#574C48" d="M71 15h1v1h-1z"/><path fill="#231815" d="M72 15h1v1h-1zM73 15h1v1h-1zM74 15h1v1h-1zM58 16h1v1h-1zM59 16h1v1h-1zM60 16h1v1h-1z"/><path fill="#40312E" d="M61 16h1v1h-1z"/><path fill="#BD9F98" d="M62 16h1v1h-1z"/><path fill="#EFE7E5" d="M63 16h1v1h-1z"/><path fill="#FFF" d="M64 16h1v1h-1zM65 16h1v1h-1zM66 16h1v1h-1zM67 16h1v1h-1zM68 16h1v1h-1z"/><path fill="#FEFEFD" d="M69 16h1v1h-1z"/><path fill="#F4EAE4" d="M70 16h1v1h-1z"/><path fill="#8B817C" d="M71 16h1v1h-1z"/><path fill="#231815" d="M72 16h1v1h-1zM73 16h1v1h-1zM74 16h1v1h-1zM58 17h1v1h-1zM59 17h1v1h-1zM60 17h1v1h-1z"/><path fill="#4A3A36" d="M61 17h1v1h-1z"/><path fill="#BD9F98" d="M62 17h1v1h-1z"/><path fill="#EFE7E5" d="M63 17h1v1h-1z"/><path fill="#FFF" d="M64 17h1v1h-1zM65 17h1v1h-1zM66 17h1v1h-1zM67 17h1v1h-1zM68 17h1v1h-1zM69 17h1v1h-1z"/><path fill="#F9F4F1" d="M70 17h1v1h-1z"/><path fill="#B2A8A2" d="M71 17h1v1h-1z"/><path fill="#231815" d="M72 17h1v1h-1zM73 17h1v1h-1zM74 17h1v1h-1zM58 18h1v1h-1zM59 18h1v1h-1zM60 18h1v1h-1z"/><path fill="#66534E" d="M61 18h1v1h-1z"/><path fill="#BD9F98" d="M62 18h1v1h-1z"/><path fill="#EFE7E5" d="M63 18h1v1h-1z"/><path fill="#FFF" d="M64 18h1v1h-1zM65 18h1v1h-1zM66 18h1v1h-1zM67 18h1v1h-1zM68 18h1v1h-1zM69 18h1v1h-1z"/><path fill="#FEFCFB" d="M70 18h1v1h-1z"/><path fill="#D9CFC8" d="M71 18h1v1h-1z"/><path fill="#231815" d="M72 18h1v1h-1zM73 18h1v1h-1zM74 18h1v1h-1zM58 19h1v1h-1zM59 19h1v1h-1zM60 19h1v1h-1z"/><path fill="#7A645F" d="M61 19h1v1h-1z"/><path fill="#BD9F98" d="M62 19h1v1h-1z"/><path fill="#EAE1DF" d="M63 19h1v1h-1z"/><path fill="#FFF" d="M64 19h1v1h-1zM65 19h1v1h-1zM66 19h1v1h-1zM67 19h1v1h-1zM68 19h1v1h-1zM69 19h1v1h-1zM70 19h1v1h-1z"/><path fill="#F5EDE7" d="M71 19h1v1h-1z"/><path fill="#231815" d="M72 19h1v1h-1zM73 19h1v1h-1zM74 19h1v1h-1zM75 19h1v1h-1zM58 20h1v1h-1zM59 20h1v1h-1zM60 20h1v1h-1z"/><path fill="#A0867F" d="M61 20h1v1h-1z"/><path fill="#BD9F98" d="M62 20h1v1h-1z"/><path fill="#EFE7E5" d="M63 20h1v1h-1z"/><path fill="#FFF" d="M64 20h1v1h-1zM65 20h1v1h-1zM66 20h1v1h-1zM67 20h1v1h-1zM68 20h1v1h-1zM69 20h1v1h-1zM70 20h1v1h-1z"/><path fill="#F8F3EF" d="M71 20h1v1h-1z"/><path fill="#574C48" d="M72 20h1v1h-1z"/><path fill="#231815" d="M73 20h1v1h-1zM74 20h1v1h-1zM75 20h1v1h-1zM57 21h1v1h-1zM58 21h1v1h-1zM59 21h1v1h-1z"/><path fill="#2D201D" d="M60 21h1v1h-1z"/><path fill="#BD9F98" d="M61 21h1v1h-1zM62 21h1v1h-1z"/><path fill="#EFE7E5" d="M63 21h1v1h-1z"/><path fill="#FFF" d="M64 21h1v1h-1zM65 21h1v1h-1zM66 21h1v1h-1zM67 21h1v1h-1zM68 21h1v1h-1zM69 21h1v1h-1zM70 21h1v1h-1z"/><path fill="#F9F4F1" d="M71 21h1v1h-1z"/><path fill="#574C48" d="M72 21h1v1h-1z"/><path fill="#231815" d="M73 21h1v1h-1zM74 21h1v1h-1zM75 21h1v1h-1zM57 22h1v1h-1zM58 22h1v1h-1zM59 22h1v1h-1z"/><path fill="#5D4B46" d="M60 22h1v1h-1z"/><path fill="#BD9F98" d="M61 22h1v1h-1zM62 22h1v1h-1z"/><path fill="#EFE7E5" d="M63 22h1v1h-1z"/><path fill="#FFF" d="M64 22h1v1h-1zM65 22h1v1h-1zM66 22h1v1h-1zM67 22h1v1h-1zM68 22h1v1h-1zM69 22h1v1h-1zM70 22h1v1h-1z"/><path fill="#F9F4F1" d="M71 22h1v1h-1z"/><path fill="#8B817C" d="M72 22h1v1h-1z"/><path fill="#231815" d="M73 22h1v1h-1zM74 22h1v1h-1zM75 22h1v1h-1zM57 23h1v1h-1zM58 23h1v1h-1zM59 23h1v1h-1z"/><path fill="#8D756F" d="M60 23h1v1h-1z"/><path fill="#BD9F98" d="M61 23h1v1h-1zM62 23h1v1h-1z"/><path fill="#F7F3F2" d="M63 23h1v1h-1z"/><path fill="#FFF" d="M64 23h1v1h-1zM65 23h1v1h-1zM66 23h1v1h-1zM67 23h1v1h-1zM68 23h1v1h-1zM69 23h1v1h-1zM70 23h1v1h-1z"/><path fill="#F8F3EF" d="M71 23h1v1h-1z"/><path fill="#8B817C" d="M72 23h1v1h-1z"/><path fill="#231815" d="M73 23h1v1h-1zM74 23h1v1h-1zM75 23h1v1h-1zM56 24h1v1h-1zM57 24h1v1h-1zM58 24h1v1h-1z"/><path fill="#362925" d="M59 24h1v1h-1z"/><path fill="#BD9F98" d="M60 24h1v1h-1zM61 24h1v1h-1zM62 24h1v1h-1z"/><path fill="#FFF" d="M63 24h1v1h-1zM64 24h1v1h-1zM65 24h1v1h-1zM66 24h1v1h-1zM67 24h1v1h-1zM68 24h1v1h-1zM69 24h1v1h-1zM70 24h1v1h-1z"/><path fill="#F6EFE9" d="M71 24h1v1h-1z"/><path fill="#B2A8A2" d="M72 24h1v1h-1z"/><path fill="#231815" d="M73 24h1v1h-1zM74 24h1v1h-1zM75 24h1v1h-1zM55 25h1v1h-1zM56 25h1v1h-1zM57 25h1v1h-1zM58 25h1v1h-1z"/><path fill="#705C57" d="M59 25h1v1h-1z"/><path fill="#BD9F98" d="M60 25h1v1h-1zM61 25h1v1h-1z"/><path fill="#CEB7B2" d="M62 25h1v1h-1z"/><path fill="#FFF" d="M63 25h1v1h-1zM64 25h1v1h-1zM65 25h1v1h-1zM66 25h1v1h-1zM67 25h1v1h-1zM68 25h1v1h-1zM69 25h1v1h-1zM70 25h1v1h-1z"/><path fill="#F3E9E2" d="M71 25h1v1h-1z"/><path fill="#BFB5AF" d="M72 25h1v1h-1z"/><path fill="#231815" d="M73 25h1v1h-1zM74 25h1v1h-1zM75 25h1v1h-1zM55 26h1v1h-1zM56 26h1v1h-1zM57 26h1v1h-1z"/><path fill="#2D201D" d="M58 26h1v1h-1z"/><path fill="#B39790" d="M59 26h1v1h-1z"/><path fill="#BD9F98" d="M60 26h1v1h-1zM61 26h1v1h-1z"/><path fill="#DECFCC" d="M62 26h1v1h-1z"/><path fill="#FFF" d="M63 26h1v1h-1zM64 26h1v1h-1zM65 26h1v1h-1zM66 26h1v1h-1zM67 26h1v1h-1zM68 26h1v1h-1zM69 26h1v1h-1z"/><path fill="#FCFAF8" d="M70 26h1v1h-1z"/><path fill="#F3E9E2" d="M71 26h1v1h-1z"/><path fill="#BFB5AF" d="M72 26h1v1h-1z"/><path fill="#231815" d="M73 26h1v1h-1zM74 26h1v1h-1zM75 26h1v1h-1zM54 27h1v1h-1zM55 27h1v1h-1zM56 27h1v1h-1zM57 27h1v1h-1z"/><path fill="#7A645F" d="M58 27h1v1h-1z"/><path fill="#BD9F98" d="M59 27h1v1h-1zM60 27h1v1h-1zM61 27h1v1h-1z"/><path fill="#F3EDEC" d="M62 27h1v1h-1z"/><path fill="#FFF" d="M63 27h1v1h-1zM64 27h1v1h-1zM65 27h1v1h-1zM66 27h1v1h-1zM67 27h1v1h-1zM68 27h1v1h-1zM69 27h1v1h-1z"/><path fill="#F8F3EF" d="M70 27h1v1h-1z"/><path fill="#F3E9E2" d="M71 27h1v1h-1z"/><path fill="#BFB5AF" d="M72 27h1v1h-1z"/><path fill="#231815" d="M73 27h1v1h-1zM74 27h1v1h-1zM75 27h1v1h-1zM53 28h1v1h-1zM54 28h1v1h-1zM55 28h1v1h-1zM56 28h1v1h-1z"/><path fill="#40312E" d="M57 28h1v1h-1z"/><path fill="#BD9F98" d="M58 28h1v1h-1zM59 28h1v1h-1zM60 28h1v1h-1z"/><path fill="#C5ABA5" d="M61 28h1v1h-1z"/><path fill="#FFF" d="M62 28h1v1h-1zM63 28h1v1h-1zM64 28h1v1h-1zM65 28h1v1h-1zM66 28h1v1h-1zM67 28h1v1h-1zM68 28h1v1h-1zM69 28h1v1h-1z"/><path fill="#F5ECE6" d="M70 28h1v1h-1z"/><path fill="#F3E9E2" d="M71 28h1v1h-1z"/><path fill="#E6DCD5" d="M72 28h1v1h-1z"/><path fill="#231815" d="M73 28h1v1h-1zM74 28h1v1h-1zM75 28h1v1h-1zM53 29h1v1h-1zM54 29h1v1h-1zM55 29h1v1h-1z"/><path fill="#2D201D" d="M56 29h1v1h-1z"/><path fill="#A0867F" d="M57 29h1v1h-1z"/><path fill="#BD9F98" d="M58 29h1v1h-1zM59 29h1v1h-1zM60 29h1v1h-1z"/><path fill="#E2D5D2" d="M61 29h1v1h-1z"/><path fill="#FFF" d="M62 29h1v1h-1zM63 29h1v1h-1zM64 29h1v1h-1zM65 29h1v1h-1zM66 29h1v1h-1zM67 29h1v1h-1zM68 29h1v1h-1z"/><path fill="#FBF8F6" d="M69 29h1v1h-1z"/><path fill="#F3E9E2" d="M70 29h1v1h-1zM71 29h1v1h-1zM72 29h1v1h-1z"/><path fill="#231815" d="M73 29h1v1h-1zM74 29h1v1h-1zM75 29h1v1h-1zM52 30h1v1h-1zM53 30h1v1h-1zM54 30h1v1h-1zM55 30h1v1h-1z"/><path fill="#836C67" d="M56 30h1v1h-1z"/><path fill="#BD9F98" d="M57 30h1v1h-1zM58 30h1v1h-1zM59 30h1v1h-1z"/><path fill="#C1A59E" d="M60 30h1v1h-1z"/><path fill="#FBF9F9" d="M61 30h1v1h-1z"/><path fill="#FFF" d="M62 30h1v1h-1zM63 30h1v1h-1zM64 30h1v1h-1zM65 30h1v1h-1zM66 30h1v1h-1zM67 30h1v1h-1zM68 30h1v1h-1z"/><path fill="#F7F0EB" d="M69 30h1v1h-1z"/><path fill="#F3E9E2" d="M70 30h1v1h-1zM71 30h1v1h-1zM72 30h1v1h-1z"/><path fill="#231815" d="M73 30h1v1h-1zM74 30h1v1h-1zM75 30h1v1h-1zM51 31h1v1h-1zM52 31h1v1h-1zM53 31h1v1h-1zM54 31h1v1h-1z"/><path fill="#66534E" d="M55 31h1v1h-1z"/><path fill="#BD9F98" d="M56 31h1v1h-1zM57 31h1v1h-1zM58 31h1v1h-1zM59 31h1v1h-1z"/><path fill="#E2D5D2" d="M60 31h1v1h-1z"/><path fill="#FFF" d="M61 31h1v1h-1zM62 31h1v1h-1zM63 31h1v1h-1zM64 31h1v1h-1zM65 31h1v1h-1zM66 31h1v1h-1zM67 31h1v1h-1z"/><path fill="#FEFCFB" d="M68 31h1v1h-1z"/><path fill="#F3E9E2" d="M69 31h1v1h-1zM70 31h1v1h-1zM71 31h1v1h-1zM72 31h1v1h-1z"/><path fill="#231815" d="M73 31h1v1h-1zM74 31h1v1h-1zM75 31h1v1h-1zM49 32h1v1h-1zM50 32h1v1h-1zM51 32h1v1h-1zM52 32h1v1h-1zM53 32h1v1h-1z"/><path fill="#5D4B46" d="M54 32h1v1h-1z"/><path fill="#BD9F98" d="M55 32h1v1h-1zM56 32h1v1h-1zM57 32h1v1h-1zM58 32h1v1h-1z"/><path fill="#C9B1AB" d="M59 32h1v1h-1z"/><path fill="#FFF" d="M60 32h1v1h-1zM61 32h1v1h-1zM62 32h1v1h-1zM63 32h1v1h-1zM64 32h1v1h-1zM65 32h1v1h-1zM66 32h1v1h-1zM67 32h1v1h-1z"/><path fill="#F8F1ED" d="M68 32h1v1h-1z"/><path fill="#F3E9E2" d="M69 32h1v1h-1zM70 32h1v1h-1zM71 32h1v1h-1z"/><path fill="#E6DCD5" d="M72 32h1v1h-1z"/><path fill="#231815" d="M73 32h1v1h-1zM74 32h1v1h-1zM75 32h1v1h-1zM48 33h1v1h-1zM49 33h1v1h-1zM50 33h1v1h-1zM51 33h1v1h-1zM52 33h1v1h-1z"/><path fill="#5D4B46" d="M53 33h1v1h-1z"/><path fill="#BD9F98" d="M54 33h1v1h-1zM55 33h1v1h-1zM56 33h1v1h-1zM57 33h1v1h-1z"/><path fill="#C1A59E" d="M58 33h1v1h-1z"/><path fill="#F7F3F2" d="M59 33h1v1h-1z"/><path fill="#FFF" d="M60 33h1v1h-1zM61 33h1v1h-1zM62 33h1v1h-1zM63 33h1v1h-1zM64 33h1v1h-1zM65 33h1v1h-1zM66 33h1v1h-1z"/><path fill="#FEFEFD" d="M67 33h1v1h-1z"/><path fill="#F4EAE4" d="M68 33h1v1h-1z"/><path fill="#F3E9E2" d="M69 33h1v1h-1zM70 33h1v1h-1zM71 33h1v1h-1z"/><path fill="#BFB5AF" d="M72 33h1v1h-1z"/><path fill="#231815" d="M73 33h1v1h-1zM74 33h1v1h-1zM75 33h1v1h-1zM47 34h1v1h-1zM48 34h1v1h-1zM49 34h1v1h-1zM50 34h1v1h-1zM51 34h1v1h-1z"/><path fill="#5D4B46" d="M52 34h1v1h-1z"/><path fill="#BD9F98" d="M53 34h1v1h-1zM54 34h1v1h-1zM55 34h1v1h-1zM56 34h1v1h-1zM57 34h1v1h-1z"/><path fill="#EFE7E5" d="M58 34h1v1h-1z"/><path fill="#FFF" d="M59 34h1v1h-1zM60 34h1v1h-1zM61 34h1v1h-1zM62 34h1v1h-1zM63 34h1v1h-1zM64 34h1v1h-1zM65 34h1v1h-1zM66 34h1v1h-1z"/><path fill="#F9F4F1" d="M67 34h1v1h-1z"/><path fill="#F3E9E2" d="M68 34h1v1h-1zM69 34h1v1h-1z"/><path fill="#ECE0D9" d="M70 34h1v1h-1z"/><path fill="#C0A49D" d="M71 34h1v1h-1z"/><path fill="#977D77" d="M72 34h1v1h-1z"/><path fill="#231815" d="M73 34h1v1h-1zM74 34h1v1h-1zM75 34h1v1h-1zM45 35h1v1h-1zM46 35h1v1h-1zM47 35h1v1h-1zM48 35h1v1h-1zM49 35h1v1h-1zM50 35h1v1h-1z"/><path fill="#836C67" d="M51 35h1v1h-1z"/><path fill="#BD9F98" d="M52 35h1v1h-1zM53 35h1v1h-1zM54 35h1v1h-1zM55 35h1v1h-1z"/><path fill="#C1A59E" d="M56 35h1v1h-1z"/><path fill="#E6DBD8" d="M57 35h1v1h-1z"/><path fill="#FFF" d="M58 35h1v1h-1zM59 35h1v1h-1zM60 35h1v1h-1zM61 35h1v1h-1zM62 35h1v1h-1zM63 35h1v1h-1zM64 35h1v1h-1zM65 35h1v1h-1zM66 35h1v1h-1z"/><path fill="#F5ECE6" d="M67 35h1v1h-1z"/><path fill="#F3E9E2" d="M68 35h1v1h-1zM69 35h1v1h-1z"/><path fill="#DBC9C2" d="M70 35h1v1h-1z"/><path fill="#BD9F98" d="M71 35h1v1h-1z"/><path fill="#977D77" d="M72 35h1v1h-1z"/><path fill="#231815" d="M73 35h1v1h-1zM74 35h1v1h-1zM75 35h1v1h-1zM43 36h1v1h-1zM44 36h1v1h-1zM45 36h1v1h-1zM46 36h1v1h-1zM47 36h1v1h-1zM48 36h1v1h-1z"/><path fill="#362925" d="M49 36h1v1h-1z"/><path fill="#A0867F" d="M50 36h1v1h-1z"/><path fill="#BD9F98" d="M51 36h1v1h-1zM52 36h1v1h-1zM53 36h1v1h-1zM54 36h1v1h-1z"/><path fill="#C1A59E" d="M55 36h1v1h-1z"/><path fill="#F3EDEC" d="M56 36h1v1h-1z"/><path fill="#FFF" d="M57 36h1v1h-1zM58 36h1v1h-1zM59 36h1v1h-1zM60 36h1v1h-1zM61 36h1v1h-1zM62 36h1v1h-1zM63 36h1v1h-1zM64 36h1v1h-1zM65 36h1v1h-1z"/><path fill="#FBF7F4" d="M66 36h1v1h-1z"/><path fill="#F3E9E2" d="M67 36h1v1h-1zM68 36h1v1h-1zM69 36h1v1h-1z"/><path fill="#CEB6AF" d="M70 36h1v1h-1z"/><path fill="#BD9F98" d="M71 36h1v1h-1z"/><path fill="#836C67" d="M72 36h1v1h-1z"/><path fill="#231815" d="M73 36h1v1h-1zM74 36h1v1h-1zM75 36h1v1h-1zM41 37h1v1h-1zM42 37h1v1h-1zM43 37h1v1h-1zM44 37h1v1h-1zM45 37h1v1h-1zM46 37h1v1h-1zM47 37h1v1h-1z"/><path fill="#66534E" d="M48 37h1v1h-1z"/><path fill="#B39790" d="M49 37h1v1h-1z"/><path fill="#BD9F98" d="M50 37h1v1h-1zM51 37h1v1h-1zM52 37h1v1h-1zM53 37h1v1h-1z"/><path fill="#C9B1AB" d="M54 37h1v1h-1z"/><path fill="#FBF9F9" d="M55 37h1v1h-1z"/><path fill="#FFF" d="M56 37h1v1h-1zM57 37h1v1h-1zM58 37h1v1h-1zM59 37h1v1h-1zM60 37h1v1h-1zM61 37h1v1h-1zM62 37h1v1h-1zM63 37h1v1h-1zM64 37h1v1h-1zM65 37h1v1h-1z"/><path fill="#F6EFE9" d="M66 37h1v1h-1z"/><path fill="#F3E9E2" d="M67 37h1v1h-1zM68 37h1v1h-1zM69 37h1v1h-1z"/><path fill="#CBB2AB" d="M70 37h1v1h-1z"/><path fill="#BD9F98" d="M71 37h1v1h-1z"/><path fill="#705C57" d="M72 37h1v1h-1z"/><path fill="#231815" d="M73 37h1v1h-1zM74 37h1v1h-1zM75 37h1v1h-1zM39 38h1v1h-1zM40 38h1v1h-1zM41 38h1v1h-1zM42 38h1v1h-1zM43 38h1v1h-1zM44 38h1v1h-1zM45 38h1v1h-1z"/><path fill="#362925" d="M46 38h1v1h-1z"/><path fill="#977D77" d="M47 38h1v1h-1z"/><path fill="#BD9F98" d="M48 38h1v1h-1zM49 38h1v1h-1zM50 38h1v1h-1zM51 38h1v1h-1zM52 38h1v1h-1z"/><path fill="#D2BDB8" d="M53 38h1v1h-1z"/><path fill="#FBF9F9" d="M54 38h1v1h-1z"/><path fill="#FFF" d="M55 38h1v1h-1zM56 38h1v1h-1zM57 38h1v1h-1zM58 38h1v1h-1zM59 38h1v1h-1zM60 38h1v1h-1zM61 38h1v1h-1zM62 38h1v1h-1zM63 38h1v1h-1zM64 38h1v1h-1z"/><path fill="#FEFCFB" d="M65 38h1v1h-1z"/><path fill="#F3E9E2" d="M66 38h1v1h-1zM67 38h1v1h-1zM68 38h1v1h-1zM69 38h1v1h-1z"/><path fill="#CBB2AB" d="M70 38h1v1h-1z"/><path fill="#BD9F98" d="M71 38h1v1h-1z"/><path fill="#66534E" d="M72 38h1v1h-1z"/><path fill="#231815" d="M73 38h1v1h-1zM74 38h1v1h-1zM75 38h1v1h-1zM37 39h1v1h-1zM38 39h1v1h-1zM39 39h1v1h-1zM40 39h1v1h-1zM41 39h1v1h-1zM42 39h1v1h-1zM43 39h1v1h-1z"/><path fill="#2D201D" d="M44 39h1v1h-1z"/><path fill="#705C57" d="M45 39h1v1h-1z"/><path fill="#BD9F98" d="M46 39h1v1h-1zM47 39h1v1h-1zM48 39h1v1h-1zM49 39h1v1h-1zM50 39h1v1h-1z"/><path fill="#C1A59E" d="M51 39h1v1h-1z"/><path fill="#E2D5D2" d="M52 39h1v1h-1z"/><path fill="#FFF" d="M53 39h1v1h-1zM54 39h1v1h-1zM55 39h1v1h-1zM56 39h1v1h-1zM57 39h1v1h-1zM58 39h1v1h-1zM59 39h1v1h-1zM60 39h1v1h-1zM61 39h1v1h-1zM62 39h1v1h-1zM63 39h1v1h-1zM64 39h1v1h-1z"/><path fill="#F8F3EF" d="M65 39h1v1h-1z"/><path fill="#F3E9E2" d="M66 39h1v1h-1zM67 39h1v1h-1zM68 39h1v1h-1zM69 39h1v1h-1z"/><path fill="#CBB2AB" d="M70 39h1v1h-1z"/><path fill="#BD9F98" d="M71 39h1v1h-1z"/><path fill="#4A3A36" d="M72 39h1v1h-1z"/><path fill="#231815" d="M73 39h1v1h-1zM74 39h1v1h-1zM75 39h1v1h-1zM35 40h1v1h-1zM36 40h1v1h-1zM37 40h1v1h-1zM38 40h1v1h-1zM39 40h1v1h-1zM40 40h1v1h-1zM41 40h1v1h-1z"/><path fill="#2D201D" d="M42 40h1v1h-1z"/><path fill="#705C57" d="M43 40h1v1h-1z"/><path fill="#B39790" d="M44 40h1v1h-1z"/><path fill="#BD9F98" d="M45 40h1v1h-1zM46 40h1v1h-1zM47 40h1v1h-1zM48 40h1v1h-1zM49 40h1v1h-1z"/><path fill="#D6C3BF" d="M50 40h1v1h-1z"/><path fill="#F7F3F2" d="M51 40h1v1h-1z"/><path fill="#FFF" d="M52 40h1v1h-1zM53 40h1v1h-1zM54 40h1v1h-1zM55 40h1v1h-1zM56 40h1v1h-1zM57 40h1v1h-1zM58 40h1v1h-1zM59 40h1v1h-1zM60 40h1v1h-1zM61 40h1v1h-1zM62 40h1v1h-1zM63 40h1v1h-1zM64 40h1v1h-1z"/><path fill="#F4EAE4" d="M65 40h1v1h-1z"/><path fill="#F3E9E2" d="M66 40h1v1h-1zM67 40h1v1h-1zM68 40h1v1h-1zM69 40h1v1h-1z"/><path fill="#CBB2AB" d="M70 40h1v1h-1z"/><path fill="#BD9F98" d="M71 40h1v1h-1z"/><path fill="#362925" d="M72 40h1v1h-1z"/><path fill="#231815" d="M73 40h1v1h-1zM74 40h1v1h-1zM75 40h1v1h-1zM32 41h1v1h-1zM33 41h1v1h-1zM34 41h1v1h-1zM35 41h1v1h-1zM36 41h1v1h-1zM37 41h1v1h-1zM38 41h1v1h-1zM39 41h1v1h-1z"/><path fill="#2D201D" d="M40 41h1v1h-1z"/><path fill="#705C57" d="M41 41h1v1h-1z"/><path fill="#B39790" d="M42 41h1v1h-1z"/><path fill="#BD9F98" d="M43 41h1v1h-1zM44 41h1v1h-1zM45 41h1v1h-1zM46 41h1v1h-1zM47 41h1v1h-1z"/><path fill="#D6C3BF" d="M48 41h1v1h-1z"/><path fill="#F7F3F2" d="M49 41h1v1h-1z"/><path fill="#FFF" d="M50 41h1v1h-1zM51 41h1v1h-1zM52 41h1v1h-1zM53 41h1v1h-1zM54 41h1v1h-1zM55 41h1v1h-1zM56 41h1v1h-1zM57 41h1v1h-1zM58 41h1v1h-1zM59 41h1v1h-1zM60 41h1v1h-1zM61 41h1v1h-1zM62 41h1v1h-1zM63 41h1v1h-1z"/><path fill="#FBF8F6" d="M64 41h1v1h-1z"/><path fill="#F3E9E2" d="M65 41h1v1h-1zM66 41h1v1h-1zM67 41h1v1h-1zM68 41h1v1h-1zM69 41h1v1h-1z"/><path fill="#D5BFB8" d="M70 41h1v1h-1z"/><path fill="#B39790" d="M71 41h1v1h-1z"/><path fill="#231815" d="M72 41h1v1h-1zM73 41h1v1h-1zM74 41h1v1h-1zM29 42h1v1h-1zM30 42h1v1h-1zM31 42h1v1h-1zM32 42h1v1h-1zM33 42h1v1h-1zM34 42h1v1h-1zM35 42h1v1h-1zM36 42h1v1h-1zM37 42h1v1h-1z"/><path fill="#40312E" d="M38 42h1v1h-1z"/><path fill="#836C67" d="M39 42h1v1h-1z"/><path fill="#BD9F98" d="M40 42h1v1h-1zM41 42h1v1h-1zM42 42h1v1h-1zM43 42h1v1h-1zM44 42h1v1h-1z"/><path fill="#D2BDB8" d="M45 42h1v1h-1z"/><path fill="#E2D5D2" d="M46 42h1v1h-1z"/><path fill="#FBF9F9" d="M47 42h1v1h-1z"/><path fill="#FFF" d="M48 42h1v1h-1zM49 42h1v1h-1zM50 42h1v1h-1zM51 42h1v1h-1zM52 42h1v1h-1zM53 42h1v1h-1zM54 42h1v1h-1zM55 42h1v1h-1zM56 42h1v1h-1zM57 42h1v1h-1zM58 42h1v1h-1zM59 42h1v1h-1zM60 42h1v1h-1zM61 42h1v1h-1zM62 42h1v1h-1zM63 42h1v1h-1z"/><path fill="#F8F3EF" d="M64 42h1v1h-1z"/><path fill="#F3E9E2" d="M65 42h1v1h-1zM66 42h1v1h-1zM67 42h1v1h-1zM68 42h1v1h-1z"/><path fill="#EFE5DE" d="M69 42h1v1h-1z"/><path fill="#BCAAA4" d="M70 42h1v1h-1z"/><path fill="#977D77" d="M71 42h1v1h-1z"/><path fill="#231815" d="M72 42h1v1h-1zM73 42h1v1h-1zM74 42h1v1h-1zM26 43h1v1h-1zM27 43h1v1h-1zM28 43h1v1h-1zM29 43h1v1h-1zM30 43h1v1h-1zM31 43h1v1h-1zM32 43h1v1h-1zM33 43h1v1h-1zM34 43h1v1h-1z"/><path fill="#2D201D" d="M35 43h1v1h-1z"/><path fill="#5D4B46" d="M36 43h1v1h-1z"/><path fill="#A0867F" d="M37 43h1v1h-1z"/><path fill="#BD9F98" d="M38 43h1v1h-1zM39 43h1v1h-1z"/><path fill="#C9B1AB" d="M40 43h1v1h-1z"/><path fill="#D2BDB8" d="M41 43h1v1h-1z"/><path fill="#DECFCC" d="M42 43h1v1h-1z"/><path fill="#EFE7E5" d="M43 43h1v1h-1z"/><path fill="#FFF" d="M44 43h1v1h-1zM45 43h1v1h-1zM46 43h1v1h-1zM47 43h1v1h-1zM48 43h1v1h-1zM49 43h1v1h-1zM50 43h1v1h-1zM51 43h1v1h-1zM52 43h1v1h-1zM53 43h1v1h-1zM54 43h1v1h-1zM55 43h1v1h-1zM56 43h1v1h-1zM57 43h1v1h-1zM58 43h1v1h-1zM59 43h1v1h-1zM60 43h1v1h-1zM61 43h1v1h-1zM62 43h1v1h-1zM63 43h1v1h-1z"/><path fill="#F5ECE6" d="M64 43h1v1h-1z"/><path fill="#F3E9E2" d="M65 43h1v1h-1zM66 43h1v1h-1zM67 43h1v1h-1zM68 43h1v1h-1z"/><path fill="#CFC7C2" d="M69 43h1v1h-1z"/><path fill="#B6AAA5" d="M70 43h1v1h-1z"/><path fill="#705C57" d="M71 43h1v1h-1z"/><path fill="#231815" d="M72 43h1v1h-1zM73 43h1v1h-1zM74 43h1v1h-1zM23 44h1v1h-1zM24 44h1v1h-1zM25 44h1v1h-1zM26 44h1v1h-1zM27 44h1v1h-1zM28 44h1v1h-1zM29 44h1v1h-1zM30 44h1v1h-1zM31 44h1v1h-1zM32 44h1v1h-1z"/><path fill="#574844" d="M33 44h1v1h-1z"/><path fill="#948481" d="M34 44h1v1h-1z"/><path fill="#D0C1BD" d="M35 44h1v1h-1z"/><path fill="#DECFCC" d="M36 44h1v1h-1z"/><path fill="#EFE7E5" d="M37 44h1v1h-1z"/><path fill="#F3EDEC" d="M38 44h1v1h-1z"/><path fill="#FFF" d="M39 44h1v1h-1zM40 44h1v1h-1zM41 44h1v1h-1zM42 44h1v1h-1zM43 44h1v1h-1zM44 44h1v1h-1zM45 44h1v1h-1zM46 44h1v1h-1zM47 44h1v1h-1zM48 44h1v1h-1zM49 44h1v1h-1zM50 44h1v1h-1zM51 44h1v1h-1zM52 44h1v1h-1zM53 44h1v1h-1zM54 44h1v1h-1zM55 44h1v1h-1zM56 44h1v1h-1zM57 44h1v1h-1zM58 44h1v1h-1zM59 44h1v1h-1zM60 44h1v1h-1zM61 44h1v1h-1zM62 44h1v1h-1z"/><path fill="#FEFCFB" d="M63 44h1v1h-1z"/><path fill="#F3E9E2" d="M64 44h1v1h-1zM65 44h1v1h-1zM66 44h1v1h-1zM67 44h1v1h-1z"/><path fill="#EBE2DB" d="M68 44h1v1h-1z"/><path fill="#B3ADA9" d="M69 44h1v1h-1z"/><path fill="#B4ACA8" d="M70 44h1v1h-1z"/><path fill="#53423E" d="M71 44h1v1h-1z"/><path fill="#231815" d="M72 44h1v1h-1zM73 44h1v1h-1zM74 44h1v1h-1zM19 45h1v1h-1zM20 45h1v1h-1zM21 45h1v1h-1zM22 45h1v1h-1zM23 45h1v1h-1zM24 45h1v1h-1zM25 45h1v1h-1zM26 45h1v1h-1zM27 45h1v1h-1zM28 45h1v1h-1zM29 45h1v1h-1z"/><path fill="#68605E" d="M30 45h1v1h-1z"/><path fill="#ADA8A7" d="M31 45h1v1h-1z"/><path fill="#F1F1F0" d="M32 45h1v1h-1z"/><path fill="#FFF" d="M33 45h1v1h-1zM34 45h1v1h-1zM35 45h1v1h-1zM36 45h1v1h-1zM37 45h1v1h-1zM38 45h1v1h-1zM39 45h1v1h-1zM40 45h1v1h-1zM41 45h1v1h-1zM42 45h1v1h-1zM43 45h1v1h-1zM44 45h1v1h-1zM45 45h1v1h-1zM46 45h1v1h-1zM47 45h1v1h-1zM48 45h1v1h-1zM49 45h1v1h-1zM50 45h1v1h-1zM51 45h1v1h-1zM52 45h1v1h-1zM53 45h1v1h-1zM54 45h1v1h-1zM55 45h1v1h-1zM56 45h1v1h-1zM57 45h1v1h-1zM58 45h1v1h-1zM59 45h1v1h-1zM60 45h1v1h-1zM61 45h1v1h-1zM62 45h1v1h-1z"/><path fill="#FBF7F4" d="M63 45h1v1h-1z"/><path fill="#F3E9E2" d="M64 45h1v1h-1zM65 45h1v1h-1zM66 45h1v1h-1zM67 45h1v1h-1z"/><path fill="#C7C0BB" d="M68 45h1v1h-1z"/><path fill="#B3ADA9" d="M69 45h1v1h-1zM70 45h1v1h-1z"/><path fill="#231815" d="M71 45h1v1h-1zM72 45h1v1h-1zM73 45h1v1h-1zM74 45h1v1h-1zM16 46h1v1h-1zM17 46h1v1h-1zM18 46h1v1h-1zM19 46h1v1h-1zM20 46h1v1h-1zM21 46h1v1h-1zM22 46h1v1h-1zM23 46h1v1h-1zM24 46h1v1h-1zM25 46h1v1h-1z"/><path fill="#312624" d="M26 46h1v1h-1z"/><path fill="#68605E" d="M27 46h1v1h-1z"/><path fill="#ADA8A7" d="M28 46h1v1h-1z"/><path fill="#F1F1F0" d="M29 46h1v1h-1z"/><path fill="#FFF" d="M30 46h1v1h-1zM31 46h1v1h-1zM32 46h1v1h-1zM33 46h1v1h-1zM34 46h1v1h-1zM35 46h1v1h-1zM36 46h1v1h-1zM37 46h1v1h-1zM38 46h1v1h-1zM39 46h1v1h-1zM40 46h1v1h-1zM41 46h1v1h-1zM42 46h1v1h-1zM43 46h1v1h-1zM44 46h1v1h-1zM45 46h1v1h-1zM46 46h1v1h-1zM47 46h1v1h-1zM48 46h1v1h-1zM49 46h1v1h-1zM50 46h1v1h-1zM51 46h1v1h-1zM52 46h1v1h-1zM53 46h1v1h-1zM54 46h1v1h-1zM55 46h1v1h-1zM56 46h1v1h-1zM57 46h1v1h-1zM58 46h1v1h-1zM59 46h1v1h-1zM60 46h1v1h-1zM61 46h1v1h-1zM62 46h1v1h-1z"/><path fill="#F8F1ED" d="M63 46h1v1h-1z"/><path fill="#F3E9E2" d="M64 46h1v1h-1zM65 46h1v1h-1zM66 46h1v1h-1z"/><path fill="#E3DAD4" d="M67 46h1v1h-1z"/><path fill="#B3ADA9" d="M68 46h1v1h-1zM69 46h1v1h-1z"/><path fill="#8F8884" d="M70 46h1v1h-1z"/><path fill="#231815" d="M71 46h1v1h-1zM72 46h1v1h-1zM73 46h1v1h-1zM14 47h1v1h-1zM15 47h1v1h-1zM16 47h1v1h-1zM17 47h1v1h-1zM18 47h1v1h-1zM19 47h1v1h-1zM20 47h1v1h-1zM21 47h1v1h-1zM22 47h1v1h-1z"/><path fill="#3F3532" d="M23 47h1v1h-1z"/><path fill="#766F6D" d="M24 47h1v1h-1z"/><path fill="#BAB7B6" d="M25 47h1v1h-1z"/><path fill="#FFF" d="M26 47h1v1h-1zM27 47h1v1h-1zM28 47h1v1h-1zM29 47h1v1h-1zM30 47h1v1h-1zM31 47h1v1h-1zM32 47h1v1h-1zM33 47h1v1h-1zM34 47h1v1h-1zM35 47h1v1h-1zM36 47h1v1h-1zM37 47h1v1h-1zM38 47h1v1h-1zM39 47h1v1h-1zM40 47h1v1h-1zM41 47h1v1h-1zM42 47h1v1h-1zM43 47h1v1h-1zM44 47h1v1h-1zM45 47h1v1h-1zM46 47h1v1h-1zM47 47h1v1h-1zM48 47h1v1h-1zM49 47h1v1h-1zM50 47h1v1h-1zM51 47h1v1h-1zM52 47h1v1h-1zM53 47h1v1h-1zM54 47h1v1h-1zM55 47h1v1h-1zM56 47h1v1h-1zM57 47h1v1h-1zM58 47h1v1h-1zM59 47h1v1h-1zM60 47h1v1h-1zM61 47h1v1h-1z"/><path fill="#FEFEFD" d="M62 47h1v1h-1z"/><path fill="#F4EAE4" d="M63 47h1v1h-1z"/><path fill="#F3E9E2" d="M64 47h1v1h-1zM65 47h1v1h-1zM66 47h1v1h-1z"/><path fill="#C3BCB7" d="M67 47h1v1h-1z"/><path fill="#B3ADA9" d="M68 47h1v1h-1zM69 47h1v1h-1z"/><path fill="#625956" d="M70 47h1v1h-1z"/><path fill="#231815" d="M71 47h1v1h-1zM72 47h1v1h-1zM73 47h1v1h-1zM12 48h1v1h-1zM13 48h1v1h-1zM14 48h1v1h-1zM15 48h1v1h-1zM16 48h1v1h-1zM17 48h1v1h-1zM18 48h1v1h-1zM19 48h1v1h-1z"/><path fill="#4C4341" d="M20 48h1v1h-1z"/><path fill="#918C8A" d="M21 48h1v1h-1z"/><path fill="#D6D4D3" d="M22 48h1v1h-1z"/><path fill="#FFF" d="M23 48h1v1h-1zM24 48h1v1h-1zM25 48h1v1h-1zM26 48h1v1h-1zM27 48h1v1h-1zM28 48h1v1h-1zM29 48h1v1h-1zM30 48h1v1h-1zM31 48h1v1h-1zM32 48h1v1h-1zM33 48h1v1h-1zM34 48h1v1h-1zM35 48h1v1h-1zM36 48h1v1h-1zM37 48h1v1h-1zM38 48h1v1h-1zM39 48h1v1h-1zM40 48h1v1h-1zM41 48h1v1h-1zM42 48h1v1h-1zM43 48h1v1h-1zM44 48h1v1h-1zM45 48h1v1h-1zM46 48h1v1h-1zM47 48h1v1h-1zM48 48h1v1h-1zM49 48h1v1h-1zM50 48h1v1h-1zM51 48h1v1h-1zM52 48h1v1h-1zM53 48h1v1h-1zM54 48h1v1h-1zM55 48h1v1h-1zM56 48h1v1h-1zM57 48h1v1h-1zM58 48h1v1h-1zM59 48h1v1h-1zM60 48h1v1h-1zM61 48h1v1h-1z"/><path fill="#F9F4F1" d="M62 48h1v1h-1z"/><path fill="#F3E9E2" d="M63 48h1v1h-1zM64 48h1v1h-1zM65 48h1v1h-1z"/><path fill="#E3DAD4" d="M66 48h1v1h-1z"/><path fill="#B3ADA9" d="M67 48h1v1h-1zM68 48h1v1h-1zM69 48h1v1h-1z"/><path fill="#352B28" d="M70 48h1v1h-1z"/><path fill="#231815" d="M71 48h1v1h-1zM72 48h1v1h-1zM73 48h1v1h-1zM10 49h1v1h-1zM11 49h1v1h-1zM12 49h1v1h-1zM13 49h1v1h-1zM14 49h1v1h-1zM15 49h1v1h-1zM16 49h1v1h-1z"/><path fill="#4C4341" d="M17 49h1v1h-1z"/><path fill="#9F9A99" d="M18 49h1v1h-1z"/><path fill="#E4E2E2" d="M19 49h1v1h-1z"/><path fill="#FFF" d="M20 49h1v1h-1zM21 49h1v1h-1zM22 49h1v1h-1zM23 49h1v1h-1zM24 49h1v1h-1zM25 49h1v1h-1zM26 49h1v1h-1zM27 49h1v1h-1zM28 49h1v1h-1zM29 49h1v1h-1zM30 49h1v1h-1zM31 49h1v1h-1zM32 49h1v1h-1zM33 49h1v1h-1zM34 49h1v1h-1zM35 49h1v1h-1zM36 49h1v1h-1zM37 49h1v1h-1zM38 49h1v1h-1zM39 49h1v1h-1zM40 49h1v1h-1zM41 49h1v1h-1zM42 49h1v1h-1zM43 49h1v1h-1zM44 49h1v1h-1zM45 49h1v1h-1z"/><path fill="#FEFEFD" d="M46 49h1v1h-1z"/><path fill="#F7F0EB" d="M47 49h1v1h-1z"/><path fill="#F6EFE9" d="M48 49h1v1h-1zM49 49h1v1h-1z"/><path fill="#F8F1ED" d="M50 49h1v1h-1z"/><path fill="#FBF7F4" d="M51 49h1v1h-1z"/><path fill="#FEFCFB" d="M52 49h1v1h-1z"/><path fill="#FFF" d="M53 49h1v1h-1zM54 49h1v1h-1zM55 49h1v1h-1zM56 49h1v1h-1zM57 49h1v1h-1zM58 49h1v1h-1zM59 49h1v1h-1zM60 49h1v1h-1z"/><path fill="#FBF7F4" d="M61 49h1v1h-1z"/><path fill="#F3E9E2" d="M62 49h1v1h-1zM63 49h1v1h-1zM64 49h1v1h-1zM65 49h1v1h-1z"/><path fill="#C3BCB7" d="M66 49h1v1h-1z"/><path fill="#B3ADA9" d="M67 49h1v1h-1zM68 49h1v1h-1z"/><path fill="#8F8884" d="M69 49h1v1h-1z"/><path fill="#231815" d="M70 49h1v1h-1zM71 49h1v1h-1zM72 49h1v1h-1zM73 49h1v1h-1zM8 50h1v1H8zM9 50h1v1H9zM10 50h1v1h-1zM11 50h1v1h-1zM12 50h1v1h-1zM13 50h1v1h-1z"/><path fill="#2D201D" d="M14 50h1v1h-1z"/><path fill="#736562" d="M15 50h1v1h-1z"/><path fill="#CFC4C2" d="M16 50h1v1h-1z"/><path fill="#DECFCC" d="M17 50h1v1h-1zM18 50h1v1h-1z"/><path fill="#EFE7E5" d="M19 50h1v1h-1zM20 50h1v1h-1z"/><path fill="#F3EDEC" d="M21 50h1v1h-1z"/><path fill="#FFF" d="M22 50h1v1h-1zM23 50h1v1h-1zM24 50h1v1h-1zM25 50h1v1h-1zM26 50h1v1h-1zM27 50h1v1h-1zM28 50h1v1h-1zM29 50h1v1h-1zM30 50h1v1h-1zM31 50h1v1h-1zM32 50h1v1h-1zM33 50h1v1h-1zM34 50h1v1h-1zM35 50h1v1h-1zM36 50h1v1h-1zM37 50h1v1h-1zM38 50h1v1h-1zM39 50h1v1h-1zM40 50h1v1h-1zM41 50h1v1h-1zM42 50h1v1h-1zM43 50h1v1h-1zM44 50h1v1h-1zM45 50h1v1h-1z"/><path fill="#F9F4F1" d="M46 50h1v1h-1z"/><path fill="#F3E9E2" d="M47 50h1v1h-1zM48 50h1v1h-1zM49 50h1v1h-1zM50 50h1v1h-1zM51 50h1v1h-1zM52 50h1v1h-1z"/><path fill="#F5ECE6" d="M53 50h1v1h-1z"/><path fill="#F8F1ED" d="M54 50h1v1h-1z"/><path fill="#FAF5F2" d="M55 50h1v1h-1z"/><path fill="#FCFAF8" d="M56 50h1v1h-1zM57 50h1v1h-1zM58 50h1v1h-1z"/><path fill="#FBF7F4" d="M59 50h1v1h-1z"/><path fill="#F6EFE9" d="M60 50h1v1h-1z"/><path fill="#F3E9E2" d="M61 50h1v1h-1zM62 50h1v1h-1zM63 50h1v1h-1zM64 50h1v1h-1z"/><path fill="#E3DAD4" d="M65 50h1v1h-1z"/><path fill="#B3ADA9" d="M66 50h1v1h-1zM67 50h1v1h-1zM68 50h1v1h-1z"/><path fill="#59504D" d="M69 50h1v1h-1z"/><path fill="#231815" d="M70 50h1v1h-1zM71 50h1v1h-1zM72 50h1v1h-1zM7 51h1v1H7zM8 51h1v1H8zM9 51h1v1H9zM10 51h1v1h-1zM11 51h1v1h-1z"/><path fill="#2D201D" d="M12 51h1v1h-1z"/><path fill="#705C57" d="M13 51h1v1h-1z"/><path fill="#B39790" d="M14 51h1v1h-1z"/><path fill="#BD9F98" d="M15 51h1v1h-1zM16 51h1v1h-1zM17 51h1v1h-1zM18 51h1v1h-1zM19 51h1v1h-1zM20 51h1v1h-1zM21 51h1v1h-1zM22 51h1v1h-1z"/><path fill="#CEB7B2" d="M23 51h1v1h-1z"/><path fill="#DECFCC" d="M24 51h1v1h-1z"/><path fill="#F3EDEC" d="M25 51h1v1h-1z"/><path fill="#FFF" d="M26 51h1v1h-1zM27 51h1v1h-1zM28 51h1v1h-1zM29 51h1v1h-1zM30 51h1v1h-1zM31 51h1v1h-1zM32 51h1v1h-1zM33 51h1v1h-1zM34 51h1v1h-1zM35 51h1v1h-1zM36 51h1v1h-1zM37 51h1v1h-1zM38 51h1v1h-1zM39 51h1v1h-1zM40 51h1v1h-1zM41 51h1v1h-1zM42 51h1v1h-1zM43 51h1v1h-1zM44 51h1v1h-1zM45 51h1v1h-1z"/><path fill="#F8F3EF" d="M46 51h1v1h-1z"/><path fill="#F3E9E2" d="M47 51h1v1h-1zM48 51h1v1h-1zM49 51h1v1h-1zM50 51h1v1h-1zM51 51h1v1h-1zM52 51h1v1h-1zM53 51h1v1h-1zM54 51h1v1h-1zM55 51h1v1h-1zM56 51h1v1h-1zM57 51h1v1h-1zM58 51h1v1h-1zM59 51h1v1h-1zM60 51h1v1h-1zM61 51h1v1h-1zM62 51h1v1h-1zM63 51h1v1h-1zM64 51h1v1h-1z"/><path fill="#C3BCB7" d="M65 51h1v1h-1z"/><path fill="#B3ADA9" d="M66 51h1v1h-1zM67 51h1v1h-1z"/><path fill="#AAA4A0" d="M68 51h1v1h-1z"/><path fill="#231815" d="M69 51h1v1h-1zM70 51h1v1h-1zM71 51h1v1h-1zM72 51h1v1h-1zM6 52h1v1H6zM7 52h1v1H7zM8 52h1v1H8zM9 52h1v1H9zM10 52h1v1h-1z"/><path fill="#53423E" d="M11 52h1v1h-1z"/><path fill="#B39790" d="M12 52h1v1h-1z"/><path fill="#BD9F98" d="M13 52h1v1h-1zM14 52h1v1h-1zM15 52h1v1h-1zM16 52h1v1h-1zM17 52h1v1h-1zM18 52h1v1h-1zM19 52h1v1h-1zM20 52h1v1h-1zM21 52h1v1h-1zM22 52h1v1h-1zM23 52h1v1h-1zM24 52h1v1h-1zM25 52h1v1h-1z"/><path fill="#C9B1AB" d="M26 52h1v1h-1z"/><path fill="#E6DBD8" d="M27 52h1v1h-1z"/><path fill="#FFF" d="M28 52h1v1h-1zM29 52h1v1h-1zM30 52h1v1h-1zM31 52h1v1h-1zM32 52h1v1h-1zM33 52h1v1h-1zM34 52h1v1h-1zM35 52h1v1h-1zM36 52h1v1h-1zM37 52h1v1h-1zM38 52h1v1h-1zM39 52h1v1h-1zM40 52h1v1h-1zM41 52h1v1h-1zM42 52h1v1h-1zM43 52h1v1h-1zM44 52h1v1h-1zM45 52h1v1h-1z"/><path fill="#F6EFE9" d="M46 52h1v1h-1z"/><path fill="#F3E9E2" d="M47 52h1v1h-1zM48 52h1v1h-1zM49 52h1v1h-1zM50 52h1v1h-1zM51 52h1v1h-1zM52 52h1v1h-1zM53 52h1v1h-1zM54 52h1v1h-1zM55 52h1v1h-1zM56 52h1v1h-1zM57 52h1v1h-1zM58 52h1v1h-1zM59 52h1v1h-1zM60 52h1v1h-1zM61 52h1v1h-1zM62 52h1v1h-1zM63 52h1v1h-1z"/><path fill="#DFD6D0" d="M64 52h1v1h-1z"/><path fill="#B3ADA9" d="M65 52h1v1h-1zM66 52h1v1h-1zM67 52h1v1h-1z"/><path fill="#6B635F" d="M68 52h1v1h-1z"/><path fill="#231815" d="M69 52h1v1h-1zM70 52h1v1h-1zM71 52h1v1h-1zM5 53h1v1H5zM6 53h1v1H6zM7 53h1v1H7zM8 53h1v1H8zM9 53h1v1H9z"/><path fill="#7A645F" d="M10 53h1v1h-1z"/><path fill="#BD9F98" d="M11 53h1v1h-1zM12 53h1v1h-1zM13 53h1v1h-1zM14 53h1v1h-1zM15 53h1v1h-1zM16 53h1v1h-1zM17 53h1v1h-1zM18 53h1v1h-1zM19 53h1v1h-1zM20 53h1v1h-1zM21 53h1v1h-1zM22 53h1v1h-1zM23 53h1v1h-1zM24 53h1v1h-1zM25 53h1v1h-1zM26 53h1v1h-1zM27 53h1v1h-1z"/><path fill="#C5ABA5" d="M28 53h1v1h-1z"/><path fill="#EAE1DF" d="M29 53h1v1h-1z"/><path fill="#FFF" d="M30 53h1v1h-1zM31 53h1v1h-1zM32 53h1v1h-1zM33 53h1v1h-1zM34 53h1v1h-1zM35 53h1v1h-1zM36 53h1v1h-1zM37 53h1v1h-1zM38 53h1v1h-1zM39 53h1v1h-1zM40 53h1v1h-1zM41 53h1v1h-1zM42 53h1v1h-1zM43 53h1v1h-1zM44 53h1v1h-1zM45 53h1v1h-1z"/><path fill="#F3E9E2" d="M46 53h1v1h-1zM47 53h1v1h-1zM48 53h1v1h-1z"/><path fill="#EBE2DB" d="M49 53h1v1h-1z"/><path fill="#D3CBC6" d="M50 53h1v1h-1zM51 53h1v1h-1zM52 53h1v1h-1z"/><path fill="#DFD6D0" d="M53 53h1v1h-1z"/><path fill="#EBE2DB" d="M54 53h1v1h-1z"/><path fill="#F3E9E2" d="M55 53h1v1h-1zM56 53h1v1h-1zM57 53h1v1h-1zM58 53h1v1h-1zM59 53h1v1h-1zM60 53h1v1h-1zM61 53h1v1h-1zM62 53h1v1h-1z"/><path fill="#EBE2DB" d="M63 53h1v1h-1z"/><path fill="#B7B1AD" d="M64 53h1v1h-1z"/><path fill="#B3ADA9" d="M65 53h1v1h-1zM66 53h1v1h-1z"/><path fill="#AAA4A0" d="M67 53h1v1h-1z"/><path fill="#2C211E" d="M68 53h1v1h-1z"/><path fill="#231815" d="M69 53h1v1h-1zM70 53h1v1h-1zM71 53h1v1h-1zM5 54h1v1H5zM6 54h1v1H6zM7 54h1v1H7zM8 54h1v1H8z"/><path fill="#836C67" d="M9 54h1v1H9z"/><path fill="#BD9F98" d="M10 54h1v1h-1zM11 54h1v1h-1zM12 54h1v1h-1zM13 54h1v1h-1zM14 54h1v1h-1zM15 54h1v1h-1zM16 54h1v1h-1zM17 54h1v1h-1zM18 54h1v1h-1zM19 54h1v1h-1zM20 54h1v1h-1zM21 54h1v1h-1zM22 54h1v1h-1zM23 54h1v1h-1zM24 54h1v1h-1zM25 54h1v1h-1zM26 54h1v1h-1zM27 54h1v1h-1zM28 54h1v1h-1zM29 54h1v1h-1z"/><path fill="#D2BDB8" d="M30 54h1v1h-1z"/><path fill="#FBF9F9" d="M31 54h1v1h-1z"/><path fill="#FFF" d="M32 54h1v1h-1zM33 54h1v1h-1zM34 54h1v1h-1zM35 54h1v1h-1zM36 54h1v1h-1zM37 54h1v1h-1zM38 54h1v1h-1zM39 54h1v1h-1zM40 54h1v1h-1zM41 54h1v1h-1zM42 54h1v1h-1zM43 54h1v1h-1zM44 54h1v1h-1z"/><path fill="#FBF8F6" d="M45 54h1v1h-1z"/><path fill="#F3E9E2" d="M46 54h1v1h-1zM47 54h1v1h-1zM48 54h1v1h-1z"/><path fill="#B7B1AD" d="M49 54h1v1h-1z"/><path fill="#B3ADA9" d="M50 54h1v1h-1zM51 54h1v1h-1zM52 54h1v1h-1zM53 54h1v1h-1zM54 54h1v1h-1z"/><path fill="#BBB5B0" d="M55 54h1v1h-1z"/><path fill="#CBC4BE" d="M56 54h1v1h-1z"/><path fill="#D7CFC9" d="M57 54h1v1h-1z"/><path fill="#E7DED7" d="M58 54h1v1h-1z"/><path fill="#F3E9E2" d="M59 54h1v1h-1zM60 54h1v1h-1zM61 54h1v1h-1z"/><path fill="#E7DED7" d="M62 54h1v1h-1z"/><path fill="#BFB8B4" d="M63 54h1v1h-1z"/><path fill="#B3ADA9" d="M64 54h1v1h-1zM65 54h1v1h-1zM66 54h1v1h-1z"/><path fill="#6B635F" d="M67 54h1v1h-1z"/><path fill="#231815" d="M68 54h1v1h-1zM69 54h1v1h-1zM70 54h1v1h-1zM71 54h1v1h-1zM4 55h1v1H4zM5 55h1v1H5zM6 55h1v1H6zM7 55h1v1H7z"/><path fill="#836C67" d="M8 55h1v1H8z"/><path fill="#BD9F98" d="M9 55h1v1H9zM10 55h1v1h-1zM11 55h1v1h-1zM12 55h1v1h-1zM13 55h1v1h-1zM14 55h1v1h-1zM15 55h1v1h-1zM16 55h1v1h-1zM17 55h1v1h-1zM18 55h1v1h-1zM19 55h1v1h-1zM20 55h1v1h-1zM21 55h1v1h-1zM22 55h1v1h-1zM23 55h1v1h-1zM24 55h1v1h-1zM25 55h1v1h-1zM26 55h1v1h-1zM27 55h1v1h-1zM28 55h1v1h-1zM29 55h1v1h-1zM30 55h1v1h-1z"/><path fill="#C5ABA5" d="M31 55h1v1h-1z"/><path fill="#F0E9E6" d="M32 55h1v1h-1z"/><path fill="#FFF" d="M33 55h1v1h-1zM34 55h1v1h-1zM35 55h1v1h-1zM36 55h1v1h-1zM37 55h1v1h-1zM38 55h1v1h-1zM39 55h1v1h-1zM40 55h1v1h-1zM41 55h1v1h-1zM42 55h1v1h-1zM43 55h1v1h-1zM44 55h1v1h-1z"/><path fill="#F8F1ED" d="M45 55h1v1h-1z"/><path fill="#F3E9E2" d="M46 55h1v1h-1zM47 55h1v1h-1zM48 55h1v1h-1z"/><path fill="#B3ADA9" d="M49 55h1v1h-1zM50 55h1v1h-1zM51 55h1v1h-1zM52 55h1v1h-1z"/><path fill="#AAA19B" d="M53 55h1v1h-1z"/><path fill="#A79D97" d="M54 55h1v1h-1z"/><path fill="#B0A9A4" d="M55 55h1v1h-1z"/><path fill="#B3ADA9" d="M56 55h1v1h-1zM57 55h1v1h-1zM58 55h1v1h-1zM59 55h1v1h-1z"/><path fill="#BBB5B0" d="M60 55h1v1h-1z"/><path fill="#BFB8B4" d="M61 55h1v1h-1z"/><path fill="#B3ADA9" d="M62 55h1v1h-1zM63 55h1v1h-1zM64 55h1v1h-1zM65 55h1v1h-1z"/><path fill="#AAA4A0" d="M66 55h1v1h-1z"/><path fill="#2C211E" d="M67 55h1v1h-1z"/><path fill="#231815" d="M68 55h1v1h-1zM69 55h1v1h-1zM70 55h1v1h-1zM3 56h1v1H3zM4 56h1v1H4zM5 56h1v1H5zM6 56h1v1H6z"/><path fill="#66534E" d="M7 56h1v1H7z"/><path fill="#BD9F98" d="M8 56h1v1H8zM9 56h1v1H9zM10 56h1v1h-1zM11 56h1v1h-1zM12 56h1v1h-1zM13 56h1v1h-1zM14 56h1v1h-1zM15 56h1v1h-1zM16 56h1v1h-1zM17 56h1v1h-1zM18 56h1v1h-1zM19 56h1v1h-1zM20 56h1v1h-1zM21 56h1v1h-1zM22 56h1v1h-1zM23 56h1v1h-1zM24 56h1v1h-1zM25 56h1v1h-1zM26 56h1v1h-1zM27 56h1v1h-1zM28 56h1v1h-1zM29 56h1v1h-1zM30 56h1v1h-1zM31 56h1v1h-1z"/><path fill="#C0A49D" d="M32 56h1v1h-1z"/><path fill="#EADED8" d="M33 56h1v1h-1z"/><path fill="#FBF7F4" d="M34 56h1v1h-1z"/><path fill="#FFF" d="M35 56h1v1h-1zM36 56h1v1h-1zM37 56h1v1h-1zM38 56h1v1h-1zM39 56h1v1h-1zM40 56h1v1h-1zM41 56h1v1h-1zM42 56h1v1h-1zM43 56h1v1h-1z"/><path fill="#FCFAF8" d="M44 56h1v1h-1z"/><path fill="#F3E9E2" d="M45 56h1v1h-1zM46 56h1v1h-1zM47 56h1v1h-1zM48 56h1v1h-1z"/><path fill="#B7B1AD" d="M49 56h1v1h-1z"/><path fill="#B3ADA9" d="M50 56h1v1h-1zM51 56h1v1h-1z"/><path fill="#9C8C85" d="M52 56h1v1h-1z"/><path fill="#846B60" d="M53 56h1v1h-1zM54 56h1v1h-1zM55 56h1v1h-1z"/><path fill="#96847B" d="M56 56h1v1h-1z"/><path fill="#ADA5A0" d="M57 56h1v1h-1z"/><path fill="#B3ADA9" d="M58 56h1v1h-1zM59 56h1v1h-1zM60 56h1v1h-1zM61 56h1v1h-1zM62 56h1v1h-1zM63 56h1v1h-1zM64 56h1v1h-1zM65 56h1v1h-1z"/><path fill="#504743" d="M66 56h1v1h-1z"/><path fill="#231815" d="M67 56h1v1h-1zM68 56h1v1h-1zM69 56h1v1h-1zM70 56h1v1h-1zM3 57h1v1H3zM4 57h1v1H4zM5 57h1v1H5z"/><path fill="#40312E" d="M6 57h1v1H6z"/><path fill="#BD9F98" d="M7 57h1v1H7zM8 57h1v1H8zM9 57h1v1H9zM10 57h1v1h-1zM11 57h1v1h-1zM12 57h1v1h-1zM13 57h1v1h-1zM14 57h1v1h-1zM15 57h1v1h-1zM16 57h1v1h-1zM17 57h1v1h-1zM18 57h1v1h-1zM19 57h1v1h-1zM20 57h1v1h-1zM21 57h1v1h-1zM22 57h1v1h-1zM23 57h1v1h-1zM24 57h1v1h-1zM25 57h1v1h-1zM26 57h1v1h-1zM27 57h1v1h-1zM28 57h1v1h-1zM29 57h1v1h-1zM30 57h1v1h-1zM31 57h1v1h-1zM32 57h1v1h-1z"/><path fill="#C0A49D" d="M33 57h1v1h-1z"/><path fill="#E9DBD4" d="M34 57h1v1h-1z"/><path fill="#F5ECE6" d="M35 57h1v1h-1z"/><path fill="#FAF5F2" d="M36 57h1v1h-1z"/><path fill="#FEFEFD" d="M37 57h1v1h-1z"/><path fill="#FFF" d="M38 57h1v1h-1zM39 57h1v1h-1zM40 57h1v1h-1zM41 57h1v1h-1zM42 57h1v1h-1z"/><path fill="#FCFAF8" d="M43 57h1v1h-1z"/><path fill="#F4EAE4" d="M44 57h1v1h-1z"/><path fill="#F3E9E2" d="M45 57h1v1h-1zM46 57h1v1h-1zM47 57h1v1h-1zM48 57h1v1h-1z"/><path fill="#CBC4BE" d="M49 57h1v1h-1z"/><path fill="#B3ADA9" d="M50 57h1v1h-1zM51 57h1v1h-1z"/><path fill="#938077" d="M52 57h1v1h-1z"/><path fill="#846B60" d="M53 57h1v1h-1zM54 57h1v1h-1zM55 57h1v1h-1zM56 57h1v1h-1z"/><path fill="#876F65" d="M57 57h1v1h-1z"/><path fill="#A1948E" d="M58 57h1v1h-1z"/><path fill="#B3ADA9" d="M59 57h1v1h-1zM60 57h1v1h-1zM61 57h1v1h-1zM62 57h1v1h-1zM63 57h1v1h-1zM64 57h1v1h-1z"/><path fill="#8F8884" d="M65 57h1v1h-1z"/><path fill="#231815" d="M66 57h1v1h-1zM67 57h1v1h-1zM68 57h1v1h-1zM69 57h1v1h-1zM2 58h1v1H2zM3 58h1v1H3zM4 58h1v1H4zM5 58h1v1H5z"/><path fill="#A0867F" d="M6 58h1v1H6z"/><path fill="#BD9F98" d="M7 58h1v1H7z"/><path fill="#BA9E97" d="M8 58h1v1H8z"/><path fill="#AA958F" d="M9 58h1v1H9z"/><path fill="#9D8F88" d="M10 58h1v1h-1zM11 58h1v1h-1z"/><path fill="#A8948E" d="M12 58h1v1h-1z"/><path fill="#AD9790" d="M13 58h1v1h-1z"/><path fill="#B59B94" d="M14 58h1v1h-1z"/><path fill="#BD9F98" d="M15 58h1v1h-1zM16 58h1v1h-1zM17 58h1v1h-1zM18 58h1v1h-1zM19 58h1v1h-1zM20 58h1v1h-1zM21 58h1v1h-1zM22 58h1v1h-1zM23 58h1v1h-1zM24 58h1v1h-1zM25 58h1v1h-1zM26 58h1v1h-1zM27 58h1v1h-1zM28 58h1v1h-1zM29 58h1v1h-1zM30 58h1v1h-1zM31 58h1v1h-1zM32 58h1v1h-1zM33 58h1v1h-1z"/><path fill="#C0A49D" d="M34 58h1v1h-1z"/><path fill="#F0E4DD" d="M35 58h1v1h-1z"/><path fill="#F3E9E2" d="M36 58h1v1h-1zM37 58h1v1h-1z"/><path fill="#F6EFE9" d="M38 58h1v1h-1z"/><path fill="#F9F4F1" d="M39 58h1v1h-1zM40 58h1v1h-1zM41 58h1v1h-1z"/><path fill="#F7F0EB" d="M42 58h1v1h-1z"/><path fill="#F3E9E2" d="M43 58h1v1h-1zM44 58h1v1h-1zM45 58h1v1h-1zM46 58h1v1h-1zM47 58h1v1h-1zM48 58h1v1h-1z"/><path fill="#EBE2DB" d="M49 58h1v1h-1z"/><path fill="#B3ADA9" d="M50 58h1v1h-1zM51 58h1v1h-1z"/><path fill="#A1948E" d="M52 58h1v1h-1z"/><path fill="#846B60" d="M53 58h1v1h-1zM54 58h1v1h-1zM55 58h1v1h-1zM56 58h1v1h-1zM57 58h1v1h-1zM58 58h1v1h-1z"/><path fill="#A1948E" d="M59 58h1v1h-1z"/><path fill="#B3ADA9" d="M60 58h1v1h-1zM61 58h1v1h-1zM62 58h1v1h-1zM63 58h1v1h-1z"/><path fill="#AAA4A0" d="M64 58h1v1h-1z"/><path fill="#352B28" d="M65 58h1v1h-1z"/><path fill="#231815" d="M66 58h1v1h-1zM67 58h1v1h-1zM68 58h1v1h-1zM2 59h1v1H2zM3 59h1v1H3zM4 59h1v1H4z"/><path fill="#5D4B46" d="M5 59h1v1H5z"/><path fill="#BD9F98" d="M6 59h1v1H6z"/><path fill="#B29A93" d="M7 59h1v1H7z"/><path fill="#958A84" d="M8 59h1v1H8z"/><path fill="#928983" d="M9 59h1v1H9zM10 59h1v1h-1zM11 59h1v1h-1zM12 59h1v1h-1zM13 59h1v1h-1zM14 59h1v1h-1z"/><path fill="#958A84" d="M15 59h1v1h-1z"/><path fill="#A2918B" d="M16 59h1v1h-1z"/><path fill="#AD9790" d="M17 59h1v1h-1z"/><path fill="#BA9E97" d="M18 59h1v1h-1z"/><path fill="#BD9F98" d="M19 59h1v1h-1zM20 59h1v1h-1zM21 59h1v1h-1zM22 59h1v1h-1zM23 59h1v1h-1zM24 59h1v1h-1zM25 59h1v1h-1zM26 59h1v1h-1zM27 59h1v1h-1zM28 59h1v1h-1zM29 59h1v1h-1zM30 59h1v1h-1zM31 59h1v1h-1zM32 59h1v1h-1zM33 59h1v1h-1zM34 59h1v1h-1z"/><path fill="#CBB2AB" d="M35 59h1v1h-1z"/><path fill="#F3E9E2" d="M36 59h1v1h-1zM37 59h1v1h-1zM38 59h1v1h-1zM39 59h1v1h-1zM40 59h1v1h-1zM41 59h1v1h-1zM42 59h1v1h-1zM43 59h1v1h-1zM44 59h1v1h-1zM45 59h1v1h-1zM46 59h1v1h-1zM47 59h1v1h-1zM48 59h1v1h-1zM49 59h1v1h-1z"/><path fill="#CFC7C2" d="M50 59h1v1h-1z"/><path fill="#B3ADA9" d="M51 59h1v1h-1zM52 59h1v1h-1z"/><path fill="#8D776E" d="M53 59h1v1h-1z"/><path fill="#846B60" d="M54 59h1v1h-1zM55 59h1v1h-1zM56 59h1v1h-1zM57 59h1v1h-1zM58 59h1v1h-1zM59 59h1v1h-1z"/><path fill="#A79D97" d="M60 59h1v1h-1z"/><path fill="#B3ADA9" d="M61 59h1v1h-1zM62 59h1v1h-1zM63 59h1v1h-1z"/><path fill="#504743" d="M64 59h1v1h-1z"/><path fill="#231815" d="M65 59h1v1h-1zM66 59h1v1h-1zM67 59h1v1h-1zM68 59h1v1h-1zM1 60h1v1H1zM2 60h1v1H2zM3 60h1v1H3zM4 60h1v1H4z"/><path fill="#AA8E88" d="M5 60h1v1H5z"/><path fill="#AD9790" d="M6 60h1v1H6z"/><path fill="#928983" d="M7 60h1v1H7zM8 60h1v1H8zM9 60h1v1H9zM10 60h1v1h-1zM11 60h1v1h-1zM12 60h1v1h-1zM13 60h1v1h-1zM14 60h1v1h-1zM15 60h1v1h-1zM16 60h1v1h-1zM17 60h1v1h-1zM18 60h1v1h-1z"/><path fill="#9D8F88" d="M19 60h1v1h-1z"/><path fill="#AA958F" d="M20 60h1v1h-1z"/><path fill="#B89C95" d="M21 60h1v1h-1z"/><path fill="#BD9F98" d="M22 60h1v1h-1zM23 60h1v1h-1zM24 60h1v1h-1zM25 60h1v1h-1zM26 60h1v1h-1zM27 60h1v1h-1zM28 60h1v1h-1zM29 60h1v1h-1zM30 60h1v1h-1zM31 60h1v1h-1zM32 60h1v1h-1zM33 60h1v1h-1zM34 60h1v1h-1zM35 60h1v1h-1z"/><path fill="#DBC9C2" d="M36 60h1v1h-1z"/><path fill="#F3E9E2" d="M37 60h1v1h-1zM38 60h1v1h-1zM39 60h1v1h-1zM40 60h1v1h-1zM41 60h1v1h-1zM42 60h1v1h-1zM43 60h1v1h-1zM44 60h1v1h-1zM45 60h1v1h-1zM46 60h1v1h-1zM47 60h1v1h-1zM48 60h1v1h-1zM49 60h1v1h-1z"/><path fill="#EFE5DE" d="M50 60h1v1h-1z"/><path fill="#BBB5B0" d="M51 60h1v1h-1z"/><path fill="#B3ADA9" d="M52 60h1v1h-1z"/><path fill="#AAA19B" d="M53 60h1v1h-1z"/><path fill="#876F65" d="M54 60h1v1h-1z"/><path fill="#846B60" d="M55 60h1v1h-1zM56 60h1v1h-1zM57 60h1v1h-1zM58 60h1v1h-1zM59 60h1v1h-1z"/><path fill="#8A7369" d="M60 60h1v1h-1z"/><path fill="#B3ADA9" d="M61 60h1v1h-1zM62 60h1v1h-1z"/><path fill="#6B635F" d="M63 60h1v1h-1z"/><path fill="#231815" d="M64 60h1v1h-1zM65 60h1v1h-1zM66 60h1v1h-1zM67 60h1v1h-1zM1 61h1v1H1zM2 61h1v1H2zM3 61h1v1H3z"/><path fill="#5D4B46" d="M4 61h1v1H4z"/><path fill="#B89C95" d="M5 61h1v1H5z"/><path fill="#958A84" d="M6 61h1v1H6z"/><path fill="#928983" d="M7 61h1v1H7zM8 61h1v1H8zM9 61h1v1H9zM10 61h1v1h-1zM11 61h1v1h-1zM12 61h1v1h-1zM13 61h1v1h-1zM14 61h1v1h-1zM15 61h1v1h-1zM16 61h1v1h-1zM17 61h1v1h-1zM18 61h1v1h-1zM19 61h1v1h-1zM20 61h1v1h-1zM21 61h1v1h-1z"/><path fill="#9A8D87" d="M22 61h1v1h-1z"/><path fill="#A8948E" d="M23 61h1v1h-1z"/><path fill="#B59B94" d="M24 61h1v1h-1z"/><path fill="#BD9F98" d="M25 61h1v1h-1zM26 61h1v1h-1zM27 61h1v1h-1zM28 61h1v1h-1zM29 61h1v1h-1zM30 61h1v1h-1zM31 61h1v1h-1zM32 61h1v1h-1zM33 61h1v1h-1zM34 61h1v1h-1zM35 61h1v1h-1z"/><path fill="#C0A49D" d="M36 61h1v1h-1z"/><path fill="#F0E4DD" d="M37 61h1v1h-1z"/><path fill="#F3E9E2" d="M38 61h1v1h-1zM39 61h1v1h-1zM40 61h1v1h-1zM41 61h1v1h-1zM42 61h1v1h-1zM43 61h1v1h-1zM44 61h1v1h-1zM45 61h1v1h-1zM46 61h1v1h-1zM47 61h1v1h-1zM48 61h1v1h-1zM49 61h1v1h-1zM50 61h1v1h-1z"/><path fill="#DFD6D0" d="M51 61h1v1h-1z"/><path fill="#B3ADA9" d="M52 61h1v1h-1zM53 61h1v1h-1z"/><path fill="#AAA19B" d="M54 61h1v1h-1z"/><path fill="#8D776E" d="M55 61h1v1h-1z"/><path fill="#846B60" d="M56 61h1v1h-1zM57 61h1v1h-1zM58 61h1v1h-1zM59 61h1v1h-1zM60 61h1v1h-1z"/><path fill="#A1948E" d="M61 61h1v1h-1z"/><path fill="#7D7572" d="M62 61h1v1h-1z"/><path fill="#231815" d="M63 61h1v1h-1zM64 61h1v1h-1zM65 61h1v1h-1zM66 61h1v1h-1zM1 62h1v1H1zM2 62h1v1H2zM3 62h1v1H3z"/><path fill="#8D756F" d="M4 62h1v1H4z"/><path fill="#AD9A94" d="M5 62h1v1H5z"/><path fill="#D1CECC" d="M6 62h1v1H6z"/><path fill="#D6D4D3" d="M7 62h1v1H7z"/><path fill="#BAB5B1" d="M8 62h1v1H8z"/><path fill="#988F8A" d="M9 62h1v1H9z"/><path fill="#928983" d="M10 62h1v1h-1zM11 62h1v1h-1zM12 62h1v1h-1zM13 62h1v1h-1zM14 62h1v1h-1zM15 62h1v1h-1zM16 62h1v1h-1zM17 62h1v1h-1zM18 62h1v1h-1zM19 62h1v1h-1zM20 62h1v1h-1zM21 62h1v1h-1zM22 62h1v1h-1zM23 62h1v1h-1zM24 62h1v1h-1z"/><path fill="#978C86" d="M25 62h1v1h-1z"/><path fill="#A2918B" d="M26 62h1v1h-1z"/><path fill="#AD9790" d="M27 62h1v1h-1z"/><path fill="#BA9E97" d="M28 62h1v1h-1z"/><path fill="#BD9F98" d="M29 62h1v1h-1zM30 62h1v1h-1zM31 62h1v1h-1zM32 62h1v1h-1zM33 62h1v1h-1zM34 62h1v1h-1zM35 62h1v1h-1zM36 62h1v1h-1z"/><path fill="#D8C4BD" d="M37 62h1v1h-1z"/><path fill="#F3E9E2" d="M38 62h1v1h-1zM39 62h1v1h-1zM40 62h1v1h-1zM41 62h1v1h-1zM42 62h1v1h-1zM43 62h1v1h-1zM44 62h1v1h-1zM45 62h1v1h-1zM46 62h1v1h-1zM47 62h1v1h-1zM48 62h1v1h-1zM49 62h1v1h-1zM50 62h1v1h-1zM51 62h1v1h-1z"/><path fill="#C7C0BB" d="M52 62h1v1h-1z"/><path fill="#B3ADA9" d="M53 62h1v1h-1zM54 62h1v1h-1zM55 62h1v1h-1z"/><path fill="#A1948E" d="M56 62h1v1h-1z"/><path fill="#8A7369" d="M57 62h1v1h-1z"/><path fill="#846B60" d="M58 62h1v1h-1zM59 62h1v1h-1zM60 62h1v1h-1z"/><path fill="#817069" d="M61 62h1v1h-1z"/><path fill="#231815" d="M62 62h1v1h-1zM63 62h1v1h-1zM64 62h1v1h-1zM65 62h1v1h-1zM66 62h1v1h-1zM0 63h1v1H0zM1 63h1v1H1zM2 63h1v1H2z"/><path fill="#2D201D" d="M3 63h1v1H3z"/><path fill="#BD9F98" d="M4 63h1v1H4z"/><path fill="#BEADA8" d="M5 63h1v1H5z"/><path fill="#EDEDED" d="M6 63h1v1H6zM7 63h1v1H7zM8 63h1v1H8zM9 63h1v1H9z"/><path fill="#D1CECC" d="M10 63h1v1h-1z"/><path fill="#AEA8A4" d="M11 63h1v1h-1z"/><path fill="#928983" d="M12 63h1v1h-1zM13 63h1v1h-1zM14 63h1v1h-1zM15 63h1v1h-1zM16 63h1v1h-1zM17 63h1v1h-1zM18 63h1v1h-1zM19 63h1v1h-1zM20 63h1v1h-1zM21 63h1v1h-1zM22 63h1v1h-1zM23 63h1v1h-1zM24 63h1v1h-1zM25 63h1v1h-1zM26 63h1v1h-1zM27 63h1v1h-1zM28 63h1v1h-1z"/><path fill="#9A8D87" d="M29 63h1v1h-1z"/><path fill="#A2918B" d="M30 63h1v1h-1z"/><path fill="#AD9790" d="M31 63h1v1h-1z"/><path fill="#B29A93" d="M32 63h1v1h-1z"/><path fill="#BD9F98" d="M33 63h1v1h-1zM34 63h1v1h-1zM35 63h1v1h-1zM36 63h1v1h-1z"/><path fill="#C0A49D" d="M37 63h1v1h-1z"/><path fill="#F0E4DD" d="M38 63h1v1h-1z"/><path fill="#F3E9E2" d="M39 63h1v1h-1zM40 63h1v1h-1zM41 63h1v1h-1zM42 63h1v1h-1zM43 63h1v1h-1zM44 63h1v1h-1zM45 63h1v1h-1zM46 63h1v1h-1zM47 63h1v1h-1zM48 63h1v1h-1zM49 63h1v1h-1zM50 63h1v1h-1zM51 63h1v1h-1z"/><path fill="#EBE2DB" d="M52 63h1v1h-1z"/><path fill="#B3ADA9" d="M53 63h1v1h-1zM54 63h1v1h-1zM55 63h1v1h-1zM56 63h1v1h-1z"/><path fill="#9E9089" d="M57 63h1v1h-1z"/><path fill="#846B60" d="M58 63h1v1h-1zM59 63h1v1h-1z"/><path fill="#725B52" d="M60 63h1v1h-1z"/><path fill="#291D1A" d="M61 63h1v1h-1z"/><path fill="#231815" d="M62 63h1v1h-1zM63 63h1v1h-1zM64 63h1v1h-1zM65 63h1v1h-1zM0 64h1v1H0zM1 64h1v1H1zM2 64h1v1H2z"/><path fill="#53423E" d="M3 64h1v1H3z"/><path fill="#BD9F98" d="M4 64h1v1H4z"/><path fill="#BEA6A0" d="M5 64h1v1H5z"/><path fill="#EDEDED" d="M6 64h1v1H6zM7 64h1v1H7zM8 64h1v1H8zM9 64h1v1H9zM10 64h1v1h-1zM11 64h1v1h-1z"/><path fill="#E7E7E6" d="M12 64h1v1h-1z"/><path fill="#C5C1BF" d="M13 64h1v1h-1z"/><path fill="#A39C97" d="M14 64h1v1h-1z"/><path fill="#928983" d="M15 64h1v1h-1zM16 64h1v1h-1zM17 64h1v1h-1zM18 64h1v1h-1zM19 64h1v1h-1zM20 64h1v1h-1zM21 64h1v1h-1zM22 64h1v1h-1zM23 64h1v1h-1zM24 64h1v1h-1zM25 64h1v1h-1zM26 64h1v1h-1zM27 64h1v1h-1zM28 64h1v1h-1zM29 64h1v1h-1zM30 64h1v1h-1zM31 64h1v1h-1zM32 64h1v1h-1zM33 64h1v1h-1z"/><path fill="#958A84" d="M34 64h1v1h-1z"/><path fill="#9D8F88" d="M35 64h1v1h-1zM36 64h1v1h-1zM37 64h1v1h-1z"/><path fill="#D1C6C0" d="M38 64h1v1h-1z"/><path fill="#F3E9E2" d="M39 64h1v1h-1zM40 64h1v1h-1zM41 64h1v1h-1zM42 64h1v1h-1zM43 64h1v1h-1zM44 64h1v1h-1zM45 64h1v1h-1zM46 64h1v1h-1zM47 64h1v1h-1zM48 64h1v1h-1zM49 64h1v1h-1zM50 64h1v1h-1zM51 64h1v1h-1zM52 64h1v1h-1z"/><path fill="#C7C0BB" d="M53 64h1v1h-1z"/><path fill="#B3ADA9" d="M54 64h1v1h-1zM55 64h1v1h-1z"/><path fill="#9E9089" d="M56 64h1v1h-1z"/><path fill="#846B60" d="M57 64h1v1h-1zM58 64h1v1h-1z"/><path fill="#725B52" d="M59 64h1v1h-1z"/><path fill="#291D1A" d="M60 64h1v1h-1z"/><path fill="#231815" d="M61 64h1v1h-1zM62 64h1v1h-1zM63 64h1v1h-1zM64 64h1v1h-1zM0 65h1v1H0zM1 65h1v1H1zM2 65h1v1H2z"/><path fill="#74615C" d="M3 65h1v1H3z"/><path fill="#BD9F98" d="M4 65h1v1H4zM5 65h1v1H5z"/><path fill="#D8CBC8" d="M6 65h1v1H6z"/><path fill="#EDEDED" d="M7 65h1v1H7zM8 65h1v1H8zM9 65h1v1H9zM10 65h1v1h-1zM11 65h1v1h-1zM12 65h1v1h-1zM13 65h1v1h-1zM14 65h1v1h-1z"/><path fill="#E2E1E0" d="M15 65h1v1h-1z"/><path fill="#C5C1BF" d="M16 65h1v1h-1z"/><path fill="#A9A29E" d="M17 65h1v1h-1z"/><path fill="#928983" d="M18 65h1v1h-1zM19 65h1v1h-1zM20 65h1v1h-1zM21 65h1v1h-1zM22 65h1v1h-1zM23 65h1v1h-1zM24 65h1v1h-1zM25 65h1v1h-1zM26 65h1v1h-1zM27 65h1v1h-1zM28 65h1v1h-1zM29 65h1v1h-1zM30 65h1v1h-1zM31 65h1v1h-1zM32 65h1v1h-1zM33 65h1v1h-1zM34 65h1v1h-1zM35 65h1v1h-1zM36 65h1v1h-1zM37 65h1v1h-1z"/><path fill="#B0A7A1" d="M38 65h1v1h-1z"/><path fill="#F3E9E2" d="M39 65h1v1h-1zM40 65h1v1h-1zM41 65h1v1h-1zM42 65h1v1h-1zM43 65h1v1h-1zM44 65h1v1h-1zM45 65h1v1h-1zM46 65h1v1h-1zM47 65h1v1h-1zM48 65h1v1h-1zM49 65h1v1h-1zM50 65h1v1h-1zM51 65h1v1h-1zM52 65h1v1h-1z"/><path fill="#CFC7C2" d="M53 65h1v1h-1z"/><path fill="#B3ADA9" d="M54 65h1v1h-1z"/><path fill="#96847B" d="M55 65h1v1h-1z"/><path fill="#846B60" d="M56 65h1v1h-1zM57 65h1v1h-1z"/><path fill="#725B52" d="M58 65h1v1h-1z"/><path fill="#291D1A" d="M59 65h1v1h-1z"/><path fill="#231815" d="M60 65h1v1h-1zM61 65h1v1h-1zM62 65h1v1h-1zM63 65h1v1h-1zM0 66h1v1H0zM1 66h1v1H1zM2 66h1v1H2z"/><path fill="#766D68" d="M3 66h1v1H3z"/><path fill="#AD9790" d="M4 66h1v1H4z"/><path fill="#967B72" d="M5 66h1v1H5z"/><path fill="#846B60" d="M6 66h1v1H6z"/><path fill="#C6BCB8" d="M7 66h1v1H7z"/><path fill="#EDEDED" d="M8 66h1v1H8zM9 66h1v1H9zM10 66h1v1h-1zM11 66h1v1h-1zM12 66h1v1h-1zM13 66h1v1h-1zM14 66h1v1h-1zM15 66h1v1h-1zM16 66h1v1h-1zM17 66h1v1h-1z"/><path fill="#E7E7E6" d="M18 66h1v1h-1z"/><path fill="#D1CECC" d="M19 66h1v1h-1z"/><path fill="#BAB5B1" d="M20 66h1v1h-1z"/><path fill="#A39C97" d="M21 66h1v1h-1z"/><path fill="#928983" d="M22 66h1v1h-1zM23 66h1v1h-1zM24 66h1v1h-1zM25 66h1v1h-1zM26 66h1v1h-1zM27 66h1v1h-1zM28 66h1v1h-1zM29 66h1v1h-1zM30 66h1v1h-1zM31 66h1v1h-1zM32 66h1v1h-1zM33 66h1v1h-1zM34 66h1v1h-1zM35 66h1v1h-1zM36 66h1v1h-1zM37 66h1v1h-1zM38 66h1v1h-1z"/><path fill="#F3E9E2" d="M39 66h1v1h-1zM40 66h1v1h-1zM41 66h1v1h-1zM42 66h1v1h-1zM43 66h1v1h-1z"/><path fill="#C7C0BB" d="M44 66h1v1h-1z"/><path fill="#B3ADA9" d="M45 66h1v1h-1z"/><path fill="#CBC4BE" d="M46 66h1v1h-1z"/><path fill="#E3DAD4" d="M47 66h1v1h-1z"/><path fill="#F3E9E2" d="M48 66h1v1h-1zM49 66h1v1h-1zM50 66h1v1h-1zM51 66h1v1h-1z"/><path fill="#E3DAD4" d="M52 66h1v1h-1z"/><path fill="#B7B1AD" d="M53 66h1v1h-1z"/><path fill="#96847B" d="M54 66h1v1h-1z"/><path fill="#846B60" d="M55 66h1v1h-1zM56 66h1v1h-1z"/><path fill="#725B52" d="M57 66h1v1h-1z"/><path fill="#291D1A" d="M58 66h1v1h-1z"/><path fill="#231815" d="M59 66h1v1h-1zM60 66h1v1h-1zM61 66h1v1h-1zM62 66h1v1h-1zM0 67h1v1H0zM1 67h1v1H1zM2 67h1v1H2z"/><path fill="#766D68" d="M3 67h1v1H3z"/><path fill="#928983" d="M4 67h1v1H4z"/><path fill="#8D7A71" d="M5 67h1v1H5z"/><path fill="#846B60" d="M6 67h1v1H6zM7 67h1v1H7z"/><path fill="#B2A49E" d="M8 67h1v1H8z"/><path fill="#E6E5E4" d="M9 67h1v1H9z"/><path fill="#EDEDED" d="M10 67h1v1h-1zM11 67h1v1h-1zM12 67h1v1h-1zM13 67h1v1h-1zM14 67h1v1h-1zM15 67h1v1h-1zM16 67h1v1h-1zM17 67h1v1h-1zM18 67h1v1h-1zM19 67h1v1h-1zM20 67h1v1h-1zM21 67h1v1h-1zM22 67h1v1h-1z"/><path fill="#D6D4D3" d="M23 67h1v1h-1z"/><path fill="#CBC8C5" d="M24 67h1v1h-1z"/><path fill="#C0BBB8" d="M25 67h1v1h-1z"/><path fill="#A9A29E" d="M26 67h1v1h-1z"/><path fill="#A39C97" d="M27 67h1v1h-1z"/><path fill="#928983" d="M28 67h1v1h-1zM29 67h1v1h-1zM30 67h1v1h-1zM31 67h1v1h-1zM32 67h1v1h-1zM33 67h1v1h-1zM34 67h1v1h-1zM35 67h1v1h-1zM36 67h1v1h-1zM37 67h1v1h-1zM38 67h1v1h-1z"/><path fill="#DBD1CA" d="M39 67h1v1h-1z"/><path fill="#F3E9E2" d="M40 67h1v1h-1zM41 67h1v1h-1zM42 67h1v1h-1z"/><path fill="#E7DED7" d="M43 67h1v1h-1z"/><path fill="#B3ADA9" d="M44 67h1v1h-1zM45 67h1v1h-1zM46 67h1v1h-1zM47 67h1v1h-1z"/><path fill="#BBB5B0" d="M48 67h1v1h-1z"/><path fill="#C3BCB7" d="M49 67h1v1h-1zM50 67h1v1h-1z"/><path fill="#BBB5B0" d="M51 67h1v1h-1z"/><path fill="#B3ADA9" d="M52 67h1v1h-1z"/><path fill="#A79D97" d="M53 67h1v1h-1z"/><path fill="#846B60" d="M54 67h1v1h-1zM55 67h1v1h-1z"/><path fill="#665149" d="M56 67h1v1h-1z"/><path fill="#291D1A" d="M57 67h1v1h-1z"/><path fill="#231815" d="M58 67h1v1h-1zM59 67h1v1h-1zM60 67h1v1h-1zM61 67h1v1h-1zM0 68h1v1H0zM1 68h1v1H1zM2 68h1v1H2z"/><path fill="#928983" d="M3 68h1v1H3zM4 68h1v1H4zM5 68h1v1H5z"/><path fill="#8A786F" d="M6 68h1v1H6z"/><path fill="#846B60" d="M7 68h1v1H7zM8 68h1v1H8z"/><path fill="#8B7369" d="M9 68h1v1H9z"/><path fill="#AB9C95" d="M10 68h1v1h-1z"/><path fill="#D9D5D3" d="M11 68h1v1h-1z"/><path fill="#EDEDED" d="M12 68h1v1h-1zM13 68h1v1h-1zM14 68h1v1h-1zM15 68h1v1h-1zM16 68h1v1h-1zM17 68h1v1h-1zM18 68h1v1h-1zM19 68h1v1h-1zM20 68h1v1h-1zM21 68h1v1h-1zM22 68h1v1h-1zM23 68h1v1h-1zM24 68h1v1h-1zM25 68h1v1h-1zM26 68h1v1h-1zM27 68h1v1h-1zM28 68h1v1h-1zM29 68h1v1h-1z"/><path fill="#E7E7E6" d="M30 68h1v1h-1z"/><path fill="#D6D4D3" d="M31 68h1v1h-1zM32 68h1v1h-1zM33 68h1v1h-1zM34 68h1v1h-1z"/><path fill="#CBC8C5" d="M35 68h1v1h-1z"/><path fill="#988F8A" d="M36 68h1v1h-1z"/><path fill="#928983" d="M37 68h1v1h-1zM38 68h1v1h-1z"/><path fill="#C3B9B3" d="M39 68h1v1h-1z"/><path fill="#F3E9E2" d="M40 68h1v1h-1zM41 68h1v1h-1zM42 68h1v1h-1z"/><path fill="#D3CBC6" d="M43 68h1v1h-1z"/><path fill="#B3ADA9" d="M44 68h1v1h-1zM45 68h1v1h-1zM46 68h1v1h-1zM47 68h1v1h-1zM48 68h1v1h-1zM49 68h1v1h-1zM50 68h1v1h-1zM51 68h1v1h-1zM52 68h1v1h-1z"/><path fill="#938077" d="M53 68h1v1h-1z"/><path fill="#846B60" d="M54 68h1v1h-1z"/><path fill="#604C44" d="M55 68h1v1h-1z"/><path fill="#231815" d="M56 68h1v1h-1zM57 68h1v1h-1zM58 68h1v1h-1zM59 68h1v1h-1zM60 68h1v1h-1zM0 69h1v1H0zM1 69h1v1H1zM2 69h1v1H2z"/><path fill="#928983" d="M3 69h1v1H3zM4 69h1v1H4zM5 69h1v1H5zM6 69h1v1H6z"/><path fill="#8D7E76" d="M7 69h1v1H7z"/><path fill="#856D62" d="M8 69h1v1H8z"/><path fill="#846B60" d="M9 69h1v1H9zM10 69h1v1h-1zM11 69h1v1h-1z"/><path fill="#8B7369" d="M12 69h1v1h-1z"/><path fill="#AB9C95" d="M13 69h1v1h-1z"/><path fill="#C6BCB8" d="M14 69h1v1h-1z"/><path fill="#E0DDDB" d="M15 69h1v1h-1z"/><path fill="#EDEDED" d="M16 69h1v1h-1zM17 69h1v1h-1zM18 69h1v1h-1zM19 69h1v1h-1zM20 69h1v1h-1zM21 69h1v1h-1zM22 69h1v1h-1zM23 69h1v1h-1zM24 69h1v1h-1zM25 69h1v1h-1zM26 69h1v1h-1zM27 69h1v1h-1zM28 69h1v1h-1zM29 69h1v1h-1zM30 69h1v1h-1zM31 69h1v1h-1zM32 69h1v1h-1zM33 69h1v1h-1zM34 69h1v1h-1zM35 69h1v1h-1z"/><path fill="#AEA8A4" d="M36 69h1v1h-1z"/><path fill="#928983" d="M37 69h1v1h-1zM38 69h1v1h-1z"/><path fill="#C3B9B3" d="M39 69h1v1h-1z"/><path fill="#F3E9E2" d="M40 69h1v1h-1zM41 69h1v1h-1zM42 69h1v1h-1z"/><path fill="#C7C0BB" d="M43 69h1v1h-1z"/><path fill="#B3ADA9" d="M44 69h1v1h-1zM45 69h1v1h-1zM46 69h1v1h-1zM47 69h1v1h-1zM48 69h1v1h-1zM49 69h1v1h-1zM50 69h1v1h-1zM51 69h1v1h-1zM52 69h1v1h-1z"/><path fill="#846B60" d="M53 69h1v1h-1z"/><path fill="#604C44" d="M54 69h1v1h-1z"/><path fill="#231815" d="M55 69h1v1h-1zM56 69h1v1h-1zM57 69h1v1h-1zM58 69h1v1h-1zM59 69h1v1h-1zM0 70h1v1H0zM1 70h1v1H1zM2 70h1v1H2z"/><path fill="#7D746E" d="M3 70h1v1H3z"/><path fill="#928983" d="M4 70h1v1H4zM5 70h1v1H5zM6 70h1v1H6zM7 70h1v1H7z"/><path fill="#90857F" d="M8 70h1v1H8z"/><path fill="#887369" d="M9 70h1v1H9z"/><path fill="#846B60" d="M10 70h1v1h-1zM11 70h1v1h-1zM12 70h1v1h-1zM13 70h1v1h-1zM14 70h1v1h-1zM15 70h1v1h-1z"/><path fill="#917B72" d="M16 70h1v1h-1z"/><path fill="#A5948C" d="M17 70h1v1h-1z"/><path fill="#BFB4AF" d="M18 70h1v1h-1z"/><path fill="#D3CDCA" d="M19 70h1v1h-1z"/><path fill="#EDEDED" d="M20 70h1v1h-1zM21 70h1v1h-1zM22 70h1v1h-1zM23 70h1v1h-1zM24 70h1v1h-1zM25 70h1v1h-1zM26 70h1v1h-1zM27 70h1v1h-1zM28 70h1v1h-1zM29 70h1v1h-1zM30 70h1v1h-1zM31 70h1v1h-1zM32 70h1v1h-1zM33 70h1v1h-1zM34 70h1v1h-1z"/><path fill="#DCDAD9" d="M35 70h1v1h-1z"/><path fill="#988F8A" d="M36 70h1v1h-1z"/><path fill="#928983" d="M37 70h1v1h-1zM38 70h1v1h-1z"/><path fill="#AAA19B" d="M39 70h1v1h-1z"/><path fill="#F3E9E2" d="M40 70h1v1h-1zM41 70h1v1h-1zM42 70h1v1h-1z"/><path fill="#C3BCB7" d="M43 70h1v1h-1z"/><path fill="#B3ADA9" d="M44 70h1v1h-1zM45 70h1v1h-1zM46 70h1v1h-1zM47 70h1v1h-1zM48 70h1v1h-1zM49 70h1v1h-1zM50 70h1v1h-1zM51 70h1v1h-1zM52 70h1v1h-1z"/><path fill="#4D3C36" d="M53 70h1v1h-1z"/><path fill="#231815" d="M54 70h1v1h-1zM55 70h1v1h-1zM56 70h1v1h-1zM57 70h1v1h-1zM58 70h1v1h-1zM0 71h1v1H0zM1 71h1v1H1zM2 71h1v1H2z"/><path fill="#766D68" d="M3 71h1v1H3z"/><path fill="#988F8A" d="M4 71h1v1H4z"/><path fill="#B4AFAB" d="M5 71h1v1H5z"/><path fill="#A39C97" d="M6 71h1v1H6z"/><path fill="#928983" d="M7 71h1v1H7zM8 71h1v1H8zM9 71h1v1H9z"/><path fill="#8E8078" d="M10 71h1v1h-1z"/><path fill="#866F64" d="M11 71h1v1h-1z"/><path fill="#846B60" d="M12 71h1v1h-1zM13 71h1v1h-1zM14 71h1v1h-1zM15 71h1v1h-1zM16 71h1v1h-1zM17 71h1v1h-1zM18 71h1v1h-1zM19 71h1v1h-1zM20 71h1v1h-1z"/><path fill="#98837A" d="M21 71h1v1h-1z"/><path fill="#A5948C" d="M22 71h1v1h-1z"/><path fill="#B9ACA7" d="M23 71h1v1h-1z"/><path fill="#CCC4C1" d="M24 71h1v1h-1z"/><path fill="#D3CDCA" d="M25 71h1v1h-1z"/><path fill="#EDEDED" d="M26 71h1v1h-1zM27 71h1v1h-1zM28 71h1v1h-1zM29 71h1v1h-1zM30 71h1v1h-1zM31 71h1v1h-1zM32 71h1v1h-1zM33 71h1v1h-1z"/><path fill="#C5C1BF" d="M34 71h1v1h-1z"/><path fill="#988F8A" d="M35 71h1v1h-1z"/><path fill="#928983" d="M36 71h1v1h-1zM37 71h1v1h-1zM38 71h1v1h-1z"/><path fill="#AAA19B" d="M39 71h1v1h-1z"/><path fill="#F3E9E2" d="M40 71h1v1h-1zM41 71h1v1h-1z"/><path fill="#EFE5DE" d="M42 71h1v1h-1z"/><path fill="#B3ADA9" d="M43 71h1v1h-1zM44 71h1v1h-1zM45 71h1v1h-1zM46 71h1v1h-1zM47 71h1v1h-1zM48 71h1v1h-1zM49 71h1v1h-1zM50 71h1v1h-1zM51 71h1v1h-1z"/><path fill="#59504D" d="M52 71h1v1h-1z"/><path fill="#231815" d="M53 71h1v1h-1zM54 71h1v1h-1zM55 71h1v1h-1zM56 71h1v1h-1zM57 71h1v1h-1zM0 72h1v1H0zM1 72h1v1H1zM2 72h1v1H2z"/><path fill="#615853" d="M3 72h1v1H3z"/><path fill="#CBC8C5" d="M4 72h1v1H4z"/><path fill="#EDEDED" d="M5 72h1v1H5zM6 72h1v1H6z"/><path fill="#E2E1E0" d="M7 72h1v1H7z"/><path fill="#BAB5B1" d="M8 72h1v1H8z"/><path fill="#9D9690" d="M9 72h1v1H9z"/><path fill="#928983" d="M10 72h1v1h-1zM11 72h1v1h-1z"/><path fill="#8D7E76" d="M12 72h1v1h-1z"/><path fill="#887369" d="M13 72h1v1h-1z"/><path fill="#846B60" d="M14 72h1v1h-1zM15 72h1v1h-1zM16 72h1v1h-1zM17 72h1v1h-1zM18 72h1v1h-1zM19 72h1v1h-1zM20 72h1v1h-1zM21 72h1v1h-1zM22 72h1v1h-1zM23 72h1v1h-1zM24 72h1v1h-1zM25 72h1v1h-1zM26 72h1v1h-1zM27 72h1v1h-1z"/><path fill="#9E8C83" d="M28 72h1v1h-1zM29 72h1v1h-1zM30 72h1v1h-1zM31 72h1v1h-1zM32 72h1v1h-1z"/><path fill="#8B7369" d="M33 72h1v1h-1z"/><path fill="#856D62" d="M34 72h1v1h-1z"/><path fill="#8E8078" d="M35 72h1v1h-1z"/><path fill="#928983" d="M36 72h1v1h-1zM37 72h1v1h-1zM38 72h1v1h-1z"/><path fill="#AAA19B" d="M39 72h1v1h-1z"/><path fill="#F3E9E2" d="M40 72h1v1h-1zM41 72h1v1h-1z"/><path fill="#DBD3CD" d="M42 72h1v1h-1z"/><path fill="#B3ADA9" d="M43 72h1v1h-1zM44 72h1v1h-1zM45 72h1v1h-1zM46 72h1v1h-1zM47 72h1v1h-1zM48 72h1v1h-1zM49 72h1v1h-1z"/><path fill="#AAA4A0" d="M50 72h1v1h-1z"/><path fill="#3E3431" d="M51 72h1v1h-1z"/><path fill="#231815" d="M52 72h1v1h-1zM53 72h1v1h-1zM54 72h1v1h-1zM55 72h1v1h-1zM56 72h1v1h-1zM0 73h1v1H0zM1 73h1v1H1zM2 73h1v1H2z"/><path fill="#4D423E" d="M3 73h1v1H3z"/><path fill="#CBC8C5" d="M4 73h1v1H4z"/><path fill="#EDEDED" d="M5 73h1v1H5zM6 73h1v1H6zM7 73h1v1H7zM8 73h1v1H8zM9 73h1v1H9z"/><path fill="#D1CECC" d="M10 73h1v1h-1z"/><path fill="#AEA8A4" d="M11 73h1v1h-1z"/><path fill="#928983" d="M12 73h1v1h-1zM13 73h1v1h-1z"/><path fill="#938780" d="M14 73h1v1h-1z"/><path fill="#95827A" d="M15 73h1v1h-1z"/><path fill="#947C72" d="M16 73h1v1h-1z"/><path fill="#8F756B" d="M17 73h1v1h-1z"/><path fill="#846B60" d="M18 73h1v1h-1zM19 73h1v1h-1zM20 73h1v1h-1zM21 73h1v1h-1zM22 73h1v1h-1zM23 73h1v1h-1zM24 73h1v1h-1zM25 73h1v1h-1zM26 73h1v1h-1zM27 73h1v1h-1zM28 73h1v1h-1zM29 73h1v1h-1zM30 73h1v1h-1zM31 73h1v1h-1zM32 73h1v1h-1zM33 73h1v1h-1z"/><path fill="#886E64" d="M34 73h1v1h-1z"/><path fill="#A18B83" d="M35 73h1v1h-1z"/><path fill="#9F908A" d="M36 73h1v1h-1z"/><path fill="#9D8F88" d="M37 73h1v1h-1z"/><path fill="#9A8D87" d="M38 73h1v1h-1z"/><path fill="#B6ADA7" d="M39 73h1v1h-1z"/><path fill="#F3E9E2" d="M40 73h1v1h-1z"/><path fill="#EFE5DE" d="M41 73h1v1h-1z"/><path fill="#B7B1AD" d="M42 73h1v1h-1z"/><path fill="#B3ADA9" d="M43 73h1v1h-1zM44 73h1v1h-1zM45 73h1v1h-1zM46 73h1v1h-1zM47 73h1v1h-1zM48 73h1v1h-1z"/><path fill="#98918D" d="M49 73h1v1h-1z"/><path fill="#352B28" d="M50 73h1v1h-1z"/><path fill="#231815" d="M51 73h1v1h-1zM52 73h1v1h-1zM53 73h1v1h-1zM54 73h1v1h-1zM55 73h1v1h-1zM0 74h1v1H0zM1 74h1v1H1zM2 74h1v1H2z"/><path fill="#2A1F1C" d="M3 74h1v1H3z"/><path fill="#A9A29E" d="M4 74h1v1H4z"/><path fill="#EDEDED" d="M5 74h1v1H5zM6 74h1v1H6zM7 74h1v1H7zM8 74h1v1H8zM9 74h1v1H9zM10 74h1v1h-1zM11 74h1v1h-1z"/><path fill="#E7E7E6" d="M12 74h1v1h-1z"/><path fill="#CBC8C5" d="M13 74h1v1h-1z"/><path fill="#AEA8A4" d="M14 74h1v1h-1z"/><path fill="#928983" d="M15 74h1v1h-1zM16 74h1v1h-1z"/><path fill="#9A8D87" d="M17 74h1v1h-1z"/><path fill="#A8948E" d="M18 74h1v1h-1z"/><path fill="#A48D85" d="M19 74h1v1h-1z"/><path fill="#A88C83" d="M20 74h1v1h-1z"/><path fill="#A1857C" d="M21 74h1v1h-1z"/><path fill="#92786E" d="M22 74h1v1h-1zM23 74h1v1h-1z"/><path fill="#846B60" d="M24 74h1v1h-1zM25 74h1v1h-1zM26 74h1v1h-1zM27 74h1v1h-1zM28 74h1v1h-1zM29 74h1v1h-1zM30 74h1v1h-1zM31 74h1v1h-1zM32 74h1v1h-1z"/><path fill="#997F75" d="M33 74h1v1h-1z"/><path fill="#B69991" d="M34 74h1v1h-1z"/><path fill="#BD9F98" d="M35 74h1v1h-1zM36 74h1v1h-1zM37 74h1v1h-1zM38 74h1v1h-1z"/><path fill="#D8C4BD" d="M39 74h1v1h-1z"/><path fill="#F3E9E2" d="M40 74h1v1h-1z"/><path fill="#C7C0BB" d="M41 74h1v1h-1z"/><path fill="#B3ADA9" d="M42 74h1v1h-1zM43 74h1v1h-1zM44 74h1v1h-1zM45 74h1v1h-1zM46 74h1v1h-1zM47 74h1v1h-1z"/><path fill="#7D7572" d="M48 74h1v1h-1z"/><path fill="#2C211E" d="M49 74h1v1h-1z"/><path fill="#231815" d="M50 74h1v1h-1zM51 74h1v1h-1zM52 74h1v1h-1zM53 74h1v1h-1zM1 75h1v1H1zM2 75h1v1H2zM3 75h1v1H3z"/><path fill="#6B5C56" d="M4 75h1v1H4z"/><path fill="#BBB2AD" d="M5 75h1v1H5z"/><path fill="#EDEDED" d="M6 75h1v1H6zM7 75h1v1H7zM8 75h1v1H8zM9 75h1v1H9zM10 75h1v1h-1zM11 75h1v1h-1zM12 75h1v1h-1zM13 75h1v1h-1zM14 75h1v1h-1z"/><path fill="#E7E7E6" d="M15 75h1v1h-1z"/><path fill="#D1CECC" d="M16 75h1v1h-1z"/><path fill="#B4AFAB" d="M17 75h1v1h-1z"/><path fill="#9D9690" d="M18 75h1v1h-1z"/><path fill="#928983" d="M19 75h1v1h-1zM20 75h1v1h-1z"/><path fill="#9D8F88" d="M21 75h1v1h-1z"/><path fill="#A5938C" d="M22 75h1v1h-1z"/><path fill="#AA958F" d="M23 75h1v1h-1z"/><path fill="#B29A93" d="M24 75h1v1h-1z"/><path fill="#B89C95" d="M25 75h1v1h-1z"/><path fill="#B2958E" d="M26 75h1v1h-1z"/><path fill="#AF928A" d="M27 75h1v1h-1zM28 75h1v1h-1zM29 75h1v1h-1zM30 75h1v1h-1zM31 75h1v1h-1z"/><path fill="#BD9F98" d="M32 75h1v1h-1zM33 75h1v1h-1zM34 75h1v1h-1zM35 75h1v1h-1zM36 75h1v1h-1zM37 75h1v1h-1zM38 75h1v1h-1z"/><path fill="#DFCDC6" d="M39 75h1v1h-1z"/><path fill="#CBC4BE" d="M40 75h1v1h-1z"/><path fill="#B3ADA9" d="M41 75h1v1h-1zM42 75h1v1h-1zM43 75h1v1h-1zM44 75h1v1h-1zM45 75h1v1h-1zM46 75h1v1h-1z"/><path fill="#625956" d="M47 75h1v1h-1z"/><path fill="#231815" d="M48 75h1v1h-1zM49 75h1v1h-1zM50 75h1v1h-1zM51 75h1v1h-1zM52 75h1v1h-1zM1 76h1v1H1zM2 76h1v1H2zM3 76h1v1H3z"/><path fill="#3B2D28" d="M4 76h1v1H4z"/><path fill="#846B60" d="M5 76h1v1H5z"/><path fill="#AB9C95" d="M6 76h1v1H6z"/><path fill="#E6E5E4" d="M7 76h1v1H7z"/><path fill="#EDEDED" d="M8 76h1v1H8zM9 76h1v1H9zM10 76h1v1h-1zM11 76h1v1h-1zM12 76h1v1h-1zM13 76h1v1h-1zM14 76h1v1h-1zM15 76h1v1h-1zM16 76h1v1h-1zM17 76h1v1h-1zM18 76h1v1h-1z"/><path fill="#E2E1E0" d="M19 76h1v1h-1z"/><path fill="#D1CECC" d="M20 76h1v1h-1z"/><path fill="#C0BBB8" d="M21 76h1v1h-1z"/><path fill="#A9A29E" d="M22 76h1v1h-1z"/><path fill="#988F8A" d="M23 76h1v1h-1z"/><path fill="#928983" d="M24 76h1v1h-1zM25 76h1v1h-1zM26 76h1v1h-1z"/><path fill="#978C86" d="M27 76h1v1h-1z"/><path fill="#9D8F88" d="M28 76h1v1h-1zM29 76h1v1h-1z"/><path fill="#A5938C" d="M30 76h1v1h-1z"/><path fill="#A8948E" d="M31 76h1v1h-1zM32 76h1v1h-1zM33 76h1v1h-1zM34 76h1v1h-1z"/><path fill="#B29A93" d="M35 76h1v1h-1zM36 76h1v1h-1zM37 76h1v1h-1zM38 76h1v1h-1z"/><path fill="#C1B6B1" d="M39 76h1v1h-1z"/><path fill="#B3ADA9" d="M40 76h1v1h-1zM41 76h1v1h-1zM42 76h1v1h-1zM43 76h1v1h-1zM44 76h1v1h-1z"/><path fill="#A19A97" d="M45 76h1v1h-1z"/><path fill="#3E3431" d="M46 76h1v1h-1z"/><path fill="#231815" d="M47 76h1v1h-1zM48 76h1v1h-1zM49 76h1v1h-1zM50 76h1v1h-1zM51 76h1v1h-1zM1 77h1v1H1zM2 77h1v1H2zM3 77h1v1H3zM4 77h1v1H4z"/><path fill="#6C564D" d="M5 77h1v1H5z"/><path fill="#846B60" d="M6 77h1v1H6z"/><path fill="#917B72" d="M7 77h1v1H7z"/><path fill="#C6BCB8" d="M8 77h1v1H8z"/><path fill="#E6E5E4" d="M9 77h1v1H9z"/><path fill="#EDEDED" d="M10 77h1v1h-1zM11 77h1v1h-1zM12 77h1v1h-1zM13 77h1v1h-1zM14 77h1v1h-1zM15 77h1v1h-1zM16 77h1v1h-1zM17 77h1v1h-1zM18 77h1v1h-1zM19 77h1v1h-1zM20 77h1v1h-1zM21 77h1v1h-1zM22 77h1v1h-1zM23 77h1v1h-1z"/><path fill="#E7E7E6" d="M24 77h1v1h-1z"/><path fill="#D6D4D3" d="M25 77h1v1h-1z"/><path fill="#D1CECC" d="M26 77h1v1h-1z"/><path fill="#C0BBB8" d="M27 77h1v1h-1zM28 77h1v1h-1zM29 77h1v1h-1z"/><path fill="#A9A29E" d="M30 77h1v1h-1zM31 77h1v1h-1zM32 77h1v1h-1zM33 77h1v1h-1z"/><path fill="#988F8A" d="M34 77h1v1h-1z"/><path fill="#928983" d="M35 77h1v1h-1zM36 77h1v1h-1zM37 77h1v1h-1z"/><path fill="#968E88" d="M38 77h1v1h-1z"/><path fill="#B3ADA9" d="M39 77h1v1h-1zM40 77h1v1h-1zM41 77h1v1h-1zM42 77h1v1h-1zM43 77h1v1h-1z"/><path fill="#7D7572" d="M44 77h1v1h-1z"/><path fill="#2C211E" d="M45 77h1v1h-1z"/><path fill="#231815" d="M46 77h1v1h-1zM47 77h1v1h-1zM48 77h1v1h-1zM49 77h1v1h-1zM50 77h1v1h-1zM2 78h1v1H2zM3 78h1v1H3zM4 78h1v1H4z"/><path fill="#352823" d="M5 78h1v1H5z"/><path fill="#846B60" d="M6 78h1v1H6zM7 78h1v1H7zM8 78h1v1H8z"/><path fill="#8B7369" d="M9 78h1v1H9z"/><path fill="#AB9C95" d="M10 78h1v1h-1z"/><path fill="#C6BCB8" d="M11 78h1v1h-1z"/><path fill="#E6E5E4" d="M12 78h1v1h-1z"/><path fill="#EDEDED" d="M13 78h1v1h-1zM14 78h1v1h-1zM15 78h1v1h-1zM16 78h1v1h-1zM17 78h1v1h-1zM18 78h1v1h-1zM19 78h1v1h-1zM20 78h1v1h-1zM21 78h1v1h-1zM22 78h1v1h-1zM23 78h1v1h-1zM24 78h1v1h-1zM25 78h1v1h-1zM26 78h1v1h-1zM27 78h1v1h-1zM28 78h1v1h-1zM29 78h1v1h-1zM30 78h1v1h-1zM31 78h1v1h-1zM32 78h1v1h-1zM33 78h1v1h-1z"/><path fill="#C0BBB8" d="M34 78h1v1h-1z"/><path fill="#928983" d="M35 78h1v1h-1zM36 78h1v1h-1zM37 78h1v1h-1z"/><path fill="#A09994" d="M38 78h1v1h-1z"/><path fill="#B3ADA9" d="M39 78h1v1h-1zM40 78h1v1h-1zM41 78h1v1h-1z"/><path fill="#AAA4A0" d="M42 78h1v1h-1z"/><path fill="#504743" d="M43 78h1v1h-1z"/><path fill="#231815" d="M44 78h1v1h-1zM45 78h1v1h-1zM46 78h1v1h-1zM47 78h1v1h-1zM48 78h1v1h-1zM2 79h1v1H2zM3 79h1v1H3zM4 79h1v1H4zM5 79h1v1H5z"/><path fill="#54433D" d="M6 79h1v1H6z"/><path fill="#846B60" d="M7 79h1v1H7zM8 79h1v1H8zM9 79h1v1H9zM10 79h1v1h-1zM11 79h1v1h-1zM12 79h1v1h-1z"/><path fill="#98837A" d="M13 79h1v1h-1z"/><path fill="#B2A49E" d="M14 79h1v1h-1z"/><path fill="#C6BCB8" d="M15 79h1v1h-1z"/><path fill="#D9D5D3" d="M16 79h1v1h-1z"/><path fill="#EDEDED" d="M17 79h1v1h-1zM18 79h1v1h-1zM19 79h1v1h-1zM20 79h1v1h-1zM21 79h1v1h-1zM22 79h1v1h-1zM23 79h1v1h-1zM24 79h1v1h-1zM25 79h1v1h-1zM26 79h1v1h-1zM27 79h1v1h-1zM28 79h1v1h-1zM29 79h1v1h-1zM30 79h1v1h-1zM31 79h1v1h-1zM32 79h1v1h-1z"/><path fill="#C3BCB8" d="M33 79h1v1h-1z"/><path fill="#988F8A" d="M34 79h1v1h-1z"/><path fill="#928983" d="M35 79h1v1h-1zM36 79h1v1h-1zM37 79h1v1h-1z"/><path fill="#AFA9A4" d="M38 79h1v1h-1z"/><path fill="#B3ADA9" d="M39 79h1v1h-1zM40 79h1v1h-1z"/><path fill="#867E7B" d="M41 79h1v1h-1z"/><path fill="#2C211E" d="M42 79h1v1h-1z"/><path fill="#231815" d="M43 79h1v1h-1zM44 79h1v1h-1zM45 79h1v1h-1zM46 79h1v1h-1zM47 79h1v1h-1zM3 80h1v1H3zM4 80h1v1H4zM5 80h1v1H5zM6 80h1v1H6z"/><path fill="#6B5C56" d="M7 80h1v1H7z"/><path fill="#866F64" d="M8 80h1v1H8z"/><path fill="#846B60" d="M9 80h1v1H9zM10 80h1v1h-1zM11 80h1v1h-1zM12 80h1v1h-1zM13 80h1v1h-1zM14 80h1v1h-1zM15 80h1v1h-1zM16 80h1v1h-1zM17 80h1v1h-1z"/><path fill="#9E8C83" d="M18 80h1v1h-1z"/><path fill="#AB9C95" d="M19 80h1v1h-1z"/><path fill="#B9ACA7" d="M20 80h1v1h-1z"/><path fill="#D3CDCA" d="M21 80h1v1h-1z"/><path fill="#D9D5D3" d="M22 80h1v1h-1z"/><path fill="#EDEDED" d="M23 80h1v1h-1zM24 80h1v1h-1zM25 80h1v1h-1zM26 80h1v1h-1zM27 80h1v1h-1zM28 80h1v1h-1zM29 80h1v1h-1z"/><path fill="#E0DDDB" d="M30 80h1v1h-1z"/><path fill="#BFB4AF" d="M31 80h1v1h-1z"/><path fill="#917B72" d="M32 80h1v1h-1z"/><path fill="#846B60" d="M33 80h1v1h-1z"/><path fill="#8B7A72" d="M34 80h1v1h-1z"/><path fill="#928983" d="M35 80h1v1h-1zM36 80h1v1h-1z"/><path fill="#9E9791" d="M37 80h1v1h-1z"/><path fill="#B3ADA9" d="M38 80h1v1h-1z"/><path fill="#A19A97" d="M39 80h1v1h-1z"/><path fill="#473D3A" d="M40 80h1v1h-1z"/><path fill="#231815" d="M41 80h1v1h-1zM42 80h1v1h-1zM43 80h1v1h-1zM44 80h1v1h-1zM45 80h1v1h-1zM46 80h1v1h-1zM3 81h1v1H3zM4 81h1v1H4zM5 81h1v1H5zM6 81h1v1H6z"/><path fill="#2A1F1C" d="M7 81h1v1H7z"/><path fill="#7C726C" d="M8 81h1v1H8z"/><path fill="#8C7C74" d="M9 81h1v1H9z"/><path fill="#866F64" d="M10 81h1v1h-1z"/><path fill="#846B60" d="M11 81h1v1h-1zM12 81h1v1h-1zM13 81h1v1h-1zM14 81h1v1h-1zM15 81h1v1h-1zM16 81h1v1h-1zM17 81h1v1h-1zM18 81h1v1h-1zM19 81h1v1h-1zM20 81h1v1h-1zM21 81h1v1h-1zM22 81h1v1h-1zM23 81h1v1h-1zM24 81h1v1h-1z"/><path fill="#9E8C83" d="M25 81h1v1h-1zM26 81h1v1h-1zM27 81h1v1h-1zM28 81h1v1h-1z"/><path fill="#98837A" d="M29 81h1v1h-1z"/><path fill="#846B60" d="M30 81h1v1h-1zM31 81h1v1h-1zM32 81h1v1h-1z"/><path fill="#856D62" d="M33 81h1v1h-1z"/><path fill="#8F837C" d="M34 81h1v1h-1z"/><path fill="#928983" d="M35 81h1v1h-1zM36 81h1v1h-1z"/><path fill="#A69F9B" d="M37 81h1v1h-1z"/><path fill="#6B635F" d="M38 81h1v1h-1z"/><path fill="#231815" d="M39 81h1v1h-1zM40 81h1v1h-1zM41 81h1v1h-1zM42 81h1v1h-1zM43 81h1v1h-1zM44 81h1v1h-1zM4 82h1v1H4zM5 82h1v1H5zM6 82h1v1H6zM7 82h1v1H7z"/><path fill="#2A1F1C" d="M8 82h1v1H8z"/><path fill="#6F6661" d="M9 82h1v1H9z"/><path fill="#928983" d="M10 82h1v1h-1z"/><path fill="#8F837C" d="M11 82h1v1h-1z"/><path fill="#8B7A72" d="M12 82h1v1h-1z"/><path fill="#877167" d="M13 82h1v1h-1z"/><path fill="#846B60" d="M14 82h1v1h-1zM15 82h1v1h-1zM16 82h1v1h-1zM17 82h1v1h-1zM18 82h1v1h-1zM19 82h1v1h-1zM20 82h1v1h-1zM21 82h1v1h-1zM22 82h1v1h-1zM23 82h1v1h-1zM24 82h1v1h-1zM25 82h1v1h-1zM26 82h1v1h-1zM27 82h1v1h-1zM28 82h1v1h-1zM29 82h1v1h-1zM30 82h1v1h-1zM31 82h1v1h-1z"/><path fill="#877167" d="M32 82h1v1h-1z"/><path fill="#8F837C" d="M33 82h1v1h-1z"/><path fill="#928983" d="M34 82h1v1h-1zM35 82h1v1h-1z"/><path fill="#665C58" d="M36 82h1v1h-1z"/><path fill="#2C211E" d="M37 82h1v1h-1z"/><path fill="#231815" d="M38 82h1v1h-1zM39 82h1v1h-1zM40 82h1v1h-1zM41 82h1v1h-1zM42 82h1v1h-1zM43 82h1v1h-1zM5 83h1v1H5zM6 83h1v1H6zM7 83h1v1H7zM8 83h1v1H8zM9 83h1v1H9z"/><path fill="#5B514C" d="M10 83h1v1h-1z"/><path fill="#928983" d="M11 83h1v1h-1zM12 83h1v1h-1zM13 83h1v1h-1z"/><path fill="#918781" d="M14 83h1v1h-1z"/><path fill="#8F827A" d="M15 83h1v1h-1z"/><path fill="#8B7A72" d="M16 83h1v1h-1z"/><path fill="#88746B" d="M17 83h1v1h-1z"/><path fill="#866F64" d="M18 83h1v1h-1z"/><path fill="#846B60" d="M19 83h1v1h-1zM20 83h1v1h-1zM21 83h1v1h-1zM22 83h1v1h-1zM23 83h1v1h-1zM24 83h1v1h-1zM25 83h1v1h-1zM26 83h1v1h-1zM27 83h1v1h-1zM28 83h1v1h-1zM29 83h1v1h-1z"/><path fill="#856D62" d="M30 83h1v1h-1z"/><path fill="#8B7A72" d="M31 83h1v1h-1z"/><path fill="#928983" d="M32 83h1v1h-1z"/><path fill="#8B827C" d="M33 83h1v1h-1z"/><path fill="#615853" d="M34 83h1v1h-1z"/><path fill="#312623" d="M35 83h1v1h-1z"/><path fill="#231815" d="M36 83h1v1h-1zM37 83h1v1h-1zM38 83h1v1h-1zM39 83h1v1h-1zM40 83h1v1h-1zM41 83h1v1h-1zM6 84h1v1H6zM7 84h1v1H7zM8 84h1v1H8zM9 84h1v1H9zM10 84h1v1h-1z"/><path fill="#3F3431" d="M11 84h1v1h-1z"/><path fill="#7D746E" d="M12 84h1v1h-1z"/><path fill="#928983" d="M13 84h1v1h-1zM14 84h1v1h-1zM15 84h1v1h-1zM16 84h1v1h-1zM17 84h1v1h-1zM18 84h1v1h-1zM19 84h1v1h-1z"/><path fill="#8F827A" d="M20 84h1v1h-1z"/><path fill="#8D7E76" d="M21 84h1v1h-1z"/><path fill="#8B7A72" d="M22 84h1v1h-1z"/><path fill="#89766D" d="M23 84h1v1h-1z"/><path fill="#887369" d="M24 84h1v1h-1zM25 84h1v1h-1zM26 84h1v1h-1zM27 84h1v1h-1z"/><path fill="#88746B" d="M28 84h1v1h-1z"/><path fill="#8D7E76" d="M29 84h1v1h-1z"/><path fill="#928983" d="M30 84h1v1h-1z"/><path fill="#847B75" d="M31 84h1v1h-1z"/><path fill="#544945" d="M32 84h1v1h-1z"/><path fill="#2A1F1C" d="M33 84h1v1h-1z"/><path fill="#231815" d="M34 84h1v1h-1zM35 84h1v1h-1zM36 84h1v1h-1zM37 84h1v1h-1zM38 84h1v1h-1zM39 84h1v1h-1zM7 85h1v1H7zM8 85h1v1H8zM9 85h1v1H9zM10 85h1v1h-1zM11 85h1v1h-1zM12 85h1v1h-1z"/><path fill="#4D423E" d="M13 85h1v1h-1z"/><path fill="#766D68" d="M14 85h1v1h-1z"/><path fill="#928983" d="M15 85h1v1h-1zM16 85h1v1h-1zM17 85h1v1h-1zM18 85h1v1h-1zM19 85h1v1h-1zM20 85h1v1h-1zM21 85h1v1h-1zM22 85h1v1h-1zM23 85h1v1h-1zM24 85h1v1h-1zM25 85h1v1h-1zM26 85h1v1h-1zM27 85h1v1h-1z"/><path fill="#847B75" d="M28 85h1v1h-1z"/><path fill="#615853" d="M29 85h1v1h-1z"/><path fill="#382D2A" d="M30 85h1v1h-1z"/><path fill="#231815" d="M31 85h1v1h-1zM32 85h1v1h-1zM33 85h1v1h-1zM34 85h1v1h-1zM35 85h1v1h-1zM36 85h1v1h-1zM37 85h1v1h-1zM38 85h1v1h-1zM8 86h1v1H8zM9 86h1v1H9zM10 86h1v1h-1zM11 86h1v1h-1zM12 86h1v1h-1zM13 86h1v1h-1zM14 86h1v1h-1z"/><path fill="#312623" d="M15 86h1v1h-1z"/><path fill="#544945" d="M16 86h1v1h-1z"/><path fill="#685F5A" d="M17 86h1v1h-1z"/><path fill="#766D68" d="M18 86h1v1h-1z"/><path fill="#928983" d="M19 86h1v1h-1zM20 86h1v1h-1zM21 86h1v1h-1zM22 86h1v1h-1z"/><path fill="#847B75" d="M23 86h1v1h-1z"/><path fill="#766D68" d="M24 86h1v1h-1z"/><path fill="#615853" d="M25 86h1v1h-1z"/><path fill="#4D423E" d="M26 86h1v1h-1z"/><path fill="#312623" d="M27 86h1v1h-1z"/><path fill="#231815" d="M28 86h1v1h-1zM29 86h1v1h-1zM30 86h1v1h-1zM31 86h1v1h-1zM32 86h1v1h-1zM33 86h1v1h-1zM34 86h1v1h-1zM35 86h1v1h-1zM36 86h1v1h-1zM10 87h1v1h-1zM11 87h1v1h-1zM12 87h1v1h-1zM13 87h1v1h-1zM14 87h1v1h-1zM15 87h1v1h-1zM16 87h1v1h-1zM17 87h1v1h-1zM18 87h1v1h-1zM19 87h1v1h-1zM20 87h1v1h-1zM21 87h1v1h-1zM22 87h1v1h-1zM23 87h1v1h-1zM24 87h1v1h-1zM25 87h1v1h-1zM26 87h1v1h-1zM27 87h1v1h-1zM28 87h1v1h-1zM29 87h1v1h-1zM30 87h1v1h-1zM31 87h1v1h-1zM32 87h1v1h-1zM33 87h1v1h-1zM12 88h1v1h-1zM13 88h1v1h-1zM14 88h1v1h-1zM15 88h1v1h-1zM16 88h1v1h-1zM17 88h1v1h-1zM18 88h1v1h-1zM19 88h1v1h-1zM20 88h1v1h-1zM21 88h1v1h-1zM22 88h1v1h-1zM23 88h1v1h-1zM24 88h1v1h-1zM25 88h1v1h-1zM26 88h1v1h-1zM27 88h1v1h-1zM28 88h1v1h-1zM29 88h1v1h-1zM30 88h1v1h-1zM31 88h1v1h-1zM14 89h1v1h-1zM15 89h1v1h-1zM16 89h1v1h-1zM17 89h1v1h-1zM18 89h1v1h-1zM19 89h1v1h-1zM20 89h1v1h-1zM21 89h1v1h-1zM22 89h1v1h-1zM23 89h1v1h-1zM24 89h1v1h-1zM25 89h1v1h-1zM26 89h1v1h-1zM27 89h1v1h-1z"/></svg>