<svg baseProfile="full" height="90" width="88" xmlns="http://www.w3.org/2000/svg"><path fill="#231815" d="M14 0h1v1h-1zM15 0h1v1h-1zM16 0h1v1h-1zM17 0h1v1h-1zM18 0h1v1h-1zM8 1h1v1H8zM9 1h1v1H9zM10 1h1v1h-1zM11 1h1v1h-1zM12 1h1v1h-1zM13 1h1v1h-1zM14 1h1v1h-1zM15 1h1v1h-1zM16 1h1v1h-1zM17 1h1v1h-1zM18 1h1v1h-1zM2 2h1v1H2zM3 2h1v1H3zM4 2h1v1H4zM5 2h1v1H5zM6 2h1v1H6zM7 2h1v1H7zM8 2h1v1H8zM9 2h1v1H9zM10 2h1v1h-1zM11 2h1v1h-1zM12 2h1v1h-1zM13 2h1v1h-1zM14 2h1v1h-1zM15 2h1v1h-1zM16 2h1v1h-1zM17 2h1v1h-1zM18 2h1v1h-1zM0 3h1v1H0zM1 3h1v1H1zM2 3h1v1H2zM3 3h1v1H3zM4 3h1v1H4zM5 3h1v1H5zM6 3h1v1H6zM7 3h1v1H7zM8 3h1v1H8zM9 3h1v1H9zM10 3h1v1h-1zM11 3h1v1h-1zM12 3h1v1h-1zM13 3h1v1h-1z"/><path fill="#38221C" d="M14 3h1v1h-1z"/><path fill="#4E2C23" d="M15 3h1v1h-1z"/><path fill="#231815" d="M16 3h1v1h-1zM17 3h1v1h-1zM18 3h1v1h-1zM0 4h1v1H0zM1 4h1v1H1zM2 4h1v1H2zM3 4h1v1H3zM4 4h1v1H4zM5 4h1v1H5zM6 4h1v1H6zM7 4h1v1H7z"/><path fill="#38221C" d="M8 4h1v1H8z"/><path fill="#4E2C23" d="M9 4h1v1H9z"/><path fill="#784030" d="M10 4h1v1h-1z"/><path fill="#8D4A37" d="M11 4h1v1h-1z"/><path fill="#A3543E" d="M12 4h1v1h-1z"/><path fill="#CD684B" d="M13 4h1v1h-1zM14 4h1v1h-1zM15 4h1v1h-1z"/><path fill="#231815" d="M16 4h1v1h-1zM17 4h1v1h-1zM18 4h1v1h-1zM0 5h1v1H0zM1 5h1v1H1zM2 5h1v1H2z"/><path fill="#43271F" d="M3 5h1v1H3z"/><path fill="#6D3B2D" d="M4 5h1v1H4z"/><path fill="#834533" d="M5 5h1v1H5z"/><path fill="#A3543E" d="M6 5h1v1H6z"/><path fill="#C26348" d="M7 5h1v1H7z"/><path fill="#CD684B" d="M8 5h1v1H8zM9 5h1v1H9zM10 5h1v1h-1zM11 5h1v1h-1zM12 5h1v1h-1zM13 5h1v1h-1zM14 5h1v1h-1zM15 5h1v1h-1z"/><path fill="#231815" d="M16 5h1v1h-1zM17 5h1v1h-1zM18 5h1v1h-1zM54 5h1v1h-1zM55 5h1v1h-1zM56 5h1v1h-1zM57 5h1v1h-1zM58 5h1v1h-1zM59 5h1v1h-1zM60 5h1v1h-1zM61 5h1v1h-1zM62 5h1v1h-1zM63 5h1v1h-1zM64 5h1v1h-1zM65 5h1v1h-1zM66 5h1v1h-1zM67 5h1v1h-1zM68 5h1v1h-1zM69 5h1v1h-1zM0 6h1v1H0zM1 6h1v1H1zM2 6h1v1H2z"/><path fill="#A3543E" d="M3 6h1v1H3z"/><path fill="#CD684B" d="M4 6h1v1H4zM5 6h1v1H5zM6 6h1v1H6zM7 6h1v1H7zM8 6h1v1H8zM9 6h1v1H9zM10 6h1v1h-1zM11 6h1v1h-1zM12 6h1v1h-1zM13 6h1v1h-1zM14 6h1v1h-1zM15 6h1v1h-1z"/><path fill="#43271F" d="M16 6h1v1h-1z"/><path fill="#231815" d="M17 6h1v1h-1zM18 6h1v1h-1zM19 6h1v1h-1zM50 6h1v1h-1zM51 6h1v1h-1zM52 6h1v1h-1zM53 6h1v1h-1zM54 6h1v1h-1zM55 6h1v1h-1zM56 6h1v1h-1zM57 6h1v1h-1zM58 6h1v1h-1zM59 6h1v1h-1zM60 6h1v1h-1zM61 6h1v1h-1zM62 6h1v1h-1zM63 6h1v1h-1zM64 6h1v1h-1zM65 6h1v1h-1zM66 6h1v1h-1zM67 6h1v1h-1zM68 6h1v1h-1zM69 6h1v1h-1zM70 6h1v1h-1zM71 6h1v1h-1zM72 6h1v1h-1zM0 7h1v1H0zM1 7h1v1H1zM2 7h1v1H2z"/><path fill="#784030" d="M3 7h1v1H3z"/><path fill="#CD684B" d="M4 7h1v1H4zM5 7h1v1H5zM6 7h1v1H6zM7 7h1v1H7zM8 7h1v1H8zM9 7h1v1H9zM10 7h1v1h-1zM11 7h1v1h-1zM12 7h1v1h-1zM13 7h1v1h-1zM14 7h1v1h-1zM15 7h1v1h-1z"/><path fill="#4E2C23" d="M16 7h1v1h-1z"/><path fill="#231815" d="M17 7h1v1h-1zM18 7h1v1h-1zM19 7h1v1h-1zM48 7h1v1h-1zM49 7h1v1h-1zM50 7h1v1h-1zM51 7h1v1h-1zM52 7h1v1h-1zM53 7h1v1h-1zM54 7h1v1h-1zM55 7h1v1h-1zM56 7h1v1h-1zM57 7h1v1h-1zM58 7h1v1h-1zM59 7h1v1h-1zM60 7h1v1h-1zM61 7h1v1h-1zM62 7h1v1h-1zM63 7h1v1h-1zM64 7h1v1h-1zM65 7h1v1h-1zM66 7h1v1h-1zM67 7h1v1h-1zM68 7h1v1h-1zM69 7h1v1h-1zM70 7h1v1h-1zM71 7h1v1h-1zM72 7h1v1h-1zM73 7h1v1h-1zM0 8h1v1H0zM1 8h1v1H1zM2 8h1v1H2z"/><path fill="#784030" d="M3 8h1v1H3z"/><path fill="#CD684B" d="M4 8h1v1H4zM5 8h1v1H5zM6 8h1v1H6zM7 8h1v1H7zM8 8h1v1H8zM9 8h1v1H9zM10 8h1v1h-1zM11 8h1v1h-1zM12 8h1v1h-1zM13 8h1v1h-1zM14 8h1v1h-1zM15 8h1v1h-1z"/><path fill="#583126" d="M16 8h1v1h-1z"/><path fill="#231815" d="M17 8h1v1h-1zM18 8h1v1h-1zM19 8h1v1h-1zM46 8h1v1h-1zM47 8h1v1h-1zM48 8h1v1h-1zM49 8h1v1h-1zM50 8h1v1h-1zM51 8h1v1h-1zM52 8h1v1h-1zM53 8h1v1h-1zM54 8h1v1h-1z"/><path fill="#492A28" d="M55 8h1v1h-1z"/><path fill="#6F3C3B" d="M56 8h1v1h-1z"/><path fill="#884947" d="M57 8h1v1h-1z"/><path fill="#AE5B5A" d="M58 8h1v1h-1z"/><path fill="#BB6160" d="M59 8h1v1h-1zM60 8h1v1h-1z"/><path fill="#E07373" d="M61 8h1v1h-1z"/><path fill="#ED7979" d="M62 8h1v1h-1z"/><path fill="#E07373" d="M63 8h1v1h-1z"/><path fill="#BB6160" d="M64 8h1v1h-1zM65 8h1v1h-1z"/><path fill="#A15554" d="M66 8h1v1h-1z"/><path fill="#884947" d="M67 8h1v1h-1z"/><path fill="#56302E" d="M68 8h1v1h-1z"/><path fill="#231815" d="M69 8h1v1h-1zM70 8h1v1h-1zM71 8h1v1h-1zM72 8h1v1h-1zM73 8h1v1h-1zM74 8h1v1h-1zM75 8h1v1h-1zM0 9h1v1H0zM1 9h1v1H1zM2 9h1v1H2z"/><path fill="#633629" d="M3 9h1v1H3z"/><path fill="#CD684B" d="M4 9h1v1H4zM5 9h1v1H5zM6 9h1v1H6zM7 9h1v1H7zM8 9h1v1H8zM9 9h1v1H9zM10 9h1v1h-1zM11 9h1v1h-1zM12 9h1v1h-1zM13 9h1v1h-1zM14 9h1v1h-1zM15 9h1v1h-1z"/><path fill="#784030" d="M16 9h1v1h-1z"/><path fill="#231815" d="M17 9h1v1h-1zM18 9h1v1h-1zM19 9h1v1h-1zM45 9h1v1h-1zM46 9h1v1h-1zM47 9h1v1h-1zM48 9h1v1h-1zM49 9h1v1h-1zM50 9h1v1h-1zM51 9h1v1h-1zM52 9h1v1h-1zM53 9h1v1h-1zM54 9h1v1h-1z"/><path fill="#56302E" d="M55 9h1v1h-1z"/><path fill="#E07373" d="M56 9h1v1h-1z"/><path fill="#ED7979" d="M57 9h1v1h-1zM58 9h1v1h-1zM59 9h1v1h-1zM60 9h1v1h-1zM61 9h1v1h-1zM62 9h1v1h-1zM63 9h1v1h-1zM64 9h1v1h-1zM65 9h1v1h-1zM66 9h1v1h-1zM67 9h1v1h-1zM68 9h1v1h-1z"/><path fill="#E07373" d="M69 9h1v1h-1z"/><path fill="#954F4D" d="M70 9h1v1h-1z"/><path fill="#3C2422" d="M71 9h1v1h-1z"/><path fill="#231815" d="M72 9h1v1h-1zM73 9h1v1h-1zM74 9h1v1h-1zM75 9h1v1h-1zM76 9h1v1h-1zM0 10h1v1H0zM1 10h1v1H1zM2 10h1v1H2z"/><path fill="#4E2C23" d="M3 10h1v1H3z"/><path fill="#CD684B" d="M4 10h1v1H4zM5 10h1v1H5zM6 10h1v1H6zM7 10h1v1H7zM8 10h1v1H8zM9 10h1v1H9zM10 10h1v1h-1zM11 10h1v1h-1zM12 10h1v1h-1zM13 10h1v1h-1zM14 10h1v1h-1zM15 10h1v1h-1z"/><path fill="#784030" d="M16 10h1v1h-1z"/><path fill="#231815" d="M17 10h1v1h-1zM18 10h1v1h-1zM19 10h1v1h-1zM44 10h1v1h-1zM45 10h1v1h-1zM46 10h1v1h-1zM47 10h1v1h-1zM48 10h1v1h-1z"/><path fill="#351B18" d="M49 10h1v1h-1z"/><path fill="#461D1B" d="M50 10h1v1h-1z"/><path fill="#3D1C1A" d="M51 10h1v1h-1z"/><path fill="#231815" d="M52 10h1v1h-1zM53 10h1v1h-1zM54 10h1v1h-1zM55 10h1v1h-1z"/><path fill="#301E1B" d="M56 10h1v1h-1z"/><path fill="#C76766" d="M57 10h1v1h-1z"/><path fill="#ED7979" d="M58 10h1v1h-1zM59 10h1v1h-1zM60 10h1v1h-1zM61 10h1v1h-1zM62 10h1v1h-1zM63 10h1v1h-1zM64 10h1v1h-1zM65 10h1v1h-1zM66 10h1v1h-1zM67 10h1v1h-1zM68 10h1v1h-1zM69 10h1v1h-1zM70 10h1v1h-1z"/><path fill="#E07373" d="M71 10h1v1h-1z"/><path fill="#7B4241" d="M72 10h1v1h-1z"/><path fill="#231815" d="M73 10h1v1h-1zM74 10h1v1h-1zM75 10h1v1h-1zM76 10h1v1h-1zM77 10h1v1h-1zM0 11h1v1H0zM1 11h1v1H1zM2 11h1v1H2z"/><path fill="#2E1D18" d="M3 11h1v1H3z"/><path fill="#CD684B" d="M4 11h1v1H4zM5 11h1v1H5zM6 11h1v1H6zM7 11h1v1H7zM8 11h1v1H8zM9 11h1v1H9zM10 11h1v1h-1zM11 11h1v1h-1zM12 11h1v1h-1zM13 11h1v1h-1zM14 11h1v1h-1zM15 11h1v1h-1z"/><path fill="#A3543E" d="M16 11h1v1h-1z"/><path fill="#231815" d="M17 11h1v1h-1zM18 11h1v1h-1zM19 11h1v1h-1zM43 11h1v1h-1zM44 11h1v1h-1zM45 11h1v1h-1zM46 11h1v1h-1z"/><path fill="#2C1917" d="M47 11h1v1h-1z"/><path fill="#722423" d="M48 11h1v1h-1z"/><path fill="#B02D2E" d="M49 11h1v1h-1zM50 11h1v1h-1zM51 11h1v1h-1z"/><path fill="#9E2A2B" d="M52 11h1v1h-1z"/><path fill="#4F1F1D" d="M53 11h1v1h-1z"/><path fill="#231815" d="M54 11h1v1h-1zM55 11h1v1h-1zM56 11h1v1h-1z"/><path fill="#301E1B" d="M57 11h1v1h-1z"/><path fill="#C76766" d="M58 11h1v1h-1z"/><path fill="#ED7979" d="M59 11h1v1h-1zM60 11h1v1h-1zM61 11h1v1h-1zM62 11h1v1h-1zM63 11h1v1h-1zM64 11h1v1h-1zM65 11h1v1h-1zM66 11h1v1h-1zM67 11h1v1h-1zM68 11h1v1h-1zM69 11h1v1h-1zM70 11h1v1h-1zM71 11h1v1h-1zM72 11h1v1h-1z"/><path fill="#A15554" d="M73 11h1v1h-1z"/><path fill="#231815" d="M74 11h1v1h-1zM75 11h1v1h-1zM76 11h1v1h-1zM77 11h1v1h-1zM1 12h1v1H1zM2 12h1v1H2zM3 12h1v1H3z"/><path fill="#CD684B" d="M4 12h1v1H4zM5 12h1v1H5zM6 12h1v1H6zM7 12h1v1H7zM8 12h1v1H8zM9 12h1v1H9zM10 12h1v1h-1zM11 12h1v1h-1zM12 12h1v1h-1zM13 12h1v1h-1zM14 12h1v1h-1zM15 12h1v1h-1z"/><path fill="#A3543E" d="M16 12h1v1h-1z"/><path fill="#231815" d="M17 12h1v1h-1zM18 12h1v1h-1zM19 12h1v1h-1zM42 12h1v1h-1zM43 12h1v1h-1zM44 12h1v1h-1zM45 12h1v1h-1z"/><path fill="#2C1917" d="M46 12h1v1h-1z"/><path fill="#962929" d="M47 12h1v1h-1z"/><path fill="#B02D2E" d="M48 12h1v1h-1zM49 12h1v1h-1zM50 12h1v1h-1zM51 12h1v1h-1zM52 12h1v1h-1zM53 12h1v1h-1z"/><path fill="#7B2525" d="M54 12h1v1h-1z"/><path fill="#231815" d="M55 12h1v1h-1zM56 12h1v1h-1zM57 12h1v1h-1z"/><path fill="#301E1B" d="M58 12h1v1h-1z"/><path fill="#C76766" d="M59 12h1v1h-1z"/><path fill="#ED7979" d="M60 12h1v1h-1zM61 12h1v1h-1zM62 12h1v1h-1zM63 12h1v1h-1zM64 12h1v1h-1zM65 12h1v1h-1zM66 12h1v1h-1zM67 12h1v1h-1zM68 12h1v1h-1zM69 12h1v1h-1zM70 12h1v1h-1zM71 12h1v1h-1zM72 12h1v1h-1zM73 12h1v1h-1z"/><path fill="#954F4D" d="M74 12h1v1h-1z"/><path fill="#231815" d="M75 12h1v1h-1zM76 12h1v1h-1zM77 12h1v1h-1zM78 12h1v1h-1zM1 13h1v1H1zM2 13h1v1H2zM3 13h1v1H3z"/><path fill="#A3543E" d="M4 13h1v1H4z"/><path fill="#CD684B" d="M5 13h1v1H5zM6 13h1v1H6zM7 13h1v1H7zM8 13h1v1H8zM9 13h1v1H9zM10 13h1v1h-1zM11 13h1v1h-1zM12 13h1v1h-1zM13 13h1v1h-1zM14 13h1v1h-1zM15 13h1v1h-1zM16 13h1v1h-1z"/><path fill="#231815" d="M17 13h1v1h-1zM18 13h1v1h-1zM19 13h1v1h-1zM42 13h1v1h-1zM43 13h1v1h-1zM44 13h1v1h-1z"/><path fill="#2C1917" d="M45 13h1v1h-1z"/><path fill="#962929" d="M46 13h1v1h-1z"/><path fill="#B02D2E" d="M47 13h1v1h-1zM48 13h1v1h-1zM49 13h1v1h-1zM50 13h1v1h-1zM51 13h1v1h-1zM52 13h1v1h-1zM53 13h1v1h-1zM54 13h1v1h-1z"/><path fill="#962929" d="M55 13h1v1h-1z"/><path fill="#2C1917" d="M56 13h1v1h-1z"/><path fill="#231815" d="M57 13h1v1h-1zM58 13h1v1h-1z"/><path fill="#492A28" d="M59 13h1v1h-1z"/><path fill="#ED7979" d="M60 13h1v1h-1zM61 13h1v1h-1zM62 13h1v1h-1zM63 13h1v1h-1zM64 13h1v1h-1zM65 13h1v1h-1zM66 13h1v1h-1zM67 13h1v1h-1zM68 13h1v1h-1zM69 13h1v1h-1zM70 13h1v1h-1zM71 13h1v1h-1zM72 13h1v1h-1zM73 13h1v1h-1zM74 13h1v1h-1z"/><path fill="#56302E" d="M75 13h1v1h-1z"/><path fill="#231815" d="M76 13h1v1h-1zM77 13h1v1h-1zM78 13h1v1h-1zM1 14h1v1H1zM2 14h1v1H2zM3 14h1v1H3z"/><path fill="#834533" d="M4 14h1v1H4z"/><path fill="#CD684B" d="M5 14h1v1H5zM6 14h1v1H6zM7 14h1v1H7zM8 14h1v1H8zM9 14h1v1H9zM10 14h1v1h-1zM11 14h1v1h-1zM12 14h1v1h-1zM13 14h1v1h-1zM14 14h1v1h-1zM15 14h1v1h-1zM16 14h1v1h-1z"/><path fill="#231815" d="M17 14h1v1h-1zM18 14h1v1h-1zM19 14h1v1h-1zM20 14h1v1h-1zM41 14h1v1h-1zM42 14h1v1h-1zM43 14h1v1h-1zM44 14h1v1h-1z"/><path fill="#7B2525" d="M45 14h1v1h-1z"/><path fill="#B02D2E" d="M46 14h1v1h-1zM47 14h1v1h-1zM48 14h1v1h-1zM49 14h1v1h-1zM50 14h1v1h-1zM51 14h1v1h-1zM52 14h1v1h-1zM53 14h1v1h-1zM54 14h1v1h-1zM55 14h1v1h-1z"/><path fill="#842626" d="M56 14h1v1h-1z"/><path fill="#231815" d="M57 14h1v1h-1zM58 14h1v1h-1zM59 14h1v1h-1z"/><path fill="#884947" d="M60 14h1v1h-1z"/><path fill="#ED7979" d="M61 14h1v1h-1zM62 14h1v1h-1zM63 14h1v1h-1zM64 14h1v1h-1zM65 14h1v1h-1zM66 14h1v1h-1zM67 14h1v1h-1zM68 14h1v1h-1zM69 14h1v1h-1zM70 14h1v1h-1zM71 14h1v1h-1zM72 14h1v1h-1zM73 14h1v1h-1zM74 14h1v1h-1z"/><path fill="#BB6160" d="M75 14h1v1h-1z"/><path fill="#231815" d="M76 14h1v1h-1zM77 14h1v1h-1zM78 14h1v1h-1zM79 14h1v1h-1zM1 15h1v1H1zM2 15h1v1H2zM3 15h1v1H3z"/><path fill="#633629" d="M4 15h1v1H4z"/><path fill="#CD684B" d="M5 15h1v1H5zM6 15h1v1H6zM7 15h1v1H7zM8 15h1v1H8zM9 15h1v1H9zM10 15h1v1h-1zM11 15h1v1h-1zM12 15h1v1h-1zM13 15h1v1h-1zM14 15h1v1h-1zM15 15h1v1h-1zM16 15h1v1h-1z"/><path fill="#43271F" d="M17 15h1v1h-1z"/><path fill="#231815" d="M18 15h1v1h-1zM19 15h1v1h-1zM20 15h1v1h-1zM40 15h1v1h-1zM41 15h1v1h-1zM42 15h1v1h-1zM43 15h1v1h-1z"/><path fill="#58201E" d="M44 15h1v1h-1z"/><path fill="#B02D2E" d="M45 15h1v1h-1zM46 15h1v1h-1zM47 15h1v1h-1zM48 15h1v1h-1zM49 15h1v1h-1zM50 15h1v1h-1zM51 15h1v1h-1zM52 15h1v1h-1zM53 15h1v1h-1zM54 15h1v1h-1z"/><path fill="#962929" d="M55 15h1v1h-1z"/><path fill="#2C1917" d="M56 15h1v1h-1z"/><path fill="#231815" d="M57 15h1v1h-1zM58 15h1v1h-1zM59 15h1v1h-1z"/><path fill="#301E1B" d="M60 15h1v1h-1z"/><path fill="#ED7979" d="M61 15h1v1h-1zM62 15h1v1h-1zM63 15h1v1h-1zM64 15h1v1h-1zM65 15h1v1h-1zM66 15h1v1h-1z"/><path fill="#E9706F" d="M67 15h1v1h-1zM68 15h1v1h-1zM69 15h1v1h-1zM70 15h1v1h-1zM71 15h1v1h-1z"/><path fill="#EA7272" d="M72 15h1v1h-1z"/><path fill="#ED7979" d="M73 15h1v1h-1zM74 15h1v1h-1zM75 15h1v1h-1z"/><path fill="#492A28" d="M76 15h1v1h-1z"/><path fill="#231815" d="M77 15h1v1h-1zM78 15h1v1h-1zM79 15h1v1h-1zM1 16h1v1H1zM2 16h1v1H2zM3 16h1v1H3z"/><path fill="#38221C" d="M4 16h1v1H4z"/><path fill="#CD684B" d="M5 16h1v1H5zM6 16h1v1H6zM7 16h1v1H7zM8 16h1v1H8zM9 16h1v1H9zM10 16h1v1h-1zM11 16h1v1h-1zM12 16h1v1h-1zM13 16h1v1h-1zM14 16h1v1h-1zM15 16h1v1h-1zM16 16h1v1h-1z"/><path fill="#4E2C23" d="M17 16h1v1h-1z"/><path fill="#231815" d="M18 16h1v1h-1zM19 16h1v1h-1zM20 16h1v1h-1zM40 16h1v1h-1zM41 16h1v1h-1zM42 16h1v1h-1z"/><path fill="#351B18" d="M43 16h1v1h-1z"/><path fill="#A72C2C" d="M44 16h1v1h-1z"/><path fill="#B02D2E" d="M45 16h1v1h-1zM46 16h1v1h-1zM47 16h1v1h-1zM48 16h1v1h-1zM49 16h1v1h-1zM50 16h1v1h-1zM51 16h1v1h-1zM52 16h1v1h-1zM53 16h1v1h-1z"/><path fill="#962929" d="M54 16h1v1h-1z"/><path fill="#2C1917" d="M55 16h1v1h-1z"/><path fill="#231815" d="M56 16h1v1h-1zM57 16h1v1h-1zM58 16h1v1h-1zM59 16h1v1h-1zM60 16h1v1h-1z"/><path fill="#9D4B4A" d="M61 16h1v1h-1z"/><path fill="#E26160" d="M62 16h1v1h-1z"/><path fill="#E05D5B" d="M63 16h1v1h-1z"/><path fill="#DC5554" d="M64 16h1v1h-1z"/><path fill="#DB5351" d="M65 16h1v1h-1zM66 16h1v1h-1zM67 16h1v1h-1zM68 16h1v1h-1zM69 16h1v1h-1zM70 16h1v1h-1zM71 16h1v1h-1zM72 16h1v1h-1zM73 16h1v1h-1zM74 16h1v1h-1zM75 16h1v1h-1z"/><path fill="#8B3937" d="M76 16h1v1h-1z"/><path fill="#231815" d="M77 16h1v1h-1zM78 16h1v1h-1zM79 16h1v1h-1zM2 17h1v1H2zM3 17h1v1H3zM4 17h1v1H4z"/><path fill="#B85E44" d="M5 17h1v1H5z"/><path fill="#CD684B" d="M6 17h1v1H6zM7 17h1v1H7zM8 17h1v1H8zM9 17h1v1H9zM10 17h1v1h-1zM11 17h1v1h-1zM12 17h1v1h-1zM13 17h1v1h-1zM14 17h1v1h-1zM15 17h1v1h-1zM16 17h1v1h-1z"/><path fill="#784030" d="M17 17h1v1h-1z"/><path fill="#231815" d="M18 17h1v1h-1zM19 17h1v1h-1zM20 17h1v1h-1zM39 17h1v1h-1zM40 17h1v1h-1zM41 17h1v1h-1zM42 17h1v1h-1z"/><path fill="#8D2828" d="M43 17h1v1h-1z"/><path fill="#B02D2E" d="M44 17h1v1h-1zM45 17h1v1h-1zM46 17h1v1h-1zM47 17h1v1h-1zM48 17h1v1h-1zM49 17h1v1h-1zM50 17h1v1h-1zM51 17h1v1h-1zM52 17h1v1h-1z"/><path fill="#A72C2C" d="M53 17h1v1h-1z"/><path fill="#351B18" d="M54 17h1v1h-1z"/><path fill="#231815" d="M55 17h1v1h-1zM56 17h1v1h-1zM57 17h1v1h-1zM58 17h1v1h-1zM59 17h1v1h-1zM60 17h1v1h-1z"/><path fill="#682E2C" d="M61 17h1v1h-1z"/><path fill="#DB5351" d="M62 17h1v1h-1zM63 17h1v1h-1zM64 17h1v1h-1zM65 17h1v1h-1zM66 17h1v1h-1zM67 17h1v1h-1zM68 17h1v1h-1zM69 17h1v1h-1zM70 17h1v1h-1zM71 17h1v1h-1zM72 17h1v1h-1zM73 17h1v1h-1zM74 17h1v1h-1zM75 17h1v1h-1z"/><path fill="#AD4442" d="M76 17h1v1h-1z"/><path fill="#231815" d="M77 17h1v1h-1zM78 17h1v1h-1zM79 17h1v1h-1zM2 18h1v1H2zM3 18h1v1H3zM4 18h1v1H4z"/><path fill="#8D4A37" d="M5 18h1v1H5z"/><path fill="#CD684B" d="M6 18h1v1H6zM7 18h1v1H7zM8 18h1v1H8zM9 18h1v1H9zM10 18h1v1h-1zM11 18h1v1h-1zM12 18h1v1h-1z"/><path fill="#D4714C" d="M13 18h1v1h-1z"/><path fill="#E0814E" d="M14 18h1v1h-1z"/><path fill="#E78A4E" d="M15 18h1v1h-1z"/><path fill="#EA8E4F" d="M16 18h1v1h-1z"/><path fill="#865332" d="M17 18h1v1h-1z"/><path fill="#231815" d="M18 18h1v1h-1zM19 18h1v1h-1zM20 18h1v1h-1zM38 18h1v1h-1zM39 18h1v1h-1zM40 18h1v1h-1zM41 18h1v1h-1z"/><path fill="#58201E" d="M42 18h1v1h-1z"/><path fill="#B02D2E" d="M43 18h1v1h-1zM44 18h1v1h-1zM45 18h1v1h-1zM46 18h1v1h-1zM47 18h1v1h-1zM48 18h1v1h-1zM49 18h1v1h-1zM50 18h1v1h-1zM51 18h1v1h-1zM52 18h1v1h-1z"/><path fill="#612120" d="M53 18h1v1h-1z"/><path fill="#231815" d="M54 18h1v1h-1zM55 18h1v1h-1zM56 18h1v1h-1zM57 18h1v1h-1zM58 18h1v1h-1zM59 18h1v1h-1zM60 18h1v1h-1z"/><path fill="#512724" d="M61 18h1v1h-1z"/><path fill="#DB5351" d="M62 18h1v1h-1zM63 18h1v1h-1zM64 18h1v1h-1zM65 18h1v1h-1zM66 18h1v1h-1zM67 18h1v1h-1zM68 18h1v1h-1zM69 18h1v1h-1zM70 18h1v1h-1zM71 18h1v1h-1zM72 18h1v1h-1zM73 18h1v1h-1zM74 18h1v1h-1zM75 18h1v1h-1zM76 18h1v1h-1z"/><path fill="#231815" d="M77 18h1v1h-1zM78 18h1v1h-1zM79 18h1v1h-1zM2 19h1v1H2zM3 19h1v1H3zM4 19h1v1H4z"/><path fill="#633629" d="M5 19h1v1H5z"/><path fill="#CD684B" d="M6 19h1v1H6zM7 19h1v1H7zM8 19h1v1H8zM9 19h1v1H9zM10 19h1v1h-1z"/><path fill="#D7754C" d="M11 19h1v1h-1z"/><path fill="#EA8E4F" d="M12 19h1v1h-1z"/><path fill="#F39A50" d="M13 19h1v1h-1zM14 19h1v1h-1zM15 19h1v1h-1zM16 19h1v1h-1z"/><path fill="#BF7A41" d="M17 19h1v1h-1z"/><path fill="#231815" d="M18 19h1v1h-1zM19 19h1v1h-1zM20 19h1v1h-1zM38 19h1v1h-1zM39 19h1v1h-1zM40 19h1v1h-1z"/><path fill="#2C1917" d="M41 19h1v1h-1z"/><path fill="#A72C2C" d="M42 19h1v1h-1z"/><path fill="#B02D2E" d="M43 19h1v1h-1zM44 19h1v1h-1zM45 19h1v1h-1zM46 19h1v1h-1zM47 19h1v1h-1zM48 19h1v1h-1zM49 19h1v1h-1zM50 19h1v1h-1zM51 19h1v1h-1z"/><path fill="#8D2828" d="M52 19h1v1h-1z"/><path fill="#231815" d="M53 19h1v1h-1zM54 19h1v1h-1zM55 19h1v1h-1zM56 19h1v1h-1zM58 19h1v1h-1zM59 19h1v1h-1zM60 19h1v1h-1z"/><path fill="#2F1C19" d="M61 19h1v1h-1z"/><path fill="#DB5351" d="M62 19h1v1h-1zM63 19h1v1h-1zM64 19h1v1h-1zM65 19h1v1h-1zM66 19h1v1h-1zM67 19h1v1h-1zM68 19h1v1h-1zM69 19h1v1h-1zM70 19h1v1h-1zM71 19h1v1h-1zM72 19h1v1h-1zM73 19h1v1h-1zM74 19h1v1h-1zM75 19h1v1h-1zM76 19h1v1h-1z"/><path fill="#2F1C19" d="M77 19h1v1h-1z"/><path fill="#231815" d="M78 19h1v1h-1zM79 19h1v1h-1zM80 19h1v1h-1zM2 20h1v1H2zM3 20h1v1H3zM4 20h1v1H4z"/><path fill="#2E1D18" d="M5 20h1v1H5z"/><path fill="#CD684B" d="M6 20h1v1H6zM7 20h1v1H7zM8 20h1v1H8z"/><path fill="#D26E4C" d="M9 20h1v1H9z"/><path fill="#EA8E4F" d="M10 20h1v1h-1z"/><path fill="#F39A50" d="M11 20h1v1h-1zM12 20h1v1h-1zM13 20h1v1h-1zM14 20h1v1h-1zM15 20h1v1h-1zM16 20h1v1h-1z"/><path fill="#CC8245" d="M17 20h1v1h-1z"/><path fill="#231815" d="M18 20h1v1h-1zM19 20h1v1h-1zM20 20h1v1h-1zM37 20h1v1h-1zM38 20h1v1h-1zM39 20h1v1h-1zM40 20h1v1h-1z"/><path fill="#722423" d="M41 20h1v1h-1z"/><path fill="#B02D2E" d="M42 20h1v1h-1zM43 20h1v1h-1zM44 20h1v1h-1zM45 20h1v1h-1zM46 20h1v1h-1zM47 20h1v1h-1zM48 20h1v1h-1zM49 20h1v1h-1zM50 20h1v1h-1zM51 20h1v1h-1z"/><path fill="#461D1B" d="M52 20h1v1h-1z"/><path fill="#231815" d="M53 20h1v1h-1zM54 20h1v1h-1zM55 20h1v1h-1zM59 20h1v1h-1zM60 20h1v1h-1zM61 20h1v1h-1z"/><path fill="#DB5351" d="M62 20h1v1h-1zM63 20h1v1h-1zM64 20h1v1h-1zM65 20h1v1h-1zM66 20h1v1h-1zM67 20h1v1h-1zM68 20h1v1h-1zM69 20h1v1h-1zM70 20h1v1h-1zM71 20h1v1h-1zM72 20h1v1h-1zM73 20h1v1h-1zM74 20h1v1h-1zM75 20h1v1h-1zM76 20h1v1h-1z"/><path fill="#512724" d="M77 20h1v1h-1z"/><path fill="#231815" d="M78 20h1v1h-1zM79 20h1v1h-1zM80 20h1v1h-1zM3 21h1v1H3zM4 21h1v1H4zM5 21h1v1H5z"/><path fill="#984F3A" d="M6 21h1v1H6z"/><path fill="#CD684B" d="M7 21h1v1H7z"/><path fill="#DE7E4D" d="M8 21h1v1H8z"/><path fill="#F19750" d="M9 21h1v1H9z"/><path fill="#F39A50" d="M10 21h1v1h-1zM11 21h1v1h-1zM12 21h1v1h-1zM13 21h1v1h-1zM14 21h1v1h-1zM15 21h1v1h-1zM16 21h1v1h-1zM17 21h1v1h-1z"/><path fill="#302019" d="M18 21h1v1h-1z"/><path fill="#231815" d="M19 21h1v1h-1zM20 21h1v1h-1zM21 21h1v1h-1zM37 21h1v1h-1zM38 21h1v1h-1zM39 21h1v1h-1z"/><path fill="#351B18" d="M40 21h1v1h-1z"/><path fill="#B02D2E" d="M41 21h1v1h-1zM42 21h1v1h-1zM43 21h1v1h-1zM44 21h1v1h-1zM45 21h1v1h-1zM46 21h1v1h-1zM47 21h1v1h-1zM48 21h1v1h-1zM49 21h1v1h-1zM50 21h1v1h-1z"/><path fill="#7B2525" d="M51 21h1v1h-1z"/><path fill="#231815" d="M52 21h1v1h-1zM53 21h1v1h-1zM54 21h1v1h-1zM55 21h1v1h-1zM58 21h1v1h-1zM59 21h1v1h-1zM60 21h1v1h-1z"/><path fill="#462320" d="M61 21h1v1h-1z"/><path fill="#DB5351" d="M62 21h1v1h-1zM63 21h1v1h-1zM64 21h1v1h-1zM65 21h1v1h-1zM66 21h1v1h-1zM67 21h1v1h-1zM68 21h1v1h-1zM69 21h1v1h-1zM70 21h1v1h-1zM71 21h1v1h-1zM72 21h1v1h-1zM73 21h1v1h-1zM74 21h1v1h-1zM75 21h1v1h-1zM76 21h1v1h-1z"/><path fill="#512724" d="M77 21h1v1h-1z"/><path fill="#231815" d="M78 21h1v1h-1zM79 21h1v1h-1zM80 21h1v1h-1zM3 22h1v1H3zM4 22h1v1H4zM5 22h1v1H5z"/><path fill="#65392A" d="M6 22h1v1H6z"/><path fill="#EA8E4F" d="M7 22h1v1H7z"/><path fill="#F39A50" d="M8 22h1v1H8zM9 22h1v1H9zM10 22h1v1h-1zM11 22h1v1h-1zM12 22h1v1h-1zM13 22h1v1h-1zM14 22h1v1h-1zM15 22h1v1h-1zM16 22h1v1h-1zM17 22h1v1h-1z"/><path fill="#644127" d="M18 22h1v1h-1z"/><path fill="#231815" d="M19 22h1v1h-1zM20 22h1v1h-1zM21 22h1v1h-1zM36 22h1v1h-1zM37 22h1v1h-1zM38 22h1v1h-1zM39 22h1v1h-1z"/><path fill="#8D2828" d="M40 22h1v1h-1z"/><path fill="#B02D2E" d="M41 22h1v1h-1zM42 22h1v1h-1zM43 22h1v1h-1zM44 22h1v1h-1zM45 22h1v1h-1zM46 22h1v1h-1zM47 22h1v1h-1zM48 22h1v1h-1zM49 22h1v1h-1z"/><path fill="#A72C2C" d="M50 22h1v1h-1z"/><path fill="#351B18" d="M51 22h1v1h-1z"/><path fill="#231815" d="M52 22h1v1h-1zM53 22h1v1h-1zM54 22h1v1h-1zM58 22h1v1h-1zM59 22h1v1h-1zM60 22h1v1h-1z"/><path fill="#512724" d="M61 22h1v1h-1z"/><path fill="#DB5351" d="M62 22h1v1h-1zM63 22h1v1h-1zM64 22h1v1h-1zM65 22h1v1h-1zM66 22h1v1h-1zM67 22h1v1h-1zM68 22h1v1h-1zM69 22h1v1h-1zM70 22h1v1h-1zM71 22h1v1h-1zM72 22h1v1h-1zM73 22h1v1h-1zM74 22h1v1h-1zM75 22h1v1h-1zM76 22h1v1h-1z"/><path fill="#512724" d="M77 22h1v1h-1z"/><path fill="#231815" d="M78 22h1v1h-1zM79 22h1v1h-1zM80 22h1v1h-1zM3 23h1v1H3zM4 23h1v1H4zM5 23h1v1H5zM6 23h1v1H6z"/><path fill="#E6924C" d="M7 23h1v1H7z"/><path fill="#F39A50" d="M8 23h1v1H8zM9 23h1v1H9zM10 23h1v1h-1zM11 23h1v1h-1zM12 23h1v1h-1zM13 23h1v1h-1zM14 23h1v1h-1zM15 23h1v1h-1zM16 23h1v1h-1zM17 23h1v1h-1z"/><path fill="#A5693A" d="M18 23h1v1h-1z"/><path fill="#231815" d="M19 23h1v1h-1zM20 23h1v1h-1zM21 23h1v1h-1zM36 23h1v1h-1zM37 23h1v1h-1zM38 23h1v1h-1z"/><path fill="#461D1B" d="M39 23h1v1h-1z"/><path fill="#B02D2E" d="M40 23h1v1h-1zM41 23h1v1h-1zM42 23h1v1h-1zM43 23h1v1h-1zM44 23h1v1h-1zM45 23h1v1h-1zM46 23h1v1h-1zM47 23h1v1h-1zM48 23h1v1h-1zM49 23h1v1h-1z"/><path fill="#6A2322" d="M50 23h1v1h-1z"/><path fill="#231815" d="M51 23h1v1h-1zM52 23h1v1h-1zM53 23h1v1h-1zM54 23h1v1h-1zM58 23h1v1h-1zM59 23h1v1h-1zM60 23h1v1h-1z"/><path fill="#74322F" d="M61 23h1v1h-1z"/><path fill="#DB5351" d="M62 23h1v1h-1zM63 23h1v1h-1zM64 23h1v1h-1zM65 23h1v1h-1zM66 23h1v1h-1zM67 23h1v1h-1zM68 23h1v1h-1zM69 23h1v1h-1zM70 23h1v1h-1zM71 23h1v1h-1zM72 23h1v1h-1zM73 23h1v1h-1zM74 23h1v1h-1zM75 23h1v1h-1zM76 23h1v1h-1z"/><path fill="#512724" d="M77 23h1v1h-1z"/><path fill="#231815" d="M78 23h1v1h-1zM79 23h1v1h-1zM80 23h1v1h-1zM4 24h1v1H4zM5 24h1v1H5zM6 24h1v1H6z"/><path fill="#8B5933" d="M7 24h1v1H7z"/><path fill="#F39A50" d="M8 24h1v1H8zM9 24h1v1H9zM10 24h1v1h-1zM11 24h1v1h-1zM12 24h1v1h-1zM13 24h1v1h-1zM14 24h1v1h-1zM15 24h1v1h-1zM16 24h1v1h-1zM17 24h1v1h-1z"/><path fill="#E6924C" d="M18 24h1v1h-1z"/><path fill="#302019" d="M19 24h1v1h-1z"/><path fill="#231815" d="M20 24h1v1h-1zM21 24h1v1h-1zM22 24h1v1h-1zM35 24h1v1h-1zM36 24h1v1h-1zM37 24h1v1h-1zM38 24h1v1h-1z"/><path fill="#9E2A2B" d="M39 24h1v1h-1z"/><path fill="#B02D2E" d="M40 24h1v1h-1zM41 24h1v1h-1zM42 24h1v1h-1zM43 24h1v1h-1zM44 24h1v1h-1zM45 24h1v1h-1zM46 24h1v1h-1zM47 24h1v1h-1zM48 24h1v1h-1z"/><path fill="#9E2A2B" d="M49 24h1v1h-1z"/><path fill="#231815" d="M50 24h1v1h-1zM51 24h1v1h-1zM52 24h1v1h-1zM53 24h1v1h-1zM58 24h1v1h-1zM59 24h1v1h-1zM60 24h1v1h-1z"/><path fill="#A2413E" d="M61 24h1v1h-1z"/><path fill="#DB5351" d="M62 24h1v1h-1zM63 24h1v1h-1zM64 24h1v1h-1zM65 24h1v1h-1zM66 24h1v1h-1zM67 24h1v1h-1zM68 24h1v1h-1zM69 24h1v1h-1zM70 24h1v1h-1zM71 24h1v1h-1zM72 24h1v1h-1zM73 24h1v1h-1zM74 24h1v1h-1zM75 24h1v1h-1zM76 24h1v1h-1z"/><path fill="#512724" d="M77 24h1v1h-1z"/><path fill="#231815" d="M78 24h1v1h-1zM79 24h1v1h-1zM80 24h1v1h-1zM4 25h1v1H4zM5 25h1v1H5zM6 25h1v1H6z"/><path fill="#3D281C" d="M7 25h1v1H7z"/><path fill="#F39A50" d="M8 25h1v1H8zM9 25h1v1H9zM10 25h1v1h-1zM11 25h1v1h-1zM12 25h1v1h-1zM13 25h1v1h-1zM14 25h1v1h-1zM15 25h1v1h-1zM16 25h1v1h-1zM17 25h1v1h-1zM18 25h1v1h-1z"/><path fill="#71492B" d="M19 25h1v1h-1z"/><path fill="#231815" d="M20 25h1v1h-1zM21 25h1v1h-1zM22 25h1v1h-1zM34 25h1v1h-1zM35 25h1v1h-1zM36 25h1v1h-1zM37 25h1v1h-1z"/><path fill="#612120" d="M38 25h1v1h-1z"/><path fill="#B02D2E" d="M39 25h1v1h-1zM40 25h1v1h-1zM41 25h1v1h-1zM42 25h1v1h-1zM43 25h1v1h-1zM44 25h1v1h-1zM45 25h1v1h-1zM46 25h1v1h-1zM47 25h1v1h-1zM48 25h1v1h-1z"/><path fill="#461D1B" d="M49 25h1v1h-1z"/><path fill="#231815" d="M50 25h1v1h-1zM51 25h1v1h-1zM52 25h1v1h-1zM57 25h1v1h-1zM58 25h1v1h-1zM59 25h1v1h-1zM60 25h1v1h-1z"/><path fill="#D04F4D" d="M61 25h1v1h-1z"/><path fill="#DB5351" d="M62 25h1v1h-1zM63 25h1v1h-1zM64 25h1v1h-1zM65 25h1v1h-1zM66 25h1v1h-1zM67 25h1v1h-1zM68 25h1v1h-1zM69 25h1v1h-1zM70 25h1v1h-1zM71 25h1v1h-1zM72 25h1v1h-1zM73 25h1v1h-1zM74 25h1v1h-1zM75 25h1v1h-1zM76 25h1v1h-1z"/><path fill="#231815" d="M77 25h1v1h-1zM78 25h1v1h-1zM79 25h1v1h-1zM80 25h1v1h-1zM4 26h1v1H4zM5 26h1v1H5zM6 26h1v1H6zM7 26h1v1H7z"/><path fill="#986136" d="M8 26h1v1H8z"/><path fill="#F39A50" d="M9 26h1v1H9zM10 26h1v1h-1zM11 26h1v1h-1zM12 26h1v1h-1zM13 26h1v1h-1zM14 26h1v1h-1zM15 26h1v1h-1zM16 26h1v1h-1zM17 26h1v1h-1zM18 26h1v1h-1z"/><path fill="#D98A49" d="M19 26h1v1h-1z"/><path fill="#302019" d="M20 26h1v1h-1z"/><path fill="#231815" d="M21 26h1v1h-1zM22 26h1v1h-1zM23 26h1v1h-1zM34 26h1v1h-1zM35 26h1v1h-1zM36 26h1v1h-1z"/><path fill="#2C1917" d="M37 26h1v1h-1z"/><path fill="#A72C2C" d="M38 26h1v1h-1z"/><path fill="#B02D2E" d="M39 26h1v1h-1zM40 26h1v1h-1zM41 26h1v1h-1zM42 26h1v1h-1zM43 26h1v1h-1zM44 26h1v1h-1zM45 26h1v1h-1zM46 26h1v1h-1zM47 26h1v1h-1z"/><path fill="#722423" d="M48 26h1v1h-1z"/><path fill="#231815" d="M49 26h1v1h-1zM50 26h1v1h-1zM51 26h1v1h-1zM52 26h1v1h-1zM57 26h1v1h-1zM58 26h1v1h-1zM59 26h1v1h-1z"/><path fill="#682E2C" d="M60 26h1v1h-1z"/><path fill="#DB5351" d="M61 26h1v1h-1zM62 26h1v1h-1zM63 26h1v1h-1zM64 26h1v1h-1zM65 26h1v1h-1zM66 26h1v1h-1zM67 26h1v1h-1zM68 26h1v1h-1zM69 26h1v1h-1zM70 26h1v1h-1zM71 26h1v1h-1zM72 26h1v1h-1zM73 26h1v1h-1zM74 26h1v1h-1zM75 26h1v1h-1zM76 26h1v1h-1z"/><path fill="#231815" d="M77 26h1v1h-1zM78 26h1v1h-1zM79 26h1v1h-1zM5 27h1v1H5zM6 27h1v1H6zM7 27h1v1H7z"/><path fill="#302019" d="M8 27h1v1H8z"/><path fill="#E6924C" d="M9 27h1v1H9z"/><path fill="#F39A50" d="M10 27h1v1h-1zM11 27h1v1h-1zM12 27h1v1h-1zM13 27h1v1h-1zM14 27h1v1h-1zM15 27h1v1h-1zM16 27h1v1h-1zM17 27h1v1h-1zM18 27h1v1h-1zM19 27h1v1h-1z"/><path fill="#8B5933" d="M20 27h1v1h-1z"/><path fill="#231815" d="M21 27h1v1h-1zM22 27h1v1h-1zM23 27h1v1h-1zM24 27h1v1h-1zM33 27h1v1h-1zM34 27h1v1h-1zM35 27h1v1h-1zM36 27h1v1h-1z"/><path fill="#842626" d="M37 27h1v1h-1z"/><path fill="#B02D2E" d="M38 27h1v1h-1zM39 27h1v1h-1zM40 27h1v1h-1zM41 27h1v1h-1zM42 27h1v1h-1zM43 27h1v1h-1zM44 27h1v1h-1zM45 27h1v1h-1zM46 27h1v1h-1z"/><path fill="#9E2A2B" d="M47 27h1v1h-1z"/><path fill="#2C1917" d="M48 27h1v1h-1z"/><path fill="#231815" d="M49 27h1v1h-1zM50 27h1v1h-1zM51 27h1v1h-1zM56 27h1v1h-1zM57 27h1v1h-1zM58 27h1v1h-1zM59 27h1v1h-1z"/><path fill="#AD4442" d="M60 27h1v1h-1z"/><path fill="#DB5351" d="M61 27h1v1h-1zM62 27h1v1h-1zM63 27h1v1h-1zM64 27h1v1h-1zM65 27h1v1h-1zM66 27h1v1h-1zM67 27h1v1h-1zM68 27h1v1h-1zM69 27h1v1h-1zM70 27h1v1h-1zM71 27h1v1h-1zM72 27h1v1h-1zM73 27h1v1h-1zM74 27h1v1h-1zM75 27h1v1h-1z"/><path fill="#AD4442" d="M76 27h1v1h-1z"/><path fill="#231815" d="M77 27h1v1h-1zM78 27h1v1h-1zM79 27h1v1h-1zM5 28h1v1H5zM6 28h1v1H6zM7 28h1v1H7zM8 28h1v1H8z"/><path fill="#7E512F" d="M9 28h1v1H9z"/><path fill="#F39A50" d="M10 28h1v1h-1zM11 28h1v1h-1zM12 28h1v1h-1zM13 28h1v1h-1zM14 28h1v1h-1zM15 28h1v1h-1zM16 28h1v1h-1zM17 28h1v1h-1zM18 28h1v1h-1zM19 28h1v1h-1zM20 28h1v1h-1z"/><path fill="#4A3020" d="M21 28h1v1h-1z"/><path fill="#231815" d="M22 28h1v1h-1zM23 28h1v1h-1zM24 28h1v1h-1zM25 28h1v1h-1zM32 28h1v1h-1zM33 28h1v1h-1zM34 28h1v1h-1zM35 28h1v1h-1z"/><path fill="#461D1B" d="M36 28h1v1h-1z"/><path fill="#B02D2E" d="M37 28h1v1h-1zM38 28h1v1h-1zM39 28h1v1h-1zM40 28h1v1h-1zM41 28h1v1h-1zM42 28h1v1h-1zM43 28h1v1h-1zM44 28h1v1h-1zM45 28h1v1h-1z"/><path fill="#A72C2C" d="M46 28h1v1h-1z"/><path fill="#3D1C1A" d="M47 28h1v1h-1z"/><path fill="#231815" d="M48 28h1v1h-1zM49 28h1v1h-1zM50 28h1v1h-1zM51 28h1v1h-1zM56 28h1v1h-1zM57 28h1v1h-1zM58 28h1v1h-1z"/><path fill="#512724" d="M59 28h1v1h-1z"/><path fill="#DB5351" d="M60 28h1v1h-1zM61 28h1v1h-1zM62 28h1v1h-1zM63 28h1v1h-1zM64 28h1v1h-1zM65 28h1v1h-1zM66 28h1v1h-1zM67 28h1v1h-1zM68 28h1v1h-1zM69 28h1v1h-1zM70 28h1v1h-1zM71 28h1v1h-1zM72 28h1v1h-1zM73 28h1v1h-1zM74 28h1v1h-1zM75 28h1v1h-1z"/><path fill="#963D3B" d="M76 28h1v1h-1z"/><path fill="#231815" d="M77 28h1v1h-1zM78 28h1v1h-1zM79 28h1v1h-1zM6 29h1v1H6zM7 29h1v1H7zM8 29h1v1H8zM9 29h1v1H9z"/><path fill="#BF7A41" d="M10 29h1v1h-1z"/><path fill="#F39A50" d="M11 29h1v1h-1zM12 29h1v1h-1zM13 29h1v1h-1zM14 29h1v1h-1zM15 29h1v1h-1zM16 29h1v1h-1zM17 29h1v1h-1zM18 29h1v1h-1zM19 29h1v1h-1zM20 29h1v1h-1z"/><path fill="#CC8245" d="M21 29h1v1h-1z"/><path fill="#302019" d="M22 29h1v1h-1z"/><path fill="#231815" d="M23 29h1v1h-1zM24 29h1v1h-1zM25 29h1v1h-1zM26 29h1v1h-1zM32 29h1v1h-1zM33 29h1v1h-1zM34 29h1v1h-1z"/><path fill="#2C1917" d="M35 29h1v1h-1z"/><path fill="#9E2A2B" d="M36 29h1v1h-1z"/><path fill="#B02D2E" d="M37 29h1v1h-1zM38 29h1v1h-1zM39 29h1v1h-1zM40 29h1v1h-1zM41 29h1v1h-1zM42 29h1v1h-1zM43 29h1v1h-1zM44 29h1v1h-1zM45 29h1v1h-1z"/><path fill="#58201E" d="M46 29h1v1h-1z"/><path fill="#231815" d="M47 29h1v1h-1zM48 29h1v1h-1zM49 29h1v1h-1zM50 29h1v1h-1zM55 29h1v1h-1zM56 29h1v1h-1zM57 29h1v1h-1zM58 29h1v1h-1z"/><path fill="#AD4442" d="M59 29h1v1h-1z"/><path fill="#DB5351" d="M60 29h1v1h-1zM61 29h1v1h-1zM62 29h1v1h-1zM63 29h1v1h-1zM64 29h1v1h-1zM65 29h1v1h-1zM66 29h1v1h-1zM67 29h1v1h-1zM68 29h1v1h-1zM69 29h1v1h-1zM70 29h1v1h-1zM71 29h1v1h-1zM72 29h1v1h-1zM73 29h1v1h-1zM74 29h1v1h-1zM75 29h1v1h-1z"/><path fill="#74322F" d="M76 29h1v1h-1z"/><path fill="#231815" d="M77 29h1v1h-1zM78 29h1v1h-1zM79 29h1v1h-1zM7 30h1v1H7zM8 30h1v1H8zM9 30h1v1H9z"/><path fill="#302019" d="M10 30h1v1h-1z"/><path fill="#D98A49" d="M11 30h1v1h-1z"/><path fill="#F39A50" d="M12 30h1v1h-1zM13 30h1v1h-1zM14 30h1v1h-1zM15 30h1v1h-1zM16 30h1v1h-1zM17 30h1v1h-1zM18 30h1v1h-1z"/><path fill="#F39F52" d="M19 30h1v1h-1z"/><path fill="#F2AF59" d="M20 30h1v1h-1zM21 30h1v1h-1z"/><path fill="#BE8E4A" d="M22 30h1v1h-1z"/><path fill="#231815" d="M23 30h1v1h-1zM24 30h1v1h-1zM25 30h1v1h-1zM26 30h1v1h-1zM27 30h1v1h-1zM31 30h1v1h-1zM32 30h1v1h-1zM33 30h1v1h-1zM34 30h1v1h-1z"/><path fill="#842626" d="M35 30h1v1h-1z"/><path fill="#B02D2E" d="M36 30h1v1h-1zM37 30h1v1h-1zM38 30h1v1h-1zM39 30h1v1h-1zM40 30h1v1h-1zM41 30h1v1h-1zM42 30h1v1h-1zM43 30h1v1h-1zM44 30h1v1h-1z"/><path fill="#6A2322" d="M45 30h1v1h-1z"/><path fill="#231815" d="M46 30h1v1h-1zM47 30h1v1h-1zM48 30h1v1h-1zM49 30h1v1h-1zM54 30h1v1h-1zM55 30h1v1h-1zM56 30h1v1h-1zM57 30h1v1h-1z"/><path fill="#572623" d="M58 30h1v1h-1z"/><path fill="#DB5351" d="M59 30h1v1h-1zM60 30h1v1h-1zM61 30h1v1h-1zM62 30h1v1h-1zM63 30h1v1h-1zM64 30h1v1h-1zM65 30h1v1h-1zM66 30h1v1h-1zM67 30h1v1h-1zM68 30h1v1h-1zM69 30h1v1h-1zM70 30h1v1h-1zM71 30h1v1h-1zM72 30h1v1h-1zM73 30h1v1h-1zM74 30h1v1h-1zM75 30h1v1h-1z"/><path fill="#3A1F1D" d="M76 30h1v1h-1z"/><path fill="#231815" d="M77 30h1v1h-1zM78 30h1v1h-1zM79 30h1v1h-1zM7 31h1v1H7zM8 31h1v1H8zM9 31h1v1H9zM10 31h1v1h-1z"/><path fill="#4A3020" d="M11 31h1v1h-1z"/><path fill="#E6924C" d="M12 31h1v1h-1z"/><path fill="#F39A50" d="M13 31h1v1h-1zM14 31h1v1h-1zM15 31h1v1h-1z"/><path fill="#F2AF59" d="M16 31h1v1h-1z"/><path fill="#EFCD65" d="M17 31h1v1h-1z"/><path fill="#EDE770" d="M18 31h1v1h-1z"/><path fill="#EDEC72" d="M19 31h1v1h-1zM20 31h1v1h-1zM21 31h1v1h-1zM22 31h1v1h-1z"/><path fill="#A19D4F" d="M23 31h1v1h-1z"/><path fill="#30251B" d="M24 31h1v1h-1z"/><path fill="#231815" d="M25 31h1v1h-1zM26 31h1v1h-1zM27 31h1v1h-1zM28 31h1v1h-1zM29 31h1v1h-1zM30 31h1v1h-1zM31 31h1v1h-1zM32 31h1v1h-1zM33 31h1v1h-1z"/><path fill="#58201E" d="M34 31h1v1h-1z"/><path fill="#B02D2E" d="M35 31h1v1h-1zM36 31h1v1h-1zM37 31h1v1h-1zM38 31h1v1h-1zM39 31h1v1h-1zM40 31h1v1h-1zM41 31h1v1h-1zM42 31h1v1h-1zM43 31h1v1h-1z"/><path fill="#7B2525" d="M44 31h1v1h-1z"/><path fill="#231815" d="M45 31h1v1h-1zM46 31h1v1h-1zM47 31h1v1h-1zM48 31h1v1h-1zM53 31h1v1h-1zM54 31h1v1h-1zM55 31h1v1h-1zM56 31h1v1h-1z"/><path fill="#2C1917" d="M57 31h1v1h-1z"/><path fill="#A72C2C" d="M58 31h1v1h-1z"/><path fill="#B02D2E" d="M59 31h1v1h-1z"/><path fill="#BB3737" d="M60 31h1v1h-1z"/><path fill="#C64040" d="M61 31h1v1h-1z"/><path fill="#CE4746" d="M62 31h1v1h-1z"/><path fill="#D8514F" d="M63 31h1v1h-1z"/><path fill="#DB5351" d="M64 31h1v1h-1zM65 31h1v1h-1zM66 31h1v1h-1zM67 31h1v1h-1zM68 31h1v1h-1zM69 31h1v1h-1zM70 31h1v1h-1zM71 31h1v1h-1zM72 31h1v1h-1zM73 31h1v1h-1zM74 31h1v1h-1z"/><path fill="#C44C4A" d="M75 31h1v1h-1z"/><path fill="#231815" d="M76 31h1v1h-1zM77 31h1v1h-1zM78 31h1v1h-1zM79 31h1v1h-1zM8 32h1v1H8zM9 32h1v1H9zM10 32h1v1h-1zM11 32h1v1h-1z"/><path fill="#4A3020" d="M12 32h1v1h-1z"/><path fill="#E6924C" d="M13 32h1v1h-1z"/><path fill="#F2A956" d="M14 32h1v1h-1z"/><path fill="#EFD86A" d="M15 32h1v1h-1z"/><path fill="#EDEC72" d="M16 32h1v1h-1zM17 32h1v1h-1zM18 32h1v1h-1zM19 32h1v1h-1zM20 32h1v1h-1zM21 32h1v1h-1zM22 32h1v1h-1zM23 32h1v1h-1z"/><path fill="#C7C461" d="M24 32h1v1h-1z"/><path fill="#30251B" d="M25 32h1v1h-1z"/><path fill="#231815" d="M26 32h1v1h-1zM27 32h1v1h-1zM28 32h1v1h-1zM29 32h1v1h-1zM30 32h1v1h-1zM31 32h1v1h-1zM32 32h1v1h-1z"/><path fill="#3D1C1A" d="M33 32h1v1h-1z"/><path fill="#A72C2C" d="M34 32h1v1h-1z"/><path fill="#B02D2E" d="M35 32h1v1h-1zM36 32h1v1h-1zM37 32h1v1h-1zM38 32h1v1h-1zM39 32h1v1h-1zM40 32h1v1h-1zM41 32h1v1h-1zM42 32h1v1h-1z"/><path fill="#6A2322" d="M43 32h1v1h-1z"/><path fill="#231815" d="M44 32h1v1h-1zM45 32h1v1h-1zM46 32h1v1h-1zM47 32h1v1h-1zM48 32h1v1h-1zM53 32h1v1h-1zM54 32h1v1h-1zM55 32h1v1h-1zM56 32h1v1h-1z"/><path fill="#842626" d="M57 32h1v1h-1z"/><path fill="#B02D2E" d="M58 32h1v1h-1zM59 32h1v1h-1zM60 32h1v1h-1zM61 32h1v1h-1zM62 32h1v1h-1zM63 32h1v1h-1z"/><path fill="#B32F30" d="M64 32h1v1h-1z"/><path fill="#BB3737" d="M65 32h1v1h-1z"/><path fill="#C64040" d="M66 32h1v1h-1z"/><path fill="#CB4544" d="M67 32h1v1h-1z"/><path fill="#D04A48" d="M68 32h1v1h-1z"/><path fill="#D8514F" d="M69 32h1v1h-1z"/><path fill="#DB5351" d="M70 32h1v1h-1zM71 32h1v1h-1zM72 32h1v1h-1zM73 32h1v1h-1zM74 32h1v1h-1z"/><path fill="#7F3633" d="M75 32h1v1h-1z"/><path fill="#231815" d="M76 32h1v1h-1zM77 32h1v1h-1zM78 32h1v1h-1zM9 33h1v1H9zM10 33h1v1h-1zM11 33h1v1h-1zM12 33h1v1h-1z"/><path fill="#302019" d="M13 33h1v1h-1z"/><path fill="#BBB75B" d="M14 33h1v1h-1z"/><path fill="#EDEC72" d="M15 33h1v1h-1zM16 33h1v1h-1zM17 33h1v1h-1zM18 33h1v1h-1zM19 33h1v1h-1zM20 33h1v1h-1zM21 33h1v1h-1zM22 33h1v1h-1zM23 33h1v1h-1zM24 33h1v1h-1z"/><path fill="#E0DF6C" d="M25 33h1v1h-1z"/><path fill="#564D2C" d="M26 33h1v1h-1z"/><path fill="#231815" d="M27 33h1v1h-1zM28 33h1v1h-1zM29 33h1v1h-1zM30 33h1v1h-1zM31 33h1v1h-1z"/><path fill="#2C1917" d="M32 33h1v1h-1z"/><path fill="#A72C2C" d="M33 33h1v1h-1z"/><path fill="#B02D2E" d="M34 33h1v1h-1zM35 33h1v1h-1zM36 33h1v1h-1zM37 33h1v1h-1zM38 33h1v1h-1zM39 33h1v1h-1zM40 33h1v1h-1z"/><path fill="#7B2525" d="M41 33h1v1h-1z"/><path fill="#351B18" d="M42 33h1v1h-1z"/><path fill="#231815" d="M43 33h1v1h-1zM44 33h1v1h-1zM45 33h1v1h-1zM46 33h1v1h-1zM47 33h1v1h-1zM52 33h1v1h-1zM53 33h1v1h-1zM54 33h1v1h-1zM55 33h1v1h-1z"/><path fill="#612120" d="M56 33h1v1h-1z"/><path fill="#B02D2E" d="M57 33h1v1h-1zM58 33h1v1h-1zM59 33h1v1h-1zM60 33h1v1h-1zM61 33h1v1h-1zM62 33h1v1h-1zM63 33h1v1h-1zM64 33h1v1h-1zM65 33h1v1h-1zM66 33h1v1h-1zM67 33h1v1h-1zM68 33h1v1h-1zM69 33h1v1h-1zM70 33h1v1h-1z"/><path fill="#B83435" d="M71 33h1v1h-1z"/><path fill="#BB3737" d="M72 33h1v1h-1z"/><path fill="#BD3939" d="M73 33h1v1h-1z"/><path fill="#C64040" d="M74 33h1v1h-1z"/><path fill="#3A1F1D" d="M75 33h1v1h-1z"/><path fill="#231815" d="M76 33h1v1h-1zM77 33h1v1h-1zM78 33h1v1h-1zM10 34h1v1h-1zM11 34h1v1h-1zM12 34h1v1h-1zM13 34h1v1h-1zM14 34h1v1h-1z"/><path fill="#6F6838" d="M15 34h1v1h-1z"/><path fill="#D4D266" d="M16 34h1v1h-1z"/><path fill="#EDEC72" d="M17 34h1v1h-1zM18 34h1v1h-1zM19 34h1v1h-1zM20 34h1v1h-1zM21 34h1v1h-1zM22 34h1v1h-1zM23 34h1v1h-1zM24 34h1v1h-1zM25 34h1v1h-1z"/><path fill="#D4D266" d="M26 34h1v1h-1z"/><path fill="#3C3321" d="M27 34h1v1h-1z"/><path fill="#231815" d="M28 34h1v1h-1zM29 34h1v1h-1zM30 34h1v1h-1z"/><path fill="#2C1917" d="M31 34h1v1h-1z"/><path fill="#962929" d="M32 34h1v1h-1z"/><path fill="#B02D2E" d="M33 34h1v1h-1zM34 34h1v1h-1zM35 34h1v1h-1zM36 34h1v1h-1zM37 34h1v1h-1z"/><path fill="#8D2828" d="M38 34h1v1h-1z"/><path fill="#612120" d="M39 34h1v1h-1z"/><path fill="#351B18" d="M40 34h1v1h-1z"/><path fill="#231815" d="M41 34h1v1h-1zM42 34h1v1h-1zM43 34h1v1h-1zM44 34h1v1h-1zM45 34h1v1h-1zM46 34h1v1h-1zM51 34h1v1h-1zM52 34h1v1h-1zM53 34h1v1h-1zM54 34h1v1h-1z"/><path fill="#4F1F1D" d="M55 34h1v1h-1z"/><path fill="#B02D2E" d="M56 34h1v1h-1zM57 34h1v1h-1zM58 34h1v1h-1zM59 34h1v1h-1zM60 34h1v1h-1zM61 34h1v1h-1zM62 34h1v1h-1zM63 34h1v1h-1zM64 34h1v1h-1zM65 34h1v1h-1zM66 34h1v1h-1zM67 34h1v1h-1zM68 34h1v1h-1zM69 34h1v1h-1zM70 34h1v1h-1zM71 34h1v1h-1zM72 34h1v1h-1zM73 34h1v1h-1z"/><path fill="#7B2525" d="M74 34h1v1h-1z"/><path fill="#231815" d="M75 34h1v1h-1zM76 34h1v1h-1zM77 34h1v1h-1zM78 34h1v1h-1zM11 35h1v1h-1zM12 35h1v1h-1zM13 35h1v1h-1zM14 35h1v1h-1zM15 35h1v1h-1zM16 35h1v1h-1z"/><path fill="#6F6838" d="M17 35h1v1h-1z"/><path fill="#AEAA55" d="M18 35h1v1h-1z"/><path fill="#E0DF6C" d="M19 35h1v1h-1z"/><path fill="#EDEC72" d="M20 35h1v1h-1zM21 35h1v1h-1zM22 35h1v1h-1zM23 35h1v1h-1z"/><path fill="#C7C461" d="M24 35h1v1h-1z"/><path fill="#7B753E" d="M25 35h1v1h-1z"/><path fill="#30251B" d="M26 35h1v1h-1z"/><path fill="#231815" d="M27 35h1v1h-1zM28 35h1v1h-1zM29 35h1v1h-1z"/><path fill="#3D1C1A" d="M30 35h1v1h-1z"/><path fill="#962929" d="M31 35h1v1h-1z"/><path fill="#B02D2E" d="M32 35h1v1h-1z"/><path fill="#A72C2C" d="M33 35h1v1h-1z"/><path fill="#8D2828" d="M34 35h1v1h-1z"/><path fill="#6A2322" d="M35 35h1v1h-1z"/><path fill="#4F1F1D" d="M36 35h1v1h-1z"/><path fill="#2C1917" d="M37 35h1v1h-1z"/><path fill="#231815" d="M38 35h1v1h-1zM39 35h1v1h-1zM40 35h1v1h-1zM41 35h1v1h-1zM42 35h1v1h-1zM43 35h1v1h-1zM44 35h1v1h-1zM50 35h1v1h-1zM51 35h1v1h-1zM52 35h1v1h-1zM53 35h1v1h-1z"/><path fill="#3D1C1A" d="M54 35h1v1h-1z"/><path fill="#A72C2C" d="M55 35h1v1h-1z"/><path fill="#B02D2E" d="M56 35h1v1h-1zM57 35h1v1h-1zM58 35h1v1h-1zM59 35h1v1h-1zM60 35h1v1h-1zM61 35h1v1h-1zM62 35h1v1h-1zM63 35h1v1h-1zM64 35h1v1h-1zM65 35h1v1h-1zM66 35h1v1h-1zM67 35h1v1h-1zM68 35h1v1h-1zM69 35h1v1h-1zM70 35h1v1h-1zM71 35h1v1h-1zM72 35h1v1h-1zM73 35h1v1h-1z"/><path fill="#351B18" d="M74 35h1v1h-1z"/><path fill="#231815" d="M75 35h1v1h-1zM76 35h1v1h-1zM77 35h1v1h-1zM12 36h1v1h-1zM13 36h1v1h-1zM14 36h1v1h-1zM15 36h1v1h-1zM16 36h1v1h-1zM17 36h1v1h-1zM18 36h1v1h-1zM19 36h1v1h-1z"/><path fill="#30251B" d="M20 36h1v1h-1z"/><path fill="#564D2C" d="M21 36h1v1h-1zM22 36h1v1h-1z"/><path fill="#231815" d="M23 36h1v1h-1zM24 36h1v1h-1zM25 36h1v1h-1zM26 36h1v1h-1zM27 36h1v1h-1zM28 36h1v1h-1zM29 36h1v1h-1z"/><path fill="#3D1C1A" d="M30 36h1v1h-1z"/><path fill="#461D1B" d="M31 36h1v1h-1z"/><path fill="#231815" d="M32 36h1v1h-1zM33 36h1v1h-1zM34 36h1v1h-1zM35 36h1v1h-1zM36 36h1v1h-1zM37 36h1v1h-1zM38 36h1v1h-1zM39 36h1v1h-1zM40 36h1v1h-1zM41 36h1v1h-1zM42 36h1v1h-1zM43 36h1v1h-1zM48 36h1v1h-1zM49 36h1v1h-1zM50 36h1v1h-1zM51 36h1v1h-1zM52 36h1v1h-1z"/><path fill="#3D1C1A" d="M53 36h1v1h-1z"/><path fill="#A72C2C" d="M54 36h1v1h-1z"/><path fill="#B02D2E" d="M55 36h1v1h-1zM56 36h1v1h-1zM57 36h1v1h-1zM58 36h1v1h-1zM59 36h1v1h-1zM60 36h1v1h-1zM61 36h1v1h-1zM62 36h1v1h-1zM63 36h1v1h-1zM64 36h1v1h-1zM65 36h1v1h-1zM66 36h1v1h-1zM67 36h1v1h-1zM68 36h1v1h-1zM69 36h1v1h-1zM70 36h1v1h-1zM71 36h1v1h-1zM72 36h1v1h-1z"/><path fill="#6A2322" d="M73 36h1v1h-1z"/><path fill="#231815" d="M74 36h1v1h-1zM75 36h1v1h-1zM76 36h1v1h-1zM77 36h1v1h-1zM14 37h1v1h-1zM15 37h1v1h-1zM16 37h1v1h-1zM17 37h1v1h-1zM18 37h1v1h-1zM19 37h1v1h-1zM20 37h1v1h-1zM21 37h1v1h-1zM22 37h1v1h-1zM23 37h1v1h-1zM24 37h1v1h-1zM25 37h1v1h-1zM26 37h1v1h-1zM27 37h1v1h-1zM28 37h1v1h-1zM29 37h1v1h-1zM30 37h1v1h-1zM31 37h1v1h-1zM32 37h1v1h-1zM33 37h1v1h-1zM34 37h1v1h-1zM35 37h1v1h-1zM36 37h1v1h-1zM37 37h1v1h-1zM38 37h1v1h-1zM39 37h1v1h-1zM40 37h1v1h-1zM41 37h1v1h-1zM47 37h1v1h-1zM48 37h1v1h-1zM49 37h1v1h-1zM50 37h1v1h-1zM51 37h1v1h-1z"/><path fill="#4F1F1D" d="M52 37h1v1h-1z"/><path fill="#A72C2C" d="M53 37h1v1h-1z"/><path fill="#B02D2E" d="M54 37h1v1h-1zM55 37h1v1h-1zM56 37h1v1h-1zM57 37h1v1h-1zM58 37h1v1h-1zM59 37h1v1h-1zM60 37h1v1h-1zM61 37h1v1h-1zM62 37h1v1h-1zM63 37h1v1h-1zM64 37h1v1h-1zM65 37h1v1h-1zM66 37h1v1h-1zM67 37h1v1h-1zM68 37h1v1h-1zM69 37h1v1h-1zM70 37h1v1h-1zM71 37h1v1h-1z"/><path fill="#962929" d="M72 37h1v1h-1z"/><path fill="#231815" d="M73 37h1v1h-1zM74 37h1v1h-1zM75 37h1v1h-1zM76 37h1v1h-1zM16 38h1v1h-1zM17 38h1v1h-1zM18 38h1v1h-1zM19 38h1v1h-1zM20 38h1v1h-1zM21 38h1v1h-1zM22 38h1v1h-1zM23 38h1v1h-1zM24 38h1v1h-1zM25 38h1v1h-1zM26 38h1v1h-1zM27 38h1v1h-1zM28 38h1v1h-1zM29 38h1v1h-1zM30 38h1v1h-1zM31 38h1v1h-1zM32 38h1v1h-1zM33 38h1v1h-1zM34 38h1v1h-1zM35 38h1v1h-1zM36 38h1v1h-1zM37 38h1v1h-1zM45 38h1v1h-1zM46 38h1v1h-1zM47 38h1v1h-1zM48 38h1v1h-1zM49 38h1v1h-1zM50 38h1v1h-1z"/><path fill="#612120" d="M51 38h1v1h-1z"/><path fill="#B02D2E" d="M52 38h1v1h-1zM53 38h1v1h-1zM54 38h1v1h-1zM55 38h1v1h-1zM56 38h1v1h-1zM57 38h1v1h-1zM58 38h1v1h-1zM59 38h1v1h-1zM60 38h1v1h-1zM61 38h1v1h-1zM62 38h1v1h-1zM63 38h1v1h-1zM64 38h1v1h-1zM65 38h1v1h-1zM66 38h1v1h-1zM67 38h1v1h-1zM68 38h1v1h-1zM69 38h1v1h-1zM70 38h1v1h-1z"/><path fill="#A72C2C" d="M71 38h1v1h-1z"/><path fill="#351B18" d="M72 38h1v1h-1z"/><path fill="#231815" d="M73 38h1v1h-1zM74 38h1v1h-1zM75 38h1v1h-1zM20 39h1v1h-1zM21 39h1v1h-1zM22 39h1v1h-1zM23 39h1v1h-1zM24 39h1v1h-1zM25 39h1v1h-1zM26 39h1v1h-1zM27 39h1v1h-1zM28 39h1v1h-1zM29 39h1v1h-1zM30 39h1v1h-1zM31 39h1v1h-1zM32 39h1v1h-1zM43 39h1v1h-1zM44 39h1v1h-1zM45 39h1v1h-1zM46 39h1v1h-1zM47 39h1v1h-1zM48 39h1v1h-1z"/><path fill="#2C1917" d="M49 39h1v1h-1z"/><path fill="#842626" d="M50 39h1v1h-1z"/><path fill="#B02D2E" d="M51 39h1v1h-1zM52 39h1v1h-1zM53 39h1v1h-1zM54 39h1v1h-1zM55 39h1v1h-1zM56 39h1v1h-1zM57 39h1v1h-1zM58 39h1v1h-1zM59 39h1v1h-1zM60 39h1v1h-1zM61 39h1v1h-1zM62 39h1v1h-1zM63 39h1v1h-1zM64 39h1v1h-1zM65 39h1v1h-1zM66 39h1v1h-1zM67 39h1v1h-1zM68 39h1v1h-1zM69 39h1v1h-1z"/><path fill="#A72C2C" d="M70 39h1v1h-1z"/><path fill="#3D1C1A" d="M71 39h1v1h-1z"/><path fill="#231815" d="M72 39h1v1h-1zM73 39h1v1h-1zM74 39h1v1h-1zM75 39h1v1h-1zM39 40h1v1h-1zM40 40h1v1h-1zM41 40h1v1h-1zM42 40h1v1h-1zM43 40h1v1h-1zM44 40h1v1h-1zM45 40h1v1h-1zM46 40h1v1h-1zM47 40h1v1h-1z"/><path fill="#4F1F1D" d="M48 40h1v1h-1z"/><path fill="#9E2A2B" d="M49 40h1v1h-1z"/><path fill="#B02D2E" d="M50 40h1v1h-1zM51 40h1v1h-1zM52 40h1v1h-1zM53 40h1v1h-1zM54 40h1v1h-1zM55 40h1v1h-1zM56 40h1v1h-1zM57 40h1v1h-1zM58 40h1v1h-1zM59 40h1v1h-1zM60 40h1v1h-1zM61 40h1v1h-1zM62 40h1v1h-1zM63 40h1v1h-1zM64 40h1v1h-1zM65 40h1v1h-1zM66 40h1v1h-1zM67 40h1v1h-1zM68 40h1v1h-1z"/><path fill="#A72C2C" d="M69 40h1v1h-1z"/><path fill="#3D1C1A" d="M70 40h1v1h-1z"/><path fill="#231815" d="M71 40h1v1h-1zM72 40h1v1h-1zM73 40h1v1h-1zM74 40h1v1h-1zM35 41h1v1h-1zM36 41h1v1h-1zM37 41h1v1h-1zM38 41h1v1h-1zM39 41h1v1h-1zM40 41h1v1h-1zM41 41h1v1h-1zM42 41h1v1h-1zM43 41h1v1h-1zM44 41h1v1h-1zM45 41h1v1h-1z"/><path fill="#461D1B" d="M46 41h1v1h-1z"/><path fill="#8D2828" d="M47 41h1v1h-1z"/><path fill="#B02D2E" d="M48 41h1v1h-1zM49 41h1v1h-1zM50 41h1v1h-1zM51 41h1v1h-1zM52 41h1v1h-1zM53 41h1v1h-1zM54 41h1v1h-1zM55 41h1v1h-1zM56 41h1v1h-1zM57 41h1v1h-1zM58 41h1v1h-1zM59 41h1v1h-1zM60 41h1v1h-1zM61 41h1v1h-1zM62 41h1v1h-1zM63 41h1v1h-1zM64 41h1v1h-1zM65 41h1v1h-1zM66 41h1v1h-1zM67 41h1v1h-1z"/><path fill="#A72C2C" d="M68 41h1v1h-1z"/><path fill="#3D1C1A" d="M69 41h1v1h-1z"/><path fill="#231815" d="M70 41h1v1h-1zM71 41h1v1h-1zM72 41h1v1h-1zM73 41h1v1h-1zM32 42h1v1h-1zM33 42h1v1h-1zM34 42h1v1h-1zM35 42h1v1h-1zM36 42h1v1h-1zM37 42h1v1h-1zM38 42h1v1h-1zM39 42h1v1h-1zM40 42h1v1h-1zM41 42h1v1h-1zM42 42h1v1h-1z"/><path fill="#2C1917" d="M43 42h1v1h-1z"/><path fill="#58201E" d="M44 42h1v1h-1z"/><path fill="#8D2828" d="M45 42h1v1h-1z"/><path fill="#B02D2E" d="M46 42h1v1h-1zM47 42h1v1h-1zM48 42h1v1h-1zM49 42h1v1h-1zM50 42h1v1h-1zM51 42h1v1h-1zM52 42h1v1h-1zM53 42h1v1h-1zM54 42h1v1h-1zM55 42h1v1h-1zM56 42h1v1h-1zM57 42h1v1h-1zM58 42h1v1h-1zM59 42h1v1h-1zM60 42h1v1h-1zM61 42h1v1h-1zM62 42h1v1h-1zM63 42h1v1h-1zM64 42h1v1h-1zM65 42h1v1h-1zM66 42h1v1h-1z"/><path fill="#8D2828" d="M67 42h1v1h-1z"/><path fill="#2C1917" d="M68 42h1v1h-1z"/><path fill="#231815" d="M69 42h1v1h-1zM70 42h1v1h-1zM71 42h1v1h-1zM72 42h1v1h-1zM29 43h1v1h-1zM30 43h1v1h-1zM31 43h1v1h-1zM32 43h1v1h-1zM33 43h1v1h-1zM34 43h1v1h-1zM35 43h1v1h-1zM36 43h1v1h-1zM37 43h1v1h-1zM38 43h1v1h-1zM39 43h1v1h-1z"/><path fill="#462320" d="M40 43h1v1h-1z"/><path fill="#612120" d="M41 43h1v1h-1z"/><path fill="#8D2828" d="M42 43h1v1h-1z"/><path fill="#B02D2E" d="M43 43h1v1h-1zM44 43h1v1h-1zM45 43h1v1h-1zM46 43h1v1h-1zM47 43h1v1h-1zM48 43h1v1h-1zM49 43h1v1h-1zM50 43h1v1h-1zM51 43h1v1h-1zM52 43h1v1h-1zM53 43h1v1h-1zM54 43h1v1h-1zM55 43h1v1h-1zM56 43h1v1h-1zM57 43h1v1h-1zM58 43h1v1h-1zM59 43h1v1h-1zM60 43h1v1h-1zM61 43h1v1h-1zM62 43h1v1h-1zM63 43h1v1h-1zM64 43h1v1h-1z"/><path fill="#A72C2C" d="M65 43h1v1h-1z"/><path fill="#6A2322" d="M66 43h1v1h-1z"/><path fill="#231815" d="M67 43h1v1h-1zM68 43h1v1h-1zM69 43h1v1h-1zM70 43h1v1h-1zM71 43h1v1h-1zM26 44h1v1h-1zM27 44h1v1h-1zM28 44h1v1h-1zM29 44h1v1h-1zM30 44h1v1h-1zM31 44h1v1h-1zM32 44h1v1h-1zM33 44h1v1h-1zM34 44h1v1h-1zM35 44h1v1h-1z"/><path fill="#3A1F1D" d="M36 44h1v1h-1z"/><path fill="#682E2C" d="M37 44h1v1h-1z"/><path fill="#A2413E" d="M38 44h1v1h-1z"/><path fill="#D04F4D" d="M39 44h1v1h-1z"/><path fill="#DB5351" d="M40 44h1v1h-1z"/><path fill="#D04A48" d="M41 44h1v1h-1z"/><path fill="#BB3737" d="M42 44h1v1h-1z"/><path fill="#B02D2E" d="M43 44h1v1h-1zM44 44h1v1h-1zM45 44h1v1h-1zM46 44h1v1h-1zM47 44h1v1h-1zM48 44h1v1h-1zM49 44h1v1h-1zM50 44h1v1h-1zM51 44h1v1h-1zM52 44h1v1h-1zM53 44h1v1h-1zM54 44h1v1h-1zM55 44h1v1h-1zM56 44h1v1h-1zM57 44h1v1h-1zM58 44h1v1h-1zM59 44h1v1h-1zM60 44h1v1h-1zM61 44h1v1h-1zM62 44h1v1h-1zM63 44h1v1h-1z"/><path fill="#8D2828" d="M64 44h1v1h-1z"/><path fill="#351B18" d="M65 44h1v1h-1z"/><path fill="#231815" d="M66 44h1v1h-1zM67 44h1v1h-1zM68 44h1v1h-1zM69 44h1v1h-1zM70 44h1v1h-1zM24 45h1v1h-1zM25 45h1v1h-1zM26 45h1v1h-1zM27 45h1v1h-1zM28 45h1v1h-1zM29 45h1v1h-1zM30 45h1v1h-1zM31 45h1v1h-1zM32 45h1v1h-1z"/><path fill="#512724" d="M33 45h1v1h-1z"/><path fill="#8B3937" d="M34 45h1v1h-1z"/><path fill="#C44C4A" d="M35 45h1v1h-1z"/><path fill="#DB5351" d="M36 45h1v1h-1zM37 45h1v1h-1zM38 45h1v1h-1zM39 45h1v1h-1zM40 45h1v1h-1zM41 45h1v1h-1zM42 45h1v1h-1z"/><path fill="#D04A48" d="M43 45h1v1h-1z"/><path fill="#BD3939" d="M44 45h1v1h-1z"/><path fill="#B02D2E" d="M45 45h1v1h-1zM46 45h1v1h-1zM47 45h1v1h-1zM48 45h1v1h-1zM49 45h1v1h-1zM50 45h1v1h-1zM51 45h1v1h-1zM52 45h1v1h-1zM53 45h1v1h-1zM54 45h1v1h-1zM55 45h1v1h-1zM56 45h1v1h-1zM57 45h1v1h-1zM58 45h1v1h-1zM59 45h1v1h-1zM60 45h1v1h-1zM61 45h1v1h-1z"/><path fill="#8D2828" d="M62 45h1v1h-1z"/><path fill="#461D1B" d="M63 45h1v1h-1z"/><path fill="#231815" d="M64 45h1v1h-1zM65 45h1v1h-1zM66 45h1v1h-1zM67 45h1v1h-1zM68 45h1v1h-1zM69 45h1v1h-1zM22 46h1v1h-1zM23 46h1v1h-1zM24 46h1v1h-1zM25 46h1v1h-1zM26 46h1v1h-1zM27 46h1v1h-1zM28 46h1v1h-1zM29 46h1v1h-1z"/><path fill="#5D2A28" d="M30 46h1v1h-1z"/><path fill="#963D3B" d="M31 46h1v1h-1z"/><path fill="#D04F4D" d="M32 46h1v1h-1z"/><path fill="#DB5351" d="M33 46h1v1h-1zM34 46h1v1h-1zM35 46h1v1h-1zM36 46h1v1h-1zM37 46h1v1h-1zM38 46h1v1h-1zM39 46h1v1h-1zM40 46h1v1h-1zM41 46h1v1h-1zM42 46h1v1h-1zM43 46h1v1h-1zM44 46h1v1h-1z"/><path fill="#D8514F" d="M45 46h1v1h-1z"/><path fill="#CB4544" d="M46 46h1v1h-1z"/><path fill="#C03B3B" d="M47 46h1v1h-1z"/><path fill="#B53232" d="M48 46h1v1h-1z"/><path fill="#B02D2E" d="M49 46h1v1h-1zM50 46h1v1h-1zM51 46h1v1h-1zM52 46h1v1h-1zM53 46h1v1h-1zM54 46h1v1h-1zM55 46h1v1h-1zM56 46h1v1h-1zM57 46h1v1h-1zM58 46h1v1h-1zM59 46h1v1h-1z"/><path fill="#8D2828" d="M60 46h1v1h-1z"/><path fill="#461D1B" d="M61 46h1v1h-1z"/><path fill="#231815" d="M62 46h1v1h-1zM63 46h1v1h-1zM64 46h1v1h-1zM65 46h1v1h-1zM66 46h1v1h-1zM67 46h1v1h-1zM21 47h1v1h-1zM22 47h1v1h-1zM23 47h1v1h-1zM24 47h1v1h-1zM25 47h1v1h-1zM26 47h1v1h-1z"/><path fill="#3A1F1D" d="M27 47h1v1h-1z"/><path fill="#7F3633" d="M28 47h1v1h-1z"/><path fill="#C44C4A" d="M29 47h1v1h-1z"/><path fill="#DB5351" d="M30 47h1v1h-1zM31 47h1v1h-1zM32 47h1v1h-1zM33 47h1v1h-1zM34 47h1v1h-1zM35 47h1v1h-1zM36 47h1v1h-1zM37 47h1v1h-1zM38 47h1v1h-1zM39 47h1v1h-1zM40 47h1v1h-1zM41 47h1v1h-1zM42 47h1v1h-1zM43 47h1v1h-1zM44 47h1v1h-1zM45 47h1v1h-1zM46 47h1v1h-1zM47 47h1v1h-1zM48 47h1v1h-1z"/><path fill="#D64E4D" d="M49 47h1v1h-1z"/><path fill="#D04A48" d="M50 47h1v1h-1z"/><path fill="#C64040" d="M51 47h1v1h-1z"/><path fill="#C03B3B" d="M52 47h1v1h-1z"/><path fill="#BB3737" d="M53 47h1v1h-1z"/><path fill="#B02D2E" d="M54 47h1v1h-1zM55 47h1v1h-1zM56 47h1v1h-1z"/><path fill="#A72C2C" d="M57 47h1v1h-1z"/><path fill="#722423" d="M58 47h1v1h-1z"/><path fill="#351B18" d="M59 47h1v1h-1z"/><path fill="#231815" d="M60 47h1v1h-1zM61 47h1v1h-1zM62 47h1v1h-1zM63 47h1v1h-1zM64 47h1v1h-1zM65 47h1v1h-1zM66 47h1v1h-1zM19 48h1v1h-1zM20 48h1v1h-1zM21 48h1v1h-1zM22 48h1v1h-1zM23 48h1v1h-1zM24 48h1v1h-1z"/><path fill="#3C2422" d="M25 48h1v1h-1z"/><path fill="#A15554" d="M26 48h1v1h-1z"/><path fill="#EC7777" d="M27 48h1v1h-1z"/><path fill="#DC5554" d="M28 48h1v1h-1z"/><path fill="#DB5351" d="M29 48h1v1h-1zM30 48h1v1h-1zM31 48h1v1h-1zM32 48h1v1h-1zM33 48h1v1h-1zM34 48h1v1h-1zM35 48h1v1h-1zM36 48h1v1h-1zM37 48h1v1h-1zM38 48h1v1h-1zM39 48h1v1h-1zM40 48h1v1h-1zM41 48h1v1h-1zM42 48h1v1h-1zM43 48h1v1h-1zM44 48h1v1h-1zM45 48h1v1h-1zM46 48h1v1h-1zM47 48h1v1h-1zM48 48h1v1h-1zM49 48h1v1h-1zM50 48h1v1h-1zM51 48h1v1h-1zM52 48h1v1h-1zM53 48h1v1h-1zM54 48h1v1h-1z"/><path fill="#9C3C3A" d="M55 48h1v1h-1z"/><path fill="#5D2523" d="M56 48h1v1h-1z"/><path fill="#231815" d="M57 48h1v1h-1zM58 48h1v1h-1zM59 48h1v1h-1zM60 48h1v1h-1zM61 48h1v1h-1zM62 48h1v1h-1zM63 48h1v1h-1zM64 48h1v1h-1zM18 49h1v1h-1zM19 49h1v1h-1zM20 49h1v1h-1zM21 49h1v1h-1zM22 49h1v1h-1z"/><path fill="#3C2422" d="M23 49h1v1h-1z"/><path fill="#A15554" d="M24 49h1v1h-1z"/><path fill="#ED7979" d="M25 49h1v1h-1zM26 49h1v1h-1zM27 49h1v1h-1z"/><path fill="#E66B6A" d="M28 49h1v1h-1z"/><path fill="#DB5351" d="M29 49h1v1h-1zM30 49h1v1h-1zM31 49h1v1h-1zM32 49h1v1h-1zM33 49h1v1h-1zM34 49h1v1h-1zM35 49h1v1h-1zM36 49h1v1h-1zM37 49h1v1h-1zM38 49h1v1h-1zM39 49h1v1h-1zM40 49h1v1h-1zM41 49h1v1h-1zM42 49h1v1h-1zM43 49h1v1h-1zM44 49h1v1h-1zM45 49h1v1h-1zM46 49h1v1h-1zM47 49h1v1h-1zM48 49h1v1h-1zM49 49h1v1h-1zM50 49h1v1h-1zM51 49h1v1h-1z"/><path fill="#A2413E" d="M52 49h1v1h-1z"/><path fill="#682E2C" d="M53 49h1v1h-1z"/><path fill="#2F1C19" d="M54 49h1v1h-1z"/><path fill="#231815" d="M55 49h1v1h-1zM56 49h1v1h-1zM57 49h1v1h-1zM58 49h1v1h-1zM59 49h1v1h-1zM60 49h1v1h-1zM61 49h1v1h-1zM62 49h1v1h-1zM17 50h1v1h-1zM18 50h1v1h-1zM19 50h1v1h-1zM20 50h1v1h-1zM21 50h1v1h-1z"/><path fill="#7B4241" d="M22 50h1v1h-1z"/><path fill="#E07373" d="M23 50h1v1h-1z"/><path fill="#ED7979" d="M24 50h1v1h-1zM25 50h1v1h-1zM26 50h1v1h-1zM27 50h1v1h-1zM28 50h1v1h-1z"/><path fill="#DE5A59" d="M29 50h1v1h-1z"/><path fill="#DB5351" d="M30 50h1v1h-1zM31 50h1v1h-1zM32 50h1v1h-1zM33 50h1v1h-1zM34 50h1v1h-1zM35 50h1v1h-1zM36 50h1v1h-1zM37 50h1v1h-1zM38 50h1v1h-1zM39 50h1v1h-1zM40 50h1v1h-1zM41 50h1v1h-1zM42 50h1v1h-1zM43 50h1v1h-1zM44 50h1v1h-1zM45 50h1v1h-1zM46 50h1v1h-1zM47 50h1v1h-1zM48 50h1v1h-1z"/><path fill="#A2413E" d="M49 50h1v1h-1z"/><path fill="#682E2C" d="M50 50h1v1h-1z"/><path fill="#2F1C19" d="M51 50h1v1h-1z"/><path fill="#231815" d="M52 50h1v1h-1zM53 50h1v1h-1zM54 50h1v1h-1zM55 50h1v1h-1zM56 50h1v1h-1zM57 50h1v1h-1zM58 50h1v1h-1zM59 50h1v1h-1zM60 50h1v1h-1zM71 50h1v1h-1zM72 50h1v1h-1zM73 50h1v1h-1zM16 51h1v1h-1zM17 51h1v1h-1zM18 51h1v1h-1zM19 51h1v1h-1z"/><path fill="#3C2422" d="M20 51h1v1h-1z"/><path fill="#BB6160" d="M21 51h1v1h-1z"/><path fill="#ED7979" d="M22 51h1v1h-1zM23 51h1v1h-1zM24 51h1v1h-1zM25 51h1v1h-1zM26 51h1v1h-1zM27 51h1v1h-1zM28 51h1v1h-1z"/><path fill="#E9706F" d="M29 51h1v1h-1z"/><path fill="#DB5351" d="M30 51h1v1h-1zM31 51h1v1h-1zM32 51h1v1h-1zM33 51h1v1h-1zM34 51h1v1h-1zM35 51h1v1h-1zM36 51h1v1h-1zM37 51h1v1h-1zM38 51h1v1h-1zM39 51h1v1h-1zM40 51h1v1h-1zM41 51h1v1h-1zM42 51h1v1h-1zM43 51h1v1h-1zM44 51h1v1h-1z"/><path fill="#C44C4A" d="M45 51h1v1h-1z"/><path fill="#963D3B" d="M46 51h1v1h-1z"/><path fill="#5D2A28" d="M47 51h1v1h-1z"/><path fill="#231815" d="M48 51h1v1h-1zM49 51h1v1h-1zM50 51h1v1h-1zM51 51h1v1h-1zM52 51h1v1h-1zM53 51h1v1h-1zM54 51h1v1h-1zM55 51h1v1h-1zM56 51h1v1h-1zM57 51h1v1h-1zM70 51h1v1h-1zM71 51h1v1h-1zM72 51h1v1h-1zM73 51h1v1h-1zM74 51h1v1h-1zM75 51h1v1h-1zM15 52h1v1h-1zM16 52h1v1h-1zM17 52h1v1h-1zM18 52h1v1h-1z"/><path fill="#492A28" d="M19 52h1v1h-1z"/><path fill="#E07373" d="M20 52h1v1h-1z"/><path fill="#ED7979" d="M21 52h1v1h-1zM22 52h1v1h-1zM23 52h1v1h-1zM24 52h1v1h-1zM25 52h1v1h-1zM26 52h1v1h-1zM27 52h1v1h-1zM28 52h1v1h-1zM29 52h1v1h-1z"/><path fill="#E05D5B" d="M30 52h1v1h-1z"/><path fill="#DB5351" d="M31 52h1v1h-1zM32 52h1v1h-1zM33 52h1v1h-1zM34 52h1v1h-1zM35 52h1v1h-1zM36 52h1v1h-1zM37 52h1v1h-1zM38 52h1v1h-1zM39 52h1v1h-1zM40 52h1v1h-1zM41 52h1v1h-1z"/><path fill="#C44C4A" d="M42 52h1v1h-1z"/><path fill="#8B3937" d="M43 52h1v1h-1z"/><path fill="#462320" d="M44 52h1v1h-1z"/><path fill="#231815" d="M45 52h1v1h-1zM46 52h1v1h-1zM47 52h1v1h-1zM48 52h1v1h-1zM49 52h1v1h-1zM50 52h1v1h-1zM51 52h1v1h-1zM52 52h1v1h-1zM53 52h1v1h-1zM54 52h1v1h-1zM70 52h1v1h-1zM71 52h1v1h-1zM72 52h1v1h-1zM73 52h1v1h-1zM74 52h1v1h-1zM75 52h1v1h-1zM76 52h1v1h-1zM14 53h1v1h-1zM15 53h1v1h-1zM16 53h1v1h-1zM17 53h1v1h-1z"/><path fill="#492A28" d="M18 53h1v1h-1z"/><path fill="#E07373" d="M19 53h1v1h-1z"/><path fill="#ED7979" d="M20 53h1v1h-1zM21 53h1v1h-1zM22 53h1v1h-1zM23 53h1v1h-1zM24 53h1v1h-1zM25 53h1v1h-1zM26 53h1v1h-1zM27 53h1v1h-1zM28 53h1v1h-1zM29 53h1v1h-1z"/><path fill="#EB7474" d="M30 53h1v1h-1z"/><path fill="#DC5554" d="M31 53h1v1h-1z"/><path fill="#DB5351" d="M32 53h1v1h-1zM33 53h1v1h-1zM34 53h1v1h-1zM35 53h1v1h-1zM36 53h1v1h-1zM37 53h1v1h-1zM38 53h1v1h-1z"/><path fill="#C44C4A" d="M39 53h1v1h-1z"/><path fill="#8B3937" d="M40 53h1v1h-1z"/><path fill="#462320" d="M41 53h1v1h-1z"/><path fill="#231815" d="M42 53h1v1h-1zM43 53h1v1h-1zM44 53h1v1h-1zM45 53h1v1h-1zM46 53h1v1h-1zM47 53h1v1h-1zM48 53h1v1h-1zM49 53h1v1h-1zM50 53h1v1h-1zM51 53h1v1h-1zM69 53h1v1h-1zM70 53h1v1h-1zM71 53h1v1h-1zM72 53h1v1h-1zM73 53h1v1h-1zM74 53h1v1h-1zM75 53h1v1h-1zM76 53h1v1h-1zM77 53h1v1h-1zM13 54h1v1h-1zM14 54h1v1h-1zM15 54h1v1h-1zM16 54h1v1h-1z"/><path fill="#492A28" d="M17 54h1v1h-1z"/><path fill="#E07373" d="M18 54h1v1h-1z"/><path fill="#ED7979" d="M19 54h1v1h-1zM20 54h1v1h-1zM21 54h1v1h-1zM22 54h1v1h-1zM23 54h1v1h-1zM24 54h1v1h-1zM25 54h1v1h-1zM26 54h1v1h-1zM27 54h1v1h-1zM28 54h1v1h-1zM29 54h1v1h-1zM30 54h1v1h-1z"/><path fill="#E76D6D" d="M31 54h1v1h-1z"/><path fill="#DB5351" d="M32 54h1v1h-1zM33 54h1v1h-1zM34 54h1v1h-1zM35 54h1v1h-1zM36 54h1v1h-1z"/><path fill="#963D3B" d="M37 54h1v1h-1z"/><path fill="#512724" d="M38 54h1v1h-1z"/><path fill="#231815" d="M39 54h1v1h-1zM40 54h1v1h-1zM41 54h1v1h-1zM42 54h1v1h-1zM43 54h1v1h-1zM44 54h1v1h-1zM45 54h1v1h-1zM46 54h1v1h-1zM47 54h1v1h-1zM48 54h1v1h-1zM68 54h1v1h-1zM69 54h1v1h-1zM70 54h1v1h-1zM71 54h1v1h-1z"/><path fill="#71492B" d="M72 54h1v1h-1z"/><path fill="#BF7A41" d="M73 54h1v1h-1z"/><path fill="#302019" d="M74 54h1v1h-1z"/><path fill="#231815" d="M75 54h1v1h-1zM76 54h1v1h-1zM77 54h1v1h-1zM78 54h1v1h-1zM13 55h1v1h-1zM14 55h1v1h-1zM15 55h1v1h-1z"/><path fill="#2F1C19" d="M16 55h1v1h-1z"/><path fill="#DF7170" d="M17 55h1v1h-1z"/><path fill="#ED7979" d="M18 55h1v1h-1zM19 55h1v1h-1zM20 55h1v1h-1zM21 55h1v1h-1zM22 55h1v1h-1zM23 55h1v1h-1zM24 55h1v1h-1zM25 55h1v1h-1zM26 55h1v1h-1zM27 55h1v1h-1zM28 55h1v1h-1zM29 55h1v1h-1zM30 55h1v1h-1zM31 55h1v1h-1z"/><path fill="#E9706F" d="M32 55h1v1h-1z"/><path fill="#DC5554" d="M33 55h1v1h-1z"/><path fill="#D04F4D" d="M34 55h1v1h-1z"/><path fill="#7F3633" d="M35 55h1v1h-1z"/><path fill="#3A1F1D" d="M36 55h1v1h-1z"/><path fill="#231815" d="M37 55h1v1h-1zM38 55h1v1h-1zM39 55h1v1h-1zM40 55h1v1h-1zM41 55h1v1h-1zM42 55h1v1h-1zM43 55h1v1h-1zM44 55h1v1h-1zM45 55h1v1h-1zM67 55h1v1h-1zM68 55h1v1h-1zM69 55h1v1h-1zM70 55h1v1h-1z"/><path fill="#4A3020" d="M71 55h1v1h-1z"/><path fill="#F39A50" d="M72 55h1v1h-1zM73 55h1v1h-1z"/><path fill="#CC8245" d="M74 55h1v1h-1z"/><path fill="#3D281C" d="M75 55h1v1h-1z"/><path fill="#231815" d="M76 55h1v1h-1zM77 55h1v1h-1zM78 55h1v1h-1zM79 55h1v1h-1zM12 56h1v1h-1zM13 56h1v1h-1zM14 56h1v1h-1zM15 56h1v1h-1z"/><path fill="#A2413E" d="M16 56h1v1h-1z"/><path fill="#DE5A59" d="M17 56h1v1h-1z"/><path fill="#EC7777" d="M18 56h1v1h-1z"/><path fill="#ED7979" d="M19 56h1v1h-1zM20 56h1v1h-1zM21 56h1v1h-1zM22 56h1v1h-1zM23 56h1v1h-1zM24 56h1v1h-1zM25 56h1v1h-1zM26 56h1v1h-1zM27 56h1v1h-1zM28 56h1v1h-1zM29 56h1v1h-1zM30 56h1v1h-1zM31 56h1v1h-1zM32 56h1v1h-1z"/><path fill="#A05251" d="M33 56h1v1h-1z"/><path fill="#2F1C19" d="M34 56h1v1h-1z"/><path fill="#231815" d="M35 56h1v1h-1zM36 56h1v1h-1zM37 56h1v1h-1zM38 56h1v1h-1zM39 56h1v1h-1zM40 56h1v1h-1zM41 56h1v1h-1zM42 56h1v1h-1zM66 56h1v1h-1zM67 56h1v1h-1zM68 56h1v1h-1zM69 56h1v1h-1z"/><path fill="#4A3020" d="M70 56h1v1h-1z"/><path fill="#E6924C" d="M71 56h1v1h-1z"/><path fill="#F39A50" d="M72 56h1v1h-1zM73 56h1v1h-1zM74 56h1v1h-1z"/><path fill="#E6924C" d="M75 56h1v1h-1z"/><path fill="#4A3020" d="M76 56h1v1h-1z"/><path fill="#231815" d="M77 56h1v1h-1zM78 56h1v1h-1zM79 56h1v1h-1zM80 56h1v1h-1zM12 57h1v1h-1zM13 57h1v1h-1zM14 57h1v1h-1z"/><path fill="#512724" d="M15 57h1v1h-1z"/><path fill="#DB5351" d="M16 57h1v1h-1zM17 57h1v1h-1z"/><path fill="#DE5A59" d="M18 57h1v1h-1z"/><path fill="#EC7777" d="M19 57h1v1h-1z"/><path fill="#ED7979" d="M20 57h1v1h-1zM21 57h1v1h-1zM22 57h1v1h-1zM23 57h1v1h-1zM24 57h1v1h-1zM25 57h1v1h-1zM26 57h1v1h-1zM27 57h1v1h-1zM28 57h1v1h-1zM29 57h1v1h-1zM30 57h1v1h-1z"/><path fill="#D46D6D" d="M31 57h1v1h-1z"/><path fill="#56302E" d="M32 57h1v1h-1z"/><path fill="#231815" d="M33 57h1v1h-1zM34 57h1v1h-1zM35 57h1v1h-1zM36 57h1v1h-1zM37 57h1v1h-1zM38 57h1v1h-1zM39 57h1v1h-1zM65 57h1v1h-1zM66 57h1v1h-1zM67 57h1v1h-1zM68 57h1v1h-1z"/><path fill="#302019" d="M69 57h1v1h-1z"/><path fill="#E6924C" d="M70 57h1v1h-1z"/><path fill="#F39A50" d="M71 57h1v1h-1zM72 57h1v1h-1zM73 57h1v1h-1zM74 57h1v1h-1zM75 57h1v1h-1z"/><path fill="#E6924C" d="M76 57h1v1h-1z"/><path fill="#4A3020" d="M77 57h1v1h-1z"/><path fill="#231815" d="M78 57h1v1h-1zM79 57h1v1h-1zM80 57h1v1h-1zM81 57h1v1h-1zM11 58h1v1h-1zM12 58h1v1h-1zM13 58h1v1h-1zM14 58h1v1h-1z"/><path fill="#AD4442" d="M15 58h1v1h-1z"/><path fill="#DB5351" d="M16 58h1v1h-1zM17 58h1v1h-1zM18 58h1v1h-1z"/><path fill="#DE5A59" d="M19 58h1v1h-1z"/><path fill="#EC7777" d="M20 58h1v1h-1z"/><path fill="#ED7979" d="M21 58h1v1h-1zM22 58h1v1h-1zM23 58h1v1h-1zM24 58h1v1h-1zM25 58h1v1h-1zM26 58h1v1h-1zM27 58h1v1h-1zM28 58h1v1h-1zM29 58h1v1h-1z"/><path fill="#AE5B5A" d="M30 58h1v1h-1z"/><path fill="#301E1B" d="M31 58h1v1h-1z"/><path fill="#231815" d="M32 58h1v1h-1zM33 58h1v1h-1zM34 58h1v1h-1zM35 58h1v1h-1zM36 58h1v1h-1zM37 58h1v1h-1zM64 58h1v1h-1zM65 58h1v1h-1zM66 58h1v1h-1zM67 58h1v1h-1z"/><path fill="#302419" d="M68 58h1v1h-1z"/><path fill="#CEA446" d="M69 58h1v1h-1z"/><path fill="#F39E50" d="M70 58h1v1h-1z"/><path fill="#F39A50" d="M71 58h1v1h-1zM72 58h1v1h-1zM73 58h1v1h-1zM74 58h1v1h-1zM75 58h1v1h-1zM76 58h1v1h-1z"/><path fill="#E6924C" d="M77 58h1v1h-1z"/><path fill="#4A3020" d="M78 58h1v1h-1z"/><path fill="#231815" d="M79 58h1v1h-1zM80 58h1v1h-1zM81 58h1v1h-1zM82 58h1v1h-1zM11 59h1v1h-1zM12 59h1v1h-1zM13 59h1v1h-1z"/><path fill="#462320" d="M14 59h1v1h-1z"/><path fill="#DB5351" d="M15 59h1v1h-1zM16 59h1v1h-1zM17 59h1v1h-1zM18 59h1v1h-1zM19 59h1v1h-1z"/><path fill="#DE5A59" d="M20 59h1v1h-1z"/><path fill="#EA7272" d="M21 59h1v1h-1z"/><path fill="#ED7979" d="M22 59h1v1h-1zM23 59h1v1h-1zM24 59h1v1h-1zM25 59h1v1h-1zM26 59h1v1h-1zM27 59h1v1h-1zM28 59h1v1h-1z"/><path fill="#A15554" d="M29 59h1v1h-1z"/><path fill="#231815" d="M30 59h1v1h-1zM31 59h1v1h-1zM32 59h1v1h-1zM33 59h1v1h-1zM34 59h1v1h-1zM35 59h1v1h-1zM63 59h1v1h-1zM64 59h1v1h-1zM65 59h1v1h-1zM66 59h1v1h-1z"/><path fill="#302419" d="M67 59h1v1h-1z"/><path fill="#CEBA47" d="M68 59h1v1h-1z"/><path fill="#F6DF52" d="M69 59h1v1h-1z"/><path fill="#F5D252" d="M70 59h1v1h-1z"/><path fill="#F4A750" d="M71 59h1v1h-1z"/><path fill="#F39A50" d="M72 59h1v1h-1zM73 59h1v1h-1zM74 59h1v1h-1zM75 59h1v1h-1zM76 59h1v1h-1zM77 59h1v1h-1z"/><path fill="#E6924C" d="M78 59h1v1h-1z"/><path fill="#4A3020" d="M79 59h1v1h-1z"/><path fill="#231815" d="M80 59h1v1h-1zM81 59h1v1h-1zM82 59h1v1h-1zM83 59h1v1h-1zM11 60h1v1h-1zM12 60h1v1h-1zM13 60h1v1h-1z"/><path fill="#7F3633" d="M14 60h1v1h-1z"/><path fill="#DB5351" d="M15 60h1v1h-1zM16 60h1v1h-1zM17 60h1v1h-1zM18 60h1v1h-1zM19 60h1v1h-1zM20 60h1v1h-1z"/><path fill="#DC5554" d="M21 60h1v1h-1z"/><path fill="#E56868" d="M22 60h1v1h-1z"/><path fill="#ED7979" d="M23 60h1v1h-1zM24 60h1v1h-1zM25 60h1v1h-1zM26 60h1v1h-1zM27 60h1v1h-1z"/><path fill="#C76766" d="M28 60h1v1h-1z"/><path fill="#231815" d="M29 60h1v1h-1zM30 60h1v1h-1zM31 60h1v1h-1zM32 60h1v1h-1zM33 60h1v1h-1zM62 60h1v1h-1zM63 60h1v1h-1zM64 60h1v1h-1zM65 60h1v1h-1z"/><path fill="#302419" d="M66 60h1v1h-1z"/><path fill="#CEBA47" d="M67 60h1v1h-1z"/><path fill="#F6DF52" d="M68 60h1v1h-1zM69 60h1v1h-1zM70 60h1v1h-1z"/><path fill="#F6DB52" d="M71 60h1v1h-1z"/><path fill="#F4B851" d="M72 60h1v1h-1z"/><path fill="#F39A50" d="M73 60h1v1h-1zM74 60h1v1h-1zM75 60h1v1h-1zM76 60h1v1h-1zM77 60h1v1h-1zM78 60h1v1h-1z"/><path fill="#E6924C" d="M79 60h1v1h-1z"/><path fill="#4A3020" d="M80 60h1v1h-1z"/><path fill="#231815" d="M81 60h1v1h-1zM82 60h1v1h-1zM83 60h1v1h-1zM84 60h1v1h-1zM11 61h1v1h-1zM12 61h1v1h-1zM13 61h1v1h-1z"/><path fill="#AD4442" d="M14 61h1v1h-1z"/><path fill="#DB5351" d="M15 61h1v1h-1zM16 61h1v1h-1zM17 61h1v1h-1zM18 61h1v1h-1zM19 61h1v1h-1zM20 61h1v1h-1zM21 61h1v1h-1zM22 61h1v1h-1z"/><path fill="#DD5856" d="M23 61h1v1h-1z"/><path fill="#E66B6A" d="M24 61h1v1h-1z"/><path fill="#EC7777" d="M25 61h1v1h-1z"/><path fill="#ED7979" d="M26 61h1v1h-1z"/><path fill="#E07373" d="M27 61h1v1h-1z"/><path fill="#3C2422" d="M28 61h1v1h-1z"/><path fill="#231815" d="M29 61h1v1h-1zM30 61h1v1h-1zM31 61h1v1h-1zM32 61h1v1h-1zM61 61h1v1h-1zM62 61h1v1h-1zM63 61h1v1h-1zM64 61h1v1h-1z"/><path fill="#302419" d="M65 61h1v1h-1z"/><path fill="#CEBA47" d="M66 61h1v1h-1z"/><path fill="#F6DF52" d="M67 61h1v1h-1zM68 61h1v1h-1zM69 61h1v1h-1zM70 61h1v1h-1zM71 61h1v1h-1zM72 61h1v1h-1z"/><path fill="#F5D252" d="M73 61h1v1h-1z"/><path fill="#F4AB51" d="M74 61h1v1h-1z"/><path fill="#F39A50" d="M75 61h1v1h-1zM76 61h1v1h-1zM77 61h1v1h-1zM78 61h1v1h-1zM79 61h1v1h-1z"/><path fill="#E6924C" d="M80 61h1v1h-1z"/><path fill="#4A3020" d="M81 61h1v1h-1z"/><path fill="#231815" d="M82 61h1v1h-1zM83 61h1v1h-1zM84 61h1v1h-1zM85 61h1v1h-1zM11 62h1v1h-1zM12 62h1v1h-1zM13 62h1v1h-1z"/><path fill="#DB5351" d="M14 62h1v1h-1zM15 62h1v1h-1zM16 62h1v1h-1zM17 62h1v1h-1zM18 62h1v1h-1zM19 62h1v1h-1zM20 62h1v1h-1zM21 62h1v1h-1zM22 62h1v1h-1zM23 62h1v1h-1zM24 62h1v1h-1zM25 62h1v1h-1z"/><path fill="#E05D5B" d="M26 62h1v1h-1z"/><path fill="#854140" d="M27 62h1v1h-1z"/><path fill="#231815" d="M28 62h1v1h-1zM29 62h1v1h-1zM30 62h1v1h-1zM31 62h1v1h-1zM60 62h1v1h-1zM61 62h1v1h-1zM62 62h1v1h-1zM63 62h1v1h-1z"/><path fill="#302419" d="M64 62h1v1h-1z"/><path fill="#CEBA47" d="M65 62h1v1h-1z"/><path fill="#F6DF52" d="M66 62h1v1h-1zM67 62h1v1h-1zM68 62h1v1h-1zM69 62h1v1h-1zM70 62h1v1h-1zM71 62h1v1h-1zM72 62h1v1h-1zM73 62h1v1h-1zM74 62h1v1h-1z"/><path fill="#F5C551" d="M75 62h1v1h-1z"/><path fill="#F3A350" d="M76 62h1v1h-1z"/><path fill="#F39A50" d="M77 62h1v1h-1zM78 62h1v1h-1zM79 62h1v1h-1zM80 62h1v1h-1z"/><path fill="#E6924C" d="M81 62h1v1h-1z"/><path fill="#4A3020" d="M82 62h1v1h-1z"/><path fill="#231815" d="M83 62h1v1h-1zM84 62h1v1h-1zM85 62h1v1h-1zM86 62h1v1h-1zM10 63h1v1h-1zM11 63h1v1h-1zM12 63h1v1h-1z"/><path fill="#3A1F1D" d="M13 63h1v1h-1z"/><path fill="#DB5351" d="M14 63h1v1h-1zM15 63h1v1h-1zM16 63h1v1h-1zM17 63h1v1h-1zM18 63h1v1h-1zM19 63h1v1h-1zM20 63h1v1h-1zM21 63h1v1h-1zM22 63h1v1h-1zM23 63h1v1h-1zM24 63h1v1h-1zM25 63h1v1h-1z"/><path fill="#D04F4D" d="M26 63h1v1h-1z"/><path fill="#2F1C19" d="M27 63h1v1h-1z"/><path fill="#231815" d="M28 63h1v1h-1zM29 63h1v1h-1zM30 63h1v1h-1zM59 63h1v1h-1zM60 63h1v1h-1zM61 63h1v1h-1zM62 63h1v1h-1z"/><path fill="#4B3D20" d="M63 63h1v1h-1z"/><path fill="#CEBA47" d="M64 63h1v1h-1z"/><path fill="#F6DF52" d="M65 63h1v1h-1zM66 63h1v1h-1zM67 63h1v1h-1zM68 63h1v1h-1zM69 63h1v1h-1zM70 63h1v1h-1zM71 63h1v1h-1zM72 63h1v1h-1zM73 63h1v1h-1zM74 63h1v1h-1zM75 63h1v1h-1zM76 63h1v1h-1z"/><path fill="#F5C551" d="M77 63h1v1h-1z"/><path fill="#F3A350" d="M78 63h1v1h-1z"/><path fill="#F39A50" d="M79 63h1v1h-1zM80 63h1v1h-1zM81 63h1v1h-1z"/><path fill="#E6924C" d="M82 63h1v1h-1z"/><path fill="#4A3020" d="M83 63h1v1h-1z"/><path fill="#231815" d="M84 63h1v1h-1zM85 63h1v1h-1zM86 63h1v1h-1zM87 63h1v1h-1zM10 64h1v1h-1zM11 64h1v1h-1zM12 64h1v1h-1z"/><path fill="#512724" d="M13 64h1v1h-1z"/><path fill="#DB5351" d="M14 64h1v1h-1zM15 64h1v1h-1zM16 64h1v1h-1zM17 64h1v1h-1zM18 64h1v1h-1zM19 64h1v1h-1zM20 64h1v1h-1zM21 64h1v1h-1zM22 64h1v1h-1zM23 64h1v1h-1zM24 64h1v1h-1zM25 64h1v1h-1z"/><path fill="#963D3B" d="M26 64h1v1h-1z"/><path fill="#231815" d="M27 64h1v1h-1zM28 64h1v1h-1zM29 64h1v1h-1zM57 64h1v1h-1zM58 64h1v1h-1zM59 64h1v1h-1zM60 64h1v1h-1zM61 64h1v1h-1z"/><path fill="#4B3D20" d="M62 64h1v1h-1z"/><path fill="#E9D34E" d="M63 64h1v1h-1z"/><path fill="#F6DF52" d="M64 64h1v1h-1zM65 64h1v1h-1zM66 64h1v1h-1zM67 64h1v1h-1zM68 64h1v1h-1zM69 64h1v1h-1zM70 64h1v1h-1zM71 64h1v1h-1zM72 64h1v1h-1zM73 64h1v1h-1zM74 64h1v1h-1zM75 64h1v1h-1zM76 64h1v1h-1zM77 64h1v1h-1zM78 64h1v1h-1z"/><path fill="#F5C951" d="M79 64h1v1h-1z"/><path fill="#F4B051" d="M80 64h1v1h-1z"/><path fill="#F39A50" d="M81 64h1v1h-1zM82 64h1v1h-1z"/><path fill="#BF7A41" d="M83 64h1v1h-1z"/><path fill="#231815" d="M84 64h1v1h-1zM85 64h1v1h-1zM86 64h1v1h-1zM87 64h1v1h-1zM10 65h1v1h-1zM11 65h1v1h-1zM12 65h1v1h-1z"/><path fill="#512724" d="M13 65h1v1h-1z"/><path fill="#DB5351" d="M14 65h1v1h-1zM15 65h1v1h-1zM16 65h1v1h-1zM17 65h1v1h-1zM18 65h1v1h-1zM19 65h1v1h-1zM20 65h1v1h-1zM21 65h1v1h-1zM22 65h1v1h-1zM23 65h1v1h-1zM24 65h1v1h-1zM25 65h1v1h-1z"/><path fill="#682E2C" d="M26 65h1v1h-1z"/><path fill="#231815" d="M27 65h1v1h-1zM28 65h1v1h-1zM29 65h1v1h-1zM56 65h1v1h-1zM57 65h1v1h-1zM58 65h1v1h-1zM59 65h1v1h-1zM60 65h1v1h-1z"/><path fill="#584A24" d="M61 65h1v1h-1z"/><path fill="#E9D34E" d="M62 65h1v1h-1z"/><path fill="#F6DF52" d="M63 65h1v1h-1zM64 65h1v1h-1zM65 65h1v1h-1zM66 65h1v1h-1zM67 65h1v1h-1zM68 65h1v1h-1zM69 65h1v1h-1zM70 65h1v1h-1zM71 65h1v1h-1zM72 65h1v1h-1zM73 65h1v1h-1zM74 65h1v1h-1zM75 65h1v1h-1zM76 65h1v1h-1zM77 65h1v1h-1zM78 65h1v1h-1zM79 65h1v1h-1zM80 65h1v1h-1z"/><path fill="#F6D652" d="M81 65h1v1h-1z"/><path fill="#A67B3A" d="M82 65h1v1h-1z"/><path fill="#302019" d="M83 65h1v1h-1z"/><path fill="#231815" d="M84 65h1v1h-1zM85 65h1v1h-1zM86 65h1v1h-1zM87 65h1v1h-1zM10 66h1v1h-1zM11 66h1v1h-1zM12 66h1v1h-1z"/><path fill="#512724" d="M13 66h1v1h-1z"/><path fill="#DB5351" d="M14 66h1v1h-1zM15 66h1v1h-1zM16 66h1v1h-1zM17 66h1v1h-1zM18 66h1v1h-1zM19 66h1v1h-1zM20 66h1v1h-1zM21 66h1v1h-1zM22 66h1v1h-1zM23 66h1v1h-1zM24 66h1v1h-1zM25 66h1v1h-1z"/><path fill="#512724" d="M26 66h1v1h-1z"/><path fill="#231815" d="M27 66h1v1h-1zM28 66h1v1h-1zM29 66h1v1h-1zM55 66h1v1h-1zM56 66h1v1h-1zM57 66h1v1h-1zM58 66h1v1h-1zM59 66h1v1h-1z"/><path fill="#72632C" d="M60 66h1v1h-1z"/><path fill="#F6DF52" d="M61 66h1v1h-1zM62 66h1v1h-1zM63 66h1v1h-1zM64 66h1v1h-1zM65 66h1v1h-1zM66 66h1v1h-1zM67 66h1v1h-1zM68 66h1v1h-1zM69 66h1v1h-1zM70 66h1v1h-1zM71 66h1v1h-1zM72 66h1v1h-1zM73 66h1v1h-1zM74 66h1v1h-1zM75 66h1v1h-1zM76 66h1v1h-1zM77 66h1v1h-1zM78 66h1v1h-1zM79 66h1v1h-1zM80 66h1v1h-1z"/><path fill="#7F6F30" d="M81 66h1v1h-1z"/><path fill="#231815" d="M82 66h1v1h-1zM83 66h1v1h-1zM84 66h1v1h-1zM85 66h1v1h-1zM86 66h1v1h-1zM10 67h1v1h-1zM11 67h1v1h-1zM12 67h1v1h-1z"/><path fill="#462320" d="M13 67h1v1h-1z"/><path fill="#DB5351" d="M14 67h1v1h-1zM15 67h1v1h-1zM16 67h1v1h-1zM17 67h1v1h-1zM18 67h1v1h-1zM19 67h1v1h-1zM20 67h1v1h-1zM21 67h1v1h-1zM22 67h1v1h-1zM23 67h1v1h-1zM24 67h1v1h-1zM25 67h1v1h-1z"/><path fill="#74322F" d="M26 67h1v1h-1z"/><path fill="#231815" d="M27 67h1v1h-1zM28 67h1v1h-1zM29 67h1v1h-1zM53 67h1v1h-1zM54 67h1v1h-1zM55 67h1v1h-1zM56 67h1v1h-1zM57 67h1v1h-1zM58 67h1v1h-1z"/><path fill="#A7943B" d="M59 67h1v1h-1z"/><path fill="#F6DF52" d="M60 67h1v1h-1zM61 67h1v1h-1zM62 67h1v1h-1zM63 67h1v1h-1zM64 67h1v1h-1zM65 67h1v1h-1zM66 67h1v1h-1zM67 67h1v1h-1zM68 67h1v1h-1zM69 67h1v1h-1zM70 67h1v1h-1zM71 67h1v1h-1zM72 67h1v1h-1zM73 67h1v1h-1zM74 67h1v1h-1zM75 67h1v1h-1zM76 67h1v1h-1zM77 67h1v1h-1zM78 67h1v1h-1z"/><path fill="#DCC64A" d="M79 67h1v1h-1z"/><path fill="#4B3D20" d="M80 67h1v1h-1z"/><path fill="#231815" d="M81 67h1v1h-1zM82 67h1v1h-1zM83 67h1v1h-1zM84 67h1v1h-1zM85 67h1v1h-1zM11 68h1v1h-1zM12 68h1v1h-1zM13 68h1v1h-1z"/><path fill="#B83435" d="M14 68h1v1h-1z"/><path fill="#C64040" d="M15 68h1v1h-1z"/><path fill="#D04A48" d="M16 68h1v1h-1z"/><path fill="#DB5351" d="M17 68h1v1h-1zM18 68h1v1h-1zM19 68h1v1h-1zM20 68h1v1h-1zM21 68h1v1h-1zM22 68h1v1h-1zM23 68h1v1h-1zM24 68h1v1h-1zM25 68h1v1h-1z"/><path fill="#8B3937" d="M26 68h1v1h-1z"/><path fill="#231815" d="M27 68h1v1h-1zM28 68h1v1h-1zM29 68h1v1h-1zM52 68h1v1h-1zM53 68h1v1h-1zM54 68h1v1h-1zM55 68h1v1h-1zM56 68h1v1h-1z"/><path fill="#302419" d="M57 68h1v1h-1z"/><path fill="#CEBA47" d="M58 68h1v1h-1z"/><path fill="#F6DF52" d="M59 68h1v1h-1zM60 68h1v1h-1zM61 68h1v1h-1zM62 68h1v1h-1zM63 68h1v1h-1zM64 68h1v1h-1zM65 68h1v1h-1zM66 68h1v1h-1zM67 68h1v1h-1zM68 68h1v1h-1zM69 68h1v1h-1zM70 68h1v1h-1zM71 68h1v1h-1zM72 68h1v1h-1zM73 68h1v1h-1zM74 68h1v1h-1zM75 68h1v1h-1zM76 68h1v1h-1zM77 68h1v1h-1z"/><path fill="#B4A13F" d="M78 68h1v1h-1z"/><path fill="#302419" d="M79 68h1v1h-1z"/><path fill="#231815" d="M80 68h1v1h-1zM81 68h1v1h-1zM82 68h1v1h-1zM83 68h1v1h-1zM84 68h1v1h-1zM11 69h1v1h-1zM12 69h1v1h-1zM13 69h1v1h-1z"/><path fill="#9E2A2B" d="M14 69h1v1h-1z"/><path fill="#B02D2E" d="M15 69h1v1h-1zM16 69h1v1h-1zM17 69h1v1h-1z"/><path fill="#BB3737" d="M18 69h1v1h-1z"/><path fill="#C33E3D" d="M19 69h1v1h-1z"/><path fill="#CB4544" d="M20 69h1v1h-1z"/><path fill="#D34C4A" d="M21 69h1v1h-1z"/><path fill="#DB5351" d="M22 69h1v1h-1zM23 69h1v1h-1zM24 69h1v1h-1zM25 69h1v1h-1z"/><path fill="#B94846" d="M26 69h1v1h-1z"/><path fill="#231815" d="M27 69h1v1h-1zM28 69h1v1h-1zM29 69h1v1h-1zM30 69h1v1h-1zM50 69h1v1h-1zM51 69h1v1h-1zM52 69h1v1h-1zM53 69h1v1h-1zM54 69h1v1h-1zM55 69h1v1h-1z"/><path fill="#584A24" d="M56 69h1v1h-1z"/><path fill="#E9D34E" d="M57 69h1v1h-1z"/><path fill="#F6DF52" d="M58 69h1v1h-1zM59 69h1v1h-1zM60 69h1v1h-1zM61 69h1v1h-1zM62 69h1v1h-1zM63 69h1v1h-1zM64 69h1v1h-1zM65 69h1v1h-1zM66 69h1v1h-1zM67 69h1v1h-1zM68 69h1v1h-1zM69 69h1v1h-1zM70 69h1v1h-1zM71 69h1v1h-1zM72 69h1v1h-1zM73 69h1v1h-1zM74 69h1v1h-1zM75 69h1v1h-1z"/><path fill="#E9D34E" d="M76 69h1v1h-1z"/><path fill="#7F6F30" d="M77 69h1v1h-1z"/><path fill="#231815" d="M78 69h1v1h-1zM79 69h1v1h-1zM80 69h1v1h-1zM81 69h1v1h-1zM82 69h1v1h-1zM11 70h1v1h-1zM12 70h1v1h-1zM13 70h1v1h-1z"/><path fill="#7B2525" d="M14 70h1v1h-1z"/><path fill="#B02D2E" d="M15 70h1v1h-1zM16 70h1v1h-1zM17 70h1v1h-1zM18 70h1v1h-1zM19 70h1v1h-1zM20 70h1v1h-1zM21 70h1v1h-1zM22 70h1v1h-1z"/><path fill="#B53232" d="M23 70h1v1h-1z"/><path fill="#BB3737" d="M24 70h1v1h-1zM25 70h1v1h-1z"/><path fill="#C33E3D" d="M26 70h1v1h-1z"/><path fill="#351B18" d="M27 70h1v1h-1z"/><path fill="#231815" d="M28 70h1v1h-1zM29 70h1v1h-1zM30 70h1v1h-1zM49 70h1v1h-1zM50 70h1v1h-1zM51 70h1v1h-1zM52 70h1v1h-1zM53 70h1v1h-1zM54 70h1v1h-1z"/><path fill="#8D7C34" d="M55 70h1v1h-1z"/><path fill="#F6DF52" d="M56 70h1v1h-1zM57 70h1v1h-1zM58 70h1v1h-1zM59 70h1v1h-1zM60 70h1v1h-1zM61 70h1v1h-1zM62 70h1v1h-1zM63 70h1v1h-1zM64 70h1v1h-1zM65 70h1v1h-1zM66 70h1v1h-1zM67 70h1v1h-1zM68 70h1v1h-1zM69 70h1v1h-1zM70 70h1v1h-1zM71 70h1v1h-1zM72 70h1v1h-1zM73 70h1v1h-1zM74 70h1v1h-1z"/><path fill="#CEBA47" d="M75 70h1v1h-1z"/><path fill="#4B3D20" d="M76 70h1v1h-1z"/><path fill="#231815" d="M77 70h1v1h-1zM78 70h1v1h-1zM79 70h1v1h-1zM80 70h1v1h-1zM81 70h1v1h-1zM11 71h1v1h-1zM12 71h1v1h-1zM13 71h1v1h-1z"/><path fill="#4F1F1D" d="M14 71h1v1h-1z"/><path fill="#B02D2E" d="M15 71h1v1h-1zM16 71h1v1h-1zM17 71h1v1h-1zM18 71h1v1h-1zM19 71h1v1h-1zM20 71h1v1h-1zM21 71h1v1h-1zM22 71h1v1h-1zM23 71h1v1h-1zM24 71h1v1h-1zM25 71h1v1h-1zM26 71h1v1h-1z"/><path fill="#7B2525" d="M27 71h1v1h-1z"/><path fill="#231815" d="M28 71h1v1h-1zM29 71h1v1h-1zM30 71h1v1h-1zM31 71h1v1h-1zM47 71h1v1h-1zM48 71h1v1h-1zM49 71h1v1h-1zM50 71h1v1h-1zM51 71h1v1h-1zM52 71h1v1h-1z"/><path fill="#4B3D20" d="M53 71h1v1h-1z"/><path fill="#CEBA47" d="M54 71h1v1h-1z"/><path fill="#F6DF52" d="M55 71h1v1h-1zM56 71h1v1h-1zM57 71h1v1h-1zM58 71h1v1h-1zM59 71h1v1h-1zM60 71h1v1h-1zM61 71h1v1h-1zM62 71h1v1h-1zM63 71h1v1h-1zM64 71h1v1h-1zM65 71h1v1h-1zM66 71h1v1h-1zM67 71h1v1h-1zM68 71h1v1h-1zM69 71h1v1h-1zM70 71h1v1h-1zM71 71h1v1h-1zM72 71h1v1h-1zM73 71h1v1h-1z"/><path fill="#9A8837" d="M74 71h1v1h-1z"/><path fill="#231815" d="M75 71h1v1h-1zM76 71h1v1h-1zM77 71h1v1h-1zM78 71h1v1h-1zM79 71h1v1h-1zM80 71h1v1h-1zM11 72h1v1h-1zM12 72h1v1h-1zM13 72h1v1h-1zM14 72h1v1h-1z"/><path fill="#A72C2C" d="M15 72h1v1h-1z"/><path fill="#B02D2E" d="M16 72h1v1h-1zM17 72h1v1h-1zM18 72h1v1h-1zM19 72h1v1h-1zM20 72h1v1h-1zM21 72h1v1h-1zM22 72h1v1h-1zM23 72h1v1h-1zM24 72h1v1h-1zM25 72h1v1h-1zM26 72h1v1h-1zM27 72h1v1h-1z"/><path fill="#351B18" d="M28 72h1v1h-1z"/><path fill="#231815" d="M29 72h1v1h-1zM30 72h1v1h-1zM31 72h1v1h-1zM32 72h1v1h-1zM45 72h1v1h-1zM46 72h1v1h-1zM47 72h1v1h-1zM48 72h1v1h-1zM49 72h1v1h-1zM50 72h1v1h-1zM51 72h1v1h-1z"/><path fill="#8D7C34" d="M52 72h1v1h-1z"/><path fill="#F6DF52" d="M53 72h1v1h-1zM54 72h1v1h-1zM55 72h1v1h-1zM56 72h1v1h-1zM57 72h1v1h-1zM58 72h1v1h-1zM59 72h1v1h-1zM60 72h1v1h-1zM61 72h1v1h-1zM62 72h1v1h-1zM63 72h1v1h-1zM64 72h1v1h-1zM65 72h1v1h-1zM66 72h1v1h-1zM67 72h1v1h-1zM68 72h1v1h-1zM69 72h1v1h-1zM70 72h1v1h-1zM71 72h1v1h-1z"/><path fill="#DCC64A" d="M72 72h1v1h-1z"/><path fill="#584A24" d="M73 72h1v1h-1z"/><path fill="#231815" d="M74 72h1v1h-1zM75 72h1v1h-1zM76 72h1v1h-1zM77 72h1v1h-1zM78 72h1v1h-1zM12 73h1v1h-1zM13 73h1v1h-1zM14 73h1v1h-1z"/><path fill="#6A2322" d="M15 73h1v1h-1z"/><path fill="#B02D2E" d="M16 73h1v1h-1zM17 73h1v1h-1zM18 73h1v1h-1zM19 73h1v1h-1zM20 73h1v1h-1zM21 73h1v1h-1zM22 73h1v1h-1zM23 73h1v1h-1zM24 73h1v1h-1zM25 73h1v1h-1zM26 73h1v1h-1zM27 73h1v1h-1z"/><path fill="#962929" d="M28 73h1v1h-1z"/><path fill="#231815" d="M29 73h1v1h-1zM30 73h1v1h-1zM31 73h1v1h-1zM32 73h1v1h-1zM33 73h1v1h-1zM43 73h1v1h-1zM44 73h1v1h-1zM45 73h1v1h-1zM46 73h1v1h-1zM47 73h1v1h-1zM48 73h1v1h-1zM49 73h1v1h-1z"/><path fill="#573924" d="M50 73h1v1h-1z"/><path fill="#CD9C46" d="M51 73h1v1h-1z"/><path fill="#F6DB52" d="M52 73h1v1h-1z"/><path fill="#F6DF52" d="M53 73h1v1h-1zM54 73h1v1h-1zM55 73h1v1h-1zM56 73h1v1h-1zM57 73h1v1h-1zM58 73h1v1h-1zM59 73h1v1h-1zM60 73h1v1h-1zM61 73h1v1h-1zM62 73h1v1h-1zM63 73h1v1h-1zM64 73h1v1h-1zM65 73h1v1h-1zM66 73h1v1h-1zM67 73h1v1h-1zM68 73h1v1h-1zM69 73h1v1h-1zM70 73h1v1h-1z"/><path fill="#9A8837" d="M71 73h1v1h-1z"/><path fill="#302419" d="M72 73h1v1h-1z"/><path fill="#231815" d="M73 73h1v1h-1zM74 73h1v1h-1zM75 73h1v1h-1zM76 73h1v1h-1zM77 73h1v1h-1zM12 74h1v1h-1zM13 74h1v1h-1zM14 74h1v1h-1z"/><path fill="#2C1917" d="M15 74h1v1h-1z"/><path fill="#A72C2C" d="M16 74h1v1h-1z"/><path fill="#B02D2E" d="M17 74h1v1h-1zM18 74h1v1h-1zM19 74h1v1h-1zM20 74h1v1h-1zM21 74h1v1h-1zM22 74h1v1h-1zM23 74h1v1h-1zM24 74h1v1h-1zM25 74h1v1h-1zM26 74h1v1h-1zM27 74h1v1h-1zM28 74h1v1h-1z"/><path fill="#7B2525" d="M29 74h1v1h-1z"/><path fill="#231815" d="M30 74h1v1h-1zM31 74h1v1h-1zM32 74h1v1h-1zM33 74h1v1h-1zM34 74h1v1h-1zM35 74h1v1h-1zM40 74h1v1h-1zM41 74h1v1h-1zM42 74h1v1h-1zM43 74h1v1h-1zM44 74h1v1h-1zM45 74h1v1h-1zM46 74h1v1h-1zM47 74h1v1h-1z"/><path fill="#3D281C" d="M48 74h1v1h-1z"/><path fill="#B2713E" d="M49 74h1v1h-1z"/><path fill="#F39A50" d="M50 74h1v1h-1zM51 74h1v1h-1z"/><path fill="#F3A350" d="M52 74h1v1h-1z"/><path fill="#F5C551" d="M53 74h1v1h-1z"/><path fill="#F6DF52" d="M54 74h1v1h-1zM55 74h1v1h-1zM56 74h1v1h-1zM57 74h1v1h-1zM58 74h1v1h-1zM59 74h1v1h-1zM60 74h1v1h-1zM61 74h1v1h-1zM62 74h1v1h-1zM63 74h1v1h-1zM64 74h1v1h-1zM65 74h1v1h-1zM66 74h1v1h-1zM67 74h1v1h-1zM68 74h1v1h-1z"/><path fill="#DCC64A" d="M69 74h1v1h-1z"/><path fill="#584A24" d="M70 74h1v1h-1z"/><path fill="#231815" d="M71 74h1v1h-1zM72 74h1v1h-1zM73 74h1v1h-1zM74 74h1v1h-1zM75 74h1v1h-1zM76 74h1v1h-1zM12 75h1v1h-1zM13 75h1v1h-1zM14 75h1v1h-1zM15 75h1v1h-1z"/><path fill="#612120" d="M16 75h1v1h-1z"/><path fill="#B02D2E" d="M17 75h1v1h-1zM18 75h1v1h-1zM19 75h1v1h-1zM20 75h1v1h-1zM21 75h1v1h-1zM22 75h1v1h-1zM23 75h1v1h-1zM24 75h1v1h-1zM25 75h1v1h-1zM26 75h1v1h-1zM27 75h1v1h-1zM28 75h1v1h-1zM29 75h1v1h-1z"/><path fill="#7B2525" d="M30 75h1v1h-1z"/><path fill="#231815" d="M31 75h1v1h-1zM32 75h1v1h-1zM33 75h1v1h-1zM34 75h1v1h-1zM35 75h1v1h-1zM36 75h1v1h-1zM37 75h1v1h-1zM38 75h1v1h-1zM39 75h1v1h-1zM40 75h1v1h-1zM41 75h1v1h-1zM42 75h1v1h-1zM43 75h1v1h-1zM44 75h1v1h-1zM45 75h1v1h-1z"/><path fill="#3D281C" d="M46 75h1v1h-1z"/><path fill="#A5693A" d="M47 75h1v1h-1z"/><path fill="#F39A50" d="M48 75h1v1h-1zM49 75h1v1h-1zM50 75h1v1h-1zM51 75h1v1h-1zM52 75h1v1h-1zM53 75h1v1h-1z"/><path fill="#F4A750" d="M54 75h1v1h-1z"/><path fill="#F5CE52" d="M55 75h1v1h-1z"/><path fill="#F6DF52" d="M56 75h1v1h-1zM57 75h1v1h-1zM58 75h1v1h-1zM59 75h1v1h-1zM60 75h1v1h-1zM61 75h1v1h-1zM62 75h1v1h-1zM63 75h1v1h-1zM64 75h1v1h-1zM65 75h1v1h-1zM66 75h1v1h-1zM67 75h1v1h-1z"/><path fill="#8D7C34" d="M68 75h1v1h-1z"/><path fill="#231815" d="M69 75h1v1h-1zM70 75h1v1h-1zM71 75h1v1h-1zM72 75h1v1h-1zM73 75h1v1h-1zM74 75h1v1h-1zM13 76h1v1h-1zM14 76h1v1h-1zM15 76h1v1h-1zM16 76h1v1h-1z"/><path fill="#8D2828" d="M17 76h1v1h-1z"/><path fill="#B02D2E" d="M18 76h1v1h-1zM19 76h1v1h-1zM20 76h1v1h-1zM21 76h1v1h-1zM22 76h1v1h-1zM23 76h1v1h-1zM24 76h1v1h-1zM25 76h1v1h-1zM26 76h1v1h-1zM27 76h1v1h-1zM28 76h1v1h-1zM29 76h1v1h-1zM30 76h1v1h-1z"/><path fill="#8D2828" d="M31 76h1v1h-1z"/><path fill="#351B18" d="M32 76h1v1h-1z"/><path fill="#231815" d="M33 76h1v1h-1zM34 76h1v1h-1zM35 76h1v1h-1zM36 76h1v1h-1zM37 76h1v1h-1zM38 76h1v1h-1zM39 76h1v1h-1zM40 76h1v1h-1zM41 76h1v1h-1zM42 76h1v1h-1zM43 76h1v1h-1z"/><path fill="#573924" d="M44 76h1v1h-1z"/><path fill="#B2713E" d="M45 76h1v1h-1z"/><path fill="#F39A50" d="M46 76h1v1h-1zM47 76h1v1h-1zM48 76h1v1h-1zM49 76h1v1h-1zM50 76h1v1h-1zM51 76h1v1h-1zM52 76h1v1h-1zM53 76h1v1h-1zM54 76h1v1h-1zM55 76h1v1h-1z"/><path fill="#F3A350" d="M56 76h1v1h-1z"/><path fill="#F5C551" d="M57 76h1v1h-1z"/><path fill="#F6DF52" d="M58 76h1v1h-1zM59 76h1v1h-1zM60 76h1v1h-1zM61 76h1v1h-1zM62 76h1v1h-1zM63 76h1v1h-1zM64 76h1v1h-1zM65 76h1v1h-1z"/><path fill="#C1AD43" d="M66 76h1v1h-1z"/><path fill="#3D311D" d="M67 76h1v1h-1z"/><path fill="#231815" d="M68 76h1v1h-1zM69 76h1v1h-1zM70 76h1v1h-1zM71 76h1v1h-1zM72 76h1v1h-1zM73 76h1v1h-1zM14 77h1v1h-1zM15 77h1v1h-1zM16 77h1v1h-1z"/><path fill="#2C1917" d="M17 77h1v1h-1z"/><path fill="#962929" d="M18 77h1v1h-1z"/><path fill="#B02D2E" d="M19 77h1v1h-1zM20 77h1v1h-1zM21 77h1v1h-1zM22 77h1v1h-1zM23 77h1v1h-1zM24 77h1v1h-1zM25 77h1v1h-1zM26 77h1v1h-1zM27 77h1v1h-1zM28 77h1v1h-1zM29 77h1v1h-1zM30 77h1v1h-1zM31 77h1v1h-1zM32 77h1v1h-1z"/><path fill="#883F31" d="M33 77h1v1h-1z"/><path fill="#43271F" d="M34 77h1v1h-1z"/><path fill="#231815" d="M35 77h1v1h-1zM36 77h1v1h-1zM37 77h1v1h-1zM38 77h1v1h-1zM39 77h1v1h-1z"/><path fill="#302019" d="M40 77h1v1h-1z"/><path fill="#644127" d="M41 77h1v1h-1z"/><path fill="#986136" d="M42 77h1v1h-1z"/><path fill="#D98A49" d="M43 77h1v1h-1z"/><path fill="#F39A50" d="M44 77h1v1h-1zM45 77h1v1h-1zM46 77h1v1h-1zM47 77h1v1h-1zM48 77h1v1h-1zM49 77h1v1h-1zM50 77h1v1h-1zM51 77h1v1h-1zM52 77h1v1h-1zM53 77h1v1h-1zM54 77h1v1h-1zM55 77h1v1h-1zM56 77h1v1h-1zM57 77h1v1h-1z"/><path fill="#F39E50" d="M58 77h1v1h-1z"/><path fill="#F4B451" d="M59 77h1v1h-1z"/><path fill="#F5CE52" d="M60 77h1v1h-1z"/><path fill="#F6DF52" d="M61 77h1v1h-1zM62 77h1v1h-1zM63 77h1v1h-1z"/><path fill="#DCC64A" d="M64 77h1v1h-1z"/><path fill="#72632C" d="M65 77h1v1h-1z"/><path fill="#231815" d="M66 77h1v1h-1zM67 77h1v1h-1zM68 77h1v1h-1zM69 77h1v1h-1zM70 77h1v1h-1zM71 77h1v1h-1zM14 78h1v1h-1zM15 78h1v1h-1zM16 78h1v1h-1zM17 78h1v1h-1z"/><path fill="#351B18" d="M18 78h1v1h-1z"/><path fill="#A72C2C" d="M19 78h1v1h-1z"/><path fill="#B02D2E" d="M20 78h1v1h-1zM21 78h1v1h-1zM22 78h1v1h-1zM23 78h1v1h-1zM24 78h1v1h-1zM25 78h1v1h-1zM26 78h1v1h-1zM27 78h1v1h-1zM28 78h1v1h-1zM29 78h1v1h-1zM30 78h1v1h-1zM31 78h1v1h-1zM32 78h1v1h-1z"/><path fill="#C45642" d="M33 78h1v1h-1z"/><path fill="#CD684B" d="M34 78h1v1h-1zM35 78h1v1h-1z"/><path fill="#A3543E" d="M36 78h1v1h-1z"/><path fill="#B87040" d="M37 78h1v1h-1z"/><path fill="#BF7A41" d="M38 78h1v1h-1z"/><path fill="#D98A49" d="M39 78h1v1h-1z"/><path fill="#F39A50" d="M40 78h1v1h-1zM41 78h1v1h-1zM42 78h1v1h-1zM43 78h1v1h-1zM44 78h1v1h-1zM45 78h1v1h-1zM46 78h1v1h-1zM47 78h1v1h-1zM48 78h1v1h-1zM49 78h1v1h-1zM50 78h1v1h-1zM51 78h1v1h-1zM52 78h1v1h-1zM53 78h1v1h-1zM54 78h1v1h-1zM55 78h1v1h-1zM56 78h1v1h-1zM57 78h1v1h-1zM58 78h1v1h-1zM59 78h1v1h-1zM60 78h1v1h-1z"/><path fill="#F39E50" d="M61 78h1v1h-1z"/><path fill="#E7AC4D" d="M62 78h1v1h-1z"/><path fill="#8C7733" d="M63 78h1v1h-1z"/><path fill="#302419" d="M64 78h1v1h-1z"/><path fill="#231815" d="M65 78h1v1h-1zM66 78h1v1h-1zM67 78h1v1h-1zM68 78h1v1h-1zM69 78h1v1h-1zM70 78h1v1h-1zM15 79h1v1h-1zM16 79h1v1h-1zM17 79h1v1h-1zM18 79h1v1h-1z"/><path fill="#2C1917" d="M19 79h1v1h-1z"/><path fill="#962929" d="M20 79h1v1h-1z"/><path fill="#B02D2E" d="M21 79h1v1h-1zM22 79h1v1h-1zM23 79h1v1h-1zM24 79h1v1h-1zM25 79h1v1h-1zM26 79h1v1h-1zM27 79h1v1h-1zM28 79h1v1h-1zM29 79h1v1h-1zM30 79h1v1h-1zM31 79h1v1h-1zM32 79h1v1h-1z"/><path fill="#BD473B" d="M33 79h1v1h-1z"/><path fill="#CD684B" d="M34 79h1v1h-1zM35 79h1v1h-1zM36 79h1v1h-1z"/><path fill="#CF6B4B" d="M37 79h1v1h-1z"/><path fill="#E2844E" d="M38 79h1v1h-1z"/><path fill="#F39A50" d="M39 79h1v1h-1zM40 79h1v1h-1zM41 79h1v1h-1zM42 79h1v1h-1zM43 79h1v1h-1zM44 79h1v1h-1zM45 79h1v1h-1zM46 79h1v1h-1zM47 79h1v1h-1zM48 79h1v1h-1zM49 79h1v1h-1zM50 79h1v1h-1zM51 79h1v1h-1zM52 79h1v1h-1zM53 79h1v1h-1zM54 79h1v1h-1zM55 79h1v1h-1zM56 79h1v1h-1zM57 79h1v1h-1zM58 79h1v1h-1zM59 79h1v1h-1zM60 79h1v1h-1z"/><path fill="#A5693A" d="M61 79h1v1h-1z"/><path fill="#3D281C" d="M62 79h1v1h-1z"/><path fill="#231815" d="M63 79h1v1h-1zM64 79h1v1h-1zM65 79h1v1h-1zM66 79h1v1h-1zM67 79h1v1h-1zM68 79h1v1h-1zM16 80h1v1h-1zM17 80h1v1h-1zM18 80h1v1h-1zM19 80h1v1h-1z"/><path fill="#2C1917" d="M20 80h1v1h-1z"/><path fill="#842626" d="M21 80h1v1h-1z"/><path fill="#B02D2E" d="M22 80h1v1h-1zM23 80h1v1h-1zM24 80h1v1h-1zM25 80h1v1h-1zM26 80h1v1h-1zM27 80h1v1h-1zM28 80h1v1h-1zM29 80h1v1h-1zM30 80h1v1h-1zM31 80h1v1h-1zM32 80h1v1h-1z"/><path fill="#B23130" d="M33 80h1v1h-1z"/><path fill="#CB6449" d="M34 80h1v1h-1z"/><path fill="#CD684B" d="M35 80h1v1h-1zM36 80h1v1h-1zM37 80h1v1h-1zM38 80h1v1h-1z"/><path fill="#D7754C" d="M39 80h1v1h-1z"/><path fill="#EE944F" d="M40 80h1v1h-1z"/><path fill="#F39A50" d="M41 80h1v1h-1zM42 80h1v1h-1zM43 80h1v1h-1zM44 80h1v1h-1zM45 80h1v1h-1zM46 80h1v1h-1zM47 80h1v1h-1zM48 80h1v1h-1zM49 80h1v1h-1zM50 80h1v1h-1zM51 80h1v1h-1zM52 80h1v1h-1zM53 80h1v1h-1zM54 80h1v1h-1zM55 80h1v1h-1zM56 80h1v1h-1zM57 80h1v1h-1zM58 80h1v1h-1z"/><path fill="#A5693A" d="M59 80h1v1h-1z"/><path fill="#3D281C" d="M60 80h1v1h-1z"/><path fill="#231815" d="M61 80h1v1h-1zM62 80h1v1h-1zM63 80h1v1h-1zM64 80h1v1h-1zM65 80h1v1h-1zM66 80h1v1h-1zM17 81h1v1h-1zM18 81h1v1h-1zM19 81h1v1h-1zM20 81h1v1h-1zM21 81h1v1h-1z"/><path fill="#612120" d="M22 81h1v1h-1z"/><path fill="#A72C2C" d="M23 81h1v1h-1z"/><path fill="#B02D2E" d="M24 81h1v1h-1zM25 81h1v1h-1zM26 81h1v1h-1zM27 81h1v1h-1zM28 81h1v1h-1zM29 81h1v1h-1zM30 81h1v1h-1zM31 81h1v1h-1zM32 81h1v1h-1zM33 81h1v1h-1z"/><path fill="#BF4B3D" d="M34 81h1v1h-1z"/><path fill="#CD684B" d="M35 81h1v1h-1zM36 81h1v1h-1zM37 81h1v1h-1zM38 81h1v1h-1zM39 81h1v1h-1zM40 81h1v1h-1z"/><path fill="#E0814E" d="M41 81h1v1h-1z"/><path fill="#EE944F" d="M42 81h1v1h-1z"/><path fill="#F39A50" d="M43 81h1v1h-1zM44 81h1v1h-1zM45 81h1v1h-1zM46 81h1v1h-1zM47 81h1v1h-1zM48 81h1v1h-1zM49 81h1v1h-1zM50 81h1v1h-1zM51 81h1v1h-1zM52 81h1v1h-1zM53 81h1v1h-1zM54 81h1v1h-1zM55 81h1v1h-1zM56 81h1v1h-1z"/><path fill="#A5693A" d="M57 81h1v1h-1z"/><path fill="#3D281C" d="M58 81h1v1h-1z"/><path fill="#231815" d="M59 81h1v1h-1zM60 81h1v1h-1zM61 81h1v1h-1zM62 81h1v1h-1zM63 81h1v1h-1zM64 81h1v1h-1zM65 81h1v1h-1zM18 82h1v1h-1zM19 82h1v1h-1zM20 82h1v1h-1zM21 82h1v1h-1zM22 82h1v1h-1z"/><path fill="#2C1917" d="M23 82h1v1h-1z"/><path fill="#7B2525" d="M24 82h1v1h-1z"/><path fill="#B02D2E" d="M25 82h1v1h-1zM26 82h1v1h-1zM27 82h1v1h-1zM28 82h1v1h-1zM29 82h1v1h-1zM30 82h1v1h-1zM31 82h1v1h-1zM32 82h1v1h-1zM33 82h1v1h-1zM34 82h1v1h-1z"/><path fill="#C65944" d="M35 82h1v1h-1z"/><path fill="#CD684B" d="M36 82h1v1h-1zM37 82h1v1h-1zM38 82h1v1h-1zM39 82h1v1h-1zM40 82h1v1h-1zM41 82h1v1h-1zM42 82h1v1h-1z"/><path fill="#DB7B4D" d="M43 82h1v1h-1z"/><path fill="#EC914F" d="M44 82h1v1h-1z"/><path fill="#F39A50" d="M45 82h1v1h-1zM46 82h1v1h-1zM47 82h1v1h-1zM48 82h1v1h-1zM49 82h1v1h-1zM50 82h1v1h-1zM51 82h1v1h-1zM52 82h1v1h-1zM53 82h1v1h-1z"/><path fill="#E6924C" d="M54 82h1v1h-1z"/><path fill="#A5693A" d="M55 82h1v1h-1z"/><path fill="#3D281C" d="M56 82h1v1h-1z"/><path fill="#231815" d="M57 82h1v1h-1zM58 82h1v1h-1zM59 82h1v1h-1zM60 82h1v1h-1zM61 82h1v1h-1zM62 82h1v1h-1zM63 82h1v1h-1zM19 83h1v1h-1zM20 83h1v1h-1zM21 83h1v1h-1zM22 83h1v1h-1zM23 83h1v1h-1zM24 83h1v1h-1z"/><path fill="#351B18" d="M25 83h1v1h-1z"/><path fill="#7B2525" d="M26 83h1v1h-1z"/><path fill="#B02D2E" d="M27 83h1v1h-1zM28 83h1v1h-1zM29 83h1v1h-1zM30 83h1v1h-1zM31 83h1v1h-1zM32 83h1v1h-1zM33 83h1v1h-1zM34 83h1v1h-1z"/><path fill="#B23130" d="M35 83h1v1h-1z"/><path fill="#C85D46" d="M36 83h1v1h-1z"/><path fill="#CD684B" d="M37 83h1v1h-1zM38 83h1v1h-1zM39 83h1v1h-1zM40 83h1v1h-1zM41 83h1v1h-1zM42 83h1v1h-1zM43 83h1v1h-1zM44 83h1v1h-1z"/><path fill="#D26E4C" d="M45 83h1v1h-1z"/><path fill="#DE7E4D" d="M46 83h1v1h-1z"/><path fill="#EA8E4F" d="M47 83h1v1h-1z"/><path fill="#F39A50" d="M48 83h1v1h-1zM49 83h1v1h-1zM50 83h1v1h-1zM51 83h1v1h-1z"/><path fill="#CC8245" d="M52 83h1v1h-1z"/><path fill="#71492B" d="M53 83h1v1h-1z"/><path fill="#302019" d="M54 83h1v1h-1z"/><path fill="#231815" d="M55 83h1v1h-1zM56 83h1v1h-1zM57 83h1v1h-1zM58 83h1v1h-1zM59 83h1v1h-1zM60 83h1v1h-1zM61 83h1v1h-1zM21 84h1v1h-1zM22 84h1v1h-1zM23 84h1v1h-1zM24 84h1v1h-1zM25 84h1v1h-1zM26 84h1v1h-1z"/><path fill="#2C1917" d="M27 84h1v1h-1z"/><path fill="#612120" d="M28 84h1v1h-1z"/><path fill="#962929" d="M29 84h1v1h-1z"/><path fill="#B02D2E" d="M30 84h1v1h-1zM31 84h1v1h-1zM32 84h1v1h-1zM33 84h1v1h-1zM34 84h1v1h-1zM35 84h1v1h-1z"/><path fill="#B23130" d="M36 84h1v1h-1z"/><path fill="#C25240" d="M37 84h1v1h-1z"/><path fill="#CD684B" d="M38 84h1v1h-1zM39 84h1v1h-1zM40 84h1v1h-1zM41 84h1v1h-1zM42 84h1v1h-1zM43 84h1v1h-1zM44 84h1v1h-1zM45 84h1v1h-1zM46 84h1v1h-1zM47 84h1v1h-1zM48 84h1v1h-1z"/><path fill="#C16B46" d="M49 84h1v1h-1z"/><path fill="#965E36" d="M50 84h1v1h-1z"/><path fill="#4A3020" d="M51 84h1v1h-1z"/><path fill="#231815" d="M52 84h1v1h-1zM53 84h1v1h-1zM54 84h1v1h-1zM55 84h1v1h-1zM56 84h1v1h-1zM57 84h1v1h-1zM58 84h1v1h-1zM59 84h1v1h-1zM22 85h1v1h-1zM23 85h1v1h-1zM24 85h1v1h-1zM25 85h1v1h-1zM26 85h1v1h-1zM27 85h1v1h-1zM28 85h1v1h-1zM29 85h1v1h-1z"/><path fill="#351B18" d="M30 85h1v1h-1z"/><path fill="#612120" d="M31 85h1v1h-1z"/><path fill="#842626" d="M32 85h1v1h-1z"/><path fill="#A72C2C" d="M33 85h1v1h-1z"/><path fill="#B02D2E" d="M34 85h1v1h-1zM35 85h1v1h-1zM36 85h1v1h-1zM37 85h1v1h-1z"/><path fill="#B93F37" d="M38 85h1v1h-1z"/><path fill="#C96147" d="M39 85h1v1h-1z"/><path fill="#CD684B" d="M40 85h1v1h-1zM41 85h1v1h-1zM42 85h1v1h-1zM43 85h1v1h-1zM44 85h1v1h-1zM45 85h1v1h-1z"/><path fill="#A3543E" d="M46 85h1v1h-1z"/><path fill="#784030" d="M47 85h1v1h-1z"/><path fill="#43271F" d="M48 85h1v1h-1z"/><path fill="#231815" d="M49 85h1v1h-1zM50 85h1v1h-1zM51 85h1v1h-1zM52 85h1v1h-1zM53 85h1v1h-1zM54 85h1v1h-1zM55 85h1v1h-1zM56 85h1v1h-1zM57 85h1v1h-1zM24 86h1v1h-1zM25 86h1v1h-1zM26 86h1v1h-1zM27 86h1v1h-1zM28 86h1v1h-1zM29 86h1v1h-1zM30 86h1v1h-1zM31 86h1v1h-1zM32 86h1v1h-1zM33 86h1v1h-1z"/><path fill="#351B18" d="M34 86h1v1h-1z"/><path fill="#461D1B" d="M35 86h1v1h-1z"/><path fill="#612120" d="M36 86h1v1h-1z"/><path fill="#6A2322" d="M37 86h1v1h-1zM38 86h1v1h-1z"/><path fill="#7B2525" d="M39 86h1v1h-1z"/><path fill="#863B30" d="M40 86h1v1h-1z"/><path fill="#784030" d="M41 86h1v1h-1zM42 86h1v1h-1z"/><path fill="#583126" d="M43 86h1v1h-1z"/><path fill="#43271F" d="M44 86h1v1h-1z"/><path fill="#231815" d="M45 86h1v1h-1zM46 86h1v1h-1zM47 86h1v1h-1zM48 86h1v1h-1zM49 86h1v1h-1zM50 86h1v1h-1zM51 86h1v1h-1zM52 86h1v1h-1zM53 86h1v1h-1zM54 86h1v1h-1zM26 87h1v1h-1zM27 87h1v1h-1zM28 87h1v1h-1zM29 87h1v1h-1zM30 87h1v1h-1zM31 87h1v1h-1zM32 87h1v1h-1zM33 87h1v1h-1zM34 87h1v1h-1zM35 87h1v1h-1zM36 87h1v1h-1zM37 87h1v1h-1zM38 87h1v1h-1zM39 87h1v1h-1zM40 87h1v1h-1zM41 87h1v1h-1zM42 87h1v1h-1zM43 87h1v1h-1zM44 87h1v1h-1zM45 87h1v1h-1zM46 87h1v1h-1zM47 87h1v1h-1zM48 87h1v1h-1zM49 87h1v1h-1zM50 87h1v1h-1zM51 87h1v1h-1zM52 87h1v1h-1zM29 88h1v1h-1zM30 88h1v1h-1zM31 88h1v1h-1zM32 88h1v1h-1zM33 88h1v1h-1zM34 88h1v1h-1zM35 88h1v1h-1zM36 88h1v1h-1zM37 88h1v1h-1zM38 88h1v1h-1zM39 88h1v1h-1zM40 88h1v1h-1zM41 88h1v1h-1zM42 88h1v1h-1zM43 88h1v1h-1zM44 88h1v1h-1zM45 88h1v1h-1zM46 88h1v1h-1zM47 88h1v1h-1zM48 88h1v1h-1zM49 88h1v1h-1zM34 89h1v1h-1zM35 89h1v1h-1zM36 89h1v1h-1zM37 89h1v1h-1zM38 89h1v1h-1zM39 89h1v1h-1zM40 89h1v1h-1zM41 89h1v1h-1zM42 89h1v1h-1zM43 89h1v1h-1zM44 89h1v1h-1zM45 89h1v1h-1z"/></svg>