<svg baseProfile="full" height="90" width="72" xmlns="http://www.w3.org/2000/svg"><path fill="#231815" d="M31 0h1v1h-1zM32 0h1v1h-1zM33 0h1v1h-1zM34 0h1v1h-1zM15 1h1v1h-1zM16 1h1v1h-1zM17 1h1v1h-1zM18 1h1v1h-1zM19 1h1v1h-1zM20 1h1v1h-1zM21 1h1v1h-1zM29 1h1v1h-1zM30 1h1v1h-1zM31 1h1v1h-1zM32 1h1v1h-1zM33 1h1v1h-1zM34 1h1v1h-1zM35 1h1v1h-1zM36 1h1v1h-1zM13 2h1v1h-1zM14 2h1v1h-1zM15 2h1v1h-1zM16 2h1v1h-1zM17 2h1v1h-1zM18 2h1v1h-1zM19 2h1v1h-1zM20 2h1v1h-1zM21 2h1v1h-1zM22 2h1v1h-1zM28 2h1v1h-1zM29 2h1v1h-1zM30 2h1v1h-1zM31 2h1v1h-1zM32 2h1v1h-1zM33 2h1v1h-1zM34 2h1v1h-1zM35 2h1v1h-1zM36 2h1v1h-1zM37 2h1v1h-1zM12 3h1v1h-1zM13 3h1v1h-1zM14 3h1v1h-1zM15 3h1v1h-1zM16 3h1v1h-1zM17 3h1v1h-1zM18 3h1v1h-1zM19 3h1v1h-1zM20 3h1v1h-1zM21 3h1v1h-1zM22 3h1v1h-1zM23 3h1v1h-1zM27 3h1v1h-1zM28 3h1v1h-1zM29 3h1v1h-1zM30 3h1v1h-1z"/><path fill="#423E35" d="M31 3h1v1h-1z"/><path fill="#A0B197" d="M32 3h1v1h-1zM33 3h1v1h-1z"/><path fill="#2D2520" d="M34 3h1v1h-1z"/><path fill="#231815" d="M35 3h1v1h-1zM36 3h1v1h-1zM37 3h1v1h-1zM11 4h1v1h-1zM12 4h1v1h-1zM13 4h1v1h-1zM14 4h1v1h-1z"/><path fill="#2D2520" d="M15 4h1v1h-1z"/><path fill="#777E6C" d="M16 4h1v1h-1z"/><path fill="#B5CBAC" d="M17 4h1v1h-1z"/><path fill="#CAE4C2" d="M18 4h1v1h-1z"/><path fill="#A0B197" d="M19 4h1v1h-1z"/><path fill="#2D2520" d="M20 4h1v1h-1z"/><path fill="#231815" d="M21 4h1v1h-1zM22 4h1v1h-1zM23 4h1v1h-1zM26 4h1v1h-1zM27 4h1v1h-1zM28 4h1v1h-1zM29 4h1v1h-1z"/><path fill="#626556" d="M30 4h1v1h-1z"/><path fill="#C0D7B7" d="M31 4h1v1h-1z"/><path fill="#CAE4C2" d="M32 4h1v1h-1z"/><path fill="#B9DEB0" d="M33 4h1v1h-1z"/><path fill="#429837" d="M34 4h1v1h-1z"/><path fill="#252217" d="M35 4h1v1h-1z"/><path fill="#231815" d="M36 4h1v1h-1zM37 4h1v1h-1zM38 4h1v1h-1zM11 5h1v1h-1zM12 5h1v1h-1zM13 5h1v1h-1z"/><path fill="#423E35" d="M14 5h1v1h-1z"/><path fill="#C0D7B7" d="M15 5h1v1h-1z"/><path fill="#CAE4C2" d="M16 5h1v1h-1zM17 5h1v1h-1zM18 5h1v1h-1zM19 5h1v1h-1z"/><path fill="#90B487" d="M20 5h1v1h-1z"/><path fill="#252217" d="M21 5h1v1h-1z"/><path fill="#231815" d="M22 5h1v1h-1zM23 5h1v1h-1zM24 5h1v1h-1zM25 5h1v1h-1zM26 5h1v1h-1zM27 5h1v1h-1zM28 5h1v1h-1z"/><path fill="#777E6C" d="M29 5h1v1h-1z"/><path fill="#CAE4C2" d="M30 5h1v1h-1zM31 5h1v1h-1z"/><path fill="#C1E1B9" d="M32 5h1v1h-1z"/><path fill="#58BB4F" d="M33 5h1v1h-1z"/><path fill="#3EB134" d="M34 5h1v1h-1z"/><path fill="#378B2C" d="M35 5h1v1h-1z"/><path fill="#231815" d="M36 5h1v1h-1zM37 5h1v1h-1zM38 5h1v1h-1zM39 5h1v1h-1zM10 6h1v1h-1zM11 6h1v1h-1zM12 6h1v1h-1z"/><path fill="#2D2520" d="M13 6h1v1h-1z"/><path fill="#C0D7B7" d="M14 6h1v1h-1z"/><path fill="#CAE4C2" d="M15 6h1v1h-1zM16 6h1v1h-1zM17 6h1v1h-1zM18 6h1v1h-1zM19 6h1v1h-1z"/><path fill="#73C469" d="M20 6h1v1h-1z"/><path fill="#316525" d="M21 6h1v1h-1z"/><path fill="#231815" d="M22 6h1v1h-1zM23 6h1v1h-1zM24 6h1v1h-1zM25 6h1v1h-1zM26 6h1v1h-1zM27 6h1v1h-1z"/><path fill="#8B9881" d="M28 6h1v1h-1z"/><path fill="#CAE4C2" d="M29 6h1v1h-1zM30 6h1v1h-1z"/><path fill="#C1E1B9" d="M31 6h1v1h-1z"/><path fill="#58BB4F" d="M32 6h1v1h-1z"/><path fill="#3EB134" d="M33 6h1v1h-1zM34 6h1v1h-1zM35 6h1v1h-1z"/><path fill="#2F5B23" d="M36 6h1v1h-1z"/><path fill="#231815" d="M37 6h1v1h-1zM38 6h1v1h-1zM39 6h1v1h-1zM10 7h1v1h-1zM11 7h1v1h-1zM12 7h1v1h-1z"/><path fill="#777E6C" d="M13 7h1v1h-1z"/><path fill="#CAE4C2" d="M14 7h1v1h-1zM15 7h1v1h-1zM16 7h1v1h-1zM17 7h1v1h-1zM18 7h1v1h-1z"/><path fill="#8DCE84" d="M19 7h1v1h-1z"/><path fill="#3EB134" d="M20 7h1v1h-1zM21 7h1v1h-1z"/><path fill="#262B19" d="M22 7h1v1h-1z"/><path fill="#231815" d="M23 7h1v1h-1zM24 7h1v1h-1zM25 7h1v1h-1zM26 7h1v1h-1z"/><path fill="#8B9881" d="M27 7h1v1h-1z"/><path fill="#CAE4C2" d="M28 7h1v1h-1zM29 7h1v1h-1z"/><path fill="#B0DAA7" d="M30 7h1v1h-1z"/><path fill="#58BB4F" d="M31 7h1v1h-1z"/><path fill="#3EB134" d="M32 7h1v1h-1zM33 7h1v1h-1zM34 7h1v1h-1zM35 7h1v1h-1z"/><path fill="#2A3E1D" d="M36 7h1v1h-1z"/><path fill="#231815" d="M37 7h1v1h-1zM38 7h1v1h-1zM39 7h1v1h-1zM10 8h1v1h-1zM11 8h1v1h-1zM12 8h1v1h-1z"/><path fill="#447438" d="M13 8h1v1h-1z"/><path fill="#96D18D" d="M14 8h1v1h-1z"/><path fill="#A7D79F" d="M15 8h1v1h-1zM16 8h1v1h-1z"/><path fill="#8DCE84" d="M17 8h1v1h-1z"/><path fill="#50B746" d="M18 8h1v1h-1z"/><path fill="#3EB134" d="M19 8h1v1h-1zM20 8h1v1h-1zM21 8h1v1h-1z"/><path fill="#347828" d="M22 8h1v1h-1z"/><path fill="#231815" d="M23 8h1v1h-1zM24 8h1v1h-1z"/><path fill="#2D2520" d="M25 8h1v1h-1z"/><path fill="#96A48C" d="M26 8h1v1h-1z"/><path fill="#CAE4C2" d="M27 8h1v1h-1zM28 8h1v1h-1z"/><path fill="#96D18D" d="M29 8h1v1h-1z"/><path fill="#47B43D" d="M30 8h1v1h-1z"/><path fill="#3EB134" d="M31 8h1v1h-1zM32 8h1v1h-1zM33 8h1v1h-1zM34 8h1v1h-1z"/><path fill="#2D5121" d="M35 8h1v1h-1z"/><path fill="#231815" d="M36 8h1v1h-1zM37 8h1v1h-1zM38 8h1v1h-1zM39 8h1v1h-1zM10 9h1v1h-1zM11 9h1v1h-1zM12 9h1v1h-1z"/><path fill="#2A3E1D" d="M13 9h1v1h-1z"/><path fill="#3EB134" d="M14 9h1v1h-1zM15 9h1v1h-1zM16 9h1v1h-1zM17 9h1v1h-1zM18 9h1v1h-1zM19 9h1v1h-1zM20 9h1v1h-1zM21 9h1v1h-1z"/><path fill="#3CA732" d="M22 9h1v1h-1z"/><path fill="#2A3E1D" d="M23 9h1v1h-1z"/><path fill="#252217" d="M24 9h1v1h-1z"/><path fill="#639B59" d="M25 9h1v1h-1z"/><path fill="#CAE4C2" d="M26 9h1v1h-1z"/><path fill="#B0DAA7" d="M27 9h1v1h-1z"/><path fill="#6AC160" d="M28 9h1v1h-1z"/><path fill="#3EB134" d="M29 9h1v1h-1zM30 9h1v1h-1zM31 9h1v1h-1zM32 9h1v1h-1z"/><path fill="#3CA732" d="M33 9h1v1h-1z"/><path fill="#2B481F" d="M34 9h1v1h-1z"/><path fill="#231815" d="M35 9h1v1h-1zM36 9h1v1h-1zM37 9h1v1h-1zM38 9h1v1h-1zM11 10h1v1h-1zM12 10h1v1h-1zM13 10h1v1h-1z"/><path fill="#378B2C" d="M14 10h1v1h-1z"/><path fill="#3EB134" d="M15 10h1v1h-1zM16 10h1v1h-1zM17 10h1v1h-1zM18 10h1v1h-1zM19 10h1v1h-1zM20 10h1v1h-1zM21 10h1v1h-1zM22 10h1v1h-1zM23 10h1v1h-1zM24 10h1v1h-1zM25 10h1v1h-1zM26 10h1v1h-1zM27 10h1v1h-1zM28 10h1v1h-1zM29 10h1v1h-1zM30 10h1v1h-1zM31 10h1v1h-1z"/><path fill="#39942E" d="M32 10h1v1h-1z"/><path fill="#28351B" d="M33 10h1v1h-1z"/><path fill="#231815" d="M34 10h1v1h-1zM35 10h1v1h-1zM36 10h1v1h-1zM37 10h1v1h-1zM11 11h1v1h-1zM12 11h1v1h-1zM13 11h1v1h-1z"/><path fill="#2A3E1D" d="M14 11h1v1h-1z"/><path fill="#3EB134" d="M15 11h1v1h-1zM16 11h1v1h-1zM17 11h1v1h-1zM18 11h1v1h-1zM19 11h1v1h-1zM20 11h1v1h-1zM21 11h1v1h-1zM22 11h1v1h-1zM23 11h1v1h-1zM24 11h1v1h-1zM25 11h1v1h-1zM26 11h1v1h-1zM27 11h1v1h-1zM28 11h1v1h-1zM29 11h1v1h-1zM30 11h1v1h-1z"/><path fill="#326E26" d="M31 11h1v1h-1z"/><path fill="#231815" d="M32 11h1v1h-1zM33 11h1v1h-1zM34 11h1v1h-1zM35 11h1v1h-1zM36 11h1v1h-1zM12 12h1v1h-1zM13 12h1v1h-1zM14 12h1v1h-1z"/><path fill="#378B2C" d="M15 12h1v1h-1z"/><path fill="#3EB134" d="M16 12h1v1h-1zM17 12h1v1h-1zM18 12h1v1h-1zM19 12h1v1h-1zM20 12h1v1h-1zM21 12h1v1h-1zM22 12h1v1h-1zM23 12h1v1h-1zM24 12h1v1h-1zM25 12h1v1h-1zM26 12h1v1h-1zM27 12h1v1h-1zM28 12h1v1h-1z"/><path fill="#3B9E30" d="M29 12h1v1h-1z"/><path fill="#2A3E1D" d="M30 12h1v1h-1z"/><path fill="#231815" d="M31 12h1v1h-1zM32 12h1v1h-1zM33 12h1v1h-1zM34 12h1v1h-1zM35 12h1v1h-1zM12 13h1v1h-1zM13 13h1v1h-1zM14 13h1v1h-1z"/><path fill="#2A3E1D" d="M15 13h1v1h-1z"/><path fill="#3EB134" d="M16 13h1v1h-1zM17 13h1v1h-1zM18 13h1v1h-1zM19 13h1v1h-1zM20 13h1v1h-1zM21 13h1v1h-1zM22 13h1v1h-1zM23 13h1v1h-1zM24 13h1v1h-1zM25 13h1v1h-1zM26 13h1v1h-1zM27 13h1v1h-1z"/><path fill="#36812A" d="M28 13h1v1h-1z"/><path fill="#252217" d="M29 13h1v1h-1z"/><path fill="#231815" d="M30 13h1v1h-1zM31 13h1v1h-1zM32 13h1v1h-1zM33 13h1v1h-1zM34 13h1v1h-1zM13 14h1v1h-1zM14 14h1v1h-1zM15 14h1v1h-1z"/><path fill="#378B2C" d="M16 14h1v1h-1z"/><path fill="#3EB134" d="M17 14h1v1h-1zM18 14h1v1h-1zM19 14h1v1h-1zM20 14h1v1h-1zM21 14h1v1h-1zM22 14h1v1h-1zM23 14h1v1h-1zM24 14h1v1h-1zM25 14h1v1h-1zM26 14h1v1h-1z"/><path fill="#326E26" d="M27 14h1v1h-1z"/><path fill="#231815" d="M28 14h1v1h-1zM29 14h1v1h-1zM30 14h1v1h-1zM31 14h1v1h-1zM32 14h1v1h-1zM13 15h1v1h-1zM14 15h1v1h-1zM15 15h1v1h-1z"/><path fill="#2A3E1D" d="M16 15h1v1h-1z"/><path fill="#3EB134" d="M17 15h1v1h-1zM18 15h1v1h-1zM19 15h1v1h-1zM20 15h1v1h-1zM21 15h1v1h-1zM22 15h1v1h-1zM23 15h1v1h-1zM24 15h1v1h-1zM25 15h1v1h-1zM26 15h1v1h-1z"/><path fill="#231815" d="M27 15h1v1h-1zM28 15h1v1h-1zM29 15h1v1h-1zM30 15h1v1h-1zM31 15h1v1h-1zM14 16h1v1h-1zM15 16h1v1h-1zM16 16h1v1h-1z"/><path fill="#3B9E30" d="M17 16h1v1h-1z"/><path fill="#3EB134" d="M18 16h1v1h-1zM19 16h1v1h-1zM20 16h1v1h-1zM21 16h1v1h-1zM22 16h1v1h-1zM23 16h1v1h-1zM24 16h1v1h-1zM25 16h1v1h-1zM26 16h1v1h-1z"/><path fill="#252217" d="M27 16h1v1h-1z"/><path fill="#231815" d="M28 16h1v1h-1zM29 16h1v1h-1zM30 16h1v1h-1zM14 17h1v1h-1zM15 17h1v1h-1zM16 17h1v1h-1z"/><path fill="#2F5B23" d="M17 17h1v1h-1z"/><path fill="#3EB134" d="M18 17h1v1h-1zM19 17h1v1h-1zM20 17h1v1h-1zM21 17h1v1h-1zM22 17h1v1h-1zM23 17h1v1h-1zM24 17h1v1h-1zM25 17h1v1h-1zM26 17h1v1h-1z"/><path fill="#2D5121" d="M27 17h1v1h-1z"/><path fill="#231815" d="M28 17h1v1h-1zM29 17h1v1h-1zM30 17h1v1h-1zM14 18h1v1h-1zM15 18h1v1h-1zM16 18h1v1h-1z"/><path fill="#252217" d="M17 18h1v1h-1z"/><path fill="#3EB134" d="M18 18h1v1h-1zM19 18h1v1h-1zM20 18h1v1h-1zM21 18h1v1h-1zM22 18h1v1h-1zM23 18h1v1h-1zM24 18h1v1h-1zM25 18h1v1h-1zM26 18h1v1h-1z"/><path fill="#378B2C" d="M27 18h1v1h-1z"/><path fill="#231815" d="M28 18h1v1h-1zM29 18h1v1h-1zM30 18h1v1h-1zM15 19h1v1h-1zM16 19h1v1h-1zM17 19h1v1h-1z"/><path fill="#36812A" d="M18 19h1v1h-1z"/><path fill="#3EB134" d="M19 19h1v1h-1zM20 19h1v1h-1zM21 19h1v1h-1zM22 19h1v1h-1zM23 19h1v1h-1zM24 19h1v1h-1zM25 19h1v1h-1zM26 19h1v1h-1zM27 19h1v1h-1z"/><path fill="#262B19" d="M28 19h1v1h-1z"/><path fill="#231815" d="M29 19h1v1h-1zM30 19h1v1h-1zM31 19h1v1h-1zM15 20h1v1h-1zM16 20h1v1h-1zM17 20h1v1h-1z"/><path fill="#2F5B23" d="M18 20h1v1h-1z"/><path fill="#3EB134" d="M19 20h1v1h-1zM20 20h1v1h-1zM21 20h1v1h-1zM22 20h1v1h-1zM23 20h1v1h-1zM24 20h1v1h-1zM25 20h1v1h-1zM26 20h1v1h-1zM27 20h1v1h-1z"/><path fill="#347828" d="M28 20h1v1h-1z"/><path fill="#231815" d="M29 20h1v1h-1zM30 20h1v1h-1zM31 20h1v1h-1zM32 20h1v1h-1zM37 20h1v1h-1zM38 20h1v1h-1zM39 20h1v1h-1zM40 20h1v1h-1zM41 20h1v1h-1zM42 20h1v1h-1zM43 20h1v1h-1zM44 20h1v1h-1zM45 20h1v1h-1zM46 20h1v1h-1zM47 20h1v1h-1zM48 20h1v1h-1zM15 21h1v1h-1zM16 21h1v1h-1zM17 21h1v1h-1z"/><path fill="#28351B" d="M18 21h1v1h-1z"/><path fill="#3EB134" d="M19 21h1v1h-1zM20 21h1v1h-1zM21 21h1v1h-1zM22 21h1v1h-1zM23 21h1v1h-1zM24 21h1v1h-1zM25 21h1v1h-1zM26 21h1v1h-1zM27 21h1v1h-1zM28 21h1v1h-1z"/><path fill="#28351B" d="M29 21h1v1h-1z"/><path fill="#231815" d="M30 21h1v1h-1zM31 21h1v1h-1zM32 21h1v1h-1zM33 21h1v1h-1zM34 21h1v1h-1zM35 21h1v1h-1zM36 21h1v1h-1zM37 21h1v1h-1zM38 21h1v1h-1zM39 21h1v1h-1zM40 21h1v1h-1zM41 21h1v1h-1zM42 21h1v1h-1zM43 21h1v1h-1zM44 21h1v1h-1zM45 21h1v1h-1zM46 21h1v1h-1zM47 21h1v1h-1zM48 21h1v1h-1zM49 21h1v1h-1zM50 21h1v1h-1zM51 21h1v1h-1zM52 21h1v1h-1zM53 21h1v1h-1zM16 22h1v1h-1zM17 22h1v1h-1zM18 22h1v1h-1z"/><path fill="#3EB134" d="M19 22h1v1h-1zM20 22h1v1h-1zM21 22h1v1h-1zM22 22h1v1h-1zM23 22h1v1h-1zM24 22h1v1h-1zM25 22h1v1h-1zM26 22h1v1h-1zM27 22h1v1h-1zM28 22h1v1h-1z"/><path fill="#39942E" d="M29 22h1v1h-1z"/><path fill="#252217" d="M30 22h1v1h-1z"/><path fill="#231815" d="M31 22h1v1h-1zM32 22h1v1h-1zM33 22h1v1h-1zM34 22h1v1h-1zM35 22h1v1h-1zM36 22h1v1h-1zM37 22h1v1h-1zM38 22h1v1h-1zM39 22h1v1h-1zM40 22h1v1h-1zM41 22h1v1h-1zM42 22h1v1h-1zM43 22h1v1h-1zM44 22h1v1h-1zM45 22h1v1h-1zM46 22h1v1h-1zM47 22h1v1h-1zM48 22h1v1h-1zM49 22h1v1h-1zM50 22h1v1h-1zM51 22h1v1h-1zM52 22h1v1h-1zM53 22h1v1h-1zM54 22h1v1h-1zM55 22h1v1h-1zM16 23h1v1h-1zM17 23h1v1h-1zM18 23h1v1h-1z"/><path fill="#378B2C" d="M19 23h1v1h-1z"/><path fill="#3EB134" d="M20 23h1v1h-1zM21 23h1v1h-1zM22 23h1v1h-1zM23 23h1v1h-1zM24 23h1v1h-1zM25 23h1v1h-1zM26 23h1v1h-1zM27 23h1v1h-1zM28 23h1v1h-1zM29 23h1v1h-1z"/><path fill="#3B9E30" d="M30 23h1v1h-1z"/><path fill="#2A3E1D" d="M31 23h1v1h-1z"/><path fill="#231815" d="M32 23h1v1h-1zM33 23h1v1h-1zM34 23h1v1h-1zM35 23h1v1h-1zM36 23h1v1h-1z"/><path fill="#232418" d="M37 23h1v1h-1z"/><path fill="#384F1F" d="M38 23h1v1h-1z"/><path fill="#776415" d="M39 23h1v1h-1z"/><path fill="#826D15" d="M40 23h1v1h-1z"/><path fill="#A18915" d="M41 23h1v1h-1zM42 23h1v1h-1zM43 23h1v1h-1zM44 23h1v1h-1z"/><path fill="#978015" d="M45 23h1v1h-1z"/><path fill="#776415" d="M46 23h1v1h-1zM47 23h1v1h-1z"/><path fill="#584715" d="M48 23h1v1h-1z"/><path fill="#433415" d="M49 23h1v1h-1z"/><path fill="#231815" d="M50 23h1v1h-1zM51 23h1v1h-1zM52 23h1v1h-1zM53 23h1v1h-1zM54 23h1v1h-1zM55 23h1v1h-1zM56 23h1v1h-1zM57 23h1v1h-1zM58 23h1v1h-1zM16 24h1v1h-1zM17 24h1v1h-1zM18 24h1v1h-1z"/><path fill="#378B2C" d="M19 24h1v1h-1z"/><path fill="#3EB134" d="M20 24h1v1h-1zM21 24h1v1h-1zM22 24h1v1h-1zM23 24h1v1h-1zM24 24h1v1h-1zM25 24h1v1h-1zM26 24h1v1h-1zM27 24h1v1h-1zM28 24h1v1h-1zM29 24h1v1h-1zM30 24h1v1h-1z"/><path fill="#5CB62E" d="M31 24h1v1h-1z"/><path fill="#69AF2A" d="M32 24h1v1h-1z"/><path fill="#5B9126" d="M33 24h1v1h-1zM34 24h1v1h-1z"/><path fill="#3F5A1F" d="M35 24h1v1h-1z"/><path fill="#23361D" d="M36 24h1v1h-1z"/><path fill="#23652B" d="M37 24h1v1h-1z"/><path fill="#2E7B2E" d="M38 24h1v1h-1z"/><path fill="#CBAF15" d="M39 24h1v1h-1zM40 24h1v1h-1zM41 24h1v1h-1zM42 24h1v1h-1zM43 24h1v1h-1zM44 24h1v1h-1zM45 24h1v1h-1zM46 24h1v1h-1zM47 24h1v1h-1zM48 24h1v1h-1zM49 24h1v1h-1z"/><path fill="#C1A615" d="M50 24h1v1h-1z"/><path fill="#978015" d="M51 24h1v1h-1z"/><path fill="#6D5A15" d="M52 24h1v1h-1z"/><path fill="#382B15" d="M53 24h1v1h-1z"/><path fill="#231815" d="M54 24h1v1h-1zM55 24h1v1h-1zM56 24h1v1h-1zM57 24h1v1h-1zM58 24h1v1h-1zM59 24h1v1h-1zM16 25h1v1h-1zM17 25h1v1h-1zM18 25h1v1h-1z"/><path fill="#378B2C" d="M19 25h1v1h-1z"/><path fill="#3EB134" d="M20 25h1v1h-1zM21 25h1v1h-1zM22 25h1v1h-1zM23 25h1v1h-1zM24 25h1v1h-1zM25 25h1v1h-1zM26 25h1v1h-1zM27 25h1v1h-1zM28 25h1v1h-1z"/><path fill="#47B332" d="M29 25h1v1h-1z"/><path fill="#65B82D" d="M30 25h1v1h-1z"/><path fill="#6EB92B" d="M31 25h1v1h-1zM32 25h1v1h-1zM33 25h1v1h-1zM34 25h1v1h-1zM35 25h1v1h-1z"/><path fill="#287B30" d="M36 25h1v1h-1z"/><path fill="#237730" d="M37 25h1v1h-1zM38 25h1v1h-1z"/><path fill="#CBAF15" d="M39 25h1v1h-1zM40 25h1v1h-1zM41 25h1v1h-1zM42 25h1v1h-1zM43 25h1v1h-1zM44 25h1v1h-1zM45 25h1v1h-1zM46 25h1v1h-1zM47 25h1v1h-1zM48 25h1v1h-1zM49 25h1v1h-1zM50 25h1v1h-1zM51 25h1v1h-1zM52 25h1v1h-1zM53 25h1v1h-1z"/><path fill="#978015" d="M54 25h1v1h-1z"/><path fill="#584715" d="M55 25h1v1h-1z"/><path fill="#231815" d="M56 25h1v1h-1zM57 25h1v1h-1zM58 25h1v1h-1zM59 25h1v1h-1zM60 25h1v1h-1zM61 25h1v1h-1zM16 26h1v1h-1zM17 26h1v1h-1zM18 26h1v1h-1z"/><path fill="#378B2C" d="M19 26h1v1h-1z"/><path fill="#3EB134" d="M20 26h1v1h-1zM21 26h1v1h-1zM22 26h1v1h-1zM23 26h1v1h-1zM24 26h1v1h-1zM25 26h1v1h-1zM26 26h1v1h-1z"/><path fill="#47B332" d="M27 26h1v1h-1z"/><path fill="#5CB62E" d="M28 26h1v1h-1z"/><path fill="#6EB92B" d="M29 26h1v1h-1z"/><path fill="#7FC147" d="M30 26h1v1h-1zM31 26h1v1h-1z"/><path fill="#6EB92B" d="M32 26h1v1h-1zM33 26h1v1h-1zM34 26h1v1h-1zM35 26h1v1h-1z"/><path fill="#31832F" d="M36 26h1v1h-1z"/><path fill="#237730" d="M37 26h1v1h-1zM38 26h1v1h-1z"/><path fill="#CBAF15" d="M39 26h1v1h-1zM40 26h1v1h-1zM41 26h1v1h-1zM42 26h1v1h-1zM43 26h1v1h-1zM44 26h1v1h-1zM45 26h1v1h-1zM46 26h1v1h-1zM47 26h1v1h-1zM48 26h1v1h-1zM49 26h1v1h-1zM50 26h1v1h-1zM51 26h1v1h-1zM52 26h1v1h-1zM53 26h1v1h-1zM54 26h1v1h-1zM55 26h1v1h-1z"/><path fill="#B69C15" d="M56 26h1v1h-1z"/><path fill="#4D3E15" d="M57 26h1v1h-1z"/><path fill="#231815" d="M58 26h1v1h-1zM59 26h1v1h-1zM60 26h1v1h-1zM61 26h1v1h-1zM62 26h1v1h-1zM15 27h1v1h-1zM16 27h1v1h-1zM17 27h1v1h-1zM18 27h1v1h-1z"/><path fill="#53A22C" d="M19 27h1v1h-1z"/><path fill="#4AB332" d="M20 27h1v1h-1z"/><path fill="#47B332" d="M21 27h1v1h-1z"/><path fill="#3EB134" d="M22 27h1v1h-1z"/><path fill="#4AB332" d="M23 27h1v1h-1z"/><path fill="#4DB431" d="M24 27h1v1h-1z"/><path fill="#56B530" d="M25 27h1v1h-1z"/><path fill="#65B82D" d="M26 27h1v1h-1z"/><path fill="#6EB92B" d="M27 27h1v1h-1z"/><path fill="#7FC147" d="M28 27h1v1h-1z"/><path fill="#B3D99C" d="M29 27h1v1h-1z"/><path fill="#CAE4C2" d="M30 27h1v1h-1zM31 27h1v1h-1z"/><path fill="#6EB92B" d="M32 27h1v1h-1zM33 27h1v1h-1zM34 27h1v1h-1z"/><path fill="#69B52B" d="M35 27h1v1h-1z"/><path fill="#237730" d="M36 27h1v1h-1zM37 27h1v1h-1zM38 27h1v1h-1z"/><path fill="#CBAF15" d="M39 27h1v1h-1zM40 27h1v1h-1z"/><path fill="#D3B616" d="M41 27h1v1h-1zM42 27h1v1h-1z"/><path fill="#CBAF15" d="M43 27h1v1h-1zM44 27h1v1h-1zM45 27h1v1h-1zM46 27h1v1h-1zM47 27h1v1h-1zM48 27h1v1h-1zM49 27h1v1h-1zM50 27h1v1h-1zM51 27h1v1h-1zM52 27h1v1h-1zM53 27h1v1h-1zM54 27h1v1h-1zM55 27h1v1h-1zM56 27h1v1h-1zM57 27h1v1h-1z"/><path fill="#978015" d="M58 27h1v1h-1z"/><path fill="#2E2115" d="M59 27h1v1h-1z"/><path fill="#231815" d="M60 27h1v1h-1zM61 27h1v1h-1zM62 27h1v1h-1zM63 27h1v1h-1zM14 28h1v1h-1zM15 28h1v1h-1zM16 28h1v1h-1zM17 28h1v1h-1z"/><path fill="#2C2C18" d="M18 28h1v1h-1z"/><path fill="#6EB92B" d="M19 28h1v1h-1zM20 28h1v1h-1zM21 28h1v1h-1zM22 28h1v1h-1zM23 28h1v1h-1zM24 28h1v1h-1zM25 28h1v1h-1z"/><path fill="#85C451" d="M26 28h1v1h-1z"/><path fill="#A8D489" d="M27 28h1v1h-1z"/><path fill="#CAE4C2" d="M28 28h1v1h-1zM29 28h1v1h-1zM30 28h1v1h-1z"/><path fill="#ADD793" d="M31 28h1v1h-1z"/><path fill="#6EB92B" d="M32 28h1v1h-1zM33 28h1v1h-1zM34 28h1v1h-1z"/><path fill="#3A8C2E" d="M35 28h1v1h-1z"/><path fill="#237730" d="M36 28h1v1h-1zM37 28h1v1h-1z"/><path fill="#659529" d="M38 28h1v1h-1z"/><path fill="#F5D619" d="M39 28h1v1h-1zM40 28h1v1h-1zM41 28h1v1h-1zM42 28h1v1h-1zM43 28h1v1h-1zM44 28h1v1h-1z"/><path fill="#EDCF18" d="M45 28h1v1h-1z"/><path fill="#E5C718" d="M46 28h1v1h-1z"/><path fill="#DBBE17" d="M47 28h1v1h-1z"/><path fill="#CEB115" d="M48 28h1v1h-1z"/><path fill="#CBAF15" d="M49 28h1v1h-1zM50 28h1v1h-1zM51 28h1v1h-1zM52 28h1v1h-1zM53 28h1v1h-1zM54 28h1v1h-1zM55 28h1v1h-1zM56 28h1v1h-1zM57 28h1v1h-1zM58 28h1v1h-1z"/><path fill="#C1A615" d="M59 28h1v1h-1z"/><path fill="#433415" d="M60 28h1v1h-1z"/><path fill="#231815" d="M61 28h1v1h-1zM62 28h1v1h-1zM63 28h1v1h-1zM64 28h1v1h-1zM12 29h1v1h-1zM13 29h1v1h-1zM14 29h1v1h-1zM15 29h1v1h-1zM16 29h1v1h-1zM17 29h1v1h-1z"/><path fill="#527D23" d="M18 29h1v1h-1z"/><path fill="#A8D489" d="M19 29h1v1h-1z"/><path fill="#CAE4C2" d="M20 29h1v1h-1zM21 29h1v1h-1z"/><path fill="#B9DCA6" d="M22 29h1v1h-1z"/><path fill="#B3D99C" d="M23 29h1v1h-1z"/><path fill="#B9DCA6" d="M24 29h1v1h-1z"/><path fill="#CAE4C2" d="M25 29h1v1h-1zM26 29h1v1h-1zM27 29h1v1h-1zM28 29h1v1h-1zM29 29h1v1h-1z"/><path fill="#ADD793" d="M30 29h1v1h-1z"/><path fill="#74BC34" d="M31 29h1v1h-1z"/><path fill="#6EB92B" d="M32 29h1v1h-1zM33 29h1v1h-1z"/><path fill="#52A02D" d="M34 29h1v1h-1z"/><path fill="#237730" d="M35 29h1v1h-1zM36 29h1v1h-1zM37 29h1v1h-1z"/><path fill="#C1BE1F" d="M38 29h1v1h-1z"/><path fill="#F5D619" d="M39 29h1v1h-1zM40 29h1v1h-1zM41 29h1v1h-1zM42 29h1v1h-1zM43 29h1v1h-1zM44 29h1v1h-1zM45 29h1v1h-1zM46 29h1v1h-1zM47 29h1v1h-1z"/><path fill="#F2D419" d="M48 29h1v1h-1z"/><path fill="#E5C718" d="M49 29h1v1h-1z"/><path fill="#D0B416" d="M50 29h1v1h-1z"/><path fill="#CBAF15" d="M51 29h1v1h-1zM52 29h1v1h-1zM53 29h1v1h-1zM54 29h1v1h-1zM55 29h1v1h-1zM56 29h1v1h-1zM57 29h1v1h-1zM58 29h1v1h-1zM59 29h1v1h-1zM60 29h1v1h-1z"/><path fill="#625115" d="M61 29h1v1h-1z"/><path fill="#231815" d="M62 29h1v1h-1zM63 29h1v1h-1zM64 29h1v1h-1zM65 29h1v1h-1zM11 30h1v1h-1zM12 30h1v1h-1zM13 30h1v1h-1zM14 30h1v1h-1zM15 30h1v1h-1zM16 30h1v1h-1z"/><path fill="#313619" d="M17 30h1v1h-1z"/><path fill="#6EB92B" d="M18 30h1v1h-1z"/><path fill="#A2D180" d="M19 30h1v1h-1z"/><path fill="#CAE4C2" d="M20 30h1v1h-1zM21 30h1v1h-1zM22 30h1v1h-1zM23 30h1v1h-1zM24 30h1v1h-1zM25 30h1v1h-1zM26 30h1v1h-1zM27 30h1v1h-1z"/><path fill="#C4E1B9" d="M28 30h1v1h-1z"/><path fill="#96CC6D" d="M29 30h1v1h-1z"/><path fill="#6EB92B" d="M30 30h1v1h-1zM31 30h1v1h-1zM32 30h1v1h-1z"/><path fill="#4D9C2D" d="M33 30h1v1h-1z"/><path fill="#237730" d="M34 30h1v1h-1zM35 30h1v1h-1zM36 30h1v1h-1z"/><path fill="#729B27" d="M37 30h1v1h-1z"/><path fill="#F5D619" d="M38 30h1v1h-1zM39 30h1v1h-1zM40 30h1v1h-1zM41 30h1v1h-1zM42 30h1v1h-1zM43 30h1v1h-1zM44 30h1v1h-1zM45 30h1v1h-1zM46 30h1v1h-1zM47 30h1v1h-1zM48 30h1v1h-1zM49 30h1v1h-1zM50 30h1v1h-1z"/><path fill="#E0C317" d="M51 30h1v1h-1z"/><path fill="#CEB115" d="M52 30h1v1h-1z"/><path fill="#CBAF15" d="M53 30h1v1h-1zM54 30h1v1h-1zM55 30h1v1h-1zM56 30h1v1h-1zM57 30h1v1h-1zM58 30h1v1h-1zM59 30h1v1h-1zM60 30h1v1h-1zM61 30h1v1h-1z"/><path fill="#625115" d="M62 30h1v1h-1z"/><path fill="#231815" d="M63 30h1v1h-1zM64 30h1v1h-1zM65 30h1v1h-1zM66 30h1v1h-1zM10 31h1v1h-1zM11 31h1v1h-1zM12 31h1v1h-1zM13 31h1v1h-1z"/><path fill="#231E17" d="M14 31h1v1h-1z"/><path fill="#233C1F" d="M15 31h1v1h-1z"/><path fill="#23301C" d="M16 31h1v1h-1z"/><path fill="#528E28" d="M17 31h1v1h-1z"/><path fill="#6EB92B" d="M18 31h1v1h-1zM19 31h1v1h-1z"/><path fill="#91C964" d="M20 31h1v1h-1z"/><path fill="#B9DCA6" d="M21 31h1v1h-1z"/><path fill="#CAE4C2" d="M22 31h1v1h-1zM23 31h1v1h-1zM24 31h1v1h-1zM25 31h1v1h-1z"/><path fill="#B9DCA6" d="M26 31h1v1h-1z"/><path fill="#96CC6D" d="M27 31h1v1h-1z"/><path fill="#74BC34" d="M28 31h1v1h-1z"/><path fill="#6EB92B" d="M29 31h1v1h-1zM30 31h1v1h-1z"/><path fill="#69B52B" d="M31 31h1v1h-1z"/><path fill="#3A8C2E" d="M32 31h1v1h-1z"/><path fill="#237730" d="M33 31h1v1h-1zM34 31h1v1h-1zM35 31h1v1h-1z"/><path fill="#4A892C" d="M36 31h1v1h-1z"/><path fill="#E8D01A" d="M37 31h1v1h-1z"/><path fill="#F5D619" d="M38 31h1v1h-1zM39 31h1v1h-1zM40 31h1v1h-1zM41 31h1v1h-1zM42 31h1v1h-1zM43 31h1v1h-1zM44 31h1v1h-1zM45 31h1v1h-1zM46 31h1v1h-1zM47 31h1v1h-1zM48 31h1v1h-1zM49 31h1v1h-1zM50 31h1v1h-1zM51 31h1v1h-1z"/><path fill="#EDCF18" d="M52 31h1v1h-1z"/><path fill="#D0B416" d="M53 31h1v1h-1z"/><path fill="#CBAF15" d="M54 31h1v1h-1zM55 31h1v1h-1zM56 31h1v1h-1zM57 31h1v1h-1zM58 31h1v1h-1zM59 31h1v1h-1zM60 31h1v1h-1zM61 31h1v1h-1zM62 31h1v1h-1z"/><path fill="#4D3E15" d="M63 31h1v1h-1z"/><path fill="#231815" d="M64 31h1v1h-1zM65 31h1v1h-1zM66 31h1v1h-1zM8 32h1v1H8zM9 32h1v1H9zM10 32h1v1h-1zM11 32h1v1h-1zM12 32h1v1h-1z"/><path fill="#584816" d="M13 32h1v1h-1z"/><path fill="#7F9B24" d="M14 32h1v1h-1z"/><path fill="#237730" d="M15 32h1v1h-1zM16 32h1v1h-1z"/><path fill="#31832F" d="M17 32h1v1h-1z"/><path fill="#65B12C" d="M18 32h1v1h-1z"/><path fill="#6EB92B" d="M19 32h1v1h-1zM20 32h1v1h-1zM21 32h1v1h-1zM22 32h1v1h-1z"/><path fill="#7ABE3E" d="M23 32h1v1h-1z"/><path fill="#74BC34" d="M24 32h1v1h-1z"/><path fill="#6EB92B" d="M25 32h1v1h-1zM26 32h1v1h-1zM27 32h1v1h-1zM28 32h1v1h-1zM29 32h1v1h-1z"/><path fill="#52A02D" d="M30 32h1v1h-1z"/><path fill="#287B30" d="M31 32h1v1h-1z"/><path fill="#237730" d="M32 32h1v1h-1zM33 32h1v1h-1zM34 32h1v1h-1z"/><path fill="#4A892C" d="M35 32h1v1h-1z"/><path fill="#E8D01A" d="M36 32h1v1h-1z"/><path fill="#F5D619" d="M37 32h1v1h-1zM38 32h1v1h-1zM39 32h1v1h-1zM40 32h1v1h-1zM41 32h1v1h-1zM42 32h1v1h-1zM43 32h1v1h-1zM44 32h1v1h-1zM45 32h1v1h-1zM46 32h1v1h-1zM47 32h1v1h-1zM48 32h1v1h-1zM49 32h1v1h-1zM50 32h1v1h-1zM51 32h1v1h-1zM52 32h1v1h-1z"/><path fill="#F2D419" d="M53 32h1v1h-1z"/><path fill="#D3B616" d="M54 32h1v1h-1z"/><path fill="#CBAF15" d="M55 32h1v1h-1zM56 32h1v1h-1zM57 32h1v1h-1zM58 32h1v1h-1zM59 32h1v1h-1zM60 32h1v1h-1zM61 32h1v1h-1zM62 32h1v1h-1z"/><path fill="#C1A615" d="M63 32h1v1h-1z"/><path fill="#382B15" d="M64 32h1v1h-1z"/><path fill="#231815" d="M65 32h1v1h-1zM66 32h1v1h-1zM67 32h1v1h-1zM7 33h1v1H7zM8 33h1v1H8zM9 33h1v1H9zM10 33h1v1h-1zM11 33h1v1h-1z"/><path fill="#8C7717" d="M12 33h1v1h-1z"/><path fill="#F5D619" d="M13 33h1v1h-1z"/><path fill="#E8D01A" d="M14 33h1v1h-1z"/><path fill="#307D2F" d="M15 33h1v1h-1z"/><path fill="#237730" d="M16 33h1v1h-1zM17 33h1v1h-1z"/><path fill="#287B30" d="M18 33h1v1h-1z"/><path fill="#52A02D" d="M19 33h1v1h-1z"/><path fill="#6EB92B" d="M20 33h1v1h-1zM21 33h1v1h-1zM22 33h1v1h-1zM23 33h1v1h-1zM24 33h1v1h-1zM25 33h1v1h-1zM26 33h1v1h-1z"/><path fill="#69B52B" d="M27 33h1v1h-1z"/><path fill="#4D9C2D" d="M28 33h1v1h-1z"/><path fill="#2C7F2F" d="M29 33h1v1h-1z"/><path fill="#237730" d="M30 33h1v1h-1zM31 33h1v1h-1zM32 33h1v1h-1zM33 33h1v1h-1z"/><path fill="#729B27" d="M34 33h1v1h-1z"/><path fill="#F5D619" d="M35 33h1v1h-1zM36 33h1v1h-1zM37 33h1v1h-1zM38 33h1v1h-1zM39 33h1v1h-1zM40 33h1v1h-1zM41 33h1v1h-1zM42 33h1v1h-1zM43 33h1v1h-1zM44 33h1v1h-1zM45 33h1v1h-1zM46 33h1v1h-1zM47 33h1v1h-1zM48 33h1v1h-1zM49 33h1v1h-1zM50 33h1v1h-1zM51 33h1v1h-1zM52 33h1v1h-1zM53 33h1v1h-1z"/><path fill="#F2D419" d="M54 33h1v1h-1z"/><path fill="#D0B416" d="M55 33h1v1h-1z"/><path fill="#CBAF15" d="M56 33h1v1h-1zM57 33h1v1h-1zM58 33h1v1h-1zM59 33h1v1h-1zM60 33h1v1h-1zM61 33h1v1h-1zM62 33h1v1h-1zM63 33h1v1h-1z"/><path fill="#A18915" d="M64 33h1v1h-1z"/><path fill="#231815" d="M65 33h1v1h-1zM66 33h1v1h-1zM67 33h1v1h-1zM68 33h1v1h-1zM7 34h1v1H7zM8 34h1v1H8zM9 34h1v1H9zM10 34h1v1h-1z"/><path fill="#A68F18" d="M11 34h1v1h-1z"/><path fill="#F5D619" d="M12 34h1v1h-1zM13 34h1v1h-1zM14 34h1v1h-1z"/><path fill="#C1C023" d="M15 34h1v1h-1z"/><path fill="#237730" d="M16 34h1v1h-1zM17 34h1v1h-1zM18 34h1v1h-1zM19 34h1v1h-1z"/><path fill="#2C7F2F" d="M20 34h1v1h-1z"/><path fill="#44942E" d="M21 34h1v1h-1z"/><path fill="#4D9C2D" d="M22 34h1v1h-1z"/><path fill="#5BA92C" d="M23 34h1v1h-1z"/><path fill="#4D9C2D" d="M24 34h1v1h-1z"/><path fill="#44942E" d="M25 34h1v1h-1z"/><path fill="#31832F" d="M26 34h1v1h-1z"/><path fill="#237730" d="M27 34h1v1h-1zM28 34h1v1h-1zM29 34h1v1h-1zM30 34h1v1h-1zM31 34h1v1h-1z"/><path fill="#3F8636" d="M32 34h1v1h-1z"/><path fill="#B9C549" d="M33 34h1v1h-1z"/><path fill="#F7DA27" d="M34 34h1v1h-1z"/><path fill="#F5D619" d="M35 34h1v1h-1zM36 34h1v1h-1zM37 34h1v1h-1zM38 34h1v1h-1zM39 34h1v1h-1zM40 34h1v1h-1zM41 34h1v1h-1zM42 34h1v1h-1zM43 34h1v1h-1zM44 34h1v1h-1zM45 34h1v1h-1zM46 34h1v1h-1zM47 34h1v1h-1zM48 34h1v1h-1zM49 34h1v1h-1zM50 34h1v1h-1zM51 34h1v1h-1zM52 34h1v1h-1zM53 34h1v1h-1zM54 34h1v1h-1z"/><path fill="#EDCF18" d="M55 34h1v1h-1z"/><path fill="#CBAF15" d="M56 34h1v1h-1zM57 34h1v1h-1zM58 34h1v1h-1zM59 34h1v1h-1zM60 34h1v1h-1zM61 34h1v1h-1zM62 34h1v1h-1zM63 34h1v1h-1zM64 34h1v1h-1z"/><path fill="#625115" d="M65 34h1v1h-1z"/><path fill="#231815" d="M66 34h1v1h-1zM67 34h1v1h-1zM68 34h1v1h-1zM6 35h1v1H6zM7 35h1v1H7zM8 35h1v1H8z"/><path fill="#302415" d="M9 35h1v1H9z"/><path fill="#CEB218" d="M10 35h1v1h-1z"/><path fill="#F5D619" d="M11 35h1v1h-1zM12 35h1v1h-1zM13 35h1v1h-1z"/><path fill="#F8DC2B" d="M14 35h1v1h-1z"/><path fill="#FEE958" d="M15 35h1v1h-1z"/><path fill="#C8CF55" d="M16 35h1v1h-1z"/><path fill="#317E33" d="M17 35h1v1h-1z"/><path fill="#237730" d="M18 35h1v1h-1zM19 35h1v1h-1zM20 35h1v1h-1zM21 35h1v1h-1zM22 35h1v1h-1zM23 35h1v1h-1zM24 35h1v1h-1zM25 35h1v1h-1zM26 35h1v1h-1zM27 35h1v1h-1zM28 35h1v1h-1zM29 35h1v1h-1z"/><path fill="#317E33" d="M30 35h1v1h-1z"/><path fill="#91B249" d="M31 35h1v1h-1z"/><path fill="#F1E55E" d="M32 35h1v1h-1z"/><path fill="#FFEC61" d="M33 35h1v1h-1zM34 35h1v1h-1z"/><path fill="#FBE242" d="M35 35h1v1h-1z"/><path fill="#F6D71E" d="M36 35h1v1h-1z"/><path fill="#F5D619" d="M37 35h1v1h-1zM38 35h1v1h-1zM39 35h1v1h-1zM40 35h1v1h-1zM41 35h1v1h-1zM42 35h1v1h-1zM43 35h1v1h-1zM44 35h1v1h-1zM45 35h1v1h-1zM46 35h1v1h-1zM47 35h1v1h-1zM48 35h1v1h-1zM49 35h1v1h-1zM50 35h1v1h-1zM51 35h1v1h-1zM52 35h1v1h-1zM53 35h1v1h-1zM54 35h1v1h-1zM55 35h1v1h-1z"/><path fill="#E0C317" d="M56 35h1v1h-1z"/><path fill="#CBAF15" d="M57 35h1v1h-1zM58 35h1v1h-1zM59 35h1v1h-1zM60 35h1v1h-1zM61 35h1v1h-1zM62 35h1v1h-1zM63 35h1v1h-1zM64 35h1v1h-1z"/><path fill="#C1A615" d="M65 35h1v1h-1z"/><path fill="#2E2115" d="M66 35h1v1h-1z"/><path fill="#231815" d="M67 35h1v1h-1zM68 35h1v1h-1zM69 35h1v1h-1zM5 36h1v1H5zM6 36h1v1H6zM7 36h1v1H7zM8 36h1v1H8z"/><path fill="#C1A718" d="M9 36h1v1H9z"/><path fill="#F5D619" d="M10 36h1v1h-1zM11 36h1v1h-1zM12 36h1v1h-1z"/><path fill="#FAE13D" d="M13 36h1v1h-1z"/><path fill="#FFEC61" d="M14 36h1v1h-1zM15 36h1v1h-1zM16 36h1v1h-1z"/><path fill="#F1E55E" d="M17 36h1v1h-1z"/><path fill="#76A342" d="M18 36h1v1h-1z"/><path fill="#317E33" d="M19 36h1v1h-1z"/><path fill="#237730" d="M20 36h1v1h-1zM21 36h1v1h-1zM22 36h1v1h-1zM23 36h1v1h-1zM24 36h1v1h-1zM25 36h1v1h-1zM26 36h1v1h-1zM27 36h1v1h-1z"/><path fill="#689C3F" d="M28 36h1v1h-1z"/><path fill="#ADC04F" d="M29 36h1v1h-1z"/><path fill="#FFEC61" d="M30 36h1v1h-1zM31 36h1v1h-1zM32 36h1v1h-1zM33 36h1v1h-1zM34 36h1v1h-1zM35 36h1v1h-1z"/><path fill="#FDE854" d="M36 36h1v1h-1z"/><path fill="#F6D922" d="M37 36h1v1h-1z"/><path fill="#F5D619" d="M38 36h1v1h-1zM39 36h1v1h-1zM40 36h1v1h-1zM41 36h1v1h-1zM42 36h1v1h-1zM43 36h1v1h-1zM44 36h1v1h-1zM45 36h1v1h-1zM46 36h1v1h-1zM47 36h1v1h-1zM48 36h1v1h-1zM49 36h1v1h-1zM50 36h1v1h-1zM51 36h1v1h-1zM52 36h1v1h-1zM53 36h1v1h-1zM54 36h1v1h-1zM55 36h1v1h-1zM56 36h1v1h-1z"/><path fill="#D0B416" d="M57 36h1v1h-1z"/><path fill="#CBAF15" d="M58 36h1v1h-1zM59 36h1v1h-1zM60 36h1v1h-1zM61 36h1v1h-1zM62 36h1v1h-1zM63 36h1v1h-1zM64 36h1v1h-1zM65 36h1v1h-1z"/><path fill="#776415" d="M66 36h1v1h-1z"/><path fill="#231815" d="M67 36h1v1h-1zM68 36h1v1h-1zM69 36h1v1h-1zM4 37h1v1H4zM5 37h1v1H5zM6 37h1v1H6zM7 37h1v1H7z"/><path fill="#A68F18" d="M8 37h1v1H8z"/><path fill="#F5D619" d="M9 37h1v1H9zM10 37h1v1h-1zM11 37h1v1h-1z"/><path fill="#FBE446" d="M12 37h1v1h-1z"/><path fill="#FFEC61" d="M13 37h1v1h-1zM14 37h1v1h-1zM15 37h1v1h-1zM16 37h1v1h-1zM17 37h1v1h-1zM18 37h1v1h-1zM19 37h1v1h-1z"/><path fill="#C8CF55" d="M20 37h1v1h-1z"/><path fill="#91B249" d="M21 37h1v1h-1zM22 37h1v1h-1zM23 37h1v1h-1zM24 37h1v1h-1z"/><path fill="#9FB94C" d="M25 37h1v1h-1z"/><path fill="#C8CF55" d="M26 37h1v1h-1z"/><path fill="#FFEC61" d="M27 37h1v1h-1zM28 37h1v1h-1zM29 37h1v1h-1zM30 37h1v1h-1zM31 37h1v1h-1zM32 37h1v1h-1zM33 37h1v1h-1zM34 37h1v1h-1zM35 37h1v1h-1zM36 37h1v1h-1z"/><path fill="#FEEB5D" d="M37 37h1v1h-1z"/><path fill="#F7DA27" d="M38 37h1v1h-1z"/><path fill="#F5D619" d="M39 37h1v1h-1zM40 37h1v1h-1zM41 37h1v1h-1zM42 37h1v1h-1zM43 37h1v1h-1zM44 37h1v1h-1zM45 37h1v1h-1zM46 37h1v1h-1zM47 37h1v1h-1zM48 37h1v1h-1zM49 37h1v1h-1zM50 37h1v1h-1zM51 37h1v1h-1zM52 37h1v1h-1zM53 37h1v1h-1zM54 37h1v1h-1zM55 37h1v1h-1zM56 37h1v1h-1z"/><path fill="#E5C718" d="M57 37h1v1h-1z"/><path fill="#CBAF15" d="M58 37h1v1h-1zM59 37h1v1h-1zM60 37h1v1h-1zM61 37h1v1h-1zM62 37h1v1h-1zM63 37h1v1h-1zM64 37h1v1h-1zM65 37h1v1h-1z"/><path fill="#C1A615" d="M66 37h1v1h-1z"/><path fill="#2E2115" d="M67 37h1v1h-1z"/><path fill="#231815" d="M68 37h1v1h-1zM69 37h1v1h-1zM70 37h1v1h-1zM3 38h1v1H3zM4 38h1v1H4zM5 38h1v1H5zM6 38h1v1H6z"/><path fill="#7F6B17" d="M7 38h1v1H7z"/><path fill="#F5D619" d="M8 38h1v1H8zM9 38h1v1H9zM10 38h1v1h-1z"/><path fill="#FBE242" d="M11 38h1v1h-1z"/><path fill="#FFEC61" d="M12 38h1v1h-1zM13 38h1v1h-1zM14 38h1v1h-1zM15 38h1v1h-1zM16 38h1v1h-1zM17 38h1v1h-1zM18 38h1v1h-1zM19 38h1v1h-1zM20 38h1v1h-1zM21 38h1v1h-1zM22 38h1v1h-1zM23 38h1v1h-1zM24 38h1v1h-1zM25 38h1v1h-1zM26 38h1v1h-1zM27 38h1v1h-1zM28 38h1v1h-1zM29 38h1v1h-1zM30 38h1v1h-1zM31 38h1v1h-1zM32 38h1v1h-1zM33 38h1v1h-1zM34 38h1v1h-1zM35 38h1v1h-1zM36 38h1v1h-1zM37 38h1v1h-1z"/><path fill="#FEEB5D" d="M38 38h1v1h-1z"/><path fill="#F6D71E" d="M39 38h1v1h-1z"/><path fill="#F5D619" d="M40 38h1v1h-1zM41 38h1v1h-1zM42 38h1v1h-1zM43 38h1v1h-1zM44 38h1v1h-1zM45 38h1v1h-1zM46 38h1v1h-1zM47 38h1v1h-1zM48 38h1v1h-1zM49 38h1v1h-1zM50 38h1v1h-1zM51 38h1v1h-1zM52 38h1v1h-1zM53 38h1v1h-1zM54 38h1v1h-1zM55 38h1v1h-1zM56 38h1v1h-1zM57 38h1v1h-1z"/><path fill="#D0B416" d="M58 38h1v1h-1z"/><path fill="#CBAF15" d="M59 38h1v1h-1zM60 38h1v1h-1zM61 38h1v1h-1zM62 38h1v1h-1zM63 38h1v1h-1zM64 38h1v1h-1zM65 38h1v1h-1zM66 38h1v1h-1z"/><path fill="#625115" d="M67 38h1v1h-1z"/><path fill="#231815" d="M68 38h1v1h-1zM69 38h1v1h-1zM70 38h1v1h-1zM3 39h1v1H3zM4 39h1v1H4zM5 39h1v1H5z"/><path fill="#4A3C16" d="M6 39h1v1H6z"/><path fill="#F5D619" d="M7 39h1v1H7zM8 39h1v1H8zM9 39h1v1H9z"/><path fill="#F8DD30" d="M10 39h1v1h-1z"/><path fill="#FFEC61" d="M11 39h1v1h-1zM12 39h1v1h-1zM13 39h1v1h-1zM14 39h1v1h-1zM15 39h1v1h-1zM16 39h1v1h-1zM17 39h1v1h-1zM18 39h1v1h-1zM19 39h1v1h-1zM20 39h1v1h-1zM21 39h1v1h-1zM22 39h1v1h-1zM23 39h1v1h-1zM24 39h1v1h-1zM25 39h1v1h-1zM26 39h1v1h-1zM27 39h1v1h-1zM28 39h1v1h-1zM29 39h1v1h-1zM30 39h1v1h-1zM31 39h1v1h-1zM32 39h1v1h-1zM33 39h1v1h-1zM34 39h1v1h-1zM35 39h1v1h-1zM36 39h1v1h-1zM37 39h1v1h-1zM38 39h1v1h-1z"/><path fill="#FDE854" d="M39 39h1v1h-1z"/><path fill="#F5D619" d="M40 39h1v1h-1zM41 39h1v1h-1zM42 39h1v1h-1zM43 39h1v1h-1zM44 39h1v1h-1zM45 39h1v1h-1zM46 39h1v1h-1zM47 39h1v1h-1zM48 39h1v1h-1zM49 39h1v1h-1zM50 39h1v1h-1zM51 39h1v1h-1zM52 39h1v1h-1zM53 39h1v1h-1zM54 39h1v1h-1zM55 39h1v1h-1zM56 39h1v1h-1zM57 39h1v1h-1z"/><path fill="#DDC017" d="M58 39h1v1h-1z"/><path fill="#CBAF15" d="M59 39h1v1h-1zM60 39h1v1h-1zM61 39h1v1h-1zM62 39h1v1h-1zM63 39h1v1h-1zM64 39h1v1h-1zM65 39h1v1h-1zM66 39h1v1h-1z"/><path fill="#AC9315" d="M67 39h1v1h-1z"/><path fill="#231815" d="M68 39h1v1h-1zM69 39h1v1h-1zM70 39h1v1h-1zM2 40h1v1H2zM3 40h1v1H3zM4 40h1v1H4zM5 40h1v1H5z"/><path fill="#CEB218" d="M6 40h1v1H6z"/><path fill="#F5D619" d="M7 40h1v1H7zM8 40h1v1H8z"/><path fill="#F6D71E" d="M9 40h1v1H9z"/><path fill="#FEEB5D" d="M10 40h1v1h-1z"/><path fill="#FFEC61" d="M11 40h1v1h-1zM12 40h1v1h-1zM13 40h1v1h-1zM14 40h1v1h-1zM15 40h1v1h-1zM16 40h1v1h-1zM17 40h1v1h-1zM18 40h1v1h-1zM19 40h1v1h-1zM20 40h1v1h-1zM21 40h1v1h-1zM22 40h1v1h-1zM23 40h1v1h-1zM24 40h1v1h-1zM25 40h1v1h-1zM26 40h1v1h-1zM27 40h1v1h-1zM28 40h1v1h-1zM29 40h1v1h-1zM30 40h1v1h-1zM31 40h1v1h-1zM32 40h1v1h-1zM33 40h1v1h-1zM34 40h1v1h-1zM35 40h1v1h-1zM36 40h1v1h-1zM37 40h1v1h-1zM38 40h1v1h-1zM39 40h1v1h-1z"/><path fill="#FAE13D" d="M40 40h1v1h-1z"/><path fill="#F5D619" d="M41 40h1v1h-1zM42 40h1v1h-1zM43 40h1v1h-1zM44 40h1v1h-1zM45 40h1v1h-1zM46 40h1v1h-1zM47 40h1v1h-1zM48 40h1v1h-1zM49 40h1v1h-1zM50 40h1v1h-1zM51 40h1v1h-1zM52 40h1v1h-1zM53 40h1v1h-1zM54 40h1v1h-1zM55 40h1v1h-1zM56 40h1v1h-1zM57 40h1v1h-1z"/><path fill="#EDCF18" d="M58 40h1v1h-1z"/><path fill="#CBAF15" d="M59 40h1v1h-1zM60 40h1v1h-1zM61 40h1v1h-1zM62 40h1v1h-1zM63 40h1v1h-1zM64 40h1v1h-1zM65 40h1v1h-1zM66 40h1v1h-1zM67 40h1v1h-1z"/><path fill="#382B15" d="M68 40h1v1h-1z"/><path fill="#231815" d="M69 40h1v1h-1zM70 40h1v1h-1zM71 40h1v1h-1zM2 41h1v1H2zM3 41h1v1H3zM4 41h1v1H4z"/><path fill="#725F17" d="M5 41h1v1H5z"/><path fill="#F5D619" d="M6 41h1v1H6zM7 41h1v1H7zM8 41h1v1H8z"/><path fill="#FBE242" d="M9 41h1v1H9z"/><path fill="#FFEC61" d="M10 41h1v1h-1zM11 41h1v1h-1zM12 41h1v1h-1zM13 41h1v1h-1zM14 41h1v1h-1zM15 41h1v1h-1zM16 41h1v1h-1zM17 41h1v1h-1zM18 41h1v1h-1zM19 41h1v1h-1z"/><path fill="#FFED68" d="M20 41h1v1h-1z"/><path fill="#FFEF6F" d="M21 41h1v1h-1zM22 41h1v1h-1z"/><path fill="#FFEC61" d="M23 41h1v1h-1zM24 41h1v1h-1zM25 41h1v1h-1zM26 41h1v1h-1zM27 41h1v1h-1zM28 41h1v1h-1zM29 41h1v1h-1zM30 41h1v1h-1zM31 41h1v1h-1zM32 41h1v1h-1zM33 41h1v1h-1zM34 41h1v1h-1zM35 41h1v1h-1zM36 41h1v1h-1zM37 41h1v1h-1zM38 41h1v1h-1zM39 41h1v1h-1z"/><path fill="#FEEB5D" d="M40 41h1v1h-1z"/><path fill="#F6D71E" d="M41 41h1v1h-1z"/><path fill="#F5D619" d="M42 41h1v1h-1zM43 41h1v1h-1zM44 41h1v1h-1zM45 41h1v1h-1zM46 41h1v1h-1zM47 41h1v1h-1zM48 41h1v1h-1zM49 41h1v1h-1zM50 41h1v1h-1zM51 41h1v1h-1zM52 41h1v1h-1zM53 41h1v1h-1zM54 41h1v1h-1zM55 41h1v1h-1zM56 41h1v1h-1zM57 41h1v1h-1zM58 41h1v1h-1z"/><path fill="#CEB115" d="M59 41h1v1h-1z"/><path fill="#CBAF15" d="M60 41h1v1h-1zM61 41h1v1h-1zM62 41h1v1h-1zM63 41h1v1h-1zM64 41h1v1h-1zM65 41h1v1h-1zM66 41h1v1h-1zM67 41h1v1h-1z"/><path fill="#625115" d="M68 41h1v1h-1z"/><path fill="#231815" d="M69 41h1v1h-1zM70 41h1v1h-1zM71 41h1v1h-1zM1 42h1v1H1zM2 42h1v1H2zM3 42h1v1H3zM4 42h1v1H4z"/><path fill="#DBBE19" d="M5 42h1v1H5z"/><path fill="#F5D619" d="M6 42h1v1H6zM7 42h1v1H7z"/><path fill="#F6D71E" d="M8 42h1v1H8z"/><path fill="#FFEC61" d="M9 42h1v1H9zM10 42h1v1h-1zM11 42h1v1h-1zM12 42h1v1h-1zM13 42h1v1h-1zM14 42h1v1h-1zM15 42h1v1h-1zM16 42h1v1h-1zM17 42h1v1h-1z"/><path fill="#FFEE6C" d="M18 42h1v1h-1z"/><path fill="#FFF48B" d="M19 42h1v1h-1z"/><path fill="#FFF799" d="M20 42h1v1h-1zM21 42h1v1h-1zM22 42h1v1h-1z"/><path fill="#FFF696" d="M23 42h1v1h-1z"/><path fill="#FFF27D" d="M24 42h1v1h-1z"/><path fill="#FFEC61" d="M25 42h1v1h-1zM26 42h1v1h-1zM27 42h1v1h-1zM28 42h1v1h-1zM29 42h1v1h-1zM30 42h1v1h-1zM31 42h1v1h-1zM32 42h1v1h-1zM33 42h1v1h-1zM34 42h1v1h-1zM35 42h1v1h-1zM36 42h1v1h-1zM37 42h1v1h-1zM38 42h1v1h-1zM39 42h1v1h-1zM40 42h1v1h-1z"/><path fill="#FAE13D" d="M41 42h1v1h-1z"/><path fill="#F5D619" d="M42 42h1v1h-1zM43 42h1v1h-1zM44 42h1v1h-1zM45 42h1v1h-1zM46 42h1v1h-1zM47 42h1v1h-1zM48 42h1v1h-1zM49 42h1v1h-1zM50 42h1v1h-1zM51 42h1v1h-1zM52 42h1v1h-1zM53 42h1v1h-1zM54 42h1v1h-1zM55 42h1v1h-1zM56 42h1v1h-1zM57 42h1v1h-1zM58 42h1v1h-1z"/><path fill="#D6B916" d="M59 42h1v1h-1z"/><path fill="#CBAF15" d="M60 42h1v1h-1zM61 42h1v1h-1zM62 42h1v1h-1zM63 42h1v1h-1zM64 42h1v1h-1zM65 42h1v1h-1zM66 42h1v1h-1zM67 42h1v1h-1z"/><path fill="#8C7615" d="M68 42h1v1h-1z"/><path fill="#231815" d="M69 42h1v1h-1zM70 42h1v1h-1zM71 42h1v1h-1zM1 43h1v1H1zM2 43h1v1H2zM3 43h1v1H3z"/><path fill="#725F17" d="M4 43h1v1H4z"/><path fill="#F5D619" d="M5 43h1v1H5zM6 43h1v1H6zM7 43h1v1H7z"/><path fill="#F9E039" d="M8 43h1v1H8z"/><path fill="#FFEC61" d="M9 43h1v1H9zM10 43h1v1h-1zM11 43h1v1h-1zM12 43h1v1h-1zM13 43h1v1h-1zM14 43h1v1h-1zM15 43h1v1h-1zM16 43h1v1h-1z"/><path fill="#FFED65" d="M17 43h1v1h-1z"/><path fill="#FFF696" d="M18 43h1v1h-1z"/><path fill="#FFF799" d="M19 43h1v1h-1zM20 43h1v1h-1zM21 43h1v1h-1zM22 43h1v1h-1zM23 43h1v1h-1zM24 43h1v1h-1z"/><path fill="#FFF17A" d="M25 43h1v1h-1z"/><path fill="#FFEC61" d="M26 43h1v1h-1zM27 43h1v1h-1zM28 43h1v1h-1zM29 43h1v1h-1zM30 43h1v1h-1zM31 43h1v1h-1zM32 43h1v1h-1zM33 43h1v1h-1zM34 43h1v1h-1zM35 43h1v1h-1zM36 43h1v1h-1zM37 43h1v1h-1zM38 43h1v1h-1zM39 43h1v1h-1zM40 43h1v1h-1z"/><path fill="#FEE958" d="M41 43h1v1h-1z"/><path fill="#F5D619" d="M42 43h1v1h-1zM43 43h1v1h-1zM44 43h1v1h-1zM45 43h1v1h-1zM46 43h1v1h-1zM47 43h1v1h-1zM48 43h1v1h-1zM49 43h1v1h-1zM50 43h1v1h-1zM51 43h1v1h-1zM52 43h1v1h-1zM53 43h1v1h-1zM54 43h1v1h-1zM55 43h1v1h-1zM56 43h1v1h-1zM57 43h1v1h-1zM58 43h1v1h-1z"/><path fill="#E0C317" d="M59 43h1v1h-1z"/><path fill="#CBAF15" d="M60 43h1v1h-1zM61 43h1v1h-1zM62 43h1v1h-1zM63 43h1v1h-1zM64 43h1v1h-1zM65 43h1v1h-1zM66 43h1v1h-1zM67 43h1v1h-1z"/><path fill="#AC9315" d="M68 43h1v1h-1z"/><path fill="#231815" d="M69 43h1v1h-1zM70 43h1v1h-1zM71 43h1v1h-1zM1 44h1v1H1zM2 44h1v1H2zM3 44h1v1H3z"/><path fill="#CEB218" d="M4 44h1v1H4z"/><path fill="#F5D619" d="M5 44h1v1H5zM6 44h1v1H6zM7 44h1v1H7z"/><path fill="#FCE54B" d="M8 44h1v1H8z"/><path fill="#FFEC61" d="M9 44h1v1H9zM10 44h1v1h-1zM11 44h1v1h-1zM12 44h1v1h-1zM13 44h1v1h-1zM14 44h1v1h-1zM15 44h1v1h-1zM16 44h1v1h-1z"/><path fill="#FFF17A" d="M17 44h1v1h-1z"/><path fill="#FFF799" d="M18 44h1v1h-1zM19 44h1v1h-1zM20 44h1v1h-1zM21 44h1v1h-1zM22 44h1v1h-1zM23 44h1v1h-1zM24 44h1v1h-1z"/><path fill="#FFF58F" d="M25 44h1v1h-1z"/><path fill="#FFEC61" d="M26 44h1v1h-1zM27 44h1v1h-1zM28 44h1v1h-1zM29 44h1v1h-1zM30 44h1v1h-1zM31 44h1v1h-1zM32 44h1v1h-1zM33 44h1v1h-1zM34 44h1v1h-1zM35 44h1v1h-1zM36 44h1v1h-1zM37 44h1v1h-1zM38 44h1v1h-1zM39 44h1v1h-1zM40 44h1v1h-1zM41 44h1v1h-1z"/><path fill="#F7DA27" d="M42 44h1v1h-1z"/><path fill="#F5D619" d="M43 44h1v1h-1zM44 44h1v1h-1zM45 44h1v1h-1zM46 44h1v1h-1zM47 44h1v1h-1zM48 44h1v1h-1zM49 44h1v1h-1zM50 44h1v1h-1zM51 44h1v1h-1zM52 44h1v1h-1zM53 44h1v1h-1zM54 44h1v1h-1zM55 44h1v1h-1zM56 44h1v1h-1zM57 44h1v1h-1zM58 44h1v1h-1z"/><path fill="#E3C517" d="M59 44h1v1h-1z"/><path fill="#CBAF15" d="M60 44h1v1h-1zM61 44h1v1h-1zM62 44h1v1h-1zM63 44h1v1h-1zM64 44h1v1h-1zM65 44h1v1h-1zM66 44h1v1h-1zM67 44h1v1h-1zM68 44h1v1h-1z"/><path fill="#231815" d="M69 44h1v1h-1zM70 44h1v1h-1zM71 44h1v1h-1zM0 45h1v1H0zM1 45h1v1H1zM2 45h1v1H2z"/><path fill="#3D3016" d="M3 45h1v1H3z"/><path fill="#F5D619" d="M4 45h1v1H4zM5 45h1v1H5zM6 45h1v1H6zM7 45h1v1H7z"/><path fill="#FFEC61" d="M8 45h1v1H8zM9 45h1v1H9zM10 45h1v1h-1zM11 45h1v1h-1zM12 45h1v1h-1zM13 45h1v1h-1zM14 45h1v1h-1zM15 45h1v1h-1zM16 45h1v1h-1z"/><path fill="#FFF17A" d="M17 45h1v1h-1z"/><path fill="#FFF799" d="M18 45h1v1h-1zM19 45h1v1h-1zM20 45h1v1h-1zM21 45h1v1h-1zM22 45h1v1h-1zM23 45h1v1h-1zM24 45h1v1h-1z"/><path fill="#FFF58F" d="M25 45h1v1h-1z"/><path fill="#FFEC61" d="M26 45h1v1h-1zM27 45h1v1h-1zM28 45h1v1h-1zM29 45h1v1h-1zM30 45h1v1h-1zM31 45h1v1h-1zM32 45h1v1h-1zM33 45h1v1h-1zM34 45h1v1h-1zM35 45h1v1h-1zM36 45h1v1h-1zM37 45h1v1h-1zM38 45h1v1h-1zM39 45h1v1h-1zM40 45h1v1h-1zM41 45h1v1h-1z"/><path fill="#F9E039" d="M42 45h1v1h-1z"/><path fill="#F5D619" d="M43 45h1v1h-1zM44 45h1v1h-1zM45 45h1v1h-1zM46 45h1v1h-1zM47 45h1v1h-1zM48 45h1v1h-1zM49 45h1v1h-1zM50 45h1v1h-1zM51 45h1v1h-1zM52 45h1v1h-1zM53 45h1v1h-1zM54 45h1v1h-1zM55 45h1v1h-1zM56 45h1v1h-1zM57 45h1v1h-1zM58 45h1v1h-1z"/><path fill="#EBCC18" d="M59 45h1v1h-1z"/><path fill="#CBAF15" d="M60 45h1v1h-1zM61 45h1v1h-1zM62 45h1v1h-1zM63 45h1v1h-1zM64 45h1v1h-1zM65 45h1v1h-1zM66 45h1v1h-1zM67 45h1v1h-1zM68 45h1v1h-1z"/><path fill="#231815" d="M69 45h1v1h-1zM70 45h1v1h-1zM71 45h1v1h-1zM0 46h1v1H0zM1 46h1v1H1zM2 46h1v1H2z"/><path fill="#7F6B17" d="M3 46h1v1H3z"/><path fill="#F5D619" d="M4 46h1v1H4zM5 46h1v1H5zM6 46h1v1H6z"/><path fill="#F6D71E" d="M7 46h1v1H7z"/><path fill="#FFEC61" d="M8 46h1v1H8zM9 46h1v1H9zM10 46h1v1h-1zM11 46h1v1h-1zM12 46h1v1h-1zM13 46h1v1h-1zM14 46h1v1h-1zM15 46h1v1h-1zM16 46h1v1h-1z"/><path fill="#FFED65" d="M17 46h1v1h-1z"/><path fill="#FFF696" d="M18 46h1v1h-1z"/><path fill="#FFF799" d="M19 46h1v1h-1zM20 46h1v1h-1zM21 46h1v1h-1zM22 46h1v1h-1zM23 46h1v1h-1zM24 46h1v1h-1z"/><path fill="#FFF27D" d="M25 46h1v1h-1z"/><path fill="#FFEC61" d="M26 46h1v1h-1zM27 46h1v1h-1zM28 46h1v1h-1zM29 46h1v1h-1zM30 46h1v1h-1zM31 46h1v1h-1zM32 46h1v1h-1zM33 46h1v1h-1zM34 46h1v1h-1zM35 46h1v1h-1zM36 46h1v1h-1zM37 46h1v1h-1zM38 46h1v1h-1zM39 46h1v1h-1zM40 46h1v1h-1zM41 46h1v1h-1z"/><path fill="#FAE13D" d="M42 46h1v1h-1z"/><path fill="#F5D619" d="M43 46h1v1h-1zM44 46h1v1h-1zM45 46h1v1h-1zM46 46h1v1h-1zM47 46h1v1h-1zM48 46h1v1h-1zM49 46h1v1h-1zM50 46h1v1h-1zM51 46h1v1h-1zM52 46h1v1h-1zM53 46h1v1h-1zM54 46h1v1h-1zM55 46h1v1h-1zM56 46h1v1h-1zM57 46h1v1h-1zM58 46h1v1h-1z"/><path fill="#EBCC18" d="M59 46h1v1h-1z"/><path fill="#CBAF15" d="M60 46h1v1h-1zM61 46h1v1h-1zM62 46h1v1h-1zM63 46h1v1h-1zM64 46h1v1h-1zM65 46h1v1h-1zM66 46h1v1h-1zM67 46h1v1h-1zM68 46h1v1h-1z"/><path fill="#4D3E15" d="M69 46h1v1h-1z"/><path fill="#231815" d="M70 46h1v1h-1zM71 46h1v1h-1zM0 47h1v1H0zM1 47h1v1H1zM2 47h1v1H2z"/><path fill="#B39B18" d="M3 47h1v1H3z"/><path fill="#F5D619" d="M4 47h1v1H4zM5 47h1v1H5zM6 47h1v1H6z"/><path fill="#F8DC2B" d="M7 47h1v1H7z"/><path fill="#FFEC61" d="M8 47h1v1H8zM9 47h1v1H9zM10 47h1v1h-1zM11 47h1v1h-1zM12 47h1v1h-1zM13 47h1v1h-1zM14 47h1v1h-1zM15 47h1v1h-1zM16 47h1v1h-1zM17 47h1v1h-1z"/><path fill="#FFEE6C" d="M18 47h1v1h-1z"/><path fill="#FFF58F" d="M19 47h1v1h-1z"/><path fill="#FFF799" d="M20 47h1v1h-1zM21 47h1v1h-1zM22 47h1v1h-1z"/><path fill="#FFF696" d="M23 47h1v1h-1z"/><path fill="#FFF27D" d="M24 47h1v1h-1z"/><path fill="#FFEC61" d="M25 47h1v1h-1zM26 47h1v1h-1zM27 47h1v1h-1zM28 47h1v1h-1zM29 47h1v1h-1zM30 47h1v1h-1zM31 47h1v1h-1zM32 47h1v1h-1zM33 47h1v1h-1zM34 47h1v1h-1zM35 47h1v1h-1zM36 47h1v1h-1zM37 47h1v1h-1zM38 47h1v1h-1zM39 47h1v1h-1zM40 47h1v1h-1zM41 47h1v1h-1z"/><path fill="#FDE74F" d="M42 47h1v1h-1z"/><path fill="#F5D619" d="M43 47h1v1h-1zM44 47h1v1h-1zM45 47h1v1h-1zM46 47h1v1h-1zM47 47h1v1h-1zM48 47h1v1h-1zM49 47h1v1h-1zM50 47h1v1h-1zM51 47h1v1h-1zM52 47h1v1h-1zM53 47h1v1h-1zM54 47h1v1h-1zM55 47h1v1h-1zM56 47h1v1h-1zM57 47h1v1h-1zM58 47h1v1h-1z"/><path fill="#EBCC18" d="M59 47h1v1h-1z"/><path fill="#CBAF15" d="M60 47h1v1h-1zM61 47h1v1h-1zM62 47h1v1h-1zM63 47h1v1h-1zM64 47h1v1h-1zM65 47h1v1h-1zM66 47h1v1h-1zM67 47h1v1h-1zM68 47h1v1h-1z"/><path fill="#4D3E15" d="M69 47h1v1h-1z"/><path fill="#231815" d="M70 47h1v1h-1zM71 47h1v1h-1zM0 48h1v1H0zM1 48h1v1H1zM2 48h1v1H2z"/><path fill="#DBBE19" d="M3 48h1v1H3z"/><path fill="#F5D619" d="M4 48h1v1H4zM5 48h1v1H5zM6 48h1v1H6z"/><path fill="#F8DC2B" d="M7 48h1v1H7z"/><path fill="#FFEC61" d="M8 48h1v1H8zM9 48h1v1H9zM10 48h1v1h-1zM11 48h1v1h-1zM12 48h1v1h-1zM13 48h1v1h-1zM14 48h1v1h-1zM15 48h1v1h-1zM16 48h1v1h-1zM17 48h1v1h-1zM18 48h1v1h-1zM19 48h1v1h-1z"/><path fill="#FFEE6C" d="M20 48h1v1h-1z"/><path fill="#FFEF6F" d="M21 48h1v1h-1zM22 48h1v1h-1z"/><path fill="#FFEC61" d="M23 48h1v1h-1zM24 48h1v1h-1zM25 48h1v1h-1zM26 48h1v1h-1zM27 48h1v1h-1zM28 48h1v1h-1zM29 48h1v1h-1zM30 48h1v1h-1zM31 48h1v1h-1zM32 48h1v1h-1zM33 48h1v1h-1zM34 48h1v1h-1zM35 48h1v1h-1zM36 48h1v1h-1zM37 48h1v1h-1zM38 48h1v1h-1zM39 48h1v1h-1zM40 48h1v1h-1zM41 48h1v1h-1z"/><path fill="#FDE74F" d="M42 48h1v1h-1z"/><path fill="#F5D619" d="M43 48h1v1h-1zM44 48h1v1h-1zM45 48h1v1h-1zM46 48h1v1h-1zM47 48h1v1h-1zM48 48h1v1h-1zM49 48h1v1h-1zM50 48h1v1h-1zM51 48h1v1h-1zM52 48h1v1h-1zM53 48h1v1h-1zM54 48h1v1h-1zM55 48h1v1h-1zM56 48h1v1h-1zM57 48h1v1h-1zM58 48h1v1h-1z"/><path fill="#EBCC18" d="M59 48h1v1h-1z"/><path fill="#CBAF15" d="M60 48h1v1h-1zM61 48h1v1h-1zM62 48h1v1h-1zM63 48h1v1h-1zM64 48h1v1h-1zM65 48h1v1h-1zM66 48h1v1h-1zM67 48h1v1h-1zM68 48h1v1h-1z"/><path fill="#382B15" d="M69 48h1v1h-1z"/><path fill="#231815" d="M70 48h1v1h-1zM71 48h1v1h-1zM0 49h1v1H0zM1 49h1v1H1zM2 49h1v1H2z"/><path fill="#F5D619" d="M3 49h1v1H3zM4 49h1v1H4zM5 49h1v1H5zM6 49h1v1H6z"/><path fill="#F8DC2B" d="M7 49h1v1H7z"/><path fill="#FFEC61" d="M8 49h1v1H8zM9 49h1v1H9zM10 49h1v1h-1zM11 49h1v1h-1zM12 49h1v1h-1zM13 49h1v1h-1zM14 49h1v1h-1zM15 49h1v1h-1zM16 49h1v1h-1zM17 49h1v1h-1zM18 49h1v1h-1zM19 49h1v1h-1zM20 49h1v1h-1zM21 49h1v1h-1zM22 49h1v1h-1zM23 49h1v1h-1zM24 49h1v1h-1zM25 49h1v1h-1zM26 49h1v1h-1zM27 49h1v1h-1zM28 49h1v1h-1zM29 49h1v1h-1zM30 49h1v1h-1zM31 49h1v1h-1zM32 49h1v1h-1zM33 49h1v1h-1zM34 49h1v1h-1zM35 49h1v1h-1zM36 49h1v1h-1zM37 49h1v1h-1zM38 49h1v1h-1zM39 49h1v1h-1zM40 49h1v1h-1zM41 49h1v1h-1z"/><path fill="#FBE446" d="M42 49h1v1h-1z"/><path fill="#F5D619" d="M43 49h1v1h-1zM44 49h1v1h-1zM45 49h1v1h-1zM46 49h1v1h-1zM47 49h1v1h-1zM48 49h1v1h-1zM49 49h1v1h-1zM50 49h1v1h-1zM51 49h1v1h-1zM52 49h1v1h-1zM53 49h1v1h-1zM54 49h1v1h-1zM55 49h1v1h-1zM56 49h1v1h-1zM57 49h1v1h-1zM58 49h1v1h-1z"/><path fill="#E5C718" d="M59 49h1v1h-1z"/><path fill="#CBAF15" d="M60 49h1v1h-1zM61 49h1v1h-1zM62 49h1v1h-1zM63 49h1v1h-1zM64 49h1v1h-1zM65 49h1v1h-1zM66 49h1v1h-1zM67 49h1v1h-1zM68 49h1v1h-1z"/><path fill="#231815" d="M69 49h1v1h-1zM70 49h1v1h-1zM71 49h1v1h-1zM0 50h1v1H0zM1 50h1v1H1z"/><path fill="#302415" d="M2 50h1v1H2z"/><path fill="#F5D619" d="M3 50h1v1H3zM4 50h1v1H4zM5 50h1v1H5zM6 50h1v1H6zM7 50h1v1H7z"/><path fill="#FFEC61" d="M8 50h1v1H8zM9 50h1v1H9zM10 50h1v1h-1zM11 50h1v1h-1zM12 50h1v1h-1zM13 50h1v1h-1zM14 50h1v1h-1zM15 50h1v1h-1zM16 50h1v1h-1zM17 50h1v1h-1zM18 50h1v1h-1zM19 50h1v1h-1zM20 50h1v1h-1zM21 50h1v1h-1zM22 50h1v1h-1zM23 50h1v1h-1zM24 50h1v1h-1zM25 50h1v1h-1zM26 50h1v1h-1zM27 50h1v1h-1zM28 50h1v1h-1zM29 50h1v1h-1zM30 50h1v1h-1zM31 50h1v1h-1zM32 50h1v1h-1zM33 50h1v1h-1zM34 50h1v1h-1zM35 50h1v1h-1zM36 50h1v1h-1zM37 50h1v1h-1zM38 50h1v1h-1zM39 50h1v1h-1zM40 50h1v1h-1zM41 50h1v1h-1z"/><path fill="#FAE13D" d="M42 50h1v1h-1z"/><path fill="#F5D619" d="M43 50h1v1h-1zM44 50h1v1h-1zM45 50h1v1h-1zM46 50h1v1h-1zM47 50h1v1h-1zM48 50h1v1h-1zM49 50h1v1h-1zM50 50h1v1h-1zM51 50h1v1h-1zM52 50h1v1h-1zM53 50h1v1h-1zM54 50h1v1h-1zM55 50h1v1h-1zM56 50h1v1h-1zM57 50h1v1h-1zM58 50h1v1h-1z"/><path fill="#E0C317" d="M59 50h1v1h-1z"/><path fill="#CBAF15" d="M60 50h1v1h-1zM61 50h1v1h-1zM62 50h1v1h-1zM63 50h1v1h-1zM64 50h1v1h-1zM65 50h1v1h-1zM66 50h1v1h-1zM67 50h1v1h-1z"/><path fill="#C1A615" d="M68 50h1v1h-1z"/><path fill="#231815" d="M69 50h1v1h-1zM70 50h1v1h-1zM71 50h1v1h-1zM0 51h1v1H0zM1 51h1v1H1z"/><path fill="#584816" d="M2 51h1v1H2z"/><path fill="#F5D619" d="M3 51h1v1H3zM4 51h1v1H4zM5 51h1v1H5zM6 51h1v1H6zM7 51h1v1H7z"/><path fill="#FEE958" d="M8 51h1v1H8z"/><path fill="#FFEC61" d="M9 51h1v1H9zM10 51h1v1h-1zM11 51h1v1h-1zM12 51h1v1h-1zM13 51h1v1h-1zM14 51h1v1h-1zM15 51h1v1h-1zM16 51h1v1h-1zM17 51h1v1h-1zM18 51h1v1h-1zM19 51h1v1h-1zM20 51h1v1h-1zM21 51h1v1h-1zM22 51h1v1h-1zM23 51h1v1h-1zM24 51h1v1h-1zM25 51h1v1h-1zM26 51h1v1h-1zM27 51h1v1h-1zM28 51h1v1h-1zM29 51h1v1h-1zM30 51h1v1h-1zM31 51h1v1h-1zM32 51h1v1h-1zM33 51h1v1h-1zM34 51h1v1h-1zM35 51h1v1h-1zM36 51h1v1h-1zM37 51h1v1h-1zM38 51h1v1h-1zM39 51h1v1h-1zM40 51h1v1h-1zM41 51h1v1h-1z"/><path fill="#F8DD30" d="M42 51h1v1h-1z"/><path fill="#F5D619" d="M43 51h1v1h-1zM44 51h1v1h-1zM45 51h1v1h-1zM46 51h1v1h-1zM47 51h1v1h-1zM48 51h1v1h-1zM49 51h1v1h-1zM50 51h1v1h-1zM51 51h1v1h-1zM52 51h1v1h-1zM53 51h1v1h-1zM54 51h1v1h-1zM55 51h1v1h-1zM56 51h1v1h-1zM57 51h1v1h-1zM58 51h1v1h-1z"/><path fill="#DBBE17" d="M59 51h1v1h-1z"/><path fill="#CBAF15" d="M60 51h1v1h-1zM61 51h1v1h-1zM62 51h1v1h-1zM63 51h1v1h-1zM64 51h1v1h-1zM65 51h1v1h-1zM66 51h1v1h-1zM67 51h1v1h-1z"/><path fill="#A18915" d="M68 51h1v1h-1z"/><path fill="#231815" d="M69 51h1v1h-1zM70 51h1v1h-1zM71 51h1v1h-1zM0 52h1v1H0zM1 52h1v1H1z"/><path fill="#584816" d="M2 52h1v1H2z"/><path fill="#F5D619" d="M3 52h1v1H3zM4 52h1v1H4zM5 52h1v1H5zM6 52h1v1H6zM7 52h1v1H7z"/><path fill="#FBE446" d="M8 52h1v1H8z"/><path fill="#FFEC61" d="M9 52h1v1H9zM10 52h1v1h-1zM11 52h1v1h-1zM12 52h1v1h-1zM13 52h1v1h-1zM14 52h1v1h-1zM15 52h1v1h-1zM16 52h1v1h-1zM17 52h1v1h-1zM18 52h1v1h-1zM19 52h1v1h-1zM20 52h1v1h-1zM21 52h1v1h-1zM22 52h1v1h-1zM23 52h1v1h-1zM24 52h1v1h-1zM25 52h1v1h-1zM26 52h1v1h-1zM27 52h1v1h-1zM28 52h1v1h-1zM29 52h1v1h-1zM30 52h1v1h-1zM31 52h1v1h-1zM32 52h1v1h-1zM33 52h1v1h-1zM34 52h1v1h-1zM35 52h1v1h-1zM36 52h1v1h-1zM37 52h1v1h-1zM38 52h1v1h-1zM39 52h1v1h-1zM40 52h1v1h-1zM41 52h1v1h-1z"/><path fill="#F6D71E" d="M42 52h1v1h-1z"/><path fill="#F5D619" d="M43 52h1v1h-1zM44 52h1v1h-1zM45 52h1v1h-1zM46 52h1v1h-1zM47 52h1v1h-1zM48 52h1v1h-1zM49 52h1v1h-1zM50 52h1v1h-1zM51 52h1v1h-1zM52 52h1v1h-1zM53 52h1v1h-1zM54 52h1v1h-1zM55 52h1v1h-1zM56 52h1v1h-1zM57 52h1v1h-1zM58 52h1v1h-1z"/><path fill="#D3B616" d="M59 52h1v1h-1z"/><path fill="#CBAF15" d="M60 52h1v1h-1zM61 52h1v1h-1zM62 52h1v1h-1zM63 52h1v1h-1zM64 52h1v1h-1zM65 52h1v1h-1zM66 52h1v1h-1zM67 52h1v1h-1z"/><path fill="#826D15" d="M68 52h1v1h-1z"/><path fill="#231815" d="M69 52h1v1h-1zM70 52h1v1h-1zM71 52h1v1h-1zM0 53h1v1H0zM1 53h1v1H1zM2 53h1v1H2z"/><path fill="#F5D619" d="M3 53h1v1H3zM4 53h1v1H4zM5 53h1v1H5zM6 53h1v1H6zM7 53h1v1H7z"/><path fill="#F8DD30" d="M8 53h1v1H8z"/><path fill="#FFEC61" d="M9 53h1v1H9zM10 53h1v1h-1zM11 53h1v1h-1zM12 53h1v1h-1zM13 53h1v1h-1zM14 53h1v1h-1zM15 53h1v1h-1zM16 53h1v1h-1zM17 53h1v1h-1zM18 53h1v1h-1zM19 53h1v1h-1zM20 53h1v1h-1zM21 53h1v1h-1zM22 53h1v1h-1zM23 53h1v1h-1zM24 53h1v1h-1zM25 53h1v1h-1zM26 53h1v1h-1zM27 53h1v1h-1zM28 53h1v1h-1zM29 53h1v1h-1zM30 53h1v1h-1zM31 53h1v1h-1zM32 53h1v1h-1zM33 53h1v1h-1zM34 53h1v1h-1zM35 53h1v1h-1zM36 53h1v1h-1zM37 53h1v1h-1zM38 53h1v1h-1zM39 53h1v1h-1zM40 53h1v1h-1z"/><path fill="#FDE74F" d="M41 53h1v1h-1z"/><path fill="#F5D619" d="M42 53h1v1h-1zM43 53h1v1h-1zM44 53h1v1h-1zM45 53h1v1h-1zM46 53h1v1h-1zM47 53h1v1h-1zM48 53h1v1h-1zM49 53h1v1h-1zM50 53h1v1h-1zM51 53h1v1h-1zM52 53h1v1h-1zM53 53h1v1h-1zM54 53h1v1h-1zM55 53h1v1h-1zM56 53h1v1h-1zM57 53h1v1h-1zM58 53h1v1h-1z"/><path fill="#CBAF15" d="M59 53h1v1h-1zM60 53h1v1h-1zM61 53h1v1h-1zM62 53h1v1h-1zM63 53h1v1h-1zM64 53h1v1h-1zM65 53h1v1h-1zM66 53h1v1h-1zM67 53h1v1h-1z"/><path fill="#584715" d="M68 53h1v1h-1z"/><path fill="#231815" d="M69 53h1v1h-1zM70 53h1v1h-1zM71 53h1v1h-1zM0 54h1v1H0zM1 54h1v1H1zM2 54h1v1H2z"/><path fill="#F5D619" d="M3 54h1v1H3zM4 54h1v1H4zM5 54h1v1H5zM6 54h1v1H6zM7 54h1v1H7zM8 54h1v1H8z"/><path fill="#FEE958" d="M9 54h1v1H9z"/><path fill="#FFEC61" d="M10 54h1v1h-1zM11 54h1v1h-1zM12 54h1v1h-1zM13 54h1v1h-1zM14 54h1v1h-1zM15 54h1v1h-1zM16 54h1v1h-1zM17 54h1v1h-1zM18 54h1v1h-1zM19 54h1v1h-1zM20 54h1v1h-1zM21 54h1v1h-1zM22 54h1v1h-1zM23 54h1v1h-1zM24 54h1v1h-1zM25 54h1v1h-1zM26 54h1v1h-1zM27 54h1v1h-1zM28 54h1v1h-1zM29 54h1v1h-1zM30 54h1v1h-1zM31 54h1v1h-1zM32 54h1v1h-1zM33 54h1v1h-1zM34 54h1v1h-1zM35 54h1v1h-1zM36 54h1v1h-1zM37 54h1v1h-1zM38 54h1v1h-1zM39 54h1v1h-1zM40 54h1v1h-1z"/><path fill="#F9DE34" d="M41 54h1v1h-1z"/><path fill="#F5D619" d="M42 54h1v1h-1zM43 54h1v1h-1zM44 54h1v1h-1zM45 54h1v1h-1zM46 54h1v1h-1zM47 54h1v1h-1zM48 54h1v1h-1zM49 54h1v1h-1zM50 54h1v1h-1zM51 54h1v1h-1zM52 54h1v1h-1zM53 54h1v1h-1zM54 54h1v1h-1zM55 54h1v1h-1zM56 54h1v1h-1zM57 54h1v1h-1z"/><path fill="#E8CA18" d="M58 54h1v1h-1z"/><path fill="#CBAF15" d="M59 54h1v1h-1zM60 54h1v1h-1zM61 54h1v1h-1zM62 54h1v1h-1zM63 54h1v1h-1zM64 54h1v1h-1zM65 54h1v1h-1zM66 54h1v1h-1zM67 54h1v1h-1z"/><path fill="#2E2115" d="M68 54h1v1h-1z"/><path fill="#231815" d="M69 54h1v1h-1zM70 54h1v1h-1zM0 55h1v1H0zM1 55h1v1H1zM2 55h1v1H2z"/><path fill="#DBBE19" d="M3 55h1v1H3z"/><path fill="#F5D619" d="M4 55h1v1H4zM5 55h1v1H5zM6 55h1v1H6zM7 55h1v1H7zM8 55h1v1H8z"/><path fill="#F9DE34" d="M9 55h1v1H9z"/><path fill="#FFEC61" d="M10 55h1v1h-1zM11 55h1v1h-1zM12 55h1v1h-1zM13 55h1v1h-1zM14 55h1v1h-1zM15 55h1v1h-1zM16 55h1v1h-1zM17 55h1v1h-1zM18 55h1v1h-1zM19 55h1v1h-1zM20 55h1v1h-1zM21 55h1v1h-1zM22 55h1v1h-1zM23 55h1v1h-1zM24 55h1v1h-1zM25 55h1v1h-1zM26 55h1v1h-1zM27 55h1v1h-1zM28 55h1v1h-1zM29 55h1v1h-1zM30 55h1v1h-1zM31 55h1v1h-1zM32 55h1v1h-1zM33 55h1v1h-1zM34 55h1v1h-1zM35 55h1v1h-1zM36 55h1v1h-1zM37 55h1v1h-1zM38 55h1v1h-1zM39 55h1v1h-1z"/><path fill="#FDE854" d="M40 55h1v1h-1z"/><path fill="#F5D619" d="M41 55h1v1h-1zM42 55h1v1h-1zM43 55h1v1h-1zM44 55h1v1h-1zM45 55h1v1h-1zM46 55h1v1h-1zM47 55h1v1h-1zM48 55h1v1h-1zM49 55h1v1h-1zM50 55h1v1h-1zM51 55h1v1h-1zM52 55h1v1h-1zM53 55h1v1h-1zM54 55h1v1h-1zM55 55h1v1h-1zM56 55h1v1h-1zM57 55h1v1h-1z"/><path fill="#DDC017" d="M58 55h1v1h-1z"/><path fill="#CBAF15" d="M59 55h1v1h-1zM60 55h1v1h-1zM61 55h1v1h-1zM62 55h1v1h-1zM63 55h1v1h-1zM64 55h1v1h-1zM65 55h1v1h-1zM66 55h1v1h-1z"/><path fill="#978015" d="M67 55h1v1h-1z"/><path fill="#231815" d="M68 55h1v1h-1zM69 55h1v1h-1zM70 55h1v1h-1zM0 56h1v1H0zM1 56h1v1H1zM2 56h1v1H2z"/><path fill="#B39B18" d="M3 56h1v1H3z"/><path fill="#F5D619" d="M4 56h1v1H4zM5 56h1v1H5zM6 56h1v1H6zM7 56h1v1H7zM8 56h1v1H8zM9 56h1v1H9z"/><path fill="#FDE74F" d="M10 56h1v1h-1z"/><path fill="#FFEC61" d="M11 56h1v1h-1zM12 56h1v1h-1zM13 56h1v1h-1zM14 56h1v1h-1zM15 56h1v1h-1zM16 56h1v1h-1zM17 56h1v1h-1zM18 56h1v1h-1zM19 56h1v1h-1zM20 56h1v1h-1zM21 56h1v1h-1zM22 56h1v1h-1zM23 56h1v1h-1zM24 56h1v1h-1zM25 56h1v1h-1zM26 56h1v1h-1zM27 56h1v1h-1zM28 56h1v1h-1zM29 56h1v1h-1zM30 56h1v1h-1zM31 56h1v1h-1zM32 56h1v1h-1zM33 56h1v1h-1zM34 56h1v1h-1zM35 56h1v1h-1zM36 56h1v1h-1zM37 56h1v1h-1zM38 56h1v1h-1zM39 56h1v1h-1z"/><path fill="#F8DC2B" d="M40 56h1v1h-1z"/><path fill="#F5D619" d="M41 56h1v1h-1zM42 56h1v1h-1zM43 56h1v1h-1zM44 56h1v1h-1zM45 56h1v1h-1zM46 56h1v1h-1zM47 56h1v1h-1zM48 56h1v1h-1zM49 56h1v1h-1zM50 56h1v1h-1zM51 56h1v1h-1zM52 56h1v1h-1zM53 56h1v1h-1zM54 56h1v1h-1zM55 56h1v1h-1zM56 56h1v1h-1zM57 56h1v1h-1z"/><path fill="#D0B416" d="M58 56h1v1h-1z"/><path fill="#CBAF15" d="M59 56h1v1h-1zM60 56h1v1h-1zM61 56h1v1h-1zM62 56h1v1h-1zM63 56h1v1h-1zM64 56h1v1h-1zM65 56h1v1h-1zM66 56h1v1h-1z"/><path fill="#625115" d="M67 56h1v1h-1z"/><path fill="#231815" d="M68 56h1v1h-1zM69 56h1v1h-1zM70 56h1v1h-1zM0 57h1v1H0zM1 57h1v1H1zM2 57h1v1H2z"/><path fill="#7F6B17" d="M3 57h1v1H3z"/><path fill="#F5D619" d="M4 57h1v1H4zM5 57h1v1H5zM6 57h1v1H6zM7 57h1v1H7zM8 57h1v1H8zM9 57h1v1H9z"/><path fill="#F6D922" d="M10 57h1v1h-1z"/><path fill="#FEEB5D" d="M11 57h1v1h-1z"/><path fill="#FFEC61" d="M12 57h1v1h-1zM13 57h1v1h-1zM14 57h1v1h-1zM15 57h1v1h-1zM16 57h1v1h-1zM17 57h1v1h-1zM18 57h1v1h-1zM19 57h1v1h-1zM20 57h1v1h-1zM21 57h1v1h-1zM22 57h1v1h-1zM23 57h1v1h-1zM24 57h1v1h-1zM25 57h1v1h-1zM26 57h1v1h-1zM27 57h1v1h-1zM28 57h1v1h-1zM29 57h1v1h-1zM30 57h1v1h-1zM31 57h1v1h-1zM32 57h1v1h-1zM33 57h1v1h-1zM34 57h1v1h-1zM35 57h1v1h-1zM36 57h1v1h-1zM37 57h1v1h-1zM38 57h1v1h-1z"/><path fill="#FAE13D" d="M39 57h1v1h-1z"/><path fill="#F5D619" d="M40 57h1v1h-1zM41 57h1v1h-1zM42 57h1v1h-1zM43 57h1v1h-1zM44 57h1v1h-1zM45 57h1v1h-1zM46 57h1v1h-1zM47 57h1v1h-1zM48 57h1v1h-1zM49 57h1v1h-1zM50 57h1v1h-1zM51 57h1v1h-1zM52 57h1v1h-1zM53 57h1v1h-1zM54 57h1v1h-1zM55 57h1v1h-1zM56 57h1v1h-1z"/><path fill="#E8CA18" d="M57 57h1v1h-1z"/><path fill="#CBAF15" d="M58 57h1v1h-1zM59 57h1v1h-1zM60 57h1v1h-1zM61 57h1v1h-1zM62 57h1v1h-1zM63 57h1v1h-1zM64 57h1v1h-1zM65 57h1v1h-1z"/><path fill="#B69C15" d="M66 57h1v1h-1z"/><path fill="#231815" d="M67 57h1v1h-1zM68 57h1v1h-1zM69 57h1v1h-1zM0 58h1v1H0zM1 58h1v1H1zM2 58h1v1H2z"/><path fill="#4A3C16" d="M3 58h1v1H3z"/><path fill="#F5D619" d="M4 58h1v1H4zM5 58h1v1H5zM6 58h1v1H6zM7 58h1v1H7zM8 58h1v1H8zM9 58h1v1H9zM10 58h1v1h-1z"/><path fill="#F7DA27" d="M11 58h1v1h-1z"/><path fill="#FEEB5D" d="M12 58h1v1h-1z"/><path fill="#FFEC61" d="M13 58h1v1h-1zM14 58h1v1h-1zM15 58h1v1h-1zM16 58h1v1h-1zM17 58h1v1h-1zM18 58h1v1h-1zM19 58h1v1h-1zM20 58h1v1h-1zM21 58h1v1h-1zM22 58h1v1h-1zM23 58h1v1h-1zM24 58h1v1h-1zM25 58h1v1h-1zM26 58h1v1h-1zM27 58h1v1h-1zM28 58h1v1h-1zM29 58h1v1h-1zM30 58h1v1h-1zM31 58h1v1h-1zM32 58h1v1h-1zM33 58h1v1h-1zM34 58h1v1h-1zM35 58h1v1h-1zM36 58h1v1h-1zM37 58h1v1h-1z"/><path fill="#FBE446" d="M38 58h1v1h-1z"/><path fill="#F5D619" d="M39 58h1v1h-1zM40 58h1v1h-1zM41 58h1v1h-1zM42 58h1v1h-1zM43 58h1v1h-1zM44 58h1v1h-1zM45 58h1v1h-1zM46 58h1v1h-1zM47 58h1v1h-1zM48 58h1v1h-1zM49 58h1v1h-1zM50 58h1v1h-1zM51 58h1v1h-1zM52 58h1v1h-1zM53 58h1v1h-1zM54 58h1v1h-1zM55 58h1v1h-1zM56 58h1v1h-1z"/><path fill="#D8BB16" d="M57 58h1v1h-1z"/><path fill="#CBAF15" d="M58 58h1v1h-1zM59 58h1v1h-1zM60 58h1v1h-1zM61 58h1v1h-1zM62 58h1v1h-1zM63 58h1v1h-1zM64 58h1v1h-1zM65 58h1v1h-1z"/><path fill="#776415" d="M66 58h1v1h-1z"/><path fill="#231815" d="M67 58h1v1h-1zM68 58h1v1h-1zM69 58h1v1h-1zM1 59h1v1H1zM2 59h1v1H2zM3 59h1v1H3z"/><path fill="#DBBE19" d="M4 59h1v1H4z"/><path fill="#F5D619" d="M5 59h1v1H5zM6 59h1v1H6zM7 59h1v1H7zM8 59h1v1H8zM9 59h1v1H9zM10 59h1v1h-1zM11 59h1v1h-1z"/><path fill="#F7DA27" d="M12 59h1v1h-1z"/><path fill="#FEEB5D" d="M13 59h1v1h-1z"/><path fill="#FFEC61" d="M14 59h1v1h-1zM15 59h1v1h-1zM16 59h1v1h-1zM17 59h1v1h-1zM18 59h1v1h-1zM19 59h1v1h-1zM20 59h1v1h-1zM21 59h1v1h-1zM22 59h1v1h-1zM23 59h1v1h-1zM24 59h1v1h-1zM25 59h1v1h-1zM26 59h1v1h-1zM27 59h1v1h-1zM28 59h1v1h-1zM29 59h1v1h-1zM30 59h1v1h-1zM31 59h1v1h-1zM32 59h1v1h-1zM33 59h1v1h-1zM34 59h1v1h-1zM35 59h1v1h-1zM36 59h1v1h-1z"/><path fill="#FBE446" d="M37 59h1v1h-1z"/><path fill="#F5D619" d="M38 59h1v1h-1zM39 59h1v1h-1zM40 59h1v1h-1zM41 59h1v1h-1zM42 59h1v1h-1zM43 59h1v1h-1zM44 59h1v1h-1zM45 59h1v1h-1zM46 59h1v1h-1zM47 59h1v1h-1zM48 59h1v1h-1zM49 59h1v1h-1zM50 59h1v1h-1zM51 59h1v1h-1zM52 59h1v1h-1zM53 59h1v1h-1zM54 59h1v1h-1zM55 59h1v1h-1z"/><path fill="#F0D119" d="M56 59h1v1h-1z"/><path fill="#CBAF15" d="M57 59h1v1h-1zM58 59h1v1h-1zM59 59h1v1h-1zM60 59h1v1h-1zM61 59h1v1h-1zM62 59h1v1h-1zM63 59h1v1h-1zM64 59h1v1h-1z"/><path fill="#C1A615" d="M65 59h1v1h-1z"/><path fill="#2E2115" d="M66 59h1v1h-1z"/><path fill="#231815" d="M67 59h1v1h-1zM68 59h1v1h-1zM69 59h1v1h-1zM1 60h1v1H1zM2 60h1v1H2zM3 60h1v1H3z"/><path fill="#8C7717" d="M4 60h1v1H4z"/><path fill="#F5D619" d="M5 60h1v1H5zM6 60h1v1H6zM7 60h1v1H7zM8 60h1v1H8zM9 60h1v1H9zM10 60h1v1h-1zM11 60h1v1h-1zM12 60h1v1h-1z"/><path fill="#F7DA27" d="M13 60h1v1h-1z"/><path fill="#FDE854" d="M14 60h1v1h-1z"/><path fill="#FFEC61" d="M15 60h1v1h-1zM16 60h1v1h-1zM17 60h1v1h-1zM18 60h1v1h-1zM19 60h1v1h-1zM20 60h1v1h-1zM21 60h1v1h-1zM22 60h1v1h-1zM23 60h1v1h-1zM24 60h1v1h-1zM25 60h1v1h-1zM26 60h1v1h-1zM27 60h1v1h-1zM28 60h1v1h-1zM29 60h1v1h-1zM30 60h1v1h-1zM31 60h1v1h-1zM32 60h1v1h-1zM33 60h1v1h-1zM34 60h1v1h-1zM35 60h1v1h-1z"/><path fill="#FAE13D" d="M36 60h1v1h-1z"/><path fill="#F5D619" d="M37 60h1v1h-1zM38 60h1v1h-1zM39 60h1v1h-1zM40 60h1v1h-1zM41 60h1v1h-1zM42 60h1v1h-1zM43 60h1v1h-1zM44 60h1v1h-1zM45 60h1v1h-1zM46 60h1v1h-1zM47 60h1v1h-1zM48 60h1v1h-1zM49 60h1v1h-1zM50 60h1v1h-1zM51 60h1v1h-1zM52 60h1v1h-1zM53 60h1v1h-1zM54 60h1v1h-1zM55 60h1v1h-1z"/><path fill="#DBBE17" d="M56 60h1v1h-1z"/><path fill="#CBAF15" d="M57 60h1v1h-1zM58 60h1v1h-1zM59 60h1v1h-1zM60 60h1v1h-1zM61 60h1v1h-1zM62 60h1v1h-1zM63 60h1v1h-1zM64 60h1v1h-1z"/><path fill="#6D5A15" d="M65 60h1v1h-1z"/><path fill="#231815" d="M66 60h1v1h-1zM67 60h1v1h-1zM68 60h1v1h-1zM1 61h1v1H1zM2 61h1v1H2zM3 61h1v1H3z"/><path fill="#3D3016" d="M4 61h1v1H4z"/><path fill="#F5D619" d="M5 61h1v1H5zM6 61h1v1H6zM7 61h1v1H7zM8 61h1v1H8zM9 61h1v1H9zM10 61h1v1h-1zM11 61h1v1h-1zM12 61h1v1h-1zM13 61h1v1h-1z"/><path fill="#F6D71E" d="M14 61h1v1h-1z"/><path fill="#FAE13D" d="M15 61h1v1h-1z"/><path fill="#FFEC61" d="M16 61h1v1h-1zM17 61h1v1h-1zM18 61h1v1h-1zM19 61h1v1h-1zM20 61h1v1h-1zM21 61h1v1h-1zM22 61h1v1h-1zM23 61h1v1h-1zM24 61h1v1h-1zM25 61h1v1h-1zM26 61h1v1h-1zM27 61h1v1h-1zM28 61h1v1h-1zM29 61h1v1h-1zM30 61h1v1h-1zM31 61h1v1h-1zM32 61h1v1h-1zM33 61h1v1h-1z"/><path fill="#FDE74F" d="M34 61h1v1h-1z"/><path fill="#F7DA27" d="M35 61h1v1h-1z"/><path fill="#F5D619" d="M36 61h1v1h-1zM37 61h1v1h-1zM38 61h1v1h-1zM39 61h1v1h-1zM40 61h1v1h-1zM41 61h1v1h-1zM42 61h1v1h-1zM43 61h1v1h-1zM44 61h1v1h-1zM45 61h1v1h-1zM46 61h1v1h-1zM47 61h1v1h-1zM48 61h1v1h-1zM49 61h1v1h-1zM50 61h1v1h-1zM51 61h1v1h-1zM52 61h1v1h-1zM53 61h1v1h-1zM54 61h1v1h-1z"/><path fill="#EDCF18" d="M55 61h1v1h-1z"/><path fill="#CBAF15" d="M56 61h1v1h-1zM57 61h1v1h-1zM58 61h1v1h-1zM59 61h1v1h-1zM60 61h1v1h-1zM61 61h1v1h-1zM62 61h1v1h-1zM63 61h1v1h-1z"/><path fill="#AC9315" d="M64 61h1v1h-1z"/><path fill="#231815" d="M65 61h1v1h-1zM66 61h1v1h-1zM67 61h1v1h-1zM68 61h1v1h-1zM2 62h1v1H2zM3 62h1v1H3zM4 62h1v1H4z"/><path fill="#A68F18" d="M5 62h1v1H5z"/><path fill="#F5D619" d="M6 62h1v1H6zM7 62h1v1H7zM8 62h1v1H8zM9 62h1v1H9zM10 62h1v1h-1zM11 62h1v1h-1zM12 62h1v1h-1zM13 62h1v1h-1zM14 62h1v1h-1zM15 62h1v1h-1z"/><path fill="#F6D922" d="M16 62h1v1h-1z"/><path fill="#FBE446" d="M17 62h1v1h-1z"/><path fill="#FEEB5D" d="M18 62h1v1h-1z"/><path fill="#FFEC61" d="M19 62h1v1h-1zM20 62h1v1h-1zM21 62h1v1h-1zM22 62h1v1h-1zM23 62h1v1h-1zM24 62h1v1h-1zM25 62h1v1h-1zM26 62h1v1h-1zM27 62h1v1h-1zM28 62h1v1h-1zM29 62h1v1h-1zM30 62h1v1h-1zM31 62h1v1h-1z"/><path fill="#FDE74F" d="M32 62h1v1h-1z"/><path fill="#F9DE34" d="M33 62h1v1h-1z"/><path fill="#F5D619" d="M34 62h1v1h-1zM35 62h1v1h-1zM36 62h1v1h-1zM37 62h1v1h-1zM38 62h1v1h-1zM39 62h1v1h-1zM40 62h1v1h-1zM41 62h1v1h-1zM42 62h1v1h-1zM43 62h1v1h-1zM44 62h1v1h-1zM45 62h1v1h-1zM46 62h1v1h-1zM47 62h1v1h-1zM48 62h1v1h-1zM49 62h1v1h-1zM50 62h1v1h-1zM51 62h1v1h-1zM52 62h1v1h-1zM53 62h1v1h-1zM54 62h1v1h-1z"/><path fill="#D6B916" d="M55 62h1v1h-1z"/><path fill="#CBAF15" d="M56 62h1v1h-1zM57 62h1v1h-1zM58 62h1v1h-1zM59 62h1v1h-1zM60 62h1v1h-1zM61 62h1v1h-1zM62 62h1v1h-1zM63 62h1v1h-1z"/><path fill="#4D3E15" d="M64 62h1v1h-1z"/><path fill="#231815" d="M65 62h1v1h-1zM66 62h1v1h-1zM67 62h1v1h-1zM2 63h1v1H2zM3 63h1v1H3zM4 63h1v1H4z"/><path fill="#3D3016" d="M5 63h1v1H5z"/><path fill="#E8CA19" d="M6 63h1v1H6z"/><path fill="#F5D619" d="M7 63h1v1H7zM8 63h1v1H8zM9 63h1v1H9zM10 63h1v1h-1zM11 63h1v1h-1zM12 63h1v1h-1zM13 63h1v1h-1zM14 63h1v1h-1zM15 63h1v1h-1zM16 63h1v1h-1zM17 63h1v1h-1z"/><path fill="#F6D71E" d="M18 63h1v1h-1z"/><path fill="#F8DD30" d="M19 63h1v1h-1z"/><path fill="#FBE446" d="M20 63h1v1h-1z"/><path fill="#FDE854" d="M21 63h1v1h-1z"/><path fill="#FFEC61" d="M22 63h1v1h-1zM23 63h1v1h-1zM24 63h1v1h-1zM25 63h1v1h-1zM26 63h1v1h-1zM27 63h1v1h-1z"/><path fill="#FEEB5D" d="M28 63h1v1h-1z"/><path fill="#FDE74F" d="M29 63h1v1h-1z"/><path fill="#F9E039" d="M30 63h1v1h-1z"/><path fill="#F6D922" d="M31 63h1v1h-1z"/><path fill="#F5D619" d="M32 63h1v1h-1zM33 63h1v1h-1zM34 63h1v1h-1zM35 63h1v1h-1zM36 63h1v1h-1zM37 63h1v1h-1zM38 63h1v1h-1zM39 63h1v1h-1zM40 63h1v1h-1zM41 63h1v1h-1zM42 63h1v1h-1zM43 63h1v1h-1zM44 63h1v1h-1zM45 63h1v1h-1zM46 63h1v1h-1zM47 63h1v1h-1zM48 63h1v1h-1zM49 63h1v1h-1zM50 63h1v1h-1zM51 63h1v1h-1zM52 63h1v1h-1zM53 63h1v1h-1z"/><path fill="#E3C517" d="M54 63h1v1h-1z"/><path fill="#CBAF15" d="M55 63h1v1h-1zM56 63h1v1h-1zM57 63h1v1h-1zM58 63h1v1h-1zM59 63h1v1h-1zM60 63h1v1h-1zM61 63h1v1h-1zM62 63h1v1h-1z"/><path fill="#826D15" d="M63 63h1v1h-1z"/><path fill="#231815" d="M64 63h1v1h-1zM65 63h1v1h-1zM66 63h1v1h-1zM67 63h1v1h-1zM3 64h1v1H3zM4 64h1v1H4zM5 64h1v1H5z"/><path fill="#7F6B17" d="M6 64h1v1H6z"/><path fill="#F5D619" d="M7 64h1v1H7zM8 64h1v1H8zM9 64h1v1H9zM10 64h1v1h-1zM11 64h1v1h-1zM12 64h1v1h-1zM13 64h1v1h-1zM14 64h1v1h-1zM15 64h1v1h-1zM16 64h1v1h-1zM17 64h1v1h-1zM18 64h1v1h-1zM19 64h1v1h-1zM20 64h1v1h-1zM21 64h1v1h-1zM22 64h1v1h-1z"/><path fill="#F6D71E" d="M23 64h1v1h-1z"/><path fill="#F8DC2B" d="M24 64h1v1h-1zM25 64h1v1h-1z"/><path fill="#F7DA27" d="M26 64h1v1h-1z"/><path fill="#F5D619" d="M27 64h1v1h-1zM28 64h1v1h-1zM29 64h1v1h-1zM30 64h1v1h-1zM31 64h1v1h-1zM32 64h1v1h-1zM33 64h1v1h-1zM34 64h1v1h-1zM35 64h1v1h-1zM36 64h1v1h-1zM37 64h1v1h-1zM38 64h1v1h-1zM39 64h1v1h-1zM40 64h1v1h-1zM41 64h1v1h-1zM42 64h1v1h-1zM43 64h1v1h-1zM44 64h1v1h-1zM45 64h1v1h-1zM46 64h1v1h-1zM47 64h1v1h-1zM48 64h1v1h-1zM49 64h1v1h-1zM50 64h1v1h-1zM51 64h1v1h-1zM52 64h1v1h-1z"/><path fill="#F0D119" d="M53 64h1v1h-1z"/><path fill="#CEB115" d="M54 64h1v1h-1z"/><path fill="#CBAF15" d="M55 64h1v1h-1zM56 64h1v1h-1zM57 64h1v1h-1zM58 64h1v1h-1zM59 64h1v1h-1zM60 64h1v1h-1zM61 64h1v1h-1z"/><path fill="#AC9315" d="M62 64h1v1h-1z"/><path fill="#231815" d="M63 64h1v1h-1zM64 64h1v1h-1zM65 64h1v1h-1zM66 64h1v1h-1zM3 65h1v1H3zM4 65h1v1H4zM5 65h1v1H5zM6 65h1v1H6z"/><path fill="#B39B18" d="M7 65h1v1H7z"/><path fill="#F5D619" d="M8 65h1v1H8zM9 65h1v1H9zM10 65h1v1h-1zM11 65h1v1h-1zM12 65h1v1h-1zM13 65h1v1h-1zM14 65h1v1h-1zM15 65h1v1h-1zM16 65h1v1h-1zM17 65h1v1h-1zM18 65h1v1h-1zM19 65h1v1h-1zM20 65h1v1h-1zM21 65h1v1h-1zM22 65h1v1h-1zM23 65h1v1h-1zM24 65h1v1h-1zM25 65h1v1h-1zM26 65h1v1h-1zM27 65h1v1h-1zM28 65h1v1h-1zM29 65h1v1h-1zM30 65h1v1h-1zM31 65h1v1h-1zM32 65h1v1h-1zM33 65h1v1h-1zM34 65h1v1h-1zM35 65h1v1h-1zM36 65h1v1h-1zM37 65h1v1h-1zM38 65h1v1h-1zM39 65h1v1h-1zM40 65h1v1h-1zM41 65h1v1h-1zM42 65h1v1h-1zM43 65h1v1h-1zM44 65h1v1h-1zM45 65h1v1h-1zM46 65h1v1h-1zM47 65h1v1h-1zM48 65h1v1h-1zM49 65h1v1h-1zM50 65h1v1h-1zM51 65h1v1h-1z"/><path fill="#F2D419" d="M52 65h1v1h-1z"/><path fill="#D3B616" d="M53 65h1v1h-1z"/><path fill="#CBAF15" d="M54 65h1v1h-1zM55 65h1v1h-1zM56 65h1v1h-1zM57 65h1v1h-1zM58 65h1v1h-1zM59 65h1v1h-1zM60 65h1v1h-1z"/><path fill="#C1A615" d="M61 65h1v1h-1z"/><path fill="#382B15" d="M62 65h1v1h-1z"/><path fill="#231815" d="M63 65h1v1h-1zM64 65h1v1h-1zM65 65h1v1h-1zM4 66h1v1H4zM5 66h1v1H5zM6 66h1v1H6z"/><path fill="#302415" d="M7 66h1v1H7z"/><path fill="#CEB218" d="M8 66h1v1H8z"/><path fill="#F5D619" d="M9 66h1v1H9zM10 66h1v1h-1zM11 66h1v1h-1zM12 66h1v1h-1zM13 66h1v1h-1zM14 66h1v1h-1zM15 66h1v1h-1zM16 66h1v1h-1zM17 66h1v1h-1zM18 66h1v1h-1zM19 66h1v1h-1zM20 66h1v1h-1zM21 66h1v1h-1zM22 66h1v1h-1zM23 66h1v1h-1zM24 66h1v1h-1zM25 66h1v1h-1zM26 66h1v1h-1zM27 66h1v1h-1zM28 66h1v1h-1zM29 66h1v1h-1zM30 66h1v1h-1zM31 66h1v1h-1zM32 66h1v1h-1zM33 66h1v1h-1zM34 66h1v1h-1zM35 66h1v1h-1zM36 66h1v1h-1zM37 66h1v1h-1zM38 66h1v1h-1zM39 66h1v1h-1zM40 66h1v1h-1zM41 66h1v1h-1zM42 66h1v1h-1zM43 66h1v1h-1zM44 66h1v1h-1zM45 66h1v1h-1zM46 66h1v1h-1zM47 66h1v1h-1zM48 66h1v1h-1zM49 66h1v1h-1zM50 66h1v1h-1zM51 66h1v1h-1z"/><path fill="#DBBE17" d="M52 66h1v1h-1z"/><path fill="#CBAF15" d="M53 66h1v1h-1zM54 66h1v1h-1zM55 66h1v1h-1zM56 66h1v1h-1zM57 66h1v1h-1zM58 66h1v1h-1zM59 66h1v1h-1z"/><path fill="#C1A615" d="M60 66h1v1h-1z"/><path fill="#433415" d="M61 66h1v1h-1z"/><path fill="#231815" d="M62 66h1v1h-1zM63 66h1v1h-1zM64 66h1v1h-1zM65 66h1v1h-1zM5 67h1v1H5zM6 67h1v1H6zM7 67h1v1H7z"/><path fill="#302415" d="M8 67h1v1H8z"/><path fill="#E8CA19" d="M9 67h1v1H9z"/><path fill="#F5D619" d="M10 67h1v1h-1zM11 67h1v1h-1zM12 67h1v1h-1zM13 67h1v1h-1zM14 67h1v1h-1zM15 67h1v1h-1zM16 67h1v1h-1zM17 67h1v1h-1zM18 67h1v1h-1zM19 67h1v1h-1zM20 67h1v1h-1zM21 67h1v1h-1zM22 67h1v1h-1zM23 67h1v1h-1zM24 67h1v1h-1zM25 67h1v1h-1zM26 67h1v1h-1zM27 67h1v1h-1zM28 67h1v1h-1zM29 67h1v1h-1zM30 67h1v1h-1zM31 67h1v1h-1zM32 67h1v1h-1zM33 67h1v1h-1zM34 67h1v1h-1zM35 67h1v1h-1zM36 67h1v1h-1zM37 67h1v1h-1zM38 67h1v1h-1zM39 67h1v1h-1zM40 67h1v1h-1zM41 67h1v1h-1zM42 67h1v1h-1zM43 67h1v1h-1zM44 67h1v1h-1zM45 67h1v1h-1zM46 67h1v1h-1zM47 67h1v1h-1zM48 67h1v1h-1zM49 67h1v1h-1zM50 67h1v1h-1z"/><path fill="#DBBE17" d="M51 67h1v1h-1z"/><path fill="#CBAF15" d="M52 67h1v1h-1zM53 67h1v1h-1zM54 67h1v1h-1zM55 67h1v1h-1zM56 67h1v1h-1zM57 67h1v1h-1zM58 67h1v1h-1zM59 67h1v1h-1z"/><path fill="#625115" d="M60 67h1v1h-1z"/><path fill="#231815" d="M61 67h1v1h-1zM62 67h1v1h-1zM63 67h1v1h-1zM64 67h1v1h-1zM5 68h1v1H5zM6 68h1v1H6zM7 68h1v1H7zM8 68h1v1H8z"/><path fill="#3D3016" d="M9 68h1v1H9z"/><path fill="#CEB218" d="M10 68h1v1h-1z"/><path fill="#F5D619" d="M11 68h1v1h-1zM12 68h1v1h-1zM13 68h1v1h-1zM14 68h1v1h-1zM15 68h1v1h-1zM16 68h1v1h-1zM17 68h1v1h-1zM18 68h1v1h-1zM19 68h1v1h-1zM20 68h1v1h-1zM21 68h1v1h-1zM22 68h1v1h-1zM23 68h1v1h-1zM24 68h1v1h-1zM25 68h1v1h-1zM26 68h1v1h-1zM27 68h1v1h-1zM28 68h1v1h-1zM29 68h1v1h-1zM30 68h1v1h-1zM31 68h1v1h-1zM32 68h1v1h-1zM33 68h1v1h-1zM34 68h1v1h-1zM35 68h1v1h-1zM36 68h1v1h-1zM37 68h1v1h-1zM38 68h1v1h-1zM39 68h1v1h-1zM40 68h1v1h-1zM41 68h1v1h-1zM42 68h1v1h-1zM43 68h1v1h-1zM44 68h1v1h-1zM45 68h1v1h-1zM46 68h1v1h-1zM47 68h1v1h-1zM48 68h1v1h-1zM49 68h1v1h-1z"/><path fill="#DBBE17" d="M50 68h1v1h-1z"/><path fill="#CBAF15" d="M51 68h1v1h-1zM52 68h1v1h-1zM53 68h1v1h-1zM54 68h1v1h-1zM55 68h1v1h-1zM56 68h1v1h-1zM57 68h1v1h-1zM58 68h1v1h-1z"/><path fill="#625115" d="M59 68h1v1h-1z"/><path fill="#231815" d="M60 68h1v1h-1zM61 68h1v1h-1zM62 68h1v1h-1zM63 68h1v1h-1zM6 69h1v1H6zM7 69h1v1H7zM8 69h1v1H8zM9 69h1v1H9z"/><path fill="#302415" d="M10 69h1v1h-1z"/><path fill="#CEB218" d="M11 69h1v1h-1z"/><path fill="#F5D619" d="M12 69h1v1h-1zM13 69h1v1h-1zM14 69h1v1h-1zM15 69h1v1h-1zM16 69h1v1h-1zM17 69h1v1h-1zM18 69h1v1h-1zM19 69h1v1h-1zM20 69h1v1h-1zM21 69h1v1h-1zM22 69h1v1h-1zM23 69h1v1h-1zM24 69h1v1h-1zM25 69h1v1h-1zM26 69h1v1h-1zM27 69h1v1h-1zM28 69h1v1h-1zM29 69h1v1h-1zM30 69h1v1h-1zM31 69h1v1h-1zM32 69h1v1h-1zM33 69h1v1h-1zM34 69h1v1h-1zM35 69h1v1h-1zM36 69h1v1h-1zM37 69h1v1h-1zM38 69h1v1h-1zM39 69h1v1h-1zM40 69h1v1h-1zM41 69h1v1h-1zM42 69h1v1h-1zM43 69h1v1h-1zM44 69h1v1h-1zM45 69h1v1h-1zM46 69h1v1h-1zM47 69h1v1h-1zM48 69h1v1h-1z"/><path fill="#DBBE17" d="M49 69h1v1h-1z"/><path fill="#CBAF15" d="M50 69h1v1h-1zM51 69h1v1h-1zM52 69h1v1h-1zM53 69h1v1h-1zM54 69h1v1h-1zM55 69h1v1h-1zM56 69h1v1h-1z"/><path fill="#C1A615" d="M57 69h1v1h-1z"/><path fill="#625115" d="M58 69h1v1h-1z"/><path fill="#231815" d="M59 69h1v1h-1zM60 69h1v1h-1zM61 69h1v1h-1zM62 69h1v1h-1zM7 70h1v1H7zM8 70h1v1H8zM9 70h1v1H9zM10 70h1v1h-1zM11 70h1v1h-1z"/><path fill="#998317" d="M12 70h1v1h-1z"/><path fill="#F5D619" d="M13 70h1v1h-1zM14 70h1v1h-1zM15 70h1v1h-1zM16 70h1v1h-1zM17 70h1v1h-1zM18 70h1v1h-1zM19 70h1v1h-1zM20 70h1v1h-1zM21 70h1v1h-1zM22 70h1v1h-1zM23 70h1v1h-1zM24 70h1v1h-1zM25 70h1v1h-1zM26 70h1v1h-1zM27 70h1v1h-1zM28 70h1v1h-1zM29 70h1v1h-1zM30 70h1v1h-1zM31 70h1v1h-1zM32 70h1v1h-1zM33 70h1v1h-1zM34 70h1v1h-1zM35 70h1v1h-1zM36 70h1v1h-1zM37 70h1v1h-1zM38 70h1v1h-1zM39 70h1v1h-1zM40 70h1v1h-1zM41 70h1v1h-1zM42 70h1v1h-1zM43 70h1v1h-1zM44 70h1v1h-1zM45 70h1v1h-1zM46 70h1v1h-1z"/><path fill="#F2D419" d="M47 70h1v1h-1z"/><path fill="#D8BB16" d="M48 70h1v1h-1z"/><path fill="#CBAF15" d="M49 70h1v1h-1zM50 70h1v1h-1zM51 70h1v1h-1zM52 70h1v1h-1zM53 70h1v1h-1zM54 70h1v1h-1zM55 70h1v1h-1z"/><path fill="#C1A615" d="M56 70h1v1h-1z"/><path fill="#433415" d="M57 70h1v1h-1z"/><path fill="#231815" d="M58 70h1v1h-1zM59 70h1v1h-1zM60 70h1v1h-1zM61 70h1v1h-1zM8 71h1v1H8zM9 71h1v1H9zM10 71h1v1h-1zM11 71h1v1h-1zM12 71h1v1h-1z"/><path fill="#655316" d="M13 71h1v1h-1z"/><path fill="#E8CA19" d="M14 71h1v1h-1z"/><path fill="#F5D619" d="M15 71h1v1h-1zM16 71h1v1h-1zM17 71h1v1h-1zM18 71h1v1h-1zM19 71h1v1h-1zM20 71h1v1h-1zM21 71h1v1h-1zM22 71h1v1h-1zM23 71h1v1h-1zM24 71h1v1h-1zM25 71h1v1h-1zM26 71h1v1h-1zM27 71h1v1h-1zM28 71h1v1h-1zM29 71h1v1h-1zM30 71h1v1h-1zM31 71h1v1h-1zM32 71h1v1h-1zM33 71h1v1h-1zM34 71h1v1h-1zM35 71h1v1h-1zM36 71h1v1h-1zM37 71h1v1h-1zM38 71h1v1h-1zM39 71h1v1h-1zM40 71h1v1h-1zM41 71h1v1h-1zM42 71h1v1h-1zM43 71h1v1h-1zM44 71h1v1h-1zM45 71h1v1h-1z"/><path fill="#EDCF18" d="M46 71h1v1h-1z"/><path fill="#D3B616" d="M47 71h1v1h-1z"/><path fill="#CBAF15" d="M48 71h1v1h-1zM49 71h1v1h-1zM50 71h1v1h-1zM51 71h1v1h-1zM52 71h1v1h-1zM53 71h1v1h-1zM54 71h1v1h-1z"/><path fill="#AC9315" d="M55 71h1v1h-1z"/><path fill="#382B15" d="M56 71h1v1h-1z"/><path fill="#231815" d="M57 71h1v1h-1zM58 71h1v1h-1zM59 71h1v1h-1zM60 71h1v1h-1zM9 72h1v1H9zM10 72h1v1h-1zM11 72h1v1h-1zM12 72h1v1h-1zM13 72h1v1h-1z"/><path fill="#302415" d="M14 72h1v1h-1z"/><path fill="#A68F18" d="M15 72h1v1h-1z"/><path fill="#F5D619" d="M16 72h1v1h-1zM17 72h1v1h-1zM18 72h1v1h-1zM19 72h1v1h-1zM20 72h1v1h-1zM21 72h1v1h-1zM22 72h1v1h-1zM23 72h1v1h-1zM24 72h1v1h-1zM25 72h1v1h-1zM26 72h1v1h-1zM27 72h1v1h-1zM28 72h1v1h-1zM29 72h1v1h-1zM30 72h1v1h-1zM31 72h1v1h-1zM32 72h1v1h-1zM33 72h1v1h-1zM34 72h1v1h-1zM35 72h1v1h-1zM36 72h1v1h-1zM37 72h1v1h-1zM38 72h1v1h-1zM39 72h1v1h-1zM40 72h1v1h-1zM41 72h1v1h-1zM42 72h1v1h-1zM43 72h1v1h-1zM44 72h1v1h-1z"/><path fill="#E3C517" d="M45 72h1v1h-1z"/><path fill="#CEB115" d="M46 72h1v1h-1z"/><path fill="#CBAF15" d="M47 72h1v1h-1zM48 72h1v1h-1zM49 72h1v1h-1zM50 72h1v1h-1zM51 72h1v1h-1zM52 72h1v1h-1zM53 72h1v1h-1z"/><path fill="#C1A615" d="M54 72h1v1h-1z"/><path fill="#2E2115" d="M55 72h1v1h-1z"/><path fill="#231815" d="M56 72h1v1h-1zM57 72h1v1h-1zM58 72h1v1h-1zM59 72h1v1h-1zM11 73h1v1h-1zM12 73h1v1h-1zM13 73h1v1h-1zM14 73h1v1h-1zM15 73h1v1h-1z"/><path fill="#4A3C16" d="M16 73h1v1h-1z"/><path fill="#C1A718" d="M17 73h1v1h-1z"/><path fill="#F5D619" d="M18 73h1v1h-1zM19 73h1v1h-1zM20 73h1v1h-1zM21 73h1v1h-1zM22 73h1v1h-1zM23 73h1v1h-1zM24 73h1v1h-1zM25 73h1v1h-1zM26 73h1v1h-1zM27 73h1v1h-1zM28 73h1v1h-1zM29 73h1v1h-1zM30 73h1v1h-1zM31 73h1v1h-1zM32 73h1v1h-1zM33 73h1v1h-1zM34 73h1v1h-1zM35 73h1v1h-1zM36 73h1v1h-1zM37 73h1v1h-1zM38 73h1v1h-1zM39 73h1v1h-1zM40 73h1v1h-1zM41 73h1v1h-1zM42 73h1v1h-1z"/><path fill="#EDCF18" d="M43 73h1v1h-1z"/><path fill="#D6B916" d="M44 73h1v1h-1z"/><path fill="#CBAF15" d="M45 73h1v1h-1zM46 73h1v1h-1zM47 73h1v1h-1zM48 73h1v1h-1zM49 73h1v1h-1zM50 73h1v1h-1zM51 73h1v1h-1zM52 73h1v1h-1zM53 73h1v1h-1z"/><path fill="#4D3E15" d="M54 73h1v1h-1z"/><path fill="#231815" d="M55 73h1v1h-1zM56 73h1v1h-1zM57 73h1v1h-1zM58 73h1v1h-1zM12 74h1v1h-1zM13 74h1v1h-1zM14 74h1v1h-1zM15 74h1v1h-1zM16 74h1v1h-1zM17 74h1v1h-1z"/><path fill="#584816" d="M18 74h1v1h-1z"/><path fill="#C1A718" d="M19 74h1v1h-1z"/><path fill="#F5D619" d="M20 74h1v1h-1zM21 74h1v1h-1zM22 74h1v1h-1zM23 74h1v1h-1zM24 74h1v1h-1zM25 74h1v1h-1zM26 74h1v1h-1zM27 74h1v1h-1zM28 74h1v1h-1zM29 74h1v1h-1zM30 74h1v1h-1zM31 74h1v1h-1zM32 74h1v1h-1zM33 74h1v1h-1zM34 74h1v1h-1zM35 74h1v1h-1zM36 74h1v1h-1zM37 74h1v1h-1zM38 74h1v1h-1zM39 74h1v1h-1zM40 74h1v1h-1z"/><path fill="#F0D119" d="M41 74h1v1h-1z"/><path fill="#DBBE17" d="M42 74h1v1h-1z"/><path fill="#CBAF15" d="M43 74h1v1h-1zM44 74h1v1h-1zM45 74h1v1h-1zM46 74h1v1h-1zM47 74h1v1h-1zM48 74h1v1h-1zM49 74h1v1h-1zM50 74h1v1h-1zM51 74h1v1h-1zM52 74h1v1h-1z"/><path fill="#8C7615" d="M53 74h1v1h-1z"/><path fill="#231815" d="M54 74h1v1h-1zM55 74h1v1h-1zM56 74h1v1h-1zM57 74h1v1h-1zM14 75h1v1h-1zM15 75h1v1h-1zM16 75h1v1h-1zM17 75h1v1h-1zM18 75h1v1h-1zM19 75h1v1h-1z"/><path fill="#3D3016" d="M20 75h1v1h-1z"/><path fill="#998317" d="M21 75h1v1h-1z"/><path fill="#E8CA19" d="M22 75h1v1h-1z"/><path fill="#F5D619" d="M23 75h1v1h-1zM24 75h1v1h-1zM25 75h1v1h-1zM26 75h1v1h-1zM27 75h1v1h-1zM28 75h1v1h-1zM29 75h1v1h-1zM30 75h1v1h-1zM31 75h1v1h-1zM32 75h1v1h-1zM33 75h1v1h-1zM34 75h1v1h-1zM35 75h1v1h-1zM36 75h1v1h-1zM37 75h1v1h-1zM38 75h1v1h-1z"/><path fill="#EDCF18" d="M39 75h1v1h-1z"/><path fill="#DBBE17" d="M40 75h1v1h-1z"/><path fill="#CBAF15" d="M41 75h1v1h-1zM42 75h1v1h-1zM43 75h1v1h-1zM44 75h1v1h-1zM45 75h1v1h-1zM46 75h1v1h-1zM47 75h1v1h-1zM48 75h1v1h-1zM49 75h1v1h-1zM50 75h1v1h-1zM51 75h1v1h-1zM52 75h1v1h-1z"/><path fill="#433415" d="M53 75h1v1h-1z"/><path fill="#231815" d="M54 75h1v1h-1zM55 75h1v1h-1zM56 75h1v1h-1zM16 76h1v1h-1zM17 76h1v1h-1zM18 76h1v1h-1zM19 76h1v1h-1zM20 76h1v1h-1zM21 76h1v1h-1zM22 76h1v1h-1z"/><path fill="#655316" d="M23 76h1v1h-1z"/><path fill="#A68F18" d="M24 76h1v1h-1z"/><path fill="#E8CA19" d="M25 76h1v1h-1z"/><path fill="#F5D619" d="M26 76h1v1h-1zM27 76h1v1h-1zM28 76h1v1h-1zM29 76h1v1h-1zM30 76h1v1h-1zM31 76h1v1h-1zM32 76h1v1h-1zM33 76h1v1h-1zM34 76h1v1h-1zM35 76h1v1h-1z"/><path fill="#F2D419" d="M36 76h1v1h-1z"/><path fill="#E5C718" d="M37 76h1v1h-1z"/><path fill="#D3B616" d="M38 76h1v1h-1z"/><path fill="#CBAF15" d="M39 76h1v1h-1zM40 76h1v1h-1zM41 76h1v1h-1zM42 76h1v1h-1zM43 76h1v1h-1zM44 76h1v1h-1zM45 76h1v1h-1zM46 76h1v1h-1zM47 76h1v1h-1zM48 76h1v1h-1zM49 76h1v1h-1zM50 76h1v1h-1zM51 76h1v1h-1z"/><path fill="#B69C15" d="M52 76h1v1h-1z"/><path fill="#231815" d="M53 76h1v1h-1zM54 76h1v1h-1zM55 76h1v1h-1zM18 77h1v1h-1zM19 77h1v1h-1zM20 77h1v1h-1zM21 77h1v1h-1zM22 77h1v1h-1zM23 77h1v1h-1zM24 77h1v1h-1zM25 77h1v1h-1z"/><path fill="#584816" d="M26 77h1v1h-1z"/><path fill="#998317" d="M27 77h1v1h-1z"/><path fill="#C1A718" d="M28 77h1v1h-1z"/><path fill="#F5D619" d="M29 77h1v1h-1zM30 77h1v1h-1zM31 77h1v1h-1zM32 77h1v1h-1z"/><path fill="#EDCF18" d="M33 77h1v1h-1z"/><path fill="#E3C517" d="M34 77h1v1h-1z"/><path fill="#D8BB16" d="M35 77h1v1h-1z"/><path fill="#CBAF15" d="M36 77h1v1h-1zM37 77h1v1h-1zM38 77h1v1h-1zM39 77h1v1h-1zM40 77h1v1h-1zM41 77h1v1h-1zM42 77h1v1h-1zM43 77h1v1h-1zM44 77h1v1h-1zM45 77h1v1h-1zM46 77h1v1h-1zM47 77h1v1h-1zM48 77h1v1h-1zM49 77h1v1h-1zM50 77h1v1h-1zM51 77h1v1h-1z"/><path fill="#826D15" d="M52 77h1v1h-1z"/><path fill="#231815" d="M53 77h1v1h-1zM54 77h1v1h-1zM55 77h1v1h-1zM20 78h1v1h-1zM21 78h1v1h-1zM22 78h1v1h-1zM23 78h1v1h-1zM24 78h1v1h-1zM25 78h1v1h-1zM26 78h1v1h-1zM27 78h1v1h-1zM28 78h1v1h-1zM29 78h1v1h-1z"/><path fill="#584816" d="M30 78h1v1h-1z"/><path fill="#776416" d="M31 78h1v1h-1z"/><path fill="#7A6615" d="M32 78h1v1h-1z"/><path fill="#A18915" d="M33 78h1v1h-1z"/><path fill="#AC9315" d="M34 78h1v1h-1z"/><path fill="#CBAF15" d="M35 78h1v1h-1zM36 78h1v1h-1zM37 78h1v1h-1zM38 78h1v1h-1zM39 78h1v1h-1zM40 78h1v1h-1zM41 78h1v1h-1zM42 78h1v1h-1zM43 78h1v1h-1zM44 78h1v1h-1zM45 78h1v1h-1zM46 78h1v1h-1zM47 78h1v1h-1zM48 78h1v1h-1zM49 78h1v1h-1zM50 78h1v1h-1zM51 78h1v1h-1z"/><path fill="#584715" d="M52 78h1v1h-1z"/><path fill="#231815" d="M53 78h1v1h-1zM54 78h1v1h-1zM55 78h1v1h-1zM23 79h1v1h-1zM24 79h1v1h-1zM25 79h1v1h-1zM26 79h1v1h-1zM27 79h1v1h-1zM28 79h1v1h-1zM29 79h1v1h-1zM30 79h1v1h-1zM31 79h1v1h-1zM32 79h1v1h-1zM33 79h1v1h-1zM34 79h1v1h-1z"/><path fill="#2E2115" d="M35 79h1v1h-1z"/><path fill="#584715" d="M36 79h1v1h-1z"/><path fill="#978015" d="M37 79h1v1h-1z"/><path fill="#CBAF15" d="M38 79h1v1h-1zM39 79h1v1h-1zM40 79h1v1h-1zM41 79h1v1h-1zM42 79h1v1h-1zM43 79h1v1h-1zM44 79h1v1h-1zM45 79h1v1h-1zM46 79h1v1h-1zM47 79h1v1h-1zM48 79h1v1h-1zM49 79h1v1h-1zM50 79h1v1h-1zM51 79h1v1h-1z"/><path fill="#2E2115" d="M52 79h1v1h-1z"/><path fill="#231815" d="M53 79h1v1h-1zM54 79h1v1h-1zM26 80h1v1h-1zM27 80h1v1h-1zM28 80h1v1h-1zM29 80h1v1h-1zM30 80h1v1h-1zM31 80h1v1h-1zM32 80h1v1h-1zM33 80h1v1h-1zM34 80h1v1h-1zM35 80h1v1h-1zM36 80h1v1h-1zM37 80h1v1h-1z"/><path fill="#382B15" d="M38 80h1v1h-1z"/><path fill="#8C7615" d="M39 80h1v1h-1z"/><path fill="#CBAF15" d="M40 80h1v1h-1zM41 80h1v1h-1zM42 80h1v1h-1zM43 80h1v1h-1zM44 80h1v1h-1zM45 80h1v1h-1zM46 80h1v1h-1zM47 80h1v1h-1zM48 80h1v1h-1zM49 80h1v1h-1zM50 80h1v1h-1z"/><path fill="#C1A615" d="M51 80h1v1h-1z"/><path fill="#231815" d="M52 80h1v1h-1zM53 80h1v1h-1zM54 80h1v1h-1zM31 81h1v1h-1zM32 81h1v1h-1zM33 81h1v1h-1zM34 81h1v1h-1zM35 81h1v1h-1zM36 81h1v1h-1zM37 81h1v1h-1zM38 81h1v1h-1zM39 81h1v1h-1z"/><path fill="#4D3E15" d="M40 81h1v1h-1z"/><path fill="#AC9315" d="M41 81h1v1h-1z"/><path fill="#CBAF15" d="M42 81h1v1h-1zM43 81h1v1h-1zM44 81h1v1h-1zM45 81h1v1h-1zM46 81h1v1h-1zM47 81h1v1h-1zM48 81h1v1h-1zM49 81h1v1h-1zM50 81h1v1h-1z"/><path fill="#A18915" d="M51 81h1v1h-1z"/><path fill="#231815" d="M52 81h1v1h-1zM53 81h1v1h-1zM54 81h1v1h-1zM36 82h1v1h-1zM37 82h1v1h-1zM38 82h1v1h-1zM39 82h1v1h-1zM40 82h1v1h-1zM41 82h1v1h-1z"/><path fill="#776415" d="M42 82h1v1h-1z"/><path fill="#CBAF15" d="M43 82h1v1h-1zM44 82h1v1h-1zM45 82h1v1h-1zM46 82h1v1h-1zM47 82h1v1h-1zM48 82h1v1h-1zM49 82h1v1h-1zM50 82h1v1h-1z"/><path fill="#8C7615" d="M51 82h1v1h-1z"/><path fill="#231815" d="M52 82h1v1h-1zM53 82h1v1h-1zM54 82h1v1h-1zM38 83h1v1h-1zM39 83h1v1h-1zM40 83h1v1h-1zM41 83h1v1h-1zM42 83h1v1h-1z"/><path fill="#433415" d="M43 83h1v1h-1z"/><path fill="#AC9315" d="M44 83h1v1h-1z"/><path fill="#CBAF15" d="M45 83h1v1h-1zM46 83h1v1h-1zM47 83h1v1h-1zM48 83h1v1h-1zM49 83h1v1h-1zM50 83h1v1h-1z"/><path fill="#6D5A15" d="M51 83h1v1h-1z"/><path fill="#231815" d="M52 83h1v1h-1zM53 83h1v1h-1zM54 83h1v1h-1zM39 84h1v1h-1zM40 84h1v1h-1zM41 84h1v1h-1zM42 84h1v1h-1zM43 84h1v1h-1z"/><path fill="#2E2115" d="M44 84h1v1h-1z"/><path fill="#826D15" d="M45 84h1v1h-1z"/><path fill="#CBAF15" d="M46 84h1v1h-1zM47 84h1v1h-1zM48 84h1v1h-1zM49 84h1v1h-1zM50 84h1v1h-1z"/><path fill="#4D3E15" d="M51 84h1v1h-1z"/><path fill="#231815" d="M52 84h1v1h-1zM53 84h1v1h-1zM54 84h1v1h-1zM41 85h1v1h-1zM42 85h1v1h-1zM43 85h1v1h-1zM44 85h1v1h-1zM45 85h1v1h-1z"/><path fill="#4D3E15" d="M46 85h1v1h-1z"/><path fill="#B69C15" d="M47 85h1v1h-1z"/><path fill="#CBAF15" d="M48 85h1v1h-1zM49 85h1v1h-1z"/><path fill="#C1A615" d="M50 85h1v1h-1z"/><path fill="#231815" d="M51 85h1v1h-1zM52 85h1v1h-1zM53 85h1v1h-1zM42 86h1v1h-1zM43 86h1v1h-1zM44 86h1v1h-1zM45 86h1v1h-1zM46 86h1v1h-1z"/><path fill="#2E2115" d="M47 86h1v1h-1z"/><path fill="#776415" d="M48 86h1v1h-1z"/><path fill="#C1A615" d="M49 86h1v1h-1z"/><path fill="#826D15" d="M50 86h1v1h-1z"/><path fill="#231815" d="M51 86h1v1h-1zM52 86h1v1h-1zM53 86h1v1h-1zM44 87h1v1h-1zM45 87h1v1h-1zM46 87h1v1h-1zM47 87h1v1h-1zM48 87h1v1h-1zM49 87h1v1h-1zM50 87h1v1h-1zM51 87h1v1h-1zM52 87h1v1h-1zM53 87h1v1h-1zM45 88h1v1h-1zM46 88h1v1h-1zM47 88h1v1h-1zM48 88h1v1h-1zM49 88h1v1h-1zM50 88h1v1h-1zM51 88h1v1h-1zM52 88h1v1h-1zM47 89h1v1h-1zM48 89h1v1h-1zM49 89h1v1h-1zM50 89h1v1h-1zM51 89h1v1h-1z"/></svg>