<svg baseProfile="full" height="90" width="83" xmlns="http://www.w3.org/2000/svg"><path fill="#231815" d="M28 0h1v1h-1zM29 0h1v1h-1zM30 0h1v1h-1zM31 0h1v1h-1zM32 0h1v1h-1zM33 0h1v1h-1zM34 0h1v1h-1zM27 1h1v1h-1zM28 1h1v1h-1zM29 1h1v1h-1zM30 1h1v1h-1zM31 1h1v1h-1zM32 1h1v1h-1zM33 1h1v1h-1zM34 1h1v1h-1zM35 1h1v1h-1zM26 2h1v1h-1zM27 2h1v1h-1zM28 2h1v1h-1zM29 2h1v1h-1zM30 2h1v1h-1zM31 2h1v1h-1zM32 2h1v1h-1zM33 2h1v1h-1zM34 2h1v1h-1zM35 2h1v1h-1zM36 2h1v1h-1zM26 3h1v1h-1zM27 3h1v1h-1zM28 3h1v1h-1z"/><path fill="#393A2E" d="M29 3h1v1h-1z"/><path fill="#89B788" d="M30 3h1v1h-1z"/><path fill="#97CE98" d="M31 3h1v1h-1z"/><path fill="#89B788" d="M32 3h1v1h-1z"/><path fill="#393A2E" d="M33 3h1v1h-1z"/><path fill="#231815" d="M34 3h1v1h-1zM35 3h1v1h-1zM36 3h1v1h-1zM25 4h1v1h-1zM26 4h1v1h-1zM27 4h1v1h-1z"/><path fill="#2A231D" d="M28 4h1v1h-1z"/><path fill="#90C390" d="M29 4h1v1h-1z"/><path fill="#97CE98" d="M30 4h1v1h-1zM31 4h1v1h-1zM32 4h1v1h-1z"/><path fill="#90C390" d="M33 4h1v1h-1z"/><path fill="#322F25" d="M34 4h1v1h-1z"/><path fill="#231815" d="M35 4h1v1h-1zM36 4h1v1h-1zM37 4h1v1h-1zM25 5h1v1h-1zM26 5h1v1h-1zM27 5h1v1h-1z"/><path fill="#4F5C46" d="M28 5h1v1h-1z"/><path fill="#97CE98" d="M29 5h1v1h-1zM30 5h1v1h-1zM31 5h1v1h-1zM32 5h1v1h-1zM33 5h1v1h-1z"/><path fill="#56684E" d="M34 5h1v1h-1z"/><path fill="#231815" d="M35 5h1v1h-1zM36 5h1v1h-1zM37 5h1v1h-1zM25 6h1v1h-1zM26 6h1v1h-1zM27 6h1v1h-1z"/><path fill="#6C8A67" d="M28 6h1v1h-1z"/><path fill="#97CE98" d="M29 6h1v1h-1zM30 6h1v1h-1zM31 6h1v1h-1zM32 6h1v1h-1zM33 6h1v1h-1z"/><path fill="#5D7357" d="M34 6h1v1h-1z"/><path fill="#231815" d="M35 6h1v1h-1zM36 6h1v1h-1zM37 6h1v1h-1zM25 7h1v1h-1zM26 7h1v1h-1zM27 7h1v1h-1z"/><path fill="#7AA177" d="M28 7h1v1h-1z"/><path fill="#97CE98" d="M29 7h1v1h-1zM30 7h1v1h-1zM31 7h1v1h-1zM32 7h1v1h-1zM33 7h1v1h-1z"/><path fill="#547051" d="M34 7h1v1h-1z"/><path fill="#231815" d="M35 7h1v1h-1zM36 7h1v1h-1zM37 7h1v1h-1zM25 8h1v1h-1zM26 8h1v1h-1zM27 8h1v1h-1z"/><path fill="#298345" d="M28 8h1v1h-1z"/><path fill="#6ABE7C" d="M29 8h1v1h-1z"/><path fill="#97CE98" d="M30 8h1v1h-1zM31 8h1v1h-1z"/><path fill="#85C88D" d="M32 8h1v1h-1z"/><path fill="#4FB46B" d="M33 8h1v1h-1z"/><path fill="#15592A" d="M34 8h1v1h-1z"/><path fill="#231815" d="M35 8h1v1h-1zM36 8h1v1h-1zM37 8h1v1h-1zM25 9h1v1h-1zM26 9h1v1h-1zM27 9h1v1h-1z"/><path fill="#0E7A34" d="M28 9h1v1h-1z"/><path fill="#0C9F44" d="M29 9h1v1h-1z"/><path fill="#079A3E" d="M30 9h1v1h-1zM31 9h1v1h-1zM32 9h1v1h-1zM33 9h1v1h-1z"/><path fill="#107131" d="M34 9h1v1h-1z"/><path fill="#231815" d="M35 9h1v1h-1zM36 9h1v1h-1zM37 9h1v1h-1zM25 10h1v1h-1zM26 10h1v1h-1zM27 10h1v1h-1z"/><path fill="#1B8542" d="M28 10h1v1h-1z"/><path fill="#1BAD54" d="M29 10h1v1h-1z"/><path fill="#15A74D" d="M30 10h1v1h-1z"/><path fill="#079A3E" d="M31 10h1v1h-1zM32 10h1v1h-1zM33 10h1v1h-1z"/><path fill="#0E7A34" d="M34 10h1v1h-1z"/><path fill="#231815" d="M35 10h1v1h-1zM36 10h1v1h-1zM37 10h1v1h-1zM25 11h1v1h-1zM26 11h1v1h-1zM27 11h1v1h-1z"/><path fill="#1D8844" d="M28 11h1v1h-1z"/><path fill="#1BAD54" d="M29 11h1v1h-1zM30 11h1v1h-1z"/><path fill="#079A3E" d="M31 11h1v1h-1zM32 11h1v1h-1zM33 11h1v1h-1z"/><path fill="#0E7A34" d="M34 11h1v1h-1z"/><path fill="#231815" d="M35 11h1v1h-1zM36 11h1v1h-1zM37 11h1v1h-1zM25 12h1v1h-1zM26 12h1v1h-1zM27 12h1v1h-1z"/><path fill="#1D8844" d="M28 12h1v1h-1z"/><path fill="#1BAD54" d="M29 12h1v1h-1zM30 12h1v1h-1z"/><path fill="#079A3E" d="M31 12h1v1h-1zM32 12h1v1h-1zM33 12h1v1h-1z"/><path fill="#0E7A34" d="M34 12h1v1h-1z"/><path fill="#231815" d="M35 12h1v1h-1zM36 12h1v1h-1zM37 12h1v1h-1zM25 13h1v1h-1zM26 13h1v1h-1zM27 13h1v1h-1z"/><path fill="#1D8844" d="M28 13h1v1h-1z"/><path fill="#1BAD54" d="M29 13h1v1h-1zM30 13h1v1h-1z"/><path fill="#079A3E" d="M31 13h1v1h-1zM32 13h1v1h-1zM33 13h1v1h-1z"/><path fill="#0E7A34" d="M34 13h1v1h-1z"/><path fill="#231815" d="M35 13h1v1h-1zM36 13h1v1h-1zM37 13h1v1h-1zM25 14h1v1h-1zM26 14h1v1h-1zM27 14h1v1h-1z"/><path fill="#1D8844" d="M28 14h1v1h-1z"/><path fill="#1BAD54" d="M29 14h1v1h-1zM30 14h1v1h-1z"/><path fill="#079A3E" d="M31 14h1v1h-1zM32 14h1v1h-1zM33 14h1v1h-1z"/><path fill="#0E7A34" d="M34 14h1v1h-1z"/><path fill="#231815" d="M35 14h1v1h-1zM36 14h1v1h-1zM37 14h1v1h-1zM25 15h1v1h-1zM26 15h1v1h-1zM27 15h1v1h-1z"/><path fill="#1D8844" d="M28 15h1v1h-1z"/><path fill="#1BAD54" d="M29 15h1v1h-1zM30 15h1v1h-1z"/><path fill="#079A3E" d="M31 15h1v1h-1zM32 15h1v1h-1zM33 15h1v1h-1z"/><path fill="#0E7A34" d="M34 15h1v1h-1z"/><path fill="#231815" d="M35 15h1v1h-1zM36 15h1v1h-1zM37 15h1v1h-1zM25 16h1v1h-1zM26 16h1v1h-1zM27 16h1v1h-1z"/><path fill="#1D8844" d="M28 16h1v1h-1z"/><path fill="#1BAD54" d="M29 16h1v1h-1zM30 16h1v1h-1z"/><path fill="#079A3E" d="M31 16h1v1h-1zM32 16h1v1h-1zM33 16h1v1h-1z"/><path fill="#0E7A34" d="M34 16h1v1h-1z"/><path fill="#231815" d="M35 16h1v1h-1zM36 16h1v1h-1zM37 16h1v1h-1zM25 17h1v1h-1zM26 17h1v1h-1zM27 17h1v1h-1z"/><path fill="#1D8844" d="M28 17h1v1h-1z"/><path fill="#1BAD54" d="M29 17h1v1h-1zM30 17h1v1h-1z"/><path fill="#079A3E" d="M31 17h1v1h-1zM32 17h1v1h-1zM33 17h1v1h-1z"/><path fill="#0E7A34" d="M34 17h1v1h-1z"/><path fill="#231815" d="M35 17h1v1h-1zM36 17h1v1h-1zM37 17h1v1h-1zM38 17h1v1h-1zM39 17h1v1h-1zM25 18h1v1h-1zM26 18h1v1h-1zM27 18h1v1h-1z"/><path fill="#1D8844" d="M28 18h1v1h-1z"/><path fill="#1BAD54" d="M29 18h1v1h-1zM30 18h1v1h-1z"/><path fill="#079A3E" d="M31 18h1v1h-1z"/><path fill="#08983D" d="M32 18h1v1h-1z"/><path fill="#0D8F38" d="M33 18h1v1h-1z"/><path fill="#166C2D" d="M34 18h1v1h-1z"/><path fill="#231815" d="M35 18h1v1h-1zM36 18h1v1h-1zM37 18h1v1h-1zM38 18h1v1h-1zM39 18h1v1h-1zM40 18h1v1h-1zM41 18h1v1h-1zM42 18h1v1h-1zM43 18h1v1h-1zM44 18h1v1h-1zM45 18h1v1h-1zM25 19h1v1h-1zM26 19h1v1h-1zM27 19h1v1h-1z"/><path fill="#1D8844" d="M28 19h1v1h-1z"/><path fill="#1BAD54" d="M29 19h1v1h-1z"/><path fill="#1B9C47" d="M30 19h1v1h-1z"/><path fill="#168232" d="M31 19h1v1h-1z"/><path fill="#1B762B" d="M32 19h1v1h-1zM33 19h1v1h-1z"/><path fill="#1D6427" d="M34 19h1v1h-1z"/><path fill="#231815" d="M35 19h1v1h-1zM36 19h1v1h-1zM37 19h1v1h-1zM38 19h1v1h-1zM39 19h1v1h-1zM40 19h1v1h-1zM41 19h1v1h-1zM42 19h1v1h-1zM43 19h1v1h-1zM44 19h1v1h-1zM45 19h1v1h-1zM46 19h1v1h-1zM47 19h1v1h-1zM25 20h1v1h-1zM26 20h1v1h-1zM27 20h1v1h-1z"/><path fill="#1D7737" d="M28 20h1v1h-1z"/><path fill="#1B7D30" d="M29 20h1v1h-1z"/><path fill="#1B762B" d="M30 20h1v1h-1zM31 20h1v1h-1zM32 20h1v1h-1zM33 20h1v1h-1zM34 20h1v1h-1z"/><path fill="#1D4C22" d="M35 20h1v1h-1z"/><path fill="#1C391F" d="M36 20h1v1h-1z"/><path fill="#175127" d="M37 20h1v1h-1z"/><path fill="#15592A" d="M38 20h1v1h-1z"/><path fill="#1A4122" d="M39 20h1v1h-1z"/><path fill="#1C391F" d="M40 20h1v1h-1z"/><path fill="#212018" d="M41 20h1v1h-1z"/><path fill="#231815" d="M42 20h1v1h-1zM43 20h1v1h-1zM44 20h1v1h-1zM45 20h1v1h-1zM46 20h1v1h-1zM47 20h1v1h-1zM48 20h1v1h-1zM49 20h1v1h-1zM25 21h1v1h-1zM26 21h1v1h-1zM27 21h1v1h-1z"/><path fill="#1E5323" d="M28 21h1v1h-1z"/><path fill="#1B762B" d="M29 21h1v1h-1zM30 21h1v1h-1zM31 21h1v1h-1z"/><path fill="#177D2F" d="M32 21h1v1h-1z"/><path fill="#108A36" d="M33 21h1v1h-1z"/><path fill="#0A963C" d="M34 21h1v1h-1z"/><path fill="#079A3E" d="M35 21h1v1h-1z"/><path fill="#0C9F44" d="M36 21h1v1h-1zM37 21h1v1h-1zM38 21h1v1h-1zM39 21h1v1h-1zM40 21h1v1h-1zM41 21h1v1h-1z"/><path fill="#0A933D" d="M42 21h1v1h-1z"/><path fill="#107131" d="M43 21h1v1h-1z"/><path fill="#194924" d="M44 21h1v1h-1z"/><path fill="#212018" d="M45 21h1v1h-1z"/><path fill="#231815" d="M46 21h1v1h-1zM47 21h1v1h-1zM48 21h1v1h-1zM49 21h1v1h-1zM50 21h1v1h-1zM51 21h1v1h-1zM25 22h1v1h-1zM26 22h1v1h-1zM27 22h1v1h-1z"/><path fill="#1F4720" d="M28 22h1v1h-1z"/><path fill="#1B762B" d="M29 22h1v1h-1z"/><path fill="#158131" d="M30 22h1v1h-1z"/><path fill="#0B933A" d="M31 22h1v1h-1z"/><path fill="#0B9E42" d="M32 22h1v1h-1z"/><path fill="#12A54A" d="M33 22h1v1h-1z"/><path fill="#17A950" d="M34 22h1v1h-1z"/><path fill="#1BAD54" d="M35 22h1v1h-1zM36 22h1v1h-1zM37 22h1v1h-1zM38 22h1v1h-1zM39 22h1v1h-1zM40 22h1v1h-1zM41 22h1v1h-1zM42 22h1v1h-1z"/><path fill="#19AB51" d="M43 22h1v1h-1z"/><path fill="#14A64C" d="M44 22h1v1h-1z"/><path fill="#0DA045" d="M45 22h1v1h-1z"/><path fill="#12692F" d="M46 22h1v1h-1z"/><path fill="#1C391F" d="M47 22h1v1h-1z"/><path fill="#231815" d="M48 22h1v1h-1zM49 22h1v1h-1zM50 22h1v1h-1zM51 22h1v1h-1zM52 22h1v1h-1zM53 22h1v1h-1zM54 22h1v1h-1zM55 22h1v1h-1zM56 22h1v1h-1zM57 22h1v1h-1zM58 22h1v1h-1zM59 22h1v1h-1zM60 22h1v1h-1zM61 22h1v1h-1zM62 22h1v1h-1zM63 22h1v1h-1zM64 22h1v1h-1zM65 22h1v1h-1zM66 22h1v1h-1zM67 22h1v1h-1zM68 22h1v1h-1zM69 22h1v1h-1zM70 22h1v1h-1zM71 22h1v1h-1zM72 22h1v1h-1zM73 22h1v1h-1zM24 23h1v1h-1zM25 23h1v1h-1zM26 23h1v1h-1zM27 23h1v1h-1z"/><path fill="#1D4C22" d="M28 23h1v1h-1z"/><path fill="#0C9139" d="M29 23h1v1h-1z"/><path fill="#0FA146" d="M30 23h1v1h-1z"/><path fill="#19AB51" d="M31 23h1v1h-1z"/><path fill="#1BAD54" d="M32 23h1v1h-1zM33 23h1v1h-1zM34 23h1v1h-1zM35 23h1v1h-1zM36 23h1v1h-1zM37 23h1v1h-1zM38 23h1v1h-1zM39 23h1v1h-1zM40 23h1v1h-1zM41 23h1v1h-1zM42 23h1v1h-1zM43 23h1v1h-1zM44 23h1v1h-1zM45 23h1v1h-1z"/><path fill="#19AB51" d="M46 23h1v1h-1z"/><path fill="#10A248" d="M47 23h1v1h-1z"/><path fill="#0E7A34" d="M48 23h1v1h-1z"/><path fill="#20281A" d="M49 23h1v1h-1z"/><path fill="#231815" d="M50 23h1v1h-1zM51 23h1v1h-1zM52 23h1v1h-1zM53 23h1v1h-1zM54 23h1v1h-1zM55 23h1v1h-1zM56 23h1v1h-1zM57 23h1v1h-1zM58 23h1v1h-1zM59 23h1v1h-1zM60 23h1v1h-1zM61 23h1v1h-1zM62 23h1v1h-1zM63 23h1v1h-1zM64 23h1v1h-1zM65 23h1v1h-1zM66 23h1v1h-1zM67 23h1v1h-1zM68 23h1v1h-1zM69 23h1v1h-1zM70 23h1v1h-1zM71 23h1v1h-1zM72 23h1v1h-1zM73 23h1v1h-1zM74 23h1v1h-1zM75 23h1v1h-1zM22 24h1v1h-1zM23 24h1v1h-1zM24 24h1v1h-1zM25 24h1v1h-1zM26 24h1v1h-1z"/><path fill="#20281A" d="M27 24h1v1h-1z"/><path fill="#0B8A39" d="M28 24h1v1h-1z"/><path fill="#14A64C" d="M29 24h1v1h-1z"/><path fill="#1BAD54" d="M30 24h1v1h-1zM31 24h1v1h-1zM32 24h1v1h-1zM33 24h1v1h-1zM34 24h1v1h-1zM35 24h1v1h-1zM36 24h1v1h-1zM37 24h1v1h-1zM38 24h1v1h-1zM39 24h1v1h-1zM40 24h1v1h-1zM41 24h1v1h-1zM42 24h1v1h-1zM43 24h1v1h-1zM44 24h1v1h-1zM45 24h1v1h-1zM46 24h1v1h-1zM47 24h1v1h-1z"/><path fill="#19AB51" d="M48 24h1v1h-1z"/><path fill="#0B9E42" d="M49 24h1v1h-1z"/><path fill="#175127" d="M50 24h1v1h-1z"/><path fill="#231815" d="M51 24h1v1h-1zM52 24h1v1h-1zM53 24h1v1h-1zM54 24h1v1h-1zM55 24h1v1h-1zM56 24h1v1h-1zM57 24h1v1h-1zM58 24h1v1h-1zM59 24h1v1h-1zM60 24h1v1h-1zM61 24h1v1h-1zM62 24h1v1h-1zM63 24h1v1h-1zM64 24h1v1h-1zM65 24h1v1h-1zM66 24h1v1h-1zM67 24h1v1h-1zM68 24h1v1h-1zM69 24h1v1h-1zM70 24h1v1h-1zM71 24h1v1h-1zM72 24h1v1h-1zM73 24h1v1h-1zM74 24h1v1h-1zM75 24h1v1h-1zM21 25h1v1h-1zM22 25h1v1h-1zM23 25h1v1h-1zM24 25h1v1h-1zM25 25h1v1h-1z"/><path fill="#1B4E24" d="M26 25h1v1h-1z"/><path fill="#08983D" d="M27 25h1v1h-1z"/><path fill="#14A64C" d="M28 25h1v1h-1z"/><path fill="#1BAD54" d="M29 25h1v1h-1zM30 25h1v1h-1zM31 25h1v1h-1zM32 25h1v1h-1zM33 25h1v1h-1zM34 25h1v1h-1zM35 25h1v1h-1zM36 25h1v1h-1zM37 25h1v1h-1zM38 25h1v1h-1zM39 25h1v1h-1zM40 25h1v1h-1zM41 25h1v1h-1zM42 25h1v1h-1zM43 25h1v1h-1zM44 25h1v1h-1zM45 25h1v1h-1zM46 25h1v1h-1zM47 25h1v1h-1zM48 25h1v1h-1zM49 25h1v1h-1z"/><path fill="#0FA146" d="M50 25h1v1h-1z"/><path fill="#0E7F35" d="M51 25h1v1h-1z"/><path fill="#1C6127" d="M52 25h1v1h-1z"/><path fill="#1D5F26" d="M53 25h1v1h-1zM54 25h1v1h-1z"/><path fill="#7F281E" d="M55 25h1v1h-1z"/><path fill="#A0161C" d="M56 25h1v1h-1zM57 25h1v1h-1zM58 25h1v1h-1zM59 25h1v1h-1z"/><path fill="#A32120" d="M60 25h1v1h-1z"/><path fill="#AD442D" d="M61 25h1v1h-1z"/><path fill="#B95644" d="M62 25h1v1h-1z"/><path fill="#BA5846" d="M63 25h1v1h-1zM64 25h1v1h-1zM65 25h1v1h-1zM66 25h1v1h-1zM67 25h1v1h-1zM68 25h1v1h-1zM69 25h1v1h-1z"/><path fill="#884336" d="M70 25h1v1h-1zM71 25h1v1h-1zM72 25h1v1h-1z"/><path fill="#3C231D" d="M73 25h1v1h-1z"/><path fill="#231815" d="M74 25h1v1h-1zM75 25h1v1h-1zM20 26h1v1h-1zM21 26h1v1h-1zM22 26h1v1h-1zM23 26h1v1h-1zM24 26h1v1h-1z"/><path fill="#1E5323" d="M25 26h1v1h-1z"/><path fill="#0C9139" d="M26 26h1v1h-1z"/><path fill="#0DA045" d="M27 26h1v1h-1z"/><path fill="#1BAD54" d="M28 26h1v1h-1zM29 26h1v1h-1zM30 26h1v1h-1zM31 26h1v1h-1zM32 26h1v1h-1zM33 26h1v1h-1zM34 26h1v1h-1zM35 26h1v1h-1zM36 26h1v1h-1zM37 26h1v1h-1zM38 26h1v1h-1zM39 26h1v1h-1zM40 26h1v1h-1zM41 26h1v1h-1zM42 26h1v1h-1zM43 26h1v1h-1zM44 26h1v1h-1zM45 26h1v1h-1zM46 26h1v1h-1zM47 26h1v1h-1zM48 26h1v1h-1zM49 26h1v1h-1zM50 26h1v1h-1z"/><path fill="#0FA146" d="M51 26h1v1h-1z"/><path fill="#0F8D37" d="M52 26h1v1h-1z"/><path fill="#1B762B" d="M53 26h1v1h-1zM54 26h1v1h-1z"/><path fill="#3C6429" d="M55 26h1v1h-1z"/><path fill="#BF1F20" d="M56 26h1v1h-1z"/><path fill="#C9151E" d="M57 26h1v1h-1zM58 26h1v1h-1zM59 26h1v1h-1zM60 26h1v1h-1z"/><path fill="#D02C27" d="M61 26h1v1h-1z"/><path fill="#EB6B54" d="M62 26h1v1h-1z"/><path fill="#EC6D56" d="M63 26h1v1h-1zM64 26h1v1h-1zM65 26h1v1h-1zM66 26h1v1h-1zM67 26h1v1h-1zM68 26h1v1h-1zM69 26h1v1h-1zM70 26h1v1h-1zM71 26h1v1h-1zM72 26h1v1h-1z"/><path fill="#552D25" d="M73 26h1v1h-1z"/><path fill="#231815" d="M74 26h1v1h-1zM75 26h1v1h-1zM20 27h1v1h-1zM21 27h1v1h-1zM22 27h1v1h-1z"/><path fill="#231E16" d="M23 27h1v1h-1z"/><path fill="#1D5F26" d="M24 27h1v1h-1z"/><path fill="#167F30" d="M25 27h1v1h-1z"/><path fill="#079A3E" d="M26 27h1v1h-1z"/><path fill="#17A950" d="M27 27h1v1h-1z"/><path fill="#1BAD54" d="M28 27h1v1h-1zM29 27h1v1h-1zM30 27h1v1h-1zM31 27h1v1h-1zM32 27h1v1h-1zM33 27h1v1h-1zM34 27h1v1h-1zM35 27h1v1h-1zM36 27h1v1h-1zM37 27h1v1h-1zM38 27h1v1h-1zM39 27h1v1h-1zM40 27h1v1h-1zM41 27h1v1h-1zM42 27h1v1h-1zM43 27h1v1h-1zM44 27h1v1h-1zM45 27h1v1h-1zM46 27h1v1h-1zM47 27h1v1h-1zM48 27h1v1h-1zM49 27h1v1h-1zM50 27h1v1h-1zM51 27h1v1h-1z"/><path fill="#0C9F44" d="M52 27h1v1h-1z"/><path fill="#118835" d="M53 27h1v1h-1z"/><path fill="#1B762B" d="M54 27h1v1h-1zM55 27h1v1h-1z"/><path fill="#7A612F" d="M56 27h1v1h-1z"/><path fill="#D02C27" d="M57 27h1v1h-1z"/><path fill="#C9151E" d="M58 27h1v1h-1zM59 27h1v1h-1zM60 27h1v1h-1zM61 27h1v1h-1z"/><path fill="#D2302B" d="M62 27h1v1h-1z"/><path fill="#E6634A" d="M63 27h1v1h-1z"/><path fill="#EA6A52" d="M64 27h1v1h-1z"/><path fill="#EC6D56" d="M65 27h1v1h-1zM66 27h1v1h-1zM67 27h1v1h-1zM68 27h1v1h-1zM69 27h1v1h-1zM70 27h1v1h-1z"/><path fill="#E96850" d="M71 27h1v1h-1z"/><path fill="#E25E43" d="M72 27h1v1h-1z"/><path fill="#301D19" d="M73 27h1v1h-1z"/><path fill="#231815" d="M74 27h1v1h-1zM75 27h1v1h-1zM19 28h1v1h-1zM20 28h1v1h-1zM21 28h1v1h-1zM22 28h1v1h-1z"/><path fill="#1D6427" d="M23 28h1v1h-1z"/><path fill="#1B762B" d="M24 28h1v1h-1z"/><path fill="#0F8D37" d="M25 28h1v1h-1z"/><path fill="#0A9C41" d="M26 28h1v1h-1z"/><path fill="#1BAD54" d="M27 28h1v1h-1zM28 28h1v1h-1zM29 28h1v1h-1zM30 28h1v1h-1zM31 28h1v1h-1zM32 28h1v1h-1zM33 28h1v1h-1zM34 28h1v1h-1zM35 28h1v1h-1zM36 28h1v1h-1zM37 28h1v1h-1zM38 28h1v1h-1zM39 28h1v1h-1zM40 28h1v1h-1zM41 28h1v1h-1zM42 28h1v1h-1zM43 28h1v1h-1zM44 28h1v1h-1zM45 28h1v1h-1zM46 28h1v1h-1zM47 28h1v1h-1zM48 28h1v1h-1zM49 28h1v1h-1zM50 28h1v1h-1zM51 28h1v1h-1z"/><path fill="#1AAC53" d="M52 28h1v1h-1z"/><path fill="#089B3F" d="M53 28h1v1h-1z"/><path fill="#177D2F" d="M54 28h1v1h-1z"/><path fill="#1B762B" d="M55 28h1v1h-1zM56 28h1v1h-1z"/><path fill="#C35734" d="M57 28h1v1h-1z"/><path fill="#D43C2C" d="M58 28h1v1h-1z"/><path fill="#CA191F" d="M59 28h1v1h-1z"/><path fill="#C9151E" d="M60 28h1v1h-1zM61 28h1v1h-1zM62 28h1v1h-1z"/><path fill="#D3382B" d="M63 28h1v1h-1z"/><path fill="#DB5335" d="M64 28h1v1h-1z"/><path fill="#DC5537" d="M65 28h1v1h-1z"/><path fill="#DF5A3D" d="M66 28h1v1h-1zM67 28h1v1h-1zM68 28h1v1h-1zM69 28h1v1h-1z"/><path fill="#DB5335" d="M70 28h1v1h-1zM71 28h1v1h-1z"/><path fill="#D04F33" d="M72 28h1v1h-1z"/><path fill="#231815" d="M73 28h1v1h-1zM74 28h1v1h-1zM75 28h1v1h-1zM18 29h1v1h-1zM19 29h1v1h-1zM20 29h1v1h-1zM21 29h1v1h-1z"/><path fill="#2A5123" d="M22 29h1v1h-1z"/><path fill="#1B762B" d="M23 29h1v1h-1zM24 29h1v1h-1z"/><path fill="#0B933A" d="M25 29h1v1h-1z"/><path fill="#0C9F44" d="M26 29h1v1h-1z"/><path fill="#1BAD54" d="M27 29h1v1h-1zM28 29h1v1h-1zM29 29h1v1h-1zM30 29h1v1h-1zM31 29h1v1h-1zM32 29h1v1h-1zM33 29h1v1h-1z"/><path fill="#32B361" d="M34 29h1v1h-1z"/><path fill="#3AB565" d="M35 29h1v1h-1z"/><path fill="#32B361" d="M36 29h1v1h-1z"/><path fill="#1BAD54" d="M37 29h1v1h-1zM38 29h1v1h-1zM39 29h1v1h-1zM40 29h1v1h-1zM41 29h1v1h-1zM42 29h1v1h-1zM43 29h1v1h-1zM44 29h1v1h-1zM45 29h1v1h-1zM46 29h1v1h-1zM47 29h1v1h-1zM48 29h1v1h-1zM49 29h1v1h-1zM50 29h1v1h-1zM51 29h1v1h-1zM52 29h1v1h-1z"/><path fill="#14A64C" d="M53 29h1v1h-1z"/><path fill="#0C9139" d="M54 29h1v1h-1z"/><path fill="#1B762B" d="M55 29h1v1h-1zM56 29h1v1h-1z"/><path fill="#4B6D2E" d="M57 29h1v1h-1z"/><path fill="#DB5335" d="M58 29h1v1h-1z"/><path fill="#D84731" d="M59 29h1v1h-1z"/><path fill="#CA191F" d="M60 29h1v1h-1z"/><path fill="#C9151E" d="M61 29h1v1h-1zM62 29h1v1h-1zM63 29h1v1h-1z"/><path fill="#D43C2C" d="M64 29h1v1h-1z"/><path fill="#DB5335" d="M65 29h1v1h-1zM66 29h1v1h-1zM67 29h1v1h-1zM68 29h1v1h-1zM69 29h1v1h-1zM70 29h1v1h-1zM71 29h1v1h-1z"/><path fill="#AD442D" d="M72 29h1v1h-1z"/><path fill="#231815" d="M73 29h1v1h-1zM74 29h1v1h-1zM75 29h1v1h-1zM16 30h1v1h-1zM17 30h1v1h-1zM18 30h1v1h-1zM19 30h1v1h-1zM20 30h1v1h-1z"/><path fill="#963D29" d="M21 30h1v1h-1z"/><path fill="#4B6D2E" d="M22 30h1v1h-1z"/><path fill="#1B762B" d="M23 30h1v1h-1zM24 30h1v1h-1z"/><path fill="#079A3E" d="M25 30h1v1h-1z"/><path fill="#10A248" d="M26 30h1v1h-1z"/><path fill="#1BAD54" d="M27 30h1v1h-1zM28 30h1v1h-1zM29 30h1v1h-1zM30 30h1v1h-1zM31 30h1v1h-1z"/><path fill="#23AF58" d="M32 30h1v1h-1z"/><path fill="#78C687" d="M33 30h1v1h-1z"/><path fill="#97CE98" d="M34 30h1v1h-1zM35 30h1v1h-1zM36 30h1v1h-1z"/><path fill="#80C88B" d="M37 30h1v1h-1z"/><path fill="#23AF58" d="M38 30h1v1h-1z"/><path fill="#1BAD54" d="M39 30h1v1h-1zM40 30h1v1h-1zM41 30h1v1h-1zM42 30h1v1h-1zM43 30h1v1h-1zM44 30h1v1h-1zM45 30h1v1h-1zM46 30h1v1h-1zM47 30h1v1h-1zM48 30h1v1h-1zM49 30h1v1h-1zM50 30h1v1h-1zM51 30h1v1h-1zM52 30h1v1h-1zM53 30h1v1h-1z"/><path fill="#0A9C41" d="M54 30h1v1h-1z"/><path fill="#148432" d="M55 30h1v1h-1z"/><path fill="#1B762B" d="M56 30h1v1h-1zM57 30h1v1h-1z"/><path fill="#B75A33" d="M58 30h1v1h-1z"/><path fill="#DB5335" d="M59 30h1v1h-1z"/><path fill="#D84731" d="M60 30h1v1h-1z"/><path fill="#CC2122" d="M61 30h1v1h-1z"/><path fill="#C9151E" d="M62 30h1v1h-1zM63 30h1v1h-1zM64 30h1v1h-1z"/><path fill="#D43C2C" d="M65 30h1v1h-1z"/><path fill="#DB5335" d="M66 30h1v1h-1zM67 30h1v1h-1zM68 30h1v1h-1zM69 30h1v1h-1zM70 30h1v1h-1zM71 30h1v1h-1z"/><path fill="#8B3927" d="M72 30h1v1h-1z"/><path fill="#231815" d="M73 30h1v1h-1zM74 30h1v1h-1zM75 30h1v1h-1zM15 31h1v1h-1zM16 31h1v1h-1zM17 31h1v1h-1zM18 31h1v1h-1zM19 31h1v1h-1z"/><path fill="#682E21" d="M20 31h1v1h-1z"/><path fill="#DB5335" d="M21 31h1v1h-1z"/><path fill="#4B6D2E" d="M22 31h1v1h-1z"/><path fill="#1B762B" d="M23 31h1v1h-1zM24 31h1v1h-1z"/><path fill="#079A3E" d="M25 31h1v1h-1z"/><path fill="#11A449" d="M26 31h1v1h-1z"/><path fill="#1BAD54" d="M27 31h1v1h-1zM28 31h1v1h-1zM29 31h1v1h-1zM30 31h1v1h-1zM31 31h1v1h-1z"/><path fill="#78C687" d="M32 31h1v1h-1z"/><path fill="#97CE98" d="M33 31h1v1h-1zM34 31h1v1h-1zM35 31h1v1h-1zM36 31h1v1h-1zM37 31h1v1h-1z"/><path fill="#80C88B" d="M38 31h1v1h-1z"/><path fill="#1BAD54" d="M39 31h1v1h-1zM40 31h1v1h-1zM41 31h1v1h-1zM42 31h1v1h-1zM43 31h1v1h-1zM44 31h1v1h-1zM45 31h1v1h-1zM46 31h1v1h-1zM47 31h1v1h-1zM48 31h1v1h-1zM49 31h1v1h-1zM50 31h1v1h-1zM51 31h1v1h-1zM52 31h1v1h-1zM53 31h1v1h-1z"/><path fill="#14A64C" d="M54 31h1v1h-1z"/><path fill="#0A963C" d="M55 31h1v1h-1z"/><path fill="#1B762B" d="M56 31h1v1h-1zM57 31h1v1h-1z"/><path fill="#63692F" d="M58 31h1v1h-1z"/><path fill="#DB5335" d="M59 31h1v1h-1zM60 31h1v1h-1z"/><path fill="#DA4F34" d="M61 31h1v1h-1z"/><path fill="#CB1D21" d="M62 31h1v1h-1z"/><path fill="#C9151E" d="M63 31h1v1h-1zM64 31h1v1h-1zM65 31h1v1h-1z"/><path fill="#D84731" d="M66 31h1v1h-1z"/><path fill="#DB5335" d="M67 31h1v1h-1zM68 31h1v1h-1zM69 31h1v1h-1zM70 31h1v1h-1zM71 31h1v1h-1z"/><path fill="#682E21" d="M72 31h1v1h-1z"/><path fill="#231815" d="M73 31h1v1h-1zM74 31h1v1h-1zM75 31h1v1h-1zM13 32h1v1h-1zM14 32h1v1h-1zM15 32h1v1h-1zM16 32h1v1h-1zM17 32h1v1h-1zM18 32h1v1h-1z"/><path fill="#7C2A21" d="M19 32h1v1h-1z"/><path fill="#DB5335" d="M20 32h1v1h-1zM21 32h1v1h-1z"/><path fill="#4B6D2E" d="M22 32h1v1h-1z"/><path fill="#1B762B" d="M23 32h1v1h-1zM24 32h1v1h-1z"/><path fill="#079A3E" d="M25 32h1v1h-1z"/><path fill="#0DA045" d="M26 32h1v1h-1z"/><path fill="#1BAD54" d="M27 32h1v1h-1zM28 32h1v1h-1zM29 32h1v1h-1zM30 32h1v1h-1z"/><path fill="#3AB565" d="M31 32h1v1h-1z"/><path fill="#97CE98" d="M32 32h1v1h-1zM33 32h1v1h-1zM34 32h1v1h-1zM35 32h1v1h-1zM36 32h1v1h-1zM37 32h1v1h-1zM38 32h1v1h-1z"/><path fill="#4AB96E" d="M39 32h1v1h-1z"/><path fill="#1BAD54" d="M40 32h1v1h-1zM41 32h1v1h-1zM42 32h1v1h-1zM43 32h1v1h-1zM44 32h1v1h-1zM45 32h1v1h-1zM46 32h1v1h-1zM47 32h1v1h-1zM48 32h1v1h-1zM49 32h1v1h-1zM50 32h1v1h-1zM51 32h1v1h-1zM52 32h1v1h-1zM53 32h1v1h-1zM54 32h1v1h-1z"/><path fill="#089B3F" d="M55 32h1v1h-1z"/><path fill="#167F30" d="M56 32h1v1h-1z"/><path fill="#1B762B" d="M57 32h1v1h-1zM58 32h1v1h-1z"/><path fill="#CF5534" d="M59 32h1v1h-1z"/><path fill="#DB5335" d="M60 32h1v1h-1zM61 32h1v1h-1z"/><path fill="#D84731" d="M62 32h1v1h-1z"/><path fill="#CA191F" d="M63 32h1v1h-1z"/><path fill="#C9151E" d="M64 32h1v1h-1zM65 32h1v1h-1z"/><path fill="#CA191F" d="M66 32h1v1h-1z"/><path fill="#D84731" d="M67 32h1v1h-1z"/><path fill="#DB5335" d="M68 32h1v1h-1zM69 32h1v1h-1zM70 32h1v1h-1zM71 32h1v1h-1z"/><path fill="#46231B" d="M72 32h1v1h-1z"/><path fill="#231815" d="M73 32h1v1h-1zM74 32h1v1h-1zM12 33h1v1h-1zM13 33h1v1h-1zM14 33h1v1h-1zM15 33h1v1h-1zM16 33h1v1h-1z"/><path fill="#4D1717" d="M17 33h1v1h-1z"/><path fill="#B5191E" d="M18 33h1v1h-1z"/><path fill="#D94B32" d="M19 33h1v1h-1z"/><path fill="#DB5335" d="M20 33h1v1h-1zM21 33h1v1h-1z"/><path fill="#4C6F30" d="M22 33h1v1h-1z"/><path fill="#1B762B" d="M23 33h1v1h-1zM24 33h1v1h-1z"/><path fill="#0C9139" d="M25 33h1v1h-1z"/><path fill="#0C9F44" d="M26 33h1v1h-1z"/><path fill="#1BAD54" d="M27 33h1v1h-1zM28 33h1v1h-1zM29 33h1v1h-1zM30 33h1v1h-1z"/><path fill="#61C07A" d="M31 33h1v1h-1z"/><path fill="#97CE98" d="M32 33h1v1h-1zM33 33h1v1h-1zM34 33h1v1h-1zM35 33h1v1h-1zM36 33h1v1h-1zM37 33h1v1h-1zM38 33h1v1h-1z"/><path fill="#78C687" d="M39 33h1v1h-1z"/><path fill="#1BAD54" d="M40 33h1v1h-1zM41 33h1v1h-1zM42 33h1v1h-1zM43 33h1v1h-1zM44 33h1v1h-1zM45 33h1v1h-1zM46 33h1v1h-1zM47 33h1v1h-1zM48 33h1v1h-1zM49 33h1v1h-1zM50 33h1v1h-1zM51 33h1v1h-1zM52 33h1v1h-1zM53 33h1v1h-1zM54 33h1v1h-1z"/><path fill="#0FA146" d="M55 33h1v1h-1z"/><path fill="#0F8D37" d="M56 33h1v1h-1z"/><path fill="#1B762B" d="M57 33h1v1h-1zM58 33h1v1h-1z"/><path fill="#936031" d="M59 33h1v1h-1z"/><path fill="#DB5335" d="M60 33h1v1h-1zM61 33h1v1h-1zM62 33h1v1h-1z"/><path fill="#D84731" d="M63 33h1v1h-1z"/><path fill="#C9151E" d="M64 33h1v1h-1zM65 33h1v1h-1zM66 33h1v1h-1z"/><path fill="#CA191F" d="M67 33h1v1h-1z"/><path fill="#DA4F34" d="M68 33h1v1h-1z"/><path fill="#DB5335" d="M69 33h1v1h-1zM70 33h1v1h-1z"/><path fill="#D04F33" d="M71 33h1v1h-1z"/><path fill="#231815" d="M72 33h1v1h-1zM73 33h1v1h-1zM74 33h1v1h-1zM10 34h1v1h-1zM11 34h1v1h-1zM12 34h1v1h-1zM13 34h1v1h-1zM14 34h1v1h-1z"/><path fill="#2D1816" d="M15 34h1v1h-1z"/><path fill="#8B161B" d="M16 34h1v1h-1z"/><path fill="#C9151E" d="M17 34h1v1h-1z"/><path fill="#D2342A" d="M18 34h1v1h-1z"/><path fill="#DB5335" d="M19 34h1v1h-1zM20 34h1v1h-1z"/><path fill="#E15D41" d="M21 34h1v1h-1z"/><path fill="#76723E" d="M22 34h1v1h-1z"/><path fill="#1B762B" d="M23 34h1v1h-1zM24 34h1v1h-1z"/><path fill="#0F8D37" d="M25 34h1v1h-1z"/><path fill="#089B3F" d="M26 34h1v1h-1z"/><path fill="#1BAD54" d="M27 34h1v1h-1zM28 34h1v1h-1zM29 34h1v1h-1zM30 34h1v1h-1z"/><path fill="#78C687" d="M31 34h1v1h-1z"/><path fill="#97CE98" d="M32 34h1v1h-1zM33 34h1v1h-1zM34 34h1v1h-1zM35 34h1v1h-1zM36 34h1v1h-1zM37 34h1v1h-1zM38 34h1v1h-1zM39 34h1v1h-1z"/><path fill="#1BAD54" d="M40 34h1v1h-1zM41 34h1v1h-1zM42 34h1v1h-1zM43 34h1v1h-1zM44 34h1v1h-1zM45 34h1v1h-1zM46 34h1v1h-1zM47 34h1v1h-1zM48 34h1v1h-1zM49 34h1v1h-1zM50 34h1v1h-1zM51 34h1v1h-1zM52 34h1v1h-1zM53 34h1v1h-1zM54 34h1v1h-1z"/><path fill="#14A64C" d="M55 34h1v1h-1z"/><path fill="#08983D" d="M56 34h1v1h-1z"/><path fill="#1B762B" d="M57 34h1v1h-1zM58 34h1v1h-1z"/><path fill="#586D30" d="M59 34h1v1h-1z"/><path fill="#DB5335" d="M60 34h1v1h-1zM61 34h1v1h-1zM62 34h1v1h-1zM63 34h1v1h-1z"/><path fill="#D43C2C" d="M64 34h1v1h-1z"/><path fill="#C9151E" d="M65 34h1v1h-1zM66 34h1v1h-1zM67 34h1v1h-1z"/><path fill="#CC2122" d="M68 34h1v1h-1z"/><path fill="#DA4F34" d="M69 34h1v1h-1z"/><path fill="#DB5335" d="M70 34h1v1h-1z"/><path fill="#AD442D" d="M71 34h1v1h-1z"/><path fill="#231815" d="M72 34h1v1h-1zM73 34h1v1h-1zM74 34h1v1h-1zM9 35h1v1H9zM10 35h1v1h-1zM11 35h1v1h-1zM12 35h1v1h-1zM13 35h1v1h-1z"/><path fill="#571718" d="M14 35h1v1h-1z"/><path fill="#BF151D" d="M15 35h1v1h-1z"/><path fill="#C9151E" d="M16 35h1v1h-1z"/><path fill="#CA191F" d="M17 35h1v1h-1z"/><path fill="#DA4F34" d="M18 35h1v1h-1z"/><path fill="#DB5335" d="M19 35h1v1h-1z"/><path fill="#DC5537" d="M20 35h1v1h-1z"/><path fill="#EB6B54" d="M21 35h1v1h-1z"/><path fill="#9E7046" d="M22 35h1v1h-1z"/><path fill="#1B762B" d="M23 35h1v1h-1zM24 35h1v1h-1z"/><path fill="#148432" d="M25 35h1v1h-1z"/><path fill="#079A3E" d="M26 35h1v1h-1z"/><path fill="#17A950" d="M27 35h1v1h-1z"/><path fill="#1BAD54" d="M28 35h1v1h-1zM29 35h1v1h-1zM30 35h1v1h-1z"/><path fill="#78C687" d="M31 35h1v1h-1z"/><path fill="#97CE98" d="M32 35h1v1h-1zM33 35h1v1h-1zM34 35h1v1h-1zM35 35h1v1h-1zM36 35h1v1h-1zM37 35h1v1h-1zM38 35h1v1h-1zM39 35h1v1h-1z"/><path fill="#1BAD54" d="M40 35h1v1h-1zM41 35h1v1h-1zM42 35h1v1h-1zM43 35h1v1h-1zM44 35h1v1h-1zM45 35h1v1h-1zM46 35h1v1h-1zM47 35h1v1h-1zM48 35h1v1h-1zM49 35h1v1h-1zM50 35h1v1h-1zM51 35h1v1h-1zM52 35h1v1h-1zM53 35h1v1h-1zM54 35h1v1h-1z"/><path fill="#16A84F" d="M55 35h1v1h-1z"/><path fill="#079A3E" d="M56 35h1v1h-1z"/><path fill="#177D2F" d="M57 35h1v1h-1z"/><path fill="#1B762B" d="M58 35h1v1h-1z"/><path fill="#28752E" d="M59 35h1v1h-1z"/><path fill="#E6634A" d="M60 35h1v1h-1z"/><path fill="#DB5335" d="M61 35h1v1h-1zM62 35h1v1h-1zM63 35h1v1h-1zM64 35h1v1h-1z"/><path fill="#CF2825" d="M65 35h1v1h-1z"/><path fill="#C9151E" d="M66 35h1v1h-1zM67 35h1v1h-1zM68 35h1v1h-1z"/><path fill="#CE2524" d="M69 35h1v1h-1z"/><path fill="#DB5335" d="M70 35h1v1h-1z"/><path fill="#7F3625" d="M71 35h1v1h-1z"/><path fill="#231815" d="M72 35h1v1h-1zM73 35h1v1h-1zM74 35h1v1h-1zM7 36h1v1H7zM8 36h1v1H8zM9 36h1v1H9zM10 36h1v1h-1zM11 36h1v1h-1z"/><path fill="#301D19" d="M12 36h1v1h-1z"/><path fill="#9A2122" d="M13 36h1v1h-1z"/><path fill="#C9151E" d="M14 36h1v1h-1zM15 36h1v1h-1zM16 36h1v1h-1z"/><path fill="#D2342A" d="M17 36h1v1h-1z"/><path fill="#DB5335" d="M18 36h1v1h-1zM19 36h1v1h-1z"/><path fill="#E46046" d="M20 36h1v1h-1z"/><path fill="#EC6D56" d="M21 36h1v1h-1z"/><path fill="#D27153" d="M22 36h1v1h-1z"/><path fill="#1B762B" d="M23 36h1v1h-1zM24 36h1v1h-1z"/><path fill="#197B2D" d="M25 36h1v1h-1z"/><path fill="#079A3E" d="M26 36h1v1h-1z"/><path fill="#12A54A" d="M27 36h1v1h-1z"/><path fill="#1BAD54" d="M28 36h1v1h-1zM29 36h1v1h-1zM30 36h1v1h-1z"/><path fill="#70C483" d="M31 36h1v1h-1z"/><path fill="#97CE98" d="M32 36h1v1h-1zM33 36h1v1h-1zM34 36h1v1h-1zM35 36h1v1h-1zM36 36h1v1h-1zM37 36h1v1h-1zM38 36h1v1h-1zM39 36h1v1h-1z"/><path fill="#1BAD54" d="M40 36h1v1h-1zM41 36h1v1h-1zM42 36h1v1h-1zM43 36h1v1h-1zM44 36h1v1h-1zM45 36h1v1h-1zM46 36h1v1h-1zM47 36h1v1h-1zM48 36h1v1h-1zM49 36h1v1h-1zM50 36h1v1h-1zM51 36h1v1h-1zM52 36h1v1h-1zM53 36h1v1h-1zM54 36h1v1h-1zM55 36h1v1h-1z"/><path fill="#079A3E" d="M56 36h1v1h-1z"/><path fill="#148432" d="M57 36h1v1h-1z"/><path fill="#1B762B" d="M58 36h1v1h-1zM59 36h1v1h-1z"/><path fill="#D26E51" d="M60 36h1v1h-1z"/><path fill="#E05B3F" d="M61 36h1v1h-1z"/><path fill="#DB5335" d="M62 36h1v1h-1zM63 36h1v1h-1zM64 36h1v1h-1z"/><path fill="#DA4F34" d="M65 36h1v1h-1z"/><path fill="#CA191F" d="M66 36h1v1h-1z"/><path fill="#C9151E" d="M67 36h1v1h-1zM68 36h1v1h-1zM69 36h1v1h-1z"/><path fill="#D02C27" d="M70 36h1v1h-1z"/><path fill="#5D2A1F" d="M71 36h1v1h-1z"/><path fill="#231815" d="M72 36h1v1h-1zM73 36h1v1h-1zM74 36h1v1h-1zM6 37h1v1H6zM7 37h1v1H7zM8 37h1v1H8zM9 37h1v1H9zM10 37h1v1h-1z"/><path fill="#623329" d="M11 37h1v1h-1z"/><path fill="#DF6852" d="M12 37h1v1h-1z"/><path fill="#CB1B22" d="M13 37h1v1h-1z"/><path fill="#C9151E" d="M14 37h1v1h-1zM15 37h1v1h-1zM16 37h1v1h-1z"/><path fill="#DA4F34" d="M17 37h1v1h-1z"/><path fill="#DB5335" d="M18 37h1v1h-1z"/><path fill="#DC5537" d="M19 37h1v1h-1z"/><path fill="#EB6B54" d="M20 37h1v1h-1z"/><path fill="#EC6D56" d="M21 37h1v1h-1z"/><path fill="#EE7B60" d="M22 37h1v1h-1z"/><path fill="#367B35" d="M23 37h1v1h-1z"/><path fill="#1B762B" d="M24 37h1v1h-1zM25 37h1v1h-1z"/><path fill="#0C9139" d="M26 37h1v1h-1z"/><path fill="#0A9C41" d="M27 37h1v1h-1z"/><path fill="#1BAD54" d="M28 37h1v1h-1zM29 37h1v1h-1zM30 37h1v1h-1z"/><path fill="#51BB72" d="M31 37h1v1h-1z"/><path fill="#97CE98" d="M32 37h1v1h-1zM33 37h1v1h-1zM34 37h1v1h-1zM35 37h1v1h-1zM36 37h1v1h-1zM37 37h1v1h-1zM38 37h1v1h-1z"/><path fill="#78C687" d="M39 37h1v1h-1z"/><path fill="#1BAD54" d="M40 37h1v1h-1zM41 37h1v1h-1zM42 37h1v1h-1zM43 37h1v1h-1zM44 37h1v1h-1zM45 37h1v1h-1zM46 37h1v1h-1zM47 37h1v1h-1zM48 37h1v1h-1zM49 37h1v1h-1zM50 37h1v1h-1zM51 37h1v1h-1zM52 37h1v1h-1zM53 37h1v1h-1zM54 37h1v1h-1zM55 37h1v1h-1z"/><path fill="#079A3E" d="M56 37h1v1h-1z"/><path fill="#118835" d="M57 37h1v1h-1z"/><path fill="#1B762B" d="M58 37h1v1h-1zM59 37h1v1h-1z"/><path fill="#B86F4B" d="M60 37h1v1h-1z"/><path fill="#EB6B54" d="M61 37h1v1h-1z"/><path fill="#DC5537" d="M62 37h1v1h-1z"/><path fill="#DB5335" d="M63 37h1v1h-1zM64 37h1v1h-1zM65 37h1v1h-1z"/><path fill="#D43C2C" d="M66 37h1v1h-1z"/><path fill="#C9151E" d="M67 37h1v1h-1zM68 37h1v1h-1zM69 37h1v1h-1zM70 37h1v1h-1z"/><path fill="#2D1816" d="M71 37h1v1h-1z"/><path fill="#231815" d="M72 37h1v1h-1zM73 37h1v1h-1zM4 38h1v1H4zM5 38h1v1H5zM6 38h1v1H6zM7 38h1v1H7zM8 38h1v1H8z"/><path fill="#301D19" d="M9 38h1v1H9z"/><path fill="#AD5242" d="M10 38h1v1h-1z"/><path fill="#EC6D56" d="M11 38h1v1h-1z"/><path fill="#E35748" d="M12 38h1v1h-1z"/><path fill="#C9151E" d="M13 38h1v1h-1zM14 38h1v1h-1zM15 38h1v1h-1z"/><path fill="#D02C27" d="M16 38h1v1h-1z"/><path fill="#DB5335" d="M17 38h1v1h-1zM18 38h1v1h-1z"/><path fill="#E15D41" d="M19 38h1v1h-1z"/><path fill="#EC6D56" d="M20 38h1v1h-1zM21 38h1v1h-1z"/><path fill="#EF8467" d="M22 38h1v1h-1z"/><path fill="#79864C" d="M23 38h1v1h-1z"/><path fill="#1B762B" d="M24 38h1v1h-1zM25 38h1v1h-1z"/><path fill="#148432" d="M26 38h1v1h-1z"/><path fill="#079A3E" d="M27 38h1v1h-1z"/><path fill="#16A84F" d="M28 38h1v1h-1z"/><path fill="#1BAD54" d="M29 38h1v1h-1zM30 38h1v1h-1z"/><path fill="#23AF58" d="M31 38h1v1h-1z"/><path fill="#8FCC94" d="M32 38h1v1h-1z"/><path fill="#97CE98" d="M33 38h1v1h-1zM34 38h1v1h-1zM35 38h1v1h-1zM36 38h1v1h-1zM37 38h1v1h-1zM38 38h1v1h-1z"/><path fill="#4AB96E" d="M39 38h1v1h-1z"/><path fill="#1BAD54" d="M40 38h1v1h-1zM41 38h1v1h-1zM42 38h1v1h-1zM43 38h1v1h-1zM44 38h1v1h-1zM45 38h1v1h-1zM46 38h1v1h-1zM47 38h1v1h-1zM48 38h1v1h-1zM49 38h1v1h-1zM50 38h1v1h-1zM51 38h1v1h-1zM52 38h1v1h-1zM53 38h1v1h-1zM54 38h1v1h-1zM55 38h1v1h-1z"/><path fill="#079A3E" d="M56 38h1v1h-1z"/><path fill="#108A36" d="M57 38h1v1h-1z"/><path fill="#1B762B" d="M58 38h1v1h-1zM59 38h1v1h-1z"/><path fill="#917143" d="M60 38h1v1h-1z"/><path fill="#EC6D56" d="M61 38h1v1h-1z"/><path fill="#E6634A" d="M62 38h1v1h-1z"/><path fill="#DB5335" d="M63 38h1v1h-1zM64 38h1v1h-1zM65 38h1v1h-1zM66 38h1v1h-1z"/><path fill="#CE2524" d="M67 38h1v1h-1z"/><path fill="#C9151E" d="M68 38h1v1h-1zM69 38h1v1h-1z"/><path fill="#AA161C" d="M70 38h1v1h-1z"/><path fill="#231815" d="M71 38h1v1h-1zM72 38h1v1h-1zM73 38h1v1h-1zM3 39h1v1H3zM4 39h1v1H4zM5 39h1v1H5zM6 39h1v1H6zM7 39h1v1H7z"/><path fill="#552D25" d="M8 39h1v1H8z"/><path fill="#DF6852" d="M9 39h1v1H9z"/><path fill="#EC6D56" d="M10 39h1v1h-1zM11 39h1v1h-1z"/><path fill="#DB413A" d="M12 39h1v1h-1z"/><path fill="#C9151E" d="M13 39h1v1h-1zM14 39h1v1h-1zM15 39h1v1h-1z"/><path fill="#D7442F" d="M16 39h1v1h-1z"/><path fill="#DB5335" d="M17 39h1v1h-1zM18 39h1v1h-1z"/><path fill="#E7654C" d="M19 39h1v1h-1z"/><path fill="#EC6D56" d="M20 39h1v1h-1zM21 39h1v1h-1z"/><path fill="#EF8467" d="M22 39h1v1h-1z"/><path fill="#D7966E" d="M23 39h1v1h-1z"/><path fill="#1B762B" d="M24 39h1v1h-1zM25 39h1v1h-1zM26 39h1v1h-1z"/><path fill="#0A963C" d="M27 39h1v1h-1z"/><path fill="#0C9F44" d="M28 39h1v1h-1z"/><path fill="#1BAD54" d="M29 39h1v1h-1zM30 39h1v1h-1zM31 39h1v1h-1z"/><path fill="#4AB96E" d="M32 39h1v1h-1z"/><path fill="#97CE98" d="M33 39h1v1h-1zM34 39h1v1h-1zM35 39h1v1h-1zM36 39h1v1h-1zM37 39h1v1h-1z"/><path fill="#78C687" d="M38 39h1v1h-1z"/><path fill="#1BAD54" d="M39 39h1v1h-1zM40 39h1v1h-1zM41 39h1v1h-1zM42 39h1v1h-1zM43 39h1v1h-1zM44 39h1v1h-1zM45 39h1v1h-1zM46 39h1v1h-1zM47 39h1v1h-1zM48 39h1v1h-1zM49 39h1v1h-1zM50 39h1v1h-1zM51 39h1v1h-1zM52 39h1v1h-1zM53 39h1v1h-1zM54 39h1v1h-1zM55 39h1v1h-1z"/><path fill="#079A3E" d="M56 39h1v1h-1z"/><path fill="#0C9139" d="M57 39h1v1h-1z"/><path fill="#1B762B" d="M58 39h1v1h-1zM59 39h1v1h-1z"/><path fill="#847241" d="M60 39h1v1h-1z"/><path fill="#EC6D56" d="M61 39h1v1h-1zM62 39h1v1h-1z"/><path fill="#DD5639" d="M63 39h1v1h-1z"/><path fill="#DB5335" d="M64 39h1v1h-1zM65 39h1v1h-1zM66 39h1v1h-1z"/><path fill="#D7442F" d="M67 39h1v1h-1z"/><path fill="#C9151E" d="M68 39h1v1h-1zM69 39h1v1h-1z"/><path fill="#8B161B" d="M70 39h1v1h-1z"/><path fill="#231815" d="M71 39h1v1h-1zM72 39h1v1h-1zM73 39h1v1h-1zM2 40h1v1H2zM3 40h1v1H3zM4 40h1v1H4zM5 40h1v1H5zM6 40h1v1H6z"/><path fill="#94483A" d="M7 40h1v1H7z"/><path fill="#EC6D56" d="M8 40h1v1H8zM9 40h1v1H9zM10 40h1v1h-1zM11 40h1v1h-1z"/><path fill="#D22B2C" d="M12 40h1v1h-1z"/><path fill="#C9151E" d="M13 40h1v1h-1zM14 40h1v1h-1z"/><path fill="#CB1D21" d="M15 40h1v1h-1z"/><path fill="#DB5335" d="M16 40h1v1h-1zM17 40h1v1h-1zM18 40h1v1h-1z"/><path fill="#EB6B54" d="M19 40h1v1h-1z"/><path fill="#EC6D56" d="M20 40h1v1h-1zM21 40h1v1h-1z"/><path fill="#EF8467" d="M22 40h1v1h-1z"/><path fill="#F29B77" d="M23 40h1v1h-1z"/><path fill="#517F3E" d="M24 40h1v1h-1z"/><path fill="#1B762B" d="M25 40h1v1h-1zM26 40h1v1h-1z"/><path fill="#148432" d="M27 40h1v1h-1z"/><path fill="#079A3E" d="M28 40h1v1h-1z"/><path fill="#16A84F" d="M29 40h1v1h-1z"/><path fill="#1BAD54" d="M30 40h1v1h-1zM31 40h1v1h-1zM32 40h1v1h-1z"/><path fill="#42B769" d="M33 40h1v1h-1z"/><path fill="#88CA90" d="M34 40h1v1h-1z"/><path fill="#97CE98" d="M35 40h1v1h-1zM36 40h1v1h-1z"/><path fill="#69C27F" d="M37 40h1v1h-1z"/><path fill="#23AF58" d="M38 40h1v1h-1z"/><path fill="#1BAD54" d="M39 40h1v1h-1zM40 40h1v1h-1zM41 40h1v1h-1zM42 40h1v1h-1zM43 40h1v1h-1zM44 40h1v1h-1zM45 40h1v1h-1zM46 40h1v1h-1zM47 40h1v1h-1zM48 40h1v1h-1zM49 40h1v1h-1zM50 40h1v1h-1zM51 40h1v1h-1zM52 40h1v1h-1zM53 40h1v1h-1zM54 40h1v1h-1zM55 40h1v1h-1z"/><path fill="#079A3E" d="M56 40h1v1h-1z"/><path fill="#118835" d="M57 40h1v1h-1z"/><path fill="#1B762B" d="M58 40h1v1h-1zM59 40h1v1h-1z"/><path fill="#847241" d="M60 40h1v1h-1z"/><path fill="#EC6D56" d="M61 40h1v1h-1zM62 40h1v1h-1z"/><path fill="#E6634A" d="M63 40h1v1h-1z"/><path fill="#DB5335" d="M64 40h1v1h-1zM65 40h1v1h-1zM66 40h1v1h-1zM67 40h1v1h-1z"/><path fill="#CB1D21" d="M68 40h1v1h-1z"/><path fill="#C9151E" d="M69 40h1v1h-1z"/><path fill="#611718" d="M70 40h1v1h-1z"/><path fill="#231815" d="M71 40h1v1h-1zM72 40h1v1h-1zM73 40h1v1h-1zM1 41h1v1H1zM2 41h1v1H2zM3 41h1v1H3zM4 41h1v1H4z"/><path fill="#3C231D" d="M5 41h1v1H5z"/><path fill="#C65D4A" d="M6 41h1v1H6z"/><path fill="#EC6D56" d="M7 41h1v1H7zM8 41h1v1H8zM9 41h1v1H9zM10 41h1v1h-1zM11 41h1v1h-1z"/><path fill="#CD2025" d="M12 41h1v1h-1z"/><path fill="#C9151E" d="M13 41h1v1h-1zM14 41h1v1h-1z"/><path fill="#D02C27" d="M15 41h1v1h-1z"/><path fill="#DB5335" d="M16 41h1v1h-1zM17 41h1v1h-1z"/><path fill="#DE583B" d="M18 41h1v1h-1z"/><path fill="#EC6D56" d="M19 41h1v1h-1zM20 41h1v1h-1zM21 41h1v1h-1z"/><path fill="#EF8467" d="M22 41h1v1h-1z"/><path fill="#F29B77" d="M23 41h1v1h-1z"/><path fill="#BC9264" d="M24 41h1v1h-1z"/><path fill="#1B762B" d="M25 41h1v1h-1zM26 41h1v1h-1zM27 41h1v1h-1z"/><path fill="#0A963C" d="M28 41h1v1h-1z"/><path fill="#0B9E42" d="M29 41h1v1h-1z"/><path fill="#1BAD54" d="M30 41h1v1h-1zM31 41h1v1h-1zM32 41h1v1h-1zM33 41h1v1h-1zM34 41h1v1h-1zM35 41h1v1h-1zM36 41h1v1h-1zM37 41h1v1h-1zM38 41h1v1h-1zM39 41h1v1h-1zM40 41h1v1h-1zM41 41h1v1h-1zM42 41h1v1h-1zM43 41h1v1h-1zM44 41h1v1h-1zM45 41h1v1h-1zM46 41h1v1h-1zM47 41h1v1h-1zM48 41h1v1h-1zM49 41h1v1h-1zM50 41h1v1h-1zM51 41h1v1h-1zM52 41h1v1h-1zM53 41h1v1h-1zM54 41h1v1h-1z"/><path fill="#16A84F" d="M55 41h1v1h-1z"/><path fill="#079A3E" d="M56 41h1v1h-1z"/><path fill="#118835" d="M57 41h1v1h-1z"/><path fill="#1B762B" d="M58 41h1v1h-1zM59 41h1v1h-1z"/><path fill="#927F4E" d="M60 41h1v1h-1z"/><path fill="#EC6D56" d="M61 41h1v1h-1zM62 41h1v1h-1zM63 41h1v1h-1z"/><path fill="#DD5639" d="M64 41h1v1h-1z"/><path fill="#DB5335" d="M65 41h1v1h-1zM66 41h1v1h-1zM67 41h1v1h-1z"/><path fill="#D43C2C" d="M68 41h1v1h-1z"/><path fill="#C9151E" d="M69 41h1v1h-1z"/><path fill="#381816" d="M70 41h1v1h-1z"/><path fill="#231815" d="M71 41h1v1h-1zM72 41h1v1h-1zM0 42h1v1H0zM1 42h1v1H1zM2 42h1v1H2zM3 42h1v1H3z"/><path fill="#492821" d="M4 42h1v1H4z"/><path fill="#DF6852" d="M5 42h1v1H5z"/><path fill="#EC6D56" d="M6 42h1v1H6zM7 42h1v1H7zM8 42h1v1H8zM9 42h1v1H9zM10 42h1v1h-1zM11 42h1v1h-1z"/><path fill="#C9151E" d="M12 42h1v1h-1zM13 42h1v1h-1zM14 42h1v1h-1z"/><path fill="#D5402E" d="M15 42h1v1h-1z"/><path fill="#DB5335" d="M16 42h1v1h-1zM17 42h1v1h-1z"/><path fill="#DF5A3D" d="M18 42h1v1h-1z"/><path fill="#EC6D56" d="M19 42h1v1h-1zM20 42h1v1h-1zM21 42h1v1h-1z"/><path fill="#EF8467" d="M22 42h1v1h-1z"/><path fill="#F29B77" d="M23 42h1v1h-1zM24 42h1v1h-1z"/><path fill="#517F3E" d="M25 42h1v1h-1z"/><path fill="#1B762B" d="M26 42h1v1h-1zM27 42h1v1h-1z"/><path fill="#158131" d="M28 42h1v1h-1z"/><path fill="#079A3E" d="M29 42h1v1h-1z"/><path fill="#12A54A" d="M30 42h1v1h-1z"/><path fill="#1BAD54" d="M31 42h1v1h-1zM32 42h1v1h-1zM33 42h1v1h-1zM34 42h1v1h-1zM35 42h1v1h-1zM36 42h1v1h-1zM37 42h1v1h-1zM38 42h1v1h-1zM39 42h1v1h-1zM40 42h1v1h-1zM41 42h1v1h-1zM42 42h1v1h-1zM43 42h1v1h-1zM44 42h1v1h-1zM45 42h1v1h-1zM46 42h1v1h-1zM47 42h1v1h-1zM48 42h1v1h-1zM49 42h1v1h-1zM50 42h1v1h-1zM51 42h1v1h-1zM52 42h1v1h-1zM53 42h1v1h-1zM54 42h1v1h-1z"/><path fill="#12A54A" d="M55 42h1v1h-1z"/><path fill="#079A3E" d="M56 42h1v1h-1z"/><path fill="#158131" d="M57 42h1v1h-1z"/><path fill="#1B762B" d="M58 42h1v1h-1zM59 42h1v1h-1z"/><path fill="#BC9264" d="M60 42h1v1h-1z"/><path fill="#ED735A" d="M61 42h1v1h-1z"/><path fill="#EC6D56" d="M62 42h1v1h-1zM63 42h1v1h-1z"/><path fill="#E25E43" d="M64 42h1v1h-1z"/><path fill="#DB5335" d="M65 42h1v1h-1zM66 42h1v1h-1zM67 42h1v1h-1z"/><path fill="#DA4F34" d="M68 42h1v1h-1z"/><path fill="#B4151D" d="M69 42h1v1h-1z"/><path fill="#231815" d="M70 42h1v1h-1zM71 42h1v1h-1zM72 42h1v1h-1zM0 43h1v1H0zM1 43h1v1H1zM2 43h1v1H2z"/><path fill="#6A3125" d="M3 43h1v1H3z"/><path fill="#DF6852" d="M4 43h1v1H4z"/><path fill="#EC6D56" d="M5 43h1v1H5zM6 43h1v1H6zM7 43h1v1H7zM8 43h1v1H8zM9 43h1v1H9zM10 43h1v1h-1z"/><path fill="#E15843" d="M11 43h1v1h-1z"/><path fill="#C9151E" d="M12 43h1v1h-1zM13 43h1v1h-1zM14 43h1v1h-1z"/><path fill="#D94B32" d="M15 43h1v1h-1z"/><path fill="#DB5335" d="M16 43h1v1h-1zM17 43h1v1h-1z"/><path fill="#E25E43" d="M18 43h1v1h-1z"/><path fill="#EC6D56" d="M19 43h1v1h-1zM20 43h1v1h-1zM21 43h1v1h-1z"/><path fill="#EE7E62" d="M22 43h1v1h-1z"/><path fill="#F29B77" d="M23 43h1v1h-1zM24 43h1v1h-1z"/><path fill="#BC9264" d="M25 43h1v1h-1z"/><path fill="#1B762B" d="M26 43h1v1h-1zM27 43h1v1h-1zM28 43h1v1h-1z"/><path fill="#0D8F38" d="M29 43h1v1h-1z"/><path fill="#089B3F" d="M30 43h1v1h-1z"/><path fill="#17A950" d="M31 43h1v1h-1z"/><path fill="#1BAD54" d="M32 43h1v1h-1zM33 43h1v1h-1zM34 43h1v1h-1zM35 43h1v1h-1zM36 43h1v1h-1zM37 43h1v1h-1zM38 43h1v1h-1zM39 43h1v1h-1zM40 43h1v1h-1zM41 43h1v1h-1zM42 43h1v1h-1zM43 43h1v1h-1zM44 43h1v1h-1zM45 43h1v1h-1zM46 43h1v1h-1zM47 43h1v1h-1zM48 43h1v1h-1zM49 43h1v1h-1zM50 43h1v1h-1zM51 43h1v1h-1zM52 43h1v1h-1zM53 43h1v1h-1zM54 43h1v1h-1z"/><path fill="#0DA045" d="M55 43h1v1h-1z"/><path fill="#079A3E" d="M56 43h1v1h-1z"/><path fill="#1A782C" d="M57 43h1v1h-1z"/><path fill="#1B762B" d="M58 43h1v1h-1zM59 43h1v1h-1z"/><path fill="#E59972" d="M60 43h1v1h-1z"/><path fill="#EF8769" d="M61 43h1v1h-1z"/><path fill="#EC6D56" d="M62 43h1v1h-1zM63 43h1v1h-1z"/><path fill="#E96850" d="M64 43h1v1h-1z"/><path fill="#DB5335" d="M65 43h1v1h-1zM66 43h1v1h-1zM67 43h1v1h-1zM68 43h1v1h-1z"/><path fill="#9A2521" d="M69 43h1v1h-1z"/><path fill="#231815" d="M70 43h1v1h-1zM71 43h1v1h-1zM72 43h1v1h-1zM0 44h1v1H0zM1 44h1v1H1z"/><path fill="#2F1C17" d="M2 44h1v1H2z"/><path fill="#D04F33" d="M3 44h1v1H3z"/><path fill="#DF5A3D" d="M4 44h1v1H4z"/><path fill="#E7654C" d="M5 44h1v1H5z"/><path fill="#EB6B54" d="M6 44h1v1H6z"/><path fill="#EC6D56" d="M7 44h1v1H7z"/><path fill="#E96850" d="M8 44h1v1H8z"/><path fill="#E56248" d="M9 44h1v1H9z"/><path fill="#DD5639" d="M10 44h1v1h-1z"/><path fill="#D7442F" d="M11 44h1v1h-1z"/><path fill="#C9151E" d="M12 44h1v1h-1zM13 44h1v1h-1z"/><path fill="#CA191F" d="M14 44h1v1h-1z"/><path fill="#DB5335" d="M15 44h1v1h-1zM16 44h1v1h-1zM17 44h1v1h-1z"/><path fill="#E46046" d="M18 44h1v1h-1z"/><path fill="#EC6D56" d="M19 44h1v1h-1zM20 44h1v1h-1zM21 44h1v1h-1z"/><path fill="#ED765C" d="M22 44h1v1h-1z"/><path fill="#F29B77" d="M23 44h1v1h-1zM24 44h1v1h-1zM25 44h1v1h-1z"/><path fill="#6C8448" d="M26 44h1v1h-1z"/><path fill="#1B762B" d="M27 44h1v1h-1zM28 44h1v1h-1z"/><path fill="#1A782C" d="M29 44h1v1h-1z"/><path fill="#08983D" d="M30 44h1v1h-1z"/><path fill="#0B9E42" d="M31 44h1v1h-1z"/><path fill="#1AAC53" d="M32 44h1v1h-1z"/><path fill="#1BAD54" d="M33 44h1v1h-1zM34 44h1v1h-1zM35 44h1v1h-1zM36 44h1v1h-1zM37 44h1v1h-1zM38 44h1v1h-1zM39 44h1v1h-1zM40 44h1v1h-1zM41 44h1v1h-1zM42 44h1v1h-1zM43 44h1v1h-1zM44 44h1v1h-1zM45 44h1v1h-1zM46 44h1v1h-1zM47 44h1v1h-1zM48 44h1v1h-1zM49 44h1v1h-1zM50 44h1v1h-1zM51 44h1v1h-1zM52 44h1v1h-1zM53 44h1v1h-1z"/><path fill="#1AAC53" d="M54 44h1v1h-1z"/><path fill="#079A3E" d="M55 44h1v1h-1z"/><path fill="#0B933A" d="M56 44h1v1h-1z"/><path fill="#1B762B" d="M57 44h1v1h-1zM58 44h1v1h-1z"/><path fill="#367B35" d="M59 44h1v1h-1z"/><path fill="#F29B77" d="M60 44h1v1h-1z"/><path fill="#F19271" d="M61 44h1v1h-1z"/><path fill="#EC6D56" d="M62 44h1v1h-1zM63 44h1v1h-1zM64 44h1v1h-1z"/><path fill="#DC5537" d="M65 44h1v1h-1z"/><path fill="#DB5335" d="M66 44h1v1h-1zM67 44h1v1h-1zM68 44h1v1h-1z"/><path fill="#7F3625" d="M69 44h1v1h-1z"/><path fill="#231815" d="M70 44h1v1h-1zM71 44h1v1h-1zM72 44h1v1h-1zM0 45h1v1H0zM1 45h1v1H1zM2 45h1v1H2z"/><path fill="#8B3927" d="M3 45h1v1H3z"/><path fill="#DB5335" d="M4 45h1v1H4zM5 45h1v1H5zM6 45h1v1H6zM7 45h1v1H7zM8 45h1v1H8zM9 45h1v1H9zM10 45h1v1h-1z"/><path fill="#D7442F" d="M11 45h1v1h-1z"/><path fill="#C9151E" d="M12 45h1v1h-1zM13 45h1v1h-1z"/><path fill="#CE2524" d="M14 45h1v1h-1z"/><path fill="#DB5335" d="M15 45h1v1h-1zM16 45h1v1h-1zM17 45h1v1h-1z"/><path fill="#E46046" d="M18 45h1v1h-1z"/><path fill="#EC6D56" d="M19 45h1v1h-1zM20 45h1v1h-1zM21 45h1v1h-1zM22 45h1v1h-1z"/><path fill="#F29875" d="M23 45h1v1h-1z"/><path fill="#F29B77" d="M24 45h1v1h-1zM25 45h1v1h-1z"/><path fill="#E59972" d="M26 45h1v1h-1z"/><path fill="#287830" d="M27 45h1v1h-1z"/><path fill="#1B762B" d="M28 45h1v1h-1zM29 45h1v1h-1z"/><path fill="#177D2F" d="M30 45h1v1h-1z"/><path fill="#079A3E" d="M31 45h1v1h-1z"/><path fill="#0C9F44" d="M32 45h1v1h-1z"/><path fill="#1BAD54" d="M33 45h1v1h-1zM34 45h1v1h-1zM35 45h1v1h-1zM36 45h1v1h-1zM37 45h1v1h-1zM38 45h1v1h-1zM39 45h1v1h-1zM40 45h1v1h-1zM41 45h1v1h-1zM42 45h1v1h-1zM43 45h1v1h-1zM44 45h1v1h-1zM45 45h1v1h-1zM46 45h1v1h-1zM47 45h1v1h-1zM48 45h1v1h-1zM49 45h1v1h-1zM50 45h1v1h-1zM51 45h1v1h-1zM52 45h1v1h-1zM53 45h1v1h-1z"/><path fill="#11A449" d="M54 45h1v1h-1z"/><path fill="#079A3E" d="M55 45h1v1h-1z"/><path fill="#128633" d="M56 45h1v1h-1z"/><path fill="#1B762B" d="M57 45h1v1h-1zM58 45h1v1h-1z"/><path fill="#79864C" d="M59 45h1v1h-1z"/><path fill="#F29B77" d="M60 45h1v1h-1zM61 45h1v1h-1z"/><path fill="#EC6D56" d="M62 45h1v1h-1zM63 45h1v1h-1zM64 45h1v1h-1z"/><path fill="#DF5A3D" d="M65 45h1v1h-1z"/><path fill="#DB5335" d="M66 45h1v1h-1zM67 45h1v1h-1zM68 45h1v1h-1z"/><path fill="#C2442E" d="M69 45h1v1h-1z"/><path fill="#231815" d="M70 45h1v1h-1zM71 45h1v1h-1zM72 45h1v1h-1zM73 45h1v1h-1zM0 46h1v1H0zM1 46h1v1H1zM2 46h1v1H2zM3 46h1v1H3z"/><path fill="#963D29" d="M4 46h1v1H4z"/><path fill="#DB5335" d="M5 46h1v1H5zM6 46h1v1H6zM7 46h1v1H7zM8 46h1v1H8zM9 46h1v1H9zM10 46h1v1h-1z"/><path fill="#D7442F" d="M11 46h1v1h-1z"/><path fill="#C9151E" d="M12 46h1v1h-1zM13 46h1v1h-1z"/><path fill="#D02C27" d="M14 46h1v1h-1z"/><path fill="#DB5335" d="M15 46h1v1h-1zM16 46h1v1h-1zM17 46h1v1h-1z"/><path fill="#E25E43" d="M18 46h1v1h-1z"/><path fill="#EC6D56" d="M19 46h1v1h-1zM20 46h1v1h-1zM21 46h1v1h-1zM22 46h1v1h-1z"/><path fill="#F08A6B" d="M23 46h1v1h-1z"/><path fill="#F29B77" d="M24 46h1v1h-1zM25 46h1v1h-1zM26 46h1v1h-1z"/><path fill="#BC9264" d="M27 46h1v1h-1z"/><path fill="#1B762B" d="M28 46h1v1h-1zM29 46h1v1h-1zM30 46h1v1h-1z"/><path fill="#148432" d="M31 46h1v1h-1z"/><path fill="#079A3E" d="M32 46h1v1h-1z"/><path fill="#0FA146" d="M33 46h1v1h-1z"/><path fill="#1BAD54" d="M34 46h1v1h-1zM35 46h1v1h-1zM36 46h1v1h-1zM37 46h1v1h-1zM38 46h1v1h-1zM39 46h1v1h-1zM40 46h1v1h-1zM41 46h1v1h-1zM42 46h1v1h-1zM43 46h1v1h-1zM44 46h1v1h-1zM45 46h1v1h-1zM46 46h1v1h-1zM47 46h1v1h-1zM48 46h1v1h-1zM49 46h1v1h-1zM50 46h1v1h-1zM51 46h1v1h-1zM52 46h1v1h-1z"/><path fill="#1AAC53" d="M53 46h1v1h-1z"/><path fill="#089B3F" d="M54 46h1v1h-1z"/><path fill="#079A3E" d="M55 46h1v1h-1z"/><path fill="#1A782C" d="M56 46h1v1h-1z"/><path fill="#1B762B" d="M57 46h1v1h-1zM58 46h1v1h-1z"/><path fill="#AF8F5F" d="M59 46h1v1h-1z"/><path fill="#F29B77" d="M60 46h1v1h-1zM61 46h1v1h-1z"/><path fill="#EE795E" d="M62 46h1v1h-1z"/><path fill="#EC6D56" d="M63 46h1v1h-1zM64 46h1v1h-1z"/><path fill="#E46046" d="M65 46h1v1h-1z"/><path fill="#DB5335" d="M66 46h1v1h-1zM67 46h1v1h-1zM68 46h1v1h-1z"/><path fill="#DA4F34" d="M69 46h1v1h-1z"/><path fill="#6C1719" d="M70 46h1v1h-1z"/><path fill="#231815" d="M71 46h1v1h-1zM72 46h1v1h-1zM73 46h1v1h-1zM1 47h1v1H1zM2 47h1v1H2zM3 47h1v1H3zM4 47h1v1H4z"/><path fill="#AD442D" d="M5 47h1v1H5z"/><path fill="#DB5335" d="M6 47h1v1H6zM7 47h1v1H7zM8 47h1v1H8zM9 47h1v1H9zM10 47h1v1h-1z"/><path fill="#D7442F" d="M11 47h1v1h-1z"/><path fill="#C9151E" d="M12 47h1v1h-1zM13 47h1v1h-1z"/><path fill="#D2342A" d="M14 47h1v1h-1z"/><path fill="#DB5335" d="M15 47h1v1h-1zM16 47h1v1h-1zM17 47h1v1h-1z"/><path fill="#DF5A3D" d="M18 47h1v1h-1z"/><path fill="#EC6D56" d="M19 47h1v1h-1zM20 47h1v1h-1zM21 47h1v1h-1zM22 47h1v1h-1z"/><path fill="#EE795E" d="M23 47h1v1h-1z"/><path fill="#F29B77" d="M24 47h1v1h-1zM25 47h1v1h-1zM26 47h1v1h-1zM27 47h1v1h-1z"/><path fill="#878951" d="M28 47h1v1h-1z"/><path fill="#1B762B" d="M29 47h1v1h-1zM30 47h1v1h-1zM31 47h1v1h-1z"/><path fill="#148432" d="M32 47h1v1h-1z"/><path fill="#079A3E" d="M33 47h1v1h-1z"/><path fill="#0C9F44" d="M34 47h1v1h-1z"/><path fill="#1AAC53" d="M35 47h1v1h-1z"/><path fill="#1BAD54" d="M36 47h1v1h-1zM37 47h1v1h-1zM38 47h1v1h-1zM39 47h1v1h-1zM40 47h1v1h-1zM41 47h1v1h-1zM42 47h1v1h-1zM43 47h1v1h-1zM44 47h1v1h-1zM45 47h1v1h-1zM46 47h1v1h-1zM47 47h1v1h-1zM48 47h1v1h-1zM49 47h1v1h-1zM50 47h1v1h-1zM51 47h1v1h-1zM52 47h1v1h-1z"/><path fill="#0DA045" d="M53 47h1v1h-1z"/><path fill="#079A3E" d="M54 47h1v1h-1z"/><path fill="#108A36" d="M55 47h1v1h-1z"/><path fill="#1B762B" d="M56 47h1v1h-1zM57 47h1v1h-1z"/><path fill="#367B35" d="M58 47h1v1h-1z"/><path fill="#F29B77" d="M59 47h1v1h-1zM60 47h1v1h-1zM61 47h1v1h-1z"/><path fill="#EE795E" d="M62 47h1v1h-1z"/><path fill="#EC6D56" d="M63 47h1v1h-1zM64 47h1v1h-1z"/><path fill="#E46046" d="M65 47h1v1h-1z"/><path fill="#DB5335" d="M66 47h1v1h-1zM67 47h1v1h-1zM68 47h1v1h-1zM69 47h1v1h-1z"/><path fill="#BF151D" d="M70 47h1v1h-1z"/><path fill="#2D1816" d="M71 47h1v1h-1z"/><path fill="#231815" d="M72 47h1v1h-1zM73 47h1v1h-1zM74 47h1v1h-1zM2 48h1v1H2zM3 48h1v1H3zM4 48h1v1H4z"/><path fill="#2F1C17" d="M5 48h1v1H5z"/><path fill="#B9482F" d="M6 48h1v1H6z"/><path fill="#DB5335" d="M7 48h1v1H7zM8 48h1v1H8zM9 48h1v1H9zM10 48h1v1h-1z"/><path fill="#D7442F" d="M11 48h1v1h-1z"/><path fill="#C9151E" d="M12 48h1v1h-1zM13 48h1v1h-1z"/><path fill="#D2342A" d="M14 48h1v1h-1z"/><path fill="#DB5335" d="M15 48h1v1h-1zM16 48h1v1h-1zM17 48h1v1h-1z"/><path fill="#DE583B" d="M18 48h1v1h-1z"/><path fill="#EC6D56" d="M19 48h1v1h-1zM20 48h1v1h-1zM21 48h1v1h-1zM22 48h1v1h-1zM23 48h1v1h-1z"/><path fill="#F1906F" d="M24 48h1v1h-1z"/><path fill="#F29B77" d="M25 48h1v1h-1zM26 48h1v1h-1zM27 48h1v1h-1zM28 48h1v1h-1z"/><path fill="#6C8448" d="M29 48h1v1h-1z"/><path fill="#1B762B" d="M30 48h1v1h-1zM31 48h1v1h-1zM32 48h1v1h-1z"/><path fill="#148432" d="M33 48h1v1h-1z"/><path fill="#079A3E" d="M34 48h1v1h-1z"/><path fill="#0B9E42" d="M35 48h1v1h-1z"/><path fill="#17A950" d="M36 48h1v1h-1z"/><path fill="#1BAD54" d="M37 48h1v1h-1zM38 48h1v1h-1zM39 48h1v1h-1zM40 48h1v1h-1zM41 48h1v1h-1zM42 48h1v1h-1zM43 48h1v1h-1zM44 48h1v1h-1zM45 48h1v1h-1zM46 48h1v1h-1zM47 48h1v1h-1zM48 48h1v1h-1zM49 48h1v1h-1zM50 48h1v1h-1zM51 48h1v1h-1z"/><path fill="#12A54A" d="M52 48h1v1h-1z"/><path fill="#079A3E" d="M53 48h1v1h-1z"/><path fill="#08983D" d="M54 48h1v1h-1z"/><path fill="#1A782C" d="M55 48h1v1h-1z"/><path fill="#1B762B" d="M56 48h1v1h-1zM57 48h1v1h-1z"/><path fill="#948B56" d="M58 48h1v1h-1z"/><path fill="#F29B77" d="M59 48h1v1h-1zM60 48h1v1h-1zM61 48h1v1h-1z"/><path fill="#EF8467" d="M62 48h1v1h-1z"/><path fill="#EC6D56" d="M63 48h1v1h-1zM64 48h1v1h-1z"/><path fill="#E8674E" d="M65 48h1v1h-1z"/><path fill="#DB5335" d="M66 48h1v1h-1zM67 48h1v1h-1zM68 48h1v1h-1zM69 48h1v1h-1z"/><path fill="#CA191F" d="M70 48h1v1h-1z"/><path fill="#76171A" d="M71 48h1v1h-1z"/><path fill="#231815" d="M72 48h1v1h-1zM73 48h1v1h-1zM74 48h1v1h-1zM2 49h1v1H2zM3 49h1v1H3zM4 49h1v1H4zM5 49h1v1H5z"/><path fill="#2F1C17" d="M6 49h1v1H6z"/><path fill="#963D29" d="M7 49h1v1H7z"/><path fill="#DB5335" d="M8 49h1v1H8zM9 49h1v1H9zM10 49h1v1h-1z"/><path fill="#D7442F" d="M11 49h1v1h-1z"/><path fill="#C9151E" d="M12 49h1v1h-1zM13 49h1v1h-1z"/><path fill="#D2342A" d="M14 49h1v1h-1z"/><path fill="#DB5335" d="M15 49h1v1h-1zM16 49h1v1h-1zM17 49h1v1h-1zM18 49h1v1h-1z"/><path fill="#EC6D56" d="M19 49h1v1h-1zM20 49h1v1h-1zM21 49h1v1h-1zM22 49h1v1h-1zM23 49h1v1h-1z"/><path fill="#EE795E" d="M24 49h1v1h-1z"/><path fill="#F29B77" d="M25 49h1v1h-1zM26 49h1v1h-1zM27 49h1v1h-1zM28 49h1v1h-1zM29 49h1v1h-1z"/><path fill="#6C8448" d="M30 49h1v1h-1z"/><path fill="#1B762B" d="M31 49h1v1h-1zM32 49h1v1h-1zM33 49h1v1h-1z"/><path fill="#148432" d="M34 49h1v1h-1z"/><path fill="#079A3E" d="M35 49h1v1h-1z"/><path fill="#089B3F" d="M36 49h1v1h-1z"/><path fill="#11A449" d="M37 49h1v1h-1z"/><path fill="#1BAD54" d="M38 49h1v1h-1zM39 49h1v1h-1zM40 49h1v1h-1zM41 49h1v1h-1zM42 49h1v1h-1zM43 49h1v1h-1zM44 49h1v1h-1zM45 49h1v1h-1zM46 49h1v1h-1zM47 49h1v1h-1zM48 49h1v1h-1zM49 49h1v1h-1zM50 49h1v1h-1z"/><path fill="#11A449" d="M51 49h1v1h-1z"/><path fill="#079A3E" d="M52 49h1v1h-1zM53 49h1v1h-1z"/><path fill="#158131" d="M54 49h1v1h-1z"/><path fill="#1B762B" d="M55 49h1v1h-1zM56 49h1v1h-1z"/><path fill="#367B35" d="M57 49h1v1h-1z"/><path fill="#E59972" d="M58 49h1v1h-1z"/><path fill="#F29B77" d="M59 49h1v1h-1zM60 49h1v1h-1zM61 49h1v1h-1z"/><path fill="#EF8467" d="M62 49h1v1h-1z"/><path fill="#EC6D56" d="M63 49h1v1h-1zM64 49h1v1h-1z"/><path fill="#E8674E" d="M65 49h1v1h-1z"/><path fill="#DB5335" d="M66 49h1v1h-1zM67 49h1v1h-1zM68 49h1v1h-1zM69 49h1v1h-1z"/><path fill="#CE2524" d="M70 49h1v1h-1z"/><path fill="#C9151E" d="M71 49h1v1h-1z"/><path fill="#381816" d="M72 49h1v1h-1z"/><path fill="#231815" d="M73 49h1v1h-1zM74 49h1v1h-1zM75 49h1v1h-1zM3 50h1v1H3zM4 50h1v1H4zM5 50h1v1H5zM6 50h1v1H6zM7 50h1v1H7z"/><path fill="#963D29" d="M8 50h1v1H8z"/><path fill="#DB5335" d="M9 50h1v1H9zM10 50h1v1h-1z"/><path fill="#D7442F" d="M11 50h1v1h-1z"/><path fill="#C9151E" d="M12 50h1v1h-1zM13 50h1v1h-1z"/><path fill="#D2342A" d="M14 50h1v1h-1z"/><path fill="#DB5335" d="M15 50h1v1h-1zM16 50h1v1h-1zM17 50h1v1h-1zM18 50h1v1h-1z"/><path fill="#E8674E" d="M19 50h1v1h-1z"/><path fill="#EC6D56" d="M20 50h1v1h-1zM21 50h1v1h-1zM22 50h1v1h-1zM23 50h1v1h-1zM24 50h1v1h-1z"/><path fill="#F1906F" d="M25 50h1v1h-1z"/><path fill="#F29B77" d="M26 50h1v1h-1zM27 50h1v1h-1zM28 50h1v1h-1zM29 50h1v1h-1zM30 50h1v1h-1z"/><path fill="#6C8448" d="M31 50h1v1h-1z"/><path fill="#1B762B" d="M32 50h1v1h-1zM33 50h1v1h-1zM34 50h1v1h-1z"/><path fill="#177D2F" d="M35 50h1v1h-1z"/><path fill="#0A963C" d="M36 50h1v1h-1z"/><path fill="#079A3E" d="M37 50h1v1h-1z"/><path fill="#0A9C41" d="M38 50h1v1h-1z"/><path fill="#14A64C" d="M39 50h1v1h-1z"/><path fill="#1AAC53" d="M40 50h1v1h-1z"/><path fill="#1BAD54" d="M41 50h1v1h-1zM42 50h1v1h-1zM43 50h1v1h-1zM44 50h1v1h-1zM45 50h1v1h-1zM46 50h1v1h-1zM47 50h1v1h-1zM48 50h1v1h-1z"/><path fill="#16A84F" d="M49 50h1v1h-1z"/><path fill="#0C9F44" d="M50 50h1v1h-1z"/><path fill="#079A3E" d="M51 50h1v1h-1zM52 50h1v1h-1z"/><path fill="#148432" d="M53 50h1v1h-1z"/><path fill="#1B762B" d="M54 50h1v1h-1zM55 50h1v1h-1zM56 50h1v1h-1z"/><path fill="#AF8F5F" d="M57 50h1v1h-1z"/><path fill="#F29B77" d="M58 50h1v1h-1zM59 50h1v1h-1zM60 50h1v1h-1zM61 50h1v1h-1z"/><path fill="#EE7E62" d="M62 50h1v1h-1z"/><path fill="#EC6D56" d="M63 50h1v1h-1zM64 50h1v1h-1z"/><path fill="#E8674E" d="M65 50h1v1h-1z"/><path fill="#DB5335" d="M66 50h1v1h-1zM67 50h1v1h-1zM68 50h1v1h-1zM69 50h1v1h-1z"/><path fill="#CA191F" d="M70 50h1v1h-1z"/><path fill="#C9151E" d="M71 50h1v1h-1z"/><path fill="#95161B" d="M72 50h1v1h-1z"/><path fill="#231815" d="M73 50h1v1h-1zM74 50h1v1h-1zM75 50h1v1h-1zM4 51h1v1H4zM5 51h1v1H5zM6 51h1v1H6zM7 51h1v1H7zM8 51h1v1H8z"/><path fill="#963D29" d="M9 51h1v1H9z"/><path fill="#DB5335" d="M10 51h1v1h-1z"/><path fill="#D7442F" d="M11 51h1v1h-1z"/><path fill="#C9151E" d="M12 51h1v1h-1zM13 51h1v1h-1z"/><path fill="#D13028" d="M14 51h1v1h-1z"/><path fill="#DB5335" d="M15 51h1v1h-1zM16 51h1v1h-1zM17 51h1v1h-1zM18 51h1v1h-1z"/><path fill="#E25E43" d="M19 51h1v1h-1z"/><path fill="#EC6D56" d="M20 51h1v1h-1zM21 51h1v1h-1zM22 51h1v1h-1zM23 51h1v1h-1zM24 51h1v1h-1z"/><path fill="#ED735A" d="M25 51h1v1h-1z"/><path fill="#F29875" d="M26 51h1v1h-1z"/><path fill="#F29B77" d="M27 51h1v1h-1zM28 51h1v1h-1zM29 51h1v1h-1zM30 51h1v1h-1zM31 51h1v1h-1z"/><path fill="#79864C" d="M32 51h1v1h-1z"/><path fill="#1B762B" d="M33 51h1v1h-1zM34 51h1v1h-1zM35 51h1v1h-1z"/><path fill="#1A782C" d="M36 51h1v1h-1z"/><path fill="#108A36" d="M37 51h1v1h-1z"/><path fill="#079A3E" d="M38 51h1v1h-1zM39 51h1v1h-1z"/><path fill="#089B3F" d="M40 51h1v1h-1z"/><path fill="#0DA045" d="M41 51h1v1h-1z"/><path fill="#12A54A" d="M42 51h1v1h-1z"/><path fill="#16A84F" d="M43 51h1v1h-1zM44 51h1v1h-1zM45 51h1v1h-1z"/><path fill="#15A74D" d="M46 51h1v1h-1z"/><path fill="#11A449" d="M47 51h1v1h-1z"/><path fill="#0B9E42" d="M48 51h1v1h-1z"/><path fill="#079A3E" d="M49 51h1v1h-1zM50 51h1v1h-1zM51 51h1v1h-1z"/><path fill="#148432" d="M52 51h1v1h-1z"/><path fill="#1B762B" d="M53 51h1v1h-1zM54 51h1v1h-1zM55 51h1v1h-1z"/><path fill="#6C8448" d="M56 51h1v1h-1z"/><path fill="#F29B77" d="M57 51h1v1h-1zM58 51h1v1h-1zM59 51h1v1h-1zM60 51h1v1h-1zM61 51h1v1h-1z"/><path fill="#EE795E" d="M62 51h1v1h-1z"/><path fill="#EC6D56" d="M63 51h1v1h-1zM64 51h1v1h-1z"/><path fill="#E6634A" d="M65 51h1v1h-1z"/><path fill="#DB5335" d="M66 51h1v1h-1zM67 51h1v1h-1zM68 51h1v1h-1zM69 51h1v1h-1z"/><path fill="#C9151E" d="M70 51h1v1h-1zM71 51h1v1h-1zM72 51h1v1h-1z"/><path fill="#4D1717" d="M73 51h1v1h-1z"/><path fill="#231815" d="M74 51h1v1h-1zM75 51h1v1h-1zM76 51h1v1h-1zM6 52h1v1H6zM7 52h1v1H7zM8 52h1v1H8zM9 52h1v1H9z"/><path fill="#7F3625" d="M10 52h1v1h-1z"/><path fill="#D7442F" d="M11 52h1v1h-1z"/><path fill="#C9151E" d="M12 52h1v1h-1zM13 52h1v1h-1z"/><path fill="#CE2524" d="M14 52h1v1h-1z"/><path fill="#DB5335" d="M15 52h1v1h-1zM16 52h1v1h-1zM17 52h1v1h-1zM18 52h1v1h-1z"/><path fill="#DD5639" d="M19 52h1v1h-1z"/><path fill="#EC6D56" d="M20 52h1v1h-1zM21 52h1v1h-1zM22 52h1v1h-1zM23 52h1v1h-1zM24 52h1v1h-1zM25 52h1v1h-1z"/><path fill="#EE7E62" d="M26 52h1v1h-1z"/><path fill="#F29B77" d="M27 52h1v1h-1zM28 52h1v1h-1zM29 52h1v1h-1zM30 52h1v1h-1zM31 52h1v1h-1zM32 52h1v1h-1z"/><path fill="#A18D5B" d="M33 52h1v1h-1z"/><path fill="#287830" d="M34 52h1v1h-1z"/><path fill="#1B762B" d="M35 52h1v1h-1zM36 52h1v1h-1zM37 52h1v1h-1z"/><path fill="#197B2D" d="M38 52h1v1h-1z"/><path fill="#0F8D37" d="M39 52h1v1h-1z"/><path fill="#079A3E" d="M40 52h1v1h-1zM41 52h1v1h-1zM42 52h1v1h-1zM43 52h1v1h-1zM44 52h1v1h-1zM45 52h1v1h-1zM46 52h1v1h-1zM47 52h1v1h-1zM48 52h1v1h-1zM49 52h1v1h-1z"/><path fill="#0A963C" d="M50 52h1v1h-1z"/><path fill="#167F30" d="M51 52h1v1h-1z"/><path fill="#1B762B" d="M52 52h1v1h-1zM53 52h1v1h-1zM54 52h1v1h-1z"/><path fill="#437D39" d="M55 52h1v1h-1z"/><path fill="#F29B77" d="M56 52h1v1h-1zM57 52h1v1h-1zM58 52h1v1h-1zM59 52h1v1h-1zM60 52h1v1h-1zM61 52h1v1h-1z"/><path fill="#EC7058" d="M62 52h1v1h-1z"/><path fill="#EC6D56" d="M63 52h1v1h-1zM64 52h1v1h-1z"/><path fill="#E46046" d="M65 52h1v1h-1z"/><path fill="#DB5335" d="M66 52h1v1h-1zM67 52h1v1h-1zM68 52h1v1h-1zM69 52h1v1h-1z"/><path fill="#C9151E" d="M70 52h1v1h-1zM71 52h1v1h-1zM72 52h1v1h-1z"/><path fill="#A0161C" d="M73 52h1v1h-1z"/><path fill="#231815" d="M74 52h1v1h-1zM75 52h1v1h-1zM76 52h1v1h-1zM77 52h1v1h-1zM7 53h1v1H7zM8 53h1v1H8zM9 53h1v1H9zM10 53h1v1h-1z"/><path fill="#65231D" d="M11 53h1v1h-1z"/><path fill="#C9151E" d="M12 53h1v1h-1zM13 53h1v1h-1z"/><path fill="#CB1D21" d="M14 53h1v1h-1z"/><path fill="#DB5335" d="M15 53h1v1h-1zM16 53h1v1h-1zM17 53h1v1h-1zM18 53h1v1h-1zM19 53h1v1h-1z"/><path fill="#E7654C" d="M20 53h1v1h-1z"/><path fill="#EC6D56" d="M21 53h1v1h-1zM22 53h1v1h-1zM23 53h1v1h-1zM24 53h1v1h-1zM25 53h1v1h-1zM26 53h1v1h-1z"/><path fill="#F08A6B" d="M27 53h1v1h-1z"/><path fill="#F29B77" d="M28 53h1v1h-1zM29 53h1v1h-1zM30 53h1v1h-1zM31 53h1v1h-1zM32 53h1v1h-1zM33 53h1v1h-1z"/><path fill="#D7966E" d="M34 53h1v1h-1z"/><path fill="#517F3E" d="M35 53h1v1h-1z"/><path fill="#1B762B" d="M36 53h1v1h-1zM37 53h1v1h-1zM38 53h1v1h-1zM39 53h1v1h-1z"/><path fill="#1A782C" d="M40 53h1v1h-1z"/><path fill="#128633" d="M41 53h1v1h-1z"/><path fill="#0D8F38" d="M42 53h1v1h-1z"/><path fill="#08983D" d="M43 53h1v1h-1z"/><path fill="#079A3E" d="M44 53h1v1h-1zM45 53h1v1h-1zM46 53h1v1h-1z"/><path fill="#08983D" d="M47 53h1v1h-1z"/><path fill="#0D8F38" d="M48 53h1v1h-1z"/><path fill="#148432" d="M49 53h1v1h-1z"/><path fill="#1B762B" d="M50 53h1v1h-1zM51 53h1v1h-1zM52 53h1v1h-1zM53 53h1v1h-1z"/><path fill="#5E8243" d="M54 53h1v1h-1z"/><path fill="#E59972" d="M55 53h1v1h-1z"/><path fill="#F29B77" d="M56 53h1v1h-1zM57 53h1v1h-1zM58 53h1v1h-1zM59 53h1v1h-1zM60 53h1v1h-1z"/><path fill="#F19271" d="M61 53h1v1h-1z"/><path fill="#EC6D56" d="M62 53h1v1h-1zM63 53h1v1h-1zM64 53h1v1h-1z"/><path fill="#E05B3F" d="M65 53h1v1h-1z"/><path fill="#DB5335" d="M66 53h1v1h-1zM67 53h1v1h-1zM68 53h1v1h-1z"/><path fill="#D94B32" d="M69 53h1v1h-1z"/><path fill="#C9151E" d="M70 53h1v1h-1zM71 53h1v1h-1zM72 53h1v1h-1zM73 53h1v1h-1z"/><path fill="#571718" d="M74 53h1v1h-1z"/><path fill="#231815" d="M75 53h1v1h-1zM76 53h1v1h-1zM77 53h1v1h-1zM8 54h1v1H8zM9 54h1v1H9zM10 54h1v1h-1zM11 54h1v1h-1z"/><path fill="#4D1717" d="M12 54h1v1h-1z"/><path fill="#BF151D" d="M13 54h1v1h-1z"/><path fill="#C9151E" d="M14 54h1v1h-1z"/><path fill="#DA4F34" d="M15 54h1v1h-1z"/><path fill="#DB5335" d="M16 54h1v1h-1zM17 54h1v1h-1zM18 54h1v1h-1zM19 54h1v1h-1z"/><path fill="#DF5A3D" d="M20 54h1v1h-1z"/><path fill="#EC6D56" d="M21 54h1v1h-1zM22 54h1v1h-1zM23 54h1v1h-1zM24 54h1v1h-1zM25 54h1v1h-1zM26 54h1v1h-1zM27 54h1v1h-1z"/><path fill="#F08A6B" d="M28 54h1v1h-1z"/><path fill="#F29B77" d="M29 54h1v1h-1zM30 54h1v1h-1zM31 54h1v1h-1zM32 54h1v1h-1zM33 54h1v1h-1zM34 54h1v1h-1zM35 54h1v1h-1z"/><path fill="#BC9264" d="M36 54h1v1h-1z"/><path fill="#517F3E" d="M37 54h1v1h-1z"/><path fill="#1B762B" d="M38 54h1v1h-1zM39 54h1v1h-1zM40 54h1v1h-1zM41 54h1v1h-1zM42 54h1v1h-1zM43 54h1v1h-1zM44 54h1v1h-1z"/><path fill="#1A782C" d="M45 54h1v1h-1z"/><path fill="#1B762B" d="M46 54h1v1h-1zM47 54h1v1h-1zM48 54h1v1h-1zM49 54h1v1h-1zM50 54h1v1h-1zM51 54h1v1h-1zM52 54h1v1h-1z"/><path fill="#878951" d="M53 54h1v1h-1z"/><path fill="#F29B77" d="M54 54h1v1h-1zM55 54h1v1h-1zM56 54h1v1h-1zM57 54h1v1h-1zM58 54h1v1h-1zM59 54h1v1h-1zM60 54h1v1h-1z"/><path fill="#EF8164" d="M61 54h1v1h-1z"/><path fill="#EC6D56" d="M62 54h1v1h-1zM63 54h1v1h-1zM64 54h1v1h-1z"/><path fill="#DD5639" d="M65 54h1v1h-1z"/><path fill="#DB5335" d="M66 54h1v1h-1zM67 54h1v1h-1zM68 54h1v1h-1z"/><path fill="#D7442F" d="M69 54h1v1h-1z"/><path fill="#C9151E" d="M70 54h1v1h-1zM71 54h1v1h-1zM72 54h1v1h-1zM73 54h1v1h-1z"/><path fill="#C03C2B" d="M74 54h1v1h-1z"/><path fill="#231815" d="M75 54h1v1h-1zM76 54h1v1h-1zM77 54h1v1h-1zM78 54h1v1h-1zM9 55h1v1H9zM10 55h1v1h-1zM11 55h1v1h-1zM12 55h1v1h-1z"/><path fill="#421717" d="M13 55h1v1h-1z"/><path fill="#B4151D" d="M14 55h1v1h-1z"/><path fill="#D5402E" d="M15 55h1v1h-1z"/><path fill="#DB5335" d="M16 55h1v1h-1zM17 55h1v1h-1zM18 55h1v1h-1zM19 55h1v1h-1zM20 55h1v1h-1z"/><path fill="#E8674E" d="M21 55h1v1h-1z"/><path fill="#EC6D56" d="M22 55h1v1h-1zM23 55h1v1h-1zM24 55h1v1h-1zM25 55h1v1h-1zM26 55h1v1h-1zM27 55h1v1h-1zM28 55h1v1h-1z"/><path fill="#F08A6B" d="M29 55h1v1h-1z"/><path fill="#F29B77" d="M30 55h1v1h-1zM31 55h1v1h-1zM32 55h1v1h-1zM33 55h1v1h-1zM34 55h1v1h-1zM35 55h1v1h-1zM36 55h1v1h-1zM37 55h1v1h-1z"/><path fill="#BC9264" d="M38 55h1v1h-1z"/><path fill="#6C8448" d="M39 55h1v1h-1z"/><path fill="#287830" d="M40 55h1v1h-1z"/><path fill="#1B762B" d="M41 55h1v1h-1zM42 55h1v1h-1zM43 55h1v1h-1zM44 55h1v1h-1zM45 55h1v1h-1zM46 55h1v1h-1zM47 55h1v1h-1zM48 55h1v1h-1zM49 55h1v1h-1z"/><path fill="#287830" d="M50 55h1v1h-1z"/><path fill="#6C8448" d="M51 55h1v1h-1z"/><path fill="#D7966E" d="M52 55h1v1h-1z"/><path fill="#F29B77" d="M53 55h1v1h-1zM54 55h1v1h-1zM55 55h1v1h-1zM56 55h1v1h-1zM57 55h1v1h-1zM58 55h1v1h-1zM59 55h1v1h-1z"/><path fill="#F29875" d="M60 55h1v1h-1z"/><path fill="#EC7058" d="M61 55h1v1h-1z"/><path fill="#EC6D56" d="M62 55h1v1h-1zM63 55h1v1h-1z"/><path fill="#EA6A52" d="M64 55h1v1h-1z"/><path fill="#DB5335" d="M65 55h1v1h-1zM66 55h1v1h-1zM67 55h1v1h-1zM68 55h1v1h-1z"/><path fill="#D2342A" d="M69 55h1v1h-1z"/><path fill="#C9151E" d="M70 55h1v1h-1zM71 55h1v1h-1zM72 55h1v1h-1z"/><path fill="#CE2524" d="M73 55h1v1h-1z"/><path fill="#DB5335" d="M74 55h1v1h-1z"/><path fill="#743223" d="M75 55h1v1h-1z"/><path fill="#231815" d="M76 55h1v1h-1zM77 55h1v1h-1zM78 55h1v1h-1zM10 56h1v1h-1zM11 56h1v1h-1zM12 56h1v1h-1zM13 56h1v1h-1z"/><path fill="#2D1816" d="M14 56h1v1h-1z"/><path fill="#B12D25" d="M15 56h1v1h-1z"/><path fill="#DB5335" d="M16 56h1v1h-1zM17 56h1v1h-1zM18 56h1v1h-1zM19 56h1v1h-1zM20 56h1v1h-1z"/><path fill="#DF5A3D" d="M21 56h1v1h-1z"/><path fill="#EC6D56" d="M22 56h1v1h-1zM23 56h1v1h-1zM24 56h1v1h-1zM25 56h1v1h-1zM26 56h1v1h-1zM27 56h1v1h-1zM28 56h1v1h-1zM29 56h1v1h-1z"/><path fill="#F08A6B" d="M30 56h1v1h-1z"/><path fill="#F29B77" d="M31 56h1v1h-1zM32 56h1v1h-1zM33 56h1v1h-1zM34 56h1v1h-1zM35 56h1v1h-1zM36 56h1v1h-1zM37 56h1v1h-1zM38 56h1v1h-1zM39 56h1v1h-1zM40 56h1v1h-1z"/><path fill="#BC9264" d="M41 56h1v1h-1z"/><path fill="#948B56" d="M42 56h1v1h-1z"/><path fill="#79864C" d="M43 56h1v1h-1z"/><path fill="#517F3E" d="M44 56h1v1h-1zM45 56h1v1h-1zM46 56h1v1h-1z"/><path fill="#5E8243" d="M47 56h1v1h-1z"/><path fill="#878951" d="M48 56h1v1h-1z"/><path fill="#AF8F5F" d="M49 56h1v1h-1z"/><path fill="#F29B77" d="M50 56h1v1h-1zM51 56h1v1h-1zM52 56h1v1h-1zM53 56h1v1h-1zM54 56h1v1h-1zM55 56h1v1h-1zM56 56h1v1h-1zM57 56h1v1h-1zM58 56h1v1h-1zM59 56h1v1h-1z"/><path fill="#EF8467" d="M60 56h1v1h-1z"/><path fill="#EC6D56" d="M61 56h1v1h-1zM62 56h1v1h-1zM63 56h1v1h-1z"/><path fill="#E56248" d="M64 56h1v1h-1z"/><path fill="#DB5335" d="M65 56h1v1h-1zM66 56h1v1h-1zM67 56h1v1h-1zM68 56h1v1h-1z"/><path fill="#CF2825" d="M69 56h1v1h-1z"/><path fill="#C9151E" d="M70 56h1v1h-1zM71 56h1v1h-1zM72 56h1v1h-1z"/><path fill="#D43C2C" d="M73 56h1v1h-1z"/><path fill="#DB5335" d="M74 56h1v1h-1z"/><path fill="#D04F33" d="M75 56h1v1h-1z"/><path fill="#2F1C17" d="M76 56h1v1h-1z"/><path fill="#231815" d="M77 56h1v1h-1zM78 56h1v1h-1zM79 56h1v1h-1zM11 57h1v1h-1zM12 57h1v1h-1zM13 57h1v1h-1zM14 57h1v1h-1z"/><path fill="#2F1C17" d="M15 57h1v1h-1z"/><path fill="#DB5335" d="M16 57h1v1h-1zM17 57h1v1h-1zM18 57h1v1h-1zM19 57h1v1h-1zM20 57h1v1h-1zM21 57h1v1h-1z"/><path fill="#E56248" d="M22 57h1v1h-1z"/><path fill="#EC6D56" d="M23 57h1v1h-1zM24 57h1v1h-1zM25 57h1v1h-1zM26 57h1v1h-1zM27 57h1v1h-1zM28 57h1v1h-1zM29 57h1v1h-1zM30 57h1v1h-1z"/><path fill="#EE7E62" d="M31 57h1v1h-1z"/><path fill="#F29875" d="M32 57h1v1h-1z"/><path fill="#F29B77" d="M33 57h1v1h-1zM34 57h1v1h-1zM35 57h1v1h-1zM36 57h1v1h-1zM37 57h1v1h-1zM38 57h1v1h-1zM39 57h1v1h-1zM40 57h1v1h-1zM41 57h1v1h-1zM42 57h1v1h-1zM43 57h1v1h-1zM44 57h1v1h-1zM45 57h1v1h-1zM46 57h1v1h-1zM47 57h1v1h-1zM48 57h1v1h-1zM49 57h1v1h-1zM50 57h1v1h-1zM51 57h1v1h-1zM52 57h1v1h-1zM53 57h1v1h-1zM54 57h1v1h-1zM55 57h1v1h-1zM56 57h1v1h-1zM57 57h1v1h-1zM58 57h1v1h-1z"/><path fill="#F19271" d="M59 57h1v1h-1z"/><path fill="#EC6D56" d="M60 57h1v1h-1zM61 57h1v1h-1zM62 57h1v1h-1zM63 57h1v1h-1z"/><path fill="#DD5639" d="M64 57h1v1h-1z"/><path fill="#DB5335" d="M65 57h1v1h-1zM66 57h1v1h-1zM67 57h1v1h-1zM68 57h1v1h-1z"/><path fill="#C9151E" d="M69 57h1v1h-1zM70 57h1v1h-1zM71 57h1v1h-1z"/><path fill="#CB1D21" d="M72 57h1v1h-1z"/><path fill="#DB5335" d="M73 57h1v1h-1zM74 57h1v1h-1zM75 57h1v1h-1z"/><path fill="#7F3625" d="M76 57h1v1h-1z"/><path fill="#231815" d="M77 57h1v1h-1zM78 57h1v1h-1zM79 57h1v1h-1zM12 58h1v1h-1zM13 58h1v1h-1zM14 58h1v1h-1zM15 58h1v1h-1z"/><path fill="#D5402E" d="M16 58h1v1h-1z"/><path fill="#DB5335" d="M17 58h1v1h-1zM18 58h1v1h-1zM19 58h1v1h-1zM20 58h1v1h-1zM21 58h1v1h-1z"/><path fill="#DC5537" d="M22 58h1v1h-1z"/><path fill="#EA6A52" d="M23 58h1v1h-1z"/><path fill="#EC6D56" d="M24 58h1v1h-1zM25 58h1v1h-1zM26 58h1v1h-1zM27 58h1v1h-1zM28 58h1v1h-1zM29 58h1v1h-1zM30 58h1v1h-1zM31 58h1v1h-1z"/><path fill="#ED735A" d="M32 58h1v1h-1z"/><path fill="#F1906F" d="M33 58h1v1h-1z"/><path fill="#F29B77" d="M34 58h1v1h-1zM35 58h1v1h-1zM36 58h1v1h-1zM37 58h1v1h-1zM38 58h1v1h-1zM39 58h1v1h-1zM40 58h1v1h-1zM41 58h1v1h-1zM42 58h1v1h-1zM43 58h1v1h-1zM44 58h1v1h-1zM45 58h1v1h-1zM46 58h1v1h-1zM47 58h1v1h-1zM48 58h1v1h-1zM49 58h1v1h-1zM50 58h1v1h-1zM51 58h1v1h-1zM52 58h1v1h-1zM53 58h1v1h-1zM54 58h1v1h-1zM55 58h1v1h-1zM56 58h1v1h-1zM57 58h1v1h-1z"/><path fill="#F19271" d="M58 58h1v1h-1z"/><path fill="#EC7058" d="M59 58h1v1h-1z"/><path fill="#EC6D56" d="M60 58h1v1h-1zM61 58h1v1h-1zM62 58h1v1h-1z"/><path fill="#E6634A" d="M63 58h1v1h-1z"/><path fill="#DB5335" d="M64 58h1v1h-1zM65 58h1v1h-1zM66 58h1v1h-1zM67 58h1v1h-1z"/><path fill="#D5402E" d="M68 58h1v1h-1z"/><path fill="#C9151E" d="M69 58h1v1h-1zM70 58h1v1h-1zM71 58h1v1h-1z"/><path fill="#D2342A" d="M72 58h1v1h-1z"/><path fill="#DB5335" d="M73 58h1v1h-1zM74 58h1v1h-1zM75 58h1v1h-1z"/><path fill="#D04F33" d="M76 58h1v1h-1z"/><path fill="#2F1C17" d="M77 58h1v1h-1z"/><path fill="#231815" d="M78 58h1v1h-1zM79 58h1v1h-1zM80 58h1v1h-1zM13 59h1v1h-1zM14 59h1v1h-1z"/><path fill="#421717" d="M15 59h1v1h-1z"/><path fill="#CE2524" d="M16 59h1v1h-1z"/><path fill="#DB5335" d="M17 59h1v1h-1zM18 59h1v1h-1zM19 59h1v1h-1zM20 59h1v1h-1zM21 59h1v1h-1zM22 59h1v1h-1z"/><path fill="#DE583B" d="M23 59h1v1h-1z"/><path fill="#EC6D56" d="M24 59h1v1h-1zM25 59h1v1h-1zM26 59h1v1h-1zM27 59h1v1h-1zM28 59h1v1h-1zM29 59h1v1h-1zM30 59h1v1h-1zM31 59h1v1h-1zM32 59h1v1h-1zM33 59h1v1h-1z"/><path fill="#EE795E" d="M34 59h1v1h-1z"/><path fill="#F1906F" d="M35 59h1v1h-1z"/><path fill="#F29B77" d="M36 59h1v1h-1zM37 59h1v1h-1zM38 59h1v1h-1zM39 59h1v1h-1zM40 59h1v1h-1zM41 59h1v1h-1zM42 59h1v1h-1zM43 59h1v1h-1zM44 59h1v1h-1zM45 59h1v1h-1zM46 59h1v1h-1zM47 59h1v1h-1zM48 59h1v1h-1zM49 59h1v1h-1zM50 59h1v1h-1zM51 59h1v1h-1zM52 59h1v1h-1zM53 59h1v1h-1zM54 59h1v1h-1zM55 59h1v1h-1zM56 59h1v1h-1z"/><path fill="#F08D6D" d="M57 59h1v1h-1z"/><path fill="#EC7058" d="M58 59h1v1h-1z"/><path fill="#EC6D56" d="M59 59h1v1h-1zM60 59h1v1h-1zM61 59h1v1h-1zM62 59h1v1h-1z"/><path fill="#DD5639" d="M63 59h1v1h-1z"/><path fill="#DB5335" d="M64 59h1v1h-1zM65 59h1v1h-1zM66 59h1v1h-1zM67 59h1v1h-1z"/><path fill="#D02C27" d="M68 59h1v1h-1z"/><path fill="#C9151E" d="M69 59h1v1h-1zM70 59h1v1h-1zM71 59h1v1h-1z"/><path fill="#D94B32" d="M72 59h1v1h-1z"/><path fill="#DB5335" d="M73 59h1v1h-1zM74 59h1v1h-1zM75 59h1v1h-1zM76 59h1v1h-1z"/><path fill="#7F3625" d="M77 59h1v1h-1z"/><path fill="#231815" d="M78 59h1v1h-1zM79 59h1v1h-1zM80 59h1v1h-1zM12 60h1v1h-1zM13 60h1v1h-1zM14 60h1v1h-1z"/><path fill="#611718" d="M15 60h1v1h-1z"/><path fill="#C9151E" d="M16 60h1v1h-1z"/><path fill="#D7442F" d="M17 60h1v1h-1z"/><path fill="#DB5335" d="M18 60h1v1h-1zM19 60h1v1h-1zM20 60h1v1h-1zM21 60h1v1h-1zM22 60h1v1h-1zM23 60h1v1h-1z"/><path fill="#E15D41" d="M24 60h1v1h-1z"/><path fill="#EC6D56" d="M25 60h1v1h-1zM26 60h1v1h-1zM27 60h1v1h-1zM28 60h1v1h-1zM29 60h1v1h-1zM30 60h1v1h-1zM31 60h1v1h-1zM32 60h1v1h-1zM33 60h1v1h-1zM34 60h1v1h-1zM35 60h1v1h-1z"/><path fill="#EE795E" d="M36 60h1v1h-1z"/><path fill="#F08D6D" d="M37 60h1v1h-1z"/><path fill="#F29B77" d="M38 60h1v1h-1zM39 60h1v1h-1zM40 60h1v1h-1zM41 60h1v1h-1zM42 60h1v1h-1zM43 60h1v1h-1zM44 60h1v1h-1zM45 60h1v1h-1zM46 60h1v1h-1zM47 60h1v1h-1zM48 60h1v1h-1zM49 60h1v1h-1zM50 60h1v1h-1zM51 60h1v1h-1zM52 60h1v1h-1zM53 60h1v1h-1zM54 60h1v1h-1z"/><path fill="#F19573" d="M55 60h1v1h-1z"/><path fill="#EE7B60" d="M56 60h1v1h-1z"/><path fill="#EC6D56" d="M57 60h1v1h-1zM58 60h1v1h-1zM59 60h1v1h-1zM60 60h1v1h-1zM61 60h1v1h-1z"/><path fill="#E46046" d="M62 60h1v1h-1z"/><path fill="#DB5335" d="M63 60h1v1h-1zM64 60h1v1h-1zM65 60h1v1h-1zM66 60h1v1h-1z"/><path fill="#D94B32" d="M67 60h1v1h-1z"/><path fill="#C9151E" d="M68 60h1v1h-1zM69 60h1v1h-1zM70 60h1v1h-1z"/><path fill="#CE2524" d="M71 60h1v1h-1z"/><path fill="#DB5335" d="M72 60h1v1h-1zM73 60h1v1h-1zM74 60h1v1h-1zM75 60h1v1h-1zM76 60h1v1h-1z"/><path fill="#D04F33" d="M77 60h1v1h-1z"/><path fill="#2F1C17" d="M78 60h1v1h-1z"/><path fill="#231815" d="M79 60h1v1h-1zM80 60h1v1h-1zM81 60h1v1h-1zM12 61h1v1h-1zM13 61h1v1h-1zM14 61h1v1h-1z"/><path fill="#76171A" d="M15 61h1v1h-1z"/><path fill="#C9151E" d="M16 61h1v1h-1z"/><path fill="#CE2524" d="M17 61h1v1h-1z"/><path fill="#DB5335" d="M18 61h1v1h-1zM19 61h1v1h-1zM20 61h1v1h-1zM21 61h1v1h-1zM22 61h1v1h-1zM23 61h1v1h-1zM24 61h1v1h-1z"/><path fill="#E15D41" d="M25 61h1v1h-1z"/><path fill="#EC6D56" d="M26 61h1v1h-1zM27 61h1v1h-1zM28 61h1v1h-1zM29 61h1v1h-1zM30 61h1v1h-1zM31 61h1v1h-1zM32 61h1v1h-1zM33 61h1v1h-1zM34 61h1v1h-1zM35 61h1v1h-1zM36 61h1v1h-1zM37 61h1v1h-1z"/><path fill="#EC7058" d="M38 61h1v1h-1z"/><path fill="#EE7E62" d="M39 61h1v1h-1z"/><path fill="#F08A6B" d="M40 61h1v1h-1z"/><path fill="#F19573" d="M41 61h1v1h-1z"/><path fill="#F29B77" d="M42 61h1v1h-1zM43 61h1v1h-1zM44 61h1v1h-1zM45 61h1v1h-1zM46 61h1v1h-1zM47 61h1v1h-1zM48 61h1v1h-1zM49 61h1v1h-1zM50 61h1v1h-1zM51 61h1v1h-1z"/><path fill="#F19573" d="M52 61h1v1h-1z"/><path fill="#F08A6B" d="M53 61h1v1h-1z"/><path fill="#EE795E" d="M54 61h1v1h-1z"/><path fill="#EC6D56" d="M55 61h1v1h-1zM56 61h1v1h-1zM57 61h1v1h-1zM58 61h1v1h-1zM59 61h1v1h-1zM60 61h1v1h-1z"/><path fill="#E96850" d="M61 61h1v1h-1z"/><path fill="#DB5335" d="M62 61h1v1h-1zM63 61h1v1h-1zM64 61h1v1h-1zM65 61h1v1h-1zM66 61h1v1h-1z"/><path fill="#D2342A" d="M67 61h1v1h-1z"/><path fill="#C9151E" d="M68 61h1v1h-1zM69 61h1v1h-1zM70 61h1v1h-1z"/><path fill="#D43C2C" d="M71 61h1v1h-1z"/><path fill="#DB5335" d="M72 61h1v1h-1zM73 61h1v1h-1zM74 61h1v1h-1zM75 61h1v1h-1zM76 61h1v1h-1zM77 61h1v1h-1z"/><path fill="#7F3625" d="M78 61h1v1h-1z"/><path fill="#231815" d="M79 61h1v1h-1zM80 61h1v1h-1zM81 61h1v1h-1zM12 62h1v1h-1zM13 62h1v1h-1zM14 62h1v1h-1z"/><path fill="#A0161C" d="M15 62h1v1h-1z"/><path fill="#C9151E" d="M16 62h1v1h-1zM17 62h1v1h-1z"/><path fill="#D43C2C" d="M18 62h1v1h-1z"/><path fill="#DB5335" d="M19 62h1v1h-1zM20 62h1v1h-1zM21 62h1v1h-1zM22 62h1v1h-1zM23 62h1v1h-1zM24 62h1v1h-1zM25 62h1v1h-1z"/><path fill="#E15D41" d="M26 62h1v1h-1z"/><path fill="#EC6D56" d="M27 62h1v1h-1zM28 62h1v1h-1zM29 62h1v1h-1zM30 62h1v1h-1zM31 62h1v1h-1zM32 62h1v1h-1zM33 62h1v1h-1zM34 62h1v1h-1zM35 62h1v1h-1zM36 62h1v1h-1zM37 62h1v1h-1zM38 62h1v1h-1zM39 62h1v1h-1zM40 62h1v1h-1zM41 62h1v1h-1z"/><path fill="#EC7058" d="M42 62h1v1h-1z"/><path fill="#EE795E" d="M43 62h1v1h-1z"/><path fill="#EE7B60" d="M44 62h1v1h-1z"/><path fill="#EF8467" d="M45 62h1v1h-1zM46 62h1v1h-1zM47 62h1v1h-1zM48 62h1v1h-1z"/><path fill="#EE7E62" d="M49 62h1v1h-1z"/><path fill="#EE795E" d="M50 62h1v1h-1z"/><path fill="#ED735A" d="M51 62h1v1h-1z"/><path fill="#EC6D56" d="M52 62h1v1h-1zM53 62h1v1h-1zM54 62h1v1h-1zM55 62h1v1h-1zM56 62h1v1h-1zM57 62h1v1h-1zM58 62h1v1h-1zM59 62h1v1h-1z"/><path fill="#EA6A52" d="M60 62h1v1h-1z"/><path fill="#DC5537" d="M61 62h1v1h-1z"/><path fill="#DB5335" d="M62 62h1v1h-1zM63 62h1v1h-1zM64 62h1v1h-1zM65 62h1v1h-1z"/><path fill="#D94B32" d="M66 62h1v1h-1z"/><path fill="#C9151E" d="M67 62h1v1h-1zM68 62h1v1h-1zM69 62h1v1h-1zM70 62h1v1h-1z"/><path fill="#DA4F34" d="M71 62h1v1h-1z"/><path fill="#DB5335" d="M72 62h1v1h-1zM73 62h1v1h-1zM74 62h1v1h-1zM75 62h1v1h-1zM76 62h1v1h-1zM77 62h1v1h-1z"/><path fill="#D04F33" d="M78 62h1v1h-1z"/><path fill="#2F1C17" d="M79 62h1v1h-1z"/><path fill="#231815" d="M80 62h1v1h-1zM81 62h1v1h-1zM82 62h1v1h-1zM12 63h1v1h-1zM13 63h1v1h-1zM14 63h1v1h-1z"/><path fill="#B4151D" d="M15 63h1v1h-1z"/><path fill="#C9151E" d="M16 63h1v1h-1zM17 63h1v1h-1z"/><path fill="#CA191F" d="M18 63h1v1h-1z"/><path fill="#DA4F34" d="M19 63h1v1h-1z"/><path fill="#DB5335" d="M20 63h1v1h-1zM21 63h1v1h-1zM22 63h1v1h-1zM23 63h1v1h-1zM24 63h1v1h-1zM25 63h1v1h-1zM26 63h1v1h-1z"/><path fill="#E05B3F" d="M27 63h1v1h-1z"/><path fill="#EB6B54" d="M28 63h1v1h-1z"/><path fill="#EC6D56" d="M29 63h1v1h-1zM30 63h1v1h-1zM31 63h1v1h-1zM32 63h1v1h-1zM33 63h1v1h-1zM34 63h1v1h-1zM35 63h1v1h-1zM36 63h1v1h-1zM37 63h1v1h-1zM38 63h1v1h-1zM39 63h1v1h-1zM40 63h1v1h-1zM41 63h1v1h-1zM42 63h1v1h-1zM43 63h1v1h-1zM44 63h1v1h-1zM45 63h1v1h-1zM46 63h1v1h-1zM47 63h1v1h-1zM48 63h1v1h-1zM49 63h1v1h-1zM50 63h1v1h-1zM51 63h1v1h-1zM52 63h1v1h-1zM53 63h1v1h-1zM54 63h1v1h-1zM55 63h1v1h-1zM56 63h1v1h-1zM57 63h1v1h-1zM58 63h1v1h-1z"/><path fill="#EB6B54" d="M59 63h1v1h-1z"/><path fill="#DE583B" d="M60 63h1v1h-1z"/><path fill="#DB5335" d="M61 63h1v1h-1zM62 63h1v1h-1zM63 63h1v1h-1zM64 63h1v1h-1zM65 63h1v1h-1z"/><path fill="#CF2825" d="M66 63h1v1h-1z"/><path fill="#C9151E" d="M67 63h1v1h-1zM68 63h1v1h-1zM69 63h1v1h-1z"/><path fill="#CC2122" d="M70 63h1v1h-1z"/><path fill="#DB5335" d="M71 63h1v1h-1zM72 63h1v1h-1zM73 63h1v1h-1zM74 63h1v1h-1zM75 63h1v1h-1zM76 63h1v1h-1zM77 63h1v1h-1zM78 63h1v1h-1z"/><path fill="#7F3625" d="M79 63h1v1h-1z"/><path fill="#231815" d="M80 63h1v1h-1zM81 63h1v1h-1zM82 63h1v1h-1zM12 64h1v1h-1zM13 64h1v1h-1zM14 64h1v1h-1z"/><path fill="#C9151E" d="M15 64h1v1h-1zM16 64h1v1h-1zM17 64h1v1h-1zM18 64h1v1h-1z"/><path fill="#CC2122" d="M19 64h1v1h-1z"/><path fill="#DB5335" d="M20 64h1v1h-1zM21 64h1v1h-1zM22 64h1v1h-1zM23 64h1v1h-1zM24 64h1v1h-1zM25 64h1v1h-1zM26 64h1v1h-1zM27 64h1v1h-1z"/><path fill="#DE583B" d="M28 64h1v1h-1z"/><path fill="#E96850" d="M29 64h1v1h-1z"/><path fill="#EC6D56" d="M30 64h1v1h-1zM31 64h1v1h-1zM32 64h1v1h-1zM33 64h1v1h-1zM34 64h1v1h-1zM35 64h1v1h-1zM36 64h1v1h-1zM37 64h1v1h-1zM38 64h1v1h-1zM39 64h1v1h-1zM40 64h1v1h-1zM41 64h1v1h-1zM42 64h1v1h-1zM43 64h1v1h-1zM44 64h1v1h-1zM45 64h1v1h-1zM46 64h1v1h-1zM47 64h1v1h-1zM48 64h1v1h-1zM49 64h1v1h-1zM50 64h1v1h-1zM51 64h1v1h-1zM52 64h1v1h-1zM53 64h1v1h-1zM54 64h1v1h-1zM55 64h1v1h-1zM56 64h1v1h-1zM57 64h1v1h-1z"/><path fill="#E96850" d="M58 64h1v1h-1z"/><path fill="#DD5639" d="M59 64h1v1h-1z"/><path fill="#DB5335" d="M60 64h1v1h-1zM61 64h1v1h-1zM62 64h1v1h-1zM63 64h1v1h-1zM64 64h1v1h-1z"/><path fill="#D43C2C" d="M65 64h1v1h-1z"/><path fill="#C9151E" d="M66 64h1v1h-1zM67 64h1v1h-1zM68 64h1v1h-1zM69 64h1v1h-1z"/><path fill="#D3382B" d="M70 64h1v1h-1z"/><path fill="#DB5335" d="M71 64h1v1h-1zM72 64h1v1h-1zM73 64h1v1h-1zM74 64h1v1h-1zM75 64h1v1h-1zM76 64h1v1h-1zM77 64h1v1h-1zM78 64h1v1h-1z"/><path fill="#D04F33" d="M79 64h1v1h-1z"/><path fill="#231815" d="M80 64h1v1h-1zM81 64h1v1h-1zM82 64h1v1h-1zM12 65h1v1h-1zM13 65h1v1h-1z"/><path fill="#51251E" d="M14 65h1v1h-1z"/><path fill="#D53431" d="M15 65h1v1h-1z"/><path fill="#C9151E" d="M16 65h1v1h-1zM17 65h1v1h-1zM18 65h1v1h-1zM19 65h1v1h-1z"/><path fill="#D02C27" d="M20 65h1v1h-1z"/><path fill="#DB5335" d="M21 65h1v1h-1zM22 65h1v1h-1zM23 65h1v1h-1zM24 65h1v1h-1zM25 65h1v1h-1zM26 65h1v1h-1zM27 65h1v1h-1zM28 65h1v1h-1zM29 65h1v1h-1z"/><path fill="#E46046" d="M30 65h1v1h-1z"/><path fill="#EC6D56" d="M31 65h1v1h-1zM32 65h1v1h-1zM33 65h1v1h-1zM34 65h1v1h-1zM35 65h1v1h-1zM36 65h1v1h-1zM37 65h1v1h-1zM38 65h1v1h-1zM39 65h1v1h-1zM40 65h1v1h-1zM41 65h1v1h-1zM42 65h1v1h-1zM43 65h1v1h-1zM44 65h1v1h-1zM45 65h1v1h-1zM46 65h1v1h-1zM47 65h1v1h-1zM48 65h1v1h-1zM49 65h1v1h-1zM50 65h1v1h-1zM51 65h1v1h-1zM52 65h1v1h-1zM53 65h1v1h-1zM54 65h1v1h-1zM55 65h1v1h-1zM56 65h1v1h-1z"/><path fill="#E6634A" d="M57 65h1v1h-1z"/><path fill="#DC5537" d="M58 65h1v1h-1z"/><path fill="#DB5335" d="M59 65h1v1h-1zM60 65h1v1h-1zM61 65h1v1h-1zM62 65h1v1h-1zM63 65h1v1h-1z"/><path fill="#D84731" d="M64 65h1v1h-1z"/><path fill="#CA191F" d="M65 65h1v1h-1z"/><path fill="#C9151E" d="M66 65h1v1h-1zM67 65h1v1h-1zM68 65h1v1h-1zM69 65h1v1h-1z"/><path fill="#D84731" d="M70 65h1v1h-1z"/><path fill="#DB5335" d="M71 65h1v1h-1zM72 65h1v1h-1zM73 65h1v1h-1zM74 65h1v1h-1zM75 65h1v1h-1zM76 65h1v1h-1z"/><path fill="#D04F33" d="M77 65h1v1h-1z"/><path fill="#A2412B" d="M78 65h1v1h-1z"/><path fill="#682E21" d="M79 65h1v1h-1z"/><path fill="#231815" d="M80 65h1v1h-1zM81 65h1v1h-1zM82 65h1v1h-1zM11 66h1v1h-1zM12 66h1v1h-1zM13 66h1v1h-1z"/><path fill="#6E382D" d="M14 66h1v1h-1z"/><path fill="#EC6D56" d="M15 66h1v1h-1z"/><path fill="#D83C37" d="M16 66h1v1h-1z"/><path fill="#C9151E" d="M17 66h1v1h-1zM18 66h1v1h-1zM19 66h1v1h-1zM20 66h1v1h-1z"/><path fill="#D02C27" d="M21 66h1v1h-1z"/><path fill="#DB5335" d="M22 66h1v1h-1zM23 66h1v1h-1zM24 66h1v1h-1zM25 66h1v1h-1zM26 66h1v1h-1zM27 66h1v1h-1zM28 66h1v1h-1zM29 66h1v1h-1zM30 66h1v1h-1z"/><path fill="#DD5639" d="M31 66h1v1h-1z"/><path fill="#E6634A" d="M32 66h1v1h-1z"/><path fill="#EC6D56" d="M33 66h1v1h-1zM34 66h1v1h-1zM35 66h1v1h-1zM36 66h1v1h-1zM37 66h1v1h-1zM38 66h1v1h-1zM39 66h1v1h-1zM40 66h1v1h-1zM41 66h1v1h-1zM42 66h1v1h-1zM43 66h1v1h-1zM44 66h1v1h-1zM45 66h1v1h-1zM46 66h1v1h-1zM47 66h1v1h-1zM48 66h1v1h-1zM49 66h1v1h-1zM50 66h1v1h-1zM51 66h1v1h-1zM52 66h1v1h-1zM53 66h1v1h-1zM54 66h1v1h-1z"/><path fill="#EA6A52" d="M55 66h1v1h-1z"/><path fill="#E05B3F" d="M56 66h1v1h-1z"/><path fill="#DB5335" d="M57 66h1v1h-1zM58 66h1v1h-1zM59 66h1v1h-1zM60 66h1v1h-1zM61 66h1v1h-1zM62 66h1v1h-1z"/><path fill="#DA4F34" d="M63 66h1v1h-1z"/><path fill="#CB1D21" d="M64 66h1v1h-1z"/><path fill="#C9151E" d="M65 66h1v1h-1zM66 66h1v1h-1zM67 66h1v1h-1zM68 66h1v1h-1z"/><path fill="#CA191F" d="M69 66h1v1h-1z"/><path fill="#DB5335" d="M70 66h1v1h-1z"/><path fill="#C44C31" d="M71 66h1v1h-1z"/><path fill="#AD442D" d="M72 66h1v1h-1z"/><path fill="#963D29" d="M73 66h1v1h-1z"/><path fill="#7F3625" d="M74 66h1v1h-1z"/><path fill="#5D2A1F" d="M75 66h1v1h-1z"/><path fill="#3A1F19" d="M76 66h1v1h-1z"/><path fill="#231815" d="M77 66h1v1h-1zM78 66h1v1h-1zM79 66h1v1h-1zM80 66h1v1h-1zM81 66h1v1h-1zM82 66h1v1h-1zM11 67h1v1h-1zM12 67h1v1h-1zM13 67h1v1h-1z"/><path fill="#884336" d="M14 67h1v1h-1z"/><path fill="#EC6D56" d="M15 67h1v1h-1zM16 67h1v1h-1z"/><path fill="#DF4C41" d="M17 67h1v1h-1z"/><path fill="#C9151E" d="M18 67h1v1h-1zM19 67h1v1h-1zM20 67h1v1h-1zM21 67h1v1h-1z"/><path fill="#D02C27" d="M22 67h1v1h-1z"/><path fill="#DB5335" d="M23 67h1v1h-1zM24 67h1v1h-1zM25 67h1v1h-1zM26 67h1v1h-1zM27 67h1v1h-1zM28 67h1v1h-1zM29 67h1v1h-1zM30 67h1v1h-1zM31 67h1v1h-1zM32 67h1v1h-1z"/><path fill="#DD5639" d="M33 67h1v1h-1z"/><path fill="#E6634A" d="M34 67h1v1h-1z"/><path fill="#EB6B54" d="M35 67h1v1h-1z"/><path fill="#EC6D56" d="M36 67h1v1h-1zM37 67h1v1h-1zM38 67h1v1h-1zM39 67h1v1h-1zM40 67h1v1h-1zM41 67h1v1h-1zM42 67h1v1h-1zM43 67h1v1h-1zM44 67h1v1h-1zM45 67h1v1h-1zM46 67h1v1h-1zM47 67h1v1h-1zM48 67h1v1h-1zM49 67h1v1h-1zM50 67h1v1h-1zM51 67h1v1h-1zM52 67h1v1h-1z"/><path fill="#EA6A52" d="M53 67h1v1h-1z"/><path fill="#E15D41" d="M54 67h1v1h-1z"/><path fill="#DB5335" d="M55 67h1v1h-1zM56 67h1v1h-1zM57 67h1v1h-1zM58 67h1v1h-1zM59 67h1v1h-1zM60 67h1v1h-1zM61 67h1v1h-1z"/><path fill="#DA4F34" d="M62 67h1v1h-1z"/><path fill="#CC2122" d="M63 67h1v1h-1z"/><path fill="#80161A" d="M64 67h1v1h-1z"/><path fill="#76171A" d="M65 67h1v1h-1z"/><path fill="#571718" d="M66 67h1v1h-1z"/><path fill="#4D1717" d="M67 67h1v1h-1zM68 67h1v1h-1z"/><path fill="#2D1816" d="M69 67h1v1h-1z"/><path fill="#231815" d="M70 67h1v1h-1zM71 67h1v1h-1zM72 67h1v1h-1zM73 67h1v1h-1zM74 67h1v1h-1zM75 67h1v1h-1zM76 67h1v1h-1zM77 67h1v1h-1zM78 67h1v1h-1zM79 67h1v1h-1zM80 67h1v1h-1zM81 67h1v1h-1zM82 67h1v1h-1zM11 68h1v1h-1zM12 68h1v1h-1zM13 68h1v1h-1z"/><path fill="#A14D3E" d="M14 68h1v1h-1z"/><path fill="#EC6D56" d="M15 68h1v1h-1zM16 68h1v1h-1zM17 68h1v1h-1z"/><path fill="#E35748" d="M18 68h1v1h-1z"/><path fill="#CA191F" d="M19 68h1v1h-1z"/><path fill="#C9151E" d="M20 68h1v1h-1zM21 68h1v1h-1zM22 68h1v1h-1z"/><path fill="#D02C27" d="M23 68h1v1h-1z"/><path fill="#DA4F34" d="M24 68h1v1h-1z"/><path fill="#DB5335" d="M25 68h1v1h-1zM26 68h1v1h-1zM27 68h1v1h-1zM28 68h1v1h-1zM29 68h1v1h-1zM30 68h1v1h-1zM31 68h1v1h-1zM32 68h1v1h-1zM33 68h1v1h-1zM34 68h1v1h-1zM35 68h1v1h-1z"/><path fill="#E05B3F" d="M36 68h1v1h-1z"/><path fill="#E6634A" d="M37 68h1v1h-1z"/><path fill="#EA6A52" d="M38 68h1v1h-1z"/><path fill="#EC6D56" d="M39 68h1v1h-1zM40 68h1v1h-1zM41 68h1v1h-1zM42 68h1v1h-1zM43 68h1v1h-1zM44 68h1v1h-1zM45 68h1v1h-1zM46 68h1v1h-1zM47 68h1v1h-1zM48 68h1v1h-1zM49 68h1v1h-1z"/><path fill="#EA6A52" d="M50 68h1v1h-1z"/><path fill="#E56248" d="M51 68h1v1h-1z"/><path fill="#DE583B" d="M52 68h1v1h-1z"/><path fill="#DB5335" d="M53 68h1v1h-1zM54 68h1v1h-1zM55 68h1v1h-1zM56 68h1v1h-1zM57 68h1v1h-1zM58 68h1v1h-1zM59 68h1v1h-1zM60 68h1v1h-1z"/><path fill="#D84731" d="M61 68h1v1h-1z"/><path fill="#CB1D21" d="M62 68h1v1h-1z"/><path fill="#8B161B" d="M63 68h1v1h-1z"/><path fill="#231815" d="M64 68h1v1h-1zM65 68h1v1h-1zM66 68h1v1h-1zM67 68h1v1h-1zM68 68h1v1h-1zM69 68h1v1h-1zM70 68h1v1h-1zM71 68h1v1h-1zM72 68h1v1h-1zM73 68h1v1h-1zM74 68h1v1h-1zM75 68h1v1h-1zM76 68h1v1h-1zM77 68h1v1h-1zM78 68h1v1h-1zM79 68h1v1h-1zM11 69h1v1h-1zM12 69h1v1h-1zM13 69h1v1h-1z"/><path fill="#BA5846" d="M14 69h1v1h-1z"/><path fill="#EC6D56" d="M15 69h1v1h-1zM16 69h1v1h-1zM17 69h1v1h-1zM18 69h1v1h-1z"/><path fill="#DE513D" d="M19 69h1v1h-1z"/><path fill="#CB1D21" d="M20 69h1v1h-1z"/><path fill="#C9151E" d="M21 69h1v1h-1zM22 69h1v1h-1zM23 69h1v1h-1z"/><path fill="#CC2122" d="M24 69h1v1h-1z"/><path fill="#D84731" d="M25 69h1v1h-1z"/><path fill="#DB5335" d="M26 69h1v1h-1zM27 69h1v1h-1zM28 69h1v1h-1zM29 69h1v1h-1zM30 69h1v1h-1zM31 69h1v1h-1zM32 69h1v1h-1zM33 69h1v1h-1zM34 69h1v1h-1zM35 69h1v1h-1zM36 69h1v1h-1zM37 69h1v1h-1zM38 69h1v1h-1z"/><path fill="#DD5639" d="M39 69h1v1h-1z"/><path fill="#DF5A3D" d="M40 69h1v1h-1z"/><path fill="#E46046" d="M41 69h1v1h-1zM42 69h1v1h-1zM43 69h1v1h-1zM44 69h1v1h-1zM45 69h1v1h-1zM46 69h1v1h-1z"/><path fill="#E25E43" d="M47 69h1v1h-1z"/><path fill="#DF5A3D" d="M48 69h1v1h-1z"/><path fill="#DC5537" d="M49 69h1v1h-1z"/><path fill="#DB5335" d="M50 69h1v1h-1zM51 69h1v1h-1zM52 69h1v1h-1zM53 69h1v1h-1zM54 69h1v1h-1zM55 69h1v1h-1zM56 69h1v1h-1zM57 69h1v1h-1zM58 69h1v1h-1zM59 69h1v1h-1z"/><path fill="#D43C2C" d="M60 69h1v1h-1z"/><path fill="#CA191F" d="M61 69h1v1h-1z"/><path fill="#C9151E" d="M62 69h1v1h-1z"/><path fill="#381816" d="M63 69h1v1h-1z"/><path fill="#231815" d="M64 69h1v1h-1zM65 69h1v1h-1zM66 69h1v1h-1zM67 69h1v1h-1zM68 69h1v1h-1zM69 69h1v1h-1zM70 69h1v1h-1zM71 69h1v1h-1zM72 69h1v1h-1zM73 69h1v1h-1zM74 69h1v1h-1zM75 69h1v1h-1zM11 70h1v1h-1zM12 70h1v1h-1zM13 70h1v1h-1z"/><path fill="#D3624E" d="M14 70h1v1h-1z"/><path fill="#EC6D56" d="M15 70h1v1h-1zM16 70h1v1h-1zM17 70h1v1h-1zM18 70h1v1h-1z"/><path fill="#E56248" d="M19 70h1v1h-1z"/><path fill="#DA4F34" d="M20 70h1v1h-1z"/><path fill="#CC2122" d="M21 70h1v1h-1z"/><path fill="#C9151E" d="M22 70h1v1h-1zM23 70h1v1h-1zM24 70h1v1h-1zM25 70h1v1h-1z"/><path fill="#D2342A" d="M26 70h1v1h-1z"/><path fill="#DA4F34" d="M27 70h1v1h-1z"/><path fill="#DB5335" d="M28 70h1v1h-1zM29 70h1v1h-1zM30 70h1v1h-1zM31 70h1v1h-1zM32 70h1v1h-1zM33 70h1v1h-1zM34 70h1v1h-1zM35 70h1v1h-1zM36 70h1v1h-1zM37 70h1v1h-1zM38 70h1v1h-1zM39 70h1v1h-1zM40 70h1v1h-1zM41 70h1v1h-1zM42 70h1v1h-1zM43 70h1v1h-1zM44 70h1v1h-1zM45 70h1v1h-1zM46 70h1v1h-1zM47 70h1v1h-1zM48 70h1v1h-1zM49 70h1v1h-1zM50 70h1v1h-1zM51 70h1v1h-1zM52 70h1v1h-1zM53 70h1v1h-1zM54 70h1v1h-1zM55 70h1v1h-1zM56 70h1v1h-1zM57 70h1v1h-1z"/><path fill="#DA4F34" d="M58 70h1v1h-1z"/><path fill="#CF2825" d="M59 70h1v1h-1z"/><path fill="#C9151E" d="M60 70h1v1h-1zM61 70h1v1h-1z"/><path fill="#8B161B" d="M62 70h1v1h-1z"/><path fill="#231815" d="M63 70h1v1h-1zM64 70h1v1h-1zM65 70h1v1h-1zM66 70h1v1h-1zM11 71h1v1h-1zM12 71h1v1h-1zM13 71h1v1h-1z"/><path fill="#EC6D56" d="M14 71h1v1h-1zM15 71h1v1h-1zM16 71h1v1h-1zM17 71h1v1h-1zM18 71h1v1h-1z"/><path fill="#E8674E" d="M19 71h1v1h-1z"/><path fill="#DB5335" d="M20 71h1v1h-1z"/><path fill="#DA4F34" d="M21 71h1v1h-1z"/><path fill="#CC2122" d="M22 71h1v1h-1z"/><path fill="#C9151E" d="M23 71h1v1h-1zM24 71h1v1h-1zM25 71h1v1h-1zM26 71h1v1h-1z"/><path fill="#CB1D21" d="M27 71h1v1h-1z"/><path fill="#D43C2C" d="M28 71h1v1h-1z"/><path fill="#DB5335" d="M29 71h1v1h-1zM30 71h1v1h-1zM31 71h1v1h-1zM32 71h1v1h-1zM33 71h1v1h-1zM34 71h1v1h-1zM35 71h1v1h-1zM36 71h1v1h-1zM37 71h1v1h-1zM38 71h1v1h-1zM39 71h1v1h-1zM40 71h1v1h-1zM41 71h1v1h-1zM42 71h1v1h-1zM43 71h1v1h-1zM44 71h1v1h-1zM45 71h1v1h-1zM46 71h1v1h-1zM47 71h1v1h-1zM48 71h1v1h-1zM49 71h1v1h-1zM50 71h1v1h-1zM51 71h1v1h-1zM52 71h1v1h-1zM53 71h1v1h-1zM54 71h1v1h-1zM55 71h1v1h-1z"/><path fill="#DA4F34" d="M56 71h1v1h-1z"/><path fill="#D2342A" d="M57 71h1v1h-1z"/><path fill="#CA191F" d="M58 71h1v1h-1z"/><path fill="#C9151E" d="M59 71h1v1h-1zM60 71h1v1h-1zM61 71h1v1h-1z"/><path fill="#381816" d="M62 71h1v1h-1z"/><path fill="#231815" d="M63 71h1v1h-1zM64 71h1v1h-1zM65 71h1v1h-1zM11 72h1v1h-1zM12 72h1v1h-1zM13 72h1v1h-1z"/><path fill="#EC6D56" d="M14 72h1v1h-1zM15 72h1v1h-1zM16 72h1v1h-1zM17 72h1v1h-1zM18 72h1v1h-1z"/><path fill="#E8674E" d="M19 72h1v1h-1z"/><path fill="#DB5335" d="M20 72h1v1h-1zM21 72h1v1h-1zM22 72h1v1h-1z"/><path fill="#D02C27" d="M23 72h1v1h-1z"/><path fill="#C9151E" d="M24 72h1v1h-1zM25 72h1v1h-1zM26 72h1v1h-1zM27 72h1v1h-1zM28 72h1v1h-1z"/><path fill="#CB1D21" d="M29 72h1v1h-1z"/><path fill="#D3382B" d="M30 72h1v1h-1z"/><path fill="#DA4F34" d="M31 72h1v1h-1z"/><path fill="#DB5335" d="M32 72h1v1h-1zM33 72h1v1h-1zM34 72h1v1h-1zM35 72h1v1h-1zM36 72h1v1h-1zM37 72h1v1h-1zM38 72h1v1h-1zM39 72h1v1h-1zM40 72h1v1h-1zM41 72h1v1h-1zM42 72h1v1h-1zM43 72h1v1h-1zM44 72h1v1h-1zM45 72h1v1h-1zM46 72h1v1h-1zM47 72h1v1h-1zM48 72h1v1h-1zM49 72h1v1h-1zM50 72h1v1h-1zM51 72h1v1h-1zM52 72h1v1h-1zM53 72h1v1h-1z"/><path fill="#D94B32" d="M54 72h1v1h-1z"/><path fill="#D13028" d="M55 72h1v1h-1z"/><path fill="#CA191F" d="M56 72h1v1h-1z"/><path fill="#C9151E" d="M57 72h1v1h-1zM58 72h1v1h-1zM59 72h1v1h-1zM60 72h1v1h-1z"/><path fill="#76171A" d="M61 72h1v1h-1z"/><path fill="#231815" d="M62 72h1v1h-1zM63 72h1v1h-1zM64 72h1v1h-1zM11 73h1v1h-1zM12 73h1v1h-1z"/><path fill="#552D25" d="M13 73h1v1h-1z"/><path fill="#EC6D56" d="M14 73h1v1h-1zM15 73h1v1h-1zM16 73h1v1h-1zM17 73h1v1h-1zM18 73h1v1h-1z"/><path fill="#E7654C" d="M19 73h1v1h-1z"/><path fill="#DB5335" d="M20 73h1v1h-1zM21 73h1v1h-1zM22 73h1v1h-1zM23 73h1v1h-1z"/><path fill="#D02C27" d="M24 73h1v1h-1z"/><path fill="#C9151E" d="M25 73h1v1h-1zM26 73h1v1h-1zM27 73h1v1h-1zM28 73h1v1h-1zM29 73h1v1h-1zM30 73h1v1h-1zM31 73h1v1h-1z"/><path fill="#CF2825" d="M32 73h1v1h-1z"/><path fill="#D43C2C" d="M33 73h1v1h-1z"/><path fill="#D94B32" d="M34 73h1v1h-1z"/><path fill="#DB5335" d="M35 73h1v1h-1zM36 73h1v1h-1zM37 73h1v1h-1zM38 73h1v1h-1zM39 73h1v1h-1zM40 73h1v1h-1zM41 73h1v1h-1zM42 73h1v1h-1zM43 73h1v1h-1zM44 73h1v1h-1zM45 73h1v1h-1zM46 73h1v1h-1zM47 73h1v1h-1zM48 73h1v1h-1zM49 73h1v1h-1zM50 73h1v1h-1z"/><path fill="#D84731" d="M51 73h1v1h-1z"/><path fill="#D3382B" d="M52 73h1v1h-1z"/><path fill="#CC2122" d="M53 73h1v1h-1z"/><path fill="#C9151E" d="M54 73h1v1h-1zM55 73h1v1h-1zM56 73h1v1h-1zM57 73h1v1h-1zM58 73h1v1h-1zM59 73h1v1h-1z"/><path fill="#BF151D" d="M60 73h1v1h-1z"/><path fill="#2D1816" d="M61 73h1v1h-1z"/><path fill="#231815" d="M62 73h1v1h-1zM63 73h1v1h-1zM64 73h1v1h-1zM11 74h1v1h-1zM12 74h1v1h-1z"/><path fill="#552D25" d="M13 74h1v1h-1z"/><path fill="#EC6D56" d="M14 74h1v1h-1zM15 74h1v1h-1zM16 74h1v1h-1zM17 74h1v1h-1zM18 74h1v1h-1z"/><path fill="#E15D41" d="M19 74h1v1h-1z"/><path fill="#DB5335" d="M20 74h1v1h-1zM21 74h1v1h-1zM22 74h1v1h-1zM23 74h1v1h-1zM24 74h1v1h-1z"/><path fill="#D02C27" d="M25 74h1v1h-1z"/><path fill="#C9151E" d="M26 74h1v1h-1zM27 74h1v1h-1zM28 74h1v1h-1zM29 74h1v1h-1zM30 74h1v1h-1zM31 74h1v1h-1zM32 74h1v1h-1zM33 74h1v1h-1zM34 74h1v1h-1z"/><path fill="#CB1D21" d="M35 74h1v1h-1z"/><path fill="#CF2825" d="M36 74h1v1h-1z"/><path fill="#D2342A" d="M37 74h1v1h-1z"/><path fill="#D5402E" d="M38 74h1v1h-1z"/><path fill="#D7442F" d="M39 74h1v1h-1z"/><path fill="#D84731" d="M40 74h1v1h-1z"/><path fill="#DB5335" d="M41 74h1v1h-1zM42 74h1v1h-1zM43 74h1v1h-1zM44 74h1v1h-1z"/><path fill="#D7442F" d="M45 74h1v1h-1zM46 74h1v1h-1z"/><path fill="#D43C2C" d="M47 74h1v1h-1z"/><path fill="#D2342A" d="M48 74h1v1h-1z"/><path fill="#CF2825" d="M49 74h1v1h-1z"/><path fill="#CA191F" d="M50 74h1v1h-1z"/><path fill="#C9151E" d="M51 74h1v1h-1zM52 74h1v1h-1zM53 74h1v1h-1zM54 74h1v1h-1zM55 74h1v1h-1zM56 74h1v1h-1zM57 74h1v1h-1zM58 74h1v1h-1zM59 74h1v1h-1z"/><path fill="#76171A" d="M60 74h1v1h-1z"/><path fill="#231815" d="M61 74h1v1h-1zM62 74h1v1h-1zM63 74h1v1h-1zM11 75h1v1h-1zM12 75h1v1h-1z"/><path fill="#552D25" d="M13 75h1v1h-1z"/><path fill="#EC6D56" d="M14 75h1v1h-1zM15 75h1v1h-1zM16 75h1v1h-1zM17 75h1v1h-1z"/><path fill="#EA6A52" d="M18 75h1v1h-1z"/><path fill="#DC5537" d="M19 75h1v1h-1z"/><path fill="#DB5335" d="M20 75h1v1h-1zM21 75h1v1h-1zM22 75h1v1h-1zM23 75h1v1h-1zM24 75h1v1h-1zM25 75h1v1h-1z"/><path fill="#D02C27" d="M26 75h1v1h-1z"/><path fill="#C9151E" d="M27 75h1v1h-1zM28 75h1v1h-1zM29 75h1v1h-1zM30 75h1v1h-1zM31 75h1v1h-1zM32 75h1v1h-1zM33 75h1v1h-1zM34 75h1v1h-1z"/><path fill="#AA161C" d="M35 75h1v1h-1z"/><path fill="#76171A" d="M36 75h1v1h-1z"/><path fill="#AA161C" d="M37 75h1v1h-1z"/><path fill="#C9151E" d="M38 75h1v1h-1zM39 75h1v1h-1zM40 75h1v1h-1zM41 75h1v1h-1zM42 75h1v1h-1zM43 75h1v1h-1zM44 75h1v1h-1zM45 75h1v1h-1zM46 75h1v1h-1zM47 75h1v1h-1zM48 75h1v1h-1zM49 75h1v1h-1zM50 75h1v1h-1zM51 75h1v1h-1zM52 75h1v1h-1zM53 75h1v1h-1zM54 75h1v1h-1zM55 75h1v1h-1zM56 75h1v1h-1zM57 75h1v1h-1zM58 75h1v1h-1z"/><path fill="#B4151D" d="M59 75h1v1h-1z"/><path fill="#2D1816" d="M60 75h1v1h-1z"/><path fill="#231815" d="M61 75h1v1h-1zM62 75h1v1h-1zM63 75h1v1h-1zM11 76h1v1h-1zM12 76h1v1h-1z"/><path fill="#552D25" d="M13 76h1v1h-1z"/><path fill="#EC6D56" d="M14 76h1v1h-1zM15 76h1v1h-1zM16 76h1v1h-1zM17 76h1v1h-1z"/><path fill="#DF5A3D" d="M18 76h1v1h-1z"/><path fill="#DB5335" d="M19 76h1v1h-1zM20 76h1v1h-1zM21 76h1v1h-1zM22 76h1v1h-1zM23 76h1v1h-1zM24 76h1v1h-1zM25 76h1v1h-1zM26 76h1v1h-1z"/><path fill="#D02C27" d="M27 76h1v1h-1z"/><path fill="#C9151E" d="M28 76h1v1h-1zM29 76h1v1h-1zM30 76h1v1h-1z"/><path fill="#B4151D" d="M31 76h1v1h-1z"/><path fill="#8B161B" d="M32 76h1v1h-1z"/><path fill="#611718" d="M33 76h1v1h-1z"/><path fill="#2D1816" d="M34 76h1v1h-1z"/><path fill="#231815" d="M35 76h1v1h-1zM36 76h1v1h-1zM37 76h1v1h-1z"/><path fill="#8B161B" d="M38 76h1v1h-1z"/><path fill="#C9151E" d="M39 76h1v1h-1zM40 76h1v1h-1zM41 76h1v1h-1zM42 76h1v1h-1zM43 76h1v1h-1zM44 76h1v1h-1zM45 76h1v1h-1zM46 76h1v1h-1zM47 76h1v1h-1zM48 76h1v1h-1zM49 76h1v1h-1zM50 76h1v1h-1zM51 76h1v1h-1zM52 76h1v1h-1zM53 76h1v1h-1zM54 76h1v1h-1zM55 76h1v1h-1zM56 76h1v1h-1zM57 76h1v1h-1zM58 76h1v1h-1z"/><path fill="#611718" d="M59 76h1v1h-1z"/><path fill="#231815" d="M60 76h1v1h-1zM61 76h1v1h-1zM62 76h1v1h-1zM11 77h1v1h-1zM12 77h1v1h-1z"/><path fill="#552D25" d="M13 77h1v1h-1z"/><path fill="#EC6D56" d="M14 77h1v1h-1zM15 77h1v1h-1zM16 77h1v1h-1z"/><path fill="#E15D41" d="M17 77h1v1h-1z"/><path fill="#DB5335" d="M18 77h1v1h-1zM19 77h1v1h-1zM20 77h1v1h-1zM21 77h1v1h-1zM22 77h1v1h-1zM23 77h1v1h-1zM24 77h1v1h-1zM25 77h1v1h-1zM26 77h1v1h-1z"/><path fill="#D04F33" d="M27 77h1v1h-1z"/><path fill="#992220" d="M28 77h1v1h-1z"/><path fill="#6C1719" d="M29 77h1v1h-1z"/><path fill="#381816" d="M30 77h1v1h-1z"/><path fill="#231815" d="M31 77h1v1h-1zM32 77h1v1h-1zM33 77h1v1h-1zM34 77h1v1h-1zM35 77h1v1h-1zM36 77h1v1h-1zM37 77h1v1h-1zM38 77h1v1h-1z"/><path fill="#8B161B" d="M39 77h1v1h-1z"/><path fill="#C9151E" d="M40 77h1v1h-1zM41 77h1v1h-1zM42 77h1v1h-1zM43 77h1v1h-1zM44 77h1v1h-1zM45 77h1v1h-1zM46 77h1v1h-1zM47 77h1v1h-1zM48 77h1v1h-1zM49 77h1v1h-1zM50 77h1v1h-1zM51 77h1v1h-1z"/><path fill="#CE2524" d="M52 77h1v1h-1z"/><path fill="#D02C27" d="M53 77h1v1h-1z"/><path fill="#D2342A" d="M54 77h1v1h-1zM55 77h1v1h-1z"/><path fill="#CE2524" d="M56 77h1v1h-1z"/><path fill="#C9151E" d="M57 77h1v1h-1z"/><path fill="#AA161C" d="M58 77h1v1h-1z"/><path fill="#231815" d="M59 77h1v1h-1zM60 77h1v1h-1zM61 77h1v1h-1zM62 77h1v1h-1zM11 78h1v1h-1zM12 78h1v1h-1z"/><path fill="#492821" d="M13 78h1v1h-1z"/><path fill="#EC6D56" d="M14 78h1v1h-1z"/><path fill="#EA6A52" d="M15 78h1v1h-1z"/><path fill="#DE583B" d="M16 78h1v1h-1z"/><path fill="#DB5335" d="M17 78h1v1h-1zM18 78h1v1h-1zM19 78h1v1h-1zM20 78h1v1h-1zM21 78h1v1h-1zM22 78h1v1h-1z"/><path fill="#D04F33" d="M23 78h1v1h-1z"/><path fill="#A2412B" d="M24 78h1v1h-1z"/><path fill="#743223" d="M25 78h1v1h-1z"/><path fill="#46231B" d="M26 78h1v1h-1z"/><path fill="#231815" d="M27 78h1v1h-1zM28 78h1v1h-1zM29 78h1v1h-1zM30 78h1v1h-1zM31 78h1v1h-1zM32 78h1v1h-1zM33 78h1v1h-1zM34 78h1v1h-1zM35 78h1v1h-1zM36 78h1v1h-1zM37 78h1v1h-1zM38 78h1v1h-1zM39 78h1v1h-1z"/><path fill="#6C1719" d="M40 78h1v1h-1z"/><path fill="#CE2524" d="M41 78h1v1h-1zM42 78h1v1h-1zM43 78h1v1h-1zM44 78h1v1h-1zM45 78h1v1h-1zM46 78h1v1h-1z"/><path fill="#D2342A" d="M47 78h1v1h-1zM48 78h1v1h-1z"/><path fill="#D7442F" d="M49 78h1v1h-1z"/><path fill="#D94B32" d="M50 78h1v1h-1z"/><path fill="#DB5335" d="M51 78h1v1h-1zM52 78h1v1h-1zM53 78h1v1h-1zM54 78h1v1h-1zM55 78h1v1h-1z"/><path fill="#DA4F34" d="M56 78h1v1h-1z"/><path fill="#C9151E" d="M57 78h1v1h-1z"/><path fill="#4D1717" d="M58 78h1v1h-1z"/><path fill="#231815" d="M59 78h1v1h-1zM60 78h1v1h-1zM61 78h1v1h-1zM11 79h1v1h-1zM12 79h1v1h-1zM13 79h1v1h-1z"/><path fill="#E15D41" d="M14 79h1v1h-1z"/><path fill="#DB5335" d="M15 79h1v1h-1zM16 79h1v1h-1zM17 79h1v1h-1zM18 79h1v1h-1z"/><path fill="#AD442D" d="M19 79h1v1h-1z"/><path fill="#8B3927" d="M20 79h1v1h-1z"/><path fill="#682E21" d="M21 79h1v1h-1z"/><path fill="#3A1F19" d="M22 79h1v1h-1z"/><path fill="#231815" d="M23 79h1v1h-1zM24 79h1v1h-1zM25 79h1v1h-1zM26 79h1v1h-1zM27 79h1v1h-1zM28 79h1v1h-1zM29 79h1v1h-1zM30 79h1v1h-1zM31 79h1v1h-1zM32 79h1v1h-1zM33 79h1v1h-1zM37 79h1v1h-1zM38 79h1v1h-1zM39 79h1v1h-1zM40 79h1v1h-1z"/><path fill="#682E21" d="M41 79h1v1h-1z"/><path fill="#D04F33" d="M42 79h1v1h-1z"/><path fill="#DB5335" d="M43 79h1v1h-1zM44 79h1v1h-1zM45 79h1v1h-1zM46 79h1v1h-1zM47 79h1v1h-1zM48 79h1v1h-1zM49 79h1v1h-1zM50 79h1v1h-1zM51 79h1v1h-1zM52 79h1v1h-1zM53 79h1v1h-1zM54 79h1v1h-1zM55 79h1v1h-1z"/><path fill="#DA4F34" d="M56 79h1v1h-1z"/><path fill="#8B161B" d="M57 79h1v1h-1z"/><path fill="#231815" d="M58 79h1v1h-1zM59 79h1v1h-1zM60 79h1v1h-1zM61 79h1v1h-1zM11 80h1v1h-1zM12 80h1v1h-1zM13 80h1v1h-1z"/><path fill="#682E21" d="M14 80h1v1h-1z"/><path fill="#743223" d="M15 80h1v1h-1z"/><path fill="#51271D" d="M16 80h1v1h-1z"/><path fill="#3A1F19" d="M17 80h1v1h-1z"/><path fill="#231815" d="M18 80h1v1h-1zM19 80h1v1h-1zM20 80h1v1h-1zM21 80h1v1h-1zM22 80h1v1h-1zM23 80h1v1h-1zM24 80h1v1h-1zM25 80h1v1h-1zM26 80h1v1h-1zM27 80h1v1h-1zM28 80h1v1h-1zM29 80h1v1h-1zM30 80h1v1h-1zM38 80h1v1h-1zM39 80h1v1h-1zM40 80h1v1h-1zM41 80h1v1h-1z"/><path fill="#46231B" d="M42 80h1v1h-1z"/><path fill="#D04F33" d="M43 80h1v1h-1z"/><path fill="#DB5335" d="M44 80h1v1h-1zM45 80h1v1h-1zM46 80h1v1h-1zM47 80h1v1h-1zM48 80h1v1h-1zM49 80h1v1h-1zM50 80h1v1h-1zM51 80h1v1h-1zM52 80h1v1h-1zM53 80h1v1h-1zM54 80h1v1h-1zM55 80h1v1h-1z"/><path fill="#CA3C2C" d="M56 80h1v1h-1z"/><path fill="#381816" d="M57 80h1v1h-1z"/><path fill="#231815" d="M58 80h1v1h-1zM59 80h1v1h-1zM60 80h1v1h-1zM11 81h1v1h-1zM12 81h1v1h-1zM13 81h1v1h-1zM14 81h1v1h-1zM15 81h1v1h-1zM16 81h1v1h-1zM17 81h1v1h-1zM18 81h1v1h-1zM19 81h1v1h-1zM20 81h1v1h-1zM21 81h1v1h-1zM22 81h1v1h-1zM23 81h1v1h-1zM24 81h1v1h-1zM25 81h1v1h-1zM26 81h1v1h-1zM39 81h1v1h-1zM40 81h1v1h-1zM41 81h1v1h-1zM42 81h1v1h-1z"/><path fill="#2F1C17" d="M43 81h1v1h-1z"/><path fill="#B9482F" d="M44 81h1v1h-1z"/><path fill="#DB5335" d="M45 81h1v1h-1zM46 81h1v1h-1zM47 81h1v1h-1zM48 81h1v1h-1zM49 81h1v1h-1zM50 81h1v1h-1zM51 81h1v1h-1zM52 81h1v1h-1zM53 81h1v1h-1zM54 81h1v1h-1zM55 81h1v1h-1z"/><path fill="#712A20" d="M56 81h1v1h-1z"/><path fill="#231815" d="M57 81h1v1h-1zM58 81h1v1h-1zM59 81h1v1h-1zM12 82h1v1h-1zM13 82h1v1h-1zM14 82h1v1h-1zM15 82h1v1h-1zM16 82h1v1h-1zM17 82h1v1h-1zM18 82h1v1h-1zM19 82h1v1h-1zM20 82h1v1h-1zM21 82h1v1h-1zM40 82h1v1h-1zM41 82h1v1h-1zM42 82h1v1h-1zM43 82h1v1h-1z"/><path fill="#2F1C17" d="M44 82h1v1h-1z"/><path fill="#963D29" d="M45 82h1v1h-1z"/><path fill="#DB5335" d="M46 82h1v1h-1zM47 82h1v1h-1zM48 82h1v1h-1zM49 82h1v1h-1zM50 82h1v1h-1zM51 82h1v1h-1zM52 82h1v1h-1zM53 82h1v1h-1zM54 82h1v1h-1z"/><path fill="#B9482F" d="M55 82h1v1h-1z"/><path fill="#231815" d="M56 82h1v1h-1zM57 82h1v1h-1zM58 82h1v1h-1zM59 82h1v1h-1zM13 83h1v1h-1zM14 83h1v1h-1zM15 83h1v1h-1zM41 83h1v1h-1zM42 83h1v1h-1zM43 83h1v1h-1zM44 83h1v1h-1zM45 83h1v1h-1z"/><path fill="#743223" d="M46 83h1v1h-1z"/><path fill="#DB5335" d="M47 83h1v1h-1zM48 83h1v1h-1zM49 83h1v1h-1zM50 83h1v1h-1zM51 83h1v1h-1zM52 83h1v1h-1zM53 83h1v1h-1zM54 83h1v1h-1z"/><path fill="#46231B" d="M55 83h1v1h-1z"/><path fill="#231815" d="M56 83h1v1h-1zM57 83h1v1h-1zM58 83h1v1h-1zM42 84h1v1h-1zM43 84h1v1h-1zM44 84h1v1h-1zM45 84h1v1h-1zM46 84h1v1h-1z"/><path fill="#46231B" d="M47 84h1v1h-1z"/><path fill="#B9482F" d="M48 84h1v1h-1z"/><path fill="#DB5335" d="M49 84h1v1h-1zM50 84h1v1h-1zM51 84h1v1h-1zM52 84h1v1h-1zM53 84h1v1h-1z"/><path fill="#743223" d="M54 84h1v1h-1z"/><path fill="#231815" d="M55 84h1v1h-1zM56 84h1v1h-1zM57 84h1v1h-1zM58 84h1v1h-1zM44 85h1v1h-1zM45 85h1v1h-1zM46 85h1v1h-1zM47 85h1v1h-1z"/><path fill="#2F1C17" d="M48 85h1v1h-1z"/><path fill="#8B3927" d="M49 85h1v1h-1z"/><path fill="#DB5335" d="M50 85h1v1h-1zM51 85h1v1h-1zM52 85h1v1h-1z"/><path fill="#AD442D" d="M53 85h1v1h-1z"/><path fill="#231815" d="M54 85h1v1h-1zM55 85h1v1h-1zM56 85h1v1h-1zM57 85h1v1h-1zM45 86h1v1h-1zM46 86h1v1h-1zM47 86h1v1h-1zM48 86h1v1h-1zM49 86h1v1h-1z"/><path fill="#46231B" d="M50 86h1v1h-1z"/><path fill="#AD442D" d="M51 86h1v1h-1z"/><path fill="#B9482F" d="M52 86h1v1h-1z"/><path fill="#2F1C17" d="M53 86h1v1h-1z"/><path fill="#231815" d="M54 86h1v1h-1zM55 86h1v1h-1zM56 86h1v1h-1zM46 87h1v1h-1zM47 87h1v1h-1zM48 87h1v1h-1zM49 87h1v1h-1zM50 87h1v1h-1zM51 87h1v1h-1zM52 87h1v1h-1zM53 87h1v1h-1zM54 87h1v1h-1zM55 87h1v1h-1zM48 88h1v1h-1zM49 88h1v1h-1zM50 88h1v1h-1zM51 88h1v1h-1zM52 88h1v1h-1zM53 88h1v1h-1zM54 88h1v1h-1zM55 88h1v1h-1zM50 89h1v1h-1zM51 89h1v1h-1zM52 89h1v1h-1zM53 89h1v1h-1zM54 89h1v1h-1z"/></svg>