<svg baseProfile="full" height="90" width="59" xmlns="http://www.w3.org/2000/svg"><path fill="#231815" d="M34 0h1v1h-1zM35 0h1v1h-1zM36 0h1v1h-1zM37 0h1v1h-1zM38 0h1v1h-1zM39 0h1v1h-1zM40 0h1v1h-1zM31 1h1v1h-1zM32 1h1v1h-1zM33 1h1v1h-1zM34 1h1v1h-1zM35 1h1v1h-1zM36 1h1v1h-1zM37 1h1v1h-1zM38 1h1v1h-1zM39 1h1v1h-1zM40 1h1v1h-1zM41 1h1v1h-1zM30 2h1v1h-1zM31 2h1v1h-1zM32 2h1v1h-1zM33 2h1v1h-1zM34 2h1v1h-1zM35 2h1v1h-1zM36 2h1v1h-1zM37 2h1v1h-1zM38 2h1v1h-1zM39 2h1v1h-1zM40 2h1v1h-1zM41 2h1v1h-1zM29 3h1v1h-1zM30 3h1v1h-1zM31 3h1v1h-1zM32 3h1v1h-1zM33 3h1v1h-1zM34 3h1v1h-1z"/><path fill="#3A2E20" d="M35 3h1v1h-1z"/><path fill="#594A30" d="M36 3h1v1h-1z"/><path fill="#615234" d="M37 3h1v1h-1z"/><path fill="#3A2E20" d="M38 3h1v1h-1z"/><path fill="#231815" d="M39 3h1v1h-1zM40 3h1v1h-1zM41 3h1v1h-1zM42 3h1v1h-1zM28 4h1v1h-1zM29 4h1v1h-1zM30 4h1v1h-1zM31 4h1v1h-1zM32 4h1v1h-1z"/><path fill="#493C28" d="M33 4h1v1h-1z"/><path fill="#877547" d="M34 4h1v1h-1z"/><path fill="#9E8B52" d="M35 4h1v1h-1zM36 4h1v1h-1zM37 4h1v1h-1zM38 4h1v1h-1z"/><path fill="#231815" d="M39 4h1v1h-1zM40 4h1v1h-1zM41 4h1v1h-1zM42 4h1v1h-1zM27 5h1v1h-1zM28 5h1v1h-1zM29 5h1v1h-1zM30 5h1v1h-1z"/><path fill="#2B1F19" d="M31 5h1v1h-1z"/><path fill="#70603B" d="M32 5h1v1h-1z"/><path fill="#9E8B52" d="M33 5h1v1h-1zM34 5h1v1h-1zM35 5h1v1h-1zM36 5h1v1h-1zM37 5h1v1h-1zM38 5h1v1h-1z"/><path fill="#231815" d="M39 5h1v1h-1zM40 5h1v1h-1zM41 5h1v1h-1zM42 5h1v1h-1zM26 6h1v1h-1zM27 6h1v1h-1zM28 6h1v1h-1zM29 6h1v1h-1z"/><path fill="#2B1F19" d="M30 6h1v1h-1z"/><path fill="#877547" d="M31 6h1v1h-1z"/><path fill="#9E8B52" d="M32 6h1v1h-1zM33 6h1v1h-1zM34 6h1v1h-1zM35 6h1v1h-1zM36 6h1v1h-1zM37 6h1v1h-1z"/><path fill="#877547" d="M38 6h1v1h-1z"/><path fill="#231815" d="M39 6h1v1h-1zM40 6h1v1h-1zM41 6h1v1h-1zM42 6h1v1h-1zM19 7h1v1h-1zM20 7h1v1h-1zM21 7h1v1h-1zM22 7h1v1h-1zM23 7h1v1h-1zM24 7h1v1h-1zM25 7h1v1h-1zM26 7h1v1h-1zM27 7h1v1h-1zM28 7h1v1h-1z"/><path fill="#2B1F19" d="M29 7h1v1h-1z"/><path fill="#877547" d="M30 7h1v1h-1z"/><path fill="#9E8B52" d="M31 7h1v1h-1zM32 7h1v1h-1zM33 7h1v1h-1zM34 7h1v1h-1zM35 7h1v1h-1zM36 7h1v1h-1z"/><path fill="#877547" d="M37 7h1v1h-1z"/><path fill="#2B1F19" d="M38 7h1v1h-1z"/><path fill="#231815" d="M39 7h1v1h-1zM40 7h1v1h-1zM41 7h1v1h-1zM42 7h1v1h-1zM13 8h1v1h-1zM14 8h1v1h-1zM15 8h1v1h-1zM16 8h1v1h-1zM17 8h1v1h-1zM18 8h1v1h-1zM19 8h1v1h-1zM20 8h1v1h-1zM21 8h1v1h-1zM22 8h1v1h-1zM23 8h1v1h-1zM24 8h1v1h-1zM25 8h1v1h-1zM26 8h1v1h-1zM27 8h1v1h-1zM28 8h1v1h-1z"/><path fill="#78673F" d="M29 8h1v1h-1z"/><path fill="#9E8B52" d="M30 8h1v1h-1zM31 8h1v1h-1zM32 8h1v1h-1zM33 8h1v1h-1zM34 8h1v1h-1zM35 8h1v1h-1z"/><path fill="#96844E" d="M36 8h1v1h-1z"/><path fill="#3A2E20" d="M37 8h1v1h-1z"/><path fill="#231815" d="M38 8h1v1h-1zM39 8h1v1h-1zM40 8h1v1h-1zM41 8h1v1h-1zM42 8h1v1h-1zM43 8h1v1h-1zM44 8h1v1h-1zM45 8h1v1h-1zM10 9h1v1h-1zM11 9h1v1h-1zM12 9h1v1h-1zM13 9h1v1h-1zM14 9h1v1h-1zM15 9h1v1h-1zM16 9h1v1h-1zM17 9h1v1h-1zM18 9h1v1h-1zM19 9h1v1h-1zM20 9h1v1h-1zM21 9h1v1h-1zM22 9h1v1h-1zM23 9h1v1h-1zM24 9h1v1h-1zM25 9h1v1h-1zM26 9h1v1h-1zM27 9h1v1h-1z"/><path fill="#594A30" d="M28 9h1v1h-1z"/><path fill="#9E8B52" d="M29 9h1v1h-1zM30 9h1v1h-1zM31 9h1v1h-1zM32 9h1v1h-1zM33 9h1v1h-1zM34 9h1v1h-1zM35 9h1v1h-1z"/><path fill="#51432C" d="M36 9h1v1h-1z"/><path fill="#231815" d="M37 9h1v1h-1zM38 9h1v1h-1zM39 9h1v1h-1zM40 9h1v1h-1zM41 9h1v1h-1zM42 9h1v1h-1zM43 9h1v1h-1zM44 9h1v1h-1zM45 9h1v1h-1zM46 9h1v1h-1zM47 9h1v1h-1zM48 9h1v1h-1zM7 10h1v1H7zM8 10h1v1H8zM9 10h1v1H9zM10 10h1v1h-1zM11 10h1v1h-1zM12 10h1v1h-1zM13 10h1v1h-1zM14 10h1v1h-1zM15 10h1v1h-1zM16 10h1v1h-1zM17 10h1v1h-1zM18 10h1v1h-1zM19 10h1v1h-1zM20 10h1v1h-1zM21 10h1v1h-1z"/><path fill="#2E1C19" d="M22 10h1v1h-1z"/><path fill="#442320" d="M23 10h1v1h-1z"/><path fill="#231815" d="M24 10h1v1h-1zM25 10h1v1h-1zM26 10h1v1h-1z"/><path fill="#32261D" d="M27 10h1v1h-1z"/><path fill="#96844E" d="M28 10h1v1h-1z"/><path fill="#9E8B52" d="M29 10h1v1h-1zM30 10h1v1h-1zM31 10h1v1h-1zM32 10h1v1h-1zM33 10h1v1h-1zM34 10h1v1h-1z"/><path fill="#78673F" d="M35 10h1v1h-1z"/><path fill="#231815" d="M36 10h1v1h-1zM37 10h1v1h-1zM38 10h1v1h-1zM39 10h1v1h-1zM40 10h1v1h-1zM41 10h1v1h-1zM42 10h1v1h-1zM43 10h1v1h-1zM44 10h1v1h-1zM45 10h1v1h-1zM46 10h1v1h-1zM47 10h1v1h-1zM48 10h1v1h-1zM49 10h1v1h-1zM50 10h1v1h-1zM6 11h1v1H6zM7 11h1v1H7zM8 11h1v1H8zM9 11h1v1H9zM10 11h1v1h-1zM11 11h1v1h-1zM12 11h1v1h-1zM13 11h1v1h-1z"/><path fill="#2F1D19" d="M14 11h1v1h-1z"/><path fill="#532A27" d="M15 11h1v1h-1z"/><path fill="#823B37" d="M16 11h1v1h-1z"/><path fill="#913C3B" d="M17 11h1v1h-1z"/><path fill="#A74443" d="M18 11h1v1h-1z"/><path fill="#BD4B4A" d="M19 11h1v1h-1z"/><path fill="#D35252" d="M20 11h1v1h-1zM21 11h1v1h-1zM22 11h1v1h-1z"/><path fill="#7B3534" d="M23 11h1v1h-1z"/><path fill="#231815" d="M24 11h1v1h-1zM25 11h1v1h-1zM26 11h1v1h-1z"/><path fill="#78673F" d="M27 11h1v1h-1z"/><path fill="#9E8B52" d="M28 11h1v1h-1zM29 11h1v1h-1zM30 11h1v1h-1zM31 11h1v1h-1zM32 11h1v1h-1zM33 11h1v1h-1z"/><path fill="#96844E" d="M34 11h1v1h-1z"/><path fill="#32261D" d="M35 11h1v1h-1z"/><path fill="#231815" d="M36 11h1v1h-1zM37 11h1v1h-1z"/><path fill="#2E1C19" d="M38 11h1v1h-1z"/><path fill="#B24747" d="M39 11h1v1h-1z"/><path fill="#A74443" d="M40 11h1v1h-1z"/><path fill="#913C3B" d="M41 11h1v1h-1z"/><path fill="#703130" d="M42 11h1v1h-1z"/><path fill="#4F2724" d="M43 11h1v1h-1z"/><path fill="#231815" d="M44 11h1v1h-1zM45 11h1v1h-1zM46 11h1v1h-1zM47 11h1v1h-1zM48 11h1v1h-1zM49 11h1v1h-1zM50 11h1v1h-1zM51 11h1v1h-1zM52 11h1v1h-1zM5 12h1v1H5zM6 12h1v1H6zM7 12h1v1H7zM8 12h1v1H8zM9 12h1v1H9zM10 12h1v1h-1z"/><path fill="#3B211E" d="M11 12h1v1h-1z"/><path fill="#8F413C" d="M12 12h1v1h-1z"/><path fill="#BF534E" d="M13 12h1v1h-1z"/><path fill="#E3605B" d="M14 12h1v1h-1zM15 12h1v1h-1z"/><path fill="#D95755" d="M16 12h1v1h-1z"/><path fill="#D35252" d="M17 12h1v1h-1zM18 12h1v1h-1zM19 12h1v1h-1zM20 12h1v1h-1zM21 12h1v1h-1zM22 12h1v1h-1z"/><path fill="#2E1C19" d="M23 12h1v1h-1z"/><path fill="#231815" d="M24 12h1v1h-1zM25 12h1v1h-1z"/><path fill="#423524" d="M26 12h1v1h-1z"/><path fill="#9E8B52" d="M27 12h1v1h-1zM28 12h1v1h-1zM29 12h1v1h-1zM30 12h1v1h-1zM31 12h1v1h-1zM32 12h1v1h-1zM33 12h1v1h-1z"/><path fill="#615234" d="M34 12h1v1h-1z"/><path fill="#231815" d="M35 12h1v1h-1zM36 12h1v1h-1zM37 12h1v1h-1z"/><path fill="#863937" d="M38 12h1v1h-1z"/><path fill="#D35252" d="M39 12h1v1h-1zM40 12h1v1h-1zM41 12h1v1h-1zM42 12h1v1h-1zM43 12h1v1h-1zM44 12h1v1h-1z"/><path fill="#9C403F" d="M45 12h1v1h-1z"/><path fill="#652E2C" d="M46 12h1v1h-1z"/><path fill="#2E1C19" d="M47 12h1v1h-1z"/><path fill="#231815" d="M48 12h1v1h-1zM49 12h1v1h-1zM50 12h1v1h-1zM51 12h1v1h-1zM52 12h1v1h-1zM53 12h1v1h-1zM4 13h1v1H4zM5 13h1v1H5zM6 13h1v1H6zM7 13h1v1H7zM8 13h1v1H8z"/><path fill="#532A27" d="M9 13h1v1H9z"/><path fill="#B34E4A" d="M10 13h1v1h-1z"/><path fill="#E3605B" d="M11 13h1v1h-1zM12 13h1v1h-1zM13 13h1v1h-1zM14 13h1v1h-1zM15 13h1v1h-1z"/><path fill="#D45353" d="M16 13h1v1h-1z"/><path fill="#D35252" d="M17 13h1v1h-1zM18 13h1v1h-1zM19 13h1v1h-1zM20 13h1v1h-1zM21 13h1v1h-1z"/><path fill="#913C3B" d="M22 13h1v1h-1z"/><path fill="#231815" d="M23 13h1v1h-1zM24 13h1v1h-1zM25 13h1v1h-1z"/><path fill="#7F6E43" d="M26 13h1v1h-1z"/><path fill="#9E8B52" d="M27 13h1v1h-1zM28 13h1v1h-1zM29 13h1v1h-1zM30 13h1v1h-1zM31 13h1v1h-1zM32 13h1v1h-1z"/><path fill="#8F7D4A" d="M33 13h1v1h-1z"/><path fill="#231815" d="M34 13h1v1h-1zM35 13h1v1h-1zM36 13h1v1h-1z"/><path fill="#4F2724" d="M37 13h1v1h-1z"/><path fill="#D35252" d="M38 13h1v1h-1zM39 13h1v1h-1zM40 13h1v1h-1zM41 13h1v1h-1zM42 13h1v1h-1zM43 13h1v1h-1zM44 13h1v1h-1zM45 13h1v1h-1zM46 13h1v1h-1z"/><path fill="#C84E4E" d="M47 13h1v1h-1z"/><path fill="#913C3B" d="M48 13h1v1h-1z"/><path fill="#391F1D" d="M49 13h1v1h-1z"/><path fill="#231815" d="M50 13h1v1h-1zM51 13h1v1h-1zM52 13h1v1h-1zM53 13h1v1h-1zM54 13h1v1h-1zM3 14h1v1H3zM4 14h1v1H4zM5 14h1v1H5zM6 14h1v1H6z"/><path fill="#2F1D19" d="M7 14h1v1H7z"/><path fill="#8F413C" d="M8 14h1v1H8z"/><path fill="#E3605B" d="M9 14h1v1H9zM10 14h1v1h-1zM11 14h1v1h-1zM12 14h1v1h-1zM13 14h1v1h-1zM14 14h1v1h-1zM15 14h1v1h-1z"/><path fill="#D35252" d="M16 14h1v1h-1zM17 14h1v1h-1zM18 14h1v1h-1zM19 14h1v1h-1zM20 14h1v1h-1zM21 14h1v1h-1z"/><path fill="#5A2A28" d="M22 14h1v1h-1z"/><path fill="#231815" d="M23 14h1v1h-1zM24 14h1v1h-1z"/><path fill="#32261D" d="M25 14h1v1h-1z"/><path fill="#9E8B52" d="M26 14h1v1h-1zM27 14h1v1h-1zM28 14h1v1h-1zM29 14h1v1h-1zM30 14h1v1h-1zM31 14h1v1h-1zM32 14h1v1h-1z"/><path fill="#51432C" d="M33 14h1v1h-1z"/><path fill="#231815" d="M34 14h1v1h-1zM35 14h1v1h-1zM36 14h1v1h-1z"/><path fill="#B24747" d="M37 14h1v1h-1z"/><path fill="#D35252" d="M38 14h1v1h-1zM39 14h1v1h-1zM40 14h1v1h-1zM41 14h1v1h-1zM42 14h1v1h-1zM43 14h1v1h-1zM44 14h1v1h-1zM45 14h1v1h-1zM46 14h1v1h-1zM47 14h1v1h-1zM48 14h1v1h-1z"/><path fill="#C84E4E" d="M49 14h1v1h-1z"/><path fill="#7B3534" d="M50 14h1v1h-1z"/><path fill="#231815" d="M51 14h1v1h-1zM52 14h1v1h-1zM53 14h1v1h-1zM54 14h1v1h-1zM55 14h1v1h-1zM2 15h1v1H2zM3 15h1v1H3zM4 15h1v1H4zM5 15h1v1H5z"/><path fill="#2F1D19" d="M6 15h1v1H6z"/><path fill="#BF534E" d="M7 15h1v1H7z"/><path fill="#E3605B" d="M8 15h1v1H8zM9 15h1v1H9zM10 15h1v1h-1zM11 15h1v1h-1zM12 15h1v1h-1zM13 15h1v1h-1zM14 15h1v1h-1zM15 15h1v1h-1z"/><path fill="#D35252" d="M16 15h1v1h-1zM17 15h1v1h-1zM18 15h1v1h-1zM19 15h1v1h-1zM20 15h1v1h-1z"/><path fill="#C84E4E" d="M21 15h1v1h-1z"/><path fill="#231815" d="M22 15h1v1h-1zM23 15h1v1h-1zM24 15h1v1h-1z"/><path fill="#685937" d="M25 15h1v1h-1z"/><path fill="#9E8B52" d="M26 15h1v1h-1zM27 15h1v1h-1zM28 15h1v1h-1zM29 15h1v1h-1zM30 15h1v1h-1zM31 15h1v1h-1z"/><path fill="#8F7D4A" d="M32 15h1v1h-1z"/><path fill="#231815" d="M33 15h1v1h-1zM34 15h1v1h-1zM35 15h1v1h-1z"/><path fill="#652E2C" d="M36 15h1v1h-1z"/><path fill="#D35252" d="M37 15h1v1h-1zM38 15h1v1h-1zM39 15h1v1h-1zM40 15h1v1h-1zM41 15h1v1h-1zM42 15h1v1h-1zM43 15h1v1h-1zM44 15h1v1h-1zM45 15h1v1h-1zM46 15h1v1h-1zM47 15h1v1h-1zM48 15h1v1h-1zM49 15h1v1h-1zM50 15h1v1h-1z"/><path fill="#A74443" d="M51 15h1v1h-1z"/><path fill="#2E1C19" d="M52 15h1v1h-1z"/><path fill="#231815" d="M53 15h1v1h-1zM54 15h1v1h-1zM55 15h1v1h-1zM56 15h1v1h-1zM2 16h1v1H2zM3 16h1v1H3zM4 16h1v1H4z"/><path fill="#301F1C" d="M5 16h1v1H5z"/><path fill="#C56566" d="M6 16h1v1H6z"/><path fill="#EE8389" d="M7 16h1v1H7z"/><path fill="#EF858C" d="M8 16h1v1H8zM9 16h1v1H9z"/><path fill="#EB797D" d="M10 16h1v1h-1z"/><path fill="#E66967" d="M11 16h1v1h-1z"/><path fill="#E3605B" d="M12 16h1v1h-1zM13 16h1v1h-1zM14 16h1v1h-1zM15 16h1v1h-1z"/><path fill="#D85655" d="M16 16h1v1h-1z"/><path fill="#D35252" d="M17 16h1v1h-1zM18 16h1v1h-1zM19 16h1v1h-1zM20 16h1v1h-1z"/><path fill="#9C403F" d="M21 16h1v1h-1z"/><path fill="#231815" d="M22 16h1v1h-1zM23 16h1v1h-1zM24 16h1v1h-1z"/><path fill="#8F7D4A" d="M25 16h1v1h-1z"/><path fill="#9E8B52" d="M26 16h1v1h-1zM27 16h1v1h-1zM28 16h1v1h-1zM29 16h1v1h-1zM30 16h1v1h-1zM31 16h1v1h-1z"/><path fill="#51432C" d="M32 16h1v1h-1z"/><path fill="#231815" d="M33 16h1v1h-1zM34 16h1v1h-1zM35 16h1v1h-1z"/><path fill="#BD4B4A" d="M36 16h1v1h-1z"/><path fill="#D35252" d="M37 16h1v1h-1zM38 16h1v1h-1zM39 16h1v1h-1zM40 16h1v1h-1zM41 16h1v1h-1zM42 16h1v1h-1zM43 16h1v1h-1zM44 16h1v1h-1zM45 16h1v1h-1zM46 16h1v1h-1zM47 16h1v1h-1zM48 16h1v1h-1zM49 16h1v1h-1zM50 16h1v1h-1zM51 16h1v1h-1z"/><path fill="#B24747" d="M52 16h1v1h-1z"/><path fill="#231815" d="M53 16h1v1h-1zM54 16h1v1h-1zM55 16h1v1h-1zM56 16h1v1h-1zM57 16h1v1h-1zM1 17h1v1H1zM2 17h1v1H2zM3 17h1v1H3zM4 17h1v1H4z"/><path fill="#965558" d="M5 17h1v1H5z"/><path fill="#EF858C" d="M6 17h1v1H6zM7 17h1v1H7zM8 17h1v1H8zM9 17h1v1H9zM10 17h1v1h-1zM11 17h1v1h-1z"/><path fill="#EC7C80" d="M12 17h1v1h-1z"/><path fill="#E56561" d="M13 17h1v1h-1z"/><path fill="#E3605B" d="M14 17h1v1h-1z"/><path fill="#C95B57" d="M15 17h1v1h-1z"/><path fill="#DF5D59" d="M16 17h1v1h-1z"/><path fill="#D35252" d="M17 17h1v1h-1zM18 17h1v1h-1zM19 17h1v1h-1zM20 17h1v1h-1z"/><path fill="#703130" d="M21 17h1v1h-1z"/><path fill="#231815" d="M22 17h1v1h-1zM23 17h1v1h-1z"/><path fill="#3A2E20" d="M24 17h1v1h-1z"/><path fill="#9E8B52" d="M25 17h1v1h-1zM26 17h1v1h-1zM27 17h1v1h-1zM28 17h1v1h-1zM29 17h1v1h-1zM30 17h1v1h-1z"/><path fill="#96844E" d="M31 17h1v1h-1z"/><path fill="#2B1F19" d="M32 17h1v1h-1z"/><path fill="#231815" d="M33 17h1v1h-1zM34 17h1v1h-1z"/><path fill="#652E2C" d="M35 17h1v1h-1z"/><path fill="#D35252" d="M36 17h1v1h-1zM37 17h1v1h-1zM38 17h1v1h-1zM39 17h1v1h-1zM40 17h1v1h-1zM41 17h1v1h-1zM42 17h1v1h-1zM43 17h1v1h-1zM44 17h1v1h-1zM45 17h1v1h-1zM46 17h1v1h-1zM47 17h1v1h-1zM48 17h1v1h-1zM49 17h1v1h-1zM50 17h1v1h-1zM51 17h1v1h-1zM52 17h1v1h-1z"/><path fill="#863937" d="M53 17h1v1h-1z"/><path fill="#231815" d="M54 17h1v1h-1zM55 17h1v1h-1zM56 17h1v1h-1zM57 17h1v1h-1zM1 18h1v1H1zM2 18h1v1H2zM3 18h1v1H3z"/><path fill="#3D2624" d="M4 18h1v1H4z"/><path fill="#EF858C" d="M5 18h1v1H5zM6 18h1v1H6zM7 18h1v1H7zM8 18h1v1H8zM9 18h1v1H9zM10 18h1v1h-1zM11 18h1v1h-1zM12 18h1v1h-1z"/><path fill="#EE8389" d="M13 18h1v1h-1z"/><path fill="#8F4F4E" d="M14 18h1v1h-1z"/><path fill="#7C4B4B" d="M15 18h1v1h-1z"/><path fill="#8F4F4E" d="M16 18h1v1h-1z"/><path fill="#CD5654" d="M17 18h1v1h-1z"/><path fill="#D35252" d="M18 18h1v1h-1zM19 18h1v1h-1zM20 18h1v1h-1z"/><path fill="#442320" d="M21 18h1v1h-1z"/><path fill="#231815" d="M22 18h1v1h-1zM23 18h1v1h-1z"/><path fill="#615234" d="M24 18h1v1h-1z"/><path fill="#9E8B52" d="M25 18h1v1h-1zM26 18h1v1h-1zM27 18h1v1h-1zM28 18h1v1h-1zM29 18h1v1h-1zM30 18h1v1h-1z"/><path fill="#70603B" d="M31 18h1v1h-1z"/><path fill="#231815" d="M32 18h1v1h-1zM33 18h1v1h-1zM34 18h1v1h-1z"/><path fill="#BD4B4A" d="M35 18h1v1h-1z"/><path fill="#D35252" d="M36 18h1v1h-1zM37 18h1v1h-1zM38 18h1v1h-1z"/><path fill="#A24E4E" d="M39 18h1v1h-1z"/><path fill="#924D4D" d="M40 18h1v1h-1z"/><path fill="#B24F4F" d="M41 18h1v1h-1z"/><path fill="#D35252" d="M42 18h1v1h-1zM43 18h1v1h-1zM44 18h1v1h-1zM45 18h1v1h-1zM46 18h1v1h-1zM47 18h1v1h-1zM48 18h1v1h-1zM49 18h1v1h-1zM50 18h1v1h-1zM51 18h1v1h-1zM52 18h1v1h-1zM53 18h1v1h-1z"/><path fill="#4F2724" d="M54 18h1v1h-1z"/><path fill="#231815" d="M55 18h1v1h-1zM56 18h1v1h-1zM57 18h1v1h-1zM0 19h1v1H0zM1 19h1v1H1zM2 19h1v1H2zM3 19h1v1H3z"/><path fill="#A35C5F" d="M4 19h1v1H4z"/><path fill="#EF858C" d="M5 19h1v1H5zM6 19h1v1H6zM7 19h1v1H7zM8 19h1v1H8zM9 19h1v1H9zM10 19h1v1h-1zM11 19h1v1h-1zM12 19h1v1h-1z"/><path fill="#E17E84" d="M13 19h1v1h-1z"/><path fill="#7C4B4B" d="M14 19h1v1h-1zM15 19h1v1h-1zM16 19h1v1h-1z"/><path fill="#824C4C" d="M17 19h1v1h-1z"/><path fill="#B35050" d="M18 19h1v1h-1z"/><path fill="#D35252" d="M19 19h1v1h-1zM20 19h1v1h-1z"/><path fill="#231815" d="M21 19h1v1h-1zM22 19h1v1h-1zM23 19h1v1h-1z"/><path fill="#78673F" d="M24 19h1v1h-1z"/><path fill="#9E8B52" d="M25 19h1v1h-1zM26 19h1v1h-1zM27 19h1v1h-1zM28 19h1v1h-1zM29 19h1v1h-1zM30 19h1v1h-1z"/><path fill="#493C28" d="M31 19h1v1h-1z"/><path fill="#231815" d="M32 19h1v1h-1zM33 19h1v1h-1z"/><path fill="#4F2724" d="M34 19h1v1h-1z"/><path fill="#D35252" d="M35 19h1v1h-1zM36 19h1v1h-1z"/><path fill="#C85151" d="M37 19h1v1h-1z"/><path fill="#974D4D" d="M38 19h1v1h-1z"/><path fill="#7C4B4B" d="M39 19h1v1h-1zM40 19h1v1h-1zM41 19h1v1h-1z"/><path fill="#D35252" d="M42 19h1v1h-1zM43 19h1v1h-1z"/><path fill="#D55454" d="M44 19h1v1h-1z"/><path fill="#D75656" d="M45 19h1v1h-1zM46 19h1v1h-1z"/><path fill="#D35252" d="M47 19h1v1h-1zM48 19h1v1h-1zM49 19h1v1h-1zM50 19h1v1h-1zM51 19h1v1h-1zM52 19h1v1h-1zM53 19h1v1h-1z"/><path fill="#9C403F" d="M54 19h1v1h-1z"/><path fill="#231815" d="M55 19h1v1h-1zM56 19h1v1h-1zM57 19h1v1h-1zM58 19h1v1h-1zM0 20h1v1H0zM1 20h1v1H1zM2 20h1v1H2zM3 20h1v1H3z"/><path fill="#E27E85" d="M4 20h1v1H4z"/><path fill="#EF858C" d="M5 20h1v1H5zM6 20h1v1H6zM7 20h1v1H7zM8 20h1v1H8zM9 20h1v1H9zM10 20h1v1h-1zM11 20h1v1h-1zM12 20h1v1h-1zM13 20h1v1h-1z"/><path fill="#925657" d="M14 20h1v1h-1z"/><path fill="#7C4B4B" d="M15 20h1v1h-1zM16 20h1v1h-1zM17 20h1v1h-1zM18 20h1v1h-1z"/><path fill="#874C4C" d="M19 20h1v1h-1z"/><path fill="#A24B4B" d="M20 20h1v1h-1z"/><path fill="#2E1E1C" d="M21 20h1v1h-1z"/><path fill="#231815" d="M22 20h1v1h-1zM23 20h1v1h-1z"/><path fill="#8F7D4A" d="M24 20h1v1h-1z"/><path fill="#9E8B52" d="M25 20h1v1h-1zM26 20h1v1h-1zM27 20h1v1h-1zM28 20h1v1h-1zM29 20h1v1h-1zM30 20h1v1h-1z"/><path fill="#231815" d="M31 20h1v1h-1zM32 20h1v1h-1zM33 20h1v1h-1z"/><path fill="#8C3C3B" d="M34 20h1v1h-1z"/><path fill="#B24F4F" d="M35 20h1v1h-1z"/><path fill="#974D4D" d="M36 20h1v1h-1z"/><path fill="#7C4B4B" d="M37 20h1v1h-1zM38 20h1v1h-1zM39 20h1v1h-1zM40 20h1v1h-1z"/><path fill="#894E4D" d="M41 20h1v1h-1z"/><path fill="#DA5857" d="M42 20h1v1h-1z"/><path fill="#DF5D5E" d="M43 20h1v1h-1z"/><path fill="#E36062" d="M44 20h1v1h-1zM45 20h1v1h-1zM46 20h1v1h-1z"/><path fill="#DF5D5E" d="M47 20h1v1h-1z"/><path fill="#D35252" d="M48 20h1v1h-1zM49 20h1v1h-1zM50 20h1v1h-1zM51 20h1v1h-1zM52 20h1v1h-1zM53 20h1v1h-1zM54 20h1v1h-1z"/><path fill="#391F1D" d="M55 20h1v1h-1z"/><path fill="#231815" d="M56 20h1v1h-1zM57 20h1v1h-1zM58 20h1v1h-1zM0 21h1v1H0zM1 21h1v1H1zM2 21h1v1H2z"/><path fill="#563333" d="M3 21h1v1H3z"/><path fill="#EF858C" d="M4 21h1v1H4zM5 21h1v1H5zM6 21h1v1H6zM7 21h1v1H7zM8 21h1v1H8zM9 21h1v1H9z"/><path fill="#F4ABB0" d="M10 21h1v1h-1z"/><path fill="#FCE8E9" d="M11 21h1v1h-1z"/><path fill="#FFF" d="M12 21h1v1h-1z"/><path fill="#F7C2C6" d="M13 21h1v1h-1z"/><path fill="#EF858C" d="M14 21h1v1h-1z"/><path fill="#A76163" d="M15 21h1v1h-1z"/><path fill="#7C4B4B" d="M16 21h1v1h-1zM17 21h1v1h-1zM18 21h1v1h-1zM19 21h1v1h-1zM20 21h1v1h-1zM21 21h1v1h-1z"/><path fill="#714544" d="M22 21h1v1h-1z"/><path fill="#603B3A" d="M23 21h1v1h-1z"/><path fill="#8D6B4F" d="M24 21h1v1h-1z"/><path fill="#8F6F4F" d="M25 21h1v1h-1z"/><path fill="#967B50" d="M26 21h1v1h-1zM27 21h1v1h-1zM28 21h1v1h-1zM29 21h1v1h-1z"/><path fill="#8A6C4C" d="M30 21h1v1h-1z"/><path fill="#503230" d="M31 21h1v1h-1z"/><path fill="#5B3837" d="M32 21h1v1h-1z"/><path fill="#6B4141" d="M33 21h1v1h-1z"/><path fill="#7C4B4B" d="M34 21h1v1h-1zM35 21h1v1h-1zM36 21h1v1h-1zM37 21h1v1h-1zM38 21h1v1h-1zM39 21h1v1h-1z"/><path fill="#894E4D" d="M40 21h1v1h-1z"/><path fill="#D05C5A" d="M41 21h1v1h-1z"/><path fill="#E36062" d="M42 21h1v1h-1zM43 21h1v1h-1zM44 21h1v1h-1zM45 21h1v1h-1zM46 21h1v1h-1zM47 21h1v1h-1z"/><path fill="#D35252" d="M48 21h1v1h-1zM49 21h1v1h-1zM50 21h1v1h-1zM51 21h1v1h-1zM52 21h1v1h-1zM53 21h1v1h-1zM54 21h1v1h-1z"/><path fill="#652E2C" d="M55 21h1v1h-1z"/><path fill="#231815" d="M56 21h1v1h-1zM57 21h1v1h-1zM58 21h1v1h-1zM0 22h1v1H0zM1 22h1v1H1zM2 22h1v1H2z"/><path fill="#894F51" d="M3 22h1v1H3z"/><path fill="#EF858C" d="M4 22h1v1H4zM5 22h1v1H5zM6 22h1v1H6zM7 22h1v1H7zM8 22h1v1H8z"/><path fill="#F5B3B7" d="M9 22h1v1H9z"/><path fill="#FFF" d="M10 22h1v1h-1zM11 22h1v1h-1zM12 22h1v1h-1zM13 22h1v1h-1z"/><path fill="#EF858C" d="M14 22h1v1h-1zM15 22h1v1h-1z"/><path fill="#C95B57" d="M16 22h1v1h-1z"/><path fill="#894E4D" d="M17 22h1v1h-1z"/><path fill="#7C4B4B" d="M18 22h1v1h-1zM19 22h1v1h-1zM20 22h1v1h-1zM21 22h1v1h-1zM22 22h1v1h-1zM23 22h1v1h-1zM24 22h1v1h-1zM25 22h1v1h-1zM26 22h1v1h-1zM27 22h1v1h-1zM28 22h1v1h-1zM29 22h1v1h-1zM30 22h1v1h-1zM31 22h1v1h-1zM32 22h1v1h-1zM33 22h1v1h-1zM34 22h1v1h-1zM35 22h1v1h-1zM36 22h1v1h-1zM37 22h1v1h-1zM38 22h1v1h-1z"/><path fill="#A95452" d="M39 22h1v1h-1z"/><path fill="#DD5F5A" d="M40 22h1v1h-1z"/><path fill="#E36060" d="M41 22h1v1h-1z"/><path fill="#E36062" d="M42 22h1v1h-1zM43 22h1v1h-1zM44 22h1v1h-1zM45 22h1v1h-1zM46 22h1v1h-1z"/><path fill="#DD5B5C" d="M47 22h1v1h-1z"/><path fill="#D35252" d="M48 22h1v1h-1zM49 22h1v1h-1zM50 22h1v1h-1zM51 22h1v1h-1zM52 22h1v1h-1zM53 22h1v1h-1zM54 22h1v1h-1z"/><path fill="#863937" d="M55 22h1v1h-1z"/><path fill="#231815" d="M56 22h1v1h-1zM57 22h1v1h-1zM58 22h1v1h-1zM0 23h1v1H0zM1 23h1v1H1zM2 23h1v1H2z"/><path fill="#AF6367" d="M3 23h1v1H3z"/><path fill="#EF858C" d="M4 23h1v1H4zM5 23h1v1H5zM6 23h1v1H6zM7 23h1v1H7z"/><path fill="#F1949A" d="M8 23h1v1H8z"/><path fill="#FFF" d="M9 23h1v1H9zM10 23h1v1h-1zM11 23h1v1h-1zM12 23h1v1h-1z"/><path fill="#FEF7F8" d="M13 23h1v1h-1z"/><path fill="#EF858C" d="M14 23h1v1h-1zM15 23h1v1h-1z"/><path fill="#E3605B" d="M16 23h1v1h-1zM17 23h1v1h-1z"/><path fill="#C35956" d="M18 23h1v1h-1z"/><path fill="#9C5250" d="M19 23h1v1h-1z"/><path fill="#7C4B4B" d="M20 23h1v1h-1zM21 23h1v1h-1zM22 23h1v1h-1zM23 23h1v1h-1zM24 23h1v1h-1zM25 23h1v1h-1zM26 23h1v1h-1zM27 23h1v1h-1zM28 23h1v1h-1zM29 23h1v1h-1zM30 23h1v1h-1zM31 23h1v1h-1zM32 23h1v1h-1zM33 23h1v1h-1zM34 23h1v1h-1zM35 23h1v1h-1z"/><path fill="#8F4F4E" d="M36 23h1v1h-1z"/><path fill="#B65754" d="M37 23h1v1h-1z"/><path fill="#D65D59" d="M38 23h1v1h-1z"/><path fill="#E3605B" d="M39 23h1v1h-1zM40 23h1v1h-1z"/><path fill="#E36060" d="M41 23h1v1h-1z"/><path fill="#E36062" d="M42 23h1v1h-1zM43 23h1v1h-1zM44 23h1v1h-1zM45 23h1v1h-1z"/><path fill="#DE5C5D" d="M46 23h1v1h-1z"/><path fill="#D45353" d="M47 23h1v1h-1z"/><path fill="#D35252" d="M48 23h1v1h-1zM49 23h1v1h-1zM50 23h1v1h-1zM51 23h1v1h-1zM52 23h1v1h-1zM53 23h1v1h-1zM54 23h1v1h-1z"/><path fill="#A74443" d="M55 23h1v1h-1z"/><path fill="#231815" d="M56 23h1v1h-1zM57 23h1v1h-1zM58 23h1v1h-1zM0 24h1v1H0zM1 24h1v1H1zM2 24h1v1H2z"/><path fill="#BC6A6E" d="M3 24h1v1H3z"/><path fill="#EF858C" d="M4 24h1v1H4zM5 24h1v1H5zM6 24h1v1H6zM7 24h1v1H7z"/><path fill="#F7C2C6" d="M8 24h1v1H8z"/><path fill="#FFF" d="M9 24h1v1H9zM10 24h1v1h-1zM11 24h1v1h-1zM12 24h1v1h-1z"/><path fill="#F9D1D4" d="M13 24h1v1h-1z"/><path fill="#EF858C" d="M14 24h1v1h-1zM15 24h1v1h-1z"/><path fill="#E3605B" d="M16 24h1v1h-1zM17 24h1v1h-1zM18 24h1v1h-1zM19 24h1v1h-1zM20 24h1v1h-1z"/><path fill="#C95B57" d="M21 24h1v1h-1z"/><path fill="#B05653" d="M22 24h1v1h-1z"/><path fill="#9C5250" d="M23 24h1v1h-1z"/><path fill="#96504F" d="M24 24h1v1h-1z"/><path fill="#8F4F4E" d="M25 24h1v1h-1z"/><path fill="#7C4B4B" d="M26 24h1v1h-1zM27 24h1v1h-1zM28 24h1v1h-1zM29 24h1v1h-1z"/><path fill="#96504F" d="M30 24h1v1h-1zM31 24h1v1h-1z"/><path fill="#9C5250" d="M32 24h1v1h-1z"/><path fill="#B05653" d="M33 24h1v1h-1z"/><path fill="#C35956" d="M34 24h1v1h-1z"/><path fill="#DD5F5A" d="M35 24h1v1h-1z"/><path fill="#E3605B" d="M36 24h1v1h-1zM37 24h1v1h-1zM38 24h1v1h-1zM39 24h1v1h-1zM40 24h1v1h-1z"/><path fill="#D65554" d="M41 24h1v1h-1z"/><path fill="#DB595A" d="M42 24h1v1h-1zM43 24h1v1h-1zM44 24h1v1h-1z"/><path fill="#D65555" d="M45 24h1v1h-1z"/><path fill="#D35252" d="M46 24h1v1h-1zM47 24h1v1h-1zM48 24h1v1h-1zM49 24h1v1h-1zM50 24h1v1h-1zM51 24h1v1h-1zM52 24h1v1h-1zM53 24h1v1h-1zM54 24h1v1h-1z"/><path fill="#A74443" d="M55 24h1v1h-1z"/><path fill="#231815" d="M56 24h1v1h-1zM57 24h1v1h-1zM58 24h1v1h-1zM0 25h1v1H0zM1 25h1v1H1zM2 25h1v1H2z"/><path fill="#BB6568" d="M3 25h1v1H3z"/><path fill="#EF858C" d="M4 25h1v1H4zM5 25h1v1H5zM6 25h1v1H6zM7 25h1v1H7z"/><path fill="#F9D1D4" d="M8 25h1v1H8z"/><path fill="#FFF" d="M9 25h1v1H9zM10 25h1v1h-1zM11 25h1v1h-1z"/><path fill="#FDF0F1" d="M12 25h1v1h-1z"/><path fill="#F08D93" d="M13 25h1v1h-1z"/><path fill="#EF858C" d="M14 25h1v1h-1z"/><path fill="#ED7E83" d="M15 25h1v1h-1z"/><path fill="#E3605B" d="M16 25h1v1h-1zM17 25h1v1h-1zM18 25h1v1h-1zM19 25h1v1h-1zM20 25h1v1h-1zM21 25h1v1h-1zM22 25h1v1h-1zM23 25h1v1h-1zM24 25h1v1h-1zM25 25h1v1h-1zM26 25h1v1h-1zM27 25h1v1h-1zM28 25h1v1h-1zM29 25h1v1h-1zM30 25h1v1h-1zM31 25h1v1h-1zM32 25h1v1h-1zM33 25h1v1h-1zM34 25h1v1h-1zM35 25h1v1h-1zM36 25h1v1h-1zM37 25h1v1h-1zM38 25h1v1h-1zM39 25h1v1h-1z"/><path fill="#DD5B58" d="M40 25h1v1h-1z"/><path fill="#D35252" d="M41 25h1v1h-1zM42 25h1v1h-1zM43 25h1v1h-1zM44 25h1v1h-1zM45 25h1v1h-1zM46 25h1v1h-1zM47 25h1v1h-1zM48 25h1v1h-1zM49 25h1v1h-1zM50 25h1v1h-1zM51 25h1v1h-1zM52 25h1v1h-1zM53 25h1v1h-1zM54 25h1v1h-1z"/><path fill="#A74443" d="M55 25h1v1h-1z"/><path fill="#231815" d="M56 25h1v1h-1zM57 25h1v1h-1zM58 25h1v1h-1zM0 26h1v1H0zM1 26h1v1H1zM2 26h1v1H2z"/><path fill="#793E3D" d="M3 26h1v1H3z"/><path fill="#EF858C" d="M4 26h1v1H4zM5 26h1v1H5zM6 26h1v1H6zM7 26h1v1H7z"/><path fill="#F5B3B7" d="M8 26h1v1H8z"/><path fill="#FFF" d="M9 26h1v1H9zM10 26h1v1h-1z"/><path fill="#FBE1E2" d="M11 26h1v1h-1z"/><path fill="#F1949A" d="M12 26h1v1h-1z"/><path fill="#EF858C" d="M13 26h1v1h-1zM14 26h1v1h-1z"/><path fill="#EB777A" d="M15 26h1v1h-1z"/><path fill="#E3605B" d="M16 26h1v1h-1zM17 26h1v1h-1zM18 26h1v1h-1zM19 26h1v1h-1zM20 26h1v1h-1zM21 26h1v1h-1zM22 26h1v1h-1zM23 26h1v1h-1zM24 26h1v1h-1zM25 26h1v1h-1zM26 26h1v1h-1zM27 26h1v1h-1zM28 26h1v1h-1zM29 26h1v1h-1zM30 26h1v1h-1zM31 26h1v1h-1zM32 26h1v1h-1zM33 26h1v1h-1zM34 26h1v1h-1zM35 26h1v1h-1zM36 26h1v1h-1zM37 26h1v1h-1zM38 26h1v1h-1z"/><path fill="#E25F5A" d="M39 26h1v1h-1z"/><path fill="#D45353" d="M40 26h1v1h-1z"/><path fill="#D35252" d="M41 26h1v1h-1zM42 26h1v1h-1zM43 26h1v1h-1zM44 26h1v1h-1zM45 26h1v1h-1zM46 26h1v1h-1zM47 26h1v1h-1zM48 26h1v1h-1zM49 26h1v1h-1zM50 26h1v1h-1zM51 26h1v1h-1zM52 26h1v1h-1zM53 26h1v1h-1zM54 26h1v1h-1z"/><path fill="#863937" d="M55 26h1v1h-1z"/><path fill="#231815" d="M56 26h1v1h-1zM57 26h1v1h-1zM58 26h1v1h-1zM0 27h1v1H0zM1 27h1v1H1zM2 27h1v1H2z"/><path fill="#2F1D19" d="M3 27h1v1H3z"/><path fill="#C46060" d="M4 27h1v1H4z"/><path fill="#EF858C" d="M5 27h1v1H5zM6 27h1v1H6zM7 27h1v1H7z"/><path fill="#C97176" d="M8 27h1v1H8z"/><path fill="#BF8184" d="M9 27h1v1H9z"/><path fill="#CC878B" d="M10 27h1v1h-1z"/><path fill="#EF858C" d="M11 27h1v1h-1zM12 27h1v1h-1zM13 27h1v1h-1zM14 27h1v1h-1z"/><path fill="#E66967" d="M15 27h1v1h-1z"/><path fill="#E3605B" d="M16 27h1v1h-1zM17 27h1v1h-1zM18 27h1v1h-1zM19 27h1v1h-1zM20 27h1v1h-1zM21 27h1v1h-1zM22 27h1v1h-1zM23 27h1v1h-1zM24 27h1v1h-1zM25 27h1v1h-1zM26 27h1v1h-1zM27 27h1v1h-1zM28 27h1v1h-1zM29 27h1v1h-1zM30 27h1v1h-1zM31 27h1v1h-1zM32 27h1v1h-1zM33 27h1v1h-1zM34 27h1v1h-1zM35 27h1v1h-1zM36 27h1v1h-1zM37 27h1v1h-1zM38 27h1v1h-1z"/><path fill="#D95755" d="M39 27h1v1h-1z"/><path fill="#D35252" d="M40 27h1v1h-1zM41 27h1v1h-1zM42 27h1v1h-1zM43 27h1v1h-1zM44 27h1v1h-1zM45 27h1v1h-1zM46 27h1v1h-1zM47 27h1v1h-1zM48 27h1v1h-1zM49 27h1v1h-1zM50 27h1v1h-1zM51 27h1v1h-1zM52 27h1v1h-1zM53 27h1v1h-1zM54 27h1v1h-1z"/><path fill="#442320" d="M55 27h1v1h-1z"/><path fill="#231815" d="M56 27h1v1h-1zM57 27h1v1h-1zM58 27h1v1h-1zM0 28h1v1H0zM1 28h1v1H1zM2 28h1v1H2zM3 28h1v1H3zM4 28h1v1H4z"/><path fill="#492C2B" d="M5 28h1v1H5zM6 28h1v1H6z"/><path fill="#231815" d="M7 28h1v1H7zM8 28h1v1H8zM9 28h1v1H9zM10 28h1v1h-1zM11 28h1v1h-1z"/><path fill="#633A3A" d="M12 28h1v1h-1z"/><path fill="#BC6A6E" d="M13 28h1v1h-1z"/><path fill="#EC7C80" d="M14 28h1v1h-1z"/><path fill="#E3605B" d="M15 28h1v1h-1zM16 28h1v1h-1zM17 28h1v1h-1zM18 28h1v1h-1zM19 28h1v1h-1zM20 28h1v1h-1zM21 28h1v1h-1zM22 28h1v1h-1zM23 28h1v1h-1zM24 28h1v1h-1zM25 28h1v1h-1zM26 28h1v1h-1zM27 28h1v1h-1zM28 28h1v1h-1zM29 28h1v1h-1zM30 28h1v1h-1zM31 28h1v1h-1zM32 28h1v1h-1zM33 28h1v1h-1zM34 28h1v1h-1zM35 28h1v1h-1zM36 28h1v1h-1zM37 28h1v1h-1z"/><path fill="#DD5B58" d="M38 28h1v1h-1z"/><path fill="#D35252" d="M39 28h1v1h-1zM40 28h1v1h-1zM41 28h1v1h-1zM42 28h1v1h-1zM43 28h1v1h-1zM44 28h1v1h-1zM45 28h1v1h-1zM46 28h1v1h-1zM47 28h1v1h-1zM48 28h1v1h-1zM49 28h1v1h-1zM50 28h1v1h-1zM51 28h1v1h-1zM52 28h1v1h-1zM53 28h1v1h-1z"/><path fill="#913C3B" d="M54 28h1v1h-1z"/><path fill="#231815" d="M55 28h1v1h-1zM56 28h1v1h-1zM57 28h1v1h-1zM58 28h1v1h-1zM1 29h1v1H1zM2 29h1v1H2zM3 29h1v1H3zM4 29h1v1H4zM5 29h1v1H5zM6 29h1v1H6zM7 29h1v1H7zM8 29h1v1H8zM9 29h1v1H9zM10 29h1v1h-1zM11 29h1v1h-1zM12 29h1v1h-1zM13 29h1v1h-1z"/><path fill="#8C4A49" d="M14 29h1v1h-1z"/><path fill="#DD5F5A" d="M15 29h1v1h-1z"/><path fill="#E3605B" d="M16 29h1v1h-1zM17 29h1v1h-1zM18 29h1v1h-1zM19 29h1v1h-1zM20 29h1v1h-1zM21 29h1v1h-1zM22 29h1v1h-1zM23 29h1v1h-1zM24 29h1v1h-1zM25 29h1v1h-1zM26 29h1v1h-1zM27 29h1v1h-1zM28 29h1v1h-1zM29 29h1v1h-1zM30 29h1v1h-1zM31 29h1v1h-1zM32 29h1v1h-1zM33 29h1v1h-1zM34 29h1v1h-1zM35 29h1v1h-1zM36 29h1v1h-1z"/><path fill="#E05D59" d="M37 29h1v1h-1z"/><path fill="#D45353" d="M38 29h1v1h-1z"/><path fill="#D35252" d="M39 29h1v1h-1z"/><path fill="#BD5050" d="M40 29h1v1h-1z"/><path fill="#AD4F4F" d="M41 29h1v1h-1z"/><path fill="#A24E4E" d="M42 29h1v1h-1z"/><path fill="#924D4D" d="M43 29h1v1h-1zM44 29h1v1h-1zM45 29h1v1h-1zM46 29h1v1h-1zM47 29h1v1h-1zM48 29h1v1h-1zM49 29h1v1h-1z"/><path fill="#8C4A49" d="M50 29h1v1h-1z"/><path fill="#6B3635" d="M51 29h1v1h-1z"/><path fill="#4F2724" d="M52 29h1v1h-1z"/><path fill="#391F1D" d="M53 29h1v1h-1z"/><path fill="#231815" d="M54 29h1v1h-1zM55 29h1v1h-1zM56 29h1v1h-1zM57 29h1v1h-1zM58 29h1v1h-1zM2 30h1v1H2zM3 30h1v1H3zM4 30h1v1H4zM5 30h1v1H5zM6 30h1v1H6zM7 30h1v1H7zM8 30h1v1H8zM9 30h1v1H9zM10 30h1v1h-1zM11 30h1v1h-1zM12 30h1v1h-1zM13 30h1v1h-1z"/><path fill="#663E3E" d="M14 30h1v1h-1z"/><path fill="#8F4F4E" d="M15 30h1v1h-1z"/><path fill="#D05C58" d="M16 30h1v1h-1z"/><path fill="#E3605B" d="M17 30h1v1h-1zM18 30h1v1h-1zM19 30h1v1h-1zM20 30h1v1h-1zM21 30h1v1h-1zM22 30h1v1h-1zM23 30h1v1h-1zM24 30h1v1h-1zM25 30h1v1h-1zM26 30h1v1h-1zM27 30h1v1h-1zM28 30h1v1h-1zM29 30h1v1h-1zM30 30h1v1h-1zM31 30h1v1h-1zM32 30h1v1h-1zM33 30h1v1h-1zM34 30h1v1h-1zM35 30h1v1h-1z"/><path fill="#E05D59" d="M36 30h1v1h-1z"/><path fill="#BE5151" d="M37 30h1v1h-1z"/><path fill="#9D4E4E" d="M38 30h1v1h-1z"/><path fill="#814B4B" d="M39 30h1v1h-1z"/><path fill="#7C4B4B" d="M40 30h1v1h-1zM41 30h1v1h-1zM42 30h1v1h-1zM43 30h1v1h-1zM44 30h1v1h-1zM45 30h1v1h-1zM46 30h1v1h-1zM47 30h1v1h-1z"/><path fill="#764848" d="M48 30h1v1h-1z"/><path fill="#503230" d="M49 30h1v1h-1z"/><path fill="#291B18" d="M50 30h1v1h-1z"/><path fill="#231815" d="M51 30h1v1h-1zM52 30h1v1h-1zM53 30h1v1h-1zM54 30h1v1h-1zM55 30h1v1h-1zM56 30h1v1h-1zM57 30h1v1h-1zM3 31h1v1H3zM4 31h1v1H4zM5 31h1v1H5zM6 31h1v1H6zM7 31h1v1H7zM8 31h1v1H8zM9 31h1v1H9z"/><path fill="#7D7E67" d="M10 31h1v1h-1z"/><path fill="#828669" d="M11 31h1v1h-1z"/><path fill="#3E2E29" d="M12 31h1v1h-1z"/><path fill="#4A2E2D" d="M13 31h1v1h-1z"/><path fill="#7C4B4B" d="M14 31h1v1h-1zM15 31h1v1h-1z"/><path fill="#824C4C" d="M16 31h1v1h-1z"/><path fill="#C35956" d="M17 31h1v1h-1z"/><path fill="#E3605B" d="M18 31h1v1h-1zM19 31h1v1h-1zM20 31h1v1h-1zM21 31h1v1h-1zM22 31h1v1h-1zM23 31h1v1h-1zM24 31h1v1h-1zM25 31h1v1h-1zM26 31h1v1h-1zM27 31h1v1h-1zM28 31h1v1h-1zM29 31h1v1h-1zM30 31h1v1h-1zM31 31h1v1h-1zM32 31h1v1h-1zM33 31h1v1h-1zM34 31h1v1h-1z"/><path fill="#C95B57" d="M35 31h1v1h-1z"/><path fill="#934E4D" d="M36 31h1v1h-1z"/><path fill="#7C4B4B" d="M37 31h1v1h-1zM38 31h1v1h-1zM39 31h1v1h-1zM40 31h1v1h-1zM41 31h1v1h-1zM42 31h1v1h-1zM43 31h1v1h-1zM44 31h1v1h-1zM45 31h1v1h-1zM46 31h1v1h-1z"/><path fill="#663E3E" d="M47 31h1v1h-1z"/><path fill="#2E1E1C" d="M48 31h1v1h-1z"/><path fill="#231815" d="M49 31h1v1h-1zM50 31h1v1h-1zM51 31h1v1h-1zM52 31h1v1h-1zM53 31h1v1h-1zM54 31h1v1h-1zM55 31h1v1h-1zM56 31h1v1h-1zM6 32h1v1H6zM7 32h1v1H7zM8 32h1v1H8zM9 32h1v1H9zM10 32h1v1h-1z"/><path fill="#8C9273" d="M11 32h1v1h-1z"/><path fill="#C6D2A5" d="M12 32h1v1h-1z"/><path fill="#906F63" d="M13 32h1v1h-1z"/><path fill="#7C4B4B" d="M14 32h1v1h-1zM15 32h1v1h-1zM16 32h1v1h-1zM17 32h1v1h-1z"/><path fill="#96504F" d="M18 32h1v1h-1z"/><path fill="#BC5855" d="M19 32h1v1h-1z"/><path fill="#E3605B" d="M20 32h1v1h-1zM21 32h1v1h-1zM22 32h1v1h-1zM23 32h1v1h-1zM24 32h1v1h-1zM25 32h1v1h-1zM26 32h1v1h-1zM27 32h1v1h-1zM28 32h1v1h-1zM29 32h1v1h-1zM30 32h1v1h-1zM31 32h1v1h-1z"/><path fill="#D65D59" d="M32 32h1v1h-1z"/><path fill="#B65754" d="M33 32h1v1h-1z"/><path fill="#8F4F4E" d="M34 32h1v1h-1z"/><path fill="#7C4B4B" d="M35 32h1v1h-1zM36 32h1v1h-1zM37 32h1v1h-1zM38 32h1v1h-1zM39 32h1v1h-1zM40 32h1v1h-1z"/><path fill="#815451" d="M41 32h1v1h-1z"/><path fill="#906F63" d="M42 32h1v1h-1z"/><path fill="#A4937B" d="M43 32h1v1h-1zM44 32h1v1h-1zM45 32h1v1h-1z"/><path fill="#543B36" d="M46 32h1v1h-1z"/><path fill="#231815" d="M47 32h1v1h-1zM48 32h1v1h-1zM49 32h1v1h-1zM50 32h1v1h-1zM51 32h1v1h-1zM52 32h1v1h-1z"/><path fill="#2E1E1C" d="M53 32h1v1h-1z"/><path fill="#412927" d="M54 32h1v1h-1z"/><path fill="#231815" d="M55 32h1v1h-1zM7 33h1v1H7zM8 33h1v1H8zM9 33h1v1H9zM10 33h1v1h-1z"/><path fill="#2E241E" d="M11 33h1v1h-1z"/><path fill="#ACB68F" d="M12 33h1v1h-1z"/><path fill="#CBDBAB" d="M13 33h1v1h-1z"/><path fill="#9A816F" d="M14 33h1v1h-1z"/><path fill="#7C4B4B" d="M15 33h1v1h-1zM16 33h1v1h-1zM17 33h1v1h-1zM18 33h1v1h-1zM19 33h1v1h-1zM20 33h1v1h-1z"/><path fill="#96504F" d="M21 33h1v1h-1z"/><path fill="#B05653" d="M22 33h1v1h-1z"/><path fill="#C35956" d="M23 33h1v1h-1z"/><path fill="#C95B57" d="M24 33h1v1h-1zM25 33h1v1h-1zM26 33h1v1h-1zM27 33h1v1h-1zM28 33h1v1h-1z"/><path fill="#B05653" d="M29 33h1v1h-1z"/><path fill="#A35351" d="M30 33h1v1h-1z"/><path fill="#8F4F4E" d="M31 33h1v1h-1z"/><path fill="#7C4B4B" d="M32 33h1v1h-1zM33 33h1v1h-1zM34 33h1v1h-1zM35 33h1v1h-1zM36 33h1v1h-1zM37 33h1v1h-1z"/><path fill="#8A605C" d="M38 33h1v1h-1z"/><path fill="#B29E8B" d="M39 33h1v1h-1z"/><path fill="#BEC29B" d="M40 33h1v1h-1z"/><path fill="#CBDBAB" d="M41 33h1v1h-1zM42 33h1v1h-1zM43 33h1v1h-1z"/><path fill="#C1CFA2" d="M44 33h1v1h-1z"/><path fill="#585544" d="M45 33h1v1h-1z"/><path fill="#231815" d="M46 33h1v1h-1zM47 33h1v1h-1zM48 33h1v1h-1zM49 33h1v1h-1zM50 33h1v1h-1zM51 33h1v1h-1zM8 34h1v1H8zM9 34h1v1H9zM10 34h1v1h-1zM11 34h1v1h-1z"/><path fill="#2E241E" d="M12 34h1v1h-1z"/><path fill="#ACB68F" d="M13 34h1v1h-1z"/><path fill="#CBDBAB" d="M14 34h1v1h-1z"/><path fill="#C0B99D" d="M15 34h1v1h-1z"/><path fill="#8A605C" d="M16 34h1v1h-1z"/><path fill="#7C4B4B" d="M17 34h1v1h-1zM18 34h1v1h-1zM19 34h1v1h-1zM20 34h1v1h-1zM21 34h1v1h-1zM22 34h1v1h-1zM23 34h1v1h-1zM24 34h1v1h-1zM25 34h1v1h-1zM26 34h1v1h-1zM27 34h1v1h-1zM28 34h1v1h-1zM29 34h1v1h-1zM30 34h1v1h-1zM31 34h1v1h-1zM32 34h1v1h-1zM33 34h1v1h-1zM34 34h1v1h-1zM35 34h1v1h-1z"/><path fill="#8A605C" d="M36 34h1v1h-1z"/><path fill="#BAAA95" d="M37 34h1v1h-1z"/><path fill="#EBF3CF" d="M38 34h1v1h-1zM39 34h1v1h-1z"/><path fill="#DBE7BD" d="M40 34h1v1h-1z"/><path fill="#CBDBAB" d="M41 34h1v1h-1zM42 34h1v1h-1z"/><path fill="#C1CFA2" d="M43 34h1v1h-1z"/><path fill="#433D31" d="M44 34h1v1h-1z"/><path fill="#231815" d="M45 34h1v1h-1zM46 34h1v1h-1zM47 34h1v1h-1zM48 34h1v1h-1zM49 34h1v1h-1zM9 35h1v1H9zM10 35h1v1h-1zM11 35h1v1h-1zM12 35h1v1h-1z"/><path fill="#2E241E" d="M13 35h1v1h-1z"/><path fill="#BAC19F" d="M14 35h1v1h-1z"/><path fill="#EBF3CF" d="M15 35h1v1h-1zM16 35h1v1h-1z"/><path fill="#C1B49E" d="M17 35h1v1h-1z"/><path fill="#916B64" d="M18 35h1v1h-1z"/><path fill="#7C4B4B" d="M19 35h1v1h-1zM20 35h1v1h-1zM21 35h1v1h-1zM22 35h1v1h-1zM23 35h1v1h-1zM24 35h1v1h-1zM25 35h1v1h-1zM26 35h1v1h-1zM27 35h1v1h-1zM28 35h1v1h-1zM29 35h1v1h-1zM30 35h1v1h-1zM31 35h1v1h-1zM32 35h1v1h-1zM33 35h1v1h-1z"/><path fill="#957869" d="M34 35h1v1h-1z"/><path fill="#ADA587" d="M35 35h1v1h-1z"/><path fill="#E7F0CB" d="M36 35h1v1h-1z"/><path fill="#EBF3CF" d="M37 35h1v1h-1zM38 35h1v1h-1zM39 35h1v1h-1z"/><path fill="#D9E6BB" d="M40 35h1v1h-1z"/><path fill="#CBDBAB" d="M41 35h1v1h-1z"/><path fill="#C1CFA2" d="M42 35h1v1h-1z"/><path fill="#433D31" d="M43 35h1v1h-1z"/><path fill="#231815" d="M44 35h1v1h-1zM45 35h1v1h-1zM46 35h1v1h-1zM47 35h1v1h-1zM48 35h1v1h-1zM10 36h1v1h-1zM11 36h1v1h-1zM12 36h1v1h-1zM13 36h1v1h-1z"/><path fill="#302621" d="M14 36h1v1h-1z"/><path fill="#C6CAAC" d="M15 36h1v1h-1z"/><path fill="#EBF3CF" d="M16 36h1v1h-1zM17 36h1v1h-1zM18 36h1v1h-1z"/><path fill="#DDDEBF" d="M19 36h1v1h-1z"/><path fill="#BAAA95" d="M20 36h1v1h-1z"/><path fill="#A68A7D" d="M21 36h1v1h-1z"/><path fill="#927165" d="M22 36h1v1h-1z"/><path fill="#7C4B4B" d="M23 36h1v1h-1zM24 36h1v1h-1zM25 36h1v1h-1zM26 36h1v1h-1zM27 36h1v1h-1zM28 36h1v1h-1z"/><path fill="#8B665D" d="M29 36h1v1h-1z"/><path fill="#906F63" d="M30 36h1v1h-1z"/><path fill="#A4937B" d="M31 36h1v1h-1z"/><path fill="#B2AE8D" d="M32 36h1v1h-1z"/><path fill="#C6D2A5" d="M33 36h1v1h-1z"/><path fill="#CBDBAB" d="M34 36h1v1h-1z"/><path fill="#D3E1B4" d="M35 36h1v1h-1z"/><path fill="#EBF3CF" d="M36 36h1v1h-1zM37 36h1v1h-1zM38 36h1v1h-1z"/><path fill="#E9F2CD" d="M39 36h1v1h-1z"/><path fill="#CDDDAD" d="M40 36h1v1h-1z"/><path fill="#C1CFA2" d="M41 36h1v1h-1z"/><path fill="#433D31" d="M42 36h1v1h-1z"/><path fill="#231815" d="M43 36h1v1h-1zM44 36h1v1h-1zM45 36h1v1h-1zM46 36h1v1h-1zM47 36h1v1h-1zM11 37h1v1h-1zM12 37h1v1h-1zM13 37h1v1h-1zM14 37h1v1h-1z"/><path fill="#302621" d="M15 37h1v1h-1z"/><path fill="#C6CAAC" d="M16 37h1v1h-1z"/><path fill="#EBF3CF" d="M17 37h1v1h-1zM18 37h1v1h-1zM19 37h1v1h-1zM20 37h1v1h-1zM21 37h1v1h-1z"/><path fill="#E5EFC8" d="M22 37h1v1h-1z"/><path fill="#CDDDAD" d="M23 37h1v1h-1z"/><path fill="#CBDBAB" d="M24 37h1v1h-1zM25 37h1v1h-1zM26 37h1v1h-1zM27 37h1v1h-1zM28 37h1v1h-1zM29 37h1v1h-1zM30 37h1v1h-1zM31 37h1v1h-1zM32 37h1v1h-1zM33 37h1v1h-1zM34 37h1v1h-1z"/><path fill="#D3E1B4" d="M35 37h1v1h-1z"/><path fill="#EBF3CF" d="M36 37h1v1h-1zM37 37h1v1h-1z"/><path fill="#E9F2CD" d="M38 37h1v1h-1z"/><path fill="#D1E0B2" d="M39 37h1v1h-1z"/><path fill="#CBDBAB" d="M40 37h1v1h-1z"/><path fill="#585544" d="M41 37h1v1h-1z"/><path fill="#231815" d="M42 37h1v1h-1zM43 37h1v1h-1zM44 37h1v1h-1zM45 37h1v1h-1zM46 37h1v1h-1zM12 38h1v1h-1zM13 38h1v1h-1zM14 38h1v1h-1zM15 38h1v1h-1z"/><path fill="#302621" d="M16 38h1v1h-1z"/><path fill="#C6CAAC" d="M17 38h1v1h-1z"/><path fill="#EBF3CF" d="M18 38h1v1h-1zM19 38h1v1h-1zM20 38h1v1h-1zM21 38h1v1h-1zM22 38h1v1h-1z"/><path fill="#E1ECC4" d="M23 38h1v1h-1z"/><path fill="#CBDBAB" d="M24 38h1v1h-1zM25 38h1v1h-1zM26 38h1v1h-1zM27 38h1v1h-1zM28 38h1v1h-1zM29 38h1v1h-1zM30 38h1v1h-1zM31 38h1v1h-1zM32 38h1v1h-1zM33 38h1v1h-1zM34 38h1v1h-1zM35 38h1v1h-1z"/><path fill="#D7E4B9" d="M36 38h1v1h-1z"/><path fill="#D9E6BB" d="M37 38h1v1h-1z"/><path fill="#CDDDAD" d="M38 38h1v1h-1z"/><path fill="#CBDBAB" d="M39 38h1v1h-1z"/><path fill="#6D6D57" d="M40 38h1v1h-1z"/><path fill="#231815" d="M41 38h1v1h-1zM42 38h1v1h-1zM43 38h1v1h-1zM44 38h1v1h-1zM45 38h1v1h-1zM13 39h1v1h-1zM14 39h1v1h-1zM15 39h1v1h-1zM16 39h1v1h-1z"/><path fill="#302621" d="M17 39h1v1h-1z"/><path fill="#C6CAAC" d="M18 39h1v1h-1z"/><path fill="#EBF3CF" d="M19 39h1v1h-1zM20 39h1v1h-1zM21 39h1v1h-1zM22 39h1v1h-1zM23 39h1v1h-1z"/><path fill="#DBE7BD" d="M24 39h1v1h-1z"/><path fill="#CBDBAB" d="M25 39h1v1h-1zM26 39h1v1h-1zM27 39h1v1h-1zM28 39h1v1h-1zM29 39h1v1h-1zM30 39h1v1h-1zM31 39h1v1h-1zM32 39h1v1h-1zM33 39h1v1h-1zM34 39h1v1h-1zM35 39h1v1h-1zM36 39h1v1h-1zM37 39h1v1h-1zM38 39h1v1h-1z"/><path fill="#8C9273" d="M39 39h1v1h-1z"/><path fill="#231815" d="M40 39h1v1h-1zM41 39h1v1h-1zM42 39h1v1h-1zM43 39h1v1h-1zM44 39h1v1h-1zM14 40h1v1h-1zM15 40h1v1h-1zM16 40h1v1h-1zM17 40h1v1h-1z"/><path fill="#302621" d="M18 40h1v1h-1z"/><path fill="#A0A189" d="M19 40h1v1h-1z"/><path fill="#EBF3CF" d="M20 40h1v1h-1zM21 40h1v1h-1zM22 40h1v1h-1zM23 40h1v1h-1zM24 40h1v1h-1z"/><path fill="#CFDEB0" d="M25 40h1v1h-1z"/><path fill="#CBDBAB" d="M26 40h1v1h-1zM27 40h1v1h-1zM28 40h1v1h-1zM29 40h1v1h-1zM30 40h1v1h-1zM31 40h1v1h-1zM32 40h1v1h-1zM33 40h1v1h-1zM34 40h1v1h-1zM35 40h1v1h-1zM36 40h1v1h-1zM37 40h1v1h-1z"/><path fill="#B6C398" d="M38 40h1v1h-1z"/><path fill="#2E241E" d="M39 40h1v1h-1z"/><path fill="#231815" d="M40 40h1v1h-1zM41 40h1v1h-1zM42 40h1v1h-1zM43 40h1v1h-1zM15 41h1v1h-1zM16 41h1v1h-1zM17 41h1v1h-1zM18 41h1v1h-1zM19 41h1v1h-1z"/><path fill="#A0A189" d="M20 41h1v1h-1z"/><path fill="#EBF3CF" d="M21 41h1v1h-1zM22 41h1v1h-1zM23 41h1v1h-1zM24 41h1v1h-1z"/><path fill="#DFEAC2" d="M25 41h1v1h-1z"/><path fill="#CBDBAB" d="M26 41h1v1h-1zM27 41h1v1h-1zM28 41h1v1h-1zM29 41h1v1h-1zM30 41h1v1h-1zM31 41h1v1h-1zM32 41h1v1h-1zM33 41h1v1h-1zM34 41h1v1h-1zM35 41h1v1h-1zM36 41h1v1h-1zM37 41h1v1h-1z"/><path fill="#62614D" d="M38 41h1v1h-1z"/><path fill="#231815" d="M39 41h1v1h-1zM40 41h1v1h-1zM41 41h1v1h-1zM42 41h1v1h-1zM16 42h1v1h-1zM17 42h1v1h-1zM18 42h1v1h-1zM19 42h1v1h-1zM20 42h1v1h-1z"/><path fill="#EBF3CF" d="M21 42h1v1h-1zM22 42h1v1h-1zM23 42h1v1h-1zM24 42h1v1h-1z"/><path fill="#E5EFC8" d="M25 42h1v1h-1z"/><path fill="#CBDBAB" d="M26 42h1v1h-1zM27 42h1v1h-1zM28 42h1v1h-1zM29 42h1v1h-1zM30 42h1v1h-1zM31 42h1v1h-1zM32 42h1v1h-1zM33 42h1v1h-1zM34 42h1v1h-1zM35 42h1v1h-1zM36 42h1v1h-1zM37 42h1v1h-1z"/><path fill="#4D493B" d="M38 42h1v1h-1z"/><path fill="#231815" d="M39 42h1v1h-1zM40 42h1v1h-1zM41 42h1v1h-1zM17 43h1v1h-1zM18 43h1v1h-1zM19 43h1v1h-1zM20 43h1v1h-1z"/><path fill="#D2D8B8" d="M21 43h1v1h-1z"/><path fill="#EBF3CF" d="M22 43h1v1h-1zM23 43h1v1h-1zM24 43h1v1h-1zM25 43h1v1h-1z"/><path fill="#CBDBAB" d="M26 43h1v1h-1zM27 43h1v1h-1zM28 43h1v1h-1zM29 43h1v1h-1zM30 43h1v1h-1zM31 43h1v1h-1zM32 43h1v1h-1zM33 43h1v1h-1zM34 43h1v1h-1zM35 43h1v1h-1zM36 43h1v1h-1zM37 43h1v1h-1z"/><path fill="#383028" d="M38 43h1v1h-1z"/><path fill="#231815" d="M39 43h1v1h-1zM40 43h1v1h-1zM41 43h1v1h-1zM18 44h1v1h-1zM19 44h1v1h-1zM20 44h1v1h-1z"/><path fill="#B9BCA1" d="M21 44h1v1h-1z"/><path fill="#EBF3CF" d="M22 44h1v1h-1zM23 44h1v1h-1zM24 44h1v1h-1zM25 44h1v1h-1z"/><path fill="#D1E0B2" d="M26 44h1v1h-1z"/><path fill="#CBDBAB" d="M27 44h1v1h-1zM28 44h1v1h-1zM29 44h1v1h-1zM30 44h1v1h-1zM31 44h1v1h-1zM32 44h1v1h-1zM33 44h1v1h-1zM34 44h1v1h-1zM35 44h1v1h-1zM36 44h1v1h-1zM37 44h1v1h-1z"/><path fill="#231815" d="M38 44h1v1h-1zM39 44h1v1h-1zM40 44h1v1h-1zM41 44h1v1h-1zM18 45h1v1h-1zM19 45h1v1h-1zM20 45h1v1h-1z"/><path fill="#B9BCA1" d="M21 45h1v1h-1z"/><path fill="#EBF3CF" d="M22 45h1v1h-1zM23 45h1v1h-1zM24 45h1v1h-1zM25 45h1v1h-1z"/><path fill="#D3E1B4" d="M26 45h1v1h-1z"/><path fill="#CBDBAB" d="M27 45h1v1h-1zM28 45h1v1h-1zM29 45h1v1h-1zM30 45h1v1h-1zM31 45h1v1h-1zM32 45h1v1h-1zM33 45h1v1h-1zM34 45h1v1h-1zM35 45h1v1h-1zM36 45h1v1h-1zM37 45h1v1h-1z"/><path fill="#231815" d="M38 45h1v1h-1zM39 45h1v1h-1zM40 45h1v1h-1zM41 45h1v1h-1zM18 46h1v1h-1zM19 46h1v1h-1zM20 46h1v1h-1z"/><path fill="#ADAF95" d="M21 46h1v1h-1z"/><path fill="#EBF3CF" d="M22 46h1v1h-1zM23 46h1v1h-1zM24 46h1v1h-1zM25 46h1v1h-1z"/><path fill="#DBE7BD" d="M26 46h1v1h-1z"/><path fill="#CBDBAB" d="M27 46h1v1h-1zM28 46h1v1h-1zM29 46h1v1h-1zM30 46h1v1h-1zM31 46h1v1h-1zM32 46h1v1h-1zM33 46h1v1h-1zM34 46h1v1h-1zM35 46h1v1h-1zM36 46h1v1h-1z"/><path fill="#B6C398" d="M37 46h1v1h-1z"/><path fill="#231815" d="M38 46h1v1h-1zM39 46h1v1h-1zM40 46h1v1h-1zM41 46h1v1h-1zM18 47h1v1h-1zM19 47h1v1h-1zM20 47h1v1h-1z"/><path fill="#878672" d="M21 47h1v1h-1z"/><path fill="#EBF3CF" d="M22 47h1v1h-1zM23 47h1v1h-1zM24 47h1v1h-1zM25 47h1v1h-1z"/><path fill="#DBE7BD" d="M26 47h1v1h-1z"/><path fill="#CBDBAB" d="M27 47h1v1h-1zM28 47h1v1h-1zM29 47h1v1h-1zM30 47h1v1h-1zM31 47h1v1h-1zM32 47h1v1h-1zM33 47h1v1h-1zM34 47h1v1h-1zM35 47h1v1h-1zM36 47h1v1h-1z"/><path fill="#A1AA86" d="M37 47h1v1h-1z"/><path fill="#231815" d="M38 47h1v1h-1zM39 47h1v1h-1zM40 47h1v1h-1zM18 48h1v1h-1zM19 48h1v1h-1zM20 48h1v1h-1z"/><path fill="#878672" d="M21 48h1v1h-1z"/><path fill="#EBF3CF" d="M22 48h1v1h-1zM23 48h1v1h-1zM24 48h1v1h-1zM25 48h1v1h-1z"/><path fill="#E1ECC4" d="M26 48h1v1h-1z"/><path fill="#CBDBAB" d="M27 48h1v1h-1zM28 48h1v1h-1zM29 48h1v1h-1zM30 48h1v1h-1zM31 48h1v1h-1zM32 48h1v1h-1zM33 48h1v1h-1zM34 48h1v1h-1zM35 48h1v1h-1zM36 48h1v1h-1z"/><path fill="#A1AA86" d="M37 48h1v1h-1z"/><path fill="#231815" d="M38 48h1v1h-1zM39 48h1v1h-1zM40 48h1v1h-1zM18 49h1v1h-1zM19 49h1v1h-1zM20 49h1v1h-1z"/><path fill="#878672" d="M21 49h1v1h-1z"/><path fill="#EBF3CF" d="M22 49h1v1h-1zM23 49h1v1h-1zM24 49h1v1h-1zM25 49h1v1h-1z"/><path fill="#E3EDC6" d="M26 49h1v1h-1z"/><path fill="#CBDBAB" d="M27 49h1v1h-1zM28 49h1v1h-1zM29 49h1v1h-1zM30 49h1v1h-1zM31 49h1v1h-1zM32 49h1v1h-1zM33 49h1v1h-1zM34 49h1v1h-1zM35 49h1v1h-1zM36 49h1v1h-1z"/><path fill="#A1AA86" d="M37 49h1v1h-1z"/><path fill="#231815" d="M38 49h1v1h-1zM39 49h1v1h-1zM40 49h1v1h-1zM18 50h1v1h-1zM19 50h1v1h-1zM20 50h1v1h-1z"/><path fill="#878672" d="M21 50h1v1h-1z"/><path fill="#EBF3CF" d="M22 50h1v1h-1zM23 50h1v1h-1zM24 50h1v1h-1zM25 50h1v1h-1z"/><path fill="#E3EDC6" d="M26 50h1v1h-1z"/><path fill="#CBDBAB" d="M27 50h1v1h-1zM28 50h1v1h-1zM29 50h1v1h-1zM30 50h1v1h-1zM31 50h1v1h-1zM32 50h1v1h-1zM33 50h1v1h-1zM34 50h1v1h-1zM35 50h1v1h-1zM36 50h1v1h-1z"/><path fill="#A1AA86" d="M37 50h1v1h-1z"/><path fill="#231815" d="M38 50h1v1h-1zM39 50h1v1h-1zM40 50h1v1h-1zM18 51h1v1h-1zM19 51h1v1h-1zM20 51h1v1h-1z"/><path fill="#878672" d="M21 51h1v1h-1z"/><path fill="#EBF3CF" d="M22 51h1v1h-1zM23 51h1v1h-1zM24 51h1v1h-1zM25 51h1v1h-1z"/><path fill="#E7F0CB" d="M26 51h1v1h-1z"/><path fill="#CBDBAB" d="M27 51h1v1h-1zM28 51h1v1h-1zM29 51h1v1h-1zM30 51h1v1h-1zM31 51h1v1h-1zM32 51h1v1h-1zM33 51h1v1h-1zM34 51h1v1h-1zM35 51h1v1h-1zM36 51h1v1h-1z"/><path fill="#777A60" d="M37 51h1v1h-1z"/><path fill="#231815" d="M38 51h1v1h-1zM39 51h1v1h-1zM40 51h1v1h-1zM18 52h1v1h-1zM19 52h1v1h-1zM20 52h1v1h-1z"/><path fill="#878672" d="M21 52h1v1h-1z"/><path fill="#EBF3CF" d="M22 52h1v1h-1zM23 52h1v1h-1zM24 52h1v1h-1zM25 52h1v1h-1zM26 52h1v1h-1z"/><path fill="#CBDBAB" d="M27 52h1v1h-1zM28 52h1v1h-1zM29 52h1v1h-1zM30 52h1v1h-1zM31 52h1v1h-1zM32 52h1v1h-1zM33 52h1v1h-1zM34 52h1v1h-1zM35 52h1v1h-1zM36 52h1v1h-1z"/><path fill="#777A60" d="M37 52h1v1h-1z"/><path fill="#231815" d="M38 52h1v1h-1zM39 52h1v1h-1zM40 52h1v1h-1zM18 53h1v1h-1zM19 53h1v1h-1zM20 53h1v1h-1z"/><path fill="#878672" d="M21 53h1v1h-1z"/><path fill="#EBF3CF" d="M22 53h1v1h-1zM23 53h1v1h-1zM24 53h1v1h-1zM25 53h1v1h-1zM26 53h1v1h-1z"/><path fill="#CBDBAB" d="M27 53h1v1h-1zM28 53h1v1h-1zM29 53h1v1h-1zM30 53h1v1h-1zM31 53h1v1h-1zM32 53h1v1h-1zM33 53h1v1h-1zM34 53h1v1h-1zM35 53h1v1h-1zM36 53h1v1h-1z"/><path fill="#828669" d="M37 53h1v1h-1z"/><path fill="#231815" d="M38 53h1v1h-1zM39 53h1v1h-1zM40 53h1v1h-1zM18 54h1v1h-1zM19 54h1v1h-1zM20 54h1v1h-1z"/><path fill="#878672" d="M21 54h1v1h-1z"/><path fill="#EBF3CF" d="M22 54h1v1h-1zM23 54h1v1h-1zM24 54h1v1h-1zM25 54h1v1h-1z"/><path fill="#E7F0CB" d="M26 54h1v1h-1z"/><path fill="#CBDBAB" d="M27 54h1v1h-1zM28 54h1v1h-1zM29 54h1v1h-1zM30 54h1v1h-1zM31 54h1v1h-1zM32 54h1v1h-1zM33 54h1v1h-1zM34 54h1v1h-1zM35 54h1v1h-1zM36 54h1v1h-1z"/><path fill="#A1AA86" d="M37 54h1v1h-1z"/><path fill="#231815" d="M38 54h1v1h-1zM39 54h1v1h-1zM40 54h1v1h-1zM18 55h1v1h-1zM19 55h1v1h-1zM20 55h1v1h-1z"/><path fill="#878672" d="M21 55h1v1h-1z"/><path fill="#EBF3CF" d="M22 55h1v1h-1zM23 55h1v1h-1zM24 55h1v1h-1zM25 55h1v1h-1z"/><path fill="#E3EDC6" d="M26 55h1v1h-1z"/><path fill="#CBDBAB" d="M27 55h1v1h-1zM28 55h1v1h-1zM29 55h1v1h-1zM30 55h1v1h-1zM31 55h1v1h-1zM32 55h1v1h-1zM33 55h1v1h-1zM34 55h1v1h-1zM35 55h1v1h-1zM36 55h1v1h-1z"/><path fill="#A1AA86" d="M37 55h1v1h-1z"/><path fill="#231815" d="M38 55h1v1h-1zM39 55h1v1h-1zM40 55h1v1h-1zM41 55h1v1h-1zM42 55h1v1h-1zM16 56h1v1h-1zM17 56h1v1h-1zM18 56h1v1h-1zM19 56h1v1h-1zM20 56h1v1h-1z"/><path fill="#B9BCA1" d="M21 56h1v1h-1z"/><path fill="#EBF3CF" d="M22 56h1v1h-1zM23 56h1v1h-1zM24 56h1v1h-1zM25 56h1v1h-1z"/><path fill="#E1ECC4" d="M26 56h1v1h-1z"/><path fill="#CBDBAB" d="M27 56h1v1h-1zM28 56h1v1h-1zM29 56h1v1h-1zM30 56h1v1h-1zM31 56h1v1h-1zM32 56h1v1h-1zM33 56h1v1h-1z"/><path fill="#DBE7BD" d="M34 56h1v1h-1z"/><path fill="#DDE9BF" d="M35 56h1v1h-1z"/><path fill="#CDDDAD" d="M36 56h1v1h-1z"/><path fill="#CBDBAB" d="M37 56h1v1h-1z"/><path fill="#231815" d="M38 56h1v1h-1zM39 56h1v1h-1zM40 56h1v1h-1zM41 56h1v1h-1zM42 56h1v1h-1zM43 56h1v1h-1zM44 56h1v1h-1zM14 57h1v1h-1zM15 57h1v1h-1zM16 57h1v1h-1zM17 57h1v1h-1zM18 57h1v1h-1zM19 57h1v1h-1z"/><path fill="#3C332C" d="M20 57h1v1h-1z"/><path fill="#EBF3CF" d="M21 57h1v1h-1zM22 57h1v1h-1zM23 57h1v1h-1zM24 57h1v1h-1zM25 57h1v1h-1z"/><path fill="#D9E6BB" d="M26 57h1v1h-1z"/><path fill="#CBDBAB" d="M27 57h1v1h-1zM28 57h1v1h-1zM29 57h1v1h-1zM30 57h1v1h-1zM31 57h1v1h-1zM32 57h1v1h-1z"/><path fill="#D7E4B9" d="M33 57h1v1h-1z"/><path fill="#EBF3CF" d="M34 57h1v1h-1zM35 57h1v1h-1z"/><path fill="#E3EDC6" d="M36 57h1v1h-1z"/><path fill="#CBDBAB" d="M37 57h1v1h-1z"/><path fill="#6D6D57" d="M38 57h1v1h-1z"/><path fill="#231815" d="M39 57h1v1h-1zM40 57h1v1h-1zM41 57h1v1h-1zM42 57h1v1h-1zM43 57h1v1h-1zM44 57h1v1h-1zM45 57h1v1h-1zM46 57h1v1h-1zM47 57h1v1h-1zM11 58h1v1h-1zM12 58h1v1h-1zM13 58h1v1h-1zM14 58h1v1h-1zM15 58h1v1h-1zM16 58h1v1h-1zM17 58h1v1h-1zM18 58h1v1h-1z"/><path fill="#494138" d="M19 58h1v1h-1z"/><path fill="#C6CAAC" d="M20 58h1v1h-1z"/><path fill="#EBF3CF" d="M21 58h1v1h-1zM22 58h1v1h-1zM23 58h1v1h-1zM24 58h1v1h-1z"/><path fill="#E9F2CD" d="M25 58h1v1h-1z"/><path fill="#CFDEB0" d="M26 58h1v1h-1z"/><path fill="#CBDBAB" d="M27 58h1v1h-1zM28 58h1v1h-1zM29 58h1v1h-1zM30 58h1v1h-1zM31 58h1v1h-1zM32 58h1v1h-1z"/><path fill="#DBE7BD" d="M33 58h1v1h-1z"/><path fill="#EBF3CF" d="M34 58h1v1h-1zM35 58h1v1h-1zM36 58h1v1h-1z"/><path fill="#CFDEB0" d="M37 58h1v1h-1z"/><path fill="#CBDBAB" d="M38 58h1v1h-1z"/><path fill="#8C9273" d="M39 58h1v1h-1z"/><path fill="#585544" d="M40 58h1v1h-1z"/><path fill="#231815" d="M41 58h1v1h-1zM42 58h1v1h-1zM43 58h1v1h-1zM44 58h1v1h-1zM45 58h1v1h-1zM46 58h1v1h-1zM47 58h1v1h-1zM48 58h1v1h-1zM49 58h1v1h-1zM10 59h1v1h-1zM11 59h1v1h-1zM12 59h1v1h-1zM13 59h1v1h-1zM14 59h1v1h-1zM15 59h1v1h-1zM16 59h1v1h-1z"/><path fill="#3C332C" d="M17 59h1v1h-1z"/><path fill="#A0A189" d="M18 59h1v1h-1z"/><path fill="#EBF3CF" d="M19 59h1v1h-1zM20 59h1v1h-1zM21 59h1v1h-1zM22 59h1v1h-1zM23 59h1v1h-1z"/><path fill="#E9F2CD" d="M24 59h1v1h-1z"/><path fill="#D5E3B6" d="M25 59h1v1h-1z"/><path fill="#CBDBAB" d="M26 59h1v1h-1zM27 59h1v1h-1zM28 59h1v1h-1zM29 59h1v1h-1zM30 59h1v1h-1zM31 59h1v1h-1zM32 59h1v1h-1z"/><path fill="#DBE7BD" d="M33 59h1v1h-1z"/><path fill="#EBF3CF" d="M34 59h1v1h-1zM35 59h1v1h-1zM36 59h1v1h-1z"/><path fill="#E5EFC8" d="M37 59h1v1h-1z"/><path fill="#D9E6BB" d="M38 59h1v1h-1z"/><path fill="#CFDEB0" d="M39 59h1v1h-1z"/><path fill="#CBDBAB" d="M40 59h1v1h-1z"/><path fill="#B6C398" d="M41 59h1v1h-1z"/><path fill="#828669" d="M42 59h1v1h-1z"/><path fill="#383028" d="M43 59h1v1h-1z"/><path fill="#231815" d="M44 59h1v1h-1zM45 59h1v1h-1zM46 59h1v1h-1zM47 59h1v1h-1zM48 59h1v1h-1zM49 59h1v1h-1zM50 59h1v1h-1zM51 59h1v1h-1zM8 60h1v1H8zM9 60h1v1H9zM10 60h1v1h-1zM11 60h1v1h-1zM12 60h1v1h-1zM13 60h1v1h-1zM14 60h1v1h-1z"/><path fill="#494138" d="M15 60h1v1h-1z"/><path fill="#A0A189" d="M16 60h1v1h-1z"/><path fill="#EBF3CF" d="M17 60h1v1h-1zM18 60h1v1h-1zM19 60h1v1h-1zM20 60h1v1h-1zM21 60h1v1h-1zM22 60h1v1h-1z"/><path fill="#E5EFC8" d="M23 60h1v1h-1z"/><path fill="#CDDDAD" d="M24 60h1v1h-1z"/><path fill="#CBDBAB" d="M25 60h1v1h-1zM26 60h1v1h-1zM27 60h1v1h-1zM28 60h1v1h-1z"/><path fill="#DBE7BD" d="M29 60h1v1h-1z"/><path fill="#EBF3CF" d="M30 60h1v1h-1z"/><path fill="#D1E0B2" d="M31 60h1v1h-1z"/><path fill="#CBDBAB" d="M32 60h1v1h-1z"/><path fill="#D1E0B2" d="M33 60h1v1h-1z"/><path fill="#EBF3CF" d="M34 60h1v1h-1zM35 60h1v1h-1zM36 60h1v1h-1zM37 60h1v1h-1zM38 60h1v1h-1zM39 60h1v1h-1z"/><path fill="#E3EDC6" d="M40 60h1v1h-1z"/><path fill="#D5E3B6" d="M41 60h1v1h-1z"/><path fill="#CBDBAB" d="M42 60h1v1h-1zM43 60h1v1h-1z"/><path fill="#A1AA86" d="M44 60h1v1h-1z"/><path fill="#62614D" d="M45 60h1v1h-1z"/><path fill="#231815" d="M46 60h1v1h-1zM47 60h1v1h-1zM48 60h1v1h-1zM49 60h1v1h-1zM50 60h1v1h-1zM51 60h1v1h-1zM52 60h1v1h-1zM7 61h1v1H7zM8 61h1v1H8zM9 61h1v1H9zM10 61h1v1h-1zM11 61h1v1h-1zM12 61h1v1h-1z"/><path fill="#554F44" d="M13 61h1v1h-1z"/><path fill="#B9BCA1" d="M14 61h1v1h-1z"/><path fill="#EBF3CF" d="M15 61h1v1h-1zM16 61h1v1h-1zM17 61h1v1h-1zM18 61h1v1h-1zM19 61h1v1h-1zM20 61h1v1h-1zM21 61h1v1h-1z"/><path fill="#DFEAC2" d="M22 61h1v1h-1z"/><path fill="#CBDBAB" d="M23 61h1v1h-1zM24 61h1v1h-1zM25 61h1v1h-1zM26 61h1v1h-1zM27 61h1v1h-1z"/><path fill="#D7E4B9" d="M28 61h1v1h-1z"/><path fill="#EBF3CF" d="M29 61h1v1h-1zM30 61h1v1h-1z"/><path fill="#E3EDC6" d="M31 61h1v1h-1z"/><path fill="#CBDBAB" d="M32 61h1v1h-1zM33 61h1v1h-1z"/><path fill="#DFEAC2" d="M34 61h1v1h-1z"/><path fill="#EBF3CF" d="M35 61h1v1h-1zM36 61h1v1h-1zM37 61h1v1h-1zM38 61h1v1h-1zM39 61h1v1h-1zM40 61h1v1h-1zM41 61h1v1h-1z"/><path fill="#E7F0CB" d="M42 61h1v1h-1z"/><path fill="#D7E4B9" d="M43 61h1v1h-1z"/><path fill="#CBDBAB" d="M44 61h1v1h-1zM45 61h1v1h-1z"/><path fill="#B6C398" d="M46 61h1v1h-1z"/><path fill="#62614D" d="M47 61h1v1h-1z"/><path fill="#231815" d="M48 61h1v1h-1zM49 61h1v1h-1zM50 61h1v1h-1zM51 61h1v1h-1zM52 61h1v1h-1zM53 61h1v1h-1zM6 62h1v1H6zM7 62h1v1H7zM8 62h1v1H8zM9 62h1v1H9zM10 62h1v1h-1z"/><path fill="#554F44" d="M11 62h1v1h-1z"/><path fill="#B9BCA1" d="M12 62h1v1h-1z"/><path fill="#EBF3CF" d="M13 62h1v1h-1zM14 62h1v1h-1zM15 62h1v1h-1zM16 62h1v1h-1zM17 62h1v1h-1zM18 62h1v1h-1zM19 62h1v1h-1zM20 62h1v1h-1z"/><path fill="#D9E6BB" d="M21 62h1v1h-1z"/><path fill="#CBDBAB" d="M22 62h1v1h-1zM23 62h1v1h-1zM24 62h1v1h-1zM25 62h1v1h-1zM26 62h1v1h-1z"/><path fill="#D1E0B2" d="M27 62h1v1h-1z"/><path fill="#EBF3CF" d="M28 62h1v1h-1zM29 62h1v1h-1zM30 62h1v1h-1zM31 62h1v1h-1z"/><path fill="#CFDEB0" d="M32 62h1v1h-1z"/><path fill="#CBDBAB" d="M33 62h1v1h-1zM34 62h1v1h-1z"/><path fill="#D1E0B2" d="M35 62h1v1h-1z"/><path fill="#D5E3B6" d="M36 62h1v1h-1z"/><path fill="#EBF3CF" d="M37 62h1v1h-1zM38 62h1v1h-1zM39 62h1v1h-1zM40 62h1v1h-1zM41 62h1v1h-1zM42 62h1v1h-1zM43 62h1v1h-1z"/><path fill="#E7F0CB" d="M44 62h1v1h-1z"/><path fill="#D7E4B9" d="M45 62h1v1h-1z"/><path fill="#CBDBAB" d="M46 62h1v1h-1zM47 62h1v1h-1z"/><path fill="#B6C398" d="M48 62h1v1h-1z"/><path fill="#4D493B" d="M49 62h1v1h-1z"/><path fill="#231815" d="M50 62h1v1h-1zM51 62h1v1h-1zM52 62h1v1h-1zM53 62h1v1h-1zM54 62h1v1h-1zM5 63h1v1H5zM6 63h1v1H6zM7 63h1v1H7zM8 63h1v1H8zM9 63h1v1H9z"/><path fill="#94937E" d="M10 63h1v1h-1z"/><path fill="#EBF3CF" d="M11 63h1v1h-1zM12 63h1v1h-1zM13 63h1v1h-1zM14 63h1v1h-1zM15 63h1v1h-1zM16 63h1v1h-1zM17 63h1v1h-1zM18 63h1v1h-1zM19 63h1v1h-1z"/><path fill="#D7E4B9" d="M20 63h1v1h-1z"/><path fill="#CBDBAB" d="M21 63h1v1h-1zM22 63h1v1h-1zM23 63h1v1h-1zM24 63h1v1h-1zM25 63h1v1h-1z"/><path fill="#CDDDAD" d="M26 63h1v1h-1z"/><path fill="#E5EFC8" d="M27 63h1v1h-1z"/><path fill="#F3F8E1" d="M28 63h1v1h-1z"/><path fill="#EEF5D5" d="M29 63h1v1h-1z"/><path fill="#EBF3CF" d="M30 63h1v1h-1zM31 63h1v1h-1z"/><path fill="#DBE7BD" d="M32 63h1v1h-1z"/><path fill="#CBDBAB" d="M33 63h1v1h-1zM34 63h1v1h-1zM35 63h1v1h-1zM36 63h1v1h-1z"/><path fill="#EBF3CF" d="M37 63h1v1h-1zM38 63h1v1h-1zM39 63h1v1h-1zM40 63h1v1h-1zM41 63h1v1h-1zM42 63h1v1h-1zM43 63h1v1h-1zM44 63h1v1h-1zM45 63h1v1h-1z"/><path fill="#E3EDC6" d="M46 63h1v1h-1z"/><path fill="#D1E0B2" d="M47 63h1v1h-1z"/><path fill="#CBDBAB" d="M48 63h1v1h-1zM49 63h1v1h-1z"/><path fill="#777A60" d="M50 63h1v1h-1z"/><path fill="#231815" d="M51 63h1v1h-1zM52 63h1v1h-1zM53 63h1v1h-1zM54 63h1v1h-1zM55 63h1v1h-1zM5 64h1v1H5zM6 64h1v1H6zM7 64h1v1H7z"/><path fill="#302621" d="M8 64h1v1H8z"/><path fill="#B9BCA1" d="M9 64h1v1H9z"/><path fill="#EBF3CF" d="M10 64h1v1h-1zM11 64h1v1h-1zM12 64h1v1h-1zM13 64h1v1h-1zM14 64h1v1h-1zM15 64h1v1h-1zM16 64h1v1h-1zM17 64h1v1h-1z"/><path fill="#E9F2CD" d="M18 64h1v1h-1z"/><path fill="#D1E0B2" d="M19 64h1v1h-1z"/><path fill="#CBDBAB" d="M20 64h1v1h-1zM21 64h1v1h-1zM22 64h1v1h-1zM23 64h1v1h-1zM24 64h1v1h-1zM25 64h1v1h-1z"/><path fill="#DDE9BF" d="M26 64h1v1h-1z"/><path fill="#F8FBED" d="M27 64h1v1h-1z"/><path fill="#FFF" d="M28 64h1v1h-1z"/><path fill="#F5F9E7" d="M29 64h1v1h-1z"/><path fill="#EBF3CF" d="M30 64h1v1h-1zM31 64h1v1h-1z"/><path fill="#E7F0CB" d="M32 64h1v1h-1z"/><path fill="#CBDBAB" d="M33 64h1v1h-1zM34 64h1v1h-1zM35 64h1v1h-1zM36 64h1v1h-1z"/><path fill="#E5EFC8" d="M37 64h1v1h-1z"/><path fill="#EBF3CF" d="M38 64h1v1h-1zM39 64h1v1h-1zM40 64h1v1h-1zM41 64h1v1h-1zM42 64h1v1h-1zM43 64h1v1h-1zM44 64h1v1h-1zM45 64h1v1h-1zM46 64h1v1h-1zM47 64h1v1h-1z"/><path fill="#DBE7BD" d="M48 64h1v1h-1z"/><path fill="#CBDBAB" d="M49 64h1v1h-1zM50 64h1v1h-1z"/><path fill="#8C9273" d="M51 64h1v1h-1z"/><path fill="#231815" d="M52 64h1v1h-1zM53 64h1v1h-1zM54 64h1v1h-1zM55 64h1v1h-1zM4 65h1v1H4zM5 65h1v1H5zM6 65h1v1H6zM7 65h1v1H7z"/><path fill="#94937E" d="M8 65h1v1H8z"/><path fill="#EBF3CF" d="M9 65h1v1H9zM10 65h1v1h-1zM11 65h1v1h-1zM12 65h1v1h-1zM13 65h1v1h-1zM14 65h1v1h-1zM15 65h1v1h-1zM16 65h1v1h-1z"/><path fill="#E9F2CD" d="M17 65h1v1h-1z"/><path fill="#D1E0B2" d="M18 65h1v1h-1z"/><path fill="#CBDBAB" d="M19 65h1v1h-1zM20 65h1v1h-1zM21 65h1v1h-1zM22 65h1v1h-1zM23 65h1v1h-1zM24 65h1v1h-1z"/><path fill="#D3E1B4" d="M25 65h1v1h-1z"/><path fill="#F4F8E4" d="M26 65h1v1h-1z"/><path fill="#FFF" d="M27 65h1v1h-1zM28 65h1v1h-1z"/><path fill="#F5F9E7" d="M29 65h1v1h-1z"/><path fill="#EBF3CF" d="M30 65h1v1h-1zM31 65h1v1h-1zM32 65h1v1h-1z"/><path fill="#CFDEB0" d="M33 65h1v1h-1z"/><path fill="#CBDBAB" d="M34 65h1v1h-1zM35 65h1v1h-1zM36 65h1v1h-1z"/><path fill="#D9E6BB" d="M37 65h1v1h-1z"/><path fill="#EBF3CF" d="M38 65h1v1h-1zM39 65h1v1h-1zM40 65h1v1h-1zM41 65h1v1h-1zM42 65h1v1h-1zM43 65h1v1h-1zM44 65h1v1h-1zM45 65h1v1h-1zM46 65h1v1h-1zM47 65h1v1h-1zM48 65h1v1h-1z"/><path fill="#E5EFC8" d="M49 65h1v1h-1z"/><path fill="#CDDDAD" d="M50 65h1v1h-1z"/><path fill="#CBDBAB" d="M51 65h1v1h-1z"/><path fill="#585544" d="M52 65h1v1h-1z"/><path fill="#231815" d="M53 65h1v1h-1zM54 65h1v1h-1zM55 65h1v1h-1zM4 66h1v1H4zM5 66h1v1H5zM6 66h1v1H6z"/><path fill="#3C332C" d="M7 66h1v1H7z"/><path fill="#EBF3CF" d="M8 66h1v1H8zM9 66h1v1H9zM10 66h1v1h-1zM11 66h1v1h-1zM12 66h1v1h-1zM13 66h1v1h-1zM14 66h1v1h-1zM15 66h1v1h-1z"/><path fill="#E5EFC8" d="M16 66h1v1h-1z"/><path fill="#CFDEB0" d="M17 66h1v1h-1z"/><path fill="#CBDBAB" d="M18 66h1v1h-1zM19 66h1v1h-1zM20 66h1v1h-1zM21 66h1v1h-1zM22 66h1v1h-1zM23 66h1v1h-1z"/><path fill="#CDDDAD" d="M24 66h1v1h-1z"/><path fill="#ECF3D7" d="M25 66h1v1h-1z"/><path fill="#FFF" d="M26 66h1v1h-1zM27 66h1v1h-1zM28 66h1v1h-1z"/><path fill="#F5F9E7" d="M29 66h1v1h-1z"/><path fill="#EBF3CF" d="M30 66h1v1h-1zM31 66h1v1h-1zM32 66h1v1h-1z"/><path fill="#D9E6BB" d="M33 66h1v1h-1z"/><path fill="#CBDBAB" d="M34 66h1v1h-1zM35 66h1v1h-1zM36 66h1v1h-1z"/><path fill="#CFDEB0" d="M37 66h1v1h-1z"/><path fill="#F1F7DE" d="M38 66h1v1h-1z"/><path fill="#EBF3CF" d="M39 66h1v1h-1zM40 66h1v1h-1zM41 66h1v1h-1zM42 66h1v1h-1zM43 66h1v1h-1zM44 66h1v1h-1zM45 66h1v1h-1zM46 66h1v1h-1zM47 66h1v1h-1zM48 66h1v1h-1zM49 66h1v1h-1z"/><path fill="#E7F0CB" d="M50 66h1v1h-1z"/><path fill="#D1E0B2" d="M51 66h1v1h-1z"/><path fill="#ACB68F" d="M52 66h1v1h-1z"/><path fill="#231815" d="M53 66h1v1h-1zM54 66h1v1h-1zM55 66h1v1h-1zM56 66h1v1h-1zM4 67h1v1H4zM5 67h1v1H5zM6 67h1v1H6z"/><path fill="#554F44" d="M7 67h1v1H7z"/><path fill="#EBF3CF" d="M8 67h1v1H8zM9 67h1v1H9zM10 67h1v1h-1zM11 67h1v1h-1zM12 67h1v1h-1zM13 67h1v1h-1zM14 67h1v1h-1z"/><path fill="#E5EFC8" d="M15 67h1v1h-1z"/><path fill="#CDDDAD" d="M16 67h1v1h-1z"/><path fill="#CBDBAB" d="M17 67h1v1h-1zM18 67h1v1h-1zM19 67h1v1h-1zM20 67h1v1h-1zM21 67h1v1h-1zM22 67h1v1h-1zM23 67h1v1h-1z"/><path fill="#DEE9C2" d="M24 67h1v1h-1z"/><path fill="#FEFEFC" d="M25 67h1v1h-1z"/><path fill="#FFF" d="M26 67h1v1h-1zM27 67h1v1h-1zM28 67h1v1h-1z"/><path fill="#F0F6DB" d="M29 67h1v1h-1z"/><path fill="#EBF3CF" d="M30 67h1v1h-1zM31 67h1v1h-1zM32 67h1v1h-1z"/><path fill="#E1ECC4" d="M33 67h1v1h-1z"/><path fill="#CBDBAB" d="M34 67h1v1h-1zM35 67h1v1h-1zM36 67h1v1h-1zM37 67h1v1h-1z"/><path fill="#F5F8EF" d="M38 67h1v1h-1z"/><path fill="#FDFEF9" d="M39 67h1v1h-1z"/><path fill="#F3F8E1" d="M40 67h1v1h-1z"/><path fill="#EBF3CF" d="M41 67h1v1h-1zM42 67h1v1h-1zM43 67h1v1h-1zM44 67h1v1h-1zM45 67h1v1h-1zM46 67h1v1h-1zM47 67h1v1h-1zM48 67h1v1h-1zM49 67h1v1h-1zM50 67h1v1h-1z"/><path fill="#E7F0CB" d="M51 67h1v1h-1z"/><path fill="#CECBA2" d="M52 67h1v1h-1z"/><path fill="#231815" d="M53 67h1v1h-1zM54 67h1v1h-1zM55 67h1v1h-1zM56 67h1v1h-1zM4 68h1v1H4zM5 68h1v1H5zM6 68h1v1H6z"/><path fill="#55483F" d="M7 68h1v1H7z"/><path fill="#EBF3CF" d="M8 68h1v1H8zM9 68h1v1H9zM10 68h1v1h-1zM11 68h1v1h-1zM12 68h1v1h-1zM13 68h1v1h-1z"/><path fill="#DFEAC2" d="M14 68h1v1h-1z"/><path fill="#CDDDAD" d="M15 68h1v1h-1z"/><path fill="#CBDBAB" d="M16 68h1v1h-1zM17 68h1v1h-1zM18 68h1v1h-1zM19 68h1v1h-1zM20 68h1v1h-1zM21 68h1v1h-1zM22 68h1v1h-1z"/><path fill="#D1E0B2" d="M23 68h1v1h-1z"/><path fill="#FAFCF3" d="M24 68h1v1h-1z"/><path fill="#FFF" d="M25 68h1v1h-1zM26 68h1v1h-1zM27 68h1v1h-1zM28 68h1v1h-1z"/><path fill="#EFF5D8" d="M29 68h1v1h-1z"/><path fill="#EBF3CF" d="M30 68h1v1h-1zM31 68h1v1h-1zM32 68h1v1h-1z"/><path fill="#E9F2CD" d="M33 68h1v1h-1z"/><path fill="#CBDBAB" d="M34 68h1v1h-1zM35 68h1v1h-1zM36 68h1v1h-1zM37 68h1v1h-1z"/><path fill="#E2EBD0" d="M38 68h1v1h-1z"/><path fill="#FFF" d="M39 68h1v1h-1zM40 68h1v1h-1z"/><path fill="#FAFCF3" d="M41 68h1v1h-1z"/><path fill="#ECF4D2" d="M42 68h1v1h-1z"/><path fill="#EBF3CF" d="M43 68h1v1h-1zM44 68h1v1h-1zM45 68h1v1h-1zM46 68h1v1h-1zM47 68h1v1h-1zM48 68h1v1h-1zM49 68h1v1h-1zM50 68h1v1h-1z"/><path fill="#E1AD98" d="M51 68h1v1h-1z"/><path fill="#D55C5A" d="M52 68h1v1h-1z"/><path fill="#231815" d="M53 68h1v1h-1zM54 68h1v1h-1zM55 68h1v1h-1zM56 68h1v1h-1zM4 69h1v1H4zM5 69h1v1H5zM6 69h1v1H6z"/><path fill="#3D2624" d="M7 69h1v1H7z"/><path fill="#EDB5A9" d="M8 69h1v1H8z"/><path fill="#EBF3CF" d="M9 69h1v1H9zM10 69h1v1h-1zM11 69h1v1h-1zM12 69h1v1h-1z"/><path fill="#DBE7BD" d="M13 69h1v1h-1z"/><path fill="#CBDBAB" d="M14 69h1v1h-1zM15 69h1v1h-1zM16 69h1v1h-1zM17 69h1v1h-1zM18 69h1v1h-1zM19 69h1v1h-1zM20 69h1v1h-1zM21 69h1v1h-1zM22 69h1v1h-1z"/><path fill="#ECF2DB" d="M23 69h1v1h-1z"/><path fill="#FFF" d="M24 69h1v1h-1zM25 69h1v1h-1zM26 69h1v1h-1zM27 69h1v1h-1zM28 69h1v1h-1z"/><path fill="#EBF3CF" d="M29 69h1v1h-1zM30 69h1v1h-1zM31 69h1v1h-1zM32 69h1v1h-1zM33 69h1v1h-1z"/><path fill="#D1E0B2" d="M34 69h1v1h-1z"/><path fill="#CBDBAB" d="M35 69h1v1h-1zM36 69h1v1h-1zM37 69h1v1h-1z"/><path fill="#CEDDB0" d="M38 69h1v1h-1z"/><path fill="#FFF" d="M39 69h1v1h-1zM40 69h1v1h-1zM41 69h1v1h-1z"/><path fill="#FEFEFC" d="M42 69h1v1h-1z"/><path fill="#EFF5D8" d="M43 69h1v1h-1z"/><path fill="#EBF3CF" d="M44 69h1v1h-1zM45 69h1v1h-1zM46 69h1v1h-1zM47 69h1v1h-1zM48 69h1v1h-1z"/><path fill="#EAE9C7" d="M49 69h1v1h-1z"/><path fill="#DC8E81" d="M50 69h1v1h-1z"/><path fill="#D35252" d="M51 69h1v1h-1z"/><path fill="#A74443" d="M52 69h1v1h-1z"/><path fill="#231815" d="M53 69h1v1h-1zM54 69h1v1h-1zM55 69h1v1h-1zM56 69h1v1h-1zM4 70h1v1H4zM5 70h1v1H5zM6 70h1v1H6zM7 70h1v1H7z"/><path fill="#D6777D" d="M8 70h1v1H8z"/><path fill="#EDCAB6" d="M9 70h1v1H9z"/><path fill="#EBF3CF" d="M10 70h1v1h-1z"/><path fill="#E9F2CD" d="M11 70h1v1h-1z"/><path fill="#D3E1B4" d="M12 70h1v1h-1z"/><path fill="#CBDBAB" d="M13 70h1v1h-1zM14 70h1v1h-1zM15 70h1v1h-1zM16 70h1v1h-1zM17 70h1v1h-1zM18 70h1v1h-1zM19 70h1v1h-1zM20 70h1v1h-1zM21 70h1v1h-1z"/><path fill="#D8E5BC" d="M22 70h1v1h-1z"/><path fill="#FEFEFC" d="M23 70h1v1h-1z"/><path fill="#FFF" d="M24 70h1v1h-1zM25 70h1v1h-1zM26 70h1v1h-1zM27 70h1v1h-1z"/><path fill="#FBFDF6" d="M28 70h1v1h-1z"/><path fill="#EBF3CF" d="M29 70h1v1h-1zM30 70h1v1h-1zM31 70h1v1h-1zM32 70h1v1h-1zM33 70h1v1h-1z"/><path fill="#D7E4B9" d="M34 70h1v1h-1z"/><path fill="#CBDBAB" d="M35 70h1v1h-1zM36 70h1v1h-1zM37 70h1v1h-1zM38 70h1v1h-1z"/><path fill="#ECF2E0" d="M39 70h1v1h-1z"/><path fill="#FFF" d="M40 70h1v1h-1zM41 70h1v1h-1zM42 70h1v1h-1z"/><path fill="#FEFEFC" d="M43 70h1v1h-1z"/><path fill="#EFF5D8" d="M44 70h1v1h-1z"/><path fill="#EBF3CF" d="M45 70h1v1h-1zM46 70h1v1h-1zM47 70h1v1h-1z"/><path fill="#EAE9C7" d="M48 70h1v1h-1z"/><path fill="#D87069" d="M49 70h1v1h-1z"/><path fill="#D35252" d="M50 70h1v1h-1zM51 70h1v1h-1z"/><path fill="#863937" d="M52 70h1v1h-1z"/><path fill="#231815" d="M53 70h1v1h-1zM54 70h1v1h-1zM55 70h1v1h-1zM5 71h1v1H5zM6 71h1v1H6zM7 71h1v1H7z"/><path fill="#965558" d="M8 71h1v1H8z"/><path fill="#EF858C" d="M9 71h1v1H9z"/><path fill="#E3C2AB" d="M10 71h1v1h-1z"/><path fill="#CDDDAD" d="M11 71h1v1h-1z"/><path fill="#CBDBAB" d="M12 71h1v1h-1zM13 71h1v1h-1zM14 71h1v1h-1zM15 71h1v1h-1zM16 71h1v1h-1zM17 71h1v1h-1zM18 71h1v1h-1zM19 71h1v1h-1zM20 71h1v1h-1z"/><path fill="#CDDDAD" d="M21 71h1v1h-1z"/><path fill="#F7FAEE" d="M22 71h1v1h-1z"/><path fill="#FFF" d="M23 71h1v1h-1zM24 71h1v1h-1zM25 71h1v1h-1zM26 71h1v1h-1zM27 71h1v1h-1z"/><path fill="#F8FBED" d="M28 71h1v1h-1z"/><path fill="#EBF3CF" d="M29 71h1v1h-1zM30 71h1v1h-1zM31 71h1v1h-1zM32 71h1v1h-1zM33 71h1v1h-1z"/><path fill="#DBE7BD" d="M34 71h1v1h-1z"/><path fill="#CBDBAB" d="M35 71h1v1h-1zM36 71h1v1h-1zM37 71h1v1h-1zM38 71h1v1h-1z"/><path fill="#D5E2BB" d="M39 71h1v1h-1z"/><path fill="#FFF" d="M40 71h1v1h-1zM41 71h1v1h-1zM42 71h1v1h-1zM43 71h1v1h-1z"/><path fill="#FEFEFC" d="M44 71h1v1h-1z"/><path fill="#EFF5D8" d="M45 71h1v1h-1z"/><path fill="#EBF3CF" d="M46 71h1v1h-1z"/><path fill="#E7D5B8" d="M47 71h1v1h-1z"/><path fill="#D55C5A" d="M48 71h1v1h-1z"/><path fill="#D35252" d="M49 71h1v1h-1zM50 71h1v1h-1zM51 71h1v1h-1z"/><path fill="#442320" d="M52 71h1v1h-1z"/><path fill="#231815" d="M53 71h1v1h-1zM54 71h1v1h-1zM55 71h1v1h-1zM5 72h1v1H5zM6 72h1v1H6zM7 72h1v1H7z"/><path fill="#3D2624" d="M8 72h1v1H8z"/><path fill="#EF858C" d="M9 72h1v1H9zM10 72h1v1h-1z"/><path fill="#D9BB9F" d="M11 72h1v1h-1z"/><path fill="#CBDBAB" d="M12 72h1v1h-1zM13 72h1v1h-1zM14 72h1v1h-1zM15 72h1v1h-1zM16 72h1v1h-1zM17 72h1v1h-1zM18 72h1v1h-1zM19 72h1v1h-1zM20 72h1v1h-1z"/><path fill="#E0EAC9" d="M21 72h1v1h-1z"/><path fill="#FFF" d="M22 72h1v1h-1zM23 72h1v1h-1zM24 72h1v1h-1zM25 72h1v1h-1zM26 72h1v1h-1zM27 72h1v1h-1z"/><path fill="#F3F8E1" d="M28 72h1v1h-1z"/><path fill="#EBF3CF" d="M29 72h1v1h-1zM30 72h1v1h-1zM31 72h1v1h-1zM32 72h1v1h-1zM33 72h1v1h-1z"/><path fill="#E3EDC6" d="M34 72h1v1h-1z"/><path fill="#CBDBAB" d="M35 72h1v1h-1zM36 72h1v1h-1zM37 72h1v1h-1zM38 72h1v1h-1zM39 72h1v1h-1z"/><path fill="#F2F6EA" d="M40 72h1v1h-1z"/><path fill="#FFF" d="M41 72h1v1h-1zM42 72h1v1h-1zM43 72h1v1h-1zM44 72h1v1h-1z"/><path fill="#FDFEF9" d="M45 72h1v1h-1z"/><path fill="#E6CCB3" d="M46 72h1v1h-1z"/><path fill="#D55C5A" d="M47 72h1v1h-1z"/><path fill="#D35252" d="M48 72h1v1h-1zM49 72h1v1h-1zM50 72h1v1h-1z"/><path fill="#BD4B4A" d="M51 72h1v1h-1z"/><path fill="#231815" d="M52 72h1v1h-1zM53 72h1v1h-1zM54 72h1v1h-1zM55 72h1v1h-1zM5 73h1v1H5zM6 73h1v1H6zM7 73h1v1H7zM8 73h1v1H8z"/><path fill="#BC6A6E" d="M9 73h1v1H9z"/><path fill="#EF858C" d="M10 73h1v1h-1zM11 73h1v1h-1z"/><path fill="#DBB59D" d="M12 73h1v1h-1z"/><path fill="#CBDBAB" d="M13 73h1v1h-1zM14 73h1v1h-1zM15 73h1v1h-1zM16 73h1v1h-1zM17 73h1v1h-1zM18 73h1v1h-1zM19 73h1v1h-1z"/><path fill="#CFDEB0" d="M20 73h1v1h-1z"/><path fill="#F8FBF1" d="M21 73h1v1h-1z"/><path fill="#FFF" d="M22 73h1v1h-1zM23 73h1v1h-1zM24 73h1v1h-1zM25 73h1v1h-1zM26 73h1v1h-1zM27 73h1v1h-1z"/><path fill="#EEF5D5" d="M28 73h1v1h-1z"/><path fill="#EBF3CF" d="M29 73h1v1h-1zM30 73h1v1h-1zM31 73h1v1h-1zM32 73h1v1h-1zM33 73h1v1h-1z"/><path fill="#E5EFC8" d="M34 73h1v1h-1z"/><path fill="#CBDBAB" d="M35 73h1v1h-1zM36 73h1v1h-1zM37 73h1v1h-1zM38 73h1v1h-1zM39 73h1v1h-1z"/><path fill="#D8E4C0" d="M40 73h1v1h-1z"/><path fill="#FFF" d="M41 73h1v1h-1zM42 73h1v1h-1zM43 73h1v1h-1zM44 73h1v1h-1z"/><path fill="#EEB7B7" d="M45 73h1v1h-1z"/><path fill="#D35252" d="M46 73h1v1h-1zM47 73h1v1h-1zM48 73h1v1h-1zM49 73h1v1h-1zM50 73h1v1h-1z"/><path fill="#652E2C" d="M51 73h1v1h-1z"/><path fill="#231815" d="M52 73h1v1h-1zM53 73h1v1h-1zM54 73h1v1h-1zM55 73h1v1h-1zM6 74h1v1H6zM7 74h1v1H7zM8 74h1v1H8z"/><path fill="#492C2B" d="M9 74h1v1H9z"/><path fill="#EF858C" d="M10 74h1v1h-1zM11 74h1v1h-1zM12 74h1v1h-1z"/><path fill="#E69B94" d="M13 74h1v1h-1z"/><path fill="#D0D0A7" d="M14 74h1v1h-1z"/><path fill="#CBDBAB" d="M15 74h1v1h-1zM16 74h1v1h-1zM17 74h1v1h-1zM18 74h1v1h-1zM19 74h1v1h-1z"/><path fill="#E7EFD4" d="M20 74h1v1h-1z"/><path fill="#FFF" d="M21 74h1v1h-1zM22 74h1v1h-1zM23 74h1v1h-1zM24 74h1v1h-1zM25 74h1v1h-1zM26 74h1v1h-1z"/><path fill="#FDFEF9" d="M27 74h1v1h-1z"/><path fill="#EBF3CF" d="M28 74h1v1h-1zM29 74h1v1h-1zM30 74h1v1h-1zM31 74h1v1h-1zM32 74h1v1h-1zM33 74h1v1h-1zM34 74h1v1h-1z"/><path fill="#CBDBAB" d="M35 74h1v1h-1zM36 74h1v1h-1zM37 74h1v1h-1zM38 74h1v1h-1zM39 74h1v1h-1zM40 74h1v1h-1z"/><path fill="#F2F6EA" d="M41 74h1v1h-1z"/><path fill="#FFF" d="M42 74h1v1h-1z"/><path fill="#FBE1E2" d="M43 74h1v1h-1z"/><path fill="#F3A4A9" d="M44 74h1v1h-1z"/><path fill="#D55556" d="M45 74h1v1h-1z"/><path fill="#D35252" d="M46 74h1v1h-1zM47 74h1v1h-1zM48 74h1v1h-1zM49 74h1v1h-1z"/><path fill="#B24747" d="M50 74h1v1h-1z"/><path fill="#231815" d="M51 74h1v1h-1zM52 74h1v1h-1zM53 74h1v1h-1zM54 74h1v1h-1zM6 75h1v1H6zM7 75h1v1H7zM8 75h1v1H8zM9 75h1v1H9z"/><path fill="#965558" d="M10 75h1v1h-1z"/><path fill="#EF858C" d="M11 75h1v1h-1zM12 75h1v1h-1zM13 75h1v1h-1zM14 75h1v1h-1z"/><path fill="#E2A598" d="M15 75h1v1h-1z"/><path fill="#D0D0A7" d="M16 75h1v1h-1z"/><path fill="#CBDBAB" d="M17 75h1v1h-1zM18 75h1v1h-1z"/><path fill="#CFDEB0" d="M19 75h1v1h-1z"/><path fill="#FAFCF3" d="M20 75h1v1h-1z"/><path fill="#FFF" d="M21 75h1v1h-1zM22 75h1v1h-1zM23 75h1v1h-1zM24 75h1v1h-1zM25 75h1v1h-1zM26 75h1v1h-1z"/><path fill="#F6FAEA" d="M27 75h1v1h-1z"/><path fill="#EBF3CF" d="M28 75h1v1h-1zM29 75h1v1h-1zM30 75h1v1h-1zM31 75h1v1h-1zM32 75h1v1h-1zM33 75h1v1h-1zM34 75h1v1h-1z"/><path fill="#CBDBAB" d="M35 75h1v1h-1zM36 75h1v1h-1zM37 75h1v1h-1zM38 75h1v1h-1zM39 75h1v1h-1zM40 75h1v1h-1z"/><path fill="#E0C7B1" d="M41 75h1v1h-1z"/><path fill="#F3A4A9" d="M42 75h1v1h-1z"/><path fill="#EF858C" d="M43 75h1v1h-1z"/><path fill="#E16C6F" d="M44 75h1v1h-1z"/><path fill="#D35252" d="M45 75h1v1h-1zM46 75h1v1h-1zM47 75h1v1h-1zM48 75h1v1h-1zM49 75h1v1h-1z"/><path fill="#442320" d="M50 75h1v1h-1z"/><path fill="#231815" d="M51 75h1v1h-1zM52 75h1v1h-1zM53 75h1v1h-1zM54 75h1v1h-1zM7 76h1v1H7zM8 76h1v1H8zM9 76h1v1H9zM10 76h1v1h-1z"/><path fill="#C97176" d="M11 76h1v1h-1z"/><path fill="#EF858C" d="M12 76h1v1h-1zM13 76h1v1h-1zM14 76h1v1h-1zM15 76h1v1h-1zM16 76h1v1h-1z"/><path fill="#E69B94" d="M17 76h1v1h-1z"/><path fill="#D9BB9F" d="M18 76h1v1h-1z"/><path fill="#E5E0C4" d="M19 76h1v1h-1z"/><path fill="#FFF" d="M20 76h1v1h-1zM21 76h1v1h-1zM22 76h1v1h-1zM23 76h1v1h-1zM24 76h1v1h-1zM25 76h1v1h-1zM26 76h1v1h-1z"/><path fill="#EFF5D8" d="M27 76h1v1h-1z"/><path fill="#EBF3CF" d="M28 76h1v1h-1zM29 76h1v1h-1zM30 76h1v1h-1zM31 76h1v1h-1zM32 76h1v1h-1zM33 76h1v1h-1zM34 76h1v1h-1z"/><path fill="#CBDBAB" d="M35 76h1v1h-1zM36 76h1v1h-1zM37 76h1v1h-1z"/><path fill="#D6C0A1" d="M38 76h1v1h-1z"/><path fill="#DFAB9A" d="M39 76h1v1h-1z"/><path fill="#ED8A8E" d="M40 76h1v1h-1z"/><path fill="#EF858C" d="M41 76h1v1h-1zM42 76h1v1h-1z"/><path fill="#EC7F85" d="M43 76h1v1h-1z"/><path fill="#D55556" d="M44 76h1v1h-1z"/><path fill="#D35252" d="M45 76h1v1h-1zM46 76h1v1h-1zM47 76h1v1h-1zM48 76h1v1h-1z"/><path fill="#7B3534" d="M49 76h1v1h-1z"/><path fill="#231815" d="M50 76h1v1h-1zM51 76h1v1h-1zM52 76h1v1h-1zM53 76h1v1h-1zM7 77h1v1H7zM8 77h1v1H8zM9 77h1v1H9zM10 77h1v1h-1z"/><path fill="#3C2321" d="M11 77h1v1h-1z"/><path fill="#DE7072" d="M12 77h1v1h-1z"/><path fill="#EF858C" d="M13 77h1v1h-1zM14 77h1v1h-1zM15 77h1v1h-1zM16 77h1v1h-1zM17 77h1v1h-1zM18 77h1v1h-1zM19 77h1v1h-1z"/><path fill="#F29CA2" d="M20 77h1v1h-1z"/><path fill="#F5B3B7" d="M21 77h1v1h-1z"/><path fill="#F8CACD" d="M22 77h1v1h-1z"/><path fill="#FBE1E2" d="M23 77h1v1h-1z"/><path fill="#FDF0F1" d="M24 77h1v1h-1z"/><path fill="#FFF" d="M25 77h1v1h-1z"/><path fill="#FDFEF9" d="M26 77h1v1h-1z"/><path fill="#EBF3CF" d="M27 77h1v1h-1zM28 77h1v1h-1zM29 77h1v1h-1zM30 77h1v1h-1zM31 77h1v1h-1z"/><path fill="#EBECCB" d="M32 77h1v1h-1z"/><path fill="#ECD8BE" d="M33 77h1v1h-1z"/><path fill="#EDCAB6" d="M34 77h1v1h-1z"/><path fill="#DDB09C" d="M35 77h1v1h-1z"/><path fill="#E69B94" d="M36 77h1v1h-1z"/><path fill="#EF858C" d="M37 77h1v1h-1zM38 77h1v1h-1zM39 77h1v1h-1zM40 77h1v1h-1zM41 77h1v1h-1zM42 77h1v1h-1z"/><path fill="#DA5F61" d="M43 77h1v1h-1z"/><path fill="#D35252" d="M44 77h1v1h-1zM45 77h1v1h-1zM46 77h1v1h-1zM47 77h1v1h-1z"/><path fill="#9C403F" d="M48 77h1v1h-1z"/><path fill="#231815" d="M49 77h1v1h-1zM50 77h1v1h-1zM51 77h1v1h-1zM52 77h1v1h-1zM53 77h1v1h-1zM8 78h1v1H8zM9 78h1v1H9zM10 78h1v1h-1zM11 78h1v1h-1z"/><path fill="#472622" d="M12 78h1v1h-1z"/><path fill="#DA6563" d="M13 78h1v1h-1z"/><path fill="#ED7E83" d="M14 78h1v1h-1z"/><path fill="#EF858C" d="M15 78h1v1h-1zM16 78h1v1h-1zM17 78h1v1h-1zM18 78h1v1h-1zM19 78h1v1h-1zM20 78h1v1h-1zM21 78h1v1h-1zM22 78h1v1h-1zM23 78h1v1h-1zM24 78h1v1h-1zM25 78h1v1h-1zM26 78h1v1h-1zM27 78h1v1h-1zM28 78h1v1h-1zM29 78h1v1h-1zM30 78h1v1h-1zM31 78h1v1h-1zM32 78h1v1h-1zM33 78h1v1h-1zM34 78h1v1h-1zM35 78h1v1h-1zM36 78h1v1h-1zM37 78h1v1h-1zM38 78h1v1h-1zM39 78h1v1h-1zM40 78h1v1h-1zM41 78h1v1h-1z"/><path fill="#DE6568" d="M42 78h1v1h-1z"/><path fill="#D35252" d="M43 78h1v1h-1zM44 78h1v1h-1zM45 78h1v1h-1zM46 78h1v1h-1z"/><path fill="#B24747" d="M47 78h1v1h-1z"/><path fill="#2E1C19" d="M48 78h1v1h-1z"/><path fill="#231815" d="M49 78h1v1h-1zM50 78h1v1h-1zM51 78h1v1h-1zM52 78h1v1h-1zM9 79h1v1H9zM10 79h1v1h-1zM11 79h1v1h-1zM12 79h1v1h-1z"/><path fill="#472622" d="M13 79h1v1h-1z"/><path fill="#D75C57" d="M14 79h1v1h-1z"/><path fill="#E86E6D" d="M15 79h1v1h-1z"/><path fill="#ED7E83" d="M16 79h1v1h-1z"/><path fill="#EF858C" d="M17 79h1v1h-1zM18 79h1v1h-1zM19 79h1v1h-1zM20 79h1v1h-1zM21 79h1v1h-1zM22 79h1v1h-1zM23 79h1v1h-1zM24 79h1v1h-1zM25 79h1v1h-1zM26 79h1v1h-1zM27 79h1v1h-1zM28 79h1v1h-1zM29 79h1v1h-1zM30 79h1v1h-1zM31 79h1v1h-1zM32 79h1v1h-1zM33 79h1v1h-1zM34 79h1v1h-1zM35 79h1v1h-1zM36 79h1v1h-1zM37 79h1v1h-1zM38 79h1v1h-1zM39 79h1v1h-1zM40 79h1v1h-1z"/><path fill="#DE6568" d="M41 79h1v1h-1z"/><path fill="#D35252" d="M42 79h1v1h-1zM43 79h1v1h-1zM44 79h1v1h-1zM45 79h1v1h-1z"/><path fill="#B24747" d="M46 79h1v1h-1z"/><path fill="#2E1C19" d="M47 79h1v1h-1z"/><path fill="#231815" d="M48 79h1v1h-1zM49 79h1v1h-1zM50 79h1v1h-1zM51 79h1v1h-1zM9 80h1v1H9zM10 80h1v1h-1zM11 80h1v1h-1zM12 80h1v1h-1zM13 80h1v1h-1z"/><path fill="#472622" d="M14 80h1v1h-1z"/><path fill="#D75C57" d="M15 80h1v1h-1z"/><path fill="#E3605B" d="M16 80h1v1h-1z"/><path fill="#E66967" d="M17 80h1v1h-1z"/><path fill="#EB777A" d="M18 80h1v1h-1z"/><path fill="#EE8389" d="M19 80h1v1h-1z"/><path fill="#EF858C" d="M20 80h1v1h-1zM21 80h1v1h-1zM22 80h1v1h-1zM23 80h1v1h-1zM24 80h1v1h-1zM25 80h1v1h-1zM26 80h1v1h-1zM27 80h1v1h-1zM28 80h1v1h-1zM29 80h1v1h-1zM30 80h1v1h-1zM31 80h1v1h-1zM32 80h1v1h-1zM33 80h1v1h-1zM34 80h1v1h-1zM35 80h1v1h-1zM36 80h1v1h-1zM37 80h1v1h-1zM38 80h1v1h-1z"/><path fill="#ED8288" d="M39 80h1v1h-1z"/><path fill="#DA5F61" d="M40 80h1v1h-1z"/><path fill="#D35252" d="M41 80h1v1h-1zM42 80h1v1h-1zM43 80h1v1h-1zM44 80h1v1h-1z"/><path fill="#9C403F" d="M45 80h1v1h-1z"/><path fill="#2E1C19" d="M46 80h1v1h-1z"/><path fill="#231815" d="M47 80h1v1h-1zM48 80h1v1h-1zM49 80h1v1h-1zM50 80h1v1h-1zM10 81h1v1h-1zM11 81h1v1h-1zM12 81h1v1h-1zM13 81h1v1h-1zM14 81h1v1h-1z"/><path fill="#2F1D19" d="M15 81h1v1h-1z"/><path fill="#B34E4A" d="M16 81h1v1h-1z"/><path fill="#E3605B" d="M17 81h1v1h-1zM18 81h1v1h-1zM19 81h1v1h-1z"/><path fill="#E76C6A" d="M20 81h1v1h-1z"/><path fill="#EA7577" d="M21 81h1v1h-1z"/><path fill="#ED7E83" d="M22 81h1v1h-1z"/><path fill="#EF858C" d="M23 81h1v1h-1zM24 81h1v1h-1zM25 81h1v1h-1zM26 81h1v1h-1zM27 81h1v1h-1zM28 81h1v1h-1zM29 81h1v1h-1zM30 81h1v1h-1zM31 81h1v1h-1zM32 81h1v1h-1zM33 81h1v1h-1zM34 81h1v1h-1zM35 81h1v1h-1z"/><path fill="#ED7E83" d="M36 81h1v1h-1z"/><path fill="#EA7577" d="M37 81h1v1h-1z"/><path fill="#E26768" d="M38 81h1v1h-1z"/><path fill="#D45353" d="M39 81h1v1h-1z"/><path fill="#D35252" d="M40 81h1v1h-1zM41 81h1v1h-1zM42 81h1v1h-1zM43 81h1v1h-1z"/><path fill="#7B3534" d="M44 81h1v1h-1z"/><path fill="#231815" d="M45 81h1v1h-1zM46 81h1v1h-1zM47 81h1v1h-1zM48 81h1v1h-1zM49 81h1v1h-1zM11 82h1v1h-1zM12 82h1v1h-1zM13 82h1v1h-1zM14 82h1v1h-1zM15 82h1v1h-1zM16 82h1v1h-1z"/><path fill="#833C38" d="M17 82h1v1h-1z"/><path fill="#D75C57" d="M18 82h1v1h-1z"/><path fill="#E3605B" d="M19 82h1v1h-1zM20 82h1v1h-1zM21 82h1v1h-1zM22 82h1v1h-1zM23 82h1v1h-1z"/><path fill="#E66967" d="M24 82h1v1h-1zM25 82h1v1h-1z"/><path fill="#E97374" d="M26 82h1v1h-1zM27 82h1v1h-1zM28 82h1v1h-1zM29 82h1v1h-1zM30 82h1v1h-1zM31 82h1v1h-1zM32 82h1v1h-1z"/><path fill="#E66967" d="M33 82h1v1h-1z"/><path fill="#E56764" d="M34 82h1v1h-1z"/><path fill="#E3605B" d="M35 82h1v1h-1z"/><path fill="#DF5D59" d="M36 82h1v1h-1z"/><path fill="#D75654" d="M37 82h1v1h-1z"/><path fill="#D35252" d="M38 82h1v1h-1zM39 82h1v1h-1zM40 82h1v1h-1zM41 82h1v1h-1z"/><path fill="#BD4B4A" d="M42 82h1v1h-1z"/><path fill="#4F2724" d="M43 82h1v1h-1z"/><path fill="#231815" d="M44 82h1v1h-1zM45 82h1v1h-1zM46 82h1v1h-1zM47 82h1v1h-1zM48 82h1v1h-1zM12 83h1v1h-1zM13 83h1v1h-1zM14 83h1v1h-1zM15 83h1v1h-1zM16 83h1v1h-1zM17 83h1v1h-1z"/><path fill="#3B211E" d="M18 83h1v1h-1z"/><path fill="#9B4541" d="M19 83h1v1h-1z"/><path fill="#E3605B" d="M20 83h1v1h-1zM21 83h1v1h-1zM22 83h1v1h-1zM23 83h1v1h-1zM24 83h1v1h-1zM25 83h1v1h-1zM26 83h1v1h-1zM27 83h1v1h-1zM28 83h1v1h-1zM29 83h1v1h-1zM30 83h1v1h-1zM31 83h1v1h-1zM32 83h1v1h-1z"/><path fill="#E25F5A" d="M33 83h1v1h-1z"/><path fill="#DD5B58" d="M34 83h1v1h-1z"/><path fill="#D65554" d="M35 83h1v1h-1z"/><path fill="#D35252" d="M36 83h1v1h-1zM37 83h1v1h-1zM38 83h1v1h-1zM39 83h1v1h-1z"/><path fill="#C84E4E" d="M40 83h1v1h-1z"/><path fill="#7B3534" d="M41 83h1v1h-1z"/><path fill="#231815" d="M42 83h1v1h-1zM43 83h1v1h-1zM44 83h1v1h-1zM45 83h1v1h-1zM46 83h1v1h-1zM47 83h1v1h-1zM14 84h1v1h-1zM15 84h1v1h-1zM16 84h1v1h-1zM17 84h1v1h-1zM18 84h1v1h-1zM19 84h1v1h-1z"/><path fill="#3B211E" d="M20 84h1v1h-1z"/><path fill="#9B4541" d="M21 84h1v1h-1z"/><path fill="#D65B56" d="M22 84h1v1h-1z"/><path fill="#E3605B" d="M23 84h1v1h-1zM24 84h1v1h-1zM25 84h1v1h-1zM26 84h1v1h-1zM27 84h1v1h-1zM28 84h1v1h-1zM29 84h1v1h-1z"/><path fill="#E15E5A" d="M30 84h1v1h-1z"/><path fill="#DD5B58" d="M31 84h1v1h-1z"/><path fill="#D85655" d="M32 84h1v1h-1z"/><path fill="#D35252" d="M33 84h1v1h-1zM34 84h1v1h-1zM35 84h1v1h-1zM36 84h1v1h-1zM37 84h1v1h-1z"/><path fill="#BD4B4A" d="M38 84h1v1h-1z"/><path fill="#703130" d="M39 84h1v1h-1z"/><path fill="#2E1C19" d="M40 84h1v1h-1z"/><path fill="#231815" d="M41 84h1v1h-1zM42 84h1v1h-1zM43 84h1v1h-1zM44 84h1v1h-1zM45 84h1v1h-1zM46 84h1v1h-1zM15 85h1v1h-1zM16 85h1v1h-1zM17 85h1v1h-1zM18 85h1v1h-1zM19 85h1v1h-1zM20 85h1v1h-1zM21 85h1v1h-1z"/><path fill="#2E1C19" d="M22 85h1v1h-1z"/><path fill="#662F2C" d="M23 85h1v1h-1z"/><path fill="#A04341" d="M24 85h1v1h-1z"/><path fill="#CC5250" d="M25 85h1v1h-1z"/><path fill="#D95755" d="M26 85h1v1h-1z"/><path fill="#D75654" d="M27 85h1v1h-1zM28 85h1v1h-1z"/><path fill="#D55453" d="M29 85h1v1h-1z"/><path fill="#D35252" d="M30 85h1v1h-1zM31 85h1v1h-1zM32 85h1v1h-1zM33 85h1v1h-1zM34 85h1v1h-1z"/><path fill="#B24747" d="M35 85h1v1h-1z"/><path fill="#863937" d="M36 85h1v1h-1z"/><path fill="#442320" d="M37 85h1v1h-1z"/><path fill="#231815" d="M38 85h1v1h-1zM39 85h1v1h-1zM40 85h1v1h-1zM41 85h1v1h-1zM42 85h1v1h-1zM43 85h1v1h-1zM44 85h1v1h-1zM45 85h1v1h-1zM17 86h1v1h-1zM18 86h1v1h-1zM19 86h1v1h-1zM20 86h1v1h-1zM21 86h1v1h-1zM22 86h1v1h-1zM23 86h1v1h-1zM24 86h1v1h-1zM25 86h1v1h-1z"/><path fill="#391F1D" d="M26 86h1v1h-1z"/><path fill="#4F2724" d="M27 86h1v1h-1z"/><path fill="#703130" d="M28 86h1v1h-1z"/><path fill="#7B3534" d="M29 86h1v1h-1zM30 86h1v1h-1zM31 86h1v1h-1z"/><path fill="#5A2A28" d="M32 86h1v1h-1z"/><path fill="#4F2724" d="M33 86h1v1h-1z"/><path fill="#2E1C19" d="M34 86h1v1h-1z"/><path fill="#231815" d="M35 86h1v1h-1zM36 86h1v1h-1zM37 86h1v1h-1zM38 86h1v1h-1zM39 86h1v1h-1zM40 86h1v1h-1zM41 86h1v1h-1zM42 86h1v1h-1zM43 86h1v1h-1zM19 87h1v1h-1zM20 87h1v1h-1zM21 87h1v1h-1zM22 87h1v1h-1zM23 87h1v1h-1zM24 87h1v1h-1zM25 87h1v1h-1zM26 87h1v1h-1zM27 87h1v1h-1zM28 87h1v1h-1zM29 87h1v1h-1zM30 87h1v1h-1zM31 87h1v1h-1zM32 87h1v1h-1zM33 87h1v1h-1zM34 87h1v1h-1zM35 87h1v1h-1zM36 87h1v1h-1zM37 87h1v1h-1zM38 87h1v1h-1zM39 87h1v1h-1zM40 87h1v1h-1zM41 87h1v1h-1zM21 88h1v1h-1zM22 88h1v1h-1zM23 88h1v1h-1zM24 88h1v1h-1zM25 88h1v1h-1zM26 88h1v1h-1zM27 88h1v1h-1zM28 88h1v1h-1zM29 88h1v1h-1zM30 88h1v1h-1zM31 88h1v1h-1zM32 88h1v1h-1zM33 88h1v1h-1zM34 88h1v1h-1zM35 88h1v1h-1zM36 88h1v1h-1zM37 88h1v1h-1zM38 88h1v1h-1zM39 88h1v1h-1zM25 89h1v1h-1zM26 89h1v1h-1zM27 89h1v1h-1zM28 89h1v1h-1zM29 89h1v1h-1zM30 89h1v1h-1zM31 89h1v1h-1zM32 89h1v1h-1zM33 89h1v1h-1zM34 89h1v1h-1zM35 89h1v1h-1z"/></svg>