<svg baseProfile="full" height="90" width="78" xmlns="http://www.w3.org/2000/svg"><path fill="#231815" d="M38 0h1v1h-1zM39 0h1v1h-1zM40 0h1v1h-1zM41 0h1v1h-1zM42 0h1v1h-1zM43 0h1v1h-1zM44 0h1v1h-1zM45 0h1v1h-1zM46 0h1v1h-1zM47 0h1v1h-1zM34 1h1v1h-1zM35 1h1v1h-1zM36 1h1v1h-1zM37 1h1v1h-1zM38 1h1v1h-1zM39 1h1v1h-1zM40 1h1v1h-1zM41 1h1v1h-1zM42 1h1v1h-1zM43 1h1v1h-1zM44 1h1v1h-1zM45 1h1v1h-1zM46 1h1v1h-1zM47 1h1v1h-1zM48 1h1v1h-1zM49 1h1v1h-1zM50 1h1v1h-1zM51 1h1v1h-1zM32 2h1v1h-1zM33 2h1v1h-1zM34 2h1v1h-1zM35 2h1v1h-1zM36 2h1v1h-1zM37 2h1v1h-1zM38 2h1v1h-1zM39 2h1v1h-1zM40 2h1v1h-1zM41 2h1v1h-1zM42 2h1v1h-1zM43 2h1v1h-1zM44 2h1v1h-1zM45 2h1v1h-1zM46 2h1v1h-1zM47 2h1v1h-1zM48 2h1v1h-1zM49 2h1v1h-1zM50 2h1v1h-1zM51 2h1v1h-1zM52 2h1v1h-1zM53 2h1v1h-1zM30 3h1v1h-1zM31 3h1v1h-1zM32 3h1v1h-1zM33 3h1v1h-1zM34 3h1v1h-1zM35 3h1v1h-1zM36 3h1v1h-1zM37 3h1v1h-1zM38 3h1v1h-1zM39 3h1v1h-1zM40 3h1v1h-1zM41 3h1v1h-1zM42 3h1v1h-1zM43 3h1v1h-1zM44 3h1v1h-1zM45 3h1v1h-1zM46 3h1v1h-1zM47 3h1v1h-1zM48 3h1v1h-1zM49 3h1v1h-1zM50 3h1v1h-1zM51 3h1v1h-1zM52 3h1v1h-1zM53 3h1v1h-1zM54 3h1v1h-1zM55 3h1v1h-1zM28 4h1v1h-1zM29 4h1v1h-1zM30 4h1v1h-1zM31 4h1v1h-1zM32 4h1v1h-1zM33 4h1v1h-1zM34 4h1v1h-1zM35 4h1v1h-1zM36 4h1v1h-1z"/><path fill="#2E2523" d="M37 4h1v1h-1z"/><path fill="#4F4B4B" d="M38 4h1v1h-1z"/><path fill="#7B7F82" d="M39 4h1v1h-1z"/><path fill="#91989D" d="M40 4h1v1h-1z"/><path fill="#A7B2B8" d="M41 4h1v1h-1zM42 4h1v1h-1zM43 4h1v1h-1zM44 4h1v1h-1z"/><path fill="#91989D" d="M45 4h1v1h-1z"/><path fill="#7B7F82" d="M46 4h1v1h-1z"/><path fill="#5A5859" d="M47 4h1v1h-1z"/><path fill="#2E2523" d="M48 4h1v1h-1z"/><path fill="#231815" d="M49 4h1v1h-1zM50 4h1v1h-1zM51 4h1v1h-1zM52 4h1v1h-1zM53 4h1v1h-1zM54 4h1v1h-1zM55 4h1v1h-1zM56 4h1v1h-1zM26 5h1v1h-1zM27 5h1v1h-1zM28 5h1v1h-1zM29 5h1v1h-1zM30 5h1v1h-1zM31 5h1v1h-1zM32 5h1v1h-1zM33 5h1v1h-1z"/><path fill="#2E2523" d="M34 5h1v1h-1z"/><path fill="#656566" d="M35 5h1v1h-1z"/><path fill="#9CA5AA" d="M36 5h1v1h-1z"/><path fill="#D3E5EE" d="M37 5h1v1h-1zM38 5h1v1h-1zM39 5h1v1h-1zM40 5h1v1h-1zM41 5h1v1h-1zM42 5h1v1h-1zM43 5h1v1h-1zM44 5h1v1h-1zM45 5h1v1h-1zM46 5h1v1h-1zM47 5h1v1h-1zM48 5h1v1h-1z"/><path fill="#B2BFC5" d="M49 5h1v1h-1z"/><path fill="#656566" d="M50 5h1v1h-1z"/><path fill="#2E2523" d="M51 5h1v1h-1z"/><path fill="#231815" d="M52 5h1v1h-1zM53 5h1v1h-1zM54 5h1v1h-1zM55 5h1v1h-1zM56 5h1v1h-1zM57 5h1v1h-1zM58 5h1v1h-1zM25 6h1v1h-1zM26 6h1v1h-1zM27 6h1v1h-1zM28 6h1v1h-1zM29 6h1v1h-1zM30 6h1v1h-1zM31 6h1v1h-1z"/><path fill="#393230" d="M32 6h1v1h-1z"/><path fill="#91989D" d="M33 6h1v1h-1z"/><path fill="#D3E5EE" d="M34 6h1v1h-1zM35 6h1v1h-1zM36 6h1v1h-1zM37 6h1v1h-1zM38 6h1v1h-1zM39 6h1v1h-1zM40 6h1v1h-1zM41 6h1v1h-1zM42 6h1v1h-1zM43 6h1v1h-1zM44 6h1v1h-1zM45 6h1v1h-1zM46 6h1v1h-1zM47 6h1v1h-1zM48 6h1v1h-1zM49 6h1v1h-1zM50 6h1v1h-1z"/><path fill="#C8D8E0" d="M51 6h1v1h-1z"/><path fill="#7B7F82" d="M52 6h1v1h-1z"/><path fill="#2E2523" d="M53 6h1v1h-1z"/><path fill="#231815" d="M54 6h1v1h-1zM55 6h1v1h-1zM56 6h1v1h-1zM57 6h1v1h-1zM58 6h1v1h-1zM59 6h1v1h-1zM23 7h1v1h-1zM24 7h1v1h-1zM25 7h1v1h-1zM26 7h1v1h-1zM27 7h1v1h-1zM28 7h1v1h-1zM29 7h1v1h-1z"/><path fill="#393230" d="M30 7h1v1h-1z"/><path fill="#91989D" d="M31 7h1v1h-1z"/><path fill="#D3E5EE" d="M32 7h1v1h-1zM33 7h1v1h-1zM34 7h1v1h-1zM35 7h1v1h-1zM36 7h1v1h-1zM37 7h1v1h-1zM38 7h1v1h-1zM39 7h1v1h-1zM40 7h1v1h-1zM41 7h1v1h-1zM42 7h1v1h-1zM43 7h1v1h-1zM44 7h1v1h-1zM45 7h1v1h-1zM46 7h1v1h-1zM47 7h1v1h-1zM48 7h1v1h-1zM49 7h1v1h-1zM50 7h1v1h-1zM51 7h1v1h-1zM52 7h1v1h-1z"/><path fill="#BDCBD3" d="M53 7h1v1h-1z"/><path fill="#5A5859" d="M54 7h1v1h-1z"/><path fill="#231815" d="M55 7h1v1h-1zM56 7h1v1h-1zM57 7h1v1h-1zM58 7h1v1h-1zM59 7h1v1h-1zM60 7h1v1h-1zM22 8h1v1h-1zM23 8h1v1h-1zM24 8h1v1h-1zM25 8h1v1h-1zM26 8h1v1h-1zM27 8h1v1h-1zM28 8h1v1h-1z"/><path fill="#7B7F82" d="M29 8h1v1h-1z"/><path fill="#C8D8E0" d="M30 8h1v1h-1z"/><path fill="#D3E5EE" d="M31 8h1v1h-1zM32 8h1v1h-1zM33 8h1v1h-1zM34 8h1v1h-1zM35 8h1v1h-1zM36 8h1v1h-1zM37 8h1v1h-1zM38 8h1v1h-1zM39 8h1v1h-1zM40 8h1v1h-1zM41 8h1v1h-1zM42 8h1v1h-1zM43 8h1v1h-1zM44 8h1v1h-1zM45 8h1v1h-1zM46 8h1v1h-1zM47 8h1v1h-1zM48 8h1v1h-1zM49 8h1v1h-1zM50 8h1v1h-1zM51 8h1v1h-1zM52 8h1v1h-1zM53 8h1v1h-1zM54 8h1v1h-1z"/><path fill="#91989D" d="M55 8h1v1h-1z"/><path fill="#2E2523" d="M56 8h1v1h-1z"/><path fill="#231815" d="M57 8h1v1h-1zM58 8h1v1h-1zM59 8h1v1h-1zM60 8h1v1h-1zM61 8h1v1h-1zM21 9h1v1h-1zM22 9h1v1h-1zM23 9h1v1h-1zM24 9h1v1h-1zM25 9h1v1h-1zM26 9h1v1h-1z"/><path fill="#443E3E" d="M27 9h1v1h-1z"/><path fill="#B2BFC5" d="M28 9h1v1h-1z"/><path fill="#D3E5EE" d="M29 9h1v1h-1zM30 9h1v1h-1zM31 9h1v1h-1zM32 9h1v1h-1zM33 9h1v1h-1zM34 9h1v1h-1zM35 9h1v1h-1zM36 9h1v1h-1zM37 9h1v1h-1zM38 9h1v1h-1zM39 9h1v1h-1zM40 9h1v1h-1zM41 9h1v1h-1zM42 9h1v1h-1zM43 9h1v1h-1zM44 9h1v1h-1zM45 9h1v1h-1zM46 9h1v1h-1zM47 9h1v1h-1zM48 9h1v1h-1zM49 9h1v1h-1zM50 9h1v1h-1zM51 9h1v1h-1zM52 9h1v1h-1zM53 9h1v1h-1zM54 9h1v1h-1zM55 9h1v1h-1z"/><path fill="#B2BFC5" d="M56 9h1v1h-1z"/><path fill="#393230" d="M57 9h1v1h-1z"/><path fill="#231815" d="M58 9h1v1h-1zM59 9h1v1h-1zM60 9h1v1h-1zM61 9h1v1h-1zM62 9h1v1h-1zM20 10h1v1h-1zM21 10h1v1h-1zM22 10h1v1h-1zM23 10h1v1h-1zM24 10h1v1h-1zM25 10h1v1h-1z"/><path fill="#707274" d="M26 10h1v1h-1z"/><path fill="#D3E5EE" d="M27 10h1v1h-1zM28 10h1v1h-1zM29 10h1v1h-1zM30 10h1v1h-1zM31 10h1v1h-1zM32 10h1v1h-1zM33 10h1v1h-1zM34 10h1v1h-1zM35 10h1v1h-1zM36 10h1v1h-1zM37 10h1v1h-1zM38 10h1v1h-1zM39 10h1v1h-1zM40 10h1v1h-1zM41 10h1v1h-1zM42 10h1v1h-1zM43 10h1v1h-1zM44 10h1v1h-1zM45 10h1v1h-1zM46 10h1v1h-1zM47 10h1v1h-1zM48 10h1v1h-1zM49 10h1v1h-1zM50 10h1v1h-1zM51 10h1v1h-1zM52 10h1v1h-1zM53 10h1v1h-1zM54 10h1v1h-1zM55 10h1v1h-1zM56 10h1v1h-1z"/><path fill="#C8D8E0" d="M57 10h1v1h-1z"/><path fill="#443E3E" d="M58 10h1v1h-1z"/><path fill="#231815" d="M59 10h1v1h-1zM60 10h1v1h-1zM61 10h1v1h-1zM62 10h1v1h-1zM63 10h1v1h-1zM19 11h1v1h-1zM20 11h1v1h-1zM21 11h1v1h-1zM22 11h1v1h-1zM23 11h1v1h-1z"/><path fill="#2E2523" d="M24 11h1v1h-1z"/><path fill="#9CA5AA" d="M25 11h1v1h-1z"/><path fill="#D3E5EE" d="M26 11h1v1h-1zM27 11h1v1h-1zM28 11h1v1h-1zM29 11h1v1h-1zM30 11h1v1h-1zM31 11h1v1h-1zM32 11h1v1h-1zM33 11h1v1h-1zM34 11h1v1h-1zM35 11h1v1h-1zM36 11h1v1h-1zM37 11h1v1h-1zM38 11h1v1h-1zM39 11h1v1h-1zM40 11h1v1h-1zM41 11h1v1h-1zM42 11h1v1h-1zM43 11h1v1h-1zM44 11h1v1h-1zM45 11h1v1h-1zM46 11h1v1h-1zM47 11h1v1h-1zM48 11h1v1h-1zM49 11h1v1h-1zM50 11h1v1h-1zM51 11h1v1h-1zM52 11h1v1h-1zM53 11h1v1h-1zM54 11h1v1h-1zM55 11h1v1h-1zM56 11h1v1h-1zM57 11h1v1h-1z"/><path fill="#C8D8E0" d="M58 11h1v1h-1z"/><path fill="#443E3E" d="M59 11h1v1h-1z"/><path fill="#231815" d="M60 11h1v1h-1zM61 11h1v1h-1zM62 11h1v1h-1zM63 11h1v1h-1zM64 11h1v1h-1zM18 12h1v1h-1zM19 12h1v1h-1zM20 12h1v1h-1zM21 12h1v1h-1zM22 12h1v1h-1z"/><path fill="#393230" d="M23 12h1v1h-1z"/><path fill="#B2BFC5" d="M24 12h1v1h-1z"/><path fill="#D3E5EE" d="M25 12h1v1h-1zM26 12h1v1h-1zM27 12h1v1h-1zM28 12h1v1h-1zM29 12h1v1h-1zM30 12h1v1h-1zM31 12h1v1h-1zM32 12h1v1h-1zM33 12h1v1h-1zM34 12h1v1h-1zM35 12h1v1h-1zM36 12h1v1h-1zM37 12h1v1h-1zM38 12h1v1h-1zM39 12h1v1h-1zM40 12h1v1h-1zM41 12h1v1h-1zM42 12h1v1h-1zM43 12h1v1h-1zM44 12h1v1h-1zM45 12h1v1h-1zM46 12h1v1h-1zM47 12h1v1h-1zM48 12h1v1h-1zM49 12h1v1h-1zM50 12h1v1h-1zM51 12h1v1h-1zM52 12h1v1h-1zM53 12h1v1h-1zM54 12h1v1h-1zM55 12h1v1h-1zM56 12h1v1h-1zM57 12h1v1h-1zM58 12h1v1h-1z"/><path fill="#C8D8E0" d="M59 12h1v1h-1z"/><path fill="#443E3E" d="M60 12h1v1h-1z"/><path fill="#231815" d="M61 12h1v1h-1zM62 12h1v1h-1zM63 12h1v1h-1zM64 12h1v1h-1zM65 12h1v1h-1zM17 13h1v1h-1zM18 13h1v1h-1zM19 13h1v1h-1zM20 13h1v1h-1zM21 13h1v1h-1z"/><path fill="#443E3E" d="M22 13h1v1h-1z"/><path fill="#C8D8E0" d="M23 13h1v1h-1z"/><path fill="#D3E5EE" d="M24 13h1v1h-1zM25 13h1v1h-1zM26 13h1v1h-1zM27 13h1v1h-1zM28 13h1v1h-1zM29 13h1v1h-1zM30 13h1v1h-1zM31 13h1v1h-1zM32 13h1v1h-1zM33 13h1v1h-1zM34 13h1v1h-1zM35 13h1v1h-1zM36 13h1v1h-1zM37 13h1v1h-1zM38 13h1v1h-1zM39 13h1v1h-1zM40 13h1v1h-1zM41 13h1v1h-1zM42 13h1v1h-1zM43 13h1v1h-1zM44 13h1v1h-1zM45 13h1v1h-1zM46 13h1v1h-1zM47 13h1v1h-1zM48 13h1v1h-1zM49 13h1v1h-1zM50 13h1v1h-1zM51 13h1v1h-1zM52 13h1v1h-1zM53 13h1v1h-1zM54 13h1v1h-1zM55 13h1v1h-1zM56 13h1v1h-1zM57 13h1v1h-1zM58 13h1v1h-1zM59 13h1v1h-1z"/><path fill="#C8D8E0" d="M60 13h1v1h-1z"/><path fill="#2E2523" d="M61 13h1v1h-1z"/><path fill="#231815" d="M62 13h1v1h-1zM63 13h1v1h-1zM64 13h1v1h-1zM65 13h1v1h-1zM66 13h1v1h-1zM16 14h1v1h-1zM17 14h1v1h-1zM18 14h1v1h-1zM19 14h1v1h-1zM20 14h1v1h-1z"/><path fill="#443E3E" d="M21 14h1v1h-1z"/><path fill="#C8D8E0" d="M22 14h1v1h-1z"/><path fill="#D3E5EE" d="M23 14h1v1h-1zM24 14h1v1h-1zM25 14h1v1h-1zM26 14h1v1h-1zM27 14h1v1h-1zM28 14h1v1h-1zM29 14h1v1h-1zM30 14h1v1h-1zM31 14h1v1h-1zM32 14h1v1h-1zM33 14h1v1h-1zM34 14h1v1h-1zM35 14h1v1h-1zM36 14h1v1h-1zM37 14h1v1h-1zM38 14h1v1h-1zM39 14h1v1h-1zM40 14h1v1h-1zM41 14h1v1h-1zM42 14h1v1h-1zM43 14h1v1h-1zM44 14h1v1h-1zM45 14h1v1h-1zM46 14h1v1h-1zM47 14h1v1h-1zM48 14h1v1h-1zM49 14h1v1h-1zM50 14h1v1h-1zM51 14h1v1h-1zM52 14h1v1h-1zM53 14h1v1h-1zM54 14h1v1h-1zM55 14h1v1h-1zM56 14h1v1h-1zM57 14h1v1h-1zM58 14h1v1h-1zM59 14h1v1h-1zM60 14h1v1h-1z"/><path fill="#B2BFC5" d="M61 14h1v1h-1z"/><path fill="#2E2523" d="M62 14h1v1h-1z"/><path fill="#231815" d="M63 14h1v1h-1zM64 14h1v1h-1zM65 14h1v1h-1zM66 14h1v1h-1zM15 15h1v1h-1zM16 15h1v1h-1zM17 15h1v1h-1zM18 15h1v1h-1zM19 15h1v1h-1z"/><path fill="#443E3E" d="M20 15h1v1h-1z"/><path fill="#C8D8E0" d="M21 15h1v1h-1z"/><path fill="#D3E5EE" d="M22 15h1v1h-1zM23 15h1v1h-1zM24 15h1v1h-1zM25 15h1v1h-1zM26 15h1v1h-1zM27 15h1v1h-1zM28 15h1v1h-1zM29 15h1v1h-1zM30 15h1v1h-1zM31 15h1v1h-1zM32 15h1v1h-1zM33 15h1v1h-1zM34 15h1v1h-1zM35 15h1v1h-1zM36 15h1v1h-1zM37 15h1v1h-1zM38 15h1v1h-1zM39 15h1v1h-1zM40 15h1v1h-1zM41 15h1v1h-1zM42 15h1v1h-1zM43 15h1v1h-1zM44 15h1v1h-1zM45 15h1v1h-1zM46 15h1v1h-1zM47 15h1v1h-1zM48 15h1v1h-1zM49 15h1v1h-1zM50 15h1v1h-1zM51 15h1v1h-1zM52 15h1v1h-1zM53 15h1v1h-1zM54 15h1v1h-1zM55 15h1v1h-1zM56 15h1v1h-1zM57 15h1v1h-1zM58 15h1v1h-1zM59 15h1v1h-1zM60 15h1v1h-1zM61 15h1v1h-1z"/><path fill="#91989D" d="M62 15h1v1h-1z"/><path fill="#231815" d="M63 15h1v1h-1zM64 15h1v1h-1zM65 15h1v1h-1zM66 15h1v1h-1zM67 15h1v1h-1zM14 16h1v1h-1zM15 16h1v1h-1zM16 16h1v1h-1zM17 16h1v1h-1zM18 16h1v1h-1z"/><path fill="#443E3E" d="M19 16h1v1h-1z"/><path fill="#C8D8E0" d="M20 16h1v1h-1z"/><path fill="#D3E5EE" d="M21 16h1v1h-1zM22 16h1v1h-1zM23 16h1v1h-1zM24 16h1v1h-1zM25 16h1v1h-1zM26 16h1v1h-1zM27 16h1v1h-1zM28 16h1v1h-1zM29 16h1v1h-1zM30 16h1v1h-1zM31 16h1v1h-1zM32 16h1v1h-1zM33 16h1v1h-1zM34 16h1v1h-1zM35 16h1v1h-1zM36 16h1v1h-1zM37 16h1v1h-1zM38 16h1v1h-1zM39 16h1v1h-1zM40 16h1v1h-1zM41 16h1v1h-1zM42 16h1v1h-1zM43 16h1v1h-1zM44 16h1v1h-1zM45 16h1v1h-1zM46 16h1v1h-1zM47 16h1v1h-1zM48 16h1v1h-1zM49 16h1v1h-1zM50 16h1v1h-1zM51 16h1v1h-1zM52 16h1v1h-1zM53 16h1v1h-1zM54 16h1v1h-1zM55 16h1v1h-1zM56 16h1v1h-1zM57 16h1v1h-1zM58 16h1v1h-1zM59 16h1v1h-1zM60 16h1v1h-1zM61 16h1v1h-1zM62 16h1v1h-1z"/><path fill="#5A5859" d="M63 16h1v1h-1z"/><path fill="#231815" d="M64 16h1v1h-1zM65 16h1v1h-1zM66 16h1v1h-1zM67 16h1v1h-1zM68 16h1v1h-1zM13 17h1v1h-1zM14 17h1v1h-1zM15 17h1v1h-1zM16 17h1v1h-1zM17 17h1v1h-1z"/><path fill="#443E3E" d="M18 17h1v1h-1z"/><path fill="#C8D8E0" d="M19 17h1v1h-1z"/><path fill="#D3E5EE" d="M20 17h1v1h-1zM21 17h1v1h-1zM22 17h1v1h-1zM23 17h1v1h-1zM24 17h1v1h-1zM25 17h1v1h-1zM26 17h1v1h-1zM27 17h1v1h-1zM28 17h1v1h-1zM29 17h1v1h-1zM30 17h1v1h-1zM31 17h1v1h-1zM32 17h1v1h-1zM33 17h1v1h-1zM34 17h1v1h-1zM35 17h1v1h-1zM36 17h1v1h-1zM37 17h1v1h-1zM38 17h1v1h-1zM39 17h1v1h-1zM40 17h1v1h-1zM41 17h1v1h-1zM42 17h1v1h-1zM43 17h1v1h-1zM44 17h1v1h-1zM45 17h1v1h-1zM46 17h1v1h-1zM47 17h1v1h-1zM48 17h1v1h-1zM49 17h1v1h-1zM50 17h1v1h-1zM51 17h1v1h-1zM52 17h1v1h-1zM53 17h1v1h-1zM54 17h1v1h-1zM55 17h1v1h-1zM56 17h1v1h-1zM57 17h1v1h-1zM58 17h1v1h-1zM59 17h1v1h-1zM60 17h1v1h-1zM61 17h1v1h-1zM62 17h1v1h-1z"/><path fill="#C8D8E0" d="M63 17h1v1h-1z"/><path fill="#2E2523" d="M64 17h1v1h-1z"/><path fill="#231815" d="M65 17h1v1h-1zM66 17h1v1h-1zM67 17h1v1h-1zM68 17h1v1h-1zM12 18h1v1h-1zM13 18h1v1h-1zM14 18h1v1h-1zM15 18h1v1h-1zM16 18h1v1h-1z"/><path fill="#2E2523" d="M17 18h1v1h-1z"/><path fill="#B2BFC5" d="M18 18h1v1h-1z"/><path fill="#D3E5EE" d="M19 18h1v1h-1zM20 18h1v1h-1zM21 18h1v1h-1zM22 18h1v1h-1zM23 18h1v1h-1zM24 18h1v1h-1zM25 18h1v1h-1zM26 18h1v1h-1zM27 18h1v1h-1zM28 18h1v1h-1zM29 18h1v1h-1zM30 18h1v1h-1zM31 18h1v1h-1zM32 18h1v1h-1zM33 18h1v1h-1zM34 18h1v1h-1zM35 18h1v1h-1zM36 18h1v1h-1zM37 18h1v1h-1zM38 18h1v1h-1zM39 18h1v1h-1zM40 18h1v1h-1zM41 18h1v1h-1zM42 18h1v1h-1zM43 18h1v1h-1zM44 18h1v1h-1zM45 18h1v1h-1zM46 18h1v1h-1zM47 18h1v1h-1zM48 18h1v1h-1zM49 18h1v1h-1zM50 18h1v1h-1zM51 18h1v1h-1zM52 18h1v1h-1zM53 18h1v1h-1zM54 18h1v1h-1zM55 18h1v1h-1zM56 18h1v1h-1zM57 18h1v1h-1zM58 18h1v1h-1zM59 18h1v1h-1zM60 18h1v1h-1zM61 18h1v1h-1zM62 18h1v1h-1zM63 18h1v1h-1z"/><path fill="#888B90" d="M64 18h1v1h-1z"/><path fill="#231815" d="M65 18h1v1h-1zM66 18h1v1h-1zM67 18h1v1h-1zM68 18h1v1h-1zM69 18h1v1h-1zM12 19h1v1h-1zM13 19h1v1h-1zM14 19h1v1h-1zM15 19h1v1h-1zM16 19h1v1h-1z"/><path fill="#B2BFC5" d="M17 19h1v1h-1z"/><path fill="#D3E5EE" d="M18 19h1v1h-1zM19 19h1v1h-1zM20 19h1v1h-1zM21 19h1v1h-1zM22 19h1v1h-1zM23 19h1v1h-1zM24 19h1v1h-1zM25 19h1v1h-1zM26 19h1v1h-1zM27 19h1v1h-1zM28 19h1v1h-1zM29 19h1v1h-1zM30 19h1v1h-1zM31 19h1v1h-1zM32 19h1v1h-1zM33 19h1v1h-1zM34 19h1v1h-1zM35 19h1v1h-1zM36 19h1v1h-1zM37 19h1v1h-1zM38 19h1v1h-1zM39 19h1v1h-1zM40 19h1v1h-1zM41 19h1v1h-1zM42 19h1v1h-1zM43 19h1v1h-1zM44 19h1v1h-1zM45 19h1v1h-1zM46 19h1v1h-1zM47 19h1v1h-1zM48 19h1v1h-1zM49 19h1v1h-1zM50 19h1v1h-1zM51 19h1v1h-1zM52 19h1v1h-1zM53 19h1v1h-1zM54 19h1v1h-1zM55 19h1v1h-1zM56 19h1v1h-1zM57 19h1v1h-1zM58 19h1v1h-1zM59 19h1v1h-1zM60 19h1v1h-1zM61 19h1v1h-1zM62 19h1v1h-1zM63 19h1v1h-1z"/><path fill="#B1B9C0" d="M64 19h1v1h-1z"/><path fill="#4C4646" d="M65 19h1v1h-1z"/><path fill="#231815" d="M66 19h1v1h-1zM67 19h1v1h-1zM68 19h1v1h-1zM69 19h1v1h-1zM11 20h1v1h-1zM12 20h1v1h-1zM13 20h1v1h-1zM14 20h1v1h-1zM15 20h1v1h-1z"/><path fill="#91989D" d="M16 20h1v1h-1z"/><path fill="#D3E5EE" d="M17 20h1v1h-1zM18 20h1v1h-1zM19 20h1v1h-1zM20 20h1v1h-1zM21 20h1v1h-1zM22 20h1v1h-1zM23 20h1v1h-1zM24 20h1v1h-1zM25 20h1v1h-1zM26 20h1v1h-1zM27 20h1v1h-1zM28 20h1v1h-1z"/><path fill="#D6E7EF" d="M29 20h1v1h-1z"/><path fill="#E9F2F7" d="M30 20h1v1h-1z"/><path fill="#FAFCFD" d="M31 20h1v1h-1z"/><path fill="#FFF" d="M32 20h1v1h-1z"/><path fill="#FAFCFD" d="M33 20h1v1h-1z"/><path fill="#E9F2F7" d="M34 20h1v1h-1z"/><path fill="#D3E5EE" d="M35 20h1v1h-1zM36 20h1v1h-1zM37 20h1v1h-1zM38 20h1v1h-1zM39 20h1v1h-1zM40 20h1v1h-1zM41 20h1v1h-1zM42 20h1v1h-1zM43 20h1v1h-1zM44 20h1v1h-1zM45 20h1v1h-1zM46 20h1v1h-1zM47 20h1v1h-1zM48 20h1v1h-1zM49 20h1v1h-1zM50 20h1v1h-1zM51 20h1v1h-1zM52 20h1v1h-1zM53 20h1v1h-1zM54 20h1v1h-1zM55 20h1v1h-1zM56 20h1v1h-1zM57 20h1v1h-1zM58 20h1v1h-1zM59 20h1v1h-1zM60 20h1v1h-1zM61 20h1v1h-1zM62 20h1v1h-1zM63 20h1v1h-1z"/><path fill="#ACB1B9" d="M64 20h1v1h-1z"/><path fill="#96989E" d="M65 20h1v1h-1z"/><path fill="#231815" d="M66 20h1v1h-1zM67 20h1v1h-1zM68 20h1v1h-1zM69 20h1v1h-1zM70 20h1v1h-1zM10 21h1v1h-1zM11 21h1v1h-1zM12 21h1v1h-1zM13 21h1v1h-1zM14 21h1v1h-1z"/><path fill="#656566" d="M15 21h1v1h-1z"/><path fill="#D3E5EE" d="M16 21h1v1h-1zM17 21h1v1h-1zM18 21h1v1h-1zM19 21h1v1h-1zM20 21h1v1h-1zM21 21h1v1h-1zM22 21h1v1h-1zM23 21h1v1h-1zM24 21h1v1h-1zM25 21h1v1h-1zM26 21h1v1h-1zM27 21h1v1h-1z"/><path fill="#D6E7EF" d="M28 21h1v1h-1z"/><path fill="#F7FAFC" d="M29 21h1v1h-1z"/><path fill="#FFF" d="M30 21h1v1h-1zM31 21h1v1h-1zM32 21h1v1h-1zM33 21h1v1h-1zM34 21h1v1h-1z"/><path fill="#EFF5F9" d="M35 21h1v1h-1z"/><path fill="#D3E5EE" d="M36 21h1v1h-1zM37 21h1v1h-1zM38 21h1v1h-1zM39 21h1v1h-1zM40 21h1v1h-1zM41 21h1v1h-1zM42 21h1v1h-1zM43 21h1v1h-1zM44 21h1v1h-1zM45 21h1v1h-1zM46 21h1v1h-1zM47 21h1v1h-1zM48 21h1v1h-1zM49 21h1v1h-1zM50 21h1v1h-1zM51 21h1v1h-1zM52 21h1v1h-1zM53 21h1v1h-1zM54 21h1v1h-1zM55 21h1v1h-1zM56 21h1v1h-1zM57 21h1v1h-1zM58 21h1v1h-1zM59 21h1v1h-1zM60 21h1v1h-1zM61 21h1v1h-1zM62 21h1v1h-1zM63 21h1v1h-1z"/><path fill="#A6AAB1" d="M64 21h1v1h-1zM65 21h1v1h-1z"/><path fill="#656163" d="M66 21h1v1h-1z"/><path fill="#231815" d="M67 21h1v1h-1zM68 21h1v1h-1zM69 21h1v1h-1zM70 21h1v1h-1zM10 22h1v1h-1zM11 22h1v1h-1zM12 22h1v1h-1zM13 22h1v1h-1z"/><path fill="#443E3E" d="M14 22h1v1h-1z"/><path fill="#C8D8E0" d="M15 22h1v1h-1z"/><path fill="#D3E5EE" d="M16 22h1v1h-1zM17 22h1v1h-1zM18 22h1v1h-1zM19 22h1v1h-1zM20 22h1v1h-1zM21 22h1v1h-1zM22 22h1v1h-1zM23 22h1v1h-1zM24 22h1v1h-1zM25 22h1v1h-1zM26 22h1v1h-1zM27 22h1v1h-1z"/><path fill="#F7FAFC" d="M28 22h1v1h-1z"/><path fill="#FFF" d="M29 22h1v1h-1zM30 22h1v1h-1zM31 22h1v1h-1zM32 22h1v1h-1zM33 22h1v1h-1zM34 22h1v1h-1zM35 22h1v1h-1z"/><path fill="#DEECF2" d="M36 22h1v1h-1z"/><path fill="#D3E5EE" d="M37 22h1v1h-1zM38 22h1v1h-1zM39 22h1v1h-1zM40 22h1v1h-1zM41 22h1v1h-1zM42 22h1v1h-1zM43 22h1v1h-1zM44 22h1v1h-1zM45 22h1v1h-1zM46 22h1v1h-1zM47 22h1v1h-1zM48 22h1v1h-1zM49 22h1v1h-1zM50 22h1v1h-1zM51 22h1v1h-1zM52 22h1v1h-1zM53 22h1v1h-1zM54 22h1v1h-1zM55 22h1v1h-1zM56 22h1v1h-1zM57 22h1v1h-1zM58 22h1v1h-1zM59 22h1v1h-1zM60 22h1v1h-1zM61 22h1v1h-1zM62 22h1v1h-1zM63 22h1v1h-1z"/><path fill="#A6AAB1" d="M64 22h1v1h-1zM65 22h1v1h-1z"/><path fill="#9EA1A7" d="M66 22h1v1h-1z"/><path fill="#2B211F" d="M67 22h1v1h-1z"/><path fill="#231815" d="M68 22h1v1h-1zM69 22h1v1h-1zM70 22h1v1h-1zM71 22h1v1h-1zM9 23h1v1H9zM10 23h1v1h-1zM11 23h1v1h-1zM12 23h1v1h-1zM13 23h1v1h-1z"/><path fill="#B2BFC5" d="M14 23h1v1h-1z"/><path fill="#D3E5EE" d="M15 23h1v1h-1zM16 23h1v1h-1zM17 23h1v1h-1zM18 23h1v1h-1zM19 23h1v1h-1zM20 23h1v1h-1zM21 23h1v1h-1zM22 23h1v1h-1zM23 23h1v1h-1zM24 23h1v1h-1zM25 23h1v1h-1zM26 23h1v1h-1z"/><path fill="#E9F2F7" d="M27 23h1v1h-1z"/><path fill="#FFF" d="M28 23h1v1h-1zM29 23h1v1h-1zM30 23h1v1h-1zM31 23h1v1h-1zM32 23h1v1h-1zM33 23h1v1h-1zM34 23h1v1h-1zM35 23h1v1h-1z"/><path fill="#EFF5F9" d="M36 23h1v1h-1z"/><path fill="#D3E5EE" d="M37 23h1v1h-1zM38 23h1v1h-1zM39 23h1v1h-1zM40 23h1v1h-1zM41 23h1v1h-1zM42 23h1v1h-1zM43 23h1v1h-1zM44 23h1v1h-1zM45 23h1v1h-1zM46 23h1v1h-1zM47 23h1v1h-1zM48 23h1v1h-1zM49 23h1v1h-1zM50 23h1v1h-1zM51 23h1v1h-1zM52 23h1v1h-1zM53 23h1v1h-1zM54 23h1v1h-1zM55 23h1v1h-1zM56 23h1v1h-1zM57 23h1v1h-1zM58 23h1v1h-1zM59 23h1v1h-1zM60 23h1v1h-1zM61 23h1v1h-1zM62 23h1v1h-1zM63 23h1v1h-1z"/><path fill="#A6AAB1" d="M64 23h1v1h-1zM65 23h1v1h-1zM66 23h1v1h-1z"/><path fill="#656163" d="M67 23h1v1h-1z"/><path fill="#231815" d="M68 23h1v1h-1zM69 23h1v1h-1zM70 23h1v1h-1zM71 23h1v1h-1zM8 24h1v1H8zM9 24h1v1H9zM10 24h1v1h-1zM11 24h1v1h-1zM12 24h1v1h-1z"/><path fill="#7B7F82" d="M13 24h1v1h-1z"/><path fill="#D3E5EE" d="M14 24h1v1h-1zM15 24h1v1h-1zM16 24h1v1h-1zM17 24h1v1h-1zM18 24h1v1h-1zM19 24h1v1h-1zM20 24h1v1h-1zM21 24h1v1h-1zM22 24h1v1h-1zM23 24h1v1h-1zM24 24h1v1h-1zM25 24h1v1h-1zM26 24h1v1h-1z"/><path fill="#FCFDFE" d="M27 24h1v1h-1z"/><path fill="#FFF" d="M28 24h1v1h-1zM29 24h1v1h-1zM30 24h1v1h-1zM31 24h1v1h-1zM32 24h1v1h-1zM33 24h1v1h-1zM34 24h1v1h-1zM35 24h1v1h-1z"/><path fill="#F7FAFC" d="M36 24h1v1h-1z"/><path fill="#D3E5EE" d="M37 24h1v1h-1zM38 24h1v1h-1zM39 24h1v1h-1zM40 24h1v1h-1zM41 24h1v1h-1zM42 24h1v1h-1zM43 24h1v1h-1zM44 24h1v1h-1zM45 24h1v1h-1zM46 24h1v1h-1zM47 24h1v1h-1zM48 24h1v1h-1zM49 24h1v1h-1zM50 24h1v1h-1zM51 24h1v1h-1zM52 24h1v1h-1zM53 24h1v1h-1zM54 24h1v1h-1zM55 24h1v1h-1zM56 24h1v1h-1zM57 24h1v1h-1zM58 24h1v1h-1zM59 24h1v1h-1zM60 24h1v1h-1zM61 24h1v1h-1zM62 24h1v1h-1z"/><path fill="#D0E1EA" d="M63 24h1v1h-1z"/><path fill="#A6AAB1" d="M64 24h1v1h-1zM65 24h1v1h-1zM66 24h1v1h-1z"/><path fill="#9EA1A7" d="M67 24h1v1h-1z"/><path fill="#2B211F" d="M68 24h1v1h-1z"/><path fill="#231815" d="M69 24h1v1h-1zM70 24h1v1h-1zM71 24h1v1h-1zM72 24h1v1h-1zM8 25h1v1H8zM9 25h1v1H9zM10 25h1v1h-1zM11 25h1v1h-1z"/><path fill="#443E3E" d="M12 25h1v1h-1z"/><path fill="#D3E5EE" d="M13 25h1v1h-1zM14 25h1v1h-1zM15 25h1v1h-1zM16 25h1v1h-1zM17 25h1v1h-1zM18 25h1v1h-1zM19 25h1v1h-1zM20 25h1v1h-1zM21 25h1v1h-1zM22 25h1v1h-1zM23 25h1v1h-1zM24 25h1v1h-1zM25 25h1v1h-1z"/><path fill="#E1EDF3" d="M26 25h1v1h-1z"/><path fill="#FFF" d="M27 25h1v1h-1zM28 25h1v1h-1zM29 25h1v1h-1zM30 25h1v1h-1zM31 25h1v1h-1zM32 25h1v1h-1zM33 25h1v1h-1zM34 25h1v1h-1zM35 25h1v1h-1zM36 25h1v1h-1z"/><path fill="#D3E5EE" d="M37 25h1v1h-1zM38 25h1v1h-1zM39 25h1v1h-1zM40 25h1v1h-1zM41 25h1v1h-1zM42 25h1v1h-1zM43 25h1v1h-1zM44 25h1v1h-1zM45 25h1v1h-1zM46 25h1v1h-1zM47 25h1v1h-1zM48 25h1v1h-1zM49 25h1v1h-1zM50 25h1v1h-1zM51 25h1v1h-1zM52 25h1v1h-1zM53 25h1v1h-1zM54 25h1v1h-1zM55 25h1v1h-1zM56 25h1v1h-1zM57 25h1v1h-1zM58 25h1v1h-1zM59 25h1v1h-1zM60 25h1v1h-1zM61 25h1v1h-1zM62 25h1v1h-1z"/><path fill="#C8D6DF" d="M63 25h1v1h-1z"/><path fill="#A6AAB1" d="M64 25h1v1h-1zM65 25h1v1h-1zM66 25h1v1h-1zM67 25h1v1h-1z"/><path fill="#544F50" d="M68 25h1v1h-1z"/><path fill="#231815" d="M69 25h1v1h-1zM70 25h1v1h-1zM71 25h1v1h-1zM72 25h1v1h-1zM7 26h1v1H7zM8 26h1v1H8zM9 26h1v1H9zM10 26h1v1h-1zM11 26h1v1h-1z"/><path fill="#B2BFC5" d="M12 26h1v1h-1z"/><path fill="#D3E5EE" d="M13 26h1v1h-1zM14 26h1v1h-1zM15 26h1v1h-1zM16 26h1v1h-1zM17 26h1v1h-1zM18 26h1v1h-1zM19 26h1v1h-1zM20 26h1v1h-1zM21 26h1v1h-1zM22 26h1v1h-1zM23 26h1v1h-1zM24 26h1v1h-1zM25 26h1v1h-1z"/><path fill="#ECF4F8" d="M26 26h1v1h-1z"/><path fill="#FFF" d="M27 26h1v1h-1zM28 26h1v1h-1zM29 26h1v1h-1zM30 26h1v1h-1zM31 26h1v1h-1zM32 26h1v1h-1zM33 26h1v1h-1zM34 26h1v1h-1zM35 26h1v1h-1zM36 26h1v1h-1z"/><path fill="#D3E5EE" d="M37 26h1v1h-1zM38 26h1v1h-1zM39 26h1v1h-1zM40 26h1v1h-1zM41 26h1v1h-1zM42 26h1v1h-1zM43 26h1v1h-1zM44 26h1v1h-1zM45 26h1v1h-1zM46 26h1v1h-1zM47 26h1v1h-1zM48 26h1v1h-1zM49 26h1v1h-1zM50 26h1v1h-1zM51 26h1v1h-1zM52 26h1v1h-1zM53 26h1v1h-1zM54 26h1v1h-1zM55 26h1v1h-1zM56 26h1v1h-1zM57 26h1v1h-1zM58 26h1v1h-1zM59 26h1v1h-1zM60 26h1v1h-1zM61 26h1v1h-1zM62 26h1v1h-1z"/><path fill="#C8D6DF" d="M63 26h1v1h-1z"/><path fill="#A6AAB1" d="M64 26h1v1h-1zM65 26h1v1h-1zM66 26h1v1h-1zM67 26h1v1h-1z"/><path fill="#96989E" d="M68 26h1v1h-1z"/><path fill="#231815" d="M69 26h1v1h-1zM70 26h1v1h-1zM71 26h1v1h-1zM72 26h1v1h-1zM73 26h1v1h-1zM7 27h1v1H7zM8 27h1v1H8zM9 27h1v1H9zM10 27h1v1h-1z"/><path fill="#707274" d="M11 27h1v1h-1z"/><path fill="#D3E5EE" d="M12 27h1v1h-1zM13 27h1v1h-1zM14 27h1v1h-1zM15 27h1v1h-1zM16 27h1v1h-1zM17 27h1v1h-1zM18 27h1v1h-1zM19 27h1v1h-1zM20 27h1v1h-1zM21 27h1v1h-1zM22 27h1v1h-1zM23 27h1v1h-1zM24 27h1v1h-1zM25 27h1v1h-1z"/><path fill="#F4F9FB" d="M26 27h1v1h-1z"/><path fill="#FFF" d="M27 27h1v1h-1zM28 27h1v1h-1zM29 27h1v1h-1zM30 27h1v1h-1zM31 27h1v1h-1zM32 27h1v1h-1zM33 27h1v1h-1zM34 27h1v1h-1zM35 27h1v1h-1z"/><path fill="#F4F9FB" d="M36 27h1v1h-1z"/><path fill="#D3E5EE" d="M37 27h1v1h-1zM38 27h1v1h-1zM39 27h1v1h-1zM40 27h1v1h-1zM41 27h1v1h-1zM42 27h1v1h-1zM43 27h1v1h-1zM44 27h1v1h-1zM45 27h1v1h-1zM46 27h1v1h-1zM47 27h1v1h-1zM48 27h1v1h-1zM49 27h1v1h-1zM50 27h1v1h-1zM51 27h1v1h-1zM52 27h1v1h-1zM53 27h1v1h-1zM54 27h1v1h-1zM55 27h1v1h-1zM56 27h1v1h-1zM57 27h1v1h-1zM58 27h1v1h-1zM59 27h1v1h-1zM60 27h1v1h-1zM61 27h1v1h-1zM62 27h1v1h-1z"/><path fill="#C5D3DB" d="M63 27h1v1h-1z"/><path fill="#A6AAB1" d="M64 27h1v1h-1zM65 27h1v1h-1zM66 27h1v1h-1zM67 27h1v1h-1zM68 27h1v1h-1z"/><path fill="#443D3C" d="M69 27h1v1h-1z"/><path fill="#231815" d="M70 27h1v1h-1zM71 27h1v1h-1zM72 27h1v1h-1zM73 27h1v1h-1zM6 28h1v1H6zM7 28h1v1H7zM8 28h1v1H8zM9 28h1v1H9z"/><path fill="#2E2523" d="M10 28h1v1h-1z"/><path fill="#C8D8E0" d="M11 28h1v1h-1z"/><path fill="#D3E5EE" d="M12 28h1v1h-1zM13 28h1v1h-1zM14 28h1v1h-1zM15 28h1v1h-1zM16 28h1v1h-1zM17 28h1v1h-1zM18 28h1v1h-1zM19 28h1v1h-1zM20 28h1v1h-1zM21 28h1v1h-1zM22 28h1v1h-1zM23 28h1v1h-1zM24 28h1v1h-1zM25 28h1v1h-1z"/><path fill="#F4F9FB" d="M26 28h1v1h-1z"/><path fill="#FFF" d="M27 28h1v1h-1zM28 28h1v1h-1zM29 28h1v1h-1zM30 28h1v1h-1zM31 28h1v1h-1zM32 28h1v1h-1zM33 28h1v1h-1zM34 28h1v1h-1zM35 28h1v1h-1z"/><path fill="#EFF5F9" d="M36 28h1v1h-1z"/><path fill="#D3E5EE" d="M37 28h1v1h-1zM38 28h1v1h-1zM39 28h1v1h-1zM40 28h1v1h-1zM41 28h1v1h-1zM42 28h1v1h-1zM43 28h1v1h-1zM44 28h1v1h-1zM45 28h1v1h-1zM46 28h1v1h-1zM47 28h1v1h-1zM48 28h1v1h-1zM49 28h1v1h-1zM50 28h1v1h-1zM51 28h1v1h-1zM52 28h1v1h-1zM53 28h1v1h-1zM54 28h1v1h-1zM55 28h1v1h-1zM56 28h1v1h-1zM57 28h1v1h-1zM58 28h1v1h-1zM59 28h1v1h-1zM60 28h1v1h-1zM61 28h1v1h-1zM62 28h1v1h-1z"/><path fill="#BDC8D0" d="M63 28h1v1h-1z"/><path fill="#A6AAB1" d="M64 28h1v1h-1zM65 28h1v1h-1zM66 28h1v1h-1zM67 28h1v1h-1zM68 28h1v1h-1z"/><path fill="#757377" d="M69 28h1v1h-1z"/><path fill="#231815" d="M70 28h1v1h-1zM71 28h1v1h-1zM72 28h1v1h-1zM73 28h1v1h-1zM6 29h1v1H6zM7 29h1v1H7zM8 29h1v1H8zM9 29h1v1H9z"/><path fill="#91989D" d="M10 29h1v1h-1z"/><path fill="#D3E5EE" d="M11 29h1v1h-1zM12 29h1v1h-1zM13 29h1v1h-1zM14 29h1v1h-1zM15 29h1v1h-1zM16 29h1v1h-1zM17 29h1v1h-1zM18 29h1v1h-1zM19 29h1v1h-1zM20 29h1v1h-1zM21 29h1v1h-1zM22 29h1v1h-1zM23 29h1v1h-1zM24 29h1v1h-1zM25 29h1v1h-1z"/><path fill="#F4F9FB" d="M26 29h1v1h-1z"/><path fill="#FFF" d="M27 29h1v1h-1zM28 29h1v1h-1zM29 29h1v1h-1zM30 29h1v1h-1zM31 29h1v1h-1zM32 29h1v1h-1zM33 29h1v1h-1zM34 29h1v1h-1zM35 29h1v1h-1z"/><path fill="#E1EDF3" d="M36 29h1v1h-1z"/><path fill="#D3E5EE" d="M37 29h1v1h-1zM38 29h1v1h-1zM39 29h1v1h-1zM40 29h1v1h-1zM41 29h1v1h-1zM42 29h1v1h-1zM43 29h1v1h-1zM44 29h1v1h-1zM45 29h1v1h-1zM46 29h1v1h-1zM47 29h1v1h-1zM48 29h1v1h-1zM49 29h1v1h-1zM50 29h1v1h-1zM51 29h1v1h-1zM52 29h1v1h-1zM53 29h1v1h-1zM54 29h1v1h-1zM55 29h1v1h-1zM56 29h1v1h-1zM57 29h1v1h-1zM58 29h1v1h-1zM59 29h1v1h-1zM60 29h1v1h-1zM61 29h1v1h-1zM62 29h1v1h-1z"/><path fill="#BDC8D0" d="M63 29h1v1h-1z"/><path fill="#A6AAB1" d="M64 29h1v1h-1zM65 29h1v1h-1zM66 29h1v1h-1zM67 29h1v1h-1zM68 29h1v1h-1zM69 29h1v1h-1z"/><path fill="#2B211F" d="M70 29h1v1h-1z"/><path fill="#231815" d="M71 29h1v1h-1zM72 29h1v1h-1zM73 29h1v1h-1zM74 29h1v1h-1zM5 30h1v1H5zM6 30h1v1H6zM7 30h1v1H7zM8 30h1v1H8z"/><path fill="#393230" d="M9 30h1v1H9z"/><path fill="#D3E5EE" d="M10 30h1v1h-1zM11 30h1v1h-1zM12 30h1v1h-1zM13 30h1v1h-1zM14 30h1v1h-1zM15 30h1v1h-1zM16 30h1v1h-1zM17 30h1v1h-1zM18 30h1v1h-1zM19 30h1v1h-1zM20 30h1v1h-1zM21 30h1v1h-1zM22 30h1v1h-1zM23 30h1v1h-1zM24 30h1v1h-1zM25 30h1v1h-1z"/><path fill="#E9F2F7" d="M26 30h1v1h-1z"/><path fill="#FFF" d="M27 30h1v1h-1zM28 30h1v1h-1zM29 30h1v1h-1zM30 30h1v1h-1zM31 30h1v1h-1zM32 30h1v1h-1zM33 30h1v1h-1zM34 30h1v1h-1z"/><path fill="#FAFCFD" d="M35 30h1v1h-1z"/><path fill="#D3E5EE" d="M36 30h1v1h-1zM37 30h1v1h-1zM38 30h1v1h-1zM39 30h1v1h-1zM40 30h1v1h-1zM41 30h1v1h-1zM42 30h1v1h-1zM43 30h1v1h-1zM44 30h1v1h-1zM45 30h1v1h-1zM46 30h1v1h-1zM47 30h1v1h-1zM48 30h1v1h-1zM49 30h1v1h-1zM50 30h1v1h-1zM51 30h1v1h-1zM52 30h1v1h-1zM53 30h1v1h-1zM54 30h1v1h-1zM55 30h1v1h-1zM56 30h1v1h-1zM57 30h1v1h-1zM58 30h1v1h-1zM59 30h1v1h-1zM60 30h1v1h-1zM61 30h1v1h-1zM62 30h1v1h-1z"/><path fill="#B1B9C0" d="M63 30h1v1h-1z"/><path fill="#A6AAB1" d="M64 30h1v1h-1zM65 30h1v1h-1zM66 30h1v1h-1zM67 30h1v1h-1zM68 30h1v1h-1zM69 30h1v1h-1z"/><path fill="#544F50" d="M70 30h1v1h-1z"/><path fill="#231815" d="M71 30h1v1h-1zM72 30h1v1h-1zM73 30h1v1h-1zM74 30h1v1h-1zM5 31h1v1H5zM6 31h1v1H6zM7 31h1v1H7zM8 31h1v1H8z"/><path fill="#91989D" d="M9 31h1v1H9z"/><path fill="#D3E5EE" d="M10 31h1v1h-1zM11 31h1v1h-1zM12 31h1v1h-1zM13 31h1v1h-1zM14 31h1v1h-1zM15 31h1v1h-1zM16 31h1v1h-1zM17 31h1v1h-1zM18 31h1v1h-1zM19 31h1v1h-1zM20 31h1v1h-1zM21 31h1v1h-1zM22 31h1v1h-1zM23 31h1v1h-1zM24 31h1v1h-1zM25 31h1v1h-1z"/><path fill="#DBEAF1" d="M26 31h1v1h-1z"/><path fill="#FFF" d="M27 31h1v1h-1zM28 31h1v1h-1zM29 31h1v1h-1zM30 31h1v1h-1zM31 31h1v1h-1zM32 31h1v1h-1zM33 31h1v1h-1zM34 31h1v1h-1z"/><path fill="#DEECF2" d="M35 31h1v1h-1z"/><path fill="#D3E5EE" d="M36 31h1v1h-1zM37 31h1v1h-1zM38 31h1v1h-1zM39 31h1v1h-1zM40 31h1v1h-1zM41 31h1v1h-1zM42 31h1v1h-1zM43 31h1v1h-1zM44 31h1v1h-1zM45 31h1v1h-1zM46 31h1v1h-1zM47 31h1v1h-1zM48 31h1v1h-1zM49 31h1v1h-1zM50 31h1v1h-1zM51 31h1v1h-1zM52 31h1v1h-1zM53 31h1v1h-1zM54 31h1v1h-1zM55 31h1v1h-1zM56 31h1v1h-1zM57 31h1v1h-1zM58 31h1v1h-1zM59 31h1v1h-1zM60 31h1v1h-1zM61 31h1v1h-1zM62 31h1v1h-1z"/><path fill="#B1B9C0" d="M63 31h1v1h-1z"/><path fill="#A6AAB1" d="M64 31h1v1h-1zM65 31h1v1h-1zM66 31h1v1h-1zM67 31h1v1h-1zM68 31h1v1h-1zM69 31h1v1h-1z"/><path fill="#7D7C80" d="M70 31h1v1h-1z"/><path fill="#231815" d="M71 31h1v1h-1zM72 31h1v1h-1zM73 31h1v1h-1zM74 31h1v1h-1zM4 32h1v1H4zM5 32h1v1H5zM6 32h1v1H6zM7 32h1v1H7z"/><path fill="#393230" d="M8 32h1v1H8z"/><path fill="#D3E5EE" d="M9 32h1v1H9zM10 32h1v1h-1zM11 32h1v1h-1zM12 32h1v1h-1zM13 32h1v1h-1zM14 32h1v1h-1zM15 32h1v1h-1zM16 32h1v1h-1zM17 32h1v1h-1zM18 32h1v1h-1zM19 32h1v1h-1zM20 32h1v1h-1zM21 32h1v1h-1zM22 32h1v1h-1zM23 32h1v1h-1zM24 32h1v1h-1zM25 32h1v1h-1zM26 32h1v1h-1z"/><path fill="#EFF5F9" d="M27 32h1v1h-1z"/><path fill="#FFF" d="M28 32h1v1h-1zM29 32h1v1h-1zM30 32h1v1h-1zM31 32h1v1h-1zM32 32h1v1h-1zM33 32h1v1h-1z"/><path fill="#E4EFF4" d="M34 32h1v1h-1z"/><path fill="#D3E5EE" d="M35 32h1v1h-1zM36 32h1v1h-1zM37 32h1v1h-1zM38 32h1v1h-1zM39 32h1v1h-1zM40 32h1v1h-1zM41 32h1v1h-1zM42 32h1v1h-1zM43 32h1v1h-1zM44 32h1v1h-1zM45 32h1v1h-1zM46 32h1v1h-1zM47 32h1v1h-1zM48 32h1v1h-1zM49 32h1v1h-1zM50 32h1v1h-1zM51 32h1v1h-1zM52 32h1v1h-1zM53 32h1v1h-1zM54 32h1v1h-1zM55 32h1v1h-1zM56 32h1v1h-1zM57 32h1v1h-1zM58 32h1v1h-1zM59 32h1v1h-1zM60 32h1v1h-1zM61 32h1v1h-1zM62 32h1v1h-1z"/><path fill="#A6AAB1" d="M63 32h1v1h-1zM64 32h1v1h-1zM65 32h1v1h-1zM66 32h1v1h-1zM67 32h1v1h-1zM68 32h1v1h-1zM69 32h1v1h-1zM70 32h1v1h-1z"/><path fill="#2B211F" d="M71 32h1v1h-1z"/><path fill="#231815" d="M72 32h1v1h-1zM73 32h1v1h-1zM74 32h1v1h-1zM4 33h1v1H4zM5 33h1v1H5zM6 33h1v1H6zM7 33h1v1H7z"/><path fill="#91989D" d="M8 33h1v1H8z"/><path fill="#D3E5EE" d="M9 33h1v1H9zM10 33h1v1h-1zM11 33h1v1h-1zM12 33h1v1h-1zM13 33h1v1h-1zM14 33h1v1h-1zM15 33h1v1h-1zM16 33h1v1h-1zM17 33h1v1h-1zM18 33h1v1h-1zM19 33h1v1h-1zM20 33h1v1h-1zM21 33h1v1h-1zM22 33h1v1h-1zM23 33h1v1h-1zM24 33h1v1h-1zM25 33h1v1h-1zM26 33h1v1h-1z"/><path fill="#D6E7EF" d="M27 33h1v1h-1z"/><path fill="#EFF5F9" d="M28 33h1v1h-1z"/><path fill="#FFF" d="M29 33h1v1h-1zM30 33h1v1h-1zM31 33h1v1h-1z"/><path fill="#FAFCFD" d="M32 33h1v1h-1z"/><path fill="#E1EDF3" d="M33 33h1v1h-1z"/><path fill="#D3E5EE" d="M34 33h1v1h-1zM35 33h1v1h-1zM36 33h1v1h-1zM37 33h1v1h-1zM38 33h1v1h-1zM39 33h1v1h-1zM40 33h1v1h-1zM41 33h1v1h-1zM42 33h1v1h-1zM43 33h1v1h-1zM44 33h1v1h-1zM45 33h1v1h-1zM46 33h1v1h-1zM47 33h1v1h-1zM48 33h1v1h-1zM49 33h1v1h-1zM50 33h1v1h-1zM51 33h1v1h-1zM52 33h1v1h-1zM53 33h1v1h-1zM54 33h1v1h-1zM55 33h1v1h-1zM56 33h1v1h-1zM57 33h1v1h-1zM58 33h1v1h-1zM59 33h1v1h-1zM60 33h1v1h-1zM61 33h1v1h-1z"/><path fill="#CDDEE6" d="M62 33h1v1h-1z"/><path fill="#A6AAB1" d="M63 33h1v1h-1zM64 33h1v1h-1zM65 33h1v1h-1zM66 33h1v1h-1zM67 33h1v1h-1zM68 33h1v1h-1zM69 33h1v1h-1zM70 33h1v1h-1z"/><path fill="#544F50" d="M71 33h1v1h-1z"/><path fill="#231815" d="M72 33h1v1h-1zM73 33h1v1h-1zM74 33h1v1h-1zM75 33h1v1h-1zM3 34h1v1H3zM4 34h1v1H4zM5 34h1v1H5zM6 34h1v1H6z"/><path fill="#2E2523" d="M7 34h1v1H7z"/><path fill="#D3E5EE" d="M8 34h1v1H8zM9 34h1v1H9zM10 34h1v1h-1zM11 34h1v1h-1zM12 34h1v1h-1zM13 34h1v1h-1zM14 34h1v1h-1zM15 34h1v1h-1zM16 34h1v1h-1zM17 34h1v1h-1zM18 34h1v1h-1zM19 34h1v1h-1zM20 34h1v1h-1zM21 34h1v1h-1zM22 34h1v1h-1zM23 34h1v1h-1zM24 34h1v1h-1zM25 34h1v1h-1zM26 34h1v1h-1zM27 34h1v1h-1zM28 34h1v1h-1z"/><path fill="#D9E8F0" d="M29 34h1v1h-1z"/><path fill="#DEECF2" d="M30 34h1v1h-1zM31 34h1v1h-1z"/><path fill="#D3E5EE" d="M32 34h1v1h-1zM33 34h1v1h-1zM34 34h1v1h-1zM35 34h1v1h-1zM36 34h1v1h-1zM37 34h1v1h-1zM38 34h1v1h-1zM39 34h1v1h-1zM40 34h1v1h-1zM41 34h1v1h-1zM42 34h1v1h-1zM43 34h1v1h-1zM44 34h1v1h-1zM45 34h1v1h-1zM46 34h1v1h-1zM47 34h1v1h-1zM48 34h1v1h-1zM49 34h1v1h-1zM50 34h1v1h-1zM51 34h1v1h-1zM52 34h1v1h-1zM53 34h1v1h-1zM54 34h1v1h-1zM55 34h1v1h-1zM56 34h1v1h-1zM57 34h1v1h-1zM58 34h1v1h-1zM59 34h1v1h-1zM60 34h1v1h-1zM61 34h1v1h-1z"/><path fill="#C8D6DF" d="M62 34h1v1h-1z"/><path fill="#A6AAB1" d="M63 34h1v1h-1zM64 34h1v1h-1zM65 34h1v1h-1zM66 34h1v1h-1zM67 34h1v1h-1zM68 34h1v1h-1zM69 34h1v1h-1zM70 34h1v1h-1z"/><path fill="#757377" d="M71 34h1v1h-1z"/><path fill="#231815" d="M72 34h1v1h-1zM73 34h1v1h-1zM74 34h1v1h-1zM75 34h1v1h-1zM3 35h1v1H3zM4 35h1v1H4zM5 35h1v1H5zM6 35h1v1H6z"/><path fill="#707274" d="M7 35h1v1H7z"/><path fill="#D3E5EE" d="M8 35h1v1H8zM9 35h1v1H9zM10 35h1v1h-1zM11 35h1v1h-1zM12 35h1v1h-1zM13 35h1v1h-1zM14 35h1v1h-1zM15 35h1v1h-1zM16 35h1v1h-1zM17 35h1v1h-1zM18 35h1v1h-1zM19 35h1v1h-1zM20 35h1v1h-1zM21 35h1v1h-1zM22 35h1v1h-1zM23 35h1v1h-1zM24 35h1v1h-1zM25 35h1v1h-1zM26 35h1v1h-1zM27 35h1v1h-1zM28 35h1v1h-1zM29 35h1v1h-1zM30 35h1v1h-1zM31 35h1v1h-1zM32 35h1v1h-1zM33 35h1v1h-1zM34 35h1v1h-1zM35 35h1v1h-1zM36 35h1v1h-1zM37 35h1v1h-1zM38 35h1v1h-1zM39 35h1v1h-1zM40 35h1v1h-1zM41 35h1v1h-1zM42 35h1v1h-1zM43 35h1v1h-1zM44 35h1v1h-1zM45 35h1v1h-1zM46 35h1v1h-1zM47 35h1v1h-1zM48 35h1v1h-1zM49 35h1v1h-1zM50 35h1v1h-1zM51 35h1v1h-1zM52 35h1v1h-1zM53 35h1v1h-1zM54 35h1v1h-1zM55 35h1v1h-1zM56 35h1v1h-1zM57 35h1v1h-1zM58 35h1v1h-1zM59 35h1v1h-1zM60 35h1v1h-1zM61 35h1v1h-1z"/><path fill="#BFCBD3" d="M62 35h1v1h-1z"/><path fill="#A6AAB1" d="M63 35h1v1h-1zM64 35h1v1h-1zM65 35h1v1h-1zM66 35h1v1h-1zM67 35h1v1h-1zM68 35h1v1h-1zM69 35h1v1h-1zM70 35h1v1h-1z"/><path fill="#96989E" d="M71 35h1v1h-1z"/><path fill="#231815" d="M72 35h1v1h-1zM73 35h1v1h-1zM74 35h1v1h-1zM75 35h1v1h-1zM3 36h1v1H3zM4 36h1v1H4zM5 36h1v1H5zM6 36h1v1H6z"/><path fill="#BDCBD3" d="M7 36h1v1H7z"/><path fill="#D3E5EE" d="M8 36h1v1H8zM9 36h1v1H9zM10 36h1v1h-1zM11 36h1v1h-1zM12 36h1v1h-1zM13 36h1v1h-1zM14 36h1v1h-1zM15 36h1v1h-1zM16 36h1v1h-1zM17 36h1v1h-1zM18 36h1v1h-1zM19 36h1v1h-1zM20 36h1v1h-1zM21 36h1v1h-1zM22 36h1v1h-1zM23 36h1v1h-1zM24 36h1v1h-1zM25 36h1v1h-1zM26 36h1v1h-1zM27 36h1v1h-1zM28 36h1v1h-1zM29 36h1v1h-1zM30 36h1v1h-1zM31 36h1v1h-1zM32 36h1v1h-1zM33 36h1v1h-1zM34 36h1v1h-1zM35 36h1v1h-1zM36 36h1v1h-1zM37 36h1v1h-1zM38 36h1v1h-1zM39 36h1v1h-1zM40 36h1v1h-1zM41 36h1v1h-1zM42 36h1v1h-1zM43 36h1v1h-1zM44 36h1v1h-1zM45 36h1v1h-1zM46 36h1v1h-1zM47 36h1v1h-1zM48 36h1v1h-1zM49 36h1v1h-1zM50 36h1v1h-1zM51 36h1v1h-1zM52 36h1v1h-1zM53 36h1v1h-1zM54 36h1v1h-1zM55 36h1v1h-1zM56 36h1v1h-1zM57 36h1v1h-1zM58 36h1v1h-1zM59 36h1v1h-1zM60 36h1v1h-1zM61 36h1v1h-1z"/><path fill="#B7C0C8" d="M62 36h1v1h-1z"/><path fill="#A6AAB1" d="M63 36h1v1h-1zM64 36h1v1h-1zM65 36h1v1h-1zM66 36h1v1h-1zM67 36h1v1h-1zM68 36h1v1h-1zM69 36h1v1h-1zM70 36h1v1h-1zM71 36h1v1h-1z"/><path fill="#332A29" d="M72 36h1v1h-1z"/><path fill="#231815" d="M73 36h1v1h-1zM74 36h1v1h-1zM75 36h1v1h-1zM2 37h1v1H2zM3 37h1v1H3zM4 37h1v1H4zM5 37h1v1H5z"/><path fill="#443E3E" d="M6 37h1v1H6z"/><path fill="#D3E5EE" d="M7 37h1v1H7zM8 37h1v1H8zM9 37h1v1H9zM10 37h1v1h-1zM11 37h1v1h-1zM12 37h1v1h-1zM13 37h1v1h-1zM14 37h1v1h-1zM15 37h1v1h-1zM16 37h1v1h-1zM17 37h1v1h-1zM18 37h1v1h-1zM19 37h1v1h-1zM20 37h1v1h-1zM21 37h1v1h-1zM22 37h1v1h-1zM23 37h1v1h-1zM24 37h1v1h-1zM25 37h1v1h-1zM26 37h1v1h-1zM27 37h1v1h-1zM28 37h1v1h-1zM29 37h1v1h-1zM30 37h1v1h-1zM31 37h1v1h-1zM32 37h1v1h-1zM33 37h1v1h-1zM34 37h1v1h-1zM35 37h1v1h-1zM36 37h1v1h-1zM37 37h1v1h-1zM38 37h1v1h-1zM39 37h1v1h-1zM40 37h1v1h-1zM41 37h1v1h-1zM42 37h1v1h-1zM43 37h1v1h-1zM44 37h1v1h-1zM45 37h1v1h-1zM46 37h1v1h-1zM47 37h1v1h-1zM48 37h1v1h-1zM49 37h1v1h-1zM50 37h1v1h-1zM51 37h1v1h-1zM52 37h1v1h-1zM53 37h1v1h-1zM54 37h1v1h-1zM55 37h1v1h-1zM56 37h1v1h-1zM57 37h1v1h-1zM58 37h1v1h-1zM59 37h1v1h-1zM60 37h1v1h-1zM61 37h1v1h-1z"/><path fill="#AEB5BC" d="M62 37h1v1h-1z"/><path fill="#A6AAB1" d="M63 37h1v1h-1zM64 37h1v1h-1zM65 37h1v1h-1zM66 37h1v1h-1zM67 37h1v1h-1zM68 37h1v1h-1zM69 37h1v1h-1zM70 37h1v1h-1zM71 37h1v1h-1z"/><path fill="#544F50" d="M72 37h1v1h-1z"/><path fill="#231815" d="M73 37h1v1h-1zM74 37h1v1h-1zM75 37h1v1h-1zM76 37h1v1h-1zM2 38h1v1H2zM3 38h1v1H3zM4 38h1v1H4zM5 38h1v1H5z"/><path fill="#91989D" d="M6 38h1v1H6z"/><path fill="#D3E5EE" d="M7 38h1v1H7zM8 38h1v1H8zM9 38h1v1H9zM10 38h1v1h-1zM11 38h1v1h-1zM12 38h1v1h-1zM13 38h1v1h-1zM14 38h1v1h-1zM15 38h1v1h-1zM16 38h1v1h-1zM17 38h1v1h-1zM18 38h1v1h-1zM19 38h1v1h-1zM20 38h1v1h-1zM21 38h1v1h-1zM22 38h1v1h-1zM23 38h1v1h-1zM24 38h1v1h-1zM25 38h1v1h-1zM26 38h1v1h-1zM27 38h1v1h-1zM28 38h1v1h-1zM29 38h1v1h-1zM30 38h1v1h-1zM31 38h1v1h-1zM32 38h1v1h-1zM33 38h1v1h-1zM34 38h1v1h-1zM35 38h1v1h-1zM36 38h1v1h-1zM37 38h1v1h-1zM38 38h1v1h-1zM39 38h1v1h-1zM40 38h1v1h-1zM41 38h1v1h-1zM42 38h1v1h-1zM43 38h1v1h-1zM44 38h1v1h-1zM45 38h1v1h-1zM46 38h1v1h-1zM47 38h1v1h-1zM48 38h1v1h-1zM49 38h1v1h-1zM50 38h1v1h-1zM51 38h1v1h-1zM52 38h1v1h-1zM53 38h1v1h-1zM54 38h1v1h-1zM55 38h1v1h-1zM56 38h1v1h-1zM57 38h1v1h-1zM58 38h1v1h-1zM59 38h1v1h-1zM60 38h1v1h-1zM61 38h1v1h-1z"/><path fill="#A6AAB1" d="M62 38h1v1h-1zM63 38h1v1h-1zM64 38h1v1h-1zM65 38h1v1h-1zM66 38h1v1h-1zM67 38h1v1h-1zM68 38h1v1h-1zM69 38h1v1h-1zM70 38h1v1h-1zM71 38h1v1h-1z"/><path fill="#6D6A6D" d="M72 38h1v1h-1z"/><path fill="#231815" d="M73 38h1v1h-1zM74 38h1v1h-1zM75 38h1v1h-1zM76 38h1v1h-1zM2 39h1v1H2zM3 39h1v1H3zM4 39h1v1H4zM5 39h1v1H5z"/><path fill="#C8D8E0" d="M6 39h1v1H6z"/><path fill="#D3E5EE" d="M7 39h1v1H7zM8 39h1v1H8zM9 39h1v1H9zM10 39h1v1h-1zM11 39h1v1h-1zM12 39h1v1h-1zM13 39h1v1h-1zM14 39h1v1h-1zM15 39h1v1h-1zM16 39h1v1h-1zM17 39h1v1h-1zM18 39h1v1h-1zM19 39h1v1h-1zM20 39h1v1h-1zM21 39h1v1h-1zM22 39h1v1h-1zM23 39h1v1h-1zM24 39h1v1h-1zM25 39h1v1h-1zM26 39h1v1h-1zM27 39h1v1h-1zM28 39h1v1h-1zM29 39h1v1h-1zM30 39h1v1h-1zM31 39h1v1h-1zM32 39h1v1h-1zM33 39h1v1h-1zM34 39h1v1h-1zM35 39h1v1h-1zM36 39h1v1h-1zM37 39h1v1h-1zM38 39h1v1h-1zM39 39h1v1h-1zM40 39h1v1h-1zM41 39h1v1h-1zM42 39h1v1h-1zM43 39h1v1h-1zM44 39h1v1h-1zM45 39h1v1h-1zM46 39h1v1h-1zM47 39h1v1h-1zM48 39h1v1h-1zM49 39h1v1h-1zM50 39h1v1h-1zM51 39h1v1h-1zM52 39h1v1h-1zM53 39h1v1h-1zM54 39h1v1h-1zM55 39h1v1h-1zM56 39h1v1h-1zM57 39h1v1h-1zM58 39h1v1h-1zM59 39h1v1h-1zM60 39h1v1h-1z"/><path fill="#C8D6DF" d="M61 39h1v1h-1z"/><path fill="#A6AAB1" d="M62 39h1v1h-1zM63 39h1v1h-1zM64 39h1v1h-1zM65 39h1v1h-1zM66 39h1v1h-1zM67 39h1v1h-1zM68 39h1v1h-1zM69 39h1v1h-1zM70 39h1v1h-1zM71 39h1v1h-1z"/><path fill="#85868A" d="M72 39h1v1h-1z"/><path fill="#231815" d="M73 39h1v1h-1zM74 39h1v1h-1zM75 39h1v1h-1zM76 39h1v1h-1zM1 40h1v1H1zM2 40h1v1H2zM3 40h1v1H3zM4 40h1v1H4z"/><path fill="#443E3E" d="M5 40h1v1H5z"/><path fill="#D3E5EE" d="M6 40h1v1H6zM7 40h1v1H7zM8 40h1v1H8zM9 40h1v1H9zM10 40h1v1h-1zM11 40h1v1h-1zM12 40h1v1h-1zM13 40h1v1h-1zM14 40h1v1h-1zM15 40h1v1h-1zM16 40h1v1h-1zM17 40h1v1h-1zM18 40h1v1h-1zM19 40h1v1h-1zM20 40h1v1h-1zM21 40h1v1h-1zM22 40h1v1h-1zM23 40h1v1h-1zM24 40h1v1h-1zM25 40h1v1h-1zM26 40h1v1h-1zM27 40h1v1h-1zM28 40h1v1h-1zM29 40h1v1h-1zM30 40h1v1h-1zM31 40h1v1h-1zM32 40h1v1h-1zM33 40h1v1h-1zM34 40h1v1h-1zM35 40h1v1h-1zM36 40h1v1h-1zM37 40h1v1h-1zM38 40h1v1h-1zM39 40h1v1h-1zM40 40h1v1h-1zM41 40h1v1h-1zM42 40h1v1h-1zM43 40h1v1h-1zM44 40h1v1h-1zM45 40h1v1h-1zM46 40h1v1h-1zM47 40h1v1h-1zM48 40h1v1h-1zM49 40h1v1h-1zM50 40h1v1h-1zM51 40h1v1h-1zM52 40h1v1h-1zM53 40h1v1h-1zM54 40h1v1h-1zM55 40h1v1h-1zM56 40h1v1h-1zM57 40h1v1h-1zM58 40h1v1h-1zM59 40h1v1h-1zM60 40h1v1h-1z"/><path fill="#BFCBD3" d="M61 40h1v1h-1z"/><path fill="#A6AAB1" d="M62 40h1v1h-1zM63 40h1v1h-1zM64 40h1v1h-1zM65 40h1v1h-1zM66 40h1v1h-1zM67 40h1v1h-1zM68 40h1v1h-1zM69 40h1v1h-1zM70 40h1v1h-1zM71 40h1v1h-1zM72 40h1v1h-1z"/><path fill="#231815" d="M73 40h1v1h-1zM74 40h1v1h-1zM75 40h1v1h-1zM76 40h1v1h-1zM1 41h1v1H1zM2 41h1v1H2zM3 41h1v1H3zM4 41h1v1H4z"/><path fill="#7B7F82" d="M5 41h1v1H5z"/><path fill="#D3E5EE" d="M6 41h1v1H6zM7 41h1v1H7zM8 41h1v1H8zM9 41h1v1H9zM10 41h1v1h-1zM11 41h1v1h-1zM12 41h1v1h-1zM13 41h1v1h-1zM14 41h1v1h-1zM15 41h1v1h-1zM16 41h1v1h-1zM17 41h1v1h-1zM18 41h1v1h-1zM19 41h1v1h-1zM20 41h1v1h-1zM21 41h1v1h-1zM22 41h1v1h-1zM23 41h1v1h-1zM24 41h1v1h-1zM25 41h1v1h-1zM26 41h1v1h-1zM27 41h1v1h-1zM28 41h1v1h-1zM29 41h1v1h-1zM30 41h1v1h-1zM31 41h1v1h-1zM32 41h1v1h-1zM33 41h1v1h-1zM34 41h1v1h-1zM35 41h1v1h-1zM36 41h1v1h-1zM37 41h1v1h-1zM38 41h1v1h-1zM39 41h1v1h-1zM40 41h1v1h-1zM41 41h1v1h-1zM42 41h1v1h-1zM43 41h1v1h-1zM44 41h1v1h-1zM45 41h1v1h-1zM46 41h1v1h-1zM47 41h1v1h-1zM48 41h1v1h-1zM49 41h1v1h-1zM50 41h1v1h-1zM51 41h1v1h-1zM52 41h1v1h-1zM53 41h1v1h-1zM54 41h1v1h-1zM55 41h1v1h-1zM56 41h1v1h-1zM57 41h1v1h-1zM58 41h1v1h-1zM59 41h1v1h-1zM60 41h1v1h-1z"/><path fill="#B4BCC4" d="M61 41h1v1h-1z"/><path fill="#A6AAB1" d="M62 41h1v1h-1zM63 41h1v1h-1zM64 41h1v1h-1zM65 41h1v1h-1zM66 41h1v1h-1zM67 41h1v1h-1zM68 41h1v1h-1zM69 41h1v1h-1zM70 41h1v1h-1zM71 41h1v1h-1zM72 41h1v1h-1z"/><path fill="#332A29" d="M73 41h1v1h-1z"/><path fill="#231815" d="M74 41h1v1h-1zM75 41h1v1h-1zM76 41h1v1h-1zM1 42h1v1H1zM2 42h1v1H2zM3 42h1v1H3zM4 42h1v1H4z"/><path fill="#A7B2B8" d="M5 42h1v1H5z"/><path fill="#D3E5EE" d="M6 42h1v1H6zM7 42h1v1H7zM8 42h1v1H8zM9 42h1v1H9zM10 42h1v1h-1zM11 42h1v1h-1zM12 42h1v1h-1zM13 42h1v1h-1zM14 42h1v1h-1zM15 42h1v1h-1zM16 42h1v1h-1zM17 42h1v1h-1zM18 42h1v1h-1zM19 42h1v1h-1zM20 42h1v1h-1zM21 42h1v1h-1zM22 42h1v1h-1zM23 42h1v1h-1zM24 42h1v1h-1zM25 42h1v1h-1zM26 42h1v1h-1zM27 42h1v1h-1zM28 42h1v1h-1zM29 42h1v1h-1zM30 42h1v1h-1zM31 42h1v1h-1zM32 42h1v1h-1zM33 42h1v1h-1zM34 42h1v1h-1zM35 42h1v1h-1zM36 42h1v1h-1zM37 42h1v1h-1zM38 42h1v1h-1zM39 42h1v1h-1zM40 42h1v1h-1zM41 42h1v1h-1zM42 42h1v1h-1zM43 42h1v1h-1zM44 42h1v1h-1zM45 42h1v1h-1zM46 42h1v1h-1zM47 42h1v1h-1zM48 42h1v1h-1zM49 42h1v1h-1zM50 42h1v1h-1zM51 42h1v1h-1zM52 42h1v1h-1zM53 42h1v1h-1zM54 42h1v1h-1zM55 42h1v1h-1zM56 42h1v1h-1zM57 42h1v1h-1zM58 42h1v1h-1zM59 42h1v1h-1zM60 42h1v1h-1z"/><path fill="#A9AEB5" d="M61 42h1v1h-1z"/><path fill="#A6AAB1" d="M62 42h1v1h-1zM63 42h1v1h-1zM64 42h1v1h-1zM65 42h1v1h-1zM66 42h1v1h-1zM67 42h1v1h-1zM68 42h1v1h-1zM69 42h1v1h-1zM70 42h1v1h-1zM71 42h1v1h-1zM72 42h1v1h-1z"/><path fill="#443D3C" d="M73 42h1v1h-1z"/><path fill="#231815" d="M74 42h1v1h-1zM75 42h1v1h-1zM76 42h1v1h-1zM1 43h1v1H1zM2 43h1v1H2zM3 43h1v1H3zM4 43h1v1H4z"/><path fill="#D3E5EE" d="M5 43h1v1H5zM6 43h1v1H6zM7 43h1v1H7zM8 43h1v1H8zM9 43h1v1H9zM10 43h1v1h-1zM11 43h1v1h-1zM12 43h1v1h-1zM13 43h1v1h-1zM14 43h1v1h-1zM15 43h1v1h-1zM16 43h1v1h-1zM17 43h1v1h-1zM18 43h1v1h-1zM19 43h1v1h-1zM20 43h1v1h-1zM21 43h1v1h-1zM22 43h1v1h-1zM23 43h1v1h-1zM24 43h1v1h-1zM25 43h1v1h-1zM26 43h1v1h-1zM27 43h1v1h-1zM28 43h1v1h-1zM29 43h1v1h-1zM30 43h1v1h-1zM31 43h1v1h-1zM32 43h1v1h-1zM33 43h1v1h-1zM34 43h1v1h-1zM35 43h1v1h-1zM36 43h1v1h-1zM37 43h1v1h-1zM38 43h1v1h-1zM39 43h1v1h-1zM40 43h1v1h-1zM41 43h1v1h-1zM42 43h1v1h-1zM43 43h1v1h-1zM44 43h1v1h-1zM45 43h1v1h-1zM46 43h1v1h-1zM47 43h1v1h-1zM48 43h1v1h-1zM49 43h1v1h-1zM50 43h1v1h-1zM51 43h1v1h-1zM52 43h1v1h-1zM53 43h1v1h-1zM54 43h1v1h-1zM55 43h1v1h-1zM56 43h1v1h-1zM57 43h1v1h-1zM58 43h1v1h-1zM59 43h1v1h-1z"/><path fill="#CBDAE3" d="M60 43h1v1h-1z"/><path fill="#A6AAB1" d="M61 43h1v1h-1zM62 43h1v1h-1zM63 43h1v1h-1zM64 43h1v1h-1zM65 43h1v1h-1zM66 43h1v1h-1zM67 43h1v1h-1zM68 43h1v1h-1zM69 43h1v1h-1zM70 43h1v1h-1zM71 43h1v1h-1zM72 43h1v1h-1z"/><path fill="#5C5859" d="M73 43h1v1h-1z"/><path fill="#231815" d="M74 43h1v1h-1zM75 43h1v1h-1zM76 43h1v1h-1zM77 43h1v1h-1zM1 44h1v1H1zM2 44h1v1H2zM3 44h1v1H3z"/><path fill="#443E3E" d="M4 44h1v1H4z"/><path fill="#D3E5EE" d="M5 44h1v1H5zM6 44h1v1H6zM7 44h1v1H7zM8 44h1v1H8zM9 44h1v1H9zM10 44h1v1h-1zM11 44h1v1h-1zM12 44h1v1h-1zM13 44h1v1h-1zM14 44h1v1h-1zM15 44h1v1h-1zM16 44h1v1h-1zM17 44h1v1h-1zM18 44h1v1h-1zM19 44h1v1h-1zM20 44h1v1h-1zM21 44h1v1h-1zM22 44h1v1h-1zM23 44h1v1h-1zM24 44h1v1h-1zM25 44h1v1h-1zM26 44h1v1h-1zM27 44h1v1h-1zM28 44h1v1h-1zM29 44h1v1h-1zM30 44h1v1h-1zM31 44h1v1h-1zM32 44h1v1h-1zM33 44h1v1h-1zM34 44h1v1h-1zM35 44h1v1h-1zM36 44h1v1h-1zM37 44h1v1h-1zM38 44h1v1h-1zM39 44h1v1h-1zM40 44h1v1h-1zM41 44h1v1h-1zM42 44h1v1h-1zM43 44h1v1h-1zM44 44h1v1h-1zM45 44h1v1h-1zM46 44h1v1h-1zM47 44h1v1h-1zM48 44h1v1h-1zM49 44h1v1h-1zM50 44h1v1h-1zM51 44h1v1h-1zM52 44h1v1h-1zM53 44h1v1h-1zM54 44h1v1h-1zM55 44h1v1h-1zM56 44h1v1h-1zM57 44h1v1h-1zM58 44h1v1h-1zM59 44h1v1h-1z"/><path fill="#BDC8D0" d="M60 44h1v1h-1z"/><path fill="#A6AAB1" d="M61 44h1v1h-1zM62 44h1v1h-1zM63 44h1v1h-1zM64 44h1v1h-1zM65 44h1v1h-1zM66 44h1v1h-1zM67 44h1v1h-1zM68 44h1v1h-1zM69 44h1v1h-1zM70 44h1v1h-1zM71 44h1v1h-1zM72 44h1v1h-1z"/><path fill="#656163" d="M73 44h1v1h-1z"/><path fill="#231815" d="M74 44h1v1h-1zM75 44h1v1h-1zM76 44h1v1h-1zM77 44h1v1h-1zM0 45h1v1H0zM1 45h1v1H1zM2 45h1v1H2zM3 45h1v1H3z"/><path fill="#5A5859" d="M4 45h1v1H4z"/><path fill="#D3E5EE" d="M5 45h1v1H5zM6 45h1v1H6zM7 45h1v1H7zM8 45h1v1H8zM9 45h1v1H9zM10 45h1v1h-1zM11 45h1v1h-1zM12 45h1v1h-1zM13 45h1v1h-1zM14 45h1v1h-1zM15 45h1v1h-1zM16 45h1v1h-1zM17 45h1v1h-1zM18 45h1v1h-1zM19 45h1v1h-1zM20 45h1v1h-1zM21 45h1v1h-1zM22 45h1v1h-1zM23 45h1v1h-1zM24 45h1v1h-1zM25 45h1v1h-1zM26 45h1v1h-1zM27 45h1v1h-1zM28 45h1v1h-1zM29 45h1v1h-1zM30 45h1v1h-1zM31 45h1v1h-1zM32 45h1v1h-1zM33 45h1v1h-1zM34 45h1v1h-1zM35 45h1v1h-1zM36 45h1v1h-1zM37 45h1v1h-1zM38 45h1v1h-1zM39 45h1v1h-1zM40 45h1v1h-1zM41 45h1v1h-1zM42 45h1v1h-1zM43 45h1v1h-1zM44 45h1v1h-1zM45 45h1v1h-1zM46 45h1v1h-1zM47 45h1v1h-1zM48 45h1v1h-1zM49 45h1v1h-1zM50 45h1v1h-1zM51 45h1v1h-1zM52 45h1v1h-1zM53 45h1v1h-1zM54 45h1v1h-1zM55 45h1v1h-1zM56 45h1v1h-1zM57 45h1v1h-1zM58 45h1v1h-1zM59 45h1v1h-1z"/><path fill="#AEB5BC" d="M60 45h1v1h-1z"/><path fill="#A6AAB1" d="M61 45h1v1h-1zM62 45h1v1h-1zM63 45h1v1h-1zM64 45h1v1h-1zM65 45h1v1h-1zM66 45h1v1h-1zM67 45h1v1h-1zM68 45h1v1h-1zM69 45h1v1h-1zM70 45h1v1h-1zM71 45h1v1h-1zM72 45h1v1h-1z"/><path fill="#6D6A6D" d="M73 45h1v1h-1z"/><path fill="#231815" d="M74 45h1v1h-1zM75 45h1v1h-1zM76 45h1v1h-1zM77 45h1v1h-1zM0 46h1v1H0zM1 46h1v1H1zM2 46h1v1H2zM3 46h1v1H3z"/><path fill="#7B7F82" d="M4 46h1v1H4z"/><path fill="#D3E5EE" d="M5 46h1v1H5zM6 46h1v1H6zM7 46h1v1H7zM8 46h1v1H8zM9 46h1v1H9zM10 46h1v1h-1zM11 46h1v1h-1zM12 46h1v1h-1zM13 46h1v1h-1zM14 46h1v1h-1zM15 46h1v1h-1zM16 46h1v1h-1zM17 46h1v1h-1zM18 46h1v1h-1zM19 46h1v1h-1zM20 46h1v1h-1zM21 46h1v1h-1zM22 46h1v1h-1zM23 46h1v1h-1zM24 46h1v1h-1zM25 46h1v1h-1zM26 46h1v1h-1zM27 46h1v1h-1zM28 46h1v1h-1zM29 46h1v1h-1zM30 46h1v1h-1zM31 46h1v1h-1zM32 46h1v1h-1zM33 46h1v1h-1zM34 46h1v1h-1zM35 46h1v1h-1zM36 46h1v1h-1zM37 46h1v1h-1zM38 46h1v1h-1zM39 46h1v1h-1zM40 46h1v1h-1zM41 46h1v1h-1zM42 46h1v1h-1zM43 46h1v1h-1zM44 46h1v1h-1zM45 46h1v1h-1zM46 46h1v1h-1zM47 46h1v1h-1zM48 46h1v1h-1zM49 46h1v1h-1zM50 46h1v1h-1zM51 46h1v1h-1zM52 46h1v1h-1zM53 46h1v1h-1zM54 46h1v1h-1zM55 46h1v1h-1zM56 46h1v1h-1zM57 46h1v1h-1zM58 46h1v1h-1z"/><path fill="#CDDEE6" d="M59 46h1v1h-1z"/><path fill="#A6AAB1" d="M60 46h1v1h-1zM61 46h1v1h-1zM62 46h1v1h-1zM63 46h1v1h-1zM64 46h1v1h-1zM65 46h1v1h-1zM66 46h1v1h-1zM67 46h1v1h-1zM68 46h1v1h-1zM69 46h1v1h-1zM70 46h1v1h-1zM71 46h1v1h-1zM72 46h1v1h-1z"/><path fill="#85868A" d="M73 46h1v1h-1z"/><path fill="#231815" d="M74 46h1v1h-1zM75 46h1v1h-1zM76 46h1v1h-1zM77 46h1v1h-1zM0 47h1v1H0zM1 47h1v1H1zM2 47h1v1H2zM3 47h1v1H3z"/><path fill="#868B8F" d="M4 47h1v1H4z"/><path fill="#D3E5EE" d="M5 47h1v1H5zM6 47h1v1H6zM7 47h1v1H7zM8 47h1v1H8zM9 47h1v1H9zM10 47h1v1h-1zM11 47h1v1h-1zM12 47h1v1h-1zM13 47h1v1h-1zM14 47h1v1h-1zM15 47h1v1h-1zM16 47h1v1h-1zM17 47h1v1h-1zM18 47h1v1h-1zM19 47h1v1h-1zM20 47h1v1h-1zM21 47h1v1h-1zM22 47h1v1h-1zM23 47h1v1h-1zM24 47h1v1h-1zM25 47h1v1h-1zM26 47h1v1h-1zM27 47h1v1h-1zM28 47h1v1h-1zM29 47h1v1h-1zM30 47h1v1h-1zM31 47h1v1h-1zM32 47h1v1h-1zM33 47h1v1h-1zM34 47h1v1h-1zM35 47h1v1h-1zM36 47h1v1h-1zM37 47h1v1h-1zM38 47h1v1h-1zM39 47h1v1h-1zM40 47h1v1h-1zM41 47h1v1h-1zM42 47h1v1h-1zM43 47h1v1h-1zM44 47h1v1h-1zM45 47h1v1h-1zM46 47h1v1h-1zM47 47h1v1h-1zM48 47h1v1h-1zM49 47h1v1h-1zM50 47h1v1h-1zM51 47h1v1h-1zM52 47h1v1h-1zM53 47h1v1h-1zM54 47h1v1h-1zM55 47h1v1h-1zM56 47h1v1h-1zM57 47h1v1h-1zM58 47h1v1h-1z"/><path fill="#BFCBD3" d="M59 47h1v1h-1z"/><path fill="#A6AAB1" d="M60 47h1v1h-1zM61 47h1v1h-1zM62 47h1v1h-1zM63 47h1v1h-1zM64 47h1v1h-1zM65 47h1v1h-1zM66 47h1v1h-1zM67 47h1v1h-1zM68 47h1v1h-1zM69 47h1v1h-1zM70 47h1v1h-1zM71 47h1v1h-1zM72 47h1v1h-1z"/><path fill="#85868A" d="M73 47h1v1h-1z"/><path fill="#231815" d="M74 47h1v1h-1zM75 47h1v1h-1zM76 47h1v1h-1zM77 47h1v1h-1zM0 48h1v1H0zM1 48h1v1H1zM2 48h1v1H2zM3 48h1v1H3z"/><path fill="#A7B2B8" d="M4 48h1v1H4z"/><path fill="#D3E5EE" d="M5 48h1v1H5zM6 48h1v1H6zM7 48h1v1H7zM8 48h1v1H8zM9 48h1v1H9zM10 48h1v1h-1zM11 48h1v1h-1zM12 48h1v1h-1zM13 48h1v1h-1zM14 48h1v1h-1zM15 48h1v1h-1zM16 48h1v1h-1zM17 48h1v1h-1zM18 48h1v1h-1zM19 48h1v1h-1zM20 48h1v1h-1zM21 48h1v1h-1zM22 48h1v1h-1zM23 48h1v1h-1zM24 48h1v1h-1zM25 48h1v1h-1zM26 48h1v1h-1zM27 48h1v1h-1zM28 48h1v1h-1zM29 48h1v1h-1zM30 48h1v1h-1zM31 48h1v1h-1zM32 48h1v1h-1zM33 48h1v1h-1zM34 48h1v1h-1zM35 48h1v1h-1zM36 48h1v1h-1zM37 48h1v1h-1zM38 48h1v1h-1zM39 48h1v1h-1zM40 48h1v1h-1zM41 48h1v1h-1zM42 48h1v1h-1zM43 48h1v1h-1zM44 48h1v1h-1zM45 48h1v1h-1zM46 48h1v1h-1zM47 48h1v1h-1zM48 48h1v1h-1zM49 48h1v1h-1zM50 48h1v1h-1zM51 48h1v1h-1zM52 48h1v1h-1zM53 48h1v1h-1zM54 48h1v1h-1zM55 48h1v1h-1zM56 48h1v1h-1zM57 48h1v1h-1zM58 48h1v1h-1z"/><path fill="#AEB5BC" d="M59 48h1v1h-1z"/><path fill="#A6AAB1" d="M60 48h1v1h-1zM61 48h1v1h-1zM62 48h1v1h-1zM63 48h1v1h-1zM64 48h1v1h-1zM65 48h1v1h-1zM66 48h1v1h-1zM67 48h1v1h-1zM68 48h1v1h-1zM69 48h1v1h-1zM70 48h1v1h-1zM71 48h1v1h-1zM72 48h1v1h-1z"/><path fill="#85868A" d="M73 48h1v1h-1z"/><path fill="#231815" d="M74 48h1v1h-1zM75 48h1v1h-1zM76 48h1v1h-1zM77 48h1v1h-1zM0 49h1v1H0zM1 49h1v1H1zM2 49h1v1H2zM3 49h1v1H3z"/><path fill="#A7B2B8" d="M4 49h1v1H4z"/><path fill="#D3E5EE" d="M5 49h1v1H5zM6 49h1v1H6zM7 49h1v1H7zM8 49h1v1H8zM9 49h1v1H9zM10 49h1v1h-1zM11 49h1v1h-1zM12 49h1v1h-1zM13 49h1v1h-1zM14 49h1v1h-1zM15 49h1v1h-1zM16 49h1v1h-1zM17 49h1v1h-1zM18 49h1v1h-1zM19 49h1v1h-1zM20 49h1v1h-1zM21 49h1v1h-1zM22 49h1v1h-1zM23 49h1v1h-1zM24 49h1v1h-1zM25 49h1v1h-1zM26 49h1v1h-1zM27 49h1v1h-1zM28 49h1v1h-1zM29 49h1v1h-1zM30 49h1v1h-1zM31 49h1v1h-1zM32 49h1v1h-1zM33 49h1v1h-1zM34 49h1v1h-1zM35 49h1v1h-1zM36 49h1v1h-1zM37 49h1v1h-1zM38 49h1v1h-1zM39 49h1v1h-1zM40 49h1v1h-1zM41 49h1v1h-1zM42 49h1v1h-1zM43 49h1v1h-1zM44 49h1v1h-1zM45 49h1v1h-1zM46 49h1v1h-1zM47 49h1v1h-1zM48 49h1v1h-1zM49 49h1v1h-1zM50 49h1v1h-1zM51 49h1v1h-1zM52 49h1v1h-1zM53 49h1v1h-1zM54 49h1v1h-1zM55 49h1v1h-1zM56 49h1v1h-1zM57 49h1v1h-1z"/><path fill="#CDDEE6" d="M58 49h1v1h-1z"/><path fill="#A6AAB1" d="M59 49h1v1h-1zM60 49h1v1h-1zM61 49h1v1h-1zM62 49h1v1h-1zM63 49h1v1h-1zM64 49h1v1h-1zM65 49h1v1h-1zM66 49h1v1h-1zM67 49h1v1h-1zM68 49h1v1h-1zM69 49h1v1h-1zM70 49h1v1h-1zM71 49h1v1h-1zM72 49h1v1h-1z"/><path fill="#85868A" d="M73 49h1v1h-1z"/><path fill="#231815" d="M74 49h1v1h-1zM75 49h1v1h-1zM76 49h1v1h-1zM77 49h1v1h-1zM0 50h1v1H0zM1 50h1v1H1zM2 50h1v1H2zM3 50h1v1H3z"/><path fill="#A7B2B8" d="M4 50h1v1H4z"/><path fill="#D3E5EE" d="M5 50h1v1H5zM6 50h1v1H6zM7 50h1v1H7zM8 50h1v1H8zM9 50h1v1H9zM10 50h1v1h-1zM11 50h1v1h-1zM12 50h1v1h-1zM13 50h1v1h-1zM14 50h1v1h-1zM15 50h1v1h-1zM16 50h1v1h-1zM17 50h1v1h-1zM18 50h1v1h-1zM19 50h1v1h-1zM20 50h1v1h-1zM21 50h1v1h-1zM22 50h1v1h-1zM23 50h1v1h-1zM24 50h1v1h-1zM25 50h1v1h-1zM26 50h1v1h-1zM27 50h1v1h-1zM28 50h1v1h-1zM29 50h1v1h-1zM30 50h1v1h-1zM31 50h1v1h-1zM32 50h1v1h-1zM33 50h1v1h-1zM34 50h1v1h-1zM35 50h1v1h-1zM36 50h1v1h-1zM37 50h1v1h-1zM38 50h1v1h-1zM39 50h1v1h-1zM40 50h1v1h-1zM41 50h1v1h-1zM42 50h1v1h-1zM43 50h1v1h-1zM44 50h1v1h-1zM45 50h1v1h-1zM46 50h1v1h-1zM47 50h1v1h-1zM48 50h1v1h-1zM49 50h1v1h-1zM50 50h1v1h-1zM51 50h1v1h-1zM52 50h1v1h-1zM53 50h1v1h-1zM54 50h1v1h-1zM55 50h1v1h-1zM56 50h1v1h-1zM57 50h1v1h-1z"/><path fill="#BDC8D0" d="M58 50h1v1h-1z"/><path fill="#A6AAB1" d="M59 50h1v1h-1zM60 50h1v1h-1zM61 50h1v1h-1zM62 50h1v1h-1zM63 50h1v1h-1zM64 50h1v1h-1zM65 50h1v1h-1zM66 50h1v1h-1zM67 50h1v1h-1zM68 50h1v1h-1zM69 50h1v1h-1zM70 50h1v1h-1zM71 50h1v1h-1zM72 50h1v1h-1z"/><path fill="#85868A" d="M73 50h1v1h-1z"/><path fill="#231815" d="M74 50h1v1h-1zM75 50h1v1h-1zM76 50h1v1h-1zM77 50h1v1h-1zM0 51h1v1H0zM1 51h1v1H1zM2 51h1v1H2zM3 51h1v1H3z"/><path fill="#A7B2B8" d="M4 51h1v1H4z"/><path fill="#D3E5EE" d="M5 51h1v1H5zM6 51h1v1H6zM7 51h1v1H7zM8 51h1v1H8zM9 51h1v1H9zM10 51h1v1h-1zM11 51h1v1h-1zM12 51h1v1h-1zM13 51h1v1h-1zM14 51h1v1h-1zM15 51h1v1h-1zM16 51h1v1h-1zM17 51h1v1h-1zM18 51h1v1h-1zM19 51h1v1h-1zM20 51h1v1h-1zM21 51h1v1h-1zM22 51h1v1h-1zM23 51h1v1h-1zM24 51h1v1h-1zM25 51h1v1h-1zM26 51h1v1h-1zM27 51h1v1h-1zM28 51h1v1h-1zM29 51h1v1h-1zM30 51h1v1h-1zM31 51h1v1h-1zM32 51h1v1h-1zM33 51h1v1h-1zM34 51h1v1h-1zM35 51h1v1h-1zM36 51h1v1h-1zM37 51h1v1h-1zM38 51h1v1h-1zM39 51h1v1h-1zM40 51h1v1h-1zM41 51h1v1h-1zM42 51h1v1h-1zM43 51h1v1h-1zM44 51h1v1h-1zM45 51h1v1h-1zM46 51h1v1h-1zM47 51h1v1h-1zM48 51h1v1h-1zM49 51h1v1h-1zM50 51h1v1h-1zM51 51h1v1h-1zM52 51h1v1h-1zM53 51h1v1h-1zM54 51h1v1h-1zM55 51h1v1h-1zM56 51h1v1h-1zM57 51h1v1h-1z"/><path fill="#ACB1B9" d="M58 51h1v1h-1z"/><path fill="#A6AAB1" d="M59 51h1v1h-1zM60 51h1v1h-1zM61 51h1v1h-1zM62 51h1v1h-1zM63 51h1v1h-1zM64 51h1v1h-1zM65 51h1v1h-1zM66 51h1v1h-1zM67 51h1v1h-1zM68 51h1v1h-1zM69 51h1v1h-1zM70 51h1v1h-1zM71 51h1v1h-1zM72 51h1v1h-1z"/><path fill="#85868A" d="M73 51h1v1h-1z"/><path fill="#231815" d="M74 51h1v1h-1zM75 51h1v1h-1zM76 51h1v1h-1zM77 51h1v1h-1zM0 52h1v1H0zM1 52h1v1H1zM2 52h1v1H2zM3 52h1v1H3z"/><path fill="#A7B2B8" d="M4 52h1v1H4z"/><path fill="#D3E5EE" d="M5 52h1v1H5zM6 52h1v1H6zM7 52h1v1H7zM8 52h1v1H8zM9 52h1v1H9zM10 52h1v1h-1zM11 52h1v1h-1zM12 52h1v1h-1zM13 52h1v1h-1zM14 52h1v1h-1zM15 52h1v1h-1zM16 52h1v1h-1zM17 52h1v1h-1zM18 52h1v1h-1zM19 52h1v1h-1zM20 52h1v1h-1zM21 52h1v1h-1zM22 52h1v1h-1zM23 52h1v1h-1zM24 52h1v1h-1zM25 52h1v1h-1zM26 52h1v1h-1zM27 52h1v1h-1zM28 52h1v1h-1zM29 52h1v1h-1zM30 52h1v1h-1zM31 52h1v1h-1zM32 52h1v1h-1zM33 52h1v1h-1zM34 52h1v1h-1zM35 52h1v1h-1zM36 52h1v1h-1zM37 52h1v1h-1zM38 52h1v1h-1zM39 52h1v1h-1zM40 52h1v1h-1zM41 52h1v1h-1zM42 52h1v1h-1zM43 52h1v1h-1zM44 52h1v1h-1zM45 52h1v1h-1zM46 52h1v1h-1zM47 52h1v1h-1zM48 52h1v1h-1zM49 52h1v1h-1zM50 52h1v1h-1zM51 52h1v1h-1zM52 52h1v1h-1zM53 52h1v1h-1zM54 52h1v1h-1zM55 52h1v1h-1zM56 52h1v1h-1z"/><path fill="#C2CFD7" d="M57 52h1v1h-1z"/><path fill="#A6AAB1" d="M58 52h1v1h-1zM59 52h1v1h-1zM60 52h1v1h-1zM61 52h1v1h-1zM62 52h1v1h-1zM63 52h1v1h-1zM64 52h1v1h-1zM65 52h1v1h-1zM66 52h1v1h-1zM67 52h1v1h-1zM68 52h1v1h-1zM69 52h1v1h-1zM70 52h1v1h-1zM71 52h1v1h-1zM72 52h1v1h-1z"/><path fill="#85868A" d="M73 52h1v1h-1z"/><path fill="#231815" d="M74 52h1v1h-1zM75 52h1v1h-1zM76 52h1v1h-1zM77 52h1v1h-1zM0 53h1v1H0zM1 53h1v1H1zM2 53h1v1H2zM3 53h1v1H3z"/><path fill="#A7B2B8" d="M4 53h1v1H4z"/><path fill="#D3E5EE" d="M5 53h1v1H5zM6 53h1v1H6zM7 53h1v1H7zM8 53h1v1H8zM9 53h1v1H9zM10 53h1v1h-1zM11 53h1v1h-1zM12 53h1v1h-1zM13 53h1v1h-1zM14 53h1v1h-1zM15 53h1v1h-1zM16 53h1v1h-1zM17 53h1v1h-1zM18 53h1v1h-1zM19 53h1v1h-1zM20 53h1v1h-1zM21 53h1v1h-1zM22 53h1v1h-1zM23 53h1v1h-1zM24 53h1v1h-1zM25 53h1v1h-1zM26 53h1v1h-1zM27 53h1v1h-1zM28 53h1v1h-1zM29 53h1v1h-1zM30 53h1v1h-1zM31 53h1v1h-1zM32 53h1v1h-1zM33 53h1v1h-1zM34 53h1v1h-1zM35 53h1v1h-1zM36 53h1v1h-1zM37 53h1v1h-1zM38 53h1v1h-1zM39 53h1v1h-1zM40 53h1v1h-1zM41 53h1v1h-1zM42 53h1v1h-1zM43 53h1v1h-1zM44 53h1v1h-1zM45 53h1v1h-1zM46 53h1v1h-1zM47 53h1v1h-1zM48 53h1v1h-1zM49 53h1v1h-1zM50 53h1v1h-1zM51 53h1v1h-1zM52 53h1v1h-1zM53 53h1v1h-1zM54 53h1v1h-1zM55 53h1v1h-1zM56 53h1v1h-1z"/><path fill="#B1B9C0" d="M57 53h1v1h-1z"/><path fill="#A6AAB1" d="M58 53h1v1h-1zM59 53h1v1h-1zM60 53h1v1h-1zM61 53h1v1h-1zM62 53h1v1h-1zM63 53h1v1h-1zM64 53h1v1h-1zM65 53h1v1h-1zM66 53h1v1h-1zM67 53h1v1h-1zM68 53h1v1h-1zM69 53h1v1h-1zM70 53h1v1h-1zM71 53h1v1h-1zM72 53h1v1h-1z"/><path fill="#757377" d="M73 53h1v1h-1z"/><path fill="#231815" d="M74 53h1v1h-1zM75 53h1v1h-1zM76 53h1v1h-1zM77 53h1v1h-1zM0 54h1v1H0zM1 54h1v1H1zM2 54h1v1H2zM3 54h1v1H3z"/><path fill="#868B8F" d="M4 54h1v1H4z"/><path fill="#D3E5EE" d="M5 54h1v1H5zM6 54h1v1H6zM7 54h1v1H7zM8 54h1v1H8zM9 54h1v1H9zM10 54h1v1h-1zM11 54h1v1h-1zM12 54h1v1h-1zM13 54h1v1h-1zM14 54h1v1h-1zM15 54h1v1h-1zM16 54h1v1h-1zM17 54h1v1h-1zM18 54h1v1h-1zM19 54h1v1h-1zM20 54h1v1h-1zM21 54h1v1h-1zM22 54h1v1h-1zM23 54h1v1h-1zM24 54h1v1h-1zM25 54h1v1h-1zM26 54h1v1h-1zM27 54h1v1h-1zM28 54h1v1h-1zM29 54h1v1h-1zM30 54h1v1h-1zM31 54h1v1h-1zM32 54h1v1h-1zM33 54h1v1h-1zM34 54h1v1h-1zM35 54h1v1h-1zM36 54h1v1h-1zM37 54h1v1h-1zM38 54h1v1h-1zM39 54h1v1h-1zM40 54h1v1h-1zM41 54h1v1h-1zM42 54h1v1h-1zM43 54h1v1h-1zM44 54h1v1h-1zM45 54h1v1h-1zM46 54h1v1h-1zM47 54h1v1h-1zM48 54h1v1h-1zM49 54h1v1h-1zM50 54h1v1h-1zM51 54h1v1h-1zM52 54h1v1h-1zM53 54h1v1h-1zM54 54h1v1h-1zM55 54h1v1h-1z"/><path fill="#C8D6DF" d="M56 54h1v1h-1z"/><path fill="#A6AAB1" d="M57 54h1v1h-1zM58 54h1v1h-1zM59 54h1v1h-1zM60 54h1v1h-1zM61 54h1v1h-1zM62 54h1v1h-1zM63 54h1v1h-1zM64 54h1v1h-1zM65 54h1v1h-1zM66 54h1v1h-1zM67 54h1v1h-1zM68 54h1v1h-1zM69 54h1v1h-1zM70 54h1v1h-1zM71 54h1v1h-1zM72 54h1v1h-1z"/><path fill="#656163" d="M73 54h1v1h-1z"/><path fill="#231815" d="M74 54h1v1h-1zM75 54h1v1h-1zM76 54h1v1h-1zM77 54h1v1h-1zM0 55h1v1H0zM1 55h1v1H1zM2 55h1v1H2zM3 55h1v1H3z"/><path fill="#7B7F82" d="M4 55h1v1H4z"/><path fill="#D3E5EE" d="M5 55h1v1H5zM6 55h1v1H6zM7 55h1v1H7zM8 55h1v1H8zM9 55h1v1H9zM10 55h1v1h-1zM11 55h1v1h-1zM12 55h1v1h-1zM13 55h1v1h-1zM14 55h1v1h-1zM15 55h1v1h-1zM16 55h1v1h-1zM17 55h1v1h-1zM18 55h1v1h-1zM19 55h1v1h-1zM20 55h1v1h-1zM21 55h1v1h-1zM22 55h1v1h-1zM23 55h1v1h-1zM24 55h1v1h-1zM25 55h1v1h-1zM26 55h1v1h-1zM27 55h1v1h-1zM28 55h1v1h-1zM29 55h1v1h-1zM30 55h1v1h-1zM31 55h1v1h-1zM32 55h1v1h-1zM33 55h1v1h-1zM34 55h1v1h-1zM35 55h1v1h-1zM36 55h1v1h-1zM37 55h1v1h-1zM38 55h1v1h-1zM39 55h1v1h-1zM40 55h1v1h-1zM41 55h1v1h-1zM42 55h1v1h-1zM43 55h1v1h-1zM44 55h1v1h-1zM45 55h1v1h-1zM46 55h1v1h-1zM47 55h1v1h-1zM48 55h1v1h-1zM49 55h1v1h-1zM50 55h1v1h-1zM51 55h1v1h-1zM52 55h1v1h-1zM53 55h1v1h-1zM54 55h1v1h-1zM55 55h1v1h-1z"/><path fill="#B1B9C0" d="M56 55h1v1h-1z"/><path fill="#A6AAB1" d="M57 55h1v1h-1zM58 55h1v1h-1zM59 55h1v1h-1zM60 55h1v1h-1zM61 55h1v1h-1zM62 55h1v1h-1zM63 55h1v1h-1zM64 55h1v1h-1zM65 55h1v1h-1zM66 55h1v1h-1zM67 55h1v1h-1zM68 55h1v1h-1zM69 55h1v1h-1zM70 55h1v1h-1zM71 55h1v1h-1zM72 55h1v1h-1z"/><path fill="#5C5859" d="M73 55h1v1h-1z"/><path fill="#231815" d="M74 55h1v1h-1zM75 55h1v1h-1zM76 55h1v1h-1zM77 55h1v1h-1zM0 56h1v1H0zM1 56h1v1H1zM2 56h1v1H2zM3 56h1v1H3z"/><path fill="#5A5859" d="M4 56h1v1H4z"/><path fill="#D3E5EE" d="M5 56h1v1H5zM6 56h1v1H6zM7 56h1v1H7zM8 56h1v1H8zM9 56h1v1H9zM10 56h1v1h-1zM11 56h1v1h-1zM12 56h1v1h-1zM13 56h1v1h-1zM14 56h1v1h-1zM15 56h1v1h-1zM16 56h1v1h-1zM17 56h1v1h-1zM18 56h1v1h-1zM19 56h1v1h-1zM20 56h1v1h-1zM21 56h1v1h-1zM22 56h1v1h-1zM23 56h1v1h-1zM24 56h1v1h-1zM25 56h1v1h-1zM26 56h1v1h-1zM27 56h1v1h-1zM28 56h1v1h-1zM29 56h1v1h-1zM30 56h1v1h-1zM31 56h1v1h-1zM32 56h1v1h-1zM33 56h1v1h-1zM34 56h1v1h-1zM35 56h1v1h-1zM36 56h1v1h-1zM37 56h1v1h-1zM38 56h1v1h-1zM39 56h1v1h-1zM40 56h1v1h-1zM41 56h1v1h-1zM42 56h1v1h-1zM43 56h1v1h-1zM44 56h1v1h-1zM45 56h1v1h-1zM46 56h1v1h-1zM47 56h1v1h-1zM48 56h1v1h-1zM49 56h1v1h-1zM50 56h1v1h-1zM51 56h1v1h-1zM52 56h1v1h-1zM53 56h1v1h-1zM54 56h1v1h-1z"/><path fill="#C8D6DF" d="M55 56h1v1h-1z"/><path fill="#A6AAB1" d="M56 56h1v1h-1zM57 56h1v1h-1zM58 56h1v1h-1zM59 56h1v1h-1zM60 56h1v1h-1zM61 56h1v1h-1zM62 56h1v1h-1zM63 56h1v1h-1zM64 56h1v1h-1zM65 56h1v1h-1zM66 56h1v1h-1zM67 56h1v1h-1zM68 56h1v1h-1zM69 56h1v1h-1zM70 56h1v1h-1zM71 56h1v1h-1zM72 56h1v1h-1z"/><path fill="#443D3C" d="M73 56h1v1h-1z"/><path fill="#231815" d="M74 56h1v1h-1zM75 56h1v1h-1zM76 56h1v1h-1zM77 56h1v1h-1zM1 57h1v1H1zM2 57h1v1H2zM3 57h1v1H3z"/><path fill="#443E3E" d="M4 57h1v1H4z"/><path fill="#D3E5EE" d="M5 57h1v1H5zM6 57h1v1H6zM7 57h1v1H7zM8 57h1v1H8zM9 57h1v1H9zM10 57h1v1h-1zM11 57h1v1h-1zM12 57h1v1h-1zM13 57h1v1h-1zM14 57h1v1h-1zM15 57h1v1h-1zM16 57h1v1h-1zM17 57h1v1h-1zM18 57h1v1h-1zM19 57h1v1h-1zM20 57h1v1h-1zM21 57h1v1h-1zM22 57h1v1h-1zM23 57h1v1h-1zM24 57h1v1h-1zM25 57h1v1h-1zM26 57h1v1h-1zM27 57h1v1h-1zM28 57h1v1h-1zM29 57h1v1h-1zM30 57h1v1h-1zM31 57h1v1h-1zM32 57h1v1h-1zM33 57h1v1h-1zM34 57h1v1h-1zM35 57h1v1h-1zM36 57h1v1h-1zM37 57h1v1h-1zM38 57h1v1h-1zM39 57h1v1h-1zM40 57h1v1h-1zM41 57h1v1h-1zM42 57h1v1h-1zM43 57h1v1h-1zM44 57h1v1h-1zM45 57h1v1h-1zM46 57h1v1h-1zM47 57h1v1h-1zM48 57h1v1h-1zM49 57h1v1h-1zM50 57h1v1h-1zM51 57h1v1h-1zM52 57h1v1h-1zM53 57h1v1h-1zM54 57h1v1h-1z"/><path fill="#B1B9C0" d="M55 57h1v1h-1z"/><path fill="#A6AAB1" d="M56 57h1v1h-1zM57 57h1v1h-1zM58 57h1v1h-1zM59 57h1v1h-1zM60 57h1v1h-1zM61 57h1v1h-1zM62 57h1v1h-1zM63 57h1v1h-1zM64 57h1v1h-1zM65 57h1v1h-1zM66 57h1v1h-1zM67 57h1v1h-1zM68 57h1v1h-1zM69 57h1v1h-1zM70 57h1v1h-1zM71 57h1v1h-1zM72 57h1v1h-1z"/><path fill="#2B211F" d="M73 57h1v1h-1z"/><path fill="#231815" d="M74 57h1v1h-1zM75 57h1v1h-1zM76 57h1v1h-1zM1 58h1v1H1zM2 58h1v1H2zM3 58h1v1H3zM4 58h1v1H4z"/><path fill="#C8D8E0" d="M5 58h1v1H5z"/><path fill="#D3E5EE" d="M6 58h1v1H6zM7 58h1v1H7zM8 58h1v1H8zM9 58h1v1H9zM10 58h1v1h-1zM11 58h1v1h-1zM12 58h1v1h-1zM13 58h1v1h-1zM14 58h1v1h-1zM15 58h1v1h-1zM16 58h1v1h-1zM17 58h1v1h-1zM18 58h1v1h-1zM19 58h1v1h-1zM20 58h1v1h-1zM21 58h1v1h-1zM22 58h1v1h-1zM23 58h1v1h-1zM24 58h1v1h-1zM25 58h1v1h-1zM26 58h1v1h-1zM27 58h1v1h-1zM28 58h1v1h-1zM29 58h1v1h-1zM30 58h1v1h-1zM31 58h1v1h-1zM32 58h1v1h-1zM33 58h1v1h-1zM34 58h1v1h-1zM35 58h1v1h-1zM36 58h1v1h-1zM37 58h1v1h-1zM38 58h1v1h-1zM39 58h1v1h-1zM40 58h1v1h-1zM41 58h1v1h-1zM42 58h1v1h-1zM43 58h1v1h-1zM44 58h1v1h-1zM45 58h1v1h-1zM46 58h1v1h-1zM47 58h1v1h-1zM48 58h1v1h-1zM49 58h1v1h-1zM50 58h1v1h-1zM51 58h1v1h-1zM52 58h1v1h-1zM53 58h1v1h-1z"/><path fill="#C2CFD7" d="M54 58h1v1h-1z"/><path fill="#A6AAB1" d="M55 58h1v1h-1zM56 58h1v1h-1zM57 58h1v1h-1zM58 58h1v1h-1zM59 58h1v1h-1zM60 58h1v1h-1zM61 58h1v1h-1zM62 58h1v1h-1zM63 58h1v1h-1zM64 58h1v1h-1zM65 58h1v1h-1zM66 58h1v1h-1zM67 58h1v1h-1zM68 58h1v1h-1zM69 58h1v1h-1zM70 58h1v1h-1zM71 58h1v1h-1z"/><path fill="#96989E" d="M72 58h1v1h-1z"/><path fill="#231815" d="M73 58h1v1h-1zM74 58h1v1h-1zM75 58h1v1h-1zM76 58h1v1h-1zM1 59h1v1H1zM2 59h1v1H2zM3 59h1v1H3zM4 59h1v1H4z"/><path fill="#9CA5AA" d="M5 59h1v1H5z"/><path fill="#D3E5EE" d="M6 59h1v1H6zM7 59h1v1H7zM8 59h1v1H8zM9 59h1v1H9zM10 59h1v1h-1zM11 59h1v1h-1zM12 59h1v1h-1zM13 59h1v1h-1zM14 59h1v1h-1zM15 59h1v1h-1zM16 59h1v1h-1zM17 59h1v1h-1zM18 59h1v1h-1zM19 59h1v1h-1zM20 59h1v1h-1zM21 59h1v1h-1zM22 59h1v1h-1zM23 59h1v1h-1zM24 59h1v1h-1zM25 59h1v1h-1zM26 59h1v1h-1zM27 59h1v1h-1zM28 59h1v1h-1zM29 59h1v1h-1zM30 59h1v1h-1zM31 59h1v1h-1zM32 59h1v1h-1zM33 59h1v1h-1zM34 59h1v1h-1zM35 59h1v1h-1zM36 59h1v1h-1zM37 59h1v1h-1zM38 59h1v1h-1zM39 59h1v1h-1zM40 59h1v1h-1zM41 59h1v1h-1zM42 59h1v1h-1zM43 59h1v1h-1zM44 59h1v1h-1zM45 59h1v1h-1zM46 59h1v1h-1zM47 59h1v1h-1zM48 59h1v1h-1zM49 59h1v1h-1zM50 59h1v1h-1zM51 59h1v1h-1zM52 59h1v1h-1z"/><path fill="#D0E1EA" d="M53 59h1v1h-1z"/><path fill="#ACB1B9" d="M54 59h1v1h-1z"/><path fill="#A6AAB1" d="M55 59h1v1h-1zM56 59h1v1h-1zM57 59h1v1h-1zM58 59h1v1h-1zM59 59h1v1h-1zM60 59h1v1h-1zM61 59h1v1h-1zM62 59h1v1h-1zM63 59h1v1h-1zM64 59h1v1h-1zM65 59h1v1h-1zM66 59h1v1h-1zM67 59h1v1h-1zM68 59h1v1h-1zM69 59h1v1h-1zM70 59h1v1h-1zM71 59h1v1h-1z"/><path fill="#757377" d="M72 59h1v1h-1z"/><path fill="#231815" d="M73 59h1v1h-1zM74 59h1v1h-1zM75 59h1v1h-1zM76 59h1v1h-1zM1 60h1v1H1zM2 60h1v1H2zM3 60h1v1H3zM4 60h1v1H4z"/><path fill="#707274" d="M5 60h1v1H5z"/><path fill="#D3E5EE" d="M6 60h1v1H6zM7 60h1v1H7zM8 60h1v1H8zM9 60h1v1H9zM10 60h1v1h-1zM11 60h1v1h-1zM12 60h1v1h-1zM13 60h1v1h-1zM14 60h1v1h-1zM15 60h1v1h-1zM16 60h1v1h-1zM17 60h1v1h-1zM18 60h1v1h-1zM19 60h1v1h-1zM20 60h1v1h-1zM21 60h1v1h-1zM22 60h1v1h-1zM23 60h1v1h-1zM24 60h1v1h-1zM25 60h1v1h-1zM26 60h1v1h-1zM27 60h1v1h-1zM28 60h1v1h-1zM29 60h1v1h-1zM30 60h1v1h-1zM31 60h1v1h-1zM32 60h1v1h-1zM33 60h1v1h-1zM34 60h1v1h-1zM35 60h1v1h-1zM36 60h1v1h-1zM37 60h1v1h-1zM38 60h1v1h-1zM39 60h1v1h-1zM40 60h1v1h-1zM41 60h1v1h-1zM42 60h1v1h-1zM43 60h1v1h-1zM44 60h1v1h-1zM45 60h1v1h-1zM46 60h1v1h-1zM47 60h1v1h-1zM48 60h1v1h-1zM49 60h1v1h-1zM50 60h1v1h-1zM51 60h1v1h-1zM52 60h1v1h-1z"/><path fill="#BAC4CC" d="M53 60h1v1h-1z"/><path fill="#A6AAB1" d="M54 60h1v1h-1zM55 60h1v1h-1zM56 60h1v1h-1zM57 60h1v1h-1zM58 60h1v1h-1zM59 60h1v1h-1zM60 60h1v1h-1zM61 60h1v1h-1zM62 60h1v1h-1zM63 60h1v1h-1zM64 60h1v1h-1zM65 60h1v1h-1zM66 60h1v1h-1zM67 60h1v1h-1zM68 60h1v1h-1zM69 60h1v1h-1zM70 60h1v1h-1zM71 60h1v1h-1z"/><path fill="#544F50" d="M72 60h1v1h-1z"/><path fill="#231815" d="M73 60h1v1h-1zM74 60h1v1h-1zM75 60h1v1h-1zM76 60h1v1h-1zM1 61h1v1H1zM2 61h1v1H2zM3 61h1v1H3zM4 61h1v1H4z"/><path fill="#393230" d="M5 61h1v1H5z"/><path fill="#D3E5EE" d="M6 61h1v1H6zM7 61h1v1H7zM8 61h1v1H8zM9 61h1v1H9zM10 61h1v1h-1zM11 61h1v1h-1zM12 61h1v1h-1zM13 61h1v1h-1zM14 61h1v1h-1zM15 61h1v1h-1zM16 61h1v1h-1zM17 61h1v1h-1zM18 61h1v1h-1zM19 61h1v1h-1zM20 61h1v1h-1zM21 61h1v1h-1zM22 61h1v1h-1zM23 61h1v1h-1zM24 61h1v1h-1zM25 61h1v1h-1zM26 61h1v1h-1zM27 61h1v1h-1zM28 61h1v1h-1zM29 61h1v1h-1zM30 61h1v1h-1zM31 61h1v1h-1zM32 61h1v1h-1zM33 61h1v1h-1zM34 61h1v1h-1zM35 61h1v1h-1zM36 61h1v1h-1zM37 61h1v1h-1zM38 61h1v1h-1zM39 61h1v1h-1zM40 61h1v1h-1zM41 61h1v1h-1zM42 61h1v1h-1zM43 61h1v1h-1zM44 61h1v1h-1zM45 61h1v1h-1zM46 61h1v1h-1zM47 61h1v1h-1zM48 61h1v1h-1zM49 61h1v1h-1zM50 61h1v1h-1zM51 61h1v1h-1z"/><path fill="#C8D6DF" d="M52 61h1v1h-1z"/><path fill="#A6AAB1" d="M53 61h1v1h-1zM54 61h1v1h-1zM55 61h1v1h-1zM56 61h1v1h-1zM57 61h1v1h-1zM58 61h1v1h-1zM59 61h1v1h-1zM60 61h1v1h-1zM61 61h1v1h-1zM62 61h1v1h-1zM63 61h1v1h-1zM64 61h1v1h-1zM65 61h1v1h-1zM66 61h1v1h-1zM67 61h1v1h-1zM68 61h1v1h-1zM69 61h1v1h-1zM70 61h1v1h-1zM71 61h1v1h-1z"/><path fill="#2B211F" d="M72 61h1v1h-1z"/><path fill="#231815" d="M73 61h1v1h-1zM74 61h1v1h-1zM75 61h1v1h-1zM76 61h1v1h-1zM2 62h1v1H2zM3 62h1v1H3zM4 62h1v1H4zM5 62h1v1H5z"/><path fill="#B2BFC5" d="M6 62h1v1H6z"/><path fill="#D3E5EE" d="M7 62h1v1H7zM8 62h1v1H8zM9 62h1v1H9zM10 62h1v1h-1zM11 62h1v1h-1zM12 62h1v1h-1zM13 62h1v1h-1zM14 62h1v1h-1zM15 62h1v1h-1zM16 62h1v1h-1zM17 62h1v1h-1zM18 62h1v1h-1zM19 62h1v1h-1zM20 62h1v1h-1zM21 62h1v1h-1zM22 62h1v1h-1zM23 62h1v1h-1zM24 62h1v1h-1zM25 62h1v1h-1zM26 62h1v1h-1zM27 62h1v1h-1zM28 62h1v1h-1zM29 62h1v1h-1zM30 62h1v1h-1zM31 62h1v1h-1zM32 62h1v1h-1zM33 62h1v1h-1zM34 62h1v1h-1zM35 62h1v1h-1zM36 62h1v1h-1zM37 62h1v1h-1zM38 62h1v1h-1zM39 62h1v1h-1zM40 62h1v1h-1zM41 62h1v1h-1zM42 62h1v1h-1zM43 62h1v1h-1zM44 62h1v1h-1zM45 62h1v1h-1zM46 62h1v1h-1zM47 62h1v1h-1zM48 62h1v1h-1zM49 62h1v1h-1zM50 62h1v1h-1z"/><path fill="#D0E1EA" d="M51 62h1v1h-1z"/><path fill="#ACB1B9" d="M52 62h1v1h-1z"/><path fill="#A6AAB1" d="M53 62h1v1h-1zM54 62h1v1h-1zM55 62h1v1h-1zM56 62h1v1h-1zM57 62h1v1h-1zM58 62h1v1h-1zM59 62h1v1h-1zM60 62h1v1h-1zM61 62h1v1h-1zM62 62h1v1h-1zM63 62h1v1h-1zM64 62h1v1h-1zM65 62h1v1h-1zM66 62h1v1h-1zM67 62h1v1h-1zM68 62h1v1h-1zM69 62h1v1h-1zM70 62h1v1h-1z"/><path fill="#7D7C80" d="M71 62h1v1h-1z"/><path fill="#231815" d="M72 62h1v1h-1zM73 62h1v1h-1zM74 62h1v1h-1zM75 62h1v1h-1zM2 63h1v1H2zM3 63h1v1H3zM4 63h1v1H4zM5 63h1v1H5z"/><path fill="#656566" d="M6 63h1v1H6z"/><path fill="#D3E5EE" d="M7 63h1v1H7zM8 63h1v1H8zM9 63h1v1H9zM10 63h1v1h-1zM11 63h1v1h-1zM12 63h1v1h-1zM13 63h1v1h-1zM14 63h1v1h-1zM15 63h1v1h-1zM16 63h1v1h-1zM17 63h1v1h-1zM18 63h1v1h-1zM19 63h1v1h-1zM20 63h1v1h-1zM21 63h1v1h-1zM22 63h1v1h-1zM23 63h1v1h-1zM24 63h1v1h-1zM25 63h1v1h-1zM26 63h1v1h-1zM27 63h1v1h-1zM28 63h1v1h-1zM29 63h1v1h-1zM30 63h1v1h-1zM31 63h1v1h-1zM32 63h1v1h-1zM33 63h1v1h-1zM34 63h1v1h-1zM35 63h1v1h-1zM36 63h1v1h-1zM37 63h1v1h-1zM38 63h1v1h-1zM39 63h1v1h-1zM40 63h1v1h-1zM41 63h1v1h-1zM42 63h1v1h-1zM43 63h1v1h-1zM44 63h1v1h-1zM45 63h1v1h-1zM46 63h1v1h-1zM47 63h1v1h-1zM48 63h1v1h-1zM49 63h1v1h-1zM50 63h1v1h-1z"/><path fill="#B4BCC4" d="M51 63h1v1h-1z"/><path fill="#A6AAB1" d="M52 63h1v1h-1zM53 63h1v1h-1zM54 63h1v1h-1zM55 63h1v1h-1zM56 63h1v1h-1zM57 63h1v1h-1zM58 63h1v1h-1zM59 63h1v1h-1zM60 63h1v1h-1zM61 63h1v1h-1zM62 63h1v1h-1zM63 63h1v1h-1zM64 63h1v1h-1zM65 63h1v1h-1zM66 63h1v1h-1zM67 63h1v1h-1zM68 63h1v1h-1zM69 63h1v1h-1zM70 63h1v1h-1z"/><path fill="#544F50" d="M71 63h1v1h-1z"/><path fill="#231815" d="M72 63h1v1h-1zM73 63h1v1h-1zM74 63h1v1h-1zM75 63h1v1h-1zM2 64h1v1H2zM3 64h1v1H3zM4 64h1v1H4zM5 64h1v1H5z"/><path fill="#2E2523" d="M6 64h1v1H6z"/><path fill="#C8D8E0" d="M7 64h1v1H7z"/><path fill="#D3E5EE" d="M8 64h1v1H8zM9 64h1v1H9zM10 64h1v1h-1zM11 64h1v1h-1zM12 64h1v1h-1zM13 64h1v1h-1zM14 64h1v1h-1zM15 64h1v1h-1zM16 64h1v1h-1zM17 64h1v1h-1zM18 64h1v1h-1zM19 64h1v1h-1zM20 64h1v1h-1zM21 64h1v1h-1zM22 64h1v1h-1zM23 64h1v1h-1zM24 64h1v1h-1zM25 64h1v1h-1zM26 64h1v1h-1zM27 64h1v1h-1zM28 64h1v1h-1zM29 64h1v1h-1zM30 64h1v1h-1zM31 64h1v1h-1zM32 64h1v1h-1zM33 64h1v1h-1zM34 64h1v1h-1zM35 64h1v1h-1zM36 64h1v1h-1zM37 64h1v1h-1zM38 64h1v1h-1zM39 64h1v1h-1zM40 64h1v1h-1zM41 64h1v1h-1zM42 64h1v1h-1zM43 64h1v1h-1zM44 64h1v1h-1zM45 64h1v1h-1zM46 64h1v1h-1zM47 64h1v1h-1zM48 64h1v1h-1zM49 64h1v1h-1z"/><path fill="#BDC8D0" d="M50 64h1v1h-1z"/><path fill="#A6AAB1" d="M51 64h1v1h-1zM52 64h1v1h-1zM53 64h1v1h-1zM54 64h1v1h-1zM55 64h1v1h-1zM56 64h1v1h-1zM57 64h1v1h-1zM58 64h1v1h-1zM59 64h1v1h-1zM60 64h1v1h-1zM61 64h1v1h-1zM62 64h1v1h-1zM63 64h1v1h-1zM64 64h1v1h-1zM65 64h1v1h-1zM66 64h1v1h-1zM67 64h1v1h-1zM68 64h1v1h-1zM69 64h1v1h-1z"/><path fill="#9EA1A7" d="M70 64h1v1h-1z"/><path fill="#231815" d="M71 64h1v1h-1zM72 64h1v1h-1zM73 64h1v1h-1zM74 64h1v1h-1zM75 64h1v1h-1zM3 65h1v1H3zM4 65h1v1H4zM5 65h1v1H5zM6 65h1v1H6z"/><path fill="#868B8F" d="M7 65h1v1H7z"/><path fill="#D3E5EE" d="M8 65h1v1H8zM9 65h1v1H9zM10 65h1v1h-1zM11 65h1v1h-1zM12 65h1v1h-1zM13 65h1v1h-1zM14 65h1v1h-1zM15 65h1v1h-1zM16 65h1v1h-1zM17 65h1v1h-1zM18 65h1v1h-1zM19 65h1v1h-1zM20 65h1v1h-1zM21 65h1v1h-1zM22 65h1v1h-1zM23 65h1v1h-1zM24 65h1v1h-1zM25 65h1v1h-1zM26 65h1v1h-1zM27 65h1v1h-1zM28 65h1v1h-1zM29 65h1v1h-1zM30 65h1v1h-1zM31 65h1v1h-1zM32 65h1v1h-1zM33 65h1v1h-1zM34 65h1v1h-1zM35 65h1v1h-1zM36 65h1v1h-1zM37 65h1v1h-1zM38 65h1v1h-1zM39 65h1v1h-1zM40 65h1v1h-1zM41 65h1v1h-1zM42 65h1v1h-1zM43 65h1v1h-1zM44 65h1v1h-1zM45 65h1v1h-1zM46 65h1v1h-1zM47 65h1v1h-1zM48 65h1v1h-1z"/><path fill="#C2CFD7" d="M49 65h1v1h-1z"/><path fill="#A6AAB1" d="M50 65h1v1h-1zM51 65h1v1h-1zM52 65h1v1h-1zM53 65h1v1h-1zM54 65h1v1h-1zM55 65h1v1h-1zM56 65h1v1h-1zM57 65h1v1h-1zM58 65h1v1h-1zM59 65h1v1h-1zM60 65h1v1h-1zM61 65h1v1h-1zM62 65h1v1h-1zM63 65h1v1h-1zM64 65h1v1h-1zM65 65h1v1h-1zM66 65h1v1h-1zM67 65h1v1h-1zM68 65h1v1h-1zM69 65h1v1h-1z"/><path fill="#656163" d="M70 65h1v1h-1z"/><path fill="#231815" d="M71 65h1v1h-1zM72 65h1v1h-1zM73 65h1v1h-1zM74 65h1v1h-1zM3 66h1v1H3zM4 66h1v1H4zM5 66h1v1H5zM6 66h1v1H6z"/><path fill="#393230" d="M7 66h1v1H7z"/><path fill="#D3E5EE" d="M8 66h1v1H8zM9 66h1v1H9zM10 66h1v1h-1zM11 66h1v1h-1zM12 66h1v1h-1zM13 66h1v1h-1zM14 66h1v1h-1zM15 66h1v1h-1zM16 66h1v1h-1zM17 66h1v1h-1zM18 66h1v1h-1zM19 66h1v1h-1zM20 66h1v1h-1zM21 66h1v1h-1zM22 66h1v1h-1zM23 66h1v1h-1zM24 66h1v1h-1zM25 66h1v1h-1zM26 66h1v1h-1zM27 66h1v1h-1zM28 66h1v1h-1zM29 66h1v1h-1zM30 66h1v1h-1zM31 66h1v1h-1zM32 66h1v1h-1zM33 66h1v1h-1zM34 66h1v1h-1zM35 66h1v1h-1zM36 66h1v1h-1zM37 66h1v1h-1zM38 66h1v1h-1zM39 66h1v1h-1zM40 66h1v1h-1zM41 66h1v1h-1zM42 66h1v1h-1zM43 66h1v1h-1zM44 66h1v1h-1zM45 66h1v1h-1zM46 66h1v1h-1zM47 66h1v1h-1z"/><path fill="#CBDAE3" d="M48 66h1v1h-1z"/><path fill="#A6AAB1" d="M49 66h1v1h-1zM50 66h1v1h-1zM51 66h1v1h-1zM52 66h1v1h-1zM53 66h1v1h-1zM54 66h1v1h-1zM55 66h1v1h-1zM56 66h1v1h-1zM57 66h1v1h-1zM58 66h1v1h-1zM59 66h1v1h-1zM60 66h1v1h-1zM61 66h1v1h-1zM62 66h1v1h-1zM63 66h1v1h-1zM64 66h1v1h-1zM65 66h1v1h-1zM66 66h1v1h-1zM67 66h1v1h-1zM68 66h1v1h-1z"/><path fill="#9EA1A7" d="M69 66h1v1h-1z"/><path fill="#2B211F" d="M70 66h1v1h-1z"/><path fill="#231815" d="M71 66h1v1h-1zM72 66h1v1h-1zM73 66h1v1h-1zM74 66h1v1h-1zM4 67h1v1H4zM5 67h1v1H5zM6 67h1v1H6zM7 67h1v1H7z"/><path fill="#868B8F" d="M8 67h1v1H8z"/><path fill="#D3E5EE" d="M9 67h1v1H9zM10 67h1v1h-1zM11 67h1v1h-1zM12 67h1v1h-1zM13 67h1v1h-1zM14 67h1v1h-1zM15 67h1v1h-1zM16 67h1v1h-1zM17 67h1v1h-1zM18 67h1v1h-1zM19 67h1v1h-1zM20 67h1v1h-1zM21 67h1v1h-1zM22 67h1v1h-1zM23 67h1v1h-1zM24 67h1v1h-1zM25 67h1v1h-1zM26 67h1v1h-1zM27 67h1v1h-1zM28 67h1v1h-1zM29 67h1v1h-1zM30 67h1v1h-1zM31 67h1v1h-1zM32 67h1v1h-1zM33 67h1v1h-1zM34 67h1v1h-1zM35 67h1v1h-1zM36 67h1v1h-1zM37 67h1v1h-1zM38 67h1v1h-1zM39 67h1v1h-1zM40 67h1v1h-1zM41 67h1v1h-1zM42 67h1v1h-1zM43 67h1v1h-1zM44 67h1v1h-1zM45 67h1v1h-1zM46 67h1v1h-1z"/><path fill="#CBDAE3" d="M47 67h1v1h-1z"/><path fill="#A9AEB5" d="M48 67h1v1h-1z"/><path fill="#A6AAB1" d="M49 67h1v1h-1zM50 67h1v1h-1zM51 67h1v1h-1zM52 67h1v1h-1zM53 67h1v1h-1zM54 67h1v1h-1zM55 67h1v1h-1zM56 67h1v1h-1zM57 67h1v1h-1zM58 67h1v1h-1zM59 67h1v1h-1zM60 67h1v1h-1zM61 67h1v1h-1zM62 67h1v1h-1zM63 67h1v1h-1zM64 67h1v1h-1zM65 67h1v1h-1zM66 67h1v1h-1zM67 67h1v1h-1zM68 67h1v1h-1z"/><path fill="#656163" d="M69 67h1v1h-1z"/><path fill="#231815" d="M70 67h1v1h-1zM71 67h1v1h-1zM72 67h1v1h-1zM73 67h1v1h-1zM4 68h1v1H4zM5 68h1v1H5zM6 68h1v1H6zM7 68h1v1H7z"/><path fill="#2E2523" d="M8 68h1v1H8z"/><path fill="#C8D8E0" d="M9 68h1v1H9z"/><path fill="#D3E5EE" d="M10 68h1v1h-1zM11 68h1v1h-1zM12 68h1v1h-1zM13 68h1v1h-1zM14 68h1v1h-1zM15 68h1v1h-1zM16 68h1v1h-1zM17 68h1v1h-1zM18 68h1v1h-1zM19 68h1v1h-1zM20 68h1v1h-1zM21 68h1v1h-1zM22 68h1v1h-1zM23 68h1v1h-1zM24 68h1v1h-1zM25 68h1v1h-1zM26 68h1v1h-1zM27 68h1v1h-1zM28 68h1v1h-1zM29 68h1v1h-1zM30 68h1v1h-1zM31 68h1v1h-1zM32 68h1v1h-1zM33 68h1v1h-1zM34 68h1v1h-1zM35 68h1v1h-1zM36 68h1v1h-1zM37 68h1v1h-1zM38 68h1v1h-1zM39 68h1v1h-1zM40 68h1v1h-1zM41 68h1v1h-1zM42 68h1v1h-1zM43 68h1v1h-1zM44 68h1v1h-1zM45 68h1v1h-1z"/><path fill="#C8D6DF" d="M46 68h1v1h-1z"/><path fill="#A9AEB5" d="M47 68h1v1h-1z"/><path fill="#A6AAB1" d="M48 68h1v1h-1zM49 68h1v1h-1zM50 68h1v1h-1zM51 68h1v1h-1zM52 68h1v1h-1zM53 68h1v1h-1zM54 68h1v1h-1zM55 68h1v1h-1zM56 68h1v1h-1zM57 68h1v1h-1zM58 68h1v1h-1zM59 68h1v1h-1zM60 68h1v1h-1zM61 68h1v1h-1zM62 68h1v1h-1zM63 68h1v1h-1zM64 68h1v1h-1zM65 68h1v1h-1zM66 68h1v1h-1zM67 68h1v1h-1z"/><path fill="#9EA1A7" d="M68 68h1v1h-1z"/><path fill="#2B211F" d="M69 68h1v1h-1z"/><path fill="#231815" d="M70 68h1v1h-1zM71 68h1v1h-1zM72 68h1v1h-1zM73 68h1v1h-1zM5 69h1v1H5zM6 69h1v1H6zM7 69h1v1H7zM8 69h1v1H8z"/><path fill="#656566" d="M9 69h1v1H9z"/><path fill="#D3E5EE" d="M10 69h1v1h-1zM11 69h1v1h-1zM12 69h1v1h-1zM13 69h1v1h-1zM14 69h1v1h-1zM15 69h1v1h-1zM16 69h1v1h-1zM17 69h1v1h-1zM18 69h1v1h-1zM19 69h1v1h-1zM20 69h1v1h-1zM21 69h1v1h-1zM22 69h1v1h-1zM23 69h1v1h-1zM24 69h1v1h-1zM25 69h1v1h-1zM26 69h1v1h-1zM27 69h1v1h-1zM28 69h1v1h-1zM29 69h1v1h-1zM30 69h1v1h-1zM31 69h1v1h-1zM32 69h1v1h-1zM33 69h1v1h-1zM34 69h1v1h-1zM35 69h1v1h-1zM36 69h1v1h-1zM37 69h1v1h-1zM38 69h1v1h-1zM39 69h1v1h-1zM40 69h1v1h-1zM41 69h1v1h-1zM42 69h1v1h-1zM43 69h1v1h-1zM44 69h1v1h-1z"/><path fill="#C2CFD7" d="M45 69h1v1h-1z"/><path fill="#A6AAB1" d="M46 69h1v1h-1zM47 69h1v1h-1zM48 69h1v1h-1zM49 69h1v1h-1zM50 69h1v1h-1zM51 69h1v1h-1zM52 69h1v1h-1zM53 69h1v1h-1zM54 69h1v1h-1zM55 69h1v1h-1zM56 69h1v1h-1zM57 69h1v1h-1zM58 69h1v1h-1zM59 69h1v1h-1zM60 69h1v1h-1zM61 69h1v1h-1zM62 69h1v1h-1zM63 69h1v1h-1zM64 69h1v1h-1zM65 69h1v1h-1zM66 69h1v1h-1zM67 69h1v1h-1z"/><path fill="#4C4646" d="M68 69h1v1h-1z"/><path fill="#231815" d="M69 69h1v1h-1zM70 69h1v1h-1zM71 69h1v1h-1zM72 69h1v1h-1zM5 70h1v1H5zM6 70h1v1H6zM7 70h1v1H7zM8 70h1v1H8zM9 70h1v1H9z"/><path fill="#A7B2B8" d="M10 70h1v1h-1z"/><path fill="#D3E5EE" d="M11 70h1v1h-1zM12 70h1v1h-1zM13 70h1v1h-1zM14 70h1v1h-1zM15 70h1v1h-1zM16 70h1v1h-1zM17 70h1v1h-1zM18 70h1v1h-1zM19 70h1v1h-1zM20 70h1v1h-1zM21 70h1v1h-1zM22 70h1v1h-1zM23 70h1v1h-1zM24 70h1v1h-1zM25 70h1v1h-1zM26 70h1v1h-1zM27 70h1v1h-1zM28 70h1v1h-1zM29 70h1v1h-1zM30 70h1v1h-1zM31 70h1v1h-1zM32 70h1v1h-1zM33 70h1v1h-1zM34 70h1v1h-1zM35 70h1v1h-1zM36 70h1v1h-1zM37 70h1v1h-1zM38 70h1v1h-1zM39 70h1v1h-1zM40 70h1v1h-1zM41 70h1v1h-1zM42 70h1v1h-1zM43 70h1v1h-1z"/><path fill="#BAC4CC" d="M44 70h1v1h-1z"/><path fill="#A6AAB1" d="M45 70h1v1h-1zM46 70h1v1h-1zM47 70h1v1h-1zM48 70h1v1h-1zM49 70h1v1h-1zM50 70h1v1h-1zM51 70h1v1h-1zM52 70h1v1h-1zM53 70h1v1h-1zM54 70h1v1h-1zM55 70h1v1h-1zM56 70h1v1h-1zM57 70h1v1h-1zM58 70h1v1h-1zM59 70h1v1h-1zM60 70h1v1h-1zM61 70h1v1h-1zM62 70h1v1h-1zM63 70h1v1h-1zM64 70h1v1h-1zM65 70h1v1h-1zM66 70h1v1h-1z"/><path fill="#7D7C80" d="M67 70h1v1h-1z"/><path fill="#231815" d="M68 70h1v1h-1zM69 70h1v1h-1zM70 70h1v1h-1zM71 70h1v1h-1zM72 70h1v1h-1zM6 71h1v1H6zM7 71h1v1H7zM8 71h1v1H8zM9 71h1v1H9z"/><path fill="#2E2523" d="M10 71h1v1h-1z"/><path fill="#C8D8E0" d="M11 71h1v1h-1z"/><path fill="#D3E5EE" d="M12 71h1v1h-1zM13 71h1v1h-1zM14 71h1v1h-1zM15 71h1v1h-1zM16 71h1v1h-1zM17 71h1v1h-1zM18 71h1v1h-1zM19 71h1v1h-1zM20 71h1v1h-1zM21 71h1v1h-1zM22 71h1v1h-1zM23 71h1v1h-1zM24 71h1v1h-1zM25 71h1v1h-1zM26 71h1v1h-1zM27 71h1v1h-1zM28 71h1v1h-1zM29 71h1v1h-1zM30 71h1v1h-1zM31 71h1v1h-1zM32 71h1v1h-1zM33 71h1v1h-1zM34 71h1v1h-1zM35 71h1v1h-1zM36 71h1v1h-1zM37 71h1v1h-1zM38 71h1v1h-1zM39 71h1v1h-1zM40 71h1v1h-1zM41 71h1v1h-1z"/><path fill="#CDDEE6" d="M42 71h1v1h-1z"/><path fill="#AEB5BC" d="M43 71h1v1h-1z"/><path fill="#A6AAB1" d="M44 71h1v1h-1zM45 71h1v1h-1zM46 71h1v1h-1zM47 71h1v1h-1zM48 71h1v1h-1zM49 71h1v1h-1zM50 71h1v1h-1zM51 71h1v1h-1zM52 71h1v1h-1zM53 71h1v1h-1zM54 71h1v1h-1zM55 71h1v1h-1zM56 71h1v1h-1zM57 71h1v1h-1zM58 71h1v1h-1zM59 71h1v1h-1zM60 71h1v1h-1zM61 71h1v1h-1zM62 71h1v1h-1zM63 71h1v1h-1zM64 71h1v1h-1zM65 71h1v1h-1z"/><path fill="#9EA1A7" d="M66 71h1v1h-1z"/><path fill="#2B211F" d="M67 71h1v1h-1z"/><path fill="#231815" d="M68 71h1v1h-1zM69 71h1v1h-1zM70 71h1v1h-1zM71 71h1v1h-1zM6 72h1v1H6zM7 72h1v1H7zM8 72h1v1H8zM9 72h1v1H9zM10 72h1v1h-1z"/><path fill="#4F4B4B" d="M11 72h1v1h-1z"/><path fill="#D3E5EE" d="M12 72h1v1h-1zM13 72h1v1h-1zM14 72h1v1h-1zM15 72h1v1h-1zM16 72h1v1h-1zM17 72h1v1h-1zM18 72h1v1h-1zM19 72h1v1h-1zM20 72h1v1h-1zM21 72h1v1h-1zM22 72h1v1h-1zM23 72h1v1h-1zM24 72h1v1h-1zM25 72h1v1h-1zM26 72h1v1h-1zM27 72h1v1h-1zM28 72h1v1h-1zM29 72h1v1h-1zM30 72h1v1h-1zM31 72h1v1h-1zM32 72h1v1h-1zM33 72h1v1h-1zM34 72h1v1h-1zM35 72h1v1h-1zM36 72h1v1h-1zM37 72h1v1h-1zM38 72h1v1h-1zM39 72h1v1h-1zM40 72h1v1h-1z"/><path fill="#BFCBD3" d="M41 72h1v1h-1z"/><path fill="#A9AEB5" d="M42 72h1v1h-1z"/><path fill="#A6AAB1" d="M43 72h1v1h-1zM44 72h1v1h-1zM45 72h1v1h-1zM46 72h1v1h-1zM47 72h1v1h-1zM48 72h1v1h-1zM49 72h1v1h-1zM50 72h1v1h-1zM51 72h1v1h-1zM52 72h1v1h-1zM53 72h1v1h-1zM54 72h1v1h-1zM55 72h1v1h-1zM56 72h1v1h-1zM57 72h1v1h-1zM58 72h1v1h-1zM59 72h1v1h-1zM60 72h1v1h-1zM61 72h1v1h-1zM62 72h1v1h-1zM63 72h1v1h-1zM64 72h1v1h-1zM65 72h1v1h-1z"/><path fill="#3C3332" d="M66 72h1v1h-1z"/><path fill="#231815" d="M67 72h1v1h-1zM68 72h1v1h-1zM69 72h1v1h-1zM70 72h1v1h-1zM71 72h1v1h-1zM7 73h1v1H7zM8 73h1v1H8zM9 73h1v1H9zM10 73h1v1h-1zM11 73h1v1h-1z"/><path fill="#656566" d="M12 73h1v1h-1z"/><path fill="#D3E5EE" d="M13 73h1v1h-1zM14 73h1v1h-1zM15 73h1v1h-1zM16 73h1v1h-1zM17 73h1v1h-1zM18 73h1v1h-1zM19 73h1v1h-1zM20 73h1v1h-1zM21 73h1v1h-1zM22 73h1v1h-1zM23 73h1v1h-1zM24 73h1v1h-1zM25 73h1v1h-1zM26 73h1v1h-1zM27 73h1v1h-1zM28 73h1v1h-1zM29 73h1v1h-1zM30 73h1v1h-1zM31 73h1v1h-1zM32 73h1v1h-1zM33 73h1v1h-1zM34 73h1v1h-1zM35 73h1v1h-1zM36 73h1v1h-1zM37 73h1v1h-1zM38 73h1v1h-1z"/><path fill="#C8D6DF" d="M39 73h1v1h-1z"/><path fill="#AEB5BC" d="M40 73h1v1h-1z"/><path fill="#A6AAB1" d="M41 73h1v1h-1zM42 73h1v1h-1zM43 73h1v1h-1zM44 73h1v1h-1zM45 73h1v1h-1zM46 73h1v1h-1zM47 73h1v1h-1zM48 73h1v1h-1zM49 73h1v1h-1zM50 73h1v1h-1zM51 73h1v1h-1zM52 73h1v1h-1zM53 73h1v1h-1zM54 73h1v1h-1zM55 73h1v1h-1zM56 73h1v1h-1zM57 73h1v1h-1zM58 73h1v1h-1zM59 73h1v1h-1zM60 73h1v1h-1zM61 73h1v1h-1zM62 73h1v1h-1zM63 73h1v1h-1zM64 73h1v1h-1z"/><path fill="#544F50" d="M65 73h1v1h-1z"/><path fill="#231815" d="M66 73h1v1h-1zM67 73h1v1h-1zM68 73h1v1h-1zM69 73h1v1h-1zM70 73h1v1h-1zM8 74h1v1H8zM9 74h1v1H9zM10 74h1v1h-1zM11 74h1v1h-1zM12 74h1v1h-1z"/><path fill="#91989D" d="M13 74h1v1h-1z"/><path fill="#D3E5EE" d="M14 74h1v1h-1zM15 74h1v1h-1zM16 74h1v1h-1zM17 74h1v1h-1zM18 74h1v1h-1zM19 74h1v1h-1zM20 74h1v1h-1zM21 74h1v1h-1zM22 74h1v1h-1zM23 74h1v1h-1zM24 74h1v1h-1zM25 74h1v1h-1zM26 74h1v1h-1zM27 74h1v1h-1zM28 74h1v1h-1zM29 74h1v1h-1zM30 74h1v1h-1zM31 74h1v1h-1zM32 74h1v1h-1zM33 74h1v1h-1zM34 74h1v1h-1zM35 74h1v1h-1zM36 74h1v1h-1z"/><path fill="#C8D6DF" d="M37 74h1v1h-1z"/><path fill="#B1B9C0" d="M38 74h1v1h-1z"/><path fill="#A6AAB1" d="M39 74h1v1h-1zM40 74h1v1h-1zM41 74h1v1h-1zM42 74h1v1h-1zM43 74h1v1h-1zM44 74h1v1h-1zM45 74h1v1h-1zM46 74h1v1h-1zM47 74h1v1h-1zM48 74h1v1h-1zM49 74h1v1h-1zM50 74h1v1h-1zM51 74h1v1h-1zM52 74h1v1h-1zM53 74h1v1h-1zM54 74h1v1h-1zM55 74h1v1h-1zM56 74h1v1h-1zM57 74h1v1h-1zM58 74h1v1h-1zM59 74h1v1h-1zM60 74h1v1h-1zM61 74h1v1h-1zM62 74h1v1h-1zM63 74h1v1h-1z"/><path fill="#6D6A6D" d="M64 74h1v1h-1z"/><path fill="#231815" d="M65 74h1v1h-1zM66 74h1v1h-1zM67 74h1v1h-1zM68 74h1v1h-1zM69 74h1v1h-1zM9 75h1v1H9zM10 75h1v1h-1zM11 75h1v1h-1zM12 75h1v1h-1zM13 75h1v1h-1z"/><path fill="#91989D" d="M14 75h1v1h-1z"/><path fill="#D3E5EE" d="M15 75h1v1h-1zM16 75h1v1h-1zM17 75h1v1h-1zM18 75h1v1h-1zM19 75h1v1h-1zM20 75h1v1h-1zM21 75h1v1h-1zM22 75h1v1h-1zM23 75h1v1h-1zM24 75h1v1h-1zM25 75h1v1h-1zM26 75h1v1h-1zM27 75h1v1h-1zM28 75h1v1h-1zM29 75h1v1h-1zM30 75h1v1h-1zM31 75h1v1h-1zM32 75h1v1h-1zM33 75h1v1h-1z"/><path fill="#D0E1EA" d="M34 75h1v1h-1z"/><path fill="#C2CFD7" d="M35 75h1v1h-1z"/><path fill="#AEB5BC" d="M36 75h1v1h-1z"/><path fill="#A6AAB1" d="M37 75h1v1h-1zM38 75h1v1h-1zM39 75h1v1h-1zM40 75h1v1h-1zM41 75h1v1h-1zM42 75h1v1h-1zM43 75h1v1h-1zM44 75h1v1h-1zM45 75h1v1h-1zM46 75h1v1h-1zM47 75h1v1h-1zM48 75h1v1h-1zM49 75h1v1h-1zM50 75h1v1h-1zM51 75h1v1h-1zM52 75h1v1h-1zM53 75h1v1h-1zM54 75h1v1h-1zM55 75h1v1h-1zM56 75h1v1h-1zM57 75h1v1h-1zM58 75h1v1h-1zM59 75h1v1h-1zM60 75h1v1h-1zM61 75h1v1h-1zM62 75h1v1h-1z"/><path fill="#757377" d="M63 75h1v1h-1z"/><path fill="#231815" d="M64 75h1v1h-1zM65 75h1v1h-1zM66 75h1v1h-1zM67 75h1v1h-1zM68 75h1v1h-1zM9 76h1v1H9zM10 76h1v1h-1zM11 76h1v1h-1zM12 76h1v1h-1zM13 76h1v1h-1zM14 76h1v1h-1z"/><path fill="#91989D" d="M15 76h1v1h-1z"/><path fill="#D3E5EE" d="M16 76h1v1h-1zM17 76h1v1h-1zM18 76h1v1h-1zM19 76h1v1h-1zM20 76h1v1h-1zM21 76h1v1h-1zM22 76h1v1h-1zM23 76h1v1h-1zM24 76h1v1h-1zM25 76h1v1h-1zM26 76h1v1h-1zM27 76h1v1h-1zM28 76h1v1h-1zM29 76h1v1h-1zM30 76h1v1h-1z"/><path fill="#CBDAE3" d="M31 76h1v1h-1z"/><path fill="#BFCBD3" d="M32 76h1v1h-1z"/><path fill="#B4BCC4" d="M33 76h1v1h-1z"/><path fill="#A6AAB1" d="M34 76h1v1h-1zM35 76h1v1h-1zM36 76h1v1h-1zM37 76h1v1h-1zM38 76h1v1h-1zM39 76h1v1h-1zM40 76h1v1h-1zM41 76h1v1h-1zM42 76h1v1h-1zM43 76h1v1h-1zM44 76h1v1h-1zM45 76h1v1h-1zM46 76h1v1h-1zM47 76h1v1h-1zM48 76h1v1h-1zM49 76h1v1h-1zM50 76h1v1h-1zM51 76h1v1h-1zM52 76h1v1h-1zM53 76h1v1h-1zM54 76h1v1h-1zM55 76h1v1h-1zM56 76h1v1h-1zM57 76h1v1h-1zM58 76h1v1h-1zM59 76h1v1h-1zM60 76h1v1h-1zM61 76h1v1h-1z"/><path fill="#6D6A6D" d="M62 76h1v1h-1z"/><path fill="#231815" d="M63 76h1v1h-1zM64 76h1v1h-1zM65 76h1v1h-1zM66 76h1v1h-1zM67 76h1v1h-1zM68 76h1v1h-1zM10 77h1v1h-1zM11 77h1v1h-1zM12 77h1v1h-1zM13 77h1v1h-1zM14 77h1v1h-1zM15 77h1v1h-1z"/><path fill="#5F5C5D" d="M16 77h1v1h-1z"/><path fill="#B1B9C0" d="M17 77h1v1h-1z"/><path fill="#BDC8D0" d="M18 77h1v1h-1zM19 77h1v1h-1z"/><path fill="#C8D6DF" d="M20 77h1v1h-1zM21 77h1v1h-1zM22 77h1v1h-1zM23 77h1v1h-1zM24 77h1v1h-1zM25 77h1v1h-1zM26 77h1v1h-1z"/><path fill="#BDC8D0" d="M27 77h1v1h-1zM28 77h1v1h-1z"/><path fill="#B1B9C0" d="M29 77h1v1h-1z"/><path fill="#A9AEB5" d="M30 77h1v1h-1z"/><path fill="#A6AAB1" d="M31 77h1v1h-1zM32 77h1v1h-1zM33 77h1v1h-1zM34 77h1v1h-1zM35 77h1v1h-1zM36 77h1v1h-1zM37 77h1v1h-1zM38 77h1v1h-1zM39 77h1v1h-1zM40 77h1v1h-1zM41 77h1v1h-1zM42 77h1v1h-1zM43 77h1v1h-1zM44 77h1v1h-1zM45 77h1v1h-1zM46 77h1v1h-1zM47 77h1v1h-1zM48 77h1v1h-1zM49 77h1v1h-1zM50 77h1v1h-1zM51 77h1v1h-1zM52 77h1v1h-1zM53 77h1v1h-1zM54 77h1v1h-1zM55 77h1v1h-1zM56 77h1v1h-1zM57 77h1v1h-1zM58 77h1v1h-1zM59 77h1v1h-1zM60 77h1v1h-1z"/><path fill="#544F50" d="M61 77h1v1h-1z"/><path fill="#231815" d="M62 77h1v1h-1zM63 77h1v1h-1zM64 77h1v1h-1zM65 77h1v1h-1zM66 77h1v1h-1zM67 77h1v1h-1zM11 78h1v1h-1zM12 78h1v1h-1zM13 78h1v1h-1zM14 78h1v1h-1zM15 78h1v1h-1zM16 78h1v1h-1z"/><path fill="#4C4646" d="M17 78h1v1h-1z"/><path fill="#9EA1A7" d="M18 78h1v1h-1z"/><path fill="#A6AAB1" d="M19 78h1v1h-1zM20 78h1v1h-1zM21 78h1v1h-1zM22 78h1v1h-1zM23 78h1v1h-1zM24 78h1v1h-1zM25 78h1v1h-1zM26 78h1v1h-1zM27 78h1v1h-1zM28 78h1v1h-1zM29 78h1v1h-1zM30 78h1v1h-1zM31 78h1v1h-1zM32 78h1v1h-1zM33 78h1v1h-1zM34 78h1v1h-1zM35 78h1v1h-1zM36 78h1v1h-1zM37 78h1v1h-1zM38 78h1v1h-1zM39 78h1v1h-1zM40 78h1v1h-1zM41 78h1v1h-1zM42 78h1v1h-1zM43 78h1v1h-1zM44 78h1v1h-1zM45 78h1v1h-1zM46 78h1v1h-1zM47 78h1v1h-1zM48 78h1v1h-1zM49 78h1v1h-1zM50 78h1v1h-1zM51 78h1v1h-1zM52 78h1v1h-1zM53 78h1v1h-1zM54 78h1v1h-1zM55 78h1v1h-1zM56 78h1v1h-1zM57 78h1v1h-1zM58 78h1v1h-1z"/><path fill="#9EA1A7" d="M59 78h1v1h-1z"/><path fill="#443D3C" d="M60 78h1v1h-1z"/><path fill="#231815" d="M61 78h1v1h-1zM62 78h1v1h-1zM63 78h1v1h-1zM64 78h1v1h-1zM65 78h1v1h-1zM66 78h1v1h-1zM12 79h1v1h-1zM13 79h1v1h-1zM14 79h1v1h-1zM15 79h1v1h-1zM16 79h1v1h-1zM17 79h1v1h-1z"/><path fill="#332A29" d="M18 79h1v1h-1z"/><path fill="#85868A" d="M19 79h1v1h-1z"/><path fill="#A6AAB1" d="M20 79h1v1h-1zM21 79h1v1h-1zM22 79h1v1h-1zM23 79h1v1h-1zM24 79h1v1h-1zM25 79h1v1h-1zM26 79h1v1h-1zM27 79h1v1h-1zM28 79h1v1h-1zM29 79h1v1h-1zM30 79h1v1h-1zM31 79h1v1h-1zM32 79h1v1h-1zM33 79h1v1h-1zM34 79h1v1h-1zM35 79h1v1h-1zM36 79h1v1h-1zM37 79h1v1h-1zM38 79h1v1h-1zM39 79h1v1h-1zM40 79h1v1h-1zM41 79h1v1h-1zM42 79h1v1h-1zM43 79h1v1h-1zM44 79h1v1h-1zM45 79h1v1h-1zM46 79h1v1h-1zM47 79h1v1h-1zM48 79h1v1h-1zM49 79h1v1h-1zM50 79h1v1h-1zM51 79h1v1h-1zM52 79h1v1h-1zM53 79h1v1h-1zM54 79h1v1h-1zM55 79h1v1h-1zM56 79h1v1h-1zM57 79h1v1h-1z"/><path fill="#7D7C80" d="M58 79h1v1h-1z"/><path fill="#2B211F" d="M59 79h1v1h-1z"/><path fill="#231815" d="M60 79h1v1h-1zM61 79h1v1h-1zM62 79h1v1h-1zM63 79h1v1h-1zM64 79h1v1h-1zM65 79h1v1h-1zM13 80h1v1h-1zM14 80h1v1h-1zM15 80h1v1h-1zM16 80h1v1h-1zM17 80h1v1h-1zM18 80h1v1h-1zM19 80h1v1h-1z"/><path fill="#5C5859" d="M20 80h1v1h-1z"/><path fill="#9EA1A7" d="M21 80h1v1h-1z"/><path fill="#A6AAB1" d="M22 80h1v1h-1zM23 80h1v1h-1zM24 80h1v1h-1zM25 80h1v1h-1zM26 80h1v1h-1zM27 80h1v1h-1zM28 80h1v1h-1zM29 80h1v1h-1zM30 80h1v1h-1zM31 80h1v1h-1zM32 80h1v1h-1zM33 80h1v1h-1zM34 80h1v1h-1zM35 80h1v1h-1zM36 80h1v1h-1zM37 80h1v1h-1zM38 80h1v1h-1zM39 80h1v1h-1zM40 80h1v1h-1zM41 80h1v1h-1zM42 80h1v1h-1zM43 80h1v1h-1zM44 80h1v1h-1zM45 80h1v1h-1zM46 80h1v1h-1zM47 80h1v1h-1zM48 80h1v1h-1zM49 80h1v1h-1zM50 80h1v1h-1zM51 80h1v1h-1zM52 80h1v1h-1zM53 80h1v1h-1zM54 80h1v1h-1zM55 80h1v1h-1z"/><path fill="#9EA1A7" d="M56 80h1v1h-1z"/><path fill="#4C4646" d="M57 80h1v1h-1z"/><path fill="#231815" d="M58 80h1v1h-1zM59 80h1v1h-1zM60 80h1v1h-1zM61 80h1v1h-1zM62 80h1v1h-1zM63 80h1v1h-1zM64 80h1v1h-1zM15 81h1v1h-1zM16 81h1v1h-1zM17 81h1v1h-1zM18 81h1v1h-1zM19 81h1v1h-1zM20 81h1v1h-1z"/><path fill="#2B211F" d="M21 81h1v1h-1z"/><path fill="#6D6A6D" d="M22 81h1v1h-1z"/><path fill="#A6AAB1" d="M23 81h1v1h-1zM24 81h1v1h-1zM25 81h1v1h-1zM26 81h1v1h-1zM27 81h1v1h-1zM28 81h1v1h-1zM29 81h1v1h-1zM30 81h1v1h-1zM31 81h1v1h-1zM32 81h1v1h-1zM33 81h1v1h-1zM34 81h1v1h-1zM35 81h1v1h-1zM36 81h1v1h-1zM37 81h1v1h-1zM38 81h1v1h-1zM39 81h1v1h-1zM40 81h1v1h-1zM41 81h1v1h-1zM42 81h1v1h-1zM43 81h1v1h-1zM44 81h1v1h-1zM45 81h1v1h-1zM46 81h1v1h-1zM47 81h1v1h-1zM48 81h1v1h-1zM49 81h1v1h-1zM50 81h1v1h-1zM51 81h1v1h-1zM52 81h1v1h-1zM53 81h1v1h-1z"/><path fill="#9EA1A7" d="M54 81h1v1h-1z"/><path fill="#656163" d="M55 81h1v1h-1z"/><path fill="#2B211F" d="M56 81h1v1h-1z"/><path fill="#231815" d="M57 81h1v1h-1zM58 81h1v1h-1zM59 81h1v1h-1zM60 81h1v1h-1zM61 81h1v1h-1zM62 81h1v1h-1zM16 82h1v1h-1zM17 82h1v1h-1zM18 82h1v1h-1zM19 82h1v1h-1zM20 82h1v1h-1zM21 82h1v1h-1zM22 82h1v1h-1z"/><path fill="#332A29" d="M23 82h1v1h-1z"/><path fill="#757377" d="M24 82h1v1h-1z"/><path fill="#9EA1A7" d="M25 82h1v1h-1z"/><path fill="#A6AAB1" d="M26 82h1v1h-1zM27 82h1v1h-1zM28 82h1v1h-1zM29 82h1v1h-1zM30 82h1v1h-1zM31 82h1v1h-1zM32 82h1v1h-1zM33 82h1v1h-1zM34 82h1v1h-1zM35 82h1v1h-1zM36 82h1v1h-1zM37 82h1v1h-1zM38 82h1v1h-1zM39 82h1v1h-1zM40 82h1v1h-1zM41 82h1v1h-1zM42 82h1v1h-1zM43 82h1v1h-1zM44 82h1v1h-1zM45 82h1v1h-1zM46 82h1v1h-1zM47 82h1v1h-1zM48 82h1v1h-1zM49 82h1v1h-1zM50 82h1v1h-1zM51 82h1v1h-1z"/><path fill="#9EA1A7" d="M52 82h1v1h-1z"/><path fill="#656163" d="M53 82h1v1h-1z"/><path fill="#332A29" d="M54 82h1v1h-1z"/><path fill="#231815" d="M55 82h1v1h-1zM56 82h1v1h-1zM57 82h1v1h-1zM58 82h1v1h-1zM59 82h1v1h-1zM60 82h1v1h-1zM61 82h1v1h-1zM17 83h1v1h-1zM18 83h1v1h-1zM19 83h1v1h-1zM20 83h1v1h-1zM21 83h1v1h-1zM22 83h1v1h-1zM23 83h1v1h-1zM24 83h1v1h-1z"/><path fill="#2B211F" d="M25 83h1v1h-1z"/><path fill="#5C5859" d="M26 83h1v1h-1z"/><path fill="#8D8F94" d="M27 83h1v1h-1z"/><path fill="#A6AAB1" d="M28 83h1v1h-1zM29 83h1v1h-1zM30 83h1v1h-1zM31 83h1v1h-1zM32 83h1v1h-1zM33 83h1v1h-1zM34 83h1v1h-1zM35 83h1v1h-1zM36 83h1v1h-1zM37 83h1v1h-1zM38 83h1v1h-1zM39 83h1v1h-1zM40 83h1v1h-1zM41 83h1v1h-1zM42 83h1v1h-1zM43 83h1v1h-1zM44 83h1v1h-1zM45 83h1v1h-1zM46 83h1v1h-1zM47 83h1v1h-1zM48 83h1v1h-1zM49 83h1v1h-1z"/><path fill="#8D8F94" d="M50 83h1v1h-1z"/><path fill="#544F50" d="M51 83h1v1h-1z"/><path fill="#2B211F" d="M52 83h1v1h-1z"/><path fill="#231815" d="M53 83h1v1h-1zM54 83h1v1h-1zM55 83h1v1h-1zM56 83h1v1h-1zM57 83h1v1h-1zM58 83h1v1h-1zM59 83h1v1h-1zM60 83h1v1h-1zM19 84h1v1h-1zM20 84h1v1h-1zM21 84h1v1h-1zM22 84h1v1h-1zM23 84h1v1h-1zM24 84h1v1h-1zM25 84h1v1h-1zM26 84h1v1h-1zM27 84h1v1h-1z"/><path fill="#332A29" d="M28 84h1v1h-1z"/><path fill="#5C5859" d="M29 84h1v1h-1z"/><path fill="#7D7C80" d="M30 84h1v1h-1z"/><path fill="#9EA1A7" d="M31 84h1v1h-1z"/><path fill="#A6AAB1" d="M32 84h1v1h-1zM33 84h1v1h-1zM34 84h1v1h-1zM35 84h1v1h-1zM36 84h1v1h-1zM37 84h1v1h-1zM38 84h1v1h-1zM39 84h1v1h-1zM40 84h1v1h-1zM41 84h1v1h-1zM42 84h1v1h-1zM43 84h1v1h-1zM44 84h1v1h-1zM45 84h1v1h-1z"/><path fill="#9EA1A7" d="M46 84h1v1h-1z"/><path fill="#7D7C80" d="M47 84h1v1h-1z"/><path fill="#5C5859" d="M48 84h1v1h-1z"/><path fill="#332A29" d="M49 84h1v1h-1z"/><path fill="#231815" d="M50 84h1v1h-1zM51 84h1v1h-1zM52 84h1v1h-1zM53 84h1v1h-1zM54 84h1v1h-1zM55 84h1v1h-1zM56 84h1v1h-1zM57 84h1v1h-1zM58 84h1v1h-1zM21 85h1v1h-1zM22 85h1v1h-1zM23 85h1v1h-1zM24 85h1v1h-1zM25 85h1v1h-1zM26 85h1v1h-1zM27 85h1v1h-1zM28 85h1v1h-1zM29 85h1v1h-1zM30 85h1v1h-1zM31 85h1v1h-1z"/><path fill="#332A29" d="M32 85h1v1h-1z"/><path fill="#4C4646" d="M33 85h1v1h-1z"/><path fill="#656163" d="M34 85h1v1h-1z"/><path fill="#6D6A6D" d="M35 85h1v1h-1z"/><path fill="#85868A" d="M36 85h1v1h-1zM37 85h1v1h-1zM38 85h1v1h-1zM39 85h1v1h-1zM40 85h1v1h-1zM41 85h1v1h-1z"/><path fill="#6D6A6D" d="M42 85h1v1h-1z"/><path fill="#656163" d="M43 85h1v1h-1z"/><path fill="#4C4646" d="M44 85h1v1h-1z"/><path fill="#332A29" d="M45 85h1v1h-1z"/><path fill="#231815" d="M46 85h1v1h-1zM47 85h1v1h-1zM48 85h1v1h-1zM49 85h1v1h-1zM50 85h1v1h-1zM51 85h1v1h-1zM52 85h1v1h-1zM53 85h1v1h-1zM54 85h1v1h-1zM55 85h1v1h-1zM56 85h1v1h-1zM23 86h1v1h-1zM24 86h1v1h-1zM25 86h1v1h-1zM26 86h1v1h-1zM27 86h1v1h-1zM28 86h1v1h-1zM29 86h1v1h-1zM30 86h1v1h-1zM31 86h1v1h-1zM32 86h1v1h-1zM33 86h1v1h-1zM34 86h1v1h-1zM35 86h1v1h-1zM36 86h1v1h-1zM37 86h1v1h-1zM38 86h1v1h-1zM39 86h1v1h-1zM40 86h1v1h-1zM41 86h1v1h-1zM42 86h1v1h-1zM43 86h1v1h-1zM44 86h1v1h-1zM45 86h1v1h-1zM46 86h1v1h-1zM47 86h1v1h-1zM48 86h1v1h-1zM49 86h1v1h-1zM50 86h1v1h-1zM51 86h1v1h-1zM52 86h1v1h-1zM53 86h1v1h-1zM54 86h1v1h-1zM25 87h1v1h-1zM26 87h1v1h-1zM27 87h1v1h-1zM28 87h1v1h-1zM29 87h1v1h-1zM30 87h1v1h-1zM31 87h1v1h-1zM32 87h1v1h-1zM33 87h1v1h-1zM34 87h1v1h-1zM35 87h1v1h-1zM36 87h1v1h-1zM37 87h1v1h-1zM38 87h1v1h-1zM39 87h1v1h-1zM40 87h1v1h-1zM41 87h1v1h-1zM42 87h1v1h-1zM43 87h1v1h-1zM44 87h1v1h-1zM45 87h1v1h-1zM46 87h1v1h-1zM47 87h1v1h-1zM48 87h1v1h-1zM49 87h1v1h-1zM50 87h1v1h-1zM51 87h1v1h-1zM52 87h1v1h-1zM28 88h1v1h-1zM29 88h1v1h-1zM30 88h1v1h-1zM31 88h1v1h-1zM32 88h1v1h-1zM33 88h1v1h-1zM34 88h1v1h-1zM35 88h1v1h-1zM36 88h1v1h-1zM37 88h1v1h-1zM38 88h1v1h-1zM39 88h1v1h-1zM40 88h1v1h-1zM41 88h1v1h-1zM42 88h1v1h-1zM43 88h1v1h-1zM44 88h1v1h-1zM45 88h1v1h-1zM46 88h1v1h-1zM47 88h1v1h-1zM48 88h1v1h-1zM49 88h1v1h-1zM33 89h1v1h-1zM34 89h1v1h-1zM35 89h1v1h-1zM36 89h1v1h-1zM37 89h1v1h-1zM38 89h1v1h-1zM39 89h1v1h-1zM40 89h1v1h-1zM41 89h1v1h-1zM42 89h1v1h-1zM43 89h1v1h-1zM44 89h1v1h-1z"/></svg>