<svg baseProfile="full" height="90" width="55" xmlns="http://www.w3.org/2000/svg"><path fill="#231815" d="M17 0h1v1h-1zM18 0h1v1h-1zM19 0h1v1h-1zM20 0h1v1h-1zM21 0h1v1h-1zM22 0h1v1h-1zM23 0h1v1h-1zM24 0h1v1h-1zM25 0h1v1h-1zM26 0h1v1h-1zM27 0h1v1h-1zM28 0h1v1h-1zM29 0h1v1h-1zM30 0h1v1h-1zM31 0h1v1h-1zM32 0h1v1h-1zM33 0h1v1h-1zM34 0h1v1h-1zM35 0h1v1h-1zM36 0h1v1h-1zM37 0h1v1h-1zM14 1h1v1h-1zM15 1h1v1h-1zM16 1h1v1h-1zM17 1h1v1h-1zM18 1h1v1h-1zM19 1h1v1h-1zM20 1h1v1h-1zM21 1h1v1h-1zM22 1h1v1h-1zM23 1h1v1h-1zM24 1h1v1h-1zM25 1h1v1h-1zM26 1h1v1h-1zM27 1h1v1h-1zM28 1h1v1h-1zM29 1h1v1h-1zM30 1h1v1h-1zM31 1h1v1h-1zM32 1h1v1h-1zM33 1h1v1h-1zM34 1h1v1h-1zM35 1h1v1h-1zM36 1h1v1h-1zM37 1h1v1h-1zM38 1h1v1h-1zM39 1h1v1h-1zM40 1h1v1h-1zM12 2h1v1h-1zM13 2h1v1h-1zM14 2h1v1h-1zM15 2h1v1h-1zM16 2h1v1h-1zM17 2h1v1h-1zM18 2h1v1h-1zM19 2h1v1h-1zM20 2h1v1h-1zM21 2h1v1h-1zM22 2h1v1h-1zM23 2h1v1h-1zM24 2h1v1h-1zM25 2h1v1h-1zM26 2h1v1h-1zM27 2h1v1h-1zM28 2h1v1h-1zM29 2h1v1h-1zM30 2h1v1h-1zM31 2h1v1h-1zM32 2h1v1h-1zM33 2h1v1h-1zM34 2h1v1h-1zM35 2h1v1h-1zM36 2h1v1h-1zM37 2h1v1h-1zM38 2h1v1h-1zM39 2h1v1h-1zM40 2h1v1h-1zM41 2h1v1h-1zM42 2h1v1h-1zM11 3h1v1h-1zM12 3h1v1h-1zM13 3h1v1h-1zM14 3h1v1h-1zM15 3h1v1h-1zM16 3h1v1h-1zM17 3h1v1h-1z"/><path fill="#4F4B49" d="M18 3h1v1h-1z"/><path fill="#656563" d="M19 3h1v1h-1z"/><path fill="#7C7E7D" d="M20 3h1v1h-1z"/><path fill="#9DA4A4" d="M21 3h1v1h-1z"/><path fill="#A8B1B1" d="M22 3h1v1h-1zM23 3h1v1h-1z"/><path fill="#C9D7D8" d="M24 3h1v1h-1z"/><path fill="#D4E4E5" d="M25 3h1v1h-1zM26 3h1v1h-1zM27 3h1v1h-1zM28 3h1v1h-1zM29 3h1v1h-1zM30 3h1v1h-1z"/><path fill="#A8B1B1" d="M31 3h1v1h-1zM32 3h1v1h-1z"/><path fill="#9DA4A4" d="M33 3h1v1h-1z"/><path fill="#7C7E7D" d="M34 3h1v1h-1z"/><path fill="#656563" d="M35 3h1v1h-1z"/><path fill="#4F4B49" d="M36 3h1v1h-1z"/><path fill="#231815" d="M37 3h1v1h-1zM38 3h1v1h-1zM39 3h1v1h-1zM40 3h1v1h-1zM41 3h1v1h-1zM42 3h1v1h-1zM43 3h1v1h-1zM11 4h1v1h-1zM12 4h1v1h-1zM13 4h1v1h-1zM14 4h1v1h-1z"/><path fill="#5A5856" d="M15 4h1v1h-1z"/><path fill="#9DA4A4" d="M16 4h1v1h-1z"/><path fill="#D4E4E5" d="M17 4h1v1h-1zM18 4h1v1h-1zM19 4h1v1h-1zM20 4h1v1h-1zM21 4h1v1h-1zM22 4h1v1h-1zM23 4h1v1h-1zM24 4h1v1h-1zM25 4h1v1h-1zM26 4h1v1h-1zM27 4h1v1h-1zM28 4h1v1h-1zM29 4h1v1h-1zM30 4h1v1h-1zM31 4h1v1h-1zM32 4h1v1h-1zM33 4h1v1h-1zM34 4h1v1h-1zM35 4h1v1h-1zM36 4h1v1h-1zM37 4h1v1h-1z"/><path fill="#9DA4A4" d="M38 4h1v1h-1z"/><path fill="#656563" d="M39 4h1v1h-1z"/><path fill="#231815" d="M40 4h1v1h-1zM41 4h1v1h-1zM42 4h1v1h-1zM43 4h1v1h-1zM11 5h1v1h-1zM12 5h1v1h-1zM13 5h1v1h-1z"/><path fill="#C8C5C5" d="M14 5h1v1h-1z"/><path fill="#F2F7F7" d="M15 5h1v1h-1z"/><path fill="#D7E6E7" d="M16 5h1v1h-1z"/><path fill="#D4E4E5" d="M17 5h1v1h-1zM18 5h1v1h-1zM19 5h1v1h-1zM20 5h1v1h-1zM21 5h1v1h-1zM22 5h1v1h-1zM23 5h1v1h-1zM24 5h1v1h-1zM25 5h1v1h-1zM26 5h1v1h-1zM27 5h1v1h-1zM28 5h1v1h-1zM29 5h1v1h-1zM30 5h1v1h-1zM31 5h1v1h-1zM32 5h1v1h-1zM33 5h1v1h-1zM34 5h1v1h-1zM35 5h1v1h-1zM36 5h1v1h-1z"/><path fill="#DCE9EA" d="M37 5h1v1h-1z"/><path fill="#E7F0F0" d="M38 5h1v1h-1z"/><path fill="#F4F8F9" d="M39 5h1v1h-1z"/><path fill="#C8C5C5" d="M40 5h1v1h-1z"/><path fill="#231815" d="M41 5h1v1h-1zM42 5h1v1h-1zM43 5h1v1h-1zM11 6h1v1h-1zM12 6h1v1h-1zM13 6h1v1h-1z"/><path fill="#FFF" d="M14 6h1v1h-1zM15 6h1v1h-1zM16 6h1v1h-1z"/><path fill="#F7FAFA" d="M17 6h1v1h-1z"/><path fill="#EFF5F5" d="M18 6h1v1h-1z"/><path fill="#E1ECED" d="M19 6h1v1h-1z"/><path fill="#D4E4E5" d="M20 6h1v1h-1zM21 6h1v1h-1zM22 6h1v1h-1zM23 6h1v1h-1zM24 6h1v1h-1zM25 6h1v1h-1zM26 6h1v1h-1zM27 6h1v1h-1zM28 6h1v1h-1zM29 6h1v1h-1zM30 6h1v1h-1zM31 6h1v1h-1zM32 6h1v1h-1zM33 6h1v1h-1zM34 6h1v1h-1zM35 6h1v1h-1z"/><path fill="#F2F7F7" d="M36 6h1v1h-1z"/><path fill="#FFF" d="M37 6h1v1h-1zM38 6h1v1h-1zM39 6h1v1h-1zM40 6h1v1h-1z"/><path fill="#231815" d="M41 6h1v1h-1zM42 6h1v1h-1zM43 6h1v1h-1zM11 7h1v1h-1zM12 7h1v1h-1zM13 7h1v1h-1z"/><path fill="#FFF" d="M14 7h1v1h-1zM15 7h1v1h-1zM16 7h1v1h-1zM17 7h1v1h-1zM18 7h1v1h-1zM19 7h1v1h-1z"/><path fill="#D4E4E5" d="M20 7h1v1h-1zM21 7h1v1h-1zM22 7h1v1h-1zM23 7h1v1h-1zM24 7h1v1h-1zM25 7h1v1h-1zM26 7h1v1h-1zM27 7h1v1h-1zM28 7h1v1h-1zM29 7h1v1h-1zM30 7h1v1h-1zM31 7h1v1h-1zM32 7h1v1h-1zM33 7h1v1h-1zM34 7h1v1h-1zM35 7h1v1h-1z"/><path fill="#FFF" d="M36 7h1v1h-1zM37 7h1v1h-1zM38 7h1v1h-1zM39 7h1v1h-1zM40 7h1v1h-1z"/><path fill="#231815" d="M41 7h1v1h-1zM42 7h1v1h-1zM43 7h1v1h-1zM11 8h1v1h-1zM12 8h1v1h-1zM13 8h1v1h-1z"/><path fill="#E4EEEF" d="M14 8h1v1h-1z"/><path fill="#FAFCFC" d="M15 8h1v1h-1z"/><path fill="#FFF" d="M16 8h1v1h-1zM17 8h1v1h-1zM18 8h1v1h-1z"/><path fill="#FCFDFD" d="M19 8h1v1h-1z"/><path fill="#D4E4E5" d="M20 8h1v1h-1zM21 8h1v1h-1zM22 8h1v1h-1zM23 8h1v1h-1zM24 8h1v1h-1zM25 8h1v1h-1zM26 8h1v1h-1zM27 8h1v1h-1zM28 8h1v1h-1zM29 8h1v1h-1zM30 8h1v1h-1zM31 8h1v1h-1zM32 8h1v1h-1zM33 8h1v1h-1zM34 8h1v1h-1zM35 8h1v1h-1z"/><path fill="#EAF2F2" d="M36 8h1v1h-1z"/><path fill="#FFF" d="M37 8h1v1h-1z"/><path fill="#F2F7F7" d="M38 8h1v1h-1z"/><path fill="#EAF2F2" d="M39 8h1v1h-1z"/><path fill="#DCE9EA" d="M40 8h1v1h-1z"/><path fill="#231815" d="M41 8h1v1h-1zM42 8h1v1h-1zM43 8h1v1h-1zM11 9h1v1h-1zM12 9h1v1h-1zM13 9h1v1h-1z"/><path fill="#D4E4E5" d="M14 9h1v1h-1zM15 9h1v1h-1z"/><path fill="#D7E6E7" d="M16 9h1v1h-1z"/><path fill="#DFEBEC" d="M17 9h1v1h-1z"/><path fill="#EAF2F2" d="M18 9h1v1h-1z"/><path fill="#D9E7E8" d="M19 9h1v1h-1z"/><path fill="#D4E4E5" d="M20 9h1v1h-1z"/><path fill="#E1ECED" d="M21 9h1v1h-1z"/><path fill="#EAF2F2" d="M22 9h1v1h-1z"/><path fill="#E1ECED" d="M23 9h1v1h-1z"/><path fill="#DFEBEC" d="M24 9h1v1h-1zM25 9h1v1h-1zM26 9h1v1h-1zM27 9h1v1h-1zM28 9h1v1h-1zM29 9h1v1h-1zM30 9h1v1h-1zM31 9h1v1h-1zM32 9h1v1h-1z"/><path fill="#E7F0F0" d="M33 9h1v1h-1z"/><path fill="#ECF3F4" d="M34 9h1v1h-1z"/><path fill="#F2F7F7" d="M35 9h1v1h-1z"/><path fill="#DCE9EA" d="M36 9h1v1h-1z"/><path fill="#D4E4E5" d="M37 9h1v1h-1zM38 9h1v1h-1zM39 9h1v1h-1zM40 9h1v1h-1z"/><path fill="#231815" d="M41 9h1v1h-1zM42 9h1v1h-1zM43 9h1v1h-1zM11 10h1v1h-1zM12 10h1v1h-1zM13 10h1v1h-1z"/><path fill="#D4E4E5" d="M14 10h1v1h-1zM15 10h1v1h-1zM16 10h1v1h-1zM17 10h1v1h-1zM18 10h1v1h-1zM19 10h1v1h-1z"/><path fill="#DCE9EA" d="M20 10h1v1h-1z"/><path fill="#FFF" d="M21 10h1v1h-1zM22 10h1v1h-1zM23 10h1v1h-1zM24 10h1v1h-1zM25 10h1v1h-1zM26 10h1v1h-1zM27 10h1v1h-1zM28 10h1v1h-1zM29 10h1v1h-1zM30 10h1v1h-1zM31 10h1v1h-1zM32 10h1v1h-1zM33 10h1v1h-1zM34 10h1v1h-1zM35 10h1v1h-1z"/><path fill="#F4F8F9" d="M36 10h1v1h-1z"/><path fill="#D4E4E5" d="M37 10h1v1h-1zM38 10h1v1h-1zM39 10h1v1h-1zM40 10h1v1h-1z"/><path fill="#231815" d="M41 10h1v1h-1zM42 10h1v1h-1zM43 10h1v1h-1zM11 11h1v1h-1zM12 11h1v1h-1zM13 11h1v1h-1z"/><path fill="#D4E4E5" d="M14 11h1v1h-1zM15 11h1v1h-1zM16 11h1v1h-1zM17 11h1v1h-1zM18 11h1v1h-1zM19 11h1v1h-1z"/><path fill="#DCE9EA" d="M20 11h1v1h-1z"/><path fill="#FFF" d="M21 11h1v1h-1zM22 11h1v1h-1zM23 11h1v1h-1zM24 11h1v1h-1zM25 11h1v1h-1zM26 11h1v1h-1zM27 11h1v1h-1zM28 11h1v1h-1zM29 11h1v1h-1zM30 11h1v1h-1zM31 11h1v1h-1zM32 11h1v1h-1zM33 11h1v1h-1zM34 11h1v1h-1zM35 11h1v1h-1z"/><path fill="#EFF5F5" d="M36 11h1v1h-1z"/><path fill="#D4E4E5" d="M37 11h1v1h-1zM38 11h1v1h-1zM39 11h1v1h-1zM40 11h1v1h-1z"/><path fill="#231815" d="M41 11h1v1h-1zM42 11h1v1h-1zM43 11h1v1h-1zM11 12h1v1h-1zM12 12h1v1h-1zM13 12h1v1h-1z"/><path fill="#D4E4E5" d="M14 12h1v1h-1zM15 12h1v1h-1zM16 12h1v1h-1zM17 12h1v1h-1zM18 12h1v1h-1zM19 12h1v1h-1zM20 12h1v1h-1z"/><path fill="#E1ECED" d="M21 12h1v1h-1z"/><path fill="#EAF2F2" d="M22 12h1v1h-1z"/><path fill="#F4F8F9" d="M23 12h1v1h-1zM24 12h1v1h-1zM25 12h1v1h-1zM26 12h1v1h-1zM27 12h1v1h-1zM28 12h1v1h-1zM29 12h1v1h-1zM30 12h1v1h-1zM31 12h1v1h-1zM32 12h1v1h-1z"/><path fill="#EFF5F5" d="M33 12h1v1h-1z"/><path fill="#E7EFF0" d="M34 12h1v1h-1z"/><path fill="#DBE6E7" d="M35 12h1v1h-1z"/><path fill="#D4E4E5" d="M36 12h1v1h-1zM37 12h1v1h-1zM38 12h1v1h-1zM39 12h1v1h-1zM40 12h1v1h-1z"/><path fill="#231815" d="M41 12h1v1h-1zM42 12h1v1h-1zM43 12h1v1h-1zM11 13h1v1h-1zM12 13h1v1h-1zM13 13h1v1h-1z"/><path fill="#D4E4E5" d="M14 13h1v1h-1zM15 13h1v1h-1zM16 13h1v1h-1zM17 13h1v1h-1zM18 13h1v1h-1zM19 13h1v1h-1z"/><path fill="#D2E2E3" d="M20 13h1v1h-1z"/><path fill="#B5C4C8" d="M21 13h1v1h-1z"/><path fill="#B1BFC4" d="M22 13h1v1h-1z"/><path fill="#B5C4C8" d="M23 13h1v1h-1z"/><path fill="#BAC8CC" d="M24 13h1v1h-1zM25 13h1v1h-1zM26 13h1v1h-1zM27 13h1v1h-1zM28 13h1v1h-1zM29 13h1v1h-1zM30 13h1v1h-1zM31 13h1v1h-1z"/><path fill="#B8C6CA" d="M32 13h1v1h-1z"/><path fill="#B1BFC4" d="M33 13h1v1h-1zM34 13h1v1h-1zM35 13h1v1h-1z"/><path fill="#C0CFD2" d="M36 13h1v1h-1z"/><path fill="#D4E4E5" d="M37 13h1v1h-1zM38 13h1v1h-1zM39 13h1v1h-1zM40 13h1v1h-1z"/><path fill="#231815" d="M41 13h1v1h-1zM42 13h1v1h-1zM43 13h1v1h-1zM9 14h1v1H9zM10 14h1v1h-1zM11 14h1v1h-1zM12 14h1v1h-1zM13 14h1v1h-1z"/><path fill="#D4E4E5" d="M14 14h1v1h-1zM15 14h1v1h-1zM16 14h1v1h-1zM17 14h1v1h-1zM18 14h1v1h-1zM19 14h1v1h-1z"/><path fill="#CBDBDD" d="M20 14h1v1h-1z"/><path fill="#B1BFC4" d="M21 14h1v1h-1zM22 14h1v1h-1zM23 14h1v1h-1zM24 14h1v1h-1zM25 14h1v1h-1zM26 14h1v1h-1zM27 14h1v1h-1zM28 14h1v1h-1zM29 14h1v1h-1zM30 14h1v1h-1zM31 14h1v1h-1zM32 14h1v1h-1zM33 14h1v1h-1zM34 14h1v1h-1zM35 14h1v1h-1z"/><path fill="#BAC8CC" d="M36 14h1v1h-1z"/><path fill="#D4E4E5" d="M37 14h1v1h-1zM38 14h1v1h-1zM39 14h1v1h-1zM40 14h1v1h-1z"/><path fill="#231815" d="M41 14h1v1h-1zM42 14h1v1h-1zM43 14h1v1h-1zM44 14h1v1h-1zM45 14h1v1h-1zM8 15h1v1H8zM9 15h1v1H9zM10 15h1v1h-1zM11 15h1v1h-1zM12 15h1v1h-1zM13 15h1v1h-1z"/><path fill="#D4E4E5" d="M14 15h1v1h-1zM15 15h1v1h-1zM16 15h1v1h-1zM17 15h1v1h-1zM18 15h1v1h-1zM19 15h1v1h-1z"/><path fill="#D2E2E3" d="M20 15h1v1h-1z"/><path fill="#B8C6CA" d="M21 15h1v1h-1z"/><path fill="#B1BFC4" d="M22 15h1v1h-1zM23 15h1v1h-1zM24 15h1v1h-1zM25 15h1v1h-1zM26 15h1v1h-1zM27 15h1v1h-1zM28 15h1v1h-1zM29 15h1v1h-1zM30 15h1v1h-1zM31 15h1v1h-1zM32 15h1v1h-1zM33 15h1v1h-1zM34 15h1v1h-1z"/><path fill="#B8C6CA" d="M35 15h1v1h-1z"/><path fill="#CDDDDF" d="M36 15h1v1h-1z"/><path fill="#D4E4E5" d="M37 15h1v1h-1zM38 15h1v1h-1zM39 15h1v1h-1zM40 15h1v1h-1z"/><path fill="#231815" d="M41 15h1v1h-1zM42 15h1v1h-1zM43 15h1v1h-1zM44 15h1v1h-1zM45 15h1v1h-1zM46 15h1v1h-1zM47 15h1v1h-1zM6 16h1v1H6zM7 16h1v1H7zM8 16h1v1H8zM9 16h1v1H9zM10 16h1v1h-1zM11 16h1v1h-1zM12 16h1v1h-1zM13 16h1v1h-1z"/><path fill="#D4E4E5" d="M14 16h1v1h-1zM15 16h1v1h-1zM16 16h1v1h-1zM17 16h1v1h-1zM18 16h1v1h-1zM19 16h1v1h-1zM20 16h1v1h-1zM21 16h1v1h-1zM22 16h1v1h-1z"/><path fill="#CDDDDF" d="M23 16h1v1h-1z"/><path fill="#CBDBDD" d="M24 16h1v1h-1zM25 16h1v1h-1zM26 16h1v1h-1zM27 16h1v1h-1zM28 16h1v1h-1zM29 16h1v1h-1zM30 16h1v1h-1zM31 16h1v1h-1zM32 16h1v1h-1z"/><path fill="#D2E2E3" d="M33 16h1v1h-1z"/><path fill="#D4E4E5" d="M34 16h1v1h-1zM35 16h1v1h-1zM36 16h1v1h-1zM37 16h1v1h-1zM38 16h1v1h-1zM39 16h1v1h-1zM40 16h1v1h-1z"/><path fill="#231815" d="M41 16h1v1h-1zM42 16h1v1h-1zM43 16h1v1h-1zM44 16h1v1h-1zM45 16h1v1h-1zM46 16h1v1h-1zM47 16h1v1h-1zM48 16h1v1h-1zM5 17h1v1H5zM6 17h1v1H6zM7 17h1v1H7zM8 17h1v1H8zM9 17h1v1H9z"/><path fill="#352D2B" d="M10 17h1v1h-1z"/><path fill="#231815" d="M11 17h1v1h-1zM12 17h1v1h-1zM13 17h1v1h-1z"/><path fill="#D4E4E5" d="M14 17h1v1h-1zM15 17h1v1h-1zM16 17h1v1h-1zM17 17h1v1h-1zM18 17h1v1h-1zM19 17h1v1h-1zM20 17h1v1h-1zM21 17h1v1h-1zM22 17h1v1h-1zM23 17h1v1h-1z"/><path fill="#C2D3D5" d="M24 17h1v1h-1z"/><path fill="#7C9194" d="M25 17h1v1h-1z"/><path fill="#768B8F" d="M26 17h1v1h-1zM27 17h1v1h-1zM28 17h1v1h-1zM29 17h1v1h-1zM30 17h1v1h-1z"/><path fill="#A5B8BA" d="M31 17h1v1h-1z"/><path fill="#D4E4E5" d="M32 17h1v1h-1zM33 17h1v1h-1zM34 17h1v1h-1zM35 17h1v1h-1zM36 17h1v1h-1zM37 17h1v1h-1zM38 17h1v1h-1zM39 17h1v1h-1zM40 17h1v1h-1z"/><path fill="#231815" d="M41 17h1v1h-1zM42 17h1v1h-1zM43 17h1v1h-1z"/><path fill="#474241" d="M44 17h1v1h-1z"/><path fill="#231815" d="M45 17h1v1h-1zM46 17h1v1h-1zM47 17h1v1h-1zM48 17h1v1h-1zM49 17h1v1h-1zM4 18h1v1H4zM5 18h1v1H5zM6 18h1v1H6zM7 18h1v1H7zM8 18h1v1H8z"/><path fill="#6A6C6D" d="M9 18h1v1H9z"/><path fill="#B1BFC4" d="M10 18h1v1h-1z"/><path fill="#231815" d="M11 18h1v1h-1zM12 18h1v1h-1zM13 18h1v1h-1z"/><path fill="#D4E4E5" d="M14 18h1v1h-1zM15 18h1v1h-1zM16 18h1v1h-1zM17 18h1v1h-1zM18 18h1v1h-1zM19 18h1v1h-1zM20 18h1v1h-1zM21 18h1v1h-1zM22 18h1v1h-1zM23 18h1v1h-1z"/><path fill="#A5B8BA" d="M24 18h1v1h-1z"/><path fill="#768B8F" d="M25 18h1v1h-1zM26 18h1v1h-1zM27 18h1v1h-1zM28 18h1v1h-1zM29 18h1v1h-1zM30 18h1v1h-1z"/><path fill="#8EA1A5" d="M31 18h1v1h-1z"/><path fill="#D4E4E5" d="M32 18h1v1h-1zM33 18h1v1h-1zM34 18h1v1h-1zM35 18h1v1h-1zM36 18h1v1h-1zM37 18h1v1h-1zM38 18h1v1h-1zM39 18h1v1h-1zM40 18h1v1h-1z"/><path fill="#231815" d="M41 18h1v1h-1zM42 18h1v1h-1zM43 18h1v1h-1z"/><path fill="#B1BFC4" d="M44 18h1v1h-1z"/><path fill="#858B8D" d="M45 18h1v1h-1z"/><path fill="#2C2220" d="M46 18h1v1h-1z"/><path fill="#231815" d="M47 18h1v1h-1zM48 18h1v1h-1zM49 18h1v1h-1zM50 18h1v1h-1zM51 18h1v1h-1zM2 19h1v1H2zM3 19h1v1H3zM4 19h1v1H4zM5 19h1v1H5zM6 19h1v1H6z"/><path fill="#352D2B" d="M7 19h1v1H7z"/><path fill="#96A0A3" d="M8 19h1v1H8z"/><path fill="#B1BFC4" d="M9 19h1v1H9zM10 19h1v1h-1z"/><path fill="#424343" d="M11 19h1v1h-1z"/><path fill="#231815" d="M12 19h1v1h-1z"/><path fill="#424343" d="M13 19h1v1h-1z"/><path fill="#D4E4E5" d="M14 19h1v1h-1zM15 19h1v1h-1zM16 19h1v1h-1zM17 19h1v1h-1zM18 19h1v1h-1zM19 19h1v1h-1zM20 19h1v1h-1zM21 19h1v1h-1zM22 19h1v1h-1zM23 19h1v1h-1z"/><path fill="#C8D9DA" d="M24 19h1v1h-1z"/><path fill="#889C9F" d="M25 19h1v1h-1z"/><path fill="#768B8F" d="M26 19h1v1h-1zM27 19h1v1h-1zM28 19h1v1h-1zM29 19h1v1h-1z"/><path fill="#82969A" d="M30 19h1v1h-1z"/><path fill="#B7C8CA" d="M31 19h1v1h-1z"/><path fill="#D4E4E5" d="M32 19h1v1h-1zM33 19h1v1h-1zM34 19h1v1h-1zM35 19h1v1h-1zM36 19h1v1h-1zM37 19h1v1h-1zM38 19h1v1h-1zM39 19h1v1h-1zM40 19h1v1h-1z"/><path fill="#424343" d="M41 19h1v1h-1z"/><path fill="#231815" d="M42 19h1v1h-1z"/><path fill="#424343" d="M43 19h1v1h-1z"/><path fill="#B1BFC4" d="M44 19h1v1h-1zM45 19h1v1h-1z"/><path fill="#A8B5B9" d="M46 19h1v1h-1z"/><path fill="#3E3736" d="M47 19h1v1h-1z"/><path fill="#231815" d="M48 19h1v1h-1zM49 19h1v1h-1zM50 19h1v1h-1zM51 19h1v1h-1zM52 19h1v1h-1zM2 20h1v1H2zM3 20h1v1H3zM4 20h1v1H4zM5 20h1v1H5z"/><path fill="#3E3736" d="M6 20h1v1H6z"/><path fill="#A8B5B9" d="M7 20h1v1H7z"/><path fill="#B1BFC4" d="M8 20h1v1H8zM9 20h1v1H9zM10 20h1v1h-1z"/><path fill="#768B8F" d="M11 20h1v1h-1zM12 20h1v1h-1zM13 20h1v1h-1z"/><path fill="#D4E4E5" d="M14 20h1v1h-1zM15 20h1v1h-1zM16 20h1v1h-1zM17 20h1v1h-1zM18 20h1v1h-1zM19 20h1v1h-1zM20 20h1v1h-1zM21 20h1v1h-1zM22 20h1v1h-1zM23 20h1v1h-1zM24 20h1v1h-1zM25 20h1v1h-1zM26 20h1v1h-1zM27 20h1v1h-1zM28 20h1v1h-1zM29 20h1v1h-1zM30 20h1v1h-1zM31 20h1v1h-1zM32 20h1v1h-1zM33 20h1v1h-1zM34 20h1v1h-1zM35 20h1v1h-1zM36 20h1v1h-1zM37 20h1v1h-1zM38 20h1v1h-1zM39 20h1v1h-1zM40 20h1v1h-1z"/><path fill="#768B8F" d="M41 20h1v1h-1zM42 20h1v1h-1zM43 20h1v1h-1z"/><path fill="#ADBCC1" d="M44 20h1v1h-1z"/><path fill="#B1BFC4" d="M45 20h1v1h-1zM46 20h1v1h-1zM47 20h1v1h-1z"/><path fill="#585757" d="M48 20h1v1h-1z"/><path fill="#231815" d="M49 20h1v1h-1zM50 20h1v1h-1zM51 20h1v1h-1zM52 20h1v1h-1zM1 21h1v1H1zM2 21h1v1H2zM3 21h1v1H3zM4 21h1v1H4z"/><path fill="#585757" d="M5 21h1v1H5z"/><path fill="#B1BFC4" d="M6 21h1v1H6zM7 21h1v1H7zM8 21h1v1H8zM9 21h1v1H9z"/><path fill="#9BACB0" d="M10 21h1v1h-1z"/><path fill="#768B8F" d="M11 21h1v1h-1zM12 21h1v1h-1zM13 21h1v1h-1z"/><path fill="#99ACAF" d="M14 21h1v1h-1z"/><path fill="#CEDEE0" d="M15 21h1v1h-1z"/><path fill="#D4E4E5" d="M16 21h1v1h-1zM17 21h1v1h-1zM18 21h1v1h-1zM19 21h1v1h-1zM20 21h1v1h-1zM21 21h1v1h-1zM22 21h1v1h-1zM23 21h1v1h-1zM24 21h1v1h-1zM25 21h1v1h-1zM26 21h1v1h-1zM27 21h1v1h-1zM28 21h1v1h-1zM29 21h1v1h-1zM30 21h1v1h-1zM31 21h1v1h-1zM32 21h1v1h-1zM33 21h1v1h-1zM34 21h1v1h-1zM35 21h1v1h-1zM36 21h1v1h-1zM37 21h1v1h-1zM38 21h1v1h-1z"/><path fill="#CEDEE0" d="M39 21h1v1h-1z"/><path fill="#99ACAF" d="M40 21h1v1h-1z"/><path fill="#768B8F" d="M41 21h1v1h-1zM42 21h1v1h-1zM43 21h1v1h-1z"/><path fill="#819599" d="M44 21h1v1h-1z"/><path fill="#ADBCC1" d="M45 21h1v1h-1z"/><path fill="#B1BFC4" d="M46 21h1v1h-1zM47 21h1v1h-1zM48 21h1v1h-1z"/><path fill="#585757" d="M49 21h1v1h-1z"/><path fill="#231815" d="M50 21h1v1h-1zM51 21h1v1h-1zM52 21h1v1h-1zM53 21h1v1h-1zM0 22h1v1H0zM1 22h1v1H1zM2 22h1v1H2zM3 22h1v1H3z"/><path fill="#4F4C4C" d="M4 22h1v1H4z"/><path fill="#B1BFC4" d="M5 22h1v1H5zM6 22h1v1H6zM7 22h1v1H7zM8 22h1v1H8z"/><path fill="#9BACB0" d="M9 22h1v1H9z"/><path fill="#768B8F" d="M10 22h1v1h-1zM11 22h1v1h-1zM12 22h1v1h-1zM13 22h1v1h-1zM14 22h1v1h-1z"/><path fill="#82969A" d="M15 22h1v1h-1z"/><path fill="#B1C3C5" d="M16 22h1v1h-1z"/><path fill="#CEDEE0" d="M17 22h1v1h-1z"/><path fill="#D4E4E5" d="M18 22h1v1h-1zM19 22h1v1h-1zM20 22h1v1h-1zM21 22h1v1h-1zM22 22h1v1h-1zM23 22h1v1h-1zM24 22h1v1h-1zM25 22h1v1h-1zM26 22h1v1h-1zM27 22h1v1h-1zM28 22h1v1h-1zM29 22h1v1h-1zM30 22h1v1h-1zM31 22h1v1h-1zM32 22h1v1h-1zM33 22h1v1h-1zM34 22h1v1h-1zM35 22h1v1h-1zM36 22h1v1h-1z"/><path fill="#CEDEE0" d="M37 22h1v1h-1z"/><path fill="#B1C3C5" d="M38 22h1v1h-1z"/><path fill="#82969A" d="M39 22h1v1h-1z"/><path fill="#768B8F" d="M40 22h1v1h-1zM41 22h1v1h-1zM42 22h1v1h-1zM43 22h1v1h-1zM44 22h1v1h-1z"/><path fill="#819599" d="M45 22h1v1h-1z"/><path fill="#ADBCC1" d="M46 22h1v1h-1z"/><path fill="#B1BFC4" d="M47 22h1v1h-1zM48 22h1v1h-1zM49 22h1v1h-1z"/><path fill="#585757" d="M50 22h1v1h-1z"/><path fill="#231815" d="M51 22h1v1h-1zM52 22h1v1h-1zM53 22h1v1h-1zM54 22h1v1h-1zM0 23h1v1H0zM1 23h1v1H1zM2 23h1v1H2z"/><path fill="#352D2B" d="M3 23h1v1H3z"/><path fill="#A8B5B9" d="M4 23h1v1H4z"/><path fill="#B1BFC4" d="M5 23h1v1H5zM6 23h1v1H6zM7 23h1v1H7z"/><path fill="#9BACB0" d="M8 23h1v1H8z"/><path fill="#768B8F" d="M9 23h1v1H9zM10 23h1v1h-1zM11 23h1v1h-1z"/><path fill="#7A8E92" d="M12 23h1v1h-1z"/><path fill="#768B8F" d="M13 23h1v1h-1zM14 23h1v1h-1zM15 23h1v1h-1zM16 23h1v1h-1zM17 23h1v1h-1z"/><path fill="#93A7AA" d="M18 23h1v1h-1z"/><path fill="#ABBDBF" d="M19 23h1v1h-1z"/><path fill="#C2D3D5" d="M20 23h1v1h-1z"/><path fill="#D4E4E5" d="M21 23h1v1h-1zM22 23h1v1h-1zM23 23h1v1h-1zM24 23h1v1h-1zM25 23h1v1h-1zM26 23h1v1h-1zM27 23h1v1h-1zM28 23h1v1h-1zM29 23h1v1h-1zM30 23h1v1h-1zM31 23h1v1h-1zM32 23h1v1h-1zM33 23h1v1h-1z"/><path fill="#C2D3D5" d="M34 23h1v1h-1z"/><path fill="#ABBDBF" d="M35 23h1v1h-1z"/><path fill="#93A7AA" d="M36 23h1v1h-1z"/><path fill="#768B8F" d="M37 23h1v1h-1zM38 23h1v1h-1zM39 23h1v1h-1zM40 23h1v1h-1zM41 23h1v1h-1z"/><path fill="#7D9296" d="M42 23h1v1h-1z"/><path fill="#768B8F" d="M43 23h1v1h-1zM44 23h1v1h-1zM45 23h1v1h-1z"/><path fill="#819599" d="M46 23h1v1h-1z"/><path fill="#ADBCC1" d="M47 23h1v1h-1z"/><path fill="#B1BFC4" d="M48 23h1v1h-1zM49 23h1v1h-1zM50 23h1v1h-1z"/><path fill="#3E3736" d="M51 23h1v1h-1z"/><path fill="#231815" d="M52 23h1v1h-1zM53 23h1v1h-1zM54 23h1v1h-1zM0 24h1v1H0zM1 24h1v1H1zM2 24h1v1H2z"/><path fill="#858B8D" d="M3 24h1v1H3z"/><path fill="#B1BFC4" d="M4 24h1v1H4zM5 24h1v1H5zM6 24h1v1H6z"/><path fill="#9BACB0" d="M7 24h1v1H7z"/><path fill="#768B8F" d="M8 24h1v1H8zM9 24h1v1H9zM10 24h1v1h-1z"/><path fill="#819599" d="M11 24h1v1h-1z"/><path fill="#ADBCC1" d="M12 24h1v1h-1z"/><path fill="#94A5AA" d="M13 24h1v1h-1z"/><path fill="#7A8E92" d="M14 24h1v1h-1z"/><path fill="#768B8F" d="M15 24h1v1h-1zM16 24h1v1h-1zM17 24h1v1h-1zM18 24h1v1h-1zM19 24h1v1h-1zM20 24h1v1h-1zM21 24h1v1h-1z"/><path fill="#82969A" d="M22 24h1v1h-1z"/><path fill="#8EA1A5" d="M23 24h1v1h-1z"/><path fill="#93A7AA" d="M24 24h1v1h-1z"/><path fill="#A5B8BA" d="M25 24h1v1h-1zM26 24h1v1h-1zM27 24h1v1h-1zM28 24h1v1h-1zM29 24h1v1h-1z"/><path fill="#93A7AA" d="M30 24h1v1h-1z"/><path fill="#8EA1A5" d="M31 24h1v1h-1z"/><path fill="#82969A" d="M32 24h1v1h-1z"/><path fill="#768B8F" d="M33 24h1v1h-1zM34 24h1v1h-1zM35 24h1v1h-1zM36 24h1v1h-1zM37 24h1v1h-1zM38 24h1v1h-1zM39 24h1v1h-1z"/><path fill="#7A8E92" d="M40 24h1v1h-1z"/><path fill="#94A5AA" d="M41 24h1v1h-1z"/><path fill="#B1BFC4" d="M42 24h1v1h-1z"/><path fill="#8C9FA3" d="M43 24h1v1h-1z"/><path fill="#768B8F" d="M44 24h1v1h-1zM45 24h1v1h-1zM46 24h1v1h-1z"/><path fill="#889BA0" d="M47 24h1v1h-1z"/><path fill="#B1BFC4" d="M48 24h1v1h-1zM49 24h1v1h-1zM50 24h1v1h-1z"/><path fill="#858B8D" d="M51 24h1v1h-1z"/><path fill="#231815" d="M52 24h1v1h-1zM53 24h1v1h-1zM54 24h1v1h-1zM0 25h1v1H0zM1 25h1v1H1zM2 25h1v1H2z"/><path fill="#B1BFC4" d="M3 25h1v1H3zM4 25h1v1H4zM5 25h1v1H5z"/><path fill="#9FAFB3" d="M6 25h1v1H6z"/><path fill="#768B8F" d="M7 25h1v1H7zM8 25h1v1H8zM9 25h1v1H9z"/><path fill="#819599" d="M10 25h1v1h-1z"/><path fill="#ADBCC1" d="M11 25h1v1h-1z"/><path fill="#B1BFC4" d="M12 25h1v1h-1zM13 25h1v1h-1z"/><path fill="#ADBCC1" d="M14 25h1v1h-1z"/><path fill="#94A5AA" d="M15 25h1v1h-1z"/><path fill="#7D9296" d="M16 25h1v1h-1z"/><path fill="#768B8F" d="M17 25h1v1h-1zM18 25h1v1h-1zM19 25h1v1h-1zM20 25h1v1h-1zM21 25h1v1h-1zM22 25h1v1h-1zM23 25h1v1h-1zM24 25h1v1h-1zM25 25h1v1h-1zM26 25h1v1h-1zM27 25h1v1h-1zM28 25h1v1h-1zM29 25h1v1h-1zM30 25h1v1h-1zM31 25h1v1h-1zM32 25h1v1h-1zM33 25h1v1h-1zM34 25h1v1h-1zM35 25h1v1h-1zM36 25h1v1h-1zM37 25h1v1h-1z"/><path fill="#7D9296" d="M38 25h1v1h-1z"/><path fill="#94A5AA" d="M39 25h1v1h-1z"/><path fill="#ADBCC1" d="M40 25h1v1h-1z"/><path fill="#B1BFC4" d="M41 25h1v1h-1zM42 25h1v1h-1zM43 25h1v1h-1z"/><path fill="#8C9FA3" d="M44 25h1v1h-1z"/><path fill="#768B8F" d="M45 25h1v1h-1zM46 25h1v1h-1zM47 25h1v1h-1z"/><path fill="#94A5AA" d="M48 25h1v1h-1z"/><path fill="#B1BFC4" d="M49 25h1v1h-1zM50 25h1v1h-1zM51 25h1v1h-1z"/><path fill="#231815" d="M52 25h1v1h-1zM53 25h1v1h-1zM54 25h1v1h-1zM0 26h1v1H0zM1 26h1v1H1zM2 26h1v1H2z"/><path fill="#B1BFC4" d="M3 26h1v1H3zM4 26h1v1H4z"/><path fill="#A6B5BA" d="M5 26h1v1H5z"/><path fill="#7A8E92" d="M6 26h1v1H6z"/><path fill="#768B8F" d="M7 26h1v1H7zM8 26h1v1H8z"/><path fill="#819599" d="M9 26h1v1H9z"/><path fill="#ADBCC1" d="M10 26h1v1h-1z"/><path fill="#B1BFC4" d="M11 26h1v1h-1zM12 26h1v1h-1zM13 26h1v1h-1zM14 26h1v1h-1zM15 26h1v1h-1zM16 26h1v1h-1z"/><path fill="#A6B5BA" d="M17 26h1v1h-1z"/><path fill="#9EB1B4" d="M18 26h1v1h-1z"/><path fill="#93A7AA" d="M19 26h1v1h-1z"/><path fill="#7C9194" d="M20 26h1v1h-1z"/><path fill="#768B8F" d="M21 26h1v1h-1zM22 26h1v1h-1zM23 26h1v1h-1zM24 26h1v1h-1zM25 26h1v1h-1zM26 26h1v1h-1zM27 26h1v1h-1zM28 26h1v1h-1zM29 26h1v1h-1zM30 26h1v1h-1zM31 26h1v1h-1zM32 26h1v1h-1zM33 26h1v1h-1z"/><path fill="#7A8E92" d="M34 26h1v1h-1z"/><path fill="#889BA0" d="M35 26h1v1h-1z"/><path fill="#94A5AA" d="M36 26h1v1h-1z"/><path fill="#A6B5BA" d="M37 26h1v1h-1z"/><path fill="#B1BFC4" d="M38 26h1v1h-1zM39 26h1v1h-1zM40 26h1v1h-1zM41 26h1v1h-1zM42 26h1v1h-1zM43 26h1v1h-1zM44 26h1v1h-1z"/><path fill="#8C9FA3" d="M45 26h1v1h-1z"/><path fill="#768B8F" d="M46 26h1v1h-1zM47 26h1v1h-1zM48 26h1v1h-1z"/><path fill="#A2B2B7" d="M49 26h1v1h-1z"/><path fill="#B1BFC4" d="M50 26h1v1h-1zM51 26h1v1h-1z"/><path fill="#231815" d="M52 26h1v1h-1zM53 26h1v1h-1zM54 26h1v1h-1zM0 27h1v1H0zM1 27h1v1H1zM2 27h1v1H2z"/><path fill="#AAB9BD" d="M3 27h1v1H3z"/><path fill="#ADBCC1" d="M4 27h1v1H4z"/><path fill="#7D9296" d="M5 27h1v1H5z"/><path fill="#768B8F" d="M6 27h1v1H6zM7 27h1v1H7z"/><path fill="#7A8E92" d="M8 27h1v1H8z"/><path fill="#AAB9BD" d="M9 27h1v1H9z"/><path fill="#B1BFC4" d="M10 27h1v1h-1zM11 27h1v1h-1zM12 27h1v1h-1zM13 27h1v1h-1zM14 27h1v1h-1zM15 27h1v1h-1zM16 27h1v1h-1z"/><path fill="#B3C1C6" d="M17 27h1v1h-1z"/><path fill="#D2E2E3" d="M18 27h1v1h-1z"/><path fill="#D4E4E5" d="M19 27h1v1h-1zM20 27h1v1h-1zM21 27h1v1h-1z"/><path fill="#BDCED0" d="M22 27h1v1h-1zM23 27h1v1h-1z"/><path fill="#B1C3C5" d="M24 27h1v1h-1z"/><path fill="#A5B8BA" d="M25 27h1v1h-1z"/><path fill="#A1B3B6" d="M26 27h1v1h-1z"/><path fill="#94A5AA" d="M27 27h1v1h-1zM28 27h1v1h-1zM29 27h1v1h-1z"/><path fill="#9BACB0" d="M30 27h1v1h-1z"/><path fill="#A2B2B7" d="M31 27h1v1h-1zM32 27h1v1h-1z"/><path fill="#B1BFC4" d="M33 27h1v1h-1zM34 27h1v1h-1zM35 27h1v1h-1zM36 27h1v1h-1zM37 27h1v1h-1zM38 27h1v1h-1zM39 27h1v1h-1zM40 27h1v1h-1zM41 27h1v1h-1zM42 27h1v1h-1zM43 27h1v1h-1zM44 27h1v1h-1z"/><path fill="#ADBCC1" d="M45 27h1v1h-1z"/><path fill="#819599" d="M46 27h1v1h-1z"/><path fill="#768B8F" d="M47 27h1v1h-1zM48 27h1v1h-1z"/><path fill="#7D9296" d="M49 27h1v1h-1z"/><path fill="#ADBCC1" d="M50 27h1v1h-1z"/><path fill="#AAB9BD" d="M51 27h1v1h-1z"/><path fill="#231815" d="M52 27h1v1h-1zM53 27h1v1h-1zM54 27h1v1h-1zM0 28h1v1H0zM1 28h1v1H1zM2 28h1v1H2z"/><path fill="#819599" d="M3 28h1v1H3z"/><path fill="#94A5AA" d="M4 28h1v1H4z"/><path fill="#768B8F" d="M5 28h1v1H5zM6 28h1v1H6zM7 28h1v1H7z"/><path fill="#A6B5BA" d="M8 28h1v1H8z"/><path fill="#B1BFC4" d="M9 28h1v1H9zM10 28h1v1h-1zM11 28h1v1h-1zM12 28h1v1h-1zM13 28h1v1h-1zM14 28h1v1h-1zM15 28h1v1h-1zM16 28h1v1h-1z"/><path fill="#C3D2D5" d="M17 28h1v1h-1z"/><path fill="#D4E4E5" d="M18 28h1v1h-1zM19 28h1v1h-1zM20 28h1v1h-1zM21 28h1v1h-1zM22 28h1v1h-1zM23 28h1v1h-1zM24 28h1v1h-1zM25 28h1v1h-1z"/><path fill="#CBDBDD" d="M26 28h1v1h-1z"/><path fill="#B1BFC4" d="M27 28h1v1h-1zM28 28h1v1h-1zM29 28h1v1h-1zM30 28h1v1h-1zM31 28h1v1h-1zM32 28h1v1h-1zM33 28h1v1h-1zM34 28h1v1h-1zM35 28h1v1h-1zM36 28h1v1h-1zM37 28h1v1h-1zM38 28h1v1h-1zM39 28h1v1h-1zM40 28h1v1h-1zM41 28h1v1h-1zM42 28h1v1h-1zM43 28h1v1h-1zM44 28h1v1h-1zM45 28h1v1h-1z"/><path fill="#A6B5BA" d="M46 28h1v1h-1z"/><path fill="#7A8E92" d="M47 28h1v1h-1z"/><path fill="#768B8F" d="M48 28h1v1h-1zM49 28h1v1h-1z"/><path fill="#94A5AA" d="M50 28h1v1h-1z"/><path fill="#819599" d="M51 28h1v1h-1z"/><path fill="#231815" d="M52 28h1v1h-1zM53 28h1v1h-1zM54 28h1v1h-1zM0 29h1v1H0zM1 29h1v1H1zM2 29h1v1H2z"/><path fill="#768B8F" d="M3 29h1v1H3zM4 29h1v1H4zM5 29h1v1H5zM6 29h1v1H6z"/><path fill="#94A5AA" d="M7 29h1v1H7z"/><path fill="#B1BFC4" d="M8 29h1v1H8zM9 29h1v1H9zM10 29h1v1h-1zM11 29h1v1h-1zM12 29h1v1h-1zM13 29h1v1h-1zM14 29h1v1h-1zM15 29h1v1h-1zM16 29h1v1h-1z"/><path fill="#D2E2E3" d="M17 29h1v1h-1z"/><path fill="#D4E4E5" d="M18 29h1v1h-1zM19 29h1v1h-1zM20 29h1v1h-1zM21 29h1v1h-1zM22 29h1v1h-1zM23 29h1v1h-1zM24 29h1v1h-1zM25 29h1v1h-1z"/><path fill="#CBDBDD" d="M26 29h1v1h-1z"/><path fill="#B1BFC4" d="M27 29h1v1h-1zM28 29h1v1h-1zM29 29h1v1h-1zM30 29h1v1h-1zM31 29h1v1h-1zM32 29h1v1h-1zM33 29h1v1h-1zM34 29h1v1h-1zM35 29h1v1h-1zM36 29h1v1h-1zM37 29h1v1h-1zM38 29h1v1h-1zM39 29h1v1h-1zM40 29h1v1h-1zM41 29h1v1h-1zM42 29h1v1h-1zM43 29h1v1h-1zM44 29h1v1h-1zM45 29h1v1h-1zM46 29h1v1h-1z"/><path fill="#94A5AA" d="M47 29h1v1h-1z"/><path fill="#768B8F" d="M48 29h1v1h-1zM49 29h1v1h-1zM50 29h1v1h-1zM51 29h1v1h-1z"/><path fill="#231815" d="M52 29h1v1h-1zM53 29h1v1h-1zM54 29h1v1h-1zM0 30h1v1H0zM1 30h1v1H1zM2 30h1v1H2z"/><path fill="#768B8F" d="M3 30h1v1H3zM4 30h1v1H4zM5 30h1v1H5z"/><path fill="#7D9296" d="M6 30h1v1H6z"/><path fill="#B1BFC4" d="M7 30h1v1H7zM8 30h1v1H8zM9 30h1v1H9zM10 30h1v1h-1zM11 30h1v1h-1zM12 30h1v1h-1zM13 30h1v1h-1zM14 30h1v1h-1zM15 30h1v1h-1z"/><path fill="#BCCBCE" d="M16 30h1v1h-1z"/><path fill="#D4E4E5" d="M17 30h1v1h-1zM18 30h1v1h-1zM19 30h1v1h-1zM20 30h1v1h-1zM21 30h1v1h-1zM22 30h1v1h-1zM23 30h1v1h-1zM24 30h1v1h-1zM25 30h1v1h-1z"/><path fill="#CBDBDD" d="M26 30h1v1h-1z"/><path fill="#B1BFC4" d="M27 30h1v1h-1zM28 30h1v1h-1zM29 30h1v1h-1zM30 30h1v1h-1zM31 30h1v1h-1zM32 30h1v1h-1zM33 30h1v1h-1zM34 30h1v1h-1zM35 30h1v1h-1zM36 30h1v1h-1zM37 30h1v1h-1zM38 30h1v1h-1zM39 30h1v1h-1zM40 30h1v1h-1zM41 30h1v1h-1zM42 30h1v1h-1zM43 30h1v1h-1zM44 30h1v1h-1zM45 30h1v1h-1zM46 30h1v1h-1z"/><path fill="#ADBCC1" d="M47 30h1v1h-1z"/><path fill="#7A8E92" d="M48 30h1v1h-1z"/><path fill="#768B8F" d="M49 30h1v1h-1zM50 30h1v1h-1zM51 30h1v1h-1z"/><path fill="#231815" d="M52 30h1v1h-1zM53 30h1v1h-1zM54 30h1v1h-1zM0 31h1v1H0zM1 31h1v1H1zM2 31h1v1H2z"/><path fill="#768B8F" d="M3 31h1v1H3zM4 31h1v1H4zM5 31h1v1H5zM6 31h1v1H6z"/><path fill="#85989C" d="M7 31h1v1H7z"/><path fill="#A2B2B7" d="M8 31h1v1H8z"/><path fill="#B1BFC4" d="M9 31h1v1H9zM10 31h1v1h-1zM11 31h1v1h-1zM12 31h1v1h-1zM13 31h1v1h-1zM14 31h1v1h-1zM15 31h1v1h-1z"/><path fill="#C7D6D9" d="M16 31h1v1h-1z"/><path fill="#D4E4E5" d="M17 31h1v1h-1zM18 31h1v1h-1zM19 31h1v1h-1zM20 31h1v1h-1zM21 31h1v1h-1zM22 31h1v1h-1zM23 31h1v1h-1zM24 31h1v1h-1zM25 31h1v1h-1z"/><path fill="#CBDBDD" d="M26 31h1v1h-1z"/><path fill="#B1BFC4" d="M27 31h1v1h-1zM28 31h1v1h-1zM29 31h1v1h-1zM30 31h1v1h-1zM31 31h1v1h-1zM32 31h1v1h-1zM33 31h1v1h-1zM34 31h1v1h-1zM35 31h1v1h-1zM36 31h1v1h-1zM37 31h1v1h-1zM38 31h1v1h-1zM39 31h1v1h-1zM40 31h1v1h-1zM41 31h1v1h-1zM42 31h1v1h-1zM43 31h1v1h-1zM44 31h1v1h-1zM45 31h1v1h-1z"/><path fill="#A2B2B7" d="M46 31h1v1h-1z"/><path fill="#85989C" d="M47 31h1v1h-1z"/><path fill="#768B8F" d="M48 31h1v1h-1zM49 31h1v1h-1zM50 31h1v1h-1zM51 31h1v1h-1z"/><path fill="#231815" d="M52 31h1v1h-1zM53 31h1v1h-1zM54 31h1v1h-1zM0 32h1v1H0zM1 32h1v1H1zM2 32h1v1H2z"/><path fill="#999978" d="M3 32h1v1H3z"/><path fill="#768B8F" d="M4 32h1v1H4zM5 32h1v1H5zM6 32h1v1H6zM7 32h1v1H7zM8 32h1v1H8z"/><path fill="#85989C" d="M9 32h1v1H9z"/><path fill="#9BACB0" d="M10 32h1v1h-1z"/><path fill="#ADBCC1" d="M11 32h1v1h-1z"/><path fill="#B1BFC4" d="M12 32h1v1h-1zM13 32h1v1h-1zM14 32h1v1h-1zM15 32h1v1h-1z"/><path fill="#D2E2E3" d="M16 32h1v1h-1z"/><path fill="#D4E4E5" d="M17 32h1v1h-1zM18 32h1v1h-1zM19 32h1v1h-1zM20 32h1v1h-1zM21 32h1v1h-1zM22 32h1v1h-1zM23 32h1v1h-1zM24 32h1v1h-1zM25 32h1v1h-1z"/><path fill="#CBDBDD" d="M26 32h1v1h-1z"/><path fill="#B1BFC4" d="M27 32h1v1h-1zM28 32h1v1h-1zM29 32h1v1h-1zM30 32h1v1h-1zM31 32h1v1h-1zM32 32h1v1h-1zM33 32h1v1h-1zM34 32h1v1h-1zM35 32h1v1h-1zM36 32h1v1h-1zM37 32h1v1h-1zM38 32h1v1h-1zM39 32h1v1h-1zM40 32h1v1h-1zM41 32h1v1h-1zM42 32h1v1h-1z"/><path fill="#ADBCC1" d="M43 32h1v1h-1z"/><path fill="#9BACB0" d="M44 32h1v1h-1z"/><path fill="#85989C" d="M45 32h1v1h-1z"/><path fill="#768B8F" d="M46 32h1v1h-1zM47 32h1v1h-1zM48 32h1v1h-1zM49 32h1v1h-1zM50 32h1v1h-1z"/><path fill="#96977B" d="M51 32h1v1h-1z"/><path fill="#231815" d="M52 32h1v1h-1zM53 32h1v1h-1zM54 32h1v1h-1zM0 33h1v1H0zM1 33h1v1H1zM2 33h1v1H2z"/><path fill="#B5A366" d="M3 33h1v1H3z"/><path fill="#ADA06B" d="M4 33h1v1H4z"/><path fill="#869185" d="M5 33h1v1H5z"/><path fill="#768B8F" d="M6 33h1v1H6zM7 33h1v1H7zM8 33h1v1H8zM9 33h1v1H9zM10 33h1v1h-1zM11 33h1v1h-1z"/><path fill="#889BA0" d="M12 33h1v1h-1z"/><path fill="#9BACB0" d="M13 33h1v1h-1z"/><path fill="#AAB9BD" d="M14 33h1v1h-1z"/><path fill="#B8C6CA" d="M15 33h1v1h-1z"/><path fill="#D4E4E5" d="M16 33h1v1h-1zM17 33h1v1h-1zM18 33h1v1h-1zM19 33h1v1h-1zM20 33h1v1h-1zM21 33h1v1h-1zM22 33h1v1h-1zM23 33h1v1h-1zM24 33h1v1h-1zM25 33h1v1h-1z"/><path fill="#CBDBDD" d="M26 33h1v1h-1z"/><path fill="#B1BFC4" d="M27 33h1v1h-1zM28 33h1v1h-1zM29 33h1v1h-1zM30 33h1v1h-1zM31 33h1v1h-1zM32 33h1v1h-1zM33 33h1v1h-1zM34 33h1v1h-1zM35 33h1v1h-1zM36 33h1v1h-1zM37 33h1v1h-1zM38 33h1v1h-1zM39 33h1v1h-1z"/><path fill="#AAB9BD" d="M40 33h1v1h-1z"/><path fill="#97A8AD" d="M41 33h1v1h-1z"/><path fill="#889BA0" d="M42 33h1v1h-1z"/><path fill="#768B8F" d="M43 33h1v1h-1zM44 33h1v1h-1zM45 33h1v1h-1zM46 33h1v1h-1zM47 33h1v1h-1zM48 33h1v1h-1z"/><path fill="#869185" d="M49 33h1v1h-1z"/><path fill="#A99F6E" d="M50 33h1v1h-1z"/><path fill="#B5A366" d="M51 33h1v1h-1z"/><path fill="#231815" d="M52 33h1v1h-1zM53 33h1v1h-1zM54 33h1v1h-1zM0 34h1v1H0zM1 34h1v1H1zM2 34h1v1H2z"/><path fill="#B5A366" d="M3 34h1v1H3zM4 34h1v1H4zM5 34h1v1H5z"/><path fill="#A59D70" d="M6 34h1v1H6z"/><path fill="#869185" d="M7 34h1v1H7z"/><path fill="#768B8F" d="M8 34h1v1H8zM9 34h1v1H9zM10 34h1v1h-1zM11 34h1v1h-1zM12 34h1v1h-1zM13 34h1v1h-1z"/><path fill="#97A8AD" d="M14 34h1v1h-1z"/><path fill="#B3C1C6" d="M15 34h1v1h-1z"/><path fill="#BAC8CC" d="M16 34h1v1h-1z"/><path fill="#C3D2D5" d="M17 34h1v1h-1z"/><path fill="#C7D6D9" d="M18 34h1v1h-1z"/><path fill="#CBDBDD" d="M19 34h1v1h-1z"/><path fill="#D2E2E3" d="M20 34h1v1h-1z"/><path fill="#D4E4E5" d="M21 34h1v1h-1zM22 34h1v1h-1zM23 34h1v1h-1zM24 34h1v1h-1zM25 34h1v1h-1z"/><path fill="#CBDBDD" d="M26 34h1v1h-1z"/><path fill="#B1BFC4" d="M27 34h1v1h-1zM28 34h1v1h-1zM29 34h1v1h-1zM30 34h1v1h-1zM31 34h1v1h-1zM32 34h1v1h-1zM33 34h1v1h-1z"/><path fill="#ADBCC1" d="M34 34h1v1h-1z"/><path fill="#A2B2B7" d="M35 34h1v1h-1z"/><path fill="#9FAFB3" d="M36 34h1v1h-1z"/><path fill="#94A5AA" d="M37 34h1v1h-1z"/><path fill="#85989C" d="M38 34h1v1h-1z"/><path fill="#7A8E92" d="M39 34h1v1h-1z"/><path fill="#768B8F" d="M40 34h1v1h-1zM41 34h1v1h-1zM42 34h1v1h-1zM43 34h1v1h-1zM44 34h1v1h-1zM45 34h1v1h-1zM46 34h1v1h-1z"/><path fill="#869185" d="M47 34h1v1h-1z"/><path fill="#A59D70" d="M48 34h1v1h-1z"/><path fill="#B5A366" d="M49 34h1v1h-1zM50 34h1v1h-1zM51 34h1v1h-1z"/><path fill="#231815" d="M52 34h1v1h-1zM53 34h1v1h-1zM54 34h1v1h-1zM0 35h1v1H0zM1 35h1v1H1zM2 35h1v1H2z"/><path fill="#B5A366" d="M3 35h1v1H3zM4 35h1v1H4zM5 35h1v1H5zM6 35h1v1H6zM7 35h1v1H7z"/><path fill="#ADA06B" d="M8 35h1v1H8z"/><path fill="#A2A98E" d="M9 35h1v1H9z"/><path fill="#859691" d="M10 35h1v1h-1z"/><path fill="#768B8F" d="M11 35h1v1h-1zM12 35h1v1h-1z"/><path fill="#819599" d="M13 35h1v1h-1z"/><path fill="#B1BFC4" d="M14 35h1v1h-1zM15 35h1v1h-1zM16 35h1v1h-1zM17 35h1v1h-1zM18 35h1v1h-1zM19 35h1v1h-1zM20 35h1v1h-1zM21 35h1v1h-1z"/><path fill="#B3C1C6" d="M22 35h1v1h-1z"/><path fill="#BAC8CC" d="M23 35h1v1h-1zM24 35h1v1h-1zM25 35h1v1h-1z"/><path fill="#B8C6CA" d="M26 35h1v1h-1z"/><path fill="#B1BFC4" d="M27 35h1v1h-1zM28 35h1v1h-1zM29 35h1v1h-1zM30 35h1v1h-1zM31 35h1v1h-1zM32 35h1v1h-1zM33 35h1v1h-1zM34 35h1v1h-1z"/><path fill="#97A8AD" d="M35 35h1v1h-1z"/><path fill="#768B8F" d="M36 35h1v1h-1zM37 35h1v1h-1zM38 35h1v1h-1zM39 35h1v1h-1zM40 35h1v1h-1zM41 35h1v1h-1zM42 35h1v1h-1zM43 35h1v1h-1z"/><path fill="#7E8E8A" d="M44 35h1v1h-1z"/><path fill="#92967D" d="M45 35h1v1h-1z"/><path fill="#ADA06B" d="M46 35h1v1h-1z"/><path fill="#B5A366" d="M47 35h1v1h-1zM48 35h1v1h-1zM49 35h1v1h-1zM50 35h1v1h-1zM51 35h1v1h-1z"/><path fill="#231815" d="M52 35h1v1h-1zM53 35h1v1h-1zM54 35h1v1h-1zM0 36h1v1H0zM1 36h1v1H1zM2 36h1v1H2z"/><path fill="#B5A366" d="M3 36h1v1H3zM4 36h1v1H4zM5 36h1v1H5zM6 36h1v1H6zM7 36h1v1H7zM8 36h1v1H8z"/><path fill="#DED18F" d="M9 36h1v1H9z"/><path fill="#EBE09D" d="M10 36h1v1h-1z"/><path fill="#D5D09A" d="M11 36h1v1h-1z"/><path fill="#B8BB97" d="M12 36h1v1h-1z"/><path fill="#93A093" d="M13 36h1v1h-1z"/><path fill="#A6B5BA" d="M14 36h1v1h-1z"/><path fill="#B1BFC4" d="M15 36h1v1h-1zM16 36h1v1h-1zM17 36h1v1h-1zM18 36h1v1h-1zM19 36h1v1h-1zM20 36h1v1h-1zM21 36h1v1h-1zM22 36h1v1h-1zM23 36h1v1h-1zM24 36h1v1h-1zM25 36h1v1h-1zM26 36h1v1h-1zM27 36h1v1h-1zM28 36h1v1h-1zM29 36h1v1h-1zM30 36h1v1h-1zM31 36h1v1h-1zM32 36h1v1h-1zM33 36h1v1h-1zM34 36h1v1h-1z"/><path fill="#A2B2B7" d="M35 36h1v1h-1z"/><path fill="#768B8F" d="M36 36h1v1h-1zM37 36h1v1h-1zM38 36h1v1h-1zM39 36h1v1h-1zM40 36h1v1h-1z"/><path fill="#93A093" d="M41 36h1v1h-1z"/><path fill="#A7A886" d="M42 36h1v1h-1z"/><path fill="#A99F6E" d="M43 36h1v1h-1z"/><path fill="#B5A366" d="M44 36h1v1h-1zM45 36h1v1h-1zM46 36h1v1h-1zM47 36h1v1h-1zM48 36h1v1h-1zM49 36h1v1h-1zM50 36h1v1h-1zM51 36h1v1h-1z"/><path fill="#231815" d="M52 36h1v1h-1zM53 36h1v1h-1zM54 36h1v1h-1zM0 37h1v1H0zM1 37h1v1H1zM2 37h1v1H2z"/><path fill="#B5A366" d="M3 37h1v1H3zM4 37h1v1H4zM5 37h1v1H5zM6 37h1v1H6zM7 37h1v1H7zM8 37h1v1H8z"/><path fill="#DED18F" d="M9 37h1v1H9z"/><path fill="#EBE09D" d="M10 37h1v1h-1zM11 37h1v1h-1zM12 37h1v1h-1zM13 37h1v1h-1zM14 37h1v1h-1z"/><path fill="#E0DAA4" d="M15 37h1v1h-1z"/><path fill="#DADBB9" d="M16 37h1v1h-1z"/><path fill="#D8DECB" d="M17 37h1v1h-1z"/><path fill="#C5CEC7" d="M18 37h1v1h-1z"/><path fill="#C0CAC6" d="M19 37h1v1h-1z"/><path fill="#B1BFC4" d="M20 37h1v1h-1zM21 37h1v1h-1zM22 37h1v1h-1zM23 37h1v1h-1zM24 37h1v1h-1zM25 37h1v1h-1zM26 37h1v1h-1zM27 37h1v1h-1zM28 37h1v1h-1zM29 37h1v1h-1zM30 37h1v1h-1zM31 37h1v1h-1zM32 37h1v1h-1zM33 37h1v1h-1zM34 37h1v1h-1z"/><path fill="#A2AEA6" d="M35 37h1v1h-1z"/><path fill="#93A093" d="M36 37h1v1h-1z"/><path fill="#B1B696" d="M37 37h1v1h-1z"/><path fill="#BFC098" d="M38 37h1v1h-1z"/><path fill="#D5D09A" d="M39 37h1v1h-1z"/><path fill="#EBE09D" d="M40 37h1v1h-1zM41 37h1v1h-1z"/><path fill="#D0C282" d="M42 37h1v1h-1z"/><path fill="#B5A366" d="M43 37h1v1h-1zM44 37h1v1h-1zM45 37h1v1h-1zM46 37h1v1h-1zM47 37h1v1h-1zM48 37h1v1h-1zM49 37h1v1h-1zM50 37h1v1h-1zM51 37h1v1h-1z"/><path fill="#231815" d="M52 37h1v1h-1zM53 37h1v1h-1zM54 37h1v1h-1zM0 38h1v1H0zM1 38h1v1H1zM2 38h1v1H2z"/><path fill="#A3925C" d="M3 38h1v1H3z"/><path fill="#B5A366" d="M4 38h1v1H4zM5 38h1v1H5zM6 38h1v1H6zM7 38h1v1H7zM8 38h1v1H8z"/><path fill="#DED18F" d="M9 38h1v1H9z"/><path fill="#EBE09D" d="M10 38h1v1h-1zM11 38h1v1h-1zM12 38h1v1h-1zM13 38h1v1h-1zM14 38h1v1h-1zM15 38h1v1h-1z"/><path fill="#F5EEB7" d="M16 38h1v1h-1z"/><path fill="#FFFCD1" d="M17 38h1v1h-1zM18 38h1v1h-1zM19 38h1v1h-1zM20 38h1v1h-1zM21 38h1v1h-1z"/><path fill="#F0F1CF" d="M22 38h1v1h-1z"/><path fill="#ECEDCE" d="M23 38h1v1h-1zM24 38h1v1h-1zM25 38h1v1h-1z"/><path fill="#E8E8C4" d="M26 38h1v1h-1z"/><path fill="#DDD8A7" d="M27 38h1v1h-1zM28 38h1v1h-1zM29 38h1v1h-1zM30 38h1v1h-1zM31 38h1v1h-1z"/><path fill="#E0DAA4" d="M32 38h1v1h-1z"/><path fill="#EBE09D" d="M33 38h1v1h-1zM34 38h1v1h-1zM35 38h1v1h-1zM36 38h1v1h-1zM37 38h1v1h-1zM38 38h1v1h-1zM39 38h1v1h-1zM40 38h1v1h-1zM41 38h1v1h-1z"/><path fill="#D0C282" d="M42 38h1v1h-1z"/><path fill="#B5A366" d="M43 38h1v1h-1zM44 38h1v1h-1zM45 38h1v1h-1zM46 38h1v1h-1zM47 38h1v1h-1zM48 38h1v1h-1zM49 38h1v1h-1zM50 38h1v1h-1zM51 38h1v1h-1z"/><path fill="#231815" d="M52 38h1v1h-1zM53 38h1v1h-1zM54 38h1v1h-1zM0 39h1v1H0zM1 39h1v1H1zM2 39h1v1H2z"/><path fill="#918052" d="M3 39h1v1H3z"/><path fill="#B5A366" d="M4 39h1v1H4zM5 39h1v1H5zM6 39h1v1H6zM7 39h1v1H7zM8 39h1v1H8z"/><path fill="#DED18F" d="M9 39h1v1H9z"/><path fill="#EBE09D" d="M10 39h1v1h-1zM11 39h1v1h-1zM12 39h1v1h-1zM13 39h1v1h-1zM14 39h1v1h-1zM15 39h1v1h-1z"/><path fill="#F5EEB7" d="M16 39h1v1h-1z"/><path fill="#FFFCD1" d="M17 39h1v1h-1zM18 39h1v1h-1zM19 39h1v1h-1zM20 39h1v1h-1zM21 39h1v1h-1zM22 39h1v1h-1zM23 39h1v1h-1zM24 39h1v1h-1zM25 39h1v1h-1z"/><path fill="#FAF5C4" d="M26 39h1v1h-1z"/><path fill="#EBE09D" d="M27 39h1v1h-1zM28 39h1v1h-1zM29 39h1v1h-1zM30 39h1v1h-1zM31 39h1v1h-1zM32 39h1v1h-1zM33 39h1v1h-1zM34 39h1v1h-1zM35 39h1v1h-1zM36 39h1v1h-1zM37 39h1v1h-1zM38 39h1v1h-1zM39 39h1v1h-1zM40 39h1v1h-1zM41 39h1v1h-1z"/><path fill="#D0C282" d="M42 39h1v1h-1z"/><path fill="#B5A366" d="M43 39h1v1h-1zM44 39h1v1h-1zM45 39h1v1h-1zM46 39h1v1h-1zM47 39h1v1h-1zM48 39h1v1h-1zM49 39h1v1h-1zM50 39h1v1h-1zM51 39h1v1h-1z"/><path fill="#231815" d="M52 39h1v1h-1zM53 39h1v1h-1zM54 39h1v1h-1zM0 40h1v1H0zM1 40h1v1H1zM2 40h1v1H2z"/><path fill="#918052" d="M3 40h1v1H3z"/><path fill="#B5A366" d="M4 40h1v1H4zM5 40h1v1H5zM6 40h1v1H6zM7 40h1v1H7zM8 40h1v1H8z"/><path fill="#DED18F" d="M9 40h1v1H9z"/><path fill="#EBE09D" d="M10 40h1v1h-1zM11 40h1v1h-1zM12 40h1v1h-1zM13 40h1v1h-1zM14 40h1v1h-1zM15 40h1v1h-1z"/><path fill="#F5EEB7" d="M16 40h1v1h-1z"/><path fill="#FFFCD1" d="M17 40h1v1h-1zM18 40h1v1h-1zM19 40h1v1h-1zM20 40h1v1h-1zM21 40h1v1h-1zM22 40h1v1h-1zM23 40h1v1h-1zM24 40h1v1h-1zM25 40h1v1h-1z"/><path fill="#FAF5C4" d="M26 40h1v1h-1z"/><path fill="#EBE09D" d="M27 40h1v1h-1zM28 40h1v1h-1zM29 40h1v1h-1zM30 40h1v1h-1zM31 40h1v1h-1zM32 40h1v1h-1zM33 40h1v1h-1zM34 40h1v1h-1zM35 40h1v1h-1zM36 40h1v1h-1zM37 40h1v1h-1zM38 40h1v1h-1zM39 40h1v1h-1zM40 40h1v1h-1zM41 40h1v1h-1z"/><path fill="#D0C282" d="M42 40h1v1h-1z"/><path fill="#B5A366" d="M43 40h1v1h-1zM44 40h1v1h-1zM45 40h1v1h-1zM46 40h1v1h-1zM47 40h1v1h-1zM48 40h1v1h-1zM49 40h1v1h-1zM50 40h1v1h-1z"/><path fill="#AC9A61" d="M51 40h1v1h-1z"/><path fill="#231815" d="M52 40h1v1h-1zM53 40h1v1h-1zM54 40h1v1h-1zM0 41h1v1H0zM1 41h1v1H1zM2 41h1v1H2z"/><path fill="#918052" d="M3 41h1v1H3z"/><path fill="#B5A366" d="M4 41h1v1H4zM5 41h1v1H5zM6 41h1v1H6zM7 41h1v1H7zM8 41h1v1H8z"/><path fill="#DED18F" d="M9 41h1v1H9z"/><path fill="#EBE09D" d="M10 41h1v1h-1zM11 41h1v1h-1zM12 41h1v1h-1zM13 41h1v1h-1zM14 41h1v1h-1zM15 41h1v1h-1z"/><path fill="#F5EEB7" d="M16 41h1v1h-1z"/><path fill="#FFFCD1" d="M17 41h1v1h-1zM18 41h1v1h-1zM19 41h1v1h-1zM20 41h1v1h-1zM21 41h1v1h-1zM22 41h1v1h-1zM23 41h1v1h-1zM24 41h1v1h-1zM25 41h1v1h-1z"/><path fill="#F8F2BE" d="M26 41h1v1h-1z"/><path fill="#EBE09D" d="M27 41h1v1h-1zM28 41h1v1h-1zM29 41h1v1h-1zM30 41h1v1h-1zM31 41h1v1h-1zM32 41h1v1h-1zM33 41h1v1h-1zM34 41h1v1h-1zM35 41h1v1h-1zM36 41h1v1h-1zM37 41h1v1h-1zM38 41h1v1h-1zM39 41h1v1h-1zM40 41h1v1h-1zM41 41h1v1h-1z"/><path fill="#D0C282" d="M42 41h1v1h-1z"/><path fill="#B5A366" d="M43 41h1v1h-1zM44 41h1v1h-1zM45 41h1v1h-1zM46 41h1v1h-1zM47 41h1v1h-1zM48 41h1v1h-1zM49 41h1v1h-1zM50 41h1v1h-1z"/><path fill="#918052" d="M51 41h1v1h-1z"/><path fill="#231815" d="M52 41h1v1h-1zM53 41h1v1h-1zM54 41h1v1h-1zM0 42h1v1H0zM1 42h1v1H1zM2 42h1v1H2z"/><path fill="#918052" d="M3 42h1v1H3z"/><path fill="#B5A366" d="M4 42h1v1H4zM5 42h1v1H5zM6 42h1v1H6zM7 42h1v1H7zM8 42h1v1H8z"/><path fill="#DED18F" d="M9 42h1v1H9z"/><path fill="#EBE09D" d="M10 42h1v1h-1zM11 42h1v1h-1zM12 42h1v1h-1zM13 42h1v1h-1zM14 42h1v1h-1zM15 42h1v1h-1z"/><path fill="#F5EEB7" d="M16 42h1v1h-1z"/><path fill="#FFFCD1" d="M17 42h1v1h-1zM18 42h1v1h-1zM19 42h1v1h-1zM20 42h1v1h-1zM21 42h1v1h-1zM22 42h1v1h-1zM23 42h1v1h-1zM24 42h1v1h-1zM25 42h1v1h-1z"/><path fill="#F5EEB7" d="M26 42h1v1h-1z"/><path fill="#EBE09D" d="M27 42h1v1h-1zM28 42h1v1h-1zM29 42h1v1h-1zM30 42h1v1h-1zM31 42h1v1h-1zM32 42h1v1h-1zM33 42h1v1h-1zM34 42h1v1h-1zM35 42h1v1h-1zM36 42h1v1h-1zM37 42h1v1h-1zM38 42h1v1h-1zM39 42h1v1h-1zM40 42h1v1h-1zM41 42h1v1h-1z"/><path fill="#D0C282" d="M42 42h1v1h-1z"/><path fill="#B5A366" d="M43 42h1v1h-1zM44 42h1v1h-1zM45 42h1v1h-1zM46 42h1v1h-1zM47 42h1v1h-1zM48 42h1v1h-1zM49 42h1v1h-1zM50 42h1v1h-1z"/><path fill="#918052" d="M51 42h1v1h-1z"/><path fill="#231815" d="M52 42h1v1h-1zM53 42h1v1h-1zM54 42h1v1h-1zM0 43h1v1H0zM1 43h1v1H1zM2 43h1v1H2z"/><path fill="#918052" d="M3 43h1v1H3z"/><path fill="#B5A366" d="M4 43h1v1H4zM5 43h1v1H5zM6 43h1v1H6zM7 43h1v1H7zM8 43h1v1H8z"/><path fill="#DED18F" d="M9 43h1v1H9z"/><path fill="#EBE09D" d="M10 43h1v1h-1zM11 43h1v1h-1zM12 43h1v1h-1zM13 43h1v1h-1zM14 43h1v1h-1zM15 43h1v1h-1z"/><path fill="#F5EEB7" d="M16 43h1v1h-1z"/><path fill="#FFFCD1" d="M17 43h1v1h-1zM18 43h1v1h-1zM19 43h1v1h-1zM20 43h1v1h-1zM21 43h1v1h-1zM22 43h1v1h-1zM23 43h1v1h-1zM24 43h1v1h-1zM25 43h1v1h-1z"/><path fill="#F5EEB7" d="M26 43h1v1h-1z"/><path fill="#EBE09D" d="M27 43h1v1h-1zM28 43h1v1h-1zM29 43h1v1h-1zM30 43h1v1h-1zM31 43h1v1h-1zM32 43h1v1h-1zM33 43h1v1h-1zM34 43h1v1h-1zM35 43h1v1h-1zM36 43h1v1h-1zM37 43h1v1h-1zM38 43h1v1h-1zM39 43h1v1h-1zM40 43h1v1h-1zM41 43h1v1h-1z"/><path fill="#D0C282" d="M42 43h1v1h-1z"/><path fill="#B5A366" d="M43 43h1v1h-1zM44 43h1v1h-1zM45 43h1v1h-1zM46 43h1v1h-1zM47 43h1v1h-1zM48 43h1v1h-1zM49 43h1v1h-1zM50 43h1v1h-1z"/><path fill="#918052" d="M51 43h1v1h-1z"/><path fill="#231815" d="M52 43h1v1h-1zM53 43h1v1h-1zM54 43h1v1h-1zM0 44h1v1H0zM1 44h1v1H1zM2 44h1v1H2z"/><path fill="#918052" d="M3 44h1v1H3z"/><path fill="#B5A366" d="M4 44h1v1H4zM5 44h1v1H5zM6 44h1v1H6zM7 44h1v1H7zM8 44h1v1H8z"/><path fill="#DED18F" d="M9 44h1v1H9z"/><path fill="#EBE09D" d="M10 44h1v1h-1zM11 44h1v1h-1zM12 44h1v1h-1zM13 44h1v1h-1zM14 44h1v1h-1zM15 44h1v1h-1z"/><path fill="#F5EEB7" d="M16 44h1v1h-1z"/><path fill="#FFFCD1" d="M17 44h1v1h-1zM18 44h1v1h-1zM19 44h1v1h-1zM20 44h1v1h-1zM21 44h1v1h-1zM22 44h1v1h-1zM23 44h1v1h-1zM24 44h1v1h-1zM25 44h1v1h-1z"/><path fill="#F5EEB7" d="M26 44h1v1h-1z"/><path fill="#EBE09D" d="M27 44h1v1h-1zM28 44h1v1h-1zM29 44h1v1h-1zM30 44h1v1h-1zM31 44h1v1h-1zM32 44h1v1h-1zM33 44h1v1h-1zM34 44h1v1h-1zM35 44h1v1h-1zM36 44h1v1h-1zM37 44h1v1h-1zM38 44h1v1h-1zM39 44h1v1h-1zM40 44h1v1h-1zM41 44h1v1h-1z"/><path fill="#D0C282" d="M42 44h1v1h-1z"/><path fill="#B5A366" d="M43 44h1v1h-1zM44 44h1v1h-1zM45 44h1v1h-1zM46 44h1v1h-1zM47 44h1v1h-1zM48 44h1v1h-1zM49 44h1v1h-1zM50 44h1v1h-1z"/><path fill="#918052" d="M51 44h1v1h-1z"/><path fill="#231815" d="M52 44h1v1h-1zM53 44h1v1h-1zM54 44h1v1h-1zM0 45h1v1H0zM1 45h1v1H1zM2 45h1v1H2z"/><path fill="#918052" d="M3 45h1v1H3z"/><path fill="#B5A366" d="M4 45h1v1H4zM5 45h1v1H5zM6 45h1v1H6zM7 45h1v1H7zM8 45h1v1H8z"/><path fill="#DED18F" d="M9 45h1v1H9z"/><path fill="#EBE09D" d="M10 45h1v1h-1zM11 45h1v1h-1zM12 45h1v1h-1zM13 45h1v1h-1zM14 45h1v1h-1zM15 45h1v1h-1z"/><path fill="#F5EEB7" d="M16 45h1v1h-1z"/><path fill="#FFFCD1" d="M17 45h1v1h-1zM18 45h1v1h-1zM19 45h1v1h-1zM20 45h1v1h-1zM21 45h1v1h-1zM22 45h1v1h-1zM23 45h1v1h-1zM24 45h1v1h-1zM25 45h1v1h-1z"/><path fill="#F5EEB7" d="M26 45h1v1h-1z"/><path fill="#EBE09D" d="M27 45h1v1h-1zM28 45h1v1h-1zM29 45h1v1h-1zM30 45h1v1h-1zM31 45h1v1h-1zM32 45h1v1h-1zM33 45h1v1h-1zM34 45h1v1h-1zM35 45h1v1h-1zM36 45h1v1h-1zM37 45h1v1h-1zM38 45h1v1h-1zM39 45h1v1h-1zM40 45h1v1h-1zM41 45h1v1h-1z"/><path fill="#D0C282" d="M42 45h1v1h-1z"/><path fill="#B5A366" d="M43 45h1v1h-1zM44 45h1v1h-1zM45 45h1v1h-1zM46 45h1v1h-1zM47 45h1v1h-1zM48 45h1v1h-1zM49 45h1v1h-1zM50 45h1v1h-1z"/><path fill="#918052" d="M51 45h1v1h-1z"/><path fill="#231815" d="M52 45h1v1h-1zM53 45h1v1h-1zM54 45h1v1h-1zM0 46h1v1H0zM1 46h1v1H1zM2 46h1v1H2z"/><path fill="#918052" d="M3 46h1v1H3z"/><path fill="#B5A366" d="M4 46h1v1H4zM5 46h1v1H5zM6 46h1v1H6zM7 46h1v1H7zM8 46h1v1H8z"/><path fill="#DED18F" d="M9 46h1v1H9z"/><path fill="#EBE09D" d="M10 46h1v1h-1zM11 46h1v1h-1zM12 46h1v1h-1zM13 46h1v1h-1zM14 46h1v1h-1zM15 46h1v1h-1z"/><path fill="#F5EEB7" d="M16 46h1v1h-1z"/><path fill="#FFFCD1" d="M17 46h1v1h-1zM18 46h1v1h-1zM19 46h1v1h-1zM20 46h1v1h-1zM21 46h1v1h-1zM22 46h1v1h-1zM23 46h1v1h-1zM24 46h1v1h-1zM25 46h1v1h-1z"/><path fill="#F5EEB7" d="M26 46h1v1h-1z"/><path fill="#EBE09D" d="M27 46h1v1h-1zM28 46h1v1h-1zM29 46h1v1h-1zM30 46h1v1h-1zM31 46h1v1h-1zM32 46h1v1h-1zM33 46h1v1h-1zM34 46h1v1h-1zM35 46h1v1h-1zM36 46h1v1h-1zM37 46h1v1h-1zM38 46h1v1h-1zM39 46h1v1h-1zM40 46h1v1h-1zM41 46h1v1h-1z"/><path fill="#D0C282" d="M42 46h1v1h-1z"/><path fill="#B5A366" d="M43 46h1v1h-1zM44 46h1v1h-1zM45 46h1v1h-1zM46 46h1v1h-1zM47 46h1v1h-1zM48 46h1v1h-1zM49 46h1v1h-1zM50 46h1v1h-1z"/><path fill="#918052" d="M51 46h1v1h-1z"/><path fill="#231815" d="M52 46h1v1h-1zM53 46h1v1h-1zM54 46h1v1h-1zM0 47h1v1H0zM1 47h1v1H1zM2 47h1v1H2z"/><path fill="#918052" d="M3 47h1v1H3z"/><path fill="#B5A366" d="M4 47h1v1H4zM5 47h1v1H5zM6 47h1v1H6zM7 47h1v1H7zM8 47h1v1H8z"/><path fill="#DED18F" d="M9 47h1v1H9z"/><path fill="#EBE09D" d="M10 47h1v1h-1zM11 47h1v1h-1zM12 47h1v1h-1zM13 47h1v1h-1zM14 47h1v1h-1zM15 47h1v1h-1z"/><path fill="#F5EEB7" d="M16 47h1v1h-1z"/><path fill="#FFFCD1" d="M17 47h1v1h-1zM18 47h1v1h-1zM19 47h1v1h-1zM20 47h1v1h-1zM21 47h1v1h-1z"/><path fill="#EFE9C3" d="M22 47h1v1h-1z"/><path fill="#D4CBAC" d="M23 47h1v1h-1z"/><path fill="#BEB29A" d="M24 47h1v1h-1z"/><path fill="#AD9F8C" d="M25 47h1v1h-1z"/><path fill="#9E8D7C" d="M26 47h1v1h-1z"/><path fill="#938170" d="M27 47h1v1h-1z"/><path fill="#998773" d="M28 47h1v1h-1z"/><path fill="#A9997B" d="M29 47h1v1h-1z"/><path fill="#B4A581" d="M30 47h1v1h-1z"/><path fill="#C5B689" d="M31 47h1v1h-1z"/><path fill="#E0D497" d="M32 47h1v1h-1z"/><path fill="#EBE09D" d="M33 47h1v1h-1zM34 47h1v1h-1zM35 47h1v1h-1zM36 47h1v1h-1zM37 47h1v1h-1zM38 47h1v1h-1zM39 47h1v1h-1zM40 47h1v1h-1zM41 47h1v1h-1z"/><path fill="#D0C282" d="M42 47h1v1h-1z"/><path fill="#B5A366" d="M43 47h1v1h-1zM44 47h1v1h-1zM45 47h1v1h-1zM46 47h1v1h-1zM47 47h1v1h-1zM48 47h1v1h-1zM49 47h1v1h-1zM50 47h1v1h-1z"/><path fill="#918052" d="M51 47h1v1h-1z"/><path fill="#231815" d="M52 47h1v1h-1zM53 47h1v1h-1zM54 47h1v1h-1zM0 48h1v1H0zM1 48h1v1H1zM2 48h1v1H2z"/><path fill="#918052" d="M3 48h1v1H3z"/><path fill="#B5A366" d="M4 48h1v1H4zM5 48h1v1H5zM6 48h1v1H6zM7 48h1v1H7zM8 48h1v1H8z"/><path fill="#DED18F" d="M9 48h1v1H9z"/><path fill="#EBE09D" d="M10 48h1v1h-1zM11 48h1v1h-1zM12 48h1v1h-1zM13 48h1v1h-1zM14 48h1v1h-1zM15 48h1v1h-1z"/><path fill="#F5EEB7" d="M16 48h1v1h-1z"/><path fill="#FFFCD1" d="M17 48h1v1h-1zM18 48h1v1h-1zM19 48h1v1h-1z"/><path fill="#E4DDBA" d="M20 48h1v1h-1z"/><path fill="#B8AC95" d="M21 48h1v1h-1z"/><path fill="#A89987" d="M22 48h1v1h-1zM23 48h1v1h-1zM24 48h1v1h-1zM25 48h1v1h-1z"/><path fill="#9E8D7C" d="M26 48h1v1h-1z"/><path fill="#938170" d="M27 48h1v1h-1zM28 48h1v1h-1zM29 48h1v1h-1zM30 48h1v1h-1zM31 48h1v1h-1zM32 48h1v1h-1z"/><path fill="#A9997B" d="M33 48h1v1h-1z"/><path fill="#D5C892" d="M34 48h1v1h-1z"/><path fill="#EBE09D" d="M35 48h1v1h-1zM36 48h1v1h-1zM37 48h1v1h-1zM38 48h1v1h-1zM39 48h1v1h-1zM40 48h1v1h-1zM41 48h1v1h-1z"/><path fill="#D0C282" d="M42 48h1v1h-1z"/><path fill="#B5A366" d="M43 48h1v1h-1zM44 48h1v1h-1zM45 48h1v1h-1zM46 48h1v1h-1zM47 48h1v1h-1zM48 48h1v1h-1zM49 48h1v1h-1zM50 48h1v1h-1z"/><path fill="#918052" d="M51 48h1v1h-1z"/><path fill="#231815" d="M52 48h1v1h-1zM53 48h1v1h-1zM54 48h1v1h-1zM0 49h1v1H0zM1 49h1v1H1zM2 49h1v1H2z"/><path fill="#918052" d="M3 49h1v1H3z"/><path fill="#B5A366" d="M4 49h1v1H4zM5 49h1v1H5zM6 49h1v1H6zM7 49h1v1H7zM8 49h1v1H8z"/><path fill="#DED18F" d="M9 49h1v1H9z"/><path fill="#EBE09D" d="M10 49h1v1h-1zM11 49h1v1h-1zM12 49h1v1h-1zM13 49h1v1h-1zM14 49h1v1h-1zM15 49h1v1h-1z"/><path fill="#F5EEB7" d="M16 49h1v1h-1z"/><path fill="#FFFCD1" d="M17 49h1v1h-1z"/><path fill="#F4F0C8" d="M18 49h1v1h-1z"/><path fill="#BEB29A" d="M19 49h1v1h-1z"/><path fill="#A89987" d="M20 49h1v1h-1zM21 49h1v1h-1zM22 49h1v1h-1zM23 49h1v1h-1zM24 49h1v1h-1zM25 49h1v1h-1z"/><path fill="#9E8D7C" d="M26 49h1v1h-1z"/><path fill="#938170" d="M27 49h1v1h-1zM28 49h1v1h-1zM29 49h1v1h-1zM30 49h1v1h-1zM31 49h1v1h-1zM32 49h1v1h-1zM33 49h1v1h-1zM34 49h1v1h-1z"/><path fill="#AF9F7E" d="M35 49h1v1h-1z"/><path fill="#E6DA9A" d="M36 49h1v1h-1z"/><path fill="#EBE09D" d="M37 49h1v1h-1zM38 49h1v1h-1zM39 49h1v1h-1zM40 49h1v1h-1zM41 49h1v1h-1z"/><path fill="#D0C282" d="M42 49h1v1h-1z"/><path fill="#B5A366" d="M43 49h1v1h-1zM44 49h1v1h-1zM45 49h1v1h-1zM46 49h1v1h-1zM47 49h1v1h-1zM48 49h1v1h-1zM49 49h1v1h-1zM50 49h1v1h-1z"/><path fill="#918052" d="M51 49h1v1h-1z"/><path fill="#231815" d="M52 49h1v1h-1zM53 49h1v1h-1zM54 49h1v1h-1zM0 50h1v1H0zM1 50h1v1H1zM2 50h1v1H2z"/><path fill="#918052" d="M3 50h1v1H3z"/><path fill="#B5A366" d="M4 50h1v1H4zM5 50h1v1H5zM6 50h1v1H6zM7 50h1v1H7zM8 50h1v1H8z"/><path fill="#DED18F" d="M9 50h1v1H9z"/><path fill="#EBE09D" d="M10 50h1v1h-1zM11 50h1v1h-1zM12 50h1v1h-1zM13 50h1v1h-1zM14 50h1v1h-1zM15 50h1v1h-1z"/><path fill="#F5EEB7" d="M16 50h1v1h-1z"/><path fill="#EFE9C3" d="M17 50h1v1h-1z"/><path fill="#AD9F8C" d="M18 50h1v1h-1z"/><path fill="#A89987" d="M19 50h1v1h-1zM20 50h1v1h-1zM21 50h1v1h-1zM22 50h1v1h-1zM23 50h1v1h-1zM24 50h1v1h-1zM25 50h1v1h-1z"/><path fill="#9E8D7C" d="M26 50h1v1h-1z"/><path fill="#938170" d="M27 50h1v1h-1zM28 50h1v1h-1zM29 50h1v1h-1zM30 50h1v1h-1zM31 50h1v1h-1zM32 50h1v1h-1zM33 50h1v1h-1zM34 50h1v1h-1zM35 50h1v1h-1z"/><path fill="#998773" d="M36 50h1v1h-1z"/><path fill="#DBCE95" d="M37 50h1v1h-1z"/><path fill="#EBE09D" d="M38 50h1v1h-1zM39 50h1v1h-1zM40 50h1v1h-1zM41 50h1v1h-1z"/><path fill="#D0C282" d="M42 50h1v1h-1z"/><path fill="#B5A366" d="M43 50h1v1h-1zM44 50h1v1h-1zM45 50h1v1h-1zM46 50h1v1h-1zM47 50h1v1h-1zM48 50h1v1h-1zM49 50h1v1h-1zM50 50h1v1h-1z"/><path fill="#918052" d="M51 50h1v1h-1z"/><path fill="#231815" d="M52 50h1v1h-1zM53 50h1v1h-1zM54 50h1v1h-1zM0 51h1v1H0zM1 51h1v1H1zM2 51h1v1H2z"/><path fill="#918052" d="M3 51h1v1H3z"/><path fill="#B5A366" d="M4 51h1v1H4zM5 51h1v1H5zM6 51h1v1H6zM7 51h1v1H7zM8 51h1v1H8z"/><path fill="#DED18F" d="M9 51h1v1H9z"/><path fill="#EBE09D" d="M10 51h1v1h-1zM11 51h1v1h-1zM12 51h1v1h-1zM13 51h1v1h-1zM14 51h1v1h-1zM15 51h1v1h-1z"/><path fill="#DACFA0" d="M16 51h1v1h-1z"/><path fill="#A89987" d="M17 51h1v1h-1zM18 51h1v1h-1zM19 51h1v1h-1zM20 51h1v1h-1zM21 51h1v1h-1zM22 51h1v1h-1zM23 51h1v1h-1zM24 51h1v1h-1zM25 51h1v1h-1z"/><path fill="#9E8D7C" d="M26 51h1v1h-1z"/><path fill="#938170" d="M27 51h1v1h-1zM28 51h1v1h-1zM29 51h1v1h-1zM30 51h1v1h-1zM31 51h1v1h-1zM32 51h1v1h-1zM33 51h1v1h-1zM34 51h1v1h-1zM35 51h1v1h-1zM36 51h1v1h-1z"/><path fill="#998773" d="M37 51h1v1h-1z"/><path fill="#D5C892" d="M38 51h1v1h-1z"/><path fill="#EBE09D" d="M39 51h1v1h-1zM40 51h1v1h-1zM41 51h1v1h-1z"/><path fill="#D0C282" d="M42 51h1v1h-1z"/><path fill="#B5A366" d="M43 51h1v1h-1zM44 51h1v1h-1zM45 51h1v1h-1zM46 51h1v1h-1zM47 51h1v1h-1zM48 51h1v1h-1zM49 51h1v1h-1zM50 51h1v1h-1z"/><path fill="#918052" d="M51 51h1v1h-1z"/><path fill="#231815" d="M52 51h1v1h-1zM53 51h1v1h-1zM54 51h1v1h-1zM0 52h1v1H0zM1 52h1v1H1zM2 52h1v1H2z"/><path fill="#918052" d="M3 52h1v1H3z"/><path fill="#B5A366" d="M4 52h1v1H4zM5 52h1v1H5zM6 52h1v1H6zM7 52h1v1H7zM8 52h1v1H8z"/><path fill="#DED18F" d="M9 52h1v1H9z"/><path fill="#EBE09D" d="M10 52h1v1h-1zM11 52h1v1h-1zM12 52h1v1h-1zM13 52h1v1h-1zM14 52h1v1h-1z"/><path fill="#E6DA9A" d="M15 52h1v1h-1z"/><path fill="#A3937E" d="M16 52h1v1h-1z"/><path fill="#A89987" d="M17 52h1v1h-1zM18 52h1v1h-1zM19 52h1v1h-1zM20 52h1v1h-1zM21 52h1v1h-1zM22 52h1v1h-1zM23 52h1v1h-1zM24 52h1v1h-1zM25 52h1v1h-1z"/><path fill="#9E8D7C" d="M26 52h1v1h-1z"/><path fill="#938170" d="M27 52h1v1h-1zM28 52h1v1h-1zM29 52h1v1h-1zM30 52h1v1h-1zM31 52h1v1h-1zM32 52h1v1h-1zM33 52h1v1h-1zM34 52h1v1h-1zM35 52h1v1h-1zM36 52h1v1h-1zM37 52h1v1h-1z"/><path fill="#998773" d="M38 52h1v1h-1z"/><path fill="#DBCE95" d="M39 52h1v1h-1z"/><path fill="#EBE09D" d="M40 52h1v1h-1zM41 52h1v1h-1z"/><path fill="#D0C282" d="M42 52h1v1h-1z"/><path fill="#B5A366" d="M43 52h1v1h-1zM44 52h1v1h-1zM45 52h1v1h-1zM46 52h1v1h-1zM47 52h1v1h-1zM48 52h1v1h-1zM49 52h1v1h-1zM50 52h1v1h-1z"/><path fill="#918052" d="M51 52h1v1h-1z"/><path fill="#231815" d="M52 52h1v1h-1zM53 52h1v1h-1zM54 52h1v1h-1zM0 53h1v1H0zM1 53h1v1H1zM2 53h1v1H2z"/><path fill="#918052" d="M3 53h1v1H3z"/><path fill="#B5A366" d="M4 53h1v1H4zM5 53h1v1H5zM6 53h1v1H6zM7 53h1v1H7zM8 53h1v1H8z"/><path fill="#DED18F" d="M9 53h1v1H9z"/><path fill="#EBE09D" d="M10 53h1v1h-1zM11 53h1v1h-1zM12 53h1v1h-1zM13 53h1v1h-1zM14 53h1v1h-1z"/><path fill="#A9997B" d="M15 53h1v1h-1z"/><path fill="#A19280" d="M16 53h1v1h-1z"/><path fill="#A89987" d="M17 53h1v1h-1zM18 53h1v1h-1zM19 53h1v1h-1zM20 53h1v1h-1zM21 53h1v1h-1zM22 53h1v1h-1zM23 53h1v1h-1zM24 53h1v1h-1zM25 53h1v1h-1z"/><path fill="#9E8D7C" d="M26 53h1v1h-1z"/><path fill="#938170" d="M27 53h1v1h-1zM28 53h1v1h-1zM29 53h1v1h-1zM30 53h1v1h-1zM31 53h1v1h-1zM32 53h1v1h-1zM33 53h1v1h-1zM34 53h1v1h-1zM35 53h1v1h-1zM36 53h1v1h-1zM37 53h1v1h-1zM38 53h1v1h-1z"/><path fill="#9E8D76" d="M39 53h1v1h-1z"/><path fill="#E6DA9A" d="M40 53h1v1h-1z"/><path fill="#EBE09D" d="M41 53h1v1h-1z"/><path fill="#D0C282" d="M42 53h1v1h-1z"/><path fill="#B5A366" d="M43 53h1v1h-1zM44 53h1v1h-1zM45 53h1v1h-1zM46 53h1v1h-1zM47 53h1v1h-1zM48 53h1v1h-1zM49 53h1v1h-1zM50 53h1v1h-1z"/><path fill="#918052" d="M51 53h1v1h-1z"/><path fill="#231815" d="M52 53h1v1h-1zM53 53h1v1h-1zM54 53h1v1h-1zM0 54h1v1H0zM1 54h1v1H1zM2 54h1v1H2z"/><path fill="#918052" d="M3 54h1v1H3z"/><path fill="#B5A366" d="M4 54h1v1H4zM5 54h1v1H5zM6 54h1v1H6zM7 54h1v1H7zM8 54h1v1H8z"/><path fill="#DED18F" d="M9 54h1v1H9z"/><path fill="#EBE09D" d="M10 54h1v1h-1zM11 54h1v1h-1zM12 54h1v1h-1zM13 54h1v1h-1z"/><path fill="#CABC8C" d="M14 54h1v1h-1z"/><path fill="#938170" d="M15 54h1v1h-1z"/><path fill="#A39381" d="M16 54h1v1h-1z"/><path fill="#A89987" d="M17 54h1v1h-1zM18 54h1v1h-1zM19 54h1v1h-1zM20 54h1v1h-1zM21 54h1v1h-1zM22 54h1v1h-1zM23 54h1v1h-1zM24 54h1v1h-1zM25 54h1v1h-1z"/><path fill="#9E8D7C" d="M26 54h1v1h-1z"/><path fill="#938170" d="M27 54h1v1h-1zM28 54h1v1h-1zM29 54h1v1h-1zM30 54h1v1h-1zM31 54h1v1h-1zM32 54h1v1h-1zM33 54h1v1h-1zM34 54h1v1h-1zM35 54h1v1h-1zM36 54h1v1h-1zM37 54h1v1h-1zM38 54h1v1h-1zM39 54h1v1h-1z"/><path fill="#BFB187" d="M40 54h1v1h-1z"/><path fill="#EBE09D" d="M41 54h1v1h-1z"/><path fill="#D0C282" d="M42 54h1v1h-1z"/><path fill="#B5A366" d="M43 54h1v1h-1zM44 54h1v1h-1zM45 54h1v1h-1zM46 54h1v1h-1zM47 54h1v1h-1zM48 54h1v1h-1zM49 54h1v1h-1zM50 54h1v1h-1z"/><path fill="#918052" d="M51 54h1v1h-1z"/><path fill="#231815" d="M52 54h1v1h-1zM53 54h1v1h-1zM54 54h1v1h-1zM0 55h1v1H0zM1 55h1v1H1zM2 55h1v1H2z"/><path fill="#918052" d="M3 55h1v1H3z"/><path fill="#B5A366" d="M4 55h1v1H4zM5 55h1v1H5zM6 55h1v1H6zM7 55h1v1H7zM8 55h1v1H8z"/><path fill="#DED18F" d="M9 55h1v1H9z"/><path fill="#EBE09D" d="M10 55h1v1h-1zM11 55h1v1h-1zM12 55h1v1h-1zM13 55h1v1h-1z"/><path fill="#9E8D76" d="M14 55h1v1h-1z"/><path fill="#938170" d="M15 55h1v1h-1z"/><path fill="#A39381" d="M16 55h1v1h-1z"/><path fill="#A89987" d="M17 55h1v1h-1zM18 55h1v1h-1zM19 55h1v1h-1zM20 55h1v1h-1zM21 55h1v1h-1zM22 55h1v1h-1zM23 55h1v1h-1zM24 55h1v1h-1zM25 55h1v1h-1z"/><path fill="#9E8D7C" d="M26 55h1v1h-1z"/><path fill="#938170" d="M27 55h1v1h-1zM28 55h1v1h-1zM29 55h1v1h-1zM30 55h1v1h-1zM31 55h1v1h-1zM32 55h1v1h-1zM33 55h1v1h-1zM34 55h1v1h-1zM35 55h1v1h-1zM36 55h1v1h-1zM37 55h1v1h-1zM38 55h1v1h-1zM39 55h1v1h-1zM40 55h1v1h-1z"/><path fill="#E0D497" d="M41 55h1v1h-1z"/><path fill="#D0C282" d="M42 55h1v1h-1z"/><path fill="#B5A366" d="M43 55h1v1h-1zM44 55h1v1h-1zM45 55h1v1h-1zM46 55h1v1h-1zM47 55h1v1h-1zM48 55h1v1h-1zM49 55h1v1h-1zM50 55h1v1h-1z"/><path fill="#918052" d="M51 55h1v1h-1z"/><path fill="#231815" d="M52 55h1v1h-1zM53 55h1v1h-1zM54 55h1v1h-1zM0 56h1v1H0zM1 56h1v1H1zM2 56h1v1H2z"/><path fill="#918052" d="M3 56h1v1H3z"/><path fill="#B5A366" d="M4 56h1v1H4zM5 56h1v1H5zM6 56h1v1H6zM7 56h1v1H7zM8 56h1v1H8z"/><path fill="#DED18F" d="M9 56h1v1H9z"/><path fill="#EBE09D" d="M10 56h1v1h-1zM11 56h1v1h-1zM12 56h1v1h-1z"/><path fill="#CABC8C" d="M13 56h1v1h-1z"/><path fill="#938170" d="M14 56h1v1h-1zM15 56h1v1h-1z"/><path fill="#A39381" d="M16 56h1v1h-1z"/><path fill="#A89987" d="M17 56h1v1h-1zM18 56h1v1h-1zM19 56h1v1h-1zM20 56h1v1h-1zM21 56h1v1h-1zM22 56h1v1h-1zM23 56h1v1h-1zM24 56h1v1h-1zM25 56h1v1h-1z"/><path fill="#9E8D7C" d="M26 56h1v1h-1z"/><path fill="#938170" d="M27 56h1v1h-1zM28 56h1v1h-1zM29 56h1v1h-1zM30 56h1v1h-1zM31 56h1v1h-1zM32 56h1v1h-1zM33 56h1v1h-1zM34 56h1v1h-1zM35 56h1v1h-1zM36 56h1v1h-1zM37 56h1v1h-1zM38 56h1v1h-1zM39 56h1v1h-1zM40 56h1v1h-1z"/><path fill="#BFB187" d="M41 56h1v1h-1z"/><path fill="#D0C282" d="M42 56h1v1h-1z"/><path fill="#B5A366" d="M43 56h1v1h-1zM44 56h1v1h-1zM45 56h1v1h-1zM46 56h1v1h-1zM47 56h1v1h-1zM48 56h1v1h-1zM49 56h1v1h-1zM50 56h1v1h-1z"/><path fill="#918052" d="M51 56h1v1h-1z"/><path fill="#231815" d="M52 56h1v1h-1zM53 56h1v1h-1zM54 56h1v1h-1zM0 57h1v1H0zM1 57h1v1H1zM2 57h1v1H2z"/><path fill="#918052" d="M3 57h1v1H3z"/><path fill="#B5A366" d="M4 57h1v1H4zM5 57h1v1H5zM6 57h1v1H6zM7 57h1v1H7zM8 57h1v1H8z"/><path fill="#DED18F" d="M9 57h1v1H9z"/><path fill="#EBE09D" d="M10 57h1v1h-1zM11 57h1v1h-1zM12 57h1v1h-1z"/><path fill="#AF9F7E" d="M13 57h1v1h-1z"/><path fill="#938170" d="M14 57h1v1h-1zM15 57h1v1h-1z"/><path fill="#A39381" d="M16 57h1v1h-1z"/><path fill="#A89987" d="M17 57h1v1h-1zM18 57h1v1h-1zM19 57h1v1h-1zM20 57h1v1h-1zM21 57h1v1h-1zM22 57h1v1h-1zM23 57h1v1h-1zM24 57h1v1h-1zM25 57h1v1h-1z"/><path fill="#9E8D7C" d="M26 57h1v1h-1z"/><path fill="#938170" d="M27 57h1v1h-1zM28 57h1v1h-1zM29 57h1v1h-1zM30 57h1v1h-1zM31 57h1v1h-1zM32 57h1v1h-1zM33 57h1v1h-1zM34 57h1v1h-1zM35 57h1v1h-1zM36 57h1v1h-1zM37 57h1v1h-1zM38 57h1v1h-1zM39 57h1v1h-1zM40 57h1v1h-1z"/><path fill="#9E8D76" d="M41 57h1v1h-1z"/><path fill="#D0C282" d="M42 57h1v1h-1z"/><path fill="#B5A366" d="M43 57h1v1h-1zM44 57h1v1h-1zM45 57h1v1h-1zM46 57h1v1h-1zM47 57h1v1h-1zM48 57h1v1h-1zM49 57h1v1h-1zM50 57h1v1h-1z"/><path fill="#918052" d="M51 57h1v1h-1z"/><path fill="#231815" d="M52 57h1v1h-1zM53 57h1v1h-1zM54 57h1v1h-1zM0 58h1v1H0zM1 58h1v1H1zM2 58h1v1H2z"/><path fill="#918052" d="M3 58h1v1H3z"/><path fill="#B5A366" d="M4 58h1v1H4zM5 58h1v1H5zM6 58h1v1H6zM7 58h1v1H7zM8 58h1v1H8z"/><path fill="#DED18F" d="M9 58h1v1H9z"/><path fill="#EBE09D" d="M10 58h1v1h-1zM11 58h1v1h-1zM12 58h1v1h-1z"/><path fill="#998773" d="M13 58h1v1h-1z"/><path fill="#938170" d="M14 58h1v1h-1zM15 58h1v1h-1z"/><path fill="#A39381" d="M16 58h1v1h-1z"/><path fill="#A89987" d="M17 58h1v1h-1zM18 58h1v1h-1zM19 58h1v1h-1zM20 58h1v1h-1zM21 58h1v1h-1zM22 58h1v1h-1zM23 58h1v1h-1zM24 58h1v1h-1z"/><path fill="#AD9F8C" d="M25 58h1v1h-1z"/><path fill="#CFC39A" d="M26 58h1v1h-1z"/><path fill="#D5C892" d="M27 58h1v1h-1z"/><path fill="#CABC8C" d="M28 58h1v1h-1z"/><path fill="#A9997B" d="M29 58h1v1h-1z"/><path fill="#938170" d="M30 58h1v1h-1zM31 58h1v1h-1zM32 58h1v1h-1zM33 58h1v1h-1zM34 58h1v1h-1zM35 58h1v1h-1zM36 58h1v1h-1zM37 58h1v1h-1zM38 58h1v1h-1zM39 58h1v1h-1zM40 58h1v1h-1zM41 58h1v1h-1z"/><path fill="#C5B67C" d="M42 58h1v1h-1z"/><path fill="#B5A366" d="M43 58h1v1h-1zM44 58h1v1h-1zM45 58h1v1h-1zM46 58h1v1h-1zM47 58h1v1h-1zM48 58h1v1h-1zM49 58h1v1h-1zM50 58h1v1h-1z"/><path fill="#918052" d="M51 58h1v1h-1z"/><path fill="#231815" d="M52 58h1v1h-1zM53 58h1v1h-1zM54 58h1v1h-1zM0 59h1v1H0zM1 59h1v1H1zM2 59h1v1H2z"/><path fill="#918052" d="M3 59h1v1H3z"/><path fill="#B5A366" d="M4 59h1v1H4zM5 59h1v1H5zM6 59h1v1H6zM7 59h1v1H7zM8 59h1v1H8z"/><path fill="#DED18F" d="M9 59h1v1H9z"/><path fill="#EBE09D" d="M10 59h1v1h-1zM11 59h1v1h-1z"/><path fill="#DBCE95" d="M12 59h1v1h-1z"/><path fill="#938170" d="M13 59h1v1h-1zM14 59h1v1h-1zM15 59h1v1h-1z"/><path fill="#A39381" d="M16 59h1v1h-1z"/><path fill="#A89987" d="M17 59h1v1h-1zM18 59h1v1h-1zM19 59h1v1h-1zM20 59h1v1h-1zM21 59h1v1h-1zM22 59h1v1h-1zM23 59h1v1h-1z"/><path fill="#AD9F8C" d="M24 59h1v1h-1z"/><path fill="#EFE9C3" d="M25 59h1v1h-1z"/><path fill="#F5EEB7" d="M26 59h1v1h-1z"/><path fill="#EBE09D" d="M27 59h1v1h-1zM28 59h1v1h-1zM29 59h1v1h-1z"/><path fill="#B4A581" d="M30 59h1v1h-1z"/><path fill="#938170" d="M31 59h1v1h-1zM32 59h1v1h-1zM33 59h1v1h-1zM34 59h1v1h-1zM35 59h1v1h-1zM36 59h1v1h-1zM37 59h1v1h-1zM38 59h1v1h-1zM39 59h1v1h-1zM40 59h1v1h-1zM41 59h1v1h-1z"/><path fill="#B5A473" d="M42 59h1v1h-1z"/><path fill="#B5A366" d="M43 59h1v1h-1zM44 59h1v1h-1zM45 59h1v1h-1zM46 59h1v1h-1zM47 59h1v1h-1zM48 59h1v1h-1zM49 59h1v1h-1zM50 59h1v1h-1z"/><path fill="#918052" d="M51 59h1v1h-1z"/><path fill="#231815" d="M52 59h1v1h-1zM53 59h1v1h-1zM54 59h1v1h-1zM0 60h1v1H0zM1 60h1v1H1zM2 60h1v1H2z"/><path fill="#918052" d="M3 60h1v1H3z"/><path fill="#B5A366" d="M4 60h1v1H4zM5 60h1v1H5zM6 60h1v1H6zM7 60h1v1H7zM8 60h1v1H8z"/><path fill="#DED18F" d="M9 60h1v1H9z"/><path fill="#EBE09D" d="M10 60h1v1h-1zM11 60h1v1h-1z"/><path fill="#D5C892" d="M12 60h1v1h-1z"/><path fill="#938170" d="M13 60h1v1h-1zM14 60h1v1h-1zM15 60h1v1h-1z"/><path fill="#A39381" d="M16 60h1v1h-1z"/><path fill="#A89987" d="M17 60h1v1h-1zM18 60h1v1h-1zM19 60h1v1h-1zM20 60h1v1h-1zM21 60h1v1h-1zM22 60h1v1h-1zM23 60h1v1h-1z"/><path fill="#E9E3BF" d="M24 60h1v1h-1z"/><path fill="#FFFCD1" d="M25 60h1v1h-1z"/><path fill="#F5EEB7" d="M26 60h1v1h-1z"/><path fill="#EBE09D" d="M27 60h1v1h-1zM28 60h1v1h-1zM29 60h1v1h-1zM30 60h1v1h-1z"/><path fill="#9E8D76" d="M31 60h1v1h-1z"/><path fill="#938170" d="M32 60h1v1h-1zM33 60h1v1h-1zM34 60h1v1h-1zM35 60h1v1h-1zM36 60h1v1h-1zM37 60h1v1h-1zM38 60h1v1h-1zM39 60h1v1h-1zM40 60h1v1h-1zM41 60h1v1h-1z"/><path fill="#A4926B" d="M42 60h1v1h-1z"/><path fill="#B5A366" d="M43 60h1v1h-1zM44 60h1v1h-1zM45 60h1v1h-1zM46 60h1v1h-1zM47 60h1v1h-1zM48 60h1v1h-1zM49 60h1v1h-1zM50 60h1v1h-1z"/><path fill="#918052" d="M51 60h1v1h-1z"/><path fill="#231815" d="M52 60h1v1h-1zM53 60h1v1h-1zM54 60h1v1h-1zM0 61h1v1H0zM1 61h1v1H1zM2 61h1v1H2z"/><path fill="#918052" d="M3 61h1v1H3z"/><path fill="#B5A366" d="M4 61h1v1H4zM5 61h1v1H5zM6 61h1v1H6zM7 61h1v1H7zM8 61h1v1H8z"/><path fill="#DED18F" d="M9 61h1v1H9z"/><path fill="#EBE09D" d="M10 61h1v1h-1zM11 61h1v1h-1z"/><path fill="#D0C28F" d="M12 61h1v1h-1z"/><path fill="#938170" d="M13 61h1v1h-1zM14 61h1v1h-1zM15 61h1v1h-1z"/><path fill="#A39381" d="M16 61h1v1h-1z"/><path fill="#A89987" d="M17 61h1v1h-1zM18 61h1v1h-1zM19 61h1v1h-1zM20 61h1v1h-1zM21 61h1v1h-1zM22 61h1v1h-1z"/><path fill="#AD9F8C" d="M23 61h1v1h-1z"/><path fill="#FFFCD1" d="M24 61h1v1h-1zM25 61h1v1h-1z"/><path fill="#F5EEB7" d="M26 61h1v1h-1z"/><path fill="#EBE09D" d="M27 61h1v1h-1zM28 61h1v1h-1zM29 61h1v1h-1zM30 61h1v1h-1z"/><path fill="#BAAB84" d="M31 61h1v1h-1z"/><path fill="#938170" d="M32 61h1v1h-1zM33 61h1v1h-1zM34 61h1v1h-1zM35 61h1v1h-1zM36 61h1v1h-1zM37 61h1v1h-1zM38 61h1v1h-1zM39 61h1v1h-1zM40 61h1v1h-1zM41 61h1v1h-1z"/><path fill="#A4926B" d="M42 61h1v1h-1z"/><path fill="#B5A366" d="M43 61h1v1h-1zM44 61h1v1h-1zM45 61h1v1h-1zM46 61h1v1h-1zM47 61h1v1h-1zM48 61h1v1h-1zM49 61h1v1h-1zM50 61h1v1h-1z"/><path fill="#918052" d="M51 61h1v1h-1z"/><path fill="#231815" d="M52 61h1v1h-1zM53 61h1v1h-1zM54 61h1v1h-1zM0 62h1v1H0zM1 62h1v1H1zM2 62h1v1H2z"/><path fill="#918052" d="M3 62h1v1H3z"/><path fill="#B5A366" d="M4 62h1v1H4zM5 62h1v1H5zM6 62h1v1H6zM7 62h1v1H7zM8 62h1v1H8z"/><path fill="#DED18F" d="M9 62h1v1H9z"/><path fill="#EBE09D" d="M10 62h1v1h-1zM11 62h1v1h-1z"/><path fill="#C3BF94" d="M12 62h1v1h-1z"/><path fill="#7D8987" d="M13 62h1v1h-1zM14 62h1v1h-1z"/><path fill="#888E8A" d="M15 62h1v1h-1z"/><path fill="#B3B2AD" d="M16 62h1v1h-1z"/><path fill="#B8B9B3" d="M17 62h1v1h-1zM18 62h1v1h-1zM19 62h1v1h-1z"/><path fill="#B0A99D" d="M20 62h1v1h-1z"/><path fill="#A89987" d="M21 62h1v1h-1zM22 62h1v1h-1z"/><path fill="#B3A590" d="M23 62h1v1h-1z"/><path fill="#FFFCD1" d="M24 62h1v1h-1zM25 62h1v1h-1z"/><path fill="#F5EEB7" d="M26 62h1v1h-1z"/><path fill="#EBE09D" d="M27 62h1v1h-1zM28 62h1v1h-1zM29 62h1v1h-1zM30 62h1v1h-1z"/><path fill="#BFB187" d="M31 62h1v1h-1z"/><path fill="#938170" d="M32 62h1v1h-1zM33 62h1v1h-1z"/><path fill="#9B9185" d="M34 62h1v1h-1z"/><path fill="#A2A09A" d="M35 62h1v1h-1zM36 62h1v1h-1zM37 62h1v1h-1zM38 62h1v1h-1z"/><path fill="#909491" d="M39 62h1v1h-1z"/><path fill="#7D8987" d="M40 62h1v1h-1zM41 62h1v1h-1z"/><path fill="#999677" d="M42 62h1v1h-1z"/><path fill="#B5A366" d="M43 62h1v1h-1zM44 62h1v1h-1zM45 62h1v1h-1zM46 62h1v1h-1zM47 62h1v1h-1zM48 62h1v1h-1zM49 62h1v1h-1zM50 62h1v1h-1z"/><path fill="#918052" d="M51 62h1v1h-1z"/><path fill="#231815" d="M52 62h1v1h-1zM53 62h1v1h-1zM54 62h1v1h-1zM0 63h1v1H0zM1 63h1v1H1zM2 63h1v1H2z"/><path fill="#918052" d="M3 63h1v1H3z"/><path fill="#B5A366" d="M4 63h1v1H4zM5 63h1v1H5zM6 63h1v1H6zM7 63h1v1H7zM8 63h1v1H8z"/><path fill="#DED18F" d="M9 63h1v1H9z"/><path fill="#EBE09D" d="M10 63h1v1h-1zM11 63h1v1h-1z"/><path fill="#CECB9A" d="M12 63h1v1h-1z"/><path fill="#768B8F" d="M13 63h1v1h-1zM14 63h1v1h-1z"/><path fill="#85989C" d="M15 63h1v1h-1z"/><path fill="#C2D2D8" d="M16 63h1v1h-1z"/><path fill="#C8D8DF" d="M17 63h1v1h-1zM18 63h1v1h-1zM19 63h1v1h-1z"/><path fill="#BEC4C4" d="M20 63h1v1h-1z"/><path fill="#A89987" d="M21 63h1v1h-1zM22 63h1v1h-1zM23 63h1v1h-1z"/><path fill="#F4F0C8" d="M24 63h1v1h-1z"/><path fill="#FFFCD1" d="M25 63h1v1h-1z"/><path fill="#F5EEB7" d="M26 63h1v1h-1z"/><path fill="#EBE09D" d="M27 63h1v1h-1zM28 63h1v1h-1zM29 63h1v1h-1zM30 63h1v1h-1z"/><path fill="#A49378" d="M31 63h1v1h-1z"/><path fill="#938170" d="M32 63h1v1h-1zM33 63h1v1h-1z"/><path fill="#A6A8A5" d="M34 63h1v1h-1z"/><path fill="#B1BFC4" d="M35 63h1v1h-1zM36 63h1v1h-1zM37 63h1v1h-1zM38 63h1v1h-1z"/><path fill="#94A5AA" d="M39 63h1v1h-1z"/><path fill="#768B8F" d="M40 63h1v1h-1zM41 63h1v1h-1z"/><path fill="#96977B" d="M42 63h1v1h-1z"/><path fill="#B5A366" d="M43 63h1v1h-1zM44 63h1v1h-1zM45 63h1v1h-1zM46 63h1v1h-1zM47 63h1v1h-1zM48 63h1v1h-1zM49 63h1v1h-1zM50 63h1v1h-1z"/><path fill="#918052" d="M51 63h1v1h-1z"/><path fill="#231815" d="M52 63h1v1h-1zM53 63h1v1h-1zM54 63h1v1h-1zM0 64h1v1H0zM1 64h1v1H1zM2 64h1v1H2z"/><path fill="#918052" d="M3 64h1v1H3z"/><path fill="#B5A366" d="M4 64h1v1H4zM5 64h1v1H5zM6 64h1v1H6zM7 64h1v1H7zM8 64h1v1H8z"/><path fill="#DED18F" d="M9 64h1v1H9z"/><path fill="#EBE09D" d="M10 64h1v1h-1zM11 64h1v1h-1z"/><path fill="#CECB9A" d="M12 64h1v1h-1z"/><path fill="#768B8F" d="M13 64h1v1h-1zM14 64h1v1h-1z"/><path fill="#7D9296" d="M15 64h1v1h-1z"/><path fill="#C2D2D8" d="M16 64h1v1h-1z"/><path fill="#C8D8DF" d="M17 64h1v1h-1zM18 64h1v1h-1zM19 64h1v1h-1z"/><path fill="#C6D4DA" d="M20 64h1v1h-1z"/><path fill="#A89987" d="M21 64h1v1h-1zM22 64h1v1h-1zM23 64h1v1h-1z"/><path fill="#B8AC95" d="M24 64h1v1h-1z"/><path fill="#FAF6CC" d="M25 64h1v1h-1z"/><path fill="#F5EEB7" d="M26 64h1v1h-1z"/><path fill="#EBE09D" d="M27 64h1v1h-1zM28 64h1v1h-1zM29 64h1v1h-1z"/><path fill="#C5B689" d="M30 64h1v1h-1z"/><path fill="#938170" d="M31 64h1v1h-1zM32 64h1v1h-1zM33 64h1v1h-1z"/><path fill="#ADB7BA" d="M34 64h1v1h-1z"/><path fill="#B1BFC4" d="M35 64h1v1h-1zM36 64h1v1h-1zM37 64h1v1h-1zM38 64h1v1h-1z"/><path fill="#889BA0" d="M39 64h1v1h-1z"/><path fill="#768B8F" d="M40 64h1v1h-1zM41 64h1v1h-1z"/><path fill="#A4A27C" d="M42 64h1v1h-1z"/><path fill="#B5A366" d="M43 64h1v1h-1zM44 64h1v1h-1zM45 64h1v1h-1zM46 64h1v1h-1zM47 64h1v1h-1zM48 64h1v1h-1zM49 64h1v1h-1zM50 64h1v1h-1z"/><path fill="#918052" d="M51 64h1v1h-1z"/><path fill="#231815" d="M52 64h1v1h-1zM53 64h1v1h-1zM54 64h1v1h-1zM0 65h1v1H0zM1 65h1v1H1zM2 65h1v1H2z"/><path fill="#918052" d="M3 65h1v1H3z"/><path fill="#B5A366" d="M4 65h1v1H4zM5 65h1v1H5zM6 65h1v1H6zM7 65h1v1H7zM8 65h1v1H8z"/><path fill="#DED18F" d="M9 65h1v1H9z"/><path fill="#EBE09D" d="M10 65h1v1h-1zM11 65h1v1h-1zM12 65h1v1h-1z"/><path fill="#768B8F" d="M13 65h1v1h-1zM14 65h1v1h-1zM15 65h1v1h-1z"/><path fill="#BBCBD2" d="M16 65h1v1h-1z"/><path fill="#C8D8DF" d="M17 65h1v1h-1zM18 65h1v1h-1zM19 65h1v1h-1zM20 65h1v1h-1z"/><path fill="#B4B1A8" d="M21 65h1v1h-1z"/><path fill="#A89987" d="M22 65h1v1h-1zM23 65h1v1h-1zM24 65h1v1h-1z"/><path fill="#B8AC95" d="M25 65h1v1h-1z"/><path fill="#DFD5A5" d="M26 65h1v1h-1z"/><path fill="#EBE09D" d="M27 65h1v1h-1z"/><path fill="#E0D497" d="M28 65h1v1h-1z"/><path fill="#BFB187" d="M29 65h1v1h-1z"/><path fill="#938170" d="M30 65h1v1h-1zM31 65h1v1h-1zM32 65h1v1h-1z"/><path fill="#9E9890" d="M33 65h1v1h-1z"/><path fill="#B1BFC4" d="M34 65h1v1h-1zM35 65h1v1h-1zM36 65h1v1h-1zM37 65h1v1h-1zM38 65h1v1h-1z"/><path fill="#7A8E92" d="M39 65h1v1h-1z"/><path fill="#768B8F" d="M40 65h1v1h-1zM41 65h1v1h-1z"/><path fill="#BAB27F" d="M42 65h1v1h-1z"/><path fill="#B5A366" d="M43 65h1v1h-1zM44 65h1v1h-1zM45 65h1v1h-1zM46 65h1v1h-1zM47 65h1v1h-1zM48 65h1v1h-1zM49 65h1v1h-1zM50 65h1v1h-1z"/><path fill="#918052" d="M51 65h1v1h-1z"/><path fill="#231815" d="M52 65h1v1h-1zM53 65h1v1h-1zM54 65h1v1h-1zM0 66h1v1H0zM1 66h1v1H1zM2 66h1v1H2z"/><path fill="#918052" d="M3 66h1v1H3z"/><path fill="#B5A366" d="M4 66h1v1H4zM5 66h1v1H5zM6 66h1v1H6zM7 66h1v1H7zM8 66h1v1H8z"/><path fill="#DED18F" d="M9 66h1v1H9z"/><path fill="#EBE09D" d="M10 66h1v1h-1zM11 66h1v1h-1zM12 66h1v1h-1z"/><path fill="#93A093" d="M13 66h1v1h-1z"/><path fill="#768B8F" d="M14 66h1v1h-1zM15 66h1v1h-1z"/><path fill="#A1B4BA" d="M16 66h1v1h-1z"/><path fill="#C8D8DF" d="M17 66h1v1h-1zM18 66h1v1h-1zM19 66h1v1h-1zM20 66h1v1h-1z"/><path fill="#C6D4DA" d="M21 66h1v1h-1z"/><path fill="#AA9D8D" d="M22 66h1v1h-1z"/><path fill="#A89987" d="M23 66h1v1h-1zM24 66h1v1h-1zM25 66h1v1h-1z"/><path fill="#988776" d="M26 66h1v1h-1z"/><path fill="#938170" d="M27 66h1v1h-1zM28 66h1v1h-1zM29 66h1v1h-1zM30 66h1v1h-1zM31 66h1v1h-1z"/><path fill="#958575" d="M32 66h1v1h-1z"/><path fill="#AFBBBF" d="M33 66h1v1h-1z"/><path fill="#B1BFC4" d="M34 66h1v1h-1zM35 66h1v1h-1zM36 66h1v1h-1zM37 66h1v1h-1z"/><path fill="#9FAFB3" d="M38 66h1v1h-1z"/><path fill="#768B8F" d="M39 66h1v1h-1zM40 66h1v1h-1z"/><path fill="#7D9090" d="M41 66h1v1h-1z"/><path fill="#D0C282" d="M42 66h1v1h-1z"/><path fill="#B5A366" d="M43 66h1v1h-1zM44 66h1v1h-1zM45 66h1v1h-1zM46 66h1v1h-1zM47 66h1v1h-1zM48 66h1v1h-1zM49 66h1v1h-1zM50 66h1v1h-1z"/><path fill="#918052" d="M51 66h1v1h-1z"/><path fill="#231815" d="M52 66h1v1h-1zM53 66h1v1h-1zM54 66h1v1h-1zM0 67h1v1H0zM1 67h1v1H1zM2 67h1v1H2z"/><path fill="#918052" d="M3 67h1v1H3z"/><path fill="#B5A366" d="M4 67h1v1H4zM5 67h1v1H5zM6 67h1v1H6zM7 67h1v1H7zM8 67h1v1H8z"/><path fill="#DED18F" d="M9 67h1v1H9z"/><path fill="#EBE09D" d="M10 67h1v1h-1zM11 67h1v1h-1zM12 67h1v1h-1z"/><path fill="#B8BB97" d="M13 67h1v1h-1z"/><path fill="#768B8F" d="M14 67h1v1h-1zM15 67h1v1h-1z"/><path fill="#889CA2" d="M16 67h1v1h-1z"/><path fill="#C1D1D8" d="M17 67h1v1h-1z"/><path fill="#C8D8DF" d="M18 67h1v1h-1zM19 67h1v1h-1zM20 67h1v1h-1zM21 67h1v1h-1z"/><path fill="#C2CCCF" d="M22 67h1v1h-1z"/><path fill="#ACA192" d="M23 67h1v1h-1z"/><path fill="#A89987" d="M24 67h1v1h-1zM25 67h1v1h-1z"/><path fill="#988776" d="M26 67h1v1h-1z"/><path fill="#938170" d="M27 67h1v1h-1zM28 67h1v1h-1zM29 67h1v1h-1zM30 67h1v1h-1z"/><path fill="#998D80" d="M31 67h1v1h-1z"/><path fill="#ABB3B4" d="M32 67h1v1h-1z"/><path fill="#B1BFC4" d="M33 67h1v1h-1zM34 67h1v1h-1zM35 67h1v1h-1zM36 67h1v1h-1zM37 67h1v1h-1z"/><path fill="#85989C" d="M38 67h1v1h-1z"/><path fill="#768B8F" d="M39 67h1v1h-1zM40 67h1v1h-1z"/><path fill="#A2AB94" d="M41 67h1v1h-1z"/><path fill="#D0C282" d="M42 67h1v1h-1z"/><path fill="#B5A366" d="M43 67h1v1h-1zM44 67h1v1h-1zM45 67h1v1h-1zM46 67h1v1h-1zM47 67h1v1h-1zM48 67h1v1h-1zM49 67h1v1h-1zM50 67h1v1h-1z"/><path fill="#918052" d="M51 67h1v1h-1z"/><path fill="#231815" d="M52 67h1v1h-1zM53 67h1v1h-1zM54 67h1v1h-1zM0 68h1v1H0zM1 68h1v1H1zM2 68h1v1H2z"/><path fill="#918052" d="M3 68h1v1H3z"/><path fill="#B5A366" d="M4 68h1v1H4zM5 68h1v1H5zM6 68h1v1H6zM7 68h1v1H7zM8 68h1v1H8z"/><path fill="#DED18F" d="M9 68h1v1H9z"/><path fill="#EBE09D" d="M10 68h1v1h-1zM11 68h1v1h-1zM12 68h1v1h-1z"/><path fill="#E4DB9C" d="M13 68h1v1h-1z"/><path fill="#7D9090" d="M14 68h1v1h-1z"/><path fill="#768B8F" d="M15 68h1v1h-1z"/><path fill="#889CA2" d="M16 68h1v1h-1z"/><path fill="#9DB0B6" d="M17 68h1v1h-1z"/><path fill="#C8D8DF" d="M18 68h1v1h-1zM19 68h1v1h-1zM20 68h1v1h-1zM21 68h1v1h-1zM22 68h1v1h-1z"/><path fill="#C6D4DA" d="M23 68h1v1h-1z"/><path fill="#B8B9B3" d="M24 68h1v1h-1z"/><path fill="#ACA192" d="M25 68h1v1h-1z"/><path fill="#988776" d="M26 68h1v1h-1z"/><path fill="#938170" d="M27 68h1v1h-1zM28 68h1v1h-1z"/><path fill="#998D80" d="M29 68h1v1h-1z"/><path fill="#A6A8A5" d="M30 68h1v1h-1z"/><path fill="#B1BFC4" d="M31 68h1v1h-1zM32 68h1v1h-1zM33 68h1v1h-1zM34 68h1v1h-1zM35 68h1v1h-1zM36 68h1v1h-1z"/><path fill="#9FAFB3" d="M37 68h1v1h-1z"/><path fill="#768B8F" d="M38 68h1v1h-1zM39 68h1v1h-1zM40 68h1v1h-1z"/><path fill="#D5D09A" d="M41 68h1v1h-1z"/><path fill="#D0C282" d="M42 68h1v1h-1z"/><path fill="#B5A366" d="M43 68h1v1h-1zM44 68h1v1h-1zM45 68h1v1h-1zM46 68h1v1h-1zM47 68h1v1h-1zM48 68h1v1h-1zM49 68h1v1h-1zM50 68h1v1h-1z"/><path fill="#918052" d="M51 68h1v1h-1z"/><path fill="#231815" d="M52 68h1v1h-1zM53 68h1v1h-1zM54 68h1v1h-1zM0 69h1v1H0zM1 69h1v1H1zM2 69h1v1H2z"/><path fill="#918052" d="M3 69h1v1H3z"/><path fill="#B5A366" d="M4 69h1v1H4zM5 69h1v1H5zM6 69h1v1H6zM7 69h1v1H7zM8 69h1v1H8z"/><path fill="#DED18F" d="M9 69h1v1H9z"/><path fill="#EBE09D" d="M10 69h1v1h-1zM11 69h1v1h-1zM12 69h1v1h-1zM13 69h1v1h-1z"/><path fill="#B1B696" d="M14 69h1v1h-1z"/><path fill="#768B8F" d="M15 69h1v1h-1z"/><path fill="#889CA2" d="M16 69h1v1h-1z"/><path fill="#8EA2A8" d="M17 69h1v1h-1z"/><path fill="#AFC0C7" d="M18 69h1v1h-1z"/><path fill="#C8D8DF" d="M19 69h1v1h-1zM20 69h1v1h-1zM21 69h1v1h-1zM22 69h1v1h-1zM23 69h1v1h-1zM24 69h1v1h-1zM25 69h1v1h-1z"/><path fill="#B7C5CB" d="M26 69h1v1h-1z"/><path fill="#B1BFC4" d="M27 69h1v1h-1zM28 69h1v1h-1zM29 69h1v1h-1zM30 69h1v1h-1zM31 69h1v1h-1zM32 69h1v1h-1zM33 69h1v1h-1zM34 69h1v1h-1zM35 69h1v1h-1z"/><path fill="#AAB9BD" d="M36 69h1v1h-1z"/><path fill="#7A8E92" d="M37 69h1v1h-1z"/><path fill="#768B8F" d="M38 69h1v1h-1zM39 69h1v1h-1z"/><path fill="#9BA693" d="M40 69h1v1h-1z"/><path fill="#EBE09D" d="M41 69h1v1h-1z"/><path fill="#D0C282" d="M42 69h1v1h-1z"/><path fill="#B5A366" d="M43 69h1v1h-1zM44 69h1v1h-1zM45 69h1v1h-1zM46 69h1v1h-1zM47 69h1v1h-1zM48 69h1v1h-1zM49 69h1v1h-1zM50 69h1v1h-1z"/><path fill="#918052" d="M51 69h1v1h-1z"/><path fill="#231815" d="M52 69h1v1h-1zM53 69h1v1h-1zM54 69h1v1h-1zM0 70h1v1H0zM1 70h1v1H1zM2 70h1v1H2z"/><path fill="#918052" d="M3 70h1v1H3z"/><path fill="#B5A366" d="M4 70h1v1H4zM5 70h1v1H5zM6 70h1v1H6zM7 70h1v1H7zM8 70h1v1H8z"/><path fill="#DED18F" d="M9 70h1v1H9z"/><path fill="#EBE09D" d="M10 70h1v1h-1zM11 70h1v1h-1zM12 70h1v1h-1zM13 70h1v1h-1z"/><path fill="#E4DB9C" d="M14 70h1v1h-1z"/><path fill="#859691" d="M15 70h1v1h-1z"/><path fill="#889CA2" d="M16 70h1v1h-1z"/><path fill="#8EA2A8" d="M17 70h1v1h-1zM18 70h1v1h-1z"/><path fill="#B2C4CA" d="M19 70h1v1h-1z"/><path fill="#C8D8DF" d="M20 70h1v1h-1zM21 70h1v1h-1zM22 70h1v1h-1zM23 70h1v1h-1zM24 70h1v1h-1zM25 70h1v1h-1z"/><path fill="#B7C5CB" d="M26 70h1v1h-1z"/><path fill="#B1BFC4" d="M27 70h1v1h-1zM28 70h1v1h-1zM29 70h1v1h-1zM30 70h1v1h-1zM31 70h1v1h-1zM32 70h1v1h-1zM33 70h1v1h-1zM34 70h1v1h-1z"/><path fill="#ADBCC1" d="M35 70h1v1h-1z"/><path fill="#819599" d="M36 70h1v1h-1z"/><path fill="#768B8F" d="M37 70h1v1h-1zM38 70h1v1h-1z"/><path fill="#7D9090" d="M39 70h1v1h-1z"/><path fill="#DCD59B" d="M40 70h1v1h-1z"/><path fill="#EBE09D" d="M41 70h1v1h-1z"/><path fill="#D0C282" d="M42 70h1v1h-1z"/><path fill="#B5A366" d="M43 70h1v1h-1zM44 70h1v1h-1zM45 70h1v1h-1zM46 70h1v1h-1zM47 70h1v1h-1zM48 70h1v1h-1zM49 70h1v1h-1zM50 70h1v1h-1z"/><path fill="#918052" d="M51 70h1v1h-1z"/><path fill="#231815" d="M52 70h1v1h-1zM53 70h1v1h-1zM54 70h1v1h-1zM0 71h1v1H0zM1 71h1v1H1zM2 71h1v1H2z"/><path fill="#918052" d="M3 71h1v1H3z"/><path fill="#B5A366" d="M4 71h1v1H4zM5 71h1v1H5zM6 71h1v1H6zM7 71h1v1H7zM8 71h1v1H8z"/><path fill="#DED18F" d="M9 71h1v1H9z"/><path fill="#EBE09D" d="M10 71h1v1h-1zM11 71h1v1h-1zM12 71h1v1h-1zM13 71h1v1h-1zM14 71h1v1h-1z"/><path fill="#D5D09A" d="M15 71h1v1h-1z"/><path fill="#8FA2A3" d="M16 71h1v1h-1z"/><path fill="#8EA2A8" d="M17 71h1v1h-1zM18 71h1v1h-1zM19 71h1v1h-1z"/><path fill="#ABBDC4" d="M20 71h1v1h-1z"/><path fill="#C8D8DF" d="M21 71h1v1h-1zM22 71h1v1h-1zM23 71h1v1h-1zM24 71h1v1h-1zM25 71h1v1h-1z"/><path fill="#B7C5CB" d="M26 71h1v1h-1z"/><path fill="#B1BFC4" d="M27 71h1v1h-1zM28 71h1v1h-1zM29 71h1v1h-1zM30 71h1v1h-1zM31 71h1v1h-1zM32 71h1v1h-1zM33 71h1v1h-1z"/><path fill="#A6B5BA" d="M34 71h1v1h-1z"/><path fill="#819599" d="M35 71h1v1h-1z"/><path fill="#768B8F" d="M36 71h1v1h-1zM37 71h1v1h-1zM38 71h1v1h-1z"/><path fill="#BFC098" d="M39 71h1v1h-1z"/><path fill="#EBE09D" d="M40 71h1v1h-1zM41 71h1v1h-1z"/><path fill="#D0C282" d="M42 71h1v1h-1z"/><path fill="#B5A366" d="M43 71h1v1h-1zM44 71h1v1h-1zM45 71h1v1h-1zM46 71h1v1h-1zM47 71h1v1h-1zM48 71h1v1h-1zM49 71h1v1h-1zM50 71h1v1h-1z"/><path fill="#918052" d="M51 71h1v1h-1z"/><path fill="#231815" d="M52 71h1v1h-1zM53 71h1v1h-1zM54 71h1v1h-1zM0 72h1v1H0zM1 72h1v1H1zM2 72h1v1H2z"/><path fill="#918052" d="M3 72h1v1H3z"/><path fill="#B5A366" d="M4 72h1v1H4zM5 72h1v1H5zM6 72h1v1H6zM7 72h1v1H7zM8 72h1v1H8z"/><path fill="#DED18F" d="M9 72h1v1H9z"/><path fill="#EBE09D" d="M10 72h1v1h-1zM11 72h1v1h-1zM12 72h1v1h-1zM13 72h1v1h-1zM14 72h1v1h-1zM15 72h1v1h-1z"/><path fill="#C9CEB2" d="M16 72h1v1h-1z"/><path fill="#8EA2A8" d="M17 72h1v1h-1zM18 72h1v1h-1zM19 72h1v1h-1zM20 72h1v1h-1z"/><path fill="#9DB0B6" d="M21 72h1v1h-1z"/><path fill="#BACBD1" d="M22 72h1v1h-1z"/><path fill="#C8D8DF" d="M23 72h1v1h-1zM24 72h1v1h-1zM25 72h1v1h-1z"/><path fill="#B7C5CB" d="M26 72h1v1h-1z"/><path fill="#B1BFC4" d="M27 72h1v1h-1zM28 72h1v1h-1zM29 72h1v1h-1zM30 72h1v1h-1zM31 72h1v1h-1z"/><path fill="#ADBCC1" d="M32 72h1v1h-1z"/><path fill="#94A5AA" d="M33 72h1v1h-1z"/><path fill="#7A8E92" d="M34 72h1v1h-1z"/><path fill="#768B8F" d="M35 72h1v1h-1zM36 72h1v1h-1zM37 72h1v1h-1z"/><path fill="#BFC098" d="M38 72h1v1h-1z"/><path fill="#EBE09D" d="M39 72h1v1h-1zM40 72h1v1h-1zM41 72h1v1h-1z"/><path fill="#D0C282" d="M42 72h1v1h-1z"/><path fill="#B5A366" d="M43 72h1v1h-1zM44 72h1v1h-1zM45 72h1v1h-1zM46 72h1v1h-1zM47 72h1v1h-1zM48 72h1v1h-1zM49 72h1v1h-1zM50 72h1v1h-1z"/><path fill="#918052" d="M51 72h1v1h-1z"/><path fill="#231815" d="M52 72h1v1h-1zM53 72h1v1h-1zM54 72h1v1h-1zM0 73h1v1H0zM1 73h1v1H1zM2 73h1v1H2z"/><path fill="#918052" d="M3 73h1v1H3z"/><path fill="#B5A366" d="M4 73h1v1H4zM5 73h1v1H5zM6 73h1v1H6zM7 73h1v1H7zM8 73h1v1H8z"/><path fill="#DED18F" d="M9 73h1v1H9z"/><path fill="#EBE09D" d="M10 73h1v1h-1zM11 73h1v1h-1zM12 73h1v1h-1zM13 73h1v1h-1zM14 73h1v1h-1zM15 73h1v1h-1z"/><path fill="#FAF5C4" d="M16 73h1v1h-1z"/><path fill="#D5DAC2" d="M17 73h1v1h-1z"/><path fill="#8EA2A8" d="M18 73h1v1h-1zM19 73h1v1h-1zM20 73h1v1h-1zM21 73h1v1h-1zM22 73h1v1h-1z"/><path fill="#99ACB2" d="M23 73h1v1h-1z"/><path fill="#AFC0C7" d="M24 73h1v1h-1z"/><path fill="#BACBD1" d="M25 73h1v1h-1z"/><path fill="#B3C2C7" d="M26 73h1v1h-1z"/><path fill="#B1BFC4" d="M27 73h1v1h-1zM28 73h1v1h-1zM29 73h1v1h-1z"/><path fill="#A2B2B7" d="M30 73h1v1h-1z"/><path fill="#90A2A6" d="M31 73h1v1h-1z"/><path fill="#7A8E92" d="M32 73h1v1h-1z"/><path fill="#768B8F" d="M33 73h1v1h-1zM34 73h1v1h-1zM35 73h1v1h-1zM36 73h1v1h-1z"/><path fill="#BFC098" d="M37 73h1v1h-1z"/><path fill="#EBE09D" d="M38 73h1v1h-1zM39 73h1v1h-1zM40 73h1v1h-1zM41 73h1v1h-1z"/><path fill="#D0C282" d="M42 73h1v1h-1z"/><path fill="#B5A366" d="M43 73h1v1h-1zM44 73h1v1h-1zM45 73h1v1h-1zM46 73h1v1h-1zM47 73h1v1h-1zM48 73h1v1h-1zM49 73h1v1h-1zM50 73h1v1h-1z"/><path fill="#918052" d="M51 73h1v1h-1z"/><path fill="#231815" d="M52 73h1v1h-1zM53 73h1v1h-1zM54 73h1v1h-1zM0 74h1v1H0zM1 74h1v1H1zM2 74h1v1H2z"/><path fill="#918052" d="M3 74h1v1H3z"/><path fill="#B5A366" d="M4 74h1v1H4zM5 74h1v1H5zM6 74h1v1H6zM7 74h1v1H7zM8 74h1v1H8z"/><path fill="#DED18F" d="M9 74h1v1H9z"/><path fill="#EBE09D" d="M10 74h1v1h-1zM11 74h1v1h-1zM12 74h1v1h-1zM13 74h1v1h-1zM14 74h1v1h-1zM15 74h1v1h-1z"/><path fill="#FAF5C4" d="M16 74h1v1h-1z"/><path fill="#FFFCD1" d="M17 74h1v1h-1z"/><path fill="#DCE0C4" d="M18 74h1v1h-1z"/><path fill="#95A8AB" d="M19 74h1v1h-1z"/><path fill="#8EA2A8" d="M20 74h1v1h-1zM21 74h1v1h-1zM22 74h1v1h-1zM23 74h1v1h-1zM24 74h1v1h-1zM25 74h1v1h-1z"/><path fill="#7C9195" d="M26 74h1v1h-1z"/><path fill="#85989C" d="M27 74h1v1h-1z"/><path fill="#7A8E92" d="M28 74h1v1h-1z"/><path fill="#768B8F" d="M29 74h1v1h-1zM30 74h1v1h-1zM31 74h1v1h-1zM32 74h1v1h-1zM33 74h1v1h-1zM34 74h1v1h-1z"/><path fill="#859691" d="M35 74h1v1h-1z"/><path fill="#CECB9A" d="M36 74h1v1h-1z"/><path fill="#EBE09D" d="M37 74h1v1h-1zM38 74h1v1h-1zM39 74h1v1h-1zM40 74h1v1h-1zM41 74h1v1h-1z"/><path fill="#D0C282" d="M42 74h1v1h-1z"/><path fill="#B5A366" d="M43 74h1v1h-1zM44 74h1v1h-1zM45 74h1v1h-1zM46 74h1v1h-1zM47 74h1v1h-1zM48 74h1v1h-1zM49 74h1v1h-1zM50 74h1v1h-1z"/><path fill="#918052" d="M51 74h1v1h-1z"/><path fill="#231815" d="M52 74h1v1h-1zM53 74h1v1h-1zM54 74h1v1h-1zM0 75h1v1H0zM1 75h1v1H1zM2 75h1v1H2z"/><path fill="#918052" d="M3 75h1v1H3z"/><path fill="#B5A366" d="M4 75h1v1H4zM5 75h1v1H5zM6 75h1v1H6zM7 75h1v1H7zM8 75h1v1H8z"/><path fill="#DED18F" d="M9 75h1v1H9z"/><path fill="#EBE09D" d="M10 75h1v1h-1zM11 75h1v1h-1zM12 75h1v1h-1zM13 75h1v1h-1zM14 75h1v1h-1zM15 75h1v1h-1z"/><path fill="#FAF5C4" d="M16 75h1v1h-1z"/><path fill="#FFFCD1" d="M17 75h1v1h-1zM18 75h1v1h-1z"/><path fill="#F8F6CE" d="M19 75h1v1h-1z"/><path fill="#BFC9BA" d="M20 75h1v1h-1z"/><path fill="#8EA2A8" d="M21 75h1v1h-1zM22 75h1v1h-1zM23 75h1v1h-1zM24 75h1v1h-1zM25 75h1v1h-1z"/><path fill="#7C9195" d="M26 75h1v1h-1z"/><path fill="#768B8F" d="M27 75h1v1h-1zM28 75h1v1h-1zM29 75h1v1h-1zM30 75h1v1h-1zM31 75h1v1h-1zM32 75h1v1h-1z"/><path fill="#7D9090" d="M33 75h1v1h-1z"/><path fill="#B1B696" d="M34 75h1v1h-1z"/><path fill="#E4DB9C" d="M35 75h1v1h-1z"/><path fill="#EBE09D" d="M36 75h1v1h-1zM37 75h1v1h-1zM38 75h1v1h-1zM39 75h1v1h-1zM40 75h1v1h-1zM41 75h1v1h-1z"/><path fill="#D0C282" d="M42 75h1v1h-1z"/><path fill="#B5A366" d="M43 75h1v1h-1zM44 75h1v1h-1zM45 75h1v1h-1zM46 75h1v1h-1zM47 75h1v1h-1zM48 75h1v1h-1zM49 75h1v1h-1zM50 75h1v1h-1z"/><path fill="#918052" d="M51 75h1v1h-1z"/><path fill="#231815" d="M52 75h1v1h-1zM53 75h1v1h-1zM54 75h1v1h-1zM0 76h1v1H0zM1 76h1v1H1zM2 76h1v1H2z"/><path fill="#918052" d="M3 76h1v1H3z"/><path fill="#B5A366" d="M4 76h1v1H4zM5 76h1v1H5zM6 76h1v1H6zM7 76h1v1H7zM8 76h1v1H8z"/><path fill="#DED18F" d="M9 76h1v1H9z"/><path fill="#EBE09D" d="M10 76h1v1h-1zM11 76h1v1h-1zM12 76h1v1h-1zM13 76h1v1h-1zM14 76h1v1h-1zM15 76h1v1h-1z"/><path fill="#FAF5C4" d="M16 76h1v1h-1z"/><path fill="#FFFCD1" d="M17 76h1v1h-1zM18 76h1v1h-1zM19 76h1v1h-1zM20 76h1v1h-1z"/><path fill="#F8F6CE" d="M21 76h1v1h-1z"/><path fill="#CED5BF" d="M22 76h1v1h-1z"/><path fill="#AAB9B2" d="M23 76h1v1h-1z"/><path fill="#8EA2A8" d="M24 76h1v1h-1zM25 76h1v1h-1z"/><path fill="#7C9195" d="M26 76h1v1h-1z"/><path fill="#768B8F" d="M27 76h1v1h-1zM28 76h1v1h-1zM29 76h1v1h-1z"/><path fill="#859691" d="M30 76h1v1h-1z"/><path fill="#A2AB94" d="M31 76h1v1h-1z"/><path fill="#BFC098" d="M32 76h1v1h-1z"/><path fill="#EBE09D" d="M33 76h1v1h-1zM34 76h1v1h-1zM35 76h1v1h-1zM36 76h1v1h-1zM37 76h1v1h-1zM38 76h1v1h-1zM39 76h1v1h-1zM40 76h1v1h-1zM41 76h1v1h-1z"/><path fill="#D0C282" d="M42 76h1v1h-1z"/><path fill="#B5A366" d="M43 76h1v1h-1zM44 76h1v1h-1zM45 76h1v1h-1zM46 76h1v1h-1zM47 76h1v1h-1zM48 76h1v1h-1zM49 76h1v1h-1zM50 76h1v1h-1z"/><path fill="#918052" d="M51 76h1v1h-1z"/><path fill="#231815" d="M52 76h1v1h-1zM53 76h1v1h-1zM54 76h1v1h-1zM0 77h1v1H0zM1 77h1v1H1zM2 77h1v1H2z"/><path fill="#918052" d="M3 77h1v1H3z"/><path fill="#B5A366" d="M4 77h1v1H4zM5 77h1v1H5zM6 77h1v1H6zM7 77h1v1H7zM8 77h1v1H8z"/><path fill="#DED18F" d="M9 77h1v1H9z"/><path fill="#EBE09D" d="M10 77h1v1h-1zM11 77h1v1h-1zM12 77h1v1h-1zM13 77h1v1h-1zM14 77h1v1h-1zM15 77h1v1h-1z"/><path fill="#FAF5C4" d="M16 77h1v1h-1z"/><path fill="#FFFCD1" d="M17 77h1v1h-1zM18 77h1v1h-1zM19 77h1v1h-1zM20 77h1v1h-1zM21 77h1v1h-1zM22 77h1v1h-1zM23 77h1v1h-1zM24 77h1v1h-1z"/><path fill="#EAEBC9" d="M25 77h1v1h-1z"/><path fill="#E2DCA7" d="M26 77h1v1h-1z"/><path fill="#CECB9A" d="M27 77h1v1h-1z"/><path fill="#DCD59B" d="M28 77h1v1h-1z"/><path fill="#EBE09D" d="M29 77h1v1h-1zM30 77h1v1h-1zM31 77h1v1h-1zM32 77h1v1h-1zM33 77h1v1h-1zM34 77h1v1h-1zM35 77h1v1h-1zM36 77h1v1h-1zM37 77h1v1h-1zM38 77h1v1h-1zM39 77h1v1h-1zM40 77h1v1h-1zM41 77h1v1h-1z"/><path fill="#D0C282" d="M42 77h1v1h-1z"/><path fill="#B5A366" d="M43 77h1v1h-1zM44 77h1v1h-1zM45 77h1v1h-1zM46 77h1v1h-1zM47 77h1v1h-1zM48 77h1v1h-1zM49 77h1v1h-1zM50 77h1v1h-1z"/><path fill="#918052" d="M51 77h1v1h-1z"/><path fill="#231815" d="M52 77h1v1h-1zM53 77h1v1h-1zM54 77h1v1h-1zM0 78h1v1H0zM1 78h1v1H1zM2 78h1v1H2z"/><path fill="#87784D" d="M3 78h1v1H3z"/><path fill="#B5A366" d="M4 78h1v1H4zM5 78h1v1H5zM6 78h1v1H6zM7 78h1v1H7zM8 78h1v1H8z"/><path fill="#DED18F" d="M9 78h1v1H9z"/><path fill="#EBE09D" d="M10 78h1v1h-1zM11 78h1v1h-1zM12 78h1v1h-1zM13 78h1v1h-1zM14 78h1v1h-1zM15 78h1v1h-1z"/><path fill="#FAF5C4" d="M16 78h1v1h-1z"/><path fill="#FFFCD1" d="M17 78h1v1h-1zM18 78h1v1h-1zM19 78h1v1h-1zM20 78h1v1h-1zM21 78h1v1h-1zM22 78h1v1h-1zM23 78h1v1h-1zM24 78h1v1h-1zM25 78h1v1h-1z"/><path fill="#F0E7AA" d="M26 78h1v1h-1z"/><path fill="#EBE09D" d="M27 78h1v1h-1zM28 78h1v1h-1zM29 78h1v1h-1zM30 78h1v1h-1zM31 78h1v1h-1zM32 78h1v1h-1zM33 78h1v1h-1zM34 78h1v1h-1zM35 78h1v1h-1zM36 78h1v1h-1zM37 78h1v1h-1zM38 78h1v1h-1zM39 78h1v1h-1zM40 78h1v1h-1zM41 78h1v1h-1z"/><path fill="#D0C282" d="M42 78h1v1h-1z"/><path fill="#B5A366" d="M43 78h1v1h-1zM44 78h1v1h-1zM45 78h1v1h-1zM46 78h1v1h-1zM47 78h1v1h-1zM48 78h1v1h-1zM49 78h1v1h-1zM50 78h1v1h-1z"/><path fill="#87784D" d="M51 78h1v1h-1z"/><path fill="#231815" d="M52 78h1v1h-1zM53 78h1v1h-1zM54 78h1v1h-1zM0 79h1v1H0zM1 79h1v1H1zM2 79h1v1H2z"/><path fill="#483B29" d="M3 79h1v1H3z"/><path fill="#B5A366" d="M4 79h1v1H4zM5 79h1v1H5zM6 79h1v1H6zM7 79h1v1H7zM8 79h1v1H8z"/><path fill="#DED18F" d="M9 79h1v1H9z"/><path fill="#EBE09D" d="M10 79h1v1h-1zM11 79h1v1h-1zM12 79h1v1h-1zM13 79h1v1h-1zM14 79h1v1h-1zM15 79h1v1h-1z"/><path fill="#FAF5C4" d="M16 79h1v1h-1z"/><path fill="#FFFCD1" d="M17 79h1v1h-1zM18 79h1v1h-1zM19 79h1v1h-1zM20 79h1v1h-1zM21 79h1v1h-1zM22 79h1v1h-1zM23 79h1v1h-1zM24 79h1v1h-1zM25 79h1v1h-1z"/><path fill="#F0E7AA" d="M26 79h1v1h-1z"/><path fill="#EBE09D" d="M27 79h1v1h-1zM28 79h1v1h-1zM29 79h1v1h-1zM30 79h1v1h-1zM31 79h1v1h-1zM32 79h1v1h-1zM33 79h1v1h-1zM34 79h1v1h-1zM35 79h1v1h-1zM36 79h1v1h-1zM37 79h1v1h-1zM38 79h1v1h-1zM39 79h1v1h-1zM40 79h1v1h-1zM41 79h1v1h-1z"/><path fill="#D0C282" d="M42 79h1v1h-1z"/><path fill="#B5A366" d="M43 79h1v1h-1zM44 79h1v1h-1zM45 79h1v1h-1zM46 79h1v1h-1zM47 79h1v1h-1zM48 79h1v1h-1zM49 79h1v1h-1zM50 79h1v1h-1z"/><path fill="#483B29" d="M51 79h1v1h-1z"/><path fill="#231815" d="M52 79h1v1h-1zM53 79h1v1h-1zM54 79h1v1h-1zM0 80h1v1H0zM1 80h1v1H1zM2 80h1v1H2zM3 80h1v1H3z"/><path fill="#5A4C33" d="M4 80h1v1H4z"/><path fill="#B5A366" d="M5 80h1v1H5zM6 80h1v1H6zM7 80h1v1H7zM8 80h1v1H8z"/><path fill="#DED18F" d="M9 80h1v1H9z"/><path fill="#EBE09D" d="M10 80h1v1h-1zM11 80h1v1h-1zM12 80h1v1h-1zM13 80h1v1h-1zM14 80h1v1h-1zM15 80h1v1h-1z"/><path fill="#FAF5C4" d="M16 80h1v1h-1z"/><path fill="#FFFCD1" d="M17 80h1v1h-1zM18 80h1v1h-1zM19 80h1v1h-1zM20 80h1v1h-1zM21 80h1v1h-1zM22 80h1v1h-1zM23 80h1v1h-1zM24 80h1v1h-1zM25 80h1v1h-1z"/><path fill="#F0E7AA" d="M26 80h1v1h-1z"/><path fill="#EBE09D" d="M27 80h1v1h-1zM28 80h1v1h-1zM29 80h1v1h-1zM30 80h1v1h-1zM31 80h1v1h-1zM32 80h1v1h-1zM33 80h1v1h-1zM34 80h1v1h-1zM35 80h1v1h-1zM36 80h1v1h-1zM37 80h1v1h-1zM38 80h1v1h-1zM39 80h1v1h-1zM40 80h1v1h-1zM41 80h1v1h-1z"/><path fill="#D0C282" d="M42 80h1v1h-1z"/><path fill="#B5A366" d="M43 80h1v1h-1zM44 80h1v1h-1zM45 80h1v1h-1zM46 80h1v1h-1zM47 80h1v1h-1zM48 80h1v1h-1zM49 80h1v1h-1z"/><path fill="#5A4C33" d="M50 80h1v1h-1z"/><path fill="#231815" d="M51 80h1v1h-1zM52 80h1v1h-1zM53 80h1v1h-1zM54 80h1v1h-1zM1 81h1v1H1zM2 81h1v1H2zM3 81h1v1H3zM4 81h1v1H4z"/><path fill="#5A4C33" d="M5 81h1v1H5z"/><path fill="#AC9A61" d="M6 81h1v1H6z"/><path fill="#B5A366" d="M7 81h1v1H7zM8 81h1v1H8z"/><path fill="#DED18F" d="M9 81h1v1H9z"/><path fill="#EBE09D" d="M10 81h1v1h-1zM11 81h1v1h-1zM12 81h1v1h-1zM13 81h1v1h-1zM14 81h1v1h-1zM15 81h1v1h-1z"/><path fill="#FAF5C4" d="M16 81h1v1h-1z"/><path fill="#FFFCD1" d="M17 81h1v1h-1zM18 81h1v1h-1zM19 81h1v1h-1zM20 81h1v1h-1zM21 81h1v1h-1zM22 81h1v1h-1zM23 81h1v1h-1zM24 81h1v1h-1zM25 81h1v1h-1z"/><path fill="#F0E7AA" d="M26 81h1v1h-1z"/><path fill="#EBE09D" d="M27 81h1v1h-1zM28 81h1v1h-1zM29 81h1v1h-1zM30 81h1v1h-1zM31 81h1v1h-1zM32 81h1v1h-1zM33 81h1v1h-1zM34 81h1v1h-1zM35 81h1v1h-1zM36 81h1v1h-1zM37 81h1v1h-1zM38 81h1v1h-1zM39 81h1v1h-1zM40 81h1v1h-1zM41 81h1v1h-1z"/><path fill="#D0C282" d="M42 81h1v1h-1z"/><path fill="#B5A366" d="M43 81h1v1h-1zM44 81h1v1h-1zM45 81h1v1h-1zM46 81h1v1h-1zM47 81h1v1h-1z"/><path fill="#AC9A61" d="M48 81h1v1h-1z"/><path fill="#5A4C33" d="M49 81h1v1h-1z"/><path fill="#231815" d="M50 81h1v1h-1zM51 81h1v1h-1zM52 81h1v1h-1zM53 81h1v1h-1zM1 82h1v1H1zM2 82h1v1H2zM3 82h1v1H3zM4 82h1v1H4zM5 82h1v1H5z"/><path fill="#35291F" d="M6 82h1v1H6z"/><path fill="#918052" d="M7 82h1v1H7z"/><path fill="#B5A366" d="M8 82h1v1H8z"/><path fill="#DED18F" d="M9 82h1v1H9z"/><path fill="#EBE09D" d="M10 82h1v1h-1zM11 82h1v1h-1zM12 82h1v1h-1zM13 82h1v1h-1zM14 82h1v1h-1zM15 82h1v1h-1z"/><path fill="#FAF5C4" d="M16 82h1v1h-1z"/><path fill="#FFFCD1" d="M17 82h1v1h-1zM18 82h1v1h-1zM19 82h1v1h-1zM20 82h1v1h-1zM21 82h1v1h-1zM22 82h1v1h-1zM23 82h1v1h-1zM24 82h1v1h-1zM25 82h1v1h-1z"/><path fill="#F0E7AA" d="M26 82h1v1h-1z"/><path fill="#EBE09D" d="M27 82h1v1h-1zM28 82h1v1h-1zM29 82h1v1h-1zM30 82h1v1h-1zM31 82h1v1h-1zM32 82h1v1h-1zM33 82h1v1h-1zM34 82h1v1h-1zM35 82h1v1h-1zM36 82h1v1h-1zM37 82h1v1h-1zM38 82h1v1h-1zM39 82h1v1h-1zM40 82h1v1h-1zM41 82h1v1h-1z"/><path fill="#D0C282" d="M42 82h1v1h-1z"/><path fill="#B5A366" d="M43 82h1v1h-1zM44 82h1v1h-1zM45 82h1v1h-1zM46 82h1v1h-1z"/><path fill="#918052" d="M47 82h1v1h-1z"/><path fill="#35291F" d="M48 82h1v1h-1z"/><path fill="#231815" d="M49 82h1v1h-1zM50 82h1v1h-1zM51 82h1v1h-1zM52 82h1v1h-1zM53 82h1v1h-1zM2 83h1v1H2zM3 83h1v1H3zM4 83h1v1H4zM5 83h1v1H5zM6 83h1v1H6zM7 83h1v1H7z"/><path fill="#483B29" d="M8 83h1v1H8z"/><path fill="#B2A674" d="M9 83h1v1H9z"/><path fill="#EBE09D" d="M10 83h1v1h-1zM11 83h1v1h-1zM12 83h1v1h-1zM13 83h1v1h-1zM14 83h1v1h-1zM15 83h1v1h-1z"/><path fill="#F6F0BA" d="M16 83h1v1h-1z"/><path fill="#FAF5C4" d="M17 83h1v1h-1z"/><path fill="#FDF9CB" d="M18 83h1v1h-1z"/><path fill="#FFFCD1" d="M19 83h1v1h-1zM20 83h1v1h-1zM21 83h1v1h-1zM22 83h1v1h-1zM23 83h1v1h-1zM24 83h1v1h-1zM25 83h1v1h-1z"/><path fill="#F0E7AA" d="M26 83h1v1h-1z"/><path fill="#EBE09D" d="M27 83h1v1h-1zM28 83h1v1h-1zM29 83h1v1h-1zM30 83h1v1h-1zM31 83h1v1h-1zM32 83h1v1h-1zM33 83h1v1h-1zM34 83h1v1h-1zM35 83h1v1h-1zM36 83h1v1h-1zM37 83h1v1h-1zM38 83h1v1h-1zM39 83h1v1h-1zM40 83h1v1h-1zM41 83h1v1h-1z"/><path fill="#D0C282" d="M42 83h1v1h-1z"/><path fill="#B5A366" d="M43 83h1v1h-1zM44 83h1v1h-1z"/><path fill="#918052" d="M45 83h1v1h-1z"/><path fill="#483B29" d="M46 83h1v1h-1z"/><path fill="#231815" d="M47 83h1v1h-1zM48 83h1v1h-1zM49 83h1v1h-1zM50 83h1v1h-1zM51 83h1v1h-1zM52 83h1v1h-1zM4 84h1v1H4zM5 84h1v1H5zM6 84h1v1H6zM7 84h1v1H7zM8 84h1v1H8zM9 84h1v1H9z"/><path fill="#3C3126" d="M10 84h1v1h-1z"/><path fill="#948962" d="M11 84h1v1h-1z"/><path fill="#D2C78C" d="M12 84h1v1h-1z"/><path fill="#EBE09D" d="M13 84h1v1h-1zM14 84h1v1h-1zM15 84h1v1h-1zM16 84h1v1h-1zM17 84h1v1h-1zM18 84h1v1h-1zM19 84h1v1h-1zM20 84h1v1h-1z"/><path fill="#F0E7AA" d="M21 84h1v1h-1zM22 84h1v1h-1z"/><path fill="#F1E9AD" d="M23 84h1v1h-1z"/><path fill="#F5EEB7" d="M24 84h1v1h-1zM25 84h1v1h-1z"/><path fill="#EEE4A4" d="M26 84h1v1h-1z"/><path fill="#EBE09D" d="M27 84h1v1h-1zM28 84h1v1h-1zM29 84h1v1h-1zM30 84h1v1h-1zM31 84h1v1h-1zM32 84h1v1h-1zM33 84h1v1h-1zM34 84h1v1h-1zM35 84h1v1h-1zM36 84h1v1h-1zM37 84h1v1h-1zM38 84h1v1h-1zM39 84h1v1h-1zM40 84h1v1h-1zM41 84h1v1h-1z"/><path fill="#BEB077" d="M42 84h1v1h-1z"/><path fill="#756643" d="M43 84h1v1h-1z"/><path fill="#35291F" d="M44 84h1v1h-1z"/><path fill="#231815" d="M45 84h1v1h-1zM46 84h1v1h-1zM47 84h1v1h-1zM48 84h1v1h-1zM49 84h1v1h-1zM50 84h1v1h-1zM5 85h1v1H5zM6 85h1v1H6zM7 85h1v1H7zM8 85h1v1H8zM9 85h1v1H9zM10 85h1v1h-1zM11 85h1v1h-1zM12 85h1v1h-1z"/><path fill="#3C3126" d="M13 85h1v1h-1z"/><path fill="#7B7051" d="M14 85h1v1h-1z"/><path fill="#ADA273" d="M15 85h1v1h-1z"/><path fill="#D2C78C" d="M16 85h1v1h-1z"/><path fill="#EBE09D" d="M17 85h1v1h-1zM18 85h1v1h-1zM19 85h1v1h-1zM20 85h1v1h-1zM21 85h1v1h-1zM22 85h1v1h-1zM23 85h1v1h-1zM24 85h1v1h-1zM25 85h1v1h-1zM26 85h1v1h-1zM27 85h1v1h-1zM28 85h1v1h-1zM29 85h1v1h-1zM30 85h1v1h-1zM31 85h1v1h-1zM32 85h1v1h-1zM33 85h1v1h-1zM34 85h1v1h-1zM35 85h1v1h-1zM36 85h1v1h-1zM37 85h1v1h-1z"/><path fill="#D2C78C" d="M38 85h1v1h-1z"/><path fill="#ADA273" d="M39 85h1v1h-1z"/><path fill="#7B7051" d="M40 85h1v1h-1z"/><path fill="#3C3126" d="M41 85h1v1h-1z"/><path fill="#231815" d="M42 85h1v1h-1zM43 85h1v1h-1zM44 85h1v1h-1zM45 85h1v1h-1zM46 85h1v1h-1zM47 85h1v1h-1zM48 85h1v1h-1zM49 85h1v1h-1zM7 86h1v1H7zM8 86h1v1H8zM9 86h1v1H9zM10 86h1v1h-1zM11 86h1v1h-1zM12 86h1v1h-1zM13 86h1v1h-1zM14 86h1v1h-1zM15 86h1v1h-1zM16 86h1v1h-1z"/><path fill="#30251E" d="M17 86h1v1h-1z"/><path fill="#554A37" d="M18 86h1v1h-1z"/><path fill="#7B7051" d="M19 86h1v1h-1z"/><path fill="#877C59" d="M20 86h1v1h-1z"/><path fill="#ADA273" d="M21 86h1v1h-1z"/><path fill="#B9AE7B" d="M22 86h1v1h-1zM23 86h1v1h-1z"/><path fill="#DFD495" d="M24 86h1v1h-1z"/><path fill="#EBE09D" d="M25 86h1v1h-1zM26 86h1v1h-1zM27 86h1v1h-1zM28 86h1v1h-1zM29 86h1v1h-1z"/><path fill="#DFD495" d="M30 86h1v1h-1z"/><path fill="#B9AE7B" d="M31 86h1v1h-1zM32 86h1v1h-1z"/><path fill="#ADA273" d="M33 86h1v1h-1z"/><path fill="#877C59" d="M34 86h1v1h-1z"/><path fill="#7B7051" d="M35 86h1v1h-1z"/><path fill="#554A37" d="M36 86h1v1h-1z"/><path fill="#30251E" d="M37 86h1v1h-1z"/><path fill="#231815" d="M38 86h1v1h-1zM39 86h1v1h-1zM40 86h1v1h-1zM41 86h1v1h-1zM42 86h1v1h-1zM43 86h1v1h-1zM44 86h1v1h-1zM45 86h1v1h-1zM46 86h1v1h-1zM47 86h1v1h-1zM9 87h1v1H9zM10 87h1v1h-1zM11 87h1v1h-1zM12 87h1v1h-1zM13 87h1v1h-1zM14 87h1v1h-1zM15 87h1v1h-1zM16 87h1v1h-1zM17 87h1v1h-1zM18 87h1v1h-1zM19 87h1v1h-1zM20 87h1v1h-1zM21 87h1v1h-1zM22 87h1v1h-1zM23 87h1v1h-1zM24 87h1v1h-1zM25 87h1v1h-1zM26 87h1v1h-1zM27 87h1v1h-1zM28 87h1v1h-1zM29 87h1v1h-1zM30 87h1v1h-1zM31 87h1v1h-1zM32 87h1v1h-1zM33 87h1v1h-1zM34 87h1v1h-1zM35 87h1v1h-1zM36 87h1v1h-1zM37 87h1v1h-1zM38 87h1v1h-1zM39 87h1v1h-1zM40 87h1v1h-1zM41 87h1v1h-1zM42 87h1v1h-1zM43 87h1v1h-1zM44 87h1v1h-1zM45 87h1v1h-1zM12 88h1v1h-1zM13 88h1v1h-1zM14 88h1v1h-1zM15 88h1v1h-1zM16 88h1v1h-1zM17 88h1v1h-1zM18 88h1v1h-1zM19 88h1v1h-1zM20 88h1v1h-1zM21 88h1v1h-1zM22 88h1v1h-1zM23 88h1v1h-1zM24 88h1v1h-1zM25 88h1v1h-1zM26 88h1v1h-1zM27 88h1v1h-1zM28 88h1v1h-1zM29 88h1v1h-1zM30 88h1v1h-1zM31 88h1v1h-1zM32 88h1v1h-1zM33 88h1v1h-1zM34 88h1v1h-1zM35 88h1v1h-1zM36 88h1v1h-1zM37 88h1v1h-1zM38 88h1v1h-1zM39 88h1v1h-1zM40 88h1v1h-1zM41 88h1v1h-1zM42 88h1v1h-1zM17 89h1v1h-1zM18 89h1v1h-1zM19 89h1v1h-1zM20 89h1v1h-1zM21 89h1v1h-1zM22 89h1v1h-1zM23 89h1v1h-1zM24 89h1v1h-1zM25 89h1v1h-1zM26 89h1v1h-1zM27 89h1v1h-1zM28 89h1v1h-1zM29 89h1v1h-1zM30 89h1v1h-1zM31 89h1v1h-1zM32 89h1v1h-1zM33 89h1v1h-1zM34 89h1v1h-1zM35 89h1v1h-1zM36 89h1v1h-1zM37 89h1v1h-1z"/></svg>