<svg baseProfile="full" height="90" width="80" xmlns="http://www.w3.org/2000/svg"><path fill="#002" d="M20 0h1v1h-1zM21 0h1v1h-1zM22 0h1v1h-1zM23 0h1v1h-1zM20 1h1v1h-1zM21 1h1v1h-1zM22 1h1v1h-1zM23 1h1v1h-1zM24 1h1v1h-1zM25 1h1v1h-1zM20 2h1v1h-1zM21 2h1v1h-1zM22 2h1v1h-1zM23 2h1v1h-1zM24 2h1v1h-1zM25 2h1v1h-1zM26 2h1v1h-1zM19 3h1v1h-1zM20 3h1v1h-1zM21 3h1v1h-1z"/><path fill="#292933" d="M22 3h1v1h-1z"/><path fill="#0E0E28" d="M23 3h1v1h-1z"/><path fill="#002" d="M24 3h1v1h-1zM25 3h1v1h-1zM26 3h1v1h-1zM27 3h1v1h-1zM19 4h1v1h-1zM20 4h1v1h-1zM21 4h1v1h-1z"/><path fill="#6C6F50" d="M22 4h1v1h-1z"/><path fill="#CBCF78" d="M23 4h1v1h-1z"/><path fill="#1E1E26" d="M24 4h1v1h-1z"/><path fill="#002" d="M25 4h1v1h-1zM26 4h1v1h-1zM27 4h1v1h-1zM28 4h1v1h-1zM19 5h1v1h-1zM20 5h1v1h-1zM21 5h1v1h-1z"/><path fill="#878A5C" d="M22 5h1v1h-1z"/><path fill="#D8DD7E" d="M23 5h1v1h-1z"/><path fill="#AAAD51" d="M24 5h1v1h-1z"/><path fill="#1E1E26" d="M25 5h1v1h-1z"/><path fill="#002" d="M26 5h1v1h-1zM27 5h1v1h-1zM28 5h1v1h-1zM29 5h1v1h-1zM19 6h1v1h-1zM20 6h1v1h-1zM21 6h1v1h-1z"/><path fill="#A2A667" d="M22 6h1v1h-1z"/><path fill="#D8DD7E" d="M23 6h1v1h-1z"/><path fill="#CDD271" d="M24 6h1v1h-1z"/><path fill="#9FA139" d="M25 6h1v1h-1z"/><path fill="#3C3C2B" d="M26 6h1v1h-1z"/><path fill="#002" d="M27 6h1v1h-1zM28 6h1v1h-1zM29 6h1v1h-1zM30 6h1v1h-1zM19 7h1v1h-1zM20 7h1v1h-1zM21 7h1v1h-1z"/><path fill="#A2A667" d="M22 7h1v1h-1z"/><path fill="#D8DD7E" d="M23 7h1v1h-1zM24 7h1v1h-1z"/><path fill="#A6A942" d="M25 7h1v1h-1z"/><path fill="#9FA139" d="M26 7h1v1h-1z"/><path fill="#3C3C2B" d="M27 7h1v1h-1z"/><path fill="#002" d="M28 7h1v1h-1zM29 7h1v1h-1zM30 7h1v1h-1zM31 7h1v1h-1zM19 8h1v1h-1zM20 8h1v1h-1zM21 8h1v1h-1z"/><path fill="#D8DD7E" d="M22 8h1v1h-1zM23 8h1v1h-1zM24 8h1v1h-1z"/><path fill="#BFC360" d="M25 8h1v1h-1z"/><path fill="#9FA139" d="M26 8h1v1h-1zM27 8h1v1h-1z"/><path fill="#3C3C2B" d="M28 8h1v1h-1z"/><path fill="#002" d="M29 8h1v1h-1zM30 8h1v1h-1zM31 8h1v1h-1zM32 8h1v1h-1zM19 9h1v1h-1zM20 9h1v1h-1zM21 9h1v1h-1z"/><path fill="#D8DD7E" d="M22 9h1v1h-1zM23 9h1v1h-1zM24 9h1v1h-1z"/><path fill="#D4D97A" d="M25 9h1v1h-1z"/><path fill="#9FA139" d="M26 9h1v1h-1zM27 9h1v1h-1zM28 9h1v1h-1z"/><path fill="#3C3C2B" d="M29 9h1v1h-1z"/><path fill="#002" d="M30 9h1v1h-1zM31 9h1v1h-1zM32 9h1v1h-1zM33 9h1v1h-1zM19 10h1v1h-1zM20 10h1v1h-1zM21 10h1v1h-1z"/><path fill="#D8DD7E" d="M22 10h1v1h-1zM23 10h1v1h-1zM24 10h1v1h-1zM25 10h1v1h-1z"/><path fill="#B1B44F" d="M26 10h1v1h-1z"/><path fill="#9FA139" d="M27 10h1v1h-1zM28 10h1v1h-1zM29 10h1v1h-1z"/><path fill="#3C3C2B" d="M30 10h1v1h-1z"/><path fill="#002" d="M31 10h1v1h-1zM32 10h1v1h-1zM33 10h1v1h-1zM34 10h1v1h-1zM19 11h1v1h-1zM20 11h1v1h-1z"/><path fill="#363739" d="M21 11h1v1h-1z"/><path fill="#D8DD7E" d="M22 11h1v1h-1zM23 11h1v1h-1zM24 11h1v1h-1zM25 11h1v1h-1z"/><path fill="#C3C764" d="M26 11h1v1h-1z"/><path fill="#9FA139" d="M27 11h1v1h-1zM28 11h1v1h-1zM29 11h1v1h-1zM30 11h1v1h-1z"/><path fill="#3C3C2B" d="M31 11h1v1h-1z"/><path fill="#002" d="M32 11h1v1h-1zM33 11h1v1h-1zM34 11h1v1h-1zM35 11h1v1h-1zM19 12h1v1h-1zM20 12h1v1h-1z"/><path fill="#363739" d="M21 12h1v1h-1z"/><path fill="#D8DD7E" d="M22 12h1v1h-1zM23 12h1v1h-1zM24 12h1v1h-1zM25 12h1v1h-1zM26 12h1v1h-1z"/><path fill="#A3A53D" d="M27 12h1v1h-1z"/><path fill="#9FA139" d="M28 12h1v1h-1zM29 12h1v1h-1zM30 12h1v1h-1zM31 12h1v1h-1z"/><path fill="#3C3C2B" d="M32 12h1v1h-1z"/><path fill="#002" d="M33 12h1v1h-1zM34 12h1v1h-1zM35 12h1v1h-1zM36 12h1v1h-1zM19 13h1v1h-1zM20 13h1v1h-1z"/><path fill="#363739" d="M21 13h1v1h-1z"/><path fill="#D8DD7E" d="M22 13h1v1h-1zM23 13h1v1h-1zM24 13h1v1h-1zM25 13h1v1h-1zM26 13h1v1h-1z"/><path fill="#B4B853" d="M27 13h1v1h-1z"/><path fill="#9FA139" d="M28 13h1v1h-1zM29 13h1v1h-1zM30 13h1v1h-1zM31 13h1v1h-1zM32 13h1v1h-1z"/><path fill="#3C3C2B" d="M33 13h1v1h-1z"/><path fill="#002" d="M34 13h1v1h-1zM35 13h1v1h-1zM36 13h1v1h-1zM37 13h1v1h-1zM18 14h1v1h-1zM19 14h1v1h-1zM20 14h1v1h-1z"/><path fill="#44453F" d="M21 14h1v1h-1z"/><path fill="#D8DD7E" d="M22 14h1v1h-1zM23 14h1v1h-1zM24 14h1v1h-1zM25 14h1v1h-1zM26 14h1v1h-1z"/><path fill="#CACE6D" d="M27 14h1v1h-1z"/><path fill="#9FA139" d="M28 14h1v1h-1zM29 14h1v1h-1zM30 14h1v1h-1zM31 14h1v1h-1zM32 14h1v1h-1zM33 14h1v1h-1z"/><path fill="#3C3C2B" d="M34 14h1v1h-1z"/><path fill="#002" d="M35 14h1v1h-1zM36 14h1v1h-1zM37 14h1v1h-1zM38 14h1v1h-1zM18 15h1v1h-1zM19 15h1v1h-1zM20 15h1v1h-1z"/><path fill="#6C6F50" d="M21 15h1v1h-1z"/><path fill="#D8DD7E" d="M22 15h1v1h-1zM23 15h1v1h-1zM24 15h1v1h-1zM25 15h1v1h-1zM26 15h1v1h-1zM27 15h1v1h-1z"/><path fill="#A6A942" d="M28 15h1v1h-1z"/><path fill="#9FA139" d="M29 15h1v1h-1zM30 15h1v1h-1zM31 15h1v1h-1zM32 15h1v1h-1zM33 15h1v1h-1zM34 15h1v1h-1z"/><path fill="#3C3C2B" d="M35 15h1v1h-1z"/><path fill="#002" d="M36 15h1v1h-1zM37 15h1v1h-1zM38 15h1v1h-1zM39 15h1v1h-1zM18 16h1v1h-1zM19 16h1v1h-1zM20 16h1v1h-1z"/><path fill="#6C6F50" d="M21 16h1v1h-1z"/><path fill="#D8DD7E" d="M22 16h1v1h-1zM23 16h1v1h-1zM24 16h1v1h-1zM25 16h1v1h-1zM26 16h1v1h-1zM27 16h1v1h-1z"/><path fill="#B8BB57" d="M28 16h1v1h-1z"/><path fill="#9FA139" d="M29 16h1v1h-1zM30 16h1v1h-1zM31 16h1v1h-1zM32 16h1v1h-1zM33 16h1v1h-1zM34 16h1v1h-1zM35 16h1v1h-1z"/><path fill="#3C3C2B" d="M36 16h1v1h-1z"/><path fill="#002" d="M37 16h1v1h-1zM38 16h1v1h-1zM39 16h1v1h-1zM40 16h1v1h-1zM18 17h1v1h-1zM19 17h1v1h-1zM20 17h1v1h-1z"/><path fill="#6C6F50" d="M21 17h1v1h-1z"/><path fill="#D8DD7E" d="M22 17h1v1h-1zM23 17h1v1h-1zM24 17h1v1h-1zM25 17h1v1h-1zM26 17h1v1h-1zM27 17h1v1h-1z"/><path fill="#CDD271" d="M28 17h1v1h-1z"/><path fill="#9FA139" d="M29 17h1v1h-1zM30 17h1v1h-1zM31 17h1v1h-1zM32 17h1v1h-1zM33 17h1v1h-1zM34 17h1v1h-1zM35 17h1v1h-1zM36 17h1v1h-1z"/><path fill="#3C3C2B" d="M37 17h1v1h-1z"/><path fill="#002" d="M38 17h1v1h-1zM39 17h1v1h-1zM40 17h1v1h-1zM41 17h1v1h-1zM18 18h1v1h-1zM19 18h1v1h-1zM20 18h1v1h-1z"/><path fill="#6C6F50" d="M21 18h1v1h-1z"/><path fill="#D8DD7E" d="M22 18h1v1h-1zM23 18h1v1h-1zM24 18h1v1h-1zM25 18h1v1h-1zM26 18h1v1h-1zM27 18h1v1h-1zM28 18h1v1h-1z"/><path fill="#A6A942" d="M29 18h1v1h-1z"/><path fill="#9FA139" d="M30 18h1v1h-1zM31 18h1v1h-1zM32 18h1v1h-1zM33 18h1v1h-1zM34 18h1v1h-1zM35 18h1v1h-1zM36 18h1v1h-1zM37 18h1v1h-1z"/><path fill="#3C3C2B" d="M38 18h1v1h-1z"/><path fill="#002" d="M39 18h1v1h-1zM40 18h1v1h-1zM41 18h1v1h-1zM42 18h1v1h-1zM43 18h1v1h-1zM44 18h1v1h-1zM45 18h1v1h-1zM46 18h1v1h-1zM47 18h1v1h-1zM48 18h1v1h-1zM49 18h1v1h-1zM50 18h1v1h-1zM51 18h1v1h-1zM52 18h1v1h-1zM53 18h1v1h-1zM54 18h1v1h-1zM55 18h1v1h-1zM56 18h1v1h-1zM57 18h1v1h-1zM58 18h1v1h-1zM59 18h1v1h-1zM60 18h1v1h-1zM61 18h1v1h-1zM62 18h1v1h-1zM18 19h1v1h-1zM19 19h1v1h-1zM20 19h1v1h-1z"/><path fill="#7A7C56" d="M21 19h1v1h-1z"/><path fill="#D8DD7E" d="M22 19h1v1h-1zM23 19h1v1h-1zM24 19h1v1h-1zM25 19h1v1h-1zM26 19h1v1h-1zM27 19h1v1h-1zM28 19h1v1h-1z"/><path fill="#BCBF5C" d="M29 19h1v1h-1z"/><path fill="#9FA139" d="M30 19h1v1h-1zM31 19h1v1h-1zM32 19h1v1h-1zM33 19h1v1h-1zM34 19h1v1h-1zM35 19h1v1h-1zM36 19h1v1h-1zM37 19h1v1h-1zM38 19h1v1h-1z"/><path fill="#3C3C2B" d="M39 19h1v1h-1z"/><path fill="#002" d="M40 19h1v1h-1zM41 19h1v1h-1zM42 19h1v1h-1zM43 19h1v1h-1zM44 19h1v1h-1zM45 19h1v1h-1zM46 19h1v1h-1zM47 19h1v1h-1zM48 19h1v1h-1zM49 19h1v1h-1zM50 19h1v1h-1zM51 19h1v1h-1zM52 19h1v1h-1zM53 19h1v1h-1zM54 19h1v1h-1zM55 19h1v1h-1zM56 19h1v1h-1zM57 19h1v1h-1zM58 19h1v1h-1zM59 19h1v1h-1zM60 19h1v1h-1zM61 19h1v1h-1zM62 19h1v1h-1zM18 20h1v1h-1zM19 20h1v1h-1zM20 20h1v1h-1z"/><path fill="#A2A667" d="M21 20h1v1h-1z"/><path fill="#D8DD7E" d="M22 20h1v1h-1zM23 20h1v1h-1zM24 20h1v1h-1zM25 20h1v1h-1zM26 20h1v1h-1zM27 20h1v1h-1zM28 20h1v1h-1z"/><path fill="#D1D675" d="M29 20h1v1h-1z"/><path fill="#9FA139" d="M30 20h1v1h-1zM31 20h1v1h-1zM32 20h1v1h-1zM33 20h1v1h-1zM34 20h1v1h-1zM35 20h1v1h-1zM36 20h1v1h-1zM37 20h1v1h-1zM38 20h1v1h-1zM39 20h1v1h-1z"/><path fill="#3C3C2B" d="M40 20h1v1h-1z"/><path fill="#002" d="M41 20h1v1h-1zM42 20h1v1h-1zM43 20h1v1h-1zM44 20h1v1h-1zM45 20h1v1h-1zM46 20h1v1h-1zM47 20h1v1h-1zM48 20h1v1h-1zM49 20h1v1h-1zM50 20h1v1h-1zM51 20h1v1h-1zM52 20h1v1h-1zM53 20h1v1h-1zM54 20h1v1h-1zM55 20h1v1h-1zM56 20h1v1h-1zM57 20h1v1h-1zM58 20h1v1h-1zM59 20h1v1h-1zM60 20h1v1h-1zM61 20h1v1h-1zM62 20h1v1h-1zM18 21h1v1h-1zM19 21h1v1h-1zM20 21h1v1h-1z"/><path fill="#A2A667" d="M21 21h1v1h-1z"/><path fill="#D8DD7E" d="M22 21h1v1h-1zM23 21h1v1h-1zM24 21h1v1h-1zM25 21h1v1h-1zM26 21h1v1h-1zM27 21h1v1h-1zM28 21h1v1h-1zM29 21h1v1h-1z"/><path fill="#AAAC46" d="M30 21h1v1h-1z"/><path fill="#9FA139" d="M31 21h1v1h-1zM32 21h1v1h-1zM33 21h1v1h-1zM34 21h1v1h-1zM35 21h1v1h-1zM36 21h1v1h-1zM37 21h1v1h-1zM38 21h1v1h-1zM39 21h1v1h-1z"/><path fill="#959738" d="M40 21h1v1h-1z"/><path fill="#1E1E26" d="M41 21h1v1h-1z"/><path fill="#002" d="M42 21h1v1h-1z"/><path fill="#0A0A23" d="M43 21h1v1h-1z"/><path fill="#B1B35E" d="M44 21h1v1h-1z"/><path fill="#F9F9F3" d="M45 21h1v1h-1z"/><path fill="#FFF" d="M46 21h1v1h-1zM47 21h1v1h-1zM48 21h1v1h-1zM49 21h1v1h-1zM50 21h1v1h-1zM51 21h1v1h-1zM52 21h1v1h-1zM53 21h1v1h-1zM54 21h1v1h-1zM55 21h1v1h-1zM56 21h1v1h-1zM57 21h1v1h-1z"/><path fill="#EDEDDA" d="M58 21h1v1h-1z"/><path fill="#B1B35E" d="M59 21h1v1h-1z"/><path fill="#282828" d="M60 21h1v1h-1z"/><path fill="#002" d="M61 21h1v1h-1zM62 21h1v1h-1zM18 22h1v1h-1zM19 22h1v1h-1zM20 22h1v1h-1z"/><path fill="#A2A667" d="M21 22h1v1h-1z"/><path fill="#D8DD7E" d="M22 22h1v1h-1zM23 22h1v1h-1zM24 22h1v1h-1zM25 22h1v1h-1zM26 22h1v1h-1zM27 22h1v1h-1zM28 22h1v1h-1zM29 22h1v1h-1z"/><path fill="#BFC360" d="M30 22h1v1h-1z"/><path fill="#9FA139" d="M31 22h1v1h-1zM32 22h1v1h-1zM33 22h1v1h-1zM34 22h1v1h-1zM35 22h1v1h-1zM36 22h1v1h-1zM37 22h1v1h-1zM38 22h1v1h-1zM39 22h1v1h-1zM40 22h1v1h-1z"/><path fill="#959738" d="M41 22h1v1h-1z"/><path fill="#636530" d="M42 22h1v1h-1z"/><path fill="#8B8D36" d="M43 22h1v1h-1z"/><path fill="#9FA139" d="M44 22h1v1h-1z"/><path fill="#B1B35E" d="M45 22h1v1h-1z"/><path fill="#F9F9F3" d="M46 22h1v1h-1z"/><path fill="#FFF" d="M47 22h1v1h-1zM48 22h1v1h-1zM49 22h1v1h-1zM50 22h1v1h-1zM51 22h1v1h-1zM52 22h1v1h-1zM53 22h1v1h-1zM54 22h1v1h-1zM55 22h1v1h-1zM56 22h1v1h-1z"/><path fill="#E7E8CE" d="M57 22h1v1h-1z"/><path fill="#A5A745" d="M58 22h1v1h-1z"/><path fill="#9FA139" d="M59 22h1v1h-1z"/><path fill="#282828" d="M60 22h1v1h-1z"/><path fill="#002" d="M61 22h1v1h-1zM62 22h1v1h-1zM18 23h1v1h-1zM19 23h1v1h-1zM20 23h1v1h-1z"/><path fill="#A2A667" d="M21 23h1v1h-1z"/><path fill="#D8DD7E" d="M22 23h1v1h-1zM23 23h1v1h-1zM24 23h1v1h-1zM25 23h1v1h-1zM26 23h1v1h-1zM27 23h1v1h-1zM28 23h1v1h-1zM29 23h1v1h-1z"/><path fill="#D1D675" d="M30 23h1v1h-1z"/><path fill="#9FA139" d="M31 23h1v1h-1zM32 23h1v1h-1zM33 23h1v1h-1zM34 23h1v1h-1zM35 23h1v1h-1zM36 23h1v1h-1zM37 23h1v1h-1zM38 23h1v1h-1zM39 23h1v1h-1zM40 23h1v1h-1zM41 23h1v1h-1zM42 23h1v1h-1zM43 23h1v1h-1zM44 23h1v1h-1zM45 23h1v1h-1z"/><path fill="#B1B35E" d="M46 23h1v1h-1z"/><path fill="#F9F9F3" d="M47 23h1v1h-1z"/><path fill="#FFF" d="M48 23h1v1h-1zM49 23h1v1h-1zM50 23h1v1h-1zM51 23h1v1h-1zM52 23h1v1h-1zM53 23h1v1h-1zM54 23h1v1h-1zM55 23h1v1h-1z"/><path fill="#D5D6A8" d="M56 23h1v1h-1z"/><path fill="#9FA139" d="M57 23h1v1h-1zM58 23h1v1h-1zM59 23h1v1h-1z"/><path fill="#282828" d="M60 23h1v1h-1z"/><path fill="#002" d="M61 23h1v1h-1zM62 23h1v1h-1zM18 24h1v1h-1zM19 24h1v1h-1zM20 24h1v1h-1z"/><path fill="#A2A667" d="M21 24h1v1h-1z"/><path fill="#D8DD7E" d="M22 24h1v1h-1zM23 24h1v1h-1zM24 24h1v1h-1zM25 24h1v1h-1zM26 24h1v1h-1zM27 24h1v1h-1zM28 24h1v1h-1zM29 24h1v1h-1zM30 24h1v1h-1z"/><path fill="#AAAC46" d="M31 24h1v1h-1z"/><path fill="#9FA139" d="M32 24h1v1h-1zM33 24h1v1h-1zM34 24h1v1h-1zM35 24h1v1h-1zM36 24h1v1h-1zM37 24h1v1h-1zM38 24h1v1h-1zM39 24h1v1h-1zM40 24h1v1h-1zM41 24h1v1h-1zM42 24h1v1h-1zM43 24h1v1h-1zM44 24h1v1h-1zM45 24h1v1h-1zM46 24h1v1h-1z"/><path fill="#B1B35E" d="M47 24h1v1h-1z"/><path fill="#EDEDDA" d="M48 24h1v1h-1z"/><path fill="#FFF" d="M49 24h1v1h-1zM50 24h1v1h-1zM51 24h1v1h-1zM52 24h1v1h-1zM53 24h1v1h-1zM54 24h1v1h-1z"/><path fill="#C3C483" d="M55 24h1v1h-1z"/><path fill="#9FA139" d="M56 24h1v1h-1zM57 24h1v1h-1zM58 24h1v1h-1zM59 24h1v1h-1z"/><path fill="#282828" d="M60 24h1v1h-1z"/><path fill="#002" d="M61 24h1v1h-1zM62 24h1v1h-1zM18 25h1v1h-1zM19 25h1v1h-1zM20 25h1v1h-1z"/><path fill="#A2A667" d="M21 25h1v1h-1z"/><path fill="#D8DD7E" d="M22 25h1v1h-1zM23 25h1v1h-1zM24 25h1v1h-1zM25 25h1v1h-1zM26 25h1v1h-1zM27 25h1v1h-1zM28 25h1v1h-1zM29 25h1v1h-1zM30 25h1v1h-1z"/><path fill="#BFC360" d="M31 25h1v1h-1z"/><path fill="#9FA139" d="M32 25h1v1h-1zM33 25h1v1h-1zM34 25h1v1h-1zM35 25h1v1h-1zM36 25h1v1h-1zM37 25h1v1h-1zM38 25h1v1h-1zM39 25h1v1h-1zM40 25h1v1h-1zM41 25h1v1h-1zM42 25h1v1h-1zM43 25h1v1h-1zM44 25h1v1h-1zM45 25h1v1h-1zM46 25h1v1h-1zM47 25h1v1h-1z"/><path fill="#A5A745" d="M48 25h1v1h-1z"/><path fill="#EDEDDA" d="M49 25h1v1h-1z"/><path fill="#FFF" d="M50 25h1v1h-1zM51 25h1v1h-1zM52 25h1v1h-1z"/><path fill="#F9F9F3" d="M53 25h1v1h-1z"/><path fill="#B1B35E" d="M54 25h1v1h-1z"/><path fill="#9FA139" d="M55 25h1v1h-1zM56 25h1v1h-1zM57 25h1v1h-1zM58 25h1v1h-1zM59 25h1v1h-1z"/><path fill="#282828" d="M60 25h1v1h-1z"/><path fill="#002" d="M61 25h1v1h-1zM62 25h1v1h-1zM18 26h1v1h-1zM19 26h1v1h-1zM20 26h1v1h-1z"/><path fill="#BDC173" d="M21 26h1v1h-1z"/><path fill="#D8DD7E" d="M22 26h1v1h-1zM23 26h1v1h-1zM24 26h1v1h-1zM25 26h1v1h-1zM26 26h1v1h-1zM27 26h1v1h-1zM28 26h1v1h-1zM29 26h1v1h-1zM30 26h1v1h-1z"/><path fill="#D1D675" d="M31 26h1v1h-1z"/><path fill="#9FA139" d="M32 26h1v1h-1zM33 26h1v1h-1zM34 26h1v1h-1zM35 26h1v1h-1zM36 26h1v1h-1zM37 26h1v1h-1zM38 26h1v1h-1zM39 26h1v1h-1zM40 26h1v1h-1zM41 26h1v1h-1zM42 26h1v1h-1zM43 26h1v1h-1zM44 26h1v1h-1zM45 26h1v1h-1zM46 26h1v1h-1zM47 26h1v1h-1zM48 26h1v1h-1z"/><path fill="#A5A745" d="M49 26h1v1h-1z"/><path fill="#EDEDDA" d="M50 26h1v1h-1z"/><path fill="#FFF" d="M51 26h1v1h-1z"/><path fill="#EDEDDA" d="M52 26h1v1h-1z"/><path fill="#A5A745" d="M53 26h1v1h-1z"/><path fill="#9FA139" d="M54 26h1v1h-1zM55 26h1v1h-1zM56 26h1v1h-1zM57 26h1v1h-1zM58 26h1v1h-1zM59 26h1v1h-1z"/><path fill="#282828" d="M60 26h1v1h-1z"/><path fill="#002" d="M61 26h1v1h-1zM62 26h1v1h-1zM18 27h1v1h-1zM19 27h1v1h-1zM20 27h1v1h-1z"/><path fill="#D8DD7E" d="M21 27h1v1h-1zM22 27h1v1h-1zM23 27h1v1h-1zM24 27h1v1h-1zM25 27h1v1h-1zM26 27h1v1h-1zM27 27h1v1h-1zM28 27h1v1h-1zM29 27h1v1h-1zM30 27h1v1h-1zM31 27h1v1h-1z"/><path fill="#AAAC46" d="M32 27h1v1h-1z"/><path fill="#9FA139" d="M33 27h1v1h-1zM34 27h1v1h-1zM35 27h1v1h-1zM36 27h1v1h-1zM37 27h1v1h-1zM38 27h1v1h-1zM39 27h1v1h-1zM40 27h1v1h-1zM41 27h1v1h-1zM42 27h1v1h-1zM43 27h1v1h-1zM44 27h1v1h-1zM45 27h1v1h-1zM46 27h1v1h-1zM47 27h1v1h-1zM48 27h1v1h-1zM49 27h1v1h-1z"/><path fill="#A5A745" d="M50 27h1v1h-1z"/><path fill="#CFD09C" d="M51 27h1v1h-1z"/><path fill="#A5A745" d="M52 27h1v1h-1z"/><path fill="#9FA139" d="M53 27h1v1h-1zM54 27h1v1h-1zM55 27h1v1h-1zM56 27h1v1h-1zM57 27h1v1h-1zM58 27h1v1h-1zM59 27h1v1h-1z"/><path fill="#282828" d="M60 27h1v1h-1z"/><path fill="#002" d="M61 27h1v1h-1zM62 27h1v1h-1zM18 28h1v1h-1zM19 28h1v1h-1zM20 28h1v1h-1z"/><path fill="#D8DD7E" d="M21 28h1v1h-1zM22 28h1v1h-1zM23 28h1v1h-1zM24 28h1v1h-1zM25 28h1v1h-1zM26 28h1v1h-1zM27 28h1v1h-1zM28 28h1v1h-1zM29 28h1v1h-1zM30 28h1v1h-1zM31 28h1v1h-1z"/><path fill="#BFC360" d="M32 28h1v1h-1z"/><path fill="#9FA139" d="M33 28h1v1h-1zM34 28h1v1h-1zM35 28h1v1h-1zM36 28h1v1h-1zM37 28h1v1h-1zM38 28h1v1h-1zM39 28h1v1h-1zM40 28h1v1h-1zM41 28h1v1h-1zM42 28h1v1h-1zM43 28h1v1h-1zM44 28h1v1h-1zM45 28h1v1h-1zM46 28h1v1h-1zM47 28h1v1h-1zM48 28h1v1h-1zM49 28h1v1h-1z"/><path fill="#B1B35E" d="M50 28h1v1h-1z"/><path fill="#F3F3E6" d="M51 28h1v1h-1z"/><path fill="#C9CA90" d="M52 28h1v1h-1z"/><path fill="#9FA139" d="M53 28h1v1h-1zM54 28h1v1h-1zM55 28h1v1h-1zM56 28h1v1h-1zM57 28h1v1h-1zM58 28h1v1h-1zM59 28h1v1h-1z"/><path fill="#3C3C2B" d="M60 28h1v1h-1z"/><path fill="#002" d="M61 28h1v1h-1zM62 28h1v1h-1zM63 28h1v1h-1zM16 29h1v1h-1zM17 29h1v1h-1zM18 29h1v1h-1zM19 29h1v1h-1zM20 29h1v1h-1z"/><path fill="#D8DD7E" d="M21 29h1v1h-1zM22 29h1v1h-1zM23 29h1v1h-1zM24 29h1v1h-1zM25 29h1v1h-1zM26 29h1v1h-1zM27 29h1v1h-1zM28 29h1v1h-1zM29 29h1v1h-1zM30 29h1v1h-1zM31 29h1v1h-1z"/><path fill="#D1D675" d="M32 29h1v1h-1z"/><path fill="#9FA139" d="M33 29h1v1h-1zM34 29h1v1h-1zM35 29h1v1h-1zM36 29h1v1h-1zM37 29h1v1h-1zM38 29h1v1h-1zM39 29h1v1h-1zM40 29h1v1h-1zM41 29h1v1h-1zM42 29h1v1h-1zM43 29h1v1h-1zM44 29h1v1h-1zM45 29h1v1h-1zM46 29h1v1h-1zM47 29h1v1h-1zM48 29h1v1h-1z"/><path fill="#A5A745" d="M49 29h1v1h-1z"/><path fill="#EDEDDA" d="M50 29h1v1h-1z"/><path fill="#FFF" d="M51 29h1v1h-1zM52 29h1v1h-1z"/><path fill="#E7E8CE" d="M53 29h1v1h-1z"/><path fill="#ABAD52" d="M54 29h1v1h-1z"/><path fill="#818335" d="M55 29h1v1h-1zM56 29h1v1h-1z"/><path fill="#9FA139" d="M57 29h1v1h-1zM58 29h1v1h-1zM59 29h1v1h-1z"/><path fill="#50512E" d="M60 29h1v1h-1z"/><path fill="#002" d="M61 29h1v1h-1zM62 29h1v1h-1zM63 29h1v1h-1zM14 30h1v1h-1zM15 30h1v1h-1zM16 30h1v1h-1zM17 30h1v1h-1zM18 30h1v1h-1zM19 30h1v1h-1zM20 30h1v1h-1z"/><path fill="#D8DD7E" d="M21 30h1v1h-1zM22 30h1v1h-1zM23 30h1v1h-1zM24 30h1v1h-1zM25 30h1v1h-1zM26 30h1v1h-1zM27 30h1v1h-1zM28 30h1v1h-1zM29 30h1v1h-1zM30 30h1v1h-1zM31 30h1v1h-1zM32 30h1v1h-1z"/><path fill="#AAAC46" d="M33 30h1v1h-1z"/><path fill="#9FA139" d="M34 30h1v1h-1zM35 30h1v1h-1zM36 30h1v1h-1zM37 30h1v1h-1zM38 30h1v1h-1zM39 30h1v1h-1zM40 30h1v1h-1zM41 30h1v1h-1zM42 30h1v1h-1zM43 30h1v1h-1zM44 30h1v1h-1zM45 30h1v1h-1zM46 30h1v1h-1zM47 30h1v1h-1zM48 30h1v1h-1z"/><path fill="#E1E2C1" d="M49 30h1v1h-1z"/><path fill="#FFF" d="M50 30h1v1h-1zM51 30h1v1h-1zM52 30h1v1h-1zM53 30h1v1h-1z"/><path fill="#CFCFD6" d="M54 30h1v1h-1z"/><path fill="#002" d="M55 30h1v1h-1zM56 30h1v1h-1z"/><path fill="#323229" d="M57 30h1v1h-1z"/><path fill="#959738" d="M58 30h1v1h-1z"/><path fill="#9FA139" d="M59 30h1v1h-1z"/><path fill="#50512E" d="M60 30h1v1h-1z"/><path fill="#002" d="M61 30h1v1h-1zM62 30h1v1h-1zM63 30h1v1h-1zM13 31h1v1h-1zM14 31h1v1h-1zM15 31h1v1h-1zM16 31h1v1h-1zM17 31h1v1h-1zM18 31h1v1h-1zM19 31h1v1h-1zM20 31h1v1h-1z"/><path fill="#D8DD7E" d="M21 31h1v1h-1zM22 31h1v1h-1zM23 31h1v1h-1zM24 31h1v1h-1zM25 31h1v1h-1zM26 31h1v1h-1zM27 31h1v1h-1zM28 31h1v1h-1zM29 31h1v1h-1zM30 31h1v1h-1zM31 31h1v1h-1zM32 31h1v1h-1z"/><path fill="#BFC360" d="M33 31h1v1h-1z"/><path fill="#9FA139" d="M34 31h1v1h-1zM35 31h1v1h-1zM36 31h1v1h-1zM37 31h1v1h-1zM38 31h1v1h-1zM39 31h1v1h-1zM40 31h1v1h-1zM41 31h1v1h-1zM42 31h1v1h-1zM43 31h1v1h-1zM44 31h1v1h-1zM45 31h1v1h-1zM46 31h1v1h-1zM47 31h1v1h-1z"/><path fill="#C9CA90" d="M48 31h1v1h-1z"/><path fill="#FFF" d="M49 31h1v1h-1zM50 31h1v1h-1zM51 31h1v1h-1zM52 31h1v1h-1zM53 31h1v1h-1z"/><path fill="#CFCFD6" d="M54 31h1v1h-1z"/><path fill="#002" d="M55 31h1v1h-1zM56 31h1v1h-1zM57 31h1v1h-1z"/><path fill="#0A0A23" d="M58 31h1v1h-1z"/><path fill="#6D6F32" d="M59 31h1v1h-1z"/><path fill="#50512E" d="M60 31h1v1h-1z"/><path fill="#002" d="M61 31h1v1h-1zM62 31h1v1h-1zM63 31h1v1h-1zM11 32h1v1h-1zM12 32h1v1h-1zM13 32h1v1h-1zM14 32h1v1h-1zM15 32h1v1h-1z"/><path fill="#101030" d="M16 32h1v1h-1z"/><path fill="#808091" d="M17 32h1v1h-1z"/><path fill="#707083" d="M18 32h1v1h-1z"/><path fill="#002" d="M19 32h1v1h-1z"/><path fill="#363739" d="M20 32h1v1h-1z"/><path fill="#D8DD7E" d="M21 32h1v1h-1zM22 32h1v1h-1zM23 32h1v1h-1zM24 32h1v1h-1zM25 32h1v1h-1zM26 32h1v1h-1zM27 32h1v1h-1zM28 32h1v1h-1zM29 32h1v1h-1zM30 32h1v1h-1zM31 32h1v1h-1zM32 32h1v1h-1z"/><path fill="#D1D675" d="M33 32h1v1h-1z"/><path fill="#9FA139" d="M34 32h1v1h-1zM35 32h1v1h-1zM36 32h1v1h-1zM37 32h1v1h-1zM38 32h1v1h-1zM39 32h1v1h-1zM40 32h1v1h-1zM41 32h1v1h-1zM42 32h1v1h-1zM43 32h1v1h-1zM44 32h1v1h-1zM45 32h1v1h-1zM46 32h1v1h-1z"/><path fill="#B7B96B" d="M47 32h1v1h-1z"/><path fill="#FFF" d="M48 32h1v1h-1zM49 32h1v1h-1zM50 32h1v1h-1zM51 32h1v1h-1zM52 32h1v1h-1zM53 32h1v1h-1zM54 32h1v1h-1z"/><path fill="#8F8F9E" d="M55 32h1v1h-1z"/><path fill="#101030" d="M56 32h1v1h-1z"/><path fill="#002" d="M57 32h1v1h-1zM58 32h1v1h-1zM59 32h1v1h-1z"/><path fill="#0A0A23" d="M60 32h1v1h-1z"/><path fill="#002" d="M61 32h1v1h-1zM62 32h1v1h-1zM63 32h1v1h-1zM9 33h1v1H9zM10 33h1v1h-1zM11 33h1v1h-1zM12 33h1v1h-1zM13 33h1v1h-1zM14 33h1v1h-1z"/><path fill="#505067" d="M15 33h1v1h-1z"/><path fill="#DFDFE3" d="M16 33h1v1h-1z"/><path fill="#FFF" d="M17 33h1v1h-1zM18 33h1v1h-1z"/><path fill="#F5F7DF" d="M19 33h1v1h-1z"/><path fill="#D8DD7E" d="M20 33h1v1h-1zM21 33h1v1h-1zM22 33h1v1h-1zM23 33h1v1h-1zM24 33h1v1h-1zM25 33h1v1h-1zM26 33h1v1h-1zM27 33h1v1h-1zM28 33h1v1h-1zM29 33h1v1h-1zM30 33h1v1h-1zM31 33h1v1h-1zM32 33h1v1h-1zM33 33h1v1h-1z"/><path fill="#AAAC46" d="M34 33h1v1h-1z"/><path fill="#9FA139" d="M35 33h1v1h-1zM36 33h1v1h-1zM37 33h1v1h-1zM38 33h1v1h-1zM39 33h1v1h-1zM40 33h1v1h-1zM41 33h1v1h-1zM42 33h1v1h-1zM43 33h1v1h-1zM44 33h1v1h-1zM45 33h1v1h-1z"/><path fill="#A5A745" d="M46 33h1v1h-1z"/><path fill="#F9F9F3" d="M47 33h1v1h-1z"/><path fill="#FFF" d="M48 33h1v1h-1zM49 33h1v1h-1zM50 33h1v1h-1zM51 33h1v1h-1zM52 33h1v1h-1zM53 33h1v1h-1zM54 33h1v1h-1zM55 33h1v1h-1z"/><path fill="#DFDFE3" d="M56 33h1v1h-1z"/><path fill="#404059" d="M57 33h1v1h-1z"/><path fill="#002" d="M58 33h1v1h-1zM59 33h1v1h-1zM60 33h1v1h-1zM61 33h1v1h-1zM62 33h1v1h-1zM63 33h1v1h-1zM8 34h1v1H8zM9 34h1v1H9zM10 34h1v1h-1zM11 34h1v1h-1zM12 34h1v1h-1z"/><path fill="#20203E" d="M13 34h1v1h-1z"/><path fill="#BFBFC8" d="M14 34h1v1h-1z"/><path fill="#FFF" d="M15 34h1v1h-1zM16 34h1v1h-1zM17 34h1v1h-1zM18 34h1v1h-1z"/><path fill="#F5F7DF" d="M19 34h1v1h-1z"/><path fill="#D8DD7E" d="M20 34h1v1h-1zM21 34h1v1h-1zM22 34h1v1h-1zM23 34h1v1h-1zM24 34h1v1h-1zM25 34h1v1h-1zM26 34h1v1h-1zM27 34h1v1h-1zM28 34h1v1h-1zM29 34h1v1h-1zM30 34h1v1h-1zM31 34h1v1h-1zM32 34h1v1h-1zM33 34h1v1h-1z"/><path fill="#BFC360" d="M34 34h1v1h-1z"/><path fill="#9FA139" d="M35 34h1v1h-1zM36 34h1v1h-1zM37 34h1v1h-1zM38 34h1v1h-1zM39 34h1v1h-1zM40 34h1v1h-1zM41 34h1v1h-1zM42 34h1v1h-1zM43 34h1v1h-1zM44 34h1v1h-1zM45 34h1v1h-1z"/><path fill="#EDEDDA" d="M46 34h1v1h-1z"/><path fill="#FFF" d="M47 34h1v1h-1zM48 34h1v1h-1zM49 34h1v1h-1zM50 34h1v1h-1zM51 34h1v1h-1zM52 34h1v1h-1zM53 34h1v1h-1zM54 34h1v1h-1zM55 34h1v1h-1zM56 34h1v1h-1zM57 34h1v1h-1z"/><path fill="#8F8F9E" d="M58 34h1v1h-1z"/><path fill="#101030" d="M59 34h1v1h-1z"/><path fill="#002" d="M60 34h1v1h-1zM61 34h1v1h-1zM62 34h1v1h-1zM63 34h1v1h-1zM64 34h1v1h-1zM6 35h1v1H6zM7 35h1v1H7zM8 35h1v1H8zM9 35h1v1H9zM10 35h1v1h-1zM11 35h1v1h-1z"/><path fill="#808091" d="M12 35h1v1h-1z"/><path fill="#EFEFF1" d="M13 35h1v1h-1z"/><path fill="#FFF" d="M14 35h1v1h-1zM15 35h1v1h-1zM16 35h1v1h-1zM17 35h1v1h-1zM18 35h1v1h-1z"/><path fill="#F5F7DF" d="M19 35h1v1h-1z"/><path fill="#D8DD7E" d="M20 35h1v1h-1zM21 35h1v1h-1zM22 35h1v1h-1zM23 35h1v1h-1zM24 35h1v1h-1zM25 35h1v1h-1zM26 35h1v1h-1zM27 35h1v1h-1zM28 35h1v1h-1zM29 35h1v1h-1zM30 35h1v1h-1zM31 35h1v1h-1zM32 35h1v1h-1zM33 35h1v1h-1z"/><path fill="#D1D675" d="M34 35h1v1h-1z"/><path fill="#9FA139" d="M35 35h1v1h-1zM36 35h1v1h-1zM37 35h1v1h-1zM38 35h1v1h-1zM39 35h1v1h-1zM40 35h1v1h-1zM41 35h1v1h-1zM42 35h1v1h-1zM43 35h1v1h-1zM44 35h1v1h-1z"/><path fill="#DBDCB5" d="M45 35h1v1h-1z"/><path fill="#FFF" d="M46 35h1v1h-1zM47 35h1v1h-1zM48 35h1v1h-1zM49 35h1v1h-1zM50 35h1v1h-1zM51 35h1v1h-1zM52 35h1v1h-1zM53 35h1v1h-1zM54 35h1v1h-1zM55 35h1v1h-1zM56 35h1v1h-1zM57 35h1v1h-1zM58 35h1v1h-1z"/><path fill="#DFDFE3" d="M59 35h1v1h-1z"/><path fill="#30304B" d="M60 35h1v1h-1z"/><path fill="#002" d="M61 35h1v1h-1zM62 35h1v1h-1zM63 35h1v1h-1zM64 35h1v1h-1zM65 35h1v1h-1zM4 36h1v1H4zM5 36h1v1H5zM6 36h1v1H6zM7 36h1v1H7zM8 36h1v1H8zM9 36h1v1H9z"/><path fill="#404059" d="M10 36h1v1h-1z"/><path fill="#DFDFE3" d="M11 36h1v1h-1z"/><path fill="#FFF" d="M12 36h1v1h-1zM13 36h1v1h-1zM14 36h1v1h-1zM15 36h1v1h-1zM16 36h1v1h-1zM17 36h1v1h-1zM18 36h1v1h-1z"/><path fill="#F5F7DF" d="M19 36h1v1h-1z"/><path fill="#D8DD7E" d="M20 36h1v1h-1zM21 36h1v1h-1zM22 36h1v1h-1zM23 36h1v1h-1zM24 36h1v1h-1zM25 36h1v1h-1zM26 36h1v1h-1zM27 36h1v1h-1zM28 36h1v1h-1zM29 36h1v1h-1zM30 36h1v1h-1zM31 36h1v1h-1zM32 36h1v1h-1zM33 36h1v1h-1zM34 36h1v1h-1z"/><path fill="#AAAC46" d="M35 36h1v1h-1z"/><path fill="#9FA139" d="M36 36h1v1h-1zM37 36h1v1h-1zM38 36h1v1h-1zM39 36h1v1h-1zM40 36h1v1h-1zM41 36h1v1h-1zM42 36h1v1h-1zM43 36h1v1h-1z"/><path fill="#C3C483" d="M44 36h1v1h-1z"/><path fill="#FFF" d="M45 36h1v1h-1zM46 36h1v1h-1zM47 36h1v1h-1zM48 36h1v1h-1zM49 36h1v1h-1zM50 36h1v1h-1zM51 36h1v1h-1zM52 36h1v1h-1zM53 36h1v1h-1zM54 36h1v1h-1zM55 36h1v1h-1zM56 36h1v1h-1zM57 36h1v1h-1zM58 36h1v1h-1zM59 36h1v1h-1zM60 36h1v1h-1z"/><path fill="#808091" d="M61 36h1v1h-1z"/><path fill="#002" d="M62 36h1v1h-1zM63 36h1v1h-1zM64 36h1v1h-1zM65 36h1v1h-1zM66 36h1v1h-1zM3 37h1v1H3zM4 37h1v1H4zM5 37h1v1H5zM6 37h1v1H6zM7 37h1v1H7z"/><path fill="#20203E" d="M8 37h1v1H8z"/><path fill="#AFAFBA" d="M9 37h1v1H9z"/><path fill="#FFF" d="M10 37h1v1h-1zM11 37h1v1h-1zM12 37h1v1h-1zM13 37h1v1h-1zM14 37h1v1h-1zM15 37h1v1h-1zM16 37h1v1h-1zM17 37h1v1h-1zM18 37h1v1h-1z"/><path fill="#F5F7DF" d="M19 37h1v1h-1z"/><path fill="#D8DD7E" d="M20 37h1v1h-1zM21 37h1v1h-1zM22 37h1v1h-1zM23 37h1v1h-1zM24 37h1v1h-1zM25 37h1v1h-1zM26 37h1v1h-1zM27 37h1v1h-1zM28 37h1v1h-1zM29 37h1v1h-1zM30 37h1v1h-1zM31 37h1v1h-1zM32 37h1v1h-1zM33 37h1v1h-1zM34 37h1v1h-1z"/><path fill="#BFC360" d="M35 37h1v1h-1z"/><path fill="#9FA139" d="M36 37h1v1h-1zM37 37h1v1h-1zM38 37h1v1h-1zM39 37h1v1h-1zM40 37h1v1h-1zM41 37h1v1h-1zM42 37h1v1h-1z"/><path fill="#B1B35E" d="M43 37h1v1h-1z"/><path fill="#F9F9F3" d="M44 37h1v1h-1z"/><path fill="#FFF" d="M45 37h1v1h-1zM46 37h1v1h-1zM47 37h1v1h-1zM48 37h1v1h-1zM49 37h1v1h-1zM50 37h1v1h-1zM51 37h1v1h-1zM52 37h1v1h-1zM53 37h1v1h-1zM54 37h1v1h-1zM55 37h1v1h-1zM56 37h1v1h-1zM57 37h1v1h-1zM58 37h1v1h-1zM59 37h1v1h-1zM60 37h1v1h-1zM61 37h1v1h-1z"/><path fill="#CFCFD6" d="M62 37h1v1h-1z"/><path fill="#30304B" d="M63 37h1v1h-1z"/><path fill="#002" d="M64 37h1v1h-1zM65 37h1v1h-1zM66 37h1v1h-1zM67 37h1v1h-1zM68 37h1v1h-1zM1 38h1v1H1zM2 38h1v1H2zM3 38h1v1H3zM4 38h1v1H4zM5 38h1v1H5zM6 38h1v1H6z"/><path fill="#707083" d="M7 38h1v1H7z"/><path fill="#EFEFF1" d="M8 38h1v1H8z"/><path fill="#FFF" d="M9 38h1v1H9zM10 38h1v1h-1zM11 38h1v1h-1zM12 38h1v1h-1zM13 38h1v1h-1zM14 38h1v1h-1zM15 38h1v1h-1zM16 38h1v1h-1zM17 38h1v1h-1zM18 38h1v1h-1z"/><path fill="#F5F7DF" d="M19 38h1v1h-1z"/><path fill="#D8DD7E" d="M20 38h1v1h-1zM21 38h1v1h-1zM22 38h1v1h-1zM23 38h1v1h-1zM24 38h1v1h-1zM25 38h1v1h-1zM26 38h1v1h-1zM27 38h1v1h-1zM28 38h1v1h-1zM29 38h1v1h-1zM30 38h1v1h-1zM31 38h1v1h-1zM32 38h1v1h-1zM33 38h1v1h-1zM34 38h1v1h-1z"/><path fill="#D1D675" d="M35 38h1v1h-1z"/><path fill="#9FA139" d="M36 38h1v1h-1zM37 38h1v1h-1zM38 38h1v1h-1zM39 38h1v1h-1zM40 38h1v1h-1zM41 38h1v1h-1z"/><path fill="#A5A745" d="M42 38h1v1h-1z"/><path fill="#F3F3E6" d="M43 38h1v1h-1z"/><path fill="#FFF" d="M44 38h1v1h-1zM45 38h1v1h-1zM46 38h1v1h-1zM47 38h1v1h-1zM48 38h1v1h-1zM49 38h1v1h-1zM50 38h1v1h-1zM51 38h1v1h-1zM52 38h1v1h-1zM53 38h1v1h-1zM54 38h1v1h-1zM55 38h1v1h-1zM56 38h1v1h-1zM57 38h1v1h-1zM58 38h1v1h-1zM59 38h1v1h-1zM60 38h1v1h-1zM61 38h1v1h-1zM62 38h1v1h-1z"/><path fill="#EFEFF1" d="M63 38h1v1h-1z"/><path fill="#707083" d="M64 38h1v1h-1z"/><path fill="#002" d="M65 38h1v1h-1zM66 38h1v1h-1zM67 38h1v1h-1zM68 38h1v1h-1zM69 38h1v1h-1zM0 39h1v1H0zM1 39h1v1H1zM2 39h1v1H2zM3 39h1v1H3zM4 39h1v1H4z"/><path fill="#404059" d="M5 39h1v1H5z"/><path fill="#CFCFD6" d="M6 39h1v1H6z"/><path fill="#FFF" d="M7 39h1v1H7zM8 39h1v1H8zM9 39h1v1H9zM10 39h1v1h-1zM11 39h1v1h-1zM12 39h1v1h-1zM13 39h1v1h-1zM14 39h1v1h-1zM15 39h1v1h-1zM16 39h1v1h-1zM17 39h1v1h-1zM18 39h1v1h-1z"/><path fill="#F5F7DF" d="M19 39h1v1h-1z"/><path fill="#D8DD7E" d="M20 39h1v1h-1zM21 39h1v1h-1zM22 39h1v1h-1zM23 39h1v1h-1zM24 39h1v1h-1zM25 39h1v1h-1zM26 39h1v1h-1zM27 39h1v1h-1zM28 39h1v1h-1zM29 39h1v1h-1zM30 39h1v1h-1zM31 39h1v1h-1zM32 39h1v1h-1zM33 39h1v1h-1zM34 39h1v1h-1zM35 39h1v1h-1z"/><path fill="#AAAC46" d="M36 39h1v1h-1z"/><path fill="#9FA139" d="M37 39h1v1h-1zM38 39h1v1h-1zM39 39h1v1h-1zM40 39h1v1h-1zM41 39h1v1h-1z"/><path fill="#E1E2C1" d="M42 39h1v1h-1z"/><path fill="#FFF" d="M43 39h1v1h-1zM44 39h1v1h-1zM45 39h1v1h-1zM46 39h1v1h-1zM47 39h1v1h-1zM48 39h1v1h-1zM49 39h1v1h-1zM50 39h1v1h-1zM51 39h1v1h-1zM52 39h1v1h-1zM53 39h1v1h-1zM54 39h1v1h-1zM55 39h1v1h-1zM56 39h1v1h-1zM57 39h1v1h-1zM58 39h1v1h-1zM59 39h1v1h-1zM60 39h1v1h-1zM61 39h1v1h-1zM62 39h1v1h-1zM63 39h1v1h-1zM64 39h1v1h-1z"/><path fill="#BFBFC8" d="M65 39h1v1h-1z"/><path fill="#101030" d="M66 39h1v1h-1z"/><path fill="#002" d="M67 39h1v1h-1zM68 39h1v1h-1zM69 39h1v1h-1zM70 39h1v1h-1zM71 39h1v1h-1zM0 40h1v1H0zM1 40h1v1H1zM2 40h1v1H2zM3 40h1v1H3z"/><path fill="#656648" d="M4 40h1v1H4z"/><path fill="#CFD09C" d="M5 40h1v1H5z"/><path fill="#E7E8CE" d="M6 40h1v1H6zM7 40h1v1H7zM8 40h1v1H8z"/><path fill="#F9F9F3" d="M9 40h1v1H9z"/><path fill="#FFF" d="M10 40h1v1h-1zM11 40h1v1h-1zM12 40h1v1h-1zM13 40h1v1h-1zM14 40h1v1h-1zM15 40h1v1h-1zM16 40h1v1h-1zM17 40h1v1h-1zM18 40h1v1h-1z"/><path fill="#F5F7DF" d="M19 40h1v1h-1z"/><path fill="#D8DD7E" d="M20 40h1v1h-1zM21 40h1v1h-1zM22 40h1v1h-1zM23 40h1v1h-1zM24 40h1v1h-1zM25 40h1v1h-1zM26 40h1v1h-1zM27 40h1v1h-1zM28 40h1v1h-1zM29 40h1v1h-1zM30 40h1v1h-1zM31 40h1v1h-1zM32 40h1v1h-1zM33 40h1v1h-1zM34 40h1v1h-1zM35 40h1v1h-1z"/><path fill="#BCBF5C" d="M36 40h1v1h-1z"/><path fill="#9FA139" d="M37 40h1v1h-1zM38 40h1v1h-1zM39 40h1v1h-1zM40 40h1v1h-1z"/><path fill="#CFD09C" d="M41 40h1v1h-1z"/><path fill="#FFF" d="M42 40h1v1h-1zM43 40h1v1h-1zM44 40h1v1h-1zM45 40h1v1h-1zM46 40h1v1h-1zM47 40h1v1h-1zM48 40h1v1h-1zM49 40h1v1h-1zM50 40h1v1h-1zM51 40h1v1h-1zM52 40h1v1h-1zM53 40h1v1h-1zM54 40h1v1h-1zM55 40h1v1h-1zM56 40h1v1h-1zM57 40h1v1h-1zM58 40h1v1h-1zM59 40h1v1h-1zM60 40h1v1h-1zM61 40h1v1h-1zM62 40h1v1h-1zM63 40h1v1h-1zM64 40h1v1h-1zM65 40h1v1h-1z"/><path fill="#EFEFF1" d="M66 40h1v1h-1z"/><path fill="#505067" d="M67 40h1v1h-1z"/><path fill="#002" d="M68 40h1v1h-1zM69 40h1v1h-1zM70 40h1v1h-1zM71 40h1v1h-1zM72 40h1v1h-1zM0 41h1v1H0zM1 41h1v1H1zM2 41h1v1H2zM3 41h1v1H3z"/><path fill="#1E1E26" d="M4 41h1v1H4z"/><path fill="#818335" d="M5 41h1v1H5z"/><path fill="#9FA139" d="M6 41h1v1H6zM7 41h1v1H7zM8 41h1v1H8zM9 41h1v1H9zM10 41h1v1h-1zM11 41h1v1h-1z"/><path fill="#ABAD52" d="M12 41h1v1h-1z"/><path fill="#B7B96B" d="M13 41h1v1h-1zM14 41h1v1h-1z"/><path fill="#BDBE77" d="M15 41h1v1h-1z"/><path fill="#CFD09C" d="M16 41h1v1h-1zM17 41h1v1h-1z"/><path fill="#D5D6A8" d="M18 41h1v1h-1z"/><path fill="#E6E7C2" d="M19 41h1v1h-1z"/><path fill="#DFE396" d="M20 41h1v1h-1z"/><path fill="#D8DD7E" d="M21 41h1v1h-1zM22 41h1v1h-1zM23 41h1v1h-1zM24 41h1v1h-1zM25 41h1v1h-1zM26 41h1v1h-1zM27 41h1v1h-1zM28 41h1v1h-1zM29 41h1v1h-1zM30 41h1v1h-1zM31 41h1v1h-1zM32 41h1v1h-1zM33 41h1v1h-1zM34 41h1v1h-1zM35 41h1v1h-1z"/><path fill="#CDD271" d="M36 41h1v1h-1z"/><path fill="#9FA139" d="M37 41h1v1h-1zM38 41h1v1h-1zM39 41h1v1h-1z"/><path fill="#B7B96B" d="M40 41h1v1h-1z"/><path fill="#FFF" d="M41 41h1v1h-1zM42 41h1v1h-1zM43 41h1v1h-1zM44 41h1v1h-1zM45 41h1v1h-1zM46 41h1v1h-1zM47 41h1v1h-1zM48 41h1v1h-1zM49 41h1v1h-1zM50 41h1v1h-1zM51 41h1v1h-1zM52 41h1v1h-1zM53 41h1v1h-1zM54 41h1v1h-1zM55 41h1v1h-1zM56 41h1v1h-1zM57 41h1v1h-1zM58 41h1v1h-1zM59 41h1v1h-1zM60 41h1v1h-1zM61 41h1v1h-1zM62 41h1v1h-1zM63 41h1v1h-1zM64 41h1v1h-1zM65 41h1v1h-1zM66 41h1v1h-1zM67 41h1v1h-1z"/><path fill="#8F8F9E" d="M68 41h1v1h-1z"/><path fill="#101030" d="M69 41h1v1h-1z"/><path fill="#002" d="M70 41h1v1h-1zM71 41h1v1h-1zM72 41h1v1h-1zM73 41h1v1h-1zM1 42h1v1H1zM2 42h1v1H2zM3 42h1v1H3zM4 42h1v1H4z"/><path fill="#0A0A23" d="M5 42h1v1H5z"/><path fill="#818335" d="M6 42h1v1H6z"/><path fill="#9FA139" d="M7 42h1v1H7zM8 42h1v1H8zM9 42h1v1H9zM10 42h1v1h-1zM11 42h1v1h-1zM12 42h1v1h-1zM13 42h1v1h-1zM14 42h1v1h-1zM15 42h1v1h-1zM16 42h1v1h-1zM17 42h1v1h-1zM18 42h1v1h-1z"/><path fill="#CFD09C" d="M19 42h1v1h-1z"/><path fill="#FFF" d="M20 42h1v1h-1zM21 42h1v1h-1z"/><path fill="#F5F7DF" d="M22 42h1v1h-1z"/><path fill="#EEF0C7" d="M23 42h1v1h-1z"/><path fill="#E7EAAE" d="M24 42h1v1h-1z"/><path fill="#DFE396" d="M25 42h1v1h-1z"/><path fill="#D8DD7E" d="M26 42h1v1h-1zM27 42h1v1h-1zM28 42h1v1h-1zM29 42h1v1h-1zM30 42h1v1h-1zM31 42h1v1h-1zM32 42h1v1h-1zM33 42h1v1h-1zM34 42h1v1h-1zM35 42h1v1h-1zM36 42h1v1h-1z"/><path fill="#A6A942" d="M37 42h1v1h-1z"/><path fill="#9FA139" d="M38 42h1v1h-1z"/><path fill="#ABAD52" d="M39 42h1v1h-1z"/><path fill="#F9F9F3" d="M40 42h1v1h-1z"/><path fill="#FFF" d="M41 42h1v1h-1zM42 42h1v1h-1zM43 42h1v1h-1zM44 42h1v1h-1zM45 42h1v1h-1zM46 42h1v1h-1zM47 42h1v1h-1zM48 42h1v1h-1zM49 42h1v1h-1zM50 42h1v1h-1zM51 42h1v1h-1zM52 42h1v1h-1zM53 42h1v1h-1zM54 42h1v1h-1zM55 42h1v1h-1zM56 42h1v1h-1zM57 42h1v1h-1zM58 42h1v1h-1zM59 42h1v1h-1zM60 42h1v1h-1zM61 42h1v1h-1zM62 42h1v1h-1zM63 42h1v1h-1zM64 42h1v1h-1zM65 42h1v1h-1zM66 42h1v1h-1zM67 42h1v1h-1zM68 42h1v1h-1z"/><path fill="#CFCFD6" d="M69 42h1v1h-1z"/><path fill="#30304B" d="M70 42h1v1h-1z"/><path fill="#002" d="M71 42h1v1h-1zM72 42h1v1h-1zM73 42h1v1h-1zM74 42h1v1h-1zM75 42h1v1h-1zM2 43h1v1H2zM3 43h1v1H3zM4 43h1v1H4zM5 43h1v1H5z"/><path fill="#0A0A23" d="M6 43h1v1H6z"/><path fill="#818335" d="M7 43h1v1H7z"/><path fill="#9FA139" d="M8 43h1v1H8zM9 43h1v1H9zM10 43h1v1h-1zM11 43h1v1h-1zM12 43h1v1h-1zM13 43h1v1h-1zM14 43h1v1h-1zM15 43h1v1h-1zM16 43h1v1h-1zM17 43h1v1h-1z"/><path fill="#A5A745" d="M18 43h1v1h-1z"/><path fill="#F9F9F3" d="M19 43h1v1h-1z"/><path fill="#FFF" d="M20 43h1v1h-1zM21 43h1v1h-1zM22 43h1v1h-1zM23 43h1v1h-1zM24 43h1v1h-1zM25 43h1v1h-1zM26 43h1v1h-1z"/><path fill="#F5F7DF" d="M27 43h1v1h-1z"/><path fill="#EEF0C7" d="M28 43h1v1h-1z"/><path fill="#E7EAAE" d="M29 43h1v1h-1z"/><path fill="#DFE396" d="M30 43h1v1h-1z"/><path fill="#D8DD7E" d="M31 43h1v1h-1zM32 43h1v1h-1zM33 43h1v1h-1zM34 43h1v1h-1zM35 43h1v1h-1zM36 43h1v1h-1z"/><path fill="#B8BB57" d="M37 43h1v1h-1z"/><path fill="#9FA139" d="M38 43h1v1h-1z"/><path fill="#EDEDDA" d="M39 43h1v1h-1z"/><path fill="#FFF" d="M40 43h1v1h-1zM41 43h1v1h-1zM42 43h1v1h-1zM43 43h1v1h-1zM44 43h1v1h-1zM45 43h1v1h-1zM46 43h1v1h-1zM47 43h1v1h-1zM48 43h1v1h-1zM49 43h1v1h-1zM50 43h1v1h-1zM51 43h1v1h-1zM52 43h1v1h-1zM53 43h1v1h-1zM54 43h1v1h-1zM55 43h1v1h-1zM56 43h1v1h-1zM57 43h1v1h-1zM58 43h1v1h-1zM59 43h1v1h-1zM60 43h1v1h-1zM61 43h1v1h-1zM62 43h1v1h-1zM63 43h1v1h-1zM64 43h1v1h-1zM65 43h1v1h-1zM66 43h1v1h-1zM67 43h1v1h-1zM68 43h1v1h-1zM69 43h1v1h-1zM70 43h1v1h-1z"/><path fill="#707083" d="M71 43h1v1h-1z"/><path fill="#002" d="M72 43h1v1h-1zM73 43h1v1h-1zM74 43h1v1h-1zM75 43h1v1h-1zM76 43h1v1h-1zM3 44h1v1H3zM4 44h1v1H4zM5 44h1v1H5zM6 44h1v1H6zM7 44h1v1H7z"/><path fill="#636530" d="M8 44h1v1H8z"/><path fill="#9FA139" d="M9 44h1v1H9zM10 44h1v1h-1zM11 44h1v1h-1zM12 44h1v1h-1zM13 44h1v1h-1zM14 44h1v1h-1zM15 44h1v1h-1zM16 44h1v1h-1zM17 44h1v1h-1z"/><path fill="#C9CA90" d="M18 44h1v1h-1z"/><path fill="#FFF" d="M19 44h1v1h-1zM20 44h1v1h-1zM21 44h1v1h-1zM22 44h1v1h-1zM23 44h1v1h-1zM24 44h1v1h-1zM25 44h1v1h-1zM26 44h1v1h-1zM27 44h1v1h-1zM28 44h1v1h-1zM29 44h1v1h-1zM30 44h1v1h-1zM31 44h1v1h-1z"/><path fill="#F5F7DF" d="M32 44h1v1h-1z"/><path fill="#EEF0C7" d="M33 44h1v1h-1z"/><path fill="#E7EAAE" d="M34 44h1v1h-1z"/><path fill="#DFE396" d="M35 44h1v1h-1z"/><path fill="#D8DD7E" d="M36 44h1v1h-1z"/><path fill="#CDD271" d="M37 44h1v1h-1z"/><path fill="#DBDCB5" d="M38 44h1v1h-1z"/><path fill="#FFF" d="M39 44h1v1h-1zM40 44h1v1h-1zM41 44h1v1h-1zM42 44h1v1h-1zM43 44h1v1h-1zM44 44h1v1h-1zM45 44h1v1h-1zM46 44h1v1h-1zM47 44h1v1h-1zM48 44h1v1h-1zM49 44h1v1h-1zM50 44h1v1h-1zM51 44h1v1h-1zM52 44h1v1h-1zM53 44h1v1h-1zM54 44h1v1h-1zM55 44h1v1h-1zM56 44h1v1h-1zM57 44h1v1h-1zM58 44h1v1h-1zM59 44h1v1h-1zM60 44h1v1h-1zM61 44h1v1h-1zM62 44h1v1h-1zM63 44h1v1h-1zM64 44h1v1h-1zM65 44h1v1h-1zM66 44h1v1h-1zM67 44h1v1h-1zM68 44h1v1h-1zM69 44h1v1h-1zM70 44h1v1h-1zM71 44h1v1h-1z"/><path fill="#AFAFBA" d="M72 44h1v1h-1z"/><path fill="#101030" d="M73 44h1v1h-1z"/><path fill="#002" d="M74 44h1v1h-1zM75 44h1v1h-1zM76 44h1v1h-1zM77 44h1v1h-1zM4 45h1v1H4zM5 45h1v1H5zM6 45h1v1H6zM7 45h1v1H7zM8 45h1v1H8z"/><path fill="#636530" d="M9 45h1v1H9z"/><path fill="#9FA139" d="M10 45h1v1h-1zM11 45h1v1h-1zM12 45h1v1h-1zM13 45h1v1h-1zM14 45h1v1h-1zM15 45h1v1h-1zM16 45h1v1h-1zM17 45h1v1h-1z"/><path fill="#F3F3E6" d="M18 45h1v1h-1z"/><path fill="#FFF" d="M19 45h1v1h-1zM20 45h1v1h-1zM21 45h1v1h-1zM22 45h1v1h-1zM23 45h1v1h-1zM24 45h1v1h-1zM25 45h1v1h-1zM26 45h1v1h-1zM27 45h1v1h-1zM28 45h1v1h-1zM29 45h1v1h-1zM30 45h1v1h-1zM31 45h1v1h-1zM32 45h1v1h-1zM33 45h1v1h-1zM34 45h1v1h-1zM35 45h1v1h-1zM36 45h1v1h-1z"/><path fill="#E3E5BA" d="M37 45h1v1h-1z"/><path fill="#F5F7DF" d="M38 45h1v1h-1z"/><path fill="#FFF" d="M39 45h1v1h-1zM40 45h1v1h-1zM41 45h1v1h-1zM42 45h1v1h-1zM43 45h1v1h-1zM44 45h1v1h-1zM45 45h1v1h-1zM46 45h1v1h-1zM47 45h1v1h-1zM48 45h1v1h-1zM49 45h1v1h-1zM50 45h1v1h-1zM51 45h1v1h-1zM52 45h1v1h-1zM53 45h1v1h-1zM54 45h1v1h-1zM55 45h1v1h-1zM56 45h1v1h-1zM57 45h1v1h-1zM58 45h1v1h-1zM59 45h1v1h-1zM60 45h1v1h-1zM61 45h1v1h-1zM62 45h1v1h-1zM63 45h1v1h-1zM64 45h1v1h-1zM65 45h1v1h-1zM66 45h1v1h-1zM67 45h1v1h-1zM68 45h1v1h-1zM69 45h1v1h-1zM70 45h1v1h-1zM71 45h1v1h-1zM72 45h1v1h-1z"/><path fill="#DFDFE3" d="M73 45h1v1h-1z"/><path fill="#30304B" d="M74 45h1v1h-1z"/><path fill="#002" d="M75 45h1v1h-1zM76 45h1v1h-1zM77 45h1v1h-1zM78 45h1v1h-1zM5 46h1v1H5zM6 46h1v1H6zM7 46h1v1H7zM8 46h1v1H8zM9 46h1v1H9z"/><path fill="#595B2F" d="M10 46h1v1h-1z"/><path fill="#9FA139" d="M11 46h1v1h-1zM12 46h1v1h-1zM13 46h1v1h-1zM14 46h1v1h-1z"/><path fill="#959738" d="M15 46h1v1h-1z"/><path fill="#141425" d="M16 46h1v1h-1z"/><path fill="#1A1A31" d="M17 46h1v1h-1z"/><path fill="#DFDFE3" d="M18 46h1v1h-1z"/><path fill="#FFF" d="M19 46h1v1h-1zM20 46h1v1h-1zM21 46h1v1h-1zM22 46h1v1h-1zM23 46h1v1h-1zM24 46h1v1h-1zM25 46h1v1h-1zM26 46h1v1h-1zM27 46h1v1h-1zM28 46h1v1h-1zM29 46h1v1h-1zM30 46h1v1h-1zM31 46h1v1h-1zM32 46h1v1h-1zM33 46h1v1h-1zM34 46h1v1h-1zM35 46h1v1h-1z"/><path fill="#EDEDDA" d="M36 46h1v1h-1z"/><path fill="#A5A745" d="M37 46h1v1h-1z"/><path fill="#CDD271" d="M38 46h1v1h-1z"/><path fill="#D8DD7E" d="M39 46h1v1h-1zM40 46h1v1h-1zM41 46h1v1h-1z"/><path fill="#DADF86" d="M42 46h1v1h-1z"/><path fill="#E2E69E" d="M43 46h1v1h-1zM44 46h1v1h-1zM45 46h1v1h-1z"/><path fill="#E4E8A6" d="M46 46h1v1h-1z"/><path fill="#ECEEBF" d="M47 46h1v1h-1zM48 46h1v1h-1zM49 46h1v1h-1zM50 46h1v1h-1z"/><path fill="#F5F7DF" d="M51 46h1v1h-1zM52 46h1v1h-1zM53 46h1v1h-1zM54 46h1v1h-1z"/><path fill="#FDFDF7" d="M55 46h1v1h-1z"/><path fill="#FFF" d="M56 46h1v1h-1zM57 46h1v1h-1zM58 46h1v1h-1zM59 46h1v1h-1zM60 46h1v1h-1zM61 46h1v1h-1zM62 46h1v1h-1zM63 46h1v1h-1zM64 46h1v1h-1zM65 46h1v1h-1zM66 46h1v1h-1zM67 46h1v1h-1zM68 46h1v1h-1zM69 46h1v1h-1zM70 46h1v1h-1zM71 46h1v1h-1zM72 46h1v1h-1zM73 46h1v1h-1z"/><path fill="#EFEFF1" d="M74 46h1v1h-1z"/><path fill="#606075" d="M75 46h1v1h-1z"/><path fill="#002" d="M76 46h1v1h-1zM77 46h1v1h-1zM78 46h1v1h-1zM79 46h1v1h-1zM7 47h1v1H7zM8 47h1v1H8zM9 47h1v1H9zM10 47h1v1h-1z"/><path fill="#3C3C2B" d="M11 47h1v1h-1z"/><path fill="#9FA139" d="M12 47h1v1h-1zM13 47h1v1h-1zM14 47h1v1h-1z"/><path fill="#50512E" d="M15 47h1v1h-1z"/><path fill="#002" d="M16 47h1v1h-1zM17 47h1v1h-1z"/><path fill="#808091" d="M18 47h1v1h-1z"/><path fill="#FFF" d="M19 47h1v1h-1zM20 47h1v1h-1zM21 47h1v1h-1zM22 47h1v1h-1zM23 47h1v1h-1zM24 47h1v1h-1zM25 47h1v1h-1zM26 47h1v1h-1zM27 47h1v1h-1zM28 47h1v1h-1zM29 47h1v1h-1zM30 47h1v1h-1zM31 47h1v1h-1zM32 47h1v1h-1zM33 47h1v1h-1zM34 47h1v1h-1z"/><path fill="#E1E2C1" d="M35 47h1v1h-1z"/><path fill="#A5A745" d="M36 47h1v1h-1z"/><path fill="#9FA139" d="M37 47h1v1h-1z"/><path fill="#B8BB57" d="M38 47h1v1h-1z"/><path fill="#D8DD7E" d="M39 47h1v1h-1zM40 47h1v1h-1zM41 47h1v1h-1zM42 47h1v1h-1zM43 47h1v1h-1zM44 47h1v1h-1zM45 47h1v1h-1zM46 47h1v1h-1zM47 47h1v1h-1zM48 47h1v1h-1zM49 47h1v1h-1zM50 47h1v1h-1zM51 47h1v1h-1zM52 47h1v1h-1zM53 47h1v1h-1zM54 47h1v1h-1zM55 47h1v1h-1zM56 47h1v1h-1zM57 47h1v1h-1zM58 47h1v1h-1zM59 47h1v1h-1z"/><path fill="#DFE396" d="M60 47h1v1h-1z"/><path fill="#E2E69E" d="M61 47h1v1h-1zM62 47h1v1h-1zM63 47h1v1h-1zM64 47h1v1h-1zM65 47h1v1h-1z"/><path fill="#ECEEBF" d="M66 47h1v1h-1zM67 47h1v1h-1zM68 47h1v1h-1zM69 47h1v1h-1zM70 47h1v1h-1zM71 47h1v1h-1zM72 47h1v1h-1zM73 47h1v1h-1zM74 47h1v1h-1z"/><path fill="#DEE0B9" d="M75 47h1v1h-1z"/><path fill="#101030" d="M76 47h1v1h-1z"/><path fill="#002" d="M77 47h1v1h-1zM78 47h1v1h-1zM79 47h1v1h-1zM8 48h1v1H8zM9 48h1v1H9zM10 48h1v1h-1zM11 48h1v1h-1z"/><path fill="#3C3C2B" d="M12 48h1v1h-1z"/><path fill="#9FA139" d="M13 48h1v1h-1z"/><path fill="#959738" d="M14 48h1v1h-1z"/><path fill="#0A0A23" d="M15 48h1v1h-1z"/><path fill="#002" d="M16 48h1v1h-1zM17 48h1v1h-1z"/><path fill="#DFDFE3" d="M18 48h1v1h-1z"/><path fill="#FFF" d="M19 48h1v1h-1zM20 48h1v1h-1zM21 48h1v1h-1zM22 48h1v1h-1zM23 48h1v1h-1zM24 48h1v1h-1zM25 48h1v1h-1zM26 48h1v1h-1zM27 48h1v1h-1zM28 48h1v1h-1zM29 48h1v1h-1zM30 48h1v1h-1zM31 48h1v1h-1zM32 48h1v1h-1zM33 48h1v1h-1z"/><path fill="#DBDCB5" d="M34 48h1v1h-1z"/><path fill="#9FA139" d="M35 48h1v1h-1zM36 48h1v1h-1zM37 48h1v1h-1z"/><path fill="#A6A942" d="M38 48h1v1h-1z"/><path fill="#D8DD7E" d="M39 48h1v1h-1zM40 48h1v1h-1zM41 48h1v1h-1zM42 48h1v1h-1zM43 48h1v1h-1zM44 48h1v1h-1zM45 48h1v1h-1zM46 48h1v1h-1zM47 48h1v1h-1zM48 48h1v1h-1zM49 48h1v1h-1zM50 48h1v1h-1zM51 48h1v1h-1zM52 48h1v1h-1zM53 48h1v1h-1zM54 48h1v1h-1zM55 48h1v1h-1zM56 48h1v1h-1zM57 48h1v1h-1zM58 48h1v1h-1zM59 48h1v1h-1zM60 48h1v1h-1zM61 48h1v1h-1zM62 48h1v1h-1zM63 48h1v1h-1zM64 48h1v1h-1zM65 48h1v1h-1zM66 48h1v1h-1zM67 48h1v1h-1zM68 48h1v1h-1zM69 48h1v1h-1zM70 48h1v1h-1zM71 48h1v1h-1zM72 48h1v1h-1zM73 48h1v1h-1z"/><path fill="#878A5C" d="M74 48h1v1h-1z"/><path fill="#0E0E28" d="M75 48h1v1h-1z"/><path fill="#002" d="M76 48h1v1h-1zM77 48h1v1h-1zM78 48h1v1h-1zM79 48h1v1h-1zM9 49h1v1H9zM10 49h1v1h-1zM11 49h1v1h-1zM12 49h1v1h-1z"/><path fill="#282828" d="M13 49h1v1h-1z"/><path fill="#595B2F" d="M14 49h1v1h-1z"/><path fill="#002" d="M15 49h1v1h-1zM16 49h1v1h-1z"/><path fill="#505067" d="M17 49h1v1h-1z"/><path fill="#FFF" d="M18 49h1v1h-1zM19 49h1v1h-1zM20 49h1v1h-1zM21 49h1v1h-1zM22 49h1v1h-1zM23 49h1v1h-1zM24 49h1v1h-1zM25 49h1v1h-1zM26 49h1v1h-1zM27 49h1v1h-1zM28 49h1v1h-1zM29 49h1v1h-1zM30 49h1v1h-1zM31 49h1v1h-1zM32 49h1v1h-1z"/><path fill="#DBDCB5" d="M33 49h1v1h-1z"/><path fill="#9FA139" d="M34 49h1v1h-1zM35 49h1v1h-1zM36 49h1v1h-1zM37 49h1v1h-1zM38 49h1v1h-1z"/><path fill="#D1D675" d="M39 49h1v1h-1z"/><path fill="#D8DD7E" d="M40 49h1v1h-1zM41 49h1v1h-1zM42 49h1v1h-1zM43 49h1v1h-1zM44 49h1v1h-1zM45 49h1v1h-1zM46 49h1v1h-1zM47 49h1v1h-1zM48 49h1v1h-1zM49 49h1v1h-1zM50 49h1v1h-1zM51 49h1v1h-1zM52 49h1v1h-1zM53 49h1v1h-1zM54 49h1v1h-1zM55 49h1v1h-1zM56 49h1v1h-1zM57 49h1v1h-1zM58 49h1v1h-1zM59 49h1v1h-1zM60 49h1v1h-1zM61 49h1v1h-1zM62 49h1v1h-1zM63 49h1v1h-1zM64 49h1v1h-1zM65 49h1v1h-1zM66 49h1v1h-1zM67 49h1v1h-1zM68 49h1v1h-1zM69 49h1v1h-1zM70 49h1v1h-1zM71 49h1v1h-1z"/><path fill="#A2A667" d="M72 49h1v1h-1z"/><path fill="#363739" d="M73 49h1v1h-1z"/><path fill="#002" d="M74 49h1v1h-1zM75 49h1v1h-1zM76 49h1v1h-1zM77 49h1v1h-1zM78 49h1v1h-1zM10 50h1v1h-1zM11 50h1v1h-1zM12 50h1v1h-1zM13 50h1v1h-1zM14 50h1v1h-1zM15 50h1v1h-1zM16 50h1v1h-1z"/><path fill="#BFBFC8" d="M17 50h1v1h-1z"/><path fill="#FFF" d="M18 50h1v1h-1zM19 50h1v1h-1zM20 50h1v1h-1zM21 50h1v1h-1zM22 50h1v1h-1zM23 50h1v1h-1zM24 50h1v1h-1zM25 50h1v1h-1zM26 50h1v1h-1zM27 50h1v1h-1zM28 50h1v1h-1zM29 50h1v1h-1zM30 50h1v1h-1zM31 50h1v1h-1z"/><path fill="#CFD09C" d="M32 50h1v1h-1z"/><path fill="#9FA139" d="M33 50h1v1h-1zM34 50h1v1h-1zM35 50h1v1h-1zM36 50h1v1h-1zM37 50h1v1h-1zM38 50h1v1h-1z"/><path fill="#BFC360" d="M39 50h1v1h-1z"/><path fill="#D8DD7E" d="M40 50h1v1h-1zM41 50h1v1h-1zM42 50h1v1h-1zM43 50h1v1h-1zM44 50h1v1h-1zM45 50h1v1h-1zM46 50h1v1h-1zM47 50h1v1h-1zM48 50h1v1h-1zM49 50h1v1h-1zM50 50h1v1h-1zM51 50h1v1h-1zM52 50h1v1h-1zM53 50h1v1h-1zM54 50h1v1h-1zM55 50h1v1h-1zM56 50h1v1h-1zM57 50h1v1h-1zM58 50h1v1h-1zM59 50h1v1h-1zM60 50h1v1h-1zM61 50h1v1h-1zM62 50h1v1h-1zM63 50h1v1h-1zM64 50h1v1h-1zM65 50h1v1h-1zM66 50h1v1h-1zM67 50h1v1h-1zM68 50h1v1h-1zM69 50h1v1h-1z"/><path fill="#BDC173" d="M70 50h1v1h-1z"/><path fill="#515345" d="M71 50h1v1h-1z"/><path fill="#002" d="M72 50h1v1h-1zM73 50h1v1h-1zM74 50h1v1h-1zM75 50h1v1h-1zM76 50h1v1h-1zM77 50h1v1h-1zM11 51h1v1h-1zM12 51h1v1h-1zM13 51h1v1h-1zM14 51h1v1h-1zM15 51h1v1h-1z"/><path fill="#30304B" d="M16 51h1v1h-1z"/><path fill="#FFF" d="M17 51h1v1h-1zM18 51h1v1h-1zM19 51h1v1h-1zM20 51h1v1h-1zM21 51h1v1h-1zM22 51h1v1h-1zM23 51h1v1h-1zM24 51h1v1h-1zM25 51h1v1h-1zM26 51h1v1h-1zM27 51h1v1h-1zM28 51h1v1h-1zM29 51h1v1h-1zM30 51h1v1h-1z"/><path fill="#C3C483" d="M31 51h1v1h-1z"/><path fill="#9FA139" d="M32 51h1v1h-1zM33 51h1v1h-1zM34 51h1v1h-1zM35 51h1v1h-1zM36 51h1v1h-1zM37 51h1v1h-1zM38 51h1v1h-1z"/><path fill="#AAAC46" d="M39 51h1v1h-1z"/><path fill="#D8DD7E" d="M40 51h1v1h-1zM41 51h1v1h-1zM42 51h1v1h-1zM43 51h1v1h-1zM44 51h1v1h-1zM45 51h1v1h-1zM46 51h1v1h-1zM47 51h1v1h-1zM48 51h1v1h-1zM49 51h1v1h-1zM50 51h1v1h-1zM51 51h1v1h-1zM52 51h1v1h-1zM53 51h1v1h-1zM54 51h1v1h-1zM55 51h1v1h-1zM56 51h1v1h-1zM57 51h1v1h-1zM58 51h1v1h-1zM59 51h1v1h-1zM60 51h1v1h-1zM61 51h1v1h-1zM62 51h1v1h-1zM63 51h1v1h-1zM64 51h1v1h-1zM65 51h1v1h-1zM66 51h1v1h-1zM67 51h1v1h-1z"/><path fill="#CBCF78" d="M68 51h1v1h-1z"/><path fill="#6C6F50" d="M69 51h1v1h-1z"/><path fill="#0E0E28" d="M70 51h1v1h-1z"/><path fill="#002" d="M71 51h1v1h-1zM72 51h1v1h-1zM73 51h1v1h-1zM74 51h1v1h-1zM75 51h1v1h-1zM12 52h1v1h-1zM13 52h1v1h-1zM14 52h1v1h-1zM15 52h1v1h-1z"/><path fill="#9F9FAC" d="M16 52h1v1h-1z"/><path fill="#FFF" d="M17 52h1v1h-1zM18 52h1v1h-1zM19 52h1v1h-1zM20 52h1v1h-1zM21 52h1v1h-1zM22 52h1v1h-1zM23 52h1v1h-1zM24 52h1v1h-1zM25 52h1v1h-1zM26 52h1v1h-1zM27 52h1v1h-1zM28 52h1v1h-1zM29 52h1v1h-1z"/><path fill="#C3C483" d="M30 52h1v1h-1z"/><path fill="#9FA139" d="M31 52h1v1h-1zM32 52h1v1h-1zM33 52h1v1h-1zM34 52h1v1h-1zM35 52h1v1h-1zM36 52h1v1h-1zM37 52h1v1h-1zM38 52h1v1h-1zM39 52h1v1h-1z"/><path fill="#D1D675" d="M40 52h1v1h-1z"/><path fill="#D8DD7E" d="M41 52h1v1h-1zM42 52h1v1h-1zM43 52h1v1h-1zM44 52h1v1h-1zM45 52h1v1h-1zM46 52h1v1h-1zM47 52h1v1h-1zM48 52h1v1h-1zM49 52h1v1h-1zM50 52h1v1h-1zM51 52h1v1h-1zM52 52h1v1h-1zM53 52h1v1h-1zM54 52h1v1h-1zM55 52h1v1h-1zM56 52h1v1h-1zM57 52h1v1h-1zM58 52h1v1h-1zM59 52h1v1h-1zM60 52h1v1h-1zM61 52h1v1h-1zM62 52h1v1h-1zM63 52h1v1h-1zM64 52h1v1h-1zM65 52h1v1h-1zM66 52h1v1h-1z"/><path fill="#6C6F50" d="M67 52h1v1h-1z"/><path fill="#0E0E28" d="M68 52h1v1h-1z"/><path fill="#002" d="M69 52h1v1h-1zM70 52h1v1h-1zM71 52h1v1h-1zM72 52h1v1h-1zM73 52h1v1h-1zM74 52h1v1h-1zM12 53h1v1h-1zM13 53h1v1h-1zM14 53h1v1h-1z"/><path fill="#101030" d="M15 53h1v1h-1z"/><path fill="#FFF" d="M16 53h1v1h-1zM17 53h1v1h-1zM18 53h1v1h-1zM19 53h1v1h-1zM20 53h1v1h-1zM21 53h1v1h-1zM22 53h1v1h-1zM23 53h1v1h-1zM24 53h1v1h-1zM25 53h1v1h-1zM26 53h1v1h-1zM27 53h1v1h-1z"/><path fill="#F9F9F3" d="M28 53h1v1h-1z"/><path fill="#BDBE77" d="M29 53h1v1h-1z"/><path fill="#9FA139" d="M30 53h1v1h-1zM31 53h1v1h-1zM32 53h1v1h-1zM33 53h1v1h-1zM34 53h1v1h-1zM35 53h1v1h-1zM36 53h1v1h-1zM37 53h1v1h-1zM38 53h1v1h-1zM39 53h1v1h-1z"/><path fill="#BFC360" d="M40 53h1v1h-1z"/><path fill="#D8DD7E" d="M41 53h1v1h-1zM42 53h1v1h-1zM43 53h1v1h-1zM44 53h1v1h-1zM45 53h1v1h-1zM46 53h1v1h-1zM47 53h1v1h-1zM48 53h1v1h-1zM49 53h1v1h-1zM50 53h1v1h-1zM51 53h1v1h-1zM52 53h1v1h-1zM53 53h1v1h-1zM54 53h1v1h-1zM55 53h1v1h-1zM56 53h1v1h-1zM57 53h1v1h-1zM58 53h1v1h-1zM59 53h1v1h-1zM60 53h1v1h-1zM61 53h1v1h-1zM62 53h1v1h-1zM63 53h1v1h-1zM64 53h1v1h-1z"/><path fill="#878A5C" d="M65 53h1v1h-1z"/><path fill="#1B1C2E" d="M66 53h1v1h-1z"/><path fill="#002" d="M67 53h1v1h-1zM68 53h1v1h-1zM69 53h1v1h-1zM70 53h1v1h-1zM71 53h1v1h-1zM72 53h1v1h-1zM12 54h1v1h-1zM13 54h1v1h-1zM14 54h1v1h-1z"/><path fill="#808091" d="M15 54h1v1h-1z"/><path fill="#FFF" d="M16 54h1v1h-1zM17 54h1v1h-1zM18 54h1v1h-1zM19 54h1v1h-1zM20 54h1v1h-1zM21 54h1v1h-1zM22 54h1v1h-1zM23 54h1v1h-1zM24 54h1v1h-1zM25 54h1v1h-1zM26 54h1v1h-1z"/><path fill="#F9F9F3" d="M27 54h1v1h-1z"/><path fill="#B1B35E" d="M28 54h1v1h-1z"/><path fill="#9FA139" d="M29 54h1v1h-1zM30 54h1v1h-1zM31 54h1v1h-1zM32 54h1v1h-1zM33 54h1v1h-1zM34 54h1v1h-1zM35 54h1v1h-1zM36 54h1v1h-1zM37 54h1v1h-1zM38 54h1v1h-1zM39 54h1v1h-1z"/><path fill="#B1B44F" d="M40 54h1v1h-1z"/><path fill="#D8DD7E" d="M41 54h1v1h-1zM42 54h1v1h-1zM43 54h1v1h-1zM44 54h1v1h-1zM45 54h1v1h-1zM46 54h1v1h-1zM47 54h1v1h-1zM48 54h1v1h-1zM49 54h1v1h-1zM50 54h1v1h-1zM51 54h1v1h-1zM52 54h1v1h-1zM53 54h1v1h-1zM54 54h1v1h-1zM55 54h1v1h-1zM56 54h1v1h-1zM57 54h1v1h-1zM58 54h1v1h-1zM59 54h1v1h-1zM60 54h1v1h-1zM61 54h1v1h-1zM62 54h1v1h-1z"/><path fill="#878A5C" d="M63 54h1v1h-1z"/><path fill="#1B1C2E" d="M64 54h1v1h-1z"/><path fill="#002" d="M65 54h1v1h-1zM66 54h1v1h-1zM67 54h1v1h-1zM68 54h1v1h-1zM69 54h1v1h-1zM70 54h1v1h-1zM11 55h1v1h-1zM12 55h1v1h-1zM13 55h1v1h-1zM14 55h1v1h-1z"/><path fill="#EFEFF1" d="M15 55h1v1h-1z"/><path fill="#FFF" d="M16 55h1v1h-1zM17 55h1v1h-1zM18 55h1v1h-1zM19 55h1v1h-1zM20 55h1v1h-1zM21 55h1v1h-1zM22 55h1v1h-1zM23 55h1v1h-1zM24 55h1v1h-1zM25 55h1v1h-1z"/><path fill="#F9F9F3" d="M26 55h1v1h-1z"/><path fill="#B1B35E" d="M27 55h1v1h-1z"/><path fill="#9FA139" d="M28 55h1v1h-1zM29 55h1v1h-1zM30 55h1v1h-1zM31 55h1v1h-1zM32 55h1v1h-1zM33 55h1v1h-1zM34 55h1v1h-1zM35 55h1v1h-1zM36 55h1v1h-1zM37 55h1v1h-1zM38 55h1v1h-1zM39 55h1v1h-1zM40 55h1v1h-1z"/><path fill="#D4D97A" d="M41 55h1v1h-1z"/><path fill="#D8DD7E" d="M42 55h1v1h-1zM43 55h1v1h-1zM44 55h1v1h-1zM45 55h1v1h-1zM46 55h1v1h-1zM47 55h1v1h-1zM48 55h1v1h-1zM49 55h1v1h-1zM50 55h1v1h-1zM51 55h1v1h-1zM52 55h1v1h-1zM53 55h1v1h-1zM54 55h1v1h-1zM55 55h1v1h-1zM56 55h1v1h-1zM57 55h1v1h-1zM58 55h1v1h-1zM59 55h1v1h-1zM60 55h1v1h-1z"/><path fill="#A2A667" d="M61 55h1v1h-1z"/><path fill="#1B1C2E" d="M62 55h1v1h-1z"/><path fill="#002" d="M63 55h1v1h-1zM64 55h1v1h-1zM65 55h1v1h-1zM66 55h1v1h-1zM67 55h1v1h-1zM68 55h1v1h-1zM11 56h1v1h-1zM12 56h1v1h-1zM13 56h1v1h-1z"/><path fill="#606075" d="M14 56h1v1h-1z"/><path fill="#FFF" d="M15 56h1v1h-1zM16 56h1v1h-1zM17 56h1v1h-1zM18 56h1v1h-1zM19 56h1v1h-1zM20 56h1v1h-1zM21 56h1v1h-1zM22 56h1v1h-1zM23 56h1v1h-1zM24 56h1v1h-1z"/><path fill="#EDEDDA" d="M25 56h1v1h-1z"/><path fill="#ABAD52" d="M26 56h1v1h-1z"/><path fill="#9FA139" d="M27 56h1v1h-1zM28 56h1v1h-1zM29 56h1v1h-1zM30 56h1v1h-1zM31 56h1v1h-1zM32 56h1v1h-1zM33 56h1v1h-1zM34 56h1v1h-1zM35 56h1v1h-1zM36 56h1v1h-1zM37 56h1v1h-1zM38 56h1v1h-1zM39 56h1v1h-1zM40 56h1v1h-1z"/><path fill="#C3C764" d="M41 56h1v1h-1z"/><path fill="#D8DD7E" d="M42 56h1v1h-1zM43 56h1v1h-1zM44 56h1v1h-1zM45 56h1v1h-1zM46 56h1v1h-1zM47 56h1v1h-1zM48 56h1v1h-1zM49 56h1v1h-1zM50 56h1v1h-1zM51 56h1v1h-1zM52 56h1v1h-1zM53 56h1v1h-1zM54 56h1v1h-1zM55 56h1v1h-1zM56 56h1v1h-1zM57 56h1v1h-1zM58 56h1v1h-1z"/><path fill="#A2A667" d="M59 56h1v1h-1z"/><path fill="#363739" d="M60 56h1v1h-1z"/><path fill="#002" d="M61 56h1v1h-1zM62 56h1v1h-1zM63 56h1v1h-1zM64 56h1v1h-1zM65 56h1v1h-1zM66 56h1v1h-1zM11 57h1v1h-1zM12 57h1v1h-1zM13 57h1v1h-1z"/><path fill="#CFCFD6" d="M14 57h1v1h-1z"/><path fill="#FFF" d="M15 57h1v1h-1zM16 57h1v1h-1zM17 57h1v1h-1zM18 57h1v1h-1zM19 57h1v1h-1zM20 57h1v1h-1zM21 57h1v1h-1zM22 57h1v1h-1zM23 57h1v1h-1z"/><path fill="#EDEDDA" d="M24 57h1v1h-1z"/><path fill="#A5A745" d="M25 57h1v1h-1z"/><path fill="#9FA139" d="M26 57h1v1h-1zM27 57h1v1h-1zM28 57h1v1h-1zM29 57h1v1h-1zM30 57h1v1h-1zM31 57h1v1h-1zM32 57h1v1h-1zM33 57h1v1h-1zM34 57h1v1h-1zM35 57h1v1h-1zM36 57h1v1h-1zM37 57h1v1h-1zM38 57h1v1h-1zM39 57h1v1h-1zM40 57h1v1h-1z"/><path fill="#B1B44F" d="M41 57h1v1h-1z"/><path fill="#D8DD7E" d="M42 57h1v1h-1zM43 57h1v1h-1zM44 57h1v1h-1zM45 57h1v1h-1zM46 57h1v1h-1zM47 57h1v1h-1zM48 57h1v1h-1zM49 57h1v1h-1zM50 57h1v1h-1zM51 57h1v1h-1zM52 57h1v1h-1zM53 57h1v1h-1zM54 57h1v1h-1zM55 57h1v1h-1zM56 57h1v1h-1z"/><path fill="#A2A667" d="M57 57h1v1h-1z"/><path fill="#363739" d="M58 57h1v1h-1z"/><path fill="#002" d="M59 57h1v1h-1zM60 57h1v1h-1zM61 57h1v1h-1zM62 57h1v1h-1zM63 57h1v1h-1zM64 57h1v1h-1zM10 58h1v1h-1zM11 58h1v1h-1zM12 58h1v1h-1z"/><path fill="#404059" d="M13 58h1v1h-1z"/><path fill="#FFF" d="M14 58h1v1h-1zM15 58h1v1h-1zM16 58h1v1h-1zM17 58h1v1h-1zM18 58h1v1h-1zM19 58h1v1h-1zM20 58h1v1h-1zM21 58h1v1h-1zM22 58h1v1h-1z"/><path fill="#EDEDDA" d="M23 58h1v1h-1z"/><path fill="#A5A745" d="M24 58h1v1h-1z"/><path fill="#9FA139" d="M25 58h1v1h-1zM26 58h1v1h-1zM27 58h1v1h-1zM28 58h1v1h-1zM29 58h1v1h-1zM30 58h1v1h-1zM31 58h1v1h-1zM32 58h1v1h-1zM33 58h1v1h-1zM34 58h1v1h-1zM35 58h1v1h-1zM36 58h1v1h-1zM37 58h1v1h-1zM38 58h1v1h-1zM39 58h1v1h-1zM40 58h1v1h-1zM41 58h1v1h-1z"/><path fill="#D4D97A" d="M42 58h1v1h-1z"/><path fill="#D8DD7E" d="M43 58h1v1h-1zM44 58h1v1h-1zM45 58h1v1h-1zM46 58h1v1h-1zM47 58h1v1h-1zM48 58h1v1h-1zM49 58h1v1h-1zM50 58h1v1h-1zM51 58h1v1h-1zM52 58h1v1h-1zM53 58h1v1h-1zM54 58h1v1h-1z"/><path fill="#A2A667" d="M55 58h1v1h-1z"/><path fill="#363739" d="M56 58h1v1h-1z"/><path fill="#002" d="M57 58h1v1h-1zM58 58h1v1h-1zM59 58h1v1h-1zM60 58h1v1h-1zM61 58h1v1h-1zM62 58h1v1h-1zM10 59h1v1h-1zM11 59h1v1h-1zM12 59h1v1h-1z"/><path fill="#9F9FAC" d="M13 59h1v1h-1z"/><path fill="#FFF" d="M14 59h1v1h-1zM15 59h1v1h-1zM16 59h1v1h-1zM17 59h1v1h-1zM18 59h1v1h-1zM19 59h1v1h-1zM20 59h1v1h-1zM21 59h1v1h-1z"/><path fill="#DBDCB5" d="M22 59h1v1h-1z"/><path fill="#9FA139" d="M23 59h1v1h-1zM24 59h1v1h-1zM25 59h1v1h-1zM26 59h1v1h-1zM27 59h1v1h-1zM28 59h1v1h-1zM29 59h1v1h-1zM30 59h1v1h-1zM31 59h1v1h-1zM32 59h1v1h-1zM33 59h1v1h-1zM34 59h1v1h-1zM35 59h1v1h-1zM36 59h1v1h-1zM37 59h1v1h-1zM38 59h1v1h-1zM39 59h1v1h-1zM40 59h1v1h-1zM41 59h1v1h-1z"/><path fill="#C6CA68" d="M42 59h1v1h-1z"/><path fill="#D8DD7E" d="M43 59h1v1h-1zM44 59h1v1h-1zM45 59h1v1h-1zM46 59h1v1h-1zM47 59h1v1h-1zM48 59h1v1h-1zM49 59h1v1h-1zM50 59h1v1h-1zM51 59h1v1h-1zM52 59h1v1h-1z"/><path fill="#B0B46D" d="M53 59h1v1h-1z"/><path fill="#363739" d="M54 59h1v1h-1z"/><path fill="#002" d="M55 59h1v1h-1zM56 59h1v1h-1zM57 59h1v1h-1zM58 59h1v1h-1zM59 59h1v1h-1zM60 59h1v1h-1zM9 60h1v1H9zM10 60h1v1h-1zM11 60h1v1h-1z"/><path fill="#20203E" d="M12 60h1v1h-1z"/><path fill="#FFF" d="M13 60h1v1h-1zM14 60h1v1h-1zM15 60h1v1h-1zM16 60h1v1h-1zM17 60h1v1h-1zM18 60h1v1h-1zM19 60h1v1h-1zM20 60h1v1h-1z"/><path fill="#DBDCB5" d="M21 60h1v1h-1z"/><path fill="#9FA139" d="M22 60h1v1h-1zM23 60h1v1h-1zM24 60h1v1h-1zM25 60h1v1h-1zM26 60h1v1h-1zM27 60h1v1h-1zM28 60h1v1h-1zM29 60h1v1h-1zM30 60h1v1h-1zM31 60h1v1h-1zM32 60h1v1h-1zM33 60h1v1h-1zM34 60h1v1h-1zM35 60h1v1h-1zM36 60h1v1h-1zM37 60h1v1h-1zM38 60h1v1h-1zM39 60h1v1h-1zM40 60h1v1h-1zM41 60h1v1h-1z"/><path fill="#B4B853" d="M42 60h1v1h-1z"/><path fill="#D8DD7E" d="M43 60h1v1h-1zM44 60h1v1h-1zM45 60h1v1h-1zM46 60h1v1h-1zM47 60h1v1h-1zM48 60h1v1h-1zM49 60h1v1h-1zM50 60h1v1h-1zM51 60h1v1h-1zM52 60h1v1h-1z"/><path fill="#515345" d="M53 60h1v1h-1z"/><path fill="#002" d="M54 60h1v1h-1zM55 60h1v1h-1zM56 60h1v1h-1zM57 60h1v1h-1zM58 60h1v1h-1zM9 61h1v1H9zM10 61h1v1h-1zM11 61h1v1h-1z"/><path fill="#808091" d="M12 61h1v1h-1z"/><path fill="#FFF" d="M13 61h1v1h-1zM14 61h1v1h-1zM15 61h1v1h-1zM16 61h1v1h-1zM17 61h1v1h-1zM18 61h1v1h-1zM19 61h1v1h-1z"/><path fill="#D5D6A8" d="M20 61h1v1h-1z"/><path fill="#9FA139" d="M21 61h1v1h-1zM22 61h1v1h-1zM23 61h1v1h-1zM24 61h1v1h-1zM25 61h1v1h-1zM26 61h1v1h-1zM27 61h1v1h-1zM28 61h1v1h-1zM29 61h1v1h-1zM30 61h1v1h-1zM31 61h1v1h-1zM32 61h1v1h-1zM33 61h1v1h-1zM34 61h1v1h-1zM35 61h1v1h-1zM36 61h1v1h-1zM37 61h1v1h-1zM38 61h1v1h-1zM39 61h1v1h-1zM40 61h1v1h-1zM41 61h1v1h-1z"/><path fill="#A3A53D" d="M42 61h1v1h-1z"/><path fill="#D8DD7E" d="M43 61h1v1h-1zM44 61h1v1h-1zM45 61h1v1h-1zM46 61h1v1h-1zM47 61h1v1h-1zM48 61h1v1h-1zM49 61h1v1h-1zM50 61h1v1h-1z"/><path fill="#D1D675" d="M51 61h1v1h-1z"/><path fill="#BCBF5C" d="M52 61h1v1h-1z"/><path fill="#74763A" d="M53 61h1v1h-1z"/><path fill="#002" d="M54 61h1v1h-1zM55 61h1v1h-1zM56 61h1v1h-1zM8 62h1v1H8zM9 62h1v1H9zM10 62h1v1h-1zM11 62h1v1h-1z"/><path fill="#EFEFF1" d="M12 62h1v1h-1z"/><path fill="#FFF" d="M13 62h1v1h-1zM14 62h1v1h-1zM15 62h1v1h-1zM16 62h1v1h-1zM17 62h1v1h-1zM18 62h1v1h-1z"/><path fill="#C3C483" d="M19 62h1v1h-1z"/><path fill="#9FA139" d="M20 62h1v1h-1zM21 62h1v1h-1zM22 62h1v1h-1zM23 62h1v1h-1zM24 62h1v1h-1zM25 62h1v1h-1zM26 62h1v1h-1zM27 62h1v1h-1zM28 62h1v1h-1zM29 62h1v1h-1zM30 62h1v1h-1zM31 62h1v1h-1zM32 62h1v1h-1zM33 62h1v1h-1zM34 62h1v1h-1zM35 62h1v1h-1zM36 62h1v1h-1zM37 62h1v1h-1zM38 62h1v1h-1zM39 62h1v1h-1zM40 62h1v1h-1zM41 62h1v1h-1zM42 62h1v1h-1z"/><path fill="#C6CA68" d="M43 62h1v1h-1z"/><path fill="#D8DD7E" d="M44 62h1v1h-1zM45 62h1v1h-1zM46 62h1v1h-1zM47 62h1v1h-1zM48 62h1v1h-1z"/><path fill="#C3C764" d="M49 62h1v1h-1z"/><path fill="#ADB04A" d="M50 62h1v1h-1z"/><path fill="#9FA139" d="M51 62h1v1h-1zM52 62h1v1h-1z"/><path fill="#777933" d="M53 62h1v1h-1z"/><path fill="#002" d="M54 62h1v1h-1zM55 62h1v1h-1zM56 62h1v1h-1zM8 63h1v1H8zM9 63h1v1H9zM10 63h1v1h-1z"/><path fill="#606075" d="M11 63h1v1h-1z"/><path fill="#FFF" d="M12 63h1v1h-1zM13 63h1v1h-1zM14 63h1v1h-1zM15 63h1v1h-1zM16 63h1v1h-1zM17 63h1v1h-1z"/><path fill="#C3C483" d="M18 63h1v1h-1z"/><path fill="#9FA139" d="M19 63h1v1h-1zM20 63h1v1h-1zM21 63h1v1h-1zM22 63h1v1h-1zM23 63h1v1h-1zM24 63h1v1h-1zM25 63h1v1h-1zM26 63h1v1h-1zM27 63h1v1h-1zM28 63h1v1h-1zM29 63h1v1h-1zM30 63h1v1h-1zM31 63h1v1h-1zM32 63h1v1h-1zM33 63h1v1h-1zM34 63h1v1h-1zM35 63h1v1h-1zM36 63h1v1h-1zM37 63h1v1h-1zM38 63h1v1h-1zM39 63h1v1h-1zM40 63h1v1h-1zM41 63h1v1h-1zM42 63h1v1h-1z"/><path fill="#B4B853" d="M43 63h1v1h-1z"/><path fill="#D8DD7E" d="M44 63h1v1h-1zM45 63h1v1h-1z"/><path fill="#CDD271" d="M46 63h1v1h-1z"/><path fill="#B4B853" d="M47 63h1v1h-1z"/><path fill="#A3A53D" d="M48 63h1v1h-1z"/><path fill="#9FA139" d="M49 63h1v1h-1zM50 63h1v1h-1zM51 63h1v1h-1zM52 63h1v1h-1z"/><path fill="#50512E" d="M53 63h1v1h-1z"/><path fill="#002" d="M54 63h1v1h-1zM55 63h1v1h-1zM56 63h1v1h-1zM8 64h1v1H8zM9 64h1v1H9zM10 64h1v1h-1z"/><path fill="#CFCFD6" d="M11 64h1v1h-1z"/><path fill="#FFF" d="M12 64h1v1h-1zM13 64h1v1h-1zM14 64h1v1h-1zM15 64h1v1h-1z"/><path fill="#F9F9F3" d="M16 64h1v1h-1z"/><path fill="#B7B96B" d="M17 64h1v1h-1z"/><path fill="#9FA139" d="M18 64h1v1h-1zM19 64h1v1h-1zM20 64h1v1h-1zM21 64h1v1h-1zM22 64h1v1h-1zM23 64h1v1h-1zM24 64h1v1h-1zM25 64h1v1h-1zM26 64h1v1h-1zM27 64h1v1h-1zM28 64h1v1h-1zM29 64h1v1h-1zM30 64h1v1h-1zM31 64h1v1h-1zM32 64h1v1h-1zM33 64h1v1h-1zM34 64h1v1h-1zM35 64h1v1h-1zM36 64h1v1h-1zM37 64h1v1h-1zM38 64h1v1h-1zM39 64h1v1h-1zM40 64h1v1h-1zM41 64h1v1h-1zM42 64h1v1h-1z"/><path fill="#AAAC46" d="M43 64h1v1h-1z"/><path fill="#BFC360" d="M44 64h1v1h-1z"/><path fill="#AAAC46" d="M45 64h1v1h-1z"/><path fill="#9FA139" d="M46 64h1v1h-1zM47 64h1v1h-1zM48 64h1v1h-1zM49 64h1v1h-1zM50 64h1v1h-1zM51 64h1v1h-1zM52 64h1v1h-1z"/><path fill="#1E1E26" d="M53 64h1v1h-1z"/><path fill="#002" d="M54 64h1v1h-1zM55 64h1v1h-1zM56 64h1v1h-1zM7 65h1v1H7zM8 65h1v1H8zM9 65h1v1H9z"/><path fill="#404059" d="M10 65h1v1h-1z"/><path fill="#FFF" d="M11 65h1v1h-1zM12 65h1v1h-1zM13 65h1v1h-1zM14 65h1v1h-1z"/><path fill="#F9F9F3" d="M15 65h1v1h-1z"/><path fill="#B1B35E" d="M16 65h1v1h-1z"/><path fill="#9FA139" d="M17 65h1v1h-1zM18 65h1v1h-1zM19 65h1v1h-1zM20 65h1v1h-1zM21 65h1v1h-1zM22 65h1v1h-1zM23 65h1v1h-1zM24 65h1v1h-1zM25 65h1v1h-1zM26 65h1v1h-1zM27 65h1v1h-1zM28 65h1v1h-1zM29 65h1v1h-1zM30 65h1v1h-1zM31 65h1v1h-1zM32 65h1v1h-1zM33 65h1v1h-1zM34 65h1v1h-1zM35 65h1v1h-1zM36 65h1v1h-1zM37 65h1v1h-1zM38 65h1v1h-1z"/><path fill="#A3A53D" d="M39 65h1v1h-1z"/><path fill="#B1B44F" d="M40 65h1v1h-1z"/><path fill="#BFC360" d="M41 65h1v1h-1z"/><path fill="#CDD271" d="M42 65h1v1h-1z"/><path fill="#CACE6D" d="M43 65h1v1h-1z"/><path fill="#9FA139" d="M44 65h1v1h-1zM45 65h1v1h-1zM46 65h1v1h-1zM47 65h1v1h-1zM48 65h1v1h-1zM49 65h1v1h-1zM50 65h1v1h-1zM51 65h1v1h-1z"/><path fill="#959738" d="M52 65h1v1h-1z"/><path fill="#002" d="M53 65h1v1h-1zM54 65h1v1h-1zM55 65h1v1h-1zM7 66h1v1H7zM8 66h1v1H8zM9 66h1v1H9z"/><path fill="#9F9FAC" d="M10 66h1v1h-1z"/><path fill="#FFF" d="M11 66h1v1h-1zM12 66h1v1h-1zM13 66h1v1h-1z"/><path fill="#F3F3E6" d="M14 66h1v1h-1z"/><path fill="#B1B35E" d="M15 66h1v1h-1z"/><path fill="#9FA139" d="M16 66h1v1h-1zM17 66h1v1h-1zM18 66h1v1h-1zM19 66h1v1h-1zM20 66h1v1h-1zM21 66h1v1h-1zM22 66h1v1h-1zM23 66h1v1h-1zM24 66h1v1h-1zM25 66h1v1h-1zM26 66h1v1h-1zM27 66h1v1h-1z"/><path fill="#8B8D36" d="M28 66h1v1h-1z"/><path fill="#777933" d="M29 66h1v1h-1z"/><path fill="#8B8D36" d="M30 66h1v1h-1z"/><path fill="#9FA139" d="M31 66h1v1h-1zM32 66h1v1h-1zM33 66h1v1h-1zM34 66h1v1h-1z"/><path fill="#A3A53D" d="M35 66h1v1h-1z"/><path fill="#B1B44F" d="M36 66h1v1h-1z"/><path fill="#BFC360" d="M37 66h1v1h-1z"/><path fill="#CDD271" d="M38 66h1v1h-1z"/><path fill="#D8DD7E" d="M39 66h1v1h-1zM40 66h1v1h-1zM41 66h1v1h-1zM42 66h1v1h-1z"/><path fill="#D1D675" d="M43 66h1v1h-1z"/><path fill="#9FA139" d="M44 66h1v1h-1zM45 66h1v1h-1zM46 66h1v1h-1zM47 66h1v1h-1zM48 66h1v1h-1zM49 66h1v1h-1zM50 66h1v1h-1zM51 66h1v1h-1z"/><path fill="#636530" d="M52 66h1v1h-1z"/><path fill="#002" d="M53 66h1v1h-1zM54 66h1v1h-1zM55 66h1v1h-1zM6 67h1v1H6zM7 67h1v1H7zM8 67h1v1H8z"/><path fill="#101030" d="M9 67h1v1H9z"/><path fill="#FFF" d="M10 67h1v1h-1zM11 67h1v1h-1zM12 67h1v1h-1z"/><path fill="#EDEDDA" d="M13 67h1v1h-1z"/><path fill="#A5A745" d="M14 67h1v1h-1z"/><path fill="#9FA139" d="M15 67h1v1h-1zM16 67h1v1h-1zM17 67h1v1h-1zM18 67h1v1h-1zM19 67h1v1h-1zM20 67h1v1h-1zM21 67h1v1h-1zM22 67h1v1h-1zM23 67h1v1h-1zM24 67h1v1h-1z"/><path fill="#959738" d="M25 67h1v1h-1z"/><path fill="#636530" d="M26 67h1v1h-1z"/><path fill="#323229" d="M27 67h1v1h-1z"/><path fill="#002" d="M28 67h1v1h-1zM29 67h1v1h-1z"/><path fill="#141425" d="M30 67h1v1h-1z"/><path fill="#9FA139" d="M31 67h1v1h-1z"/><path fill="#ADB04A" d="M32 67h1v1h-1z"/><path fill="#BCBF5C" d="M33 67h1v1h-1z"/><path fill="#CACE6D" d="M34 67h1v1h-1z"/><path fill="#D8DD7E" d="M35 67h1v1h-1zM36 67h1v1h-1zM37 67h1v1h-1zM38 67h1v1h-1zM39 67h1v1h-1zM40 67h1v1h-1zM41 67h1v1h-1zM42 67h1v1h-1zM43 67h1v1h-1z"/><path fill="#9FA139" d="M44 67h1v1h-1zM45 67h1v1h-1zM46 67h1v1h-1zM47 67h1v1h-1zM48 67h1v1h-1zM49 67h1v1h-1zM50 67h1v1h-1zM51 67h1v1h-1z"/><path fill="#3C3C2B" d="M52 67h1v1h-1z"/><path fill="#002" d="M53 67h1v1h-1zM54 67h1v1h-1zM55 67h1v1h-1zM6 68h1v1H6zM7 68h1v1H7zM8 68h1v1H8z"/><path fill="#808091" d="M9 68h1v1H9z"/><path fill="#FFF" d="M10 68h1v1h-1zM11 68h1v1h-1z"/><path fill="#EDEDDA" d="M12 68h1v1h-1z"/><path fill="#A5A745" d="M13 68h1v1h-1z"/><path fill="#9FA139" d="M14 68h1v1h-1zM15 68h1v1h-1zM16 68h1v1h-1zM17 68h1v1h-1zM18 68h1v1h-1zM19 68h1v1h-1zM20 68h1v1h-1zM21 68h1v1h-1z"/><path fill="#8B8D36" d="M22 68h1v1h-1z"/><path fill="#595B2F" d="M23 68h1v1h-1z"/><path fill="#282828" d="M24 68h1v1h-1z"/><path fill="#002" d="M25 68h1v1h-1zM26 68h1v1h-1zM27 68h1v1h-1zM28 68h1v1h-1zM29 68h1v1h-1z"/><path fill="#1B1C2E" d="M30 68h1v1h-1z"/><path fill="#D8DD7E" d="M31 68h1v1h-1zM32 68h1v1h-1zM33 68h1v1h-1zM34 68h1v1h-1zM35 68h1v1h-1zM36 68h1v1h-1zM37 68h1v1h-1zM38 68h1v1h-1zM39 68h1v1h-1zM40 68h1v1h-1zM41 68h1v1h-1zM42 68h1v1h-1zM43 68h1v1h-1z"/><path fill="#A3A53D" d="M44 68h1v1h-1z"/><path fill="#9FA139" d="M45 68h1v1h-1zM46 68h1v1h-1zM47 68h1v1h-1zM48 68h1v1h-1zM49 68h1v1h-1zM50 68h1v1h-1zM51 68h1v1h-1z"/><path fill="#0A0A23" d="M52 68h1v1h-1z"/><path fill="#002" d="M53 68h1v1h-1zM54 68h1v1h-1zM6 69h1v1H6zM7 69h1v1H7zM8 69h1v1H8z"/><path fill="#DFDFE3" d="M9 69h1v1H9z"/><path fill="#FFF" d="M10 69h1v1h-1z"/><path fill="#DBDCB5" d="M11 69h1v1h-1z"/><path fill="#9FA139" d="M12 69h1v1h-1zM13 69h1v1h-1zM14 69h1v1h-1zM15 69h1v1h-1zM16 69h1v1h-1zM17 69h1v1h-1zM18 69h1v1h-1z"/><path fill="#6D6F32" d="M19 69h1v1h-1z"/><path fill="#46462C" d="M20 69h1v1h-1z"/><path fill="#141425" d="M21 69h1v1h-1z"/><path fill="#002" d="M22 69h1v1h-1zM23 69h1v1h-1zM24 69h1v1h-1zM25 69h1v1h-1zM26 69h1v1h-1zM27 69h1v1h-1z"/><path fill="#1B1C2E" d="M28 69h1v1h-1z"/><path fill="#5F614A" d="M29 69h1v1h-1z"/><path fill="#BDC173" d="M30 69h1v1h-1z"/><path fill="#D8DD7E" d="M31 69h1v1h-1zM32 69h1v1h-1zM33 69h1v1h-1zM34 69h1v1h-1zM35 69h1v1h-1zM36 69h1v1h-1zM37 69h1v1h-1zM38 69h1v1h-1zM39 69h1v1h-1zM40 69h1v1h-1zM41 69h1v1h-1zM42 69h1v1h-1zM43 69h1v1h-1z"/><path fill="#ADB04A" d="M44 69h1v1h-1z"/><path fill="#9FA139" d="M45 69h1v1h-1zM46 69h1v1h-1zM47 69h1v1h-1zM48 69h1v1h-1zM49 69h1v1h-1zM50 69h1v1h-1z"/><path fill="#818335" d="M51 69h1v1h-1z"/><path fill="#002" d="M52 69h1v1h-1zM53 69h1v1h-1zM54 69h1v1h-1zM5 70h1v1H5zM6 70h1v1H6zM7 70h1v1H7z"/><path fill="#505067" d="M8 70h1v1H8z"/><path fill="#FFF" d="M9 70h1v1H9z"/><path fill="#DBDCB5" d="M10 70h1v1h-1z"/><path fill="#9FA139" d="M11 70h1v1h-1zM12 70h1v1h-1zM13 70h1v1h-1zM14 70h1v1h-1z"/><path fill="#818335" d="M15 70h1v1h-1z"/><path fill="#595B2F" d="M16 70h1v1h-1z"/><path fill="#282828" d="M17 70h1v1h-1z"/><path fill="#002" d="M18 70h1v1h-1zM19 70h1v1h-1zM20 70h1v1h-1zM21 70h1v1h-1zM22 70h1v1h-1zM23 70h1v1h-1zM24 70h1v1h-1zM25 70h1v1h-1zM26 70h1v1h-1z"/><path fill="#1B1C2E" d="M27 70h1v1h-1z"/><path fill="#B0B46D" d="M28 70h1v1h-1z"/><path fill="#D8DD7E" d="M29 70h1v1h-1zM30 70h1v1h-1zM31 70h1v1h-1zM32 70h1v1h-1zM33 70h1v1h-1zM34 70h1v1h-1zM35 70h1v1h-1zM36 70h1v1h-1zM37 70h1v1h-1zM38 70h1v1h-1zM39 70h1v1h-1zM40 70h1v1h-1zM41 70h1v1h-1zM42 70h1v1h-1zM43 70h1v1h-1z"/><path fill="#B1B44F" d="M44 70h1v1h-1z"/><path fill="#9FA139" d="M45 70h1v1h-1zM46 70h1v1h-1zM47 70h1v1h-1zM48 70h1v1h-1zM49 70h1v1h-1zM50 70h1v1h-1z"/><path fill="#595B2F" d="M51 70h1v1h-1z"/><path fill="#002" d="M52 70h1v1h-1zM53 70h1v1h-1zM54 70h1v1h-1zM5 71h1v1H5zM6 71h1v1H6zM7 71h1v1H7z"/><path fill="#9F9FAC" d="M8 71h1v1H8z"/><path fill="#C3C483" d="M9 71h1v1H9z"/><path fill="#9FA139" d="M10 71h1v1h-1z"/><path fill="#818335" d="M11 71h1v1h-1z"/><path fill="#595B2F" d="M12 71h1v1h-1z"/><path fill="#323229" d="M13 71h1v1h-1z"/><path fill="#0A0A23" d="M14 71h1v1h-1z"/><path fill="#002" d="M15 71h1v1h-1zM16 71h1v1h-1zM17 71h1v1h-1zM18 71h1v1h-1zM19 71h1v1h-1zM20 71h1v1h-1zM21 71h1v1h-1zM22 71h1v1h-1zM23 71h1v1h-1zM24 71h1v1h-1zM25 71h1v1h-1zM26 71h1v1h-1zM27 71h1v1h-1z"/><path fill="#0E0E28" d="M28 71h1v1h-1z"/><path fill="#B0B46D" d="M29 71h1v1h-1z"/><path fill="#D8DD7E" d="M30 71h1v1h-1zM31 71h1v1h-1zM32 71h1v1h-1zM33 71h1v1h-1zM34 71h1v1h-1zM35 71h1v1h-1zM36 71h1v1h-1zM37 71h1v1h-1zM38 71h1v1h-1zM39 71h1v1h-1zM40 71h1v1h-1zM41 71h1v1h-1zM42 71h1v1h-1zM43 71h1v1h-1z"/><path fill="#BCBF5C" d="M44 71h1v1h-1z"/><path fill="#9FA139" d="M45 71h1v1h-1zM46 71h1v1h-1zM47 71h1v1h-1zM48 71h1v1h-1zM49 71h1v1h-1zM50 71h1v1h-1z"/><path fill="#282828" d="M51 71h1v1h-1z"/><path fill="#002" d="M52 71h1v1h-1zM53 71h1v1h-1zM54 71h1v1h-1zM4 72h1v1H4zM5 72h1v1H5zM6 72h1v1H6zM7 72h1v1H7z"/><path fill="#64646A" d="M8 72h1v1H8z"/><path fill="#282828" d="M9 72h1v1H9z"/><path fill="#002" d="M10 72h1v1h-1zM11 72h1v1h-1zM12 72h1v1h-1zM13 72h1v1h-1zM14 72h1v1h-1zM15 72h1v1h-1zM16 72h1v1h-1zM17 72h1v1h-1zM18 72h1v1h-1zM19 72h1v1h-1zM20 72h1v1h-1zM21 72h1v1h-1zM25 72h1v1h-1zM26 72h1v1h-1zM27 72h1v1h-1zM28 72h1v1h-1z"/><path fill="#0E0E28" d="M29 72h1v1h-1z"/><path fill="#878A5C" d="M30 72h1v1h-1z"/><path fill="#D8DD7E" d="M31 72h1v1h-1zM32 72h1v1h-1zM33 72h1v1h-1zM34 72h1v1h-1zM35 72h1v1h-1zM36 72h1v1h-1zM37 72h1v1h-1zM38 72h1v1h-1zM39 72h1v1h-1zM40 72h1v1h-1zM41 72h1v1h-1zM42 72h1v1h-1zM43 72h1v1h-1z"/><path fill="#BFC360" d="M44 72h1v1h-1z"/><path fill="#9FA139" d="M45 72h1v1h-1zM46 72h1v1h-1zM47 72h1v1h-1zM48 72h1v1h-1zM49 72h1v1h-1z"/><path fill="#959738" d="M50 72h1v1h-1z"/><path fill="#002" d="M51 72h1v1h-1zM52 72h1v1h-1zM53 72h1v1h-1zM4 73h1v1H4zM5 73h1v1H5zM6 73h1v1H6zM7 73h1v1H7zM8 73h1v1H8zM9 73h1v1H9zM10 73h1v1h-1zM11 73h1v1h-1zM12 73h1v1h-1zM13 73h1v1h-1zM14 73h1v1h-1zM15 73h1v1h-1zM16 73h1v1h-1zM17 73h1v1h-1zM26 73h1v1h-1zM27 73h1v1h-1zM28 73h1v1h-1zM29 73h1v1h-1zM30 73h1v1h-1z"/><path fill="#878A5C" d="M31 73h1v1h-1z"/><path fill="#D8DD7E" d="M32 73h1v1h-1zM33 73h1v1h-1zM34 73h1v1h-1zM35 73h1v1h-1zM36 73h1v1h-1zM37 73h1v1h-1zM38 73h1v1h-1zM39 73h1v1h-1zM40 73h1v1h-1zM41 73h1v1h-1zM42 73h1v1h-1zM43 73h1v1h-1z"/><path fill="#CACE6D" d="M44 73h1v1h-1z"/><path fill="#9FA139" d="M45 73h1v1h-1zM46 73h1v1h-1zM47 73h1v1h-1zM48 73h1v1h-1zM49 73h1v1h-1z"/><path fill="#6D6F32" d="M50 73h1v1h-1z"/><path fill="#002" d="M51 73h1v1h-1zM52 73h1v1h-1zM53 73h1v1h-1zM4 74h1v1H4zM5 74h1v1H5zM6 74h1v1H6zM7 74h1v1H7zM8 74h1v1H8zM9 74h1v1H9zM10 74h1v1h-1zM11 74h1v1h-1zM12 74h1v1h-1zM13 74h1v1h-1zM27 74h1v1h-1zM28 74h1v1h-1zM29 74h1v1h-1zM30 74h1v1h-1zM31 74h1v1h-1z"/><path fill="#515345" d="M32 74h1v1h-1z"/><path fill="#D8DD7E" d="M33 74h1v1h-1zM34 74h1v1h-1zM35 74h1v1h-1zM36 74h1v1h-1zM37 74h1v1h-1zM38 74h1v1h-1zM39 74h1v1h-1zM40 74h1v1h-1zM41 74h1v1h-1zM42 74h1v1h-1zM43 74h1v1h-1z"/><path fill="#CDD271" d="M44 74h1v1h-1z"/><path fill="#9FA139" d="M45 74h1v1h-1zM46 74h1v1h-1zM47 74h1v1h-1zM48 74h1v1h-1zM49 74h1v1h-1z"/><path fill="#3C3C2B" d="M50 74h1v1h-1z"/><path fill="#002" d="M51 74h1v1h-1zM52 74h1v1h-1zM53 74h1v1h-1zM5 75h1v1H5zM6 75h1v1H6zM7 75h1v1H7zM8 75h1v1H8zM9 75h1v1H9zM29 75h1v1h-1zM30 75h1v1h-1zM31 75h1v1h-1zM32 75h1v1h-1z"/><path fill="#515345" d="M33 75h1v1h-1z"/><path fill="#CBCF78" d="M34 75h1v1h-1z"/><path fill="#D8DD7E" d="M35 75h1v1h-1zM36 75h1v1h-1zM37 75h1v1h-1zM38 75h1v1h-1zM39 75h1v1h-1zM40 75h1v1h-1zM41 75h1v1h-1zM42 75h1v1h-1zM43 75h1v1h-1zM44 75h1v1h-1z"/><path fill="#9FA139" d="M45 75h1v1h-1zM46 75h1v1h-1zM47 75h1v1h-1zM48 75h1v1h-1zM49 75h1v1h-1z"/><path fill="#141425" d="M50 75h1v1h-1z"/><path fill="#002" d="M51 75h1v1h-1zM52 75h1v1h-1zM53 75h1v1h-1zM30 76h1v1h-1zM31 76h1v1h-1zM32 76h1v1h-1zM33 76h1v1h-1z"/><path fill="#292933" d="M34 76h1v1h-1z"/><path fill="#CBCF78" d="M35 76h1v1h-1z"/><path fill="#D8DD7E" d="M36 76h1v1h-1zM37 76h1v1h-1zM38 76h1v1h-1zM39 76h1v1h-1zM40 76h1v1h-1zM41 76h1v1h-1zM42 76h1v1h-1zM43 76h1v1h-1zM44 76h1v1h-1z"/><path fill="#A3A53D" d="M45 76h1v1h-1z"/><path fill="#9FA139" d="M46 76h1v1h-1zM47 76h1v1h-1zM48 76h1v1h-1z"/><path fill="#818335" d="M49 76h1v1h-1z"/><path fill="#002" d="M50 76h1v1h-1zM51 76h1v1h-1zM52 76h1v1h-1zM31 77h1v1h-1zM32 77h1v1h-1zM33 77h1v1h-1zM34 77h1v1h-1z"/><path fill="#292933" d="M35 77h1v1h-1z"/><path fill="#B0B46D" d="M36 77h1v1h-1z"/><path fill="#D8DD7E" d="M37 77h1v1h-1zM38 77h1v1h-1zM39 77h1v1h-1zM40 77h1v1h-1zM41 77h1v1h-1zM42 77h1v1h-1zM43 77h1v1h-1zM44 77h1v1h-1z"/><path fill="#ADB04A" d="M45 77h1v1h-1z"/><path fill="#9FA139" d="M46 77h1v1h-1zM47 77h1v1h-1zM48 77h1v1h-1z"/><path fill="#595B2F" d="M49 77h1v1h-1z"/><path fill="#002" d="M50 77h1v1h-1zM51 77h1v1h-1zM52 77h1v1h-1zM32 78h1v1h-1zM33 78h1v1h-1zM34 78h1v1h-1zM35 78h1v1h-1z"/><path fill="#0E0E28" d="M36 78h1v1h-1z"/><path fill="#B0B46D" d="M37 78h1v1h-1z"/><path fill="#D8DD7E" d="M38 78h1v1h-1zM39 78h1v1h-1zM40 78h1v1h-1zM41 78h1v1h-1zM42 78h1v1h-1zM43 78h1v1h-1zM44 78h1v1h-1z"/><path fill="#B4B853" d="M45 78h1v1h-1z"/><path fill="#9FA139" d="M46 78h1v1h-1zM47 78h1v1h-1zM48 78h1v1h-1z"/><path fill="#1E1E26" d="M49 78h1v1h-1z"/><path fill="#002" d="M50 78h1v1h-1zM51 78h1v1h-1zM52 78h1v1h-1zM33 79h1v1h-1zM34 79h1v1h-1zM35 79h1v1h-1zM36 79h1v1h-1zM37 79h1v1h-1z"/><path fill="#878A5C" d="M38 79h1v1h-1z"/><path fill="#D8DD7E" d="M39 79h1v1h-1zM40 79h1v1h-1zM41 79h1v1h-1zM42 79h1v1h-1zM43 79h1v1h-1zM44 79h1v1h-1z"/><path fill="#BCBF5C" d="M45 79h1v1h-1z"/><path fill="#9FA139" d="M46 79h1v1h-1zM47 79h1v1h-1z"/><path fill="#959738" d="M48 79h1v1h-1z"/><path fill="#002" d="M49 79h1v1h-1zM50 79h1v1h-1zM51 79h1v1h-1zM34 80h1v1h-1zM35 80h1v1h-1zM36 80h1v1h-1zM37 80h1v1h-1zM38 80h1v1h-1z"/><path fill="#6C6F50" d="M39 80h1v1h-1z"/><path fill="#D8DD7E" d="M40 80h1v1h-1zM41 80h1v1h-1zM42 80h1v1h-1zM43 80h1v1h-1zM44 80h1v1h-1z"/><path fill="#C3C764" d="M45 80h1v1h-1z"/><path fill="#9FA139" d="M46 80h1v1h-1zM47 80h1v1h-1z"/><path fill="#636530" d="M48 80h1v1h-1z"/><path fill="#002" d="M49 80h1v1h-1zM50 80h1v1h-1zM51 80h1v1h-1zM35 81h1v1h-1zM36 81h1v1h-1zM37 81h1v1h-1zM38 81h1v1h-1zM39 81h1v1h-1z"/><path fill="#515345" d="M40 81h1v1h-1z"/><path fill="#D8DD7E" d="M41 81h1v1h-1zM42 81h1v1h-1zM43 81h1v1h-1zM44 81h1v1h-1z"/><path fill="#CACE6D" d="M45 81h1v1h-1z"/><path fill="#9FA139" d="M46 81h1v1h-1zM47 81h1v1h-1z"/><path fill="#323229" d="M48 81h1v1h-1z"/><path fill="#002" d="M49 81h1v1h-1zM50 81h1v1h-1zM51 81h1v1h-1zM37 82h1v1h-1zM38 82h1v1h-1zM39 82h1v1h-1zM40 82h1v1h-1z"/><path fill="#292933" d="M41 82h1v1h-1z"/><path fill="#CBCF78" d="M42 82h1v1h-1z"/><path fill="#D8DD7E" d="M43 82h1v1h-1zM44 82h1v1h-1z"/><path fill="#D4D97A" d="M45 82h1v1h-1z"/><path fill="#9FA139" d="M46 82h1v1h-1zM47 82h1v1h-1z"/><path fill="#0A0A23" d="M48 82h1v1h-1z"/><path fill="#002" d="M49 82h1v1h-1zM50 82h1v1h-1zM38 83h1v1h-1zM39 83h1v1h-1zM40 83h1v1h-1zM41 83h1v1h-1z"/><path fill="#292933" d="M42 83h1v1h-1z"/><path fill="#B0B46D" d="M43 83h1v1h-1z"/><path fill="#D8DD7E" d="M44 83h1v1h-1zM45 83h1v1h-1z"/><path fill="#9FA139" d="M46 83h1v1h-1z"/><path fill="#6D6F32" d="M47 83h1v1h-1z"/><path fill="#002" d="M48 83h1v1h-1zM49 83h1v1h-1zM50 83h1v1h-1zM39 84h1v1h-1zM40 84h1v1h-1zM41 84h1v1h-1zM42 84h1v1h-1z"/><path fill="#0E0E28" d="M43 84h1v1h-1z"/><path fill="#A2A667" d="M44 84h1v1h-1z"/><path fill="#D8DD7E" d="M45 84h1v1h-1z"/><path fill="#ADB04A" d="M46 84h1v1h-1z"/><path fill="#3C3C2B" d="M47 84h1v1h-1z"/><path fill="#002" d="M48 84h1v1h-1zM49 84h1v1h-1zM50 84h1v1h-1zM40 85h1v1h-1zM41 85h1v1h-1zM42 85h1v1h-1zM43 85h1v1h-1zM44 85h1v1h-1z"/><path fill="#7A7C56" d="M45 85h1v1h-1z"/><path fill="#B4B853" d="M46 85h1v1h-1z"/><path fill="#0A0A23" d="M47 85h1v1h-1z"/><path fill="#002" d="M48 85h1v1h-1zM49 85h1v1h-1zM50 85h1v1h-1zM41 86h1v1h-1zM42 86h1v1h-1zM43 86h1v1h-1zM44 86h1v1h-1zM45 86h1v1h-1z"/><path fill="#21222B" d="M46 86h1v1h-1z"/><path fill="#002" d="M47 86h1v1h-1zM48 86h1v1h-1zM49 86h1v1h-1zM43 87h1v1h-1zM44 87h1v1h-1zM45 87h1v1h-1zM46 87h1v1h-1zM47 87h1v1h-1zM48 87h1v1h-1zM49 87h1v1h-1zM44 88h1v1h-1zM45 88h1v1h-1zM46 88h1v1h-1zM47 88h1v1h-1zM48 88h1v1h-1zM49 88h1v1h-1zM45 89h1v1h-1zM46 89h1v1h-1zM47 89h1v1h-1zM48 89h1v1h-1z"/></svg>