<svg baseProfile="full" height="82" width="90" xmlns="http://www.w3.org/2000/svg"><path fill="#231815" d="M67 0h1v1h-1zM68 0h1v1h-1zM69 0h1v1h-1zM70 0h1v1h-1zM71 0h1v1h-1zM72 0h1v1h-1zM73 0h1v1h-1zM74 0h1v1h-1zM75 0h1v1h-1zM76 0h1v1h-1zM77 0h1v1h-1zM78 0h1v1h-1zM79 0h1v1h-1zM80 0h1v1h-1zM81 0h1v1h-1zM82 0h1v1h-1zM83 0h1v1h-1zM84 0h1v1h-1zM85 0h1v1h-1zM86 0h1v1h-1zM87 0h1v1h-1zM88 0h1v1h-1zM89 0h1v1h-1zM62 1h1v1h-1zM63 1h1v1h-1zM64 1h1v1h-1zM65 1h1v1h-1zM66 1h1v1h-1zM67 1h1v1h-1zM68 1h1v1h-1zM69 1h1v1h-1zM70 1h1v1h-1zM71 1h1v1h-1zM72 1h1v1h-1zM73 1h1v1h-1zM74 1h1v1h-1zM75 1h1v1h-1zM76 1h1v1h-1zM77 1h1v1h-1zM78 1h1v1h-1zM79 1h1v1h-1zM80 1h1v1h-1zM81 1h1v1h-1zM82 1h1v1h-1zM83 1h1v1h-1zM84 1h1v1h-1zM85 1h1v1h-1zM86 1h1v1h-1zM87 1h1v1h-1zM88 1h1v1h-1zM89 1h1v1h-1zM58 2h1v1h-1zM59 2h1v1h-1zM60 2h1v1h-1zM61 2h1v1h-1zM62 2h1v1h-1zM63 2h1v1h-1zM64 2h1v1h-1zM65 2h1v1h-1zM66 2h1v1h-1zM67 2h1v1h-1zM68 2h1v1h-1zM69 2h1v1h-1zM70 2h1v1h-1zM71 2h1v1h-1zM72 2h1v1h-1zM73 2h1v1h-1zM74 2h1v1h-1zM75 2h1v1h-1zM76 2h1v1h-1zM77 2h1v1h-1zM78 2h1v1h-1zM79 2h1v1h-1zM80 2h1v1h-1zM81 2h1v1h-1zM82 2h1v1h-1zM83 2h1v1h-1zM84 2h1v1h-1zM85 2h1v1h-1zM86 2h1v1h-1zM87 2h1v1h-1zM88 2h1v1h-1zM89 2h1v1h-1zM54 3h1v1h-1zM55 3h1v1h-1zM56 3h1v1h-1zM57 3h1v1h-1zM58 3h1v1h-1zM59 3h1v1h-1zM60 3h1v1h-1zM61 3h1v1h-1zM62 3h1v1h-1zM63 3h1v1h-1zM64 3h1v1h-1zM65 3h1v1h-1zM66 3h1v1h-1zM67 3h1v1h-1z"/><path fill="#383B39" d="M68 3h1v1h-1z"/><path fill="#3F4645" d="M69 3h1v1h-1z"/><path fill="#5B7574" d="M70 3h1v1h-1zM71 3h1v1h-1z"/><path fill="#6F9798" d="M72 3h1v1h-1z"/><path fill="#76A3A4" d="M73 3h1v1h-1zM74 3h1v1h-1z"/><path fill="#8BC5C7" d="M75 3h1v1h-1z"/><path fill="#92D1D3" d="M76 3h1v1h-1zM77 3h1v1h-1zM78 3h1v1h-1zM79 3h1v1h-1zM80 3h1v1h-1zM81 3h1v1h-1zM82 3h1v1h-1zM83 3h1v1h-1zM84 3h1v1h-1z"/><path fill="#76A3A4" d="M85 3h1v1h-1z"/><path fill="#86AAAE" d="M86 3h1v1h-1z"/><path fill="#231815" d="M87 3h1v1h-1zM88 3h1v1h-1zM89 3h1v1h-1zM52 4h1v1h-1zM53 4h1v1h-1zM54 4h1v1h-1zM55 4h1v1h-1zM56 4h1v1h-1zM57 4h1v1h-1zM58 4h1v1h-1zM59 4h1v1h-1zM60 4h1v1h-1zM61 4h1v1h-1z"/><path fill="#2A2421" d="M62 4h1v1h-1z"/><path fill="#3F4645" d="M63 4h1v1h-1z"/><path fill="#5B7574" d="M64 4h1v1h-1z"/><path fill="#6F9798" d="M65 4h1v1h-1z"/><path fill="#7DAEAF" d="M66 4h1v1h-1z"/><path fill="#92D1D3" d="M67 4h1v1h-1zM68 4h1v1h-1zM69 4h1v1h-1zM70 4h1v1h-1zM71 4h1v1h-1zM72 4h1v1h-1zM73 4h1v1h-1zM74 4h1v1h-1zM75 4h1v1h-1zM76 4h1v1h-1zM77 4h1v1h-1zM78 4h1v1h-1zM79 4h1v1h-1zM80 4h1v1h-1zM81 4h1v1h-1zM82 4h1v1h-1zM83 4h1v1h-1z"/><path fill="#96D3D5" d="M84 4h1v1h-1z"/><path fill="#A9DBE2" d="M85 4h1v1h-1z"/><path fill="#AEDDE6" d="M86 4h1v1h-1z"/><path fill="#231815" d="M87 4h1v1h-1zM88 4h1v1h-1zM89 4h1v1h-1zM49 5h1v1h-1zM50 5h1v1h-1zM51 5h1v1h-1zM52 5h1v1h-1zM53 5h1v1h-1zM54 5h1v1h-1zM55 5h1v1h-1zM56 5h1v1h-1zM57 5h1v1h-1z"/><path fill="#2A2421" d="M58 5h1v1h-1z"/><path fill="#465250" d="M59 5h1v1h-1z"/><path fill="#618080" d="M60 5h1v1h-1z"/><path fill="#7DAEAF" d="M61 5h1v1h-1z"/><path fill="#92D1D3" d="M62 5h1v1h-1zM63 5h1v1h-1zM64 5h1v1h-1zM65 5h1v1h-1zM66 5h1v1h-1zM67 5h1v1h-1zM68 5h1v1h-1zM69 5h1v1h-1zM70 5h1v1h-1zM71 5h1v1h-1zM72 5h1v1h-1zM73 5h1v1h-1zM74 5h1v1h-1zM75 5h1v1h-1zM76 5h1v1h-1zM77 5h1v1h-1zM78 5h1v1h-1zM79 5h1v1h-1zM80 5h1v1h-1z"/><path fill="#8BCDCF" d="M81 5h1v1h-1z"/><path fill="#85CACC" d="M82 5h1v1h-1z"/><path fill="#97D3D7" d="M83 5h1v1h-1z"/><path fill="#ACDCE5" d="M84 5h1v1h-1z"/><path fill="#AEDDE6" d="M85 5h1v1h-1zM86 5h1v1h-1z"/><path fill="#231815" d="M87 5h1v1h-1zM88 5h1v1h-1zM89 5h1v1h-1zM47 6h1v1h-1zM48 6h1v1h-1zM49 6h1v1h-1zM50 6h1v1h-1zM51 6h1v1h-1zM52 6h1v1h-1zM53 6h1v1h-1zM54 6h1v1h-1z"/><path fill="#312F2D" d="M55 6h1v1h-1z"/><path fill="#546968" d="M56 6h1v1h-1z"/><path fill="#6F9798" d="M57 6h1v1h-1z"/><path fill="#92D1D3" d="M58 6h1v1h-1zM59 6h1v1h-1zM60 6h1v1h-1zM61 6h1v1h-1zM62 6h1v1h-1zM63 6h1v1h-1zM64 6h1v1h-1zM65 6h1v1h-1zM66 6h1v1h-1zM67 6h1v1h-1zM68 6h1v1h-1zM69 6h1v1h-1zM70 6h1v1h-1zM71 6h1v1h-1zM72 6h1v1h-1zM73 6h1v1h-1zM74 6h1v1h-1zM75 6h1v1h-1zM76 6h1v1h-1zM77 6h1v1h-1zM78 6h1v1h-1zM79 6h1v1h-1z"/><path fill="#84C9CC" d="M80 6h1v1h-1z"/><path fill="#75C1C4" d="M81 6h1v1h-1zM82 6h1v1h-1z"/><path fill="#8ACCD1" d="M83 6h1v1h-1z"/><path fill="#AEDDE6" d="M84 6h1v1h-1zM85 6h1v1h-1zM86 6h1v1h-1z"/><path fill="#231815" d="M87 6h1v1h-1zM88 6h1v1h-1zM89 6h1v1h-1zM45 7h1v1h-1zM46 7h1v1h-1zM47 7h1v1h-1zM48 7h1v1h-1zM49 7h1v1h-1zM50 7h1v1h-1zM51 7h1v1h-1z"/><path fill="#2A2421" d="M52 7h1v1h-1z"/><path fill="#4D5D5C" d="M53 7h1v1h-1z"/><path fill="#7DAEAF" d="M54 7h1v1h-1z"/><path fill="#92D1D3" d="M55 7h1v1h-1zM56 7h1v1h-1zM57 7h1v1h-1zM58 7h1v1h-1zM59 7h1v1h-1zM60 7h1v1h-1zM61 7h1v1h-1zM62 7h1v1h-1zM63 7h1v1h-1zM64 7h1v1h-1zM65 7h1v1h-1zM66 7h1v1h-1zM67 7h1v1h-1zM68 7h1v1h-1zM69 7h1v1h-1zM70 7h1v1h-1zM71 7h1v1h-1zM72 7h1v1h-1zM73 7h1v1h-1zM74 7h1v1h-1zM75 7h1v1h-1zM76 7h1v1h-1zM77 7h1v1h-1zM78 7h1v1h-1z"/><path fill="#80C7CA" d="M79 7h1v1h-1z"/><path fill="#75C1C4" d="M80 7h1v1h-1zM81 7h1v1h-1zM82 7h1v1h-1z"/><path fill="#87CACF" d="M83 7h1v1h-1z"/><path fill="#AEDDE6" d="M84 7h1v1h-1zM85 7h1v1h-1zM86 7h1v1h-1z"/><path fill="#231815" d="M87 7h1v1h-1zM88 7h1v1h-1zM89 7h1v1h-1zM43 8h1v1h-1zM44 8h1v1h-1zM45 8h1v1h-1zM46 8h1v1h-1zM47 8h1v1h-1zM48 8h1v1h-1zM49 8h1v1h-1z"/><path fill="#3F4645" d="M50 8h1v1h-1z"/><path fill="#688C8C" d="M51 8h1v1h-1z"/><path fill="#92D1D3" d="M52 8h1v1h-1zM53 8h1v1h-1zM54 8h1v1h-1zM55 8h1v1h-1zM56 8h1v1h-1zM57 8h1v1h-1zM58 8h1v1h-1zM59 8h1v1h-1zM60 8h1v1h-1zM61 8h1v1h-1zM62 8h1v1h-1zM63 8h1v1h-1zM64 8h1v1h-1zM65 8h1v1h-1zM66 8h1v1h-1zM67 8h1v1h-1zM68 8h1v1h-1zM69 8h1v1h-1zM70 8h1v1h-1zM71 8h1v1h-1zM72 8h1v1h-1zM73 8h1v1h-1zM74 8h1v1h-1zM75 8h1v1h-1zM76 8h1v1h-1z"/><path fill="#90D0D2" d="M77 8h1v1h-1z"/><path fill="#7AC4C7" d="M78 8h1v1h-1z"/><path fill="#75C1C4" d="M79 8h1v1h-1zM80 8h1v1h-1zM81 8h1v1h-1z"/><path fill="#80C6CA" d="M82 8h1v1h-1z"/><path fill="#AADBE4" d="M83 8h1v1h-1z"/><path fill="#AEDDE6" d="M84 8h1v1h-1zM85 8h1v1h-1zM86 8h1v1h-1z"/><path fill="#231815" d="M87 8h1v1h-1zM88 8h1v1h-1zM89 8h1v1h-1zM41 9h1v1h-1zM42 9h1v1h-1zM43 9h1v1h-1zM44 9h1v1h-1zM45 9h1v1h-1zM46 9h1v1h-1zM47 9h1v1h-1z"/><path fill="#4D5D5C" d="M48 9h1v1h-1z"/><path fill="#84BABB" d="M49 9h1v1h-1z"/><path fill="#92D1D3" d="M50 9h1v1h-1zM51 9h1v1h-1zM52 9h1v1h-1zM53 9h1v1h-1zM54 9h1v1h-1zM55 9h1v1h-1zM56 9h1v1h-1zM57 9h1v1h-1zM58 9h1v1h-1zM59 9h1v1h-1zM60 9h1v1h-1zM61 9h1v1h-1z"/><path fill="#89CCCE" d="M62 9h1v1h-1z"/><path fill="#7EC6C9" d="M63 9h1v1h-1z"/><path fill="#8DCED0" d="M64 9h1v1h-1z"/><path fill="#92D1D3" d="M65 9h1v1h-1zM66 9h1v1h-1zM67 9h1v1h-1zM68 9h1v1h-1zM69 9h1v1h-1zM70 9h1v1h-1zM71 9h1v1h-1zM72 9h1v1h-1zM73 9h1v1h-1zM74 9h1v1h-1zM75 9h1v1h-1z"/><path fill="#8DCED0" d="M76 9h1v1h-1z"/><path fill="#7AC4C7" d="M77 9h1v1h-1z"/><path fill="#75C1C4" d="M78 9h1v1h-1zM79 9h1v1h-1zM80 9h1v1h-1z"/><path fill="#87CACF" d="M81 9h1v1h-1z"/><path fill="#AADBE4" d="M82 9h1v1h-1z"/><path fill="#AEDDE6" d="M83 9h1v1h-1zM84 9h1v1h-1zM85 9h1v1h-1zM86 9h1v1h-1z"/><path fill="#231815" d="M87 9h1v1h-1zM88 9h1v1h-1zM89 9h1v1h-1zM39 10h1v1h-1zM40 10h1v1h-1zM41 10h1v1h-1zM42 10h1v1h-1zM43 10h1v1h-1zM44 10h1v1h-1z"/><path fill="#2A2421" d="M45 10h1v1h-1z"/><path fill="#5B7574" d="M46 10h1v1h-1z"/><path fill="#8BC5C7" d="M47 10h1v1h-1z"/><path fill="#92D1D3" d="M48 10h1v1h-1zM49 10h1v1h-1zM50 10h1v1h-1zM51 10h1v1h-1zM52 10h1v1h-1zM53 10h1v1h-1zM54 10h1v1h-1zM55 10h1v1h-1zM56 10h1v1h-1zM57 10h1v1h-1zM58 10h1v1h-1zM59 10h1v1h-1zM60 10h1v1h-1z"/><path fill="#8ECFD1" d="M61 10h1v1h-1z"/><path fill="#75C1C4" d="M62 10h1v1h-1zM63 10h1v1h-1z"/><path fill="#7CC5C8" d="M64 10h1v1h-1z"/><path fill="#92D1D3" d="M65 10h1v1h-1zM66 10h1v1h-1zM67 10h1v1h-1zM68 10h1v1h-1zM69 10h1v1h-1zM70 10h1v1h-1zM71 10h1v1h-1zM72 10h1v1h-1zM73 10h1v1h-1zM74 10h1v1h-1z"/><path fill="#8BCDCF" d="M75 10h1v1h-1z"/><path fill="#77C2C5" d="M76 10h1v1h-1z"/><path fill="#75C1C4" d="M77 10h1v1h-1zM78 10h1v1h-1zM79 10h1v1h-1z"/><path fill="#8ACCD1" d="M80 10h1v1h-1z"/><path fill="#AEDDE6" d="M81 10h1v1h-1zM82 10h1v1h-1zM83 10h1v1h-1zM84 10h1v1h-1zM85 10h1v1h-1z"/><path fill="#8BACB2" d="M86 10h1v1h-1z"/><path fill="#231815" d="M87 10h1v1h-1zM88 10h1v1h-1zM89 10h1v1h-1zM37 11h1v1h-1zM38 11h1v1h-1zM39 11h1v1h-1zM40 11h1v1h-1zM41 11h1v1h-1zM42 11h1v1h-1zM43 11h1v1h-1z"/><path fill="#5B7574" d="M44 11h1v1h-1z"/><path fill="#8BC5C7" d="M45 11h1v1h-1z"/><path fill="#92D1D3" d="M46 11h1v1h-1zM47 11h1v1h-1zM48 11h1v1h-1zM49 11h1v1h-1zM50 11h1v1h-1zM51 11h1v1h-1zM52 11h1v1h-1zM53 11h1v1h-1zM54 11h1v1h-1zM55 11h1v1h-1zM56 11h1v1h-1zM57 11h1v1h-1zM58 11h1v1h-1zM59 11h1v1h-1zM60 11h1v1h-1z"/><path fill="#8BCDCF" d="M61 11h1v1h-1z"/><path fill="#75C1C4" d="M62 11h1v1h-1zM63 11h1v1h-1z"/><path fill="#7CC5C8" d="M64 11h1v1h-1z"/><path fill="#92D1D3" d="M65 11h1v1h-1zM66 11h1v1h-1zM67 11h1v1h-1zM68 11h1v1h-1zM69 11h1v1h-1zM70 11h1v1h-1zM71 11h1v1h-1zM72 11h1v1h-1zM73 11h1v1h-1z"/><path fill="#87CBCD" d="M74 11h1v1h-1z"/><path fill="#75C1C4" d="M75 11h1v1h-1zM76 11h1v1h-1zM77 11h1v1h-1zM78 11h1v1h-1z"/><path fill="#99D3D9" d="M79 11h1v1h-1z"/><path fill="#AEDDE6" d="M80 11h1v1h-1zM81 11h1v1h-1zM82 11h1v1h-1zM83 11h1v1h-1zM84 11h1v1h-1zM85 11h1v1h-1z"/><path fill="#8BACB2" d="M86 11h1v1h-1z"/><path fill="#231815" d="M87 11h1v1h-1zM88 11h1v1h-1zM89 11h1v1h-1zM36 12h1v1h-1zM37 12h1v1h-1zM38 12h1v1h-1zM39 12h1v1h-1zM40 12h1v1h-1zM41 12h1v1h-1z"/><path fill="#465250" d="M42 12h1v1h-1z"/><path fill="#84BABB" d="M43 12h1v1h-1z"/><path fill="#92D1D3" d="M44 12h1v1h-1zM45 12h1v1h-1zM46 12h1v1h-1zM47 12h1v1h-1zM48 12h1v1h-1zM49 12h1v1h-1zM50 12h1v1h-1zM51 12h1v1h-1zM52 12h1v1h-1zM53 12h1v1h-1zM54 12h1v1h-1zM55 12h1v1h-1zM56 12h1v1h-1zM57 12h1v1h-1zM58 12h1v1h-1zM59 12h1v1h-1zM60 12h1v1h-1z"/><path fill="#8BCDCF" d="M61 12h1v1h-1z"/><path fill="#75C1C4" d="M62 12h1v1h-1zM63 12h1v1h-1z"/><path fill="#7CC5C8" d="M64 12h1v1h-1z"/><path fill="#92D1D3" d="M65 12h1v1h-1zM66 12h1v1h-1zM67 12h1v1h-1zM68 12h1v1h-1zM69 12h1v1h-1zM70 12h1v1h-1zM71 12h1v1h-1zM72 12h1v1h-1z"/><path fill="#82C8CB" d="M73 12h1v1h-1z"/><path fill="#75C1C4" d="M74 12h1v1h-1zM75 12h1v1h-1zM76 12h1v1h-1z"/><path fill="#79C3C6" d="M77 12h1v1h-1z"/><path fill="#9CD4DB" d="M78 12h1v1h-1z"/><path fill="#AEDDE6" d="M79 12h1v1h-1zM80 12h1v1h-1zM81 12h1v1h-1zM82 12h1v1h-1zM83 12h1v1h-1zM84 12h1v1h-1zM85 12h1v1h-1z"/><path fill="#8BACB2" d="M86 12h1v1h-1z"/><path fill="#231815" d="M87 12h1v1h-1zM88 12h1v1h-1zM89 12h1v1h-1zM35 13h1v1h-1zM36 13h1v1h-1zM37 13h1v1h-1zM38 13h1v1h-1zM39 13h1v1h-1z"/><path fill="#383B39" d="M40 13h1v1h-1z"/><path fill="#76A3A4" d="M41 13h1v1h-1z"/><path fill="#92D1D3" d="M42 13h1v1h-1zM43 13h1v1h-1zM44 13h1v1h-1zM45 13h1v1h-1zM46 13h1v1h-1zM47 13h1v1h-1zM48 13h1v1h-1zM49 13h1v1h-1zM50 13h1v1h-1zM51 13h1v1h-1zM52 13h1v1h-1zM53 13h1v1h-1zM54 13h1v1h-1zM55 13h1v1h-1zM56 13h1v1h-1zM57 13h1v1h-1zM58 13h1v1h-1zM59 13h1v1h-1zM60 13h1v1h-1z"/><path fill="#8BCDCF" d="M61 13h1v1h-1z"/><path fill="#75C1C4" d="M62 13h1v1h-1zM63 13h1v1h-1z"/><path fill="#7CC5C8" d="M64 13h1v1h-1z"/><path fill="#92D1D3" d="M65 13h1v1h-1zM66 13h1v1h-1zM67 13h1v1h-1zM68 13h1v1h-1zM69 13h1v1h-1zM70 13h1v1h-1z"/><path fill="#90D0D2" d="M71 13h1v1h-1z"/><path fill="#80C7CA" d="M72 13h1v1h-1z"/><path fill="#75C1C4" d="M73 13h1v1h-1zM74 13h1v1h-1zM75 13h1v1h-1z"/><path fill="#79C3C6" d="M76 13h1v1h-1z"/><path fill="#A3D8E0" d="M77 13h1v1h-1z"/><path fill="#AEDDE6" d="M78 13h1v1h-1zM79 13h1v1h-1zM80 13h1v1h-1zM81 13h1v1h-1zM82 13h1v1h-1zM83 13h1v1h-1zM84 13h1v1h-1zM85 13h1v1h-1z"/><path fill="#697B7E" d="M86 13h1v1h-1z"/><path fill="#231815" d="M87 13h1v1h-1zM88 13h1v1h-1zM89 13h1v1h-1zM33 14h1v1h-1zM34 14h1v1h-1zM35 14h1v1h-1zM36 14h1v1h-1zM37 14h1v1h-1zM38 14h1v1h-1z"/><path fill="#5B7574" d="M39 14h1v1h-1z"/><path fill="#92D1D3" d="M40 14h1v1h-1zM41 14h1v1h-1zM42 14h1v1h-1zM43 14h1v1h-1zM44 14h1v1h-1zM45 14h1v1h-1zM46 14h1v1h-1zM47 14h1v1h-1zM48 14h1v1h-1zM49 14h1v1h-1zM50 14h1v1h-1zM51 14h1v1h-1zM52 14h1v1h-1zM53 14h1v1h-1zM54 14h1v1h-1zM55 14h1v1h-1zM56 14h1v1h-1zM57 14h1v1h-1zM58 14h1v1h-1zM59 14h1v1h-1zM60 14h1v1h-1z"/><path fill="#8BCDCF" d="M61 14h1v1h-1z"/><path fill="#75C1C4" d="M62 14h1v1h-1zM63 14h1v1h-1z"/><path fill="#7CC5C8" d="M64 14h1v1h-1z"/><path fill="#92D1D3" d="M65 14h1v1h-1zM66 14h1v1h-1zM67 14h1v1h-1zM68 14h1v1h-1zM69 14h1v1h-1z"/><path fill="#90D0D2" d="M70 14h1v1h-1z"/><path fill="#7AC4C7" d="M71 14h1v1h-1z"/><path fill="#75C1C4" d="M72 14h1v1h-1zM73 14h1v1h-1zM74 14h1v1h-1z"/><path fill="#80C6CA" d="M75 14h1v1h-1z"/><path fill="#AADBE4" d="M76 14h1v1h-1z"/><path fill="#AEDDE6" d="M77 14h1v1h-1zM78 14h1v1h-1zM79 14h1v1h-1zM80 14h1v1h-1zM81 14h1v1h-1zM82 14h1v1h-1zM83 14h1v1h-1zM84 14h1v1h-1zM85 14h1v1h-1z"/><path fill="#697B7E" d="M86 14h1v1h-1z"/><path fill="#231815" d="M87 14h1v1h-1zM88 14h1v1h-1zM89 14h1v1h-1zM32 15h1v1h-1zM33 15h1v1h-1zM34 15h1v1h-1zM35 15h1v1h-1zM36 15h1v1h-1z"/><path fill="#383B39" d="M37 15h1v1h-1z"/><path fill="#7DAEAF" d="M38 15h1v1h-1z"/><path fill="#92D1D3" d="M39 15h1v1h-1zM40 15h1v1h-1zM41 15h1v1h-1zM42 15h1v1h-1zM43 15h1v1h-1zM44 15h1v1h-1zM45 15h1v1h-1zM46 15h1v1h-1z"/><path fill="#89CCCE" d="M47 15h1v1h-1z"/><path fill="#7EC6C9" d="M48 15h1v1h-1z"/><path fill="#89CCCE" d="M49 15h1v1h-1z"/><path fill="#92D1D3" d="M50 15h1v1h-1zM51 15h1v1h-1zM52 15h1v1h-1zM53 15h1v1h-1zM54 15h1v1h-1zM55 15h1v1h-1zM56 15h1v1h-1zM57 15h1v1h-1zM58 15h1v1h-1zM59 15h1v1h-1zM60 15h1v1h-1z"/><path fill="#84C9CC" d="M61 15h1v1h-1z"/><path fill="#75C1C4" d="M62 15h1v1h-1zM63 15h1v1h-1z"/><path fill="#82C8CB" d="M64 15h1v1h-1z"/><path fill="#92D1D3" d="M65 15h1v1h-1zM66 15h1v1h-1zM67 15h1v1h-1zM68 15h1v1h-1z"/><path fill="#8DCED0" d="M69 15h1v1h-1z"/><path fill="#79C3C6" d="M70 15h1v1h-1z"/><path fill="#75C1C4" d="M71 15h1v1h-1zM72 15h1v1h-1zM73 15h1v1h-1z"/><path fill="#8ACCD1" d="M74 15h1v1h-1z"/><path fill="#AADBE4" d="M75 15h1v1h-1z"/><path fill="#AEDDE6" d="M76 15h1v1h-1zM77 15h1v1h-1zM78 15h1v1h-1zM79 15h1v1h-1zM80 15h1v1h-1zM81 15h1v1h-1zM82 15h1v1h-1zM83 15h1v1h-1zM84 15h1v1h-1zM85 15h1v1h-1z"/><path fill="#4E5656" d="M86 15h1v1h-1z"/><path fill="#231815" d="M87 15h1v1h-1zM88 15h1v1h-1zM89 15h1v1h-1zM31 16h1v1h-1zM32 16h1v1h-1zM33 16h1v1h-1zM34 16h1v1h-1zM35 16h1v1h-1z"/><path fill="#546968" d="M36 16h1v1h-1z"/><path fill="#92D1D3" d="M37 16h1v1h-1zM38 16h1v1h-1zM39 16h1v1h-1zM40 16h1v1h-1zM41 16h1v1h-1zM42 16h1v1h-1zM43 16h1v1h-1zM44 16h1v1h-1zM45 16h1v1h-1zM46 16h1v1h-1z"/><path fill="#75C1C4" d="M47 16h1v1h-1zM48 16h1v1h-1z"/><path fill="#77C2C5" d="M49 16h1v1h-1z"/><path fill="#92D1D3" d="M50 16h1v1h-1zM51 16h1v1h-1zM52 16h1v1h-1zM53 16h1v1h-1zM54 16h1v1h-1zM55 16h1v1h-1zM56 16h1v1h-1zM57 16h1v1h-1zM58 16h1v1h-1zM59 16h1v1h-1zM60 16h1v1h-1z"/><path fill="#84C9CC" d="M61 16h1v1h-1z"/><path fill="#75C1C4" d="M62 16h1v1h-1zM63 16h1v1h-1z"/><path fill="#84C9CC" d="M64 16h1v1h-1z"/><path fill="#92D1D3" d="M65 16h1v1h-1zM66 16h1v1h-1zM67 16h1v1h-1z"/><path fill="#8BCDCF" d="M68 16h1v1h-1z"/><path fill="#77C2C5" d="M69 16h1v1h-1z"/><path fill="#75C1C4" d="M70 16h1v1h-1zM71 16h1v1h-1zM72 16h1v1h-1z"/><path fill="#8ECDD3" d="M73 16h1v1h-1z"/><path fill="#AEDDE6" d="M74 16h1v1h-1zM75 16h1v1h-1zM76 16h1v1h-1zM77 16h1v1h-1zM78 16h1v1h-1zM79 16h1v1h-1zM80 16h1v1h-1zM81 16h1v1h-1zM82 16h1v1h-1zM83 16h1v1h-1zM84 16h1v1h-1zM85 16h1v1h-1z"/><path fill="#464949" d="M86 16h1v1h-1z"/><path fill="#231815" d="M87 16h1v1h-1zM88 16h1v1h-1zM89 16h1v1h-1zM30 17h1v1h-1zM31 17h1v1h-1zM32 17h1v1h-1zM33 17h1v1h-1z"/><path fill="#2A2421" d="M34 17h1v1h-1z"/><path fill="#6F9798" d="M35 17h1v1h-1z"/><path fill="#92D1D3" d="M36 17h1v1h-1zM37 17h1v1h-1zM38 17h1v1h-1zM39 17h1v1h-1zM40 17h1v1h-1zM41 17h1v1h-1zM42 17h1v1h-1zM43 17h1v1h-1zM44 17h1v1h-1zM45 17h1v1h-1zM46 17h1v1h-1z"/><path fill="#75C1C4" d="M47 17h1v1h-1zM48 17h1v1h-1zM49 17h1v1h-1z"/><path fill="#92D1D3" d="M50 17h1v1h-1zM51 17h1v1h-1zM52 17h1v1h-1zM53 17h1v1h-1zM54 17h1v1h-1zM55 17h1v1h-1zM56 17h1v1h-1zM57 17h1v1h-1zM58 17h1v1h-1zM59 17h1v1h-1zM60 17h1v1h-1z"/><path fill="#84C9CC" d="M61 17h1v1h-1z"/><path fill="#75C1C4" d="M62 17h1v1h-1zM63 17h1v1h-1z"/><path fill="#84C9CC" d="M64 17h1v1h-1z"/><path fill="#92D1D3" d="M65 17h1v1h-1zM66 17h1v1h-1z"/><path fill="#87CBCD" d="M67 17h1v1h-1z"/><path fill="#75C1C4" d="M68 17h1v1h-1zM69 17h1v1h-1zM70 17h1v1h-1zM71 17h1v1h-1z"/><path fill="#99D3D9" d="M72 17h1v1h-1z"/><path fill="#AEDDE6" d="M73 17h1v1h-1zM74 17h1v1h-1zM75 17h1v1h-1zM76 17h1v1h-1zM77 17h1v1h-1zM78 17h1v1h-1zM79 17h1v1h-1zM80 17h1v1h-1zM81 17h1v1h-1zM82 17h1v1h-1zM83 17h1v1h-1zM84 17h1v1h-1zM85 17h1v1h-1z"/><path fill="#231815" d="M86 17h1v1h-1zM87 17h1v1h-1zM88 17h1v1h-1zM89 17h1v1h-1zM28 18h1v1h-1zM29 18h1v1h-1zM30 18h1v1h-1zM31 18h1v1h-1zM32 18h1v1h-1z"/><path fill="#383B39" d="M33 18h1v1h-1z"/><path fill="#84BABB" d="M34 18h1v1h-1z"/><path fill="#92D1D3" d="M35 18h1v1h-1zM36 18h1v1h-1zM37 18h1v1h-1zM38 18h1v1h-1zM39 18h1v1h-1zM40 18h1v1h-1zM41 18h1v1h-1zM42 18h1v1h-1zM43 18h1v1h-1zM44 18h1v1h-1zM45 18h1v1h-1zM46 18h1v1h-1z"/><path fill="#75C1C4" d="M47 18h1v1h-1zM48 18h1v1h-1zM49 18h1v1h-1z"/><path fill="#92D1D3" d="M50 18h1v1h-1zM51 18h1v1h-1zM52 18h1v1h-1zM53 18h1v1h-1zM54 18h1v1h-1zM55 18h1v1h-1zM56 18h1v1h-1zM57 18h1v1h-1zM58 18h1v1h-1zM59 18h1v1h-1zM60 18h1v1h-1z"/><path fill="#80C7CA" d="M61 18h1v1h-1z"/><path fill="#75C1C4" d="M62 18h1v1h-1zM63 18h1v1h-1z"/><path fill="#85CACC" d="M64 18h1v1h-1z"/><path fill="#92D1D3" d="M65 18h1v1h-1z"/><path fill="#82C8CB" d="M66 18h1v1h-1z"/><path fill="#75C1C4" d="M67 18h1v1h-1zM68 18h1v1h-1zM69 18h1v1h-1z"/><path fill="#79C3C6" d="M70 18h1v1h-1z"/><path fill="#A0D6DE" d="M71 18h1v1h-1z"/><path fill="#AEDDE6" d="M72 18h1v1h-1zM73 18h1v1h-1zM74 18h1v1h-1zM75 18h1v1h-1zM76 18h1v1h-1zM77 18h1v1h-1zM78 18h1v1h-1zM79 18h1v1h-1zM80 18h1v1h-1zM81 18h1v1h-1zM82 18h1v1h-1zM83 18h1v1h-1zM84 18h1v1h-1z"/><path fill="#9DC4CC" d="M85 18h1v1h-1z"/><path fill="#231815" d="M86 18h1v1h-1zM87 18h1v1h-1zM88 18h1v1h-1zM27 19h1v1h-1zM28 19h1v1h-1zM29 19h1v1h-1zM30 19h1v1h-1zM31 19h1v1h-1z"/><path fill="#465250" d="M32 19h1v1h-1z"/><path fill="#8BC5C7" d="M33 19h1v1h-1z"/><path fill="#92D1D3" d="M34 19h1v1h-1zM35 19h1v1h-1zM36 19h1v1h-1zM37 19h1v1h-1zM38 19h1v1h-1zM39 19h1v1h-1zM40 19h1v1h-1zM41 19h1v1h-1zM42 19h1v1h-1zM43 19h1v1h-1zM44 19h1v1h-1zM45 19h1v1h-1zM46 19h1v1h-1z"/><path fill="#75C1C4" d="M47 19h1v1h-1zM48 19h1v1h-1zM49 19h1v1h-1z"/><path fill="#92D1D3" d="M50 19h1v1h-1zM51 19h1v1h-1zM52 19h1v1h-1zM53 19h1v1h-1zM54 19h1v1h-1zM55 19h1v1h-1zM56 19h1v1h-1zM57 19h1v1h-1zM58 19h1v1h-1zM59 19h1v1h-1zM60 19h1v1h-1z"/><path fill="#7CC5C8" d="M61 19h1v1h-1z"/><path fill="#75C1C4" d="M62 19h1v1h-1zM63 19h1v1h-1z"/><path fill="#89CCCE" d="M64 19h1v1h-1z"/><path fill="#7EC6C9" d="M65 19h1v1h-1z"/><path fill="#75C1C4" d="M66 19h1v1h-1zM67 19h1v1h-1zM68 19h1v1h-1z"/><path fill="#7CC5C8" d="M69 19h1v1h-1z"/><path fill="#A3D8E0" d="M70 19h1v1h-1z"/><path fill="#AEDDE6" d="M71 19h1v1h-1zM72 19h1v1h-1zM73 19h1v1h-1z"/><path fill="#BBE2EA" d="M74 19h1v1h-1z"/><path fill="#BEE3EA" d="M75 19h1v1h-1z"/><path fill="#C7E7ED" d="M76 19h1v1h-1z"/><path fill="#CDEAEF" d="M77 19h1v1h-1z"/><path fill="#D4ECF1" d="M78 19h1v1h-1z"/><path fill="#DDF0F3" d="M79 19h1v1h-1z"/><path fill="#E0F1F4" d="M80 19h1v1h-1zM81 19h1v1h-1z"/><path fill="#CDEAEF" d="M82 19h1v1h-1z"/><path fill="#B1DEE7" d="M83 19h1v1h-1z"/><path fill="#AEDDE6" d="M84 19h1v1h-1z"/><path fill="#8BACB2" d="M85 19h1v1h-1z"/><path fill="#231815" d="M86 19h1v1h-1zM87 19h1v1h-1zM88 19h1v1h-1zM26 20h1v1h-1zM27 20h1v1h-1zM28 20h1v1h-1zM29 20h1v1h-1zM30 20h1v1h-1z"/><path fill="#4D5D5C" d="M31 20h1v1h-1z"/><path fill="#92D1D3" d="M32 20h1v1h-1zM33 20h1v1h-1zM34 20h1v1h-1zM35 20h1v1h-1zM36 20h1v1h-1zM37 20h1v1h-1zM38 20h1v1h-1zM39 20h1v1h-1zM40 20h1v1h-1zM41 20h1v1h-1zM42 20h1v1h-1zM43 20h1v1h-1zM44 20h1v1h-1zM45 20h1v1h-1zM46 20h1v1h-1z"/><path fill="#75C1C4" d="M47 20h1v1h-1zM48 20h1v1h-1zM49 20h1v1h-1z"/><path fill="#92D1D3" d="M50 20h1v1h-1zM51 20h1v1h-1zM52 20h1v1h-1zM53 20h1v1h-1zM54 20h1v1h-1zM55 20h1v1h-1zM56 20h1v1h-1zM57 20h1v1h-1zM58 20h1v1h-1zM59 20h1v1h-1zM60 20h1v1h-1z"/><path fill="#7CC5C8" d="M61 20h1v1h-1z"/><path fill="#75C1C4" d="M62 20h1v1h-1zM63 20h1v1h-1z"/><path fill="#77C2C5" d="M64 20h1v1h-1z"/><path fill="#75C1C4" d="M65 20h1v1h-1zM66 20h1v1h-1zM67 20h1v1h-1z"/><path fill="#83C8CB" d="M68 20h1v1h-1z"/><path fill="#BAE2E8" d="M69 20h1v1h-1z"/><path fill="#C7E7ED" d="M70 20h1v1h-1z"/><path fill="#D4ECF1" d="M71 20h1v1h-1z"/><path fill="#DAEFF2" d="M72 20h1v1h-1z"/><path fill="#E0F1F4" d="M73 20h1v1h-1zM74 20h1v1h-1zM75 20h1v1h-1zM76 20h1v1h-1zM77 20h1v1h-1zM78 20h1v1h-1zM79 20h1v1h-1zM80 20h1v1h-1zM81 20h1v1h-1zM82 20h1v1h-1z"/><path fill="#CAE8EE" d="M83 20h1v1h-1z"/><path fill="#AEDDE6" d="M84 20h1v1h-1z"/><path fill="#697B7E" d="M85 20h1v1h-1z"/><path fill="#231815" d="M86 20h1v1h-1zM87 20h1v1h-1zM88 20h1v1h-1zM25 21h1v1h-1zM26 21h1v1h-1zM27 21h1v1h-1zM28 21h1v1h-1zM29 21h1v1h-1z"/><path fill="#546968" d="M30 21h1v1h-1z"/><path fill="#92D1D3" d="M31 21h1v1h-1zM32 21h1v1h-1zM33 21h1v1h-1zM34 21h1v1h-1zM35 21h1v1h-1zM36 21h1v1h-1zM37 21h1v1h-1zM38 21h1v1h-1zM39 21h1v1h-1zM40 21h1v1h-1zM41 21h1v1h-1zM42 21h1v1h-1zM43 21h1v1h-1zM44 21h1v1h-1zM45 21h1v1h-1zM46 21h1v1h-1z"/><path fill="#75C1C4" d="M47 21h1v1h-1zM48 21h1v1h-1zM49 21h1v1h-1z"/><path fill="#92D1D3" d="M50 21h1v1h-1zM51 21h1v1h-1zM52 21h1v1h-1zM53 21h1v1h-1zM54 21h1v1h-1zM55 21h1v1h-1zM56 21h1v1h-1zM57 21h1v1h-1zM58 21h1v1h-1zM59 21h1v1h-1zM60 21h1v1h-1z"/><path fill="#75C1C4" d="M61 21h1v1h-1zM62 21h1v1h-1zM63 21h1v1h-1zM64 21h1v1h-1zM65 21h1v1h-1zM66 21h1v1h-1z"/><path fill="#9DD3D6" d="M67 21h1v1h-1z"/><path fill="#D9EEF1" d="M68 21h1v1h-1z"/><path fill="#E0F1F4" d="M69 21h1v1h-1zM70 21h1v1h-1zM71 21h1v1h-1zM72 21h1v1h-1zM73 21h1v1h-1zM74 21h1v1h-1zM75 21h1v1h-1zM76 21h1v1h-1zM77 21h1v1h-1zM78 21h1v1h-1zM79 21h1v1h-1zM80 21h1v1h-1zM81 21h1v1h-1zM82 21h1v1h-1z"/><path fill="#CDEAEF" d="M83 21h1v1h-1z"/><path fill="#AEDDE6" d="M84 21h1v1h-1z"/><path fill="#4E5656" d="M85 21h1v1h-1z"/><path fill="#231815" d="M86 21h1v1h-1zM87 21h1v1h-1zM88 21h1v1h-1zM24 22h1v1h-1zM25 22h1v1h-1zM26 22h1v1h-1zM27 22h1v1h-1zM28 22h1v1h-1z"/><path fill="#688C8C" d="M29 22h1v1h-1z"/><path fill="#92D1D3" d="M30 22h1v1h-1zM31 22h1v1h-1zM32 22h1v1h-1zM33 22h1v1h-1zM34 22h1v1h-1zM35 22h1v1h-1zM36 22h1v1h-1zM37 22h1v1h-1zM38 22h1v1h-1zM39 22h1v1h-1zM40 22h1v1h-1zM41 22h1v1h-1zM42 22h1v1h-1zM43 22h1v1h-1zM44 22h1v1h-1zM45 22h1v1h-1zM46 22h1v1h-1z"/><path fill="#75C1C4" d="M47 22h1v1h-1zM48 22h1v1h-1zM49 22h1v1h-1z"/><path fill="#92D1D3" d="M50 22h1v1h-1zM51 22h1v1h-1zM52 22h1v1h-1zM53 22h1v1h-1zM54 22h1v1h-1zM55 22h1v1h-1zM56 22h1v1h-1zM57 22h1v1h-1zM58 22h1v1h-1zM59 22h1v1h-1z"/><path fill="#90D0D2" d="M60 22h1v1h-1z"/><path fill="#75C1C4" d="M61 22h1v1h-1zM62 22h1v1h-1zM63 22h1v1h-1zM64 22h1v1h-1zM65 22h1v1h-1z"/><path fill="#A4D6D9" d="M66 22h1v1h-1z"/><path fill="#E0F1F4" d="M67 22h1v1h-1zM68 22h1v1h-1zM69 22h1v1h-1zM70 22h1v1h-1zM71 22h1v1h-1zM72 22h1v1h-1zM73 22h1v1h-1zM74 22h1v1h-1zM75 22h1v1h-1zM76 22h1v1h-1zM77 22h1v1h-1zM78 22h1v1h-1zM79 22h1v1h-1zM80 22h1v1h-1zM81 22h1v1h-1zM82 22h1v1h-1z"/><path fill="#C1E5EB" d="M83 22h1v1h-1z"/><path fill="#AEDDE6" d="M84 22h1v1h-1z"/><path fill="#34312F" d="M85 22h1v1h-1z"/><path fill="#231815" d="M86 22h1v1h-1zM87 22h1v1h-1zM88 22h1v1h-1zM24 23h1v1h-1zM25 23h1v1h-1zM26 23h1v1h-1zM27 23h1v1h-1z"/><path fill="#688C8C" d="M28 23h1v1h-1z"/><path fill="#92D1D3" d="M29 23h1v1h-1zM30 23h1v1h-1zM31 23h1v1h-1zM32 23h1v1h-1zM33 23h1v1h-1zM34 23h1v1h-1zM35 23h1v1h-1zM36 23h1v1h-1zM37 23h1v1h-1zM38 23h1v1h-1zM39 23h1v1h-1zM40 23h1v1h-1zM41 23h1v1h-1zM42 23h1v1h-1zM43 23h1v1h-1zM44 23h1v1h-1zM45 23h1v1h-1zM46 23h1v1h-1z"/><path fill="#75C1C4" d="M47 23h1v1h-1zM48 23h1v1h-1zM49 23h1v1h-1z"/><path fill="#92D1D3" d="M50 23h1v1h-1zM51 23h1v1h-1zM52 23h1v1h-1zM53 23h1v1h-1zM54 23h1v1h-1zM55 23h1v1h-1zM56 23h1v1h-1zM57 23h1v1h-1zM58 23h1v1h-1zM59 23h1v1h-1z"/><path fill="#85CACC" d="M60 23h1v1h-1z"/><path fill="#75C1C4" d="M61 23h1v1h-1zM62 23h1v1h-1zM63 23h1v1h-1zM64 23h1v1h-1z"/><path fill="#B8DFE2" d="M65 23h1v1h-1z"/><path fill="#E0F1F4" d="M66 23h1v1h-1zM67 23h1v1h-1zM68 23h1v1h-1zM69 23h1v1h-1zM70 23h1v1h-1zM71 23h1v1h-1zM72 23h1v1h-1zM73 23h1v1h-1zM74 23h1v1h-1zM75 23h1v1h-1zM76 23h1v1h-1zM77 23h1v1h-1zM78 23h1v1h-1zM79 23h1v1h-1zM80 23h1v1h-1zM81 23h1v1h-1zM82 23h1v1h-1z"/><path fill="#B4E0E8" d="M83 23h1v1h-1z"/><path fill="#9DC4CC" d="M84 23h1v1h-1z"/><path fill="#231815" d="M85 23h1v1h-1zM86 23h1v1h-1zM87 23h1v1h-1zM23 24h1v1h-1zM24 24h1v1h-1zM25 24h1v1h-1zM26 24h1v1h-1z"/><path fill="#4D5D5C" d="M27 24h1v1h-1z"/><path fill="#92D1D3" d="M28 24h1v1h-1zM29 24h1v1h-1zM30 24h1v1h-1zM31 24h1v1h-1zM32 24h1v1h-1z"/><path fill="#8DCED0" d="M33 24h1v1h-1z"/><path fill="#8ECFD1" d="M34 24h1v1h-1z"/><path fill="#92D1D3" d="M35 24h1v1h-1zM36 24h1v1h-1zM37 24h1v1h-1zM38 24h1v1h-1zM39 24h1v1h-1zM40 24h1v1h-1zM41 24h1v1h-1zM42 24h1v1h-1zM43 24h1v1h-1zM44 24h1v1h-1zM45 24h1v1h-1zM46 24h1v1h-1z"/><path fill="#75C1C4" d="M47 24h1v1h-1zM48 24h1v1h-1zM49 24h1v1h-1z"/><path fill="#92D1D3" d="M50 24h1v1h-1zM51 24h1v1h-1zM52 24h1v1h-1zM53 24h1v1h-1zM54 24h1v1h-1zM55 24h1v1h-1zM56 24h1v1h-1zM57 24h1v1h-1zM58 24h1v1h-1z"/><path fill="#80C7CA" d="M59 24h1v1h-1z"/><path fill="#75C1C4" d="M60 24h1v1h-1zM61 24h1v1h-1zM62 24h1v1h-1z"/><path fill="#7CC4C7" d="M63 24h1v1h-1z"/><path fill="#C5E5E8" d="M64 24h1v1h-1z"/><path fill="#E0F1F4" d="M65 24h1v1h-1zM66 24h1v1h-1zM67 24h1v1h-1zM68 24h1v1h-1zM69 24h1v1h-1zM70 24h1v1h-1zM71 24h1v1h-1zM72 24h1v1h-1zM73 24h1v1h-1zM74 24h1v1h-1zM75 24h1v1h-1zM76 24h1v1h-1zM77 24h1v1h-1zM78 24h1v1h-1zM79 24h1v1h-1zM80 24h1v1h-1zM81 24h1v1h-1z"/><path fill="#D7EDF1" d="M82 24h1v1h-1z"/><path fill="#AEDDE6" d="M83 24h1v1h-1z"/><path fill="#7A9398" d="M84 24h1v1h-1z"/><path fill="#231815" d="M85 24h1v1h-1zM86 24h1v1h-1zM87 24h1v1h-1zM22 25h1v1h-1zM23 25h1v1h-1zM24 25h1v1h-1zM25 25h1v1h-1z"/><path fill="#4D5D5C" d="M26 25h1v1h-1z"/><path fill="#92D1D3" d="M27 25h1v1h-1zM28 25h1v1h-1zM29 25h1v1h-1zM30 25h1v1h-1zM31 25h1v1h-1z"/><path fill="#85CACC" d="M32 25h1v1h-1z"/><path fill="#75C1C4" d="M33 25h1v1h-1zM34 25h1v1h-1z"/><path fill="#8ECFD1" d="M35 25h1v1h-1z"/><path fill="#92D1D3" d="M36 25h1v1h-1zM37 25h1v1h-1zM38 25h1v1h-1zM39 25h1v1h-1zM40 25h1v1h-1zM41 25h1v1h-1zM42 25h1v1h-1zM43 25h1v1h-1zM44 25h1v1h-1zM45 25h1v1h-1zM46 25h1v1h-1z"/><path fill="#75C1C4" d="M47 25h1v1h-1zM48 25h1v1h-1zM49 25h1v1h-1z"/><path fill="#92D1D3" d="M50 25h1v1h-1zM51 25h1v1h-1zM52 25h1v1h-1zM53 25h1v1h-1zM54 25h1v1h-1zM55 25h1v1h-1zM56 25h1v1h-1z"/><path fill="#90D0D2" d="M57 25h1v1h-1z"/><path fill="#7EC6C9" d="M58 25h1v1h-1z"/><path fill="#75C1C4" d="M59 25h1v1h-1zM60 25h1v1h-1zM61 25h1v1h-1z"/><path fill="#89CACD" d="M62 25h1v1h-1z"/><path fill="#CCE8EB" d="M63 25h1v1h-1z"/><path fill="#E0F1F4" d="M64 25h1v1h-1zM65 25h1v1h-1zM66 25h1v1h-1zM67 25h1v1h-1zM68 25h1v1h-1zM69 25h1v1h-1zM70 25h1v1h-1zM71 25h1v1h-1zM72 25h1v1h-1zM73 25h1v1h-1zM74 25h1v1h-1zM75 25h1v1h-1zM76 25h1v1h-1zM77 25h1v1h-1zM78 25h1v1h-1zM79 25h1v1h-1zM80 25h1v1h-1zM81 25h1v1h-1z"/><path fill="#C4E6EC" d="M82 25h1v1h-1z"/><path fill="#AEDDE6" d="M83 25h1v1h-1z"/><path fill="#576263" d="M84 25h1v1h-1z"/><path fill="#231815" d="M85 25h1v1h-1zM86 25h1v1h-1zM87 25h1v1h-1zM21 26h1v1h-1zM22 26h1v1h-1zM23 26h1v1h-1zM24 26h1v1h-1z"/><path fill="#3F4645" d="M25 26h1v1h-1z"/><path fill="#92D1D3" d="M26 26h1v1h-1zM27 26h1v1h-1zM28 26h1v1h-1zM29 26h1v1h-1zM30 26h1v1h-1zM31 26h1v1h-1z"/><path fill="#7EC6C9" d="M32 26h1v1h-1z"/><path fill="#75C1C4" d="M33 26h1v1h-1zM34 26h1v1h-1z"/><path fill="#89CCCE" d="M35 26h1v1h-1z"/><path fill="#92D1D3" d="M36 26h1v1h-1zM37 26h1v1h-1zM38 26h1v1h-1zM39 26h1v1h-1zM40 26h1v1h-1zM41 26h1v1h-1zM42 26h1v1h-1zM43 26h1v1h-1zM44 26h1v1h-1zM45 26h1v1h-1zM46 26h1v1h-1z"/><path fill="#75C1C4" d="M47 26h1v1h-1zM48 26h1v1h-1zM49 26h1v1h-1z"/><path fill="#92D1D3" d="M50 26h1v1h-1zM51 26h1v1h-1zM52 26h1v1h-1zM53 26h1v1h-1zM54 26h1v1h-1zM55 26h1v1h-1z"/><path fill="#90D0D2" d="M56 26h1v1h-1z"/><path fill="#7AC4C7" d="M57 26h1v1h-1z"/><path fill="#75C1C4" d="M58 26h1v1h-1zM59 26h1v1h-1zM60 26h1v1h-1z"/><path fill="#89CACD" d="M61 26h1v1h-1z"/><path fill="#D9EEF1" d="M62 26h1v1h-1z"/><path fill="#E0F1F4" d="M63 26h1v1h-1zM64 26h1v1h-1zM65 26h1v1h-1zM66 26h1v1h-1zM67 26h1v1h-1zM68 26h1v1h-1zM69 26h1v1h-1zM70 26h1v1h-1zM71 26h1v1h-1zM72 26h1v1h-1zM73 26h1v1h-1zM74 26h1v1h-1zM75 26h1v1h-1zM76 26h1v1h-1zM77 26h1v1h-1zM78 26h1v1h-1zM79 26h1v1h-1zM80 26h1v1h-1zM81 26h1v1h-1z"/><path fill="#B4E0E8" d="M82 26h1v1h-1z"/><path fill="#AEDDE6" d="M83 26h1v1h-1z"/><path fill="#34312F" d="M84 26h1v1h-1z"/><path fill="#231815" d="M85 26h1v1h-1zM86 26h1v1h-1zM87 26h1v1h-1zM20 27h1v1h-1zM21 27h1v1h-1zM22 27h1v1h-1zM23 27h1v1h-1z"/><path fill="#312F2D" d="M24 27h1v1h-1z"/><path fill="#8BC5C7" d="M25 27h1v1h-1z"/><path fill="#92D1D3" d="M26 27h1v1h-1zM27 27h1v1h-1zM28 27h1v1h-1zM29 27h1v1h-1zM30 27h1v1h-1zM31 27h1v1h-1z"/><path fill="#84C9CC" d="M32 27h1v1h-1z"/><path fill="#75C1C4" d="M33 27h1v1h-1zM34 27h1v1h-1z"/><path fill="#84C9CC" d="M35 27h1v1h-1z"/><path fill="#92D1D3" d="M36 27h1v1h-1zM37 27h1v1h-1zM38 27h1v1h-1zM39 27h1v1h-1zM40 27h1v1h-1zM41 27h1v1h-1zM42 27h1v1h-1zM43 27h1v1h-1zM44 27h1v1h-1zM45 27h1v1h-1zM46 27h1v1h-1z"/><path fill="#75C1C4" d="M47 27h1v1h-1zM48 27h1v1h-1zM49 27h1v1h-1z"/><path fill="#92D1D3" d="M50 27h1v1h-1zM51 27h1v1h-1zM52 27h1v1h-1zM53 27h1v1h-1zM54 27h1v1h-1z"/><path fill="#8DCED0" d="M55 27h1v1h-1z"/><path fill="#77C2C5" d="M56 27h1v1h-1z"/><path fill="#75C1C4" d="M57 27h1v1h-1zM58 27h1v1h-1zM59 27h1v1h-1z"/><path fill="#9DD3D6" d="M60 27h1v1h-1z"/><path fill="#E0F1F4" d="M61 27h1v1h-1zM62 27h1v1h-1zM63 27h1v1h-1zM64 27h1v1h-1zM65 27h1v1h-1zM66 27h1v1h-1zM67 27h1v1h-1zM68 27h1v1h-1zM69 27h1v1h-1zM70 27h1v1h-1zM71 27h1v1h-1zM72 27h1v1h-1zM73 27h1v1h-1zM74 27h1v1h-1zM75 27h1v1h-1zM76 27h1v1h-1zM77 27h1v1h-1zM78 27h1v1h-1zM79 27h1v1h-1zM80 27h1v1h-1z"/><path fill="#D7EDF1" d="M81 27h1v1h-1z"/><path fill="#AEDDE6" d="M82 27h1v1h-1z"/><path fill="#94B8BF" d="M83 27h1v1h-1z"/><path fill="#231815" d="M84 27h1v1h-1zM85 27h1v1h-1zM86 27h1v1h-1zM20 28h1v1h-1zM21 28h1v1h-1zM22 28h1v1h-1z"/><path fill="#2A2421" d="M23 28h1v1h-1z"/><path fill="#7DAEAF" d="M24 28h1v1h-1z"/><path fill="#92D1D3" d="M25 28h1v1h-1zM26 28h1v1h-1zM27 28h1v1h-1zM28 28h1v1h-1zM29 28h1v1h-1zM30 28h1v1h-1zM31 28h1v1h-1z"/><path fill="#84C9CC" d="M32 28h1v1h-1z"/><path fill="#75C1C4" d="M33 28h1v1h-1zM34 28h1v1h-1z"/><path fill="#84C9CC" d="M35 28h1v1h-1z"/><path fill="#92D1D3" d="M36 28h1v1h-1zM37 28h1v1h-1zM38 28h1v1h-1zM39 28h1v1h-1zM40 28h1v1h-1zM41 28h1v1h-1zM42 28h1v1h-1zM43 28h1v1h-1zM44 28h1v1h-1zM45 28h1v1h-1zM46 28h1v1h-1z"/><path fill="#75C1C4" d="M47 28h1v1h-1zM48 28h1v1h-1zM49 28h1v1h-1z"/><path fill="#92D1D3" d="M50 28h1v1h-1zM51 28h1v1h-1zM52 28h1v1h-1zM53 28h1v1h-1z"/><path fill="#89CCCE" d="M54 28h1v1h-1z"/><path fill="#77C2C5" d="M55 28h1v1h-1z"/><path fill="#75C1C4" d="M56 28h1v1h-1zM57 28h1v1h-1zM58 28h1v1h-1z"/><path fill="#ABD9DC" d="M59 28h1v1h-1z"/><path fill="#E0F1F4" d="M60 28h1v1h-1zM61 28h1v1h-1zM62 28h1v1h-1zM63 28h1v1h-1zM64 28h1v1h-1zM65 28h1v1h-1zM66 28h1v1h-1z"/><path fill="#D4ECF1" d="M67 28h1v1h-1zM68 28h1v1h-1zM69 28h1v1h-1z"/><path fill="#C7E7ED" d="M70 28h1v1h-1zM71 28h1v1h-1zM72 28h1v1h-1zM73 28h1v1h-1z"/><path fill="#BEE3EA" d="M74 28h1v1h-1z"/><path fill="#BBE2EA" d="M75 28h1v1h-1zM76 28h1v1h-1zM77 28h1v1h-1zM78 28h1v1h-1zM79 28h1v1h-1zM80 28h1v1h-1z"/><path fill="#B4E0E8" d="M81 28h1v1h-1z"/><path fill="#AEDDE6" d="M82 28h1v1h-1z"/><path fill="#71878B" d="M83 28h1v1h-1z"/><path fill="#231815" d="M84 28h1v1h-1zM85 28h1v1h-1zM86 28h1v1h-1zM19 29h1v1h-1zM20 29h1v1h-1zM21 29h1v1h-1zM22 29h1v1h-1z"/><path fill="#688C8C" d="M23 29h1v1h-1z"/><path fill="#92D1D3" d="M24 29h1v1h-1zM25 29h1v1h-1zM26 29h1v1h-1zM27 29h1v1h-1zM28 29h1v1h-1zM29 29h1v1h-1zM30 29h1v1h-1zM31 29h1v1h-1z"/><path fill="#84C9CC" d="M32 29h1v1h-1z"/><path fill="#75C1C4" d="M33 29h1v1h-1zM34 29h1v1h-1z"/><path fill="#84C9CC" d="M35 29h1v1h-1z"/><path fill="#92D1D3" d="M36 29h1v1h-1zM37 29h1v1h-1zM38 29h1v1h-1zM39 29h1v1h-1zM40 29h1v1h-1zM41 29h1v1h-1zM42 29h1v1h-1zM43 29h1v1h-1zM44 29h1v1h-1zM45 29h1v1h-1zM46 29h1v1h-1z"/><path fill="#75C1C4" d="M47 29h1v1h-1zM48 29h1v1h-1zM49 29h1v1h-1z"/><path fill="#92D1D3" d="M50 29h1v1h-1zM51 29h1v1h-1zM52 29h1v1h-1z"/><path fill="#87CBCD" d="M53 29h1v1h-1z"/><path fill="#75C1C4" d="M54 29h1v1h-1zM55 29h1v1h-1zM56 29h1v1h-1zM57 29h1v1h-1z"/><path fill="#B5DEE1" d="M58 29h1v1h-1z"/><path fill="#D4ECF1" d="M59 29h1v1h-1z"/><path fill="#CAE8EE" d="M60 29h1v1h-1z"/><path fill="#C7E7ED" d="M61 29h1v1h-1z"/><path fill="#BEE3EA" d="M62 29h1v1h-1z"/><path fill="#BBE2EA" d="M63 29h1v1h-1z"/><path fill="#B4E0E8" d="M64 29h1v1h-1z"/><path fill="#AEDDE6" d="M65 29h1v1h-1zM66 29h1v1h-1zM67 29h1v1h-1zM68 29h1v1h-1zM69 29h1v1h-1zM70 29h1v1h-1zM71 29h1v1h-1zM72 29h1v1h-1zM73 29h1v1h-1zM74 29h1v1h-1zM75 29h1v1h-1zM76 29h1v1h-1zM77 29h1v1h-1zM78 29h1v1h-1zM79 29h1v1h-1zM80 29h1v1h-1zM81 29h1v1h-1zM82 29h1v1h-1z"/><path fill="#3D3D3C" d="M83 29h1v1h-1z"/><path fill="#231815" d="M84 29h1v1h-1zM85 29h1v1h-1zM86 29h1v1h-1zM18 30h1v1h-1zM19 30h1v1h-1zM20 30h1v1h-1zM21 30h1v1h-1z"/><path fill="#465250" d="M22 30h1v1h-1z"/><path fill="#92D1D3" d="M23 30h1v1h-1zM24 30h1v1h-1zM25 30h1v1h-1zM26 30h1v1h-1zM27 30h1v1h-1zM28 30h1v1h-1zM29 30h1v1h-1zM30 30h1v1h-1zM31 30h1v1h-1z"/><path fill="#84C9CC" d="M32 30h1v1h-1z"/><path fill="#75C1C4" d="M33 30h1v1h-1zM34 30h1v1h-1z"/><path fill="#84C9CC" d="M35 30h1v1h-1z"/><path fill="#92D1D3" d="M36 30h1v1h-1zM37 30h1v1h-1zM38 30h1v1h-1zM39 30h1v1h-1zM40 30h1v1h-1zM41 30h1v1h-1zM42 30h1v1h-1zM43 30h1v1h-1zM44 30h1v1h-1zM45 30h1v1h-1zM46 30h1v1h-1z"/><path fill="#75C1C4" d="M47 30h1v1h-1zM48 30h1v1h-1zM49 30h1v1h-1z"/><path fill="#92D1D3" d="M50 30h1v1h-1zM51 30h1v1h-1z"/><path fill="#80C7CA" d="M52 30h1v1h-1z"/><path fill="#75C1C4" d="M53 30h1v1h-1zM54 30h1v1h-1zM55 30h1v1h-1z"/><path fill="#79C3C6" d="M56 30h1v1h-1z"/><path fill="#A3D8E0" d="M57 30h1v1h-1z"/><path fill="#AEDDE6" d="M58 30h1v1h-1zM59 30h1v1h-1zM60 30h1v1h-1zM61 30h1v1h-1zM62 30h1v1h-1zM63 30h1v1h-1zM64 30h1v1h-1zM65 30h1v1h-1zM66 30h1v1h-1zM67 30h1v1h-1zM68 30h1v1h-1zM69 30h1v1h-1zM70 30h1v1h-1zM71 30h1v1h-1zM72 30h1v1h-1zM73 30h1v1h-1zM74 30h1v1h-1zM75 30h1v1h-1zM76 30h1v1h-1zM77 30h1v1h-1zM78 30h1v1h-1zM79 30h1v1h-1zM80 30h1v1h-1zM81 30h1v1h-1z"/><path fill="#9DC4CC" d="M82 30h1v1h-1z"/><path fill="#231815" d="M83 30h1v1h-1zM84 30h1v1h-1zM85 30h1v1h-1zM86 30h1v1h-1zM18 31h1v1h-1zM19 31h1v1h-1zM20 31h1v1h-1z"/><path fill="#2A2421" d="M21 31h1v1h-1z"/><path fill="#8BC5C7" d="M22 31h1v1h-1z"/><path fill="#92D1D3" d="M23 31h1v1h-1zM24 31h1v1h-1zM25 31h1v1h-1zM26 31h1v1h-1zM27 31h1v1h-1zM28 31h1v1h-1zM29 31h1v1h-1zM30 31h1v1h-1zM31 31h1v1h-1z"/><path fill="#84C9CC" d="M32 31h1v1h-1z"/><path fill="#75C1C4" d="M33 31h1v1h-1zM34 31h1v1h-1z"/><path fill="#84C9CC" d="M35 31h1v1h-1z"/><path fill="#92D1D3" d="M36 31h1v1h-1zM37 31h1v1h-1zM38 31h1v1h-1zM39 31h1v1h-1zM40 31h1v1h-1zM41 31h1v1h-1zM42 31h1v1h-1zM43 31h1v1h-1zM44 31h1v1h-1zM45 31h1v1h-1zM46 31h1v1h-1z"/><path fill="#75C1C4" d="M47 31h1v1h-1zM48 31h1v1h-1zM49 31h1v1h-1z"/><path fill="#90D0D2" d="M50 31h1v1h-1z"/><path fill="#7EC6C9" d="M51 31h1v1h-1z"/><path fill="#75C1C4" d="M52 31h1v1h-1zM53 31h1v1h-1zM54 31h1v1h-1z"/><path fill="#80C6CA" d="M55 31h1v1h-1z"/><path fill="#A3D8E0" d="M56 31h1v1h-1z"/><path fill="#AEDDE6" d="M57 31h1v1h-1zM58 31h1v1h-1zM59 31h1v1h-1zM60 31h1v1h-1zM61 31h1v1h-1zM62 31h1v1h-1zM63 31h1v1h-1zM64 31h1v1h-1zM65 31h1v1h-1zM66 31h1v1h-1z"/><path fill="#B7E1E9" d="M67 31h1v1h-1z"/><path fill="#BBE2EA" d="M68 31h1v1h-1zM69 31h1v1h-1z"/><path fill="#C4E6EC" d="M70 31h1v1h-1z"/><path fill="#C7E7ED" d="M71 31h1v1h-1zM72 31h1v1h-1zM73 31h1v1h-1z"/><path fill="#CDEAEF" d="M74 31h1v1h-1z"/><path fill="#D4ECF1" d="M75 31h1v1h-1zM76 31h1v1h-1zM77 31h1v1h-1zM78 31h1v1h-1zM79 31h1v1h-1z"/><path fill="#B1DEE7" d="M80 31h1v1h-1z"/><path fill="#AEDDE6" d="M81 31h1v1h-1z"/><path fill="#697B7E" d="M82 31h1v1h-1z"/><path fill="#231815" d="M83 31h1v1h-1zM84 31h1v1h-1zM85 31h1v1h-1zM17 32h1v1h-1zM18 32h1v1h-1zM19 32h1v1h-1zM20 32h1v1h-1z"/><path fill="#6F9798" d="M21 32h1v1h-1z"/><path fill="#92D1D3" d="M22 32h1v1h-1zM23 32h1v1h-1zM24 32h1v1h-1zM25 32h1v1h-1zM26 32h1v1h-1zM27 32h1v1h-1zM28 32h1v1h-1zM29 32h1v1h-1zM30 32h1v1h-1zM31 32h1v1h-1z"/><path fill="#84C9CC" d="M32 32h1v1h-1z"/><path fill="#75C1C4" d="M33 32h1v1h-1zM34 32h1v1h-1z"/><path fill="#84C9CC" d="M35 32h1v1h-1z"/><path fill="#92D1D3" d="M36 32h1v1h-1zM37 32h1v1h-1zM38 32h1v1h-1zM39 32h1v1h-1zM40 32h1v1h-1zM41 32h1v1h-1zM42 32h1v1h-1zM43 32h1v1h-1zM44 32h1v1h-1zM45 32h1v1h-1zM46 32h1v1h-1z"/><path fill="#75C1C4" d="M47 32h1v1h-1zM48 32h1v1h-1zM49 32h1v1h-1z"/><path fill="#7AC4C7" d="M50 32h1v1h-1z"/><path fill="#75C1C4" d="M51 32h1v1h-1zM52 32h1v1h-1zM53 32h1v1h-1z"/><path fill="#80C6CA" d="M54 32h1v1h-1z"/><path fill="#AADBE4" d="M55 32h1v1h-1z"/><path fill="#AEDDE6" d="M56 32h1v1h-1zM57 32h1v1h-1zM58 32h1v1h-1z"/><path fill="#BBE2EA" d="M59 32h1v1h-1z"/><path fill="#BEE3EA" d="M60 32h1v1h-1z"/><path fill="#C7E7ED" d="M61 32h1v1h-1z"/><path fill="#CAE8EE" d="M62 32h1v1h-1z"/><path fill="#D4ECF1" d="M63 32h1v1h-1z"/><path fill="#D7EDF1" d="M64 32h1v1h-1z"/><path fill="#E0F1F4" d="M65 32h1v1h-1zM66 32h1v1h-1zM67 32h1v1h-1zM68 32h1v1h-1zM69 32h1v1h-1zM70 32h1v1h-1zM71 32h1v1h-1zM72 32h1v1h-1zM73 32h1v1h-1zM74 32h1v1h-1zM75 32h1v1h-1zM76 32h1v1h-1zM77 32h1v1h-1zM78 32h1v1h-1z"/><path fill="#CDEAEF" d="M79 32h1v1h-1z"/><path fill="#AEDDE6" d="M80 32h1v1h-1zM81 32h1v1h-1z"/><path fill="#34312F" d="M82 32h1v1h-1z"/><path fill="#231815" d="M83 32h1v1h-1zM84 32h1v1h-1zM85 32h1v1h-1zM16 33h1v1h-1zM17 33h1v1h-1zM18 33h1v1h-1zM19 33h1v1h-1z"/><path fill="#465250" d="M20 33h1v1h-1z"/><path fill="#92D1D3" d="M21 33h1v1h-1zM22 33h1v1h-1zM23 33h1v1h-1zM24 33h1v1h-1zM25 33h1v1h-1zM26 33h1v1h-1zM27 33h1v1h-1zM28 33h1v1h-1zM29 33h1v1h-1zM30 33h1v1h-1zM31 33h1v1h-1z"/><path fill="#84C9CC" d="M32 33h1v1h-1z"/><path fill="#75C1C4" d="M33 33h1v1h-1zM34 33h1v1h-1z"/><path fill="#84C9CC" d="M35 33h1v1h-1z"/><path fill="#92D1D3" d="M36 33h1v1h-1zM37 33h1v1h-1zM38 33h1v1h-1zM39 33h1v1h-1zM40 33h1v1h-1zM41 33h1v1h-1zM42 33h1v1h-1zM43 33h1v1h-1zM44 33h1v1h-1zM45 33h1v1h-1zM46 33h1v1h-1z"/><path fill="#75C1C4" d="M47 33h1v1h-1zM48 33h1v1h-1zM49 33h1v1h-1zM50 33h1v1h-1zM51 33h1v1h-1zM52 33h1v1h-1z"/><path fill="#8ACCD1" d="M53 33h1v1h-1z"/><path fill="#BBE2EA" d="M54 33h1v1h-1z"/><path fill="#C7E7ED" d="M55 33h1v1h-1z"/><path fill="#D0EBF0" d="M56 33h1v1h-1z"/><path fill="#DAEFF2" d="M57 33h1v1h-1z"/><path fill="#E0F1F4" d="M58 33h1v1h-1zM59 33h1v1h-1zM60 33h1v1h-1zM61 33h1v1h-1zM62 33h1v1h-1zM63 33h1v1h-1zM64 33h1v1h-1zM65 33h1v1h-1zM66 33h1v1h-1zM67 33h1v1h-1zM68 33h1v1h-1zM69 33h1v1h-1zM70 33h1v1h-1zM71 33h1v1h-1zM72 33h1v1h-1zM73 33h1v1h-1zM74 33h1v1h-1zM75 33h1v1h-1zM76 33h1v1h-1zM77 33h1v1h-1zM78 33h1v1h-1z"/><path fill="#B4E0E8" d="M79 33h1v1h-1z"/><path fill="#AEDDE6" d="M80 33h1v1h-1z"/><path fill="#8BACB2" d="M81 33h1v1h-1z"/><path fill="#231815" d="M82 33h1v1h-1zM83 33h1v1h-1zM84 33h1v1h-1zM85 33h1v1h-1zM16 34h1v1h-1zM17 34h1v1h-1zM18 34h1v1h-1z"/><path fill="#2A2421" d="M19 34h1v1h-1z"/><path fill="#84BABB" d="M20 34h1v1h-1z"/><path fill="#92D1D3" d="M21 34h1v1h-1zM22 34h1v1h-1zM23 34h1v1h-1zM24 34h1v1h-1zM25 34h1v1h-1zM26 34h1v1h-1zM27 34h1v1h-1zM28 34h1v1h-1zM29 34h1v1h-1zM30 34h1v1h-1zM31 34h1v1h-1z"/><path fill="#84C9CC" d="M32 34h1v1h-1z"/><path fill="#75C1C4" d="M33 34h1v1h-1zM34 34h1v1h-1z"/><path fill="#84C9CC" d="M35 34h1v1h-1z"/><path fill="#92D1D3" d="M36 34h1v1h-1zM37 34h1v1h-1zM38 34h1v1h-1zM39 34h1v1h-1zM40 34h1v1h-1zM41 34h1v1h-1zM42 34h1v1h-1zM43 34h1v1h-1zM44 34h1v1h-1zM45 34h1v1h-1z"/><path fill="#90D0D2" d="M46 34h1v1h-1z"/><path fill="#75C1C4" d="M47 34h1v1h-1zM48 34h1v1h-1zM49 34h1v1h-1zM50 34h1v1h-1zM51 34h1v1h-1z"/><path fill="#ABD9DC" d="M52 34h1v1h-1z"/><path fill="#DDF0F3" d="M53 34h1v1h-1z"/><path fill="#E0F1F4" d="M54 34h1v1h-1zM55 34h1v1h-1zM56 34h1v1h-1zM57 34h1v1h-1zM58 34h1v1h-1zM59 34h1v1h-1zM60 34h1v1h-1zM61 34h1v1h-1zM62 34h1v1h-1zM63 34h1v1h-1zM64 34h1v1h-1zM65 34h1v1h-1zM66 34h1v1h-1zM67 34h1v1h-1zM68 34h1v1h-1zM69 34h1v1h-1zM70 34h1v1h-1zM71 34h1v1h-1zM72 34h1v1h-1zM73 34h1v1h-1zM74 34h1v1h-1zM75 34h1v1h-1zM76 34h1v1h-1zM77 34h1v1h-1z"/><path fill="#CDEAEF" d="M78 34h1v1h-1z"/><path fill="#AEDDE6" d="M79 34h1v1h-1zM80 34h1v1h-1z"/><path fill="#4E5656" d="M81 34h1v1h-1z"/><path fill="#231815" d="M82 34h1v1h-1zM83 34h1v1h-1zM84 34h1v1h-1zM15 35h1v1h-1zM16 35h1v1h-1zM17 35h1v1h-1zM18 35h1v1h-1z"/><path fill="#5B7574" d="M19 35h1v1h-1z"/><path fill="#92D1D3" d="M20 35h1v1h-1zM21 35h1v1h-1zM22 35h1v1h-1zM23 35h1v1h-1zM24 35h1v1h-1zM25 35h1v1h-1zM26 35h1v1h-1zM27 35h1v1h-1zM28 35h1v1h-1zM29 35h1v1h-1zM30 35h1v1h-1zM31 35h1v1h-1z"/><path fill="#84C9CC" d="M32 35h1v1h-1z"/><path fill="#75C1C4" d="M33 35h1v1h-1zM34 35h1v1h-1z"/><path fill="#84C9CC" d="M35 35h1v1h-1z"/><path fill="#92D1D3" d="M36 35h1v1h-1zM37 35h1v1h-1zM38 35h1v1h-1zM39 35h1v1h-1zM40 35h1v1h-1zM41 35h1v1h-1zM42 35h1v1h-1zM43 35h1v1h-1zM44 35h1v1h-1zM45 35h1v1h-1z"/><path fill="#84C9CC" d="M46 35h1v1h-1z"/><path fill="#75C1C4" d="M47 35h1v1h-1zM48 35h1v1h-1zM49 35h1v1h-1zM50 35h1v1h-1z"/><path fill="#B8DFE2" d="M51 35h1v1h-1z"/><path fill="#E0F1F4" d="M52 35h1v1h-1zM53 35h1v1h-1zM54 35h1v1h-1zM55 35h1v1h-1zM56 35h1v1h-1zM57 35h1v1h-1zM58 35h1v1h-1zM59 35h1v1h-1zM60 35h1v1h-1zM61 35h1v1h-1zM62 35h1v1h-1zM63 35h1v1h-1zM64 35h1v1h-1zM65 35h1v1h-1zM66 35h1v1h-1zM67 35h1v1h-1zM68 35h1v1h-1zM69 35h1v1h-1zM70 35h1v1h-1zM71 35h1v1h-1zM72 35h1v1h-1zM73 35h1v1h-1zM74 35h1v1h-1zM75 35h1v1h-1zM76 35h1v1h-1zM77 35h1v1h-1z"/><path fill="#B4E0E8" d="M78 35h1v1h-1z"/><path fill="#AEDDE6" d="M79 35h1v1h-1z"/><path fill="#9DC4CC" d="M80 35h1v1h-1z"/><path fill="#231815" d="M81 35h1v1h-1zM82 35h1v1h-1zM83 35h1v1h-1zM84 35h1v1h-1zM15 36h1v1h-1zM16 36h1v1h-1zM17 36h1v1h-1z"/><path fill="#312F2D" d="M18 36h1v1h-1z"/><path fill="#92D1D3" d="M19 36h1v1h-1zM20 36h1v1h-1zM21 36h1v1h-1zM22 36h1v1h-1zM23 36h1v1h-1zM24 36h1v1h-1zM25 36h1v1h-1zM26 36h1v1h-1zM27 36h1v1h-1zM28 36h1v1h-1zM29 36h1v1h-1zM30 36h1v1h-1zM31 36h1v1h-1z"/><path fill="#84C9CC" d="M32 36h1v1h-1z"/><path fill="#75C1C4" d="M33 36h1v1h-1zM34 36h1v1h-1z"/><path fill="#84C9CC" d="M35 36h1v1h-1z"/><path fill="#92D1D3" d="M36 36h1v1h-1zM37 36h1v1h-1zM38 36h1v1h-1zM39 36h1v1h-1zM40 36h1v1h-1zM41 36h1v1h-1zM42 36h1v1h-1zM43 36h1v1h-1zM44 36h1v1h-1z"/><path fill="#80C7CA" d="M45 36h1v1h-1z"/><path fill="#75C1C4" d="M46 36h1v1h-1zM47 36h1v1h-1zM48 36h1v1h-1z"/><path fill="#7CC4C7" d="M49 36h1v1h-1z"/><path fill="#CCE8EB" d="M50 36h1v1h-1z"/><path fill="#E0F1F4" d="M51 36h1v1h-1zM52 36h1v1h-1zM53 36h1v1h-1zM54 36h1v1h-1zM55 36h1v1h-1zM56 36h1v1h-1zM57 36h1v1h-1zM58 36h1v1h-1zM59 36h1v1h-1zM60 36h1v1h-1zM61 36h1v1h-1zM62 36h1v1h-1zM63 36h1v1h-1zM64 36h1v1h-1zM65 36h1v1h-1zM66 36h1v1h-1zM67 36h1v1h-1zM68 36h1v1h-1zM69 36h1v1h-1zM70 36h1v1h-1zM71 36h1v1h-1zM72 36h1v1h-1zM73 36h1v1h-1zM74 36h1v1h-1zM75 36h1v1h-1zM76 36h1v1h-1z"/><path fill="#CAE8EE" d="M77 36h1v1h-1z"/><path fill="#AEDDE6" d="M78 36h1v1h-1zM79 36h1v1h-1z"/><path fill="#606E70" d="M80 36h1v1h-1z"/><path fill="#231815" d="M81 36h1v1h-1zM82 36h1v1h-1zM83 36h1v1h-1zM14 37h1v1h-1zM15 37h1v1h-1zM16 37h1v1h-1zM17 37h1v1h-1z"/><path fill="#688C8C" d="M18 37h1v1h-1z"/><path fill="#92D1D3" d="M19 37h1v1h-1zM20 37h1v1h-1zM21 37h1v1h-1zM22 37h1v1h-1zM23 37h1v1h-1zM24 37h1v1h-1zM25 37h1v1h-1zM26 37h1v1h-1zM27 37h1v1h-1zM28 37h1v1h-1zM29 37h1v1h-1zM30 37h1v1h-1zM31 37h1v1h-1z"/><path fill="#84C9CC" d="M32 37h1v1h-1z"/><path fill="#75C1C4" d="M33 37h1v1h-1zM34 37h1v1h-1z"/><path fill="#84C9CC" d="M35 37h1v1h-1z"/><path fill="#92D1D3" d="M36 37h1v1h-1zM37 37h1v1h-1zM38 37h1v1h-1zM39 37h1v1h-1zM40 37h1v1h-1zM41 37h1v1h-1zM42 37h1v1h-1z"/><path fill="#90D0D2" d="M43 37h1v1h-1z"/><path fill="#7CC5C8" d="M44 37h1v1h-1z"/><path fill="#75C1C4" d="M45 37h1v1h-1zM46 37h1v1h-1zM47 37h1v1h-1z"/><path fill="#89CACD" d="M48 37h1v1h-1z"/><path fill="#CCE8EB" d="M49 37h1v1h-1z"/><path fill="#E0F1F4" d="M50 37h1v1h-1zM51 37h1v1h-1zM52 37h1v1h-1zM53 37h1v1h-1zM54 37h1v1h-1zM55 37h1v1h-1zM56 37h1v1h-1zM57 37h1v1h-1zM58 37h1v1h-1zM59 37h1v1h-1zM60 37h1v1h-1zM61 37h1v1h-1zM62 37h1v1h-1zM63 37h1v1h-1zM64 37h1v1h-1zM65 37h1v1h-1zM66 37h1v1h-1zM67 37h1v1h-1zM68 37h1v1h-1zM69 37h1v1h-1zM70 37h1v1h-1zM71 37h1v1h-1zM72 37h1v1h-1zM73 37h1v1h-1zM74 37h1v1h-1zM75 37h1v1h-1z"/><path fill="#DDF0F3" d="M76 37h1v1h-1z"/><path fill="#B1DEE7" d="M77 37h1v1h-1z"/><path fill="#AEDDE6" d="M78 37h1v1h-1z"/><path fill="#A5D1D9" d="M79 37h1v1h-1z"/><path fill="#2C2422" d="M80 37h1v1h-1z"/><path fill="#231815" d="M81 37h1v1h-1zM82 37h1v1h-1zM83 37h1v1h-1zM14 38h1v1h-1zM15 38h1v1h-1zM16 38h1v1h-1z"/><path fill="#312F2D" d="M17 38h1v1h-1z"/><path fill="#92D1D3" d="M18 38h1v1h-1zM19 38h1v1h-1zM20 38h1v1h-1zM21 38h1v1h-1zM22 38h1v1h-1zM23 38h1v1h-1zM24 38h1v1h-1zM25 38h1v1h-1zM26 38h1v1h-1zM27 38h1v1h-1zM28 38h1v1h-1zM29 38h1v1h-1zM30 38h1v1h-1zM31 38h1v1h-1z"/><path fill="#84C9CC" d="M32 38h1v1h-1z"/><path fill="#75C1C4" d="M33 38h1v1h-1zM34 38h1v1h-1z"/><path fill="#84C9CC" d="M35 38h1v1h-1z"/><path fill="#92D1D3" d="M36 38h1v1h-1zM37 38h1v1h-1zM38 38h1v1h-1zM39 38h1v1h-1zM40 38h1v1h-1zM41 38h1v1h-1z"/><path fill="#8ECFD1" d="M42 38h1v1h-1z"/><path fill="#7AC4C7" d="M43 38h1v1h-1z"/><path fill="#75C1C4" d="M44 38h1v1h-1zM45 38h1v1h-1zM46 38h1v1h-1z"/><path fill="#89CACD" d="M47 38h1v1h-1z"/><path fill="#D9EEF1" d="M48 38h1v1h-1z"/><path fill="#E0F1F4" d="M49 38h1v1h-1zM50 38h1v1h-1zM51 38h1v1h-1zM52 38h1v1h-1zM53 38h1v1h-1zM54 38h1v1h-1zM55 38h1v1h-1zM56 38h1v1h-1zM57 38h1v1h-1zM58 38h1v1h-1zM59 38h1v1h-1zM60 38h1v1h-1zM61 38h1v1h-1zM62 38h1v1h-1zM63 38h1v1h-1zM64 38h1v1h-1zM65 38h1v1h-1zM66 38h1v1h-1zM67 38h1v1h-1zM68 38h1v1h-1zM69 38h1v1h-1zM70 38h1v1h-1zM71 38h1v1h-1zM72 38h1v1h-1zM73 38h1v1h-1zM74 38h1v1h-1zM75 38h1v1h-1z"/><path fill="#BEE3EA" d="M76 38h1v1h-1z"/><path fill="#AEDDE6" d="M77 38h1v1h-1zM78 38h1v1h-1z"/><path fill="#697B7E" d="M79 38h1v1h-1z"/><path fill="#231815" d="M80 38h1v1h-1zM81 38h1v1h-1zM82 38h1v1h-1zM13 39h1v1h-1zM14 39h1v1h-1zM15 39h1v1h-1zM16 39h1v1h-1z"/><path fill="#688C8C" d="M17 39h1v1h-1z"/><path fill="#92D1D3" d="M18 39h1v1h-1zM19 39h1v1h-1zM20 39h1v1h-1zM21 39h1v1h-1zM22 39h1v1h-1zM23 39h1v1h-1zM24 39h1v1h-1zM25 39h1v1h-1zM26 39h1v1h-1zM27 39h1v1h-1zM28 39h1v1h-1zM29 39h1v1h-1zM30 39h1v1h-1zM31 39h1v1h-1z"/><path fill="#84C9CC" d="M32 39h1v1h-1z"/><path fill="#75C1C4" d="M33 39h1v1h-1zM34 39h1v1h-1z"/><path fill="#84C9CC" d="M35 39h1v1h-1z"/><path fill="#92D1D3" d="M36 39h1v1h-1zM37 39h1v1h-1zM38 39h1v1h-1zM39 39h1v1h-1zM40 39h1v1h-1z"/><path fill="#8DCED0" d="M41 39h1v1h-1z"/><path fill="#77C2C5" d="M42 39h1v1h-1z"/><path fill="#75C1C4" d="M43 39h1v1h-1zM44 39h1v1h-1zM45 39h1v1h-1z"/><path fill="#9DD3D6" d="M46 39h1v1h-1z"/><path fill="#E0F1F4" d="M47 39h1v1h-1zM48 39h1v1h-1zM49 39h1v1h-1zM50 39h1v1h-1zM51 39h1v1h-1zM52 39h1v1h-1zM53 39h1v1h-1zM54 39h1v1h-1zM55 39h1v1h-1zM56 39h1v1h-1zM57 39h1v1h-1zM58 39h1v1h-1zM59 39h1v1h-1zM60 39h1v1h-1zM61 39h1v1h-1zM62 39h1v1h-1zM63 39h1v1h-1zM64 39h1v1h-1zM65 39h1v1h-1zM66 39h1v1h-1zM67 39h1v1h-1zM68 39h1v1h-1zM69 39h1v1h-1zM70 39h1v1h-1zM71 39h1v1h-1zM72 39h1v1h-1zM73 39h1v1h-1zM74 39h1v1h-1z"/><path fill="#D0EBF0" d="M75 39h1v1h-1z"/><path fill="#AEDDE6" d="M76 39h1v1h-1zM77 39h1v1h-1z"/><path fill="#A5D1D9" d="M78 39h1v1h-1z"/><path fill="#2C2422" d="M79 39h1v1h-1z"/><path fill="#231815" d="M80 39h1v1h-1zM81 39h1v1h-1zM82 39h1v1h-1zM13 40h1v1h-1zM14 40h1v1h-1zM15 40h1v1h-1z"/><path fill="#312F2D" d="M16 40h1v1h-1z"/><path fill="#92D1D3" d="M17 40h1v1h-1zM18 40h1v1h-1zM19 40h1v1h-1zM20 40h1v1h-1zM21 40h1v1h-1zM22 40h1v1h-1zM23 40h1v1h-1zM24 40h1v1h-1zM25 40h1v1h-1zM26 40h1v1h-1zM27 40h1v1h-1zM28 40h1v1h-1zM29 40h1v1h-1zM30 40h1v1h-1zM31 40h1v1h-1z"/><path fill="#84C9CC" d="M32 40h1v1h-1z"/><path fill="#75C1C4" d="M33 40h1v1h-1zM34 40h1v1h-1z"/><path fill="#84C9CC" d="M35 40h1v1h-1z"/><path fill="#92D1D3" d="M36 40h1v1h-1zM37 40h1v1h-1zM38 40h1v1h-1zM39 40h1v1h-1z"/><path fill="#87CBCD" d="M40 40h1v1h-1z"/><path fill="#77C2C5" d="M41 40h1v1h-1z"/><path fill="#75C1C4" d="M42 40h1v1h-1zM43 40h1v1h-1zM44 40h1v1h-1z"/><path fill="#ABD9DC" d="M45 40h1v1h-1z"/><path fill="#E0F1F4" d="M46 40h1v1h-1zM47 40h1v1h-1zM48 40h1v1h-1zM49 40h1v1h-1zM50 40h1v1h-1zM51 40h1v1h-1zM52 40h1v1h-1zM53 40h1v1h-1zM54 40h1v1h-1zM55 40h1v1h-1zM56 40h1v1h-1zM57 40h1v1h-1zM58 40h1v1h-1zM59 40h1v1h-1zM60 40h1v1h-1zM61 40h1v1h-1zM62 40h1v1h-1zM63 40h1v1h-1zM64 40h1v1h-1zM65 40h1v1h-1zM66 40h1v1h-1zM67 40h1v1h-1zM68 40h1v1h-1zM69 40h1v1h-1zM70 40h1v1h-1zM71 40h1v1h-1zM72 40h1v1h-1zM73 40h1v1h-1z"/><path fill="#DDF0F3" d="M74 40h1v1h-1z"/><path fill="#B1DEE7" d="M75 40h1v1h-1z"/><path fill="#AEDDE6" d="M76 40h1v1h-1zM77 40h1v1h-1z"/><path fill="#576263" d="M78 40h1v1h-1z"/><path fill="#231815" d="M79 40h1v1h-1zM80 40h1v1h-1zM81 40h1v1h-1zM13 41h1v1h-1zM14 41h1v1h-1zM15 41h1v1h-1z"/><path fill="#5B7574" d="M16 41h1v1h-1z"/><path fill="#92D1D3" d="M17 41h1v1h-1zM18 41h1v1h-1zM19 41h1v1h-1zM20 41h1v1h-1zM21 41h1v1h-1zM22 41h1v1h-1zM23 41h1v1h-1zM24 41h1v1h-1zM25 41h1v1h-1zM26 41h1v1h-1zM27 41h1v1h-1zM28 41h1v1h-1zM29 41h1v1h-1zM30 41h1v1h-1zM31 41h1v1h-1z"/><path fill="#84C9CC" d="M32 41h1v1h-1z"/><path fill="#75C1C4" d="M33 41h1v1h-1zM34 41h1v1h-1z"/><path fill="#84C9CC" d="M35 41h1v1h-1z"/><path fill="#92D1D3" d="M36 41h1v1h-1zM37 41h1v1h-1zM38 41h1v1h-1z"/><path fill="#85CACC" d="M39 41h1v1h-1z"/><path fill="#75C1C4" d="M40 41h1v1h-1zM41 41h1v1h-1zM42 41h1v1h-1zM43 41h1v1h-1z"/><path fill="#B8DFE2" d="M44 41h1v1h-1z"/><path fill="#E0F1F4" d="M45 41h1v1h-1zM46 41h1v1h-1zM47 41h1v1h-1zM48 41h1v1h-1zM49 41h1v1h-1zM50 41h1v1h-1zM51 41h1v1h-1zM52 41h1v1h-1zM53 41h1v1h-1zM54 41h1v1h-1zM55 41h1v1h-1zM56 41h1v1h-1zM57 41h1v1h-1zM58 41h1v1h-1zM59 41h1v1h-1zM60 41h1v1h-1zM61 41h1v1h-1zM62 41h1v1h-1zM63 41h1v1h-1zM64 41h1v1h-1zM65 41h1v1h-1zM66 41h1v1h-1zM67 41h1v1h-1zM68 41h1v1h-1zM69 41h1v1h-1zM70 41h1v1h-1zM71 41h1v1h-1zM72 41h1v1h-1zM73 41h1v1h-1z"/><path fill="#BEE3EA" d="M74 41h1v1h-1z"/><path fill="#AEDDE6" d="M75 41h1v1h-1zM76 41h1v1h-1z"/><path fill="#94B8BF" d="M77 41h1v1h-1z"/><path fill="#231815" d="M78 41h1v1h-1zM79 41h1v1h-1zM80 41h1v1h-1zM81 41h1v1h-1zM12 42h1v1h-1zM13 42h1v1h-1zM14 42h1v1h-1zM15 42h1v1h-1z"/><path fill="#8BC5C7" d="M16 42h1v1h-1z"/><path fill="#92D1D3" d="M17 42h1v1h-1zM18 42h1v1h-1zM19 42h1v1h-1zM20 42h1v1h-1z"/><path fill="#85CACC" d="M21 42h1v1h-1z"/><path fill="#84C9CC" d="M22 42h1v1h-1z"/><path fill="#90D0D2" d="M23 42h1v1h-1z"/><path fill="#92D1D3" d="M24 42h1v1h-1zM25 42h1v1h-1zM26 42h1v1h-1zM27 42h1v1h-1zM28 42h1v1h-1zM29 42h1v1h-1zM30 42h1v1h-1zM31 42h1v1h-1z"/><path fill="#7EC6C9" d="M32 42h1v1h-1z"/><path fill="#75C1C4" d="M33 42h1v1h-1zM34 42h1v1h-1z"/><path fill="#89CCCE" d="M35 42h1v1h-1z"/><path fill="#92D1D3" d="M36 42h1v1h-1zM37 42h1v1h-1z"/><path fill="#80C7CA" d="M38 42h1v1h-1z"/><path fill="#75C1C4" d="M39 42h1v1h-1zM40 42h1v1h-1zM41 42h1v1h-1z"/><path fill="#7CC4C7" d="M42 42h1v1h-1z"/><path fill="#CCE8EB" d="M43 42h1v1h-1z"/><path fill="#E0F1F4" d="M44 42h1v1h-1zM45 42h1v1h-1zM46 42h1v1h-1zM47 42h1v1h-1zM48 42h1v1h-1zM49 42h1v1h-1zM50 42h1v1h-1z"/><path fill="#DDF0F3" d="M51 42h1v1h-1z"/><path fill="#D4ECF1" d="M52 42h1v1h-1zM53 42h1v1h-1zM54 42h1v1h-1zM55 42h1v1h-1zM56 42h1v1h-1zM57 42h1v1h-1z"/><path fill="#CDEAEF" d="M58 42h1v1h-1z"/><path fill="#C7E7ED" d="M59 42h1v1h-1zM60 42h1v1h-1zM61 42h1v1h-1zM62 42h1v1h-1zM63 42h1v1h-1zM64 42h1v1h-1zM65 42h1v1h-1zM66 42h1v1h-1zM67 42h1v1h-1zM68 42h1v1h-1zM69 42h1v1h-1zM70 42h1v1h-1zM71 42h1v1h-1zM72 42h1v1h-1z"/><path fill="#C4E6EC" d="M73 42h1v1h-1z"/><path fill="#AEDDE6" d="M74 42h1v1h-1zM75 42h1v1h-1zM76 42h1v1h-1z"/><path fill="#464949" d="M77 42h1v1h-1z"/><path fill="#231815" d="M78 42h1v1h-1zM79 42h1v1h-1zM80 42h1v1h-1zM12 43h1v1h-1zM13 43h1v1h-1zM14 43h1v1h-1z"/><path fill="#4D5D5C" d="M15 43h1v1h-1z"/><path fill="#92D1D3" d="M16 43h1v1h-1zM17 43h1v1h-1zM18 43h1v1h-1zM19 43h1v1h-1z"/><path fill="#8BCDCF" d="M20 43h1v1h-1z"/><path fill="#75C1C4" d="M21 43h1v1h-1zM22 43h1v1h-1z"/><path fill="#80C7CA" d="M23 43h1v1h-1z"/><path fill="#92D1D3" d="M24 43h1v1h-1zM25 43h1v1h-1zM26 43h1v1h-1zM27 43h1v1h-1zM28 43h1v1h-1zM29 43h1v1h-1zM30 43h1v1h-1zM31 43h1v1h-1z"/><path fill="#7CC5C8" d="M32 43h1v1h-1z"/><path fill="#75C1C4" d="M33 43h1v1h-1zM34 43h1v1h-1z"/><path fill="#8BCDCF" d="M35 43h1v1h-1z"/><path fill="#90D0D2" d="M36 43h1v1h-1z"/><path fill="#7CC5C8" d="M37 43h1v1h-1z"/><path fill="#75C1C4" d="M38 43h1v1h-1zM39 43h1v1h-1zM40 43h1v1h-1z"/><path fill="#83C8CB" d="M41 43h1v1h-1z"/><path fill="#B6DFE5" d="M42 43h1v1h-1z"/><path fill="#C7E7ED" d="M43 43h1v1h-1z"/><path fill="#C1E5EB" d="M44 43h1v1h-1z"/><path fill="#BBE2EA" d="M45 43h1v1h-1zM46 43h1v1h-1z"/><path fill="#B4E0E8" d="M47 43h1v1h-1z"/><path fill="#AEDDE6" d="M48 43h1v1h-1zM49 43h1v1h-1zM50 43h1v1h-1zM51 43h1v1h-1zM52 43h1v1h-1zM53 43h1v1h-1zM54 43h1v1h-1zM55 43h1v1h-1zM56 43h1v1h-1zM57 43h1v1h-1zM58 43h1v1h-1zM59 43h1v1h-1zM60 43h1v1h-1zM61 43h1v1h-1zM62 43h1v1h-1zM63 43h1v1h-1zM64 43h1v1h-1zM65 43h1v1h-1zM66 43h1v1h-1zM67 43h1v1h-1zM68 43h1v1h-1zM69 43h1v1h-1zM70 43h1v1h-1zM71 43h1v1h-1zM72 43h1v1h-1zM73 43h1v1h-1zM74 43h1v1h-1zM75 43h1v1h-1z"/><path fill="#71878B" d="M76 43h1v1h-1z"/><path fill="#231815" d="M77 43h1v1h-1zM78 43h1v1h-1zM79 43h1v1h-1zM80 43h1v1h-1zM11 44h1v1h-1zM12 44h1v1h-1zM13 44h1v1h-1zM14 44h1v1h-1z"/><path fill="#76A3A4" d="M15 44h1v1h-1z"/><path fill="#92D1D3" d="M16 44h1v1h-1zM17 44h1v1h-1zM18 44h1v1h-1zM19 44h1v1h-1z"/><path fill="#8BCDCF" d="M20 44h1v1h-1z"/><path fill="#75C1C4" d="M21 44h1v1h-1zM22 44h1v1h-1z"/><path fill="#7CC5C8" d="M23 44h1v1h-1z"/><path fill="#92D1D3" d="M24 44h1v1h-1zM25 44h1v1h-1zM26 44h1v1h-1zM27 44h1v1h-1zM28 44h1v1h-1zM29 44h1v1h-1zM30 44h1v1h-1zM31 44h1v1h-1z"/><path fill="#7CC5C8" d="M32 44h1v1h-1z"/><path fill="#75C1C4" d="M33 44h1v1h-1zM34 44h1v1h-1z"/><path fill="#87CBCD" d="M35 44h1v1h-1z"/><path fill="#7AC4C7" d="M36 44h1v1h-1z"/><path fill="#75C1C4" d="M37 44h1v1h-1zM38 44h1v1h-1zM39 44h1v1h-1z"/><path fill="#80C6CA" d="M40 44h1v1h-1z"/><path fill="#AADBE4" d="M41 44h1v1h-1z"/><path fill="#AEDDE6" d="M42 44h1v1h-1zM43 44h1v1h-1zM44 44h1v1h-1zM45 44h1v1h-1zM46 44h1v1h-1zM47 44h1v1h-1zM48 44h1v1h-1zM49 44h1v1h-1zM50 44h1v1h-1zM51 44h1v1h-1zM52 44h1v1h-1zM53 44h1v1h-1zM54 44h1v1h-1zM55 44h1v1h-1zM56 44h1v1h-1zM57 44h1v1h-1zM58 44h1v1h-1zM59 44h1v1h-1zM60 44h1v1h-1zM61 44h1v1h-1zM62 44h1v1h-1zM63 44h1v1h-1zM64 44h1v1h-1zM65 44h1v1h-1zM66 44h1v1h-1zM67 44h1v1h-1zM68 44h1v1h-1zM69 44h1v1h-1zM70 44h1v1h-1zM71 44h1v1h-1zM72 44h1v1h-1zM73 44h1v1h-1zM74 44h1v1h-1z"/><path fill="#9DC4CC" d="M75 44h1v1h-1z"/><path fill="#2C2422" d="M76 44h1v1h-1z"/><path fill="#231815" d="M77 44h1v1h-1zM78 44h1v1h-1zM79 44h1v1h-1zM11 45h1v1h-1zM12 45h1v1h-1zM13 45h1v1h-1z"/><path fill="#312F2D" d="M14 45h1v1h-1z"/><path fill="#92D1D3" d="M15 45h1v1h-1zM16 45h1v1h-1zM17 45h1v1h-1zM18 45h1v1h-1zM19 45h1v1h-1z"/><path fill="#8BCDCF" d="M20 45h1v1h-1z"/><path fill="#75C1C4" d="M21 45h1v1h-1zM22 45h1v1h-1z"/><path fill="#7CC5C8" d="M23 45h1v1h-1z"/><path fill="#92D1D3" d="M24 45h1v1h-1zM25 45h1v1h-1zM26 45h1v1h-1zM27 45h1v1h-1zM28 45h1v1h-1zM29 45h1v1h-1zM30 45h1v1h-1zM31 45h1v1h-1z"/><path fill="#7CC5C8" d="M32 45h1v1h-1z"/><path fill="#75C1C4" d="M33 45h1v1h-1zM34 45h1v1h-1zM35 45h1v1h-1zM36 45h1v1h-1zM37 45h1v1h-1zM38 45h1v1h-1z"/><path fill="#8ACCD1" d="M39 45h1v1h-1z"/><path fill="#AEDDE6" d="M40 45h1v1h-1zM41 45h1v1h-1zM42 45h1v1h-1zM43 45h1v1h-1zM44 45h1v1h-1zM45 45h1v1h-1zM46 45h1v1h-1zM47 45h1v1h-1zM48 45h1v1h-1zM49 45h1v1h-1zM50 45h1v1h-1zM51 45h1v1h-1z"/><path fill="#BBE2EA" d="M52 45h1v1h-1zM53 45h1v1h-1zM54 45h1v1h-1zM55 45h1v1h-1zM56 45h1v1h-1zM57 45h1v1h-1z"/><path fill="#BEE3EA" d="M58 45h1v1h-1z"/><path fill="#C7E7ED" d="M59 45h1v1h-1zM60 45h1v1h-1zM61 45h1v1h-1zM62 45h1v1h-1zM63 45h1v1h-1zM64 45h1v1h-1zM65 45h1v1h-1zM66 45h1v1h-1zM67 45h1v1h-1zM68 45h1v1h-1zM69 45h1v1h-1z"/><path fill="#C4E6EC" d="M70 45h1v1h-1z"/><path fill="#AEDDE6" d="M71 45h1v1h-1zM72 45h1v1h-1zM73 45h1v1h-1zM74 45h1v1h-1z"/><path fill="#464949" d="M75 45h1v1h-1z"/><path fill="#231815" d="M76 45h1v1h-1zM77 45h1v1h-1zM78 45h1v1h-1zM79 45h1v1h-1zM11 46h1v1h-1zM12 46h1v1h-1zM13 46h1v1h-1z"/><path fill="#546968" d="M14 46h1v1h-1z"/><path fill="#92D1D3" d="M15 46h1v1h-1zM16 46h1v1h-1zM17 46h1v1h-1zM18 46h1v1h-1zM19 46h1v1h-1z"/><path fill="#8DCED0" d="M20 46h1v1h-1z"/><path fill="#75C1C4" d="M21 46h1v1h-1zM22 46h1v1h-1z"/><path fill="#79C3C6" d="M23 46h1v1h-1z"/><path fill="#92D1D3" d="M24 46h1v1h-1zM25 46h1v1h-1zM26 46h1v1h-1zM27 46h1v1h-1zM28 46h1v1h-1zM29 46h1v1h-1zM30 46h1v1h-1zM31 46h1v1h-1z"/><path fill="#7CC5C8" d="M32 46h1v1h-1z"/><path fill="#75C1C4" d="M33 46h1v1h-1zM34 46h1v1h-1zM35 46h1v1h-1zM36 46h1v1h-1zM37 46h1v1h-1z"/><path fill="#92CFD5" d="M38 46h1v1h-1z"/><path fill="#AEDDE6" d="M39 46h1v1h-1zM40 46h1v1h-1z"/><path fill="#BBE2EA" d="M41 46h1v1h-1z"/><path fill="#BEE3EA" d="M42 46h1v1h-1z"/><path fill="#C7E7ED" d="M43 46h1v1h-1zM44 46h1v1h-1z"/><path fill="#D4ECF1" d="M45 46h1v1h-1zM46 46h1v1h-1zM47 46h1v1h-1z"/><path fill="#E0F1F4" d="M48 46h1v1h-1zM49 46h1v1h-1zM50 46h1v1h-1zM51 46h1v1h-1zM52 46h1v1h-1zM53 46h1v1h-1zM54 46h1v1h-1zM55 46h1v1h-1zM56 46h1v1h-1zM57 46h1v1h-1zM58 46h1v1h-1zM59 46h1v1h-1zM60 46h1v1h-1zM61 46h1v1h-1zM62 46h1v1h-1zM63 46h1v1h-1zM64 46h1v1h-1zM65 46h1v1h-1zM66 46h1v1h-1zM67 46h1v1h-1zM68 46h1v1h-1zM69 46h1v1h-1z"/><path fill="#B7E1E9" d="M70 46h1v1h-1z"/><path fill="#AEDDE6" d="M71 46h1v1h-1zM72 46h1v1h-1zM73 46h1v1h-1z"/><path fill="#71878B" d="M74 46h1v1h-1z"/><path fill="#231815" d="M75 46h1v1h-1zM76 46h1v1h-1zM77 46h1v1h-1zM78 46h1v1h-1zM11 47h1v1h-1zM12 47h1v1h-1zM13 47h1v1h-1z"/><path fill="#7DAEAF" d="M14 47h1v1h-1z"/><path fill="#92D1D3" d="M15 47h1v1h-1zM16 47h1v1h-1zM17 47h1v1h-1zM18 47h1v1h-1zM19 47h1v1h-1zM20 47h1v1h-1z"/><path fill="#75C1C4" d="M21 47h1v1h-1zM22 47h1v1h-1zM23 47h1v1h-1z"/><path fill="#92D1D3" d="M24 47h1v1h-1zM25 47h1v1h-1zM26 47h1v1h-1zM27 47h1v1h-1zM28 47h1v1h-1zM29 47h1v1h-1zM30 47h1v1h-1zM31 47h1v1h-1z"/><path fill="#77C2C5" d="M32 47h1v1h-1z"/><path fill="#75C1C4" d="M33 47h1v1h-1zM34 47h1v1h-1zM35 47h1v1h-1zM36 47h1v1h-1z"/><path fill="#ABDADF" d="M37 47h1v1h-1z"/><path fill="#CDEAEF" d="M38 47h1v1h-1z"/><path fill="#DAEFF2" d="M39 47h1v1h-1z"/><path fill="#E0F1F4" d="M40 47h1v1h-1zM41 47h1v1h-1zM42 47h1v1h-1zM43 47h1v1h-1zM44 47h1v1h-1zM45 47h1v1h-1zM46 47h1v1h-1zM47 47h1v1h-1zM48 47h1v1h-1zM49 47h1v1h-1zM50 47h1v1h-1zM51 47h1v1h-1zM52 47h1v1h-1zM53 47h1v1h-1zM54 47h1v1h-1zM55 47h1v1h-1zM56 47h1v1h-1zM57 47h1v1h-1zM58 47h1v1h-1zM59 47h1v1h-1zM60 47h1v1h-1zM61 47h1v1h-1zM62 47h1v1h-1zM63 47h1v1h-1zM64 47h1v1h-1zM65 47h1v1h-1zM66 47h1v1h-1zM67 47h1v1h-1zM68 47h1v1h-1z"/><path fill="#C1E5EB" d="M69 47h1v1h-1z"/><path fill="#AEDDE6" d="M70 47h1v1h-1zM71 47h1v1h-1zM72 47h1v1h-1z"/><path fill="#94B8BF" d="M73 47h1v1h-1z"/><path fill="#231815" d="M74 47h1v1h-1zM75 47h1v1h-1zM76 47h1v1h-1zM77 47h1v1h-1zM10 48h1v1h-1zM11 48h1v1h-1zM12 48h1v1h-1z"/><path fill="#312F2D" d="M13 48h1v1h-1z"/><path fill="#92D1D3" d="M14 48h1v1h-1zM15 48h1v1h-1zM16 48h1v1h-1zM17 48h1v1h-1zM18 48h1v1h-1zM19 48h1v1h-1zM20 48h1v1h-1z"/><path fill="#75C1C4" d="M21 48h1v1h-1zM22 48h1v1h-1zM23 48h1v1h-1z"/><path fill="#92D1D3" d="M24 48h1v1h-1zM25 48h1v1h-1zM26 48h1v1h-1zM27 48h1v1h-1zM28 48h1v1h-1zM29 48h1v1h-1zM30 48h1v1h-1z"/><path fill="#80C7CA" d="M31 48h1v1h-1z"/><path fill="#75C1C4" d="M32 48h1v1h-1zM33 48h1v1h-1zM34 48h1v1h-1z"/><path fill="#7CC4C7" d="M35 48h1v1h-1z"/><path fill="#CCE8EB" d="M36 48h1v1h-1z"/><path fill="#E0F1F4" d="M37 48h1v1h-1zM38 48h1v1h-1zM39 48h1v1h-1zM40 48h1v1h-1zM41 48h1v1h-1zM42 48h1v1h-1zM43 48h1v1h-1zM44 48h1v1h-1zM45 48h1v1h-1zM46 48h1v1h-1zM47 48h1v1h-1zM48 48h1v1h-1zM49 48h1v1h-1zM50 48h1v1h-1zM51 48h1v1h-1zM52 48h1v1h-1zM53 48h1v1h-1zM54 48h1v1h-1zM55 48h1v1h-1zM56 48h1v1h-1zM57 48h1v1h-1zM58 48h1v1h-1zM59 48h1v1h-1zM60 48h1v1h-1zM61 48h1v1h-1zM62 48h1v1h-1zM63 48h1v1h-1zM64 48h1v1h-1zM65 48h1v1h-1zM66 48h1v1h-1zM67 48h1v1h-1z"/><path fill="#C1E5EB" d="M68 48h1v1h-1z"/><path fill="#AEDDE6" d="M69 48h1v1h-1zM70 48h1v1h-1zM71 48h1v1h-1z"/><path fill="#A5D1D9" d="M72 48h1v1h-1z"/><path fill="#2C2422" d="M73 48h1v1h-1z"/><path fill="#231815" d="M74 48h1v1h-1zM75 48h1v1h-1zM76 48h1v1h-1zM77 48h1v1h-1zM10 49h1v1h-1zM11 49h1v1h-1zM12 49h1v1h-1z"/><path fill="#4D5D5C" d="M13 49h1v1h-1z"/><path fill="#92D1D3" d="M14 49h1v1h-1zM15 49h1v1h-1zM16 49h1v1h-1zM17 49h1v1h-1zM18 49h1v1h-1zM19 49h1v1h-1zM20 49h1v1h-1z"/><path fill="#75C1C4" d="M21 49h1v1h-1zM22 49h1v1h-1zM23 49h1v1h-1z"/><path fill="#92D1D3" d="M24 49h1v1h-1zM25 49h1v1h-1zM26 49h1v1h-1zM27 49h1v1h-1zM28 49h1v1h-1z"/><path fill="#90D0D2" d="M29 49h1v1h-1z"/><path fill="#7EC6C9" d="M30 49h1v1h-1z"/><path fill="#75C1C4" d="M31 49h1v1h-1zM32 49h1v1h-1zM33 49h1v1h-1z"/><path fill="#89CACD" d="M34 49h1v1h-1z"/><path fill="#CCE8EB" d="M35 49h1v1h-1z"/><path fill="#E0F1F4" d="M36 49h1v1h-1zM37 49h1v1h-1zM38 49h1v1h-1zM39 49h1v1h-1zM40 49h1v1h-1zM41 49h1v1h-1zM42 49h1v1h-1zM43 49h1v1h-1zM44 49h1v1h-1zM45 49h1v1h-1zM46 49h1v1h-1zM47 49h1v1h-1zM48 49h1v1h-1zM49 49h1v1h-1zM50 49h1v1h-1zM51 49h1v1h-1zM52 49h1v1h-1zM53 49h1v1h-1zM54 49h1v1h-1zM55 49h1v1h-1zM56 49h1v1h-1zM57 49h1v1h-1zM58 49h1v1h-1zM59 49h1v1h-1zM60 49h1v1h-1zM61 49h1v1h-1zM62 49h1v1h-1zM63 49h1v1h-1zM64 49h1v1h-1zM65 49h1v1h-1zM66 49h1v1h-1z"/><path fill="#C1E5EB" d="M67 49h1v1h-1z"/><path fill="#AEDDE6" d="M68 49h1v1h-1zM69 49h1v1h-1zM70 49h1v1h-1z"/><path fill="#A5D1D9" d="M71 49h1v1h-1z"/><path fill="#3D3D3C" d="M72 49h1v1h-1z"/><path fill="#231815" d="M73 49h1v1h-1zM74 49h1v1h-1zM75 49h1v1h-1zM76 49h1v1h-1zM10 50h1v1h-1zM11 50h1v1h-1zM12 50h1v1h-1z"/><path fill="#6F9798" d="M13 50h1v1h-1z"/><path fill="#92D1D3" d="M14 50h1v1h-1zM15 50h1v1h-1zM16 50h1v1h-1zM17 50h1v1h-1zM18 50h1v1h-1zM19 50h1v1h-1zM20 50h1v1h-1z"/><path fill="#75C1C4" d="M21 50h1v1h-1zM22 50h1v1h-1zM23 50h1v1h-1z"/><path fill="#90D0D2" d="M24 50h1v1h-1z"/><path fill="#92D1D3" d="M25 50h1v1h-1zM26 50h1v1h-1zM27 50h1v1h-1z"/><path fill="#90D0D2" d="M28 50h1v1h-1z"/><path fill="#7AC4C7" d="M29 50h1v1h-1z"/><path fill="#75C1C4" d="M30 50h1v1h-1zM31 50h1v1h-1zM32 50h1v1h-1z"/><path fill="#89CACD" d="M33 50h1v1h-1z"/><path fill="#D9EEF1" d="M34 50h1v1h-1z"/><path fill="#E0F1F4" d="M35 50h1v1h-1zM36 50h1v1h-1zM37 50h1v1h-1zM38 50h1v1h-1zM39 50h1v1h-1zM40 50h1v1h-1zM41 50h1v1h-1zM42 50h1v1h-1zM43 50h1v1h-1zM44 50h1v1h-1zM45 50h1v1h-1zM46 50h1v1h-1zM47 50h1v1h-1zM48 50h1v1h-1zM49 50h1v1h-1zM50 50h1v1h-1zM51 50h1v1h-1zM52 50h1v1h-1zM53 50h1v1h-1zM54 50h1v1h-1zM55 50h1v1h-1zM56 50h1v1h-1zM57 50h1v1h-1zM58 50h1v1h-1zM59 50h1v1h-1zM60 50h1v1h-1zM61 50h1v1h-1zM62 50h1v1h-1zM63 50h1v1h-1zM64 50h1v1h-1z"/><path fill="#DDF0F3" d="M65 50h1v1h-1z"/><path fill="#BEE3EA" d="M66 50h1v1h-1z"/><path fill="#AEDDE6" d="M67 50h1v1h-1zM68 50h1v1h-1zM69 50h1v1h-1zM70 50h1v1h-1z"/><path fill="#4E5656" d="M71 50h1v1h-1z"/><path fill="#231815" d="M72 50h1v1h-1zM73 50h1v1h-1zM74 50h1v1h-1zM75 50h1v1h-1zM9 51h1v1H9zM10 51h1v1h-1zM11 51h1v1h-1zM12 51h1v1h-1z"/><path fill="#8BC5C7" d="M13 51h1v1h-1z"/><path fill="#92D1D3" d="M14 51h1v1h-1zM15 51h1v1h-1zM16 51h1v1h-1zM17 51h1v1h-1zM18 51h1v1h-1zM19 51h1v1h-1zM20 51h1v1h-1z"/><path fill="#7CC5C8" d="M21 51h1v1h-1z"/><path fill="#75C1C4" d="M22 51h1v1h-1zM23 51h1v1h-1z"/><path fill="#8BCDCF" d="M24 51h1v1h-1z"/><path fill="#92D1D3" d="M25 51h1v1h-1zM26 51h1v1h-1z"/><path fill="#8DCED0" d="M27 51h1v1h-1z"/><path fill="#77C2C5" d="M28 51h1v1h-1z"/><path fill="#75C1C4" d="M29 51h1v1h-1zM30 51h1v1h-1zM31 51h1v1h-1z"/><path fill="#9DD3D6" d="M32 51h1v1h-1z"/><path fill="#E0F1F4" d="M33 51h1v1h-1zM34 51h1v1h-1zM35 51h1v1h-1zM36 51h1v1h-1zM37 51h1v1h-1zM38 51h1v1h-1zM39 51h1v1h-1zM40 51h1v1h-1zM41 51h1v1h-1zM42 51h1v1h-1zM43 51h1v1h-1zM44 51h1v1h-1zM45 51h1v1h-1zM46 51h1v1h-1zM47 51h1v1h-1zM48 51h1v1h-1zM49 51h1v1h-1zM50 51h1v1h-1zM51 51h1v1h-1zM52 51h1v1h-1zM53 51h1v1h-1zM54 51h1v1h-1zM55 51h1v1h-1zM56 51h1v1h-1zM57 51h1v1h-1zM58 51h1v1h-1zM59 51h1v1h-1zM60 51h1v1h-1zM61 51h1v1h-1zM62 51h1v1h-1zM63 51h1v1h-1z"/><path fill="#DDF0F3" d="M64 51h1v1h-1z"/><path fill="#B7E1E9" d="M65 51h1v1h-1z"/><path fill="#AEDDE6" d="M66 51h1v1h-1zM67 51h1v1h-1zM68 51h1v1h-1zM69 51h1v1h-1z"/><path fill="#576263" d="M70 51h1v1h-1z"/><path fill="#231815" d="M71 51h1v1h-1zM72 51h1v1h-1zM73 51h1v1h-1zM74 51h1v1h-1zM9 52h1v1H9zM10 52h1v1h-1zM11 52h1v1h-1z"/><path fill="#383B39" d="M12 52h1v1h-1z"/><path fill="#92D1D3" d="M13 52h1v1h-1zM14 52h1v1h-1zM15 52h1v1h-1zM16 52h1v1h-1zM17 52h1v1h-1zM18 52h1v1h-1zM19 52h1v1h-1zM20 52h1v1h-1z"/><path fill="#7CC5C8" d="M21 52h1v1h-1z"/><path fill="#75C1C4" d="M22 52h1v1h-1zM23 52h1v1h-1z"/><path fill="#8BCDCF" d="M24 52h1v1h-1z"/><path fill="#92D1D3" d="M25 52h1v1h-1z"/><path fill="#89CCCE" d="M26 52h1v1h-1z"/><path fill="#77C2C5" d="M27 52h1v1h-1z"/><path fill="#75C1C4" d="M28 52h1v1h-1zM29 52h1v1h-1zM30 52h1v1h-1z"/><path fill="#ABD9DC" d="M31 52h1v1h-1z"/><path fill="#E0F1F4" d="M32 52h1v1h-1zM33 52h1v1h-1zM34 52h1v1h-1zM35 52h1v1h-1zM36 52h1v1h-1zM37 52h1v1h-1zM38 52h1v1h-1zM39 52h1v1h-1zM40 52h1v1h-1zM41 52h1v1h-1zM42 52h1v1h-1zM43 52h1v1h-1zM44 52h1v1h-1zM45 52h1v1h-1zM46 52h1v1h-1zM47 52h1v1h-1zM48 52h1v1h-1zM49 52h1v1h-1zM50 52h1v1h-1zM51 52h1v1h-1zM52 52h1v1h-1zM53 52h1v1h-1zM54 52h1v1h-1zM55 52h1v1h-1zM56 52h1v1h-1zM57 52h1v1h-1zM58 52h1v1h-1zM59 52h1v1h-1zM60 52h1v1h-1zM61 52h1v1h-1zM62 52h1v1h-1z"/><path fill="#D7EDF1" d="M63 52h1v1h-1z"/><path fill="#B4E0E8" d="M64 52h1v1h-1z"/><path fill="#AEDDE6" d="M65 52h1v1h-1zM66 52h1v1h-1zM67 52h1v1h-1zM68 52h1v1h-1z"/><path fill="#576263" d="M69 52h1v1h-1z"/><path fill="#231815" d="M70 52h1v1h-1zM71 52h1v1h-1zM72 52h1v1h-1zM73 52h1v1h-1zM9 53h1v1H9zM10 53h1v1h-1zM11 53h1v1h-1z"/><path fill="#546968" d="M12 53h1v1h-1z"/><path fill="#92D1D3" d="M13 53h1v1h-1zM14 53h1v1h-1zM15 53h1v1h-1zM16 53h1v1h-1zM17 53h1v1h-1zM18 53h1v1h-1zM19 53h1v1h-1zM20 53h1v1h-1z"/><path fill="#7CC5C8" d="M21 53h1v1h-1z"/><path fill="#75C1C4" d="M22 53h1v1h-1zM23 53h1v1h-1z"/><path fill="#8BCDCF" d="M24 53h1v1h-1z"/><path fill="#87CBCD" d="M25 53h1v1h-1z"/><path fill="#75C1C4" d="M26 53h1v1h-1zM27 53h1v1h-1zM28 53h1v1h-1zM29 53h1v1h-1z"/><path fill="#B8DFE2" d="M30 53h1v1h-1z"/><path fill="#E0F1F4" d="M31 53h1v1h-1zM32 53h1v1h-1zM33 53h1v1h-1zM34 53h1v1h-1zM35 53h1v1h-1zM36 53h1v1h-1zM37 53h1v1h-1zM38 53h1v1h-1zM39 53h1v1h-1zM40 53h1v1h-1zM41 53h1v1h-1zM42 53h1v1h-1zM43 53h1v1h-1zM44 53h1v1h-1zM45 53h1v1h-1zM46 53h1v1h-1zM47 53h1v1h-1zM48 53h1v1h-1zM49 53h1v1h-1zM50 53h1v1h-1zM51 53h1v1h-1zM52 53h1v1h-1zM53 53h1v1h-1zM54 53h1v1h-1zM55 53h1v1h-1zM56 53h1v1h-1zM57 53h1v1h-1zM58 53h1v1h-1zM59 53h1v1h-1zM60 53h1v1h-1zM61 53h1v1h-1z"/><path fill="#D0EBF0" d="M62 53h1v1h-1z"/><path fill="#B1DEE7" d="M63 53h1v1h-1z"/><path fill="#AEDDE6" d="M64 53h1v1h-1zM65 53h1v1h-1zM66 53h1v1h-1zM67 53h1v1h-1z"/><path fill="#576263" d="M68 53h1v1h-1z"/><path fill="#231815" d="M69 53h1v1h-1zM70 53h1v1h-1zM71 53h1v1h-1zM72 53h1v1h-1zM9 54h1v1H9zM10 54h1v1h-1zM11 54h1v1h-1z"/><path fill="#688C8C" d="M12 54h1v1h-1z"/><path fill="#92D1D3" d="M13 54h1v1h-1zM14 54h1v1h-1zM15 54h1v1h-1zM16 54h1v1h-1zM17 54h1v1h-1zM18 54h1v1h-1zM19 54h1v1h-1zM20 54h1v1h-1z"/><path fill="#7CC5C8" d="M21 54h1v1h-1z"/><path fill="#75C1C4" d="M22 54h1v1h-1zM23 54h1v1h-1z"/><path fill="#7AC4C7" d="M24 54h1v1h-1z"/><path fill="#75C1C4" d="M25 54h1v1h-1zM26 54h1v1h-1zM27 54h1v1h-1z"/><path fill="#7CC4C7" d="M28 54h1v1h-1z"/><path fill="#CCE8EB" d="M29 54h1v1h-1z"/><path fill="#E0F1F4" d="M30 54h1v1h-1zM31 54h1v1h-1zM32 54h1v1h-1zM33 54h1v1h-1zM34 54h1v1h-1z"/><path fill="#D7EDF1" d="M35 54h1v1h-1z"/><path fill="#D4ECF1" d="M36 54h1v1h-1zM37 54h1v1h-1z"/><path fill="#DAEFF2" d="M38 54h1v1h-1z"/><path fill="#E0F1F4" d="M39 54h1v1h-1zM40 54h1v1h-1zM41 54h1v1h-1zM42 54h1v1h-1zM43 54h1v1h-1zM44 54h1v1h-1zM45 54h1v1h-1zM46 54h1v1h-1zM47 54h1v1h-1zM48 54h1v1h-1zM49 54h1v1h-1zM50 54h1v1h-1zM51 54h1v1h-1zM52 54h1v1h-1zM53 54h1v1h-1zM54 54h1v1h-1zM55 54h1v1h-1zM56 54h1v1h-1zM57 54h1v1h-1zM58 54h1v1h-1zM59 54h1v1h-1zM60 54h1v1h-1z"/><path fill="#C4E6EC" d="M61 54h1v1h-1z"/><path fill="#AEDDE6" d="M62 54h1v1h-1zM63 54h1v1h-1zM64 54h1v1h-1zM65 54h1v1h-1z"/><path fill="#A5D1D9" d="M66 54h1v1h-1z"/><path fill="#464949" d="M67 54h1v1h-1z"/><path fill="#231815" d="M68 54h1v1h-1zM69 54h1v1h-1zM70 54h1v1h-1zM71 54h1v1h-1zM72 54h1v1h-1zM9 55h1v1H9zM10 55h1v1h-1zM11 55h1v1h-1z"/><path fill="#7DAEAF" d="M12 55h1v1h-1z"/><path fill="#92D1D3" d="M13 55h1v1h-1zM14 55h1v1h-1zM15 55h1v1h-1zM16 55h1v1h-1zM17 55h1v1h-1zM18 55h1v1h-1zM19 55h1v1h-1zM20 55h1v1h-1z"/><path fill="#7CC5C8" d="M21 55h1v1h-1z"/><path fill="#75C1C4" d="M22 55h1v1h-1zM23 55h1v1h-1zM24 55h1v1h-1zM25 55h1v1h-1zM26 55h1v1h-1z"/><path fill="#7CC5C8" d="M27 55h1v1h-1z"/><path fill="#A3D8E0" d="M28 55h1v1h-1z"/><path fill="#AEDDE6" d="M29 55h1v1h-1zM30 55h1v1h-1zM31 55h1v1h-1zM32 55h1v1h-1zM33 55h1v1h-1zM34 55h1v1h-1zM35 55h1v1h-1zM36 55h1v1h-1zM37 55h1v1h-1zM38 55h1v1h-1z"/><path fill="#D4ECF1" d="M39 55h1v1h-1z"/><path fill="#E0F1F4" d="M40 55h1v1h-1zM41 55h1v1h-1zM42 55h1v1h-1zM43 55h1v1h-1zM44 55h1v1h-1zM45 55h1v1h-1zM46 55h1v1h-1zM47 55h1v1h-1zM48 55h1v1h-1zM49 55h1v1h-1zM50 55h1v1h-1zM51 55h1v1h-1zM52 55h1v1h-1zM53 55h1v1h-1zM54 55h1v1h-1zM55 55h1v1h-1zM56 55h1v1h-1zM57 55h1v1h-1zM58 55h1v1h-1z"/><path fill="#DAEFF2" d="M59 55h1v1h-1z"/><path fill="#B7E1E9" d="M60 55h1v1h-1z"/><path fill="#AEDDE6" d="M61 55h1v1h-1zM62 55h1v1h-1zM63 55h1v1h-1zM64 55h1v1h-1z"/><path fill="#9DC4CC" d="M65 55h1v1h-1z"/><path fill="#3D3D3C" d="M66 55h1v1h-1z"/><path fill="#231815" d="M67 55h1v1h-1zM68 55h1v1h-1zM69 55h1v1h-1zM70 55h1v1h-1zM8 56h1v1H8zM9 56h1v1H9zM10 56h1v1h-1zM11 56h1v1h-1z"/><path fill="#92D1D3" d="M12 56h1v1h-1zM13 56h1v1h-1zM14 56h1v1h-1zM15 56h1v1h-1zM16 56h1v1h-1zM17 56h1v1h-1zM18 56h1v1h-1zM19 56h1v1h-1zM20 56h1v1h-1z"/><path fill="#75C1C4" d="M21 56h1v1h-1zM22 56h1v1h-1zM23 56h1v1h-1zM24 56h1v1h-1zM25 56h1v1h-1z"/><path fill="#80C6CA" d="M26 56h1v1h-1z"/><path fill="#AADBE4" d="M27 56h1v1h-1z"/><path fill="#AEDDE6" d="M28 56h1v1h-1zM29 56h1v1h-1zM30 56h1v1h-1zM31 56h1v1h-1zM32 56h1v1h-1zM33 56h1v1h-1zM34 56h1v1h-1zM35 56h1v1h-1zM36 56h1v1h-1zM37 56h1v1h-1zM38 56h1v1h-1z"/><path fill="#CAE8EE" d="M39 56h1v1h-1z"/><path fill="#E0F1F4" d="M40 56h1v1h-1zM41 56h1v1h-1zM42 56h1v1h-1zM43 56h1v1h-1zM44 56h1v1h-1zM45 56h1v1h-1zM46 56h1v1h-1zM47 56h1v1h-1zM48 56h1v1h-1zM49 56h1v1h-1zM50 56h1v1h-1zM51 56h1v1h-1zM52 56h1v1h-1zM53 56h1v1h-1zM54 56h1v1h-1zM55 56h1v1h-1zM56 56h1v1h-1zM57 56h1v1h-1z"/><path fill="#CAE8EE" d="M58 56h1v1h-1z"/><path fill="#B1DEE7" d="M59 56h1v1h-1z"/><path fill="#AEDDE6" d="M60 56h1v1h-1zM61 56h1v1h-1zM62 56h1v1h-1zM63 56h1v1h-1z"/><path fill="#8BACB2" d="M64 56h1v1h-1z"/><path fill="#2C2422" d="M65 56h1v1h-1z"/><path fill="#231815" d="M66 56h1v1h-1zM67 56h1v1h-1zM68 56h1v1h-1zM69 56h1v1h-1zM8 57h1v1H8zM9 57h1v1H9zM10 57h1v1h-1z"/><path fill="#3F4645" d="M11 57h1v1h-1z"/><path fill="#92D1D3" d="M12 57h1v1h-1zM13 57h1v1h-1zM14 57h1v1h-1zM15 57h1v1h-1zM16 57h1v1h-1zM17 57h1v1h-1zM18 57h1v1h-1zM19 57h1v1h-1z"/><path fill="#8DCED0" d="M20 57h1v1h-1z"/><path fill="#75C1C4" d="M21 57h1v1h-1zM22 57h1v1h-1zM23 57h1v1h-1zM24 57h1v1h-1z"/><path fill="#8ACCD1" d="M25 57h1v1h-1z"/><path fill="#AADBE4" d="M26 57h1v1h-1z"/><path fill="#AEDDE6" d="M27 57h1v1h-1zM28 57h1v1h-1zM29 57h1v1h-1zM30 57h1v1h-1zM31 57h1v1h-1zM32 57h1v1h-1zM33 57h1v1h-1zM34 57h1v1h-1z"/><path fill="#B4E0E8" d="M35 57h1v1h-1z"/><path fill="#BBE2EA" d="M36 57h1v1h-1zM37 57h1v1h-1z"/><path fill="#BEE3EA" d="M38 57h1v1h-1z"/><path fill="#DDF0F3" d="M39 57h1v1h-1z"/><path fill="#E0F1F4" d="M40 57h1v1h-1zM41 57h1v1h-1zM42 57h1v1h-1zM43 57h1v1h-1zM44 57h1v1h-1zM45 57h1v1h-1zM46 57h1v1h-1zM47 57h1v1h-1zM48 57h1v1h-1zM49 57h1v1h-1zM50 57h1v1h-1zM51 57h1v1h-1zM52 57h1v1h-1zM53 57h1v1h-1zM54 57h1v1h-1zM55 57h1v1h-1z"/><path fill="#DAEFF2" d="M56 57h1v1h-1z"/><path fill="#BBE2EA" d="M57 57h1v1h-1z"/><path fill="#AEDDE6" d="M58 57h1v1h-1zM59 57h1v1h-1zM60 57h1v1h-1zM61 57h1v1h-1zM62 57h1v1h-1z"/><path fill="#697B7E" d="M63 57h1v1h-1z"/><path fill="#231815" d="M64 57h1v1h-1zM65 57h1v1h-1zM66 57h1v1h-1zM67 57h1v1h-1zM68 57h1v1h-1zM8 58h1v1H8zM9 58h1v1H9zM10 58h1v1h-1z"/><path fill="#465250" d="M11 58h1v1h-1z"/><path fill="#92D1D3" d="M12 58h1v1h-1zM13 58h1v1h-1zM14 58h1v1h-1zM15 58h1v1h-1zM16 58h1v1h-1zM17 58h1v1h-1zM18 58h1v1h-1z"/><path fill="#8DCED0" d="M19 58h1v1h-1z"/><path fill="#77C2C5" d="M20 58h1v1h-1z"/><path fill="#75C1C4" d="M21 58h1v1h-1zM22 58h1v1h-1zM23 58h1v1h-1z"/><path fill="#A4D6D9" d="M24 58h1v1h-1z"/><path fill="#D4ECF1" d="M25 58h1v1h-1zM26 58h1v1h-1z"/><path fill="#E0F1F4" d="M27 58h1v1h-1zM28 58h1v1h-1zM29 58h1v1h-1zM30 58h1v1h-1zM31 58h1v1h-1zM32 58h1v1h-1zM33 58h1v1h-1zM34 58h1v1h-1zM35 58h1v1h-1zM36 58h1v1h-1zM37 58h1v1h-1zM38 58h1v1h-1zM39 58h1v1h-1zM40 58h1v1h-1zM41 58h1v1h-1zM42 58h1v1h-1zM43 58h1v1h-1zM44 58h1v1h-1zM45 58h1v1h-1zM46 58h1v1h-1zM47 58h1v1h-1zM48 58h1v1h-1zM49 58h1v1h-1zM50 58h1v1h-1zM51 58h1v1h-1zM52 58h1v1h-1zM53 58h1v1h-1zM54 58h1v1h-1z"/><path fill="#C7E7ED" d="M55 58h1v1h-1z"/><path fill="#B1DEE7" d="M56 58h1v1h-1z"/><path fill="#AEDDE6" d="M57 58h1v1h-1zM58 58h1v1h-1zM59 58h1v1h-1zM60 58h1v1h-1z"/><path fill="#9DC4CC" d="M61 58h1v1h-1z"/><path fill="#464949" d="M62 58h1v1h-1z"/><path fill="#231815" d="M63 58h1v1h-1zM64 58h1v1h-1zM65 58h1v1h-1zM66 58h1v1h-1zM67 58h1v1h-1zM8 59h1v1H8zM9 59h1v1H9zM10 59h1v1h-1z"/><path fill="#5B7574" d="M11 59h1v1h-1z"/><path fill="#92D1D3" d="M12 59h1v1h-1zM13 59h1v1h-1zM14 59h1v1h-1zM15 59h1v1h-1zM16 59h1v1h-1zM17 59h1v1h-1z"/><path fill="#87CBCD" d="M18 59h1v1h-1z"/><path fill="#75C1C4" d="M19 59h1v1h-1zM20 59h1v1h-1zM21 59h1v1h-1zM22 59h1v1h-1z"/><path fill="#B8DFE2" d="M23 59h1v1h-1z"/><path fill="#E0F1F4" d="M24 59h1v1h-1zM25 59h1v1h-1zM26 59h1v1h-1zM27 59h1v1h-1zM28 59h1v1h-1zM29 59h1v1h-1zM30 59h1v1h-1zM31 59h1v1h-1zM32 59h1v1h-1zM33 59h1v1h-1zM34 59h1v1h-1zM35 59h1v1h-1zM36 59h1v1h-1zM37 59h1v1h-1zM38 59h1v1h-1zM39 59h1v1h-1zM40 59h1v1h-1zM41 59h1v1h-1zM42 59h1v1h-1zM43 59h1v1h-1zM44 59h1v1h-1zM45 59h1v1h-1zM46 59h1v1h-1zM47 59h1v1h-1zM48 59h1v1h-1zM49 59h1v1h-1zM50 59h1v1h-1zM51 59h1v1h-1zM52 59h1v1h-1z"/><path fill="#D4ECF1" d="M53 59h1v1h-1z"/><path fill="#B4E0E8" d="M54 59h1v1h-1z"/><path fill="#AEDDE6" d="M55 59h1v1h-1zM56 59h1v1h-1zM57 59h1v1h-1zM58 59h1v1h-1zM59 59h1v1h-1z"/><path fill="#697B7E" d="M60 59h1v1h-1z"/><path fill="#2C2422" d="M61 59h1v1h-1z"/><path fill="#231815" d="M62 59h1v1h-1zM63 59h1v1h-1zM64 59h1v1h-1zM65 59h1v1h-1zM66 59h1v1h-1zM8 60h1v1H8zM9 60h1v1H9zM10 60h1v1h-1z"/><path fill="#688C8C" d="M11 60h1v1h-1z"/><path fill="#92D1D3" d="M12 60h1v1h-1zM13 60h1v1h-1zM14 60h1v1h-1zM15 60h1v1h-1zM16 60h1v1h-1z"/><path fill="#84C9CC" d="M17 60h1v1h-1z"/><path fill="#75C1C4" d="M18 60h1v1h-1zM19 60h1v1h-1zM20 60h1v1h-1z"/><path fill="#7CC4C7" d="M21 60h1v1h-1z"/><path fill="#BFE2E5" d="M22 60h1v1h-1z"/><path fill="#E0F1F4" d="M23 60h1v1h-1zM24 60h1v1h-1zM25 60h1v1h-1zM26 60h1v1h-1zM27 60h1v1h-1zM28 60h1v1h-1zM29 60h1v1h-1zM30 60h1v1h-1zM31 60h1v1h-1zM32 60h1v1h-1zM33 60h1v1h-1zM34 60h1v1h-1zM35 60h1v1h-1zM36 60h1v1h-1zM37 60h1v1h-1zM38 60h1v1h-1zM39 60h1v1h-1zM40 60h1v1h-1zM41 60h1v1h-1zM42 60h1v1h-1zM43 60h1v1h-1zM44 60h1v1h-1zM45 60h1v1h-1zM46 60h1v1h-1zM47 60h1v1h-1zM48 60h1v1h-1zM49 60h1v1h-1zM50 60h1v1h-1z"/><path fill="#D4ECF1" d="M51 60h1v1h-1z"/><path fill="#BBE2EA" d="M52 60h1v1h-1z"/><path fill="#AEDDE6" d="M53 60h1v1h-1zM54 60h1v1h-1zM55 60h1v1h-1zM56 60h1v1h-1zM57 60h1v1h-1z"/><path fill="#8BACB2" d="M58 60h1v1h-1z"/><path fill="#34312F" d="M59 60h1v1h-1z"/><path fill="#231815" d="M60 60h1v1h-1zM61 60h1v1h-1zM62 60h1v1h-1zM63 60h1v1h-1zM64 60h1v1h-1zM65 60h1v1h-1zM8 61h1v1H8zM9 61h1v1H9zM10 61h1v1h-1z"/><path fill="#76A3A4" d="M11 61h1v1h-1z"/><path fill="#92D1D3" d="M12 61h1v1h-1zM13 61h1v1h-1zM14 61h1v1h-1zM15 61h1v1h-1z"/><path fill="#80C7CA" d="M16 61h1v1h-1z"/><path fill="#75C1C4" d="M17 61h1v1h-1zM18 61h1v1h-1zM19 61h1v1h-1z"/><path fill="#7CC4C7" d="M20 61h1v1h-1z"/><path fill="#CCE8EB" d="M21 61h1v1h-1z"/><path fill="#E0F1F4" d="M22 61h1v1h-1zM23 61h1v1h-1zM24 61h1v1h-1zM25 61h1v1h-1zM26 61h1v1h-1zM27 61h1v1h-1zM28 61h1v1h-1zM29 61h1v1h-1zM30 61h1v1h-1zM31 61h1v1h-1zM32 61h1v1h-1zM33 61h1v1h-1zM34 61h1v1h-1zM35 61h1v1h-1zM36 61h1v1h-1zM37 61h1v1h-1zM38 61h1v1h-1zM39 61h1v1h-1zM40 61h1v1h-1zM41 61h1v1h-1zM42 61h1v1h-1zM43 61h1v1h-1zM44 61h1v1h-1zM45 61h1v1h-1zM46 61h1v1h-1zM47 61h1v1h-1zM48 61h1v1h-1z"/><path fill="#DAEFF2" d="M49 61h1v1h-1z"/><path fill="#C1E5EB" d="M50 61h1v1h-1z"/><path fill="#AEDDE6" d="M51 61h1v1h-1zM52 61h1v1h-1zM53 61h1v1h-1zM54 61h1v1h-1zM55 61h1v1h-1z"/><path fill="#9DC4CC" d="M56 61h1v1h-1z"/><path fill="#464949" d="M57 61h1v1h-1z"/><path fill="#231815" d="M58 61h1v1h-1zM59 61h1v1h-1zM60 61h1v1h-1zM61 61h1v1h-1zM62 61h1v1h-1zM63 61h1v1h-1zM8 62h1v1H8zM9 62h1v1H9zM10 62h1v1h-1z"/><path fill="#7DAEAF" d="M11 62h1v1h-1z"/><path fill="#92D1D3" d="M12 62h1v1h-1zM13 62h1v1h-1z"/><path fill="#90D0D2" d="M14 62h1v1h-1z"/><path fill="#7CC5C8" d="M15 62h1v1h-1z"/><path fill="#75C1C4" d="M16 62h1v1h-1zM17 62h1v1h-1zM18 62h1v1h-1z"/><path fill="#89CACD" d="M19 62h1v1h-1z"/><path fill="#D9EEF1" d="M20 62h1v1h-1z"/><path fill="#E0F1F4" d="M21 62h1v1h-1zM22 62h1v1h-1zM23 62h1v1h-1zM24 62h1v1h-1zM25 62h1v1h-1zM26 62h1v1h-1zM27 62h1v1h-1zM28 62h1v1h-1zM29 62h1v1h-1zM30 62h1v1h-1zM31 62h1v1h-1zM32 62h1v1h-1zM33 62h1v1h-1zM34 62h1v1h-1zM35 62h1v1h-1zM36 62h1v1h-1zM37 62h1v1h-1zM38 62h1v1h-1zM39 62h1v1h-1zM40 62h1v1h-1zM41 62h1v1h-1zM42 62h1v1h-1zM43 62h1v1h-1zM44 62h1v1h-1zM45 62h1v1h-1zM46 62h1v1h-1z"/><path fill="#D4ECF1" d="M47 62h1v1h-1z"/><path fill="#BEE3EA" d="M48 62h1v1h-1z"/><path fill="#AEDDE6" d="M49 62h1v1h-1zM50 62h1v1h-1zM51 62h1v1h-1zM52 62h1v1h-1zM53 62h1v1h-1z"/><path fill="#94B8BF" d="M54 62h1v1h-1z"/><path fill="#576263" d="M55 62h1v1h-1z"/><path fill="#231815" d="M56 62h1v1h-1zM57 62h1v1h-1zM58 62h1v1h-1zM59 62h1v1h-1zM60 62h1v1h-1zM61 62h1v1h-1zM62 62h1v1h-1zM8 63h1v1H8zM9 63h1v1H9zM10 63h1v1h-1z"/><path fill="#92D1D3" d="M11 63h1v1h-1zM12 63h1v1h-1z"/><path fill="#90D0D2" d="M13 63h1v1h-1z"/><path fill="#7AC4C7" d="M14 63h1v1h-1z"/><path fill="#75C1C4" d="M15 63h1v1h-1zM16 63h1v1h-1zM17 63h1v1h-1z"/><path fill="#90CDD0" d="M18 63h1v1h-1z"/><path fill="#D9EEF1" d="M19 63h1v1h-1z"/><path fill="#E0F1F4" d="M20 63h1v1h-1zM21 63h1v1h-1zM22 63h1v1h-1zM23 63h1v1h-1zM24 63h1v1h-1zM25 63h1v1h-1zM26 63h1v1h-1zM27 63h1v1h-1zM28 63h1v1h-1zM29 63h1v1h-1zM30 63h1v1h-1zM31 63h1v1h-1zM32 63h1v1h-1zM33 63h1v1h-1zM34 63h1v1h-1zM35 63h1v1h-1zM36 63h1v1h-1zM37 63h1v1h-1zM38 63h1v1h-1zM39 63h1v1h-1zM40 63h1v1h-1zM41 63h1v1h-1zM42 63h1v1h-1zM43 63h1v1h-1zM44 63h1v1h-1z"/><path fill="#CDEAEF" d="M45 63h1v1h-1z"/><path fill="#BBE2EA" d="M46 63h1v1h-1z"/><path fill="#AEDDE6" d="M47 63h1v1h-1zM48 63h1v1h-1zM49 63h1v1h-1zM50 63h1v1h-1zM51 63h1v1h-1z"/><path fill="#839FA5" d="M52 63h1v1h-1z"/><path fill="#464949" d="M53 63h1v1h-1z"/><path fill="#231815" d="M54 63h1v1h-1zM55 63h1v1h-1zM56 63h1v1h-1zM57 63h1v1h-1zM58 63h1v1h-1zM59 63h1v1h-1zM60 63h1v1h-1zM8 64h1v1H8zM9 64h1v1H9zM10 64h1v1h-1z"/><path fill="#92D1D3" d="M11 64h1v1h-1z"/><path fill="#8DCED0" d="M12 64h1v1h-1z"/><path fill="#77C2C5" d="M13 64h1v1h-1z"/><path fill="#75C1C4" d="M14 64h1v1h-1zM15 64h1v1h-1zM16 64h1v1h-1z"/><path fill="#9DD3D6" d="M17 64h1v1h-1z"/><path fill="#E0F1F4" d="M18 64h1v1h-1zM19 64h1v1h-1zM20 64h1v1h-1zM21 64h1v1h-1zM22 64h1v1h-1zM23 64h1v1h-1zM24 64h1v1h-1zM25 64h1v1h-1zM26 64h1v1h-1zM27 64h1v1h-1zM28 64h1v1h-1zM29 64h1v1h-1zM30 64h1v1h-1zM31 64h1v1h-1zM32 64h1v1h-1zM33 64h1v1h-1zM34 64h1v1h-1zM35 64h1v1h-1zM36 64h1v1h-1zM37 64h1v1h-1zM38 64h1v1h-1zM39 64h1v1h-1zM40 64h1v1h-1zM41 64h1v1h-1z"/><path fill="#DAEFF2" d="M42 64h1v1h-1z"/><path fill="#C7E7ED" d="M43 64h1v1h-1z"/><path fill="#B4E0E8" d="M44 64h1v1h-1z"/><path fill="#AEDDE6" d="M45 64h1v1h-1zM46 64h1v1h-1zM47 64h1v1h-1zM48 64h1v1h-1z"/><path fill="#9DC4CC" d="M49 64h1v1h-1z"/><path fill="#697B7E" d="M50 64h1v1h-1z"/><path fill="#34312F" d="M51 64h1v1h-1z"/><path fill="#231815" d="M52 64h1v1h-1zM53 64h1v1h-1zM54 64h1v1h-1zM55 64h1v1h-1zM56 64h1v1h-1zM57 64h1v1h-1zM58 64h1v1h-1zM7 65h1v1H7zM8 65h1v1H8zM9 65h1v1H9zM10 65h1v1h-1z"/><path fill="#8BCDCF" d="M11 65h1v1h-1z"/><path fill="#77C2C5" d="M12 65h1v1h-1z"/><path fill="#75C1C4" d="M13 65h1v1h-1zM14 65h1v1h-1zM15 65h1v1h-1z"/><path fill="#B1DCDF" d="M16 65h1v1h-1z"/><path fill="#E0F1F4" d="M17 65h1v1h-1zM18 65h1v1h-1zM19 65h1v1h-1zM20 65h1v1h-1zM21 65h1v1h-1zM22 65h1v1h-1zM23 65h1v1h-1zM24 65h1v1h-1zM25 65h1v1h-1zM26 65h1v1h-1zM27 65h1v1h-1zM28 65h1v1h-1zM29 65h1v1h-1zM30 65h1v1h-1zM31 65h1v1h-1zM32 65h1v1h-1zM33 65h1v1h-1zM34 65h1v1h-1zM35 65h1v1h-1zM36 65h1v1h-1zM37 65h1v1h-1zM38 65h1v1h-1z"/><path fill="#DDF0F3" d="M39 65h1v1h-1z"/><path fill="#CDEAEF" d="M40 65h1v1h-1z"/><path fill="#BBE2EA" d="M41 65h1v1h-1z"/><path fill="#AEDDE6" d="M42 65h1v1h-1zM43 65h1v1h-1zM44 65h1v1h-1zM45 65h1v1h-1z"/><path fill="#9DC4CC" d="M46 65h1v1h-1z"/><path fill="#71878B" d="M47 65h1v1h-1z"/><path fill="#3D3D3C" d="M48 65h1v1h-1z"/><path fill="#231815" d="M49 65h1v1h-1zM50 65h1v1h-1zM51 65h1v1h-1zM52 65h1v1h-1zM53 65h1v1h-1zM54 65h1v1h-1zM55 65h1v1h-1zM56 65h1v1h-1zM7 66h1v1H7zM8 66h1v1H8zM9 66h1v1H9z"/><path fill="#394342" d="M10 66h1v1h-1z"/><path fill="#75C1C4" d="M11 66h1v1h-1zM12 66h1v1h-1zM13 66h1v1h-1zM14 66h1v1h-1z"/><path fill="#B8DFE2" d="M15 66h1v1h-1z"/><path fill="#E0F1F4" d="M16 66h1v1h-1zM17 66h1v1h-1zM18 66h1v1h-1zM19 66h1v1h-1zM20 66h1v1h-1zM21 66h1v1h-1zM22 66h1v1h-1zM23 66h1v1h-1zM24 66h1v1h-1zM25 66h1v1h-1zM26 66h1v1h-1zM27 66h1v1h-1zM28 66h1v1h-1zM29 66h1v1h-1zM30 66h1v1h-1zM31 66h1v1h-1zM32 66h1v1h-1zM33 66h1v1h-1zM34 66h1v1h-1zM35 66h1v1h-1z"/><path fill="#DAEFF2" d="M36 66h1v1h-1z"/><path fill="#CDEAEF" d="M37 66h1v1h-1z"/><path fill="#BEE3EA" d="M38 66h1v1h-1z"/><path fill="#AEDDE6" d="M39 66h1v1h-1zM40 66h1v1h-1zM41 66h1v1h-1z"/><path fill="#A5D1D9" d="M42 66h1v1h-1z"/><path fill="#839FA5" d="M43 66h1v1h-1z"/><path fill="#606E70" d="M44 66h1v1h-1z"/><path fill="#3D3D3C" d="M45 66h1v1h-1z"/><path fill="#231815" d="M46 66h1v1h-1zM47 66h1v1h-1zM48 66h1v1h-1zM49 66h1v1h-1zM50 66h1v1h-1zM51 66h1v1h-1zM52 66h1v1h-1zM53 66h1v1h-1zM54 66h1v1h-1zM7 67h1v1H7zM8 67h1v1H8zM9 67h1v1H9z"/><path fill="#384241" d="M10 67h1v1h-1z"/><path fill="#75C1C4" d="M11 67h1v1h-1zM12 67h1v1h-1z"/><path fill="#7CC4C7" d="M13 67h1v1h-1z"/><path fill="#CCE8EB" d="M14 67h1v1h-1z"/><path fill="#E0F1F4" d="M15 67h1v1h-1zM16 67h1v1h-1zM17 67h1v1h-1zM18 67h1v1h-1zM19 67h1v1h-1zM20 67h1v1h-1zM21 67h1v1h-1zM22 67h1v1h-1zM23 67h1v1h-1zM24 67h1v1h-1zM25 67h1v1h-1zM26 67h1v1h-1zM27 67h1v1h-1zM28 67h1v1h-1zM29 67h1v1h-1zM30 67h1v1h-1zM31 67h1v1h-1zM32 67h1v1h-1z"/><path fill="#D4ECF1" d="M33 67h1v1h-1z"/><path fill="#C4E6EC" d="M34 67h1v1h-1z"/><path fill="#B7E1E9" d="M35 67h1v1h-1z"/><path fill="#AEDDE6" d="M36 67h1v1h-1zM37 67h1v1h-1z"/><path fill="#94B8BF" d="M38 67h1v1h-1z"/><path fill="#7A9398" d="M39 67h1v1h-1z"/><path fill="#606E70" d="M40 67h1v1h-1z"/><path fill="#3D3D3C" d="M41 67h1v1h-1z"/><path fill="#231815" d="M42 67h1v1h-1zM43 67h1v1h-1zM44 67h1v1h-1zM45 67h1v1h-1zM46 67h1v1h-1zM47 67h1v1h-1zM48 67h1v1h-1zM49 67h1v1h-1zM50 67h1v1h-1zM51 67h1v1h-1zM52 67h1v1h-1zM7 68h1v1H7zM8 68h1v1H8zM9 68h1v1H9z"/><path fill="#323836" d="M10 68h1v1h-1z"/><path fill="#75C1C4" d="M11 68h1v1h-1z"/><path fill="#7CC4C7" d="M12 68h1v1h-1z"/><path fill="#CCE8EB" d="M13 68h1v1h-1z"/><path fill="#E0F1F4" d="M14 68h1v1h-1zM15 68h1v1h-1zM16 68h1v1h-1zM17 68h1v1h-1zM18 68h1v1h-1zM19 68h1v1h-1zM20 68h1v1h-1zM21 68h1v1h-1zM22 68h1v1h-1zM23 68h1v1h-1zM24 68h1v1h-1zM25 68h1v1h-1zM26 68h1v1h-1zM27 68h1v1h-1z"/><path fill="#D7EDF1" d="M28 68h1v1h-1z"/><path fill="#CDEAEF" d="M29 68h1v1h-1z"/><path fill="#BBD9DF" d="M30 68h1v1h-1z"/><path fill="#98B1B5" d="M31 68h1v1h-1z"/><path fill="#8BACB2" d="M32 68h1v1h-1z"/><path fill="#71878B" d="M33 68h1v1h-1z"/><path fill="#697B7E" d="M34 68h1v1h-1z"/><path fill="#464949" d="M35 68h1v1h-1z"/><path fill="#3D3D3C" d="M36 68h1v1h-1z"/><path fill="#231815" d="M37 68h1v1h-1zM38 68h1v1h-1zM39 68h1v1h-1zM40 68h1v1h-1zM41 68h1v1h-1zM42 68h1v1h-1zM43 68h1v1h-1zM44 68h1v1h-1zM45 68h1v1h-1zM46 68h1v1h-1zM47 68h1v1h-1zM48 68h1v1h-1zM49 68h1v1h-1zM7 69h1v1H7zM8 69h1v1H8zM9 69h1v1H9zM10 69h1v1h-1zM11 69h1v1h-1zM12 69h1v1h-1zM13 69h1v1h-1z"/><path fill="#2F2623" d="M14 69h1v1h-1z"/><path fill="#524E4D" d="M15 69h1v1h-1zM16 69h1v1h-1zM17 69h1v1h-1zM18 69h1v1h-1zM19 69h1v1h-1zM20 69h1v1h-1zM21 69h1v1h-1zM22 69h1v1h-1zM23 69h1v1h-1zM24 69h1v1h-1zM25 69h1v1h-1z"/><path fill="#4F4D4C" d="M26 69h1v1h-1z"/><path fill="#34312F" d="M27 69h1v1h-1z"/><path fill="#231815" d="M28 69h1v1h-1zM29 69h1v1h-1zM30 69h1v1h-1zM31 69h1v1h-1zM32 69h1v1h-1zM33 69h1v1h-1zM34 69h1v1h-1zM35 69h1v1h-1zM36 69h1v1h-1zM37 69h1v1h-1zM38 69h1v1h-1zM39 69h1v1h-1zM40 69h1v1h-1zM41 69h1v1h-1zM42 69h1v1h-1zM43 69h1v1h-1zM44 69h1v1h-1zM45 69h1v1h-1zM46 69h1v1h-1zM7 70h1v1H7zM8 70h1v1H8zM9 70h1v1H9zM10 70h1v1h-1zM11 70h1v1h-1zM12 70h1v1h-1zM13 70h1v1h-1zM14 70h1v1h-1zM15 70h1v1h-1zM16 70h1v1h-1zM17 70h1v1h-1zM18 70h1v1h-1zM19 70h1v1h-1zM20 70h1v1h-1zM21 70h1v1h-1zM22 70h1v1h-1zM23 70h1v1h-1zM24 70h1v1h-1zM25 70h1v1h-1zM26 70h1v1h-1zM27 70h1v1h-1zM28 70h1v1h-1zM29 70h1v1h-1zM30 70h1v1h-1zM31 70h1v1h-1zM32 70h1v1h-1zM33 70h1v1h-1zM34 70h1v1h-1zM35 70h1v1h-1zM36 70h1v1h-1zM37 70h1v1h-1zM38 70h1v1h-1zM39 70h1v1h-1zM40 70h1v1h-1zM41 70h1v1h-1zM42 70h1v1h-1zM6 71h1v1H6zM7 71h1v1H7zM8 71h1v1H8zM9 71h1v1H9zM10 71h1v1h-1zM11 71h1v1h-1zM12 71h1v1h-1zM13 71h1v1h-1zM14 71h1v1h-1zM15 71h1v1h-1zM16 71h1v1h-1zM17 71h1v1h-1zM18 71h1v1h-1zM19 71h1v1h-1zM20 71h1v1h-1zM21 71h1v1h-1zM22 71h1v1h-1zM23 71h1v1h-1zM24 71h1v1h-1zM25 71h1v1h-1zM26 71h1v1h-1zM27 71h1v1h-1zM28 71h1v1h-1zM29 71h1v1h-1zM30 71h1v1h-1zM31 71h1v1h-1zM32 71h1v1h-1zM33 71h1v1h-1zM34 71h1v1h-1zM35 71h1v1h-1zM36 71h1v1h-1zM37 71h1v1h-1zM5 72h1v1H5zM6 72h1v1H6zM7 72h1v1H7zM8 72h1v1H8zM9 72h1v1H9zM10 72h1v1h-1zM14 72h1v1h-1zM15 72h1v1h-1zM16 72h1v1h-1zM17 72h1v1h-1zM18 72h1v1h-1zM19 72h1v1h-1zM20 72h1v1h-1zM21 72h1v1h-1zM22 72h1v1h-1zM23 72h1v1h-1zM24 72h1v1h-1zM25 72h1v1h-1zM26 72h1v1h-1zM27 72h1v1h-1zM4 73h1v1H4zM5 73h1v1H5zM6 73h1v1H6zM7 73h1v1H7zM8 73h1v1H8zM9 73h1v1H9zM3 74h1v1H3zM4 74h1v1H4zM5 74h1v1H5zM6 74h1v1H6zM7 74h1v1H7zM8 74h1v1H8zM2 75h1v1H2zM3 75h1v1H3zM4 75h1v1H4zM5 75h1v1H5zM6 75h1v1H6zM7 75h1v1H7zM1 76h1v1H1zM2 76h1v1H2zM3 76h1v1H3zM4 76h1v1H4zM5 76h1v1H5zM6 76h1v1H6zM1 77h1v1H1zM2 77h1v1H2zM3 77h1v1H3zM4 77h1v1H4zM5 77h1v1H5zM0 78h1v1H0zM1 78h1v1H1zM2 78h1v1H2zM3 78h1v1H3zM4 78h1v1H4zM0 79h1v1H0zM1 79h1v1H1zM2 79h1v1H2zM3 79h1v1H3zM0 80h1v1H0zM1 80h1v1H1zM2 80h1v1H2zM3 80h1v1H3zM0 81h1v1H0zM1 81h1v1H1zM2 81h1v1H2z"/></svg>