<svg baseProfile="full" height="90" width="64" xmlns="http://www.w3.org/2000/svg"><path fill="#231815" d="M26 0h1v1h-1zM27 0h1v1h-1zM28 0h1v1h-1zM29 0h1v1h-1zM30 0h1v1h-1zM31 0h1v1h-1zM32 0h1v1h-1zM33 0h1v1h-1zM34 0h1v1h-1zM35 0h1v1h-1zM36 0h1v1h-1zM37 0h1v1h-1zM23 1h1v1h-1zM24 1h1v1h-1zM25 1h1v1h-1zM26 1h1v1h-1zM27 1h1v1h-1zM28 1h1v1h-1zM29 1h1v1h-1zM30 1h1v1h-1zM31 1h1v1h-1zM32 1h1v1h-1zM33 1h1v1h-1zM34 1h1v1h-1zM35 1h1v1h-1zM36 1h1v1h-1zM37 1h1v1h-1zM38 1h1v1h-1zM39 1h1v1h-1zM40 1h1v1h-1zM22 2h1v1h-1zM23 2h1v1h-1zM24 2h1v1h-1zM25 2h1v1h-1zM26 2h1v1h-1zM27 2h1v1h-1zM28 2h1v1h-1zM29 2h1v1h-1zM30 2h1v1h-1zM31 2h1v1h-1zM32 2h1v1h-1zM33 2h1v1h-1zM34 2h1v1h-1zM35 2h1v1h-1zM36 2h1v1h-1zM37 2h1v1h-1zM38 2h1v1h-1zM39 2h1v1h-1zM40 2h1v1h-1zM41 2h1v1h-1zM21 3h1v1h-1zM22 3h1v1h-1zM23 3h1v1h-1zM24 3h1v1h-1zM25 3h1v1h-1zM26 3h1v1h-1z"/><path fill="#3D3A3C" d="M27 3h1v1h-1z"/><path fill="#464649" d="M28 3h1v1h-1z"/><path fill="#606870" d="M29 3h1v1h-1z"/><path fill="#69747E" d="M30 3h1v1h-1zM31 3h1v1h-1zM32 3h1v1h-1z"/><path fill="#61707C" d="M33 3h1v1h-1z"/><path fill="#55697A" d="M34 3h1v1h-1z"/><path fill="#4E5F6D" d="M35 3h1v1h-1z"/><path fill="#3C4147" d="M36 3h1v1h-1z"/><path fill="#231815" d="M37 3h1v1h-1zM38 3h1v1h-1zM39 3h1v1h-1zM40 3h1v1h-1zM41 3h1v1h-1zM21 4h1v1h-1zM22 4h1v1h-1zM23 4h1v1h-1z"/><path fill="#352F2F" d="M24 4h1v1h-1z"/><path fill="#8396A5" d="M25 4h1v1h-1z"/><path fill="#AFCFE6" d="M26 4h1v1h-1zM27 4h1v1h-1zM28 4h1v1h-1zM29 4h1v1h-1zM30 4h1v1h-1zM31 4h1v1h-1z"/><path fill="#A7CBE5" d="M32 4h1v1h-1z"/><path fill="#89BBDF" d="M33 4h1v1h-1z"/><path fill="#86BADE" d="M34 4h1v1h-1zM35 4h1v1h-1z"/><path fill="#7FB5D7" d="M36 4h1v1h-1z"/><path fill="#6DA9C6" d="M37 4h1v1h-1z"/><path fill="#354E54" d="M38 4h1v1h-1z"/><path fill="#231815" d="M39 4h1v1h-1zM40 4h1v1h-1zM41 4h1v1h-1zM21 5h1v1h-1zM22 5h1v1h-1zM23 5h1v1h-1z"/><path fill="#606870" d="M24 5h1v1h-1z"/><path fill="#AFCFE6" d="M25 5h1v1h-1zM26 5h1v1h-1zM27 5h1v1h-1zM28 5h1v1h-1zM29 5h1v1h-1zM30 5h1v1h-1z"/><path fill="#ACCEE6" d="M31 5h1v1h-1z"/><path fill="#89BBDF" d="M32 5h1v1h-1z"/><path fill="#86BADE" d="M33 5h1v1h-1z"/><path fill="#7BB3D4" d="M34 5h1v1h-1z"/><path fill="#5F9FB8" d="M35 5h1v1h-1z"/><path fill="#4D93A6" d="M36 5h1v1h-1zM37 5h1v1h-1z"/><path fill="#4A8B9D" d="M38 5h1v1h-1z"/><path fill="#231815" d="M39 5h1v1h-1zM40 5h1v1h-1zM41 5h1v1h-1zM42 5h1v1h-1zM20 6h1v1h-1zM21 6h1v1h-1zM22 6h1v1h-1zM23 6h1v1h-1z"/><path fill="#95ADBF" d="M24 6h1v1h-1z"/><path fill="#AFCFE6" d="M25 6h1v1h-1zM26 6h1v1h-1zM27 6h1v1h-1zM28 6h1v1h-1zM29 6h1v1h-1zM30 6h1v1h-1z"/><path fill="#9BC5E2" d="M31 6h1v1h-1z"/><path fill="#86BADE" d="M32 6h1v1h-1z"/><path fill="#7BB3D4" d="M33 6h1v1h-1z"/><path fill="#4D93A6" d="M34 6h1v1h-1zM35 6h1v1h-1zM36 6h1v1h-1zM37 6h1v1h-1zM38 6h1v1h-1z"/><path fill="#33464B" d="M39 6h1v1h-1z"/><path fill="#231815" d="M40 6h1v1h-1zM41 6h1v1h-1zM42 6h1v1h-1zM20 7h1v1h-1zM21 7h1v1h-1zM22 7h1v1h-1z"/><path fill="#2D2925" d="M23 7h1v1h-1z"/><path fill="#91B6BF" d="M24 7h1v1h-1zM25 7h1v1h-1zM26 7h1v1h-1zM27 7h1v1h-1z"/><path fill="#97BBC5" d="M28 7h1v1h-1z"/><path fill="#9ABCC7" d="M29 7h1v1h-1zM30 7h1v1h-1z"/><path fill="#88B9D8" d="M31 7h1v1h-1z"/><path fill="#86BADE" d="M32 7h1v1h-1zM33 7h1v1h-1z"/><path fill="#5195AA" d="M34 7h1v1h-1z"/><path fill="#4D93A6" d="M35 7h1v1h-1zM36 7h1v1h-1zM37 7h1v1h-1zM38 7h1v1h-1z"/><path fill="#488494" d="M39 7h1v1h-1z"/><path fill="#231815" d="M40 7h1v1h-1zM41 7h1v1h-1zM42 7h1v1h-1zM43 7h1v1h-1zM20 8h1v1h-1zM21 8h1v1h-1zM22 8h1v1h-1z"/><path fill="#2B3C2D" d="M23 8h1v1h-1z"/><path fill="#356A4B" d="M24 8h1v1h-1zM25 8h1v1h-1zM26 8h1v1h-1zM27 8h1v1h-1z"/><path fill="#588267" d="M28 8h1v1h-1z"/><path fill="#5A8469" d="M29 8h1v1h-1zM30 8h1v1h-1z"/><path fill="#76A6B2" d="M31 8h1v1h-1z"/><path fill="#86BADE" d="M32 8h1v1h-1zM33 8h1v1h-1z"/><path fill="#62A2BB" d="M34 8h1v1h-1z"/><path fill="#4D93A6" d="M35 8h1v1h-1zM36 8h1v1h-1zM37 8h1v1h-1zM38 8h1v1h-1zM39 8h1v1h-1z"/><path fill="#303E42" d="M40 8h1v1h-1z"/><path fill="#231815" d="M41 8h1v1h-1zM42 8h1v1h-1zM43 8h1v1h-1zM19 9h1v1h-1zM20 9h1v1h-1zM21 9h1v1h-1zM22 9h1v1h-1z"/><path fill="#325B41" d="M23 9h1v1h-1z"/><path fill="#356A4B" d="M24 9h1v1h-1zM25 9h1v1h-1zM26 9h1v1h-1z"/><path fill="#417254" d="M27 9h1v1h-1z"/><path fill="#5A8469" d="M28 9h1v1h-1zM29 9h1v1h-1zM30 9h1v1h-1z"/><path fill="#68958E" d="M31 9h1v1h-1z"/><path fill="#86BADE" d="M32 9h1v1h-1zM33 9h1v1h-1z"/><path fill="#74AECD" d="M34 9h1v1h-1z"/><path fill="#4D93A6" d="M35 9h1v1h-1zM36 9h1v1h-1zM37 9h1v1h-1zM38 9h1v1h-1zM39 9h1v1h-1z"/><path fill="#437482" d="M40 9h1v1h-1z"/><path fill="#231815" d="M41 9h1v1h-1zM42 9h1v1h-1zM43 9h1v1h-1zM44 9h1v1h-1zM19 10h1v1h-1zM20 10h1v1h-1zM21 10h1v1h-1z"/><path fill="#25221C" d="M22 10h1v1h-1z"/><path fill="#356A4B" d="M23 10h1v1h-1zM24 10h1v1h-1zM25 10h1v1h-1zM26 10h1v1h-1z"/><path fill="#4A795C" d="M27 10h1v1h-1z"/><path fill="#5A8469" d="M28 10h1v1h-1zM29 10h1v1h-1zM30 10h1v1h-1zM31 10h1v1h-1z"/><path fill="#83B7D7" d="M32 10h1v1h-1z"/><path fill="#86BADE" d="M33 10h1v1h-1zM34 10h1v1h-1z"/><path fill="#5195AA" d="M35 10h1v1h-1z"/><path fill="#4D93A6" d="M36 10h1v1h-1zM37 10h1v1h-1zM38 10h1v1h-1zM39 10h1v1h-1zM40 10h1v1h-1z"/><path fill="#2B2F30" d="M41 10h1v1h-1z"/><path fill="#231815" d="M42 10h1v1h-1zM43 10h1v1h-1zM44 10h1v1h-1zM19 11h1v1h-1zM20 11h1v1h-1zM21 11h1v1h-1z"/><path fill="#2B3C2D" d="M22 11h1v1h-1z"/><path fill="#356A4B" d="M23 11h1v1h-1zM24 11h1v1h-1zM25 11h1v1h-1zM26 11h1v1h-1z"/><path fill="#558165" d="M27 11h1v1h-1z"/><path fill="#5A8469" d="M28 11h1v1h-1zM29 11h1v1h-1zM30 11h1v1h-1zM31 11h1v1h-1z"/><path fill="#76A6B2" d="M32 11h1v1h-1z"/><path fill="#86BADE" d="M33 11h1v1h-1zM34 11h1v1h-1z"/><path fill="#62A2BB" d="M35 11h1v1h-1z"/><path fill="#4D93A6" d="M36 11h1v1h-1zM37 11h1v1h-1zM38 11h1v1h-1zM39 11h1v1h-1zM40 11h1v1h-1z"/><path fill="#3D6570" d="M41 11h1v1h-1z"/><path fill="#231815" d="M42 11h1v1h-1zM43 11h1v1h-1zM44 11h1v1h-1zM45 11h1v1h-1zM19 12h1v1h-1zM20 12h1v1h-1zM21 12h1v1h-1z"/><path fill="#325B41" d="M22 12h1v1h-1z"/><path fill="#356A4B" d="M23 12h1v1h-1zM24 12h1v1h-1zM25 12h1v1h-1z"/><path fill="#3C6F51" d="M26 12h1v1h-1z"/><path fill="#5A8469" d="M27 12h1v1h-1zM28 12h1v1h-1zM29 12h1v1h-1zM30 12h1v1h-1zM31 12h1v1h-1z"/><path fill="#68958E" d="M32 12h1v1h-1z"/><path fill="#86BADE" d="M33 12h1v1h-1zM34 12h1v1h-1z"/><path fill="#74AECD" d="M35 12h1v1h-1z"/><path fill="#4D93A6" d="M36 12h1v1h-1zM37 12h1v1h-1zM38 12h1v1h-1zM39 12h1v1h-1zM40 12h1v1h-1zM41 12h1v1h-1z"/><path fill="#282727" d="M42 12h1v1h-1z"/><path fill="#231815" d="M43 12h1v1h-1zM44 12h1v1h-1zM45 12h1v1h-1zM18 13h1v1h-1zM19 13h1v1h-1zM20 13h1v1h-1z"/><path fill="#25221C" d="M21 13h1v1h-1z"/><path fill="#356A4B" d="M22 13h1v1h-1zM23 13h1v1h-1zM24 13h1v1h-1zM25 13h1v1h-1z"/><path fill="#457558" d="M26 13h1v1h-1z"/><path fill="#5A8469" d="M27 13h1v1h-1zM28 13h1v1h-1zM29 13h1v1h-1zM30 13h1v1h-1zM31 13h1v1h-1zM32 13h1v1h-1z"/><path fill="#83B7D7" d="M33 13h1v1h-1z"/><path fill="#86BADE" d="M34 13h1v1h-1zM35 13h1v1h-1z"/><path fill="#5195AA" d="M36 13h1v1h-1z"/><path fill="#4D93A6" d="M37 13h1v1h-1zM38 13h1v1h-1zM39 13h1v1h-1zM40 13h1v1h-1zM41 13h1v1h-1z"/><path fill="#3B5D67" d="M42 13h1v1h-1z"/><path fill="#231815" d="M43 13h1v1h-1zM44 13h1v1h-1zM45 13h1v1h-1zM18 14h1v1h-1zM19 14h1v1h-1zM20 14h1v1h-1z"/><path fill="#2B3C2D" d="M21 14h1v1h-1z"/><path fill="#356A4B" d="M22 14h1v1h-1zM23 14h1v1h-1zM24 14h1v1h-1zM25 14h1v1h-1z"/><path fill="#537F63" d="M26 14h1v1h-1z"/><path fill="#5A8469" d="M27 14h1v1h-1zM28 14h1v1h-1zM29 14h1v1h-1zM30 14h1v1h-1zM31 14h1v1h-1zM32 14h1v1h-1z"/><path fill="#76A6B2" d="M33 14h1v1h-1z"/><path fill="#86BADE" d="M34 14h1v1h-1zM35 14h1v1h-1z"/><path fill="#62A2BB" d="M36 14h1v1h-1z"/><path fill="#4D93A6" d="M37 14h1v1h-1zM38 14h1v1h-1zM39 14h1v1h-1zM40 14h1v1h-1zM41 14h1v1h-1z"/><path fill="#4A8B9D" d="M42 14h1v1h-1z"/><path fill="#26201E" d="M43 14h1v1h-1z"/><path fill="#231815" d="M44 14h1v1h-1zM45 14h1v1h-1zM46 14h1v1h-1zM18 15h1v1h-1zM19 15h1v1h-1zM20 15h1v1h-1z"/><path fill="#325B41" d="M21 15h1v1h-1z"/><path fill="#356A4B" d="M22 15h1v1h-1zM23 15h1v1h-1zM24 15h1v1h-1z"/><path fill="#376C4D" d="M25 15h1v1h-1z"/><path fill="#5A8469" d="M26 15h1v1h-1zM27 15h1v1h-1zM28 15h1v1h-1zM29 15h1v1h-1zM30 15h1v1h-1zM31 15h1v1h-1zM32 15h1v1h-1z"/><path fill="#68958E" d="M33 15h1v1h-1z"/><path fill="#86BADE" d="M34 15h1v1h-1zM35 15h1v1h-1z"/><path fill="#74AECD" d="M36 15h1v1h-1z"/><path fill="#4D93A6" d="M37 15h1v1h-1zM38 15h1v1h-1zM39 15h1v1h-1zM40 15h1v1h-1zM41 15h1v1h-1zM42 15h1v1h-1z"/><path fill="#38565E" d="M43 15h1v1h-1z"/><path fill="#231815" d="M44 15h1v1h-1zM45 15h1v1h-1zM46 15h1v1h-1zM17 16h1v1h-1zM18 16h1v1h-1zM19 16h1v1h-1z"/><path fill="#25221C" d="M20 16h1v1h-1z"/><path fill="#356A4B" d="M21 16h1v1h-1zM22 16h1v1h-1zM23 16h1v1h-1zM24 16h1v1h-1z"/><path fill="#437456" d="M25 16h1v1h-1z"/><path fill="#5A8469" d="M26 16h1v1h-1zM27 16h1v1h-1zM28 16h1v1h-1zM29 16h1v1h-1zM30 16h1v1h-1zM31 16h1v1h-1zM32 16h1v1h-1zM33 16h1v1h-1z"/><path fill="#83B7D7" d="M34 16h1v1h-1z"/><path fill="#86BADE" d="M35 16h1v1h-1zM36 16h1v1h-1z"/><path fill="#5195AA" d="M37 16h1v1h-1z"/><path fill="#4D93A6" d="M38 16h1v1h-1zM39 16h1v1h-1zM40 16h1v1h-1zM41 16h1v1h-1zM42 16h1v1h-1z"/><path fill="#488494" d="M43 16h1v1h-1z"/><path fill="#231815" d="M44 16h1v1h-1zM45 16h1v1h-1zM46 16h1v1h-1zM47 16h1v1h-1zM17 17h1v1h-1zM18 17h1v1h-1zM19 17h1v1h-1z"/><path fill="#2A3729" d="M20 17h1v1h-1z"/><path fill="#356A4B" d="M21 17h1v1h-1zM22 17h1v1h-1zM23 17h1v1h-1zM24 17h1v1h-1z"/><path fill="#4E7C60" d="M25 17h1v1h-1z"/><path fill="#5A8469" d="M26 17h1v1h-1zM27 17h1v1h-1zM28 17h1v1h-1zM29 17h1v1h-1zM30 17h1v1h-1zM31 17h1v1h-1zM32 17h1v1h-1zM33 17h1v1h-1z"/><path fill="#78A9B9" d="M34 17h1v1h-1z"/><path fill="#86BADE" d="M35 17h1v1h-1zM36 17h1v1h-1z"/><path fill="#62A2BB" d="M37 17h1v1h-1z"/><path fill="#4D93A6" d="M38 17h1v1h-1zM39 17h1v1h-1zM40 17h1v1h-1zM41 17h1v1h-1zM42 17h1v1h-1zM43 17h1v1h-1z"/><path fill="#33464B" d="M44 17h1v1h-1z"/><path fill="#231815" d="M45 17h1v1h-1zM46 17h1v1h-1zM47 17h1v1h-1zM17 18h1v1h-1zM18 18h1v1h-1zM19 18h1v1h-1z"/><path fill="#2F503A" d="M20 18h1v1h-1z"/><path fill="#356A4B" d="M21 18h1v1h-1zM22 18h1v1h-1zM23 18h1v1h-1zM24 18h1v1h-1z"/><path fill="#588267" d="M25 18h1v1h-1z"/><path fill="#5A8469" d="M26 18h1v1h-1zM27 18h1v1h-1zM28 18h1v1h-1zM29 18h1v1h-1zM30 18h1v1h-1zM31 18h1v1h-1zM32 18h1v1h-1zM33 18h1v1h-1z"/><path fill="#6B9895" d="M34 18h1v1h-1z"/><path fill="#86BADE" d="M35 18h1v1h-1zM36 18h1v1h-1z"/><path fill="#7BB3D4" d="M37 18h1v1h-1z"/><path fill="#4D93A6" d="M38 18h1v1h-1zM39 18h1v1h-1zM40 18h1v1h-1zM41 18h1v1h-1zM42 18h1v1h-1zM43 18h1v1h-1z"/><path fill="#488494" d="M44 18h1v1h-1z"/><path fill="#231815" d="M45 18h1v1h-1zM46 18h1v1h-1zM47 18h1v1h-1zM48 18h1v1h-1zM16 19h1v1h-1zM17 19h1v1h-1zM18 19h1v1h-1z"/><path fill="#241D18" d="M19 19h1v1h-1z"/><path fill="#356A4B" d="M20 19h1v1h-1zM21 19h1v1h-1zM22 19h1v1h-1zM23 19h1v1h-1z"/><path fill="#417254" d="M24 19h1v1h-1z"/><path fill="#5A8469" d="M25 19h1v1h-1zM26 19h1v1h-1zM27 19h1v1h-1zM28 19h1v1h-1zM29 19h1v1h-1zM30 19h1v1h-1zM31 19h1v1h-1zM32 19h1v1h-1zM33 19h1v1h-1z"/><path fill="#5D8770" d="M34 19h1v1h-1z"/><path fill="#86BADE" d="M35 19h1v1h-1zM36 19h1v1h-1zM37 19h1v1h-1z"/><path fill="#5498AD" d="M38 19h1v1h-1z"/><path fill="#4D93A6" d="M39 19h1v1h-1zM40 19h1v1h-1zM41 19h1v1h-1zM42 19h1v1h-1zM43 19h1v1h-1zM44 19h1v1h-1z"/><path fill="#2E3739" d="M45 19h1v1h-1z"/><path fill="#231815" d="M46 19h1v1h-1zM47 19h1v1h-1zM48 19h1v1h-1zM16 20h1v1h-1zM17 20h1v1h-1zM18 20h1v1h-1z"/><path fill="#2A3729" d="M19 20h1v1h-1z"/><path fill="#356A4B" d="M20 20h1v1h-1zM21 20h1v1h-1zM22 20h1v1h-1zM23 20h1v1h-1z"/><path fill="#4A795C" d="M24 20h1v1h-1z"/><path fill="#5A8469" d="M25 20h1v1h-1zM26 20h1v1h-1zM27 20h1v1h-1zM28 20h1v1h-1zM29 20h1v1h-1zM30 20h1v1h-1zM31 20h1v1h-1zM32 20h1v1h-1zM33 20h1v1h-1zM34 20h1v1h-1z"/><path fill="#78A9B9" d="M35 20h1v1h-1z"/><path fill="#86BADE" d="M36 20h1v1h-1zM37 20h1v1h-1z"/><path fill="#66A4BF" d="M38 20h1v1h-1z"/><path fill="#4D93A6" d="M39 20h1v1h-1zM40 20h1v1h-1zM41 20h1v1h-1zM42 20h1v1h-1zM43 20h1v1h-1zM44 20h1v1h-1z"/><path fill="#437482" d="M45 20h1v1h-1z"/><path fill="#231815" d="M46 20h1v1h-1zM47 20h1v1h-1zM48 20h1v1h-1zM49 20h1v1h-1zM16 21h1v1h-1zM17 21h1v1h-1zM18 21h1v1h-1z"/><path fill="#2F503A" d="M19 21h1v1h-1z"/><path fill="#356A4B" d="M20 21h1v1h-1zM21 21h1v1h-1zM22 21h1v1h-1zM23 21h1v1h-1z"/><path fill="#558165" d="M24 21h1v1h-1z"/><path fill="#5A8469" d="M25 21h1v1h-1zM26 21h1v1h-1zM27 21h1v1h-1zM28 21h1v1h-1zM29 21h1v1h-1zM30 21h1v1h-1zM31 21h1v1h-1zM32 21h1v1h-1zM33 21h1v1h-1zM34 21h1v1h-1z"/><path fill="#6B9895" d="M35 21h1v1h-1z"/><path fill="#86BADE" d="M36 21h1v1h-1zM37 21h1v1h-1z"/><path fill="#7BB3D4" d="M38 21h1v1h-1z"/><path fill="#4D93A6" d="M39 21h1v1h-1zM40 21h1v1h-1zM41 21h1v1h-1zM42 21h1v1h-1zM43 21h1v1h-1zM44 21h1v1h-1zM45 21h1v1h-1z"/><path fill="#2B2F30" d="M46 21h1v1h-1z"/><path fill="#231815" d="M47 21h1v1h-1zM48 21h1v1h-1zM49 21h1v1h-1zM15 22h1v1h-1zM16 22h1v1h-1zM17 22h1v1h-1z"/><path fill="#241D18" d="M18 22h1v1h-1z"/><path fill="#356A4B" d="M19 22h1v1h-1zM20 22h1v1h-1z"/><path fill="#46795E" d="M21 22h1v1h-1z"/><path fill="#578870" d="M22 22h1v1h-1z"/><path fill="#598972" d="M23 22h1v1h-1z"/><path fill="#709A85" d="M24 22h1v1h-1z"/><path fill="#69957F" d="M25 22h1v1h-1zM26 22h1v1h-1z"/><path fill="#48775A" d="M27 22h1v1h-1zM28 22h1v1h-1zM29 22h1v1h-1z"/><path fill="#5A8469" d="M30 22h1v1h-1zM31 22h1v1h-1zM32 22h1v1h-1zM33 22h1v1h-1zM34 22h1v1h-1z"/><path fill="#5D8770" d="M35 22h1v1h-1z"/><path fill="#86BADE" d="M36 22h1v1h-1zM37 22h1v1h-1zM38 22h1v1h-1z"/><path fill="#5498AD" d="M39 22h1v1h-1z"/><path fill="#4D93A6" d="M40 22h1v1h-1zM41 22h1v1h-1zM42 22h1v1h-1zM43 22h1v1h-1zM44 22h1v1h-1zM45 22h1v1h-1z"/><path fill="#3D6570" d="M46 22h1v1h-1z"/><path fill="#231815" d="M47 22h1v1h-1zM48 22h1v1h-1zM49 22h1v1h-1zM50 22h1v1h-1zM15 23h1v1h-1zM16 23h1v1h-1zM17 23h1v1h-1z"/><path fill="#2A3729" d="M18 23h1v1h-1z"/><path fill="#356A4B" d="M19 23h1v1h-1zM20 23h1v1h-1z"/><path fill="#79A695" d="M21 23h1v1h-1z"/><path fill="#BCE1DF" d="M22 23h1v1h-1zM23 23h1v1h-1zM24 23h1v1h-1zM25 23h1v1h-1zM26 23h1v1h-1z"/><path fill="#356A4B" d="M27 23h1v1h-1zM28 23h1v1h-1zM29 23h1v1h-1z"/><path fill="#5A8469" d="M30 23h1v1h-1zM31 23h1v1h-1zM32 23h1v1h-1zM33 23h1v1h-1zM34 23h1v1h-1zM35 23h1v1h-1z"/><path fill="#78A9B9" d="M36 23h1v1h-1z"/><path fill="#86BADE" d="M37 23h1v1h-1zM38 23h1v1h-1z"/><path fill="#66A4BF" d="M39 23h1v1h-1z"/><path fill="#4D93A6" d="M40 23h1v1h-1zM41 23h1v1h-1zM42 23h1v1h-1zM43 23h1v1h-1zM44 23h1v1h-1zM45 23h1v1h-1zM46 23h1v1h-1z"/><path fill="#282727" d="M47 23h1v1h-1z"/><path fill="#231815" d="M48 23h1v1h-1zM49 23h1v1h-1zM50 23h1v1h-1zM15 24h1v1h-1zM16 24h1v1h-1zM17 24h1v1h-1z"/><path fill="#2F503A" d="M18 24h1v1h-1z"/><path fill="#356A4B" d="M19 24h1v1h-1zM20 24h1v1h-1z"/><path fill="#79A695" d="M21 24h1v1h-1z"/><path fill="#BCE1DF" d="M22 24h1v1h-1zM23 24h1v1h-1zM24 24h1v1h-1zM25 24h1v1h-1zM26 24h1v1h-1z"/><path fill="#356A4B" d="M27 24h1v1h-1zM28 24h1v1h-1zM29 24h1v1h-1z"/><path fill="#5A8469" d="M30 24h1v1h-1zM31 24h1v1h-1zM32 24h1v1h-1zM33 24h1v1h-1zM34 24h1v1h-1zM35 24h1v1h-1z"/><path fill="#6B9895" d="M36 24h1v1h-1z"/><path fill="#86BADE" d="M37 24h1v1h-1zM38 24h1v1h-1z"/><path fill="#7BB3D4" d="M39 24h1v1h-1z"/><path fill="#4D93A6" d="M40 24h1v1h-1zM41 24h1v1h-1zM42 24h1v1h-1zM43 24h1v1h-1zM44 24h1v1h-1zM45 24h1v1h-1zM46 24h1v1h-1z"/><path fill="#38565E" d="M47 24h1v1h-1z"/><path fill="#231815" d="M48 24h1v1h-1zM49 24h1v1h-1zM50 24h1v1h-1zM14 25h1v1h-1zM15 25h1v1h-1zM16 25h1v1h-1z"/><path fill="#241D18" d="M17 25h1v1h-1z"/><path fill="#356A4B" d="M18 25h1v1h-1zM19 25h1v1h-1zM20 25h1v1h-1z"/><path fill="#79A695" d="M21 25h1v1h-1z"/><path fill="#BCE1DF" d="M22 25h1v1h-1zM23 25h1v1h-1zM24 25h1v1h-1zM25 25h1v1h-1zM26 25h1v1h-1z"/><path fill="#356A4B" d="M27 25h1v1h-1zM28 25h1v1h-1zM29 25h1v1h-1z"/><path fill="#5A8469" d="M30 25h1v1h-1zM31 25h1v1h-1zM32 25h1v1h-1zM33 25h1v1h-1zM34 25h1v1h-1zM35 25h1v1h-1z"/><path fill="#5D8770" d="M36 25h1v1h-1z"/><path fill="#86BADE" d="M37 25h1v1h-1zM38 25h1v1h-1zM39 25h1v1h-1z"/><path fill="#5498AD" d="M40 25h1v1h-1z"/><path fill="#4D93A6" d="M41 25h1v1h-1zM42 25h1v1h-1zM43 25h1v1h-1zM44 25h1v1h-1zM45 25h1v1h-1zM46 25h1v1h-1z"/><path fill="#4A8B9D" d="M47 25h1v1h-1z"/><path fill="#26201E" d="M48 25h1v1h-1z"/><path fill="#231815" d="M49 25h1v1h-1zM50 25h1v1h-1zM51 25h1v1h-1zM14 26h1v1h-1zM15 26h1v1h-1zM16 26h1v1h-1z"/><path fill="#2A3729" d="M17 26h1v1h-1z"/><path fill="#356A4B" d="M18 26h1v1h-1zM19 26h1v1h-1zM20 26h1v1h-1z"/><path fill="#79A695" d="M21 26h1v1h-1z"/><path fill="#BCE1DF" d="M22 26h1v1h-1zM23 26h1v1h-1zM24 26h1v1h-1zM25 26h1v1h-1zM26 26h1v1h-1z"/><path fill="#356A4B" d="M27 26h1v1h-1zM28 26h1v1h-1zM29 26h1v1h-1z"/><path fill="#5A8469" d="M30 26h1v1h-1zM31 26h1v1h-1zM32 26h1v1h-1zM33 26h1v1h-1zM34 26h1v1h-1zM35 26h1v1h-1zM36 26h1v1h-1z"/><path fill="#78A9B9" d="M37 26h1v1h-1z"/><path fill="#86BADE" d="M38 26h1v1h-1zM39 26h1v1h-1z"/><path fill="#66A4BF" d="M40 26h1v1h-1z"/><path fill="#4D93A6" d="M41 26h1v1h-1zM42 26h1v1h-1zM43 26h1v1h-1zM44 26h1v1h-1zM45 26h1v1h-1zM46 26h1v1h-1zM47 26h1v1h-1z"/><path fill="#354E54" d="M48 26h1v1h-1z"/><path fill="#231815" d="M49 26h1v1h-1zM50 26h1v1h-1zM51 26h1v1h-1zM14 27h1v1h-1zM15 27h1v1h-1zM16 27h1v1h-1z"/><path fill="#2F503A" d="M17 27h1v1h-1z"/><path fill="#356A4B" d="M18 27h1v1h-1zM19 27h1v1h-1zM20 27h1v1h-1z"/><path fill="#79A695" d="M21 27h1v1h-1z"/><path fill="#BCE1DF" d="M22 27h1v1h-1zM23 27h1v1h-1zM24 27h1v1h-1zM25 27h1v1h-1zM26 27h1v1h-1z"/><path fill="#356A4B" d="M27 27h1v1h-1zM28 27h1v1h-1zM29 27h1v1h-1z"/><path fill="#5A8469" d="M30 27h1v1h-1zM31 27h1v1h-1zM32 27h1v1h-1zM33 27h1v1h-1zM34 27h1v1h-1zM35 27h1v1h-1zM36 27h1v1h-1z"/><path fill="#6B9895" d="M37 27h1v1h-1z"/><path fill="#86BADE" d="M38 27h1v1h-1zM39 27h1v1h-1z"/><path fill="#7FB5D7" d="M40 27h1v1h-1z"/><path fill="#4D93A6" d="M41 27h1v1h-1zM42 27h1v1h-1zM43 27h1v1h-1zM44 27h1v1h-1zM45 27h1v1h-1zM46 27h1v1h-1zM47 27h1v1h-1z"/><path fill="#488494" d="M48 27h1v1h-1z"/><path fill="#231815" d="M49 27h1v1h-1zM50 27h1v1h-1zM51 27h1v1h-1zM52 27h1v1h-1zM13 28h1v1h-1zM14 28h1v1h-1zM15 28h1v1h-1zM16 28h1v1h-1z"/><path fill="#346548" d="M17 28h1v1h-1z"/><path fill="#356A4B" d="M18 28h1v1h-1zM19 28h1v1h-1zM20 28h1v1h-1z"/><path fill="#9AB5A5" d="M21 28h1v1h-1z"/><path fill="#FFF" d="M22 28h1v1h-1zM23 28h1v1h-1zM24 28h1v1h-1zM25 28h1v1h-1zM26 28h1v1h-1z"/><path fill="#356A4B" d="M27 28h1v1h-1zM28 28h1v1h-1zM29 28h1v1h-1z"/><path fill="#5A8469" d="M30 28h1v1h-1zM31 28h1v1h-1zM32 28h1v1h-1zM33 28h1v1h-1zM34 28h1v1h-1zM35 28h1v1h-1zM36 28h1v1h-1z"/><path fill="#608B78" d="M37 28h1v1h-1z"/><path fill="#86BADE" d="M38 28h1v1h-1zM39 28h1v1h-1zM40 28h1v1h-1z"/><path fill="#589AB1" d="M41 28h1v1h-1z"/><path fill="#4D93A6" d="M42 28h1v1h-1zM43 28h1v1h-1zM44 28h1v1h-1zM45 28h1v1h-1zM46 28h1v1h-1zM47 28h1v1h-1zM48 28h1v1h-1z"/><path fill="#33464B" d="M49 28h1v1h-1z"/><path fill="#231815" d="M50 28h1v1h-1zM51 28h1v1h-1zM52 28h1v1h-1zM13 29h1v1h-1zM14 29h1v1h-1zM15 29h1v1h-1z"/><path fill="#293226" d="M16 29h1v1h-1z"/><path fill="#356A4B" d="M17 29h1v1h-1zM18 29h1v1h-1zM19 29h1v1h-1zM20 29h1v1h-1z"/><path fill="#9AB5A5" d="M21 29h1v1h-1z"/><path fill="#FFF" d="M22 29h1v1h-1zM23 29h1v1h-1zM24 29h1v1h-1zM25 29h1v1h-1zM26 29h1v1h-1z"/><path fill="#356A4B" d="M27 29h1v1h-1zM28 29h1v1h-1zM29 29h1v1h-1z"/><path fill="#5A8469" d="M30 29h1v1h-1zM31 29h1v1h-1zM32 29h1v1h-1zM33 29h1v1h-1zM34 29h1v1h-1zM35 29h1v1h-1zM36 29h1v1h-1zM37 29h1v1h-1z"/><path fill="#7EB0C8" d="M38 29h1v1h-1z"/><path fill="#86BADE" d="M39 29h1v1h-1zM40 29h1v1h-1z"/><path fill="#6DA9C6" d="M41 29h1v1h-1z"/><path fill="#4D93A6" d="M42 29h1v1h-1zM43 29h1v1h-1zM44 29h1v1h-1zM45 29h1v1h-1zM46 29h1v1h-1zM47 29h1v1h-1zM48 29h1v1h-1z"/><path fill="#437482" d="M49 29h1v1h-1z"/><path fill="#231815" d="M50 29h1v1h-1zM51 29h1v1h-1zM52 29h1v1h-1zM53 29h1v1h-1zM13 30h1v1h-1zM14 30h1v1h-1zM15 30h1v1h-1z"/><path fill="#2E4B37" d="M16 30h1v1h-1z"/><path fill="#356A4B" d="M17 30h1v1h-1zM18 30h1v1h-1zM19 30h1v1h-1zM20 30h1v1h-1z"/><path fill="#9CB6A7" d="M21 30h1v1h-1z"/><path fill="#FFF" d="M22 30h1v1h-1zM23 30h1v1h-1zM24 30h1v1h-1zM25 30h1v1h-1zM26 30h1v1h-1z"/><path fill="#356A4B" d="M27 30h1v1h-1zM28 30h1v1h-1zM29 30h1v1h-1z"/><path fill="#5A8469" d="M30 30h1v1h-1zM31 30h1v1h-1zM32 30h1v1h-1zM33 30h1v1h-1zM34 30h1v1h-1zM35 30h1v1h-1zM36 30h1v1h-1zM37 30h1v1h-1z"/><path fill="#6D9C9C" d="M38 30h1v1h-1z"/><path fill="#86BADE" d="M39 30h1v1h-1zM40 30h1v1h-1z"/><path fill="#7FB5D7" d="M41 30h1v1h-1z"/><path fill="#4D93A6" d="M42 30h1v1h-1zM43 30h1v1h-1zM44 30h1v1h-1zM45 30h1v1h-1zM46 30h1v1h-1zM47 30h1v1h-1zM48 30h1v1h-1zM49 30h1v1h-1z"/><path fill="#2E3739" d="M50 30h1v1h-1z"/><path fill="#231815" d="M51 30h1v1h-1zM52 30h1v1h-1zM53 30h1v1h-1zM12 31h1v1h-1zM13 31h1v1h-1zM14 31h1v1h-1zM15 31h1v1h-1z"/><path fill="#346548" d="M16 31h1v1h-1z"/><path fill="#356A4B" d="M17 31h1v1h-1zM18 31h1v1h-1zM19 31h1v1h-1zM20 31h1v1h-1z"/><path fill="#A8BEB0" d="M21 31h1v1h-1z"/><path fill="#FFF" d="M22 31h1v1h-1zM23 31h1v1h-1zM24 31h1v1h-1zM25 31h1v1h-1zM26 31h1v1h-1z"/><path fill="#356A4B" d="M27 31h1v1h-1zM28 31h1v1h-1zM29 31h1v1h-1z"/><path fill="#5A8469" d="M30 31h1v1h-1zM31 31h1v1h-1zM32 31h1v1h-1zM33 31h1v1h-1zM34 31h1v1h-1zM35 31h1v1h-1zM36 31h1v1h-1zM37 31h1v1h-1z"/><path fill="#608B78" d="M38 31h1v1h-1z"/><path fill="#86BADE" d="M39 31h1v1h-1zM40 31h1v1h-1zM41 31h1v1h-1z"/><path fill="#589AB1" d="M42 31h1v1h-1z"/><path fill="#4D93A6" d="M43 31h1v1h-1zM44 31h1v1h-1zM45 31h1v1h-1zM46 31h1v1h-1zM47 31h1v1h-1zM48 31h1v1h-1zM49 31h1v1h-1z"/><path fill="#3D6570" d="M50 31h1v1h-1z"/><path fill="#231815" d="M51 31h1v1h-1zM52 31h1v1h-1zM53 31h1v1h-1zM54 31h1v1h-1zM12 32h1v1h-1zM13 32h1v1h-1zM14 32h1v1h-1z"/><path fill="#293226" d="M15 32h1v1h-1z"/><path fill="#356A4B" d="M16 32h1v1h-1zM17 32h1v1h-1zM18 32h1v1h-1zM19 32h1v1h-1z"/><path fill="#3A6D4F" d="M20 32h1v1h-1z"/><path fill="#ADC2B4" d="M21 32h1v1h-1z"/><path fill="#FFF" d="M22 32h1v1h-1zM23 32h1v1h-1zM24 32h1v1h-1zM25 32h1v1h-1zM26 32h1v1h-1z"/><path fill="#356A4B" d="M27 32h1v1h-1zM28 32h1v1h-1zM29 32h1v1h-1z"/><path fill="#5A8469" d="M30 32h1v1h-1zM31 32h1v1h-1zM32 32h1v1h-1zM33 32h1v1h-1zM34 32h1v1h-1zM35 32h1v1h-1zM36 32h1v1h-1zM37 32h1v1h-1zM38 32h1v1h-1z"/><path fill="#7EB0C8" d="M39 32h1v1h-1z"/><path fill="#86BADE" d="M40 32h1v1h-1zM41 32h1v1h-1z"/><path fill="#6DA9C6" d="M42 32h1v1h-1z"/><path fill="#4D93A6" d="M43 32h1v1h-1zM44 32h1v1h-1zM45 32h1v1h-1zM46 32h1v1h-1zM47 32h1v1h-1zM48 32h1v1h-1zM49 32h1v1h-1zM50 32h1v1h-1z"/><path fill="#282727" d="M51 32h1v1h-1z"/><path fill="#231815" d="M52 32h1v1h-1zM53 32h1v1h-1zM54 32h1v1h-1zM12 33h1v1h-1zM13 33h1v1h-1zM14 33h1v1h-1z"/><path fill="#2E4B37" d="M15 33h1v1h-1z"/><path fill="#356A4B" d="M16 33h1v1h-1zM17 33h1v1h-1zM18 33h1v1h-1zM19 33h1v1h-1z"/><path fill="#457558" d="M20 33h1v1h-1z"/><path fill="#ADC2B4" d="M21 33h1v1h-1z"/><path fill="#FFF" d="M22 33h1v1h-1zM23 33h1v1h-1zM24 33h1v1h-1zM25 33h1v1h-1zM26 33h1v1h-1z"/><path fill="#356A4B" d="M27 33h1v1h-1zM28 33h1v1h-1zM29 33h1v1h-1z"/><path fill="#5A8469" d="M30 33h1v1h-1zM31 33h1v1h-1zM32 33h1v1h-1zM33 33h1v1h-1zM34 33h1v1h-1zM35 33h1v1h-1zM36 33h1v1h-1zM37 33h1v1h-1zM38 33h1v1h-1z"/><path fill="#6D9C9C" d="M39 33h1v1h-1z"/><path fill="#86BADE" d="M40 33h1v1h-1zM41 33h1v1h-1z"/><path fill="#7FB5D7" d="M42 33h1v1h-1z"/><path fill="#4D93A6" d="M43 33h1v1h-1zM44 33h1v1h-1zM45 33h1v1h-1zM46 33h1v1h-1zM47 33h1v1h-1zM48 33h1v1h-1zM49 33h1v1h-1zM50 33h1v1h-1z"/><path fill="#3B5D67" d="M51 33h1v1h-1z"/><path fill="#231815" d="M52 33h1v1h-1zM53 33h1v1h-1zM54 33h1v1h-1zM11 34h1v1h-1zM12 34h1v1h-1zM13 34h1v1h-1zM14 34h1v1h-1z"/><path fill="#346548" d="M15 34h1v1h-1z"/><path fill="#356A4B" d="M16 34h1v1h-1zM17 34h1v1h-1zM18 34h1v1h-1zM19 34h1v1h-1z"/><path fill="#517E62" d="M20 34h1v1h-1z"/><path fill="#ADC2B4" d="M21 34h1v1h-1z"/><path fill="#FFF" d="M22 34h1v1h-1zM23 34h1v1h-1zM24 34h1v1h-1zM25 34h1v1h-1zM26 34h1v1h-1z"/><path fill="#356A4B" d="M27 34h1v1h-1zM28 34h1v1h-1zM29 34h1v1h-1z"/><path fill="#5A8469" d="M30 34h1v1h-1zM31 34h1v1h-1zM32 34h1v1h-1zM33 34h1v1h-1zM34 34h1v1h-1zM35 34h1v1h-1zM36 34h1v1h-1zM37 34h1v1h-1zM38 34h1v1h-1z"/><path fill="#628E7F" d="M39 34h1v1h-1z"/><path fill="#86BADE" d="M40 34h1v1h-1zM41 34h1v1h-1zM42 34h1v1h-1z"/><path fill="#589AB1" d="M43 34h1v1h-1z"/><path fill="#4D93A6" d="M44 34h1v1h-1zM45 34h1v1h-1zM46 34h1v1h-1zM47 34h1v1h-1zM48 34h1v1h-1zM49 34h1v1h-1zM50 34h1v1h-1z"/><path fill="#4A8B9D" d="M51 34h1v1h-1z"/><path fill="#26201E" d="M52 34h1v1h-1z"/><path fill="#231815" d="M53 34h1v1h-1zM54 34h1v1h-1zM55 34h1v1h-1zM11 35h1v1h-1zM12 35h1v1h-1zM13 35h1v1h-1z"/><path fill="#293226" d="M14 35h1v1h-1z"/><path fill="#356A4B" d="M15 35h1v1h-1zM16 35h1v1h-1zM17 35h1v1h-1zM18 35h1v1h-1z"/><path fill="#376C4D" d="M19 35h1v1h-1z"/><path fill="#5A8469" d="M20 35h1v1h-1z"/><path fill="#ADC2B4" d="M21 35h1v1h-1z"/><path fill="#FFF" d="M22 35h1v1h-1zM23 35h1v1h-1zM24 35h1v1h-1zM25 35h1v1h-1zM26 35h1v1h-1z"/><path fill="#356A4B" d="M27 35h1v1h-1zM28 35h1v1h-1zM29 35h1v1h-1z"/><path fill="#5A8469" d="M30 35h1v1h-1zM31 35h1v1h-1zM32 35h1v1h-1zM33 35h1v1h-1zM34 35h1v1h-1zM35 35h1v1h-1zM36 35h1v1h-1zM37 35h1v1h-1zM38 35h1v1h-1zM39 35h1v1h-1z"/><path fill="#81B3CF" d="M40 35h1v1h-1z"/><path fill="#86BADE" d="M41 35h1v1h-1zM42 35h1v1h-1z"/><path fill="#6DA9C6" d="M43 35h1v1h-1z"/><path fill="#4D93A6" d="M44 35h1v1h-1zM45 35h1v1h-1zM46 35h1v1h-1zM47 35h1v1h-1zM48 35h1v1h-1zM49 35h1v1h-1zM50 35h1v1h-1zM51 35h1v1h-1z"/><path fill="#354E54" d="M52 35h1v1h-1z"/><path fill="#231815" d="M53 35h1v1h-1zM54 35h1v1h-1zM55 35h1v1h-1zM11 36h1v1h-1zM12 36h1v1h-1zM13 36h1v1h-1z"/><path fill="#2E4B37" d="M14 36h1v1h-1z"/><path fill="#356A4B" d="M15 36h1v1h-1zM16 36h1v1h-1zM17 36h1v1h-1zM18 36h1v1h-1z"/><path fill="#437456" d="M19 36h1v1h-1z"/><path fill="#5A8469" d="M20 36h1v1h-1z"/><path fill="#ADC2B4" d="M21 36h1v1h-1z"/><path fill="#FFF" d="M22 36h1v1h-1zM23 36h1v1h-1zM24 36h1v1h-1zM25 36h1v1h-1zM26 36h1v1h-1z"/><path fill="#356A4B" d="M27 36h1v1h-1zM28 36h1v1h-1zM29 36h1v1h-1z"/><path fill="#5A8469" d="M30 36h1v1h-1zM31 36h1v1h-1zM32 36h1v1h-1zM33 36h1v1h-1zM34 36h1v1h-1zM35 36h1v1h-1zM36 36h1v1h-1zM37 36h1v1h-1zM38 36h1v1h-1zM39 36h1v1h-1z"/><path fill="#73A2AB" d="M40 36h1v1h-1z"/><path fill="#86BADE" d="M41 36h1v1h-1zM42 36h1v1h-1z"/><path fill="#7FB5D7" d="M43 36h1v1h-1z"/><path fill="#4D93A6" d="M44 36h1v1h-1zM45 36h1v1h-1zM46 36h1v1h-1zM47 36h1v1h-1zM48 36h1v1h-1zM49 36h1v1h-1zM50 36h1v1h-1zM51 36h1v1h-1z"/><path fill="#488494" d="M52 36h1v1h-1z"/><path fill="#231815" d="M53 36h1v1h-1zM54 36h1v1h-1zM55 36h1v1h-1zM56 36h1v1h-1zM10 37h1v1h-1zM11 37h1v1h-1zM12 37h1v1h-1zM13 37h1v1h-1z"/><path fill="#346548" d="M14 37h1v1h-1z"/><path fill="#356A4B" d="M15 37h1v1h-1zM16 37h1v1h-1zM17 37h1v1h-1zM18 37h1v1h-1z"/><path fill="#4C7A5E" d="M19 37h1v1h-1z"/><path fill="#5A8469" d="M20 37h1v1h-1z"/><path fill="#ADC2B4" d="M21 37h1v1h-1z"/><path fill="#FFF" d="M22 37h1v1h-1zM23 37h1v1h-1zM24 37h1v1h-1zM25 37h1v1h-1zM26 37h1v1h-1z"/><path fill="#356A4B" d="M27 37h1v1h-1zM28 37h1v1h-1zM29 37h1v1h-1z"/><path fill="#5A8469" d="M30 37h1v1h-1zM31 37h1v1h-1zM32 37h1v1h-1zM33 37h1v1h-1zM34 37h1v1h-1zM35 37h1v1h-1zM36 37h1v1h-1zM37 37h1v1h-1zM38 37h1v1h-1zM39 37h1v1h-1z"/><path fill="#628E7F" d="M40 37h1v1h-1z"/><path fill="#86BADE" d="M41 37h1v1h-1zM42 37h1v1h-1zM43 37h1v1h-1z"/><path fill="#5F9FB8" d="M44 37h1v1h-1z"/><path fill="#4D93A6" d="M45 37h1v1h-1zM46 37h1v1h-1zM47 37h1v1h-1zM48 37h1v1h-1zM49 37h1v1h-1zM50 37h1v1h-1zM51 37h1v1h-1zM52 37h1v1h-1z"/><path fill="#33464B" d="M53 37h1v1h-1z"/><path fill="#231815" d="M54 37h1v1h-1zM55 37h1v1h-1zM56 37h1v1h-1zM10 38h1v1h-1zM11 38h1v1h-1zM12 38h1v1h-1z"/><path fill="#26271F" d="M13 38h1v1h-1z"/><path fill="#356A4B" d="M14 38h1v1h-1zM15 38h1v1h-1zM16 38h1v1h-1zM17 38h1v1h-1zM18 38h1v1h-1z"/><path fill="#588267" d="M19 38h1v1h-1z"/><path fill="#5A8469" d="M20 38h1v1h-1z"/><path fill="#ADC2B4" d="M21 38h1v1h-1z"/><path fill="#FFF" d="M22 38h1v1h-1zM23 38h1v1h-1zM24 38h1v1h-1zM25 38h1v1h-1zM26 38h1v1h-1z"/><path fill="#356A4B" d="M27 38h1v1h-1zM28 38h1v1h-1zM29 38h1v1h-1z"/><path fill="#5A8469" d="M30 38h1v1h-1zM31 38h1v1h-1zM32 38h1v1h-1zM33 38h1v1h-1zM34 38h1v1h-1zM35 38h1v1h-1zM36 38h1v1h-1zM37 38h1v1h-1zM38 38h1v1h-1zM39 38h1v1h-1zM40 38h1v1h-1z"/><path fill="#81B3CF" d="M41 38h1v1h-1z"/><path fill="#86BADE" d="M42 38h1v1h-1zM43 38h1v1h-1z"/><path fill="#71ABC9" d="M44 38h1v1h-1z"/><path fill="#4D93A6" d="M45 38h1v1h-1zM46 38h1v1h-1zM47 38h1v1h-1zM48 38h1v1h-1zM49 38h1v1h-1zM50 38h1v1h-1zM51 38h1v1h-1zM52 38h1v1h-1z"/><path fill="#437482" d="M53 38h1v1h-1z"/><path fill="#231815" d="M54 38h1v1h-1zM55 38h1v1h-1zM56 38h1v1h-1zM57 38h1v1h-1zM10 39h1v1h-1zM11 39h1v1h-1zM12 39h1v1h-1z"/><path fill="#2D4633" d="M13 39h1v1h-1z"/><path fill="#356A4B" d="M14 39h1v1h-1zM15 39h1v1h-1zM16 39h1v1h-1zM17 39h1v1h-1z"/><path fill="#3E7153" d="M18 39h1v1h-1z"/><path fill="#5A8469" d="M19 39h1v1h-1zM20 39h1v1h-1z"/><path fill="#ADC2B4" d="M21 39h1v1h-1z"/><path fill="#FFF" d="M22 39h1v1h-1zM23 39h1v1h-1zM24 39h1v1h-1zM25 39h1v1h-1zM26 39h1v1h-1z"/><path fill="#356A4B" d="M27 39h1v1h-1zM28 39h1v1h-1zM29 39h1v1h-1z"/><path fill="#5A8469" d="M30 39h1v1h-1zM31 39h1v1h-1zM32 39h1v1h-1zM33 39h1v1h-1zM34 39h1v1h-1zM35 39h1v1h-1zM36 39h1v1h-1zM37 39h1v1h-1zM38 39h1v1h-1zM39 39h1v1h-1zM40 39h1v1h-1z"/><path fill="#73A2AB" d="M41 39h1v1h-1z"/><path fill="#86BADE" d="M42 39h1v1h-1zM43 39h1v1h-1z"/><path fill="#82B8DB" d="M44 39h1v1h-1z"/><path fill="#4D93A6" d="M45 39h1v1h-1zM46 39h1v1h-1zM47 39h1v1h-1zM48 39h1v1h-1zM49 39h1v1h-1zM50 39h1v1h-1zM51 39h1v1h-1zM52 39h1v1h-1zM53 39h1v1h-1z"/><path fill="#2B2F30" d="M54 39h1v1h-1z"/><path fill="#231815" d="M55 39h1v1h-1zM56 39h1v1h-1zM57 39h1v1h-1zM9 40h1v1H9zM10 40h1v1h-1zM11 40h1v1h-1zM12 40h1v1h-1z"/><path fill="#336044" d="M13 40h1v1h-1z"/><path fill="#356A4B" d="M14 40h1v1h-1zM15 40h1v1h-1zM16 40h1v1h-1zM17 40h1v1h-1z"/><path fill="#4A795C" d="M18 40h1v1h-1z"/><path fill="#5A8469" d="M19 40h1v1h-1zM20 40h1v1h-1z"/><path fill="#ADC2B4" d="M21 40h1v1h-1z"/><path fill="#FFF" d="M22 40h1v1h-1zM23 40h1v1h-1zM24 40h1v1h-1zM25 40h1v1h-1zM26 40h1v1h-1z"/><path fill="#356A4B" d="M27 40h1v1h-1zM28 40h1v1h-1zM29 40h1v1h-1z"/><path fill="#5A8469" d="M30 40h1v1h-1zM31 40h1v1h-1zM32 40h1v1h-1zM33 40h1v1h-1zM34 40h1v1h-1zM35 40h1v1h-1zM36 40h1v1h-1zM37 40h1v1h-1zM38 40h1v1h-1zM39 40h1v1h-1zM40 40h1v1h-1z"/><path fill="#68958E" d="M41 40h1v1h-1z"/><path fill="#86BADE" d="M42 40h1v1h-1zM43 40h1v1h-1zM44 40h1v1h-1z"/><path fill="#5F9FB8" d="M45 40h1v1h-1z"/><path fill="#4D93A6" d="M46 40h1v1h-1zM47 40h1v1h-1zM48 40h1v1h-1zM49 40h1v1h-1zM50 40h1v1h-1zM51 40h1v1h-1zM52 40h1v1h-1zM53 40h1v1h-1z"/><path fill="#3D6570" d="M54 40h1v1h-1z"/><path fill="#231815" d="M55 40h1v1h-1zM56 40h1v1h-1zM57 40h1v1h-1zM58 40h1v1h-1zM9 41h1v1H9zM10 41h1v1h-1zM11 41h1v1h-1z"/><path fill="#26271F" d="M12 41h1v1h-1z"/><path fill="#356A4B" d="M13 41h1v1h-1zM14 41h1v1h-1zM15 41h1v1h-1zM16 41h1v1h-1zM17 41h1v1h-1z"/><path fill="#558165" d="M18 41h1v1h-1z"/><path fill="#5A8469" d="M19 41h1v1h-1zM20 41h1v1h-1z"/><path fill="#ADC2B4" d="M21 41h1v1h-1z"/><path fill="#FFF" d="M22 41h1v1h-1zM23 41h1v1h-1zM24 41h1v1h-1zM25 41h1v1h-1zM26 41h1v1h-1z"/><path fill="#356A4B" d="M27 41h1v1h-1zM28 41h1v1h-1zM29 41h1v1h-1z"/><path fill="#5A8469" d="M30 41h1v1h-1zM31 41h1v1h-1zM32 41h1v1h-1zM33 41h1v1h-1zM34 41h1v1h-1zM35 41h1v1h-1zM36 41h1v1h-1zM37 41h1v1h-1zM38 41h1v1h-1zM39 41h1v1h-1zM40 41h1v1h-1zM41 41h1v1h-1z"/><path fill="#83B7D7" d="M42 41h1v1h-1z"/><path fill="#86BADE" d="M43 41h1v1h-1zM44 41h1v1h-1z"/><path fill="#71ABC9" d="M45 41h1v1h-1z"/><path fill="#4D93A6" d="M46 41h1v1h-1zM47 41h1v1h-1zM48 41h1v1h-1zM49 41h1v1h-1zM50 41h1v1h-1zM51 41h1v1h-1zM52 41h1v1h-1zM53 41h1v1h-1zM54 41h1v1h-1z"/><path fill="#282727" d="M55 41h1v1h-1z"/><path fill="#231815" d="M56 41h1v1h-1zM57 41h1v1h-1zM58 41h1v1h-1zM9 42h1v1H9zM10 42h1v1h-1zM11 42h1v1h-1z"/><path fill="#2D4633" d="M12 42h1v1h-1z"/><path fill="#356A4B" d="M13 42h1v1h-1zM14 42h1v1h-1zM15 42h1v1h-1zM16 42h1v1h-1z"/><path fill="#3A6D4F" d="M17 42h1v1h-1z"/><path fill="#5A8469" d="M18 42h1v1h-1zM19 42h1v1h-1zM20 42h1v1h-1z"/><path fill="#ADC2B4" d="M21 42h1v1h-1z"/><path fill="#FFF" d="M22 42h1v1h-1zM23 42h1v1h-1zM24 42h1v1h-1zM25 42h1v1h-1zM26 42h1v1h-1z"/><path fill="#356A4B" d="M27 42h1v1h-1zM28 42h1v1h-1zM29 42h1v1h-1z"/><path fill="#5A8469" d="M30 42h1v1h-1zM31 42h1v1h-1zM32 42h1v1h-1zM33 42h1v1h-1zM34 42h1v1h-1zM35 42h1v1h-1zM36 42h1v1h-1zM37 42h1v1h-1zM38 42h1v1h-1zM39 42h1v1h-1zM40 42h1v1h-1zM41 42h1v1h-1z"/><path fill="#76A6B2" d="M42 42h1v1h-1z"/><path fill="#86BADE" d="M43 42h1v1h-1zM44 42h1v1h-1z"/><path fill="#82B8DB" d="M45 42h1v1h-1z"/><path fill="#4D93A6" d="M46 42h1v1h-1zM47 42h1v1h-1zM48 42h1v1h-1zM49 42h1v1h-1zM50 42h1v1h-1zM51 42h1v1h-1zM52 42h1v1h-1zM53 42h1v1h-1zM54 42h1v1h-1z"/><path fill="#38565E" d="M55 42h1v1h-1z"/><path fill="#231815" d="M56 42h1v1h-1zM57 42h1v1h-1zM58 42h1v1h-1zM8 43h1v1H8zM9 43h1v1H9zM10 43h1v1h-1zM11 43h1v1h-1z"/><path fill="#336044" d="M12 43h1v1h-1z"/><path fill="#356A4B" d="M13 43h1v1h-1zM14 43h1v1h-1zM15 43h1v1h-1zM16 43h1v1h-1z"/><path fill="#457558" d="M17 43h1v1h-1z"/><path fill="#5A8469" d="M18 43h1v1h-1zM19 43h1v1h-1zM20 43h1v1h-1z"/><path fill="#ADC2B4" d="M21 43h1v1h-1z"/><path fill="#FFF" d="M22 43h1v1h-1zM23 43h1v1h-1zM24 43h1v1h-1zM25 43h1v1h-1zM26 43h1v1h-1z"/><path fill="#356A4B" d="M27 43h1v1h-1zM28 43h1v1h-1zM29 43h1v1h-1z"/><path fill="#5A8469" d="M30 43h1v1h-1zM31 43h1v1h-1zM32 43h1v1h-1zM33 43h1v1h-1zM34 43h1v1h-1zM35 43h1v1h-1zM36 43h1v1h-1zM37 43h1v1h-1zM38 43h1v1h-1zM39 43h1v1h-1zM40 43h1v1h-1zM41 43h1v1h-1z"/><path fill="#6B9895" d="M42 43h1v1h-1z"/><path fill="#86BADE" d="M43 43h1v1h-1zM44 43h1v1h-1zM45 43h1v1h-1z"/><path fill="#5F9FB8" d="M46 43h1v1h-1z"/><path fill="#4D93A6" d="M47 43h1v1h-1zM48 43h1v1h-1zM49 43h1v1h-1zM50 43h1v1h-1zM51 43h1v1h-1zM52 43h1v1h-1zM53 43h1v1h-1zM54 43h1v1h-1z"/><path fill="#4A8B9D" d="M55 43h1v1h-1z"/><path fill="#231815" d="M56 43h1v1h-1zM57 43h1v1h-1zM58 43h1v1h-1zM59 43h1v1h-1zM8 44h1v1H8zM9 44h1v1H9zM10 44h1v1h-1z"/><path fill="#26271F" d="M11 44h1v1h-1z"/><path fill="#356A4B" d="M12 44h1v1h-1zM13 44h1v1h-1zM14 44h1v1h-1zM15 44h1v1h-1zM16 44h1v1h-1z"/><path fill="#4E7C60" d="M17 44h1v1h-1z"/><path fill="#5A8469" d="M18 44h1v1h-1zM19 44h1v1h-1zM20 44h1v1h-1z"/><path fill="#ADC2B4" d="M21 44h1v1h-1z"/><path fill="#FFF" d="M22 44h1v1h-1zM23 44h1v1h-1zM24 44h1v1h-1zM25 44h1v1h-1zM26 44h1v1h-1z"/><path fill="#356A4B" d="M27 44h1v1h-1zM28 44h1v1h-1zM29 44h1v1h-1z"/><path fill="#5A8469" d="M30 44h1v1h-1zM31 44h1v1h-1zM32 44h1v1h-1zM33 44h1v1h-1zM34 44h1v1h-1zM35 44h1v1h-1zM36 44h1v1h-1zM37 44h1v1h-1zM38 44h1v1h-1zM39 44h1v1h-1zM40 44h1v1h-1zM41 44h1v1h-1z"/><path fill="#5D8770" d="M42 44h1v1h-1z"/><path fill="#86BADE" d="M43 44h1v1h-1zM44 44h1v1h-1zM45 44h1v1h-1z"/><path fill="#71ABC9" d="M46 44h1v1h-1z"/><path fill="#4D93A6" d="M47 44h1v1h-1zM48 44h1v1h-1zM49 44h1v1h-1zM50 44h1v1h-1zM51 44h1v1h-1zM52 44h1v1h-1zM53 44h1v1h-1zM54 44h1v1h-1zM55 44h1v1h-1z"/><path fill="#33464B" d="M56 44h1v1h-1z"/><path fill="#231815" d="M57 44h1v1h-1zM58 44h1v1h-1zM59 44h1v1h-1zM8 45h1v1H8zM9 45h1v1H9zM10 45h1v1h-1z"/><path fill="#2D4633" d="M11 45h1v1h-1z"/><path fill="#356A4B" d="M12 45h1v1h-1zM13 45h1v1h-1zM14 45h1v1h-1zM15 45h1v1h-1z"/><path fill="#376C4D" d="M16 45h1v1h-1z"/><path fill="#5A8469" d="M17 45h1v1h-1zM18 45h1v1h-1zM19 45h1v1h-1zM20 45h1v1h-1z"/><path fill="#ADC2B4" d="M21 45h1v1h-1z"/><path fill="#FFF" d="M22 45h1v1h-1zM23 45h1v1h-1zM24 45h1v1h-1zM25 45h1v1h-1zM26 45h1v1h-1z"/><path fill="#356A4B" d="M27 45h1v1h-1zM28 45h1v1h-1zM29 45h1v1h-1z"/><path fill="#5A8469" d="M30 45h1v1h-1zM31 45h1v1h-1zM32 45h1v1h-1zM33 45h1v1h-1zM34 45h1v1h-1zM35 45h1v1h-1zM36 45h1v1h-1zM37 45h1v1h-1zM38 45h1v1h-1zM39 45h1v1h-1zM40 45h1v1h-1zM41 45h1v1h-1zM42 45h1v1h-1z"/><path fill="#78A9B9" d="M43 45h1v1h-1z"/><path fill="#86BADE" d="M44 45h1v1h-1zM45 45h1v1h-1z"/><path fill="#82B8DB" d="M46 45h1v1h-1z"/><path fill="#4D93A6" d="M47 45h1v1h-1zM48 45h1v1h-1zM49 45h1v1h-1zM50 45h1v1h-1zM51 45h1v1h-1zM52 45h1v1h-1zM53 45h1v1h-1zM54 45h1v1h-1zM55 45h1v1h-1z"/><path fill="#457C8B" d="M56 45h1v1h-1z"/><path fill="#231815" d="M57 45h1v1h-1zM58 45h1v1h-1zM59 45h1v1h-1zM60 45h1v1h-1zM7 46h1v1H7zM8 46h1v1H8zM9 46h1v1H9zM10 46h1v1h-1z"/><path fill="#336044" d="M11 46h1v1h-1z"/><path fill="#356A4B" d="M12 46h1v1h-1zM13 46h1v1h-1zM14 46h1v1h-1zM15 46h1v1h-1z"/><path fill="#417254" d="M16 46h1v1h-1z"/><path fill="#5A8469" d="M17 46h1v1h-1zM18 46h1v1h-1zM19 46h1v1h-1zM20 46h1v1h-1z"/><path fill="#ADC2B4" d="M21 46h1v1h-1z"/><path fill="#FFF" d="M22 46h1v1h-1zM23 46h1v1h-1zM24 46h1v1h-1zM25 46h1v1h-1zM26 46h1v1h-1z"/><path fill="#356A4B" d="M27 46h1v1h-1zM28 46h1v1h-1zM29 46h1v1h-1z"/><path fill="#5A8469" d="M30 46h1v1h-1zM31 46h1v1h-1zM32 46h1v1h-1zM33 46h1v1h-1zM34 46h1v1h-1zM35 46h1v1h-1zM36 46h1v1h-1zM37 46h1v1h-1zM38 46h1v1h-1zM39 46h1v1h-1zM40 46h1v1h-1zM41 46h1v1h-1zM42 46h1v1h-1z"/><path fill="#6D9C9C" d="M43 46h1v1h-1z"/><path fill="#86BADE" d="M44 46h1v1h-1zM45 46h1v1h-1zM46 46h1v1h-1z"/><path fill="#5F9FB8" d="M47 46h1v1h-1z"/><path fill="#4D93A6" d="M48 46h1v1h-1zM49 46h1v1h-1zM50 46h1v1h-1zM51 46h1v1h-1zM52 46h1v1h-1zM53 46h1v1h-1zM54 46h1v1h-1zM55 46h1v1h-1zM56 46h1v1h-1z"/><path fill="#2B2F30" d="M57 46h1v1h-1z"/><path fill="#231815" d="M58 46h1v1h-1zM59 46h1v1h-1zM60 46h1v1h-1zM7 47h1v1H7zM8 47h1v1H8zM9 47h1v1H9z"/><path fill="#26271F" d="M10 47h1v1h-1z"/><path fill="#356A4B" d="M11 47h1v1h-1zM12 47h1v1h-1zM13 47h1v1h-1zM14 47h1v1h-1zM15 47h1v1h-1z"/><path fill="#4C7A5E" d="M16 47h1v1h-1z"/><path fill="#5A8469" d="M17 47h1v1h-1zM18 47h1v1h-1zM19 47h1v1h-1zM20 47h1v1h-1z"/><path fill="#ADC2B4" d="M21 47h1v1h-1z"/><path fill="#FFF" d="M22 47h1v1h-1zM23 47h1v1h-1zM24 47h1v1h-1zM25 47h1v1h-1zM26 47h1v1h-1z"/><path fill="#356A4B" d="M27 47h1v1h-1zM28 47h1v1h-1zM29 47h1v1h-1z"/><path fill="#5A8469" d="M30 47h1v1h-1zM31 47h1v1h-1zM32 47h1v1h-1zM33 47h1v1h-1zM34 47h1v1h-1zM35 47h1v1h-1zM36 47h1v1h-1zM37 47h1v1h-1zM38 47h1v1h-1zM39 47h1v1h-1zM40 47h1v1h-1zM41 47h1v1h-1zM42 47h1v1h-1z"/><path fill="#608B78" d="M43 47h1v1h-1z"/><path fill="#86BADE" d="M44 47h1v1h-1zM45 47h1v1h-1zM46 47h1v1h-1z"/><path fill="#71ABC9" d="M47 47h1v1h-1z"/><path fill="#4D93A6" d="M48 47h1v1h-1zM49 47h1v1h-1zM50 47h1v1h-1zM51 47h1v1h-1zM52 47h1v1h-1zM53 47h1v1h-1zM54 47h1v1h-1zM55 47h1v1h-1zM56 47h1v1h-1z"/><path fill="#3D6570" d="M57 47h1v1h-1z"/><path fill="#231815" d="M58 47h1v1h-1zM59 47h1v1h-1zM60 47h1v1h-1zM7 48h1v1H7zM8 48h1v1H8zM9 48h1v1H9z"/><path fill="#2D4633" d="M10 48h1v1h-1z"/><path fill="#356A4B" d="M11 48h1v1h-1zM12 48h1v1h-1zM13 48h1v1h-1zM14 48h1v1h-1zM15 48h1v1h-1z"/><path fill="#588267" d="M16 48h1v1h-1z"/><path fill="#5A8469" d="M17 48h1v1h-1zM18 48h1v1h-1zM19 48h1v1h-1zM20 48h1v1h-1z"/><path fill="#ADC2B4" d="M21 48h1v1h-1z"/><path fill="#FFF" d="M22 48h1v1h-1zM23 48h1v1h-1zM24 48h1v1h-1zM25 48h1v1h-1zM26 48h1v1h-1z"/><path fill="#356A4B" d="M27 48h1v1h-1zM28 48h1v1h-1zM29 48h1v1h-1z"/><path fill="#5A8469" d="M30 48h1v1h-1zM31 48h1v1h-1zM32 48h1v1h-1zM33 48h1v1h-1zM34 48h1v1h-1zM35 48h1v1h-1zM36 48h1v1h-1zM37 48h1v1h-1zM38 48h1v1h-1zM39 48h1v1h-1zM40 48h1v1h-1zM41 48h1v1h-1zM42 48h1v1h-1zM43 48h1v1h-1z"/><path fill="#7EB0C8" d="M44 48h1v1h-1z"/><path fill="#86BADE" d="M45 48h1v1h-1zM46 48h1v1h-1z"/><path fill="#82B8DB" d="M47 48h1v1h-1z"/><path fill="#4D93A6" d="M48 48h1v1h-1zM49 48h1v1h-1zM50 48h1v1h-1zM51 48h1v1h-1zM52 48h1v1h-1zM53 48h1v1h-1zM54 48h1v1h-1zM55 48h1v1h-1zM56 48h1v1h-1zM57 48h1v1h-1z"/><path fill="#26201E" d="M58 48h1v1h-1z"/><path fill="#231815" d="M59 48h1v1h-1zM60 48h1v1h-1zM61 48h1v1h-1zM6 49h1v1H6zM7 49h1v1H7zM8 49h1v1H8zM9 49h1v1H9z"/><path fill="#325B41" d="M10 49h1v1h-1z"/><path fill="#356A4B" d="M11 49h1v1h-1zM12 49h1v1h-1zM13 49h1v1h-1zM14 49h1v1h-1z"/><path fill="#3C6F51" d="M15 49h1v1h-1z"/><path fill="#5A8469" d="M16 49h1v1h-1zM17 49h1v1h-1zM18 49h1v1h-1zM19 49h1v1h-1zM20 49h1v1h-1z"/><path fill="#ADC2B4" d="M21 49h1v1h-1z"/><path fill="#FFF" d="M22 49h1v1h-1zM23 49h1v1h-1zM24 49h1v1h-1zM25 49h1v1h-1zM26 49h1v1h-1z"/><path fill="#356A4B" d="M27 49h1v1h-1zM28 49h1v1h-1zM29 49h1v1h-1z"/><path fill="#5A8469" d="M30 49h1v1h-1zM31 49h1v1h-1zM32 49h1v1h-1zM33 49h1v1h-1zM34 49h1v1h-1zM35 49h1v1h-1zM36 49h1v1h-1zM37 49h1v1h-1zM38 49h1v1h-1zM39 49h1v1h-1zM40 49h1v1h-1zM41 49h1v1h-1zM42 49h1v1h-1zM43 49h1v1h-1z"/><path fill="#73A2AB" d="M44 49h1v1h-1z"/><path fill="#86BADE" d="M45 49h1v1h-1zM46 49h1v1h-1zM47 49h1v1h-1z"/><path fill="#5F9FB8" d="M48 49h1v1h-1z"/><path fill="#4D93A6" d="M49 49h1v1h-1zM50 49h1v1h-1zM51 49h1v1h-1zM52 49h1v1h-1zM53 49h1v1h-1zM54 49h1v1h-1zM55 49h1v1h-1zM56 49h1v1h-1zM57 49h1v1h-1z"/><path fill="#354E54" d="M58 49h1v1h-1z"/><path fill="#231815" d="M59 49h1v1h-1zM60 49h1v1h-1zM61 49h1v1h-1zM6 50h1v1H6zM7 50h1v1H7zM8 50h1v1H8z"/><path fill="#25221C" d="M9 50h1v1H9z"/><path fill="#356A4B" d="M10 50h1v1h-1zM11 50h1v1h-1zM12 50h1v1h-1zM13 50h1v1h-1zM14 50h1v1h-1z"/><path fill="#4A795C" d="M15 50h1v1h-1z"/><path fill="#5A8469" d="M16 50h1v1h-1zM17 50h1v1h-1zM18 50h1v1h-1zM19 50h1v1h-1zM20 50h1v1h-1z"/><path fill="#ADC2B4" d="M21 50h1v1h-1z"/><path fill="#FFF" d="M22 50h1v1h-1zM23 50h1v1h-1zM24 50h1v1h-1zM25 50h1v1h-1zM26 50h1v1h-1z"/><path fill="#356A4B" d="M27 50h1v1h-1zM28 50h1v1h-1zM29 50h1v1h-1z"/><path fill="#5A8469" d="M30 50h1v1h-1zM31 50h1v1h-1zM32 50h1v1h-1zM33 50h1v1h-1zM34 50h1v1h-1zM35 50h1v1h-1zM36 50h1v1h-1zM37 50h1v1h-1zM38 50h1v1h-1zM39 50h1v1h-1zM40 50h1v1h-1zM41 50h1v1h-1zM42 50h1v1h-1zM43 50h1v1h-1z"/><path fill="#659286" d="M44 50h1v1h-1z"/><path fill="#86BADE" d="M45 50h1v1h-1zM46 50h1v1h-1zM47 50h1v1h-1z"/><path fill="#71ABC9" d="M48 50h1v1h-1z"/><path fill="#4D93A6" d="M49 50h1v1h-1zM50 50h1v1h-1zM51 50h1v1h-1zM52 50h1v1h-1zM53 50h1v1h-1zM54 50h1v1h-1zM55 50h1v1h-1zM56 50h1v1h-1zM57 50h1v1h-1z"/><path fill="#488494" d="M58 50h1v1h-1z"/><path fill="#231815" d="M59 50h1v1h-1zM60 50h1v1h-1zM61 50h1v1h-1zM62 50h1v1h-1zM6 51h1v1H6zM7 51h1v1H7zM8 51h1v1H8z"/><path fill="#2B3C2D" d="M9 51h1v1H9z"/><path fill="#356A4B" d="M10 51h1v1h-1zM11 51h1v1h-1zM12 51h1v1h-1zM13 51h1v1h-1zM14 51h1v1h-1z"/><path fill="#537F63" d="M15 51h1v1h-1z"/><path fill="#5A8469" d="M16 51h1v1h-1zM17 51h1v1h-1zM18 51h1v1h-1zM19 51h1v1h-1zM20 51h1v1h-1z"/><path fill="#ADC2B4" d="M21 51h1v1h-1z"/><path fill="#FFF" d="M22 51h1v1h-1zM23 51h1v1h-1zM24 51h1v1h-1zM25 51h1v1h-1zM26 51h1v1h-1z"/><path fill="#356A4B" d="M27 51h1v1h-1zM28 51h1v1h-1zM29 51h1v1h-1z"/><path fill="#5A8469" d="M30 51h1v1h-1zM31 51h1v1h-1zM32 51h1v1h-1zM33 51h1v1h-1zM34 51h1v1h-1zM35 51h1v1h-1zM36 51h1v1h-1zM37 51h1v1h-1zM38 51h1v1h-1zM39 51h1v1h-1zM40 51h1v1h-1zM41 51h1v1h-1zM42 51h1v1h-1zM43 51h1v1h-1zM44 51h1v1h-1z"/><path fill="#83B7D7" d="M45 51h1v1h-1z"/><path fill="#86BADE" d="M46 51h1v1h-1zM47 51h1v1h-1z"/><path fill="#82B8DB" d="M48 51h1v1h-1z"/><path fill="#4D93A6" d="M49 51h1v1h-1zM50 51h1v1h-1zM51 51h1v1h-1zM52 51h1v1h-1zM53 51h1v1h-1zM54 51h1v1h-1zM55 51h1v1h-1zM56 51h1v1h-1zM57 51h1v1h-1zM58 51h1v1h-1z"/><path fill="#2E3739" d="M59 51h1v1h-1z"/><path fill="#231815" d="M60 51h1v1h-1zM61 51h1v1h-1zM62 51h1v1h-1zM5 52h1v1H5zM6 52h1v1H6zM7 52h1v1H7zM8 52h1v1H8z"/><path fill="#325B41" d="M9 52h1v1H9z"/><path fill="#356A4B" d="M10 52h1v1h-1zM11 52h1v1h-1zM12 52h1v1h-1zM13 52h1v1h-1z"/><path fill="#3A6D4F" d="M14 52h1v1h-1z"/><path fill="#5A8469" d="M15 52h1v1h-1zM16 52h1v1h-1zM17 52h1v1h-1zM18 52h1v1h-1zM19 52h1v1h-1zM20 52h1v1h-1z"/><path fill="#9CBAAC" d="M21 52h1v1h-1z"/><path fill="#DEF0EF" d="M22 52h1v1h-1zM23 52h1v1h-1zM24 52h1v1h-1zM25 52h1v1h-1zM26 52h1v1h-1z"/><path fill="#356A4B" d="M27 52h1v1h-1zM28 52h1v1h-1zM29 52h1v1h-1z"/><path fill="#5A8469" d="M30 52h1v1h-1zM31 52h1v1h-1zM32 52h1v1h-1zM33 52h1v1h-1zM34 52h1v1h-1zM35 52h1v1h-1zM36 52h1v1h-1zM37 52h1v1h-1zM38 52h1v1h-1zM39 52h1v1h-1zM40 52h1v1h-1zM41 52h1v1h-1zM42 52h1v1h-1zM43 52h1v1h-1zM44 52h1v1h-1z"/><path fill="#78A9B9" d="M45 52h1v1h-1z"/><path fill="#86BADE" d="M46 52h1v1h-1zM47 52h1v1h-1zM48 52h1v1h-1z"/><path fill="#5F9FB8" d="M49 52h1v1h-1z"/><path fill="#4D93A6" d="M50 52h1v1h-1zM51 52h1v1h-1zM52 52h1v1h-1zM53 52h1v1h-1zM54 52h1v1h-1zM55 52h1v1h-1zM56 52h1v1h-1zM57 52h1v1h-1zM58 52h1v1h-1z"/><path fill="#3D6570" d="M59 52h1v1h-1z"/><path fill="#231815" d="M60 52h1v1h-1zM61 52h1v1h-1zM62 52h1v1h-1zM5 53h1v1H5zM6 53h1v1H6zM7 53h1v1H7z"/><path fill="#25221C" d="M8 53h1v1H8z"/><path fill="#356A4B" d="M9 53h1v1H9zM10 53h1v1h-1zM11 53h1v1h-1zM12 53h1v1h-1zM13 53h1v1h-1z"/><path fill="#457558" d="M14 53h1v1h-1z"/><path fill="#5A8469" d="M15 53h1v1h-1zM16 53h1v1h-1zM17 53h1v1h-1zM18 53h1v1h-1zM19 53h1v1h-1zM20 53h1v1h-1z"/><path fill="#8BB3A4" d="M21 53h1v1h-1z"/><path fill="#BCE1DF" d="M22 53h1v1h-1zM23 53h1v1h-1zM24 53h1v1h-1zM25 53h1v1h-1zM26 53h1v1h-1z"/><path fill="#356A4B" d="M27 53h1v1h-1zM28 53h1v1h-1zM29 53h1v1h-1z"/><path fill="#5A8469" d="M30 53h1v1h-1zM31 53h1v1h-1zM32 53h1v1h-1zM33 53h1v1h-1zM34 53h1v1h-1zM35 53h1v1h-1zM36 53h1v1h-1zM37 53h1v1h-1zM38 53h1v1h-1zM39 53h1v1h-1zM40 53h1v1h-1zM41 53h1v1h-1zM42 53h1v1h-1zM43 53h1v1h-1zM44 53h1v1h-1z"/><path fill="#6B9895" d="M45 53h1v1h-1z"/><path fill="#86BADE" d="M46 53h1v1h-1zM47 53h1v1h-1zM48 53h1v1h-1z"/><path fill="#71ABC9" d="M49 53h1v1h-1z"/><path fill="#4D93A6" d="M50 53h1v1h-1zM51 53h1v1h-1zM52 53h1v1h-1zM53 53h1v1h-1zM54 53h1v1h-1zM55 53h1v1h-1zM56 53h1v1h-1zM57 53h1v1h-1zM58 53h1v1h-1z"/><path fill="#4A8B9D" d="M59 53h1v1h-1z"/><path fill="#231815" d="M60 53h1v1h-1zM61 53h1v1h-1zM62 53h1v1h-1zM63 53h1v1h-1zM5 54h1v1H5zM6 54h1v1H6zM7 54h1v1H7z"/><path fill="#2B3C2D" d="M8 54h1v1H8z"/><path fill="#356A4B" d="M9 54h1v1H9zM10 54h1v1h-1zM11 54h1v1h-1zM12 54h1v1h-1zM13 54h1v1h-1z"/><path fill="#4E7C60" d="M14 54h1v1h-1z"/><path fill="#5A8469" d="M15 54h1v1h-1zM16 54h1v1h-1zM17 54h1v1h-1zM18 54h1v1h-1zM19 54h1v1h-1zM20 54h1v1h-1z"/><path fill="#8BB3A4" d="M21 54h1v1h-1z"/><path fill="#BCE1DF" d="M22 54h1v1h-1zM23 54h1v1h-1zM24 54h1v1h-1zM25 54h1v1h-1zM26 54h1v1h-1z"/><path fill="#356A4B" d="M27 54h1v1h-1zM28 54h1v1h-1zM29 54h1v1h-1z"/><path fill="#48775A" d="M30 54h1v1h-1zM31 54h1v1h-1zM32 54h1v1h-1z"/><path fill="#4C7A5E" d="M33 54h1v1h-1z"/><path fill="#5A8469" d="M34 54h1v1h-1zM35 54h1v1h-1zM36 54h1v1h-1zM37 54h1v1h-1zM38 54h1v1h-1zM39 54h1v1h-1zM40 54h1v1h-1zM41 54h1v1h-1zM42 54h1v1h-1zM43 54h1v1h-1zM44 54h1v1h-1z"/><path fill="#608B78" d="M45 54h1v1h-1z"/><path fill="#86BADE" d="M46 54h1v1h-1zM47 54h1v1h-1zM48 54h1v1h-1z"/><path fill="#82B8DB" d="M49 54h1v1h-1z"/><path fill="#4D93A6" d="M50 54h1v1h-1zM51 54h1v1h-1zM52 54h1v1h-1zM53 54h1v1h-1zM54 54h1v1h-1zM55 54h1v1h-1zM56 54h1v1h-1zM57 54h1v1h-1zM58 54h1v1h-1zM59 54h1v1h-1z"/><path fill="#2E3739" d="M60 54h1v1h-1z"/><path fill="#231815" d="M61 54h1v1h-1zM62 54h1v1h-1zM63 54h1v1h-1zM4 55h1v1H4zM5 55h1v1H5zM6 55h1v1H6zM7 55h1v1H7z"/><path fill="#325B41" d="M8 55h1v1H8z"/><path fill="#356A4B" d="M9 55h1v1H9zM10 55h1v1h-1zM11 55h1v1h-1zM12 55h1v1h-1z"/><path fill="#376C4D" d="M13 55h1v1h-1z"/><path fill="#5A8469" d="M14 55h1v1h-1zM15 55h1v1h-1zM16 55h1v1h-1zM17 55h1v1h-1zM18 55h1v1h-1zM19 55h1v1h-1zM20 55h1v1h-1z"/><path fill="#8BB3A4" d="M21 55h1v1h-1z"/><path fill="#BCE1DF" d="M22 55h1v1h-1zM23 55h1v1h-1zM24 55h1v1h-1zM25 55h1v1h-1zM26 55h1v1h-1z"/><path fill="#356A4B" d="M27 55h1v1h-1zM28 55h1v1h-1zM29 55h1v1h-1zM30 55h1v1h-1zM31 55h1v1h-1zM32 55h1v1h-1z"/><path fill="#3E7153" d="M33 55h1v1h-1z"/><path fill="#5A8469" d="M34 55h1v1h-1zM35 55h1v1h-1zM36 55h1v1h-1zM37 55h1v1h-1zM38 55h1v1h-1zM39 55h1v1h-1zM40 55h1v1h-1zM41 55h1v1h-1zM42 55h1v1h-1zM43 55h1v1h-1zM44 55h1v1h-1zM45 55h1v1h-1z"/><path fill="#81B3CF" d="M46 55h1v1h-1z"/><path fill="#86BADE" d="M47 55h1v1h-1zM48 55h1v1h-1zM49 55h1v1h-1z"/><path fill="#5F9FB8" d="M50 55h1v1h-1z"/><path fill="#4D93A6" d="M51 55h1v1h-1zM52 55h1v1h-1zM53 55h1v1h-1zM54 55h1v1h-1zM55 55h1v1h-1zM56 55h1v1h-1zM57 55h1v1h-1zM58 55h1v1h-1zM59 55h1v1h-1z"/><path fill="#2E3739" d="M60 55h1v1h-1z"/><path fill="#231815" d="M61 55h1v1h-1zM62 55h1v1h-1zM63 55h1v1h-1zM3 56h1v1H3zM4 56h1v1H4zM5 56h1v1H5zM6 56h1v1H6z"/><path fill="#25221C" d="M7 56h1v1H7z"/><path fill="#356A4B" d="M8 56h1v1H8zM9 56h1v1H9zM10 56h1v1h-1zM11 56h1v1h-1zM12 56h1v1h-1z"/><path fill="#417254" d="M13 56h1v1h-1z"/><path fill="#5A8469" d="M14 56h1v1h-1zM15 56h1v1h-1zM16 56h1v1h-1z"/><path fill="#658D79" d="M17 56h1v1h-1z"/><path fill="#85AAA8" d="M18 56h1v1h-1zM19 56h1v1h-1zM20 56h1v1h-1z"/><path fill="#9DC1C5" d="M21 56h1v1h-1z"/><path fill="#B6D8E3" d="M22 56h1v1h-1zM23 56h1v1h-1zM24 56h1v1h-1zM25 56h1v1h-1zM26 56h1v1h-1z"/><path fill="#729D99" d="M27 56h1v1h-1zM28 56h1v1h-1zM29 56h1v1h-1zM30 56h1v1h-1z"/><path fill="#44775E" d="M31 56h1v1h-1z"/><path fill="#356A4B" d="M32 56h1v1h-1z"/><path fill="#3E7153" d="M33 56h1v1h-1z"/><path fill="#5A8469" d="M34 56h1v1h-1zM35 56h1v1h-1zM36 56h1v1h-1zM37 56h1v1h-1zM38 56h1v1h-1zM39 56h1v1h-1zM40 56h1v1h-1zM41 56h1v1h-1zM42 56h1v1h-1zM43 56h1v1h-1zM44 56h1v1h-1zM45 56h1v1h-1z"/><path fill="#76A6B2" d="M46 56h1v1h-1z"/><path fill="#86BADE" d="M47 56h1v1h-1zM48 56h1v1h-1zM49 56h1v1h-1z"/><path fill="#71ABC9" d="M50 56h1v1h-1z"/><path fill="#4D93A6" d="M51 56h1v1h-1zM52 56h1v1h-1zM53 56h1v1h-1zM54 56h1v1h-1zM55 56h1v1h-1zM56 56h1v1h-1zM57 56h1v1h-1zM58 56h1v1h-1zM59 56h1v1h-1z"/><path fill="#354E54" d="M60 56h1v1h-1z"/><path fill="#231815" d="M61 56h1v1h-1zM62 56h1v1h-1zM63 56h1v1h-1zM2 57h1v1H2zM3 57h1v1H3zM4 57h1v1H4zM5 57h1v1H5zM6 57h1v1H6z"/><path fill="#2F503A" d="M7 57h1v1H7z"/><path fill="#356A4B" d="M8 57h1v1H8zM9 57h1v1H9zM10 57h1v1h-1zM11 57h1v1h-1zM12 57h1v1h-1z"/><path fill="#4C7A5E" d="M13 57h1v1h-1z"/><path fill="#5A8469" d="M14 57h1v1h-1zM15 57h1v1h-1zM16 57h1v1h-1z"/><path fill="#6F9788" d="M17 57h1v1h-1z"/><path fill="#AFCFE6" d="M18 57h1v1h-1zM19 57h1v1h-1zM20 57h1v1h-1zM21 57h1v1h-1zM22 57h1v1h-1zM23 57h1v1h-1zM24 57h1v1h-1zM25 57h1v1h-1zM26 57h1v1h-1zM27 57h1v1h-1zM28 57h1v1h-1zM29 57h1v1h-1zM30 57h1v1h-1z"/><path fill="#548372" d="M31 57h1v1h-1z"/><path fill="#356A4B" d="M32 57h1v1h-1z"/><path fill="#3E7153" d="M33 57h1v1h-1z"/><path fill="#5A8469" d="M34 57h1v1h-1zM35 57h1v1h-1zM36 57h1v1h-1zM37 57h1v1h-1zM38 57h1v1h-1zM39 57h1v1h-1zM40 57h1v1h-1zM41 57h1v1h-1zM42 57h1v1h-1zM43 57h1v1h-1zM44 57h1v1h-1zM45 57h1v1h-1z"/><path fill="#709FA4" d="M46 57h1v1h-1z"/><path fill="#86BADE" d="M47 57h1v1h-1zM48 57h1v1h-1zM49 57h1v1h-1z"/><path fill="#7FB5D7" d="M50 57h1v1h-1z"/><path fill="#4D93A6" d="M51 57h1v1h-1zM52 57h1v1h-1zM53 57h1v1h-1zM54 57h1v1h-1zM55 57h1v1h-1zM56 57h1v1h-1zM57 57h1v1h-1zM58 57h1v1h-1zM59 57h1v1h-1z"/><path fill="#38565E" d="M60 57h1v1h-1z"/><path fill="#231815" d="M61 57h1v1h-1zM62 57h1v1h-1zM63 57h1v1h-1zM1 58h1v1H1zM2 58h1v1H2zM3 58h1v1H3zM4 58h1v1H4zM5 58h1v1H5z"/><path fill="#4E5F6D" d="M6 58h1v1H6z"/><path fill="#356A4B" d="M7 58h1v1H7zM8 58h1v1H8zM9 58h1v1H9zM10 58h1v1h-1zM11 58h1v1h-1zM12 58h1v1h-1zM13 58h1v1h-1zM14 58h1v1h-1zM15 58h1v1h-1zM16 58h1v1h-1z"/><path fill="#548372" d="M17 58h1v1h-1z"/><path fill="#AFCFE6" d="M18 58h1v1h-1zM19 58h1v1h-1zM20 58h1v1h-1zM21 58h1v1h-1zM22 58h1v1h-1zM23 58h1v1h-1zM24 58h1v1h-1zM25 58h1v1h-1zM26 58h1v1h-1zM27 58h1v1h-1zM28 58h1v1h-1zM29 58h1v1h-1zM30 58h1v1h-1z"/><path fill="#548372" d="M31 58h1v1h-1z"/><path fill="#356A4B" d="M32 58h1v1h-1zM33 58h1v1h-1zM34 58h1v1h-1zM35 58h1v1h-1zM36 58h1v1h-1zM37 58h1v1h-1zM38 58h1v1h-1zM39 58h1v1h-1zM40 58h1v1h-1zM41 58h1v1h-1zM42 58h1v1h-1zM43 58h1v1h-1zM44 58h1v1h-1zM45 58h1v1h-1z"/><path fill="#5E9295" d="M46 58h1v1h-1z"/><path fill="#86BADE" d="M47 58h1v1h-1zM48 58h1v1h-1zM49 58h1v1h-1z"/><path fill="#82B8DB" d="M50 58h1v1h-1z"/><path fill="#4D93A6" d="M51 58h1v1h-1zM52 58h1v1h-1zM53 58h1v1h-1zM54 58h1v1h-1zM55 58h1v1h-1zM56 58h1v1h-1zM57 58h1v1h-1zM58 58h1v1h-1zM59 58h1v1h-1z"/><path fill="#38565E" d="M60 58h1v1h-1z"/><path fill="#231815" d="M61 58h1v1h-1zM62 58h1v1h-1zM63 58h1v1h-1zM0 59h1v1H0zM1 59h1v1H1zM2 59h1v1H2zM3 59h1v1H3zM4 59h1v1H4z"/><path fill="#617D93" d="M5 59h1v1H5z"/><path fill="#86BADE" d="M6 59h1v1H6z"/><path fill="#356A4B" d="M7 59h1v1H7zM8 59h1v1H8zM9 59h1v1H9zM10 59h1v1h-1zM11 59h1v1h-1zM12 59h1v1h-1zM13 59h1v1h-1zM14 59h1v1h-1zM15 59h1v1h-1zM16 59h1v1h-1z"/><path fill="#548372" d="M17 59h1v1h-1z"/><path fill="#AFCFE6" d="M18 59h1v1h-1zM19 59h1v1h-1zM20 59h1v1h-1zM21 59h1v1h-1zM22 59h1v1h-1zM23 59h1v1h-1zM24 59h1v1h-1zM25 59h1v1h-1zM26 59h1v1h-1zM27 59h1v1h-1zM28 59h1v1h-1zM29 59h1v1h-1zM30 59h1v1h-1z"/><path fill="#548372" d="M31 59h1v1h-1z"/><path fill="#356A4B" d="M32 59h1v1h-1zM33 59h1v1h-1zM34 59h1v1h-1zM35 59h1v1h-1zM36 59h1v1h-1zM37 59h1v1h-1zM38 59h1v1h-1zM39 59h1v1h-1zM40 59h1v1h-1zM41 59h1v1h-1zM42 59h1v1h-1zM43 59h1v1h-1zM44 59h1v1h-1z"/><path fill="#447967" d="M45 59h1v1h-1z"/><path fill="#86BADE" d="M46 59h1v1h-1zM47 59h1v1h-1zM48 59h1v1h-1zM49 59h1v1h-1z"/><path fill="#66A4BF" d="M50 59h1v1h-1z"/><path fill="#4D93A6" d="M51 59h1v1h-1zM52 59h1v1h-1zM53 59h1v1h-1zM54 59h1v1h-1zM55 59h1v1h-1zM56 59h1v1h-1zM57 59h1v1h-1zM58 59h1v1h-1zM59 59h1v1h-1z"/><path fill="#38565E" d="M60 59h1v1h-1z"/><path fill="#231815" d="M61 59h1v1h-1zM62 59h1v1h-1zM63 59h1v1h-1zM0 60h1v1H0zM1 60h1v1H1zM2 60h1v1H2zM3 60h1v1H3z"/><path fill="#617D93" d="M4 60h1v1H4z"/><path fill="#86BADE" d="M5 60h1v1H5zM6 60h1v1H6z"/><path fill="#356A4B" d="M7 60h1v1H7zM8 60h1v1H8zM9 60h1v1H9zM10 60h1v1h-1zM11 60h1v1h-1zM12 60h1v1h-1zM13 60h1v1h-1zM14 60h1v1h-1zM15 60h1v1h-1zM16 60h1v1h-1z"/><path fill="#548372" d="M17 60h1v1h-1z"/><path fill="#AFCFE6" d="M18 60h1v1h-1zM19 60h1v1h-1zM20 60h1v1h-1zM21 60h1v1h-1zM22 60h1v1h-1zM23 60h1v1h-1zM24 60h1v1h-1zM25 60h1v1h-1zM26 60h1v1h-1zM27 60h1v1h-1zM28 60h1v1h-1zM29 60h1v1h-1zM30 60h1v1h-1z"/><path fill="#548372" d="M31 60h1v1h-1z"/><path fill="#356A4B" d="M32 60h1v1h-1zM33 60h1v1h-1zM34 60h1v1h-1zM35 60h1v1h-1zM36 60h1v1h-1zM37 60h1v1h-1zM38 60h1v1h-1zM39 60h1v1h-1zM40 60h1v1h-1zM41 60h1v1h-1zM42 60h1v1h-1zM43 60h1v1h-1z"/><path fill="#3A6F54" d="M44 60h1v1h-1z"/><path fill="#7CB0CC" d="M45 60h1v1h-1z"/><path fill="#86BADE" d="M46 60h1v1h-1zM47 60h1v1h-1zM48 60h1v1h-1z"/><path fill="#78B0D0" d="M49 60h1v1h-1z"/><path fill="#4D93A6" d="M50 60h1v1h-1zM51 60h1v1h-1zM52 60h1v1h-1zM53 60h1v1h-1zM54 60h1v1h-1zM55 60h1v1h-1zM56 60h1v1h-1zM57 60h1v1h-1zM58 60h1v1h-1zM59 60h1v1h-1z"/><path fill="#38565E" d="M60 60h1v1h-1z"/><path fill="#231815" d="M61 60h1v1h-1zM62 60h1v1h-1zM63 60h1v1h-1zM0 61h1v1H0zM1 61h1v1H1zM2 61h1v1H2z"/><path fill="#4E5F6D" d="M3 61h1v1H3z"/><path fill="#86BADE" d="M4 61h1v1H4zM5 61h1v1H5zM6 61h1v1H6z"/><path fill="#356A4B" d="M7 61h1v1H7zM8 61h1v1H8zM9 61h1v1H9zM10 61h1v1h-1zM11 61h1v1h-1zM12 61h1v1h-1zM13 61h1v1h-1zM14 61h1v1h-1zM15 61h1v1h-1zM16 61h1v1h-1z"/><path fill="#548372" d="M17 61h1v1h-1z"/><path fill="#AFCFE6" d="M18 61h1v1h-1zM19 61h1v1h-1zM20 61h1v1h-1zM21 61h1v1h-1zM22 61h1v1h-1zM23 61h1v1h-1zM24 61h1v1h-1zM25 61h1v1h-1zM26 61h1v1h-1zM27 61h1v1h-1zM28 61h1v1h-1zM29 61h1v1h-1zM30 61h1v1h-1z"/><path fill="#548372" d="M31 61h1v1h-1z"/><path fill="#356A4B" d="M32 61h1v1h-1zM33 61h1v1h-1zM34 61h1v1h-1zM35 61h1v1h-1zM36 61h1v1h-1zM37 61h1v1h-1zM38 61h1v1h-1zM39 61h1v1h-1zM40 61h1v1h-1zM41 61h1v1h-1zM42 61h1v1h-1zM43 61h1v1h-1z"/><path fill="#6DA1B0" d="M44 61h1v1h-1z"/><path fill="#86BADE" d="M45 61h1v1h-1zM46 61h1v1h-1zM47 61h1v1h-1z"/><path fill="#82B8DB" d="M48 61h1v1h-1z"/><path fill="#589AB1" d="M49 61h1v1h-1z"/><path fill="#4D93A6" d="M50 61h1v1h-1zM51 61h1v1h-1zM52 61h1v1h-1zM53 61h1v1h-1zM54 61h1v1h-1zM55 61h1v1h-1zM56 61h1v1h-1zM57 61h1v1h-1zM58 61h1v1h-1zM59 61h1v1h-1z"/><path fill="#3D6570" d="M60 61h1v1h-1z"/><path fill="#231815" d="M61 61h1v1h-1zM62 61h1v1h-1zM63 61h1v1h-1zM0 62h1v1H0zM1 62h1v1H1zM2 62h1v1H2z"/><path fill="#67879F" d="M3 62h1v1H3z"/><path fill="#86BADE" d="M4 62h1v1H4z"/><path fill="#90BFE0" d="M5 62h1v1H5z"/><path fill="#9EC9E0" d="M6 62h1v1H6z"/><path fill="#79A695" d="M7 62h1v1H7zM8 62h1v1H8zM9 62h1v1H9zM10 62h1v1h-1zM11 62h1v1h-1zM12 62h1v1h-1zM13 62h1v1h-1zM14 62h1v1h-1zM15 62h1v1h-1zM16 62h1v1h-1z"/><path fill="#88B2A8" d="M17 62h1v1h-1z"/><path fill="#B6D8E3" d="M18 62h1v1h-1zM19 62h1v1h-1zM20 62h1v1h-1zM21 62h1v1h-1zM22 62h1v1h-1zM23 62h1v1h-1zM24 62h1v1h-1zM25 62h1v1h-1zM26 62h1v1h-1zM27 62h1v1h-1zM28 62h1v1h-1zM29 62h1v1h-1zM30 62h1v1h-1z"/><path fill="#88B2A8" d="M31 62h1v1h-1z"/><path fill="#79A695" d="M32 62h1v1h-1zM33 62h1v1h-1zM34 62h1v1h-1zM35 62h1v1h-1zM36 62h1v1h-1zM37 62h1v1h-1zM38 62h1v1h-1zM39 62h1v1h-1zM40 62h1v1h-1zM41 62h1v1h-1zM42 62h1v1h-1z"/><path fill="#7CA89F" d="M43 62h1v1h-1z"/><path fill="#9BC5E2" d="M44 62h1v1h-1zM45 62h1v1h-1zM46 62h1v1h-1zM47 62h1v1h-1z"/><path fill="#6BA7C0" d="M48 62h1v1h-1z"/><path fill="#4D93A6" d="M49 62h1v1h-1zM50 62h1v1h-1zM51 62h1v1h-1zM52 62h1v1h-1zM53 62h1v1h-1zM54 62h1v1h-1zM55 62h1v1h-1zM56 62h1v1h-1zM57 62h1v1h-1zM58 62h1v1h-1zM59 62h1v1h-1z"/><path fill="#437482" d="M60 62h1v1h-1z"/><path fill="#231815" d="M61 62h1v1h-1zM62 62h1v1h-1zM63 62h1v1h-1zM0 63h1v1H0zM1 63h1v1H1zM2 63h1v1H2z"/><path fill="#7897AE" d="M3 63h1v1H3z"/><path fill="#A5CAE4" d="M4 63h1v1H4z"/><path fill="#AFCFE6" d="M5 63h1v1H5z"/><path fill="#B6D8E3" d="M6 63h1v1H6z"/><path fill="#BCE1DF" d="M7 63h1v1H7zM8 63h1v1H8zM9 63h1v1H9zM10 63h1v1h-1zM11 63h1v1h-1zM12 63h1v1h-1zM13 63h1v1h-1zM14 63h1v1h-1zM15 63h1v1h-1zM16 63h1v1h-1zM17 63h1v1h-1zM18 63h1v1h-1zM19 63h1v1h-1zM20 63h1v1h-1zM21 63h1v1h-1zM22 63h1v1h-1zM23 63h1v1h-1zM24 63h1v1h-1zM25 63h1v1h-1zM26 63h1v1h-1zM27 63h1v1h-1zM28 63h1v1h-1zM29 63h1v1h-1zM30 63h1v1h-1zM31 63h1v1h-1zM32 63h1v1h-1zM33 63h1v1h-1zM34 63h1v1h-1zM35 63h1v1h-1zM36 63h1v1h-1zM37 63h1v1h-1zM38 63h1v1h-1zM39 63h1v1h-1zM40 63h1v1h-1zM41 63h1v1h-1zM42 63h1v1h-1z"/><path fill="#B9DDE1" d="M43 63h1v1h-1z"/><path fill="#AFCFE6" d="M44 63h1v1h-1zM45 63h1v1h-1zM46 63h1v1h-1zM47 63h1v1h-1z"/><path fill="#66A2B6" d="M48 63h1v1h-1z"/><path fill="#4D93A6" d="M49 63h1v1h-1zM50 63h1v1h-1zM51 63h1v1h-1zM52 63h1v1h-1zM53 63h1v1h-1zM54 63h1v1h-1zM55 63h1v1h-1zM56 63h1v1h-1zM57 63h1v1h-1zM58 63h1v1h-1zM59 63h1v1h-1z"/><path fill="#437482" d="M60 63h1v1h-1z"/><path fill="#231815" d="M61 63h1v1h-1zM62 63h1v1h-1zM63 63h1v1h-1zM0 64h1v1H0zM1 64h1v1H1zM2 64h1v1H2z"/><path fill="#8CA1B2" d="M3 64h1v1H3z"/><path fill="#AFCFE6" d="M4 64h1v1H4zM5 64h1v1H5z"/><path fill="#B6D8E3" d="M6 64h1v1H6z"/><path fill="#BCE1DF" d="M7 64h1v1H7zM8 64h1v1H8zM9 64h1v1H9zM10 64h1v1h-1zM11 64h1v1h-1zM12 64h1v1h-1zM13 64h1v1h-1zM14 64h1v1h-1zM15 64h1v1h-1zM16 64h1v1h-1zM17 64h1v1h-1zM18 64h1v1h-1zM19 64h1v1h-1zM20 64h1v1h-1zM21 64h1v1h-1zM22 64h1v1h-1zM23 64h1v1h-1zM24 64h1v1h-1zM25 64h1v1h-1zM26 64h1v1h-1zM27 64h1v1h-1zM28 64h1v1h-1zM29 64h1v1h-1zM30 64h1v1h-1zM31 64h1v1h-1zM32 64h1v1h-1zM33 64h1v1h-1zM34 64h1v1h-1zM35 64h1v1h-1zM36 64h1v1h-1zM37 64h1v1h-1zM38 64h1v1h-1zM39 64h1v1h-1zM40 64h1v1h-1zM41 64h1v1h-1zM42 64h1v1h-1z"/><path fill="#B9DDE1" d="M43 64h1v1h-1z"/><path fill="#AFCFE6" d="M44 64h1v1h-1zM45 64h1v1h-1zM46 64h1v1h-1zM47 64h1v1h-1z"/><path fill="#66A2B6" d="M48 64h1v1h-1z"/><path fill="#4D93A6" d="M49 64h1v1h-1zM50 64h1v1h-1zM51 64h1v1h-1zM52 64h1v1h-1zM53 64h1v1h-1zM54 64h1v1h-1zM55 64h1v1h-1zM56 64h1v1h-1zM57 64h1v1h-1zM58 64h1v1h-1zM59 64h1v1h-1z"/><path fill="#437482" d="M60 64h1v1h-1z"/><path fill="#231815" d="M61 64h1v1h-1zM62 64h1v1h-1zM63 64h1v1h-1zM0 65h1v1H0zM1 65h1v1H1zM2 65h1v1H2z"/><path fill="#8CA1B2" d="M3 65h1v1H3z"/><path fill="#AFCFE6" d="M4 65h1v1H4zM5 65h1v1H5z"/><path fill="#B6D8E3" d="M6 65h1v1H6z"/><path fill="#BCE1DF" d="M7 65h1v1H7zM8 65h1v1H8zM9 65h1v1H9zM10 65h1v1h-1zM11 65h1v1h-1zM12 65h1v1h-1zM13 65h1v1h-1zM14 65h1v1h-1zM15 65h1v1h-1zM16 65h1v1h-1zM17 65h1v1h-1zM18 65h1v1h-1zM19 65h1v1h-1zM20 65h1v1h-1zM21 65h1v1h-1zM22 65h1v1h-1zM23 65h1v1h-1zM24 65h1v1h-1zM25 65h1v1h-1zM26 65h1v1h-1zM27 65h1v1h-1zM28 65h1v1h-1zM29 65h1v1h-1zM30 65h1v1h-1zM31 65h1v1h-1zM32 65h1v1h-1zM33 65h1v1h-1zM34 65h1v1h-1zM35 65h1v1h-1zM36 65h1v1h-1zM37 65h1v1h-1zM38 65h1v1h-1zM39 65h1v1h-1zM40 65h1v1h-1zM41 65h1v1h-1zM42 65h1v1h-1z"/><path fill="#B9DDE1" d="M43 65h1v1h-1z"/><path fill="#AFCFE6" d="M44 65h1v1h-1zM45 65h1v1h-1zM46 65h1v1h-1zM47 65h1v1h-1z"/><path fill="#66A2B6" d="M48 65h1v1h-1z"/><path fill="#4D93A6" d="M49 65h1v1h-1zM50 65h1v1h-1zM51 65h1v1h-1zM52 65h1v1h-1zM53 65h1v1h-1zM54 65h1v1h-1zM55 65h1v1h-1zM56 65h1v1h-1zM57 65h1v1h-1zM58 65h1v1h-1zM59 65h1v1h-1z"/><path fill="#437482" d="M60 65h1v1h-1z"/><path fill="#231815" d="M61 65h1v1h-1zM62 65h1v1h-1zM63 65h1v1h-1zM0 66h1v1H0zM1 66h1v1H1zM2 66h1v1H2z"/><path fill="#8CA1B2" d="M3 66h1v1H3z"/><path fill="#AFCFE6" d="M4 66h1v1H4zM5 66h1v1H5z"/><path fill="#A5CEDD" d="M6 66h1v1H6z"/><path fill="#AFD7DD" d="M7 66h1v1H7zM8 66h1v1H8zM9 66h1v1H9zM10 66h1v1h-1zM11 66h1v1h-1zM12 66h1v1h-1zM13 66h1v1h-1zM14 66h1v1h-1zM15 66h1v1h-1zM16 66h1v1h-1zM17 66h1v1h-1zM18 66h1v1h-1zM19 66h1v1h-1zM20 66h1v1h-1zM21 66h1v1h-1zM22 66h1v1h-1zM23 66h1v1h-1zM24 66h1v1h-1zM25 66h1v1h-1zM26 66h1v1h-1zM27 66h1v1h-1zM28 66h1v1h-1zM29 66h1v1h-1zM30 66h1v1h-1zM31 66h1v1h-1zM32 66h1v1h-1zM33 66h1v1h-1zM34 66h1v1h-1zM35 66h1v1h-1zM36 66h1v1h-1zM37 66h1v1h-1zM38 66h1v1h-1zM39 66h1v1h-1zM40 66h1v1h-1zM41 66h1v1h-1zM42 66h1v1h-1z"/><path fill="#B1D7E0" d="M43 66h1v1h-1z"/><path fill="#AFCFE6" d="M44 66h1v1h-1zM45 66h1v1h-1zM46 66h1v1h-1zM47 66h1v1h-1z"/><path fill="#66A2B6" d="M48 66h1v1h-1z"/><path fill="#4D93A6" d="M49 66h1v1h-1zM50 66h1v1h-1zM51 66h1v1h-1zM52 66h1v1h-1zM53 66h1v1h-1zM54 66h1v1h-1zM55 66h1v1h-1zM56 66h1v1h-1zM57 66h1v1h-1zM58 66h1v1h-1zM59 66h1v1h-1z"/><path fill="#437482" d="M60 66h1v1h-1z"/><path fill="#231815" d="M61 66h1v1h-1zM62 66h1v1h-1zM63 66h1v1h-1zM0 67h1v1H0zM1 67h1v1H1zM2 67h1v1H2z"/><path fill="#8CA1B2" d="M3 67h1v1H3z"/><path fill="#AFCFE6" d="M4 67h1v1H4zM5 67h1v1H5z"/><path fill="#91BFD9" d="M6 67h1v1H6z"/><path fill="#87BAD5" d="M7 67h1v1H7zM8 67h1v1H8zM9 67h1v1H9zM10 67h1v1h-1zM11 67h1v1h-1zM12 67h1v1h-1zM13 67h1v1h-1zM14 67h1v1h-1zM15 67h1v1h-1zM16 67h1v1h-1zM17 67h1v1h-1zM18 67h1v1h-1zM19 67h1v1h-1zM20 67h1v1h-1zM21 67h1v1h-1zM22 67h1v1h-1zM23 67h1v1h-1zM24 67h1v1h-1zM25 67h1v1h-1zM26 67h1v1h-1zM27 67h1v1h-1zM28 67h1v1h-1zM29 67h1v1h-1zM30 67h1v1h-1zM31 67h1v1h-1zM32 67h1v1h-1zM33 67h1v1h-1zM34 67h1v1h-1zM35 67h1v1h-1zM36 67h1v1h-1zM37 67h1v1h-1zM38 67h1v1h-1zM39 67h1v1h-1zM40 67h1v1h-1zM41 67h1v1h-1zM42 67h1v1h-1z"/><path fill="#9BC5DE" d="M43 67h1v1h-1z"/><path fill="#AFCFE6" d="M44 67h1v1h-1zM45 67h1v1h-1zM46 67h1v1h-1zM47 67h1v1h-1z"/><path fill="#66A2B6" d="M48 67h1v1h-1z"/><path fill="#4D93A6" d="M49 67h1v1h-1zM50 67h1v1h-1zM51 67h1v1h-1zM52 67h1v1h-1zM53 67h1v1h-1zM54 67h1v1h-1zM55 67h1v1h-1zM56 67h1v1h-1zM57 67h1v1h-1zM58 67h1v1h-1zM59 67h1v1h-1z"/><path fill="#437482" d="M60 67h1v1h-1z"/><path fill="#231815" d="M61 67h1v1h-1zM62 67h1v1h-1zM63 67h1v1h-1zM0 68h1v1H0zM1 68h1v1H1zM2 68h1v1H2z"/><path fill="#8CA1B2" d="M3 68h1v1H3z"/><path fill="#AFCFE6" d="M4 68h1v1H4zM5 68h1v1H5z"/><path fill="#91BFD9" d="M6 68h1v1H6z"/><path fill="#87BAD5" d="M7 68h1v1H7zM8 68h1v1H8zM9 68h1v1H9zM10 68h1v1h-1zM11 68h1v1h-1zM12 68h1v1h-1zM13 68h1v1h-1zM14 68h1v1h-1zM15 68h1v1h-1zM16 68h1v1h-1zM17 68h1v1h-1zM18 68h1v1h-1zM19 68h1v1h-1zM20 68h1v1h-1zM21 68h1v1h-1zM22 68h1v1h-1zM23 68h1v1h-1zM24 68h1v1h-1zM25 68h1v1h-1zM26 68h1v1h-1zM27 68h1v1h-1zM28 68h1v1h-1zM29 68h1v1h-1zM30 68h1v1h-1zM31 68h1v1h-1zM32 68h1v1h-1zM33 68h1v1h-1zM34 68h1v1h-1zM35 68h1v1h-1zM36 68h1v1h-1zM37 68h1v1h-1zM38 68h1v1h-1zM39 68h1v1h-1zM40 68h1v1h-1zM41 68h1v1h-1zM42 68h1v1h-1z"/><path fill="#9BC5DE" d="M43 68h1v1h-1z"/><path fill="#AFCFE6" d="M44 68h1v1h-1zM45 68h1v1h-1zM46 68h1v1h-1zM47 68h1v1h-1z"/><path fill="#66A2B6" d="M48 68h1v1h-1z"/><path fill="#4D93A6" d="M49 68h1v1h-1zM50 68h1v1h-1zM51 68h1v1h-1zM52 68h1v1h-1zM53 68h1v1h-1zM54 68h1v1h-1zM55 68h1v1h-1zM56 68h1v1h-1zM57 68h1v1h-1zM58 68h1v1h-1zM59 68h1v1h-1z"/><path fill="#406D79" d="M60 68h1v1h-1z"/><path fill="#231815" d="M61 68h1v1h-1zM62 68h1v1h-1zM63 68h1v1h-1zM0 69h1v1H0zM1 69h1v1H1zM2 69h1v1H2z"/><path fill="#8CA1B2" d="M3 69h1v1H3z"/><path fill="#AFCFE6" d="M4 69h1v1H4zM5 69h1v1H5z"/><path fill="#91BFD9" d="M6 69h1v1H6z"/><path fill="#87BAD5" d="M7 69h1v1H7zM8 69h1v1H8zM9 69h1v1H9zM10 69h1v1h-1zM11 69h1v1h-1zM12 69h1v1h-1zM13 69h1v1h-1zM14 69h1v1h-1zM15 69h1v1h-1zM16 69h1v1h-1zM17 69h1v1h-1zM18 69h1v1h-1zM19 69h1v1h-1zM20 69h1v1h-1zM21 69h1v1h-1zM22 69h1v1h-1zM23 69h1v1h-1zM24 69h1v1h-1zM25 69h1v1h-1zM26 69h1v1h-1zM27 69h1v1h-1zM28 69h1v1h-1zM29 69h1v1h-1zM30 69h1v1h-1zM31 69h1v1h-1zM32 69h1v1h-1zM33 69h1v1h-1zM34 69h1v1h-1zM35 69h1v1h-1zM36 69h1v1h-1zM37 69h1v1h-1zM38 69h1v1h-1zM39 69h1v1h-1zM40 69h1v1h-1zM41 69h1v1h-1zM42 69h1v1h-1z"/><path fill="#9BC5DE" d="M43 69h1v1h-1z"/><path fill="#AFCFE6" d="M44 69h1v1h-1zM45 69h1v1h-1zM46 69h1v1h-1zM47 69h1v1h-1z"/><path fill="#66A2B6" d="M48 69h1v1h-1z"/><path fill="#4D93A6" d="M49 69h1v1h-1zM50 69h1v1h-1zM51 69h1v1h-1zM52 69h1v1h-1zM53 69h1v1h-1zM54 69h1v1h-1zM55 69h1v1h-1zM56 69h1v1h-1zM57 69h1v1h-1zM58 69h1v1h-1zM59 69h1v1h-1z"/><path fill="#33464B" d="M60 69h1v1h-1z"/><path fill="#231815" d="M61 69h1v1h-1zM62 69h1v1h-1zM63 69h1v1h-1zM0 70h1v1H0zM1 70h1v1H1zM2 70h1v1H2z"/><path fill="#8CA1B2" d="M3 70h1v1H3z"/><path fill="#AFCFE6" d="M4 70h1v1H4zM5 70h1v1H5z"/><path fill="#91BFD9" d="M6 70h1v1H6z"/><path fill="#87BAD5" d="M7 70h1v1H7zM8 70h1v1H8zM9 70h1v1H9zM10 70h1v1h-1zM11 70h1v1h-1zM12 70h1v1h-1zM13 70h1v1h-1zM14 70h1v1h-1zM15 70h1v1h-1zM16 70h1v1h-1zM17 70h1v1h-1zM18 70h1v1h-1zM19 70h1v1h-1zM20 70h1v1h-1zM21 70h1v1h-1zM22 70h1v1h-1zM23 70h1v1h-1zM24 70h1v1h-1zM25 70h1v1h-1zM26 70h1v1h-1zM27 70h1v1h-1zM28 70h1v1h-1zM29 70h1v1h-1zM30 70h1v1h-1zM31 70h1v1h-1zM32 70h1v1h-1zM33 70h1v1h-1zM34 70h1v1h-1zM35 70h1v1h-1zM36 70h1v1h-1zM37 70h1v1h-1zM38 70h1v1h-1zM39 70h1v1h-1zM40 70h1v1h-1zM41 70h1v1h-1zM42 70h1v1h-1z"/><path fill="#9BC5DE" d="M43 70h1v1h-1z"/><path fill="#AFCFE6" d="M44 70h1v1h-1zM45 70h1v1h-1zM46 70h1v1h-1zM47 70h1v1h-1z"/><path fill="#66A2B6" d="M48 70h1v1h-1z"/><path fill="#4D93A6" d="M49 70h1v1h-1zM50 70h1v1h-1zM51 70h1v1h-1zM52 70h1v1h-1zM53 70h1v1h-1zM54 70h1v1h-1zM55 70h1v1h-1zM56 70h1v1h-1zM57 70h1v1h-1zM58 70h1v1h-1z"/><path fill="#437482" d="M59 70h1v1h-1z"/><path fill="#231815" d="M60 70h1v1h-1zM61 70h1v1h-1zM62 70h1v1h-1zM63 70h1v1h-1zM0 71h1v1H0zM1 71h1v1H1zM2 71h1v1H2z"/><path fill="#8CA1B2" d="M3 71h1v1H3z"/><path fill="#AFCFE6" d="M4 71h1v1H4zM5 71h1v1H5z"/><path fill="#91BFD9" d="M6 71h1v1H6z"/><path fill="#87BAD5" d="M7 71h1v1H7zM8 71h1v1H8zM9 71h1v1H9zM10 71h1v1h-1zM11 71h1v1h-1zM12 71h1v1h-1zM13 71h1v1h-1zM14 71h1v1h-1zM15 71h1v1h-1zM16 71h1v1h-1zM17 71h1v1h-1zM18 71h1v1h-1zM19 71h1v1h-1zM20 71h1v1h-1zM21 71h1v1h-1zM22 71h1v1h-1zM23 71h1v1h-1zM24 71h1v1h-1zM25 71h1v1h-1zM26 71h1v1h-1zM27 71h1v1h-1zM28 71h1v1h-1zM29 71h1v1h-1zM30 71h1v1h-1zM31 71h1v1h-1zM32 71h1v1h-1zM33 71h1v1h-1zM34 71h1v1h-1zM35 71h1v1h-1zM36 71h1v1h-1zM37 71h1v1h-1zM38 71h1v1h-1zM39 71h1v1h-1zM40 71h1v1h-1zM41 71h1v1h-1zM42 71h1v1h-1z"/><path fill="#9BC5DE" d="M43 71h1v1h-1z"/><path fill="#AFCFE6" d="M44 71h1v1h-1zM45 71h1v1h-1zM46 71h1v1h-1zM47 71h1v1h-1z"/><path fill="#66A2B6" d="M48 71h1v1h-1z"/><path fill="#4D93A6" d="M49 71h1v1h-1zM50 71h1v1h-1zM51 71h1v1h-1zM52 71h1v1h-1zM53 71h1v1h-1zM54 71h1v1h-1zM55 71h1v1h-1zM56 71h1v1h-1zM57 71h1v1h-1z"/><path fill="#4A8B9D" d="M58 71h1v1h-1z"/><path fill="#282727" d="M59 71h1v1h-1z"/><path fill="#231815" d="M60 71h1v1h-1zM61 71h1v1h-1zM62 71h1v1h-1zM0 72h1v1H0zM1 72h1v1H1zM2 72h1v1H2z"/><path fill="#8CA1B2" d="M3 72h1v1H3z"/><path fill="#AFCFE6" d="M4 72h1v1H4zM5 72h1v1H5z"/><path fill="#91BFD9" d="M6 72h1v1H6z"/><path fill="#87BAD5" d="M7 72h1v1H7zM8 72h1v1H8zM9 72h1v1H9zM10 72h1v1h-1zM11 72h1v1h-1zM12 72h1v1h-1z"/><path fill="#96C2DB" d="M13 72h1v1h-1z"/><path fill="#9BC5DE" d="M14 72h1v1h-1zM15 72h1v1h-1zM16 72h1v1h-1z"/><path fill="#8CBDD7" d="M17 72h1v1h-1z"/><path fill="#87BAD5" d="M18 72h1v1h-1zM19 72h1v1h-1zM20 72h1v1h-1zM21 72h1v1h-1zM22 72h1v1h-1zM23 72h1v1h-1zM24 72h1v1h-1zM25 72h1v1h-1zM26 72h1v1h-1zM27 72h1v1h-1zM28 72h1v1h-1zM29 72h1v1h-1zM30 72h1v1h-1zM31 72h1v1h-1zM32 72h1v1h-1zM33 72h1v1h-1zM34 72h1v1h-1z"/><path fill="#9BC5DE" d="M35 72h1v1h-1zM36 72h1v1h-1zM37 72h1v1h-1zM38 72h1v1h-1z"/><path fill="#87BAD5" d="M39 72h1v1h-1zM40 72h1v1h-1zM41 72h1v1h-1zM42 72h1v1h-1z"/><path fill="#9BC5DE" d="M43 72h1v1h-1z"/><path fill="#AFCFE6" d="M44 72h1v1h-1zM45 72h1v1h-1zM46 72h1v1h-1zM47 72h1v1h-1z"/><path fill="#66A2B6" d="M48 72h1v1h-1z"/><path fill="#4D93A6" d="M49 72h1v1h-1zM50 72h1v1h-1zM51 72h1v1h-1zM52 72h1v1h-1zM53 72h1v1h-1zM54 72h1v1h-1zM55 72h1v1h-1zM56 72h1v1h-1zM57 72h1v1h-1z"/><path fill="#354E54" d="M58 72h1v1h-1z"/><path fill="#231815" d="M59 72h1v1h-1zM60 72h1v1h-1zM61 72h1v1h-1zM62 72h1v1h-1zM0 73h1v1H0zM1 73h1v1H1zM2 73h1v1H2z"/><path fill="#8CA1B2" d="M3 73h1v1H3z"/><path fill="#AFCFE6" d="M4 73h1v1H4zM5 73h1v1H5z"/><path fill="#91BFD9" d="M6 73h1v1H6z"/><path fill="#87BAD5" d="M7 73h1v1H7zM8 73h1v1H8zM9 73h1v1H9zM10 73h1v1h-1zM11 73h1v1h-1zM12 73h1v1h-1z"/><path fill="#A5CAE2" d="M13 73h1v1h-1z"/><path fill="#AFCFE6" d="M14 73h1v1h-1zM15 73h1v1h-1zM16 73h1v1h-1z"/><path fill="#91BFD9" d="M17 73h1v1h-1z"/><path fill="#87BAD5" d="M18 73h1v1h-1zM19 73h1v1h-1zM20 73h1v1h-1zM21 73h1v1h-1zM22 73h1v1h-1zM23 73h1v1h-1zM24 73h1v1h-1zM25 73h1v1h-1zM26 73h1v1h-1zM27 73h1v1h-1zM28 73h1v1h-1zM29 73h1v1h-1zM30 73h1v1h-1zM31 73h1v1h-1zM32 73h1v1h-1zM33 73h1v1h-1zM34 73h1v1h-1z"/><path fill="#AFCFE6" d="M35 73h1v1h-1zM36 73h1v1h-1zM37 73h1v1h-1zM38 73h1v1h-1z"/><path fill="#87BAD5" d="M39 73h1v1h-1zM40 73h1v1h-1zM41 73h1v1h-1zM42 73h1v1h-1z"/><path fill="#9BC5DE" d="M43 73h1v1h-1z"/><path fill="#AFCFE6" d="M44 73h1v1h-1zM45 73h1v1h-1zM46 73h1v1h-1zM47 73h1v1h-1z"/><path fill="#66A2B6" d="M48 73h1v1h-1z"/><path fill="#4D93A6" d="M49 73h1v1h-1zM50 73h1v1h-1zM51 73h1v1h-1zM52 73h1v1h-1zM53 73h1v1h-1zM54 73h1v1h-1zM55 73h1v1h-1zM56 73h1v1h-1z"/><path fill="#437482" d="M57 73h1v1h-1z"/><path fill="#231815" d="M58 73h1v1h-1zM59 73h1v1h-1zM60 73h1v1h-1zM61 73h1v1h-1zM0 74h1v1H0zM1 74h1v1H1zM2 74h1v1H2z"/><path fill="#8CA1B2" d="M3 74h1v1H3z"/><path fill="#AFCFE6" d="M4 74h1v1H4zM5 74h1v1H5z"/><path fill="#91BFD9" d="M6 74h1v1H6z"/><path fill="#87BAD5" d="M7 74h1v1H7zM8 74h1v1H8zM9 74h1v1H9zM10 74h1v1h-1zM11 74h1v1h-1zM12 74h1v1h-1z"/><path fill="#A5CAE2" d="M13 74h1v1h-1z"/><path fill="#AFCFE6" d="M14 74h1v1h-1zM15 74h1v1h-1zM16 74h1v1h-1z"/><path fill="#91BFD9" d="M17 74h1v1h-1z"/><path fill="#87BAD5" d="M18 74h1v1h-1zM19 74h1v1h-1zM20 74h1v1h-1zM21 74h1v1h-1zM22 74h1v1h-1zM23 74h1v1h-1zM24 74h1v1h-1zM25 74h1v1h-1zM26 74h1v1h-1zM27 74h1v1h-1zM28 74h1v1h-1zM29 74h1v1h-1zM30 74h1v1h-1zM31 74h1v1h-1zM32 74h1v1h-1zM33 74h1v1h-1zM34 74h1v1h-1z"/><path fill="#AFCFE6" d="M35 74h1v1h-1zM36 74h1v1h-1zM37 74h1v1h-1zM38 74h1v1h-1z"/><path fill="#87BAD5" d="M39 74h1v1h-1zM40 74h1v1h-1zM41 74h1v1h-1zM42 74h1v1h-1z"/><path fill="#9BC5DE" d="M43 74h1v1h-1z"/><path fill="#AFCFE6" d="M44 74h1v1h-1zM45 74h1v1h-1zM46 74h1v1h-1zM47 74h1v1h-1z"/><path fill="#66A2B6" d="M48 74h1v1h-1z"/><path fill="#4D93A6" d="M49 74h1v1h-1zM50 74h1v1h-1zM51 74h1v1h-1zM52 74h1v1h-1zM53 74h1v1h-1zM54 74h1v1h-1zM55 74h1v1h-1z"/><path fill="#4A8B9D" d="M56 74h1v1h-1z"/><path fill="#282727" d="M57 74h1v1h-1z"/><path fill="#231815" d="M58 74h1v1h-1zM59 74h1v1h-1zM60 74h1v1h-1zM0 75h1v1H0zM1 75h1v1H1zM2 75h1v1H2z"/><path fill="#8CA1B2" d="M3 75h1v1H3z"/><path fill="#AFCFE6" d="M4 75h1v1H4zM5 75h1v1H5z"/><path fill="#91BFD9" d="M6 75h1v1H6z"/><path fill="#87BAD5" d="M7 75h1v1H7zM8 75h1v1H8zM9 75h1v1H9zM10 75h1v1h-1zM11 75h1v1h-1zM12 75h1v1h-1z"/><path fill="#A5CAE2" d="M13 75h1v1h-1z"/><path fill="#AFCFE6" d="M14 75h1v1h-1zM15 75h1v1h-1zM16 75h1v1h-1z"/><path fill="#A0C7E0" d="M17 75h1v1h-1z"/><path fill="#9BC5DE" d="M18 75h1v1h-1zM19 75h1v1h-1zM20 75h1v1h-1zM21 75h1v1h-1zM22 75h1v1h-1zM23 75h1v1h-1zM24 75h1v1h-1zM25 75h1v1h-1zM26 75h1v1h-1zM27 75h1v1h-1zM28 75h1v1h-1zM29 75h1v1h-1zM30 75h1v1h-1zM31 75h1v1h-1zM32 75h1v1h-1zM33 75h1v1h-1zM34 75h1v1h-1z"/><path fill="#AFCFE6" d="M35 75h1v1h-1zM36 75h1v1h-1zM37 75h1v1h-1zM38 75h1v1h-1z"/><path fill="#87BAD5" d="M39 75h1v1h-1zM40 75h1v1h-1zM41 75h1v1h-1zM42 75h1v1h-1z"/><path fill="#9BC5DE" d="M43 75h1v1h-1z"/><path fill="#AFCFE6" d="M44 75h1v1h-1zM45 75h1v1h-1zM46 75h1v1h-1zM47 75h1v1h-1z"/><path fill="#66A2B6" d="M48 75h1v1h-1z"/><path fill="#4D93A6" d="M49 75h1v1h-1zM50 75h1v1h-1zM51 75h1v1h-1zM52 75h1v1h-1zM53 75h1v1h-1zM54 75h1v1h-1zM55 75h1v1h-1z"/><path fill="#354E54" d="M56 75h1v1h-1z"/><path fill="#231815" d="M57 75h1v1h-1zM58 75h1v1h-1zM59 75h1v1h-1zM60 75h1v1h-1zM0 76h1v1H0zM1 76h1v1H1zM2 76h1v1H2z"/><path fill="#8CA1B2" d="M3 76h1v1H3z"/><path fill="#AFCFE6" d="M4 76h1v1H4zM5 76h1v1H5z"/><path fill="#91BFD9" d="M6 76h1v1H6z"/><path fill="#87BAD5" d="M7 76h1v1H7zM8 76h1v1H8zM9 76h1v1H9zM10 76h1v1h-1zM11 76h1v1h-1zM12 76h1v1h-1z"/><path fill="#A5CAE2" d="M13 76h1v1h-1z"/><path fill="#AFCFE6" d="M14 76h1v1h-1zM15 76h1v1h-1zM16 76h1v1h-1zM17 76h1v1h-1zM18 76h1v1h-1zM19 76h1v1h-1zM20 76h1v1h-1zM21 76h1v1h-1zM22 76h1v1h-1zM23 76h1v1h-1zM24 76h1v1h-1zM25 76h1v1h-1zM26 76h1v1h-1zM27 76h1v1h-1zM28 76h1v1h-1zM29 76h1v1h-1zM30 76h1v1h-1zM31 76h1v1h-1zM32 76h1v1h-1zM33 76h1v1h-1zM34 76h1v1h-1zM35 76h1v1h-1zM36 76h1v1h-1zM37 76h1v1h-1zM38 76h1v1h-1z"/><path fill="#87BAD5" d="M39 76h1v1h-1zM40 76h1v1h-1zM41 76h1v1h-1zM42 76h1v1h-1z"/><path fill="#9BC5DE" d="M43 76h1v1h-1z"/><path fill="#AFCFE6" d="M44 76h1v1h-1zM45 76h1v1h-1zM46 76h1v1h-1zM47 76h1v1h-1z"/><path fill="#66A2B6" d="M48 76h1v1h-1z"/><path fill="#4D93A6" d="M49 76h1v1h-1zM50 76h1v1h-1zM51 76h1v1h-1zM52 76h1v1h-1zM53 76h1v1h-1zM54 76h1v1h-1z"/><path fill="#437482" d="M55 76h1v1h-1z"/><path fill="#231815" d="M56 76h1v1h-1zM57 76h1v1h-1zM58 76h1v1h-1zM59 76h1v1h-1zM0 77h1v1H0zM1 77h1v1H1zM2 77h1v1H2z"/><path fill="#8CA1B2" d="M3 77h1v1H3z"/><path fill="#AFCFE6" d="M4 77h1v1H4zM5 77h1v1H5z"/><path fill="#91BFD9" d="M6 77h1v1H6z"/><path fill="#87BAD5" d="M7 77h1v1H7zM8 77h1v1H8zM9 77h1v1H9zM10 77h1v1h-1zM11 77h1v1h-1zM12 77h1v1h-1z"/><path fill="#A5CAE2" d="M13 77h1v1h-1z"/><path fill="#AFCFE6" d="M14 77h1v1h-1zM15 77h1v1h-1zM16 77h1v1h-1zM17 77h1v1h-1zM18 77h1v1h-1zM19 77h1v1h-1zM20 77h1v1h-1zM21 77h1v1h-1zM22 77h1v1h-1zM23 77h1v1h-1zM24 77h1v1h-1zM25 77h1v1h-1zM26 77h1v1h-1zM27 77h1v1h-1zM28 77h1v1h-1zM29 77h1v1h-1zM30 77h1v1h-1zM31 77h1v1h-1zM32 77h1v1h-1zM33 77h1v1h-1zM34 77h1v1h-1zM35 77h1v1h-1zM36 77h1v1h-1zM37 77h1v1h-1zM38 77h1v1h-1z"/><path fill="#87BAD5" d="M39 77h1v1h-1zM40 77h1v1h-1zM41 77h1v1h-1zM42 77h1v1h-1z"/><path fill="#9BC5DE" d="M43 77h1v1h-1z"/><path fill="#AFCFE6" d="M44 77h1v1h-1zM45 77h1v1h-1zM46 77h1v1h-1zM47 77h1v1h-1z"/><path fill="#66A2B6" d="M48 77h1v1h-1z"/><path fill="#4D93A6" d="M49 77h1v1h-1zM50 77h1v1h-1zM51 77h1v1h-1zM52 77h1v1h-1zM53 77h1v1h-1z"/><path fill="#4A8B9D" d="M54 77h1v1h-1z"/><path fill="#282727" d="M55 77h1v1h-1z"/><path fill="#231815" d="M56 77h1v1h-1zM57 77h1v1h-1zM58 77h1v1h-1zM0 78h1v1H0zM1 78h1v1H1zM2 78h1v1H2z"/><path fill="#8CA1B2" d="M3 78h1v1H3z"/><path fill="#AFCFE6" d="M4 78h1v1H4zM5 78h1v1H5z"/><path fill="#91BFD9" d="M6 78h1v1H6z"/><path fill="#87BAD5" d="M7 78h1v1H7zM8 78h1v1H8zM9 78h1v1H9zM10 78h1v1h-1zM11 78h1v1h-1zM12 78h1v1h-1z"/><path fill="#A5CAE2" d="M13 78h1v1h-1z"/><path fill="#AFCFE6" d="M14 78h1v1h-1zM15 78h1v1h-1zM16 78h1v1h-1zM17 78h1v1h-1zM18 78h1v1h-1zM19 78h1v1h-1zM20 78h1v1h-1zM21 78h1v1h-1zM22 78h1v1h-1zM23 78h1v1h-1zM24 78h1v1h-1zM25 78h1v1h-1zM26 78h1v1h-1zM27 78h1v1h-1zM28 78h1v1h-1zM29 78h1v1h-1zM30 78h1v1h-1zM31 78h1v1h-1zM32 78h1v1h-1zM33 78h1v1h-1zM34 78h1v1h-1zM35 78h1v1h-1zM36 78h1v1h-1zM37 78h1v1h-1zM38 78h1v1h-1z"/><path fill="#87BAD5" d="M39 78h1v1h-1zM40 78h1v1h-1zM41 78h1v1h-1zM42 78h1v1h-1z"/><path fill="#9BC5DE" d="M43 78h1v1h-1z"/><path fill="#AFCFE6" d="M44 78h1v1h-1zM45 78h1v1h-1zM46 78h1v1h-1zM47 78h1v1h-1z"/><path fill="#66A2B6" d="M48 78h1v1h-1z"/><path fill="#4D93A6" d="M49 78h1v1h-1zM50 78h1v1h-1zM51 78h1v1h-1zM52 78h1v1h-1zM53 78h1v1h-1z"/><path fill="#354E54" d="M54 78h1v1h-1z"/><path fill="#231815" d="M55 78h1v1h-1zM56 78h1v1h-1zM57 78h1v1h-1zM58 78h1v1h-1zM0 79h1v1H0zM1 79h1v1H1zM2 79h1v1H2z"/><path fill="#8CA1B2" d="M3 79h1v1H3z"/><path fill="#AFCFE6" d="M4 79h1v1H4zM5 79h1v1H5z"/><path fill="#91BFD9" d="M6 79h1v1H6z"/><path fill="#87BAD5" d="M7 79h1v1H7zM8 79h1v1H8zM9 79h1v1H9zM10 79h1v1h-1zM11 79h1v1h-1zM12 79h1v1h-1z"/><path fill="#9EC6DF" d="M13 79h1v1h-1z"/><path fill="#A5CAE2" d="M14 79h1v1h-1zM15 79h1v1h-1zM16 79h1v1h-1zM17 79h1v1h-1zM18 79h1v1h-1zM19 79h1v1h-1zM20 79h1v1h-1zM21 79h1v1h-1zM22 79h1v1h-1zM23 79h1v1h-1zM24 79h1v1h-1zM25 79h1v1h-1zM26 79h1v1h-1zM27 79h1v1h-1zM28 79h1v1h-1zM29 79h1v1h-1zM30 79h1v1h-1zM31 79h1v1h-1zM32 79h1v1h-1zM33 79h1v1h-1zM34 79h1v1h-1zM35 79h1v1h-1zM36 79h1v1h-1zM37 79h1v1h-1zM38 79h1v1h-1z"/><path fill="#87BAD5" d="M39 79h1v1h-1zM40 79h1v1h-1zM41 79h1v1h-1zM42 79h1v1h-1z"/><path fill="#9BC5DE" d="M43 79h1v1h-1z"/><path fill="#AFCFE6" d="M44 79h1v1h-1zM45 79h1v1h-1zM46 79h1v1h-1zM47 79h1v1h-1z"/><path fill="#66A2B6" d="M48 79h1v1h-1z"/><path fill="#4D93A6" d="M49 79h1v1h-1zM50 79h1v1h-1zM51 79h1v1h-1zM52 79h1v1h-1z"/><path fill="#437482" d="M53 79h1v1h-1z"/><path fill="#231815" d="M54 79h1v1h-1zM55 79h1v1h-1zM56 79h1v1h-1zM57 79h1v1h-1zM0 80h1v1H0zM1 80h1v1H1zM2 80h1v1H2z"/><path fill="#8CA1B2" d="M3 80h1v1H3z"/><path fill="#AFCFE6" d="M4 80h1v1H4zM5 80h1v1H5z"/><path fill="#91BFD9" d="M6 80h1v1H6z"/><path fill="#87BAD5" d="M7 80h1v1H7zM8 80h1v1H8zM9 80h1v1H9zM10 80h1v1h-1zM11 80h1v1h-1zM12 80h1v1h-1zM13 80h1v1h-1zM14 80h1v1h-1zM15 80h1v1h-1zM16 80h1v1h-1zM17 80h1v1h-1zM18 80h1v1h-1zM19 80h1v1h-1zM20 80h1v1h-1zM21 80h1v1h-1zM22 80h1v1h-1zM23 80h1v1h-1zM24 80h1v1h-1zM25 80h1v1h-1zM26 80h1v1h-1zM27 80h1v1h-1zM28 80h1v1h-1zM29 80h1v1h-1zM30 80h1v1h-1zM31 80h1v1h-1zM32 80h1v1h-1zM33 80h1v1h-1zM34 80h1v1h-1zM35 80h1v1h-1zM36 80h1v1h-1zM37 80h1v1h-1zM38 80h1v1h-1zM39 80h1v1h-1zM40 80h1v1h-1zM41 80h1v1h-1zM42 80h1v1h-1z"/><path fill="#9BC5DE" d="M43 80h1v1h-1z"/><path fill="#AFCFE6" d="M44 80h1v1h-1zM45 80h1v1h-1zM46 80h1v1h-1zM47 80h1v1h-1z"/><path fill="#66A2B6" d="M48 80h1v1h-1z"/><path fill="#4D93A6" d="M49 80h1v1h-1zM50 80h1v1h-1zM51 80h1v1h-1z"/><path fill="#4A8B9D" d="M52 80h1v1h-1z"/><path fill="#282727" d="M53 80h1v1h-1z"/><path fill="#231815" d="M54 80h1v1h-1zM55 80h1v1h-1zM56 80h1v1h-1zM0 81h1v1H0zM1 81h1v1H1zM2 81h1v1H2z"/><path fill="#8CA1B2" d="M3 81h1v1H3z"/><path fill="#AFCFE6" d="M4 81h1v1H4zM5 81h1v1H5z"/><path fill="#91BFD9" d="M6 81h1v1H6z"/><path fill="#87BAD5" d="M7 81h1v1H7zM8 81h1v1H8zM9 81h1v1H9zM10 81h1v1h-1zM11 81h1v1h-1zM12 81h1v1h-1zM13 81h1v1h-1zM14 81h1v1h-1zM15 81h1v1h-1zM16 81h1v1h-1zM17 81h1v1h-1zM18 81h1v1h-1zM19 81h1v1h-1zM20 81h1v1h-1zM21 81h1v1h-1zM22 81h1v1h-1zM23 81h1v1h-1zM24 81h1v1h-1zM25 81h1v1h-1zM26 81h1v1h-1zM27 81h1v1h-1zM28 81h1v1h-1zM29 81h1v1h-1zM30 81h1v1h-1zM31 81h1v1h-1zM32 81h1v1h-1zM33 81h1v1h-1zM34 81h1v1h-1zM35 81h1v1h-1zM36 81h1v1h-1zM37 81h1v1h-1zM38 81h1v1h-1zM39 81h1v1h-1zM40 81h1v1h-1zM41 81h1v1h-1zM42 81h1v1h-1z"/><path fill="#9BC5DE" d="M43 81h1v1h-1z"/><path fill="#AFCFE6" d="M44 81h1v1h-1zM45 81h1v1h-1zM46 81h1v1h-1zM47 81h1v1h-1z"/><path fill="#66A2B6" d="M48 81h1v1h-1z"/><path fill="#4D93A6" d="M49 81h1v1h-1zM50 81h1v1h-1zM51 81h1v1h-1z"/><path fill="#303E42" d="M52 81h1v1h-1z"/><path fill="#231815" d="M53 81h1v1h-1zM54 81h1v1h-1zM55 81h1v1h-1zM56 81h1v1h-1zM0 82h1v1H0zM1 82h1v1H1zM2 82h1v1H2z"/><path fill="#8CA1B2" d="M3 82h1v1H3z"/><path fill="#AFCFE6" d="M4 82h1v1H4zM5 82h1v1H5z"/><path fill="#91BFD9" d="M6 82h1v1H6z"/><path fill="#87BAD5" d="M7 82h1v1H7zM8 82h1v1H8zM9 82h1v1H9zM10 82h1v1h-1zM11 82h1v1h-1zM12 82h1v1h-1zM13 82h1v1h-1zM14 82h1v1h-1zM15 82h1v1h-1zM16 82h1v1h-1zM17 82h1v1h-1zM18 82h1v1h-1zM19 82h1v1h-1zM20 82h1v1h-1zM21 82h1v1h-1zM22 82h1v1h-1zM23 82h1v1h-1zM24 82h1v1h-1zM25 82h1v1h-1zM26 82h1v1h-1zM27 82h1v1h-1zM28 82h1v1h-1zM29 82h1v1h-1zM30 82h1v1h-1zM31 82h1v1h-1zM32 82h1v1h-1zM33 82h1v1h-1zM34 82h1v1h-1zM35 82h1v1h-1zM36 82h1v1h-1zM37 82h1v1h-1zM38 82h1v1h-1zM39 82h1v1h-1zM40 82h1v1h-1zM41 82h1v1h-1zM42 82h1v1h-1z"/><path fill="#9BC5DE" d="M43 82h1v1h-1z"/><path fill="#AFCFE6" d="M44 82h1v1h-1zM45 82h1v1h-1zM46 82h1v1h-1zM47 82h1v1h-1z"/><path fill="#66A2B6" d="M48 82h1v1h-1z"/><path fill="#4D93A6" d="M49 82h1v1h-1zM50 82h1v1h-1z"/><path fill="#406D79" d="M51 82h1v1h-1z"/><path fill="#231815" d="M52 82h1v1h-1zM53 82h1v1h-1zM54 82h1v1h-1zM55 82h1v1h-1zM0 83h1v1H0zM1 83h1v1H1zM2 83h1v1H2z"/><path fill="#8CA1B2" d="M3 83h1v1H3z"/><path fill="#AFCFE6" d="M4 83h1v1H4zM5 83h1v1H5z"/><path fill="#A8CBE3" d="M6 83h1v1H6z"/><path fill="#A5CAE2" d="M7 83h1v1H7zM8 83h1v1H8zM9 83h1v1H9zM10 83h1v1h-1zM11 83h1v1h-1zM12 83h1v1h-1zM13 83h1v1h-1zM14 83h1v1h-1zM15 83h1v1h-1zM16 83h1v1h-1zM17 83h1v1h-1zM18 83h1v1h-1zM19 83h1v1h-1zM20 83h1v1h-1zM21 83h1v1h-1zM22 83h1v1h-1zM23 83h1v1h-1zM24 83h1v1h-1zM25 83h1v1h-1zM26 83h1v1h-1zM27 83h1v1h-1zM28 83h1v1h-1zM29 83h1v1h-1zM30 83h1v1h-1zM31 83h1v1h-1zM32 83h1v1h-1zM33 83h1v1h-1zM34 83h1v1h-1zM35 83h1v1h-1zM36 83h1v1h-1zM37 83h1v1h-1zM38 83h1v1h-1zM39 83h1v1h-1zM40 83h1v1h-1zM41 83h1v1h-1zM42 83h1v1h-1z"/><path fill="#AACCE4" d="M43 83h1v1h-1z"/><path fill="#AFCFE6" d="M44 83h1v1h-1zM45 83h1v1h-1zM46 83h1v1h-1zM47 83h1v1h-1z"/><path fill="#66A2B6" d="M48 83h1v1h-1z"/><path fill="#4D93A6" d="M49 83h1v1h-1z"/><path fill="#4A8B9D" d="M50 83h1v1h-1z"/><path fill="#26201E" d="M51 83h1v1h-1z"/><path fill="#231815" d="M52 83h1v1h-1zM53 83h1v1h-1zM54 83h1v1h-1zM0 84h1v1H0zM1 84h1v1H1zM2 84h1v1H2z"/><path fill="#8CA1B2" d="M3 84h1v1H3z"/><path fill="#AFCFE6" d="M4 84h1v1H4zM5 84h1v1H5zM6 84h1v1H6zM7 84h1v1H7zM8 84h1v1H8zM9 84h1v1H9zM10 84h1v1h-1zM11 84h1v1h-1zM12 84h1v1h-1zM13 84h1v1h-1zM14 84h1v1h-1zM15 84h1v1h-1zM16 84h1v1h-1zM17 84h1v1h-1zM18 84h1v1h-1zM19 84h1v1h-1zM20 84h1v1h-1zM21 84h1v1h-1zM22 84h1v1h-1zM23 84h1v1h-1zM24 84h1v1h-1zM25 84h1v1h-1zM26 84h1v1h-1zM27 84h1v1h-1zM28 84h1v1h-1zM29 84h1v1h-1zM30 84h1v1h-1zM31 84h1v1h-1zM32 84h1v1h-1zM33 84h1v1h-1zM34 84h1v1h-1zM35 84h1v1h-1zM36 84h1v1h-1zM37 84h1v1h-1zM38 84h1v1h-1zM39 84h1v1h-1zM40 84h1v1h-1zM41 84h1v1h-1zM42 84h1v1h-1zM43 84h1v1h-1zM44 84h1v1h-1zM45 84h1v1h-1zM46 84h1v1h-1zM47 84h1v1h-1z"/><path fill="#66A2B6" d="M48 84h1v1h-1z"/><path fill="#4D93A6" d="M49 84h1v1h-1z"/><path fill="#303E42" d="M50 84h1v1h-1z"/><path fill="#231815" d="M51 84h1v1h-1zM52 84h1v1h-1zM53 84h1v1h-1zM54 84h1v1h-1zM0 85h1v1H0zM1 85h1v1H1zM2 85h1v1H2z"/><path fill="#8CA1B2" d="M3 85h1v1H3z"/><path fill="#AFCFE6" d="M4 85h1v1H4zM5 85h1v1H5zM6 85h1v1H6zM7 85h1v1H7zM8 85h1v1H8zM9 85h1v1H9zM10 85h1v1h-1zM11 85h1v1h-1zM12 85h1v1h-1zM13 85h1v1h-1zM14 85h1v1h-1zM15 85h1v1h-1zM16 85h1v1h-1zM17 85h1v1h-1zM18 85h1v1h-1zM19 85h1v1h-1zM20 85h1v1h-1zM21 85h1v1h-1zM22 85h1v1h-1zM23 85h1v1h-1zM24 85h1v1h-1zM25 85h1v1h-1zM26 85h1v1h-1zM27 85h1v1h-1zM28 85h1v1h-1zM29 85h1v1h-1zM30 85h1v1h-1zM31 85h1v1h-1zM32 85h1v1h-1zM33 85h1v1h-1zM34 85h1v1h-1zM35 85h1v1h-1zM36 85h1v1h-1zM37 85h1v1h-1zM38 85h1v1h-1zM39 85h1v1h-1zM40 85h1v1h-1zM41 85h1v1h-1zM42 85h1v1h-1zM43 85h1v1h-1zM44 85h1v1h-1zM45 85h1v1h-1zM46 85h1v1h-1zM47 85h1v1h-1z"/><path fill="#66A2B6" d="M48 85h1v1h-1z"/><path fill="#406D79" d="M49 85h1v1h-1z"/><path fill="#231815" d="M50 85h1v1h-1zM51 85h1v1h-1zM52 85h1v1h-1zM53 85h1v1h-1zM0 86h1v1H0zM1 86h1v1H1zM2 86h1v1H2z"/><path fill="#585D63" d="M3 86h1v1H3z"/><path fill="#69747E" d="M4 86h1v1H4zM5 86h1v1H5zM6 86h1v1H6zM7 86h1v1H7zM8 86h1v1H8zM9 86h1v1H9zM10 86h1v1h-1zM11 86h1v1h-1zM12 86h1v1h-1zM13 86h1v1h-1zM14 86h1v1h-1zM15 86h1v1h-1zM16 86h1v1h-1zM17 86h1v1h-1zM18 86h1v1h-1zM19 86h1v1h-1zM20 86h1v1h-1zM21 86h1v1h-1zM22 86h1v1h-1zM23 86h1v1h-1zM24 86h1v1h-1zM25 86h1v1h-1zM26 86h1v1h-1zM27 86h1v1h-1zM28 86h1v1h-1zM29 86h1v1h-1zM30 86h1v1h-1zM31 86h1v1h-1zM32 86h1v1h-1zM33 86h1v1h-1zM34 86h1v1h-1zM35 86h1v1h-1zM36 86h1v1h-1zM37 86h1v1h-1zM38 86h1v1h-1zM39 86h1v1h-1zM40 86h1v1h-1zM41 86h1v1h-1zM42 86h1v1h-1zM43 86h1v1h-1zM44 86h1v1h-1zM45 86h1v1h-1zM46 86h1v1h-1zM47 86h1v1h-1z"/><path fill="#445D66" d="M48 86h1v1h-1z"/><path fill="#26201E" d="M49 86h1v1h-1z"/><path fill="#231815" d="M50 86h1v1h-1zM51 86h1v1h-1zM52 86h1v1h-1zM0 87h1v1H0zM1 87h1v1H1zM2 87h1v1H2zM3 87h1v1H3zM4 87h1v1H4zM5 87h1v1H5zM6 87h1v1H6zM7 87h1v1H7zM8 87h1v1H8zM9 87h1v1H9zM10 87h1v1h-1zM11 87h1v1h-1zM12 87h1v1h-1zM13 87h1v1h-1zM14 87h1v1h-1zM15 87h1v1h-1zM16 87h1v1h-1zM17 87h1v1h-1zM18 87h1v1h-1zM19 87h1v1h-1zM20 87h1v1h-1zM21 87h1v1h-1zM22 87h1v1h-1zM23 87h1v1h-1zM24 87h1v1h-1zM25 87h1v1h-1zM26 87h1v1h-1zM27 87h1v1h-1zM28 87h1v1h-1zM29 87h1v1h-1zM30 87h1v1h-1zM31 87h1v1h-1zM32 87h1v1h-1zM33 87h1v1h-1zM34 87h1v1h-1zM35 87h1v1h-1zM36 87h1v1h-1zM37 87h1v1h-1zM38 87h1v1h-1zM39 87h1v1h-1zM40 87h1v1h-1zM41 87h1v1h-1zM42 87h1v1h-1zM43 87h1v1h-1zM44 87h1v1h-1zM45 87h1v1h-1zM46 87h1v1h-1zM47 87h1v1h-1zM48 87h1v1h-1zM49 87h1v1h-1zM50 87h1v1h-1zM51 87h1v1h-1zM52 87h1v1h-1zM0 88h1v1H0zM1 88h1v1H1zM2 88h1v1H2zM3 88h1v1H3zM4 88h1v1H4zM5 88h1v1H5zM6 88h1v1H6zM7 88h1v1H7zM8 88h1v1H8zM9 88h1v1H9zM10 88h1v1h-1zM11 88h1v1h-1zM12 88h1v1h-1zM13 88h1v1h-1zM14 88h1v1h-1zM15 88h1v1h-1zM16 88h1v1h-1zM17 88h1v1h-1zM18 88h1v1h-1zM19 88h1v1h-1zM20 88h1v1h-1zM21 88h1v1h-1zM22 88h1v1h-1zM23 88h1v1h-1zM24 88h1v1h-1zM25 88h1v1h-1zM26 88h1v1h-1zM27 88h1v1h-1zM28 88h1v1h-1zM29 88h1v1h-1zM30 88h1v1h-1zM31 88h1v1h-1zM32 88h1v1h-1zM33 88h1v1h-1zM34 88h1v1h-1zM35 88h1v1h-1zM36 88h1v1h-1zM37 88h1v1h-1zM38 88h1v1h-1zM39 88h1v1h-1zM40 88h1v1h-1zM41 88h1v1h-1zM42 88h1v1h-1zM43 88h1v1h-1zM44 88h1v1h-1zM45 88h1v1h-1zM46 88h1v1h-1zM47 88h1v1h-1zM48 88h1v1h-1zM49 88h1v1h-1zM50 88h1v1h-1zM51 88h1v1h-1zM0 89h1v1H0zM1 89h1v1H1zM2 89h1v1H2zM3 89h1v1H3zM4 89h1v1H4zM5 89h1v1H5zM6 89h1v1H6zM7 89h1v1H7zM8 89h1v1H8zM9 89h1v1H9zM10 89h1v1h-1zM11 89h1v1h-1zM12 89h1v1h-1zM13 89h1v1h-1zM14 89h1v1h-1zM15 89h1v1h-1zM16 89h1v1h-1zM17 89h1v1h-1zM18 89h1v1h-1zM19 89h1v1h-1zM20 89h1v1h-1zM21 89h1v1h-1zM22 89h1v1h-1zM23 89h1v1h-1zM24 89h1v1h-1zM25 89h1v1h-1zM26 89h1v1h-1zM27 89h1v1h-1zM28 89h1v1h-1zM29 89h1v1h-1zM30 89h1v1h-1zM31 89h1v1h-1zM32 89h1v1h-1zM33 89h1v1h-1zM34 89h1v1h-1zM35 89h1v1h-1zM36 89h1v1h-1zM37 89h1v1h-1zM38 89h1v1h-1zM39 89h1v1h-1zM40 89h1v1h-1zM41 89h1v1h-1zM42 89h1v1h-1zM43 89h1v1h-1zM44 89h1v1h-1zM45 89h1v1h-1zM46 89h1v1h-1zM47 89h1v1h-1zM48 89h1v1h-1zM49 89h1v1h-1zM50 89h1v1h-1z"/></svg>