<svg baseProfile="full" height="90" width="83" xmlns="http://www.w3.org/2000/svg"><path fill="#231815" d="M30 0h1v1h-1zM31 0h1v1h-1zM32 0h1v1h-1zM33 0h1v1h-1zM30 1h1v1h-1zM31 1h1v1h-1zM32 1h1v1h-1zM33 1h1v1h-1zM29 2h1v1h-1zM30 2h1v1h-1zM31 2h1v1h-1zM32 2h1v1h-1zM33 2h1v1h-1zM34 2h1v1h-1zM29 3h1v1h-1zM30 3h1v1h-1zM31 3h1v1h-1zM32 3h1v1h-1zM33 3h1v1h-1zM34 3h1v1h-1zM28 4h1v1h-1zM29 4h1v1h-1zM30 4h1v1h-1zM31 4h1v1h-1zM32 4h1v1h-1zM33 4h1v1h-1zM34 4h1v1h-1zM28 5h1v1h-1zM29 5h1v1h-1zM30 5h1v1h-1zM31 5h1v1h-1zM32 5h1v1h-1zM33 5h1v1h-1zM34 5h1v1h-1zM35 5h1v1h-1zM27 6h1v1h-1zM28 6h1v1h-1zM29 6h1v1h-1zM30 6h1v1h-1z"/><path fill="#766F6D" d="M31 6h1v1h-1z"/><path fill="#4C4341" d="M32 6h1v1h-1z"/><path fill="#231815" d="M33 6h1v1h-1zM34 6h1v1h-1zM35 6h1v1h-1zM27 7h1v1h-1zM28 7h1v1h-1zM29 7h1v1h-1zM30 7h1v1h-1z"/><path fill="#E4E2E2" d="M31 7h1v1h-1z"/><path fill="#9F9A99" d="M32 7h1v1h-1z"/><path fill="#231815" d="M33 7h1v1h-1zM34 7h1v1h-1zM35 7h1v1h-1zM36 7h1v1h-1zM26 8h1v1h-1zM27 8h1v1h-1zM28 8h1v1h-1zM29 8h1v1h-1z"/><path fill="#766F6D" d="M30 8h1v1h-1z"/><path fill="#FFF" d="M31 8h1v1h-1z"/><path fill="#F1F1F0" d="M32 8h1v1h-1z"/><path fill="#231815" d="M33 8h1v1h-1zM34 8h1v1h-1zM35 8h1v1h-1zM36 8h1v1h-1zM26 9h1v1h-1zM27 9h1v1h-1zM28 9h1v1h-1zM29 9h1v1h-1z"/><path fill="#C8C5C5" d="M30 9h1v1h-1z"/><path fill="#FFF" d="M31 9h1v1h-1zM32 9h1v1h-1z"/><path fill="#766F6D" d="M33 9h1v1h-1z"/><path fill="#231815" d="M34 9h1v1h-1zM35 9h1v1h-1zM36 9h1v1h-1zM26 10h1v1h-1zM27 10h1v1h-1zM28 10h1v1h-1z"/><path fill="#5A5250" d="M29 10h1v1h-1z"/><path fill="#FFF" d="M30 10h1v1h-1zM31 10h1v1h-1zM32 10h1v1h-1z"/><path fill="#BAB7B6" d="M33 10h1v1h-1z"/><path fill="#231815" d="M34 10h1v1h-1zM35 10h1v1h-1zM36 10h1v1h-1zM37 10h1v1h-1zM25 11h1v1h-1zM26 11h1v1h-1zM27 11h1v1h-1zM28 11h1v1h-1z"/><path fill="#C8C5C5" d="M29 11h1v1h-1z"/><path fill="#FFF" d="M30 11h1v1h-1zM31 11h1v1h-1zM32 11h1v1h-1z"/><path fill="#DBE6EF" d="M33 11h1v1h-1z"/><path fill="#2C282A" d="M34 11h1v1h-1z"/><path fill="#231815" d="M35 11h1v1h-1zM36 11h1v1h-1zM37 11h1v1h-1zM25 12h1v1h-1zM26 12h1v1h-1zM27 12h1v1h-1z"/><path fill="#5A5250" d="M28 12h1v1h-1z"/><path fill="#FFF" d="M29 12h1v1h-1zM30 12h1v1h-1zM31 12h1v1h-1zM32 12h1v1h-1z"/><path fill="#DBE6EF" d="M33 12h1v1h-1z"/><path fill="#495A6A" d="M34 12h1v1h-1z"/><path fill="#231815" d="M35 12h1v1h-1zM36 12h1v1h-1zM37 12h1v1h-1zM38 12h1v1h-1zM24 13h1v1h-1zM25 13h1v1h-1zM26 13h1v1h-1zM27 13h1v1h-1z"/><path fill="#ADA8A7" d="M28 13h1v1h-1z"/><path fill="#FFF" d="M29 13h1v1h-1zM30 13h1v1h-1zM31 13h1v1h-1zM32 13h1v1h-1z"/><path fill="#DBE6EF" d="M33 13h1v1h-1z"/><path fill="#658BA9" d="M34 13h1v1h-1z"/><path fill="#231815" d="M35 13h1v1h-1zM36 13h1v1h-1zM37 13h1v1h-1zM38 13h1v1h-1zM24 14h1v1h-1zM25 14h1v1h-1zM26 14h1v1h-1z"/><path fill="#3F3532" d="M27 14h1v1h-1z"/><path fill="#FFF" d="M28 14h1v1h-1zM29 14h1v1h-1zM30 14h1v1h-1zM31 14h1v1h-1zM32 14h1v1h-1z"/><path fill="#DBE6EF" d="M33 14h1v1h-1z"/><path fill="#6E9BBE" d="M34 14h1v1h-1z"/><path fill="#36393F" d="M35 14h1v1h-1z"/><path fill="#231815" d="M36 14h1v1h-1zM37 14h1v1h-1zM38 14h1v1h-1zM23 15h1v1h-1zM24 15h1v1h-1zM25 15h1v1h-1zM26 15h1v1h-1z"/><path fill="#ADA8A7" d="M27 15h1v1h-1z"/><path fill="#FFF" d="M28 15h1v1h-1zM29 15h1v1h-1zM30 15h1v1h-1zM31 15h1v1h-1zM32 15h1v1h-1z"/><path fill="#DBE6EF" d="M33 15h1v1h-1z"/><path fill="#6E9BBE" d="M34 15h1v1h-1z"/><path fill="#526A7F" d="M35 15h1v1h-1z"/><path fill="#231815" d="M36 15h1v1h-1zM37 15h1v1h-1zM38 15h1v1h-1zM39 15h1v1h-1zM23 16h1v1h-1zM24 16h1v1h-1zM25 16h1v1h-1z"/><path fill="#3F3532" d="M26 16h1v1h-1z"/><path fill="#FFF" d="M27 16h1v1h-1zM28 16h1v1h-1zM29 16h1v1h-1zM30 16h1v1h-1zM31 16h1v1h-1zM32 16h1v1h-1z"/><path fill="#DBE6EF" d="M33 16h1v1h-1z"/><path fill="#6E9BBE" d="M34 16h1v1h-1z"/><path fill="#6993B3" d="M35 16h1v1h-1z"/><path fill="#282020" d="M36 16h1v1h-1z"/><path fill="#231815" d="M37 16h1v1h-1zM38 16h1v1h-1zM39 16h1v1h-1zM22 17h1v1h-1zM23 17h1v1h-1zM24 17h1v1h-1zM25 17h1v1h-1z"/><path fill="#9F9A99" d="M26 17h1v1h-1z"/><path fill="#FFF" d="M27 17h1v1h-1zM28 17h1v1h-1zM29 17h1v1h-1zM30 17h1v1h-1zM31 17h1v1h-1zM32 17h1v1h-1z"/><path fill="#DBE6EF" d="M33 17h1v1h-1z"/><path fill="#6E9BBE" d="M34 17h1v1h-1zM35 17h1v1h-1z"/><path fill="#3F4954" d="M36 17h1v1h-1z"/><path fill="#231815" d="M37 17h1v1h-1zM38 17h1v1h-1zM39 17h1v1h-1zM22 18h1v1h-1zM23 18h1v1h-1zM24 18h1v1h-1z"/><path fill="#312624" d="M25 18h1v1h-1z"/><path fill="#F1F1F0" d="M26 18h1v1h-1z"/><path fill="#FFF" d="M27 18h1v1h-1zM28 18h1v1h-1zM29 18h1v1h-1zM30 18h1v1h-1zM31 18h1v1h-1zM32 18h1v1h-1z"/><path fill="#DBE6EF" d="M33 18h1v1h-1z"/><path fill="#6E9BBE" d="M34 18h1v1h-1zM35 18h1v1h-1z"/><path fill="#60829E" d="M36 18h1v1h-1z"/><path fill="#231815" d="M37 18h1v1h-1zM38 18h1v1h-1zM39 18h1v1h-1zM40 18h1v1h-1zM21 19h1v1h-1zM22 19h1v1h-1zM23 19h1v1h-1zM24 19h1v1h-1z"/><path fill="#918C8A" d="M25 19h1v1h-1z"/><path fill="#FFF" d="M26 19h1v1h-1zM27 19h1v1h-1zM28 19h1v1h-1zM29 19h1v1h-1zM30 19h1v1h-1zM31 19h1v1h-1zM32 19h1v1h-1z"/><path fill="#DBE6EF" d="M33 19h1v1h-1z"/><path fill="#6E9BBE" d="M34 19h1v1h-1zM35 19h1v1h-1zM36 19h1v1h-1z"/><path fill="#2C282A" d="M37 19h1v1h-1z"/><path fill="#231815" d="M38 19h1v1h-1zM39 19h1v1h-1zM40 19h1v1h-1zM21 20h1v1h-1zM22 20h1v1h-1zM23 20h1v1h-1zM24 20h1v1h-1z"/><path fill="#F1F1F0" d="M25 20h1v1h-1z"/><path fill="#FFF" d="M26 20h1v1h-1zM27 20h1v1h-1zM28 20h1v1h-1zM29 20h1v1h-1zM30 20h1v1h-1zM31 20h1v1h-1zM32 20h1v1h-1z"/><path fill="#DBE6EF" d="M33 20h1v1h-1z"/><path fill="#6E9BBE" d="M34 20h1v1h-1zM35 20h1v1h-1zM36 20h1v1h-1z"/><path fill="#4D6274" d="M37 20h1v1h-1z"/><path fill="#231815" d="M38 20h1v1h-1zM39 20h1v1h-1zM40 20h1v1h-1zM41 20h1v1h-1zM21 21h1v1h-1zM22 21h1v1h-1zM23 21h1v1h-1z"/><path fill="#5A5250" d="M24 21h1v1h-1z"/><path fill="#FFF" d="M25 21h1v1h-1zM26 21h1v1h-1zM27 21h1v1h-1zM28 21h1v1h-1zM29 21h1v1h-1zM30 21h1v1h-1zM31 21h1v1h-1zM32 21h1v1h-1z"/><path fill="#DBE6EF" d="M33 21h1v1h-1z"/><path fill="#6E9BBE" d="M34 21h1v1h-1zM35 21h1v1h-1zM36 21h1v1h-1z"/><path fill="#6993B3" d="M37 21h1v1h-1z"/><path fill="#231815" d="M38 21h1v1h-1zM39 21h1v1h-1zM40 21h1v1h-1zM41 21h1v1h-1zM21 22h1v1h-1zM22 22h1v1h-1zM23 22h1v1h-1z"/><path fill="#766F6D" d="M24 22h1v1h-1z"/><path fill="#FFF" d="M25 22h1v1h-1zM26 22h1v1h-1zM27 22h1v1h-1zM28 22h1v1h-1zM29 22h1v1h-1zM30 22h1v1h-1zM31 22h1v1h-1zM32 22h1v1h-1z"/><path fill="#DBE6EF" d="M33 22h1v1h-1z"/><path fill="#6E9BBE" d="M34 22h1v1h-1zM35 22h1v1h-1zM36 22h1v1h-1zM37 22h1v1h-1z"/><path fill="#3A414A" d="M38 22h1v1h-1z"/><path fill="#231815" d="M39 22h1v1h-1zM40 22h1v1h-1zM41 22h1v1h-1zM21 23h1v1h-1zM22 23h1v1h-1zM23 23h1v1h-1z"/><path fill="#918C8A" d="M24 23h1v1h-1z"/><path fill="#FFF" d="M25 23h1v1h-1zM26 23h1v1h-1zM27 23h1v1h-1zM28 23h1v1h-1zM29 23h1v1h-1zM30 23h1v1h-1zM31 23h1v1h-1zM32 23h1v1h-1z"/><path fill="#DBE6EF" d="M33 23h1v1h-1z"/><path fill="#6E9BBE" d="M34 23h1v1h-1zM35 23h1v1h-1zM36 23h1v1h-1zM37 23h1v1h-1z"/><path fill="#577289" d="M38 23h1v1h-1z"/><path fill="#231815" d="M39 23h1v1h-1zM40 23h1v1h-1zM41 23h1v1h-1zM42 23h1v1h-1zM21 24h1v1h-1zM22 24h1v1h-1zM23 24h1v1h-1z"/><path fill="#C8C5C5" d="M24 24h1v1h-1z"/><path fill="#FFF" d="M25 24h1v1h-1zM26 24h1v1h-1zM27 24h1v1h-1zM28 24h1v1h-1zM29 24h1v1h-1zM30 24h1v1h-1zM31 24h1v1h-1zM32 24h1v1h-1z"/><path fill="#DBE6EF" d="M33 24h1v1h-1z"/><path fill="#6E9BBE" d="M34 24h1v1h-1zM35 24h1v1h-1zM36 24h1v1h-1zM37 24h1v1h-1zM38 24h1v1h-1z"/><path fill="#2C282A" d="M39 24h1v1h-1z"/><path fill="#231815" d="M40 24h1v1h-1zM41 24h1v1h-1zM42 24h1v1h-1zM20 25h1v1h-1zM21 25h1v1h-1zM22 25h1v1h-1zM23 25h1v1h-1z"/><path fill="#E4E2E2" d="M24 25h1v1h-1z"/><path fill="#FFF" d="M25 25h1v1h-1zM26 25h1v1h-1zM27 25h1v1h-1zM28 25h1v1h-1zM29 25h1v1h-1zM30 25h1v1h-1zM31 25h1v1h-1zM32 25h1v1h-1z"/><path fill="#DBE6EF" d="M33 25h1v1h-1z"/><path fill="#6E9BBE" d="M34 25h1v1h-1zM35 25h1v1h-1zM36 25h1v1h-1zM37 25h1v1h-1zM38 25h1v1h-1z"/><path fill="#3F4954" d="M39 25h1v1h-1z"/><path fill="#231815" d="M40 25h1v1h-1zM41 25h1v1h-1zM42 25h1v1h-1zM20 26h1v1h-1zM21 26h1v1h-1zM22 26h1v1h-1zM23 26h1v1h-1z"/><path fill="#FFF" d="M24 26h1v1h-1zM25 26h1v1h-1zM26 26h1v1h-1zM27 26h1v1h-1zM28 26h1v1h-1zM29 26h1v1h-1zM30 26h1v1h-1zM31 26h1v1h-1zM32 26h1v1h-1z"/><path fill="#DBE6EF" d="M33 26h1v1h-1z"/><path fill="#6E9BBE" d="M34 26h1v1h-1zM35 26h1v1h-1zM36 26h1v1h-1zM37 26h1v1h-1zM38 26h1v1h-1z"/><path fill="#526A7F" d="M39 26h1v1h-1z"/><path fill="#231815" d="M40 26h1v1h-1zM41 26h1v1h-1zM42 26h1v1h-1zM43 26h1v1h-1zM20 27h1v1h-1zM21 27h1v1h-1zM22 27h1v1h-1z"/><path fill="#5A5250" d="M23 27h1v1h-1z"/><path fill="#FFF" d="M24 27h1v1h-1zM25 27h1v1h-1zM26 27h1v1h-1zM27 27h1v1h-1zM28 27h1v1h-1zM29 27h1v1h-1zM30 27h1v1h-1zM31 27h1v1h-1zM32 27h1v1h-1z"/><path fill="#C0D3E3" d="M33 27h1v1h-1z"/><path fill="#6E9BBE" d="M34 27h1v1h-1zM35 27h1v1h-1zM36 27h1v1h-1zM37 27h1v1h-1zM38 27h1v1h-1z"/><path fill="#658BA9" d="M39 27h1v1h-1z"/><path fill="#231815" d="M40 27h1v1h-1zM41 27h1v1h-1zM42 27h1v1h-1zM43 27h1v1h-1zM64 27h1v1h-1zM65 27h1v1h-1zM66 27h1v1h-1zM67 27h1v1h-1zM20 28h1v1h-1zM21 28h1v1h-1zM22 28h1v1h-1z"/><path fill="#766F6D" d="M23 28h1v1h-1z"/><path fill="#FFF" d="M24 28h1v1h-1zM25 28h1v1h-1zM26 28h1v1h-1zM27 28h1v1h-1zM28 28h1v1h-1zM29 28h1v1h-1zM30 28h1v1h-1zM31 28h1v1h-1zM32 28h1v1h-1z"/><path fill="#B7CDDF" d="M33 28h1v1h-1z"/><path fill="#6E9BBE" d="M34 28h1v1h-1zM35 28h1v1h-1zM36 28h1v1h-1zM37 28h1v1h-1zM38 28h1v1h-1zM39 28h1v1h-1z"/><path fill="#313135" d="M40 28h1v1h-1z"/><path fill="#231815" d="M41 28h1v1h-1zM42 28h1v1h-1zM43 28h1v1h-1zM64 28h1v1h-1zM65 28h1v1h-1zM66 28h1v1h-1zM67 28h1v1h-1zM20 29h1v1h-1zM21 29h1v1h-1zM22 29h1v1h-1z"/><path fill="#918C8A" d="M23 29h1v1h-1z"/><path fill="#FFF" d="M24 29h1v1h-1zM25 29h1v1h-1zM26 29h1v1h-1zM27 29h1v1h-1zM28 29h1v1h-1zM29 29h1v1h-1zM30 29h1v1h-1zM31 29h1v1h-1zM32 29h1v1h-1z"/><path fill="#B7CDDF" d="M33 29h1v1h-1z"/><path fill="#6E9BBE" d="M34 29h1v1h-1zM35 29h1v1h-1zM36 29h1v1h-1zM37 29h1v1h-1zM38 29h1v1h-1zM39 29h1v1h-1z"/><path fill="#44515F" d="M40 29h1v1h-1z"/><path fill="#231815" d="M41 29h1v1h-1zM42 29h1v1h-1zM43 29h1v1h-1zM64 29h1v1h-1zM65 29h1v1h-1zM66 29h1v1h-1zM67 29h1v1h-1zM68 29h1v1h-1zM20 30h1v1h-1zM21 30h1v1h-1zM22 30h1v1h-1z"/><path fill="#C8C5C5" d="M23 30h1v1h-1z"/><path fill="#FFF" d="M24 30h1v1h-1zM25 30h1v1h-1zM26 30h1v1h-1zM27 30h1v1h-1zM28 30h1v1h-1zM29 30h1v1h-1zM30 30h1v1h-1zM31 30h1v1h-1zM32 30h1v1h-1z"/><path fill="#B7CDDF" d="M33 30h1v1h-1z"/><path fill="#6E9BBE" d="M34 30h1v1h-1zM35 30h1v1h-1zM36 30h1v1h-1zM37 30h1v1h-1zM38 30h1v1h-1zM39 30h1v1h-1z"/><path fill="#577289" d="M40 30h1v1h-1z"/><path fill="#231815" d="M41 30h1v1h-1zM42 30h1v1h-1zM43 30h1v1h-1zM44 30h1v1h-1zM63 30h1v1h-1zM64 30h1v1h-1zM65 30h1v1h-1zM66 30h1v1h-1zM67 30h1v1h-1zM68 30h1v1h-1zM69 30h1v1h-1zM19 31h1v1h-1zM20 31h1v1h-1zM21 31h1v1h-1zM22 31h1v1h-1z"/><path fill="#E4E2E2" d="M23 31h1v1h-1z"/><path fill="#FFF" d="M24 31h1v1h-1zM25 31h1v1h-1zM26 31h1v1h-1zM27 31h1v1h-1zM28 31h1v1h-1zM29 31h1v1h-1zM30 31h1v1h-1zM31 31h1v1h-1zM32 31h1v1h-1z"/><path fill="#A4C1D6" d="M33 31h1v1h-1z"/><path fill="#6E9BBE" d="M34 31h1v1h-1zM35 31h1v1h-1zM36 31h1v1h-1zM37 31h1v1h-1zM38 31h1v1h-1zM39 31h1v1h-1z"/><path fill="#6993B3" d="M40 31h1v1h-1z"/><path fill="#231815" d="M41 31h1v1h-1zM42 31h1v1h-1zM43 31h1v1h-1zM44 31h1v1h-1zM63 31h1v1h-1zM64 31h1v1h-1zM65 31h1v1h-1zM66 31h1v1h-1zM67 31h1v1h-1zM68 31h1v1h-1zM69 31h1v1h-1zM70 31h1v1h-1zM19 32h1v1h-1zM20 32h1v1h-1zM21 32h1v1h-1zM22 32h1v1h-1z"/><path fill="#FFF" d="M23 32h1v1h-1zM24 32h1v1h-1zM25 32h1v1h-1zM26 32h1v1h-1zM27 32h1v1h-1zM28 32h1v1h-1zM29 32h1v1h-1zM30 32h1v1h-1zM31 32h1v1h-1zM32 32h1v1h-1z"/><path fill="#92B4CE" d="M33 32h1v1h-1z"/><path fill="#6E9BBE" d="M34 32h1v1h-1zM35 32h1v1h-1zM36 32h1v1h-1zM37 32h1v1h-1zM38 32h1v1h-1zM39 32h1v1h-1zM40 32h1v1h-1z"/><path fill="#313135" d="M41 32h1v1h-1z"/><path fill="#231815" d="M42 32h1v1h-1zM43 32h1v1h-1zM44 32h1v1h-1zM63 32h1v1h-1zM64 32h1v1h-1zM65 32h1v1h-1z"/><path fill="#312624" d="M66 32h1v1h-1z"/><path fill="#231815" d="M67 32h1v1h-1zM68 32h1v1h-1zM69 32h1v1h-1zM70 32h1v1h-1zM19 33h1v1h-1zM20 33h1v1h-1zM21 33h1v1h-1z"/><path fill="#5A5250" d="M22 33h1v1h-1z"/><path fill="#FFF" d="M23 33h1v1h-1zM24 33h1v1h-1zM25 33h1v1h-1zM26 33h1v1h-1zM27 33h1v1h-1zM28 33h1v1h-1zM29 33h1v1h-1zM30 33h1v1h-1zM31 33h1v1h-1zM32 33h1v1h-1z"/><path fill="#92B4CE" d="M33 33h1v1h-1z"/><path fill="#6E9BBE" d="M34 33h1v1h-1zM35 33h1v1h-1zM36 33h1v1h-1zM37 33h1v1h-1zM38 33h1v1h-1zM39 33h1v1h-1zM40 33h1v1h-1z"/><path fill="#495A6A" d="M41 33h1v1h-1z"/><path fill="#231815" d="M42 33h1v1h-1zM43 33h1v1h-1zM44 33h1v1h-1zM49 33h1v1h-1zM50 33h1v1h-1zM51 33h1v1h-1zM52 33h1v1h-1zM62 33h1v1h-1zM63 33h1v1h-1zM64 33h1v1h-1zM65 33h1v1h-1z"/><path fill="#BAB7B6" d="M66 33h1v1h-1z"/><path fill="#5A5250" d="M67 33h1v1h-1z"/><path fill="#231815" d="M68 33h1v1h-1zM69 33h1v1h-1zM70 33h1v1h-1zM71 33h1v1h-1zM19 34h1v1h-1zM20 34h1v1h-1zM21 34h1v1h-1z"/><path fill="#766F6D" d="M22 34h1v1h-1z"/><path fill="#FFF" d="M23 34h1v1h-1zM24 34h1v1h-1zM25 34h1v1h-1zM26 34h1v1h-1zM27 34h1v1h-1zM28 34h1v1h-1zM29 34h1v1h-1zM30 34h1v1h-1zM31 34h1v1h-1zM32 34h1v1h-1z"/><path fill="#80A8C6" d="M33 34h1v1h-1z"/><path fill="#6E9BBE" d="M34 34h1v1h-1zM35 34h1v1h-1zM36 34h1v1h-1zM37 34h1v1h-1zM38 34h1v1h-1zM39 34h1v1h-1zM40 34h1v1h-1z"/><path fill="#5B7A94" d="M41 34h1v1h-1z"/><path fill="#231815" d="M42 34h1v1h-1zM43 34h1v1h-1zM44 34h1v1h-1zM45 34h1v1h-1zM49 34h1v1h-1zM50 34h1v1h-1zM51 34h1v1h-1zM52 34h1v1h-1zM62 34h1v1h-1zM63 34h1v1h-1zM64 34h1v1h-1z"/><path fill="#312624" d="M65 34h1v1h-1z"/><path fill="#FFF" d="M66 34h1v1h-1z"/><path fill="#BFC9D2" d="M67 34h1v1h-1z"/><path fill="#282020" d="M68 34h1v1h-1z"/><path fill="#231815" d="M69 34h1v1h-1zM70 34h1v1h-1zM71 34h1v1h-1zM72 34h1v1h-1zM19 35h1v1h-1zM20 35h1v1h-1zM21 35h1v1h-1z"/><path fill="#918C8A" d="M22 35h1v1h-1z"/><path fill="#FFF" d="M23 35h1v1h-1zM24 35h1v1h-1zM25 35h1v1h-1zM26 35h1v1h-1zM27 35h1v1h-1zM28 35h1v1h-1zM29 35h1v1h-1zM30 35h1v1h-1zM31 35h1v1h-1zM32 35h1v1h-1z"/><path fill="#6E9BBE" d="M33 35h1v1h-1zM34 35h1v1h-1zM35 35h1v1h-1zM36 35h1v1h-1zM37 35h1v1h-1zM38 35h1v1h-1zM39 35h1v1h-1zM40 35h1v1h-1zM41 35h1v1h-1z"/><path fill="#231815" d="M42 35h1v1h-1zM43 35h1v1h-1zM44 35h1v1h-1zM45 35h1v1h-1zM48 35h1v1h-1zM49 35h1v1h-1zM50 35h1v1h-1zM51 35h1v1h-1zM52 35h1v1h-1zM53 35h1v1h-1zM62 35h1v1h-1zM63 35h1v1h-1zM64 35h1v1h-1z"/><path fill="#766F6D" d="M65 35h1v1h-1z"/><path fill="#FFF" d="M66 35h1v1h-1z"/><path fill="#EDF3F7" d="M67 35h1v1h-1z"/><path fill="#577289" d="M68 35h1v1h-1z"/><path fill="#231815" d="M69 35h1v1h-1zM70 35h1v1h-1zM71 35h1v1h-1zM72 35h1v1h-1zM9 36h1v1H9zM10 36h1v1h-1zM19 36h1v1h-1zM20 36h1v1h-1zM21 36h1v1h-1z"/><path fill="#C8C5C5" d="M22 36h1v1h-1z"/><path fill="#FFF" d="M23 36h1v1h-1zM24 36h1v1h-1zM25 36h1v1h-1zM26 36h1v1h-1zM27 36h1v1h-1zM28 36h1v1h-1zM29 36h1v1h-1zM30 36h1v1h-1zM31 36h1v1h-1zM32 36h1v1h-1z"/><path fill="#6E9BBE" d="M33 36h1v1h-1zM34 36h1v1h-1zM35 36h1v1h-1zM36 36h1v1h-1zM37 36h1v1h-1zM38 36h1v1h-1zM39 36h1v1h-1zM40 36h1v1h-1zM41 36h1v1h-1z"/><path fill="#36393F" d="M42 36h1v1h-1z"/><path fill="#231815" d="M43 36h1v1h-1zM44 36h1v1h-1zM45 36h1v1h-1zM48 36h1v1h-1zM49 36h1v1h-1zM50 36h1v1h-1zM51 36h1v1h-1zM52 36h1v1h-1zM53 36h1v1h-1zM61 36h1v1h-1zM62 36h1v1h-1zM63 36h1v1h-1zM64 36h1v1h-1z"/><path fill="#BAB7B6" d="M65 36h1v1h-1z"/><path fill="#FFF" d="M66 36h1v1h-1zM67 36h1v1h-1z"/><path fill="#80A8C6" d="M68 36h1v1h-1z"/><path fill="#3F4954" d="M69 36h1v1h-1z"/><path fill="#231815" d="M70 36h1v1h-1zM71 36h1v1h-1zM72 36h1v1h-1zM73 36h1v1h-1zM8 37h1v1H8zM9 37h1v1H9zM10 37h1v1h-1zM11 37h1v1h-1zM18 37h1v1h-1zM19 37h1v1h-1zM20 37h1v1h-1zM21 37h1v1h-1z"/><path fill="#F1F1F0" d="M22 37h1v1h-1z"/><path fill="#FFF" d="M23 37h1v1h-1zM24 37h1v1h-1zM25 37h1v1h-1zM26 37h1v1h-1zM27 37h1v1h-1zM28 37h1v1h-1zM29 37h1v1h-1zM30 37h1v1h-1zM31 37h1v1h-1z"/><path fill="#E4ECF3" d="M32 37h1v1h-1z"/><path fill="#6E9BBE" d="M33 37h1v1h-1zM34 37h1v1h-1zM35 37h1v1h-1zM36 37h1v1h-1zM37 37h1v1h-1zM38 37h1v1h-1zM39 37h1v1h-1zM40 37h1v1h-1zM41 37h1v1h-1z"/><path fill="#495A6A" d="M42 37h1v1h-1z"/><path fill="#231815" d="M43 37h1v1h-1zM44 37h1v1h-1zM45 37h1v1h-1zM47 37h1v1h-1zM48 37h1v1h-1zM49 37h1v1h-1zM50 37h1v1h-1zM51 37h1v1h-1zM52 37h1v1h-1zM53 37h1v1h-1zM54 37h1v1h-1zM61 37h1v1h-1zM62 37h1v1h-1zM63 37h1v1h-1z"/><path fill="#312624" d="M64 37h1v1h-1z"/><path fill="#FFF" d="M65 37h1v1h-1zM66 37h1v1h-1zM67 37h1v1h-1z"/><path fill="#A4C1D6" d="M68 37h1v1h-1z"/><path fill="#6993B3" d="M69 37h1v1h-1z"/><path fill="#2C282A" d="M70 37h1v1h-1z"/><path fill="#231815" d="M71 37h1v1h-1zM72 37h1v1h-1zM73 37h1v1h-1zM74 37h1v1h-1zM7 38h1v1H7zM8 38h1v1H8zM9 38h1v1H9zM10 38h1v1h-1zM11 38h1v1h-1zM12 38h1v1h-1zM18 38h1v1h-1zM19 38h1v1h-1zM20 38h1v1h-1z"/><path fill="#312624" d="M21 38h1v1h-1z"/><path fill="#FFF" d="M22 38h1v1h-1zM23 38h1v1h-1zM24 38h1v1h-1zM25 38h1v1h-1zM26 38h1v1h-1zM27 38h1v1h-1zM28 38h1v1h-1zM29 38h1v1h-1zM30 38h1v1h-1zM31 38h1v1h-1z"/><path fill="#DBE6EF" d="M32 38h1v1h-1z"/><path fill="#6E9BBE" d="M33 38h1v1h-1zM34 38h1v1h-1zM35 38h1v1h-1zM36 38h1v1h-1zM37 38h1v1h-1zM38 38h1v1h-1zM39 38h1v1h-1zM40 38h1v1h-1zM41 38h1v1h-1z"/><path fill="#60829E" d="M42 38h1v1h-1z"/><path fill="#231815" d="M43 38h1v1h-1zM44 38h1v1h-1zM45 38h1v1h-1zM46 38h1v1h-1zM47 38h1v1h-1zM48 38h1v1h-1zM49 38h1v1h-1z"/><path fill="#3F3532" d="M50 38h1v1h-1zM51 38h1v1h-1z"/><path fill="#231815" d="M52 38h1v1h-1zM53 38h1v1h-1zM54 38h1v1h-1zM61 38h1v1h-1zM62 38h1v1h-1zM63 38h1v1h-1z"/><path fill="#766F6D" d="M64 38h1v1h-1z"/><path fill="#FFF" d="M65 38h1v1h-1zM66 38h1v1h-1zM67 38h1v1h-1z"/><path fill="#C9DAE7" d="M68 38h1v1h-1z"/><path fill="#6E9BBE" d="M69 38h1v1h-1z"/><path fill="#60829E" d="M70 38h1v1h-1z"/><path fill="#231815" d="M71 38h1v1h-1zM72 38h1v1h-1zM73 38h1v1h-1zM74 38h1v1h-1zM75 38h1v1h-1zM7 39h1v1H7zM8 39h1v1H8zM9 39h1v1H9zM10 39h1v1h-1zM11 39h1v1h-1zM12 39h1v1h-1zM13 39h1v1h-1zM18 39h1v1h-1zM19 39h1v1h-1zM20 39h1v1h-1z"/><path fill="#5A5250" d="M21 39h1v1h-1z"/><path fill="#FFF" d="M22 39h1v1h-1zM23 39h1v1h-1zM24 39h1v1h-1zM25 39h1v1h-1zM26 39h1v1h-1zM27 39h1v1h-1zM28 39h1v1h-1zM29 39h1v1h-1zM30 39h1v1h-1zM31 39h1v1h-1z"/><path fill="#C9DAE7" d="M32 39h1v1h-1z"/><path fill="#6E9BBE" d="M33 39h1v1h-1zM34 39h1v1h-1zM35 39h1v1h-1zM36 39h1v1h-1zM37 39h1v1h-1zM38 39h1v1h-1zM39 39h1v1h-1zM40 39h1v1h-1zM41 39h1v1h-1zM42 39h1v1h-1z"/><path fill="#282020" d="M43 39h1v1h-1z"/><path fill="#231815" d="M44 39h1v1h-1zM45 39h1v1h-1zM46 39h1v1h-1zM47 39h1v1h-1zM48 39h1v1h-1zM49 39h1v1h-1z"/><path fill="#ADA8A7" d="M50 39h1v1h-1zM51 39h1v1h-1z"/><path fill="#231815" d="M52 39h1v1h-1zM53 39h1v1h-1zM54 39h1v1h-1zM55 39h1v1h-1zM60 39h1v1h-1zM61 39h1v1h-1zM62 39h1v1h-1zM63 39h1v1h-1z"/><path fill="#BAB7B6" d="M64 39h1v1h-1z"/><path fill="#FFF" d="M65 39h1v1h-1zM66 39h1v1h-1zM67 39h1v1h-1z"/><path fill="#EDF3F7" d="M68 39h1v1h-1z"/><path fill="#6E9BBE" d="M69 39h1v1h-1zM70 39h1v1h-1z"/><path fill="#495A6A" d="M71 39h1v1h-1z"/><path fill="#231815" d="M72 39h1v1h-1zM73 39h1v1h-1zM74 39h1v1h-1zM75 39h1v1h-1zM6 40h1v1H6zM7 40h1v1H7zM8 40h1v1H8zM9 40h1v1H9zM10 40h1v1h-1zM11 40h1v1h-1zM12 40h1v1h-1zM13 40h1v1h-1zM14 40h1v1h-1zM15 40h1v1h-1zM18 40h1v1h-1zM19 40h1v1h-1zM20 40h1v1h-1z"/><path fill="#837D7B" d="M21 40h1v1h-1z"/><path fill="#FFF" d="M22 40h1v1h-1zM23 40h1v1h-1zM24 40h1v1h-1zM25 40h1v1h-1zM26 40h1v1h-1zM27 40h1v1h-1zM28 40h1v1h-1zM29 40h1v1h-1zM30 40h1v1h-1zM31 40h1v1h-1z"/><path fill="#B7CDDF" d="M32 40h1v1h-1z"/><path fill="#6E9BBE" d="M33 40h1v1h-1zM34 40h1v1h-1zM35 40h1v1h-1zM36 40h1v1h-1zM37 40h1v1h-1zM38 40h1v1h-1zM39 40h1v1h-1zM40 40h1v1h-1zM41 40h1v1h-1zM42 40h1v1h-1z"/><path fill="#3A414A" d="M43 40h1v1h-1z"/><path fill="#231815" d="M44 40h1v1h-1zM45 40h1v1h-1zM46 40h1v1h-1zM47 40h1v1h-1zM48 40h1v1h-1z"/><path fill="#3F3532" d="M49 40h1v1h-1z"/><path fill="#FFF" d="M50 40h1v1h-1zM51 40h1v1h-1z"/><path fill="#3F3532" d="M52 40h1v1h-1z"/><path fill="#231815" d="M53 40h1v1h-1zM54 40h1v1h-1zM55 40h1v1h-1zM56 40h1v1h-1zM60 40h1v1h-1zM61 40h1v1h-1zM62 40h1v1h-1z"/><path fill="#312624" d="M63 40h1v1h-1z"/><path fill="#FFF" d="M64 40h1v1h-1zM65 40h1v1h-1zM66 40h1v1h-1zM67 40h1v1h-1zM68 40h1v1h-1z"/><path fill="#80A8C6" d="M69 40h1v1h-1z"/><path fill="#6E9BBE" d="M70 40h1v1h-1zM71 40h1v1h-1z"/><path fill="#36393F" d="M72 40h1v1h-1z"/><path fill="#231815" d="M73 40h1v1h-1zM74 40h1v1h-1zM75 40h1v1h-1zM76 40h1v1h-1zM6 41h1v1H6zM7 41h1v1H7zM8 41h1v1H8zM9 41h1v1H9z"/><path fill="#999797" d="M10 41h1v1h-1z"/><path fill="#2B2422" d="M11 41h1v1h-1z"/><path fill="#231815" d="M12 41h1v1h-1zM13 41h1v1h-1zM14 41h1v1h-1zM15 41h1v1h-1zM16 41h1v1h-1zM18 41h1v1h-1zM19 41h1v1h-1zM20 41h1v1h-1z"/><path fill="#9F9A99" d="M21 41h1v1h-1z"/><path fill="#FFF" d="M22 41h1v1h-1zM23 41h1v1h-1zM24 41h1v1h-1zM25 41h1v1h-1zM26 41h1v1h-1zM27 41h1v1h-1zM28 41h1v1h-1zM29 41h1v1h-1zM30 41h1v1h-1zM31 41h1v1h-1z"/><path fill="#A4C1D6" d="M32 41h1v1h-1z"/><path fill="#6E9BBE" d="M33 41h1v1h-1zM34 41h1v1h-1zM35 41h1v1h-1zM36 41h1v1h-1zM37 41h1v1h-1zM38 41h1v1h-1zM39 41h1v1h-1zM40 41h1v1h-1zM41 41h1v1h-1zM42 41h1v1h-1z"/><path fill="#4D6274" d="M43 41h1v1h-1z"/><path fill="#231815" d="M44 41h1v1h-1zM45 41h1v1h-1zM46 41h1v1h-1zM47 41h1v1h-1zM48 41h1v1h-1z"/><path fill="#C8C5C5" d="M49 41h1v1h-1z"/><path fill="#FFF" d="M50 41h1v1h-1zM51 41h1v1h-1z"/><path fill="#C8C5C5" d="M52 41h1v1h-1z"/><path fill="#231815" d="M53 41h1v1h-1zM54 41h1v1h-1zM55 41h1v1h-1zM56 41h1v1h-1zM60 41h1v1h-1zM61 41h1v1h-1zM62 41h1v1h-1z"/><path fill="#766F6D" d="M63 41h1v1h-1z"/><path fill="#FFF" d="M64 41h1v1h-1zM65 41h1v1h-1zM66 41h1v1h-1zM67 41h1v1h-1zM68 41h1v1h-1z"/><path fill="#A4C1D6" d="M69 41h1v1h-1z"/><path fill="#6E9BBE" d="M70 41h1v1h-1zM71 41h1v1h-1z"/><path fill="#658BA9" d="M72 41h1v1h-1z"/><path fill="#282020" d="M73 41h1v1h-1z"/><path fill="#231815" d="M74 41h1v1h-1zM75 41h1v1h-1zM76 41h1v1h-1zM77 41h1v1h-1zM6 42h1v1H6zM7 42h1v1H7zM8 42h1v1H8z"/><path fill="#5A5250" d="M9 42h1v1H9z"/><path fill="#FFF" d="M10 42h1v1h-1z"/><path fill="#95B4BF" d="M11 42h1v1h-1z"/><path fill="#2B2422" d="M12 42h1v1h-1z"/><path fill="#231815" d="M13 42h1v1h-1zM14 42h1v1h-1zM15 42h1v1h-1zM16 42h1v1h-1zM17 42h1v1h-1zM18 42h1v1h-1zM19 42h1v1h-1zM20 42h1v1h-1z"/><path fill="#C8C5C5" d="M21 42h1v1h-1z"/><path fill="#FFF" d="M22 42h1v1h-1zM23 42h1v1h-1zM24 42h1v1h-1zM25 42h1v1h-1zM26 42h1v1h-1zM27 42h1v1h-1zM28 42h1v1h-1zM29 42h1v1h-1zM30 42h1v1h-1zM31 42h1v1h-1z"/><path fill="#92B4CE" d="M32 42h1v1h-1z"/><path fill="#6E9BBE" d="M33 42h1v1h-1zM34 42h1v1h-1zM35 42h1v1h-1zM36 42h1v1h-1zM37 42h1v1h-1zM38 42h1v1h-1zM39 42h1v1h-1zM40 42h1v1h-1zM41 42h1v1h-1zM42 42h1v1h-1z"/><path fill="#60829E" d="M43 42h1v1h-1z"/><path fill="#231815" d="M44 42h1v1h-1zM45 42h1v1h-1zM46 42h1v1h-1zM47 42h1v1h-1z"/><path fill="#5A5250" d="M48 42h1v1h-1z"/><path fill="#FFF" d="M49 42h1v1h-1zM50 42h1v1h-1zM51 42h1v1h-1zM52 42h1v1h-1z"/><path fill="#5A5250" d="M53 42h1v1h-1z"/><path fill="#231815" d="M54 42h1v1h-1zM55 42h1v1h-1zM56 42h1v1h-1zM57 42h1v1h-1zM59 42h1v1h-1zM60 42h1v1h-1zM61 42h1v1h-1zM62 42h1v1h-1z"/><path fill="#C8C5C5" d="M63 42h1v1h-1z"/><path fill="#FFF" d="M64 42h1v1h-1zM65 42h1v1h-1zM66 42h1v1h-1zM67 42h1v1h-1zM68 42h1v1h-1z"/><path fill="#C9DAE7" d="M69 42h1v1h-1z"/><path fill="#6E9BBE" d="M70 42h1v1h-1zM71 42h1v1h-1zM72 42h1v1h-1z"/><path fill="#577289" d="M73 42h1v1h-1z"/><path fill="#231815" d="M74 42h1v1h-1zM75 42h1v1h-1zM76 42h1v1h-1zM77 42h1v1h-1zM5 43h1v1H5zM6 43h1v1H6zM7 43h1v1H7zM8 43h1v1H8z"/><path fill="#BAB7B6" d="M9 43h1v1H9z"/><path fill="#FFF" d="M10 43h1v1h-1z"/><path fill="#D6EBF2" d="M11 43h1v1h-1z"/><path fill="#99C5D4" d="M12 43h1v1h-1z"/><path fill="#3B3B3B" d="M13 43h1v1h-1z"/><path fill="#231815" d="M14 43h1v1h-1zM15 43h1v1h-1zM16 43h1v1h-1zM17 43h1v1h-1zM18 43h1v1h-1zM19 43h1v1h-1zM20 43h1v1h-1z"/><path fill="#F1F1F0" d="M21 43h1v1h-1z"/><path fill="#FFF" d="M22 43h1v1h-1zM23 43h1v1h-1zM24 43h1v1h-1zM25 43h1v1h-1zM26 43h1v1h-1zM27 43h1v1h-1zM28 43h1v1h-1zM29 43h1v1h-1zM30 43h1v1h-1z"/><path fill="#F9FCFD" d="M31 43h1v1h-1z"/><path fill="#93BCD3" d="M32 43h1v1h-1z"/><path fill="#6E9BBE" d="M33 43h1v1h-1zM34 43h1v1h-1zM35 43h1v1h-1zM36 43h1v1h-1zM37 43h1v1h-1zM38 43h1v1h-1zM39 43h1v1h-1zM40 43h1v1h-1zM41 43h1v1h-1zM42 43h1v1h-1zM43 43h1v1h-1z"/><path fill="#2C282A" d="M44 43h1v1h-1z"/><path fill="#231815" d="M45 43h1v1h-1zM46 43h1v1h-1zM47 43h1v1h-1z"/><path fill="#C8C5C5" d="M48 43h1v1h-1z"/><path fill="#FFF" d="M49 43h1v1h-1zM50 43h1v1h-1zM51 43h1v1h-1zM52 43h1v1h-1z"/><path fill="#C8C5C5" d="M53 43h1v1h-1z"/><path fill="#231815" d="M54 43h1v1h-1zM55 43h1v1h-1zM56 43h1v1h-1zM57 43h1v1h-1zM59 43h1v1h-1zM60 43h1v1h-1zM61 43h1v1h-1z"/><path fill="#3F3532" d="M62 43h1v1h-1z"/><path fill="#FFF" d="M63 43h1v1h-1zM64 43h1v1h-1zM65 43h1v1h-1zM66 43h1v1h-1zM67 43h1v1h-1zM68 43h1v1h-1z"/><path fill="#EDF3F7" d="M69 43h1v1h-1z"/><path fill="#6E9BBE" d="M70 43h1v1h-1zM71 43h1v1h-1zM72 43h1v1h-1zM73 43h1v1h-1z"/><path fill="#3F4954" d="M74 43h1v1h-1z"/><path fill="#231815" d="M75 43h1v1h-1zM76 43h1v1h-1zM77 43h1v1h-1zM78 43h1v1h-1zM5 44h1v1H5zM6 44h1v1H6zM7 44h1v1H7z"/><path fill="#3F3532" d="M8 44h1v1H8z"/><path fill="#FFF" d="M9 44h1v1H9zM10 44h1v1h-1z"/><path fill="#F9FCFD" d="M11 44h1v1h-1z"/><path fill="#A7D4E3" d="M12 44h1v1h-1z"/><path fill="#99C5D4" d="M13 44h1v1h-1z"/><path fill="#4A5255" d="M14 44h1v1h-1z"/><path fill="#231815" d="M15 44h1v1h-1zM16 44h1v1h-1zM17 44h1v1h-1zM18 44h1v1h-1zM19 44h1v1h-1z"/><path fill="#312624" d="M20 44h1v1h-1z"/><path fill="#FFF" d="M21 44h1v1h-1zM22 44h1v1h-1zM23 44h1v1h-1zM24 44h1v1h-1zM25 44h1v1h-1zM26 44h1v1h-1zM27 44h1v1h-1zM28 44h1v1h-1zM29 44h1v1h-1zM30 44h1v1h-1z"/><path fill="#BEDFEA" d="M31 44h1v1h-1z"/><path fill="#9BCADD" d="M32 44h1v1h-1z"/><path fill="#6E9BBE" d="M33 44h1v1h-1zM34 44h1v1h-1zM35 44h1v1h-1zM36 44h1v1h-1zM37 44h1v1h-1zM38 44h1v1h-1zM39 44h1v1h-1zM40 44h1v1h-1zM41 44h1v1h-1zM42 44h1v1h-1zM43 44h1v1h-1z"/><path fill="#3F4954" d="M44 44h1v1h-1z"/><path fill="#231815" d="M45 44h1v1h-1zM46 44h1v1h-1z"/><path fill="#5A5250" d="M47 44h1v1h-1z"/><path fill="#FFF" d="M48 44h1v1h-1zM49 44h1v1h-1zM50 44h1v1h-1zM51 44h1v1h-1zM52 44h1v1h-1zM53 44h1v1h-1z"/><path fill="#68605E" d="M54 44h1v1h-1z"/><path fill="#231815" d="M55 44h1v1h-1zM56 44h1v1h-1zM57 44h1v1h-1zM58 44h1v1h-1zM59 44h1v1h-1zM60 44h1v1h-1zM61 44h1v1h-1z"/><path fill="#837D7B" d="M62 44h1v1h-1z"/><path fill="#FFF" d="M63 44h1v1h-1zM64 44h1v1h-1zM65 44h1v1h-1zM66 44h1v1h-1zM67 44h1v1h-1zM68 44h1v1h-1zM69 44h1v1h-1z"/><path fill="#80A8C6" d="M70 44h1v1h-1z"/><path fill="#6E9BBE" d="M71 44h1v1h-1zM72 44h1v1h-1zM73 44h1v1h-1z"/><path fill="#6993B3" d="M74 44h1v1h-1z"/><path fill="#313135" d="M75 44h1v1h-1z"/><path fill="#231815" d="M76 44h1v1h-1zM77 44h1v1h-1zM78 44h1v1h-1zM79 44h1v1h-1zM4 45h1v1H4zM5 45h1v1H5zM6 45h1v1H6zM7 45h1v1H7z"/><path fill="#ADA8A7" d="M8 45h1v1H8z"/><path fill="#FFF" d="M9 45h1v1H9zM10 45h1v1h-1zM11 45h1v1h-1z"/><path fill="#D0E8F0" d="M12 45h1v1h-1z"/><path fill="#A1D1E1" d="M13 45h1v1h-1zM14 45h1v1h-1z"/><path fill="#525D62" d="M15 45h1v1h-1z"/><path fill="#231815" d="M16 45h1v1h-1zM17 45h1v1h-1zM18 45h1v1h-1zM19 45h1v1h-1z"/><path fill="#5A5250" d="M20 45h1v1h-1z"/><path fill="#FFF" d="M21 45h1v1h-1zM22 45h1v1h-1zM23 45h1v1h-1zM24 45h1v1h-1zM25 45h1v1h-1zM26 45h1v1h-1zM27 45h1v1h-1zM28 45h1v1h-1zM29 45h1v1h-1z"/><path fill="#DCEEF4" d="M30 45h1v1h-1z"/><path fill="#A1D1E1" d="M31 45h1v1h-1zM32 45h1v1h-1z"/><path fill="#7EACC9" d="M33 45h1v1h-1z"/><path fill="#6E9BBE" d="M34 45h1v1h-1zM35 45h1v1h-1zM36 45h1v1h-1zM37 45h1v1h-1zM38 45h1v1h-1zM39 45h1v1h-1zM40 45h1v1h-1zM41 45h1v1h-1zM42 45h1v1h-1zM43 45h1v1h-1z"/><path fill="#849BAF" d="M44 45h1v1h-1z"/><path fill="#4C4341" d="M45 45h1v1h-1zM46 45h1v1h-1z"/><path fill="#D6D4D3" d="M47 45h1v1h-1z"/><path fill="#FFF" d="M48 45h1v1h-1zM49 45h1v1h-1zM50 45h1v1h-1zM51 45h1v1h-1zM52 45h1v1h-1zM53 45h1v1h-1z"/><path fill="#E4E2E2" d="M54 45h1v1h-1z"/><path fill="#231815" d="M55 45h1v1h-1zM56 45h1v1h-1zM57 45h1v1h-1zM58 45h1v1h-1zM59 45h1v1h-1zM60 45h1v1h-1zM61 45h1v1h-1z"/><path fill="#D6D4D3" d="M62 45h1v1h-1z"/><path fill="#FFF" d="M63 45h1v1h-1zM64 45h1v1h-1zM65 45h1v1h-1zM66 45h1v1h-1zM67 45h1v1h-1zM68 45h1v1h-1zM69 45h1v1h-1z"/><path fill="#A4C1D6" d="M70 45h1v1h-1z"/><path fill="#6E9BBE" d="M71 45h1v1h-1zM72 45h1v1h-1zM73 45h1v1h-1zM74 45h1v1h-1z"/><path fill="#60829E" d="M75 45h1v1h-1z"/><path fill="#231815" d="M76 45h1v1h-1zM77 45h1v1h-1zM78 45h1v1h-1zM79 45h1v1h-1zM80 45h1v1h-1zM4 46h1v1H4zM5 46h1v1H5zM6 46h1v1H6z"/><path fill="#312624" d="M7 46h1v1H7z"/><path fill="#F1F1F0" d="M8 46h1v1H8z"/><path fill="#FFF" d="M9 46h1v1H9zM10 46h1v1h-1zM11 46h1v1h-1z"/><path fill="#F9FCFD" d="M12 46h1v1h-1z"/><path fill="#A7D4E3" d="M13 46h1v1h-1z"/><path fill="#A1D1E1" d="M14 46h1v1h-1zM15 46h1v1h-1z"/><path fill="#728C95" d="M16 46h1v1h-1z"/><path fill="#231815" d="M17 46h1v1h-1zM18 46h1v1h-1zM19 46h1v1h-1z"/><path fill="#837D7B" d="M20 46h1v1h-1z"/><path fill="#FFF" d="M21 46h1v1h-1zM22 46h1v1h-1zM23 46h1v1h-1zM24 46h1v1h-1zM25 46h1v1h-1zM26 46h1v1h-1zM27 46h1v1h-1zM28 46h1v1h-1z"/><path fill="#F3F9FB" d="M29 46h1v1h-1z"/><path fill="#A7D4E3" d="M30 46h1v1h-1z"/><path fill="#A1D1E1" d="M31 46h1v1h-1zM32 46h1v1h-1z"/><path fill="#91C0D6" d="M33 46h1v1h-1z"/><path fill="#6E9BBE" d="M34 46h1v1h-1zM35 46h1v1h-1zM36 46h1v1h-1zM37 46h1v1h-1zM38 46h1v1h-1zM39 46h1v1h-1zM40 46h1v1h-1zM41 46h1v1h-1zM42 46h1v1h-1zM43 46h1v1h-1z"/><path fill="#C0D3E3" d="M44 46h1v1h-1z"/><path fill="#FFF" d="M45 46h1v1h-1zM46 46h1v1h-1zM47 46h1v1h-1zM48 46h1v1h-1zM49 46h1v1h-1zM50 46h1v1h-1zM51 46h1v1h-1zM52 46h1v1h-1zM53 46h1v1h-1zM54 46h1v1h-1z"/><path fill="#3F4954" d="M55 46h1v1h-1z"/><path fill="#231815" d="M56 46h1v1h-1zM57 46h1v1h-1zM58 46h1v1h-1zM59 46h1v1h-1zM60 46h1v1h-1z"/><path fill="#3F3532" d="M61 46h1v1h-1z"/><path fill="#FFF" d="M62 46h1v1h-1zM63 46h1v1h-1zM64 46h1v1h-1zM65 46h1v1h-1zM66 46h1v1h-1zM67 46h1v1h-1zM68 46h1v1h-1zM69 46h1v1h-1z"/><path fill="#C9DAE7" d="M70 46h1v1h-1z"/><path fill="#6E9BBE" d="M71 46h1v1h-1zM72 46h1v1h-1zM73 46h1v1h-1zM74 46h1v1h-1zM75 46h1v1h-1z"/><path fill="#4D6274" d="M76 46h1v1h-1z"/><path fill="#231815" d="M77 46h1v1h-1zM78 46h1v1h-1zM79 46h1v1h-1zM80 46h1v1h-1zM3 47h1v1H3zM4 47h1v1H4zM5 47h1v1H5zM6 47h1v1H6z"/><path fill="#837D7B" d="M7 47h1v1H7z"/><path fill="#FFF" d="M8 47h1v1H8zM9 47h1v1H9zM10 47h1v1h-1zM11 47h1v1h-1zM12 47h1v1h-1z"/><path fill="#D0E8F0" d="M13 47h1v1h-1z"/><path fill="#A1D1E1" d="M14 47h1v1h-1zM15 47h1v1h-1zM16 47h1v1h-1z"/><path fill="#82A3AE" d="M17 47h1v1h-1z"/><path fill="#332F2F" d="M18 47h1v1h-1z"/><path fill="#3F3532" d="M19 47h1v1h-1z"/><path fill="#D6D4D3" d="M20 47h1v1h-1z"/><path fill="#FFF" d="M21 47h1v1h-1zM22 47h1v1h-1zM23 47h1v1h-1zM24 47h1v1h-1zM25 47h1v1h-1zM26 47h1v1h-1zM27 47h1v1h-1zM28 47h1v1h-1z"/><path fill="#B3DAE7" d="M29 47h1v1h-1z"/><path fill="#A1D1E1" d="M30 47h1v1h-1zM31 47h1v1h-1zM32 47h1v1h-1zM33 47h1v1h-1z"/><path fill="#719EC0" d="M34 47h1v1h-1z"/><path fill="#6E9BBE" d="M35 47h1v1h-1zM36 47h1v1h-1zM37 47h1v1h-1zM38 47h1v1h-1zM39 47h1v1h-1zM40 47h1v1h-1zM41 47h1v1h-1zM42 47h1v1h-1zM43 47h1v1h-1z"/><path fill="#DBE6EF" d="M44 47h1v1h-1z"/><path fill="#FFF" d="M45 47h1v1h-1zM46 47h1v1h-1zM47 47h1v1h-1zM48 47h1v1h-1zM49 47h1v1h-1zM50 47h1v1h-1zM51 47h1v1h-1zM52 47h1v1h-1zM53 47h1v1h-1z"/><path fill="#DBE6EF" d="M54 47h1v1h-1z"/><path fill="#658BA9" d="M55 47h1v1h-1z"/><path fill="#282020" d="M56 47h1v1h-1z"/><path fill="#231815" d="M57 47h1v1h-1zM58 47h1v1h-1zM59 47h1v1h-1zM60 47h1v1h-1z"/><path fill="#837D7B" d="M61 47h1v1h-1z"/><path fill="#FFF" d="M62 47h1v1h-1zM63 47h1v1h-1zM64 47h1v1h-1zM65 47h1v1h-1zM66 47h1v1h-1zM67 47h1v1h-1zM68 47h1v1h-1zM69 47h1v1h-1z"/><path fill="#EDF3F7" d="M70 47h1v1h-1z"/><path fill="#6E9BBE" d="M71 47h1v1h-1zM72 47h1v1h-1zM73 47h1v1h-1zM74 47h1v1h-1zM75 47h1v1h-1zM76 47h1v1h-1z"/><path fill="#36393F" d="M77 47h1v1h-1z"/><path fill="#231815" d="M78 47h1v1h-1zM79 47h1v1h-1zM80 47h1v1h-1zM3 48h1v1H3zM4 48h1v1H4zM5 48h1v1H5zM6 48h1v1H6z"/><path fill="#E4E2E2" d="M7 48h1v1H7z"/><path fill="#FFF" d="M8 48h1v1H8zM9 48h1v1H9zM10 48h1v1h-1zM11 48h1v1h-1zM12 48h1v1h-1z"/><path fill="#F9FCFD" d="M13 48h1v1h-1z"/><path fill="#A7D4E3" d="M14 48h1v1h-1z"/><path fill="#A1D1E1" d="M15 48h1v1h-1zM16 48h1v1h-1zM17 48h1v1h-1zM18 48h1v1h-1z"/><path fill="#EDF6F9" d="M19 48h1v1h-1z"/><path fill="#FFF" d="M20 48h1v1h-1zM21 48h1v1h-1zM22 48h1v1h-1zM23 48h1v1h-1zM24 48h1v1h-1zM25 48h1v1h-1zM26 48h1v1h-1zM27 48h1v1h-1z"/><path fill="#CAE5EE" d="M28 48h1v1h-1z"/><path fill="#A1D1E1" d="M29 48h1v1h-1zM30 48h1v1h-1zM31 48h1v1h-1zM32 48h1v1h-1zM33 48h1v1h-1z"/><path fill="#81AFCB" d="M34 48h1v1h-1z"/><path fill="#6E9BBE" d="M35 48h1v1h-1zM36 48h1v1h-1zM37 48h1v1h-1zM38 48h1v1h-1zM39 48h1v1h-1zM40 48h1v1h-1zM41 48h1v1h-1zM42 48h1v1h-1zM43 48h1v1h-1z"/><path fill="#FFF" d="M44 48h1v1h-1zM45 48h1v1h-1zM46 48h1v1h-1zM47 48h1v1h-1zM48 48h1v1h-1zM49 48h1v1h-1zM50 48h1v1h-1zM51 48h1v1h-1zM52 48h1v1h-1zM53 48h1v1h-1z"/><path fill="#C0D3E3" d="M54 48h1v1h-1z"/><path fill="#6E9BBE" d="M55 48h1v1h-1z"/><path fill="#495A6A" d="M56 48h1v1h-1z"/><path fill="#231815" d="M57 48h1v1h-1zM58 48h1v1h-1zM59 48h1v1h-1zM60 48h1v1h-1z"/><path fill="#D6D4D3" d="M61 48h1v1h-1z"/><path fill="#FFF" d="M62 48h1v1h-1zM63 48h1v1h-1zM64 48h1v1h-1zM65 48h1v1h-1zM66 48h1v1h-1zM67 48h1v1h-1zM68 48h1v1h-1zM69 48h1v1h-1zM70 48h1v1h-1z"/><path fill="#80A8C6" d="M71 48h1v1h-1z"/><path fill="#6E9BBE" d="M72 48h1v1h-1zM73 48h1v1h-1zM74 48h1v1h-1zM75 48h1v1h-1zM76 48h1v1h-1z"/><path fill="#5B7A94" d="M77 48h1v1h-1z"/><path fill="#231815" d="M78 48h1v1h-1zM79 48h1v1h-1zM80 48h1v1h-1zM3 49h1v1H3zM4 49h1v1H4zM5 49h1v1H5z"/><path fill="#68605E" d="M6 49h1v1H6z"/><path fill="#FFF" d="M7 49h1v1H7zM8 49h1v1H8zM9 49h1v1H9zM10 49h1v1h-1zM11 49h1v1h-1zM12 49h1v1h-1zM13 49h1v1h-1z"/><path fill="#D6EBF2" d="M14 49h1v1h-1z"/><path fill="#A1D1E1" d="M15 49h1v1h-1zM16 49h1v1h-1zM17 49h1v1h-1zM18 49h1v1h-1z"/><path fill="#DCEEF4" d="M19 49h1v1h-1z"/><path fill="#FFF" d="M20 49h1v1h-1zM21 49h1v1h-1zM22 49h1v1h-1zM23 49h1v1h-1zM24 49h1v1h-1zM25 49h1v1h-1zM26 49h1v1h-1z"/><path fill="#E2F1F6" d="M27 49h1v1h-1z"/><path fill="#A1D1E1" d="M28 49h1v1h-1zM29 49h1v1h-1zM30 49h1v1h-1zM31 49h1v1h-1zM32 49h1v1h-1zM33 49h1v1h-1z"/><path fill="#91C0D6" d="M34 49h1v1h-1z"/><path fill="#6E9BBE" d="M35 49h1v1h-1zM36 49h1v1h-1zM37 49h1v1h-1zM38 49h1v1h-1zM39 49h1v1h-1zM40 49h1v1h-1zM41 49h1v1h-1zM42 49h1v1h-1z"/><path fill="#92B4CE" d="M43 49h1v1h-1z"/><path fill="#FFF" d="M44 49h1v1h-1zM45 49h1v1h-1zM46 49h1v1h-1zM47 49h1v1h-1zM48 49h1v1h-1zM49 49h1v1h-1zM50 49h1v1h-1zM51 49h1v1h-1zM52 49h1v1h-1zM53 49h1v1h-1z"/><path fill="#9BBAD2" d="M54 49h1v1h-1z"/><path fill="#6E9BBE" d="M55 49h1v1h-1z"/><path fill="#6993B3" d="M56 49h1v1h-1z"/><path fill="#282020" d="M57 49h1v1h-1z"/><path fill="#231815" d="M58 49h1v1h-1zM59 49h1v1h-1z"/><path fill="#3F3532" d="M60 49h1v1h-1z"/><path fill="#FFF" d="M61 49h1v1h-1zM62 49h1v1h-1zM63 49h1v1h-1zM64 49h1v1h-1zM65 49h1v1h-1zM66 49h1v1h-1zM67 49h1v1h-1zM68 49h1v1h-1zM69 49h1v1h-1zM70 49h1v1h-1z"/><path fill="#A4C1D6" d="M71 49h1v1h-1z"/><path fill="#6E9BBE" d="M72 49h1v1h-1zM73 49h1v1h-1zM74 49h1v1h-1zM75 49h1v1h-1zM76 49h1v1h-1z"/><path fill="#5B7A94" d="M77 49h1v1h-1z"/><path fill="#231815" d="M78 49h1v1h-1zM79 49h1v1h-1zM80 49h1v1h-1zM2 50h1v1H2zM3 50h1v1H3zM4 50h1v1H4zM5 50h1v1H5z"/><path fill="#C8C5C5" d="M6 50h1v1H6z"/><path fill="#FFF" d="M7 50h1v1H7zM8 50h1v1H8zM9 50h1v1H9zM10 50h1v1h-1zM11 50h1v1h-1zM12 50h1v1h-1zM13 50h1v1h-1zM14 50h1v1h-1z"/><path fill="#ADD7E5" d="M15 50h1v1h-1z"/><path fill="#A1D1E1" d="M16 50h1v1h-1zM17 50h1v1h-1zM18 50h1v1h-1z"/><path fill="#D0E8F0" d="M19 50h1v1h-1z"/><path fill="#FFF" d="M20 50h1v1h-1zM21 50h1v1h-1zM22 50h1v1h-1zM23 50h1v1h-1zM24 50h1v1h-1zM25 50h1v1h-1z"/><path fill="#F3F9FB" d="M26 50h1v1h-1z"/><path fill="#A7D4E3" d="M27 50h1v1h-1z"/><path fill="#A1D1E1" d="M28 50h1v1h-1zM29 50h1v1h-1zM30 50h1v1h-1zM31 50h1v1h-1zM32 50h1v1h-1zM33 50h1v1h-1zM34 50h1v1h-1z"/><path fill="#719EC0" d="M35 50h1v1h-1z"/><path fill="#6E9BBE" d="M36 50h1v1h-1zM37 50h1v1h-1zM38 50h1v1h-1zM39 50h1v1h-1zM40 50h1v1h-1zM41 50h1v1h-1zM42 50h1v1h-1z"/><path fill="#ADC7DA" d="M43 50h1v1h-1z"/><path fill="#FFF" d="M44 50h1v1h-1zM45 50h1v1h-1zM46 50h1v1h-1zM47 50h1v1h-1zM48 50h1v1h-1zM49 50h1v1h-1zM50 50h1v1h-1zM51 50h1v1h-1zM52 50h1v1h-1zM53 50h1v1h-1z"/><path fill="#80A8C6" d="M54 50h1v1h-1z"/><path fill="#6E9BBE" d="M55 50h1v1h-1zM56 50h1v1h-1z"/><path fill="#495A6A" d="M57 50h1v1h-1z"/><path fill="#231815" d="M58 50h1v1h-1zM59 50h1v1h-1z"/><path fill="#918C8A" d="M60 50h1v1h-1z"/><path fill="#FFF" d="M61 50h1v1h-1zM62 50h1v1h-1zM63 50h1v1h-1zM64 50h1v1h-1zM65 50h1v1h-1zM66 50h1v1h-1zM67 50h1v1h-1zM68 50h1v1h-1zM69 50h1v1h-1zM70 50h1v1h-1z"/><path fill="#C9DAE7" d="M71 50h1v1h-1z"/><path fill="#6E9BBE" d="M72 50h1v1h-1zM73 50h1v1h-1zM74 50h1v1h-1zM75 50h1v1h-1zM76 50h1v1h-1z"/><path fill="#6993B3" d="M77 50h1v1h-1z"/><path fill="#231815" d="M78 50h1v1h-1zM79 50h1v1h-1zM80 50h1v1h-1zM81 50h1v1h-1zM2 51h1v1H2zM3 51h1v1H3zM4 51h1v1H4z"/><path fill="#4C4341" d="M5 51h1v1H5z"/><path fill="#FFF" d="M6 51h1v1H6zM7 51h1v1H7zM8 51h1v1H8zM9 51h1v1H9zM10 51h1v1h-1zM11 51h1v1h-1zM12 51h1v1h-1zM13 51h1v1h-1zM14 51h1v1h-1z"/><path fill="#E8F4F8" d="M15 51h1v1h-1z"/><path fill="#A1D1E1" d="M16 51h1v1h-1zM17 51h1v1h-1zM18 51h1v1h-1z"/><path fill="#B9DDE9" d="M19 51h1v1h-1z"/><path fill="#FFF" d="M20 51h1v1h-1zM21 51h1v1h-1zM22 51h1v1h-1zM23 51h1v1h-1zM24 51h1v1h-1zM25 51h1v1h-1z"/><path fill="#B3DAE7" d="M26 51h1v1h-1z"/><path fill="#A1D1E1" d="M27 51h1v1h-1zM28 51h1v1h-1zM29 51h1v1h-1zM30 51h1v1h-1zM31 51h1v1h-1zM32 51h1v1h-1zM33 51h1v1h-1zM34 51h1v1h-1z"/><path fill="#7EACC9" d="M35 51h1v1h-1z"/><path fill="#6E9BBE" d="M36 51h1v1h-1zM37 51h1v1h-1zM38 51h1v1h-1zM39 51h1v1h-1zM40 51h1v1h-1zM41 51h1v1h-1zM42 51h1v1h-1z"/><path fill="#C9DAE7" d="M43 51h1v1h-1z"/><path fill="#FFF" d="M44 51h1v1h-1zM45 51h1v1h-1zM46 51h1v1h-1zM47 51h1v1h-1zM48 51h1v1h-1zM49 51h1v1h-1zM50 51h1v1h-1zM51 51h1v1h-1zM52 51h1v1h-1z"/><path fill="#EDF3F7" d="M53 51h1v1h-1z"/><path fill="#6E9BBE" d="M54 51h1v1h-1zM55 51h1v1h-1zM56 51h1v1h-1zM57 51h1v1h-1z"/><path fill="#577289" d="M58 51h1v1h-1z"/><path fill="#526A7F" d="M59 51h1v1h-1z"/><path fill="#C9DAE7" d="M60 51h1v1h-1z"/><path fill="#FFF" d="M61 51h1v1h-1zM62 51h1v1h-1zM63 51h1v1h-1zM64 51h1v1h-1zM65 51h1v1h-1zM66 51h1v1h-1zM67 51h1v1h-1zM68 51h1v1h-1zM69 51h1v1h-1zM70 51h1v1h-1z"/><path fill="#C0D3E3" d="M71 51h1v1h-1z"/><path fill="#6E9BBE" d="M72 51h1v1h-1zM73 51h1v1h-1zM74 51h1v1h-1zM75 51h1v1h-1zM76 51h1v1h-1zM77 51h1v1h-1z"/><path fill="#231815" d="M78 51h1v1h-1zM79 51h1v1h-1zM80 51h1v1h-1zM81 51h1v1h-1zM1 52h1v1H1zM2 52h1v1H2zM3 52h1v1H3zM4 52h1v1H4z"/><path fill="#ADA8A7" d="M5 52h1v1H5z"/><path fill="#FFF" d="M6 52h1v1H6zM7 52h1v1H7zM8 52h1v1H8zM9 52h1v1H9zM10 52h1v1h-1zM11 52h1v1h-1zM12 52h1v1h-1zM13 52h1v1h-1zM14 52h1v1h-1zM15 52h1v1h-1z"/><path fill="#C4E2EC" d="M16 52h1v1h-1z"/><path fill="#A1D1E1" d="M17 52h1v1h-1zM18 52h1v1h-1z"/><path fill="#ADD7E5" d="M19 52h1v1h-1z"/><path fill="#FFF" d="M20 52h1v1h-1zM21 52h1v1h-1zM22 52h1v1h-1zM23 52h1v1h-1zM24 52h1v1h-1z"/><path fill="#C4E2EC" d="M25 52h1v1h-1z"/><path fill="#A1D1E1" d="M26 52h1v1h-1zM27 52h1v1h-1zM28 52h1v1h-1zM29 52h1v1h-1zM30 52h1v1h-1zM31 52h1v1h-1zM32 52h1v1h-1zM33 52h1v1h-1zM34 52h1v1h-1z"/><path fill="#8EBDD4" d="M35 52h1v1h-1z"/><path fill="#6E9BBE" d="M36 52h1v1h-1zM37 52h1v1h-1zM38 52h1v1h-1zM39 52h1v1h-1zM40 52h1v1h-1zM41 52h1v1h-1zM42 52h1v1h-1z"/><path fill="#E4ECF3" d="M43 52h1v1h-1z"/><path fill="#FFF" d="M44 52h1v1h-1zM45 52h1v1h-1zM46 52h1v1h-1zM47 52h1v1h-1zM48 52h1v1h-1zM49 52h1v1h-1zM50 52h1v1h-1zM51 52h1v1h-1zM52 52h1v1h-1z"/><path fill="#D2E0EB" d="M53 52h1v1h-1z"/><path fill="#6E9BBE" d="M54 52h1v1h-1zM55 52h1v1h-1zM56 52h1v1h-1zM57 52h1v1h-1zM58 52h1v1h-1zM59 52h1v1h-1z"/><path fill="#89AECA" d="M60 52h1v1h-1z"/><path fill="#FFF" d="M61 52h1v1h-1zM62 52h1v1h-1zM63 52h1v1h-1zM64 52h1v1h-1zM65 52h1v1h-1zM66 52h1v1h-1zM67 52h1v1h-1zM68 52h1v1h-1zM69 52h1v1h-1zM70 52h1v1h-1z"/><path fill="#A3C9DC" d="M71 52h1v1h-1z"/><path fill="#6E9BBE" d="M72 52h1v1h-1zM73 52h1v1h-1zM74 52h1v1h-1zM75 52h1v1h-1zM76 52h1v1h-1zM77 52h1v1h-1z"/><path fill="#231815" d="M78 52h1v1h-1zM79 52h1v1h-1zM80 52h1v1h-1zM81 52h1v1h-1zM1 53h1v1H1zM2 53h1v1H2zM3 53h1v1H3z"/><path fill="#312624" d="M4 53h1v1H4z"/><path fill="#FFF" d="M5 53h1v1H5zM6 53h1v1H6zM7 53h1v1H7zM8 53h1v1H8zM9 53h1v1H9zM10 53h1v1h-1zM11 53h1v1h-1zM12 53h1v1h-1zM13 53h1v1h-1zM14 53h1v1h-1zM15 53h1v1h-1z"/><path fill="#F9FCFD" d="M16 53h1v1h-1z"/><path fill="#A7D4E3" d="M17 53h1v1h-1z"/><path fill="#A1D1E1" d="M18 53h1v1h-1zM19 53h1v1h-1z"/><path fill="#FFF" d="M20 53h1v1h-1zM21 53h1v1h-1zM22 53h1v1h-1zM23 53h1v1h-1z"/><path fill="#DCEEF4" d="M24 53h1v1h-1z"/><path fill="#A1D1E1" d="M25 53h1v1h-1zM26 53h1v1h-1zM27 53h1v1h-1zM28 53h1v1h-1zM29 53h1v1h-1zM30 53h1v1h-1zM31 53h1v1h-1zM32 53h1v1h-1zM33 53h1v1h-1zM34 53h1v1h-1z"/><path fill="#9ECEDF" d="M35 53h1v1h-1z"/><path fill="#6E9BBE" d="M36 53h1v1h-1zM37 53h1v1h-1zM38 53h1v1h-1zM39 53h1v1h-1zM40 53h1v1h-1zM41 53h1v1h-1z"/><path fill="#77A1C2" d="M42 53h1v1h-1z"/><path fill="#FFF" d="M43 53h1v1h-1zM44 53h1v1h-1zM45 53h1v1h-1zM46 53h1v1h-1zM47 53h1v1h-1zM48 53h1v1h-1zM49 53h1v1h-1zM50 53h1v1h-1zM51 53h1v1h-1zM52 53h1v1h-1z"/><path fill="#ADC7DA" d="M53 53h1v1h-1z"/><path fill="#6E9BBE" d="M54 53h1v1h-1zM55 53h1v1h-1zM56 53h1v1h-1zM57 53h1v1h-1zM58 53h1v1h-1zM59 53h1v1h-1zM60 53h1v1h-1z"/><path fill="#DBE6EF" d="M61 53h1v1h-1z"/><path fill="#FFF" d="M62 53h1v1h-1zM63 53h1v1h-1zM64 53h1v1h-1zM65 53h1v1h-1zM66 53h1v1h-1zM67 53h1v1h-1zM68 53h1v1h-1zM69 53h1v1h-1z"/><path fill="#F9FCFD" d="M70 53h1v1h-1z"/><path fill="#97C7DA" d="M71 53h1v1h-1z"/><path fill="#6E9BBE" d="M72 53h1v1h-1zM73 53h1v1h-1zM74 53h1v1h-1zM75 53h1v1h-1zM76 53h1v1h-1zM77 53h1v1h-1z"/><path fill="#231815" d="M78 53h1v1h-1zM79 53h1v1h-1zM80 53h1v1h-1zM81 53h1v1h-1zM0 54h1v1H0zM1 54h1v1H1zM2 54h1v1H2zM3 54h1v1H3z"/><path fill="#918C8A" d="M4 54h1v1H4z"/><path fill="#FFF" d="M5 54h1v1H5zM6 54h1v1H6zM7 54h1v1H7zM8 54h1v1H8zM9 54h1v1H9zM10 54h1v1h-1zM11 54h1v1h-1zM12 54h1v1h-1zM13 54h1v1h-1zM14 54h1v1h-1zM15 54h1v1h-1zM16 54h1v1h-1z"/><path fill="#E2F1F6" d="M17 54h1v1h-1z"/><path fill="#A1D1E1" d="M18 54h1v1h-1zM19 54h1v1h-1z"/><path fill="#E8F4F8" d="M20 54h1v1h-1z"/><path fill="#FFF" d="M21 54h1v1h-1zM22 54h1v1h-1z"/><path fill="#E8F4F8" d="M23 54h1v1h-1z"/><path fill="#A1D1E1" d="M24 54h1v1h-1zM25 54h1v1h-1zM26 54h1v1h-1zM27 54h1v1h-1zM28 54h1v1h-1zM29 54h1v1h-1zM30 54h1v1h-1zM31 54h1v1h-1zM32 54h1v1h-1zM33 54h1v1h-1zM34 54h1v1h-1zM35 54h1v1h-1z"/><path fill="#78A5C5" d="M36 54h1v1h-1z"/><path fill="#6E9BBE" d="M37 54h1v1h-1zM38 54h1v1h-1zM39 54h1v1h-1zM40 54h1v1h-1zM41 54h1v1h-1z"/><path fill="#92B4CE" d="M42 54h1v1h-1z"/><path fill="#FFF" d="M43 54h1v1h-1zM44 54h1v1h-1zM45 54h1v1h-1zM46 54h1v1h-1zM47 54h1v1h-1zM48 54h1v1h-1zM49 54h1v1h-1zM50 54h1v1h-1zM51 54h1v1h-1zM52 54h1v1h-1z"/><path fill="#89AECA" d="M53 54h1v1h-1z"/><path fill="#6E9BBE" d="M54 54h1v1h-1zM55 54h1v1h-1zM56 54h1v1h-1zM57 54h1v1h-1zM58 54h1v1h-1zM59 54h1v1h-1zM60 54h1v1h-1z"/><path fill="#92B4CE" d="M61 54h1v1h-1z"/><path fill="#FFF" d="M62 54h1v1h-1zM63 54h1v1h-1zM64 54h1v1h-1zM65 54h1v1h-1zM66 54h1v1h-1zM67 54h1v1h-1zM68 54h1v1h-1zM69 54h1v1h-1z"/><path fill="#DCEEF4" d="M70 54h1v1h-1z"/><path fill="#A1D1E1" d="M71 54h1v1h-1z"/><path fill="#6E9BBE" d="M72 54h1v1h-1zM73 54h1v1h-1zM74 54h1v1h-1zM75 54h1v1h-1zM76 54h1v1h-1zM77 54h1v1h-1z"/><path fill="#2C282A" d="M78 54h1v1h-1z"/><path fill="#231815" d="M79 54h1v1h-1zM80 54h1v1h-1zM81 54h1v1h-1zM0 55h1v1H0zM1 55h1v1H1zM2 55h1v1H2zM3 55h1v1H3z"/><path fill="#F1F1F0" d="M4 55h1v1H4z"/><path fill="#FFF" d="M5 55h1v1H5zM6 55h1v1H6zM7 55h1v1H7zM8 55h1v1H8zM9 55h1v1H9zM10 55h1v1h-1zM11 55h1v1h-1zM12 55h1v1h-1zM13 55h1v1h-1zM14 55h1v1h-1zM15 55h1v1h-1zM16 55h1v1h-1zM17 55h1v1h-1z"/><path fill="#BEDFEA" d="M18 55h1v1h-1z"/><path fill="#A1D1E1" d="M19 55h1v1h-1z"/><path fill="#DCEEF4" d="M20 55h1v1h-1z"/><path fill="#FFF" d="M21 55h1v1h-1z"/><path fill="#EDF6F9" d="M22 55h1v1h-1z"/><path fill="#A7D4E3" d="M23 55h1v1h-1z"/><path fill="#A1D1E1" d="M24 55h1v1h-1zM25 55h1v1h-1zM26 55h1v1h-1zM27 55h1v1h-1zM28 55h1v1h-1zM29 55h1v1h-1zM30 55h1v1h-1zM31 55h1v1h-1zM32 55h1v1h-1zM33 55h1v1h-1zM34 55h1v1h-1zM35 55h1v1h-1z"/><path fill="#88B6D0" d="M36 55h1v1h-1z"/><path fill="#6E9BBE" d="M37 55h1v1h-1zM38 55h1v1h-1zM39 55h1v1h-1zM40 55h1v1h-1zM41 55h1v1h-1z"/><path fill="#99BFD5" d="M42 55h1v1h-1z"/><path fill="#FFF" d="M43 55h1v1h-1zM44 55h1v1h-1zM45 55h1v1h-1zM46 55h1v1h-1zM47 55h1v1h-1zM48 55h1v1h-1zM49 55h1v1h-1zM50 55h1v1h-1zM51 55h1v1h-1z"/><path fill="#F6F9FB" d="M52 55h1v1h-1z"/><path fill="#6E9BBE" d="M53 55h1v1h-1zM54 55h1v1h-1zM55 55h1v1h-1zM56 55h1v1h-1zM57 55h1v1h-1zM58 55h1v1h-1zM59 55h1v1h-1zM60 55h1v1h-1zM61 55h1v1h-1z"/><path fill="#EDF3F7" d="M62 55h1v1h-1z"/><path fill="#FFF" d="M63 55h1v1h-1zM64 55h1v1h-1zM65 55h1v1h-1zM66 55h1v1h-1zM67 55h1v1h-1zM68 55h1v1h-1zM69 55h1v1h-1z"/><path fill="#BEDFEA" d="M70 55h1v1h-1z"/><path fill="#A1D1E1" d="M71 55h1v1h-1z"/><path fill="#74A2C2" d="M72 55h1v1h-1z"/><path fill="#6E9BBE" d="M73 55h1v1h-1zM74 55h1v1h-1zM75 55h1v1h-1zM76 55h1v1h-1zM77 55h1v1h-1z"/><path fill="#36393F" d="M78 55h1v1h-1z"/><path fill="#231815" d="M79 55h1v1h-1zM80 55h1v1h-1zM81 55h1v1h-1zM0 56h1v1H0zM1 56h1v1H1zM2 56h1v1H2z"/><path fill="#544F4D" d="M3 56h1v1H3z"/><path fill="#E8F5F7" d="M4 56h1v1H4z"/><path fill="#ECF6F8" d="M5 56h1v1H5z"/><path fill="#F0F8FA" d="M6 56h1v1H6zM7 56h1v1H7z"/><path fill="#F5FBFC" d="M8 56h1v1H8z"/><path fill="#F7FCFC" d="M9 56h1v1H9zM10 56h1v1h-1z"/><path fill="#FDFEFE" d="M11 56h1v1h-1z"/><path fill="#FFF" d="M12 56h1v1h-1zM13 56h1v1h-1zM14 56h1v1h-1zM15 56h1v1h-1zM16 56h1v1h-1zM17 56h1v1h-1z"/><path fill="#F9FCFD" d="M18 56h1v1h-1z"/><path fill="#ADD7E5" d="M19 56h1v1h-1z"/><path fill="#CAE5EE" d="M20 56h1v1h-1z"/><path fill="#E8F4F8" d="M21 56h1v1h-1z"/><path fill="#A7D4E3" d="M22 56h1v1h-1z"/><path fill="#A1D1E1" d="M23 56h1v1h-1zM24 56h1v1h-1zM25 56h1v1h-1zM26 56h1v1h-1zM27 56h1v1h-1zM28 56h1v1h-1zM29 56h1v1h-1zM30 56h1v1h-1zM31 56h1v1h-1zM32 56h1v1h-1zM33 56h1v1h-1zM34 56h1v1h-1zM35 56h1v1h-1z"/><path fill="#94C4D8" d="M36 56h1v1h-1z"/><path fill="#6E9BBE" d="M37 56h1v1h-1zM38 56h1v1h-1zM39 56h1v1h-1zM40 56h1v1h-1z"/><path fill="#74A2C2" d="M41 56h1v1h-1z"/><path fill="#9ECEDF" d="M42 56h1v1h-1z"/><path fill="#FFF" d="M43 56h1v1h-1zM44 56h1v1h-1zM45 56h1v1h-1zM46 56h1v1h-1zM47 56h1v1h-1zM48 56h1v1h-1zM49 56h1v1h-1zM50 56h1v1h-1zM51 56h1v1h-1z"/><path fill="#DBE6EF" d="M52 56h1v1h-1z"/><path fill="#6E9BBE" d="M53 56h1v1h-1zM54 56h1v1h-1zM55 56h1v1h-1zM56 56h1v1h-1zM57 56h1v1h-1zM58 56h1v1h-1zM59 56h1v1h-1zM60 56h1v1h-1zM61 56h1v1h-1z"/><path fill="#A4C1D6" d="M62 56h1v1h-1z"/><path fill="#FFF" d="M63 56h1v1h-1zM64 56h1v1h-1zM65 56h1v1h-1zM66 56h1v1h-1zM67 56h1v1h-1zM68 56h1v1h-1z"/><path fill="#F9FCFD" d="M69 56h1v1h-1z"/><path fill="#A1D1E1" d="M70 56h1v1h-1zM71 56h1v1h-1z"/><path fill="#7BA9C7" d="M72 56h1v1h-1z"/><path fill="#6E9BBE" d="M73 56h1v1h-1zM74 56h1v1h-1zM75 56h1v1h-1zM76 56h1v1h-1zM77 56h1v1h-1z"/><path fill="#36393F" d="M78 56h1v1h-1z"/><path fill="#231815" d="M79 56h1v1h-1zM80 56h1v1h-1zM81 56h1v1h-1zM0 57h1v1H0zM1 57h1v1H1zM2 57h1v1H2z"/><path fill="#524E4D" d="M3 57h1v1H3z"/><path fill="#E0F1F4" d="M4 57h1v1H4zM5 57h1v1H5zM6 57h1v1H6zM7 57h1v1H7zM8 57h1v1H8zM9 57h1v1H9zM10 57h1v1h-1zM11 57h1v1h-1zM12 57h1v1h-1zM13 57h1v1h-1z"/><path fill="#E8F5F7" d="M14 57h1v1h-1zM15 57h1v1h-1z"/><path fill="#EAF5F7" d="M16 57h1v1h-1z"/><path fill="#F0F8FA" d="M17 57h1v1h-1zM18 57h1v1h-1z"/><path fill="#D2E6EE" d="M19 57h1v1h-1z"/><path fill="#A1D1E1" d="M20 57h1v1h-1zM21 57h1v1h-1zM22 57h1v1h-1zM23 57h1v1h-1zM24 57h1v1h-1zM25 57h1v1h-1zM26 57h1v1h-1zM27 57h1v1h-1zM28 57h1v1h-1zM29 57h1v1h-1zM30 57h1v1h-1zM31 57h1v1h-1zM32 57h1v1h-1zM33 57h1v1h-1zM34 57h1v1h-1z"/><path fill="#A5D3E2" d="M35 57h1v1h-1z"/><path fill="#B1D9E6" d="M36 57h1v1h-1z"/><path fill="#83ABC8" d="M37 57h1v1h-1z"/><path fill="#6E9BBE" d="M38 57h1v1h-1zM39 57h1v1h-1zM40 57h1v1h-1z"/><path fill="#91C0D6" d="M41 57h1v1h-1z"/><path fill="#A1D1E1" d="M42 57h1v1h-1z"/><path fill="#FFF" d="M43 57h1v1h-1zM44 57h1v1h-1zM45 57h1v1h-1zM46 57h1v1h-1zM47 57h1v1h-1zM48 57h1v1h-1zM49 57h1v1h-1zM50 57h1v1h-1zM51 57h1v1h-1z"/><path fill="#B7CDDF" d="M52 57h1v1h-1z"/><path fill="#6E9BBE" d="M53 57h1v1h-1zM54 57h1v1h-1zM55 57h1v1h-1zM56 57h1v1h-1zM57 57h1v1h-1zM58 57h1v1h-1zM59 57h1v1h-1zM60 57h1v1h-1zM61 57h1v1h-1zM62 57h1v1h-1z"/><path fill="#EDF3F7" d="M63 57h1v1h-1z"/><path fill="#FFF" d="M64 57h1v1h-1zM65 57h1v1h-1zM66 57h1v1h-1zM67 57h1v1h-1zM68 57h1v1h-1z"/><path fill="#DCEEF4" d="M69 57h1v1h-1z"/><path fill="#A1D1E1" d="M70 57h1v1h-1zM71 57h1v1h-1z"/><path fill="#88B6D0" d="M72 57h1v1h-1z"/><path fill="#6E9BBE" d="M73 57h1v1h-1zM74 57h1v1h-1zM75 57h1v1h-1zM76 57h1v1h-1zM77 57h1v1h-1z"/><path fill="#36393F" d="M78 57h1v1h-1z"/><path fill="#231815" d="M79 57h1v1h-1zM80 57h1v1h-1zM81 57h1v1h-1zM0 58h1v1H0zM1 58h1v1H1zM2 58h1v1H2z"/><path fill="#524E4D" d="M3 58h1v1H3z"/><path fill="#E0F1F4" d="M4 58h1v1H4zM5 58h1v1H5zM6 58h1v1H6zM7 58h1v1H7zM8 58h1v1H8zM9 58h1v1H9zM10 58h1v1h-1zM11 58h1v1h-1zM12 58h1v1h-1zM13 58h1v1h-1zM14 58h1v1h-1zM15 58h1v1h-1zM16 58h1v1h-1zM17 58h1v1h-1z"/><path fill="#CBE1EA" d="M18 58h1v1h-1z"/><path fill="#75A0C1" d="M19 58h1v1h-1z"/><path fill="#A1D1E1" d="M20 58h1v1h-1zM21 58h1v1h-1zM22 58h1v1h-1zM23 58h1v1h-1zM24 58h1v1h-1zM25 58h1v1h-1zM26 58h1v1h-1zM27 58h1v1h-1zM28 58h1v1h-1zM29 58h1v1h-1z"/><path fill="#A5D3E2" d="M30 58h1v1h-1z"/><path fill="#B1D9E6" d="M31 58h1v1h-1z"/><path fill="#C1E1EB" d="M32 58h1v1h-1z"/><path fill="#CCE7EE" d="M33 58h1v1h-1z"/><path fill="#D8EDF2" d="M34 58h1v1h-1z"/><path fill="#E0F1F4" d="M35 58h1v1h-1zM36 58h1v1h-1z"/><path fill="#B5D1E0" d="M37 58h1v1h-1z"/><path fill="#6E9BBE" d="M38 58h1v1h-1zM39 58h1v1h-1z"/><path fill="#7BA9C7" d="M40 58h1v1h-1z"/><path fill="#A1D1E1" d="M41 58h1v1h-1zM42 58h1v1h-1z"/><path fill="#FFF" d="M43 58h1v1h-1zM44 58h1v1h-1zM45 58h1v1h-1zM46 58h1v1h-1zM47 58h1v1h-1zM48 58h1v1h-1zM49 58h1v1h-1zM50 58h1v1h-1zM51 58h1v1h-1z"/><path fill="#89AECA" d="M52 58h1v1h-1z"/><path fill="#6E9BBE" d="M53 58h1v1h-1zM54 58h1v1h-1zM55 58h1v1h-1zM56 58h1v1h-1zM57 58h1v1h-1zM58 58h1v1h-1zM59 58h1v1h-1zM60 58h1v1h-1zM61 58h1v1h-1zM62 58h1v1h-1z"/><path fill="#A4C1D6" d="M63 58h1v1h-1z"/><path fill="#FFF" d="M64 58h1v1h-1zM65 58h1v1h-1zM66 58h1v1h-1zM67 58h1v1h-1zM68 58h1v1h-1z"/><path fill="#BEDFEA" d="M69 58h1v1h-1z"/><path fill="#A1D1E1" d="M70 58h1v1h-1zM71 58h1v1h-1z"/><path fill="#8EBDD4" d="M72 58h1v1h-1z"/><path fill="#6E9BBE" d="M73 58h1v1h-1zM74 58h1v1h-1zM75 58h1v1h-1zM76 58h1v1h-1zM77 58h1v1h-1z"/><path fill="#3A414A" d="M78 58h1v1h-1z"/><path fill="#231815" d="M79 58h1v1h-1zM80 58h1v1h-1zM81 58h1v1h-1zM0 59h1v1H0zM1 59h1v1H1zM2 59h1v1H2z"/><path fill="#524E4D" d="M3 59h1v1H3z"/><path fill="#E0F1F4" d="M4 59h1v1H4zM5 59h1v1H5zM6 59h1v1H6zM7 59h1v1H7zM8 59h1v1H8zM9 59h1v1H9zM10 59h1v1h-1zM11 59h1v1h-1zM12 59h1v1h-1zM13 59h1v1h-1zM14 59h1v1h-1zM15 59h1v1h-1zM16 59h1v1h-1z"/><path fill="#CBE1EA" d="M17 59h1v1h-1z"/><path fill="#75A0C1" d="M18 59h1v1h-1z"/><path fill="#6E9BBE" d="M19 59h1v1h-1z"/><path fill="#9BCADD" d="M20 59h1v1h-1z"/><path fill="#A1D1E1" d="M21 59h1v1h-1zM22 59h1v1h-1zM23 59h1v1h-1zM24 59h1v1h-1z"/><path fill="#A5D3E2" d="M25 59h1v1h-1z"/><path fill="#B1D9E6" d="M26 59h1v1h-1z"/><path fill="#C1E1EB" d="M27 59h1v1h-1z"/><path fill="#CCE7EE" d="M28 59h1v1h-1z"/><path fill="#D8EDF2" d="M29 59h1v1h-1z"/><path fill="#E0F1F4" d="M30 59h1v1h-1zM31 59h1v1h-1zM32 59h1v1h-1zM33 59h1v1h-1zM34 59h1v1h-1zM35 59h1v1h-1zM36 59h1v1h-1zM37 59h1v1h-1z"/><path fill="#75A0C1" d="M38 59h1v1h-1z"/><path fill="#6E9BBE" d="M39 59h1v1h-1z"/><path fill="#9BCADD" d="M40 59h1v1h-1z"/><path fill="#A1D1E1" d="M41 59h1v1h-1zM42 59h1v1h-1z"/><path fill="#E8F4F8" d="M43 59h1v1h-1z"/><path fill="#FFF" d="M44 59h1v1h-1zM45 59h1v1h-1zM46 59h1v1h-1zM47 59h1v1h-1zM48 59h1v1h-1zM49 59h1v1h-1zM50 59h1v1h-1z"/><path fill="#F6F9FB" d="M51 59h1v1h-1z"/><path fill="#6E9BBE" d="M52 59h1v1h-1zM53 59h1v1h-1zM54 59h1v1h-1zM55 59h1v1h-1zM56 59h1v1h-1zM57 59h1v1h-1zM58 59h1v1h-1zM59 59h1v1h-1zM60 59h1v1h-1zM61 59h1v1h-1zM62 59h1v1h-1zM63 59h1v1h-1z"/><path fill="#EDF3F7" d="M64 59h1v1h-1z"/><path fill="#FFF" d="M65 59h1v1h-1zM66 59h1v1h-1zM67 59h1v1h-1zM68 59h1v1h-1z"/><path fill="#A1D1E1" d="M69 59h1v1h-1zM70 59h1v1h-1zM71 59h1v1h-1z"/><path fill="#94C4D8" d="M72 59h1v1h-1z"/><path fill="#6E9BBE" d="M73 59h1v1h-1zM74 59h1v1h-1zM75 59h1v1h-1zM76 59h1v1h-1zM77 59h1v1h-1z"/><path fill="#495A6A" d="M78 59h1v1h-1z"/><path fill="#231815" d="M79 59h1v1h-1zM80 59h1v1h-1zM81 59h1v1h-1zM0 60h1v1H0zM1 60h1v1H1zM2 60h1v1H2z"/><path fill="#524E4D" d="M3 60h1v1H3z"/><path fill="#E0F1F4" d="M4 60h1v1H4zM5 60h1v1H5zM6 60h1v1H6zM7 60h1v1H7zM8 60h1v1H8zM9 60h1v1H9zM10 60h1v1h-1zM11 60h1v1h-1zM12 60h1v1h-1zM13 60h1v1h-1zM14 60h1v1h-1zM15 60h1v1h-1z"/><path fill="#B5D1E0" d="M16 60h1v1h-1z"/><path fill="#75A0C1" d="M17 60h1v1h-1z"/><path fill="#6E9BBE" d="M18 60h1v1h-1zM19 60h1v1h-1z"/><path fill="#9CC8DB" d="M20 60h1v1h-1z"/><path fill="#B5DBE7" d="M21 60h1v1h-1z"/><path fill="#C1E1EB" d="M22 60h1v1h-1z"/><path fill="#D2EAF0" d="M23 60h1v1h-1z"/><path fill="#D8EDF2" d="M24 60h1v1h-1z"/><path fill="#E0F1F4" d="M25 60h1v1h-1zM26 60h1v1h-1zM27 60h1v1h-1zM28 60h1v1h-1zM29 60h1v1h-1zM30 60h1v1h-1zM31 60h1v1h-1zM32 60h1v1h-1zM33 60h1v1h-1zM34 60h1v1h-1zM35 60h1v1h-1zM36 60h1v1h-1zM37 60h1v1h-1z"/><path fill="#99BBD2" d="M38 60h1v1h-1z"/><path fill="#84B3CD" d="M39 60h1v1h-1z"/><path fill="#A1D1E1" d="M40 60h1v1h-1zM41 60h1v1h-1zM42 60h1v1h-1z"/><path fill="#E8F4F8" d="M43 60h1v1h-1z"/><path fill="#FFF" d="M44 60h1v1h-1zM45 60h1v1h-1zM46 60h1v1h-1zM47 60h1v1h-1zM48 60h1v1h-1zM49 60h1v1h-1zM50 60h1v1h-1z"/><path fill="#D2E0EB" d="M51 60h1v1h-1z"/><path fill="#6E9BBE" d="M52 60h1v1h-1zM53 60h1v1h-1zM54 60h1v1h-1zM55 60h1v1h-1zM56 60h1v1h-1zM57 60h1v1h-1zM58 60h1v1h-1zM59 60h1v1h-1zM60 60h1v1h-1zM61 60h1v1h-1zM62 60h1v1h-1zM63 60h1v1h-1z"/><path fill="#9BBAD2" d="M64 60h1v1h-1z"/><path fill="#FFF" d="M65 60h1v1h-1zM66 60h1v1h-1zM67 60h1v1h-1z"/><path fill="#E2F1F6" d="M68 60h1v1h-1z"/><path fill="#A1D1E1" d="M69 60h1v1h-1zM70 60h1v1h-1zM71 60h1v1h-1zM72 60h1v1h-1z"/><path fill="#6E9BBE" d="M73 60h1v1h-1zM74 60h1v1h-1zM75 60h1v1h-1zM76 60h1v1h-1zM77 60h1v1h-1z"/><path fill="#495A6A" d="M78 60h1v1h-1z"/><path fill="#231815" d="M79 60h1v1h-1zM80 60h1v1h-1zM81 60h1v1h-1zM0 61h1v1H0zM1 61h1v1H1zM2 61h1v1H2z"/><path fill="#524E4D" d="M3 61h1v1H3z"/><path fill="#E0F1F4" d="M4 61h1v1H4zM5 61h1v1H5zM6 61h1v1H6zM7 61h1v1H7zM8 61h1v1H8zM9 61h1v1H9zM10 61h1v1h-1zM11 61h1v1h-1zM12 61h1v1h-1zM13 61h1v1h-1zM14 61h1v1h-1z"/><path fill="#B5D1E0" d="M15 61h1v1h-1z"/><path fill="#6E9BBE" d="M16 61h1v1h-1zM17 61h1v1h-1zM18 61h1v1h-1zM19 61h1v1h-1z"/><path fill="#F1F9FA" d="M20 61h1v1h-1z"/><path fill="#E4F3F5" d="M21 61h1v1h-1z"/><path fill="#E0F1F4" d="M22 61h1v1h-1zM23 61h1v1h-1zM24 61h1v1h-1zM25 61h1v1h-1zM26 61h1v1h-1zM27 61h1v1h-1zM28 61h1v1h-1zM29 61h1v1h-1zM30 61h1v1h-1zM31 61h1v1h-1zM32 61h1v1h-1zM33 61h1v1h-1zM34 61h1v1h-1zM35 61h1v1h-1zM36 61h1v1h-1zM37 61h1v1h-1z"/><path fill="#C7DFE9" d="M38 61h1v1h-1z"/><path fill="#9ECEDF" d="M39 61h1v1h-1z"/><path fill="#A1D1E1" d="M40 61h1v1h-1zM41 61h1v1h-1zM42 61h1v1h-1z"/><path fill="#E8F4F8" d="M43 61h1v1h-1z"/><path fill="#FFF" d="M44 61h1v1h-1zM45 61h1v1h-1zM46 61h1v1h-1zM47 61h1v1h-1zM48 61h1v1h-1zM49 61h1v1h-1zM50 61h1v1h-1z"/><path fill="#ADC7DA" d="M51 61h1v1h-1z"/><path fill="#6E9BBE" d="M52 61h1v1h-1zM53 61h1v1h-1zM54 61h1v1h-1zM55 61h1v1h-1zM56 61h1v1h-1zM57 61h1v1h-1zM58 61h1v1h-1zM59 61h1v1h-1zM60 61h1v1h-1zM61 61h1v1h-1zM62 61h1v1h-1zM63 61h1v1h-1zM64 61h1v1h-1z"/><path fill="#DBE6EF" d="M65 61h1v1h-1z"/><path fill="#FFF" d="M66 61h1v1h-1zM67 61h1v1h-1z"/><path fill="#C4E2EC" d="M68 61h1v1h-1z"/><path fill="#A1D1E1" d="M69 61h1v1h-1zM70 61h1v1h-1zM71 61h1v1h-1zM72 61h1v1h-1z"/><path fill="#74A2C2" d="M73 61h1v1h-1z"/><path fill="#6E9BBE" d="M74 61h1v1h-1zM75 61h1v1h-1zM76 61h1v1h-1zM77 61h1v1h-1z"/><path fill="#495A6A" d="M78 61h1v1h-1z"/><path fill="#231815" d="M79 61h1v1h-1zM80 61h1v1h-1zM81 61h1v1h-1zM0 62h1v1H0zM1 62h1v1H1zM2 62h1v1H2z"/><path fill="#524E4D" d="M3 62h1v1H3z"/><path fill="#E0F1F4" d="M4 62h1v1H4zM5 62h1v1H5zM6 62h1v1H6zM7 62h1v1H7zM8 62h1v1H8zM9 62h1v1H9zM10 62h1v1h-1zM11 62h1v1h-1zM12 62h1v1h-1zM13 62h1v1h-1z"/><path fill="#B5D1E0" d="M14 62h1v1h-1z"/><path fill="#6E9BBE" d="M15 62h1v1h-1zM16 62h1v1h-1zM17 62h1v1h-1zM18 62h1v1h-1zM19 62h1v1h-1z"/><path fill="#FFF" d="M20 62h1v1h-1zM21 62h1v1h-1z"/><path fill="#F3FAFB" d="M22 62h1v1h-1z"/><path fill="#E4F3F5" d="M23 62h1v1h-1z"/><path fill="#E0F1F4" d="M24 62h1v1h-1zM25 62h1v1h-1zM26 62h1v1h-1zM27 62h1v1h-1zM28 62h1v1h-1zM29 62h1v1h-1zM30 62h1v1h-1zM31 62h1v1h-1zM32 62h1v1h-1zM33 62h1v1h-1zM34 62h1v1h-1zM35 62h1v1h-1zM36 62h1v1h-1zM37 62h1v1h-1z"/><path fill="#A6C9DB" d="M38 62h1v1h-1z"/><path fill="#A1D1E1" d="M39 62h1v1h-1zM40 62h1v1h-1zM41 62h1v1h-1zM42 62h1v1h-1z"/><path fill="#D0E8F0" d="M43 62h1v1h-1z"/><path fill="#FFF" d="M44 62h1v1h-1zM45 62h1v1h-1zM46 62h1v1h-1zM47 62h1v1h-1zM48 62h1v1h-1zM49 62h1v1h-1zM50 62h1v1h-1z"/><path fill="#80A8C6" d="M51 62h1v1h-1z"/><path fill="#6E9BBE" d="M52 62h1v1h-1zM53 62h1v1h-1zM54 62h1v1h-1zM55 62h1v1h-1zM56 62h1v1h-1zM57 62h1v1h-1zM58 62h1v1h-1zM59 62h1v1h-1zM60 62h1v1h-1zM61 62h1v1h-1zM62 62h1v1h-1zM63 62h1v1h-1zM64 62h1v1h-1z"/><path fill="#92B4CE" d="M65 62h1v1h-1z"/><path fill="#FFF" d="M66 62h1v1h-1zM67 62h1v1h-1z"/><path fill="#A7D4E3" d="M68 62h1v1h-1z"/><path fill="#A1D1E1" d="M69 62h1v1h-1zM70 62h1v1h-1zM71 62h1v1h-1zM72 62h1v1h-1z"/><path fill="#7BA9C7" d="M73 62h1v1h-1z"/><path fill="#6E9BBE" d="M74 62h1v1h-1zM75 62h1v1h-1zM76 62h1v1h-1zM77 62h1v1h-1z"/><path fill="#495A6A" d="M78 62h1v1h-1z"/><path fill="#231815" d="M79 62h1v1h-1zM80 62h1v1h-1zM81 62h1v1h-1zM0 63h1v1H0zM1 63h1v1H1zM2 63h1v1H2z"/><path fill="#524E4D" d="M3 63h1v1H3z"/><path fill="#E0F1F4" d="M4 63h1v1H4zM5 63h1v1H5zM6 63h1v1H6zM7 63h1v1H7zM8 63h1v1H8zM9 63h1v1H9zM10 63h1v1h-1zM11 63h1v1h-1zM12 63h1v1h-1z"/><path fill="#B5D1E0" d="M13 63h1v1h-1z"/><path fill="#6E9BBE" d="M14 63h1v1h-1zM15 63h1v1h-1zM16 63h1v1h-1zM17 63h1v1h-1zM18 63h1v1h-1zM19 63h1v1h-1z"/><path fill="#FFF" d="M20 63h1v1h-1zM21 63h1v1h-1zM22 63h1v1h-1zM23 63h1v1h-1z"/><path fill="#F3FAFB" d="M24 63h1v1h-1z"/><path fill="#E4F3F5" d="M25 63h1v1h-1z"/><path fill="#E0F1F4" d="M26 63h1v1h-1zM27 63h1v1h-1zM28 63h1v1h-1zM29 63h1v1h-1zM30 63h1v1h-1zM31 63h1v1h-1zM32 63h1v1h-1zM33 63h1v1h-1zM34 63h1v1h-1zM35 63h1v1h-1zM36 63h1v1h-1z"/><path fill="#D2E6ED" d="M37 63h1v1h-1z"/><path fill="#7BA9C7" d="M38 63h1v1h-1z"/><path fill="#A1D1E1" d="M39 63h1v1h-1zM40 63h1v1h-1zM41 63h1v1h-1zM42 63h1v1h-1z"/><path fill="#D0E8F0" d="M43 63h1v1h-1z"/><path fill="#FFF" d="M44 63h1v1h-1zM45 63h1v1h-1zM46 63h1v1h-1zM47 63h1v1h-1zM48 63h1v1h-1zM49 63h1v1h-1z"/><path fill="#F3F9FB" d="M50 63h1v1h-1z"/><path fill="#719EC0" d="M51 63h1v1h-1z"/><path fill="#6E9BBE" d="M52 63h1v1h-1zM53 63h1v1h-1zM54 63h1v1h-1zM55 63h1v1h-1zM56 63h1v1h-1zM57 63h1v1h-1zM58 63h1v1h-1zM59 63h1v1h-1zM60 63h1v1h-1zM61 63h1v1h-1zM62 63h1v1h-1zM63 63h1v1h-1zM64 63h1v1h-1zM65 63h1v1h-1z"/><path fill="#DBE6EF" d="M66 63h1v1h-1z"/><path fill="#E2F1F6" d="M67 63h1v1h-1z"/><path fill="#A1D1E1" d="M68 63h1v1h-1zM69 63h1v1h-1zM70 63h1v1h-1zM71 63h1v1h-1zM72 63h1v1h-1z"/><path fill="#88B6D0" d="M73 63h1v1h-1z"/><path fill="#6E9BBE" d="M74 63h1v1h-1zM75 63h1v1h-1zM76 63h1v1h-1zM77 63h1v1h-1z"/><path fill="#5B7A94" d="M78 63h1v1h-1z"/><path fill="#231815" d="M79 63h1v1h-1zM80 63h1v1h-1zM81 63h1v1h-1zM0 64h1v1H0zM1 64h1v1H1zM2 64h1v1H2z"/><path fill="#524E4D" d="M3 64h1v1H3z"/><path fill="#E0F1F4" d="M4 64h1v1H4zM5 64h1v1H5zM6 64h1v1H6zM7 64h1v1H7zM8 64h1v1H8zM9 64h1v1H9zM10 64h1v1h-1zM11 64h1v1h-1z"/><path fill="#B5D1E0" d="M12 64h1v1h-1z"/><path fill="#6E9BBE" d="M13 64h1v1h-1zM14 64h1v1h-1zM15 64h1v1h-1zM16 64h1v1h-1zM17 64h1v1h-1zM18 64h1v1h-1zM19 64h1v1h-1z"/><path fill="#FFF" d="M20 64h1v1h-1zM21 64h1v1h-1zM22 64h1v1h-1zM23 64h1v1h-1zM24 64h1v1h-1zM25 64h1v1h-1z"/><path fill="#F5FBFC" d="M26 64h1v1h-1z"/><path fill="#E8F5F7" d="M27 64h1v1h-1z"/><path fill="#E0F1F4" d="M28 64h1v1h-1zM29 64h1v1h-1zM30 64h1v1h-1zM31 64h1v1h-1zM32 64h1v1h-1zM33 64h1v1h-1zM34 64h1v1h-1zM35 64h1v1h-1zM36 64h1v1h-1z"/><path fill="#99BBD2" d="M37 64h1v1h-1z"/><path fill="#7BA9C7" d="M38 64h1v1h-1z"/><path fill="#A1D1E1" d="M39 64h1v1h-1zM40 64h1v1h-1zM41 64h1v1h-1zM42 64h1v1h-1z"/><path fill="#CAE5EE" d="M43 64h1v1h-1z"/><path fill="#FFF" d="M44 64h1v1h-1zM45 64h1v1h-1zM46 64h1v1h-1zM47 64h1v1h-1zM48 64h1v1h-1zM49 64h1v1h-1z"/><path fill="#D6EBF2" d="M50 64h1v1h-1z"/><path fill="#97C7DA" d="M51 64h1v1h-1z"/><path fill="#719EC0" d="M52 64h1v1h-1z"/><path fill="#6E9BBE" d="M53 64h1v1h-1zM54 64h1v1h-1zM55 64h1v1h-1zM56 64h1v1h-1zM57 64h1v1h-1zM58 64h1v1h-1zM59 64h1v1h-1zM60 64h1v1h-1zM61 64h1v1h-1zM62 64h1v1h-1zM63 64h1v1h-1zM64 64h1v1h-1zM65 64h1v1h-1z"/><path fill="#7CA5C4" d="M66 64h1v1h-1z"/><path fill="#B0D4E2" d="M67 64h1v1h-1z"/><path fill="#A1D1E1" d="M68 64h1v1h-1zM69 64h1v1h-1zM70 64h1v1h-1zM71 64h1v1h-1zM72 64h1v1h-1z"/><path fill="#8EBDD4" d="M73 64h1v1h-1z"/><path fill="#6E9BBE" d="M74 64h1v1h-1zM75 64h1v1h-1zM76 64h1v1h-1zM77 64h1v1h-1z"/><path fill="#5B7A94" d="M78 64h1v1h-1z"/><path fill="#231815" d="M79 64h1v1h-1zM80 64h1v1h-1zM81 64h1v1h-1zM0 65h1v1H0zM1 65h1v1H1zM2 65h1v1H2z"/><path fill="#524E4D" d="M3 65h1v1H3z"/><path fill="#E0F1F4" d="M4 65h1v1H4zM5 65h1v1H5zM6 65h1v1H6zM7 65h1v1H7zM8 65h1v1H8zM9 65h1v1H9zM10 65h1v1h-1z"/><path fill="#B5D1E0" d="M11 65h1v1h-1z"/><path fill="#6E9BBE" d="M12 65h1v1h-1zM13 65h1v1h-1zM14 65h1v1h-1zM15 65h1v1h-1zM16 65h1v1h-1zM17 65h1v1h-1zM18 65h1v1h-1zM19 65h1v1h-1z"/><path fill="#FFF" d="M20 65h1v1h-1zM21 65h1v1h-1zM22 65h1v1h-1zM23 65h1v1h-1zM24 65h1v1h-1zM25 65h1v1h-1zM26 65h1v1h-1zM27 65h1v1h-1z"/><path fill="#F7FCFC" d="M28 65h1v1h-1z"/><path fill="#E8F5F7" d="M29 65h1v1h-1z"/><path fill="#E0F1F4" d="M30 65h1v1h-1zM31 65h1v1h-1zM32 65h1v1h-1zM33 65h1v1h-1zM34 65h1v1h-1zM35 65h1v1h-1z"/><path fill="#DBEDF1" d="M36 65h1v1h-1z"/><path fill="#6E9BBE" d="M37 65h1v1h-1z"/><path fill="#7BA9C7" d="M38 65h1v1h-1z"/><path fill="#A1D1E1" d="M39 65h1v1h-1zM40 65h1v1h-1zM41 65h1v1h-1zM42 65h1v1h-1z"/><path fill="#B9DDE9" d="M43 65h1v1h-1z"/><path fill="#FFF" d="M44 65h1v1h-1zM45 65h1v1h-1zM46 65h1v1h-1zM47 65h1v1h-1zM48 65h1v1h-1zM49 65h1v1h-1z"/><path fill="#B3DAE7" d="M50 65h1v1h-1z"/><path fill="#A1D1E1" d="M51 65h1v1h-1z"/><path fill="#97C7DA" d="M52 65h1v1h-1z"/><path fill="#6E9BBE" d="M53 65h1v1h-1zM54 65h1v1h-1zM55 65h1v1h-1zM56 65h1v1h-1zM57 65h1v1h-1zM58 65h1v1h-1zM59 65h1v1h-1zM60 65h1v1h-1zM61 65h1v1h-1zM62 65h1v1h-1zM63 65h1v1h-1zM64 65h1v1h-1zM65 65h1v1h-1z"/><path fill="#568CB1" d="M66 65h1v1h-1z"/><path fill="#34789F" d="M67 65h1v1h-1z"/><path fill="#9ACBDD" d="M68 65h1v1h-1z"/><path fill="#A1D1E1" d="M69 65h1v1h-1zM70 65h1v1h-1zM71 65h1v1h-1zM72 65h1v1h-1z"/><path fill="#94C4D8" d="M73 65h1v1h-1z"/><path fill="#6E9BBE" d="M74 65h1v1h-1zM75 65h1v1h-1zM76 65h1v1h-1zM77 65h1v1h-1z"/><path fill="#5B7A94" d="M78 65h1v1h-1z"/><path fill="#231815" d="M79 65h1v1h-1zM80 65h1v1h-1zM81 65h1v1h-1zM0 66h1v1H0zM1 66h1v1H1zM2 66h1v1H2z"/><path fill="#524E4D" d="M3 66h1v1H3z"/><path fill="#E0F1F4" d="M4 66h1v1H4zM5 66h1v1H5zM6 66h1v1H6zM7 66h1v1H7zM8 66h1v1H8zM9 66h1v1H9z"/><path fill="#B5D1E0" d="M10 66h1v1h-1z"/><path fill="#6E9BBE" d="M11 66h1v1h-1zM12 66h1v1h-1zM13 66h1v1h-1zM14 66h1v1h-1zM15 66h1v1h-1zM16 66h1v1h-1zM17 66h1v1h-1zM18 66h1v1h-1zM19 66h1v1h-1z"/><path fill="#FFF" d="M20 66h1v1h-1zM21 66h1v1h-1zM22 66h1v1h-1zM23 66h1v1h-1zM24 66h1v1h-1zM25 66h1v1h-1zM26 66h1v1h-1zM27 66h1v1h-1zM28 66h1v1h-1zM29 66h1v1h-1z"/><path fill="#F7FCFC" d="M30 66h1v1h-1z"/><path fill="#E8F5F7" d="M31 66h1v1h-1z"/><path fill="#E0F1F4" d="M32 66h1v1h-1zM33 66h1v1h-1zM34 66h1v1h-1zM35 66h1v1h-1z"/><path fill="#A7C6D9" d="M36 66h1v1h-1z"/><path fill="#6E9BBE" d="M37 66h1v1h-1z"/><path fill="#7BA9C7" d="M38 66h1v1h-1z"/><path fill="#A1D1E1" d="M39 66h1v1h-1zM40 66h1v1h-1zM41 66h1v1h-1zM42 66h1v1h-1z"/><path fill="#B9DDE9" d="M43 66h1v1h-1z"/><path fill="#FFF" d="M44 66h1v1h-1zM45 66h1v1h-1zM46 66h1v1h-1zM47 66h1v1h-1zM48 66h1v1h-1z"/><path fill="#EDF3F7" d="M49 66h1v1h-1z"/><path fill="#9BCADD" d="M50 66h1v1h-1z"/><path fill="#A1D1E1" d="M51 66h1v1h-1zM52 66h1v1h-1z"/><path fill="#8EBDD4" d="M53 66h1v1h-1z"/><path fill="#6E9BBE" d="M54 66h1v1h-1zM55 66h1v1h-1zM56 66h1v1h-1zM57 66h1v1h-1zM58 66h1v1h-1zM59 66h1v1h-1zM60 66h1v1h-1zM61 66h1v1h-1zM62 66h1v1h-1zM63 66h1v1h-1zM64 66h1v1h-1zM65 66h1v1h-1z"/><path fill="#35779F" d="M66 66h1v1h-1z"/><path fill="#2D729B" d="M67 66h1v1h-1z"/><path fill="#4384A8" d="M68 66h1v1h-1z"/><path fill="#A1D1E1" d="M69 66h1v1h-1zM70 66h1v1h-1zM71 66h1v1h-1zM72 66h1v1h-1zM73 66h1v1h-1z"/><path fill="#6E9BBE" d="M74 66h1v1h-1zM75 66h1v1h-1zM76 66h1v1h-1zM77 66h1v1h-1z"/><path fill="#5B7A94" d="M78 66h1v1h-1z"/><path fill="#231815" d="M79 66h1v1h-1zM80 66h1v1h-1zM81 66h1v1h-1zM0 67h1v1H0zM1 67h1v1H1zM2 67h1v1H2z"/><path fill="#524E4D" d="M3 67h1v1H3z"/><path fill="#E0F1F4" d="M4 67h1v1H4zM5 67h1v1H5zM6 67h1v1H6zM7 67h1v1H7zM8 67h1v1H8z"/><path fill="#B5D1E0" d="M9 67h1v1H9z"/><path fill="#6E9BBE" d="M10 67h1v1h-1zM11 67h1v1h-1zM12 67h1v1h-1zM13 67h1v1h-1zM14 67h1v1h-1zM15 67h1v1h-1zM16 67h1v1h-1zM17 67h1v1h-1zM18 67h1v1h-1zM19 67h1v1h-1z"/><path fill="#FFF" d="M20 67h1v1h-1zM21 67h1v1h-1zM22 67h1v1h-1zM23 67h1v1h-1zM24 67h1v1h-1zM25 67h1v1h-1zM26 67h1v1h-1zM27 67h1v1h-1zM28 67h1v1h-1zM29 67h1v1h-1zM30 67h1v1h-1zM31 67h1v1h-1z"/><path fill="#FBFDFE" d="M32 67h1v1h-1z"/><path fill="#ECF6F8" d="M33 67h1v1h-1z"/><path fill="#E0F1F4" d="M34 67h1v1h-1z"/><path fill="#D9ECF1" d="M35 67h1v1h-1z"/><path fill="#75A0C1" d="M36 67h1v1h-1z"/><path fill="#6E9BBE" d="M37 67h1v1h-1z"/><path fill="#84B3CD" d="M38 67h1v1h-1z"/><path fill="#A1D1E1" d="M39 67h1v1h-1zM40 67h1v1h-1zM41 67h1v1h-1zM42 67h1v1h-1z"/><path fill="#A7D4E3" d="M43 67h1v1h-1z"/><path fill="#FFF" d="M44 67h1v1h-1zM45 67h1v1h-1zM46 67h1v1h-1zM47 67h1v1h-1zM48 67h1v1h-1z"/><path fill="#C0D3E3" d="M49 67h1v1h-1z"/><path fill="#8BB9D2" d="M50 67h1v1h-1z"/><path fill="#A1D1E1" d="M51 67h1v1h-1zM52 67h1v1h-1zM53 67h1v1h-1z"/><path fill="#8EBDD4" d="M54 67h1v1h-1z"/><path fill="#6E9BBE" d="M55 67h1v1h-1zM56 67h1v1h-1zM57 67h1v1h-1zM58 67h1v1h-1zM59 67h1v1h-1zM60 67h1v1h-1zM61 67h1v1h-1zM62 67h1v1h-1zM63 67h1v1h-1zM64 67h1v1h-1z"/><path fill="#5E91B5" d="M65 67h1v1h-1z"/><path fill="#2D729B" d="M66 67h1v1h-1zM67 67h1v1h-1zM68 67h1v1h-1z"/><path fill="#609CBA" d="M69 67h1v1h-1z"/><path fill="#A1D1E1" d="M70 67h1v1h-1zM71 67h1v1h-1zM72 67h1v1h-1zM73 67h1v1h-1z"/><path fill="#78A5C5" d="M74 67h1v1h-1z"/><path fill="#6E9BBE" d="M75 67h1v1h-1zM76 67h1v1h-1zM77 67h1v1h-1z"/><path fill="#6993B3" d="M78 67h1v1h-1z"/><path fill="#231815" d="M79 67h1v1h-1zM80 67h1v1h-1zM81 67h1v1h-1zM82 67h1v1h-1zM0 68h1v1H0zM1 68h1v1H1zM2 68h1v1H2z"/><path fill="#6A6969" d="M3 68h1v1H3z"/><path fill="#E0F1F4" d="M4 68h1v1H4zM5 68h1v1H5zM6 68h1v1H6zM7 68h1v1H7z"/><path fill="#B5D1E0" d="M8 68h1v1H8z"/><path fill="#6E9BBE" d="M9 68h1v1H9zM10 68h1v1h-1zM11 68h1v1h-1zM12 68h1v1h-1zM13 68h1v1h-1zM14 68h1v1h-1zM15 68h1v1h-1zM16 68h1v1h-1zM17 68h1v1h-1zM18 68h1v1h-1zM19 68h1v1h-1z"/><path fill="#FFF" d="M20 68h1v1h-1zM21 68h1v1h-1zM22 68h1v1h-1zM23 68h1v1h-1zM24 68h1v1h-1zM25 68h1v1h-1zM26 68h1v1h-1zM27 68h1v1h-1zM28 68h1v1h-1zM29 68h1v1h-1zM30 68h1v1h-1zM31 68h1v1h-1zM32 68h1v1h-1zM33 68h1v1h-1z"/><path fill="#FBFDFE" d="M34 68h1v1h-1z"/><path fill="#A4C2D7" d="M35 68h1v1h-1z"/><path fill="#6E9BBE" d="M36 68h1v1h-1zM37 68h1v1h-1z"/><path fill="#88B6D0" d="M38 68h1v1h-1z"/><path fill="#A1D1E1" d="M39 68h1v1h-1zM40 68h1v1h-1zM41 68h1v1h-1zM42 68h1v1h-1zM43 68h1v1h-1z"/><path fill="#FFF" d="M44 68h1v1h-1zM45 68h1v1h-1zM46 68h1v1h-1zM47 68h1v1h-1zM48 68h1v1h-1z"/><path fill="#89AECA" d="M49 68h1v1h-1z"/><path fill="#78A5C5" d="M50 68h1v1h-1z"/><path fill="#A1D1E1" d="M51 68h1v1h-1zM52 68h1v1h-1zM53 68h1v1h-1zM54 68h1v1h-1z"/><path fill="#81AFCB" d="M55 68h1v1h-1z"/><path fill="#6E9BBE" d="M56 68h1v1h-1zM57 68h1v1h-1zM58 68h1v1h-1zM59 68h1v1h-1zM60 68h1v1h-1zM61 68h1v1h-1zM62 68h1v1h-1zM63 68h1v1h-1zM64 68h1v1h-1z"/><path fill="#3D7CA4" d="M65 68h1v1h-1z"/><path fill="#2D729B" d="M66 68h1v1h-1zM67 68h1v1h-1zM68 68h1v1h-1zM69 68h1v1h-1z"/><path fill="#76ADC7" d="M70 68h1v1h-1z"/><path fill="#A1D1E1" d="M71 68h1v1h-1zM72 68h1v1h-1zM73 68h1v1h-1z"/><path fill="#7EACC9" d="M74 68h1v1h-1z"/><path fill="#6E9BBE" d="M75 68h1v1h-1zM76 68h1v1h-1zM77 68h1v1h-1zM78 68h1v1h-1z"/><path fill="#231815" d="M79 68h1v1h-1zM80 68h1v1h-1zM81 68h1v1h-1zM82 68h1v1h-1zM0 69h1v1H0zM1 69h1v1H1zM2 69h1v1H2z"/><path fill="#828585" d="M3 69h1v1H3z"/><path fill="#E0F1F4" d="M4 69h1v1H4zM5 69h1v1H5zM6 69h1v1H6z"/><path fill="#B5D1E0" d="M7 69h1v1H7z"/><path fill="#6E9BBE" d="M8 69h1v1H8zM9 69h1v1H9zM10 69h1v1h-1zM11 69h1v1h-1zM12 69h1v1h-1zM13 69h1v1h-1zM14 69h1v1h-1zM15 69h1v1h-1zM16 69h1v1h-1zM17 69h1v1h-1zM18 69h1v1h-1zM19 69h1v1h-1z"/><path fill="#DBE6EF" d="M20 69h1v1h-1z"/><path fill="#FFF" d="M21 69h1v1h-1zM22 69h1v1h-1zM23 69h1v1h-1zM24 69h1v1h-1zM25 69h1v1h-1zM26 69h1v1h-1zM27 69h1v1h-1zM28 69h1v1h-1zM29 69h1v1h-1zM30 69h1v1h-1zM31 69h1v1h-1zM32 69h1v1h-1zM33 69h1v1h-1z"/><path fill="#C9DAE7" d="M34 69h1v1h-1z"/><path fill="#6E9BBE" d="M35 69h1v1h-1zM36 69h1v1h-1zM37 69h1v1h-1z"/><path fill="#88B6D0" d="M38 69h1v1h-1z"/><path fill="#A1D1E1" d="M39 69h1v1h-1zM40 69h1v1h-1zM41 69h1v1h-1zM42 69h1v1h-1zM43 69h1v1h-1z"/><path fill="#EDF6F9" d="M44 69h1v1h-1z"/><path fill="#FFF" d="M45 69h1v1h-1zM46 69h1v1h-1zM47 69h1v1h-1z"/><path fill="#EDF3F7" d="M48 69h1v1h-1z"/><path fill="#6E9BBE" d="M49 69h1v1h-1zM50 69h1v1h-1z"/><path fill="#9BCADD" d="M51 69h1v1h-1z"/><path fill="#A1D1E1" d="M52 69h1v1h-1zM53 69h1v1h-1zM54 69h1v1h-1zM55 69h1v1h-1z"/><path fill="#81AFCB" d="M56 69h1v1h-1z"/><path fill="#6E9BBE" d="M57 69h1v1h-1zM58 69h1v1h-1zM59 69h1v1h-1zM60 69h1v1h-1zM61 69h1v1h-1zM62 69h1v1h-1zM63 69h1v1h-1z"/><path fill="#6696BA" d="M64 69h1v1h-1z"/><path fill="#2D729B" d="M65 69h1v1h-1zM66 69h1v1h-1zM67 69h1v1h-1zM68 69h1v1h-1zM69 69h1v1h-1z"/><path fill="#34789F" d="M70 69h1v1h-1z"/><path fill="#8BBFD4" d="M71 69h1v1h-1z"/><path fill="#A1D1E1" d="M72 69h1v1h-1zM73 69h1v1h-1z"/><path fill="#88B6D0" d="M74 69h1v1h-1z"/><path fill="#6E9BBE" d="M75 69h1v1h-1zM76 69h1v1h-1zM77 69h1v1h-1zM78 69h1v1h-1z"/><path fill="#231815" d="M79 69h1v1h-1zM80 69h1v1h-1zM81 69h1v1h-1zM82 69h1v1h-1zM0 70h1v1H0zM1 70h1v1H1zM2 70h1v1H2z"/><path fill="#828585" d="M3 70h1v1H3z"/><path fill="#E0F1F4" d="M4 70h1v1H4zM5 70h1v1H5z"/><path fill="#B5D1E0" d="M6 70h1v1H6z"/><path fill="#6E9BBE" d="M7 70h1v1H7zM8 70h1v1H8zM9 70h1v1H9zM10 70h1v1h-1zM11 70h1v1h-1zM12 70h1v1h-1zM13 70h1v1h-1zM14 70h1v1h-1zM15 70h1v1h-1zM16 70h1v1h-1zM17 70h1v1h-1zM18 70h1v1h-1zM19 70h1v1h-1z"/><path fill="#DBE6EF" d="M20 70h1v1h-1z"/><path fill="#FFF" d="M21 70h1v1h-1zM22 70h1v1h-1zM23 70h1v1h-1zM24 70h1v1h-1zM25 70h1v1h-1zM26 70h1v1h-1zM27 70h1v1h-1zM28 70h1v1h-1zM29 70h1v1h-1zM30 70h1v1h-1zM31 70h1v1h-1zM32 70h1v1h-1z"/><path fill="#E4ECF3" d="M33 70h1v1h-1z"/><path fill="#77A1C2" d="M34 70h1v1h-1z"/><path fill="#6E9BBE" d="M35 70h1v1h-1zM36 70h1v1h-1zM37 70h1v1h-1z"/><path fill="#88B6D0" d="M38 70h1v1h-1z"/><path fill="#A1D1E1" d="M39 70h1v1h-1zM40 70h1v1h-1zM41 70h1v1h-1zM42 70h1v1h-1zM43 70h1v1h-1z"/><path fill="#E8F4F8" d="M44 70h1v1h-1z"/><path fill="#FFF" d="M45 70h1v1h-1zM46 70h1v1h-1zM47 70h1v1h-1z"/><path fill="#ADC7DA" d="M48 70h1v1h-1z"/><path fill="#6E9BBE" d="M49 70h1v1h-1zM50 70h1v1h-1z"/><path fill="#8BB9D2" d="M51 70h1v1h-1z"/><path fill="#A1D1E1" d="M52 70h1v1h-1zM53 70h1v1h-1zM54 70h1v1h-1zM55 70h1v1h-1z"/><path fill="#9ECEDF" d="M56 70h1v1h-1z"/><path fill="#78A5C5" d="M57 70h1v1h-1z"/><path fill="#6E9BBE" d="M58 70h1v1h-1zM59 70h1v1h-1zM60 70h1v1h-1zM61 70h1v1h-1zM62 70h1v1h-1zM63 70h1v1h-1z"/><path fill="#3D7CA4" d="M64 70h1v1h-1z"/><path fill="#2D729B" d="M65 70h1v1h-1zM66 70h1v1h-1zM67 70h1v1h-1zM68 70h1v1h-1zM69 70h1v1h-1zM70 70h1v1h-1z"/><path fill="#5190B1" d="M71 70h1v1h-1z"/><path fill="#A1D1E1" d="M72 70h1v1h-1zM73 70h1v1h-1z"/><path fill="#91C0D6" d="M74 70h1v1h-1z"/><path fill="#6E9BBE" d="M75 70h1v1h-1zM76 70h1v1h-1zM77 70h1v1h-1zM78 70h1v1h-1z"/><path fill="#231815" d="M79 70h1v1h-1zM80 70h1v1h-1zM81 70h1v1h-1zM82 70h1v1h-1zM0 71h1v1H0zM1 71h1v1H1zM2 71h1v1H2z"/><path fill="#828585" d="M3 71h1v1H3z"/><path fill="#E0F1F4" d="M4 71h1v1H4z"/><path fill="#B5D1E0" d="M5 71h1v1H5z"/><path fill="#6E9BBE" d="M6 71h1v1H6zM7 71h1v1H7zM8 71h1v1H8zM9 71h1v1H9zM10 71h1v1h-1zM11 71h1v1h-1zM12 71h1v1h-1zM13 71h1v1h-1zM14 71h1v1h-1zM15 71h1v1h-1zM16 71h1v1h-1zM17 71h1v1h-1zM18 71h1v1h-1zM19 71h1v1h-1z"/><path fill="#DBE6EF" d="M20 71h1v1h-1z"/><path fill="#FFF" d="M21 71h1v1h-1zM22 71h1v1h-1zM23 71h1v1h-1zM24 71h1v1h-1zM25 71h1v1h-1zM26 71h1v1h-1zM27 71h1v1h-1zM28 71h1v1h-1zM29 71h1v1h-1zM30 71h1v1h-1zM31 71h1v1h-1z"/><path fill="#F6F9FB" d="M32 71h1v1h-1z"/><path fill="#80A8C6" d="M33 71h1v1h-1z"/><path fill="#6E9BBE" d="M34 71h1v1h-1zM35 71h1v1h-1zM36 71h1v1h-1zM37 71h1v1h-1z"/><path fill="#88B6D0" d="M38 71h1v1h-1z"/><path fill="#A1D1E1" d="M39 71h1v1h-1zM40 71h1v1h-1zM41 71h1v1h-1zM42 71h1v1h-1zM43 71h1v1h-1z"/><path fill="#D6EBF2" d="M44 71h1v1h-1z"/><path fill="#FFF" d="M45 71h1v1h-1zM46 71h1v1h-1zM47 71h1v1h-1z"/><path fill="#77A1C2" d="M48 71h1v1h-1z"/><path fill="#6E9BBE" d="M49 71h1v1h-1zM50 71h1v1h-1z"/><path fill="#78A5C5" d="M51 71h1v1h-1z"/><path fill="#A1D1E1" d="M52 71h1v1h-1zM53 71h1v1h-1zM54 71h1v1h-1zM55 71h1v1h-1zM56 71h1v1h-1z"/><path fill="#9ECEDF" d="M57 71h1v1h-1z"/><path fill="#74A2C2" d="M58 71h1v1h-1z"/><path fill="#6E9BBE" d="M59 71h1v1h-1zM60 71h1v1h-1zM61 71h1v1h-1zM62 71h1v1h-1z"/><path fill="#4E87AD" d="M63 71h1v1h-1z"/><path fill="#2D729B" d="M64 71h1v1h-1zM65 71h1v1h-1zM66 71h1v1h-1zM67 71h1v1h-1zM68 71h1v1h-1zM69 71h1v1h-1zM70 71h1v1h-1z"/><path fill="#4A8AAD" d="M71 71h1v1h-1z"/><path fill="#A1D1E1" d="M72 71h1v1h-1zM73 71h1v1h-1z"/><path fill="#97C7DA" d="M74 71h1v1h-1z"/><path fill="#6E9BBE" d="M75 71h1v1h-1zM76 71h1v1h-1zM77 71h1v1h-1zM78 71h1v1h-1z"/><path fill="#2C282A" d="M79 71h1v1h-1z"/><path fill="#231815" d="M80 71h1v1h-1zM81 71h1v1h-1zM82 71h1v1h-1zM0 72h1v1H0zM1 72h1v1H1zM2 72h1v1H2z"/><path fill="#828585" d="M3 72h1v1H3z"/><path fill="#B5D1E0" d="M4 72h1v1H4z"/><path fill="#6E9BBE" d="M5 72h1v1H5zM6 72h1v1H6zM7 72h1v1H7zM8 72h1v1H8zM9 72h1v1H9zM10 72h1v1h-1zM11 72h1v1h-1zM12 72h1v1h-1zM13 72h1v1h-1zM14 72h1v1h-1zM15 72h1v1h-1zM16 72h1v1h-1zM17 72h1v1h-1zM18 72h1v1h-1zM19 72h1v1h-1z"/><path fill="#DBE6EF" d="M20 72h1v1h-1z"/><path fill="#FFF" d="M21 72h1v1h-1zM22 72h1v1h-1zM23 72h1v1h-1zM24 72h1v1h-1zM25 72h1v1h-1zM26 72h1v1h-1zM27 72h1v1h-1zM28 72h1v1h-1zM29 72h1v1h-1zM30 72h1v1h-1zM31 72h1v1h-1z"/><path fill="#92B4CE" d="M32 72h1v1h-1z"/><path fill="#6E9BBE" d="M33 72h1v1h-1zM34 72h1v1h-1zM35 72h1v1h-1zM36 72h1v1h-1zM37 72h1v1h-1z"/><path fill="#88B6D0" d="M38 72h1v1h-1z"/><path fill="#A1D1E1" d="M39 72h1v1h-1zM40 72h1v1h-1zM41 72h1v1h-1zM42 72h1v1h-1zM43 72h1v1h-1z"/><path fill="#CAE5EE" d="M44 72h1v1h-1z"/><path fill="#FFF" d="M45 72h1v1h-1zM46 72h1v1h-1z"/><path fill="#C9DAE7" d="M47 72h1v1h-1z"/><path fill="#6E9BBE" d="M48 72h1v1h-1zM49 72h1v1h-1zM50 72h1v1h-1zM51 72h1v1h-1z"/><path fill="#9BCADD" d="M52 72h1v1h-1z"/><path fill="#A1D1E1" d="M53 72h1v1h-1zM54 72h1v1h-1zM55 72h1v1h-1zM56 72h1v1h-1zM57 72h1v1h-1z"/><path fill="#97C7DA" d="M58 72h1v1h-1z"/><path fill="#719EC0" d="M59 72h1v1h-1z"/><path fill="#6E9BBE" d="M60 72h1v1h-1zM61 72h1v1h-1z"/><path fill="#5A8EB3" d="M62 72h1v1h-1z"/><path fill="#2D729B" d="M63 72h1v1h-1zM64 72h1v1h-1zM65 72h1v1h-1zM66 72h1v1h-1zM67 72h1v1h-1zM68 72h1v1h-1zM69 72h1v1h-1zM70 72h1v1h-1z"/><path fill="#34789F" d="M71 72h1v1h-1z"/><path fill="#A1D1E1" d="M72 72h1v1h-1zM73 72h1v1h-1zM74 72h1v1h-1z"/><path fill="#6E9BBE" d="M75 72h1v1h-1zM76 72h1v1h-1zM77 72h1v1h-1zM78 72h1v1h-1z"/><path fill="#36393F" d="M79 72h1v1h-1z"/><path fill="#231815" d="M80 72h1v1h-1zM81 72h1v1h-1zM82 72h1v1h-1zM0 73h1v1H0zM1 73h1v1H1zM2 73h1v1H2z"/><path fill="#5E6A74" d="M3 73h1v1H3z"/><path fill="#6E9BBE" d="M4 73h1v1H4zM5 73h1v1H5zM6 73h1v1H6zM7 73h1v1H7zM8 73h1v1H8zM9 73h1v1H9zM10 73h1v1h-1zM11 73h1v1h-1zM12 73h1v1h-1zM13 73h1v1h-1zM14 73h1v1h-1zM15 73h1v1h-1zM16 73h1v1h-1zM17 73h1v1h-1zM18 73h1v1h-1zM19 73h1v1h-1z"/><path fill="#DBE6EF" d="M20 73h1v1h-1z"/><path fill="#FFF" d="M21 73h1v1h-1zM22 73h1v1h-1zM23 73h1v1h-1zM24 73h1v1h-1zM25 73h1v1h-1zM26 73h1v1h-1zM27 73h1v1h-1zM28 73h1v1h-1zM29 73h1v1h-1zM30 73h1v1h-1z"/><path fill="#ADC7DA" d="M31 73h1v1h-1z"/><path fill="#6E9BBE" d="M32 73h1v1h-1zM33 73h1v1h-1zM34 73h1v1h-1zM35 73h1v1h-1zM36 73h1v1h-1zM37 73h1v1h-1z"/><path fill="#88B6D0" d="M38 73h1v1h-1z"/><path fill="#A1D1E1" d="M39 73h1v1h-1zM40 73h1v1h-1zM41 73h1v1h-1zM42 73h1v1h-1zM43 73h1v1h-1z"/><path fill="#B9DDE9" d="M44 73h1v1h-1z"/><path fill="#FFF" d="M45 73h1v1h-1zM46 73h1v1h-1z"/><path fill="#80A8C6" d="M47 73h1v1h-1z"/><path fill="#6E9BBE" d="M48 73h1v1h-1zM49 73h1v1h-1zM50 73h1v1h-1zM51 73h1v1h-1z"/><path fill="#8BB9D2" d="M52 73h1v1h-1z"/><path fill="#A1D1E1" d="M53 73h1v1h-1zM54 73h1v1h-1zM55 73h1v1h-1zM56 73h1v1h-1zM57 73h1v1h-1zM58 73h1v1h-1z"/><path fill="#8EBDD4" d="M59 73h1v1h-1z"/><path fill="#6E9BBE" d="M60 73h1v1h-1z"/><path fill="#6293B7" d="M61 73h1v1h-1z"/><path fill="#31759D" d="M62 73h1v1h-1z"/><path fill="#2D729B" d="M63 73h1v1h-1zM64 73h1v1h-1zM65 73h1v1h-1zM66 73h1v1h-1zM67 73h1v1h-1zM68 73h1v1h-1zM69 73h1v1h-1zM70 73h1v1h-1zM71 73h1v1h-1z"/><path fill="#A1D1E1" d="M72 73h1v1h-1zM73 73h1v1h-1zM74 73h1v1h-1z"/><path fill="#7BA9C7" d="M75 73h1v1h-1z"/><path fill="#6E9BBE" d="M76 73h1v1h-1zM77 73h1v1h-1zM78 73h1v1h-1z"/><path fill="#36393F" d="M79 73h1v1h-1z"/><path fill="#231815" d="M80 73h1v1h-1zM81 73h1v1h-1zM82 73h1v1h-1zM0 74h1v1H0zM1 74h1v1H1zM2 74h1v1H2z"/><path fill="#282020" d="M3 74h1v1H3z"/><path fill="#5B7A94" d="M4 74h1v1H4z"/><path fill="#6E9BBE" d="M5 74h1v1H5zM6 74h1v1H6zM7 74h1v1H7zM8 74h1v1H8zM9 74h1v1H9zM10 74h1v1h-1zM11 74h1v1h-1zM12 74h1v1h-1zM13 74h1v1h-1zM14 74h1v1h-1zM15 74h1v1h-1zM16 74h1v1h-1zM17 74h1v1h-1zM18 74h1v1h-1zM19 74h1v1h-1z"/><path fill="#DBE6EF" d="M20 74h1v1h-1z"/><path fill="#FFF" d="M21 74h1v1h-1zM22 74h1v1h-1zM23 74h1v1h-1zM24 74h1v1h-1zM25 74h1v1h-1zM26 74h1v1h-1zM27 74h1v1h-1zM28 74h1v1h-1zM29 74h1v1h-1z"/><path fill="#C9DAE7" d="M30 74h1v1h-1z"/><path fill="#6E9BBE" d="M31 74h1v1h-1zM32 74h1v1h-1zM33 74h1v1h-1zM34 74h1v1h-1zM35 74h1v1h-1zM36 74h1v1h-1zM37 74h1v1h-1z"/><path fill="#88B6D0" d="M38 74h1v1h-1z"/><path fill="#A1D1E1" d="M39 74h1v1h-1zM40 74h1v1h-1zM41 74h1v1h-1zM42 74h1v1h-1zM43 74h1v1h-1zM44 74h1v1h-1z"/><path fill="#FFF" d="M45 74h1v1h-1z"/><path fill="#B7CDDF" d="M46 74h1v1h-1z"/><path fill="#6E9BBE" d="M47 74h1v1h-1zM48 74h1v1h-1zM49 74h1v1h-1zM50 74h1v1h-1zM51 74h1v1h-1z"/><path fill="#78A5C5" d="M52 74h1v1h-1z"/><path fill="#A1D1E1" d="M53 74h1v1h-1zM54 74h1v1h-1zM55 74h1v1h-1zM56 74h1v1h-1zM57 74h1v1h-1zM58 74h1v1h-1zM59 74h1v1h-1z"/><path fill="#80B0CB" d="M60 74h1v1h-1z"/><path fill="#397AA2" d="M61 74h1v1h-1z"/><path fill="#2D729B" d="M62 74h1v1h-1zM63 74h1v1h-1zM64 74h1v1h-1zM65 74h1v1h-1zM66 74h1v1h-1zM67 74h1v1h-1zM68 74h1v1h-1zM69 74h1v1h-1zM70 74h1v1h-1zM71 74h1v1h-1z"/><path fill="#9ACBDD" d="M72 74h1v1h-1z"/><path fill="#A1D1E1" d="M73 74h1v1h-1zM74 74h1v1h-1z"/><path fill="#81AFCB" d="M75 74h1v1h-1z"/><path fill="#6E9BBE" d="M76 74h1v1h-1zM77 74h1v1h-1zM78 74h1v1h-1z"/><path fill="#36393F" d="M79 74h1v1h-1z"/><path fill="#231815" d="M80 74h1v1h-1zM81 74h1v1h-1zM82 74h1v1h-1zM0 75h1v1H0zM1 75h1v1H1zM2 75h1v1H2zM3 75h1v1H3zM4 75h1v1H4z"/><path fill="#495A6A" d="M5 75h1v1H5z"/><path fill="#6E9BBE" d="M6 75h1v1H6zM7 75h1v1H7zM8 75h1v1H8zM9 75h1v1H9zM10 75h1v1h-1zM11 75h1v1h-1zM12 75h1v1h-1zM13 75h1v1h-1zM14 75h1v1h-1zM15 75h1v1h-1zM16 75h1v1h-1zM17 75h1v1h-1zM18 75h1v1h-1zM19 75h1v1h-1z"/><path fill="#DBE6EF" d="M20 75h1v1h-1z"/><path fill="#FFF" d="M21 75h1v1h-1zM22 75h1v1h-1zM23 75h1v1h-1zM24 75h1v1h-1zM25 75h1v1h-1zM26 75h1v1h-1zM27 75h1v1h-1zM28 75h1v1h-1z"/><path fill="#E4ECF3" d="M29 75h1v1h-1z"/><path fill="#77A1C2" d="M30 75h1v1h-1z"/><path fill="#6E9BBE" d="M31 75h1v1h-1zM32 75h1v1h-1zM33 75h1v1h-1zM34 75h1v1h-1zM35 75h1v1h-1zM36 75h1v1h-1zM37 75h1v1h-1z"/><path fill="#88B6D0" d="M38 75h1v1h-1z"/><path fill="#A1D1E1" d="M39 75h1v1h-1zM40 75h1v1h-1zM41 75h1v1h-1zM42 75h1v1h-1zM43 75h1v1h-1zM44 75h1v1h-1z"/><path fill="#9CBED5" d="M45 75h1v1h-1z"/><path fill="#6E9BBE" d="M46 75h1v1h-1zM47 75h1v1h-1zM48 75h1v1h-1zM49 75h1v1h-1zM50 75h1v1h-1zM51 75h1v1h-1zM52 75h1v1h-1z"/><path fill="#9BCADD" d="M53 75h1v1h-1z"/><path fill="#A1D1E1" d="M54 75h1v1h-1zM55 75h1v1h-1zM56 75h1v1h-1zM57 75h1v1h-1zM58 75h1v1h-1zM59 75h1v1h-1z"/><path fill="#84B9D0" d="M60 75h1v1h-1z"/><path fill="#2D729B" d="M61 75h1v1h-1zM62 75h1v1h-1zM63 75h1v1h-1zM64 75h1v1h-1zM65 75h1v1h-1zM66 75h1v1h-1zM67 75h1v1h-1zM68 75h1v1h-1zM69 75h1v1h-1zM70 75h1v1h-1zM71 75h1v1h-1z"/><path fill="#84B9D0" d="M72 75h1v1h-1z"/><path fill="#A1D1E1" d="M73 75h1v1h-1zM74 75h1v1h-1z"/><path fill="#8BB9D2" d="M75 75h1v1h-1z"/><path fill="#6E9BBE" d="M76 75h1v1h-1zM77 75h1v1h-1z"/><path fill="#60829E" d="M78 75h1v1h-1z"/><path fill="#282020" d="M79 75h1v1h-1z"/><path fill="#231815" d="M80 75h1v1h-1zM81 75h1v1h-1zM82 75h1v1h-1zM0 76h1v1H0zM1 76h1v1H1zM2 76h1v1H2zM3 76h1v1H3zM4 76h1v1H4zM5 76h1v1H5z"/><path fill="#36393F" d="M6 76h1v1H6z"/><path fill="#6993B3" d="M7 76h1v1H7z"/><path fill="#6E9BBE" d="M8 76h1v1H8zM9 76h1v1H9zM10 76h1v1h-1zM11 76h1v1h-1zM12 76h1v1h-1zM13 76h1v1h-1zM14 76h1v1h-1zM15 76h1v1h-1zM16 76h1v1h-1zM17 76h1v1h-1zM18 76h1v1h-1zM19 76h1v1h-1z"/><path fill="#DBE6EF" d="M20 76h1v1h-1z"/><path fill="#FFF" d="M21 76h1v1h-1zM22 76h1v1h-1zM23 76h1v1h-1zM24 76h1v1h-1zM25 76h1v1h-1zM26 76h1v1h-1zM27 76h1v1h-1z"/><path fill="#F6F9FB" d="M28 76h1v1h-1z"/><path fill="#80A8C6" d="M29 76h1v1h-1z"/><path fill="#6E9BBE" d="M30 76h1v1h-1zM31 76h1v1h-1zM32 76h1v1h-1zM33 76h1v1h-1zM34 76h1v1h-1zM35 76h1v1h-1zM36 76h1v1h-1zM37 76h1v1h-1z"/><path fill="#94C4D8" d="M38 76h1v1h-1z"/><path fill="#A1D1E1" d="M39 76h1v1h-1zM40 76h1v1h-1zM41 76h1v1h-1zM42 76h1v1h-1zM43 76h1v1h-1z"/><path fill="#94C4D8" d="M44 76h1v1h-1z"/><path fill="#6E9BBE" d="M45 76h1v1h-1zM46 76h1v1h-1zM47 76h1v1h-1zM48 76h1v1h-1zM49 76h1v1h-1zM50 76h1v1h-1zM51 76h1v1h-1zM52 76h1v1h-1z"/><path fill="#8BB9D2" d="M53 76h1v1h-1z"/><path fill="#A1D1E1" d="M54 76h1v1h-1zM55 76h1v1h-1zM56 76h1v1h-1zM57 76h1v1h-1zM58 76h1v1h-1zM59 76h1v1h-1zM60 76h1v1h-1z"/><path fill="#2D729B" d="M61 76h1v1h-1zM62 76h1v1h-1zM63 76h1v1h-1zM64 76h1v1h-1zM65 76h1v1h-1zM66 76h1v1h-1zM67 76h1v1h-1zM68 76h1v1h-1zM69 76h1v1h-1zM70 76h1v1h-1zM71 76h1v1h-1z"/><path fill="#84B9D0" d="M72 76h1v1h-1z"/><path fill="#A1D1E1" d="M73 76h1v1h-1zM74 76h1v1h-1z"/><path fill="#94C4D8" d="M75 76h1v1h-1z"/><path fill="#6E9BBE" d="M76 76h1v1h-1z"/><path fill="#526A7F" d="M77 76h1v1h-1z"/><path fill="#282020" d="M78 76h1v1h-1z"/><path fill="#231815" d="M79 76h1v1h-1zM80 76h1v1h-1zM81 76h1v1h-1zM82 76h1v1h-1zM2 77h1v1H2zM3 77h1v1H3zM4 77h1v1H4zM5 77h1v1H5zM6 77h1v1H6z"/><path fill="#282020" d="M7 77h1v1H7z"/><path fill="#60829E" d="M8 77h1v1H8z"/><path fill="#6E9BBE" d="M9 77h1v1H9zM10 77h1v1h-1zM11 77h1v1h-1zM12 77h1v1h-1zM13 77h1v1h-1zM14 77h1v1h-1zM15 77h1v1h-1zM16 77h1v1h-1zM17 77h1v1h-1zM18 77h1v1h-1zM19 77h1v1h-1z"/><path fill="#DBE6EF" d="M20 77h1v1h-1z"/><path fill="#FFF" d="M21 77h1v1h-1zM22 77h1v1h-1zM23 77h1v1h-1zM24 77h1v1h-1zM25 77h1v1h-1zM26 77h1v1h-1zM27 77h1v1h-1z"/><path fill="#89AECA" d="M28 77h1v1h-1z"/><path fill="#6E9BBE" d="M29 77h1v1h-1zM30 77h1v1h-1zM31 77h1v1h-1zM32 77h1v1h-1zM33 77h1v1h-1zM34 77h1v1h-1zM35 77h1v1h-1zM36 77h1v1h-1zM37 77h1v1h-1z"/><path fill="#94C4D8" d="M38 77h1v1h-1z"/><path fill="#A1D1E1" d="M39 77h1v1h-1zM40 77h1v1h-1zM41 77h1v1h-1zM42 77h1v1h-1zM43 77h1v1h-1z"/><path fill="#7BA9C7" d="M44 77h1v1h-1z"/><path fill="#6E9BBE" d="M45 77h1v1h-1zM46 77h1v1h-1zM47 77h1v1h-1zM48 77h1v1h-1zM49 77h1v1h-1zM50 77h1v1h-1zM51 77h1v1h-1zM52 77h1v1h-1z"/><path fill="#78A5C5" d="M53 77h1v1h-1z"/><path fill="#A1D1E1" d="M54 77h1v1h-1zM55 77h1v1h-1zM56 77h1v1h-1zM57 77h1v1h-1zM58 77h1v1h-1zM59 77h1v1h-1zM60 77h1v1h-1z"/><path fill="#2D729B" d="M61 77h1v1h-1zM62 77h1v1h-1zM63 77h1v1h-1zM64 77h1v1h-1zM65 77h1v1h-1zM66 77h1v1h-1zM67 77h1v1h-1zM68 77h1v1h-1zM69 77h1v1h-1zM70 77h1v1h-1zM71 77h1v1h-1z"/><path fill="#76ADC7" d="M72 77h1v1h-1z"/><path fill="#A1D1E1" d="M73 77h1v1h-1zM74 77h1v1h-1zM75 77h1v1h-1z"/><path fill="#44515F" d="M76 77h1v1h-1z"/><path fill="#231815" d="M77 77h1v1h-1zM78 77h1v1h-1zM79 77h1v1h-1zM80 77h1v1h-1zM81 77h1v1h-1zM82 77h1v1h-1zM3 78h1v1H3zM4 78h1v1H4zM5 78h1v1H5zM6 78h1v1H6zM7 78h1v1H7zM8 78h1v1H8z"/><path fill="#4D6274" d="M9 78h1v1H9z"/><path fill="#6E9BBE" d="M10 78h1v1h-1zM11 78h1v1h-1zM12 78h1v1h-1zM13 78h1v1h-1zM14 78h1v1h-1zM15 78h1v1h-1zM16 78h1v1h-1zM17 78h1v1h-1zM18 78h1v1h-1zM19 78h1v1h-1z"/><path fill="#DBE6EF" d="M20 78h1v1h-1z"/><path fill="#FFF" d="M21 78h1v1h-1zM22 78h1v1h-1zM23 78h1v1h-1zM24 78h1v1h-1zM25 78h1v1h-1zM26 78h1v1h-1z"/><path fill="#A4C1D6" d="M27 78h1v1h-1z"/><path fill="#6E9BBE" d="M28 78h1v1h-1zM29 78h1v1h-1zM30 78h1v1h-1zM31 78h1v1h-1zM32 78h1v1h-1zM33 78h1v1h-1zM34 78h1v1h-1zM35 78h1v1h-1zM36 78h1v1h-1zM37 78h1v1h-1z"/><path fill="#94C4D8" d="M38 78h1v1h-1z"/><path fill="#A1D1E1" d="M39 78h1v1h-1zM40 78h1v1h-1zM41 78h1v1h-1zM42 78h1v1h-1z"/><path fill="#94C4D8" d="M43 78h1v1h-1z"/><path fill="#6E9BBE" d="M44 78h1v1h-1zM45 78h1v1h-1zM46 78h1v1h-1zM47 78h1v1h-1zM48 78h1v1h-1zM49 78h1v1h-1zM50 78h1v1h-1zM51 78h1v1h-1zM52 78h1v1h-1zM53 78h1v1h-1z"/><path fill="#9BCADD" d="M54 78h1v1h-1z"/><path fill="#A1D1E1" d="M55 78h1v1h-1zM56 78h1v1h-1zM57 78h1v1h-1zM58 78h1v1h-1zM59 78h1v1h-1zM60 78h1v1h-1z"/><path fill="#4384A8" d="M61 78h1v1h-1z"/><path fill="#2D729B" d="M62 78h1v1h-1zM63 78h1v1h-1zM64 78h1v1h-1zM65 78h1v1h-1zM66 78h1v1h-1zM67 78h1v1h-1zM68 78h1v1h-1zM69 78h1v1h-1zM70 78h1v1h-1zM71 78h1v1h-1z"/><path fill="#67A2BE" d="M72 78h1v1h-1z"/><path fill="#A1D1E1" d="M73 78h1v1h-1z"/><path fill="#99C5D4" d="M74 78h1v1h-1z"/><path fill="#4A5255" d="M75 78h1v1h-1z"/><path fill="#231815" d="M76 78h1v1h-1zM77 78h1v1h-1zM78 78h1v1h-1zM79 78h1v1h-1zM80 78h1v1h-1zM4 79h1v1H4zM5 79h1v1H5zM6 79h1v1H6zM7 79h1v1H7zM8 79h1v1H8zM9 79h1v1H9z"/><path fill="#3A414A" d="M10 79h1v1h-1z"/><path fill="#658BA9" d="M11 79h1v1h-1z"/><path fill="#6E9BBE" d="M12 79h1v1h-1zM13 79h1v1h-1zM14 79h1v1h-1zM15 79h1v1h-1zM16 79h1v1h-1zM17 79h1v1h-1zM18 79h1v1h-1zM19 79h1v1h-1z"/><path fill="#DBE6EF" d="M20 79h1v1h-1z"/><path fill="#FFF" d="M21 79h1v1h-1zM22 79h1v1h-1zM23 79h1v1h-1zM24 79h1v1h-1zM25 79h1v1h-1z"/><path fill="#C0D3E3" d="M26 79h1v1h-1z"/><path fill="#6E9BBE" d="M27 79h1v1h-1zM28 79h1v1h-1zM29 79h1v1h-1zM30 79h1v1h-1zM31 79h1v1h-1zM32 79h1v1h-1zM33 79h1v1h-1zM34 79h1v1h-1zM35 79h1v1h-1zM36 79h1v1h-1zM37 79h1v1h-1z"/><path fill="#94C4D8" d="M38 79h1v1h-1z"/><path fill="#A1D1E1" d="M39 79h1v1h-1zM40 79h1v1h-1zM41 79h1v1h-1zM42 79h1v1h-1z"/><path fill="#7BA9C7" d="M43 79h1v1h-1z"/><path fill="#6E9BBE" d="M44 79h1v1h-1zM45 79h1v1h-1zM46 79h1v1h-1zM47 79h1v1h-1zM48 79h1v1h-1zM49 79h1v1h-1zM50 79h1v1h-1zM51 79h1v1h-1zM52 79h1v1h-1zM53 79h1v1h-1z"/><path fill="#8BB9D2" d="M54 79h1v1h-1z"/><path fill="#A1D1E1" d="M55 79h1v1h-1zM56 79h1v1h-1zM57 79h1v1h-1zM58 79h1v1h-1zM59 79h1v1h-1zM60 79h1v1h-1z"/><path fill="#4A8AAD" d="M61 79h1v1h-1z"/><path fill="#2D729B" d="M62 79h1v1h-1zM63 79h1v1h-1zM64 79h1v1h-1zM65 79h1v1h-1zM66 79h1v1h-1zM67 79h1v1h-1zM68 79h1v1h-1zM69 79h1v1h-1zM70 79h1v1h-1zM71 79h1v1h-1z"/><path fill="#67A2BE" d="M72 79h1v1h-1z"/><path fill="#89AEBB" d="M73 79h1v1h-1z"/><path fill="#3B3B3B" d="M74 79h1v1h-1z"/><path fill="#231815" d="M75 79h1v1h-1zM76 79h1v1h-1zM77 79h1v1h-1zM78 79h1v1h-1zM79 79h1v1h-1zM6 80h1v1H6zM7 80h1v1H7zM8 80h1v1H8zM9 80h1v1H9zM10 80h1v1h-1zM11 80h1v1h-1z"/><path fill="#3F4954" d="M12 80h1v1h-1z"/><path fill="#658BA9" d="M13 80h1v1h-1z"/><path fill="#6E9BBE" d="M14 80h1v1h-1zM15 80h1v1h-1zM16 80h1v1h-1zM17 80h1v1h-1zM18 80h1v1h-1zM19 80h1v1h-1z"/><path fill="#DBE6EF" d="M20 80h1v1h-1z"/><path fill="#FFF" d="M21 80h1v1h-1zM22 80h1v1h-1zM23 80h1v1h-1zM24 80h1v1h-1z"/><path fill="#C9DAE7" d="M25 80h1v1h-1z"/><path fill="#6E9BBE" d="M26 80h1v1h-1zM27 80h1v1h-1zM28 80h1v1h-1zM29 80h1v1h-1zM30 80h1v1h-1zM31 80h1v1h-1zM32 80h1v1h-1zM33 80h1v1h-1zM34 80h1v1h-1zM35 80h1v1h-1zM36 80h1v1h-1zM37 80h1v1h-1z"/><path fill="#94C4D8" d="M38 80h1v1h-1z"/><path fill="#A1D1E1" d="M39 80h1v1h-1zM40 80h1v1h-1zM41 80h1v1h-1z"/><path fill="#91C0D6" d="M42 80h1v1h-1z"/><path fill="#6E9BBE" d="M43 80h1v1h-1zM44 80h1v1h-1zM45 80h1v1h-1zM46 80h1v1h-1zM47 80h1v1h-1zM48 80h1v1h-1zM49 80h1v1h-1zM50 80h1v1h-1zM51 80h1v1h-1zM52 80h1v1h-1zM53 80h1v1h-1z"/><path fill="#78A5C5" d="M54 80h1v1h-1z"/><path fill="#A1D1E1" d="M55 80h1v1h-1zM56 80h1v1h-1zM57 80h1v1h-1zM58 80h1v1h-1zM59 80h1v1h-1zM60 80h1v1h-1z"/><path fill="#5996B5" d="M61 80h1v1h-1z"/><path fill="#2D729B" d="M62 80h1v1h-1zM63 80h1v1h-1zM64 80h1v1h-1zM65 80h1v1h-1zM66 80h1v1h-1zM67 80h1v1h-1zM68 80h1v1h-1zM69 80h1v1h-1zM70 80h1v1h-1z"/><path fill="#2C6C93" d="M71 80h1v1h-1z"/><path fill="#385C72" d="M72 80h1v1h-1z"/><path fill="#2B2422" d="M73 80h1v1h-1z"/><path fill="#231815" d="M74 80h1v1h-1zM75 80h1v1h-1zM76 80h1v1h-1zM77 80h1v1h-1zM78 80h1v1h-1zM7 81h1v1H7zM8 81h1v1H8zM9 81h1v1H9zM10 81h1v1h-1zM11 81h1v1h-1zM12 81h1v1h-1zM13 81h1v1h-1z"/><path fill="#3F4954" d="M14 81h1v1h-1z"/><path fill="#658BA9" d="M15 81h1v1h-1z"/><path fill="#6E9BBE" d="M16 81h1v1h-1zM17 81h1v1h-1zM18 81h1v1h-1zM19 81h1v1h-1z"/><path fill="#DBE6EF" d="M20 81h1v1h-1z"/><path fill="#FFF" d="M21 81h1v1h-1zM22 81h1v1h-1zM23 81h1v1h-1z"/><path fill="#E4ECF3" d="M24 81h1v1h-1z"/><path fill="#77A1C2" d="M25 81h1v1h-1z"/><path fill="#6E9BBE" d="M26 81h1v1h-1zM27 81h1v1h-1zM28 81h1v1h-1zM29 81h1v1h-1zM30 81h1v1h-1zM31 81h1v1h-1zM32 81h1v1h-1zM33 81h1v1h-1zM34 81h1v1h-1zM35 81h1v1h-1zM36 81h1v1h-1zM37 81h1v1h-1z"/><path fill="#94C4D8" d="M38 81h1v1h-1z"/><path fill="#A1D1E1" d="M39 81h1v1h-1zM40 81h1v1h-1zM41 81h1v1h-1z"/><path fill="#74A2C2" d="M42 81h1v1h-1z"/><path fill="#6E9BBE" d="M43 81h1v1h-1zM44 81h1v1h-1zM45 81h1v1h-1zM46 81h1v1h-1zM47 81h1v1h-1zM48 81h1v1h-1zM49 81h1v1h-1zM50 81h1v1h-1zM51 81h1v1h-1zM52 81h1v1h-1zM53 81h1v1h-1zM54 81h1v1h-1z"/><path fill="#9BCADD" d="M55 81h1v1h-1z"/><path fill="#A1D1E1" d="M56 81h1v1h-1zM57 81h1v1h-1zM58 81h1v1h-1zM59 81h1v1h-1zM60 81h1v1h-1z"/><path fill="#67A2BE" d="M61 81h1v1h-1z"/><path fill="#2D729B" d="M62 81h1v1h-1zM63 81h1v1h-1zM64 81h1v1h-1zM65 81h1v1h-1zM66 81h1v1h-1z"/><path fill="#2C6C93" d="M67 81h1v1h-1z"/><path fill="#2A5671" d="M68 81h1v1h-1z"/><path fill="#273F50" d="M69 81h1v1h-1z"/><path fill="#25292E" d="M70 81h1v1h-1z"/><path fill="#231815" d="M71 81h1v1h-1zM72 81h1v1h-1zM73 81h1v1h-1zM74 81h1v1h-1zM75 81h1v1h-1zM76 81h1v1h-1zM77 81h1v1h-1zM8 82h1v1H8zM9 82h1v1H9zM10 82h1v1h-1zM11 82h1v1h-1zM12 82h1v1h-1zM13 82h1v1h-1zM14 82h1v1h-1zM15 82h1v1h-1z"/><path fill="#3F4954" d="M16 82h1v1h-1z"/><path fill="#658BA9" d="M17 82h1v1h-1z"/><path fill="#6E9BBE" d="M18 82h1v1h-1zM19 82h1v1h-1z"/><path fill="#DBE6EF" d="M20 82h1v1h-1z"/><path fill="#FFF" d="M21 82h1v1h-1zM22 82h1v1h-1z"/><path fill="#E4ECF3" d="M23 82h1v1h-1z"/><path fill="#77A1C2" d="M24 82h1v1h-1z"/><path fill="#6E9BBE" d="M25 82h1v1h-1zM26 82h1v1h-1zM27 82h1v1h-1zM28 82h1v1h-1zM29 82h1v1h-1zM30 82h1v1h-1zM31 82h1v1h-1zM32 82h1v1h-1zM33 82h1v1h-1zM34 82h1v1h-1zM35 82h1v1h-1zM36 82h1v1h-1zM37 82h1v1h-1z"/><path fill="#94C4D8" d="M38 82h1v1h-1z"/><path fill="#A1D1E1" d="M39 82h1v1h-1zM40 82h1v1h-1z"/><path fill="#8BB9D2" d="M41 82h1v1h-1z"/><path fill="#6E9BBE" d="M42 82h1v1h-1zM43 82h1v1h-1zM44 82h1v1h-1zM45 82h1v1h-1zM46 82h1v1h-1zM47 82h1v1h-1zM48 82h1v1h-1zM49 82h1v1h-1zM50 82h1v1h-1zM51 82h1v1h-1zM52 82h1v1h-1zM53 82h1v1h-1zM54 82h1v1h-1z"/><path fill="#8BB9D2" d="M55 82h1v1h-1z"/><path fill="#A1D1E1" d="M56 82h1v1h-1zM57 82h1v1h-1zM58 82h1v1h-1zM59 82h1v1h-1zM60 82h1v1h-1z"/><path fill="#76ADC7" d="M61 82h1v1h-1z"/><path fill="#2D729B" d="M62 82h1v1h-1zM63 82h1v1h-1z"/><path fill="#2B5C7A" d="M64 82h1v1h-1z"/><path fill="#284558" d="M65 82h1v1h-1z"/><path fill="#262F37" d="M66 82h1v1h-1z"/><path fill="#231815" d="M67 82h1v1h-1zM68 82h1v1h-1zM69 82h1v1h-1zM70 82h1v1h-1zM71 82h1v1h-1zM72 82h1v1h-1zM73 82h1v1h-1zM74 82h1v1h-1zM75 82h1v1h-1zM10 83h1v1h-1zM11 83h1v1h-1zM12 83h1v1h-1zM13 83h1v1h-1zM14 83h1v1h-1zM15 83h1v1h-1zM16 83h1v1h-1zM17 83h1v1h-1z"/><path fill="#3F4954" d="M18 83h1v1h-1z"/><path fill="#658BA9" d="M19 83h1v1h-1z"/><path fill="#DBE6EF" d="M20 83h1v1h-1z"/><path fill="#FFF" d="M21 83h1v1h-1z"/><path fill="#F6F9FB" d="M22 83h1v1h-1z"/><path fill="#89AECA" d="M23 83h1v1h-1z"/><path fill="#6E9BBE" d="M24 83h1v1h-1zM25 83h1v1h-1zM26 83h1v1h-1zM27 83h1v1h-1zM28 83h1v1h-1zM29 83h1v1h-1zM30 83h1v1h-1zM31 83h1v1h-1zM32 83h1v1h-1zM33 83h1v1h-1zM34 83h1v1h-1zM35 83h1v1h-1zM36 83h1v1h-1zM37 83h1v1h-1z"/><path fill="#94C4D8" d="M38 83h1v1h-1z"/><path fill="#A1D1E1" d="M39 83h1v1h-1z"/><path fill="#9ECEDF" d="M40 83h1v1h-1z"/><path fill="#719EC0" d="M41 83h1v1h-1z"/><path fill="#6E9BBE" d="M42 83h1v1h-1zM43 83h1v1h-1zM44 83h1v1h-1zM45 83h1v1h-1zM46 83h1v1h-1zM47 83h1v1h-1zM48 83h1v1h-1zM49 83h1v1h-1zM50 83h1v1h-1zM51 83h1v1h-1zM52 83h1v1h-1zM53 83h1v1h-1zM54 83h1v1h-1z"/><path fill="#78A5C5" d="M55 83h1v1h-1z"/><path fill="#A1D1E1" d="M56 83h1v1h-1zM57 83h1v1h-1zM58 83h1v1h-1zM59 83h1v1h-1z"/><path fill="#89AEBB" d="M60 83h1v1h-1z"/><path fill="#5B747F" d="M61 83h1v1h-1z"/><path fill="#26343F" d="M62 83h1v1h-1z"/><path fill="#231815" d="M63 83h1v1h-1zM64 83h1v1h-1zM65 83h1v1h-1zM66 83h1v1h-1zM67 83h1v1h-1zM68 83h1v1h-1zM69 83h1v1h-1zM70 83h1v1h-1zM71 83h1v1h-1zM72 83h1v1h-1zM73 83h1v1h-1zM74 83h1v1h-1zM12 84h1v1h-1zM13 84h1v1h-1zM14 84h1v1h-1zM15 84h1v1h-1zM16 84h1v1h-1zM17 84h1v1h-1zM18 84h1v1h-1zM19 84h1v1h-1z"/><path fill="#6C6869" d="M20 84h1v1h-1z"/><path fill="#CDCDCF" d="M21 84h1v1h-1z"/><path fill="#89AECA" d="M22 84h1v1h-1z"/><path fill="#6E9BBE" d="M23 84h1v1h-1zM24 84h1v1h-1zM25 84h1v1h-1zM26 84h1v1h-1zM27 84h1v1h-1zM28 84h1v1h-1zM29 84h1v1h-1zM30 84h1v1h-1zM31 84h1v1h-1zM32 84h1v1h-1zM33 84h1v1h-1zM34 84h1v1h-1zM35 84h1v1h-1zM36 84h1v1h-1zM37 84h1v1h-1z"/><path fill="#97C7DA" d="M38 84h1v1h-1z"/><path fill="#A1D1E1" d="M39 84h1v1h-1z"/><path fill="#81AFCB" d="M40 84h1v1h-1z"/><path fill="#6E9BBE" d="M41 84h1v1h-1zM42 84h1v1h-1zM43 84h1v1h-1zM44 84h1v1h-1zM45 84h1v1h-1zM46 84h1v1h-1zM47 84h1v1h-1zM48 84h1v1h-1zM49 84h1v1h-1zM50 84h1v1h-1zM51 84h1v1h-1zM52 84h1v1h-1zM53 84h1v1h-1zM54 84h1v1h-1z"/><path fill="#60829E" d="M55 84h1v1h-1z"/><path fill="#6F8892" d="M56 84h1v1h-1z"/><path fill="#62757B" d="M57 84h1v1h-1z"/><path fill="#434648" d="M58 84h1v1h-1z"/><path fill="#2B2422" d="M59 84h1v1h-1z"/><path fill="#231815" d="M60 84h1v1h-1zM61 84h1v1h-1zM62 84h1v1h-1zM63 84h1v1h-1zM64 84h1v1h-1zM65 84h1v1h-1zM66 84h1v1h-1zM67 84h1v1h-1zM68 84h1v1h-1zM69 84h1v1h-1zM70 84h1v1h-1zM71 84h1v1h-1zM72 84h1v1h-1zM14 85h1v1h-1zM15 85h1v1h-1zM16 85h1v1h-1zM17 85h1v1h-1zM18 85h1v1h-1zM19 85h1v1h-1zM20 85h1v1h-1zM21 85h1v1h-1z"/><path fill="#2C282A" d="M22 85h1v1h-1z"/><path fill="#44515F" d="M23 85h1v1h-1z"/><path fill="#577289" d="M24 85h1v1h-1z"/><path fill="#6993B3" d="M25 85h1v1h-1z"/><path fill="#6E9BBE" d="M26 85h1v1h-1zM27 85h1v1h-1zM28 85h1v1h-1zM29 85h1v1h-1zM30 85h1v1h-1zM31 85h1v1h-1zM32 85h1v1h-1zM33 85h1v1h-1zM34 85h1v1h-1zM35 85h1v1h-1zM36 85h1v1h-1zM37 85h1v1h-1z"/><path fill="#A1D1E1" d="M38 85h1v1h-1z"/><path fill="#94C4D8" d="M39 85h1v1h-1z"/><path fill="#6E9BBE" d="M40 85h1v1h-1zM41 85h1v1h-1zM42 85h1v1h-1zM43 85h1v1h-1zM44 85h1v1h-1zM45 85h1v1h-1zM46 85h1v1h-1zM47 85h1v1h-1z"/><path fill="#658BA9" d="M48 85h1v1h-1z"/><path fill="#5B7A94" d="M49 85h1v1h-1z"/><path fill="#526A7F" d="M50 85h1v1h-1z"/><path fill="#495A6A" d="M51 85h1v1h-1z"/><path fill="#36393F" d="M52 85h1v1h-1z"/><path fill="#313135" d="M53 85h1v1h-1z"/><path fill="#231815" d="M54 85h1v1h-1zM55 85h1v1h-1zM56 85h1v1h-1zM57 85h1v1h-1zM58 85h1v1h-1zM59 85h1v1h-1zM60 85h1v1h-1zM61 85h1v1h-1zM62 85h1v1h-1zM63 85h1v1h-1zM64 85h1v1h-1zM65 85h1v1h-1zM66 85h1v1h-1zM67 85h1v1h-1zM68 85h1v1h-1zM16 86h1v1h-1zM17 86h1v1h-1zM18 86h1v1h-1zM19 86h1v1h-1zM20 86h1v1h-1zM21 86h1v1h-1zM22 86h1v1h-1zM23 86h1v1h-1zM24 86h1v1h-1zM25 86h1v1h-1z"/><path fill="#282020" d="M26 86h1v1h-1z"/><path fill="#36393F" d="M27 86h1v1h-1z"/><path fill="#3F4954" d="M28 86h1v1h-1z"/><path fill="#495A6A" d="M29 86h1v1h-1zM30 86h1v1h-1z"/><path fill="#5B7A94" d="M31 86h1v1h-1zM32 86h1v1h-1zM33 86h1v1h-1zM34 86h1v1h-1zM35 86h1v1h-1zM36 86h1v1h-1zM37 86h1v1h-1z"/><path fill="#82A3AE" d="M38 86h1v1h-1z"/><path fill="#628198" d="M39 86h1v1h-1z"/><path fill="#526A7F" d="M40 86h1v1h-1z"/><path fill="#495A6A" d="M41 86h1v1h-1zM42 86h1v1h-1zM43 86h1v1h-1z"/><path fill="#36393F" d="M44 86h1v1h-1zM45 86h1v1h-1z"/><path fill="#2C282A" d="M46 86h1v1h-1z"/><path fill="#231815" d="M47 86h1v1h-1zM48 86h1v1h-1zM49 86h1v1h-1zM50 86h1v1h-1zM51 86h1v1h-1zM52 86h1v1h-1zM53 86h1v1h-1zM54 86h1v1h-1zM55 86h1v1h-1zM56 86h1v1h-1zM57 86h1v1h-1zM58 86h1v1h-1zM59 86h1v1h-1zM60 86h1v1h-1zM61 86h1v1h-1zM62 86h1v1h-1zM63 86h1v1h-1zM64 86h1v1h-1zM18 87h1v1h-1zM19 87h1v1h-1zM20 87h1v1h-1zM21 87h1v1h-1zM22 87h1v1h-1zM23 87h1v1h-1zM24 87h1v1h-1zM25 87h1v1h-1zM26 87h1v1h-1zM27 87h1v1h-1zM28 87h1v1h-1zM29 87h1v1h-1zM30 87h1v1h-1zM31 87h1v1h-1zM32 87h1v1h-1zM33 87h1v1h-1zM34 87h1v1h-1zM35 87h1v1h-1zM36 87h1v1h-1zM37 87h1v1h-1zM38 87h1v1h-1zM39 87h1v1h-1zM40 87h1v1h-1zM41 87h1v1h-1zM42 87h1v1h-1zM43 87h1v1h-1zM44 87h1v1h-1zM45 87h1v1h-1zM46 87h1v1h-1zM47 87h1v1h-1zM48 87h1v1h-1zM49 87h1v1h-1zM50 87h1v1h-1zM51 87h1v1h-1zM52 87h1v1h-1zM53 87h1v1h-1zM54 87h1v1h-1zM55 87h1v1h-1zM56 87h1v1h-1zM57 87h1v1h-1zM58 87h1v1h-1zM59 87h1v1h-1zM60 87h1v1h-1zM21 88h1v1h-1zM22 88h1v1h-1zM23 88h1v1h-1zM24 88h1v1h-1zM25 88h1v1h-1zM26 88h1v1h-1zM27 88h1v1h-1zM28 88h1v1h-1zM29 88h1v1h-1zM30 88h1v1h-1zM31 88h1v1h-1zM32 88h1v1h-1zM33 88h1v1h-1zM34 88h1v1h-1zM35 88h1v1h-1zM36 88h1v1h-1zM37 88h1v1h-1zM38 88h1v1h-1zM39 88h1v1h-1zM40 88h1v1h-1zM41 88h1v1h-1zM42 88h1v1h-1zM43 88h1v1h-1zM44 88h1v1h-1zM45 88h1v1h-1zM46 88h1v1h-1zM47 88h1v1h-1zM48 88h1v1h-1zM49 88h1v1h-1zM50 88h1v1h-1zM51 88h1v1h-1zM52 88h1v1h-1zM53 88h1v1h-1zM54 88h1v1h-1zM55 88h1v1h-1zM24 89h1v1h-1zM25 89h1v1h-1zM26 89h1v1h-1zM27 89h1v1h-1zM28 89h1v1h-1zM29 89h1v1h-1zM30 89h1v1h-1zM31 89h1v1h-1zM32 89h1v1h-1zM33 89h1v1h-1zM34 89h1v1h-1zM35 89h1v1h-1zM36 89h1v1h-1zM37 89h1v1h-1zM38 89h1v1h-1zM39 89h1v1h-1zM40 89h1v1h-1zM41 89h1v1h-1zM42 89h1v1h-1zM43 89h1v1h-1zM44 89h1v1h-1zM45 89h1v1h-1zM46 89h1v1h-1zM47 89h1v1h-1zM48 89h1v1h-1z"/></svg>