<svg baseProfile="full" height="90" width="88" xmlns="http://www.w3.org/2000/svg"><path fill="#231815" d="M1 0h1v1H1zM2 0h1v1H2zM3 0h1v1H3zM4 0h1v1H4zM5 0h1v1H5zM6 0h1v1H6zM7 0h1v1H7zM8 0h1v1H8zM9 0h1v1H9zM0 1h1v1H0zM1 1h1v1H1zM2 1h1v1H2zM3 1h1v1H3zM4 1h1v1H4zM5 1h1v1H5zM6 1h1v1H6zM7 1h1v1H7zM8 1h1v1H8zM9 1h1v1H9zM10 1h1v1h-1zM11 1h1v1h-1zM12 1h1v1h-1zM0 2h1v1H0zM1 2h1v1H1zM2 2h1v1H2zM3 2h1v1H3zM4 2h1v1H4zM5 2h1v1H5zM6 2h1v1H6zM7 2h1v1H7zM8 2h1v1H8zM9 2h1v1H9zM10 2h1v1h-1zM11 2h1v1h-1zM12 2h1v1h-1zM13 2h1v1h-1zM14 2h1v1h-1zM0 3h1v1H0zM1 3h1v1H1zM2 3h1v1H2z"/><path fill="#8F6C18" d="M3 3h1v1H3z"/><path fill="#C7AF28" d="M4 3h1v1H4z"/><path fill="#C8BC2F" d="M5 3h1v1H5z"/><path fill="#C7B62C" d="M6 3h1v1H6z"/><path fill="#9D7C1C" d="M7 3h1v1H7z"/><path fill="#745717" d="M8 3h1v1H8z"/><path fill="#302215" d="M9 3h1v1H9z"/><path fill="#231815" d="M10 3h1v1h-1zM11 3h1v1h-1zM12 3h1v1h-1zM13 3h1v1h-1zM14 3h1v1h-1zM15 3h1v1h-1zM0 4h1v1H0zM1 4h1v1H1zM2 4h1v1H2z"/><path fill="#AB8D20" d="M3 4h1v1H3z"/><path fill="#FFF338" d="M4 4h1v1H4zM5 4h1v1H5zM6 4h1v1H6z"/><path fill="#FFF036" d="M7 4h1v1H7z"/><path fill="#FBC920" d="M8 4h1v1H8z"/><path fill="#CDA129" d="M9 4h1v1H9z"/><path fill="#80682F" d="M10 4h1v1h-1z"/><path fill="#524022" d="M11 4h1v1h-1z"/><path fill="#231815" d="M12 4h1v1h-1zM13 4h1v1h-1zM14 4h1v1h-1zM15 4h1v1h-1zM16 4h1v1h-1zM17 4h1v1h-1zM0 5h1v1H0zM1 5h1v1H1zM2 5h1v1H2z"/><path fill="#90791F" d="M3 5h1v1H3z"/><path fill="#FFF338" d="M4 5h1v1H4zM5 5h1v1H5zM6 5h1v1H6zM7 5h1v1H7z"/><path fill="#FDE32F" d="M8 5h1v1H8z"/><path fill="#CDA129" d="M9 5h1v1H9z"/><path fill="#9F8237" d="M10 5h1v1h-1zM11 5h1v1h-1z"/><path fill="#8B6F2B" d="M12 5h1v1h-1z"/><path fill="#3E2D16" d="M13 5h1v1h-1z"/><path fill="#231815" d="M14 5h1v1h-1zM15 5h1v1h-1zM16 5h1v1h-1zM17 5h1v1h-1zM18 5h1v1h-1zM0 6h1v1H0zM1 6h1v1H1zM2 6h1v1H2z"/><path fill="#8F751D" d="M3 6h1v1H3z"/><path fill="#FFF338" d="M4 6h1v1H4zM5 6h1v1H5zM6 6h1v1H6zM7 6h1v1H7zM8 6h1v1H8z"/><path fill="#C79D2B" d="M9 6h1v1H9z"/><path fill="#9F8237" d="M10 6h1v1h-1zM11 6h1v1h-1z"/><path fill="#B69130" d="M12 6h1v1h-1z"/><path fill="#EDB51B" d="M13 6h1v1h-1z"/><path fill="#745717" d="M14 6h1v1h-1z"/><path fill="#231815" d="M15 6h1v1h-1zM16 6h1v1h-1zM17 6h1v1h-1zM18 6h1v1h-1zM19 6h1v1h-1zM0 7h1v1H0zM1 7h1v1H1zM2 7h1v1H2z"/><path fill="#664C17" d="M3 7h1v1H3z"/><path fill="#FDE02D" d="M4 7h1v1H4z"/><path fill="#FFF338" d="M5 7h1v1H5zM6 7h1v1H6zM7 7h1v1H7z"/><path fill="#FDE32F" d="M8 7h1v1H8z"/><path fill="#B69130" d="M9 7h1v1H9z"/><path fill="#9F8237" d="M10 7h1v1h-1zM11 7h1v1h-1z"/><path fill="#CDA129" d="M12 7h1v1h-1z"/><path fill="#FABF1B" d="M13 7h1v1h-1zM14 7h1v1h-1z"/><path fill="#A98019" d="M15 7h1v1h-1z"/><path fill="#231815" d="M16 7h1v1h-1zM17 7h1v1h-1zM18 7h1v1h-1zM19 7h1v1h-1zM20 7h1v1h-1zM0 8h1v1H0zM1 8h1v1H1zM2 8h1v1H2z"/><path fill="#4B3716" d="M3 8h1v1H3z"/><path fill="#FABF1B" d="M4 8h1v1H4z"/><path fill="#FCD326" d="M5 8h1v1H5z"/><path fill="#FDD92A" d="M6 8h1v1H6z"/><path fill="#FCD628" d="M7 8h1v1H7z"/><path fill="#FAC21D" d="M8 8h1v1H8z"/><path fill="#B08D32" d="M9 8h1v1H9z"/><path fill="#9F8237" d="M10 8h1v1h-1zM11 8h1v1h-1z"/><path fill="#D8A826" d="M12 8h1v1h-1z"/><path fill="#FABF1B" d="M13 8h1v1h-1zM14 8h1v1h-1zM15 8h1v1h-1z"/><path fill="#D2A01A" d="M16 8h1v1h-1z"/><path fill="#3E2D16" d="M17 8h1v1h-1z"/><path fill="#231815" d="M18 8h1v1h-1zM19 8h1v1h-1zM20 8h1v1h-1zM21 8h1v1h-1zM22 8h1v1h-1zM0 9h1v1H0zM1 9h1v1H1zM2 9h1v1H2zM3 9h1v1H3z"/><path fill="#CDA129" d="M4 9h1v1H4zM5 9h1v1H5zM6 9h1v1H6z"/><path fill="#C1992D" d="M7 9h1v1H7z"/><path fill="#B69130" d="M8 9h1v1H8z"/><path fill="#9F8237" d="M9 9h1v1H9zM10 9h1v1h-1zM11 9h1v1h-1z"/><path fill="#EFB71F" d="M12 9h1v1h-1z"/><path fill="#FABF1B" d="M13 9h1v1h-1zM14 9h1v1h-1zM15 9h1v1h-1zM16 9h1v1h-1z"/><path fill="#EDB51B" d="M17 9h1v1h-1z"/><path fill="#594217" d="M18 9h1v1h-1z"/><path fill="#231815" d="M19 9h1v1h-1zM20 9h1v1h-1zM21 9h1v1h-1zM22 9h1v1h-1zM23 9h1v1h-1zM1 10h1v1H1zM2 10h1v1H2zM3 10h1v1H3z"/><path fill="#80682F" d="M4 10h1v1H4z"/><path fill="#9F8237" d="M5 10h1v1H5zM6 10h1v1H6zM7 10h1v1H7zM8 10h1v1H8zM9 10h1v1H9zM10 10h1v1h-1z"/><path fill="#C1992D" d="M11 10h1v1h-1z"/><path fill="#FABF1B" d="M12 10h1v1h-1zM13 10h1v1h-1zM14 10h1v1h-1zM15 10h1v1h-1zM16 10h1v1h-1zM17 10h1v1h-1zM18 10h1v1h-1z"/><path fill="#745717" d="M19 10h1v1h-1z"/><path fill="#231815" d="M20 10h1v1h-1zM21 10h1v1h-1zM22 10h1v1h-1zM23 10h1v1h-1zM24 10h1v1h-1zM1 11h1v1H1zM2 11h1v1H2zM3 11h1v1H3z"/><path fill="#614D26" d="M4 11h1v1H4z"/><path fill="#9F8237" d="M5 11h1v1H5zM6 11h1v1H6zM7 11h1v1H7zM8 11h1v1H8zM9 11h1v1H9z"/><path fill="#C1992D" d="M10 11h1v1h-1z"/><path fill="#F7D52B" d="M11 11h1v1h-1z"/><path fill="#FFF338" d="M12 11h1v1h-1zM13 11h1v1h-1z"/><path fill="#FEE933" d="M14 11h1v1h-1z"/><path fill="#FCCF24" d="M15 11h1v1h-1z"/><path fill="#FABF1B" d="M16 11h1v1h-1zM17 11h1v1h-1zM18 11h1v1h-1zM19 11h1v1h-1z"/><path fill="#A98019" d="M20 11h1v1h-1z"/><path fill="#231815" d="M21 11h1v1h-1zM22 11h1v1h-1zM23 11h1v1h-1zM24 11h1v1h-1zM25 11h1v1h-1zM1 12h1v1H1zM2 12h1v1H2zM3 12h1v1H3z"/><path fill="#3A2C1B" d="M4 12h1v1H4z"/><path fill="#BB952E" d="M5 12h1v1H5z"/><path fill="#CDA129" d="M6 12h1v1H6zM7 12h1v1H7z"/><path fill="#E3B022" d="M8 12h1v1H8z"/><path fill="#F4BB1D" d="M9 12h1v1H9z"/><path fill="#FABF1B" d="M10 12h1v1h-1z"/><path fill="#FFF338" d="M11 12h1v1h-1zM12 12h1v1h-1zM13 12h1v1h-1zM14 12h1v1h-1zM15 12h1v1h-1z"/><path fill="#FDE32F" d="M16 12h1v1h-1z"/><path fill="#FAC21D" d="M17 12h1v1h-1z"/><path fill="#FABF1B" d="M18 12h1v1h-1zM19 12h1v1h-1zM20 12h1v1h-1z"/><path fill="#D2A01A" d="M21 12h1v1h-1z"/><path fill="#302215" d="M22 12h1v1h-1z"/><path fill="#231815" d="M23 12h1v1h-1zM24 12h1v1h-1zM25 12h1v1h-1zM26 12h1v1h-1zM1 13h1v1H1zM2 13h1v1H2zM3 13h1v1H3zM4 13h1v1H4z"/><path fill="#C4951A" d="M5 13h1v1H5z"/><path fill="#FABF1B" d="M6 13h1v1H6zM7 13h1v1H7zM8 13h1v1H8zM9 13h1v1H9zM10 13h1v1h-1z"/><path fill="#FEED34" d="M11 13h1v1h-1z"/><path fill="#FFF338" d="M12 13h1v1h-1zM13 13h1v1h-1zM14 13h1v1h-1zM15 13h1v1h-1zM16 13h1v1h-1z"/><path fill="#FEE933" d="M17 13h1v1h-1z"/><path fill="#FBC920" d="M18 13h1v1h-1z"/><path fill="#FABF1B" d="M19 13h1v1h-1zM20 13h1v1h-1zM21 13h1v1h-1z"/><path fill="#DFAA1A" d="M22 13h1v1h-1z"/><path fill="#4B3716" d="M23 13h1v1h-1z"/><path fill="#231815" d="M24 13h1v1h-1zM25 13h1v1h-1zM26 13h1v1h-1zM27 13h1v1h-1zM28 13h1v1h-1zM2 14h1v1H2zM3 14h1v1H3zM4 14h1v1H4z"/><path fill="#3E2D16" d="M5 14h1v1H5z"/><path fill="#EDB51B" d="M6 14h1v1H6z"/><path fill="#FABF1B" d="M7 14h1v1H7zM8 14h1v1H8zM9 14h1v1H9zM10 14h1v1h-1z"/><path fill="#FCD628" d="M11 14h1v1h-1z"/><path fill="#FFF338" d="M12 14h1v1h-1zM13 14h1v1h-1zM14 14h1v1h-1zM15 14h1v1h-1zM16 14h1v1h-1zM17 14h1v1h-1z"/><path fill="#FFF036" d="M18 14h1v1h-1z"/><path fill="#FBC920" d="M19 14h1v1h-1z"/><path fill="#FABF1B" d="M20 14h1v1h-1zM21 14h1v1h-1zM22 14h1v1h-1z"/><path fill="#EDB51B" d="M23 14h1v1h-1z"/><path fill="#594217" d="M24 14h1v1h-1z"/><path fill="#231815" d="M25 14h1v1h-1zM26 14h1v1h-1zM27 14h1v1h-1zM28 14h1v1h-1zM29 14h1v1h-1zM2 15h1v1H2zM3 15h1v1H3zM4 15h1v1H4zM5 15h1v1H5z"/><path fill="#664C17" d="M6 15h1v1H6z"/><path fill="#FABF1B" d="M7 15h1v1H7zM8 15h1v1H8zM9 15h1v1H9zM10 15h1v1h-1zM11 15h1v1h-1z"/><path fill="#FEED34" d="M12 15h1v1h-1z"/><path fill="#FFF338" d="M13 15h1v1h-1zM14 15h1v1h-1zM15 15h1v1h-1zM16 15h1v1h-1zM17 15h1v1h-1zM18 15h1v1h-1z"/><path fill="#FFF036" d="M19 15h1v1h-1z"/><path fill="#FBC920" d="M20 15h1v1h-1z"/><path fill="#FABF1B" d="M21 15h1v1h-1zM22 15h1v1h-1zM23 15h1v1h-1zM24 15h1v1h-1z"/><path fill="#745717" d="M25 15h1v1h-1z"/><path fill="#231815" d="M26 15h1v1h-1zM27 15h1v1h-1zM28 15h1v1h-1zM29 15h1v1h-1zM30 15h1v1h-1zM35 15h1v1h-1zM36 15h1v1h-1zM37 15h1v1h-1zM38 15h1v1h-1zM39 15h1v1h-1zM40 15h1v1h-1zM41 15h1v1h-1zM42 15h1v1h-1zM43 15h1v1h-1zM44 15h1v1h-1zM45 15h1v1h-1zM46 15h1v1h-1zM47 15h1v1h-1zM48 15h1v1h-1zM49 15h1v1h-1zM3 16h1v1H3zM4 16h1v1H4zM5 16h1v1H5zM6 16h1v1H6z"/><path fill="#8F6C18" d="M7 16h1v1H7z"/><path fill="#FABF1B" d="M8 16h1v1H8zM9 16h1v1H9zM10 16h1v1h-1zM11 16h1v1h-1z"/><path fill="#FBC920" d="M12 16h1v1h-1z"/><path fill="#FFF338" d="M13 16h1v1h-1zM14 16h1v1h-1zM15 16h1v1h-1zM16 16h1v1h-1zM17 16h1v1h-1zM18 16h1v1h-1zM19 16h1v1h-1z"/><path fill="#FFF036" d="M20 16h1v1h-1z"/><path fill="#FBC61F" d="M21 16h1v1h-1z"/><path fill="#FABF1B" d="M22 16h1v1h-1zM23 16h1v1h-1zM24 16h1v1h-1zM25 16h1v1h-1z"/><path fill="#8F6C18" d="M26 16h1v1h-1z"/><path fill="#231815" d="M27 16h1v1h-1zM28 16h1v1h-1zM29 16h1v1h-1zM30 16h1v1h-1zM31 16h1v1h-1zM32 16h1v1h-1zM33 16h1v1h-1zM34 16h1v1h-1zM35 16h1v1h-1zM36 16h1v1h-1zM37 16h1v1h-1zM38 16h1v1h-1zM39 16h1v1h-1zM40 16h1v1h-1zM41 16h1v1h-1zM42 16h1v1h-1zM43 16h1v1h-1zM44 16h1v1h-1zM45 16h1v1h-1zM46 16h1v1h-1zM47 16h1v1h-1zM48 16h1v1h-1zM49 16h1v1h-1zM50 16h1v1h-1zM51 16h1v1h-1zM52 16h1v1h-1zM53 16h1v1h-1zM4 17h1v1H4zM5 17h1v1H5zM6 17h1v1H6zM7 17h1v1H7z"/><path fill="#C4951A" d="M8 17h1v1H8z"/><path fill="#FABF1B" d="M9 17h1v1H9zM10 17h1v1h-1zM11 17h1v1h-1zM12 17h1v1h-1z"/><path fill="#FCD628" d="M13 17h1v1h-1z"/><path fill="#FFF338" d="M14 17h1v1h-1zM15 17h1v1h-1zM16 17h1v1h-1zM17 17h1v1h-1zM18 17h1v1h-1zM19 17h1v1h-1zM20 17h1v1h-1z"/><path fill="#FEE933" d="M21 17h1v1h-1z"/><path fill="#FAC21D" d="M22 17h1v1h-1z"/><path fill="#FABF1B" d="M23 17h1v1h-1zM24 17h1v1h-1zM25 17h1v1h-1zM26 17h1v1h-1z"/><path fill="#A98019" d="M27 17h1v1h-1z"/><path fill="#231815" d="M28 17h1v1h-1zM29 17h1v1h-1zM30 17h1v1h-1zM31 17h1v1h-1zM32 17h1v1h-1zM33 17h1v1h-1zM34 17h1v1h-1zM35 17h1v1h-1zM36 17h1v1h-1zM37 17h1v1h-1zM38 17h1v1h-1zM39 17h1v1h-1zM40 17h1v1h-1zM41 17h1v1h-1zM42 17h1v1h-1zM43 17h1v1h-1zM44 17h1v1h-1zM45 17h1v1h-1zM46 17h1v1h-1zM47 17h1v1h-1zM48 17h1v1h-1zM49 17h1v1h-1zM50 17h1v1h-1zM51 17h1v1h-1zM52 17h1v1h-1zM53 17h1v1h-1zM54 17h1v1h-1zM55 17h1v1h-1zM56 17h1v1h-1zM4 18h1v1H4zM5 18h1v1H5zM6 18h1v1H6zM7 18h1v1H7z"/><path fill="#302215" d="M8 18h1v1H8z"/><path fill="#DFAA1A" d="M9 18h1v1H9z"/><path fill="#FABF1B" d="M10 18h1v1h-1zM11 18h1v1h-1zM12 18h1v1h-1zM13 18h1v1h-1z"/><path fill="#FDE02D" d="M14 18h1v1h-1z"/><path fill="#FFF338" d="M15 18h1v1h-1zM16 18h1v1h-1zM17 18h1v1h-1zM18 18h1v1h-1zM19 18h1v1h-1zM20 18h1v1h-1zM21 18h1v1h-1z"/><path fill="#FDE02D" d="M22 18h1v1h-1z"/><path fill="#FABF1B" d="M23 18h1v1h-1zM24 18h1v1h-1zM25 18h1v1h-1zM26 18h1v1h-1zM27 18h1v1h-1z"/><path fill="#A98019" d="M28 18h1v1h-1z"/><path fill="#231815" d="M29 18h1v1h-1zM30 18h1v1h-1zM31 18h1v1h-1zM32 18h1v1h-1zM33 18h1v1h-1zM34 18h1v1h-1zM35 18h1v1h-1z"/><path fill="#4B3716" d="M36 18h1v1h-1z"/><path fill="#745717" d="M37 18h1v1h-1z"/><path fill="#9C7618" d="M38 18h1v1h-1z"/><path fill="#C4951A" d="M39 18h1v1h-1zM40 18h1v1h-1z"/><path fill="#DFAA1A" d="M41 18h1v1h-1z"/><path fill="#FABF1B" d="M42 18h1v1h-1zM43 18h1v1h-1z"/><path fill="#D2A01A" d="M44 18h1v1h-1z"/><path fill="#C4951A" d="M45 18h1v1h-1z"/><path fill="#B78B19" d="M46 18h1v1h-1z"/><path fill="#8F6C18" d="M47 18h1v1h-1z"/><path fill="#664C17" d="M48 18h1v1h-1z"/><path fill="#3E2D16" d="M49 18h1v1h-1z"/><path fill="#231815" d="M50 18h1v1h-1zM51 18h1v1h-1zM52 18h1v1h-1zM53 18h1v1h-1zM54 18h1v1h-1zM55 18h1v1h-1zM56 18h1v1h-1zM57 18h1v1h-1zM58 18h1v1h-1zM5 19h1v1H5zM6 19h1v1H6zM7 19h1v1H7zM8 19h1v1H8z"/><path fill="#4B3716" d="M9 19h1v1H9z"/><path fill="#EDB51B" d="M10 19h1v1h-1z"/><path fill="#FABF1B" d="M11 19h1v1h-1zM12 19h1v1h-1zM13 19h1v1h-1zM14 19h1v1h-1z"/><path fill="#FEE631" d="M15 19h1v1h-1z"/><path fill="#FFF338" d="M16 19h1v1h-1zM17 19h1v1h-1zM18 19h1v1h-1zM19 19h1v1h-1zM20 19h1v1h-1zM21 19h1v1h-1zM22 19h1v1h-1z"/><path fill="#FBCC22" d="M23 19h1v1h-1z"/><path fill="#FABF1B" d="M24 19h1v1h-1zM25 19h1v1h-1zM26 19h1v1h-1zM27 19h1v1h-1zM28 19h1v1h-1z"/><path fill="#C4951A" d="M29 19h1v1h-1z"/><path fill="#302215" d="M30 19h1v1h-1z"/><path fill="#231815" d="M31 19h1v1h-1zM32 19h1v1h-1z"/><path fill="#3E2D16" d="M33 19h1v1h-1z"/><path fill="#A98019" d="M34 19h1v1h-1z"/><path fill="#EDB51B" d="M35 19h1v1h-1z"/><path fill="#FABF1B" d="M36 19h1v1h-1zM37 19h1v1h-1zM38 19h1v1h-1zM39 19h1v1h-1zM40 19h1v1h-1zM41 19h1v1h-1zM42 19h1v1h-1zM43 19h1v1h-1zM44 19h1v1h-1zM45 19h1v1h-1zM46 19h1v1h-1zM47 19h1v1h-1zM48 19h1v1h-1zM49 19h1v1h-1z"/><path fill="#DFAA1A" d="M50 19h1v1h-1z"/><path fill="#A98019" d="M51 19h1v1h-1z"/><path fill="#664C17" d="M52 19h1v1h-1z"/><path fill="#231815" d="M53 19h1v1h-1zM54 19h1v1h-1zM55 19h1v1h-1zM56 19h1v1h-1zM57 19h1v1h-1zM58 19h1v1h-1zM59 19h1v1h-1zM60 19h1v1h-1zM6 20h1v1H6zM7 20h1v1H7zM8 20h1v1H8zM9 20h1v1H9z"/><path fill="#664C17" d="M10 20h1v1h-1z"/><path fill="#FABF1B" d="M11 20h1v1h-1zM12 20h1v1h-1zM13 20h1v1h-1zM14 20h1v1h-1z"/><path fill="#FAC21D" d="M15 20h1v1h-1z"/><path fill="#FEE933" d="M16 20h1v1h-1z"/><path fill="#FFF338" d="M17 20h1v1h-1zM18 20h1v1h-1zM19 20h1v1h-1zM20 20h1v1h-1zM21 20h1v1h-1zM22 20h1v1h-1z"/><path fill="#FDE32F" d="M23 20h1v1h-1z"/><path fill="#FABF1B" d="M24 20h1v1h-1zM25 20h1v1h-1zM26 20h1v1h-1zM27 20h1v1h-1zM28 20h1v1h-1zM29 20h1v1h-1z"/><path fill="#D2A01A" d="M30 20h1v1h-1z"/><path fill="#302215" d="M31 20h1v1h-1z"/><path fill="#231815" d="M32 20h1v1h-1z"/><path fill="#664C17" d="M33 20h1v1h-1z"/><path fill="#FABF1B" d="M34 20h1v1h-1zM35 20h1v1h-1zM36 20h1v1h-1z"/><path fill="#FBCC22" d="M37 20h1v1h-1z"/><path fill="#FCD326" d="M38 20h1v1h-1z"/><path fill="#FDD92A" d="M39 20h1v1h-1zM40 20h1v1h-1zM41 20h1v1h-1zM42 20h1v1h-1zM43 20h1v1h-1z"/><path fill="#FCD326" d="M44 20h1v1h-1z"/><path fill="#FBCC22" d="M45 20h1v1h-1z"/><path fill="#FABF1B" d="M46 20h1v1h-1zM47 20h1v1h-1zM48 20h1v1h-1zM49 20h1v1h-1zM50 20h1v1h-1zM51 20h1v1h-1zM52 20h1v1h-1z"/><path fill="#EDB51B" d="M53 20h1v1h-1z"/><path fill="#8F6C18" d="M54 20h1v1h-1z"/><path fill="#3E2D16" d="M55 20h1v1h-1z"/><path fill="#231815" d="M56 20h1v1h-1zM57 20h1v1h-1zM58 20h1v1h-1zM59 20h1v1h-1zM60 20h1v1h-1zM61 20h1v1h-1zM7 21h1v1H7zM8 21h1v1H8zM9 21h1v1H9zM10 21h1v1h-1z"/><path fill="#8F6C18" d="M11 21h1v1h-1z"/><path fill="#FABF1B" d="M12 21h1v1h-1zM13 21h1v1h-1zM14 21h1v1h-1zM15 21h1v1h-1z"/><path fill="#FAC21D" d="M16 21h1v1h-1z"/><path fill="#FEE933" d="M17 21h1v1h-1z"/><path fill="#FFF338" d="M18 21h1v1h-1zM19 21h1v1h-1zM20 21h1v1h-1zM21 21h1v1h-1zM22 21h1v1h-1z"/><path fill="#FEE631" d="M23 21h1v1h-1z"/><path fill="#FABF1B" d="M24 21h1v1h-1zM25 21h1v1h-1zM26 21h1v1h-1zM27 21h1v1h-1zM28 21h1v1h-1zM29 21h1v1h-1zM30 21h1v1h-1z"/><path fill="#DFAA1A" d="M31 21h1v1h-1z"/><path fill="#C4951A" d="M32 21h1v1h-1z"/><path fill="#EEBE20" d="M33 21h1v1h-1z"/><path fill="#FDDC2B" d="M34 21h1v1h-1z"/><path fill="#FEE933" d="M35 21h1v1h-1z"/><path fill="#FFF338" d="M36 21h1v1h-1zM37 21h1v1h-1zM38 21h1v1h-1zM39 21h1v1h-1zM40 21h1v1h-1zM41 21h1v1h-1zM42 21h1v1h-1zM43 21h1v1h-1zM44 21h1v1h-1zM45 21h1v1h-1zM46 21h1v1h-1z"/><path fill="#FEE933" d="M47 21h1v1h-1z"/><path fill="#FDDC2B" d="M48 21h1v1h-1z"/><path fill="#FBC920" d="M49 21h1v1h-1z"/><path fill="#FABF1B" d="M50 21h1v1h-1zM51 21h1v1h-1zM52 21h1v1h-1zM53 21h1v1h-1zM54 21h1v1h-1zM55 21h1v1h-1z"/><path fill="#A98019" d="M56 21h1v1h-1z"/><path fill="#3E2D16" d="M57 21h1v1h-1z"/><path fill="#231815" d="M58 21h1v1h-1zM59 21h1v1h-1zM60 21h1v1h-1zM61 21h1v1h-1zM62 21h1v1h-1zM63 21h1v1h-1zM8 22h1v1H8zM9 22h1v1H9zM10 22h1v1h-1zM11 22h1v1h-1z"/><path fill="#A98019" d="M12 22h1v1h-1z"/><path fill="#FABF1B" d="M13 22h1v1h-1zM14 22h1v1h-1zM15 22h1v1h-1zM16 22h1v1h-1z"/><path fill="#FAC21D" d="M17 22h1v1h-1z"/><path fill="#FDE32F" d="M18 22h1v1h-1z"/><path fill="#FFF338" d="M19 22h1v1h-1zM20 22h1v1h-1zM21 22h1v1h-1zM22 22h1v1h-1z"/><path fill="#FDE32F" d="M23 22h1v1h-1z"/><path fill="#FABF1B" d="M24 22h1v1h-1zM25 22h1v1h-1zM26 22h1v1h-1zM27 22h1v1h-1zM28 22h1v1h-1zM29 22h1v1h-1zM30 22h1v1h-1z"/><path fill="#FCD326" d="M31 22h1v1h-1z"/><path fill="#FEED34" d="M32 22h1v1h-1z"/><path fill="#FFF338" d="M33 22h1v1h-1zM34 22h1v1h-1zM35 22h1v1h-1zM36 22h1v1h-1zM37 22h1v1h-1zM38 22h1v1h-1zM39 22h1v1h-1zM40 22h1v1h-1zM41 22h1v1h-1zM42 22h1v1h-1zM43 22h1v1h-1zM44 22h1v1h-1zM45 22h1v1h-1zM46 22h1v1h-1zM47 22h1v1h-1zM48 22h1v1h-1zM49 22h1v1h-1z"/><path fill="#FEED34" d="M50 22h1v1h-1z"/><path fill="#FCD326" d="M51 22h1v1h-1z"/><path fill="#FABF1B" d="M52 22h1v1h-1zM53 22h1v1h-1zM54 22h1v1h-1zM55 22h1v1h-1zM56 22h1v1h-1zM57 22h1v1h-1z"/><path fill="#8F6C18" d="M58 22h1v1h-1z"/><path fill="#302215" d="M59 22h1v1h-1z"/><path fill="#231815" d="M60 22h1v1h-1zM61 22h1v1h-1zM62 22h1v1h-1zM63 22h1v1h-1zM64 22h1v1h-1zM8 23h1v1H8zM9 23h1v1H9zM10 23h1v1h-1zM11 23h1v1h-1z"/><path fill="#302215" d="M12 23h1v1h-1z"/><path fill="#D2A01A" d="M13 23h1v1h-1z"/><path fill="#FABF1B" d="M14 23h1v1h-1zM15 23h1v1h-1zM16 23h1v1h-1zM17 23h1v1h-1zM18 23h1v1h-1z"/><path fill="#FCD628" d="M19 23h1v1h-1z"/><path fill="#FFF036" d="M20 23h1v1h-1z"/><path fill="#FFF338" d="M21 23h1v1h-1z"/><path fill="#FFF036" d="M22 23h1v1h-1z"/><path fill="#FBC920" d="M23 23h1v1h-1z"/><path fill="#FABF1B" d="M24 23h1v1h-1zM25 23h1v1h-1zM26 23h1v1h-1zM27 23h1v1h-1zM28 23h1v1h-1z"/><path fill="#FCD326" d="M29 23h1v1h-1z"/><path fill="#FEED34" d="M30 23h1v1h-1z"/><path fill="#FFF338" d="M31 23h1v1h-1zM32 23h1v1h-1zM33 23h1v1h-1zM34 23h1v1h-1zM35 23h1v1h-1zM36 23h1v1h-1zM37 23h1v1h-1zM38 23h1v1h-1zM39 23h1v1h-1zM40 23h1v1h-1zM41 23h1v1h-1zM42 23h1v1h-1zM43 23h1v1h-1zM44 23h1v1h-1zM45 23h1v1h-1zM46 23h1v1h-1zM47 23h1v1h-1zM48 23h1v1h-1zM49 23h1v1h-1zM50 23h1v1h-1zM51 23h1v1h-1z"/><path fill="#FEED34" d="M52 23h1v1h-1z"/><path fill="#FCD326" d="M53 23h1v1h-1z"/><path fill="#FABF1B" d="M54 23h1v1h-1zM55 23h1v1h-1zM56 23h1v1h-1zM57 23h1v1h-1zM58 23h1v1h-1z"/><path fill="#DFAA1A" d="M59 23h1v1h-1z"/><path fill="#594217" d="M60 23h1v1h-1z"/><path fill="#231815" d="M61 23h1v1h-1zM62 23h1v1h-1zM63 23h1v1h-1zM64 23h1v1h-1zM65 23h1v1h-1zM9 24h1v1H9zM10 24h1v1h-1zM11 24h1v1h-1zM12 24h1v1h-1z"/><path fill="#302215" d="M13 24h1v1h-1z"/><path fill="#DFAA1A" d="M14 24h1v1h-1z"/><path fill="#FABF1B" d="M15 24h1v1h-1zM16 24h1v1h-1zM17 24h1v1h-1zM18 24h1v1h-1zM19 24h1v1h-1zM20 24h1v1h-1z"/><path fill="#FBCC22" d="M21 24h1v1h-1z"/><path fill="#FAC21D" d="M22 24h1v1h-1z"/><path fill="#FABF1B" d="M23 24h1v1h-1zM24 24h1v1h-1zM25 24h1v1h-1zM26 24h1v1h-1z"/><path fill="#FBC61F" d="M27 24h1v1h-1z"/><path fill="#FEE631" d="M28 24h1v1h-1z"/><path fill="#FFF338" d="M29 24h1v1h-1zM30 24h1v1h-1zM31 24h1v1h-1zM32 24h1v1h-1zM33 24h1v1h-1zM34 24h1v1h-1zM35 24h1v1h-1zM36 24h1v1h-1zM37 24h1v1h-1zM38 24h1v1h-1zM39 24h1v1h-1zM40 24h1v1h-1zM41 24h1v1h-1zM42 24h1v1h-1zM43 24h1v1h-1zM44 24h1v1h-1zM45 24h1v1h-1zM46 24h1v1h-1zM47 24h1v1h-1zM48 24h1v1h-1zM49 24h1v1h-1zM50 24h1v1h-1zM51 24h1v1h-1zM52 24h1v1h-1zM53 24h1v1h-1z"/><path fill="#FEE631" d="M54 24h1v1h-1z"/><path fill="#FBC61F" d="M55 24h1v1h-1z"/><path fill="#FABF1B" d="M56 24h1v1h-1zM57 24h1v1h-1zM58 24h1v1h-1zM59 24h1v1h-1zM60 24h1v1h-1z"/><path fill="#8F6C18" d="M61 24h1v1h-1z"/><path fill="#231815" d="M62 24h1v1h-1zM63 24h1v1h-1zM64 24h1v1h-1zM65 24h1v1h-1zM66 24h1v1h-1zM10 25h1v1h-1zM11 25h1v1h-1zM12 25h1v1h-1zM13 25h1v1h-1z"/><path fill="#4B3716" d="M14 25h1v1h-1z"/><path fill="#EDB51B" d="M15 25h1v1h-1z"/><path fill="#FABF1B" d="M16 25h1v1h-1zM17 25h1v1h-1zM18 25h1v1h-1zM19 25h1v1h-1zM20 25h1v1h-1zM21 25h1v1h-1zM22 25h1v1h-1zM23 25h1v1h-1zM24 25h1v1h-1zM25 25h1v1h-1z"/><path fill="#FCD326" d="M26 25h1v1h-1z"/><path fill="#FFF036" d="M27 25h1v1h-1z"/><path fill="#FFF338" d="M28 25h1v1h-1zM29 25h1v1h-1zM30 25h1v1h-1zM31 25h1v1h-1zM32 25h1v1h-1zM33 25h1v1h-1zM34 25h1v1h-1zM35 25h1v1h-1zM36 25h1v1h-1zM37 25h1v1h-1zM38 25h1v1h-1zM39 25h1v1h-1zM40 25h1v1h-1zM41 25h1v1h-1zM42 25h1v1h-1zM43 25h1v1h-1zM44 25h1v1h-1zM45 25h1v1h-1zM46 25h1v1h-1zM47 25h1v1h-1zM48 25h1v1h-1zM49 25h1v1h-1zM50 25h1v1h-1zM51 25h1v1h-1zM52 25h1v1h-1zM53 25h1v1h-1zM54 25h1v1h-1z"/><path fill="#FFF036" d="M55 25h1v1h-1z"/><path fill="#FCCF24" d="M56 25h1v1h-1z"/><path fill="#FABF1B" d="M57 25h1v1h-1zM58 25h1v1h-1zM59 25h1v1h-1zM60 25h1v1h-1zM61 25h1v1h-1z"/><path fill="#B78B19" d="M62 25h1v1h-1z"/><path fill="#302215" d="M63 25h1v1h-1z"/><path fill="#231815" d="M64 25h1v1h-1zM65 25h1v1h-1zM66 25h1v1h-1zM67 25h1v1h-1zM11 26h1v1h-1zM12 26h1v1h-1zM13 26h1v1h-1zM14 26h1v1h-1z"/><path fill="#594217" d="M15 26h1v1h-1z"/><path fill="#FABF1B" d="M16 26h1v1h-1zM17 26h1v1h-1zM18 26h1v1h-1zM19 26h1v1h-1zM20 26h1v1h-1zM21 26h1v1h-1zM22 26h1v1h-1zM23 26h1v1h-1zM24 26h1v1h-1z"/><path fill="#FDD92A" d="M25 26h1v1h-1z"/><path fill="#FFF338" d="M26 26h1v1h-1zM27 26h1v1h-1zM28 26h1v1h-1zM29 26h1v1h-1zM30 26h1v1h-1zM31 26h1v1h-1zM32 26h1v1h-1zM33 26h1v1h-1zM34 26h1v1h-1zM35 26h1v1h-1zM36 26h1v1h-1zM37 26h1v1h-1zM38 26h1v1h-1zM39 26h1v1h-1zM40 26h1v1h-1zM41 26h1v1h-1zM42 26h1v1h-1zM43 26h1v1h-1zM44 26h1v1h-1zM45 26h1v1h-1zM46 26h1v1h-1zM47 26h1v1h-1zM48 26h1v1h-1zM49 26h1v1h-1zM50 26h1v1h-1zM51 26h1v1h-1zM52 26h1v1h-1zM53 26h1v1h-1zM54 26h1v1h-1zM55 26h1v1h-1zM56 26h1v1h-1z"/><path fill="#FCD628" d="M57 26h1v1h-1z"/><path fill="#FABF1B" d="M58 26h1v1h-1zM59 26h1v1h-1zM60 26h1v1h-1zM61 26h1v1h-1zM62 26h1v1h-1z"/><path fill="#D2A01A" d="M63 26h1v1h-1z"/><path fill="#302215" d="M64 26h1v1h-1z"/><path fill="#231815" d="M65 26h1v1h-1zM66 26h1v1h-1zM67 26h1v1h-1zM68 26h1v1h-1zM12 27h1v1h-1zM13 27h1v1h-1zM14 27h1v1h-1zM15 27h1v1h-1z"/><path fill="#745717" d="M16 27h1v1h-1z"/><path fill="#FABF1B" d="M17 27h1v1h-1zM18 27h1v1h-1zM19 27h1v1h-1zM20 27h1v1h-1zM21 27h1v1h-1zM22 27h1v1h-1zM23 27h1v1h-1z"/><path fill="#FDE02D" d="M24 27h1v1h-1z"/><path fill="#FFF338" d="M25 27h1v1h-1zM26 27h1v1h-1zM27 27h1v1h-1zM28 27h1v1h-1zM29 27h1v1h-1zM30 27h1v1h-1zM31 27h1v1h-1zM32 27h1v1h-1zM33 27h1v1h-1zM34 27h1v1h-1zM35 27h1v1h-1zM36 27h1v1h-1zM37 27h1v1h-1zM38 27h1v1h-1zM39 27h1v1h-1zM40 27h1v1h-1zM41 27h1v1h-1zM42 27h1v1h-1zM43 27h1v1h-1zM44 27h1v1h-1zM45 27h1v1h-1zM46 27h1v1h-1zM47 27h1v1h-1zM48 27h1v1h-1zM49 27h1v1h-1zM50 27h1v1h-1zM51 27h1v1h-1zM52 27h1v1h-1zM53 27h1v1h-1zM54 27h1v1h-1zM55 27h1v1h-1zM56 27h1v1h-1zM57 27h1v1h-1z"/><path fill="#FDE02D" d="M58 27h1v1h-1z"/><path fill="#FABF1B" d="M59 27h1v1h-1zM60 27h1v1h-1zM61 27h1v1h-1zM62 27h1v1h-1zM63 27h1v1h-1z"/><path fill="#D2A01A" d="M64 27h1v1h-1z"/><path fill="#302215" d="M65 27h1v1h-1z"/><path fill="#231815" d="M66 27h1v1h-1zM67 27h1v1h-1zM68 27h1v1h-1zM69 27h1v1h-1zM13 28h1v1h-1zM14 28h1v1h-1zM15 28h1v1h-1zM16 28h1v1h-1z"/><path fill="#816118" d="M17 28h1v1h-1z"/><path fill="#FABF1B" d="M18 28h1v1h-1zM19 28h1v1h-1zM20 28h1v1h-1zM21 28h1v1h-1zM22 28h1v1h-1z"/><path fill="#FDDC2B" d="M23 28h1v1h-1z"/><path fill="#FFF338" d="M24 28h1v1h-1zM25 28h1v1h-1zM26 28h1v1h-1zM27 28h1v1h-1zM28 28h1v1h-1zM29 28h1v1h-1zM30 28h1v1h-1zM31 28h1v1h-1zM32 28h1v1h-1zM33 28h1v1h-1zM34 28h1v1h-1zM35 28h1v1h-1zM36 28h1v1h-1zM37 28h1v1h-1zM38 28h1v1h-1zM39 28h1v1h-1zM40 28h1v1h-1zM41 28h1v1h-1zM42 28h1v1h-1zM43 28h1v1h-1zM44 28h1v1h-1zM45 28h1v1h-1zM46 28h1v1h-1zM47 28h1v1h-1zM48 28h1v1h-1zM49 28h1v1h-1zM50 28h1v1h-1zM51 28h1v1h-1zM52 28h1v1h-1zM53 28h1v1h-1zM54 28h1v1h-1zM55 28h1v1h-1zM56 28h1v1h-1zM57 28h1v1h-1zM58 28h1v1h-1z"/><path fill="#FDD92A" d="M59 28h1v1h-1z"/><path fill="#FABF1B" d="M60 28h1v1h-1zM61 28h1v1h-1zM62 28h1v1h-1zM63 28h1v1h-1zM64 28h1v1h-1z"/><path fill="#D2A01A" d="M65 28h1v1h-1z"/><path fill="#302215" d="M66 28h1v1h-1z"/><path fill="#231815" d="M67 28h1v1h-1zM68 28h1v1h-1zM69 28h1v1h-1zM70 28h1v1h-1zM14 29h1v1h-1zM15 29h1v1h-1zM16 29h1v1h-1zM17 29h1v1h-1z"/><path fill="#A98019" d="M18 29h1v1h-1z"/><path fill="#FABF1B" d="M19 29h1v1h-1zM20 29h1v1h-1zM21 29h1v1h-1z"/><path fill="#FCD326" d="M22 29h1v1h-1z"/><path fill="#FFF338" d="M23 29h1v1h-1zM24 29h1v1h-1zM25 29h1v1h-1zM26 29h1v1h-1zM27 29h1v1h-1zM28 29h1v1h-1zM29 29h1v1h-1zM30 29h1v1h-1zM31 29h1v1h-1zM32 29h1v1h-1zM33 29h1v1h-1zM34 29h1v1h-1zM35 29h1v1h-1zM36 29h1v1h-1zM37 29h1v1h-1zM38 29h1v1h-1zM39 29h1v1h-1zM40 29h1v1h-1zM41 29h1v1h-1zM42 29h1v1h-1zM43 29h1v1h-1zM44 29h1v1h-1zM45 29h1v1h-1zM46 29h1v1h-1zM47 29h1v1h-1zM48 29h1v1h-1zM49 29h1v1h-1zM50 29h1v1h-1zM51 29h1v1h-1zM52 29h1v1h-1zM53 29h1v1h-1zM54 29h1v1h-1zM55 29h1v1h-1zM56 29h1v1h-1zM57 29h1v1h-1zM58 29h1v1h-1zM59 29h1v1h-1z"/><path fill="#FCD326" d="M60 29h1v1h-1z"/><path fill="#FABF1B" d="M61 29h1v1h-1zM62 29h1v1h-1zM63 29h1v1h-1zM64 29h1v1h-1zM65 29h1v1h-1z"/><path fill="#C4951A" d="M66 29h1v1h-1z"/><path fill="#231815" d="M67 29h1v1h-1zM68 29h1v1h-1zM69 29h1v1h-1zM70 29h1v1h-1zM14 30h1v1h-1zM15 30h1v1h-1zM16 30h1v1h-1zM17 30h1v1h-1zM18 30h1v1h-1z"/><path fill="#B78B19" d="M19 30h1v1h-1z"/><path fill="#FABF1B" d="M20 30h1v1h-1z"/><path fill="#FBC920" d="M21 30h1v1h-1z"/><path fill="#FFF036" d="M22 30h1v1h-1z"/><path fill="#FFF338" d="M23 30h1v1h-1zM24 30h1v1h-1zM25 30h1v1h-1zM26 30h1v1h-1zM27 30h1v1h-1zM28 30h1v1h-1zM29 30h1v1h-1zM30 30h1v1h-1zM31 30h1v1h-1zM32 30h1v1h-1zM33 30h1v1h-1zM34 30h1v1h-1zM35 30h1v1h-1zM36 30h1v1h-1zM37 30h1v1h-1zM38 30h1v1h-1zM39 30h1v1h-1zM40 30h1v1h-1zM41 30h1v1h-1zM42 30h1v1h-1zM43 30h1v1h-1zM44 30h1v1h-1zM45 30h1v1h-1zM46 30h1v1h-1zM47 30h1v1h-1zM48 30h1v1h-1zM49 30h1v1h-1zM50 30h1v1h-1zM51 30h1v1h-1zM52 30h1v1h-1zM53 30h1v1h-1zM54 30h1v1h-1zM55 30h1v1h-1zM56 30h1v1h-1zM57 30h1v1h-1zM58 30h1v1h-1zM59 30h1v1h-1z"/><path fill="#FFF036" d="M60 30h1v1h-1z"/><path fill="#FBC920" d="M61 30h1v1h-1z"/><path fill="#FABF1B" d="M62 30h1v1h-1zM63 30h1v1h-1zM64 30h1v1h-1zM65 30h1v1h-1zM66 30h1v1h-1z"/><path fill="#9C7618" d="M67 30h1v1h-1z"/><path fill="#231815" d="M68 30h1v1h-1zM69 30h1v1h-1zM70 30h1v1h-1zM71 30h1v1h-1zM15 31h1v1h-1zM16 31h1v1h-1zM17 31h1v1h-1zM18 31h1v1h-1z"/><path fill="#594217" d="M19 31h1v1h-1z"/><path fill="#FABF1B" d="M20 31h1v1h-1z"/><path fill="#FEE933" d="M21 31h1v1h-1z"/><path fill="#FFF338" d="M22 31h1v1h-1zM23 31h1v1h-1zM24 31h1v1h-1zM25 31h1v1h-1zM26 31h1v1h-1zM27 31h1v1h-1zM28 31h1v1h-1zM29 31h1v1h-1zM30 31h1v1h-1zM31 31h1v1h-1zM32 31h1v1h-1zM33 31h1v1h-1zM34 31h1v1h-1zM35 31h1v1h-1zM36 31h1v1h-1zM37 31h1v1h-1zM38 31h1v1h-1zM39 31h1v1h-1zM40 31h1v1h-1zM41 31h1v1h-1zM42 31h1v1h-1zM43 31h1v1h-1zM44 31h1v1h-1zM45 31h1v1h-1zM46 31h1v1h-1zM47 31h1v1h-1zM48 31h1v1h-1zM49 31h1v1h-1zM50 31h1v1h-1zM51 31h1v1h-1zM52 31h1v1h-1zM53 31h1v1h-1zM54 31h1v1h-1zM55 31h1v1h-1zM56 31h1v1h-1zM57 31h1v1h-1zM58 31h1v1h-1zM59 31h1v1h-1zM60 31h1v1h-1z"/><path fill="#FEE933" d="M61 31h1v1h-1z"/><path fill="#FABF1B" d="M62 31h1v1h-1zM63 31h1v1h-1zM64 31h1v1h-1zM65 31h1v1h-1zM66 31h1v1h-1zM67 31h1v1h-1z"/><path fill="#594217" d="M68 31h1v1h-1z"/><path fill="#231815" d="M69 31h1v1h-1zM70 31h1v1h-1zM71 31h1v1h-1zM14 32h1v1h-1zM15 32h1v1h-1zM16 32h1v1h-1zM17 32h1v1h-1zM18 32h1v1h-1z"/><path fill="#A98019" d="M19 32h1v1h-1z"/><path fill="#FDD92A" d="M20 32h1v1h-1z"/><path fill="#FFF338" d="M21 32h1v1h-1zM22 32h1v1h-1zM23 32h1v1h-1zM24 32h1v1h-1zM25 32h1v1h-1zM26 32h1v1h-1zM27 32h1v1h-1zM28 32h1v1h-1zM29 32h1v1h-1zM30 32h1v1h-1zM31 32h1v1h-1zM32 32h1v1h-1zM33 32h1v1h-1zM34 32h1v1h-1zM35 32h1v1h-1zM36 32h1v1h-1zM37 32h1v1h-1zM38 32h1v1h-1zM39 32h1v1h-1zM40 32h1v1h-1zM41 32h1v1h-1zM42 32h1v1h-1zM43 32h1v1h-1zM44 32h1v1h-1zM45 32h1v1h-1zM46 32h1v1h-1zM47 32h1v1h-1zM48 32h1v1h-1zM49 32h1v1h-1zM50 32h1v1h-1zM51 32h1v1h-1zM52 32h1v1h-1zM53 32h1v1h-1zM54 32h1v1h-1zM55 32h1v1h-1zM56 32h1v1h-1zM57 32h1v1h-1zM58 32h1v1h-1zM59 32h1v1h-1zM60 32h1v1h-1zM61 32h1v1h-1z"/><path fill="#FCD628" d="M62 32h1v1h-1z"/><path fill="#FABF1B" d="M63 32h1v1h-1zM64 32h1v1h-1zM65 32h1v1h-1zM66 32h1v1h-1zM67 32h1v1h-1z"/><path fill="#DFAA1A" d="M68 32h1v1h-1z"/><path fill="#231815" d="M69 32h1v1h-1zM70 32h1v1h-1zM71 32h1v1h-1zM72 32h1v1h-1zM14 33h1v1h-1zM15 33h1v1h-1zM16 33h1v1h-1z"/><path fill="#3E2D16" d="M17 33h1v1h-1z"/><path fill="#FABF1B" d="M18 33h1v1h-1z"/><path fill="#FAC21D" d="M19 33h1v1h-1z"/><path fill="#FFF036" d="M20 33h1v1h-1z"/><path fill="#FFF338" d="M21 33h1v1h-1zM22 33h1v1h-1zM23 33h1v1h-1zM24 33h1v1h-1zM25 33h1v1h-1zM26 33h1v1h-1zM27 33h1v1h-1zM28 33h1v1h-1zM29 33h1v1h-1zM30 33h1v1h-1zM31 33h1v1h-1zM32 33h1v1h-1zM33 33h1v1h-1zM34 33h1v1h-1zM35 33h1v1h-1zM36 33h1v1h-1zM37 33h1v1h-1zM38 33h1v1h-1zM39 33h1v1h-1zM40 33h1v1h-1zM41 33h1v1h-1zM42 33h1v1h-1zM43 33h1v1h-1zM44 33h1v1h-1zM45 33h1v1h-1zM46 33h1v1h-1zM47 33h1v1h-1zM48 33h1v1h-1zM49 33h1v1h-1zM50 33h1v1h-1zM51 33h1v1h-1zM52 33h1v1h-1zM53 33h1v1h-1zM54 33h1v1h-1zM55 33h1v1h-1zM56 33h1v1h-1zM57 33h1v1h-1zM58 33h1v1h-1zM59 33h1v1h-1zM60 33h1v1h-1zM61 33h1v1h-1z"/><path fill="#FFF036" d="M62 33h1v1h-1z"/><path fill="#FAC21D" d="M63 33h1v1h-1z"/><path fill="#FABF1B" d="M64 33h1v1h-1zM65 33h1v1h-1zM66 33h1v1h-1zM67 33h1v1h-1zM68 33h1v1h-1z"/><path fill="#8F6C18" d="M69 33h1v1h-1z"/><path fill="#231815" d="M70 33h1v1h-1zM71 33h1v1h-1zM72 33h1v1h-1zM13 34h1v1h-1zM14 34h1v1h-1zM15 34h1v1h-1zM16 34h1v1h-1z"/><path fill="#A98019" d="M17 34h1v1h-1z"/><path fill="#FABF1B" d="M18 34h1v1h-1z"/><path fill="#FDD92A" d="M19 34h1v1h-1z"/><path fill="#FFF338" d="M20 34h1v1h-1zM21 34h1v1h-1zM22 34h1v1h-1zM23 34h1v1h-1zM24 34h1v1h-1zM25 34h1v1h-1zM26 34h1v1h-1zM27 34h1v1h-1zM28 34h1v1h-1zM29 34h1v1h-1zM30 34h1v1h-1zM31 34h1v1h-1zM32 34h1v1h-1zM33 34h1v1h-1zM34 34h1v1h-1zM35 34h1v1h-1zM36 34h1v1h-1zM37 34h1v1h-1zM38 34h1v1h-1zM39 34h1v1h-1zM40 34h1v1h-1zM41 34h1v1h-1zM42 34h1v1h-1zM43 34h1v1h-1zM44 34h1v1h-1zM45 34h1v1h-1zM46 34h1v1h-1zM47 34h1v1h-1zM48 34h1v1h-1zM49 34h1v1h-1zM50 34h1v1h-1zM51 34h1v1h-1zM52 34h1v1h-1zM53 34h1v1h-1zM54 34h1v1h-1zM55 34h1v1h-1zM56 34h1v1h-1zM57 34h1v1h-1zM58 34h1v1h-1zM59 34h1v1h-1zM60 34h1v1h-1zM61 34h1v1h-1zM62 34h1v1h-1z"/><path fill="#FDD92A" d="M63 34h1v1h-1z"/><path fill="#FABF1B" d="M64 34h1v1h-1zM65 34h1v1h-1zM66 34h1v1h-1zM67 34h1v1h-1zM68 34h1v1h-1z"/><path fill="#EDB51B" d="M69 34h1v1h-1z"/><path fill="#302215" d="M70 34h1v1h-1z"/><path fill="#231815" d="M71 34h1v1h-1zM72 34h1v1h-1zM73 34h1v1h-1zM13 35h1v1h-1zM14 35h1v1h-1zM15 35h1v1h-1z"/><path fill="#3E2D16" d="M16 35h1v1h-1z"/><path fill="#FABF1B" d="M17 35h1v1h-1z"/><path fill="#FAC21D" d="M18 35h1v1h-1z"/><path fill="#FFF036" d="M19 35h1v1h-1z"/><path fill="#FFF338" d="M20 35h1v1h-1zM21 35h1v1h-1zM22 35h1v1h-1zM23 35h1v1h-1zM24 35h1v1h-1zM25 35h1v1h-1zM26 35h1v1h-1zM27 35h1v1h-1zM28 35h1v1h-1zM29 35h1v1h-1zM30 35h1v1h-1zM31 35h1v1h-1z"/><path fill="#FFF441" d="M32 35h1v1h-1z"/><path fill="#FFF55C" d="M33 35h1v1h-1zM34 35h1v1h-1z"/><path fill="#FFF441" d="M35 35h1v1h-1z"/><path fill="#FFF338" d="M36 35h1v1h-1zM37 35h1v1h-1zM38 35h1v1h-1zM39 35h1v1h-1zM40 35h1v1h-1zM41 35h1v1h-1zM42 35h1v1h-1zM43 35h1v1h-1zM44 35h1v1h-1zM45 35h1v1h-1zM46 35h1v1h-1zM47 35h1v1h-1zM48 35h1v1h-1zM49 35h1v1h-1zM50 35h1v1h-1zM51 35h1v1h-1zM52 35h1v1h-1zM53 35h1v1h-1zM54 35h1v1h-1zM55 35h1v1h-1zM56 35h1v1h-1zM57 35h1v1h-1zM58 35h1v1h-1zM59 35h1v1h-1zM60 35h1v1h-1zM61 35h1v1h-1zM62 35h1v1h-1z"/><path fill="#FFF036" d="M63 35h1v1h-1z"/><path fill="#FAC21D" d="M64 35h1v1h-1z"/><path fill="#FABF1B" d="M65 35h1v1h-1zM66 35h1v1h-1zM67 35h1v1h-1zM68 35h1v1h-1zM69 35h1v1h-1z"/><path fill="#8F6C18" d="M70 35h1v1h-1z"/><path fill="#231815" d="M71 35h1v1h-1zM72 35h1v1h-1zM73 35h1v1h-1zM13 36h1v1h-1zM14 36h1v1h-1zM15 36h1v1h-1z"/><path fill="#816118" d="M16 36h1v1h-1z"/><path fill="#FABF1B" d="M17 36h1v1h-1z"/><path fill="#FCD326" d="M18 36h1v1h-1z"/><path fill="#FFF338" d="M19 36h1v1h-1zM20 36h1v1h-1zM21 36h1v1h-1zM22 36h1v1h-1zM23 36h1v1h-1zM24 36h1v1h-1zM25 36h1v1h-1zM26 36h1v1h-1zM27 36h1v1h-1zM28 36h1v1h-1zM29 36h1v1h-1z"/><path fill="#FFF66D" d="M30 36h1v1h-1z"/><path fill="#FFFAAB" d="M31 36h1v1h-1z"/><path fill="#FFFBC6" d="M32 36h1v1h-1zM33 36h1v1h-1zM34 36h1v1h-1zM35 36h1v1h-1z"/><path fill="#FFFAAB" d="M36 36h1v1h-1z"/><path fill="#FFF66D" d="M37 36h1v1h-1z"/><path fill="#FFF338" d="M38 36h1v1h-1zM39 36h1v1h-1zM40 36h1v1h-1zM41 36h1v1h-1zM42 36h1v1h-1zM43 36h1v1h-1zM44 36h1v1h-1zM45 36h1v1h-1zM46 36h1v1h-1zM47 36h1v1h-1zM48 36h1v1h-1zM49 36h1v1h-1zM50 36h1v1h-1zM51 36h1v1h-1zM52 36h1v1h-1zM53 36h1v1h-1zM54 36h1v1h-1zM55 36h1v1h-1zM56 36h1v1h-1zM57 36h1v1h-1zM58 36h1v1h-1zM59 36h1v1h-1zM60 36h1v1h-1zM61 36h1v1h-1zM62 36h1v1h-1zM63 36h1v1h-1z"/><path fill="#FCD326" d="M64 36h1v1h-1z"/><path fill="#FABF1B" d="M65 36h1v1h-1zM66 36h1v1h-1zM67 36h1v1h-1zM68 36h1v1h-1zM69 36h1v1h-1z"/><path fill="#DFAA1A" d="M70 36h1v1h-1z"/><path fill="#231815" d="M71 36h1v1h-1zM72 36h1v1h-1zM73 36h1v1h-1zM74 36h1v1h-1zM13 37h1v1h-1zM14 37h1v1h-1zM15 37h1v1h-1z"/><path fill="#D2A01A" d="M16 37h1v1h-1z"/><path fill="#FABF1B" d="M17 37h1v1h-1z"/><path fill="#FEE933" d="M18 37h1v1h-1z"/><path fill="#FFF338" d="M19 37h1v1h-1zM20 37h1v1h-1zM21 37h1v1h-1zM22 37h1v1h-1zM23 37h1v1h-1zM24 37h1v1h-1zM25 37h1v1h-1zM26 37h1v1h-1zM27 37h1v1h-1z"/><path fill="#FFF441" d="M28 37h1v1h-1z"/><path fill="#FFF9A3" d="M29 37h1v1h-1z"/><path fill="#FFFBC6" d="M30 37h1v1h-1zM31 37h1v1h-1zM32 37h1v1h-1zM33 37h1v1h-1zM34 37h1v1h-1zM35 37h1v1h-1zM36 37h1v1h-1zM37 37h1v1h-1z"/><path fill="#FFF9A3" d="M38 37h1v1h-1z"/><path fill="#FFF441" d="M39 37h1v1h-1z"/><path fill="#FFF338" d="M40 37h1v1h-1zM41 37h1v1h-1zM42 37h1v1h-1zM43 37h1v1h-1zM44 37h1v1h-1zM45 37h1v1h-1zM46 37h1v1h-1zM47 37h1v1h-1zM48 37h1v1h-1zM49 37h1v1h-1zM50 37h1v1h-1zM51 37h1v1h-1zM52 37h1v1h-1zM53 37h1v1h-1zM54 37h1v1h-1zM55 37h1v1h-1zM56 37h1v1h-1zM57 37h1v1h-1zM58 37h1v1h-1zM59 37h1v1h-1zM60 37h1v1h-1zM61 37h1v1h-1zM62 37h1v1h-1zM63 37h1v1h-1z"/><path fill="#FDE32F" d="M64 37h1v1h-1z"/><path fill="#FABF1B" d="M65 37h1v1h-1zM66 37h1v1h-1zM67 37h1v1h-1zM68 37h1v1h-1zM69 37h1v1h-1zM70 37h1v1h-1z"/><path fill="#745717" d="M71 37h1v1h-1z"/><path fill="#231815" d="M72 37h1v1h-1zM73 37h1v1h-1zM74 37h1v1h-1zM12 38h1v1h-1zM13 38h1v1h-1zM14 38h1v1h-1z"/><path fill="#3E2D16" d="M15 38h1v1h-1z"/><path fill="#FABF1B" d="M16 38h1v1h-1z"/><path fill="#FAC21D" d="M17 38h1v1h-1z"/><path fill="#FFF338" d="M18 38h1v1h-1zM19 38h1v1h-1zM20 38h1v1h-1zM21 38h1v1h-1zM22 38h1v1h-1zM23 38h1v1h-1zM24 38h1v1h-1zM25 38h1v1h-1zM26 38h1v1h-1zM27 38h1v1h-1z"/><path fill="#FFFAAB" d="M28 38h1v1h-1z"/><path fill="#FFFBC6" d="M29 38h1v1h-1zM30 38h1v1h-1zM31 38h1v1h-1zM32 38h1v1h-1zM33 38h1v1h-1zM34 38h1v1h-1zM35 38h1v1h-1zM36 38h1v1h-1zM37 38h1v1h-1zM38 38h1v1h-1z"/><path fill="#FFFAAB" d="M39 38h1v1h-1z"/><path fill="#FFF338" d="M40 38h1v1h-1zM41 38h1v1h-1zM42 38h1v1h-1zM43 38h1v1h-1zM44 38h1v1h-1zM45 38h1v1h-1zM46 38h1v1h-1zM47 38h1v1h-1zM48 38h1v1h-1zM49 38h1v1h-1zM50 38h1v1h-1zM51 38h1v1h-1zM52 38h1v1h-1zM53 38h1v1h-1zM54 38h1v1h-1zM55 38h1v1h-1zM56 38h1v1h-1zM57 38h1v1h-1zM58 38h1v1h-1zM59 38h1v1h-1zM60 38h1v1h-1zM61 38h1v1h-1zM62 38h1v1h-1zM63 38h1v1h-1zM64 38h1v1h-1z"/><path fill="#FAC21D" d="M65 38h1v1h-1z"/><path fill="#FABF1B" d="M66 38h1v1h-1zM67 38h1v1h-1zM68 38h1v1h-1zM69 38h1v1h-1zM70 38h1v1h-1z"/><path fill="#B78B19" d="M71 38h1v1h-1z"/><path fill="#231815" d="M72 38h1v1h-1zM73 38h1v1h-1zM74 38h1v1h-1zM12 39h1v1h-1zM13 39h1v1h-1zM14 39h1v1h-1z"/><path fill="#745717" d="M15 39h1v1h-1z"/><path fill="#FABF1B" d="M16 39h1v1h-1z"/><path fill="#FCCF24" d="M17 39h1v1h-1z"/><path fill="#FFF338" d="M18 39h1v1h-1zM19 39h1v1h-1zM20 39h1v1h-1zM21 39h1v1h-1zM22 39h1v1h-1zM23 39h1v1h-1zM24 39h1v1h-1zM25 39h1v1h-1zM26 39h1v1h-1z"/><path fill="#FFF77F" d="M27 39h1v1h-1z"/><path fill="#FFFBC6" d="M28 39h1v1h-1zM29 39h1v1h-1zM30 39h1v1h-1zM31 39h1v1h-1zM32 39h1v1h-1zM33 39h1v1h-1zM34 39h1v1h-1zM35 39h1v1h-1zM36 39h1v1h-1zM37 39h1v1h-1zM38 39h1v1h-1zM39 39h1v1h-1z"/><path fill="#FFF77F" d="M40 39h1v1h-1z"/><path fill="#FFF338" d="M41 39h1v1h-1zM42 39h1v1h-1zM43 39h1v1h-1zM44 39h1v1h-1zM45 39h1v1h-1zM46 39h1v1h-1zM47 39h1v1h-1zM48 39h1v1h-1zM49 39h1v1h-1zM50 39h1v1h-1zM51 39h1v1h-1zM52 39h1v1h-1zM53 39h1v1h-1zM54 39h1v1h-1zM55 39h1v1h-1zM56 39h1v1h-1zM57 39h1v1h-1zM58 39h1v1h-1zM59 39h1v1h-1zM60 39h1v1h-1zM61 39h1v1h-1zM62 39h1v1h-1zM63 39h1v1h-1zM64 39h1v1h-1z"/><path fill="#FCCF24" d="M65 39h1v1h-1z"/><path fill="#FABF1B" d="M66 39h1v1h-1zM67 39h1v1h-1zM68 39h1v1h-1zM69 39h1v1h-1zM70 39h1v1h-1zM71 39h1v1h-1z"/><path fill="#302215" d="M72 39h1v1h-1z"/><path fill="#231815" d="M73 39h1v1h-1zM74 39h1v1h-1zM75 39h1v1h-1zM12 40h1v1h-1zM13 40h1v1h-1zM14 40h1v1h-1z"/><path fill="#9C7618" d="M15 40h1v1h-1z"/><path fill="#FABF1B" d="M16 40h1v1h-1z"/><path fill="#FDDC2B" d="M17 40h1v1h-1z"/><path fill="#FFF338" d="M18 40h1v1h-1zM19 40h1v1h-1zM20 40h1v1h-1zM21 40h1v1h-1zM22 40h1v1h-1zM23 40h1v1h-1zM24 40h1v1h-1zM25 40h1v1h-1zM26 40h1v1h-1z"/><path fill="#FFFBBD" d="M27 40h1v1h-1z"/><path fill="#FFFBC6" d="M28 40h1v1h-1zM29 40h1v1h-1zM30 40h1v1h-1zM31 40h1v1h-1zM32 40h1v1h-1zM33 40h1v1h-1zM34 40h1v1h-1zM35 40h1v1h-1zM36 40h1v1h-1zM37 40h1v1h-1zM38 40h1v1h-1zM39 40h1v1h-1z"/><path fill="#FFFBBD" d="M40 40h1v1h-1z"/><path fill="#FFF338" d="M41 40h1v1h-1zM42 40h1v1h-1zM43 40h1v1h-1zM44 40h1v1h-1zM45 40h1v1h-1zM46 40h1v1h-1zM47 40h1v1h-1zM48 40h1v1h-1zM49 40h1v1h-1zM50 40h1v1h-1zM51 40h1v1h-1zM52 40h1v1h-1zM53 40h1v1h-1zM54 40h1v1h-1zM55 40h1v1h-1zM56 40h1v1h-1zM57 40h1v1h-1zM58 40h1v1h-1zM59 40h1v1h-1zM60 40h1v1h-1zM61 40h1v1h-1zM62 40h1v1h-1zM63 40h1v1h-1zM64 40h1v1h-1z"/><path fill="#FDD92A" d="M65 40h1v1h-1z"/><path fill="#FABF1B" d="M66 40h1v1h-1zM67 40h1v1h-1zM68 40h1v1h-1zM69 40h1v1h-1zM70 40h1v1h-1zM71 40h1v1h-1z"/><path fill="#745717" d="M72 40h1v1h-1z"/><path fill="#231815" d="M73 40h1v1h-1zM74 40h1v1h-1zM75 40h1v1h-1zM12 41h1v1h-1zM13 41h1v1h-1zM14 41h1v1h-1z"/><path fill="#C4951A" d="M15 41h1v1h-1z"/><path fill="#FABF1B" d="M16 41h1v1h-1z"/><path fill="#FEE631" d="M17 41h1v1h-1z"/><path fill="#FFF338" d="M18 41h1v1h-1zM19 41h1v1h-1zM20 41h1v1h-1zM21 41h1v1h-1zM22 41h1v1h-1zM23 41h1v1h-1zM24 41h1v1h-1zM25 41h1v1h-1z"/><path fill="#FFF55C" d="M26 41h1v1h-1z"/><path fill="#FFFBC6" d="M27 41h1v1h-1zM28 41h1v1h-1zM29 41h1v1h-1zM30 41h1v1h-1zM31 41h1v1h-1zM32 41h1v1h-1zM33 41h1v1h-1zM34 41h1v1h-1zM35 41h1v1h-1zM36 41h1v1h-1zM37 41h1v1h-1zM38 41h1v1h-1zM39 41h1v1h-1zM40 41h1v1h-1z"/><path fill="#FFF55C" d="M41 41h1v1h-1z"/><path fill="#FFF338" d="M42 41h1v1h-1zM43 41h1v1h-1zM44 41h1v1h-1zM45 41h1v1h-1zM46 41h1v1h-1zM47 41h1v1h-1zM48 41h1v1h-1zM49 41h1v1h-1zM50 41h1v1h-1zM51 41h1v1h-1zM52 41h1v1h-1zM53 41h1v1h-1zM54 41h1v1h-1zM55 41h1v1h-1zM56 41h1v1h-1zM57 41h1v1h-1zM58 41h1v1h-1zM59 41h1v1h-1zM60 41h1v1h-1zM61 41h1v1h-1zM62 41h1v1h-1zM63 41h1v1h-1zM64 41h1v1h-1z"/><path fill="#FEE631" d="M65 41h1v1h-1z"/><path fill="#FABF1B" d="M66 41h1v1h-1zM67 41h1v1h-1zM68 41h1v1h-1zM69 41h1v1h-1zM70 41h1v1h-1zM71 41h1v1h-1z"/><path fill="#B78B19" d="M72 41h1v1h-1z"/><path fill="#231815" d="M73 41h1v1h-1zM74 41h1v1h-1zM75 41h1v1h-1zM12 42h1v1h-1zM13 42h1v1h-1zM14 42h1v1h-1z"/><path fill="#EDB51B" d="M15 42h1v1h-1z"/><path fill="#FABF1B" d="M16 42h1v1h-1z"/><path fill="#FEED34" d="M17 42h1v1h-1z"/><path fill="#FFF338" d="M18 42h1v1h-1zM19 42h1v1h-1zM20 42h1v1h-1zM21 42h1v1h-1zM22 42h1v1h-1zM23 42h1v1h-1zM24 42h1v1h-1zM25 42h1v1h-1z"/><path fill="#FFF77F" d="M26 42h1v1h-1z"/><path fill="#FFFBC6" d="M27 42h1v1h-1zM28 42h1v1h-1zM29 42h1v1h-1zM30 42h1v1h-1zM31 42h1v1h-1zM32 42h1v1h-1zM33 42h1v1h-1zM34 42h1v1h-1zM35 42h1v1h-1zM36 42h1v1h-1zM37 42h1v1h-1zM38 42h1v1h-1zM39 42h1v1h-1zM40 42h1v1h-1z"/><path fill="#FFF776" d="M41 42h1v1h-1z"/><path fill="#FFF338" d="M42 42h1v1h-1zM43 42h1v1h-1zM44 42h1v1h-1zM45 42h1v1h-1zM46 42h1v1h-1zM47 42h1v1h-1zM48 42h1v1h-1zM49 42h1v1h-1zM50 42h1v1h-1zM51 42h1v1h-1zM52 42h1v1h-1zM53 42h1v1h-1zM54 42h1v1h-1zM55 42h1v1h-1zM56 42h1v1h-1zM57 42h1v1h-1zM58 42h1v1h-1zM59 42h1v1h-1zM60 42h1v1h-1zM61 42h1v1h-1zM62 42h1v1h-1zM63 42h1v1h-1zM64 42h1v1h-1z"/><path fill="#FEED34" d="M65 42h1v1h-1z"/><path fill="#FABF1B" d="M66 42h1v1h-1zM67 42h1v1h-1zM68 42h1v1h-1zM69 42h1v1h-1zM70 42h1v1h-1zM71 42h1v1h-1z"/><path fill="#EDB51B" d="M72 42h1v1h-1z"/><path fill="#231815" d="M73 42h1v1h-1zM74 42h1v1h-1zM75 42h1v1h-1zM76 42h1v1h-1zM12 43h1v1h-1zM13 43h1v1h-1zM14 43h1v1h-1z"/><path fill="#FABF1B" d="M15 43h1v1h-1zM16 43h1v1h-1z"/><path fill="#FFF338" d="M17 43h1v1h-1zM18 43h1v1h-1zM19 43h1v1h-1zM20 43h1v1h-1zM21 43h1v1h-1zM22 43h1v1h-1zM23 43h1v1h-1zM24 43h1v1h-1zM25 43h1v1h-1z"/><path fill="#FFF77F" d="M26 43h1v1h-1z"/><path fill="#FFFBC6" d="M27 43h1v1h-1zM28 43h1v1h-1zM29 43h1v1h-1zM30 43h1v1h-1zM31 43h1v1h-1zM32 43h1v1h-1zM33 43h1v1h-1zM34 43h1v1h-1zM35 43h1v1h-1zM36 43h1v1h-1zM37 43h1v1h-1zM38 43h1v1h-1zM39 43h1v1h-1zM40 43h1v1h-1z"/><path fill="#FFF77F" d="M41 43h1v1h-1z"/><path fill="#FFF338" d="M42 43h1v1h-1zM43 43h1v1h-1zM44 43h1v1h-1zM45 43h1v1h-1zM46 43h1v1h-1zM47 43h1v1h-1zM48 43h1v1h-1zM49 43h1v1h-1zM50 43h1v1h-1zM51 43h1v1h-1zM52 43h1v1h-1zM53 43h1v1h-1zM54 43h1v1h-1zM55 43h1v1h-1zM56 43h1v1h-1zM57 43h1v1h-1zM58 43h1v1h-1zM59 43h1v1h-1zM60 43h1v1h-1zM61 43h1v1h-1zM62 43h1v1h-1zM63 43h1v1h-1zM64 43h1v1h-1zM65 43h1v1h-1z"/><path fill="#FABF1B" d="M66 43h1v1h-1zM67 43h1v1h-1zM68 43h1v1h-1zM69 43h1v1h-1zM70 43h1v1h-1zM71 43h1v1h-1zM72 43h1v1h-1z"/><path fill="#4B3716" d="M73 43h1v1h-1z"/><path fill="#231815" d="M74 43h1v1h-1zM75 43h1v1h-1zM76 43h1v1h-1zM12 44h1v1h-1zM13 44h1v1h-1zM14 44h1v1h-1z"/><path fill="#FABF1B" d="M15 44h1v1h-1zM16 44h1v1h-1z"/><path fill="#FFF338" d="M17 44h1v1h-1zM18 44h1v1h-1zM19 44h1v1h-1zM20 44h1v1h-1zM21 44h1v1h-1zM22 44h1v1h-1zM23 44h1v1h-1zM24 44h1v1h-1zM25 44h1v1h-1z"/><path fill="#FFF664" d="M26 44h1v1h-1z"/><path fill="#FFFBC6" d="M27 44h1v1h-1zM28 44h1v1h-1zM29 44h1v1h-1zM30 44h1v1h-1zM31 44h1v1h-1zM32 44h1v1h-1zM33 44h1v1h-1zM34 44h1v1h-1zM35 44h1v1h-1zM36 44h1v1h-1zM37 44h1v1h-1zM38 44h1v1h-1zM39 44h1v1h-1zM40 44h1v1h-1z"/><path fill="#FFF664" d="M41 44h1v1h-1z"/><path fill="#FFF338" d="M42 44h1v1h-1zM43 44h1v1h-1zM44 44h1v1h-1zM45 44h1v1h-1zM46 44h1v1h-1zM47 44h1v1h-1zM48 44h1v1h-1zM49 44h1v1h-1zM50 44h1v1h-1zM51 44h1v1h-1zM52 44h1v1h-1zM53 44h1v1h-1zM54 44h1v1h-1zM55 44h1v1h-1zM56 44h1v1h-1zM57 44h1v1h-1zM58 44h1v1h-1zM59 44h1v1h-1zM60 44h1v1h-1zM61 44h1v1h-1zM62 44h1v1h-1zM63 44h1v1h-1zM64 44h1v1h-1zM65 44h1v1h-1z"/><path fill="#FABF1B" d="M66 44h1v1h-1zM67 44h1v1h-1zM68 44h1v1h-1zM69 44h1v1h-1zM70 44h1v1h-1zM71 44h1v1h-1zM72 44h1v1h-1z"/><path fill="#816118" d="M73 44h1v1h-1z"/><path fill="#231815" d="M74 44h1v1h-1zM75 44h1v1h-1zM76 44h1v1h-1zM12 45h1v1h-1zM13 45h1v1h-1zM14 45h1v1h-1z"/><path fill="#FABF1B" d="M15 45h1v1h-1zM16 45h1v1h-1z"/><path fill="#FFF338" d="M17 45h1v1h-1zM18 45h1v1h-1zM19 45h1v1h-1zM20 45h1v1h-1zM21 45h1v1h-1zM22 45h1v1h-1zM23 45h1v1h-1zM24 45h1v1h-1zM25 45h1v1h-1z"/><path fill="#FFF44A" d="M26 45h1v1h-1z"/><path fill="#FFFBC6" d="M27 45h1v1h-1zM28 45h1v1h-1zM29 45h1v1h-1zM30 45h1v1h-1zM31 45h1v1h-1zM32 45h1v1h-1zM33 45h1v1h-1zM34 45h1v1h-1zM35 45h1v1h-1zM36 45h1v1h-1zM37 45h1v1h-1zM38 45h1v1h-1zM39 45h1v1h-1zM40 45h1v1h-1z"/><path fill="#FFF44A" d="M41 45h1v1h-1z"/><path fill="#FFF338" d="M42 45h1v1h-1zM43 45h1v1h-1zM44 45h1v1h-1zM45 45h1v1h-1zM46 45h1v1h-1zM47 45h1v1h-1zM48 45h1v1h-1zM49 45h1v1h-1zM50 45h1v1h-1zM51 45h1v1h-1zM52 45h1v1h-1zM53 45h1v1h-1zM54 45h1v1h-1zM55 45h1v1h-1zM56 45h1v1h-1zM57 45h1v1h-1zM58 45h1v1h-1zM59 45h1v1h-1zM60 45h1v1h-1zM61 45h1v1h-1zM62 45h1v1h-1zM63 45h1v1h-1zM64 45h1v1h-1zM65 45h1v1h-1z"/><path fill="#FABF1B" d="M66 45h1v1h-1zM67 45h1v1h-1zM68 45h1v1h-1zM69 45h1v1h-1zM70 45h1v1h-1zM71 45h1v1h-1zM72 45h1v1h-1z"/><path fill="#A98019" d="M73 45h1v1h-1z"/><path fill="#231815" d="M74 45h1v1h-1zM75 45h1v1h-1zM76 45h1v1h-1zM12 46h1v1h-1zM13 46h1v1h-1zM14 46h1v1h-1z"/><path fill="#FABF1B" d="M15 46h1v1h-1zM16 46h1v1h-1z"/><path fill="#FFF338" d="M17 46h1v1h-1zM18 46h1v1h-1zM19 46h1v1h-1zM20 46h1v1h-1zM21 46h1v1h-1zM22 46h1v1h-1zM23 46h1v1h-1zM24 46h1v1h-1zM25 46h1v1h-1zM26 46h1v1h-1z"/><path fill="#FFF9A3" d="M27 46h1v1h-1z"/><path fill="#FFFBC6" d="M28 46h1v1h-1zM29 46h1v1h-1zM30 46h1v1h-1zM31 46h1v1h-1zM32 46h1v1h-1zM33 46h1v1h-1zM34 46h1v1h-1zM35 46h1v1h-1zM36 46h1v1h-1zM37 46h1v1h-1zM38 46h1v1h-1zM39 46h1v1h-1z"/><path fill="#FFF99A" d="M40 46h1v1h-1z"/><path fill="#FFF338" d="M41 46h1v1h-1zM42 46h1v1h-1zM43 46h1v1h-1zM44 46h1v1h-1zM45 46h1v1h-1zM46 46h1v1h-1zM47 46h1v1h-1zM48 46h1v1h-1zM49 46h1v1h-1zM50 46h1v1h-1zM51 46h1v1h-1zM52 46h1v1h-1zM53 46h1v1h-1zM54 46h1v1h-1zM55 46h1v1h-1zM56 46h1v1h-1zM57 46h1v1h-1zM58 46h1v1h-1zM59 46h1v1h-1zM60 46h1v1h-1zM61 46h1v1h-1zM62 46h1v1h-1zM63 46h1v1h-1zM64 46h1v1h-1zM65 46h1v1h-1z"/><path fill="#FABF1B" d="M66 46h1v1h-1zM67 46h1v1h-1zM68 46h1v1h-1zM69 46h1v1h-1zM70 46h1v1h-1zM71 46h1v1h-1zM72 46h1v1h-1z"/><path fill="#D2A01A" d="M73 46h1v1h-1z"/><path fill="#231815" d="M74 46h1v1h-1zM75 46h1v1h-1zM76 46h1v1h-1zM12 47h1v1h-1zM13 47h1v1h-1zM14 47h1v1h-1z"/><path fill="#FABF1B" d="M15 47h1v1h-1zM16 47h1v1h-1z"/><path fill="#FFF338" d="M17 47h1v1h-1zM18 47h1v1h-1zM19 47h1v1h-1zM20 47h1v1h-1zM21 47h1v1h-1zM22 47h1v1h-1zM23 47h1v1h-1zM24 47h1v1h-1zM25 47h1v1h-1zM26 47h1v1h-1z"/><path fill="#FFF44A" d="M27 47h1v1h-1z"/><path fill="#FFFBBD" d="M28 47h1v1h-1z"/><path fill="#FFFBC6" d="M29 47h1v1h-1zM30 47h1v1h-1zM31 47h1v1h-1zM32 47h1v1h-1zM33 47h1v1h-1zM34 47h1v1h-1zM35 47h1v1h-1zM36 47h1v1h-1zM37 47h1v1h-1zM38 47h1v1h-1z"/><path fill="#FFFBBD" d="M39 47h1v1h-1z"/><path fill="#FFF44A" d="M40 47h1v1h-1z"/><path fill="#FFF338" d="M41 47h1v1h-1zM42 47h1v1h-1zM43 47h1v1h-1zM44 47h1v1h-1zM45 47h1v1h-1zM46 47h1v1h-1zM47 47h1v1h-1zM48 47h1v1h-1zM49 47h1v1h-1zM50 47h1v1h-1zM51 47h1v1h-1zM52 47h1v1h-1zM53 47h1v1h-1zM54 47h1v1h-1zM55 47h1v1h-1zM56 47h1v1h-1zM57 47h1v1h-1zM58 47h1v1h-1zM59 47h1v1h-1zM60 47h1v1h-1zM61 47h1v1h-1zM62 47h1v1h-1zM63 47h1v1h-1zM64 47h1v1h-1zM65 47h1v1h-1z"/><path fill="#FABF1B" d="M66 47h1v1h-1zM67 47h1v1h-1zM68 47h1v1h-1zM69 47h1v1h-1zM70 47h1v1h-1zM71 47h1v1h-1zM72 47h1v1h-1zM73 47h1v1h-1z"/><path fill="#231815" d="M74 47h1v1h-1zM75 47h1v1h-1zM76 47h1v1h-1zM12 48h1v1h-1zM13 48h1v1h-1zM14 48h1v1h-1z"/><path fill="#FABF1B" d="M15 48h1v1h-1zM16 48h1v1h-1z"/><path fill="#FFF338" d="M17 48h1v1h-1zM18 48h1v1h-1zM19 48h1v1h-1zM20 48h1v1h-1zM21 48h1v1h-1zM22 48h1v1h-1zM23 48h1v1h-1zM24 48h1v1h-1zM25 48h1v1h-1zM26 48h1v1h-1zM27 48h1v1h-1z"/><path fill="#FFF66D" d="M28 48h1v1h-1z"/><path fill="#FFFBBD" d="M29 48h1v1h-1z"/><path fill="#FFFBC6" d="M30 48h1v1h-1zM31 48h1v1h-1zM32 48h1v1h-1zM33 48h1v1h-1zM34 48h1v1h-1zM35 48h1v1h-1zM36 48h1v1h-1zM37 48h1v1h-1z"/><path fill="#FFFBBD" d="M38 48h1v1h-1z"/><path fill="#FFF664" d="M39 48h1v1h-1z"/><path fill="#FFF338" d="M40 48h1v1h-1zM41 48h1v1h-1zM42 48h1v1h-1zM43 48h1v1h-1zM44 48h1v1h-1zM45 48h1v1h-1zM46 48h1v1h-1zM47 48h1v1h-1zM48 48h1v1h-1zM49 48h1v1h-1zM50 48h1v1h-1zM51 48h1v1h-1zM52 48h1v1h-1zM53 48h1v1h-1zM54 48h1v1h-1zM55 48h1v1h-1zM56 48h1v1h-1zM57 48h1v1h-1zM58 48h1v1h-1zM59 48h1v1h-1zM60 48h1v1h-1zM61 48h1v1h-1zM62 48h1v1h-1zM63 48h1v1h-1zM64 48h1v1h-1zM65 48h1v1h-1z"/><path fill="#FABF1B" d="M66 48h1v1h-1zM67 48h1v1h-1zM68 48h1v1h-1zM69 48h1v1h-1zM70 48h1v1h-1zM71 48h1v1h-1zM72 48h1v1h-1zM73 48h1v1h-1z"/><path fill="#3E2D16" d="M74 48h1v1h-1z"/><path fill="#231815" d="M75 48h1v1h-1zM76 48h1v1h-1zM77 48h1v1h-1zM12 49h1v1h-1zM13 49h1v1h-1zM14 49h1v1h-1z"/><path fill="#DFAA1A" d="M15 49h1v1h-1z"/><path fill="#FABF1B" d="M16 49h1v1h-1z"/><path fill="#FEE933" d="M17 49h1v1h-1z"/><path fill="#FFF338" d="M18 49h1v1h-1zM19 49h1v1h-1zM20 49h1v1h-1zM21 49h1v1h-1zM22 49h1v1h-1zM23 49h1v1h-1zM24 49h1v1h-1zM25 49h1v1h-1zM26 49h1v1h-1zM27 49h1v1h-1zM28 49h1v1h-1z"/><path fill="#FFF553" d="M29 49h1v1h-1z"/><path fill="#FFF9A3" d="M30 49h1v1h-1z"/><path fill="#FFFBC6" d="M31 49h1v1h-1zM32 49h1v1h-1zM33 49h1v1h-1zM34 49h1v1h-1zM35 49h1v1h-1zM36 49h1v1h-1z"/><path fill="#FFF9A3" d="M37 49h1v1h-1z"/><path fill="#FFF553" d="M38 49h1v1h-1z"/><path fill="#FFF338" d="M39 49h1v1h-1zM40 49h1v1h-1zM41 49h1v1h-1zM42 49h1v1h-1zM43 49h1v1h-1zM44 49h1v1h-1zM45 49h1v1h-1zM46 49h1v1h-1zM47 49h1v1h-1zM48 49h1v1h-1zM49 49h1v1h-1zM50 49h1v1h-1zM51 49h1v1h-1zM52 49h1v1h-1zM53 49h1v1h-1zM54 49h1v1h-1zM55 49h1v1h-1zM56 49h1v1h-1zM57 49h1v1h-1zM58 49h1v1h-1zM59 49h1v1h-1zM60 49h1v1h-1zM61 49h1v1h-1zM62 49h1v1h-1zM63 49h1v1h-1zM64 49h1v1h-1z"/><path fill="#FEE933" d="M65 49h1v1h-1z"/><path fill="#FABF1B" d="M66 49h1v1h-1zM67 49h1v1h-1zM68 49h1v1h-1zM69 49h1v1h-1zM70 49h1v1h-1zM71 49h1v1h-1zM72 49h1v1h-1zM73 49h1v1h-1z"/><path fill="#594217" d="M74 49h1v1h-1z"/><path fill="#231815" d="M75 49h1v1h-1zM76 49h1v1h-1zM77 49h1v1h-1zM12 50h1v1h-1zM13 50h1v1h-1zM14 50h1v1h-1z"/><path fill="#C4951A" d="M15 50h1v1h-1z"/><path fill="#FABF1B" d="M16 50h1v1h-1z"/><path fill="#FEE631" d="M17 50h1v1h-1z"/><path fill="#FFF338" d="M18 50h1v1h-1zM19 50h1v1h-1zM20 50h1v1h-1zM21 50h1v1h-1zM22 50h1v1h-1zM23 50h1v1h-1zM24 50h1v1h-1zM25 50h1v1h-1zM26 50h1v1h-1zM27 50h1v1h-1zM28 50h1v1h-1zM29 50h1v1h-1zM30 50h1v1h-1z"/><path fill="#FFF553" d="M31 50h1v1h-1z"/><path fill="#FFF77F" d="M32 50h1v1h-1zM33 50h1v1h-1zM34 50h1v1h-1zM35 50h1v1h-1z"/><path fill="#FFF553" d="M36 50h1v1h-1z"/><path fill="#FFF338" d="M37 50h1v1h-1zM38 50h1v1h-1zM39 50h1v1h-1zM40 50h1v1h-1zM41 50h1v1h-1zM42 50h1v1h-1zM43 50h1v1h-1zM44 50h1v1h-1zM45 50h1v1h-1zM46 50h1v1h-1zM47 50h1v1h-1zM48 50h1v1h-1zM49 50h1v1h-1zM50 50h1v1h-1zM51 50h1v1h-1zM52 50h1v1h-1zM53 50h1v1h-1zM54 50h1v1h-1zM55 50h1v1h-1zM56 50h1v1h-1zM57 50h1v1h-1zM58 50h1v1h-1zM59 50h1v1h-1zM60 50h1v1h-1zM61 50h1v1h-1zM62 50h1v1h-1zM63 50h1v1h-1zM64 50h1v1h-1z"/><path fill="#FDE32F" d="M65 50h1v1h-1z"/><path fill="#FABF1B" d="M66 50h1v1h-1zM67 50h1v1h-1zM68 50h1v1h-1zM69 50h1v1h-1zM70 50h1v1h-1zM71 50h1v1h-1zM72 50h1v1h-1zM73 50h1v1h-1z"/><path fill="#816118" d="M74 50h1v1h-1z"/><path fill="#231815" d="M75 50h1v1h-1zM76 50h1v1h-1zM77 50h1v1h-1zM12 51h1v1h-1zM13 51h1v1h-1zM14 51h1v1h-1z"/><path fill="#8F6C18" d="M15 51h1v1h-1z"/><path fill="#FABF1B" d="M16 51h1v1h-1z"/><path fill="#FDD92A" d="M17 51h1v1h-1z"/><path fill="#FFF338" d="M18 51h1v1h-1zM19 51h1v1h-1zM20 51h1v1h-1zM21 51h1v1h-1zM22 51h1v1h-1zM23 51h1v1h-1zM24 51h1v1h-1zM25 51h1v1h-1zM26 51h1v1h-1zM27 51h1v1h-1zM28 51h1v1h-1zM29 51h1v1h-1zM30 51h1v1h-1zM31 51h1v1h-1zM32 51h1v1h-1zM33 51h1v1h-1zM34 51h1v1h-1zM35 51h1v1h-1zM36 51h1v1h-1zM37 51h1v1h-1zM38 51h1v1h-1zM39 51h1v1h-1zM40 51h1v1h-1zM41 51h1v1h-1zM42 51h1v1h-1zM43 51h1v1h-1zM44 51h1v1h-1zM45 51h1v1h-1zM46 51h1v1h-1zM47 51h1v1h-1zM48 51h1v1h-1zM49 51h1v1h-1zM50 51h1v1h-1zM51 51h1v1h-1zM52 51h1v1h-1zM53 51h1v1h-1zM54 51h1v1h-1zM55 51h1v1h-1zM56 51h1v1h-1zM57 51h1v1h-1zM58 51h1v1h-1zM59 51h1v1h-1zM60 51h1v1h-1zM61 51h1v1h-1zM62 51h1v1h-1zM63 51h1v1h-1zM64 51h1v1h-1z"/><path fill="#FDD92A" d="M65 51h1v1h-1z"/><path fill="#FABF1B" d="M66 51h1v1h-1zM67 51h1v1h-1zM68 51h1v1h-1zM69 51h1v1h-1zM70 51h1v1h-1zM71 51h1v1h-1zM72 51h1v1h-1zM73 51h1v1h-1z"/><path fill="#8F6C18" d="M74 51h1v1h-1z"/><path fill="#231815" d="M75 51h1v1h-1zM76 51h1v1h-1zM77 51h1v1h-1zM12 52h1v1h-1zM13 52h1v1h-1zM14 52h1v1h-1z"/><path fill="#664C17" d="M15 52h1v1h-1z"/><path fill="#FABF1B" d="M16 52h1v1h-1z"/><path fill="#FBCC22" d="M17 52h1v1h-1z"/><path fill="#FFF338" d="M18 52h1v1h-1zM19 52h1v1h-1zM20 52h1v1h-1zM21 52h1v1h-1zM22 52h1v1h-1zM23 52h1v1h-1zM24 52h1v1h-1zM25 52h1v1h-1zM26 52h1v1h-1zM27 52h1v1h-1zM28 52h1v1h-1zM29 52h1v1h-1zM30 52h1v1h-1zM31 52h1v1h-1zM32 52h1v1h-1zM33 52h1v1h-1zM34 52h1v1h-1zM35 52h1v1h-1zM36 52h1v1h-1zM37 52h1v1h-1zM38 52h1v1h-1zM39 52h1v1h-1zM40 52h1v1h-1zM41 52h1v1h-1zM42 52h1v1h-1zM43 52h1v1h-1zM44 52h1v1h-1zM45 52h1v1h-1zM46 52h1v1h-1zM47 52h1v1h-1zM48 52h1v1h-1zM49 52h1v1h-1zM50 52h1v1h-1zM51 52h1v1h-1zM52 52h1v1h-1zM53 52h1v1h-1zM54 52h1v1h-1zM55 52h1v1h-1zM56 52h1v1h-1zM57 52h1v1h-1zM58 52h1v1h-1zM59 52h1v1h-1zM60 52h1v1h-1zM61 52h1v1h-1zM62 52h1v1h-1zM63 52h1v1h-1zM64 52h1v1h-1z"/><path fill="#FBCC22" d="M65 52h1v1h-1z"/><path fill="#FABF1B" d="M66 52h1v1h-1zM67 52h1v1h-1zM68 52h1v1h-1zM69 52h1v1h-1zM70 52h1v1h-1zM71 52h1v1h-1zM72 52h1v1h-1zM73 52h1v1h-1z"/><path fill="#9C7618" d="M74 52h1v1h-1z"/><path fill="#231815" d="M75 52h1v1h-1zM76 52h1v1h-1zM77 52h1v1h-1zM12 53h1v1h-1zM13 53h1v1h-1zM14 53h1v1h-1z"/><path fill="#302215" d="M15 53h1v1h-1z"/><path fill="#FABF1B" d="M16 53h1v1h-1zM17 53h1v1h-1z"/><path fill="#FFF338" d="M18 53h1v1h-1zM19 53h1v1h-1zM20 53h1v1h-1zM21 53h1v1h-1zM22 53h1v1h-1zM23 53h1v1h-1zM24 53h1v1h-1zM25 53h1v1h-1zM26 53h1v1h-1zM27 53h1v1h-1zM28 53h1v1h-1zM29 53h1v1h-1zM30 53h1v1h-1zM31 53h1v1h-1zM32 53h1v1h-1zM33 53h1v1h-1zM34 53h1v1h-1zM35 53h1v1h-1zM36 53h1v1h-1zM37 53h1v1h-1zM38 53h1v1h-1zM39 53h1v1h-1zM40 53h1v1h-1zM41 53h1v1h-1zM42 53h1v1h-1zM43 53h1v1h-1zM44 53h1v1h-1zM45 53h1v1h-1zM46 53h1v1h-1zM47 53h1v1h-1zM48 53h1v1h-1zM49 53h1v1h-1zM50 53h1v1h-1zM51 53h1v1h-1zM52 53h1v1h-1zM53 53h1v1h-1zM54 53h1v1h-1zM55 53h1v1h-1zM56 53h1v1h-1zM57 53h1v1h-1zM58 53h1v1h-1zM59 53h1v1h-1zM60 53h1v1h-1zM61 53h1v1h-1zM62 53h1v1h-1zM63 53h1v1h-1z"/><path fill="#FFF036" d="M64 53h1v1h-1z"/><path fill="#FABF1B" d="M65 53h1v1h-1zM66 53h1v1h-1zM67 53h1v1h-1zM68 53h1v1h-1zM69 53h1v1h-1zM70 53h1v1h-1zM71 53h1v1h-1zM72 53h1v1h-1zM73 53h1v1h-1z"/><path fill="#C4951A" d="M74 53h1v1h-1z"/><path fill="#231815" d="M75 53h1v1h-1zM76 53h1v1h-1zM77 53h1v1h-1zM13 54h1v1h-1zM14 54h1v1h-1zM15 54h1v1h-1z"/><path fill="#D2A01A" d="M16 54h1v1h-1z"/><path fill="#FABF1B" d="M17 54h1v1h-1z"/><path fill="#FDE32F" d="M18 54h1v1h-1z"/><path fill="#FFF338" d="M19 54h1v1h-1zM20 54h1v1h-1zM21 54h1v1h-1zM22 54h1v1h-1zM23 54h1v1h-1zM24 54h1v1h-1zM25 54h1v1h-1zM26 54h1v1h-1zM27 54h1v1h-1zM28 54h1v1h-1zM29 54h1v1h-1zM30 54h1v1h-1zM31 54h1v1h-1zM32 54h1v1h-1zM33 54h1v1h-1zM34 54h1v1h-1zM35 54h1v1h-1zM36 54h1v1h-1zM37 54h1v1h-1zM38 54h1v1h-1zM39 54h1v1h-1zM40 54h1v1h-1zM41 54h1v1h-1zM42 54h1v1h-1zM43 54h1v1h-1zM44 54h1v1h-1zM45 54h1v1h-1zM46 54h1v1h-1zM47 54h1v1h-1zM48 54h1v1h-1zM49 54h1v1h-1zM50 54h1v1h-1zM51 54h1v1h-1zM52 54h1v1h-1zM53 54h1v1h-1zM54 54h1v1h-1zM55 54h1v1h-1zM56 54h1v1h-1zM57 54h1v1h-1zM58 54h1v1h-1zM59 54h1v1h-1zM60 54h1v1h-1zM61 54h1v1h-1zM62 54h1v1h-1zM63 54h1v1h-1z"/><path fill="#FDE02D" d="M64 54h1v1h-1z"/><path fill="#FABF1B" d="M65 54h1v1h-1zM66 54h1v1h-1zM67 54h1v1h-1zM68 54h1v1h-1zM69 54h1v1h-1zM70 54h1v1h-1zM71 54h1v1h-1zM72 54h1v1h-1zM73 54h1v1h-1z"/><path fill="#C4951A" d="M74 54h1v1h-1z"/><path fill="#231815" d="M75 54h1v1h-1zM76 54h1v1h-1zM77 54h1v1h-1zM13 55h1v1h-1zM14 55h1v1h-1zM15 55h1v1h-1z"/><path fill="#816118" d="M16 55h1v1h-1z"/><path fill="#FABF1B" d="M17 55h1v1h-1z"/><path fill="#FCCF24" d="M18 55h1v1h-1z"/><path fill="#FFF338" d="M19 55h1v1h-1zM20 55h1v1h-1zM21 55h1v1h-1zM22 55h1v1h-1zM23 55h1v1h-1zM24 55h1v1h-1zM25 55h1v1h-1zM26 55h1v1h-1zM27 55h1v1h-1zM28 55h1v1h-1zM29 55h1v1h-1zM30 55h1v1h-1zM31 55h1v1h-1zM32 55h1v1h-1zM33 55h1v1h-1zM34 55h1v1h-1zM35 55h1v1h-1zM36 55h1v1h-1zM37 55h1v1h-1zM38 55h1v1h-1zM39 55h1v1h-1zM40 55h1v1h-1zM41 55h1v1h-1zM42 55h1v1h-1zM43 55h1v1h-1zM44 55h1v1h-1zM45 55h1v1h-1zM46 55h1v1h-1zM47 55h1v1h-1zM48 55h1v1h-1zM49 55h1v1h-1zM50 55h1v1h-1zM51 55h1v1h-1zM52 55h1v1h-1zM53 55h1v1h-1zM54 55h1v1h-1zM55 55h1v1h-1zM56 55h1v1h-1zM57 55h1v1h-1zM58 55h1v1h-1zM59 55h1v1h-1zM60 55h1v1h-1zM61 55h1v1h-1zM62 55h1v1h-1zM63 55h1v1h-1z"/><path fill="#FCCF24" d="M64 55h1v1h-1z"/><path fill="#FABF1B" d="M65 55h1v1h-1zM66 55h1v1h-1zM67 55h1v1h-1zM68 55h1v1h-1zM69 55h1v1h-1zM70 55h1v1h-1zM71 55h1v1h-1zM72 55h1v1h-1zM73 55h1v1h-1z"/><path fill="#C4951A" d="M74 55h1v1h-1z"/><path fill="#231815" d="M75 55h1v1h-1zM76 55h1v1h-1zM77 55h1v1h-1zM13 56h1v1h-1zM14 56h1v1h-1zM15 56h1v1h-1z"/><path fill="#302215" d="M16 56h1v1h-1z"/><path fill="#FABF1B" d="M17 56h1v1h-1zM18 56h1v1h-1z"/><path fill="#FEED34" d="M19 56h1v1h-1z"/><path fill="#FFF338" d="M20 56h1v1h-1zM21 56h1v1h-1zM22 56h1v1h-1zM23 56h1v1h-1zM24 56h1v1h-1zM25 56h1v1h-1zM26 56h1v1h-1zM27 56h1v1h-1zM28 56h1v1h-1zM29 56h1v1h-1zM30 56h1v1h-1zM31 56h1v1h-1zM32 56h1v1h-1zM33 56h1v1h-1zM34 56h1v1h-1zM35 56h1v1h-1zM36 56h1v1h-1zM37 56h1v1h-1zM38 56h1v1h-1zM39 56h1v1h-1zM40 56h1v1h-1zM41 56h1v1h-1zM42 56h1v1h-1zM43 56h1v1h-1zM44 56h1v1h-1zM45 56h1v1h-1zM46 56h1v1h-1zM47 56h1v1h-1zM48 56h1v1h-1zM49 56h1v1h-1zM50 56h1v1h-1zM51 56h1v1h-1zM52 56h1v1h-1zM53 56h1v1h-1zM54 56h1v1h-1zM55 56h1v1h-1zM56 56h1v1h-1zM57 56h1v1h-1zM58 56h1v1h-1zM59 56h1v1h-1zM60 56h1v1h-1zM61 56h1v1h-1zM62 56h1v1h-1z"/><path fill="#FEED34" d="M63 56h1v1h-1z"/><path fill="#FABF1B" d="M64 56h1v1h-1zM65 56h1v1h-1zM66 56h1v1h-1zM67 56h1v1h-1zM68 56h1v1h-1zM69 56h1v1h-1zM70 56h1v1h-1zM71 56h1v1h-1zM72 56h1v1h-1zM73 56h1v1h-1z"/><path fill="#C4951A" d="M74 56h1v1h-1z"/><path fill="#231815" d="M75 56h1v1h-1zM76 56h1v1h-1zM77 56h1v1h-1zM14 57h1v1h-1zM15 57h1v1h-1zM16 57h1v1h-1z"/><path fill="#A98019" d="M17 57h1v1h-1z"/><path fill="#FABF1B" d="M18 57h1v1h-1z"/><path fill="#FCD326" d="M19 57h1v1h-1z"/><path fill="#FFF338" d="M20 57h1v1h-1zM21 57h1v1h-1zM22 57h1v1h-1zM23 57h1v1h-1zM24 57h1v1h-1zM25 57h1v1h-1zM26 57h1v1h-1zM27 57h1v1h-1zM28 57h1v1h-1zM29 57h1v1h-1zM30 57h1v1h-1zM31 57h1v1h-1zM32 57h1v1h-1zM33 57h1v1h-1zM34 57h1v1h-1zM35 57h1v1h-1zM36 57h1v1h-1zM37 57h1v1h-1zM38 57h1v1h-1zM39 57h1v1h-1zM40 57h1v1h-1zM41 57h1v1h-1zM42 57h1v1h-1zM43 57h1v1h-1zM44 57h1v1h-1zM45 57h1v1h-1zM46 57h1v1h-1zM47 57h1v1h-1zM48 57h1v1h-1zM49 57h1v1h-1zM50 57h1v1h-1zM51 57h1v1h-1zM52 57h1v1h-1zM53 57h1v1h-1zM54 57h1v1h-1zM55 57h1v1h-1zM56 57h1v1h-1zM57 57h1v1h-1zM58 57h1v1h-1zM59 57h1v1h-1zM60 57h1v1h-1zM61 57h1v1h-1zM62 57h1v1h-1z"/><path fill="#FCD326" d="M63 57h1v1h-1z"/><path fill="#FABF1B" d="M64 57h1v1h-1zM65 57h1v1h-1zM66 57h1v1h-1zM67 57h1v1h-1zM68 57h1v1h-1zM69 57h1v1h-1zM70 57h1v1h-1zM71 57h1v1h-1zM72 57h1v1h-1zM73 57h1v1h-1z"/><path fill="#C4951A" d="M74 57h1v1h-1z"/><path fill="#231815" d="M75 57h1v1h-1zM76 57h1v1h-1zM77 57h1v1h-1zM14 58h1v1h-1zM15 58h1v1h-1zM16 58h1v1h-1z"/><path fill="#594217" d="M17 58h1v1h-1z"/><path fill="#FABF1B" d="M18 58h1v1h-1zM19 58h1v1h-1z"/><path fill="#FEED34" d="M20 58h1v1h-1z"/><path fill="#FFF338" d="M21 58h1v1h-1zM22 58h1v1h-1zM23 58h1v1h-1zM24 58h1v1h-1zM25 58h1v1h-1zM26 58h1v1h-1zM27 58h1v1h-1zM28 58h1v1h-1zM29 58h1v1h-1zM30 58h1v1h-1zM31 58h1v1h-1zM32 58h1v1h-1zM33 58h1v1h-1zM34 58h1v1h-1zM35 58h1v1h-1zM36 58h1v1h-1zM37 58h1v1h-1zM38 58h1v1h-1zM39 58h1v1h-1zM40 58h1v1h-1zM41 58h1v1h-1zM42 58h1v1h-1zM43 58h1v1h-1zM44 58h1v1h-1zM45 58h1v1h-1zM46 58h1v1h-1zM47 58h1v1h-1zM48 58h1v1h-1zM49 58h1v1h-1zM50 58h1v1h-1zM51 58h1v1h-1zM52 58h1v1h-1zM53 58h1v1h-1zM54 58h1v1h-1zM55 58h1v1h-1zM56 58h1v1h-1zM57 58h1v1h-1zM58 58h1v1h-1zM59 58h1v1h-1zM60 58h1v1h-1zM61 58h1v1h-1z"/><path fill="#FEED34" d="M62 58h1v1h-1z"/><path fill="#FABF1B" d="M63 58h1v1h-1zM64 58h1v1h-1zM65 58h1v1h-1zM66 58h1v1h-1zM67 58h1v1h-1zM68 58h1v1h-1zM69 58h1v1h-1zM70 58h1v1h-1zM71 58h1v1h-1zM72 58h1v1h-1zM73 58h1v1h-1z"/><path fill="#C4951A" d="M74 58h1v1h-1z"/><path fill="#231815" d="M75 58h1v1h-1zM76 58h1v1h-1zM77 58h1v1h-1zM14 59h1v1h-1zM15 59h1v1h-1zM16 59h1v1h-1zM17 59h1v1h-1z"/><path fill="#C4951A" d="M18 59h1v1h-1z"/><path fill="#FABF1B" d="M19 59h1v1h-1z"/><path fill="#FCCF24" d="M20 59h1v1h-1z"/><path fill="#FFF338" d="M21 59h1v1h-1zM22 59h1v1h-1zM23 59h1v1h-1zM24 59h1v1h-1zM25 59h1v1h-1zM26 59h1v1h-1zM27 59h1v1h-1zM28 59h1v1h-1zM29 59h1v1h-1zM30 59h1v1h-1zM31 59h1v1h-1zM32 59h1v1h-1zM33 59h1v1h-1zM34 59h1v1h-1zM35 59h1v1h-1zM36 59h1v1h-1zM37 59h1v1h-1zM38 59h1v1h-1zM39 59h1v1h-1zM40 59h1v1h-1zM41 59h1v1h-1zM42 59h1v1h-1zM43 59h1v1h-1zM44 59h1v1h-1zM45 59h1v1h-1zM46 59h1v1h-1zM47 59h1v1h-1zM48 59h1v1h-1zM49 59h1v1h-1zM50 59h1v1h-1zM51 59h1v1h-1zM52 59h1v1h-1zM53 59h1v1h-1zM54 59h1v1h-1zM55 59h1v1h-1zM56 59h1v1h-1zM57 59h1v1h-1zM58 59h1v1h-1zM59 59h1v1h-1zM60 59h1v1h-1zM61 59h1v1h-1z"/><path fill="#FCCF24" d="M62 59h1v1h-1z"/><path fill="#FABF1B" d="M63 59h1v1h-1zM64 59h1v1h-1zM65 59h1v1h-1zM66 59h1v1h-1zM67 59h1v1h-1zM68 59h1v1h-1zM69 59h1v1h-1zM70 59h1v1h-1zM71 59h1v1h-1zM72 59h1v1h-1zM73 59h1v1h-1z"/><path fill="#C4951A" d="M74 59h1v1h-1z"/><path fill="#231815" d="M75 59h1v1h-1zM76 59h1v1h-1zM77 59h1v1h-1zM15 60h1v1h-1zM16 60h1v1h-1zM17 60h1v1h-1z"/><path fill="#594217" d="M18 60h1v1h-1z"/><path fill="#FABF1B" d="M19 60h1v1h-1zM20 60h1v1h-1z"/><path fill="#FDE32F" d="M21 60h1v1h-1z"/><path fill="#FFF338" d="M22 60h1v1h-1zM23 60h1v1h-1zM24 60h1v1h-1zM25 60h1v1h-1zM26 60h1v1h-1zM27 60h1v1h-1zM28 60h1v1h-1zM29 60h1v1h-1zM30 60h1v1h-1zM31 60h1v1h-1zM32 60h1v1h-1zM33 60h1v1h-1zM34 60h1v1h-1zM35 60h1v1h-1zM36 60h1v1h-1zM37 60h1v1h-1zM38 60h1v1h-1zM39 60h1v1h-1zM40 60h1v1h-1zM41 60h1v1h-1zM42 60h1v1h-1zM43 60h1v1h-1zM44 60h1v1h-1zM45 60h1v1h-1zM46 60h1v1h-1zM47 60h1v1h-1zM48 60h1v1h-1zM49 60h1v1h-1zM50 60h1v1h-1zM51 60h1v1h-1zM52 60h1v1h-1zM53 60h1v1h-1zM54 60h1v1h-1zM55 60h1v1h-1zM56 60h1v1h-1zM57 60h1v1h-1zM58 60h1v1h-1zM59 60h1v1h-1zM60 60h1v1h-1z"/><path fill="#FDE32F" d="M61 60h1v1h-1z"/><path fill="#FABF1B" d="M62 60h1v1h-1zM63 60h1v1h-1zM64 60h1v1h-1zM65 60h1v1h-1zM66 60h1v1h-1zM67 60h1v1h-1zM68 60h1v1h-1zM69 60h1v1h-1zM70 60h1v1h-1zM71 60h1v1h-1zM72 60h1v1h-1zM73 60h1v1h-1z"/><path fill="#C4951A" d="M74 60h1v1h-1z"/><path fill="#231815" d="M75 60h1v1h-1zM76 60h1v1h-1zM77 60h1v1h-1zM15 61h1v1h-1zM16 61h1v1h-1zM17 61h1v1h-1zM18 61h1v1h-1z"/><path fill="#A98019" d="M19 61h1v1h-1z"/><path fill="#FABF1B" d="M20 61h1v1h-1z"/><path fill="#FAC21D" d="M21 61h1v1h-1z"/><path fill="#FFF036" d="M22 61h1v1h-1z"/><path fill="#FFF338" d="M23 61h1v1h-1zM24 61h1v1h-1zM25 61h1v1h-1zM26 61h1v1h-1zM27 61h1v1h-1zM28 61h1v1h-1zM29 61h1v1h-1zM30 61h1v1h-1zM31 61h1v1h-1zM32 61h1v1h-1zM33 61h1v1h-1zM34 61h1v1h-1zM35 61h1v1h-1zM36 61h1v1h-1zM37 61h1v1h-1zM38 61h1v1h-1zM39 61h1v1h-1zM40 61h1v1h-1zM41 61h1v1h-1zM42 61h1v1h-1zM43 61h1v1h-1zM44 61h1v1h-1zM45 61h1v1h-1zM46 61h1v1h-1zM47 61h1v1h-1zM48 61h1v1h-1zM49 61h1v1h-1zM50 61h1v1h-1zM51 61h1v1h-1zM52 61h1v1h-1zM53 61h1v1h-1zM54 61h1v1h-1zM55 61h1v1h-1zM56 61h1v1h-1zM57 61h1v1h-1zM58 61h1v1h-1zM59 61h1v1h-1z"/><path fill="#FEED34" d="M60 61h1v1h-1z"/><path fill="#FAC21D" d="M61 61h1v1h-1z"/><path fill="#FABF1B" d="M62 61h1v1h-1zM63 61h1v1h-1zM64 61h1v1h-1zM65 61h1v1h-1zM66 61h1v1h-1zM67 61h1v1h-1zM68 61h1v1h-1zM69 61h1v1h-1zM70 61h1v1h-1zM71 61h1v1h-1zM72 61h1v1h-1zM73 61h1v1h-1z"/><path fill="#C4951A" d="M74 61h1v1h-1z"/><path fill="#231815" d="M75 61h1v1h-1zM76 61h1v1h-1zM77 61h1v1h-1zM16 62h1v1h-1zM17 62h1v1h-1zM18 62h1v1h-1z"/><path fill="#302215" d="M19 62h1v1h-1z"/><path fill="#EDB51B" d="M20 62h1v1h-1z"/><path fill="#FABF1B" d="M21 62h1v1h-1z"/><path fill="#FBC920" d="M22 62h1v1h-1z"/><path fill="#FFF036" d="M23 62h1v1h-1z"/><path fill="#FFF338" d="M24 62h1v1h-1zM25 62h1v1h-1zM26 62h1v1h-1zM27 62h1v1h-1zM28 62h1v1h-1zM29 62h1v1h-1zM30 62h1v1h-1zM31 62h1v1h-1zM32 62h1v1h-1zM33 62h1v1h-1zM34 62h1v1h-1zM35 62h1v1h-1zM36 62h1v1h-1zM37 62h1v1h-1zM38 62h1v1h-1zM39 62h1v1h-1zM40 62h1v1h-1zM41 62h1v1h-1zM42 62h1v1h-1zM43 62h1v1h-1zM44 62h1v1h-1zM45 62h1v1h-1zM46 62h1v1h-1zM47 62h1v1h-1zM48 62h1v1h-1zM49 62h1v1h-1zM50 62h1v1h-1zM51 62h1v1h-1zM52 62h1v1h-1zM53 62h1v1h-1zM54 62h1v1h-1zM55 62h1v1h-1zM56 62h1v1h-1zM57 62h1v1h-1zM58 62h1v1h-1z"/><path fill="#FFF036" d="M59 62h1v1h-1z"/><path fill="#FBC920" d="M60 62h1v1h-1z"/><path fill="#FABF1B" d="M61 62h1v1h-1zM62 62h1v1h-1zM63 62h1v1h-1zM64 62h1v1h-1zM65 62h1v1h-1zM66 62h1v1h-1zM67 62h1v1h-1zM68 62h1v1h-1zM69 62h1v1h-1zM70 62h1v1h-1zM71 62h1v1h-1zM72 62h1v1h-1zM73 62h1v1h-1z"/><path fill="#B78B19" d="M74 62h1v1h-1z"/><path fill="#231815" d="M75 62h1v1h-1zM76 62h1v1h-1zM77 62h1v1h-1zM16 63h1v1h-1zM17 63h1v1h-1zM18 63h1v1h-1zM19 63h1v1h-1z"/><path fill="#664C17" d="M20 63h1v1h-1z"/><path fill="#FABF1B" d="M21 63h1v1h-1zM22 63h1v1h-1z"/><path fill="#FCD326" d="M23 63h1v1h-1z"/><path fill="#FFF338" d="M24 63h1v1h-1zM25 63h1v1h-1zM26 63h1v1h-1zM27 63h1v1h-1zM28 63h1v1h-1zM29 63h1v1h-1zM30 63h1v1h-1zM31 63h1v1h-1zM32 63h1v1h-1zM33 63h1v1h-1zM34 63h1v1h-1zM35 63h1v1h-1zM36 63h1v1h-1zM37 63h1v1h-1zM38 63h1v1h-1zM39 63h1v1h-1zM40 63h1v1h-1zM41 63h1v1h-1zM42 63h1v1h-1zM43 63h1v1h-1zM44 63h1v1h-1zM45 63h1v1h-1zM46 63h1v1h-1zM47 63h1v1h-1zM48 63h1v1h-1zM49 63h1v1h-1zM50 63h1v1h-1zM51 63h1v1h-1zM52 63h1v1h-1zM53 63h1v1h-1zM54 63h1v1h-1zM55 63h1v1h-1zM56 63h1v1h-1zM57 63h1v1h-1zM58 63h1v1h-1z"/><path fill="#FCCF24" d="M59 63h1v1h-1z"/><path fill="#FABF1B" d="M60 63h1v1h-1zM61 63h1v1h-1zM62 63h1v1h-1zM63 63h1v1h-1zM64 63h1v1h-1zM65 63h1v1h-1zM66 63h1v1h-1zM67 63h1v1h-1zM68 63h1v1h-1zM69 63h1v1h-1zM70 63h1v1h-1zM71 63h1v1h-1zM72 63h1v1h-1zM73 63h1v1h-1z"/><path fill="#8F6C18" d="M74 63h1v1h-1z"/><path fill="#231815" d="M75 63h1v1h-1zM76 63h1v1h-1zM77 63h1v1h-1zM17 64h1v1h-1zM18 64h1v1h-1zM19 64h1v1h-1zM20 64h1v1h-1z"/><path fill="#A98019" d="M21 64h1v1h-1z"/><path fill="#FABF1B" d="M22 64h1v1h-1zM23 64h1v1h-1z"/><path fill="#FCD326" d="M24 64h1v1h-1z"/><path fill="#FFF338" d="M25 64h1v1h-1zM26 64h1v1h-1zM27 64h1v1h-1zM28 64h1v1h-1zM29 64h1v1h-1zM30 64h1v1h-1zM31 64h1v1h-1zM32 64h1v1h-1zM33 64h1v1h-1zM34 64h1v1h-1zM35 64h1v1h-1zM36 64h1v1h-1zM37 64h1v1h-1zM38 64h1v1h-1zM39 64h1v1h-1zM40 64h1v1h-1zM41 64h1v1h-1zM42 64h1v1h-1zM43 64h1v1h-1zM44 64h1v1h-1zM45 64h1v1h-1zM46 64h1v1h-1zM47 64h1v1h-1zM48 64h1v1h-1zM49 64h1v1h-1zM50 64h1v1h-1zM51 64h1v1h-1zM52 64h1v1h-1zM53 64h1v1h-1zM54 64h1v1h-1zM55 64h1v1h-1zM56 64h1v1h-1zM57 64h1v1h-1z"/><path fill="#FCD326" d="M58 64h1v1h-1z"/><path fill="#FABF1B" d="M59 64h1v1h-1zM60 64h1v1h-1zM61 64h1v1h-1zM62 64h1v1h-1zM63 64h1v1h-1zM64 64h1v1h-1zM65 64h1v1h-1zM66 64h1v1h-1zM67 64h1v1h-1zM68 64h1v1h-1zM69 64h1v1h-1zM70 64h1v1h-1zM71 64h1v1h-1zM72 64h1v1h-1zM73 64h1v1h-1z"/><path fill="#8F6C18" d="M74 64h1v1h-1z"/><path fill="#231815" d="M75 64h1v1h-1zM76 64h1v1h-1zM77 64h1v1h-1zM18 65h1v1h-1zM19 65h1v1h-1zM20 65h1v1h-1z"/><path fill="#302215" d="M21 65h1v1h-1z"/><path fill="#D2A01A" d="M22 65h1v1h-1z"/><path fill="#FABF1B" d="M23 65h1v1h-1zM24 65h1v1h-1z"/><path fill="#FCCF24" d="M25 65h1v1h-1z"/><path fill="#FFF036" d="M26 65h1v1h-1z"/><path fill="#FFF338" d="M27 65h1v1h-1zM28 65h1v1h-1zM29 65h1v1h-1zM30 65h1v1h-1zM31 65h1v1h-1zM32 65h1v1h-1zM33 65h1v1h-1zM34 65h1v1h-1zM35 65h1v1h-1zM36 65h1v1h-1zM37 65h1v1h-1zM38 65h1v1h-1zM39 65h1v1h-1zM40 65h1v1h-1zM41 65h1v1h-1zM42 65h1v1h-1zM43 65h1v1h-1zM44 65h1v1h-1zM45 65h1v1h-1zM46 65h1v1h-1zM47 65h1v1h-1zM48 65h1v1h-1zM49 65h1v1h-1zM50 65h1v1h-1zM51 65h1v1h-1zM52 65h1v1h-1zM53 65h1v1h-1zM54 65h1v1h-1zM55 65h1v1h-1z"/><path fill="#FFF036" d="M56 65h1v1h-1z"/><path fill="#FBCC22" d="M57 65h1v1h-1z"/><path fill="#FABF1B" d="M58 65h1v1h-1zM59 65h1v1h-1zM60 65h1v1h-1zM61 65h1v1h-1zM62 65h1v1h-1zM63 65h1v1h-1zM64 65h1v1h-1zM65 65h1v1h-1zM66 65h1v1h-1zM67 65h1v1h-1zM68 65h1v1h-1zM69 65h1v1h-1zM70 65h1v1h-1zM71 65h1v1h-1zM72 65h1v1h-1zM73 65h1v1h-1z"/><path fill="#594217" d="M74 65h1v1h-1z"/><path fill="#231815" d="M75 65h1v1h-1zM76 65h1v1h-1zM77 65h1v1h-1zM18 66h1v1h-1zM19 66h1v1h-1zM20 66h1v1h-1zM21 66h1v1h-1z"/><path fill="#3E2D16" d="M22 66h1v1h-1z"/><path fill="#EDB51B" d="M23 66h1v1h-1z"/><path fill="#FABF1B" d="M24 66h1v1h-1zM25 66h1v1h-1z"/><path fill="#FBC920" d="M26 66h1v1h-1z"/><path fill="#FEE933" d="M27 66h1v1h-1z"/><path fill="#FFF338" d="M28 66h1v1h-1zM29 66h1v1h-1zM30 66h1v1h-1zM31 66h1v1h-1zM32 66h1v1h-1zM33 66h1v1h-1zM34 66h1v1h-1zM35 66h1v1h-1zM36 66h1v1h-1zM37 66h1v1h-1zM38 66h1v1h-1zM39 66h1v1h-1zM40 66h1v1h-1zM41 66h1v1h-1zM42 66h1v1h-1zM43 66h1v1h-1zM44 66h1v1h-1zM45 66h1v1h-1zM46 66h1v1h-1zM47 66h1v1h-1zM48 66h1v1h-1zM49 66h1v1h-1zM50 66h1v1h-1zM51 66h1v1h-1zM52 66h1v1h-1zM53 66h1v1h-1zM54 66h1v1h-1z"/><path fill="#FEE933" d="M55 66h1v1h-1z"/><path fill="#FBC920" d="M56 66h1v1h-1z"/><path fill="#FABF1B" d="M57 66h1v1h-1zM58 66h1v1h-1zM59 66h1v1h-1zM60 66h1v1h-1zM61 66h1v1h-1zM62 66h1v1h-1zM63 66h1v1h-1zM64 66h1v1h-1zM65 66h1v1h-1zM66 66h1v1h-1zM67 66h1v1h-1zM68 66h1v1h-1zM69 66h1v1h-1zM70 66h1v1h-1zM71 66h1v1h-1zM72 66h1v1h-1zM73 66h1v1h-1z"/><path fill="#594217" d="M74 66h1v1h-1z"/><path fill="#231815" d="M75 66h1v1h-1zM76 66h1v1h-1zM77 66h1v1h-1zM19 67h1v1h-1zM20 67h1v1h-1zM21 67h1v1h-1zM22 67h1v1h-1z"/><path fill="#4B3716" d="M23 67h1v1h-1z"/><path fill="#EDB51B" d="M24 67h1v1h-1z"/><path fill="#FABF1B" d="M25 67h1v1h-1zM26 67h1v1h-1zM27 67h1v1h-1z"/><path fill="#FDD92A" d="M28 67h1v1h-1z"/><path fill="#FFF338" d="M29 67h1v1h-1zM30 67h1v1h-1zM31 67h1v1h-1zM32 67h1v1h-1zM33 67h1v1h-1zM34 67h1v1h-1zM35 67h1v1h-1zM36 67h1v1h-1zM37 67h1v1h-1zM38 67h1v1h-1zM39 67h1v1h-1zM40 67h1v1h-1zM41 67h1v1h-1zM42 67h1v1h-1zM43 67h1v1h-1zM44 67h1v1h-1zM45 67h1v1h-1zM46 67h1v1h-1zM47 67h1v1h-1zM48 67h1v1h-1zM49 67h1v1h-1zM50 67h1v1h-1zM51 67h1v1h-1zM52 67h1v1h-1zM53 67h1v1h-1z"/><path fill="#FDD92A" d="M54 67h1v1h-1z"/><path fill="#FABF1B" d="M55 67h1v1h-1zM56 67h1v1h-1zM57 67h1v1h-1zM58 67h1v1h-1zM59 67h1v1h-1zM60 67h1v1h-1zM61 67h1v1h-1zM62 67h1v1h-1zM63 67h1v1h-1zM64 67h1v1h-1zM65 67h1v1h-1zM66 67h1v1h-1zM67 67h1v1h-1zM68 67h1v1h-1zM69 67h1v1h-1zM70 67h1v1h-1zM71 67h1v1h-1zM72 67h1v1h-1zM73 67h1v1h-1z"/><path fill="#8F6C18" d="M74 67h1v1h-1z"/><path fill="#231815" d="M75 67h1v1h-1zM76 67h1v1h-1zM77 67h1v1h-1zM20 68h1v1h-1zM21 68h1v1h-1zM22 68h1v1h-1zM23 68h1v1h-1z"/><path fill="#4B3716" d="M24 68h1v1h-1z"/><path fill="#EDB51B" d="M25 68h1v1h-1z"/><path fill="#FABF1B" d="M26 68h1v1h-1zM27 68h1v1h-1zM28 68h1v1h-1z"/><path fill="#FBC61F" d="M29 68h1v1h-1z"/><path fill="#FEE631" d="M30 68h1v1h-1z"/><path fill="#FFF338" d="M31 68h1v1h-1zM32 68h1v1h-1zM33 68h1v1h-1zM34 68h1v1h-1zM35 68h1v1h-1zM36 68h1v1h-1zM37 68h1v1h-1zM38 68h1v1h-1zM39 68h1v1h-1zM40 68h1v1h-1zM41 68h1v1h-1zM42 68h1v1h-1zM43 68h1v1h-1zM44 68h1v1h-1zM45 68h1v1h-1zM46 68h1v1h-1zM47 68h1v1h-1zM48 68h1v1h-1zM49 68h1v1h-1zM50 68h1v1h-1zM51 68h1v1h-1z"/><path fill="#FDE02D" d="M52 68h1v1h-1z"/><path fill="#FBC61F" d="M53 68h1v1h-1z"/><path fill="#FABF1B" d="M54 68h1v1h-1zM55 68h1v1h-1zM56 68h1v1h-1zM57 68h1v1h-1zM58 68h1v1h-1zM59 68h1v1h-1zM60 68h1v1h-1zM61 68h1v1h-1zM62 68h1v1h-1zM63 68h1v1h-1zM64 68h1v1h-1zM65 68h1v1h-1zM66 68h1v1h-1zM67 68h1v1h-1zM68 68h1v1h-1zM69 68h1v1h-1zM70 68h1v1h-1zM71 68h1v1h-1zM72 68h1v1h-1zM73 68h1v1h-1z"/><path fill="#D2A01A" d="M74 68h1v1h-1z"/><path fill="#231815" d="M75 68h1v1h-1zM76 68h1v1h-1zM77 68h1v1h-1zM78 68h1v1h-1zM21 69h1v1h-1zM22 69h1v1h-1zM23 69h1v1h-1zM24 69h1v1h-1z"/><path fill="#3E2D16" d="M25 69h1v1h-1z"/><path fill="#D2A01A" d="M26 69h1v1h-1z"/><path fill="#FABF1B" d="M27 69h1v1h-1zM28 69h1v1h-1zM29 69h1v1h-1zM30 69h1v1h-1z"/><path fill="#FBC61F" d="M31 69h1v1h-1z"/><path fill="#FDE02D" d="M32 69h1v1h-1z"/><path fill="#FFF036" d="M33 69h1v1h-1z"/><path fill="#FFF338" d="M34 69h1v1h-1zM35 69h1v1h-1zM36 69h1v1h-1zM37 69h1v1h-1zM38 69h1v1h-1zM39 69h1v1h-1zM40 69h1v1h-1zM41 69h1v1h-1zM42 69h1v1h-1zM43 69h1v1h-1zM44 69h1v1h-1zM45 69h1v1h-1zM46 69h1v1h-1zM47 69h1v1h-1zM48 69h1v1h-1z"/><path fill="#FFF036" d="M49 69h1v1h-1z"/><path fill="#FDE02D" d="M50 69h1v1h-1z"/><path fill="#FBC61F" d="M51 69h1v1h-1z"/><path fill="#FABF1B" d="M52 69h1v1h-1zM53 69h1v1h-1zM54 69h1v1h-1zM55 69h1v1h-1zM56 69h1v1h-1zM57 69h1v1h-1zM58 69h1v1h-1zM59 69h1v1h-1zM60 69h1v1h-1zM61 69h1v1h-1zM62 69h1v1h-1zM63 69h1v1h-1zM64 69h1v1h-1zM65 69h1v1h-1zM66 69h1v1h-1zM67 69h1v1h-1zM68 69h1v1h-1zM69 69h1v1h-1zM70 69h1v1h-1zM71 69h1v1h-1zM72 69h1v1h-1zM73 69h1v1h-1zM74 69h1v1h-1z"/><path fill="#594217" d="M75 69h1v1h-1z"/><path fill="#231815" d="M76 69h1v1h-1zM77 69h1v1h-1zM78 69h1v1h-1zM22 70h1v1h-1zM23 70h1v1h-1zM24 70h1v1h-1zM25 70h1v1h-1z"/><path fill="#302215" d="M26 70h1v1h-1z"/><path fill="#9C7618" d="M27 70h1v1h-1z"/><path fill="#FABF1B" d="M28 70h1v1h-1zM29 70h1v1h-1zM30 70h1v1h-1zM31 70h1v1h-1zM32 70h1v1h-1zM33 70h1v1h-1z"/><path fill="#FCCF24" d="M34 70h1v1h-1z"/><path fill="#FDDC2B" d="M35 70h1v1h-1z"/><path fill="#FEE933" d="M36 70h1v1h-1z"/><path fill="#FFF338" d="M37 70h1v1h-1zM38 70h1v1h-1zM39 70h1v1h-1zM40 70h1v1h-1zM41 70h1v1h-1zM42 70h1v1h-1zM43 70h1v1h-1zM44 70h1v1h-1zM45 70h1v1h-1z"/><path fill="#FEE933" d="M46 70h1v1h-1z"/><path fill="#FDDC2B" d="M47 70h1v1h-1z"/><path fill="#FCCF24" d="M48 70h1v1h-1z"/><path fill="#FABF1B" d="M49 70h1v1h-1zM50 70h1v1h-1zM51 70h1v1h-1zM52 70h1v1h-1zM53 70h1v1h-1zM54 70h1v1h-1zM55 70h1v1h-1zM56 70h1v1h-1zM57 70h1v1h-1zM58 70h1v1h-1zM59 70h1v1h-1zM60 70h1v1h-1zM61 70h1v1h-1zM62 70h1v1h-1zM63 70h1v1h-1zM64 70h1v1h-1zM65 70h1v1h-1zM66 70h1v1h-1zM67 70h1v1h-1zM68 70h1v1h-1zM69 70h1v1h-1zM70 70h1v1h-1zM71 70h1v1h-1zM72 70h1v1h-1zM73 70h1v1h-1zM74 70h1v1h-1z"/><path fill="#D2A01A" d="M75 70h1v1h-1z"/><path fill="#231815" d="M76 70h1v1h-1zM77 70h1v1h-1zM78 70h1v1h-1zM79 70h1v1h-1zM23 71h1v1h-1zM24 71h1v1h-1zM25 71h1v1h-1zM26 71h1v1h-1zM27 71h1v1h-1z"/><path fill="#594217" d="M28 71h1v1h-1z"/><path fill="#DFAA1A" d="M29 71h1v1h-1z"/><path fill="#FABF1B" d="M30 71h1v1h-1zM31 71h1v1h-1zM32 71h1v1h-1zM33 71h1v1h-1zM34 71h1v1h-1zM35 71h1v1h-1zM36 71h1v1h-1zM37 71h1v1h-1z"/><path fill="#FBC920" d="M38 71h1v1h-1z"/><path fill="#FBCC22" d="M39 71h1v1h-1zM40 71h1v1h-1zM41 71h1v1h-1zM42 71h1v1h-1zM43 71h1v1h-1z"/><path fill="#FBC920" d="M44 71h1v1h-1z"/><path fill="#FABF1B" d="M45 71h1v1h-1zM46 71h1v1h-1zM47 71h1v1h-1zM48 71h1v1h-1zM49 71h1v1h-1zM50 71h1v1h-1zM51 71h1v1h-1zM52 71h1v1h-1zM53 71h1v1h-1zM54 71h1v1h-1zM55 71h1v1h-1zM56 71h1v1h-1zM57 71h1v1h-1zM58 71h1v1h-1zM59 71h1v1h-1zM60 71h1v1h-1zM61 71h1v1h-1zM62 71h1v1h-1zM63 71h1v1h-1zM64 71h1v1h-1zM65 71h1v1h-1zM66 71h1v1h-1zM67 71h1v1h-1zM68 71h1v1h-1zM69 71h1v1h-1zM70 71h1v1h-1zM71 71h1v1h-1zM72 71h1v1h-1zM73 71h1v1h-1zM74 71h1v1h-1zM75 71h1v1h-1z"/><path fill="#816118" d="M76 71h1v1h-1z"/><path fill="#231815" d="M77 71h1v1h-1zM78 71h1v1h-1zM79 71h1v1h-1zM80 71h1v1h-1zM24 72h1v1h-1zM25 72h1v1h-1zM26 72h1v1h-1zM27 72h1v1h-1zM28 72h1v1h-1zM29 72h1v1h-1z"/><path fill="#745717" d="M30 72h1v1h-1z"/><path fill="#DFAA1A" d="M31 72h1v1h-1z"/><path fill="#FABF1B" d="M32 72h1v1h-1zM33 72h1v1h-1zM34 72h1v1h-1zM35 72h1v1h-1zM36 72h1v1h-1zM37 72h1v1h-1zM38 72h1v1h-1zM39 72h1v1h-1zM40 72h1v1h-1zM41 72h1v1h-1zM42 72h1v1h-1zM43 72h1v1h-1zM44 72h1v1h-1zM45 72h1v1h-1zM46 72h1v1h-1zM47 72h1v1h-1zM48 72h1v1h-1zM49 72h1v1h-1zM50 72h1v1h-1zM51 72h1v1h-1zM52 72h1v1h-1zM53 72h1v1h-1zM54 72h1v1h-1zM55 72h1v1h-1zM56 72h1v1h-1zM57 72h1v1h-1zM58 72h1v1h-1zM59 72h1v1h-1zM60 72h1v1h-1zM61 72h1v1h-1zM62 72h1v1h-1zM63 72h1v1h-1zM64 72h1v1h-1zM65 72h1v1h-1zM66 72h1v1h-1zM67 72h1v1h-1zM68 72h1v1h-1zM69 72h1v1h-1zM70 72h1v1h-1zM71 72h1v1h-1zM72 72h1v1h-1zM73 72h1v1h-1zM74 72h1v1h-1zM75 72h1v1h-1z"/><path fill="#EDB51B" d="M76 72h1v1h-1z"/><path fill="#3E2D16" d="M77 72h1v1h-1z"/><path fill="#231815" d="M78 72h1v1h-1zM79 72h1v1h-1zM80 72h1v1h-1zM81 72h1v1h-1zM25 73h1v1h-1zM26 73h1v1h-1zM27 73h1v1h-1zM28 73h1v1h-1zM29 73h1v1h-1zM30 73h1v1h-1zM31 73h1v1h-1z"/><path fill="#745717" d="M32 73h1v1h-1z"/><path fill="#C4951A" d="M33 73h1v1h-1z"/><path fill="#FABF1B" d="M34 73h1v1h-1zM35 73h1v1h-1zM36 73h1v1h-1zM37 73h1v1h-1zM38 73h1v1h-1zM39 73h1v1h-1zM40 73h1v1h-1zM41 73h1v1h-1zM42 73h1v1h-1zM43 73h1v1h-1zM44 73h1v1h-1zM45 73h1v1h-1zM46 73h1v1h-1zM47 73h1v1h-1zM48 73h1v1h-1zM49 73h1v1h-1zM50 73h1v1h-1zM51 73h1v1h-1zM52 73h1v1h-1zM53 73h1v1h-1zM54 73h1v1h-1zM55 73h1v1h-1zM56 73h1v1h-1zM57 73h1v1h-1zM58 73h1v1h-1zM59 73h1v1h-1zM60 73h1v1h-1zM61 73h1v1h-1zM62 73h1v1h-1zM63 73h1v1h-1zM64 73h1v1h-1zM65 73h1v1h-1zM66 73h1v1h-1zM67 73h1v1h-1zM68 73h1v1h-1zM69 73h1v1h-1zM70 73h1v1h-1zM71 73h1v1h-1zM72 73h1v1h-1zM73 73h1v1h-1zM74 73h1v1h-1zM75 73h1v1h-1zM76 73h1v1h-1z"/><path fill="#D2A01A" d="M77 73h1v1h-1z"/><path fill="#231815" d="M78 73h1v1h-1zM79 73h1v1h-1zM80 73h1v1h-1zM81 73h1v1h-1zM27 74h1v1h-1zM28 74h1v1h-1zM29 74h1v1h-1zM30 74h1v1h-1zM31 74h1v1h-1zM32 74h1v1h-1zM33 74h1v1h-1z"/><path fill="#3E2D16" d="M34 74h1v1h-1z"/><path fill="#9C7618" d="M35 74h1v1h-1z"/><path fill="#DFAA1A" d="M36 74h1v1h-1z"/><path fill="#FABF1B" d="M37 74h1v1h-1zM38 74h1v1h-1zM39 74h1v1h-1zM40 74h1v1h-1zM41 74h1v1h-1zM42 74h1v1h-1zM43 74h1v1h-1zM44 74h1v1h-1zM45 74h1v1h-1zM46 74h1v1h-1zM47 74h1v1h-1zM48 74h1v1h-1zM49 74h1v1h-1zM50 74h1v1h-1zM51 74h1v1h-1zM52 74h1v1h-1zM53 74h1v1h-1zM54 74h1v1h-1zM55 74h1v1h-1zM56 74h1v1h-1zM57 74h1v1h-1zM58 74h1v1h-1zM59 74h1v1h-1zM60 74h1v1h-1zM61 74h1v1h-1zM62 74h1v1h-1zM63 74h1v1h-1zM64 74h1v1h-1zM65 74h1v1h-1zM66 74h1v1h-1zM67 74h1v1h-1zM68 74h1v1h-1zM69 74h1v1h-1zM70 74h1v1h-1zM71 74h1v1h-1zM72 74h1v1h-1zM73 74h1v1h-1zM74 74h1v1h-1zM75 74h1v1h-1zM76 74h1v1h-1zM77 74h1v1h-1z"/><path fill="#9C7618" d="M78 74h1v1h-1z"/><path fill="#231815" d="M79 74h1v1h-1zM80 74h1v1h-1zM81 74h1v1h-1zM82 74h1v1h-1zM29 75h1v1h-1zM30 75h1v1h-1zM31 75h1v1h-1zM32 75h1v1h-1zM33 75h1v1h-1zM34 75h1v1h-1zM35 75h1v1h-1zM36 75h1v1h-1z"/><path fill="#3E2D16" d="M37 75h1v1h-1z"/><path fill="#816118" d="M38 75h1v1h-1z"/><path fill="#B78B19" d="M39 75h1v1h-1z"/><path fill="#EDB51B" d="M40 75h1v1h-1z"/><path fill="#FABF1B" d="M41 75h1v1h-1zM42 75h1v1h-1zM43 75h1v1h-1zM44 75h1v1h-1zM45 75h1v1h-1zM46 75h1v1h-1zM47 75h1v1h-1zM48 75h1v1h-1zM49 75h1v1h-1zM50 75h1v1h-1zM51 75h1v1h-1zM52 75h1v1h-1zM53 75h1v1h-1zM54 75h1v1h-1zM55 75h1v1h-1zM56 75h1v1h-1zM57 75h1v1h-1zM58 75h1v1h-1zM59 75h1v1h-1zM60 75h1v1h-1zM61 75h1v1h-1zM62 75h1v1h-1zM63 75h1v1h-1zM64 75h1v1h-1zM65 75h1v1h-1zM66 75h1v1h-1zM67 75h1v1h-1zM68 75h1v1h-1zM69 75h1v1h-1zM70 75h1v1h-1zM71 75h1v1h-1zM72 75h1v1h-1zM73 75h1v1h-1zM74 75h1v1h-1zM75 75h1v1h-1zM76 75h1v1h-1zM77 75h1v1h-1zM78 75h1v1h-1z"/><path fill="#664C17" d="M79 75h1v1h-1z"/><path fill="#231815" d="M80 75h1v1h-1zM81 75h1v1h-1zM82 75h1v1h-1zM83 75h1v1h-1zM31 76h1v1h-1zM32 76h1v1h-1zM33 76h1v1h-1zM34 76h1v1h-1zM35 76h1v1h-1zM36 76h1v1h-1zM37 76h1v1h-1zM38 76h1v1h-1zM39 76h1v1h-1zM40 76h1v1h-1z"/><path fill="#3E2D16" d="M41 76h1v1h-1z"/><path fill="#664C17" d="M42 76h1v1h-1z"/><path fill="#8F6C18" d="M43 76h1v1h-1z"/><path fill="#B78B19" d="M44 76h1v1h-1z"/><path fill="#C4951A" d="M45 76h1v1h-1z"/><path fill="#FABF1B" d="M46 76h1v1h-1zM47 76h1v1h-1zM48 76h1v1h-1zM49 76h1v1h-1zM50 76h1v1h-1zM51 76h1v1h-1zM52 76h1v1h-1zM53 76h1v1h-1zM54 76h1v1h-1zM55 76h1v1h-1zM56 76h1v1h-1zM57 76h1v1h-1zM58 76h1v1h-1zM59 76h1v1h-1zM60 76h1v1h-1zM61 76h1v1h-1zM62 76h1v1h-1zM63 76h1v1h-1zM64 76h1v1h-1zM65 76h1v1h-1zM66 76h1v1h-1zM67 76h1v1h-1zM68 76h1v1h-1zM69 76h1v1h-1zM70 76h1v1h-1zM71 76h1v1h-1zM72 76h1v1h-1zM73 76h1v1h-1zM74 76h1v1h-1zM75 76h1v1h-1zM76 76h1v1h-1zM77 76h1v1h-1zM78 76h1v1h-1z"/><path fill="#EDB51B" d="M79 76h1v1h-1z"/><path fill="#302215" d="M80 76h1v1h-1z"/><path fill="#231815" d="M81 76h1v1h-1zM82 76h1v1h-1zM83 76h1v1h-1zM33 77h1v1h-1zM34 77h1v1h-1zM35 77h1v1h-1zM36 77h1v1h-1zM37 77h1v1h-1zM38 77h1v1h-1zM39 77h1v1h-1zM40 77h1v1h-1zM41 77h1v1h-1zM42 77h1v1h-1zM43 77h1v1h-1zM44 77h1v1h-1zM45 77h1v1h-1zM46 77h1v1h-1zM47 77h1v1h-1z"/><path fill="#4B3716" d="M48 77h1v1h-1z"/><path fill="#594217" d="M49 77h1v1h-1zM50 77h1v1h-1zM51 77h1v1h-1z"/><path fill="#8F6C18" d="M52 77h1v1h-1zM53 77h1v1h-1zM54 77h1v1h-1zM55 77h1v1h-1zM56 77h1v1h-1z"/><path fill="#594217" d="M57 77h1v1h-1zM58 77h1v1h-1zM59 77h1v1h-1z"/><path fill="#4B3716" d="M60 77h1v1h-1z"/><path fill="#231815" d="M61 77h1v1h-1z"/><path fill="#4B3716" d="M62 77h1v1h-1z"/><path fill="#745717" d="M63 77h1v1h-1z"/><path fill="#C4951A" d="M64 77h1v1h-1z"/><path fill="#FABF1B" d="M65 77h1v1h-1zM66 77h1v1h-1zM67 77h1v1h-1zM68 77h1v1h-1zM69 77h1v1h-1zM70 77h1v1h-1zM71 77h1v1h-1zM72 77h1v1h-1zM73 77h1v1h-1zM74 77h1v1h-1zM75 77h1v1h-1zM76 77h1v1h-1zM77 77h1v1h-1zM78 77h1v1h-1zM79 77h1v1h-1z"/><path fill="#C4951A" d="M80 77h1v1h-1z"/><path fill="#231815" d="M81 77h1v1h-1zM82 77h1v1h-1zM83 77h1v1h-1zM84 77h1v1h-1zM36 78h1v1h-1zM37 78h1v1h-1zM38 78h1v1h-1zM39 78h1v1h-1zM40 78h1v1h-1zM41 78h1v1h-1zM42 78h1v1h-1zM43 78h1v1h-1zM44 78h1v1h-1zM45 78h1v1h-1zM46 78h1v1h-1zM47 78h1v1h-1zM48 78h1v1h-1zM49 78h1v1h-1zM50 78h1v1h-1zM51 78h1v1h-1zM52 78h1v1h-1zM53 78h1v1h-1zM54 78h1v1h-1zM55 78h1v1h-1zM56 78h1v1h-1zM57 78h1v1h-1zM58 78h1v1h-1zM59 78h1v1h-1zM60 78h1v1h-1zM61 78h1v1h-1zM62 78h1v1h-1zM63 78h1v1h-1zM64 78h1v1h-1z"/><path fill="#3E2D16" d="M65 78h1v1h-1z"/><path fill="#B78B19" d="M66 78h1v1h-1z"/><path fill="#FABF1B" d="M67 78h1v1h-1zM68 78h1v1h-1zM69 78h1v1h-1zM70 78h1v1h-1zM71 78h1v1h-1zM72 78h1v1h-1zM73 78h1v1h-1zM74 78h1v1h-1zM75 78h1v1h-1zM76 78h1v1h-1zM77 78h1v1h-1zM78 78h1v1h-1zM79 78h1v1h-1zM80 78h1v1h-1z"/><path fill="#816118" d="M81 78h1v1h-1z"/><path fill="#231815" d="M82 78h1v1h-1zM83 78h1v1h-1zM84 78h1v1h-1zM85 78h1v1h-1zM41 79h1v1h-1zM42 79h1v1h-1zM43 79h1v1h-1zM44 79h1v1h-1zM45 79h1v1h-1zM46 79h1v1h-1zM47 79h1v1h-1zM48 79h1v1h-1zM49 79h1v1h-1zM50 79h1v1h-1zM51 79h1v1h-1zM52 79h1v1h-1zM53 79h1v1h-1zM54 79h1v1h-1zM55 79h1v1h-1zM56 79h1v1h-1zM57 79h1v1h-1zM58 79h1v1h-1zM59 79h1v1h-1zM60 79h1v1h-1zM61 79h1v1h-1zM62 79h1v1h-1zM63 79h1v1h-1zM64 79h1v1h-1zM65 79h1v1h-1zM66 79h1v1h-1z"/><path fill="#594217" d="M67 79h1v1h-1z"/><path fill="#D2A01A" d="M68 79h1v1h-1z"/><path fill="#FABF1B" d="M69 79h1v1h-1zM70 79h1v1h-1zM71 79h1v1h-1zM72 79h1v1h-1zM73 79h1v1h-1zM74 79h1v1h-1zM75 79h1v1h-1zM76 79h1v1h-1zM77 79h1v1h-1zM78 79h1v1h-1zM79 79h1v1h-1zM80 79h1v1h-1zM81 79h1v1h-1z"/><path fill="#4B3716" d="M82 79h1v1h-1z"/><path fill="#231815" d="M83 79h1v1h-1zM84 79h1v1h-1zM85 79h1v1h-1zM48 80h1v1h-1zM49 80h1v1h-1zM50 80h1v1h-1zM51 80h1v1h-1zM52 80h1v1h-1zM53 80h1v1h-1zM54 80h1v1h-1zM55 80h1v1h-1zM56 80h1v1h-1zM57 80h1v1h-1zM58 80h1v1h-1zM59 80h1v1h-1zM60 80h1v1h-1zM62 80h1v1h-1zM63 80h1v1h-1zM64 80h1v1h-1zM65 80h1v1h-1zM66 80h1v1h-1zM67 80h1v1h-1zM68 80h1v1h-1z"/><path fill="#8F6C18" d="M69 80h1v1h-1z"/><path fill="#EDB51B" d="M70 80h1v1h-1z"/><path fill="#FABF1B" d="M71 80h1v1h-1zM72 80h1v1h-1zM73 80h1v1h-1zM74 80h1v1h-1zM75 80h1v1h-1zM76 80h1v1h-1zM77 80h1v1h-1zM78 80h1v1h-1zM79 80h1v1h-1zM80 80h1v1h-1zM81 80h1v1h-1z"/><path fill="#C4951A" d="M82 80h1v1h-1z"/><path fill="#231815" d="M83 80h1v1h-1zM84 80h1v1h-1zM85 80h1v1h-1zM86 80h1v1h-1zM64 81h1v1h-1zM65 81h1v1h-1zM66 81h1v1h-1zM67 81h1v1h-1zM68 81h1v1h-1zM69 81h1v1h-1z"/><path fill="#3E2D16" d="M70 81h1v1h-1z"/><path fill="#C4951A" d="M71 81h1v1h-1z"/><path fill="#FABF1B" d="M72 81h1v1h-1zM73 81h1v1h-1zM74 81h1v1h-1zM75 81h1v1h-1zM76 81h1v1h-1zM77 81h1v1h-1zM78 81h1v1h-1zM79 81h1v1h-1zM80 81h1v1h-1zM81 81h1v1h-1zM82 81h1v1h-1z"/><path fill="#745717" d="M83 81h1v1h-1z"/><path fill="#231815" d="M84 81h1v1h-1zM85 81h1v1h-1zM86 81h1v1h-1zM66 82h1v1h-1zM67 82h1v1h-1zM68 82h1v1h-1zM69 82h1v1h-1zM70 82h1v1h-1zM71 82h1v1h-1z"/><path fill="#664C17" d="M72 82h1v1h-1z"/><path fill="#EDB51B" d="M73 82h1v1h-1z"/><path fill="#FABF1B" d="M74 82h1v1h-1zM75 82h1v1h-1zM76 82h1v1h-1zM77 82h1v1h-1zM78 82h1v1h-1zM79 82h1v1h-1zM80 82h1v1h-1zM81 82h1v1h-1zM82 82h1v1h-1z"/><path fill="#DFAA1A" d="M83 82h1v1h-1z"/><path fill="#231815" d="M84 82h1v1h-1zM85 82h1v1h-1zM86 82h1v1h-1zM87 82h1v1h-1zM68 83h1v1h-1zM69 83h1v1h-1zM70 83h1v1h-1zM71 83h1v1h-1zM72 83h1v1h-1z"/><path fill="#302215" d="M73 83h1v1h-1z"/><path fill="#9C7618" d="M74 83h1v1h-1z"/><path fill="#FABF1B" d="M75 83h1v1h-1zM76 83h1v1h-1zM77 83h1v1h-1zM78 83h1v1h-1zM79 83h1v1h-1zM80 83h1v1h-1zM81 83h1v1h-1zM82 83h1v1h-1zM83 83h1v1h-1z"/><path fill="#664C17" d="M84 83h1v1h-1z"/><path fill="#231815" d="M85 83h1v1h-1zM86 83h1v1h-1zM87 83h1v1h-1zM69 84h1v1h-1zM70 84h1v1h-1zM71 84h1v1h-1zM72 84h1v1h-1zM73 84h1v1h-1zM74 84h1v1h-1z"/><path fill="#3E2D16" d="M75 84h1v1h-1z"/><path fill="#C4951A" d="M76 84h1v1h-1z"/><path fill="#FABF1B" d="M77 84h1v1h-1zM78 84h1v1h-1zM79 84h1v1h-1zM80 84h1v1h-1zM81 84h1v1h-1zM82 84h1v1h-1zM83 84h1v1h-1z"/><path fill="#8F6C18" d="M84 84h1v1h-1z"/><path fill="#231815" d="M85 84h1v1h-1zM86 84h1v1h-1zM87 84h1v1h-1zM71 85h1v1h-1zM72 85h1v1h-1zM73 85h1v1h-1zM74 85h1v1h-1zM75 85h1v1h-1zM76 85h1v1h-1z"/><path fill="#594217" d="M77 85h1v1h-1z"/><path fill="#C4951A" d="M78 85h1v1h-1z"/><path fill="#FABF1B" d="M79 85h1v1h-1zM80 85h1v1h-1zM81 85h1v1h-1zM82 85h1v1h-1zM83 85h1v1h-1z"/><path fill="#8F6C18" d="M84 85h1v1h-1z"/><path fill="#231815" d="M85 85h1v1h-1zM86 85h1v1h-1zM87 85h1v1h-1zM72 86h1v1h-1zM73 86h1v1h-1zM74 86h1v1h-1zM75 86h1v1h-1zM76 86h1v1h-1zM77 86h1v1h-1zM78 86h1v1h-1z"/><path fill="#3E2D16" d="M79 86h1v1h-1z"/><path fill="#816118" d="M80 86h1v1h-1z"/><path fill="#C4951A" d="M81 86h1v1h-1zM82 86h1v1h-1z"/><path fill="#A98019" d="M83 86h1v1h-1z"/><path fill="#302215" d="M84 86h1v1h-1z"/><path fill="#231815" d="M85 86h1v1h-1zM86 86h1v1h-1zM87 86h1v1h-1zM74 87h1v1h-1zM75 87h1v1h-1zM76 87h1v1h-1zM77 87h1v1h-1zM78 87h1v1h-1zM79 87h1v1h-1zM80 87h1v1h-1zM81 87h1v1h-1zM82 87h1v1h-1zM83 87h1v1h-1zM84 87h1v1h-1zM85 87h1v1h-1zM86 87h1v1h-1zM87 87h1v1h-1zM76 88h1v1h-1zM77 88h1v1h-1zM78 88h1v1h-1zM79 88h1v1h-1zM80 88h1v1h-1zM81 88h1v1h-1zM82 88h1v1h-1zM83 88h1v1h-1zM84 88h1v1h-1zM85 88h1v1h-1zM86 88h1v1h-1zM78 89h1v1h-1zM79 89h1v1h-1zM80 89h1v1h-1zM81 89h1v1h-1zM82 89h1v1h-1zM83 89h1v1h-1zM84 89h1v1h-1zM85 89h1v1h-1z"/></svg>