<svg baseProfile="full" height="41" width="90" xmlns="http://www.w3.org/2000/svg"><path fill="#231815" d="M16 0h1v1h-1zM17 0h1v1h-1zM18 0h1v1h-1zM19 0h1v1h-1zM20 0h1v1h-1zM21 0h1v1h-1zM22 0h1v1h-1zM23 0h1v1h-1zM24 0h1v1h-1zM25 0h1v1h-1zM40 0h1v1h-1zM41 0h1v1h-1zM42 0h1v1h-1zM43 0h1v1h-1zM44 0h1v1h-1zM45 0h1v1h-1zM46 0h1v1h-1zM47 0h1v1h-1zM48 0h1v1h-1zM49 0h1v1h-1zM64 0h1v1h-1zM65 0h1v1h-1zM66 0h1v1h-1zM67 0h1v1h-1zM68 0h1v1h-1zM69 0h1v1h-1zM70 0h1v1h-1zM71 0h1v1h-1zM72 0h1v1h-1zM73 0h1v1h-1zM13 1h1v1h-1zM14 1h1v1h-1zM15 1h1v1h-1zM16 1h1v1h-1zM17 1h1v1h-1zM18 1h1v1h-1zM19 1h1v1h-1zM20 1h1v1h-1zM21 1h1v1h-1zM22 1h1v1h-1zM23 1h1v1h-1zM24 1h1v1h-1zM25 1h1v1h-1zM26 1h1v1h-1zM27 1h1v1h-1zM28 1h1v1h-1zM37 1h1v1h-1zM38 1h1v1h-1zM39 1h1v1h-1zM40 1h1v1h-1zM41 1h1v1h-1zM42 1h1v1h-1zM43 1h1v1h-1zM44 1h1v1h-1zM45 1h1v1h-1zM46 1h1v1h-1zM47 1h1v1h-1zM48 1h1v1h-1zM49 1h1v1h-1zM50 1h1v1h-1zM51 1h1v1h-1zM52 1h1v1h-1zM61 1h1v1h-1zM62 1h1v1h-1zM63 1h1v1h-1zM64 1h1v1h-1zM65 1h1v1h-1zM66 1h1v1h-1zM67 1h1v1h-1zM68 1h1v1h-1zM69 1h1v1h-1zM70 1h1v1h-1zM71 1h1v1h-1zM72 1h1v1h-1zM73 1h1v1h-1zM74 1h1v1h-1zM75 1h1v1h-1zM76 1h1v1h-1zM10 2h1v1h-1zM11 2h1v1h-1zM12 2h1v1h-1zM13 2h1v1h-1zM14 2h1v1h-1zM15 2h1v1h-1zM16 2h1v1h-1zM17 2h1v1h-1zM18 2h1v1h-1zM19 2h1v1h-1zM20 2h1v1h-1zM21 2h1v1h-1zM22 2h1v1h-1zM23 2h1v1h-1zM24 2h1v1h-1zM25 2h1v1h-1zM26 2h1v1h-1zM27 2h1v1h-1zM28 2h1v1h-1zM29 2h1v1h-1zM30 2h1v1h-1zM35 2h1v1h-1zM36 2h1v1h-1zM37 2h1v1h-1zM38 2h1v1h-1zM39 2h1v1h-1zM40 2h1v1h-1zM41 2h1v1h-1zM42 2h1v1h-1zM43 2h1v1h-1zM44 2h1v1h-1zM45 2h1v1h-1zM46 2h1v1h-1zM47 2h1v1h-1zM48 2h1v1h-1zM49 2h1v1h-1zM50 2h1v1h-1zM51 2h1v1h-1zM52 2h1v1h-1zM53 2h1v1h-1zM54 2h1v1h-1zM59 2h1v1h-1zM60 2h1v1h-1zM61 2h1v1h-1zM62 2h1v1h-1zM63 2h1v1h-1zM64 2h1v1h-1zM65 2h1v1h-1zM66 2h1v1h-1zM67 2h1v1h-1zM68 2h1v1h-1zM69 2h1v1h-1zM70 2h1v1h-1zM71 2h1v1h-1zM72 2h1v1h-1zM73 2h1v1h-1zM74 2h1v1h-1zM75 2h1v1h-1zM76 2h1v1h-1zM77 2h1v1h-1zM78 2h1v1h-1zM79 2h1v1h-1zM9 3h1v1H9zM10 3h1v1h-1zM11 3h1v1h-1zM12 3h1v1h-1zM13 3h1v1h-1zM14 3h1v1h-1zM15 3h1v1h-1z"/><path fill="#2F2522" d="M16 3h1v1h-1z"/><path fill="#615855" d="M17 3h1v1h-1z"/><path fill="#867F7C" d="M18 3h1v1h-1z"/><path fill="#867F73" d="M19 3h1v1h-1z"/><path fill="#878166" d="M20 3h1v1h-1zM21 3h1v1h-1zM22 3h1v1h-1z"/><path fill="#636457" d="M23 3h1v1h-1z"/><path fill="#3D3D39" d="M24 3h1v1h-1z"/><path fill="#231815" d="M25 3h1v1h-1zM26 3h1v1h-1zM27 3h1v1h-1zM28 3h1v1h-1zM29 3h1v1h-1zM30 3h1v1h-1zM31 3h1v1h-1zM33 3h1v1h-1zM34 3h1v1h-1zM35 3h1v1h-1zM36 3h1v1h-1zM37 3h1v1h-1zM38 3h1v1h-1zM39 3h1v1h-1z"/><path fill="#2F2522" d="M40 3h1v1h-1z"/><path fill="#554B48" d="M41 3h1v1h-1z"/><path fill="#867F7C" d="M42 3h1v1h-1zM43 3h1v1h-1z"/><path fill="#87806E" d="M44 3h1v1h-1z"/><path fill="#878166" d="M45 3h1v1h-1zM46 3h1v1h-1z"/><path fill="#6E6652" d="M47 3h1v1h-1z"/><path fill="#413E37" d="M48 3h1v1h-1z"/><path fill="#231815" d="M49 3h1v1h-1zM50 3h1v1h-1zM51 3h1v1h-1zM52 3h1v1h-1zM53 3h1v1h-1zM54 3h1v1h-1zM55 3h1v1h-1zM56 3h1v1h-1zM58 3h1v1h-1zM59 3h1v1h-1zM60 3h1v1h-1zM61 3h1v1h-1zM62 3h1v1h-1zM63 3h1v1h-1zM64 3h1v1h-1z"/><path fill="#483E3B" d="M65 3h1v1h-1z"/><path fill="#6D6562" d="M66 3h1v1h-1z"/><path fill="#867F7C" d="M67 3h1v1h-1z"/><path fill="#867F73" d="M68 3h1v1h-1z"/><path fill="#878166" d="M69 3h1v1h-1zM70 3h1v1h-1zM71 3h1v1h-1z"/><path fill="#56574D" d="M72 3h1v1h-1z"/><path fill="#2C2421" d="M73 3h1v1h-1z"/><path fill="#231815" d="M74 3h1v1h-1zM75 3h1v1h-1zM76 3h1v1h-1zM77 3h1v1h-1zM78 3h1v1h-1zM79 3h1v1h-1zM80 3h1v1h-1zM7 4h1v1H7zM8 4h1v1H8zM9 4h1v1H9zM10 4h1v1h-1zM11 4h1v1h-1zM12 4h1v1h-1z"/><path fill="#2F2522" d="M13 4h1v1h-1z"/><path fill="#7A726F" d="M14 4h1v1h-1z"/><path fill="#C4BFBC" d="M15 4h1v1h-1z"/><path fill="#E9E5E2" d="M16 4h1v1h-1zM17 4h1v1h-1zM18 4h1v1h-1z"/><path fill="#EAE8C4" d="M19 4h1v1h-1z"/><path fill="#EBE9B7" d="M20 4h1v1h-1zM21 4h1v1h-1zM22 4h1v1h-1z"/><path fill="#E0E7BD" d="M23 4h1v1h-1z"/><path fill="#B0DCD5" d="M24 4h1v1h-1z"/><path fill="#9EC4BD" d="M25 4h1v1h-1z"/><path fill="#728681" d="M26 4h1v1h-1z"/><path fill="#35312D" d="M27 4h1v1h-1z"/><path fill="#231815" d="M28 4h1v1h-1zM29 4h1v1h-1zM30 4h1v1h-1zM31 4h1v1h-1zM32 4h1v1h-1zM33 4h1v1h-1zM34 4h1v1h-1zM35 4h1v1h-1zM36 4h1v1h-1z"/><path fill="#2F2522" d="M37 4h1v1h-1z"/><path fill="#7A726F" d="M38 4h1v1h-1z"/><path fill="#C4BFBC" d="M39 4h1v1h-1z"/><path fill="#E9E5E2" d="M40 4h1v1h-1zM41 4h1v1h-1zM42 4h1v1h-1zM43 4h1v1h-1z"/><path fill="#EBE9BA" d="M44 4h1v1h-1z"/><path fill="#EBE9B7" d="M45 4h1v1h-1zM46 4h1v1h-1zM47 4h1v1h-1z"/><path fill="#D1E3C4" d="M48 4h1v1h-1z"/><path fill="#A7D0C9" d="M49 4h1v1h-1z"/><path fill="#7B938D" d="M50 4h1v1h-1z"/><path fill="#3D3D39" d="M51 4h1v1h-1z"/><path fill="#231815" d="M52 4h1v1h-1zM53 4h1v1h-1zM54 4h1v1h-1zM55 4h1v1h-1zM56 4h1v1h-1zM57 4h1v1h-1zM58 4h1v1h-1zM59 4h1v1h-1zM60 4h1v1h-1zM61 4h1v1h-1z"/><path fill="#3C322F" d="M62 4h1v1h-1z"/><path fill="#928B88" d="M63 4h1v1h-1z"/><path fill="#D0CBC8" d="M64 4h1v1h-1z"/><path fill="#E9E5E2" d="M65 4h1v1h-1zM66 4h1v1h-1zM67 4h1v1h-1z"/><path fill="#EBE9BC" d="M68 4h1v1h-1z"/><path fill="#EBE9B7" d="M69 4h1v1h-1zM70 4h1v1h-1zM71 4h1v1h-1z"/><path fill="#D9E5C0" d="M72 4h1v1h-1z"/><path fill="#B0DCD5" d="M73 4h1v1h-1z"/><path fill="#96B7B1" d="M74 4h1v1h-1z"/><path fill="#616E69" d="M75 4h1v1h-1z"/><path fill="#2C2421" d="M76 4h1v1h-1z"/><path fill="#231815" d="M77 4h1v1h-1zM78 4h1v1h-1zM79 4h1v1h-1zM80 4h1v1h-1zM81 4h1v1h-1zM82 4h1v1h-1zM6 5h1v1H6zM7 5h1v1H7zM8 5h1v1H8zM9 5h1v1H9zM10 5h1v1h-1z"/><path fill="#2F2522" d="M11 5h1v1h-1z"/><path fill="#867F7C" d="M12 5h1v1h-1z"/><path fill="#DDD8D5" d="M13 5h1v1h-1z"/><path fill="#E9E5E2" d="M14 5h1v1h-1zM15 5h1v1h-1zM16 5h1v1h-1zM17 5h1v1h-1zM18 5h1v1h-1z"/><path fill="#EBE9BA" d="M19 5h1v1h-1z"/><path fill="#EBE9B7" d="M20 5h1v1h-1zM21 5h1v1h-1zM22 5h1v1h-1zM23 5h1v1h-1z"/><path fill="#BBDED7" d="M24 5h1v1h-1z"/><path fill="#B0DCD5" d="M25 5h1v1h-1zM26 5h1v1h-1zM27 5h1v1h-1z"/><path fill="#7B938D" d="M28 5h1v1h-1z"/><path fill="#35312D" d="M29 5h1v1h-1z"/><path fill="#231815" d="M30 5h1v1h-1zM31 5h1v1h-1zM32 5h1v1h-1zM33 5h1v1h-1zM34 5h1v1h-1z"/><path fill="#2F2522" d="M35 5h1v1h-1z"/><path fill="#867F7C" d="M36 5h1v1h-1z"/><path fill="#DDD8D5" d="M37 5h1v1h-1z"/><path fill="#E9E5E2" d="M38 5h1v1h-1zM39 5h1v1h-1zM40 5h1v1h-1zM41 5h1v1h-1zM42 5h1v1h-1z"/><path fill="#EAE6D7" d="M43 5h1v1h-1z"/><path fill="#EBE9B7" d="M44 5h1v1h-1zM45 5h1v1h-1zM46 5h1v1h-1zM47 5h1v1h-1z"/><path fill="#E3E7C0" d="M48 5h1v1h-1z"/><path fill="#B4DDD6" d="M49 5h1v1h-1z"/><path fill="#B0DCD5" d="M50 5h1v1h-1zM51 5h1v1h-1z"/><path fill="#8DABA5" d="M52 5h1v1h-1z"/><path fill="#3D3D39" d="M53 5h1v1h-1z"/><path fill="#231815" d="M54 5h1v1h-1zM55 5h1v1h-1zM56 5h1v1h-1zM57 5h1v1h-1zM58 5h1v1h-1zM59 5h1v1h-1z"/><path fill="#3C322F" d="M60 5h1v1h-1z"/><path fill="#9F9895" d="M61 5h1v1h-1z"/><path fill="#E9E5E2" d="M62 5h1v1h-1zM63 5h1v1h-1zM64 5h1v1h-1zM65 5h1v1h-1zM66 5h1v1h-1zM67 5h1v1h-1z"/><path fill="#EBE9B7" d="M68 5h1v1h-1zM69 5h1v1h-1zM70 5h1v1h-1zM71 5h1v1h-1z"/><path fill="#E7E7C1" d="M72 5h1v1h-1z"/><path fill="#BBDED7" d="M73 5h1v1h-1z"/><path fill="#B0DCD5" d="M74 5h1v1h-1zM75 5h1v1h-1z"/><path fill="#A7D0C9" d="M76 5h1v1h-1z"/><path fill="#6A7A75" d="M77 5h1v1h-1z"/><path fill="#2C2421" d="M78 5h1v1h-1z"/><path fill="#231815" d="M79 5h1v1h-1zM80 5h1v1h-1zM81 5h1v1h-1zM82 5h1v1h-1zM83 5h1v1h-1zM5 6h1v1H5zM6 6h1v1H6zM7 6h1v1H7zM8 6h1v1H8zM9 6h1v1H9z"/><path fill="#554B48" d="M10 6h1v1h-1z"/><path fill="#D0CBC8" d="M11 6h1v1h-1z"/><path fill="#E9E5E2" d="M12 6h1v1h-1zM13 6h1v1h-1zM14 6h1v1h-1zM15 6h1v1h-1zM16 6h1v1h-1zM17 6h1v1h-1zM18 6h1v1h-1z"/><path fill="#EAE8C7" d="M19 6h1v1h-1z"/><path fill="#EBE9B7" d="M20 6h1v1h-1zM21 6h1v1h-1zM22 6h1v1h-1z"/><path fill="#EBE8C2" d="M23 6h1v1h-1z"/><path fill="#E9E5E2" d="M24 6h1v1h-1z"/><path fill="#C5DFDA" d="M25 6h1v1h-1z"/><path fill="#B0DCD5" d="M26 6h1v1h-1zM27 6h1v1h-1zM28 6h1v1h-1zM29 6h1v1h-1z"/><path fill="#6A7A75" d="M30 6h1v1h-1z"/><path fill="#231815" d="M31 6h1v1h-1zM32 6h1v1h-1zM33 6h1v1h-1z"/><path fill="#483E3B" d="M34 6h1v1h-1z"/><path fill="#D0CBC8" d="M35 6h1v1h-1z"/><path fill="#E9E5E2" d="M36 6h1v1h-1zM37 6h1v1h-1zM38 6h1v1h-1zM39 6h1v1h-1zM40 6h1v1h-1zM41 6h1v1h-1zM42 6h1v1h-1zM43 6h1v1h-1z"/><path fill="#EBE9BA" d="M44 6h1v1h-1z"/><path fill="#EBE9B7" d="M45 6h1v1h-1zM46 6h1v1h-1zM47 6h1v1h-1z"/><path fill="#EAE7CF" d="M48 6h1v1h-1z"/><path fill="#E2E4E0" d="M49 6h1v1h-1z"/><path fill="#BBDED7" d="M50 6h1v1h-1z"/><path fill="#B0DCD5" d="M51 6h1v1h-1zM52 6h1v1h-1zM53 6h1v1h-1z"/><path fill="#6A7A75" d="M54 6h1v1h-1z"/><path fill="#231815" d="M55 6h1v1h-1zM56 6h1v1h-1zM57 6h1v1h-1zM58 6h1v1h-1z"/><path fill="#7A726F" d="M59 6h1v1h-1z"/><path fill="#E9E5E2" d="M60 6h1v1h-1zM61 6h1v1h-1zM62 6h1v1h-1zM63 6h1v1h-1zM64 6h1v1h-1zM65 6h1v1h-1zM66 6h1v1h-1zM67 6h1v1h-1z"/><path fill="#EBE8C2" d="M68 6h1v1h-1z"/><path fill="#EBE9B7" d="M69 6h1v1h-1zM70 6h1v1h-1zM71 6h1v1h-1z"/><path fill="#EAE8C7" d="M72 6h1v1h-1z"/><path fill="#E5E4E1" d="M73 6h1v1h-1z"/><path fill="#C2DFD9" d="M74 6h1v1h-1z"/><path fill="#B0DCD5" d="M75 6h1v1h-1zM76 6h1v1h-1zM77 6h1v1h-1z"/><path fill="#9EC4BD" d="M78 6h1v1h-1z"/><path fill="#464945" d="M79 6h1v1h-1z"/><path fill="#231815" d="M80 6h1v1h-1zM81 6h1v1h-1zM82 6h1v1h-1zM83 6h1v1h-1zM84 6h1v1h-1zM4 7h1v1H4zM5 7h1v1H5zM6 7h1v1H6zM7 7h1v1H7zM8 7h1v1H8z"/><path fill="#7A726F" d="M9 7h1v1H9z"/><path fill="#E9E5E2" d="M10 7h1v1h-1zM11 7h1v1h-1zM12 7h1v1h-1zM13 7h1v1h-1zM14 7h1v1h-1zM15 7h1v1h-1zM16 7h1v1h-1zM17 7h1v1h-1zM18 7h1v1h-1z"/><path fill="#E9E5DF" d="M19 7h1v1h-1z"/><path fill="#EAE8C7" d="M20 7h1v1h-1z"/><path fill="#EBE8C2" d="M21 7h1v1h-1z"/><path fill="#EAE8C7" d="M22 7h1v1h-1z"/><path fill="#E9E5DF" d="M23 7h1v1h-1z"/><path fill="#E9E5E2" d="M24 7h1v1h-1zM25 7h1v1h-1z"/><path fill="#D7E2DE" d="M26 7h1v1h-1z"/><path fill="#B4DDD6" d="M27 7h1v1h-1z"/><path fill="#B0DCD5" d="M28 7h1v1h-1zM29 7h1v1h-1zM30 7h1v1h-1z"/><path fill="#8FA09B" d="M31 7h1v1h-1z"/><path fill="#554B48" d="M32 7h1v1h-1z"/><path fill="#867F7C" d="M33 7h1v1h-1z"/><path fill="#E9E5E2" d="M34 7h1v1h-1zM35 7h1v1h-1zM36 7h1v1h-1zM37 7h1v1h-1zM38 7h1v1h-1zM39 7h1v1h-1zM40 7h1v1h-1zM41 7h1v1h-1zM42 7h1v1h-1zM43 7h1v1h-1z"/><path fill="#E9E6DA" d="M44 7h1v1h-1z"/><path fill="#EAE8C4" d="M45 7h1v1h-1z"/><path fill="#EBE8C2" d="M46 7h1v1h-1z"/><path fill="#EAE7CD" d="M47 7h1v1h-1z"/><path fill="#E9E5E2" d="M48 7h1v1h-1zM49 7h1v1h-1zM50 7h1v1h-1z"/><path fill="#CDE1DC" d="M51 7h1v1h-1z"/><path fill="#B0DCD5" d="M52 7h1v1h-1zM53 7h1v1h-1zM54 7h1v1h-1z"/><path fill="#97ADA7" d="M55 7h1v1h-1z"/><path fill="#2F2522" d="M56 7h1v1h-1zM57 7h1v1h-1z"/><path fill="#ABA5A2" d="M58 7h1v1h-1z"/><path fill="#E9E5E2" d="M59 7h1v1h-1zM60 7h1v1h-1zM61 7h1v1h-1zM62 7h1v1h-1zM63 7h1v1h-1zM64 7h1v1h-1zM65 7h1v1h-1zM66 7h1v1h-1zM67 7h1v1h-1z"/><path fill="#E9E5DF" d="M68 7h1v1h-1z"/><path fill="#EAE8C7" d="M69 7h1v1h-1z"/><path fill="#EBE8C2" d="M70 7h1v1h-1z"/><path fill="#EAE8C7" d="M71 7h1v1h-1z"/><path fill="#E9E5DF" d="M72 7h1v1h-1z"/><path fill="#E9E5E2" d="M73 7h1v1h-1zM74 7h1v1h-1z"/><path fill="#D0E1DC" d="M75 7h1v1h-1z"/><path fill="#B4DDD6" d="M76 7h1v1h-1z"/><path fill="#B0DCD5" d="M77 7h1v1h-1zM78 7h1v1h-1zM79 7h1v1h-1z"/><path fill="#616E69" d="M80 7h1v1h-1z"/><path fill="#231815" d="M81 7h1v1h-1zM82 7h1v1h-1zM83 7h1v1h-1zM84 7h1v1h-1zM85 7h1v1h-1zM4 8h1v1H4zM5 8h1v1H5zM6 8h1v1H6zM7 8h1v1H7z"/><path fill="#9F9895" d="M8 8h1v1H8z"/><path fill="#E9E5E2" d="M9 8h1v1H9zM10 8h1v1h-1zM11 8h1v1h-1zM12 8h1v1h-1zM13 8h1v1h-1zM14 8h1v1h-1zM15 8h1v1h-1zM16 8h1v1h-1zM17 8h1v1h-1zM18 8h1v1h-1zM19 8h1v1h-1zM20 8h1v1h-1zM21 8h1v1h-1zM22 8h1v1h-1zM23 8h1v1h-1zM24 8h1v1h-1zM25 8h1v1h-1zM26 8h1v1h-1z"/><path fill="#E5E4E1" d="M27 8h1v1h-1z"/><path fill="#C5DFDA" d="M28 8h1v1h-1z"/><path fill="#B0DCD5" d="M29 8h1v1h-1z"/><path fill="#C6E0D2" d="M30 8h1v1h-1z"/><path fill="#E5E4E1" d="M31 8h1v1h-1z"/><path fill="#E9E5E2" d="M32 8h1v1h-1zM33 8h1v1h-1zM34 8h1v1h-1zM35 8h1v1h-1zM36 8h1v1h-1zM37 8h1v1h-1zM38 8h1v1h-1zM39 8h1v1h-1zM40 8h1v1h-1zM41 8h1v1h-1zM42 8h1v1h-1zM43 8h1v1h-1zM44 8h1v1h-1zM45 8h1v1h-1zM46 8h1v1h-1zM47 8h1v1h-1zM48 8h1v1h-1zM49 8h1v1h-1zM50 8h1v1h-1zM51 8h1v1h-1z"/><path fill="#DEE3E0" d="M52 8h1v1h-1z"/><path fill="#BEDED8" d="M53 8h1v1h-1z"/><path fill="#B4DDD6" d="M54 8h1v1h-1z"/><path fill="#E5E4E1" d="M55 8h1v1h-1z"/><path fill="#E9E5E2" d="M56 8h1v1h-1zM57 8h1v1h-1zM58 8h1v1h-1zM59 8h1v1h-1zM60 8h1v1h-1zM61 8h1v1h-1zM62 8h1v1h-1zM63 8h1v1h-1zM64 8h1v1h-1zM65 8h1v1h-1zM66 8h1v1h-1zM67 8h1v1h-1zM68 8h1v1h-1zM69 8h1v1h-1zM70 8h1v1h-1zM71 8h1v1h-1zM72 8h1v1h-1zM73 8h1v1h-1zM74 8h1v1h-1zM75 8h1v1h-1z"/><path fill="#E2E4E0" d="M76 8h1v1h-1z"/><path fill="#C2DFD9" d="M77 8h1v1h-1z"/><path fill="#B4DDD3" d="M78 8h1v1h-1z"/><path fill="#CAE2C8" d="M79 8h1v1h-1z"/><path fill="#CEE3C6" d="M80 8h1v1h-1z"/><path fill="#839489" d="M81 8h1v1h-1z"/><path fill="#231815" d="M82 8h1v1h-1zM83 8h1v1h-1zM84 8h1v1h-1zM85 8h1v1h-1zM3 9h1v1H3zM4 9h1v1H4zM5 9h1v1H5zM6 9h1v1H6z"/><path fill="#7A726F" d="M7 9h1v1H7z"/><path fill="#E9E5E2" d="M8 9h1v1H8zM9 9h1v1H9zM10 9h1v1h-1zM11 9h1v1h-1zM12 9h1v1h-1zM13 9h1v1h-1zM14 9h1v1h-1zM15 9h1v1h-1zM16 9h1v1h-1zM17 9h1v1h-1zM18 9h1v1h-1zM19 9h1v1h-1zM20 9h1v1h-1zM21 9h1v1h-1zM22 9h1v1h-1z"/><path fill="#E4E0DD" d="M23 9h1v1h-1z"/><path fill="#D6D2CF" d="M24 9h1v1h-1z"/><path fill="#DEDAD7" d="M25 9h1v1h-1z"/><path fill="#E9E5E2" d="M26 9h1v1h-1zM27 9h1v1h-1zM28 9h1v1h-1z"/><path fill="#E7E7C9" d="M29 9h1v1h-1z"/><path fill="#E9E6DD" d="M30 9h1v1h-1z"/><path fill="#E9E5E2" d="M31 9h1v1h-1zM32 9h1v1h-1zM33 9h1v1h-1zM34 9h1v1h-1zM35 9h1v1h-1zM36 9h1v1h-1zM37 9h1v1h-1zM38 9h1v1h-1zM39 9h1v1h-1zM40 9h1v1h-1zM41 9h1v1h-1zM42 9h1v1h-1zM43 9h1v1h-1zM44 9h1v1h-1zM45 9h1v1h-1zM46 9h1v1h-1zM47 9h1v1h-1z"/><path fill="#E1DDDA" d="M48 9h1v1h-1z"/><path fill="#D6D2CF" d="M49 9h1v1h-1z"/><path fill="#E1DDDA" d="M50 9h1v1h-1z"/><path fill="#E9E5E2" d="M51 9h1v1h-1zM52 9h1v1h-1z"/><path fill="#E9E5DF" d="M53 9h1v1h-1z"/><path fill="#E6E5DC" d="M54 9h1v1h-1z"/><path fill="#E9E5E2" d="M55 9h1v1h-1zM56 9h1v1h-1zM57 9h1v1h-1zM58 9h1v1h-1zM59 9h1v1h-1zM60 9h1v1h-1zM61 9h1v1h-1zM62 9h1v1h-1zM63 9h1v1h-1zM64 9h1v1h-1zM65 9h1v1h-1zM66 9h1v1h-1zM67 9h1v1h-1zM68 9h1v1h-1zM69 9h1v1h-1zM70 9h1v1h-1zM71 9h1v1h-1z"/><path fill="#E1DDDA" d="M72 9h1v1h-1z"/><path fill="#D6D2CF" d="M73 9h1v1h-1z"/><path fill="#E1DDDA" d="M74 9h1v1h-1z"/><path fill="#E9E5E2" d="M75 9h1v1h-1zM76 9h1v1h-1zM77 9h1v1h-1z"/><path fill="#E7E8BE" d="M78 9h1v1h-1z"/><path fill="#EBE9B7" d="M79 9h1v1h-1zM80 9h1v1h-1zM81 9h1v1h-1z"/><path fill="#6C7063" d="M82 9h1v1h-1z"/><path fill="#231815" d="M83 9h1v1h-1zM84 9h1v1h-1zM85 9h1v1h-1zM86 9h1v1h-1zM2 10h1v1H2zM3 10h1v1H3zM4 10h1v1H4zM5 10h1v1H5z"/><path fill="#554B48" d="M6 10h1v1H6z"/><path fill="#E9E5E2" d="M7 10h1v1H7zM8 10h1v1H8zM9 10h1v1H9zM10 10h1v1h-1zM11 10h1v1h-1zM12 10h1v1h-1zM13 10h1v1h-1zM14 10h1v1h-1zM15 10h1v1h-1zM16 10h1v1h-1zM17 10h1v1h-1zM18 10h1v1h-1zM19 10h1v1h-1zM20 10h1v1h-1zM21 10h1v1h-1z"/><path fill="#D9D5D2" d="M22 10h1v1h-1z"/><path fill="#BDBAB7" d="M23 10h1v1h-1zM24 10h1v1h-1zM25 10h1v1h-1z"/><path fill="#C3BFBC" d="M26 10h1v1h-1z"/><path fill="#D0CDCA" d="M27 10h1v1h-1z"/><path fill="#DEDAD7" d="M28 10h1v1h-1z"/><path fill="#EAE7CF" d="M29 10h1v1h-1z"/><path fill="#E9E5E2" d="M30 10h1v1h-1zM31 10h1v1h-1zM32 10h1v1h-1zM33 10h1v1h-1zM34 10h1v1h-1zM35 10h1v1h-1zM36 10h1v1h-1zM37 10h1v1h-1zM38 10h1v1h-1zM39 10h1v1h-1zM40 10h1v1h-1zM41 10h1v1h-1zM42 10h1v1h-1zM43 10h1v1h-1zM44 10h1v1h-1zM45 10h1v1h-1zM46 10h1v1h-1z"/><path fill="#CECAC7" d="M47 10h1v1h-1z"/><path fill="#BDBAB7" d="M48 10h1v1h-1zM49 10h1v1h-1zM50 10h1v1h-1z"/><path fill="#C5C2BF" d="M51 10h1v1h-1z"/><path fill="#D6D2CF" d="M52 10h1v1h-1z"/><path fill="#E6E2DF" d="M53 10h1v1h-1z"/><path fill="#E9E5E2" d="M54 10h1v1h-1zM55 10h1v1h-1zM56 10h1v1h-1zM57 10h1v1h-1zM58 10h1v1h-1zM59 10h1v1h-1zM60 10h1v1h-1zM61 10h1v1h-1zM62 10h1v1h-1zM63 10h1v1h-1zM64 10h1v1h-1zM65 10h1v1h-1zM66 10h1v1h-1zM67 10h1v1h-1zM68 10h1v1h-1zM69 10h1v1h-1zM70 10h1v1h-1z"/><path fill="#CECAC7" d="M71 10h1v1h-1z"/><path fill="#BDBAB7" d="M72 10h1v1h-1zM73 10h1v1h-1zM74 10h1v1h-1z"/><path fill="#C3BFBC" d="M75 10h1v1h-1z"/><path fill="#D0CDCA" d="M76 10h1v1h-1z"/><path fill="#E1DED2" d="M77 10h1v1h-1z"/><path fill="#EBE9B7" d="M78 10h1v1h-1zM79 10h1v1h-1zM80 10h1v1h-1zM81 10h1v1h-1z"/><path fill="#D5E4C2" d="M82 10h1v1h-1z"/><path fill="#464945" d="M83 10h1v1h-1z"/><path fill="#231815" d="M84 10h1v1h-1zM85 10h1v1h-1zM86 10h1v1h-1zM87 10h1v1h-1zM2 11h1v1H2zM3 11h1v1H3zM4 11h1v1H4z"/><path fill="#2F2522" d="M5 11h1v1H5z"/><path fill="#D0CBC8" d="M6 11h1v1H6z"/><path fill="#E9E5E2" d="M7 11h1v1H7zM8 11h1v1H8zM9 11h1v1H9zM10 11h1v1h-1zM11 11h1v1h-1z"/><path fill="#F1EFED" d="M12 11h1v1h-1z"/><path fill="#FAF9F8" d="M13 11h1v1h-1z"/><path fill="#FEFDFD" d="M14 11h1v1h-1z"/><path fill="#FCFCFB" d="M15 11h1v1h-1z"/><path fill="#F7F5F4" d="M16 11h1v1h-1z"/><path fill="#ECE8E6" d="M17 11h1v1h-1z"/><path fill="#E9E5E2" d="M18 11h1v1h-1zM19 11h1v1h-1zM20 11h1v1h-1z"/><path fill="#DEDAD7" d="M21 11h1v1h-1z"/><path fill="#BDBAB7" d="M22 11h1v1h-1zM23 11h1v1h-1zM24 11h1v1h-1zM25 11h1v1h-1zM26 11h1v1h-1zM27 11h1v1h-1z"/><path fill="#C5C2BF" d="M28 11h1v1h-1z"/><path fill="#E9E5E2" d="M29 11h1v1h-1zM30 11h1v1h-1zM31 11h1v1h-1zM32 11h1v1h-1zM33 11h1v1h-1zM34 11h1v1h-1zM35 11h1v1h-1z"/><path fill="#EAE7E4" d="M36 11h1v1h-1z"/><path fill="#F5F4F2" d="M37 11h1v1h-1z"/><path fill="#FAF9F8" d="M38 11h1v1h-1z"/><path fill="#FFF" d="M39 11h1v1h-1z"/><path fill="#FBFAFA" d="M40 11h1v1h-1z"/><path fill="#F4F2F1" d="M41 11h1v1h-1z"/><path fill="#EAE7E4" d="M42 11h1v1h-1z"/><path fill="#E9E5E2" d="M43 11h1v1h-1zM44 11h1v1h-1zM45 11h1v1h-1z"/><path fill="#D3D0CD" d="M46 11h1v1h-1z"/><path fill="#BDBAB7" d="M47 11h1v1h-1zM48 11h1v1h-1zM49 11h1v1h-1zM50 11h1v1h-1zM51 11h1v1h-1z"/><path fill="#C0BDBA" d="M52 11h1v1h-1z"/><path fill="#E6E2DF" d="M53 11h1v1h-1z"/><path fill="#E9E5E2" d="M54 11h1v1h-1zM55 11h1v1h-1zM56 11h1v1h-1zM57 11h1v1h-1zM58 11h1v1h-1zM59 11h1v1h-1z"/><path fill="#EAE7E4" d="M60 11h1v1h-1z"/><path fill="#F3F0EF" d="M61 11h1v1h-1z"/><path fill="#FAF9F8" d="M62 11h1v1h-1z"/><path fill="#FFF" d="M63 11h1v1h-1z"/><path fill="#FBFAFA" d="M64 11h1v1h-1z"/><path fill="#F7F5F4" d="M65 11h1v1h-1z"/><path fill="#EAE7E4" d="M66 11h1v1h-1z"/><path fill="#E9E5E2" d="M67 11h1v1h-1zM68 11h1v1h-1zM69 11h1v1h-1z"/><path fill="#DBD8D5" d="M70 11h1v1h-1z"/><path fill="#BDBAB7" d="M71 11h1v1h-1zM72 11h1v1h-1zM73 11h1v1h-1zM74 11h1v1h-1zM75 11h1v1h-1zM76 11h1v1h-1z"/><path fill="#C6C3B7" d="M77 11h1v1h-1z"/><path fill="#EBE9B7" d="M78 11h1v1h-1zM79 11h1v1h-1zM80 11h1v1h-1zM81 11h1v1h-1z"/><path fill="#CEE3C6" d="M82 11h1v1h-1z"/><path fill="#9EC4BD" d="M83 11h1v1h-1z"/><path fill="#2C2421" d="M84 11h1v1h-1z"/><path fill="#231815" d="M85 11h1v1h-1zM86 11h1v1h-1zM87 11h1v1h-1zM2 12h1v1H2zM3 12h1v1H3zM4 12h1v1H4z"/><path fill="#867F7C" d="M5 12h1v1H5z"/><path fill="#E9E5E2" d="M6 12h1v1H6zM7 12h1v1H7zM8 12h1v1H8zM9 12h1v1H9z"/><path fill="#EAE7E4" d="M10 12h1v1h-1z"/><path fill="#FBFAFA" d="M11 12h1v1h-1z"/><path fill="#FFF" d="M12 12h1v1h-1zM13 12h1v1h-1zM14 12h1v1h-1zM15 12h1v1h-1zM16 12h1v1h-1z"/><path fill="#FEFDFD" d="M17 12h1v1h-1z"/><path fill="#EDEAE7" d="M18 12h1v1h-1z"/><path fill="#E9E5E2" d="M19 12h1v1h-1zM20 12h1v1h-1z"/><path fill="#CECAC7" d="M21 12h1v1h-1z"/><path fill="#BDBAB7" d="M22 12h1v1h-1zM23 12h1v1h-1zM24 12h1v1h-1zM25 12h1v1h-1zM26 12h1v1h-1zM27 12h1v1h-1z"/><path fill="#DBD8D5" d="M28 12h1v1h-1z"/><path fill="#E9E5E2" d="M29 12h1v1h-1zM30 12h1v1h-1zM31 12h1v1h-1zM32 12h1v1h-1zM33 12h1v1h-1zM34 12h1v1h-1z"/><path fill="#F0EDEB" d="M35 12h1v1h-1z"/><path fill="#FEFDFD" d="M36 12h1v1h-1z"/><path fill="#FFF" d="M37 12h1v1h-1zM38 12h1v1h-1zM39 12h1v1h-1zM40 12h1v1h-1zM41 12h1v1h-1z"/><path fill="#FBFAFA" d="M42 12h1v1h-1z"/><path fill="#EAE7E4" d="M43 12h1v1h-1z"/><path fill="#E9E5E2" d="M44 12h1v1h-1zM45 12h1v1h-1z"/><path fill="#C0BDBA" d="M46 12h1v1h-1z"/><path fill="#BDBAB7" d="M47 12h1v1h-1zM48 12h1v1h-1zM49 12h1v1h-1zM50 12h1v1h-1zM51 12h1v1h-1z"/><path fill="#D3D0CD" d="M52 12h1v1h-1z"/><path fill="#E9E5E2" d="M53 12h1v1h-1zM54 12h1v1h-1zM55 12h1v1h-1zM56 12h1v1h-1zM57 12h1v1h-1zM58 12h1v1h-1z"/><path fill="#EDEAE7" d="M59 12h1v1h-1z"/><path fill="#FCFCFB" d="M60 12h1v1h-1z"/><path fill="#FFF" d="M61 12h1v1h-1zM62 12h1v1h-1zM63 12h1v1h-1zM64 12h1v1h-1zM65 12h1v1h-1z"/><path fill="#FEFDFD" d="M66 12h1v1h-1z"/><path fill="#ECE8E6" d="M67 12h1v1h-1z"/><path fill="#E9E5E2" d="M68 12h1v1h-1zM69 12h1v1h-1z"/><path fill="#C5C2BF" d="M70 12h1v1h-1z"/><path fill="#BDBAB7" d="M71 12h1v1h-1zM72 12h1v1h-1zM73 12h1v1h-1zM74 12h1v1h-1zM75 12h1v1h-1zM76 12h1v1h-1zM77 12h1v1h-1z"/><path fill="#DAD7B7" d="M78 12h1v1h-1z"/><path fill="#EBE9B7" d="M79 12h1v1h-1zM80 12h1v1h-1z"/><path fill="#E8E6B7" d="M81 12h1v1h-1z"/><path fill="#BECDC2" d="M82 12h1v1h-1z"/><path fill="#B0DCD5" d="M83 12h1v1h-1z"/><path fill="#6A7A75" d="M84 12h1v1h-1z"/><path fill="#231815" d="M85 12h1v1h-1zM86 12h1v1h-1zM87 12h1v1h-1zM1 13h1v1H1zM2 13h1v1H2zM3 13h1v1H3z"/><path fill="#2F2522" d="M4 13h1v1H4z"/><path fill="#DDD8D5" d="M5 13h1v1H5z"/><path fill="#E9E5E2" d="M6 13h1v1H6zM7 13h1v1H7zM8 13h1v1H8z"/><path fill="#EAE7E4" d="M9 13h1v1H9z"/><path fill="#FBFAFA" d="M10 13h1v1h-1z"/><path fill="#FFF" d="M11 13h1v1h-1zM12 13h1v1h-1zM13 13h1v1h-1zM14 13h1v1h-1zM15 13h1v1h-1zM16 13h1v1h-1zM17 13h1v1h-1z"/><path fill="#FCFCFB" d="M18 13h1v1h-1z"/><path fill="#E9E5E2" d="M19 13h1v1h-1zM20 13h1v1h-1z"/><path fill="#C0BDBA" d="M21 13h1v1h-1z"/><path fill="#BDBAB7" d="M22 13h1v1h-1zM23 13h1v1h-1zM24 13h1v1h-1zM25 13h1v1h-1zM26 13h1v1h-1z"/><path fill="#C3BFBC" d="M27 13h1v1h-1z"/><path fill="#E9E5E2" d="M28 13h1v1h-1zM29 13h1v1h-1zM30 13h1v1h-1zM31 13h1v1h-1zM32 13h1v1h-1zM33 13h1v1h-1z"/><path fill="#EDEAE7" d="M34 13h1v1h-1z"/><path fill="#FFF" d="M35 13h1v1h-1zM36 13h1v1h-1zM37 13h1v1h-1zM38 13h1v1h-1zM39 13h1v1h-1zM40 13h1v1h-1zM41 13h1v1h-1zM42 13h1v1h-1z"/><path fill="#F5F4F2" d="M43 13h1v1h-1z"/><path fill="#E9E5E2" d="M44 13h1v1h-1z"/><path fill="#E1DDDA" d="M45 13h1v1h-1z"/><path fill="#BDBAB7" d="M46 13h1v1h-1zM47 13h1v1h-1zM48 13h1v1h-1zM49 13h1v1h-1zM50 13h1v1h-1zM51 13h1v1h-1z"/><path fill="#E6E2DF" d="M52 13h1v1h-1z"/><path fill="#E9E5E2" d="M53 13h1v1h-1zM54 13h1v1h-1zM55 13h1v1h-1zM56 13h1v1h-1zM57 13h1v1h-1z"/><path fill="#EAE7E4" d="M58 13h1v1h-1z"/><path fill="#FEFDFD" d="M59 13h1v1h-1z"/><path fill="#FFF" d="M60 13h1v1h-1zM61 13h1v1h-1zM62 13h1v1h-1zM63 13h1v1h-1zM64 13h1v1h-1zM65 13h1v1h-1zM66 13h1v1h-1z"/><path fill="#FAF9F8" d="M67 13h1v1h-1z"/><path fill="#E9E5E2" d="M68 13h1v1h-1z"/><path fill="#E6E2DF" d="M69 13h1v1h-1z"/><path fill="#BDBAB7" d="M70 13h1v1h-1zM71 13h1v1h-1zM72 13h1v1h-1zM73 13h1v1h-1zM74 13h1v1h-1zM75 13h1v1h-1zM76 13h1v1h-1zM77 13h1v1h-1zM78 13h1v1h-1z"/><path fill="#C9C6B7" d="M79 13h1v1h-1zM80 13h1v1h-1z"/><path fill="#C0BDB7" d="M81 13h1v1h-1z"/><path fill="#BCBCB9" d="M82 13h1v1h-1z"/><path fill="#B1DAD3" d="M83 13h1v1h-1z"/><path fill="#A7D0C9" d="M84 13h1v1h-1z"/><path fill="#2C2421" d="M85 13h1v1h-1z"/><path fill="#231815" d="M86 13h1v1h-1zM87 13h1v1h-1zM88 13h1v1h-1zM1 14h1v1H1zM2 14h1v1H2zM3 14h1v1H3z"/><path fill="#7A726F" d="M4 14h1v1H4z"/><path fill="#E9E5E2" d="M5 14h1v1H5zM6 14h1v1H6zM7 14h1v1H7zM8 14h1v1H8z"/><path fill="#F4F2F1" d="M9 14h1v1H9z"/><path fill="#FFF" d="M10 14h1v1h-1zM11 14h1v1h-1zM12 14h1v1h-1zM13 14h1v1h-1zM14 14h1v1h-1zM15 14h1v1h-1zM16 14h1v1h-1zM17 14h1v1h-1zM18 14h1v1h-1z"/><path fill="#EDEAE7" d="M19 14h1v1h-1z"/><path fill="#E6E2DF" d="M20 14h1v1h-1z"/><path fill="#BDBAB7" d="M21 14h1v1h-1zM22 14h1v1h-1zM23 14h1v1h-1zM24 14h1v1h-1zM25 14h1v1h-1zM26 14h1v1h-1z"/><path fill="#D0CDCA" d="M27 14h1v1h-1z"/><path fill="#E9E5E2" d="M28 14h1v1h-1zM29 14h1v1h-1zM30 14h1v1h-1zM31 14h1v1h-1zM32 14h1v1h-1zM33 14h1v1h-1z"/><path fill="#FAF9F8" d="M34 14h1v1h-1z"/><path fill="#FFF" d="M35 14h1v1h-1zM36 14h1v1h-1zM37 14h1v1h-1zM38 14h1v1h-1zM39 14h1v1h-1zM40 14h1v1h-1zM41 14h1v1h-1zM42 14h1v1h-1z"/><path fill="#FEFDFD" d="M43 14h1v1h-1z"/><path fill="#E9E5E2" d="M44 14h1v1h-1z"/><path fill="#D9D5D2" d="M45 14h1v1h-1z"/><path fill="#BDBAB7" d="M46 14h1v1h-1zM47 14h1v1h-1zM48 14h1v1h-1zM49 14h1v1h-1zM50 14h1v1h-1z"/><path fill="#CECAC7" d="M51 14h1v1h-1z"/><path fill="#E9E5E2" d="M52 14h1v1h-1zM53 14h1v1h-1zM54 14h1v1h-1zM55 14h1v1h-1zM56 14h1v1h-1zM57 14h1v1h-1z"/><path fill="#F7F5F4" d="M58 14h1v1h-1z"/><path fill="#FFF" d="M59 14h1v1h-1zM60 14h1v1h-1zM61 14h1v1h-1zM62 14h1v1h-1zM63 14h1v1h-1zM64 14h1v1h-1zM65 14h1v1h-1zM66 14h1v1h-1zM67 14h1v1h-1z"/><path fill="#EAE7E4" d="M68 14h1v1h-1z"/><path fill="#DEDAD7" d="M69 14h1v1h-1z"/><path fill="#BDBAB7" d="M70 14h1v1h-1zM71 14h1v1h-1zM72 14h1v1h-1zM73 14h1v1h-1zM74 14h1v1h-1zM75 14h1v1h-1zM76 14h1v1h-1zM77 14h1v1h-1zM78 14h1v1h-1zM79 14h1v1h-1zM80 14h1v1h-1zM81 14h1v1h-1zM82 14h1v1h-1z"/><path fill="#B5CFCA" d="M83 14h1v1h-1z"/><path fill="#B0DCD5" d="M84 14h1v1h-1z"/><path fill="#616E69" d="M85 14h1v1h-1z"/><path fill="#231815" d="M86 14h1v1h-1zM87 14h1v1h-1zM88 14h1v1h-1zM1 15h1v1H1zM2 15h1v1H2zM3 15h1v1H3z"/><path fill="#C4BFBC" d="M4 15h1v1H4z"/><path fill="#E9E5E2" d="M5 15h1v1H5zM6 15h1v1H6zM7 15h1v1H7zM8 15h1v1H8z"/><path fill="#FEFDFD" d="M9 15h1v1H9z"/><path fill="#FFF" d="M10 15h1v1h-1zM11 15h1v1h-1zM12 15h1v1h-1zM13 15h1v1h-1zM14 15h1v1h-1zM15 15h1v1h-1zM16 15h1v1h-1zM17 15h1v1h-1zM18 15h1v1h-1z"/><path fill="#EFECE9" d="M19 15h1v1h-1z"/><path fill="#DEDAD7" d="M20 15h1v1h-1z"/><path fill="#BDBAB7" d="M21 15h1v1h-1zM22 15h1v1h-1zM23 15h1v1h-1zM24 15h1v1h-1zM25 15h1v1h-1zM26 15h1v1h-1z"/><path fill="#E1DDDA" d="M27 15h1v1h-1z"/><path fill="#E9E5E2" d="M28 15h1v1h-1zM29 15h1v1h-1zM30 15h1v1h-1zM31 15h1v1h-1zM32 15h1v1h-1z"/><path fill="#EDEAE7" d="M33 15h1v1h-1z"/><path fill="#FFF" d="M34 15h1v1h-1zM35 15h1v1h-1zM36 15h1v1h-1zM37 15h1v1h-1zM38 15h1v1h-1zM39 15h1v1h-1zM40 15h1v1h-1zM41 15h1v1h-1zM42 15h1v1h-1zM43 15h1v1h-1z"/><path fill="#E9E5E2" d="M44 15h1v1h-1z"/><path fill="#D3D0CD" d="M45 15h1v1h-1z"/><path fill="#BDBAB7" d="M46 15h1v1h-1zM47 15h1v1h-1zM48 15h1v1h-1zM49 15h1v1h-1zM50 15h1v1h-1z"/><path fill="#D9D5D2" d="M51 15h1v1h-1z"/><path fill="#E9E5E2" d="M52 15h1v1h-1zM53 15h1v1h-1zM54 15h1v1h-1zM55 15h1v1h-1zM56 15h1v1h-1z"/><path fill="#EAE7E4" d="M57 15h1v1h-1z"/><path fill="#FFF" d="M58 15h1v1h-1zM59 15h1v1h-1zM60 15h1v1h-1zM61 15h1v1h-1zM62 15h1v1h-1zM63 15h1v1h-1zM64 15h1v1h-1zM65 15h1v1h-1zM66 15h1v1h-1zM67 15h1v1h-1z"/><path fill="#EFECE9" d="M68 15h1v1h-1z"/><path fill="#DBD8D5" d="M69 15h1v1h-1z"/><path fill="#BDBAB7" d="M70 15h1v1h-1zM71 15h1v1h-1zM72 15h1v1h-1zM73 15h1v1h-1zM74 15h1v1h-1zM75 15h1v1h-1zM76 15h1v1h-1zM77 15h1v1h-1zM78 15h1v1h-1zM79 15h1v1h-1zM80 15h1v1h-1zM81 15h1v1h-1zM82 15h1v1h-1z"/><path fill="#BBC0BD" d="M83 15h1v1h-1z"/><path fill="#B0DCD5" d="M84 15h1v1h-1z"/><path fill="#96B7B1" d="M85 15h1v1h-1z"/><path fill="#231815" d="M86 15h1v1h-1zM87 15h1v1h-1zM88 15h1v1h-1zM0 16h1v1H0zM1 16h1v1H1zM2 16h1v1H2z"/><path fill="#2F2522" d="M3 16h1v1H3z"/><path fill="#E9E5E2" d="M4 16h1v1H4zM5 16h1v1H5zM6 16h1v1H6zM7 16h1v1H7z"/><path fill="#EDEAE7" d="M8 16h1v1H8z"/><path fill="#FFF" d="M9 16h1v1H9zM10 16h1v1h-1zM11 16h1v1h-1zM12 16h1v1h-1zM13 16h1v1h-1zM14 16h1v1h-1zM15 16h1v1h-1zM16 16h1v1h-1zM17 16h1v1h-1zM18 16h1v1h-1z"/><path fill="#EFECE9" d="M19 16h1v1h-1z"/><path fill="#D9D5D2" d="M20 16h1v1h-1z"/><path fill="#BDBAB7" d="M21 16h1v1h-1zM22 16h1v1h-1zM23 16h1v1h-1zM24 16h1v1h-1zM25 16h1v1h-1zM26 16h1v1h-1z"/><path fill="#E9E5E2" d="M27 16h1v1h-1zM28 16h1v1h-1zM29 16h1v1h-1zM30 16h1v1h-1zM31 16h1v1h-1zM32 16h1v1h-1z"/><path fill="#F3F0EF" d="M33 16h1v1h-1z"/><path fill="#FFF" d="M34 16h1v1h-1zM35 16h1v1h-1zM36 16h1v1h-1zM37 16h1v1h-1zM38 16h1v1h-1zM39 16h1v1h-1zM40 16h1v1h-1zM41 16h1v1h-1zM42 16h1v1h-1zM43 16h1v1h-1z"/><path fill="#E9E5E2" d="M44 16h1v1h-1z"/><path fill="#CBC7C4" d="M45 16h1v1h-1z"/><path fill="#BDBAB7" d="M46 16h1v1h-1zM47 16h1v1h-1zM48 16h1v1h-1zM49 16h1v1h-1zM50 16h1v1h-1z"/><path fill="#E4E0DD" d="M51 16h1v1h-1z"/><path fill="#E9E5E2" d="M52 16h1v1h-1zM53 16h1v1h-1zM54 16h1v1h-1zM55 16h1v1h-1zM56 16h1v1h-1z"/><path fill="#EFECE9" d="M57 16h1v1h-1z"/><path fill="#FFF" d="M58 16h1v1h-1zM59 16h1v1h-1zM60 16h1v1h-1zM61 16h1v1h-1zM62 16h1v1h-1zM63 16h1v1h-1zM64 16h1v1h-1zM65 16h1v1h-1zM66 16h1v1h-1zM67 16h1v1h-1z"/><path fill="#EDEAE7" d="M68 16h1v1h-1z"/><path fill="#D3D0CD" d="M69 16h1v1h-1z"/><path fill="#BDBAB7" d="M70 16h1v1h-1zM71 16h1v1h-1zM72 16h1v1h-1zM73 16h1v1h-1zM74 16h1v1h-1zM75 16h1v1h-1zM76 16h1v1h-1zM77 16h1v1h-1zM78 16h1v1h-1zM79 16h1v1h-1zM80 16h1v1h-1zM81 16h1v1h-1z"/><path fill="#B9C5C0" d="M82 16h1v1h-1z"/><path fill="#B4D1CC" d="M83 16h1v1h-1z"/><path fill="#B0DCD5" d="M84 16h1v1h-1zM85 16h1v1h-1z"/><path fill="#2C2421" d="M86 16h1v1h-1z"/><path fill="#231815" d="M87 16h1v1h-1zM88 16h1v1h-1zM89 16h1v1h-1zM0 17h1v1H0zM1 17h1v1H1zM2 17h1v1H2z"/><path fill="#554B48" d="M3 17h1v1H3z"/><path fill="#E9E5E2" d="M4 17h1v1H4zM5 17h1v1H5zM6 17h1v1H6zM7 17h1v1H7z"/><path fill="#EFECE9" d="M8 17h1v1H8z"/><path fill="#FFF" d="M9 17h1v1H9zM10 17h1v1h-1zM11 17h1v1h-1zM12 17h1v1h-1zM13 17h1v1h-1zM14 17h1v1h-1zM15 17h1v1h-1zM16 17h1v1h-1zM17 17h1v1h-1zM18 17h1v1h-1z"/><path fill="#EAE7E4" d="M19 17h1v1h-1z"/><path fill="#CECAC7" d="M20 17h1v1h-1z"/><path fill="#BDBAB7" d="M21 17h1v1h-1zM22 17h1v1h-1zM23 17h1v1h-1zM24 17h1v1h-1zM25 17h1v1h-1z"/><path fill="#C8C5C2" d="M26 17h1v1h-1z"/><path fill="#E9E5E2" d="M27 17h1v1h-1zM28 17h1v1h-1zM29 17h1v1h-1zM30 17h1v1h-1zM31 17h1v1h-1zM32 17h1v1h-1z"/><path fill="#F4F2F1" d="M33 17h1v1h-1z"/><path fill="#FFF" d="M34 17h1v1h-1zM35 17h1v1h-1zM36 17h1v1h-1zM37 17h1v1h-1zM38 17h1v1h-1zM39 17h1v1h-1zM40 17h1v1h-1zM41 17h1v1h-1zM42 17h1v1h-1z"/><path fill="#FBFAFA" d="M43 17h1v1h-1z"/><path fill="#E9E5E2" d="M44 17h1v1h-1z"/><path fill="#C3BFBC" d="M45 17h1v1h-1z"/><path fill="#BDBAB7" d="M46 17h1v1h-1zM47 17h1v1h-1zM48 17h1v1h-1zM49 17h1v1h-1zM50 17h1v1h-1z"/><path fill="#E9E5E2" d="M51 17h1v1h-1zM52 17h1v1h-1zM53 17h1v1h-1zM54 17h1v1h-1zM55 17h1v1h-1zM56 17h1v1h-1z"/><path fill="#EFECE9" d="M57 17h1v1h-1z"/><path fill="#FFF" d="M58 17h1v1h-1zM59 17h1v1h-1zM60 17h1v1h-1zM61 17h1v1h-1zM62 17h1v1h-1zM63 17h1v1h-1zM64 17h1v1h-1zM65 17h1v1h-1zM66 17h1v1h-1z"/><path fill="#FEFDFD" d="M67 17h1v1h-1z"/><path fill="#E9E5E2" d="M68 17h1v1h-1z"/><path fill="#C8C5C2" d="M69 17h1v1h-1z"/><path fill="#BDBAB7" d="M70 17h1v1h-1zM71 17h1v1h-1zM72 17h1v1h-1zM73 17h1v1h-1zM74 17h1v1h-1zM75 17h1v1h-1zM76 17h1v1h-1zM77 17h1v1h-1zM78 17h1v1h-1zM79 17h1v1h-1zM80 17h1v1h-1z"/><path fill="#BAC3BF" d="M81 17h1v1h-1z"/><path fill="#B0DCD5" d="M82 17h1v1h-1zM83 17h1v1h-1zM84 17h1v1h-1zM85 17h1v1h-1z"/><path fill="#464945" d="M86 17h1v1h-1z"/><path fill="#231815" d="M87 17h1v1h-1zM88 17h1v1h-1zM89 17h1v1h-1zM0 18h1v1H0zM1 18h1v1H1zM2 18h1v1H2z"/><path fill="#867F7C" d="M3 18h1v1H3z"/><path fill="#E9E5E2" d="M4 18h1v1H4zM5 18h1v1H5zM6 18h1v1H6zM7 18h1v1H7zM8 18h1v1H8z"/><path fill="#FFF" d="M9 18h1v1H9zM10 18h1v1h-1zM11 18h1v1h-1zM12 18h1v1h-1zM13 18h1v1h-1zM14 18h1v1h-1zM15 18h1v1h-1zM16 18h1v1h-1zM17 18h1v1h-1z"/><path fill="#F7F5F4" d="M18 18h1v1h-1z"/><path fill="#E9E5E2" d="M19 18h1v1h-1z"/><path fill="#C3BFBC" d="M20 18h1v1h-1z"/><path fill="#BDBAB7" d="M21 18h1v1h-1zM22 18h1v1h-1zM23 18h1v1h-1zM24 18h1v1h-1zM25 18h1v1h-1z"/><path fill="#CBC7C4" d="M26 18h1v1h-1z"/><path fill="#E9E5E2" d="M27 18h1v1h-1zM28 18h1v1h-1zM29 18h1v1h-1zM30 18h1v1h-1zM31 18h1v1h-1zM32 18h1v1h-1z"/><path fill="#F0EDEB" d="M33 18h1v1h-1z"/><path fill="#FFF" d="M34 18h1v1h-1zM35 18h1v1h-1zM36 18h1v1h-1zM37 18h1v1h-1zM38 18h1v1h-1zM39 18h1v1h-1zM40 18h1v1h-1zM41 18h1v1h-1zM42 18h1v1h-1z"/><path fill="#F1EFED" d="M43 18h1v1h-1z"/><path fill="#E4E0DD" d="M44 18h1v1h-1z"/><path fill="#BDBAB7" d="M45 18h1v1h-1zM46 18h1v1h-1zM47 18h1v1h-1zM48 18h1v1h-1zM49 18h1v1h-1z"/><path fill="#C8C5C2" d="M50 18h1v1h-1z"/><path fill="#E9E5E2" d="M51 18h1v1h-1zM52 18h1v1h-1zM53 18h1v1h-1zM54 18h1v1h-1zM55 18h1v1h-1zM56 18h1v1h-1z"/><path fill="#ECE8E6" d="M57 18h1v1h-1z"/><path fill="#FFF" d="M58 18h1v1h-1zM59 18h1v1h-1zM60 18h1v1h-1zM61 18h1v1h-1zM62 18h1v1h-1zM63 18h1v1h-1zM64 18h1v1h-1zM65 18h1v1h-1zM66 18h1v1h-1z"/><path fill="#F4F2F1" d="M67 18h1v1h-1z"/><path fill="#E6E2DF" d="M68 18h1v1h-1z"/><path fill="#BDBAB7" d="M69 18h1v1h-1zM70 18h1v1h-1zM71 18h1v1h-1zM72 18h1v1h-1zM73 18h1v1h-1zM74 18h1v1h-1zM75 18h1v1h-1zM76 18h1v1h-1zM77 18h1v1h-1zM78 18h1v1h-1zM79 18h1v1h-1zM80 18h1v1h-1z"/><path fill="#B7CBC6" d="M81 18h1v1h-1z"/><path fill="#B0DCD5" d="M82 18h1v1h-1zM83 18h1v1h-1zM84 18h1v1h-1zM85 18h1v1h-1z"/><path fill="#6E7370" d="M86 18h1v1h-1z"/><path fill="#231815" d="M87 18h1v1h-1zM88 18h1v1h-1zM89 18h1v1h-1zM0 19h1v1H0zM1 19h1v1H1zM2 19h1v1H2z"/><path fill="#867F7C" d="M3 19h1v1H3z"/><path fill="#E9E5E2" d="M4 19h1v1H4zM5 19h1v1H5zM6 19h1v1H6zM7 19h1v1H7zM8 19h1v1H8z"/><path fill="#F7F5F4" d="M9 19h1v1H9z"/><path fill="#FFF" d="M10 19h1v1h-1zM11 19h1v1h-1zM12 19h1v1h-1zM13 19h1v1h-1zM14 19h1v1h-1zM15 19h1v1h-1zM16 19h1v1h-1z"/><path fill="#FEFDFD" d="M17 19h1v1h-1z"/><path fill="#EAE7E4" d="M18 19h1v1h-1z"/><path fill="#DEDAD7" d="M19 19h1v1h-1z"/><path fill="#BDBAB7" d="M20 19h1v1h-1zM21 19h1v1h-1zM22 19h1v1h-1zM23 19h1v1h-1zM24 19h1v1h-1zM25 19h1v1h-1z"/><path fill="#D3D0CD" d="M26 19h1v1h-1z"/><path fill="#E9E5E2" d="M27 19h1v1h-1zM28 19h1v1h-1zM29 19h1v1h-1zM30 19h1v1h-1zM31 19h1v1h-1zM32 19h1v1h-1zM33 19h1v1h-1z"/><path fill="#FEFDFD" d="M34 19h1v1h-1z"/><path fill="#FFF" d="M35 19h1v1h-1zM36 19h1v1h-1zM37 19h1v1h-1zM38 19h1v1h-1zM39 19h1v1h-1zM40 19h1v1h-1zM41 19h1v1h-1z"/><path fill="#F8F7F6" d="M42 19h1v1h-1z"/><path fill="#E9E5E2" d="M43 19h1v1h-1z"/><path fill="#D3D0CD" d="M44 19h1v1h-1z"/><path fill="#BDBAB7" d="M45 19h1v1h-1zM46 19h1v1h-1zM47 19h1v1h-1zM48 19h1v1h-1zM49 19h1v1h-1z"/><path fill="#C8C5C2" d="M50 19h1v1h-1z"/><path fill="#E9E5E2" d="M51 19h1v1h-1zM52 19h1v1h-1zM53 19h1v1h-1zM54 19h1v1h-1zM55 19h1v1h-1zM56 19h1v1h-1zM57 19h1v1h-1z"/><path fill="#FAF9F8" d="M58 19h1v1h-1z"/><path fill="#FFF" d="M59 19h1v1h-1zM60 19h1v1h-1zM61 19h1v1h-1zM62 19h1v1h-1zM63 19h1v1h-1zM64 19h1v1h-1zM65 19h1v1h-1z"/><path fill="#FBFAFA" d="M66 19h1v1h-1z"/><path fill="#EAE7E4" d="M67 19h1v1h-1z"/><path fill="#D9D5D2" d="M68 19h1v1h-1z"/><path fill="#BDBAB7" d="M69 19h1v1h-1zM70 19h1v1h-1zM71 19h1v1h-1zM72 19h1v1h-1zM73 19h1v1h-1zM74 19h1v1h-1zM75 19h1v1h-1zM76 19h1v1h-1zM77 19h1v1h-1zM78 19h1v1h-1zM79 19h1v1h-1zM80 19h1v1h-1z"/><path fill="#B7C9C4" d="M81 19h1v1h-1z"/><path fill="#B0DCD5" d="M82 19h1v1h-1zM83 19h1v1h-1zM84 19h1v1h-1zM85 19h1v1h-1z"/><path fill="#746967" d="M86 19h1v1h-1z"/><path fill="#231815" d="M87 19h1v1h-1zM88 19h1v1h-1zM89 19h1v1h-1zM0 20h1v1H0zM1 20h1v1H1zM2 20h1v1H2z"/><path fill="#867F7C" d="M3 20h1v1H3z"/><path fill="#E9E5E2" d="M4 20h1v1H4zM5 20h1v1H5zM6 20h1v1H6zM7 20h1v1H7zM8 20h1v1H8z"/><path fill="#EAE7E4" d="M9 20h1v1H9z"/><path fill="#FBFAFA" d="M10 20h1v1h-1z"/><path fill="#FFF" d="M11 20h1v1h-1zM12 20h1v1h-1zM13 20h1v1h-1zM14 20h1v1h-1zM15 20h1v1h-1z"/><path fill="#FBFAFA" d="M16 20h1v1h-1z"/><path fill="#EDEAE7" d="M17 20h1v1h-1z"/><path fill="#E9E5E2" d="M18 20h1v1h-1z"/><path fill="#CECAC7" d="M19 20h1v1h-1z"/><path fill="#BDBAB7" d="M20 20h1v1h-1zM21 20h1v1h-1zM22 20h1v1h-1zM23 20h1v1h-1zM24 20h1v1h-1zM25 20h1v1h-1z"/><path fill="#D3D0CD" d="M26 20h1v1h-1z"/><path fill="#E9E5E2" d="M27 20h1v1h-1zM28 20h1v1h-1zM29 20h1v1h-1zM30 20h1v1h-1zM31 20h1v1h-1zM32 20h1v1h-1zM33 20h1v1h-1z"/><path fill="#EDEAE7" d="M34 20h1v1h-1z"/><path fill="#FEFDFD" d="M35 20h1v1h-1z"/><path fill="#FFF" d="M36 20h1v1h-1zM37 20h1v1h-1zM38 20h1v1h-1zM39 20h1v1h-1zM40 20h1v1h-1z"/><path fill="#F7F5F4" d="M41 20h1v1h-1z"/><path fill="#EAE7E4" d="M42 20h1v1h-1z"/><path fill="#E9E5E2" d="M43 20h1v1h-1z"/><path fill="#C3BFBC" d="M44 20h1v1h-1z"/><path fill="#BDBAB7" d="M45 20h1v1h-1zM46 20h1v1h-1zM47 20h1v1h-1zM48 20h1v1h-1zM49 20h1v1h-1z"/><path fill="#C8C5C2" d="M50 20h1v1h-1z"/><path fill="#E9E5E2" d="M51 20h1v1h-1zM52 20h1v1h-1zM53 20h1v1h-1zM54 20h1v1h-1zM55 20h1v1h-1zM56 20h1v1h-1zM57 20h1v1h-1z"/><path fill="#EDEAE7" d="M58 20h1v1h-1z"/><path fill="#FEFDFD" d="M59 20h1v1h-1z"/><path fill="#FFF" d="M60 20h1v1h-1zM61 20h1v1h-1zM62 20h1v1h-1zM63 20h1v1h-1zM64 20h1v1h-1z"/><path fill="#FAF9F8" d="M65 20h1v1h-1z"/><path fill="#EAE7E4" d="M66 20h1v1h-1z"/><path fill="#E9E5E2" d="M67 20h1v1h-1z"/><path fill="#C8C5C2" d="M68 20h1v1h-1z"/><path fill="#BDBAB7" d="M69 20h1v1h-1zM70 20h1v1h-1zM71 20h1v1h-1zM72 20h1v1h-1zM73 20h1v1h-1zM74 20h1v1h-1zM75 20h1v1h-1zM76 20h1v1h-1zM77 20h1v1h-1zM78 20h1v1h-1zM79 20h1v1h-1zM80 20h1v1h-1z"/><path fill="#BCBCB9" d="M81 20h1v1h-1z"/><path fill="#B2D6CF" d="M82 20h1v1h-1z"/><path fill="#B0DCD5" d="M83 20h1v1h-1zM84 20h1v1h-1z"/><path fill="#BEC4C2" d="M85 20h1v1h-1z"/><path fill="#7A5F5F" d="M86 20h1v1h-1z"/><path fill="#231815" d="M87 20h1v1h-1zM88 20h1v1h-1zM89 20h1v1h-1zM0 21h1v1H0zM1 21h1v1H1zM2 21h1v1H2z"/><path fill="#867F7C" d="M3 21h1v1H3z"/><path fill="#E9E5E2" d="M4 21h1v1H4zM5 21h1v1H5zM6 21h1v1H6zM7 21h1v1H7zM8 21h1v1H8zM9 21h1v1H9z"/><path fill="#EAE7E4" d="M10 21h1v1h-1z"/><path fill="#F4F2F1" d="M11 21h1v1h-1z"/><path fill="#FAF9F8" d="M12 21h1v1h-1zM13 21h1v1h-1z"/><path fill="#F8F7F6" d="M14 21h1v1h-1z"/><path fill="#F1EFED" d="M15 21h1v1h-1z"/><path fill="#E9E5E2" d="M16 21h1v1h-1zM17 21h1v1h-1z"/><path fill="#E4E0DD" d="M18 21h1v1h-1z"/><path fill="#BDBAB7" d="M19 21h1v1h-1zM20 21h1v1h-1zM21 21h1v1h-1zM22 21h1v1h-1zM23 21h1v1h-1zM24 21h1v1h-1zM25 21h1v1h-1z"/><path fill="#CBC7C4" d="M26 21h1v1h-1z"/><path fill="#E9E5E2" d="M27 21h1v1h-1zM28 21h1v1h-1zM29 21h1v1h-1zM30 21h1v1h-1zM31 21h1v1h-1zM32 21h1v1h-1zM33 21h1v1h-1zM34 21h1v1h-1z"/><path fill="#ECE8E6" d="M35 21h1v1h-1z"/><path fill="#F7F5F4" d="M36 21h1v1h-1z"/><path fill="#FAF9F8" d="M37 21h1v1h-1zM38 21h1v1h-1z"/><path fill="#F7F5F4" d="M39 21h1v1h-1z"/><path fill="#EFECE9" d="M40 21h1v1h-1z"/><path fill="#E9E5E2" d="M41 21h1v1h-1zM42 21h1v1h-1z"/><path fill="#D6D2CF" d="M43 21h1v1h-1z"/><path fill="#BDBAB7" d="M44 21h1v1h-1zM45 21h1v1h-1zM46 21h1v1h-1zM47 21h1v1h-1zM48 21h1v1h-1zM49 21h1v1h-1z"/><path fill="#C5C2BF" d="M50 21h1v1h-1z"/><path fill="#E9E5E2" d="M51 21h1v1h-1zM52 21h1v1h-1zM53 21h1v1h-1zM54 21h1v1h-1zM55 21h1v1h-1zM56 21h1v1h-1zM57 21h1v1h-1zM58 21h1v1h-1z"/><path fill="#EAE7E4" d="M59 21h1v1h-1z"/><path fill="#F5F4F2" d="M60 21h1v1h-1z"/><path fill="#FAF9F8" d="M61 21h1v1h-1zM62 21h1v1h-1z"/><path fill="#F8F7F6" d="M63 21h1v1h-1z"/><path fill="#F1EFED" d="M64 21h1v1h-1z"/><path fill="#E9E5E2" d="M65 21h1v1h-1zM66 21h1v1h-1z"/><path fill="#DEDAD7" d="M67 21h1v1h-1z"/><path fill="#BDBAB7" d="M68 21h1v1h-1zM69 21h1v1h-1zM70 21h1v1h-1zM71 21h1v1h-1zM72 21h1v1h-1zM73 21h1v1h-1zM74 21h1v1h-1zM75 21h1v1h-1zM76 21h1v1h-1zM77 21h1v1h-1zM78 21h1v1h-1zM79 21h1v1h-1zM80 21h1v1h-1z"/><path fill="#BEB9B6" d="M81 21h1v1h-1z"/><path fill="#CDAAAC" d="M82 21h1v1h-1z"/><path fill="#CBB0B1" d="M83 21h1v1h-1z"/><path fill="#CDADAF" d="M84 21h1v1h-1z"/><path fill="#D1A6A9" d="M85 21h1v1h-1z"/><path fill="#7A5F5F" d="M86 21h1v1h-1z"/><path fill="#231815" d="M87 21h1v1h-1zM88 21h1v1h-1zM89 21h1v1h-1zM0 22h1v1H0zM1 22h1v1H1zM2 22h1v1H2z"/><path fill="#867F7C" d="M3 22h1v1H3z"/><path fill="#E9E5E2" d="M4 22h1v1H4zM5 22h1v1H5zM6 22h1v1H6zM7 22h1v1H7zM8 22h1v1H8zM9 22h1v1H9zM10 22h1v1h-1zM11 22h1v1h-1zM12 22h1v1h-1zM13 22h1v1h-1zM14 22h1v1h-1zM15 22h1v1h-1zM16 22h1v1h-1zM17 22h1v1h-1z"/><path fill="#C8C5C2" d="M18 22h1v1h-1z"/><path fill="#BDBAB7" d="M19 22h1v1h-1zM20 22h1v1h-1zM21 22h1v1h-1zM22 22h1v1h-1zM23 22h1v1h-1zM24 22h1v1h-1zM25 22h1v1h-1z"/><path fill="#C0BDBA" d="M26 22h1v1h-1z"/><path fill="#E6E2DF" d="M27 22h1v1h-1z"/><path fill="#E9E5E2" d="M28 22h1v1h-1zM29 22h1v1h-1zM30 22h1v1h-1zM31 22h1v1h-1zM32 22h1v1h-1zM33 22h1v1h-1zM34 22h1v1h-1zM35 22h1v1h-1zM36 22h1v1h-1zM37 22h1v1h-1zM38 22h1v1h-1zM39 22h1v1h-1zM40 22h1v1h-1zM41 22h1v1h-1z"/><path fill="#E6E2DF" d="M42 22h1v1h-1z"/><path fill="#C0BDBA" d="M43 22h1v1h-1z"/><path fill="#BDBAB7" d="M44 22h1v1h-1zM45 22h1v1h-1zM46 22h1v1h-1zM47 22h1v1h-1zM48 22h1v1h-1zM49 22h1v1h-1zM50 22h1v1h-1z"/><path fill="#E4E0DD" d="M51 22h1v1h-1z"/><path fill="#E9E5E2" d="M52 22h1v1h-1zM53 22h1v1h-1zM54 22h1v1h-1zM55 22h1v1h-1zM56 22h1v1h-1zM57 22h1v1h-1zM58 22h1v1h-1zM59 22h1v1h-1zM60 22h1v1h-1zM61 22h1v1h-1zM62 22h1v1h-1zM63 22h1v1h-1zM64 22h1v1h-1zM65 22h1v1h-1z"/><path fill="#E6E2DF" d="M66 22h1v1h-1z"/><path fill="#C3BFBC" d="M67 22h1v1h-1z"/><path fill="#BDBAB7" d="M68 22h1v1h-1zM69 22h1v1h-1zM70 22h1v1h-1zM71 22h1v1h-1zM72 22h1v1h-1zM73 22h1v1h-1zM74 22h1v1h-1zM75 22h1v1h-1zM76 22h1v1h-1zM77 22h1v1h-1zM78 22h1v1h-1zM79 22h1v1h-1zM80 22h1v1h-1z"/><path fill="#CCABAD" d="M81 22h1v1h-1z"/><path fill="#D1A6A9" d="M82 22h1v1h-1zM83 22h1v1h-1zM84 22h1v1h-1zM85 22h1v1h-1z"/><path fill="#7A5F5F" d="M86 22h1v1h-1z"/><path fill="#231815" d="M87 22h1v1h-1zM88 22h1v1h-1zM89 22h1v1h-1zM0 23h1v1H0zM1 23h1v1H1zM2 23h1v1H2z"/><path fill="#554B48" d="M3 23h1v1H3z"/><path fill="#E9E5E2" d="M4 23h1v1H4zM5 23h1v1H5zM6 23h1v1H6zM7 23h1v1H7zM8 23h1v1H8zM9 23h1v1H9zM10 23h1v1h-1zM11 23h1v1h-1zM12 23h1v1h-1zM13 23h1v1h-1zM14 23h1v1h-1zM15 23h1v1h-1zM16 23h1v1h-1z"/><path fill="#D0CDCA" d="M17 23h1v1h-1z"/><path fill="#BDBAB7" d="M18 23h1v1h-1zM19 23h1v1h-1zM20 23h1v1h-1zM21 23h1v1h-1zM22 23h1v1h-1zM23 23h1v1h-1z"/><path fill="#A0AAA8" d="M24 23h1v1h-1z"/><path fill="#8FA19F" d="M25 23h1v1h-1z"/><path fill="#9BA7A5" d="M26 23h1v1h-1z"/><path fill="#D3D0CD" d="M27 23h1v1h-1z"/><path fill="#E9E5E2" d="M28 23h1v1h-1zM29 23h1v1h-1zM30 23h1v1h-1zM31 23h1v1h-1zM32 23h1v1h-1zM33 23h1v1h-1zM34 23h1v1h-1zM35 23h1v1h-1zM36 23h1v1h-1zM37 23h1v1h-1zM38 23h1v1h-1zM39 23h1v1h-1zM40 23h1v1h-1z"/><path fill="#E6E2DF" d="M41 23h1v1h-1z"/><path fill="#C5C2BF" d="M42 23h1v1h-1z"/><path fill="#BDBAB7" d="M43 23h1v1h-1zM44 23h1v1h-1zM45 23h1v1h-1zM46 23h1v1h-1zM47 23h1v1h-1z"/><path fill="#BAB8B6" d="M48 23h1v1h-1z"/><path fill="#98A6A4" d="M49 23h1v1h-1z"/><path fill="#8FA19F" d="M50 23h1v1h-1z"/><path fill="#CBC7C4" d="M51 23h1v1h-1z"/><path fill="#E9E5E2" d="M52 23h1v1h-1zM53 23h1v1h-1zM54 23h1v1h-1zM55 23h1v1h-1zM56 23h1v1h-1zM57 23h1v1h-1zM58 23h1v1h-1zM59 23h1v1h-1zM60 23h1v1h-1zM61 23h1v1h-1zM62 23h1v1h-1zM63 23h1v1h-1zM64 23h1v1h-1zM65 23h1v1h-1z"/><path fill="#CECAC7" d="M66 23h1v1h-1z"/><path fill="#BDBAB7" d="M67 23h1v1h-1zM68 23h1v1h-1zM69 23h1v1h-1zM70 23h1v1h-1zM71 23h1v1h-1zM72 23h1v1h-1z"/><path fill="#9BA7A5" d="M73 23h1v1h-1z"/><path fill="#8FA19F" d="M74 23h1v1h-1zM75 23h1v1h-1z"/><path fill="#ACB1AE" d="M76 23h1v1h-1z"/><path fill="#BDBAB7" d="M77 23h1v1h-1zM78 23h1v1h-1zM79 23h1v1h-1z"/><path fill="#CAAEAE" d="M80 23h1v1h-1z"/><path fill="#D1A6A9" d="M81 23h1v1h-1zM82 23h1v1h-1zM83 23h1v1h-1zM84 23h1v1h-1zM85 23h1v1h-1z"/><path fill="#4F3C3A" d="M86 23h1v1h-1z"/><path fill="#231815" d="M87 23h1v1h-1zM88 23h1v1h-1zM89 23h1v1h-1zM0 24h1v1H0zM1 24h1v1H1zM2 24h1v1H2z"/><path fill="#2F2522" d="M3 24h1v1H3z"/><path fill="#E9E5E2" d="M4 24h1v1H4zM5 24h1v1H5zM6 24h1v1H6zM7 24h1v1H7zM8 24h1v1H8zM9 24h1v1H9zM10 24h1v1h-1zM11 24h1v1h-1zM12 24h1v1h-1zM13 24h1v1h-1zM14 24h1v1h-1zM15 24h1v1h-1z"/><path fill="#D3D0CD" d="M16 24h1v1h-1z"/><path fill="#BDBAB7" d="M17 24h1v1h-1zM18 24h1v1h-1zM19 24h1v1h-1zM20 24h1v1h-1zM21 24h1v1h-1zM22 24h1v1h-1z"/><path fill="#AFB2B0" d="M23 24h1v1h-1z"/><path fill="#8FA19F" d="M24 24h1v1h-1zM25 24h1v1h-1zM26 24h1v1h-1z"/><path fill="#BDBAB7" d="M27 24h1v1h-1z"/><path fill="#DEDAD7" d="M28 24h1v1h-1z"/><path fill="#E9E5E2" d="M29 24h1v1h-1zM30 24h1v1h-1zM31 24h1v1h-1zM32 24h1v1h-1zM33 24h1v1h-1zM34 24h1v1h-1zM35 24h1v1h-1zM36 24h1v1h-1zM37 24h1v1h-1zM38 24h1v1h-1zM39 24h1v1h-1z"/><path fill="#E6E2DF" d="M40 24h1v1h-1z"/><path fill="#C5C2BF" d="M41 24h1v1h-1z"/><path fill="#BDBAB7" d="M42 24h1v1h-1zM43 24h1v1h-1zM44 24h1v1h-1zM45 24h1v1h-1zM46 24h1v1h-1zM47 24h1v1h-1z"/><path fill="#A3ACAA" d="M48 24h1v1h-1z"/><path fill="#8FA19F" d="M49 24h1v1h-1zM50 24h1v1h-1z"/><path fill="#B7B7B4" d="M51 24h1v1h-1z"/><path fill="#D9D5D2" d="M52 24h1v1h-1z"/><path fill="#E9E5E2" d="M53 24h1v1h-1zM54 24h1v1h-1zM55 24h1v1h-1zM56 24h1v1h-1zM57 24h1v1h-1zM58 24h1v1h-1zM59 24h1v1h-1zM60 24h1v1h-1zM61 24h1v1h-1zM62 24h1v1h-1zM63 24h1v1h-1zM64 24h1v1h-1z"/><path fill="#CECAC7" d="M65 24h1v1h-1z"/><path fill="#BDBAB7" d="M66 24h1v1h-1zM67 24h1v1h-1zM68 24h1v1h-1zM69 24h1v1h-1zM70 24h1v1h-1zM71 24h1v1h-1z"/><path fill="#ACB1AE" d="M72 24h1v1h-1z"/><path fill="#8FA19F" d="M73 24h1v1h-1zM74 24h1v1h-1zM75 24h1v1h-1zM76 24h1v1h-1z"/><path fill="#B7B7B4" d="M77 24h1v1h-1z"/><path fill="#BDBAB7" d="M78 24h1v1h-1z"/><path fill="#CAAEAE" d="M79 24h1v1h-1z"/><path fill="#D1A6A9" d="M80 24h1v1h-1zM81 24h1v1h-1zM82 24h1v1h-1zM83 24h1v1h-1zM84 24h1v1h-1z"/><path fill="#CBA4A7" d="M85 24h1v1h-1z"/><path fill="#2E211E" d="M86 24h1v1h-1z"/><path fill="#231815" d="M87 24h1v1h-1zM88 24h1v1h-1zM89 24h1v1h-1zM1 25h1v1H1zM2 25h1v1H2zM3 25h1v1H3z"/><path fill="#B6B1AE" d="M4 25h1v1H4z"/><path fill="#E9E5E2" d="M5 25h1v1H5zM6 25h1v1H6zM7 25h1v1H7zM8 25h1v1H8zM9 25h1v1H9zM10 25h1v1h-1zM11 25h1v1h-1zM12 25h1v1h-1zM13 25h1v1h-1z"/><path fill="#E4E0DD" d="M14 25h1v1h-1z"/><path fill="#C8C5C2" d="M15 25h1v1h-1z"/><path fill="#BDBAB7" d="M16 25h1v1h-1zM17 25h1v1h-1zM18 25h1v1h-1zM19 25h1v1h-1zM20 25h1v1h-1zM21 25h1v1h-1zM22 25h1v1h-1z"/><path fill="#A6AEAB" d="M23 25h1v1h-1z"/><path fill="#8FA19F" d="M24 25h1v1h-1zM25 25h1v1h-1zM26 25h1v1h-1z"/><path fill="#9AA4A4" d="M27 25h1v1h-1z"/><path fill="#BBBAB7" d="M28 25h1v1h-1z"/><path fill="#DBD8D5" d="M29 25h1v1h-1z"/><path fill="#E9E5E2" d="M30 25h1v1h-1zM31 25h1v1h-1zM32 25h1v1h-1zM33 25h1v1h-1zM34 25h1v1h-1zM35 25h1v1h-1zM36 25h1v1h-1zM37 25h1v1h-1zM38 25h1v1h-1z"/><path fill="#DEDAD7" d="M39 25h1v1h-1z"/><path fill="#C3BFBC" d="M40 25h1v1h-1z"/><path fill="#BDBAB7" d="M41 25h1v1h-1zM42 25h1v1h-1zM43 25h1v1h-1zM44 25h1v1h-1zM45 25h1v1h-1zM46 25h1v1h-1zM47 25h1v1h-1z"/><path fill="#9BA7A5" d="M48 25h1v1h-1z"/><path fill="#8FA19F" d="M49 25h1v1h-1zM50 25h1v1h-1z"/><path fill="#96A2A2" d="M51 25h1v1h-1z"/><path fill="#B9B7B5" d="M52 25h1v1h-1z"/><path fill="#D6D2CF" d="M53 25h1v1h-1z"/><path fill="#E9E5E2" d="M54 25h1v1h-1zM55 25h1v1h-1zM56 25h1v1h-1zM57 25h1v1h-1zM58 25h1v1h-1zM59 25h1v1h-1zM60 25h1v1h-1zM61 25h1v1h-1zM62 25h1v1h-1z"/><path fill="#DEDAD7" d="M63 25h1v1h-1z"/><path fill="#C5C2BF" d="M64 25h1v1h-1z"/><path fill="#BDBAB7" d="M65 25h1v1h-1zM66 25h1v1h-1zM67 25h1v1h-1zM68 25h1v1h-1zM69 25h1v1h-1zM70 25h1v1h-1zM71 25h1v1h-1z"/><path fill="#A6AEAB" d="M72 25h1v1h-1z"/><path fill="#8FA19F" d="M73 25h1v1h-1zM74 25h1v1h-1zM75 25h1v1h-1zM76 25h1v1h-1z"/><path fill="#B2B4B1" d="M77 25h1v1h-1z"/><path fill="#CAAEAE" d="M78 25h1v1h-1z"/><path fill="#D1A6A9" d="M79 25h1v1h-1zM80 25h1v1h-1zM81 25h1v1h-1zM82 25h1v1h-1zM83 25h1v1h-1zM84 25h1v1h-1z"/><path fill="#8E8184" d="M85 25h1v1h-1z"/><path fill="#231815" d="M86 25h1v1h-1zM87 25h1v1h-1zM88 25h1v1h-1zM1 26h1v1H1zM2 26h1v1H2zM3 26h1v1H3z"/><path fill="#625C59" d="M4 26h1v1H4z"/><path fill="#C5C2BF" d="M5 26h1v1H5z"/><path fill="#D9D5D2" d="M6 26h1v1H6z"/><path fill="#E4E0DD" d="M7 26h1v1H7z"/><path fill="#E9E5E2" d="M8 26h1v1H8zM9 26h1v1H9zM10 26h1v1h-1z"/><path fill="#DEDAD7" d="M11 26h1v1h-1z"/><path fill="#D9D5D2" d="M12 26h1v1h-1z"/><path fill="#CBC7C4" d="M13 26h1v1h-1z"/><path fill="#BDBAB7" d="M14 26h1v1h-1zM15 26h1v1h-1zM16 26h1v1h-1zM17 26h1v1h-1zM18 26h1v1h-1zM19 26h1v1h-1zM20 26h1v1h-1z"/><path fill="#B9B7B5" d="M21 26h1v1h-1z"/><path fill="#A7ABAB" d="M22 26h1v1h-1z"/><path fill="#95A1A1" d="M23 26h1v1h-1z"/><path fill="#8FA19F" d="M24 26h1v1h-1zM25 26h1v1h-1zM26 26h1v1h-1z"/><path fill="#849798" d="M27 26h1v1h-1z"/><path fill="#839497" d="M28 26h1v1h-1z"/><path fill="#ABAEAD" d="M29 26h1v1h-1z"/><path fill="#CECAC7" d="M30 26h1v1h-1z"/><path fill="#DEDAD7" d="M31 26h1v1h-1z"/><path fill="#E9E5E2" d="M32 26h1v1h-1zM33 26h1v1h-1zM34 26h1v1h-1z"/><path fill="#E6E2DF" d="M35 26h1v1h-1z"/><path fill="#DEDAD7" d="M36 26h1v1h-1z"/><path fill="#D3D0CD" d="M37 26h1v1h-1z"/><path fill="#C5C2BF" d="M38 26h1v1h-1z"/><path fill="#BDBAB7" d="M39 26h1v1h-1zM40 26h1v1h-1zM41 26h1v1h-1zM42 26h1v1h-1zM43 26h1v1h-1zM44 26h1v1h-1zM45 26h1v1h-1z"/><path fill="#B4B4B2" d="M46 26h1v1h-1z"/><path fill="#A2A8A8" d="M47 26h1v1h-1z"/><path fill="#909F9F" d="M48 26h1v1h-1z"/><path fill="#8FA19F" d="M49 26h1v1h-1zM50 26h1v1h-1z"/><path fill="#8A9C9C" d="M51 26h1v1h-1z"/><path fill="#7A8E92" d="M52 26h1v1h-1z"/><path fill="#ABAEAD" d="M53 26h1v1h-1z"/><path fill="#C8C5C2" d="M54 26h1v1h-1z"/><path fill="#DBD8D5" d="M55 26h1v1h-1z"/><path fill="#E6E2DF" d="M56 26h1v1h-1z"/><path fill="#E9E5E2" d="M57 26h1v1h-1zM58 26h1v1h-1zM59 26h1v1h-1z"/><path fill="#DEDAD7" d="M60 26h1v1h-1z"/><path fill="#D6D2CF" d="M61 26h1v1h-1z"/><path fill="#C8C5C2" d="M62 26h1v1h-1z"/><path fill="#BDBAB7" d="M63 26h1v1h-1zM64 26h1v1h-1zM65 26h1v1h-1zM66 26h1v1h-1zM67 26h1v1h-1zM68 26h1v1h-1zM69 26h1v1h-1z"/><path fill="#B4B4B2" d="M70 26h1v1h-1z"/><path fill="#A7ABAB" d="M71 26h1v1h-1z"/><path fill="#919F9F" d="M72 26h1v1h-1z"/><path fill="#8FA19F" d="M73 26h1v1h-1zM74 26h1v1h-1zM75 26h1v1h-1z"/><path fill="#93A1A0" d="M76 26h1v1h-1z"/><path fill="#C8ABAC" d="M77 26h1v1h-1z"/><path fill="#D1A6A9" d="M78 26h1v1h-1zM79 26h1v1h-1zM80 26h1v1h-1zM81 26h1v1h-1zM82 26h1v1h-1zM83 26h1v1h-1z"/><path fill="#BA9FA3" d="M84 26h1v1h-1z"/><path fill="#474A4A" d="M85 26h1v1h-1z"/><path fill="#231815" d="M86 26h1v1h-1zM87 26h1v1h-1zM88 26h1v1h-1zM1 27h1v1H1zM2 27h1v1H2zM3 27h1v1H3z"/><path fill="#281F1D" d="M4 27h1v1H4z"/><path fill="#7A8A8C" d="M5 27h1v1H5z"/><path fill="#A2A8A8" d="M6 27h1v1H6z"/><path fill="#B4B4B2" d="M7 27h1v1H7z"/><path fill="#BDBAB7" d="M8 27h1v1H8z"/><path fill="#BAC3BF" d="M9 27h1v1H9z"/><path fill="#B7CBC6" d="M10 27h1v1h-1z"/><path fill="#BBC0BD" d="M11 27h1v1h-1z"/><path fill="#BDBAB7" d="M12 27h1v1h-1zM13 27h1v1h-1zM14 27h1v1h-1zM15 27h1v1h-1zM16 27h1v1h-1z"/><path fill="#ABAEAD" d="M17 27h1v1h-1z"/><path fill="#9EA5A6" d="M18 27h1v1h-1z"/><path fill="#919D9E" d="M19 27h1v1h-1z"/><path fill="#7F9194" d="M20 27h1v1h-1z"/><path fill="#768B8F" d="M21 27h1v1h-1zM22 27h1v1h-1zM23 27h1v1h-1z"/><path fill="#819596" d="M24 27h1v1h-1z"/><path fill="#8DA09E" d="M25 27h1v1h-1z"/><path fill="#93A1A0" d="M26 27h1v1h-1z"/><path fill="#ADA1A2" d="M27 27h1v1h-1z"/><path fill="#768B8F" d="M28 27h1v1h-1zM29 27h1v1h-1z"/><path fill="#889799" d="M30 27h1v1h-1z"/><path fill="#A7ABAB" d="M31 27h1v1h-1z"/><path fill="#BDBAB7" d="M32 27h1v1h-1zM33 27h1v1h-1z"/><path fill="#B8C7C2" d="M34 27h1v1h-1z"/><path fill="#B7C9C4" d="M35 27h1v1h-1z"/><path fill="#BBBEBB" d="M36 27h1v1h-1z"/><path fill="#BDBAB7" d="M37 27h1v1h-1zM38 27h1v1h-1zM39 27h1v1h-1zM40 27h1v1h-1z"/><path fill="#B9B7B5" d="M41 27h1v1h-1z"/><path fill="#ABAEAD" d="M42 27h1v1h-1z"/><path fill="#9AA3A3" d="M43 27h1v1h-1z"/><path fill="#8C9A9C" d="M44 27h1v1h-1z"/><path fill="#7A8E92" d="M45 27h1v1h-1z"/><path fill="#768B8F" d="M46 27h1v1h-1zM47 27h1v1h-1z"/><path fill="#788C90" d="M48 27h1v1h-1z"/><path fill="#869999" d="M49 27h1v1h-1z"/><path fill="#8FA19F" d="M50 27h1v1h-1z"/><path fill="#9BA2A1" d="M51 27h1v1h-1z"/><path fill="#7C8D91" d="M52 27h1v1h-1z"/><path fill="#768B8F" d="M53 27h1v1h-1z"/><path fill="#889799" d="M54 27h1v1h-1z"/><path fill="#A2A8A8" d="M55 27h1v1h-1z"/><path fill="#B9B7B5" d="M56 27h1v1h-1z"/><path fill="#BDBAB7" d="M57 27h1v1h-1z"/><path fill="#B9C5C0" d="M58 27h1v1h-1z"/><path fill="#B7C9C4" d="M59 27h1v1h-1z"/><path fill="#BBBEBB" d="M60 27h1v1h-1z"/><path fill="#BDBAB7" d="M61 27h1v1h-1zM62 27h1v1h-1zM63 27h1v1h-1zM64 27h1v1h-1zM65 27h1v1h-1z"/><path fill="#ABAEAD" d="M66 27h1v1h-1z"/><path fill="#9EA5A6" d="M67 27h1v1h-1z"/><path fill="#8C9A9C" d="M68 27h1v1h-1z"/><path fill="#7F9194" d="M69 27h1v1h-1z"/><path fill="#768B8F" d="M70 27h1v1h-1zM71 27h1v1h-1zM72 27h1v1h-1z"/><path fill="#849798" d="M73 27h1v1h-1z"/><path fill="#8DA09E" d="M74 27h1v1h-1z"/><path fill="#97A2A0" d="M75 27h1v1h-1z"/><path fill="#BCA4A6" d="M76 27h1v1h-1z"/><path fill="#D1A6A9" d="M77 27h1v1h-1zM78 27h1v1h-1zM79 27h1v1h-1zM80 27h1v1h-1zM81 27h1v1h-1zM82 27h1v1h-1z"/><path fill="#CBA4A7" d="M83 27h1v1h-1z"/><path fill="#778689" d="M84 27h1v1h-1z"/><path fill="#281F1D" d="M85 27h1v1h-1z"/><path fill="#231815" d="M86 27h1v1h-1zM87 27h1v1h-1zM88 27h1v1h-1zM2 28h1v1H2zM3 28h1v1H3zM4 28h1v1H4z"/><path fill="#4D5252" d="M5 28h1v1H5z"/><path fill="#768B8F" d="M6 28h1v1H6zM7 28h1v1H7z"/><path fill="#9BBCB9" d="M8 28h1v1H8z"/><path fill="#B0DCD5" d="M9 28h1v1H9zM10 28h1v1h-1zM11 28h1v1h-1z"/><path fill="#A7B9B6" d="M12 28h1v1h-1z"/><path fill="#8C9A9C" d="M13 28h1v1h-1z"/><path fill="#889799" d="M14 28h1v1h-1z"/><path fill="#7F9194" d="M15 28h1v1h-1z"/><path fill="#768B8F" d="M16 28h1v1h-1zM17 28h1v1h-1zM18 28h1v1h-1zM19 28h1v1h-1zM20 28h1v1h-1zM21 28h1v1h-1zM22 28h1v1h-1zM23 28h1v1h-1zM24 28h1v1h-1z"/><path fill="#989599" d="M25 28h1v1h-1z"/><path fill="#CBA4A7" d="M26 28h1v1h-1z"/><path fill="#D1A6A9" d="M27 28h1v1h-1z"/><path fill="#97969A" d="M28 28h1v1h-1z"/><path fill="#768B8F" d="M29 28h1v1h-1zM30 28h1v1h-1zM31 28h1v1h-1zM32 28h1v1h-1z"/><path fill="#AAD0CA" d="M33 28h1v1h-1z"/><path fill="#B0DCD5" d="M34 28h1v1h-1zM35 28h1v1h-1z"/><path fill="#B1DAD3" d="M36 28h1v1h-1z"/><path fill="#A1ADAC" d="M37 28h1v1h-1z"/><path fill="#889799" d="M38 28h1v1h-1zM39 28h1v1h-1z"/><path fill="#7A8E92" d="M40 28h1v1h-1z"/><path fill="#768B8F" d="M41 28h1v1h-1zM42 28h1v1h-1zM43 28h1v1h-1zM44 28h1v1h-1zM45 28h1v1h-1zM46 28h1v1h-1zM47 28h1v1h-1zM48 28h1v1h-1z"/><path fill="#7C8D91" d="M49 28h1v1h-1z"/><path fill="#A4999C" d="M50 28h1v1h-1z"/><path fill="#D1A6A9" d="M51 28h1v1h-1z"/><path fill="#A4999C" d="M52 28h1v1h-1z"/><path fill="#768B8F" d="M53 28h1v1h-1zM54 28h1v1h-1zM55 28h1v1h-1zM56 28h1v1h-1z"/><path fill="#A3C4C0" d="M57 28h1v1h-1z"/><path fill="#B0DCD5" d="M58 28h1v1h-1zM59 28h1v1h-1zM60 28h1v1h-1z"/><path fill="#A4B4B2" d="M61 28h1v1h-1z"/><path fill="#8C9A9C" d="M62 28h1v1h-1z"/><path fill="#889799" d="M63 28h1v1h-1z"/><path fill="#7F9194" d="M64 28h1v1h-1z"/><path fill="#768B8F" d="M65 28h1v1h-1zM66 28h1v1h-1zM67 28h1v1h-1zM68 28h1v1h-1zM69 28h1v1h-1zM70 28h1v1h-1zM71 28h1v1h-1zM72 28h1v1h-1zM73 28h1v1h-1z"/><path fill="#A4999C" d="M74 28h1v1h-1z"/><path fill="#CBA4A7" d="M75 28h1v1h-1z"/><path fill="#D1A6A9" d="M76 28h1v1h-1zM77 28h1v1h-1zM78 28h1v1h-1zM79 28h1v1h-1zM80 28h1v1h-1zM81 28h1v1h-1z"/><path fill="#CBA4A7" d="M82 28h1v1h-1z"/><path fill="#879094" d="M83 28h1v1h-1z"/><path fill="#4D5252" d="M84 28h1v1h-1z"/><path fill="#231815" d="M85 28h1v1h-1zM86 28h1v1h-1zM87 28h1v1h-1zM2 29h1v1H2zM3 29h1v1H3zM4 29h1v1H4z"/><path fill="#281F1D" d="M5 29h1v1H5z"/><path fill="#6C7D80" d="M6 29h1v1H6z"/><path fill="#768B8F" d="M7 29h1v1H7z"/><path fill="#B0DCD5" d="M8 29h1v1H8zM9 29h1v1H9zM10 29h1v1h-1zM11 29h1v1h-1z"/><path fill="#A2C8C4" d="M12 29h1v1h-1z"/><path fill="#768B8F" d="M13 29h1v1h-1zM14 29h1v1h-1zM15 29h1v1h-1zM16 29h1v1h-1zM17 29h1v1h-1zM18 29h1v1h-1zM19 29h1v1h-1zM20 29h1v1h-1zM21 29h1v1h-1zM22 29h1v1h-1z"/><path fill="#8D9296" d="M23 29h1v1h-1z"/><path fill="#C0A1A4" d="M24 29h1v1h-1z"/><path fill="#D1A6A9" d="M25 29h1v1h-1zM26 29h1v1h-1zM27 29h1v1h-1z"/><path fill="#C4A4A7" d="M28 29h1v1h-1z"/><path fill="#768B8F" d="M29 29h1v1h-1zM30 29h1v1h-1zM31 29h1v1h-1z"/><path fill="#859FA1" d="M32 29h1v1h-1z"/><path fill="#B0DCD5" d="M33 29h1v1h-1zM34 29h1v1h-1zM35 29h1v1h-1zM36 29h1v1h-1z"/><path fill="#93B4B2" d="M37 29h1v1h-1z"/><path fill="#768B8F" d="M38 29h1v1h-1zM39 29h1v1h-1zM40 29h1v1h-1zM41 29h1v1h-1zM42 29h1v1h-1zM43 29h1v1h-1zM44 29h1v1h-1zM45 29h1v1h-1zM46 29h1v1h-1zM47 29h1v1h-1z"/><path fill="#989599" d="M48 29h1v1h-1z"/><path fill="#CBA4A7" d="M49 29h1v1h-1z"/><path fill="#D1A6A9" d="M50 29h1v1h-1zM51 29h1v1h-1z"/><path fill="#CBA4A7" d="M52 29h1v1h-1z"/><path fill="#7C8D91" d="M53 29h1v1h-1z"/><path fill="#768B8F" d="M54 29h1v1h-1zM55 29h1v1h-1zM56 29h1v1h-1z"/><path fill="#B0DCD5" d="M57 29h1v1h-1zM58 29h1v1h-1zM59 29h1v1h-1zM60 29h1v1h-1z"/><path fill="#9EC3BF" d="M61 29h1v1h-1z"/><path fill="#768B8F" d="M62 29h1v1h-1zM63 29h1v1h-1zM64 29h1v1h-1zM65 29h1v1h-1zM66 29h1v1h-1zM67 29h1v1h-1zM68 29h1v1h-1zM69 29h1v1h-1zM70 29h1v1h-1zM71 29h1v1h-1z"/><path fill="#929397" d="M72 29h1v1h-1z"/><path fill="#C6A3A6" d="M73 29h1v1h-1z"/><path fill="#D1A6A9" d="M74 29h1v1h-1zM75 29h1v1h-1zM76 29h1v1h-1zM77 29h1v1h-1zM78 29h1v1h-1zM79 29h1v1h-1zM80 29h1v1h-1z"/><path fill="#CBA4A7" d="M81 29h1v1h-1z"/><path fill="#879094" d="M82 29h1v1h-1z"/><path fill="#6C7D80" d="M83 29h1v1h-1z"/><path fill="#281F1D" d="M84 29h1v1h-1z"/><path fill="#231815" d="M85 29h1v1h-1zM86 29h1v1h-1zM87 29h1v1h-1zM2 30h1v1H2zM3 30h1v1H3zM4 30h1v1H4zM5 30h1v1H5z"/><path fill="#383534" d="M6 30h1v1H6z"/><path fill="#768B8F" d="M7 30h1v1H7z"/><path fill="#B0DCD5" d="M8 30h1v1H8zM9 30h1v1H9zM10 30h1v1h-1zM11 30h1v1h-1z"/><path fill="#A2C8C4" d="M12 30h1v1h-1z"/><path fill="#768B8F" d="M13 30h1v1h-1zM14 30h1v1h-1zM15 30h1v1h-1zM16 30h1v1h-1zM17 30h1v1h-1zM18 30h1v1h-1zM19 30h1v1h-1zM20 30h1v1h-1z"/><path fill="#879094" d="M21 30h1v1h-1z"/><path fill="#BA9FA3" d="M22 30h1v1h-1z"/><path fill="#D1A6A9" d="M23 30h1v1h-1zM24 30h1v1h-1zM25 30h1v1h-1zM26 30h1v1h-1zM27 30h1v1h-1zM28 30h1v1h-1z"/><path fill="#9E979A" d="M29 30h1v1h-1z"/><path fill="#768B8F" d="M30 30h1v1h-1zM31 30h1v1h-1z"/><path fill="#859FA1" d="M32 30h1v1h-1z"/><path fill="#B0DCD5" d="M33 30h1v1h-1zM34 30h1v1h-1zM35 30h1v1h-1zM36 30h1v1h-1z"/><path fill="#93B4B2" d="M37 30h1v1h-1z"/><path fill="#768B8F" d="M38 30h1v1h-1zM39 30h1v1h-1zM40 30h1v1h-1zM41 30h1v1h-1zM42 30h1v1h-1zM43 30h1v1h-1zM44 30h1v1h-1zM45 30h1v1h-1z"/><path fill="#929397" d="M46 30h1v1h-1z"/><path fill="#C6A3A6" d="M47 30h1v1h-1z"/><path fill="#D1A6A9" d="M48 30h1v1h-1zM49 30h1v1h-1zM50 30h1v1h-1zM51 30h1v1h-1zM52 30h1v1h-1z"/><path fill="#A99A9E" d="M53 30h1v1h-1z"/><path fill="#768B8F" d="M54 30h1v1h-1zM55 30h1v1h-1zM56 30h1v1h-1z"/><path fill="#B0DCD5" d="M57 30h1v1h-1zM58 30h1v1h-1zM59 30h1v1h-1zM60 30h1v1h-1z"/><path fill="#9EC3BF" d="M61 30h1v1h-1z"/><path fill="#768B8F" d="M62 30h1v1h-1zM63 30h1v1h-1zM64 30h1v1h-1zM65 30h1v1h-1zM66 30h1v1h-1zM67 30h1v1h-1zM68 30h1v1h-1zM69 30h1v1h-1z"/><path fill="#8D9296" d="M70 30h1v1h-1z"/><path fill="#BA9FA3" d="M71 30h1v1h-1z"/><path fill="#D1A6A9" d="M72 30h1v1h-1zM73 30h1v1h-1zM74 30h1v1h-1zM75 30h1v1h-1zM76 30h1v1h-1zM77 30h1v1h-1zM78 30h1v1h-1zM79 30h1v1h-1z"/><path fill="#CBA4A7" d="M80 30h1v1h-1z"/><path fill="#879094" d="M81 30h1v1h-1z"/><path fill="#768B8F" d="M82 30h1v1h-1z"/><path fill="#383534" d="M83 30h1v1h-1z"/><path fill="#231815" d="M84 30h1v1h-1zM85 30h1v1h-1zM86 30h1v1h-1zM87 30h1v1h-1zM3 31h1v1H3zM4 31h1v1H4zM5 31h1v1H5zM6 31h1v1H6z"/><path fill="#474A4A" d="M7 31h1v1H7z"/><path fill="#97B9B6" d="M8 31h1v1H8z"/><path fill="#B0DCD5" d="M9 31h1v1H9zM10 31h1v1h-1zM11 31h1v1h-1z"/><path fill="#88A4A5" d="M12 31h1v1h-1z"/><path fill="#768B8F" d="M13 31h1v1h-1zM14 31h1v1h-1zM15 31h1v1h-1zM16 31h1v1h-1zM17 31h1v1h-1zM18 31h1v1h-1z"/><path fill="#818E92" d="M19 31h1v1h-1z"/><path fill="#AF9C9F" d="M20 31h1v1h-1z"/><path fill="#D1A6A9" d="M21 31h1v1h-1zM22 31h1v1h-1zM23 31h1v1h-1zM24 31h1v1h-1zM25 31h1v1h-1zM26 31h1v1h-1zM27 31h1v1h-1zM28 31h1v1h-1z"/><path fill="#CBA4A7" d="M29 31h1v1h-1z"/><path fill="#879094" d="M30 31h1v1h-1z"/><path fill="#768B8F" d="M31 31h1v1h-1zM32 31h1v1h-1z"/><path fill="#A5CDC8" d="M33 31h1v1h-1z"/><path fill="#B0DCD5" d="M34 31h1v1h-1zM35 31h1v1h-1z"/><path fill="#ACD7D1" d="M36 31h1v1h-1z"/><path fill="#7D9598" d="M37 31h1v1h-1z"/><path fill="#768B8F" d="M38 31h1v1h-1zM39 31h1v1h-1zM40 31h1v1h-1zM41 31h1v1h-1zM42 31h1v1h-1zM43 31h1v1h-1z"/><path fill="#8D9296" d="M44 31h1v1h-1z"/><path fill="#BA9FA3" d="M45 31h1v1h-1z"/><path fill="#D1A6A9" d="M46 31h1v1h-1zM47 31h1v1h-1zM48 31h1v1h-1zM49 31h1v1h-1zM50 31h1v1h-1zM51 31h1v1h-1zM52 31h1v1h-1zM53 31h1v1h-1z"/><path fill="#8D9296" d="M54 31h1v1h-1z"/><path fill="#768B8F" d="M55 31h1v1h-1zM56 31h1v1h-1z"/><path fill="#9ABEBB" d="M57 31h1v1h-1z"/><path fill="#B0DCD5" d="M58 31h1v1h-1zM59 31h1v1h-1zM60 31h1v1h-1z"/><path fill="#859FA1" d="M61 31h1v1h-1z"/><path fill="#768B8F" d="M62 31h1v1h-1zM63 31h1v1h-1zM64 31h1v1h-1zM65 31h1v1h-1zM66 31h1v1h-1zM67 31h1v1h-1z"/><path fill="#818E92" d="M68 31h1v1h-1z"/><path fill="#B59EA1" d="M69 31h1v1h-1z"/><path fill="#D1A6A9" d="M70 31h1v1h-1zM71 31h1v1h-1zM72 31h1v1h-1zM73 31h1v1h-1zM74 31h1v1h-1zM75 31h1v1h-1zM76 31h1v1h-1zM77 31h1v1h-1zM78 31h1v1h-1z"/><path fill="#C0A1A4" d="M79 31h1v1h-1z"/><path fill="#879094" d="M80 31h1v1h-1z"/><path fill="#768B8F" d="M81 31h1v1h-1z"/><path fill="#474A4A" d="M82 31h1v1h-1z"/><path fill="#231815" d="M83 31h1v1h-1zM84 31h1v1h-1zM85 31h1v1h-1zM86 31h1v1h-1zM4 32h1v1H4zM5 32h1v1H5zM6 32h1v1H6zM7 32h1v1H7z"/><path fill="#576061" d="M8 32h1v1H8z"/><path fill="#819A9C" d="M9 32h1v1H9z"/><path fill="#93B4B2" d="M10 32h1v1h-1z"/><path fill="#819A9C" d="M11 32h1v1h-1z"/><path fill="#768B8F" d="M12 32h1v1h-1zM13 32h1v1h-1zM14 32h1v1h-1zM15 32h1v1h-1zM16 32h1v1h-1zM17 32h1v1h-1z"/><path fill="#A4999C" d="M18 32h1v1h-1z"/><path fill="#CBA4A7" d="M19 32h1v1h-1z"/><path fill="#D1A6A9" d="M20 32h1v1h-1zM21 32h1v1h-1zM22 32h1v1h-1zM23 32h1v1h-1zM24 32h1v1h-1zM25 32h1v1h-1zM26 32h1v1h-1zM27 32h1v1h-1zM28 32h1v1h-1z"/><path fill="#A99A9E" d="M29 32h1v1h-1z"/><path fill="#7C8D91" d="M30 32h1v1h-1z"/><path fill="#768B8F" d="M31 32h1v1h-1zM32 32h1v1h-1zM33 32h1v1h-1z"/><path fill="#88A4A5" d="M34 32h1v1h-1z"/><path fill="#8FAEAE" d="M35 32h1v1h-1z"/><path fill="#7D9598" d="M36 32h1v1h-1z"/><path fill="#768B8F" d="M37 32h1v1h-1zM38 32h1v1h-1zM39 32h1v1h-1zM40 32h1v1h-1zM41 32h1v1h-1z"/><path fill="#7C8D91" d="M42 32h1v1h-1z"/><path fill="#AF9C9F" d="M43 32h1v1h-1z"/><path fill="#D1A6A9" d="M44 32h1v1h-1zM45 32h1v1h-1zM46 32h1v1h-1zM47 32h1v1h-1zM48 32h1v1h-1zM49 32h1v1h-1zM50 32h1v1h-1zM51 32h1v1h-1zM52 32h1v1h-1z"/><path fill="#CBA4A7" d="M53 32h1v1h-1z"/><path fill="#989599" d="M54 32h1v1h-1z"/><path fill="#7A8E92" d="M55 32h1v1h-1z"/><path fill="#768B8F" d="M56 32h1v1h-1zM57 32h1v1h-1z"/><path fill="#88A4A5" d="M58 32h1v1h-1z"/><path fill="#8FAEAE" d="M59 32h1v1h-1z"/><path fill="#7D9598" d="M60 32h1v1h-1z"/><path fill="#768B8F" d="M61 32h1v1h-1zM62 32h1v1h-1zM63 32h1v1h-1zM64 32h1v1h-1zM65 32h1v1h-1z"/><path fill="#7C8D91" d="M66 32h1v1h-1z"/><path fill="#A4999C" d="M67 32h1v1h-1z"/><path fill="#D1A6A9" d="M68 32h1v1h-1zM69 32h1v1h-1zM70 32h1v1h-1zM71 32h1v1h-1zM72 32h1v1h-1zM73 32h1v1h-1zM74 32h1v1h-1zM75 32h1v1h-1zM76 32h1v1h-1zM77 32h1v1h-1z"/><path fill="#A4999C" d="M78 32h1v1h-1z"/><path fill="#768B8F" d="M79 32h1v1h-1zM80 32h1v1h-1z"/><path fill="#576061" d="M81 32h1v1h-1z"/><path fill="#231815" d="M82 32h1v1h-1zM83 32h1v1h-1zM84 32h1v1h-1zM85 32h1v1h-1zM4 33h1v1H4zM5 33h1v1H5zM6 33h1v1H6zM7 33h1v1H7zM8 33h1v1H8z"/><path fill="#474A4A" d="M9 33h1v1H9z"/><path fill="#768B8F" d="M10 33h1v1h-1zM11 33h1v1h-1zM12 33h1v1h-1zM13 33h1v1h-1zM14 33h1v1h-1zM15 33h1v1h-1z"/><path fill="#879094" d="M16 33h1v1h-1z"/><path fill="#C0A1A4" d="M17 33h1v1h-1z"/><path fill="#D1A6A9" d="M18 33h1v1h-1zM19 33h1v1h-1zM20 33h1v1h-1zM21 33h1v1h-1zM22 33h1v1h-1zM23 33h1v1h-1zM24 33h1v1h-1zM25 33h1v1h-1zM26 33h1v1h-1z"/><path fill="#BA9FA3" d="M27 33h1v1h-1z"/><path fill="#8D9296" d="M28 33h1v1h-1z"/><path fill="#768B8F" d="M29 33h1v1h-1zM30 33h1v1h-1z"/><path fill="#5C6769" d="M31 33h1v1h-1z"/><path fill="#383534" d="M32 33h1v1h-1z"/><path fill="#4D5252" d="M33 33h1v1h-1z"/><path fill="#768B8F" d="M34 33h1v1h-1zM35 33h1v1h-1zM36 33h1v1h-1zM37 33h1v1h-1zM38 33h1v1h-1zM39 33h1v1h-1zM40 33h1v1h-1z"/><path fill="#929397" d="M41 33h1v1h-1z"/><path fill="#CBA4A7" d="M42 33h1v1h-1z"/><path fill="#D1A6A9" d="M43 33h1v1h-1zM44 33h1v1h-1zM45 33h1v1h-1zM46 33h1v1h-1zM47 33h1v1h-1zM48 33h1v1h-1zM49 33h1v1h-1zM50 33h1v1h-1zM51 33h1v1h-1z"/><path fill="#AF9C9F" d="M52 33h1v1h-1z"/><path fill="#818E92" d="M53 33h1v1h-1z"/><path fill="#768B8F" d="M54 33h1v1h-1z"/><path fill="#616E71" d="M55 33h1v1h-1z"/><path fill="#281F1D" d="M56 33h1v1h-1zM57 33h1v1h-1z"/><path fill="#5C6769" d="M58 33h1v1h-1z"/><path fill="#768B8F" d="M59 33h1v1h-1zM60 33h1v1h-1zM61 33h1v1h-1zM62 33h1v1h-1zM63 33h1v1h-1zM64 33h1v1h-1z"/><path fill="#8D9296" d="M65 33h1v1h-1z"/><path fill="#C6A3A6" d="M66 33h1v1h-1z"/><path fill="#D1A6A9" d="M67 33h1v1h-1zM68 33h1v1h-1zM69 33h1v1h-1zM70 33h1v1h-1zM71 33h1v1h-1zM72 33h1v1h-1zM73 33h1v1h-1zM74 33h1v1h-1zM75 33h1v1h-1z"/><path fill="#AF9C9F" d="M76 33h1v1h-1z"/><path fill="#818E92" d="M77 33h1v1h-1z"/><path fill="#768B8F" d="M78 33h1v1h-1zM79 33h1v1h-1z"/><path fill="#474A4A" d="M80 33h1v1h-1z"/><path fill="#231815" d="M81 33h1v1h-1zM82 33h1v1h-1zM83 33h1v1h-1zM84 33h1v1h-1zM85 33h1v1h-1zM5 34h1v1H5zM6 34h1v1H6zM7 34h1v1H7zM8 34h1v1H8zM9 34h1v1H9z"/><path fill="#383534" d="M10 34h1v1h-1z"/><path fill="#6C7D80" d="M11 34h1v1h-1z"/><path fill="#768B8F" d="M12 34h1v1h-1zM13 34h1v1h-1zM14 34h1v1h-1z"/><path fill="#989599" d="M15 34h1v1h-1z"/><path fill="#D1A6A9" d="M16 34h1v1h-1zM17 34h1v1h-1zM18 34h1v1h-1zM19 34h1v1h-1zM20 34h1v1h-1zM21 34h1v1h-1zM22 34h1v1h-1zM23 34h1v1h-1z"/><path fill="#CBA4A7" d="M24 34h1v1h-1z"/><path fill="#AF9C9F" d="M25 34h1v1h-1z"/><path fill="#879094" d="M26 34h1v1h-1z"/><path fill="#768B8F" d="M27 34h1v1h-1zM28 34h1v1h-1zM29 34h1v1h-1z"/><path fill="#4D5252" d="M30 34h1v1h-1z"/><path fill="#231815" d="M31 34h1v1h-1zM32 34h1v1h-1zM33 34h1v1h-1z"/><path fill="#332E2C" d="M34 34h1v1h-1z"/><path fill="#6C7D80" d="M35 34h1v1h-1z"/><path fill="#768B8F" d="M36 34h1v1h-1zM37 34h1v1h-1zM38 34h1v1h-1zM39 34h1v1h-1z"/><path fill="#AF9C9F" d="M40 34h1v1h-1z"/><path fill="#D1A6A9" d="M41 34h1v1h-1zM42 34h1v1h-1zM43 34h1v1h-1zM44 34h1v1h-1zM45 34h1v1h-1zM46 34h1v1h-1zM47 34h1v1h-1zM48 34h1v1h-1z"/><path fill="#C6A3A6" d="M49 34h1v1h-1z"/><path fill="#A4999C" d="M50 34h1v1h-1z"/><path fill="#818E92" d="M51 34h1v1h-1z"/><path fill="#768B8F" d="M52 34h1v1h-1zM53 34h1v1h-1z"/><path fill="#4D5252" d="M54 34h1v1h-1z"/><path fill="#231815" d="M55 34h1v1h-1zM56 34h1v1h-1zM57 34h1v1h-1zM58 34h1v1h-1z"/><path fill="#474A4A" d="M59 34h1v1h-1z"/><path fill="#768B8F" d="M60 34h1v1h-1zM61 34h1v1h-1zM62 34h1v1h-1zM63 34h1v1h-1z"/><path fill="#A4999C" d="M64 34h1v1h-1z"/><path fill="#D1A6A9" d="M65 34h1v1h-1zM66 34h1v1h-1zM67 34h1v1h-1zM68 34h1v1h-1zM69 34h1v1h-1zM70 34h1v1h-1zM71 34h1v1h-1zM72 34h1v1h-1z"/><path fill="#C6A3A6" d="M73 34h1v1h-1z"/><path fill="#A99A9E" d="M74 34h1v1h-1z"/><path fill="#818E92" d="M75 34h1v1h-1z"/><path fill="#768B8F" d="M76 34h1v1h-1zM77 34h1v1h-1z"/><path fill="#6C7D80" d="M78 34h1v1h-1z"/><path fill="#383534" d="M79 34h1v1h-1z"/><path fill="#231815" d="M80 34h1v1h-1zM81 34h1v1h-1zM82 34h1v1h-1zM83 34h1v1h-1zM84 34h1v1h-1zM6 35h1v1H6zM7 35h1v1H7zM8 35h1v1H8zM9 35h1v1H9zM10 35h1v1h-1z"/><path fill="#281F1D" d="M11 35h1v1h-1z"/><path fill="#4D5252" d="M12 35h1v1h-1z"/><path fill="#718487" d="M13 35h1v1h-1z"/><path fill="#989599" d="M14 35h1v1h-1z"/><path fill="#D1A6A9" d="M15 35h1v1h-1zM16 35h1v1h-1zM17 35h1v1h-1zM18 35h1v1h-1zM19 35h1v1h-1zM20 35h1v1h-1zM21 35h1v1h-1z"/><path fill="#C6A3A6" d="M22 35h1v1h-1z"/><path fill="#989599" d="M23 35h1v1h-1z"/><path fill="#768B8F" d="M24 35h1v1h-1zM25 35h1v1h-1zM26 35h1v1h-1zM27 35h1v1h-1z"/><path fill="#576061" d="M28 35h1v1h-1z"/><path fill="#2D2624" d="M29 35h1v1h-1z"/><path fill="#231815" d="M30 35h1v1h-1zM31 35h1v1h-1zM32 35h1v1h-1zM33 35h1v1h-1zM34 35h1v1h-1z"/><path fill="#281F1D" d="M35 35h1v1h-1z"/><path fill="#4D5252" d="M36 35h1v1h-1z"/><path fill="#718487" d="M37 35h1v1h-1z"/><path fill="#768B8F" d="M38 35h1v1h-1z"/><path fill="#AF9C9F" d="M39 35h1v1h-1z"/><path fill="#D1A6A9" d="M40 35h1v1h-1zM41 35h1v1h-1zM42 35h1v1h-1zM43 35h1v1h-1zM44 35h1v1h-1zM45 35h1v1h-1zM46 35h1v1h-1z"/><path fill="#BA9FA3" d="M47 35h1v1h-1z"/><path fill="#8D9296" d="M48 35h1v1h-1z"/><path fill="#768B8F" d="M49 35h1v1h-1zM50 35h1v1h-1zM51 35h1v1h-1z"/><path fill="#616E71" d="M52 35h1v1h-1z"/><path fill="#332E2C" d="M53 35h1v1h-1z"/><path fill="#231815" d="M54 35h1v1h-1zM55 35h1v1h-1zM56 35h1v1h-1zM57 35h1v1h-1zM58 35h1v1h-1zM59 35h1v1h-1z"/><path fill="#2D2624" d="M60 35h1v1h-1z"/><path fill="#576061" d="M61 35h1v1h-1z"/><path fill="#768B8F" d="M62 35h1v1h-1z"/><path fill="#AF9C9F" d="M63 35h1v1h-1z"/><path fill="#D1A6A9" d="M64 35h1v1h-1zM65 35h1v1h-1zM66 35h1v1h-1zM67 35h1v1h-1zM68 35h1v1h-1zM69 35h1v1h-1zM70 35h1v1h-1z"/><path fill="#C6A3A6" d="M71 35h1v1h-1z"/><path fill="#989599" d="M72 35h1v1h-1z"/><path fill="#768B8F" d="M73 35h1v1h-1zM74 35h1v1h-1zM75 35h1v1h-1z"/><path fill="#718487" d="M76 35h1v1h-1z"/><path fill="#4D5252" d="M77 35h1v1h-1z"/><path fill="#281F1D" d="M78 35h1v1h-1z"/><path fill="#231815" d="M79 35h1v1h-1zM80 35h1v1h-1zM81 35h1v1h-1zM82 35h1v1h-1zM83 35h1v1h-1zM7 36h1v1H7zM8 36h1v1H8zM9 36h1v1H9zM10 36h1v1h-1zM11 36h1v1h-1zM12 36h1v1h-1z"/><path fill="#281F1D" d="M13 36h1v1h-1z"/><path fill="#6F5656" d="M14 36h1v1h-1z"/><path fill="#B08B8D" d="M15 36h1v1h-1z"/><path fill="#D1A6A9" d="M16 36h1v1h-1zM17 36h1v1h-1zM18 36h1v1h-1zM19 36h1v1h-1zM20 36h1v1h-1z"/><path fill="#AF9C9F" d="M21 36h1v1h-1z"/><path fill="#7C8D91" d="M22 36h1v1h-1z"/><path fill="#768B8F" d="M23 36h1v1h-1zM24 36h1v1h-1z"/><path fill="#6C7D80" d="M25 36h1v1h-1z"/><path fill="#52595A" d="M26 36h1v1h-1z"/><path fill="#2D2624" d="M27 36h1v1h-1z"/><path fill="#231815" d="M28 36h1v1h-1zM29 36h1v1h-1zM30 36h1v1h-1zM31 36h1v1h-1zM32 36h1v1h-1zM33 36h1v1h-1zM34 36h1v1h-1zM35 36h1v1h-1zM36 36h1v1h-1z"/><path fill="#281F1D" d="M37 36h1v1h-1z"/><path fill="#584F4F" d="M38 36h1v1h-1z"/><path fill="#B08B8D" d="M39 36h1v1h-1z"/><path fill="#D1A6A9" d="M40 36h1v1h-1zM41 36h1v1h-1zM42 36h1v1h-1zM43 36h1v1h-1zM44 36h1v1h-1zM45 36h1v1h-1z"/><path fill="#9E979A" d="M46 36h1v1h-1z"/><path fill="#768B8F" d="M47 36h1v1h-1zM48 36h1v1h-1z"/><path fill="#718487" d="M49 36h1v1h-1z"/><path fill="#576061" d="M50 36h1v1h-1z"/><path fill="#332E2C" d="M51 36h1v1h-1z"/><path fill="#231815" d="M52 36h1v1h-1zM53 36h1v1h-1zM54 36h1v1h-1zM55 36h1v1h-1zM56 36h1v1h-1zM57 36h1v1h-1zM58 36h1v1h-1zM59 36h1v1h-1zM60 36h1v1h-1zM61 36h1v1h-1z"/><path fill="#2D2624" d="M62 36h1v1h-1z"/><path fill="#856868" d="M63 36h1v1h-1z"/><path fill="#BB9497" d="M64 36h1v1h-1z"/><path fill="#D1A6A9" d="M65 36h1v1h-1zM66 36h1v1h-1zM67 36h1v1h-1zM68 36h1v1h-1zM69 36h1v1h-1z"/><path fill="#AF9C9F" d="M70 36h1v1h-1z"/><path fill="#768B8F" d="M71 36h1v1h-1zM72 36h1v1h-1zM73 36h1v1h-1z"/><path fill="#667578" d="M74 36h1v1h-1z"/><path fill="#474A4A" d="M75 36h1v1h-1z"/><path fill="#281F1D" d="M76 36h1v1h-1z"/><path fill="#231815" d="M77 36h1v1h-1zM78 36h1v1h-1zM79 36h1v1h-1zM80 36h1v1h-1zM81 36h1v1h-1zM82 36h1v1h-1zM9 37h1v1H9zM10 37h1v1h-1zM11 37h1v1h-1zM12 37h1v1h-1zM13 37h1v1h-1zM14 37h1v1h-1zM15 37h1v1h-1z"/><path fill="#2E211E" d="M16 37h1v1h-1z"/><path fill="#594443" d="M17 37h1v1h-1z"/><path fill="#7A5F5F" d="M18 37h1v1h-1zM19 37h1v1h-1zM20 37h1v1h-1z"/><path fill="#525354" d="M21 37h1v1h-1z"/><path fill="#4D5252" d="M22 37h1v1h-1z"/><path fill="#424343" d="M23 37h1v1h-1z"/><path fill="#332E2C" d="M24 37h1v1h-1z"/><path fill="#231815" d="M25 37h1v1h-1zM26 37h1v1h-1zM27 37h1v1h-1zM28 37h1v1h-1zM29 37h1v1h-1zM30 37h1v1h-1zM31 37h1v1h-1zM33 37h1v1h-1zM34 37h1v1h-1zM35 37h1v1h-1zM36 37h1v1h-1zM37 37h1v1h-1zM38 37h1v1h-1zM39 37h1v1h-1z"/><path fill="#2E211E" d="M40 37h1v1h-1z"/><path fill="#4F3C3A" d="M41 37h1v1h-1z"/><path fill="#7A5F5F" d="M42 37h1v1h-1zM43 37h1v1h-1zM44 37h1v1h-1z"/><path fill="#6F5C5C" d="M45 37h1v1h-1z"/><path fill="#4D5252" d="M46 37h1v1h-1z"/><path fill="#424343" d="M47 37h1v1h-1z"/><path fill="#332E2C" d="M48 37h1v1h-1z"/><path fill="#231815" d="M49 37h1v1h-1zM50 37h1v1h-1zM51 37h1v1h-1zM52 37h1v1h-1zM53 37h1v1h-1zM54 37h1v1h-1zM55 37h1v1h-1zM56 37h1v1h-1zM58 37h1v1h-1zM59 37h1v1h-1zM60 37h1v1h-1zM61 37h1v1h-1zM62 37h1v1h-1zM63 37h1v1h-1zM64 37h1v1h-1z"/><path fill="#443331" d="M65 37h1v1h-1z"/><path fill="#644D4D" d="M66 37h1v1h-1z"/><path fill="#7A5F5F" d="M67 37h1v1h-1zM68 37h1v1h-1z"/><path fill="#745D5D" d="M69 37h1v1h-1z"/><path fill="#4D5252" d="M70 37h1v1h-1zM71 37h1v1h-1z"/><path fill="#3D3C3B" d="M72 37h1v1h-1z"/><path fill="#281F1D" d="M73 37h1v1h-1z"/><path fill="#231815" d="M74 37h1v1h-1zM75 37h1v1h-1zM76 37h1v1h-1zM77 37h1v1h-1zM78 37h1v1h-1zM79 37h1v1h-1zM80 37h1v1h-1zM10 38h1v1h-1zM11 38h1v1h-1zM12 38h1v1h-1zM13 38h1v1h-1zM14 38h1v1h-1zM15 38h1v1h-1zM16 38h1v1h-1zM17 38h1v1h-1zM18 38h1v1h-1zM19 38h1v1h-1zM20 38h1v1h-1zM21 38h1v1h-1zM22 38h1v1h-1zM23 38h1v1h-1zM24 38h1v1h-1zM25 38h1v1h-1zM26 38h1v1h-1zM27 38h1v1h-1zM28 38h1v1h-1zM29 38h1v1h-1zM30 38h1v1h-1zM35 38h1v1h-1zM36 38h1v1h-1zM37 38h1v1h-1zM38 38h1v1h-1zM39 38h1v1h-1zM40 38h1v1h-1zM41 38h1v1h-1zM42 38h1v1h-1zM43 38h1v1h-1zM44 38h1v1h-1zM45 38h1v1h-1zM46 38h1v1h-1zM47 38h1v1h-1zM48 38h1v1h-1zM49 38h1v1h-1zM50 38h1v1h-1zM51 38h1v1h-1zM52 38h1v1h-1zM53 38h1v1h-1zM54 38h1v1h-1zM59 38h1v1h-1zM60 38h1v1h-1zM61 38h1v1h-1zM62 38h1v1h-1zM63 38h1v1h-1zM64 38h1v1h-1zM65 38h1v1h-1zM66 38h1v1h-1zM67 38h1v1h-1zM68 38h1v1h-1zM69 38h1v1h-1zM70 38h1v1h-1zM71 38h1v1h-1zM72 38h1v1h-1zM73 38h1v1h-1zM74 38h1v1h-1zM75 38h1v1h-1zM76 38h1v1h-1zM77 38h1v1h-1zM78 38h1v1h-1zM79 38h1v1h-1zM13 39h1v1h-1zM14 39h1v1h-1zM15 39h1v1h-1zM16 39h1v1h-1zM17 39h1v1h-1zM18 39h1v1h-1zM19 39h1v1h-1zM20 39h1v1h-1zM21 39h1v1h-1zM22 39h1v1h-1zM23 39h1v1h-1zM24 39h1v1h-1zM25 39h1v1h-1zM26 39h1v1h-1zM27 39h1v1h-1zM28 39h1v1h-1zM37 39h1v1h-1zM38 39h1v1h-1zM39 39h1v1h-1zM40 39h1v1h-1zM41 39h1v1h-1zM42 39h1v1h-1zM43 39h1v1h-1zM44 39h1v1h-1zM45 39h1v1h-1zM46 39h1v1h-1zM47 39h1v1h-1zM48 39h1v1h-1zM49 39h1v1h-1zM50 39h1v1h-1zM51 39h1v1h-1zM52 39h1v1h-1zM61 39h1v1h-1zM62 39h1v1h-1zM63 39h1v1h-1zM64 39h1v1h-1zM65 39h1v1h-1zM66 39h1v1h-1zM67 39h1v1h-1zM68 39h1v1h-1zM69 39h1v1h-1zM70 39h1v1h-1zM71 39h1v1h-1zM72 39h1v1h-1zM73 39h1v1h-1zM74 39h1v1h-1zM75 39h1v1h-1zM76 39h1v1h-1zM16 40h1v1h-1zM17 40h1v1h-1zM18 40h1v1h-1zM19 40h1v1h-1zM20 40h1v1h-1zM21 40h1v1h-1zM22 40h1v1h-1zM23 40h1v1h-1zM24 40h1v1h-1zM25 40h1v1h-1zM40 40h1v1h-1zM41 40h1v1h-1zM42 40h1v1h-1zM43 40h1v1h-1zM44 40h1v1h-1zM45 40h1v1h-1zM46 40h1v1h-1zM47 40h1v1h-1zM48 40h1v1h-1zM49 40h1v1h-1zM64 40h1v1h-1zM65 40h1v1h-1zM66 40h1v1h-1zM67 40h1v1h-1zM68 40h1v1h-1zM69 40h1v1h-1zM70 40h1v1h-1zM71 40h1v1h-1zM72 40h1v1h-1zM73 40h1v1h-1z"/></svg>