<svg baseProfile="full" height="90" width="90" xmlns="http://www.w3.org/2000/svg"><path fill="#231815" d="M73 0h1v1h-1zM74 0h1v1h-1zM75 0h1v1h-1zM76 0h1v1h-1zM77 0h1v1h-1zM78 0h1v1h-1zM79 0h1v1h-1zM72 1h1v1h-1zM73 1h1v1h-1zM74 1h1v1h-1zM75 1h1v1h-1zM76 1h1v1h-1zM77 1h1v1h-1zM78 1h1v1h-1zM79 1h1v1h-1zM80 1h1v1h-1zM81 1h1v1h-1zM71 2h1v1h-1zM72 2h1v1h-1zM73 2h1v1h-1zM74 2h1v1h-1zM75 2h1v1h-1zM76 2h1v1h-1zM77 2h1v1h-1zM78 2h1v1h-1zM79 2h1v1h-1zM80 2h1v1h-1zM81 2h1v1h-1zM82 2h1v1h-1zM83 2h1v1h-1zM70 3h1v1h-1zM71 3h1v1h-1zM72 3h1v1h-1zM73 3h1v1h-1zM74 3h1v1h-1z"/><path fill="#39302D" d="M75 3h1v1h-1z"/><path fill="#4F4745" d="M76 3h1v1h-1z"/><path fill="#39302D" d="M77 3h1v1h-1z"/><path fill="#231815" d="M78 3h1v1h-1zM79 3h1v1h-1zM80 3h1v1h-1zM81 3h1v1h-1zM82 3h1v1h-1zM83 3h1v1h-1zM84 3h1v1h-1zM69 4h1v1h-1zM70 4h1v1h-1zM71 4h1v1h-1zM72 4h1v1h-1zM73 4h1v1h-1z"/><path fill="#443B39" d="M74 4h1v1h-1z"/><path fill="#C8C8C7" d="M75 4h1v1h-1z"/><path fill="#D3D4D3" d="M76 4h1v1h-1z"/><path fill="#D6D7D6" d="M77 4h1v1h-1z"/><path fill="#D0CECE" d="M78 4h1v1h-1z"/><path fill="#766F6D" d="M79 4h1v1h-1z"/><path fill="#231815" d="M80 4h1v1h-1zM81 4h1v1h-1zM82 4h1v1h-1zM83 4h1v1h-1zM84 4h1v1h-1zM85 4h1v1h-1zM68 5h1v1h-1zM69 5h1v1h-1zM70 5h1v1h-1zM71 5h1v1h-1zM72 5h1v1h-1z"/><path fill="#443B39" d="M73 5h1v1h-1z"/><path fill="#C8C8C7" d="M74 5h1v1h-1z"/><path fill="#D3D4D3" d="M75 5h1v1h-1z"/><path fill="#D6D7D6" d="M76 5h1v1h-1z"/><path fill="#F7F7F7" d="M77 5h1v1h-1z"/><path fill="#FFF" d="M78 5h1v1h-1zM79 5h1v1h-1z"/><path fill="#CECCCB" d="M80 5h1v1h-1z"/><path fill="#443B39" d="M81 5h1v1h-1z"/><path fill="#231815" d="M82 5h1v1h-1zM83 5h1v1h-1zM84 5h1v1h-1zM85 5h1v1h-1zM86 5h1v1h-1zM67 6h1v1h-1zM68 6h1v1h-1zM69 6h1v1h-1zM70 6h1v1h-1zM71 6h1v1h-1z"/><path fill="#443B39" d="M72 6h1v1h-1z"/><path fill="#C8C8C7" d="M73 6h1v1h-1z"/><path fill="#D3D4D3" d="M74 6h1v1h-1z"/><path fill="#D6D7D6" d="M75 6h1v1h-1z"/><path fill="#F7F7F7" d="M76 6h1v1h-1z"/><path fill="#FFF" d="M77 6h1v1h-1zM78 6h1v1h-1z"/><path fill="#F7F7F7" d="M79 6h1v1h-1z"/><path fill="#D6D7D6" d="M80 6h1v1h-1z"/><path fill="#C8C8C7" d="M81 6h1v1h-1z"/><path fill="#655F5C" d="M82 6h1v1h-1z"/><path fill="#231815" d="M83 6h1v1h-1zM84 6h1v1h-1zM85 6h1v1h-1zM86 6h1v1h-1zM87 6h1v1h-1zM66 7h1v1h-1zM67 7h1v1h-1zM68 7h1v1h-1zM69 7h1v1h-1zM70 7h1v1h-1z"/><path fill="#443B39" d="M71 7h1v1h-1z"/><path fill="#C8C8C7" d="M72 7h1v1h-1z"/><path fill="#D3D4D3" d="M73 7h1v1h-1z"/><path fill="#D6D7D6" d="M74 7h1v1h-1z"/><path fill="#F7F7F7" d="M75 7h1v1h-1z"/><path fill="#FFF" d="M76 7h1v1h-1zM77 7h1v1h-1z"/><path fill="#F7F7F7" d="M78 7h1v1h-1z"/><path fill="#D6D7D6" d="M79 7h1v1h-1z"/><path fill="#D3D4D3" d="M80 7h1v1h-1zM81 7h1v1h-1zM82 7h1v1h-1z"/><path fill="#655F5C" d="M83 7h1v1h-1z"/><path fill="#231815" d="M84 7h1v1h-1zM85 7h1v1h-1zM86 7h1v1h-1zM87 7h1v1h-1zM65 8h1v1h-1zM66 8h1v1h-1zM67 8h1v1h-1zM68 8h1v1h-1zM69 8h1v1h-1z"/><path fill="#443B39" d="M70 8h1v1h-1z"/><path fill="#C8C8C7" d="M71 8h1v1h-1z"/><path fill="#D3D4D3" d="M72 8h1v1h-1z"/><path fill="#D6D7D6" d="M73 8h1v1h-1z"/><path fill="#F7F7F7" d="M74 8h1v1h-1z"/><path fill="#FFF" d="M75 8h1v1h-1zM76 8h1v1h-1z"/><path fill="#F7F7F7" d="M77 8h1v1h-1z"/><path fill="#D6D7D6" d="M78 8h1v1h-1z"/><path fill="#D3D4D3" d="M79 8h1v1h-1zM80 8h1v1h-1zM81 8h1v1h-1z"/><path fill="#CCCDCC" d="M82 8h1v1h-1z"/><path fill="#737774" d="M83 8h1v1h-1z"/><path fill="#2E2623" d="M84 8h1v1h-1z"/><path fill="#231815" d="M85 8h1v1h-1zM86 8h1v1h-1zM87 8h1v1h-1zM88 8h1v1h-1zM64 9h1v1h-1zM65 9h1v1h-1zM66 9h1v1h-1zM67 9h1v1h-1zM68 9h1v1h-1z"/><path fill="#443B39" d="M69 9h1v1h-1z"/><path fill="#C8C8C7" d="M70 9h1v1h-1z"/><path fill="#D3D4D3" d="M71 9h1v1h-1z"/><path fill="#D6D7D6" d="M72 9h1v1h-1z"/><path fill="#F7F7F7" d="M73 9h1v1h-1z"/><path fill="#FFF" d="M74 9h1v1h-1zM75 9h1v1h-1z"/><path fill="#F7F7F7" d="M76 9h1v1h-1z"/><path fill="#D6D7D6" d="M77 9h1v1h-1z"/><path fill="#D3D4D3" d="M78 9h1v1h-1zM79 9h1v1h-1zM80 9h1v1h-1z"/><path fill="#CCCDCC" d="M81 9h1v1h-1z"/><path fill="#737774" d="M82 9h1v1h-1z"/><path fill="#5D615E" d="M83 9h1v1h-1z"/><path fill="#525350" d="M84 9h1v1h-1z"/><path fill="#231815" d="M85 9h1v1h-1zM86 9h1v1h-1zM87 9h1v1h-1zM88 9h1v1h-1zM63 10h1v1h-1zM64 10h1v1h-1zM65 10h1v1h-1zM66 10h1v1h-1zM67 10h1v1h-1z"/><path fill="#443B39" d="M68 10h1v1h-1z"/><path fill="#C8C8C7" d="M69 10h1v1h-1z"/><path fill="#D3D4D3" d="M70 10h1v1h-1z"/><path fill="#D6D7D6" d="M71 10h1v1h-1z"/><path fill="#F7F7F7" d="M72 10h1v1h-1z"/><path fill="#FFF" d="M73 10h1v1h-1zM74 10h1v1h-1z"/><path fill="#F7F7F7" d="M75 10h1v1h-1z"/><path fill="#D6D7D6" d="M76 10h1v1h-1z"/><path fill="#D3D4D3" d="M77 10h1v1h-1zM78 10h1v1h-1zM79 10h1v1h-1z"/><path fill="#CCCDCC" d="M80 10h1v1h-1z"/><path fill="#737774" d="M81 10h1v1h-1z"/><path fill="#5D615E" d="M82 10h1v1h-1zM83 10h1v1h-1zM84 10h1v1h-1z"/><path fill="#393330" d="M85 10h1v1h-1z"/><path fill="#231815" d="M86 10h1v1h-1zM87 10h1v1h-1zM88 10h1v1h-1zM89 10h1v1h-1zM62 11h1v1h-1zM63 11h1v1h-1zM64 11h1v1h-1zM65 11h1v1h-1zM66 11h1v1h-1z"/><path fill="#443B39" d="M67 11h1v1h-1z"/><path fill="#C8C8C7" d="M68 11h1v1h-1z"/><path fill="#D3D4D3" d="M69 11h1v1h-1z"/><path fill="#D6D7D6" d="M70 11h1v1h-1z"/><path fill="#F7F7F7" d="M71 11h1v1h-1z"/><path fill="#FFF" d="M72 11h1v1h-1zM73 11h1v1h-1z"/><path fill="#F7F7F7" d="M74 11h1v1h-1z"/><path fill="#D6D7D6" d="M75 11h1v1h-1z"/><path fill="#D3D4D3" d="M76 11h1v1h-1zM77 11h1v1h-1zM78 11h1v1h-1z"/><path fill="#CCCDCC" d="M79 11h1v1h-1z"/><path fill="#737774" d="M80 11h1v1h-1z"/><path fill="#5D615E" d="M81 11h1v1h-1zM82 11h1v1h-1zM83 11h1v1h-1zM84 11h1v1h-1z"/><path fill="#525350" d="M85 11h1v1h-1z"/><path fill="#231815" d="M86 11h1v1h-1zM87 11h1v1h-1zM88 11h1v1h-1zM89 11h1v1h-1zM61 12h1v1h-1zM62 12h1v1h-1zM63 12h1v1h-1zM64 12h1v1h-1zM65 12h1v1h-1z"/><path fill="#443B39" d="M66 12h1v1h-1z"/><path fill="#C8C8C7" d="M67 12h1v1h-1z"/><path fill="#D3D4D3" d="M68 12h1v1h-1z"/><path fill="#D6D7D6" d="M69 12h1v1h-1z"/><path fill="#F7F7F7" d="M70 12h1v1h-1z"/><path fill="#FFF" d="M71 12h1v1h-1zM72 12h1v1h-1z"/><path fill="#F7F7F7" d="M73 12h1v1h-1z"/><path fill="#D6D7D6" d="M74 12h1v1h-1z"/><path fill="#D3D4D3" d="M75 12h1v1h-1zM76 12h1v1h-1zM77 12h1v1h-1z"/><path fill="#CCCDCC" d="M78 12h1v1h-1z"/><path fill="#737774" d="M79 12h1v1h-1z"/><path fill="#5D615E" d="M80 12h1v1h-1zM81 12h1v1h-1zM82 12h1v1h-1zM83 12h1v1h-1zM84 12h1v1h-1zM85 12h1v1h-1z"/><path fill="#231815" d="M86 12h1v1h-1zM87 12h1v1h-1zM88 12h1v1h-1zM89 12h1v1h-1zM60 13h1v1h-1zM61 13h1v1h-1zM62 13h1v1h-1zM63 13h1v1h-1zM64 13h1v1h-1z"/><path fill="#443B39" d="M65 13h1v1h-1z"/><path fill="#C8C8C7" d="M66 13h1v1h-1z"/><path fill="#D3D4D3" d="M67 13h1v1h-1z"/><path fill="#D6D7D6" d="M68 13h1v1h-1z"/><path fill="#F7F7F7" d="M69 13h1v1h-1z"/><path fill="#FFF" d="M70 13h1v1h-1zM71 13h1v1h-1z"/><path fill="#F7F7F7" d="M72 13h1v1h-1z"/><path fill="#D6D7D6" d="M73 13h1v1h-1z"/><path fill="#D3D4D3" d="M74 13h1v1h-1zM75 13h1v1h-1zM76 13h1v1h-1z"/><path fill="#CCCDCC" d="M77 13h1v1h-1z"/><path fill="#737774" d="M78 13h1v1h-1z"/><path fill="#5D615E" d="M79 13h1v1h-1zM80 13h1v1h-1zM81 13h1v1h-1zM82 13h1v1h-1zM83 13h1v1h-1zM84 13h1v1h-1z"/><path fill="#A7A9A7" d="M85 13h1v1h-1z"/><path fill="#4F4745" d="M86 13h1v1h-1z"/><path fill="#231815" d="M87 13h1v1h-1zM88 13h1v1h-1zM89 13h1v1h-1zM59 14h1v1h-1zM60 14h1v1h-1zM61 14h1v1h-1zM62 14h1v1h-1zM63 14h1v1h-1z"/><path fill="#443B39" d="M64 14h1v1h-1z"/><path fill="#C8C8C7" d="M65 14h1v1h-1z"/><path fill="#D3D4D3" d="M66 14h1v1h-1z"/><path fill="#D6D7D6" d="M67 14h1v1h-1z"/><path fill="#F7F7F7" d="M68 14h1v1h-1z"/><path fill="#FFF" d="M69 14h1v1h-1zM70 14h1v1h-1z"/><path fill="#F7F7F7" d="M71 14h1v1h-1z"/><path fill="#D6D7D6" d="M72 14h1v1h-1z"/><path fill="#D3D4D3" d="M73 14h1v1h-1zM74 14h1v1h-1zM75 14h1v1h-1z"/><path fill="#CCCDCC" d="M76 14h1v1h-1z"/><path fill="#737774" d="M77 14h1v1h-1z"/><path fill="#5D615E" d="M78 14h1v1h-1zM79 14h1v1h-1zM80 14h1v1h-1zM81 14h1v1h-1zM82 14h1v1h-1zM83 14h1v1h-1z"/><path fill="#A7A9A7" d="M84 14h1v1h-1z"/><path fill="#D3D4D3" d="M85 14h1v1h-1z"/><path fill="#4F4745" d="M86 14h1v1h-1z"/><path fill="#231815" d="M87 14h1v1h-1zM88 14h1v1h-1zM89 14h1v1h-1zM58 15h1v1h-1zM59 15h1v1h-1zM60 15h1v1h-1zM61 15h1v1h-1zM62 15h1v1h-1z"/><path fill="#443B39" d="M63 15h1v1h-1z"/><path fill="#C8C8C7" d="M64 15h1v1h-1z"/><path fill="#D3D4D3" d="M65 15h1v1h-1z"/><path fill="#D6D7D6" d="M66 15h1v1h-1z"/><path fill="#F7F7F7" d="M67 15h1v1h-1z"/><path fill="#FFF" d="M68 15h1v1h-1zM69 15h1v1h-1z"/><path fill="#F7F7F7" d="M70 15h1v1h-1z"/><path fill="#D6D7D6" d="M71 15h1v1h-1z"/><path fill="#D3D4D3" d="M72 15h1v1h-1zM73 15h1v1h-1zM74 15h1v1h-1z"/><path fill="#CCCDCC" d="M75 15h1v1h-1z"/><path fill="#737774" d="M76 15h1v1h-1z"/><path fill="#5D615E" d="M77 15h1v1h-1zM78 15h1v1h-1zM79 15h1v1h-1zM80 15h1v1h-1zM81 15h1v1h-1zM82 15h1v1h-1z"/><path fill="#A7A9A7" d="M83 15h1v1h-1z"/><path fill="#D3D4D3" d="M84 15h1v1h-1z"/><path fill="#B2B1AF" d="M85 15h1v1h-1z"/><path fill="#2E2421" d="M86 15h1v1h-1z"/><path fill="#231815" d="M87 15h1v1h-1zM88 15h1v1h-1zM89 15h1v1h-1zM57 16h1v1h-1zM58 16h1v1h-1zM59 16h1v1h-1zM60 16h1v1h-1zM61 16h1v1h-1z"/><path fill="#443B39" d="M62 16h1v1h-1z"/><path fill="#C8C8C7" d="M63 16h1v1h-1z"/><path fill="#D3D4D3" d="M64 16h1v1h-1z"/><path fill="#D6D7D6" d="M65 16h1v1h-1z"/><path fill="#F7F7F7" d="M66 16h1v1h-1z"/><path fill="#FFF" d="M67 16h1v1h-1zM68 16h1v1h-1z"/><path fill="#F7F7F7" d="M69 16h1v1h-1z"/><path fill="#D6D7D6" d="M70 16h1v1h-1z"/><path fill="#D3D4D3" d="M71 16h1v1h-1zM72 16h1v1h-1zM73 16h1v1h-1z"/><path fill="#CCCDCC" d="M74 16h1v1h-1z"/><path fill="#737774" d="M75 16h1v1h-1z"/><path fill="#5D615E" d="M76 16h1v1h-1zM77 16h1v1h-1zM78 16h1v1h-1zM79 16h1v1h-1zM80 16h1v1h-1zM81 16h1v1h-1z"/><path fill="#A7A9A7" d="M82 16h1v1h-1z"/><path fill="#D3D4D3" d="M83 16h1v1h-1z"/><path fill="#B2B1AF" d="M84 16h1v1h-1z"/><path fill="#2E2421" d="M85 16h1v1h-1z"/><path fill="#231815" d="M86 16h1v1h-1zM87 16h1v1h-1zM88 16h1v1h-1zM89 16h1v1h-1zM56 17h1v1h-1zM57 17h1v1h-1zM58 17h1v1h-1zM59 17h1v1h-1zM60 17h1v1h-1z"/><path fill="#443B39" d="M61 17h1v1h-1z"/><path fill="#C8C8C7" d="M62 17h1v1h-1z"/><path fill="#D3D4D3" d="M63 17h1v1h-1z"/><path fill="#D6D7D6" d="M64 17h1v1h-1z"/><path fill="#F7F7F7" d="M65 17h1v1h-1z"/><path fill="#FFF" d="M66 17h1v1h-1zM67 17h1v1h-1z"/><path fill="#F7F7F7" d="M68 17h1v1h-1z"/><path fill="#D6D7D6" d="M69 17h1v1h-1z"/><path fill="#D3D4D3" d="M70 17h1v1h-1zM71 17h1v1h-1zM72 17h1v1h-1z"/><path fill="#CCCDCC" d="M73 17h1v1h-1z"/><path fill="#737774" d="M74 17h1v1h-1z"/><path fill="#5D615E" d="M75 17h1v1h-1zM76 17h1v1h-1zM77 17h1v1h-1zM78 17h1v1h-1zM79 17h1v1h-1zM80 17h1v1h-1z"/><path fill="#A7A9A7" d="M81 17h1v1h-1z"/><path fill="#D3D4D3" d="M82 17h1v1h-1z"/><path fill="#9C9998" d="M83 17h1v1h-1z"/><path fill="#2E2421" d="M84 17h1v1h-1z"/><path fill="#231815" d="M85 17h1v1h-1zM86 17h1v1h-1zM87 17h1v1h-1zM88 17h1v1h-1zM89 17h1v1h-1zM55 18h1v1h-1zM56 18h1v1h-1zM57 18h1v1h-1zM58 18h1v1h-1zM59 18h1v1h-1z"/><path fill="#443B39" d="M60 18h1v1h-1z"/><path fill="#C8C8C7" d="M61 18h1v1h-1z"/><path fill="#D3D4D3" d="M62 18h1v1h-1z"/><path fill="#D6D7D6" d="M63 18h1v1h-1z"/><path fill="#F7F7F7" d="M64 18h1v1h-1z"/><path fill="#FFF" d="M65 18h1v1h-1zM66 18h1v1h-1z"/><path fill="#F7F7F7" d="M67 18h1v1h-1z"/><path fill="#D6D7D6" d="M68 18h1v1h-1z"/><path fill="#D3D4D3" d="M69 18h1v1h-1zM70 18h1v1h-1zM71 18h1v1h-1z"/><path fill="#CCCDCC" d="M72 18h1v1h-1z"/><path fill="#737774" d="M73 18h1v1h-1z"/><path fill="#5D615E" d="M74 18h1v1h-1zM75 18h1v1h-1zM76 18h1v1h-1zM77 18h1v1h-1zM78 18h1v1h-1zM79 18h1v1h-1z"/><path fill="#A7A9A7" d="M80 18h1v1h-1z"/><path fill="#D3D4D3" d="M81 18h1v1h-1z"/><path fill="#918E8C" d="M82 18h1v1h-1z"/><path fill="#231815" d="M83 18h1v1h-1zM84 18h1v1h-1zM85 18h1v1h-1zM86 18h1v1h-1zM87 18h1v1h-1zM88 18h1v1h-1zM54 19h1v1h-1zM55 19h1v1h-1zM56 19h1v1h-1zM57 19h1v1h-1zM58 19h1v1h-1z"/><path fill="#4F4745" d="M59 19h1v1h-1z"/><path fill="#C8C8C7" d="M60 19h1v1h-1z"/><path fill="#D3D4D3" d="M61 19h1v1h-1z"/><path fill="#D6D7D6" d="M62 19h1v1h-1z"/><path fill="#F7F7F7" d="M63 19h1v1h-1z"/><path fill="#FFF" d="M64 19h1v1h-1zM65 19h1v1h-1z"/><path fill="#F7F7F7" d="M66 19h1v1h-1z"/><path fill="#D6D7D6" d="M67 19h1v1h-1z"/><path fill="#D3D4D3" d="M68 19h1v1h-1zM69 19h1v1h-1zM70 19h1v1h-1z"/><path fill="#CCCDCC" d="M71 19h1v1h-1z"/><path fill="#737774" d="M72 19h1v1h-1z"/><path fill="#5D615E" d="M73 19h1v1h-1zM74 19h1v1h-1zM75 19h1v1h-1zM76 19h1v1h-1zM77 19h1v1h-1zM78 19h1v1h-1z"/><path fill="#A7A9A7" d="M79 19h1v1h-1z"/><path fill="#D3D4D3" d="M80 19h1v1h-1z"/><path fill="#918E8C" d="M81 19h1v1h-1z"/><path fill="#231815" d="M82 19h1v1h-1zM83 19h1v1h-1zM84 19h1v1h-1zM85 19h1v1h-1zM86 19h1v1h-1zM87 19h1v1h-1zM53 20h1v1h-1zM54 20h1v1h-1zM55 20h1v1h-1zM56 20h1v1h-1zM57 20h1v1h-1z"/><path fill="#655F5C" d="M58 20h1v1h-1z"/><path fill="#D3D4D3" d="M59 20h1v1h-1zM60 20h1v1h-1z"/><path fill="#D6D7D6" d="M61 20h1v1h-1z"/><path fill="#F7F7F7" d="M62 20h1v1h-1z"/><path fill="#FFF" d="M63 20h1v1h-1zM64 20h1v1h-1z"/><path fill="#F7F7F7" d="M65 20h1v1h-1z"/><path fill="#D6D7D6" d="M66 20h1v1h-1z"/><path fill="#D3D4D3" d="M67 20h1v1h-1zM68 20h1v1h-1zM69 20h1v1h-1z"/><path fill="#CCCDCC" d="M70 20h1v1h-1z"/><path fill="#737774" d="M71 20h1v1h-1z"/><path fill="#5D615E" d="M72 20h1v1h-1zM73 20h1v1h-1zM74 20h1v1h-1zM75 20h1v1h-1zM76 20h1v1h-1zM77 20h1v1h-1z"/><path fill="#A7A9A7" d="M78 20h1v1h-1z"/><path fill="#D3D4D3" d="M79 20h1v1h-1z"/><path fill="#918E8C" d="M80 20h1v1h-1z"/><path fill="#231815" d="M81 20h1v1h-1zM82 20h1v1h-1zM83 20h1v1h-1zM84 20h1v1h-1zM85 20h1v1h-1zM86 20h1v1h-1zM52 21h1v1h-1zM53 21h1v1h-1zM54 21h1v1h-1zM55 21h1v1h-1zM56 21h1v1h-1z"/><path fill="#655F5C" d="M57 21h1v1h-1z"/><path fill="#D3D4D3" d="M58 21h1v1h-1zM59 21h1v1h-1z"/><path fill="#D6D7D6" d="M60 21h1v1h-1z"/><path fill="#F7F7F7" d="M61 21h1v1h-1z"/><path fill="#FFF" d="M62 21h1v1h-1zM63 21h1v1h-1z"/><path fill="#F7F7F7" d="M64 21h1v1h-1z"/><path fill="#D6D7D6" d="M65 21h1v1h-1z"/><path fill="#D3D4D3" d="M66 21h1v1h-1zM67 21h1v1h-1zM68 21h1v1h-1z"/><path fill="#CCCDCC" d="M69 21h1v1h-1z"/><path fill="#737774" d="M70 21h1v1h-1z"/><path fill="#5D615E" d="M71 21h1v1h-1zM72 21h1v1h-1zM73 21h1v1h-1zM74 21h1v1h-1zM75 21h1v1h-1zM76 21h1v1h-1z"/><path fill="#A7A9A7" d="M77 21h1v1h-1z"/><path fill="#D3D4D3" d="M78 21h1v1h-1z"/><path fill="#918E8C" d="M79 21h1v1h-1z"/><path fill="#231815" d="M80 21h1v1h-1zM81 21h1v1h-1zM82 21h1v1h-1zM83 21h1v1h-1zM84 21h1v1h-1zM85 21h1v1h-1zM51 22h1v1h-1zM52 22h1v1h-1zM53 22h1v1h-1zM54 22h1v1h-1zM55 22h1v1h-1z"/><path fill="#655F5C" d="M56 22h1v1h-1z"/><path fill="#D3D4D3" d="M57 22h1v1h-1zM58 22h1v1h-1z"/><path fill="#D6D7D6" d="M59 22h1v1h-1z"/><path fill="#F7F7F7" d="M60 22h1v1h-1z"/><path fill="#FFF" d="M61 22h1v1h-1zM62 22h1v1h-1z"/><path fill="#F7F7F7" d="M63 22h1v1h-1z"/><path fill="#D6D7D6" d="M64 22h1v1h-1z"/><path fill="#D3D4D3" d="M65 22h1v1h-1zM66 22h1v1h-1zM67 22h1v1h-1z"/><path fill="#CCCDCC" d="M68 22h1v1h-1z"/><path fill="#737774" d="M69 22h1v1h-1z"/><path fill="#5D615E" d="M70 22h1v1h-1zM71 22h1v1h-1zM72 22h1v1h-1zM73 22h1v1h-1zM74 22h1v1h-1zM75 22h1v1h-1z"/><path fill="#A7A9A7" d="M76 22h1v1h-1z"/><path fill="#D3D4D3" d="M77 22h1v1h-1z"/><path fill="#918E8C" d="M78 22h1v1h-1z"/><path fill="#231815" d="M79 22h1v1h-1zM80 22h1v1h-1zM81 22h1v1h-1zM82 22h1v1h-1zM83 22h1v1h-1zM84 22h1v1h-1zM50 23h1v1h-1zM51 23h1v1h-1zM52 23h1v1h-1zM53 23h1v1h-1zM54 23h1v1h-1z"/><path fill="#655F5C" d="M55 23h1v1h-1z"/><path fill="#D3D4D3" d="M56 23h1v1h-1zM57 23h1v1h-1z"/><path fill="#D6D7D6" d="M58 23h1v1h-1z"/><path fill="#F7F7F7" d="M59 23h1v1h-1z"/><path fill="#FFF" d="M60 23h1v1h-1zM61 23h1v1h-1z"/><path fill="#F7F7F7" d="M62 23h1v1h-1z"/><path fill="#D6D7D6" d="M63 23h1v1h-1z"/><path fill="#D3D4D3" d="M64 23h1v1h-1zM65 23h1v1h-1zM66 23h1v1h-1z"/><path fill="#CCCDCC" d="M67 23h1v1h-1z"/><path fill="#737774" d="M68 23h1v1h-1z"/><path fill="#5D615E" d="M69 23h1v1h-1zM70 23h1v1h-1zM71 23h1v1h-1zM72 23h1v1h-1zM73 23h1v1h-1zM74 23h1v1h-1z"/><path fill="#A7A9A7" d="M75 23h1v1h-1z"/><path fill="#D3D4D3" d="M76 23h1v1h-1z"/><path fill="#918E8C" d="M77 23h1v1h-1z"/><path fill="#231815" d="M78 23h1v1h-1zM79 23h1v1h-1zM80 23h1v1h-1zM81 23h1v1h-1zM82 23h1v1h-1zM83 23h1v1h-1zM49 24h1v1h-1zM50 24h1v1h-1zM51 24h1v1h-1zM52 24h1v1h-1zM53 24h1v1h-1z"/><path fill="#655F5C" d="M54 24h1v1h-1z"/><path fill="#D3D4D3" d="M55 24h1v1h-1zM56 24h1v1h-1z"/><path fill="#D6D7D6" d="M57 24h1v1h-1z"/><path fill="#F7F7F7" d="M58 24h1v1h-1z"/><path fill="#FFF" d="M59 24h1v1h-1zM60 24h1v1h-1z"/><path fill="#F7F7F7" d="M61 24h1v1h-1z"/><path fill="#D6D7D6" d="M62 24h1v1h-1z"/><path fill="#D3D4D3" d="M63 24h1v1h-1zM64 24h1v1h-1zM65 24h1v1h-1z"/><path fill="#CCCDCC" d="M66 24h1v1h-1z"/><path fill="#737774" d="M67 24h1v1h-1z"/><path fill="#5D615E" d="M68 24h1v1h-1zM69 24h1v1h-1zM70 24h1v1h-1zM71 24h1v1h-1zM72 24h1v1h-1zM73 24h1v1h-1z"/><path fill="#A7A9A7" d="M74 24h1v1h-1z"/><path fill="#D3D4D3" d="M75 24h1v1h-1z"/><path fill="#918E8C" d="M76 24h1v1h-1z"/><path fill="#231815" d="M77 24h1v1h-1zM78 24h1v1h-1zM79 24h1v1h-1zM80 24h1v1h-1zM81 24h1v1h-1zM82 24h1v1h-1zM48 25h1v1h-1zM49 25h1v1h-1zM50 25h1v1h-1zM51 25h1v1h-1zM52 25h1v1h-1z"/><path fill="#655F5C" d="M53 25h1v1h-1z"/><path fill="#D3D4D3" d="M54 25h1v1h-1zM55 25h1v1h-1z"/><path fill="#D6D7D6" d="M56 25h1v1h-1z"/><path fill="#F7F7F7" d="M57 25h1v1h-1z"/><path fill="#FFF" d="M58 25h1v1h-1zM59 25h1v1h-1z"/><path fill="#F7F7F7" d="M60 25h1v1h-1z"/><path fill="#D6D7D6" d="M61 25h1v1h-1z"/><path fill="#D3D4D3" d="M62 25h1v1h-1zM63 25h1v1h-1zM64 25h1v1h-1z"/><path fill="#CCCDCC" d="M65 25h1v1h-1z"/><path fill="#737774" d="M66 25h1v1h-1z"/><path fill="#5D615E" d="M67 25h1v1h-1zM68 25h1v1h-1zM69 25h1v1h-1zM70 25h1v1h-1zM71 25h1v1h-1zM72 25h1v1h-1z"/><path fill="#A7A9A7" d="M73 25h1v1h-1z"/><path fill="#D3D4D3" d="M74 25h1v1h-1z"/><path fill="#918E8C" d="M75 25h1v1h-1z"/><path fill="#231815" d="M76 25h1v1h-1zM77 25h1v1h-1zM78 25h1v1h-1zM79 25h1v1h-1zM80 25h1v1h-1zM81 25h1v1h-1zM47 26h1v1h-1zM48 26h1v1h-1zM49 26h1v1h-1zM50 26h1v1h-1zM51 26h1v1h-1z"/><path fill="#655F5C" d="M52 26h1v1h-1z"/><path fill="#D3D4D3" d="M53 26h1v1h-1zM54 26h1v1h-1z"/><path fill="#D6D7D6" d="M55 26h1v1h-1z"/><path fill="#F7F7F7" d="M56 26h1v1h-1z"/><path fill="#FFF" d="M57 26h1v1h-1zM58 26h1v1h-1z"/><path fill="#F7F7F7" d="M59 26h1v1h-1z"/><path fill="#D6D7D6" d="M60 26h1v1h-1z"/><path fill="#D3D4D3" d="M61 26h1v1h-1zM62 26h1v1h-1zM63 26h1v1h-1z"/><path fill="#CCCDCC" d="M64 26h1v1h-1z"/><path fill="#737774" d="M65 26h1v1h-1z"/><path fill="#5D615E" d="M66 26h1v1h-1zM67 26h1v1h-1zM68 26h1v1h-1zM69 26h1v1h-1zM70 26h1v1h-1zM71 26h1v1h-1z"/><path fill="#A7A9A7" d="M72 26h1v1h-1z"/><path fill="#D3D4D3" d="M73 26h1v1h-1z"/><path fill="#918E8C" d="M74 26h1v1h-1z"/><path fill="#231815" d="M75 26h1v1h-1zM76 26h1v1h-1zM77 26h1v1h-1zM78 26h1v1h-1zM79 26h1v1h-1zM80 26h1v1h-1zM46 27h1v1h-1zM47 27h1v1h-1zM48 27h1v1h-1zM49 27h1v1h-1zM50 27h1v1h-1z"/><path fill="#655F5C" d="M51 27h1v1h-1z"/><path fill="#D3D4D3" d="M52 27h1v1h-1zM53 27h1v1h-1z"/><path fill="#D6D7D6" d="M54 27h1v1h-1z"/><path fill="#F7F7F7" d="M55 27h1v1h-1z"/><path fill="#FFF" d="M56 27h1v1h-1zM57 27h1v1h-1z"/><path fill="#F7F7F7" d="M58 27h1v1h-1z"/><path fill="#D6D7D6" d="M59 27h1v1h-1z"/><path fill="#D3D4D3" d="M60 27h1v1h-1zM61 27h1v1h-1zM62 27h1v1h-1z"/><path fill="#CCCDCC" d="M63 27h1v1h-1z"/><path fill="#737774" d="M64 27h1v1h-1z"/><path fill="#5D615E" d="M65 27h1v1h-1zM66 27h1v1h-1zM67 27h1v1h-1zM68 27h1v1h-1zM69 27h1v1h-1zM70 27h1v1h-1z"/><path fill="#A7A9A7" d="M71 27h1v1h-1z"/><path fill="#D3D4D3" d="M72 27h1v1h-1z"/><path fill="#918E8C" d="M73 27h1v1h-1z"/><path fill="#231815" d="M74 27h1v1h-1zM75 27h1v1h-1zM76 27h1v1h-1zM77 27h1v1h-1zM78 27h1v1h-1zM79 27h1v1h-1zM45 28h1v1h-1zM46 28h1v1h-1zM47 28h1v1h-1zM48 28h1v1h-1zM49 28h1v1h-1z"/><path fill="#655F5C" d="M50 28h1v1h-1z"/><path fill="#D3D4D3" d="M51 28h1v1h-1zM52 28h1v1h-1z"/><path fill="#D6D7D6" d="M53 28h1v1h-1z"/><path fill="#F7F7F7" d="M54 28h1v1h-1z"/><path fill="#FFF" d="M55 28h1v1h-1zM56 28h1v1h-1z"/><path fill="#F7F7F7" d="M57 28h1v1h-1z"/><path fill="#D6D7D6" d="M58 28h1v1h-1z"/><path fill="#D3D4D3" d="M59 28h1v1h-1zM60 28h1v1h-1zM61 28h1v1h-1z"/><path fill="#CCCDCC" d="M62 28h1v1h-1z"/><path fill="#737774" d="M63 28h1v1h-1z"/><path fill="#5D615E" d="M64 28h1v1h-1zM65 28h1v1h-1zM66 28h1v1h-1zM67 28h1v1h-1zM68 28h1v1h-1zM69 28h1v1h-1z"/><path fill="#A7A9A7" d="M70 28h1v1h-1z"/><path fill="#D3D4D3" d="M71 28h1v1h-1z"/><path fill="#918E8C" d="M72 28h1v1h-1z"/><path fill="#231815" d="M73 28h1v1h-1zM74 28h1v1h-1zM75 28h1v1h-1zM76 28h1v1h-1zM77 28h1v1h-1zM78 28h1v1h-1zM44 29h1v1h-1zM45 29h1v1h-1zM46 29h1v1h-1zM47 29h1v1h-1zM48 29h1v1h-1z"/><path fill="#655F5C" d="M49 29h1v1h-1z"/><path fill="#D3D4D3" d="M50 29h1v1h-1zM51 29h1v1h-1z"/><path fill="#D6D7D6" d="M52 29h1v1h-1z"/><path fill="#F7F7F7" d="M53 29h1v1h-1z"/><path fill="#FFF" d="M54 29h1v1h-1zM55 29h1v1h-1z"/><path fill="#F7F7F7" d="M56 29h1v1h-1z"/><path fill="#D6D7D6" d="M57 29h1v1h-1z"/><path fill="#D3D4D3" d="M58 29h1v1h-1zM59 29h1v1h-1zM60 29h1v1h-1z"/><path fill="#CCCDCC" d="M61 29h1v1h-1z"/><path fill="#737774" d="M62 29h1v1h-1z"/><path fill="#5D615E" d="M63 29h1v1h-1zM64 29h1v1h-1zM65 29h1v1h-1zM66 29h1v1h-1zM67 29h1v1h-1zM68 29h1v1h-1z"/><path fill="#A7A9A7" d="M69 29h1v1h-1z"/><path fill="#D3D4D3" d="M70 29h1v1h-1z"/><path fill="#918E8C" d="M71 29h1v1h-1z"/><path fill="#231815" d="M72 29h1v1h-1zM73 29h1v1h-1zM74 29h1v1h-1zM75 29h1v1h-1zM76 29h1v1h-1zM77 29h1v1h-1zM43 30h1v1h-1zM44 30h1v1h-1zM45 30h1v1h-1zM46 30h1v1h-1zM47 30h1v1h-1z"/><path fill="#655F5C" d="M48 30h1v1h-1z"/><path fill="#D3D4D3" d="M49 30h1v1h-1zM50 30h1v1h-1z"/><path fill="#D6D7D6" d="M51 30h1v1h-1z"/><path fill="#F7F7F7" d="M52 30h1v1h-1z"/><path fill="#FFF" d="M53 30h1v1h-1zM54 30h1v1h-1z"/><path fill="#F7F7F7" d="M55 30h1v1h-1z"/><path fill="#D6D7D6" d="M56 30h1v1h-1z"/><path fill="#D3D4D3" d="M57 30h1v1h-1zM58 30h1v1h-1zM59 30h1v1h-1z"/><path fill="#CCCDCC" d="M60 30h1v1h-1z"/><path fill="#737774" d="M61 30h1v1h-1z"/><path fill="#5D615E" d="M62 30h1v1h-1zM63 30h1v1h-1zM64 30h1v1h-1zM65 30h1v1h-1zM66 30h1v1h-1zM67 30h1v1h-1z"/><path fill="#A7A9A7" d="M68 30h1v1h-1z"/><path fill="#D3D4D3" d="M69 30h1v1h-1z"/><path fill="#918E8C" d="M70 30h1v1h-1z"/><path fill="#231815" d="M71 30h1v1h-1zM72 30h1v1h-1zM73 30h1v1h-1zM74 30h1v1h-1zM75 30h1v1h-1zM76 30h1v1h-1zM42 31h1v1h-1zM43 31h1v1h-1zM44 31h1v1h-1zM45 31h1v1h-1zM46 31h1v1h-1z"/><path fill="#655F5C" d="M47 31h1v1h-1z"/><path fill="#D3D4D3" d="M48 31h1v1h-1zM49 31h1v1h-1z"/><path fill="#D6D7D6" d="M50 31h1v1h-1z"/><path fill="#F7F7F7" d="M51 31h1v1h-1z"/><path fill="#FFF" d="M52 31h1v1h-1zM53 31h1v1h-1z"/><path fill="#F7F7F7" d="M54 31h1v1h-1z"/><path fill="#D6D7D6" d="M55 31h1v1h-1z"/><path fill="#D3D4D3" d="M56 31h1v1h-1zM57 31h1v1h-1zM58 31h1v1h-1z"/><path fill="#CCCDCC" d="M59 31h1v1h-1z"/><path fill="#737774" d="M60 31h1v1h-1z"/><path fill="#5D615E" d="M61 31h1v1h-1zM62 31h1v1h-1zM63 31h1v1h-1zM64 31h1v1h-1zM65 31h1v1h-1zM66 31h1v1h-1z"/><path fill="#A7A9A7" d="M67 31h1v1h-1z"/><path fill="#D3D4D3" d="M68 31h1v1h-1z"/><path fill="#918E8C" d="M69 31h1v1h-1z"/><path fill="#231815" d="M70 31h1v1h-1zM71 31h1v1h-1zM72 31h1v1h-1zM73 31h1v1h-1zM74 31h1v1h-1zM75 31h1v1h-1zM41 32h1v1h-1zM42 32h1v1h-1zM43 32h1v1h-1zM44 32h1v1h-1zM45 32h1v1h-1z"/><path fill="#655F5C" d="M46 32h1v1h-1z"/><path fill="#D3D4D3" d="M47 32h1v1h-1zM48 32h1v1h-1z"/><path fill="#D6D7D6" d="M49 32h1v1h-1z"/><path fill="#F7F7F7" d="M50 32h1v1h-1z"/><path fill="#FFF" d="M51 32h1v1h-1zM52 32h1v1h-1z"/><path fill="#F7F7F7" d="M53 32h1v1h-1z"/><path fill="#D6D7D6" d="M54 32h1v1h-1z"/><path fill="#D3D4D3" d="M55 32h1v1h-1zM56 32h1v1h-1zM57 32h1v1h-1z"/><path fill="#CCCDCC" d="M58 32h1v1h-1z"/><path fill="#737774" d="M59 32h1v1h-1z"/><path fill="#5D615E" d="M60 32h1v1h-1zM61 32h1v1h-1zM62 32h1v1h-1zM63 32h1v1h-1zM64 32h1v1h-1zM65 32h1v1h-1z"/><path fill="#A7A9A7" d="M66 32h1v1h-1z"/><path fill="#D3D4D3" d="M67 32h1v1h-1z"/><path fill="#918E8C" d="M68 32h1v1h-1z"/><path fill="#231815" d="M69 32h1v1h-1zM70 32h1v1h-1zM71 32h1v1h-1zM72 32h1v1h-1zM73 32h1v1h-1zM74 32h1v1h-1zM11 33h1v1h-1zM12 33h1v1h-1zM13 33h1v1h-1zM14 33h1v1h-1zM40 33h1v1h-1zM41 33h1v1h-1zM42 33h1v1h-1zM43 33h1v1h-1zM44 33h1v1h-1z"/><path fill="#655F5C" d="M45 33h1v1h-1z"/><path fill="#D3D4D3" d="M46 33h1v1h-1zM47 33h1v1h-1z"/><path fill="#D6D7D6" d="M48 33h1v1h-1z"/><path fill="#F7F7F7" d="M49 33h1v1h-1z"/><path fill="#FFF" d="M50 33h1v1h-1zM51 33h1v1h-1z"/><path fill="#F7F7F7" d="M52 33h1v1h-1z"/><path fill="#D6D7D6" d="M53 33h1v1h-1z"/><path fill="#D3D4D3" d="M54 33h1v1h-1zM55 33h1v1h-1zM56 33h1v1h-1z"/><path fill="#CCCDCC" d="M57 33h1v1h-1z"/><path fill="#737774" d="M58 33h1v1h-1z"/><path fill="#5D615E" d="M59 33h1v1h-1zM60 33h1v1h-1zM61 33h1v1h-1zM62 33h1v1h-1zM63 33h1v1h-1zM64 33h1v1h-1z"/><path fill="#A7A9A7" d="M65 33h1v1h-1z"/><path fill="#D3D4D3" d="M66 33h1v1h-1z"/><path fill="#918E8C" d="M67 33h1v1h-1z"/><path fill="#231815" d="M68 33h1v1h-1zM69 33h1v1h-1zM70 33h1v1h-1zM71 33h1v1h-1zM72 33h1v1h-1zM73 33h1v1h-1zM11 34h1v1h-1zM12 34h1v1h-1zM13 34h1v1h-1zM14 34h1v1h-1zM39 34h1v1h-1zM40 34h1v1h-1zM41 34h1v1h-1zM42 34h1v1h-1zM43 34h1v1h-1z"/><path fill="#655F5C" d="M44 34h1v1h-1z"/><path fill="#D3D4D3" d="M45 34h1v1h-1zM46 34h1v1h-1z"/><path fill="#D6D7D6" d="M47 34h1v1h-1z"/><path fill="#F7F7F7" d="M48 34h1v1h-1z"/><path fill="#FFF" d="M49 34h1v1h-1zM50 34h1v1h-1z"/><path fill="#F7F7F7" d="M51 34h1v1h-1z"/><path fill="#D6D7D6" d="M52 34h1v1h-1z"/><path fill="#D3D4D3" d="M53 34h1v1h-1zM54 34h1v1h-1zM55 34h1v1h-1z"/><path fill="#CCCDCC" d="M56 34h1v1h-1z"/><path fill="#737774" d="M57 34h1v1h-1z"/><path fill="#5D615E" d="M58 34h1v1h-1zM59 34h1v1h-1zM60 34h1v1h-1zM61 34h1v1h-1zM62 34h1v1h-1zM63 34h1v1h-1z"/><path fill="#A7A9A7" d="M64 34h1v1h-1z"/><path fill="#D3D4D3" d="M65 34h1v1h-1z"/><path fill="#918E8C" d="M66 34h1v1h-1z"/><path fill="#231815" d="M67 34h1v1h-1zM68 34h1v1h-1zM69 34h1v1h-1zM70 34h1v1h-1zM71 34h1v1h-1zM72 34h1v1h-1z"/><path fill="#935F8F" d="M10 35h1v1h-1z"/><path fill="#38252C" d="M11 35h1v1h-1z"/><path fill="#231815" d="M12 35h1v1h-1zM13 35h1v1h-1zM14 35h1v1h-1zM15 35h1v1h-1zM38 35h1v1h-1zM39 35h1v1h-1zM40 35h1v1h-1zM41 35h1v1h-1zM42 35h1v1h-1z"/><path fill="#655F5C" d="M43 35h1v1h-1z"/><path fill="#D3D4D3" d="M44 35h1v1h-1zM45 35h1v1h-1z"/><path fill="#D6D7D6" d="M46 35h1v1h-1z"/><path fill="#F7F7F7" d="M47 35h1v1h-1z"/><path fill="#FFF" d="M48 35h1v1h-1zM49 35h1v1h-1z"/><path fill="#F7F7F7" d="M50 35h1v1h-1z"/><path fill="#D6D7D6" d="M51 35h1v1h-1z"/><path fill="#D3D4D3" d="M52 35h1v1h-1zM53 35h1v1h-1zM54 35h1v1h-1z"/><path fill="#CCCDCC" d="M55 35h1v1h-1z"/><path fill="#737774" d="M56 35h1v1h-1z"/><path fill="#5D615E" d="M57 35h1v1h-1zM58 35h1v1h-1zM59 35h1v1h-1zM60 35h1v1h-1zM61 35h1v1h-1zM62 35h1v1h-1z"/><path fill="#A7A9A7" d="M63 35h1v1h-1z"/><path fill="#D3D4D3" d="M64 35h1v1h-1z"/><path fill="#918E8C" d="M65 35h1v1h-1z"/><path fill="#231815" d="M66 35h1v1h-1zM67 35h1v1h-1zM68 35h1v1h-1zM69 35h1v1h-1zM70 35h1v1h-1zM71 35h1v1h-1z"/><path fill="#935F8F" d="M10 36h1v1h-1z"/><path fill="#694461" d="M11 36h1v1h-1z"/><path fill="#231815" d="M12 36h1v1h-1zM13 36h1v1h-1zM14 36h1v1h-1zM15 36h1v1h-1zM37 36h1v1h-1zM38 36h1v1h-1zM39 36h1v1h-1zM40 36h1v1h-1zM41 36h1v1h-1z"/><path fill="#655F5C" d="M42 36h1v1h-1z"/><path fill="#D3D4D3" d="M43 36h1v1h-1zM44 36h1v1h-1z"/><path fill="#D6D7D6" d="M45 36h1v1h-1z"/><path fill="#F7F7F7" d="M46 36h1v1h-1z"/><path fill="#FFF" d="M47 36h1v1h-1zM48 36h1v1h-1z"/><path fill="#F7F7F7" d="M49 36h1v1h-1z"/><path fill="#D6D7D6" d="M50 36h1v1h-1z"/><path fill="#D3D4D3" d="M51 36h1v1h-1zM52 36h1v1h-1zM53 36h1v1h-1z"/><path fill="#CCCDCC" d="M54 36h1v1h-1z"/><path fill="#737774" d="M55 36h1v1h-1z"/><path fill="#5D615E" d="M56 36h1v1h-1zM57 36h1v1h-1zM58 36h1v1h-1zM59 36h1v1h-1zM60 36h1v1h-1zM61 36h1v1h-1z"/><path fill="#A7A9A7" d="M62 36h1v1h-1z"/><path fill="#D3D4D3" d="M63 36h1v1h-1z"/><path fill="#B2B1AF" d="M64 36h1v1h-1z"/><path fill="#2E2421" d="M65 36h1v1h-1z"/><path fill="#231815" d="M66 36h1v1h-1zM67 36h1v1h-1zM68 36h1v1h-1zM69 36h1v1h-1zM70 36h1v1h-1z"/><path fill="#935F8F" d="M10 37h1v1h-1z"/><path fill="#8C5B87" d="M11 37h1v1h-1z"/><path fill="#231815" d="M12 37h1v1h-1zM13 37h1v1h-1zM14 37h1v1h-1zM15 37h1v1h-1zM36 37h1v1h-1zM37 37h1v1h-1zM38 37h1v1h-1zM39 37h1v1h-1zM40 37h1v1h-1z"/><path fill="#868280" d="M41 37h1v1h-1z"/><path fill="#D3D4D3" d="M42 37h1v1h-1zM43 37h1v1h-1z"/><path fill="#D6D7D6" d="M44 37h1v1h-1z"/><path fill="#F7F7F7" d="M45 37h1v1h-1z"/><path fill="#FFF" d="M46 37h1v1h-1zM47 37h1v1h-1z"/><path fill="#F7F7F7" d="M48 37h1v1h-1z"/><path fill="#D6D7D6" d="M49 37h1v1h-1z"/><path fill="#D3D4D3" d="M50 37h1v1h-1zM51 37h1v1h-1zM52 37h1v1h-1z"/><path fill="#CCCDCC" d="M53 37h1v1h-1z"/><path fill="#737774" d="M54 37h1v1h-1z"/><path fill="#5D615E" d="M55 37h1v1h-1zM56 37h1v1h-1zM57 37h1v1h-1zM58 37h1v1h-1zM59 37h1v1h-1zM60 37h1v1h-1z"/><path fill="#A7A9A7" d="M61 37h1v1h-1z"/><path fill="#D3D4D3" d="M62 37h1v1h-1z"/><path fill="#B2B1AF" d="M63 37h1v1h-1z"/><path fill="#2E2421" d="M64 37h1v1h-1z"/><path fill="#231815" d="M65 37h1v1h-1zM66 37h1v1h-1zM67 37h1v1h-1zM68 37h1v1h-1zM69 37h1v1h-1z"/><path fill="#935F8F" d="M10 38h1v1h-1zM11 38h1v1h-1z"/><path fill="#462E3B" d="M12 38h1v1h-1z"/><path fill="#231815" d="M13 38h1v1h-1zM14 38h1v1h-1zM15 38h1v1h-1zM16 38h1v1h-1zM35 38h1v1h-1zM36 38h1v1h-1zM37 38h1v1h-1zM38 38h1v1h-1zM39 38h1v1h-1z"/><path fill="#918E8C" d="M40 38h1v1h-1z"/><path fill="#D3D4D3" d="M41 38h1v1h-1zM42 38h1v1h-1z"/><path fill="#D6D7D6" d="M43 38h1v1h-1z"/><path fill="#F7F7F7" d="M44 38h1v1h-1z"/><path fill="#FFF" d="M45 38h1v1h-1zM46 38h1v1h-1z"/><path fill="#F7F7F7" d="M47 38h1v1h-1z"/><path fill="#D6D7D6" d="M48 38h1v1h-1z"/><path fill="#D3D4D3" d="M49 38h1v1h-1zM50 38h1v1h-1zM51 38h1v1h-1z"/><path fill="#CCCDCC" d="M52 38h1v1h-1z"/><path fill="#737774" d="M53 38h1v1h-1z"/><path fill="#5D615E" d="M54 38h1v1h-1zM55 38h1v1h-1zM56 38h1v1h-1zM57 38h1v1h-1zM58 38h1v1h-1zM59 38h1v1h-1z"/><path fill="#A7A9A7" d="M60 38h1v1h-1z"/><path fill="#D3D4D3" d="M61 38h1v1h-1z"/><path fill="#B2B1AF" d="M62 38h1v1h-1z"/><path fill="#2E2421" d="M63 38h1v1h-1z"/><path fill="#231815" d="M64 38h1v1h-1zM65 38h1v1h-1zM66 38h1v1h-1zM67 38h1v1h-1zM68 38h1v1h-1z"/><path fill="#935F8F" d="M10 39h1v1h-1zM11 39h1v1h-1z"/><path fill="#704969" d="M12 39h1v1h-1z"/><path fill="#231815" d="M13 39h1v1h-1zM14 39h1v1h-1zM15 39h1v1h-1zM16 39h1v1h-1zM34 39h1v1h-1zM35 39h1v1h-1zM36 39h1v1h-1zM37 39h1v1h-1zM38 39h1v1h-1z"/><path fill="#918E8C" d="M39 39h1v1h-1z"/><path fill="#D3D4D3" d="M40 39h1v1h-1zM41 39h1v1h-1z"/><path fill="#D6D7D6" d="M42 39h1v1h-1z"/><path fill="#F7F7F7" d="M43 39h1v1h-1z"/><path fill="#FFF" d="M44 39h1v1h-1zM45 39h1v1h-1z"/><path fill="#F7F7F7" d="M46 39h1v1h-1z"/><path fill="#D6D7D6" d="M47 39h1v1h-1z"/><path fill="#D3D4D3" d="M48 39h1v1h-1zM49 39h1v1h-1zM50 39h1v1h-1z"/><path fill="#CCCDCC" d="M51 39h1v1h-1z"/><path fill="#737774" d="M52 39h1v1h-1z"/><path fill="#5D615E" d="M53 39h1v1h-1zM54 39h1v1h-1zM55 39h1v1h-1zM56 39h1v1h-1zM57 39h1v1h-1zM58 39h1v1h-1z"/><path fill="#A7A9A7" d="M59 39h1v1h-1z"/><path fill="#D3D4D3" d="M60 39h1v1h-1z"/><path fill="#B2B1AF" d="M61 39h1v1h-1z"/><path fill="#2E2421" d="M62 39h1v1h-1z"/><path fill="#231815" d="M63 39h1v1h-1zM64 39h1v1h-1zM65 39h1v1h-1zM66 39h1v1h-1zM67 39h1v1h-1z"/><path fill="#935F8F" d="M9 40h1v1H9zM10 40h1v1h-1zM11 40h1v1h-1zM12 40h1v1h-1z"/><path fill="#2A1C1D" d="M13 40h1v1h-1z"/><path fill="#231815" d="M14 40h1v1h-1zM15 40h1v1h-1zM16 40h1v1h-1zM33 40h1v1h-1zM34 40h1v1h-1zM35 40h1v1h-1zM36 40h1v1h-1zM37 40h1v1h-1z"/><path fill="#918E8C" d="M38 40h1v1h-1z"/><path fill="#D3D4D3" d="M39 40h1v1h-1zM40 40h1v1h-1z"/><path fill="#D6D7D6" d="M41 40h1v1h-1z"/><path fill="#F7F7F7" d="M42 40h1v1h-1z"/><path fill="#FFF" d="M43 40h1v1h-1zM44 40h1v1h-1z"/><path fill="#F7F7F7" d="M45 40h1v1h-1z"/><path fill="#D6D7D6" d="M46 40h1v1h-1z"/><path fill="#D3D4D3" d="M47 40h1v1h-1zM48 40h1v1h-1zM49 40h1v1h-1z"/><path fill="#CCCDCC" d="M50 40h1v1h-1z"/><path fill="#737774" d="M51 40h1v1h-1z"/><path fill="#5D615E" d="M52 40h1v1h-1zM53 40h1v1h-1zM54 40h1v1h-1zM55 40h1v1h-1zM56 40h1v1h-1zM57 40h1v1h-1z"/><path fill="#A7A9A7" d="M58 40h1v1h-1z"/><path fill="#D3D4D3" d="M59 40h1v1h-1z"/><path fill="#B2B1AF" d="M60 40h1v1h-1z"/><path fill="#2E2421" d="M61 40h1v1h-1z"/><path fill="#231815" d="M62 40h1v1h-1zM63 40h1v1h-1zM64 40h1v1h-1zM65 40h1v1h-1zM66 40h1v1h-1z"/><path fill="#935F8F" d="M9 41h1v1H9zM10 41h1v1h-1zM11 41h1v1h-1zM12 41h1v1h-1z"/><path fill="#664F5C" d="M13 41h1v1h-1z"/><path fill="#231815" d="M14 41h1v1h-1zM15 41h1v1h-1zM16 41h1v1h-1zM17 41h1v1h-1zM32 41h1v1h-1zM33 41h1v1h-1zM34 41h1v1h-1zM35 41h1v1h-1zM36 41h1v1h-1z"/><path fill="#918E8C" d="M37 41h1v1h-1z"/><path fill="#D3D4D3" d="M38 41h1v1h-1zM39 41h1v1h-1z"/><path fill="#D6D7D6" d="M40 41h1v1h-1z"/><path fill="#F7F7F7" d="M41 41h1v1h-1z"/><path fill="#FFF" d="M42 41h1v1h-1zM43 41h1v1h-1z"/><path fill="#F7F7F7" d="M44 41h1v1h-1z"/><path fill="#D6D7D6" d="M45 41h1v1h-1z"/><path fill="#D3D4D3" d="M46 41h1v1h-1zM47 41h1v1h-1zM48 41h1v1h-1z"/><path fill="#CCCDCC" d="M49 41h1v1h-1z"/><path fill="#737774" d="M50 41h1v1h-1z"/><path fill="#5D615E" d="M51 41h1v1h-1zM52 41h1v1h-1zM53 41h1v1h-1zM54 41h1v1h-1zM55 41h1v1h-1zM56 41h1v1h-1z"/><path fill="#A7A9A7" d="M57 41h1v1h-1z"/><path fill="#D3D4D3" d="M58 41h1v1h-1z"/><path fill="#B2B1AF" d="M59 41h1v1h-1z"/><path fill="#2E2421" d="M60 41h1v1h-1z"/><path fill="#231815" d="M61 41h1v1h-1zM62 41h1v1h-1zM63 41h1v1h-1zM64 41h1v1h-1zM65 41h1v1h-1z"/><path fill="#935F8F" d="M9 42h1v1H9zM10 42h1v1h-1zM11 42h1v1h-1zM12 42h1v1h-1z"/><path fill="#C5B3BF" d="M13 42h1v1h-1z"/><path fill="#231815" d="M14 42h1v1h-1zM15 42h1v1h-1zM16 42h1v1h-1zM17 42h1v1h-1zM31 42h1v1h-1zM32 42h1v1h-1zM33 42h1v1h-1zM34 42h1v1h-1zM35 42h1v1h-1z"/><path fill="#918E8C" d="M36 42h1v1h-1z"/><path fill="#D3D4D3" d="M37 42h1v1h-1zM38 42h1v1h-1z"/><path fill="#D6D7D6" d="M39 42h1v1h-1z"/><path fill="#F7F7F7" d="M40 42h1v1h-1z"/><path fill="#FFF" d="M41 42h1v1h-1zM42 42h1v1h-1z"/><path fill="#F7F7F7" d="M43 42h1v1h-1z"/><path fill="#D6D7D6" d="M44 42h1v1h-1z"/><path fill="#D3D4D3" d="M45 42h1v1h-1zM46 42h1v1h-1zM47 42h1v1h-1z"/><path fill="#CCCDCC" d="M48 42h1v1h-1z"/><path fill="#737774" d="M49 42h1v1h-1z"/><path fill="#5D615E" d="M50 42h1v1h-1zM51 42h1v1h-1zM52 42h1v1h-1zM53 42h1v1h-1zM54 42h1v1h-1zM55 42h1v1h-1z"/><path fill="#A7A9A7" d="M56 42h1v1h-1z"/><path fill="#D3D4D3" d="M57 42h1v1h-1z"/><path fill="#B2B1AF" d="M58 42h1v1h-1z"/><path fill="#2E2421" d="M59 42h1v1h-1z"/><path fill="#231815" d="M60 42h1v1h-1zM61 42h1v1h-1zM62 42h1v1h-1zM63 42h1v1h-1zM64 42h1v1h-1z"/><path fill="#935F8F" d="M9 43h1v1H9zM10 43h1v1h-1zM11 43h1v1h-1z"/><path fill="#A577A1" d="M12 43h1v1h-1z"/><path fill="#F1E1EE" d="M13 43h1v1h-1z"/><path fill="#4A3E3E" d="M14 43h1v1h-1z"/><path fill="#231815" d="M15 43h1v1h-1zM16 43h1v1h-1zM17 43h1v1h-1zM30 43h1v1h-1zM31 43h1v1h-1zM32 43h1v1h-1zM33 43h1v1h-1zM34 43h1v1h-1z"/><path fill="#918E8C" d="M35 43h1v1h-1z"/><path fill="#D3D4D3" d="M36 43h1v1h-1zM37 43h1v1h-1z"/><path fill="#D6D7D6" d="M38 43h1v1h-1z"/><path fill="#F7F7F7" d="M39 43h1v1h-1z"/><path fill="#FFF" d="M40 43h1v1h-1zM41 43h1v1h-1z"/><path fill="#F7F7F7" d="M42 43h1v1h-1z"/><path fill="#D6D7D6" d="M43 43h1v1h-1z"/><path fill="#D3D4D3" d="M44 43h1v1h-1zM45 43h1v1h-1zM46 43h1v1h-1z"/><path fill="#CCCDCC" d="M47 43h1v1h-1z"/><path fill="#737774" d="M48 43h1v1h-1z"/><path fill="#5D615E" d="M49 43h1v1h-1zM50 43h1v1h-1zM51 43h1v1h-1zM52 43h1v1h-1zM53 43h1v1h-1zM54 43h1v1h-1z"/><path fill="#A7A9A7" d="M55 43h1v1h-1z"/><path fill="#D3D4D3" d="M56 43h1v1h-1z"/><path fill="#B2B1AF" d="M57 43h1v1h-1z"/><path fill="#2E2421" d="M58 43h1v1h-1z"/><path fill="#231815" d="M59 43h1v1h-1zM60 43h1v1h-1zM61 43h1v1h-1zM62 43h1v1h-1zM63 43h1v1h-1z"/><path fill="#935F8F" d="M9 44h1v1H9zM10 44h1v1h-1zM11 44h1v1h-1z"/><path fill="#B690B3" d="M12 44h1v1h-1z"/><path fill="#F1E1EE" d="M13 44h1v1h-1z"/><path fill="#97898F" d="M14 44h1v1h-1z"/><path fill="#231815" d="M15 44h1v1h-1zM16 44h1v1h-1zM17 44h1v1h-1zM18 44h1v1h-1zM29 44h1v1h-1zM30 44h1v1h-1zM31 44h1v1h-1zM32 44h1v1h-1zM33 44h1v1h-1z"/><path fill="#918E8C" d="M34 44h1v1h-1z"/><path fill="#D3D4D3" d="M35 44h1v1h-1zM36 44h1v1h-1z"/><path fill="#D6D7D6" d="M37 44h1v1h-1z"/><path fill="#F7F7F7" d="M38 44h1v1h-1z"/><path fill="#FFF" d="M39 44h1v1h-1zM40 44h1v1h-1z"/><path fill="#F7F7F7" d="M41 44h1v1h-1z"/><path fill="#D6D7D6" d="M42 44h1v1h-1z"/><path fill="#D3D4D3" d="M43 44h1v1h-1zM44 44h1v1h-1zM45 44h1v1h-1z"/><path fill="#CCCDCC" d="M46 44h1v1h-1z"/><path fill="#737774" d="M47 44h1v1h-1z"/><path fill="#5D615E" d="M48 44h1v1h-1zM49 44h1v1h-1zM50 44h1v1h-1zM51 44h1v1h-1zM52 44h1v1h-1zM53 44h1v1h-1z"/><path fill="#A7A9A7" d="M54 44h1v1h-1z"/><path fill="#D3D4D3" d="M55 44h1v1h-1z"/><path fill="#B2B1AF" d="M56 44h1v1h-1z"/><path fill="#2E2421" d="M57 44h1v1h-1z"/><path fill="#231815" d="M58 44h1v1h-1zM59 44h1v1h-1zM60 44h1v1h-1zM61 44h1v1h-1zM62 44h1v1h-1z"/><path fill="#935F8F" d="M8 45h1v1H8zM9 45h1v1H9zM10 45h1v1h-1zM11 45h1v1h-1z"/><path fill="#C8A8C4" d="M12 45h1v1h-1z"/><path fill="#F1E1EE" d="M13 45h1v1h-1z"/><path fill="#D7C8D3" d="M14 45h1v1h-1z"/><path fill="#231815" d="M15 45h1v1h-1zM16 45h1v1h-1zM17 45h1v1h-1zM18 45h1v1h-1zM27 45h1v1h-1zM28 45h1v1h-1zM29 45h1v1h-1zM30 45h1v1h-1zM31 45h1v1h-1zM32 45h1v1h-1z"/><path fill="#918E8C" d="M33 45h1v1h-1z"/><path fill="#D3D4D3" d="M34 45h1v1h-1zM35 45h1v1h-1z"/><path fill="#D6D7D6" d="M36 45h1v1h-1z"/><path fill="#F7F7F7" d="M37 45h1v1h-1z"/><path fill="#FFF" d="M38 45h1v1h-1zM39 45h1v1h-1z"/><path fill="#F7F7F7" d="M40 45h1v1h-1z"/><path fill="#D6D7D6" d="M41 45h1v1h-1z"/><path fill="#D3D4D3" d="M42 45h1v1h-1zM43 45h1v1h-1zM44 45h1v1h-1z"/><path fill="#CCCDCC" d="M45 45h1v1h-1z"/><path fill="#737774" d="M46 45h1v1h-1z"/><path fill="#5D615E" d="M47 45h1v1h-1zM48 45h1v1h-1zM49 45h1v1h-1zM50 45h1v1h-1zM51 45h1v1h-1zM52 45h1v1h-1z"/><path fill="#A7A9A7" d="M53 45h1v1h-1z"/><path fill="#D3D4D3" d="M54 45h1v1h-1z"/><path fill="#B2B1AF" d="M55 45h1v1h-1z"/><path fill="#2E2421" d="M56 45h1v1h-1z"/><path fill="#231815" d="M57 45h1v1h-1zM58 45h1v1h-1zM59 45h1v1h-1zM60 45h1v1h-1zM61 45h1v1h-1z"/><path fill="#935F8F" d="M8 46h1v1H8zM9 46h1v1H9zM10 46h1v1h-1zM11 46h1v1h-1z"/><path fill="#DAC1D6" d="M12 46h1v1h-1z"/><path fill="#F1E1EE" d="M13 46h1v1h-1zM14 46h1v1h-1z"/><path fill="#635759" d="M15 46h1v1h-1z"/><path fill="#231815" d="M16 46h1v1h-1zM17 46h1v1h-1zM18 46h1v1h-1zM19 46h1v1h-1zM26 46h1v1h-1zM27 46h1v1h-1zM28 46h1v1h-1zM29 46h1v1h-1zM30 46h1v1h-1zM31 46h1v1h-1z"/><path fill="#918E8C" d="M32 46h1v1h-1z"/><path fill="#D3D4D3" d="M33 46h1v1h-1zM34 46h1v1h-1z"/><path fill="#D6D7D6" d="M35 46h1v1h-1z"/><path fill="#F7F7F7" d="M36 46h1v1h-1z"/><path fill="#FFF" d="M37 46h1v1h-1zM38 46h1v1h-1z"/><path fill="#F7F7F7" d="M39 46h1v1h-1z"/><path fill="#D6D7D6" d="M40 46h1v1h-1z"/><path fill="#D3D4D3" d="M41 46h1v1h-1zM42 46h1v1h-1zM43 46h1v1h-1z"/><path fill="#CCCDCC" d="M44 46h1v1h-1z"/><path fill="#737774" d="M45 46h1v1h-1z"/><path fill="#5D615E" d="M46 46h1v1h-1zM47 46h1v1h-1zM48 46h1v1h-1zM49 46h1v1h-1zM50 46h1v1h-1zM51 46h1v1h-1z"/><path fill="#A7A9A7" d="M52 46h1v1h-1z"/><path fill="#D3D4D3" d="M53 46h1v1h-1z"/><path fill="#B2B1AF" d="M54 46h1v1h-1z"/><path fill="#2E2421" d="M55 46h1v1h-1z"/><path fill="#231815" d="M56 46h1v1h-1zM57 46h1v1h-1zM58 46h1v1h-1zM59 46h1v1h-1zM60 46h1v1h-1z"/><path fill="#935F8F" d="M8 47h1v1H8zM9 47h1v1H9zM10 47h1v1h-1zM11 47h1v1h-1z"/><path fill="#F1E1EE" d="M12 47h1v1h-1zM13 47h1v1h-1zM14 47h1v1h-1z"/><path fill="#A4969D" d="M15 47h1v1h-1z"/><path fill="#231815" d="M16 47h1v1h-1zM17 47h1v1h-1zM18 47h1v1h-1zM19 47h1v1h-1zM25 47h1v1h-1zM26 47h1v1h-1zM27 47h1v1h-1zM28 47h1v1h-1zM29 47h1v1h-1zM30 47h1v1h-1z"/><path fill="#918E8C" d="M31 47h1v1h-1z"/><path fill="#D3D4D3" d="M32 47h1v1h-1zM33 47h1v1h-1z"/><path fill="#D6D7D6" d="M34 47h1v1h-1z"/><path fill="#F7F7F7" d="M35 47h1v1h-1z"/><path fill="#FFF" d="M36 47h1v1h-1zM37 47h1v1h-1z"/><path fill="#F7F7F7" d="M38 47h1v1h-1z"/><path fill="#D6D7D6" d="M39 47h1v1h-1z"/><path fill="#D3D4D3" d="M40 47h1v1h-1zM41 47h1v1h-1zM42 47h1v1h-1z"/><path fill="#CCCDCC" d="M43 47h1v1h-1z"/><path fill="#737774" d="M44 47h1v1h-1z"/><path fill="#5D615E" d="M45 47h1v1h-1zM46 47h1v1h-1zM47 47h1v1h-1zM48 47h1v1h-1zM49 47h1v1h-1zM50 47h1v1h-1z"/><path fill="#A7A9A7" d="M51 47h1v1h-1z"/><path fill="#D3D4D3" d="M52 47h1v1h-1z"/><path fill="#B2B1AF" d="M53 47h1v1h-1z"/><path fill="#2E2421" d="M54 47h1v1h-1z"/><path fill="#231815" d="M55 47h1v1h-1zM56 47h1v1h-1zM57 47h1v1h-1zM58 47h1v1h-1zM59 47h1v1h-1z"/><path fill="#935F8F" d="M8 48h1v1H8zM9 48h1v1H9zM10 48h1v1h-1z"/><path fill="#A577A1" d="M11 48h1v1h-1z"/><path fill="#F1E1EE" d="M12 48h1v1h-1zM13 48h1v1h-1zM14 48h1v1h-1zM15 48h1v1h-1z"/><path fill="#302523" d="M16 48h1v1h-1z"/><path fill="#231815" d="M17 48h1v1h-1zM18 48h1v1h-1zM19 48h1v1h-1zM24 48h1v1h-1zM25 48h1v1h-1zM26 48h1v1h-1zM27 48h1v1h-1zM28 48h1v1h-1zM29 48h1v1h-1z"/><path fill="#918E8C" d="M30 48h1v1h-1z"/><path fill="#D3D4D3" d="M31 48h1v1h-1zM32 48h1v1h-1z"/><path fill="#D6D7D6" d="M33 48h1v1h-1z"/><path fill="#F7F7F7" d="M34 48h1v1h-1z"/><path fill="#FFF" d="M35 48h1v1h-1zM36 48h1v1h-1z"/><path fill="#F7F7F7" d="M37 48h1v1h-1z"/><path fill="#D6D7D6" d="M38 48h1v1h-1z"/><path fill="#D3D4D3" d="M39 48h1v1h-1zM40 48h1v1h-1zM41 48h1v1h-1z"/><path fill="#CCCDCC" d="M42 48h1v1h-1z"/><path fill="#737774" d="M43 48h1v1h-1z"/><path fill="#5D615E" d="M44 48h1v1h-1zM45 48h1v1h-1zM46 48h1v1h-1zM47 48h1v1h-1zM48 48h1v1h-1zM49 48h1v1h-1z"/><path fill="#A7A9A7" d="M50 48h1v1h-1z"/><path fill="#D3D4D3" d="M51 48h1v1h-1z"/><path fill="#B2B1AF" d="M52 48h1v1h-1z"/><path fill="#2E2421" d="M53 48h1v1h-1z"/><path fill="#231815" d="M54 48h1v1h-1zM55 48h1v1h-1zM56 48h1v1h-1zM57 48h1v1h-1zM58 48h1v1h-1z"/><path fill="#935F8F" d="M8 49h1v1H8zM9 49h1v1H9zM10 49h1v1h-1z"/><path fill="#B690B3" d="M11 49h1v1h-1z"/><path fill="#F1E1EE" d="M12 49h1v1h-1zM13 49h1v1h-1zM14 49h1v1h-1zM15 49h1v1h-1z"/><path fill="#706366" d="M16 49h1v1h-1z"/><path fill="#231815" d="M17 49h1v1h-1zM18 49h1v1h-1zM19 49h1v1h-1zM20 49h1v1h-1zM23 49h1v1h-1zM24 49h1v1h-1zM25 49h1v1h-1zM26 49h1v1h-1zM27 49h1v1h-1zM28 49h1v1h-1z"/><path fill="#918E8C" d="M29 49h1v1h-1z"/><path fill="#D3D4D3" d="M30 49h1v1h-1zM31 49h1v1h-1z"/><path fill="#D6D7D6" d="M32 49h1v1h-1z"/><path fill="#F7F7F7" d="M33 49h1v1h-1z"/><path fill="#FFF" d="M34 49h1v1h-1zM35 49h1v1h-1z"/><path fill="#F7F7F7" d="M36 49h1v1h-1z"/><path fill="#D6D7D6" d="M37 49h1v1h-1z"/><path fill="#D3D4D3" d="M38 49h1v1h-1zM39 49h1v1h-1zM40 49h1v1h-1z"/><path fill="#CCCDCC" d="M41 49h1v1h-1z"/><path fill="#737774" d="M42 49h1v1h-1z"/><path fill="#5D615E" d="M43 49h1v1h-1zM44 49h1v1h-1zM45 49h1v1h-1zM46 49h1v1h-1zM47 49h1v1h-1zM48 49h1v1h-1z"/><path fill="#A7A9A7" d="M49 49h1v1h-1z"/><path fill="#D3D4D3" d="M50 49h1v1h-1z"/><path fill="#B2B1AF" d="M51 49h1v1h-1z"/><path fill="#2E2421" d="M52 49h1v1h-1z"/><path fill="#231815" d="M53 49h1v1h-1zM54 49h1v1h-1zM55 49h1v1h-1zM56 49h1v1h-1zM57 49h1v1h-1z"/><path fill="#935F8F" d="M7 50h1v1H7zM8 50h1v1H8zM9 50h1v1H9zM10 50h1v1h-1z"/><path fill="#C8A8C4" d="M11 50h1v1h-1z"/><path fill="#F1E1EE" d="M12 50h1v1h-1zM13 50h1v1h-1zM14 50h1v1h-1zM15 50h1v1h-1z"/><path fill="#CABBC5" d="M16 50h1v1h-1z"/><path fill="#231815" d="M17 50h1v1h-1zM18 50h1v1h-1zM19 50h1v1h-1zM20 50h1v1h-1zM22 50h1v1h-1zM23 50h1v1h-1zM24 50h1v1h-1zM25 50h1v1h-1zM26 50h1v1h-1zM27 50h1v1h-1z"/><path fill="#918E8C" d="M28 50h1v1h-1z"/><path fill="#D3D4D3" d="M29 50h1v1h-1zM30 50h1v1h-1z"/><path fill="#D6D7D6" d="M31 50h1v1h-1z"/><path fill="#F7F7F7" d="M32 50h1v1h-1z"/><path fill="#FFF" d="M33 50h1v1h-1zM34 50h1v1h-1z"/><path fill="#F7F7F7" d="M35 50h1v1h-1z"/><path fill="#D6D7D6" d="M36 50h1v1h-1z"/><path fill="#D3D4D3" d="M37 50h1v1h-1zM38 50h1v1h-1zM39 50h1v1h-1z"/><path fill="#CCCDCC" d="M40 50h1v1h-1z"/><path fill="#737774" d="M41 50h1v1h-1z"/><path fill="#5D615E" d="M42 50h1v1h-1zM43 50h1v1h-1zM44 50h1v1h-1zM45 50h1v1h-1zM46 50h1v1h-1zM47 50h1v1h-1z"/><path fill="#A7A9A7" d="M48 50h1v1h-1z"/><path fill="#D3D4D3" d="M49 50h1v1h-1z"/><path fill="#B2B1AF" d="M50 50h1v1h-1z"/><path fill="#2E2421" d="M51 50h1v1h-1z"/><path fill="#231815" d="M52 50h1v1h-1zM53 50h1v1h-1zM54 50h1v1h-1zM55 50h1v1h-1zM56 50h1v1h-1z"/><path fill="#935F8F" d="M7 51h1v1H7zM8 51h1v1H8zM9 51h1v1H9zM10 51h1v1h-1z"/><path fill="#DAC1D6" d="M11 51h1v1h-1z"/><path fill="#F1E1EE" d="M12 51h1v1h-1zM13 51h1v1h-1zM14 51h1v1h-1zM15 51h1v1h-1zM16 51h1v1h-1z"/><path fill="#3D3130" d="M17 51h1v1h-1z"/><path fill="#231815" d="M18 51h1v1h-1zM19 51h1v1h-1zM20 51h1v1h-1zM21 51h1v1h-1zM22 51h1v1h-1zM23 51h1v1h-1zM24 51h1v1h-1zM25 51h1v1h-1zM26 51h1v1h-1z"/><path fill="#918E8C" d="M27 51h1v1h-1z"/><path fill="#D3D4D3" d="M28 51h1v1h-1zM29 51h1v1h-1z"/><path fill="#D6D7D6" d="M30 51h1v1h-1z"/><path fill="#F7F7F7" d="M31 51h1v1h-1z"/><path fill="#FFF" d="M32 51h1v1h-1zM33 51h1v1h-1z"/><path fill="#F7F7F7" d="M34 51h1v1h-1z"/><path fill="#D6D7D6" d="M35 51h1v1h-1z"/><path fill="#D3D4D3" d="M36 51h1v1h-1zM37 51h1v1h-1zM38 51h1v1h-1z"/><path fill="#CCCDCC" d="M39 51h1v1h-1z"/><path fill="#737774" d="M40 51h1v1h-1z"/><path fill="#5D615E" d="M41 51h1v1h-1zM42 51h1v1h-1zM43 51h1v1h-1zM44 51h1v1h-1zM45 51h1v1h-1zM46 51h1v1h-1z"/><path fill="#A7A9A7" d="M47 51h1v1h-1z"/><path fill="#D3D4D3" d="M48 51h1v1h-1z"/><path fill="#B2B1AF" d="M49 51h1v1h-1z"/><path fill="#2E2421" d="M50 51h1v1h-1z"/><path fill="#231815" d="M51 51h1v1h-1zM52 51h1v1h-1zM53 51h1v1h-1zM54 51h1v1h-1zM55 51h1v1h-1z"/><path fill="#935F8F" d="M7 52h1v1H7zM8 52h1v1H8zM9 52h1v1H9zM10 52h1v1h-1z"/><path fill="#F1E1EE" d="M11 52h1v1h-1zM12 52h1v1h-1zM13 52h1v1h-1zM14 52h1v1h-1zM15 52h1v1h-1zM16 52h1v1h-1z"/><path fill="#836875" d="M17 52h1v1h-1z"/><path fill="#231815" d="M18 52h1v1h-1zM19 52h1v1h-1zM20 52h1v1h-1zM21 52h1v1h-1zM22 52h1v1h-1zM23 52h1v1h-1zM24 52h1v1h-1zM25 52h1v1h-1z"/><path fill="#918E8C" d="M26 52h1v1h-1z"/><path fill="#D3D4D3" d="M27 52h1v1h-1zM28 52h1v1h-1z"/><path fill="#D6D7D6" d="M29 52h1v1h-1z"/><path fill="#F7F7F7" d="M30 52h1v1h-1z"/><path fill="#FFF" d="M31 52h1v1h-1zM32 52h1v1h-1z"/><path fill="#F7F7F7" d="M33 52h1v1h-1z"/><path fill="#D6D7D6" d="M34 52h1v1h-1z"/><path fill="#D3D4D3" d="M35 52h1v1h-1zM36 52h1v1h-1zM37 52h1v1h-1z"/><path fill="#CCCDCC" d="M38 52h1v1h-1z"/><path fill="#737774" d="M39 52h1v1h-1z"/><path fill="#5D615E" d="M40 52h1v1h-1zM41 52h1v1h-1zM42 52h1v1h-1zM43 52h1v1h-1zM44 52h1v1h-1zM45 52h1v1h-1z"/><path fill="#A7A9A7" d="M46 52h1v1h-1z"/><path fill="#D3D4D3" d="M47 52h1v1h-1z"/><path fill="#B2B1AF" d="M48 52h1v1h-1z"/><path fill="#2E2421" d="M49 52h1v1h-1z"/><path fill="#231815" d="M50 52h1v1h-1zM51 52h1v1h-1zM52 52h1v1h-1zM53 52h1v1h-1zM54 52h1v1h-1z"/><path fill="#935F8F" d="M7 53h1v1H7zM8 53h1v1H8zM9 53h1v1H9z"/><path fill="#A577A1" d="M10 53h1v1h-1z"/><path fill="#F1E1EE" d="M11 53h1v1h-1zM12 53h1v1h-1zM13 53h1v1h-1zM14 53h1v1h-1zM15 53h1v1h-1z"/><path fill="#EED7E8" d="M16 53h1v1h-1z"/><path fill="#CBA4BD" d="M17 53h1v1h-1z"/><path fill="#231815" d="M18 53h1v1h-1zM19 53h1v1h-1zM20 53h1v1h-1zM21 53h1v1h-1zM22 53h1v1h-1zM23 53h1v1h-1zM24 53h1v1h-1z"/><path fill="#918E8C" d="M25 53h1v1h-1z"/><path fill="#D3D4D3" d="M26 53h1v1h-1zM27 53h1v1h-1z"/><path fill="#D6D7D6" d="M28 53h1v1h-1z"/><path fill="#F7F7F7" d="M29 53h1v1h-1z"/><path fill="#FFF" d="M30 53h1v1h-1zM31 53h1v1h-1z"/><path fill="#F7F7F7" d="M32 53h1v1h-1z"/><path fill="#D6D7D6" d="M33 53h1v1h-1z"/><path fill="#D3D4D3" d="M34 53h1v1h-1zM35 53h1v1h-1zM36 53h1v1h-1z"/><path fill="#CCCDCC" d="M37 53h1v1h-1z"/><path fill="#737774" d="M38 53h1v1h-1z"/><path fill="#5D615E" d="M39 53h1v1h-1zM40 53h1v1h-1zM41 53h1v1h-1zM42 53h1v1h-1zM43 53h1v1h-1zM44 53h1v1h-1z"/><path fill="#A7A9A7" d="M45 53h1v1h-1z"/><path fill="#D3D4D3" d="M46 53h1v1h-1z"/><path fill="#B2B1AF" d="M47 53h1v1h-1z"/><path fill="#2E2421" d="M48 53h1v1h-1z"/><path fill="#231815" d="M49 53h1v1h-1zM50 53h1v1h-1zM51 53h1v1h-1zM52 53h1v1h-1zM53 53h1v1h-1z"/><path fill="#935F8F" d="M7 54h1v1H7zM8 54h1v1H8zM9 54h1v1H9z"/><path fill="#B690B3" d="M10 54h1v1h-1z"/><path fill="#F1E1EE" d="M11 54h1v1h-1zM12 54h1v1h-1zM13 54h1v1h-1zM14 54h1v1h-1zM15 54h1v1h-1z"/><path fill="#EBCFE3" d="M16 54h1v1h-1z"/><path fill="#E3B8D5" d="M17 54h1v1h-1z"/><path fill="#534045" d="M18 54h1v1h-1z"/><path fill="#231815" d="M19 54h1v1h-1zM20 54h1v1h-1zM21 54h1v1h-1zM22 54h1v1h-1z"/><path fill="#2E2421" d="M23 54h1v1h-1z"/><path fill="#918E8C" d="M24 54h1v1h-1z"/><path fill="#D3D4D3" d="M25 54h1v1h-1zM26 54h1v1h-1z"/><path fill="#D6D7D6" d="M27 54h1v1h-1z"/><path fill="#F7F7F7" d="M28 54h1v1h-1z"/><path fill="#FFF" d="M29 54h1v1h-1zM30 54h1v1h-1z"/><path fill="#F7F7F7" d="M31 54h1v1h-1z"/><path fill="#D6D7D6" d="M32 54h1v1h-1z"/><path fill="#D3D4D3" d="M33 54h1v1h-1zM34 54h1v1h-1zM35 54h1v1h-1z"/><path fill="#CCCDCC" d="M36 54h1v1h-1z"/><path fill="#737774" d="M37 54h1v1h-1z"/><path fill="#5D615E" d="M38 54h1v1h-1zM39 54h1v1h-1zM40 54h1v1h-1zM41 54h1v1h-1zM42 54h1v1h-1zM43 54h1v1h-1z"/><path fill="#A7A9A7" d="M44 54h1v1h-1z"/><path fill="#D3D4D3" d="M45 54h1v1h-1z"/><path fill="#B2B1AF" d="M46 54h1v1h-1z"/><path fill="#2E2421" d="M47 54h1v1h-1z"/><path fill="#231815" d="M48 54h1v1h-1zM49 54h1v1h-1zM50 54h1v1h-1zM51 54h1v1h-1zM52 54h1v1h-1z"/><path fill="#935F8F" d="M6 55h1v1H6zM7 55h1v1H7zM8 55h1v1H8zM9 55h1v1H9z"/><path fill="#C8A8C4" d="M10 55h1v1h-1z"/><path fill="#F1E1EE" d="M11 55h1v1h-1zM12 55h1v1h-1zM13 55h1v1h-1zM14 55h1v1h-1zM15 55h1v1h-1z"/><path fill="#E7C5DD" d="M16 55h1v1h-1z"/><path fill="#E3B8D5" d="M17 55h1v1h-1z"/><path fill="#9B7C8D" d="M18 55h1v1h-1z"/><path fill="#231815" d="M19 55h1v1h-1zM20 55h1v1h-1zM21 55h1v1h-1z"/><path fill="#2E2421" d="M22 55h1v1h-1z"/><path fill="#B2B1AF" d="M23 55h1v1h-1z"/><path fill="#D3D4D3" d="M24 55h1v1h-1zM25 55h1v1h-1z"/><path fill="#D6D7D6" d="M26 55h1v1h-1z"/><path fill="#F7F7F7" d="M27 55h1v1h-1z"/><path fill="#FFF" d="M28 55h1v1h-1zM29 55h1v1h-1z"/><path fill="#F7F7F7" d="M30 55h1v1h-1z"/><path fill="#D6D7D6" d="M31 55h1v1h-1z"/><path fill="#D3D4D3" d="M32 55h1v1h-1zM33 55h1v1h-1zM34 55h1v1h-1z"/><path fill="#CCCDCC" d="M35 55h1v1h-1z"/><path fill="#737774" d="M36 55h1v1h-1z"/><path fill="#5D615E" d="M37 55h1v1h-1zM38 55h1v1h-1zM39 55h1v1h-1zM40 55h1v1h-1zM41 55h1v1h-1zM42 55h1v1h-1z"/><path fill="#A7A9A7" d="M43 55h1v1h-1z"/><path fill="#D3D4D3" d="M44 55h1v1h-1z"/><path fill="#C8C8C7" d="M45 55h1v1h-1z"/><path fill="#39302D" d="M46 55h1v1h-1z"/><path fill="#231815" d="M47 55h1v1h-1zM48 55h1v1h-1zM49 55h1v1h-1zM50 55h1v1h-1zM51 55h1v1h-1z"/><path fill="#935F8F" d="M6 56h1v1H6zM7 56h1v1H7zM8 56h1v1H8zM9 56h1v1H9z"/><path fill="#DAC1D6" d="M10 56h1v1h-1z"/><path fill="#F1E1EE" d="M11 56h1v1h-1zM12 56h1v1h-1zM13 56h1v1h-1zM14 56h1v1h-1zM15 56h1v1h-1z"/><path fill="#E4BBD7" d="M16 56h1v1h-1z"/><path fill="#E3B8D5" d="M17 56h1v1h-1z"/><path fill="#CFA6C5" d="M18 56h1v1h-1z"/><path fill="#2C1F20" d="M19 56h1v1h-1z"/><path fill="#231815" d="M20 56h1v1h-1z"/><path fill="#2C1F20" d="M21 56h1v1h-1z"/><path fill="#B2B1AF" d="M22 56h1v1h-1z"/><path fill="#D3D4D3" d="M23 56h1v1h-1zM24 56h1v1h-1z"/><path fill="#D6D7D6" d="M25 56h1v1h-1z"/><path fill="#F7F7F7" d="M26 56h1v1h-1z"/><path fill="#FFF" d="M27 56h1v1h-1zM28 56h1v1h-1z"/><path fill="#F7F7F7" d="M29 56h1v1h-1z"/><path fill="#D6D7D6" d="M30 56h1v1h-1z"/><path fill="#D3D4D3" d="M31 56h1v1h-1zM32 56h1v1h-1zM33 56h1v1h-1z"/><path fill="#CCCDCC" d="M34 56h1v1h-1z"/><path fill="#737774" d="M35 56h1v1h-1z"/><path fill="#5D615E" d="M36 56h1v1h-1zM37 56h1v1h-1zM38 56h1v1h-1zM39 56h1v1h-1zM40 56h1v1h-1zM41 56h1v1h-1z"/><path fill="#A7A9A7" d="M42 56h1v1h-1z"/><path fill="#D3D4D3" d="M43 56h1v1h-1z"/><path fill="#C8C8C7" d="M44 56h1v1h-1z"/><path fill="#443B39" d="M45 56h1v1h-1z"/><path fill="#231815" d="M46 56h1v1h-1zM47 56h1v1h-1zM48 56h1v1h-1zM49 56h1v1h-1zM50 56h1v1h-1z"/><path fill="#935F8F" d="M6 57h1v1H6zM7 57h1v1H7zM8 57h1v1H8zM9 57h1v1H9z"/><path fill="#F1E1EE" d="M10 57h1v1h-1zM11 57h1v1h-1zM12 57h1v1h-1zM13 57h1v1h-1zM14 57h1v1h-1z"/><path fill="#EED9E9" d="M15 57h1v1h-1z"/><path fill="#E3B8D5" d="M16 57h1v1h-1zM17 57h1v1h-1z"/><path fill="#D1A5CB" d="M18 57h1v1h-1z"/><path fill="#A77EA9" d="M19 57h1v1h-1z"/><path fill="#947094" d="M20 57h1v1h-1z"/><path fill="#A77EA9" d="M21 57h1v1h-1z"/><path fill="#CBBECC" d="M22 57h1v1h-1z"/><path fill="#D3D4D3" d="M23 57h1v1h-1z"/><path fill="#D6D7D6" d="M24 57h1v1h-1z"/><path fill="#F7F7F7" d="M25 57h1v1h-1z"/><path fill="#FFF" d="M26 57h1v1h-1zM27 57h1v1h-1z"/><path fill="#F7F7F7" d="M28 57h1v1h-1z"/><path fill="#D6D7D6" d="M29 57h1v1h-1z"/><path fill="#D3D4D3" d="M30 57h1v1h-1zM31 57h1v1h-1zM32 57h1v1h-1z"/><path fill="#CCCDCC" d="M33 57h1v1h-1z"/><path fill="#737774" d="M34 57h1v1h-1z"/><path fill="#5D615E" d="M35 57h1v1h-1zM36 57h1v1h-1zM37 57h1v1h-1zM38 57h1v1h-1zM39 57h1v1h-1zM40 57h1v1h-1z"/><path fill="#A7A9A7" d="M41 57h1v1h-1z"/><path fill="#D3D4D3" d="M42 57h1v1h-1z"/><path fill="#C8C8C7" d="M43 57h1v1h-1z"/><path fill="#443B39" d="M44 57h1v1h-1z"/><path fill="#231815" d="M45 57h1v1h-1zM46 57h1v1h-1zM47 57h1v1h-1zM48 57h1v1h-1zM49 57h1v1h-1z"/><path fill="#935F8F" d="M6 58h1v1H6zM7 58h1v1H7zM8 58h1v1H8z"/><path fill="#A577A1" d="M9 58h1v1H9z"/><path fill="#F1E1EE" d="M10 58h1v1h-1zM11 58h1v1h-1zM12 58h1v1h-1zM13 58h1v1h-1zM14 58h1v1h-1z"/><path fill="#EBCFE3" d="M15 58h1v1h-1z"/><path fill="#E3B8D5" d="M16 58h1v1h-1zM17 58h1v1h-1z"/><path fill="#CFA3CA" d="M18 58h1v1h-1z"/><path fill="#BA8DBE" d="M19 58h1v1h-1zM20 58h1v1h-1zM21 58h1v1h-1z"/><path fill="#C3A8C6" d="M22 58h1v1h-1z"/><path fill="#D6D7D6" d="M23 58h1v1h-1z"/><path fill="#F7F7F7" d="M24 58h1v1h-1z"/><path fill="#FFF" d="M25 58h1v1h-1zM26 58h1v1h-1z"/><path fill="#F7F7F7" d="M27 58h1v1h-1z"/><path fill="#D6D7D6" d="M28 58h1v1h-1z"/><path fill="#D3D4D3" d="M29 58h1v1h-1zM30 58h1v1h-1zM31 58h1v1h-1z"/><path fill="#CCCDCC" d="M32 58h1v1h-1z"/><path fill="#737774" d="M33 58h1v1h-1z"/><path fill="#5D615E" d="M34 58h1v1h-1zM35 58h1v1h-1zM36 58h1v1h-1zM37 58h1v1h-1zM38 58h1v1h-1zM39 58h1v1h-1z"/><path fill="#A7A9A7" d="M40 58h1v1h-1z"/><path fill="#D3D4D3" d="M41 58h1v1h-1z"/><path fill="#C8C8C7" d="M42 58h1v1h-1z"/><path fill="#443B39" d="M43 58h1v1h-1z"/><path fill="#231815" d="M44 58h1v1h-1zM45 58h1v1h-1zM46 58h1v1h-1zM47 58h1v1h-1zM48 58h1v1h-1z"/><path fill="#935F8F" d="M6 59h1v1H6zM7 59h1v1H7zM8 59h1v1H8z"/><path fill="#B690B3" d="M9 59h1v1H9z"/><path fill="#F1E1EE" d="M10 59h1v1h-1zM11 59h1v1h-1zM12 59h1v1h-1zM13 59h1v1h-1zM14 59h1v1h-1z"/><path fill="#E7C5DD" d="M15 59h1v1h-1z"/><path fill="#E3B8D5" d="M16 59h1v1h-1zM17 59h1v1h-1z"/><path fill="#CFA3CA" d="M18 59h1v1h-1z"/><path fill="#BA8DBE" d="M19 59h1v1h-1zM20 59h1v1h-1zM21 59h1v1h-1z"/><path fill="#BC91BF" d="M22 59h1v1h-1z"/><path fill="#F2F0F3" d="M23 59h1v1h-1z"/><path fill="#FFF" d="M24 59h1v1h-1zM25 59h1v1h-1z"/><path fill="#F7F7F7" d="M26 59h1v1h-1z"/><path fill="#D6D7D6" d="M27 59h1v1h-1z"/><path fill="#D3D4D3" d="M28 59h1v1h-1zM29 59h1v1h-1zM30 59h1v1h-1z"/><path fill="#CCCDCC" d="M31 59h1v1h-1z"/><path fill="#737774" d="M32 59h1v1h-1z"/><path fill="#5D615E" d="M33 59h1v1h-1zM34 59h1v1h-1zM35 59h1v1h-1zM36 59h1v1h-1zM37 59h1v1h-1zM38 59h1v1h-1z"/><path fill="#A7A9A7" d="M39 59h1v1h-1z"/><path fill="#D3D4D3" d="M40 59h1v1h-1z"/><path fill="#C8C8C7" d="M41 59h1v1h-1z"/><path fill="#443B39" d="M42 59h1v1h-1z"/><path fill="#231815" d="M43 59h1v1h-1zM44 59h1v1h-1zM45 59h1v1h-1zM46 59h1v1h-1zM47 59h1v1h-1z"/><path fill="#935F8F" d="M5 60h1v1H5zM6 60h1v1H6zM7 60h1v1H7zM8 60h1v1H8z"/><path fill="#CEB0CA" d="M9 60h1v1H9z"/><path fill="#F1E1EE" d="M10 60h1v1h-1zM11 60h1v1h-1zM12 60h1v1h-1zM13 60h1v1h-1zM14 60h1v1h-1z"/><path fill="#E4BBD7" d="M15 60h1v1h-1z"/><path fill="#E3B8D5" d="M16 60h1v1h-1zM17 60h1v1h-1z"/><path fill="#C79AC5" d="M18 60h1v1h-1z"/><path fill="#BA8DBE" d="M19 60h1v1h-1zM20 60h1v1h-1zM21 60h1v1h-1zM22 60h1v1h-1z"/><path fill="#E5D4E7" d="M23 60h1v1h-1z"/><path fill="#FFF" d="M24 60h1v1h-1z"/><path fill="#F7F7F7" d="M25 60h1v1h-1z"/><path fill="#D6D7D6" d="M26 60h1v1h-1z"/><path fill="#D3D4D3" d="M27 60h1v1h-1zM28 60h1v1h-1zM29 60h1v1h-1z"/><path fill="#CCCDCC" d="M30 60h1v1h-1z"/><path fill="#737774" d="M31 60h1v1h-1z"/><path fill="#5D615E" d="M32 60h1v1h-1zM33 60h1v1h-1zM34 60h1v1h-1zM35 60h1v1h-1zM36 60h1v1h-1zM37 60h1v1h-1z"/><path fill="#A7A9A7" d="M38 60h1v1h-1z"/><path fill="#D3D4D3" d="M39 60h1v1h-1z"/><path fill="#C8C8C7" d="M40 60h1v1h-1z"/><path fill="#443B39" d="M41 60h1v1h-1z"/><path fill="#231815" d="M42 60h1v1h-1zM43 60h1v1h-1zM44 60h1v1h-1zM45 60h1v1h-1zM46 60h1v1h-1z"/><path fill="#935F8F" d="M5 61h1v1H5zM6 61h1v1H6zM7 61h1v1H7zM8 61h1v1H8z"/><path fill="#DFC9DC" d="M9 61h1v1H9z"/><path fill="#F1E1EE" d="M10 61h1v1h-1zM11 61h1v1h-1zM12 61h1v1h-1zM13 61h1v1h-1z"/><path fill="#EED9E9" d="M14 61h1v1h-1z"/><path fill="#E3B8D5" d="M15 61h1v1h-1zM16 61h1v1h-1zM17 61h1v1h-1z"/><path fill="#C498C4" d="M18 61h1v1h-1z"/><path fill="#BA8DBE" d="M19 61h1v1h-1zM20 61h1v1h-1zM21 61h1v1h-1zM22 61h1v1h-1z"/><path fill="#C7A2CA" d="M23 61h1v1h-1z"/><path fill="#F7F7F7" d="M24 61h1v1h-1z"/><path fill="#D6D7D6" d="M25 61h1v1h-1z"/><path fill="#D3D4D3" d="M26 61h1v1h-1zM27 61h1v1h-1zM28 61h1v1h-1z"/><path fill="#CCCDCC" d="M29 61h1v1h-1z"/><path fill="#737774" d="M30 61h1v1h-1z"/><path fill="#5D615E" d="M31 61h1v1h-1zM32 61h1v1h-1zM33 61h1v1h-1zM34 61h1v1h-1zM35 61h1v1h-1zM36 61h1v1h-1z"/><path fill="#A7A9A7" d="M37 61h1v1h-1z"/><path fill="#D3D4D3" d="M38 61h1v1h-1z"/><path fill="#C8C8C7" d="M39 61h1v1h-1z"/><path fill="#443B39" d="M40 61h1v1h-1z"/><path fill="#231815" d="M41 61h1v1h-1zM42 61h1v1h-1zM43 61h1v1h-1zM44 61h1v1h-1zM45 61h1v1h-1z"/><path fill="#935F8F" d="M5 62h1v1H5zM6 62h1v1H6zM7 62h1v1H7zM8 62h1v1H8z"/><path fill="#F1E1EE" d="M9 62h1v1H9zM10 62h1v1h-1zM11 62h1v1h-1zM12 62h1v1h-1zM13 62h1v1h-1z"/><path fill="#EACDE2" d="M14 62h1v1h-1z"/><path fill="#E3B8D5" d="M15 62h1v1h-1zM16 62h1v1h-1zM17 62h1v1h-1z"/><path fill="#C498C4" d="M18 62h1v1h-1z"/><path fill="#BA8DBE" d="M19 62h1v1h-1zM20 62h1v1h-1zM21 62h1v1h-1zM22 62h1v1h-1zM23 62h1v1h-1z"/><path fill="#D0C5D1" d="M24 62h1v1h-1z"/><path fill="#D3D4D3" d="M25 62h1v1h-1zM26 62h1v1h-1zM27 62h1v1h-1z"/><path fill="#CCCDCC" d="M28 62h1v1h-1z"/><path fill="#737774" d="M29 62h1v1h-1z"/><path fill="#5D615E" d="M30 62h1v1h-1zM31 62h1v1h-1zM32 62h1v1h-1zM33 62h1v1h-1zM34 62h1v1h-1zM35 62h1v1h-1z"/><path fill="#A7A9A7" d="M36 62h1v1h-1z"/><path fill="#D3D4D3" d="M37 62h1v1h-1z"/><path fill="#C8C8C7" d="M38 62h1v1h-1z"/><path fill="#443B39" d="M39 62h1v1h-1z"/><path fill="#231815" d="M40 62h1v1h-1zM41 62h1v1h-1zM42 62h1v1h-1zM43 62h1v1h-1zM44 62h1v1h-1z"/><path fill="#935F8F" d="M5 63h1v1H5zM6 63h1v1H6zM7 63h1v1H7z"/><path fill="#AB80A7" d="M8 63h1v1H8z"/><path fill="#F1E1EE" d="M9 63h1v1H9zM10 63h1v1h-1zM11 63h1v1h-1zM12 63h1v1h-1zM13 63h1v1h-1z"/><path fill="#E7C2DB" d="M14 63h1v1h-1z"/><path fill="#E3B8D5" d="M15 63h1v1h-1zM16 63h1v1h-1zM17 63h1v1h-1z"/><path fill="#C498C4" d="M18 63h1v1h-1z"/><path fill="#BA8DBE" d="M19 63h1v1h-1zM20 63h1v1h-1zM21 63h1v1h-1zM22 63h1v1h-1zM23 63h1v1h-1z"/><path fill="#C09FC3" d="M24 63h1v1h-1z"/><path fill="#D3D4D3" d="M25 63h1v1h-1zM26 63h1v1h-1z"/><path fill="#CCCDCC" d="M27 63h1v1h-1z"/><path fill="#737774" d="M28 63h1v1h-1z"/><path fill="#5D615E" d="M29 63h1v1h-1zM30 63h1v1h-1zM31 63h1v1h-1zM32 63h1v1h-1zM33 63h1v1h-1zM34 63h1v1h-1z"/><path fill="#A7A9A7" d="M35 63h1v1h-1z"/><path fill="#D3D4D3" d="M36 63h1v1h-1z"/><path fill="#C8C8C7" d="M37 63h1v1h-1z"/><path fill="#443B39" d="M38 63h1v1h-1z"/><path fill="#231815" d="M39 63h1v1h-1zM40 63h1v1h-1zM41 63h1v1h-1zM42 63h1v1h-1zM43 63h1v1h-1z"/><path fill="#935F8F" d="M5 64h1v1H5zM6 64h1v1H6zM7 64h1v1H7z"/><path fill="#BC98B9" d="M8 64h1v1H8z"/><path fill="#F1E1EE" d="M9 64h1v1H9zM10 64h1v1h-1zM11 64h1v1h-1zM12 64h1v1h-1z"/><path fill="#F0DEEC" d="M13 64h1v1h-1z"/><path fill="#E3B8D5" d="M14 64h1v1h-1zM15 64h1v1h-1zM16 64h1v1h-1zM17 64h1v1h-1z"/><path fill="#C99DC7" d="M18 64h1v1h-1z"/><path fill="#BA8DBE" d="M19 64h1v1h-1zM20 64h1v1h-1zM21 64h1v1h-1zM22 64h1v1h-1zM23 64h1v1h-1zM24 64h1v1h-1z"/><path fill="#BF9AC2" d="M25 64h1v1h-1z"/><path fill="#CBBECC" d="M26 64h1v1h-1z"/><path fill="#737774" d="M27 64h1v1h-1z"/><path fill="#5D615E" d="M28 64h1v1h-1zM29 64h1v1h-1zM30 64h1v1h-1zM31 64h1v1h-1zM32 64h1v1h-1zM33 64h1v1h-1z"/><path fill="#A7A9A7" d="M34 64h1v1h-1z"/><path fill="#D3D4D3" d="M35 64h1v1h-1z"/><path fill="#C8C8C7" d="M36 64h1v1h-1z"/><path fill="#443B39" d="M37 64h1v1h-1z"/><path fill="#231815" d="M38 64h1v1h-1zM39 64h1v1h-1zM40 64h1v1h-1zM41 64h1v1h-1zM42 64h1v1h-1z"/><path fill="#935F8F" d="M4 65h1v1H4zM5 65h1v1H5zM6 65h1v1H6zM7 65h1v1H7z"/><path fill="#CEB0CA" d="M8 65h1v1H8z"/><path fill="#F1E1EE" d="M9 65h1v1H9zM10 65h1v1h-1zM11 65h1v1h-1zM12 65h1v1h-1z"/><path fill="#EDD4E6" d="M13 65h1v1h-1z"/><path fill="#E3B8D5" d="M14 65h1v1h-1zM15 65h1v1h-1zM16 65h1v1h-1zM17 65h1v1h-1z"/><path fill="#CFA3CA" d="M18 65h1v1h-1z"/><path fill="#BA8DBE" d="M19 65h1v1h-1zM20 65h1v1h-1zM21 65h1v1h-1zM22 65h1v1h-1zM23 65h1v1h-1zM24 65h1v1h-1zM25 65h1v1h-1zM26 65h1v1h-1z"/><path fill="#AE88B2" d="M27 65h1v1h-1z"/><path fill="#917A94" d="M28 65h1v1h-1z"/><path fill="#746C76" d="M29 65h1v1h-1z"/><path fill="#5D615E" d="M30 65h1v1h-1zM31 65h1v1h-1zM32 65h1v1h-1z"/><path fill="#A7A9A7" d="M33 65h1v1h-1z"/><path fill="#D3D4D3" d="M34 65h1v1h-1z"/><path fill="#C8C8C7" d="M35 65h1v1h-1z"/><path fill="#443B39" d="M36 65h1v1h-1z"/><path fill="#231815" d="M37 65h1v1h-1zM38 65h1v1h-1zM39 65h1v1h-1zM40 65h1v1h-1zM41 65h1v1h-1z"/><path fill="#935F8F" d="M4 66h1v1H4zM5 66h1v1H5zM6 66h1v1H6zM7 66h1v1H7z"/><path fill="#DFC9DC" d="M8 66h1v1H8z"/><path fill="#F1E1EE" d="M9 66h1v1H9zM10 66h1v1h-1zM11 66h1v1h-1zM12 66h1v1h-1z"/><path fill="#E8C7DE" d="M13 66h1v1h-1z"/><path fill="#E3B8D5" d="M14 66h1v1h-1zM15 66h1v1h-1zM16 66h1v1h-1zM17 66h1v1h-1z"/><path fill="#D1A5CB" d="M18 66h1v1h-1z"/><path fill="#BA8DBE" d="M19 66h1v1h-1zM20 66h1v1h-1zM21 66h1v1h-1zM22 66h1v1h-1zM23 66h1v1h-1zM24 66h1v1h-1zM25 66h1v1h-1zM26 66h1v1h-1zM27 66h1v1h-1zM28 66h1v1h-1zM29 66h1v1h-1zM30 66h1v1h-1z"/><path fill="#A382A6" d="M31 66h1v1h-1z"/><path fill="#A78FAA" d="M32 66h1v1h-1z"/><path fill="#C8B5CA" d="M33 66h1v1h-1z"/><path fill="#CDC2CE" d="M34 66h1v1h-1z"/><path fill="#635A5B" d="M35 66h1v1h-1z"/><path fill="#231815" d="M36 66h1v1h-1zM37 66h1v1h-1zM38 66h1v1h-1zM39 66h1v1h-1zM40 66h1v1h-1z"/><path fill="#935F8F" d="M4 67h1v1H4zM5 67h1v1H5zM6 67h1v1H6zM7 67h1v1H7z"/><path fill="#F1E1EE" d="M8 67h1v1H8zM9 67h1v1H9zM10 67h1v1h-1zM11 67h1v1h-1zM12 67h1v1h-1z"/><path fill="#E4BBD7" d="M13 67h1v1h-1z"/><path fill="#E3B8D5" d="M14 67h1v1h-1zM15 67h1v1h-1zM16 67h1v1h-1zM17 67h1v1h-1z"/><path fill="#DBB0D1" d="M18 67h1v1h-1z"/><path fill="#BA8DBE" d="M19 67h1v1h-1zM20 67h1v1h-1zM21 67h1v1h-1zM22 67h1v1h-1zM23 67h1v1h-1zM24 67h1v1h-1zM25 67h1v1h-1zM26 67h1v1h-1zM27 67h1v1h-1zM28 67h1v1h-1zM29 67h1v1h-1zM30 67h1v1h-1zM31 67h1v1h-1zM32 67h1v1h-1zM33 67h1v1h-1zM34 67h1v1h-1z"/><path fill="#49353F" d="M35 67h1v1h-1z"/><path fill="#231815" d="M36 67h1v1h-1zM37 67h1v1h-1zM38 67h1v1h-1zM39 67h1v1h-1zM40 67h1v1h-1zM41 67h1v1h-1z"/><path fill="#935F8F" d="M4 68h1v1H4zM5 68h1v1H5zM6 68h1v1H6z"/><path fill="#AB80A7" d="M7 68h1v1H7z"/><path fill="#F1E1EE" d="M8 68h1v1H8zM9 68h1v1H9zM10 68h1v1h-1zM11 68h1v1h-1z"/><path fill="#EED9E9" d="M12 68h1v1h-1z"/><path fill="#E3B8D5" d="M13 68h1v1h-1zM14 68h1v1h-1zM15 68h1v1h-1zM16 68h1v1h-1zM17 68h1v1h-1zM18 68h1v1h-1z"/><path fill="#C498C4" d="M19 68h1v1h-1z"/><path fill="#BA8DBE" d="M20 68h1v1h-1zM21 68h1v1h-1zM22 68h1v1h-1zM23 68h1v1h-1zM24 68h1v1h-1zM25 68h1v1h-1zM26 68h1v1h-1zM27 68h1v1h-1zM28 68h1v1h-1zM29 68h1v1h-1zM30 68h1v1h-1zM31 68h1v1h-1zM32 68h1v1h-1zM33 68h1v1h-1zM34 68h1v1h-1z"/><path fill="#9E779E" d="M35 68h1v1h-1z"/><path fill="#2C1F20" d="M36 68h1v1h-1z"/><path fill="#231815" d="M37 68h1v1h-1zM38 68h1v1h-1zM39 68h1v1h-1zM40 68h1v1h-1zM41 68h1v1h-1zM42 68h1v1h-1zM43 68h1v1h-1z"/><path fill="#935F8F" d="M4 69h1v1H4zM5 69h1v1H5zM6 69h1v1H6z"/><path fill="#BC98B9" d="M7 69h1v1H7z"/><path fill="#F1E1EE" d="M8 69h1v1H8zM9 69h1v1H9zM10 69h1v1h-1zM11 69h1v1h-1z"/><path fill="#E9CAE0" d="M12 69h1v1h-1z"/><path fill="#E3B8D5" d="M13 69h1v1h-1zM14 69h1v1h-1zM15 69h1v1h-1zM16 69h1v1h-1zM17 69h1v1h-1zM18 69h1v1h-1z"/><path fill="#E0B5D4" d="M19 69h1v1h-1z"/><path fill="#CCA0C8" d="M20 69h1v1h-1z"/><path fill="#BA8DBE" d="M21 69h1v1h-1zM22 69h1v1h-1zM23 69h1v1h-1zM24 69h1v1h-1zM25 69h1v1h-1zM26 69h1v1h-1zM27 69h1v1h-1zM28 69h1v1h-1zM29 69h1v1h-1zM30 69h1v1h-1zM31 69h1v1h-1zM32 69h1v1h-1zM33 69h1v1h-1zM34 69h1v1h-1zM35 69h1v1h-1z"/><path fill="#B186B3" d="M36 69h1v1h-1z"/><path fill="#5C4454" d="M37 69h1v1h-1z"/><path fill="#231815" d="M38 69h1v1h-1zM39 69h1v1h-1zM40 69h1v1h-1zM41 69h1v1h-1zM42 69h1v1h-1zM43 69h1v1h-1zM44 69h1v1h-1z"/><path fill="#935F8F" d="M3 70h1v1H3zM4 70h1v1H4zM5 70h1v1H5zM6 70h1v1H6z"/><path fill="#CEB0CA" d="M7 70h1v1H7z"/><path fill="#F1E1EE" d="M8 70h1v1H8zM9 70h1v1H9zM10 70h1v1h-1zM11 70h1v1h-1z"/><path fill="#E6C0DA" d="M12 70h1v1h-1z"/><path fill="#E3B8D5" d="M13 70h1v1h-1zM14 70h1v1h-1zM15 70h1v1h-1zM16 70h1v1h-1zM17 70h1v1h-1zM18 70h1v1h-1zM19 70h1v1h-1zM20 70h1v1h-1z"/><path fill="#DEB3D2" d="M21 70h1v1h-1z"/><path fill="#CFA3CA" d="M22 70h1v1h-1z"/><path fill="#BD90BF" d="M23 70h1v1h-1z"/><path fill="#BA8DBE" d="M24 70h1v1h-1zM25 70h1v1h-1zM26 70h1v1h-1zM27 70h1v1h-1zM28 70h1v1h-1zM29 70h1v1h-1zM30 70h1v1h-1zM31 70h1v1h-1zM32 70h1v1h-1zM33 70h1v1h-1zM34 70h1v1h-1zM35 70h1v1h-1zM36 70h1v1h-1zM37 70h1v1h-1z"/><path fill="#947094" d="M38 70h1v1h-1z"/><path fill="#3F2E35" d="M39 70h1v1h-1z"/><path fill="#231815" d="M40 70h1v1h-1zM41 70h1v1h-1zM42 70h1v1h-1zM43 70h1v1h-1zM44 70h1v1h-1zM45 70h1v1h-1zM46 70h1v1h-1z"/><path fill="#935F8F" d="M3 71h1v1H3zM4 71h1v1H4zM5 71h1v1H5zM6 71h1v1H6z"/><path fill="#DFC9DC" d="M7 71h1v1H7z"/><path fill="#F1E1EE" d="M8 71h1v1H8zM9 71h1v1H9zM10 71h1v1h-1z"/><path fill="#EFDCEB" d="M11 71h1v1h-1z"/><path fill="#E3B8D5" d="M12 71h1v1h-1zM13 71h1v1h-1zM14 71h1v1h-1zM15 71h1v1h-1zM16 71h1v1h-1zM17 71h1v1h-1zM18 71h1v1h-1zM19 71h1v1h-1zM20 71h1v1h-1zM21 71h1v1h-1zM22 71h1v1h-1zM23 71h1v1h-1z"/><path fill="#D6ABCE" d="M24 71h1v1h-1z"/><path fill="#C99DC7" d="M25 71h1v1h-1z"/><path fill="#BD90BF" d="M26 71h1v1h-1z"/><path fill="#BA8DBE" d="M27 71h1v1h-1zM28 71h1v1h-1zM29 71h1v1h-1zM30 71h1v1h-1zM31 71h1v1h-1zM32 71h1v1h-1zM33 71h1v1h-1zM34 71h1v1h-1zM35 71h1v1h-1zM36 71h1v1h-1zM37 71h1v1h-1zM38 71h1v1h-1zM39 71h1v1h-1z"/><path fill="#785A74" d="M40 71h1v1h-1z"/><path fill="#2C1F20" d="M41 71h1v1h-1z"/><path fill="#231815" d="M42 71h1v1h-1zM43 71h1v1h-1zM44 71h1v1h-1zM45 71h1v1h-1zM46 71h1v1h-1zM47 71h1v1h-1zM48 71h1v1h-1z"/><path fill="#935F8F" d="M3 72h1v1H3zM4 72h1v1H4zM5 72h1v1H5zM6 72h1v1H6z"/><path fill="#F1E1EE" d="M7 72h1v1H7zM8 72h1v1H8zM9 72h1v1H9zM10 72h1v1h-1z"/><path fill="#EBCFE3" d="M11 72h1v1h-1z"/><path fill="#E3B8D5" d="M12 72h1v1h-1zM13 72h1v1h-1zM14 72h1v1h-1zM15 72h1v1h-1zM16 72h1v1h-1zM17 72h1v1h-1zM18 72h1v1h-1zM19 72h1v1h-1zM20 72h1v1h-1zM21 72h1v1h-1zM22 72h1v1h-1zM23 72h1v1h-1zM24 72h1v1h-1zM25 72h1v1h-1zM26 72h1v1h-1z"/><path fill="#D6ABCE" d="M27 72h1v1h-1z"/><path fill="#C99DC7" d="M28 72h1v1h-1z"/><path fill="#BD90BF" d="M29 72h1v1h-1z"/><path fill="#BA8DBE" d="M30 72h1v1h-1zM31 72h1v1h-1zM32 72h1v1h-1zM33 72h1v1h-1zM34 72h1v1h-1zM35 72h1v1h-1zM36 72h1v1h-1zM37 72h1v1h-1zM38 72h1v1h-1zM39 72h1v1h-1zM40 72h1v1h-1z"/><path fill="#B186B3" d="M41 72h1v1h-1z"/><path fill="#654B5F" d="M42 72h1v1h-1z"/><path fill="#231815" d="M43 72h1v1h-1zM44 72h1v1h-1zM45 72h1v1h-1zM46 72h1v1h-1zM47 72h1v1h-1zM48 72h1v1h-1zM49 72h1v1h-1z"/><path fill="#935F8F" d="M3 73h1v1H3zM4 73h1v1H4zM5 73h1v1H5z"/><path fill="#AB80A7" d="M6 73h1v1H6z"/><path fill="#F1E1EE" d="M7 73h1v1H7zM8 73h1v1H8zM9 73h1v1H9zM10 73h1v1h-1z"/><path fill="#E6C0DA" d="M11 73h1v1h-1z"/><path fill="#E3B8D5" d="M12 73h1v1h-1zM13 73h1v1h-1zM14 73h1v1h-1zM15 73h1v1h-1zM16 73h1v1h-1zM17 73h1v1h-1zM18 73h1v1h-1zM19 73h1v1h-1zM20 73h1v1h-1zM21 73h1v1h-1zM22 73h1v1h-1zM23 73h1v1h-1zM24 73h1v1h-1zM25 73h1v1h-1zM26 73h1v1h-1zM27 73h1v1h-1zM28 73h1v1h-1zM29 73h1v1h-1z"/><path fill="#DBB0D1" d="M30 73h1v1h-1z"/><path fill="#CFA3CA" d="M31 73h1v1h-1z"/><path fill="#C498C4" d="M32 73h1v1h-1z"/><path fill="#BA8DBE" d="M33 73h1v1h-1zM34 73h1v1h-1zM35 73h1v1h-1zM36 73h1v1h-1zM37 73h1v1h-1zM38 73h1v1h-1zM39 73h1v1h-1zM40 73h1v1h-1zM41 73h1v1h-1zM42 73h1v1h-1z"/><path fill="#9E779E" d="M43 73h1v1h-1z"/><path fill="#49353F" d="M44 73h1v1h-1z"/><path fill="#231815" d="M45 73h1v1h-1zM46 73h1v1h-1zM47 73h1v1h-1zM48 73h1v1h-1zM49 73h1v1h-1zM50 73h1v1h-1zM51 73h1v1h-1z"/><path fill="#935F8F" d="M2 74h1v1H2zM3 74h1v1H3zM4 74h1v1H4zM5 74h1v1H5z"/><path fill="#BC98B9" d="M6 74h1v1H6z"/><path fill="#F1E1EE" d="M7 74h1v1H7zM8 74h1v1H8zM9 74h1v1H9z"/><path fill="#EFDCEB" d="M10 74h1v1h-1z"/><path fill="#E3B8D5" d="M11 74h1v1h-1zM12 74h1v1h-1zM13 74h1v1h-1zM14 74h1v1h-1zM15 74h1v1h-1zM16 74h1v1h-1zM17 74h1v1h-1zM18 74h1v1h-1zM19 74h1v1h-1zM20 74h1v1h-1zM21 74h1v1h-1zM22 74h1v1h-1zM23 74h1v1h-1zM24 74h1v1h-1zM25 74h1v1h-1zM26 74h1v1h-1zM27 74h1v1h-1zM28 74h1v1h-1zM29 74h1v1h-1zM30 74h1v1h-1zM31 74h1v1h-1zM32 74h1v1h-1zM33 74h1v1h-1z"/><path fill="#D9ADCF" d="M34 74h1v1h-1z"/><path fill="#CFA3CA" d="M35 74h1v1h-1z"/><path fill="#C498C4" d="M36 74h1v1h-1z"/><path fill="#BA8DBE" d="M37 74h1v1h-1zM38 74h1v1h-1zM39 74h1v1h-1zM40 74h1v1h-1zM41 74h1v1h-1zM42 74h1v1h-1zM43 74h1v1h-1zM44 74h1v1h-1z"/><path fill="#81617F" d="M45 74h1v1h-1z"/><path fill="#2C1F20" d="M46 74h1v1h-1z"/><path fill="#231815" d="M47 74h1v1h-1zM48 74h1v1h-1zM49 74h1v1h-1zM50 74h1v1h-1zM51 74h1v1h-1zM52 74h1v1h-1zM53 74h1v1h-1z"/><path fill="#935F8F" d="M2 75h1v1H2zM3 75h1v1H3zM4 75h1v1H4zM5 75h1v1H5z"/><path fill="#CEB0CA" d="M6 75h1v1H6z"/><path fill="#F1E1EE" d="M7 75h1v1H7zM8 75h1v1H8zM9 75h1v1H9z"/><path fill="#EBCFE3" d="M10 75h1v1h-1z"/><path fill="#E3B8D5" d="M11 75h1v1h-1zM12 75h1v1h-1zM13 75h1v1h-1zM14 75h1v1h-1zM15 75h1v1h-1zM16 75h1v1h-1zM17 75h1v1h-1zM18 75h1v1h-1zM19 75h1v1h-1zM20 75h1v1h-1zM21 75h1v1h-1zM22 75h1v1h-1zM23 75h1v1h-1zM24 75h1v1h-1zM25 75h1v1h-1zM26 75h1v1h-1zM27 75h1v1h-1zM28 75h1v1h-1zM29 75h1v1h-1zM30 75h1v1h-1zM31 75h1v1h-1zM32 75h1v1h-1zM33 75h1v1h-1zM34 75h1v1h-1zM35 75h1v1h-1zM36 75h1v1h-1zM37 75h1v1h-1z"/><path fill="#DBB0D1" d="M38 75h1v1h-1z"/><path fill="#D1A5CB" d="M39 75h1v1h-1z"/><path fill="#C99DC7" d="M40 75h1v1h-1z"/><path fill="#C295C2" d="M41 75h1v1h-1z"/><path fill="#BA8DBE" d="M42 75h1v1h-1zM43 75h1v1h-1zM44 75h1v1h-1zM45 75h1v1h-1z"/><path fill="#B186B3" d="M46 75h1v1h-1z"/><path fill="#654B5F" d="M47 75h1v1h-1z"/><path fill="#231815" d="M48 75h1v1h-1zM49 75h1v1h-1zM50 75h1v1h-1zM51 75h1v1h-1zM52 75h1v1h-1zM53 75h1v1h-1zM54 75h1v1h-1z"/><path fill="#935F8F" d="M2 76h1v1H2zM3 76h1v1H3zM4 76h1v1H4zM5 76h1v1H5z"/><path fill="#DFC9DC" d="M6 76h1v1H6z"/><path fill="#F1E1EE" d="M7 76h1v1H7zM8 76h1v1H8zM9 76h1v1H9z"/><path fill="#E6C0DA" d="M10 76h1v1h-1z"/><path fill="#E3B8D5" d="M11 76h1v1h-1zM12 76h1v1h-1zM13 76h1v1h-1zM14 76h1v1h-1zM15 76h1v1h-1zM16 76h1v1h-1zM17 76h1v1h-1zM18 76h1v1h-1zM19 76h1v1h-1zM20 76h1v1h-1zM21 76h1v1h-1zM22 76h1v1h-1zM23 76h1v1h-1zM24 76h1v1h-1zM25 76h1v1h-1zM26 76h1v1h-1zM27 76h1v1h-1zM28 76h1v1h-1zM29 76h1v1h-1zM30 76h1v1h-1zM31 76h1v1h-1zM32 76h1v1h-1zM33 76h1v1h-1zM34 76h1v1h-1zM35 76h1v1h-1zM36 76h1v1h-1zM37 76h1v1h-1zM38 76h1v1h-1zM39 76h1v1h-1zM40 76h1v1h-1zM41 76h1v1h-1zM42 76h1v1h-1z"/><path fill="#D9ADCF" d="M43 76h1v1h-1z"/><path fill="#D4A8CC" d="M44 76h1v1h-1z"/><path fill="#CFA3CA" d="M45 76h1v1h-1z"/><path fill="#C498C4" d="M46 76h1v1h-1z"/><path fill="#C295C2" d="M47 76h1v1h-1z"/><path fill="#9E779E" d="M48 76h1v1h-1z"/><path fill="#49353F" d="M49 76h1v1h-1z"/><path fill="#231815" d="M50 76h1v1h-1zM51 76h1v1h-1zM52 76h1v1h-1zM53 76h1v1h-1zM54 76h1v1h-1zM55 76h1v1h-1zM56 76h1v1h-1z"/><path fill="#935F8F" d="M2 77h1v1H2zM3 77h1v1H3zM4 77h1v1H4z"/><path fill="#996795" d="M5 77h1v1H5z"/><path fill="#F1E1EE" d="M6 77h1v1H6zM7 77h1v1H7zM8 77h1v1H8z"/><path fill="#EED9E9" d="M9 77h1v1H9z"/><path fill="#E3B8D5" d="M10 77h1v1h-1zM11 77h1v1h-1zM12 77h1v1h-1zM13 77h1v1h-1zM14 77h1v1h-1zM15 77h1v1h-1zM16 77h1v1h-1zM17 77h1v1h-1zM18 77h1v1h-1zM19 77h1v1h-1zM20 77h1v1h-1zM21 77h1v1h-1zM22 77h1v1h-1zM23 77h1v1h-1zM24 77h1v1h-1zM25 77h1v1h-1zM26 77h1v1h-1zM27 77h1v1h-1zM28 77h1v1h-1zM29 77h1v1h-1zM30 77h1v1h-1zM31 77h1v1h-1zM32 77h1v1h-1zM33 77h1v1h-1zM34 77h1v1h-1zM35 77h1v1h-1zM36 77h1v1h-1zM37 77h1v1h-1zM38 77h1v1h-1zM39 77h1v1h-1zM40 77h1v1h-1zM41 77h1v1h-1zM42 77h1v1h-1zM43 77h1v1h-1zM44 77h1v1h-1zM45 77h1v1h-1zM46 77h1v1h-1zM47 77h1v1h-1zM48 77h1v1h-1z"/><path fill="#E0B5D4" d="M49 77h1v1h-1z"/><path fill="#9B7C8D" d="M50 77h1v1h-1z"/><path fill="#2F2221" d="M51 77h1v1h-1z"/><path fill="#231815" d="M52 77h1v1h-1zM53 77h1v1h-1zM54 77h1v1h-1zM55 77h1v1h-1zM56 77h1v1h-1zM57 77h1v1h-1zM58 77h1v1h-1z"/><path fill="#935F8F" d="M2 78h1v1H2zM3 78h1v1H3zM4 78h1v1H4z"/><path fill="#AB80A7" d="M5 78h1v1H5z"/><path fill="#F1E1EE" d="M6 78h1v1H6zM7 78h1v1H7zM8 78h1v1H8z"/><path fill="#E9CAE0" d="M9 78h1v1H9z"/><path fill="#E3B8D5" d="M10 78h1v1h-1zM11 78h1v1h-1zM12 78h1v1h-1zM13 78h1v1h-1zM14 78h1v1h-1zM15 78h1v1h-1zM16 78h1v1h-1zM17 78h1v1h-1zM18 78h1v1h-1zM19 78h1v1h-1zM20 78h1v1h-1zM21 78h1v1h-1zM22 78h1v1h-1zM23 78h1v1h-1zM24 78h1v1h-1zM25 78h1v1h-1zM26 78h1v1h-1zM27 78h1v1h-1zM28 78h1v1h-1zM29 78h1v1h-1zM30 78h1v1h-1zM31 78h1v1h-1zM32 78h1v1h-1zM33 78h1v1h-1zM34 78h1v1h-1zM35 78h1v1h-1zM36 78h1v1h-1zM37 78h1v1h-1zM38 78h1v1h-1zM39 78h1v1h-1zM40 78h1v1h-1zM41 78h1v1h-1zM42 78h1v1h-1zM43 78h1v1h-1zM44 78h1v1h-1zM45 78h1v1h-1zM46 78h1v1h-1zM47 78h1v1h-1zM48 78h1v1h-1zM49 78h1v1h-1z"/><path fill="#D7AEC9" d="M50 78h1v1h-1z"/><path fill="#A78699" d="M51 78h1v1h-1z"/><path fill="#473639" d="M52 78h1v1h-1z"/><path fill="#231815" d="M53 78h1v1h-1zM54 78h1v1h-1zM55 78h1v1h-1zM56 78h1v1h-1zM57 78h1v1h-1zM58 78h1v1h-1zM59 78h1v1h-1z"/><path fill="#935F8F" d="M1 79h1v1H1zM2 79h1v1H2zM3 79h1v1H3zM4 79h1v1H4z"/><path fill="#C2A0BF" d="M5 79h1v1H5z"/><path fill="#F1E1EE" d="M6 79h1v1H6zM7 79h1v1H7zM8 79h1v1H8z"/><path fill="#E4BBD7" d="M9 79h1v1H9z"/><path fill="#E3B8D5" d="M10 79h1v1h-1zM11 79h1v1h-1zM12 79h1v1h-1zM13 79h1v1h-1zM14 79h1v1h-1zM15 79h1v1h-1zM16 79h1v1h-1zM17 79h1v1h-1zM18 79h1v1h-1zM19 79h1v1h-1zM20 79h1v1h-1zM21 79h1v1h-1zM22 79h1v1h-1zM23 79h1v1h-1zM24 79h1v1h-1zM25 79h1v1h-1zM26 79h1v1h-1zM27 79h1v1h-1zM28 79h1v1h-1zM29 79h1v1h-1zM30 79h1v1h-1zM31 79h1v1h-1zM32 79h1v1h-1zM33 79h1v1h-1zM34 79h1v1h-1zM35 79h1v1h-1zM36 79h1v1h-1zM37 79h1v1h-1zM38 79h1v1h-1zM39 79h1v1h-1zM40 79h1v1h-1zM41 79h1v1h-1zM42 79h1v1h-1zM43 79h1v1h-1z"/><path fill="#BF9AB1" d="M44 79h1v1h-1z"/><path fill="#A78699" d="M45 79h1v1h-1z"/><path fill="#836875" d="M46 79h1v1h-1z"/><path fill="#6B545D" d="M47 79h1v1h-1z"/><path fill="#534045" d="M48 79h1v1h-1z"/><path fill="#2F2221" d="M49 79h1v1h-1z"/><path fill="#231815" d="M50 79h1v1h-1zM51 79h1v1h-1zM52 79h1v1h-1zM53 79h1v1h-1zM54 79h1v1h-1zM55 79h1v1h-1zM56 79h1v1h-1zM57 79h1v1h-1zM58 79h1v1h-1zM59 79h1v1h-1z"/><path fill="#935F8F" d="M1 80h1v1H1zM2 80h1v1H2zM3 80h1v1H3zM4 80h1v1H4z"/><path fill="#D4B8D0" d="M5 80h1v1H5z"/><path fill="#F1E1EE" d="M6 80h1v1H6zM7 80h1v1H7z"/><path fill="#ECD2E5" d="M8 80h1v1H8z"/><path fill="#E3B8D5" d="M9 80h1v1H9zM10 80h1v1h-1zM11 80h1v1h-1zM12 80h1v1h-1zM13 80h1v1h-1zM14 80h1v1h-1zM15 80h1v1h-1zM16 80h1v1h-1zM17 80h1v1h-1zM18 80h1v1h-1zM19 80h1v1h-1zM20 80h1v1h-1zM21 80h1v1h-1zM22 80h1v1h-1zM23 80h1v1h-1zM24 80h1v1h-1zM25 80h1v1h-1zM26 80h1v1h-1zM27 80h1v1h-1zM28 80h1v1h-1zM29 80h1v1h-1zM30 80h1v1h-1zM31 80h1v1h-1zM32 80h1v1h-1zM33 80h1v1h-1zM34 80h1v1h-1zM35 80h1v1h-1zM36 80h1v1h-1z"/><path fill="#D7AEC9" d="M37 80h1v1h-1z"/><path fill="#B390A5" d="M38 80h1v1h-1z"/><path fill="#8F7281" d="M39 80h1v1h-1z"/><path fill="#836875" d="M40 80h1v1h-1z"/><path fill="#534045" d="M41 80h1v1h-1z"/><path fill="#3B2C2D" d="M42 80h1v1h-1z"/><path fill="#231815" d="M43 80h1v1h-1zM44 80h1v1h-1zM45 80h1v1h-1zM46 80h1v1h-1zM47 80h1v1h-1zM48 80h1v1h-1zM49 80h1v1h-1zM50 80h1v1h-1zM51 80h1v1h-1zM52 80h1v1h-1zM53 80h1v1h-1zM54 80h1v1h-1zM55 80h1v1h-1zM56 80h1v1h-1zM57 80h1v1h-1zM58 80h1v1h-1zM59 80h1v1h-1z"/><path fill="#935F8F" d="M1 81h1v1H1zM2 81h1v1H2zM3 81h1v1H3zM4 81h1v1H4z"/><path fill="#E5D1E2" d="M5 81h1v1H5z"/><path fill="#F1E1EE" d="M6 81h1v1H6zM7 81h1v1H7z"/><path fill="#E7C2DB" d="M8 81h1v1H8z"/><path fill="#E3B8D5" d="M9 81h1v1H9zM10 81h1v1h-1zM11 81h1v1h-1zM12 81h1v1h-1zM13 81h1v1h-1zM14 81h1v1h-1zM15 81h1v1h-1zM16 81h1v1h-1zM17 81h1v1h-1zM18 81h1v1h-1zM19 81h1v1h-1zM20 81h1v1h-1zM21 81h1v1h-1zM22 81h1v1h-1zM23 81h1v1h-1zM24 81h1v1h-1zM25 81h1v1h-1zM26 81h1v1h-1zM27 81h1v1h-1zM28 81h1v1h-1zM29 81h1v1h-1zM30 81h1v1h-1z"/><path fill="#BF9AB1" d="M31 81h1v1h-1z"/><path fill="#A78699" d="M32 81h1v1h-1z"/><path fill="#836875" d="M33 81h1v1h-1z"/><path fill="#6B545D" d="M34 81h1v1h-1z"/><path fill="#534045" d="M35 81h1v1h-1z"/><path fill="#231815" d="M36 81h1v1h-1zM37 81h1v1h-1zM38 81h1v1h-1zM39 81h1v1h-1zM40 81h1v1h-1zM41 81h1v1h-1zM42 81h1v1h-1zM43 81h1v1h-1zM44 81h1v1h-1zM45 81h1v1h-1zM46 81h1v1h-1zM47 81h1v1h-1zM48 81h1v1h-1zM49 81h1v1h-1zM50 81h1v1h-1zM51 81h1v1h-1zM52 81h1v1h-1zM53 81h1v1h-1zM54 81h1v1h-1zM55 81h1v1h-1zM56 81h1v1h-1zM57 81h1v1h-1zM58 81h1v1h-1z"/><path fill="#935F8F" d="M1 82h1v1H1zM2 82h1v1H2zM3 82h1v1H3z"/><path fill="#996795" d="M4 82h1v1H4z"/><path fill="#F1E1EE" d="M5 82h1v1H5zM6 82h1v1H6z"/><path fill="#EFDCEB" d="M7 82h1v1H7z"/><path fill="#E3B8D5" d="M8 82h1v1H8zM9 82h1v1H9zM10 82h1v1h-1zM11 82h1v1h-1zM12 82h1v1h-1zM13 82h1v1h-1zM14 82h1v1h-1zM15 82h1v1h-1zM16 82h1v1h-1zM17 82h1v1h-1zM18 82h1v1h-1zM19 82h1v1h-1zM20 82h1v1h-1zM21 82h1v1h-1zM22 82h1v1h-1zM23 82h1v1h-1z"/><path fill="#CBA4BD" d="M24 82h1v1h-1z"/><path fill="#B390A5" d="M25 82h1v1h-1z"/><path fill="#8F7281" d="M26 82h1v1h-1z"/><path fill="#775E69" d="M27 82h1v1h-1z"/><path fill="#534045" d="M28 82h1v1h-1z"/><path fill="#3B2C2D" d="M29 82h1v1h-1z"/><path fill="#231815" d="M30 82h1v1h-1zM31 82h1v1h-1zM32 82h1v1h-1zM33 82h1v1h-1zM34 82h1v1h-1zM35 82h1v1h-1zM36 82h1v1h-1zM37 82h1v1h-1zM38 82h1v1h-1zM39 82h1v1h-1zM40 82h1v1h-1zM41 82h1v1h-1zM42 82h1v1h-1zM43 82h1v1h-1zM44 82h1v1h-1zM45 82h1v1h-1zM46 82h1v1h-1zM47 82h1v1h-1zM48 82h1v1h-1zM49 82h1v1h-1zM50 82h1v1h-1zM51 82h1v1h-1zM52 82h1v1h-1z"/><path fill="#935F8F" d="M1 83h1v1H1zM2 83h1v1H2zM3 83h1v1H3z"/><path fill="#AB80A7" d="M4 83h1v1H4z"/><path fill="#F1E1EE" d="M5 83h1v1H5zM6 83h1v1H6z"/><path fill="#E8C7DE" d="M7 83h1v1H7z"/><path fill="#E3B8D5" d="M8 83h1v1H8zM9 83h1v1H9zM10 83h1v1h-1zM11 83h1v1h-1zM12 83h1v1h-1zM13 83h1v1h-1zM14 83h1v1h-1zM15 83h1v1h-1zM16 83h1v1h-1zM17 83h1v1h-1z"/><path fill="#B390A5" d="M18 83h1v1h-1z"/><path fill="#A78699" d="M19 83h1v1h-1z"/><path fill="#836875" d="M20 83h1v1h-1z"/><path fill="#5F4A51" d="M21 83h1v1h-1z"/><path fill="#534045" d="M22 83h1v1h-1z"/><path fill="#231815" d="M23 83h1v1h-1zM24 83h1v1h-1zM25 83h1v1h-1zM26 83h1v1h-1zM27 83h1v1h-1zM28 83h1v1h-1zM29 83h1v1h-1zM30 83h1v1h-1zM31 83h1v1h-1zM32 83h1v1h-1zM33 83h1v1h-1zM34 83h1v1h-1zM35 83h1v1h-1zM36 83h1v1h-1zM37 83h1v1h-1zM38 83h1v1h-1zM39 83h1v1h-1zM40 83h1v1h-1zM41 83h1v1h-1zM42 83h1v1h-1zM43 83h1v1h-1zM44 83h1v1h-1zM45 83h1v1h-1zM46 83h1v1h-1z"/><path fill="#935F8F" d="M0 84h1v1H0zM1 84h1v1H1zM2 84h1v1H2zM3 84h1v1H3z"/><path fill="#C2A0BF" d="M4 84h1v1H4z"/><path fill="#F1E1EE" d="M5 84h1v1H5z"/><path fill="#EFDCEB" d="M6 84h1v1H6z"/><path fill="#E3B8D5" d="M7 84h1v1H7zM8 84h1v1H8zM9 84h1v1H9zM10 84h1v1h-1z"/><path fill="#CBA4BD" d="M11 84h1v1h-1z"/><path fill="#B390A5" d="M12 84h1v1h-1z"/><path fill="#8F7281" d="M13 84h1v1h-1z"/><path fill="#775E69" d="M14 84h1v1h-1z"/><path fill="#534045" d="M15 84h1v1h-1z"/><path fill="#3B2C2D" d="M16 84h1v1h-1z"/><path fill="#231815" d="M17 84h1v1h-1zM18 84h1v1h-1zM19 84h1v1h-1zM20 84h1v1h-1zM21 84h1v1h-1zM22 84h1v1h-1zM23 84h1v1h-1zM24 84h1v1h-1zM25 84h1v1h-1zM26 84h1v1h-1zM27 84h1v1h-1zM28 84h1v1h-1zM29 84h1v1h-1zM30 84h1v1h-1zM31 84h1v1h-1zM32 84h1v1h-1zM33 84h1v1h-1zM34 84h1v1h-1zM35 84h1v1h-1zM36 84h1v1h-1zM37 84h1v1h-1zM38 84h1v1h-1zM39 84h1v1h-1z"/><path fill="#935F8F" d="M0 85h1v1H0zM1 85h1v1H1zM2 85h1v1H2zM3 85h1v1H3z"/><path fill="#D4B8D0" d="M4 85h1v1H4z"/><path fill="#BEAFB8" d="M5 85h1v1H5z"/><path fill="#9F8693" d="M6 85h1v1H6z"/><path fill="#836875" d="M7 85h1v1H7z"/><path fill="#5F4A51" d="M8 85h1v1H8z"/><path fill="#473639" d="M9 85h1v1H9z"/><path fill="#231815" d="M10 85h1v1h-1zM11 85h1v1h-1zM12 85h1v1h-1zM13 85h1v1h-1zM14 85h1v1h-1zM15 85h1v1h-1zM16 85h1v1h-1zM17 85h1v1h-1zM18 85h1v1h-1zM19 85h1v1h-1zM20 85h1v1h-1zM21 85h1v1h-1zM22 85h1v1h-1zM23 85h1v1h-1zM24 85h1v1h-1zM25 85h1v1h-1zM26 85h1v1h-1zM27 85h1v1h-1zM28 85h1v1h-1zM29 85h1v1h-1zM30 85h1v1h-1zM31 85h1v1h-1zM32 85h1v1h-1zM33 85h1v1h-1z"/><path fill="#855680" d="M0 86h1v1H0z"/><path fill="#54374A" d="M1 86h1v1H1z"/><path fill="#3F2A34" d="M2 86h1v1H2z"/><path fill="#2A1C1D" d="M3 86h1v1H3z"/><path fill="#231815" d="M4 86h1v1H4zM5 86h1v1H5zM6 86h1v1H6zM7 86h1v1H7zM8 86h1v1H8zM9 86h1v1H9zM10 86h1v1h-1zM11 86h1v1h-1zM12 86h1v1h-1zM13 86h1v1h-1zM14 86h1v1h-1zM15 86h1v1h-1zM16 86h1v1h-1zM17 86h1v1h-1zM18 86h1v1h-1zM19 86h1v1h-1zM20 86h1v1h-1zM21 86h1v1h-1zM22 86h1v1h-1zM23 86h1v1h-1zM24 86h1v1h-1zM25 86h1v1h-1zM26 86h1v1h-1zM0 87h1v1H0zM1 87h1v1H1zM2 87h1v1H2zM3 87h1v1H3zM4 87h1v1H4zM5 87h1v1H5zM6 87h1v1H6zM7 87h1v1H7zM8 87h1v1H8zM9 87h1v1H9zM10 87h1v1h-1zM11 87h1v1h-1zM12 87h1v1h-1zM13 87h1v1h-1zM14 87h1v1h-1zM15 87h1v1h-1zM16 87h1v1h-1zM17 87h1v1h-1zM18 87h1v1h-1zM19 87h1v1h-1zM20 87h1v1h-1zM0 88h1v1H0zM1 88h1v1H1zM2 88h1v1H2zM3 88h1v1H3zM4 88h1v1H4zM5 88h1v1H5zM6 88h1v1H6zM7 88h1v1H7zM8 88h1v1H8zM9 88h1v1H9zM10 88h1v1h-1zM11 88h1v1h-1zM12 88h1v1h-1zM13 88h1v1h-1zM0 89h1v1H0zM1 89h1v1H1zM2 89h1v1H2zM3 89h1v1H3zM4 89h1v1H4zM5 89h1v1H5zM6 89h1v1H6z"/></svg>