<svg baseProfile="full" height="90" width="72" xmlns="http://www.w3.org/2000/svg"><path fill="#231815" d="M36 0h1v1h-1zM37 0h1v1h-1zM38 0h1v1h-1zM39 0h1v1h-1zM40 0h1v1h-1zM41 0h1v1h-1zM42 0h1v1h-1zM43 0h1v1h-1zM44 0h1v1h-1zM35 1h1v1h-1zM36 1h1v1h-1zM37 1h1v1h-1zM38 1h1v1h-1zM39 1h1v1h-1zM40 1h1v1h-1zM41 1h1v1h-1zM42 1h1v1h-1zM43 1h1v1h-1zM44 1h1v1h-1zM45 1h1v1h-1zM33 2h1v1h-1zM34 2h1v1h-1zM35 2h1v1h-1zM36 2h1v1h-1zM37 2h1v1h-1zM38 2h1v1h-1zM39 2h1v1h-1zM40 2h1v1h-1zM41 2h1v1h-1zM42 2h1v1h-1zM43 2h1v1h-1zM44 2h1v1h-1zM45 2h1v1h-1zM32 3h1v1h-1zM33 3h1v1h-1zM34 3h1v1h-1zM35 3h1v1h-1zM36 3h1v1h-1z"/><path fill="#2D2320" d="M37 3h1v1h-1z"/><path fill="#6B6562" d="M38 3h1v1h-1z"/><path fill="#9F9B99" d="M39 3h1v1h-1z"/><path fill="#C8C7C5" d="M40 3h1v1h-1zM41 3h1v1h-1z"/><path fill="#94908E" d="M42 3h1v1h-1z"/><path fill="#231815" d="M43 3h1v1h-1zM44 3h1v1h-1zM45 3h1v1h-1zM52 3h1v1h-1zM53 3h1v1h-1zM54 3h1v1h-1zM55 3h1v1h-1zM56 3h1v1h-1zM57 3h1v1h-1zM58 3h1v1h-1zM59 3h1v1h-1zM60 3h1v1h-1zM61 3h1v1h-1zM62 3h1v1h-1zM63 3h1v1h-1zM64 3h1v1h-1zM31 4h1v1h-1zM32 4h1v1h-1zM33 4h1v1h-1zM34 4h1v1h-1zM35 4h1v1h-1z"/><path fill="#76706D" d="M36 4h1v1h-1z"/><path fill="#BEBCBA" d="M37 4h1v1h-1z"/><path fill="#C8C7C5" d="M38 4h1v1h-1zM39 4h1v1h-1zM40 4h1v1h-1zM41 4h1v1h-1zM42 4h1v1h-1z"/><path fill="#2D2320" d="M43 4h1v1h-1z"/><path fill="#231815" d="M44 4h1v1h-1zM45 4h1v1h-1zM48 4h1v1h-1zM49 4h1v1h-1zM50 4h1v1h-1zM51 4h1v1h-1zM52 4h1v1h-1zM53 4h1v1h-1zM54 4h1v1h-1zM55 4h1v1h-1zM56 4h1v1h-1zM57 4h1v1h-1zM58 4h1v1h-1zM59 4h1v1h-1zM60 4h1v1h-1zM61 4h1v1h-1zM62 4h1v1h-1zM63 4h1v1h-1zM64 4h1v1h-1zM65 4h1v1h-1zM66 4h1v1h-1zM30 5h1v1h-1zM31 5h1v1h-1zM32 5h1v1h-1zM33 5h1v1h-1z"/><path fill="#2D2320" d="M34 5h1v1h-1z"/><path fill="#9F9B99" d="M35 5h1v1h-1z"/><path fill="#C8C7C5" d="M36 5h1v1h-1zM37 5h1v1h-1zM38 5h1v1h-1zM39 5h1v1h-1zM40 5h1v1h-1zM41 5h1v1h-1zM42 5h1v1h-1z"/><path fill="#231815" d="M43 5h1v1h-1zM44 5h1v1h-1zM45 5h1v1h-1zM46 5h1v1h-1zM47 5h1v1h-1zM48 5h1v1h-1zM49 5h1v1h-1zM50 5h1v1h-1zM51 5h1v1h-1zM52 5h1v1h-1zM53 5h1v1h-1zM54 5h1v1h-1zM55 5h1v1h-1zM56 5h1v1h-1zM57 5h1v1h-1zM58 5h1v1h-1zM59 5h1v1h-1zM60 5h1v1h-1zM61 5h1v1h-1zM62 5h1v1h-1zM63 5h1v1h-1zM64 5h1v1h-1zM65 5h1v1h-1zM66 5h1v1h-1zM67 5h1v1h-1zM68 5h1v1h-1zM29 6h1v1h-1zM30 6h1v1h-1zM31 6h1v1h-1zM32 6h1v1h-1z"/><path fill="#2D2320" d="M33 6h1v1h-1z"/><path fill="#A9A6A4" d="M34 6h1v1h-1z"/><path fill="#C8C7C5" d="M35 6h1v1h-1zM36 6h1v1h-1zM37 6h1v1h-1zM38 6h1v1h-1zM39 6h1v1h-1zM40 6h1v1h-1zM41 6h1v1h-1z"/><path fill="#9F9B99" d="M42 6h1v1h-1z"/><path fill="#231815" d="M43 6h1v1h-1zM44 6h1v1h-1zM45 6h1v1h-1zM46 6h1v1h-1zM47 6h1v1h-1zM48 6h1v1h-1zM49 6h1v1h-1zM50 6h1v1h-1zM51 6h1v1h-1zM52 6h1v1h-1z"/><path fill="#4C4441" d="M53 6h1v1h-1z"/><path fill="#6B6562" d="M54 6h1v1h-1z"/><path fill="#8C8683" d="M55 6h1v1h-1z"/><path fill="#B8B2AF" d="M56 6h1v1h-1zM57 6h1v1h-1zM58 6h1v1h-1zM59 6h1v1h-1zM60 6h1v1h-1z"/><path fill="#928B88" d="M61 6h1v1h-1z"/><path fill="#6D6562" d="M62 6h1v1h-1z"/><path fill="#3C322F" d="M63 6h1v1h-1z"/><path fill="#231815" d="M64 6h1v1h-1zM65 6h1v1h-1zM66 6h1v1h-1zM67 6h1v1h-1zM68 6h1v1h-1zM69 6h1v1h-1zM20 7h1v1h-1zM21 7h1v1h-1zM22 7h1v1h-1zM23 7h1v1h-1zM24 7h1v1h-1zM25 7h1v1h-1zM29 7h1v1h-1zM30 7h1v1h-1zM31 7h1v1h-1z"/><path fill="#2D2320" d="M32 7h1v1h-1z"/><path fill="#A9A6A4" d="M33 7h1v1h-1z"/><path fill="#C8C7C5" d="M34 7h1v1h-1zM35 7h1v1h-1zM36 7h1v1h-1zM37 7h1v1h-1zM38 7h1v1h-1zM39 7h1v1h-1zM40 7h1v1h-1zM41 7h1v1h-1z"/><path fill="#615A57" d="M42 7h1v1h-1z"/><path fill="#231815" d="M43 7h1v1h-1zM44 7h1v1h-1zM45 7h1v1h-1zM46 7h1v1h-1zM47 7h1v1h-1zM48 7h1v1h-1z"/><path fill="#423936" d="M49 7h1v1h-1z"/><path fill="#76706D" d="M50 7h1v1h-1z"/><path fill="#A9A6A4" d="M51 7h1v1h-1z"/><path fill="#C8C7C5" d="M52 7h1v1h-1zM53 7h1v1h-1z"/><path fill="#CCCBC9" d="M54 7h1v1h-1z"/><path fill="#E7E3E0" d="M55 7h1v1h-1z"/><path fill="#E9E5E2" d="M56 7h1v1h-1zM57 7h1v1h-1zM58 7h1v1h-1zM59 7h1v1h-1zM60 7h1v1h-1zM61 7h1v1h-1zM62 7h1v1h-1zM63 7h1v1h-1z"/><path fill="#D0CBC8" d="M64 7h1v1h-1z"/><path fill="#7A726F" d="M65 7h1v1h-1z"/><path fill="#2F2522" d="M66 7h1v1h-1z"/><path fill="#231815" d="M67 7h1v1h-1zM68 7h1v1h-1zM69 7h1v1h-1zM70 7h1v1h-1zM19 8h1v1h-1zM20 8h1v1h-1zM21 8h1v1h-1zM22 8h1v1h-1zM23 8h1v1h-1zM24 8h1v1h-1zM25 8h1v1h-1zM28 8h1v1h-1zM29 8h1v1h-1zM30 8h1v1h-1zM31 8h1v1h-1z"/><path fill="#94908E" d="M32 8h1v1h-1z"/><path fill="#C8C7C5" d="M33 8h1v1h-1zM34 8h1v1h-1zM35 8h1v1h-1zM36 8h1v1h-1zM37 8h1v1h-1zM38 8h1v1h-1zM39 8h1v1h-1zM40 8h1v1h-1z"/><path fill="#BEBCBA" d="M41 8h1v1h-1z"/><path fill="#2D2320" d="M42 8h1v1h-1z"/><path fill="#231815" d="M43 8h1v1h-1zM44 8h1v1h-1zM45 8h1v1h-1zM46 8h1v1h-1z"/><path fill="#574F4C" d="M47 8h1v1h-1z"/><path fill="#B3B1AF" d="M48 8h1v1h-1z"/><path fill="#C8C7C5" d="M49 8h1v1h-1zM50 8h1v1h-1zM51 8h1v1h-1zM52 8h1v1h-1zM53 8h1v1h-1z"/><path fill="#E1DEDB" d="M54 8h1v1h-1z"/><path fill="#E9E5E2" d="M55 8h1v1h-1zM56 8h1v1h-1zM57 8h1v1h-1zM58 8h1v1h-1zM59 8h1v1h-1zM60 8h1v1h-1zM61 8h1v1h-1zM62 8h1v1h-1zM63 8h1v1h-1zM64 8h1v1h-1zM65 8h1v1h-1z"/><path fill="#DDD8D5" d="M66 8h1v1h-1z"/><path fill="#554B48" d="M67 8h1v1h-1z"/><path fill="#231815" d="M68 8h1v1h-1zM69 8h1v1h-1zM70 8h1v1h-1zM71 8h1v1h-1zM18 9h1v1h-1zM19 9h1v1h-1zM20 9h1v1h-1zM21 9h1v1h-1zM22 9h1v1h-1zM23 9h1v1h-1zM24 9h1v1h-1zM25 9h1v1h-1zM26 9h1v1h-1zM27 9h1v1h-1zM28 9h1v1h-1zM29 9h1v1h-1zM30 9h1v1h-1z"/><path fill="#76706D" d="M31 9h1v1h-1z"/><path fill="#C8C7C5" d="M32 9h1v1h-1zM33 9h1v1h-1zM34 9h1v1h-1zM35 9h1v1h-1zM36 9h1v1h-1zM37 9h1v1h-1zM38 9h1v1h-1zM39 9h1v1h-1zM40 9h1v1h-1z"/><path fill="#76706D" d="M41 9h1v1h-1z"/><path fill="#231815" d="M42 9h1v1h-1zM43 9h1v1h-1zM44 9h1v1h-1z"/><path fill="#2D2320" d="M45 9h1v1h-1z"/><path fill="#8A8583" d="M46 9h1v1h-1z"/><path fill="#C8C7C5" d="M47 9h1v1h-1zM48 9h1v1h-1zM49 9h1v1h-1zM50 9h1v1h-1zM51 9h1v1h-1zM52 9h1v1h-1z"/><path fill="#D9D6D4" d="M53 9h1v1h-1z"/><path fill="#E9E5E2" d="M54 9h1v1h-1zM55 9h1v1h-1zM56 9h1v1h-1zM57 9h1v1h-1zM58 9h1v1h-1zM59 9h1v1h-1zM60 9h1v1h-1zM61 9h1v1h-1zM62 9h1v1h-1zM63 9h1v1h-1zM64 9h1v1h-1zM65 9h1v1h-1zM66 9h1v1h-1z"/><path fill="#DDD8D5" d="M67 9h1v1h-1z"/><path fill="#3C322F" d="M68 9h1v1h-1z"/><path fill="#231815" d="M69 9h1v1h-1zM70 9h1v1h-1zM71 9h1v1h-1zM17 10h1v1h-1zM18 10h1v1h-1zM19 10h1v1h-1zM20 10h1v1h-1z"/><path fill="#382E2B" d="M21 10h1v1h-1z"/><path fill="#9F9B99" d="M22 10h1v1h-1z"/><path fill="#615A57" d="M23 10h1v1h-1z"/><path fill="#231815" d="M24 10h1v1h-1zM25 10h1v1h-1zM26 10h1v1h-1zM27 10h1v1h-1zM28 10h1v1h-1zM29 10h1v1h-1z"/><path fill="#423936" d="M30 10h1v1h-1z"/><path fill="#C8C7C5" d="M31 10h1v1h-1zM32 10h1v1h-1zM33 10h1v1h-1zM34 10h1v1h-1zM35 10h1v1h-1zM36 10h1v1h-1zM37 10h1v1h-1zM38 10h1v1h-1zM39 10h1v1h-1z"/><path fill="#BEBCBA" d="M40 10h1v1h-1z"/><path fill="#2D2320" d="M41 10h1v1h-1z"/><path fill="#231815" d="M42 10h1v1h-1zM43 10h1v1h-1zM44 10h1v1h-1z"/><path fill="#A9A6A4" d="M45 10h1v1h-1z"/><path fill="#C8C7C5" d="M46 10h1v1h-1zM47 10h1v1h-1zM48 10h1v1h-1zM49 10h1v1h-1zM50 10h1v1h-1zM51 10h1v1h-1z"/><path fill="#D0CFCC" d="M52 10h1v1h-1z"/><path fill="#E9E5E2" d="M53 10h1v1h-1zM54 10h1v1h-1zM55 10h1v1h-1zM56 10h1v1h-1zM57 10h1v1h-1zM58 10h1v1h-1zM59 10h1v1h-1zM60 10h1v1h-1zM61 10h1v1h-1zM62 10h1v1h-1zM63 10h1v1h-1zM64 10h1v1h-1zM65 10h1v1h-1zM66 10h1v1h-1zM67 10h1v1h-1z"/><path fill="#9F9895" d="M68 10h1v1h-1z"/><path fill="#231815" d="M69 10h1v1h-1zM70 10h1v1h-1zM71 10h1v1h-1zM17 11h1v1h-1zM18 11h1v1h-1zM19 11h1v1h-1z"/><path fill="#382E2B" d="M20 11h1v1h-1z"/><path fill="#BEBCBA" d="M21 11h1v1h-1z"/><path fill="#C8C7C5" d="M22 11h1v1h-1z"/><path fill="#A9A6A4" d="M23 11h1v1h-1z"/><path fill="#231815" d="M24 11h1v1h-1zM25 11h1v1h-1zM26 11h1v1h-1zM27 11h1v1h-1zM28 11h1v1h-1zM29 11h1v1h-1z"/><path fill="#9F9B99" d="M30 11h1v1h-1z"/><path fill="#C8C7C5" d="M31 11h1v1h-1zM32 11h1v1h-1zM33 11h1v1h-1zM34 11h1v1h-1zM35 11h1v1h-1zM36 11h1v1h-1zM37 11h1v1h-1zM38 11h1v1h-1zM39 11h1v1h-1z"/><path fill="#6B6562" d="M40 11h1v1h-1z"/><path fill="#231815" d="M41 11h1v1h-1zM42 11h1v1h-1zM43 11h1v1h-1z"/><path fill="#8A8583" d="M44 11h1v1h-1z"/><path fill="#C8C7C5" d="M45 11h1v1h-1zM46 11h1v1h-1zM47 11h1v1h-1zM48 11h1v1h-1zM49 11h1v1h-1zM50 11h1v1h-1z"/><path fill="#CAC9C7" d="M51 11h1v1h-1z"/><path fill="#E5E1DE" d="M52 11h1v1h-1z"/><path fill="#E9E5E2" d="M53 11h1v1h-1zM54 11h1v1h-1zM55 11h1v1h-1zM56 11h1v1h-1zM57 11h1v1h-1zM58 11h1v1h-1zM59 11h1v1h-1zM60 11h1v1h-1zM61 11h1v1h-1zM62 11h1v1h-1zM63 11h1v1h-1zM64 11h1v1h-1zM65 11h1v1h-1zM66 11h1v1h-1zM67 11h1v1h-1z"/><path fill="#C4BFBC" d="M68 11h1v1h-1z"/><path fill="#231815" d="M69 11h1v1h-1zM70 11h1v1h-1zM71 11h1v1h-1zM16 12h1v1h-1zM17 12h1v1h-1zM18 12h1v1h-1zM19 12h1v1h-1z"/><path fill="#9F9B99" d="M20 12h1v1h-1z"/><path fill="#C8C7C5" d="M21 12h1v1h-1zM22 12h1v1h-1zM23 12h1v1h-1z"/><path fill="#231815" d="M24 12h1v1h-1zM25 12h1v1h-1zM26 12h1v1h-1zM27 12h1v1h-1zM28 12h1v1h-1z"/><path fill="#615A57" d="M29 12h1v1h-1z"/><path fill="#C8C7C5" d="M30 12h1v1h-1zM31 12h1v1h-1zM32 12h1v1h-1zM33 12h1v1h-1zM34 12h1v1h-1zM35 12h1v1h-1zM36 12h1v1h-1zM37 12h1v1h-1zM38 12h1v1h-1z"/><path fill="#B3B1AF" d="M39 12h1v1h-1z"/><path fill="#231815" d="M40 12h1v1h-1zM41 12h1v1h-1zM42 12h1v1h-1z"/><path fill="#615A57" d="M43 12h1v1h-1z"/><path fill="#C8C7C5" d="M44 12h1v1h-1zM45 12h1v1h-1zM46 12h1v1h-1zM47 12h1v1h-1zM48 12h1v1h-1zM49 12h1v1h-1zM50 12h1v1h-1z"/><path fill="#DBD8D5" d="M51 12h1v1h-1z"/><path fill="#E9E5E2" d="M52 12h1v1h-1zM53 12h1v1h-1zM54 12h1v1h-1zM55 12h1v1h-1zM56 12h1v1h-1zM57 12h1v1h-1zM58 12h1v1h-1zM59 12h1v1h-1zM60 12h1v1h-1zM61 12h1v1h-1zM62 12h1v1h-1zM63 12h1v1h-1zM64 12h1v1h-1zM65 12h1v1h-1zM66 12h1v1h-1zM67 12h1v1h-1z"/><path fill="#C4BFBC" d="M68 12h1v1h-1z"/><path fill="#231815" d="M69 12h1v1h-1zM70 12h1v1h-1zM71 12h1v1h-1zM16 13h1v1h-1zM17 13h1v1h-1zM18 13h1v1h-1z"/><path fill="#615A57" d="M19 13h1v1h-1z"/><path fill="#C8C7C5" d="M20 13h1v1h-1zM21 13h1v1h-1zM22 13h1v1h-1zM23 13h1v1h-1z"/><path fill="#231815" d="M24 13h1v1h-1zM25 13h1v1h-1zM26 13h1v1h-1zM27 13h1v1h-1zM28 13h1v1h-1z"/><path fill="#B3B1AF" d="M29 13h1v1h-1z"/><path fill="#C8C7C5" d="M30 13h1v1h-1zM31 13h1v1h-1zM32 13h1v1h-1zM33 13h1v1h-1zM34 13h1v1h-1zM35 13h1v1h-1zM36 13h1v1h-1zM37 13h1v1h-1zM38 13h1v1h-1z"/><path fill="#4C4441" d="M39 13h1v1h-1z"/><path fill="#231815" d="M40 13h1v1h-1zM41 13h1v1h-1z"/><path fill="#382E2B" d="M42 13h1v1h-1z"/><path fill="#BEBCBA" d="M43 13h1v1h-1z"/><path fill="#C8C7C5" d="M44 13h1v1h-1zM45 13h1v1h-1zM46 13h1v1h-1zM47 13h1v1h-1zM48 13h1v1h-1zM49 13h1v1h-1z"/><path fill="#CCCBC9" d="M50 13h1v1h-1z"/><path fill="#E9E5E2" d="M51 13h1v1h-1zM52 13h1v1h-1zM53 13h1v1h-1zM54 13h1v1h-1zM55 13h1v1h-1zM56 13h1v1h-1zM57 13h1v1h-1zM58 13h1v1h-1zM59 13h1v1h-1zM60 13h1v1h-1zM61 13h1v1h-1zM62 13h1v1h-1zM63 13h1v1h-1zM64 13h1v1h-1zM65 13h1v1h-1zM66 13h1v1h-1zM67 13h1v1h-1z"/><path fill="#867F7C" d="M68 13h1v1h-1z"/><path fill="#231815" d="M69 13h1v1h-1zM70 13h1v1h-1zM71 13h1v1h-1zM15 14h1v1h-1zM16 14h1v1h-1zM17 14h1v1h-1zM18 14h1v1h-1z"/><path fill="#B3B1AF" d="M19 14h1v1h-1z"/><path fill="#C8C7C5" d="M20 14h1v1h-1zM21 14h1v1h-1zM22 14h1v1h-1zM23 14h1v1h-1z"/><path fill="#231815" d="M24 14h1v1h-1zM25 14h1v1h-1zM26 14h1v1h-1zM27 14h1v1h-1z"/><path fill="#615A57" d="M28 14h1v1h-1z"/><path fill="#C8C7C5" d="M29 14h1v1h-1zM30 14h1v1h-1zM31 14h1v1h-1zM32 14h1v1h-1zM33 14h1v1h-1zM34 14h1v1h-1zM35 14h1v1h-1zM36 14h1v1h-1zM37 14h1v1h-1z"/><path fill="#807A78" d="M38 14h1v1h-1z"/><path fill="#231815" d="M39 14h1v1h-1zM40 14h1v1h-1zM41 14h1v1h-1z"/><path fill="#9F9B99" d="M42 14h1v1h-1z"/><path fill="#C8C7C5" d="M43 14h1v1h-1zM44 14h1v1h-1zM45 14h1v1h-1zM46 14h1v1h-1zM47 14h1v1h-1zM48 14h1v1h-1zM49 14h1v1h-1z"/><path fill="#D6D4D2" d="M50 14h1v1h-1z"/><path fill="#E9E5E2" d="M51 14h1v1h-1zM52 14h1v1h-1zM53 14h1v1h-1zM54 14h1v1h-1zM55 14h1v1h-1zM56 14h1v1h-1zM57 14h1v1h-1zM58 14h1v1h-1zM59 14h1v1h-1zM60 14h1v1h-1zM61 14h1v1h-1zM62 14h1v1h-1zM63 14h1v1h-1zM64 14h1v1h-1zM65 14h1v1h-1zM66 14h1v1h-1z"/><path fill="#C4BFBC" d="M67 14h1v1h-1z"/><path fill="#2F2522" d="M68 14h1v1h-1z"/><path fill="#231815" d="M69 14h1v1h-1zM70 14h1v1h-1zM71 14h1v1h-1zM15 15h1v1h-1zM16 15h1v1h-1zM17 15h1v1h-1z"/><path fill="#574F4C" d="M18 15h1v1h-1z"/><path fill="#C8C7C5" d="M19 15h1v1h-1zM20 15h1v1h-1zM21 15h1v1h-1zM22 15h1v1h-1z"/><path fill="#BEBCBA" d="M23 15h1v1h-1z"/><path fill="#231815" d="M24 15h1v1h-1zM25 15h1v1h-1zM26 15h1v1h-1zM27 15h1v1h-1z"/><path fill="#B3B1AF" d="M28 15h1v1h-1z"/><path fill="#C8C7C5" d="M29 15h1v1h-1zM30 15h1v1h-1zM31 15h1v1h-1zM32 15h1v1h-1zM33 15h1v1h-1zM34 15h1v1h-1zM35 15h1v1h-1zM36 15h1v1h-1zM37 15h1v1h-1z"/><path fill="#4C4441" d="M38 15h1v1h-1z"/><path fill="#231815" d="M39 15h1v1h-1zM40 15h1v1h-1z"/><path fill="#6B6562" d="M41 15h1v1h-1z"/><path fill="#C8C7C5" d="M42 15h1v1h-1zM43 15h1v1h-1zM44 15h1v1h-1zM45 15h1v1h-1zM46 15h1v1h-1zM47 15h1v1h-1zM48 15h1v1h-1zM49 15h1v1h-1z"/><path fill="#D6D4D2" d="M50 15h1v1h-1z"/><path fill="#E9E5E2" d="M51 15h1v1h-1zM52 15h1v1h-1zM53 15h1v1h-1zM54 15h1v1h-1zM55 15h1v1h-1zM56 15h1v1h-1zM57 15h1v1h-1zM58 15h1v1h-1zM59 15h1v1h-1zM60 15h1v1h-1zM61 15h1v1h-1zM62 15h1v1h-1zM63 15h1v1h-1z"/><path fill="#B8B2AF" d="M64 15h1v1h-1z"/><path fill="#867F7C" d="M65 15h1v1h-1z"/><path fill="#554B48" d="M66 15h1v1h-1z"/><path fill="#231815" d="M67 15h1v1h-1zM68 15h1v1h-1zM69 15h1v1h-1zM70 15h1v1h-1zM71 15h1v1h-1zM15 16h1v1h-1zM16 16h1v1h-1zM17 16h1v1h-1z"/><path fill="#8A8583" d="M18 16h1v1h-1z"/><path fill="#C8C7C5" d="M19 16h1v1h-1zM20 16h1v1h-1zM21 16h1v1h-1zM22 16h1v1h-1z"/><path fill="#9F9B99" d="M23 16h1v1h-1z"/><path fill="#231815" d="M24 16h1v1h-1zM25 16h1v1h-1zM26 16h1v1h-1z"/><path fill="#615A57" d="M27 16h1v1h-1z"/><path fill="#C8C7C5" d="M28 16h1v1h-1zM29 16h1v1h-1zM30 16h1v1h-1zM31 16h1v1h-1zM32 16h1v1h-1zM33 16h1v1h-1zM34 16h1v1h-1zM35 16h1v1h-1zM36 16h1v1h-1zM37 16h1v1h-1z"/><path fill="#8A8583" d="M38 16h1v1h-1z"/><path fill="#231815" d="M39 16h1v1h-1z"/><path fill="#423936" d="M40 16h1v1h-1z"/><path fill="#BEBCBA" d="M41 16h1v1h-1z"/><path fill="#C8C7C5" d="M42 16h1v1h-1zM43 16h1v1h-1zM44 16h1v1h-1zM45 16h1v1h-1zM46 16h1v1h-1zM47 16h1v1h-1zM48 16h1v1h-1zM49 16h1v1h-1z"/><path fill="#CCCBC9" d="M50 16h1v1h-1z"/><path fill="#E9E5E2" d="M51 16h1v1h-1zM52 16h1v1h-1zM53 16h1v1h-1zM54 16h1v1h-1zM55 16h1v1h-1zM56 16h1v1h-1zM57 16h1v1h-1zM58 16h1v1h-1zM59 16h1v1h-1z"/><path fill="#D0CBC8" d="M60 16h1v1h-1z"/><path fill="#928B88" d="M61 16h1v1h-1z"/><path fill="#615855" d="M62 16h1v1h-1z"/><path fill="#2F2522" d="M63 16h1v1h-1z"/><path fill="#231815" d="M64 16h1v1h-1zM65 16h1v1h-1zM66 16h1v1h-1zM67 16h1v1h-1zM68 16h1v1h-1zM69 16h1v1h-1zM70 16h1v1h-1zM14 17h1v1h-1zM15 17h1v1h-1zM16 17h1v1h-1zM17 17h1v1h-1z"/><path fill="#BEBCBA" d="M18 17h1v1h-1z"/><path fill="#C8C7C5" d="M19 17h1v1h-1zM20 17h1v1h-1zM21 17h1v1h-1zM22 17h1v1h-1z"/><path fill="#8A8583" d="M23 17h1v1h-1z"/><path fill="#231815" d="M24 17h1v1h-1zM25 17h1v1h-1zM26 17h1v1h-1z"/><path fill="#9F9B99" d="M27 17h1v1h-1z"/><path fill="#C8C7C5" d="M28 17h1v1h-1zM29 17h1v1h-1zM30 17h1v1h-1zM31 17h1v1h-1zM32 17h1v1h-1zM33 17h1v1h-1zM34 17h1v1h-1zM35 17h1v1h-1zM36 17h1v1h-1zM37 17h1v1h-1zM38 17h1v1h-1zM39 17h1v1h-1zM40 17h1v1h-1zM41 17h1v1h-1zM42 17h1v1h-1zM43 17h1v1h-1zM44 17h1v1h-1zM45 17h1v1h-1zM46 17h1v1h-1zM47 17h1v1h-1zM48 17h1v1h-1zM49 17h1v1h-1zM50 17h1v1h-1z"/><path fill="#D9D6D4" d="M51 17h1v1h-1z"/><path fill="#E9E5E2" d="M52 17h1v1h-1zM53 17h1v1h-1zM54 17h1v1h-1zM55 17h1v1h-1zM56 17h1v1h-1z"/><path fill="#D0CBC8" d="M57 17h1v1h-1z"/><path fill="#928B88" d="M58 17h1v1h-1z"/><path fill="#483E3B" d="M59 17h1v1h-1z"/><path fill="#231815" d="M60 17h1v1h-1zM61 17h1v1h-1zM62 17h1v1h-1zM63 17h1v1h-1zM64 17h1v1h-1zM65 17h1v1h-1zM66 17h1v1h-1zM67 17h1v1h-1zM68 17h1v1h-1zM69 17h1v1h-1zM14 18h1v1h-1zM15 18h1v1h-1zM16 18h1v1h-1z"/><path fill="#423936" d="M17 18h1v1h-1z"/><path fill="#C8C7C5" d="M18 18h1v1h-1zM19 18h1v1h-1zM20 18h1v1h-1zM21 18h1v1h-1zM22 18h1v1h-1z"/><path fill="#6B6562" d="M23 18h1v1h-1z"/><path fill="#231815" d="M24 18h1v1h-1zM25 18h1v1h-1z"/><path fill="#382E2B" d="M26 18h1v1h-1z"/><path fill="#C8C7C5" d="M27 18h1v1h-1zM28 18h1v1h-1zM29 18h1v1h-1zM30 18h1v1h-1zM31 18h1v1h-1zM32 18h1v1h-1zM33 18h1v1h-1zM34 18h1v1h-1zM35 18h1v1h-1zM36 18h1v1h-1zM37 18h1v1h-1zM38 18h1v1h-1zM39 18h1v1h-1zM40 18h1v1h-1zM41 18h1v1h-1zM42 18h1v1h-1zM43 18h1v1h-1zM44 18h1v1h-1zM45 18h1v1h-1zM46 18h1v1h-1zM47 18h1v1h-1zM48 18h1v1h-1zM49 18h1v1h-1zM50 18h1v1h-1zM51 18h1v1h-1z"/><path fill="#DDDAD7" d="M52 18h1v1h-1z"/><path fill="#E9E5E2" d="M53 18h1v1h-1z"/><path fill="#D0CBC8" d="M54 18h1v1h-1z"/><path fill="#928B88" d="M55 18h1v1h-1z"/><path fill="#483E3B" d="M56 18h1v1h-1z"/><path fill="#231815" d="M57 18h1v1h-1zM58 18h1v1h-1zM59 18h1v1h-1zM60 18h1v1h-1zM61 18h1v1h-1zM62 18h1v1h-1zM63 18h1v1h-1zM64 18h1v1h-1zM65 18h1v1h-1zM66 18h1v1h-1zM67 18h1v1h-1zM13 19h1v1h-1zM14 19h1v1h-1zM15 19h1v1h-1zM16 19h1v1h-1z"/><path fill="#6B6562" d="M17 19h1v1h-1z"/><path fill="#C8C7C5" d="M18 19h1v1h-1zM19 19h1v1h-1zM20 19h1v1h-1zM21 19h1v1h-1zM22 19h1v1h-1z"/><path fill="#4C4441" d="M23 19h1v1h-1z"/><path fill="#231815" d="M24 19h1v1h-1zM25 19h1v1h-1z"/><path fill="#807A78" d="M26 19h1v1h-1z"/><path fill="#C8C7C5" d="M27 19h1v1h-1zM28 19h1v1h-1zM29 19h1v1h-1zM30 19h1v1h-1zM31 19h1v1h-1zM32 19h1v1h-1zM33 19h1v1h-1zM34 19h1v1h-1zM35 19h1v1h-1zM36 19h1v1h-1zM37 19h1v1h-1zM38 19h1v1h-1zM39 19h1v1h-1zM40 19h1v1h-1zM41 19h1v1h-1zM42 19h1v1h-1zM43 19h1v1h-1zM44 19h1v1h-1zM45 19h1v1h-1zM46 19h1v1h-1zM47 19h1v1h-1zM48 19h1v1h-1zM49 19h1v1h-1zM50 19h1v1h-1zM51 19h1v1h-1z"/><path fill="#8A8583" d="M52 19h1v1h-1z"/><path fill="#524946" d="M53 19h1v1h-1z"/><path fill="#231815" d="M54 19h1v1h-1zM55 19h1v1h-1zM56 19h1v1h-1zM57 19h1v1h-1zM58 19h1v1h-1zM59 19h1v1h-1zM60 19h1v1h-1zM61 19h1v1h-1zM62 19h1v1h-1zM63 19h1v1h-1zM11 20h1v1h-1zM12 20h1v1h-1zM13 20h1v1h-1zM14 20h1v1h-1zM15 20h1v1h-1zM16 20h1v1h-1z"/><path fill="#76706D" d="M17 20h1v1h-1z"/><path fill="#C8C7C5" d="M18 20h1v1h-1zM19 20h1v1h-1zM20 20h1v1h-1zM21 20h1v1h-1zM22 20h1v1h-1z"/><path fill="#423936" d="M23 20h1v1h-1z"/><path fill="#231815" d="M24 20h1v1h-1zM25 20h1v1h-1z"/><path fill="#B3B1AF" d="M26 20h1v1h-1z"/><path fill="#C8C7C5" d="M27 20h1v1h-1zM28 20h1v1h-1zM29 20h1v1h-1zM30 20h1v1h-1zM31 20h1v1h-1zM32 20h1v1h-1zM33 20h1v1h-1zM34 20h1v1h-1zM35 20h1v1h-1zM36 20h1v1h-1zM37 20h1v1h-1zM38 20h1v1h-1zM39 20h1v1h-1zM40 20h1v1h-1zM41 20h1v1h-1zM42 20h1v1h-1zM43 20h1v1h-1zM44 20h1v1h-1zM45 20h1v1h-1zM46 20h1v1h-1zM47 20h1v1h-1zM48 20h1v1h-1z"/><path fill="#B3B1AF" d="M49 20h1v1h-1z"/><path fill="#6B6562" d="M50 20h1v1h-1z"/><path fill="#2D2320" d="M51 20h1v1h-1z"/><path fill="#231815" d="M52 20h1v1h-1zM53 20h1v1h-1zM54 20h1v1h-1zM55 20h1v1h-1zM56 20h1v1h-1zM57 20h1v1h-1zM58 20h1v1h-1zM59 20h1v1h-1zM60 20h1v1h-1zM10 21h1v1h-1zM11 21h1v1h-1zM12 21h1v1h-1zM13 21h1v1h-1zM14 21h1v1h-1zM15 21h1v1h-1z"/><path fill="#2B211E" d="M16 21h1v1h-1z"/><path fill="#AFADAB" d="M17 21h1v1h-1z"/><path fill="#C8C7C5" d="M18 21h1v1h-1zM19 21h1v1h-1zM20 21h1v1h-1zM21 21h1v1h-1zM22 21h1v1h-1z"/><path fill="#A9A6A4" d="M23 21h1v1h-1z"/><path fill="#574F4C" d="M24 21h1v1h-1z"/><path fill="#94908E" d="M25 21h1v1h-1z"/><path fill="#C8C7C5" d="M26 21h1v1h-1zM27 21h1v1h-1zM28 21h1v1h-1zM29 21h1v1h-1zM30 21h1v1h-1zM31 21h1v1h-1zM32 21h1v1h-1zM33 21h1v1h-1zM34 21h1v1h-1zM35 21h1v1h-1zM36 21h1v1h-1zM37 21h1v1h-1zM38 21h1v1h-1zM39 21h1v1h-1zM40 21h1v1h-1zM41 21h1v1h-1zM42 21h1v1h-1zM43 21h1v1h-1zM44 21h1v1h-1zM45 21h1v1h-1zM46 21h1v1h-1z"/><path fill="#9F9B99" d="M47 21h1v1h-1z"/><path fill="#574F4C" d="M48 21h1v1h-1z"/><path fill="#231815" d="M49 21h1v1h-1zM50 21h1v1h-1zM51 21h1v1h-1zM52 21h1v1h-1zM53 21h1v1h-1zM54 21h1v1h-1zM55 21h1v1h-1zM56 21h1v1h-1zM57 21h1v1h-1zM9 22h1v1H9zM10 22h1v1h-1zM11 22h1v1h-1zM12 22h1v1h-1zM13 22h1v1h-1z"/><path fill="#443B39" d="M14 22h1v1h-1z"/><path fill="#766E6E" d="M15 22h1v1h-1z"/><path fill="#9F999B" d="M16 22h1v1h-1z"/><path fill="#C0BEBD" d="M17 22h1v1h-1z"/><path fill="#C8C7C5" d="M18 22h1v1h-1zM19 22h1v1h-1zM20 22h1v1h-1zM21 22h1v1h-1zM22 22h1v1h-1zM23 22h1v1h-1zM24 22h1v1h-1zM25 22h1v1h-1zM26 22h1v1h-1zM27 22h1v1h-1zM28 22h1v1h-1zM29 22h1v1h-1zM30 22h1v1h-1zM31 22h1v1h-1zM32 22h1v1h-1zM33 22h1v1h-1zM34 22h1v1h-1zM35 22h1v1h-1zM36 22h1v1h-1zM37 22h1v1h-1zM38 22h1v1h-1zM39 22h1v1h-1zM40 22h1v1h-1zM41 22h1v1h-1zM42 22h1v1h-1zM43 22h1v1h-1zM44 22h1v1h-1z"/><path fill="#8A8583" d="M45 22h1v1h-1z"/><path fill="#4C4441" d="M46 22h1v1h-1z"/><path fill="#231815" d="M47 22h1v1h-1zM48 22h1v1h-1zM49 22h1v1h-1zM50 22h1v1h-1zM51 22h1v1h-1zM52 22h1v1h-1zM53 22h1v1h-1zM54 22h1v1h-1zM8 23h1v1H8zM9 23h1v1H9zM10 23h1v1h-1zM11 23h1v1h-1z"/><path fill="#2D2320" d="M12 23h1v1h-1z"/><path fill="#9F9B99" d="M13 23h1v1h-1z"/><path fill="#AFABAC" d="M14 23h1v1h-1z"/><path fill="#A7A2A4" d="M15 23h1v1h-1zM16 23h1v1h-1z"/><path fill="#C0BEBD" d="M17 23h1v1h-1z"/><path fill="#C8C7C5" d="M18 23h1v1h-1zM19 23h1v1h-1zM20 23h1v1h-1zM21 23h1v1h-1zM22 23h1v1h-1zM23 23h1v1h-1zM24 23h1v1h-1zM25 23h1v1h-1zM26 23h1v1h-1zM27 23h1v1h-1zM28 23h1v1h-1zM29 23h1v1h-1zM30 23h1v1h-1zM31 23h1v1h-1zM32 23h1v1h-1zM33 23h1v1h-1zM34 23h1v1h-1zM35 23h1v1h-1zM36 23h1v1h-1zM37 23h1v1h-1zM38 23h1v1h-1zM39 23h1v1h-1zM40 23h1v1h-1zM41 23h1v1h-1zM42 23h1v1h-1z"/><path fill="#8A8583" d="M43 23h1v1h-1z"/><path fill="#382E2B" d="M44 23h1v1h-1z"/><path fill="#231815" d="M45 23h1v1h-1zM46 23h1v1h-1zM47 23h1v1h-1zM48 23h1v1h-1zM49 23h1v1h-1zM50 23h1v1h-1zM51 23h1v1h-1zM8 24h1v1H8zM9 24h1v1H9zM10 24h1v1h-1z"/><path fill="#2D2320" d="M11 24h1v1h-1z"/><path fill="#A9A6A4" d="M12 24h1v1h-1z"/><path fill="#C8C7C5" d="M13 24h1v1h-1z"/><path fill="#AFABAC" d="M14 24h1v1h-1z"/><path fill="#A7A2A4" d="M15 24h1v1h-1zM16 24h1v1h-1z"/><path fill="#C0BEBD" d="M17 24h1v1h-1z"/><path fill="#C8C7C5" d="M18 24h1v1h-1zM19 24h1v1h-1zM20 24h1v1h-1zM21 24h1v1h-1zM22 24h1v1h-1zM23 24h1v1h-1zM24 24h1v1h-1zM25 24h1v1h-1zM26 24h1v1h-1zM27 24h1v1h-1zM28 24h1v1h-1zM29 24h1v1h-1zM30 24h1v1h-1zM31 24h1v1h-1zM32 24h1v1h-1zM33 24h1v1h-1zM34 24h1v1h-1zM35 24h1v1h-1zM36 24h1v1h-1zM37 24h1v1h-1zM38 24h1v1h-1zM39 24h1v1h-1zM40 24h1v1h-1z"/><path fill="#9F9B99" d="M41 24h1v1h-1z"/><path fill="#423936" d="M42 24h1v1h-1z"/><path fill="#231815" d="M43 24h1v1h-1zM44 24h1v1h-1zM45 24h1v1h-1zM46 24h1v1h-1zM47 24h1v1h-1zM48 24h1v1h-1zM49 24h1v1h-1zM7 25h1v1H7zM8 25h1v1H8zM9 25h1v1H9zM10 25h1v1h-1z"/><path fill="#A9A6A4" d="M11 25h1v1h-1z"/><path fill="#C8C7C5" d="M12 25h1v1h-1zM13 25h1v1h-1z"/><path fill="#B5B2B2" d="M14 25h1v1h-1z"/><path fill="#A7A2A4" d="M15 25h1v1h-1zM16 25h1v1h-1z"/><path fill="#B8B5B5" d="M17 25h1v1h-1z"/><path fill="#C8C7C5" d="M18 25h1v1h-1zM19 25h1v1h-1zM20 25h1v1h-1zM21 25h1v1h-1zM22 25h1v1h-1zM23 25h1v1h-1zM24 25h1v1h-1zM25 25h1v1h-1zM26 25h1v1h-1zM27 25h1v1h-1zM28 25h1v1h-1zM29 25h1v1h-1zM30 25h1v1h-1zM31 25h1v1h-1zM32 25h1v1h-1zM33 25h1v1h-1zM34 25h1v1h-1zM35 25h1v1h-1zM36 25h1v1h-1zM37 25h1v1h-1zM38 25h1v1h-1z"/><path fill="#A9A6A4" d="M39 25h1v1h-1z"/><path fill="#4C4441" d="M40 25h1v1h-1z"/><path fill="#231815" d="M41 25h1v1h-1zM42 25h1v1h-1zM43 25h1v1h-1zM44 25h1v1h-1zM45 25h1v1h-1zM46 25h1v1h-1zM47 25h1v1h-1zM7 26h1v1H7zM8 26h1v1H8zM9 26h1v1H9z"/><path fill="#615A57" d="M10 26h1v1h-1z"/><path fill="#C8C7C5" d="M11 26h1v1h-1zM12 26h1v1h-1zM13 26h1v1h-1z"/><path fill="#BCB9B9" d="M14 26h1v1h-1z"/><path fill="#A7A2A4" d="M15 26h1v1h-1zM16 26h1v1h-1z"/><path fill="#ABA7A8" d="M17 26h1v1h-1z"/><path fill="#C8C7C5" d="M18 26h1v1h-1zM19 26h1v1h-1zM20 26h1v1h-1zM21 26h1v1h-1zM22 26h1v1h-1zM23 26h1v1h-1zM24 26h1v1h-1zM25 26h1v1h-1zM26 26h1v1h-1zM27 26h1v1h-1zM28 26h1v1h-1zM29 26h1v1h-1zM30 26h1v1h-1zM31 26h1v1h-1zM32 26h1v1h-1zM33 26h1v1h-1zM34 26h1v1h-1zM35 26h1v1h-1zM36 26h1v1h-1z"/><path fill="#BEBCBA" d="M37 26h1v1h-1z"/><path fill="#6B6562" d="M38 26h1v1h-1z"/><path fill="#231815" d="M39 26h1v1h-1zM40 26h1v1h-1zM41 26h1v1h-1zM42 26h1v1h-1zM43 26h1v1h-1zM44 26h1v1h-1zM45 26h1v1h-1zM7 27h1v1H7zM8 27h1v1H8zM9 27h1v1H9z"/><path fill="#9F9B99" d="M10 27h1v1h-1z"/><path fill="#C8C7C5" d="M11 27h1v1h-1zM12 27h1v1h-1zM13 27h1v1h-1z"/><path fill="#C6C5C3" d="M14 27h1v1h-1z"/><path fill="#A7A2A4" d="M15 27h1v1h-1zM16 27h1v1h-1zM17 27h1v1h-1z"/><path fill="#BCB9B9" d="M18 27h1v1h-1z"/><path fill="#C8C7C5" d="M19 27h1v1h-1zM20 27h1v1h-1zM21 27h1v1h-1zM22 27h1v1h-1zM23 27h1v1h-1zM24 27h1v1h-1zM25 27h1v1h-1zM26 27h1v1h-1zM27 27h1v1h-1zM28 27h1v1h-1zM29 27h1v1h-1zM30 27h1v1h-1zM31 27h1v1h-1zM32 27h1v1h-1zM33 27h1v1h-1zM34 27h1v1h-1zM35 27h1v1h-1z"/><path fill="#94908E" d="M36 27h1v1h-1z"/><path fill="#2D2320" d="M37 27h1v1h-1z"/><path fill="#231815" d="M38 27h1v1h-1zM39 27h1v1h-1zM40 27h1v1h-1zM41 27h1v1h-1zM42 27h1v1h-1zM43 27h1v1h-1zM7 28h1v1H7zM8 28h1v1H8zM9 28h1v1H9z"/><path fill="#C8C7C5" d="M10 28h1v1h-1zM11 28h1v1h-1zM12 28h1v1h-1zM13 28h1v1h-1zM14 28h1v1h-1z"/><path fill="#B3B0B0" d="M15 28h1v1h-1z"/><path fill="#A7A2A4" d="M16 28h1v1h-1zM17 28h1v1h-1z"/><path fill="#B8B5B5" d="M18 28h1v1h-1z"/><path fill="#C8C7C5" d="M19 28h1v1h-1zM20 28h1v1h-1zM21 28h1v1h-1zM22 28h1v1h-1zM23 28h1v1h-1zM24 28h1v1h-1zM25 28h1v1h-1zM26 28h1v1h-1zM27 28h1v1h-1zM28 28h1v1h-1zM29 28h1v1h-1zM30 28h1v1h-1zM31 28h1v1h-1zM32 28h1v1h-1zM33 28h1v1h-1z"/><path fill="#BEBCBA" d="M34 28h1v1h-1z"/><path fill="#4C4441" d="M35 28h1v1h-1z"/><path fill="#231815" d="M36 28h1v1h-1zM37 28h1v1h-1zM38 28h1v1h-1zM39 28h1v1h-1zM40 28h1v1h-1zM41 28h1v1h-1zM7 29h1v1H7zM8 29h1v1H8zM9 29h1v1H9z"/><path fill="#C8C7C5" d="M10 29h1v1h-1zM11 29h1v1h-1zM12 29h1v1h-1zM13 29h1v1h-1zM14 29h1v1h-1z"/><path fill="#C6C5C3" d="M15 29h1v1h-1z"/><path fill="#B3B0B0" d="M16 29h1v1h-1z"/><path fill="#B1AEAE" d="M17 29h1v1h-1z"/><path fill="#C6C5C3" d="M18 29h1v1h-1z"/><path fill="#C8C7C5" d="M19 29h1v1h-1zM20 29h1v1h-1zM21 29h1v1h-1zM22 29h1v1h-1zM23 29h1v1h-1zM24 29h1v1h-1zM25 29h1v1h-1zM26 29h1v1h-1zM27 29h1v1h-1zM28 29h1v1h-1zM29 29h1v1h-1zM30 29h1v1h-1zM31 29h1v1h-1zM32 29h1v1h-1z"/><path fill="#94908E" d="M33 29h1v1h-1z"/><path fill="#2D2320" d="M34 29h1v1h-1z"/><path fill="#231815" d="M35 29h1v1h-1zM36 29h1v1h-1zM37 29h1v1h-1zM38 29h1v1h-1zM39 29h1v1h-1zM7 30h1v1H7zM8 30h1v1H8zM9 30h1v1H9z"/><path fill="#B3B1AF" d="M10 30h1v1h-1z"/><path fill="#C8C7C5" d="M11 30h1v1h-1zM12 30h1v1h-1zM13 30h1v1h-1zM14 30h1v1h-1zM15 30h1v1h-1zM16 30h1v1h-1zM17 30h1v1h-1zM18 30h1v1h-1zM19 30h1v1h-1zM20 30h1v1h-1zM21 30h1v1h-1zM22 30h1v1h-1zM23 30h1v1h-1zM24 30h1v1h-1zM25 30h1v1h-1zM26 30h1v1h-1zM27 30h1v1h-1zM28 30h1v1h-1zM29 30h1v1h-1zM30 30h1v1h-1z"/><path fill="#BEBCBA" d="M31 30h1v1h-1z"/><path fill="#615A57" d="M32 30h1v1h-1z"/><path fill="#231815" d="M33 30h1v1h-1zM34 30h1v1h-1zM35 30h1v1h-1zM36 30h1v1h-1zM37 30h1v1h-1zM38 30h1v1h-1zM7 31h1v1H7zM8 31h1v1H8zM9 31h1v1H9z"/><path fill="#76706D" d="M10 31h1v1h-1z"/><path fill="#C8C7C5" d="M11 31h1v1h-1zM12 31h1v1h-1zM13 31h1v1h-1zM14 31h1v1h-1zM15 31h1v1h-1zM16 31h1v1h-1zM17 31h1v1h-1zM18 31h1v1h-1zM19 31h1v1h-1zM20 31h1v1h-1zM21 31h1v1h-1zM22 31h1v1h-1zM23 31h1v1h-1zM24 31h1v1h-1zM25 31h1v1h-1zM26 31h1v1h-1zM27 31h1v1h-1zM28 31h1v1h-1zM29 31h1v1h-1z"/><path fill="#A9A6A4" d="M30 31h1v1h-1z"/><path fill="#423936" d="M31 31h1v1h-1z"/><path fill="#231815" d="M32 31h1v1h-1zM33 31h1v1h-1zM34 31h1v1h-1zM35 31h1v1h-1zM36 31h1v1h-1zM7 32h1v1H7zM8 32h1v1H8zM9 32h1v1H9z"/><path fill="#2D2320" d="M10 32h1v1h-1z"/><path fill="#B3B1AF" d="M11 32h1v1h-1z"/><path fill="#C8C7C5" d="M12 32h1v1h-1zM13 32h1v1h-1zM14 32h1v1h-1zM15 32h1v1h-1zM16 32h1v1h-1zM17 32h1v1h-1zM18 32h1v1h-1zM19 32h1v1h-1zM20 32h1v1h-1zM21 32h1v1h-1zM22 32h1v1h-1zM23 32h1v1h-1zM24 32h1v1h-1zM25 32h1v1h-1zM26 32h1v1h-1zM27 32h1v1h-1zM28 32h1v1h-1z"/><path fill="#94908E" d="M29 32h1v1h-1z"/><path fill="#2D2320" d="M30 32h1v1h-1z"/><path fill="#231815" d="M31 32h1v1h-1zM32 32h1v1h-1zM33 32h1v1h-1zM34 32h1v1h-1zM35 32h1v1h-1zM8 33h1v1H8zM9 33h1v1H9zM10 33h1v1h-1z"/><path fill="#4C4441" d="M11 33h1v1h-1z"/><path fill="#C8C7C5" d="M12 33h1v1h-1zM13 33h1v1h-1zM14 33h1v1h-1zM15 33h1v1h-1zM16 33h1v1h-1zM17 33h1v1h-1zM18 33h1v1h-1zM19 33h1v1h-1zM20 33h1v1h-1zM21 33h1v1h-1zM22 33h1v1h-1zM23 33h1v1h-1zM24 33h1v1h-1zM25 33h1v1h-1zM26 33h1v1h-1zM27 33h1v1h-1z"/><path fill="#807A78" d="M28 33h1v1h-1z"/><path fill="#231815" d="M29 33h1v1h-1zM30 33h1v1h-1zM31 33h1v1h-1zM32 33h1v1h-1zM33 33h1v1h-1zM8 34h1v1H8zM9 34h1v1H9zM10 34h1v1h-1zM11 34h1v1h-1z"/><path fill="#807A78" d="M12 34h1v1h-1z"/><path fill="#C8C7C5" d="M13 34h1v1h-1zM14 34h1v1h-1zM15 34h1v1h-1zM16 34h1v1h-1zM17 34h1v1h-1zM18 34h1v1h-1zM19 34h1v1h-1zM20 34h1v1h-1zM21 34h1v1h-1zM22 34h1v1h-1zM23 34h1v1h-1zM24 34h1v1h-1zM25 34h1v1h-1zM26 34h1v1h-1z"/><path fill="#615A57" d="M27 34h1v1h-1z"/><path fill="#231815" d="M28 34h1v1h-1zM29 34h1v1h-1zM30 34h1v1h-1zM31 34h1v1h-1zM32 34h1v1h-1zM9 35h1v1H9zM10 35h1v1h-1zM11 35h1v1h-1zM12 35h1v1h-1z"/><path fill="#A9A6A4" d="M13 35h1v1h-1z"/><path fill="#C8C7C5" d="M14 35h1v1h-1zM15 35h1v1h-1zM16 35h1v1h-1zM17 35h1v1h-1zM18 35h1v1h-1zM19 35h1v1h-1zM20 35h1v1h-1zM21 35h1v1h-1zM22 35h1v1h-1zM23 35h1v1h-1zM24 35h1v1h-1zM25 35h1v1h-1z"/><path fill="#615A57" d="M26 35h1v1h-1z"/><path fill="#231815" d="M27 35h1v1h-1zM28 35h1v1h-1zM29 35h1v1h-1zM30 35h1v1h-1zM31 35h1v1h-1zM9 36h1v1H9zM10 36h1v1h-1zM11 36h1v1h-1zM12 36h1v1h-1z"/><path fill="#4C4441" d="M13 36h1v1h-1z"/><path fill="#C8C7C5" d="M14 36h1v1h-1zM15 36h1v1h-1zM16 36h1v1h-1zM17 36h1v1h-1zM18 36h1v1h-1zM19 36h1v1h-1zM20 36h1v1h-1zM21 36h1v1h-1zM22 36h1v1h-1zM23 36h1v1h-1zM24 36h1v1h-1z"/><path fill="#615A57" d="M25 36h1v1h-1z"/><path fill="#231815" d="M26 36h1v1h-1zM27 36h1v1h-1zM28 36h1v1h-1zM29 36h1v1h-1zM30 36h1v1h-1zM10 37h1v1h-1zM11 37h1v1h-1zM12 37h1v1h-1zM13 37h1v1h-1z"/><path fill="#9B9795" d="M14 37h1v1h-1z"/><path fill="#C0BEBD" d="M15 37h1v1h-1zM16 37h1v1h-1zM17 37h1v1h-1zM18 37h1v1h-1zM19 37h1v1h-1zM20 37h1v1h-1zM21 37h1v1h-1z"/><path fill="#BAB7B7" d="M22 37h1v1h-1z"/><path fill="#B8B5B5" d="M23 37h1v1h-1z"/><path fill="#5F5755" d="M24 37h1v1h-1z"/><path fill="#231815" d="M25 37h1v1h-1zM26 37h1v1h-1zM27 37h1v1h-1zM28 37h1v1h-1zM11 38h1v1h-1zM12 38h1v1h-1zM13 38h1v1h-1z"/><path fill="#554C4B" d="M14 38h1v1h-1z"/><path fill="#A7A2A4" d="M15 38h1v1h-1zM16 38h1v1h-1zM17 38h1v1h-1zM18 38h1v1h-1zM19 38h1v1h-1zM20 38h1v1h-1zM21 38h1v1h-1zM22 38h1v1h-1z"/><path fill="#554C4B" d="M23 38h1v1h-1z"/><path fill="#231815" d="M24 38h1v1h-1zM25 38h1v1h-1zM26 38h1v1h-1zM27 38h1v1h-1zM11 39h1v1h-1zM12 39h1v1h-1zM13 39h1v1h-1z"/><path fill="#443B39" d="M14 39h1v1h-1z"/><path fill="#A7A2A4" d="M15 39h1v1h-1zM16 39h1v1h-1zM17 39h1v1h-1zM18 39h1v1h-1zM19 39h1v1h-1zM20 39h1v1h-1zM21 39h1v1h-1z"/><path fill="#6D6665" d="M22 39h1v1h-1z"/><path fill="#231815" d="M23 39h1v1h-1zM24 39h1v1h-1zM25 39h1v1h-1zM26 39h1v1h-1zM11 40h1v1h-1zM12 40h1v1h-1zM13 40h1v1h-1z"/><path fill="#493F37" d="M14 40h1v1h-1z"/><path fill="#BBB29D" d="M15 40h1v1h-1zM16 40h1v1h-1zM17 40h1v1h-1zM18 40h1v1h-1zM19 40h1v1h-1zM20 40h1v1h-1z"/><path fill="#887F74" d="M21 40h1v1h-1z"/><path fill="#231815" d="M22 40h1v1h-1zM23 40h1v1h-1zM24 40h1v1h-1zM25 40h1v1h-1zM11 41h1v1h-1zM12 41h1v1h-1zM13 41h1v1h-1z"/><path fill="#584B32" d="M14 41h1v1h-1z"/><path fill="#F5E287" d="M15 41h1v1h-1zM16 41h1v1h-1zM17 41h1v1h-1zM18 41h1v1h-1zM19 41h1v1h-1z"/><path fill="#DBC979" d="M20 41h1v1h-1z"/><path fill="#30251C" d="M21 41h1v1h-1z"/><path fill="#231815" d="M22 41h1v1h-1zM23 41h1v1h-1zM24 41h1v1h-1zM25 41h1v1h-1zM11 42h1v1h-1zM12 42h1v1h-1zM13 42h1v1h-1z"/><path fill="#998A55" d="M14 42h1v1h-1z"/><path fill="#F5E287" d="M15 42h1v1h-1zM16 42h1v1h-1zM17 42h1v1h-1zM18 42h1v1h-1zM19 42h1v1h-1z"/><path fill="#584B32" d="M20 42h1v1h-1z"/><path fill="#231815" d="M21 42h1v1h-1zM22 42h1v1h-1zM23 42h1v1h-1zM24 42h1v1h-1zM10 43h1v1h-1zM11 43h1v1h-1zM12 43h1v1h-1zM13 43h1v1h-1z"/><path fill="#DBC979" d="M14 43h1v1h-1z"/><path fill="#F5E287" d="M15 43h1v1h-1zM16 43h1v1h-1zM17 43h1v1h-1zM18 43h1v1h-1z"/><path fill="#A6965C" d="M19 43h1v1h-1z"/><path fill="#231815" d="M20 43h1v1h-1zM21 43h1v1h-1zM22 43h1v1h-1zM23 43h1v1h-1zM10 44h1v1h-1zM11 44h1v1h-1zM12 44h1v1h-1z"/><path fill="#4A3E2A" d="M13 44h1v1h-1z"/><path fill="#F5E287" d="M14 44h1v1h-1zM15 44h1v1h-1zM16 44h1v1h-1zM17 44h1v1h-1zM18 44h1v1h-1z"/><path fill="#3D3123" d="M19 44h1v1h-1z"/><path fill="#231815" d="M20 44h1v1h-1zM21 44h1v1h-1zM22 44h1v1h-1zM10 45h1v1h-1zM11 45h1v1h-1zM12 45h1v1h-1z"/><path fill="#998A55" d="M13 45h1v1h-1z"/><path fill="#F5E287" d="M14 45h1v1h-1zM15 45h1v1h-1zM16 45h1v1h-1zM17 45h1v1h-1z"/><path fill="#A6965C" d="M18 45h1v1h-1z"/><path fill="#231815" d="M19 45h1v1h-1zM20 45h1v1h-1zM21 45h1v1h-1zM22 45h1v1h-1zM9 46h1v1H9zM10 46h1v1h-1zM11 46h1v1h-1zM12 46h1v1h-1z"/><path fill="#E8D580" d="M13 46h1v1h-1z"/><path fill="#F5E287" d="M14 46h1v1h-1zM15 46h1v1h-1zM16 46h1v1h-1zM17 46h1v1h-1z"/><path fill="#3D3123" d="M18 46h1v1h-1z"/><path fill="#231815" d="M19 46h1v1h-1zM20 46h1v1h-1zM21 46h1v1h-1zM9 47h1v1H9zM10 47h1v1h-1zM11 47h1v1h-1z"/><path fill="#726440" d="M12 47h1v1h-1z"/><path fill="#F5E287" d="M13 47h1v1h-1zM14 47h1v1h-1zM15 47h1v1h-1zM16 47h1v1h-1z"/><path fill="#A6965C" d="M17 47h1v1h-1z"/><path fill="#231815" d="M18 47h1v1h-1zM19 47h1v1h-1zM20 47h1v1h-1zM21 47h1v1h-1zM8 48h1v1H8zM9 48h1v1H9zM10 48h1v1h-1zM11 48h1v1h-1z"/><path fill="#C1B06B" d="M12 48h1v1h-1z"/><path fill="#F5E287" d="M13 48h1v1h-1zM14 48h1v1h-1zM15 48h1v1h-1zM16 48h1v1h-1z"/><path fill="#4A3E2A" d="M17 48h1v1h-1z"/><path fill="#231815" d="M18 48h1v1h-1zM19 48h1v1h-1zM20 48h1v1h-1zM8 49h1v1H8zM9 49h1v1H9zM10 49h1v1h-1z"/><path fill="#3D3123" d="M11 49h1v1h-1z"/><path fill="#F5E287" d="M12 49h1v1h-1zM13 49h1v1h-1zM14 49h1v1h-1zM15 49h1v1h-1z"/><path fill="#C1B06B" d="M16 49h1v1h-1z"/><path fill="#231815" d="M17 49h1v1h-1zM18 49h1v1h-1zM19 49h1v1h-1zM20 49h1v1h-1zM8 50h1v1H8zM9 50h1v1H9zM10 50h1v1h-1z"/><path fill="#998A55" d="M11 50h1v1h-1z"/><path fill="#F5E287" d="M12 50h1v1h-1zM13 50h1v1h-1zM14 50h1v1h-1zM15 50h1v1h-1z"/><path fill="#726440" d="M16 50h1v1h-1z"/><path fill="#231815" d="M17 50h1v1h-1zM18 50h1v1h-1zM19 50h1v1h-1zM7 51h1v1H7zM8 51h1v1H8zM9 51h1v1H9z"/><path fill="#30251C" d="M10 51h1v1h-1z"/><path fill="#E8D580" d="M11 51h1v1h-1z"/><path fill="#F5E287" d="M12 51h1v1h-1zM13 51h1v1h-1zM14 51h1v1h-1z"/><path fill="#E8D580" d="M15 51h1v1h-1z"/><path fill="#30251C" d="M16 51h1v1h-1z"/><path fill="#231815" d="M17 51h1v1h-1zM18 51h1v1h-1zM19 51h1v1h-1zM7 52h1v1H7zM8 52h1v1H8zM9 52h1v1H9z"/><path fill="#726440" d="M10 52h1v1h-1z"/><path fill="#F5E287" d="M11 52h1v1h-1zM12 52h1v1h-1zM13 52h1v1h-1zM14 52h1v1h-1z"/><path fill="#A6965C" d="M15 52h1v1h-1z"/><path fill="#231815" d="M16 52h1v1h-1zM17 52h1v1h-1zM18 52h1v1h-1zM6 53h1v1H6zM7 53h1v1H7zM8 53h1v1H8zM9 53h1v1H9z"/><path fill="#CEBC72" d="M10 53h1v1h-1z"/><path fill="#F5E287" d="M11 53h1v1h-1zM12 53h1v1h-1zM13 53h1v1h-1zM14 53h1v1h-1z"/><path fill="#655739" d="M15 53h1v1h-1z"/><path fill="#231815" d="M16 53h1v1h-1zM17 53h1v1h-1zM18 53h1v1h-1zM6 54h1v1H6zM7 54h1v1H7zM8 54h1v1H8z"/><path fill="#4A3E2A" d="M9 54h1v1H9z"/><path fill="#F5E287" d="M10 54h1v1h-1zM11 54h1v1h-1zM12 54h1v1h-1zM13 54h1v1h-1z"/><path fill="#E8D580" d="M14 54h1v1h-1z"/><path fill="#231815" d="M15 54h1v1h-1zM16 54h1v1h-1zM17 54h1v1h-1zM18 54h1v1h-1zM6 55h1v1H6zM7 55h1v1H7zM8 55h1v1H8z"/><path fill="#A6965C" d="M9 55h1v1H9z"/><path fill="#F5E287" d="M10 55h1v1h-1zM11 55h1v1h-1zM12 55h1v1h-1zM13 55h1v1h-1z"/><path fill="#A6965C" d="M14 55h1v1h-1z"/><path fill="#231815" d="M15 55h1v1h-1zM16 55h1v1h-1zM17 55h1v1h-1zM5 56h1v1H5zM6 56h1v1H6zM7 56h1v1H7z"/><path fill="#30251C" d="M8 56h1v1H8z"/><path fill="#E8D580" d="M9 56h1v1H9z"/><path fill="#F5E287" d="M10 56h1v1h-1zM11 56h1v1h-1zM12 56h1v1h-1zM13 56h1v1h-1z"/><path fill="#726440" d="M14 56h1v1h-1z"/><path fill="#231815" d="M15 56h1v1h-1zM16 56h1v1h-1zM17 56h1v1h-1zM5 57h1v1H5zM6 57h1v1H6zM7 57h1v1H7z"/><path fill="#726440" d="M8 57h1v1H8z"/><path fill="#F5E287" d="M9 57h1v1H9zM10 57h1v1h-1zM11 57h1v1h-1zM12 57h1v1h-1zM13 57h1v1h-1z"/><path fill="#30251C" d="M14 57h1v1h-1z"/><path fill="#231815" d="M15 57h1v1h-1zM16 57h1v1h-1zM17 57h1v1h-1zM4 58h1v1H4zM5 58h1v1H5zM6 58h1v1H6zM7 58h1v1H7z"/><path fill="#CEBC72" d="M8 58h1v1H8z"/><path fill="#F5E287" d="M9 58h1v1H9zM10 58h1v1h-1zM11 58h1v1h-1zM12 58h1v1h-1z"/><path fill="#C1B06B" d="M13 58h1v1h-1z"/><path fill="#231815" d="M14 58h1v1h-1zM15 58h1v1h-1zM16 58h1v1h-1zM4 59h1v1H4zM5 59h1v1H5zM6 59h1v1H6z"/><path fill="#3D3123" d="M7 59h1v1H7z"/><path fill="#F5E287" d="M8 59h1v1H8zM9 59h1v1H9zM10 59h1v1h-1zM11 59h1v1h-1zM12 59h1v1h-1z"/><path fill="#8C7D4E" d="M13 59h1v1h-1z"/><path fill="#231815" d="M14 59h1v1h-1zM15 59h1v1h-1zM16 59h1v1h-1zM4 60h1v1H4zM5 60h1v1H5zM6 60h1v1H6z"/><path fill="#998A55" d="M7 60h1v1H7z"/><path fill="#F5E287" d="M8 60h1v1H8zM9 60h1v1H9zM10 60h1v1h-1zM11 60h1v1h-1zM12 60h1v1h-1z"/><path fill="#4A3E2A" d="M13 60h1v1h-1z"/><path fill="#231815" d="M14 60h1v1h-1zM15 60h1v1h-1zM16 60h1v1h-1zM3 61h1v1H3zM4 61h1v1H4zM5 61h1v1H5zM6 61h1v1H6z"/><path fill="#DBC979" d="M7 61h1v1H7z"/><path fill="#F5E287" d="M8 61h1v1H8zM9 61h1v1H9zM10 61h1v1h-1zM11 61h1v1h-1z"/><path fill="#E8D580" d="M12 61h1v1h-1z"/><path fill="#231815" d="M13 61h1v1h-1zM14 61h1v1h-1zM15 61h1v1h-1zM16 61h1v1h-1zM3 62h1v1H3zM4 62h1v1H4zM5 62h1v1H5z"/><path fill="#4A3E2A" d="M6 62h1v1H6z"/><path fill="#F5E287" d="M7 62h1v1H7zM8 62h1v1H8zM9 62h1v1H9zM10 62h1v1h-1zM11 62h1v1h-1z"/><path fill="#B3A363" d="M12 62h1v1h-1z"/><path fill="#231815" d="M13 62h1v1h-1zM14 62h1v1h-1zM15 62h1v1h-1zM3 63h1v1H3zM4 63h1v1H4zM5 63h1v1H5z"/><path fill="#998A55" d="M6 63h1v1H6z"/><path fill="#F5E287" d="M7 63h1v1H7zM8 63h1v1H8zM9 63h1v1H9zM10 63h1v1h-1zM11 63h1v1h-1z"/><path fill="#7F7047" d="M12 63h1v1h-1z"/><path fill="#231815" d="M13 63h1v1h-1zM14 63h1v1h-1zM15 63h1v1h-1zM2 64h1v1H2zM3 64h1v1H3zM4 64h1v1H4zM5 64h1v1H5z"/><path fill="#DBC979" d="M6 64h1v1H6z"/><path fill="#F5E287" d="M7 64h1v1H7zM8 64h1v1H8zM9 64h1v1H9zM10 64h1v1h-1zM11 64h1v1h-1z"/><path fill="#584B32" d="M12 64h1v1h-1z"/><path fill="#231815" d="M13 64h1v1h-1zM14 64h1v1h-1zM15 64h1v1h-1zM2 65h1v1H2zM3 65h1v1H3zM4 65h1v1H4z"/><path fill="#4A3E2A" d="M5 65h1v1H5z"/><path fill="#F5E287" d="M6 65h1v1H6zM7 65h1v1H7zM8 65h1v1H8zM9 65h1v1H9zM10 65h1v1h-1zM11 65h1v1h-1z"/><path fill="#231815" d="M12 65h1v1h-1zM13 65h1v1h-1zM14 65h1v1h-1zM15 65h1v1h-1zM2 66h1v1H2zM3 66h1v1H3zM4 66h1v1H4z"/><path fill="#998A55" d="M5 66h1v1H5z"/><path fill="#F5E287" d="M6 66h1v1H6zM7 66h1v1H7zM8 66h1v1H8zM9 66h1v1H9zM10 66h1v1h-1z"/><path fill="#C1B06B" d="M11 66h1v1h-1z"/><path fill="#231815" d="M12 66h1v1h-1zM13 66h1v1h-1zM14 66h1v1h-1zM2 67h1v1H2zM3 67h1v1H3zM4 67h1v1H4z"/><path fill="#CEBC72" d="M5 67h1v1H5z"/><path fill="#F5E287" d="M6 67h1v1H6zM7 67h1v1H7zM8 67h1v1H8zM9 67h1v1H9zM10 67h1v1h-1z"/><path fill="#8C7D4E" d="M11 67h1v1h-1z"/><path fill="#231815" d="M12 67h1v1h-1zM13 67h1v1h-1zM14 67h1v1h-1zM1 68h1v1H1zM2 68h1v1H2zM3 68h1v1H3z"/><path fill="#3C2F21" d="M4 68h1v1H4z"/><path fill="#F2DB7F" d="M5 68h1v1H5zM6 68h1v1H6zM7 68h1v1H7zM8 68h1v1H8zM9 68h1v1H9zM10 68h1v1h-1z"/><path fill="#645537" d="M11 68h1v1h-1z"/><path fill="#231815" d="M12 68h1v1h-1zM13 68h1v1h-1zM14 68h1v1h-1zM1 69h1v1H1zM2 69h1v1H2zM3 69h1v1H3z"/><path fill="#6D5934" d="M4 69h1v1H4z"/><path fill="#E8C468" d="M5 69h1v1H5zM6 69h1v1H6zM7 69h1v1H7zM8 69h1v1H8zM9 69h1v1H9zM10 69h1v1h-1z"/><path fill="#3C2E1F" d="M11 69h1v1h-1z"/><path fill="#231815" d="M12 69h1v1h-1zM13 69h1v1h-1zM14 69h1v1h-1zM1 70h1v1H1zM2 70h1v1H2zM3 70h1v1H3z"/><path fill="#9E8449" d="M4 70h1v1H4z"/><path fill="#E8C468" d="M5 70h1v1H5zM6 70h1v1H6zM7 70h1v1H7zM8 70h1v1H8zM9 70h1v1H9z"/><path fill="#DCB963" d="M10 70h1v1h-1z"/><path fill="#231815" d="M11 70h1v1h-1zM12 70h1v1h-1zM13 70h1v1h-1zM1 71h1v1H1zM2 71h1v1H2zM3 71h1v1H3z"/><path fill="#C3A458" d="M4 71h1v1H4z"/><path fill="#E8C468" d="M5 71h1v1H5zM6 71h1v1H6zM7 71h1v1H7zM8 71h1v1H8zM9 71h1v1H9z"/><path fill="#B79953" d="M10 71h1v1h-1z"/><path fill="#231815" d="M11 71h1v1h-1zM12 71h1v1h-1zM13 71h1v1h-1zM0 72h1v1H0zM1 72h1v1H1zM2 72h1v1H2z"/><path fill="#2F231A" d="M3 72h1v1H3z"/><path fill="#E8C468" d="M4 72h1v1H4zM5 72h1v1H5zM6 72h1v1H6zM7 72h1v1H7zM8 72h1v1H8zM9 72h1v1H9z"/><path fill="#866E3F" d="M10 72h1v1h-1z"/><path fill="#231815" d="M11 72h1v1h-1zM12 72h1v1h-1zM13 72h1v1h-1zM0 73h1v1H0zM1 73h1v1H1zM2 73h1v1H2z"/><path fill="#54432A" d="M3 73h1v1H3z"/><path fill="#E8C468" d="M4 73h1v1H4zM5 73h1v1H5zM6 73h1v1H6zM7 73h1v1H7zM8 73h1v1H8zM9 73h1v1H9z"/><path fill="#614E2F" d="M10 73h1v1h-1z"/><path fill="#231815" d="M11 73h1v1h-1zM12 73h1v1h-1zM13 73h1v1h-1zM0 74h1v1H0zM1 74h1v1H1zM2 74h1v1H2z"/><path fill="#796339" d="M3 74h1v1H3z"/><path fill="#E8C468" d="M4 74h1v1H4zM5 74h1v1H5zM6 74h1v1H6zM7 74h1v1H7zM8 74h1v1H8zM9 74h1v1H9z"/><path fill="#3C2E1F" d="M10 74h1v1h-1z"/><path fill="#231815" d="M11 74h1v1h-1zM12 74h1v1h-1zM13 74h1v1h-1zM0 75h1v1H0zM1 75h1v1H1zM2 75h1v1H2z"/><path fill="#866E3F" d="M3 75h1v1H3z"/><path fill="#E8C468" d="M4 75h1v1H4zM5 75h1v1H5zM6 75h1v1H6zM7 75h1v1H7zM8 75h1v1H8zM9 75h1v1H9z"/><path fill="#231815" d="M10 75h1v1h-1zM11 75h1v1h-1zM12 75h1v1h-1zM0 76h1v1H0zM1 76h1v1H1zM2 76h1v1H2z"/><path fill="#B79953" d="M3 76h1v1H3z"/><path fill="#E8C468" d="M4 76h1v1H4zM5 76h1v1H5zM6 76h1v1H6zM7 76h1v1H7zM8 76h1v1H8z"/><path fill="#B79953" d="M9 76h1v1H9z"/><path fill="#231815" d="M10 76h1v1h-1zM11 76h1v1h-1zM12 76h1v1h-1zM0 77h1v1H0zM1 77h1v1H1zM2 77h1v1H2z"/><path fill="#B79953" d="M3 77h1v1H3z"/><path fill="#E8C468" d="M4 77h1v1H4zM5 77h1v1H5zM6 77h1v1H6zM7 77h1v1H7zM8 77h1v1H8z"/><path fill="#9E8449" d="M9 77h1v1H9z"/><path fill="#231815" d="M10 77h1v1h-1zM11 77h1v1h-1zM12 77h1v1h-1zM0 78h1v1H0zM1 78h1v1H1zM2 78h1v1H2z"/><path fill="#B79953" d="M3 78h1v1H3z"/><path fill="#E8C468" d="M4 78h1v1H4zM5 78h1v1H5zM6 78h1v1H6zM7 78h1v1H7zM8 78h1v1H8z"/><path fill="#866E3F" d="M9 78h1v1H9z"/><path fill="#231815" d="M10 78h1v1h-1zM11 78h1v1h-1zM12 78h1v1h-1zM0 79h1v1H0zM1 79h1v1H1zM2 79h1v1H2z"/><path fill="#E8C468" d="M3 79h1v1H3zM4 79h1v1H4zM5 79h1v1H5zM6 79h1v1H6zM7 79h1v1H7zM8 79h1v1H8z"/><path fill="#54432A" d="M9 79h1v1H9z"/><path fill="#231815" d="M10 79h1v1h-1zM11 79h1v1h-1zM12 79h1v1h-1zM0 80h1v1H0zM1 80h1v1H1zM2 80h1v1H2z"/><path fill="#CFAF5E" d="M3 80h1v1H3z"/><path fill="#E8C468" d="M4 80h1v1H4zM5 80h1v1H5zM6 80h1v1H6zM7 80h1v1H7zM8 80h1v1H8z"/><path fill="#3C2E1F" d="M9 80h1v1H9z"/><path fill="#231815" d="M10 80h1v1h-1zM11 80h1v1h-1zM12 80h1v1h-1zM0 81h1v1H0zM1 81h1v1H1zM2 81h1v1H2z"/><path fill="#B79953" d="M3 81h1v1H3z"/><path fill="#E8C468" d="M4 81h1v1H4zM5 81h1v1H5zM6 81h1v1H6zM7 81h1v1H7zM8 81h1v1H8z"/><path fill="#231815" d="M9 81h1v1H9zM10 81h1v1h-1zM11 81h1v1h-1zM0 82h1v1H0zM1 82h1v1H1zM2 82h1v1H2z"/><path fill="#B79953" d="M3 82h1v1H3z"/><path fill="#E8C468" d="M4 82h1v1H4zM5 82h1v1H5zM6 82h1v1H6zM7 82h1v1H7z"/><path fill="#B79953" d="M8 82h1v1H8z"/><path fill="#231815" d="M9 82h1v1H9zM10 82h1v1h-1zM11 82h1v1h-1zM0 83h1v1H0zM1 83h1v1H1zM2 83h1v1H2z"/><path fill="#927944" d="M3 83h1v1H3z"/><path fill="#E8C468" d="M4 83h1v1H4zM5 83h1v1H5zM6 83h1v1H6zM7 83h1v1H7z"/><path fill="#9E8449" d="M8 83h1v1H8z"/><path fill="#231815" d="M9 83h1v1H9zM10 83h1v1h-1zM11 83h1v1h-1zM0 84h1v1H0zM1 84h1v1H1zM2 84h1v1H2z"/><path fill="#614E2F" d="M3 84h1v1H3z"/><path fill="#E8C468" d="M4 84h1v1H4zM5 84h1v1H5zM6 84h1v1H6zM7 84h1v1H7z"/><path fill="#796339" d="M8 84h1v1H8z"/><path fill="#231815" d="M9 84h1v1H9zM10 84h1v1h-1zM11 84h1v1h-1zM0 85h1v1H0zM1 85h1v1H1zM2 85h1v1H2zM3 85h1v1H3z"/><path fill="#DCB963" d="M4 85h1v1H4z"/><path fill="#E8C468" d="M5 85h1v1H5zM6 85h1v1H6z"/><path fill="#C3A458" d="M7 85h1v1H7z"/><path fill="#2F231A" d="M8 85h1v1H8z"/><path fill="#231815" d="M9 85h1v1H9zM10 85h1v1h-1zM11 85h1v1h-1zM1 86h1v1H1zM2 86h1v1H2zM3 86h1v1H3z"/><path fill="#6D5934" d="M4 86h1v1H4z"/><path fill="#E8C468" d="M5 86h1v1H5z"/><path fill="#AA8E4E" d="M6 86h1v1H6z"/><path fill="#2F231A" d="M7 86h1v1H7z"/><path fill="#231815" d="M8 86h1v1H8zM9 86h1v1H9zM10 86h1v1h-1zM1 87h1v1H1zM2 87h1v1H2zM3 87h1v1H3zM4 87h1v1H4zM5 87h1v1H5zM6 87h1v1H6zM7 87h1v1H7zM8 87h1v1H8zM9 87h1v1H9zM10 87h1v1h-1zM2 88h1v1H2zM3 88h1v1H3zM4 88h1v1H4zM5 88h1v1H5zM6 88h1v1H6zM7 88h1v1H7zM8 88h1v1H8zM9 88h1v1H9zM3 89h1v1H3zM4 89h1v1H4zM5 89h1v1H5zM6 89h1v1H6zM7 89h1v1H7zM8 89h1v1H8z"/></svg>