<svg baseProfile="full" height="90" width="80" xmlns="http://www.w3.org/2000/svg"><path fill="#002" d="M52 0h1v1h-1zM53 0h1v1h-1zM54 0h1v1h-1zM55 0h1v1h-1zM56 0h1v1h-1zM57 0h1v1h-1zM58 0h1v1h-1zM59 0h1v1h-1zM60 0h1v1h-1zM49 1h1v1h-1zM50 1h1v1h-1zM51 1h1v1h-1zM52 1h1v1h-1zM53 1h1v1h-1zM54 1h1v1h-1zM55 1h1v1h-1zM56 1h1v1h-1zM57 1h1v1h-1zM58 1h1v1h-1zM59 1h1v1h-1zM60 1h1v1h-1zM61 1h1v1h-1zM62 1h1v1h-1zM63 1h1v1h-1zM46 2h1v1h-1zM47 2h1v1h-1zM48 2h1v1h-1zM49 2h1v1h-1zM50 2h1v1h-1zM51 2h1v1h-1zM52 2h1v1h-1zM53 2h1v1h-1zM54 2h1v1h-1zM55 2h1v1h-1zM56 2h1v1h-1zM57 2h1v1h-1zM58 2h1v1h-1zM59 2h1v1h-1zM60 2h1v1h-1zM61 2h1v1h-1zM62 2h1v1h-1zM63 2h1v1h-1zM64 2h1v1h-1zM65 2h1v1h-1zM66 2h1v1h-1zM45 3h1v1h-1zM46 3h1v1h-1zM47 3h1v1h-1zM48 3h1v1h-1zM49 3h1v1h-1zM50 3h1v1h-1zM51 3h1v1h-1zM52 3h1v1h-1zM53 3h1v1h-1zM54 3h1v1h-1zM55 3h1v1h-1zM56 3h1v1h-1zM57 3h1v1h-1zM58 3h1v1h-1zM59 3h1v1h-1zM60 3h1v1h-1zM61 3h1v1h-1zM62 3h1v1h-1zM63 3h1v1h-1zM64 3h1v1h-1zM65 3h1v1h-1zM66 3h1v1h-1zM67 3h1v1h-1zM43 4h1v1h-1zM44 4h1v1h-1zM45 4h1v1h-1zM46 4h1v1h-1zM47 4h1v1h-1zM48 4h1v1h-1zM49 4h1v1h-1zM50 4h1v1h-1z"/><path fill="#433B38" d="M51 4h1v1h-1z"/><path fill="#85764E" d="M52 4h1v1h-1z"/><path fill="#AD9A5C" d="M53 4h1v1h-1z"/><path fill="#E8CB8F" d="M54 4h1v1h-1z"/><path fill="#F9D6B0" d="M55 4h1v1h-1z"/><path fill="#FBD8B5" d="M56 4h1v1h-1zM57 4h1v1h-1z"/><path fill="#EBCBAC" d="M58 4h1v1h-1z"/><path fill="#BCA290" d="M59 4h1v1h-1z"/><path fill="#7E6C6C" d="M60 4h1v1h-1z"/><path fill="#2F293E" d="M61 4h1v1h-1z"/><path fill="#002" d="M62 4h1v1h-1zM63 4h1v1h-1zM64 4h1v1h-1zM65 4h1v1h-1zM66 4h1v1h-1zM67 4h1v1h-1zM68 4h1v1h-1zM69 4h1v1h-1zM41 5h1v1h-1zM42 5h1v1h-1zM43 5h1v1h-1zM44 5h1v1h-1zM45 5h1v1h-1zM46 5h1v1h-1zM47 5h1v1h-1z"/><path fill="#0D0C26" d="M48 5h1v1h-1z"/><path fill="#6B5F46" d="M49 5h1v1h-1z"/><path fill="#C8B165" d="M50 5h1v1h-1z"/><path fill="#D5BD69" d="M51 5h1v1h-1z"/><path fill="#DFC47C" d="M52 5h1v1h-1z"/><path fill="#F6D5AC" d="M53 5h1v1h-1z"/><path fill="#FBD8B5" d="M54 5h1v1h-1zM55 5h1v1h-1zM56 5h1v1h-1zM57 5h1v1h-1zM58 5h1v1h-1zM59 5h1v1h-1zM60 5h1v1h-1zM61 5h1v1h-1z"/><path fill="#DCBDA3" d="M62 5h1v1h-1z"/><path fill="#7E6C6C" d="M63 5h1v1h-1z"/><path fill="#100E2B" d="M64 5h1v1h-1z"/><path fill="#002" d="M65 5h1v1h-1zM66 5h1v1h-1zM67 5h1v1h-1zM68 5h1v1h-1zM69 5h1v1h-1zM70 5h1v1h-1zM40 6h1v1h-1zM41 6h1v1h-1zM42 6h1v1h-1zM43 6h1v1h-1zM44 6h1v1h-1zM45 6h1v1h-1z"/><path fill="#0D0C26" d="M46 6h1v1h-1z"/><path fill="#6B5F46" d="M47 6h1v1h-1z"/><path fill="#C8B165" d="M48 6h1v1h-1z"/><path fill="#D5BD69" d="M49 6h1v1h-1z"/><path fill="#D7BF6E" d="M50 6h1v1h-1z"/><path fill="#EACC94" d="M51 6h1v1h-1z"/><path fill="#FBD8B5" d="M52 6h1v1h-1zM53 6h1v1h-1zM54 6h1v1h-1zM55 6h1v1h-1zM56 6h1v1h-1zM57 6h1v1h-1zM58 6h1v1h-1zM59 6h1v1h-1zM60 6h1v1h-1zM61 6h1v1h-1zM62 6h1v1h-1zM63 6h1v1h-1z"/><path fill="#EBCBAC" d="M64 6h1v1h-1z"/><path fill="#7E6C6C" d="M65 6h1v1h-1z"/><path fill="#002" d="M66 6h1v1h-1zM67 6h1v1h-1zM68 6h1v1h-1zM69 6h1v1h-1zM70 6h1v1h-1zM71 6h1v1h-1zM38 7h1v1h-1zM39 7h1v1h-1zM40 7h1v1h-1zM41 7h1v1h-1zM42 7h1v1h-1zM43 7h1v1h-1zM44 7h1v1h-1z"/><path fill="#50473D" d="M45 7h1v1h-1z"/><path fill="#BAA560" d="M46 7h1v1h-1z"/><path fill="#D5BD69" d="M47 7h1v1h-1zM48 7h1v1h-1z"/><path fill="#DCC277" d="M49 7h1v1h-1z"/><path fill="#F4D3A7" d="M50 7h1v1h-1z"/><path fill="#FBD8B5" d="M51 7h1v1h-1zM52 7h1v1h-1zM53 7h1v1h-1zM54 7h1v1h-1zM55 7h1v1h-1zM56 7h1v1h-1zM57 7h1v1h-1zM58 7h1v1h-1zM59 7h1v1h-1zM60 7h1v1h-1zM61 7h1v1h-1zM62 7h1v1h-1zM63 7h1v1h-1zM64 7h1v1h-1zM65 7h1v1h-1z"/><path fill="#DCBDA3" d="M66 7h1v1h-1z"/><path fill="#2F293E" d="M67 7h1v1h-1z"/><path fill="#002" d="M68 7h1v1h-1zM69 7h1v1h-1zM70 7h1v1h-1zM71 7h1v1h-1zM72 7h1v1h-1zM37 8h1v1h-1zM38 8h1v1h-1zM39 8h1v1h-1zM40 8h1v1h-1zM41 8h1v1h-1zM42 8h1v1h-1z"/><path fill="#1B182B" d="M43 8h1v1h-1z"/><path fill="#A08E57" d="M44 8h1v1h-1z"/><path fill="#D5BD69" d="M45 8h1v1h-1zM46 8h1v1h-1zM47 8h1v1h-1z"/><path fill="#E3C786" d="M48 8h1v1h-1z"/><path fill="#F9D6B0" d="M49 8h1v1h-1z"/><path fill="#FBD8B5" d="M50 8h1v1h-1zM51 8h1v1h-1zM52 8h1v1h-1zM53 8h1v1h-1zM54 8h1v1h-1zM55 8h1v1h-1zM56 8h1v1h-1zM57 8h1v1h-1zM58 8h1v1h-1zM59 8h1v1h-1zM60 8h1v1h-1zM61 8h1v1h-1zM62 8h1v1h-1zM63 8h1v1h-1zM64 8h1v1h-1zM65 8h1v1h-1zM66 8h1v1h-1zM67 8h1v1h-1z"/><path fill="#6E5F62" d="M68 8h1v1h-1z"/><path fill="#002" d="M69 8h1v1h-1zM70 8h1v1h-1zM71 8h1v1h-1zM72 8h1v1h-1zM73 8h1v1h-1zM36 9h1v1h-1zM37 9h1v1h-1zM38 9h1v1h-1zM39 9h1v1h-1zM40 9h1v1h-1zM41 9h1v1h-1z"/><path fill="#5D5341" d="M42 9h1v1h-1z"/><path fill="#C8B165" d="M43 9h1v1h-1z"/><path fill="#D5BD69" d="M44 9h1v1h-1zM45 9h1v1h-1zM46 9h1v1h-1z"/><path fill="#EDCE99" d="M47 9h1v1h-1z"/><path fill="#FBD8B5" d="M48 9h1v1h-1zM49 9h1v1h-1zM50 9h1v1h-1zM51 9h1v1h-1zM52 9h1v1h-1zM53 9h1v1h-1zM54 9h1v1h-1zM55 9h1v1h-1zM56 9h1v1h-1zM57 9h1v1h-1zM58 9h1v1h-1zM59 9h1v1h-1zM60 9h1v1h-1zM61 9h1v1h-1zM62 9h1v1h-1zM63 9h1v1h-1zM64 9h1v1h-1zM65 9h1v1h-1zM66 9h1v1h-1zM67 9h1v1h-1zM68 9h1v1h-1z"/><path fill="#9B8579" d="M69 9h1v1h-1z"/><path fill="#002" d="M70 9h1v1h-1zM71 9h1v1h-1zM72 9h1v1h-1zM73 9h1v1h-1zM74 9h1v1h-1zM35 10h1v1h-1zM36 10h1v1h-1zM37 10h1v1h-1zM38 10h1v1h-1zM39 10h1v1h-1z"/><path fill="#0D0C26" d="M40 10h1v1h-1z"/><path fill="#928253" d="M41 10h1v1h-1z"/><path fill="#D5BD69" d="M42 10h1v1h-1zM43 10h1v1h-1zM44 10h1v1h-1z"/><path fill="#D7BF6E" d="M45 10h1v1h-1z"/><path fill="#F4D3A7" d="M46 10h1v1h-1z"/><path fill="#FBD8B5" d="M47 10h1v1h-1zM48 10h1v1h-1zM49 10h1v1h-1zM50 10h1v1h-1zM51 10h1v1h-1z"/><path fill="#FBDABA" d="M52 10h1v1h-1z"/><path fill="#FDE9D5" d="M53 10h1v1h-1z"/><path fill="#FEF3E8" d="M54 10h1v1h-1z"/><path fill="#FFFDFA" d="M55 10h1v1h-1z"/><path fill="#FFF" d="M56 10h1v1h-1zM57 10h1v1h-1zM58 10h1v1h-1z"/><path fill="#FFFDFA" d="M59 10h1v1h-1z"/><path fill="#FEF0E3" d="M60 10h1v1h-1z"/><path fill="#FBDABA" d="M61 10h1v1h-1z"/><path fill="#FBD8B5" d="M62 10h1v1h-1zM63 10h1v1h-1zM64 10h1v1h-1zM65 10h1v1h-1zM66 10h1v1h-1zM67 10h1v1h-1z"/><path fill="#F4D3A7" d="M68 10h1v1h-1z"/><path fill="#DCC277" d="M69 10h1v1h-1z"/><path fill="#85764E" d="M70 10h1v1h-1z"/><path fill="#002" d="M71 10h1v1h-1zM72 10h1v1h-1zM73 10h1v1h-1zM74 10h1v1h-1zM75 10h1v1h-1zM33 11h1v1h-1zM34 11h1v1h-1zM35 11h1v1h-1zM36 11h1v1h-1zM37 11h1v1h-1zM38 11h1v1h-1z"/><path fill="#28232F" d="M39 11h1v1h-1z"/><path fill="#BAA560" d="M40 11h1v1h-1z"/><path fill="#D5BD69" d="M41 11h1v1h-1zM42 11h1v1h-1zM43 11h1v1h-1z"/><path fill="#DCC277" d="M44 11h1v1h-1z"/><path fill="#F6D5AC" d="M45 11h1v1h-1z"/><path fill="#FBD8B5" d="M46 11h1v1h-1zM47 11h1v1h-1zM48 11h1v1h-1zM49 11h1v1h-1z"/><path fill="#FBDABA" d="M50 11h1v1h-1z"/><path fill="#FDEEDF" d="M51 11h1v1h-1z"/><path fill="#FFF" d="M52 11h1v1h-1zM53 11h1v1h-1zM54 11h1v1h-1zM55 11h1v1h-1zM56 11h1v1h-1zM57 11h1v1h-1zM58 11h1v1h-1zM59 11h1v1h-1zM60 11h1v1h-1z"/><path fill="#FEF0E3" d="M61 11h1v1h-1z"/><path fill="#FBD8B5" d="M62 11h1v1h-1zM63 11h1v1h-1zM64 11h1v1h-1zM65 11h1v1h-1zM66 11h1v1h-1z"/><path fill="#E8CB8F" d="M67 11h1v1h-1z"/><path fill="#D5BD69" d="M68 11h1v1h-1zM69 11h1v1h-1zM70 11h1v1h-1z"/><path fill="#6B5F46" d="M71 11h1v1h-1z"/><path fill="#002" d="M72 11h1v1h-1zM73 11h1v1h-1zM74 11h1v1h-1zM75 11h1v1h-1zM76 11h1v1h-1zM32 12h1v1h-1zM33 12h1v1h-1zM34 12h1v1h-1zM35 12h1v1h-1zM36 12h1v1h-1zM37 12h1v1h-1z"/><path fill="#50473D" d="M38 12h1v1h-1z"/><path fill="#D5BD69" d="M39 12h1v1h-1zM40 12h1v1h-1zM41 12h1v1h-1zM42 12h1v1h-1z"/><path fill="#DFC47C" d="M43 12h1v1h-1z"/><path fill="#F9D6B0" d="M44 12h1v1h-1z"/><path fill="#FBD8B5" d="M45 12h1v1h-1zM46 12h1v1h-1zM47 12h1v1h-1zM48 12h1v1h-1z"/><path fill="#FCE2C8" d="M49 12h1v1h-1z"/><path fill="#FFFDFA" d="M50 12h1v1h-1z"/><path fill="#FFF" d="M51 12h1v1h-1zM52 12h1v1h-1zM53 12h1v1h-1zM54 12h1v1h-1zM55 12h1v1h-1zM56 12h1v1h-1zM57 12h1v1h-1zM58 12h1v1h-1zM59 12h1v1h-1zM60 12h1v1h-1z"/><path fill="#FEF3E8" d="M61 12h1v1h-1z"/><path fill="#FBD8B5" d="M62 12h1v1h-1zM63 12h1v1h-1zM64 12h1v1h-1z"/><path fill="#F6D5AC" d="M65 12h1v1h-1z"/><path fill="#DCC277" d="M66 12h1v1h-1z"/><path fill="#D5BD69" d="M67 12h1v1h-1zM68 12h1v1h-1zM69 12h1v1h-1zM70 12h1v1h-1zM71 12h1v1h-1z"/><path fill="#433B38" d="M72 12h1v1h-1z"/><path fill="#002" d="M73 12h1v1h-1zM74 12h1v1h-1zM75 12h1v1h-1zM76 12h1v1h-1zM31 13h1v1h-1zM32 13h1v1h-1zM33 13h1v1h-1zM34 13h1v1h-1zM35 13h1v1h-1zM36 13h1v1h-1z"/><path fill="#786A4A" d="M37 13h1v1h-1z"/><path fill="#D5BD69" d="M38 13h1v1h-1zM39 13h1v1h-1zM40 13h1v1h-1zM41 13h1v1h-1z"/><path fill="#E3C786" d="M42 13h1v1h-1z"/><path fill="#FBD8B5" d="M43 13h1v1h-1zM44 13h1v1h-1zM45 13h1v1h-1zM46 13h1v1h-1zM47 13h1v1h-1z"/><path fill="#FDEEDF" d="M48 13h1v1h-1z"/><path fill="#FFF" d="M49 13h1v1h-1zM50 13h1v1h-1zM51 13h1v1h-1zM52 13h1v1h-1zM53 13h1v1h-1zM54 13h1v1h-1zM55 13h1v1h-1zM56 13h1v1h-1zM57 13h1v1h-1zM58 13h1v1h-1zM59 13h1v1h-1zM60 13h1v1h-1z"/><path fill="#FCE2C8" d="M61 13h1v1h-1z"/><path fill="#FBD8B5" d="M62 13h1v1h-1zM63 13h1v1h-1z"/><path fill="#EDCE99" d="M64 13h1v1h-1z"/><path fill="#D7BF6E" d="M65 13h1v1h-1z"/><path fill="#D5BD69" d="M66 13h1v1h-1zM67 13h1v1h-1zM68 13h1v1h-1zM69 13h1v1h-1zM70 13h1v1h-1zM71 13h1v1h-1z"/><path fill="#C8B165" d="M72 13h1v1h-1z"/><path fill="#0D0C26" d="M73 13h1v1h-1z"/><path fill="#002" d="M74 13h1v1h-1zM75 13h1v1h-1zM76 13h1v1h-1zM77 13h1v1h-1zM30 14h1v1h-1zM31 14h1v1h-1zM32 14h1v1h-1zM33 14h1v1h-1zM34 14h1v1h-1z"/><path fill="#0D0C26" d="M35 14h1v1h-1z"/><path fill="#85764E" d="M36 14h1v1h-1z"/><path fill="#D5BD69" d="M37 14h1v1h-1zM38 14h1v1h-1zM39 14h1v1h-1zM40 14h1v1h-1z"/><path fill="#E3C786" d="M41 14h1v1h-1z"/><path fill="#FBD8B5" d="M42 14h1v1h-1zM43 14h1v1h-1zM44 14h1v1h-1zM45 14h1v1h-1z"/><path fill="#FBDABA" d="M46 14h1v1h-1z"/><path fill="#FEF8F1" d="M47 14h1v1h-1z"/><path fill="#FFF" d="M48 14h1v1h-1zM49 14h1v1h-1zM50 14h1v1h-1zM51 14h1v1h-1zM52 14h1v1h-1zM53 14h1v1h-1zM54 14h1v1h-1zM55 14h1v1h-1zM56 14h1v1h-1zM57 14h1v1h-1zM58 14h1v1h-1z"/><path fill="#FFFDFA" d="M59 14h1v1h-1z"/><path fill="#FCE4CC" d="M60 14h1v1h-1z"/><path fill="#FBD8B5" d="M61 14h1v1h-1z"/><path fill="#F9D6B0" d="M62 14h1v1h-1z"/><path fill="#E1C581" d="M63 14h1v1h-1z"/><path fill="#D5BD69" d="M64 14h1v1h-1zM65 14h1v1h-1zM66 14h1v1h-1zM67 14h1v1h-1zM68 14h1v1h-1zM69 14h1v1h-1zM70 14h1v1h-1zM71 14h1v1h-1zM72 14h1v1h-1z"/><path fill="#85764E" d="M73 14h1v1h-1z"/><path fill="#002" d="M74 14h1v1h-1zM75 14h1v1h-1zM76 14h1v1h-1zM77 14h1v1h-1zM29 15h1v1h-1zM30 15h1v1h-1zM31 15h1v1h-1zM32 15h1v1h-1zM33 15h1v1h-1z"/><path fill="#0D0C26" d="M34 15h1v1h-1z"/><path fill="#AD9A5C" d="M35 15h1v1h-1z"/><path fill="#D5BD69" d="M36 15h1v1h-1zM37 15h1v1h-1zM38 15h1v1h-1zM39 15h1v1h-1z"/><path fill="#EDCE99" d="M40 15h1v1h-1z"/><path fill="#FBD8B5" d="M41 15h1v1h-1zM42 15h1v1h-1zM43 15h1v1h-1zM44 15h1v1h-1z"/><path fill="#FCDFC3" d="M45 15h1v1h-1z"/><path fill="#FFFDFA" d="M46 15h1v1h-1z"/><path fill="#FFF" d="M47 15h1v1h-1zM48 15h1v1h-1zM49 15h1v1h-1zM50 15h1v1h-1zM51 15h1v1h-1zM52 15h1v1h-1zM53 15h1v1h-1zM54 15h1v1h-1zM55 15h1v1h-1zM56 15h1v1h-1zM57 15h1v1h-1z"/><path fill="#FEF8F1" d="M58 15h1v1h-1z"/><path fill="#FCDDBE" d="M59 15h1v1h-1z"/><path fill="#FBD8B5" d="M60 15h1v1h-1z"/><path fill="#F2D1A2" d="M61 15h1v1h-1z"/><path fill="#D7BF6E" d="M62 15h1v1h-1z"/><path fill="#D5BD69" d="M63 15h1v1h-1zM64 15h1v1h-1zM65 15h1v1h-1zM66 15h1v1h-1zM67 15h1v1h-1zM68 15h1v1h-1zM69 15h1v1h-1zM70 15h1v1h-1zM71 15h1v1h-1zM72 15h1v1h-1zM73 15h1v1h-1z"/><path fill="#352F34" d="M74 15h1v1h-1z"/><path fill="#002" d="M75 15h1v1h-1zM76 15h1v1h-1zM77 15h1v1h-1zM78 15h1v1h-1zM28 16h1v1h-1zM29 16h1v1h-1zM30 16h1v1h-1zM31 16h1v1h-1zM32 16h1v1h-1z"/><path fill="#0D0C26" d="M33 16h1v1h-1z"/><path fill="#AD9A5C" d="M34 16h1v1h-1z"/><path fill="#D5BD69" d="M35 16h1v1h-1zM36 16h1v1h-1zM37 16h1v1h-1zM38 16h1v1h-1z"/><path fill="#EDCE99" d="M39 16h1v1h-1z"/><path fill="#FBD8B5" d="M40 16h1v1h-1zM41 16h1v1h-1zM42 16h1v1h-1zM43 16h1v1h-1z"/><path fill="#FDE7D1" d="M44 16h1v1h-1z"/><path fill="#FFFDFA" d="M45 16h1v1h-1z"/><path fill="#FFF" d="M46 16h1v1h-1zM47 16h1v1h-1zM48 16h1v1h-1zM49 16h1v1h-1zM50 16h1v1h-1zM51 16h1v1h-1zM52 16h1v1h-1zM53 16h1v1h-1zM54 16h1v1h-1zM55 16h1v1h-1zM56 16h1v1h-1z"/><path fill="#FDEEDF" d="M57 16h1v1h-1z"/><path fill="#FBD8B5" d="M58 16h1v1h-1zM59 16h1v1h-1z"/><path fill="#E8CB8F" d="M60 16h1v1h-1z"/><path fill="#D5BD69" d="M61 16h1v1h-1zM62 16h1v1h-1zM63 16h1v1h-1zM64 16h1v1h-1zM65 16h1v1h-1zM66 16h1v1h-1zM67 16h1v1h-1zM68 16h1v1h-1zM69 16h1v1h-1zM70 16h1v1h-1zM71 16h1v1h-1zM72 16h1v1h-1zM73 16h1v1h-1z"/><path fill="#928253" d="M74 16h1v1h-1z"/><path fill="#002" d="M75 16h1v1h-1zM76 16h1v1h-1zM77 16h1v1h-1zM78 16h1v1h-1zM27 17h1v1h-1zM28 17h1v1h-1zM29 17h1v1h-1zM30 17h1v1h-1zM31 17h1v1h-1z"/><path fill="#0D0C26" d="M32 17h1v1h-1z"/><path fill="#AD9A5C" d="M33 17h1v1h-1z"/><path fill="#D5BD69" d="M34 17h1v1h-1zM35 17h1v1h-1zM36 17h1v1h-1zM37 17h1v1h-1z"/><path fill="#EDCE99" d="M38 17h1v1h-1z"/><path fill="#FBD8B5" d="M39 17h1v1h-1zM40 17h1v1h-1zM41 17h1v1h-1zM42 17h1v1h-1z"/><path fill="#FDE9D5" d="M43 17h1v1h-1z"/><path fill="#FFF" d="M44 17h1v1h-1zM45 17h1v1h-1zM46 17h1v1h-1zM47 17h1v1h-1zM48 17h1v1h-1zM49 17h1v1h-1zM50 17h1v1h-1zM51 17h1v1h-1zM52 17h1v1h-1zM53 17h1v1h-1zM54 17h1v1h-1z"/><path fill="#FFFDFA" d="M55 17h1v1h-1z"/><path fill="#FCE2C8" d="M56 17h1v1h-1z"/><path fill="#FBD8B5" d="M57 17h1v1h-1z"/><path fill="#F6D5AC" d="M58 17h1v1h-1z"/><path fill="#DCC277" d="M59 17h1v1h-1z"/><path fill="#D5BD69" d="M60 17h1v1h-1zM61 17h1v1h-1zM62 17h1v1h-1zM63 17h1v1h-1zM64 17h1v1h-1zM65 17h1v1h-1zM66 17h1v1h-1zM67 17h1v1h-1zM68 17h1v1h-1zM69 17h1v1h-1zM70 17h1v1h-1zM71 17h1v1h-1zM72 17h1v1h-1zM73 17h1v1h-1zM74 17h1v1h-1z"/><path fill="#1B182B" d="M75 17h1v1h-1z"/><path fill="#002" d="M76 17h1v1h-1zM77 17h1v1h-1zM78 17h1v1h-1zM26 18h1v1h-1zM27 18h1v1h-1zM28 18h1v1h-1zM29 18h1v1h-1zM30 18h1v1h-1z"/><path fill="#0D0C26" d="M31 18h1v1h-1z"/><path fill="#AD9A5C" d="M32 18h1v1h-1z"/><path fill="#D5BD69" d="M33 18h1v1h-1zM34 18h1v1h-1zM35 18h1v1h-1zM36 18h1v1h-1z"/><path fill="#EDCE99" d="M37 18h1v1h-1z"/><path fill="#FBD8B5" d="M38 18h1v1h-1zM39 18h1v1h-1zM40 18h1v1h-1zM41 18h1v1h-1z"/><path fill="#FEF0E3" d="M42 18h1v1h-1z"/><path fill="#FFF" d="M43 18h1v1h-1zM44 18h1v1h-1zM45 18h1v1h-1zM46 18h1v1h-1zM47 18h1v1h-1zM48 18h1v1h-1zM49 18h1v1h-1zM50 18h1v1h-1zM51 18h1v1h-1zM52 18h1v1h-1zM53 18h1v1h-1z"/><path fill="#FEF8F1" d="M54 18h1v1h-1z"/><path fill="#FBDABA" d="M55 18h1v1h-1z"/><path fill="#FBD8B5" d="M56 18h1v1h-1z"/><path fill="#EFD09D" d="M57 18h1v1h-1z"/><path fill="#D7BF6E" d="M58 18h1v1h-1z"/><path fill="#D5BD69" d="M59 18h1v1h-1zM60 18h1v1h-1zM61 18h1v1h-1zM62 18h1v1h-1zM63 18h1v1h-1zM64 18h1v1h-1zM65 18h1v1h-1zM66 18h1v1h-1zM67 18h1v1h-1zM68 18h1v1h-1zM69 18h1v1h-1zM70 18h1v1h-1zM71 18h1v1h-1zM72 18h1v1h-1zM73 18h1v1h-1zM74 18h1v1h-1z"/><path fill="#5D5341" d="M75 18h1v1h-1z"/><path fill="#002" d="M76 18h1v1h-1zM77 18h1v1h-1zM78 18h1v1h-1zM79 18h1v1h-1zM25 19h1v1h-1zM26 19h1v1h-1zM27 19h1v1h-1zM28 19h1v1h-1zM29 19h1v1h-1z"/><path fill="#0D0C26" d="M30 19h1v1h-1z"/><path fill="#AD9A5C" d="M31 19h1v1h-1z"/><path fill="#D5BD69" d="M32 19h1v1h-1zM33 19h1v1h-1zM34 19h1v1h-1zM35 19h1v1h-1z"/><path fill="#EDCE99" d="M36 19h1v1h-1z"/><path fill="#FBD8B5" d="M37 19h1v1h-1zM38 19h1v1h-1zM39 19h1v1h-1zM40 19h1v1h-1z"/><path fill="#FEF0E3" d="M41 19h1v1h-1z"/><path fill="#FFF" d="M42 19h1v1h-1zM43 19h1v1h-1zM44 19h1v1h-1zM45 19h1v1h-1zM46 19h1v1h-1zM47 19h1v1h-1zM48 19h1v1h-1zM49 19h1v1h-1zM50 19h1v1h-1zM51 19h1v1h-1zM52 19h1v1h-1z"/><path fill="#FDEEDF" d="M53 19h1v1h-1z"/><path fill="#FBD8B5" d="M54 19h1v1h-1z"/><path fill="#F9D6B0" d="M55 19h1v1h-1z"/><path fill="#E3C786" d="M56 19h1v1h-1z"/><path fill="#D5BD69" d="M57 19h1v1h-1zM58 19h1v1h-1zM59 19h1v1h-1zM60 19h1v1h-1zM61 19h1v1h-1zM62 19h1v1h-1zM63 19h1v1h-1zM64 19h1v1h-1zM65 19h1v1h-1zM66 19h1v1h-1zM67 19h1v1h-1zM68 19h1v1h-1zM69 19h1v1h-1zM70 19h1v1h-1zM71 19h1v1h-1zM72 19h1v1h-1zM73 19h1v1h-1zM74 19h1v1h-1z"/><path fill="#A08E57" d="M75 19h1v1h-1z"/><path fill="#002" d="M76 19h1v1h-1zM77 19h1v1h-1zM78 19h1v1h-1zM79 19h1v1h-1zM24 20h1v1h-1zM25 20h1v1h-1zM26 20h1v1h-1zM27 20h1v1h-1zM28 20h1v1h-1z"/><path fill="#0D0C26" d="M29 20h1v1h-1z"/><path fill="#AD9A5C" d="M30 20h1v1h-1z"/><path fill="#D5BD69" d="M31 20h1v1h-1zM32 20h1v1h-1zM33 20h1v1h-1zM34 20h1v1h-1z"/><path fill="#EDCE99" d="M35 20h1v1h-1z"/><path fill="#FBD8B5" d="M36 20h1v1h-1zM37 20h1v1h-1zM38 20h1v1h-1z"/><path fill="#FBDABA" d="M39 20h1v1h-1z"/><path fill="#FEF8F1" d="M40 20h1v1h-1z"/><path fill="#FFF" d="M41 20h1v1h-1zM42 20h1v1h-1zM43 20h1v1h-1zM44 20h1v1h-1zM45 20h1v1h-1zM46 20h1v1h-1zM47 20h1v1h-1zM48 20h1v1h-1zM49 20h1v1h-1zM50 20h1v1h-1z"/><path fill="#FFFDFA" d="M51 20h1v1h-1z"/><path fill="#FCE4CC" d="M52 20h1v1h-1z"/><path fill="#FBD8B5" d="M53 20h1v1h-1z"/><path fill="#F4D3A7" d="M54 20h1v1h-1z"/><path fill="#DCC277" d="M55 20h1v1h-1z"/><path fill="#D5BD69" d="M56 20h1v1h-1zM57 20h1v1h-1zM58 20h1v1h-1zM59 20h1v1h-1zM60 20h1v1h-1zM61 20h1v1h-1zM62 20h1v1h-1zM63 20h1v1h-1zM64 20h1v1h-1zM65 20h1v1h-1zM66 20h1v1h-1zM67 20h1v1h-1zM68 20h1v1h-1zM69 20h1v1h-1zM70 20h1v1h-1zM71 20h1v1h-1zM72 20h1v1h-1zM73 20h1v1h-1z"/><path fill="#D2B362" d="M74 20h1v1h-1z"/><path fill="#CEA759" d="M75 20h1v1h-1z"/><path fill="#002" d="M76 20h1v1h-1zM77 20h1v1h-1zM78 20h1v1h-1zM79 20h1v1h-1zM24 21h1v1h-1zM25 21h1v1h-1zM26 21h1v1h-1zM27 21h1v1h-1z"/><path fill="#0D0C26" d="M28 21h1v1h-1z"/><path fill="#AD9A5C" d="M29 21h1v1h-1z"/><path fill="#D5BD69" d="M30 21h1v1h-1zM31 21h1v1h-1zM32 21h1v1h-1zM33 21h1v1h-1z"/><path fill="#EDCE99" d="M34 21h1v1h-1z"/><path fill="#FBD8B5" d="M35 21h1v1h-1zM36 21h1v1h-1zM37 21h1v1h-1z"/><path fill="#FBDABA" d="M38 21h1v1h-1z"/><path fill="#FEF8F1" d="M39 21h1v1h-1z"/><path fill="#FFF" d="M40 21h1v1h-1zM41 21h1v1h-1zM42 21h1v1h-1zM43 21h1v1h-1zM44 21h1v1h-1zM45 21h1v1h-1zM46 21h1v1h-1zM47 21h1v1h-1zM48 21h1v1h-1zM49 21h1v1h-1z"/><path fill="#FEF8F1" d="M50 21h1v1h-1z"/><path fill="#FCDFC3" d="M51 21h1v1h-1z"/><path fill="#FBD8B5" d="M52 21h1v1h-1z"/><path fill="#EDCE99" d="M53 21h1v1h-1z"/><path fill="#D7BF6E" d="M54 21h1v1h-1z"/><path fill="#D5BD69" d="M55 21h1v1h-1zM56 21h1v1h-1zM57 21h1v1h-1zM58 21h1v1h-1zM59 21h1v1h-1zM60 21h1v1h-1zM61 21h1v1h-1zM62 21h1v1h-1zM63 21h1v1h-1zM64 21h1v1h-1zM65 21h1v1h-1zM66 21h1v1h-1zM67 21h1v1h-1zM68 21h1v1h-1zM69 21h1v1h-1zM70 21h1v1h-1z"/><path fill="#D3B866" d="M71 21h1v1h-1z"/><path fill="#CEA759" d="M72 21h1v1h-1z"/><path fill="#CA9B51" d="M73 21h1v1h-1z"/><path fill="#C8964D" d="M74 21h1v1h-1zM75 21h1v1h-1z"/><path fill="#261C2A" d="M76 21h1v1h-1z"/><path fill="#002" d="M77 21h1v1h-1zM78 21h1v1h-1zM79 21h1v1h-1zM23 22h1v1h-1zM24 22h1v1h-1zM25 22h1v1h-1zM26 22h1v1h-1zM27 22h1v1h-1z"/><path fill="#AD9A5C" d="M28 22h1v1h-1z"/><path fill="#D5BD69" d="M29 22h1v1h-1zM30 22h1v1h-1zM31 22h1v1h-1zM32 22h1v1h-1z"/><path fill="#EDCE99" d="M33 22h1v1h-1z"/><path fill="#FBD8B5" d="M34 22h1v1h-1zM35 22h1v1h-1zM36 22h1v1h-1z"/><path fill="#FBDABA" d="M37 22h1v1h-1z"/><path fill="#FEF8F1" d="M38 22h1v1h-1z"/><path fill="#FFF" d="M39 22h1v1h-1zM40 22h1v1h-1zM41 22h1v1h-1zM42 22h1v1h-1zM43 22h1v1h-1zM44 22h1v1h-1zM45 22h1v1h-1zM46 22h1v1h-1zM47 22h1v1h-1zM48 22h1v1h-1z"/><path fill="#FEF3E8" d="M49 22h1v1h-1z"/><path fill="#FBDABA" d="M50 22h1v1h-1z"/><path fill="#FBD8B5" d="M51 22h1v1h-1z"/><path fill="#E6C98A" d="M52 22h1v1h-1z"/><path fill="#D5BD69" d="M53 22h1v1h-1zM54 22h1v1h-1zM55 22h1v1h-1zM56 22h1v1h-1zM57 22h1v1h-1zM58 22h1v1h-1zM59 22h1v1h-1zM60 22h1v1h-1zM61 22h1v1h-1zM62 22h1v1h-1zM63 22h1v1h-1zM64 22h1v1h-1zM65 22h1v1h-1zM66 22h1v1h-1zM67 22h1v1h-1zM68 22h1v1h-1z"/><path fill="#D2B362" d="M69 22h1v1h-1z"/><path fill="#CDA558" d="M70 22h1v1h-1z"/><path fill="#C8964D" d="M71 22h1v1h-1zM72 22h1v1h-1zM73 22h1v1h-1zM74 22h1v1h-1zM75 22h1v1h-1z"/><path fill="#32262D" d="M76 22h1v1h-1z"/><path fill="#002" d="M77 22h1v1h-1zM78 22h1v1h-1zM79 22h1v1h-1zM22 23h1v1h-1zM23 23h1v1h-1zM24 23h1v1h-1zM25 23h1v1h-1zM26 23h1v1h-1z"/><path fill="#85764E" d="M27 23h1v1h-1z"/><path fill="#D5BD69" d="M28 23h1v1h-1zM29 23h1v1h-1zM30 23h1v1h-1zM31 23h1v1h-1z"/><path fill="#EACC94" d="M32 23h1v1h-1z"/><path fill="#FBD8B5" d="M33 23h1v1h-1zM34 23h1v1h-1zM35 23h1v1h-1z"/><path fill="#FBDABA" d="M36 23h1v1h-1z"/><path fill="#FEF8F1" d="M37 23h1v1h-1z"/><path fill="#FFF" d="M38 23h1v1h-1zM39 23h1v1h-1zM40 23h1v1h-1zM41 23h1v1h-1zM42 23h1v1h-1zM43 23h1v1h-1zM44 23h1v1h-1zM45 23h1v1h-1zM46 23h1v1h-1zM47 23h1v1h-1z"/><path fill="#FDECDA" d="M48 23h1v1h-1z"/><path fill="#FBD8B5" d="M49 23h1v1h-1z"/><path fill="#F6D5AC" d="M50 23h1v1h-1z"/><path fill="#DCC277" d="M51 23h1v1h-1z"/><path fill="#D5BD69" d="M52 23h1v1h-1zM53 23h1v1h-1zM54 23h1v1h-1zM55 23h1v1h-1zM56 23h1v1h-1zM57 23h1v1h-1zM58 23h1v1h-1zM59 23h1v1h-1zM60 23h1v1h-1zM61 23h1v1h-1zM62 23h1v1h-1zM63 23h1v1h-1zM64 23h1v1h-1zM65 23h1v1h-1zM66 23h1v1h-1z"/><path fill="#D2B362" d="M67 23h1v1h-1z"/><path fill="#CBA054" d="M68 23h1v1h-1z"/><path fill="#C8964D" d="M69 23h1v1h-1zM70 23h1v1h-1zM71 23h1v1h-1zM72 23h1v1h-1zM73 23h1v1h-1zM74 23h1v1h-1zM75 23h1v1h-1z"/><path fill="#32262D" d="M76 23h1v1h-1z"/><path fill="#002" d="M77 23h1v1h-1zM78 23h1v1h-1zM79 23h1v1h-1zM21 24h1v1h-1zM22 24h1v1h-1zM23 24h1v1h-1zM24 24h1v1h-1zM25 24h1v1h-1z"/><path fill="#786A4A" d="M26 24h1v1h-1z"/><path fill="#D5BD69" d="M27 24h1v1h-1zM28 24h1v1h-1zM29 24h1v1h-1zM30 24h1v1h-1z"/><path fill="#E3C786" d="M31 24h1v1h-1z"/><path fill="#FBD8B5" d="M32 24h1v1h-1zM33 24h1v1h-1zM34 24h1v1h-1z"/><path fill="#FBDABA" d="M35 24h1v1h-1z"/><path fill="#FEF8F1" d="M36 24h1v1h-1z"/><path fill="#FFF" d="M37 24h1v1h-1zM38 24h1v1h-1zM39 24h1v1h-1zM40 24h1v1h-1zM41 24h1v1h-1zM42 24h1v1h-1zM43 24h1v1h-1zM44 24h1v1h-1zM45 24h1v1h-1z"/><path fill="#FFFDFA" d="M46 24h1v1h-1z"/><path fill="#FDE7D1" d="M47 24h1v1h-1z"/><path fill="#FBD8B5" d="M48 24h1v1h-1z"/><path fill="#F2D1A2" d="M49 24h1v1h-1z"/><path fill="#D7BF6E" d="M50 24h1v1h-1z"/><path fill="#D5BD69" d="M51 24h1v1h-1zM52 24h1v1h-1zM53 24h1v1h-1zM54 24h1v1h-1zM55 24h1v1h-1zM56 24h1v1h-1zM57 24h1v1h-1zM58 24h1v1h-1zM59 24h1v1h-1zM60 24h1v1h-1zM61 24h1v1h-1zM62 24h1v1h-1zM63 24h1v1h-1zM64 24h1v1h-1z"/><path fill="#D3B664" d="M65 24h1v1h-1z"/><path fill="#CBA054" d="M66 24h1v1h-1z"/><path fill="#C8964D" d="M67 24h1v1h-1zM68 24h1v1h-1zM69 24h1v1h-1zM70 24h1v1h-1zM71 24h1v1h-1zM72 24h1v1h-1zM73 24h1v1h-1zM74 24h1v1h-1zM75 24h1v1h-1z"/><path fill="#32262D" d="M76 24h1v1h-1z"/><path fill="#002" d="M77 24h1v1h-1zM78 24h1v1h-1zM79 24h1v1h-1zM20 25h1v1h-1zM21 25h1v1h-1zM22 25h1v1h-1zM23 25h1v1h-1zM24 25h1v1h-1z"/><path fill="#50473D" d="M25 25h1v1h-1z"/><path fill="#D5BD69" d="M26 25h1v1h-1zM27 25h1v1h-1zM28 25h1v1h-1zM29 25h1v1h-1z"/><path fill="#E3C786" d="M30 25h1v1h-1z"/><path fill="#FBD8B5" d="M31 25h1v1h-1zM32 25h1v1h-1zM33 25h1v1h-1z"/><path fill="#FBDABA" d="M34 25h1v1h-1z"/><path fill="#FEF8F1" d="M35 25h1v1h-1z"/><path fill="#FFF" d="M36 25h1v1h-1zM37 25h1v1h-1zM38 25h1v1h-1zM39 25h1v1h-1zM40 25h1v1h-1zM41 25h1v1h-1zM42 25h1v1h-1zM43 25h1v1h-1zM44 25h1v1h-1z"/><path fill="#FFFDFA" d="M45 25h1v1h-1z"/><path fill="#FCDFC3" d="M46 25h1v1h-1z"/><path fill="#FBD8B5" d="M47 25h1v1h-1z"/><path fill="#EACC94" d="M48 25h1v1h-1z"/><path fill="#D5BD69" d="M49 25h1v1h-1zM50 25h1v1h-1zM51 25h1v1h-1zM52 25h1v1h-1zM53 25h1v1h-1zM54 25h1v1h-1zM55 25h1v1h-1zM56 25h1v1h-1zM57 25h1v1h-1zM58 25h1v1h-1zM59 25h1v1h-1zM60 25h1v1h-1zM61 25h1v1h-1zM62 25h1v1h-1z"/><path fill="#D3B866" d="M63 25h1v1h-1z"/><path fill="#CDA558" d="M64 25h1v1h-1z"/><path fill="#C8964D" d="M65 25h1v1h-1zM66 25h1v1h-1zM67 25h1v1h-1zM68 25h1v1h-1zM69 25h1v1h-1zM70 25h1v1h-1zM71 25h1v1h-1zM72 25h1v1h-1zM73 25h1v1h-1zM74 25h1v1h-1zM75 25h1v1h-1z"/><path fill="#32262D" d="M76 25h1v1h-1z"/><path fill="#002" d="M77 25h1v1h-1zM78 25h1v1h-1zM79 25h1v1h-1zM20 26h1v1h-1zM21 26h1v1h-1zM22 26h1v1h-1zM23 26h1v1h-1z"/><path fill="#28232F" d="M24 26h1v1h-1z"/><path fill="#D5BD69" d="M25 26h1v1h-1zM26 26h1v1h-1zM27 26h1v1h-1zM28 26h1v1h-1z"/><path fill="#DFC47C" d="M29 26h1v1h-1z"/><path fill="#FBD8B5" d="M30 26h1v1h-1zM31 26h1v1h-1zM32 26h1v1h-1z"/><path fill="#FBDABA" d="M33 26h1v1h-1z"/><path fill="#FEF8F1" d="M34 26h1v1h-1z"/><path fill="#FFF" d="M35 26h1v1h-1zM36 26h1v1h-1zM37 26h1v1h-1zM38 26h1v1h-1zM39 26h1v1h-1zM40 26h1v1h-1zM41 26h1v1h-1zM42 26h1v1h-1zM43 26h1v1h-1z"/><path fill="#FEF8F1" d="M44 26h1v1h-1z"/><path fill="#FBDABA" d="M45 26h1v1h-1z"/><path fill="#F9D6B0" d="M46 26h1v1h-1z"/><path fill="#E3C786" d="M47 26h1v1h-1z"/><path fill="#D5BD69" d="M48 26h1v1h-1zM49 26h1v1h-1zM50 26h1v1h-1zM51 26h1v1h-1zM52 26h1v1h-1zM53 26h1v1h-1zM54 26h1v1h-1zM55 26h1v1h-1zM56 26h1v1h-1zM57 26h1v1h-1zM58 26h1v1h-1zM59 26h1v1h-1zM60 26h1v1h-1zM61 26h1v1h-1z"/><path fill="#CFAA5B" d="M62 26h1v1h-1z"/><path fill="#C9984F" d="M63 26h1v1h-1z"/><path fill="#C8964D" d="M64 26h1v1h-1zM65 26h1v1h-1zM66 26h1v1h-1zM67 26h1v1h-1zM68 26h1v1h-1zM69 26h1v1h-1zM70 26h1v1h-1zM71 26h1v1h-1zM72 26h1v1h-1zM73 26h1v1h-1zM74 26h1v1h-1zM75 26h1v1h-1z"/><path fill="#261C2A" d="M76 26h1v1h-1z"/><path fill="#002" d="M77 26h1v1h-1zM78 26h1v1h-1zM79 26h1v1h-1zM19 27h1v1h-1zM20 27h1v1h-1zM21 27h1v1h-1zM22 27h1v1h-1z"/><path fill="#0D0C26" d="M23 27h1v1h-1z"/><path fill="#C8B165" d="M24 27h1v1h-1z"/><path fill="#D5BD69" d="M25 27h1v1h-1zM26 27h1v1h-1zM27 27h1v1h-1z"/><path fill="#DCC277" d="M28 27h1v1h-1z"/><path fill="#F9D6B0" d="M29 27h1v1h-1z"/><path fill="#FBD8B5" d="M30 27h1v1h-1zM31 27h1v1h-1z"/><path fill="#FBDABA" d="M32 27h1v1h-1z"/><path fill="#FEF8F1" d="M33 27h1v1h-1z"/><path fill="#FFF" d="M34 27h1v1h-1zM35 27h1v1h-1zM36 27h1v1h-1zM37 27h1v1h-1zM38 27h1v1h-1zM39 27h1v1h-1zM40 27h1v1h-1zM41 27h1v1h-1zM42 27h1v1h-1z"/><path fill="#FEF0E3" d="M43 27h1v1h-1z"/><path fill="#FBDABA" d="M44 27h1v1h-1z"/><path fill="#F9D6B0" d="M45 27h1v1h-1z"/><path fill="#DCC277" d="M46 27h1v1h-1z"/><path fill="#D5BD69" d="M47 27h1v1h-1zM48 27h1v1h-1zM49 27h1v1h-1zM50 27h1v1h-1zM51 27h1v1h-1zM52 27h1v1h-1zM53 27h1v1h-1zM54 27h1v1h-1zM55 27h1v1h-1zM56 27h1v1h-1zM57 27h1v1h-1zM58 27h1v1h-1zM59 27h1v1h-1z"/><path fill="#D2B362" d="M60 27h1v1h-1z"/><path fill="#CA9B51" d="M61 27h1v1h-1z"/><path fill="#C8964D" d="M62 27h1v1h-1zM63 27h1v1h-1zM64 27h1v1h-1zM65 27h1v1h-1zM66 27h1v1h-1zM67 27h1v1h-1zM68 27h1v1h-1zM69 27h1v1h-1zM70 27h1v1h-1zM71 27h1v1h-1zM72 27h1v1h-1z"/><path fill="#C08D47" d="M73 27h1v1h-1z"/><path fill="#B5803D" d="M74 27h1v1h-1z"/><path fill="#AB7536" d="M75 27h1v1h-1z"/><path fill="#002" d="M76 27h1v1h-1zM77 27h1v1h-1zM78 27h1v1h-1zM79 27h1v1h-1zM18 28h1v1h-1zM19 28h1v1h-1zM20 28h1v1h-1zM21 28h1v1h-1zM22 28h1v1h-1z"/><path fill="#AD9A5C" d="M23 28h1v1h-1z"/><path fill="#D5BD69" d="M24 28h1v1h-1zM25 28h1v1h-1zM26 28h1v1h-1z"/><path fill="#D7BF6E" d="M27 28h1v1h-1z"/><path fill="#F6D5AC" d="M28 28h1v1h-1z"/><path fill="#FBD8B5" d="M29 28h1v1h-1zM30 28h1v1h-1z"/><path fill="#FBDABA" d="M31 28h1v1h-1z"/><path fill="#FEF8F1" d="M32 28h1v1h-1z"/><path fill="#FFF" d="M33 28h1v1h-1zM34 28h1v1h-1zM35 28h1v1h-1zM36 28h1v1h-1zM37 28h1v1h-1zM38 28h1v1h-1zM39 28h1v1h-1zM40 28h1v1h-1zM41 28h1v1h-1z"/><path fill="#FEF0E3" d="M42 28h1v1h-1z"/><path fill="#FBD8B5" d="M43 28h1v1h-1z"/><path fill="#F4D3A7" d="M44 28h1v1h-1z"/><path fill="#D7BF6E" d="M45 28h1v1h-1z"/><path fill="#D5BD69" d="M46 28h1v1h-1zM47 28h1v1h-1zM48 28h1v1h-1zM49 28h1v1h-1zM50 28h1v1h-1zM51 28h1v1h-1zM52 28h1v1h-1zM53 28h1v1h-1zM54 28h1v1h-1zM55 28h1v1h-1zM56 28h1v1h-1zM57 28h1v1h-1z"/><path fill="#D4BB67" d="M58 28h1v1h-1z"/><path fill="#CDA558" d="M59 28h1v1h-1z"/><path fill="#C8964D" d="M60 28h1v1h-1zM61 28h1v1h-1zM62 28h1v1h-1zM63 28h1v1h-1zM64 28h1v1h-1zM65 28h1v1h-1zM66 28h1v1h-1zM67 28h1v1h-1zM68 28h1v1h-1zM69 28h1v1h-1z"/><path fill="#C6944B" d="M70 28h1v1h-1z"/><path fill="#BA8742" d="M71 28h1v1h-1z"/><path fill="#AD7737" d="M72 28h1v1h-1z"/><path fill="#A97334" d="M73 28h1v1h-1zM74 28h1v1h-1z"/><path fill="#744F2E" d="M75 28h1v1h-1z"/><path fill="#002" d="M76 28h1v1h-1zM77 28h1v1h-1zM78 28h1v1h-1zM79 28h1v1h-1zM17 29h1v1h-1zM18 29h1v1h-1zM19 29h1v1h-1zM20 29h1v1h-1zM21 29h1v1h-1z"/><path fill="#786A4A" d="M22 29h1v1h-1z"/><path fill="#D5BD69" d="M23 29h1v1h-1zM24 29h1v1h-1zM25 29h1v1h-1zM26 29h1v1h-1z"/><path fill="#F4D3A7" d="M27 29h1v1h-1z"/><path fill="#FBD8B5" d="M28 29h1v1h-1zM29 29h1v1h-1zM30 29h1v1h-1z"/><path fill="#FEF3E8" d="M31 29h1v1h-1z"/><path fill="#FFF" d="M32 29h1v1h-1zM33 29h1v1h-1zM34 29h1v1h-1zM35 29h1v1h-1zM36 29h1v1h-1zM37 29h1v1h-1zM38 29h1v1h-1zM39 29h1v1h-1zM40 29h1v1h-1z"/><path fill="#FDE7D1" d="M41 29h1v1h-1z"/><path fill="#FBD8B5" d="M42 29h1v1h-1z"/><path fill="#EDCE99" d="M43 29h1v1h-1z"/><path fill="#D7BF6E" d="M44 29h1v1h-1z"/><path fill="#D5BD69" d="M45 29h1v1h-1zM46 29h1v1h-1zM47 29h1v1h-1zM48 29h1v1h-1zM49 29h1v1h-1zM50 29h1v1h-1zM51 29h1v1h-1zM52 29h1v1h-1zM53 29h1v1h-1zM54 29h1v1h-1zM55 29h1v1h-1zM56 29h1v1h-1z"/><path fill="#D1B160" d="M57 29h1v1h-1z"/><path fill="#C9984F" d="M58 29h1v1h-1z"/><path fill="#C8964D" d="M59 29h1v1h-1zM60 29h1v1h-1zM61 29h1v1h-1zM62 29h1v1h-1zM63 29h1v1h-1zM64 29h1v1h-1zM65 29h1v1h-1zM66 29h1v1h-1zM67 29h1v1h-1z"/><path fill="#C6944B" d="M68 29h1v1h-1z"/><path fill="#B98541" d="M69 29h1v1h-1z"/><path fill="#AB7536" d="M70 29h1v1h-1z"/><path fill="#A97334" d="M71 29h1v1h-1zM72 29h1v1h-1zM73 29h1v1h-1zM74 29h1v1h-1z"/><path fill="#4A322A" d="M75 29h1v1h-1z"/><path fill="#002" d="M76 29h1v1h-1zM77 29h1v1h-1zM78 29h1v1h-1zM79 29h1v1h-1zM17 30h1v1h-1zM18 30h1v1h-1zM19 30h1v1h-1zM20 30h1v1h-1z"/><path fill="#433B38" d="M21 30h1v1h-1z"/><path fill="#D5BD69" d="M22 30h1v1h-1zM23 30h1v1h-1zM24 30h1v1h-1zM25 30h1v1h-1z"/><path fill="#EDCE99" d="M26 30h1v1h-1z"/><path fill="#FBD8B5" d="M27 30h1v1h-1zM28 30h1v1h-1zM29 30h1v1h-1z"/><path fill="#FEF0E3" d="M30 30h1v1h-1z"/><path fill="#FFF" d="M31 30h1v1h-1zM32 30h1v1h-1zM33 30h1v1h-1zM34 30h1v1h-1zM35 30h1v1h-1zM36 30h1v1h-1zM37 30h1v1h-1zM38 30h1v1h-1zM39 30h1v1h-1z"/><path fill="#FDE7D1" d="M40 30h1v1h-1z"/><path fill="#FBD8B5" d="M41 30h1v1h-1z"/><path fill="#E8CB8F" d="M42 30h1v1h-1z"/><path fill="#D5BD69" d="M43 30h1v1h-1zM44 30h1v1h-1zM45 30h1v1h-1zM46 30h1v1h-1zM47 30h1v1h-1zM48 30h1v1h-1zM49 30h1v1h-1zM50 30h1v1h-1zM51 30h1v1h-1zM52 30h1v1h-1zM53 30h1v1h-1zM54 30h1v1h-1z"/><path fill="#D4BB67" d="M55 30h1v1h-1z"/><path fill="#CCA256" d="M56 30h1v1h-1z"/><path fill="#C8964D" d="M57 30h1v1h-1zM58 30h1v1h-1zM59 30h1v1h-1zM60 30h1v1h-1zM61 30h1v1h-1zM62 30h1v1h-1zM63 30h1v1h-1zM64 30h1v1h-1zM65 30h1v1h-1z"/><path fill="#C6944B" d="M66 30h1v1h-1z"/><path fill="#B98541" d="M67 30h1v1h-1z"/><path fill="#AB7536" d="M68 30h1v1h-1z"/><path fill="#A97334" d="M69 30h1v1h-1zM70 30h1v1h-1zM71 30h1v1h-1zM72 30h1v1h-1zM73 30h1v1h-1zM74 30h1v1h-1z"/><path fill="#0B0723" d="M75 30h1v1h-1z"/><path fill="#002" d="M76 30h1v1h-1zM77 30h1v1h-1zM78 30h1v1h-1zM16 31h1v1h-1zM17 31h1v1h-1zM18 31h1v1h-1zM19 31h1v1h-1z"/><path fill="#1B182B" d="M20 31h1v1h-1z"/><path fill="#C8B165" d="M21 31h1v1h-1z"/><path fill="#D5BD69" d="M22 31h1v1h-1zM23 31h1v1h-1zM24 31h1v1h-1z"/><path fill="#E6C98A" d="M25 31h1v1h-1z"/><path fill="#FBD8B5" d="M26 31h1v1h-1zM27 31h1v1h-1zM28 31h1v1h-1z"/><path fill="#FEF0E3" d="M29 31h1v1h-1z"/><path fill="#FFF" d="M30 31h1v1h-1zM31 31h1v1h-1zM32 31h1v1h-1zM33 31h1v1h-1zM34 31h1v1h-1zM35 31h1v1h-1zM36 31h1v1h-1zM37 31h1v1h-1z"/><path fill="#FFFDFA" d="M38 31h1v1h-1z"/><path fill="#FCDFC3" d="M39 31h1v1h-1z"/><path fill="#FBD8B5" d="M40 31h1v1h-1z"/><path fill="#E3C786" d="M41 31h1v1h-1z"/><path fill="#D5BD69" d="M42 31h1v1h-1zM43 31h1v1h-1zM44 31h1v1h-1zM45 31h1v1h-1zM46 31h1v1h-1zM47 31h1v1h-1zM48 31h1v1h-1zM49 31h1v1h-1zM50 31h1v1h-1zM51 31h1v1h-1zM52 31h1v1h-1zM53 31h1v1h-1z"/><path fill="#D1B160" d="M54 31h1v1h-1z"/><path fill="#C9984F" d="M55 31h1v1h-1z"/><path fill="#C8964D" d="M56 31h1v1h-1zM57 31h1v1h-1zM58 31h1v1h-1zM59 31h1v1h-1zM60 31h1v1h-1zM61 31h1v1h-1zM62 31h1v1h-1zM63 31h1v1h-1zM64 31h1v1h-1z"/><path fill="#BC8944" d="M65 31h1v1h-1z"/><path fill="#AB7536" d="M66 31h1v1h-1z"/><path fill="#A97334" d="M67 31h1v1h-1zM68 31h1v1h-1zM69 31h1v1h-1zM70 31h1v1h-1zM71 31h1v1h-1zM72 31h1v1h-1zM73 31h1v1h-1z"/><path fill="#6A482D" d="M74 31h1v1h-1z"/><path fill="#002" d="M75 31h1v1h-1zM76 31h1v1h-1zM77 31h1v1h-1zM78 31h1v1h-1zM15 32h1v1h-1zM16 32h1v1h-1zM17 32h1v1h-1zM18 32h1v1h-1zM19 32h1v1h-1z"/><path fill="#A08E57" d="M20 32h1v1h-1z"/><path fill="#D5BD69" d="M21 32h1v1h-1zM22 32h1v1h-1zM23 32h1v1h-1z"/><path fill="#DFC47C" d="M24 32h1v1h-1z"/><path fill="#FBD8B5" d="M25 32h1v1h-1zM26 32h1v1h-1zM27 32h1v1h-1z"/><path fill="#FDE7D1" d="M28 32h1v1h-1z"/><path fill="#FFF" d="M29 32h1v1h-1zM30 32h1v1h-1zM31 32h1v1h-1zM32 32h1v1h-1zM33 32h1v1h-1zM34 32h1v1h-1zM35 32h1v1h-1zM36 32h1v1h-1z"/><path fill="#FFFDFA" d="M37 32h1v1h-1z"/><path fill="#FCDFC3" d="M38 32h1v1h-1z"/><path fill="#F9D6B0" d="M39 32h1v1h-1z"/><path fill="#DFC47C" d="M40 32h1v1h-1z"/><path fill="#D5BD69" d="M41 32h1v1h-1zM42 32h1v1h-1zM43 32h1v1h-1zM44 32h1v1h-1zM45 32h1v1h-1zM46 32h1v1h-1zM47 32h1v1h-1zM48 32h1v1h-1zM49 32h1v1h-1zM50 32h1v1h-1zM51 32h1v1h-1z"/><path fill="#D4BB67" d="M52 32h1v1h-1z"/><path fill="#CDA558" d="M53 32h1v1h-1z"/><path fill="#C8964D" d="M54 32h1v1h-1zM55 32h1v1h-1zM56 32h1v1h-1zM57 32h1v1h-1zM58 32h1v1h-1zM59 32h1v1h-1zM60 32h1v1h-1zM61 32h1v1h-1zM62 32h1v1h-1z"/><path fill="#C08D47" d="M63 32h1v1h-1z"/><path fill="#AF7A39" d="M64 32h1v1h-1z"/><path fill="#A97334" d="M65 32h1v1h-1zM66 32h1v1h-1zM67 32h1v1h-1zM68 32h1v1h-1zM69 32h1v1h-1zM70 32h1v1h-1zM71 32h1v1h-1zM72 32h1v1h-1zM73 32h1v1h-1z"/><path fill="#150E24" d="M74 32h1v1h-1z"/><path fill="#002" d="M75 32h1v1h-1zM76 32h1v1h-1zM77 32h1v1h-1zM78 32h1v1h-1zM15 33h1v1h-1zM16 33h1v1h-1zM17 33h1v1h-1zM18 33h1v1h-1z"/><path fill="#5D5341" d="M19 33h1v1h-1z"/><path fill="#D5BD69" d="M20 33h1v1h-1zM21 33h1v1h-1zM22 33h1v1h-1z"/><path fill="#DAC073" d="M23 33h1v1h-1z"/><path fill="#F9D6B0" d="M24 33h1v1h-1z"/><path fill="#FBD8B5" d="M25 33h1v1h-1zM26 33h1v1h-1z"/><path fill="#FCE4CC" d="M27 33h1v1h-1z"/><path fill="#FFF" d="M28 33h1v1h-1zM29 33h1v1h-1zM30 33h1v1h-1zM31 33h1v1h-1zM32 33h1v1h-1zM33 33h1v1h-1zM34 33h1v1h-1zM35 33h1v1h-1z"/><path fill="#FFFDFA" d="M36 33h1v1h-1z"/><path fill="#FCDFC3" d="M37 33h1v1h-1z"/><path fill="#F9D6B0" d="M38 33h1v1h-1z"/><path fill="#DCC277" d="M39 33h1v1h-1z"/><path fill="#D5BD69" d="M40 33h1v1h-1zM41 33h1v1h-1zM42 33h1v1h-1zM43 33h1v1h-1zM44 33h1v1h-1zM45 33h1v1h-1zM46 33h1v1h-1zM47 33h1v1h-1zM48 33h1v1h-1zM49 33h1v1h-1zM50 33h1v1h-1z"/><path fill="#D3B664" d="M51 33h1v1h-1z"/><path fill="#CA9B51" d="M52 33h1v1h-1z"/><path fill="#C8964D" d="M53 33h1v1h-1zM54 33h1v1h-1zM55 33h1v1h-1zM56 33h1v1h-1zM57 33h1v1h-1zM58 33h1v1h-1zM59 33h1v1h-1zM60 33h1v1h-1z"/><path fill="#C6944B" d="M61 33h1v1h-1z"/><path fill="#B7823F" d="M62 33h1v1h-1z"/><path fill="#A97334" d="M63 33h1v1h-1zM64 33h1v1h-1zM65 33h1v1h-1zM66 33h1v1h-1zM67 33h1v1h-1zM68 33h1v1h-1zM69 33h1v1h-1zM70 33h1v1h-1zM71 33h1v1h-1zM72 33h1v1h-1z"/><path fill="#5F412C" d="M73 33h1v1h-1z"/><path fill="#002" d="M74 33h1v1h-1zM75 33h1v1h-1zM76 33h1v1h-1zM77 33h1v1h-1zM14 34h1v1h-1zM15 34h1v1h-1zM16 34h1v1h-1zM17 34h1v1h-1z"/><path fill="#28232F" d="M18 34h1v1h-1z"/><path fill="#D5BD69" d="M19 34h1v1h-1zM20 34h1v1h-1zM21 34h1v1h-1zM22 34h1v1h-1z"/><path fill="#F4D3A7" d="M23 34h1v1h-1z"/><path fill="#FBD8B5" d="M24 34h1v1h-1zM25 34h1v1h-1z"/><path fill="#FCDFC3" d="M26 34h1v1h-1z"/><path fill="#FFFDFA" d="M27 34h1v1h-1z"/><path fill="#FFF" d="M28 34h1v1h-1zM29 34h1v1h-1zM30 34h1v1h-1zM31 34h1v1h-1zM32 34h1v1h-1zM33 34h1v1h-1zM34 34h1v1h-1z"/><path fill="#FEF8F1" d="M35 34h1v1h-1z"/><path fill="#FCDDBE" d="M36 34h1v1h-1z"/><path fill="#F4D3A7" d="M37 34h1v1h-1z"/><path fill="#DCC277" d="M38 34h1v1h-1z"/><path fill="#D5BD69" d="M39 34h1v1h-1zM40 34h1v1h-1zM41 34h1v1h-1zM42 34h1v1h-1zM43 34h1v1h-1zM44 34h1v1h-1zM45 34h1v1h-1zM46 34h1v1h-1zM47 34h1v1h-1zM48 34h1v1h-1zM49 34h1v1h-1z"/><path fill="#CFAC5D" d="M50 34h1v1h-1z"/><path fill="#C8964D" d="M51 34h1v1h-1zM52 34h1v1h-1zM53 34h1v1h-1zM54 34h1v1h-1zM55 34h1v1h-1zM56 34h1v1h-1zM57 34h1v1h-1zM58 34h1v1h-1zM59 34h1v1h-1z"/><path fill="#BE8B45" d="M60 34h1v1h-1z"/><path fill="#AB7536" d="M61 34h1v1h-1z"/><path fill="#A97334" d="M62 34h1v1h-1zM63 34h1v1h-1zM64 34h1v1h-1zM65 34h1v1h-1zM66 34h1v1h-1zM67 34h1v1h-1zM68 34h1v1h-1zM69 34h1v1h-1zM70 34h1v1h-1zM71 34h1v1h-1z"/><path fill="#895D31" d="M72 34h1v1h-1z"/><path fill="#0B0723" d="M73 34h1v1h-1z"/><path fill="#002" d="M74 34h1v1h-1zM75 34h1v1h-1zM76 34h1v1h-1zM77 34h1v1h-1zM13 35h1v1h-1zM14 35h1v1h-1zM15 35h1v1h-1zM16 35h1v1h-1zM17 35h1v1h-1z"/><path fill="#AD9A5C" d="M18 35h1v1h-1z"/><path fill="#D5BD69" d="M19 35h1v1h-1zM20 35h1v1h-1zM21 35h1v1h-1z"/><path fill="#EACC94" d="M22 35h1v1h-1z"/><path fill="#FBD8B5" d="M23 35h1v1h-1zM24 35h1v1h-1z"/><path fill="#FBDABA" d="M25 35h1v1h-1z"/><path fill="#FFFDFA" d="M26 35h1v1h-1z"/><path fill="#FFF" d="M27 35h1v1h-1zM28 35h1v1h-1zM29 35h1v1h-1zM30 35h1v1h-1zM31 35h1v1h-1zM32 35h1v1h-1zM33 35h1v1h-1z"/><path fill="#FEF8F1" d="M34 35h1v1h-1z"/><path fill="#FBDABA" d="M35 35h1v1h-1z"/><path fill="#F4D3A7" d="M36 35h1v1h-1z"/><path fill="#D7BF6E" d="M37 35h1v1h-1z"/><path fill="#D5BD69" d="M38 35h1v1h-1zM39 35h1v1h-1zM40 35h1v1h-1zM41 35h1v1h-1zM42 35h1v1h-1zM43 35h1v1h-1zM44 35h1v1h-1zM45 35h1v1h-1zM46 35h1v1h-1zM47 35h1v1h-1z"/><path fill="#D4BB67" d="M48 35h1v1h-1z"/><path fill="#CCA256" d="M49 35h1v1h-1z"/><path fill="#C8964D" d="M50 35h1v1h-1zM51 35h1v1h-1zM52 35h1v1h-1zM53 35h1v1h-1zM54 35h1v1h-1zM55 35h1v1h-1zM56 35h1v1h-1zM57 35h1v1h-1z"/><path fill="#C6944B" d="M58 35h1v1h-1z"/><path fill="#B37E3C" d="M59 35h1v1h-1z"/><path fill="#A97334" d="M60 35h1v1h-1zM61 35h1v1h-1zM62 35h1v1h-1zM63 35h1v1h-1zM64 35h1v1h-1zM65 35h1v1h-1zM66 35h1v1h-1zM67 35h1v1h-1zM68 35h1v1h-1zM69 35h1v1h-1zM70 35h1v1h-1z"/><path fill="#895D31" d="M71 35h1v1h-1z"/><path fill="#0B0723" d="M72 35h1v1h-1z"/><path fill="#002" d="M73 35h1v1h-1zM74 35h1v1h-1zM75 35h1v1h-1zM76 35h1v1h-1zM13 36h1v1h-1zM14 36h1v1h-1zM15 36h1v1h-1zM16 36h1v1h-1z"/><path fill="#5D5341" d="M17 36h1v1h-1z"/><path fill="#D5BD69" d="M18 36h1v1h-1zM19 36h1v1h-1zM20 36h1v1h-1z"/><path fill="#E1C581" d="M21 36h1v1h-1z"/><path fill="#FBD8B5" d="M22 36h1v1h-1zM23 36h1v1h-1zM24 36h1v1h-1z"/><path fill="#FEF8F1" d="M25 36h1v1h-1z"/><path fill="#FFF" d="M26 36h1v1h-1zM27 36h1v1h-1zM28 36h1v1h-1zM29 36h1v1h-1zM30 36h1v1h-1zM31 36h1v1h-1zM32 36h1v1h-1z"/><path fill="#FEF8F1" d="M33 36h1v1h-1z"/><path fill="#FBDABA" d="M34 36h1v1h-1z"/><path fill="#F4D3A7" d="M35 36h1v1h-1z"/><path fill="#D7BF6E" d="M36 36h1v1h-1z"/><path fill="#D5BD69" d="M37 36h1v1h-1zM38 36h1v1h-1zM39 36h1v1h-1zM40 36h1v1h-1zM41 36h1v1h-1zM42 36h1v1h-1zM43 36h1v1h-1zM44 36h1v1h-1zM45 36h1v1h-1zM46 36h1v1h-1z"/><path fill="#D3B664" d="M47 36h1v1h-1z"/><path fill="#CA9B51" d="M48 36h1v1h-1z"/><path fill="#C8964D" d="M49 36h1v1h-1zM50 36h1v1h-1zM51 36h1v1h-1zM52 36h1v1h-1zM53 36h1v1h-1zM54 36h1v1h-1zM55 36h1v1h-1zM56 36h1v1h-1z"/><path fill="#BE8B45" d="M57 36h1v1h-1z"/><path fill="#AB7536" d="M58 36h1v1h-1z"/><path fill="#A97334" d="M59 36h1v1h-1zM60 36h1v1h-1zM61 36h1v1h-1zM62 36h1v1h-1zM63 36h1v1h-1zM64 36h1v1h-1zM65 36h1v1h-1zM66 36h1v1h-1zM67 36h1v1h-1zM68 36h1v1h-1zM69 36h1v1h-1z"/><path fill="#6A482D" d="M70 36h1v1h-1z"/><path fill="#0B0723" d="M71 36h1v1h-1z"/><path fill="#002" d="M72 36h1v1h-1zM73 36h1v1h-1zM74 36h1v1h-1zM75 36h1v1h-1zM12 37h1v1h-1zM13 37h1v1h-1zM14 37h1v1h-1zM15 37h1v1h-1z"/><path fill="#1B182B" d="M16 37h1v1h-1z"/><path fill="#C8B165" d="M17 37h1v1h-1z"/><path fill="#D5BD69" d="M18 37h1v1h-1zM19 37h1v1h-1z"/><path fill="#D7BF6E" d="M20 37h1v1h-1z"/><path fill="#F9D6B0" d="M21 37h1v1h-1z"/><path fill="#FBD8B5" d="M22 37h1v1h-1zM23 37h1v1h-1z"/><path fill="#FEF0E3" d="M24 37h1v1h-1z"/><path fill="#FFF" d="M25 37h1v1h-1zM26 37h1v1h-1zM27 37h1v1h-1zM28 37h1v1h-1zM29 37h1v1h-1zM30 37h1v1h-1zM31 37h1v1h-1z"/><path fill="#FEF8F1" d="M32 37h1v1h-1z"/><path fill="#FBDABA" d="M33 37h1v1h-1z"/><path fill="#F4D3A7" d="M34 37h1v1h-1z"/><path fill="#D7BF6E" d="M35 37h1v1h-1z"/><path fill="#D5BD69" d="M36 37h1v1h-1zM37 37h1v1h-1zM38 37h1v1h-1zM39 37h1v1h-1zM40 37h1v1h-1zM41 37h1v1h-1zM42 37h1v1h-1zM43 37h1v1h-1zM44 37h1v1h-1zM45 37h1v1h-1z"/><path fill="#D0AE5F" d="M46 37h1v1h-1z"/><path fill="#C8964D" d="M47 37h1v1h-1zM48 37h1v1h-1zM49 37h1v1h-1zM50 37h1v1h-1zM51 37h1v1h-1zM52 37h1v1h-1zM53 37h1v1h-1zM54 37h1v1h-1z"/><path fill="#C6944B" d="M55 37h1v1h-1z"/><path fill="#B37E3C" d="M56 37h1v1h-1z"/><path fill="#A97334" d="M57 37h1v1h-1zM58 37h1v1h-1zM59 37h1v1h-1zM60 37h1v1h-1zM61 37h1v1h-1zM62 37h1v1h-1zM63 37h1v1h-1zM64 37h1v1h-1zM65 37h1v1h-1zM66 37h1v1h-1zM67 37h1v1h-1z"/><path fill="#895D31" d="M68 37h1v1h-1z"/><path fill="#2A1D27" d="M69 37h1v1h-1z"/><path fill="#002" d="M70 37h1v1h-1zM71 37h1v1h-1zM72 37h1v1h-1zM73 37h1v1h-1zM74 37h1v1h-1zM75 37h1v1h-1zM12 38h1v1h-1zM13 38h1v1h-1zM14 38h1v1h-1zM15 38h1v1h-1z"/><path fill="#928253" d="M16 38h1v1h-1z"/><path fill="#D5BD69" d="M17 38h1v1h-1zM18 38h1v1h-1zM19 38h1v1h-1z"/><path fill="#F2D1A2" d="M20 38h1v1h-1z"/><path fill="#FBD8B5" d="M21 38h1v1h-1zM22 38h1v1h-1z"/><path fill="#FDE7D1" d="M23 38h1v1h-1z"/><path fill="#FFF" d="M24 38h1v1h-1zM25 38h1v1h-1zM26 38h1v1h-1zM27 38h1v1h-1zM28 38h1v1h-1zM29 38h1v1h-1zM30 38h1v1h-1z"/><path fill="#FEF8F1" d="M31 38h1v1h-1z"/><path fill="#FBDABA" d="M32 38h1v1h-1z"/><path fill="#F4D3A7" d="M33 38h1v1h-1z"/><path fill="#D7BF6E" d="M34 38h1v1h-1z"/><path fill="#D5BD69" d="M35 38h1v1h-1zM36 38h1v1h-1zM37 38h1v1h-1zM38 38h1v1h-1zM39 38h1v1h-1zM40 38h1v1h-1zM41 38h1v1h-1zM42 38h1v1h-1zM43 38h1v1h-1zM44 38h1v1h-1z"/><path fill="#CDA558" d="M45 38h1v1h-1z"/><path fill="#C8964D" d="M46 38h1v1h-1zM47 38h1v1h-1zM48 38h1v1h-1zM49 38h1v1h-1zM50 38h1v1h-1zM51 38h1v1h-1zM52 38h1v1h-1zM53 38h1v1h-1z"/><path fill="#C08D47" d="M54 38h1v1h-1z"/><path fill="#AB7536" d="M55 38h1v1h-1z"/><path fill="#A97334" d="M56 38h1v1h-1zM57 38h1v1h-1zM58 38h1v1h-1zM59 38h1v1h-1zM60 38h1v1h-1zM61 38h1v1h-1zM62 38h1v1h-1zM63 38h1v1h-1zM64 38h1v1h-1zM65 38h1v1h-1z"/><path fill="#7F5630" d="M66 38h1v1h-1z"/><path fill="#2A1D27" d="M67 38h1v1h-1z"/><path fill="#002" d="M68 38h1v1h-1zM69 38h1v1h-1zM70 38h1v1h-1zM71 38h1v1h-1zM72 38h1v1h-1zM73 38h1v1h-1zM74 38h1v1h-1zM11 39h1v1h-1zM12 39h1v1h-1zM13 39h1v1h-1zM14 39h1v1h-1z"/><path fill="#352F34" d="M15 39h1v1h-1z"/><path fill="#D5BD69" d="M16 39h1v1h-1zM17 39h1v1h-1zM18 39h1v1h-1z"/><path fill="#E6C98A" d="M19 39h1v1h-1z"/><path fill="#FBD8B5" d="M20 39h1v1h-1zM21 39h1v1h-1z"/><path fill="#FCDFC3" d="M22 39h1v1h-1z"/><path fill="#FFF" d="M23 39h1v1h-1zM24 39h1v1h-1zM25 39h1v1h-1zM26 39h1v1h-1zM27 39h1v1h-1zM28 39h1v1h-1zM29 39h1v1h-1z"/><path fill="#FEF8F1" d="M30 39h1v1h-1z"/><path fill="#FBDABA" d="M31 39h1v1h-1z"/><path fill="#F4D3A7" d="M32 39h1v1h-1z"/><path fill="#D7BF6E" d="M33 39h1v1h-1z"/><path fill="#D5BD69" d="M34 39h1v1h-1zM35 39h1v1h-1zM36 39h1v1h-1zM37 39h1v1h-1zM38 39h1v1h-1zM39 39h1v1h-1zM40 39h1v1h-1zM41 39h1v1h-1zM42 39h1v1h-1z"/><path fill="#D4BB67" d="M43 39h1v1h-1z"/><path fill="#CA9D52" d="M44 39h1v1h-1z"/><path fill="#C8964D" d="M45 39h1v1h-1zM46 39h1v1h-1zM47 39h1v1h-1zM48 39h1v1h-1zM49 39h1v1h-1zM50 39h1v1h-1zM51 39h1v1h-1zM52 39h1v1h-1z"/><path fill="#B7823F" d="M53 39h1v1h-1z"/><path fill="#A97334" d="M54 39h1v1h-1zM55 39h1v1h-1zM56 39h1v1h-1zM57 39h1v1h-1zM58 39h1v1h-1zM59 39h1v1h-1zM60 39h1v1h-1zM61 39h1v1h-1zM62 39h1v1h-1zM63 39h1v1h-1z"/><path fill="#7F5630" d="M64 39h1v1h-1z"/><path fill="#2A1D27" d="M65 39h1v1h-1z"/><path fill="#002" d="M66 39h1v1h-1zM67 39h1v1h-1zM68 39h1v1h-1zM69 39h1v1h-1zM70 39h1v1h-1zM71 39h1v1h-1zM72 39h1v1h-1zM73 39h1v1h-1zM10 40h1v1h-1zM11 40h1v1h-1zM12 40h1v1h-1zM13 40h1v1h-1zM14 40h1v1h-1z"/><path fill="#BAA560" d="M15 40h1v1h-1z"/><path fill="#D5BD69" d="M16 40h1v1h-1zM17 40h1v1h-1z"/><path fill="#DAC073" d="M18 40h1v1h-1z"/><path fill="#F9D6B0" d="M19 40h1v1h-1z"/><path fill="#FBD8B5" d="M20 40h1v1h-1z"/><path fill="#FBDABA" d="M21 40h1v1h-1z"/><path fill="#FFFAF6" d="M22 40h1v1h-1z"/><path fill="#FFF" d="M23 40h1v1h-1zM24 40h1v1h-1zM25 40h1v1h-1zM26 40h1v1h-1zM27 40h1v1h-1zM28 40h1v1h-1z"/><path fill="#FEF8F1" d="M29 40h1v1h-1z"/><path fill="#FBDABA" d="M30 40h1v1h-1z"/><path fill="#F4D3A7" d="M31 40h1v1h-1z"/><path fill="#D7BF6E" d="M32 40h1v1h-1z"/><path fill="#D5BD69" d="M33 40h1v1h-1zM34 40h1v1h-1zM35 40h1v1h-1zM36 40h1v1h-1zM37 40h1v1h-1zM38 40h1v1h-1zM39 40h1v1h-1zM40 40h1v1h-1zM41 40h1v1h-1z"/><path fill="#D3B664" d="M42 40h1v1h-1z"/><path fill="#C9984F" d="M43 40h1v1h-1z"/><path fill="#C8964D" d="M44 40h1v1h-1zM45 40h1v1h-1zM46 40h1v1h-1zM47 40h1v1h-1zM48 40h1v1h-1zM49 40h1v1h-1zM50 40h1v1h-1z"/><path fill="#C4924A" d="M51 40h1v1h-1z"/><path fill="#AF7A39" d="M52 40h1v1h-1z"/><path fill="#A97334" d="M53 40h1v1h-1zM54 40h1v1h-1zM55 40h1v1h-1zM56 40h1v1h-1zM57 40h1v1h-1zM58 40h1v1h-1zM59 40h1v1h-1zM60 40h1v1h-1zM61 40h1v1h-1z"/><path fill="#946532" d="M62 40h1v1h-1z"/><path fill="#352428" d="M63 40h1v1h-1z"/><path fill="#002" d="M64 40h1v1h-1zM65 40h1v1h-1zM66 40h1v1h-1zM67 40h1v1h-1zM68 40h1v1h-1zM69 40h1v1h-1zM70 40h1v1h-1zM71 40h1v1h-1zM10 41h1v1h-1zM11 41h1v1h-1zM12 41h1v1h-1zM13 41h1v1h-1z"/><path fill="#6B5F46" d="M14 41h1v1h-1z"/><path fill="#D5BD69" d="M15 41h1v1h-1zM16 41h1v1h-1zM17 41h1v1h-1z"/><path fill="#F2D1A2" d="M18 41h1v1h-1z"/><path fill="#FBD8B5" d="M19 41h1v1h-1zM20 41h1v1h-1z"/><path fill="#FEF3E8" d="M21 41h1v1h-1z"/><path fill="#FFF" d="M22 41h1v1h-1zM23 41h1v1h-1zM24 41h1v1h-1zM25 41h1v1h-1zM26 41h1v1h-1zM27 41h1v1h-1z"/><path fill="#FFFDFA" d="M28 41h1v1h-1z"/><path fill="#FCDDBE" d="M29 41h1v1h-1z"/><path fill="#F4D3A7" d="M30 41h1v1h-1z"/><path fill="#D7BF6E" d="M31 41h1v1h-1z"/><path fill="#D5BD69" d="M32 41h1v1h-1zM33 41h1v1h-1zM34 41h1v1h-1zM35 41h1v1h-1zM36 41h1v1h-1zM37 41h1v1h-1zM38 41h1v1h-1zM39 41h1v1h-1zM40 41h1v1h-1z"/><path fill="#D0AE5F" d="M41 41h1v1h-1z"/><path fill="#C9984F" d="M42 41h1v1h-1z"/><path fill="#C8964D" d="M43 41h1v1h-1zM44 41h1v1h-1zM45 41h1v1h-1zM46 41h1v1h-1zM47 41h1v1h-1zM48 41h1v1h-1zM49 41h1v1h-1z"/><path fill="#BE8B45" d="M50 41h1v1h-1z"/><path fill="#AB7536" d="M51 41h1v1h-1z"/><path fill="#A97334" d="M52 41h1v1h-1zM53 41h1v1h-1zM54 41h1v1h-1zM55 41h1v1h-1zM56 41h1v1h-1zM57 41h1v1h-1zM58 41h1v1h-1zM59 41h1v1h-1z"/><path fill="#946532" d="M60 41h1v1h-1z"/><path fill="#3F2B29" d="M61 41h1v1h-1z"/><path fill="#002" d="M62 41h1v1h-1zM63 41h1v1h-1zM64 41h1v1h-1zM65 41h1v1h-1zM66 41h1v1h-1zM67 41h1v1h-1zM68 41h1v1h-1zM69 41h1v1h-1zM9 42h1v1H9zM10 42h1v1h-1zM11 42h1v1h-1zM12 42h1v1h-1z"/><path fill="#0D0C26" d="M13 42h1v1h-1z"/><path fill="#C8B165" d="M14 42h1v1h-1z"/><path fill="#D5BD69" d="M15 42h1v1h-1zM16 42h1v1h-1z"/><path fill="#E6C98A" d="M17 42h1v1h-1z"/><path fill="#FBD8B5" d="M18 42h1v1h-1zM19 42h1v1h-1z"/><path fill="#FDE9D5" d="M20 42h1v1h-1z"/><path fill="#FFF" d="M21 42h1v1h-1zM22 42h1v1h-1zM23 42h1v1h-1zM24 42h1v1h-1zM25 42h1v1h-1zM26 42h1v1h-1z"/><path fill="#FFFDFA" d="M27 42h1v1h-1z"/><path fill="#FCDFC3" d="M28 42h1v1h-1z"/><path fill="#F4D3A7" d="M29 42h1v1h-1z"/><path fill="#D7BF6E" d="M30 42h1v1h-1z"/><path fill="#D5BD69" d="M31 42h1v1h-1zM32 42h1v1h-1zM33 42h1v1h-1zM34 42h1v1h-1zM35 42h1v1h-1zM36 42h1v1h-1zM37 42h1v1h-1zM38 42h1v1h-1zM39 42h1v1h-1z"/><path fill="#CFAA5B" d="M40 42h1v1h-1z"/><path fill="#C8964D" d="M41 42h1v1h-1zM42 42h1v1h-1zM43 42h1v1h-1zM44 42h1v1h-1zM45 42h1v1h-1zM46 42h1v1h-1zM47 42h1v1h-1zM48 42h1v1h-1z"/><path fill="#B7823F" d="M49 42h1v1h-1z"/><path fill="#A97334" d="M50 42h1v1h-1zM51 42h1v1h-1zM52 42h1v1h-1zM53 42h1v1h-1zM54 42h1v1h-1zM55 42h1v1h-1zM56 42h1v1h-1zM57 42h1v1h-1z"/><path fill="#9E6C33" d="M58 42h1v1h-1z"/><path fill="#553A2B" d="M59 42h1v1h-1z"/><path fill="#002" d="M60 42h1v1h-1zM61 42h1v1h-1zM62 42h1v1h-1zM63 42h1v1h-1zM64 42h1v1h-1zM65 42h1v1h-1zM66 42h1v1h-1zM67 42h1v1h-1zM9 43h1v1H9zM10 43h1v1h-1zM11 43h1v1h-1zM12 43h1v1h-1z"/><path fill="#786A4A" d="M13 43h1v1h-1z"/><path fill="#D5BD69" d="M14 43h1v1h-1zM15 43h1v1h-1z"/><path fill="#DAC073" d="M16 43h1v1h-1z"/><path fill="#F9D6B0" d="M17 43h1v1h-1z"/><path fill="#FBD8B5" d="M18 43h1v1h-1z"/><path fill="#FCDFC3" d="M19 43h1v1h-1z"/><path fill="#FFF" d="M20 43h1v1h-1zM21 43h1v1h-1zM22 43h1v1h-1zM23 43h1v1h-1zM24 43h1v1h-1zM25 43h1v1h-1z"/><path fill="#FFFDFA" d="M26 43h1v1h-1z"/><path fill="#FCDFC3" d="M27 43h1v1h-1z"/><path fill="#F4D3A7" d="M28 43h1v1h-1z"/><path fill="#D7BF6E" d="M29 43h1v1h-1z"/><path fill="#D5BD69" d="M30 43h1v1h-1zM31 43h1v1h-1zM32 43h1v1h-1zM33 43h1v1h-1zM34 43h1v1h-1zM35 43h1v1h-1zM36 43h1v1h-1zM37 43h1v1h-1zM38 43h1v1h-1z"/><path fill="#CDA558" d="M39 43h1v1h-1z"/><path fill="#C8964D" d="M40 43h1v1h-1zM41 43h1v1h-1zM42 43h1v1h-1zM43 43h1v1h-1zM44 43h1v1h-1zM45 43h1v1h-1zM46 43h1v1h-1z"/><path fill="#C6944B" d="M47 43h1v1h-1z"/><path fill="#B17C3A" d="M48 43h1v1h-1z"/><path fill="#A97334" d="M49 43h1v1h-1zM50 43h1v1h-1zM51 43h1v1h-1zM52 43h1v1h-1zM53 43h1v1h-1zM54 43h1v1h-1zM55 43h1v1h-1zM56 43h1v1h-1z"/><path fill="#5F412C" d="M57 43h1v1h-1z"/><path fill="#0B0723" d="M58 43h1v1h-1z"/><path fill="#002" d="M59 43h1v1h-1zM60 43h1v1h-1zM61 43h1v1h-1zM62 43h1v1h-1zM63 43h1v1h-1zM64 43h1v1h-1zM65 43h1v1h-1zM8 44h1v1H8zM9 44h1v1H9zM10 44h1v1h-1zM11 44h1v1h-1z"/><path fill="#1B182B" d="M12 44h1v1h-1z"/><path fill="#D5BD69" d="M13 44h1v1h-1zM14 44h1v1h-1zM15 44h1v1h-1z"/><path fill="#EFD09D" d="M16 44h1v1h-1z"/><path fill="#FBD8B5" d="M17 44h1v1h-1z"/><path fill="#FBDABA" d="M18 44h1v1h-1z"/><path fill="#FEF8F1" d="M19 44h1v1h-1z"/><path fill="#FFF" d="M20 44h1v1h-1zM21 44h1v1h-1zM22 44h1v1h-1zM23 44h1v1h-1zM24 44h1v1h-1zM25 44h1v1h-1z"/><path fill="#FCE4CC" d="M26 44h1v1h-1z"/><path fill="#F9D6B0" d="M27 44h1v1h-1z"/><path fill="#DCC277" d="M28 44h1v1h-1z"/><path fill="#D5BD69" d="M29 44h1v1h-1zM30 44h1v1h-1zM31 44h1v1h-1zM32 44h1v1h-1zM33 44h1v1h-1zM34 44h1v1h-1zM35 44h1v1h-1zM36 44h1v1h-1z"/><path fill="#D4BB67" d="M37 44h1v1h-1z"/><path fill="#CBA054" d="M38 44h1v1h-1z"/><path fill="#C8964D" d="M39 44h1v1h-1zM40 44h1v1h-1zM41 44h1v1h-1zM42 44h1v1h-1zM43 44h1v1h-1zM44 44h1v1h-1zM45 44h1v1h-1z"/><path fill="#C28F48" d="M46 44h1v1h-1z"/><path fill="#AB7536" d="M47 44h1v1h-1z"/><path fill="#A97334" d="M48 44h1v1h-1zM49 44h1v1h-1zM50 44h1v1h-1zM51 44h1v1h-1zM52 44h1v1h-1zM53 44h1v1h-1zM54 44h1v1h-1z"/><path fill="#7F5630" d="M55 44h1v1h-1z"/><path fill="#201625" d="M56 44h1v1h-1z"/><path fill="#002" d="M57 44h1v1h-1zM58 44h1v1h-1zM59 44h1v1h-1zM60 44h1v1h-1zM61 44h1v1h-1zM62 44h1v1h-1zM63 44h1v1h-1zM8 45h1v1H8zM9 45h1v1H9zM10 45h1v1h-1zM11 45h1v1h-1z"/><path fill="#85764E" d="M12 45h1v1h-1z"/><path fill="#D5BD69" d="M13 45h1v1h-1zM14 45h1v1h-1z"/><path fill="#E1C581" d="M15 45h1v1h-1z"/><path fill="#FBD8B5" d="M16 45h1v1h-1zM17 45h1v1h-1z"/><path fill="#FDEEDF" d="M18 45h1v1h-1z"/><path fill="#FFF" d="M19 45h1v1h-1zM20 45h1v1h-1zM21 45h1v1h-1zM22 45h1v1h-1zM23 45h1v1h-1zM24 45h1v1h-1z"/><path fill="#FDE7D1" d="M25 45h1v1h-1z"/><path fill="#F9D6B0" d="M26 45h1v1h-1z"/><path fill="#DCC277" d="M27 45h1v1h-1z"/><path fill="#D5BD69" d="M28 45h1v1h-1zM29 45h1v1h-1zM30 45h1v1h-1zM31 45h1v1h-1zM32 45h1v1h-1zM33 45h1v1h-1zM34 45h1v1h-1zM35 45h1v1h-1z"/><path fill="#D4BB67" d="M36 45h1v1h-1z"/><path fill="#CA9D52" d="M37 45h1v1h-1z"/><path fill="#C8964D" d="M38 45h1v1h-1zM39 45h1v1h-1zM40 45h1v1h-1zM41 45h1v1h-1zM42 45h1v1h-1zM43 45h1v1h-1zM44 45h1v1h-1z"/><path fill="#BC8944" d="M45 45h1v1h-1z"/><path fill="#A97334" d="M46 45h1v1h-1zM47 45h1v1h-1zM48 45h1v1h-1zM49 45h1v1h-1zM50 45h1v1h-1zM51 45h1v1h-1zM52 45h1v1h-1z"/><path fill="#946532" d="M53 45h1v1h-1z"/><path fill="#352428" d="M54 45h1v1h-1z"/><path fill="#002" d="M55 45h1v1h-1zM56 45h1v1h-1zM57 45h1v1h-1zM58 45h1v1h-1zM59 45h1v1h-1zM60 45h1v1h-1zM61 45h1v1h-1zM7 46h1v1H7zM8 46h1v1H8zM9 46h1v1H9zM10 46h1v1h-1z"/><path fill="#1B182B" d="M11 46h1v1h-1z"/><path fill="#D5BD69" d="M12 46h1v1h-1zM13 46h1v1h-1zM14 46h1v1h-1z"/><path fill="#F6D5AC" d="M15 46h1v1h-1z"/><path fill="#FBD8B5" d="M16 46h1v1h-1z"/><path fill="#FCE2C8" d="M17 46h1v1h-1z"/><path fill="#FFF" d="M18 46h1v1h-1zM19 46h1v1h-1zM20 46h1v1h-1zM21 46h1v1h-1zM22 46h1v1h-1zM23 46h1v1h-1z"/><path fill="#FDEEDF" d="M24 46h1v1h-1z"/><path fill="#FBD8B5" d="M25 46h1v1h-1z"/><path fill="#E1C581" d="M26 46h1v1h-1z"/><path fill="#D5BD69" d="M27 46h1v1h-1zM28 46h1v1h-1zM29 46h1v1h-1zM30 46h1v1h-1zM31 46h1v1h-1zM32 46h1v1h-1zM33 46h1v1h-1zM34 46h1v1h-1z"/><path fill="#D3B664" d="M35 46h1v1h-1z"/><path fill="#CA9D52" d="M36 46h1v1h-1z"/><path fill="#C8964D" d="M37 46h1v1h-1zM38 46h1v1h-1zM39 46h1v1h-1zM40 46h1v1h-1zM41 46h1v1h-1zM42 46h1v1h-1zM43 46h1v1h-1z"/><path fill="#B5803D" d="M44 46h1v1h-1z"/><path fill="#A97334" d="M45 46h1v1h-1zM46 46h1v1h-1zM47 46h1v1h-1zM48 46h1v1h-1zM49 46h1v1h-1zM50 46h1v1h-1zM51 46h1v1h-1z"/><path fill="#553A2B" d="M52 46h1v1h-1z"/><path fill="#0B0723" d="M53 46h1v1h-1z"/><path fill="#002" d="M54 46h1v1h-1zM55 46h1v1h-1zM56 46h1v1h-1zM57 46h1v1h-1zM58 46h1v1h-1zM59 46h1v1h-1zM60 46h1v1h-1zM7 47h1v1H7zM8 47h1v1H8zM9 47h1v1H9zM10 47h1v1h-1z"/><path fill="#85764E" d="M11 47h1v1h-1z"/><path fill="#D5BD69" d="M12 47h1v1h-1zM13 47h1v1h-1z"/><path fill="#E8CB8F" d="M14 47h1v1h-1z"/><path fill="#FBD8B5" d="M15 47h1v1h-1z"/><path fill="#FBDABA" d="M16 47h1v1h-1z"/><path fill="#FFFAF6" d="M17 47h1v1h-1z"/><path fill="#FFF" d="M18 47h1v1h-1zM19 47h1v1h-1zM20 47h1v1h-1zM21 47h1v1h-1zM22 47h1v1h-1z"/><path fill="#FEF3E8" d="M23 47h1v1h-1z"/><path fill="#FBD8B5" d="M24 47h1v1h-1z"/><path fill="#E3C786" d="M25 47h1v1h-1z"/><path fill="#D5BD69" d="M26 47h1v1h-1zM27 47h1v1h-1zM28 47h1v1h-1zM29 47h1v1h-1zM30 47h1v1h-1zM31 47h1v1h-1zM32 47h1v1h-1zM33 47h1v1h-1z"/><path fill="#D3B664" d="M34 47h1v1h-1z"/><path fill="#C9984F" d="M35 47h1v1h-1z"/><path fill="#C8964D" d="M36 47h1v1h-1zM37 47h1v1h-1zM38 47h1v1h-1zM39 47h1v1h-1zM40 47h1v1h-1zM41 47h1v1h-1z"/><path fill="#C6944B" d="M42 47h1v1h-1z"/><path fill="#B17C3A" d="M43 47h1v1h-1z"/><path fill="#A97334" d="M44 47h1v1h-1zM45 47h1v1h-1zM46 47h1v1h-1zM47 47h1v1h-1zM48 47h1v1h-1zM49 47h1v1h-1z"/><path fill="#7F5630" d="M50 47h1v1h-1z"/><path fill="#201625" d="M51 47h1v1h-1z"/><path fill="#002" d="M52 47h1v1h-1zM53 47h1v1h-1zM54 47h1v1h-1zM55 47h1v1h-1zM56 47h1v1h-1zM57 47h1v1h-1zM58 47h1v1h-1zM6 48h1v1H6zM7 48h1v1H7zM8 48h1v1H8zM9 48h1v1H9z"/><path fill="#0D0C26" d="M10 48h1v1h-1z"/><path fill="#D5BD69" d="M11 48h1v1h-1zM12 48h1v1h-1z"/><path fill="#D7BF6E" d="M13 48h1v1h-1z"/><path fill="#F9D6B0" d="M14 48h1v1h-1z"/><path fill="#FBD8B5" d="M15 48h1v1h-1z"/><path fill="#FDECDA" d="M16 48h1v1h-1z"/><path fill="#FFF" d="M17 48h1v1h-1zM18 48h1v1h-1zM19 48h1v1h-1zM20 48h1v1h-1zM21 48h1v1h-1z"/><path fill="#FEF8F1" d="M22 48h1v1h-1z"/><path fill="#FBDABA" d="M23 48h1v1h-1z"/><path fill="#EDCE99" d="M24 48h1v1h-1z"/><path fill="#D5BD69" d="M25 48h1v1h-1zM26 48h1v1h-1zM27 48h1v1h-1zM28 48h1v1h-1zM29 48h1v1h-1zM30 48h1v1h-1zM31 48h1v1h-1zM32 48h1v1h-1z"/><path fill="#D3B664" d="M33 48h1v1h-1z"/><path fill="#C9984F" d="M34 48h1v1h-1z"/><path fill="#C8964D" d="M35 48h1v1h-1zM36 48h1v1h-1zM37 48h1v1h-1zM38 48h1v1h-1zM39 48h1v1h-1zM40 48h1v1h-1z"/><path fill="#C28F48" d="M41 48h1v1h-1z"/><path fill="#AF7A39" d="M42 48h1v1h-1z"/><path fill="#A97334" d="M43 48h1v1h-1zM44 48h1v1h-1zM45 48h1v1h-1zM46 48h1v1h-1zM47 48h1v1h-1z"/><path fill="#9E6C33" d="M48 48h1v1h-1z"/><path fill="#4A322A" d="M49 48h1v1h-1z"/><path fill="#002" d="M50 48h1v1h-1zM51 48h1v1h-1zM52 48h1v1h-1zM53 48h1v1h-1zM54 48h1v1h-1zM55 48h1v1h-1zM56 48h1v1h-1zM6 49h1v1H6zM7 49h1v1H7zM8 49h1v1H8zM9 49h1v1H9z"/><path fill="#6B5F46" d="M10 49h1v1h-1z"/><path fill="#D5BD69" d="M11 49h1v1h-1zM12 49h1v1h-1z"/><path fill="#EDCE99" d="M13 49h1v1h-1z"/><path fill="#FBD8B5" d="M14 49h1v1h-1z"/><path fill="#FCDFC3" d="M15 49h1v1h-1z"/><path fill="#FFF" d="M16 49h1v1h-1zM17 49h1v1h-1zM18 49h1v1h-1zM19 49h1v1h-1zM20 49h1v1h-1z"/><path fill="#FFFDFA" d="M21 49h1v1h-1z"/><path fill="#FCDDBE" d="M22 49h1v1h-1z"/><path fill="#F2D1A2" d="M23 49h1v1h-1z"/><path fill="#D5BD69" d="M24 49h1v1h-1zM25 49h1v1h-1zM26 49h1v1h-1zM27 49h1v1h-1zM28 49h1v1h-1zM29 49h1v1h-1zM30 49h1v1h-1zM31 49h1v1h-1z"/><path fill="#D3B664" d="M32 49h1v1h-1z"/><path fill="#C9984F" d="M33 49h1v1h-1z"/><path fill="#C8964D" d="M34 49h1v1h-1zM35 49h1v1h-1zM36 49h1v1h-1zM37 49h1v1h-1zM38 49h1v1h-1zM39 49h1v1h-1z"/><path fill="#C28F48" d="M40 49h1v1h-1z"/><path fill="#AB7536" d="M41 49h1v1h-1z"/><path fill="#A97334" d="M42 49h1v1h-1zM43 49h1v1h-1zM44 49h1v1h-1zM45 49h1v1h-1zM46 49h1v1h-1z"/><path fill="#7F5630" d="M47 49h1v1h-1z"/><path fill="#150E24" d="M48 49h1v1h-1z"/><path fill="#002" d="M49 49h1v1h-1zM50 49h1v1h-1zM51 49h1v1h-1zM52 49h1v1h-1zM53 49h1v1h-1zM54 49h1v1h-1zM55 49h1v1h-1zM6 50h1v1H6zM7 50h1v1H7zM8 50h1v1H8zM9 50h1v1H9z"/><path fill="#C8B165" d="M10 50h1v1h-1z"/><path fill="#D5BD69" d="M11 50h1v1h-1z"/><path fill="#DAC073" d="M12 50h1v1h-1z"/><path fill="#FBD8B5" d="M13 50h1v1h-1zM14 50h1v1h-1z"/><path fill="#FEF5ED" d="M15 50h1v1h-1z"/><path fill="#FFF" d="M16 50h1v1h-1zM17 50h1v1h-1zM18 50h1v1h-1zM19 50h1v1h-1zM20 50h1v1h-1z"/><path fill="#FCE2C8" d="M21 50h1v1h-1z"/><path fill="#F6D5AC" d="M22 50h1v1h-1z"/><path fill="#D7BF6E" d="M23 50h1v1h-1z"/><path fill="#D5BD69" d="M24 50h1v1h-1zM25 50h1v1h-1zM26 50h1v1h-1zM27 50h1v1h-1zM28 50h1v1h-1zM29 50h1v1h-1zM30 50h1v1h-1z"/><path fill="#D3B664" d="M31 50h1v1h-1z"/><path fill="#C9984F" d="M32 50h1v1h-1z"/><path fill="#C8964D" d="M33 50h1v1h-1zM34 50h1v1h-1zM35 50h1v1h-1zM36 50h1v1h-1zM37 50h1v1h-1zM38 50h1v1h-1z"/><path fill="#BC8944" d="M39 50h1v1h-1z"/><path fill="#AB7536" d="M40 50h1v1h-1z"/><path fill="#A97334" d="M41 50h1v1h-1zM42 50h1v1h-1zM43 50h1v1h-1zM44 50h1v1h-1z"/><path fill="#9E6C33" d="M45 50h1v1h-1z"/><path fill="#4A322A" d="M46 50h1v1h-1z"/><path fill="#002" d="M47 50h1v1h-1zM48 50h1v1h-1zM49 50h1v1h-1zM50 50h1v1h-1zM51 50h1v1h-1zM52 50h1v1h-1zM53 50h1v1h-1zM5 51h1v1H5zM6 51h1v1H6zM7 51h1v1H7zM8 51h1v1H8z"/><path fill="#50473D" d="M9 51h1v1H9z"/><path fill="#D5BD69" d="M10 51h1v1h-1zM11 51h1v1h-1z"/><path fill="#EDCE99" d="M12 51h1v1h-1z"/><path fill="#FBD8B5" d="M13 51h1v1h-1z"/><path fill="#FDE7D1" d="M14 51h1v1h-1z"/><path fill="#FFF" d="M15 51h1v1h-1zM16 51h1v1h-1zM17 51h1v1h-1zM18 51h1v1h-1zM19 51h1v1h-1z"/><path fill="#FDECDA" d="M20 51h1v1h-1z"/><path fill="#FBD8B5" d="M21 51h1v1h-1z"/><path fill="#DCC277" d="M22 51h1v1h-1z"/><path fill="#D5BD69" d="M23 51h1v1h-1zM24 51h1v1h-1zM25 51h1v1h-1zM26 51h1v1h-1zM27 51h1v1h-1zM28 51h1v1h-1zM29 51h1v1h-1z"/><path fill="#D3B664" d="M30 51h1v1h-1z"/><path fill="#C9984F" d="M31 51h1v1h-1z"/><path fill="#C8964D" d="M32 51h1v1h-1zM33 51h1v1h-1zM34 51h1v1h-1zM35 51h1v1h-1zM36 51h1v1h-1zM37 51h1v1h-1z"/><path fill="#BC8944" d="M38 51h1v1h-1z"/><path fill="#A97334" d="M39 51h1v1h-1zM40 51h1v1h-1zM41 51h1v1h-1zM42 51h1v1h-1zM43 51h1v1h-1z"/><path fill="#7F5630" d="M44 51h1v1h-1z"/><path fill="#150E24" d="M45 51h1v1h-1z"/><path fill="#002" d="M46 51h1v1h-1zM47 51h1v1h-1zM48 51h1v1h-1zM49 51h1v1h-1zM50 51h1v1h-1zM51 51h1v1h-1zM5 52h1v1H5zM6 52h1v1H6zM7 52h1v1H7zM8 52h1v1H8z"/><path fill="#AD9A5C" d="M9 52h1v1H9z"/><path fill="#D5BD69" d="M10 52h1v1h-1z"/><path fill="#DAC073" d="M11 52h1v1h-1z"/><path fill="#FBD8B5" d="M12 52h1v1h-1z"/><path fill="#FBDABA" d="M13 52h1v1h-1z"/><path fill="#FFFAF6" d="M14 52h1v1h-1z"/><path fill="#FFF" d="M15 52h1v1h-1zM16 52h1v1h-1zM17 52h1v1h-1zM18 52h1v1h-1z"/><path fill="#FEF5ED" d="M19 52h1v1h-1z"/><path fill="#FBD8B5" d="M20 52h1v1h-1z"/><path fill="#E6C98A" d="M21 52h1v1h-1z"/><path fill="#D5BD69" d="M22 52h1v1h-1zM23 52h1v1h-1zM24 52h1v1h-1zM25 52h1v1h-1zM26 52h1v1h-1zM27 52h1v1h-1zM28 52h1v1h-1z"/><path fill="#D3B664" d="M29 52h1v1h-1z"/><path fill="#C9984F" d="M30 52h1v1h-1z"/><path fill="#C8964D" d="M31 52h1v1h-1zM32 52h1v1h-1zM33 52h1v1h-1zM34 52h1v1h-1zM35 52h1v1h-1zM36 52h1v1h-1z"/><path fill="#B5803D" d="M37 52h1v1h-1z"/><path fill="#A97334" d="M38 52h1v1h-1zM39 52h1v1h-1zM40 52h1v1h-1zM41 52h1v1h-1z"/><path fill="#9E6C33" d="M42 52h1v1h-1z"/><path fill="#4A322A" d="M43 52h1v1h-1z"/><path fill="#002" d="M44 52h1v1h-1zM45 52h1v1h-1zM46 52h1v1h-1zM47 52h1v1h-1zM48 52h1v1h-1zM49 52h1v1h-1zM50 52h1v1h-1zM4 53h1v1H4zM5 53h1v1H5zM6 53h1v1H6zM7 53h1v1H7z"/><path fill="#28232F" d="M8 53h1v1H8z"/><path fill="#D5BD69" d="M9 53h1v1H9zM10 53h1v1h-1z"/><path fill="#EDCE99" d="M11 53h1v1h-1z"/><path fill="#FBD8B5" d="M12 53h1v1h-1z"/><path fill="#FDECDA" d="M13 53h1v1h-1z"/><path fill="#FFF" d="M14 53h1v1h-1zM15 53h1v1h-1zM16 53h1v1h-1zM17 53h1v1h-1z"/><path fill="#FFFDFA" d="M18 53h1v1h-1z"/><path fill="#FBDABA" d="M19 53h1v1h-1z"/><path fill="#EFD09D" d="M20 53h1v1h-1z"/><path fill="#D5BD69" d="M21 53h1v1h-1zM22 53h1v1h-1zM23 53h1v1h-1zM24 53h1v1h-1zM25 53h1v1h-1zM26 53h1v1h-1zM27 53h1v1h-1z"/><path fill="#D3B664" d="M28 53h1v1h-1z"/><path fill="#C9984F" d="M29 53h1v1h-1z"/><path fill="#C8964D" d="M30 53h1v1h-1zM31 53h1v1h-1zM32 53h1v1h-1zM33 53h1v1h-1zM34 53h1v1h-1zM35 53h1v1h-1z"/><path fill="#B5803D" d="M36 53h1v1h-1z"/><path fill="#A97334" d="M37 53h1v1h-1zM38 53h1v1h-1zM39 53h1v1h-1zM40 53h1v1h-1z"/><path fill="#895D31" d="M41 53h1v1h-1z"/><path fill="#201625" d="M42 53h1v1h-1z"/><path fill="#002" d="M43 53h1v1h-1zM44 53h1v1h-1zM45 53h1v1h-1zM46 53h1v1h-1zM47 53h1v1h-1zM48 53h1v1h-1zM4 54h1v1H4zM5 54h1v1H5zM6 54h1v1H6zM7 54h1v1H7z"/><path fill="#85764E" d="M8 54h1v1H8z"/><path fill="#D5BD69" d="M9 54h1v1H9z"/><path fill="#DAC073" d="M10 54h1v1h-1z"/><path fill="#FBD8B5" d="M11 54h1v1h-1z"/><path fill="#FBDABA" d="M12 54h1v1h-1z"/><path fill="#FFFDFA" d="M13 54h1v1h-1z"/><path fill="#FFF" d="M14 54h1v1h-1zM15 54h1v1h-1zM16 54h1v1h-1zM17 54h1v1h-1z"/><path fill="#FCE2C8" d="M18 54h1v1h-1z"/><path fill="#F6D5AC" d="M19 54h1v1h-1z"/><path fill="#D7BF6E" d="M20 54h1v1h-1z"/><path fill="#D5BD69" d="M21 54h1v1h-1zM22 54h1v1h-1zM23 54h1v1h-1zM24 54h1v1h-1zM25 54h1v1h-1zM26 54h1v1h-1z"/><path fill="#D3B664" d="M27 54h1v1h-1z"/><path fill="#C9984F" d="M28 54h1v1h-1z"/><path fill="#C8964D" d="M29 54h1v1h-1zM30 54h1v1h-1zM31 54h1v1h-1zM32 54h1v1h-1zM33 54h1v1h-1z"/><path fill="#C6944B" d="M34 54h1v1h-1z"/><path fill="#B5803D" d="M35 54h1v1h-1z"/><path fill="#A97334" d="M36 54h1v1h-1zM37 54h1v1h-1zM38 54h1v1h-1zM39 54h1v1h-1z"/><path fill="#5F412C" d="M40 54h1v1h-1z"/><path fill="#002" d="M41 54h1v1h-1zM42 54h1v1h-1zM43 54h1v1h-1zM44 54h1v1h-1zM45 54h1v1h-1zM46 54h1v1h-1zM47 54h1v1h-1zM4 55h1v1H4zM5 55h1v1H5zM6 55h1v1H6zM7 55h1v1H7z"/><path fill="#C8B165" d="M8 55h1v1H8z"/><path fill="#D5BD69" d="M9 55h1v1H9z"/><path fill="#EDCE99" d="M10 55h1v1h-1z"/><path fill="#FBD8B5" d="M11 55h1v1h-1z"/><path fill="#FEF0E3" d="M12 55h1v1h-1z"/><path fill="#FFF" d="M13 55h1v1h-1zM14 55h1v1h-1zM15 55h1v1h-1zM16 55h1v1h-1z"/><path fill="#FDEEDF" d="M17 55h1v1h-1z"/><path fill="#FBD8B5" d="M18 55h1v1h-1z"/><path fill="#DFC47C" d="M19 55h1v1h-1z"/><path fill="#D5BD69" d="M20 55h1v1h-1zM21 55h1v1h-1zM22 55h1v1h-1zM23 55h1v1h-1zM24 55h1v1h-1zM25 55h1v1h-1z"/><path fill="#D3B664" d="M26 55h1v1h-1z"/><path fill="#C9984F" d="M27 55h1v1h-1z"/><path fill="#C8964D" d="M28 55h1v1h-1zM29 55h1v1h-1zM30 55h1v1h-1zM31 55h1v1h-1zM32 55h1v1h-1z"/><path fill="#C6944B" d="M33 55h1v1h-1z"/><path fill="#AF7A39" d="M34 55h1v1h-1z"/><path fill="#A97334" d="M35 55h1v1h-1zM36 55h1v1h-1zM37 55h1v1h-1z"/><path fill="#9E6C33" d="M38 55h1v1h-1z"/><path fill="#2A1D27" d="M39 55h1v1h-1z"/><path fill="#002" d="M40 55h1v1h-1zM41 55h1v1h-1zM42 55h1v1h-1zM43 55h1v1h-1zM44 55h1v1h-1zM45 55h1v1h-1zM3 56h1v1H3zM4 56h1v1H4zM5 56h1v1H5zM6 56h1v1H6z"/><path fill="#433B38" d="M7 56h1v1H7z"/><path fill="#D5BD69" d="M8 56h1v1H8z"/><path fill="#D7BF6E" d="M9 56h1v1H9z"/><path fill="#FBD8B5" d="M10 56h1v1h-1z"/><path fill="#FCDDBE" d="M11 56h1v1h-1z"/><path fill="#FFF" d="M12 56h1v1h-1zM13 56h1v1h-1zM14 56h1v1h-1zM15 56h1v1h-1z"/><path fill="#FFFAF6" d="M16 56h1v1h-1z"/><path fill="#FBDABA" d="M17 56h1v1h-1z"/><path fill="#E8CB8F" d="M18 56h1v1h-1z"/><path fill="#D5BD69" d="M19 56h1v1h-1zM20 56h1v1h-1zM21 56h1v1h-1zM22 56h1v1h-1zM23 56h1v1h-1zM24 56h1v1h-1z"/><path fill="#D4BB67" d="M25 56h1v1h-1z"/><path fill="#CA9B51" d="M26 56h1v1h-1z"/><path fill="#C8964D" d="M27 56h1v1h-1zM28 56h1v1h-1zM29 56h1v1h-1zM30 56h1v1h-1zM31 56h1v1h-1z"/><path fill="#C6944B" d="M32 56h1v1h-1z"/><path fill="#AF7A39" d="M33 56h1v1h-1z"/><path fill="#A97334" d="M34 56h1v1h-1zM35 56h1v1h-1zM36 56h1v1h-1z"/><path fill="#7F5630" d="M37 56h1v1h-1z"/><path fill="#0B0723" d="M38 56h1v1h-1z"/><path fill="#002" d="M39 56h1v1h-1zM40 56h1v1h-1zM41 56h1v1h-1zM42 56h1v1h-1zM43 56h1v1h-1zM44 56h1v1h-1zM3 57h1v1H3zM4 57h1v1H4zM5 57h1v1H5zM6 57h1v1H6z"/><path fill="#85764E" d="M7 57h1v1H7z"/><path fill="#D5BD69" d="M8 57h1v1H8z"/><path fill="#E8CB8F" d="M9 57h1v1H9z"/><path fill="#FBD8B5" d="M10 57h1v1h-1z"/><path fill="#FEF0E3" d="M11 57h1v1h-1z"/><path fill="#FFF" d="M12 57h1v1h-1zM13 57h1v1h-1zM14 57h1v1h-1zM15 57h1v1h-1z"/><path fill="#FCE2C8" d="M16 57h1v1h-1z"/><path fill="#F4D3A7" d="M17 57h1v1h-1z"/><path fill="#D5BD69" d="M18 57h1v1h-1zM19 57h1v1h-1zM20 57h1v1h-1zM21 57h1v1h-1zM22 57h1v1h-1zM23 57h1v1h-1z"/><path fill="#D4BB67" d="M24 57h1v1h-1z"/><path fill="#CA9D52" d="M25 57h1v1h-1z"/><path fill="#C8964D" d="M26 57h1v1h-1zM27 57h1v1h-1zM28 57h1v1h-1zM29 57h1v1h-1zM30 57h1v1h-1z"/><path fill="#C6944B" d="M31 57h1v1h-1z"/><path fill="#AF7A39" d="M32 57h1v1h-1z"/><path fill="#A97334" d="M33 57h1v1h-1zM34 57h1v1h-1zM35 57h1v1h-1z"/><path fill="#553A2B" d="M36 57h1v1h-1z"/><path fill="#002" d="M37 57h1v1h-1zM38 57h1v1h-1zM39 57h1v1h-1zM40 57h1v1h-1zM41 57h1v1h-1zM42 57h1v1h-1zM3 58h1v1H3zM4 58h1v1H4zM5 58h1v1H5zM6 58h1v1H6z"/><path fill="#C8B165" d="M7 58h1v1H7z"/><path fill="#D5BD69" d="M8 58h1v1H8z"/><path fill="#F6D5AC" d="M9 58h1v1H9z"/><path fill="#FBDABA" d="M10 58h1v1h-1z"/><path fill="#FFFDFA" d="M11 58h1v1h-1z"/><path fill="#FFF" d="M12 58h1v1h-1zM13 58h1v1h-1zM14 58h1v1h-1z"/><path fill="#FDEEDF" d="M15 58h1v1h-1z"/><path fill="#FBD8B5" d="M16 58h1v1h-1z"/><path fill="#DCC277" d="M17 58h1v1h-1z"/><path fill="#D5BD69" d="M18 58h1v1h-1zM19 58h1v1h-1zM20 58h1v1h-1zM21 58h1v1h-1zM22 58h1v1h-1zM23 58h1v1h-1z"/><path fill="#CA9D52" d="M24 58h1v1h-1z"/><path fill="#C8964D" d="M25 58h1v1h-1zM26 58h1v1h-1zM27 58h1v1h-1zM28 58h1v1h-1zM29 58h1v1h-1z"/><path fill="#C6944B" d="M30 58h1v1h-1z"/><path fill="#AF7A39" d="M31 58h1v1h-1z"/><path fill="#A97334" d="M32 58h1v1h-1zM33 58h1v1h-1z"/><path fill="#9E6C33" d="M34 58h1v1h-1z"/><path fill="#2A1D27" d="M35 58h1v1h-1z"/><path fill="#002" d="M36 58h1v1h-1zM37 58h1v1h-1zM38 58h1v1h-1zM39 58h1v1h-1zM40 58h1v1h-1zM41 58h1v1h-1zM3 59h1v1H3zM4 59h1v1H4zM5 59h1v1H5z"/><path fill="#433B38" d="M6 59h1v1H6z"/><path fill="#D5BD69" d="M7 59h1v1H7z"/><path fill="#E1C581" d="M8 59h1v1H8z"/><path fill="#FBD8B5" d="M9 59h1v1H9z"/><path fill="#FDECDA" d="M10 59h1v1h-1z"/><path fill="#FFF" d="M11 59h1v1h-1zM12 59h1v1h-1zM13 59h1v1h-1z"/><path fill="#FFFDFA" d="M14 59h1v1h-1z"/><path fill="#FBDABA" d="M15 59h1v1h-1z"/><path fill="#EACC94" d="M16 59h1v1h-1z"/><path fill="#D5BD69" d="M17 59h1v1h-1zM18 59h1v1h-1zM19 59h1v1h-1zM20 59h1v1h-1zM21 59h1v1h-1zM22 59h1v1h-1z"/><path fill="#CDA558" d="M23 59h1v1h-1z"/><path fill="#C8964D" d="M24 59h1v1h-1zM25 59h1v1h-1zM26 59h1v1h-1zM27 59h1v1h-1zM28 59h1v1h-1z"/><path fill="#C6944B" d="M29 59h1v1h-1z"/><path fill="#AF7A39" d="M30 59h1v1h-1z"/><path fill="#A97334" d="M31 59h1v1h-1zM32 59h1v1h-1z"/><path fill="#895D31" d="M33 59h1v1h-1z"/><path fill="#0B0723" d="M34 59h1v1h-1z"/><path fill="#002" d="M35 59h1v1h-1zM36 59h1v1h-1zM37 59h1v1h-1zM38 59h1v1h-1zM39 59h1v1h-1zM40 59h1v1h-1zM2 60h1v1H2zM3 60h1v1H3zM4 60h1v1H4zM5 60h1v1H5z"/><path fill="#85764E" d="M6 60h1v1H6z"/><path fill="#D5BD69" d="M7 60h1v1H7z"/><path fill="#EDCE99" d="M8 60h1v1H8z"/><path fill="#FBD8B5" d="M9 60h1v1H9z"/><path fill="#FFFAF6" d="M10 60h1v1h-1z"/><path fill="#FFF" d="M11 60h1v1h-1zM12 60h1v1h-1zM13 60h1v1h-1z"/><path fill="#FDE7D1" d="M14 60h1v1h-1z"/><path fill="#F6D5AC" d="M15 60h1v1h-1z"/><path fill="#D7BF6E" d="M16 60h1v1h-1z"/><path fill="#D5BD69" d="M17 60h1v1h-1zM18 60h1v1h-1zM19 60h1v1h-1zM20 60h1v1h-1zM21 60h1v1h-1z"/><path fill="#CFAA5B" d="M22 60h1v1h-1z"/><path fill="#C8964D" d="M23 60h1v1h-1zM24 60h1v1h-1zM25 60h1v1h-1zM26 60h1v1h-1zM27 60h1v1h-1z"/><path fill="#C6944B" d="M28 60h1v1h-1z"/><path fill="#AF7A39" d="M29 60h1v1h-1z"/><path fill="#A97334" d="M30 60h1v1h-1zM31 60h1v1h-1z"/><path fill="#6A482D" d="M32 60h1v1h-1z"/><path fill="#002" d="M33 60h1v1h-1zM34 60h1v1h-1zM35 60h1v1h-1zM36 60h1v1h-1zM37 60h1v1h-1zM38 60h1v1h-1zM2 61h1v1H2zM3 61h1v1H3zM4 61h1v1H4zM5 61h1v1H5z"/><path fill="#BAA560" d="M6 61h1v1H6z"/><path fill="#D7BF6E" d="M7 61h1v1H7z"/><path fill="#FBD8B5" d="M8 61h1v1H8z"/><path fill="#FDE7D1" d="M9 61h1v1H9z"/><path fill="#FFF" d="M10 61h1v1h-1zM11 61h1v1h-1zM12 61h1v1h-1z"/><path fill="#FEF5ED" d="M13 61h1v1h-1z"/><path fill="#FBD8B5" d="M14 61h1v1h-1z"/><path fill="#E1C581" d="M15 61h1v1h-1z"/><path fill="#D5BD69" d="M16 61h1v1h-1zM17 61h1v1h-1zM18 61h1v1h-1zM19 61h1v1h-1zM20 61h1v1h-1z"/><path fill="#D0AE5F" d="M21 61h1v1h-1z"/><path fill="#C8964D" d="M22 61h1v1h-1zM23 61h1v1h-1zM24 61h1v1h-1zM25 61h1v1h-1zM26 61h1v1h-1z"/><path fill="#C6944B" d="M27 61h1v1h-1z"/><path fill="#AF7A39" d="M28 61h1v1h-1z"/><path fill="#A97334" d="M29 61h1v1h-1zM30 61h1v1h-1z"/><path fill="#3F2B29" d="M31 61h1v1h-1z"/><path fill="#002" d="M32 61h1v1h-1zM33 61h1v1h-1zM34 61h1v1h-1zM35 61h1v1h-1zM36 61h1v1h-1zM37 61h1v1h-1zM2 62h1v1H2zM3 62h1v1H3zM4 62h1v1H4z"/><path fill="#28232F" d="M5 62h1v1H5z"/><path fill="#D5BD69" d="M6 62h1v1H6z"/><path fill="#E3C786" d="M7 62h1v1H7z"/><path fill="#FBD8B5" d="M8 62h1v1H8z"/><path fill="#FEF5ED" d="M9 62h1v1H9z"/><path fill="#FFF" d="M10 62h1v1h-1zM11 62h1v1h-1zM12 62h1v1h-1z"/><path fill="#FCE2C8" d="M13 62h1v1h-1z"/><path fill="#F2D1A2" d="M14 62h1v1h-1z"/><path fill="#D5BD69" d="M15 62h1v1h-1zM16 62h1v1h-1zM17 62h1v1h-1zM18 62h1v1h-1zM19 62h1v1h-1z"/><path fill="#D3B664" d="M20 62h1v1h-1z"/><path fill="#C9984F" d="M21 62h1v1h-1z"/><path fill="#C8964D" d="M22 62h1v1h-1zM23 62h1v1h-1zM24 62h1v1h-1zM25 62h1v1h-1z"/><path fill="#C6944B" d="M26 62h1v1h-1z"/><path fill="#AF7A39" d="M27 62h1v1h-1z"/><path fill="#A97334" d="M28 62h1v1h-1z"/><path fill="#9E6C33" d="M29 62h1v1h-1z"/><path fill="#201625" d="M30 62h1v1h-1z"/><path fill="#002" d="M31 62h1v1h-1zM32 62h1v1h-1zM33 62h1v1h-1zM34 62h1v1h-1zM35 62h1v1h-1zM36 62h1v1h-1zM2 63h1v1H2zM3 63h1v1H3zM4 63h1v1H4z"/><path fill="#5D5341" d="M5 63h1v1H5z"/><path fill="#D5BD69" d="M6 63h1v1H6z"/><path fill="#EFD09D" d="M7 63h1v1H7z"/><path fill="#FCDDBE" d="M8 63h1v1H8z"/><path fill="#FFF" d="M9 63h1v1H9zM10 63h1v1h-1zM11 63h1v1h-1z"/><path fill="#FEF0E3" d="M12 63h1v1h-1z"/><path fill="#FBD8B5" d="M13 63h1v1h-1z"/><path fill="#DCC277" d="M14 63h1v1h-1z"/><path fill="#D5BD69" d="M15 63h1v1h-1zM16 63h1v1h-1zM17 63h1v1h-1zM18 63h1v1h-1z"/><path fill="#D4BB67" d="M19 63h1v1h-1z"/><path fill="#CA9B51" d="M20 63h1v1h-1z"/><path fill="#C8964D" d="M21 63h1v1h-1zM22 63h1v1h-1zM23 63h1v1h-1zM24 63h1v1h-1zM25 63h1v1h-1z"/><path fill="#B17C3A" d="M26 63h1v1h-1z"/><path fill="#A97334" d="M27 63h1v1h-1z"/><path fill="#895D31" d="M28 63h1v1h-1z"/><path fill="#0B0723" d="M29 63h1v1h-1z"/><path fill="#002" d="M30 63h1v1h-1zM31 63h1v1h-1zM32 63h1v1h-1zM33 63h1v1h-1zM34 63h1v1h-1zM1 64h1v1H1zM2 64h1v1H2zM3 64h1v1H3zM4 64h1v1H4z"/><path fill="#928253" d="M5 64h1v1H5z"/><path fill="#D7BF6E" d="M6 64h1v1H6z"/><path fill="#FBD8B5" d="M7 64h1v1H7z"/><path fill="#FDE9D5" d="M8 64h1v1H8z"/><path fill="#FFF" d="M9 64h1v1H9zM10 64h1v1h-1zM11 64h1v1h-1z"/><path fill="#FCDDBE" d="M12 64h1v1h-1z"/><path fill="#EDCE99" d="M13 64h1v1h-1z"/><path fill="#D5BD69" d="M14 64h1v1h-1zM15 64h1v1h-1zM16 64h1v1h-1zM17 64h1v1h-1zM18 64h1v1h-1z"/><path fill="#CBA054" d="M19 64h1v1h-1z"/><path fill="#C8964D" d="M20 64h1v1h-1zM21 64h1v1h-1zM22 64h1v1h-1zM23 64h1v1h-1zM24 64h1v1h-1z"/><path fill="#B5803D" d="M25 64h1v1h-1z"/><path fill="#A97334" d="M26 64h1v1h-1z"/><path fill="#6A482D" d="M27 64h1v1h-1z"/><path fill="#0B0723" d="M28 64h1v1h-1z"/><path fill="#002" d="M29 64h1v1h-1zM30 64h1v1h-1zM31 64h1v1h-1zM32 64h1v1h-1zM33 64h1v1h-1zM1 65h1v1H1zM2 65h1v1H2zM3 65h1v1H3zM4 65h1v1H4z"/><path fill="#BAA560" d="M5 65h1v1H5z"/><path fill="#E1C581" d="M6 65h1v1H6z"/><path fill="#FBD8B5" d="M7 65h1v1H7z"/><path fill="#FEF8F1" d="M8 65h1v1H8z"/><path fill="#FFF" d="M9 65h1v1H9zM10 65h1v1h-1z"/><path fill="#FEF0E3" d="M11 65h1v1h-1z"/><path fill="#FBD8B5" d="M12 65h1v1h-1z"/><path fill="#DAC073" d="M13 65h1v1h-1z"/><path fill="#D5BD69" d="M14 65h1v1h-1zM15 65h1v1h-1zM16 65h1v1h-1zM17 65h1v1h-1z"/><path fill="#CFAA5B" d="M18 65h1v1h-1z"/><path fill="#C8964D" d="M19 65h1v1h-1zM20 65h1v1h-1zM21 65h1v1h-1zM22 65h1v1h-1zM23 65h1v1h-1z"/><path fill="#B5803D" d="M24 65h1v1h-1z"/><path fill="#A97334" d="M25 65h1v1h-1z"/><path fill="#553A2B" d="M26 65h1v1h-1z"/><path fill="#002" d="M27 65h1v1h-1zM28 65h1v1h-1zM29 65h1v1h-1zM30 65h1v1h-1zM31 65h1v1h-1zM32 65h1v1h-1zM1 66h1v1H1zM2 66h1v1H2zM3 66h1v1H3z"/><path fill="#0D0C26" d="M4 66h1v1H4z"/><path fill="#D5BD69" d="M5 66h1v1H5z"/><path fill="#EDCE99" d="M6 66h1v1H6z"/><path fill="#FCDDBE" d="M7 66h1v1H7z"/><path fill="#FFF" d="M8 66h1v1H8zM9 66h1v1H9zM10 66h1v1h-1z"/><path fill="#FCDDBE" d="M11 66h1v1h-1z"/><path fill="#EACC94" d="M12 66h1v1h-1z"/><path fill="#D5BD69" d="M13 66h1v1h-1zM14 66h1v1h-1zM15 66h1v1h-1zM16 66h1v1h-1z"/><path fill="#D2B362" d="M17 66h1v1h-1z"/><path fill="#C8964D" d="M18 66h1v1h-1zM19 66h1v1h-1zM20 66h1v1h-1zM21 66h1v1h-1zM22 66h1v1h-1z"/><path fill="#BC8944" d="M23 66h1v1h-1z"/><path fill="#A97334" d="M24 66h1v1h-1z"/><path fill="#3F2B29" d="M25 66h1v1h-1z"/><path fill="#002" d="M26 66h1v1h-1zM27 66h1v1h-1zM28 66h1v1h-1zM29 66h1v1h-1zM30 66h1v1h-1zM31 66h1v1h-1zM1 67h1v1H1zM2 67h1v1H2zM3 67h1v1H3z"/><path fill="#352F34" d="M4 67h1v1H4z"/><path fill="#D5BD69" d="M5 67h1v1H5z"/><path fill="#F6D5AC" d="M6 67h1v1H6z"/><path fill="#FDE7D1" d="M7 67h1v1H7z"/><path fill="#FFF" d="M8 67h1v1H8zM9 67h1v1H9z"/><path fill="#FEF5ED" d="M10 67h1v1h-1z"/><path fill="#F9D6B0" d="M11 67h1v1h-1z"/><path fill="#D7BF6E" d="M12 67h1v1h-1z"/><path fill="#D5BD69" d="M13 67h1v1h-1zM14 67h1v1h-1zM15 67h1v1h-1z"/><path fill="#D4BB67" d="M16 67h1v1h-1z"/><path fill="#CA9B51" d="M17 67h1v1h-1z"/><path fill="#C8964D" d="M18 67h1v1h-1zM19 67h1v1h-1zM20 67h1v1h-1zM21 67h1v1h-1z"/><path fill="#BC8944" d="M22 67h1v1h-1z"/><path fill="#9E6C33" d="M23 67h1v1h-1z"/><path fill="#201625" d="M24 67h1v1h-1z"/><path fill="#002" d="M25 67h1v1h-1zM26 67h1v1h-1zM27 67h1v1h-1zM28 67h1v1h-1zM29 67h1v1h-1zM30 67h1v1h-1zM1 68h1v1H1zM2 68h1v1H2zM3 68h1v1H3z"/><path fill="#6B5F46" d="M4 68h1v1H4z"/><path fill="#DAC073" d="M5 68h1v1H5z"/><path fill="#FBD8B5" d="M6 68h1v1H6z"/><path fill="#FEF3E8" d="M7 68h1v1H7z"/><path fill="#FFF" d="M8 68h1v1H8zM9 68h1v1H9z"/><path fill="#FCE4CC" d="M10 68h1v1h-1z"/><path fill="#EDCE99" d="M11 68h1v1h-1z"/><path fill="#D5BD69" d="M12 68h1v1h-1zM13 68h1v1h-1zM14 68h1v1h-1zM15 68h1v1h-1z"/><path fill="#CCA256" d="M16 68h1v1h-1z"/><path fill="#C8964D" d="M17 68h1v1h-1zM18 68h1v1h-1zM19 68h1v1h-1zM20 68h1v1h-1z"/><path fill="#C28F48" d="M21 68h1v1h-1z"/><path fill="#966733" d="M22 68h1v1h-1z"/><path fill="#201625" d="M23 68h1v1h-1z"/><path fill="#002" d="M24 68h1v1h-1zM25 68h1v1h-1zM26 68h1v1h-1zM27 68h1v1h-1zM28 68h1v1h-1zM0 69h1v1H0zM1 69h1v1H1zM2 69h1v1H2zM3 69h1v1H3z"/><path fill="#85764E" d="M4 69h1v1H4z"/><path fill="#E1C581" d="M5 69h1v1H5z"/><path fill="#FBD8B5" d="M6 69h1v1H6z"/><path fill="#FFFAF6" d="M7 69h1v1H7z"/><path fill="#FFF" d="M8 69h1v1H8z"/><path fill="#FFFAF6" d="M9 69h1v1H9z"/><path fill="#FBD8B5" d="M10 69h1v1h-1z"/><path fill="#DAC073" d="M11 69h1v1h-1z"/><path fill="#D5BD69" d="M12 69h1v1h-1zM13 69h1v1h-1zM14 69h1v1h-1z"/><path fill="#D1B160" d="M15 69h1v1h-1z"/><path fill="#C8964D" d="M16 69h1v1h-1zM17 69h1v1h-1zM18 69h1v1h-1zM19 69h1v1h-1z"/><path fill="#C6944B" d="M20 69h1v1h-1z"/><path fill="#8B6032" d="M21 69h1v1h-1z"/><path fill="#0B0723" d="M22 69h1v1h-1z"/><path fill="#002" d="M23 69h1v1h-1zM24 69h1v1h-1zM25 69h1v1h-1zM26 69h1v1h-1zM27 69h1v1h-1zM0 70h1v1H0zM1 70h1v1H1zM2 70h1v1H2zM3 70h1v1H3z"/><path fill="#A08E57" d="M4 70h1v1H4z"/><path fill="#E8CB8F" d="M5 70h1v1H5z"/><path fill="#FCDDBE" d="M6 70h1v1H6z"/><path fill="#FFF" d="M7 70h1v1H7zM8 70h1v1H8z"/><path fill="#FDECDA" d="M9 70h1v1H9z"/><path fill="#EDCE99" d="M10 70h1v1h-1z"/><path fill="#D5BD69" d="M11 70h1v1h-1zM12 70h1v1h-1zM13 70h1v1h-1z"/><path fill="#D4BB67" d="M14 70h1v1h-1z"/><path fill="#C9984F" d="M15 70h1v1h-1z"/><path fill="#C8964D" d="M16 70h1v1h-1zM17 70h1v1h-1zM18 70h1v1h-1zM19 70h1v1h-1z"/><path fill="#8F6435" d="M20 70h1v1h-1z"/><path fill="#0B0723" d="M21 70h1v1h-1z"/><path fill="#002" d="M22 70h1v1h-1zM23 70h1v1h-1zM24 70h1v1h-1zM25 70h1v1h-1zM26 70h1v1h-1zM0 71h1v1H0zM1 71h1v1H1zM2 71h1v1H2zM3 71h1v1H3z"/><path fill="#C8B165" d="M4 71h1v1H4z"/><path fill="#F2D1A2" d="M5 71h1v1H5z"/><path fill="#FCE4CC" d="M6 71h1v1H6z"/><path fill="#FFF" d="M7 71h1v1H7zM8 71h1v1H8z"/><path fill="#FCDDBE" d="M9 71h1v1H9z"/><path fill="#DCC277" d="M10 71h1v1h-1z"/><path fill="#D5BD69" d="M11 71h1v1h-1zM12 71h1v1h-1zM13 71h1v1h-1z"/><path fill="#CCA256" d="M14 71h1v1h-1z"/><path fill="#C8964D" d="M15 71h1v1h-1zM16 71h1v1h-1zM17 71h1v1h-1zM18 71h1v1h-1z"/><path fill="#775738" d="M19 71h1v1h-1z"/><path fill="#002" d="M20 71h1v1h-1zM21 71h1v1h-1zM22 71h1v1h-1zM23 71h1v1h-1zM24 71h1v1h-1zM25 71h1v1h-1zM0 72h1v1H0zM1 72h1v1H1zM2 72h1v1H2zM3 72h1v1H3z"/><path fill="#D5BD69" d="M4 72h1v1H4z"/><path fill="#F6D5AC" d="M5 72h1v1H5z"/><path fill="#FDECDA" d="M6 72h1v1H6z"/><path fill="#FFF" d="M7 72h1v1H7z"/><path fill="#FEF8F1" d="M8 72h1v1H8z"/><path fill="#F2D1A2" d="M9 72h1v1H9z"/><path fill="#D5BD69" d="M10 72h1v1h-1zM11 72h1v1h-1zM12 72h1v1h-1z"/><path fill="#D1B160" d="M13 72h1v1h-1z"/><path fill="#C8964D" d="M14 72h1v1h-1zM15 72h1v1h-1zM16 72h1v1h-1zM17 72h1v1h-1z"/><path fill="#7D5E3D" d="M18 72h1v1h-1z"/><path fill="#002" d="M19 72h1v1h-1zM20 72h1v1h-1zM21 72h1v1h-1zM22 72h1v1h-1zM23 72h1v1h-1zM24 72h1v1h-1zM0 73h1v1H0zM1 73h1v1H1zM2 73h1v1H2z"/><path fill="#1B182B" d="M3 73h1v1H3z"/><path fill="#D5BD69" d="M4 73h1v1H4z"/><path fill="#FBD8B5" d="M5 73h1v1H5z"/><path fill="#FEF0E3" d="M6 73h1v1H6z"/><path fill="#FFF" d="M7 73h1v1H7z"/><path fill="#FDE9D5" d="M8 73h1v1H8z"/><path fill="#E3C786" d="M9 73h1v1H9z"/><path fill="#D5BD69" d="M10 73h1v1h-1zM11 73h1v1h-1z"/><path fill="#D4BB67" d="M12 73h1v1h-1z"/><path fill="#C9984F" d="M13 73h1v1h-1z"/><path fill="#C8964D" d="M14 73h1v1h-1zM15 73h1v1h-1zM16 73h1v1h-1z"/><path fill="#7D5E3D" d="M17 73h1v1h-1z"/><path fill="#002" d="M18 73h1v1h-1zM19 73h1v1h-1zM20 73h1v1h-1zM21 73h1v1h-1zM22 73h1v1h-1zM23 73h1v1h-1zM0 74h1v1H0zM1 74h1v1H1zM2 74h1v1H2z"/><path fill="#352F34" d="M3 74h1v1H3z"/><path fill="#DFC47C" d="M4 74h1v1H4z"/><path fill="#FBD8B5" d="M5 74h1v1H5z"/><path fill="#FEF5ED" d="M6 74h1v1H6z"/><path fill="#FFF" d="M7 74h1v1H7z"/><path fill="#F9DBBA" d="M8 74h1v1H8z"/><path fill="#D5BD69" d="M9 74h1v1H9zM10 74h1v1h-1zM11 74h1v1h-1z"/><path fill="#CEA759" d="M12 74h1v1h-1z"/><path fill="#C8964D" d="M13 74h1v1h-1zM14 74h1v1h-1zM15 74h1v1h-1z"/><path fill="#4B3832" d="M16 74h1v1h-1z"/><path fill="#002" d="M17 74h1v1h-1zM18 74h1v1h-1zM19 74h1v1h-1zM20 74h1v1h-1zM21 74h1v1h-1zM22 74h1v1h-1zM0 75h1v1H0zM1 75h1v1H1zM2 75h1v1H2z"/><path fill="#352F34" d="M3 75h1v1H3z"/><path fill="#DFC47C" d="M4 75h1v1H4z"/><path fill="#FBD8B5" d="M5 75h1v1H5z"/><path fill="#FEF5ED" d="M6 75h1v1H6z"/><path fill="#FEF8F1" d="M7 75h1v1H7z"/><path fill="#EDCE99" d="M8 75h1v1H8z"/><path fill="#D5BD69" d="M9 75h1v1H9zM10 75h1v1h-1z"/><path fill="#D3B866" d="M11 75h1v1h-1z"/><path fill="#C8964D" d="M12 75h1v1h-1zM13 75h1v1h-1zM14 75h1v1h-1z"/><path fill="#4B3832" d="M15 75h1v1h-1z"/><path fill="#002" d="M16 75h1v1h-1zM17 75h1v1h-1zM18 75h1v1h-1zM19 75h1v1h-1zM20 75h1v1h-1zM0 76h1v1H0zM1 76h1v1H1zM2 76h1v1H2z"/><path fill="#352F34" d="M3 76h1v1H3z"/><path fill="#E3C786" d="M4 76h1v1H4z"/><path fill="#FBD8B5" d="M5 76h1v1H5z"/><path fill="#FFFDFA" d="M6 76h1v1H6z"/><path fill="#FDE9D5" d="M7 76h1v1H7z"/><path fill="#DCC277" d="M8 76h1v1H8z"/><path fill="#D5BD69" d="M9 76h1v1H9zM10 76h1v1h-1z"/><path fill="#CBA054" d="M11 76h1v1h-1z"/><path fill="#C8964D" d="M12 76h1v1h-1zM13 76h1v1h-1z"/><path fill="#4B3832" d="M14 76h1v1h-1z"/><path fill="#002" d="M15 76h1v1h-1zM16 76h1v1h-1zM17 76h1v1h-1zM18 76h1v1h-1zM19 76h1v1h-1zM0 77h1v1H0zM1 77h1v1H1zM2 77h1v1H2z"/><path fill="#352F34" d="M3 77h1v1H3z"/><path fill="#E8CB8F" d="M4 77h1v1H4z"/><path fill="#FBD8B5" d="M5 77h1v1H5z"/><path fill="#FFF" d="M6 77h1v1H6z"/><path fill="#F7D7B0" d="M7 77h1v1H7z"/><path fill="#D5BD69" d="M8 77h1v1H8zM9 77h1v1H9z"/><path fill="#D2B362" d="M10 77h1v1h-1z"/><path fill="#C8964D" d="M11 77h1v1h-1zM12 77h1v1h-1z"/><path fill="#4B3832" d="M13 77h1v1h-1z"/><path fill="#002" d="M14 77h1v1h-1zM15 77h1v1h-1zM16 77h1v1h-1zM17 77h1v1h-1zM18 77h1v1h-1zM0 78h1v1H0zM1 78h1v1H1zM2 78h1v1H2z"/><path fill="#352F34" d="M3 78h1v1H3z"/><path fill="#E8CB8F" d="M4 78h1v1H4z"/><path fill="#FBD8B5" d="M5 78h1v1H5z"/><path fill="#FDE7D1" d="M6 78h1v1H6z"/><path fill="#EACC94" d="M7 78h1v1H7z"/><path fill="#D5BD69" d="M8 78h1v1H8zM9 78h1v1H9z"/><path fill="#CBA054" d="M10 78h1v1h-1z"/><path fill="#C8964D" d="M11 78h1v1h-1z"/><path fill="#4B3832" d="M12 78h1v1h-1z"/><path fill="#002" d="M13 78h1v1h-1zM14 78h1v1h-1zM15 78h1v1h-1zM16 78h1v1h-1zM17 78h1v1h-1zM0 79h1v1H0zM1 79h1v1H1zM2 79h1v1H2z"/><path fill="#352F34" d="M3 79h1v1H3z"/><path fill="#E8CB8F" d="M4 79h1v1H4z"/><path fill="#FBD8B5" d="M5 79h1v1H5zM6 79h1v1H6z"/><path fill="#DCC277" d="M7 79h1v1H7z"/><path fill="#D5BD69" d="M8 79h1v1H8z"/><path fill="#D2B362" d="M9 79h1v1H9z"/><path fill="#C8964D" d="M10 79h1v1h-1z"/><path fill="#4B3832" d="M11 79h1v1h-1z"/><path fill="#002" d="M12 79h1v1h-1zM13 79h1v1h-1zM14 79h1v1h-1zM15 79h1v1h-1zM16 79h1v1h-1zM0 80h1v1H0zM1 80h1v1H1zM2 80h1v1H2z"/><path fill="#352F34" d="M3 80h1v1H3z"/><path fill="#E8CB8F" d="M4 80h1v1H4z"/><path fill="#FBD8B5" d="M5 80h1v1H5z"/><path fill="#F6D5AC" d="M6 80h1v1H6z"/><path fill="#D5BD69" d="M7 80h1v1H7zM8 80h1v1H8z"/><path fill="#CBA054" d="M9 80h1v1H9z"/><path fill="#4B3832" d="M10 80h1v1h-1z"/><path fill="#002" d="M11 80h1v1h-1zM12 80h1v1h-1zM13 80h1v1h-1zM14 80h1v1h-1zM15 80h1v1h-1zM0 81h1v1H0zM1 81h1v1H1zM2 81h1v1H2z"/><path fill="#352F34" d="M3 81h1v1H3z"/><path fill="#E8CB8F" d="M4 81h1v1H4z"/><path fill="#FBD8B5" d="M5 81h1v1H5z"/><path fill="#E6C98A" d="M6 81h1v1H6z"/><path fill="#D5BD69" d="M7 81h1v1H7z"/><path fill="#D3B664" d="M8 81h1v1H8z"/><path fill="#4B3832" d="M9 81h1v1H9z"/><path fill="#002" d="M10 81h1v1h-1zM11 81h1v1h-1zM12 81h1v1h-1zM13 81h1v1h-1zM14 81h1v1h-1zM0 82h1v1H0zM1 82h1v1H1zM2 82h1v1H2z"/><path fill="#352F34" d="M3 82h1v1H3z"/><path fill="#E8CB8F" d="M4 82h1v1H4z"/><path fill="#FBD8B5" d="M5 82h1v1H5z"/><path fill="#D7BF6E" d="M6 82h1v1H6z"/><path fill="#D5BD69" d="M7 82h1v1H7z"/><path fill="#4F443B" d="M8 82h1v1H8z"/><path fill="#002" d="M9 82h1v1H9zM10 82h1v1h-1zM11 82h1v1h-1zM12 82h1v1h-1zM13 82h1v1h-1zM0 83h1v1H0zM1 83h1v1H1zM2 83h1v1H2z"/><path fill="#28232F" d="M3 83h1v1H3z"/><path fill="#E6C98A" d="M4 83h1v1H4z"/><path fill="#EACC94" d="M5 83h1v1H5z"/><path fill="#D5BD69" d="M6 83h1v1H6z"/><path fill="#50473D" d="M7 83h1v1H7z"/><path fill="#002" d="M8 83h1v1H8zM9 83h1v1H9zM10 83h1v1h-1zM11 83h1v1h-1zM12 83h1v1h-1zM0 84h1v1H0zM1 84h1v1H1zM2 84h1v1H2zM3 84h1v1H3z"/><path fill="#D5BD69" d="M4 84h1v1H4zM5 84h1v1H5z"/><path fill="#50473D" d="M6 84h1v1H6z"/><path fill="#002" d="M7 84h1v1H7zM8 84h1v1H8zM9 84h1v1H9zM10 84h1v1h-1zM11 84h1v1h-1zM0 85h1v1H0zM1 85h1v1H1zM2 85h1v1H2zM3 85h1v1H3z"/><path fill="#AD9A5C" d="M4 85h1v1H4z"/><path fill="#50473D" d="M5 85h1v1H5z"/><path fill="#002" d="M6 85h1v1H6zM7 85h1v1H7zM8 85h1v1H8zM9 85h1v1H9zM10 85h1v1h-1zM0 86h1v1H0zM1 86h1v1H1zM2 86h1v1H2zM3 86h1v1H3zM4 86h1v1H4zM5 86h1v1H5zM6 86h1v1H6zM7 86h1v1H7zM8 86h1v1H8zM9 86h1v1H9zM1 87h1v1H1zM2 87h1v1H2zM3 87h1v1H3zM4 87h1v1H4zM5 87h1v1H5zM6 87h1v1H6zM7 87h1v1H7zM8 87h1v1H8zM1 88h1v1H1zM2 88h1v1H2zM3 88h1v1H3zM4 88h1v1H4zM5 88h1v1H5zM6 88h1v1H6zM7 88h1v1H7zM2 89h1v1H2zM3 89h1v1H3zM4 89h1v1H4zM5 89h1v1H5zM6 89h1v1H6z"/></svg>