<svg baseProfile="full" height="72" width="90" xmlns="http://www.w3.org/2000/svg"><path fill="#231815" d="M51 0h1v1h-1zM52 0h1v1h-1zM53 0h1v1h-1zM54 0h1v1h-1zM55 0h1v1h-1zM56 0h1v1h-1zM57 0h1v1h-1zM58 0h1v1h-1zM59 0h1v1h-1zM60 0h1v1h-1zM61 0h1v1h-1zM62 0h1v1h-1zM63 0h1v1h-1zM64 0h1v1h-1zM65 0h1v1h-1zM48 1h1v1h-1zM49 1h1v1h-1zM50 1h1v1h-1zM51 1h1v1h-1zM52 1h1v1h-1zM53 1h1v1h-1zM54 1h1v1h-1zM55 1h1v1h-1zM56 1h1v1h-1zM57 1h1v1h-1zM58 1h1v1h-1zM59 1h1v1h-1zM60 1h1v1h-1zM61 1h1v1h-1zM62 1h1v1h-1zM63 1h1v1h-1zM64 1h1v1h-1zM65 1h1v1h-1zM66 1h1v1h-1zM67 1h1v1h-1zM68 1h1v1h-1zM45 2h1v1h-1zM46 2h1v1h-1zM47 2h1v1h-1zM48 2h1v1h-1zM49 2h1v1h-1zM50 2h1v1h-1zM51 2h1v1h-1zM52 2h1v1h-1zM53 2h1v1h-1zM54 2h1v1h-1zM55 2h1v1h-1zM56 2h1v1h-1zM57 2h1v1h-1zM58 2h1v1h-1zM59 2h1v1h-1zM60 2h1v1h-1zM61 2h1v1h-1zM62 2h1v1h-1zM63 2h1v1h-1zM64 2h1v1h-1zM65 2h1v1h-1zM66 2h1v1h-1zM67 2h1v1h-1zM68 2h1v1h-1zM69 2h1v1h-1zM70 2h1v1h-1zM71 2h1v1h-1zM43 3h1v1h-1zM44 3h1v1h-1zM45 3h1v1h-1zM46 3h1v1h-1zM47 3h1v1h-1zM48 3h1v1h-1zM49 3h1v1h-1zM50 3h1v1h-1zM51 3h1v1h-1z"/><path fill="#3A302E" d="M52 3h1v1h-1z"/><path fill="#504746" d="M53 3h1v1h-1z"/><path fill="#605757" d="M54 3h1v1h-1z"/><path fill="#7E7777" d="M55 3h1v1h-1zM56 3h1v1h-1z"/><path fill="#857E7F" d="M57 3h1v1h-1z"/><path fill="#9C9698" d="M58 3h1v1h-1z"/><path fill="#8D8688" d="M59 3h1v1h-1z"/><path fill="#7E7777" d="M60 3h1v1h-1zM61 3h1v1h-1z"/><path fill="#675F5F" d="M62 3h1v1h-1z"/><path fill="#584F4E" d="M63 3h1v1h-1z"/><path fill="#413836" d="M64 3h1v1h-1z"/><path fill="#231815" d="M65 3h1v1h-1zM66 3h1v1h-1zM67 3h1v1h-1zM68 3h1v1h-1zM69 3h1v1h-1zM70 3h1v1h-1zM71 3h1v1h-1zM72 3h1v1h-1zM73 3h1v1h-1zM41 4h1v1h-1zM42 4h1v1h-1zM43 4h1v1h-1zM44 4h1v1h-1zM45 4h1v1h-1zM46 4h1v1h-1zM47 4h1v1h-1z"/><path fill="#2B201D" d="M48 4h1v1h-1z"/><path fill="#504746" d="M49 4h1v1h-1z"/><path fill="#766F6F" d="M50 4h1v1h-1z"/><path fill="#948E90" d="M51 4h1v1h-1z"/><path fill="#9C9698" d="M52 4h1v1h-1zM53 4h1v1h-1zM54 4h1v1h-1zM55 4h1v1h-1zM56 4h1v1h-1zM57 4h1v1h-1zM58 4h1v1h-1zM59 4h1v1h-1zM60 4h1v1h-1zM61 4h1v1h-1zM62 4h1v1h-1zM63 4h1v1h-1zM64 4h1v1h-1zM65 4h1v1h-1z"/><path fill="#766F6F" d="M66 4h1v1h-1z"/><path fill="#504746" d="M67 4h1v1h-1z"/><path fill="#2B201D" d="M68 4h1v1h-1z"/><path fill="#231815" d="M69 4h1v1h-1zM70 4h1v1h-1zM71 4h1v1h-1zM72 4h1v1h-1zM73 4h1v1h-1zM74 4h1v1h-1zM39 5h1v1h-1zM40 5h1v1h-1zM41 5h1v1h-1zM42 5h1v1h-1zM43 5h1v1h-1zM44 5h1v1h-1zM45 5h1v1h-1z"/><path fill="#3A302E" d="M46 5h1v1h-1z"/><path fill="#6F6767" d="M47 5h1v1h-1z"/><path fill="#9C9698" d="M48 5h1v1h-1zM49 5h1v1h-1zM50 5h1v1h-1zM51 5h1v1h-1zM52 5h1v1h-1z"/><path fill="#9F9A9C" d="M53 5h1v1h-1z"/><path fill="#AAA6A7" d="M54 5h1v1h-1zM55 5h1v1h-1z"/><path fill="#A39E9F" d="M56 5h1v1h-1z"/><path fill="#9C9698" d="M57 5h1v1h-1zM58 5h1v1h-1zM59 5h1v1h-1zM60 5h1v1h-1zM61 5h1v1h-1zM62 5h1v1h-1zM63 5h1v1h-1zM64 5h1v1h-1zM65 5h1v1h-1zM66 5h1v1h-1zM67 5h1v1h-1z"/><path fill="#948E90" d="M68 5h1v1h-1z"/><path fill="#6F6767" d="M69 5h1v1h-1z"/><path fill="#322825" d="M70 5h1v1h-1z"/><path fill="#231815" d="M71 5h1v1h-1zM72 5h1v1h-1zM73 5h1v1h-1zM74 5h1v1h-1zM75 5h1v1h-1zM76 5h1v1h-1zM38 6h1v1h-1zM39 6h1v1h-1zM40 6h1v1h-1zM41 6h1v1h-1zM42 6h1v1h-1zM43 6h1v1h-1z"/><path fill="#413836" d="M44 6h1v1h-1z"/><path fill="#7E7777" d="M45 6h1v1h-1z"/><path fill="#9C9698" d="M46 6h1v1h-1zM47 6h1v1h-1zM48 6h1v1h-1z"/><path fill="#ADA9AA" d="M49 6h1v1h-1z"/><path fill="#BBB9B9" d="M50 6h1v1h-1z"/><path fill="#C9C8C8" d="M51 6h1v1h-1z"/><path fill="#D3D4D3" d="M52 6h1v1h-1zM53 6h1v1h-1zM54 6h1v1h-1zM55 6h1v1h-1zM56 6h1v1h-1zM57 6h1v1h-1z"/><path fill="#CCC" d="M58 6h1v1h-1z"/><path fill="#C2C1C1" d="M59 6h1v1h-1z"/><path fill="#B4B1B2" d="M60 6h1v1h-1z"/><path fill="#A39E9F" d="M61 6h1v1h-1z"/><path fill="#9C9698" d="M62 6h1v1h-1zM63 6h1v1h-1zM64 6h1v1h-1zM65 6h1v1h-1zM66 6h1v1h-1zM67 6h1v1h-1zM68 6h1v1h-1zM69 6h1v1h-1zM70 6h1v1h-1z"/><path fill="#675F5F" d="M71 6h1v1h-1z"/><path fill="#2B201D" d="M72 6h1v1h-1z"/><path fill="#231815" d="M73 6h1v1h-1zM74 6h1v1h-1zM75 6h1v1h-1zM76 6h1v1h-1zM77 6h1v1h-1zM37 7h1v1h-1zM38 7h1v1h-1zM39 7h1v1h-1zM40 7h1v1h-1zM41 7h1v1h-1z"/><path fill="#322825" d="M42 7h1v1h-1z"/><path fill="#7E7777" d="M43 7h1v1h-1z"/><path fill="#9C9698" d="M44 7h1v1h-1zM45 7h1v1h-1z"/><path fill="#9F9A9C" d="M46 7h1v1h-1z"/><path fill="#B8B5B6" d="M47 7h1v1h-1z"/><path fill="#CCC" d="M48 7h1v1h-1z"/><path fill="#D3D4D3" d="M49 7h1v1h-1zM50 7h1v1h-1z"/><path fill="#D5D6D5" d="M51 7h1v1h-1z"/><path fill="#D9DAD9" d="M52 7h1v1h-1z"/><path fill="#DCDDDD" d="M53 7h1v1h-1z"/><path fill="#DFE0E0" d="M54 7h1v1h-1zM55 7h1v1h-1zM56 7h1v1h-1z"/><path fill="#DDDEDE" d="M57 7h1v1h-1z"/><path fill="#D7D8D7" d="M58 7h1v1h-1z"/><path fill="#D3D4D3" d="M59 7h1v1h-1zM60 7h1v1h-1zM61 7h1v1h-1z"/><path fill="#C5C5C4" d="M62 7h1v1h-1z"/><path fill="#AAA6A7" d="M63 7h1v1h-1z"/><path fill="#9C9698" d="M64 7h1v1h-1zM65 7h1v1h-1zM66 7h1v1h-1zM67 7h1v1h-1zM68 7h1v1h-1zM69 7h1v1h-1zM70 7h1v1h-1zM71 7h1v1h-1z"/><path fill="#948E90" d="M72 7h1v1h-1z"/><path fill="#504746" d="M73 7h1v1h-1z"/><path fill="#231815" d="M74 7h1v1h-1zM75 7h1v1h-1zM76 7h1v1h-1zM77 7h1v1h-1zM78 7h1v1h-1zM35 8h1v1h-1zM36 8h1v1h-1zM37 8h1v1h-1zM38 8h1v1h-1zM39 8h1v1h-1zM40 8h1v1h-1z"/><path fill="#605757" d="M41 8h1v1h-1z"/><path fill="#9C9698" d="M42 8h1v1h-1zM43 8h1v1h-1zM44 8h1v1h-1z"/><path fill="#ADA9AA" d="M45 8h1v1h-1z"/><path fill="#D0D0CF" d="M46 8h1v1h-1z"/><path fill="#D3D4D3" d="M47 8h1v1h-1zM48 8h1v1h-1z"/><path fill="#D9DAD9" d="M49 8h1v1h-1z"/><path fill="#DFE0E0" d="M50 8h1v1h-1z"/><path fill="#E3E4E4" d="M51 8h1v1h-1zM52 8h1v1h-1zM53 8h1v1h-1zM54 8h1v1h-1zM55 8h1v1h-1zM56 8h1v1h-1zM57 8h1v1h-1zM58 8h1v1h-1z"/><path fill="#DDDEDE" d="M59 8h1v1h-1z"/><path fill="#D3D4D3" d="M60 8h1v1h-1zM61 8h1v1h-1zM62 8h1v1h-1zM63 8h1v1h-1z"/><path fill="#C5C5C4" d="M64 8h1v1h-1z"/><path fill="#9F9A9C" d="M65 8h1v1h-1z"/><path fill="#9C9698" d="M66 8h1v1h-1zM67 8h1v1h-1zM68 8h1v1h-1zM69 8h1v1h-1zM70 8h1v1h-1zM71 8h1v1h-1zM72 8h1v1h-1zM73 8h1v1h-1z"/><path fill="#766F6F" d="M74 8h1v1h-1z"/><path fill="#2B201D" d="M75 8h1v1h-1z"/><path fill="#231815" d="M76 8h1v1h-1zM77 8h1v1h-1zM78 8h1v1h-1zM79 8h1v1h-1zM34 9h1v1h-1zM35 9h1v1h-1zM36 9h1v1h-1zM37 9h1v1h-1zM38 9h1v1h-1z"/><path fill="#3A302E" d="M39 9h1v1h-1z"/><path fill="#857E7F" d="M40 9h1v1h-1z"/><path fill="#9C9698" d="M41 9h1v1h-1zM42 9h1v1h-1z"/><path fill="#9F9A9C" d="M43 9h1v1h-1z"/><path fill="#C2C1C1" d="M44 9h1v1h-1z"/><path fill="#D3D4D3" d="M45 9h1v1h-1zM46 9h1v1h-1z"/><path fill="#D9DAD9" d="M47 9h1v1h-1z"/><path fill="#E1E2E2" d="M48 9h1v1h-1z"/><path fill="#E3E4E4" d="M49 9h1v1h-1zM50 9h1v1h-1zM51 9h1v1h-1zM52 9h1v1h-1zM53 9h1v1h-1zM54 9h1v1h-1zM55 9h1v1h-1zM56 9h1v1h-1zM57 9h1v1h-1zM58 9h1v1h-1zM59 9h1v1h-1z"/><path fill="#D9DAD9" d="M60 9h1v1h-1z"/><path fill="#D3D4D3" d="M61 9h1v1h-1zM62 9h1v1h-1zM63 9h1v1h-1zM64 9h1v1h-1z"/><path fill="#D0D0CF" d="M65 9h1v1h-1z"/><path fill="#A39E9F" d="M66 9h1v1h-1z"/><path fill="#9C9698" d="M67 9h1v1h-1zM68 9h1v1h-1zM69 9h1v1h-1zM70 9h1v1h-1zM71 9h1v1h-1zM72 9h1v1h-1zM73 9h1v1h-1zM74 9h1v1h-1z"/><path fill="#8D8688" d="M75 9h1v1h-1z"/><path fill="#3A302E" d="M76 9h1v1h-1z"/><path fill="#231815" d="M77 9h1v1h-1zM78 9h1v1h-1zM79 9h1v1h-1zM80 9h1v1h-1zM33 10h1v1h-1zM34 10h1v1h-1zM35 10h1v1h-1zM36 10h1v1h-1zM37 10h1v1h-1z"/><path fill="#504746" d="M38 10h1v1h-1z"/><path fill="#948E90" d="M39 10h1v1h-1z"/><path fill="#9C9698" d="M40 10h1v1h-1zM41 10h1v1h-1z"/><path fill="#A6A2A3" d="M42 10h1v1h-1z"/><path fill="#CCC" d="M43 10h1v1h-1z"/><path fill="#D3D4D3" d="M44 10h1v1h-1z"/><path fill="#D6D7D6" d="M45 10h1v1h-1z"/><path fill="#E0E1E1" d="M46 10h1v1h-1z"/><path fill="#E3E4E4" d="M47 10h1v1h-1zM48 10h1v1h-1zM49 10h1v1h-1zM50 10h1v1h-1zM51 10h1v1h-1zM52 10h1v1h-1zM53 10h1v1h-1zM54 10h1v1h-1zM55 10h1v1h-1zM56 10h1v1h-1zM57 10h1v1h-1zM58 10h1v1h-1zM59 10h1v1h-1z"/><path fill="#DEDFDF" d="M60 10h1v1h-1z"/><path fill="#D3D4D3" d="M61 10h1v1h-1zM62 10h1v1h-1zM63 10h1v1h-1zM64 10h1v1h-1zM65 10h1v1h-1z"/><path fill="#C5C5C4" d="M66 10h1v1h-1z"/><path fill="#9C9698" d="M67 10h1v1h-1zM68 10h1v1h-1zM69 10h1v1h-1zM70 10h1v1h-1zM71 10h1v1h-1zM72 10h1v1h-1zM73 10h1v1h-1zM74 10h1v1h-1zM75 10h1v1h-1z"/><path fill="#948E90" d="M76 10h1v1h-1z"/><path fill="#3A302E" d="M77 10h1v1h-1z"/><path fill="#231815" d="M78 10h1v1h-1zM79 10h1v1h-1zM80 10h1v1h-1zM81 10h1v1h-1zM32 11h1v1h-1zM33 11h1v1h-1zM34 11h1v1h-1zM35 11h1v1h-1zM36 11h1v1h-1z"/><path fill="#675F5F" d="M37 11h1v1h-1z"/><path fill="#9C9698" d="M38 11h1v1h-1zM39 11h1v1h-1zM40 11h1v1h-1z"/><path fill="#A6A2A3" d="M41 11h1v1h-1z"/><path fill="#D0D0CF" d="M42 11h1v1h-1z"/><path fill="#D3D4D3" d="M43 11h1v1h-1z"/><path fill="#DADBDA" d="M44 11h1v1h-1z"/><path fill="#E3E4E4" d="M45 11h1v1h-1zM46 11h1v1h-1zM47 11h1v1h-1zM48 11h1v1h-1zM49 11h1v1h-1zM50 11h1v1h-1zM51 11h1v1h-1zM52 11h1v1h-1zM53 11h1v1h-1zM54 11h1v1h-1zM55 11h1v1h-1zM56 11h1v1h-1zM57 11h1v1h-1zM58 11h1v1h-1zM59 11h1v1h-1z"/><path fill="#DFE0E0" d="M60 11h1v1h-1z"/><path fill="#D3D4D3" d="M61 11h1v1h-1zM62 11h1v1h-1zM63 11h1v1h-1zM64 11h1v1h-1zM65 11h1v1h-1zM66 11h1v1h-1z"/><path fill="#A6A2A3" d="M67 11h1v1h-1z"/><path fill="#9C9698" d="M68 11h1v1h-1zM69 11h1v1h-1zM70 11h1v1h-1zM71 11h1v1h-1zM72 11h1v1h-1zM73 11h1v1h-1zM74 11h1v1h-1zM75 11h1v1h-1zM76 11h1v1h-1z"/><path fill="#948E90" d="M77 11h1v1h-1z"/><path fill="#504746" d="M78 11h1v1h-1z"/><path fill="#231815" d="M79 11h1v1h-1zM80 11h1v1h-1zM81 11h1v1h-1zM82 11h1v1h-1zM31 12h1v1h-1zM32 12h1v1h-1zM33 12h1v1h-1zM34 12h1v1h-1zM35 12h1v1h-1z"/><path fill="#878281" d="M36 12h1v1h-1z"/><path fill="#A39E9F" d="M37 12h1v1h-1z"/><path fill="#9C9698" d="M38 12h1v1h-1zM39 12h1v1h-1z"/><path fill="#A6A2A3" d="M40 12h1v1h-1z"/><path fill="#D0D0CF" d="M41 12h1v1h-1z"/><path fill="#D3D4D3" d="M42 12h1v1h-1z"/><path fill="#DDDEDE" d="M43 12h1v1h-1z"/><path fill="#E3E4E4" d="M44 12h1v1h-1zM45 12h1v1h-1zM46 12h1v1h-1zM47 12h1v1h-1zM48 12h1v1h-1zM49 12h1v1h-1zM50 12h1v1h-1zM51 12h1v1h-1zM52 12h1v1h-1zM53 12h1v1h-1zM54 12h1v1h-1zM55 12h1v1h-1zM56 12h1v1h-1zM57 12h1v1h-1zM58 12h1v1h-1zM59 12h1v1h-1z"/><path fill="#DCDDDD" d="M60 12h1v1h-1z"/><path fill="#D3D4D3" d="M61 12h1v1h-1zM62 12h1v1h-1zM63 12h1v1h-1zM64 12h1v1h-1zM65 12h1v1h-1zM66 12h1v1h-1z"/><path fill="#B8B5B6" d="M67 12h1v1h-1z"/><path fill="#9C9698" d="M68 12h1v1h-1zM69 12h1v1h-1zM70 12h1v1h-1zM71 12h1v1h-1zM72 12h1v1h-1zM73 12h1v1h-1zM74 12h1v1h-1zM75 12h1v1h-1zM76 12h1v1h-1zM77 12h1v1h-1zM78 12h1v1h-1z"/><path fill="#3A302E" d="M79 12h1v1h-1z"/><path fill="#231815" d="M80 12h1v1h-1zM81 12h1v1h-1zM82 12h1v1h-1zM83 12h1v1h-1zM30 13h1v1h-1zM31 13h1v1h-1zM32 13h1v1h-1zM33 13h1v1h-1zM34 13h1v1h-1z"/><path fill="#918E8C" d="M35 13h1v1h-1z"/><path fill="#D3D4D3" d="M36 13h1v1h-1z"/><path fill="#AAA6A7" d="M37 13h1v1h-1z"/><path fill="#9C9698" d="M38 13h1v1h-1z"/><path fill="#9F9A9C" d="M39 13h1v1h-1z"/><path fill="#D0D0CF" d="M40 13h1v1h-1z"/><path fill="#D3D4D3" d="M41 13h1v1h-1z"/><path fill="#DDDEDE" d="M42 13h1v1h-1z"/><path fill="#E3E4E4" d="M43 13h1v1h-1zM44 13h1v1h-1zM45 13h1v1h-1zM46 13h1v1h-1zM47 13h1v1h-1zM48 13h1v1h-1zM49 13h1v1h-1zM50 13h1v1h-1zM51 13h1v1h-1zM52 13h1v1h-1zM53 13h1v1h-1zM54 13h1v1h-1zM55 13h1v1h-1zM56 13h1v1h-1zM57 13h1v1h-1zM58 13h1v1h-1z"/><path fill="#E2E3E3" d="M59 13h1v1h-1z"/><path fill="#D5D6D5" d="M60 13h1v1h-1z"/><path fill="#D3D4D3" d="M61 13h1v1h-1zM62 13h1v1h-1zM63 13h1v1h-1zM64 13h1v1h-1zM65 13h1v1h-1zM66 13h1v1h-1z"/><path fill="#B8B5B6" d="M67 13h1v1h-1z"/><path fill="#9C9698" d="M68 13h1v1h-1zM69 13h1v1h-1zM70 13h1v1h-1zM71 13h1v1h-1zM72 13h1v1h-1zM73 13h1v1h-1zM74 13h1v1h-1zM75 13h1v1h-1zM76 13h1v1h-1zM77 13h1v1h-1zM78 13h1v1h-1z"/><path fill="#948E90" d="M79 13h1v1h-1z"/><path fill="#3A302E" d="M80 13h1v1h-1z"/><path fill="#231815" d="M81 13h1v1h-1zM82 13h1v1h-1zM83 13h1v1h-1zM84 13h1v1h-1zM30 14h1v1h-1zM31 14h1v1h-1zM32 14h1v1h-1zM33 14h1v1h-1z"/><path fill="#918E8C" d="M34 14h1v1h-1z"/><path fill="#D3D4D3" d="M35 14h1v1h-1zM36 14h1v1h-1z"/><path fill="#A39E9F" d="M37 14h1v1h-1z"/><path fill="#9C9698" d="M38 14h1v1h-1z"/><path fill="#C9C8C8" d="M39 14h1v1h-1z"/><path fill="#D3D4D3" d="M40 14h1v1h-1z"/><path fill="#DCDDDD" d="M41 14h1v1h-1z"/><path fill="#E3E4E4" d="M42 14h1v1h-1zM43 14h1v1h-1zM44 14h1v1h-1zM45 14h1v1h-1zM46 14h1v1h-1zM47 14h1v1h-1zM48 14h1v1h-1zM49 14h1v1h-1zM50 14h1v1h-1zM51 14h1v1h-1zM52 14h1v1h-1zM53 14h1v1h-1zM54 14h1v1h-1zM55 14h1v1h-1zM56 14h1v1h-1zM57 14h1v1h-1zM58 14h1v1h-1z"/><path fill="#D9DAD9" d="M59 14h1v1h-1z"/><path fill="#D3D4D3" d="M60 14h1v1h-1zM61 14h1v1h-1zM62 14h1v1h-1zM63 14h1v1h-1zM64 14h1v1h-1zM65 14h1v1h-1zM66 14h1v1h-1z"/><path fill="#B8B5B6" d="M67 14h1v1h-1z"/><path fill="#9C9698" d="M68 14h1v1h-1zM69 14h1v1h-1zM70 14h1v1h-1zM71 14h1v1h-1zM72 14h1v1h-1z"/><path fill="#948E90" d="M73 14h1v1h-1z"/><path fill="#6B6768" d="M74 14h1v1h-1z"/><path fill="#5B5758" d="M75 14h1v1h-1zM76 14h1v1h-1z"/><path fill="#5F5B5C" d="M77 14h1v1h-1z"/><path fill="#7C7778" d="M78 14h1v1h-1z"/><path fill="#989294" d="M79 14h1v1h-1z"/><path fill="#948E90" d="M80 14h1v1h-1z"/><path fill="#2B201D" d="M81 14h1v1h-1z"/><path fill="#231815" d="M82 14h1v1h-1zM83 14h1v1h-1zM84 14h1v1h-1zM85 14h1v1h-1zM29 15h1v1h-1zM30 15h1v1h-1zM31 15h1v1h-1zM32 15h1v1h-1z"/><path fill="#8E8A88" d="M33 15h1v1h-1z"/><path fill="#D3D4D3" d="M34 15h1v1h-1zM35 15h1v1h-1z"/><path fill="#CCC" d="M36 15h1v1h-1z"/><path fill="#9C9698" d="M37 15h1v1h-1z"/><path fill="#B8B5B6" d="M38 15h1v1h-1z"/><path fill="#D3D4D3" d="M39 15h1v1h-1z"/><path fill="#D8D9D8" d="M40 15h1v1h-1z"/><path fill="#E3E4E4" d="M41 15h1v1h-1zM42 15h1v1h-1zM43 15h1v1h-1zM44 15h1v1h-1zM45 15h1v1h-1zM46 15h1v1h-1zM47 15h1v1h-1zM48 15h1v1h-1zM49 15h1v1h-1zM50 15h1v1h-1zM51 15h1v1h-1zM52 15h1v1h-1zM53 15h1v1h-1zM54 15h1v1h-1zM55 15h1v1h-1zM56 15h1v1h-1zM57 15h1v1h-1z"/><path fill="#D9DAD9" d="M58 15h1v1h-1z"/><path fill="#D3D4D3" d="M59 15h1v1h-1zM60 15h1v1h-1zM61 15h1v1h-1zM62 15h1v1h-1zM63 15h1v1h-1zM64 15h1v1h-1zM65 15h1v1h-1zM66 15h1v1h-1z"/><path fill="#B1ADAE" d="M67 15h1v1h-1z"/><path fill="#9C9698" d="M68 15h1v1h-1zM69 15h1v1h-1zM70 15h1v1h-1zM71 15h1v1h-1z"/><path fill="#948E90" d="M72 15h1v1h-1z"/><path fill="#5F5B5C" d="M73 15h1v1h-1z"/><path fill="#5B5758" d="M74 15h1v1h-1zM75 15h1v1h-1zM76 15h1v1h-1zM77 15h1v1h-1zM78 15h1v1h-1z"/><path fill="#676364" d="M79 15h1v1h-1z"/><path fill="#989294" d="M80 15h1v1h-1z"/><path fill="#7E7777" d="M81 15h1v1h-1z"/><path fill="#231815" d="M82 15h1v1h-1zM83 15h1v1h-1zM84 15h1v1h-1zM85 15h1v1h-1zM28 16h1v1h-1zM29 16h1v1h-1zM30 16h1v1h-1zM31 16h1v1h-1z"/><path fill="#5E5755" d="M32 16h1v1h-1z"/><path fill="#D3D4D3" d="M33 16h1v1h-1zM34 16h1v1h-1zM35 16h1v1h-1z"/><path fill="#B8B5B6" d="M36 16h1v1h-1z"/><path fill="#A39E9F" d="M37 16h1v1h-1z"/><path fill="#D3D4D3" d="M38 16h1v1h-1z"/><path fill="#D4D5D4" d="M39 16h1v1h-1z"/><path fill="#E1E2E2" d="M40 16h1v1h-1z"/><path fill="#E3E4E4" d="M41 16h1v1h-1zM42 16h1v1h-1zM43 16h1v1h-1zM44 16h1v1h-1zM45 16h1v1h-1zM46 16h1v1h-1zM47 16h1v1h-1zM48 16h1v1h-1zM49 16h1v1h-1zM50 16h1v1h-1zM51 16h1v1h-1zM52 16h1v1h-1zM53 16h1v1h-1zM54 16h1v1h-1zM55 16h1v1h-1z"/><path fill="#E2E3E3" d="M56 16h1v1h-1z"/><path fill="#D7D8D7" d="M57 16h1v1h-1z"/><path fill="#D3D4D3" d="M58 16h1v1h-1zM59 16h1v1h-1zM60 16h1v1h-1zM61 16h1v1h-1zM62 16h1v1h-1zM63 16h1v1h-1zM64 16h1v1h-1zM65 16h1v1h-1zM66 16h1v1h-1z"/><path fill="#A39E9F" d="M67 16h1v1h-1z"/><path fill="#9C9698" d="M68 16h1v1h-1zM69 16h1v1h-1zM70 16h1v1h-1zM71 16h1v1h-1z"/><path fill="#676364" d="M72 16h1v1h-1z"/><path fill="#5B5758" d="M73 16h1v1h-1zM74 16h1v1h-1zM75 16h1v1h-1zM76 16h1v1h-1zM77 16h1v1h-1zM78 16h1v1h-1zM79 16h1v1h-1z"/><path fill="#676364" d="M80 16h1v1h-1z"/><path fill="#989294" d="M81 16h1v1h-1z"/><path fill="#605757" d="M82 16h1v1h-1z"/><path fill="#231815" d="M83 16h1v1h-1zM84 16h1v1h-1zM85 16h1v1h-1zM86 16h1v1h-1zM27 17h1v1h-1zM28 17h1v1h-1zM29 17h1v1h-1zM30 17h1v1h-1z"/><path fill="#3A302E" d="M31 17h1v1h-1z"/><path fill="#C9C8C8" d="M32 17h1v1h-1z"/><path fill="#D3D4D3" d="M33 17h1v1h-1zM34 17h1v1h-1zM35 17h1v1h-1z"/><path fill="#A39E9F" d="M36 17h1v1h-1z"/><path fill="#C5C5C4" d="M37 17h1v1h-1z"/><path fill="#D3D4D3" d="M38 17h1v1h-1z"/><path fill="#DBDCDC" d="M39 17h1v1h-1z"/><path fill="#E3E4E4" d="M40 17h1v1h-1zM41 17h1v1h-1zM42 17h1v1h-1zM43 17h1v1h-1zM44 17h1v1h-1zM45 17h1v1h-1zM46 17h1v1h-1zM47 17h1v1h-1zM48 17h1v1h-1zM49 17h1v1h-1zM50 17h1v1h-1zM51 17h1v1h-1zM52 17h1v1h-1zM53 17h1v1h-1zM54 17h1v1h-1z"/><path fill="#DCDDDD" d="M55 17h1v1h-1z"/><path fill="#D4D5D4" d="M56 17h1v1h-1z"/><path fill="#D3D4D3" d="M57 17h1v1h-1zM58 17h1v1h-1zM59 17h1v1h-1zM60 17h1v1h-1zM61 17h1v1h-1zM62 17h1v1h-1zM63 17h1v1h-1zM64 17h1v1h-1zM65 17h1v1h-1z"/><path fill="#C2C1C1" d="M66 17h1v1h-1z"/><path fill="#9C9698" d="M67 17h1v1h-1zM68 17h1v1h-1zM69 17h1v1h-1zM70 17h1v1h-1z"/><path fill="#807A7C" d="M71 17h1v1h-1z"/><path fill="#5B5758" d="M72 17h1v1h-1zM73 17h1v1h-1zM74 17h1v1h-1zM75 17h1v1h-1zM76 17h1v1h-1zM77 17h1v1h-1zM78 17h1v1h-1zM79 17h1v1h-1zM80 17h1v1h-1z"/><path fill="#676364" d="M81 17h1v1h-1z"/><path fill="#9C9698" d="M82 17h1v1h-1z"/><path fill="#413836" d="M83 17h1v1h-1z"/><path fill="#231815" d="M84 17h1v1h-1zM85 17h1v1h-1zM86 17h1v1h-1zM87 17h1v1h-1zM27 18h1v1h-1zM28 18h1v1h-1zM29 18h1v1h-1z"/><path fill="#2B201D" d="M30 18h1v1h-1z"/><path fill="#A29E9E" d="M31 18h1v1h-1z"/><path fill="#D3D4D3" d="M32 18h1v1h-1zM33 18h1v1h-1zM34 18h1v1h-1z"/><path fill="#C2C1C1" d="M35 18h1v1h-1z"/><path fill="#AAA6A7" d="M36 18h1v1h-1z"/><path fill="#D3D4D3" d="M37 18h1v1h-1zM38 18h1v1h-1z"/><path fill="#E2E3E3" d="M39 18h1v1h-1z"/><path fill="#E3E4E4" d="M40 18h1v1h-1zM41 18h1v1h-1zM42 18h1v1h-1zM43 18h1v1h-1zM44 18h1v1h-1zM45 18h1v1h-1zM46 18h1v1h-1zM47 18h1v1h-1zM48 18h1v1h-1zM49 18h1v1h-1zM50 18h1v1h-1zM51 18h1v1h-1z"/><path fill="#E2E3E3" d="M52 18h1v1h-1z"/><path fill="#DDDEDE" d="M53 18h1v1h-1z"/><path fill="#D5D6D5" d="M54 18h1v1h-1z"/><path fill="#D3D4D3" d="M55 18h1v1h-1zM56 18h1v1h-1zM57 18h1v1h-1zM58 18h1v1h-1zM59 18h1v1h-1zM60 18h1v1h-1zM61 18h1v1h-1zM62 18h1v1h-1zM63 18h1v1h-1zM64 18h1v1h-1zM65 18h1v1h-1z"/><path fill="#A39E9F" d="M66 18h1v1h-1z"/><path fill="#9C9698" d="M67 18h1v1h-1zM68 18h1v1h-1zM69 18h1v1h-1z"/><path fill="#989294" d="M70 18h1v1h-1z"/><path fill="#5F5B5C" d="M71 18h1v1h-1z"/><path fill="#5B5758" d="M72 18h1v1h-1zM73 18h1v1h-1zM74 18h1v1h-1zM75 18h1v1h-1zM76 18h1v1h-1zM77 18h1v1h-1zM78 18h1v1h-1zM79 18h1v1h-1zM80 18h1v1h-1zM81 18h1v1h-1z"/><path fill="#7C7778" d="M82 18h1v1h-1z"/><path fill="#8D8688" d="M83 18h1v1h-1z"/><path fill="#231815" d="M84 18h1v1h-1zM85 18h1v1h-1zM86 18h1v1h-1zM87 18h1v1h-1zM26 19h1v1h-1zM27 19h1v1h-1zM28 19h1v1h-1zM29 19h1v1h-1z"/><path fill="#675F5F" d="M30 19h1v1h-1z"/><path fill="#C9C8C8" d="M31 19h1v1h-1z"/><path fill="#D3D4D3" d="M32 19h1v1h-1zM33 19h1v1h-1zM34 19h1v1h-1z"/><path fill="#AAA6A7" d="M35 19h1v1h-1z"/><path fill="#BEBDBD" d="M36 19h1v1h-1z"/><path fill="#D3D4D3" d="M37 19h1v1h-1zM38 19h1v1h-1z"/><path fill="#D7D8D7" d="M39 19h1v1h-1z"/><path fill="#DDDEDE" d="M40 19h1v1h-1z"/><path fill="#E0E1E1" d="M41 19h1v1h-1z"/><path fill="#E3E4E4" d="M42 19h1v1h-1zM43 19h1v1h-1zM44 19h1v1h-1zM45 19h1v1h-1zM46 19h1v1h-1zM47 19h1v1h-1zM48 19h1v1h-1zM49 19h1v1h-1z"/><path fill="#DEDFDF" d="M50 19h1v1h-1z"/><path fill="#D9DAD9" d="M51 19h1v1h-1z"/><path fill="#D4D5D4" d="M52 19h1v1h-1z"/><path fill="#D3D4D3" d="M53 19h1v1h-1zM54 19h1v1h-1zM55 19h1v1h-1zM56 19h1v1h-1zM57 19h1v1h-1zM58 19h1v1h-1zM59 19h1v1h-1zM60 19h1v1h-1zM61 19h1v1h-1zM62 19h1v1h-1zM63 19h1v1h-1zM64 19h1v1h-1z"/><path fill="#B8B5B6" d="M65 19h1v1h-1z"/><path fill="#9C9698" d="M66 19h1v1h-1zM67 19h1v1h-1zM68 19h1v1h-1zM69 19h1v1h-1z"/><path fill="#7C7778" d="M70 19h1v1h-1z"/><path fill="#5B5758" d="M71 19h1v1h-1zM72 19h1v1h-1zM73 19h1v1h-1zM74 19h1v1h-1zM75 19h1v1h-1zM76 19h1v1h-1zM77 19h1v1h-1zM78 19h1v1h-1zM79 19h1v1h-1zM80 19h1v1h-1zM81 19h1v1h-1z"/><path fill="#5F5B5C" d="M82 19h1v1h-1z"/><path fill="#948E90" d="M83 19h1v1h-1z"/><path fill="#605757" d="M84 19h1v1h-1z"/><path fill="#231815" d="M85 19h1v1h-1zM86 19h1v1h-1zM87 19h1v1h-1zM88 19h1v1h-1zM26 20h1v1h-1zM27 20h1v1h-1zM28 20h1v1h-1z"/><path fill="#3A302E" d="M29 20h1v1h-1z"/><path fill="#A6A2A3" d="M30 20h1v1h-1z"/><path fill="#D3D4D3" d="M31 20h1v1h-1zM32 20h1v1h-1zM33 20h1v1h-1z"/><path fill="#CCC" d="M34 20h1v1h-1z"/><path fill="#9C9698" d="M35 20h1v1h-1z"/><path fill="#D3D4D3" d="M36 20h1v1h-1zM37 20h1v1h-1zM38 20h1v1h-1zM39 20h1v1h-1zM40 20h1v1h-1zM41 20h1v1h-1z"/><path fill="#D4D5D4" d="M42 20h1v1h-1z"/><path fill="#D7D8D7" d="M43 20h1v1h-1z"/><path fill="#DBDCDC" d="M44 20h1v1h-1zM45 20h1v1h-1zM46 20h1v1h-1z"/><path fill="#D9DAD9" d="M47 20h1v1h-1z"/><path fill="#D7D8D7" d="M48 20h1v1h-1z"/><path fill="#D3D4D3" d="M49 20h1v1h-1zM50 20h1v1h-1zM51 20h1v1h-1zM52 20h1v1h-1zM53 20h1v1h-1zM54 20h1v1h-1zM55 20h1v1h-1zM56 20h1v1h-1zM57 20h1v1h-1zM58 20h1v1h-1zM59 20h1v1h-1zM60 20h1v1h-1zM61 20h1v1h-1zM62 20h1v1h-1zM63 20h1v1h-1z"/><path fill="#C9C8C8" d="M64 20h1v1h-1z"/><path fill="#9C9698" d="M65 20h1v1h-1zM66 20h1v1h-1zM67 20h1v1h-1zM68 20h1v1h-1z"/><path fill="#989294" d="M69 20h1v1h-1z"/><path fill="#5F5B5C" d="M70 20h1v1h-1z"/><path fill="#5B5758" d="M71 20h1v1h-1zM72 20h1v1h-1zM73 20h1v1h-1zM74 20h1v1h-1zM75 20h1v1h-1zM76 20h1v1h-1zM77 20h1v1h-1zM78 20h1v1h-1zM79 20h1v1h-1zM80 20h1v1h-1zM81 20h1v1h-1zM82 20h1v1h-1z"/><path fill="#736F70" d="M83 20h1v1h-1z"/><path fill="#948E90" d="M84 20h1v1h-1z"/><path fill="#322825" d="M85 20h1v1h-1z"/><path fill="#231815" d="M86 20h1v1h-1zM87 20h1v1h-1zM88 20h1v1h-1zM25 21h1v1h-1zM26 21h1v1h-1zM27 21h1v1h-1zM28 21h1v1h-1z"/><path fill="#7E7777" d="M29 21h1v1h-1z"/><path fill="#BEBDBD" d="M30 21h1v1h-1z"/><path fill="#D3D4D3" d="M31 21h1v1h-1zM32 21h1v1h-1zM33 21h1v1h-1z"/><path fill="#B1ADAE" d="M34 21h1v1h-1z"/><path fill="#AAA6A7" d="M35 21h1v1h-1z"/><path fill="#D3D4D3" d="M36 21h1v1h-1zM37 21h1v1h-1zM38 21h1v1h-1zM39 21h1v1h-1zM40 21h1v1h-1zM41 21h1v1h-1zM42 21h1v1h-1zM43 21h1v1h-1zM44 21h1v1h-1zM45 21h1v1h-1zM46 21h1v1h-1zM47 21h1v1h-1zM48 21h1v1h-1zM49 21h1v1h-1zM50 21h1v1h-1zM51 21h1v1h-1zM52 21h1v1h-1zM53 21h1v1h-1zM54 21h1v1h-1zM55 21h1v1h-1zM56 21h1v1h-1zM57 21h1v1h-1zM58 21h1v1h-1zM59 21h1v1h-1zM60 21h1v1h-1zM61 21h1v1h-1zM62 21h1v1h-1z"/><path fill="#C9C8C8" d="M63 21h1v1h-1z"/><path fill="#9F9A9C" d="M64 21h1v1h-1z"/><path fill="#9C9698" d="M65 21h1v1h-1zM66 21h1v1h-1zM67 21h1v1h-1zM68 21h1v1h-1z"/><path fill="#7C7778" d="M69 21h1v1h-1z"/><path fill="#5B5758" d="M70 21h1v1h-1zM71 21h1v1h-1zM72 21h1v1h-1zM73 21h1v1h-1zM74 21h1v1h-1zM75 21h1v1h-1zM76 21h1v1h-1zM77 21h1v1h-1zM78 21h1v1h-1zM79 21h1v1h-1zM80 21h1v1h-1zM81 21h1v1h-1zM82 21h1v1h-1zM83 21h1v1h-1z"/><path fill="#9C9698" d="M84 21h1v1h-1z"/><path fill="#6F6767" d="M85 21h1v1h-1z"/><path fill="#231815" d="M86 21h1v1h-1zM87 21h1v1h-1zM88 21h1v1h-1zM25 22h1v1h-1zM26 22h1v1h-1zM27 22h1v1h-1z"/><path fill="#493F3E" d="M28 22h1v1h-1z"/><path fill="#9C9698" d="M29 22h1v1h-1z"/><path fill="#CCC" d="M30 22h1v1h-1z"/><path fill="#D3D4D3" d="M31 22h1v1h-1zM32 22h1v1h-1z"/><path fill="#CCC" d="M33 22h1v1h-1z"/><path fill="#9C9698" d="M34 22h1v1h-1z"/><path fill="#AAA6A7" d="M35 22h1v1h-1z"/><path fill="#D3D4D3" d="M36 22h1v1h-1zM37 22h1v1h-1zM38 22h1v1h-1zM39 22h1v1h-1zM40 22h1v1h-1zM41 22h1v1h-1zM42 22h1v1h-1zM43 22h1v1h-1zM44 22h1v1h-1zM45 22h1v1h-1zM46 22h1v1h-1zM47 22h1v1h-1zM48 22h1v1h-1zM49 22h1v1h-1zM50 22h1v1h-1zM51 22h1v1h-1zM52 22h1v1h-1zM53 22h1v1h-1zM54 22h1v1h-1zM55 22h1v1h-1zM56 22h1v1h-1zM57 22h1v1h-1zM58 22h1v1h-1zM59 22h1v1h-1zM60 22h1v1h-1zM61 22h1v1h-1z"/><path fill="#C9C8C8" d="M62 22h1v1h-1z"/><path fill="#9F9A9C" d="M63 22h1v1h-1z"/><path fill="#9C9698" d="M64 22h1v1h-1zM65 22h1v1h-1zM66 22h1v1h-1zM67 22h1v1h-1z"/><path fill="#989294" d="M68 22h1v1h-1z"/><path fill="#5F5B5C" d="M69 22h1v1h-1z"/><path fill="#5B5758" d="M70 22h1v1h-1zM71 22h1v1h-1zM72 22h1v1h-1zM73 22h1v1h-1zM74 22h1v1h-1zM75 22h1v1h-1zM76 22h1v1h-1zM77 22h1v1h-1zM78 22h1v1h-1zM79 22h1v1h-1zM80 22h1v1h-1zM81 22h1v1h-1zM82 22h1v1h-1zM83 22h1v1h-1z"/><path fill="#9C9698" d="M84 22h1v1h-1z"/><path fill="#948E90" d="M85 22h1v1h-1z"/><path fill="#2B201D" d="M86 22h1v1h-1z"/><path fill="#231815" d="M87 22h1v1h-1zM88 22h1v1h-1zM89 22h1v1h-1zM24 23h1v1h-1zM25 23h1v1h-1zM26 23h1v1h-1zM27 23h1v1h-1z"/><path fill="#726B6B" d="M28 23h1v1h-1z"/><path fill="#7C7778" d="M29 23h1v1h-1z"/><path fill="#908E8E" d="M30 23h1v1h-1z"/><path fill="#797677" d="M31 23h1v1h-1zM32 23h1v1h-1z"/><path fill="#6E6B6B" d="M33 23h1v1h-1z"/><path fill="#5B5758" d="M34 23h1v1h-1zM35 23h1v1h-1zM36 23h1v1h-1zM37 23h1v1h-1z"/><path fill="#726E6F" d="M38 23h1v1h-1z"/><path fill="#797677" d="M39 23h1v1h-1z"/><path fill="#817E7E" d="M40 23h1v1h-1z"/><path fill="#979696" d="M41 23h1v1h-1z"/><path fill="#B5B5B4" d="M42 23h1v1h-1z"/><path fill="#D3D4D3" d="M43 23h1v1h-1zM44 23h1v1h-1zM45 23h1v1h-1zM46 23h1v1h-1zM47 23h1v1h-1zM48 23h1v1h-1zM49 23h1v1h-1zM50 23h1v1h-1zM51 23h1v1h-1zM52 23h1v1h-1zM53 23h1v1h-1zM54 23h1v1h-1zM55 23h1v1h-1zM56 23h1v1h-1zM57 23h1v1h-1zM58 23h1v1h-1zM59 23h1v1h-1zM60 23h1v1h-1z"/><path fill="#C5C5C4" d="M61 23h1v1h-1z"/><path fill="#9F9A9C" d="M62 23h1v1h-1z"/><path fill="#9C9698" d="M63 23h1v1h-1zM64 23h1v1h-1zM65 23h1v1h-1zM66 23h1v1h-1zM67 23h1v1h-1z"/><path fill="#777374" d="M68 23h1v1h-1z"/><path fill="#5B5758" d="M69 23h1v1h-1zM70 23h1v1h-1zM71 23h1v1h-1zM72 23h1v1h-1zM73 23h1v1h-1zM74 23h1v1h-1zM75 23h1v1h-1zM76 23h1v1h-1zM77 23h1v1h-1zM78 23h1v1h-1zM79 23h1v1h-1zM80 23h1v1h-1zM81 23h1v1h-1zM82 23h1v1h-1z"/><path fill="#635F60" d="M83 23h1v1h-1z"/><path fill="#9C9698" d="M84 23h1v1h-1zM85 23h1v1h-1z"/><path fill="#504746" d="M86 23h1v1h-1z"/><path fill="#231815" d="M87 23h1v1h-1zM88 23h1v1h-1zM89 23h1v1h-1zM22 24h1v1h-1zM23 24h1v1h-1zM24 24h1v1h-1zM25 24h1v1h-1zM26 24h1v1h-1zM27 24h1v1h-1zM28 24h1v1h-1z"/><path fill="#4A4343" d="M29 24h1v1h-1z"/><path fill="#5B5758" d="M30 24h1v1h-1zM31 24h1v1h-1zM32 24h1v1h-1zM33 24h1v1h-1zM34 24h1v1h-1zM35 24h1v1h-1zM36 24h1v1h-1zM37 24h1v1h-1zM38 24h1v1h-1zM39 24h1v1h-1zM40 24h1v1h-1zM41 24h1v1h-1zM42 24h1v1h-1zM43 24h1v1h-1z"/><path fill="#888686" d="M44 24h1v1h-1z"/><path fill="#B5B5B4" d="M45 24h1v1h-1z"/><path fill="#D3D4D3" d="M46 24h1v1h-1zM47 24h1v1h-1zM48 24h1v1h-1zM49 24h1v1h-1zM50 24h1v1h-1zM51 24h1v1h-1zM52 24h1v1h-1zM53 24h1v1h-1zM54 24h1v1h-1zM55 24h1v1h-1zM56 24h1v1h-1zM57 24h1v1h-1zM58 24h1v1h-1zM59 24h1v1h-1z"/><path fill="#B8B5B6" d="M60 24h1v1h-1z"/><path fill="#9C9698" d="M61 24h1v1h-1zM62 24h1v1h-1zM63 24h1v1h-1zM64 24h1v1h-1zM65 24h1v1h-1zM66 24h1v1h-1z"/><path fill="#948E90" d="M67 24h1v1h-1z"/><path fill="#5B5758" d="M68 24h1v1h-1zM69 24h1v1h-1zM70 24h1v1h-1zM71 24h1v1h-1zM72 24h1v1h-1zM73 24h1v1h-1zM74 24h1v1h-1zM75 24h1v1h-1zM76 24h1v1h-1zM77 24h1v1h-1zM78 24h1v1h-1zM79 24h1v1h-1zM80 24h1v1h-1zM81 24h1v1h-1zM82 24h1v1h-1z"/><path fill="#7C7778" d="M83 24h1v1h-1z"/><path fill="#9C9698" d="M84 24h1v1h-1zM85 24h1v1h-1z"/><path fill="#756E6D" d="M86 24h1v1h-1z"/><path fill="#231815" d="M87 24h1v1h-1zM88 24h1v1h-1zM89 24h1v1h-1zM18 25h1v1h-1zM19 25h1v1h-1zM20 25h1v1h-1zM21 25h1v1h-1zM22 25h1v1h-1zM23 25h1v1h-1zM24 25h1v1h-1zM25 25h1v1h-1zM26 25h1v1h-1zM27 25h1v1h-1zM28 25h1v1h-1z"/><path fill="#3F3837" d="M29 25h1v1h-1z"/><path fill="#5B5758" d="M30 25h1v1h-1zM31 25h1v1h-1zM32 25h1v1h-1zM33 25h1v1h-1zM34 25h1v1h-1zM35 25h1v1h-1zM36 25h1v1h-1zM37 25h1v1h-1zM38 25h1v1h-1zM39 25h1v1h-1zM40 25h1v1h-1zM41 25h1v1h-1zM42 25h1v1h-1zM43 25h1v1h-1zM44 25h1v1h-1zM45 25h1v1h-1z"/><path fill="#797677" d="M46 25h1v1h-1z"/><path fill="#C4C4C4" d="M47 25h1v1h-1z"/><path fill="#D3D4D3" d="M48 25h1v1h-1zM49 25h1v1h-1zM50 25h1v1h-1zM51 25h1v1h-1zM52 25h1v1h-1zM53 25h1v1h-1zM54 25h1v1h-1zM55 25h1v1h-1zM56 25h1v1h-1zM57 25h1v1h-1z"/><path fill="#C5C5C4" d="M58 25h1v1h-1z"/><path fill="#A39E9F" d="M59 25h1v1h-1z"/><path fill="#9C9698" d="M60 25h1v1h-1zM61 25h1v1h-1zM62 25h1v1h-1zM63 25h1v1h-1zM64 25h1v1h-1zM65 25h1v1h-1zM66 25h1v1h-1z"/><path fill="#6B6768" d="M67 25h1v1h-1z"/><path fill="#5B5758" d="M68 25h1v1h-1zM69 25h1v1h-1zM70 25h1v1h-1zM71 25h1v1h-1zM72 25h1v1h-1zM73 25h1v1h-1zM74 25h1v1h-1zM75 25h1v1h-1zM76 25h1v1h-1zM77 25h1v1h-1zM78 25h1v1h-1zM79 25h1v1h-1zM80 25h1v1h-1zM81 25h1v1h-1z"/><path fill="#676364" d="M82 25h1v1h-1z"/><path fill="#989294" d="M83 25h1v1h-1z"/><path fill="#9C9698" d="M84 25h1v1h-1z"/><path fill="#B1ADAE" d="M85 25h1v1h-1z"/><path fill="#A7A5A4" d="M86 25h1v1h-1z"/><path fill="#231815" d="M87 25h1v1h-1zM88 25h1v1h-1zM89 25h1v1h-1zM16 26h1v1h-1zM17 26h1v1h-1zM18 26h1v1h-1zM19 26h1v1h-1zM20 26h1v1h-1zM21 26h1v1h-1zM22 26h1v1h-1zM23 26h1v1h-1zM24 26h1v1h-1zM25 26h1v1h-1zM26 26h1v1h-1z"/><path fill="#271C19" d="M27 26h1v1h-1z"/><path fill="#534B49" d="M28 26h1v1h-1z"/><path fill="#898685" d="M29 26h1v1h-1z"/><path fill="#979696" d="M30 26h1v1h-1z"/><path fill="#ABA9A9" d="M31 26h1v1h-1z"/><path fill="#B5B5B4" d="M32 26h1v1h-1z"/><path fill="#B9B9B8" d="M33 26h1v1h-1z"/><path fill="#C5C5C4" d="M34 26h1v1h-1zM35 26h1v1h-1zM36 26h1v1h-1zM37 26h1v1h-1z"/><path fill="#B9B9B8" d="M38 26h1v1h-1z"/><path fill="#ABA9A9" d="M39 26h1v1h-1z"/><path fill="#868283" d="M40 26h1v1h-1z"/><path fill="#736F70" d="M41 26h1v1h-1z"/><path fill="#635F60" d="M42 26h1v1h-1z"/><path fill="#5B5758" d="M43 26h1v1h-1zM44 26h1v1h-1zM45 26h1v1h-1zM46 26h1v1h-1z"/><path fill="#635F60" d="M47 26h1v1h-1z"/><path fill="#A6A5A5" d="M48 26h1v1h-1z"/><path fill="#D3D4D3" d="M49 26h1v1h-1zM50 26h1v1h-1zM51 26h1v1h-1zM52 26h1v1h-1zM53 26h1v1h-1zM54 26h1v1h-1zM55 26h1v1h-1z"/><path fill="#C5C5C4" d="M56 26h1v1h-1z"/><path fill="#AAA6A7" d="M57 26h1v1h-1z"/><path fill="#9C9698" d="M58 26h1v1h-1zM59 26h1v1h-1zM60 26h1v1h-1zM61 26h1v1h-1zM62 26h1v1h-1z"/><path fill="#A39E9F" d="M63 26h1v1h-1z"/><path fill="#AAA6A7" d="M64 26h1v1h-1z"/><path fill="#9F9A9C" d="M65 26h1v1h-1z"/><path fill="#807A7C" d="M66 26h1v1h-1z"/><path fill="#5B5758" d="M67 26h1v1h-1zM68 26h1v1h-1zM69 26h1v1h-1zM70 26h1v1h-1zM71 26h1v1h-1zM72 26h1v1h-1zM73 26h1v1h-1zM74 26h1v1h-1zM75 26h1v1h-1zM76 26h1v1h-1zM77 26h1v1h-1zM78 26h1v1h-1zM79 26h1v1h-1zM80 26h1v1h-1z"/><path fill="#5F5B5C" d="M81 26h1v1h-1z"/><path fill="#908A8C" d="M82 26h1v1h-1z"/><path fill="#9C9698" d="M83 26h1v1h-1z"/><path fill="#A6A2A3" d="M84 26h1v1h-1z"/><path fill="#D0D0CF" d="M85 26h1v1h-1z"/><path fill="#A7A5A4" d="M86 26h1v1h-1z"/><path fill="#231815" d="M87 26h1v1h-1zM88 26h1v1h-1zM89 26h1v1h-1zM14 27h1v1h-1zM15 27h1v1h-1zM16 27h1v1h-1zM17 27h1v1h-1zM18 27h1v1h-1zM19 27h1v1h-1zM20 27h1v1h-1zM21 27h1v1h-1z"/><path fill="#2A201D" d="M22 27h1v1h-1z"/><path fill="#352C2A" d="M23 27h1v1h-1z"/><path fill="#473F3E" d="M24 27h1v1h-1z"/><path fill="#A5A2A1" d="M25 27h1v1h-1z"/><path fill="#D2D2D2" d="M26 27h1v1h-1z"/><path fill="#DFE0E0" d="M27 27h1v1h-1z"/><path fill="#E3E4E4" d="M28 27h1v1h-1zM29 27h1v1h-1zM30 27h1v1h-1zM31 27h1v1h-1zM32 27h1v1h-1z"/><path fill="#E0E1E1" d="M33 27h1v1h-1z"/><path fill="#DEDFDF" d="M34 27h1v1h-1z"/><path fill="#D9DAD9" d="M35 27h1v1h-1z"/><path fill="#D4D5D4" d="M36 27h1v1h-1z"/><path fill="#D3D4D3" d="M37 27h1v1h-1zM38 27h1v1h-1zM39 27h1v1h-1z"/><path fill="#C2C1C1" d="M40 27h1v1h-1z"/><path fill="#9C9698" d="M41 27h1v1h-1zM42 27h1v1h-1z"/><path fill="#8C8688" d="M43 27h1v1h-1z"/><path fill="#6B6768" d="M44 27h1v1h-1z"/><path fill="#5B5758" d="M45 27h1v1h-1zM46 27h1v1h-1zM47 27h1v1h-1zM48 27h1v1h-1z"/><path fill="#888686" d="M49 27h1v1h-1z"/><path fill="#D3D4D3" d="M50 27h1v1h-1zM51 27h1v1h-1zM52 27h1v1h-1z"/><path fill="#C9C8C8" d="M53 27h1v1h-1z"/><path fill="#BBB9B9" d="M54 27h1v1h-1z"/><path fill="#A39E9F" d="M55 27h1v1h-1z"/><path fill="#9C9698" d="M56 27h1v1h-1zM57 27h1v1h-1zM58 27h1v1h-1zM59 27h1v1h-1z"/><path fill="#A6A2A3" d="M60 27h1v1h-1z"/><path fill="#BBB9B9" d="M61 27h1v1h-1z"/><path fill="#CCC" d="M62 27h1v1h-1z"/><path fill="#D3D4D3" d="M63 27h1v1h-1zM64 27h1v1h-1z"/><path fill="#A29E9F" d="M65 27h1v1h-1z"/><path fill="#5F5B5C" d="M66 27h1v1h-1z"/><path fill="#5B5758" d="M67 27h1v1h-1zM68 27h1v1h-1zM69 27h1v1h-1zM70 27h1v1h-1zM71 27h1v1h-1zM72 27h1v1h-1zM73 27h1v1h-1zM74 27h1v1h-1zM75 27h1v1h-1zM76 27h1v1h-1zM77 27h1v1h-1zM78 27h1v1h-1zM79 27h1v1h-1z"/><path fill="#5F5B5C" d="M80 27h1v1h-1z"/><path fill="#908A8C" d="M81 27h1v1h-1z"/><path fill="#9C9698" d="M82 27h1v1h-1z"/><path fill="#A6A2A3" d="M83 27h1v1h-1z"/><path fill="#D0D0CF" d="M84 27h1v1h-1z"/><path fill="#D3D4D3" d="M85 27h1v1h-1z"/><path fill="#918E8C" d="M86 27h1v1h-1z"/><path fill="#231815" d="M87 27h1v1h-1zM88 27h1v1h-1zM89 27h1v1h-1zM13 28h1v1h-1zM14 28h1v1h-1zM15 28h1v1h-1zM16 28h1v1h-1zM17 28h1v1h-1zM18 28h1v1h-1z"/><path fill="#2E2422" d="M19 28h1v1h-1z"/><path fill="#433B3B" d="M20 28h1v1h-1z"/><path fill="#544F50" d="M21 28h1v1h-1z"/><path fill="#5B5758" d="M22 28h1v1h-1zM23 28h1v1h-1zM24 28h1v1h-1z"/><path fill="#757172" d="M25 28h1v1h-1z"/><path fill="#CACACA" d="M26 28h1v1h-1z"/><path fill="#E3E4E4" d="M27 28h1v1h-1zM28 28h1v1h-1zM29 28h1v1h-1zM30 28h1v1h-1zM31 28h1v1h-1zM32 28h1v1h-1zM33 28h1v1h-1zM34 28h1v1h-1zM35 28h1v1h-1z"/><path fill="#E2E3E3" d="M36 28h1v1h-1z"/><path fill="#D6D7D6" d="M37 28h1v1h-1z"/><path fill="#D3D4D3" d="M38 28h1v1h-1zM39 28h1v1h-1z"/><path fill="#BBB9B9" d="M40 28h1v1h-1z"/><path fill="#9C9698" d="M41 28h1v1h-1zM42 28h1v1h-1z"/><path fill="#908A8C" d="M43 28h1v1h-1z"/><path fill="#635F60" d="M44 28h1v1h-1z"/><path fill="#5B5758" d="M45 28h1v1h-1zM46 28h1v1h-1zM47 28h1v1h-1zM48 28h1v1h-1zM49 28h1v1h-1z"/><path fill="#858282" d="M50 28h1v1h-1z"/><path fill="#ADA9AA" d="M51 28h1v1h-1z"/><path fill="#A39E9F" d="M52 28h1v1h-1z"/><path fill="#9C9698" d="M53 28h1v1h-1zM54 28h1v1h-1zM55 28h1v1h-1zM56 28h1v1h-1z"/><path fill="#9F9A9C" d="M57 28h1v1h-1z"/><path fill="#B8B5B6" d="M58 28h1v1h-1z"/><path fill="#CCC" d="M59 28h1v1h-1z"/><path fill="#D3D4D3" d="M60 28h1v1h-1zM61 28h1v1h-1zM62 28h1v1h-1zM63 28h1v1h-1z"/><path fill="#C8C8C8" d="M64 28h1v1h-1z"/><path fill="#676364" d="M65 28h1v1h-1z"/><path fill="#5B5758" d="M66 28h1v1h-1zM67 28h1v1h-1zM68 28h1v1h-1zM69 28h1v1h-1zM70 28h1v1h-1zM71 28h1v1h-1zM72 28h1v1h-1zM73 28h1v1h-1zM74 28h1v1h-1zM75 28h1v1h-1zM76 28h1v1h-1zM77 28h1v1h-1zM78 28h1v1h-1z"/><path fill="#676364" d="M79 28h1v1h-1z"/><path fill="#908A8C" d="M80 28h1v1h-1z"/><path fill="#9C9698" d="M81 28h1v1h-1z"/><path fill="#AAA6A7" d="M82 28h1v1h-1z"/><path fill="#D0D0CF" d="M83 28h1v1h-1z"/><path fill="#D3D4D3" d="M84 28h1v1h-1zM85 28h1v1h-1z"/><path fill="#655F5C" d="M86 28h1v1h-1z"/><path fill="#231815" d="M87 28h1v1h-1zM88 28h1v1h-1zM89 28h1v1h-1zM12 29h1v1h-1zM13 29h1v1h-1zM14 29h1v1h-1zM15 29h1v1h-1zM16 29h1v1h-1z"/><path fill="#494A4F" d="M17 29h1v1h-1z"/><path fill="#889BAD" d="M18 29h1v1h-1z"/><path fill="#A9C8E5" d="M19 29h1v1h-1zM20 29h1v1h-1z"/><path fill="#8FA3B6" d="M21 29h1v1h-1z"/><path fill="#65666B" d="M22 29h1v1h-1z"/><path fill="#5B5758" d="M23 29h1v1h-1zM24 29h1v1h-1zM25 29h1v1h-1z"/><path fill="#646061" d="M26 29h1v1h-1z"/><path fill="#C1C1C1" d="M27 29h1v1h-1z"/><path fill="#E3E4E4" d="M28 29h1v1h-1zM29 29h1v1h-1zM30 29h1v1h-1zM31 29h1v1h-1zM32 29h1v1h-1zM33 29h1v1h-1zM34 29h1v1h-1zM35 29h1v1h-1zM36 29h1v1h-1z"/><path fill="#D9DAD9" d="M37 29h1v1h-1z"/><path fill="#D3D4D3" d="M38 29h1v1h-1zM39 29h1v1h-1z"/><path fill="#A39E9F" d="M40 29h1v1h-1z"/><path fill="#9C9698" d="M41 29h1v1h-1z"/><path fill="#908A8C" d="M42 29h1v1h-1z"/><path fill="#5F5B5C" d="M43 29h1v1h-1z"/><path fill="#5B5758" d="M44 29h1v1h-1zM45 29h1v1h-1zM46 29h1v1h-1zM47 29h1v1h-1zM48 29h1v1h-1zM49 29h1v1h-1zM50 29h1v1h-1z"/><path fill="#7C7778" d="M51 29h1v1h-1z"/><path fill="#9C9698" d="M52 29h1v1h-1zM53 29h1v1h-1zM54 29h1v1h-1z"/><path fill="#A39E9F" d="M55 29h1v1h-1z"/><path fill="#BEBDBD" d="M56 29h1v1h-1z"/><path fill="#D3D4D3" d="M57 29h1v1h-1zM58 29h1v1h-1zM59 29h1v1h-1zM60 29h1v1h-1zM61 29h1v1h-1zM62 29h1v1h-1zM63 29h1v1h-1z"/><path fill="#858282" d="M64 29h1v1h-1z"/><path fill="#5B5758" d="M65 29h1v1h-1zM66 29h1v1h-1zM67 29h1v1h-1zM68 29h1v1h-1zM69 29h1v1h-1zM70 29h1v1h-1zM71 29h1v1h-1zM72 29h1v1h-1zM73 29h1v1h-1zM74 29h1v1h-1zM75 29h1v1h-1zM76 29h1v1h-1zM77 29h1v1h-1z"/><path fill="#6F6B6C" d="M78 29h1v1h-1z"/><path fill="#989294" d="M79 29h1v1h-1z"/><path fill="#9C9698" d="M80 29h1v1h-1z"/><path fill="#B4B1B2" d="M81 29h1v1h-1z"/><path fill="#D3D4D3" d="M82 29h1v1h-1zM83 29h1v1h-1zM84 29h1v1h-1z"/><path fill="#C8C8C7" d="M85 29h1v1h-1z"/><path fill="#2E2421" d="M86 29h1v1h-1z"/><path fill="#231815" d="M87 29h1v1h-1zM88 29h1v1h-1zM89 29h1v1h-1zM11 30h1v1h-1zM12 30h1v1h-1zM13 30h1v1h-1zM14 30h1v1h-1z"/><path fill="#2C2423" d="M15 30h1v1h-1z"/><path fill="#758393" d="M16 30h1v1h-1z"/><path fill="#AED0EE" d="M17 30h1v1h-1zM18 30h1v1h-1zM19 30h1v1h-1zM20 30h1v1h-1zM21 30h1v1h-1zM22 30h1v1h-1z"/><path fill="#8594A3" d="M23 30h1v1h-1z"/><path fill="#5B5758" d="M24 30h1v1h-1zM25 30h1v1h-1zM26 30h1v1h-1zM27 30h1v1h-1z"/><path fill="#B0AFB0" d="M28 30h1v1h-1z"/><path fill="#E3E4E4" d="M29 30h1v1h-1zM30 30h1v1h-1zM31 30h1v1h-1zM32 30h1v1h-1zM33 30h1v1h-1zM34 30h1v1h-1z"/><path fill="#E0E1E1" d="M35 30h1v1h-1z"/><path fill="#D9DAD9" d="M36 30h1v1h-1z"/><path fill="#D3D4D3" d="M37 30h1v1h-1zM38 30h1v1h-1z"/><path fill="#B1ADAE" d="M39 30h1v1h-1z"/><path fill="#9C9698" d="M40 30h1v1h-1z"/><path fill="#948E90" d="M41 30h1v1h-1z"/><path fill="#5F5B5C" d="M42 30h1v1h-1z"/><path fill="#5B5758" d="M43 30h1v1h-1zM44 30h1v1h-1zM45 30h1v1h-1z"/><path fill="#7C7778" d="M46 30h1v1h-1z"/><path fill="#948E90" d="M47 30h1v1h-1z"/><path fill="#6F6B6C" d="M48 30h1v1h-1z"/><path fill="#5B5758" d="M49 30h1v1h-1zM50 30h1v1h-1zM51 30h1v1h-1z"/><path fill="#8C8688" d="M52 30h1v1h-1z"/><path fill="#9F9A9C" d="M53 30h1v1h-1z"/><path fill="#BBB9B9" d="M54 30h1v1h-1z"/><path fill="#D3D4D3" d="M55 30h1v1h-1zM56 30h1v1h-1zM57 30h1v1h-1zM58 30h1v1h-1zM59 30h1v1h-1zM60 30h1v1h-1zM61 30h1v1h-1zM62 30h1v1h-1z"/><path fill="#9F9D9D" d="M63 30h1v1h-1z"/><path fill="#5B5758" d="M64 30h1v1h-1zM65 30h1v1h-1zM66 30h1v1h-1zM67 30h1v1h-1zM68 30h1v1h-1zM69 30h1v1h-1zM70 30h1v1h-1zM71 30h1v1h-1zM72 30h1v1h-1zM73 30h1v1h-1zM74 30h1v1h-1zM75 30h1v1h-1z"/><path fill="#5F5B5C" d="M76 30h1v1h-1z"/><path fill="#888284" d="M77 30h1v1h-1z"/><path fill="#9C9698" d="M78 30h1v1h-1z"/><path fill="#9F9A9C" d="M79 30h1v1h-1z"/><path fill="#C2C1C1" d="M80 30h1v1h-1z"/><path fill="#D3D4D3" d="M81 30h1v1h-1zM82 30h1v1h-1zM83 30h1v1h-1zM84 30h1v1h-1z"/><path fill="#706A68" d="M85 30h1v1h-1z"/><path fill="#231815" d="M86 30h1v1h-1zM87 30h1v1h-1zM88 30h1v1h-1zM10 31h1v1h-1zM11 31h1v1h-1zM12 31h1v1h-1zM13 31h1v1h-1z"/><path fill="#342F30" d="M14 31h1v1h-1z"/><path fill="#94AEC5" d="M15 31h1v1h-1z"/><path fill="#AED0EE" d="M16 31h1v1h-1zM17 31h1v1h-1zM18 31h1v1h-1zM19 31h1v1h-1zM20 31h1v1h-1z"/><path fill="#A7CCEC" d="M21 31h1v1h-1z"/><path fill="#96C1E7" d="M22 31h1v1h-1z"/><path fill="#92BFE6" d="M23 31h1v1h-1z"/><path fill="#7899B7" d="M24 31h1v1h-1z"/><path fill="#5D5C60" d="M25 31h1v1h-1z"/><path fill="#5B5758" d="M26 31h1v1h-1zM27 31h1v1h-1zM28 31h1v1h-1z"/><path fill="#ADACAC" d="M29 31h1v1h-1z"/><path fill="#DBDCDC" d="M30 31h1v1h-1zM31 31h1v1h-1z"/><path fill="#D7D8D7" d="M32 31h1v1h-1zM33 31h1v1h-1z"/><path fill="#D3D4D3" d="M34 31h1v1h-1zM35 31h1v1h-1zM36 31h1v1h-1zM37 31h1v1h-1z"/><path fill="#B1ADAE" d="M38 31h1v1h-1z"/><path fill="#9C9698" d="M39 31h1v1h-1zM40 31h1v1h-1z"/><path fill="#6B6768" d="M41 31h1v1h-1z"/><path fill="#5B5758" d="M42 31h1v1h-1zM43 31h1v1h-1z"/><path fill="#5F5B5C" d="M44 31h1v1h-1z"/><path fill="#8C8688" d="M45 31h1v1h-1z"/><path fill="#9C9698" d="M46 31h1v1h-1z"/><path fill="#A6A2A3" d="M47 31h1v1h-1zM48 31h1v1h-1z"/><path fill="#676364" d="M49 31h1v1h-1z"/><path fill="#5B5758" d="M50 31h1v1h-1zM51 31h1v1h-1z"/><path fill="#635F60" d="M52 31h1v1h-1z"/><path fill="#C5C4C4" d="M53 31h1v1h-1z"/><path fill="#D3D4D3" d="M54 31h1v1h-1zM55 31h1v1h-1zM56 31h1v1h-1zM57 31h1v1h-1zM58 31h1v1h-1zM59 31h1v1h-1zM60 31h1v1h-1zM61 31h1v1h-1z"/><path fill="#AEADAD" d="M62 31h1v1h-1z"/><path fill="#5B5758" d="M63 31h1v1h-1zM64 31h1v1h-1zM65 31h1v1h-1zM66 31h1v1h-1zM67 31h1v1h-1zM68 31h1v1h-1zM69 31h1v1h-1zM70 31h1v1h-1zM71 31h1v1h-1zM72 31h1v1h-1zM73 31h1v1h-1zM74 31h1v1h-1z"/><path fill="#736F70" d="M75 31h1v1h-1z"/><path fill="#989294" d="M76 31h1v1h-1z"/><path fill="#9C9698" d="M77 31h1v1h-1z"/><path fill="#B1ADAE" d="M78 31h1v1h-1z"/><path fill="#D0D0CF" d="M79 31h1v1h-1z"/><path fill="#D3D4D3" d="M80 31h1v1h-1zM81 31h1v1h-1zM82 31h1v1h-1zM83 31h1v1h-1z"/><path fill="#918E8C" d="M84 31h1v1h-1z"/><path fill="#231815" d="M85 31h1v1h-1zM86 31h1v1h-1zM87 31h1v1h-1zM88 31h1v1h-1zM9 32h1v1H9zM10 32h1v1h-1zM11 32h1v1h-1zM12 32h1v1h-1z"/><path fill="#3D3B3E" d="M13 32h1v1h-1z"/><path fill="#A5C5E0" d="M14 32h1v1h-1z"/><path fill="#AED0EE" d="M15 32h1v1h-1zM16 32h1v1h-1zM17 32h1v1h-1zM18 32h1v1h-1z"/><path fill="#A4CAEB" d="M19 32h1v1h-1z"/><path fill="#84B7E2" d="M20 32h1v1h-1z"/><path fill="#76AEDE" d="M21 32h1v1h-1zM22 32h1v1h-1zM23 32h1v1h-1zM24 32h1v1h-1z"/><path fill="#719EC5" d="M25 32h1v1h-1z"/><path fill="#5D5C60" d="M26 32h1v1h-1z"/><path fill="#5B5758" d="M27 32h1v1h-1zM28 32h1v1h-1zM29 32h1v1h-1z"/><path fill="#A6A5A5" d="M30 32h1v1h-1z"/><path fill="#D3D4D3" d="M31 32h1v1h-1zM32 32h1v1h-1zM33 32h1v1h-1zM34 32h1v1h-1zM35 32h1v1h-1z"/><path fill="#D0D0CF" d="M36 32h1v1h-1z"/><path fill="#AAA6A7" d="M37 32h1v1h-1z"/><path fill="#9C9698" d="M38 32h1v1h-1zM39 32h1v1h-1z"/><path fill="#807A7C" d="M40 32h1v1h-1z"/><path fill="#5B5758" d="M41 32h1v1h-1zM42 32h1v1h-1zM43 32h1v1h-1z"/><path fill="#847E80" d="M44 32h1v1h-1z"/><path fill="#9F9A9C" d="M45 32h1v1h-1z"/><path fill="#BEBDBD" d="M46 32h1v1h-1z"/><path fill="#D3D4D3" d="M47 32h1v1h-1zM48 32h1v1h-1z"/><path fill="#B6B5B5" d="M49 32h1v1h-1z"/><path fill="#5F5B5C" d="M50 32h1v1h-1z"/><path fill="#5B5758" d="M51 32h1v1h-1zM52 32h1v1h-1z"/><path fill="#979696" d="M53 32h1v1h-1z"/><path fill="#D3D4D3" d="M54 32h1v1h-1zM55 32h1v1h-1zM56 32h1v1h-1zM57 32h1v1h-1zM58 32h1v1h-1zM59 32h1v1h-1zM60 32h1v1h-1z"/><path fill="#BDBDBC" d="M61 32h1v1h-1z"/><path fill="#635F60" d="M62 32h1v1h-1z"/><path fill="#5B5758" d="M63 32h1v1h-1zM64 32h1v1h-1zM65 32h1v1h-1zM66 32h1v1h-1zM67 32h1v1h-1zM68 32h1v1h-1zM69 32h1v1h-1zM70 32h1v1h-1zM71 32h1v1h-1zM72 32h1v1h-1z"/><path fill="#736F70" d="M73 32h1v1h-1z"/><path fill="#948E90" d="M74 32h1v1h-1z"/><path fill="#9C9698" d="M75 32h1v1h-1z"/><path fill="#AAA6A7" d="M76 32h1v1h-1z"/><path fill="#C5C5C4" d="M77 32h1v1h-1z"/><path fill="#D3D4D3" d="M78 32h1v1h-1zM79 32h1v1h-1zM80 32h1v1h-1zM81 32h1v1h-1zM82 32h1v1h-1z"/><path fill="#B2B1AF" d="M83 32h1v1h-1z"/><path fill="#2E2421" d="M84 32h1v1h-1z"/><path fill="#231815" d="M85 32h1v1h-1zM86 32h1v1h-1zM87 32h1v1h-1zM8 33h1v1H8zM9 33h1v1H9zM10 33h1v1h-1zM11 33h1v1h-1z"/><path fill="#4E5259" d="M12 33h1v1h-1z"/><path fill="#A5C5E0" d="M13 33h1v1h-1z"/><path fill="#AED0EE" d="M14 33h1v1h-1zM15 33h1v1h-1zM16 33h1v1h-1zM17 33h1v1h-1z"/><path fill="#8FBDE5" d="M18 33h1v1h-1z"/><path fill="#76AEDE" d="M19 33h1v1h-1zM20 33h1v1h-1zM21 33h1v1h-1zM22 33h1v1h-1zM23 33h1v1h-1zM24 33h1v1h-1z"/><path fill="#72A9DA" d="M25 33h1v1h-1z"/><path fill="#5378A7" d="M26 33h1v1h-1z"/><path fill="#59585D" d="M27 33h1v1h-1z"/><path fill="#5B5758" d="M28 33h1v1h-1zM29 33h1v1h-1zM30 33h1v1h-1z"/><path fill="#A6A5A5" d="M31 33h1v1h-1z"/><path fill="#D3D4D3" d="M32 33h1v1h-1zM33 33h1v1h-1zM34 33h1v1h-1z"/><path fill="#BEBDBD" d="M35 33h1v1h-1z"/><path fill="#9F9A9C" d="M36 33h1v1h-1z"/><path fill="#9C9698" d="M37 33h1v1h-1zM38 33h1v1h-1z"/><path fill="#989294" d="M39 33h1v1h-1z"/><path fill="#5F5B5C" d="M40 33h1v1h-1z"/><path fill="#5B5758" d="M41 33h1v1h-1zM42 33h1v1h-1z"/><path fill="#777374" d="M43 33h1v1h-1z"/><path fill="#9C9698" d="M44 33h1v1h-1z"/><path fill="#C9C8C8" d="M45 33h1v1h-1z"/><path fill="#D3D4D3" d="M46 33h1v1h-1z"/><path fill="#DADBDA" d="M47 33h1v1h-1z"/><path fill="#D9DAD9" d="M48 33h1v1h-1z"/><path fill="#D3D4D3" d="M49 33h1v1h-1z"/><path fill="#918E8E" d="M50 33h1v1h-1z"/><path fill="#5B5758" d="M51 33h1v1h-1zM52 33h1v1h-1zM53 33h1v1h-1z"/><path fill="#C4C4C4" d="M54 33h1v1h-1z"/><path fill="#D3D4D3" d="M55 33h1v1h-1zM56 33h1v1h-1zM57 33h1v1h-1zM58 33h1v1h-1zM59 33h1v1h-1z"/><path fill="#AEADAD" d="M60 33h1v1h-1z"/><path fill="#635F60" d="M61 33h1v1h-1z"/><path fill="#5B5758" d="M62 33h1v1h-1zM63 33h1v1h-1zM64 33h1v1h-1zM65 33h1v1h-1zM66 33h1v1h-1zM67 33h1v1h-1zM68 33h1v1h-1zM69 33h1v1h-1zM70 33h1v1h-1z"/><path fill="#736F70" d="M71 33h1v1h-1z"/><path fill="#948E90" d="M72 33h1v1h-1z"/><path fill="#9C9698" d="M73 33h1v1h-1z"/><path fill="#AAA6A7" d="M74 33h1v1h-1z"/><path fill="#C5C5C4" d="M75 33h1v1h-1z"/><path fill="#D3D4D3" d="M76 33h1v1h-1zM77 33h1v1h-1zM78 33h1v1h-1zM79 33h1v1h-1zM80 33h1v1h-1zM81 33h1v1h-1z"/><path fill="#918E8C" d="M82 33h1v1h-1z"/><path fill="#231815" d="M83 33h1v1h-1zM84 33h1v1h-1zM85 33h1v1h-1zM86 33h1v1h-1zM87 33h1v1h-1zM7 34h1v1H7zM8 34h1v1H8zM9 34h1v1H9zM10 34h1v1h-1z"/><path fill="#46464B" d="M11 34h1v1h-1z"/><path fill="#AED0EE" d="M12 34h1v1h-1zM13 34h1v1h-1zM14 34h1v1h-1zM15 34h1v1h-1z"/><path fill="#A7CCEC" d="M16 34h1v1h-1z"/><path fill="#81B4E1" d="M17 34h1v1h-1z"/><path fill="#76AEDE" d="M18 34h1v1h-1zM19 34h1v1h-1zM20 34h1v1h-1zM21 34h1v1h-1zM22 34h1v1h-1zM23 34h1v1h-1z"/><path fill="#72A9DA" d="M24 34h1v1h-1z"/><path fill="#4671AE" d="M25 34h1v1h-1z"/><path fill="#3B63A3" d="M26 34h1v1h-1z"/><path fill="#416195" d="M27 34h1v1h-1z"/><path fill="#59585D" d="M28 34h1v1h-1z"/><path fill="#5B5758" d="M29 34h1v1h-1zM30 34h1v1h-1zM31 34h1v1h-1z"/><path fill="#A6A5A5" d="M32 34h1v1h-1z"/><path fill="#C5C5C4" d="M33 34h1v1h-1z"/><path fill="#AAA6A7" d="M34 34h1v1h-1z"/><path fill="#9C9698" d="M35 34h1v1h-1zM36 34h1v1h-1zM37 34h1v1h-1zM38 34h1v1h-1z"/><path fill="#847E80" d="M39 34h1v1h-1z"/><path fill="#5B5758" d="M40 34h1v1h-1zM41 34h1v1h-1z"/><path fill="#5F5B5C" d="M42 34h1v1h-1z"/><path fill="#989294" d="M43 34h1v1h-1z"/><path fill="#BBB9B9" d="M44 34h1v1h-1z"/><path fill="#D3D4D3" d="M45 34h1v1h-1zM46 34h1v1h-1z"/><path fill="#E2E3E3" d="M47 34h1v1h-1z"/><path fill="#E3E4E4" d="M48 34h1v1h-1z"/><path fill="#D5D6D5" d="M49 34h1v1h-1z"/><path fill="#CCC" d="M50 34h1v1h-1z"/><path fill="#676364" d="M51 34h1v1h-1z"/><path fill="#5B5758" d="M52 34h1v1h-1zM53 34h1v1h-1z"/><path fill="#979696" d="M54 34h1v1h-1z"/><path fill="#D3D4D3" d="M55 34h1v1h-1zM56 34h1v1h-1zM57 34h1v1h-1zM58 34h1v1h-1z"/><path fill="#9F9D9D" d="M59 34h1v1h-1z"/><path fill="#5B5758" d="M60 34h1v1h-1zM61 34h1v1h-1zM62 34h1v1h-1zM63 34h1v1h-1zM64 34h1v1h-1zM65 34h1v1h-1zM66 34h1v1h-1zM67 34h1v1h-1z"/><path fill="#676364" d="M68 34h1v1h-1z"/><path fill="#807A7C" d="M69 34h1v1h-1z"/><path fill="#989294" d="M70 34h1v1h-1z"/><path fill="#9C9698" d="M71 34h1v1h-1z"/><path fill="#B1ADAE" d="M72 34h1v1h-1z"/><path fill="#C5C5C4" d="M73 34h1v1h-1z"/><path fill="#D3D4D3" d="M74 34h1v1h-1zM75 34h1v1h-1zM76 34h1v1h-1zM77 34h1v1h-1zM78 34h1v1h-1zM79 34h1v1h-1z"/><path fill="#C8C8C7" d="M80 34h1v1h-1z"/><path fill="#706A68" d="M81 34h1v1h-1z"/><path fill="#231815" d="M82 34h1v1h-1zM83 34h1v1h-1zM84 34h1v1h-1zM85 34h1v1h-1zM86 34h1v1h-1zM6 35h1v1H6zM7 35h1v1H7zM8 35h1v1H8zM9 35h1v1H9z"/><path fill="#3D3B3E" d="M10 35h1v1h-1z"/><path fill="#A5C5E0" d="M11 35h1v1h-1z"/><path fill="#AED0EE" d="M12 35h1v1h-1zM13 35h1v1h-1zM14 35h1v1h-1z"/><path fill="#A4CAEB" d="M15 35h1v1h-1z"/><path fill="#7AB0DF" d="M16 35h1v1h-1z"/><path fill="#76AEDE" d="M17 35h1v1h-1zM18 35h1v1h-1zM19 35h1v1h-1zM20 35h1v1h-1zM21 35h1v1h-1zM22 35h1v1h-1zM23 35h1v1h-1z"/><path fill="#4A76B2" d="M24 35h1v1h-1z"/><path fill="#3B63A3" d="M25 35h1v1h-1zM26 35h1v1h-1zM27 35h1v1h-1z"/><path fill="#416195" d="M28 35h1v1h-1z"/><path fill="#59585D" d="M29 35h1v1h-1z"/><path fill="#5B5758" d="M30 35h1v1h-1zM31 35h1v1h-1zM32 35h1v1h-1z"/><path fill="#807A7C" d="M33 35h1v1h-1z"/><path fill="#9C9698" d="M34 35h1v1h-1zM35 35h1v1h-1zM36 35h1v1h-1zM37 35h1v1h-1zM38 35h1v1h-1z"/><path fill="#7C7778" d="M39 35h1v1h-1z"/><path fill="#5B5758" d="M40 35h1v1h-1zM41 35h1v1h-1z"/><path fill="#7C7778" d="M42 35h1v1h-1z"/><path fill="#AAA6A7" d="M43 35h1v1h-1z"/><path fill="#D3D4D3" d="M44 35h1v1h-1zM45 35h1v1h-1z"/><path fill="#DDDEDE" d="M46 35h1v1h-1z"/><path fill="#E3E4E4" d="M47 35h1v1h-1zM48 35h1v1h-1z"/><path fill="#DFE0E0" d="M49 35h1v1h-1z"/><path fill="#D3D4D3" d="M50 35h1v1h-1z"/><path fill="#9F9D9E" d="M51 35h1v1h-1z"/><path fill="#5B5758" d="M52 35h1v1h-1zM53 35h1v1h-1z"/><path fill="#635F60" d="M54 35h1v1h-1z"/><path fill="#D3D4D3" d="M55 35h1v1h-1zM56 35h1v1h-1z"/><path fill="#C4C4C4" d="M57 35h1v1h-1z"/><path fill="#797677" d="M58 35h1v1h-1z"/><path fill="#5B5758" d="M59 35h1v1h-1zM60 35h1v1h-1zM61 35h1v1h-1zM62 35h1v1h-1zM63 35h1v1h-1zM64 35h1v1h-1z"/><path fill="#6B6768" d="M65 35h1v1h-1z"/><path fill="#807A7C" d="M66 35h1v1h-1z"/><path fill="#908A8C" d="M67 35h1v1h-1z"/><path fill="#9C9698" d="M68 35h1v1h-1z"/><path fill="#A39E9F" d="M69 35h1v1h-1z"/><path fill="#BBB9B9" d="M70 35h1v1h-1z"/><path fill="#CCC" d="M71 35h1v1h-1z"/><path fill="#D3D4D3" d="M72 35h1v1h-1zM73 35h1v1h-1zM74 35h1v1h-1zM75 35h1v1h-1zM76 35h1v1h-1zM77 35h1v1h-1zM78 35h1v1h-1z"/><path fill="#A7A5A4" d="M79 35h1v1h-1z"/><path fill="#39302D" d="M80 35h1v1h-1z"/><path fill="#231815" d="M81 35h1v1h-1zM82 35h1v1h-1zM83 35h1v1h-1zM84 35h1v1h-1zM85 35h1v1h-1zM6 36h1v1H6zM7 36h1v1H7zM8 36h1v1H8z"/><path fill="#2C2423" d="M9 36h1v1H9z"/><path fill="#9DB9D3" d="M10 36h1v1h-1z"/><path fill="#AED0EE" d="M11 36h1v1h-1zM12 36h1v1h-1zM13 36h1v1h-1z"/><path fill="#A4CAEB" d="M14 36h1v1h-1z"/><path fill="#7AB0DF" d="M15 36h1v1h-1z"/><path fill="#76AEDE" d="M16 36h1v1h-1zM17 36h1v1h-1zM18 36h1v1h-1zM19 36h1v1h-1zM20 36h1v1h-1zM21 36h1v1h-1zM22 36h1v1h-1zM23 36h1v1h-1z"/><path fill="#3B63A3" d="M24 36h1v1h-1zM25 36h1v1h-1zM26 36h1v1h-1zM27 36h1v1h-1zM28 36h1v1h-1z"/><path fill="#416195" d="M29 36h1v1h-1z"/><path fill="#59585D" d="M30 36h1v1h-1z"/><path fill="#5B5758" d="M31 36h1v1h-1zM32 36h1v1h-1zM33 36h1v1h-1z"/><path fill="#6B6768" d="M34 36h1v1h-1z"/><path fill="#948E90" d="M35 36h1v1h-1z"/><path fill="#9C9698" d="M36 36h1v1h-1zM37 36h1v1h-1zM38 36h1v1h-1z"/><path fill="#908A8C" d="M39 36h1v1h-1z"/><path fill="#635F60" d="M40 36h1v1h-1z"/><path fill="#6B6768" d="M41 36h1v1h-1z"/><path fill="#9B9698" d="M42 36h1v1h-1z"/><path fill="#CCC" d="M43 36h1v1h-1z"/><path fill="#D4D5D4" d="M44 36h1v1h-1z"/><path fill="#DEDFDF" d="M45 36h1v1h-1z"/><path fill="#E3E4E4" d="M46 36h1v1h-1zM47 36h1v1h-1zM48 36h1v1h-1zM49 36h1v1h-1z"/><path fill="#D6D7D6" d="M50 36h1v1h-1z"/><path fill="#D0D0CF" d="M51 36h1v1h-1z"/><path fill="#635F60" d="M52 36h1v1h-1z"/><path fill="#5B5758" d="M53 36h1v1h-1zM54 36h1v1h-1z"/><path fill="#A7A5A5" d="M55 36h1v1h-1z"/><path fill="#A4A1A2" d="M56 36h1v1h-1z"/><path fill="#6B6768" d="M57 36h1v1h-1zM58 36h1v1h-1zM59 36h1v1h-1z"/><path fill="#6F6B6C" d="M60 36h1v1h-1z"/><path fill="#7C7778" d="M61 36h1v1h-1z"/><path fill="#807A7C" d="M62 36h1v1h-1z"/><path fill="#8C8688" d="M63 36h1v1h-1z"/><path fill="#9C9698" d="M64 36h1v1h-1zM65 36h1v1h-1z"/><path fill="#A6A2A3" d="M66 36h1v1h-1z"/><path fill="#B8B5B6" d="M67 36h1v1h-1z"/><path fill="#C9C8C8" d="M68 36h1v1h-1z"/><path fill="#D3D4D3" d="M69 36h1v1h-1zM70 36h1v1h-1zM71 36h1v1h-1zM72 36h1v1h-1zM73 36h1v1h-1zM74 36h1v1h-1zM75 36h1v1h-1zM76 36h1v1h-1z"/><path fill="#A7A5A4" d="M77 36h1v1h-1z"/><path fill="#4F4745" d="M78 36h1v1h-1z"/><path fill="#231815" d="M79 36h1v1h-1zM80 36h1v1h-1zM81 36h1v1h-1zM82 36h1v1h-1zM83 36h1v1h-1zM84 36h1v1h-1zM5 37h1v1H5zM6 37h1v1H6zM7 37h1v1H7zM8 37h1v1H8z"/><path fill="#71808F" d="M9 37h1v1H9z"/><path fill="#AED0EE" d="M10 37h1v1h-1zM11 37h1v1h-1zM12 37h1v1h-1z"/><path fill="#ABCEED" d="M13 37h1v1h-1z"/><path fill="#7AB0DF" d="M14 37h1v1h-1z"/><path fill="#76AEDE" d="M15 37h1v1h-1zM16 37h1v1h-1zM17 37h1v1h-1zM18 37h1v1h-1zM19 37h1v1h-1zM20 37h1v1h-1zM21 37h1v1h-1zM22 37h1v1h-1zM23 37h1v1h-1z"/><path fill="#3B63A3" d="M24 37h1v1h-1zM25 37h1v1h-1zM26 37h1v1h-1zM27 37h1v1h-1zM28 37h1v1h-1zM29 37h1v1h-1z"/><path fill="#3F629A" d="M30 37h1v1h-1z"/><path fill="#555966" d="M31 37h1v1h-1z"/><path fill="#5B5758" d="M32 37h1v1h-1zM33 37h1v1h-1zM34 37h1v1h-1zM35 37h1v1h-1z"/><path fill="#7C7778" d="M36 37h1v1h-1z"/><path fill="#989294" d="M37 37h1v1h-1z"/><path fill="#9C9698" d="M38 37h1v1h-1zM39 37h1v1h-1zM40 37h1v1h-1zM41 37h1v1h-1z"/><path fill="#BEBDBD" d="M42 37h1v1h-1z"/><path fill="#D4D5D4" d="M43 37h1v1h-1z"/><path fill="#E0E1E1" d="M44 37h1v1h-1z"/><path fill="#E3E4E4" d="M45 37h1v1h-1zM46 37h1v1h-1zM47 37h1v1h-1zM48 37h1v1h-1zM49 37h1v1h-1z"/><path fill="#DBDCDC" d="M50 37h1v1h-1z"/><path fill="#D3D4D3" d="M51 37h1v1h-1z"/><path fill="#888686" d="M52 37h1v1h-1z"/><path fill="#5B5758" d="M53 37h1v1h-1zM54 37h1v1h-1z"/><path fill="#736F70" d="M55 37h1v1h-1z"/><path fill="#9C9698" d="M56 37h1v1h-1zM57 37h1v1h-1zM58 37h1v1h-1zM59 37h1v1h-1zM60 37h1v1h-1zM61 37h1v1h-1z"/><path fill="#A6A2A3" d="M62 37h1v1h-1z"/><path fill="#B4B1B2" d="M63 37h1v1h-1z"/><path fill="#BEBDBD" d="M64 37h1v1h-1z"/><path fill="#D0D0CF" d="M65 37h1v1h-1z"/><path fill="#D3D4D3" d="M66 37h1v1h-1zM67 37h1v1h-1zM68 37h1v1h-1zM69 37h1v1h-1zM70 37h1v1h-1zM71 37h1v1h-1zM72 37h1v1h-1zM73 37h1v1h-1zM74 37h1v1h-1z"/><path fill="#9C9998" d="M75 37h1v1h-1z"/><path fill="#4F4745" d="M76 37h1v1h-1z"/><path fill="#231815" d="M77 37h1v1h-1zM78 37h1v1h-1zM79 37h1v1h-1zM80 37h1v1h-1zM81 37h1v1h-1zM82 37h1v1h-1zM5 38h1v1H5zM6 38h1v1H6zM7 38h1v1H7z"/><path fill="#342F30" d="M8 38h1v1H8z"/><path fill="#AED0EE" d="M9 38h1v1H9zM10 38h1v1h-1zM11 38h1v1h-1zM12 38h1v1h-1z"/><path fill="#84B7E2" d="M13 38h1v1h-1z"/><path fill="#76AEDE" d="M14 38h1v1h-1zM15 38h1v1h-1zM16 38h1v1h-1zM17 38h1v1h-1zM18 38h1v1h-1zM19 38h1v1h-1zM20 38h1v1h-1zM21 38h1v1h-1z"/><path fill="#6FA5D7" d="M22 38h1v1h-1z"/><path fill="#5989C1" d="M23 38h1v1h-1z"/><path fill="#3F68A7" d="M24 38h1v1h-1z"/><path fill="#3B63A3" d="M25 38h1v1h-1zM26 38h1v1h-1zM27 38h1v1h-1zM28 38h1v1h-1zM29 38h1v1h-1zM30 38h1v1h-1z"/><path fill="#3D629E" d="M31 38h1v1h-1z"/><path fill="#4D5C79" d="M32 38h1v1h-1z"/><path fill="#5B5758" d="M33 38h1v1h-1zM34 38h1v1h-1zM35 38h1v1h-1zM36 38h1v1h-1z"/><path fill="#5F5B5C" d="M37 38h1v1h-1z"/><path fill="#7C7778" d="M38 38h1v1h-1z"/><path fill="#989294" d="M39 38h1v1h-1z"/><path fill="#9C9698" d="M40 38h1v1h-1z"/><path fill="#B1ADAE" d="M41 38h1v1h-1z"/><path fill="#D3D4D3" d="M42 38h1v1h-1z"/><path fill="#DDDEDE" d="M43 38h1v1h-1z"/><path fill="#E3E4E4" d="M44 38h1v1h-1zM45 38h1v1h-1zM46 38h1v1h-1zM47 38h1v1h-1zM48 38h1v1h-1zM49 38h1v1h-1z"/><path fill="#DFE0E0" d="M50 38h1v1h-1z"/><path fill="#D3D4D3" d="M51 38h1v1h-1z"/><path fill="#AEADAD" d="M52 38h1v1h-1z"/><path fill="#5B5758" d="M53 38h1v1h-1zM54 38h1v1h-1z"/><path fill="#635F60" d="M55 38h1v1h-1z"/><path fill="#AAA6A7" d="M56 38h1v1h-1z"/><path fill="#ADA9AA" d="M57 38h1v1h-1z"/><path fill="#B8B5B6" d="M58 38h1v1h-1z"/><path fill="#BEBDBD" d="M59 38h1v1h-1z"/><path fill="#C5C5C4" d="M60 38h1v1h-1z"/><path fill="#D3D4D3" d="M61 38h1v1h-1zM62 38h1v1h-1zM63 38h1v1h-1zM64 38h1v1h-1zM65 38h1v1h-1zM66 38h1v1h-1zM67 38h1v1h-1zM68 38h1v1h-1zM69 38h1v1h-1zM70 38h1v1h-1zM71 38h1v1h-1z"/><path fill="#BDBDBB" d="M72 38h1v1h-1z"/><path fill="#7B7674" d="M73 38h1v1h-1z"/><path fill="#39302D" d="M74 38h1v1h-1z"/><path fill="#231815" d="M75 38h1v1h-1zM76 38h1v1h-1zM77 38h1v1h-1zM78 38h1v1h-1zM79 38h1v1h-1zM80 38h1v1h-1zM81 38h1v1h-1zM5 39h1v1H5zM6 39h1v1H6zM7 39h1v1H7z"/><path fill="#7A8B9D" d="M8 39h1v1H8z"/><path fill="#AED0EE" d="M9 39h1v1H9zM10 39h1v1h-1zM11 39h1v1h-1z"/><path fill="#9DC5E9" d="M12 39h1v1h-1z"/><path fill="#76AEDE" d="M13 39h1v1h-1zM14 39h1v1h-1zM15 39h1v1h-1zM16 39h1v1h-1zM17 39h1v1h-1zM18 39h1v1h-1zM19 39h1v1h-1z"/><path fill="#679BCF" d="M20 39h1v1h-1z"/><path fill="#4D7AB5" d="M21 39h1v1h-1z"/><path fill="#3B63A3" d="M22 39h1v1h-1zM23 39h1v1h-1zM24 39h1v1h-1zM25 39h1v1h-1zM26 39h1v1h-1zM27 39h1v1h-1zM28 39h1v1h-1zM29 39h1v1h-1z"/><path fill="#4269A7" d="M30 39h1v1h-1z"/><path fill="#486FAA" d="M31 39h1v1h-1zM32 39h1v1h-1z"/><path fill="#466392" d="M33 39h1v1h-1z"/><path fill="#555966" d="M34 39h1v1h-1z"/><path fill="#5B5758" d="M35 39h1v1h-1zM36 39h1v1h-1zM37 39h1v1h-1zM38 39h1v1h-1z"/><path fill="#5F5B5C" d="M39 39h1v1h-1z"/><path fill="#827E7F" d="M40 39h1v1h-1z"/><path fill="#CCCCCB" d="M41 39h1v1h-1z"/><path fill="#D3D4D3" d="M42 39h1v1h-1z"/><path fill="#D8D9D8" d="M43 39h1v1h-1z"/><path fill="#E3E4E4" d="M44 39h1v1h-1zM45 39h1v1h-1zM46 39h1v1h-1zM47 39h1v1h-1zM48 39h1v1h-1zM49 39h1v1h-1z"/><path fill="#DFE0E0" d="M50 39h1v1h-1z"/><path fill="#D3D4D3" d="M51 39h1v1h-1zM52 39h1v1h-1z"/><path fill="#5B5758" d="M53 39h1v1h-1zM54 39h1v1h-1zM55 39h1v1h-1z"/><path fill="#C4C4C4" d="M56 39h1v1h-1z"/><path fill="#D3D4D3" d="M57 39h1v1h-1zM58 39h1v1h-1zM59 39h1v1h-1zM60 39h1v1h-1zM61 39h1v1h-1zM62 39h1v1h-1zM63 39h1v1h-1zM64 39h1v1h-1zM65 39h1v1h-1zM66 39h1v1h-1zM67 39h1v1h-1zM68 39h1v1h-1z"/><path fill="#B2B1AF" d="M69 39h1v1h-1z"/><path fill="#868280" d="M70 39h1v1h-1z"/><path fill="#443B39" d="M71 39h1v1h-1z"/><path fill="#231815" d="M72 39h1v1h-1zM73 39h1v1h-1zM74 39h1v1h-1zM75 39h1v1h-1zM76 39h1v1h-1zM77 39h1v1h-1zM78 39h1v1h-1zM79 39h1v1h-1zM5 40h1v1H5zM6 40h1v1H6zM7 40h1v1H7z"/><path fill="#A5C5E0" d="M8 40h1v1H8z"/><path fill="#AED0EE" d="M9 40h1v1H9zM10 40h1v1h-1zM11 40h1v1h-1z"/><path fill="#81B4E1" d="M12 40h1v1h-1z"/><path fill="#76AEDE" d="M13 40h1v1h-1zM14 40h1v1h-1zM15 40h1v1h-1zM16 40h1v1h-1zM17 40h1v1h-1z"/><path fill="#6BA0D3" d="M18 40h1v1h-1z"/><path fill="#4A76B2" d="M19 40h1v1h-1z"/><path fill="#3B63A3" d="M20 40h1v1h-1zM21 40h1v1h-1zM22 40h1v1h-1zM23 40h1v1h-1zM24 40h1v1h-1zM25 40h1v1h-1z"/><path fill="#4C72AC" d="M26 40h1v1h-1z"/><path fill="#597FB3" d="M27 40h1v1h-1z"/><path fill="#668BBB" d="M28 40h1v1h-1z"/><path fill="#7094C0" d="M29 40h1v1h-1zM30 40h1v1h-1zM31 40h1v1h-1zM32 40h1v1h-1zM33 40h1v1h-1zM34 40h1v1h-1z"/><path fill="#687D99" d="M35 40h1v1h-1z"/><path fill="#5E5F65" d="M36 40h1v1h-1z"/><path fill="#5B5758" d="M37 40h1v1h-1zM38 40h1v1h-1zM39 40h1v1h-1zM40 40h1v1h-1z"/><path fill="#635F60" d="M41 40h1v1h-1z"/><path fill="#979696" d="M42 40h1v1h-1z"/><path fill="#CCCCCB" d="M43 40h1v1h-1z"/><path fill="#D5D6D5" d="M44 40h1v1h-1z"/><path fill="#DADBDA" d="M45 40h1v1h-1z"/><path fill="#E0E1E1" d="M46 40h1v1h-1z"/><path fill="#E3E4E4" d="M47 40h1v1h-1zM48 40h1v1h-1zM49 40h1v1h-1z"/><path fill="#DEDFDF" d="M50 40h1v1h-1z"/><path fill="#D3D4D3" d="M51 40h1v1h-1zM52 40h1v1h-1z"/><path fill="#797677" d="M53 40h1v1h-1z"/><path fill="#5B5758" d="M54 40h1v1h-1zM55 40h1v1h-1z"/><path fill="#AEADAD" d="M56 40h1v1h-1z"/><path fill="#D3D4D3" d="M57 40h1v1h-1zM58 40h1v1h-1zM59 40h1v1h-1zM60 40h1v1h-1zM61 40h1v1h-1zM62 40h1v1h-1zM63 40h1v1h-1zM64 40h1v1h-1z"/><path fill="#BDBDBB" d="M65 40h1v1h-1z"/><path fill="#918E8C" d="M66 40h1v1h-1z"/><path fill="#655F5C" d="M67 40h1v1h-1z"/><path fill="#39302D" d="M68 40h1v1h-1z"/><path fill="#231815" d="M69 40h1v1h-1zM70 40h1v1h-1zM71 40h1v1h-1zM72 40h1v1h-1zM73 40h1v1h-1zM74 40h1v1h-1zM75 40h1v1h-1zM76 40h1v1h-1zM77 40h1v1h-1zM4 41h1v1H4zM5 41h1v1H5zM6 41h1v1H6z"/><path fill="#3D3B3E" d="M7 41h1v1H7z"/><path fill="#AED0EE" d="M8 41h1v1H8zM9 41h1v1H9zM10 41h1v1h-1z"/><path fill="#ABCEED" d="M11 41h1v1h-1z"/><path fill="#76AEDE" d="M12 41h1v1h-1zM13 41h1v1h-1zM14 41h1v1h-1zM15 41h1v1h-1z"/><path fill="#72A9DA" d="M16 41h1v1h-1z"/><path fill="#517FB9" d="M17 41h1v1h-1z"/><path fill="#3B63A3" d="M18 41h1v1h-1zM19 41h1v1h-1zM20 41h1v1h-1zM21 41h1v1h-1zM22 41h1v1h-1z"/><path fill="#456CA8" d="M23 41h1v1h-1z"/><path fill="#5C82B5" d="M24 41h1v1h-1z"/><path fill="#6D91BE" d="M25 41h1v1h-1z"/><path fill="#7094C0" d="M26 41h1v1h-1zM27 41h1v1h-1zM28 41h1v1h-1zM29 41h1v1h-1zM30 41h1v1h-1zM31 41h1v1h-1zM32 41h1v1h-1zM33 41h1v1h-1zM34 41h1v1h-1zM35 41h1v1h-1zM36 41h1v1h-1z"/><path fill="#677993" d="M37 41h1v1h-1z"/><path fill="#5C5B5F" d="M38 41h1v1h-1z"/><path fill="#5B5758" d="M39 41h1v1h-1zM40 41h1v1h-1zM41 41h1v1h-1zM42 41h1v1h-1z"/><path fill="#635F60" d="M43 41h1v1h-1z"/><path fill="#979696" d="M44 41h1v1h-1z"/><path fill="#CCCCCB" d="M45 41h1v1h-1z"/><path fill="#D3D4D3" d="M46 41h1v1h-1z"/><path fill="#D5D6D5" d="M47 41h1v1h-1z"/><path fill="#DBDCDC" d="M48 41h1v1h-1z"/><path fill="#E3E4E4" d="M49 41h1v1h-1z"/><path fill="#D8D9D8" d="M50 41h1v1h-1z"/><path fill="#D3D4D3" d="M51 41h1v1h-1zM52 41h1v1h-1z"/><path fill="#908E8E" d="M53 41h1v1h-1z"/><path fill="#5B5758" d="M54 41h1v1h-1zM55 41h1v1h-1z"/><path fill="#979696" d="M56 41h1v1h-1z"/><path fill="#D3D4D3" d="M57 41h1v1h-1zM58 41h1v1h-1zM59 41h1v1h-1z"/><path fill="#C8C8C7" d="M60 41h1v1h-1z"/><path fill="#A7A5A4" d="M61 41h1v1h-1z"/><path fill="#868280" d="M62 41h1v1h-1z"/><path fill="#5A5350" d="M63 41h1v1h-1z"/><path fill="#39302D" d="M64 41h1v1h-1z"/><path fill="#231815" d="M65 41h1v1h-1zM66 41h1v1h-1zM67 41h1v1h-1zM68 41h1v1h-1zM69 41h1v1h-1zM70 41h1v1h-1zM71 41h1v1h-1zM72 41h1v1h-1zM73 41h1v1h-1zM74 41h1v1h-1zM75 41h1v1h-1zM4 42h1v1H4zM5 42h1v1H5zM6 42h1v1H6z"/><path fill="#46464B" d="M7 42h1v1H7z"/><path fill="#AED0EE" d="M8 42h1v1H8zM9 42h1v1H9zM10 42h1v1h-1z"/><path fill="#A0C8EA" d="M11 42h1v1h-1z"/><path fill="#76AEDE" d="M12 42h1v1h-1zM13 42h1v1h-1zM14 42h1v1h-1z"/><path fill="#6092C8" d="M15 42h1v1h-1z"/><path fill="#3F68A7" d="M16 42h1v1h-1z"/><path fill="#3B63A3" d="M17 42h1v1h-1zM18 42h1v1h-1zM19 42h1v1h-1zM20 42h1v1h-1z"/><path fill="#486FAA" d="M21 42h1v1h-1z"/><path fill="#6388B9" d="M22 42h1v1h-1z"/><path fill="#7094C0" d="M23 42h1v1h-1zM24 42h1v1h-1zM25 42h1v1h-1zM26 42h1v1h-1zM27 42h1v1h-1zM28 42h1v1h-1zM29 42h1v1h-1zM30 42h1v1h-1zM31 42h1v1h-1zM32 42h1v1h-1zM33 42h1v1h-1zM34 42h1v1h-1zM35 42h1v1h-1zM36 42h1v1h-1zM37 42h1v1h-1z"/><path fill="#6F90BA" d="M38 42h1v1h-1z"/><path fill="#66768C" d="M39 42h1v1h-1z"/><path fill="#5C5B5F" d="M40 42h1v1h-1z"/><path fill="#5B5758" d="M41 42h1v1h-1zM42 42h1v1h-1zM43 42h1v1h-1zM44 42h1v1h-1z"/><path fill="#635F60" d="M45 42h1v1h-1z"/><path fill="#9F9D9D" d="M46 42h1v1h-1z"/><path fill="#D3D4D3" d="M47 42h1v1h-1zM48 42h1v1h-1zM49 42h1v1h-1zM50 42h1v1h-1zM51 42h1v1h-1zM52 42h1v1h-1z"/><path fill="#9F9D9D" d="M53 42h1v1h-1z"/><path fill="#5B5758" d="M54 42h1v1h-1zM55 42h1v1h-1z"/><path fill="#6B6767" d="M56 42h1v1h-1z"/><path fill="#706A68" d="M57 42h1v1h-1z"/><path fill="#4F4745" d="M58 42h1v1h-1z"/><path fill="#39302D" d="M59 42h1v1h-1z"/><path fill="#231815" d="M60 42h1v1h-1zM61 42h1v1h-1zM62 42h1v1h-1zM63 42h1v1h-1zM64 42h1v1h-1zM65 42h1v1h-1zM66 42h1v1h-1zM67 42h1v1h-1zM68 42h1v1h-1zM69 42h1v1h-1zM70 42h1v1h-1zM71 42h1v1h-1zM72 42h1v1h-1zM4 43h1v1H4zM5 43h1v1H5zM6 43h1v1H6zM7 43h1v1H7z"/><path fill="#AED0EE" d="M8 43h1v1H8zM9 43h1v1H9zM10 43h1v1h-1z"/><path fill="#A0C8EA" d="M11 43h1v1h-1z"/><path fill="#76AEDE" d="M12 43h1v1h-1z"/><path fill="#72A9DA" d="M13 43h1v1h-1z"/><path fill="#4A76B2" d="M14 43h1v1h-1z"/><path fill="#3B63A3" d="M15 43h1v1h-1zM16 43h1v1h-1zM17 43h1v1h-1zM18 43h1v1h-1z"/><path fill="#486FAA" d="M19 43h1v1h-1z"/><path fill="#6388B9" d="M20 43h1v1h-1z"/><path fill="#7094C0" d="M21 43h1v1h-1zM22 43h1v1h-1zM23 43h1v1h-1zM24 43h1v1h-1zM25 43h1v1h-1zM26 43h1v1h-1zM27 43h1v1h-1zM28 43h1v1h-1zM29 43h1v1h-1zM30 43h1v1h-1zM31 43h1v1h-1zM32 43h1v1h-1zM33 43h1v1h-1zM34 43h1v1h-1zM35 43h1v1h-1zM36 43h1v1h-1zM37 43h1v1h-1zM38 43h1v1h-1zM39 43h1v1h-1z"/><path fill="#6F90BA" d="M40 43h1v1h-1z"/><path fill="#66768C" d="M41 43h1v1h-1z"/><path fill="#5C5B5F" d="M42 43h1v1h-1z"/><path fill="#5B5758" d="M43 43h1v1h-1zM44 43h1v1h-1zM45 43h1v1h-1zM46 43h1v1h-1z"/><path fill="#726E6F" d="M47 43h1v1h-1z"/><path fill="#B5B5B4" d="M48 43h1v1h-1z"/><path fill="#D3D4D3" d="M49 43h1v1h-1zM50 43h1v1h-1zM51 43h1v1h-1zM52 43h1v1h-1z"/><path fill="#B5B5B4" d="M53 43h1v1h-1z"/><path fill="#5B5758" d="M54 43h1v1h-1zM55 43h1v1h-1z"/><path fill="#4D4747" d="M56 43h1v1h-1z"/><path fill="#231815" d="M57 43h1v1h-1zM58 43h1v1h-1zM59 43h1v1h-1zM60 43h1v1h-1zM61 43h1v1h-1zM62 43h1v1h-1zM63 43h1v1h-1zM64 43h1v1h-1zM65 43h1v1h-1zM66 43h1v1h-1zM67 43h1v1h-1zM68 43h1v1h-1zM5 44h1v1H5zM6 44h1v1H6zM7 44h1v1H7z"/><path fill="#8397AA" d="M8 44h1v1H8z"/><path fill="#AED0EE" d="M9 44h1v1H9zM10 44h1v1h-1zM11 44h1v1h-1z"/><path fill="#6799CD" d="M12 44h1v1h-1z"/><path fill="#3F68A7" d="M13 44h1v1h-1z"/><path fill="#3B63A3" d="M14 44h1v1h-1zM15 44h1v1h-1zM16 44h1v1h-1z"/><path fill="#3E66A5" d="M17 44h1v1h-1z"/><path fill="#5C82B5" d="M18 44h1v1h-1z"/><path fill="#7094C0" d="M19 44h1v1h-1zM20 44h1v1h-1zM21 44h1v1h-1zM22 44h1v1h-1zM23 44h1v1h-1zM24 44h1v1h-1zM25 44h1v1h-1zM26 44h1v1h-1zM27 44h1v1h-1zM28 44h1v1h-1zM29 44h1v1h-1zM30 44h1v1h-1zM31 44h1v1h-1zM32 44h1v1h-1zM33 44h1v1h-1zM34 44h1v1h-1zM35 44h1v1h-1zM36 44h1v1h-1zM37 44h1v1h-1zM38 44h1v1h-1zM39 44h1v1h-1zM40 44h1v1h-1zM41 44h1v1h-1z"/><path fill="#6F90BA" d="M42 44h1v1h-1z"/><path fill="#66768C" d="M43 44h1v1h-1z"/><path fill="#5C5B5F" d="M44 44h1v1h-1z"/><path fill="#5B5758" d="M45 44h1v1h-1zM46 44h1v1h-1zM47 44h1v1h-1zM48 44h1v1h-1z"/><path fill="#908E8E" d="M49 44h1v1h-1z"/><path fill="#D3D4D3" d="M50 44h1v1h-1zM51 44h1v1h-1zM52 44h1v1h-1z"/><path fill="#B5B5B4" d="M53 44h1v1h-1z"/><path fill="#5B5758" d="M54 44h1v1h-1zM55 44h1v1h-1z"/><path fill="#4D4747" d="M56 44h1v1h-1z"/><path fill="#231815" d="M57 44h1v1h-1zM58 44h1v1h-1zM59 44h1v1h-1zM60 44h1v1h-1zM61 44h1v1h-1zM62 44h1v1h-1zM63 44h1v1h-1zM64 44h1v1h-1zM5 45h1v1H5zM6 45h1v1H6zM7 45h1v1H7z"/><path fill="#342F30" d="M8 45h1v1H8z"/><path fill="#AED0EE" d="M9 45h1v1H9zM10 45h1v1h-1z"/><path fill="#6F87A5" d="M11 45h1v1h-1z"/><path fill="#3A5E9A" d="M12 45h1v1h-1z"/><path fill="#3B63A3" d="M13 45h1v1h-1zM14 45h1v1h-1zM15 45h1v1h-1z"/><path fill="#4C72AC" d="M16 45h1v1h-1z"/><path fill="#6E96C4" d="M17 45h1v1h-1z"/><path fill="#729BC8" d="M18 45h1v1h-1zM19 45h1v1h-1z"/><path fill="#73A1CF" d="M20 45h1v1h-1z"/><path fill="#729ECB" d="M21 45h1v1h-1z"/><path fill="#729BC8" d="M22 45h1v1h-1z"/><path fill="#7199C6" d="M23 45h1v1h-1z"/><path fill="#7094C0" d="M24 45h1v1h-1zM25 45h1v1h-1zM26 45h1v1h-1zM27 45h1v1h-1zM28 45h1v1h-1zM29 45h1v1h-1zM30 45h1v1h-1zM31 45h1v1h-1zM32 45h1v1h-1zM33 45h1v1h-1zM34 45h1v1h-1zM35 45h1v1h-1zM36 45h1v1h-1zM37 45h1v1h-1zM38 45h1v1h-1zM39 45h1v1h-1zM40 45h1v1h-1zM41 45h1v1h-1zM42 45h1v1h-1zM43 45h1v1h-1z"/><path fill="#6F90BA" d="M44 45h1v1h-1z"/><path fill="#636E7F" d="M45 45h1v1h-1z"/><path fill="#5B5758" d="M46 45h1v1h-1zM47 45h1v1h-1zM48 45h1v1h-1zM49 45h1v1h-1z"/><path fill="#726E6F" d="M50 45h1v1h-1z"/><path fill="#C4C4C4" d="M51 45h1v1h-1z"/><path fill="#D3D4D3" d="M52 45h1v1h-1z"/><path fill="#CCCCCB" d="M53 45h1v1h-1z"/><path fill="#5B5758" d="M54 45h1v1h-1zM55 45h1v1h-1zM56 45h1v1h-1z"/><path fill="#231815" d="M57 45h1v1h-1zM58 45h1v1h-1zM59 45h1v1h-1zM5 46h1v1H5zM6 46h1v1H6zM7 46h1v1H7zM8 46h1v1H8z"/><path fill="#575D66" d="M9 46h1v1H9z"/><path fill="#46464B" d="M10 46h1v1h-1z"/><path fill="#231815" d="M11 46h1v1h-1z"/><path fill="#251D1E" d="M12 46h1v1h-1z"/><path fill="#3A5E9A" d="M13 46h1v1h-1z"/><path fill="#3F68A7" d="M14 46h1v1h-1z"/><path fill="#6395CA" d="M15 46h1v1h-1z"/><path fill="#76AEDE" d="M16 46h1v1h-1zM17 46h1v1h-1zM18 46h1v1h-1zM19 46h1v1h-1zM20 46h1v1h-1zM21 46h1v1h-1zM22 46h1v1h-1zM23 46h1v1h-1zM24 46h1v1h-1z"/><path fill="#75A8D7" d="M25 46h1v1h-1z"/><path fill="#73A1CF" d="M26 46h1v1h-1z"/><path fill="#7199C6" d="M27 46h1v1h-1z"/><path fill="#7094C0" d="M28 46h1v1h-1zM29 46h1v1h-1zM30 46h1v1h-1zM31 46h1v1h-1zM32 46h1v1h-1zM33 46h1v1h-1zM34 46h1v1h-1zM35 46h1v1h-1zM36 46h1v1h-1zM37 46h1v1h-1zM38 46h1v1h-1zM39 46h1v1h-1zM40 46h1v1h-1zM41 46h1v1h-1zM42 46h1v1h-1zM43 46h1v1h-1zM44 46h1v1h-1zM45 46h1v1h-1z"/><path fill="#6C89AD" d="M46 46h1v1h-1z"/><path fill="#5F626C" d="M47 46h1v1h-1z"/><path fill="#5B5758" d="M48 46h1v1h-1zM49 46h1v1h-1zM50 46h1v1h-1z"/><path fill="#635F60" d="M51 46h1v1h-1z"/><path fill="#BDBDBC" d="M52 46h1v1h-1z"/><path fill="#D3D4D3" d="M53 46h1v1h-1z"/><path fill="#5B5758" d="M54 46h1v1h-1zM55 46h1v1h-1zM56 46h1v1h-1z"/><path fill="#231815" d="M57 46h1v1h-1zM6 47h1v1H6zM7 47h1v1H7zM8 47h1v1H8zM9 47h1v1H9zM10 47h1v1h-1zM11 47h1v1h-1zM12 47h1v1h-1z"/><path fill="#426393" d="M13 47h1v1h-1z"/><path fill="#6FA5D7" d="M14 47h1v1h-1z"/><path fill="#7DB2E0" d="M15 47h1v1h-1z"/><path fill="#88B9E3" d="M16 47h1v1h-1z"/><path fill="#92BFE6" d="M17 47h1v1h-1z"/><path fill="#9DC5E9" d="M18 47h1v1h-1z"/><path fill="#A0C8EA" d="M19 47h1v1h-1zM20 47h1v1h-1zM21 47h1v1h-1zM22 47h1v1h-1zM23 47h1v1h-1z"/><path fill="#99C3E8" d="M24 47h1v1h-1z"/><path fill="#92BFE6" d="M25 47h1v1h-1z"/><path fill="#84B7E2" d="M26 47h1v1h-1z"/><path fill="#7AB0DF" d="M27 47h1v1h-1z"/><path fill="#75ABDA" d="M28 47h1v1h-1z"/><path fill="#739FCD" d="M29 47h1v1h-1z"/><path fill="#7096C2" d="M30 47h1v1h-1z"/><path fill="#7094C0" d="M31 47h1v1h-1zM32 47h1v1h-1zM33 47h1v1h-1zM34 47h1v1h-1zM35 47h1v1h-1zM36 47h1v1h-1zM37 47h1v1h-1zM38 47h1v1h-1zM39 47h1v1h-1zM40 47h1v1h-1zM41 47h1v1h-1zM42 47h1v1h-1zM43 47h1v1h-1zM44 47h1v1h-1zM45 47h1v1h-1zM46 47h1v1h-1zM47 47h1v1h-1z"/><path fill="#66768C" d="M48 47h1v1h-1z"/><path fill="#5B5758" d="M49 47h1v1h-1zM50 47h1v1h-1zM51 47h1v1h-1z"/><path fill="#635F60" d="M52 47h1v1h-1z"/><path fill="#BDBDBC" d="M53 47h1v1h-1z"/><path fill="#5B5758" d="M54 47h1v1h-1zM55 47h1v1h-1zM56 47h1v1h-1z"/><path fill="#231815" d="M57 47h1v1h-1zM58 47h1v1h-1zM7 48h1v1H7zM8 48h1v1H8zM9 48h1v1H9zM10 48h1v1h-1zM11 48h1v1h-1z"/><path fill="#495562" d="M12 48h1v1h-1z"/><path fill="#8BB8E1" d="M13 48h1v1h-1z"/><path fill="#A4CAEB" d="M14 48h1v1h-1z"/><path fill="#AED0EE" d="M15 48h1v1h-1zM16 48h1v1h-1zM17 48h1v1h-1zM18 48h1v1h-1zM19 48h1v1h-1zM20 48h1v1h-1zM21 48h1v1h-1zM22 48h1v1h-1zM23 48h1v1h-1zM24 48h1v1h-1zM25 48h1v1h-1zM26 48h1v1h-1zM27 48h1v1h-1z"/><path fill="#A0C8EA" d="M28 48h1v1h-1z"/><path fill="#8BBBE4" d="M29 48h1v1h-1z"/><path fill="#79AFDD" d="M30 48h1v1h-1z"/><path fill="#73A1CF" d="M31 48h1v1h-1z"/><path fill="#7096C2" d="M32 48h1v1h-1z"/><path fill="#7094C0" d="M33 48h1v1h-1zM34 48h1v1h-1zM35 48h1v1h-1zM36 48h1v1h-1zM37 48h1v1h-1zM38 48h1v1h-1zM39 48h1v1h-1zM40 48h1v1h-1zM41 48h1v1h-1zM42 48h1v1h-1zM43 48h1v1h-1zM44 48h1v1h-1zM45 48h1v1h-1zM46 48h1v1h-1zM47 48h1v1h-1zM48 48h1v1h-1z"/><path fill="#6981A0" d="M49 48h1v1h-1z"/><path fill="#5C5B5F" d="M50 48h1v1h-1z"/><path fill="#5B5758" d="M51 48h1v1h-1zM52 48h1v1h-1z"/><path fill="#635F60" d="M53 48h1v1h-1z"/><path fill="#5B5758" d="M54 48h1v1h-1zM55 48h1v1h-1zM56 48h1v1h-1z"/><path fill="#231815" d="M57 48h1v1h-1zM58 48h1v1h-1zM59 48h1v1h-1zM6 49h1v1H6zM7 49h1v1H7zM8 49h1v1H8zM9 49h1v1H9zM10 49h1v1h-1z"/><path fill="#76899C" d="M11 49h1v1h-1z"/><path fill="#AED0EE" d="M12 49h1v1h-1zM13 49h1v1h-1zM14 49h1v1h-1zM15 49h1v1h-1zM16 49h1v1h-1zM17 49h1v1h-1zM18 49h1v1h-1zM19 49h1v1h-1zM20 49h1v1h-1zM21 49h1v1h-1zM22 49h1v1h-1zM23 49h1v1h-1zM24 49h1v1h-1zM25 49h1v1h-1zM26 49h1v1h-1zM27 49h1v1h-1zM28 49h1v1h-1zM29 49h1v1h-1z"/><path fill="#ABCEED" d="M30 49h1v1h-1z"/><path fill="#92BFE6" d="M31 49h1v1h-1z"/><path fill="#76ACDC" d="M32 49h1v1h-1z"/><path fill="#729ECB" d="M33 49h1v1h-1z"/><path fill="#7094C0" d="M34 49h1v1h-1zM35 49h1v1h-1zM36 49h1v1h-1zM37 49h1v1h-1zM38 49h1v1h-1zM39 49h1v1h-1zM40 49h1v1h-1zM41 49h1v1h-1zM42 49h1v1h-1zM43 49h1v1h-1zM44 49h1v1h-1zM45 49h1v1h-1zM46 49h1v1h-1zM47 49h1v1h-1zM48 49h1v1h-1zM49 49h1v1h-1z"/><path fill="#6C89AD" d="M50 49h1v1h-1z"/><path fill="#5C5B5F" d="M51 49h1v1h-1z"/><path fill="#5B5758" d="M52 49h1v1h-1zM53 49h1v1h-1zM54 49h1v1h-1zM55 49h1v1h-1zM56 49h1v1h-1z"/><path fill="#231815" d="M57 49h1v1h-1zM58 49h1v1h-1zM59 49h1v1h-1zM60 49h1v1h-1zM5 50h1v1H5zM6 50h1v1H6zM7 50h1v1H7zM8 50h1v1H8z"/><path fill="#2C2423" d="M9 50h1v1H9z"/><path fill="#8BA2B8" d="M10 50h1v1h-1z"/><path fill="#AED0EE" d="M11 50h1v1h-1zM12 50h1v1h-1zM13 50h1v1h-1zM14 50h1v1h-1zM15 50h1v1h-1zM16 50h1v1h-1zM17 50h1v1h-1zM18 50h1v1h-1zM19 50h1v1h-1zM20 50h1v1h-1zM21 50h1v1h-1zM22 50h1v1h-1zM23 50h1v1h-1zM24 50h1v1h-1zM25 50h1v1h-1zM26 50h1v1h-1zM27 50h1v1h-1zM28 50h1v1h-1zM29 50h1v1h-1zM30 50h1v1h-1zM31 50h1v1h-1z"/><path fill="#A4CAEB" d="M32 50h1v1h-1z"/><path fill="#81B4E1" d="M33 50h1v1h-1z"/><path fill="#75A8D7" d="M34 50h1v1h-1z"/><path fill="#7096C2" d="M35 50h1v1h-1z"/><path fill="#7094C0" d="M36 50h1v1h-1zM37 50h1v1h-1zM38 50h1v1h-1zM39 50h1v1h-1zM40 50h1v1h-1zM41 50h1v1h-1zM42 50h1v1h-1zM43 50h1v1h-1zM44 50h1v1h-1zM45 50h1v1h-1zM46 50h1v1h-1zM47 50h1v1h-1zM48 50h1v1h-1zM49 50h1v1h-1zM50 50h1v1h-1z"/><path fill="#6B85A6" d="M51 50h1v1h-1z"/><path fill="#5B5758" d="M52 50h1v1h-1zM53 50h1v1h-1zM54 50h1v1h-1zM55 50h1v1h-1zM56 50h1v1h-1z"/><path fill="#231815" d="M57 50h1v1h-1zM58 50h1v1h-1zM59 50h1v1h-1zM60 50h1v1h-1zM61 50h1v1h-1zM4 51h1v1H4zM5 51h1v1H5zM6 51h1v1H6zM7 51h1v1H7z"/><path fill="#2C2423" d="M8 51h1v1H8z"/><path fill="#94AEC5" d="M9 51h1v1H9z"/><path fill="#B8D6F0" d="M10 51h1v1h-1z"/><path fill="#C2DCF2" d="M11 51h1v1h-1z"/><path fill="#B3D3EF" d="M12 51h1v1h-1z"/><path fill="#AED0EE" d="M13 51h1v1h-1zM14 51h1v1h-1zM15 51h1v1h-1zM16 51h1v1h-1zM17 51h1v1h-1zM18 51h1v1h-1zM19 51h1v1h-1zM20 51h1v1h-1zM21 51h1v1h-1zM22 51h1v1h-1zM23 51h1v1h-1zM24 51h1v1h-1zM25 51h1v1h-1zM26 51h1v1h-1zM27 51h1v1h-1zM28 51h1v1h-1zM29 51h1v1h-1zM30 51h1v1h-1zM31 51h1v1h-1zM32 51h1v1h-1z"/><path fill="#ABCEED" d="M33 51h1v1h-1z"/><path fill="#81B4E1" d="M34 51h1v1h-1z"/><path fill="#76ACDC" d="M35 51h1v1h-1z"/><path fill="#7199C6" d="M36 51h1v1h-1z"/><path fill="#7094C0" d="M37 51h1v1h-1zM38 51h1v1h-1zM39 51h1v1h-1zM40 51h1v1h-1zM41 51h1v1h-1zM42 51h1v1h-1zM43 51h1v1h-1zM44 51h1v1h-1zM45 51h1v1h-1zM46 51h1v1h-1zM47 51h1v1h-1zM48 51h1v1h-1zM49 51h1v1h-1zM50 51h1v1h-1zM51 51h1v1h-1z"/><path fill="#647286" d="M52 51h1v1h-1z"/><path fill="#5B5758" d="M53 51h1v1h-1zM54 51h1v1h-1zM55 51h1v1h-1zM56 51h1v1h-1z"/><path fill="#231815" d="M57 51h1v1h-1zM58 51h1v1h-1zM59 51h1v1h-1zM60 51h1v1h-1zM61 51h1v1h-1zM62 51h1v1h-1zM63 51h1v1h-1zM3 52h1v1H3zM4 52h1v1H4zM5 52h1v1H5zM6 52h1v1H6z"/><path fill="#2C2423" d="M7 52h1v1H7z"/><path fill="#94AEC5" d="M8 52h1v1H8z"/><path fill="#B8D6F0" d="M9 52h1v1H9z"/><path fill="#FAFCFE" d="M10 52h1v1h-1z"/><path fill="#FFF" d="M11 52h1v1h-1z"/><path fill="#EBF3FB" d="M12 52h1v1h-1z"/><path fill="#AED0EE" d="M13 52h1v1h-1zM14 52h1v1h-1zM15 52h1v1h-1zM16 52h1v1h-1zM17 52h1v1h-1z"/><path fill="#CCE2F4" d="M18 52h1v1h-1z"/><path fill="#D1E5F5" d="M19 52h1v1h-1z"/><path fill="#B3D3EF" d="M20 52h1v1h-1z"/><path fill="#AED0EE" d="M21 52h1v1h-1zM22 52h1v1h-1zM23 52h1v1h-1zM24 52h1v1h-1zM25 52h1v1h-1zM26 52h1v1h-1zM27 52h1v1h-1zM28 52h1v1h-1zM29 52h1v1h-1zM30 52h1v1h-1zM31 52h1v1h-1zM32 52h1v1h-1zM33 52h1v1h-1z"/><path fill="#ABCEED" d="M34 52h1v1h-1z"/><path fill="#7AB0DF" d="M35 52h1v1h-1z"/><path fill="#76ACDC" d="M36 52h1v1h-1z"/><path fill="#7199C6" d="M37 52h1v1h-1z"/><path fill="#7094C0" d="M38 52h1v1h-1zM39 52h1v1h-1zM40 52h1v1h-1zM41 52h1v1h-1zM42 52h1v1h-1zM43 52h1v1h-1zM44 52h1v1h-1zM45 52h1v1h-1zM46 52h1v1h-1zM47 52h1v1h-1zM48 52h1v1h-1zM49 52h1v1h-1zM50 52h1v1h-1zM51 52h1v1h-1z"/><path fill="#5B7EAF" d="M52 52h1v1h-1z"/><path fill="#59585D" d="M53 52h1v1h-1z"/><path fill="#5B5758" d="M54 52h1v1h-1zM55 52h1v1h-1zM56 52h1v1h-1z"/><path fill="#231815" d="M58 52h1v1h-1zM59 52h1v1h-1zM60 52h1v1h-1zM61 52h1v1h-1zM62 52h1v1h-1zM63 52h1v1h-1zM64 52h1v1h-1zM2 53h1v1H2zM3 53h1v1H3zM4 53h1v1H4zM5 53h1v1H5z"/><path fill="#282122" d="M6 53h1v1H6z"/><path fill="#90ABC4" d="M7 53h1v1H7z"/><path fill="#AED0EE" d="M8 53h1v1H8z"/><path fill="#BDD9F1" d="M9 53h1v1H9z"/><path fill="#FFF" d="M10 53h1v1h-1zM11 53h1v1h-1z"/><path fill="#FAFCFE" d="M12 53h1v1h-1z"/><path fill="#AED0EE" d="M13 53h1v1h-1zM14 53h1v1h-1zM15 53h1v1h-1zM16 53h1v1h-1z"/><path fill="#CCE2F4" d="M17 53h1v1h-1z"/><path fill="#FFF" d="M18 53h1v1h-1zM19 53h1v1h-1z"/><path fill="#E1EDF9" d="M20 53h1v1h-1z"/><path fill="#AED0EE" d="M21 53h1v1h-1zM22 53h1v1h-1zM23 53h1v1h-1zM24 53h1v1h-1zM25 53h1v1h-1zM26 53h1v1h-1zM27 53h1v1h-1z"/><path fill="#8BBBE4" d="M28 53h1v1h-1z"/><path fill="#76AEDE" d="M29 53h1v1h-1z"/><path fill="#84B7E2" d="M30 53h1v1h-1z"/><path fill="#AED0EE" d="M31 53h1v1h-1zM32 53h1v1h-1zM33 53h1v1h-1zM34 53h1v1h-1z"/><path fill="#99C3E8" d="M35 53h1v1h-1z"/><path fill="#76AEDE" d="M36 53h1v1h-1z"/><path fill="#76ACDC" d="M37 53h1v1h-1z"/><path fill="#7096C2" d="M38 53h1v1h-1z"/><path fill="#7094C0" d="M39 53h1v1h-1zM40 53h1v1h-1zM41 53h1v1h-1zM42 53h1v1h-1zM43 53h1v1h-1zM44 53h1v1h-1zM45 53h1v1h-1zM46 53h1v1h-1zM47 53h1v1h-1zM48 53h1v1h-1zM49 53h1v1h-1z"/><path fill="#698EBC" d="M50 53h1v1h-1z"/><path fill="#4C72AC" d="M51 53h1v1h-1z"/><path fill="#3B63A3" d="M52 53h1v1h-1z"/><path fill="#4D5C79" d="M53 53h1v1h-1z"/><path fill="#5B5758" d="M54 53h1v1h-1zM55 53h1v1h-1zM56 53h1v1h-1z"/><path fill="#231815" d="M59 53h1v1h-1zM60 53h1v1h-1zM61 53h1v1h-1zM62 53h1v1h-1zM63 53h1v1h-1zM64 53h1v1h-1zM65 53h1v1h-1zM66 53h1v1h-1zM2 54h1v1H2zM3 54h1v1H3zM4 54h1v1H4zM5 54h1v1H5z"/><path fill="#6383A1" d="M6 54h1v1H6z"/><path fill="#AED0EE" d="M7 54h1v1H7zM8 54h1v1H8zM9 54h1v1H9z"/><path fill="#DCEAF8" d="M10 54h1v1h-1z"/><path fill="#EBF3FB" d="M11 54h1v1h-1z"/><path fill="#C7DFF3" d="M12 54h1v1h-1z"/><path fill="#AED0EE" d="M13 54h1v1h-1zM14 54h1v1h-1zM15 54h1v1h-1zM16 54h1v1h-1z"/><path fill="#D1E5F5" d="M17 54h1v1h-1z"/><path fill="#FFF" d="M18 54h1v1h-1zM19 54h1v1h-1z"/><path fill="#E1EDF9" d="M20 54h1v1h-1z"/><path fill="#AED0EE" d="M21 54h1v1h-1zM22 54h1v1h-1zM23 54h1v1h-1zM24 54h1v1h-1zM25 54h1v1h-1zM26 54h1v1h-1zM27 54h1v1h-1z"/><path fill="#76AEDE" d="M28 54h1v1h-1zM29 54h1v1h-1zM30 54h1v1h-1z"/><path fill="#A4CAEB" d="M31 54h1v1h-1z"/><path fill="#AED0EE" d="M32 54h1v1h-1zM33 54h1v1h-1zM34 54h1v1h-1z"/><path fill="#ABCEED" d="M35 54h1v1h-1z"/><path fill="#76AEDE" d="M36 54h1v1h-1zM37 54h1v1h-1z"/><path fill="#74A4D3" d="M38 54h1v1h-1z"/><path fill="#7094C0" d="M39 54h1v1h-1zM40 54h1v1h-1zM41 54h1v1h-1zM42 54h1v1h-1zM43 54h1v1h-1zM44 54h1v1h-1zM45 54h1v1h-1zM46 54h1v1h-1zM47 54h1v1h-1z"/><path fill="#698EBC" d="M48 54h1v1h-1z"/><path fill="#4F75AE" d="M49 54h1v1h-1z"/><path fill="#3B63A3" d="M50 54h1v1h-1zM51 54h1v1h-1zM52 54h1v1h-1z"/><path fill="#455F8C" d="M53 54h1v1h-1z"/><path fill="#5B5758" d="M54 54h1v1h-1zM55 54h1v1h-1zM56 54h1v1h-1z"/><path fill="#231815" d="M61 54h1v1h-1zM62 54h1v1h-1zM63 54h1v1h-1zM64 54h1v1h-1zM65 54h1v1h-1zM66 54h1v1h-1zM67 54h1v1h-1zM68 54h1v1h-1zM69 54h1v1h-1zM1 55h1v1H1zM2 55h1v1H2zM3 55h1v1H3zM4 55h1v1H4z"/><path fill="#4D637A" d="M5 55h1v1H5z"/><path fill="#84B7E2" d="M6 55h1v1H6z"/><path fill="#AED0EE" d="M7 55h1v1H7zM8 55h1v1H8zM9 55h1v1H9zM10 55h1v1h-1zM11 55h1v1h-1zM12 55h1v1h-1zM13 55h1v1h-1z"/><path fill="#B3D3EF" d="M14 55h1v1h-1z"/><path fill="#AED0EE" d="M15 55h1v1h-1zM16 55h1v1h-1zM17 55h1v1h-1z"/><path fill="#D1E5F5" d="M18 55h1v1h-1z"/><path fill="#DCEAF8" d="M19 55h1v1h-1z"/><path fill="#B3D3EF" d="M20 55h1v1h-1z"/><path fill="#AED0EE" d="M21 55h1v1h-1zM22 55h1v1h-1zM23 55h1v1h-1zM24 55h1v1h-1zM25 55h1v1h-1zM26 55h1v1h-1zM27 55h1v1h-1z"/><path fill="#88B9E3" d="M28 55h1v1h-1z"/><path fill="#76AEDE" d="M29 55h1v1h-1z"/><path fill="#81B4E1" d="M30 55h1v1h-1z"/><path fill="#AED0EE" d="M31 55h1v1h-1zM32 55h1v1h-1zM33 55h1v1h-1z"/><path fill="#A4CAEB" d="M34 55h1v1h-1z"/><path fill="#92BFE6" d="M35 55h1v1h-1z"/><path fill="#76AEDE" d="M36 55h1v1h-1zM37 55h1v1h-1zM38 55h1v1h-1z"/><path fill="#7197C4" d="M39 55h1v1h-1z"/><path fill="#7094C0" d="M40 55h1v1h-1zM41 55h1v1h-1zM42 55h1v1h-1zM43 55h1v1h-1zM44 55h1v1h-1zM45 55h1v1h-1z"/><path fill="#698EBC" d="M46 55h1v1h-1z"/><path fill="#4F75AE" d="M47 55h1v1h-1z"/><path fill="#3B63A3" d="M48 55h1v1h-1zM49 55h1v1h-1zM50 55h1v1h-1zM51 55h1v1h-1zM52 55h1v1h-1z"/><path fill="#4E6E9B" d="M53 55h1v1h-1z"/><path fill="#5B5758" d="M54 55h1v1h-1zM55 55h1v1h-1zM56 55h1v1h-1z"/><path fill="#231815" d="M62 55h1v1h-1zM63 55h1v1h-1zM64 55h1v1h-1zM65 55h1v1h-1zM66 55h1v1h-1zM67 55h1v1h-1zM68 55h1v1h-1zM69 55h1v1h-1zM70 55h1v1h-1zM1 56h1v1H1zM2 56h1v1H2zM3 56h1v1H3z"/><path fill="#33343B" d="M4 56h1v1H4z"/><path fill="#76AEDE" d="M5 56h1v1H5z"/><path fill="#84B7E2" d="M6 56h1v1H6z"/><path fill="#A0C8EA" d="M7 56h1v1H7z"/><path fill="#92BFE6" d="M8 56h1v1H8z"/><path fill="#A4CAEB" d="M9 56h1v1H9z"/><path fill="#AED0EE" d="M10 56h1v1h-1zM11 56h1v1h-1zM12 56h1v1h-1z"/><path fill="#E1EDF9" d="M13 56h1v1h-1z"/><path fill="#FFF" d="M14 56h1v1h-1z"/><path fill="#F0F6FC" d="M15 56h1v1h-1z"/><path fill="#AED0EE" d="M16 56h1v1h-1zM17 56h1v1h-1zM18 56h1v1h-1zM19 56h1v1h-1zM20 56h1v1h-1zM21 56h1v1h-1zM22 56h1v1h-1zM23 56h1v1h-1zM24 56h1v1h-1zM25 56h1v1h-1zM26 56h1v1h-1zM27 56h1v1h-1zM28 56h1v1h-1zM29 56h1v1h-1zM30 56h1v1h-1zM31 56h1v1h-1zM32 56h1v1h-1zM33 56h1v1h-1z"/><path fill="#7AB0DF" d="M34 56h1v1h-1z"/><path fill="#76AEDE" d="M35 56h1v1h-1zM36 56h1v1h-1zM37 56h1v1h-1zM38 56h1v1h-1z"/><path fill="#729ECB" d="M39 56h1v1h-1z"/><path fill="#7094C0" d="M40 56h1v1h-1zM41 56h1v1h-1zM42 56h1v1h-1zM43 56h1v1h-1z"/><path fill="#668BBB" d="M44 56h1v1h-1z"/><path fill="#486FAA" d="M45 56h1v1h-1z"/><path fill="#3B63A3" d="M46 56h1v1h-1zM47 56h1v1h-1zM48 56h1v1h-1zM49 56h1v1h-1zM50 56h1v1h-1z"/><path fill="#426CAA" d="M51 56h1v1h-1z"/><path fill="#6497CC" d="M52 56h1v1h-1z"/><path fill="#6C8DAC" d="M53 56h1v1h-1z"/><path fill="#5B5758" d="M54 56h1v1h-1zM55 56h1v1h-1zM56 56h1v1h-1z"/><path fill="#231815" d="M64 56h1v1h-1zM65 56h1v1h-1zM66 56h1v1h-1zM67 56h1v1h-1zM68 56h1v1h-1zM69 56h1v1h-1zM70 56h1v1h-1zM0 57h1v1H0zM1 57h1v1H1zM2 57h1v1H2zM3 57h1v1H3z"/><path fill="#6189AC" d="M4 57h1v1H4z"/><path fill="#76AEDE" d="M5 57h1v1H5z"/><path fill="#7AB0DF" d="M6 57h1v1H6z"/><path fill="#76AEDE" d="M7 57h1v1H7zM8 57h1v1H8z"/><path fill="#7AB0DF" d="M9 57h1v1H9z"/><path fill="#AED0EE" d="M10 57h1v1h-1zM11 57h1v1h-1zM12 57h1v1h-1z"/><path fill="#FFF" d="M13 57h1v1h-1zM14 57h1v1h-1zM15 57h1v1h-1z"/><path fill="#C2DCF2" d="M16 57h1v1h-1z"/><path fill="#AED0EE" d="M17 57h1v1h-1zM18 57h1v1h-1zM19 57h1v1h-1zM20 57h1v1h-1zM21 57h1v1h-1zM22 57h1v1h-1zM23 57h1v1h-1zM24 57h1v1h-1zM25 57h1v1h-1z"/><path fill="#8FBDE5" d="M26 57h1v1h-1z"/><path fill="#84B7E2" d="M27 57h1v1h-1z"/><path fill="#9DC5E9" d="M28 57h1v1h-1z"/><path fill="#AED0EE" d="M29 57h1v1h-1zM30 57h1v1h-1zM31 57h1v1h-1zM32 57h1v1h-1zM33 57h1v1h-1z"/><path fill="#7AB0DF" d="M34 57h1v1h-1z"/><path fill="#76AEDE" d="M35 57h1v1h-1zM36 57h1v1h-1zM37 57h1v1h-1zM38 57h1v1h-1z"/><path fill="#73A1CF" d="M39 57h1v1h-1z"/><path fill="#7094C0" d="M40 57h1v1h-1zM41 57h1v1h-1zM42 57h1v1h-1z"/><path fill="#5E7A9E" d="M43 57h1v1h-1z"/><path fill="#2C2E3A" d="M44 57h1v1h-1z"/><path fill="#2C344A" d="M45 57h1v1h-1z"/><path fill="#3A5E9A" d="M46 57h1v1h-1z"/><path fill="#3B63A3" d="M47 57h1v1h-1zM48 57h1v1h-1z"/><path fill="#426CAA" d="M49 57h1v1h-1z"/><path fill="#6092C8" d="M50 57h1v1h-1z"/><path fill="#76AEDE" d="M51 57h1v1h-1zM52 57h1v1h-1z"/><path fill="#5E6269" d="M53 57h1v1h-1z"/><path fill="#5B5758" d="M54 57h1v1h-1zM55 57h1v1h-1zM56 57h1v1h-1z"/><path fill="#231815" d="M67 57h1v1h-1zM68 57h1v1h-1zM69 57h1v1h-1zM70 57h1v1h-1zM0 58h1v1H0zM1 58h1v1H1zM2 58h1v1H2z"/><path fill="#383E47" d="M3 58h1v1H3z"/><path fill="#76AEDE" d="M4 58h1v1H4zM5 58h1v1H5zM6 58h1v1H6zM7 58h1v1H7zM8 58h1v1H8z"/><path fill="#7AB0DF" d="M9 58h1v1H9z"/><path fill="#AED0EE" d="M10 58h1v1h-1zM11 58h1v1h-1zM12 58h1v1h-1z"/><path fill="#D7E8F7" d="M13 58h1v1h-1z"/><path fill="#FFF" d="M14 58h1v1h-1z"/><path fill="#EBF3FB" d="M15 58h1v1h-1z"/><path fill="#AED0EE" d="M16 58h1v1h-1zM17 58h1v1h-1zM18 58h1v1h-1zM19 58h1v1h-1zM20 58h1v1h-1zM21 58h1v1h-1zM22 58h1v1h-1zM23 58h1v1h-1zM24 58h1v1h-1z"/><path fill="#A0C8EA" d="M25 58h1v1h-1z"/><path fill="#76AEDE" d="M26 58h1v1h-1zM27 58h1v1h-1z"/><path fill="#7AB0DF" d="M28 58h1v1h-1z"/><path fill="#AED0EE" d="M29 58h1v1h-1zM30 58h1v1h-1zM31 58h1v1h-1zM32 58h1v1h-1zM33 58h1v1h-1z"/><path fill="#A0C8EA" d="M34 58h1v1h-1z"/><path fill="#7DB2E0" d="M35 58h1v1h-1z"/><path fill="#76AEDE" d="M36 58h1v1h-1zM37 58h1v1h-1zM38 58h1v1h-1z"/><path fill="#73A1CF" d="M39 58h1v1h-1z"/><path fill="#7094C0" d="M40 58h1v1h-1zM41 58h1v1h-1zM42 58h1v1h-1z"/><path fill="#465369" d="M43 58h1v1h-1z"/><path fill="#231815" d="M44 58h1v1h-1zM45 58h1v1h-1z"/><path fill="#32476E" d="M46 58h1v1h-1z"/><path fill="#587EB6" d="M47 58h1v1h-1z"/><path fill="#7CA8D5" d="M48 58h1v1h-1z"/><path fill="#7DB2E0" d="M49 58h1v1h-1z"/><path fill="#76AEDE" d="M50 58h1v1h-1zM51 58h1v1h-1z"/><path fill="#65788A" d="M52 58h1v1h-1z"/><path fill="#5B5758" d="M53 58h1v1h-1zM54 58h1v1h-1zM55 58h1v1h-1zM56 58h1v1h-1z"/><path fill="#231815" d="M0 59h1v1H0zM1 59h1v1H1zM2 59h1v1H2z"/><path fill="#526C86" d="M3 59h1v1H3z"/><path fill="#76AEDE" d="M4 59h1v1H4zM5 59h1v1H5zM6 59h1v1H6zM7 59h1v1H7z"/><path fill="#8BBBE4" d="M8 59h1v1H8z"/><path fill="#A4CAEB" d="M9 59h1v1H9z"/><path fill="#AED0EE" d="M10 59h1v1h-1zM11 59h1v1h-1zM12 59h1v1h-1zM13 59h1v1h-1zM14 59h1v1h-1zM15 59h1v1h-1zM16 59h1v1h-1zM17 59h1v1h-1zM18 59h1v1h-1zM19 59h1v1h-1zM20 59h1v1h-1zM21 59h1v1h-1zM22 59h1v1h-1zM23 59h1v1h-1zM24 59h1v1h-1z"/><path fill="#A7CCEC" d="M25 59h1v1h-1z"/><path fill="#7AB0DF" d="M26 59h1v1h-1z"/><path fill="#76AEDE" d="M27 59h1v1h-1z"/><path fill="#84B7E2" d="M28 59h1v1h-1z"/><path fill="#AED0EE" d="M29 59h1v1h-1zM30 59h1v1h-1zM31 59h1v1h-1zM32 59h1v1h-1zM33 59h1v1h-1z"/><path fill="#A0C8EA" d="M34 59h1v1h-1z"/><path fill="#76AEDE" d="M35 59h1v1h-1zM36 59h1v1h-1zM37 59h1v1h-1zM38 59h1v1h-1z"/><path fill="#73A1CF" d="M39 59h1v1h-1z"/><path fill="#7094C0" d="M40 59h1v1h-1zM41 59h1v1h-1zM42 59h1v1h-1z"/><path fill="#4A566B" d="M43 59h1v1h-1z"/><path fill="#231815" d="M44 59h1v1h-1zM45 59h1v1h-1z"/><path fill="#616D7D" d="M46 59h1v1h-1z"/><path fill="#AED0EE" d="M47 59h1v1h-1zM48 59h1v1h-1zM49 59h1v1h-1z"/><path fill="#92AEC7" d="M50 59h1v1h-1z"/><path fill="#646972" d="M51 59h1v1h-1z"/><path fill="#5B5758" d="M52 59h1v1h-1zM53 59h1v1h-1zM54 59h1v1h-1zM55 59h1v1h-1z"/><path fill="#231815" d="M0 60h1v1H0zM1 60h1v1H1zM2 60h1v1H2z"/><path fill="#6189AC" d="M3 60h1v1H3z"/><path fill="#76AEDE" d="M4 60h1v1H4zM5 60h1v1H5zM6 60h1v1H6zM7 60h1v1H7z"/><path fill="#81B4E1" d="M8 60h1v1H8z"/><path fill="#A7CCEC" d="M9 60h1v1H9z"/><path fill="#AED0EE" d="M10 60h1v1h-1zM11 60h1v1h-1z"/><path fill="#ABCEED" d="M12 60h1v1h-1z"/><path fill="#A0C8EA" d="M13 60h1v1h-1z"/><path fill="#A7CCEC" d="M14 60h1v1h-1z"/><path fill="#AED0EE" d="M15 60h1v1h-1zM16 60h1v1h-1zM17 60h1v1h-1zM18 60h1v1h-1zM19 60h1v1h-1zM20 60h1v1h-1zM21 60h1v1h-1zM22 60h1v1h-1zM23 60h1v1h-1zM24 60h1v1h-1zM25 60h1v1h-1z"/><path fill="#A7CCEC" d="M26 60h1v1h-1z"/><path fill="#A0C8EA" d="M27 60h1v1h-1z"/><path fill="#ABCEED" d="M28 60h1v1h-1zM29 60h1v1h-1z"/><path fill="#88B9E3" d="M30 60h1v1h-1z"/><path fill="#84B7E2" d="M31 60h1v1h-1z"/><path fill="#A4CAEB" d="M32 60h1v1h-1zM33 60h1v1h-1z"/><path fill="#7AB0DF" d="M34 60h1v1h-1z"/><path fill="#76AEDE" d="M35 60h1v1h-1zM36 60h1v1h-1zM37 60h1v1h-1zM38 60h1v1h-1z"/><path fill="#729CC9" d="M39 60h1v1h-1z"/><path fill="#7094C0" d="M40 60h1v1h-1zM41 60h1v1h-1zM42 60h1v1h-1z"/><path fill="#4A566B" d="M43 60h1v1h-1z"/><path fill="#231815" d="M44 60h1v1h-1zM45 60h1v1h-1z"/><path fill="#595D65" d="M46 60h1v1h-1z"/><path fill="#94AABF" d="M47 60h1v1h-1z"/><path fill="#8594A3" d="M48 60h1v1h-1z"/><path fill="#6B6E74" d="M49 60h1v1h-1z"/><path fill="#5B5758" d="M50 60h1v1h-1zM51 60h1v1h-1zM52 60h1v1h-1zM53 60h1v1h-1zM54 60h1v1h-1z"/><path fill="#231815" d="M0 61h1v1H0zM1 61h1v1H1zM2 61h1v1H2z"/><path fill="#5C7F9F" d="M3 61h1v1H3z"/><path fill="#76AEDE" d="M4 61h1v1H4zM5 61h1v1H5zM6 61h1v1H6zM7 61h1v1H7zM8 61h1v1H8z"/><path fill="#7AB0DF" d="M9 61h1v1H9z"/><path fill="#9DC5E9" d="M10 61h1v1h-1z"/><path fill="#AED0EE" d="M11 61h1v1h-1z"/><path fill="#84B7E2" d="M12 61h1v1h-1z"/><path fill="#76AEDE" d="M13 61h1v1h-1z"/><path fill="#7AB0DF" d="M14 61h1v1h-1z"/><path fill="#ABCEED" d="M15 61h1v1h-1z"/><path fill="#AED0EE" d="M16 61h1v1h-1zM17 61h1v1h-1zM18 61h1v1h-1zM19 61h1v1h-1zM20 61h1v1h-1zM21 61h1v1h-1zM22 61h1v1h-1zM23 61h1v1h-1zM24 61h1v1h-1zM25 61h1v1h-1zM26 61h1v1h-1zM27 61h1v1h-1zM28 61h1v1h-1z"/><path fill="#92BFE6" d="M29 61h1v1h-1z"/><path fill="#76AEDE" d="M30 61h1v1h-1zM31 61h1v1h-1z"/><path fill="#81B4E1" d="M32 61h1v1h-1z"/><path fill="#76AEDE" d="M33 61h1v1h-1zM34 61h1v1h-1zM35 61h1v1h-1zM36 61h1v1h-1zM37 61h1v1h-1z"/><path fill="#76ACDC" d="M38 61h1v1h-1z"/><path fill="#7094C0" d="M39 61h1v1h-1zM40 61h1v1h-1zM41 61h1v1h-1zM42 61h1v1h-1z"/><path fill="#363740" d="M43 61h1v1h-1z"/><path fill="#231815" d="M44 61h1v1h-1zM45 61h1v1h-1z"/><path fill="#3F3837" d="M46 61h1v1h-1z"/><path fill="#5B5758" d="M47 61h1v1h-1zM48 61h1v1h-1zM49 61h1v1h-1zM50 61h1v1h-1zM51 61h1v1h-1zM52 61h1v1h-1zM53 61h1v1h-1z"/><path fill="#231815" d="M0 62h1v1H0zM1 62h1v1H1zM2 62h1v1H2z"/><path fill="#425060" d="M3 62h1v1H3z"/><path fill="#76AEDE" d="M4 62h1v1H4zM5 62h1v1H5zM6 62h1v1H6zM7 62h1v1H7zM8 62h1v1H8zM9 62h1v1H9zM10 62h1v1h-1z"/><path fill="#84B7E2" d="M11 62h1v1h-1z"/><path fill="#76AEDE" d="M12 62h1v1h-1zM13 62h1v1h-1zM14 62h1v1h-1z"/><path fill="#A4CAEB" d="M15 62h1v1h-1z"/><path fill="#AED0EE" d="M16 62h1v1h-1zM17 62h1v1h-1z"/><path fill="#9DC5E9" d="M18 62h1v1h-1z"/><path fill="#76AEDE" d="M19 62h1v1h-1z"/><path fill="#7AB0DF" d="M20 62h1v1h-1z"/><path fill="#A7CCEC" d="M21 62h1v1h-1z"/><path fill="#AED0EE" d="M22 62h1v1h-1zM23 62h1v1h-1z"/><path fill="#99C3E8" d="M24 62h1v1h-1z"/><path fill="#76AEDE" d="M25 62h1v1h-1z"/><path fill="#7AB0DF" d="M26 62h1v1h-1z"/><path fill="#A7CCEC" d="M27 62h1v1h-1z"/><path fill="#AED0EE" d="M28 62h1v1h-1z"/><path fill="#9DC5E9" d="M29 62h1v1h-1z"/><path fill="#76AEDE" d="M30 62h1v1h-1zM31 62h1v1h-1zM32 62h1v1h-1zM33 62h1v1h-1zM34 62h1v1h-1zM35 62h1v1h-1zM36 62h1v1h-1zM37 62h1v1h-1z"/><path fill="#73A1CF" d="M38 62h1v1h-1z"/><path fill="#7094C0" d="M39 62h1v1h-1zM40 62h1v1h-1zM41 62h1v1h-1z"/><path fill="#536680" d="M42 62h1v1h-1z"/><path fill="#231815" d="M43 62h1v1h-1zM44 62h1v1h-1zM45 62h1v1h-1z"/><path fill="#514B4B" d="M46 62h1v1h-1z"/><path fill="#5B5758" d="M47 62h1v1h-1zM48 62h1v1h-1zM49 62h1v1h-1zM50 62h1v1h-1zM51 62h1v1h-1zM52 62h1v1h-1z"/><path fill="#231815" d="M0 63h1v1H0zM1 63h1v1H1zM2 63h1v1H2zM3 63h1v1H3z"/><path fill="#6189AC" d="M4 63h1v1H4z"/><path fill="#76AEDE" d="M5 63h1v1H5zM6 63h1v1H6zM7 63h1v1H7zM8 63h1v1H8zM9 63h1v1H9zM10 63h1v1h-1zM11 63h1v1h-1zM12 63h1v1h-1zM13 63h1v1h-1z"/><path fill="#7AB0DF" d="M14 63h1v1h-1z"/><path fill="#A0C8EA" d="M15 63h1v1h-1z"/><path fill="#AED0EE" d="M16 63h1v1h-1zM17 63h1v1h-1z"/><path fill="#84B7E2" d="M18 63h1v1h-1z"/><path fill="#76AEDE" d="M19 63h1v1h-1zM20 63h1v1h-1z"/><path fill="#92BFE6" d="M21 63h1v1h-1z"/><path fill="#AED0EE" d="M22 63h1v1h-1zM23 63h1v1h-1z"/><path fill="#84B7E2" d="M24 63h1v1h-1z"/><path fill="#76AEDE" d="M25 63h1v1h-1zM26 63h1v1h-1z"/><path fill="#88B9E3" d="M27 63h1v1h-1z"/><path fill="#8FBDE5" d="M28 63h1v1h-1z"/><path fill="#7DB2E0" d="M29 63h1v1h-1z"/><path fill="#76AEDE" d="M30 63h1v1h-1zM31 63h1v1h-1zM32 63h1v1h-1zM33 63h1v1h-1zM34 63h1v1h-1zM35 63h1v1h-1zM36 63h1v1h-1z"/><path fill="#75A9D8" d="M37 63h1v1h-1z"/><path fill="#7094C0" d="M38 63h1v1h-1zM39 63h1v1h-1zM40 63h1v1h-1z"/><path fill="#536680" d="M41 63h1v1h-1z"/><path fill="#231815" d="M42 63h1v1h-1zM43 63h1v1h-1zM44 63h1v1h-1z"/><path fill="#271D1A" d="M45 63h1v1h-1z"/><path fill="#5B5758" d="M46 63h1v1h-1zM47 63h1v1h-1zM48 63h1v1h-1zM49 63h1v1h-1zM50 63h1v1h-1z"/><path fill="#231815" d="M1 64h1v1H1zM2 64h1v1H2zM3 64h1v1H3z"/><path fill="#282122" d="M4 64h1v1H4z"/><path fill="#6189AC" d="M5 64h1v1H5z"/><path fill="#76AEDE" d="M6 64h1v1H6zM7 64h1v1H7zM8 64h1v1H8zM9 64h1v1H9zM10 64h1v1h-1zM11 64h1v1h-1zM12 64h1v1h-1zM13 64h1v1h-1zM14 64h1v1h-1zM15 64h1v1h-1zM16 64h1v1h-1z"/><path fill="#81B4E1" d="M17 64h1v1h-1z"/><path fill="#7DB2E0" d="M18 64h1v1h-1z"/><path fill="#76AEDE" d="M19 64h1v1h-1zM20 64h1v1h-1z"/><path fill="#8BBBE4" d="M21 64h1v1h-1z"/><path fill="#92BFE6" d="M22 64h1v1h-1z"/><path fill="#8FBDE5" d="M23 64h1v1h-1z"/><path fill="#7AB0DF" d="M24 64h1v1h-1z"/><path fill="#76AEDE" d="M25 64h1v1h-1zM26 64h1v1h-1zM27 64h1v1h-1zM28 64h1v1h-1zM29 64h1v1h-1zM30 64h1v1h-1zM31 64h1v1h-1zM32 64h1v1h-1zM33 64h1v1h-1zM34 64h1v1h-1zM35 64h1v1h-1z"/><path fill="#76ACDC" d="M36 64h1v1h-1z"/><path fill="#7197C4" d="M37 64h1v1h-1z"/><path fill="#7094C0" d="M38 64h1v1h-1z"/><path fill="#6685AB" d="M39 64h1v1h-1z"/><path fill="#3B3F4A" d="M40 64h1v1h-1z"/><path fill="#231815" d="M41 64h1v1h-1zM42 64h1v1h-1zM43 64h1v1h-1zM44 64h1v1h-1zM45 64h1v1h-1zM1 65h1v1H1zM2 65h1v1H2zM3 65h1v1H3zM4 65h1v1H4zM5 65h1v1H5z"/><path fill="#4D637A" d="M6 65h1v1H6z"/><path fill="#71A5D1" d="M7 65h1v1H7z"/><path fill="#76AEDE" d="M8 65h1v1H8zM9 65h1v1H9zM10 65h1v1h-1zM11 65h1v1h-1zM12 65h1v1h-1zM13 65h1v1h-1zM14 65h1v1h-1zM15 65h1v1h-1zM16 65h1v1h-1zM17 65h1v1h-1zM18 65h1v1h-1zM19 65h1v1h-1zM20 65h1v1h-1zM21 65h1v1h-1zM22 65h1v1h-1zM23 65h1v1h-1zM24 65h1v1h-1zM25 65h1v1h-1zM26 65h1v1h-1zM27 65h1v1h-1zM28 65h1v1h-1zM29 65h1v1h-1zM30 65h1v1h-1zM31 65h1v1h-1zM32 65h1v1h-1zM33 65h1v1h-1zM34 65h1v1h-1z"/><path fill="#75ABDA" d="M35 65h1v1h-1z"/><path fill="#7199C6" d="M36 65h1v1h-1z"/><path fill="#6685AB" d="M37 65h1v1h-1z"/><path fill="#454E60" d="M38 65h1v1h-1z"/><path fill="#282020" d="M39 65h1v1h-1z"/><path fill="#231815" d="M40 65h1v1h-1zM41 65h1v1h-1zM42 65h1v1h-1zM43 65h1v1h-1zM44 65h1v1h-1zM2 66h1v1H2zM3 66h1v1H3zM4 66h1v1H4zM5 66h1v1H5zM6 66h1v1H6z"/><path fill="#2D2B2E" d="M7 66h1v1H7z"/><path fill="#577693" d="M8 66h1v1H8z"/><path fill="#76AEDE" d="M9 66h1v1H9zM10 66h1v1h-1zM11 66h1v1h-1zM12 66h1v1h-1zM13 66h1v1h-1zM14 66h1v1h-1zM15 66h1v1h-1zM16 66h1v1h-1zM17 66h1v1h-1zM18 66h1v1h-1zM19 66h1v1h-1zM20 66h1v1h-1zM21 66h1v1h-1zM22 66h1v1h-1zM23 66h1v1h-1zM24 66h1v1h-1zM25 66h1v1h-1zM26 66h1v1h-1zM27 66h1v1h-1zM28 66h1v1h-1zM29 66h1v1h-1zM30 66h1v1h-1zM31 66h1v1h-1zM32 66h1v1h-1zM33 66h1v1h-1z"/><path fill="#70A0CC" d="M34 66h1v1h-1z"/><path fill="#546782" d="M35 66h1v1h-1z"/><path fill="#3B3F4A" d="M36 66h1v1h-1z"/><path fill="#231815" d="M37 66h1v1h-1zM38 66h1v1h-1zM39 66h1v1h-1zM40 66h1v1h-1zM41 66h1v1h-1zM42 66h1v1h-1zM43 66h1v1h-1zM3 67h1v1H3zM4 67h1v1H4zM5 67h1v1H5zM6 67h1v1H6zM7 67h1v1H7zM8 67h1v1H8z"/><path fill="#282122" d="M9 67h1v1H9z"/><path fill="#475A6D" d="M10 67h1v1h-1z"/><path fill="#6692B8" d="M11 67h1v1h-1z"/><path fill="#76AEDE" d="M12 67h1v1h-1zM13 67h1v1h-1zM14 67h1v1h-1zM15 67h1v1h-1zM16 67h1v1h-1zM17 67h1v1h-1zM18 67h1v1h-1zM19 67h1v1h-1zM20 67h1v1h-1zM21 67h1v1h-1zM22 67h1v1h-1zM23 67h1v1h-1zM24 67h1v1h-1zM25 67h1v1h-1zM26 67h1v1h-1zM27 67h1v1h-1zM28 67h1v1h-1zM29 67h1v1h-1z"/><path fill="#6C9BC5" d="M30 67h1v1h-1z"/><path fill="#5C7F9F" d="M31 67h1v1h-1z"/><path fill="#475A6D" d="M32 67h1v1h-1z"/><path fill="#33343B" d="M33 67h1v1h-1z"/><path fill="#231815" d="M34 67h1v1h-1zM35 67h1v1h-1zM36 67h1v1h-1zM37 67h1v1h-1zM38 67h1v1h-1zM39 67h1v1h-1zM40 67h1v1h-1zM41 67h1v1h-1zM5 68h1v1H5zM6 68h1v1H6zM7 68h1v1H7zM8 68h1v1H8zM9 68h1v1H9zM10 68h1v1h-1zM11 68h1v1h-1z"/><path fill="#282122" d="M12 68h1v1h-1z"/><path fill="#383E47" d="M13 68h1v1h-1z"/><path fill="#4D637A" d="M14 68h1v1h-1z"/><path fill="#577693" d="M15 68h1v1h-1z"/><path fill="#6189AC" d="M16 68h1v1h-1zM17 68h1v1h-1zM18 68h1v1h-1z"/><path fill="#71A5D1" d="M19 68h1v1h-1z"/><path fill="#76AEDE" d="M20 68h1v1h-1z"/><path fill="#6C9BC5" d="M21 68h1v1h-1z"/><path fill="#6189AC" d="M22 68h1v1h-1zM23 68h1v1h-1zM24 68h1v1h-1z"/><path fill="#577693" d="M25 68h1v1h-1z"/><path fill="#4D637A" d="M26 68h1v1h-1z"/><path fill="#425060" d="M27 68h1v1h-1z"/><path fill="#383E47" d="M28 68h1v1h-1z"/><path fill="#282122" d="M29 68h1v1h-1z"/><path fill="#231815" d="M30 68h1v1h-1zM31 68h1v1h-1zM32 68h1v1h-1zM33 68h1v1h-1zM34 68h1v1h-1zM35 68h1v1h-1zM36 68h1v1h-1zM37 68h1v1h-1zM38 68h1v1h-1zM39 68h1v1h-1zM6 69h1v1H6zM7 69h1v1H7zM8 69h1v1H8zM9 69h1v1H9zM10 69h1v1h-1zM11 69h1v1h-1zM12 69h1v1h-1zM13 69h1v1h-1zM14 69h1v1h-1zM15 69h1v1h-1zM16 69h1v1h-1zM17 69h1v1h-1zM18 69h1v1h-1zM19 69h1v1h-1zM20 69h1v1h-1zM21 69h1v1h-1zM22 69h1v1h-1zM23 69h1v1h-1zM24 69h1v1h-1zM25 69h1v1h-1zM26 69h1v1h-1zM27 69h1v1h-1zM28 69h1v1h-1zM29 69h1v1h-1zM30 69h1v1h-1zM31 69h1v1h-1zM32 69h1v1h-1zM33 69h1v1h-1zM34 69h1v1h-1zM35 69h1v1h-1zM36 69h1v1h-1zM37 69h1v1h-1zM9 70h1v1H9zM10 70h1v1h-1zM11 70h1v1h-1zM12 70h1v1h-1zM13 70h1v1h-1zM14 70h1v1h-1zM15 70h1v1h-1zM16 70h1v1h-1zM17 70h1v1h-1zM18 70h1v1h-1zM19 70h1v1h-1zM20 70h1v1h-1zM21 70h1v1h-1zM22 70h1v1h-1zM23 70h1v1h-1zM24 70h1v1h-1zM25 70h1v1h-1zM26 70h1v1h-1zM27 70h1v1h-1zM28 70h1v1h-1zM29 70h1v1h-1zM30 70h1v1h-1zM31 70h1v1h-1zM32 70h1v1h-1zM33 70h1v1h-1zM34 70h1v1h-1zM12 71h1v1h-1zM13 71h1v1h-1zM14 71h1v1h-1zM15 71h1v1h-1zM16 71h1v1h-1zM17 71h1v1h-1zM18 71h1v1h-1zM19 71h1v1h-1zM20 71h1v1h-1zM21 71h1v1h-1zM22 71h1v1h-1zM23 71h1v1h-1zM24 71h1v1h-1zM25 71h1v1h-1zM26 71h1v1h-1zM27 71h1v1h-1zM28 71h1v1h-1zM29 71h1v1h-1z"/></svg>