<svg baseProfile="full" height="89" width="90" xmlns="http://www.w3.org/2000/svg"><path fill="#231815" d="M63 0h1v1h-1zM64 0h1v1h-1zM65 0h1v1h-1zM66 0h1v1h-1zM67 0h1v1h-1zM68 0h1v1h-1zM69 0h1v1h-1zM70 0h1v1h-1zM60 1h1v1h-1zM61 1h1v1h-1zM62 1h1v1h-1zM63 1h1v1h-1zM64 1h1v1h-1zM65 1h1v1h-1zM66 1h1v1h-1zM67 1h1v1h-1zM68 1h1v1h-1zM69 1h1v1h-1zM70 1h1v1h-1zM71 1h1v1h-1zM72 1h1v1h-1zM58 2h1v1h-1zM59 2h1v1h-1zM60 2h1v1h-1zM61 2h1v1h-1zM62 2h1v1h-1zM63 2h1v1h-1zM64 2h1v1h-1zM65 2h1v1h-1zM66 2h1v1h-1zM67 2h1v1h-1zM68 2h1v1h-1zM69 2h1v1h-1zM70 2h1v1h-1zM71 2h1v1h-1zM72 2h1v1h-1zM73 2h1v1h-1zM57 3h1v1h-1zM58 3h1v1h-1zM59 3h1v1h-1zM60 3h1v1h-1zM61 3h1v1h-1zM62 3h1v1h-1z"/><path fill="#281F20" d="M63 3h1v1h-1z"/><path fill="#404458" d="M64 3h1v1h-1z"/><path fill="#546184" d="M65 3h1v1h-1z"/><path fill="#5E6F9B" d="M66 3h1v1h-1zM67 3h1v1h-1z"/><path fill="#546184" d="M68 3h1v1h-1z"/><path fill="#373542" d="M69 3h1v1h-1z"/><path fill="#231815" d="M70 3h1v1h-1zM71 3h1v1h-1zM72 3h1v1h-1zM73 3h1v1h-1zM74 3h1v1h-1zM56 4h1v1h-1zM57 4h1v1h-1zM58 4h1v1h-1zM59 4h1v1h-1zM60 4h1v1h-1z"/><path fill="#373542" d="M61 4h1v1h-1z"/><path fill="#59688F" d="M62 4h1v1h-1z"/><path fill="#718CC7" d="M63 4h1v1h-1zM64 4h1v1h-1zM65 4h1v1h-1zM66 4h1v1h-1zM67 4h1v1h-1zM68 4h1v1h-1zM69 4h1v1h-1z"/><path fill="#546184" d="M70 4h1v1h-1z"/><path fill="#231815" d="M71 4h1v1h-1zM72 4h1v1h-1zM73 4h1v1h-1zM74 4h1v1h-1zM56 5h1v1h-1zM57 5h1v1h-1zM58 5h1v1h-1z"/><path fill="#281F20" d="M59 5h1v1h-1z"/><path fill="#546184" d="M60 5h1v1h-1z"/><path fill="#718CC7" d="M61 5h1v1h-1z"/><path fill="#7C97CD" d="M62 5h1v1h-1z"/><path fill="#839ED1" d="M63 5h1v1h-1zM64 5h1v1h-1z"/><path fill="#7F99CF" d="M65 5h1v1h-1z"/><path fill="#718CC7" d="M66 5h1v1h-1zM67 5h1v1h-1zM68 5h1v1h-1zM69 5h1v1h-1zM70 5h1v1h-1z"/><path fill="#4F5979" d="M71 5h1v1h-1z"/><path fill="#231815" d="M72 5h1v1h-1zM73 5h1v1h-1zM74 5h1v1h-1zM75 5h1v1h-1zM55 6h1v1h-1zM56 6h1v1h-1zM57 6h1v1h-1z"/><path fill="#281F20" d="M58 6h1v1h-1z"/><path fill="#6578A7" d="M59 6h1v1h-1z"/><path fill="#839ED1" d="M60 6h1v1h-1z"/><path fill="#9BB4DD" d="M61 6h1v1h-1z"/><path fill="#A5BDE2" d="M62 6h1v1h-1z"/><path fill="#99B2DD" d="M63 6h1v1h-1z"/><path fill="#95AFDB" d="M64 6h1v1h-1zM65 6h1v1h-1z"/><path fill="#8EA8D7" d="M66 6h1v1h-1z"/><path fill="#718CC7" d="M67 6h1v1h-1zM68 6h1v1h-1zM69 6h1v1h-1zM70 6h1v1h-1zM71 6h1v1h-1z"/><path fill="#2D272B" d="M72 6h1v1h-1z"/><path fill="#231815" d="M73 6h1v1h-1zM74 6h1v1h-1zM75 6h1v1h-1zM55 7h1v1h-1zM56 7h1v1h-1zM57 7h1v1h-1z"/><path fill="#4C4E5E" d="M58 7h1v1h-1z"/><path fill="#93ADDA" d="M59 7h1v1h-1z"/><path fill="#9DB6DE" d="M60 7h1v1h-1z"/><path fill="#CFE2F4" d="M61 7h1v1h-1z"/><path fill="#D3E5F6" d="M62 7h1v1h-1z"/><path fill="#C7DBF1" d="M63 7h1v1h-1z"/><path fill="#95AFDB" d="M64 7h1v1h-1zM65 7h1v1h-1zM66 7h1v1h-1z"/><path fill="#819BD0" d="M67 7h1v1h-1z"/><path fill="#718CC7" d="M68 7h1v1h-1zM69 7h1v1h-1zM70 7h1v1h-1zM71 7h1v1h-1z"/><path fill="#4A526E" d="M72 7h1v1h-1z"/><path fill="#231815" d="M73 7h1v1h-1zM74 7h1v1h-1zM75 7h1v1h-1zM55 8h1v1h-1zM56 8h1v1h-1zM57 8h1v1h-1z"/><path fill="#71809D" d="M58 8h1v1h-1z"/><path fill="#95AFDB" d="M59 8h1v1h-1z"/><path fill="#B0C7E7" d="M60 8h1v1h-1z"/><path fill="#D3E5F6" d="M61 8h1v1h-1zM62 8h1v1h-1zM63 8h1v1h-1z"/><path fill="#A5BDE2" d="M64 8h1v1h-1z"/><path fill="#95AFDB" d="M65 8h1v1h-1zM66 8h1v1h-1z"/><path fill="#8EA8D7" d="M67 8h1v1h-1z"/><path fill="#718CC7" d="M68 8h1v1h-1zM69 8h1v1h-1zM70 8h1v1h-1zM71 8h1v1h-1z"/><path fill="#4A526E" d="M72 8h1v1h-1z"/><path fill="#231815" d="M73 8h1v1h-1zM74 8h1v1h-1zM75 8h1v1h-1zM54 9h1v1h-1zM55 9h1v1h-1zM56 9h1v1h-1zM57 9h1v1h-1z"/><path fill="#8EA6CF" d="M58 9h1v1h-1z"/><path fill="#95AFDB" d="M59 9h1v1h-1z"/><path fill="#B4CAE9" d="M60 9h1v1h-1z"/><path fill="#D3E5F6" d="M61 9h1v1h-1zM62 9h1v1h-1zM63 9h1v1h-1z"/><path fill="#ACC3E5" d="M64 9h1v1h-1z"/><path fill="#95AFDB" d="M65 9h1v1h-1zM66 9h1v1h-1zM67 9h1v1h-1z"/><path fill="#718CC7" d="M68 9h1v1h-1zM69 9h1v1h-1zM70 9h1v1h-1zM71 9h1v1h-1z"/><path fill="#4A526E" d="M72 9h1v1h-1z"/><path fill="#231815" d="M73 9h1v1h-1zM74 9h1v1h-1zM75 9h1v1h-1zM54 10h1v1h-1zM55 10h1v1h-1zM56 10h1v1h-1z"/><path fill="#38343A" d="M57 10h1v1h-1z"/><path fill="#95AFDB" d="M58 10h1v1h-1zM59 10h1v1h-1z"/><path fill="#BCD1EC" d="M60 10h1v1h-1z"/><path fill="#D3E5F6" d="M61 10h1v1h-1zM62 10h1v1h-1zM63 10h1v1h-1z"/><path fill="#B4CAE9" d="M64 10h1v1h-1z"/><path fill="#95AFDB" d="M65 10h1v1h-1zM66 10h1v1h-1zM67 10h1v1h-1z"/><path fill="#7893CB" d="M68 10h1v1h-1z"/><path fill="#718CC7" d="M69 10h1v1h-1zM70 10h1v1h-1zM71 10h1v1h-1z"/><path fill="#3B3C4D" d="M72 10h1v1h-1z"/><path fill="#231815" d="M73 10h1v1h-1zM74 10h1v1h-1zM75 10h1v1h-1zM54 11h1v1h-1zM55 11h1v1h-1zM56 11h1v1h-1z"/><path fill="#4E515F" d="M57 11h1v1h-1z"/><path fill="#95AFDB" d="M58 11h1v1h-1zM59 11h1v1h-1z"/><path fill="#C4D8EF" d="M60 11h1v1h-1z"/><path fill="#D3E5F6" d="M61 11h1v1h-1zM62 11h1v1h-1zM63 11h1v1h-1z"/><path fill="#B4CAE9" d="M64 11h1v1h-1z"/><path fill="#95AFDB" d="M65 11h1v1h-1zM66 11h1v1h-1zM67 11h1v1h-1z"/><path fill="#7A95CC" d="M68 11h1v1h-1z"/><path fill="#718CC7" d="M69 11h1v1h-1zM70 11h1v1h-1z"/><path fill="#6C85BC" d="M71 11h1v1h-1z"/><path fill="#231815" d="M72 11h1v1h-1zM73 11h1v1h-1zM74 11h1v1h-1zM75 11h1v1h-1zM54 12h1v1h-1zM55 12h1v1h-1zM56 12h1v1h-1z"/><path fill="#636D84" d="M57 12h1v1h-1z"/><path fill="#95AFDB" d="M58 12h1v1h-1zM59 12h1v1h-1z"/><path fill="#BCD1EC" d="M60 12h1v1h-1z"/><path fill="#D3E5F6" d="M61 12h1v1h-1zM62 12h1v1h-1zM63 12h1v1h-1z"/><path fill="#B4CAE9" d="M64 12h1v1h-1z"/><path fill="#95AFDB" d="M65 12h1v1h-1zM66 12h1v1h-1zM67 12h1v1h-1z"/><path fill="#7C97CD" d="M68 12h1v1h-1z"/><path fill="#718CC7" d="M69 12h1v1h-1zM70 12h1v1h-1z"/><path fill="#546184" d="M71 12h1v1h-1z"/><path fill="#231815" d="M72 12h1v1h-1zM73 12h1v1h-1zM74 12h1v1h-1zM54 13h1v1h-1zM55 13h1v1h-1zM56 13h1v1h-1z"/><path fill="#8093B6" d="M57 13h1v1h-1z"/><path fill="#95AFDB" d="M58 13h1v1h-1zM59 13h1v1h-1z"/><path fill="#B4CAE9" d="M60 13h1v1h-1z"/><path fill="#D3E5F6" d="M61 13h1v1h-1zM62 13h1v1h-1zM63 13h1v1h-1z"/><path fill="#ACC3E5" d="M64 13h1v1h-1z"/><path fill="#95AFDB" d="M65 13h1v1h-1zM66 13h1v1h-1zM67 13h1v1h-1z"/><path fill="#839ED1" d="M68 13h1v1h-1z"/><path fill="#718CC7" d="M69 13h1v1h-1zM70 13h1v1h-1z"/><path fill="#2D272B" d="M71 13h1v1h-1z"/><path fill="#231815" d="M72 13h1v1h-1zM73 13h1v1h-1zM74 13h1v1h-1zM53 14h1v1h-1zM54 14h1v1h-1zM55 14h1v1h-1z"/><path fill="#2A2121" d="M56 14h1v1h-1z"/><path fill="#95AFDB" d="M57 14h1v1h-1zM58 14h1v1h-1zM59 14h1v1h-1z"/><path fill="#B4CAE9" d="M60 14h1v1h-1z"/><path fill="#D3E5F6" d="M61 14h1v1h-1zM62 14h1v1h-1zM63 14h1v1h-1z"/><path fill="#A5BDE2" d="M64 14h1v1h-1z"/><path fill="#95AFDB" d="M65 14h1v1h-1zM66 14h1v1h-1zM67 14h1v1h-1z"/><path fill="#839ED1" d="M68 14h1v1h-1z"/><path fill="#718CC7" d="M69 14h1v1h-1z"/><path fill="#677EB1" d="M70 14h1v1h-1z"/><path fill="#231815" d="M71 14h1v1h-1zM72 14h1v1h-1zM73 14h1v1h-1zM74 14h1v1h-1zM75 14h1v1h-1zM76 14h1v1h-1zM77 14h1v1h-1zM78 14h1v1h-1zM79 14h1v1h-1zM80 14h1v1h-1zM81 14h1v1h-1zM53 15h1v1h-1zM54 15h1v1h-1zM55 15h1v1h-1z"/><path fill="#474753" d="M56 15h1v1h-1z"/><path fill="#95AFDB" d="M57 15h1v1h-1zM58 15h1v1h-1zM59 15h1v1h-1z"/><path fill="#A5BDE2" d="M60 15h1v1h-1z"/><path fill="#D3E5F6" d="M61 15h1v1h-1zM62 15h1v1h-1zM63 15h1v1h-1z"/><path fill="#9DB6DE" d="M64 15h1v1h-1z"/><path fill="#95AFDB" d="M65 15h1v1h-1zM66 15h1v1h-1zM67 15h1v1h-1z"/><path fill="#8AA4D5" d="M68 15h1v1h-1z"/><path fill="#718CC7" d="M69 15h1v1h-1z"/><path fill="#5E6F9B" d="M70 15h1v1h-1z"/><path fill="#231815" d="M71 15h1v1h-1zM72 15h1v1h-1zM73 15h1v1h-1zM74 15h1v1h-1zM75 15h1v1h-1zM76 15h1v1h-1zM77 15h1v1h-1zM78 15h1v1h-1zM79 15h1v1h-1zM80 15h1v1h-1zM81 15h1v1h-1zM82 15h1v1h-1zM83 15h1v1h-1zM84 15h1v1h-1zM53 16h1v1h-1zM54 16h1v1h-1zM55 16h1v1h-1z"/><path fill="#6A7691" d="M56 16h1v1h-1z"/><path fill="#95AFDB" d="M57 16h1v1h-1zM58 16h1v1h-1zM59 16h1v1h-1z"/><path fill="#99B2DD" d="M60 16h1v1h-1z"/><path fill="#D3E5F6" d="M61 16h1v1h-1zM62 16h1v1h-1z"/><path fill="#CBDEF3" d="M63 16h1v1h-1z"/><path fill="#95AFDB" d="M64 16h1v1h-1zM65 16h1v1h-1zM66 16h1v1h-1zM67 16h1v1h-1z"/><path fill="#93ADDA" d="M68 16h1v1h-1z"/><path fill="#738EC8" d="M69 16h1v1h-1z"/><path fill="#6C85BC" d="M70 16h1v1h-1z"/><path fill="#322E36" d="M71 16h1v1h-1z"/><path fill="#231815" d="M72 16h1v1h-1zM73 16h1v1h-1zM74 16h1v1h-1zM75 16h1v1h-1zM76 16h1v1h-1zM77 16h1v1h-1zM78 16h1v1h-1zM79 16h1v1h-1zM80 16h1v1h-1zM81 16h1v1h-1zM82 16h1v1h-1zM83 16h1v1h-1zM84 16h1v1h-1zM85 16h1v1h-1zM52 17h1v1h-1zM53 17h1v1h-1zM54 17h1v1h-1z"/><path fill="#2A2121" d="M55 17h1v1h-1z"/><path fill="#8EA6CF" d="M56 17h1v1h-1z"/><path fill="#95AFDB" d="M57 17h1v1h-1zM58 17h1v1h-1zM59 17h1v1h-1zM60 17h1v1h-1z"/><path fill="#BCD1EC" d="M61 17h1v1h-1z"/><path fill="#D3E5F6" d="M62 17h1v1h-1z"/><path fill="#B4CAE9" d="M63 17h1v1h-1z"/><path fill="#95AFDB" d="M64 17h1v1h-1zM65 17h1v1h-1zM66 17h1v1h-1zM67 17h1v1h-1zM68 17h1v1h-1z"/><path fill="#8CA6D6" d="M69 17h1v1h-1z"/><path fill="#839ED1" d="M70 17h1v1h-1z"/><path fill="#7E96C6" d="M71 17h1v1h-1z"/><path fill="#7081A5" d="M72 17h1v1h-1zM73 17h1v1h-1z"/><path fill="#839ED1" d="M74 17h1v1h-1zM75 17h1v1h-1zM76 17h1v1h-1z"/><path fill="#7C97CD" d="M77 17h1v1h-1z"/><path fill="#7086B6" d="M78 17h1v1h-1z"/><path fill="#59688F" d="M79 17h1v1h-1z"/><path fill="#404458" d="M80 17h1v1h-1z"/><path fill="#281F20" d="M81 17h1v1h-1z"/><path fill="#231815" d="M82 17h1v1h-1zM83 17h1v1h-1zM84 17h1v1h-1zM85 17h1v1h-1zM86 17h1v1h-1zM52 18h1v1h-1zM53 18h1v1h-1zM54 18h1v1h-1z"/><path fill="#4E515F" d="M55 18h1v1h-1z"/><path fill="#95AFDB" d="M56 18h1v1h-1zM57 18h1v1h-1zM58 18h1v1h-1zM59 18h1v1h-1zM60 18h1v1h-1z"/><path fill="#99B2DD" d="M61 18h1v1h-1z"/><path fill="#B0C7E7" d="M62 18h1v1h-1z"/><path fill="#95AFDB" d="M63 18h1v1h-1zM64 18h1v1h-1zM65 18h1v1h-1zM66 18h1v1h-1zM67 18h1v1h-1zM68 18h1v1h-1zM69 18h1v1h-1zM70 18h1v1h-1zM71 18h1v1h-1zM72 18h1v1h-1zM73 18h1v1h-1zM74 18h1v1h-1zM75 18h1v1h-1zM76 18h1v1h-1zM77 18h1v1h-1zM78 18h1v1h-1zM79 18h1v1h-1z"/><path fill="#8EA8D7" d="M80 18h1v1h-1z"/><path fill="#8098C7" d="M81 18h1v1h-1z"/><path fill="#4F5671" d="M82 18h1v1h-1z"/><path fill="#281F20" d="M83 18h1v1h-1z"/><path fill="#231815" d="M84 18h1v1h-1zM85 18h1v1h-1zM86 18h1v1h-1zM87 18h1v1h-1zM39 19h1v1h-1zM40 19h1v1h-1zM41 19h1v1h-1zM42 19h1v1h-1zM43 19h1v1h-1zM44 19h1v1h-1zM45 19h1v1h-1zM46 19h1v1h-1zM47 19h1v1h-1zM48 19h1v1h-1zM49 19h1v1h-1zM50 19h1v1h-1zM51 19h1v1h-1zM52 19h1v1h-1zM53 19h1v1h-1zM54 19h1v1h-1z"/><path fill="#879CC2" d="M55 19h1v1h-1z"/><path fill="#95AFDB" d="M56 19h1v1h-1zM57 19h1v1h-1zM58 19h1v1h-1zM59 19h1v1h-1zM60 19h1v1h-1zM61 19h1v1h-1zM62 19h1v1h-1zM63 19h1v1h-1zM64 19h1v1h-1zM65 19h1v1h-1zM66 19h1v1h-1zM67 19h1v1h-1zM68 19h1v1h-1zM69 19h1v1h-1zM70 19h1v1h-1zM71 19h1v1h-1zM72 19h1v1h-1zM73 19h1v1h-1zM74 19h1v1h-1zM75 19h1v1h-1zM76 19h1v1h-1zM77 19h1v1h-1zM78 19h1v1h-1zM79 19h1v1h-1zM80 19h1v1h-1zM81 19h1v1h-1zM82 19h1v1h-1z"/><path fill="#7C91BC" d="M83 19h1v1h-1z"/><path fill="#322E36" d="M84 19h1v1h-1z"/><path fill="#231815" d="M85 19h1v1h-1zM86 19h1v1h-1zM87 19h1v1h-1zM88 19h1v1h-1zM36 20h1v1h-1zM37 20h1v1h-1zM38 20h1v1h-1zM39 20h1v1h-1zM40 20h1v1h-1zM41 20h1v1h-1zM42 20h1v1h-1zM43 20h1v1h-1zM44 20h1v1h-1zM45 20h1v1h-1zM46 20h1v1h-1zM47 20h1v1h-1zM48 20h1v1h-1zM49 20h1v1h-1zM50 20h1v1h-1zM51 20h1v1h-1zM52 20h1v1h-1zM53 20h1v1h-1z"/><path fill="#2A2121" d="M54 20h1v1h-1z"/><path fill="#636D84" d="M55 20h1v1h-1z"/><path fill="#8CA8D7" d="M56 20h1v1h-1z"/><path fill="#95AFDB" d="M57 20h1v1h-1zM58 20h1v1h-1zM59 20h1v1h-1zM60 20h1v1h-1zM61 20h1v1h-1zM62 20h1v1h-1zM63 20h1v1h-1zM64 20h1v1h-1zM65 20h1v1h-1zM66 20h1v1h-1zM67 20h1v1h-1zM68 20h1v1h-1zM69 20h1v1h-1zM70 20h1v1h-1zM71 20h1v1h-1zM72 20h1v1h-1zM73 20h1v1h-1zM74 20h1v1h-1zM75 20h1v1h-1zM76 20h1v1h-1zM77 20h1v1h-1zM78 20h1v1h-1zM79 20h1v1h-1zM80 20h1v1h-1zM81 20h1v1h-1zM82 20h1v1h-1zM83 20h1v1h-1z"/><path fill="#7A92C3" d="M84 20h1v1h-1z"/><path fill="#322E36" d="M85 20h1v1h-1z"/><path fill="#231815" d="M86 20h1v1h-1zM87 20h1v1h-1zM88 20h1v1h-1zM89 20h1v1h-1zM34 21h1v1h-1zM35 21h1v1h-1zM36 21h1v1h-1zM37 21h1v1h-1zM38 21h1v1h-1zM39 21h1v1h-1zM40 21h1v1h-1zM41 21h1v1h-1zM42 21h1v1h-1zM43 21h1v1h-1zM44 21h1v1h-1zM45 21h1v1h-1zM46 21h1v1h-1zM47 21h1v1h-1zM48 21h1v1h-1zM49 21h1v1h-1zM50 21h1v1h-1zM51 21h1v1h-1zM52 21h1v1h-1zM53 21h1v1h-1zM54 21h1v1h-1zM55 21h1v1h-1z"/><path fill="#1B335B" d="M56 21h1v1h-1z"/><path fill="#4B78BA" d="M57 21h1v1h-1z"/><path fill="#8CA8D7" d="M58 21h1v1h-1z"/><path fill="#95AFDB" d="M59 21h1v1h-1zM60 21h1v1h-1zM61 21h1v1h-1zM62 21h1v1h-1zM63 21h1v1h-1zM64 21h1v1h-1zM65 21h1v1h-1zM66 21h1v1h-1z"/><path fill="#7C90C8" d="M67 21h1v1h-1z"/><path fill="#535CA8" d="M68 21h1v1h-1z"/><path fill="#5761AB" d="M69 21h1v1h-1z"/><path fill="#8DA5D5" d="M70 21h1v1h-1z"/><path fill="#95AFDB" d="M71 21h1v1h-1zM72 21h1v1h-1zM73 21h1v1h-1zM74 21h1v1h-1zM75 21h1v1h-1zM76 21h1v1h-1zM77 21h1v1h-1zM78 21h1v1h-1zM79 21h1v1h-1zM80 21h1v1h-1zM81 21h1v1h-1zM82 21h1v1h-1zM83 21h1v1h-1z"/><path fill="#7A95CC" d="M84 21h1v1h-1z"/><path fill="#6C85BC" d="M85 21h1v1h-1z"/><path fill="#281F20" d="M86 21h1v1h-1z"/><path fill="#231815" d="M87 21h1v1h-1zM88 21h1v1h-1zM89 21h1v1h-1zM32 22h1v1h-1zM33 22h1v1h-1zM34 22h1v1h-1zM35 22h1v1h-1zM36 22h1v1h-1zM37 22h1v1h-1zM38 22h1v1h-1z"/><path fill="#281F20" d="M39 22h1v1h-1z"/><path fill="#3B3C4D" d="M40 22h1v1h-1z"/><path fill="#4F5979" d="M41 22h1v1h-1z"/><path fill="#5E6F9B" d="M42 22h1v1h-1z"/><path fill="#718CC7" d="M43 22h1v1h-1zM44 22h1v1h-1zM45 22h1v1h-1zM46 22h1v1h-1zM47 22h1v1h-1zM48 22h1v1h-1z"/><path fill="#677EB1" d="M49 22h1v1h-1z"/><path fill="#5E6F9B" d="M50 22h1v1h-1z"/><path fill="#4A526E" d="M51 22h1v1h-1z"/><path fill="#322E36" d="M52 22h1v1h-1z"/><path fill="#231815" d="M53 22h1v1h-1zM54 22h1v1h-1zM55 22h1v1h-1z"/><path fill="#162747" d="M56 22h1v1h-1z"/><path fill="#014099" d="M57 22h1v1h-1z"/><path fill="#0A479D" d="M58 22h1v1h-1z"/><path fill="#4B78BA" d="M59 22h1v1h-1z"/><path fill="#95AFDB" d="M60 22h1v1h-1zM61 22h1v1h-1zM62 22h1v1h-1zM63 22h1v1h-1zM64 22h1v1h-1zM65 22h1v1h-1z"/><path fill="#7486C2" d="M66 22h1v1h-1z"/><path fill="#535CA8" d="M67 22h1v1h-1zM68 22h1v1h-1zM69 22h1v1h-1z"/><path fill="#859ACE" d="M70 22h1v1h-1z"/><path fill="#95AFDB" d="M71 22h1v1h-1zM72 22h1v1h-1zM73 22h1v1h-1zM74 22h1v1h-1zM75 22h1v1h-1zM76 22h1v1h-1zM77 22h1v1h-1zM78 22h1v1h-1zM79 22h1v1h-1zM80 22h1v1h-1zM81 22h1v1h-1zM82 22h1v1h-1z"/><path fill="#819BD0" d="M83 22h1v1h-1z"/><path fill="#718CC7" d="M84 22h1v1h-1zM85 22h1v1h-1z"/><path fill="#4A526E" d="M86 22h1v1h-1z"/><path fill="#231815" d="M87 22h1v1h-1zM88 22h1v1h-1zM89 22h1v1h-1zM31 23h1v1h-1zM32 23h1v1h-1zM33 23h1v1h-1zM34 23h1v1h-1zM35 23h1v1h-1zM36 23h1v1h-1z"/><path fill="#373542" d="M37 23h1v1h-1z"/><path fill="#59688F" d="M38 23h1v1h-1z"/><path fill="#718CC7" d="M39 23h1v1h-1zM40 23h1v1h-1zM41 23h1v1h-1zM42 23h1v1h-1zM43 23h1v1h-1zM44 23h1v1h-1zM45 23h1v1h-1zM46 23h1v1h-1zM47 23h1v1h-1zM48 23h1v1h-1zM49 23h1v1h-1zM50 23h1v1h-1zM51 23h1v1h-1zM52 23h1v1h-1z"/><path fill="#677EB1" d="M53 23h1v1h-1z"/><path fill="#4F5979" d="M54 23h1v1h-1z"/><path fill="#20365D" d="M55 23h1v1h-1z"/><path fill="#033E91" d="M56 23h1v1h-1z"/><path fill="#014099" d="M57 23h1v1h-1zM58 23h1v1h-1zM59 23h1v1h-1z"/><path fill="#1D55A5" d="M60 23h1v1h-1z"/><path fill="#799ACF" d="M61 23h1v1h-1z"/><path fill="#95AFDB" d="M62 23h1v1h-1zM63 23h1v1h-1z"/><path fill="#91AAD8" d="M64 23h1v1h-1z"/><path fill="#6876B8" d="M65 23h1v1h-1z"/><path fill="#535CA8" d="M66 23h1v1h-1zM67 23h1v1h-1zM68 23h1v1h-1z"/><path fill="#5F6CB2" d="M69 23h1v1h-1z"/><path fill="#91AAD8" d="M70 23h1v1h-1z"/><path fill="#95AFDB" d="M71 23h1v1h-1zM72 23h1v1h-1zM73 23h1v1h-1zM74 23h1v1h-1zM75 23h1v1h-1zM76 23h1v1h-1zM77 23h1v1h-1zM78 23h1v1h-1zM79 23h1v1h-1zM80 23h1v1h-1z"/><path fill="#8EA8D7" d="M81 23h1v1h-1z"/><path fill="#7893CB" d="M82 23h1v1h-1z"/><path fill="#718CC7" d="M83 23h1v1h-1zM84 23h1v1h-1zM85 23h1v1h-1z"/><path fill="#5E6F9B" d="M86 23h1v1h-1z"/><path fill="#231815" d="M87 23h1v1h-1zM88 23h1v1h-1zM89 23h1v1h-1zM29 24h1v1h-1zM30 24h1v1h-1zM31 24h1v1h-1zM32 24h1v1h-1zM33 24h1v1h-1zM34 24h1v1h-1z"/><path fill="#353240" d="M35 24h1v1h-1z"/><path fill="#5E6F9B" d="M36 24h1v1h-1z"/><path fill="#718CC7" d="M37 24h1v1h-1zM38 24h1v1h-1zM39 24h1v1h-1zM40 24h1v1h-1z"/><path fill="#738EC8" d="M41 24h1v1h-1z"/><path fill="#7A95CC" d="M42 24h1v1h-1zM43 24h1v1h-1zM44 24h1v1h-1zM45 24h1v1h-1z"/><path fill="#7690CA" d="M46 24h1v1h-1z"/><path fill="#718CC7" d="M47 24h1v1h-1zM48 24h1v1h-1zM49 24h1v1h-1zM50 24h1v1h-1z"/><path fill="#6A80BF" d="M51 24h1v1h-1z"/><path fill="#6274B8" d="M52 24h1v1h-1z"/><path fill="#5C6BB2" d="M53 24h1v1h-1z"/><path fill="#5B68B0" d="M54 24h1v1h-1z"/><path fill="#555FAA" d="M55 24h1v1h-1z"/><path fill="#3452A2" d="M56 24h1v1h-1z"/><path fill="#0B449B" d="M57 24h1v1h-1z"/><path fill="#014099" d="M58 24h1v1h-1zM59 24h1v1h-1zM60 24h1v1h-1z"/><path fill="#0A479D" d="M61 24h1v1h-1z"/><path fill="#6387C3" d="M62 24h1v1h-1z"/><path fill="#788BC5" d="M63 24h1v1h-1z"/><path fill="#5761AB" d="M64 24h1v1h-1z"/><path fill="#535CA8" d="M65 24h1v1h-1zM66 24h1v1h-1zM67 24h1v1h-1z"/><path fill="#5F6CB2" d="M68 24h1v1h-1z"/><path fill="#91AAD8" d="M69 24h1v1h-1z"/><path fill="#95AFDB" d="M70 24h1v1h-1zM71 24h1v1h-1zM72 24h1v1h-1zM73 24h1v1h-1zM74 24h1v1h-1zM75 24h1v1h-1zM76 24h1v1h-1zM77 24h1v1h-1zM78 24h1v1h-1z"/><path fill="#91ABD9" d="M79 24h1v1h-1z"/><path fill="#7F99CF" d="M80 24h1v1h-1z"/><path fill="#718CC7" d="M81 24h1v1h-1zM82 24h1v1h-1zM83 24h1v1h-1zM84 24h1v1h-1zM85 24h1v1h-1z"/><path fill="#5E6F9B" d="M86 24h1v1h-1z"/><path fill="#231815" d="M87 24h1v1h-1zM88 24h1v1h-1zM89 24h1v1h-1zM28 25h1v1h-1zM29 25h1v1h-1zM30 25h1v1h-1zM31 25h1v1h-1zM32 25h1v1h-1z"/><path fill="#261C1E" d="M33 25h1v1h-1z"/><path fill="#55628C" d="M34 25h1v1h-1z"/><path fill="#718CC7" d="M35 25h1v1h-1zM36 25h1v1h-1zM37 25h1v1h-1z"/><path fill="#7C97CD" d="M38 25h1v1h-1z"/><path fill="#88A2D4" d="M39 25h1v1h-1z"/><path fill="#91ABD9" d="M40 25h1v1h-1z"/><path fill="#95AFDB" d="M41 25h1v1h-1zM42 25h1v1h-1zM43 25h1v1h-1zM44 25h1v1h-1zM45 25h1v1h-1zM46 25h1v1h-1z"/><path fill="#93ADDA" d="M47 25h1v1h-1z"/><path fill="#7388C4" d="M48 25h1v1h-1z"/><path fill="#5C6BB2" d="M49 25h1v1h-1z"/><path fill="#555FAA" d="M50 25h1v1h-1z"/><path fill="#535CA8" d="M51 25h1v1h-1zM52 25h1v1h-1zM53 25h1v1h-1zM54 25h1v1h-1zM55 25h1v1h-1zM56 25h1v1h-1z"/><path fill="#4E5AA7" d="M57 25h1v1h-1z"/><path fill="#254CA0" d="M58 25h1v1h-1z"/><path fill="#014099" d="M59 25h1v1h-1zM60 25h1v1h-1zM61 25h1v1h-1zM62 25h1v1h-1z"/><path fill="#3452A2" d="M63 25h1v1h-1z"/><path fill="#535CA8" d="M64 25h1v1h-1zM65 25h1v1h-1zM66 25h1v1h-1z"/><path fill="#6876B8" d="M67 25h1v1h-1z"/><path fill="#91AAD8" d="M68 25h1v1h-1z"/><path fill="#95AFDB" d="M69 25h1v1h-1zM70 25h1v1h-1zM71 25h1v1h-1zM72 25h1v1h-1zM73 25h1v1h-1zM74 25h1v1h-1zM75 25h1v1h-1zM76 25h1v1h-1z"/><path fill="#93ADDA" d="M77 25h1v1h-1z"/><path fill="#819BD0" d="M78 25h1v1h-1z"/><path fill="#718CC7" d="M79 25h1v1h-1zM80 25h1v1h-1zM81 25h1v1h-1zM82 25h1v1h-1zM83 25h1v1h-1zM84 25h1v1h-1zM85 25h1v1h-1z"/><path fill="#404458" d="M86 25h1v1h-1z"/><path fill="#231815" d="M87 25h1v1h-1zM88 25h1v1h-1zM89 25h1v1h-1zM27 26h1v1h-1zM28 26h1v1h-1zM29 26h1v1h-1zM30 26h1v1h-1zM31 26h1v1h-1z"/><path fill="#312C3C" d="M32 26h1v1h-1z"/><path fill="#687FB8" d="M33 26h1v1h-1z"/><path fill="#718CC7" d="M34 26h1v1h-1zM35 26h1v1h-1z"/><path fill="#7F99CF" d="M36 26h1v1h-1z"/><path fill="#91ABD9" d="M37 26h1v1h-1z"/><path fill="#95AFDB" d="M38 26h1v1h-1zM39 26h1v1h-1zM40 26h1v1h-1zM41 26h1v1h-1zM42 26h1v1h-1zM43 26h1v1h-1zM44 26h1v1h-1zM45 26h1v1h-1z"/><path fill="#7C90C8" d="M46 26h1v1h-1z"/><path fill="#5B66AE" d="M47 26h1v1h-1z"/><path fill="#535CA8" d="M48 26h1v1h-1zM49 26h1v1h-1zM50 26h1v1h-1zM51 26h1v1h-1zM52 26h1v1h-1zM53 26h1v1h-1zM54 26h1v1h-1zM55 26h1v1h-1zM56 26h1v1h-1zM57 26h1v1h-1zM58 26h1v1h-1z"/><path fill="#3F55A4" d="M59 26h1v1h-1z"/><path fill="#06429A" d="M60 26h1v1h-1z"/><path fill="#014099" d="M61 26h1v1h-1zM62 26h1v1h-1zM63 26h1v1h-1z"/><path fill="#3452A2" d="M64 26h1v1h-1z"/><path fill="#5761AB" d="M65 26h1v1h-1z"/><path fill="#788BC5" d="M66 26h1v1h-1z"/><path fill="#95AFDB" d="M67 26h1v1h-1zM68 26h1v1h-1zM69 26h1v1h-1zM70 26h1v1h-1zM71 26h1v1h-1zM72 26h1v1h-1zM73 26h1v1h-1zM74 26h1v1h-1z"/><path fill="#93ADDA" d="M75 26h1v1h-1z"/><path fill="#839ED1" d="M76 26h1v1h-1z"/><path fill="#738EC8" d="M77 26h1v1h-1z"/><path fill="#718CC7" d="M78 26h1v1h-1zM79 26h1v1h-1zM80 26h1v1h-1zM81 26h1v1h-1zM82 26h1v1h-1zM83 26h1v1h-1zM84 26h1v1h-1z"/><path fill="#59688F" d="M85 26h1v1h-1z"/><path fill="#231815" d="M86 26h1v1h-1zM87 26h1v1h-1zM88 26h1v1h-1zM89 26h1v1h-1zM27 27h1v1h-1zM28 27h1v1h-1zM29 27h1v1h-1zM30 27h1v1h-1z"/><path fill="#3B3B52" d="M31 27h1v1h-1z"/><path fill="#6F89C5" d="M32 27h1v1h-1z"/><path fill="#718CC7" d="M33 27h1v1h-1z"/><path fill="#7893CB" d="M34 27h1v1h-1z"/><path fill="#8EA8D7" d="M35 27h1v1h-1z"/><path fill="#95AFDB" d="M36 27h1v1h-1zM37 27h1v1h-1zM38 27h1v1h-1zM39 27h1v1h-1zM40 27h1v1h-1zM41 27h1v1h-1zM42 27h1v1h-1zM43 27h1v1h-1z"/><path fill="#8095CB" d="M44 27h1v1h-1z"/><path fill="#5B66AE" d="M45 27h1v1h-1z"/><path fill="#535CA8" d="M46 27h1v1h-1zM47 27h1v1h-1zM48 27h1v1h-1zM49 27h1v1h-1zM50 27h1v1h-1z"/><path fill="#5B66AE" d="M51 27h1v1h-1z"/><path fill="#6A79BA" d="M52 27h1v1h-1z"/><path fill="#687CBD" d="M53 27h1v1h-1z"/><path fill="#6A80BF" d="M54 27h1v1h-1z"/><path fill="#6F89C5" d="M55 27h1v1h-1z"/><path fill="#718CC7" d="M56 27h1v1h-1zM57 27h1v1h-1zM58 27h1v1h-1zM59 27h1v1h-1z"/><path fill="#546BB2" d="M60 27h1v1h-1z"/><path fill="#10459C" d="M61 27h1v1h-1z"/><path fill="#014099" d="M62 27h1v1h-1zM63 27h1v1h-1zM64 27h1v1h-1z"/><path fill="#5980BF" d="M65 27h1v1h-1z"/><path fill="#95AFDB" d="M66 27h1v1h-1zM67 27h1v1h-1zM68 27h1v1h-1zM69 27h1v1h-1zM70 27h1v1h-1zM71 27h1v1h-1zM72 27h1v1h-1z"/><path fill="#93ADDA" d="M73 27h1v1h-1z"/><path fill="#839ED1" d="M74 27h1v1h-1z"/><path fill="#738EC8" d="M75 27h1v1h-1z"/><path fill="#718CC7" d="M76 27h1v1h-1zM77 27h1v1h-1zM78 27h1v1h-1zM79 27h1v1h-1zM80 27h1v1h-1zM81 27h1v1h-1zM82 27h1v1h-1zM83 27h1v1h-1z"/><path fill="#677EB1" d="M84 27h1v1h-1z"/><path fill="#281F20" d="M85 27h1v1h-1z"/><path fill="#231815" d="M86 27h1v1h-1zM87 27h1v1h-1zM88 27h1v1h-1zM26 28h1v1h-1zM27 28h1v1h-1zM28 28h1v1h-1zM29 28h1v1h-1z"/><path fill="#3B3B52" d="M30 28h1v1h-1z"/><path fill="#6F89C5" d="M31 28h1v1h-1z"/><path fill="#718CC7" d="M32 28h1v1h-1z"/><path fill="#7F99CF" d="M33 28h1v1h-1z"/><path fill="#93ADDA" d="M34 28h1v1h-1z"/><path fill="#99B2DD" d="M35 28h1v1h-1z"/><path fill="#A5BDE2" d="M36 28h1v1h-1z"/><path fill="#95AFDB" d="M37 28h1v1h-1zM38 28h1v1h-1zM39 28h1v1h-1zM40 28h1v1h-1zM41 28h1v1h-1z"/><path fill="#91AAD8" d="M42 28h1v1h-1z"/><path fill="#6876B8" d="M43 28h1v1h-1z"/><path fill="#535CA8" d="M44 28h1v1h-1zM45 28h1v1h-1zM46 28h1v1h-1zM47 28h1v1h-1z"/><path fill="#5761AB" d="M48 28h1v1h-1z"/><path fill="#7080BE" d="M49 28h1v1h-1z"/><path fill="#899FD1" d="M50 28h1v1h-1z"/><path fill="#95AFDB" d="M51 28h1v1h-1zM52 28h1v1h-1z"/><path fill="#8EA8D7" d="M53 28h1v1h-1z"/><path fill="#738EC8" d="M54 28h1v1h-1z"/><path fill="#718CC7" d="M55 28h1v1h-1zM56 28h1v1h-1zM57 28h1v1h-1zM58 28h1v1h-1zM59 28h1v1h-1zM60 28h1v1h-1z"/><path fill="#5566AF" d="M61 28h1v1h-1z"/><path fill="#10459C" d="M62 28h1v1h-1z"/><path fill="#014099" d="M63 28h1v1h-1zM64 28h1v1h-1zM65 28h1v1h-1z"/><path fill="#799ACF" d="M66 28h1v1h-1z"/><path fill="#95AFDB" d="M67 28h1v1h-1zM68 28h1v1h-1zM69 28h1v1h-1zM70 28h1v1h-1zM71 28h1v1h-1z"/><path fill="#839ED1" d="M72 28h1v1h-1z"/><path fill="#738EC8" d="M73 28h1v1h-1z"/><path fill="#718CC7" d="M74 28h1v1h-1zM75 28h1v1h-1zM76 28h1v1h-1zM77 28h1v1h-1zM78 28h1v1h-1zM79 28h1v1h-1zM80 28h1v1h-1zM81 28h1v1h-1zM82 28h1v1h-1zM83 28h1v1h-1z"/><path fill="#373542" d="M84 28h1v1h-1z"/><path fill="#231815" d="M85 28h1v1h-1zM86 28h1v1h-1zM87 28h1v1h-1zM88 28h1v1h-1zM25 29h1v1h-1zM26 29h1v1h-1zM27 29h1v1h-1zM28 29h1v1h-1z"/><path fill="#37354E" d="M29 29h1v1h-1z"/><path fill="#6F89C5" d="M30 29h1v1h-1z"/><path fill="#718CC7" d="M31 29h1v1h-1z"/><path fill="#7F99CF" d="M32 29h1v1h-1z"/><path fill="#95AFDB" d="M33 29h1v1h-1z"/><path fill="#B4CAE9" d="M34 29h1v1h-1z"/><path fill="#D3E5F6" d="M35 29h1v1h-1zM36 29h1v1h-1z"/><path fill="#BCD1EC" d="M37 29h1v1h-1z"/><path fill="#95AFDB" d="M38 29h1v1h-1zM39 29h1v1h-1zM40 29h1v1h-1z"/><path fill="#899FD1" d="M41 29h1v1h-1z"/><path fill="#5B66AE" d="M42 29h1v1h-1z"/><path fill="#535CA8" d="M43 29h1v1h-1zM44 29h1v1h-1zM45 29h1v1h-1z"/><path fill="#5761AB" d="M46 29h1v1h-1z"/><path fill="#7486C2" d="M47 29h1v1h-1z"/><path fill="#91AAD8" d="M48 29h1v1h-1z"/><path fill="#95AFDB" d="M49 29h1v1h-1zM50 29h1v1h-1zM51 29h1v1h-1zM52 29h1v1h-1zM53 29h1v1h-1z"/><path fill="#8EA8D7" d="M54 29h1v1h-1z"/><path fill="#738EC8" d="M55 29h1v1h-1z"/><path fill="#718CC7" d="M56 29h1v1h-1zM57 29h1v1h-1zM58 29h1v1h-1zM59 29h1v1h-1zM60 29h1v1h-1z"/><path fill="#6F89C5" d="M61 29h1v1h-1z"/><path fill="#505DA9" d="M62 29h1v1h-1z"/><path fill="#0B449B" d="M63 29h1v1h-1z"/><path fill="#014099" d="M64 29h1v1h-1zM65 29h1v1h-1z"/><path fill="#144EA1" d="M66 29h1v1h-1z"/><path fill="#8CA8D7" d="M67 29h1v1h-1z"/><path fill="#95AFDB" d="M68 29h1v1h-1zM69 29h1v1h-1z"/><path fill="#88A2D4" d="M70 29h1v1h-1z"/><path fill="#7690CA" d="M71 29h1v1h-1z"/><path fill="#718CC7" d="M72 29h1v1h-1zM73 29h1v1h-1zM74 29h1v1h-1zM75 29h1v1h-1zM76 29h1v1h-1zM77 29h1v1h-1zM78 29h1v1h-1zM79 29h1v1h-1zM80 29h1v1h-1zM81 29h1v1h-1zM82 29h1v1h-1z"/><path fill="#5E6F9B" d="M83 29h1v1h-1z"/><path fill="#231815" d="M84 29h1v1h-1zM85 29h1v1h-1zM86 29h1v1h-1zM87 29h1v1h-1zM24 30h1v1h-1zM25 30h1v1h-1zM26 30h1v1h-1zM27 30h1v1h-1z"/><path fill="#2F293A" d="M28 30h1v1h-1z"/><path fill="#6B83C1" d="M29 30h1v1h-1z"/><path fill="#718CC7" d="M30 30h1v1h-1z"/><path fill="#7C97CD" d="M31 30h1v1h-1z"/><path fill="#95AFDB" d="M32 30h1v1h-1z"/><path fill="#BCD1EC" d="M33 30h1v1h-1z"/><path fill="#D3E5F6" d="M34 30h1v1h-1zM35 30h1v1h-1zM36 30h1v1h-1z"/><path fill="#C4D8EF" d="M37 30h1v1h-1z"/><path fill="#95AFDB" d="M38 30h1v1h-1zM39 30h1v1h-1z"/><path fill="#8095CB" d="M40 30h1v1h-1z"/><path fill="#5761AB" d="M41 30h1v1h-1z"/><path fill="#535CA8" d="M42 30h1v1h-1zM43 30h1v1h-1zM44 30h1v1h-1z"/><path fill="#6876B8" d="M45 30h1v1h-1z"/><path fill="#8DA5D5" d="M46 30h1v1h-1z"/><path fill="#95AFDB" d="M47 30h1v1h-1zM48 30h1v1h-1zM49 30h1v1h-1zM50 30h1v1h-1zM51 30h1v1h-1zM52 30h1v1h-1zM53 30h1v1h-1zM54 30h1v1h-1z"/><path fill="#88A2D4" d="M55 30h1v1h-1z"/><path fill="#718CC7" d="M56 30h1v1h-1zM57 30h1v1h-1zM58 30h1v1h-1zM59 30h1v1h-1zM60 30h1v1h-1zM61 30h1v1h-1z"/><path fill="#687DBD" d="M62 30h1v1h-1z"/><path fill="#4457A5" d="M63 30h1v1h-1z"/><path fill="#06429A" d="M64 30h1v1h-1z"/><path fill="#014099" d="M65 30h1v1h-1zM66 30h1v1h-1z"/><path fill="#396AB2" d="M67 30h1v1h-1z"/><path fill="#8EA8D7" d="M68 30h1v1h-1z"/><path fill="#7A95CC" d="M69 30h1v1h-1z"/><path fill="#718CC7" d="M70 30h1v1h-1zM71 30h1v1h-1zM72 30h1v1h-1zM73 30h1v1h-1zM74 30h1v1h-1zM75 30h1v1h-1zM76 30h1v1h-1zM77 30h1v1h-1zM78 30h1v1h-1zM79 30h1v1h-1zM80 30h1v1h-1zM81 30h1v1h-1zM82 30h1v1h-1z"/><path fill="#3B3C4D" d="M83 30h1v1h-1z"/><path fill="#231815" d="M84 30h1v1h-1zM85 30h1v1h-1zM86 30h1v1h-1zM24 31h1v1h-1zM25 31h1v1h-1zM26 31h1v1h-1z"/><path fill="#261C1E" d="M27 31h1v1h-1z"/><path fill="#5F70AE" d="M28 31h1v1h-1z"/><path fill="#718CC7" d="M29 31h1v1h-1z"/><path fill="#7690CA" d="M30 31h1v1h-1z"/><path fill="#93ADDA" d="M31 31h1v1h-1z"/><path fill="#B8CDEA" d="M32 31h1v1h-1z"/><path fill="#D3E5F6" d="M33 31h1v1h-1zM34 31h1v1h-1zM35 31h1v1h-1zM36 31h1v1h-1z"/><path fill="#C4D8EF" d="M37 31h1v1h-1z"/><path fill="#95AFDB" d="M38 31h1v1h-1z"/><path fill="#7C90C8" d="M39 31h1v1h-1z"/><path fill="#535CA8" d="M40 31h1v1h-1zM41 31h1v1h-1zM42 31h1v1h-1zM43 31h1v1h-1z"/><path fill="#788BC5" d="M44 31h1v1h-1z"/><path fill="#95AFDB" d="M45 31h1v1h-1zM46 31h1v1h-1zM47 31h1v1h-1zM48 31h1v1h-1zM49 31h1v1h-1zM50 31h1v1h-1zM51 31h1v1h-1zM52 31h1v1h-1zM53 31h1v1h-1zM54 31h1v1h-1zM55 31h1v1h-1z"/><path fill="#7A95CC" d="M56 31h1v1h-1z"/><path fill="#718CC7" d="M57 31h1v1h-1zM58 31h1v1h-1zM59 31h1v1h-1zM60 31h1v1h-1zM61 31h1v1h-1zM62 31h1v1h-1z"/><path fill="#5B68B0" d="M63 31h1v1h-1z"/><path fill="#2F50A1" d="M64 31h1v1h-1z"/><path fill="#014099" d="M65 31h1v1h-1zM66 31h1v1h-1zM67 31h1v1h-1z"/><path fill="#5579BC" d="M68 31h1v1h-1z"/><path fill="#718CC7" d="M69 31h1v1h-1zM70 31h1v1h-1zM71 31h1v1h-1zM72 31h1v1h-1zM73 31h1v1h-1zM74 31h1v1h-1zM75 31h1v1h-1zM76 31h1v1h-1zM77 31h1v1h-1zM78 31h1v1h-1z"/><path fill="#6D86C3" d="M79 31h1v1h-1z"/><path fill="#667ABB" d="M80 31h1v1h-1z"/><path fill="#6071B6" d="M81 31h1v1h-1z"/><path fill="#5661A5" d="M82 31h1v1h-1z"/><path fill="#231815" d="M83 31h1v1h-1zM84 31h1v1h-1zM85 31h1v1h-1zM86 31h1v1h-1zM23 32h1v1h-1zM24 32h1v1h-1zM25 32h1v1h-1zM26 32h1v1h-1z"/><path fill="#454975" d="M27 32h1v1h-1z"/><path fill="#718CC7" d="M28 32h1v1h-1zM29 32h1v1h-1z"/><path fill="#8CA6D6" d="M30 32h1v1h-1z"/><path fill="#A5BDE2" d="M31 32h1v1h-1z"/><path fill="#D3E5F6" d="M32 32h1v1h-1zM33 32h1v1h-1zM34 32h1v1h-1zM35 32h1v1h-1zM36 32h1v1h-1z"/><path fill="#BCD1EC" d="M37 32h1v1h-1z"/><path fill="#7C90C8" d="M38 32h1v1h-1z"/><path fill="#535CA8" d="M39 32h1v1h-1zM40 32h1v1h-1zM41 32h1v1h-1z"/><path fill="#5761AB" d="M42 32h1v1h-1z"/><path fill="#899FD1" d="M43 32h1v1h-1z"/><path fill="#95AFDB" d="M44 32h1v1h-1zM45 32h1v1h-1zM46 32h1v1h-1zM47 32h1v1h-1zM48 32h1v1h-1zM49 32h1v1h-1zM50 32h1v1h-1zM51 32h1v1h-1zM52 32h1v1h-1zM53 32h1v1h-1zM54 32h1v1h-1zM55 32h1v1h-1z"/><path fill="#91ABD9" d="M56 32h1v1h-1z"/><path fill="#718CC7" d="M57 32h1v1h-1zM58 32h1v1h-1zM59 32h1v1h-1zM60 32h1v1h-1zM61 32h1v1h-1zM62 32h1v1h-1z"/><path fill="#6A80BF" d="M63 32h1v1h-1z"/><path fill="#535CA8" d="M64 32h1v1h-1z"/><path fill="#16479D" d="M65 32h1v1h-1z"/><path fill="#014099" d="M66 32h1v1h-1z"/><path fill="#0A3678" d="M67 32h1v1h-1z"/><path fill="#234C8C" d="M68 32h1v1h-1z"/><path fill="#718CC7" d="M69 32h1v1h-1zM70 32h1v1h-1zM71 32h1v1h-1zM72 32h1v1h-1zM73 32h1v1h-1zM74 32h1v1h-1z"/><path fill="#6A80BF" d="M75 32h1v1h-1z"/><path fill="#6274B8" d="M76 32h1v1h-1z"/><path fill="#5B68B0" d="M77 32h1v1h-1z"/><path fill="#555FAA" d="M78 32h1v1h-1z"/><path fill="#535CA8" d="M79 32h1v1h-1zM80 32h1v1h-1zM81 32h1v1h-1z"/><path fill="#414371" d="M82 32h1v1h-1z"/><path fill="#231815" d="M83 32h1v1h-1zM84 32h1v1h-1zM85 32h1v1h-1zM23 33h1v1h-1zM24 33h1v1h-1zM25 33h1v1h-1z"/><path fill="#2F293A" d="M26 33h1v1h-1z"/><path fill="#6A80BF" d="M27 33h1v1h-1z"/><path fill="#718CC7" d="M28 33h1v1h-1z"/><path fill="#7F99CF" d="M29 33h1v1h-1z"/><path fill="#95AFDB" d="M30 33h1v1h-1z"/><path fill="#C4D8EF" d="M31 33h1v1h-1z"/><path fill="#D3E5F6" d="M32 33h1v1h-1zM33 33h1v1h-1zM34 33h1v1h-1zM35 33h1v1h-1zM36 33h1v1h-1z"/><path fill="#98ADD8" d="M37 33h1v1h-1z"/><path fill="#5761AB" d="M38 33h1v1h-1z"/><path fill="#535CA8" d="M39 33h1v1h-1zM40 33h1v1h-1z"/><path fill="#5761AB" d="M41 33h1v1h-1z"/><path fill="#899FD1" d="M42 33h1v1h-1z"/><path fill="#95AFDB" d="M43 33h1v1h-1zM44 33h1v1h-1zM45 33h1v1h-1zM46 33h1v1h-1zM47 33h1v1h-1zM48 33h1v1h-1zM49 33h1v1h-1zM50 33h1v1h-1zM51 33h1v1h-1zM52 33h1v1h-1zM53 33h1v1h-1zM54 33h1v1h-1zM55 33h1v1h-1zM56 33h1v1h-1z"/><path fill="#7C97CD" d="M57 33h1v1h-1z"/><path fill="#718CC7" d="M58 33h1v1h-1zM59 33h1v1h-1zM60 33h1v1h-1zM61 33h1v1h-1zM62 33h1v1h-1zM63 33h1v1h-1z"/><path fill="#5762AC" d="M64 33h1v1h-1z"/><path fill="#4457A5" d="M65 33h1v1h-1z"/><path fill="#102F5F" d="M66 33h1v1h-1z"/><path fill="#231815" d="M67 33h1v1h-1zM68 33h1v1h-1z"/><path fill="#5E6F9B" d="M69 33h1v1h-1z"/><path fill="#718CC7" d="M70 33h1v1h-1z"/><path fill="#6B83C1" d="M71 33h1v1h-1z"/><path fill="#6477B9" d="M72 33h1v1h-1z"/><path fill="#5B68B0" d="M73 33h1v1h-1z"/><path fill="#535CA8" d="M74 33h1v1h-1zM75 33h1v1h-1zM76 33h1v1h-1zM77 33h1v1h-1zM78 33h1v1h-1zM79 33h1v1h-1zM80 33h1v1h-1zM81 33h1v1h-1z"/><path fill="#383655" d="M82 33h1v1h-1z"/><path fill="#231815" d="M83 33h1v1h-1zM84 33h1v1h-1zM85 33h1v1h-1zM22 34h1v1h-1zM23 34h1v1h-1zM24 34h1v1h-1zM25 34h1v1h-1z"/><path fill="#4F578B" d="M26 34h1v1h-1z"/><path fill="#718CC7" d="M27 34h1v1h-1zM28 34h1v1h-1z"/><path fill="#91ABD9" d="M29 34h1v1h-1z"/><path fill="#A1B9E0" d="M30 34h1v1h-1z"/><path fill="#D3E5F6" d="M31 34h1v1h-1zM32 34h1v1h-1zM33 34h1v1h-1zM34 34h1v1h-1zM35 34h1v1h-1z"/><path fill="#BFD2EC" d="M36 34h1v1h-1z"/><path fill="#5761AB" d="M37 34h1v1h-1z"/><path fill="#535CA8" d="M38 34h1v1h-1zM39 34h1v1h-1z"/><path fill="#5761AB" d="M40 34h1v1h-1z"/><path fill="#899FD1" d="M41 34h1v1h-1z"/><path fill="#95AFDB" d="M42 34h1v1h-1zM43 34h1v1h-1zM44 34h1v1h-1zM45 34h1v1h-1zM46 34h1v1h-1zM47 34h1v1h-1zM48 34h1v1h-1zM49 34h1v1h-1zM50 34h1v1h-1zM51 34h1v1h-1zM52 34h1v1h-1zM53 34h1v1h-1zM54 34h1v1h-1zM55 34h1v1h-1zM56 34h1v1h-1z"/><path fill="#88A2D4" d="M57 34h1v1h-1z"/><path fill="#718CC7" d="M58 34h1v1h-1zM59 34h1v1h-1zM60 34h1v1h-1zM61 34h1v1h-1zM62 34h1v1h-1zM63 34h1v1h-1z"/><path fill="#6477B9" d="M64 34h1v1h-1z"/><path fill="#535CA8" d="M65 34h1v1h-1z"/><path fill="#31375D" d="M66 34h1v1h-1z"/><path fill="#231815" d="M67 34h1v1h-1zM68 34h1v1h-1z"/><path fill="#363347" d="M69 34h1v1h-1z"/><path fill="#5762AC" d="M70 34h1v1h-1z"/><path fill="#535CA8" d="M71 34h1v1h-1zM72 34h1v1h-1z"/><path fill="#474B83" d="M73 34h1v1h-1zM74 34h1v1h-1zM75 34h1v1h-1zM76 34h1v1h-1zM77 34h1v1h-1zM78 34h1v1h-1zM79 34h1v1h-1z"/><path fill="#4D5496" d="M80 34h1v1h-1z"/><path fill="#535CA8" d="M81 34h1v1h-1z"/><path fill="#2C2531" d="M82 34h1v1h-1z"/><path fill="#231815" d="M83 34h1v1h-1zM84 34h1v1h-1zM85 34h1v1h-1zM22 35h1v1h-1zM23 35h1v1h-1zM24 35h1v1h-1z"/><path fill="#2C2531" d="M25 35h1v1h-1z"/><path fill="#667ABB" d="M26 35h1v1h-1z"/><path fill="#718CC7" d="M27 35h1v1h-1z"/><path fill="#7A95CC" d="M28 35h1v1h-1z"/><path fill="#95AFDB" d="M29 35h1v1h-1z"/><path fill="#B4CAE9" d="M30 35h1v1h-1z"/><path fill="#D3E5F6" d="M31 35h1v1h-1zM32 35h1v1h-1zM33 35h1v1h-1zM34 35h1v1h-1zM35 35h1v1h-1z"/><path fill="#6F7BBA" d="M36 35h1v1h-1z"/><path fill="#535CA8" d="M37 35h1v1h-1zM38 35h1v1h-1zM39 35h1v1h-1z"/><path fill="#899FD1" d="M40 35h1v1h-1z"/><path fill="#95AFDB" d="M41 35h1v1h-1zM42 35h1v1h-1zM43 35h1v1h-1zM44 35h1v1h-1zM45 35h1v1h-1zM46 35h1v1h-1zM47 35h1v1h-1zM48 35h1v1h-1zM49 35h1v1h-1zM50 35h1v1h-1zM51 35h1v1h-1zM52 35h1v1h-1zM53 35h1v1h-1zM54 35h1v1h-1zM55 35h1v1h-1zM56 35h1v1h-1z"/><path fill="#93ADDA" d="M57 35h1v1h-1z"/><path fill="#718CC7" d="M58 35h1v1h-1zM59 35h1v1h-1zM60 35h1v1h-1zM61 35h1v1h-1zM62 35h1v1h-1zM63 35h1v1h-1z"/><path fill="#6B83C1" d="M64 35h1v1h-1z"/><path fill="#535CA8" d="M65 35h1v1h-1z"/><path fill="#4A4F8C" d="M66 35h1v1h-1z"/><path fill="#231815" d="M67 35h1v1h-1zM68 35h1v1h-1zM69 35h1v1h-1z"/><path fill="#292127" d="M70 35h1v1h-1z"/><path fill="#231815" d="M71 35h1v1h-1zM72 35h1v1h-1zM73 35h1v1h-1zM74 35h1v1h-1zM75 35h1v1h-1zM76 35h1v1h-1zM77 35h1v1h-1zM78 35h1v1h-1zM79 35h1v1h-1zM80 35h1v1h-1z"/><path fill="#261C1E" d="M81 35h1v1h-1z"/><path fill="#231815" d="M82 35h1v1h-1zM83 35h1v1h-1zM84 35h1v1h-1zM85 35h1v1h-1zM22 36h1v1h-1zM23 36h1v1h-1zM24 36h1v1h-1z"/><path fill="#434673" d="M25 36h1v1h-1z"/><path fill="#718CC7" d="M26 36h1v1h-1zM27 36h1v1h-1z"/><path fill="#88A2D4" d="M28 36h1v1h-1z"/><path fill="#95AFDB" d="M29 36h1v1h-1z"/><path fill="#C4D8EF" d="M30 36h1v1h-1z"/><path fill="#D3E5F6" d="M31 36h1v1h-1zM32 36h1v1h-1zM33 36h1v1h-1zM34 36h1v1h-1z"/><path fill="#8F9FCF" d="M35 36h1v1h-1z"/><path fill="#535CA8" d="M36 36h1v1h-1zM37 36h1v1h-1zM38 36h1v1h-1z"/><path fill="#7C90C8" d="M39 36h1v1h-1z"/><path fill="#95AFDB" d="M40 36h1v1h-1zM41 36h1v1h-1zM42 36h1v1h-1zM43 36h1v1h-1zM44 36h1v1h-1zM45 36h1v1h-1zM46 36h1v1h-1zM47 36h1v1h-1zM48 36h1v1h-1zM49 36h1v1h-1zM50 36h1v1h-1zM51 36h1v1h-1zM52 36h1v1h-1zM53 36h1v1h-1zM54 36h1v1h-1zM55 36h1v1h-1zM56 36h1v1h-1zM57 36h1v1h-1z"/><path fill="#7690CA" d="M58 36h1v1h-1z"/><path fill="#718CC7" d="M59 36h1v1h-1zM60 36h1v1h-1zM61 36h1v1h-1zM62 36h1v1h-1zM63 36h1v1h-1zM64 36h1v1h-1z"/><path fill="#555FAA" d="M65 36h1v1h-1z"/><path fill="#535CA8" d="M66 36h1v1h-1z"/><path fill="#2C2531" d="M67 36h1v1h-1z"/><path fill="#231815" d="M68 36h1v1h-1zM69 36h1v1h-1zM70 36h1v1h-1zM71 36h1v1h-1zM72 36h1v1h-1zM73 36h1v1h-1zM74 36h1v1h-1zM75 36h1v1h-1zM76 36h1v1h-1zM77 36h1v1h-1zM78 36h1v1h-1zM79 36h1v1h-1zM80 36h1v1h-1zM81 36h1v1h-1zM82 36h1v1h-1zM83 36h1v1h-1zM84 36h1v1h-1zM21 37h1v1h-1zM22 37h1v1h-1zM23 37h1v1h-1zM24 37h1v1h-1z"/><path fill="#5B6AAA" d="M25 37h1v1h-1z"/><path fill="#718CC7" d="M26 37h1v1h-1zM27 37h1v1h-1z"/><path fill="#91ABD9" d="M28 37h1v1h-1z"/><path fill="#95AFDB" d="M29 37h1v1h-1z"/><path fill="#BCD1EC" d="M30 37h1v1h-1z"/><path fill="#D3E5F6" d="M31 37h1v1h-1zM32 37h1v1h-1zM33 37h1v1h-1z"/><path fill="#A4B9DF" d="M34 37h1v1h-1z"/><path fill="#5761AB" d="M35 37h1v1h-1z"/><path fill="#535CA8" d="M36 37h1v1h-1zM37 37h1v1h-1z"/><path fill="#6876B8" d="M38 37h1v1h-1z"/><path fill="#95AFDB" d="M39 37h1v1h-1z"/><path fill="#A5BDE2" d="M40 37h1v1h-1z"/><path fill="#C0D4EE" d="M41 37h1v1h-1zM42 37h1v1h-1z"/><path fill="#A5BDE2" d="M43 37h1v1h-1z"/><path fill="#95AFDB" d="M44 37h1v1h-1zM45 37h1v1h-1zM46 37h1v1h-1zM47 37h1v1h-1zM48 37h1v1h-1zM49 37h1v1h-1zM50 37h1v1h-1zM51 37h1v1h-1zM52 37h1v1h-1zM53 37h1v1h-1zM54 37h1v1h-1zM55 37h1v1h-1zM56 37h1v1h-1zM57 37h1v1h-1z"/><path fill="#7A95CC" d="M58 37h1v1h-1z"/><path fill="#718CC7" d="M59 37h1v1h-1zM60 37h1v1h-1zM61 37h1v1h-1zM62 37h1v1h-1zM63 37h1v1h-1zM64 37h1v1h-1z"/><path fill="#5B68B0" d="M65 37h1v1h-1z"/><path fill="#535CA8" d="M66 37h1v1h-1z"/><path fill="#3E3E68" d="M67 37h1v1h-1z"/><path fill="#231815" d="M68 37h1v1h-1zM69 37h1v1h-1zM70 37h1v1h-1zM71 37h1v1h-1zM72 37h1v1h-1zM73 37h1v1h-1zM74 37h1v1h-1zM75 37h1v1h-1zM76 37h1v1h-1zM77 37h1v1h-1zM78 37h1v1h-1zM79 37h1v1h-1zM80 37h1v1h-1zM81 37h1v1h-1zM82 37h1v1h-1zM83 37h1v1h-1zM84 37h1v1h-1zM21 38h1v1h-1zM22 38h1v1h-1zM23 38h1v1h-1z"/><path fill="#2C2531" d="M24 38h1v1h-1z"/><path fill="#667ABB" d="M25 38h1v1h-1z"/><path fill="#718CC7" d="M26 38h1v1h-1z"/><path fill="#738EC8" d="M27 38h1v1h-1z"/><path fill="#95AFDB" d="M28 38h1v1h-1zM29 38h1v1h-1z"/><path fill="#A1B9E0" d="M30 38h1v1h-1z"/><path fill="#C4D8EF" d="M31 38h1v1h-1z"/><path fill="#C0D4EE" d="M32 38h1v1h-1z"/><path fill="#A5BDE2" d="M33 38h1v1h-1z"/><path fill="#6876B8" d="M34 38h1v1h-1z"/><path fill="#535CA8" d="M35 38h1v1h-1zM36 38h1v1h-1z"/><path fill="#5761AB" d="M37 38h1v1h-1z"/><path fill="#91AAD8" d="M38 38h1v1h-1z"/><path fill="#9DB6DE" d="M39 38h1v1h-1z"/><path fill="#D3E5F6" d="M40 38h1v1h-1zM41 38h1v1h-1zM42 38h1v1h-1zM43 38h1v1h-1z"/><path fill="#9DB6DE" d="M44 38h1v1h-1z"/><path fill="#95AFDB" d="M45 38h1v1h-1zM46 38h1v1h-1zM47 38h1v1h-1zM48 38h1v1h-1zM49 38h1v1h-1zM50 38h1v1h-1zM51 38h1v1h-1zM52 38h1v1h-1zM53 38h1v1h-1zM54 38h1v1h-1zM55 38h1v1h-1zM56 38h1v1h-1zM57 38h1v1h-1z"/><path fill="#7A95CC" d="M58 38h1v1h-1z"/><path fill="#718CC7" d="M59 38h1v1h-1zM60 38h1v1h-1zM61 38h1v1h-1zM62 38h1v1h-1zM63 38h1v1h-1zM64 38h1v1h-1z"/><path fill="#5E6EB4" d="M65 38h1v1h-1z"/><path fill="#535CA8" d="M66 38h1v1h-1z"/><path fill="#4A4F8C" d="M67 38h1v1h-1z"/><path fill="#231815" d="M68 38h1v1h-1zM69 38h1v1h-1zM70 38h1v1h-1zM81 38h1v1h-1zM82 38h1v1h-1zM21 39h1v1h-1zM22 39h1v1h-1zM23 39h1v1h-1z"/><path fill="#383655" d="M24 39h1v1h-1z"/><path fill="#6B83C1" d="M25 39h1v1h-1z"/><path fill="#718CC7" d="M26 39h1v1h-1z"/><path fill="#7A95CC" d="M27 39h1v1h-1z"/><path fill="#95AFDB" d="M28 39h1v1h-1zM29 39h1v1h-1zM30 39h1v1h-1zM31 39h1v1h-1zM32 39h1v1h-1z"/><path fill="#859ACE" d="M33 39h1v1h-1z"/><path fill="#535CA8" d="M34 39h1v1h-1zM35 39h1v1h-1zM36 39h1v1h-1z"/><path fill="#8095CB" d="M37 39h1v1h-1z"/><path fill="#95AFDB" d="M38 39h1v1h-1z"/><path fill="#B4CAE9" d="M39 39h1v1h-1z"/><path fill="#D3E5F6" d="M40 39h1v1h-1zM41 39h1v1h-1zM42 39h1v1h-1zM43 39h1v1h-1z"/><path fill="#B4CAE9" d="M44 39h1v1h-1z"/><path fill="#95AFDB" d="M45 39h1v1h-1zM46 39h1v1h-1zM47 39h1v1h-1zM48 39h1v1h-1zM49 39h1v1h-1zM50 39h1v1h-1zM51 39h1v1h-1zM52 39h1v1h-1zM53 39h1v1h-1zM54 39h1v1h-1zM55 39h1v1h-1zM56 39h1v1h-1zM57 39h1v1h-1z"/><path fill="#7A95CC" d="M58 39h1v1h-1z"/><path fill="#718CC7" d="M59 39h1v1h-1zM60 39h1v1h-1zM61 39h1v1h-1zM62 39h1v1h-1zM63 39h1v1h-1zM64 39h1v1h-1z"/><path fill="#6274B8" d="M65 39h1v1h-1z"/><path fill="#535CA8" d="M66 39h1v1h-1zM67 39h1v1h-1z"/><path fill="#231815" d="M68 39h1v1h-1zM69 39h1v1h-1zM70 39h1v1h-1zM71 39h1v1h-1zM21 40h1v1h-1zM22 40h1v1h-1zM23 40h1v1h-1z"/><path fill="#414371" d="M24 40h1v1h-1z"/><path fill="#718CC7" d="M25 40h1v1h-1zM26 40h1v1h-1z"/><path fill="#7A95CC" d="M27 40h1v1h-1z"/><path fill="#95AFDB" d="M28 40h1v1h-1zM29 40h1v1h-1zM30 40h1v1h-1zM31 40h1v1h-1zM32 40h1v1h-1z"/><path fill="#3B63AD" d="M33 40h1v1h-1z"/><path fill="#16479D" d="M34 40h1v1h-1z"/><path fill="#4457A5" d="M35 40h1v1h-1z"/><path fill="#6471B5" d="M36 40h1v1h-1z"/><path fill="#95AFDB" d="M37 40h1v1h-1zM38 40h1v1h-1z"/><path fill="#ACC3E5" d="M39 40h1v1h-1z"/><path fill="#D3E5F6" d="M40 40h1v1h-1zM41 40h1v1h-1zM42 40h1v1h-1zM43 40h1v1h-1z"/><path fill="#A8C0E3" d="M44 40h1v1h-1z"/><path fill="#95AFDB" d="M45 40h1v1h-1zM46 40h1v1h-1zM47 40h1v1h-1zM48 40h1v1h-1zM49 40h1v1h-1zM50 40h1v1h-1zM51 40h1v1h-1zM52 40h1v1h-1zM53 40h1v1h-1zM54 40h1v1h-1zM55 40h1v1h-1zM56 40h1v1h-1zM57 40h1v1h-1z"/><path fill="#7A95CC" d="M58 40h1v1h-1z"/><path fill="#718CC7" d="M59 40h1v1h-1zM60 40h1v1h-1zM61 40h1v1h-1zM62 40h1v1h-1zM63 40h1v1h-1zM64 40h1v1h-1z"/><path fill="#6274B8" d="M65 40h1v1h-1z"/><path fill="#535CA8" d="M66 40h1v1h-1zM67 40h1v1h-1z"/><path fill="#2F293A" d="M68 40h1v1h-1z"/><path fill="#231815" d="M69 40h1v1h-1zM70 40h1v1h-1zM71 40h1v1h-1zM21 41h1v1h-1zM22 41h1v1h-1zM23 41h1v1h-1z"/><path fill="#494E85" d="M24 41h1v1h-1z"/><path fill="#718CC7" d="M25 41h1v1h-1zM26 41h1v1h-1z"/><path fill="#7A95CC" d="M27 41h1v1h-1z"/><path fill="#95AFDB" d="M28 41h1v1h-1zM29 41h1v1h-1zM30 41h1v1h-1zM31 41h1v1h-1z"/><path fill="#7093CB" d="M32 41h1v1h-1z"/><path fill="#014099" d="M33 41h1v1h-1zM34 41h1v1h-1z"/><path fill="#16479D" d="M35 41h1v1h-1z"/><path fill="#859ACE" d="M36 41h1v1h-1z"/><path fill="#95AFDB" d="M37 41h1v1h-1zM38 41h1v1h-1zM39 41h1v1h-1z"/><path fill="#BCD1EC" d="M40 41h1v1h-1z"/><path fill="#D3E5F6" d="M41 41h1v1h-1zM42 41h1v1h-1z"/><path fill="#BCD1EC" d="M43 41h1v1h-1z"/><path fill="#95AFDB" d="M44 41h1v1h-1zM45 41h1v1h-1zM46 41h1v1h-1zM47 41h1v1h-1zM48 41h1v1h-1zM49 41h1v1h-1zM50 41h1v1h-1zM51 41h1v1h-1zM52 41h1v1h-1zM53 41h1v1h-1zM54 41h1v1h-1zM55 41h1v1h-1zM56 41h1v1h-1zM57 41h1v1h-1z"/><path fill="#7893CB" d="M58 41h1v1h-1z"/><path fill="#718CC7" d="M59 41h1v1h-1zM60 41h1v1h-1zM61 41h1v1h-1zM62 41h1v1h-1zM63 41h1v1h-1zM64 41h1v1h-1z"/><path fill="#6274B8" d="M65 41h1v1h-1z"/><path fill="#535CA8" d="M66 41h1v1h-1zM67 41h1v1h-1z"/><path fill="#35324C" d="M68 41h1v1h-1z"/><path fill="#231815" d="M69 41h1v1h-1zM70 41h1v1h-1zM71 41h1v1h-1zM21 42h1v1h-1zM22 42h1v1h-1zM23 42h1v1h-1z"/><path fill="#55609D" d="M24 42h1v1h-1z"/><path fill="#718CC7" d="M25 42h1v1h-1zM26 42h1v1h-1z"/><path fill="#7A95CC" d="M27 42h1v1h-1z"/><path fill="#95AFDB" d="M28 42h1v1h-1zM29 42h1v1h-1zM30 42h1v1h-1zM31 42h1v1h-1z"/><path fill="#396AB2" d="M32 42h1v1h-1z"/><path fill="#014099" d="M33 42h1v1h-1zM34 42h1v1h-1z"/><path fill="#2B5EAA" d="M35 42h1v1h-1z"/><path fill="#95AFDB" d="M36 42h1v1h-1zM37 42h1v1h-1zM38 42h1v1h-1zM39 42h1v1h-1zM40 42h1v1h-1z"/><path fill="#9DB6DE" d="M41 42h1v1h-1zM42 42h1v1h-1z"/><path fill="#95AFDB" d="M43 42h1v1h-1zM44 42h1v1h-1zM45 42h1v1h-1zM46 42h1v1h-1zM47 42h1v1h-1zM48 42h1v1h-1zM49 42h1v1h-1zM50 42h1v1h-1zM51 42h1v1h-1zM52 42h1v1h-1zM53 42h1v1h-1zM54 42h1v1h-1zM55 42h1v1h-1zM56 42h1v1h-1zM57 42h1v1h-1z"/><path fill="#718CC7" d="M58 42h1v1h-1zM59 42h1v1h-1zM60 42h1v1h-1zM61 42h1v1h-1zM62 42h1v1h-1zM63 42h1v1h-1zM64 42h1v1h-1z"/><path fill="#6071B6" d="M65 42h1v1h-1z"/><path fill="#535CA8" d="M66 42h1v1h-1zM67 42h1v1h-1z"/><path fill="#3B3A5F" d="M68 42h1v1h-1z"/><path fill="#231815" d="M69 42h1v1h-1zM70 42h1v1h-1zM71 42h1v1h-1zM21 43h1v1h-1zM22 43h1v1h-1zM23 43h1v1h-1z"/><path fill="#5B68B0" d="M24 43h1v1h-1z"/><path fill="#718CC7" d="M25 43h1v1h-1zM26 43h1v1h-1z"/><path fill="#7893CB" d="M27 43h1v1h-1z"/><path fill="#95AFDB" d="M28 43h1v1h-1zM29 43h1v1h-1zM30 43h1v1h-1z"/><path fill="#8CA8D7" d="M31 43h1v1h-1z"/><path fill="#014099" d="M32 43h1v1h-1zM33 43h1v1h-1zM34 43h1v1h-1z"/><path fill="#7093CB" d="M35 43h1v1h-1z"/><path fill="#95AFDB" d="M36 43h1v1h-1zM37 43h1v1h-1zM38 43h1v1h-1zM39 43h1v1h-1zM40 43h1v1h-1zM41 43h1v1h-1zM42 43h1v1h-1zM43 43h1v1h-1zM44 43h1v1h-1zM45 43h1v1h-1zM46 43h1v1h-1zM47 43h1v1h-1zM48 43h1v1h-1zM49 43h1v1h-1zM50 43h1v1h-1zM51 43h1v1h-1zM52 43h1v1h-1zM53 43h1v1h-1zM54 43h1v1h-1zM55 43h1v1h-1zM56 43h1v1h-1z"/><path fill="#8CA6D6" d="M57 43h1v1h-1z"/><path fill="#718CC7" d="M58 43h1v1h-1zM59 43h1v1h-1zM60 43h1v1h-1zM61 43h1v1h-1zM62 43h1v1h-1zM63 43h1v1h-1zM64 43h1v1h-1z"/><path fill="#5B68B0" d="M65 43h1v1h-1z"/><path fill="#535CA8" d="M66 43h1v1h-1zM67 43h1v1h-1z"/><path fill="#3B3A5F" d="M68 43h1v1h-1z"/><path fill="#231815" d="M69 43h1v1h-1zM70 43h1v1h-1zM71 43h1v1h-1zM21 44h1v1h-1zM22 44h1v1h-1zM23 44h1v1h-1z"/><path fill="#5B68B0" d="M24 44h1v1h-1z"/><path fill="#718CC7" d="M25 44h1v1h-1zM26 44h1v1h-1zM27 44h1v1h-1z"/><path fill="#95AFDB" d="M28 44h1v1h-1zM29 44h1v1h-1zM30 44h1v1h-1z"/><path fill="#547EBE" d="M31 44h1v1h-1z"/><path fill="#014099" d="M32 44h1v1h-1zM33 44h1v1h-1z"/><path fill="#144EA1" d="M34 44h1v1h-1z"/><path fill="#95AFDB" d="M35 44h1v1h-1zM36 44h1v1h-1zM37 44h1v1h-1zM38 44h1v1h-1zM39 44h1v1h-1zM40 44h1v1h-1zM41 44h1v1h-1zM42 44h1v1h-1zM43 44h1v1h-1zM44 44h1v1h-1zM45 44h1v1h-1zM46 44h1v1h-1zM47 44h1v1h-1zM48 44h1v1h-1zM49 44h1v1h-1zM50 44h1v1h-1zM51 44h1v1h-1zM52 44h1v1h-1zM53 44h1v1h-1zM54 44h1v1h-1zM55 44h1v1h-1zM56 44h1v1h-1z"/><path fill="#819BD0" d="M57 44h1v1h-1z"/><path fill="#718CC7" d="M58 44h1v1h-1zM59 44h1v1h-1zM60 44h1v1h-1zM61 44h1v1h-1zM62 44h1v1h-1zM63 44h1v1h-1zM64 44h1v1h-1z"/><path fill="#5762AC" d="M65 44h1v1h-1z"/><path fill="#535CA8" d="M66 44h1v1h-1zM67 44h1v1h-1z"/><path fill="#3B3A5F" d="M68 44h1v1h-1z"/><path fill="#231815" d="M69 44h1v1h-1zM70 44h1v1h-1zM71 44h1v1h-1zM21 45h1v1h-1zM22 45h1v1h-1zM23 45h1v1h-1z"/><path fill="#4F5798" d="M24 45h1v1h-1z"/><path fill="#718CC7" d="M25 45h1v1h-1zM26 45h1v1h-1zM27 45h1v1h-1z"/><path fill="#8CA6D6" d="M28 45h1v1h-1z"/><path fill="#95AFDB" d="M29 45h1v1h-1zM30 45h1v1h-1z"/><path fill="#1D55A5" d="M31 45h1v1h-1z"/><path fill="#014099" d="M32 45h1v1h-1zM33 45h1v1h-1z"/><path fill="#547EBE" d="M34 45h1v1h-1z"/><path fill="#95AFDB" d="M35 45h1v1h-1zM36 45h1v1h-1zM37 45h1v1h-1zM38 45h1v1h-1zM39 45h1v1h-1zM40 45h1v1h-1zM41 45h1v1h-1zM42 45h1v1h-1zM43 45h1v1h-1zM44 45h1v1h-1zM45 45h1v1h-1zM46 45h1v1h-1zM47 45h1v1h-1zM48 45h1v1h-1zM49 45h1v1h-1zM50 45h1v1h-1zM51 45h1v1h-1zM52 45h1v1h-1zM53 45h1v1h-1zM54 45h1v1h-1zM55 45h1v1h-1zM56 45h1v1h-1z"/><path fill="#7690CA" d="M57 45h1v1h-1z"/><path fill="#718CC7" d="M58 45h1v1h-1zM59 45h1v1h-1zM60 45h1v1h-1zM61 45h1v1h-1zM62 45h1v1h-1zM63 45h1v1h-1z"/><path fill="#6F89C5" d="M64 45h1v1h-1z"/><path fill="#535CA8" d="M65 45h1v1h-1zM66 45h1v1h-1zM67 45h1v1h-1z"/><path fill="#3B3A5F" d="M68 45h1v1h-1z"/><path fill="#231815" d="M69 45h1v1h-1zM70 45h1v1h-1zM71 45h1v1h-1zM21 46h1v1h-1zM22 46h1v1h-1zM23 46h1v1h-1z"/><path fill="#474B83" d="M24 46h1v1h-1z"/><path fill="#718CC7" d="M25 46h1v1h-1zM26 46h1v1h-1zM27 46h1v1h-1z"/><path fill="#819BD0" d="M28 46h1v1h-1z"/><path fill="#95AFDB" d="M29 46h1v1h-1z"/><path fill="#8CA8D7" d="M30 46h1v1h-1z"/><path fill="#014099" d="M31 46h1v1h-1zM32 46h1v1h-1zM33 46h1v1h-1z"/><path fill="#83A1D3" d="M34 46h1v1h-1z"/><path fill="#95AFDB" d="M35 46h1v1h-1zM36 46h1v1h-1zM37 46h1v1h-1zM38 46h1v1h-1zM39 46h1v1h-1zM40 46h1v1h-1zM41 46h1v1h-1zM42 46h1v1h-1zM43 46h1v1h-1zM44 46h1v1h-1zM45 46h1v1h-1zM46 46h1v1h-1zM47 46h1v1h-1zM48 46h1v1h-1zM49 46h1v1h-1zM50 46h1v1h-1zM51 46h1v1h-1zM52 46h1v1h-1zM53 46h1v1h-1zM54 46h1v1h-1zM55 46h1v1h-1z"/><path fill="#88A2D4" d="M56 46h1v1h-1z"/><path fill="#718CC7" d="M57 46h1v1h-1zM58 46h1v1h-1zM59 46h1v1h-1zM60 46h1v1h-1zM61 46h1v1h-1zM62 46h1v1h-1zM63 46h1v1h-1z"/><path fill="#687DBD" d="M64 46h1v1h-1z"/><path fill="#535CA8" d="M65 46h1v1h-1zM66 46h1v1h-1zM67 46h1v1h-1z"/><path fill="#35324C" d="M68 46h1v1h-1z"/><path fill="#231815" d="M69 46h1v1h-1zM70 46h1v1h-1zM71 46h1v1h-1zM21 47h1v1h-1zM22 47h1v1h-1zM23 47h1v1h-1z"/><path fill="#414371" d="M24 47h1v1h-1z"/><path fill="#6A80BF" d="M25 47h1v1h-1z"/><path fill="#718CC7" d="M26 47h1v1h-1zM27 47h1v1h-1z"/><path fill="#738EC8" d="M28 47h1v1h-1z"/><path fill="#95AFDB" d="M29 47h1v1h-1z"/><path fill="#678CC6" d="M30 47h1v1h-1z"/><path fill="#014099" d="M31 47h1v1h-1zM32 47h1v1h-1z"/><path fill="#1D55A5" d="M33 47h1v1h-1z"/><path fill="#95AFDB" d="M34 47h1v1h-1zM35 47h1v1h-1zM36 47h1v1h-1zM37 47h1v1h-1zM38 47h1v1h-1zM39 47h1v1h-1zM40 47h1v1h-1zM41 47h1v1h-1zM42 47h1v1h-1zM43 47h1v1h-1zM44 47h1v1h-1zM45 47h1v1h-1zM46 47h1v1h-1zM47 47h1v1h-1zM48 47h1v1h-1zM49 47h1v1h-1zM50 47h1v1h-1zM51 47h1v1h-1zM52 47h1v1h-1zM53 47h1v1h-1zM54 47h1v1h-1z"/><path fill="#93ADDA" d="M55 47h1v1h-1z"/><path fill="#7690CA" d="M56 47h1v1h-1z"/><path fill="#718CC7" d="M57 47h1v1h-1zM58 47h1v1h-1zM59 47h1v1h-1zM60 47h1v1h-1zM61 47h1v1h-1zM62 47h1v1h-1zM63 47h1v1h-1z"/><path fill="#5E6EB4" d="M64 47h1v1h-1z"/><path fill="#535CA8" d="M65 47h1v1h-1zM66 47h1v1h-1zM67 47h1v1h-1z"/><path fill="#2F293A" d="M68 47h1v1h-1z"/><path fill="#231815" d="M69 47h1v1h-1zM70 47h1v1h-1zM71 47h1v1h-1zM21 48h1v1h-1zM22 48h1v1h-1zM23 48h1v1h-1z"/><path fill="#383655" d="M24 48h1v1h-1z"/><path fill="#6477B9" d="M25 48h1v1h-1z"/><path fill="#718CC7" d="M26 48h1v1h-1zM27 48h1v1h-1zM28 48h1v1h-1z"/><path fill="#85A0D2" d="M29 48h1v1h-1z"/><path fill="#4B78BA" d="M30 48h1v1h-1z"/><path fill="#014099" d="M31 48h1v1h-1zM32 48h1v1h-1z"/><path fill="#4271B6" d="M33 48h1v1h-1z"/><path fill="#95AFDB" d="M34 48h1v1h-1zM35 48h1v1h-1zM36 48h1v1h-1zM37 48h1v1h-1zM38 48h1v1h-1zM39 48h1v1h-1zM40 48h1v1h-1zM41 48h1v1h-1zM42 48h1v1h-1zM43 48h1v1h-1zM44 48h1v1h-1zM45 48h1v1h-1zM46 48h1v1h-1zM47 48h1v1h-1zM48 48h1v1h-1zM49 48h1v1h-1zM50 48h1v1h-1zM51 48h1v1h-1zM52 48h1v1h-1zM53 48h1v1h-1zM54 48h1v1h-1z"/><path fill="#819BD0" d="M55 48h1v1h-1z"/><path fill="#718CC7" d="M56 48h1v1h-1zM57 48h1v1h-1zM58 48h1v1h-1zM59 48h1v1h-1zM60 48h1v1h-1zM61 48h1v1h-1zM62 48h1v1h-1z"/><path fill="#6F89C5" d="M63 48h1v1h-1z"/><path fill="#555FAA" d="M64 48h1v1h-1z"/><path fill="#535CA8" d="M65 48h1v1h-1zM66 48h1v1h-1zM67 48h1v1h-1z"/><path fill="#231815" d="M68 48h1v1h-1zM69 48h1v1h-1zM70 48h1v1h-1zM71 48h1v1h-1zM21 49h1v1h-1zM22 49h1v1h-1zM23 49h1v1h-1z"/><path fill="#2C2531" d="M24 49h1v1h-1z"/><path fill="#5C6BB2" d="M25 49h1v1h-1z"/><path fill="#718CC7" d="M26 49h1v1h-1zM27 49h1v1h-1zM28 49h1v1h-1z"/><path fill="#738EC8" d="M29 49h1v1h-1z"/><path fill="#245AA8" d="M30 49h1v1h-1z"/><path fill="#014099" d="M31 49h1v1h-1zM32 49h1v1h-1z"/><path fill="#5E85C2" d="M33 49h1v1h-1z"/><path fill="#95AFDB" d="M34 49h1v1h-1zM35 49h1v1h-1zM36 49h1v1h-1zM37 49h1v1h-1zM38 49h1v1h-1zM39 49h1v1h-1zM40 49h1v1h-1zM41 49h1v1h-1zM42 49h1v1h-1zM43 49h1v1h-1zM44 49h1v1h-1zM45 49h1v1h-1zM46 49h1v1h-1zM47 49h1v1h-1zM48 49h1v1h-1zM49 49h1v1h-1zM50 49h1v1h-1zM51 49h1v1h-1zM52 49h1v1h-1zM53 49h1v1h-1z"/><path fill="#8AA4D5" d="M54 49h1v1h-1z"/><path fill="#718CC7" d="M55 49h1v1h-1zM56 49h1v1h-1zM57 49h1v1h-1zM58 49h1v1h-1zM59 49h1v1h-1zM60 49h1v1h-1zM61 49h1v1h-1zM62 49h1v1h-1z"/><path fill="#6477B9" d="M63 49h1v1h-1z"/><path fill="#535CA8" d="M64 49h1v1h-1zM65 49h1v1h-1zM66 49h1v1h-1z"/><path fill="#4A4F8C" d="M67 49h1v1h-1z"/><path fill="#231815" d="M68 49h1v1h-1zM69 49h1v1h-1zM70 49h1v1h-1zM3 50h1v1H3zM4 50h1v1H4zM5 50h1v1H5zM6 50h1v1H6zM7 50h1v1H7zM8 50h1v1H8zM9 50h1v1H9zM10 50h1v1h-1zM11 50h1v1h-1zM12 50h1v1h-1zM13 50h1v1h-1zM14 50h1v1h-1zM15 50h1v1h-1zM16 50h1v1h-1zM17 50h1v1h-1zM18 50h1v1h-1zM19 50h1v1h-1zM20 50h1v1h-1zM21 50h1v1h-1zM22 50h1v1h-1zM23 50h1v1h-1zM24 50h1v1h-1z"/><path fill="#474B83" d="M25 50h1v1h-1z"/><path fill="#6A82BA" d="M26 50h1v1h-1z"/><path fill="#718CC7" d="M27 50h1v1h-1zM28 50h1v1h-1zM29 50h1v1h-1z"/><path fill="#0F4A9F" d="M30 50h1v1h-1z"/><path fill="#014099" d="M31 50h1v1h-1zM32 50h1v1h-1z"/><path fill="#7093CB" d="M33 50h1v1h-1z"/><path fill="#95AFDB" d="M34 50h1v1h-1zM35 50h1v1h-1zM36 50h1v1h-1zM37 50h1v1h-1zM38 50h1v1h-1zM39 50h1v1h-1zM40 50h1v1h-1zM41 50h1v1h-1zM42 50h1v1h-1zM43 50h1v1h-1zM44 50h1v1h-1zM45 50h1v1h-1zM46 50h1v1h-1zM47 50h1v1h-1zM48 50h1v1h-1zM49 50h1v1h-1zM50 50h1v1h-1zM51 50h1v1h-1zM52 50h1v1h-1z"/><path fill="#8EA8D7" d="M53 50h1v1h-1z"/><path fill="#738EC8" d="M54 50h1v1h-1z"/><path fill="#718CC7" d="M55 50h1v1h-1zM56 50h1v1h-1zM57 50h1v1h-1zM58 50h1v1h-1zM59 50h1v1h-1zM60 50h1v1h-1zM61 50h1v1h-1z"/><path fill="#6F89C5" d="M62 50h1v1h-1z"/><path fill="#5762AC" d="M63 50h1v1h-1z"/><path fill="#535CA8" d="M64 50h1v1h-1zM65 50h1v1h-1zM66 50h1v1h-1z"/><path fill="#3B3A5F" d="M67 50h1v1h-1z"/><path fill="#231815" d="M68 50h1v1h-1zM69 50h1v1h-1zM70 50h1v1h-1zM2 51h1v1H2zM3 51h1v1H3zM4 51h1v1H4zM5 51h1v1H5zM6 51h1v1H6zM7 51h1v1H7zM8 51h1v1H8zM9 51h1v1H9zM10 51h1v1h-1zM11 51h1v1h-1zM12 51h1v1h-1zM13 51h1v1h-1zM14 51h1v1h-1zM15 51h1v1h-1zM16 51h1v1h-1zM17 51h1v1h-1zM18 51h1v1h-1zM19 51h1v1h-1zM20 51h1v1h-1zM21 51h1v1h-1zM22 51h1v1h-1zM23 51h1v1h-1zM24 51h1v1h-1zM25 51h1v1h-1z"/><path fill="#261C1E" d="M26 51h1v1h-1z"/><path fill="#545EA3" d="M27 51h1v1h-1z"/><path fill="#5E6EB4" d="M28 51h1v1h-1z"/><path fill="#6A80BF" d="M29 51h1v1h-1z"/><path fill="#014099" d="M30 51h1v1h-1zM31 51h1v1h-1zM32 51h1v1h-1z"/><path fill="#95AFDB" d="M33 51h1v1h-1zM34 51h1v1h-1zM35 51h1v1h-1zM36 51h1v1h-1zM37 51h1v1h-1zM38 51h1v1h-1zM39 51h1v1h-1zM40 51h1v1h-1zM41 51h1v1h-1zM42 51h1v1h-1zM43 51h1v1h-1zM44 51h1v1h-1zM45 51h1v1h-1zM46 51h1v1h-1zM47 51h1v1h-1zM48 51h1v1h-1zM49 51h1v1h-1zM50 51h1v1h-1zM51 51h1v1h-1z"/><path fill="#8EA8D7" d="M52 51h1v1h-1z"/><path fill="#738EC8" d="M53 51h1v1h-1z"/><path fill="#718CC7" d="M54 51h1v1h-1zM55 51h1v1h-1zM56 51h1v1h-1zM57 51h1v1h-1zM58 51h1v1h-1zM59 51h1v1h-1zM60 51h1v1h-1zM61 51h1v1h-1z"/><path fill="#6274B8" d="M62 51h1v1h-1z"/><path fill="#535CA8" d="M63 51h1v1h-1zM64 51h1v1h-1zM65 51h1v1h-1zM66 51h1v1h-1z"/><path fill="#292127" d="M67 51h1v1h-1z"/><path fill="#231815" d="M68 51h1v1h-1zM69 51h1v1h-1zM70 51h1v1h-1zM1 52h1v1H1zM2 52h1v1H2zM3 52h1v1H3zM4 52h1v1H4zM5 52h1v1H5zM6 52h1v1H6zM7 52h1v1H7zM8 52h1v1H8zM9 52h1v1H9zM10 52h1v1h-1zM11 52h1v1h-1zM12 52h1v1h-1zM13 52h1v1h-1zM14 52h1v1h-1zM15 52h1v1h-1zM16 52h1v1h-1zM17 52h1v1h-1zM18 52h1v1h-1zM19 52h1v1h-1zM20 52h1v1h-1zM21 52h1v1h-1zM22 52h1v1h-1zM23 52h1v1h-1zM24 52h1v1h-1zM25 52h1v1h-1zM26 52h1v1h-1z"/><path fill="#4A4F8C" d="M27 52h1v1h-1z"/><path fill="#535CA8" d="M28 52h1v1h-1zM29 52h1v1h-1z"/><path fill="#014099" d="M30 52h1v1h-1zM31 52h1v1h-1zM32 52h1v1h-1z"/><path fill="#93ADDA" d="M33 52h1v1h-1z"/><path fill="#95AFDB" d="M34 52h1v1h-1zM35 52h1v1h-1zM36 52h1v1h-1zM37 52h1v1h-1zM38 52h1v1h-1zM39 52h1v1h-1zM40 52h1v1h-1zM41 52h1v1h-1zM42 52h1v1h-1zM43 52h1v1h-1zM44 52h1v1h-1zM45 52h1v1h-1zM46 52h1v1h-1zM47 52h1v1h-1zM48 52h1v1h-1zM49 52h1v1h-1zM50 52h1v1h-1z"/><path fill="#88A2D4" d="M51 52h1v1h-1z"/><path fill="#738EC8" d="M52 52h1v1h-1z"/><path fill="#718CC7" d="M53 52h1v1h-1zM54 52h1v1h-1zM55 52h1v1h-1zM56 52h1v1h-1zM57 52h1v1h-1zM58 52h1v1h-1zM59 52h1v1h-1zM60 52h1v1h-1z"/><path fill="#6D86C3" d="M61 52h1v1h-1z"/><path fill="#555FAA" d="M62 52h1v1h-1z"/><path fill="#535CA8" d="M63 52h1v1h-1zM64 52h1v1h-1zM65 52h1v1h-1z"/><path fill="#474B83" d="M66 52h1v1h-1z"/><path fill="#231815" d="M67 52h1v1h-1zM68 52h1v1h-1zM69 52h1v1h-1zM70 52h1v1h-1zM1 53h1v1H1zM2 53h1v1H2zM3 53h1v1H3z"/><path fill="#211B1D" d="M4 53h1v1H4z"/><path fill="#113571" d="M5 53h1v1H5z"/><path fill="#474B83" d="M6 53h1v1H6zM7 53h1v1H7zM8 53h1v1H8zM9 53h1v1H9zM10 53h1v1h-1zM11 53h1v1h-1zM12 53h1v1h-1z"/><path fill="#3B3A5F" d="M13 53h1v1h-1zM14 53h1v1h-1zM15 53h1v1h-1zM16 53h1v1h-1zM17 53h1v1h-1zM18 53h1v1h-1zM19 53h1v1h-1zM20 53h1v1h-1z"/><path fill="#35324C" d="M21 53h1v1h-1z"/><path fill="#2F293A" d="M22 53h1v1h-1z"/><path fill="#353240" d="M23 53h1v1h-1z"/><path fill="#373542" d="M24 53h1v1h-1zM25 53h1v1h-1z"/><path fill="#3B3A5F" d="M26 53h1v1h-1z"/><path fill="#535CA8" d="M27 53h1v1h-1zM28 53h1v1h-1zM29 53h1v1h-1z"/><path fill="#014099" d="M30 53h1v1h-1zM31 53h1v1h-1zM32 53h1v1h-1z"/><path fill="#718EC8" d="M33 53h1v1h-1z"/><path fill="#8CA6D6" d="M34 53h1v1h-1z"/><path fill="#95AFDB" d="M35 53h1v1h-1zM36 53h1v1h-1zM37 53h1v1h-1zM38 53h1v1h-1zM39 53h1v1h-1zM40 53h1v1h-1zM41 53h1v1h-1zM42 53h1v1h-1zM43 53h1v1h-1zM44 53h1v1h-1zM45 53h1v1h-1zM46 53h1v1h-1zM47 53h1v1h-1zM48 53h1v1h-1z"/><path fill="#91ABD9" d="M49 53h1v1h-1z"/><path fill="#7C97CD" d="M50 53h1v1h-1z"/><path fill="#718CC7" d="M51 53h1v1h-1zM52 53h1v1h-1zM53 53h1v1h-1zM54 53h1v1h-1zM55 53h1v1h-1zM56 53h1v1h-1zM57 53h1v1h-1zM58 53h1v1h-1zM59 53h1v1h-1zM60 53h1v1h-1z"/><path fill="#5965AE" d="M61 53h1v1h-1z"/><path fill="#535CA8" d="M62 53h1v1h-1zM63 53h1v1h-1zM64 53h1v1h-1zM65 53h1v1h-1z"/><path fill="#2F293A" d="M66 53h1v1h-1z"/><path fill="#231815" d="M67 53h1v1h-1zM68 53h1v1h-1zM69 53h1v1h-1zM1 54h1v1H1zM2 54h1v1H2zM3 54h1v1H3z"/><path fill="#102F5F" d="M4 54h1v1H4z"/><path fill="#06429A" d="M5 54h1v1H5z"/><path fill="#535CA8" d="M6 54h1v1H6zM7 54h1v1H7zM8 54h1v1H8zM9 54h1v1H9zM10 54h1v1h-1zM11 54h1v1h-1z"/><path fill="#5762AC" d="M12 54h1v1h-1z"/><path fill="#5B68B0" d="M13 54h1v1h-1zM14 54h1v1h-1z"/><path fill="#6274B8" d="M15 54h1v1h-1zM16 54h1v1h-1z"/><path fill="#6477B9" d="M17 54h1v1h-1z"/><path fill="#6A80BF" d="M18 54h1v1h-1zM19 54h1v1h-1z"/><path fill="#6D86C3" d="M20 54h1v1h-1z"/><path fill="#718CC7" d="M21 54h1v1h-1zM22 54h1v1h-1zM23 54h1v1h-1zM24 54h1v1h-1zM25 54h1v1h-1zM26 54h1v1h-1z"/><path fill="#687DBD" d="M27 54h1v1h-1z"/><path fill="#5E6EB4" d="M28 54h1v1h-1z"/><path fill="#535CA8" d="M29 54h1v1h-1z"/><path fill="#10459C" d="M30 54h1v1h-1z"/><path fill="#014099" d="M31 54h1v1h-1zM32 54h1v1h-1z"/><path fill="#08459C" d="M33 54h1v1h-1z"/><path fill="#5C7EBE" d="M34 54h1v1h-1z"/><path fill="#7F99CF" d="M35 54h1v1h-1z"/><path fill="#8CA6D6" d="M36 54h1v1h-1z"/><path fill="#95AFDB" d="M37 54h1v1h-1zM38 54h1v1h-1zM39 54h1v1h-1zM40 54h1v1h-1zM41 54h1v1h-1zM42 54h1v1h-1zM43 54h1v1h-1zM44 54h1v1h-1zM45 54h1v1h-1zM46 54h1v1h-1z"/><path fill="#8EA8D7" d="M47 54h1v1h-1z"/><path fill="#7F99CF" d="M48 54h1v1h-1z"/><path fill="#718CC7" d="M49 54h1v1h-1zM50 54h1v1h-1zM51 54h1v1h-1zM52 54h1v1h-1zM53 54h1v1h-1zM54 54h1v1h-1zM55 54h1v1h-1zM56 54h1v1h-1zM57 54h1v1h-1zM58 54h1v1h-1zM59 54h1v1h-1z"/><path fill="#5E6EB4" d="M60 54h1v1h-1z"/><path fill="#535CA8" d="M61 54h1v1h-1zM62 54h1v1h-1zM63 54h1v1h-1zM64 54h1v1h-1z"/><path fill="#474B83" d="M65 54h1v1h-1z"/><path fill="#231815" d="M66 54h1v1h-1zM67 54h1v1h-1zM68 54h1v1h-1zM69 54h1v1h-1zM0 55h1v1H0zM1 55h1v1H1zM2 55h1v1H2z"/><path fill="#211B1D" d="M3 55h1v1H3z"/><path fill="#014099" d="M4 55h1v1H4zM5 55h1v1H5z"/><path fill="#5463AD" d="M6 55h1v1H6z"/><path fill="#687DBD" d="M7 55h1v1H7z"/><path fill="#6A80BF" d="M8 55h1v1H8z"/><path fill="#6B83C1" d="M9 55h1v1H9z"/><path fill="#718CC7" d="M10 55h1v1h-1zM11 55h1v1h-1zM12 55h1v1h-1zM13 55h1v1h-1zM14 55h1v1h-1zM15 55h1v1h-1zM16 55h1v1h-1zM17 55h1v1h-1zM18 55h1v1h-1zM19 55h1v1h-1zM20 55h1v1h-1zM21 55h1v1h-1zM22 55h1v1h-1zM23 55h1v1h-1zM24 55h1v1h-1zM25 55h1v1h-1zM26 55h1v1h-1zM27 55h1v1h-1zM28 55h1v1h-1z"/><path fill="#6D86C3" d="M29 55h1v1h-1z"/><path fill="#335DAA" d="M30 55h1v1h-1z"/><path fill="#014099" d="M31 55h1v1h-1zM32 55h1v1h-1zM33 55h1v1h-1z"/><path fill="#08459C" d="M34 55h1v1h-1z"/><path fill="#5C7EBE" d="M35 55h1v1h-1z"/><path fill="#718CC7" d="M36 55h1v1h-1z"/><path fill="#7690CA" d="M37 55h1v1h-1z"/><path fill="#819BD0" d="M38 55h1v1h-1z"/><path fill="#85A0D2" d="M39 55h1v1h-1z"/><path fill="#8CA6D6" d="M40 55h1v1h-1zM41 55h1v1h-1zM42 55h1v1h-1zM43 55h1v1h-1z"/><path fill="#85A0D2" d="M44 55h1v1h-1z"/><path fill="#7F99CF" d="M45 55h1v1h-1z"/><path fill="#7690CA" d="M46 55h1v1h-1z"/><path fill="#718CC7" d="M47 55h1v1h-1zM48 55h1v1h-1zM49 55h1v1h-1zM50 55h1v1h-1zM51 55h1v1h-1zM52 55h1v1h-1zM53 55h1v1h-1zM54 55h1v1h-1zM55 55h1v1h-1zM56 55h1v1h-1zM57 55h1v1h-1zM58 55h1v1h-1z"/><path fill="#6477B9" d="M59 55h1v1h-1z"/><path fill="#535CA8" d="M60 55h1v1h-1zM61 55h1v1h-1zM62 55h1v1h-1zM63 55h1v1h-1zM64 55h1v1h-1z"/><path fill="#2F293A" d="M65 55h1v1h-1z"/><path fill="#231815" d="M66 55h1v1h-1zM67 55h1v1h-1zM68 55h1v1h-1zM0 56h1v1H0zM1 56h1v1H1zM2 56h1v1H2z"/><path fill="#142A4F" d="M3 56h1v1H3z"/><path fill="#014099" d="M4 56h1v1H4zM5 56h1v1H5z"/><path fill="#3C65AF" d="M6 56h1v1H6z"/><path fill="#718CC7" d="M7 56h1v1H7zM8 56h1v1H8zM9 56h1v1H9zM10 56h1v1h-1zM11 56h1v1h-1zM12 56h1v1h-1zM13 56h1v1h-1zM14 56h1v1h-1zM15 56h1v1h-1zM16 56h1v1h-1zM17 56h1v1h-1zM18 56h1v1h-1zM19 56h1v1h-1zM20 56h1v1h-1zM21 56h1v1h-1zM22 56h1v1h-1zM23 56h1v1h-1zM24 56h1v1h-1zM25 56h1v1h-1zM26 56h1v1h-1zM27 56h1v1h-1zM28 56h1v1h-1zM29 56h1v1h-1zM30 56h1v1h-1z"/><path fill="#4770B6" d="M31 56h1v1h-1z"/><path fill="#014099" d="M32 56h1v1h-1zM33 56h1v1h-1zM34 56h1v1h-1z"/><path fill="#164EA2" d="M35 56h1v1h-1z"/><path fill="#718CC7" d="M36 56h1v1h-1zM37 56h1v1h-1zM38 56h1v1h-1zM39 56h1v1h-1zM40 56h1v1h-1zM41 56h1v1h-1zM42 56h1v1h-1zM43 56h1v1h-1zM44 56h1v1h-1zM45 56h1v1h-1zM46 56h1v1h-1zM47 56h1v1h-1zM48 56h1v1h-1zM49 56h1v1h-1zM50 56h1v1h-1zM51 56h1v1h-1zM52 56h1v1h-1zM53 56h1v1h-1zM54 56h1v1h-1zM55 56h1v1h-1zM56 56h1v1h-1zM57 56h1v1h-1z"/><path fill="#6274B8" d="M58 56h1v1h-1z"/><path fill="#535CA8" d="M59 56h1v1h-1zM60 56h1v1h-1zM61 56h1v1h-1zM62 56h1v1h-1zM63 56h1v1h-1z"/><path fill="#3E3E68" d="M64 56h1v1h-1z"/><path fill="#231815" d="M65 56h1v1h-1zM66 56h1v1h-1zM67 56h1v1h-1zM68 56h1v1h-1zM0 57h1v1H0zM1 57h1v1H1zM2 57h1v1H2z"/><path fill="#203B74" d="M3 57h1v1H3z"/><path fill="#014099" d="M4 57h1v1H4zM5 57h1v1H5zM6 57h1v1H6z"/><path fill="#2B5DAA" d="M7 57h1v1H7z"/><path fill="#4E74B9" d="M8 57h1v1H8z"/><path fill="#6A87C4" d="M9 57h1v1H9z"/><path fill="#718CC7" d="M10 57h1v1h-1zM11 57h1v1h-1zM12 57h1v1h-1zM13 57h1v1h-1zM14 57h1v1h-1zM15 57h1v1h-1zM16 57h1v1h-1zM17 57h1v1h-1zM18 57h1v1h-1zM19 57h1v1h-1zM20 57h1v1h-1zM21 57h1v1h-1zM22 57h1v1h-1zM23 57h1v1h-1zM24 57h1v1h-1zM25 57h1v1h-1zM26 57h1v1h-1zM27 57h1v1h-1zM28 57h1v1h-1zM29 57h1v1h-1zM30 57h1v1h-1zM31 57h1v1h-1z"/><path fill="#4770B6" d="M32 57h1v1h-1z"/><path fill="#014099" d="M33 57h1v1h-1zM34 57h1v1h-1zM35 57h1v1h-1z"/><path fill="#4770B6" d="M36 57h1v1h-1z"/><path fill="#718CC7" d="M37 57h1v1h-1zM38 57h1v1h-1zM39 57h1v1h-1zM40 57h1v1h-1zM41 57h1v1h-1zM42 57h1v1h-1zM43 57h1v1h-1zM44 57h1v1h-1zM45 57h1v1h-1zM46 57h1v1h-1zM47 57h1v1h-1zM48 57h1v1h-1zM49 57h1v1h-1zM50 57h1v1h-1zM51 57h1v1h-1zM52 57h1v1h-1zM53 57h1v1h-1zM54 57h1v1h-1zM55 57h1v1h-1zM56 57h1v1h-1z"/><path fill="#5E6EB4" d="M57 57h1v1h-1z"/><path fill="#535CA8" d="M58 57h1v1h-1zM59 57h1v1h-1zM60 57h1v1h-1zM61 57h1v1h-1zM62 57h1v1h-1z"/><path fill="#4A4F8C" d="M63 57h1v1h-1z"/><path fill="#231815" d="M64 57h1v1h-1zM65 57h1v1h-1zM66 57h1v1h-1zM67 57h1v1h-1zM0 58h1v1H0zM1 58h1v1H1zM2 58h1v1H2z"/><path fill="#424982" d="M3 58h1v1H3z"/><path fill="#10459C" d="M4 58h1v1H4z"/><path fill="#014099" d="M5 58h1v1H5zM6 58h1v1H6zM7 58h1v1H7zM8 58h1v1H8zM9 58h1v1H9zM10 58h1v1h-1zM11 58h1v1h-1zM12 58h1v1h-1z"/><path fill="#1D53A5" d="M13 58h1v1h-1zM14 58h1v1h-1z"/><path fill="#3966B0" d="M15 58h1v1h-1z"/><path fill="#5C7EBE" d="M16 58h1v1h-1z"/><path fill="#718CC7" d="M17 58h1v1h-1zM18 58h1v1h-1zM19 58h1v1h-1zM20 58h1v1h-1zM21 58h1v1h-1zM22 58h1v1h-1zM23 58h1v1h-1zM24 58h1v1h-1zM25 58h1v1h-1zM26 58h1v1h-1zM27 58h1v1h-1z"/><path fill="#7D97CD" d="M28 58h1v1h-1z"/><path fill="#AEC4E4" d="M29 58h1v1h-1z"/><path fill="#BBCFEA" d="M30 58h1v1h-1z"/><path fill="#8AA2D3" d="M31 58h1v1h-1z"/><path fill="#718CC7" d="M32 58h1v1h-1z"/><path fill="#3261AD" d="M33 58h1v1h-1z"/><path fill="#014099" d="M34 58h1v1h-1zM35 58h1v1h-1z"/><path fill="#0F4A9F" d="M36 58h1v1h-1z"/><path fill="#718CC7" d="M37 58h1v1h-1zM38 58h1v1h-1zM39 58h1v1h-1zM40 58h1v1h-1zM41 58h1v1h-1zM42 58h1v1h-1zM43 58h1v1h-1zM44 58h1v1h-1zM45 58h1v1h-1zM46 58h1v1h-1zM47 58h1v1h-1zM48 58h1v1h-1zM49 58h1v1h-1zM50 58h1v1h-1zM51 58h1v1h-1zM52 58h1v1h-1zM53 58h1v1h-1zM54 58h1v1h-1z"/><path fill="#6B83C1" d="M55 58h1v1h-1z"/><path fill="#5965AE" d="M56 58h1v1h-1z"/><path fill="#535CA8" d="M57 58h1v1h-1zM58 58h1v1h-1zM59 58h1v1h-1zM60 58h1v1h-1zM61 58h1v1h-1z"/><path fill="#4D5496" d="M62 58h1v1h-1z"/><path fill="#261C1E" d="M63 58h1v1h-1z"/><path fill="#231815" d="M64 58h1v1h-1zM65 58h1v1h-1zM66 58h1v1h-1zM67 58h1v1h-1zM0 59h1v1H0zM1 59h1v1H1zM2 59h1v1H2z"/><path fill="#474B83" d="M3 59h1v1H3z"/><path fill="#4E5AA7" d="M4 59h1v1H4z"/><path fill="#16479D" d="M5 59h1v1H5z"/><path fill="#014099" d="M6 59h1v1H6zM7 59h1v1H7zM8 59h1v1H8zM9 59h1v1H9zM10 59h1v1h-1zM11 59h1v1h-1zM12 59h1v1h-1zM13 59h1v1h-1zM14 59h1v1h-1zM15 59h1v1h-1zM16 59h1v1h-1z"/><path fill="#1D53A5" d="M17 59h1v1h-1z"/><path fill="#5C7EBE" d="M18 59h1v1h-1z"/><path fill="#718CC7" d="M19 59h1v1h-1zM20 59h1v1h-1zM21 59h1v1h-1zM22 59h1v1h-1zM23 59h1v1h-1zM24 59h1v1h-1zM25 59h1v1h-1z"/><path fill="#7792CA" d="M26 59h1v1h-1z"/><path fill="#A8BEE1" d="M27 59h1v1h-1z"/><path fill="#D3E5F6" d="M28 59h1v1h-1zM29 59h1v1h-1zM30 59h1v1h-1z"/><path fill="#96ADD9" d="M31 59h1v1h-1z"/><path fill="#718CC7" d="M32 59h1v1h-1z"/><path fill="#637BBC" d="M33 59h1v1h-1z"/><path fill="#014099" d="M34 59h1v1h-1zM35 59h1v1h-1zM36 59h1v1h-1z"/><path fill="#6383C1" d="M37 59h1v1h-1z"/><path fill="#718CC7" d="M38 59h1v1h-1zM39 59h1v1h-1zM40 59h1v1h-1zM41 59h1v1h-1zM42 59h1v1h-1zM43 59h1v1h-1zM44 59h1v1h-1zM45 59h1v1h-1zM46 59h1v1h-1zM47 59h1v1h-1zM48 59h1v1h-1zM49 59h1v1h-1zM50 59h1v1h-1zM51 59h1v1h-1zM52 59h1v1h-1z"/><path fill="#6F89C5" d="M53 59h1v1h-1z"/><path fill="#6274B8" d="M54 59h1v1h-1z"/><path fill="#535CA8" d="M55 59h1v1h-1zM56 59h1v1h-1zM57 59h1v1h-1zM58 59h1v1h-1zM59 59h1v1h-1zM60 59h1v1h-1z"/><path fill="#50589F" d="M61 59h1v1h-1z"/><path fill="#2C2531" d="M62 59h1v1h-1z"/><path fill="#231815" d="M63 59h1v1h-1zM64 59h1v1h-1zM65 59h1v1h-1zM66 59h1v1h-1zM0 60h1v1H0zM1 60h1v1H1zM2 60h1v1H2z"/><path fill="#3E3E68" d="M3 60h1v1H3z"/><path fill="#535CA8" d="M4 60h1v1H4zM5 60h1v1H5z"/><path fill="#3F55A4" d="M6 60h1v1H6z"/><path fill="#254CA0" d="M7 60h1v1H7z"/><path fill="#16479D" d="M8 60h1v1H8z"/><path fill="#014099" d="M9 60h1v1H9zM10 60h1v1h-1zM11 60h1v1h-1zM12 60h1v1h-1zM13 60h1v1h-1zM14 60h1v1h-1zM15 60h1v1h-1zM16 60h1v1h-1zM17 60h1v1h-1zM18 60h1v1h-1z"/><path fill="#4770B6" d="M19 60h1v1h-1z"/><path fill="#718CC7" d="M20 60h1v1h-1zM21 60h1v1h-1zM22 60h1v1h-1zM23 60h1v1h-1zM24 60h1v1h-1z"/><path fill="#839DD0" d="M25 60h1v1h-1z"/><path fill="#C1D4ED" d="M26 60h1v1h-1z"/><path fill="#D3E5F6" d="M27 60h1v1h-1zM28 60h1v1h-1zM29 60h1v1h-1z"/><path fill="#CDDFF3" d="M30 60h1v1h-1z"/><path fill="#7792CA" d="M31 60h1v1h-1z"/><path fill="#667ABB" d="M32 60h1v1h-1z"/><path fill="#535CA8" d="M33 60h1v1h-1z"/><path fill="#16479D" d="M34 60h1v1h-1z"/><path fill="#014099" d="M35 60h1v1h-1zM36 60h1v1h-1z"/><path fill="#4E74B9" d="M37 60h1v1h-1z"/><path fill="#718CC7" d="M38 60h1v1h-1zM39 60h1v1h-1zM40 60h1v1h-1zM41 60h1v1h-1zM42 60h1v1h-1zM43 60h1v1h-1zM44 60h1v1h-1zM45 60h1v1h-1zM46 60h1v1h-1zM47 60h1v1h-1zM48 60h1v1h-1zM49 60h1v1h-1zM50 60h1v1h-1z"/><path fill="#6F89C5" d="M51 60h1v1h-1z"/><path fill="#6274B8" d="M52 60h1v1h-1z"/><path fill="#555FAA" d="M53 60h1v1h-1z"/><path fill="#535CA8" d="M54 60h1v1h-1zM55 60h1v1h-1zM56 60h1v1h-1zM57 60h1v1h-1zM58 60h1v1h-1zM59 60h1v1h-1z"/><path fill="#4A4F8C" d="M60 60h1v1h-1z"/><path fill="#292127" d="M61 60h1v1h-1z"/><path fill="#231815" d="M62 60h1v1h-1zM63 60h1v1h-1zM64 60h1v1h-1zM65 60h1v1h-1zM0 61h1v1H0zM1 61h1v1H1zM2 61h1v1H2z"/><path fill="#292127" d="M3 61h1v1H3z"/><path fill="#535CA8" d="M4 61h1v1H4zM5 61h1v1H5zM6 61h1v1H6zM7 61h1v1H7zM8 61h1v1H8zM9 61h1v1H9zM10 61h1v1h-1zM11 61h1v1h-1zM12 61h1v1h-1z"/><path fill="#4457A5" d="M13 61h1v1h-1z"/><path fill="#3953A3" d="M14 61h1v1h-1z"/><path fill="#204B9F" d="M15 61h1v1h-1z"/><path fill="#014099" d="M16 61h1v1h-1zM17 61h1v1h-1zM18 61h1v1h-1zM19 61h1v1h-1z"/><path fill="#4770B6" d="M20 61h1v1h-1z"/><path fill="#718CC7" d="M21 61h1v1h-1zM22 61h1v1h-1zM23 61h1v1h-1z"/><path fill="#839DD0" d="M24 61h1v1h-1z"/><path fill="#CDDFF3" d="M25 61h1v1h-1z"/><path fill="#D3E5F6" d="M26 61h1v1h-1zM27 61h1v1h-1zM28 61h1v1h-1zM29 61h1v1h-1z"/><path fill="#90A8D6" d="M30 61h1v1h-1z"/><path fill="#667ABB" d="M31 61h1v1h-1z"/><path fill="#535CA8" d="M32 61h1v1h-1z"/><path fill="#555FAA" d="M33 61h1v1h-1z"/><path fill="#2E5BA9" d="M34 61h1v1h-1z"/><path fill="#014099" d="M35 61h1v1h-1zM36 61h1v1h-1z"/><path fill="#325AA8" d="M37 61h1v1h-1z"/><path fill="#6A80BF" d="M38 61h1v1h-1z"/><path fill="#718CC7" d="M39 61h1v1h-1zM40 61h1v1h-1zM41 61h1v1h-1zM42 61h1v1h-1zM43 61h1v1h-1zM44 61h1v1h-1zM45 61h1v1h-1zM46 61h1v1h-1zM47 61h1v1h-1z"/><path fill="#6D86C3" d="M48 61h1v1h-1z"/><path fill="#667ABB" d="M49 61h1v1h-1z"/><path fill="#5C6BB2" d="M50 61h1v1h-1z"/><path fill="#535CA8" d="M51 61h1v1h-1zM52 61h1v1h-1zM53 61h1v1h-1zM54 61h1v1h-1zM55 61h1v1h-1zM56 61h1v1h-1zM57 61h1v1h-1zM58 61h1v1h-1z"/><path fill="#44477A" d="M59 61h1v1h-1z"/><path fill="#261C1E" d="M60 61h1v1h-1z"/><path fill="#231815" d="M61 61h1v1h-1zM62 61h1v1h-1zM63 61h1v1h-1zM64 61h1v1h-1zM0 62h1v1H0zM1 62h1v1H1zM2 62h1v1H2zM3 62h1v1H3z"/><path fill="#3B3A5F" d="M4 62h1v1H4z"/><path fill="#535CA8" d="M5 62h1v1H5zM6 62h1v1H6zM7 62h1v1H7zM8 62h1v1H8zM9 62h1v1H9zM10 62h1v1h-1zM11 62h1v1h-1zM12 62h1v1h-1zM13 62h1v1h-1zM14 62h1v1h-1zM15 62h1v1h-1z"/><path fill="#4457A5" d="M16 62h1v1h-1z"/><path fill="#0B449B" d="M17 62h1v1h-1z"/><path fill="#014099" d="M18 62h1v1h-1zM19 62h1v1h-1z"/><path fill="#08459C" d="M20 62h1v1h-1z"/><path fill="#5C7EBE" d="M21 62h1v1h-1z"/><path fill="#718CC7" d="M22 62h1v1h-1z"/><path fill="#839DD0" d="M23 62h1v1h-1z"/><path fill="#CDDFF3" d="M24 62h1v1h-1z"/><path fill="#D3E5F6" d="M25 62h1v1h-1zM26 62h1v1h-1zM27 62h1v1h-1zM28 62h1v1h-1z"/><path fill="#AEC4E4" d="M29 62h1v1h-1z"/><path fill="#667ABB" d="M30 62h1v1h-1z"/><path fill="#535CA8" d="M31 62h1v1h-1zM32 62h1v1h-1z"/><path fill="#6477B9" d="M33 62h1v1h-1z"/><path fill="#3966B0" d="M34 62h1v1h-1z"/><path fill="#014099" d="M35 62h1v1h-1zM36 62h1v1h-1z"/><path fill="#2A4EA1" d="M37 62h1v1h-1z"/><path fill="#535CA8" d="M38 62h1v1h-1zM39 62h1v1h-1z"/><path fill="#5965AE" d="M40 62h1v1h-1z"/><path fill="#5B68B0" d="M41 62h1v1h-1z"/><path fill="#5E6EB4" d="M42 62h1v1h-1z"/><path fill="#6274B8" d="M43 62h1v1h-1zM44 62h1v1h-1z"/><path fill="#5B68B0" d="M45 62h1v1h-1zM46 62h1v1h-1z"/><path fill="#555FAA" d="M47 62h1v1h-1z"/><path fill="#535CA8" d="M48 62h1v1h-1zM49 62h1v1h-1zM50 62h1v1h-1zM51 62h1v1h-1zM52 62h1v1h-1zM53 62h1v1h-1zM54 62h1v1h-1zM55 62h1v1h-1zM56 62h1v1h-1z"/><path fill="#50589F" d="M57 62h1v1h-1z"/><path fill="#383655" d="M58 62h1v1h-1z"/><path fill="#231815" d="M59 62h1v1h-1zM60 62h1v1h-1zM61 62h1v1h-1zM62 62h1v1h-1zM63 62h1v1h-1zM1 63h1v1H1zM2 63h1v1H2zM3 63h1v1H3zM4 63h1v1H4z"/><path fill="#3B3A5F" d="M5 63h1v1H5z"/><path fill="#535CA8" d="M6 63h1v1H6zM7 63h1v1H7zM8 63h1v1H8zM9 63h1v1H9zM10 63h1v1h-1zM11 63h1v1h-1zM12 63h1v1h-1zM13 63h1v1h-1zM14 63h1v1h-1zM15 63h1v1h-1zM16 63h1v1h-1z"/><path fill="#4E5AA7" d="M17 63h1v1h-1z"/><path fill="#06429A" d="M18 63h1v1h-1z"/><path fill="#014099" d="M19 63h1v1h-1zM20 63h1v1h-1z"/><path fill="#1D53A5" d="M21 63h1v1h-1z"/><path fill="#7D97CD" d="M22 63h1v1h-1z"/><path fill="#CDDFF3" d="M23 63h1v1h-1z"/><path fill="#D3E5F6" d="M24 63h1v1h-1zM25 63h1v1h-1zM26 63h1v1h-1zM27 63h1v1h-1z"/><path fill="#BBCFEA" d="M28 63h1v1h-1z"/><path fill="#667ABB" d="M29 63h1v1h-1z"/><path fill="#535CA8" d="M30 63h1v1h-1zM31 63h1v1h-1z"/><path fill="#5B68B0" d="M32 63h1v1h-1z"/><path fill="#718CC7" d="M33 63h1v1h-1z"/><path fill="#3966B0" d="M34 63h1v1h-1z"/><path fill="#0E3168" d="M35 63h1v1h-1z"/><path fill="#0C3470" d="M36 63h1v1h-1z"/><path fill="#2A4EA1" d="M37 63h1v1h-1z"/><path fill="#535CA8" d="M38 63h1v1h-1zM39 63h1v1h-1zM40 63h1v1h-1zM41 63h1v1h-1zM42 63h1v1h-1zM43 63h1v1h-1zM44 63h1v1h-1zM45 63h1v1h-1zM46 63h1v1h-1zM47 63h1v1h-1zM48 63h1v1h-1zM49 63h1v1h-1zM50 63h1v1h-1zM51 63h1v1h-1zM52 63h1v1h-1zM53 63h1v1h-1zM54 63h1v1h-1zM55 63h1v1h-1z"/><path fill="#3E3E68" d="M56 63h1v1h-1z"/><path fill="#261C1E" d="M57 63h1v1h-1z"/><path fill="#231815" d="M58 63h1v1h-1zM59 63h1v1h-1zM60 63h1v1h-1zM61 63h1v1h-1zM62 63h1v1h-1zM1 64h1v1H1zM2 64h1v1H2zM3 64h1v1H3zM4 64h1v1H4zM5 64h1v1H5z"/><path fill="#261C1E" d="M6 64h1v1H6z"/><path fill="#322D43" d="M7 64h1v1H7z"/><path fill="#3E3E68" d="M8 64h1v1H8z"/><path fill="#4D5496" d="M9 64h1v1H9z"/><path fill="#535CA8" d="M10 64h1v1h-1zM11 64h1v1h-1zM12 64h1v1h-1zM13 64h1v1h-1zM14 64h1v1h-1zM15 64h1v1h-1zM16 64h1v1h-1zM17 64h1v1h-1z"/><path fill="#3F55A4" d="M18 64h1v1h-1z"/><path fill="#014099" d="M19 64h1v1h-1zM20 64h1v1h-1zM21 64h1v1h-1z"/><path fill="#92B1D9" d="M22 64h1v1h-1z"/><path fill="#D3E5F6" d="M23 64h1v1h-1zM24 64h1v1h-1zM25 64h1v1h-1zM26 64h1v1h-1z"/><path fill="#B4C9E7" d="M27 64h1v1h-1z"/><path fill="#6C80BE" d="M28 64h1v1h-1z"/><path fill="#535CA8" d="M29 64h1v1h-1zM30 64h1v1h-1zM31 64h1v1h-1z"/><path fill="#92A7D5" d="M32 64h1v1h-1z"/><path fill="#BBCFEA" d="M33 64h1v1h-1z"/><path fill="#54607C" d="M34 64h1v1h-1z"/><path fill="#231815" d="M35 64h1v1h-1zM36 64h1v1h-1z"/><path fill="#2D2C42" d="M37 64h1v1h-1z"/><path fill="#4A4F8C" d="M38 64h1v1h-1z"/><path fill="#535CA8" d="M39 64h1v1h-1zM40 64h1v1h-1zM41 64h1v1h-1zM42 64h1v1h-1zM43 64h1v1h-1zM44 64h1v1h-1zM45 64h1v1h-1zM46 64h1v1h-1zM47 64h1v1h-1zM48 64h1v1h-1zM49 64h1v1h-1zM50 64h1v1h-1zM51 64h1v1h-1zM52 64h1v1h-1z"/><path fill="#4D5496" d="M53 64h1v1h-1z"/><path fill="#3B3A5F" d="M54 64h1v1h-1z"/><path fill="#261C1E" d="M55 64h1v1h-1z"/><path fill="#231815" d="M56 64h1v1h-1zM57 64h1v1h-1zM58 64h1v1h-1zM59 64h1v1h-1zM60 64h1v1h-1zM61 64h1v1h-1zM2 65h1v1H2zM3 65h1v1H3zM4 65h1v1H4zM5 65h1v1H5zM6 65h1v1H6zM7 65h1v1H7zM8 65h1v1H8zM9 65h1v1H9z"/><path fill="#322D43" d="M10 65h1v1h-1z"/><path fill="#50589F" d="M11 65h1v1h-1z"/><path fill="#535CA8" d="M12 65h1v1h-1zM13 65h1v1h-1zM14 65h1v1h-1zM15 65h1v1h-1zM16 65h1v1h-1zM17 65h1v1h-1zM18 65h1v1h-1z"/><path fill="#204B9F" d="M19 65h1v1h-1z"/><path fill="#014099" d="M20 65h1v1h-1zM21 65h1v1h-1z"/><path fill="#3669B0" d="M22 65h1v1h-1z"/><path fill="#D3E5F6" d="M23 65h1v1h-1zM24 65h1v1h-1zM25 65h1v1h-1z"/><path fill="#AEC4E4" d="M26 65h1v1h-1z"/><path fill="#667ABB" d="M27 65h1v1h-1z"/><path fill="#535CA8" d="M28 65h1v1h-1zM29 65h1v1h-1zM30 65h1v1h-1z"/><path fill="#687ABA" d="M31 65h1v1h-1z"/><path fill="#CDDFF3" d="M32 65h1v1h-1z"/><path fill="#D3E5F6" d="M33 65h1v1h-1z"/><path fill="#757983" d="M34 65h1v1h-1z"/><path fill="#231815" d="M35 65h1v1h-1zM36 65h1v1h-1zM37 65h1v1h-1zM38 65h1v1h-1z"/><path fill="#261C1E" d="M39 65h1v1h-1z"/><path fill="#35324C" d="M40 65h1v1h-1z"/><path fill="#3E3E68" d="M41 65h1v1h-1z"/><path fill="#474B83" d="M42 65h1v1h-1z"/><path fill="#50589F" d="M43 65h1v1h-1z"/><path fill="#535CA8" d="M44 65h1v1h-1zM45 65h1v1h-1zM46 65h1v1h-1zM47 65h1v1h-1zM48 65h1v1h-1z"/><path fill="#4A4F8C" d="M49 65h1v1h-1z"/><path fill="#44477A" d="M50 65h1v1h-1z"/><path fill="#383655" d="M51 65h1v1h-1z"/><path fill="#2C2531" d="M52 65h1v1h-1z"/><path fill="#231815" d="M53 65h1v1h-1zM54 65h1v1h-1zM55 65h1v1h-1zM56 65h1v1h-1zM57 65h1v1h-1zM58 65h1v1h-1zM59 65h1v1h-1zM3 66h1v1H3zM4 66h1v1H4zM5 66h1v1H5zM6 66h1v1H6zM7 66h1v1H7zM8 66h1v1H8zM9 66h1v1H9zM10 66h1v1h-1z"/><path fill="#2C2531" d="M11 66h1v1h-1z"/><path fill="#535CA8" d="M12 66h1v1h-1zM13 66h1v1h-1zM14 66h1v1h-1zM15 66h1v1h-1zM16 66h1v1h-1zM17 66h1v1h-1zM18 66h1v1h-1z"/><path fill="#4959A6" d="M19 66h1v1h-1z"/><path fill="#014099" d="M20 66h1v1h-1zM21 66h1v1h-1zM22 66h1v1h-1z"/><path fill="#B9D0EA" d="M23 66h1v1h-1z"/><path fill="#C7DAF0" d="M24 66h1v1h-1z"/><path fill="#90A8D6" d="M25 66h1v1h-1z"/><path fill="#6A80BF" d="M26 66h1v1h-1z"/><path fill="#535CA8" d="M27 66h1v1h-1zM28 66h1v1h-1zM29 66h1v1h-1z"/><path fill="#555FAA" d="M30 66h1v1h-1z"/><path fill="#9AB0DA" d="M31 66h1v1h-1z"/><path fill="#D3E5F6" d="M32 66h1v1h-1zM33 66h1v1h-1z"/><path fill="#7B7F86" d="M34 66h1v1h-1z"/><path fill="#231815" d="M35 66h1v1h-1zM36 66h1v1h-1zM37 66h1v1h-1zM38 66h1v1h-1zM39 66h1v1h-1zM40 66h1v1h-1zM41 66h1v1h-1zM42 66h1v1h-1zM43 66h1v1h-1zM44 66h1v1h-1zM45 66h1v1h-1zM46 66h1v1h-1zM47 66h1v1h-1zM48 66h1v1h-1zM49 66h1v1h-1zM50 66h1v1h-1zM51 66h1v1h-1zM52 66h1v1h-1zM53 66h1v1h-1zM54 66h1v1h-1zM55 66h1v1h-1zM56 66h1v1h-1zM57 66h1v1h-1zM58 66h1v1h-1zM6 67h1v1H6zM7 67h1v1H7zM8 67h1v1H8zM9 67h1v1H9zM10 67h1v1h-1zM11 67h1v1h-1z"/><path fill="#414371" d="M12 67h1v1h-1z"/><path fill="#535CA8" d="M13 67h1v1h-1zM14 67h1v1h-1zM15 67h1v1h-1zM16 67h1v1h-1zM17 67h1v1h-1zM18 67h1v1h-1zM19 67h1v1h-1z"/><path fill="#10459C" d="M20 67h1v1h-1z"/><path fill="#014099" d="M21 67h1v1h-1zM22 67h1v1h-1z"/><path fill="#406BB3" d="M23 67h1v1h-1z"/><path fill="#718CC7" d="M24 67h1v1h-1z"/><path fill="#6B83C1" d="M25 67h1v1h-1z"/><path fill="#555FAA" d="M26 67h1v1h-1z"/><path fill="#535CA8" d="M27 67h1v1h-1zM28 67h1v1h-1zM29 67h1v1h-1z"/><path fill="#6274B8" d="M30 67h1v1h-1z"/><path fill="#C1D4ED" d="M31 67h1v1h-1z"/><path fill="#D3E5F6" d="M32 67h1v1h-1zM33 67h1v1h-1z"/><path fill="#7B7F86" d="M34 67h1v1h-1z"/><path fill="#231815" d="M35 67h1v1h-1zM36 67h1v1h-1zM37 67h1v1h-1zM38 67h1v1h-1zM39 67h1v1h-1zM40 67h1v1h-1zM41 67h1v1h-1zM42 67h1v1h-1zM43 67h1v1h-1zM44 67h1v1h-1zM45 67h1v1h-1zM46 67h1v1h-1zM47 67h1v1h-1zM48 67h1v1h-1zM49 67h1v1h-1zM50 67h1v1h-1zM51 67h1v1h-1zM52 67h1v1h-1zM53 67h1v1h-1zM54 67h1v1h-1zM55 67h1v1h-1zM56 67h1v1h-1zM9 68h1v1H9zM10 68h1v1h-1zM11 68h1v1h-1z"/><path fill="#322D43" d="M12 68h1v1h-1z"/><path fill="#535CA8" d="M13 68h1v1h-1zM14 68h1v1h-1zM15 68h1v1h-1zM16 68h1v1h-1zM17 68h1v1h-1zM18 68h1v1h-1zM19 68h1v1h-1z"/><path fill="#2F50A1" d="M20 68h1v1h-1z"/><path fill="#014099" d="M21 68h1v1h-1zM22 68h1v1h-1z"/><path fill="#1D53A5" d="M23 68h1v1h-1z"/><path fill="#6B83C1" d="M24 68h1v1h-1z"/><path fill="#555FAA" d="M25 68h1v1h-1z"/><path fill="#535CA8" d="M26 68h1v1h-1zM27 68h1v1h-1zM28 68h1v1h-1z"/><path fill="#5762AC" d="M29 68h1v1h-1z"/><path fill="#718CC7" d="M30 68h1v1h-1z"/><path fill="#D3E5F6" d="M31 68h1v1h-1zM32 68h1v1h-1zM33 68h1v1h-1z"/><path fill="#7B7F86" d="M34 68h1v1h-1z"/><path fill="#231815" d="M35 68h1v1h-1zM36 68h1v1h-1zM37 68h1v1h-1zM39 68h1v1h-1zM40 68h1v1h-1zM41 68h1v1h-1zM42 68h1v1h-1zM43 68h1v1h-1zM44 68h1v1h-1zM45 68h1v1h-1zM46 68h1v1h-1zM47 68h1v1h-1zM48 68h1v1h-1zM49 68h1v1h-1zM50 68h1v1h-1zM51 68h1v1h-1zM52 68h1v1h-1zM53 68h1v1h-1zM9 69h1v1H9zM10 69h1v1h-1zM11 69h1v1h-1zM12 69h1v1h-1z"/><path fill="#535CA8" d="M13 69h1v1h-1zM14 69h1v1h-1zM15 69h1v1h-1zM16 69h1v1h-1zM17 69h1v1h-1zM18 69h1v1h-1zM19 69h1v1h-1z"/><path fill="#4457A5" d="M20 69h1v1h-1z"/><path fill="#014099" d="M21 69h1v1h-1zM22 69h1v1h-1zM23 69h1v1h-1z"/><path fill="#555FAA" d="M24 69h1v1h-1z"/><path fill="#535CA8" d="M25 69h1v1h-1zM26 69h1v1h-1zM27 69h1v1h-1zM28 69h1v1h-1z"/><path fill="#667ABB" d="M29 69h1v1h-1z"/><path fill="#8AA2D3" d="M30 69h1v1h-1z"/><path fill="#D3E5F6" d="M31 69h1v1h-1zM32 69h1v1h-1zM33 69h1v1h-1z"/><path fill="#7B7F86" d="M34 69h1v1h-1z"/><path fill="#231815" d="M35 69h1v1h-1zM36 69h1v1h-1zM37 69h1v1h-1zM10 70h1v1h-1zM11 70h1v1h-1zM12 70h1v1h-1z"/><path fill="#474B83" d="M13 70h1v1h-1z"/><path fill="#535CA8" d="M14 70h1v1h-1zM15 70h1v1h-1zM16 70h1v1h-1zM17 70h1v1h-1zM18 70h1v1h-1zM19 70h1v1h-1zM20 70h1v1h-1z"/><path fill="#06429A" d="M21 70h1v1h-1z"/><path fill="#014099" d="M22 70h1v1h-1zM23 70h1v1h-1z"/><path fill="#4457A5" d="M24 70h1v1h-1z"/><path fill="#535CA8" d="M25 70h1v1h-1zM26 70h1v1h-1zM27 70h1v1h-1z"/><path fill="#555FAA" d="M28 70h1v1h-1z"/><path fill="#6F89C5" d="M29 70h1v1h-1z"/><path fill="#96ADD9" d="M30 70h1v1h-1z"/><path fill="#D3E5F6" d="M31 70h1v1h-1zM32 70h1v1h-1zM33 70h1v1h-1z"/><path fill="#7B7F86" d="M34 70h1v1h-1z"/><path fill="#231815" d="M35 70h1v1h-1zM36 70h1v1h-1zM37 70h1v1h-1zM10 71h1v1h-1zM11 71h1v1h-1zM12 71h1v1h-1z"/><path fill="#383655" d="M13 71h1v1h-1z"/><path fill="#535CA8" d="M14 71h1v1h-1zM15 71h1v1h-1zM16 71h1v1h-1zM17 71h1v1h-1zM18 71h1v1h-1zM19 71h1v1h-1zM20 71h1v1h-1z"/><path fill="#1B499E" d="M21 71h1v1h-1z"/><path fill="#014099" d="M22 71h1v1h-1zM23 71h1v1h-1z"/><path fill="#2F50A1" d="M24 71h1v1h-1z"/><path fill="#535CA8" d="M25 71h1v1h-1zM26 71h1v1h-1zM27 71h1v1h-1z"/><path fill="#6274B8" d="M28 71h1v1h-1z"/><path fill="#718CC7" d="M29 71h1v1h-1z"/><path fill="#A2B9DF" d="M30 71h1v1h-1z"/><path fill="#D3E5F6" d="M31 71h1v1h-1zM32 71h1v1h-1zM33 71h1v1h-1z"/><path fill="#7B7F86" d="M34 71h1v1h-1z"/><path fill="#231815" d="M35 71h1v1h-1zM36 71h1v1h-1zM37 71h1v1h-1zM10 72h1v1h-1zM11 72h1v1h-1zM12 72h1v1h-1z"/><path fill="#2C2531" d="M13 72h1v1h-1z"/><path fill="#535CA8" d="M14 72h1v1h-1zM15 72h1v1h-1zM16 72h1v1h-1zM17 72h1v1h-1zM18 72h1v1h-1zM19 72h1v1h-1zM20 72h1v1h-1z"/><path fill="#2F50A1" d="M21 72h1v1h-1z"/><path fill="#014099" d="M22 72h1v1h-1zM23 72h1v1h-1z"/><path fill="#1B499E" d="M24 72h1v1h-1z"/><path fill="#535CA8" d="M25 72h1v1h-1zM26 72h1v1h-1zM27 72h1v1h-1z"/><path fill="#6F89C5" d="M28 72h1v1h-1z"/><path fill="#718CC7" d="M29 72h1v1h-1z"/><path fill="#A2B9DF" d="M30 72h1v1h-1z"/><path fill="#D3E5F6" d="M31 72h1v1h-1zM32 72h1v1h-1zM33 72h1v1h-1z"/><path fill="#7B7F86" d="M34 72h1v1h-1z"/><path fill="#231815" d="M35 72h1v1h-1zM36 72h1v1h-1zM37 72h1v1h-1zM10 73h1v1h-1zM11 73h1v1h-1zM12 73h1v1h-1zM13 73h1v1h-1z"/><path fill="#4D5496" d="M14 73h1v1h-1z"/><path fill="#535CA8" d="M15 73h1v1h-1zM16 73h1v1h-1zM17 73h1v1h-1zM18 73h1v1h-1zM19 73h1v1h-1zM20 73h1v1h-1z"/><path fill="#4457A5" d="M21 73h1v1h-1z"/><path fill="#014099" d="M22 73h1v1h-1zM23 73h1v1h-1zM24 73h1v1h-1z"/><path fill="#4E5AA7" d="M25 73h1v1h-1z"/><path fill="#535CA8" d="M26 73h1v1h-1z"/><path fill="#5C6BB2" d="M27 73h1v1h-1z"/><path fill="#718CC7" d="M28 73h1v1h-1zM29 73h1v1h-1z"/><path fill="#A2B9DF" d="M30 73h1v1h-1z"/><path fill="#D3E5F6" d="M31 73h1v1h-1zM32 73h1v1h-1zM33 73h1v1h-1z"/><path fill="#696E7D" d="M34 73h1v1h-1z"/><path fill="#231815" d="M35 73h1v1h-1zM36 73h1v1h-1zM37 73h1v1h-1zM11 74h1v1h-1zM12 74h1v1h-1zM13 74h1v1h-1z"/><path fill="#383655" d="M14 74h1v1h-1z"/><path fill="#535CA8" d="M15 74h1v1h-1zM16 74h1v1h-1zM17 74h1v1h-1zM18 74h1v1h-1zM19 74h1v1h-1zM20 74h1v1h-1zM21 74h1v1h-1z"/><path fill="#0B449B" d="M22 74h1v1h-1z"/><path fill="#014099" d="M23 74h1v1h-1zM24 74h1v1h-1z"/><path fill="#3452A2" d="M25 74h1v1h-1z"/><path fill="#535CA8" d="M26 74h1v1h-1z"/><path fill="#687DBD" d="M27 74h1v1h-1z"/><path fill="#718CC7" d="M28 74h1v1h-1zM29 74h1v1h-1z"/><path fill="#96ADD9" d="M30 74h1v1h-1z"/><path fill="#D3E5F6" d="M31 74h1v1h-1zM32 74h1v1h-1z"/><path fill="#CDDFF3" d="M33 74h1v1h-1z"/><path fill="#4A526E" d="M34 74h1v1h-1z"/><path fill="#231815" d="M35 74h1v1h-1zM36 74h1v1h-1zM37 74h1v1h-1zM11 75h1v1h-1zM12 75h1v1h-1zM13 75h1v1h-1zM14 75h1v1h-1z"/><path fill="#4D5496" d="M15 75h1v1h-1z"/><path fill="#535CA8" d="M16 75h1v1h-1zM17 75h1v1h-1zM18 75h1v1h-1zM19 75h1v1h-1zM20 75h1v1h-1zM21 75h1v1h-1z"/><path fill="#2A4EA1" d="M22 75h1v1h-1z"/><path fill="#014099" d="M23 75h1v1h-1zM24 75h1v1h-1z"/><path fill="#0B449B" d="M25 75h1v1h-1z"/><path fill="#535CA8" d="M26 75h1v1h-1z"/><path fill="#6F89C5" d="M27 75h1v1h-1z"/><path fill="#718CC7" d="M28 75h1v1h-1zM29 75h1v1h-1z"/><path fill="#7792CA" d="M30 75h1v1h-1z"/><path fill="#B4C9E7" d="M31 75h1v1h-1z"/><path fill="#BBCFEA" d="M32 75h1v1h-1z"/><path fill="#96ADD9" d="M33 75h1v1h-1z"/><path fill="#3B3C4D" d="M34 75h1v1h-1z"/><path fill="#231815" d="M35 75h1v1h-1zM36 75h1v1h-1zM37 75h1v1h-1zM12 76h1v1h-1zM13 76h1v1h-1zM14 76h1v1h-1z"/><path fill="#2C2531" d="M15 76h1v1h-1z"/><path fill="#50589F" d="M16 76h1v1h-1z"/><path fill="#535CA8" d="M17 76h1v1h-1zM18 76h1v1h-1zM19 76h1v1h-1zM20 76h1v1h-1zM21 76h1v1h-1z"/><path fill="#4959A6" d="M22 76h1v1h-1z"/><path fill="#014099" d="M23 76h1v1h-1zM24 76h1v1h-1zM25 76h1v1h-1z"/><path fill="#204B9F" d="M26 76h1v1h-1z"/><path fill="#718CC7" d="M27 76h1v1h-1zM28 76h1v1h-1z"/><path fill="#5C7EBE" d="M29 76h1v1h-1z"/><path fill="#3966B0" d="M30 76h1v1h-1z"/><path fill="#2458A7" d="M31 76h1v1h-1z"/><path fill="#1D53A5" d="M32 76h1v1h-1zM33 76h1v1h-1z"/><path fill="#292C3C" d="M34 76h1v1h-1z"/><path fill="#231815" d="M35 76h1v1h-1zM36 76h1v1h-1zM37 76h1v1h-1zM12 77h1v1h-1zM13 77h1v1h-1zM14 77h1v1h-1zM15 77h1v1h-1z"/><path fill="#2C2531" d="M16 77h1v1h-1z"/><path fill="#4D5496" d="M17 77h1v1h-1z"/><path fill="#535CA8" d="M18 77h1v1h-1zM19 77h1v1h-1zM20 77h1v1h-1zM21 77h1v1h-1zM22 77h1v1h-1z"/><path fill="#2A4EA1" d="M23 77h1v1h-1z"/><path fill="#014099" d="M24 77h1v1h-1zM25 77h1v1h-1zM26 77h1v1h-1z"/><path fill="#08459C" d="M27 77h1v1h-1zM28 77h1v1h-1z"/><path fill="#014099" d="M29 77h1v1h-1zM30 77h1v1h-1zM31 77h1v1h-1zM32 77h1v1h-1zM33 77h1v1h-1z"/><path fill="#1B2236" d="M34 77h1v1h-1z"/><path fill="#231815" d="M35 77h1v1h-1zM36 77h1v1h-1zM37 77h1v1h-1zM13 78h1v1h-1zM14 78h1v1h-1zM15 78h1v1h-1zM16 78h1v1h-1z"/><path fill="#261C1E" d="M17 78h1v1h-1z"/><path fill="#3B3A5F" d="M18 78h1v1h-1z"/><path fill="#4D5496" d="M19 78h1v1h-1z"/><path fill="#535CA8" d="M20 78h1v1h-1zM21 78h1v1h-1zM22 78h1v1h-1z"/><path fill="#4E5AA7" d="M23 78h1v1h-1z"/><path fill="#10459C" d="M24 78h1v1h-1z"/><path fill="#014099" d="M25 78h1v1h-1zM26 78h1v1h-1zM27 78h1v1h-1zM28 78h1v1h-1zM29 78h1v1h-1zM30 78h1v1h-1zM31 78h1v1h-1zM32 78h1v1h-1zM33 78h1v1h-1z"/><path fill="#1B2236" d="M34 78h1v1h-1z"/><path fill="#231815" d="M35 78h1v1h-1zM36 78h1v1h-1zM37 78h1v1h-1zM14 79h1v1h-1zM15 79h1v1h-1zM16 79h1v1h-1zM17 79h1v1h-1zM18 79h1v1h-1zM19 79h1v1h-1z"/><path fill="#2C2531" d="M20 79h1v1h-1z"/><path fill="#35324C" d="M21 79h1v1h-1z"/><path fill="#414371" d="M22 79h1v1h-1z"/><path fill="#50589F" d="M23 79h1v1h-1z"/><path fill="#4E5AA7" d="M24 79h1v1h-1z"/><path fill="#254CA0" d="M25 79h1v1h-1z"/><path fill="#06429A" d="M26 79h1v1h-1z"/><path fill="#014099" d="M27 79h1v1h-1zM28 79h1v1h-1z"/><path fill="#06429A" d="M29 79h1v1h-1z"/><path fill="#1B499E" d="M30 79h1v1h-1z"/><path fill="#3452A2" d="M31 79h1v1h-1z"/><path fill="#3F55A4" d="M32 79h1v1h-1z"/><path fill="#2A4EA1" d="M33 79h1v1h-1z"/><path fill="#231815" d="M34 79h1v1h-1zM35 79h1v1h-1zM36 79h1v1h-1zM37 79h1v1h-1zM15 80h1v1h-1zM16 80h1v1h-1zM17 80h1v1h-1zM18 80h1v1h-1zM19 80h1v1h-1zM20 80h1v1h-1zM21 80h1v1h-1zM22 80h1v1h-1z"/><path fill="#261C1E" d="M23 80h1v1h-1z"/><path fill="#3E3E68" d="M24 80h1v1h-1z"/><path fill="#535CA8" d="M25 80h1v1h-1zM26 80h1v1h-1z"/><path fill="#4457A5" d="M27 80h1v1h-1z"/><path fill="#4E5AA7" d="M28 80h1v1h-1z"/><path fill="#535CA8" d="M29 80h1v1h-1zM30 80h1v1h-1zM31 80h1v1h-1zM32 80h1v1h-1zM33 80h1v1h-1z"/><path fill="#231815" d="M34 80h1v1h-1zM35 80h1v1h-1zM36 80h1v1h-1zM17 81h1v1h-1zM18 81h1v1h-1zM19 81h1v1h-1zM20 81h1v1h-1zM21 81h1v1h-1zM22 81h1v1h-1zM23 81h1v1h-1zM24 81h1v1h-1z"/><path fill="#35324C" d="M25 81h1v1h-1z"/><path fill="#50589F" d="M26 81h1v1h-1z"/><path fill="#535CA8" d="M27 81h1v1h-1zM28 81h1v1h-1zM29 81h1v1h-1zM30 81h1v1h-1zM31 81h1v1h-1zM32 81h1v1h-1z"/><path fill="#4A4F8C" d="M33 81h1v1h-1z"/><path fill="#231815" d="M34 81h1v1h-1zM35 81h1v1h-1zM36 81h1v1h-1zM19 82h1v1h-1zM20 82h1v1h-1zM21 82h1v1h-1zM22 82h1v1h-1zM23 82h1v1h-1zM24 82h1v1h-1zM25 82h1v1h-1z"/><path fill="#2C2531" d="M26 82h1v1h-1z"/><path fill="#50589F" d="M27 82h1v1h-1z"/><path fill="#535CA8" d="M28 82h1v1h-1zM29 82h1v1h-1zM30 82h1v1h-1zM31 82h1v1h-1zM32 82h1v1h-1z"/><path fill="#44477A" d="M33 82h1v1h-1z"/><path fill="#231815" d="M34 82h1v1h-1zM35 82h1v1h-1zM36 82h1v1h-1zM22 83h1v1h-1zM23 83h1v1h-1zM24 83h1v1h-1zM25 83h1v1h-1zM26 83h1v1h-1z"/><path fill="#2C2531" d="M27 83h1v1h-1z"/><path fill="#50589F" d="M28 83h1v1h-1z"/><path fill="#535CA8" d="M29 83h1v1h-1zM30 83h1v1h-1zM31 83h1v1h-1zM32 83h1v1h-1z"/><path fill="#383655" d="M33 83h1v1h-1z"/><path fill="#231815" d="M34 83h1v1h-1zM35 83h1v1h-1zM36 83h1v1h-1zM24 84h1v1h-1zM25 84h1v1h-1zM26 84h1v1h-1zM27 84h1v1h-1z"/><path fill="#2C2531" d="M28 84h1v1h-1z"/><path fill="#50589F" d="M29 84h1v1h-1z"/><path fill="#535CA8" d="M30 84h1v1h-1zM31 84h1v1h-1zM32 84h1v1h-1z"/><path fill="#292127" d="M33 84h1v1h-1z"/><path fill="#231815" d="M34 84h1v1h-1zM35 84h1v1h-1zM36 84h1v1h-1zM25 85h1v1h-1zM26 85h1v1h-1zM27 85h1v1h-1zM28 85h1v1h-1z"/><path fill="#261C1E" d="M29 85h1v1h-1z"/><path fill="#414371" d="M30 85h1v1h-1z"/><path fill="#44477A" d="M31 85h1v1h-1z"/><path fill="#322D43" d="M32 85h1v1h-1z"/><path fill="#231815" d="M33 85h1v1h-1zM34 85h1v1h-1zM35 85h1v1h-1zM36 85h1v1h-1zM26 86h1v1h-1zM27 86h1v1h-1zM28 86h1v1h-1zM29 86h1v1h-1zM30 86h1v1h-1zM31 86h1v1h-1zM32 86h1v1h-1zM33 86h1v1h-1zM34 86h1v1h-1zM35 86h1v1h-1zM27 87h1v1h-1zM28 87h1v1h-1zM29 87h1v1h-1zM30 87h1v1h-1zM31 87h1v1h-1zM32 87h1v1h-1zM33 87h1v1h-1zM34 87h1v1h-1zM35 87h1v1h-1zM28 88h1v1h-1zM29 88h1v1h-1zM30 88h1v1h-1zM31 88h1v1h-1zM32 88h1v1h-1zM33 88h1v1h-1z"/></svg>