<svg baseProfile="full" height="90" width="82" xmlns="http://www.w3.org/2000/svg"><path fill="#231815" d="M21 0h1v1h-1zM22 0h1v1h-1zM23 0h1v1h-1zM24 0h1v1h-1zM25 0h1v1h-1zM26 0h1v1h-1zM27 0h1v1h-1zM28 0h1v1h-1zM29 0h1v1h-1zM30 0h1v1h-1zM31 0h1v1h-1zM32 0h1v1h-1zM17 1h1v1h-1zM18 1h1v1h-1zM19 1h1v1h-1zM20 1h1v1h-1zM21 1h1v1h-1zM22 1h1v1h-1zM23 1h1v1h-1zM24 1h1v1h-1zM25 1h1v1h-1zM26 1h1v1h-1zM27 1h1v1h-1zM28 1h1v1h-1zM29 1h1v1h-1zM30 1h1v1h-1zM31 1h1v1h-1zM32 1h1v1h-1zM33 1h1v1h-1zM34 1h1v1h-1zM35 1h1v1h-1zM36 1h1v1h-1zM15 2h1v1h-1zM16 2h1v1h-1zM17 2h1v1h-1zM18 2h1v1h-1zM19 2h1v1h-1zM20 2h1v1h-1zM21 2h1v1h-1zM22 2h1v1h-1zM23 2h1v1h-1zM24 2h1v1h-1zM25 2h1v1h-1zM26 2h1v1h-1zM27 2h1v1h-1zM28 2h1v1h-1zM29 2h1v1h-1zM30 2h1v1h-1zM31 2h1v1h-1zM32 2h1v1h-1zM33 2h1v1h-1zM34 2h1v1h-1zM35 2h1v1h-1zM36 2h1v1h-1zM37 2h1v1h-1zM38 2h1v1h-1zM13 3h1v1h-1zM14 3h1v1h-1zM15 3h1v1h-1zM16 3h1v1h-1zM17 3h1v1h-1zM18 3h1v1h-1zM19 3h1v1h-1zM20 3h1v1h-1zM21 3h1v1h-1zM22 3h1v1h-1zM23 3h1v1h-1zM24 3h1v1h-1zM25 3h1v1h-1zM26 3h1v1h-1zM27 3h1v1h-1zM28 3h1v1h-1zM29 3h1v1h-1zM30 3h1v1h-1zM31 3h1v1h-1zM32 3h1v1h-1zM33 3h1v1h-1zM34 3h1v1h-1zM35 3h1v1h-1zM36 3h1v1h-1zM37 3h1v1h-1zM38 3h1v1h-1zM39 3h1v1h-1zM40 3h1v1h-1zM11 4h1v1h-1zM12 4h1v1h-1zM13 4h1v1h-1zM14 4h1v1h-1zM15 4h1v1h-1zM16 4h1v1h-1zM17 4h1v1h-1zM18 4h1v1h-1zM19 4h1v1h-1z"/><path fill="#453929" d="M20 4h1v1h-1z"/><path fill="#716545" d="M21 4h1v1h-1z"/><path fill="#938559" d="M22 4h1v1h-1z"/><path fill="#A99B67" d="M23 4h1v1h-1z"/><path fill="#D6C782" d="M24 4h1v1h-1zM25 4h1v1h-1zM26 4h1v1h-1zM27 4h1v1h-1zM28 4h1v1h-1zM29 4h1v1h-1z"/><path fill="#A99B67" d="M30 4h1v1h-1z"/><path fill="#9E9060" d="M31 4h1v1h-1z"/><path fill="#716545" d="M32 4h1v1h-1z"/><path fill="#453929" d="M33 4h1v1h-1z"/><path fill="#231815" d="M34 4h1v1h-1zM35 4h1v1h-1zM36 4h1v1h-1zM37 4h1v1h-1zM38 4h1v1h-1zM39 4h1v1h-1zM40 4h1v1h-1zM41 4h1v1h-1zM42 4h1v1h-1zM10 5h1v1h-1zM11 5h1v1h-1zM12 5h1v1h-1zM13 5h1v1h-1zM14 5h1v1h-1zM15 5h1v1h-1zM16 5h1v1h-1z"/><path fill="#453929" d="M17 5h1v1h-1z"/><path fill="#938559" d="M18 5h1v1h-1z"/><path fill="#C0B174" d="M19 5h1v1h-1z"/><path fill="#D6C782" d="M20 5h1v1h-1zM21 5h1v1h-1zM22 5h1v1h-1zM23 5h1v1h-1zM24 5h1v1h-1zM25 5h1v1h-1zM26 5h1v1h-1zM27 5h1v1h-1zM28 5h1v1h-1zM29 5h1v1h-1zM30 5h1v1h-1zM31 5h1v1h-1zM32 5h1v1h-1zM33 5h1v1h-1z"/><path fill="#CBBC7B" d="M34 5h1v1h-1z"/><path fill="#938559" d="M35 5h1v1h-1z"/><path fill="#3E3225" d="M36 5h1v1h-1z"/><path fill="#231815" d="M37 5h1v1h-1zM38 5h1v1h-1zM39 5h1v1h-1zM40 5h1v1h-1zM41 5h1v1h-1zM42 5h1v1h-1zM43 5h1v1h-1zM8 6h1v1H8zM9 6h1v1H9zM10 6h1v1h-1zM11 6h1v1h-1zM12 6h1v1h-1zM13 6h1v1h-1zM14 6h1v1h-1z"/><path fill="#504430" d="M15 6h1v1h-1z"/><path fill="#A99B67" d="M16 6h1v1h-1z"/><path fill="#DCCF94" d="M17 6h1v1h-1z"/><path fill="#E1D6A3" d="M18 6h1v1h-1z"/><path fill="#E5DBAE" d="M19 6h1v1h-1z"/><path fill="#E9E0B8" d="M20 6h1v1h-1z"/><path fill="#EAE2BC" d="M21 6h1v1h-1zM22 6h1v1h-1zM23 6h1v1h-1zM24 6h1v1h-1zM25 6h1v1h-1z"/><path fill="#E9E0B8" d="M26 6h1v1h-1z"/><path fill="#E5DBAE" d="M27 6h1v1h-1z"/><path fill="#E1D6A3" d="M28 6h1v1h-1z"/><path fill="#DCCF94" d="M29 6h1v1h-1z"/><path fill="#D7C986" d="M30 6h1v1h-1z"/><path fill="#D6C782" d="M31 6h1v1h-1zM32 6h1v1h-1zM33 6h1v1h-1zM34 6h1v1h-1zM35 6h1v1h-1z"/><path fill="#C1B474" d="M36 6h1v1h-1z"/><path fill="#7F744B" d="M37 6h1v1h-1z"/><path fill="#423727" d="M38 6h1v1h-1z"/><path fill="#231815" d="M39 6h1v1h-1zM40 6h1v1h-1zM41 6h1v1h-1zM42 6h1v1h-1zM43 6h1v1h-1zM44 6h1v1h-1zM7 7h1v1H7zM8 7h1v1H8zM9 7h1v1H9zM10 7h1v1h-1zM11 7h1v1h-1zM12 7h1v1h-1z"/><path fill="#453929" d="M13 7h1v1h-1z"/><path fill="#A99B67" d="M14 7h1v1h-1z"/><path fill="#E0D59F" d="M15 7h1v1h-1z"/><path fill="#E8DFB5" d="M16 7h1v1h-1z"/><path fill="#EAE2BC" d="M17 7h1v1h-1zM18 7h1v1h-1zM19 7h1v1h-1zM20 7h1v1h-1zM21 7h1v1h-1zM22 7h1v1h-1zM23 7h1v1h-1zM24 7h1v1h-1zM25 7h1v1h-1zM26 7h1v1h-1zM27 7h1v1h-1zM28 7h1v1h-1zM29 7h1v1h-1zM30 7h1v1h-1z"/><path fill="#E3D8A6" d="M31 7h1v1h-1z"/><path fill="#D9CA89" d="M32 7h1v1h-1z"/><path fill="#D6C782" d="M33 7h1v1h-1zM34 7h1v1h-1zM35 7h1v1h-1zM36 7h1v1h-1z"/><path fill="#A2965F" d="M37 7h1v1h-1z"/><path fill="#9E935D" d="M38 7h1v1h-1z"/><path fill="#7F744B" d="M39 7h1v1h-1z"/><path fill="#32271E" d="M40 7h1v1h-1z"/><path fill="#231815" d="M41 7h1v1h-1zM42 7h1v1h-1zM43 7h1v1h-1zM44 7h1v1h-1zM45 7h1v1h-1zM46 7h1v1h-1zM6 8h1v1H6zM7 8h1v1H7zM8 8h1v1H8zM9 8h1v1H9zM10 8h1v1h-1zM11 8h1v1h-1z"/><path fill="#7D704C" d="M12 8h1v1h-1z"/><path fill="#DBCE91" d="M13 8h1v1h-1z"/><path fill="#E8DFB5" d="M14 8h1v1h-1z"/><path fill="#EAE2BC" d="M15 8h1v1h-1zM16 8h1v1h-1zM17 8h1v1h-1zM18 8h1v1h-1zM19 8h1v1h-1zM20 8h1v1h-1zM21 8h1v1h-1zM22 8h1v1h-1zM23 8h1v1h-1zM24 8h1v1h-1zM25 8h1v1h-1zM26 8h1v1h-1zM27 8h1v1h-1zM28 8h1v1h-1zM29 8h1v1h-1zM30 8h1v1h-1zM31 8h1v1h-1zM32 8h1v1h-1z"/><path fill="#DCCF94" d="M33 8h1v1h-1z"/><path fill="#D6C782" d="M34 8h1v1h-1zM35 8h1v1h-1zM36 8h1v1h-1z"/><path fill="#B0A369" d="M37 8h1v1h-1z"/><path fill="#9E935D" d="M38 8h1v1h-1zM39 8h1v1h-1z"/><path fill="#968B59" d="M40 8h1v1h-1z"/><path fill="#514630" d="M41 8h1v1h-1z"/><path fill="#231815" d="M42 8h1v1h-1zM43 8h1v1h-1zM44 8h1v1h-1zM45 8h1v1h-1zM46 8h1v1h-1zM5 9h1v1H5zM6 9h1v1H6zM7 9h1v1H7zM8 9h1v1H8zM9 9h1v1H9z"/><path fill="#2E231C" d="M10 9h1v1h-1z"/><path fill="#A99B67" d="M11 9h1v1h-1z"/><path fill="#DFD39B" d="M12 9h1v1h-1z"/><path fill="#EAE2BC" d="M13 9h1v1h-1zM14 9h1v1h-1zM15 9h1v1h-1zM16 9h1v1h-1zM17 9h1v1h-1zM18 9h1v1h-1zM19 9h1v1h-1zM20 9h1v1h-1zM21 9h1v1h-1zM22 9h1v1h-1zM23 9h1v1h-1zM24 9h1v1h-1zM25 9h1v1h-1zM26 9h1v1h-1zM27 9h1v1h-1zM28 9h1v1h-1zM29 9h1v1h-1zM30 9h1v1h-1zM31 9h1v1h-1z"/><path fill="#E5DBAE" d="M32 9h1v1h-1z"/><path fill="#DACC8D" d="M33 9h1v1h-1z"/><path fill="#D6C782" d="M34 9h1v1h-1zM35 9h1v1h-1zM36 9h1v1h-1z"/><path fill="#B7AA6D" d="M37 9h1v1h-1z"/><path fill="#9E935D" d="M38 9h1v1h-1zM39 9h1v1h-1zM40 9h1v1h-1zM41 9h1v1h-1z"/><path fill="#706542" d="M42 9h1v1h-1z"/><path fill="#231815" d="M43 9h1v1h-1zM44 9h1v1h-1zM45 9h1v1h-1zM46 9h1v1h-1zM47 9h1v1h-1zM5 10h1v1H5zM6 10h1v1H6zM7 10h1v1H7zM8 10h1v1H8z"/><path fill="#2E231C" d="M9 10h1v1H9z"/><path fill="#B4A66E" d="M10 10h1v1h-1z"/><path fill="#E3D8A6" d="M11 10h1v1h-1z"/><path fill="#EAE2BC" d="M12 10h1v1h-1zM13 10h1v1h-1zM14 10h1v1h-1zM15 10h1v1h-1zM16 10h1v1h-1zM17 10h1v1h-1zM18 10h1v1h-1zM19 10h1v1h-1zM20 10h1v1h-1zM21 10h1v1h-1zM22 10h1v1h-1zM23 10h1v1h-1zM24 10h1v1h-1zM25 10h1v1h-1z"/><path fill="#E5DBAE" d="M26 10h1v1h-1z"/><path fill="#E0D59F" d="M27 10h1v1h-1z"/><path fill="#DCCF94" d="M28 10h1v1h-1z"/><path fill="#DBCE91" d="M29 10h1v1h-1z"/><path fill="#D6C782" d="M30 10h1v1h-1zM31 10h1v1h-1zM32 10h1v1h-1zM33 10h1v1h-1zM34 10h1v1h-1zM35 10h1v1h-1zM36 10h1v1h-1z"/><path fill="#A99D64" d="M37 10h1v1h-1z"/><path fill="#9E935D" d="M38 10h1v1h-1zM39 10h1v1h-1zM40 10h1v1h-1zM41 10h1v1h-1zM42 10h1v1h-1z"/><path fill="#706542" d="M43 10h1v1h-1z"/><path fill="#231815" d="M44 10h1v1h-1zM45 10h1v1h-1zM46 10h1v1h-1zM47 10h1v1h-1zM48 10h1v1h-1zM4 11h1v1H4zM5 11h1v1H5zM6 11h1v1H6zM7 11h1v1H7z"/><path fill="#2E231C" d="M8 11h1v1H8z"/><path fill="#B4A66E" d="M9 11h1v1H9z"/><path fill="#E3D8A6" d="M10 11h1v1h-1z"/><path fill="#EAE2BC" d="M11 11h1v1h-1zM12 11h1v1h-1zM13 11h1v1h-1zM14 11h1v1h-1zM15 11h1v1h-1zM16 11h1v1h-1zM17 11h1v1h-1zM18 11h1v1h-1zM19 11h1v1h-1zM20 11h1v1h-1zM21 11h1v1h-1z"/><path fill="#E8DFB5" d="M22 11h1v1h-1z"/><path fill="#E1D6A3" d="M23 11h1v1h-1z"/><path fill="#DCCF94" d="M24 11h1v1h-1z"/><path fill="#D6C782" d="M25 11h1v1h-1zM26 11h1v1h-1zM27 11h1v1h-1zM28 11h1v1h-1zM29 11h1v1h-1zM30 11h1v1h-1zM31 11h1v1h-1zM32 11h1v1h-1zM33 11h1v1h-1zM34 11h1v1h-1zM35 11h1v1h-1z"/><path fill="#CCBD7B" d="M36 11h1v1h-1z"/><path fill="#9E935D" d="M37 11h1v1h-1zM38 11h1v1h-1zM39 11h1v1h-1zM40 11h1v1h-1zM41 11h1v1h-1zM42 11h1v1h-1zM43 11h1v1h-1z"/><path fill="#706542" d="M44 11h1v1h-1z"/><path fill="#231815" d="M45 11h1v1h-1zM46 11h1v1h-1zM47 11h1v1h-1zM48 11h1v1h-1zM49 11h1v1h-1zM3 12h1v1H3zM4 12h1v1H4zM5 12h1v1H5zM6 12h1v1H6zM7 12h1v1H7z"/><path fill="#B4A66E" d="M8 12h1v1H8z"/><path fill="#DED198" d="M9 12h1v1H9z"/><path fill="#EAE2BC" d="M10 12h1v1h-1zM11 12h1v1h-1zM12 12h1v1h-1zM13 12h1v1h-1zM14 12h1v1h-1zM15 12h1v1h-1zM16 12h1v1h-1zM17 12h1v1h-1zM18 12h1v1h-1zM19 12h1v1h-1z"/><path fill="#E4DAAA" d="M20 12h1v1h-1z"/><path fill="#DCCF94" d="M21 12h1v1h-1z"/><path fill="#D6C782" d="M22 12h1v1h-1zM23 12h1v1h-1zM24 12h1v1h-1zM25 12h1v1h-1zM26 12h1v1h-1zM27 12h1v1h-1zM28 12h1v1h-1zM29 12h1v1h-1zM30 12h1v1h-1zM31 12h1v1h-1zM32 12h1v1h-1zM33 12h1v1h-1zM34 12h1v1h-1z"/><path fill="#D3C480" d="M35 12h1v1h-1z"/><path fill="#A99D64" d="M36 12h1v1h-1z"/><path fill="#9E935D" d="M37 12h1v1h-1zM38 12h1v1h-1zM39 12h1v1h-1zM40 12h1v1h-1zM41 12h1v1h-1zM42 12h1v1h-1zM43 12h1v1h-1zM44 12h1v1h-1z"/><path fill="#594E35" d="M45 12h1v1h-1z"/><path fill="#231815" d="M46 12h1v1h-1zM47 12h1v1h-1zM48 12h1v1h-1zM49 12h1v1h-1zM3 13h1v1H3zM4 13h1v1H4zM5 13h1v1H5zM6 13h1v1H6z"/><path fill="#887A52" d="M7 13h1v1H7z"/><path fill="#DACC8D" d="M8 13h1v1H8z"/><path fill="#EAE2BC" d="M9 13h1v1H9zM10 13h1v1h-1zM11 13h1v1h-1zM12 13h1v1h-1zM13 13h1v1h-1zM14 13h1v1h-1zM15 13h1v1h-1zM16 13h1v1h-1zM17 13h1v1h-1z"/><path fill="#E3D8A6" d="M18 13h1v1h-1z"/><path fill="#D9CA89" d="M19 13h1v1h-1z"/><path fill="#D6C782" d="M20 13h1v1h-1zM21 13h1v1h-1zM22 13h1v1h-1zM23 13h1v1h-1z"/><path fill="#D3C584" d="M24 13h1v1h-1z"/><path fill="#C8BD8A" d="M25 13h1v1h-1zM26 13h1v1h-1z"/><path fill="#BBB491" d="M27 13h1v1h-1zM28 13h1v1h-1zM29 13h1v1h-1z"/><path fill="#BEB68F" d="M30 13h1v1h-1z"/><path fill="#C8BD8A" d="M31 13h1v1h-1zM32 13h1v1h-1z"/><path fill="#D6C782" d="M33 13h1v1h-1z"/><path fill="#C8BA79" d="M34 13h1v1h-1z"/><path fill="#A59A62" d="M35 13h1v1h-1z"/><path fill="#9E935D" d="M36 13h1v1h-1zM37 13h1v1h-1zM38 13h1v1h-1zM39 13h1v1h-1zM40 13h1v1h-1zM41 13h1v1h-1zM42 13h1v1h-1zM43 13h1v1h-1zM44 13h1v1h-1zM45 13h1v1h-1z"/><path fill="#3A2F23" d="M46 13h1v1h-1z"/><path fill="#231815" d="M47 13h1v1h-1zM48 13h1v1h-1zM49 13h1v1h-1zM50 13h1v1h-1zM2 14h1v1H2zM3 14h1v1H3zM4 14h1v1H4zM5 14h1v1H5z"/><path fill="#504430" d="M6 14h1v1H6z"/><path fill="#D7C986" d="M7 14h1v1H7z"/><path fill="#E8DFB5" d="M8 14h1v1H8z"/><path fill="#EAE2BC" d="M9 14h1v1H9zM10 14h1v1h-1zM11 14h1v1h-1zM12 14h1v1h-1zM13 14h1v1h-1zM14 14h1v1h-1zM15 14h1v1h-1z"/><path fill="#E5DBAE" d="M16 14h1v1h-1z"/><path fill="#D9CA89" d="M17 14h1v1h-1z"/><path fill="#D6C782" d="M18 14h1v1h-1zM19 14h1v1h-1z"/><path fill="#D3C584" d="M20 14h1v1h-1z"/><path fill="#C1B88D" d="M21 14h1v1h-1z"/><path fill="#B0AC97" d="M22 14h1v1h-1z"/><path fill="#A6A59C" d="M23 14h1v1h-1z"/><path fill="#9FA0A0" d="M24 14h1v1h-1zM25 14h1v1h-1zM26 14h1v1h-1zM27 14h1v1h-1zM28 14h1v1h-1zM29 14h1v1h-1zM30 14h1v1h-1zM31 14h1v1h-1zM32 14h1v1h-1zM33 14h1v1h-1z"/><path fill="#868782" d="M34 14h1v1h-1z"/><path fill="#7F7E6C" d="M35 14h1v1h-1z"/><path fill="#8C8766" d="M36 14h1v1h-1z"/><path fill="#9B915F" d="M37 14h1v1h-1z"/><path fill="#9E935D" d="M38 14h1v1h-1zM39 14h1v1h-1zM40 14h1v1h-1zM41 14h1v1h-1zM42 14h1v1h-1zM43 14h1v1h-1zM44 14h1v1h-1zM45 14h1v1h-1z"/><path fill="#7F744B" d="M46 14h1v1h-1z"/><path fill="#231815" d="M47 14h1v1h-1zM48 14h1v1h-1zM49 14h1v1h-1zM50 14h1v1h-1zM2 15h1v1H2zM3 15h1v1H3zM4 15h1v1H4zM5 15h1v1H5z"/><path fill="#C0B174" d="M6 15h1v1H6z"/><path fill="#E0D59F" d="M7 15h1v1H7z"/><path fill="#EAE2BC" d="M8 15h1v1H8zM9 15h1v1H9zM10 15h1v1h-1zM11 15h1v1h-1zM12 15h1v1h-1zM13 15h1v1h-1z"/><path fill="#E9E0B8" d="M14 15h1v1h-1z"/><path fill="#DCCF94" d="M15 15h1v1h-1z"/><path fill="#D6C782" d="M16 15h1v1h-1zM17 15h1v1h-1z"/><path fill="#C8BD8A" d="M18 15h1v1h-1z"/><path fill="#B4AF95" d="M19 15h1v1h-1z"/><path fill="#9FA0A0" d="M20 15h1v1h-1zM21 15h1v1h-1zM22 15h1v1h-1zM23 15h1v1h-1zM24 15h1v1h-1zM25 15h1v1h-1zM26 15h1v1h-1zM27 15h1v1h-1zM28 15h1v1h-1zM29 15h1v1h-1zM30 15h1v1h-1zM31 15h1v1h-1zM32 15h1v1h-1zM33 15h1v1h-1z"/><path fill="#939595" d="M34 15h1v1h-1z"/><path fill="#6D7275" d="M35 15h1v1h-1zM36 15h1v1h-1zM37 15h1v1h-1z"/><path fill="#7C7C6E" d="M38 15h1v1h-1z"/><path fill="#928B63" d="M39 15h1v1h-1z"/><path fill="#9E935D" d="M40 15h1v1h-1zM41 15h1v1h-1zM42 15h1v1h-1zM43 15h1v1h-1zM44 15h1v1h-1zM45 15h1v1h-1zM46 15h1v1h-1z"/><path fill="#423727" d="M47 15h1v1h-1z"/><path fill="#231815" d="M48 15h1v1h-1zM49 15h1v1h-1zM50 15h1v1h-1zM51 15h1v1h-1zM1 16h1v1H1zM2 16h1v1H2zM3 16h1v1H3zM4 16h1v1H4z"/><path fill="#665A3E" d="M5 16h1v1H5z"/><path fill="#D9CA89" d="M6 16h1v1H6z"/><path fill="#EAE2BC" d="M7 16h1v1H7zM8 16h1v1H8zM9 16h1v1H9zM10 16h1v1h-1zM11 16h1v1h-1zM12 16h1v1h-1z"/><path fill="#E5DBAE" d="M13 16h1v1h-1z"/><path fill="#D7C986" d="M14 16h1v1h-1z"/><path fill="#D6C782" d="M15 16h1v1h-1z"/><path fill="#CFC286" d="M16 16h1v1h-1z"/><path fill="#ADAA99" d="M17 16h1v1h-1z"/><path fill="#9FA0A0" d="M18 16h1v1h-1zM19 16h1v1h-1zM20 16h1v1h-1zM21 16h1v1h-1zM22 16h1v1h-1zM23 16h1v1h-1zM24 16h1v1h-1zM25 16h1v1h-1zM26 16h1v1h-1zM27 16h1v1h-1zM28 16h1v1h-1zM29 16h1v1h-1zM30 16h1v1h-1zM31 16h1v1h-1zM32 16h1v1h-1zM33 16h1v1h-1z"/><path fill="#8C8F90" d="M34 16h1v1h-1z"/><path fill="#6D7275" d="M35 16h1v1h-1zM36 16h1v1h-1zM37 16h1v1h-1zM38 16h1v1h-1zM39 16h1v1h-1z"/><path fill="#737672" d="M40 16h1v1h-1z"/><path fill="#8F8965" d="M41 16h1v1h-1z"/><path fill="#9E935D" d="M42 16h1v1h-1zM43 16h1v1h-1zM44 16h1v1h-1zM45 16h1v1h-1zM46 16h1v1h-1z"/><path fill="#7F744B" d="M47 16h1v1h-1z"/><path fill="#231815" d="M48 16h1v1h-1zM49 16h1v1h-1zM50 16h1v1h-1zM51 16h1v1h-1zM1 17h1v1H1zM2 17h1v1H2zM3 17h1v1H3zM4 17h1v1H4z"/><path fill="#C0B174" d="M5 17h1v1H5z"/><path fill="#E3D8A6" d="M6 17h1v1H6z"/><path fill="#EAE2BC" d="M7 17h1v1H7zM8 17h1v1H8zM9 17h1v1H9zM10 17h1v1h-1zM11 17h1v1h-1z"/><path fill="#E3D8A6" d="M12 17h1v1h-1z"/><path fill="#D6C782" d="M13 17h1v1h-1zM14 17h1v1h-1z"/><path fill="#BBB491" d="M15 17h1v1h-1z"/><path fill="#9FA0A0" d="M16 17h1v1h-1zM17 17h1v1h-1zM18 17h1v1h-1zM19 17h1v1h-1zM20 17h1v1h-1zM21 17h1v1h-1zM22 17h1v1h-1z"/><path fill="#B1B2B2" d="M23 17h1v1h-1z"/><path fill="#C5C8C9" d="M24 17h1v1h-1z"/><path fill="#AFB7BF" d="M25 17h1v1h-1z"/><path fill="#ADB7C1" d="M26 17h1v1h-1z"/><path fill="#AFBBC7" d="M27 17h1v1h-1z"/><path fill="#B1BFCC" d="M28 17h1v1h-1zM29 17h1v1h-1z"/><path fill="#AFBBC7" d="M30 17h1v1h-1z"/><path fill="#ADB7C1" d="M31 17h1v1h-1z"/><path fill="#A8AFB7" d="M32 17h1v1h-1z"/><path fill="#97999C" d="M33 17h1v1h-1z"/><path fill="#797D81" d="M34 17h1v1h-1z"/><path fill="#6D7275" d="M35 17h1v1h-1zM36 17h1v1h-1zM37 17h1v1h-1zM38 17h1v1h-1zM39 17h1v1h-1zM40 17h1v1h-1zM41 17h1v1h-1z"/><path fill="#797A6F" d="M42 17h1v1h-1z"/><path fill="#988F60" d="M43 17h1v1h-1z"/><path fill="#9E935D" d="M44 17h1v1h-1zM45 17h1v1h-1zM46 17h1v1h-1zM47 17h1v1h-1z"/><path fill="#32271E" d="M48 17h1v1h-1z"/><path fill="#231815" d="M49 17h1v1h-1zM50 17h1v1h-1zM51 17h1v1h-1zM1 18h1v1H1zM2 18h1v1H2zM3 18h1v1H3z"/><path fill="#504430" d="M4 18h1v1H4z"/><path fill="#D7C986" d="M5 18h1v1H5z"/><path fill="#EAE2BC" d="M6 18h1v1H6zM7 18h1v1H7zM8 18h1v1H8zM9 18h1v1H9zM10 18h1v1h-1z"/><path fill="#E0D59F" d="M11 18h1v1h-1z"/><path fill="#D6C782" d="M12 18h1v1h-1z"/><path fill="#D3C584" d="M13 18h1v1h-1z"/><path fill="#B0AC97" d="M14 18h1v1h-1z"/><path fill="#9FA0A0" d="M15 18h1v1h-1zM16 18h1v1h-1zM17 18h1v1h-1zM18 18h1v1h-1zM19 18h1v1h-1z"/><path fill="#B1B2B2" d="M20 18h1v1h-1z"/><path fill="#DBDBDB" d="M21 18h1v1h-1z"/><path fill="#F9F9F9" d="M22 18h1v1h-1z"/><path fill="#FFF" d="M23 18h1v1h-1zM24 18h1v1h-1z"/><path fill="#FAFBFC" d="M25 18h1v1h-1z"/><path fill="#C0CBD6" d="M26 18h1v1h-1z"/><path fill="#B1BFCC" d="M27 18h1v1h-1zM28 18h1v1h-1zM29 18h1v1h-1zM30 18h1v1h-1zM31 18h1v1h-1z"/><path fill="#ACB7C2" d="M32 18h1v1h-1z"/><path fill="#9B9EA4" d="M33 18h1v1h-1zM34 18h1v1h-1z"/><path fill="#989BA1" d="M35 18h1v1h-1z"/><path fill="#8A8E92" d="M36 18h1v1h-1z"/><path fill="#797D81" d="M37 18h1v1h-1z"/><path fill="#6D7275" d="M38 18h1v1h-1zM39 18h1v1h-1zM40 18h1v1h-1zM41 18h1v1h-1zM42 18h1v1h-1zM43 18h1v1h-1z"/><path fill="#898568" d="M44 18h1v1h-1z"/><path fill="#9E935D" d="M45 18h1v1h-1zM46 18h1v1h-1zM47 18h1v1h-1z"/><path fill="#594E35" d="M48 18h1v1h-1z"/><path fill="#231815" d="M49 18h1v1h-1zM50 18h1v1h-1zM51 18h1v1h-1zM52 18h1v1h-1zM0 19h1v1H0zM1 19h1v1H1zM2 19h1v1H2zM3 19h1v1H3z"/><path fill="#938559" d="M4 19h1v1H4z"/><path fill="#DFD39B" d="M5 19h1v1H5z"/><path fill="#EAE2BC" d="M6 19h1v1H6zM7 19h1v1H7zM8 19h1v1H8zM9 19h1v1H9z"/><path fill="#E0D59F" d="M10 19h1v1h-1z"/><path fill="#D6C782" d="M11 19h1v1h-1z"/><path fill="#D3C584" d="M12 19h1v1h-1z"/><path fill="#A9A79A" d="M13 19h1v1h-1z"/><path fill="#9FA0A0" d="M14 19h1v1h-1zM15 19h1v1h-1zM16 19h1v1h-1zM17 19h1v1h-1z"/><path fill="#ABACAC" d="M18 19h1v1h-1z"/><path fill="#E7E7E7" d="M19 19h1v1h-1z"/><path fill="#FFF" d="M20 19h1v1h-1zM21 19h1v1h-1zM22 19h1v1h-1zM23 19h1v1h-1zM24 19h1v1h-1zM25 19h1v1h-1zM26 19h1v1h-1z"/><path fill="#C0CBD6" d="M27 19h1v1h-1z"/><path fill="#B1BFCC" d="M28 19h1v1h-1zM29 19h1v1h-1zM30 19h1v1h-1zM31 19h1v1h-1z"/><path fill="#B0BDCA" d="M32 19h1v1h-1z"/><path fill="#9B9EA4" d="M33 19h1v1h-1zM34 19h1v1h-1zM35 19h1v1h-1zM36 19h1v1h-1zM37 19h1v1h-1z"/><path fill="#92969B" d="M38 19h1v1h-1z"/><path fill="#7B8084" d="M39 19h1v1h-1z"/><path fill="#6D7275" d="M40 19h1v1h-1zM41 19h1v1h-1zM42 19h1v1h-1zM43 19h1v1h-1zM44 19h1v1h-1z"/><path fill="#7F7E6C" d="M45 19h1v1h-1z"/><path fill="#9E935D" d="M46 19h1v1h-1zM47 19h1v1h-1z"/><path fill="#7F744B" d="M48 19h1v1h-1z"/><path fill="#231815" d="M49 19h1v1h-1zM50 19h1v1h-1zM51 19h1v1h-1zM52 19h1v1h-1zM0 20h1v1H0zM1 20h1v1H1zM2 20h1v1H2zM3 20h1v1H3z"/><path fill="#C0B174" d="M4 20h1v1H4z"/><path fill="#E6DDB1" d="M5 20h1v1H5z"/><path fill="#EAE2BC" d="M6 20h1v1H6zM7 20h1v1H7zM8 20h1v1H8z"/><path fill="#E3D8A6" d="M9 20h1v1H9z"/><path fill="#D6C782" d="M10 20h1v1h-1z"/><path fill="#D3C584" d="M11 20h1v1h-1z"/><path fill="#A9A79A" d="M12 20h1v1h-1z"/><path fill="#9FA0A0" d="M13 20h1v1h-1zM14 20h1v1h-1zM15 20h1v1h-1zM16 20h1v1h-1z"/><path fill="#CFD0D0" d="M17 20h1v1h-1z"/><path fill="#FFF" d="M18 20h1v1h-1zM19 20h1v1h-1zM20 20h1v1h-1zM21 20h1v1h-1zM22 20h1v1h-1zM23 20h1v1h-1zM24 20h1v1h-1zM25 20h1v1h-1zM26 20h1v1h-1z"/><path fill="#FAFBFC" d="M27 20h1v1h-1z"/><path fill="#B6C3CF" d="M28 20h1v1h-1z"/><path fill="#B1BFCC" d="M29 20h1v1h-1zM30 20h1v1h-1zM31 20h1v1h-1zM32 20h1v1h-1z"/><path fill="#9B9EA4" d="M33 20h1v1h-1zM34 20h1v1h-1zM35 20h1v1h-1zM36 20h1v1h-1zM37 20h1v1h-1zM38 20h1v1h-1zM39 20h1v1h-1z"/><path fill="#909398" d="M40 20h1v1h-1z"/><path fill="#767A7E" d="M41 20h1v1h-1z"/><path fill="#6D7275" d="M42 20h1v1h-1zM43 20h1v1h-1zM44 20h1v1h-1zM45 20h1v1h-1z"/><path fill="#767871" d="M46 20h1v1h-1z"/><path fill="#9B915F" d="M47 20h1v1h-1z"/><path fill="#968B59" d="M48 20h1v1h-1z"/><path fill="#231815" d="M49 20h1v1h-1zM50 20h1v1h-1zM51 20h1v1h-1zM52 20h1v1h-1zM0 21h1v1H0zM1 21h1v1H1zM2 21h1v1H2z"/><path fill="#2E231C" d="M3 21h1v1H3z"/><path fill="#D7C986" d="M4 21h1v1H4z"/><path fill="#EAE2BC" d="M5 21h1v1H5zM6 21h1v1H6zM7 21h1v1H7z"/><path fill="#E5DBAE" d="M8 21h1v1H8z"/><path fill="#D6C782" d="M9 21h1v1H9zM10 21h1v1h-1z"/><path fill="#B0AC97" d="M11 21h1v1h-1z"/><path fill="#9FA0A0" d="M12 21h1v1h-1zM13 21h1v1h-1zM14 21h1v1h-1z"/><path fill="#A5A6A6" d="M15 21h1v1h-1z"/><path fill="#E7E7E7" d="M16 21h1v1h-1z"/><path fill="#FFF" d="M17 21h1v1h-1zM18 21h1v1h-1zM19 21h1v1h-1zM20 21h1v1h-1zM21 21h1v1h-1zM22 21h1v1h-1zM23 21h1v1h-1zM24 21h1v1h-1zM25 21h1v1h-1zM26 21h1v1h-1zM27 21h1v1h-1z"/><path fill="#D8DFE6" d="M28 21h1v1h-1z"/><path fill="#B1BFCC" d="M29 21h1v1h-1zM30 21h1v1h-1zM31 21h1v1h-1zM32 21h1v1h-1z"/><path fill="#A1A6AE" d="M33 21h1v1h-1z"/><path fill="#9B9EA4" d="M34 21h1v1h-1zM35 21h1v1h-1zM36 21h1v1h-1zM37 21h1v1h-1zM38 21h1v1h-1zM39 21h1v1h-1zM40 21h1v1h-1zM41 21h1v1h-1z"/><path fill="#81858A" d="M42 21h1v1h-1z"/><path fill="#6D7275" d="M43 21h1v1h-1zM44 21h1v1h-1zM45 21h1v1h-1zM46 21h1v1h-1z"/><path fill="#767871" d="M47 21h1v1h-1z"/><path fill="#9E935D" d="M48 21h1v1h-1z"/><path fill="#231815" d="M49 21h1v1h-1zM50 21h1v1h-1zM51 21h1v1h-1zM52 21h1v1h-1zM0 22h1v1H0zM1 22h1v1H1zM2 22h1v1H2z"/><path fill="#504430" d="M3 22h1v1H3z"/><path fill="#DBCE91" d="M4 22h1v1H4z"/><path fill="#EAE2BC" d="M5 22h1v1H5zM6 22h1v1H6z"/><path fill="#E9E0B8" d="M7 22h1v1H7z"/><path fill="#D7C986" d="M8 22h1v1H8z"/><path fill="#D6C782" d="M9 22h1v1H9z"/><path fill="#BBB491" d="M10 22h1v1h-1z"/><path fill="#9FA0A0" d="M11 22h1v1h-1zM12 22h1v1h-1zM13 22h1v1h-1z"/><path fill="#A5A6A6" d="M14 22h1v1h-1z"/><path fill="#EDEDED" d="M15 22h1v1h-1z"/><path fill="#FFF" d="M16 22h1v1h-1zM17 22h1v1h-1zM18 22h1v1h-1zM19 22h1v1h-1zM20 22h1v1h-1zM21 22h1v1h-1zM22 22h1v1h-1zM23 22h1v1h-1zM24 22h1v1h-1zM25 22h1v1h-1zM26 22h1v1h-1zM27 22h1v1h-1z"/><path fill="#F5F7F9" d="M28 22h1v1h-1z"/><path fill="#B1BFCC" d="M29 22h1v1h-1zM30 22h1v1h-1zM31 22h1v1h-1zM32 22h1v1h-1z"/><path fill="#A3AAB3" d="M33 22h1v1h-1z"/><path fill="#9B9EA4" d="M34 22h1v1h-1zM35 22h1v1h-1zM36 22h1v1h-1zM37 22h1v1h-1zM38 22h1v1h-1zM39 22h1v1h-1zM40 22h1v1h-1zM41 22h1v1h-1zM42 22h1v1h-1z"/><path fill="#8A8E92" d="M43 22h1v1h-1z"/><path fill="#6D7275" d="M44 22h1v1h-1zM45 22h1v1h-1zM46 22h1v1h-1zM47 22h1v1h-1z"/><path fill="#7F7E6C" d="M48 22h1v1h-1z"/><path fill="#3A2F23" d="M49 22h1v1h-1z"/><path fill="#231815" d="M50 22h1v1h-1zM51 22h1v1h-1zM52 22h1v1h-1zM0 23h1v1H0zM1 23h1v1H1zM2 23h1v1H2z"/><path fill="#504430" d="M3 23h1v1H3z"/><path fill="#E0D59F" d="M4 23h1v1H4z"/><path fill="#EAE2BC" d="M5 23h1v1H5zM6 23h1v1H6z"/><path fill="#DCCF94" d="M7 23h1v1H7z"/><path fill="#D6C782" d="M8 23h1v1H8z"/><path fill="#CFC286" d="M9 23h1v1H9z"/><path fill="#9FA0A0" d="M10 23h1v1h-1zM11 23h1v1h-1zM12 23h1v1h-1zM13 23h1v1h-1z"/><path fill="#E7E7E7" d="M14 23h1v1h-1z"/><path fill="#FFF" d="M15 23h1v1h-1zM16 23h1v1h-1zM17 23h1v1h-1zM18 23h1v1h-1zM19 23h1v1h-1zM20 23h1v1h-1zM21 23h1v1h-1zM22 23h1v1h-1zM23 23h1v1h-1zM24 23h1v1h-1zM25 23h1v1h-1zM26 23h1v1h-1zM27 23h1v1h-1zM28 23h1v1h-1z"/><path fill="#C9D3DC" d="M29 23h1v1h-1z"/><path fill="#B1BFCC" d="M30 23h1v1h-1zM31 23h1v1h-1zM32 23h1v1h-1z"/><path fill="#A7B1BB" d="M33 23h1v1h-1z"/><path fill="#9B9EA4" d="M34 23h1v1h-1zM35 23h1v1h-1zM36 23h1v1h-1zM37 23h1v1h-1zM38 23h1v1h-1zM39 23h1v1h-1zM40 23h1v1h-1zM41 23h1v1h-1zM42 23h1v1h-1zM43 23h1v1h-1z"/><path fill="#8A8E92" d="M44 23h1v1h-1z"/><path fill="#6D7275" d="M45 23h1v1h-1zM46 23h1v1h-1zM47 23h1v1h-1zM48 23h1v1h-1z"/><path fill="#362F2D" d="M49 23h1v1h-1z"/><path fill="#231815" d="M50 23h1v1h-1zM51 23h1v1h-1zM52 23h1v1h-1zM0 24h1v1H0zM1 24h1v1H1zM2 24h1v1H2z"/><path fill="#7D704C" d="M3 24h1v1H3z"/><path fill="#E0D59F" d="M4 24h1v1H4z"/><path fill="#EAE2BC" d="M5 24h1v1H5z"/><path fill="#E4DAAA" d="M6 24h1v1H6z"/><path fill="#D6C782" d="M7 24h1v1H7zM8 24h1v1H8z"/><path fill="#ADAA99" d="M9 24h1v1H9z"/><path fill="#9FA0A0" d="M10 24h1v1h-1zM11 24h1v1h-1zM12 24h1v1h-1z"/><path fill="#CFD0D0" d="M13 24h1v1h-1z"/><path fill="#FFF" d="M14 24h1v1h-1zM15 24h1v1h-1zM16 24h1v1h-1zM17 24h1v1h-1zM18 24h1v1h-1zM19 24h1v1h-1zM20 24h1v1h-1zM21 24h1v1h-1zM22 24h1v1h-1zM23 24h1v1h-1zM24 24h1v1h-1zM25 24h1v1h-1zM26 24h1v1h-1zM27 24h1v1h-1zM28 24h1v1h-1z"/><path fill="#E2E7EC" d="M29 24h1v1h-1z"/><path fill="#B1BFCC" d="M30 24h1v1h-1zM31 24h1v1h-1zM32 24h1v1h-1z"/><path fill="#ADB9C5" d="M33 24h1v1h-1z"/><path fill="#9B9EA4" d="M34 24h1v1h-1zM35 24h1v1h-1zM36 24h1v1h-1zM37 24h1v1h-1zM38 24h1v1h-1zM39 24h1v1h-1zM40 24h1v1h-1zM41 24h1v1h-1zM42 24h1v1h-1zM43 24h1v1h-1zM44 24h1v1h-1z"/><path fill="#8A8E92" d="M45 24h1v1h-1z"/><path fill="#6D7275" d="M46 24h1v1h-1zM47 24h1v1h-1zM48 24h1v1h-1z"/><path fill="#312927" d="M49 24h1v1h-1z"/><path fill="#231815" d="M50 24h1v1h-1zM51 24h1v1h-1zM52 24h1v1h-1zM0 25h1v1H0zM1 25h1v1H1zM2 25h1v1H2z"/><path fill="#716545" d="M3 25h1v1H3z"/><path fill="#E0D59F" d="M4 25h1v1H4z"/><path fill="#EAE2BC" d="M5 25h1v1H5z"/><path fill="#D9CA89" d="M6 25h1v1H6z"/><path fill="#D6C782" d="M7 25h1v1H7z"/><path fill="#C8BD8A" d="M8 25h1v1H8z"/><path fill="#9FA0A0" d="M9 25h1v1H9zM10 25h1v1h-1zM11 25h1v1h-1z"/><path fill="#B1B2B2" d="M12 25h1v1h-1z"/><path fill="#FFF" d="M13 25h1v1h-1zM14 25h1v1h-1zM15 25h1v1h-1zM16 25h1v1h-1zM17 25h1v1h-1zM18 25h1v1h-1zM19 25h1v1h-1zM20 25h1v1h-1zM21 25h1v1h-1zM22 25h1v1h-1zM23 25h1v1h-1zM24 25h1v1h-1zM25 25h1v1h-1zM26 25h1v1h-1zM27 25h1v1h-1zM28 25h1v1h-1z"/><path fill="#FAFBFC" d="M29 25h1v1h-1z"/><path fill="#B1BFCC" d="M30 25h1v1h-1zM31 25h1v1h-1zM32 25h1v1h-1zM33 25h1v1h-1z"/><path fill="#9CA0A7" d="M34 25h1v1h-1z"/><path fill="#9B9EA4" d="M35 25h1v1h-1zM36 25h1v1h-1zM37 25h1v1h-1zM38 25h1v1h-1zM39 25h1v1h-1zM40 25h1v1h-1zM41 25h1v1h-1zM42 25h1v1h-1zM43 25h1v1h-1zM44 25h1v1h-1zM45 25h1v1h-1z"/><path fill="#81858A" d="M46 25h1v1h-1z"/><path fill="#6D7275" d="M47 25h1v1h-1zM48 25h1v1h-1z"/><path fill="#231815" d="M49 25h1v1h-1zM50 25h1v1h-1zM51 25h1v1h-1zM52 25h1v1h-1zM0 26h1v1H0zM1 26h1v1H1zM2 26h1v1H2z"/><path fill="#504430" d="M3 26h1v1H3z"/><path fill="#DED198" d="M4 26h1v1H4z"/><path fill="#E0D59F" d="M5 26h1v1H5z"/><path fill="#D6C782" d="M6 26h1v1H6zM7 26h1v1H7z"/><path fill="#B0AC97" d="M8 26h1v1H8z"/><path fill="#9FA0A0" d="M9 26h1v1H9zM10 26h1v1h-1zM11 26h1v1h-1z"/><path fill="#E7E7E7" d="M12 26h1v1h-1z"/><path fill="#FFF" d="M13 26h1v1h-1zM14 26h1v1h-1zM15 26h1v1h-1zM16 26h1v1h-1zM17 26h1v1h-1zM18 26h1v1h-1zM19 26h1v1h-1zM20 26h1v1h-1zM21 26h1v1h-1zM22 26h1v1h-1zM23 26h1v1h-1zM24 26h1v1h-1zM25 26h1v1h-1zM26 26h1v1h-1zM27 26h1v1h-1zM28 26h1v1h-1zM29 26h1v1h-1z"/><path fill="#C0CBD6" d="M30 26h1v1h-1z"/><path fill="#B1BFCC" d="M31 26h1v1h-1zM32 26h1v1h-1zM33 26h1v1h-1z"/><path fill="#A2A8B1" d="M34 26h1v1h-1z"/><path fill="#9B9EA4" d="M35 26h1v1h-1zM36 26h1v1h-1zM37 26h1v1h-1zM38 26h1v1h-1zM39 26h1v1h-1zM40 26h1v1h-1zM41 26h1v1h-1zM42 26h1v1h-1zM43 26h1v1h-1zM44 26h1v1h-1zM45 26h1v1h-1z"/><path fill="#989BA1" d="M46 26h1v1h-1z"/><path fill="#73787B" d="M47 26h1v1h-1z"/><path fill="#6D7275" d="M48 26h1v1h-1z"/><path fill="#231815" d="M49 26h1v1h-1zM50 26h1v1h-1zM51 26h1v1h-1zM52 26h1v1h-1zM0 27h1v1H0zM1 27h1v1H1zM2 27h1v1H2z"/><path fill="#453929" d="M3 27h1v1H3z"/><path fill="#D7C986" d="M4 27h1v1H4zM5 27h1v1H5z"/><path fill="#D6C782" d="M6 27h1v1H6z"/><path fill="#CFC286" d="M7 27h1v1H7z"/><path fill="#9FA0A0" d="M8 27h1v1H8zM9 27h1v1H9zM10 27h1v1h-1z"/><path fill="#B7B8B8" d="M11 27h1v1h-1z"/><path fill="#FFF" d="M12 27h1v1h-1zM13 27h1v1h-1zM14 27h1v1h-1zM15 27h1v1h-1zM16 27h1v1h-1zM17 27h1v1h-1zM18 27h1v1h-1zM19 27h1v1h-1zM20 27h1v1h-1zM21 27h1v1h-1zM22 27h1v1h-1zM23 27h1v1h-1zM24 27h1v1h-1zM25 27h1v1h-1zM26 27h1v1h-1zM27 27h1v1h-1zM28 27h1v1h-1zM29 27h1v1h-1z"/><path fill="#D8DFE6" d="M30 27h1v1h-1z"/><path fill="#B1BFCC" d="M31 27h1v1h-1zM32 27h1v1h-1zM33 27h1v1h-1z"/><path fill="#A7B1BB" d="M34 27h1v1h-1z"/><path fill="#9B9EA4" d="M35 27h1v1h-1zM36 27h1v1h-1zM37 27h1v1h-1zM38 27h1v1h-1zM39 27h1v1h-1zM40 27h1v1h-1zM41 27h1v1h-1zM42 27h1v1h-1zM43 27h1v1h-1zM44 27h1v1h-1zM45 27h1v1h-1zM46 27h1v1h-1z"/><path fill="#8D9095" d="M47 27h1v1h-1z"/><path fill="#5B5C5D" d="M48 27h1v1h-1z"/><path fill="#231815" d="M49 27h1v1h-1zM50 27h1v1h-1zM51 27h1v1h-1zM52 27h1v1h-1zM0 28h1v1H0zM1 28h1v1H1zM2 28h1v1H2zM3 28h1v1H3z"/><path fill="#D6C782" d="M4 28h1v1H4zM5 28h1v1H5zM6 28h1v1H6z"/><path fill="#BEB68F" d="M7 28h1v1H7z"/><path fill="#9FA0A0" d="M8 28h1v1H8zM9 28h1v1H9zM10 28h1v1h-1z"/><path fill="#DBDBDB" d="M11 28h1v1h-1z"/><path fill="#FFF" d="M12 28h1v1h-1zM13 28h1v1h-1zM14 28h1v1h-1zM15 28h1v1h-1zM16 28h1v1h-1zM17 28h1v1h-1zM18 28h1v1h-1zM19 28h1v1h-1zM20 28h1v1h-1zM21 28h1v1h-1zM22 28h1v1h-1zM23 28h1v1h-1zM24 28h1v1h-1zM25 28h1v1h-1zM26 28h1v1h-1zM27 28h1v1h-1zM28 28h1v1h-1zM29 28h1v1h-1z"/><path fill="#ECEFF2" d="M30 28h1v1h-1z"/><path fill="#B1BFCC" d="M31 28h1v1h-1zM32 28h1v1h-1zM33 28h1v1h-1z"/><path fill="#AEBBC7" d="M34 28h1v1h-1z"/><path fill="#9B9EA4" d="M35 28h1v1h-1zM36 28h1v1h-1zM37 28h1v1h-1zM38 28h1v1h-1zM39 28h1v1h-1zM40 28h1v1h-1zM41 28h1v1h-1zM42 28h1v1h-1zM43 28h1v1h-1zM44 28h1v1h-1zM45 28h1v1h-1zM46 28h1v1h-1zM47 28h1v1h-1z"/><path fill="#555354" d="M48 28h1v1h-1z"/><path fill="#231815" d="M49 28h1v1h-1zM50 28h1v1h-1zM51 28h1v1h-1zM52 28h1v1h-1zM0 29h1v1H0zM1 29h1v1H1zM2 29h1v1H2zM3 29h1v1H3z"/><path fill="#A69968" d="M4 29h1v1H4z"/><path fill="#D6C782" d="M5 29h1v1H5zM6 29h1v1H6z"/><path fill="#ADAA99" d="M7 29h1v1H7z"/><path fill="#9FA0A0" d="M8 29h1v1H8zM9 29h1v1H9z"/><path fill="#A5A6A6" d="M10 29h1v1h-1z"/><path fill="#FFF" d="M11 29h1v1h-1zM12 29h1v1h-1zM13 29h1v1h-1zM14 29h1v1h-1zM15 29h1v1h-1zM16 29h1v1h-1zM17 29h1v1h-1zM18 29h1v1h-1zM19 29h1v1h-1zM20 29h1v1h-1zM21 29h1v1h-1zM22 29h1v1h-1zM23 29h1v1h-1zM24 29h1v1h-1zM25 29h1v1h-1zM26 29h1v1h-1zM27 29h1v1h-1zM28 29h1v1h-1zM29 29h1v1h-1zM30 29h1v1h-1z"/><path fill="#B6C3CF" d="M31 29h1v1h-1z"/><path fill="#B1BFCC" d="M32 29h1v1h-1zM33 29h1v1h-1zM34 29h1v1h-1z"/><path fill="#9EA2A9" d="M35 29h1v1h-1z"/><path fill="#9B9EA4" d="M36 29h1v1h-1zM37 29h1v1h-1zM38 29h1v1h-1zM39 29h1v1h-1zM40 29h1v1h-1zM41 29h1v1h-1zM42 29h1v1h-1zM43 29h1v1h-1zM44 29h1v1h-1zM45 29h1v1h-1zM46 29h1v1h-1zM47 29h1v1h-1z"/><path fill="#5F5B5D" d="M48 29h1v1h-1z"/><path fill="#231815" d="M49 29h1v1h-1zM50 29h1v1h-1zM51 29h1v1h-1zM52 29h1v1h-1zM0 30h1v1H0zM1 30h1v1H1zM2 30h1v1H2zM3 30h1v1H3z"/><path fill="#696047" d="M4 30h1v1H4z"/><path fill="#CFC384" d="M5 30h1v1H5z"/><path fill="#D6C782" d="M6 30h1v1H6z"/><path fill="#9FA0A0" d="M7 30h1v1H7zM8 30h1v1H8zM9 30h1v1H9z"/><path fill="#BDBEBE" d="M10 30h1v1h-1z"/><path fill="#FFF" d="M11 30h1v1h-1zM12 30h1v1h-1zM13 30h1v1h-1zM14 30h1v1h-1zM15 30h1v1h-1zM16 30h1v1h-1zM17 30h1v1h-1zM18 30h1v1h-1zM19 30h1v1h-1zM20 30h1v1h-1zM21 30h1v1h-1zM22 30h1v1h-1zM23 30h1v1h-1zM24 30h1v1h-1zM25 30h1v1h-1zM26 30h1v1h-1zM27 30h1v1h-1zM28 30h1v1h-1zM29 30h1v1h-1zM30 30h1v1h-1z"/><path fill="#C9D3DC" d="M31 30h1v1h-1z"/><path fill="#B1BFCC" d="M32 30h1v1h-1zM33 30h1v1h-1zM34 30h1v1h-1z"/><path fill="#A5ACB6" d="M35 30h1v1h-1z"/><path fill="#9B9EA4" d="M36 30h1v1h-1zM37 30h1v1h-1zM38 30h1v1h-1zM39 30h1v1h-1zM40 30h1v1h-1zM41 30h1v1h-1zM42 30h1v1h-1zM43 30h1v1h-1zM44 30h1v1h-1zM45 30h1v1h-1zM46 30h1v1h-1zM47 30h1v1h-1z"/><path fill="#7D7D80" d="M48 30h1v1h-1z"/><path fill="#231815" d="M49 30h1v1h-1zM50 30h1v1h-1zM51 30h1v1h-1zM52 30h1v1h-1zM1 31h1v1H1zM2 31h1v1H2zM3 31h1v1H3z"/><path fill="#372D23" d="M4 31h1v1H4z"/><path fill="#C4BC87" d="M5 31h1v1H5z"/><path fill="#C0B88C" d="M6 31h1v1H6z"/><path fill="#9FA0A0" d="M7 31h1v1H7zM8 31h1v1H8zM9 31h1v1H9z"/><path fill="#CECDC6" d="M10 31h1v1h-1z"/><path fill="#FFF" d="M11 31h1v1h-1zM12 31h1v1h-1zM13 31h1v1h-1zM14 31h1v1h-1zM15 31h1v1h-1zM16 31h1v1h-1zM17 31h1v1h-1zM18 31h1v1h-1zM19 31h1v1h-1zM20 31h1v1h-1zM21 31h1v1h-1zM22 31h1v1h-1zM23 31h1v1h-1zM24 31h1v1h-1zM25 31h1v1h-1zM26 31h1v1h-1zM27 31h1v1h-1zM28 31h1v1h-1zM29 31h1v1h-1zM30 31h1v1h-1z"/><path fill="#E2E7EC" d="M31 31h1v1h-1z"/><path fill="#B1BFCC" d="M32 31h1v1h-1zM33 31h1v1h-1zM34 31h1v1h-1z"/><path fill="#ADB9C5" d="M35 31h1v1h-1z"/><path fill="#9B9EA4" d="M36 31h1v1h-1zM37 31h1v1h-1zM38 31h1v1h-1zM39 31h1v1h-1zM40 31h1v1h-1zM41 31h1v1h-1zM42 31h1v1h-1zM43 31h1v1h-1zM44 31h1v1h-1zM45 31h1v1h-1zM46 31h1v1h-1zM47 31h1v1h-1z"/><path fill="#7D7D80" d="M48 31h1v1h-1z"/><path fill="#231815" d="M49 31h1v1h-1zM50 31h1v1h-1zM51 31h1v1h-1zM52 31h1v1h-1zM1 32h1v1H1zM2 32h1v1H2zM3 32h1v1H3zM4 32h1v1H4z"/><path fill="#9C936B" d="M5 32h1v1H5z"/><path fill="#B4B092" d="M6 32h1v1H6z"/><path fill="#9FA0A0" d="M7 32h1v1H7zM8 32h1v1H8zM9 32h1v1H9z"/><path fill="#E2E1D7" d="M10 32h1v1h-1z"/><path fill="#FFF" d="M11 32h1v1h-1zM12 32h1v1h-1zM13 32h1v1h-1zM14 32h1v1h-1zM15 32h1v1h-1zM16 32h1v1h-1zM17 32h1v1h-1zM18 32h1v1h-1zM19 32h1v1h-1zM20 32h1v1h-1zM21 32h1v1h-1zM22 32h1v1h-1zM23 32h1v1h-1zM24 32h1v1h-1zM25 32h1v1h-1zM26 32h1v1h-1zM27 32h1v1h-1zM28 32h1v1h-1zM29 32h1v1h-1zM30 32h1v1h-1z"/><path fill="#FAFBFC" d="M31 32h1v1h-1z"/><path fill="#B1BFCC" d="M32 32h1v1h-1zM33 32h1v1h-1zM34 32h1v1h-1zM35 32h1v1h-1z"/><path fill="#9EA2A9" d="M36 32h1v1h-1z"/><path fill="#9B9EA4" d="M37 32h1v1h-1zM38 32h1v1h-1zM39 32h1v1h-1zM40 32h1v1h-1zM41 32h1v1h-1zM42 32h1v1h-1zM43 32h1v1h-1zM44 32h1v1h-1zM45 32h1v1h-1zM46 32h1v1h-1zM47 32h1v1h-1zM48 32h1v1h-1z"/><path fill="#231815" d="M49 32h1v1h-1zM50 32h1v1h-1zM51 32h1v1h-1zM52 32h1v1h-1zM1 33h1v1H1zM2 33h1v1H2zM3 33h1v1H3zM4 33h1v1H4z"/><path fill="#4B4132" d="M5 33h1v1H5z"/><path fill="#B2AE94" d="M6 33h1v1H6z"/><path fill="#9FA0A0" d="M7 33h1v1H7zM8 33h1v1H8zM9 33h1v1H9z"/><path fill="#FFF" d="M10 33h1v1h-1zM11 33h1v1h-1zM12 33h1v1h-1zM13 33h1v1h-1zM14 33h1v1h-1zM15 33h1v1h-1zM16 33h1v1h-1zM17 33h1v1h-1zM18 33h1v1h-1zM19 33h1v1h-1zM20 33h1v1h-1zM21 33h1v1h-1zM22 33h1v1h-1zM23 33h1v1h-1zM24 33h1v1h-1zM25 33h1v1h-1zM26 33h1v1h-1zM27 33h1v1h-1zM28 33h1v1h-1zM29 33h1v1h-1zM30 33h1v1h-1zM31 33h1v1h-1z"/><path fill="#C0CBD6" d="M32 33h1v1h-1z"/><path fill="#B1BFCC" d="M33 33h1v1h-1zM34 33h1v1h-1zM35 33h1v1h-1z"/><path fill="#A5ACB6" d="M36 33h1v1h-1z"/><path fill="#9B9EA4" d="M37 33h1v1h-1zM38 33h1v1h-1zM39 33h1v1h-1zM40 33h1v1h-1zM41 33h1v1h-1zM42 33h1v1h-1zM43 33h1v1h-1zM44 33h1v1h-1zM45 33h1v1h-1zM46 33h1v1h-1zM47 33h1v1h-1zM48 33h1v1h-1z"/><path fill="#2B201E" d="M49 33h1v1h-1z"/><path fill="#231815" d="M50 33h1v1h-1zM51 33h1v1h-1zM52 33h1v1h-1zM2 34h1v1H2zM3 34h1v1H3zM4 34h1v1H4zM5 34h1v1H5z"/><path fill="#82807C" d="M6 34h1v1H6z"/><path fill="#9FA0A0" d="M7 34h1v1H7zM8 34h1v1H8z"/><path fill="#ABACAC" d="M9 34h1v1H9z"/><path fill="#FFF" d="M10 34h1v1h-1zM11 34h1v1h-1zM12 34h1v1h-1zM13 34h1v1h-1zM14 34h1v1h-1zM15 34h1v1h-1zM16 34h1v1h-1zM17 34h1v1h-1zM18 34h1v1h-1zM19 34h1v1h-1zM20 34h1v1h-1zM21 34h1v1h-1zM22 34h1v1h-1zM23 34h1v1h-1zM24 34h1v1h-1zM25 34h1v1h-1zM26 34h1v1h-1zM27 34h1v1h-1zM28 34h1v1h-1zM29 34h1v1h-1zM30 34h1v1h-1zM31 34h1v1h-1z"/><path fill="#DDE3E9" d="M32 34h1v1h-1z"/><path fill="#B1BFCC" d="M33 34h1v1h-1zM34 34h1v1h-1zM35 34h1v1h-1z"/><path fill="#ADB9C5" d="M36 34h1v1h-1z"/><path fill="#9B9EA4" d="M37 34h1v1h-1zM38 34h1v1h-1zM39 34h1v1h-1zM40 34h1v1h-1zM41 34h1v1h-1zM42 34h1v1h-1zM43 34h1v1h-1zM44 34h1v1h-1zM45 34h1v1h-1zM46 34h1v1h-1zM47 34h1v1h-1zM48 34h1v1h-1z"/><path fill="#413A39" d="M49 34h1v1h-1z"/><path fill="#231815" d="M50 34h1v1h-1zM51 34h1v1h-1zM52 34h1v1h-1zM2 35h1v1H2zM3 35h1v1H3zM4 35h1v1H4zM5 35h1v1H5z"/><path fill="#3A322F" d="M6 35h1v1H6z"/><path fill="#9FA0A0" d="M7 35h1v1H7zM8 35h1v1H8z"/><path fill="#A8ACAE" d="M9 35h1v1H9z"/><path fill="#FFF" d="M10 35h1v1h-1zM11 35h1v1h-1zM12 35h1v1h-1zM13 35h1v1h-1zM14 35h1v1h-1zM15 35h1v1h-1zM16 35h1v1h-1zM17 35h1v1h-1zM18 35h1v1h-1zM19 35h1v1h-1zM20 35h1v1h-1zM21 35h1v1h-1zM22 35h1v1h-1zM23 35h1v1h-1zM24 35h1v1h-1zM25 35h1v1h-1zM26 35h1v1h-1zM27 35h1v1h-1zM28 35h1v1h-1zM29 35h1v1h-1zM30 35h1v1h-1zM31 35h1v1h-1z"/><path fill="#F5F7F9" d="M32 35h1v1h-1z"/><path fill="#B1BFCC" d="M33 35h1v1h-1zM34 35h1v1h-1zM35 35h1v1h-1zM36 35h1v1h-1z"/><path fill="#9FA4AC" d="M37 35h1v1h-1z"/><path fill="#9B9EA4" d="M38 35h1v1h-1zM39 35h1v1h-1zM40 35h1v1h-1zM41 35h1v1h-1zM42 35h1v1h-1zM43 35h1v1h-1zM44 35h1v1h-1zM45 35h1v1h-1zM46 35h1v1h-1zM47 35h1v1h-1zM48 35h1v1h-1z"/><path fill="#585354" d="M49 35h1v1h-1z"/><path fill="#231815" d="M50 35h1v1h-1zM51 35h1v1h-1zM52 35h1v1h-1zM3 36h1v1H3zM4 36h1v1H4zM5 36h1v1H5zM6 36h1v1H6z"/><path fill="#615C5B" d="M7 36h1v1H7z"/><path fill="#9FA0A0" d="M8 36h1v1H8z"/><path fill="#A4A8AB" d="M9 36h1v1H9z"/><path fill="#E7EBEF" d="M10 36h1v1h-1z"/><path fill="#FFF" d="M11 36h1v1h-1zM12 36h1v1h-1zM13 36h1v1h-1zM14 36h1v1h-1zM15 36h1v1h-1zM16 36h1v1h-1zM17 36h1v1h-1zM18 36h1v1h-1zM19 36h1v1h-1zM20 36h1v1h-1zM21 36h1v1h-1zM22 36h1v1h-1zM23 36h1v1h-1zM24 36h1v1h-1zM25 36h1v1h-1zM26 36h1v1h-1zM27 36h1v1h-1zM28 36h1v1h-1zM29 36h1v1h-1zM30 36h1v1h-1zM31 36h1v1h-1zM32 36h1v1h-1z"/><path fill="#C0CBD6" d="M33 36h1v1h-1z"/><path fill="#B1BFCC" d="M34 36h1v1h-1zM35 36h1v1h-1zM36 36h1v1h-1z"/><path fill="#A9B3BD" d="M37 36h1v1h-1z"/><path fill="#9B9EA4" d="M38 36h1v1h-1zM39 36h1v1h-1zM40 36h1v1h-1zM41 36h1v1h-1zM42 36h1v1h-1zM43 36h1v1h-1zM44 36h1v1h-1zM45 36h1v1h-1zM46 36h1v1h-1zM47 36h1v1h-1zM48 36h1v1h-1z"/><path fill="#676365" d="M49 36h1v1h-1z"/><path fill="#231815" d="M50 36h1v1h-1zM51 36h1v1h-1zM52 36h1v1h-1zM53 36h1v1h-1zM3 37h1v1H3zM4 37h1v1H4zM5 37h1v1H5zM6 37h1v1H6zM7 37h1v1H7z"/><path fill="#888786" d="M8 37h1v1H8z"/><path fill="#A5AAAE" d="M9 37h1v1H9z"/><path fill="#CED7DF" d="M10 37h1v1h-1z"/><path fill="#FFF" d="M11 37h1v1h-1zM12 37h1v1h-1zM13 37h1v1h-1zM14 37h1v1h-1zM15 37h1v1h-1zM16 37h1v1h-1zM17 37h1v1h-1zM18 37h1v1h-1zM19 37h1v1h-1zM20 37h1v1h-1zM21 37h1v1h-1zM22 37h1v1h-1zM23 37h1v1h-1zM24 37h1v1h-1zM25 37h1v1h-1zM26 37h1v1h-1zM27 37h1v1h-1zM28 37h1v1h-1zM29 37h1v1h-1zM30 37h1v1h-1zM31 37h1v1h-1zM32 37h1v1h-1z"/><path fill="#DDE3E9" d="M33 37h1v1h-1z"/><path fill="#B1BFCC" d="M34 37h1v1h-1zM35 37h1v1h-1zM36 37h1v1h-1z"/><path fill="#B0BDCA" d="M37 37h1v1h-1z"/><path fill="#9B9EA4" d="M38 37h1v1h-1zM39 37h1v1h-1zM40 37h1v1h-1zM41 37h1v1h-1zM42 37h1v1h-1zM43 37h1v1h-1zM44 37h1v1h-1zM45 37h1v1h-1zM46 37h1v1h-1zM47 37h1v1h-1zM48 37h1v1h-1z"/><path fill="#7D7D80" d="M49 37h1v1h-1z"/><path fill="#231815" d="M50 37h1v1h-1zM51 37h1v1h-1zM52 37h1v1h-1zM53 37h1v1h-1zM4 38h1v1H4zM5 38h1v1H5zM6 38h1v1H6zM7 38h1v1H7z"/><path fill="#332926" d="M8 38h1v1H8z"/><path fill="#A0A7AD" d="M9 38h1v1H9z"/><path fill="#B1BFCC" d="M10 38h1v1h-1z"/><path fill="#FAFBFC" d="M11 38h1v1h-1z"/><path fill="#FFF" d="M12 38h1v1h-1zM13 38h1v1h-1zM14 38h1v1h-1zM15 38h1v1h-1zM16 38h1v1h-1zM17 38h1v1h-1zM18 38h1v1h-1zM19 38h1v1h-1zM20 38h1v1h-1zM21 38h1v1h-1zM22 38h1v1h-1zM23 38h1v1h-1zM24 38h1v1h-1zM25 38h1v1h-1zM26 38h1v1h-1zM27 38h1v1h-1zM28 38h1v1h-1zM29 38h1v1h-1zM30 38h1v1h-1zM31 38h1v1h-1zM32 38h1v1h-1z"/><path fill="#F5F7F9" d="M33 38h1v1h-1z"/><path fill="#B1BFCC" d="M34 38h1v1h-1zM35 38h1v1h-1zM36 38h1v1h-1zM37 38h1v1h-1z"/><path fill="#A3AAB3" d="M38 38h1v1h-1z"/><path fill="#9B9EA4" d="M39 38h1v1h-1zM40 38h1v1h-1zM41 38h1v1h-1zM42 38h1v1h-1zM43 38h1v1h-1zM44 38h1v1h-1zM45 38h1v1h-1zM46 38h1v1h-1zM47 38h1v1h-1zM48 38h1v1h-1zM49 38h1v1h-1z"/><path fill="#231815" d="M50 38h1v1h-1zM51 38h1v1h-1zM52 38h1v1h-1zM53 38h1v1h-1zM5 39h1v1H5zM6 39h1v1H6zM7 39h1v1H7zM8 39h1v1H8z"/><path fill="#5F5D60" d="M9 39h1v1H9z"/><path fill="#B1BFCC" d="M10 39h1v1h-1z"/><path fill="#DDE3E9" d="M11 39h1v1h-1z"/><path fill="#FFF" d="M12 39h1v1h-1zM13 39h1v1h-1zM14 39h1v1h-1zM15 39h1v1h-1zM16 39h1v1h-1zM17 39h1v1h-1zM18 39h1v1h-1zM19 39h1v1h-1zM20 39h1v1h-1zM21 39h1v1h-1zM22 39h1v1h-1zM23 39h1v1h-1zM24 39h1v1h-1zM25 39h1v1h-1zM26 39h1v1h-1zM27 39h1v1h-1zM28 39h1v1h-1zM29 39h1v1h-1zM30 39h1v1h-1zM31 39h1v1h-1zM32 39h1v1h-1zM33 39h1v1h-1z"/><path fill="#C9D3DC" d="M34 39h1v1h-1z"/><path fill="#B1BFCC" d="M35 39h1v1h-1zM36 39h1v1h-1zM37 39h1v1h-1z"/><path fill="#ADB9C5" d="M38 39h1v1h-1z"/><path fill="#9B9EA4" d="M39 39h1v1h-1zM40 39h1v1h-1zM41 39h1v1h-1zM42 39h1v1h-1zM43 39h1v1h-1zM44 39h1v1h-1zM45 39h1v1h-1zM46 39h1v1h-1zM47 39h1v1h-1zM48 39h1v1h-1zM49 39h1v1h-1z"/><path fill="#3A3130" d="M50 39h1v1h-1z"/><path fill="#231815" d="M51 39h1v1h-1zM52 39h1v1h-1zM53 39h1v1h-1zM5 40h1v1H5zM6 40h1v1H6zM7 40h1v1H7zM8 40h1v1H8z"/><path fill="#352D2C" d="M9 40h1v1H9z"/><path fill="#B1BFCC" d="M10 40h1v1h-1z"/><path fill="#BBC7D2" d="M11 40h1v1h-1z"/><path fill="#FFF" d="M12 40h1v1h-1zM13 40h1v1h-1zM14 40h1v1h-1zM15 40h1v1h-1zM16 40h1v1h-1zM17 40h1v1h-1zM18 40h1v1h-1zM19 40h1v1h-1zM20 40h1v1h-1zM21 40h1v1h-1zM22 40h1v1h-1zM23 40h1v1h-1zM24 40h1v1h-1zM25 40h1v1h-1zM26 40h1v1h-1zM27 40h1v1h-1zM28 40h1v1h-1zM29 40h1v1h-1zM30 40h1v1h-1zM31 40h1v1h-1zM32 40h1v1h-1zM33 40h1v1h-1z"/><path fill="#E2E7EC" d="M34 40h1v1h-1z"/><path fill="#B1BFCC" d="M35 40h1v1h-1zM36 40h1v1h-1zM37 40h1v1h-1zM38 40h1v1h-1z"/><path fill="#A1A6AE" d="M39 40h1v1h-1z"/><path fill="#9B9EA4" d="M40 40h1v1h-1zM41 40h1v1h-1zM42 40h1v1h-1zM43 40h1v1h-1zM44 40h1v1h-1zM45 40h1v1h-1zM46 40h1v1h-1zM47 40h1v1h-1zM48 40h1v1h-1zM49 40h1v1h-1z"/><path fill="#504A4B" d="M50 40h1v1h-1z"/><path fill="#231815" d="M51 40h1v1h-1zM52 40h1v1h-1zM53 40h1v1h-1zM6 41h1v1H6zM7 41h1v1H7zM8 41h1v1H8zM9 41h1v1H9z"/><path fill="#858B93" d="M10 41h1v1h-1z"/><path fill="#B1BFCC" d="M11 41h1v1h-1z"/><path fill="#ECEFF2" d="M12 41h1v1h-1z"/><path fill="#FFF" d="M13 41h1v1h-1zM14 41h1v1h-1zM15 41h1v1h-1zM16 41h1v1h-1zM17 41h1v1h-1zM18 41h1v1h-1zM19 41h1v1h-1zM20 41h1v1h-1zM21 41h1v1h-1zM22 41h1v1h-1zM23 41h1v1h-1zM24 41h1v1h-1zM25 41h1v1h-1zM26 41h1v1h-1zM27 41h1v1h-1zM28 41h1v1h-1zM29 41h1v1h-1zM30 41h1v1h-1zM31 41h1v1h-1zM32 41h1v1h-1zM33 41h1v1h-1zM34 41h1v1h-1z"/><path fill="#B6C3CF" d="M35 41h1v1h-1z"/><path fill="#B1BFCC" d="M36 41h1v1h-1zM37 41h1v1h-1zM38 41h1v1h-1z"/><path fill="#A9B3BD" d="M39 41h1v1h-1z"/><path fill="#9B9EA4" d="M40 41h1v1h-1zM41 41h1v1h-1zM42 41h1v1h-1zM43 41h1v1h-1zM44 41h1v1h-1zM45 41h1v1h-1zM46 41h1v1h-1zM47 41h1v1h-1zM48 41h1v1h-1zM49 41h1v1h-1z"/><path fill="#676365" d="M50 41h1v1h-1z"/><path fill="#231815" d="M51 41h1v1h-1zM52 41h1v1h-1zM53 41h1v1h-1zM54 41h1v1h-1zM6 42h1v1H6zM7 42h1v1H7zM8 42h1v1H8zM9 42h1v1H9z"/><path fill="#58575A" d="M10 42h1v1h-1z"/><path fill="#B1BFCC" d="M11 42h1v1h-1z"/><path fill="#C9D3DC" d="M12 42h1v1h-1z"/><path fill="#FFF" d="M13 42h1v1h-1zM14 42h1v1h-1zM15 42h1v1h-1zM16 42h1v1h-1zM17 42h1v1h-1zM18 42h1v1h-1zM19 42h1v1h-1zM20 42h1v1h-1zM21 42h1v1h-1zM22 42h1v1h-1zM23 42h1v1h-1zM24 42h1v1h-1zM25 42h1v1h-1zM26 42h1v1h-1zM27 42h1v1h-1zM28 42h1v1h-1zM29 42h1v1h-1zM30 42h1v1h-1zM31 42h1v1h-1zM32 42h1v1h-1zM33 42h1v1h-1zM34 42h1v1h-1z"/><path fill="#D3DBE2" d="M35 42h1v1h-1z"/><path fill="#B1BFCC" d="M36 42h1v1h-1zM37 42h1v1h-1zM38 42h1v1h-1zM39 42h1v1h-1z"/><path fill="#9EA2A9" d="M40 42h1v1h-1z"/><path fill="#9B9EA4" d="M41 42h1v1h-1zM42 42h1v1h-1zM43 42h1v1h-1zM44 42h1v1h-1zM45 42h1v1h-1zM46 42h1v1h-1zM47 42h1v1h-1zM48 42h1v1h-1zM49 42h1v1h-1z"/><path fill="#858589" d="M50 42h1v1h-1z"/><path fill="#231815" d="M51 42h1v1h-1zM52 42h1v1h-1zM53 42h1v1h-1zM54 42h1v1h-1zM7 43h1v1H7zM8 43h1v1H8zM9 43h1v1H9zM10 43h1v1h-1z"/><path fill="#A8B5C1" d="M11 43h1v1h-1z"/><path fill="#B1BFCC" d="M12 43h1v1h-1z"/><path fill="#F5F7F9" d="M13 43h1v1h-1z"/><path fill="#FFF" d="M14 43h1v1h-1zM15 43h1v1h-1zM16 43h1v1h-1zM17 43h1v1h-1zM18 43h1v1h-1zM19 43h1v1h-1zM20 43h1v1h-1zM21 43h1v1h-1zM22 43h1v1h-1zM23 43h1v1h-1zM24 43h1v1h-1zM25 43h1v1h-1zM26 43h1v1h-1zM27 43h1v1h-1zM28 43h1v1h-1zM29 43h1v1h-1zM30 43h1v1h-1zM31 43h1v1h-1zM32 43h1v1h-1zM33 43h1v1h-1zM34 43h1v1h-1z"/><path fill="#F5F7F9" d="M35 43h1v1h-1z"/><path fill="#B1BFCC" d="M36 43h1v1h-1zM37 43h1v1h-1zM38 43h1v1h-1zM39 43h1v1h-1z"/><path fill="#A9B3BD" d="M40 43h1v1h-1z"/><path fill="#9B9EA4" d="M41 43h1v1h-1zM42 43h1v1h-1zM43 43h1v1h-1zM44 43h1v1h-1zM45 43h1v1h-1zM46 43h1v1h-1zM47 43h1v1h-1zM48 43h1v1h-1zM49 43h1v1h-1zM50 43h1v1h-1z"/><path fill="#2B201E" d="M51 43h1v1h-1z"/><path fill="#231815" d="M52 43h1v1h-1zM53 43h1v1h-1zM54 43h1v1h-1zM7 44h1v1H7zM8 44h1v1H8zM9 44h1v1H9zM10 44h1v1h-1z"/><path fill="#73767C" d="M11 44h1v1h-1z"/><path fill="#B1BFCC" d="M12 44h1v1h-1z"/><path fill="#CED7DF" d="M13 44h1v1h-1z"/><path fill="#FFF" d="M14 44h1v1h-1zM15 44h1v1h-1zM16 44h1v1h-1zM17 44h1v1h-1zM18 44h1v1h-1zM19 44h1v1h-1zM20 44h1v1h-1zM21 44h1v1h-1zM22 44h1v1h-1zM23 44h1v1h-1zM24 44h1v1h-1zM25 44h1v1h-1zM26 44h1v1h-1zM27 44h1v1h-1zM28 44h1v1h-1zM29 44h1v1h-1zM30 44h1v1h-1zM31 44h1v1h-1zM32 44h1v1h-1zM33 44h1v1h-1zM34 44h1v1h-1zM35 44h1v1h-1z"/><path fill="#CED7DF" d="M36 44h1v1h-1z"/><path fill="#B1BFCC" d="M37 44h1v1h-1zM38 44h1v1h-1zM39 44h1v1h-1z"/><path fill="#B0BDCA" d="M40 44h1v1h-1z"/><path fill="#9CA0A7" d="M41 44h1v1h-1z"/><path fill="#9B9EA4" d="M42 44h1v1h-1zM43 44h1v1h-1zM44 44h1v1h-1zM45 44h1v1h-1zM46 44h1v1h-1zM47 44h1v1h-1zM48 44h1v1h-1zM49 44h1v1h-1zM50 44h1v1h-1z"/><path fill="#494242" d="M51 44h1v1h-1z"/><path fill="#231815" d="M52 44h1v1h-1zM53 44h1v1h-1zM54 44h1v1h-1zM7 45h1v1H7zM8 45h1v1H8zM9 45h1v1H9zM10 45h1v1h-1z"/><path fill="#352D2C" d="M11 45h1v1h-1z"/><path fill="#B1BFCC" d="M12 45h1v1h-1zM13 45h1v1h-1z"/><path fill="#F5F7F9" d="M14 45h1v1h-1z"/><path fill="#FFF" d="M15 45h1v1h-1zM16 45h1v1h-1zM17 45h1v1h-1zM18 45h1v1h-1zM19 45h1v1h-1zM20 45h1v1h-1zM21 45h1v1h-1zM22 45h1v1h-1zM23 45h1v1h-1zM24 45h1v1h-1zM25 45h1v1h-1zM26 45h1v1h-1zM27 45h1v1h-1zM28 45h1v1h-1zM29 45h1v1h-1zM30 45h1v1h-1zM31 45h1v1h-1zM32 45h1v1h-1zM33 45h1v1h-1zM34 45h1v1h-1zM35 45h1v1h-1z"/><path fill="#ECEFF2" d="M36 45h1v1h-1z"/><path fill="#B1BFCC" d="M37 45h1v1h-1zM38 45h1v1h-1zM39 45h1v1h-1zM40 45h1v1h-1z"/><path fill="#A6AFB8" d="M41 45h1v1h-1z"/><path fill="#9B9EA4" d="M42 45h1v1h-1zM43 45h1v1h-1zM44 45h1v1h-1zM45 45h1v1h-1zM46 45h1v1h-1zM47 45h1v1h-1zM48 45h1v1h-1zM49 45h1v1h-1zM50 45h1v1h-1z"/><path fill="#6E6C6E" d="M51 45h1v1h-1z"/><path fill="#231815" d="M52 45h1v1h-1zM53 45h1v1h-1zM54 45h1v1h-1zM55 45h1v1h-1zM8 46h1v1H8zM9 46h1v1H9zM10 46h1v1h-1zM11 46h1v1h-1z"/><path fill="#858B93" d="M12 46h1v1h-1z"/><path fill="#B1BFCC" d="M13 46h1v1h-1z"/><path fill="#CED7DF" d="M14 46h1v1h-1z"/><path fill="#FFF" d="M15 46h1v1h-1zM16 46h1v1h-1zM17 46h1v1h-1zM18 46h1v1h-1zM19 46h1v1h-1zM20 46h1v1h-1zM21 46h1v1h-1zM22 46h1v1h-1zM23 46h1v1h-1zM24 46h1v1h-1zM25 46h1v1h-1zM26 46h1v1h-1zM27 46h1v1h-1zM28 46h1v1h-1zM29 46h1v1h-1zM30 46h1v1h-1zM31 46h1v1h-1zM32 46h1v1h-1zM33 46h1v1h-1zM34 46h1v1h-1zM35 46h1v1h-1zM36 46h1v1h-1z"/><path fill="#C5CFD9" d="M37 46h1v1h-1z"/><path fill="#B1BFCC" d="M38 46h1v1h-1zM39 46h1v1h-1zM40 46h1v1h-1z"/><path fill="#B0BDCA" d="M41 46h1v1h-1z"/><path fill="#9CA0A7" d="M42 46h1v1h-1z"/><path fill="#9B9EA4" d="M43 46h1v1h-1zM44 46h1v1h-1zM45 46h1v1h-1zM46 46h1v1h-1zM47 46h1v1h-1zM48 46h1v1h-1zM49 46h1v1h-1zM50 46h1v1h-1z"/><path fill="#8C8D92" d="M51 46h1v1h-1z"/><path fill="#231815" d="M52 46h1v1h-1zM53 46h1v1h-1zM54 46h1v1h-1zM55 46h1v1h-1zM8 47h1v1H8zM9 47h1v1H9zM10 47h1v1h-1zM11 47h1v1h-1z"/><path fill="#474243" d="M12 47h1v1h-1z"/><path fill="#B1BFCC" d="M13 47h1v1h-1zM14 47h1v1h-1z"/><path fill="#F5F7F9" d="M15 47h1v1h-1z"/><path fill="#FFF" d="M16 47h1v1h-1zM17 47h1v1h-1zM18 47h1v1h-1zM19 47h1v1h-1zM20 47h1v1h-1zM21 47h1v1h-1zM22 47h1v1h-1zM23 47h1v1h-1zM24 47h1v1h-1zM25 47h1v1h-1zM26 47h1v1h-1zM27 47h1v1h-1zM28 47h1v1h-1zM29 47h1v1h-1zM30 47h1v1h-1zM31 47h1v1h-1zM32 47h1v1h-1zM33 47h1v1h-1zM34 47h1v1h-1zM35 47h1v1h-1zM36 47h1v1h-1z"/><path fill="#ECEFF2" d="M37 47h1v1h-1z"/><path fill="#B1BFCC" d="M38 47h1v1h-1zM39 47h1v1h-1zM40 47h1v1h-1zM41 47h1v1h-1z"/><path fill="#A6AFB8" d="M42 47h1v1h-1z"/><path fill="#9B9EA4" d="M43 47h1v1h-1zM44 47h1v1h-1zM45 47h1v1h-1zM46 47h1v1h-1zM47 47h1v1h-1zM48 47h1v1h-1zM49 47h1v1h-1zM50 47h1v1h-1zM51 47h1v1h-1z"/><path fill="#3A3130" d="M52 47h1v1h-1z"/><path fill="#231815" d="M53 47h1v1h-1zM54 47h1v1h-1zM55 47h1v1h-1zM9 48h1v1H9zM10 48h1v1h-1zM11 48h1v1h-1zM12 48h1v1h-1z"/><path fill="#8E959E" d="M13 48h1v1h-1z"/><path fill="#B1BFCC" d="M14 48h1v1h-1z"/><path fill="#C9D3DC" d="M15 48h1v1h-1z"/><path fill="#FFF" d="M16 48h1v1h-1zM17 48h1v1h-1zM18 48h1v1h-1zM19 48h1v1h-1zM20 48h1v1h-1zM21 48h1v1h-1zM22 48h1v1h-1zM23 48h1v1h-1zM24 48h1v1h-1zM25 48h1v1h-1zM26 48h1v1h-1zM27 48h1v1h-1zM28 48h1v1h-1zM29 48h1v1h-1zM30 48h1v1h-1zM31 48h1v1h-1zM32 48h1v1h-1zM33 48h1v1h-1zM34 48h1v1h-1zM35 48h1v1h-1zM36 48h1v1h-1zM37 48h1v1h-1z"/><path fill="#C5CFD9" d="M38 48h1v1h-1z"/><path fill="#B1BFCC" d="M39 48h1v1h-1zM40 48h1v1h-1zM41 48h1v1h-1zM42 48h1v1h-1z"/><path fill="#9EA2A9" d="M43 48h1v1h-1z"/><path fill="#9B9EA4" d="M44 48h1v1h-1zM45 48h1v1h-1zM46 48h1v1h-1zM47 48h1v1h-1zM48 48h1v1h-1zM49 48h1v1h-1zM50 48h1v1h-1zM51 48h1v1h-1z"/><path fill="#585354" d="M52 48h1v1h-1z"/><path fill="#231815" d="M53 48h1v1h-1zM54 48h1v1h-1zM55 48h1v1h-1zM56 48h1v1h-1zM9 49h1v1H9zM10 49h1v1h-1zM11 49h1v1h-1zM12 49h1v1h-1z"/><path fill="#474243" d="M13 49h1v1h-1z"/><path fill="#B1BFCC" d="M14 49h1v1h-1zM15 49h1v1h-1z"/><path fill="#ECEFF2" d="M16 49h1v1h-1z"/><path fill="#FFF" d="M17 49h1v1h-1zM18 49h1v1h-1zM19 49h1v1h-1zM20 49h1v1h-1zM21 49h1v1h-1zM22 49h1v1h-1zM23 49h1v1h-1zM24 49h1v1h-1zM25 49h1v1h-1zM26 49h1v1h-1zM27 49h1v1h-1zM28 49h1v1h-1zM29 49h1v1h-1zM30 49h1v1h-1zM31 49h1v1h-1zM32 49h1v1h-1zM33 49h1v1h-1zM34 49h1v1h-1zM35 49h1v1h-1zM36 49h1v1h-1zM37 49h1v1h-1z"/><path fill="#ECEFF2" d="M38 49h1v1h-1z"/><path fill="#B1BFCC" d="M39 49h1v1h-1zM40 49h1v1h-1zM41 49h1v1h-1zM42 49h1v1h-1z"/><path fill="#A9B3BD" d="M43 49h1v1h-1z"/><path fill="#9B9EA4" d="M44 49h1v1h-1zM45 49h1v1h-1zM46 49h1v1h-1zM47 49h1v1h-1zM48 49h1v1h-1zM49 49h1v1h-1zM50 49h1v1h-1zM51 49h1v1h-1z"/><path fill="#858589" d="M52 49h1v1h-1z"/><path fill="#231815" d="M53 49h1v1h-1zM54 49h1v1h-1zM55 49h1v1h-1zM56 49h1v1h-1zM10 50h1v1h-1zM11 50h1v1h-1zM12 50h1v1h-1zM13 50h1v1h-1z"/><path fill="#8E959E" d="M14 50h1v1h-1z"/><path fill="#B1BFCC" d="M15 50h1v1h-1z"/><path fill="#C0CBD6" d="M16 50h1v1h-1z"/><path fill="#FFF" d="M17 50h1v1h-1zM18 50h1v1h-1zM19 50h1v1h-1zM20 50h1v1h-1zM21 50h1v1h-1zM22 50h1v1h-1zM23 50h1v1h-1zM24 50h1v1h-1zM25 50h1v1h-1zM26 50h1v1h-1zM27 50h1v1h-1zM28 50h1v1h-1zM29 50h1v1h-1zM30 50h1v1h-1zM31 50h1v1h-1zM32 50h1v1h-1zM33 50h1v1h-1zM34 50h1v1h-1zM35 50h1v1h-1zM36 50h1v1h-1zM37 50h1v1h-1zM38 50h1v1h-1z"/><path fill="#C5CFD9" d="M39 50h1v1h-1z"/><path fill="#B1BFCC" d="M40 50h1v1h-1zM41 50h1v1h-1zM42 50h1v1h-1zM43 50h1v1h-1z"/><path fill="#9FA4AC" d="M44 50h1v1h-1z"/><path fill="#9B9EA4" d="M45 50h1v1h-1zM46 50h1v1h-1zM47 50h1v1h-1zM48 50h1v1h-1zM49 50h1v1h-1zM50 50h1v1h-1zM51 50h1v1h-1zM52 50h1v1h-1z"/><path fill="#322927" d="M53 50h1v1h-1z"/><path fill="#231815" d="M54 50h1v1h-1zM55 50h1v1h-1zM56 50h1v1h-1zM10 51h1v1h-1zM11 51h1v1h-1zM12 51h1v1h-1zM13 51h1v1h-1z"/><path fill="#474243" d="M14 51h1v1h-1z"/><path fill="#B1BFCC" d="M15 51h1v1h-1zM16 51h1v1h-1z"/><path fill="#DDE3E9" d="M17 51h1v1h-1z"/><path fill="#FFF" d="M18 51h1v1h-1zM19 51h1v1h-1zM20 51h1v1h-1zM21 51h1v1h-1zM22 51h1v1h-1zM23 51h1v1h-1zM24 51h1v1h-1zM25 51h1v1h-1zM26 51h1v1h-1zM27 51h1v1h-1zM28 51h1v1h-1zM29 51h1v1h-1zM30 51h1v1h-1zM31 51h1v1h-1zM32 51h1v1h-1zM33 51h1v1h-1zM34 51h1v1h-1zM35 51h1v1h-1zM36 51h1v1h-1zM37 51h1v1h-1zM38 51h1v1h-1z"/><path fill="#F0F3F5" d="M39 51h1v1h-1z"/><path fill="#B1BFCC" d="M40 51h1v1h-1zM41 51h1v1h-1zM42 51h1v1h-1zM43 51h1v1h-1z"/><path fill="#ACB7C2" d="M44 51h1v1h-1z"/><path fill="#9B9EA4" d="M45 51h1v1h-1zM46 51h1v1h-1zM47 51h1v1h-1zM48 51h1v1h-1zM49 51h1v1h-1zM50 51h1v1h-1zM51 51h1v1h-1zM52 51h1v1h-1z"/><path fill="#585354" d="M53 51h1v1h-1z"/><path fill="#231815" d="M54 51h1v1h-1zM55 51h1v1h-1zM56 51h1v1h-1zM57 51h1v1h-1zM11 52h1v1h-1zM12 52h1v1h-1zM13 52h1v1h-1zM14 52h1v1h-1z"/><path fill="#8E959E" d="M15 52h1v1h-1z"/><path fill="#B1BFCC" d="M16 52h1v1h-1z"/><path fill="#B6C3CF" d="M17 52h1v1h-1z"/><path fill="#FAFBFC" d="M18 52h1v1h-1z"/><path fill="#FFF" d="M19 52h1v1h-1zM20 52h1v1h-1zM21 52h1v1h-1zM22 52h1v1h-1zM23 52h1v1h-1zM24 52h1v1h-1zM25 52h1v1h-1zM26 52h1v1h-1zM27 52h1v1h-1zM28 52h1v1h-1zM29 52h1v1h-1zM30 52h1v1h-1zM31 52h1v1h-1zM32 52h1v1h-1zM33 52h1v1h-1zM34 52h1v1h-1zM35 52h1v1h-1zM36 52h1v1h-1zM37 52h1v1h-1zM38 52h1v1h-1zM39 52h1v1h-1z"/><path fill="#D3DBE2" d="M40 52h1v1h-1z"/><path fill="#B1BFCC" d="M41 52h1v1h-1zM42 52h1v1h-1zM43 52h1v1h-1zM44 52h1v1h-1z"/><path fill="#A3AAB3" d="M45 52h1v1h-1z"/><path fill="#9B9EA4" d="M46 52h1v1h-1zM47 52h1v1h-1zM48 52h1v1h-1zM49 52h1v1h-1zM50 52h1v1h-1zM51 52h1v1h-1zM52 52h1v1h-1z"/><path fill="#858589" d="M53 52h1v1h-1z"/><path fill="#231815" d="M54 52h1v1h-1zM55 52h1v1h-1zM56 52h1v1h-1zM57 52h1v1h-1zM11 53h1v1h-1zM12 53h1v1h-1zM13 53h1v1h-1zM14 53h1v1h-1z"/><path fill="#352D2C" d="M15 53h1v1h-1z"/><path fill="#B1BFCC" d="M16 53h1v1h-1zM17 53h1v1h-1z"/><path fill="#C9D3DC" d="M18 53h1v1h-1z"/><path fill="#FFF" d="M19 53h1v1h-1zM20 53h1v1h-1zM21 53h1v1h-1zM22 53h1v1h-1zM23 53h1v1h-1zM24 53h1v1h-1zM25 53h1v1h-1zM26 53h1v1h-1zM27 53h1v1h-1zM28 53h1v1h-1zM29 53h1v1h-1zM30 53h1v1h-1zM31 53h1v1h-1zM32 53h1v1h-1zM33 53h1v1h-1zM34 53h1v1h-1zM35 53h1v1h-1zM36 53h1v1h-1zM37 53h1v1h-1zM38 53h1v1h-1zM39 53h1v1h-1z"/><path fill="#FAFBFC" d="M40 53h1v1h-1z"/><path fill="#B6C3CF" d="M41 53h1v1h-1z"/><path fill="#B1BFCC" d="M42 53h1v1h-1zM43 53h1v1h-1zM44 53h1v1h-1z"/><path fill="#B0BDCA" d="M45 53h1v1h-1z"/><path fill="#9CA0A7" d="M46 53h1v1h-1z"/><path fill="#9B9EA4" d="M47 53h1v1h-1zM48 53h1v1h-1zM49 53h1v1h-1zM50 53h1v1h-1zM51 53h1v1h-1zM52 53h1v1h-1zM53 53h1v1h-1z"/><path fill="#322927" d="M54 53h1v1h-1z"/><path fill="#231815" d="M55 53h1v1h-1zM56 53h1v1h-1zM57 53h1v1h-1zM12 54h1v1h-1zM13 54h1v1h-1zM14 54h1v1h-1zM15 54h1v1h-1z"/><path fill="#73767C" d="M16 54h1v1h-1z"/><path fill="#B1BFCC" d="M17 54h1v1h-1zM18 54h1v1h-1z"/><path fill="#E7EBEF" d="M19 54h1v1h-1z"/><path fill="#FFF" d="M20 54h1v1h-1zM21 54h1v1h-1zM22 54h1v1h-1zM23 54h1v1h-1zM24 54h1v1h-1zM25 54h1v1h-1zM26 54h1v1h-1zM27 54h1v1h-1zM28 54h1v1h-1zM29 54h1v1h-1zM30 54h1v1h-1zM31 54h1v1h-1zM32 54h1v1h-1zM33 54h1v1h-1zM34 54h1v1h-1zM35 54h1v1h-1zM36 54h1v1h-1zM37 54h1v1h-1zM38 54h1v1h-1zM39 54h1v1h-1zM40 54h1v1h-1z"/><path fill="#E2E7EC" d="M41 54h1v1h-1z"/><path fill="#B1BFCC" d="M42 54h1v1h-1zM43 54h1v1h-1zM44 54h1v1h-1zM45 54h1v1h-1z"/><path fill="#A7B1BB" d="M46 54h1v1h-1z"/><path fill="#9B9EA4" d="M47 54h1v1h-1zM48 54h1v1h-1zM49 54h1v1h-1zM50 54h1v1h-1zM51 54h1v1h-1zM52 54h1v1h-1zM53 54h1v1h-1z"/><path fill="#5F5B5D" d="M54 54h1v1h-1z"/><path fill="#231815" d="M55 54h1v1h-1zM56 54h1v1h-1zM57 54h1v1h-1zM58 54h1v1h-1zM12 55h1v1h-1zM13 55h1v1h-1zM14 55h1v1h-1zM15 55h1v1h-1z"/><path fill="#2C2220" d="M16 55h1v1h-1z"/><path fill="#9FAAB5" d="M17 55h1v1h-1z"/><path fill="#B1BFCC" d="M18 55h1v1h-1z"/><path fill="#B6C3CF" d="M19 55h1v1h-1z"/><path fill="#FAFBFC" d="M20 55h1v1h-1z"/><path fill="#FFF" d="M21 55h1v1h-1zM22 55h1v1h-1zM23 55h1v1h-1zM24 55h1v1h-1zM25 55h1v1h-1zM26 55h1v1h-1zM27 55h1v1h-1zM28 55h1v1h-1zM29 55h1v1h-1zM30 55h1v1h-1zM31 55h1v1h-1zM32 55h1v1h-1zM33 55h1v1h-1zM34 55h1v1h-1zM35 55h1v1h-1zM36 55h1v1h-1zM37 55h1v1h-1zM38 55h1v1h-1zM39 55h1v1h-1zM40 55h1v1h-1zM41 55h1v1h-1z"/><path fill="#C5CFD9" d="M42 55h1v1h-1z"/><path fill="#B1BFCC" d="M43 55h1v1h-1zM44 55h1v1h-1zM45 55h1v1h-1zM46 55h1v1h-1z"/><path fill="#A1A6AE" d="M47 55h1v1h-1z"/><path fill="#9B9EA4" d="M48 55h1v1h-1zM49 55h1v1h-1zM50 55h1v1h-1zM51 55h1v1h-1zM52 55h1v1h-1zM53 55h1v1h-1z"/><path fill="#8C8D92" d="M54 55h1v1h-1z"/><path fill="#231815" d="M55 55h1v1h-1zM56 55h1v1h-1zM57 55h1v1h-1zM58 55h1v1h-1zM13 56h1v1h-1zM14 56h1v1h-1zM15 56h1v1h-1zM16 56h1v1h-1z"/><path fill="#4F4C4E" d="M17 56h1v1h-1z"/><path fill="#B1BFCC" d="M18 56h1v1h-1zM19 56h1v1h-1z"/><path fill="#C9D3DC" d="M20 56h1v1h-1z"/><path fill="#FFF" d="M21 56h1v1h-1zM22 56h1v1h-1zM23 56h1v1h-1zM24 56h1v1h-1zM25 56h1v1h-1zM26 56h1v1h-1zM27 56h1v1h-1zM28 56h1v1h-1zM29 56h1v1h-1zM30 56h1v1h-1zM31 56h1v1h-1zM32 56h1v1h-1zM33 56h1v1h-1zM34 56h1v1h-1zM35 56h1v1h-1zM36 56h1v1h-1zM37 56h1v1h-1zM38 56h1v1h-1zM39 56h1v1h-1zM40 56h1v1h-1zM41 56h1v1h-1z"/><path fill="#F5F7F9" d="M42 56h1v1h-1z"/><path fill="#B6C3CF" d="M43 56h1v1h-1z"/><path fill="#B1BFCC" d="M44 56h1v1h-1zM45 56h1v1h-1zM46 56h1v1h-1z"/><path fill="#AEBBC7" d="M47 56h1v1h-1z"/><path fill="#9CA0A7" d="M48 56h1v1h-1z"/><path fill="#9B9EA4" d="M49 56h1v1h-1zM50 56h1v1h-1zM51 56h1v1h-1zM52 56h1v1h-1zM53 56h1v1h-1zM54 56h1v1h-1z"/><path fill="#494242" d="M55 56h1v1h-1z"/><path fill="#231815" d="M56 56h1v1h-1zM57 56h1v1h-1zM58 56h1v1h-1zM59 56h1v1h-1zM13 57h1v1h-1zM14 57h1v1h-1zM15 57h1v1h-1zM16 57h1v1h-1zM17 57h1v1h-1z"/><path fill="#858B93" d="M18 57h1v1h-1z"/><path fill="#B1BFCC" d="M19 57h1v1h-1zM20 57h1v1h-1z"/><path fill="#DDE3E9" d="M21 57h1v1h-1z"/><path fill="#FFF" d="M22 57h1v1h-1zM23 57h1v1h-1zM24 57h1v1h-1zM25 57h1v1h-1zM26 57h1v1h-1zM27 57h1v1h-1zM28 57h1v1h-1zM29 57h1v1h-1zM30 57h1v1h-1zM31 57h1v1h-1zM32 57h1v1h-1zM33 57h1v1h-1zM34 57h1v1h-1zM35 57h1v1h-1zM36 57h1v1h-1zM37 57h1v1h-1zM38 57h1v1h-1zM39 57h1v1h-1zM40 57h1v1h-1zM41 57h1v1h-1zM42 57h1v1h-1z"/><path fill="#DDE3E9" d="M43 57h1v1h-1z"/><path fill="#B1BFCC" d="M44 57h1v1h-1zM45 57h1v1h-1zM46 57h1v1h-1zM47 57h1v1h-1z"/><path fill="#A7B1BB" d="M48 57h1v1h-1z"/><path fill="#9B9EA4" d="M49 57h1v1h-1zM50 57h1v1h-1zM51 57h1v1h-1zM52 57h1v1h-1zM53 57h1v1h-1zM54 57h1v1h-1z"/><path fill="#7D7D80" d="M55 57h1v1h-1z"/><path fill="#231815" d="M56 57h1v1h-1zM57 57h1v1h-1zM58 57h1v1h-1zM59 57h1v1h-1zM14 58h1v1h-1zM15 58h1v1h-1zM16 58h1v1h-1zM17 58h1v1h-1z"/><path fill="#2C2220" d="M18 58h1v1h-1z"/><path fill="#A8B5C1" d="M19 58h1v1h-1z"/><path fill="#B1BFCC" d="M20 58h1v1h-1zM21 58h1v1h-1z"/><path fill="#F0F3F5" d="M22 58h1v1h-1z"/><path fill="#FFF" d="M23 58h1v1h-1zM24 58h1v1h-1zM25 58h1v1h-1zM26 58h1v1h-1zM27 58h1v1h-1zM28 58h1v1h-1zM29 58h1v1h-1zM30 58h1v1h-1zM31 58h1v1h-1zM32 58h1v1h-1zM33 58h1v1h-1zM34 58h1v1h-1zM35 58h1v1h-1zM36 58h1v1h-1zM37 58h1v1h-1zM38 58h1v1h-1zM39 58h1v1h-1zM40 58h1v1h-1zM41 58h1v1h-1zM42 58h1v1h-1zM43 58h1v1h-1z"/><path fill="#C9D3DC" d="M44 58h1v1h-1z"/><path fill="#B1BFCC" d="M45 58h1v1h-1zM46 58h1v1h-1zM47 58h1v1h-1zM48 58h1v1h-1z"/><path fill="#A2A8B1" d="M49 58h1v1h-1z"/><path fill="#9B9EA4" d="M50 58h1v1h-1zM51 58h1v1h-1zM52 58h1v1h-1zM53 58h1v1h-1zM54 58h1v1h-1zM55 58h1v1h-1z"/><path fill="#322927" d="M56 58h1v1h-1z"/><path fill="#231815" d="M57 58h1v1h-1zM58 58h1v1h-1zM59 58h1v1h-1zM60 58h1v1h-1zM15 59h1v1h-1zM16 59h1v1h-1zM17 59h1v1h-1zM18 59h1v1h-1z"/><path fill="#474243" d="M19 59h1v1h-1z"/><path fill="#B1BFCC" d="M20 59h1v1h-1zM21 59h1v1h-1z"/><path fill="#BBC7D2" d="M22 59h1v1h-1z"/><path fill="#FAFBFC" d="M23 59h1v1h-1z"/><path fill="#FFF" d="M24 59h1v1h-1zM25 59h1v1h-1zM26 59h1v1h-1zM27 59h1v1h-1zM28 59h1v1h-1zM29 59h1v1h-1zM30 59h1v1h-1zM31 59h1v1h-1zM32 59h1v1h-1zM33 59h1v1h-1zM34 59h1v1h-1zM35 59h1v1h-1zM36 59h1v1h-1zM37 59h1v1h-1zM38 59h1v1h-1zM39 59h1v1h-1zM40 59h1v1h-1zM41 59h1v1h-1zM42 59h1v1h-1zM43 59h1v1h-1z"/><path fill="#FAFBFC" d="M44 59h1v1h-1z"/><path fill="#B6C3CF" d="M45 59h1v1h-1z"/><path fill="#B1BFCC" d="M46 59h1v1h-1zM47 59h1v1h-1zM48 59h1v1h-1z"/><path fill="#B0BDCA" d="M49 59h1v1h-1z"/><path fill="#9CA0A7" d="M50 59h1v1h-1z"/><path fill="#9B9EA4" d="M51 59h1v1h-1zM52 59h1v1h-1zM53 59h1v1h-1zM54 59h1v1h-1zM55 59h1v1h-1z"/><path fill="#6E6C6E" d="M56 59h1v1h-1z"/><path fill="#231815" d="M57 59h1v1h-1zM58 59h1v1h-1zM59 59h1v1h-1zM60 59h1v1h-1zM15 60h1v1h-1zM16 60h1v1h-1zM17 60h1v1h-1zM18 60h1v1h-1zM19 60h1v1h-1z"/><path fill="#73767C" d="M20 60h1v1h-1z"/><path fill="#B1BFCC" d="M21 60h1v1h-1zM22 60h1v1h-1z"/><path fill="#C9D3DC" d="M23 60h1v1h-1z"/><path fill="#FFF" d="M24 60h1v1h-1zM25 60h1v1h-1zM26 60h1v1h-1zM27 60h1v1h-1zM28 60h1v1h-1zM29 60h1v1h-1zM30 60h1v1h-1zM31 60h1v1h-1zM32 60h1v1h-1zM33 60h1v1h-1zM34 60h1v1h-1zM35 60h1v1h-1zM36 60h1v1h-1zM37 60h1v1h-1zM38 60h1v1h-1zM39 60h1v1h-1zM40 60h1v1h-1zM41 60h1v1h-1zM42 60h1v1h-1zM43 60h1v1h-1zM44 60h1v1h-1z"/><path fill="#F0F3F5" d="M45 60h1v1h-1z"/><path fill="#B1BFCC" d="M46 60h1v1h-1zM47 60h1v1h-1zM48 60h1v1h-1zM49 60h1v1h-1z"/><path fill="#ACB7C2" d="M50 60h1v1h-1z"/><path fill="#9B9EA4" d="M51 60h1v1h-1zM52 60h1v1h-1zM53 60h1v1h-1zM54 60h1v1h-1zM55 60h1v1h-1zM56 60h1v1h-1z"/><path fill="#322927" d="M57 60h1v1h-1z"/><path fill="#231815" d="M58 60h1v1h-1zM59 60h1v1h-1zM60 60h1v1h-1zM61 60h1v1h-1zM16 61h1v1h-1zM17 61h1v1h-1zM18 61h1v1h-1zM19 61h1v1h-1zM20 61h1v1h-1z"/><path fill="#96A0AA" d="M21 61h1v1h-1z"/><path fill="#B1BFCC" d="M22 61h1v1h-1zM23 61h1v1h-1z"/><path fill="#D3DBE2" d="M24 61h1v1h-1z"/><path fill="#FFF" d="M25 61h1v1h-1zM26 61h1v1h-1zM27 61h1v1h-1zM28 61h1v1h-1zM29 61h1v1h-1zM30 61h1v1h-1zM31 61h1v1h-1zM32 61h1v1h-1zM33 61h1v1h-1zM34 61h1v1h-1zM35 61h1v1h-1zM36 61h1v1h-1zM37 61h1v1h-1zM38 61h1v1h-1zM39 61h1v1h-1zM40 61h1v1h-1zM41 61h1v1h-1zM42 61h1v1h-1zM43 61h1v1h-1zM44 61h1v1h-1zM45 61h1v1h-1z"/><path fill="#DDE3E9" d="M46 61h1v1h-1z"/><path fill="#B1BFCC" d="M47 61h1v1h-1zM48 61h1v1h-1zM49 61h1v1h-1zM50 61h1v1h-1z"/><path fill="#A6AFB8" d="M51 61h1v1h-1z"/><path fill="#9B9EA4" d="M52 61h1v1h-1zM53 61h1v1h-1zM54 61h1v1h-1zM55 61h1v1h-1zM56 61h1v1h-1z"/><path fill="#6E6C6E" d="M57 61h1v1h-1z"/><path fill="#231815" d="M58 61h1v1h-1zM59 61h1v1h-1zM60 61h1v1h-1zM61 61h1v1h-1zM17 62h1v1h-1zM18 62h1v1h-1zM19 62h1v1h-1zM20 62h1v1h-1z"/><path fill="#2C2220" d="M21 62h1v1h-1z"/><path fill="#A8B5C1" d="M22 62h1v1h-1z"/><path fill="#B1BFCC" d="M23 62h1v1h-1zM24 62h1v1h-1z"/><path fill="#E2E7EC" d="M25 62h1v1h-1z"/><path fill="#FFF" d="M26 62h1v1h-1zM27 62h1v1h-1zM28 62h1v1h-1zM29 62h1v1h-1zM30 62h1v1h-1zM31 62h1v1h-1zM32 62h1v1h-1zM33 62h1v1h-1zM34 62h1v1h-1zM35 62h1v1h-1zM36 62h1v1h-1zM37 62h1v1h-1zM38 62h1v1h-1zM39 62h1v1h-1zM40 62h1v1h-1zM41 62h1v1h-1zM42 62h1v1h-1zM43 62h1v1h-1zM44 62h1v1h-1zM45 62h1v1h-1zM46 62h1v1h-1z"/><path fill="#CED7DF" d="M47 62h1v1h-1z"/><path fill="#B1BFCC" d="M48 62h1v1h-1zM49 62h1v1h-1zM50 62h1v1h-1zM51 62h1v1h-1z"/><path fill="#A2A8B1" d="M52 62h1v1h-1z"/><path fill="#9B9EA4" d="M53 62h1v1h-1zM54 62h1v1h-1zM55 62h1v1h-1zM56 62h1v1h-1zM57 62h1v1h-1z"/><path fill="#322927" d="M58 62h1v1h-1z"/><path fill="#231815" d="M59 62h1v1h-1zM60 62h1v1h-1zM61 62h1v1h-1zM62 62h1v1h-1zM18 63h1v1h-1zM19 63h1v1h-1zM20 63h1v1h-1zM21 63h1v1h-1z"/><path fill="#3E3737" d="M22 63h1v1h-1z"/><path fill="#B1BFCC" d="M23 63h1v1h-1zM24 63h1v1h-1zM25 63h1v1h-1z"/><path fill="#ECEFF2" d="M26 63h1v1h-1z"/><path fill="#FFF" d="M27 63h1v1h-1zM28 63h1v1h-1zM29 63h1v1h-1zM30 63h1v1h-1zM31 63h1v1h-1zM32 63h1v1h-1zM33 63h1v1h-1zM34 63h1v1h-1zM35 63h1v1h-1zM36 63h1v1h-1zM37 63h1v1h-1zM38 63h1v1h-1zM39 63h1v1h-1zM40 63h1v1h-1zM41 63h1v1h-1zM42 63h1v1h-1zM43 63h1v1h-1zM44 63h1v1h-1zM45 63h1v1h-1zM46 63h1v1h-1zM47 63h1v1h-1z"/><path fill="#C0CBD6" d="M48 63h1v1h-1z"/><path fill="#B1BFCC" d="M49 63h1v1h-1zM50 63h1v1h-1zM51 63h1v1h-1z"/><path fill="#B0BDCA" d="M52 63h1v1h-1z"/><path fill="#9FA4AC" d="M53 63h1v1h-1z"/><path fill="#9B9EA4" d="M54 63h1v1h-1zM55 63h1v1h-1zM56 63h1v1h-1zM57 63h1v1h-1z"/><path fill="#6E6C6E" d="M58 63h1v1h-1z"/><path fill="#231815" d="M59 63h1v1h-1zM60 63h1v1h-1zM61 63h1v1h-1zM62 63h1v1h-1zM18 64h1v1h-1zM19 64h1v1h-1zM20 64h1v1h-1zM21 64h1v1h-1zM22 64h1v1h-1z"/><path fill="#58575A" d="M23 64h1v1h-1z"/><path fill="#B1BFCC" d="M24 64h1v1h-1zM25 64h1v1h-1z"/><path fill="#B6C3CF" d="M26 64h1v1h-1z"/><path fill="#F0F3F5" d="M27 64h1v1h-1z"/><path fill="#FFF" d="M28 64h1v1h-1zM29 64h1v1h-1zM30 64h1v1h-1zM31 64h1v1h-1zM32 64h1v1h-1zM33 64h1v1h-1zM34 64h1v1h-1zM35 64h1v1h-1zM36 64h1v1h-1zM37 64h1v1h-1zM38 64h1v1h-1zM39 64h1v1h-1zM40 64h1v1h-1zM41 64h1v1h-1zM42 64h1v1h-1zM43 64h1v1h-1zM44 64h1v1h-1zM45 64h1v1h-1zM46 64h1v1h-1zM47 64h1v1h-1z"/><path fill="#FAFBFC" d="M48 64h1v1h-1z"/><path fill="#C0CBD6" d="M49 64h1v1h-1z"/><path fill="#B1BFCC" d="M50 64h1v1h-1zM51 64h1v1h-1zM52 64h1v1h-1z"/><path fill="#AEBBC7" d="M53 64h1v1h-1z"/><path fill="#9CA0A7" d="M54 64h1v1h-1z"/><path fill="#9B9EA4" d="M55 64h1v1h-1zM56 64h1v1h-1zM57 64h1v1h-1zM58 64h1v1h-1z"/><path fill="#322927" d="M59 64h1v1h-1z"/><path fill="#231815" d="M60 64h1v1h-1zM61 64h1v1h-1zM62 64h1v1h-1zM63 64h1v1h-1zM19 65h1v1h-1zM20 65h1v1h-1zM21 65h1v1h-1zM22 65h1v1h-1zM23 65h1v1h-1z"/><path fill="#616165" d="M24 65h1v1h-1z"/><path fill="#B1BFCC" d="M25 65h1v1h-1zM26 65h1v1h-1z"/><path fill="#B6C3CF" d="M27 65h1v1h-1z"/><path fill="#F0F3F5" d="M28 65h1v1h-1z"/><path fill="#FFF" d="M29 65h1v1h-1zM30 65h1v1h-1zM31 65h1v1h-1zM32 65h1v1h-1zM33 65h1v1h-1zM34 65h1v1h-1zM35 65h1v1h-1zM36 65h1v1h-1zM37 65h1v1h-1zM38 65h1v1h-1zM39 65h1v1h-1zM40 65h1v1h-1zM41 65h1v1h-1zM42 65h1v1h-1zM43 65h1v1h-1zM44 65h1v1h-1zM45 65h1v1h-1zM46 65h1v1h-1zM47 65h1v1h-1zM48 65h1v1h-1z"/><path fill="#FAFBFC" d="M49 65h1v1h-1z"/><path fill="#B6C3CF" d="M50 65h1v1h-1z"/><path fill="#B1BFCC" d="M51 65h1v1h-1zM52 65h1v1h-1zM53 65h1v1h-1z"/><path fill="#ADB9C5" d="M54 65h1v1h-1z"/><path fill="#9CA0A7" d="M55 65h1v1h-1z"/><path fill="#9B9EA4" d="M56 65h1v1h-1zM57 65h1v1h-1zM58 65h1v1h-1z"/><path fill="#7D7D80" d="M59 65h1v1h-1z"/><path fill="#231815" d="M60 65h1v1h-1zM61 65h1v1h-1zM62 65h1v1h-1zM63 65h1v1h-1zM64 65h1v1h-1zM20 66h1v1h-1zM21 66h1v1h-1zM22 66h1v1h-1zM23 66h1v1h-1zM24 66h1v1h-1z"/><path fill="#7C8087" d="M25 66h1v1h-1z"/><path fill="#B1BFCC" d="M26 66h1v1h-1zM27 66h1v1h-1z"/><path fill="#B6C3CF" d="M28 66h1v1h-1z"/><path fill="#F0F3F5" d="M29 66h1v1h-1z"/><path fill="#FFF" d="M30 66h1v1h-1zM31 66h1v1h-1zM32 66h1v1h-1zM33 66h1v1h-1zM34 66h1v1h-1zM35 66h1v1h-1zM36 66h1v1h-1zM37 66h1v1h-1zM38 66h1v1h-1zM39 66h1v1h-1zM40 66h1v1h-1zM41 66h1v1h-1zM42 66h1v1h-1zM43 66h1v1h-1zM44 66h1v1h-1zM45 66h1v1h-1zM46 66h1v1h-1zM47 66h1v1h-1zM48 66h1v1h-1zM49 66h1v1h-1z"/><path fill="#F0F3F5" d="M50 66h1v1h-1z"/><path fill="#B6C3CF" d="M51 66h1v1h-1z"/><path fill="#B1BFCC" d="M52 66h1v1h-1zM53 66h1v1h-1zM54 66h1v1h-1z"/><path fill="#A9B3BD" d="M55 66h1v1h-1z"/><path fill="#9B9EA4" d="M56 66h1v1h-1zM57 66h1v1h-1zM58 66h1v1h-1zM59 66h1v1h-1z"/><path fill="#494242" d="M60 66h1v1h-1z"/><path fill="#231815" d="M61 66h1v1h-1zM62 66h1v1h-1zM63 66h1v1h-1zM64 66h1v1h-1zM21 67h1v1h-1zM22 67h1v1h-1zM23 67h1v1h-1zM24 67h1v1h-1zM25 67h1v1h-1z"/><path fill="#7C8087" d="M26 67h1v1h-1z"/><path fill="#B1BFCC" d="M27 67h1v1h-1zM28 67h1v1h-1z"/><path fill="#B6C3CF" d="M29 67h1v1h-1z"/><path fill="#F0F3F5" d="M30 67h1v1h-1z"/><path fill="#FFF" d="M31 67h1v1h-1zM32 67h1v1h-1zM33 67h1v1h-1zM34 67h1v1h-1zM35 67h1v1h-1zM36 67h1v1h-1zM37 67h1v1h-1zM38 67h1v1h-1zM39 67h1v1h-1zM40 67h1v1h-1zM41 67h1v1h-1zM42 67h1v1h-1zM43 67h1v1h-1zM44 67h1v1h-1zM45 67h1v1h-1zM46 67h1v1h-1zM47 67h1v1h-1zM48 67h1v1h-1zM49 67h1v1h-1zM50 67h1v1h-1z"/><path fill="#F0F3F5" d="M51 67h1v1h-1z"/><path fill="#B6C3CF" d="M52 67h1v1h-1z"/><path fill="#B1BFCC" d="M53 67h1v1h-1zM54 67h1v1h-1zM55 67h1v1h-1z"/><path fill="#A9B3BD" d="M56 67h1v1h-1z"/><path fill="#9B9EA4" d="M57 67h1v1h-1zM58 67h1v1h-1zM59 67h1v1h-1z"/><path fill="#8C8D92" d="M60 67h1v1h-1z"/><path fill="#2B201E" d="M61 67h1v1h-1z"/><path fill="#231815" d="M62 67h1v1h-1zM63 67h1v1h-1zM64 67h1v1h-1zM65 67h1v1h-1zM22 68h1v1h-1zM23 68h1v1h-1zM24 68h1v1h-1zM25 68h1v1h-1zM26 68h1v1h-1z"/><path fill="#7C8087" d="M27 68h1v1h-1z"/><path fill="#B1BFCC" d="M28 68h1v1h-1zM29 68h1v1h-1z"/><path fill="#B6C3CF" d="M30 68h1v1h-1z"/><path fill="#F0F3F5" d="M31 68h1v1h-1z"/><path fill="#FFF" d="M32 68h1v1h-1zM33 68h1v1h-1zM34 68h1v1h-1zM35 68h1v1h-1zM36 68h1v1h-1zM37 68h1v1h-1zM38 68h1v1h-1zM39 68h1v1h-1zM40 68h1v1h-1zM41 68h1v1h-1zM42 68h1v1h-1zM43 68h1v1h-1zM44 68h1v1h-1zM45 68h1v1h-1zM46 68h1v1h-1zM47 68h1v1h-1zM48 68h1v1h-1zM49 68h1v1h-1zM50 68h1v1h-1zM51 68h1v1h-1z"/><path fill="#F0F3F5" d="M52 68h1v1h-1z"/><path fill="#B6C3CF" d="M53 68h1v1h-1z"/><path fill="#B1BFCC" d="M54 68h1v1h-1zM55 68h1v1h-1zM56 68h1v1h-1z"/><path fill="#A9B3BD" d="M57 68h1v1h-1z"/><path fill="#9B9EA4" d="M58 68h1v1h-1zM59 68h1v1h-1zM60 68h1v1h-1z"/><path fill="#676365" d="M61 68h1v1h-1z"/><path fill="#231815" d="M62 68h1v1h-1zM63 68h1v1h-1zM64 68h1v1h-1zM65 68h1v1h-1zM66 68h1v1h-1zM23 69h1v1h-1zM24 69h1v1h-1zM25 69h1v1h-1zM26 69h1v1h-1zM27 69h1v1h-1z"/><path fill="#7C8087" d="M28 69h1v1h-1z"/><path fill="#B1BFCC" d="M29 69h1v1h-1zM30 69h1v1h-1z"/><path fill="#B6C3CF" d="M31 69h1v1h-1z"/><path fill="#ECEFF2" d="M32 69h1v1h-1z"/><path fill="#FFF" d="M33 69h1v1h-1zM34 69h1v1h-1zM35 69h1v1h-1zM36 69h1v1h-1zM37 69h1v1h-1zM38 69h1v1h-1zM39 69h1v1h-1zM40 69h1v1h-1zM41 69h1v1h-1zM42 69h1v1h-1zM43 69h1v1h-1zM44 69h1v1h-1zM45 69h1v1h-1zM46 69h1v1h-1zM47 69h1v1h-1zM48 69h1v1h-1zM49 69h1v1h-1zM50 69h1v1h-1zM51 69h1v1h-1zM52 69h1v1h-1z"/><path fill="#F0F3F5" d="M53 69h1v1h-1z"/><path fill="#B6C3CF" d="M54 69h1v1h-1z"/><path fill="#B1BFCC" d="M55 69h1v1h-1zM56 69h1v1h-1zM57 69h1v1h-1z"/><path fill="#A7B1BB" d="M58 69h1v1h-1z"/><path fill="#9B9EA4" d="M59 69h1v1h-1zM60 69h1v1h-1zM61 69h1v1h-1z"/><path fill="#413A39" d="M62 69h1v1h-1z"/><path fill="#231815" d="M63 69h1v1h-1zM64 69h1v1h-1zM65 69h1v1h-1zM66 69h1v1h-1zM24 70h1v1h-1zM25 70h1v1h-1zM26 70h1v1h-1zM27 70h1v1h-1zM28 70h1v1h-1z"/><path fill="#73767C" d="M29 70h1v1h-1z"/><path fill="#B1BFCC" d="M30 70h1v1h-1zM31 70h1v1h-1zM32 70h1v1h-1z"/><path fill="#E2E7EC" d="M33 70h1v1h-1z"/><path fill="#FFF" d="M34 70h1v1h-1zM35 70h1v1h-1zM36 70h1v1h-1zM37 70h1v1h-1zM38 70h1v1h-1zM39 70h1v1h-1zM40 70h1v1h-1zM41 70h1v1h-1zM42 70h1v1h-1zM43 70h1v1h-1zM44 70h1v1h-1zM45 70h1v1h-1zM46 70h1v1h-1zM47 70h1v1h-1zM48 70h1v1h-1zM49 70h1v1h-1zM50 70h1v1h-1zM51 70h1v1h-1zM52 70h1v1h-1zM53 70h1v1h-1z"/><path fill="#FAFBFC" d="M54 70h1v1h-1z"/><path fill="#C0CBD6" d="M55 70h1v1h-1z"/><path fill="#B1BFCC" d="M56 70h1v1h-1zM57 70h1v1h-1zM58 70h1v1h-1z"/><path fill="#A7B1BB" d="M59 70h1v1h-1z"/><path fill="#9B9EA4" d="M60 70h1v1h-1zM61 70h1v1h-1z"/><path fill="#8C8D92" d="M62 70h1v1h-1z"/><path fill="#2B201E" d="M63 70h1v1h-1z"/><path fill="#231815" d="M64 70h1v1h-1zM65 70h1v1h-1zM66 70h1v1h-1zM67 70h1v1h-1zM25 71h1v1h-1zM26 71h1v1h-1zM27 71h1v1h-1zM28 71h1v1h-1zM29 71h1v1h-1z"/><path fill="#58575A" d="M30 71h1v1h-1z"/><path fill="#B1BFCC" d="M31 71h1v1h-1zM32 71h1v1h-1zM33 71h1v1h-1z"/><path fill="#D3DBE2" d="M34 71h1v1h-1z"/><path fill="#FFF" d="M35 71h1v1h-1zM36 71h1v1h-1zM37 71h1v1h-1zM38 71h1v1h-1zM39 71h1v1h-1zM40 71h1v1h-1zM41 71h1v1h-1zM42 71h1v1h-1zM43 71h1v1h-1zM44 71h1v1h-1zM45 71h1v1h-1zM46 71h1v1h-1zM47 71h1v1h-1zM48 71h1v1h-1zM49 71h1v1h-1zM50 71h1v1h-1zM51 71h1v1h-1zM52 71h1v1h-1zM53 71h1v1h-1zM54 71h1v1h-1z"/><path fill="#FAFBFC" d="M55 71h1v1h-1z"/><path fill="#C5CFD9" d="M56 71h1v1h-1z"/><path fill="#B1BFCC" d="M57 71h1v1h-1zM58 71h1v1h-1zM59 71h1v1h-1z"/><path fill="#A9B3BD" d="M60 71h1v1h-1z"/><path fill="#9B9EA4" d="M61 71h1v1h-1zM62 71h1v1h-1z"/><path fill="#767477" d="M63 71h1v1h-1z"/><path fill="#231815" d="M64 71h1v1h-1zM65 71h1v1h-1zM66 71h1v1h-1zM67 71h1v1h-1zM68 71h1v1h-1zM26 72h1v1h-1zM27 72h1v1h-1zM28 72h1v1h-1zM29 72h1v1h-1zM30 72h1v1h-1z"/><path fill="#4F4C4E" d="M31 72h1v1h-1z"/><path fill="#A8B5C1" d="M32 72h1v1h-1z"/><path fill="#B1BFCC" d="M33 72h1v1h-1zM34 72h1v1h-1z"/><path fill="#C5CFD9" d="M35 72h1v1h-1z"/><path fill="#FAFBFC" d="M36 72h1v1h-1z"/><path fill="#FFF" d="M37 72h1v1h-1zM38 72h1v1h-1zM39 72h1v1h-1zM40 72h1v1h-1zM41 72h1v1h-1zM42 72h1v1h-1zM43 72h1v1h-1zM44 72h1v1h-1zM45 72h1v1h-1zM46 72h1v1h-1zM47 72h1v1h-1zM48 72h1v1h-1zM49 72h1v1h-1zM50 72h1v1h-1zM51 72h1v1h-1zM52 72h1v1h-1zM53 72h1v1h-1zM54 72h1v1h-1zM55 72h1v1h-1zM56 72h1v1h-1z"/><path fill="#CED7DF" d="M57 72h1v1h-1z"/><path fill="#B1BFCC" d="M58 72h1v1h-1zM59 72h1v1h-1zM60 72h1v1h-1z"/><path fill="#A9B3BD" d="M61 72h1v1h-1z"/><path fill="#9B9EA4" d="M62 72h1v1h-1zM63 72h1v1h-1z"/><path fill="#585354" d="M64 72h1v1h-1z"/><path fill="#231815" d="M65 72h1v1h-1zM66 72h1v1h-1zM67 72h1v1h-1zM68 72h1v1h-1zM69 72h1v1h-1zM27 73h1v1h-1zM28 73h1v1h-1zM29 73h1v1h-1zM30 73h1v1h-1zM31 73h1v1h-1z"/><path fill="#3E3737" d="M32 73h1v1h-1z"/><path fill="#96A0AA" d="M33 73h1v1h-1z"/><path fill="#B1BFCC" d="M34 73h1v1h-1zM35 73h1v1h-1z"/><path fill="#BBC7D2" d="M36 73h1v1h-1z"/><path fill="#ECEFF2" d="M37 73h1v1h-1z"/><path fill="#FFF" d="M38 73h1v1h-1zM39 73h1v1h-1zM40 73h1v1h-1zM41 73h1v1h-1zM42 73h1v1h-1zM43 73h1v1h-1zM44 73h1v1h-1zM45 73h1v1h-1zM46 73h1v1h-1zM47 73h1v1h-1zM48 73h1v1h-1zM49 73h1v1h-1zM50 73h1v1h-1zM51 73h1v1h-1zM52 73h1v1h-1zM53 73h1v1h-1zM54 73h1v1h-1zM55 73h1v1h-1zM56 73h1v1h-1zM57 73h1v1h-1z"/><path fill="#E2E7EC" d="M58 73h1v1h-1z"/><path fill="#B1BFCC" d="M59 73h1v1h-1zM60 73h1v1h-1zM61 73h1v1h-1z"/><path fill="#A9B3BD" d="M62 73h1v1h-1z"/><path fill="#9CA0A7" d="M63 73h1v1h-1z"/><path fill="#9B9EA4" d="M64 73h1v1h-1z"/><path fill="#413A39" d="M65 73h1v1h-1z"/><path fill="#231815" d="M66 73h1v1h-1zM67 73h1v1h-1zM68 73h1v1h-1zM69 73h1v1h-1zM70 73h1v1h-1zM28 74h1v1h-1zM29 74h1v1h-1zM30 74h1v1h-1zM31 74h1v1h-1zM32 74h1v1h-1z"/><path fill="#2C2220" d="M33 74h1v1h-1z"/><path fill="#7C8087" d="M34 74h1v1h-1z"/><path fill="#B1BFCC" d="M35 74h1v1h-1zM36 74h1v1h-1zM37 74h1v1h-1z"/><path fill="#D8DFE6" d="M38 74h1v1h-1z"/><path fill="#FFF" d="M39 74h1v1h-1zM40 74h1v1h-1zM41 74h1v1h-1zM42 74h1v1h-1zM43 74h1v1h-1zM44 74h1v1h-1zM45 74h1v1h-1zM46 74h1v1h-1zM47 74h1v1h-1zM48 74h1v1h-1zM49 74h1v1h-1zM50 74h1v1h-1zM51 74h1v1h-1zM52 74h1v1h-1zM53 74h1v1h-1zM54 74h1v1h-1zM55 74h1v1h-1zM56 74h1v1h-1zM57 74h1v1h-1zM58 74h1v1h-1z"/><path fill="#F0F3F5" d="M59 74h1v1h-1z"/><path fill="#BBC7D2" d="M60 74h1v1h-1z"/><path fill="#B1BFCC" d="M61 74h1v1h-1zM62 74h1v1h-1z"/><path fill="#ADB9C5" d="M63 74h1v1h-1z"/><path fill="#9CA0A7" d="M64 74h1v1h-1z"/><path fill="#94969B" d="M65 74h1v1h-1z"/><path fill="#3A3130" d="M66 74h1v1h-1z"/><path fill="#231815" d="M67 74h1v1h-1zM68 74h1v1h-1zM69 74h1v1h-1zM70 74h1v1h-1zM71 74h1v1h-1zM29 75h1v1h-1zM30 75h1v1h-1zM31 75h1v1h-1zM32 75h1v1h-1zM33 75h1v1h-1zM34 75h1v1h-1z"/><path fill="#58575A" d="M35 75h1v1h-1z"/><path fill="#A8B5C1" d="M36 75h1v1h-1z"/><path fill="#B1BFCC" d="M37 75h1v1h-1zM38 75h1v1h-1z"/><path fill="#C0CBD6" d="M39 75h1v1h-1z"/><path fill="#F0F3F5" d="M40 75h1v1h-1z"/><path fill="#FFF" d="M41 75h1v1h-1zM42 75h1v1h-1zM43 75h1v1h-1zM44 75h1v1h-1zM45 75h1v1h-1zM46 75h1v1h-1zM47 75h1v1h-1zM48 75h1v1h-1zM49 75h1v1h-1zM50 75h1v1h-1zM51 75h1v1h-1zM52 75h1v1h-1zM53 75h1v1h-1zM54 75h1v1h-1zM55 75h1v1h-1zM56 75h1v1h-1zM57 75h1v1h-1zM58 75h1v1h-1zM59 75h1v1h-1z"/><path fill="#FAFBFC" d="M60 75h1v1h-1z"/><path fill="#C9D3DC" d="M61 75h1v1h-1z"/><path fill="#B1BFCC" d="M62 75h1v1h-1zM63 75h1v1h-1z"/><path fill="#AEBBC7" d="M64 75h1v1h-1z"/><path fill="#9FA4AC" d="M65 75h1v1h-1z"/><path fill="#94969B" d="M66 75h1v1h-1z"/><path fill="#322927" d="M67 75h1v1h-1z"/><path fill="#231815" d="M68 75h1v1h-1zM69 75h1v1h-1zM70 75h1v1h-1zM71 75h1v1h-1zM72 75h1v1h-1zM30 76h1v1h-1zM31 76h1v1h-1zM32 76h1v1h-1zM33 76h1v1h-1zM34 76h1v1h-1zM35 76h1v1h-1z"/><path fill="#352D2C" d="M36 76h1v1h-1z"/><path fill="#8E959E" d="M37 76h1v1h-1z"/><path fill="#B1BFCC" d="M38 76h1v1h-1zM39 76h1v1h-1zM40 76h1v1h-1z"/><path fill="#D8DFE6" d="M41 76h1v1h-1z"/><path fill="#FAFBFC" d="M42 76h1v1h-1z"/><path fill="#FFF" d="M43 76h1v1h-1zM44 76h1v1h-1zM45 76h1v1h-1zM46 76h1v1h-1zM47 76h1v1h-1zM48 76h1v1h-1zM49 76h1v1h-1zM50 76h1v1h-1zM51 76h1v1h-1zM52 76h1v1h-1zM53 76h1v1h-1zM54 76h1v1h-1zM55 76h1v1h-1zM56 76h1v1h-1zM57 76h1v1h-1zM58 76h1v1h-1zM59 76h1v1h-1zM60 76h1v1h-1zM61 76h1v1h-1z"/><path fill="#DDE3E9" d="M62 76h1v1h-1z"/><path fill="#B6C3CF" d="M63 76h1v1h-1z"/><path fill="#B1BFCC" d="M64 76h1v1h-1z"/><path fill="#B0BDCA" d="M65 76h1v1h-1z"/><path fill="#A3AAB3" d="M66 76h1v1h-1z"/><path fill="#858589" d="M67 76h1v1h-1z"/><path fill="#2B201E" d="M68 76h1v1h-1z"/><path fill="#231815" d="M69 76h1v1h-1zM70 76h1v1h-1zM71 76h1v1h-1zM72 76h1v1h-1zM73 76h1v1h-1zM31 77h1v1h-1zM32 77h1v1h-1zM33 77h1v1h-1zM34 77h1v1h-1zM35 77h1v1h-1zM36 77h1v1h-1zM37 77h1v1h-1z"/><path fill="#58575A" d="M38 77h1v1h-1z"/><path fill="#A8B5C1" d="M39 77h1v1h-1z"/><path fill="#B1BFCC" d="M40 77h1v1h-1zM41 77h1v1h-1z"/><path fill="#BBC7D2" d="M42 77h1v1h-1z"/><path fill="#E2E7EC" d="M43 77h1v1h-1z"/><path fill="#FFF" d="M44 77h1v1h-1zM45 77h1v1h-1zM46 77h1v1h-1zM47 77h1v1h-1zM48 77h1v1h-1zM49 77h1v1h-1zM50 77h1v1h-1zM51 77h1v1h-1zM52 77h1v1h-1zM53 77h1v1h-1zM54 77h1v1h-1zM55 77h1v1h-1zM56 77h1v1h-1zM57 77h1v1h-1zM58 77h1v1h-1zM59 77h1v1h-1zM60 77h1v1h-1zM61 77h1v1h-1zM62 77h1v1h-1z"/><path fill="#F5F7F9" d="M63 77h1v1h-1z"/><path fill="#C5CFD9" d="M64 77h1v1h-1z"/><path fill="#B1BFCC" d="M65 77h1v1h-1zM66 77h1v1h-1z"/><path fill="#A9B3BD" d="M67 77h1v1h-1z"/><path fill="#86878C" d="M68 77h1v1h-1z"/><path fill="#2B201E" d="M69 77h1v1h-1z"/><path fill="#231815" d="M70 77h1v1h-1zM71 77h1v1h-1zM72 77h1v1h-1zM73 77h1v1h-1zM74 77h1v1h-1zM33 78h1v1h-1zM34 78h1v1h-1zM35 78h1v1h-1zM36 78h1v1h-1zM37 78h1v1h-1zM38 78h1v1h-1z"/><path fill="#2C2220" d="M39 78h1v1h-1z"/><path fill="#7C8087" d="M40 78h1v1h-1z"/><path fill="#B1BFCC" d="M41 78h1v1h-1zM42 78h1v1h-1zM43 78h1v1h-1z"/><path fill="#C5CFD9" d="M44 78h1v1h-1z"/><path fill="#ECEFF2" d="M45 78h1v1h-1z"/><path fill="#FFF" d="M46 78h1v1h-1zM47 78h1v1h-1zM48 78h1v1h-1zM49 78h1v1h-1zM50 78h1v1h-1zM51 78h1v1h-1zM52 78h1v1h-1zM53 78h1v1h-1zM54 78h1v1h-1zM55 78h1v1h-1zM56 78h1v1h-1zM57 78h1v1h-1zM58 78h1v1h-1zM59 78h1v1h-1zM60 78h1v1h-1zM61 78h1v1h-1zM62 78h1v1h-1zM63 78h1v1h-1zM64 78h1v1h-1z"/><path fill="#DDE3E9" d="M65 78h1v1h-1z"/><path fill="#B6C3CF" d="M66 78h1v1h-1z"/><path fill="#B1BFCC" d="M67 78h1v1h-1z"/><path fill="#ADB9C5" d="M68 78h1v1h-1z"/><path fill="#989CA3" d="M69 78h1v1h-1z"/><path fill="#3A3130" d="M70 78h1v1h-1z"/><path fill="#231815" d="M71 78h1v1h-1zM72 78h1v1h-1zM73 78h1v1h-1zM74 78h1v1h-1zM75 78h1v1h-1zM76 78h1v1h-1zM34 79h1v1h-1zM35 79h1v1h-1zM36 79h1v1h-1zM37 79h1v1h-1zM38 79h1v1h-1zM39 79h1v1h-1zM40 79h1v1h-1z"/><path fill="#3E3737" d="M41 79h1v1h-1z"/><path fill="#8E959E" d="M42 79h1v1h-1z"/><path fill="#B1BFCC" d="M43 79h1v1h-1zM44 79h1v1h-1zM45 79h1v1h-1z"/><path fill="#C5CFD9" d="M46 79h1v1h-1z"/><path fill="#ECEFF2" d="M47 79h1v1h-1z"/><path fill="#FFF" d="M48 79h1v1h-1zM49 79h1v1h-1zM50 79h1v1h-1zM51 79h1v1h-1zM52 79h1v1h-1zM53 79h1v1h-1zM54 79h1v1h-1zM55 79h1v1h-1zM56 79h1v1h-1zM57 79h1v1h-1zM58 79h1v1h-1zM59 79h1v1h-1zM60 79h1v1h-1zM61 79h1v1h-1zM62 79h1v1h-1zM63 79h1v1h-1zM64 79h1v1h-1zM65 79h1v1h-1z"/><path fill="#FAFBFC" d="M66 79h1v1h-1z"/><path fill="#CED7DF" d="M67 79h1v1h-1z"/><path fill="#B1BFCC" d="M68 79h1v1h-1zM69 79h1v1h-1z"/><path fill="#9FA6AF" d="M70 79h1v1h-1z"/><path fill="#413A39" d="M71 79h1v1h-1z"/><path fill="#231815" d="M72 79h1v1h-1zM73 79h1v1h-1zM74 79h1v1h-1zM75 79h1v1h-1zM76 79h1v1h-1zM77 79h1v1h-1zM36 80h1v1h-1zM37 80h1v1h-1zM38 80h1v1h-1zM39 80h1v1h-1zM40 80h1v1h-1zM41 80h1v1h-1zM42 80h1v1h-1z"/><path fill="#474243" d="M43 80h1v1h-1z"/><path fill="#8E959E" d="M44 80h1v1h-1z"/><path fill="#B1BFCC" d="M45 80h1v1h-1zM46 80h1v1h-1zM47 80h1v1h-1z"/><path fill="#C0CBD6" d="M48 80h1v1h-1z"/><path fill="#E2E7EC" d="M49 80h1v1h-1z"/><path fill="#FAFBFC" d="M50 80h1v1h-1z"/><path fill="#FFF" d="M51 80h1v1h-1zM52 80h1v1h-1zM53 80h1v1h-1zM54 80h1v1h-1zM55 80h1v1h-1zM56 80h1v1h-1zM57 80h1v1h-1zM58 80h1v1h-1zM59 80h1v1h-1zM60 80h1v1h-1zM61 80h1v1h-1zM62 80h1v1h-1zM63 80h1v1h-1zM64 80h1v1h-1zM65 80h1v1h-1zM66 80h1v1h-1zM67 80h1v1h-1z"/><path fill="#ECEFF2" d="M68 80h1v1h-1z"/><path fill="#C5CFD9" d="M69 80h1v1h-1z"/><path fill="#B1BFCC" d="M70 80h1v1h-1z"/><path fill="#ADB9C5" d="M71 80h1v1h-1z"/><path fill="#5C595B" d="M72 80h1v1h-1z"/><path fill="#231815" d="M73 80h1v1h-1zM74 80h1v1h-1zM75 80h1v1h-1zM76 80h1v1h-1zM77 80h1v1h-1zM78 80h1v1h-1zM79 80h1v1h-1zM37 81h1v1h-1zM38 81h1v1h-1zM39 81h1v1h-1zM40 81h1v1h-1zM41 81h1v1h-1zM42 81h1v1h-1zM43 81h1v1h-1zM44 81h1v1h-1z"/><path fill="#474243" d="M45 81h1v1h-1z"/><path fill="#7C8087" d="M46 81h1v1h-1z"/><path fill="#B1BFCC" d="M47 81h1v1h-1zM48 81h1v1h-1zM49 81h1v1h-1z"/><path fill="#B6C3CF" d="M50 81h1v1h-1z"/><path fill="#CED7DF" d="M51 81h1v1h-1z"/><path fill="#F0F3F5" d="M52 81h1v1h-1z"/><path fill="#FFF" d="M53 81h1v1h-1zM54 81h1v1h-1zM55 81h1v1h-1zM56 81h1v1h-1zM57 81h1v1h-1zM58 81h1v1h-1zM59 81h1v1h-1zM60 81h1v1h-1zM61 81h1v1h-1zM62 81h1v1h-1zM63 81h1v1h-1zM64 81h1v1h-1zM65 81h1v1h-1zM66 81h1v1h-1zM67 81h1v1h-1zM68 81h1v1h-1zM69 81h1v1h-1z"/><path fill="#E2E7EC" d="M70 81h1v1h-1z"/><path fill="#BBC7D2" d="M71 81h1v1h-1z"/><path fill="#B1BFCC" d="M72 81h1v1h-1z"/><path fill="#82878E" d="M73 81h1v1h-1z"/><path fill="#2C2220" d="M74 81h1v1h-1z"/><path fill="#231815" d="M75 81h1v1h-1zM76 81h1v1h-1zM77 81h1v1h-1zM78 81h1v1h-1zM79 81h1v1h-1zM80 81h1v1h-1zM81 81h1v1h-1zM39 82h1v1h-1zM40 82h1v1h-1zM41 82h1v1h-1zM42 82h1v1h-1zM43 82h1v1h-1zM44 82h1v1h-1zM45 82h1v1h-1zM46 82h1v1h-1z"/><path fill="#352D2C" d="M47 82h1v1h-1z"/><path fill="#6A6C71" d="M48 82h1v1h-1z"/><path fill="#9FAAB5" d="M49 82h1v1h-1z"/><path fill="#B1BFCC" d="M50 82h1v1h-1zM51 82h1v1h-1zM52 82h1v1h-1z"/><path fill="#BBC7D2" d="M53 82h1v1h-1z"/><path fill="#D3DBE2" d="M54 82h1v1h-1z"/><path fill="#E7EBEF" d="M55 82h1v1h-1z"/><path fill="#FFF" d="M56 82h1v1h-1zM57 82h1v1h-1zM58 82h1v1h-1zM59 82h1v1h-1zM60 82h1v1h-1zM61 82h1v1h-1zM62 82h1v1h-1zM63 82h1v1h-1zM64 82h1v1h-1zM65 82h1v1h-1zM66 82h1v1h-1zM67 82h1v1h-1zM68 82h1v1h-1zM69 82h1v1h-1zM70 82h1v1h-1zM71 82h1v1h-1z"/><path fill="#E2E7EC" d="M72 82h1v1h-1z"/><path fill="#C0CBD6" d="M73 82h1v1h-1z"/><path fill="#9FAAB5" d="M74 82h1v1h-1z"/><path fill="#474243" d="M75 82h1v1h-1z"/><path fill="#231815" d="M76 82h1v1h-1zM77 82h1v1h-1zM78 82h1v1h-1zM79 82h1v1h-1zM80 82h1v1h-1zM81 82h1v1h-1zM41 83h1v1h-1zM42 83h1v1h-1zM43 83h1v1h-1zM44 83h1v1h-1zM45 83h1v1h-1zM46 83h1v1h-1zM47 83h1v1h-1zM48 83h1v1h-1zM49 83h1v1h-1z"/><path fill="#4F4C4E" d="M50 83h1v1h-1z"/><path fill="#7C8087" d="M51 83h1v1h-1z"/><path fill="#A8B5C1" d="M52 83h1v1h-1z"/><path fill="#B1BFCC" d="M53 83h1v1h-1zM54 83h1v1h-1zM55 83h1v1h-1zM56 83h1v1h-1z"/><path fill="#C5CFD9" d="M57 83h1v1h-1z"/><path fill="#D8DFE6" d="M58 83h1v1h-1z"/><path fill="#E7EBEF" d="M59 83h1v1h-1z"/><path fill="#F0F3F5" d="M60 83h1v1h-1z"/><path fill="#FFF" d="M61 83h1v1h-1zM62 83h1v1h-1zM63 83h1v1h-1zM64 83h1v1h-1zM65 83h1v1h-1zM66 83h1v1h-1zM67 83h1v1h-1zM68 83h1v1h-1zM69 83h1v1h-1zM70 83h1v1h-1zM71 83h1v1h-1zM72 83h1v1h-1zM73 83h1v1h-1z"/><path fill="#DDE3E9" d="M74 83h1v1h-1z"/><path fill="#B1BFCC" d="M75 83h1v1h-1z"/><path fill="#58575A" d="M76 83h1v1h-1z"/><path fill="#231815" d="M77 83h1v1h-1zM78 83h1v1h-1zM79 83h1v1h-1zM80 83h1v1h-1zM81 83h1v1h-1zM43 84h1v1h-1zM44 84h1v1h-1zM45 84h1v1h-1zM46 84h1v1h-1zM47 84h1v1h-1zM48 84h1v1h-1zM49 84h1v1h-1zM50 84h1v1h-1zM51 84h1v1h-1zM52 84h1v1h-1z"/><path fill="#3E3737" d="M53 84h1v1h-1z"/><path fill="#6A6C71" d="M54 84h1v1h-1z"/><path fill="#8E959E" d="M55 84h1v1h-1z"/><path fill="#B1BFCC" d="M56 84h1v1h-1zM57 84h1v1h-1zM58 84h1v1h-1zM59 84h1v1h-1zM60 84h1v1h-1zM61 84h1v1h-1z"/><path fill="#C0CBD6" d="M62 84h1v1h-1z"/><path fill="#C5CFD9" d="M63 84h1v1h-1z"/><path fill="#CED7DF" d="M64 84h1v1h-1z"/><path fill="#D8DFE6" d="M65 84h1v1h-1zM66 84h1v1h-1zM67 84h1v1h-1zM68 84h1v1h-1zM69 84h1v1h-1zM70 84h1v1h-1zM71 84h1v1h-1z"/><path fill="#D3DBE2" d="M72 84h1v1h-1z"/><path fill="#BCC5CD" d="M73 84h1v1h-1z"/><path fill="#86888E" d="M74 84h1v1h-1z"/><path fill="#352D2C" d="M75 84h1v1h-1z"/><path fill="#231815" d="M76 84h1v1h-1zM77 84h1v1h-1zM78 84h1v1h-1zM79 84h1v1h-1zM80 84h1v1h-1zM81 84h1v1h-1zM45 85h1v1h-1zM46 85h1v1h-1zM47 85h1v1h-1zM48 85h1v1h-1zM49 85h1v1h-1zM50 85h1v1h-1zM51 85h1v1h-1zM52 85h1v1h-1zM53 85h1v1h-1zM54 85h1v1h-1zM55 85h1v1h-1zM56 85h1v1h-1z"/><path fill="#474243" d="M57 85h1v1h-1z"/><path fill="#616165" d="M58 85h1v1h-1z"/><path fill="#73767C" d="M59 85h1v1h-1z"/><path fill="#8E959E" d="M60 85h1v1h-1z"/><path fill="#96A0AA" d="M61 85h1v1h-1z"/><path fill="#B1BFCC" d="M62 85h1v1h-1zM63 85h1v1h-1zM64 85h1v1h-1zM65 85h1v1h-1zM66 85h1v1h-1zM67 85h1v1h-1zM68 85h1v1h-1z"/><path fill="#8E959E" d="M69 85h1v1h-1z"/><path fill="#858B93" d="M70 85h1v1h-1z"/><path fill="#6A6C71" d="M71 85h1v1h-1z"/><path fill="#3E3737" d="M72 85h1v1h-1z"/><path fill="#231815" d="M73 85h1v1h-1zM74 85h1v1h-1zM75 85h1v1h-1zM76 85h1v1h-1zM77 85h1v1h-1zM78 85h1v1h-1zM79 85h1v1h-1zM80 85h1v1h-1zM48 86h1v1h-1zM49 86h1v1h-1zM50 86h1v1h-1zM51 86h1v1h-1zM52 86h1v1h-1zM53 86h1v1h-1zM54 86h1v1h-1zM55 86h1v1h-1zM56 86h1v1h-1zM57 86h1v1h-1zM58 86h1v1h-1zM59 86h1v1h-1zM60 86h1v1h-1zM61 86h1v1h-1zM62 86h1v1h-1zM63 86h1v1h-1zM64 86h1v1h-1zM65 86h1v1h-1zM66 86h1v1h-1zM67 86h1v1h-1zM68 86h1v1h-1zM69 86h1v1h-1zM70 86h1v1h-1zM71 86h1v1h-1zM72 86h1v1h-1zM73 86h1v1h-1zM74 86h1v1h-1zM75 86h1v1h-1zM76 86h1v1h-1zM77 86h1v1h-1zM78 86h1v1h-1zM79 86h1v1h-1zM50 87h1v1h-1zM51 87h1v1h-1zM52 87h1v1h-1zM53 87h1v1h-1zM54 87h1v1h-1zM55 87h1v1h-1zM56 87h1v1h-1zM57 87h1v1h-1zM58 87h1v1h-1zM59 87h1v1h-1zM60 87h1v1h-1zM61 87h1v1h-1zM62 87h1v1h-1zM63 87h1v1h-1zM64 87h1v1h-1zM65 87h1v1h-1zM66 87h1v1h-1zM67 87h1v1h-1zM68 87h1v1h-1zM69 87h1v1h-1zM70 87h1v1h-1zM71 87h1v1h-1zM72 87h1v1h-1zM73 87h1v1h-1zM74 87h1v1h-1zM75 87h1v1h-1zM76 87h1v1h-1zM77 87h1v1h-1zM54 88h1v1h-1zM55 88h1v1h-1zM56 88h1v1h-1zM57 88h1v1h-1zM58 88h1v1h-1zM59 88h1v1h-1zM60 88h1v1h-1zM61 88h1v1h-1zM62 88h1v1h-1zM63 88h1v1h-1zM64 88h1v1h-1zM65 88h1v1h-1zM66 88h1v1h-1zM67 88h1v1h-1zM68 88h1v1h-1zM69 88h1v1h-1zM70 88h1v1h-1zM71 88h1v1h-1zM72 88h1v1h-1zM73 88h1v1h-1zM74 88h1v1h-1zM75 88h1v1h-1zM59 89h1v1h-1zM60 89h1v1h-1zM61 89h1v1h-1zM62 89h1v1h-1zM63 89h1v1h-1zM64 89h1v1h-1zM65 89h1v1h-1zM66 89h1v1h-1zM67 89h1v1h-1zM68 89h1v1h-1zM69 89h1v1h-1zM70 89h1v1h-1zM71 89h1v1h-1z"/></svg>