<svg baseProfile="full" height="90" width="57" xmlns="http://www.w3.org/2000/svg"><path fill="#002" d="M52 0h1v1h-1zM53 0h1v1h-1zM54 0h1v1h-1zM55 0h1v1h-1zM56 0h1v1h-1zM50 1h1v1h-1zM51 1h1v1h-1zM52 1h1v1h-1zM53 1h1v1h-1zM54 1h1v1h-1zM55 1h1v1h-1zM56 1h1v1h-1zM48 2h1v1h-1zM49 2h1v1h-1zM50 2h1v1h-1zM51 2h1v1h-1zM52 2h1v1h-1zM53 2h1v1h-1zM54 2h1v1h-1zM55 2h1v1h-1zM56 2h1v1h-1zM46 3h1v1h-1zM47 3h1v1h-1zM48 3h1v1h-1zM49 3h1v1h-1zM50 3h1v1h-1zM51 3h1v1h-1zM52 3h1v1h-1zM53 3h1v1h-1zM54 3h1v1h-1zM55 3h1v1h-1zM56 3h1v1h-1zM44 4h1v1h-1zM45 4h1v1h-1zM46 4h1v1h-1zM47 4h1v1h-1zM48 4h1v1h-1zM49 4h1v1h-1zM50 4h1v1h-1zM51 4h1v1h-1zM52 4h1v1h-1zM53 4h1v1h-1zM54 4h1v1h-1zM55 4h1v1h-1zM56 4h1v1h-1zM42 5h1v1h-1zM43 5h1v1h-1zM44 5h1v1h-1zM45 5h1v1h-1zM46 5h1v1h-1zM47 5h1v1h-1zM48 5h1v1h-1zM49 5h1v1h-1zM50 5h1v1h-1zM51 5h1v1h-1z"/><path fill="#101030" d="M52 5h1v1h-1z"/><path fill="#002" d="M53 5h1v1h-1zM54 5h1v1h-1zM55 5h1v1h-1zM56 5h1v1h-1zM40 6h1v1h-1zM41 6h1v1h-1zM42 6h1v1h-1zM43 6h1v1h-1zM44 6h1v1h-1zM45 6h1v1h-1zM46 6h1v1h-1zM47 6h1v1h-1zM48 6h1v1h-1zM49 6h1v1h-1z"/><path fill="#404059" d="M50 6h1v1h-1z"/><path fill="#BFBFC8" d="M51 6h1v1h-1z"/><path fill="#808091" d="M52 6h1v1h-1z"/><path fill="#002" d="M53 6h1v1h-1zM54 6h1v1h-1zM55 6h1v1h-1zM56 6h1v1h-1zM38 7h1v1h-1zM39 7h1v1h-1zM40 7h1v1h-1zM41 7h1v1h-1zM42 7h1v1h-1zM43 7h1v1h-1zM44 7h1v1h-1zM45 7h1v1h-1zM46 7h1v1h-1zM47 7h1v1h-1z"/><path fill="#606075" d="M48 7h1v1h-1z"/><path fill="#CFCFD6" d="M49 7h1v1h-1z"/><path fill="#FFF" d="M50 7h1v1h-1zM51 7h1v1h-1z"/><path fill="#717360" d="M52 7h1v1h-1z"/><path fill="#002" d="M53 7h1v1h-1zM54 7h1v1h-1zM55 7h1v1h-1zM56 7h1v1h-1zM36 8h1v1h-1zM37 8h1v1h-1zM38 8h1v1h-1zM39 8h1v1h-1zM40 8h1v1h-1zM41 8h1v1h-1zM42 8h1v1h-1zM43 8h1v1h-1zM44 8h1v1h-1zM45 8h1v1h-1z"/><path fill="#606075" d="M46 8h1v1h-1z"/><path fill="#DFDFE3" d="M47 8h1v1h-1z"/><path fill="#FFF" d="M48 8h1v1h-1zM49 8h1v1h-1zM50 8h1v1h-1z"/><path fill="#F0F2CF" d="M51 8h1v1h-1z"/><path fill="#6C6F50" d="M52 8h1v1h-1z"/><path fill="#002" d="M53 8h1v1h-1zM54 8h1v1h-1zM55 8h1v1h-1zM56 8h1v1h-1zM34 9h1v1h-1zM35 9h1v1h-1zM36 9h1v1h-1zM37 9h1v1h-1zM38 9h1v1h-1zM39 9h1v1h-1zM40 9h1v1h-1zM41 9h1v1h-1zM42 9h1v1h-1zM43 9h1v1h-1z"/><path fill="#606075" d="M44 9h1v1h-1z"/><path fill="#DFDFE3" d="M45 9h1v1h-1z"/><path fill="#FFF" d="M46 9h1v1h-1zM47 9h1v1h-1zM48 9h1v1h-1zM49 9h1v1h-1zM50 9h1v1h-1z"/><path fill="#DDE18E" d="M51 9h1v1h-1z"/><path fill="#6C6F50" d="M52 9h1v1h-1z"/><path fill="#002" d="M53 9h1v1h-1zM54 9h1v1h-1zM55 9h1v1h-1zM56 9h1v1h-1zM32 10h1v1h-1zM33 10h1v1h-1zM34 10h1v1h-1zM35 10h1v1h-1zM36 10h1v1h-1zM37 10h1v1h-1zM38 10h1v1h-1zM39 10h1v1h-1zM40 10h1v1h-1z"/><path fill="#101030" d="M41 10h1v1h-1z"/><path fill="#707083" d="M42 10h1v1h-1z"/><path fill="#DFDFE3" d="M43 10h1v1h-1z"/><path fill="#FFF" d="M44 10h1v1h-1zM45 10h1v1h-1zM46 10h1v1h-1zM47 10h1v1h-1zM48 10h1v1h-1zM49 10h1v1h-1z"/><path fill="#F0F2CF" d="M50 10h1v1h-1z"/><path fill="#D8DD7E" d="M51 10h1v1h-1z"/><path fill="#6C6F50" d="M52 10h1v1h-1z"/><path fill="#002" d="M53 10h1v1h-1zM54 10h1v1h-1zM55 10h1v1h-1zM56 10h1v1h-1zM29 11h1v1h-1zM30 11h1v1h-1zM31 11h1v1h-1zM32 11h1v1h-1zM33 11h1v1h-1zM34 11h1v1h-1zM35 11h1v1h-1zM36 11h1v1h-1zM37 11h1v1h-1zM38 11h1v1h-1z"/><path fill="#101030" d="M39 11h1v1h-1z"/><path fill="#808091" d="M40 11h1v1h-1z"/><path fill="#EFEFF1" d="M41 11h1v1h-1z"/><path fill="#FFF" d="M42 11h1v1h-1zM43 11h1v1h-1zM44 11h1v1h-1zM45 11h1v1h-1zM46 11h1v1h-1zM47 11h1v1h-1zM48 11h1v1h-1z"/><path fill="#FDFDF7" d="M49 11h1v1h-1z"/><path fill="#DDE18E" d="M50 11h1v1h-1z"/><path fill="#D8DD7E" d="M51 11h1v1h-1z"/><path fill="#6C6F50" d="M52 11h1v1h-1z"/><path fill="#002" d="M53 11h1v1h-1zM54 11h1v1h-1zM55 11h1v1h-1zM56 11h1v1h-1zM27 12h1v1h-1zM28 12h1v1h-1zM29 12h1v1h-1zM30 12h1v1h-1zM31 12h1v1h-1zM32 12h1v1h-1zM33 12h1v1h-1zM34 12h1v1h-1zM35 12h1v1h-1zM36 12h1v1h-1z"/><path fill="#101030" d="M37 12h1v1h-1z"/><path fill="#808091" d="M38 12h1v1h-1z"/><path fill="#EFEFF1" d="M39 12h1v1h-1z"/><path fill="#FFF" d="M40 12h1v1h-1zM41 12h1v1h-1zM42 12h1v1h-1zM43 12h1v1h-1zM44 12h1v1h-1zM45 12h1v1h-1zM46 12h1v1h-1zM47 12h1v1h-1zM48 12h1v1h-1z"/><path fill="#ECEEBF" d="M49 12h1v1h-1z"/><path fill="#D8DD7E" d="M50 12h1v1h-1zM51 12h1v1h-1z"/><path fill="#6C6F50" d="M52 12h1v1h-1z"/><path fill="#002" d="M53 12h1v1h-1zM54 12h1v1h-1zM55 12h1v1h-1zM56 12h1v1h-1zM25 13h1v1h-1zM26 13h1v1h-1zM27 13h1v1h-1zM28 13h1v1h-1zM29 13h1v1h-1zM30 13h1v1h-1zM31 13h1v1h-1zM32 13h1v1h-1zM33 13h1v1h-1zM34 13h1v1h-1z"/><path fill="#20203E" d="M35 13h1v1h-1z"/><path fill="#808091" d="M36 13h1v1h-1z"/><path fill="#EFEFF1" d="M37 13h1v1h-1z"/><path fill="#FFF" d="M38 13h1v1h-1zM39 13h1v1h-1zM40 13h1v1h-1zM41 13h1v1h-1zM42 13h1v1h-1zM43 13h1v1h-1zM44 13h1v1h-1zM45 13h1v1h-1zM46 13h1v1h-1zM47 13h1v1h-1z"/><path fill="#FDFDF7" d="M48 13h1v1h-1z"/><path fill="#DADF86" d="M49 13h1v1h-1z"/><path fill="#D8DD7E" d="M50 13h1v1h-1zM51 13h1v1h-1z"/><path fill="#6C6F50" d="M52 13h1v1h-1z"/><path fill="#002" d="M53 13h1v1h-1zM54 13h1v1h-1zM55 13h1v1h-1zM56 13h1v1h-1zM23 14h1v1h-1zM24 14h1v1h-1zM25 14h1v1h-1zM26 14h1v1h-1zM27 14h1v1h-1zM28 14h1v1h-1zM29 14h1v1h-1zM30 14h1v1h-1zM31 14h1v1h-1zM32 14h1v1h-1z"/><path fill="#20203E" d="M33 14h1v1h-1z"/><path fill="#9F9FAC" d="M34 14h1v1h-1z"/><path fill="#FFF" d="M35 14h1v1h-1zM36 14h1v1h-1zM37 14h1v1h-1zM38 14h1v1h-1zM39 14h1v1h-1zM40 14h1v1h-1zM41 14h1v1h-1zM42 14h1v1h-1zM43 14h1v1h-1zM44 14h1v1h-1zM45 14h1v1h-1zM46 14h1v1h-1zM47 14h1v1h-1z"/><path fill="#ECEEBF" d="M48 14h1v1h-1z"/><path fill="#D8DD7E" d="M49 14h1v1h-1zM50 14h1v1h-1zM51 14h1v1h-1z"/><path fill="#6C6F50" d="M52 14h1v1h-1z"/><path fill="#002" d="M53 14h1v1h-1zM54 14h1v1h-1zM55 14h1v1h-1zM56 14h1v1h-1zM21 15h1v1h-1zM22 15h1v1h-1zM23 15h1v1h-1zM24 15h1v1h-1zM25 15h1v1h-1zM26 15h1v1h-1zM27 15h1v1h-1zM28 15h1v1h-1zM29 15h1v1h-1zM30 15h1v1h-1z"/><path fill="#20203E" d="M31 15h1v1h-1z"/><path fill="#9F9FAC" d="M32 15h1v1h-1z"/><path fill="#FFF" d="M33 15h1v1h-1zM34 15h1v1h-1zM35 15h1v1h-1zM36 15h1v1h-1zM37 15h1v1h-1zM38 15h1v1h-1zM39 15h1v1h-1zM40 15h1v1h-1zM41 15h1v1h-1zM42 15h1v1h-1zM43 15h1v1h-1zM44 15h1v1h-1zM45 15h1v1h-1zM46 15h1v1h-1z"/><path fill="#FDFDF7" d="M47 15h1v1h-1z"/><path fill="#DADF86" d="M48 15h1v1h-1z"/><path fill="#D8DD7E" d="M49 15h1v1h-1zM50 15h1v1h-1zM51 15h1v1h-1z"/><path fill="#6C6F50" d="M52 15h1v1h-1z"/><path fill="#002" d="M53 15h1v1h-1zM54 15h1v1h-1zM55 15h1v1h-1zM56 15h1v1h-1zM19 16h1v1h-1zM20 16h1v1h-1zM21 16h1v1h-1zM22 16h1v1h-1zM23 16h1v1h-1zM24 16h1v1h-1zM25 16h1v1h-1zM26 16h1v1h-1zM27 16h1v1h-1zM28 16h1v1h-1z"/><path fill="#20203E" d="M29 16h1v1h-1z"/><path fill="#9F9FAC" d="M30 16h1v1h-1z"/><path fill="#FFF" d="M31 16h1v1h-1zM32 16h1v1h-1zM33 16h1v1h-1zM34 16h1v1h-1zM35 16h1v1h-1zM36 16h1v1h-1zM37 16h1v1h-1zM38 16h1v1h-1zM39 16h1v1h-1zM40 16h1v1h-1zM41 16h1v1h-1zM42 16h1v1h-1zM43 16h1v1h-1zM44 16h1v1h-1zM45 16h1v1h-1zM46 16h1v1h-1z"/><path fill="#ECEEBF" d="M47 16h1v1h-1z"/><path fill="#D8DD7E" d="M48 16h1v1h-1zM49 16h1v1h-1zM50 16h1v1h-1zM51 16h1v1h-1z"/><path fill="#6C6F50" d="M52 16h1v1h-1z"/><path fill="#002" d="M53 16h1v1h-1zM54 16h1v1h-1zM55 16h1v1h-1zM56 16h1v1h-1zM17 17h1v1h-1zM18 17h1v1h-1zM19 17h1v1h-1zM20 17h1v1h-1zM21 17h1v1h-1zM22 17h1v1h-1zM23 17h1v1h-1zM24 17h1v1h-1zM25 17h1v1h-1zM26 17h1v1h-1z"/><path fill="#404059" d="M27 17h1v1h-1z"/><path fill="#AFAFBA" d="M28 17h1v1h-1z"/><path fill="#FFF" d="M29 17h1v1h-1zM30 17h1v1h-1zM31 17h1v1h-1zM32 17h1v1h-1zM33 17h1v1h-1zM34 17h1v1h-1zM35 17h1v1h-1zM36 17h1v1h-1zM37 17h1v1h-1zM38 17h1v1h-1zM39 17h1v1h-1zM40 17h1v1h-1zM41 17h1v1h-1zM42 17h1v1h-1zM43 17h1v1h-1zM44 17h1v1h-1zM45 17h1v1h-1z"/><path fill="#FDFDF7" d="M46 17h1v1h-1z"/><path fill="#DADF86" d="M47 17h1v1h-1z"/><path fill="#D8DD7E" d="M48 17h1v1h-1zM49 17h1v1h-1zM50 17h1v1h-1zM51 17h1v1h-1z"/><path fill="#6C6F50" d="M52 17h1v1h-1z"/><path fill="#002" d="M53 17h1v1h-1zM54 17h1v1h-1zM55 17h1v1h-1zM56 17h1v1h-1zM15 18h1v1h-1zM16 18h1v1h-1zM17 18h1v1h-1zM18 18h1v1h-1zM19 18h1v1h-1zM20 18h1v1h-1zM21 18h1v1h-1zM22 18h1v1h-1zM23 18h1v1h-1zM24 18h1v1h-1z"/><path fill="#404059" d="M25 18h1v1h-1z"/><path fill="#BFBFC8" d="M26 18h1v1h-1z"/><path fill="#FFF" d="M27 18h1v1h-1zM28 18h1v1h-1zM29 18h1v1h-1zM30 18h1v1h-1zM31 18h1v1h-1zM32 18h1v1h-1zM33 18h1v1h-1zM34 18h1v1h-1zM35 18h1v1h-1zM36 18h1v1h-1zM37 18h1v1h-1zM38 18h1v1h-1zM39 18h1v1h-1zM40 18h1v1h-1zM41 18h1v1h-1zM42 18h1v1h-1zM43 18h1v1h-1zM44 18h1v1h-1zM45 18h1v1h-1z"/><path fill="#ECEEBF" d="M46 18h1v1h-1z"/><path fill="#D8DD7E" d="M47 18h1v1h-1zM48 18h1v1h-1zM49 18h1v1h-1zM50 18h1v1h-1zM51 18h1v1h-1z"/><path fill="#6C6F50" d="M52 18h1v1h-1z"/><path fill="#002" d="M53 18h1v1h-1zM54 18h1v1h-1zM55 18h1v1h-1zM56 18h1v1h-1zM13 19h1v1h-1zM14 19h1v1h-1zM15 19h1v1h-1zM16 19h1v1h-1zM17 19h1v1h-1zM18 19h1v1h-1zM19 19h1v1h-1zM20 19h1v1h-1zM21 19h1v1h-1zM22 19h1v1h-1z"/><path fill="#404059" d="M23 19h1v1h-1z"/><path fill="#BFBFC8" d="M24 19h1v1h-1z"/><path fill="#FFF" d="M25 19h1v1h-1zM26 19h1v1h-1zM27 19h1v1h-1zM28 19h1v1h-1zM29 19h1v1h-1zM30 19h1v1h-1zM31 19h1v1h-1zM32 19h1v1h-1zM33 19h1v1h-1zM34 19h1v1h-1zM35 19h1v1h-1zM36 19h1v1h-1zM37 19h1v1h-1zM38 19h1v1h-1zM39 19h1v1h-1zM40 19h1v1h-1zM41 19h1v1h-1zM42 19h1v1h-1zM43 19h1v1h-1zM44 19h1v1h-1z"/><path fill="#FAFBEF" d="M45 19h1v1h-1z"/><path fill="#D8DD7E" d="M46 19h1v1h-1zM47 19h1v1h-1zM48 19h1v1h-1zM49 19h1v1h-1zM50 19h1v1h-1zM51 19h1v1h-1z"/><path fill="#6C6F50" d="M52 19h1v1h-1z"/><path fill="#002" d="M53 19h1v1h-1zM54 19h1v1h-1zM55 19h1v1h-1zM56 19h1v1h-1zM11 20h1v1h-1zM12 20h1v1h-1zM13 20h1v1h-1zM14 20h1v1h-1zM15 20h1v1h-1zM16 20h1v1h-1zM17 20h1v1h-1zM18 20h1v1h-1zM19 20h1v1h-1zM20 20h1v1h-1z"/><path fill="#606075" d="M21 20h1v1h-1z"/><path fill="#BFBFC8" d="M22 20h1v1h-1z"/><path fill="#FFF" d="M23 20h1v1h-1zM24 20h1v1h-1zM25 20h1v1h-1zM26 20h1v1h-1zM27 20h1v1h-1zM28 20h1v1h-1zM29 20h1v1h-1zM30 20h1v1h-1zM31 20h1v1h-1zM32 20h1v1h-1zM33 20h1v1h-1zM34 20h1v1h-1zM35 20h1v1h-1zM36 20h1v1h-1zM37 20h1v1h-1zM38 20h1v1h-1zM39 20h1v1h-1zM40 20h1v1h-1zM41 20h1v1h-1zM42 20h1v1h-1zM43 20h1v1h-1zM44 20h1v1h-1z"/><path fill="#E7EAAE" d="M45 20h1v1h-1z"/><path fill="#D8DD7E" d="M46 20h1v1h-1zM47 20h1v1h-1zM48 20h1v1h-1zM49 20h1v1h-1zM50 20h1v1h-1zM51 20h1v1h-1z"/><path fill="#6C6F50" d="M52 20h1v1h-1z"/><path fill="#002" d="M53 20h1v1h-1zM54 20h1v1h-1zM55 20h1v1h-1zM56 20h1v1h-1zM9 21h1v1H9zM10 21h1v1h-1zM11 21h1v1h-1zM12 21h1v1h-1zM13 21h1v1h-1zM14 21h1v1h-1zM15 21h1v1h-1zM16 21h1v1h-1zM17 21h1v1h-1zM18 21h1v1h-1z"/><path fill="#606075" d="M19 21h1v1h-1z"/><path fill="#DFDFE3" d="M20 21h1v1h-1z"/><path fill="#FFF" d="M21 21h1v1h-1zM22 21h1v1h-1zM23 21h1v1h-1zM24 21h1v1h-1zM25 21h1v1h-1zM26 21h1v1h-1zM27 21h1v1h-1zM28 21h1v1h-1zM29 21h1v1h-1zM30 21h1v1h-1zM31 21h1v1h-1zM32 21h1v1h-1zM33 21h1v1h-1zM34 21h1v1h-1zM35 21h1v1h-1zM36 21h1v1h-1zM37 21h1v1h-1zM38 21h1v1h-1zM39 21h1v1h-1zM40 21h1v1h-1zM41 21h1v1h-1zM42 21h1v1h-1zM43 21h1v1h-1z"/><path fill="#FAFBEF" d="M44 21h1v1h-1z"/><path fill="#D8DD7E" d="M45 21h1v1h-1zM46 21h1v1h-1zM47 21h1v1h-1zM48 21h1v1h-1zM49 21h1v1h-1zM50 21h1v1h-1zM51 21h1v1h-1z"/><path fill="#6C6F50" d="M52 21h1v1h-1z"/><path fill="#002" d="M53 21h1v1h-1zM54 21h1v1h-1zM55 21h1v1h-1zM56 21h1v1h-1zM7 22h1v1H7zM8 22h1v1H8zM9 22h1v1H9zM10 22h1v1h-1zM11 22h1v1h-1zM12 22h1v1h-1zM13 22h1v1h-1zM14 22h1v1h-1zM15 22h1v1h-1zM16 22h1v1h-1z"/><path fill="#606075" d="M17 22h1v1h-1z"/><path fill="#DFDFE3" d="M18 22h1v1h-1z"/><path fill="#FFF" d="M19 22h1v1h-1zM20 22h1v1h-1zM21 22h1v1h-1zM22 22h1v1h-1zM23 22h1v1h-1zM24 22h1v1h-1zM25 22h1v1h-1zM26 22h1v1h-1zM27 22h1v1h-1zM28 22h1v1h-1zM29 22h1v1h-1zM30 22h1v1h-1zM31 22h1v1h-1zM32 22h1v1h-1zM33 22h1v1h-1zM34 22h1v1h-1zM35 22h1v1h-1zM36 22h1v1h-1zM37 22h1v1h-1zM38 22h1v1h-1zM39 22h1v1h-1zM40 22h1v1h-1zM41 22h1v1h-1zM42 22h1v1h-1zM43 22h1v1h-1z"/><path fill="#E7EAAE" d="M44 22h1v1h-1z"/><path fill="#D8DD7E" d="M45 22h1v1h-1zM46 22h1v1h-1zM47 22h1v1h-1zM48 22h1v1h-1zM49 22h1v1h-1zM50 22h1v1h-1zM51 22h1v1h-1z"/><path fill="#6C6F50" d="M52 22h1v1h-1z"/><path fill="#002" d="M53 22h1v1h-1zM54 22h1v1h-1zM55 22h1v1h-1zM56 22h1v1h-1zM5 23h1v1H5zM6 23h1v1H6zM7 23h1v1H7zM8 23h1v1H8zM9 23h1v1H9zM10 23h1v1h-1zM11 23h1v1h-1zM12 23h1v1h-1zM13 23h1v1h-1zM14 23h1v1h-1z"/><path fill="#606075" d="M15 23h1v1h-1z"/><path fill="#DFDFE3" d="M16 23h1v1h-1z"/><path fill="#FFF" d="M17 23h1v1h-1zM18 23h1v1h-1zM19 23h1v1h-1zM20 23h1v1h-1zM21 23h1v1h-1zM22 23h1v1h-1zM23 23h1v1h-1zM24 23h1v1h-1zM25 23h1v1h-1zM26 23h1v1h-1zM27 23h1v1h-1zM28 23h1v1h-1zM29 23h1v1h-1zM30 23h1v1h-1zM31 23h1v1h-1zM32 23h1v1h-1zM33 23h1v1h-1zM34 23h1v1h-1zM35 23h1v1h-1zM36 23h1v1h-1zM37 23h1v1h-1zM38 23h1v1h-1zM39 23h1v1h-1zM40 23h1v1h-1zM41 23h1v1h-1zM42 23h1v1h-1z"/><path fill="#FAFBEF" d="M43 23h1v1h-1z"/><path fill="#D8DD7E" d="M44 23h1v1h-1zM45 23h1v1h-1zM46 23h1v1h-1zM47 23h1v1h-1zM48 23h1v1h-1zM49 23h1v1h-1zM50 23h1v1h-1zM51 23h1v1h-1z"/><path fill="#6C6F50" d="M52 23h1v1h-1z"/><path fill="#002" d="M53 23h1v1h-1zM54 23h1v1h-1zM55 23h1v1h-1zM56 23h1v1h-1zM2 24h1v1H2zM3 24h1v1H3zM4 24h1v1H4zM5 24h1v1H5zM6 24h1v1H6zM7 24h1v1H7zM8 24h1v1H8zM9 24h1v1H9zM10 24h1v1h-1zM11 24h1v1h-1z"/><path fill="#101030" d="M12 24h1v1h-1z"/><path fill="#808091" d="M13 24h1v1h-1z"/><path fill="#EFEFF1" d="M14 24h1v1h-1z"/><path fill="#FFF" d="M15 24h1v1h-1zM16 24h1v1h-1zM17 24h1v1h-1zM18 24h1v1h-1zM19 24h1v1h-1zM20 24h1v1h-1zM21 24h1v1h-1zM22 24h1v1h-1zM23 24h1v1h-1zM24 24h1v1h-1zM25 24h1v1h-1zM26 24h1v1h-1zM27 24h1v1h-1zM28 24h1v1h-1zM29 24h1v1h-1zM30 24h1v1h-1zM31 24h1v1h-1zM32 24h1v1h-1zM33 24h1v1h-1zM34 24h1v1h-1zM35 24h1v1h-1zM36 24h1v1h-1zM37 24h1v1h-1zM38 24h1v1h-1zM39 24h1v1h-1zM40 24h1v1h-1zM41 24h1v1h-1zM42 24h1v1h-1z"/><path fill="#E7EAAE" d="M43 24h1v1h-1z"/><path fill="#D8DD7E" d="M44 24h1v1h-1zM45 24h1v1h-1zM46 24h1v1h-1zM47 24h1v1h-1zM48 24h1v1h-1zM49 24h1v1h-1zM50 24h1v1h-1zM51 24h1v1h-1z"/><path fill="#6C6F50" d="M52 24h1v1h-1z"/><path fill="#002" d="M53 24h1v1h-1zM54 24h1v1h-1zM55 24h1v1h-1zM56 24h1v1h-1zM1 25h1v1H1zM2 25h1v1H2zM3 25h1v1H3zM4 25h1v1H4zM5 25h1v1H5zM6 25h1v1H6zM7 25h1v1H7zM8 25h1v1H8zM9 25h1v1H9z"/><path fill="#101030" d="M10 25h1v1h-1z"/><path fill="#808091" d="M11 25h1v1h-1z"/><path fill="#EFEFF1" d="M12 25h1v1h-1z"/><path fill="#FFF" d="M13 25h1v1h-1zM14 25h1v1h-1zM15 25h1v1h-1zM16 25h1v1h-1zM17 25h1v1h-1zM18 25h1v1h-1zM19 25h1v1h-1zM20 25h1v1h-1zM21 25h1v1h-1zM22 25h1v1h-1zM23 25h1v1h-1zM24 25h1v1h-1zM25 25h1v1h-1zM26 25h1v1h-1zM27 25h1v1h-1zM28 25h1v1h-1zM29 25h1v1h-1zM30 25h1v1h-1zM31 25h1v1h-1zM32 25h1v1h-1zM33 25h1v1h-1zM34 25h1v1h-1zM35 25h1v1h-1zM36 25h1v1h-1zM37 25h1v1h-1zM38 25h1v1h-1zM39 25h1v1h-1zM40 25h1v1h-1zM41 25h1v1h-1z"/><path fill="#FAFBEF" d="M42 25h1v1h-1z"/><path fill="#D8DD7E" d="M43 25h1v1h-1zM44 25h1v1h-1zM45 25h1v1h-1zM46 25h1v1h-1zM47 25h1v1h-1zM48 25h1v1h-1zM49 25h1v1h-1zM50 25h1v1h-1zM51 25h1v1h-1z"/><path fill="#6C6F50" d="M52 25h1v1h-1z"/><path fill="#002" d="M53 25h1v1h-1zM54 25h1v1h-1zM55 25h1v1h-1zM56 25h1v1h-1zM0 26h1v1H0zM1 26h1v1H1zM2 26h1v1H2zM3 26h1v1H3zM4 26h1v1H4zM5 26h1v1H5zM6 26h1v1H6zM7 26h1v1H7z"/><path fill="#101030" d="M8 26h1v1H8z"/><path fill="#808091" d="M9 26h1v1H9z"/><path fill="#EFEFF1" d="M10 26h1v1h-1z"/><path fill="#FFF" d="M11 26h1v1h-1zM12 26h1v1h-1zM13 26h1v1h-1zM14 26h1v1h-1zM15 26h1v1h-1zM16 26h1v1h-1zM17 26h1v1h-1zM18 26h1v1h-1zM19 26h1v1h-1zM20 26h1v1h-1zM21 26h1v1h-1zM22 26h1v1h-1zM23 26h1v1h-1zM24 26h1v1h-1zM25 26h1v1h-1zM26 26h1v1h-1zM27 26h1v1h-1zM28 26h1v1h-1zM29 26h1v1h-1zM30 26h1v1h-1zM31 26h1v1h-1zM32 26h1v1h-1zM33 26h1v1h-1zM34 26h1v1h-1zM35 26h1v1h-1zM36 26h1v1h-1zM37 26h1v1h-1zM38 26h1v1h-1zM39 26h1v1h-1zM40 26h1v1h-1zM41 26h1v1h-1z"/><path fill="#E2E69E" d="M42 26h1v1h-1z"/><path fill="#D8DD7E" d="M43 26h1v1h-1zM44 26h1v1h-1zM45 26h1v1h-1zM46 26h1v1h-1zM47 26h1v1h-1zM48 26h1v1h-1zM49 26h1v1h-1zM50 26h1v1h-1zM51 26h1v1h-1z"/><path fill="#6C6F50" d="M52 26h1v1h-1z"/><path fill="#002" d="M53 26h1v1h-1zM54 26h1v1h-1zM55 26h1v1h-1zM56 26h1v1h-1zM0 27h1v1H0zM1 27h1v1H1zM2 27h1v1H2zM3 27h1v1H3zM4 27h1v1H4zM5 27h1v1H5z"/><path fill="#20203E" d="M6 27h1v1H6z"/><path fill="#9F9FAC" d="M7 27h1v1H7z"/><path fill="#EFEFF1" d="M8 27h1v1H8z"/><path fill="#FFF" d="M9 27h1v1H9zM10 27h1v1h-1zM11 27h1v1h-1zM12 27h1v1h-1zM13 27h1v1h-1zM14 27h1v1h-1zM15 27h1v1h-1zM16 27h1v1h-1zM17 27h1v1h-1zM18 27h1v1h-1zM19 27h1v1h-1zM20 27h1v1h-1zM21 27h1v1h-1zM22 27h1v1h-1zM23 27h1v1h-1zM24 27h1v1h-1zM25 27h1v1h-1zM26 27h1v1h-1zM27 27h1v1h-1zM28 27h1v1h-1zM29 27h1v1h-1zM30 27h1v1h-1zM31 27h1v1h-1zM32 27h1v1h-1zM33 27h1v1h-1zM34 27h1v1h-1zM35 27h1v1h-1zM36 27h1v1h-1zM37 27h1v1h-1zM38 27h1v1h-1zM39 27h1v1h-1zM40 27h1v1h-1z"/><path fill="#F5F7DF" d="M41 27h1v1h-1z"/><path fill="#D8DD7E" d="M42 27h1v1h-1zM43 27h1v1h-1zM44 27h1v1h-1zM45 27h1v1h-1zM46 27h1v1h-1zM47 27h1v1h-1zM48 27h1v1h-1zM49 27h1v1h-1zM50 27h1v1h-1zM51 27h1v1h-1z"/><path fill="#6C6F50" d="M52 27h1v1h-1z"/><path fill="#002" d="M53 27h1v1h-1zM54 27h1v1h-1zM55 27h1v1h-1zM56 27h1v1h-1zM0 28h1v1H0zM1 28h1v1H1zM2 28h1v1H2zM3 28h1v1H3z"/><path fill="#20203E" d="M4 28h1v1H4z"/><path fill="#9F9FAC" d="M5 28h1v1H5z"/><path fill="#FFF" d="M6 28h1v1H6zM7 28h1v1H7zM8 28h1v1H8zM9 28h1v1H9zM10 28h1v1h-1zM11 28h1v1h-1zM12 28h1v1h-1zM13 28h1v1h-1zM14 28h1v1h-1zM15 28h1v1h-1zM16 28h1v1h-1zM17 28h1v1h-1zM18 28h1v1h-1zM19 28h1v1h-1zM20 28h1v1h-1zM21 28h1v1h-1zM22 28h1v1h-1zM23 28h1v1h-1zM24 28h1v1h-1zM25 28h1v1h-1zM26 28h1v1h-1zM27 28h1v1h-1zM28 28h1v1h-1zM29 28h1v1h-1zM30 28h1v1h-1zM31 28h1v1h-1zM32 28h1v1h-1zM33 28h1v1h-1zM34 28h1v1h-1zM35 28h1v1h-1zM36 28h1v1h-1zM37 28h1v1h-1zM38 28h1v1h-1zM39 28h1v1h-1zM40 28h1v1h-1z"/><path fill="#E2E69E" d="M41 28h1v1h-1z"/><path fill="#D8DD7E" d="M42 28h1v1h-1zM43 28h1v1h-1zM44 28h1v1h-1zM45 28h1v1h-1zM46 28h1v1h-1zM47 28h1v1h-1zM48 28h1v1h-1zM49 28h1v1h-1zM50 28h1v1h-1zM51 28h1v1h-1z"/><path fill="#6C6F50" d="M52 28h1v1h-1z"/><path fill="#002" d="M53 28h1v1h-1zM54 28h1v1h-1zM55 28h1v1h-1zM56 28h1v1h-1zM0 29h1v1H0zM1 29h1v1H1zM2 29h1v1H2zM3 29h1v1H3z"/><path fill="#808091" d="M4 29h1v1H4z"/><path fill="#FFF" d="M5 29h1v1H5zM6 29h1v1H6zM7 29h1v1H7zM8 29h1v1H8zM9 29h1v1H9zM10 29h1v1h-1zM11 29h1v1h-1zM12 29h1v1h-1zM13 29h1v1h-1zM14 29h1v1h-1zM15 29h1v1h-1zM16 29h1v1h-1zM17 29h1v1h-1zM18 29h1v1h-1zM19 29h1v1h-1zM20 29h1v1h-1zM21 29h1v1h-1zM22 29h1v1h-1zM23 29h1v1h-1zM24 29h1v1h-1zM25 29h1v1h-1zM26 29h1v1h-1zM27 29h1v1h-1zM28 29h1v1h-1zM29 29h1v1h-1zM30 29h1v1h-1zM31 29h1v1h-1zM32 29h1v1h-1zM33 29h1v1h-1zM34 29h1v1h-1zM35 29h1v1h-1zM36 29h1v1h-1zM37 29h1v1h-1zM38 29h1v1h-1zM39 29h1v1h-1z"/><path fill="#F5F7DF" d="M40 29h1v1h-1z"/><path fill="#D8DD7E" d="M41 29h1v1h-1zM42 29h1v1h-1zM43 29h1v1h-1zM44 29h1v1h-1zM45 29h1v1h-1zM46 29h1v1h-1zM47 29h1v1h-1zM48 29h1v1h-1zM49 29h1v1h-1zM50 29h1v1h-1zM51 29h1v1h-1z"/><path fill="#6C6F50" d="M52 29h1v1h-1z"/><path fill="#002" d="M53 29h1v1h-1zM54 29h1v1h-1zM55 29h1v1h-1zM56 29h1v1h-1zM0 30h1v1H0zM1 30h1v1H1zM2 30h1v1H2zM3 30h1v1H3z"/><path fill="#808091" d="M4 30h1v1H4z"/><path fill="#FFF" d="M5 30h1v1H5zM6 30h1v1H6zM7 30h1v1H7zM8 30h1v1H8zM9 30h1v1H9zM10 30h1v1h-1zM11 30h1v1h-1zM12 30h1v1h-1zM13 30h1v1h-1zM14 30h1v1h-1zM15 30h1v1h-1zM16 30h1v1h-1zM17 30h1v1h-1zM18 30h1v1h-1zM19 30h1v1h-1zM20 30h1v1h-1zM21 30h1v1h-1zM22 30h1v1h-1zM23 30h1v1h-1zM24 30h1v1h-1zM25 30h1v1h-1zM26 30h1v1h-1zM27 30h1v1h-1zM28 30h1v1h-1zM29 30h1v1h-1zM30 30h1v1h-1zM31 30h1v1h-1zM32 30h1v1h-1zM33 30h1v1h-1zM34 30h1v1h-1zM35 30h1v1h-1zM36 30h1v1h-1zM37 30h1v1h-1zM38 30h1v1h-1zM39 30h1v1h-1z"/><path fill="#E2E69E" d="M40 30h1v1h-1z"/><path fill="#D8DD7E" d="M41 30h1v1h-1zM42 30h1v1h-1zM43 30h1v1h-1zM44 30h1v1h-1zM45 30h1v1h-1zM46 30h1v1h-1zM47 30h1v1h-1zM48 30h1v1h-1zM49 30h1v1h-1zM50 30h1v1h-1zM51 30h1v1h-1z"/><path fill="#6C6F50" d="M52 30h1v1h-1z"/><path fill="#002" d="M53 30h1v1h-1zM54 30h1v1h-1zM55 30h1v1h-1zM56 30h1v1h-1zM0 31h1v1H0zM1 31h1v1H1zM2 31h1v1H2zM3 31h1v1H3z"/><path fill="#767770" d="M4 31h1v1H4z"/><path fill="#FFF" d="M5 31h1v1H5zM6 31h1v1H6zM7 31h1v1H7zM8 31h1v1H8zM9 31h1v1H9zM10 31h1v1h-1zM11 31h1v1h-1zM12 31h1v1h-1zM13 31h1v1h-1zM14 31h1v1h-1zM15 31h1v1h-1zM16 31h1v1h-1zM17 31h1v1h-1zM18 31h1v1h-1zM19 31h1v1h-1zM20 31h1v1h-1zM21 31h1v1h-1zM22 31h1v1h-1zM23 31h1v1h-1zM24 31h1v1h-1zM25 31h1v1h-1zM26 31h1v1h-1zM27 31h1v1h-1zM28 31h1v1h-1zM29 31h1v1h-1zM30 31h1v1h-1zM31 31h1v1h-1zM32 31h1v1h-1zM33 31h1v1h-1zM34 31h1v1h-1zM35 31h1v1h-1zM36 31h1v1h-1zM37 31h1v1h-1zM38 31h1v1h-1z"/><path fill="#F5F7DF" d="M39 31h1v1h-1z"/><path fill="#D8DD7E" d="M40 31h1v1h-1zM41 31h1v1h-1zM42 31h1v1h-1zM43 31h1v1h-1zM44 31h1v1h-1zM45 31h1v1h-1zM46 31h1v1h-1zM47 31h1v1h-1zM48 31h1v1h-1zM49 31h1v1h-1zM50 31h1v1h-1zM51 31h1v1h-1z"/><path fill="#6C6F50" d="M52 31h1v1h-1z"/><path fill="#002" d="M53 31h1v1h-1zM54 31h1v1h-1zM55 31h1v1h-1zM56 31h1v1h-1zM0 32h1v1H0zM1 32h1v1H1zM2 32h1v1H2zM3 32h1v1H3z"/><path fill="#6C6F50" d="M4 32h1v1H4z"/><path fill="#F0F2CF" d="M5 32h1v1H5z"/><path fill="#FFF" d="M6 32h1v1H6zM7 32h1v1H7zM8 32h1v1H8zM9 32h1v1H9zM10 32h1v1h-1zM11 32h1v1h-1zM12 32h1v1h-1zM13 32h1v1h-1zM14 32h1v1h-1zM15 32h1v1h-1zM16 32h1v1h-1zM17 32h1v1h-1zM18 32h1v1h-1zM19 32h1v1h-1zM20 32h1v1h-1zM21 32h1v1h-1zM22 32h1v1h-1zM23 32h1v1h-1zM24 32h1v1h-1zM25 32h1v1h-1zM26 32h1v1h-1zM27 32h1v1h-1zM28 32h1v1h-1zM29 32h1v1h-1zM30 32h1v1h-1zM31 32h1v1h-1zM32 32h1v1h-1zM33 32h1v1h-1zM34 32h1v1h-1zM35 32h1v1h-1zM36 32h1v1h-1zM37 32h1v1h-1zM38 32h1v1h-1z"/><path fill="#E2E69E" d="M39 32h1v1h-1z"/><path fill="#D8DD7E" d="M40 32h1v1h-1zM41 32h1v1h-1zM42 32h1v1h-1zM43 32h1v1h-1zM44 32h1v1h-1zM45 32h1v1h-1zM46 32h1v1h-1zM47 32h1v1h-1zM48 32h1v1h-1zM49 32h1v1h-1zM50 32h1v1h-1zM51 32h1v1h-1z"/><path fill="#6C6F50" d="M52 32h1v1h-1z"/><path fill="#002" d="M53 32h1v1h-1zM54 32h1v1h-1zM55 32h1v1h-1zM56 32h1v1h-1zM0 33h1v1H0zM1 33h1v1H1zM2 33h1v1H2zM3 33h1v1H3z"/><path fill="#6C6F50" d="M4 33h1v1H4z"/><path fill="#DADF86" d="M5 33h1v1H5z"/><path fill="#FDFDF7" d="M6 33h1v1H6z"/><path fill="#FFF" d="M7 33h1v1H7zM8 33h1v1H8zM9 33h1v1H9zM10 33h1v1h-1zM11 33h1v1h-1zM12 33h1v1h-1zM13 33h1v1h-1zM14 33h1v1h-1zM15 33h1v1h-1zM16 33h1v1h-1zM17 33h1v1h-1zM18 33h1v1h-1zM19 33h1v1h-1zM20 33h1v1h-1zM21 33h1v1h-1zM22 33h1v1h-1zM23 33h1v1h-1zM24 33h1v1h-1zM25 33h1v1h-1zM26 33h1v1h-1zM27 33h1v1h-1zM28 33h1v1h-1zM29 33h1v1h-1zM30 33h1v1h-1zM31 33h1v1h-1zM32 33h1v1h-1zM33 33h1v1h-1zM34 33h1v1h-1zM35 33h1v1h-1zM36 33h1v1h-1zM37 33h1v1h-1z"/><path fill="#F3F4D7" d="M38 33h1v1h-1z"/><path fill="#D8DD7E" d="M39 33h1v1h-1zM40 33h1v1h-1zM41 33h1v1h-1zM42 33h1v1h-1zM43 33h1v1h-1zM44 33h1v1h-1zM45 33h1v1h-1zM46 33h1v1h-1zM47 33h1v1h-1zM48 33h1v1h-1zM49 33h1v1h-1zM50 33h1v1h-1zM51 33h1v1h-1z"/><path fill="#6C6F50" d="M52 33h1v1h-1z"/><path fill="#002" d="M53 33h1v1h-1zM54 33h1v1h-1zM55 33h1v1h-1zM56 33h1v1h-1zM0 34h1v1H0zM1 34h1v1H1zM2 34h1v1H2zM3 34h1v1H3z"/><path fill="#6C6F50" d="M4 34h1v1H4z"/><path fill="#D8DD7E" d="M5 34h1v1H5z"/><path fill="#E4E8A6" d="M6 34h1v1H6z"/><path fill="#FFF" d="M7 34h1v1H7zM8 34h1v1H8zM9 34h1v1H9zM10 34h1v1h-1zM11 34h1v1h-1zM12 34h1v1h-1zM13 34h1v1h-1zM14 34h1v1h-1zM15 34h1v1h-1zM16 34h1v1h-1zM17 34h1v1h-1zM18 34h1v1h-1zM19 34h1v1h-1zM20 34h1v1h-1zM21 34h1v1h-1zM22 34h1v1h-1zM23 34h1v1h-1zM24 34h1v1h-1zM25 34h1v1h-1zM26 34h1v1h-1zM27 34h1v1h-1zM28 34h1v1h-1zM29 34h1v1h-1zM30 34h1v1h-1zM31 34h1v1h-1zM32 34h1v1h-1zM33 34h1v1h-1zM34 34h1v1h-1zM35 34h1v1h-1zM36 34h1v1h-1zM37 34h1v1h-1z"/><path fill="#DDE18E" d="M38 34h1v1h-1z"/><path fill="#D8DD7E" d="M39 34h1v1h-1zM40 34h1v1h-1zM41 34h1v1h-1zM42 34h1v1h-1zM43 34h1v1h-1zM44 34h1v1h-1zM45 34h1v1h-1zM46 34h1v1h-1zM47 34h1v1h-1zM48 34h1v1h-1zM49 34h1v1h-1zM50 34h1v1h-1zM51 34h1v1h-1z"/><path fill="#6C6F50" d="M52 34h1v1h-1z"/><path fill="#002" d="M53 34h1v1h-1zM54 34h1v1h-1zM55 34h1v1h-1zM56 34h1v1h-1zM0 35h1v1H0zM1 35h1v1H1zM2 35h1v1H2zM3 35h1v1H3z"/><path fill="#6C6F50" d="M4 35h1v1H4z"/><path fill="#D8DD7E" d="M5 35h1v1H5zM6 35h1v1H6z"/><path fill="#F3F4D7" d="M7 35h1v1H7z"/><path fill="#FFF" d="M8 35h1v1H8zM9 35h1v1H9zM10 35h1v1h-1zM11 35h1v1h-1zM12 35h1v1h-1zM13 35h1v1h-1zM14 35h1v1h-1zM15 35h1v1h-1zM16 35h1v1h-1zM17 35h1v1h-1zM18 35h1v1h-1zM19 35h1v1h-1zM20 35h1v1h-1zM21 35h1v1h-1zM22 35h1v1h-1zM23 35h1v1h-1zM24 35h1v1h-1zM25 35h1v1h-1zM26 35h1v1h-1zM27 35h1v1h-1zM28 35h1v1h-1zM29 35h1v1h-1zM30 35h1v1h-1zM31 35h1v1h-1zM32 35h1v1h-1zM33 35h1v1h-1zM34 35h1v1h-1zM35 35h1v1h-1zM36 35h1v1h-1z"/><path fill="#F0F2CF" d="M37 35h1v1h-1z"/><path fill="#D8DD7E" d="M38 35h1v1h-1zM39 35h1v1h-1zM40 35h1v1h-1zM41 35h1v1h-1zM42 35h1v1h-1zM43 35h1v1h-1zM44 35h1v1h-1zM45 35h1v1h-1zM46 35h1v1h-1zM47 35h1v1h-1zM48 35h1v1h-1zM49 35h1v1h-1zM50 35h1v1h-1zM51 35h1v1h-1z"/><path fill="#6C6F50" d="M52 35h1v1h-1z"/><path fill="#002" d="M53 35h1v1h-1zM54 35h1v1h-1zM55 35h1v1h-1zM56 35h1v1h-1zM0 36h1v1H0zM1 36h1v1H1zM2 36h1v1H2zM3 36h1v1H3z"/><path fill="#6C6F50" d="M4 36h1v1H4z"/><path fill="#D8DD7E" d="M5 36h1v1H5zM6 36h1v1H6z"/><path fill="#DDE18E" d="M7 36h1v1H7z"/><path fill="#FDFDF7" d="M8 36h1v1H8z"/><path fill="#FFF" d="M9 36h1v1H9zM10 36h1v1h-1zM11 36h1v1h-1zM12 36h1v1h-1zM13 36h1v1h-1zM14 36h1v1h-1zM15 36h1v1h-1zM16 36h1v1h-1zM17 36h1v1h-1zM18 36h1v1h-1zM19 36h1v1h-1zM20 36h1v1h-1zM21 36h1v1h-1zM22 36h1v1h-1zM23 36h1v1h-1zM24 36h1v1h-1zM25 36h1v1h-1zM26 36h1v1h-1zM27 36h1v1h-1zM28 36h1v1h-1zM29 36h1v1h-1zM30 36h1v1h-1zM31 36h1v1h-1zM32 36h1v1h-1zM33 36h1v1h-1zM34 36h1v1h-1zM35 36h1v1h-1zM36 36h1v1h-1z"/><path fill="#DDE18E" d="M37 36h1v1h-1z"/><path fill="#D8DD7E" d="M38 36h1v1h-1zM39 36h1v1h-1zM40 36h1v1h-1zM41 36h1v1h-1zM42 36h1v1h-1zM43 36h1v1h-1zM44 36h1v1h-1zM45 36h1v1h-1zM46 36h1v1h-1zM47 36h1v1h-1zM48 36h1v1h-1zM49 36h1v1h-1zM50 36h1v1h-1zM51 36h1v1h-1z"/><path fill="#6C6F50" d="M52 36h1v1h-1z"/><path fill="#002" d="M53 36h1v1h-1zM54 36h1v1h-1zM55 36h1v1h-1zM56 36h1v1h-1zM0 37h1v1H0zM1 37h1v1H1zM2 37h1v1H2zM3 37h1v1H3z"/><path fill="#6C6F50" d="M4 37h1v1H4z"/><path fill="#D8DD7E" d="M5 37h1v1H5zM6 37h1v1H6zM7 37h1v1H7z"/><path fill="#E9ECB6" d="M8 37h1v1H8z"/><path fill="#FFF" d="M9 37h1v1H9zM10 37h1v1h-1zM11 37h1v1h-1zM12 37h1v1h-1zM13 37h1v1h-1zM14 37h1v1h-1zM15 37h1v1h-1zM16 37h1v1h-1zM17 37h1v1h-1zM18 37h1v1h-1zM19 37h1v1h-1zM20 37h1v1h-1zM21 37h1v1h-1zM22 37h1v1h-1zM23 37h1v1h-1zM24 37h1v1h-1zM25 37h1v1h-1zM26 37h1v1h-1zM27 37h1v1h-1zM28 37h1v1h-1zM29 37h1v1h-1zM30 37h1v1h-1zM31 37h1v1h-1zM32 37h1v1h-1zM33 37h1v1h-1zM34 37h1v1h-1zM35 37h1v1h-1z"/><path fill="#F0F2CF" d="M36 37h1v1h-1z"/><path fill="#D8DD7E" d="M37 37h1v1h-1zM38 37h1v1h-1zM39 37h1v1h-1zM40 37h1v1h-1zM41 37h1v1h-1zM42 37h1v1h-1zM43 37h1v1h-1zM44 37h1v1h-1zM45 37h1v1h-1zM46 37h1v1h-1zM47 37h1v1h-1zM48 37h1v1h-1zM49 37h1v1h-1zM50 37h1v1h-1zM51 37h1v1h-1z"/><path fill="#6C6F50" d="M52 37h1v1h-1z"/><path fill="#002" d="M53 37h1v1h-1zM54 37h1v1h-1zM55 37h1v1h-1zM56 37h1v1h-1zM0 38h1v1H0zM1 38h1v1H1zM2 38h1v1H2zM3 38h1v1H3z"/><path fill="#6C6F50" d="M4 38h1v1H4z"/><path fill="#D8DD7E" d="M5 38h1v1H5zM6 38h1v1H6zM7 38h1v1H7zM8 38h1v1H8z"/><path fill="#F5F7DF" d="M9 38h1v1H9z"/><path fill="#FFF" d="M10 38h1v1h-1zM11 38h1v1h-1zM12 38h1v1h-1zM13 38h1v1h-1zM14 38h1v1h-1zM15 38h1v1h-1zM16 38h1v1h-1zM17 38h1v1h-1zM18 38h1v1h-1zM19 38h1v1h-1zM20 38h1v1h-1zM21 38h1v1h-1zM22 38h1v1h-1zM23 38h1v1h-1zM24 38h1v1h-1zM25 38h1v1h-1zM26 38h1v1h-1zM27 38h1v1h-1zM28 38h1v1h-1zM29 38h1v1h-1zM30 38h1v1h-1zM31 38h1v1h-1zM32 38h1v1h-1zM33 38h1v1h-1zM34 38h1v1h-1zM35 38h1v1h-1z"/><path fill="#DDE18E" d="M36 38h1v1h-1z"/><path fill="#D8DD7E" d="M37 38h1v1h-1zM38 38h1v1h-1zM39 38h1v1h-1zM40 38h1v1h-1zM41 38h1v1h-1zM42 38h1v1h-1zM43 38h1v1h-1zM44 38h1v1h-1zM45 38h1v1h-1zM46 38h1v1h-1zM47 38h1v1h-1zM48 38h1v1h-1zM49 38h1v1h-1zM50 38h1v1h-1zM51 38h1v1h-1z"/><path fill="#6C6F50" d="M52 38h1v1h-1z"/><path fill="#002" d="M53 38h1v1h-1zM54 38h1v1h-1zM55 38h1v1h-1zM56 38h1v1h-1zM0 39h1v1H0zM1 39h1v1H1zM2 39h1v1H2zM3 39h1v1H3z"/><path fill="#6C6F50" d="M4 39h1v1H4z"/><path fill="#D8DD7E" d="M5 39h1v1H5zM6 39h1v1H6zM7 39h1v1H7zM8 39h1v1H8z"/><path fill="#DFE396" d="M9 39h1v1H9z"/><path fill="#FFF" d="M10 39h1v1h-1zM11 39h1v1h-1zM12 39h1v1h-1zM13 39h1v1h-1zM14 39h1v1h-1zM15 39h1v1h-1zM16 39h1v1h-1zM17 39h1v1h-1zM18 39h1v1h-1zM19 39h1v1h-1zM20 39h1v1h-1zM21 39h1v1h-1zM22 39h1v1h-1zM23 39h1v1h-1zM24 39h1v1h-1zM25 39h1v1h-1zM26 39h1v1h-1zM27 39h1v1h-1zM28 39h1v1h-1zM29 39h1v1h-1zM30 39h1v1h-1zM31 39h1v1h-1zM32 39h1v1h-1zM33 39h1v1h-1zM34 39h1v1h-1z"/><path fill="#F0F2CF" d="M35 39h1v1h-1z"/><path fill="#D8DD7E" d="M36 39h1v1h-1zM37 39h1v1h-1zM38 39h1v1h-1zM39 39h1v1h-1zM40 39h1v1h-1zM41 39h1v1h-1zM42 39h1v1h-1zM43 39h1v1h-1zM44 39h1v1h-1zM45 39h1v1h-1zM46 39h1v1h-1zM47 39h1v1h-1zM48 39h1v1h-1zM49 39h1v1h-1zM50 39h1v1h-1zM51 39h1v1h-1z"/><path fill="#6C6F50" d="M52 39h1v1h-1z"/><path fill="#002" d="M53 39h1v1h-1zM54 39h1v1h-1zM55 39h1v1h-1zM56 39h1v1h-1zM0 40h1v1H0zM1 40h1v1H1zM2 40h1v1H2zM3 40h1v1H3z"/><path fill="#6C6F50" d="M4 40h1v1H4z"/><path fill="#D8DD7E" d="M5 40h1v1H5zM6 40h1v1H6zM7 40h1v1H7zM8 40h1v1H8zM9 40h1v1H9z"/><path fill="#ECEEBF" d="M10 40h1v1h-1z"/><path fill="#FFF" d="M11 40h1v1h-1zM12 40h1v1h-1zM13 40h1v1h-1zM14 40h1v1h-1zM15 40h1v1h-1zM16 40h1v1h-1zM17 40h1v1h-1zM18 40h1v1h-1zM19 40h1v1h-1zM20 40h1v1h-1zM21 40h1v1h-1zM22 40h1v1h-1zM23 40h1v1h-1zM24 40h1v1h-1zM25 40h1v1h-1zM26 40h1v1h-1zM27 40h1v1h-1zM28 40h1v1h-1zM29 40h1v1h-1zM30 40h1v1h-1zM31 40h1v1h-1zM32 40h1v1h-1zM33 40h1v1h-1z"/><path fill="#FDFDF7" d="M34 40h1v1h-1z"/><path fill="#DDE18E" d="M35 40h1v1h-1z"/><path fill="#D8DD7E" d="M36 40h1v1h-1zM37 40h1v1h-1zM38 40h1v1h-1zM39 40h1v1h-1zM40 40h1v1h-1zM41 40h1v1h-1zM42 40h1v1h-1zM43 40h1v1h-1zM44 40h1v1h-1zM45 40h1v1h-1zM46 40h1v1h-1zM47 40h1v1h-1zM48 40h1v1h-1zM49 40h1v1h-1zM50 40h1v1h-1zM51 40h1v1h-1z"/><path fill="#6C6F50" d="M52 40h1v1h-1z"/><path fill="#002" d="M53 40h1v1h-1zM54 40h1v1h-1zM55 40h1v1h-1zM56 40h1v1h-1zM0 41h1v1H0zM1 41h1v1H1zM2 41h1v1H2zM3 41h1v1H3z"/><path fill="#6C6F50" d="M4 41h1v1H4z"/><path fill="#D8DD7E" d="M5 41h1v1H5zM6 41h1v1H6zM7 41h1v1H7zM8 41h1v1H8zM9 41h1v1H9zM10 41h1v1h-1z"/><path fill="#F8F9E7" d="M11 41h1v1h-1z"/><path fill="#FFF" d="M12 41h1v1h-1zM13 41h1v1h-1zM14 41h1v1h-1zM15 41h1v1h-1zM16 41h1v1h-1zM17 41h1v1h-1zM18 41h1v1h-1zM19 41h1v1h-1zM20 41h1v1h-1zM21 41h1v1h-1zM22 41h1v1h-1zM23 41h1v1h-1zM24 41h1v1h-1zM25 41h1v1h-1zM26 41h1v1h-1zM27 41h1v1h-1zM28 41h1v1h-1zM29 41h1v1h-1zM30 41h1v1h-1zM31 41h1v1h-1zM32 41h1v1h-1zM33 41h1v1h-1z"/><path fill="#ECEEBF" d="M34 41h1v1h-1z"/><path fill="#D8DD7E" d="M35 41h1v1h-1zM36 41h1v1h-1zM37 41h1v1h-1zM38 41h1v1h-1zM39 41h1v1h-1zM40 41h1v1h-1zM41 41h1v1h-1zM42 41h1v1h-1zM43 41h1v1h-1zM44 41h1v1h-1zM45 41h1v1h-1zM46 41h1v1h-1zM47 41h1v1h-1zM48 41h1v1h-1zM49 41h1v1h-1zM50 41h1v1h-1zM51 41h1v1h-1z"/><path fill="#6C6F50" d="M52 41h1v1h-1z"/><path fill="#002" d="M53 41h1v1h-1zM54 41h1v1h-1zM55 41h1v1h-1zM56 41h1v1h-1zM0 42h1v1H0zM1 42h1v1H1zM2 42h1v1H2zM3 42h1v1H3z"/><path fill="#6C6F50" d="M4 42h1v1H4z"/><path fill="#D8DD7E" d="M5 42h1v1H5zM6 42h1v1H6zM7 42h1v1H7zM8 42h1v1H8zM9 42h1v1H9zM10 42h1v1h-1z"/><path fill="#E2E69E" d="M11 42h1v1h-1z"/><path fill="#FFF" d="M12 42h1v1h-1zM13 42h1v1h-1zM14 42h1v1h-1zM15 42h1v1h-1zM16 42h1v1h-1zM17 42h1v1h-1zM18 42h1v1h-1zM19 42h1v1h-1zM20 42h1v1h-1zM21 42h1v1h-1zM22 42h1v1h-1zM23 42h1v1h-1zM24 42h1v1h-1zM25 42h1v1h-1zM26 42h1v1h-1zM27 42h1v1h-1zM28 42h1v1h-1zM29 42h1v1h-1zM30 42h1v1h-1zM31 42h1v1h-1zM32 42h1v1h-1z"/><path fill="#FDFDF7" d="M33 42h1v1h-1z"/><path fill="#DADF86" d="M34 42h1v1h-1z"/><path fill="#D8DD7E" d="M35 42h1v1h-1zM36 42h1v1h-1zM37 42h1v1h-1zM38 42h1v1h-1zM39 42h1v1h-1zM40 42h1v1h-1zM41 42h1v1h-1zM42 42h1v1h-1zM43 42h1v1h-1zM44 42h1v1h-1zM45 42h1v1h-1zM46 42h1v1h-1zM47 42h1v1h-1zM48 42h1v1h-1zM49 42h1v1h-1zM50 42h1v1h-1zM51 42h1v1h-1z"/><path fill="#6C6F50" d="M52 42h1v1h-1z"/><path fill="#002" d="M53 42h1v1h-1zM54 42h1v1h-1zM55 42h1v1h-1zM56 42h1v1h-1zM0 43h1v1H0zM1 43h1v1H1zM2 43h1v1H2zM3 43h1v1H3z"/><path fill="#6C6F50" d="M4 43h1v1H4z"/><path fill="#D8DD7E" d="M5 43h1v1H5zM6 43h1v1H6zM7 43h1v1H7zM8 43h1v1H8zM9 43h1v1H9zM10 43h1v1h-1zM11 43h1v1h-1z"/><path fill="#EEF0C7" d="M12 43h1v1h-1z"/><path fill="#FFF" d="M13 43h1v1h-1zM14 43h1v1h-1zM15 43h1v1h-1zM16 43h1v1h-1zM17 43h1v1h-1zM18 43h1v1h-1zM19 43h1v1h-1zM20 43h1v1h-1zM21 43h1v1h-1zM22 43h1v1h-1zM23 43h1v1h-1zM24 43h1v1h-1zM25 43h1v1h-1zM26 43h1v1h-1zM27 43h1v1h-1zM28 43h1v1h-1zM29 43h1v1h-1zM30 43h1v1h-1zM31 43h1v1h-1zM32 43h1v1h-1z"/><path fill="#ECEEBF" d="M33 43h1v1h-1z"/><path fill="#D8DD7E" d="M34 43h1v1h-1zM35 43h1v1h-1zM36 43h1v1h-1zM37 43h1v1h-1zM38 43h1v1h-1zM39 43h1v1h-1zM40 43h1v1h-1zM41 43h1v1h-1zM42 43h1v1h-1zM43 43h1v1h-1zM44 43h1v1h-1zM45 43h1v1h-1zM46 43h1v1h-1zM47 43h1v1h-1zM48 43h1v1h-1zM49 43h1v1h-1zM50 43h1v1h-1zM51 43h1v1h-1z"/><path fill="#6C6F50" d="M52 43h1v1h-1z"/><path fill="#002" d="M53 43h1v1h-1zM54 43h1v1h-1zM55 43h1v1h-1zM56 43h1v1h-1zM0 44h1v1H0zM1 44h1v1H1zM2 44h1v1H2zM3 44h1v1H3z"/><path fill="#6C6F50" d="M4 44h1v1H4z"/><path fill="#D8DD7E" d="M5 44h1v1H5zM6 44h1v1H6zM7 44h1v1H7zM8 44h1v1H8zM9 44h1v1H9zM10 44h1v1h-1zM11 44h1v1h-1z"/><path fill="#DADF86" d="M12 44h1v1h-1z"/><path fill="#FAFBEF" d="M13 44h1v1h-1z"/><path fill="#FFF" d="M14 44h1v1h-1zM15 44h1v1h-1zM16 44h1v1h-1zM17 44h1v1h-1zM18 44h1v1h-1zM19 44h1v1h-1zM20 44h1v1h-1zM21 44h1v1h-1zM22 44h1v1h-1zM23 44h1v1h-1zM24 44h1v1h-1zM25 44h1v1h-1zM26 44h1v1h-1zM27 44h1v1h-1zM28 44h1v1h-1zM29 44h1v1h-1zM30 44h1v1h-1zM31 44h1v1h-1z"/><path fill="#FDFDF7" d="M32 44h1v1h-1z"/><path fill="#DADF86" d="M33 44h1v1h-1z"/><path fill="#D8DD7E" d="M34 44h1v1h-1zM35 44h1v1h-1zM36 44h1v1h-1zM37 44h1v1h-1zM38 44h1v1h-1zM39 44h1v1h-1zM40 44h1v1h-1zM41 44h1v1h-1zM42 44h1v1h-1zM43 44h1v1h-1zM44 44h1v1h-1zM45 44h1v1h-1zM46 44h1v1h-1zM47 44h1v1h-1zM48 44h1v1h-1zM49 44h1v1h-1zM50 44h1v1h-1zM51 44h1v1h-1z"/><path fill="#6C6F50" d="M52 44h1v1h-1z"/><path fill="#002" d="M53 44h1v1h-1zM54 44h1v1h-1zM55 44h1v1h-1zM56 44h1v1h-1zM0 45h1v1H0zM1 45h1v1H1zM2 45h1v1H2zM3 45h1v1H3z"/><path fill="#6C6F50" d="M4 45h1v1H4z"/><path fill="#D8DD7E" d="M5 45h1v1H5zM6 45h1v1H6zM7 45h1v1H7zM8 45h1v1H8zM9 45h1v1H9zM10 45h1v1h-1zM11 45h1v1h-1zM12 45h1v1h-1z"/><path fill="#E2E69E" d="M13 45h1v1h-1z"/><path fill="#FFF" d="M14 45h1v1h-1zM15 45h1v1h-1zM16 45h1v1h-1zM17 45h1v1h-1zM18 45h1v1h-1zM19 45h1v1h-1zM20 45h1v1h-1zM21 45h1v1h-1zM22 45h1v1h-1zM23 45h1v1h-1zM24 45h1v1h-1zM25 45h1v1h-1zM26 45h1v1h-1zM27 45h1v1h-1zM28 45h1v1h-1zM29 45h1v1h-1zM30 45h1v1h-1zM31 45h1v1h-1z"/><path fill="#ECEEBF" d="M32 45h1v1h-1z"/><path fill="#D8DD7E" d="M33 45h1v1h-1zM34 45h1v1h-1zM35 45h1v1h-1zM36 45h1v1h-1zM37 45h1v1h-1zM38 45h1v1h-1zM39 45h1v1h-1zM40 45h1v1h-1zM41 45h1v1h-1zM42 45h1v1h-1zM43 45h1v1h-1zM44 45h1v1h-1zM45 45h1v1h-1zM46 45h1v1h-1zM47 45h1v1h-1zM48 45h1v1h-1zM49 45h1v1h-1zM50 45h1v1h-1zM51 45h1v1h-1z"/><path fill="#6C6F50" d="M52 45h1v1h-1z"/><path fill="#002" d="M53 45h1v1h-1zM54 45h1v1h-1zM55 45h1v1h-1zM56 45h1v1h-1zM0 46h1v1H0zM1 46h1v1H1zM2 46h1v1H2zM3 46h1v1H3z"/><path fill="#6C6F50" d="M4 46h1v1H4z"/><path fill="#D8DD7E" d="M5 46h1v1H5zM6 46h1v1H6zM7 46h1v1H7zM8 46h1v1H8zM9 46h1v1H9zM10 46h1v1h-1zM11 46h1v1h-1zM12 46h1v1h-1zM13 46h1v1h-1z"/><path fill="#F3F4D7" d="M14 46h1v1h-1z"/><path fill="#FFF" d="M15 46h1v1h-1zM16 46h1v1h-1zM17 46h1v1h-1zM18 46h1v1h-1zM19 46h1v1h-1zM20 46h1v1h-1zM21 46h1v1h-1zM22 46h1v1h-1zM23 46h1v1h-1zM24 46h1v1h-1zM25 46h1v1h-1zM26 46h1v1h-1zM27 46h1v1h-1zM28 46h1v1h-1zM29 46h1v1h-1zM30 46h1v1h-1z"/><path fill="#FDFDF7" d="M31 46h1v1h-1z"/><path fill="#DADF86" d="M32 46h1v1h-1z"/><path fill="#D8DD7E" d="M33 46h1v1h-1zM34 46h1v1h-1zM35 46h1v1h-1zM36 46h1v1h-1zM37 46h1v1h-1zM38 46h1v1h-1zM39 46h1v1h-1zM40 46h1v1h-1zM41 46h1v1h-1zM42 46h1v1h-1zM43 46h1v1h-1zM44 46h1v1h-1zM45 46h1v1h-1zM46 46h1v1h-1zM47 46h1v1h-1zM48 46h1v1h-1zM49 46h1v1h-1zM50 46h1v1h-1zM51 46h1v1h-1z"/><path fill="#6C6F50" d="M52 46h1v1h-1z"/><path fill="#002" d="M53 46h1v1h-1zM54 46h1v1h-1zM55 46h1v1h-1zM56 46h1v1h-1zM0 47h1v1H0zM1 47h1v1H1zM2 47h1v1H2zM3 47h1v1H3z"/><path fill="#6C6F50" d="M4 47h1v1H4z"/><path fill="#D8DD7E" d="M5 47h1v1H5zM6 47h1v1H6zM7 47h1v1H7zM8 47h1v1H8zM9 47h1v1H9zM10 47h1v1h-1zM11 47h1v1h-1zM12 47h1v1h-1zM13 47h1v1h-1z"/><path fill="#DADF86" d="M14 47h1v1h-1z"/><path fill="#FDFDF7" d="M15 47h1v1h-1z"/><path fill="#FFF" d="M16 47h1v1h-1zM17 47h1v1h-1zM18 47h1v1h-1zM19 47h1v1h-1zM20 47h1v1h-1zM21 47h1v1h-1zM22 47h1v1h-1zM23 47h1v1h-1zM24 47h1v1h-1zM25 47h1v1h-1zM26 47h1v1h-1zM27 47h1v1h-1zM28 47h1v1h-1zM29 47h1v1h-1zM30 47h1v1h-1z"/><path fill="#ECEEBF" d="M31 47h1v1h-1z"/><path fill="#D8DD7E" d="M32 47h1v1h-1zM33 47h1v1h-1zM34 47h1v1h-1zM35 47h1v1h-1zM36 47h1v1h-1zM37 47h1v1h-1zM38 47h1v1h-1zM39 47h1v1h-1zM40 47h1v1h-1zM41 47h1v1h-1zM42 47h1v1h-1zM43 47h1v1h-1zM44 47h1v1h-1zM45 47h1v1h-1zM46 47h1v1h-1zM47 47h1v1h-1zM48 47h1v1h-1zM49 47h1v1h-1zM50 47h1v1h-1zM51 47h1v1h-1z"/><path fill="#6C6F50" d="M52 47h1v1h-1z"/><path fill="#002" d="M53 47h1v1h-1zM54 47h1v1h-1zM55 47h1v1h-1zM56 47h1v1h-1zM0 48h1v1H0zM1 48h1v1H1zM2 48h1v1H2zM3 48h1v1H3z"/><path fill="#6C6F50" d="M4 48h1v1H4z"/><path fill="#D8DD7E" d="M5 48h1v1H5zM6 48h1v1H6zM7 48h1v1H7zM8 48h1v1H8zM9 48h1v1H9zM10 48h1v1h-1zM11 48h1v1h-1zM12 48h1v1h-1zM13 48h1v1h-1zM14 48h1v1h-1z"/><path fill="#E4E8A6" d="M15 48h1v1h-1z"/><path fill="#FFF" d="M16 48h1v1h-1zM17 48h1v1h-1zM18 48h1v1h-1zM19 48h1v1h-1zM20 48h1v1h-1zM21 48h1v1h-1zM22 48h1v1h-1zM23 48h1v1h-1zM24 48h1v1h-1zM25 48h1v1h-1zM26 48h1v1h-1zM27 48h1v1h-1zM28 48h1v1h-1zM29 48h1v1h-1z"/><path fill="#FAFBEF" d="M30 48h1v1h-1z"/><path fill="#D8DD7E" d="M31 48h1v1h-1zM32 48h1v1h-1zM33 48h1v1h-1zM34 48h1v1h-1zM35 48h1v1h-1zM36 48h1v1h-1zM37 48h1v1h-1zM38 48h1v1h-1zM39 48h1v1h-1zM40 48h1v1h-1zM41 48h1v1h-1zM42 48h1v1h-1zM43 48h1v1h-1zM44 48h1v1h-1zM45 48h1v1h-1zM46 48h1v1h-1zM47 48h1v1h-1zM48 48h1v1h-1zM49 48h1v1h-1zM50 48h1v1h-1zM51 48h1v1h-1z"/><path fill="#6C6F50" d="M52 48h1v1h-1z"/><path fill="#002" d="M53 48h1v1h-1zM54 48h1v1h-1zM55 48h1v1h-1zM56 48h1v1h-1zM0 49h1v1H0zM1 49h1v1H1zM2 49h1v1H2zM3 49h1v1H3z"/><path fill="#6C6F50" d="M4 49h1v1H4z"/><path fill="#D8DD7E" d="M5 49h1v1H5zM6 49h1v1H6zM7 49h1v1H7zM8 49h1v1H8zM9 49h1v1H9zM10 49h1v1h-1zM11 49h1v1h-1zM12 49h1v1h-1zM13 49h1v1h-1zM14 49h1v1h-1zM15 49h1v1h-1z"/><path fill="#F5F7DF" d="M16 49h1v1h-1z"/><path fill="#FFF" d="M17 49h1v1h-1zM18 49h1v1h-1zM19 49h1v1h-1zM20 49h1v1h-1zM21 49h1v1h-1zM22 49h1v1h-1zM23 49h1v1h-1zM24 49h1v1h-1zM25 49h1v1h-1zM26 49h1v1h-1zM27 49h1v1h-1zM28 49h1v1h-1zM29 49h1v1h-1z"/><path fill="#E7EAAE" d="M30 49h1v1h-1z"/><path fill="#D8DD7E" d="M31 49h1v1h-1zM32 49h1v1h-1zM33 49h1v1h-1zM34 49h1v1h-1zM35 49h1v1h-1zM36 49h1v1h-1zM37 49h1v1h-1zM38 49h1v1h-1zM39 49h1v1h-1zM40 49h1v1h-1zM41 49h1v1h-1zM42 49h1v1h-1zM43 49h1v1h-1zM44 49h1v1h-1zM45 49h1v1h-1zM46 49h1v1h-1zM47 49h1v1h-1zM48 49h1v1h-1zM49 49h1v1h-1zM50 49h1v1h-1zM51 49h1v1h-1z"/><path fill="#6C6F50" d="M52 49h1v1h-1z"/><path fill="#002" d="M53 49h1v1h-1zM54 49h1v1h-1zM55 49h1v1h-1zM56 49h1v1h-1zM0 50h1v1H0zM1 50h1v1H1zM2 50h1v1H2zM3 50h1v1H3z"/><path fill="#6C6F50" d="M4 50h1v1H4z"/><path fill="#D8DD7E" d="M5 50h1v1H5zM6 50h1v1H6zM7 50h1v1H7zM8 50h1v1H8zM9 50h1v1H9zM10 50h1v1h-1zM11 50h1v1h-1zM12 50h1v1h-1zM13 50h1v1h-1zM14 50h1v1h-1zM15 50h1v1h-1z"/><path fill="#DDE18E" d="M16 50h1v1h-1z"/><path fill="#FDFDF7" d="M17 50h1v1h-1z"/><path fill="#FFF" d="M18 50h1v1h-1zM19 50h1v1h-1zM20 50h1v1h-1zM21 50h1v1h-1zM22 50h1v1h-1zM23 50h1v1h-1zM24 50h1v1h-1zM25 50h1v1h-1zM26 50h1v1h-1zM27 50h1v1h-1zM28 50h1v1h-1z"/><path fill="#FAFBEF" d="M29 50h1v1h-1z"/><path fill="#D8DD7E" d="M30 50h1v1h-1zM31 50h1v1h-1zM32 50h1v1h-1zM33 50h1v1h-1zM34 50h1v1h-1zM35 50h1v1h-1zM36 50h1v1h-1zM37 50h1v1h-1zM38 50h1v1h-1zM39 50h1v1h-1zM40 50h1v1h-1zM41 50h1v1h-1zM42 50h1v1h-1zM43 50h1v1h-1zM44 50h1v1h-1zM45 50h1v1h-1zM46 50h1v1h-1zM47 50h1v1h-1zM48 50h1v1h-1zM49 50h1v1h-1zM50 50h1v1h-1zM51 50h1v1h-1z"/><path fill="#6C6F50" d="M52 50h1v1h-1z"/><path fill="#002" d="M53 50h1v1h-1zM54 50h1v1h-1zM55 50h1v1h-1zM56 50h1v1h-1zM0 51h1v1H0zM1 51h1v1H1zM2 51h1v1H2zM3 51h1v1H3z"/><path fill="#6C6F50" d="M4 51h1v1H4z"/><path fill="#D8DD7E" d="M5 51h1v1H5zM6 51h1v1H6zM7 51h1v1H7zM8 51h1v1H8zM9 51h1v1H9zM10 51h1v1h-1zM11 51h1v1h-1zM12 51h1v1h-1zM13 51h1v1h-1zM14 51h1v1h-1zM15 51h1v1h-1zM16 51h1v1h-1z"/><path fill="#E9ECB6" d="M17 51h1v1h-1z"/><path fill="#FFF" d="M18 51h1v1h-1zM19 51h1v1h-1zM20 51h1v1h-1zM21 51h1v1h-1zM22 51h1v1h-1zM23 51h1v1h-1zM24 51h1v1h-1zM25 51h1v1h-1zM26 51h1v1h-1zM27 51h1v1h-1zM28 51h1v1h-1z"/><path fill="#E7EAAE" d="M29 51h1v1h-1z"/><path fill="#D8DD7E" d="M30 51h1v1h-1zM31 51h1v1h-1zM32 51h1v1h-1zM33 51h1v1h-1zM34 51h1v1h-1zM35 51h1v1h-1zM36 51h1v1h-1zM37 51h1v1h-1zM38 51h1v1h-1zM39 51h1v1h-1zM40 51h1v1h-1zM41 51h1v1h-1zM42 51h1v1h-1zM43 51h1v1h-1zM44 51h1v1h-1zM45 51h1v1h-1zM46 51h1v1h-1zM47 51h1v1h-1zM48 51h1v1h-1zM49 51h1v1h-1zM50 51h1v1h-1zM51 51h1v1h-1z"/><path fill="#6C6F50" d="M52 51h1v1h-1z"/><path fill="#002" d="M53 51h1v1h-1zM54 51h1v1h-1zM55 51h1v1h-1zM56 51h1v1h-1zM0 52h1v1H0zM1 52h1v1H1zM2 52h1v1H2zM3 52h1v1H3z"/><path fill="#6C6F50" d="M4 52h1v1H4z"/><path fill="#D8DD7E" d="M5 52h1v1H5zM6 52h1v1H6zM7 52h1v1H7zM8 52h1v1H8zM9 52h1v1H9zM10 52h1v1h-1zM11 52h1v1h-1zM12 52h1v1h-1zM13 52h1v1h-1zM14 52h1v1h-1zM15 52h1v1h-1zM16 52h1v1h-1zM17 52h1v1h-1z"/><path fill="#F8F9E7" d="M18 52h1v1h-1z"/><path fill="#FFF" d="M19 52h1v1h-1zM20 52h1v1h-1zM21 52h1v1h-1zM22 52h1v1h-1zM23 52h1v1h-1zM24 52h1v1h-1zM25 52h1v1h-1zM26 52h1v1h-1zM27 52h1v1h-1z"/><path fill="#FAFBEF" d="M28 52h1v1h-1z"/><path fill="#D8DD7E" d="M29 52h1v1h-1zM30 52h1v1h-1zM31 52h1v1h-1zM32 52h1v1h-1zM33 52h1v1h-1zM34 52h1v1h-1zM35 52h1v1h-1zM36 52h1v1h-1zM37 52h1v1h-1zM38 52h1v1h-1zM39 52h1v1h-1zM40 52h1v1h-1zM41 52h1v1h-1zM42 52h1v1h-1zM43 52h1v1h-1zM44 52h1v1h-1zM45 52h1v1h-1zM46 52h1v1h-1zM47 52h1v1h-1zM48 52h1v1h-1zM49 52h1v1h-1zM50 52h1v1h-1zM51 52h1v1h-1z"/><path fill="#6C6F50" d="M52 52h1v1h-1z"/><path fill="#002" d="M53 52h1v1h-1zM54 52h1v1h-1zM55 52h1v1h-1zM56 52h1v1h-1zM0 53h1v1H0zM1 53h1v1H1zM2 53h1v1H2zM3 53h1v1H3z"/><path fill="#5F614A" d="M4 53h1v1H4z"/><path fill="#D8DD7E" d="M5 53h1v1H5zM6 53h1v1H6zM7 53h1v1H7zM8 53h1v1H8zM9 53h1v1H9zM10 53h1v1h-1zM11 53h1v1h-1zM12 53h1v1h-1zM13 53h1v1h-1zM14 53h1v1h-1zM15 53h1v1h-1zM16 53h1v1h-1zM17 53h1v1h-1z"/><path fill="#DFE396" d="M18 53h1v1h-1z"/><path fill="#FFF" d="M19 53h1v1h-1zM20 53h1v1h-1zM21 53h1v1h-1zM22 53h1v1h-1zM23 53h1v1h-1zM24 53h1v1h-1zM25 53h1v1h-1zM26 53h1v1h-1zM27 53h1v1h-1z"/><path fill="#E7EAAE" d="M28 53h1v1h-1z"/><path fill="#D8DD7E" d="M29 53h1v1h-1zM30 53h1v1h-1zM31 53h1v1h-1zM32 53h1v1h-1zM33 53h1v1h-1zM34 53h1v1h-1zM35 53h1v1h-1zM36 53h1v1h-1zM37 53h1v1h-1zM38 53h1v1h-1zM39 53h1v1h-1zM40 53h1v1h-1zM41 53h1v1h-1zM42 53h1v1h-1zM43 53h1v1h-1zM44 53h1v1h-1zM45 53h1v1h-1zM46 53h1v1h-1zM47 53h1v1h-1zM48 53h1v1h-1zM49 53h1v1h-1zM50 53h1v1h-1zM51 53h1v1h-1z"/><path fill="#6C6F50" d="M52 53h1v1h-1z"/><path fill="#002" d="M53 53h1v1h-1zM54 53h1v1h-1zM55 53h1v1h-1zM56 53h1v1h-1zM0 54h1v1H0zM1 54h1v1H1zM2 54h1v1H2zM3 54h1v1H3z"/><path fill="#363739" d="M4 54h1v1H4z"/><path fill="#D8DD7E" d="M5 54h1v1H5zM6 54h1v1H6zM7 54h1v1H7zM8 54h1v1H8zM9 54h1v1H9zM10 54h1v1h-1zM11 54h1v1h-1zM12 54h1v1h-1zM13 54h1v1h-1zM14 54h1v1h-1zM15 54h1v1h-1zM16 54h1v1h-1zM17 54h1v1h-1zM18 54h1v1h-1z"/><path fill="#ECEEBF" d="M19 54h1v1h-1z"/><path fill="#FFF" d="M20 54h1v1h-1zM21 54h1v1h-1zM22 54h1v1h-1zM23 54h1v1h-1zM24 54h1v1h-1zM25 54h1v1h-1zM26 54h1v1h-1z"/><path fill="#FAFBEF" d="M27 54h1v1h-1z"/><path fill="#D8DD7E" d="M28 54h1v1h-1zM29 54h1v1h-1zM30 54h1v1h-1zM31 54h1v1h-1zM32 54h1v1h-1zM33 54h1v1h-1zM34 54h1v1h-1zM35 54h1v1h-1zM36 54h1v1h-1zM37 54h1v1h-1zM38 54h1v1h-1zM39 54h1v1h-1zM40 54h1v1h-1zM41 54h1v1h-1zM42 54h1v1h-1zM43 54h1v1h-1zM44 54h1v1h-1zM45 54h1v1h-1zM46 54h1v1h-1zM47 54h1v1h-1zM48 54h1v1h-1zM49 54h1v1h-1zM50 54h1v1h-1zM51 54h1v1h-1z"/><path fill="#6C6F50" d="M52 54h1v1h-1z"/><path fill="#002" d="M53 54h1v1h-1zM54 54h1v1h-1zM55 54h1v1h-1zM56 54h1v1h-1zM0 55h1v1H0zM1 55h1v1H1zM2 55h1v1H2zM3 55h1v1H3z"/><path fill="#363739" d="M4 55h1v1H4z"/><path fill="#D8DD7E" d="M5 55h1v1H5zM6 55h1v1H6zM7 55h1v1H7zM8 55h1v1H8zM9 55h1v1H9zM10 55h1v1h-1zM11 55h1v1h-1zM12 55h1v1h-1zM13 55h1v1h-1zM14 55h1v1h-1zM15 55h1v1h-1zM16 55h1v1h-1zM17 55h1v1h-1zM18 55h1v1h-1zM19 55h1v1h-1z"/><path fill="#FAFBEF" d="M20 55h1v1h-1z"/><path fill="#FFF" d="M21 55h1v1h-1zM22 55h1v1h-1zM23 55h1v1h-1zM24 55h1v1h-1zM25 55h1v1h-1zM26 55h1v1h-1z"/><path fill="#E2E69E" d="M27 55h1v1h-1z"/><path fill="#D8DD7E" d="M28 55h1v1h-1zM29 55h1v1h-1zM30 55h1v1h-1zM31 55h1v1h-1zM32 55h1v1h-1zM33 55h1v1h-1zM34 55h1v1h-1zM35 55h1v1h-1zM36 55h1v1h-1zM37 55h1v1h-1zM38 55h1v1h-1zM39 55h1v1h-1zM40 55h1v1h-1zM41 55h1v1h-1zM42 55h1v1h-1zM43 55h1v1h-1zM44 55h1v1h-1zM45 55h1v1h-1zM46 55h1v1h-1zM47 55h1v1h-1zM48 55h1v1h-1zM49 55h1v1h-1zM50 55h1v1h-1zM51 55h1v1h-1z"/><path fill="#6C6F50" d="M52 55h1v1h-1z"/><path fill="#002" d="M53 55h1v1h-1zM54 55h1v1h-1zM55 55h1v1h-1zM56 55h1v1h-1zM0 56h1v1H0zM1 56h1v1H1zM2 56h1v1H2zM3 56h1v1H3z"/><path fill="#363739" d="M4 56h1v1H4z"/><path fill="#D8DD7E" d="M5 56h1v1H5zM6 56h1v1H6zM7 56h1v1H7zM8 56h1v1H8zM9 56h1v1H9zM10 56h1v1h-1zM11 56h1v1h-1zM12 56h1v1h-1zM13 56h1v1h-1zM14 56h1v1h-1zM15 56h1v1h-1zM16 56h1v1h-1zM17 56h1v1h-1zM18 56h1v1h-1zM19 56h1v1h-1z"/><path fill="#E2E69E" d="M20 56h1v1h-1z"/><path fill="#FFF" d="M21 56h1v1h-1zM22 56h1v1h-1zM23 56h1v1h-1zM24 56h1v1h-1zM25 56h1v1h-1z"/><path fill="#F5F7DF" d="M26 56h1v1h-1z"/><path fill="#D8DD7E" d="M27 56h1v1h-1zM28 56h1v1h-1zM29 56h1v1h-1zM30 56h1v1h-1zM31 56h1v1h-1zM32 56h1v1h-1zM33 56h1v1h-1zM34 56h1v1h-1zM35 56h1v1h-1zM36 56h1v1h-1zM37 56h1v1h-1zM38 56h1v1h-1zM39 56h1v1h-1zM40 56h1v1h-1zM41 56h1v1h-1zM42 56h1v1h-1zM43 56h1v1h-1zM44 56h1v1h-1zM45 56h1v1h-1zM46 56h1v1h-1zM47 56h1v1h-1zM48 56h1v1h-1zM49 56h1v1h-1zM50 56h1v1h-1zM51 56h1v1h-1z"/><path fill="#6C6F50" d="M52 56h1v1h-1z"/><path fill="#002" d="M53 56h1v1h-1zM54 56h1v1h-1zM55 56h1v1h-1zM56 56h1v1h-1zM0 57h1v1H0zM1 57h1v1H1zM2 57h1v1H2zM3 57h1v1H3z"/><path fill="#363739" d="M4 57h1v1H4z"/><path fill="#D8DD7E" d="M5 57h1v1H5zM6 57h1v1H6zM7 57h1v1H7zM8 57h1v1H8zM9 57h1v1H9zM10 57h1v1h-1zM11 57h1v1h-1zM12 57h1v1h-1zM13 57h1v1h-1zM14 57h1v1h-1zM15 57h1v1h-1zM16 57h1v1h-1zM17 57h1v1h-1zM18 57h1v1h-1zM19 57h1v1h-1zM20 57h1v1h-1z"/><path fill="#EEF0C7" d="M21 57h1v1h-1z"/><path fill="#FFF" d="M22 57h1v1h-1zM23 57h1v1h-1zM24 57h1v1h-1zM25 57h1v1h-1z"/><path fill="#E2E69E" d="M26 57h1v1h-1z"/><path fill="#D8DD7E" d="M27 57h1v1h-1zM28 57h1v1h-1zM29 57h1v1h-1zM30 57h1v1h-1zM31 57h1v1h-1zM32 57h1v1h-1zM33 57h1v1h-1zM34 57h1v1h-1zM35 57h1v1h-1zM36 57h1v1h-1zM37 57h1v1h-1zM38 57h1v1h-1zM39 57h1v1h-1zM40 57h1v1h-1zM41 57h1v1h-1zM42 57h1v1h-1zM43 57h1v1h-1zM44 57h1v1h-1zM45 57h1v1h-1zM46 57h1v1h-1zM47 57h1v1h-1zM48 57h1v1h-1zM49 57h1v1h-1zM50 57h1v1h-1zM51 57h1v1h-1z"/><path fill="#6C6F50" d="M52 57h1v1h-1z"/><path fill="#002" d="M53 57h1v1h-1zM54 57h1v1h-1zM55 57h1v1h-1zM56 57h1v1h-1zM0 58h1v1H0zM1 58h1v1H1zM2 58h1v1H2zM3 58h1v1H3z"/><path fill="#363739" d="M4 58h1v1H4z"/><path fill="#D8DD7E" d="M5 58h1v1H5zM6 58h1v1H6zM7 58h1v1H7zM8 58h1v1H8zM9 58h1v1H9zM10 58h1v1h-1zM11 58h1v1h-1zM12 58h1v1h-1zM13 58h1v1h-1zM14 58h1v1h-1zM15 58h1v1h-1zM16 58h1v1h-1zM17 58h1v1h-1zM18 58h1v1h-1zM19 58h1v1h-1zM20 58h1v1h-1z"/><path fill="#DADF86" d="M21 58h1v1h-1z"/><path fill="#FAFBEF" d="M22 58h1v1h-1z"/><path fill="#FFF" d="M23 58h1v1h-1zM24 58h1v1h-1z"/><path fill="#F5F7DF" d="M25 58h1v1h-1z"/><path fill="#D8DD7E" d="M26 58h1v1h-1zM27 58h1v1h-1zM28 58h1v1h-1zM29 58h1v1h-1zM30 58h1v1h-1zM31 58h1v1h-1zM32 58h1v1h-1zM33 58h1v1h-1zM34 58h1v1h-1zM35 58h1v1h-1zM36 58h1v1h-1zM37 58h1v1h-1zM38 58h1v1h-1zM39 58h1v1h-1zM40 58h1v1h-1zM41 58h1v1h-1zM42 58h1v1h-1zM43 58h1v1h-1zM44 58h1v1h-1zM45 58h1v1h-1zM46 58h1v1h-1zM47 58h1v1h-1zM48 58h1v1h-1zM49 58h1v1h-1zM50 58h1v1h-1zM51 58h1v1h-1z"/><path fill="#6C6F50" d="M52 58h1v1h-1z"/><path fill="#002" d="M53 58h1v1h-1zM54 58h1v1h-1zM55 58h1v1h-1zM56 58h1v1h-1zM0 59h1v1H0zM1 59h1v1H1zM2 59h1v1H2zM3 59h1v1H3z"/><path fill="#363739" d="M4 59h1v1H4z"/><path fill="#D8DD7E" d="M5 59h1v1H5zM6 59h1v1H6zM7 59h1v1H7zM8 59h1v1H8zM9 59h1v1H9zM10 59h1v1h-1zM11 59h1v1h-1zM12 59h1v1h-1zM13 59h1v1h-1zM14 59h1v1h-1zM15 59h1v1h-1zM16 59h1v1h-1zM17 59h1v1h-1zM18 59h1v1h-1zM19 59h1v1h-1zM20 59h1v1h-1zM21 59h1v1h-1z"/><path fill="#E4E8A6" d="M22 59h1v1h-1z"/><path fill="#FFF" d="M23 59h1v1h-1zM24 59h1v1h-1z"/><path fill="#E2E69E" d="M25 59h1v1h-1z"/><path fill="#D8DD7E" d="M26 59h1v1h-1zM27 59h1v1h-1zM28 59h1v1h-1zM29 59h1v1h-1zM30 59h1v1h-1zM31 59h1v1h-1zM32 59h1v1h-1zM33 59h1v1h-1zM34 59h1v1h-1zM35 59h1v1h-1zM36 59h1v1h-1zM37 59h1v1h-1zM38 59h1v1h-1zM39 59h1v1h-1zM40 59h1v1h-1zM41 59h1v1h-1zM42 59h1v1h-1zM43 59h1v1h-1zM44 59h1v1h-1zM45 59h1v1h-1zM46 59h1v1h-1zM47 59h1v1h-1zM48 59h1v1h-1zM49 59h1v1h-1zM50 59h1v1h-1zM51 59h1v1h-1z"/><path fill="#6C6F50" d="M52 59h1v1h-1z"/><path fill="#002" d="M53 59h1v1h-1zM54 59h1v1h-1zM55 59h1v1h-1zM56 59h1v1h-1zM0 60h1v1H0zM1 60h1v1H1zM2 60h1v1H2zM3 60h1v1H3z"/><path fill="#363739" d="M4 60h1v1H4z"/><path fill="#D8DD7E" d="M5 60h1v1H5zM6 60h1v1H6zM7 60h1v1H7zM8 60h1v1H8zM9 60h1v1H9zM10 60h1v1h-1zM11 60h1v1h-1zM12 60h1v1h-1zM13 60h1v1h-1zM14 60h1v1h-1zM15 60h1v1h-1zM16 60h1v1h-1zM17 60h1v1h-1zM18 60h1v1h-1zM19 60h1v1h-1zM20 60h1v1h-1zM21 60h1v1h-1zM22 60h1v1h-1z"/><path fill="#F3F4D7" d="M23 60h1v1h-1z"/><path fill="#F5F7DF" d="M24 60h1v1h-1z"/><path fill="#D8DD7E" d="M25 60h1v1h-1zM26 60h1v1h-1zM27 60h1v1h-1zM28 60h1v1h-1zM29 60h1v1h-1zM30 60h1v1h-1zM31 60h1v1h-1zM32 60h1v1h-1zM33 60h1v1h-1zM34 60h1v1h-1zM35 60h1v1h-1zM36 60h1v1h-1zM37 60h1v1h-1zM38 60h1v1h-1zM39 60h1v1h-1zM40 60h1v1h-1zM41 60h1v1h-1zM42 60h1v1h-1zM43 60h1v1h-1zM44 60h1v1h-1zM45 60h1v1h-1zM46 60h1v1h-1zM47 60h1v1h-1zM48 60h1v1h-1zM49 60h1v1h-1zM50 60h1v1h-1zM51 60h1v1h-1z"/><path fill="#6C6F50" d="M52 60h1v1h-1z"/><path fill="#002" d="M53 60h1v1h-1zM54 60h1v1h-1zM55 60h1v1h-1zM56 60h1v1h-1zM0 61h1v1H0zM1 61h1v1H1zM2 61h1v1H2zM3 61h1v1H3z"/><path fill="#363739" d="M4 61h1v1H4z"/><path fill="#D8DD7E" d="M5 61h1v1H5zM6 61h1v1H6zM7 61h1v1H7zM8 61h1v1H8zM9 61h1v1H9zM10 61h1v1h-1zM11 61h1v1h-1zM12 61h1v1h-1zM13 61h1v1h-1zM14 61h1v1h-1zM15 61h1v1h-1zM16 61h1v1h-1zM17 61h1v1h-1zM18 61h1v1h-1zM19 61h1v1h-1zM20 61h1v1h-1zM21 61h1v1h-1zM22 61h1v1h-1z"/><path fill="#D0D479" d="M23 61h1v1h-1z"/><path fill="#C3C574" d="M24 61h1v1h-1z"/><path fill="#BCBF5C" d="M25 61h1v1h-1z"/><path fill="#C6CA68" d="M26 61h1v1h-1z"/><path fill="#CACE6D" d="M27 61h1v1h-1z"/><path fill="#D4D97A" d="M28 61h1v1h-1z"/><path fill="#D8DD7E" d="M29 61h1v1h-1zM30 61h1v1h-1zM31 61h1v1h-1zM32 61h1v1h-1zM33 61h1v1h-1zM34 61h1v1h-1zM35 61h1v1h-1zM36 61h1v1h-1zM37 61h1v1h-1zM38 61h1v1h-1zM39 61h1v1h-1zM40 61h1v1h-1zM41 61h1v1h-1zM42 61h1v1h-1zM43 61h1v1h-1zM44 61h1v1h-1zM45 61h1v1h-1zM46 61h1v1h-1zM47 61h1v1h-1zM48 61h1v1h-1zM49 61h1v1h-1zM50 61h1v1h-1zM51 61h1v1h-1z"/><path fill="#6C6F50" d="M52 61h1v1h-1z"/><path fill="#002" d="M53 61h1v1h-1zM54 61h1v1h-1zM55 61h1v1h-1zM56 61h1v1h-1zM0 62h1v1H0zM1 62h1v1H1zM2 62h1v1H2zM3 62h1v1H3z"/><path fill="#363739" d="M4 62h1v1H4z"/><path fill="#D8DD7E" d="M5 62h1v1H5zM6 62h1v1H6zM7 62h1v1H7zM8 62h1v1H8zM9 62h1v1H9zM10 62h1v1h-1zM11 62h1v1h-1zM12 62h1v1h-1zM13 62h1v1h-1zM14 62h1v1h-1zM15 62h1v1h-1zM16 62h1v1h-1zM17 62h1v1h-1zM18 62h1v1h-1zM19 62h1v1h-1zM20 62h1v1h-1zM21 62h1v1h-1z"/><path fill="#D4D97A" d="M22 62h1v1h-1z"/><path fill="#AAAC46" d="M23 62h1v1h-1z"/><path fill="#9FA139" d="M24 62h1v1h-1zM25 62h1v1h-1zM26 62h1v1h-1zM27 62h1v1h-1zM28 62h1v1h-1zM29 62h1v1h-1z"/><path fill="#A6A942" d="M30 62h1v1h-1z"/><path fill="#ADB04A" d="M31 62h1v1h-1z"/><path fill="#B4B853" d="M32 62h1v1h-1z"/><path fill="#BCBF5C" d="M33 62h1v1h-1z"/><path fill="#BFC360" d="M34 62h1v1h-1z"/><path fill="#CACE6D" d="M35 62h1v1h-1z"/><path fill="#CDD271" d="M36 62h1v1h-1z"/><path fill="#D8DD7E" d="M37 62h1v1h-1zM38 62h1v1h-1zM39 62h1v1h-1zM40 62h1v1h-1zM41 62h1v1h-1zM42 62h1v1h-1zM43 62h1v1h-1zM44 62h1v1h-1zM45 62h1v1h-1zM46 62h1v1h-1zM47 62h1v1h-1zM48 62h1v1h-1zM49 62h1v1h-1zM50 62h1v1h-1zM51 62h1v1h-1z"/><path fill="#6C6F50" d="M52 62h1v1h-1z"/><path fill="#002" d="M53 62h1v1h-1zM54 62h1v1h-1zM55 62h1v1h-1zM56 62h1v1h-1zM0 63h1v1H0zM1 63h1v1H1zM2 63h1v1H2zM3 63h1v1H3z"/><path fill="#363739" d="M4 63h1v1H4z"/><path fill="#D8DD7E" d="M5 63h1v1H5zM6 63h1v1H6zM7 63h1v1H7zM8 63h1v1H8zM9 63h1v1H9zM10 63h1v1h-1zM11 63h1v1h-1zM12 63h1v1h-1zM13 63h1v1h-1zM14 63h1v1h-1zM15 63h1v1h-1zM16 63h1v1h-1zM17 63h1v1h-1zM18 63h1v1h-1zM19 63h1v1h-1zM20 63h1v1h-1zM21 63h1v1h-1z"/><path fill="#ADB04A" d="M22 63h1v1h-1z"/><path fill="#9FA139" d="M23 63h1v1h-1zM24 63h1v1h-1zM25 63h1v1h-1zM26 63h1v1h-1zM27 63h1v1h-1zM28 63h1v1h-1zM29 63h1v1h-1zM30 63h1v1h-1zM31 63h1v1h-1zM32 63h1v1h-1zM33 63h1v1h-1zM34 63h1v1h-1zM35 63h1v1h-1zM36 63h1v1h-1zM37 63h1v1h-1zM38 63h1v1h-1z"/><path fill="#ADB04A" d="M39 63h1v1h-1zM40 63h1v1h-1z"/><path fill="#BCBF5C" d="M41 63h1v1h-1zM42 63h1v1h-1z"/><path fill="#C6CA68" d="M43 63h1v1h-1z"/><path fill="#CACE6D" d="M44 63h1v1h-1z"/><path fill="#D4D97A" d="M45 63h1v1h-1z"/><path fill="#D8DD7E" d="M46 63h1v1h-1zM47 63h1v1h-1zM48 63h1v1h-1zM49 63h1v1h-1zM50 63h1v1h-1zM51 63h1v1h-1z"/><path fill="#515345" d="M52 63h1v1h-1z"/><path fill="#002" d="M53 63h1v1h-1zM54 63h1v1h-1zM55 63h1v1h-1zM56 63h1v1h-1zM0 64h1v1H0zM1 64h1v1H1zM2 64h1v1H2zM3 64h1v1H3z"/><path fill="#363739" d="M4 64h1v1H4z"/><path fill="#D8DD7E" d="M5 64h1v1H5zM6 64h1v1H6zM7 64h1v1H7zM8 64h1v1H8zM9 64h1v1H9zM10 64h1v1h-1zM11 64h1v1h-1zM12 64h1v1h-1zM13 64h1v1h-1zM14 64h1v1h-1zM15 64h1v1h-1zM16 64h1v1h-1zM17 64h1v1h-1zM18 64h1v1h-1zM19 64h1v1h-1zM20 64h1v1h-1z"/><path fill="#B8BB57" d="M21 64h1v1h-1z"/><path fill="#9FA139" d="M22 64h1v1h-1zM23 64h1v1h-1zM24 64h1v1h-1zM25 64h1v1h-1zM26 64h1v1h-1zM27 64h1v1h-1zM28 64h1v1h-1zM29 64h1v1h-1zM30 64h1v1h-1zM31 64h1v1h-1zM32 64h1v1h-1zM33 64h1v1h-1zM34 64h1v1h-1zM35 64h1v1h-1zM36 64h1v1h-1zM37 64h1v1h-1zM38 64h1v1h-1zM39 64h1v1h-1zM40 64h1v1h-1zM41 64h1v1h-1zM42 64h1v1h-1zM43 64h1v1h-1zM44 64h1v1h-1zM45 64h1v1h-1zM46 64h1v1h-1z"/><path fill="#A6A942" d="M47 64h1v1h-1z"/><path fill="#ADB04A" d="M48 64h1v1h-1z"/><path fill="#AAAD51" d="M49 64h1v1h-1z"/><path fill="#767951" d="M50 64h1v1h-1z"/><path fill="#1B1C2E" d="M51 64h1v1h-1z"/><path fill="#002" d="M52 64h1v1h-1zM53 64h1v1h-1zM54 64h1v1h-1zM55 64h1v1h-1zM56 64h1v1h-1zM0 65h1v1H0zM1 65h1v1H1zM2 65h1v1H2zM3 65h1v1H3z"/><path fill="#363739" d="M4 65h1v1H4z"/><path fill="#D8DD7E" d="M5 65h1v1H5zM6 65h1v1H6zM7 65h1v1H7zM8 65h1v1H8zM9 65h1v1H9zM10 65h1v1h-1zM11 65h1v1h-1zM12 65h1v1h-1zM13 65h1v1h-1zM14 65h1v1h-1zM15 65h1v1h-1zM16 65h1v1h-1zM17 65h1v1h-1zM18 65h1v1h-1zM19 65h1v1h-1z"/><path fill="#C3C764" d="M20 65h1v1h-1z"/><path fill="#9FA139" d="M21 65h1v1h-1zM22 65h1v1h-1zM23 65h1v1h-1zM24 65h1v1h-1zM25 65h1v1h-1zM26 65h1v1h-1zM27 65h1v1h-1zM28 65h1v1h-1zM29 65h1v1h-1zM30 65h1v1h-1zM31 65h1v1h-1zM32 65h1v1h-1zM33 65h1v1h-1zM34 65h1v1h-1zM35 65h1v1h-1zM36 65h1v1h-1zM37 65h1v1h-1zM38 65h1v1h-1zM39 65h1v1h-1zM40 65h1v1h-1zM41 65h1v1h-1zM42 65h1v1h-1zM43 65h1v1h-1zM44 65h1v1h-1zM45 65h1v1h-1zM46 65h1v1h-1z"/><path fill="#8B8D36" d="M47 65h1v1h-1z"/><path fill="#3C3C2B" d="M48 65h1v1h-1z"/><path fill="#0A0A23" d="M49 65h1v1h-1z"/><path fill="#002" d="M50 65h1v1h-1zM51 65h1v1h-1zM52 65h1v1h-1zM53 65h1v1h-1zM54 65h1v1h-1zM55 65h1v1h-1zM56 65h1v1h-1zM0 66h1v1H0zM1 66h1v1H1zM2 66h1v1H2zM3 66h1v1H3z"/><path fill="#363739" d="M4 66h1v1H4z"/><path fill="#D8DD7E" d="M5 66h1v1H5zM6 66h1v1H6zM7 66h1v1H7zM8 66h1v1H8zM9 66h1v1H9zM10 66h1v1h-1zM11 66h1v1h-1zM12 66h1v1h-1zM13 66h1v1h-1zM14 66h1v1h-1zM15 66h1v1h-1zM16 66h1v1h-1zM17 66h1v1h-1zM18 66h1v1h-1z"/><path fill="#CDD271" d="M19 66h1v1h-1z"/><path fill="#9FA139" d="M20 66h1v1h-1zM21 66h1v1h-1zM22 66h1v1h-1zM23 66h1v1h-1zM24 66h1v1h-1zM25 66h1v1h-1zM26 66h1v1h-1zM27 66h1v1h-1zM28 66h1v1h-1zM29 66h1v1h-1zM30 66h1v1h-1zM31 66h1v1h-1zM32 66h1v1h-1zM33 66h1v1h-1zM34 66h1v1h-1zM35 66h1v1h-1zM36 66h1v1h-1zM37 66h1v1h-1zM38 66h1v1h-1zM39 66h1v1h-1zM40 66h1v1h-1zM41 66h1v1h-1zM42 66h1v1h-1zM43 66h1v1h-1zM44 66h1v1h-1z"/><path fill="#777933" d="M45 66h1v1h-1z"/><path fill="#323229" d="M46 66h1v1h-1z"/><path fill="#002" d="M47 66h1v1h-1zM48 66h1v1h-1zM49 66h1v1h-1zM50 66h1v1h-1zM51 66h1v1h-1zM52 66h1v1h-1zM53 66h1v1h-1zM54 66h1v1h-1zM55 66h1v1h-1zM56 66h1v1h-1zM0 67h1v1H0zM1 67h1v1H1zM2 67h1v1H2zM3 67h1v1H3z"/><path fill="#363739" d="M4 67h1v1H4z"/><path fill="#D8DD7E" d="M5 67h1v1H5zM6 67h1v1H6zM7 67h1v1H7zM8 67h1v1H8zM9 67h1v1H9zM10 67h1v1h-1zM11 67h1v1h-1zM12 67h1v1h-1zM13 67h1v1h-1zM14 67h1v1h-1zM15 67h1v1h-1zM16 67h1v1h-1zM17 67h1v1h-1z"/><path fill="#D4D97A" d="M18 67h1v1h-1z"/><path fill="#A3A53D" d="M19 67h1v1h-1z"/><path fill="#9FA139" d="M20 67h1v1h-1zM21 67h1v1h-1zM22 67h1v1h-1zM23 67h1v1h-1zM24 67h1v1h-1zM25 67h1v1h-1zM26 67h1v1h-1zM27 67h1v1h-1zM28 67h1v1h-1zM29 67h1v1h-1zM30 67h1v1h-1zM31 67h1v1h-1zM32 67h1v1h-1zM33 67h1v1h-1zM34 67h1v1h-1zM35 67h1v1h-1zM36 67h1v1h-1zM37 67h1v1h-1zM38 67h1v1h-1zM39 67h1v1h-1zM40 67h1v1h-1zM41 67h1v1h-1z"/><path fill="#959738" d="M42 67h1v1h-1z"/><path fill="#636530" d="M43 67h1v1h-1z"/><path fill="#141425" d="M44 67h1v1h-1z"/><path fill="#002" d="M45 67h1v1h-1zM46 67h1v1h-1zM47 67h1v1h-1zM48 67h1v1h-1zM49 67h1v1h-1zM50 67h1v1h-1zM51 67h1v1h-1zM52 67h1v1h-1zM53 67h1v1h-1zM54 67h1v1h-1zM55 67h1v1h-1zM0 68h1v1H0zM1 68h1v1H1zM2 68h1v1H2zM3 68h1v1H3z"/><path fill="#363739" d="M4 68h1v1H4z"/><path fill="#D8DD7E" d="M5 68h1v1H5zM6 68h1v1H6zM7 68h1v1H7zM8 68h1v1H8zM9 68h1v1H9zM10 68h1v1h-1zM11 68h1v1h-1zM12 68h1v1h-1zM13 68h1v1h-1zM14 68h1v1h-1zM15 68h1v1h-1zM16 68h1v1h-1z"/><path fill="#D4D97A" d="M17 68h1v1h-1z"/><path fill="#AAAC46" d="M18 68h1v1h-1z"/><path fill="#9FA139" d="M19 68h1v1h-1zM20 68h1v1h-1zM21 68h1v1h-1zM22 68h1v1h-1zM23 68h1v1h-1zM24 68h1v1h-1zM25 68h1v1h-1zM26 68h1v1h-1zM27 68h1v1h-1zM28 68h1v1h-1zM29 68h1v1h-1zM30 68h1v1h-1zM31 68h1v1h-1zM32 68h1v1h-1zM33 68h1v1h-1zM34 68h1v1h-1zM35 68h1v1h-1zM36 68h1v1h-1zM37 68h1v1h-1zM38 68h1v1h-1zM39 68h1v1h-1z"/><path fill="#8B8D36" d="M40 68h1v1h-1z"/><path fill="#50512E" d="M41 68h1v1h-1z"/><path fill="#0A0A23" d="M42 68h1v1h-1z"/><path fill="#002" d="M43 68h1v1h-1zM44 68h1v1h-1zM45 68h1v1h-1zM46 68h1v1h-1zM47 68h1v1h-1zM48 68h1v1h-1zM49 68h1v1h-1zM50 68h1v1h-1zM51 68h1v1h-1zM52 68h1v1h-1zM53 68h1v1h-1zM0 69h1v1H0zM1 69h1v1H1zM2 69h1v1H2zM3 69h1v1H3z"/><path fill="#363739" d="M4 69h1v1H4z"/><path fill="#D8DD7E" d="M5 69h1v1H5zM6 69h1v1H6zM7 69h1v1H7zM8 69h1v1H8zM9 69h1v1H9zM10 69h1v1h-1zM11 69h1v1h-1zM12 69h1v1h-1zM13 69h1v1h-1zM14 69h1v1h-1zM15 69h1v1h-1zM16 69h1v1h-1z"/><path fill="#B4B853" d="M17 69h1v1h-1z"/><path fill="#9FA139" d="M18 69h1v1h-1zM19 69h1v1h-1zM20 69h1v1h-1zM21 69h1v1h-1zM22 69h1v1h-1zM23 69h1v1h-1zM24 69h1v1h-1zM25 69h1v1h-1zM26 69h1v1h-1zM27 69h1v1h-1zM28 69h1v1h-1zM29 69h1v1h-1zM30 69h1v1h-1zM31 69h1v1h-1zM32 69h1v1h-1zM33 69h1v1h-1zM34 69h1v1h-1zM35 69h1v1h-1zM36 69h1v1h-1zM37 69h1v1h-1z"/><path fill="#777933" d="M38 69h1v1h-1z"/><path fill="#3C3C2B" d="M39 69h1v1h-1z"/><path fill="#002" d="M40 69h1v1h-1zM41 69h1v1h-1zM42 69h1v1h-1zM43 69h1v1h-1zM44 69h1v1h-1zM45 69h1v1h-1zM46 69h1v1h-1zM47 69h1v1h-1zM48 69h1v1h-1zM49 69h1v1h-1zM50 69h1v1h-1zM0 70h1v1H0zM1 70h1v1H1zM2 70h1v1H2zM3 70h1v1H3z"/><path fill="#363739" d="M4 70h1v1H4z"/><path fill="#D8DD7E" d="M5 70h1v1H5zM6 70h1v1H6zM7 70h1v1H7zM8 70h1v1H8zM9 70h1v1H9zM10 70h1v1h-1zM11 70h1v1h-1zM12 70h1v1h-1zM13 70h1v1h-1zM14 70h1v1h-1zM15 70h1v1h-1z"/><path fill="#BFC360" d="M16 70h1v1h-1z"/><path fill="#9FA139" d="M17 70h1v1h-1zM18 70h1v1h-1zM19 70h1v1h-1zM20 70h1v1h-1zM21 70h1v1h-1zM22 70h1v1h-1zM23 70h1v1h-1zM24 70h1v1h-1zM25 70h1v1h-1zM26 70h1v1h-1zM27 70h1v1h-1zM28 70h1v1h-1zM29 70h1v1h-1zM30 70h1v1h-1zM31 70h1v1h-1zM32 70h1v1h-1zM33 70h1v1h-1zM34 70h1v1h-1zM35 70h1v1h-1z"/><path fill="#636530" d="M36 70h1v1h-1z"/><path fill="#1E1E26" d="M37 70h1v1h-1z"/><path fill="#002" d="M38 70h1v1h-1zM39 70h1v1h-1zM40 70h1v1h-1zM41 70h1v1h-1zM42 70h1v1h-1zM43 70h1v1h-1zM44 70h1v1h-1zM45 70h1v1h-1zM46 70h1v1h-1zM47 70h1v1h-1zM48 70h1v1h-1zM0 71h1v1H0zM1 71h1v1H1zM2 71h1v1H2zM3 71h1v1H3z"/><path fill="#363739" d="M4 71h1v1H4z"/><path fill="#D8DD7E" d="M5 71h1v1H5zM6 71h1v1H6zM7 71h1v1H7zM8 71h1v1H8zM9 71h1v1H9zM10 71h1v1h-1zM11 71h1v1h-1zM12 71h1v1h-1zM13 71h1v1h-1zM14 71h1v1h-1z"/><path fill="#C6CA68" d="M15 71h1v1h-1z"/><path fill="#9FA139" d="M16 71h1v1h-1zM17 71h1v1h-1zM18 71h1v1h-1zM19 71h1v1h-1zM20 71h1v1h-1zM21 71h1v1h-1zM22 71h1v1h-1zM23 71h1v1h-1zM24 71h1v1h-1zM25 71h1v1h-1zM26 71h1v1h-1zM27 71h1v1h-1zM28 71h1v1h-1zM29 71h1v1h-1zM30 71h1v1h-1zM31 71h1v1h-1zM32 71h1v1h-1z"/><path fill="#959738" d="M33 71h1v1h-1z"/><path fill="#50512E" d="M34 71h1v1h-1z"/><path fill="#141425" d="M35 71h1v1h-1z"/><path fill="#002" d="M36 71h1v1h-1zM37 71h1v1h-1zM38 71h1v1h-1zM39 71h1v1h-1zM40 71h1v1h-1zM41 71h1v1h-1zM42 71h1v1h-1zM43 71h1v1h-1zM44 71h1v1h-1zM45 71h1v1h-1zM46 71h1v1h-1zM0 72h1v1H0zM1 72h1v1H1zM2 72h1v1H2zM3 72h1v1H3z"/><path fill="#363739" d="M4 72h1v1H4z"/><path fill="#D8DD7E" d="M5 72h1v1H5zM6 72h1v1H6zM7 72h1v1H7zM8 72h1v1H8zM9 72h1v1H9zM10 72h1v1h-1zM11 72h1v1h-1zM12 72h1v1h-1zM13 72h1v1h-1z"/><path fill="#CDD271" d="M14 72h1v1h-1z"/><path fill="#A3A53D" d="M15 72h1v1h-1z"/><path fill="#9FA139" d="M16 72h1v1h-1zM17 72h1v1h-1zM18 72h1v1h-1zM19 72h1v1h-1zM20 72h1v1h-1zM21 72h1v1h-1zM22 72h1v1h-1zM23 72h1v1h-1zM24 72h1v1h-1zM25 72h1v1h-1zM26 72h1v1h-1zM27 72h1v1h-1zM28 72h1v1h-1zM29 72h1v1h-1zM30 72h1v1h-1z"/><path fill="#818335" d="M31 72h1v1h-1z"/><path fill="#3C3C2B" d="M32 72h1v1h-1z"/><path fill="#002" d="M33 72h1v1h-1zM34 72h1v1h-1zM35 72h1v1h-1zM36 72h1v1h-1zM37 72h1v1h-1zM38 72h1v1h-1zM39 72h1v1h-1zM40 72h1v1h-1zM41 72h1v1h-1zM42 72h1v1h-1zM43 72h1v1h-1zM0 73h1v1H0zM1 73h1v1H1zM2 73h1v1H2zM3 73h1v1H3z"/><path fill="#363739" d="M4 73h1v1H4z"/><path fill="#D8DD7E" d="M5 73h1v1H5zM6 73h1v1H6zM7 73h1v1H7zM8 73h1v1H8zM9 73h1v1H9zM10 73h1v1h-1zM11 73h1v1h-1zM12 73h1v1h-1z"/><path fill="#D4D97A" d="M13 73h1v1h-1z"/><path fill="#AAAC46" d="M14 73h1v1h-1z"/><path fill="#9FA139" d="M15 73h1v1h-1zM16 73h1v1h-1zM17 73h1v1h-1zM18 73h1v1h-1zM19 73h1v1h-1zM20 73h1v1h-1zM21 73h1v1h-1zM22 73h1v1h-1zM23 73h1v1h-1zM24 73h1v1h-1zM25 73h1v1h-1zM26 73h1v1h-1zM27 73h1v1h-1zM28 73h1v1h-1z"/><path fill="#6D6F32" d="M29 73h1v1h-1z"/><path fill="#282828" d="M30 73h1v1h-1z"/><path fill="#002" d="M31 73h1v1h-1zM32 73h1v1h-1zM33 73h1v1h-1zM34 73h1v1h-1zM35 73h1v1h-1zM36 73h1v1h-1zM37 73h1v1h-1zM38 73h1v1h-1zM39 73h1v1h-1zM40 73h1v1h-1zM41 73h1v1h-1zM0 74h1v1H0zM1 74h1v1H1zM2 74h1v1H2zM3 74h1v1H3z"/><path fill="#363739" d="M4 74h1v1H4z"/><path fill="#D8DD7E" d="M5 74h1v1H5zM6 74h1v1H6zM7 74h1v1H7zM8 74h1v1H8zM9 74h1v1H9zM10 74h1v1h-1zM11 74h1v1h-1zM12 74h1v1h-1z"/><path fill="#ADB04A" d="M13 74h1v1h-1z"/><path fill="#9FA139" d="M14 74h1v1h-1zM15 74h1v1h-1zM16 74h1v1h-1zM17 74h1v1h-1zM18 74h1v1h-1zM19 74h1v1h-1zM20 74h1v1h-1zM21 74h1v1h-1zM22 74h1v1h-1zM23 74h1v1h-1zM24 74h1v1h-1zM25 74h1v1h-1z"/><path fill="#959738" d="M26 74h1v1h-1z"/><path fill="#595B2F" d="M27 74h1v1h-1z"/><path fill="#141425" d="M28 74h1v1h-1z"/><path fill="#002" d="M29 74h1v1h-1zM30 74h1v1h-1zM31 74h1v1h-1zM32 74h1v1h-1zM33 74h1v1h-1zM34 74h1v1h-1zM35 74h1v1h-1zM36 74h1v1h-1zM37 74h1v1h-1zM38 74h1v1h-1zM39 74h1v1h-1zM0 75h1v1H0zM1 75h1v1H1zM2 75h1v1H2zM3 75h1v1H3z"/><path fill="#363739" d="M4 75h1v1H4z"/><path fill="#D8DD7E" d="M5 75h1v1H5zM6 75h1v1H6zM7 75h1v1H7zM8 75h1v1H8zM9 75h1v1H9zM10 75h1v1h-1zM11 75h1v1h-1z"/><path fill="#B8BB57" d="M12 75h1v1h-1z"/><path fill="#9FA139" d="M13 75h1v1h-1zM14 75h1v1h-1zM15 75h1v1h-1zM16 75h1v1h-1zM17 75h1v1h-1zM18 75h1v1h-1zM19 75h1v1h-1zM20 75h1v1h-1zM21 75h1v1h-1zM22 75h1v1h-1zM23 75h1v1h-1z"/><path fill="#8B8D36" d="M24 75h1v1h-1z"/><path fill="#3C3C2B" d="M25 75h1v1h-1z"/><path fill="#0A0A23" d="M26 75h1v1h-1z"/><path fill="#002" d="M27 75h1v1h-1zM28 75h1v1h-1zM29 75h1v1h-1zM30 75h1v1h-1zM31 75h1v1h-1zM32 75h1v1h-1zM33 75h1v1h-1zM34 75h1v1h-1zM35 75h1v1h-1zM36 75h1v1h-1zM0 76h1v1H0zM1 76h1v1H1zM2 76h1v1H2zM3 76h1v1H3z"/><path fill="#363739" d="M4 76h1v1H4z"/><path fill="#D8DD7E" d="M5 76h1v1H5zM6 76h1v1H6zM7 76h1v1H7zM8 76h1v1H8zM9 76h1v1H9zM10 76h1v1h-1z"/><path fill="#C3C764" d="M11 76h1v1h-1z"/><path fill="#9FA139" d="M12 76h1v1h-1zM13 76h1v1h-1zM14 76h1v1h-1zM15 76h1v1h-1zM16 76h1v1h-1zM17 76h1v1h-1zM18 76h1v1h-1zM19 76h1v1h-1zM20 76h1v1h-1zM21 76h1v1h-1z"/><path fill="#777933" d="M22 76h1v1h-1z"/><path fill="#323229" d="M23 76h1v1h-1z"/><path fill="#002" d="M24 76h1v1h-1zM25 76h1v1h-1zM26 76h1v1h-1zM27 76h1v1h-1zM28 76h1v1h-1zM29 76h1v1h-1zM30 76h1v1h-1zM31 76h1v1h-1zM32 76h1v1h-1zM33 76h1v1h-1zM34 76h1v1h-1zM0 77h1v1H0zM1 77h1v1H1zM2 77h1v1H2zM3 77h1v1H3z"/><path fill="#363739" d="M4 77h1v1H4z"/><path fill="#D8DD7E" d="M5 77h1v1H5zM6 77h1v1H6zM7 77h1v1H7zM8 77h1v1H8zM9 77h1v1H9z"/><path fill="#CDD271" d="M10 77h1v1h-1z"/><path fill="#9FA139" d="M11 77h1v1h-1zM12 77h1v1h-1zM13 77h1v1h-1zM14 77h1v1h-1zM15 77h1v1h-1zM16 77h1v1h-1zM17 77h1v1h-1zM18 77h1v1h-1z"/><path fill="#959738" d="M19 77h1v1h-1z"/><path fill="#636530" d="M20 77h1v1h-1z"/><path fill="#141425" d="M21 77h1v1h-1z"/><path fill="#002" d="M22 77h1v1h-1zM23 77h1v1h-1zM24 77h1v1h-1zM25 77h1v1h-1zM26 77h1v1h-1zM27 77h1v1h-1zM28 77h1v1h-1zM29 77h1v1h-1zM30 77h1v1h-1zM31 77h1v1h-1zM32 77h1v1h-1zM0 78h1v1H0zM1 78h1v1H1zM2 78h1v1H2zM3 78h1v1H3z"/><path fill="#363739" d="M4 78h1v1H4z"/><path fill="#D8DD7E" d="M5 78h1v1H5zM6 78h1v1H6zM7 78h1v1H7zM8 78h1v1H8z"/><path fill="#D4D97A" d="M9 78h1v1H9z"/><path fill="#A3A53D" d="M10 78h1v1h-1z"/><path fill="#9FA139" d="M11 78h1v1h-1zM12 78h1v1h-1zM13 78h1v1h-1zM14 78h1v1h-1zM15 78h1v1h-1zM16 78h1v1h-1z"/><path fill="#8B8D36" d="M17 78h1v1h-1z"/><path fill="#50512E" d="M18 78h1v1h-1z"/><path fill="#0A0A23" d="M19 78h1v1h-1z"/><path fill="#002" d="M20 78h1v1h-1zM21 78h1v1h-1zM22 78h1v1h-1zM23 78h1v1h-1zM24 78h1v1h-1zM25 78h1v1h-1zM26 78h1v1h-1zM27 78h1v1h-1zM28 78h1v1h-1zM29 78h1v1h-1zM0 79h1v1H0zM1 79h1v1H1zM2 79h1v1H2zM3 79h1v1H3z"/><path fill="#363739" d="M4 79h1v1H4z"/><path fill="#D8DD7E" d="M5 79h1v1H5zM6 79h1v1H6zM7 79h1v1H7z"/><path fill="#D4D97A" d="M8 79h1v1H8z"/><path fill="#AAAC46" d="M9 79h1v1H9z"/><path fill="#9FA139" d="M10 79h1v1h-1zM11 79h1v1h-1zM12 79h1v1h-1zM13 79h1v1h-1zM14 79h1v1h-1z"/><path fill="#777933" d="M15 79h1v1h-1z"/><path fill="#3C3C2B" d="M16 79h1v1h-1z"/><path fill="#002" d="M17 79h1v1h-1zM18 79h1v1h-1zM19 79h1v1h-1zM20 79h1v1h-1zM21 79h1v1h-1zM22 79h1v1h-1zM23 79h1v1h-1zM24 79h1v1h-1zM25 79h1v1h-1zM26 79h1v1h-1zM27 79h1v1h-1zM0 80h1v1H0zM1 80h1v1H1zM2 80h1v1H2zM3 80h1v1H3z"/><path fill="#363739" d="M4 80h1v1H4z"/><path fill="#D8DD7E" d="M5 80h1v1H5zM6 80h1v1H6zM7 80h1v1H7z"/><path fill="#B4B853" d="M8 80h1v1H8z"/><path fill="#9FA139" d="M9 80h1v1H9zM10 80h1v1h-1zM11 80h1v1h-1zM12 80h1v1h-1z"/><path fill="#636530" d="M13 80h1v1h-1z"/><path fill="#1E1E26" d="M14 80h1v1h-1z"/><path fill="#002" d="M15 80h1v1h-1zM16 80h1v1h-1zM17 80h1v1h-1zM18 80h1v1h-1zM19 80h1v1h-1zM20 80h1v1h-1zM21 80h1v1h-1zM22 80h1v1h-1zM23 80h1v1h-1zM24 80h1v1h-1zM25 80h1v1h-1zM0 81h1v1H0zM1 81h1v1H1zM2 81h1v1H2zM3 81h1v1H3z"/><path fill="#363739" d="M4 81h1v1H4z"/><path fill="#D8DD7E" d="M5 81h1v1H5zM6 81h1v1H6z"/><path fill="#BFC360" d="M7 81h1v1H7z"/><path fill="#9FA139" d="M8 81h1v1H8zM9 81h1v1H9z"/><path fill="#959738" d="M10 81h1v1h-1z"/><path fill="#50512E" d="M11 81h1v1h-1z"/><path fill="#0A0A23" d="M12 81h1v1h-1z"/><path fill="#002" d="M13 81h1v1h-1zM14 81h1v1h-1zM15 81h1v1h-1zM16 81h1v1h-1zM17 81h1v1h-1zM18 81h1v1h-1zM19 81h1v1h-1zM20 81h1v1h-1zM21 81h1v1h-1zM22 81h1v1h-1zM23 81h1v1h-1zM0 82h1v1H0zM1 82h1v1H1zM2 82h1v1H2zM3 82h1v1H3z"/><path fill="#363739" d="M4 82h1v1H4z"/><path fill="#D8DD7E" d="M5 82h1v1H5z"/><path fill="#C6CA68" d="M6 82h1v1H6z"/><path fill="#9FA139" d="M7 82h1v1H7z"/><path fill="#818335" d="M8 82h1v1H8z"/><path fill="#3C3C2B" d="M9 82h1v1H9z"/><path fill="#002" d="M10 82h1v1h-1zM11 82h1v1h-1zM12 82h1v1h-1zM13 82h1v1h-1zM14 82h1v1h-1zM15 82h1v1h-1zM16 82h1v1h-1zM17 82h1v1h-1zM18 82h1v1h-1zM19 82h1v1h-1zM20 82h1v1h-1zM0 83h1v1H0zM1 83h1v1H1zM2 83h1v1H2zM3 83h1v1H3z"/><path fill="#363739" d="M4 83h1v1H4z"/><path fill="#CDD271" d="M5 83h1v1H5z"/><path fill="#676835" d="M6 83h1v1H6z"/><path fill="#282828" d="M7 83h1v1H7z"/><path fill="#002" d="M8 83h1v1H8zM9 83h1v1H9zM10 83h1v1h-1zM11 83h1v1h-1zM12 83h1v1h-1zM13 83h1v1h-1zM14 83h1v1h-1zM15 83h1v1h-1zM16 83h1v1h-1zM17 83h1v1h-1zM18 83h1v1h-1zM0 84h1v1H0zM1 84h1v1H1zM2 84h1v1H2zM3 84h1v1H3z"/><path fill="#1B1C2E" d="M4 84h1v1H4zM5 84h1v1H5z"/><path fill="#002" d="M6 84h1v1H6zM7 84h1v1H7zM8 84h1v1H8zM9 84h1v1H9zM10 84h1v1h-1zM11 84h1v1h-1zM12 84h1v1h-1zM13 84h1v1h-1zM14 84h1v1h-1zM15 84h1v1h-1zM16 84h1v1h-1zM0 85h1v1H0zM1 85h1v1H1zM2 85h1v1H2zM3 85h1v1H3zM4 85h1v1H4zM5 85h1v1H5zM6 85h1v1H6zM7 85h1v1H7zM8 85h1v1H8zM9 85h1v1H9zM10 85h1v1h-1zM11 85h1v1h-1zM12 85h1v1h-1zM13 85h1v1h-1zM0 86h1v1H0zM1 86h1v1H1zM2 86h1v1H2zM3 86h1v1H3zM4 86h1v1H4zM5 86h1v1H5zM6 86h1v1H6zM7 86h1v1H7zM8 86h1v1H8zM9 86h1v1H9zM10 86h1v1h-1zM11 86h1v1h-1zM0 87h1v1H0zM1 87h1v1H1zM2 87h1v1H2zM3 87h1v1H3zM4 87h1v1H4zM5 87h1v1H5zM6 87h1v1H6zM7 87h1v1H7zM8 87h1v1H8zM9 87h1v1H9zM0 88h1v1H0zM1 88h1v1H1zM2 88h1v1H2zM3 88h1v1H3zM4 88h1v1H4zM5 88h1v1H5zM6 88h1v1H6zM1 89h1v1H1zM2 89h1v1H2zM3 89h1v1H3zM4 89h1v1H4z"/></svg>