<svg baseProfile="full" height="90" width="84" xmlns="http://www.w3.org/2000/svg"><path fill="#65401F" d="M63 0h1v1h-1zM64 0h1v1h-1zM65 0h1v1h-1zM66 0h1v1h-1zM67 0h1v1h-1zM68 0h1v1h-1zM61 1h1v1h-1zM62 1h1v1h-1zM63 1h1v1h-1zM64 1h1v1h-1zM65 1h1v1h-1zM66 1h1v1h-1zM67 1h1v1h-1z"/><path fill="#5D3B1E" d="M68 1h1v1h-1z"/><path fill="#4F331C" d="M69 1h1v1h-1z"/><path fill="#65401F" d="M59 2h1v1h-1zM60 2h1v1h-1zM61 2h1v1h-1zM62 2h1v1h-1zM63 2h1v1h-1zM64 2h1v1h-1zM65 2h1v1h-1zM66 2h1v1h-1z"/><path fill="#50341C" d="M67 2h1v1h-1z"/><path fill="#231815" d="M68 2h1v1h-1zM69 2h1v1h-1zM70 2h1v1h-1z"/><path fill="#65401F" d="M57 3h1v1h-1zM58 3h1v1h-1zM59 3h1v1h-1zM60 3h1v1h-1zM61 3h1v1h-1zM62 3h1v1h-1zM63 3h1v1h-1z"/><path fill="#6D4923" d="M64 3h1v1h-1z"/><path fill="#8F6F33" d="M65 3h1v1h-1z"/><path fill="#977837" d="M66 3h1v1h-1z"/><path fill="#4C351E" d="M67 3h1v1h-1z"/><path fill="#231815" d="M68 3h1v1h-1zM69 3h1v1h-1zM70 3h1v1h-1zM71 3h1v1h-1z"/><path fill="#65401F" d="M55 4h1v1h-1zM56 4h1v1h-1zM57 4h1v1h-1zM58 4h1v1h-1zM59 4h1v1h-1zM60 4h1v1h-1zM61 4h1v1h-1z"/><path fill="#87652F" d="M62 4h1v1h-1z"/><path fill="#B99D48" d="M63 4h1v1h-1z"/><path fill="#EBD560" d="M64 4h1v1h-1zM65 4h1v1h-1zM66 4h1v1h-1z"/><path fill="#C6B252" d="M67 4h1v1h-1z"/><path fill="#231815" d="M68 4h1v1h-1zM69 4h1v1h-1zM70 4h1v1h-1zM71 4h1v1h-1z"/><path fill="#65401F" d="M54 5h1v1h-1zM55 5h1v1h-1zM56 5h1v1h-1zM57 5h1v1h-1zM58 5h1v1h-1zM59 5h1v1h-1z"/><path fill="#87652F" d="M60 5h1v1h-1z"/><path fill="#CAB050" d="M61 5h1v1h-1z"/><path fill="#EBD560" d="M62 5h1v1h-1zM63 5h1v1h-1zM64 5h1v1h-1zM65 5h1v1h-1zM66 5h1v1h-1zM67 5h1v1h-1z"/><path fill="#6E5F31" d="M68 5h1v1h-1z"/><path fill="#231815" d="M69 5h1v1h-1zM70 5h1v1h-1zM71 5h1v1h-1z"/><path fill="#65401F" d="M53 6h1v1h-1zM54 6h1v1h-1zM55 6h1v1h-1zM56 6h1v1h-1zM57 6h1v1h-1z"/><path fill="#6D4923" d="M58 6h1v1h-1z"/><path fill="#B99D48" d="M59 6h1v1h-1z"/><path fill="#EBD560" d="M60 6h1v1h-1zM61 6h1v1h-1zM62 6h1v1h-1zM63 6h1v1h-1zM64 6h1v1h-1zM65 6h1v1h-1zM66 6h1v1h-1zM67 6h1v1h-1z"/><path fill="#AD9A49" d="M68 6h1v1h-1z"/><path fill="#231815" d="M69 6h1v1h-1zM70 6h1v1h-1zM71 6h1v1h-1zM72 6h1v1h-1z"/><path fill="#65401F" d="M51 7h1v1h-1zM52 7h1v1h-1zM53 7h1v1h-1zM54 7h1v1h-1zM55 7h1v1h-1zM56 7h1v1h-1z"/><path fill="#8F6F33" d="M57 7h1v1h-1z"/><path fill="#E3CC5C" d="M58 7h1v1h-1z"/><path fill="#EBD560" d="M59 7h1v1h-1zM60 7h1v1h-1zM61 7h1v1h-1zM62 7h1v1h-1zM63 7h1v1h-1zM64 7h1v1h-1z"/><path fill="#ECD564" d="M65 7h1v1h-1z"/><path fill="#EED772" d="M66 7h1v1h-1z"/><path fill="#F0D97D" d="M67 7h1v1h-1z"/><path fill="#E3CD78" d="M68 7h1v1h-1z"/><path fill="#231815" d="M69 7h1v1h-1zM70 7h1v1h-1zM71 7h1v1h-1zM72 7h1v1h-1z"/><path fill="#65401F" d="M50 8h1v1h-1zM51 8h1v1h-1zM52 8h1v1h-1zM53 8h1v1h-1zM54 8h1v1h-1z"/><path fill="#6D4923" d="M55 8h1v1h-1z"/><path fill="#C1A64C" d="M56 8h1v1h-1z"/><path fill="#EBD560" d="M57 8h1v1h-1zM58 8h1v1h-1zM59 8h1v1h-1zM60 8h1v1h-1zM61 8h1v1h-1zM62 8h1v1h-1z"/><path fill="#ECD667" d="M63 8h1v1h-1z"/><path fill="#F1D984" d="M64 8h1v1h-1z"/><path fill="#F4DC9A" d="M65 8h1v1h-1zM66 8h1v1h-1zM67 8h1v1h-1zM68 8h1v1h-1z"/><path fill="#4A3D2E" d="M69 8h1v1h-1z"/><path fill="#231815" d="M70 8h1v1h-1zM71 8h1v1h-1zM72 8h1v1h-1z"/><path fill="#65401F" d="M49 9h1v1h-1zM50 9h1v1h-1zM51 9h1v1h-1zM52 9h1v1h-1zM53 9h1v1h-1z"/><path fill="#7E5C2B" d="M54 9h1v1h-1z"/><path fill="#DAC258" d="M55 9h1v1h-1z"/><path fill="#EBD560" d="M56 9h1v1h-1zM57 9h1v1h-1zM58 9h1v1h-1zM59 9h1v1h-1zM60 9h1v1h-1zM61 9h1v1h-1z"/><path fill="#F0D97D" d="M62 9h1v1h-1z"/><path fill="#F4DC9A" d="M63 9h1v1h-1zM64 9h1v1h-1zM65 9h1v1h-1zM66 9h1v1h-1zM67 9h1v1h-1zM68 9h1v1h-1z"/><path fill="#716247" d="M69 9h1v1h-1z"/><path fill="#231815" d="M70 9h1v1h-1zM71 9h1v1h-1zM72 9h1v1h-1z"/><path fill="#65401F" d="M48 10h1v1h-1zM49 10h1v1h-1zM50 10h1v1h-1zM51 10h1v1h-1zM52 10h1v1h-1z"/><path fill="#977837" d="M53 10h1v1h-1z"/><path fill="#E3CC5C" d="M54 10h1v1h-1z"/><path fill="#EBD560" d="M55 10h1v1h-1zM56 10h1v1h-1zM57 10h1v1h-1zM58 10h1v1h-1zM59 10h1v1h-1z"/><path fill="#ECD564" d="M60 10h1v1h-1z"/><path fill="#F2DB8F" d="M61 10h1v1h-1z"/><path fill="#F4DC9A" d="M62 10h1v1h-1zM63 10h1v1h-1zM64 10h1v1h-1zM65 10h1v1h-1zM66 10h1v1h-1zM67 10h1v1h-1zM68 10h1v1h-1z"/><path fill="#998660" d="M69 10h1v1h-1z"/><path fill="#231815" d="M70 10h1v1h-1zM71 10h1v1h-1zM72 10h1v1h-1z"/><path fill="#65401F" d="M47 11h1v1h-1zM48 11h1v1h-1zM49 11h1v1h-1zM50 11h1v1h-1zM51 11h1v1h-1z"/><path fill="#B09444" d="M52 11h1v1h-1z"/><path fill="#EBD560" d="M53 11h1v1h-1zM54 11h1v1h-1zM55 11h1v1h-1zM56 11h1v1h-1zM57 11h1v1h-1zM58 11h1v1h-1z"/><path fill="#EDD66B" d="M59 11h1v1h-1z"/><path fill="#F3DC96" d="M60 11h1v1h-1z"/><path fill="#F4DC9A" d="M61 11h1v1h-1zM62 11h1v1h-1zM63 11h1v1h-1zM64 11h1v1h-1zM65 11h1v1h-1zM66 11h1v1h-1zM67 11h1v1h-1zM68 11h1v1h-1z"/><path fill="#C0AB79" d="M69 11h1v1h-1z"/><path fill="#231815" d="M70 11h1v1h-1zM71 11h1v1h-1zM72 11h1v1h-1zM73 11h1v1h-1z"/><path fill="#65401F" d="M45 12h1v1h-1zM46 12h1v1h-1zM47 12h1v1h-1zM48 12h1v1h-1zM49 12h1v1h-1z"/><path fill="#6D4923" d="M50 12h1v1h-1z"/><path fill="#C1A64C" d="M51 12h1v1h-1z"/><path fill="#EBD560" d="M52 12h1v1h-1zM53 12h1v1h-1zM54 12h1v1h-1zM55 12h1v1h-1zM56 12h1v1h-1zM57 12h1v1h-1z"/><path fill="#EDD66B" d="M58 12h1v1h-1z"/><path fill="#F3DC96" d="M59 12h1v1h-1z"/><path fill="#F4DC9A" d="M60 12h1v1h-1zM61 12h1v1h-1zM62 12h1v1h-1zM63 12h1v1h-1zM64 12h1v1h-1zM65 12h1v1h-1z"/><path fill="#EFD58E" d="M66 12h1v1h-1z"/><path fill="#E2C570" d="M67 12h1v1h-1z"/><path fill="#D7B857" d="M68 12h1v1h-1z"/><path fill="#C7A849" d="M69 12h1v1h-1z"/><path fill="#231815" d="M70 12h1v1h-1zM71 12h1v1h-1zM72 12h1v1h-1zM73 12h1v1h-1z"/><path fill="#65401F" d="M44 13h1v1h-1zM45 13h1v1h-1zM46 13h1v1h-1zM47 13h1v1h-1zM48 13h1v1h-1z"/><path fill="#6D4923" d="M49 13h1v1h-1z"/><path fill="#D2B954" d="M50 13h1v1h-1z"/><path fill="#EBD560" d="M51 13h1v1h-1zM52 13h1v1h-1zM53 13h1v1h-1zM54 13h1v1h-1zM55 13h1v1h-1zM56 13h1v1h-1z"/><path fill="#EDD66B" d="M57 13h1v1h-1z"/><path fill="#F3DC96" d="M58 13h1v1h-1z"/><path fill="#F4DC9A" d="M59 13h1v1h-1zM60 13h1v1h-1zM61 13h1v1h-1zM62 13h1v1h-1zM63 13h1v1h-1z"/><path fill="#F1D994" d="M64 13h1v1h-1z"/><path fill="#DFC26A" d="M65 13h1v1h-1z"/><path fill="#CAA739" d="M66 13h1v1h-1zM67 13h1v1h-1zM68 13h1v1h-1zM69 13h1v1h-1z"/><path fill="#382A1A" d="M70 13h1v1h-1z"/><path fill="#231815" d="M71 13h1v1h-1zM72 13h1v1h-1zM73 13h1v1h-1z"/><path fill="#65401F" d="M43 14h1v1h-1zM44 14h1v1h-1zM45 14h1v1h-1zM46 14h1v1h-1zM47 14h1v1h-1z"/><path fill="#7E5C2B" d="M48 14h1v1h-1z"/><path fill="#D2B954" d="M49 14h1v1h-1z"/><path fill="#EBD560" d="M50 14h1v1h-1zM51 14h1v1h-1zM52 14h1v1h-1zM53 14h1v1h-1zM54 14h1v1h-1zM55 14h1v1h-1z"/><path fill="#EDD66B" d="M56 14h1v1h-1z"/><path fill="#F3DC96" d="M57 14h1v1h-1z"/><path fill="#F4DC9A" d="M58 14h1v1h-1zM59 14h1v1h-1zM60 14h1v1h-1zM61 14h1v1h-1zM62 14h1v1h-1z"/><path fill="#ECD288" d="M63 14h1v1h-1z"/><path fill="#CFAE45" d="M64 14h1v1h-1z"/><path fill="#CAA739" d="M65 14h1v1h-1zM66 14h1v1h-1zM67 14h1v1h-1zM68 14h1v1h-1zM69 14h1v1h-1z"/><path fill="#574520" d="M70 14h1v1h-1z"/><path fill="#231815" d="M71 14h1v1h-1zM72 14h1v1h-1zM73 14h1v1h-1z"/><path fill="#65401F" d="M42 15h1v1h-1zM43 15h1v1h-1zM44 15h1v1h-1zM45 15h1v1h-1zM46 15h1v1h-1z"/><path fill="#7E5C2B" d="M47 15h1v1h-1z"/><path fill="#E3CC5C" d="M48 15h1v1h-1z"/><path fill="#EBD560" d="M49 15h1v1h-1zM50 15h1v1h-1zM51 15h1v1h-1zM52 15h1v1h-1zM53 15h1v1h-1zM54 15h1v1h-1z"/><path fill="#ECD667" d="M55 15h1v1h-1z"/><path fill="#F3DC96" d="M56 15h1v1h-1z"/><path fill="#F4DC9A" d="M57 15h1v1h-1zM58 15h1v1h-1zM59 15h1v1h-1zM60 15h1v1h-1zM61 15h1v1h-1z"/><path fill="#E4C876" d="M62 15h1v1h-1z"/><path fill="#CAA739" d="M63 15h1v1h-1zM64 15h1v1h-1zM65 15h1v1h-1zM66 15h1v1h-1zM67 15h1v1h-1zM68 15h1v1h-1zM69 15h1v1h-1z"/><path fill="#816829" d="M70 15h1v1h-1z"/><path fill="#231815" d="M71 15h1v1h-1zM72 15h1v1h-1zM73 15h1v1h-1z"/><path fill="#65401F" d="M41 16h1v1h-1zM42 16h1v1h-1zM43 16h1v1h-1zM44 16h1v1h-1zM45 16h1v1h-1z"/><path fill="#7E5C2B" d="M46 16h1v1h-1z"/><path fill="#E3CC5C" d="M47 16h1v1h-1z"/><path fill="#EBD560" d="M48 16h1v1h-1zM49 16h1v1h-1zM50 16h1v1h-1zM51 16h1v1h-1zM52 16h1v1h-1zM53 16h1v1h-1z"/><path fill="#ECD564" d="M54 16h1v1h-1z"/><path fill="#F2DB8F" d="M55 16h1v1h-1z"/><path fill="#F4DC9A" d="M56 16h1v1h-1zM57 16h1v1h-1zM58 16h1v1h-1zM59 16h1v1h-1zM60 16h1v1h-1z"/><path fill="#E4C876" d="M61 16h1v1h-1z"/><path fill="#CAA739" d="M62 16h1v1h-1zM63 16h1v1h-1zM64 16h1v1h-1zM65 16h1v1h-1zM66 16h1v1h-1zM67 16h1v1h-1zM68 16h1v1h-1zM69 16h1v1h-1z"/><path fill="#AB8C32" d="M70 16h1v1h-1z"/><path fill="#231815" d="M71 16h1v1h-1zM72 16h1v1h-1zM73 16h1v1h-1zM74 16h1v1h-1z"/><path fill="#65401F" d="M40 17h1v1h-1zM41 17h1v1h-1zM42 17h1v1h-1zM43 17h1v1h-1zM44 17h1v1h-1z"/><path fill="#7E5C2B" d="M45 17h1v1h-1z"/><path fill="#E3CC5C" d="M46 17h1v1h-1z"/><path fill="#EBD560" d="M47 17h1v1h-1zM48 17h1v1h-1zM49 17h1v1h-1zM50 17h1v1h-1zM51 17h1v1h-1zM52 17h1v1h-1zM53 17h1v1h-1z"/><path fill="#F1D984" d="M54 17h1v1h-1z"/><path fill="#F4DC9A" d="M55 17h1v1h-1zM56 17h1v1h-1zM57 17h1v1h-1zM58 17h1v1h-1zM59 17h1v1h-1z"/><path fill="#E2C570" d="M60 17h1v1h-1z"/><path fill="#CAA739" d="M61 17h1v1h-1zM62 17h1v1h-1zM63 17h1v1h-1zM64 17h1v1h-1zM65 17h1v1h-1zM66 17h1v1h-1zM67 17h1v1h-1zM68 17h1v1h-1zM69 17h1v1h-1zM70 17h1v1h-1z"/><path fill="#382A1A" d="M71 17h1v1h-1z"/><path fill="#231815" d="M72 17h1v1h-1zM73 17h1v1h-1zM74 17h1v1h-1z"/><path fill="#65401F" d="M39 18h1v1h-1zM40 18h1v1h-1zM41 18h1v1h-1zM42 18h1v1h-1zM43 18h1v1h-1z"/><path fill="#7E5C2B" d="M44 18h1v1h-1z"/><path fill="#E3CC5C" d="M45 18h1v1h-1z"/><path fill="#EBD560" d="M46 18h1v1h-1zM47 18h1v1h-1zM48 18h1v1h-1zM49 18h1v1h-1zM50 18h1v1h-1zM51 18h1v1h-1zM52 18h1v1h-1z"/><path fill="#EFD879" d="M53 18h1v1h-1z"/><path fill="#F4DC9A" d="M54 18h1v1h-1zM55 18h1v1h-1zM56 18h1v1h-1zM57 18h1v1h-1zM58 18h1v1h-1z"/><path fill="#E4C876" d="M59 18h1v1h-1z"/><path fill="#CAA739" d="M60 18h1v1h-1zM61 18h1v1h-1zM62 18h1v1h-1zM63 18h1v1h-1zM64 18h1v1h-1zM65 18h1v1h-1zM66 18h1v1h-1zM67 18h1v1h-1zM68 18h1v1h-1zM69 18h1v1h-1zM70 18h1v1h-1z"/><path fill="#816829" d="M71 18h1v1h-1z"/><path fill="#231815" d="M72 18h1v1h-1zM73 18h1v1h-1zM74 18h1v1h-1zM75 18h1v1h-1z"/><path fill="#65401F" d="M38 19h1v1h-1zM39 19h1v1h-1zM40 19h1v1h-1zM41 19h1v1h-1zM42 19h1v1h-1z"/><path fill="#7E5C2B" d="M43 19h1v1h-1z"/><path fill="#E3CC5C" d="M44 19h1v1h-1z"/><path fill="#EBD560" d="M45 19h1v1h-1zM46 19h1v1h-1zM47 19h1v1h-1zM48 19h1v1h-1zM49 19h1v1h-1zM50 19h1v1h-1zM51 19h1v1h-1z"/><path fill="#EDD66B" d="M52 19h1v1h-1z"/><path fill="#F4DC9A" d="M53 19h1v1h-1zM54 19h1v1h-1zM55 19h1v1h-1zM56 19h1v1h-1zM57 19h1v1h-1z"/><path fill="#E4C876" d="M58 19h1v1h-1z"/><path fill="#CAA739" d="M59 19h1v1h-1zM60 19h1v1h-1zM61 19h1v1h-1zM62 19h1v1h-1zM63 19h1v1h-1zM64 19h1v1h-1zM65 19h1v1h-1zM66 19h1v1h-1zM67 19h1v1h-1zM68 19h1v1h-1zM69 19h1v1h-1zM70 19h1v1h-1zM71 19h1v1h-1z"/><path fill="#382A1A" d="M72 19h1v1h-1z"/><path fill="#231815" d="M73 19h1v1h-1zM74 19h1v1h-1zM75 19h1v1h-1zM76 19h1v1h-1z"/><path fill="#65401F" d="M37 20h1v1h-1zM38 20h1v1h-1zM39 20h1v1h-1zM40 20h1v1h-1zM41 20h1v1h-1z"/><path fill="#7E5C2B" d="M42 20h1v1h-1z"/><path fill="#E3CC5C" d="M43 20h1v1h-1z"/><path fill="#EBD560" d="M44 20h1v1h-1zM45 20h1v1h-1zM46 20h1v1h-1zM47 20h1v1h-1zM48 20h1v1h-1zM49 20h1v1h-1zM50 20h1v1h-1zM51 20h1v1h-1z"/><path fill="#F2DB8F" d="M52 20h1v1h-1z"/><path fill="#F4DC9A" d="M53 20h1v1h-1zM54 20h1v1h-1zM55 20h1v1h-1zM56 20h1v1h-1z"/><path fill="#ECD288" d="M57 20h1v1h-1z"/><path fill="#CDAA3F" d="M58 20h1v1h-1z"/><path fill="#CAA739" d="M59 20h1v1h-1zM60 20h1v1h-1zM61 20h1v1h-1zM62 20h1v1h-1zM63 20h1v1h-1zM64 20h1v1h-1zM65 20h1v1h-1zM66 20h1v1h-1zM67 20h1v1h-1zM68 20h1v1h-1zM69 20h1v1h-1zM70 20h1v1h-1zM71 20h1v1h-1z"/><path fill="#AB8C32" d="M72 20h1v1h-1z"/><path fill="#2D2117" d="M73 20h1v1h-1z"/><path fill="#231815" d="M74 20h1v1h-1zM75 20h1v1h-1zM76 20h1v1h-1zM77 20h1v1h-1z"/><path fill="#65401F" d="M37 21h1v1h-1zM38 21h1v1h-1zM39 21h1v1h-1zM40 21h1v1h-1z"/><path fill="#7E5C2B" d="M41 21h1v1h-1z"/><path fill="#E3CC5C" d="M42 21h1v1h-1z"/><path fill="#EBD560" d="M43 21h1v1h-1zM44 21h1v1h-1zM45 21h1v1h-1zM46 21h1v1h-1zM47 21h1v1h-1zM48 21h1v1h-1zM49 21h1v1h-1zM50 21h1v1h-1z"/><path fill="#F0D97D" d="M51 21h1v1h-1z"/><path fill="#F4DC9A" d="M52 21h1v1h-1zM53 21h1v1h-1zM54 21h1v1h-1zM55 21h1v1h-1z"/><path fill="#F1D994" d="M56 21h1v1h-1z"/><path fill="#CFAE45" d="M57 21h1v1h-1z"/><path fill="#CAA739" d="M58 21h1v1h-1zM59 21h1v1h-1zM60 21h1v1h-1zM61 21h1v1h-1zM62 21h1v1h-1zM63 21h1v1h-1zM64 21h1v1h-1zM65 21h1v1h-1zM66 21h1v1h-1zM67 21h1v1h-1zM68 21h1v1h-1zM69 21h1v1h-1zM70 21h1v1h-1zM71 21h1v1h-1zM72 21h1v1h-1z"/><path fill="#AB8C32" d="M73 21h1v1h-1z"/><path fill="#2D2117" d="M74 21h1v1h-1z"/><path fill="#231815" d="M75 21h1v1h-1zM76 21h1v1h-1zM77 21h1v1h-1zM78 21h1v1h-1z"/><path fill="#65401F" d="M36 22h1v1h-1zM37 22h1v1h-1zM38 22h1v1h-1zM39 22h1v1h-1z"/><path fill="#7E5C2B" d="M40 22h1v1h-1z"/><path fill="#E3CC5C" d="M41 22h1v1h-1z"/><path fill="#EBD560" d="M42 22h1v1h-1zM43 22h1v1h-1zM44 22h1v1h-1zM45 22h1v1h-1zM46 22h1v1h-1zM47 22h1v1h-1zM48 22h1v1h-1zM49 22h1v1h-1z"/><path fill="#ECD667" d="M50 22h1v1h-1z"/><path fill="#F4DC9A" d="M51 22h1v1h-1zM52 22h1v1h-1zM53 22h1v1h-1zM54 22h1v1h-1zM55 22h1v1h-1z"/><path fill="#D7B857" d="M56 22h1v1h-1z"/><path fill="#CAA739" d="M57 22h1v1h-1zM58 22h1v1h-1zM59 22h1v1h-1zM60 22h1v1h-1zM61 22h1v1h-1zM62 22h1v1h-1zM63 22h1v1h-1zM64 22h1v1h-1zM65 22h1v1h-1zM66 22h1v1h-1zM67 22h1v1h-1zM68 22h1v1h-1zM69 22h1v1h-1zM70 22h1v1h-1zM71 22h1v1h-1zM72 22h1v1h-1zM73 22h1v1h-1z"/><path fill="#AB8C32" d="M74 22h1v1h-1z"/><path fill="#231815" d="M75 22h1v1h-1zM76 22h1v1h-1zM77 22h1v1h-1zM78 22h1v1h-1zM79 22h1v1h-1z"/><path fill="#65401F" d="M35 23h1v1h-1zM36 23h1v1h-1zM37 23h1v1h-1zM38 23h1v1h-1z"/><path fill="#765327" d="M39 23h1v1h-1z"/><path fill="#E3CC5C" d="M40 23h1v1h-1z"/><path fill="#EBD560" d="M41 23h1v1h-1zM42 23h1v1h-1zM43 23h1v1h-1zM44 23h1v1h-1zM45 23h1v1h-1zM46 23h1v1h-1zM47 23h1v1h-1zM48 23h1v1h-1zM49 23h1v1h-1z"/><path fill="#F2DA8C" d="M50 23h1v1h-1z"/><path fill="#F4DC9A" d="M51 23h1v1h-1zM52 23h1v1h-1zM53 23h1v1h-1zM54 23h1v1h-1z"/><path fill="#E7CB7C" d="M55 23h1v1h-1z"/><path fill="#CAA739" d="M56 23h1v1h-1zM57 23h1v1h-1zM58 23h1v1h-1zM59 23h1v1h-1zM60 23h1v1h-1zM61 23h1v1h-1zM62 23h1v1h-1zM63 23h1v1h-1zM64 23h1v1h-1zM65 23h1v1h-1zM66 23h1v1h-1zM67 23h1v1h-1zM68 23h1v1h-1zM69 23h1v1h-1zM70 23h1v1h-1zM71 23h1v1h-1zM72 23h1v1h-1zM73 23h1v1h-1z"/><path fill="#CCAA3B" d="M74 23h1v1h-1z"/><path fill="#947D35" d="M75 23h1v1h-1z"/><path fill="#231815" d="M76 23h1v1h-1zM77 23h1v1h-1zM78 23h1v1h-1zM79 23h1v1h-1zM80 23h1v1h-1z"/><path fill="#65401F" d="M34 24h1v1h-1zM35 24h1v1h-1zM36 24h1v1h-1zM37 24h1v1h-1z"/><path fill="#6E4B29" d="M38 24h1v1h-1z"/><path fill="#D8C785" d="M39 24h1v1h-1z"/><path fill="#EBD560" d="M40 24h1v1h-1zM41 24h1v1h-1zM42 24h1v1h-1zM43 24h1v1h-1zM44 24h1v1h-1zM45 24h1v1h-1zM46 24h1v1h-1zM47 24h1v1h-1zM48 24h1v1h-1z"/><path fill="#EED772" d="M49 24h1v1h-1z"/><path fill="#F4DC9A" d="M50 24h1v1h-1zM51 24h1v1h-1zM52 24h1v1h-1zM53 24h1v1h-1z"/><path fill="#F1D994" d="M54 24h1v1h-1z"/><path fill="#CDAA3F" d="M55 24h1v1h-1z"/><path fill="#CAA739" d="M56 24h1v1h-1zM57 24h1v1h-1zM58 24h1v1h-1zM59 24h1v1h-1zM60 24h1v1h-1zM61 24h1v1h-1zM62 24h1v1h-1zM63 24h1v1h-1zM64 24h1v1h-1zM65 24h1v1h-1zM66 24h1v1h-1zM67 24h1v1h-1zM68 24h1v1h-1zM69 24h1v1h-1zM70 24h1v1h-1z"/><path fill="#D4B545" d="M71 24h1v1h-1z"/><path fill="#DDC14F" d="M72 24h1v1h-1z"/><path fill="#E5CC59" d="M73 24h1v1h-1z"/><path fill="#EBD560" d="M74 24h1v1h-1zM75 24h1v1h-1z"/><path fill="#7B6B36" d="M76 24h1v1h-1z"/><path fill="#231815" d="M77 24h1v1h-1zM78 24h1v1h-1zM79 24h1v1h-1zM80 24h1v1h-1z"/><path fill="#65401F" d="M33 25h1v1h-1zM34 25h1v1h-1zM35 25h1v1h-1zM36 25h1v1h-1z"/><path fill="#6E4B29" d="M37 25h1v1h-1z"/><path fill="#DACD9B" d="M38 25h1v1h-1z"/><path fill="#EFDE81" d="M39 25h1v1h-1z"/><path fill="#EBD560" d="M40 25h1v1h-1zM41 25h1v1h-1zM42 25h1v1h-1zM43 25h1v1h-1zM44 25h1v1h-1zM45 25h1v1h-1zM46 25h1v1h-1zM47 25h1v1h-1zM48 25h1v1h-1z"/><path fill="#F3DB93" d="M49 25h1v1h-1z"/><path fill="#F4DC9A" d="M50 25h1v1h-1zM51 25h1v1h-1zM52 25h1v1h-1zM53 25h1v1h-1z"/><path fill="#DABB5D" d="M54 25h1v1h-1z"/><path fill="#CAA739" d="M55 25h1v1h-1zM56 25h1v1h-1zM57 25h1v1h-1zM58 25h1v1h-1zM59 25h1v1h-1zM60 25h1v1h-1zM61 25h1v1h-1zM62 25h1v1h-1zM63 25h1v1h-1zM64 25h1v1h-1zM65 25h1v1h-1zM66 25h1v1h-1zM67 25h1v1h-1z"/><path fill="#D4B545" d="M68 25h1v1h-1z"/><path fill="#DFC451" d="M69 25h1v1h-1z"/><path fill="#E9D25E" d="M70 25h1v1h-1z"/><path fill="#EBD560" d="M71 25h1v1h-1zM72 25h1v1h-1zM73 25h1v1h-1zM74 25h1v1h-1zM75 25h1v1h-1zM76 25h1v1h-1z"/><path fill="#493B23" d="M77 25h1v1h-1z"/><path fill="#231815" d="M78 25h1v1h-1zM79 25h1v1h-1zM80 25h1v1h-1zM81 25h1v1h-1z"/><path fill="#65401F" d="M32 26h1v1h-1zM33 26h1v1h-1zM34 26h1v1h-1zM35 26h1v1h-1zM36 26h1v1h-1z"/><path fill="#D1C392" d="M37 26h1v1h-1z"/><path fill="#F4EBAD" d="M38 26h1v1h-1z"/><path fill="#EBD560" d="M39 26h1v1h-1zM40 26h1v1h-1zM41 26h1v1h-1zM42 26h1v1h-1zM43 26h1v1h-1zM44 26h1v1h-1zM45 26h1v1h-1zM46 26h1v1h-1zM47 26h1v1h-1z"/><path fill="#EED876" d="M48 26h1v1h-1z"/><path fill="#F4DC9A" d="M49 26h1v1h-1zM50 26h1v1h-1zM51 26h1v1h-1zM52 26h1v1h-1z"/><path fill="#EACF82" d="M53 26h1v1h-1z"/><path fill="#CAA739" d="M54 26h1v1h-1zM55 26h1v1h-1zM56 26h1v1h-1zM57 26h1v1h-1zM58 26h1v1h-1zM59 26h1v1h-1zM60 26h1v1h-1zM61 26h1v1h-1zM62 26h1v1h-1zM63 26h1v1h-1zM64 26h1v1h-1z"/><path fill="#CCAA3B" d="M65 26h1v1h-1z"/><path fill="#DBBE4D" d="M66 26h1v1h-1z"/><path fill="#E7CF5B" d="M67 26h1v1h-1z"/><path fill="#EBD560" d="M68 26h1v1h-1zM69 26h1v1h-1zM70 26h1v1h-1zM71 26h1v1h-1zM72 26h1v1h-1zM73 26h1v1h-1z"/><path fill="#EDD66B" d="M74 26h1v1h-1z"/><path fill="#F0D97D" d="M75 26h1v1h-1z"/><path fill="#F2DA8C" d="M76 26h1v1h-1z"/><path fill="#CCB67A" d="M77 26h1v1h-1z"/><path fill="#231815" d="M78 26h1v1h-1zM79 26h1v1h-1zM80 26h1v1h-1zM81 26h1v1h-1z"/><path fill="#65401F" d="M31 27h1v1h-1zM32 27h1v1h-1zM33 27h1v1h-1zM34 27h1v1h-1zM35 27h1v1h-1z"/><path fill="#BFAD7F" d="M36 27h1v1h-1z"/><path fill="#F5EEB8" d="M37 27h1v1h-1z"/><path fill="#EEDD7C" d="M38 27h1v1h-1z"/><path fill="#EBD560" d="M39 27h1v1h-1zM40 27h1v1h-1zM41 27h1v1h-1zM42 27h1v1h-1zM43 27h1v1h-1zM44 27h1v1h-1zM45 27h1v1h-1zM46 27h1v1h-1zM47 27h1v1h-1z"/><path fill="#F3DB93" d="M48 27h1v1h-1z"/><path fill="#F4DC9A" d="M49 27h1v1h-1zM50 27h1v1h-1zM51 27h1v1h-1zM52 27h1v1h-1z"/><path fill="#D5B451" d="M53 27h1v1h-1z"/><path fill="#CAA739" d="M54 27h1v1h-1zM55 27h1v1h-1zM56 27h1v1h-1zM57 27h1v1h-1zM58 27h1v1h-1zM59 27h1v1h-1zM60 27h1v1h-1zM61 27h1v1h-1zM62 27h1v1h-1z"/><path fill="#CEAD3E" d="M63 27h1v1h-1z"/><path fill="#DFC451" d="M64 27h1v1h-1z"/><path fill="#EBD560" d="M65 27h1v1h-1zM66 27h1v1h-1zM67 27h1v1h-1zM68 27h1v1h-1zM69 27h1v1h-1zM70 27h1v1h-1z"/><path fill="#ECD564" d="M71 27h1v1h-1z"/><path fill="#EFD879" d="M72 27h1v1h-1z"/><path fill="#F3DB93" d="M73 27h1v1h-1z"/><path fill="#F4DC9A" d="M74 27h1v1h-1zM75 27h1v1h-1zM76 27h1v1h-1zM77 27h1v1h-1z"/><path fill="#8C7A58" d="M78 27h1v1h-1z"/><path fill="#231815" d="M79 27h1v1h-1zM80 27h1v1h-1zM81 27h1v1h-1zM82 27h1v1h-1z"/><path fill="#65401F" d="M30 28h1v1h-1zM31 28h1v1h-1zM32 28h1v1h-1zM33 28h1v1h-1zM34 28h1v1h-1z"/><path fill="#B6A275" d="M35 28h1v1h-1z"/><path fill="#F5EEB8" d="M36 28h1v1h-1z"/><path fill="#F3E8A2" d="M37 28h1v1h-1z"/><path fill="#EBD560" d="M38 28h1v1h-1zM39 28h1v1h-1zM40 28h1v1h-1zM41 28h1v1h-1zM42 28h1v1h-1zM43 28h1v1h-1zM44 28h1v1h-1zM45 28h1v1h-1zM46 28h1v1h-1z"/><path fill="#EED876" d="M47 28h1v1h-1z"/><path fill="#F4DC9A" d="M48 28h1v1h-1zM49 28h1v1h-1zM50 28h1v1h-1zM51 28h1v1h-1z"/><path fill="#EACF82" d="M52 28h1v1h-1z"/><path fill="#CAA739" d="M53 28h1v1h-1zM54 28h1v1h-1zM55 28h1v1h-1zM56 28h1v1h-1zM57 28h1v1h-1zM58 28h1v1h-1zM59 28h1v1h-1zM60 28h1v1h-1z"/><path fill="#CEAD3E" d="M61 28h1v1h-1z"/><path fill="#DFC451" d="M62 28h1v1h-1z"/><path fill="#EBD560" d="M63 28h1v1h-1zM64 28h1v1h-1zM65 28h1v1h-1zM66 28h1v1h-1zM67 28h1v1h-1zM68 28h1v1h-1z"/><path fill="#ECD667" d="M69 28h1v1h-1z"/><path fill="#F1D984" d="M70 28h1v1h-1z"/><path fill="#F3DC96" d="M71 28h1v1h-1z"/><path fill="#F4DC9A" d="M72 28h1v1h-1zM73 28h1v1h-1zM74 28h1v1h-1zM75 28h1v1h-1zM76 28h1v1h-1zM77 28h1v1h-1z"/><path fill="#E7D092" d="M78 28h1v1h-1z"/><path fill="#3D3126" d="M79 28h1v1h-1z"/><path fill="#231815" d="M80 28h1v1h-1zM81 28h1v1h-1zM82 28h1v1h-1z"/><path fill="#65401F" d="M30 29h1v1h-1zM31 29h1v1h-1zM32 29h1v1h-1zM33 29h1v1h-1z"/><path fill="#9B8158" d="M34 29h1v1h-1z"/><path fill="#F5EEB8" d="M35 29h1v1h-1zM36 29h1v1h-1z"/><path fill="#ECD86B" d="M37 29h1v1h-1z"/><path fill="#EBD560" d="M38 29h1v1h-1zM39 29h1v1h-1zM40 29h1v1h-1zM41 29h1v1h-1zM42 29h1v1h-1zM43 29h1v1h-1zM44 29h1v1h-1zM45 29h1v1h-1zM46 29h1v1h-1z"/><path fill="#F2DA8C" d="M47 29h1v1h-1z"/><path fill="#F4DC9A" d="M48 29h1v1h-1zM49 29h1v1h-1zM50 29h1v1h-1zM51 29h1v1h-1z"/><path fill="#DABB5D" d="M52 29h1v1h-1z"/><path fill="#CAA739" d="M53 29h1v1h-1zM54 29h1v1h-1zM55 29h1v1h-1zM56 29h1v1h-1zM57 29h1v1h-1zM58 29h1v1h-1z"/><path fill="#CEAD3E" d="M59 29h1v1h-1z"/><path fill="#DFC451" d="M60 29h1v1h-1z"/><path fill="#EBD560" d="M61 29h1v1h-1zM62 29h1v1h-1zM63 29h1v1h-1zM64 29h1v1h-1zM65 29h1v1h-1zM66 29h1v1h-1z"/><path fill="#ECD564" d="M67 29h1v1h-1z"/><path fill="#F0D981" d="M68 29h1v1h-1z"/><path fill="#F4DC9A" d="M69 29h1v1h-1zM70 29h1v1h-1zM71 29h1v1h-1zM72 29h1v1h-1zM73 29h1v1h-1zM74 29h1v1h-1zM75 29h1v1h-1zM76 29h1v1h-1z"/><path fill="#F4DFA0" d="M77 29h1v1h-1z"/><path fill="#F5E6AB" d="M78 29h1v1h-1z"/><path fill="#A69C77" d="M79 29h1v1h-1z"/><path fill="#231815" d="M80 29h1v1h-1zM81 29h1v1h-1zM82 29h1v1h-1zM83 29h1v1h-1z"/><path fill="#65401F" d="M29 30h1v1h-1zM30 30h1v1h-1zM31 30h1v1h-1zM32 30h1v1h-1z"/><path fill="#896C45" d="M33 30h1v1h-1z"/><path fill="#F5EEB8" d="M34 30h1v1h-1zM35 30h1v1h-1z"/><path fill="#F0E28C" d="M36 30h1v1h-1z"/><path fill="#EBD560" d="M37 30h1v1h-1zM38 30h1v1h-1zM39 30h1v1h-1zM40 30h1v1h-1zM41 30h1v1h-1zM42 30h1v1h-1zM43 30h1v1h-1zM44 30h1v1h-1zM45 30h1v1h-1z"/><path fill="#ECD667" d="M46 30h1v1h-1z"/><path fill="#F4DC9A" d="M47 30h1v1h-1zM48 30h1v1h-1zM49 30h1v1h-1zM50 30h1v1h-1zM51 30h1v1h-1z"/><path fill="#CAA739" d="M52 30h1v1h-1zM53 30h1v1h-1zM54 30h1v1h-1zM55 30h1v1h-1zM56 30h1v1h-1z"/><path fill="#CEAD3E" d="M57 30h1v1h-1z"/><path fill="#DFC451" d="M58 30h1v1h-1z"/><path fill="#EBD560" d="M59 30h1v1h-1zM60 30h1v1h-1zM61 30h1v1h-1zM62 30h1v1h-1zM63 30h1v1h-1zM64 30h1v1h-1zM65 30h1v1h-1z"/><path fill="#F0D97D" d="M66 30h1v1h-1z"/><path fill="#F3DC96" d="M67 30h1v1h-1z"/><path fill="#F4DC9A" d="M68 30h1v1h-1zM69 30h1v1h-1zM70 30h1v1h-1zM71 30h1v1h-1zM72 30h1v1h-1zM73 30h1v1h-1z"/><path fill="#F4DD9C" d="M74 30h1v1h-1z"/><path fill="#F4E4A7" d="M75 30h1v1h-1z"/><path fill="#F5ECB4" d="M76 30h1v1h-1z"/><path fill="#F5EEB8" d="M77 30h1v1h-1zM78 30h1v1h-1z"/><path fill="#E8E1AE" d="M79 30h1v1h-1z"/><path fill="#30251F" d="M80 30h1v1h-1z"/><path fill="#231815" d="M81 30h1v1h-1zM82 30h1v1h-1zM83 30h1v1h-1z"/><path fill="#65401F" d="M28 31h1v1h-1zM29 31h1v1h-1zM30 31h1v1h-1zM31 31h1v1h-1z"/><path fill="#80613C" d="M32 31h1v1h-1z"/><path fill="#ECE3AE" d="M33 31h1v1h-1z"/><path fill="#F5EEB8" d="M34 31h1v1h-1z"/><path fill="#F3E9A8" d="M35 31h1v1h-1z"/><path fill="#EBD560" d="M36 31h1v1h-1zM37 31h1v1h-1zM38 31h1v1h-1zM39 31h1v1h-1zM40 31h1v1h-1zM41 31h1v1h-1zM42 31h1v1h-1zM43 31h1v1h-1zM44 31h1v1h-1zM45 31h1v1h-1z"/><path fill="#EFD879" d="M46 31h1v1h-1z"/><path fill="#F4DC9A" d="M47 31h1v1h-1zM48 31h1v1h-1zM49 31h1v1h-1zM50 31h1v1h-1z"/><path fill="#EACF82" d="M51 31h1v1h-1z"/><path fill="#CAA739" d="M52 31h1v1h-1zM53 31h1v1h-1zM54 31h1v1h-1z"/><path fill="#CCAA3B" d="M55 31h1v1h-1z"/><path fill="#DDC14F" d="M56 31h1v1h-1z"/><path fill="#EBD560" d="M57 31h1v1h-1zM58 31h1v1h-1zM59 31h1v1h-1zM60 31h1v1h-1zM61 31h1v1h-1zM62 31h1v1h-1zM63 31h1v1h-1z"/><path fill="#EED772" d="M64 31h1v1h-1z"/><path fill="#F3DB93" d="M65 31h1v1h-1z"/><path fill="#F4DC9A" d="M66 31h1v1h-1zM67 31h1v1h-1zM68 31h1v1h-1zM69 31h1v1h-1zM70 31h1v1h-1zM71 31h1v1h-1z"/><path fill="#F4DE9E" d="M72 31h1v1h-1z"/><path fill="#F5E7AD" d="M73 31h1v1h-1z"/><path fill="#F5EDB6" d="M74 31h1v1h-1z"/><path fill="#F5EEB8" d="M75 31h1v1h-1zM76 31h1v1h-1zM77 31h1v1h-1zM78 31h1v1h-1zM79 31h1v1h-1z"/><path fill="#726852" d="M80 31h1v1h-1z"/><path fill="#231815" d="M81 31h1v1h-1zM82 31h1v1h-1zM83 31h1v1h-1z"/><path fill="#65401F" d="M27 32h1v1h-1zM28 32h1v1h-1zM29 32h1v1h-1zM30 32h1v1h-1z"/><path fill="#6E4B29" d="M31 32h1v1h-1z"/><path fill="#E3D8A5" d="M32 32h1v1h-1z"/><path fill="#F5EEB8" d="M33 32h1v1h-1zM34 32h1v1h-1z"/><path fill="#EDDA71" d="M35 32h1v1h-1z"/><path fill="#EBD560" d="M36 32h1v1h-1zM37 32h1v1h-1zM38 32h1v1h-1zM39 32h1v1h-1zM40 32h1v1h-1zM41 32h1v1h-1zM42 32h1v1h-1zM43 32h1v1h-1zM44 32h1v1h-1zM45 32h1v1h-1z"/><path fill="#F2DA8C" d="M46 32h1v1h-1z"/><path fill="#F4DC9A" d="M47 32h1v1h-1zM48 32h1v1h-1zM49 32h1v1h-1zM50 32h1v1h-1z"/><path fill="#EACF82" d="M51 32h1v1h-1z"/><path fill="#CAA739" d="M52 32h1v1h-1z"/><path fill="#CCAA3B" d="M53 32h1v1h-1z"/><path fill="#DBBE4D" d="M54 32h1v1h-1z"/><path fill="#E9D25E" d="M55 32h1v1h-1z"/><path fill="#EBD560" d="M56 32h1v1h-1zM57 32h1v1h-1zM58 32h1v1h-1zM59 32h1v1h-1zM60 32h1v1h-1zM61 32h1v1h-1z"/><path fill="#ECD667" d="M62 32h1v1h-1z"/><path fill="#F2DA8C" d="M63 32h1v1h-1z"/><path fill="#F4DC9A" d="M64 32h1v1h-1zM65 32h1v1h-1zM66 32h1v1h-1zM67 32h1v1h-1zM68 32h1v1h-1zM69 32h1v1h-1z"/><path fill="#F4E1A2" d="M70 32h1v1h-1z"/><path fill="#F5E7AD" d="M71 32h1v1h-1z"/><path fill="#F5EEB8" d="M72 32h1v1h-1zM73 32h1v1h-1zM74 32h1v1h-1zM75 32h1v1h-1zM76 32h1v1h-1zM77 32h1v1h-1zM78 32h1v1h-1zM79 32h1v1h-1z"/><path fill="#A69E7B" d="M80 32h1v1h-1z"/><path fill="#231815" d="M81 32h1v1h-1zM82 32h1v1h-1zM83 32h1v1h-1z"/><path fill="#65401F" d="M26 33h1v1h-1zM27 33h1v1h-1zM28 33h1v1h-1zM29 33h1v1h-1zM30 33h1v1h-1z"/><path fill="#DACD9B" d="M31 33h1v1h-1z"/><path fill="#F5EEB8" d="M32 33h1v1h-1zM33 33h1v1h-1z"/><path fill="#F0E28C" d="M34 33h1v1h-1z"/><path fill="#EBD560" d="M35 33h1v1h-1zM36 33h1v1h-1zM37 33h1v1h-1zM38 33h1v1h-1zM39 33h1v1h-1zM40 33h1v1h-1zM41 33h1v1h-1zM42 33h1v1h-1zM43 33h1v1h-1zM44 33h1v1h-1zM45 33h1v1h-1z"/><path fill="#F4DC9A" d="M46 33h1v1h-1zM47 33h1v1h-1zM48 33h1v1h-1zM49 33h1v1h-1zM50 33h1v1h-1z"/><path fill="#EBD378" d="M51 33h1v1h-1z"/><path fill="#DFC451" d="M52 33h1v1h-1z"/><path fill="#E9D25E" d="M53 33h1v1h-1z"/><path fill="#EBD560" d="M54 33h1v1h-1zM55 33h1v1h-1zM56 33h1v1h-1zM57 33h1v1h-1zM58 33h1v1h-1zM59 33h1v1h-1zM60 33h1v1h-1z"/><path fill="#F0D97D" d="M61 33h1v1h-1z"/><path fill="#F3DC96" d="M62 33h1v1h-1z"/><path fill="#F4DC9A" d="M63 33h1v1h-1zM64 33h1v1h-1zM65 33h1v1h-1zM66 33h1v1h-1zM67 33h1v1h-1z"/><path fill="#F4E1A2" d="M68 33h1v1h-1z"/><path fill="#F5EAB1" d="M69 33h1v1h-1z"/><path fill="#F5EEB8" d="M70 33h1v1h-1zM71 33h1v1h-1zM72 33h1v1h-1zM73 33h1v1h-1zM74 33h1v1h-1zM75 33h1v1h-1zM76 33h1v1h-1zM77 33h1v1h-1zM78 33h1v1h-1zM79 33h1v1h-1z"/><path fill="#C1B98F" d="M80 33h1v1h-1z"/><path fill="#231815" d="M81 33h1v1h-1zM82 33h1v1h-1zM83 33h1v1h-1z"/><path fill="#65401F" d="M25 34h1v1h-1zM26 34h1v1h-1zM27 34h1v1h-1zM28 34h1v1h-1zM29 34h1v1h-1z"/><path fill="#BFAD7F" d="M30 34h1v1h-1z"/><path fill="#F5EEB8" d="M31 34h1v1h-1zM32 34h1v1h-1z"/><path fill="#F3E9A8" d="M33 34h1v1h-1z"/><path fill="#EBD560" d="M34 34h1v1h-1zM35 34h1v1h-1zM36 34h1v1h-1zM37 34h1v1h-1zM38 34h1v1h-1zM39 34h1v1h-1zM40 34h1v1h-1zM41 34h1v1h-1zM42 34h1v1h-1zM43 34h1v1h-1zM44 34h1v1h-1z"/><path fill="#ECD667" d="M45 34h1v1h-1z"/><path fill="#F4DC9A" d="M46 34h1v1h-1zM47 34h1v1h-1zM48 34h1v1h-1z"/><path fill="#F3DB93" d="M49 34h1v1h-1z"/><path fill="#EDD76F" d="M50 34h1v1h-1z"/><path fill="#EBD560" d="M51 34h1v1h-1zM52 34h1v1h-1zM53 34h1v1h-1zM54 34h1v1h-1zM55 34h1v1h-1zM56 34h1v1h-1zM57 34h1v1h-1zM58 34h1v1h-1z"/><path fill="#EDD66B" d="M59 34h1v1h-1z"/><path fill="#F2DB8F" d="M60 34h1v1h-1z"/><path fill="#F4DC9A" d="M61 34h1v1h-1zM62 34h1v1h-1zM63 34h1v1h-1zM64 34h1v1h-1zM65 34h1v1h-1z"/><path fill="#F4DE9E" d="M66 34h1v1h-1z"/><path fill="#F5E7AD" d="M67 34h1v1h-1z"/><path fill="#F5EEB8" d="M68 34h1v1h-1zM69 34h1v1h-1zM70 34h1v1h-1zM71 34h1v1h-1zM72 34h1v1h-1zM73 34h1v1h-1zM74 34h1v1h-1zM75 34h1v1h-1zM76 34h1v1h-1zM77 34h1v1h-1zM78 34h1v1h-1zM79 34h1v1h-1z"/><path fill="#C1B98F" d="M80 34h1v1h-1z"/><path fill="#231815" d="M81 34h1v1h-1zM82 34h1v1h-1zM83 34h1v1h-1z"/><path fill="#65401F" d="M25 35h1v1h-1zM26 35h1v1h-1zM27 35h1v1h-1zM28 35h1v1h-1z"/><path fill="#9B8158" d="M29 35h1v1h-1z"/><path fill="#F5EEB8" d="M30 35h1v1h-1zM31 35h1v1h-1zM32 35h1v1h-1z"/><path fill="#EDDA71" d="M33 35h1v1h-1z"/><path fill="#EBD560" d="M34 35h1v1h-1zM35 35h1v1h-1zM36 35h1v1h-1zM37 35h1v1h-1zM38 35h1v1h-1zM39 35h1v1h-1zM40 35h1v1h-1zM41 35h1v1h-1zM42 35h1v1h-1zM43 35h1v1h-1zM44 35h1v1h-1z"/><path fill="#EDD66B" d="M45 35h1v1h-1z"/><path fill="#F4DC9A" d="M46 35h1v1h-1zM47 35h1v1h-1z"/><path fill="#F0D97D" d="M48 35h1v1h-1z"/><path fill="#ECD564" d="M49 35h1v1h-1z"/><path fill="#EBD560" d="M50 35h1v1h-1zM51 35h1v1h-1zM52 35h1v1h-1zM53 35h1v1h-1zM54 35h1v1h-1zM55 35h1v1h-1zM56 35h1v1h-1zM57 35h1v1h-1z"/><path fill="#F0D97D" d="M58 35h1v1h-1z"/><path fill="#F4DC9A" d="M59 35h1v1h-1zM60 35h1v1h-1zM61 35h1v1h-1zM62 35h1v1h-1zM63 35h1v1h-1z"/><path fill="#F4DD9C" d="M64 35h1v1h-1z"/><path fill="#F5E7AD" d="M65 35h1v1h-1z"/><path fill="#F5EEB8" d="M66 35h1v1h-1zM67 35h1v1h-1zM68 35h1v1h-1zM69 35h1v1h-1zM70 35h1v1h-1zM71 35h1v1h-1zM72 35h1v1h-1zM73 35h1v1h-1zM74 35h1v1h-1zM75 35h1v1h-1zM76 35h1v1h-1zM77 35h1v1h-1zM78 35h1v1h-1zM79 35h1v1h-1z"/><path fill="#9D9371" d="M80 35h1v1h-1z"/><path fill="#231815" d="M81 35h1v1h-1zM82 35h1v1h-1zM83 35h1v1h-1z"/><path fill="#65401F" d="M24 36h1v1h-1zM25 36h1v1h-1zM26 36h1v1h-1zM27 36h1v1h-1z"/><path fill="#896C45" d="M28 36h1v1h-1z"/><path fill="#F5EEB8" d="M29 36h1v1h-1zM30 36h1v1h-1zM31 36h1v1h-1z"/><path fill="#F1E392" d="M32 36h1v1h-1z"/><path fill="#EBD560" d="M33 36h1v1h-1zM34 36h1v1h-1zM35 36h1v1h-1zM36 36h1v1h-1zM37 36h1v1h-1zM38 36h1v1h-1zM39 36h1v1h-1zM40 36h1v1h-1zM41 36h1v1h-1zM42 36h1v1h-1zM43 36h1v1h-1zM44 36h1v1h-1zM45 36h1v1h-1z"/><path fill="#F0D97D" d="M46 36h1v1h-1z"/><path fill="#ECD667" d="M47 36h1v1h-1z"/><path fill="#EBD560" d="M48 36h1v1h-1zM49 36h1v1h-1zM50 36h1v1h-1zM51 36h1v1h-1zM52 36h1v1h-1zM53 36h1v1h-1zM54 36h1v1h-1zM55 36h1v1h-1z"/><path fill="#EDD66B" d="M56 36h1v1h-1z"/><path fill="#F2DB8F" d="M57 36h1v1h-1z"/><path fill="#F4DC9A" d="M58 36h1v1h-1zM59 36h1v1h-1zM60 36h1v1h-1zM61 36h1v1h-1zM62 36h1v1h-1z"/><path fill="#F5E5A9" d="M63 36h1v1h-1z"/><path fill="#F5EDB6" d="M64 36h1v1h-1z"/><path fill="#F5EEB8" d="M65 36h1v1h-1zM66 36h1v1h-1zM67 36h1v1h-1zM68 36h1v1h-1zM69 36h1v1h-1zM70 36h1v1h-1zM71 36h1v1h-1zM72 36h1v1h-1zM73 36h1v1h-1zM74 36h1v1h-1zM75 36h1v1h-1z"/><path fill="#E3D8A5" d="M76 36h1v1h-1z"/><path fill="#B6A275" d="M77 36h1v1h-1z"/><path fill="#92764F" d="M78 36h1v1h-1z"/><path fill="#6E4B29" d="M79 36h1v1h-1z"/><path fill="#382518" d="M80 36h1v1h-1z"/><path fill="#231815" d="M81 36h1v1h-1zM82 36h1v1h-1zM83 36h1v1h-1z"/><path fill="#65401F" d="M23 37h1v1h-1zM24 37h1v1h-1zM25 37h1v1h-1zM26 37h1v1h-1z"/><path fill="#6E4B29" d="M27 37h1v1h-1z"/><path fill="#ECE3AE" d="M28 37h1v1h-1z"/><path fill="#F5EEB8" d="M29 37h1v1h-1zM30 37h1v1h-1z"/><path fill="#F4EBAD" d="M31 37h1v1h-1z"/><path fill="#ECD766" d="M32 37h1v1h-1z"/><path fill="#EBD560" d="M33 37h1v1h-1zM34 37h1v1h-1zM35 37h1v1h-1zM36 37h1v1h-1zM37 37h1v1h-1zM38 37h1v1h-1zM39 37h1v1h-1zM40 37h1v1h-1zM41 37h1v1h-1zM42 37h1v1h-1zM43 37h1v1h-1zM44 37h1v1h-1zM45 37h1v1h-1zM46 37h1v1h-1zM47 37h1v1h-1zM48 37h1v1h-1zM49 37h1v1h-1zM50 37h1v1h-1zM51 37h1v1h-1zM52 37h1v1h-1zM53 37h1v1h-1zM54 37h1v1h-1z"/><path fill="#EFD879" d="M55 37h1v1h-1z"/><path fill="#F3DC96" d="M56 37h1v1h-1z"/><path fill="#F4DC9A" d="M57 37h1v1h-1zM58 37h1v1h-1zM59 37h1v1h-1zM60 37h1v1h-1z"/><path fill="#F4E2A3" d="M61 37h1v1h-1z"/><path fill="#F5ECB4" d="M62 37h1v1h-1z"/><path fill="#F5EEB8" d="M63 37h1v1h-1zM64 37h1v1h-1zM65 37h1v1h-1zM66 37h1v1h-1zM67 37h1v1h-1zM68 37h1v1h-1zM69 37h1v1h-1zM70 37h1v1h-1zM71 37h1v1h-1zM72 37h1v1h-1z"/><path fill="#E3D8A5" d="M73 37h1v1h-1z"/><path fill="#B6A275" d="M74 37h1v1h-1z"/><path fill="#80613C" d="M75 37h1v1h-1z"/><path fill="#65401F" d="M76 37h1v1h-1zM77 37h1v1h-1zM78 37h1v1h-1zM79 37h1v1h-1z"/><path fill="#2B1D16" d="M80 37h1v1h-1z"/><path fill="#231815" d="M81 37h1v1h-1zM82 37h1v1h-1zM83 37h1v1h-1z"/><path fill="#65401F" d="M22 38h1v1h-1zM23 38h1v1h-1zM24 38h1v1h-1zM25 38h1v1h-1zM26 38h1v1h-1z"/><path fill="#DACD9B" d="M27 38h1v1h-1z"/><path fill="#F5EEB8" d="M28 38h1v1h-1zM29 38h1v1h-1zM30 38h1v1h-1z"/><path fill="#EEDB76" d="M31 38h1v1h-1z"/><path fill="#EBD560" d="M32 38h1v1h-1zM33 38h1v1h-1zM34 38h1v1h-1zM35 38h1v1h-1zM36 38h1v1h-1zM37 38h1v1h-1zM38 38h1v1h-1zM39 38h1v1h-1zM40 38h1v1h-1zM41 38h1v1h-1zM42 38h1v1h-1zM43 38h1v1h-1zM44 38h1v1h-1zM45 38h1v1h-1zM46 38h1v1h-1zM47 38h1v1h-1zM48 38h1v1h-1zM49 38h1v1h-1zM50 38h1v1h-1zM51 38h1v1h-1zM52 38h1v1h-1z"/><path fill="#ECD564" d="M53 38h1v1h-1z"/><path fill="#F2DA8C" d="M54 38h1v1h-1z"/><path fill="#F4DC9A" d="M55 38h1v1h-1zM56 38h1v1h-1zM57 38h1v1h-1zM58 38h1v1h-1z"/><path fill="#F4DE9E" d="M59 38h1v1h-1z"/><path fill="#F5EAB1" d="M60 38h1v1h-1z"/><path fill="#F5EEB8" d="M61 38h1v1h-1zM62 38h1v1h-1zM63 38h1v1h-1zM64 38h1v1h-1zM65 38h1v1h-1zM66 38h1v1h-1zM67 38h1v1h-1zM68 38h1v1h-1zM69 38h1v1h-1zM70 38h1v1h-1z"/><path fill="#C8B888" d="M71 38h1v1h-1z"/><path fill="#92764F" d="M72 38h1v1h-1z"/><path fill="#65401F" d="M73 38h1v1h-1zM74 38h1v1h-1zM75 38h1v1h-1zM76 38h1v1h-1zM77 38h1v1h-1zM78 38h1v1h-1zM79 38h1v1h-1z"/><path fill="#4C311B" d="M80 38h1v1h-1z"/><path fill="#342218" d="M81 38h1v1h-1z"/><path fill="#231815" d="M82 38h1v1h-1zM83 38h1v1h-1z"/><path fill="#65401F" d="M22 39h1v1h-1zM23 39h1v1h-1zM24 39h1v1h-1zM25 39h1v1h-1z"/><path fill="#B6A275" d="M26 39h1v1h-1z"/><path fill="#F5EEB8" d="M27 39h1v1h-1zM28 39h1v1h-1zM29 39h1v1h-1z"/><path fill="#F1E597" d="M30 39h1v1h-1z"/><path fill="#EBD560" d="M31 39h1v1h-1zM32 39h1v1h-1zM33 39h1v1h-1zM34 39h1v1h-1zM35 39h1v1h-1zM36 39h1v1h-1zM37 39h1v1h-1zM38 39h1v1h-1zM39 39h1v1h-1zM40 39h1v1h-1zM41 39h1v1h-1zM42 39h1v1h-1zM43 39h1v1h-1zM44 39h1v1h-1zM45 39h1v1h-1zM46 39h1v1h-1zM47 39h1v1h-1zM48 39h1v1h-1zM49 39h1v1h-1zM50 39h1v1h-1zM51 39h1v1h-1z"/><path fill="#EED772" d="M52 39h1v1h-1z"/><path fill="#F3DC96" d="M53 39h1v1h-1z"/><path fill="#F4DC9A" d="M54 39h1v1h-1zM55 39h1v1h-1zM56 39h1v1h-1zM57 39h1v1h-1z"/><path fill="#F5E5A9" d="M58 39h1v1h-1z"/><path fill="#F5EDB6" d="M59 39h1v1h-1z"/><path fill="#F5EEB8" d="M60 39h1v1h-1zM61 39h1v1h-1zM62 39h1v1h-1zM63 39h1v1h-1zM64 39h1v1h-1zM65 39h1v1h-1zM66 39h1v1h-1zM67 39h1v1h-1z"/><path fill="#ECE3AE" d="M68 39h1v1h-1z"/><path fill="#AD976C" d="M69 39h1v1h-1z"/><path fill="#775632" d="M70 39h1v1h-1z"/><path fill="#65401F" d="M71 39h1v1h-1zM72 39h1v1h-1zM73 39h1v1h-1zM74 39h1v1h-1zM75 39h1v1h-1zM76 39h1v1h-1zM77 39h1v1h-1zM78 39h1v1h-1zM79 39h1v1h-1zM80 39h1v1h-1zM21 40h1v1h-1zM22 40h1v1h-1zM23 40h1v1h-1zM24 40h1v1h-1z"/><path fill="#9B8158" d="M25 40h1v1h-1z"/><path fill="#F5EEB8" d="M26 40h1v1h-1zM27 40h1v1h-1zM28 40h1v1h-1z"/><path fill="#F4ECB3" d="M29 40h1v1h-1z"/><path fill="#ECD766" d="M30 40h1v1h-1z"/><path fill="#EBD560" d="M31 40h1v1h-1zM32 40h1v1h-1zM33 40h1v1h-1zM34 40h1v1h-1zM35 40h1v1h-1zM36 40h1v1h-1zM37 40h1v1h-1zM38 40h1v1h-1zM39 40h1v1h-1zM40 40h1v1h-1zM41 40h1v1h-1zM42 40h1v1h-1zM43 40h1v1h-1zM44 40h1v1h-1zM45 40h1v1h-1zM46 40h1v1h-1zM47 40h1v1h-1zM48 40h1v1h-1zM49 40h1v1h-1zM50 40h1v1h-1z"/><path fill="#F0D981" d="M51 40h1v1h-1z"/><path fill="#F4DC9A" d="M52 40h1v1h-1zM53 40h1v1h-1zM54 40h1v1h-1zM55 40h1v1h-1z"/><path fill="#F4DFA0" d="M56 40h1v1h-1z"/><path fill="#F5EBB2" d="M57 40h1v1h-1z"/><path fill="#F5EEB8" d="M58 40h1v1h-1zM59 40h1v1h-1zM60 40h1v1h-1zM61 40h1v1h-1zM62 40h1v1h-1zM63 40h1v1h-1zM64 40h1v1h-1zM65 40h1v1h-1z"/><path fill="#E3D8A5" d="M66 40h1v1h-1z"/><path fill="#A48C62" d="M67 40h1v1h-1z"/><path fill="#6E4B29" d="M68 40h1v1h-1z"/><path fill="#65401F" d="M69 40h1v1h-1zM70 40h1v1h-1zM71 40h1v1h-1zM72 40h1v1h-1zM73 40h1v1h-1zM74 40h1v1h-1z"/><path fill="#50341C" d="M75 40h1v1h-1z"/><path fill="#3C2719" d="M76 40h1v1h-1z"/><path fill="#65401F" d="M77 40h1v1h-1zM20 41h1v1h-1zM21 41h1v1h-1zM22 41h1v1h-1zM23 41h1v1h-1z"/><path fill="#80613C" d="M24 41h1v1h-1z"/><path fill="#ECE3AE" d="M25 41h1v1h-1z"/><path fill="#F5EEB8" d="M26 41h1v1h-1zM27 41h1v1h-1zM28 41h1v1h-1z"/><path fill="#EFDE81" d="M29 41h1v1h-1z"/><path fill="#EBD560" d="M30 41h1v1h-1zM31 41h1v1h-1zM32 41h1v1h-1zM33 41h1v1h-1zM34 41h1v1h-1zM35 41h1v1h-1zM36 41h1v1h-1zM37 41h1v1h-1zM38 41h1v1h-1zM39 41h1v1h-1zM40 41h1v1h-1zM41 41h1v1h-1zM42 41h1v1h-1zM43 41h1v1h-1zM44 41h1v1h-1zM45 41h1v1h-1zM46 41h1v1h-1zM47 41h1v1h-1zM48 41h1v1h-1z"/><path fill="#ECD667" d="M49 41h1v1h-1z"/><path fill="#F2DB8F" d="M50 41h1v1h-1z"/><path fill="#F4DC9A" d="M51 41h1v1h-1zM52 41h1v1h-1zM53 41h1v1h-1zM54 41h1v1h-1z"/><path fill="#F5E5A9" d="M55 41h1v1h-1z"/><path fill="#F5EEB8" d="M56 41h1v1h-1zM57 41h1v1h-1zM58 41h1v1h-1zM59 41h1v1h-1zM60 41h1v1h-1zM61 41h1v1h-1zM62 41h1v1h-1zM63 41h1v1h-1z"/><path fill="#E3D8A5" d="M64 41h1v1h-1z"/><path fill="#9B8158" d="M65 41h1v1h-1z"/><path fill="#65401F" d="M66 41h1v1h-1zM67 41h1v1h-1zM68 41h1v1h-1zM69 41h1v1h-1zM70 41h1v1h-1zM71 41h1v1h-1z"/><path fill="#724D22" d="M72 41h1v1h-1z"/><path fill="#6A4D22" d="M73 41h1v1h-1z"/><path fill="#271B16" d="M74 41h1v1h-1z"/><path fill="#231815" d="M75 41h1v1h-1zM76 41h1v1h-1z"/><path fill="#65401F" d="M19 42h1v1h-1zM20 42h1v1h-1zM21 42h1v1h-1zM22 42h1v1h-1z"/><path fill="#6E4B29" d="M23 42h1v1h-1z"/><path fill="#DACD9B" d="M24 42h1v1h-1z"/><path fill="#F5EEB8" d="M25 42h1v1h-1zM26 42h1v1h-1zM27 42h1v1h-1z"/><path fill="#F3E8A2" d="M28 42h1v1h-1z"/><path fill="#EBD560" d="M29 42h1v1h-1zM30 42h1v1h-1zM31 42h1v1h-1zM32 42h1v1h-1zM33 42h1v1h-1zM34 42h1v1h-1zM35 42h1v1h-1zM36 42h1v1h-1zM37 42h1v1h-1zM38 42h1v1h-1zM39 42h1v1h-1zM40 42h1v1h-1zM41 42h1v1h-1zM42 42h1v1h-1zM43 42h1v1h-1zM44 42h1v1h-1zM45 42h1v1h-1zM46 42h1v1h-1zM47 42h1v1h-1z"/><path fill="#EED772" d="M48 42h1v1h-1z"/><path fill="#F3DC96" d="M49 42h1v1h-1z"/><path fill="#F4DC9A" d="M50 42h1v1h-1zM51 42h1v1h-1zM52 42h1v1h-1z"/><path fill="#F4DFA0" d="M53 42h1v1h-1z"/><path fill="#F5EBB2" d="M54 42h1v1h-1z"/><path fill="#F5EEB8" d="M55 42h1v1h-1zM56 42h1v1h-1zM57 42h1v1h-1zM58 42h1v1h-1zM59 42h1v1h-1zM60 42h1v1h-1zM61 42h1v1h-1z"/><path fill="#E3D8A5" d="M62 42h1v1h-1z"/><path fill="#9B8158" d="M63 42h1v1h-1z"/><path fill="#65401F" d="M64 42h1v1h-1zM65 42h1v1h-1zM66 42h1v1h-1zM67 42h1v1h-1zM68 42h1v1h-1zM69 42h1v1h-1z"/><path fill="#7E5A26" d="M70 42h1v1h-1z"/><path fill="#B18D33" d="M71 42h1v1h-1z"/><path fill="#CAA739" d="M72 42h1v1h-1z"/><path fill="#776027" d="M73 42h1v1h-1z"/><path fill="#231815" d="M74 42h1v1h-1zM75 42h1v1h-1zM76 42h1v1h-1z"/><path fill="#65401F" d="M19 43h1v1h-1zM20 43h1v1h-1zM21 43h1v1h-1zM22 43h1v1h-1z"/><path fill="#B6A275" d="M23 43h1v1h-1z"/><path fill="#F5EEB8" d="M24 43h1v1h-1zM25 43h1v1h-1zM26 43h1v1h-1zM27 43h1v1h-1z"/><path fill="#ECD86B" d="M28 43h1v1h-1z"/><path fill="#EBD560" d="M29 43h1v1h-1zM30 43h1v1h-1zM31 43h1v1h-1zM32 43h1v1h-1zM33 43h1v1h-1zM34 43h1v1h-1zM35 43h1v1h-1zM36 43h1v1h-1zM37 43h1v1h-1zM38 43h1v1h-1zM39 43h1v1h-1zM40 43h1v1h-1zM41 43h1v1h-1zM42 43h1v1h-1zM43 43h1v1h-1zM44 43h1v1h-1zM45 43h1v1h-1zM46 43h1v1h-1z"/><path fill="#F0D981" d="M47 43h1v1h-1z"/><path fill="#F4DC9A" d="M48 43h1v1h-1zM49 43h1v1h-1zM50 43h1v1h-1zM51 43h1v1h-1z"/><path fill="#F4E4A7" d="M52 43h1v1h-1z"/><path fill="#F5EDB6" d="M53 43h1v1h-1z"/><path fill="#F5EEB8" d="M54 43h1v1h-1zM55 43h1v1h-1zM56 43h1v1h-1zM57 43h1v1h-1zM58 43h1v1h-1zM59 43h1v1h-1z"/><path fill="#ECE3AE" d="M60 43h1v1h-1z"/><path fill="#AD976C" d="M61 43h1v1h-1z"/><path fill="#6E4B29" d="M62 43h1v1h-1z"/><path fill="#65401F" d="M63 43h1v1h-1zM64 43h1v1h-1zM65 43h1v1h-1zM66 43h1v1h-1zM67 43h1v1h-1z"/><path fill="#8B6729" d="M68 43h1v1h-1z"/><path fill="#BD9A36" d="M69 43h1v1h-1z"/><path fill="#CAA739" d="M70 43h1v1h-1zM71 43h1v1h-1zM72 43h1v1h-1z"/><path fill="#776027" d="M73 43h1v1h-1z"/><path fill="#231815" d="M74 43h1v1h-1zM75 43h1v1h-1zM76 43h1v1h-1z"/><path fill="#65401F" d="M18 44h1v1h-1zM19 44h1v1h-1zM20 44h1v1h-1zM21 44h1v1h-1z"/><path fill="#92764F" d="M22 44h1v1h-1z"/><path fill="#F5EEB8" d="M23 44h1v1h-1zM24 44h1v1h-1zM25 44h1v1h-1zM26 44h1v1h-1z"/><path fill="#F0E28C" d="M27 44h1v1h-1z"/><path fill="#EBD560" d="M28 44h1v1h-1zM29 44h1v1h-1zM30 44h1v1h-1zM31 44h1v1h-1zM32 44h1v1h-1zM33 44h1v1h-1zM34 44h1v1h-1zM35 44h1v1h-1zM36 44h1v1h-1zM37 44h1v1h-1zM38 44h1v1h-1zM39 44h1v1h-1zM40 44h1v1h-1zM41 44h1v1h-1zM42 44h1v1h-1zM43 44h1v1h-1zM44 44h1v1h-1z"/><path fill="#ECD564" d="M45 44h1v1h-1z"/><path fill="#F2DA8C" d="M46 44h1v1h-1z"/><path fill="#F4DC9A" d="M47 44h1v1h-1zM48 44h1v1h-1zM49 44h1v1h-1z"/><path fill="#F4DD9C" d="M50 44h1v1h-1z"/><path fill="#F5E8AF" d="M51 44h1v1h-1z"/><path fill="#F5EEB8" d="M52 44h1v1h-1zM53 44h1v1h-1zM54 44h1v1h-1zM55 44h1v1h-1zM56 44h1v1h-1zM57 44h1v1h-1zM58 44h1v1h-1z"/><path fill="#BFAD7F" d="M59 44h1v1h-1z"/><path fill="#6E4B29" d="M60 44h1v1h-1z"/><path fill="#65401F" d="M61 44h1v1h-1zM62 44h1v1h-1zM63 44h1v1h-1zM64 44h1v1h-1zM65 44h1v1h-1z"/><path fill="#7B5524" d="M66 44h1v1h-1z"/><path fill="#BD9A36" d="M67 44h1v1h-1z"/><path fill="#CAA739" d="M68 44h1v1h-1zM69 44h1v1h-1zM70 44h1v1h-1zM71 44h1v1h-1zM72 44h1v1h-1z"/><path fill="#624E23" d="M73 44h1v1h-1z"/><path fill="#231815" d="M74 44h1v1h-1zM75 44h1v1h-1zM76 44h1v1h-1z"/><path fill="#65401F" d="M17 45h1v1h-1zM18 45h1v1h-1zM19 45h1v1h-1zM20 45h1v1h-1z"/><path fill="#6E4B29" d="M21 45h1v1h-1z"/><path fill="#ECE3AE" d="M22 45h1v1h-1z"/><path fill="#F5EEB8" d="M23 45h1v1h-1zM24 45h1v1h-1zM25 45h1v1h-1z"/><path fill="#F4EBAD" d="M26 45h1v1h-1z"/><path fill="#ECD766" d="M27 45h1v1h-1z"/><path fill="#EBD560" d="M28 45h1v1h-1zM29 45h1v1h-1zM30 45h1v1h-1zM31 45h1v1h-1zM32 45h1v1h-1zM33 45h1v1h-1zM34 45h1v1h-1zM35 45h1v1h-1zM36 45h1v1h-1zM37 45h1v1h-1zM38 45h1v1h-1zM39 45h1v1h-1zM40 45h1v1h-1zM41 45h1v1h-1zM42 45h1v1h-1zM43 45h1v1h-1z"/><path fill="#EDD66B" d="M44 45h1v1h-1z"/><path fill="#F3DC96" d="M45 45h1v1h-1z"/><path fill="#F4DC9A" d="M46 45h1v1h-1zM47 45h1v1h-1zM48 45h1v1h-1z"/><path fill="#F4DFA0" d="M49 45h1v1h-1z"/><path fill="#F5ECB4" d="M50 45h1v1h-1z"/><path fill="#F5EEB8" d="M51 45h1v1h-1zM52 45h1v1h-1zM53 45h1v1h-1zM54 45h1v1h-1zM55 45h1v1h-1zM56 45h1v1h-1z"/><path fill="#D1C392" d="M57 45h1v1h-1z"/><path fill="#80613C" d="M58 45h1v1h-1z"/><path fill="#65401F" d="M59 45h1v1h-1zM60 45h1v1h-1zM61 45h1v1h-1zM62 45h1v1h-1zM63 45h1v1h-1z"/><path fill="#744C21" d="M64 45h1v1h-1z"/><path fill="#875C24" d="M65 45h1v1h-1z"/><path fill="#AB842F" d="M66 45h1v1h-1z"/><path fill="#CAA739" d="M67 45h1v1h-1zM68 45h1v1h-1zM69 45h1v1h-1zM70 45h1v1h-1zM71 45h1v1h-1zM72 45h1v1h-1z"/><path fill="#4D3C1E" d="M73 45h1v1h-1z"/><path fill="#231815" d="M74 45h1v1h-1zM75 45h1v1h-1zM76 45h1v1h-1z"/><path fill="#65401F" d="M17 46h1v1h-1zM18 46h1v1h-1zM19 46h1v1h-1zM20 46h1v1h-1z"/><path fill="#C8B888" d="M21 46h1v1h-1z"/><path fill="#F5EEB8" d="M22 46h1v1h-1zM23 46h1v1h-1zM24 46h1v1h-1zM25 46h1v1h-1z"/><path fill="#EEDD7C" d="M26 46h1v1h-1z"/><path fill="#EBD560" d="M27 46h1v1h-1zM28 46h1v1h-1zM29 46h1v1h-1zM30 46h1v1h-1zM31 46h1v1h-1zM32 46h1v1h-1zM33 46h1v1h-1zM34 46h1v1h-1zM35 46h1v1h-1zM36 46h1v1h-1zM37 46h1v1h-1zM38 46h1v1h-1zM39 46h1v1h-1zM40 46h1v1h-1zM41 46h1v1h-1zM42 46h1v1h-1z"/><path fill="#EED876" d="M43 46h1v1h-1z"/><path fill="#F4DC9A" d="M44 46h1v1h-1zM45 46h1v1h-1zM46 46h1v1h-1zM47 46h1v1h-1z"/><path fill="#F4E3A5" d="M48 46h1v1h-1z"/><path fill="#F5EEB8" d="M49 46h1v1h-1zM50 46h1v1h-1zM51 46h1v1h-1zM52 46h1v1h-1zM53 46h1v1h-1zM54 46h1v1h-1z"/><path fill="#ECE3AE" d="M55 46h1v1h-1z"/><path fill="#9B8158" d="M56 46h1v1h-1z"/><path fill="#65401F" d="M57 46h1v1h-1zM58 46h1v1h-1zM59 46h1v1h-1zM60 46h1v1h-1zM61 46h1v1h-1z"/><path fill="#6F4821" d="M62 46h1v1h-1z"/><path fill="#855A24" d="M63 46h1v1h-1z"/><path fill="#8C6025" d="M64 46h1v1h-1zM65 46h1v1h-1z"/><path fill="#B79133" d="M66 46h1v1h-1z"/><path fill="#CAA739" d="M67 46h1v1h-1zM68 46h1v1h-1zM69 46h1v1h-1zM70 46h1v1h-1zM71 46h1v1h-1zM72 46h1v1h-1z"/><path fill="#382A1A" d="M73 46h1v1h-1z"/><path fill="#231815" d="M74 46h1v1h-1zM75 46h1v1h-1zM76 46h1v1h-1z"/><path fill="#65401F" d="M16 47h1v1h-1zM17 47h1v1h-1zM18 47h1v1h-1zM19 47h1v1h-1z"/><path fill="#92764F" d="M20 47h1v1h-1z"/><path fill="#F5EEB8" d="M21 47h1v1h-1zM22 47h1v1h-1zM23 47h1v1h-1zM24 47h1v1h-1z"/><path fill="#F3E8A2" d="M25 47h1v1h-1z"/><path fill="#EBD560" d="M26 47h1v1h-1zM27 47h1v1h-1zM28 47h1v1h-1zM29 47h1v1h-1zM30 47h1v1h-1zM31 47h1v1h-1zM32 47h1v1h-1zM33 47h1v1h-1zM34 47h1v1h-1zM35 47h1v1h-1zM36 47h1v1h-1zM37 47h1v1h-1zM38 47h1v1h-1zM39 47h1v1h-1zM40 47h1v1h-1zM41 47h1v1h-1z"/><path fill="#F1D984" d="M42 47h1v1h-1z"/><path fill="#F4DC9A" d="M43 47h1v1h-1zM44 47h1v1h-1zM45 47h1v1h-1zM46 47h1v1h-1z"/><path fill="#F5E7AD" d="M47 47h1v1h-1z"/><path fill="#F5EEB8" d="M48 47h1v1h-1zM49 47h1v1h-1zM50 47h1v1h-1zM51 47h1v1h-1zM52 47h1v1h-1zM53 47h1v1h-1z"/><path fill="#B6A275" d="M54 47h1v1h-1z"/><path fill="#6E4B29" d="M55 47h1v1h-1z"/><path fill="#65401F" d="M56 47h1v1h-1zM57 47h1v1h-1zM58 47h1v1h-1zM59 47h1v1h-1z"/><path fill="#6A4420" d="M60 47h1v1h-1z"/><path fill="#805623" d="M61 47h1v1h-1z"/><path fill="#8C6025" d="M62 47h1v1h-1zM63 47h1v1h-1zM64 47h1v1h-1zM65 47h1v1h-1z"/><path fill="#CAA739" d="M66 47h1v1h-1zM67 47h1v1h-1zM68 47h1v1h-1zM69 47h1v1h-1zM70 47h1v1h-1zM71 47h1v1h-1zM72 47h1v1h-1z"/><path fill="#231815" d="M73 47h1v1h-1zM74 47h1v1h-1zM75 47h1v1h-1zM76 47h1v1h-1z"/><path fill="#65401F" d="M15 48h1v1h-1zM16 48h1v1h-1zM17 48h1v1h-1zM18 48h1v1h-1z"/><path fill="#6E4B29" d="M19 48h1v1h-1z"/><path fill="#ECE3AE" d="M20 48h1v1h-1z"/><path fill="#F5EEB8" d="M21 48h1v1h-1zM22 48h1v1h-1zM23 48h1v1h-1zM24 48h1v1h-1z"/><path fill="#ECD86B" d="M25 48h1v1h-1z"/><path fill="#EBD560" d="M26 48h1v1h-1zM27 48h1v1h-1zM28 48h1v1h-1zM29 48h1v1h-1zM30 48h1v1h-1zM31 48h1v1h-1zM32 48h1v1h-1zM33 48h1v1h-1zM34 48h1v1h-1zM35 48h1v1h-1zM36 48h1v1h-1zM37 48h1v1h-1zM38 48h1v1h-1zM39 48h1v1h-1z"/><path fill="#ECD564" d="M40 48h1v1h-1z"/><path fill="#F2DB8F" d="M41 48h1v1h-1z"/><path fill="#F4DC9A" d="M42 48h1v1h-1zM43 48h1v1h-1zM44 48h1v1h-1z"/><path fill="#F4DD9C" d="M45 48h1v1h-1z"/><path fill="#F5EAB1" d="M46 48h1v1h-1z"/><path fill="#F5EEB8" d="M47 48h1v1h-1zM48 48h1v1h-1zM49 48h1v1h-1zM50 48h1v1h-1zM51 48h1v1h-1z"/><path fill="#DACD9B" d="M52 48h1v1h-1z"/><path fill="#896C45" d="M53 48h1v1h-1z"/><path fill="#65401F" d="M54 48h1v1h-1zM55 48h1v1h-1zM56 48h1v1h-1zM57 48h1v1h-1z"/><path fill="#67421F" d="M58 48h1v1h-1z"/><path fill="#795022" d="M59 48h1v1h-1z"/><path fill="#8C6025" d="M60 48h1v1h-1zM61 48h1v1h-1zM62 48h1v1h-1zM63 48h1v1h-1zM64 48h1v1h-1z"/><path fill="#9F762B" d="M65 48h1v1h-1z"/><path fill="#CAA739" d="M66 48h1v1h-1zM67 48h1v1h-1zM68 48h1v1h-1zM69 48h1v1h-1zM70 48h1v1h-1zM71 48h1v1h-1z"/><path fill="#A08330" d="M72 48h1v1h-1z"/><path fill="#231815" d="M73 48h1v1h-1zM74 48h1v1h-1zM75 48h1v1h-1zM76 48h1v1h-1z"/><path fill="#65401F" d="M15 49h1v1h-1zM16 49h1v1h-1zM17 49h1v1h-1zM18 49h1v1h-1z"/><path fill="#C8B888" d="M19 49h1v1h-1z"/><path fill="#F5EEB8" d="M20 49h1v1h-1zM21 49h1v1h-1zM22 49h1v1h-1zM23 49h1v1h-1z"/><path fill="#F0E28C" d="M24 49h1v1h-1z"/><path fill="#EBD560" d="M25 49h1v1h-1zM26 49h1v1h-1zM27 49h1v1h-1zM28 49h1v1h-1zM29 49h1v1h-1zM30 49h1v1h-1zM31 49h1v1h-1zM32 49h1v1h-1zM33 49h1v1h-1zM34 49h1v1h-1zM35 49h1v1h-1zM36 49h1v1h-1zM37 49h1v1h-1zM38 49h1v1h-1z"/><path fill="#EDD66B" d="M39 49h1v1h-1z"/><path fill="#F3DC96" d="M40 49h1v1h-1z"/><path fill="#F4DC9A" d="M41 49h1v1h-1zM42 49h1v1h-1zM43 49h1v1h-1z"/><path fill="#F4DD9C" d="M44 49h1v1h-1z"/><path fill="#F5EBB2" d="M45 49h1v1h-1z"/><path fill="#F5EEB8" d="M46 49h1v1h-1zM47 49h1v1h-1zM48 49h1v1h-1zM49 49h1v1h-1zM50 49h1v1h-1z"/><path fill="#AD976C" d="M51 49h1v1h-1z"/><path fill="#65401F" d="M52 49h1v1h-1zM53 49h1v1h-1zM54 49h1v1h-1zM55 49h1v1h-1zM56 49h1v1h-1z"/><path fill="#714A21" d="M57 49h1v1h-1z"/><path fill="#875C24" d="M58 49h1v1h-1z"/><path fill="#8C6025" d="M59 49h1v1h-1zM60 49h1v1h-1zM61 49h1v1h-1zM62 49h1v1h-1zM63 49h1v1h-1zM64 49h1v1h-1z"/><path fill="#AF8830" d="M65 49h1v1h-1z"/><path fill="#CAA739" d="M66 49h1v1h-1zM67 49h1v1h-1zM68 49h1v1h-1zM69 49h1v1h-1zM70 49h1v1h-1zM71 49h1v1h-1z"/><path fill="#776027" d="M72 49h1v1h-1z"/><path fill="#231815" d="M73 49h1v1h-1zM74 49h1v1h-1zM75 49h1v1h-1z"/><path fill="#65401F" d="M14 50h1v1h-1zM15 50h1v1h-1zM16 50h1v1h-1zM17 50h1v1h-1z"/><path fill="#896C45" d="M18 50h1v1h-1z"/><path fill="#F5EEB8" d="M19 50h1v1h-1zM20 50h1v1h-1zM21 50h1v1h-1zM22 50h1v1h-1z"/><path fill="#F4EBAD" d="M23 50h1v1h-1z"/><path fill="#ECD766" d="M24 50h1v1h-1z"/><path fill="#EBD560" d="M25 50h1v1h-1zM26 50h1v1h-1zM27 50h1v1h-1zM28 50h1v1h-1zM29 50h1v1h-1zM30 50h1v1h-1zM31 50h1v1h-1zM32 50h1v1h-1zM33 50h1v1h-1zM34 50h1v1h-1zM35 50h1v1h-1zM36 50h1v1h-1zM37 50h1v1h-1z"/><path fill="#EED876" d="M38 50h1v1h-1z"/><path fill="#F3DC96" d="M39 50h1v1h-1z"/><path fill="#F4DC9A" d="M40 50h1v1h-1zM41 50h1v1h-1zM42 50h1v1h-1z"/><path fill="#F4DFA0" d="M43 50h1v1h-1z"/><path fill="#F5EDB6" d="M44 50h1v1h-1z"/><path fill="#F5EEB8" d="M45 50h1v1h-1zM46 50h1v1h-1zM47 50h1v1h-1zM48 50h1v1h-1z"/><path fill="#DACD9B" d="M49 50h1v1h-1z"/><path fill="#80613C" d="M50 50h1v1h-1z"/><path fill="#65401F" d="M51 50h1v1h-1zM52 50h1v1h-1zM53 50h1v1h-1zM54 50h1v1h-1z"/><path fill="#6A4420" d="M55 50h1v1h-1z"/><path fill="#825824" d="M56 50h1v1h-1z"/><path fill="#8C6025" d="M57 50h1v1h-1zM58 50h1v1h-1zM59 50h1v1h-1zM60 50h1v1h-1zM61 50h1v1h-1zM62 50h1v1h-1zM63 50h1v1h-1zM64 50h1v1h-1z"/><path fill="#C29E37" d="M65 50h1v1h-1z"/><path fill="#CAA739" d="M66 50h1v1h-1zM67 50h1v1h-1zM68 50h1v1h-1zM69 50h1v1h-1zM70 50h1v1h-1zM71 50h1v1h-1z"/><path fill="#574520" d="M72 50h1v1h-1z"/><path fill="#231815" d="M73 50h1v1h-1zM74 50h1v1h-1zM75 50h1v1h-1z"/><path fill="#65401F" d="M14 51h1v1h-1zM15 51h1v1h-1zM16 51h1v1h-1zM17 51h1v1h-1z"/><path fill="#E3D8A5" d="M18 51h1v1h-1z"/><path fill="#F5EEB8" d="M19 51h1v1h-1zM20 51h1v1h-1zM21 51h1v1h-1zM22 51h1v1h-1z"/><path fill="#EEDD7C" d="M23 51h1v1h-1z"/><path fill="#EBD560" d="M24 51h1v1h-1zM25 51h1v1h-1zM26 51h1v1h-1zM27 51h1v1h-1zM28 51h1v1h-1zM29 51h1v1h-1zM30 51h1v1h-1zM31 51h1v1h-1zM32 51h1v1h-1zM33 51h1v1h-1zM34 51h1v1h-1zM35 51h1v1h-1zM36 51h1v1h-1z"/><path fill="#F0D97D" d="M37 51h1v1h-1z"/><path fill="#F4DC9A" d="M38 51h1v1h-1zM39 51h1v1h-1zM40 51h1v1h-1zM41 51h1v1h-1z"/><path fill="#F4DFA0" d="M42 51h1v1h-1z"/><path fill="#F5EDB6" d="M43 51h1v1h-1z"/><path fill="#F5EEB8" d="M44 51h1v1h-1zM45 51h1v1h-1zM46 51h1v1h-1zM47 51h1v1h-1z"/><path fill="#AD976C" d="M48 51h1v1h-1z"/><path fill="#65401F" d="M49 51h1v1h-1zM50 51h1v1h-1zM51 51h1v1h-1zM52 51h1v1h-1zM53 51h1v1h-1z"/><path fill="#764E22" d="M54 51h1v1h-1z"/><path fill="#8A5E25" d="M55 51h1v1h-1z"/><path fill="#8C6025" d="M56 51h1v1h-1zM57 51h1v1h-1zM58 51h1v1h-1zM59 51h1v1h-1zM60 51h1v1h-1zM61 51h1v1h-1zM62 51h1v1h-1zM63 51h1v1h-1z"/><path fill="#9F762B" d="M64 51h1v1h-1z"/><path fill="#CAA739" d="M65 51h1v1h-1zM66 51h1v1h-1zM67 51h1v1h-1zM68 51h1v1h-1zM69 51h1v1h-1zM70 51h1v1h-1zM71 51h1v1h-1z"/><path fill="#2D2117" d="M72 51h1v1h-1z"/><path fill="#231815" d="M73 51h1v1h-1zM74 51h1v1h-1zM75 51h1v1h-1z"/><path fill="#65401F" d="M13 52h1v1h-1zM14 52h1v1h-1zM15 52h1v1h-1zM16 52h1v1h-1z"/><path fill="#AD976C" d="M17 52h1v1h-1z"/><path fill="#F5EEB8" d="M18 52h1v1h-1zM19 52h1v1h-1zM20 52h1v1h-1zM21 52h1v1h-1z"/><path fill="#F3E8A2" d="M22 52h1v1h-1z"/><path fill="#EBD560" d="M23 52h1v1h-1zM24 52h1v1h-1zM25 52h1v1h-1zM26 52h1v1h-1zM27 52h1v1h-1zM28 52h1v1h-1zM29 52h1v1h-1zM30 52h1v1h-1zM31 52h1v1h-1zM32 52h1v1h-1zM33 52h1v1h-1zM34 52h1v1h-1z"/><path fill="#ECD564" d="M35 52h1v1h-1z"/><path fill="#F1D984" d="M36 52h1v1h-1z"/><path fill="#F4DC9A" d="M37 52h1v1h-1zM38 52h1v1h-1zM39 52h1v1h-1zM40 52h1v1h-1z"/><path fill="#F4DFA0" d="M41 52h1v1h-1z"/><path fill="#F5EDB6" d="M42 52h1v1h-1z"/><path fill="#F5EEB8" d="M43 52h1v1h-1zM44 52h1v1h-1zM45 52h1v1h-1z"/><path fill="#E3D8A5" d="M46 52h1v1h-1z"/><path fill="#80613C" d="M47 52h1v1h-1z"/><path fill="#65401F" d="M48 52h1v1h-1zM49 52h1v1h-1zM50 52h1v1h-1zM51 52h1v1h-1z"/><path fill="#6C4620" d="M52 52h1v1h-1z"/><path fill="#825824" d="M53 52h1v1h-1z"/><path fill="#8C6025" d="M54 52h1v1h-1zM55 52h1v1h-1zM56 52h1v1h-1zM57 52h1v1h-1zM58 52h1v1h-1zM59 52h1v1h-1zM60 52h1v1h-1zM61 52h1v1h-1zM62 52h1v1h-1zM63 52h1v1h-1z"/><path fill="#B38C32" d="M64 52h1v1h-1z"/><path fill="#CAA739" d="M65 52h1v1h-1zM66 52h1v1h-1zM67 52h1v1h-1zM68 52h1v1h-1zM69 52h1v1h-1zM70 52h1v1h-1z"/><path fill="#967A2E" d="M71 52h1v1h-1z"/><path fill="#231815" d="M72 52h1v1h-1zM73 52h1v1h-1zM74 52h1v1h-1zM75 52h1v1h-1z"/><path fill="#65401F" d="M13 53h1v1h-1zM14 53h1v1h-1zM15 53h1v1h-1z"/><path fill="#6E4B29" d="M16 53h1v1h-1z"/><path fill="#ECE3AE" d="M17 53h1v1h-1z"/><path fill="#F5EEB8" d="M18 53h1v1h-1zM19 53h1v1h-1zM20 53h1v1h-1zM21 53h1v1h-1z"/><path fill="#ECD86B" d="M22 53h1v1h-1z"/><path fill="#EBD560" d="M23 53h1v1h-1zM24 53h1v1h-1zM25 53h1v1h-1zM26 53h1v1h-1zM27 53h1v1h-1zM28 53h1v1h-1zM29 53h1v1h-1zM30 53h1v1h-1zM31 53h1v1h-1zM32 53h1v1h-1zM33 53h1v1h-1z"/><path fill="#ECD564" d="M34 53h1v1h-1z"/><path fill="#F2DB8F" d="M35 53h1v1h-1z"/><path fill="#F4DC9A" d="M36 53h1v1h-1zM37 53h1v1h-1zM38 53h1v1h-1zM39 53h1v1h-1z"/><path fill="#F4DFA0" d="M40 53h1v1h-1z"/><path fill="#F5EDB6" d="M41 53h1v1h-1z"/><path fill="#F5EEB8" d="M42 53h1v1h-1zM43 53h1v1h-1zM44 53h1v1h-1z"/><path fill="#B6A275" d="M45 53h1v1h-1z"/><path fill="#6E4B29" d="M46 53h1v1h-1z"/><path fill="#65401F" d="M47 53h1v1h-1zM48 53h1v1h-1zM49 53h1v1h-1zM50 53h1v1h-1z"/><path fill="#795022" d="M51 53h1v1h-1z"/><path fill="#8C6025" d="M52 53h1v1h-1zM53 53h1v1h-1zM54 53h1v1h-1zM55 53h1v1h-1zM56 53h1v1h-1zM57 53h1v1h-1zM58 53h1v1h-1zM59 53h1v1h-1zM60 53h1v1h-1zM61 53h1v1h-1zM62 53h1v1h-1z"/><path fill="#946928" d="M63 53h1v1h-1z"/><path fill="#CAA739" d="M64 53h1v1h-1zM65 53h1v1h-1zM66 53h1v1h-1zM67 53h1v1h-1zM68 53h1v1h-1zM69 53h1v1h-1zM70 53h1v1h-1z"/><path fill="#624E23" d="M71 53h1v1h-1z"/><path fill="#231815" d="M72 53h1v1h-1zM73 53h1v1h-1zM74 53h1v1h-1z"/><path fill="#65401F" d="M12 54h1v1h-1zM13 54h1v1h-1zM14 54h1v1h-1zM15 54h1v1h-1z"/><path fill="#BFAD7F" d="M16 54h1v1h-1z"/><path fill="#F5EEB8" d="M17 54h1v1h-1zM18 54h1v1h-1zM19 54h1v1h-1zM20 54h1v1h-1z"/><path fill="#F0E28C" d="M21 54h1v1h-1z"/><path fill="#EBD560" d="M22 54h1v1h-1zM23 54h1v1h-1zM24 54h1v1h-1zM25 54h1v1h-1zM26 54h1v1h-1zM27 54h1v1h-1zM28 54h1v1h-1zM29 54h1v1h-1zM30 54h1v1h-1zM31 54h1v1h-1zM32 54h1v1h-1z"/><path fill="#EDD66B" d="M33 54h1v1h-1z"/><path fill="#F2DB8F" d="M34 54h1v1h-1z"/><path fill="#F4DC9A" d="M35 54h1v1h-1zM36 54h1v1h-1zM37 54h1v1h-1zM38 54h1v1h-1z"/><path fill="#F4DFA0" d="M39 54h1v1h-1z"/><path fill="#F5EDB6" d="M40 54h1v1h-1z"/><path fill="#F5EEB8" d="M41 54h1v1h-1zM42 54h1v1h-1z"/><path fill="#ECE3AE" d="M43 54h1v1h-1z"/><path fill="#92764F" d="M44 54h1v1h-1z"/><path fill="#65401F" d="M45 54h1v1h-1zM46 54h1v1h-1zM47 54h1v1h-1zM48 54h1v1h-1z"/><path fill="#6A4420" d="M49 54h1v1h-1z"/><path fill="#855A24" d="M50 54h1v1h-1z"/><path fill="#8C6025" d="M51 54h1v1h-1zM52 54h1v1h-1zM53 54h1v1h-1zM54 54h1v1h-1zM55 54h1v1h-1zM56 54h1v1h-1zM57 54h1v1h-1zM58 54h1v1h-1zM59 54h1v1h-1zM60 54h1v1h-1zM61 54h1v1h-1zM62 54h1v1h-1z"/><path fill="#AB842F" d="M63 54h1v1h-1z"/><path fill="#CAA739" d="M64 54h1v1h-1zM65 54h1v1h-1zM66 54h1v1h-1zM67 54h1v1h-1zM68 54h1v1h-1zM69 54h1v1h-1zM70 54h1v1h-1z"/><path fill="#2D2117" d="M71 54h1v1h-1z"/><path fill="#231815" d="M72 54h1v1h-1zM73 54h1v1h-1zM74 54h1v1h-1z"/><path fill="#65401F" d="M11 55h1v1h-1zM12 55h1v1h-1zM13 55h1v1h-1zM14 55h1v1h-1z"/><path fill="#775632" d="M15 55h1v1h-1z"/><path fill="#F5EEB8" d="M16 55h1v1h-1zM17 55h1v1h-1zM18 55h1v1h-1zM19 55h1v1h-1z"/><path fill="#F4ECB3" d="M20 55h1v1h-1z"/><path fill="#ECD766" d="M21 55h1v1h-1z"/><path fill="#EBD560" d="M22 55h1v1h-1zM23 55h1v1h-1zM24 55h1v1h-1zM25 55h1v1h-1zM26 55h1v1h-1zM27 55h1v1h-1zM28 55h1v1h-1zM29 55h1v1h-1zM30 55h1v1h-1zM31 55h1v1h-1z"/><path fill="#EDD66B" d="M32 55h1v1h-1z"/><path fill="#F3DC96" d="M33 55h1v1h-1z"/><path fill="#F4DC9A" d="M34 55h1v1h-1zM35 55h1v1h-1zM36 55h1v1h-1zM37 55h1v1h-1z"/><path fill="#F4DD9C" d="M38 55h1v1h-1z"/><path fill="#F5EBB2" d="M39 55h1v1h-1z"/><path fill="#F5EEB8" d="M40 55h1v1h-1zM41 55h1v1h-1z"/><path fill="#D1C392" d="M42 55h1v1h-1z"/><path fill="#6E4B29" d="M43 55h1v1h-1z"/><path fill="#65401F" d="M44 55h1v1h-1zM45 55h1v1h-1zM46 55h1v1h-1zM47 55h1v1h-1z"/><path fill="#764E22" d="M48 55h1v1h-1z"/><path fill="#8A5E25" d="M49 55h1v1h-1z"/><path fill="#8C6025" d="M50 55h1v1h-1zM51 55h1v1h-1zM52 55h1v1h-1zM53 55h1v1h-1zM54 55h1v1h-1zM55 55h1v1h-1zM56 55h1v1h-1zM57 55h1v1h-1zM58 55h1v1h-1zM59 55h1v1h-1zM60 55h1v1h-1zM61 55h1v1h-1z"/><path fill="#906426" d="M62 55h1v1h-1z"/><path fill="#C6A338" d="M63 55h1v1h-1z"/><path fill="#CAA739" d="M64 55h1v1h-1zM65 55h1v1h-1zM66 55h1v1h-1zM67 55h1v1h-1zM68 55h1v1h-1zM69 55h1v1h-1z"/><path fill="#967A2E" d="M70 55h1v1h-1z"/><path fill="#231815" d="M71 55h1v1h-1zM72 55h1v1h-1zM73 55h1v1h-1zM74 55h1v1h-1z"/><path fill="#65401F" d="M11 56h1v1h-1zM12 56h1v1h-1zM13 56h1v1h-1zM14 56h1v1h-1z"/><path fill="#D1C392" d="M15 56h1v1h-1z"/><path fill="#F5EEB8" d="M16 56h1v1h-1zM17 56h1v1h-1zM18 56h1v1h-1zM19 56h1v1h-1z"/><path fill="#EFDE81" d="M20 56h1v1h-1z"/><path fill="#EBD560" d="M21 56h1v1h-1zM22 56h1v1h-1zM23 56h1v1h-1zM24 56h1v1h-1zM25 56h1v1h-1zM26 56h1v1h-1zM27 56h1v1h-1zM28 56h1v1h-1zM29 56h1v1h-1zM30 56h1v1h-1z"/><path fill="#EED876" d="M31 56h1v1h-1z"/><path fill="#F4DC9A" d="M32 56h1v1h-1zM33 56h1v1h-1zM34 56h1v1h-1zM35 56h1v1h-1zM36 56h1v1h-1zM37 56h1v1h-1z"/><path fill="#F5EBB2" d="M38 56h1v1h-1z"/><path fill="#F5EEB8" d="M39 56h1v1h-1zM40 56h1v1h-1z"/><path fill="#AD976C" d="M41 56h1v1h-1z"/><path fill="#65401F" d="M42 56h1v1h-1zM43 56h1v1h-1zM44 56h1v1h-1zM45 56h1v1h-1zM46 56h1v1h-1z"/><path fill="#764E22" d="M47 56h1v1h-1z"/><path fill="#8C6025" d="M48 56h1v1h-1zM49 56h1v1h-1zM50 56h1v1h-1zM51 56h1v1h-1zM52 56h1v1h-1zM53 56h1v1h-1zM54 56h1v1h-1zM55 56h1v1h-1zM56 56h1v1h-1zM57 56h1v1h-1zM58 56h1v1h-1zM59 56h1v1h-1zM60 56h1v1h-1zM61 56h1v1h-1z"/><path fill="#AB842F" d="M62 56h1v1h-1z"/><path fill="#CAA739" d="M63 56h1v1h-1zM64 56h1v1h-1zM65 56h1v1h-1zM66 56h1v1h-1zM67 56h1v1h-1zM68 56h1v1h-1zM69 56h1v1h-1z"/><path fill="#4D3C1E" d="M70 56h1v1h-1z"/><path fill="#231815" d="M71 56h1v1h-1zM72 56h1v1h-1zM73 56h1v1h-1z"/><path fill="#65401F" d="M10 57h1v1h-1zM11 57h1v1h-1zM12 57h1v1h-1zM13 57h1v1h-1z"/><path fill="#896C45" d="M14 57h1v1h-1z"/><path fill="#F5EEB8" d="M15 57h1v1h-1zM16 57h1v1h-1zM17 57h1v1h-1zM18 57h1v1h-1z"/><path fill="#F3E9A8" d="M19 57h1v1h-1z"/><path fill="#EBD560" d="M20 57h1v1h-1zM21 57h1v1h-1zM22 57h1v1h-1zM23 57h1v1h-1zM24 57h1v1h-1zM25 57h1v1h-1zM26 57h1v1h-1zM27 57h1v1h-1zM28 57h1v1h-1zM29 57h1v1h-1z"/><path fill="#EED876" d="M30 57h1v1h-1z"/><path fill="#F4DC9A" d="M31 57h1v1h-1zM32 57h1v1h-1zM33 57h1v1h-1zM34 57h1v1h-1zM35 57h1v1h-1zM36 57h1v1h-1z"/><path fill="#F5E6AB" d="M37 57h1v1h-1z"/><path fill="#F5EEB8" d="M38 57h1v1h-1z"/><path fill="#E3D8A5" d="M39 57h1v1h-1z"/><path fill="#80613C" d="M40 57h1v1h-1z"/><path fill="#65401F" d="M41 57h1v1h-1zM42 57h1v1h-1zM43 57h1v1h-1zM44 57h1v1h-1zM45 57h1v1h-1zM46 57h1v1h-1z"/><path fill="#795022" d="M47 57h1v1h-1z"/><path fill="#8C6025" d="M48 57h1v1h-1zM49 57h1v1h-1zM50 57h1v1h-1zM51 57h1v1h-1zM52 57h1v1h-1zM53 57h1v1h-1zM54 57h1v1h-1zM55 57h1v1h-1zM56 57h1v1h-1zM57 57h1v1h-1zM58 57h1v1h-1zM59 57h1v1h-1zM60 57h1v1h-1z"/><path fill="#906426" d="M61 57h1v1h-1z"/><path fill="#C6A338" d="M62 57h1v1h-1z"/><path fill="#CAA739" d="M63 57h1v1h-1zM64 57h1v1h-1zM65 57h1v1h-1zM66 57h1v1h-1zM67 57h1v1h-1zM68 57h1v1h-1z"/><path fill="#B59535" d="M69 57h1v1h-1z"/><path fill="#231815" d="M70 57h1v1h-1zM71 57h1v1h-1zM72 57h1v1h-1zM73 57h1v1h-1z"/><path fill="#65401F" d="M10 58h1v1h-1zM11 58h1v1h-1zM12 58h1v1h-1zM13 58h1v1h-1z"/><path fill="#D1C392" d="M14 58h1v1h-1z"/><path fill="#F5EEB8" d="M15 58h1v1h-1zM16 58h1v1h-1zM17 58h1v1h-1zM18 58h1v1h-1z"/><path fill="#EEDB76" d="M19 58h1v1h-1z"/><path fill="#EBD560" d="M20 58h1v1h-1zM21 58h1v1h-1zM22 58h1v1h-1zM23 58h1v1h-1zM24 58h1v1h-1zM25 58h1v1h-1zM26 58h1v1h-1zM27 58h1v1h-1zM28 58h1v1h-1z"/><path fill="#F1D984" d="M29 58h1v1h-1z"/><path fill="#F4DC9A" d="M30 58h1v1h-1zM31 58h1v1h-1zM32 58h1v1h-1zM33 58h1v1h-1zM34 58h1v1h-1zM35 58h1v1h-1z"/><path fill="#F4E2A3" d="M36 58h1v1h-1z"/><path fill="#F5EEB8" d="M37 58h1v1h-1z"/><path fill="#C8B888" d="M38 58h1v1h-1z"/><path fill="#6E4B29" d="M39 58h1v1h-1z"/><path fill="#65401F" d="M40 58h1v1h-1zM41 58h1v1h-1zM42 58h1v1h-1zM43 58h1v1h-1zM44 58h1v1h-1zM45 58h1v1h-1zM46 58h1v1h-1z"/><path fill="#825824" d="M47 58h1v1h-1z"/><path fill="#8C6025" d="M48 58h1v1h-1zM49 58h1v1h-1zM50 58h1v1h-1zM51 58h1v1h-1zM52 58h1v1h-1zM53 58h1v1h-1zM54 58h1v1h-1zM55 58h1v1h-1zM56 58h1v1h-1zM57 58h1v1h-1zM58 58h1v1h-1zM59 58h1v1h-1zM60 58h1v1h-1z"/><path fill="#AF8830" d="M61 58h1v1h-1z"/><path fill="#CAA739" d="M62 58h1v1h-1zM63 58h1v1h-1zM64 58h1v1h-1zM65 58h1v1h-1zM66 58h1v1h-1zM67 58h1v1h-1zM68 58h1v1h-1z"/><path fill="#624E23" d="M69 58h1v1h-1z"/><path fill="#231815" d="M70 58h1v1h-1zM71 58h1v1h-1zM72 58h1v1h-1zM73 58h1v1h-1z"/><path fill="#65401F" d="M9 59h1v1H9zM10 59h1v1h-1zM11 59h1v1h-1zM12 59h1v1h-1z"/><path fill="#9B8158" d="M13 59h1v1h-1z"/><path fill="#F5EEB8" d="M14 59h1v1h-1zM15 59h1v1h-1zM16 59h1v1h-1zM17 59h1v1h-1z"/><path fill="#F2E69D" d="M18 59h1v1h-1z"/><path fill="#EBD560" d="M19 59h1v1h-1zM20 59h1v1h-1zM21 59h1v1h-1zM22 59h1v1h-1zM23 59h1v1h-1zM24 59h1v1h-1zM25 59h1v1h-1zM26 59h1v1h-1zM27 59h1v1h-1z"/><path fill="#F1D984" d="M28 59h1v1h-1z"/><path fill="#F4DC9A" d="M29 59h1v1h-1zM30 59h1v1h-1zM31 59h1v1h-1zM32 59h1v1h-1zM33 59h1v1h-1zM34 59h1v1h-1z"/><path fill="#F4DD9C" d="M35 59h1v1h-1z"/><path fill="#F5EDB6" d="M36 59h1v1h-1z"/><path fill="#A48C62" d="M37 59h1v1h-1z"/><path fill="#65401F" d="M38 59h1v1h-1zM39 59h1v1h-1zM40 59h1v1h-1zM41 59h1v1h-1zM42 59h1v1h-1zM43 59h1v1h-1zM44 59h1v1h-1zM45 59h1v1h-1zM46 59h1v1h-1z"/><path fill="#8A5E25" d="M47 59h1v1h-1z"/><path fill="#8C6025" d="M48 59h1v1h-1zM49 59h1v1h-1zM50 59h1v1h-1zM51 59h1v1h-1zM52 59h1v1h-1zM53 59h1v1h-1zM54 59h1v1h-1zM55 59h1v1h-1zM56 59h1v1h-1zM57 59h1v1h-1zM58 59h1v1h-1zM59 59h1v1h-1z"/><path fill="#986D29" d="M60 59h1v1h-1z"/><path fill="#CAA739" d="M61 59h1v1h-1zM62 59h1v1h-1zM63 59h1v1h-1zM64 59h1v1h-1zM65 59h1v1h-1zM66 59h1v1h-1zM67 59h1v1h-1z"/><path fill="#B59535" d="M68 59h1v1h-1z"/><path fill="#231815" d="M69 59h1v1h-1zM70 59h1v1h-1zM71 59h1v1h-1zM72 59h1v1h-1z"/><path fill="#65401F" d="M9 60h1v1H9zM10 60h1v1h-1zM11 60h1v1h-1zM12 60h1v1h-1z"/><path fill="#E3D8A5" d="M13 60h1v1h-1z"/><path fill="#F5EEB8" d="M14 60h1v1h-1zM15 60h1v1h-1zM16 60h1v1h-1zM17 60h1v1h-1z"/><path fill="#ECD86B" d="M18 60h1v1h-1z"/><path fill="#EBD560" d="M19 60h1v1h-1zM20 60h1v1h-1zM21 60h1v1h-1zM22 60h1v1h-1zM23 60h1v1h-1zM24 60h1v1h-1zM25 60h1v1h-1z"/><path fill="#ECD564" d="M26 60h1v1h-1z"/><path fill="#F1DA88" d="M27 60h1v1h-1z"/><path fill="#F4DC9A" d="M28 60h1v1h-1zM29 60h1v1h-1zM30 60h1v1h-1zM31 60h1v1h-1zM32 60h1v1h-1zM33 60h1v1h-1zM34 60h1v1h-1z"/><path fill="#ECDEA5" d="M35 60h1v1h-1z"/><path fill="#896C45" d="M36 60h1v1h-1z"/><path fill="#65401F" d="M37 60h1v1h-1zM38 60h1v1h-1zM39 60h1v1h-1zM40 60h1v1h-1zM41 60h1v1h-1zM42 60h1v1h-1zM43 60h1v1h-1zM44 60h1v1h-1zM45 60h1v1h-1z"/><path fill="#6C4620" d="M46 60h1v1h-1z"/><path fill="#8C6025" d="M47 60h1v1h-1zM48 60h1v1h-1zM49 60h1v1h-1zM50 60h1v1h-1zM51 60h1v1h-1zM52 60h1v1h-1zM53 60h1v1h-1zM54 60h1v1h-1zM55 60h1v1h-1zM56 60h1v1h-1zM57 60h1v1h-1zM58 60h1v1h-1zM59 60h1v1h-1z"/><path fill="#BB9534" d="M60 60h1v1h-1z"/><path fill="#CAA739" d="M61 60h1v1h-1zM62 60h1v1h-1zM63 60h1v1h-1zM64 60h1v1h-1zM65 60h1v1h-1zM66 60h1v1h-1zM67 60h1v1h-1z"/><path fill="#574520" d="M68 60h1v1h-1z"/><path fill="#231815" d="M69 60h1v1h-1zM70 60h1v1h-1zM71 60h1v1h-1zM72 60h1v1h-1z"/><path fill="#65401F" d="M8 61h1v1H8zM9 61h1v1H9zM10 61h1v1h-1zM11 61h1v1h-1z"/><path fill="#9B8158" d="M12 61h1v1h-1z"/><path fill="#F5EEB8" d="M13 61h1v1h-1zM14 61h1v1h-1zM15 61h1v1h-1zM16 61h1v1h-1z"/><path fill="#F1E597" d="M17 61h1v1h-1z"/><path fill="#EBD560" d="M18 61h1v1h-1zM19 61h1v1h-1zM20 61h1v1h-1zM21 61h1v1h-1zM22 61h1v1h-1zM23 61h1v1h-1zM24 61h1v1h-1z"/><path fill="#ECD564" d="M25 61h1v1h-1z"/><path fill="#F2DB8F" d="M26 61h1v1h-1z"/><path fill="#F4DC9A" d="M27 61h1v1h-1zM28 61h1v1h-1zM29 61h1v1h-1zM30 61h1v1h-1zM31 61h1v1h-1zM32 61h1v1h-1zM33 61h1v1h-1z"/><path fill="#D0B67D" d="M34 61h1v1h-1z"/><path fill="#6E4B29" d="M35 61h1v1h-1z"/><path fill="#65401F" d="M36 61h1v1h-1zM37 61h1v1h-1zM38 61h1v1h-1zM39 61h1v1h-1zM40 61h1v1h-1zM42 61h1v1h-1zM43 61h1v1h-1zM44 61h1v1h-1zM45 61h1v1h-1z"/><path fill="#7B5222" d="M46 61h1v1h-1z"/><path fill="#8C6025" d="M47 61h1v1h-1zM48 61h1v1h-1zM49 61h1v1h-1zM50 61h1v1h-1zM51 61h1v1h-1zM52 61h1v1h-1zM53 61h1v1h-1zM54 61h1v1h-1zM55 61h1v1h-1zM56 61h1v1h-1zM57 61h1v1h-1zM58 61h1v1h-1z"/><path fill="#A77F2E" d="M59 61h1v1h-1z"/><path fill="#CAA739" d="M60 61h1v1h-1zM61 61h1v1h-1zM62 61h1v1h-1zM63 61h1v1h-1zM64 61h1v1h-1zM65 61h1v1h-1zM66 61h1v1h-1z"/><path fill="#A08330" d="M67 61h1v1h-1z"/><path fill="#231815" d="M68 61h1v1h-1zM69 61h1v1h-1zM70 61h1v1h-1zM71 61h1v1h-1z"/><path fill="#65401F" d="M8 62h1v1H8zM9 62h1v1H9zM10 62h1v1h-1zM11 62h1v1h-1z"/><path fill="#E3D8A5" d="M12 62h1v1h-1z"/><path fill="#F5EEB8" d="M13 62h1v1h-1zM14 62h1v1h-1zM15 62h1v1h-1z"/><path fill="#F4ECB3" d="M16 62h1v1h-1z"/><path fill="#ECD766" d="M17 62h1v1h-1z"/><path fill="#EBD560" d="M18 62h1v1h-1zM19 62h1v1h-1zM20 62h1v1h-1zM21 62h1v1h-1zM22 62h1v1h-1zM23 62h1v1h-1z"/><path fill="#ECD564" d="M24 62h1v1h-1z"/><path fill="#F2DB8F" d="M25 62h1v1h-1z"/><path fill="#F4DC9A" d="M26 62h1v1h-1zM27 62h1v1h-1zM28 62h1v1h-1zM29 62h1v1h-1zM30 62h1v1h-1zM31 62h1v1h-1zM32 62h1v1h-1z"/><path fill="#B59864" d="M33 62h1v1h-1z"/><path fill="#65401F" d="M34 62h1v1h-1zM35 62h1v1h-1zM36 62h1v1h-1zM37 62h1v1h-1zM38 62h1v1h-1zM39 62h1v1h-1zM42 62h1v1h-1zM43 62h1v1h-1zM44 62h1v1h-1zM45 62h1v1h-1z"/><path fill="#8A5E25" d="M46 62h1v1h-1z"/><path fill="#8C6025" d="M47 62h1v1h-1zM48 62h1v1h-1zM49 62h1v1h-1zM50 62h1v1h-1zM51 62h1v1h-1zM52 62h1v1h-1zM53 62h1v1h-1zM54 62h1v1h-1zM55 62h1v1h-1zM56 62h1v1h-1zM57 62h1v1h-1z"/><path fill="#986D29" d="M58 62h1v1h-1z"/><path fill="#CAA739" d="M59 62h1v1h-1zM60 62h1v1h-1zM61 62h1v1h-1zM62 62h1v1h-1zM63 62h1v1h-1zM64 62h1v1h-1zM65 62h1v1h-1zM66 62h1v1h-1z"/><path fill="#382A1A" d="M67 62h1v1h-1z"/><path fill="#231815" d="M68 62h1v1h-1zM69 62h1v1h-1zM70 62h1v1h-1zM71 62h1v1h-1z"/><path fill="#65401F" d="M7 63h1v1H7zM8 63h1v1H8zM9 63h1v1H9zM10 63h1v1h-1z"/><path fill="#9B8158" d="M11 63h1v1h-1z"/><path fill="#F5EEB8" d="M12 63h1v1h-1zM13 63h1v1h-1zM14 63h1v1h-1zM15 63h1v1h-1z"/><path fill="#F0E28C" d="M16 63h1v1h-1z"/><path fill="#EBD560" d="M17 63h1v1h-1zM18 63h1v1h-1zM19 63h1v1h-1zM20 63h1v1h-1zM21 63h1v1h-1zM22 63h1v1h-1z"/><path fill="#ECD564" d="M23 63h1v1h-1z"/><path fill="#F2DB8F" d="M24 63h1v1h-1z"/><path fill="#F4DC9A" d="M25 63h1v1h-1zM26 63h1v1h-1zM27 63h1v1h-1zM28 63h1v1h-1zM29 63h1v1h-1zM30 63h1v1h-1z"/><path fill="#EBD292" d="M31 63h1v1h-1z"/><path fill="#9B7B4D" d="M32 63h1v1h-1z"/><path fill="#65401F" d="M33 63h1v1h-1zM34 63h1v1h-1zM35 63h1v1h-1zM36 63h1v1h-1zM37 63h1v1h-1zM38 63h1v1h-1zM41 63h1v1h-1zM42 63h1v1h-1zM43 63h1v1h-1zM44 63h1v1h-1z"/><path fill="#744C21" d="M45 63h1v1h-1z"/><path fill="#8C6025" d="M46 63h1v1h-1zM47 63h1v1h-1zM48 63h1v1h-1zM49 63h1v1h-1zM50 63h1v1h-1zM51 63h1v1h-1zM52 63h1v1h-1zM53 63h1v1h-1zM54 63h1v1h-1zM55 63h1v1h-1zM56 63h1v1h-1z"/><path fill="#906426" d="M57 63h1v1h-1z"/><path fill="#BE9A35" d="M58 63h1v1h-1z"/><path fill="#CAA739" d="M59 63h1v1h-1zM60 63h1v1h-1zM61 63h1v1h-1zM62 63h1v1h-1zM63 63h1v1h-1zM64 63h1v1h-1zM65 63h1v1h-1z"/><path fill="#776027" d="M66 63h1v1h-1z"/><path fill="#231815" d="M67 63h1v1h-1zM68 63h1v1h-1zM69 63h1v1h-1zM70 63h1v1h-1z"/><path fill="#65401F" d="M7 64h1v1H7zM8 64h1v1H8zM9 64h1v1H9zM10 64h1v1h-1z"/><path fill="#E3D8A5" d="M11 64h1v1h-1z"/><path fill="#F5EEB8" d="M12 64h1v1h-1zM13 64h1v1h-1zM14 64h1v1h-1z"/><path fill="#F4ECB3" d="M15 64h1v1h-1z"/><path fill="#ECD766" d="M16 64h1v1h-1z"/><path fill="#EBD560" d="M17 64h1v1h-1zM18 64h1v1h-1zM19 64h1v1h-1zM20 64h1v1h-1zM21 64h1v1h-1z"/><path fill="#EDD66B" d="M22 64h1v1h-1z"/><path fill="#F3DB93" d="M23 64h1v1h-1z"/><path fill="#F4DC9A" d="M24 64h1v1h-1zM25 64h1v1h-1zM26 64h1v1h-1zM27 64h1v1h-1zM28 64h1v1h-1zM29 64h1v1h-1z"/><path fill="#D9BF83" d="M30 64h1v1h-1z"/><path fill="#805D36" d="M31 64h1v1h-1z"/><path fill="#65401F" d="M32 64h1v1h-1zM33 64h1v1h-1zM34 64h1v1h-1zM35 64h1v1h-1zM36 64h1v1h-1zM41 64h1v1h-1zM42 64h1v1h-1zM43 64h1v1h-1zM44 64h1v1h-1z"/><path fill="#825824" d="M45 64h1v1h-1z"/><path fill="#8C6025" d="M46 64h1v1h-1zM47 64h1v1h-1zM48 64h1v1h-1zM49 64h1v1h-1zM50 64h1v1h-1zM51 64h1v1h-1zM52 64h1v1h-1zM53 64h1v1h-1zM54 64h1v1h-1zM55 64h1v1h-1zM56 64h1v1h-1z"/><path fill="#B79133" d="M57 64h1v1h-1z"/><path fill="#CAA739" d="M58 64h1v1h-1zM59 64h1v1h-1zM60 64h1v1h-1zM61 64h1v1h-1zM62 64h1v1h-1zM63 64h1v1h-1zM64 64h1v1h-1z"/><path fill="#A08330" d="M65 64h1v1h-1z"/><path fill="#231815" d="M66 64h1v1h-1zM67 64h1v1h-1zM68 64h1v1h-1zM69 64h1v1h-1z"/><path fill="#65401F" d="M6 65h1v1H6zM7 65h1v1H7zM8 65h1v1H8zM9 65h1v1H9z"/><path fill="#9B8158" d="M10 65h1v1h-1z"/><path fill="#F5EEB8" d="M11 65h1v1h-1zM12 65h1v1h-1zM13 65h1v1h-1zM14 65h1v1h-1z"/><path fill="#F0E28C" d="M15 65h1v1h-1z"/><path fill="#EBD560" d="M16 65h1v1h-1zM17 65h1v1h-1zM18 65h1v1h-1zM19 65h1v1h-1zM20 65h1v1h-1z"/><path fill="#EDD66B" d="M21 65h1v1h-1z"/><path fill="#F3DC96" d="M22 65h1v1h-1z"/><path fill="#F4DC9A" d="M23 65h1v1h-1zM24 65h1v1h-1zM25 65h1v1h-1zM26 65h1v1h-1zM27 65h1v1h-1zM28 65h1v1h-1z"/><path fill="#C7AB74" d="M29 65h1v1h-1z"/><path fill="#6E4A27" d="M30 65h1v1h-1z"/><path fill="#65401F" d="M31 65h1v1h-1zM32 65h1v1h-1zM33 65h1v1h-1zM34 65h1v1h-1zM35 65h1v1h-1zM40 65h1v1h-1zM41 65h1v1h-1zM42 65h1v1h-1zM43 65h1v1h-1z"/><path fill="#6F4821" d="M44 65h1v1h-1z"/><path fill="#8C6025" d="M45 65h1v1h-1zM46 65h1v1h-1zM47 65h1v1h-1zM48 65h1v1h-1zM49 65h1v1h-1zM50 65h1v1h-1zM51 65h1v1h-1zM52 65h1v1h-1zM53 65h1v1h-1zM54 65h1v1h-1zM55 65h1v1h-1z"/><path fill="#B38C32" d="M56 65h1v1h-1z"/><path fill="#CAA739" d="M57 65h1v1h-1zM58 65h1v1h-1zM59 65h1v1h-1zM60 65h1v1h-1zM61 65h1v1h-1zM62 65h1v1h-1zM63 65h1v1h-1z"/><path fill="#C09E37" d="M64 65h1v1h-1z"/><path fill="#2D2117" d="M65 65h1v1h-1z"/><path fill="#231815" d="M66 65h1v1h-1zM67 65h1v1h-1zM68 65h1v1h-1zM69 65h1v1h-1z"/><path fill="#65401F" d="M6 66h1v1H6zM7 66h1v1H7zM8 66h1v1H8zM9 66h1v1H9z"/><path fill="#E3D8A5" d="M10 66h1v1h-1z"/><path fill="#F5EEB8" d="M11 66h1v1h-1zM12 66h1v1h-1zM13 66h1v1h-1z"/><path fill="#F4ECB3" d="M14 66h1v1h-1z"/><path fill="#ECD766" d="M15 66h1v1h-1z"/><path fill="#EBD560" d="M16 66h1v1h-1zM17 66h1v1h-1zM18 66h1v1h-1zM19 66h1v1h-1z"/><path fill="#EDD66B" d="M20 66h1v1h-1z"/><path fill="#F3DC96" d="M21 66h1v1h-1z"/><path fill="#F4DC9A" d="M22 66h1v1h-1zM23 66h1v1h-1zM24 66h1v1h-1zM25 66h1v1h-1zM26 66h1v1h-1zM27 66h1v1h-1z"/><path fill="#B59864" d="M28 66h1v1h-1z"/><path fill="#65401F" d="M29 66h1v1h-1zM30 66h1v1h-1zM31 66h1v1h-1zM32 66h1v1h-1zM33 66h1v1h-1zM34 66h1v1h-1zM40 66h1v1h-1zM41 66h1v1h-1zM42 66h1v1h-1zM43 66h1v1h-1z"/><path fill="#825824" d="M44 66h1v1h-1z"/><path fill="#8C6025" d="M45 66h1v1h-1zM46 66h1v1h-1zM47 66h1v1h-1zM48 66h1v1h-1zM49 66h1v1h-1zM50 66h1v1h-1zM51 66h1v1h-1zM52 66h1v1h-1zM53 66h1v1h-1zM54 66h1v1h-1z"/><path fill="#A37B2D" d="M55 66h1v1h-1z"/><path fill="#CAA739" d="M56 66h1v1h-1zM57 66h1v1h-1zM58 66h1v1h-1zM59 66h1v1h-1zM60 66h1v1h-1zM61 66h1v1h-1zM62 66h1v1h-1zM63 66h1v1h-1z"/><path fill="#42331C" d="M64 66h1v1h-1z"/><path fill="#231815" d="M65 66h1v1h-1zM66 66h1v1h-1zM67 66h1v1h-1zM68 66h1v1h-1z"/><path fill="#65401F" d="M5 67h1v1H5zM6 67h1v1H6zM7 67h1v1H7zM8 67h1v1H8z"/><path fill="#92764F" d="M9 67h1v1H9z"/><path fill="#F5EEB8" d="M10 67h1v1h-1zM11 67h1v1h-1zM12 67h1v1h-1zM13 67h1v1h-1z"/><path fill="#F0E28C" d="M14 67h1v1h-1z"/><path fill="#EBD560" d="M15 67h1v1h-1zM16 67h1v1h-1zM17 67h1v1h-1zM18 67h1v1h-1z"/><path fill="#EDD66B" d="M19 67h1v1h-1z"/><path fill="#F3DC96" d="M20 67h1v1h-1z"/><path fill="#F4DC9A" d="M21 67h1v1h-1zM22 67h1v1h-1zM23 67h1v1h-1zM24 67h1v1h-1zM25 67h1v1h-1z"/><path fill="#EBD292" d="M26 67h1v1h-1z"/><path fill="#9B7B4D" d="M27 67h1v1h-1z"/><path fill="#65401F" d="M28 67h1v1h-1zM29 67h1v1h-1zM30 67h1v1h-1zM31 67h1v1h-1zM32 67h1v1h-1zM39 67h1v1h-1zM40 67h1v1h-1zM41 67h1v1h-1zM42 67h1v1h-1z"/><path fill="#714A21" d="M43 67h1v1h-1z"/><path fill="#8C6025" d="M44 67h1v1h-1zM45 67h1v1h-1zM46 67h1v1h-1zM47 67h1v1h-1zM48 67h1v1h-1zM49 67h1v1h-1zM50 67h1v1h-1zM51 67h1v1h-1zM52 67h1v1h-1zM53 67h1v1h-1z"/><path fill="#A37B2D" d="M54 67h1v1h-1z"/><path fill="#CAA739" d="M55 67h1v1h-1zM56 67h1v1h-1zM57 67h1v1h-1zM58 67h1v1h-1zM59 67h1v1h-1zM60 67h1v1h-1zM61 67h1v1h-1zM62 67h1v1h-1z"/><path fill="#624E23" d="M63 67h1v1h-1z"/><path fill="#231815" d="M64 67h1v1h-1zM65 67h1v1h-1zM66 67h1v1h-1zM67 67h1v1h-1z"/><path fill="#65401F" d="M5 68h1v1H5zM6 68h1v1H6zM7 68h1v1H7zM8 68h1v1H8z"/><path fill="#D1C392" d="M9 68h1v1H9z"/><path fill="#F5EEB8" d="M10 68h1v1h-1zM11 68h1v1h-1zM12 68h1v1h-1z"/><path fill="#F4ECB3" d="M13 68h1v1h-1z"/><path fill="#ECD766" d="M14 68h1v1h-1z"/><path fill="#EBD560" d="M15 68h1v1h-1zM16 68h1v1h-1zM17 68h1v1h-1z"/><path fill="#EDD66B" d="M18 68h1v1h-1z"/><path fill="#F3DC96" d="M19 68h1v1h-1z"/><path fill="#F4DC9A" d="M20 68h1v1h-1zM21 68h1v1h-1zM22 68h1v1h-1zM23 68h1v1h-1zM24 68h1v1h-1z"/><path fill="#E2C98B" d="M25 68h1v1h-1z"/><path fill="#805D36" d="M26 68h1v1h-1z"/><path fill="#65401F" d="M27 68h1v1h-1zM28 68h1v1h-1zM29 68h1v1h-1zM30 68h1v1h-1zM31 68h1v1h-1zM38 68h1v1h-1zM39 68h1v1h-1zM40 68h1v1h-1zM41 68h1v1h-1z"/><path fill="#67421F" d="M42 68h1v1h-1z"/><path fill="#875C24" d="M43 68h1v1h-1z"/><path fill="#8C6025" d="M44 68h1v1h-1zM45 68h1v1h-1zM46 68h1v1h-1zM47 68h1v1h-1zM48 68h1v1h-1zM49 68h1v1h-1zM50 68h1v1h-1zM51 68h1v1h-1zM52 68h1v1h-1z"/><path fill="#A77F2E" d="M53 68h1v1h-1z"/><path fill="#CAA739" d="M54 68h1v1h-1zM55 68h1v1h-1zM56 68h1v1h-1zM57 68h1v1h-1zM58 68h1v1h-1zM59 68h1v1h-1zM60 68h1v1h-1zM61 68h1v1h-1z"/><path fill="#624E23" d="M62 68h1v1h-1z"/><path fill="#231815" d="M63 68h1v1h-1zM64 68h1v1h-1zM65 68h1v1h-1zM66 68h1v1h-1zM67 68h1v1h-1z"/><path fill="#65401F" d="M5 69h1v1H5zM6 69h1v1H6zM7 69h1v1H7z"/><path fill="#896C45" d="M8 69h1v1H8z"/><path fill="#F5EEB8" d="M9 69h1v1H9zM10 69h1v1h-1zM11 69h1v1h-1zM12 69h1v1h-1z"/><path fill="#F0E28C" d="M13 69h1v1h-1z"/><path fill="#EBD560" d="M14 69h1v1h-1zM15 69h1v1h-1zM16 69h1v1h-1z"/><path fill="#EDD66B" d="M17 69h1v1h-1z"/><path fill="#F3DC96" d="M18 69h1v1h-1z"/><path fill="#F4DC9A" d="M19 69h1v1h-1zM20 69h1v1h-1zM21 69h1v1h-1zM22 69h1v1h-1zM23 69h1v1h-1z"/><path fill="#D9BF83" d="M24 69h1v1h-1z"/><path fill="#6E4A27" d="M25 69h1v1h-1z"/><path fill="#65401F" d="M26 69h1v1h-1zM27 69h1v1h-1zM28 69h1v1h-1zM29 69h1v1h-1zM30 69h1v1h-1zM38 69h1v1h-1zM39 69h1v1h-1zM40 69h1v1h-1zM41 69h1v1h-1z"/><path fill="#795022" d="M42 69h1v1h-1z"/><path fill="#8C6025" d="M43 69h1v1h-1zM44 69h1v1h-1zM45 69h1v1h-1zM46 69h1v1h-1zM47 69h1v1h-1zM48 69h1v1h-1zM49 69h1v1h-1zM50 69h1v1h-1zM51 69h1v1h-1z"/><path fill="#B38C32" d="M52 69h1v1h-1z"/><path fill="#CAA739" d="M53 69h1v1h-1zM54 69h1v1h-1zM55 69h1v1h-1zM56 69h1v1h-1zM57 69h1v1h-1zM58 69h1v1h-1zM59 69h1v1h-1zM60 69h1v1h-1z"/><path fill="#624E23" d="M61 69h1v1h-1z"/><path fill="#231815" d="M62 69h1v1h-1zM63 69h1v1h-1zM64 69h1v1h-1zM65 69h1v1h-1zM66 69h1v1h-1z"/><path fill="#65401F" d="M4 70h1v1H4zM5 70h1v1H5zM6 70h1v1H6zM7 70h1v1H7z"/><path fill="#C8B888" d="M8 70h1v1H8z"/><path fill="#F5EEB8" d="M9 70h1v1H9zM10 70h1v1h-1zM11 70h1v1h-1z"/><path fill="#F4ECB3" d="M12 70h1v1h-1z"/><path fill="#ECD766" d="M13 70h1v1h-1z"/><path fill="#EBD560" d="M14 70h1v1h-1zM15 70h1v1h-1z"/><path fill="#EDD66B" d="M16 70h1v1h-1z"/><path fill="#F3DC96" d="M17 70h1v1h-1z"/><path fill="#F4DC9A" d="M18 70h1v1h-1zM19 70h1v1h-1zM20 70h1v1h-1zM21 70h1v1h-1zM22 70h1v1h-1z"/><path fill="#BEA26C" d="M23 70h1v1h-1z"/><path fill="#65401F" d="M24 70h1v1h-1zM25 70h1v1h-1zM26 70h1v1h-1zM27 70h1v1h-1zM28 70h1v1h-1zM29 70h1v1h-1zM37 70h1v1h-1zM38 70h1v1h-1zM39 70h1v1h-1zM40 70h1v1h-1z"/><path fill="#6C4620" d="M41 70h1v1h-1z"/><path fill="#8C6025" d="M42 70h1v1h-1zM43 70h1v1h-1zM44 70h1v1h-1zM45 70h1v1h-1zM46 70h1v1h-1zM47 70h1v1h-1zM48 70h1v1h-1zM49 70h1v1h-1z"/><path fill="#906426" d="M50 70h1v1h-1z"/><path fill="#BB9534" d="M51 70h1v1h-1z"/><path fill="#CAA739" d="M52 70h1v1h-1zM53 70h1v1h-1zM54 70h1v1h-1zM55 70h1v1h-1zM56 70h1v1h-1zM57 70h1v1h-1zM58 70h1v1h-1zM59 70h1v1h-1z"/><path fill="#624E23" d="M60 70h1v1h-1z"/><path fill="#231815" d="M61 70h1v1h-1zM62 70h1v1h-1zM63 70h1v1h-1zM64 70h1v1h-1zM65 70h1v1h-1z"/><path fill="#65401F" d="M4 71h1v1H4zM5 71h1v1H5zM6 71h1v1H6z"/><path fill="#775632" d="M7 71h1v1H7z"/><path fill="#F5EEB8" d="M8 71h1v1H8zM9 71h1v1H9zM10 71h1v1h-1zM11 71h1v1h-1z"/><path fill="#F0E28C" d="M12 71h1v1h-1z"/><path fill="#EBD560" d="M13 71h1v1h-1zM14 71h1v1h-1z"/><path fill="#EDD66B" d="M15 71h1v1h-1z"/><path fill="#F3DC96" d="M16 71h1v1h-1z"/><path fill="#F4DC9A" d="M17 71h1v1h-1zM18 71h1v1h-1zM19 71h1v1h-1zM20 71h1v1h-1zM21 71h1v1h-1z"/><path fill="#9B7B4D" d="M22 71h1v1h-1z"/><path fill="#65401F" d="M23 71h1v1h-1zM24 71h1v1h-1zM25 71h1v1h-1zM26 71h1v1h-1zM27 71h1v1h-1zM28 71h1v1h-1zM36 71h1v1h-1zM37 71h1v1h-1zM38 71h1v1h-1zM39 71h1v1h-1z"/><path fill="#67421F" d="M40 71h1v1h-1z"/><path fill="#875C24" d="M41 71h1v1h-1z"/><path fill="#8C6025" d="M42 71h1v1h-1zM43 71h1v1h-1zM44 71h1v1h-1zM45 71h1v1h-1zM46 71h1v1h-1zM47 71h1v1h-1zM48 71h1v1h-1z"/><path fill="#9C722A" d="M49 71h1v1h-1z"/><path fill="#C6A338" d="M50 71h1v1h-1z"/><path fill="#CAA739" d="M51 71h1v1h-1zM52 71h1v1h-1zM53 71h1v1h-1zM54 71h1v1h-1zM55 71h1v1h-1zM56 71h1v1h-1zM57 71h1v1h-1z"/><path fill="#C09E37" d="M58 71h1v1h-1z"/><path fill="#624E23" d="M59 71h1v1h-1z"/><path fill="#231815" d="M60 71h1v1h-1zM61 71h1v1h-1zM62 71h1v1h-1zM63 71h1v1h-1zM64 71h1v1h-1z"/><path fill="#65401F" d="M3 72h1v1H3zM4 72h1v1H4zM5 72h1v1H5zM6 72h1v1H6z"/><path fill="#BFAD7F" d="M7 72h1v1H7z"/><path fill="#F5EEB8" d="M8 72h1v1H8zM9 72h1v1H9zM10 72h1v1h-1z"/><path fill="#F4EBAD" d="M11 72h1v1h-1z"/><path fill="#ECD766" d="M12 72h1v1h-1z"/><path fill="#EBD560" d="M13 72h1v1h-1z"/><path fill="#EDD66B" d="M14 72h1v1h-1z"/><path fill="#F3DC96" d="M15 72h1v1h-1z"/><path fill="#F4DC9A" d="M16 72h1v1h-1zM17 72h1v1h-1zM18 72h1v1h-1zM19 72h1v1h-1z"/><path fill="#EBD292" d="M20 72h1v1h-1z"/><path fill="#89673E" d="M21 72h1v1h-1z"/><path fill="#65401F" d="M22 72h1v1h-1zM23 72h1v1h-1zM24 72h1v1h-1zM25 72h1v1h-1zM26 72h1v1h-1zM33 72h1v1h-1zM34 72h1v1h-1zM35 72h1v1h-1zM36 72h1v1h-1zM37 72h1v1h-1zM38 72h1v1h-1zM39 72h1v1h-1z"/><path fill="#825824" d="M40 72h1v1h-1z"/><path fill="#8C6025" d="M41 72h1v1h-1zM42 72h1v1h-1zM43 72h1v1h-1zM44 72h1v1h-1zM45 72h1v1h-1zM46 72h1v1h-1z"/><path fill="#906426" d="M47 72h1v1h-1z"/><path fill="#AF8830" d="M48 72h1v1h-1z"/><path fill="#CAA739" d="M49 72h1v1h-1zM50 72h1v1h-1zM51 72h1v1h-1zM52 72h1v1h-1zM53 72h1v1h-1zM54 72h1v1h-1zM55 72h1v1h-1zM56 72h1v1h-1z"/><path fill="#B59535" d="M57 72h1v1h-1z"/><path fill="#42331C" d="M58 72h1v1h-1z"/><path fill="#231815" d="M59 72h1v1h-1zM60 72h1v1h-1zM61 72h1v1h-1zM62 72h1v1h-1zM63 72h1v1h-1z"/><path fill="#65401F" d="M3 73h1v1H3zM4 73h1v1H4zM5 73h1v1H5z"/><path fill="#6E4B29" d="M6 73h1v1H6z"/><path fill="#ECE3AE" d="M7 73h1v1H7z"/><path fill="#F5EEB8" d="M8 73h1v1H8zM9 73h1v1H9zM10 73h1v1h-1z"/><path fill="#EFDE81" d="M11 73h1v1h-1z"/><path fill="#EBD560" d="M12 73h1v1h-1z"/><path fill="#ECD564" d="M13 73h1v1h-1z"/><path fill="#F2DB8F" d="M14 73h1v1h-1z"/><path fill="#F4DC9A" d="M15 73h1v1h-1zM16 73h1v1h-1zM17 73h1v1h-1zM18 73h1v1h-1z"/><path fill="#D9BF83" d="M19 73h1v1h-1z"/><path fill="#805D36" d="M20 73h1v1h-1z"/><path fill="#65401F" d="M21 73h1v1h-1zM22 73h1v1h-1zM23 73h1v1h-1zM24 73h1v1h-1zM25 73h1v1h-1zM31 73h1v1h-1zM32 73h1v1h-1zM33 73h1v1h-1zM34 73h1v1h-1zM35 73h1v1h-1zM36 73h1v1h-1zM37 73h1v1h-1z"/><path fill="#67421F" d="M38 73h1v1h-1z"/><path fill="#7D5423" d="M39 73h1v1h-1z"/><path fill="#8C6025" d="M40 73h1v1h-1zM41 73h1v1h-1zM42 73h1v1h-1zM43 73h1v1h-1zM44 73h1v1h-1zM45 73h1v1h-1z"/><path fill="#A37B2D" d="M46 73h1v1h-1z"/><path fill="#C6A338" d="M47 73h1v1h-1z"/><path fill="#CAA739" d="M48 73h1v1h-1zM49 73h1v1h-1zM50 73h1v1h-1zM51 73h1v1h-1zM52 73h1v1h-1zM53 73h1v1h-1zM54 73h1v1h-1zM55 73h1v1h-1z"/><path fill="#967A2E" d="M56 73h1v1h-1z"/><path fill="#2D2117" d="M57 73h1v1h-1z"/><path fill="#231815" d="M58 73h1v1h-1zM59 73h1v1h-1zM60 73h1v1h-1zM61 73h1v1h-1zM62 73h1v1h-1z"/><path fill="#65401F" d="M2 74h1v1H2zM3 74h1v1H3zM4 74h1v1H4zM5 74h1v1H5z"/><path fill="#9B8158" d="M6 74h1v1H6z"/><path fill="#F5EEB8" d="M7 74h1v1H7zM8 74h1v1H8zM9 74h1v1H9z"/><path fill="#F4EBAD" d="M10 74h1v1h-1z"/><path fill="#EBD560" d="M11 74h1v1h-1z"/><path fill="#ECD564" d="M12 74h1v1h-1z"/><path fill="#F2DB8F" d="M13 74h1v1h-1z"/><path fill="#F4DC9A" d="M14 74h1v1h-1zM15 74h1v1h-1zM16 74h1v1h-1zM17 74h1v1h-1z"/><path fill="#D0B57B" d="M18 74h1v1h-1z"/><path fill="#6E4A27" d="M19 74h1v1h-1z"/><path fill="#65401F" d="M20 74h1v1h-1zM21 74h1v1h-1zM22 74h1v1h-1zM23 74h1v1h-1zM24 74h1v1h-1zM30 74h1v1h-1zM31 74h1v1h-1zM32 74h1v1h-1zM33 74h1v1h-1zM34 74h1v1h-1zM35 74h1v1h-1zM36 74h1v1h-1z"/><path fill="#6C4620" d="M37 74h1v1h-1z"/><path fill="#855A24" d="M38 74h1v1h-1z"/><path fill="#8C6025" d="M39 74h1v1h-1zM40 74h1v1h-1zM41 74h1v1h-1zM42 74h1v1h-1zM43 74h1v1h-1z"/><path fill="#A37B2D" d="M44 74h1v1h-1z"/><path fill="#C29E37" d="M45 74h1v1h-1z"/><path fill="#CAA739" d="M46 74h1v1h-1zM47 74h1v1h-1zM48 74h1v1h-1zM49 74h1v1h-1zM50 74h1v1h-1zM51 74h1v1h-1zM52 74h1v1h-1zM53 74h1v1h-1z"/><path fill="#C09E37" d="M54 74h1v1h-1z"/><path fill="#574520" d="M55 74h1v1h-1z"/><path fill="#231815" d="M56 74h1v1h-1zM57 74h1v1h-1zM58 74h1v1h-1zM59 74h1v1h-1zM60 74h1v1h-1zM61 74h1v1h-1z"/><path fill="#65401F" d="M2 75h1v1H2zM3 75h1v1H3zM4 75h1v1H4zM5 75h1v1H5z"/><path fill="#E3D8A5" d="M6 75h1v1H6z"/><path fill="#F5EEB8" d="M7 75h1v1H7zM8 75h1v1H8zM9 75h1v1H9z"/><path fill="#EFDE81" d="M10 75h1v1h-1z"/><path fill="#ECD564" d="M11 75h1v1h-1z"/><path fill="#F2DB8F" d="M12 75h1v1h-1z"/><path fill="#F4DC9A" d="M13 75h1v1h-1zM14 75h1v1h-1zM15 75h1v1h-1zM16 75h1v1h-1z"/><path fill="#B59864" d="M17 75h1v1h-1z"/><path fill="#65401F" d="M18 75h1v1h-1zM19 75h1v1h-1zM20 75h1v1h-1zM21 75h1v1h-1zM22 75h1v1h-1zM23 75h1v1h-1zM29 75h1v1h-1zM30 75h1v1h-1zM31 75h1v1h-1zM32 75h1v1h-1zM33 75h1v1h-1z"/><path fill="#67421F" d="M34 75h1v1h-1z"/><path fill="#764E22" d="M35 75h1v1h-1z"/><path fill="#805623" d="M36 75h1v1h-1z"/><path fill="#8C6025" d="M37 75h1v1h-1zM38 75h1v1h-1zM39 75h1v1h-1zM40 75h1v1h-1z"/><path fill="#946928" d="M41 75h1v1h-1z"/><path fill="#AB842F" d="M42 75h1v1h-1z"/><path fill="#C29E37" d="M43 75h1v1h-1z"/><path fill="#CAA739" d="M44 75h1v1h-1zM45 75h1v1h-1zM46 75h1v1h-1zM47 75h1v1h-1zM48 75h1v1h-1zM49 75h1v1h-1zM50 75h1v1h-1zM51 75h1v1h-1zM52 75h1v1h-1z"/><path fill="#8B712C" d="M53 75h1v1h-1z"/><path fill="#2D2117" d="M54 75h1v1h-1z"/><path fill="#231815" d="M55 75h1v1h-1zM56 75h1v1h-1zM57 75h1v1h-1zM58 75h1v1h-1zM59 75h1v1h-1zM60 75h1v1h-1z"/><path fill="#65401F" d="M2 76h1v1H2zM3 76h1v1H3zM4 76h1v1H4z"/><path fill="#896C45" d="M5 76h1v1H5z"/><path fill="#F5EEB8" d="M6 76h1v1H6zM7 76h1v1H7zM8 76h1v1H8z"/><path fill="#F3E8A2" d="M9 76h1v1H9z"/><path fill="#EBD560" d="M10 76h1v1h-1z"/><path fill="#F2DA8C" d="M11 76h1v1h-1z"/><path fill="#F4DC9A" d="M12 76h1v1h-1zM13 76h1v1h-1zM14 76h1v1h-1zM15 76h1v1h-1z"/><path fill="#9B7B4D" d="M16 76h1v1h-1z"/><path fill="#65401F" d="M17 76h1v1h-1zM18 76h1v1h-1zM19 76h1v1h-1zM20 76h1v1h-1zM21 76h1v1h-1z"/><path fill="#55361D" d="M29 76h1v1h-1z"/><path fill="#59391D" d="M30 76h1v1h-1z"/><path fill="#65401F" d="M31 76h1v1h-1zM32 76h1v1h-1z"/><path fill="#714A21" d="M33 76h1v1h-1z"/><path fill="#8A5E25" d="M34 76h1v1h-1z"/><path fill="#8C6025" d="M35 76h1v1h-1zM36 76h1v1h-1zM37 76h1v1h-1z"/><path fill="#A6844A" d="M38 76h1v1h-1z"/><path fill="#AB842F" d="M39 76h1v1h-1z"/><path fill="#BE9A35" d="M40 76h1v1h-1z"/><path fill="#CAA739" d="M41 76h1v1h-1zM42 76h1v1h-1zM43 76h1v1h-1zM44 76h1v1h-1zM45 76h1v1h-1zM46 76h1v1h-1zM47 76h1v1h-1zM48 76h1v1h-1zM49 76h1v1h-1zM50 76h1v1h-1z"/><path fill="#8B712C" d="M51 76h1v1h-1z"/><path fill="#382A1A" d="M52 76h1v1h-1z"/><path fill="#231815" d="M53 76h1v1h-1zM54 76h1v1h-1zM55 76h1v1h-1zM56 76h1v1h-1zM57 76h1v1h-1zM58 76h1v1h-1z"/><path fill="#65401F" d="M1 77h1v1H1zM2 77h1v1H2zM3 77h1v1H3zM4 77h1v1H4z"/><path fill="#BFAD7F" d="M5 77h1v1H5z"/><path fill="#F5EEB8" d="M6 77h1v1H6zM7 77h1v1H7zM8 77h1v1H8z"/><path fill="#EEDB76" d="M9 77h1v1H9z"/><path fill="#F1D984" d="M10 77h1v1h-1z"/><path fill="#F4DC9A" d="M11 77h1v1h-1zM12 77h1v1h-1zM13 77h1v1h-1z"/><path fill="#EBD292" d="M14 77h1v1h-1z"/><path fill="#805D36" d="M15 77h1v1h-1z"/><path fill="#65401F" d="M16 77h1v1h-1zM17 77h1v1h-1zM18 77h1v1h-1zM19 77h1v1h-1zM20 77h1v1h-1z"/><path fill="#2E1F17" d="M28 77h1v1h-1z"/><path fill="#231815" d="M29 77h1v1h-1zM30 77h1v1h-1z"/><path fill="#442C1A" d="M31 77h1v1h-1z"/><path fill="#8E7046" d="M32 77h1v1h-1z"/><path fill="#C1A76F" d="M33 77h1v1h-1zM34 77h1v1h-1z"/><path fill="#D4C28A" d="M35 77h1v1h-1z"/><path fill="#E1D39C" d="M36 77h1v1h-1z"/><path fill="#F5EEB8" d="M37 77h1v1h-1z"/><path fill="#F0E5A8" d="M38 77h1v1h-1z"/><path fill="#CAA739" d="M39 77h1v1h-1zM40 77h1v1h-1zM41 77h1v1h-1zM42 77h1v1h-1zM43 77h1v1h-1zM44 77h1v1h-1zM45 77h1v1h-1zM46 77h1v1h-1zM47 77h1v1h-1zM48 77h1v1h-1z"/><path fill="#8B712C" d="M49 77h1v1h-1z"/><path fill="#382A1A" d="M50 77h1v1h-1z"/><path fill="#231815" d="M51 77h1v1h-1zM52 77h1v1h-1zM53 77h1v1h-1zM54 77h1v1h-1zM55 77h1v1h-1zM56 77h1v1h-1zM57 77h1v1h-1z"/><path fill="#65401F" d="M1 78h1v1H1zM2 78h1v1H2zM3 78h1v1H3zM4 78h1v1H4z"/><path fill="#ECE3AE" d="M5 78h1v1H5z"/><path fill="#F5EEB8" d="M6 78h1v1H6zM7 78h1v1H7z"/><path fill="#F3E8A2" d="M8 78h1v1H8z"/><path fill="#F0D981" d="M9 78h1v1H9z"/><path fill="#F4DC9A" d="M10 78h1v1h-1zM11 78h1v1h-1zM12 78h1v1h-1z"/><path fill="#D9BF83" d="M13 78h1v1h-1z"/><path fill="#77542E" d="M14 78h1v1h-1z"/><path fill="#65401F" d="M15 78h1v1h-1zM16 78h1v1h-1zM17 78h1v1h-1zM18 78h1v1h-1zM19 78h1v1h-1z"/><path fill="#231815" d="M28 78h1v1h-1zM29 78h1v1h-1zM30 78h1v1h-1z"/><path fill="#46382B" d="M31 78h1v1h-1z"/><path fill="#ECE3AE" d="M32 78h1v1h-1z"/><path fill="#F5EEB8" d="M33 78h1v1h-1zM34 78h1v1h-1zM35 78h1v1h-1zM36 78h1v1h-1zM37 78h1v1h-1z"/><path fill="#E5D388" d="M38 78h1v1h-1z"/><path fill="#CAA739" d="M39 78h1v1h-1zM40 78h1v1h-1zM41 78h1v1h-1zM42 78h1v1h-1zM43 78h1v1h-1zM44 78h1v1h-1zM45 78h1v1h-1z"/><path fill="#AB8C32" d="M46 78h1v1h-1z"/><path fill="#6C5725" d="M47 78h1v1h-1z"/><path fill="#2D2117" d="M48 78h1v1h-1z"/><path fill="#231815" d="M49 78h1v1h-1zM50 78h1v1h-1zM51 78h1v1h-1zM52 78h1v1h-1zM53 78h1v1h-1zM54 78h1v1h-1zM55 78h1v1h-1z"/><path fill="#65401F" d="M1 79h1v1H1zM2 79h1v1H2zM3 79h1v1H3z"/><path fill="#9B8158" d="M4 79h1v1H4z"/><path fill="#F5EEB8" d="M5 79h1v1H5zM6 79h1v1H6zM7 79h1v1H7z"/><path fill="#F0DB81" d="M8 79h1v1H8z"/><path fill="#F4DC9A" d="M9 79h1v1H9zM10 79h1v1h-1zM11 79h1v1h-1z"/><path fill="#BEA26C" d="M12 79h1v1h-1z"/><path fill="#6E4A27" d="M13 79h1v1h-1z"/><path fill="#65401F" d="M14 79h1v1h-1zM15 79h1v1h-1zM16 79h1v1h-1zM17 79h1v1h-1zM18 79h1v1h-1z"/><path fill="#231815" d="M28 79h1v1h-1zM29 79h1v1h-1zM30 79h1v1h-1z"/><path fill="#999071" d="M31 79h1v1h-1z"/><path fill="#F5EEB8" d="M32 79h1v1h-1zM33 79h1v1h-1zM34 79h1v1h-1zM35 79h1v1h-1zM36 79h1v1h-1zM37 79h1v1h-1z"/><path fill="#E0CB79" d="M38 79h1v1h-1z"/><path fill="#CAA739" d="M39 79h1v1h-1zM40 79h1v1h-1zM41 79h1v1h-1z"/><path fill="#C09E37" d="M42 79h1v1h-1z"/><path fill="#967A2E" d="M43 79h1v1h-1z"/><path fill="#6C5725" d="M44 79h1v1h-1z"/><path fill="#382A1A" d="M45 79h1v1h-1z"/><path fill="#231815" d="M46 79h1v1h-1zM47 79h1v1h-1zM48 79h1v1h-1zM49 79h1v1h-1zM50 79h1v1h-1zM51 79h1v1h-1zM52 79h1v1h-1zM53 79h1v1h-1z"/><path fill="#65401F" d="M0 80h1v1H0zM1 80h1v1H1zM2 80h1v1H2zM3 80h1v1H3z"/><path fill="#C8B888" d="M4 80h1v1H4z"/><path fill="#F5EEB8" d="M5 80h1v1H5zM6 80h1v1H6z"/><path fill="#F3E5A4" d="M7 80h1v1H7z"/><path fill="#F4DC9A" d="M8 80h1v1H8zM9 80h1v1H9zM10 80h1v1h-1z"/><path fill="#AD8E5D" d="M11 80h1v1h-1z"/><path fill="#65401F" d="M12 80h1v1h-1zM13 80h1v1h-1zM14 80h1v1h-1zM15 80h1v1h-1zM16 80h1v1h-1zM17 80h1v1h-1z"/><path fill="#231815" d="M28 80h1v1h-1zM29 80h1v1h-1zM30 80h1v1h-1z"/><path fill="#4A4034" d="M31 80h1v1h-1z"/><path fill="#C1B98F" d="M32 80h1v1h-1z"/><path fill="#F5EEB8" d="M33 80h1v1h-1zM34 80h1v1h-1zM35 80h1v1h-1zM36 80h1v1h-1z"/><path fill="#CEC699" d="M37 80h1v1h-1z"/><path fill="#A89148" d="M38 80h1v1h-1z"/><path fill="#776027" d="M39 80h1v1h-1z"/><path fill="#624E23" d="M40 80h1v1h-1z"/><path fill="#42331C" d="M41 80h1v1h-1z"/><path fill="#231815" d="M42 80h1v1h-1zM43 80h1v1h-1zM44 80h1v1h-1zM45 80h1v1h-1zM46 80h1v1h-1zM47 80h1v1h-1zM48 80h1v1h-1zM49 80h1v1h-1zM50 80h1v1h-1zM51 80h1v1h-1z"/><path fill="#65401F" d="M0 81h1v1H0zM1 81h1v1H1zM2 81h1v1H2zM3 81h1v1H3z"/><path fill="#ECE3AE" d="M4 81h1v1H4z"/><path fill="#F5EEB8" d="M5 81h1v1H5z"/><path fill="#F5EBB2" d="M6 81h1v1H6z"/><path fill="#F4DD9C" d="M7 81h1v1H7z"/><path fill="#F4DC9A" d="M8 81h1v1H8z"/><path fill="#EBD292" d="M9 81h1v1H9z"/><path fill="#89673E" d="M10 81h1v1h-1z"/><path fill="#65401F" d="M11 81h1v1h-1zM12 81h1v1h-1zM13 81h1v1h-1zM14 81h1v1h-1zM15 81h1v1h-1z"/><path fill="#231815" d="M28 81h1v1h-1zM29 81h1v1h-1zM30 81h1v1h-1zM31 81h1v1h-1zM32 81h1v1h-1zM33 81h1v1h-1zM34 81h1v1h-1zM35 81h1v1h-1zM36 81h1v1h-1zM37 81h1v1h-1zM38 81h1v1h-1zM39 81h1v1h-1zM40 81h1v1h-1zM41 81h1v1h-1zM42 81h1v1h-1zM43 81h1v1h-1zM44 81h1v1h-1zM45 81h1v1h-1zM46 81h1v1h-1zM47 81h1v1h-1zM48 81h1v1h-1zM49 81h1v1h-1z"/><path fill="#65401F" d="M0 82h1v1H0zM1 82h1v1H1zM2 82h1v1H2z"/><path fill="#896C45" d="M3 82h1v1H3z"/><path fill="#F5EEB8" d="M4 82h1v1H4z"/><path fill="#F5EDB6" d="M5 82h1v1H5z"/><path fill="#F4DE9E" d="M6 82h1v1H6z"/><path fill="#F4DC9A" d="M7 82h1v1H7z"/><path fill="#D9BF83" d="M8 82h1v1H8z"/><path fill="#77542E" d="M9 82h1v1H9z"/><path fill="#65401F" d="M10 82h1v1h-1zM11 82h1v1h-1zM12 82h1v1h-1zM13 82h1v1h-1zM14 82h1v1h-1z"/><path fill="#231815" d="M28 82h1v1h-1zM29 82h1v1h-1zM30 82h1v1h-1zM31 82h1v1h-1zM32 82h1v1h-1zM33 82h1v1h-1zM34 82h1v1h-1zM35 82h1v1h-1zM36 82h1v1h-1zM37 82h1v1h-1zM38 82h1v1h-1zM39 82h1v1h-1zM40 82h1v1h-1zM41 82h1v1h-1zM42 82h1v1h-1zM43 82h1v1h-1zM44 82h1v1h-1zM45 82h1v1h-1zM46 82h1v1h-1z"/><path fill="#65401F" d="M0 83h1v1H0zM1 83h1v1H1zM2 83h1v1H2z"/><path fill="#AD976C" d="M3 83h1v1H3z"/><path fill="#F5EEB8" d="M4 83h1v1H4z"/><path fill="#F4DFA0" d="M5 83h1v1H5z"/><path fill="#F4DC9A" d="M6 83h1v1H6z"/><path fill="#B59864" d="M7 83h1v1H7z"/><path fill="#65401F" d="M8 83h1v1H8zM9 83h1v1H9zM10 83h1v1h-1zM11 83h1v1h-1zM12 83h1v1h-1zM13 83h1v1h-1z"/><path fill="#231815" d="M29 83h1v1h-1zM30 83h1v1h-1zM31 83h1v1h-1zM32 83h1v1h-1zM33 83h1v1h-1zM34 83h1v1h-1zM35 83h1v1h-1zM36 83h1v1h-1zM37 83h1v1h-1zM38 83h1v1h-1zM39 83h1v1h-1zM40 83h1v1h-1zM41 83h1v1h-1zM42 83h1v1h-1zM43 83h1v1h-1z"/><path fill="#65401F" d="M0 84h1v1H0zM1 84h1v1H1zM2 84h1v1H2z"/><path fill="#D1C392" d="M3 84h1v1H3z"/><path fill="#F4E4A7" d="M4 84h1v1H4z"/><path fill="#EBD292" d="M5 84h1v1H5z"/><path fill="#927145" d="M6 84h1v1H6z"/><path fill="#65401F" d="M7 84h1v1H7zM8 84h1v1H8zM9 84h1v1H9zM10 84h1v1h-1zM11 84h1v1h-1zM12 84h1v1h-1z"/><path fill="#231815" d="M32 84h1v1h-1zM33 84h1v1h-1zM34 84h1v1h-1zM35 84h1v1h-1zM36 84h1v1h-1zM37 84h1v1h-1z"/><path fill="#65401F" d="M0 85h1v1H0zM1 85h1v1H1zM2 85h1v1H2z"/><path fill="#D1BC87" d="M3 85h1v1H3z"/><path fill="#BEA26C" d="M4 85h1v1H4z"/><path fill="#6E4A27" d="M5 85h1v1H5z"/><path fill="#65401F" d="M6 85h1v1H6zM7 85h1v1H7zM8 85h1v1H8zM9 85h1v1H9zM10 85h1v1h-1zM0 86h1v1H0zM1 86h1v1H1zM2 86h1v1H2z"/><path fill="#6E4A27" d="M3 86h1v1H3z"/><path fill="#65401F" d="M4 86h1v1H4zM5 86h1v1H5zM6 86h1v1H6zM7 86h1v1H7zM8 86h1v1H8zM9 86h1v1H9zM0 87h1v1H0zM1 87h1v1H1zM2 87h1v1H2zM3 87h1v1H3zM4 87h1v1H4zM5 87h1v1H5zM6 87h1v1H6zM7 87h1v1H7zM8 87h1v1H8zM0 88h1v1H0zM1 88h1v1H1zM2 88h1v1H2zM3 88h1v1H3zM4 88h1v1H4zM5 88h1v1H5zM6 88h1v1H6zM1 89h1v1H1zM2 89h1v1H2zM3 89h1v1H3zM4 89h1v1H4z"/></svg>