<svg baseProfile="full" height="90" width="78" xmlns="http://www.w3.org/2000/svg"><path fill="#231815" d="M50 0h1v1h-1zM51 0h1v1h-1zM52 0h1v1h-1zM53 0h1v1h-1zM54 0h1v1h-1zM55 0h1v1h-1zM56 0h1v1h-1zM57 0h1v1h-1zM58 0h1v1h-1zM59 0h1v1h-1zM60 0h1v1h-1zM47 1h1v1h-1zM48 1h1v1h-1zM49 1h1v1h-1zM50 1h1v1h-1zM51 1h1v1h-1zM52 1h1v1h-1zM53 1h1v1h-1zM54 1h1v1h-1zM55 1h1v1h-1zM56 1h1v1h-1zM57 1h1v1h-1zM58 1h1v1h-1zM59 1h1v1h-1zM60 1h1v1h-1zM61 1h1v1h-1zM62 1h1v1h-1zM63 1h1v1h-1zM46 2h1v1h-1zM47 2h1v1h-1zM48 2h1v1h-1zM49 2h1v1h-1zM50 2h1v1h-1zM51 2h1v1h-1zM52 2h1v1h-1zM53 2h1v1h-1zM54 2h1v1h-1zM55 2h1v1h-1zM56 2h1v1h-1zM57 2h1v1h-1zM58 2h1v1h-1zM59 2h1v1h-1zM60 2h1v1h-1zM61 2h1v1h-1zM62 2h1v1h-1zM63 2h1v1h-1zM64 2h1v1h-1zM65 2h1v1h-1zM44 3h1v1h-1zM45 3h1v1h-1zM46 3h1v1h-1zM47 3h1v1h-1zM48 3h1v1h-1zM49 3h1v1h-1zM50 3h1v1h-1z"/><path fill="#454E22" d="M51 3h1v1h-1z"/><path fill="#60792C" d="M52 3h1v1h-1z"/><path fill="#749933" d="M53 3h1v1h-1z"/><path fill="#7BA436" d="M54 3h1v1h-1z"/><path fill="#8FC43D" d="M55 3h1v1h-1z"/><path fill="#749933" d="M56 3h1v1h-1zM57 3h1v1h-1z"/><path fill="#596E29" d="M58 3h1v1h-1z"/><path fill="#3E431F" d="M59 3h1v1h-1z"/><path fill="#231815" d="M60 3h1v1h-1zM61 3h1v1h-1zM62 3h1v1h-1zM63 3h1v1h-1zM64 3h1v1h-1zM65 3h1v1h-1zM66 3h1v1h-1zM43 4h1v1h-1zM44 4h1v1h-1zM45 4h1v1h-1zM46 4h1v1h-1zM47 4h1v1h-1z"/><path fill="#2A2318" d="M48 4h1v1h-1z"/><path fill="#60792C" d="M49 4h1v1h-1z"/><path fill="#88B93B" d="M50 4h1v1h-1z"/><path fill="#8FC43D" d="M51 4h1v1h-1zM52 4h1v1h-1zM53 4h1v1h-1zM54 4h1v1h-1zM55 4h1v1h-1zM56 4h1v1h-1zM57 4h1v1h-1zM58 4h1v1h-1zM59 4h1v1h-1z"/><path fill="#88B93B" d="M60 4h1v1h-1z"/><path fill="#596E29" d="M61 4h1v1h-1z"/><path fill="#2A2318" d="M62 4h1v1h-1z"/><path fill="#231815" d="M63 4h1v1h-1zM64 4h1v1h-1zM65 4h1v1h-1zM66 4h1v1h-1zM67 4h1v1h-1zM42 5h1v1h-1zM43 5h1v1h-1zM44 5h1v1h-1zM45 5h1v1h-1zM46 5h1v1h-1z"/><path fill="#526327" d="M47 5h1v1h-1z"/><path fill="#88B93B" d="M48 5h1v1h-1z"/><path fill="#8FC43D" d="M49 5h1v1h-1zM50 5h1v1h-1zM51 5h1v1h-1zM52 5h1v1h-1zM53 5h1v1h-1zM54 5h1v1h-1zM55 5h1v1h-1zM56 5h1v1h-1zM57 5h1v1h-1zM58 5h1v1h-1zM59 5h1v1h-1zM60 5h1v1h-1zM61 5h1v1h-1z"/><path fill="#88B93B" d="M62 5h1v1h-1z"/><path fill="#596E29" d="M63 5h1v1h-1z"/><path fill="#2A2318" d="M64 5h1v1h-1z"/><path fill="#231815" d="M65 5h1v1h-1zM66 5h1v1h-1zM67 5h1v1h-1zM68 5h1v1h-1zM69 5h1v1h-1zM41 6h1v1h-1zM42 6h1v1h-1zM43 6h1v1h-1zM44 6h1v1h-1z"/><path fill="#2A2318" d="M45 6h1v1h-1z"/><path fill="#749933" d="M46 6h1v1h-1z"/><path fill="#8FC43D" d="M47 6h1v1h-1zM48 6h1v1h-1zM49 6h1v1h-1zM50 6h1v1h-1zM51 6h1v1h-1zM52 6h1v1h-1zM53 6h1v1h-1zM54 6h1v1h-1zM55 6h1v1h-1zM56 6h1v1h-1zM57 6h1v1h-1zM58 6h1v1h-1zM59 6h1v1h-1zM60 6h1v1h-1zM61 6h1v1h-1zM62 6h1v1h-1zM63 6h1v1h-1z"/><path fill="#82AF38" d="M64 6h1v1h-1z"/><path fill="#37381D" d="M65 6h1v1h-1z"/><path fill="#231815" d="M66 6h1v1h-1zM67 6h1v1h-1zM68 6h1v1h-1zM69 6h1v1h-1zM70 6h1v1h-1zM41 7h1v1h-1zM42 7h1v1h-1zM43 7h1v1h-1z"/><path fill="#2A2318" d="M44 7h1v1h-1z"/><path fill="#7BA436" d="M45 7h1v1h-1z"/><path fill="#8FC43D" d="M46 7h1v1h-1zM47 7h1v1h-1zM48 7h1v1h-1zM49 7h1v1h-1zM50 7h1v1h-1zM51 7h1v1h-1zM52 7h1v1h-1zM53 7h1v1h-1zM54 7h1v1h-1zM55 7h1v1h-1zM56 7h1v1h-1zM57 7h1v1h-1zM58 7h1v1h-1zM59 7h1v1h-1zM60 7h1v1h-1zM61 7h1v1h-1zM62 7h1v1h-1zM63 7h1v1h-1zM64 7h1v1h-1zM65 7h1v1h-1z"/><path fill="#4C5924" d="M66 7h1v1h-1z"/><path fill="#231815" d="M67 7h1v1h-1zM68 7h1v1h-1zM69 7h1v1h-1zM70 7h1v1h-1zM71 7h1v1h-1zM41 8h1v1h-1zM42 8h1v1h-1zM43 8h1v1h-1z"/><path fill="#60792C" d="M44 8h1v1h-1z"/><path fill="#8FC43D" d="M45 8h1v1h-1zM46 8h1v1h-1zM47 8h1v1h-1zM48 8h1v1h-1zM49 8h1v1h-1zM50 8h1v1h-1zM51 8h1v1h-1zM52 8h1v1h-1zM53 8h1v1h-1zM54 8h1v1h-1zM55 8h1v1h-1zM56 8h1v1h-1zM57 8h1v1h-1zM58 8h1v1h-1zM59 8h1v1h-1zM60 8h1v1h-1zM61 8h1v1h-1zM62 8h1v1h-1zM63 8h1v1h-1zM64 8h1v1h-1zM65 8h1v1h-1zM66 8h1v1h-1z"/><path fill="#60792C" d="M67 8h1v1h-1z"/><path fill="#231815" d="M68 8h1v1h-1zM69 8h1v1h-1zM70 8h1v1h-1zM71 8h1v1h-1zM72 8h1v1h-1zM40 9h1v1h-1zM41 9h1v1h-1zM42 9h1v1h-1z"/><path fill="#312E1A" d="M43 9h1v1h-1z"/><path fill="#8FC43D" d="M44 9h1v1h-1zM45 9h1v1h-1zM46 9h1v1h-1zM47 9h1v1h-1zM48 9h1v1h-1zM49 9h1v1h-1zM50 9h1v1h-1zM51 9h1v1h-1zM52 9h1v1h-1zM53 9h1v1h-1zM54 9h1v1h-1zM55 9h1v1h-1zM56 9h1v1h-1zM57 9h1v1h-1zM58 9h1v1h-1zM59 9h1v1h-1zM60 9h1v1h-1zM61 9h1v1h-1zM62 9h1v1h-1zM63 9h1v1h-1zM64 9h1v1h-1zM65 9h1v1h-1zM66 9h1v1h-1zM67 9h1v1h-1z"/><path fill="#67842E" d="M68 9h1v1h-1z"/><path fill="#231815" d="M69 9h1v1h-1zM70 9h1v1h-1zM71 9h1v1h-1zM72 9h1v1h-1zM40 10h1v1h-1zM41 10h1v1h-1zM42 10h1v1h-1z"/><path fill="#526327" d="M43 10h1v1h-1z"/><path fill="#8FC43D" d="M44 10h1v1h-1zM45 10h1v1h-1zM46 10h1v1h-1zM47 10h1v1h-1zM48 10h1v1h-1zM49 10h1v1h-1zM50 10h1v1h-1z"/><path fill="#A2CE60" d="M51 10h1v1h-1z"/><path fill="#A6D067" d="M52 10h1v1h-1z"/><path fill="#97C84B" d="M53 10h1v1h-1z"/><path fill="#8FC43D" d="M54 10h1v1h-1zM55 10h1v1h-1zM56 10h1v1h-1zM57 10h1v1h-1zM58 10h1v1h-1zM59 10h1v1h-1zM60 10h1v1h-1zM61 10h1v1h-1zM62 10h1v1h-1zM63 10h1v1h-1zM64 10h1v1h-1zM65 10h1v1h-1zM66 10h1v1h-1zM67 10h1v1h-1zM68 10h1v1h-1z"/><path fill="#67842E" d="M69 10h1v1h-1z"/><path fill="#231815" d="M70 10h1v1h-1zM71 10h1v1h-1zM72 10h1v1h-1zM73 10h1v1h-1zM40 11h1v1h-1zM41 11h1v1h-1zM42 11h1v1h-1z"/><path fill="#6D8E31" d="M43 11h1v1h-1z"/><path fill="#8FC43D" d="M44 11h1v1h-1zM45 11h1v1h-1zM46 11h1v1h-1zM47 11h1v1h-1zM48 11h1v1h-1zM49 11h1v1h-1z"/><path fill="#B8D98B" d="M50 11h1v1h-1z"/><path fill="#CBE3AE" d="M51 11h1v1h-1zM52 11h1v1h-1z"/><path fill="#C7E1A7" d="M53 11h1v1h-1z"/><path fill="#9ACA52" d="M54 11h1v1h-1z"/><path fill="#8FC43D" d="M55 11h1v1h-1zM56 11h1v1h-1zM57 11h1v1h-1zM58 11h1v1h-1zM59 11h1v1h-1zM60 11h1v1h-1zM61 11h1v1h-1zM62 11h1v1h-1zM63 11h1v1h-1zM64 11h1v1h-1zM65 11h1v1h-1zM66 11h1v1h-1zM67 11h1v1h-1zM68 11h1v1h-1zM69 11h1v1h-1z"/><path fill="#4C5924" d="M70 11h1v1h-1z"/><path fill="#231815" d="M71 11h1v1h-1zM72 11h1v1h-1zM73 11h1v1h-1zM74 11h1v1h-1zM40 12h1v1h-1zM41 12h1v1h-1zM42 12h1v1h-1z"/><path fill="#749933" d="M43 12h1v1h-1z"/><path fill="#8FC43D" d="M44 12h1v1h-1zM45 12h1v1h-1zM46 12h1v1h-1zM47 12h1v1h-1zM48 12h1v1h-1z"/><path fill="#A6D067" d="M49 12h1v1h-1z"/><path fill="#CBE3AE" d="M50 12h1v1h-1zM51 12h1v1h-1zM52 12h1v1h-1zM53 12h1v1h-1z"/><path fill="#BCDB92" d="M54 12h1v1h-1z"/><path fill="#8FC43D" d="M55 12h1v1h-1zM56 12h1v1h-1zM57 12h1v1h-1zM58 12h1v1h-1zM59 12h1v1h-1zM60 12h1v1h-1zM61 12h1v1h-1zM62 12h1v1h-1zM63 12h1v1h-1zM64 12h1v1h-1zM65 12h1v1h-1zM66 12h1v1h-1zM67 12h1v1h-1zM68 12h1v1h-1zM69 12h1v1h-1zM70 12h1v1h-1z"/><path fill="#393E1C" d="M71 12h1v1h-1z"/><path fill="#231815" d="M72 12h1v1h-1zM73 12h1v1h-1zM74 12h1v1h-1zM75 12h1v1h-1zM40 13h1v1h-1zM41 13h1v1h-1zM42 13h1v1h-1z"/><path fill="#749933" d="M43 13h1v1h-1z"/><path fill="#8FC43D" d="M44 13h1v1h-1zM45 13h1v1h-1zM46 13h1v1h-1zM47 13h1v1h-1zM48 13h1v1h-1z"/><path fill="#ADD476" d="M49 13h1v1h-1z"/><path fill="#CBE3AE" d="M50 13h1v1h-1zM51 13h1v1h-1zM52 13h1v1h-1zM53 13h1v1h-1zM54 13h1v1h-1z"/><path fill="#8FC43D" d="M55 13h1v1h-1zM56 13h1v1h-1zM57 13h1v1h-1zM58 13h1v1h-1zM59 13h1v1h-1zM60 13h1v1h-1zM61 13h1v1h-1zM62 13h1v1h-1zM63 13h1v1h-1zM64 13h1v1h-1zM65 13h1v1h-1zM66 13h1v1h-1zM67 13h1v1h-1zM68 13h1v1h-1zM69 13h1v1h-1zM70 13h1v1h-1z"/><path fill="#77A831" d="M71 13h1v1h-1z"/><path fill="#282117" d="M72 13h1v1h-1z"/><path fill="#231815" d="M73 13h1v1h-1zM74 13h1v1h-1zM75 13h1v1h-1zM40 14h1v1h-1zM41 14h1v1h-1zM42 14h1v1h-1z"/><path fill="#749933" d="M43 14h1v1h-1z"/><path fill="#8FC43D" d="M44 14h1v1h-1zM45 14h1v1h-1zM46 14h1v1h-1zM47 14h1v1h-1zM48 14h1v1h-1z"/><path fill="#ADD476" d="M49 14h1v1h-1z"/><path fill="#CBE3AE" d="M50 14h1v1h-1zM51 14h1v1h-1zM52 14h1v1h-1zM53 14h1v1h-1zM54 14h1v1h-1z"/><path fill="#8FC43D" d="M55 14h1v1h-1zM56 14h1v1h-1zM57 14h1v1h-1zM58 14h1v1h-1zM59 14h1v1h-1zM60 14h1v1h-1zM61 14h1v1h-1zM62 14h1v1h-1zM63 14h1v1h-1zM64 14h1v1h-1zM65 14h1v1h-1zM66 14h1v1h-1zM67 14h1v1h-1zM68 14h1v1h-1zM69 14h1v1h-1zM70 14h1v1h-1z"/><path fill="#82B735" d="M71 14h1v1h-1z"/><path fill="#567324" d="M72 14h1v1h-1z"/><path fill="#231815" d="M73 14h1v1h-1zM74 14h1v1h-1zM75 14h1v1h-1zM76 14h1v1h-1zM40 15h1v1h-1zM41 15h1v1h-1zM42 15h1v1h-1z"/><path fill="#60792C" d="M43 15h1v1h-1z"/><path fill="#8FC43D" d="M44 15h1v1h-1zM45 15h1v1h-1zM46 15h1v1h-1zM47 15h1v1h-1zM48 15h1v1h-1z"/><path fill="#9ECC59" d="M49 15h1v1h-1z"/><path fill="#CBE3AE" d="M50 15h1v1h-1zM51 15h1v1h-1zM52 15h1v1h-1zM53 15h1v1h-1z"/><path fill="#B8D98B" d="M54 15h1v1h-1z"/><path fill="#8FC43D" d="M55 15h1v1h-1zM56 15h1v1h-1zM57 15h1v1h-1zM58 15h1v1h-1zM59 15h1v1h-1zM60 15h1v1h-1zM61 15h1v1h-1zM62 15h1v1h-1zM63 15h1v1h-1zM64 15h1v1h-1zM65 15h1v1h-1zM66 15h1v1h-1zM67 15h1v1h-1zM68 15h1v1h-1zM69 15h1v1h-1zM70 15h1v1h-1z"/><path fill="#88BD39" d="M71 15h1v1h-1z"/><path fill="#74A92D" d="M72 15h1v1h-1z"/><path fill="#2D2A18" d="M73 15h1v1h-1z"/><path fill="#231815" d="M74 15h1v1h-1zM75 15h1v1h-1zM76 15h1v1h-1zM40 16h1v1h-1zM41 16h1v1h-1zM42 16h1v1h-1z"/><path fill="#454E22" d="M43 16h1v1h-1z"/><path fill="#8FC43D" d="M44 16h1v1h-1zM45 16h1v1h-1zM46 16h1v1h-1zM47 16h1v1h-1zM48 16h1v1h-1zM49 16h1v1h-1z"/><path fill="#B5D784" d="M50 16h1v1h-1z"/><path fill="#CBE3AE" d="M51 16h1v1h-1zM52 16h1v1h-1z"/><path fill="#C4DFA0" d="M53 16h1v1h-1z"/><path fill="#97C84B" d="M54 16h1v1h-1z"/><path fill="#8FC43D" d="M55 16h1v1h-1zM56 16h1v1h-1zM57 16h1v1h-1zM58 16h1v1h-1zM59 16h1v1h-1zM60 16h1v1h-1zM61 16h1v1h-1zM62 16h1v1h-1zM63 16h1v1h-1zM64 16h1v1h-1zM65 16h1v1h-1zM66 16h1v1h-1zM67 16h1v1h-1zM68 16h1v1h-1zM69 16h1v1h-1zM70 16h1v1h-1z"/><path fill="#8CC13B" d="M71 16h1v1h-1z"/><path fill="#74A92D" d="M72 16h1v1h-1z"/><path fill="#567324" d="M73 16h1v1h-1z"/><path fill="#231815" d="M74 16h1v1h-1zM75 16h1v1h-1zM76 16h1v1h-1zM40 17h1v1h-1zM41 17h1v1h-1zM42 17h1v1h-1zM43 17h1v1h-1z"/><path fill="#82AF38" d="M44 17h1v1h-1z"/><path fill="#8FC43D" d="M45 17h1v1h-1zM46 17h1v1h-1zM47 17h1v1h-1zM48 17h1v1h-1zM49 17h1v1h-1zM50 17h1v1h-1z"/><path fill="#9ACA52" d="M51 17h1v1h-1z"/><path fill="#9ECC59" d="M52 17h1v1h-1z"/><path fill="#8FC43D" d="M53 17h1v1h-1zM54 17h1v1h-1zM55 17h1v1h-1zM56 17h1v1h-1zM57 17h1v1h-1zM58 17h1v1h-1zM59 17h1v1h-1zM60 17h1v1h-1zM61 17h1v1h-1zM62 17h1v1h-1zM63 17h1v1h-1zM64 17h1v1h-1zM65 17h1v1h-1zM66 17h1v1h-1zM67 17h1v1h-1zM68 17h1v1h-1zM69 17h1v1h-1zM70 17h1v1h-1zM71 17h1v1h-1z"/><path fill="#74A92D" d="M72 17h1v1h-1z"/><path fill="#6FA02C" d="M73 17h1v1h-1z"/><path fill="#282117" d="M74 17h1v1h-1z"/><path fill="#231815" d="M75 17h1v1h-1zM76 17h1v1h-1zM77 17h1v1h-1zM41 18h1v1h-1zM42 18h1v1h-1zM43 18h1v1h-1z"/><path fill="#454E22" d="M44 18h1v1h-1z"/><path fill="#8FC43D" d="M45 18h1v1h-1zM46 18h1v1h-1zM47 18h1v1h-1zM48 18h1v1h-1zM49 18h1v1h-1zM50 18h1v1h-1zM51 18h1v1h-1zM52 18h1v1h-1zM53 18h1v1h-1zM54 18h1v1h-1zM55 18h1v1h-1zM56 18h1v1h-1zM57 18h1v1h-1zM58 18h1v1h-1zM59 18h1v1h-1zM60 18h1v1h-1zM61 18h1v1h-1zM62 18h1v1h-1zM63 18h1v1h-1zM64 18h1v1h-1zM65 18h1v1h-1zM66 18h1v1h-1zM67 18h1v1h-1zM68 18h1v1h-1zM69 18h1v1h-1zM70 18h1v1h-1zM71 18h1v1h-1z"/><path fill="#74A92D" d="M72 18h1v1h-1zM73 18h1v1h-1z"/><path fill="#3C451D" d="M74 18h1v1h-1z"/><path fill="#231815" d="M75 18h1v1h-1zM76 18h1v1h-1zM77 18h1v1h-1zM38 19h1v1h-1zM39 19h1v1h-1zM40 19h1v1h-1zM41 19h1v1h-1zM42 19h1v1h-1zM43 19h1v1h-1zM44 19h1v1h-1z"/><path fill="#67842E" d="M45 19h1v1h-1z"/><path fill="#8FC43D" d="M46 19h1v1h-1zM47 19h1v1h-1zM48 19h1v1h-1zM49 19h1v1h-1zM50 19h1v1h-1zM51 19h1v1h-1zM52 19h1v1h-1zM53 19h1v1h-1zM54 19h1v1h-1zM55 19h1v1h-1zM56 19h1v1h-1zM57 19h1v1h-1zM58 19h1v1h-1zM59 19h1v1h-1zM60 19h1v1h-1zM61 19h1v1h-1zM62 19h1v1h-1zM63 19h1v1h-1zM64 19h1v1h-1zM65 19h1v1h-1zM66 19h1v1h-1zM67 19h1v1h-1zM68 19h1v1h-1zM69 19h1v1h-1zM70 19h1v1h-1zM71 19h1v1h-1z"/><path fill="#74A92D" d="M72 19h1v1h-1zM73 19h1v1h-1z"/><path fill="#516A23" d="M74 19h1v1h-1z"/><path fill="#231815" d="M75 19h1v1h-1zM76 19h1v1h-1zM77 19h1v1h-1zM36 20h1v1h-1zM37 20h1v1h-1zM38 20h1v1h-1zM39 20h1v1h-1zM40 20h1v1h-1zM41 20h1v1h-1zM42 20h1v1h-1zM43 20h1v1h-1zM44 20h1v1h-1zM45 20h1v1h-1z"/><path fill="#596E29" d="M46 20h1v1h-1z"/><path fill="#8FC43D" d="M47 20h1v1h-1zM48 20h1v1h-1zM49 20h1v1h-1zM50 20h1v1h-1zM51 20h1v1h-1zM52 20h1v1h-1zM53 20h1v1h-1zM54 20h1v1h-1zM55 20h1v1h-1z"/><path fill="#88B93B" d="M56 20h1v1h-1z"/><path fill="#67842E" d="M57 20h1v1h-1z"/><path fill="#596E29" d="M58 20h1v1h-1z"/><path fill="#7BA436" d="M59 20h1v1h-1z"/><path fill="#8FC43D" d="M60 20h1v1h-1zM61 20h1v1h-1zM62 20h1v1h-1zM63 20h1v1h-1zM64 20h1v1h-1zM65 20h1v1h-1zM66 20h1v1h-1zM67 20h1v1h-1zM68 20h1v1h-1zM69 20h1v1h-1zM70 20h1v1h-1zM71 20h1v1h-1z"/><path fill="#74A92D" d="M72 20h1v1h-1zM73 20h1v1h-1z"/><path fill="#608527" d="M74 20h1v1h-1z"/><path fill="#231815" d="M75 20h1v1h-1zM76 20h1v1h-1zM77 20h1v1h-1zM34 21h1v1h-1zM35 21h1v1h-1zM36 21h1v1h-1zM37 21h1v1h-1zM38 21h1v1h-1zM39 21h1v1h-1zM40 21h1v1h-1z"/><path fill="#312E1A" d="M41 21h1v1h-1z"/><path fill="#454E22" d="M42 21h1v1h-1z"/><path fill="#37381D" d="M43 21h1v1h-1z"/><path fill="#231815" d="M44 21h1v1h-1zM45 21h1v1h-1zM46 21h1v1h-1z"/><path fill="#312E1A" d="M47 21h1v1h-1z"/><path fill="#60792C" d="M48 21h1v1h-1z"/><path fill="#7BA436" d="M49 21h1v1h-1z"/><path fill="#8FC43D" d="M50 21h1v1h-1zM51 21h1v1h-1zM52 21h1v1h-1z"/><path fill="#7BA436" d="M53 21h1v1h-1z"/><path fill="#67842E" d="M54 21h1v1h-1z"/><path fill="#454E22" d="M55 21h1v1h-1z"/><path fill="#2A2318" d="M56 21h1v1h-1z"/><path fill="#231815" d="M57 21h1v1h-1zM58 21h1v1h-1z"/><path fill="#3E431F" d="M59 21h1v1h-1z"/><path fill="#8FC43D" d="M60 21h1v1h-1zM61 21h1v1h-1zM62 21h1v1h-1zM63 21h1v1h-1zM64 21h1v1h-1zM65 21h1v1h-1zM66 21h1v1h-1zM67 21h1v1h-1zM68 21h1v1h-1zM69 21h1v1h-1zM70 21h1v1h-1z"/><path fill="#8ABF3A" d="M71 21h1v1h-1z"/><path fill="#74A92D" d="M72 21h1v1h-1zM73 21h1v1h-1z"/><path fill="#6FA02C" d="M74 21h1v1h-1z"/><path fill="#231815" d="M75 21h1v1h-1zM76 21h1v1h-1zM77 21h1v1h-1zM33 22h1v1h-1zM34 22h1v1h-1zM35 22h1v1h-1zM36 22h1v1h-1zM37 22h1v1h-1z"/><path fill="#2A2318" d="M38 22h1v1h-1z"/><path fill="#4C5924" d="M39 22h1v1h-1z"/><path fill="#7BA436" d="M40 22h1v1h-1z"/><path fill="#8FC43D" d="M41 22h1v1h-1zM42 22h1v1h-1z"/><path fill="#88B93B" d="M43 22h1v1h-1z"/><path fill="#37381D" d="M44 22h1v1h-1z"/><path fill="#231815" d="M45 22h1v1h-1zM46 22h1v1h-1zM47 22h1v1h-1zM48 22h1v1h-1zM49 22h1v1h-1zM50 22h1v1h-1zM51 22h1v1h-1zM52 22h1v1h-1zM53 22h1v1h-1zM54 22h1v1h-1zM55 22h1v1h-1zM56 22h1v1h-1zM57 22h1v1h-1zM58 22h1v1h-1z"/><path fill="#454E22" d="M59 22h1v1h-1z"/><path fill="#8FC43D" d="M60 22h1v1h-1zM61 22h1v1h-1zM62 22h1v1h-1zM63 22h1v1h-1zM64 22h1v1h-1zM65 22h1v1h-1zM66 22h1v1h-1zM67 22h1v1h-1zM68 22h1v1h-1zM69 22h1v1h-1zM70 22h1v1h-1z"/><path fill="#87BC38" d="M71 22h1v1h-1z"/><path fill="#74A92D" d="M72 22h1v1h-1zM73 22h1v1h-1zM74 22h1v1h-1z"/><path fill="#231815" d="M75 22h1v1h-1zM76 22h1v1h-1zM77 22h1v1h-1zM32 23h1v1h-1zM33 23h1v1h-1zM34 23h1v1h-1zM35 23h1v1h-1zM36 23h1v1h-1z"/><path fill="#4C6121" d="M37 23h1v1h-1z"/><path fill="#83B438" d="M38 23h1v1h-1z"/><path fill="#8FC43D" d="M39 23h1v1h-1zM40 23h1v1h-1zM41 23h1v1h-1zM42 23h1v1h-1zM43 23h1v1h-1zM44 23h1v1h-1z"/><path fill="#596E29" d="M45 23h1v1h-1z"/><path fill="#2A2318" d="M46 23h1v1h-1z"/><path fill="#231815" d="M47 23h1v1h-1zM48 23h1v1h-1zM49 23h1v1h-1zM50 23h1v1h-1zM51 23h1v1h-1zM52 23h1v1h-1zM53 23h1v1h-1zM54 23h1v1h-1zM55 23h1v1h-1zM56 23h1v1h-1z"/><path fill="#312E1A" d="M57 23h1v1h-1z"/><path fill="#596E29" d="M58 23h1v1h-1z"/><path fill="#88B93B" d="M59 23h1v1h-1z"/><path fill="#8FC43D" d="M60 23h1v1h-1zM61 23h1v1h-1zM62 23h1v1h-1zM63 23h1v1h-1zM64 23h1v1h-1zM65 23h1v1h-1zM66 23h1v1h-1zM67 23h1v1h-1zM68 23h1v1h-1zM69 23h1v1h-1zM70 23h1v1h-1z"/><path fill="#7EB333" d="M71 23h1v1h-1z"/><path fill="#74A92D" d="M72 23h1v1h-1zM73 23h1v1h-1zM74 23h1v1h-1z"/><path fill="#231815" d="M75 23h1v1h-1zM76 23h1v1h-1zM77 23h1v1h-1zM31 24h1v1h-1zM32 24h1v1h-1zM33 24h1v1h-1zM34 24h1v1h-1z"/><path fill="#32331A" d="M35 24h1v1h-1z"/><path fill="#658E29" d="M36 24h1v1h-1z"/><path fill="#74A92D" d="M37 24h1v1h-1z"/><path fill="#79AE30" d="M38 24h1v1h-1z"/><path fill="#8DC23C" d="M39 24h1v1h-1z"/><path fill="#8FC43D" d="M40 24h1v1h-1zM41 24h1v1h-1zM42 24h1v1h-1zM43 24h1v1h-1zM44 24h1v1h-1zM45 24h1v1h-1z"/><path fill="#88B93B" d="M46 24h1v1h-1z"/><path fill="#60792C" d="M47 24h1v1h-1z"/><path fill="#3E431F" d="M48 24h1v1h-1z"/><path fill="#2A2318" d="M49 24h1v1h-1z"/><path fill="#231815" d="M50 24h1v1h-1zM51 24h1v1h-1zM52 24h1v1h-1z"/><path fill="#2A2318" d="M53 24h1v1h-1z"/><path fill="#3E431F" d="M54 24h1v1h-1z"/><path fill="#596E29" d="M55 24h1v1h-1z"/><path fill="#7BA436" d="M56 24h1v1h-1z"/><path fill="#8FC43D" d="M57 24h1v1h-1zM58 24h1v1h-1zM59 24h1v1h-1zM60 24h1v1h-1zM61 24h1v1h-1zM62 24h1v1h-1zM63 24h1v1h-1zM64 24h1v1h-1zM65 24h1v1h-1zM66 24h1v1h-1zM67 24h1v1h-1zM68 24h1v1h-1zM69 24h1v1h-1z"/><path fill="#8DC23C" d="M70 24h1v1h-1z"/><path fill="#76AB2E" d="M71 24h1v1h-1z"/><path fill="#74A92D" d="M72 24h1v1h-1zM73 24h1v1h-1zM74 24h1v1h-1z"/><path fill="#231815" d="M75 24h1v1h-1zM76 24h1v1h-1zM77 24h1v1h-1zM30 25h1v1h-1zM31 25h1v1h-1zM32 25h1v1h-1zM33 25h1v1h-1z"/><path fill="#414E1E" d="M34 25h1v1h-1z"/><path fill="#6FA02C" d="M35 25h1v1h-1z"/><path fill="#74A92D" d="M36 25h1v1h-1zM37 25h1v1h-1zM38 25h1v1h-1z"/><path fill="#7BB031" d="M39 25h1v1h-1z"/><path fill="#8FC43D" d="M40 25h1v1h-1zM41 25h1v1h-1zM42 25h1v1h-1zM43 25h1v1h-1zM44 25h1v1h-1zM45 25h1v1h-1zM46 25h1v1h-1zM47 25h1v1h-1zM48 25h1v1h-1zM49 25h1v1h-1zM50 25h1v1h-1zM51 25h1v1h-1zM52 25h1v1h-1zM53 25h1v1h-1zM54 25h1v1h-1zM55 25h1v1h-1zM56 25h1v1h-1zM57 25h1v1h-1zM58 25h1v1h-1zM59 25h1v1h-1zM60 25h1v1h-1zM61 25h1v1h-1zM62 25h1v1h-1zM63 25h1v1h-1zM64 25h1v1h-1zM65 25h1v1h-1zM66 25h1v1h-1zM67 25h1v1h-1zM68 25h1v1h-1zM69 25h1v1h-1z"/><path fill="#83B836" d="M70 25h1v1h-1z"/><path fill="#74A92D" d="M71 25h1v1h-1zM72 25h1v1h-1zM73 25h1v1h-1z"/><path fill="#6FA02C" d="M74 25h1v1h-1z"/><path fill="#231815" d="M75 25h1v1h-1zM76 25h1v1h-1zM77 25h1v1h-1zM29 26h1v1h-1zM30 26h1v1h-1zM31 26h1v1h-1zM32 26h1v1h-1z"/><path fill="#3C451D" d="M33 26h1v1h-1z"/><path fill="#74A92D" d="M34 26h1v1h-1zM35 26h1v1h-1zM36 26h1v1h-1zM37 26h1v1h-1zM38 26h1v1h-1zM39 26h1v1h-1z"/><path fill="#79AE30" d="M40 26h1v1h-1z"/><path fill="#8DC23C" d="M41 26h1v1h-1z"/><path fill="#8FC43D" d="M42 26h1v1h-1zM43 26h1v1h-1zM44 26h1v1h-1zM45 26h1v1h-1zM46 26h1v1h-1zM47 26h1v1h-1zM48 26h1v1h-1zM49 26h1v1h-1zM50 26h1v1h-1zM51 26h1v1h-1zM52 26h1v1h-1zM53 26h1v1h-1zM54 26h1v1h-1zM55 26h1v1h-1zM56 26h1v1h-1zM57 26h1v1h-1zM58 26h1v1h-1zM59 26h1v1h-1zM60 26h1v1h-1zM61 26h1v1h-1zM62 26h1v1h-1zM63 26h1v1h-1zM64 26h1v1h-1zM65 26h1v1h-1zM66 26h1v1h-1zM67 26h1v1h-1zM68 26h1v1h-1z"/><path fill="#8DC23C" d="M69 26h1v1h-1z"/><path fill="#76AB2E" d="M70 26h1v1h-1z"/><path fill="#74A92D" d="M71 26h1v1h-1zM72 26h1v1h-1zM73 26h1v1h-1z"/><path fill="#608527" d="M74 26h1v1h-1z"/><path fill="#231815" d="M75 26h1v1h-1zM76 26h1v1h-1zM77 26h1v1h-1zM22 27h1v1h-1zM23 27h1v1h-1zM24 27h1v1h-1zM25 27h1v1h-1zM26 27h1v1h-1zM27 27h1v1h-1zM28 27h1v1h-1zM29 27h1v1h-1zM30 27h1v1h-1zM31 27h1v1h-1zM32 27h1v1h-1z"/><path fill="#7E8626" d="M33 27h1v1h-1z"/><path fill="#849C2A" d="M34 27h1v1h-1z"/><path fill="#7EA12B" d="M35 27h1v1h-1z"/><path fill="#76A72D" d="M36 27h1v1h-1z"/><path fill="#74A92D" d="M37 27h1v1h-1zM38 27h1v1h-1zM39 27h1v1h-1zM40 27h1v1h-1z"/><path fill="#79AE30" d="M41 27h1v1h-1z"/><path fill="#8ABF3A" d="M42 27h1v1h-1z"/><path fill="#8FC43D" d="M43 27h1v1h-1zM44 27h1v1h-1zM45 27h1v1h-1zM46 27h1v1h-1zM47 27h1v1h-1zM48 27h1v1h-1zM49 27h1v1h-1zM50 27h1v1h-1zM51 27h1v1h-1zM52 27h1v1h-1zM53 27h1v1h-1zM54 27h1v1h-1zM55 27h1v1h-1zM56 27h1v1h-1zM57 27h1v1h-1zM58 27h1v1h-1zM59 27h1v1h-1zM60 27h1v1h-1zM61 27h1v1h-1zM62 27h1v1h-1zM63 27h1v1h-1zM64 27h1v1h-1zM65 27h1v1h-1zM66 27h1v1h-1zM67 27h1v1h-1zM68 27h1v1h-1z"/><path fill="#7BB031" d="M69 27h1v1h-1z"/><path fill="#74A92D" d="M70 27h1v1h-1zM71 27h1v1h-1zM72 27h1v1h-1zM73 27h1v1h-1z"/><path fill="#567324" d="M74 27h1v1h-1z"/><path fill="#231815" d="M75 27h1v1h-1zM76 27h1v1h-1zM77 27h1v1h-1zM19 28h1v1h-1zM20 28h1v1h-1zM21 28h1v1h-1zM22 28h1v1h-1zM23 28h1v1h-1zM24 28h1v1h-1zM25 28h1v1h-1zM26 28h1v1h-1zM27 28h1v1h-1zM28 28h1v1h-1zM29 28h1v1h-1zM30 28h1v1h-1zM31 28h1v1h-1zM32 28h1v1h-1z"/><path fill="#787122" d="M33 28h1v1h-1z"/><path fill="#948E26" d="M34 28h1v1h-1zM35 28h1v1h-1zM36 28h1v1h-1z"/><path fill="#8E9327" d="M37 28h1v1h-1z"/><path fill="#829D2A" d="M38 28h1v1h-1z"/><path fill="#78A62C" d="M39 28h1v1h-1z"/><path fill="#74A92D" d="M40 28h1v1h-1zM41 28h1v1h-1z"/><path fill="#76AB2E" d="M42 28h1v1h-1z"/><path fill="#83B836" d="M43 28h1v1h-1z"/><path fill="#8FC43D" d="M44 28h1v1h-1zM45 28h1v1h-1zM46 28h1v1h-1zM47 28h1v1h-1zM48 28h1v1h-1zM49 28h1v1h-1zM50 28h1v1h-1zM51 28h1v1h-1zM52 28h1v1h-1zM53 28h1v1h-1zM54 28h1v1h-1zM55 28h1v1h-1zM56 28h1v1h-1zM57 28h1v1h-1zM58 28h1v1h-1zM59 28h1v1h-1zM60 28h1v1h-1zM61 28h1v1h-1zM62 28h1v1h-1zM63 28h1v1h-1zM64 28h1v1h-1zM65 28h1v1h-1zM66 28h1v1h-1zM67 28h1v1h-1z"/><path fill="#7EB333" d="M68 28h1v1h-1z"/><path fill="#74A92D" d="M69 28h1v1h-1zM70 28h1v1h-1zM71 28h1v1h-1zM72 28h1v1h-1zM73 28h1v1h-1z"/><path fill="#465720" d="M74 28h1v1h-1z"/><path fill="#231815" d="M75 28h1v1h-1zM76 28h1v1h-1zM77 28h1v1h-1zM17 29h1v1h-1zM18 29h1v1h-1zM19 29h1v1h-1zM20 29h1v1h-1zM21 29h1v1h-1zM22 29h1v1h-1zM23 29h1v1h-1zM24 29h1v1h-1zM25 29h1v1h-1zM26 29h1v1h-1zM27 29h1v1h-1zM28 29h1v1h-1zM29 29h1v1h-1zM30 29h1v1h-1zM31 29h1v1h-1zM32 29h1v1h-1z"/><path fill="#7F7823" d="M33 29h1v1h-1z"/><path fill="#948E26" d="M34 29h1v1h-1zM35 29h1v1h-1zM36 29h1v1h-1zM37 29h1v1h-1zM38 29h1v1h-1zM39 29h1v1h-1z"/><path fill="#8A9628" d="M40 29h1v1h-1z"/><path fill="#7CA22B" d="M41 29h1v1h-1z"/><path fill="#74A92D" d="M42 29h1v1h-1zM43 29h1v1h-1z"/><path fill="#77AC2F" d="M44 29h1v1h-1z"/><path fill="#88BD39" d="M45 29h1v1h-1z"/><path fill="#8FC43D" d="M46 29h1v1h-1zM47 29h1v1h-1zM48 29h1v1h-1zM49 29h1v1h-1zM50 29h1v1h-1zM51 29h1v1h-1zM52 29h1v1h-1zM53 29h1v1h-1zM54 29h1v1h-1zM55 29h1v1h-1zM56 29h1v1h-1zM57 29h1v1h-1zM58 29h1v1h-1zM59 29h1v1h-1zM60 29h1v1h-1zM61 29h1v1h-1zM62 29h1v1h-1zM63 29h1v1h-1zM64 29h1v1h-1zM65 29h1v1h-1z"/><path fill="#8CC13B" d="M66 29h1v1h-1z"/><path fill="#7BB031" d="M67 29h1v1h-1z"/><path fill="#74A92D" d="M68 29h1v1h-1zM69 29h1v1h-1zM70 29h1v1h-1zM71 29h1v1h-1zM72 29h1v1h-1zM73 29h1v1h-1z"/><path fill="#32331A" d="M74 29h1v1h-1z"/><path fill="#231815" d="M75 29h1v1h-1zM76 29h1v1h-1zM77 29h1v1h-1zM15 30h1v1h-1zM16 30h1v1h-1zM17 30h1v1h-1zM18 30h1v1h-1zM19 30h1v1h-1zM20 30h1v1h-1zM21 30h1v1h-1zM22 30h1v1h-1z"/><path fill="#524517" d="M23 30h1v1h-1z"/><path fill="#746718" d="M24 30h1v1h-1z"/><path fill="#978919" d="M25 30h1v1h-1z"/><path fill="#AF9F1A" d="M26 30h1v1h-1z"/><path fill="#C6B61A" d="M27 30h1v1h-1z"/><path fill="#DDCC1B" d="M28 30h1v1h-1zM29 30h1v1h-1z"/><path fill="#BAAA1A" d="M30 30h1v1h-1z"/><path fill="#AF9F1A" d="M31 30h1v1h-1z"/><path fill="#B4A61D" d="M32 30h1v1h-1z"/><path fill="#B4A921" d="M33 30h1v1h-1z"/><path fill="#A29A24" d="M34 30h1v1h-1z"/><path fill="#948E26" d="M35 30h1v1h-1zM36 30h1v1h-1zM37 30h1v1h-1zM38 30h1v1h-1zM39 30h1v1h-1zM40 30h1v1h-1zM41 30h1v1h-1z"/><path fill="#8C9528" d="M42 30h1v1h-1z"/><path fill="#7CA22B" d="M43 30h1v1h-1z"/><path fill="#74A92D" d="M44 30h1v1h-1zM45 30h1v1h-1z"/><path fill="#77AC2F" d="M46 30h1v1h-1z"/><path fill="#85BA37" d="M47 30h1v1h-1z"/><path fill="#8DC23C" d="M48 30h1v1h-1z"/><path fill="#8FC43D" d="M49 30h1v1h-1zM50 30h1v1h-1zM51 30h1v1h-1zM52 30h1v1h-1zM53 30h1v1h-1zM54 30h1v1h-1zM55 30h1v1h-1zM56 30h1v1h-1zM57 30h1v1h-1zM58 30h1v1h-1zM59 30h1v1h-1zM60 30h1v1h-1zM61 30h1v1h-1zM62 30h1v1h-1zM63 30h1v1h-1z"/><path fill="#8DC23C" d="M64 30h1v1h-1z"/><path fill="#82B735" d="M65 30h1v1h-1z"/><path fill="#76AB2E" d="M66 30h1v1h-1z"/><path fill="#74A92D" d="M67 30h1v1h-1zM68 30h1v1h-1zM69 30h1v1h-1zM70 30h1v1h-1zM71 30h1v1h-1zM72 30h1v1h-1z"/><path fill="#6A972A" d="M73 30h1v1h-1z"/><path fill="#231815" d="M74 30h1v1h-1zM75 30h1v1h-1zM76 30h1v1h-1zM77 30h1v1h-1zM14 31h1v1h-1zM15 31h1v1h-1zM16 31h1v1h-1zM17 31h1v1h-1zM18 31h1v1h-1zM19 31h1v1h-1z"/><path fill="#524517" d="M20 31h1v1h-1z"/><path fill="#978919" d="M21 31h1v1h-1z"/><path fill="#D1C11B" d="M22 31h1v1h-1z"/><path fill="#DDCC1B" d="M23 31h1v1h-1zM24 31h1v1h-1zM25 31h1v1h-1zM26 31h1v1h-1zM27 31h1v1h-1zM28 31h1v1h-1zM29 31h1v1h-1zM30 31h1v1h-1zM31 31h1v1h-1zM32 31h1v1h-1zM33 31h1v1h-1zM34 31h1v1h-1z"/><path fill="#D4C41C" d="M35 31h1v1h-1z"/><path fill="#C2B51F" d="M36 31h1v1h-1z"/><path fill="#A29A24" d="M37 31h1v1h-1z"/><path fill="#948E26" d="M38 31h1v1h-1zM39 31h1v1h-1zM40 31h1v1h-1zM41 31h1v1h-1zM42 31h1v1h-1zM43 31h1v1h-1z"/><path fill="#8C9528" d="M44 31h1v1h-1z"/><path fill="#78A62C" d="M45 31h1v1h-1z"/><path fill="#74A92D" d="M46 31h1v1h-1zM47 31h1v1h-1zM48 31h1v1h-1z"/><path fill="#7CB132" d="M49 31h1v1h-1z"/><path fill="#85BA37" d="M50 31h1v1h-1z"/><path fill="#8ABF3A" d="M51 31h1v1h-1z"/><path fill="#8FC43D" d="M52 31h1v1h-1zM53 31h1v1h-1zM54 31h1v1h-1zM55 31h1v1h-1zM56 31h1v1h-1zM57 31h1v1h-1zM58 31h1v1h-1zM59 31h1v1h-1zM60 31h1v1h-1zM61 31h1v1h-1z"/><path fill="#88BD39" d="M62 31h1v1h-1z"/><path fill="#7EB333" d="M63 31h1v1h-1z"/><path fill="#76AB2E" d="M64 31h1v1h-1z"/><path fill="#74A92D" d="M65 31h1v1h-1zM66 31h1v1h-1zM67 31h1v1h-1zM68 31h1v1h-1zM69 31h1v1h-1zM70 31h1v1h-1zM71 31h1v1h-1zM72 31h1v1h-1z"/><path fill="#516A23" d="M73 31h1v1h-1z"/><path fill="#231815" d="M74 31h1v1h-1zM75 31h1v1h-1zM76 31h1v1h-1zM12 32h1v1h-1zM13 32h1v1h-1zM14 32h1v1h-1zM15 32h1v1h-1zM16 32h1v1h-1zM17 32h1v1h-1z"/><path fill="#524517" d="M18 32h1v1h-1z"/><path fill="#AF9F1A" d="M19 32h1v1h-1z"/><path fill="#DDCC1B" d="M20 32h1v1h-1zM21 32h1v1h-1zM22 32h1v1h-1zM23 32h1v1h-1zM24 32h1v1h-1zM25 32h1v1h-1zM26 32h1v1h-1zM27 32h1v1h-1zM28 32h1v1h-1zM29 32h1v1h-1zM30 32h1v1h-1zM31 32h1v1h-1zM32 32h1v1h-1zM33 32h1v1h-1zM34 32h1v1h-1zM35 32h1v1h-1zM36 32h1v1h-1zM37 32h1v1h-1z"/><path fill="#D4C41C" d="M38 32h1v1h-1z"/><path fill="#AFA522" d="M39 32h1v1h-1z"/><path fill="#948E26" d="M40 32h1v1h-1zM41 32h1v1h-1zM42 32h1v1h-1zM43 32h1v1h-1zM44 32h1v1h-1zM45 32h1v1h-1z"/><path fill="#849C2A" d="M46 32h1v1h-1z"/><path fill="#74A92D" d="M47 32h1v1h-1zM48 32h1v1h-1zM49 32h1v1h-1zM50 32h1v1h-1zM51 32h1v1h-1zM52 32h1v1h-1z"/><path fill="#7BB031" d="M53 32h1v1h-1z"/><path fill="#7CB132" d="M54 32h1v1h-1z"/><path fill="#82B735" d="M55 32h1v1h-1zM56 32h1v1h-1zM57 32h1v1h-1zM58 32h1v1h-1z"/><path fill="#7CB132" d="M59 32h1v1h-1z"/><path fill="#7BB031" d="M60 32h1v1h-1z"/><path fill="#74A92D" d="M61 32h1v1h-1zM62 32h1v1h-1zM63 32h1v1h-1zM64 32h1v1h-1zM65 32h1v1h-1zM66 32h1v1h-1zM67 32h1v1h-1zM68 32h1v1h-1zM69 32h1v1h-1zM70 32h1v1h-1zM71 32h1v1h-1zM72 32h1v1h-1z"/><path fill="#32331A" d="M73 32h1v1h-1z"/><path fill="#231815" d="M74 32h1v1h-1zM75 32h1v1h-1zM76 32h1v1h-1zM11 33h1v1h-1zM12 33h1v1h-1zM13 33h1v1h-1zM14 33h1v1h-1zM15 33h1v1h-1z"/><path fill="#3A2F16" d="M16 33h1v1h-1z"/><path fill="#AF9F1A" d="M17 33h1v1h-1z"/><path fill="#DDCC1B" d="M18 33h1v1h-1zM19 33h1v1h-1zM20 33h1v1h-1zM21 33h1v1h-1zM22 33h1v1h-1z"/><path fill="#E1D122" d="M23 33h1v1h-1z"/><path fill="#E8D82C" d="M24 33h1v1h-1z"/><path fill="#EEE037" d="M25 33h1v1h-1z"/><path fill="#F4E741" d="M26 33h1v1h-1z"/><path fill="#F7E944" d="M27 33h1v1h-1zM28 33h1v1h-1zM29 33h1v1h-1z"/><path fill="#EEE037" d="M30 33h1v1h-1z"/><path fill="#ECDD33" d="M31 33h1v1h-1z"/><path fill="#E3D325" d="M32 33h1v1h-1z"/><path fill="#DDCC1B" d="M33 33h1v1h-1zM34 33h1v1h-1zM35 33h1v1h-1zM36 33h1v1h-1zM37 33h1v1h-1zM38 33h1v1h-1zM39 33h1v1h-1z"/><path fill="#D4C41C" d="M40 33h1v1h-1z"/><path fill="#AFA522" d="M41 33h1v1h-1z"/><path fill="#948E26" d="M42 33h1v1h-1zM43 33h1v1h-1zM44 33h1v1h-1zM45 33h1v1h-1zM46 33h1v1h-1z"/><path fill="#8E9327" d="M47 33h1v1h-1z"/><path fill="#78A62C" d="M48 33h1v1h-1z"/><path fill="#74A92D" d="M49 33h1v1h-1zM50 33h1v1h-1zM51 33h1v1h-1zM52 33h1v1h-1zM53 33h1v1h-1zM54 33h1v1h-1zM55 33h1v1h-1zM56 33h1v1h-1zM57 33h1v1h-1zM58 33h1v1h-1zM59 33h1v1h-1zM60 33h1v1h-1zM61 33h1v1h-1zM62 33h1v1h-1zM63 33h1v1h-1zM64 33h1v1h-1zM65 33h1v1h-1zM66 33h1v1h-1zM67 33h1v1h-1zM68 33h1v1h-1zM69 33h1v1h-1zM70 33h1v1h-1zM71 33h1v1h-1z"/><path fill="#608527" d="M72 33h1v1h-1z"/><path fill="#231815" d="M73 33h1v1h-1zM74 33h1v1h-1zM75 33h1v1h-1zM76 33h1v1h-1zM10 34h1v1h-1zM11 34h1v1h-1zM12 34h1v1h-1zM13 34h1v1h-1zM14 34h1v1h-1z"/><path fill="#695C17" d="M15 34h1v1h-1z"/><path fill="#D1C11B" d="M16 34h1v1h-1z"/><path fill="#DDCC1B" d="M17 34h1v1h-1zM18 34h1v1h-1zM19 34h1v1h-1z"/><path fill="#DFCE1E" d="M20 34h1v1h-1z"/><path fill="#EADB30" d="M21 34h1v1h-1z"/><path fill="#F9EC48" d="M22 34h1v1h-1z"/><path fill="#FFF352" d="M23 34h1v1h-1zM24 34h1v1h-1zM25 34h1v1h-1zM26 34h1v1h-1zM27 34h1v1h-1zM28 34h1v1h-1zM29 34h1v1h-1zM30 34h1v1h-1zM31 34h1v1h-1zM32 34h1v1h-1z"/><path fill="#FBEE4B" d="M33 34h1v1h-1z"/><path fill="#F0E23A" d="M34 34h1v1h-1z"/><path fill="#E1D122" d="M35 34h1v1h-1z"/><path fill="#DDCC1B" d="M36 34h1v1h-1zM37 34h1v1h-1zM38 34h1v1h-1zM39 34h1v1h-1zM40 34h1v1h-1zM41 34h1v1h-1z"/><path fill="#CFC01D" d="M42 34h1v1h-1z"/><path fill="#A69E23" d="M43 34h1v1h-1z"/><path fill="#948E26" d="M44 34h1v1h-1zM45 34h1v1h-1zM46 34h1v1h-1zM47 34h1v1h-1z"/><path fill="#929026" d="M48 34h1v1h-1z"/><path fill="#7CA22B" d="M49 34h1v1h-1z"/><path fill="#74A92D" d="M50 34h1v1h-1zM51 34h1v1h-1zM52 34h1v1h-1zM53 34h1v1h-1zM54 34h1v1h-1zM55 34h1v1h-1zM56 34h1v1h-1zM57 34h1v1h-1zM58 34h1v1h-1zM59 34h1v1h-1zM60 34h1v1h-1zM61 34h1v1h-1zM62 34h1v1h-1zM63 34h1v1h-1zM64 34h1v1h-1zM65 34h1v1h-1zM66 34h1v1h-1zM67 34h1v1h-1zM68 34h1v1h-1zM69 34h1v1h-1zM70 34h1v1h-1zM71 34h1v1h-1z"/><path fill="#373C1B" d="M72 34h1v1h-1z"/><path fill="#231815" d="M73 34h1v1h-1zM74 34h1v1h-1zM75 34h1v1h-1zM9 35h1v1H9zM10 35h1v1h-1zM11 35h1v1h-1zM12 35h1v1h-1zM13 35h1v1h-1z"/><path fill="#978919" d="M14 35h1v1h-1z"/><path fill="#DDCC1B" d="M15 35h1v1h-1zM16 35h1v1h-1zM17 35h1v1h-1zM18 35h1v1h-1z"/><path fill="#EADB30" d="M19 35h1v1h-1z"/><path fill="#FDF14F" d="M20 35h1v1h-1z"/><path fill="#FFF352" d="M21 35h1v1h-1zM22 35h1v1h-1zM23 35h1v1h-1zM24 35h1v1h-1zM25 35h1v1h-1zM26 35h1v1h-1zM27 35h1v1h-1zM28 35h1v1h-1zM29 35h1v1h-1zM30 35h1v1h-1zM31 35h1v1h-1zM32 35h1v1h-1zM33 35h1v1h-1zM34 35h1v1h-1zM35 35h1v1h-1z"/><path fill="#F2E43D" d="M36 35h1v1h-1z"/><path fill="#DFCE1E" d="M37 35h1v1h-1z"/><path fill="#DDCC1B" d="M38 35h1v1h-1zM39 35h1v1h-1zM40 35h1v1h-1zM41 35h1v1h-1zM42 35h1v1h-1zM43 35h1v1h-1z"/><path fill="#BDB120" d="M44 35h1v1h-1z"/><path fill="#999225" d="M45 35h1v1h-1z"/><path fill="#948E26" d="M46 35h1v1h-1zM47 35h1v1h-1zM48 35h1v1h-1zM49 35h1v1h-1z"/><path fill="#809F2A" d="M50 35h1v1h-1z"/><path fill="#74A92D" d="M51 35h1v1h-1zM52 35h1v1h-1zM53 35h1v1h-1zM54 35h1v1h-1zM55 35h1v1h-1zM56 35h1v1h-1zM57 35h1v1h-1zM58 35h1v1h-1zM59 35h1v1h-1zM60 35h1v1h-1zM61 35h1v1h-1zM62 35h1v1h-1zM63 35h1v1h-1zM64 35h1v1h-1zM65 35h1v1h-1zM66 35h1v1h-1zM67 35h1v1h-1zM68 35h1v1h-1zM69 35h1v1h-1zM70 35h1v1h-1z"/><path fill="#608527" d="M71 35h1v1h-1z"/><path fill="#231815" d="M72 35h1v1h-1zM73 35h1v1h-1zM74 35h1v1h-1zM75 35h1v1h-1zM8 36h1v1H8zM9 36h1v1H9zM10 36h1v1h-1zM11 36h1v1h-1zM12 36h1v1h-1z"/><path fill="#978919" d="M13 36h1v1h-1z"/><path fill="#DDCC1B" d="M14 36h1v1h-1zM15 36h1v1h-1zM16 36h1v1h-1z"/><path fill="#E1D122" d="M17 36h1v1h-1z"/><path fill="#F7E944" d="M18 36h1v1h-1z"/><path fill="#FFF352" d="M19 36h1v1h-1zM20 36h1v1h-1zM21 36h1v1h-1zM22 36h1v1h-1zM23 36h1v1h-1zM24 36h1v1h-1zM25 36h1v1h-1zM26 36h1v1h-1zM27 36h1v1h-1zM28 36h1v1h-1zM29 36h1v1h-1zM30 36h1v1h-1zM31 36h1v1h-1zM32 36h1v1h-1zM33 36h1v1h-1zM34 36h1v1h-1zM35 36h1v1h-1zM36 36h1v1h-1z"/><path fill="#FDF14F" d="M37 36h1v1h-1z"/><path fill="#E8D82C" d="M38 36h1v1h-1z"/><path fill="#DDCC1B" d="M39 36h1v1h-1zM40 36h1v1h-1zM41 36h1v1h-1zM42 36h1v1h-1zM43 36h1v1h-1zM44 36h1v1h-1z"/><path fill="#CFC01D" d="M45 36h1v1h-1z"/><path fill="#A29A24" d="M46 36h1v1h-1z"/><path fill="#948E26" d="M47 36h1v1h-1zM48 36h1v1h-1zM49 36h1v1h-1zM50 36h1v1h-1z"/><path fill="#869A29" d="M51 36h1v1h-1z"/><path fill="#74A92D" d="M52 36h1v1h-1zM53 36h1v1h-1zM54 36h1v1h-1zM55 36h1v1h-1zM56 36h1v1h-1zM57 36h1v1h-1zM58 36h1v1h-1zM59 36h1v1h-1zM60 36h1v1h-1zM61 36h1v1h-1zM62 36h1v1h-1zM63 36h1v1h-1zM64 36h1v1h-1zM65 36h1v1h-1zM66 36h1v1h-1zM67 36h1v1h-1zM68 36h1v1h-1zM69 36h1v1h-1zM70 36h1v1h-1z"/><path fill="#373C1B" d="M71 36h1v1h-1z"/><path fill="#231815" d="M72 36h1v1h-1zM73 36h1v1h-1zM74 36h1v1h-1zM8 37h1v1H8zM9 37h1v1H9zM10 37h1v1h-1zM11 37h1v1h-1z"/><path fill="#978919" d="M12 37h1v1h-1z"/><path fill="#DDCC1B" d="M13 37h1v1h-1zM14 37h1v1h-1zM15 37h1v1h-1z"/><path fill="#E3D325" d="M16 37h1v1h-1z"/><path fill="#FDF14F" d="M17 37h1v1h-1z"/><path fill="#FFF352" d="M18 37h1v1h-1zM19 37h1v1h-1zM20 37h1v1h-1zM21 37h1v1h-1zM22 37h1v1h-1zM23 37h1v1h-1zM24 37h1v1h-1zM25 37h1v1h-1zM26 37h1v1h-1zM27 37h1v1h-1zM28 37h1v1h-1zM29 37h1v1h-1zM30 37h1v1h-1zM31 37h1v1h-1zM32 37h1v1h-1zM33 37h1v1h-1zM34 37h1v1h-1zM35 37h1v1h-1zM36 37h1v1h-1zM37 37h1v1h-1zM38 37h1v1h-1z"/><path fill="#EEE037" d="M39 37h1v1h-1z"/><path fill="#DDCC1B" d="M40 37h1v1h-1zM41 37h1v1h-1zM42 37h1v1h-1zM43 37h1v1h-1zM44 37h1v1h-1zM45 37h1v1h-1z"/><path fill="#D8C81C" d="M46 37h1v1h-1z"/><path fill="#AFA522" d="M47 37h1v1h-1z"/><path fill="#948E26" d="M48 37h1v1h-1zM49 37h1v1h-1zM50 37h1v1h-1zM51 37h1v1h-1z"/><path fill="#889829" d="M52 37h1v1h-1z"/><path fill="#74A92D" d="M53 37h1v1h-1zM54 37h1v1h-1zM55 37h1v1h-1zM56 37h1v1h-1zM57 37h1v1h-1zM58 37h1v1h-1zM59 37h1v1h-1zM60 37h1v1h-1zM61 37h1v1h-1zM62 37h1v1h-1zM63 37h1v1h-1zM64 37h1v1h-1zM65 37h1v1h-1zM66 37h1v1h-1zM67 37h1v1h-1zM68 37h1v1h-1zM69 37h1v1h-1z"/><path fill="#5B7C26" d="M70 37h1v1h-1z"/><path fill="#231815" d="M71 37h1v1h-1zM72 37h1v1h-1zM73 37h1v1h-1zM74 37h1v1h-1zM7 38h1v1H7zM8 38h1v1H8zM9 38h1v1H9zM10 38h1v1h-1z"/><path fill="#8C7D18" d="M11 38h1v1h-1z"/><path fill="#DDCC1B" d="M12 38h1v1h-1zM13 38h1v1h-1zM14 38h1v1h-1z"/><path fill="#E3D325" d="M15 38h1v1h-1z"/><path fill="#FDF14F" d="M16 38h1v1h-1z"/><path fill="#FFF352" d="M17 38h1v1h-1zM18 38h1v1h-1zM19 38h1v1h-1zM20 38h1v1h-1zM21 38h1v1h-1zM22 38h1v1h-1zM23 38h1v1h-1zM24 38h1v1h-1zM25 38h1v1h-1zM26 38h1v1h-1zM27 38h1v1h-1zM28 38h1v1h-1zM29 38h1v1h-1zM30 38h1v1h-1zM31 38h1v1h-1zM32 38h1v1h-1zM33 38h1v1h-1zM34 38h1v1h-1zM35 38h1v1h-1zM36 38h1v1h-1zM37 38h1v1h-1zM38 38h1v1h-1zM39 38h1v1h-1z"/><path fill="#F2E43D" d="M40 38h1v1h-1z"/><path fill="#DDCC1B" d="M41 38h1v1h-1zM42 38h1v1h-1zM43 38h1v1h-1zM44 38h1v1h-1zM45 38h1v1h-1zM46 38h1v1h-1zM47 38h1v1h-1z"/><path fill="#B9AD21" d="M48 38h1v1h-1z"/><path fill="#948E26" d="M49 38h1v1h-1zM50 38h1v1h-1zM51 38h1v1h-1zM52 38h1v1h-1z"/><path fill="#849C2A" d="M53 38h1v1h-1z"/><path fill="#74A92D" d="M54 38h1v1h-1zM55 38h1v1h-1zM56 38h1v1h-1zM57 38h1v1h-1zM58 38h1v1h-1zM59 38h1v1h-1zM60 38h1v1h-1zM61 38h1v1h-1zM62 38h1v1h-1zM63 38h1v1h-1zM64 38h1v1h-1zM65 38h1v1h-1zM66 38h1v1h-1zM67 38h1v1h-1zM68 38h1v1h-1z"/><path fill="#6FA02C" d="M69 38h1v1h-1z"/><path fill="#282117" d="M70 38h1v1h-1z"/><path fill="#231815" d="M71 38h1v1h-1zM72 38h1v1h-1zM73 38h1v1h-1zM6 39h1v1H6zM7 39h1v1H7zM8 39h1v1H8zM9 39h1v1H9z"/><path fill="#5D5017" d="M10 39h1v1h-1z"/><path fill="#DDCC1B" d="M11 39h1v1h-1zM12 39h1v1h-1zM13 39h1v1h-1z"/><path fill="#E3D325" d="M14 39h1v1h-1z"/><path fill="#FDF14F" d="M15 39h1v1h-1z"/><path fill="#FFF352" d="M16 39h1v1h-1zM17 39h1v1h-1zM18 39h1v1h-1zM19 39h1v1h-1zM20 39h1v1h-1zM21 39h1v1h-1zM22 39h1v1h-1zM23 39h1v1h-1zM24 39h1v1h-1zM25 39h1v1h-1zM26 39h1v1h-1zM27 39h1v1h-1zM28 39h1v1h-1zM29 39h1v1h-1zM30 39h1v1h-1zM31 39h1v1h-1zM32 39h1v1h-1zM33 39h1v1h-1zM34 39h1v1h-1zM35 39h1v1h-1zM36 39h1v1h-1zM37 39h1v1h-1zM38 39h1v1h-1zM39 39h1v1h-1zM40 39h1v1h-1z"/><path fill="#ECDD33" d="M41 39h1v1h-1z"/><path fill="#DDCC1B" d="M42 39h1v1h-1zM43 39h1v1h-1zM44 39h1v1h-1zM45 39h1v1h-1zM46 39h1v1h-1zM47 39h1v1h-1zM48 39h1v1h-1z"/><path fill="#C2B51F" d="M49 39h1v1h-1z"/><path fill="#948E26" d="M50 39h1v1h-1zM51 39h1v1h-1zM52 39h1v1h-1zM53 39h1v1h-1z"/><path fill="#809F2A" d="M54 39h1v1h-1z"/><path fill="#74A92D" d="M55 39h1v1h-1zM56 39h1v1h-1zM57 39h1v1h-1zM58 39h1v1h-1zM59 39h1v1h-1zM60 39h1v1h-1zM61 39h1v1h-1zM62 39h1v1h-1zM63 39h1v1h-1zM64 39h1v1h-1zM65 39h1v1h-1zM66 39h1v1h-1zM67 39h1v1h-1zM68 39h1v1h-1z"/><path fill="#3C451D" d="M69 39h1v1h-1z"/><path fill="#231815" d="M70 39h1v1h-1zM71 39h1v1h-1zM72 39h1v1h-1zM73 39h1v1h-1zM6 40h1v1H6zM7 40h1v1H7zM8 40h1v1H8z"/><path fill="#2F2315" d="M9 40h1v1H9z"/><path fill="#D1C11B" d="M10 40h1v1h-1z"/><path fill="#DDCC1B" d="M11 40h1v1h-1zM12 40h1v1h-1z"/><path fill="#DFCE1E" d="M13 40h1v1h-1z"/><path fill="#F9EC48" d="M14 40h1v1h-1z"/><path fill="#FFF352" d="M15 40h1v1h-1zM16 40h1v1h-1zM17 40h1v1h-1zM18 40h1v1h-1zM19 40h1v1h-1zM20 40h1v1h-1zM21 40h1v1h-1zM22 40h1v1h-1zM23 40h1v1h-1zM24 40h1v1h-1zM25 40h1v1h-1zM26 40h1v1h-1zM27 40h1v1h-1zM28 40h1v1h-1zM29 40h1v1h-1zM30 40h1v1h-1zM31 40h1v1h-1zM32 40h1v1h-1zM33 40h1v1h-1zM34 40h1v1h-1zM35 40h1v1h-1zM36 40h1v1h-1zM37 40h1v1h-1zM38 40h1v1h-1zM39 40h1v1h-1zM40 40h1v1h-1zM41 40h1v1h-1z"/><path fill="#E6D629" d="M42 40h1v1h-1z"/><path fill="#DDCC1B" d="M43 40h1v1h-1zM44 40h1v1h-1zM45 40h1v1h-1zM46 40h1v1h-1zM47 40h1v1h-1zM48 40h1v1h-1zM49 40h1v1h-1z"/><path fill="#C2B51F" d="M50 40h1v1h-1z"/><path fill="#948E26" d="M51 40h1v1h-1zM52 40h1v1h-1zM53 40h1v1h-1zM54 40h1v1h-1z"/><path fill="#7AA42C" d="M55 40h1v1h-1z"/><path fill="#74A92D" d="M56 40h1v1h-1zM57 40h1v1h-1zM58 40h1v1h-1zM59 40h1v1h-1zM60 40h1v1h-1zM61 40h1v1h-1zM62 40h1v1h-1zM63 40h1v1h-1zM64 40h1v1h-1zM65 40h1v1h-1zM66 40h1v1h-1zM67 40h1v1h-1z"/><path fill="#516A23" d="M68 40h1v1h-1z"/><path fill="#231815" d="M69 40h1v1h-1zM70 40h1v1h-1zM71 40h1v1h-1zM72 40h1v1h-1zM5 41h1v1H5zM6 41h1v1H6zM7 41h1v1H7zM8 41h1v1H8z"/><path fill="#A39419" d="M9 41h1v1H9z"/><path fill="#DDCC1B" d="M10 41h1v1h-1zM11 41h1v1h-1zM12 41h1v1h-1z"/><path fill="#EEE037" d="M13 41h1v1h-1z"/><path fill="#FFF352" d="M14 41h1v1h-1zM15 41h1v1h-1zM16 41h1v1h-1zM17 41h1v1h-1zM18 41h1v1h-1zM19 41h1v1h-1zM20 41h1v1h-1zM21 41h1v1h-1zM22 41h1v1h-1zM23 41h1v1h-1zM24 41h1v1h-1zM25 41h1v1h-1zM26 41h1v1h-1zM27 41h1v1h-1zM28 41h1v1h-1zM29 41h1v1h-1zM30 41h1v1h-1zM31 41h1v1h-1zM32 41h1v1h-1zM33 41h1v1h-1zM34 41h1v1h-1zM35 41h1v1h-1zM36 41h1v1h-1zM37 41h1v1h-1zM38 41h1v1h-1zM39 41h1v1h-1zM40 41h1v1h-1zM41 41h1v1h-1z"/><path fill="#FBEE4B" d="M42 41h1v1h-1z"/><path fill="#DFCE1E" d="M43 41h1v1h-1z"/><path fill="#DDCC1B" d="M44 41h1v1h-1zM45 41h1v1h-1zM46 41h1v1h-1zM47 41h1v1h-1zM48 41h1v1h-1zM49 41h1v1h-1zM50 41h1v1h-1z"/><path fill="#C2B51F" d="M51 41h1v1h-1z"/><path fill="#948E26" d="M52 41h1v1h-1zM53 41h1v1h-1zM54 41h1v1h-1z"/><path fill="#909127" d="M55 41h1v1h-1z"/><path fill="#76A72D" d="M56 41h1v1h-1z"/><path fill="#74A92D" d="M57 41h1v1h-1zM58 41h1v1h-1zM59 41h1v1h-1zM60 41h1v1h-1zM61 41h1v1h-1zM62 41h1v1h-1zM63 41h1v1h-1zM64 41h1v1h-1zM65 41h1v1h-1zM66 41h1v1h-1z"/><path fill="#608527" d="M67 41h1v1h-1z"/><path fill="#231815" d="M68 41h1v1h-1zM69 41h1v1h-1zM70 41h1v1h-1zM71 41h1v1h-1zM5 42h1v1H5zM6 42h1v1H6zM7 42h1v1H7z"/><path fill="#524517" d="M8 42h1v1H8z"/><path fill="#DDCC1B" d="M9 42h1v1H9zM10 42h1v1h-1zM11 42h1v1h-1z"/><path fill="#E1D122" d="M12 42h1v1h-1z"/><path fill="#FFF352" d="M13 42h1v1h-1zM14 42h1v1h-1zM15 42h1v1h-1zM16 42h1v1h-1zM17 42h1v1h-1zM18 42h1v1h-1zM19 42h1v1h-1zM20 42h1v1h-1zM21 42h1v1h-1zM22 42h1v1h-1zM23 42h1v1h-1zM24 42h1v1h-1zM25 42h1v1h-1zM26 42h1v1h-1zM27 42h1v1h-1zM28 42h1v1h-1zM29 42h1v1h-1zM30 42h1v1h-1zM31 42h1v1h-1zM32 42h1v1h-1zM33 42h1v1h-1zM34 42h1v1h-1zM35 42h1v1h-1zM36 42h1v1h-1zM37 42h1v1h-1zM38 42h1v1h-1zM39 42h1v1h-1zM40 42h1v1h-1zM41 42h1v1h-1zM42 42h1v1h-1z"/><path fill="#EEE037" d="M43 42h1v1h-1z"/><path fill="#DDCC1B" d="M44 42h1v1h-1zM45 42h1v1h-1zM46 42h1v1h-1zM47 42h1v1h-1zM48 42h1v1h-1zM49 42h1v1h-1zM50 42h1v1h-1zM51 42h1v1h-1z"/><path fill="#B4A921" d="M52 42h1v1h-1z"/><path fill="#948E26" d="M53 42h1v1h-1zM54 42h1v1h-1zM55 42h1v1h-1z"/><path fill="#8A9628" d="M56 42h1v1h-1z"/><path fill="#74A92D" d="M57 42h1v1h-1zM58 42h1v1h-1zM59 42h1v1h-1zM60 42h1v1h-1zM61 42h1v1h-1zM62 42h1v1h-1zM63 42h1v1h-1zM64 42h1v1h-1zM65 42h1v1h-1z"/><path fill="#658E29" d="M66 42h1v1h-1z"/><path fill="#282117" d="M67 42h1v1h-1z"/><path fill="#231815" d="M68 42h1v1h-1zM69 42h1v1h-1zM70 42h1v1h-1zM71 42h1v1h-1zM4 43h1v1H4zM5 43h1v1H5zM6 43h1v1H6zM7 43h1v1H7z"/><path fill="#C6B61A" d="M8 43h1v1H8z"/><path fill="#DDCC1B" d="M9 43h1v1H9zM10 43h1v1h-1zM11 43h1v1h-1z"/><path fill="#F2E43D" d="M12 43h1v1h-1z"/><path fill="#FFF352" d="M13 43h1v1h-1zM14 43h1v1h-1zM15 43h1v1h-1zM16 43h1v1h-1zM17 43h1v1h-1zM18 43h1v1h-1zM19 43h1v1h-1zM20 43h1v1h-1zM21 43h1v1h-1zM22 43h1v1h-1z"/><path fill="#FFF45C" d="M23 43h1v1h-1z"/><path fill="#FFF8A0" d="M24 43h1v1h-1z"/><path fill="#FFFBC6" d="M25 43h1v1h-1zM26 43h1v1h-1z"/><path fill="#FFF682" d="M27 43h1v1h-1z"/><path fill="#FFF352" d="M28 43h1v1h-1zM29 43h1v1h-1zM30 43h1v1h-1zM31 43h1v1h-1zM32 43h1v1h-1zM33 43h1v1h-1zM34 43h1v1h-1zM35 43h1v1h-1zM36 43h1v1h-1zM37 43h1v1h-1zM38 43h1v1h-1zM39 43h1v1h-1zM40 43h1v1h-1zM41 43h1v1h-1zM42 43h1v1h-1z"/><path fill="#FDF14F" d="M43 43h1v1h-1z"/><path fill="#DFCE1E" d="M44 43h1v1h-1z"/><path fill="#DDCC1B" d="M45 43h1v1h-1zM46 43h1v1h-1zM47 43h1v1h-1zM48 43h1v1h-1zM49 43h1v1h-1zM50 43h1v1h-1zM51 43h1v1h-1zM52 43h1v1h-1z"/><path fill="#ABA123" d="M53 43h1v1h-1z"/><path fill="#948E26" d="M54 43h1v1h-1zM55 43h1v1h-1zM56 43h1v1h-1z"/><path fill="#7EA12B" d="M57 43h1v1h-1z"/><path fill="#74A92D" d="M58 43h1v1h-1zM59 43h1v1h-1zM60 43h1v1h-1zM61 43h1v1h-1zM62 43h1v1h-1zM63 43h1v1h-1zM64 43h1v1h-1z"/><path fill="#658E29" d="M65 43h1v1h-1z"/><path fill="#282117" d="M66 43h1v1h-1z"/><path fill="#231815" d="M67 43h1v1h-1zM68 43h1v1h-1zM69 43h1v1h-1zM70 43h1v1h-1zM4 44h1v1H4zM5 44h1v1H5zM6 44h1v1H6z"/><path fill="#695C17" d="M7 44h1v1H7z"/><path fill="#DDCC1B" d="M8 44h1v1H8zM9 44h1v1H9zM10 44h1v1h-1z"/><path fill="#DFCE1E" d="M11 44h1v1h-1z"/><path fill="#FFF352" d="M12 44h1v1h-1zM13 44h1v1h-1zM14 44h1v1h-1zM15 44h1v1h-1zM16 44h1v1h-1zM17 44h1v1h-1zM18 44h1v1h-1zM19 44h1v1h-1zM20 44h1v1h-1zM21 44h1v1h-1zM22 44h1v1h-1z"/><path fill="#FFFBD0" d="M23 44h1v1h-1z"/><path fill="#FFFDED" d="M24 44h1v1h-1zM25 44h1v1h-1zM26 44h1v1h-1zM27 44h1v1h-1z"/><path fill="#FFF796" d="M28 44h1v1h-1z"/><path fill="#FFF352" d="M29 44h1v1h-1zM30 44h1v1h-1zM31 44h1v1h-1zM32 44h1v1h-1zM33 44h1v1h-1zM34 44h1v1h-1zM35 44h1v1h-1zM36 44h1v1h-1zM37 44h1v1h-1zM38 44h1v1h-1zM39 44h1v1h-1zM40 44h1v1h-1zM41 44h1v1h-1zM42 44h1v1h-1zM43 44h1v1h-1z"/><path fill="#EADB30" d="M44 44h1v1h-1z"/><path fill="#DDCC1B" d="M45 44h1v1h-1zM46 44h1v1h-1zM47 44h1v1h-1zM48 44h1v1h-1zM49 44h1v1h-1zM50 44h1v1h-1zM51 44h1v1h-1zM52 44h1v1h-1z"/><path fill="#D8C81C" d="M53 44h1v1h-1z"/><path fill="#9D9625" d="M54 44h1v1h-1z"/><path fill="#948E26" d="M55 44h1v1h-1zM56 44h1v1h-1z"/><path fill="#929026" d="M57 44h1v1h-1z"/><path fill="#76A72D" d="M58 44h1v1h-1z"/><path fill="#74A92D" d="M59 44h1v1h-1zM60 44h1v1h-1zM61 44h1v1h-1zM62 44h1v1h-1zM63 44h1v1h-1z"/><path fill="#5B7C26" d="M64 44h1v1h-1z"/><path fill="#282117" d="M65 44h1v1h-1z"/><path fill="#231815" d="M66 44h1v1h-1zM67 44h1v1h-1zM68 44h1v1h-1zM69 44h1v1h-1zM3 45h1v1H3zM4 45h1v1H4zM5 45h1v1H5zM6 45h1v1H6z"/><path fill="#BAAA1A" d="M7 45h1v1H7z"/><path fill="#DDCC1B" d="M8 45h1v1H8zM9 45h1v1H9zM10 45h1v1h-1z"/><path fill="#EADB30" d="M11 45h1v1h-1z"/><path fill="#FFF352" d="M12 45h1v1h-1zM13 45h1v1h-1zM14 45h1v1h-1zM15 45h1v1h-1zM16 45h1v1h-1zM17 45h1v1h-1zM18 45h1v1h-1zM19 45h1v1h-1zM20 45h1v1h-1zM21 45h1v1h-1z"/><path fill="#FFF78C" d="M22 45h1v1h-1z"/><path fill="#FFFDED" d="M23 45h1v1h-1zM24 45h1v1h-1zM25 45h1v1h-1zM26 45h1v1h-1zM27 45h1v1h-1zM28 45h1v1h-1z"/><path fill="#FFF45C" d="M29 45h1v1h-1z"/><path fill="#FFF352" d="M30 45h1v1h-1zM31 45h1v1h-1zM32 45h1v1h-1zM33 45h1v1h-1zM34 45h1v1h-1zM35 45h1v1h-1zM36 45h1v1h-1zM37 45h1v1h-1zM38 45h1v1h-1zM39 45h1v1h-1zM40 45h1v1h-1zM41 45h1v1h-1zM42 45h1v1h-1zM43 45h1v1h-1z"/><path fill="#F4E741" d="M44 45h1v1h-1z"/><path fill="#DDCC1B" d="M45 45h1v1h-1zM46 45h1v1h-1zM47 45h1v1h-1zM48 45h1v1h-1zM49 45h1v1h-1zM50 45h1v1h-1zM51 45h1v1h-1zM52 45h1v1h-1zM53 45h1v1h-1z"/><path fill="#CBBD1E" d="M54 45h1v1h-1z"/><path fill="#948E26" d="M55 45h1v1h-1zM56 45h1v1h-1zM57 45h1v1h-1z"/><path fill="#849C2A" d="M58 45h1v1h-1z"/><path fill="#74A92D" d="M59 45h1v1h-1zM60 45h1v1h-1zM61 45h1v1h-1zM62 45h1v1h-1z"/><path fill="#4C6121" d="M63 45h1v1h-1z"/><path fill="#231815" d="M64 45h1v1h-1zM65 45h1v1h-1zM66 45h1v1h-1zM67 45h1v1h-1zM68 45h1v1h-1zM3 46h1v1H3zM4 46h1v1H4zM5 46h1v1H5z"/><path fill="#524517" d="M6 46h1v1H6z"/><path fill="#DDCC1B" d="M7 46h1v1H7zM8 46h1v1H8zM9 46h1v1H9zM10 46h1v1h-1z"/><path fill="#F4E741" d="M11 46h1v1h-1z"/><path fill="#FFF352" d="M12 46h1v1h-1zM13 46h1v1h-1zM14 46h1v1h-1zM15 46h1v1h-1zM16 46h1v1h-1zM17 46h1v1h-1zM18 46h1v1h-1zM19 46h1v1h-1zM20 46h1v1h-1zM21 46h1v1h-1z"/><path fill="#FFFABD" d="M22 46h1v1h-1z"/><path fill="#FFFDED" d="M23 46h1v1h-1zM24 46h1v1h-1zM25 46h1v1h-1zM26 46h1v1h-1zM27 46h1v1h-1zM28 46h1v1h-1z"/><path fill="#FFF682" d="M29 46h1v1h-1z"/><path fill="#FFF352" d="M30 46h1v1h-1zM31 46h1v1h-1zM32 46h1v1h-1zM33 46h1v1h-1zM34 46h1v1h-1zM35 46h1v1h-1zM36 46h1v1h-1zM37 46h1v1h-1zM38 46h1v1h-1zM39 46h1v1h-1zM40 46h1v1h-1zM41 46h1v1h-1zM42 46h1v1h-1zM43 46h1v1h-1zM44 46h1v1h-1z"/><path fill="#DDCC1B" d="M45 46h1v1h-1zM46 46h1v1h-1zM47 46h1v1h-1zM48 46h1v1h-1zM49 46h1v1h-1zM50 46h1v1h-1zM51 46h1v1h-1zM52 46h1v1h-1zM53 46h1v1h-1zM54 46h1v1h-1z"/><path fill="#B4A921" d="M55 46h1v1h-1z"/><path fill="#948E26" d="M56 46h1v1h-1zM57 46h1v1h-1z"/><path fill="#929026" d="M58 46h1v1h-1z"/><path fill="#76A72D" d="M59 46h1v1h-1z"/><path fill="#74A92D" d="M60 46h1v1h-1z"/><path fill="#608527" d="M61 46h1v1h-1z"/><path fill="#32331A" d="M62 46h1v1h-1z"/><path fill="#231815" d="M63 46h1v1h-1zM64 46h1v1h-1zM65 46h1v1h-1zM66 46h1v1h-1zM67 46h1v1h-1zM3 47h1v1H3zM4 47h1v1H4zM5 47h1v1H5z"/><path fill="#978919" d="M6 47h1v1H6z"/><path fill="#DDCC1B" d="M7 47h1v1H7zM8 47h1v1H8zM9 47h1v1H9zM10 47h1v1h-1z"/><path fill="#FBEE4B" d="M11 47h1v1h-1z"/><path fill="#FFF352" d="M12 47h1v1h-1zM13 47h1v1h-1zM14 47h1v1h-1zM15 47h1v1h-1zM16 47h1v1h-1zM17 47h1v1h-1zM18 47h1v1h-1zM19 47h1v1h-1zM20 47h1v1h-1zM21 47h1v1h-1z"/><path fill="#FFFBC6" d="M22 47h1v1h-1z"/><path fill="#FFFDED" d="M23 47h1v1h-1zM24 47h1v1h-1zM25 47h1v1h-1zM26 47h1v1h-1zM27 47h1v1h-1zM28 47h1v1h-1z"/><path fill="#FFF8A0" d="M29 47h1v1h-1z"/><path fill="#FFF352" d="M30 47h1v1h-1zM31 47h1v1h-1zM32 47h1v1h-1zM33 47h1v1h-1zM34 47h1v1h-1zM35 47h1v1h-1zM36 47h1v1h-1zM37 47h1v1h-1zM38 47h1v1h-1zM39 47h1v1h-1zM40 47h1v1h-1zM41 47h1v1h-1zM42 47h1v1h-1zM43 47h1v1h-1zM44 47h1v1h-1z"/><path fill="#E6D629" d="M45 47h1v1h-1z"/><path fill="#DDCC1B" d="M46 47h1v1h-1zM47 47h1v1h-1zM48 47h1v1h-1zM49 47h1v1h-1zM50 47h1v1h-1zM51 47h1v1h-1zM52 47h1v1h-1zM53 47h1v1h-1zM54 47h1v1h-1z"/><path fill="#D8C81C" d="M55 47h1v1h-1z"/><path fill="#999225" d="M56 47h1v1h-1z"/><path fill="#4D441B" d="M57 47h1v1h-1z"/><path fill="#3F3619" d="M58 47h1v1h-1z"/><path fill="#5E6C22" d="M59 47h1v1h-1z"/><path fill="#373C1B" d="M60 47h1v1h-1z"/><path fill="#231815" d="M61 47h1v1h-1zM62 47h1v1h-1zM63 47h1v1h-1zM64 47h1v1h-1zM65 47h1v1h-1zM66 47h1v1h-1zM2 48h1v1H2zM3 48h1v1H3zM4 48h1v1H4z"/><path fill="#2F2315" d="M5 48h1v1H5z"/><path fill="#DDCC1B" d="M6 48h1v1H6zM7 48h1v1H7zM8 48h1v1H8zM9 48h1v1H9zM10 48h1v1h-1z"/><path fill="#FFF352" d="M11 48h1v1h-1zM12 48h1v1h-1zM13 48h1v1h-1zM14 48h1v1h-1zM15 48h1v1h-1zM16 48h1v1h-1zM17 48h1v1h-1zM18 48h1v1h-1zM19 48h1v1h-1zM20 48h1v1h-1zM21 48h1v1h-1z"/><path fill="#FFF9B3" d="M22 48h1v1h-1z"/><path fill="#FFFDED" d="M23 48h1v1h-1zM24 48h1v1h-1zM25 48h1v1h-1zM26 48h1v1h-1zM27 48h1v1h-1zM28 48h1v1h-1z"/><path fill="#FFF679" d="M29 48h1v1h-1z"/><path fill="#FFF352" d="M30 48h1v1h-1zM31 48h1v1h-1zM32 48h1v1h-1zM33 48h1v1h-1zM34 48h1v1h-1zM35 48h1v1h-1zM36 48h1v1h-1zM37 48h1v1h-1zM38 48h1v1h-1zM39 48h1v1h-1zM40 48h1v1h-1zM41 48h1v1h-1zM42 48h1v1h-1zM43 48h1v1h-1zM44 48h1v1h-1z"/><path fill="#ECDD33" d="M45 48h1v1h-1z"/><path fill="#DDCC1B" d="M46 48h1v1h-1zM47 48h1v1h-1zM48 48h1v1h-1zM49 48h1v1h-1zM50 48h1v1h-1zM51 48h1v1h-1zM52 48h1v1h-1zM53 48h1v1h-1zM54 48h1v1h-1zM55 48h1v1h-1z"/><path fill="#9C901C" d="M56 48h1v1h-1z"/><path fill="#231815" d="M57 48h1v1h-1zM58 48h1v1h-1zM59 48h1v1h-1zM60 48h1v1h-1zM61 48h1v1h-1zM62 48h1v1h-1zM63 48h1v1h-1zM64 48h1v1h-1zM2 49h1v1H2zM3 49h1v1H3zM4 49h1v1H4z"/><path fill="#695C17" d="M5 49h1v1H5z"/><path fill="#DDCC1B" d="M6 49h1v1H6zM7 49h1v1H7zM8 49h1v1H8zM9 49h1v1H9z"/><path fill="#E3D325" d="M10 49h1v1h-1z"/><path fill="#FFF352" d="M11 49h1v1h-1zM12 49h1v1h-1zM13 49h1v1h-1zM14 49h1v1h-1zM15 49h1v1h-1zM16 49h1v1h-1zM17 49h1v1h-1zM18 49h1v1h-1zM19 49h1v1h-1zM20 49h1v1h-1zM21 49h1v1h-1z"/><path fill="#FFF679" d="M22 49h1v1h-1z"/><path fill="#FFFDED" d="M23 49h1v1h-1zM24 49h1v1h-1zM25 49h1v1h-1zM26 49h1v1h-1zM27 49h1v1h-1z"/><path fill="#FFFCDA" d="M28 49h1v1h-1z"/><path fill="#FFF352" d="M29 49h1v1h-1zM30 49h1v1h-1zM31 49h1v1h-1zM32 49h1v1h-1zM33 49h1v1h-1zM34 49h1v1h-1zM35 49h1v1h-1zM36 49h1v1h-1zM37 49h1v1h-1zM38 49h1v1h-1zM39 49h1v1h-1zM40 49h1v1h-1zM41 49h1v1h-1zM42 49h1v1h-1zM43 49h1v1h-1zM44 49h1v1h-1z"/><path fill="#EEE037" d="M45 49h1v1h-1z"/><path fill="#DDCC1B" d="M46 49h1v1h-1zM47 49h1v1h-1zM48 49h1v1h-1zM49 49h1v1h-1zM50 49h1v1h-1zM51 49h1v1h-1zM52 49h1v1h-1zM53 49h1v1h-1zM54 49h1v1h-1zM55 49h1v1h-1z"/><path fill="#C6B61A" d="M56 49h1v1h-1z"/><path fill="#231815" d="M57 49h1v1h-1zM58 49h1v1h-1zM59 49h1v1h-1zM60 49h1v1h-1zM61 49h1v1h-1zM62 49h1v1h-1zM63 49h1v1h-1zM2 50h1v1H2zM3 50h1v1H3zM4 50h1v1H4z"/><path fill="#A39419" d="M5 50h1v1H5z"/><path fill="#DDCC1B" d="M6 50h1v1H6zM7 50h1v1H7zM8 50h1v1H8zM9 50h1v1H9z"/><path fill="#E6D629" d="M10 50h1v1h-1z"/><path fill="#FFF352" d="M11 50h1v1h-1zM12 50h1v1h-1zM13 50h1v1h-1zM14 50h1v1h-1zM15 50h1v1h-1zM16 50h1v1h-1zM17 50h1v1h-1zM18 50h1v1h-1zM19 50h1v1h-1zM20 50h1v1h-1zM21 50h1v1h-1zM22 50h1v1h-1z"/><path fill="#FFF8A0" d="M23 50h1v1h-1z"/><path fill="#FFFDED" d="M24 50h1v1h-1zM25 50h1v1h-1zM26 50h1v1h-1z"/><path fill="#FFFCE3" d="M27 50h1v1h-1z"/><path fill="#FFF56F" d="M28 50h1v1h-1z"/><path fill="#FFF352" d="M29 50h1v1h-1zM30 50h1v1h-1zM31 50h1v1h-1zM32 50h1v1h-1zM33 50h1v1h-1zM34 50h1v1h-1zM35 50h1v1h-1zM36 50h1v1h-1zM37 50h1v1h-1zM38 50h1v1h-1zM39 50h1v1h-1zM40 50h1v1h-1zM41 50h1v1h-1zM42 50h1v1h-1zM43 50h1v1h-1zM44 50h1v1h-1z"/><path fill="#EEE037" d="M45 50h1v1h-1z"/><path fill="#DDCC1B" d="M46 50h1v1h-1zM47 50h1v1h-1zM48 50h1v1h-1zM49 50h1v1h-1zM50 50h1v1h-1zM51 50h1v1h-1zM52 50h1v1h-1zM53 50h1v1h-1zM54 50h1v1h-1zM55 50h1v1h-1zM56 50h1v1h-1z"/><path fill="#5D5017" d="M57 50h1v1h-1z"/><path fill="#231815" d="M58 50h1v1h-1zM59 50h1v1h-1zM60 50h1v1h-1zM61 50h1v1h-1zM1 51h1v1H1zM2 51h1v1H2zM3 51h1v1H3zM4 51h1v1H4z"/><path fill="#D1C11B" d="M5 51h1v1H5z"/><path fill="#DDCC1B" d="M6 51h1v1H6zM7 51h1v1H7zM8 51h1v1H8zM9 51h1v1H9z"/><path fill="#E6D629" d="M10 51h1v1h-1z"/><path fill="#FFF352" d="M11 51h1v1h-1zM12 51h1v1h-1zM13 51h1v1h-1zM14 51h1v1h-1zM15 51h1v1h-1zM16 51h1v1h-1zM17 51h1v1h-1zM18 51h1v1h-1zM19 51h1v1h-1zM20 51h1v1h-1zM21 51h1v1h-1zM22 51h1v1h-1zM23 51h1v1h-1z"/><path fill="#FFF56F" d="M24 51h1v1h-1z"/><path fill="#FFF8A0" d="M25 51h1v1h-1z"/><path fill="#FFF796" d="M26 51h1v1h-1z"/><path fill="#FFF45C" d="M27 51h1v1h-1z"/><path fill="#FFF352" d="M28 51h1v1h-1zM29 51h1v1h-1zM30 51h1v1h-1zM31 51h1v1h-1zM32 51h1v1h-1zM33 51h1v1h-1zM34 51h1v1h-1zM35 51h1v1h-1zM36 51h1v1h-1zM37 51h1v1h-1zM38 51h1v1h-1zM39 51h1v1h-1zM40 51h1v1h-1zM41 51h1v1h-1zM42 51h1v1h-1zM43 51h1v1h-1zM44 51h1v1h-1z"/><path fill="#EEE037" d="M45 51h1v1h-1z"/><path fill="#DDCC1B" d="M46 51h1v1h-1zM47 51h1v1h-1zM48 51h1v1h-1zM49 51h1v1h-1zM50 51h1v1h-1zM51 51h1v1h-1zM52 51h1v1h-1zM53 51h1v1h-1zM54 51h1v1h-1zM55 51h1v1h-1zM56 51h1v1h-1z"/><path fill="#A39419" d="M57 51h1v1h-1z"/><path fill="#231815" d="M58 51h1v1h-1zM59 51h1v1h-1zM60 51h1v1h-1zM1 52h1v1H1zM2 52h1v1H2zM3 52h1v1H3z"/><path fill="#463A16" d="M4 52h1v1H4z"/><path fill="#DDCC1B" d="M5 52h1v1H5zM6 52h1v1H6zM7 52h1v1H7zM8 52h1v1H8zM9 52h1v1H9z"/><path fill="#E3D325" d="M10 52h1v1h-1z"/><path fill="#FFF352" d="M11 52h1v1h-1zM12 52h1v1h-1zM13 52h1v1h-1zM14 52h1v1h-1zM15 52h1v1h-1zM16 52h1v1h-1zM17 52h1v1h-1zM18 52h1v1h-1zM19 52h1v1h-1zM20 52h1v1h-1zM21 52h1v1h-1zM22 52h1v1h-1zM23 52h1v1h-1zM24 52h1v1h-1zM25 52h1v1h-1zM26 52h1v1h-1zM27 52h1v1h-1zM28 52h1v1h-1zM29 52h1v1h-1zM30 52h1v1h-1zM31 52h1v1h-1zM32 52h1v1h-1zM33 52h1v1h-1zM34 52h1v1h-1zM35 52h1v1h-1zM36 52h1v1h-1zM37 52h1v1h-1zM38 52h1v1h-1zM39 52h1v1h-1zM40 52h1v1h-1zM41 52h1v1h-1zM42 52h1v1h-1zM43 52h1v1h-1zM44 52h1v1h-1z"/><path fill="#EEE037" d="M45 52h1v1h-1z"/><path fill="#DDCC1B" d="M46 52h1v1h-1zM47 52h1v1h-1zM48 52h1v1h-1zM49 52h1v1h-1zM50 52h1v1h-1zM51 52h1v1h-1zM52 52h1v1h-1zM53 52h1v1h-1zM54 52h1v1h-1zM55 52h1v1h-1zM56 52h1v1h-1zM57 52h1v1h-1z"/><path fill="#231815" d="M58 52h1v1h-1zM59 52h1v1h-1zM60 52h1v1h-1zM61 52h1v1h-1zM1 53h1v1H1zM2 53h1v1H2zM3 53h1v1H3z"/><path fill="#746718" d="M4 53h1v1H4z"/><path fill="#DDCC1B" d="M5 53h1v1H5zM6 53h1v1H6zM7 53h1v1H7zM8 53h1v1H8zM9 53h1v1H9zM10 53h1v1h-1z"/><path fill="#FFF352" d="M11 53h1v1h-1zM12 53h1v1h-1zM13 53h1v1h-1zM14 53h1v1h-1zM15 53h1v1h-1zM16 53h1v1h-1zM17 53h1v1h-1zM18 53h1v1h-1zM19 53h1v1h-1zM20 53h1v1h-1zM21 53h1v1h-1zM22 53h1v1h-1zM23 53h1v1h-1zM24 53h1v1h-1zM25 53h1v1h-1zM26 53h1v1h-1zM27 53h1v1h-1zM28 53h1v1h-1zM29 53h1v1h-1zM30 53h1v1h-1zM31 53h1v1h-1zM32 53h1v1h-1zM33 53h1v1h-1zM34 53h1v1h-1zM35 53h1v1h-1zM36 53h1v1h-1zM37 53h1v1h-1zM38 53h1v1h-1zM39 53h1v1h-1zM40 53h1v1h-1zM41 53h1v1h-1zM42 53h1v1h-1zM43 53h1v1h-1zM44 53h1v1h-1z"/><path fill="#EADB30" d="M45 53h1v1h-1z"/><path fill="#DDCC1B" d="M46 53h1v1h-1zM47 53h1v1h-1zM48 53h1v1h-1zM49 53h1v1h-1zM50 53h1v1h-1zM51 53h1v1h-1zM52 53h1v1h-1zM53 53h1v1h-1zM54 53h1v1h-1zM55 53h1v1h-1zM56 53h1v1h-1zM57 53h1v1h-1z"/><path fill="#524517" d="M58 53h1v1h-1z"/><path fill="#231815" d="M59 53h1v1h-1zM60 53h1v1h-1zM61 53h1v1h-1zM1 54h1v1H1zM2 54h1v1H2zM3 54h1v1H3z"/><path fill="#A39419" d="M4 54h1v1H4z"/><path fill="#DDCC1B" d="M5 54h1v1H5zM6 54h1v1H6zM7 54h1v1H7zM8 54h1v1H8zM9 54h1v1H9zM10 54h1v1h-1z"/><path fill="#FBEE4B" d="M11 54h1v1h-1z"/><path fill="#FFF352" d="M12 54h1v1h-1zM13 54h1v1h-1zM14 54h1v1h-1zM15 54h1v1h-1zM16 54h1v1h-1zM17 54h1v1h-1zM18 54h1v1h-1zM19 54h1v1h-1zM20 54h1v1h-1zM21 54h1v1h-1zM22 54h1v1h-1zM23 54h1v1h-1zM24 54h1v1h-1zM25 54h1v1h-1zM26 54h1v1h-1zM27 54h1v1h-1zM28 54h1v1h-1zM29 54h1v1h-1zM30 54h1v1h-1zM31 54h1v1h-1zM32 54h1v1h-1zM33 54h1v1h-1zM34 54h1v1h-1zM35 54h1v1h-1zM36 54h1v1h-1zM37 54h1v1h-1zM38 54h1v1h-1zM39 54h1v1h-1zM40 54h1v1h-1zM41 54h1v1h-1zM42 54h1v1h-1zM43 54h1v1h-1zM44 54h1v1h-1z"/><path fill="#E6D629" d="M45 54h1v1h-1z"/><path fill="#DDCC1B" d="M46 54h1v1h-1zM47 54h1v1h-1zM48 54h1v1h-1zM49 54h1v1h-1zM50 54h1v1h-1zM51 54h1v1h-1zM52 54h1v1h-1zM53 54h1v1h-1zM54 54h1v1h-1zM55 54h1v1h-1zM56 54h1v1h-1zM57 54h1v1h-1z"/><path fill="#807218" d="M58 54h1v1h-1z"/><path fill="#231815" d="M59 54h1v1h-1zM60 54h1v1h-1zM61 54h1v1h-1zM1 55h1v1H1zM2 55h1v1H2zM3 55h1v1H3z"/><path fill="#C6B61A" d="M4 55h1v1H4z"/><path fill="#DDCC1B" d="M5 55h1v1H5zM6 55h1v1H6zM7 55h1v1H7zM8 55h1v1H8zM9 55h1v1H9zM10 55h1v1h-1z"/><path fill="#F2E43D" d="M11 55h1v1h-1z"/><path fill="#FFF352" d="M12 55h1v1h-1zM13 55h1v1h-1zM14 55h1v1h-1zM15 55h1v1h-1zM16 55h1v1h-1zM17 55h1v1h-1zM18 55h1v1h-1zM19 55h1v1h-1zM20 55h1v1h-1zM21 55h1v1h-1zM22 55h1v1h-1zM23 55h1v1h-1zM24 55h1v1h-1zM25 55h1v1h-1zM26 55h1v1h-1zM27 55h1v1h-1zM28 55h1v1h-1zM29 55h1v1h-1zM30 55h1v1h-1zM31 55h1v1h-1zM32 55h1v1h-1zM33 55h1v1h-1zM34 55h1v1h-1zM35 55h1v1h-1zM36 55h1v1h-1zM37 55h1v1h-1zM38 55h1v1h-1zM39 55h1v1h-1zM40 55h1v1h-1zM41 55h1v1h-1zM42 55h1v1h-1zM43 55h1v1h-1zM44 55h1v1h-1z"/><path fill="#DDCC1B" d="M45 55h1v1h-1zM46 55h1v1h-1zM47 55h1v1h-1zM48 55h1v1h-1zM49 55h1v1h-1zM50 55h1v1h-1zM51 55h1v1h-1zM52 55h1v1h-1zM53 55h1v1h-1zM54 55h1v1h-1zM55 55h1v1h-1zM56 55h1v1h-1zM57 55h1v1h-1z"/><path fill="#A39419" d="M58 55h1v1h-1z"/><path fill="#231815" d="M59 55h1v1h-1zM60 55h1v1h-1zM61 55h1v1h-1zM0 56h1v1H0zM1 56h1v1H1zM2 56h1v1H2z"/><path fill="#2F2315" d="M3 56h1v1H3z"/><path fill="#DDCC1B" d="M4 56h1v1H4zM5 56h1v1H5zM6 56h1v1H6zM7 56h1v1H7zM8 56h1v1H8zM9 56h1v1H9zM10 56h1v1h-1z"/><path fill="#EADB30" d="M11 56h1v1h-1z"/><path fill="#FFF352" d="M12 56h1v1h-1zM13 56h1v1h-1zM14 56h1v1h-1zM15 56h1v1h-1zM16 56h1v1h-1zM17 56h1v1h-1zM18 56h1v1h-1zM19 56h1v1h-1zM20 56h1v1h-1zM21 56h1v1h-1zM22 56h1v1h-1zM23 56h1v1h-1zM24 56h1v1h-1zM25 56h1v1h-1zM26 56h1v1h-1zM27 56h1v1h-1zM28 56h1v1h-1zM29 56h1v1h-1zM30 56h1v1h-1zM31 56h1v1h-1zM32 56h1v1h-1zM33 56h1v1h-1zM34 56h1v1h-1zM35 56h1v1h-1zM36 56h1v1h-1zM37 56h1v1h-1zM38 56h1v1h-1zM39 56h1v1h-1zM40 56h1v1h-1zM41 56h1v1h-1zM42 56h1v1h-1zM43 56h1v1h-1z"/><path fill="#F4E741" d="M44 56h1v1h-1z"/><path fill="#DDCC1B" d="M45 56h1v1h-1zM46 56h1v1h-1zM47 56h1v1h-1zM48 56h1v1h-1zM49 56h1v1h-1zM50 56h1v1h-1zM51 56h1v1h-1zM52 56h1v1h-1zM53 56h1v1h-1zM54 56h1v1h-1zM55 56h1v1h-1zM56 56h1v1h-1zM57 56h1v1h-1z"/><path fill="#AF9F1A" d="M58 56h1v1h-1z"/><path fill="#231815" d="M59 56h1v1h-1zM60 56h1v1h-1zM61 56h1v1h-1zM0 57h1v1H0zM1 57h1v1H1zM2 57h1v1H2z"/><path fill="#524517" d="M3 57h1v1H3z"/><path fill="#DDCC1B" d="M4 57h1v1H4zM5 57h1v1H5zM6 57h1v1H6zM7 57h1v1H7zM8 57h1v1H8zM9 57h1v1H9zM10 57h1v1h-1z"/><path fill="#DFCE1E" d="M11 57h1v1h-1z"/><path fill="#FDF14F" d="M12 57h1v1h-1z"/><path fill="#FFF352" d="M13 57h1v1h-1zM14 57h1v1h-1zM15 57h1v1h-1zM16 57h1v1h-1zM17 57h1v1h-1zM18 57h1v1h-1zM19 57h1v1h-1zM20 57h1v1h-1zM21 57h1v1h-1zM22 57h1v1h-1zM23 57h1v1h-1zM24 57h1v1h-1zM25 57h1v1h-1zM26 57h1v1h-1zM27 57h1v1h-1zM28 57h1v1h-1zM29 57h1v1h-1zM30 57h1v1h-1zM31 57h1v1h-1zM32 57h1v1h-1zM33 57h1v1h-1zM34 57h1v1h-1zM35 57h1v1h-1zM36 57h1v1h-1zM37 57h1v1h-1zM38 57h1v1h-1zM39 57h1v1h-1zM40 57h1v1h-1zM41 57h1v1h-1zM42 57h1v1h-1zM43 57h1v1h-1z"/><path fill="#EADB30" d="M44 57h1v1h-1z"/><path fill="#DDCC1B" d="M45 57h1v1h-1zM46 57h1v1h-1zM47 57h1v1h-1zM48 57h1v1h-1zM49 57h1v1h-1zM50 57h1v1h-1zM51 57h1v1h-1zM52 57h1v1h-1zM53 57h1v1h-1zM54 57h1v1h-1zM55 57h1v1h-1zM56 57h1v1h-1zM57 57h1v1h-1z"/><path fill="#C6B61A" d="M58 57h1v1h-1z"/><path fill="#231815" d="M59 57h1v1h-1zM60 57h1v1h-1zM61 57h1v1h-1zM0 58h1v1H0zM1 58h1v1H1zM2 58h1v1H2z"/><path fill="#695C17" d="M3 58h1v1H3z"/><path fill="#DDCC1B" d="M4 58h1v1H4zM5 58h1v1H5zM6 58h1v1H6zM7 58h1v1H7zM8 58h1v1H8zM9 58h1v1H9zM10 58h1v1h-1zM11 58h1v1h-1z"/><path fill="#F2E43D" d="M12 58h1v1h-1z"/><path fill="#FFF352" d="M13 58h1v1h-1zM14 58h1v1h-1zM15 58h1v1h-1zM16 58h1v1h-1zM17 58h1v1h-1zM18 58h1v1h-1zM19 58h1v1h-1zM20 58h1v1h-1zM21 58h1v1h-1zM22 58h1v1h-1zM23 58h1v1h-1zM24 58h1v1h-1zM25 58h1v1h-1zM26 58h1v1h-1zM27 58h1v1h-1zM28 58h1v1h-1zM29 58h1v1h-1zM30 58h1v1h-1zM31 58h1v1h-1zM32 58h1v1h-1zM33 58h1v1h-1zM34 58h1v1h-1zM35 58h1v1h-1zM36 58h1v1h-1zM37 58h1v1h-1zM38 58h1v1h-1zM39 58h1v1h-1zM40 58h1v1h-1zM41 58h1v1h-1zM42 58h1v1h-1z"/><path fill="#FDF14F" d="M43 58h1v1h-1z"/><path fill="#DDCC1B" d="M44 58h1v1h-1zM45 58h1v1h-1zM46 58h1v1h-1zM47 58h1v1h-1zM48 58h1v1h-1zM49 58h1v1h-1zM50 58h1v1h-1zM51 58h1v1h-1zM52 58h1v1h-1zM53 58h1v1h-1zM54 58h1v1h-1zM55 58h1v1h-1zM56 58h1v1h-1zM57 58h1v1h-1zM58 58h1v1h-1z"/><path fill="#231815" d="M59 58h1v1h-1zM60 58h1v1h-1zM61 58h1v1h-1zM0 59h1v1H0zM1 59h1v1H1zM2 59h1v1H2z"/><path fill="#807218" d="M3 59h1v1H3z"/><path fill="#DDCC1B" d="M4 59h1v1H4zM5 59h1v1H5zM6 59h1v1H6zM7 59h1v1H7zM8 59h1v1H8zM9 59h1v1H9zM10 59h1v1h-1zM11 59h1v1h-1z"/><path fill="#E1D122" d="M12 59h1v1h-1z"/><path fill="#FFF352" d="M13 59h1v1h-1zM14 59h1v1h-1zM15 59h1v1h-1zM16 59h1v1h-1zM17 59h1v1h-1zM18 59h1v1h-1zM19 59h1v1h-1zM20 59h1v1h-1zM21 59h1v1h-1zM22 59h1v1h-1zM23 59h1v1h-1zM24 59h1v1h-1zM25 59h1v1h-1zM26 59h1v1h-1zM27 59h1v1h-1zM28 59h1v1h-1zM29 59h1v1h-1zM30 59h1v1h-1zM31 59h1v1h-1zM32 59h1v1h-1zM33 59h1v1h-1zM34 59h1v1h-1zM35 59h1v1h-1zM36 59h1v1h-1zM37 59h1v1h-1zM38 59h1v1h-1zM39 59h1v1h-1zM40 59h1v1h-1zM41 59h1v1h-1zM42 59h1v1h-1z"/><path fill="#EEE037" d="M43 59h1v1h-1z"/><path fill="#DDCC1B" d="M44 59h1v1h-1zM45 59h1v1h-1zM46 59h1v1h-1zM47 59h1v1h-1zM48 59h1v1h-1zM49 59h1v1h-1zM50 59h1v1h-1zM51 59h1v1h-1zM52 59h1v1h-1zM53 59h1v1h-1zM54 59h1v1h-1zM55 59h1v1h-1zM56 59h1v1h-1zM57 59h1v1h-1z"/><path fill="#D1C11B" d="M58 59h1v1h-1z"/><path fill="#231815" d="M59 59h1v1h-1zM60 59h1v1h-1zM61 59h1v1h-1zM0 60h1v1H0zM1 60h1v1H1zM2 60h1v1H2z"/><path fill="#978919" d="M3 60h1v1H3z"/><path fill="#DDCC1B" d="M4 60h1v1H4zM5 60h1v1H5zM6 60h1v1H6zM7 60h1v1H7zM8 60h1v1H8zM9 60h1v1H9zM10 60h1v1h-1zM11 60h1v1h-1zM12 60h1v1h-1z"/><path fill="#EEE037" d="M13 60h1v1h-1z"/><path fill="#FFF352" d="M14 60h1v1h-1zM15 60h1v1h-1zM16 60h1v1h-1zM17 60h1v1h-1zM18 60h1v1h-1zM19 60h1v1h-1zM20 60h1v1h-1zM21 60h1v1h-1zM22 60h1v1h-1zM23 60h1v1h-1zM24 60h1v1h-1zM25 60h1v1h-1zM26 60h1v1h-1zM27 60h1v1h-1zM28 60h1v1h-1zM29 60h1v1h-1zM30 60h1v1h-1zM31 60h1v1h-1zM32 60h1v1h-1zM33 60h1v1h-1zM34 60h1v1h-1zM35 60h1v1h-1zM36 60h1v1h-1zM37 60h1v1h-1zM38 60h1v1h-1zM39 60h1v1h-1zM40 60h1v1h-1zM41 60h1v1h-1z"/><path fill="#FBEE4B" d="M42 60h1v1h-1z"/><path fill="#DDCC1B" d="M43 60h1v1h-1zM44 60h1v1h-1zM45 60h1v1h-1zM46 60h1v1h-1zM47 60h1v1h-1zM48 60h1v1h-1zM49 60h1v1h-1zM50 60h1v1h-1zM51 60h1v1h-1zM52 60h1v1h-1zM53 60h1v1h-1zM54 60h1v1h-1zM55 60h1v1h-1zM56 60h1v1h-1zM57 60h1v1h-1z"/><path fill="#AF9F1A" d="M58 60h1v1h-1z"/><path fill="#231815" d="M59 60h1v1h-1zM60 60h1v1h-1zM61 60h1v1h-1zM0 61h1v1H0zM1 61h1v1H1zM2 61h1v1H2z"/><path fill="#AF9F1A" d="M3 61h1v1H3z"/><path fill="#DDCC1B" d="M4 61h1v1H4zM5 61h1v1H5zM6 61h1v1H6zM7 61h1v1H7zM8 61h1v1H8zM9 61h1v1H9zM10 61h1v1h-1zM11 61h1v1h-1zM12 61h1v1h-1zM13 61h1v1h-1z"/><path fill="#F9EC48" d="M14 61h1v1h-1z"/><path fill="#FFF352" d="M15 61h1v1h-1zM16 61h1v1h-1zM17 61h1v1h-1zM18 61h1v1h-1zM19 61h1v1h-1zM20 61h1v1h-1zM21 61h1v1h-1zM22 61h1v1h-1zM23 61h1v1h-1zM24 61h1v1h-1zM25 61h1v1h-1zM26 61h1v1h-1zM27 61h1v1h-1zM28 61h1v1h-1zM29 61h1v1h-1zM30 61h1v1h-1zM31 61h1v1h-1zM32 61h1v1h-1zM33 61h1v1h-1zM34 61h1v1h-1zM35 61h1v1h-1zM36 61h1v1h-1zM37 61h1v1h-1zM38 61h1v1h-1zM39 61h1v1h-1zM40 61h1v1h-1zM41 61h1v1h-1z"/><path fill="#E3D325" d="M42 61h1v1h-1z"/><path fill="#DDCC1B" d="M43 61h1v1h-1zM44 61h1v1h-1zM45 61h1v1h-1zM46 61h1v1h-1zM47 61h1v1h-1zM48 61h1v1h-1zM49 61h1v1h-1zM50 61h1v1h-1zM51 61h1v1h-1zM52 61h1v1h-1zM53 61h1v1h-1zM54 61h1v1h-1zM55 61h1v1h-1zM56 61h1v1h-1zM57 61h1v1h-1z"/><path fill="#AF9F1A" d="M58 61h1v1h-1z"/><path fill="#231815" d="M59 61h1v1h-1zM60 61h1v1h-1zM61 61h1v1h-1zM0 62h1v1H0zM1 62h1v1H1zM2 62h1v1H2z"/><path fill="#AF9F1A" d="M3 62h1v1H3z"/><path fill="#DDCC1B" d="M4 62h1v1H4zM5 62h1v1H5zM6 62h1v1H6zM7 62h1v1H7zM8 62h1v1H8zM9 62h1v1H9zM10 62h1v1h-1zM11 62h1v1h-1zM12 62h1v1h-1zM13 62h1v1h-1z"/><path fill="#E1D122" d="M14 62h1v1h-1z"/><path fill="#FDF14F" d="M15 62h1v1h-1z"/><path fill="#FFF352" d="M16 62h1v1h-1zM17 62h1v1h-1zM18 62h1v1h-1zM19 62h1v1h-1zM20 62h1v1h-1zM21 62h1v1h-1zM22 62h1v1h-1zM23 62h1v1h-1zM24 62h1v1h-1zM25 62h1v1h-1zM26 62h1v1h-1zM27 62h1v1h-1zM28 62h1v1h-1zM29 62h1v1h-1zM30 62h1v1h-1zM31 62h1v1h-1zM32 62h1v1h-1zM33 62h1v1h-1zM34 62h1v1h-1zM35 62h1v1h-1zM36 62h1v1h-1zM37 62h1v1h-1zM38 62h1v1h-1zM39 62h1v1h-1zM40 62h1v1h-1z"/><path fill="#EADB30" d="M41 62h1v1h-1z"/><path fill="#DDCC1B" d="M42 62h1v1h-1zM43 62h1v1h-1zM44 62h1v1h-1zM45 62h1v1h-1zM46 62h1v1h-1zM47 62h1v1h-1zM48 62h1v1h-1zM49 62h1v1h-1zM50 62h1v1h-1zM51 62h1v1h-1zM52 62h1v1h-1zM53 62h1v1h-1zM54 62h1v1h-1zM55 62h1v1h-1zM56 62h1v1h-1zM57 62h1v1h-1z"/><path fill="#8C7D18" d="M58 62h1v1h-1z"/><path fill="#231815" d="M59 62h1v1h-1zM60 62h1v1h-1zM61 62h1v1h-1zM0 63h1v1H0zM1 63h1v1H1zM2 63h1v1H2z"/><path fill="#D1C11B" d="M3 63h1v1H3z"/><path fill="#DDCC1B" d="M4 63h1v1H4zM5 63h1v1H5zM6 63h1v1H6zM7 63h1v1H7zM8 63h1v1H8zM9 63h1v1H9zM10 63h1v1h-1zM11 63h1v1h-1zM12 63h1v1h-1zM13 63h1v1h-1zM14 63h1v1h-1z"/><path fill="#E3D325" d="M15 63h1v1h-1z"/><path fill="#FDF14F" d="M16 63h1v1h-1z"/><path fill="#FFF352" d="M17 63h1v1h-1zM18 63h1v1h-1zM19 63h1v1h-1zM20 63h1v1h-1zM21 63h1v1h-1zM22 63h1v1h-1zM23 63h1v1h-1zM24 63h1v1h-1zM25 63h1v1h-1zM26 63h1v1h-1zM27 63h1v1h-1zM28 63h1v1h-1zM29 63h1v1h-1zM30 63h1v1h-1zM31 63h1v1h-1zM32 63h1v1h-1zM33 63h1v1h-1zM34 63h1v1h-1zM35 63h1v1h-1zM36 63h1v1h-1zM37 63h1v1h-1zM38 63h1v1h-1zM39 63h1v1h-1z"/><path fill="#F2E43D" d="M40 63h1v1h-1z"/><path fill="#DDCC1B" d="M41 63h1v1h-1zM42 63h1v1h-1zM43 63h1v1h-1zM44 63h1v1h-1zM45 63h1v1h-1zM46 63h1v1h-1zM47 63h1v1h-1zM48 63h1v1h-1zM49 63h1v1h-1zM50 63h1v1h-1zM51 63h1v1h-1zM52 63h1v1h-1zM53 63h1v1h-1zM54 63h1v1h-1zM55 63h1v1h-1zM56 63h1v1h-1zM57 63h1v1h-1z"/><path fill="#746718" d="M58 63h1v1h-1z"/><path fill="#231815" d="M59 63h1v1h-1zM60 63h1v1h-1zM61 63h1v1h-1zM0 64h1v1H0zM1 64h1v1H1zM2 64h1v1H2z"/><path fill="#DDCC1B" d="M3 64h1v1H3zM4 64h1v1H4zM5 64h1v1H5zM6 64h1v1H6zM7 64h1v1H7zM8 64h1v1H8zM9 64h1v1H9zM10 64h1v1h-1zM11 64h1v1h-1zM12 64h1v1h-1zM13 64h1v1h-1zM14 64h1v1h-1zM15 64h1v1h-1z"/><path fill="#E3D325" d="M16 64h1v1h-1z"/><path fill="#FDF14F" d="M17 64h1v1h-1z"/><path fill="#FFF352" d="M18 64h1v1h-1zM19 64h1v1h-1zM20 64h1v1h-1zM21 64h1v1h-1zM22 64h1v1h-1zM23 64h1v1h-1zM24 64h1v1h-1zM25 64h1v1h-1zM26 64h1v1h-1zM27 64h1v1h-1zM28 64h1v1h-1zM29 64h1v1h-1zM30 64h1v1h-1zM31 64h1v1h-1zM32 64h1v1h-1zM33 64h1v1h-1zM34 64h1v1h-1zM35 64h1v1h-1zM36 64h1v1h-1zM37 64h1v1h-1zM38 64h1v1h-1z"/><path fill="#ECDD33" d="M39 64h1v1h-1z"/><path fill="#DDCC1B" d="M40 64h1v1h-1zM41 64h1v1h-1zM42 64h1v1h-1zM43 64h1v1h-1zM44 64h1v1h-1zM45 64h1v1h-1zM46 64h1v1h-1zM47 64h1v1h-1zM48 64h1v1h-1zM49 64h1v1h-1zM50 64h1v1h-1zM51 64h1v1h-1zM52 64h1v1h-1zM53 64h1v1h-1zM54 64h1v1h-1zM55 64h1v1h-1zM56 64h1v1h-1zM57 64h1v1h-1z"/><path fill="#463A16" d="M58 64h1v1h-1z"/><path fill="#231815" d="M59 64h1v1h-1zM60 64h1v1h-1zM61 64h1v1h-1zM0 65h1v1H0zM1 65h1v1H1zM2 65h1v1H2z"/><path fill="#DDCC1B" d="M3 65h1v1H3zM4 65h1v1H4zM5 65h1v1H5zM6 65h1v1H6zM7 65h1v1H7zM8 65h1v1H8zM9 65h1v1H9zM10 65h1v1h-1zM11 65h1v1h-1zM12 65h1v1h-1zM13 65h1v1h-1zM14 65h1v1h-1zM15 65h1v1h-1zM16 65h1v1h-1z"/><path fill="#DFCE1E" d="M17 65h1v1h-1z"/><path fill="#F7E944" d="M18 65h1v1h-1z"/><path fill="#FFF352" d="M19 65h1v1h-1zM20 65h1v1h-1zM21 65h1v1h-1zM22 65h1v1h-1zM23 65h1v1h-1zM24 65h1v1h-1zM25 65h1v1h-1zM26 65h1v1h-1zM27 65h1v1h-1zM28 65h1v1h-1zM29 65h1v1h-1zM30 65h1v1h-1zM31 65h1v1h-1zM32 65h1v1h-1zM33 65h1v1h-1zM34 65h1v1h-1zM35 65h1v1h-1zM36 65h1v1h-1z"/><path fill="#FDF14F" d="M37 65h1v1h-1z"/><path fill="#E6D629" d="M38 65h1v1h-1z"/><path fill="#DDCC1B" d="M39 65h1v1h-1zM40 65h1v1h-1zM41 65h1v1h-1zM42 65h1v1h-1zM43 65h1v1h-1zM44 65h1v1h-1zM45 65h1v1h-1zM46 65h1v1h-1zM47 65h1v1h-1zM48 65h1v1h-1zM49 65h1v1h-1zM50 65h1v1h-1zM51 65h1v1h-1zM52 65h1v1h-1zM53 65h1v1h-1zM54 65h1v1h-1zM55 65h1v1h-1zM56 65h1v1h-1z"/><path fill="#D1C11B" d="M57 65h1v1h-1z"/><path fill="#231815" d="M58 65h1v1h-1zM59 65h1v1h-1zM60 65h1v1h-1zM61 65h1v1h-1zM0 66h1v1H0zM1 66h1v1H1zM2 66h1v1H2z"/><path fill="#DDCC1B" d="M3 66h1v1H3zM4 66h1v1H4zM5 66h1v1H5zM6 66h1v1H6zM7 66h1v1H7zM8 66h1v1H8zM9 66h1v1H9zM10 66h1v1h-1zM11 66h1v1h-1zM12 66h1v1h-1zM13 66h1v1h-1zM14 66h1v1h-1zM15 66h1v1h-1zM16 66h1v1h-1zM17 66h1v1h-1zM18 66h1v1h-1z"/><path fill="#EADB30" d="M19 66h1v1h-1z"/><path fill="#FBEE4B" d="M20 66h1v1h-1z"/><path fill="#FFF352" d="M21 66h1v1h-1zM22 66h1v1h-1zM23 66h1v1h-1zM24 66h1v1h-1zM25 66h1v1h-1zM26 66h1v1h-1zM27 66h1v1h-1zM28 66h1v1h-1zM29 66h1v1h-1zM30 66h1v1h-1zM31 66h1v1h-1zM32 66h1v1h-1zM33 66h1v1h-1zM34 66h1v1h-1zM35 66h1v1h-1z"/><path fill="#F0E23A" d="M36 66h1v1h-1z"/><path fill="#DFCE1E" d="M37 66h1v1h-1z"/><path fill="#DDCC1B" d="M38 66h1v1h-1zM39 66h1v1h-1zM40 66h1v1h-1zM41 66h1v1h-1zM42 66h1v1h-1zM43 66h1v1h-1zM44 66h1v1h-1zM45 66h1v1h-1zM46 66h1v1h-1zM47 66h1v1h-1zM48 66h1v1h-1zM49 66h1v1h-1zM50 66h1v1h-1zM51 66h1v1h-1zM52 66h1v1h-1zM53 66h1v1h-1zM54 66h1v1h-1zM55 66h1v1h-1zM56 66h1v1h-1z"/><path fill="#978919" d="M57 66h1v1h-1z"/><path fill="#231815" d="M58 66h1v1h-1zM59 66h1v1h-1zM60 66h1v1h-1zM0 67h1v1H0zM1 67h1v1H1zM2 67h1v1H2z"/><path fill="#BAAA1A" d="M3 67h1v1H3z"/><path fill="#DDCC1B" d="M4 67h1v1H4zM5 67h1v1H5zM6 67h1v1H6zM7 67h1v1H7zM8 67h1v1H8zM9 67h1v1H9zM10 67h1v1h-1zM11 67h1v1h-1zM12 67h1v1h-1zM13 67h1v1h-1zM14 67h1v1h-1zM15 67h1v1h-1zM16 67h1v1h-1zM17 67h1v1h-1zM18 67h1v1h-1zM19 67h1v1h-1zM20 67h1v1h-1z"/><path fill="#EADB30" d="M21 67h1v1h-1z"/><path fill="#F4E741" d="M22 67h1v1h-1z"/><path fill="#FFF352" d="M23 67h1v1h-1zM24 67h1v1h-1zM25 67h1v1h-1zM26 67h1v1h-1zM27 67h1v1h-1zM28 67h1v1h-1zM29 67h1v1h-1zM30 67h1v1h-1zM31 67h1v1h-1zM32 67h1v1h-1z"/><path fill="#FBEE4B" d="M33 67h1v1h-1z"/><path fill="#EEE037" d="M34 67h1v1h-1z"/><path fill="#E1D122" d="M35 67h1v1h-1z"/><path fill="#DDCC1B" d="M36 67h1v1h-1zM37 67h1v1h-1zM38 67h1v1h-1zM39 67h1v1h-1zM40 67h1v1h-1zM41 67h1v1h-1zM42 67h1v1h-1zM43 67h1v1h-1zM44 67h1v1h-1zM45 67h1v1h-1zM46 67h1v1h-1zM47 67h1v1h-1zM48 67h1v1h-1zM49 67h1v1h-1zM50 67h1v1h-1zM51 67h1v1h-1zM52 67h1v1h-1zM53 67h1v1h-1zM54 67h1v1h-1zM55 67h1v1h-1zM56 67h1v1h-1z"/><path fill="#524517" d="M57 67h1v1h-1z"/><path fill="#231815" d="M58 67h1v1h-1zM59 67h1v1h-1zM60 67h1v1h-1zM0 68h1v1H0zM1 68h1v1H1zM2 68h1v1H2z"/><path fill="#978919" d="M3 68h1v1H3z"/><path fill="#DDCC1B" d="M4 68h1v1H4zM5 68h1v1H5zM6 68h1v1H6zM7 68h1v1H7zM8 68h1v1H8zM9 68h1v1H9zM10 68h1v1h-1zM11 68h1v1h-1zM12 68h1v1h-1zM13 68h1v1h-1zM14 68h1v1h-1zM15 68h1v1h-1zM16 68h1v1h-1zM17 68h1v1h-1zM18 68h1v1h-1zM19 68h1v1h-1zM20 68h1v1h-1zM21 68h1v1h-1zM22 68h1v1h-1z"/><path fill="#DFCE1E" d="M23 68h1v1h-1z"/><path fill="#E6D629" d="M24 68h1v1h-1z"/><path fill="#EEE037" d="M25 68h1v1h-1z"/><path fill="#F0E23A" d="M26 68h1v1h-1z"/><path fill="#F7E944" d="M27 68h1v1h-1zM28 68h1v1h-1z"/><path fill="#F2E43D" d="M29 68h1v1h-1z"/><path fill="#EEE037" d="M30 68h1v1h-1z"/><path fill="#EADB30" d="M31 68h1v1h-1z"/><path fill="#E1D122" d="M32 68h1v1h-1z"/><path fill="#DDCC1B" d="M33 68h1v1h-1zM34 68h1v1h-1zM35 68h1v1h-1zM36 68h1v1h-1zM37 68h1v1h-1zM38 68h1v1h-1zM39 68h1v1h-1zM40 68h1v1h-1zM41 68h1v1h-1zM42 68h1v1h-1zM43 68h1v1h-1zM44 68h1v1h-1zM45 68h1v1h-1zM46 68h1v1h-1zM47 68h1v1h-1zM48 68h1v1h-1zM49 68h1v1h-1zM50 68h1v1h-1zM51 68h1v1h-1zM52 68h1v1h-1zM53 68h1v1h-1zM54 68h1v1h-1zM55 68h1v1h-1z"/><path fill="#C6B61A" d="M56 68h1v1h-1z"/><path fill="#231815" d="M57 68h1v1h-1zM58 68h1v1h-1zM59 68h1v1h-1zM60 68h1v1h-1zM0 69h1v1H0zM1 69h1v1H1zM2 69h1v1H2z"/><path fill="#5D5017" d="M3 69h1v1H3z"/><path fill="#DDCC1B" d="M4 69h1v1H4zM5 69h1v1H5zM6 69h1v1H6zM7 69h1v1H7zM8 69h1v1H8zM9 69h1v1H9zM10 69h1v1h-1zM11 69h1v1h-1zM12 69h1v1h-1zM13 69h1v1h-1zM14 69h1v1h-1zM15 69h1v1h-1zM16 69h1v1h-1zM17 69h1v1h-1zM18 69h1v1h-1zM19 69h1v1h-1zM20 69h1v1h-1zM21 69h1v1h-1zM22 69h1v1h-1zM23 69h1v1h-1zM24 69h1v1h-1zM25 69h1v1h-1zM26 69h1v1h-1zM27 69h1v1h-1zM28 69h1v1h-1zM29 69h1v1h-1zM30 69h1v1h-1zM31 69h1v1h-1zM32 69h1v1h-1zM33 69h1v1h-1zM34 69h1v1h-1zM35 69h1v1h-1zM36 69h1v1h-1zM37 69h1v1h-1zM38 69h1v1h-1zM39 69h1v1h-1zM40 69h1v1h-1zM41 69h1v1h-1zM42 69h1v1h-1zM43 69h1v1h-1zM44 69h1v1h-1zM45 69h1v1h-1zM46 69h1v1h-1zM47 69h1v1h-1zM48 69h1v1h-1zM49 69h1v1h-1zM50 69h1v1h-1zM51 69h1v1h-1zM52 69h1v1h-1zM53 69h1v1h-1zM54 69h1v1h-1zM55 69h1v1h-1z"/><path fill="#695C17" d="M56 69h1v1h-1z"/><path fill="#231815" d="M57 69h1v1h-1zM58 69h1v1h-1zM59 69h1v1h-1zM0 70h1v1H0zM1 70h1v1H1zM2 70h1v1H2zM3 70h1v1H3z"/><path fill="#D1C11B" d="M4 70h1v1H4z"/><path fill="#DDCC1B" d="M5 70h1v1H5zM6 70h1v1H6zM7 70h1v1H7zM8 70h1v1H8zM9 70h1v1H9zM10 70h1v1h-1zM11 70h1v1h-1zM12 70h1v1h-1zM13 70h1v1h-1zM14 70h1v1h-1zM15 70h1v1h-1zM16 70h1v1h-1zM17 70h1v1h-1zM18 70h1v1h-1zM19 70h1v1h-1zM20 70h1v1h-1zM21 70h1v1h-1zM22 70h1v1h-1zM23 70h1v1h-1zM24 70h1v1h-1zM25 70h1v1h-1zM26 70h1v1h-1zM27 70h1v1h-1zM28 70h1v1h-1zM29 70h1v1h-1zM30 70h1v1h-1zM31 70h1v1h-1zM32 70h1v1h-1zM33 70h1v1h-1zM34 70h1v1h-1zM35 70h1v1h-1zM36 70h1v1h-1zM37 70h1v1h-1zM38 70h1v1h-1zM39 70h1v1h-1zM40 70h1v1h-1zM41 70h1v1h-1zM42 70h1v1h-1zM43 70h1v1h-1zM44 70h1v1h-1zM45 70h1v1h-1zM46 70h1v1h-1zM47 70h1v1h-1zM48 70h1v1h-1zM49 70h1v1h-1zM50 70h1v1h-1zM51 70h1v1h-1zM52 70h1v1h-1zM53 70h1v1h-1zM54 70h1v1h-1z"/><path fill="#C6B61A" d="M55 70h1v1h-1z"/><path fill="#231815" d="M56 70h1v1h-1zM57 70h1v1h-1zM58 70h1v1h-1zM59 70h1v1h-1zM1 71h1v1H1zM2 71h1v1H2zM3 71h1v1H3z"/><path fill="#807218" d="M4 71h1v1H4z"/><path fill="#DDCC1B" d="M5 71h1v1H5zM6 71h1v1H6zM7 71h1v1H7zM8 71h1v1H8zM9 71h1v1H9zM10 71h1v1h-1zM11 71h1v1h-1zM12 71h1v1h-1zM13 71h1v1h-1zM14 71h1v1h-1zM15 71h1v1h-1zM16 71h1v1h-1zM17 71h1v1h-1zM18 71h1v1h-1zM19 71h1v1h-1zM20 71h1v1h-1zM21 71h1v1h-1zM22 71h1v1h-1zM23 71h1v1h-1zM24 71h1v1h-1zM25 71h1v1h-1zM26 71h1v1h-1zM27 71h1v1h-1zM28 71h1v1h-1zM29 71h1v1h-1zM30 71h1v1h-1zM31 71h1v1h-1zM32 71h1v1h-1zM33 71h1v1h-1zM34 71h1v1h-1zM35 71h1v1h-1zM36 71h1v1h-1zM37 71h1v1h-1zM38 71h1v1h-1zM39 71h1v1h-1zM40 71h1v1h-1zM41 71h1v1h-1zM42 71h1v1h-1zM43 71h1v1h-1zM44 71h1v1h-1zM45 71h1v1h-1zM46 71h1v1h-1zM47 71h1v1h-1zM48 71h1v1h-1zM49 71h1v1h-1zM50 71h1v1h-1zM51 71h1v1h-1zM52 71h1v1h-1zM53 71h1v1h-1zM54 71h1v1h-1z"/><path fill="#524517" d="M55 71h1v1h-1z"/><path fill="#231815" d="M56 71h1v1h-1zM57 71h1v1h-1zM58 71h1v1h-1zM1 72h1v1H1zM2 72h1v1H2zM3 72h1v1H3z"/><path fill="#2F2315" d="M4 72h1v1H4z"/><path fill="#D1C11B" d="M5 72h1v1H5z"/><path fill="#DDCC1B" d="M6 72h1v1H6zM7 72h1v1H7zM8 72h1v1H8zM9 72h1v1H9zM10 72h1v1h-1zM11 72h1v1h-1zM12 72h1v1h-1zM13 72h1v1h-1zM14 72h1v1h-1zM15 72h1v1h-1zM16 72h1v1h-1zM17 72h1v1h-1zM18 72h1v1h-1zM19 72h1v1h-1zM20 72h1v1h-1zM21 72h1v1h-1zM22 72h1v1h-1zM23 72h1v1h-1zM24 72h1v1h-1zM25 72h1v1h-1zM26 72h1v1h-1zM27 72h1v1h-1zM28 72h1v1h-1zM29 72h1v1h-1zM30 72h1v1h-1zM31 72h1v1h-1zM32 72h1v1h-1zM33 72h1v1h-1zM34 72h1v1h-1zM35 72h1v1h-1zM36 72h1v1h-1zM37 72h1v1h-1zM38 72h1v1h-1zM39 72h1v1h-1zM40 72h1v1h-1zM41 72h1v1h-1zM42 72h1v1h-1zM43 72h1v1h-1zM44 72h1v1h-1zM45 72h1v1h-1zM46 72h1v1h-1zM47 72h1v1h-1zM48 72h1v1h-1zM49 72h1v1h-1zM50 72h1v1h-1zM51 72h1v1h-1zM52 72h1v1h-1zM53 72h1v1h-1z"/><path fill="#978919" d="M54 72h1v1h-1z"/><path fill="#231815" d="M55 72h1v1h-1zM56 72h1v1h-1zM57 72h1v1h-1zM58 72h1v1h-1zM2 73h1v1H2zM3 73h1v1H3zM4 73h1v1H4z"/><path fill="#5D5017" d="M5 73h1v1H5z"/><path fill="#DDCC1B" d="M6 73h1v1H6zM7 73h1v1H7zM8 73h1v1H8zM9 73h1v1H9zM10 73h1v1h-1zM11 73h1v1h-1zM12 73h1v1h-1zM13 73h1v1h-1zM14 73h1v1h-1zM15 73h1v1h-1zM16 73h1v1h-1zM17 73h1v1h-1zM18 73h1v1h-1zM19 73h1v1h-1zM20 73h1v1h-1zM21 73h1v1h-1zM22 73h1v1h-1zM23 73h1v1h-1zM24 73h1v1h-1zM25 73h1v1h-1zM26 73h1v1h-1zM27 73h1v1h-1zM28 73h1v1h-1zM29 73h1v1h-1zM30 73h1v1h-1zM31 73h1v1h-1zM32 73h1v1h-1zM33 73h1v1h-1zM34 73h1v1h-1zM35 73h1v1h-1zM36 73h1v1h-1zM37 73h1v1h-1zM38 73h1v1h-1zM39 73h1v1h-1zM40 73h1v1h-1zM41 73h1v1h-1zM42 73h1v1h-1zM43 73h1v1h-1zM44 73h1v1h-1zM45 73h1v1h-1zM46 73h1v1h-1zM47 73h1v1h-1zM48 73h1v1h-1zM49 73h1v1h-1zM50 73h1v1h-1zM51 73h1v1h-1zM52 73h1v1h-1z"/><path fill="#C6B61A" d="M53 73h1v1h-1z"/><path fill="#2F2315" d="M54 73h1v1h-1z"/><path fill="#231815" d="M55 73h1v1h-1zM56 73h1v1h-1zM57 73h1v1h-1zM2 74h1v1H2zM3 74h1v1H3zM4 74h1v1H4zM5 74h1v1H5z"/><path fill="#A39419" d="M6 74h1v1H6z"/><path fill="#DDCC1B" d="M7 74h1v1H7zM8 74h1v1H8zM9 74h1v1H9zM10 74h1v1h-1zM11 74h1v1h-1zM12 74h1v1h-1zM13 74h1v1h-1zM14 74h1v1h-1zM15 74h1v1h-1zM16 74h1v1h-1zM17 74h1v1h-1zM18 74h1v1h-1zM19 74h1v1h-1zM20 74h1v1h-1zM21 74h1v1h-1zM22 74h1v1h-1zM23 74h1v1h-1zM24 74h1v1h-1zM25 74h1v1h-1zM26 74h1v1h-1zM27 74h1v1h-1zM28 74h1v1h-1zM29 74h1v1h-1zM30 74h1v1h-1zM31 74h1v1h-1zM32 74h1v1h-1zM33 74h1v1h-1zM34 74h1v1h-1zM35 74h1v1h-1zM36 74h1v1h-1zM37 74h1v1h-1zM38 74h1v1h-1zM39 74h1v1h-1zM40 74h1v1h-1zM41 74h1v1h-1zM42 74h1v1h-1zM43 74h1v1h-1zM44 74h1v1h-1zM45 74h1v1h-1zM46 74h1v1h-1zM47 74h1v1h-1zM48 74h1v1h-1zM49 74h1v1h-1zM50 74h1v1h-1zM51 74h1v1h-1z"/><path fill="#D1C11B" d="M52 74h1v1h-1z"/><path fill="#463A16" d="M53 74h1v1h-1z"/><path fill="#231815" d="M54 74h1v1h-1zM55 74h1v1h-1zM56 74h1v1h-1zM57 74h1v1h-1zM3 75h1v1H3zM4 75h1v1H4zM5 75h1v1H5z"/><path fill="#2F2315" d="M6 75h1v1H6z"/><path fill="#BAAA1A" d="M7 75h1v1H7z"/><path fill="#DDCC1B" d="M8 75h1v1H8zM9 75h1v1H9zM10 75h1v1h-1zM11 75h1v1h-1zM12 75h1v1h-1zM13 75h1v1h-1zM14 75h1v1h-1zM15 75h1v1h-1zM16 75h1v1h-1zM17 75h1v1h-1zM18 75h1v1h-1zM19 75h1v1h-1zM20 75h1v1h-1zM21 75h1v1h-1zM22 75h1v1h-1zM23 75h1v1h-1zM24 75h1v1h-1zM25 75h1v1h-1zM26 75h1v1h-1zM27 75h1v1h-1zM28 75h1v1h-1zM29 75h1v1h-1zM30 75h1v1h-1zM31 75h1v1h-1zM32 75h1v1h-1zM33 75h1v1h-1zM34 75h1v1h-1zM35 75h1v1h-1zM36 75h1v1h-1zM37 75h1v1h-1zM38 75h1v1h-1zM39 75h1v1h-1zM40 75h1v1h-1zM41 75h1v1h-1zM42 75h1v1h-1zM43 75h1v1h-1zM44 75h1v1h-1zM45 75h1v1h-1zM46 75h1v1h-1zM47 75h1v1h-1zM48 75h1v1h-1zM49 75h1v1h-1zM50 75h1v1h-1zM51 75h1v1h-1z"/><path fill="#5D5017" d="M52 75h1v1h-1z"/><path fill="#231815" d="M53 75h1v1h-1zM54 75h1v1h-1zM55 75h1v1h-1zM56 75h1v1h-1zM3 76h1v1H3zM4 76h1v1H4zM5 76h1v1H5zM6 76h1v1H6z"/><path fill="#3A2F16" d="M7 76h1v1H7z"/><path fill="#D1C11B" d="M8 76h1v1H8z"/><path fill="#DDCC1B" d="M9 76h1v1H9zM10 76h1v1h-1zM11 76h1v1h-1zM12 76h1v1h-1zM13 76h1v1h-1zM14 76h1v1h-1zM15 76h1v1h-1zM16 76h1v1h-1zM17 76h1v1h-1zM18 76h1v1h-1zM19 76h1v1h-1zM20 76h1v1h-1zM21 76h1v1h-1zM22 76h1v1h-1zM23 76h1v1h-1zM24 76h1v1h-1zM25 76h1v1h-1zM26 76h1v1h-1zM27 76h1v1h-1zM28 76h1v1h-1zM29 76h1v1h-1zM30 76h1v1h-1zM31 76h1v1h-1zM32 76h1v1h-1zM33 76h1v1h-1zM34 76h1v1h-1zM35 76h1v1h-1zM36 76h1v1h-1zM37 76h1v1h-1zM38 76h1v1h-1zM39 76h1v1h-1zM40 76h1v1h-1zM41 76h1v1h-1zM42 76h1v1h-1zM43 76h1v1h-1zM44 76h1v1h-1zM45 76h1v1h-1zM46 76h1v1h-1zM47 76h1v1h-1zM48 76h1v1h-1zM49 76h1v1h-1zM50 76h1v1h-1z"/><path fill="#695C17" d="M51 76h1v1h-1z"/><path fill="#231815" d="M52 76h1v1h-1zM53 76h1v1h-1zM54 76h1v1h-1zM55 76h1v1h-1zM4 77h1v1H4zM5 77h1v1H5zM6 77h1v1H6zM7 77h1v1H7z"/><path fill="#463A16" d="M8 77h1v1H8z"/><path fill="#D1C11B" d="M9 77h1v1H9z"/><path fill="#DDCC1B" d="M10 77h1v1h-1zM11 77h1v1h-1zM12 77h1v1h-1zM13 77h1v1h-1zM14 77h1v1h-1zM15 77h1v1h-1zM16 77h1v1h-1zM17 77h1v1h-1zM18 77h1v1h-1zM19 77h1v1h-1zM20 77h1v1h-1zM21 77h1v1h-1zM22 77h1v1h-1zM23 77h1v1h-1zM24 77h1v1h-1zM25 77h1v1h-1zM26 77h1v1h-1zM27 77h1v1h-1zM28 77h1v1h-1zM29 77h1v1h-1zM30 77h1v1h-1zM31 77h1v1h-1zM32 77h1v1h-1zM33 77h1v1h-1zM34 77h1v1h-1zM35 77h1v1h-1zM36 77h1v1h-1zM37 77h1v1h-1zM38 77h1v1h-1zM39 77h1v1h-1zM40 77h1v1h-1zM41 77h1v1h-1zM42 77h1v1h-1zM43 77h1v1h-1zM44 77h1v1h-1zM45 77h1v1h-1zM46 77h1v1h-1zM47 77h1v1h-1zM48 77h1v1h-1zM49 77h1v1h-1z"/><path fill="#695C17" d="M50 77h1v1h-1z"/><path fill="#231815" d="M51 77h1v1h-1zM52 77h1v1h-1zM53 77h1v1h-1zM54 77h1v1h-1zM5 78h1v1H5zM6 78h1v1H6zM7 78h1v1H7zM8 78h1v1H8z"/><path fill="#463A16" d="M9 78h1v1H9z"/><path fill="#D1C11B" d="M10 78h1v1h-1z"/><path fill="#DDCC1B" d="M11 78h1v1h-1zM12 78h1v1h-1zM13 78h1v1h-1zM14 78h1v1h-1zM15 78h1v1h-1zM16 78h1v1h-1zM17 78h1v1h-1zM18 78h1v1h-1zM19 78h1v1h-1zM20 78h1v1h-1zM21 78h1v1h-1zM22 78h1v1h-1zM23 78h1v1h-1zM24 78h1v1h-1zM25 78h1v1h-1zM26 78h1v1h-1zM27 78h1v1h-1zM28 78h1v1h-1zM29 78h1v1h-1zM30 78h1v1h-1zM31 78h1v1h-1zM32 78h1v1h-1zM33 78h1v1h-1zM34 78h1v1h-1zM35 78h1v1h-1zM36 78h1v1h-1zM37 78h1v1h-1zM38 78h1v1h-1zM39 78h1v1h-1zM40 78h1v1h-1zM41 78h1v1h-1zM42 78h1v1h-1zM43 78h1v1h-1zM44 78h1v1h-1zM45 78h1v1h-1zM46 78h1v1h-1zM47 78h1v1h-1z"/><path fill="#D1C11B" d="M48 78h1v1h-1z"/><path fill="#463A16" d="M49 78h1v1h-1z"/><path fill="#231815" d="M50 78h1v1h-1zM51 78h1v1h-1zM52 78h1v1h-1zM53 78h1v1h-1zM6 79h1v1H6zM7 79h1v1H7zM8 79h1v1H8zM9 79h1v1H9z"/><path fill="#3A2F16" d="M10 79h1v1h-1z"/><path fill="#BAAA1A" d="M11 79h1v1h-1z"/><path fill="#DDCC1B" d="M12 79h1v1h-1zM13 79h1v1h-1zM14 79h1v1h-1zM15 79h1v1h-1zM16 79h1v1h-1zM17 79h1v1h-1zM18 79h1v1h-1zM19 79h1v1h-1zM20 79h1v1h-1zM21 79h1v1h-1zM22 79h1v1h-1zM23 79h1v1h-1zM24 79h1v1h-1zM25 79h1v1h-1zM26 79h1v1h-1zM27 79h1v1h-1zM28 79h1v1h-1zM29 79h1v1h-1zM30 79h1v1h-1zM31 79h1v1h-1zM32 79h1v1h-1zM33 79h1v1h-1zM34 79h1v1h-1zM35 79h1v1h-1zM36 79h1v1h-1zM37 79h1v1h-1zM38 79h1v1h-1zM39 79h1v1h-1zM40 79h1v1h-1zM41 79h1v1h-1zM42 79h1v1h-1zM43 79h1v1h-1zM44 79h1v1h-1zM45 79h1v1h-1zM46 79h1v1h-1z"/><path fill="#BAAA1A" d="M47 79h1v1h-1z"/><path fill="#3A2F16" d="M48 79h1v1h-1z"/><path fill="#231815" d="M49 79h1v1h-1zM50 79h1v1h-1zM51 79h1v1h-1zM52 79h1v1h-1zM7 80h1v1H7zM8 80h1v1H8zM9 80h1v1H9zM10 80h1v1h-1z"/><path fill="#2F2315" d="M11 80h1v1h-1z"/><path fill="#978919" d="M12 80h1v1h-1z"/><path fill="#DDCC1B" d="M13 80h1v1h-1zM14 80h1v1h-1zM15 80h1v1h-1zM16 80h1v1h-1zM17 80h1v1h-1zM18 80h1v1h-1zM19 80h1v1h-1zM20 80h1v1h-1zM21 80h1v1h-1zM22 80h1v1h-1zM23 80h1v1h-1zM24 80h1v1h-1zM25 80h1v1h-1zM26 80h1v1h-1zM27 80h1v1h-1zM28 80h1v1h-1zM29 80h1v1h-1zM30 80h1v1h-1zM31 80h1v1h-1zM32 80h1v1h-1zM33 80h1v1h-1zM34 80h1v1h-1zM35 80h1v1h-1zM36 80h1v1h-1zM37 80h1v1h-1zM38 80h1v1h-1zM39 80h1v1h-1zM40 80h1v1h-1zM41 80h1v1h-1zM42 80h1v1h-1zM43 80h1v1h-1zM44 80h1v1h-1zM45 80h1v1h-1z"/><path fill="#807218" d="M46 80h1v1h-1z"/><path fill="#231815" d="M47 80h1v1h-1zM48 80h1v1h-1zM49 80h1v1h-1zM50 80h1v1h-1zM51 80h1v1h-1zM8 81h1v1H8zM9 81h1v1H9zM10 81h1v1h-1zM11 81h1v1h-1zM12 81h1v1h-1z"/><path fill="#695C17" d="M13 81h1v1h-1z"/><path fill="#D1C11B" d="M14 81h1v1h-1z"/><path fill="#DDCC1B" d="M15 81h1v1h-1zM16 81h1v1h-1zM17 81h1v1h-1zM18 81h1v1h-1zM19 81h1v1h-1zM20 81h1v1h-1zM21 81h1v1h-1zM22 81h1v1h-1zM23 81h1v1h-1zM24 81h1v1h-1zM25 81h1v1h-1zM26 81h1v1h-1zM27 81h1v1h-1zM28 81h1v1h-1zM29 81h1v1h-1zM30 81h1v1h-1zM31 81h1v1h-1zM32 81h1v1h-1zM33 81h1v1h-1zM34 81h1v1h-1zM35 81h1v1h-1zM36 81h1v1h-1zM37 81h1v1h-1zM38 81h1v1h-1zM39 81h1v1h-1zM40 81h1v1h-1zM41 81h1v1h-1zM42 81h1v1h-1zM43 81h1v1h-1z"/><path fill="#AF9F1A" d="M44 81h1v1h-1z"/><path fill="#463A16" d="M45 81h1v1h-1z"/><path fill="#231815" d="M46 81h1v1h-1zM47 81h1v1h-1zM48 81h1v1h-1zM49 81h1v1h-1zM50 81h1v1h-1zM9 82h1v1H9zM10 82h1v1h-1zM11 82h1v1h-1zM12 82h1v1h-1zM13 82h1v1h-1z"/><path fill="#3A2F16" d="M14 82h1v1h-1z"/><path fill="#A39419" d="M15 82h1v1h-1z"/><path fill="#DDCC1B" d="M16 82h1v1h-1zM17 82h1v1h-1zM18 82h1v1h-1zM19 82h1v1h-1zM20 82h1v1h-1zM21 82h1v1h-1zM22 82h1v1h-1zM23 82h1v1h-1zM24 82h1v1h-1zM25 82h1v1h-1zM26 82h1v1h-1zM27 82h1v1h-1zM28 82h1v1h-1zM29 82h1v1h-1zM30 82h1v1h-1zM31 82h1v1h-1zM32 82h1v1h-1zM33 82h1v1h-1zM34 82h1v1h-1zM35 82h1v1h-1zM36 82h1v1h-1zM37 82h1v1h-1zM38 82h1v1h-1zM39 82h1v1h-1zM40 82h1v1h-1zM41 82h1v1h-1z"/><path fill="#C6B61A" d="M42 82h1v1h-1z"/><path fill="#5D5017" d="M43 82h1v1h-1z"/><path fill="#231815" d="M44 82h1v1h-1zM45 82h1v1h-1zM46 82h1v1h-1zM47 82h1v1h-1zM48 82h1v1h-1zM49 82h1v1h-1zM10 83h1v1h-1zM11 83h1v1h-1zM12 83h1v1h-1zM13 83h1v1h-1zM14 83h1v1h-1zM15 83h1v1h-1z"/><path fill="#524517" d="M16 83h1v1h-1z"/><path fill="#AF9F1A" d="M17 83h1v1h-1z"/><path fill="#DDCC1B" d="M18 83h1v1h-1zM19 83h1v1h-1zM20 83h1v1h-1zM21 83h1v1h-1zM22 83h1v1h-1zM23 83h1v1h-1zM24 83h1v1h-1zM25 83h1v1h-1zM26 83h1v1h-1zM27 83h1v1h-1zM28 83h1v1h-1zM29 83h1v1h-1zM30 83h1v1h-1zM31 83h1v1h-1zM32 83h1v1h-1zM33 83h1v1h-1zM34 83h1v1h-1zM35 83h1v1h-1zM36 83h1v1h-1zM37 83h1v1h-1zM38 83h1v1h-1zM39 83h1v1h-1z"/><path fill="#AF9F1A" d="M40 83h1v1h-1z"/><path fill="#695C17" d="M41 83h1v1h-1z"/><path fill="#231815" d="M42 83h1v1h-1zM43 83h1v1h-1zM44 83h1v1h-1zM45 83h1v1h-1zM46 83h1v1h-1zM47 83h1v1h-1zM48 83h1v1h-1zM12 84h1v1h-1zM13 84h1v1h-1zM14 84h1v1h-1zM15 84h1v1h-1zM16 84h1v1h-1zM17 84h1v1h-1z"/><path fill="#524517" d="M18 84h1v1h-1z"/><path fill="#AF9F1A" d="M19 84h1v1h-1z"/><path fill="#DDCC1B" d="M20 84h1v1h-1zM21 84h1v1h-1zM22 84h1v1h-1zM23 84h1v1h-1zM24 84h1v1h-1zM25 84h1v1h-1zM26 84h1v1h-1zM27 84h1v1h-1zM28 84h1v1h-1zM29 84h1v1h-1zM30 84h1v1h-1zM31 84h1v1h-1zM32 84h1v1h-1zM33 84h1v1h-1zM34 84h1v1h-1zM35 84h1v1h-1zM36 84h1v1h-1z"/><path fill="#D1C11B" d="M37 84h1v1h-1z"/><path fill="#978919" d="M38 84h1v1h-1z"/><path fill="#463A16" d="M39 84h1v1h-1z"/><path fill="#231815" d="M40 84h1v1h-1zM41 84h1v1h-1zM42 84h1v1h-1zM43 84h1v1h-1zM44 84h1v1h-1zM45 84h1v1h-1zM46 84h1v1h-1zM13 85h1v1h-1zM14 85h1v1h-1zM15 85h1v1h-1zM16 85h1v1h-1zM17 85h1v1h-1zM18 85h1v1h-1zM19 85h1v1h-1z"/><path fill="#463A16" d="M20 85h1v1h-1z"/><path fill="#8C7D18" d="M21 85h1v1h-1z"/><path fill="#C6B61A" d="M22 85h1v1h-1z"/><path fill="#DDCC1B" d="M23 85h1v1h-1zM24 85h1v1h-1zM25 85h1v1h-1zM26 85h1v1h-1zM27 85h1v1h-1zM28 85h1v1h-1zM29 85h1v1h-1zM30 85h1v1h-1zM31 85h1v1h-1zM32 85h1v1h-1zM33 85h1v1h-1z"/><path fill="#BAAA1A" d="M34 85h1v1h-1z"/><path fill="#8C7D18" d="M35 85h1v1h-1z"/><path fill="#5D5017" d="M36 85h1v1h-1z"/><path fill="#231815" d="M37 85h1v1h-1zM38 85h1v1h-1zM39 85h1v1h-1zM40 85h1v1h-1zM41 85h1v1h-1zM42 85h1v1h-1zM43 85h1v1h-1zM44 85h1v1h-1zM15 86h1v1h-1zM16 86h1v1h-1zM17 86h1v1h-1zM18 86h1v1h-1zM19 86h1v1h-1zM20 86h1v1h-1zM21 86h1v1h-1zM22 86h1v1h-1z"/><path fill="#463A16" d="M23 86h1v1h-1z"/><path fill="#746718" d="M24 86h1v1h-1z"/><path fill="#A39419" d="M25 86h1v1h-1z"/><path fill="#AF9F1A" d="M26 86h1v1h-1z"/><path fill="#D1C11B" d="M27 86h1v1h-1zM28 86h1v1h-1z"/><path fill="#AF9F1A" d="M29 86h1v1h-1z"/><path fill="#A39419" d="M30 86h1v1h-1z"/><path fill="#807218" d="M31 86h1v1h-1z"/><path fill="#524517" d="M32 86h1v1h-1z"/><path fill="#2F2315" d="M33 86h1v1h-1z"/><path fill="#231815" d="M34 86h1v1h-1zM35 86h1v1h-1zM36 86h1v1h-1zM37 86h1v1h-1zM38 86h1v1h-1zM39 86h1v1h-1zM40 86h1v1h-1zM41 86h1v1h-1zM42 86h1v1h-1zM17 87h1v1h-1zM18 87h1v1h-1zM19 87h1v1h-1zM20 87h1v1h-1zM21 87h1v1h-1zM22 87h1v1h-1zM23 87h1v1h-1zM24 87h1v1h-1zM25 87h1v1h-1zM26 87h1v1h-1zM27 87h1v1h-1zM28 87h1v1h-1zM29 87h1v1h-1zM30 87h1v1h-1zM31 87h1v1h-1zM32 87h1v1h-1zM33 87h1v1h-1zM34 87h1v1h-1zM35 87h1v1h-1zM36 87h1v1h-1zM37 87h1v1h-1zM38 87h1v1h-1zM39 87h1v1h-1zM40 87h1v1h-1zM19 88h1v1h-1zM20 88h1v1h-1zM21 88h1v1h-1zM22 88h1v1h-1zM23 88h1v1h-1zM24 88h1v1h-1zM25 88h1v1h-1zM26 88h1v1h-1zM27 88h1v1h-1zM28 88h1v1h-1zM29 88h1v1h-1zM30 88h1v1h-1zM31 88h1v1h-1zM32 88h1v1h-1zM33 88h1v1h-1zM34 88h1v1h-1zM35 88h1v1h-1zM36 88h1v1h-1zM37 88h1v1h-1zM22 89h1v1h-1zM23 89h1v1h-1zM24 89h1v1h-1zM25 89h1v1h-1zM26 89h1v1h-1zM27 89h1v1h-1zM28 89h1v1h-1zM29 89h1v1h-1zM30 89h1v1h-1zM31 89h1v1h-1zM32 89h1v1h-1zM33 89h1v1h-1z"/></svg>