<svg baseProfile="full" height="50" width="90" xmlns="http://www.w3.org/2000/svg"><path fill="#6D7275" d="M41 0h1v1h-1zM42 0h1v1h-1zM43 0h1v1h-1zM44 0h1v1h-1zM45 0h1v1h-1zM46 0h1v1h-1zM47 0h1v1h-1zM40 1h1v1h-1zM41 1h1v1h-1zM42 1h1v1h-1zM43 1h1v1h-1zM44 1h1v1h-1zM45 1h1v1h-1zM46 1h1v1h-1zM47 1h1v1h-1zM48 1h1v1h-1zM39 2h1v1h-1zM40 2h1v1h-1zM41 2h1v1h-1zM42 2h1v1h-1zM43 2h1v1h-1zM44 2h1v1h-1zM45 2h1v1h-1zM46 2h1v1h-1zM47 2h1v1h-1zM48 2h1v1h-1zM49 2h1v1h-1zM38 3h1v1h-1zM39 3h1v1h-1zM40 3h1v1h-1zM41 3h1v1h-1z"/><path fill="#8C9194" d="M42 3h1v1h-1z"/><path fill="#DBDFE1" d="M43 3h1v1h-1z"/><path fill="#E9EDEF" d="M44 3h1v1h-1zM45 3h1v1h-1z"/><path fill="#ADB1B3" d="M46 3h1v1h-1z"/><path fill="#6D7275" d="M47 3h1v1h-1zM48 3h1v1h-1zM49 3h1v1h-1zM50 3h1v1h-1zM37 4h1v1h-1zM38 4h1v1h-1zM39 4h1v1h-1zM40 4h1v1h-1z"/><path fill="#868A8D" d="M41 4h1v1h-1z"/><path fill="#F3F4F4" d="M42 4h1v1h-1z"/><path fill="#FFF" d="M43 4h1v1h-1z"/><path fill="#F7F8F9" d="M44 4h1v1h-1z"/><path fill="#E9EDEF" d="M45 4h1v1h-1z"/><path fill="#E6EAEC" d="M46 4h1v1h-1z"/><path fill="#A9ABAC" d="M47 4h1v1h-1z"/><path fill="#6D7275" d="M48 4h1v1h-1zM49 4h1v1h-1zM50 4h1v1h-1zM51 4h1v1h-1zM36 5h1v1h-1zM37 5h1v1h-1zM38 5h1v1h-1zM39 5h1v1h-1z"/><path fill="#757A7D" d="M40 5h1v1h-1z"/><path fill="#D7DADC" d="M41 5h1v1h-1z"/><path fill="#FFF" d="M42 5h1v1h-1zM43 5h1v1h-1zM44 5h1v1h-1z"/><path fill="#E9EDEF" d="M45 5h1v1h-1zM46 5h1v1h-1z"/><path fill="#B3B0B1" d="M47 5h1v1h-1z"/><path fill="#8A898B" d="M48 5h1v1h-1z"/><path fill="#6D7275" d="M49 5h1v1h-1zM50 5h1v1h-1zM51 5h1v1h-1zM52 5h1v1h-1zM35 6h1v1h-1zM36 6h1v1h-1zM37 6h1v1h-1zM38 6h1v1h-1z"/><path fill="#757A7D" d="M39 6h1v1h-1z"/><path fill="#D2D6D8" d="M40 6h1v1h-1z"/><path fill="#E9EDEF" d="M41 6h1v1h-1z"/><path fill="#FBFCFC" d="M42 6h1v1h-1z"/><path fill="#FFF" d="M43 6h1v1h-1z"/><path fill="#F5F7F8" d="M44 6h1v1h-1z"/><path fill="#E9EDEF" d="M45 6h1v1h-1zM46 6h1v1h-1z"/><path fill="#AFACAE" d="M47 6h1v1h-1z"/><path fill="#9C9698" d="M48 6h1v1h-1z"/><path fill="#8A898B" d="M49 6h1v1h-1z"/><path fill="#6D7275" d="M50 6h1v1h-1zM51 6h1v1h-1zM52 6h1v1h-1zM53 6h1v1h-1zM34 7h1v1h-1zM35 7h1v1h-1zM36 7h1v1h-1zM37 7h1v1h-1z"/><path fill="#757A7D" d="M38 7h1v1h-1z"/><path fill="#D2D6D8" d="M39 7h1v1h-1z"/><path fill="#E9EDEF" d="M40 7h1v1h-1zM41 7h1v1h-1zM42 7h1v1h-1zM43 7h1v1h-1zM44 7h1v1h-1zM45 7h1v1h-1zM46 7h1v1h-1z"/><path fill="#CFCFD1" d="M47 7h1v1h-1z"/><path fill="#AAA6A7" d="M48 7h1v1h-1z"/><path fill="#B1ADAE" d="M49 7h1v1h-1z"/><path fill="#ADAFB0" d="M50 7h1v1h-1z"/><path fill="#6D7275" d="M51 7h1v1h-1zM52 7h1v1h-1zM53 7h1v1h-1zM54 7h1v1h-1zM55 7h1v1h-1zM33 8h1v1h-1zM34 8h1v1h-1zM35 8h1v1h-1zM36 8h1v1h-1z"/><path fill="#757A7D" d="M37 8h1v1h-1z"/><path fill="#D2D6D8" d="M38 8h1v1h-1z"/><path fill="#ECEFF1" d="M39 8h1v1h-1z"/><path fill="#FEFEFE" d="M40 8h1v1h-1zM41 8h1v1h-1z"/><path fill="#F0F3F4" d="M42 8h1v1h-1z"/><path fill="#E9EDEF" d="M43 8h1v1h-1zM44 8h1v1h-1zM45 8h1v1h-1zM46 8h1v1h-1z"/><path fill="#D9DADA" d="M47 8h1v1h-1z"/><path fill="#D3D4D3" d="M48 8h1v1h-1zM49 8h1v1h-1zM50 8h1v1h-1z"/><path fill="#ADAFB0" d="M51 8h1v1h-1z"/><path fill="#6D7275" d="M52 8h1v1h-1zM53 8h1v1h-1zM54 8h1v1h-1zM55 8h1v1h-1zM56 8h1v1h-1zM32 9h1v1h-1zM33 9h1v1h-1zM34 9h1v1h-1zM35 9h1v1h-1z"/><path fill="#757A7D" d="M36 9h1v1h-1z"/><path fill="#D2D6D8" d="M37 9h1v1h-1z"/><path fill="#E9EDEF" d="M38 9h1v1h-1z"/><path fill="#F4F6F7" d="M39 9h1v1h-1z"/><path fill="#FFF" d="M40 9h1v1h-1zM41 9h1v1h-1z"/><path fill="#FAFBFB" d="M42 9h1v1h-1z"/><path fill="#E9EDEF" d="M43 9h1v1h-1zM44 9h1v1h-1zM45 9h1v1h-1zM46 9h1v1h-1z"/><path fill="#D4D6D5" d="M47 9h1v1h-1z"/><path fill="#D3D4D3" d="M48 9h1v1h-1zM49 9h1v1h-1zM50 9h1v1h-1z"/><path fill="#D0D0CF" d="M51 9h1v1h-1z"/><path fill="#8E8C8F" d="M52 9h1v1h-1z"/><path fill="#6D7275" d="M53 9h1v1h-1zM54 9h1v1h-1zM55 9h1v1h-1zM56 9h1v1h-1zM57 9h1v1h-1zM31 10h1v1h-1zM32 10h1v1h-1zM33 10h1v1h-1zM34 10h1v1h-1z"/><path fill="#767B7E" d="M35 10h1v1h-1z"/><path fill="#E1E2E3" d="M36 10h1v1h-1z"/><path fill="#F7F8F9" d="M37 10h1v1h-1z"/><path fill="#E9EDEF" d="M38 10h1v1h-1z"/><path fill="#EDF0F2" d="M39 10h1v1h-1z"/><path fill="#FEFEFE" d="M40 10h1v1h-1z"/><path fill="#FFF" d="M41 10h1v1h-1z"/><path fill="#F0F3F4" d="M42 10h1v1h-1z"/><path fill="#E9EDEF" d="M43 10h1v1h-1zM44 10h1v1h-1zM45 10h1v1h-1z"/><path fill="#E1E4E5" d="M46 10h1v1h-1z"/><path fill="#B1ADAE" d="M47 10h1v1h-1z"/><path fill="#AAA6A7" d="M48 10h1v1h-1z"/><path fill="#BEBDBD" d="M49 10h1v1h-1z"/><path fill="#D3D4D3" d="M50 10h1v1h-1z"/><path fill="#C9C8C8" d="M51 10h1v1h-1z"/><path fill="#9C9698" d="M52 10h1v1h-1z"/><path fill="#938F91" d="M53 10h1v1h-1z"/><path fill="#707477" d="M54 10h1v1h-1z"/><path fill="#6D7275" d="M55 10h1v1h-1zM56 10h1v1h-1zM57 10h1v1h-1zM58 10h1v1h-1zM30 11h1v1h-1zM31 11h1v1h-1zM32 11h1v1h-1zM33 11h1v1h-1z"/><path fill="#757A7D" d="M34 11h1v1h-1z"/><path fill="#E1E2E3" d="M35 11h1v1h-1z"/><path fill="#FFF" d="M36 11h1v1h-1zM37 11h1v1h-1z"/><path fill="#EFF2F3" d="M38 11h1v1h-1z"/><path fill="#E9EDEF" d="M39 11h1v1h-1zM40 11h1v1h-1z"/><path fill="#EAEEF0" d="M41 11h1v1h-1z"/><path fill="#E9EDEF" d="M42 11h1v1h-1zM43 11h1v1h-1zM44 11h1v1h-1zM45 11h1v1h-1z"/><path fill="#C8C8C8" d="M46 11h1v1h-1z"/><path fill="#9C9698" d="M47 11h1v1h-1zM48 11h1v1h-1z"/><path fill="#9F9A9C" d="M49 11h1v1h-1z"/><path fill="#D3D4D3" d="M50 11h1v1h-1zM51 11h1v1h-1z"/><path fill="#B4B1B2" d="M52 11h1v1h-1z"/><path fill="#AAA6A7" d="M53 11h1v1h-1z"/><path fill="#AFAEAF" d="M54 11h1v1h-1z"/><path fill="#73787B" d="M55 11h1v1h-1z"/><path fill="#6D7275" d="M56 11h1v1h-1zM57 11h1v1h-1zM58 11h1v1h-1zM59 11h1v1h-1zM29 12h1v1h-1zM30 12h1v1h-1zM31 12h1v1h-1zM32 12h1v1h-1z"/><path fill="#757A7D" d="M33 12h1v1h-1z"/><path fill="#D2D6D8" d="M34 12h1v1h-1z"/><path fill="#F7F8F9" d="M35 12h1v1h-1z"/><path fill="#FFF" d="M36 12h1v1h-1zM37 12h1v1h-1z"/><path fill="#EDF0F2" d="M38 12h1v1h-1z"/><path fill="#E9EDEF" d="M39 12h1v1h-1zM40 12h1v1h-1zM41 12h1v1h-1zM42 12h1v1h-1zM43 12h1v1h-1zM44 12h1v1h-1z"/><path fill="#DEE1E1" d="M45 12h1v1h-1z"/><path fill="#CCC" d="M46 12h1v1h-1z"/><path fill="#9F9A9C" d="M47 12h1v1h-1z"/><path fill="#9C9698" d="M48 12h1v1h-1z"/><path fill="#ADA9AA" d="M49 12h1v1h-1z"/><path fill="#B8B5B6" d="M50 12h1v1h-1z"/><path fill="#A39E9F" d="M51 12h1v1h-1z"/><path fill="#B4B1B2" d="M52 12h1v1h-1z"/><path fill="#D3D4D3" d="M53 12h1v1h-1zM54 12h1v1h-1z"/><path fill="#C0C2C1" d="M55 12h1v1h-1z"/><path fill="#808487" d="M56 12h1v1h-1z"/><path fill="#6D7275" d="M57 12h1v1h-1zM58 12h1v1h-1zM59 12h1v1h-1zM60 12h1v1h-1zM28 13h1v1h-1zM29 13h1v1h-1zM30 13h1v1h-1zM31 13h1v1h-1z"/><path fill="#868A8D" d="M32 13h1v1h-1z"/><path fill="#D7DADC" d="M33 13h1v1h-1z"/><path fill="#EAEEF0" d="M34 13h1v1h-1z"/><path fill="#E9EDEF" d="M35 13h1v1h-1z"/><path fill="#EFF2F3" d="M36 13h1v1h-1z"/><path fill="#EDF0F2" d="M37 13h1v1h-1z"/><path fill="#E9EDEF" d="M38 13h1v1h-1zM39 13h1v1h-1zM40 13h1v1h-1zM41 13h1v1h-1zM42 13h1v1h-1zM43 13h1v1h-1z"/><path fill="#E5E8EA" d="M44 13h1v1h-1z"/><path fill="#D3D4D3" d="M45 13h1v1h-1zM46 13h1v1h-1z"/><path fill="#CCC" d="M47 13h1v1h-1z"/><path fill="#C5C5C4" d="M48 13h1v1h-1z"/><path fill="#D3D4D3" d="M49 13h1v1h-1z"/><path fill="#9C9698" d="M50 13h1v1h-1zM51 13h1v1h-1zM52 13h1v1h-1z"/><path fill="#D3D4D3" d="M53 13h1v1h-1z"/><path fill="#A6A2A3" d="M54 13h1v1h-1z"/><path fill="#9C9698" d="M55 13h1v1h-1z"/><path fill="#A7A3A5" d="M56 13h1v1h-1z"/><path fill="#808487" d="M57 13h1v1h-1z"/><path fill="#6D7275" d="M58 13h1v1h-1zM59 13h1v1h-1zM60 13h1v1h-1zM61 13h1v1h-1z"/><path fill="#231815" d="M62 13h1v1h-1zM25 14h1v1h-1zM26 14h1v1h-1z"/><path fill="#413C3B" d="M27 14h1v1h-1z"/><path fill="#6D7275" d="M28 14h1v1h-1zM29 14h1v1h-1zM30 14h1v1h-1z"/><path fill="#84898C" d="M31 14h1v1h-1z"/><path fill="#F5F5F5" d="M32 14h1v1h-1z"/><path fill="#FFF" d="M33 14h1v1h-1z"/><path fill="#FBFCFC" d="M34 14h1v1h-1z"/><path fill="#E9EDEF" d="M35 14h1v1h-1zM36 14h1v1h-1zM37 14h1v1h-1zM38 14h1v1h-1zM39 14h1v1h-1zM40 14h1v1h-1zM41 14h1v1h-1zM42 14h1v1h-1z"/><path fill="#E5E8EA" d="M43 14h1v1h-1z"/><path fill="#D4D6D5" d="M44 14h1v1h-1z"/><path fill="#D3D4D3" d="M45 14h1v1h-1zM46 14h1v1h-1zM47 14h1v1h-1zM48 14h1v1h-1zM49 14h1v1h-1z"/><path fill="#A6A2A3" d="M50 14h1v1h-1z"/><path fill="#9C9698" d="M51 14h1v1h-1z"/><path fill="#A39E9F" d="M52 14h1v1h-1z"/><path fill="#CCC" d="M53 14h1v1h-1z"/><path fill="#9C9698" d="M54 14h1v1h-1zM55 14h1v1h-1zM56 14h1v1h-1z"/><path fill="#CDCECD" d="M57 14h1v1h-1z"/><path fill="#939798" d="M58 14h1v1h-1z"/><path fill="#6D7275" d="M59 14h1v1h-1zM60 14h1v1h-1zM61 14h1v1h-1z"/><path fill="#545455" d="M62 14h1v1h-1z"/><path fill="#231815" d="M63 14h1v1h-1zM64 14h1v1h-1zM23 15h1v1h-1zM24 15h1v1h-1zM25 15h1v1h-1z"/><path fill="#4D4B4B" d="M26 15h1v1h-1z"/><path fill="#6D7275" d="M27 15h1v1h-1zM28 15h1v1h-1zM29 15h1v1h-1z"/><path fill="#8C9194" d="M30 15h1v1h-1z"/><path fill="#E5E9EA" d="M31 15h1v1h-1z"/><path fill="#FFF" d="M32 15h1v1h-1zM33 15h1v1h-1zM34 15h1v1h-1z"/><path fill="#E9EDEF" d="M35 15h1v1h-1zM36 15h1v1h-1zM37 15h1v1h-1zM38 15h1v1h-1zM39 15h1v1h-1zM40 15h1v1h-1zM41 15h1v1h-1z"/><path fill="#E5E8EA" d="M42 15h1v1h-1z"/><path fill="#D4D6D5" d="M43 15h1v1h-1z"/><path fill="#D3D4D3" d="M44 15h1v1h-1z"/><path fill="#BEBDBD" d="M45 15h1v1h-1z"/><path fill="#9F9A9C" d="M46 15h1v1h-1z"/><path fill="#AAA6A7" d="M47 15h1v1h-1z"/><path fill="#D0D0CF" d="M48 15h1v1h-1z"/><path fill="#D3D4D3" d="M49 15h1v1h-1z"/><path fill="#D0D0CF" d="M50 15h1v1h-1z"/><path fill="#C5C5C4" d="M51 15h1v1h-1z"/><path fill="#D0D0CF" d="M52 15h1v1h-1z"/><path fill="#D3D4D3" d="M53 15h1v1h-1z"/><path fill="#AAA6A7" d="M54 15h1v1h-1z"/><path fill="#9C9698" d="M55 15h1v1h-1z"/><path fill="#B1ADAE" d="M56 15h1v1h-1z"/><path fill="#D3D4D3" d="M57 15h1v1h-1z"/><path fill="#CCC" d="M58 15h1v1h-1z"/><path fill="#888A8C" d="M59 15h1v1h-1z"/><path fill="#6D7275" d="M60 15h1v1h-1zM61 15h1v1h-1zM62 15h1v1h-1z"/><path fill="#5F6163" d="M63 15h1v1h-1z"/><path fill="#281E1B" d="M64 15h1v1h-1z"/><path fill="#231815" d="M65 15h1v1h-1zM66 15h1v1h-1zM20 16h1v1h-1zM21 16h1v1h-1zM22 16h1v1h-1zM23 16h1v1h-1z"/><path fill="#281E1B" d="M24 16h1v1h-1z"/><path fill="#515051" d="M25 16h1v1h-1z"/><path fill="#6D7275" d="M26 16h1v1h-1zM27 16h1v1h-1zM28 16h1v1h-1z"/><path fill="#9CA0A3" d="M29 16h1v1h-1z"/><path fill="#E9EDEF" d="M30 16h1v1h-1zM31 16h1v1h-1z"/><path fill="#F5F7F8" d="M32 16h1v1h-1z"/><path fill="#FEFEFE" d="M33 16h1v1h-1z"/><path fill="#F4F6F7" d="M34 16h1v1h-1z"/><path fill="#E9EDEF" d="M35 16h1v1h-1zM36 16h1v1h-1zM37 16h1v1h-1zM38 16h1v1h-1zM39 16h1v1h-1zM40 16h1v1h-1z"/><path fill="#E4E7E8" d="M41 16h1v1h-1z"/><path fill="#D4D6D5" d="M42 16h1v1h-1z"/><path fill="#D3D4D3" d="M43 16h1v1h-1zM44 16h1v1h-1z"/><path fill="#AAA6A7" d="M45 16h1v1h-1z"/><path fill="#9C9698" d="M46 16h1v1h-1zM47 16h1v1h-1z"/><path fill="#C5C5C4" d="M48 16h1v1h-1z"/><path fill="#D3D4D3" d="M49 16h1v1h-1z"/><path fill="#D0D0CF" d="M50 16h1v1h-1z"/><path fill="#ADA9AA" d="M51 16h1v1h-1z"/><path fill="#AAA6A7" d="M52 16h1v1h-1z"/><path fill="#BEBDBD" d="M53 16h1v1h-1z"/><path fill="#D3D4D3" d="M54 16h1v1h-1zM55 16h1v1h-1zM56 16h1v1h-1zM57 16h1v1h-1z"/><path fill="#A39E9F" d="M58 16h1v1h-1z"/><path fill="#9C9698" d="M59 16h1v1h-1z"/><path fill="#8A898B" d="M60 16h1v1h-1z"/><path fill="#6D7275" d="M61 16h1v1h-1zM62 16h1v1h-1zM63 16h1v1h-1z"/><path fill="#646769" d="M64 16h1v1h-1z"/><path fill="#312927" d="M65 16h1v1h-1z"/><path fill="#231815" d="M66 16h1v1h-1zM67 16h1v1h-1zM68 16h1v1h-1zM18 17h1v1h-1zM19 17h1v1h-1zM20 17h1v1h-1zM21 17h1v1h-1zM22 17h1v1h-1z"/><path fill="#281E1B" d="M23 17h1v1h-1z"/><path fill="#5F6163" d="M24 17h1v1h-1z"/><path fill="#6D7275" d="M25 17h1v1h-1zM26 17h1v1h-1zM27 17h1v1h-1z"/><path fill="#ABB0B2" d="M28 17h1v1h-1z"/><path fill="#E9EDEF" d="M29 17h1v1h-1zM30 17h1v1h-1zM31 17h1v1h-1zM32 17h1v1h-1zM33 17h1v1h-1zM34 17h1v1h-1zM35 17h1v1h-1zM36 17h1v1h-1zM37 17h1v1h-1zM38 17h1v1h-1zM39 17h1v1h-1z"/><path fill="#DFE2E3" d="M40 17h1v1h-1z"/><path fill="#D3D4D3" d="M41 17h1v1h-1zM42 17h1v1h-1zM43 17h1v1h-1zM44 17h1v1h-1z"/><path fill="#B4B1B2" d="M45 17h1v1h-1z"/><path fill="#9C9698" d="M46 17h1v1h-1z"/><path fill="#9F9A9C" d="M47 17h1v1h-1z"/><path fill="#CCC" d="M48 17h1v1h-1z"/><path fill="#D3D4D3" d="M49 17h1v1h-1z"/><path fill="#C5C5C4" d="M50 17h1v1h-1z"/><path fill="#9C9698" d="M51 17h1v1h-1zM52 17h1v1h-1z"/><path fill="#AAA6A7" d="M53 17h1v1h-1z"/><path fill="#D3D4D3" d="M54 17h1v1h-1zM55 17h1v1h-1zM56 17h1v1h-1zM57 17h1v1h-1z"/><path fill="#9C9698" d="M58 17h1v1h-1zM59 17h1v1h-1zM60 17h1v1h-1z"/><path fill="#B3B4B4" d="M61 17h1v1h-1z"/><path fill="#73787B" d="M62 17h1v1h-1z"/><path fill="#6D7275" d="M63 17h1v1h-1zM64 17h1v1h-1z"/><path fill="#686C6F" d="M65 17h1v1h-1z"/><path fill="#3F3A39" d="M66 17h1v1h-1z"/><path fill="#231815" d="M67 17h1v1h-1zM68 17h1v1h-1zM69 17h1v1h-1zM70 17h1v1h-1zM16 18h1v1h-1zM17 18h1v1h-1zM18 18h1v1h-1zM19 18h1v1h-1zM20 18h1v1h-1zM21 18h1v1h-1z"/><path fill="#312927" d="M22 18h1v1h-1z"/><path fill="#686C6F" d="M23 18h1v1h-1z"/><path fill="#6D7275" d="M24 18h1v1h-1zM25 18h1v1h-1zM26 18h1v1h-1z"/><path fill="#BBBFC1" d="M27 18h1v1h-1z"/><path fill="#F1F4F5" d="M28 18h1v1h-1z"/><path fill="#FAFBFB" d="M29 18h1v1h-1z"/><path fill="#F5F7F8" d="M30 18h1v1h-1z"/><path fill="#E9EDEF" d="M31 18h1v1h-1zM32 18h1v1h-1zM33 18h1v1h-1zM34 18h1v1h-1zM35 18h1v1h-1zM36 18h1v1h-1zM37 18h1v1h-1z"/><path fill="#E6EAEC" d="M38 18h1v1h-1z"/><path fill="#D9DADA" d="M39 18h1v1h-1z"/><path fill="#D3D4D3" d="M40 18h1v1h-1zM41 18h1v1h-1zM42 18h1v1h-1zM43 18h1v1h-1zM44 18h1v1h-1zM45 18h1v1h-1z"/><path fill="#C9C8C8" d="M46 18h1v1h-1z"/><path fill="#D0D0CF" d="M47 18h1v1h-1z"/><path fill="#D3D4D3" d="M48 18h1v1h-1zM49 18h1v1h-1z"/><path fill="#CCC" d="M50 18h1v1h-1z"/><path fill="#9C9698" d="M51 18h1v1h-1zM52 18h1v1h-1z"/><path fill="#B1ADAE" d="M53 18h1v1h-1z"/><path fill="#D3D4D3" d="M54 18h1v1h-1zM55 18h1v1h-1zM56 18h1v1h-1zM57 18h1v1h-1z"/><path fill="#BEBDBD" d="M58 18h1v1h-1z"/><path fill="#AAA6A7" d="M59 18h1v1h-1z"/><path fill="#B8B5B6" d="M60 18h1v1h-1z"/><path fill="#D3D4D3" d="M61 18h1v1h-1z"/><path fill="#C0C2C1" d="M62 18h1v1h-1z"/><path fill="#808487" d="M63 18h1v1h-1z"/><path fill="#6D7275" d="M64 18h1v1h-1zM65 18h1v1h-1zM66 18h1v1h-1z"/><path fill="#4D4B4B" d="M67 18h1v1h-1z"/><path fill="#231815" d="M68 18h1v1h-1zM69 18h1v1h-1zM70 18h1v1h-1zM71 18h1v1h-1zM72 18h1v1h-1zM73 18h1v1h-1zM13 19h1v1h-1zM14 19h1v1h-1zM15 19h1v1h-1zM16 19h1v1h-1zM17 19h1v1h-1zM18 19h1v1h-1zM19 19h1v1h-1zM20 19h1v1h-1z"/><path fill="#41433F" d="M21 19h1v1h-1z"/><path fill="#6D7275" d="M22 19h1v1h-1zM23 19h1v1h-1zM24 19h1v1h-1z"/><path fill="#757A7D" d="M25 19h1v1h-1z"/><path fill="#D2D6D8" d="M26 19h1v1h-1z"/><path fill="#E9EDEF" d="M27 19h1v1h-1z"/><path fill="#FEFEFE" d="M28 19h1v1h-1z"/><path fill="#FFF" d="M29 19h1v1h-1zM30 19h1v1h-1z"/><path fill="#EFF2F3" d="M31 19h1v1h-1z"/><path fill="#E9EDEF" d="M32 19h1v1h-1zM33 19h1v1h-1zM34 19h1v1h-1zM35 19h1v1h-1zM36 19h1v1h-1z"/><path fill="#DEE1E1" d="M37 19h1v1h-1z"/><path fill="#D4D6D5" d="M38 19h1v1h-1z"/><path fill="#D3D4D3" d="M39 19h1v1h-1zM40 19h1v1h-1zM41 19h1v1h-1zM42 19h1v1h-1zM43 19h1v1h-1zM44 19h1v1h-1zM45 19h1v1h-1z"/><path fill="#BEBDBD" d="M46 19h1v1h-1z"/><path fill="#BBB9B9" d="M47 19h1v1h-1z"/><path fill="#D3D4D3" d="M48 19h1v1h-1zM49 19h1v1h-1zM50 19h1v1h-1z"/><path fill="#CCC" d="M51 19h1v1h-1z"/><path fill="#C5C5C4" d="M52 19h1v1h-1z"/><path fill="#D3D4D3" d="M53 19h1v1h-1zM54 19h1v1h-1z"/><path fill="#B4B1B2" d="M55 19h1v1h-1z"/><path fill="#9C9698" d="M56 19h1v1h-1z"/><path fill="#A6A2A3" d="M57 19h1v1h-1z"/><path fill="#D3D4D3" d="M58 19h1v1h-1zM59 19h1v1h-1z"/><path fill="#BEBDBD" d="M60 19h1v1h-1z"/><path fill="#BBB9B9" d="M61 19h1v1h-1z"/><path fill="#D0D0CF" d="M62 19h1v1h-1z"/><path fill="#CDCECD" d="M63 19h1v1h-1z"/><path fill="#8D9192" d="M64 19h1v1h-1z"/><path fill="#6D7275" d="M65 19h1v1h-1zM66 19h1v1h-1zM67 19h1v1h-1z"/><path fill="#5B5C5D" d="M68 19h1v1h-1z"/><path fill="#2F2523" d="M69 19h1v1h-1z"/><path fill="#231815" d="M70 19h1v1h-1zM71 19h1v1h-1zM72 19h1v1h-1zM73 19h1v1h-1zM74 19h1v1h-1zM75 19h1v1h-1zM11 20h1v1h-1zM12 20h1v1h-1zM13 20h1v1h-1zM14 20h1v1h-1zM15 20h1v1h-1zM16 20h1v1h-1zM17 20h1v1h-1z"/><path fill="#25211B" d="M18 20h1v1h-1z"/><path fill="#395F44" d="M19 20h1v1h-1z"/><path fill="#5A7467" d="M20 20h1v1h-1z"/><path fill="#6D7275" d="M21 20h1v1h-1zM22 20h1v1h-1zM23 20h1v1h-1z"/><path fill="#888C8F" d="M24 20h1v1h-1z"/><path fill="#F6F6F6" d="M25 20h1v1h-1z"/><path fill="#EDF0F2" d="M26 20h1v1h-1z"/><path fill="#E9EDEF" d="M27 20h1v1h-1z"/><path fill="#FAFBFB" d="M28 20h1v1h-1z"/><path fill="#FFF" d="M29 20h1v1h-1z"/><path fill="#FEFEFE" d="M30 20h1v1h-1z"/><path fill="#EAEEF0" d="M31 20h1v1h-1z"/><path fill="#E9EDEF" d="M32 20h1v1h-1zM33 20h1v1h-1zM34 20h1v1h-1z"/><path fill="#E1E4E5" d="M35 20h1v1h-1z"/><path fill="#D6D7D7" d="M36 20h1v1h-1z"/><path fill="#D3D4D3" d="M37 20h1v1h-1zM38 20h1v1h-1zM39 20h1v1h-1zM40 20h1v1h-1z"/><path fill="#BBB9B9" d="M41 20h1v1h-1zM42 20h1v1h-1z"/><path fill="#D0D0CF" d="M43 20h1v1h-1z"/><path fill="#D3D4D3" d="M44 20h1v1h-1z"/><path fill="#BBB9B9" d="M45 20h1v1h-1z"/><path fill="#9C9698" d="M46 20h1v1h-1zM47 20h1v1h-1z"/><path fill="#BBB9B9" d="M48 20h1v1h-1z"/><path fill="#D3D4D3" d="M49 20h1v1h-1z"/><path fill="#B1ADAE" d="M50 20h1v1h-1z"/><path fill="#A6A2A3" d="M51 20h1v1h-1z"/><path fill="#BEBDBD" d="M52 20h1v1h-1z"/><path fill="#D3D4D3" d="M53 20h1v1h-1zM54 20h1v1h-1z"/><path fill="#9C9698" d="M55 20h1v1h-1zM56 20h1v1h-1zM57 20h1v1h-1z"/><path fill="#C5C5C4" d="M58 20h1v1h-1z"/><path fill="#BEBDBD" d="M59 20h1v1h-1z"/><path fill="#9C9698" d="M60 20h1v1h-1zM61 20h1v1h-1z"/><path fill="#B1ADAE" d="M62 20h1v1h-1z"/><path fill="#D3D4D3" d="M63 20h1v1h-1zM64 20h1v1h-1z"/><path fill="#A0A3A4" d="M65 20h1v1h-1z"/><path fill="#6D7275" d="M66 20h1v1h-1zM67 20h1v1h-1zM68 20h1v1h-1z"/><path fill="#686C6F" d="M69 20h1v1h-1z"/><path fill="#35342E" d="M70 20h1v1h-1z"/><path fill="#231815" d="M71 20h1v1h-1zM72 20h1v1h-1zM73 20h1v1h-1zM74 20h1v1h-1zM75 20h1v1h-1zM76 20h1v1h-1zM77 20h1v1h-1zM9 21h1v1H9zM10 21h1v1h-1zM11 21h1v1h-1zM12 21h1v1h-1zM13 21h1v1h-1zM14 21h1v1h-1zM15 21h1v1h-1z"/><path fill="#293326" d="M16 21h1v1h-1z"/><path fill="#38724D" d="M17 21h1v1h-1z"/><path fill="#4AA770" d="M18 21h1v1h-1z"/><path fill="#7A8E82" d="M19 21h1v1h-1z"/><path fill="#6D7275" d="M20 21h1v1h-1zM21 21h1v1h-1zM22 21h1v1h-1z"/><path fill="#A4A7A9" d="M23 21h1v1h-1z"/><path fill="#F6F6F6" d="M24 21h1v1h-1z"/><path fill="#FFF" d="M25 21h1v1h-1z"/><path fill="#EFF2F3" d="M26 21h1v1h-1z"/><path fill="#E9EDEF" d="M27 21h1v1h-1z"/><path fill="#EAEEF0" d="M28 21h1v1h-1z"/><path fill="#EFF2F3" d="M29 21h1v1h-1z"/><path fill="#ECEFF1" d="M30 21h1v1h-1z"/><path fill="#E9EDEF" d="M31 21h1v1h-1zM32 21h1v1h-1z"/><path fill="#E1E4E5" d="M33 21h1v1h-1z"/><path fill="#D6D7D7" d="M34 21h1v1h-1z"/><path fill="#D1D2D0" d="M35 21h1v1h-1z"/><path fill="#CBCAC9" d="M36 21h1v1h-1z"/><path fill="#CCCCCA" d="M37 21h1v1h-1z"/><path fill="#D2D3D2" d="M38 21h1v1h-1z"/><path fill="#D3D4D3" d="M39 21h1v1h-1z"/><path fill="#BEBDBD" d="M40 21h1v1h-1z"/><path fill="#9C9698" d="M41 21h1v1h-1zM42 21h1v1h-1z"/><path fill="#B1ADAE" d="M43 21h1v1h-1z"/><path fill="#D3D4D3" d="M44 21h1v1h-1z"/><path fill="#B8B5B6" d="M45 21h1v1h-1z"/><path fill="#9C9698" d="M46 21h1v1h-1zM47 21h1v1h-1z"/><path fill="#B8B5B6" d="M48 21h1v1h-1z"/><path fill="#C5C5C4" d="M49 21h1v1h-1z"/><path fill="#9C9698" d="M50 21h1v1h-1zM51 21h1v1h-1z"/><path fill="#9F9A9C" d="M52 21h1v1h-1z"/><path fill="#D3D4D3" d="M53 21h1v1h-1zM54 21h1v1h-1z"/><path fill="#B1ADAE" d="M55 21h1v1h-1z"/><path fill="#9C9698" d="M56 21h1v1h-1z"/><path fill="#A6A2A3" d="M57 21h1v1h-1z"/><path fill="#D3D4D3" d="M58 21h1v1h-1z"/><path fill="#BBB9B9" d="M59 21h1v1h-1z"/><path fill="#9C9698" d="M60 21h1v1h-1zM61 21h1v1h-1z"/><path fill="#ADA9AA" d="M62 21h1v1h-1z"/><path fill="#C2C1C1" d="M63 21h1v1h-1z"/><path fill="#AAA6A7" d="M64 21h1v1h-1z"/><path fill="#B8B5B6" d="M65 21h1v1h-1z"/><path fill="#B3B5B6" d="M66 21h1v1h-1z"/><path fill="#73787B" d="M67 21h1v1h-1z"/><path fill="#6D7275" d="M68 21h1v1h-1zM69 21h1v1h-1z"/><path fill="#7F8D84" d="M70 21h1v1h-1z"/><path fill="#3F8D5D" d="M71 21h1v1h-1z"/><path fill="#304E36" d="M72 21h1v1h-1z"/><path fill="#231815" d="M73 21h1v1h-1zM74 21h1v1h-1zM75 21h1v1h-1zM76 21h1v1h-1zM77 21h1v1h-1zM78 21h1v1h-1zM79 21h1v1h-1zM6 22h1v1H6zM7 22h1v1H7zM8 22h1v1H8zM9 22h1v1H9zM10 22h1v1h-1zM11 22h1v1h-1zM12 22h1v1h-1zM13 22h1v1h-1z"/><path fill="#304E36" d="M14 22h1v1h-1z"/><path fill="#3D8458" d="M15 22h1v1h-1z"/><path fill="#45A86E" d="M16 22h1v1h-1zM17 22h1v1h-1z"/><path fill="#6B9D7F" d="M18 22h1v1h-1z"/><path fill="#8D8E8C" d="M19 22h1v1h-1z"/><path fill="#6F7477" d="M20 22h1v1h-1z"/><path fill="#6D7275" d="M21 22h1v1h-1z"/><path fill="#B5B9BB" d="M22 22h1v1h-1z"/><path fill="#EDF0F2" d="M23 22h1v1h-1z"/><path fill="#F8F9FA" d="M24 22h1v1h-1z"/><path fill="#F4F6F7" d="M25 22h1v1h-1z"/><path fill="#E9EDEF" d="M26 22h1v1h-1zM27 22h1v1h-1zM28 22h1v1h-1zM29 22h1v1h-1z"/><path fill="#E5E8EA" d="M30 22h1v1h-1z"/><path fill="#DDDFDF" d="M31 22h1v1h-1z"/><path fill="#D4D6D5" d="M32 22h1v1h-1z"/><path fill="#D3D4D3" d="M33 22h1v1h-1zM34 22h1v1h-1z"/><path fill="#CBCAC9" d="M35 22h1v1h-1z"/><path fill="#C8C7C5" d="M36 22h1v1h-1zM37 22h1v1h-1z"/><path fill="#CFCFCE" d="M38 22h1v1h-1z"/><path fill="#D3D4D3" d="M39 22h1v1h-1z"/><path fill="#BBB9B9" d="M40 22h1v1h-1z"/><path fill="#9C9698" d="M41 22h1v1h-1zM42 22h1v1h-1z"/><path fill="#B1ADAE" d="M43 22h1v1h-1z"/><path fill="#D3D4D3" d="M44 22h1v1h-1z"/><path fill="#D0D0CF" d="M45 22h1v1h-1z"/><path fill="#B1ADAE" d="M46 22h1v1h-1zM47 22h1v1h-1z"/><path fill="#D0D0CF" d="M48 22h1v1h-1z"/><path fill="#CCC" d="M49 22h1v1h-1z"/><path fill="#9F9A9C" d="M50 22h1v1h-1z"/><path fill="#9C9698" d="M51 22h1v1h-1z"/><path fill="#AAA6A7" d="M52 22h1v1h-1z"/><path fill="#D3D4D3" d="M53 22h1v1h-1zM54 22h1v1h-1zM55 22h1v1h-1zM56 22h1v1h-1zM57 22h1v1h-1zM58 22h1v1h-1z"/><path fill="#D0D0CF" d="M59 22h1v1h-1z"/><path fill="#B1ADAE" d="M60 22h1v1h-1z"/><path fill="#ADA9AA" d="M61 22h1v1h-1z"/><path fill="#C9C8C8" d="M62 22h1v1h-1z"/><path fill="#9F9A9C" d="M63 22h1v1h-1z"/><path fill="#9C9698" d="M64 22h1v1h-1zM65 22h1v1h-1z"/><path fill="#C9C8C8" d="M66 22h1v1h-1z"/><path fill="#C6C8C7" d="M67 22h1v1h-1z"/><path fill="#818486" d="M68 22h1v1h-1z"/><path fill="#7B7E7F" d="M69 22h1v1h-1z"/><path fill="#91928F" d="M70 22h1v1h-1z"/><path fill="#45A86E" d="M71 22h1v1h-1zM72 22h1v1h-1z"/><path fill="#419663" d="M73 22h1v1h-1z"/><path fill="#346042" d="M74 22h1v1h-1z"/><path fill="#25211B" d="M75 22h1v1h-1z"/><path fill="#231815" d="M76 22h1v1h-1zM77 22h1v1h-1zM78 22h1v1h-1zM79 22h1v1h-1zM80 22h1v1h-1zM81 22h1v1h-1zM4 23h1v1H4zM5 23h1v1H5zM6 23h1v1H6zM7 23h1v1H7zM8 23h1v1H8zM9 23h1v1H9zM10 23h1v1h-1z"/><path fill="#25211B" d="M11 23h1v1h-1z"/><path fill="#346042" d="M12 23h1v1h-1z"/><path fill="#419663" d="M13 23h1v1h-1z"/><path fill="#45A86E" d="M14 23h1v1h-1zM15 23h1v1h-1zM16 23h1v1h-1zM17 23h1v1h-1z"/><path fill="#7E9887" d="M18 23h1v1h-1z"/><path fill="#91928F" d="M19 23h1v1h-1zM20 23h1v1h-1z"/><path fill="#D9DCDD" d="M21 23h1v1h-1z"/><path fill="#E9EDEF" d="M22 23h1v1h-1zM23 23h1v1h-1zM24 23h1v1h-1zM25 23h1v1h-1zM26 23h1v1h-1zM27 23h1v1h-1z"/><path fill="#DDDFDF" d="M28 23h1v1h-1z"/><path fill="#D6D7D7" d="M29 23h1v1h-1z"/><path fill="#D3D4D3" d="M30 23h1v1h-1zM31 23h1v1h-1zM32 23h1v1h-1zM33 23h1v1h-1zM34 23h1v1h-1z"/><path fill="#CCCCCA" d="M35 23h1v1h-1z"/><path fill="#C8C7C5" d="M36 23h1v1h-1zM37 23h1v1h-1z"/><path fill="#D1D2D0" d="M38 23h1v1h-1z"/><path fill="#D3D4D3" d="M39 23h1v1h-1z"/><path fill="#D0D0CF" d="M40 23h1v1h-1z"/><path fill="#BBB9B9" d="M41 23h1v1h-1z"/><path fill="#B4B1B2" d="M42 23h1v1h-1z"/><path fill="#D0D0CF" d="M43 23h1v1h-1z"/><path fill="#D3D4D3" d="M44 23h1v1h-1zM45 23h1v1h-1zM46 23h1v1h-1zM47 23h1v1h-1zM48 23h1v1h-1zM49 23h1v1h-1z"/><path fill="#CCC" d="M50 23h1v1h-1z"/><path fill="#C5C5C4" d="M51 23h1v1h-1z"/><path fill="#D3D4D3" d="M52 23h1v1h-1zM53 23h1v1h-1z"/><path fill="#BBB9B9" d="M54 23h1v1h-1z"/><path fill="#AAA6A7" d="M55 23h1v1h-1z"/><path fill="#BEBDBD" d="M56 23h1v1h-1z"/><path fill="#D3D4D3" d="M57 23h1v1h-1zM58 23h1v1h-1zM59 23h1v1h-1zM60 23h1v1h-1zM61 23h1v1h-1zM62 23h1v1h-1z"/><path fill="#A6A2A3" d="M63 23h1v1h-1z"/><path fill="#9C9698" d="M64 23h1v1h-1zM65 23h1v1h-1z"/><path fill="#CCC" d="M66 23h1v1h-1z"/><path fill="#CFD0CF" d="M67 23h1v1h-1z"/><path fill="#959693" d="M68 23h1v1h-1z"/><path fill="#91928F" d="M69 23h1v1h-1zM70 23h1v1h-1z"/><path fill="#45A86E" d="M71 23h1v1h-1zM72 23h1v1h-1zM73 23h1v1h-1zM74 23h1v1h-1z"/><path fill="#439F68" d="M75 23h1v1h-1z"/><path fill="#366947" d="M76 23h1v1h-1z"/><path fill="#272A20" d="M77 23h1v1h-1z"/><path fill="#231815" d="M78 23h1v1h-1zM79 23h1v1h-1zM80 23h1v1h-1zM81 23h1v1h-1zM82 23h1v1h-1zM83 23h1v1h-1zM84 23h1v1h-1zM2 24h1v1H2zM3 24h1v1H3zM4 24h1v1H4zM5 24h1v1H5zM6 24h1v1H6zM7 24h1v1H7zM8 24h1v1H8z"/><path fill="#293326" d="M9 24h1v1H9z"/><path fill="#38724D" d="M10 24h1v1h-1z"/><path fill="#45A86E" d="M11 24h1v1h-1zM12 24h1v1h-1zM13 24h1v1h-1zM14 24h1v1h-1zM15 24h1v1h-1zM16 24h1v1h-1zM17 24h1v1h-1z"/><path fill="#779D85" d="M18 24h1v1h-1z"/><path fill="#91928F" d="M19 24h1v1h-1z"/><path fill="#959693" d="M20 24h1v1h-1z"/><path fill="#CBCCCC" d="M21 24h1v1h-1z"/><path fill="#E4E7E8" d="M22 24h1v1h-1z"/><path fill="#E1E4E5" d="M23 24h1v1h-1z"/><path fill="#DDDFDF" d="M24 24h1v1h-1z"/><path fill="#E1E4E5" d="M25 24h1v1h-1z"/><path fill="#E9EDEF" d="M26 24h1v1h-1zM27 24h1v1h-1z"/><path fill="#DDDFDF" d="M28 24h1v1h-1z"/><path fill="#D3D4D3" d="M29 24h1v1h-1zM30 24h1v1h-1zM31 24h1v1h-1zM32 24h1v1h-1zM33 24h1v1h-1zM34 24h1v1h-1z"/><path fill="#D2D3D2" d="M35 24h1v1h-1z"/><path fill="#CFCFCE" d="M36 24h1v1h-1z"/><path fill="#D1D2D0" d="M37 24h1v1h-1z"/><path fill="#D3D4D3" d="M38 24h1v1h-1zM39 24h1v1h-1zM40 24h1v1h-1zM41 24h1v1h-1z"/><path fill="#C9C8C8" d="M42 24h1v1h-1z"/><path fill="#9F9A9C" d="M43 24h1v1h-1z"/><path fill="#9C9698" d="M44 24h1v1h-1z"/><path fill="#C2C1C1" d="M45 24h1v1h-1z"/><path fill="#D3D4D3" d="M46 24h1v1h-1z"/><path fill="#CCC" d="M47 24h1v1h-1z"/><path fill="#A39E9F" d="M48 24h1v1h-1z"/><path fill="#9F9A9C" d="M49 24h1v1h-1z"/><path fill="#C2C1C1" d="M50 24h1v1h-1z"/><path fill="#D3D4D3" d="M51 24h1v1h-1zM52 24h1v1h-1z"/><path fill="#D0D0CF" d="M53 24h1v1h-1z"/><path fill="#9C9698" d="M54 24h1v1h-1zM55 24h1v1h-1zM56 24h1v1h-1z"/><path fill="#D3D4D3" d="M57 24h1v1h-1zM58 24h1v1h-1z"/><path fill="#C9C8C8" d="M59 24h1v1h-1z"/><path fill="#9F9A9C" d="M60 24h1v1h-1z"/><path fill="#A39E9F" d="M61 24h1v1h-1z"/><path fill="#C9C8C8" d="M62 24h1v1h-1z"/><path fill="#D0D0CF" d="M63 24h1v1h-1z"/><path fill="#BBB9B9" d="M64 24h1v1h-1z"/><path fill="#C5C5C4" d="M65 24h1v1h-1z"/><path fill="#D3D4D3" d="M66 24h1v1h-1z"/><path fill="#A2A3A0" d="M67 24h1v1h-1z"/><path fill="#91928F" d="M68 24h1v1h-1zM69 24h1v1h-1z"/><path fill="#7B9A86" d="M70 24h1v1h-1z"/><path fill="#45A86E" d="M71 24h1v1h-1zM72 24h1v1h-1zM73 24h1v1h-1zM74 24h1v1h-1zM75 24h1v1h-1zM76 24h1v1h-1zM77 24h1v1h-1z"/><path fill="#38724D" d="M78 24h1v1h-1z"/><path fill="#293326" d="M79 24h1v1h-1z"/><path fill="#231815" d="M80 24h1v1h-1zM81 24h1v1h-1zM82 24h1v1h-1zM83 24h1v1h-1zM84 24h1v1h-1zM85 24h1v1h-1zM86 24h1v1h-1zM0 25h1v1H0zM1 25h1v1H1zM2 25h1v1H2zM3 25h1v1H3zM4 25h1v1H4zM5 25h1v1H5zM6 25h1v1H6z"/><path fill="#304E36" d="M7 25h1v1H7z"/><path fill="#3D8458" d="M8 25h1v1H8z"/><path fill="#45A86E" d="M9 25h1v1H9zM10 25h1v1h-1zM11 25h1v1h-1zM12 25h1v1h-1zM13 25h1v1h-1zM14 25h1v1h-1zM15 25h1v1h-1zM16 25h1v1h-1zM17 25h1v1h-1z"/><path fill="#5EA87B" d="M18 25h1v1h-1z"/><path fill="#A7A6A3" d="M19 25h1v1h-1zM20 25h1v1h-1zM21 25h1v1h-1z"/><path fill="#C3C3C1" d="M22 25h1v1h-1z"/><path fill="#D3D4D3" d="M23 25h1v1h-1zM24 25h1v1h-1z"/><path fill="#DEE1E1" d="M25 25h1v1h-1z"/><path fill="#E9EDEF" d="M26 25h1v1h-1zM27 25h1v1h-1z"/><path fill="#DEE1E1" d="M28 25h1v1h-1z"/><path fill="#D3D4D3" d="M29 25h1v1h-1zM30 25h1v1h-1zM31 25h1v1h-1zM32 25h1v1h-1zM33 25h1v1h-1zM34 25h1v1h-1zM35 25h1v1h-1zM36 25h1v1h-1zM37 25h1v1h-1zM38 25h1v1h-1zM39 25h1v1h-1zM40 25h1v1h-1zM41 25h1v1h-1z"/><path fill="#B8B5B6" d="M42 25h1v1h-1z"/><path fill="#9C9698" d="M43 25h1v1h-1zM44 25h1v1h-1z"/><path fill="#ADA9AA" d="M45 25h1v1h-1z"/><path fill="#D3D4D3" d="M46 25h1v1h-1z"/><path fill="#B8B5B6" d="M47 25h1v1h-1z"/><path fill="#9C9698" d="M48 25h1v1h-1zM49 25h1v1h-1z"/><path fill="#AAA6A7" d="M50 25h1v1h-1z"/><path fill="#D3D4D3" d="M51 25h1v1h-1zM52 25h1v1h-1zM53 25h1v1h-1z"/><path fill="#9F9A9C" d="M54 25h1v1h-1z"/><path fill="#9C9698" d="M55 25h1v1h-1z"/><path fill="#A39E9F" d="M56 25h1v1h-1z"/><path fill="#D3D4D3" d="M57 25h1v1h-1zM58 25h1v1h-1z"/><path fill="#ADA9AA" d="M59 25h1v1h-1z"/><path fill="#9C9698" d="M60 25h1v1h-1zM61 25h1v1h-1z"/><path fill="#B8B5B6" d="M62 25h1v1h-1z"/><path fill="#D3D4D3" d="M63 25h1v1h-1zM64 25h1v1h-1z"/><path fill="#CFD0CF" d="M65 25h1v1h-1z"/><path fill="#A2A3A0" d="M66 25h1v1h-1z"/><path fill="#91928F" d="M67 25h1v1h-1zM68 25h1v1h-1z"/><path fill="#8C938D" d="M69 25h1v1h-1z"/><path fill="#4FA572" d="M70 25h1v1h-1z"/><path fill="#45A86E" d="M71 25h1v1h-1zM72 25h1v1h-1zM73 25h1v1h-1zM74 25h1v1h-1zM75 25h1v1h-1zM76 25h1v1h-1zM77 25h1v1h-1zM78 25h1v1h-1zM79 25h1v1h-1z"/><path fill="#3D8458" d="M80 25h1v1h-1z"/><path fill="#2C3C2B" d="M81 25h1v1h-1z"/><path fill="#231815" d="M82 25h1v1h-1zM83 25h1v1h-1zM84 25h1v1h-1zM85 25h1v1h-1zM86 25h1v1h-1zM87 25h1v1h-1zM88 25h1v1h-1zM0 26h1v1H0zM1 26h1v1H1zM2 26h1v1H2zM3 26h1v1H3zM4 26h1v1H4z"/><path fill="#346042" d="M5 26h1v1H5z"/><path fill="#419663" d="M6 26h1v1H6z"/><path fill="#45A86E" d="M7 26h1v1H7zM8 26h1v1H8zM9 26h1v1H9zM10 26h1v1h-1zM11 26h1v1h-1zM12 26h1v1h-1zM13 26h1v1h-1zM14 26h1v1h-1zM15 26h1v1h-1zM16 26h1v1h-1zM17 26h1v1h-1zM18 26h1v1h-1z"/><path fill="#82A78F" d="M19 26h1v1h-1z"/><path fill="#A7A6A3" d="M20 26h1v1h-1zM21 26h1v1h-1zM22 26h1v1h-1z"/><path fill="#BABAB8" d="M23 26h1v1h-1z"/><path fill="#D3D4D3" d="M24 26h1v1h-1z"/><path fill="#D4D6D5" d="M25 26h1v1h-1z"/><path fill="#E1E4E5" d="M26 26h1v1h-1zM27 26h1v1h-1z"/><path fill="#D4D6D5" d="M28 26h1v1h-1z"/><path fill="#D3D4D3" d="M29 26h1v1h-1z"/><path fill="#DADCDC" d="M30 26h1v1h-1z"/><path fill="#E8EBED" d="M31 26h1v1h-1zM32 26h1v1h-1z"/><path fill="#D7D9D8" d="M33 26h1v1h-1z"/><path fill="#D3D4D3" d="M34 26h1v1h-1zM35 26h1v1h-1zM36 26h1v1h-1zM37 26h1v1h-1zM38 26h1v1h-1zM39 26h1v1h-1zM40 26h1v1h-1zM41 26h1v1h-1z"/><path fill="#C9C8C8" d="M42 26h1v1h-1z"/><path fill="#9F9A9C" d="M43 26h1v1h-1z"/><path fill="#9C9698" d="M44 26h1v1h-1z"/><path fill="#C2C1C1" d="M45 26h1v1h-1z"/><path fill="#D3D4D3" d="M46 26h1v1h-1z"/><path fill="#C5C5C4" d="M47 26h1v1h-1z"/><path fill="#9F9A9C" d="M48 26h1v1h-1z"/><path fill="#9C9698" d="M49 26h1v1h-1z"/><path fill="#B8B5B6" d="M50 26h1v1h-1z"/><path fill="#D3D4D3" d="M51 26h1v1h-1zM52 26h1v1h-1zM53 26h1v1h-1z"/><path fill="#CCC" d="M54 26h1v1h-1z"/><path fill="#B8B5B6" d="M55 26h1v1h-1z"/><path fill="#BEBDBD" d="M56 26h1v1h-1z"/><path fill="#B8B5B6" d="M57 26h1v1h-1z"/><path fill="#CCC" d="M58 26h1v1h-1z"/><path fill="#C2C1C1" d="M59 26h1v1h-1z"/><path fill="#9C9698" d="M60 26h1v1h-1zM61 26h1v1h-1z"/><path fill="#C5C5C4" d="M62 26h1v1h-1z"/><path fill="#D3D4D3" d="M63 26h1v1h-1z"/><path fill="#C7C8C6" d="M64 26h1v1h-1z"/><path fill="#9D9E9C" d="M65 26h1v1h-1z"/><path fill="#91928F" d="M66 26h1v1h-1zM67 26h1v1h-1zM68 26h1v1h-1z"/><path fill="#62A07A" d="M69 26h1v1h-1z"/><path fill="#45A86E" d="M70 26h1v1h-1zM71 26h1v1h-1zM72 26h1v1h-1zM73 26h1v1h-1zM74 26h1v1h-1zM75 26h1v1h-1zM76 26h1v1h-1zM77 26h1v1h-1zM78 26h1v1h-1zM79 26h1v1h-1zM80 26h1v1h-1zM81 26h1v1h-1z"/><path fill="#419663" d="M82 26h1v1h-1z"/><path fill="#304E36" d="M83 26h1v1h-1z"/><path fill="#231815" d="M84 26h1v1h-1zM85 26h1v1h-1zM86 26h1v1h-1zM87 26h1v1h-1zM88 26h1v1h-1zM89 26h1v1h-1zM0 27h1v1H0zM1 27h1v1H1zM2 27h1v1H2zM3 27h1v1H3zM4 27h1v1H4z"/><path fill="#272A20" d="M5 27h1v1H5z"/><path fill="#3A7B52" d="M6 27h1v1H6z"/><path fill="#45A86E" d="M7 27h1v1H7zM8 27h1v1H8zM9 27h1v1H9zM10 27h1v1h-1zM11 27h1v1h-1zM12 27h1v1h-1zM13 27h1v1h-1zM14 27h1v1h-1zM15 27h1v1h-1zM16 27h1v1h-1zM17 27h1v1h-1zM18 27h1v1h-1z"/><path fill="#4BA871" d="M19 27h1v1h-1z"/><path fill="#88A792" d="M20 27h1v1h-1z"/><path fill="#A7A6A3" d="M21 27h1v1h-1zM22 27h1v1h-1zM23 27h1v1h-1z"/><path fill="#ADACA9" d="M24 27h1v1h-1z"/><path fill="#C8C9C7" d="M25 27h1v1h-1z"/><path fill="#D3D4D3" d="M26 27h1v1h-1zM27 27h1v1h-1zM28 27h1v1h-1zM29 27h1v1h-1z"/><path fill="#E2E5E6" d="M30 27h1v1h-1z"/><path fill="#E9EDEF" d="M31 27h1v1h-1zM32 27h1v1h-1z"/><path fill="#DEE1E1" d="M33 27h1v1h-1z"/><path fill="#D3D4D3" d="M34 27h1v1h-1zM35 27h1v1h-1z"/><path fill="#DADCDC" d="M36 27h1v1h-1z"/><path fill="#E4E7E8" d="M37 27h1v1h-1z"/><path fill="#DEE1E1" d="M38 27h1v1h-1z"/><path fill="#D3D4D3" d="M39 27h1v1h-1zM40 27h1v1h-1zM41 27h1v1h-1zM42 27h1v1h-1zM43 27h1v1h-1zM44 27h1v1h-1zM45 27h1v1h-1zM46 27h1v1h-1zM47 27h1v1h-1z"/><path fill="#D0D0CF" d="M48 27h1v1h-1z"/><path fill="#CCC" d="M49 27h1v1h-1z"/><path fill="#D3D4D3" d="M50 27h1v1h-1zM51 27h1v1h-1zM52 27h1v1h-1z"/><path fill="#D1D2D0" d="M53 27h1v1h-1z"/><path fill="#D3D4D3" d="M54 27h1v1h-1z"/><path fill="#CCC" d="M55 27h1v1h-1z"/><path fill="#9C9698" d="M56 27h1v1h-1zM57 27h1v1h-1z"/><path fill="#A39E9F" d="M58 27h1v1h-1z"/><path fill="#D3D4D3" d="M59 27h1v1h-1z"/><path fill="#CCC" d="M60 27h1v1h-1zM61 27h1v1h-1z"/><path fill="#D0D1D0" d="M62 27h1v1h-1z"/><path fill="#B2B3B1" d="M63 27h1v1h-1z"/><path fill="#91928F" d="M64 27h1v1h-1zM65 27h1v1h-1zM66 27h1v1h-1zM67 27h1v1h-1z"/><path fill="#62A07A" d="M68 27h1v1h-1z"/><path fill="#45A86E" d="M69 27h1v1h-1zM70 27h1v1h-1zM71 27h1v1h-1zM72 27h1v1h-1zM73 27h1v1h-1zM74 27h1v1h-1zM75 27h1v1h-1zM76 27h1v1h-1zM77 27h1v1h-1zM78 27h1v1h-1zM79 27h1v1h-1zM80 27h1v1h-1zM81 27h1v1h-1zM82 27h1v1h-1zM83 27h1v1h-1z"/><path fill="#38724D" d="M84 27h1v1h-1z"/><path fill="#25211B" d="M85 27h1v1h-1z"/><path fill="#231815" d="M86 27h1v1h-1zM87 27h1v1h-1zM88 27h1v1h-1zM89 27h1v1h-1zM1 28h1v1H1zM2 28h1v1H2zM3 28h1v1H3zM4 28h1v1H4zM5 28h1v1H5zM6 28h1v1H6z"/><path fill="#344231" d="M7 28h1v1H7z"/><path fill="#579568" d="M8 28h1v1H8z"/><path fill="#61BA7F" d="M9 28h1v1H9z"/><path fill="#59B47A" d="M10 28h1v1h-1z"/><path fill="#50AF75" d="M11 28h1v1h-1z"/><path fill="#45A86E" d="M12 28h1v1h-1zM13 28h1v1h-1zM14 28h1v1h-1zM15 28h1v1h-1zM16 28h1v1h-1zM17 28h1v1h-1zM18 28h1v1h-1zM19 28h1v1h-1zM20 28h1v1h-1z"/><path fill="#7CA78C" d="M21 28h1v1h-1z"/><path fill="#A7A6A3" d="M22 28h1v1h-1zM23 28h1v1h-1zM24 28h1v1h-1zM25 28h1v1h-1z"/><path fill="#B2B2AF" d="M26 28h1v1h-1z"/><path fill="#C8C9C7" d="M27 28h1v1h-1z"/><path fill="#D3D4D3" d="M28 28h1v1h-1zM29 28h1v1h-1z"/><path fill="#DADCDC" d="M30 28h1v1h-1z"/><path fill="#E9EDEF" d="M31 28h1v1h-1zM32 28h1v1h-1z"/><path fill="#D9DADA" d="M33 28h1v1h-1z"/><path fill="#D3D4D3" d="M34 28h1v1h-1zM35 28h1v1h-1z"/><path fill="#E8EBED" d="M36 28h1v1h-1z"/><path fill="#E9EDEF" d="M37 28h1v1h-1zM38 28h1v1h-1z"/><path fill="#D7D9D8" d="M39 28h1v1h-1z"/><path fill="#D3D4D3" d="M40 28h1v1h-1zM41 28h1v1h-1z"/><path fill="#D2D2D1" d="M42 28h1v1h-1z"/><path fill="#CECECD" d="M43 28h1v1h-1z"/><path fill="#D2D3D2" d="M44 28h1v1h-1z"/><path fill="#D3D4D3" d="M45 28h1v1h-1zM46 28h1v1h-1zM47 28h1v1h-1zM48 28h1v1h-1zM49 28h1v1h-1zM50 28h1v1h-1z"/><path fill="#D2D3D2" d="M51 28h1v1h-1z"/><path fill="#C9C8C6" d="M52 28h1v1h-1z"/><path fill="#C8C7C5" d="M53 28h1v1h-1z"/><path fill="#CDCDCB" d="M54 28h1v1h-1z"/><path fill="#C9C8C8" d="M55 28h1v1h-1z"/><path fill="#9C9698" d="M56 28h1v1h-1zM57 28h1v1h-1z"/><path fill="#9F9A9C" d="M58 28h1v1h-1z"/><path fill="#D3D4D3" d="M59 28h1v1h-1zM60 28h1v1h-1z"/><path fill="#BABBBA" d="M61 28h1v1h-1z"/><path fill="#999A98" d="M62 28h1v1h-1z"/><path fill="#91928F" d="M63 28h1v1h-1zM64 28h1v1h-1zM65 28h1v1h-1z"/><path fill="#88958B" d="M66 28h1v1h-1z"/><path fill="#53A474" d="M67 28h1v1h-1z"/><path fill="#45A86E" d="M68 28h1v1h-1zM69 28h1v1h-1zM70 28h1v1h-1zM71 28h1v1h-1zM72 28h1v1h-1zM73 28h1v1h-1zM74 28h1v1h-1zM75 28h1v1h-1zM76 28h1v1h-1zM77 28h1v1h-1zM78 28h1v1h-1zM79 28h1v1h-1zM80 28h1v1h-1zM81 28h1v1h-1z"/><path fill="#3D8458" d="M82 28h1v1h-1z"/><path fill="#2C3C2B" d="M83 28h1v1h-1z"/><path fill="#231815" d="M84 28h1v1h-1zM85 28h1v1h-1zM86 28h1v1h-1zM87 28h1v1h-1zM88 28h1v1h-1zM89 28h1v1h-1zM3 29h1v1H3zM4 29h1v1H4zM5 29h1v1H5zM6 29h1v1H6zM7 29h1v1H7zM8 29h1v1H8z"/><path fill="#394C37" d="M9 29h1v1H9z"/><path fill="#5FA975" d="M10 29h1v1h-1z"/><path fill="#68BE83" d="M11 29h1v1h-1z"/><path fill="#66BD82" d="M12 29h1v1h-1z"/><path fill="#5BB67B" d="M13 29h1v1h-1z"/><path fill="#4EAE73" d="M14 29h1v1h-1z"/><path fill="#45A86E" d="M15 29h1v1h-1zM16 29h1v1h-1zM17 29h1v1h-1zM18 29h1v1h-1zM19 29h1v1h-1zM20 29h1v1h-1zM21 29h1v1h-1z"/><path fill="#5EA87B" d="M22 29h1v1h-1z"/><path fill="#95A699" d="M23 29h1v1h-1z"/><path fill="#A7A6A3" d="M24 29h1v1h-1zM25 29h1v1h-1zM26 29h1v1h-1zM27 29h1v1h-1z"/><path fill="#AFAFAC" d="M28 29h1v1h-1z"/><path fill="#C3C3C1" d="M29 29h1v1h-1z"/><path fill="#D0D1D0" d="M30 29h1v1h-1z"/><path fill="#D6D7D7" d="M31 29h1v1h-1z"/><path fill="#D4D6D5" d="M32 29h1v1h-1z"/><path fill="#D3D4D3" d="M33 29h1v1h-1zM34 29h1v1h-1zM35 29h1v1h-1z"/><path fill="#E6EAEC" d="M36 29h1v1h-1z"/><path fill="#E9EDEF" d="M37 29h1v1h-1z"/><path fill="#E8EBED" d="M38 29h1v1h-1z"/><path fill="#D6D7D7" d="M39 29h1v1h-1z"/><path fill="#D3D4D3" d="M40 29h1v1h-1z"/><path fill="#D2D3D2" d="M41 29h1v1h-1z"/><path fill="#C9C8C6" d="M42 29h1v1h-1z"/><path fill="#C8C7C5" d="M43 29h1v1h-1z"/><path fill="#C9C9C7" d="M44 29h1v1h-1z"/><path fill="#D3D4D3" d="M45 29h1v1h-1z"/><path fill="#D2D3D2" d="M46 29h1v1h-1z"/><path fill="#C9C9C7" d="M47 29h1v1h-1z"/><path fill="#C8C7C5" d="M48 29h1v1h-1z"/><path fill="#CDCDCB" d="M49 29h1v1h-1z"/><path fill="#D3D4D3" d="M50 29h1v1h-1z"/><path fill="#D0D1D0" d="M51 29h1v1h-1z"/><path fill="#C8C7C5" d="M52 29h1v1h-1zM53 29h1v1h-1zM54 29h1v1h-1z"/><path fill="#D3D4D3" d="M55 29h1v1h-1z"/><path fill="#B8B5B6" d="M56 29h1v1h-1z"/><path fill="#AAA6A7" d="M57 29h1v1h-1z"/><path fill="#BFBEBE" d="M58 29h1v1h-1z"/><path fill="#B9B9B7" d="M59 29h1v1h-1z"/><path fill="#999A98" d="M60 29h1v1h-1z"/><path fill="#91928F" d="M61 29h1v1h-1zM62 29h1v1h-1zM63 29h1v1h-1zM64 29h1v1h-1z"/><path fill="#709C81" d="M65 29h1v1h-1z"/><path fill="#4AA770" d="M66 29h1v1h-1z"/><path fill="#45A86E" d="M67 29h1v1h-1zM68 29h1v1h-1zM69 29h1v1h-1zM70 29h1v1h-1zM71 29h1v1h-1zM72 29h1v1h-1zM73 29h1v1h-1zM74 29h1v1h-1zM75 29h1v1h-1zM76 29h1v1h-1zM77 29h1v1h-1z"/><path fill="#4EAE73" d="M78 29h1v1h-1z"/><path fill="#52B076" d="M79 29h1v1h-1z"/><path fill="#3D8458" d="M80 29h1v1h-1z"/><path fill="#2C3C2B" d="M81 29h1v1h-1z"/><path fill="#231815" d="M82 29h1v1h-1zM83 29h1v1h-1zM84 29h1v1h-1zM85 29h1v1h-1zM86 29h1v1h-1zM87 29h1v1h-1zM5 30h1v1H5zM6 30h1v1H6zM7 30h1v1H7zM8 30h1v1H8zM9 30h1v1H9zM10 30h1v1h-1z"/><path fill="#3D563E" d="M11 30h1v1h-1z"/><path fill="#64B47C" d="M12 30h1v1h-1z"/><path fill="#68BE83" d="M13 30h1v1h-1zM14 30h1v1h-1z"/><path fill="#64BB80" d="M15 30h1v1h-1z"/><path fill="#54B277" d="M16 30h1v1h-1z"/><path fill="#47A96F" d="M17 30h1v1h-1z"/><path fill="#45A86E" d="M18 30h1v1h-1zM19 30h1v1h-1zM20 30h1v1h-1zM21 30h1v1h-1zM22 30h1v1h-1zM23 30h1v1h-1z"/><path fill="#6AA782" d="M24 30h1v1h-1z"/><path fill="#9BA69C" d="M25 30h1v1h-1z"/><path fill="#A7A6A3" d="M26 30h1v1h-1zM27 30h1v1h-1zM28 30h1v1h-1zM29 30h1v1h-1z"/><path fill="#AAA9A6" d="M30 30h1v1h-1z"/><path fill="#B8B7B5" d="M31 30h1v1h-1z"/><path fill="#C5C6C4" d="M32 30h1v1h-1z"/><path fill="#D3D4D3" d="M33 30h1v1h-1zM34 30h1v1h-1zM35 30h1v1h-1z"/><path fill="#D6D7D7" d="M36 30h1v1h-1z"/><path fill="#DDDFDF" d="M37 30h1v1h-1z"/><path fill="#D6D7D7" d="M38 30h1v1h-1z"/><path fill="#D3D4D3" d="M39 30h1v1h-1zM40 30h1v1h-1z"/><path fill="#D1D2D0" d="M41 30h1v1h-1z"/><path fill="#C8C7C5" d="M42 30h1v1h-1zM43 30h1v1h-1z"/><path fill="#C9C8C6" d="M44 30h1v1h-1z"/><path fill="#D3D4D3" d="M45 30h1v1h-1z"/><path fill="#D0D1D0" d="M46 30h1v1h-1z"/><path fill="#C8C7C5" d="M47 30h1v1h-1zM48 30h1v1h-1z"/><path fill="#C9C9C7" d="M49 30h1v1h-1z"/><path fill="#D3D4D3" d="M50 30h1v1h-1zM51 30h1v1h-1z"/><path fill="#CBCAC9" d="M52 30h1v1h-1z"/><path fill="#C8C7C5" d="M53 30h1v1h-1z"/><path fill="#CECECC" d="M54 30h1v1h-1z"/><path fill="#D3D4D3" d="M55 30h1v1h-1z"/><path fill="#C5C6C4" d="M56 30h1v1h-1z"/><path fill="#B8B7B5" d="M57 30h1v1h-1z"/><path fill="#A7A6A3" d="M58 30h1v1h-1z"/><path fill="#999A97" d="M59 30h1v1h-1z"/><path fill="#91928F" d="M60 30h1v1h-1zM61 30h1v1h-1zM62 30h1v1h-1z"/><path fill="#7E9887" d="M63 30h1v1h-1z"/><path fill="#53A474" d="M64 30h1v1h-1z"/><path fill="#45A86E" d="M65 30h1v1h-1zM66 30h1v1h-1zM67 30h1v1h-1zM68 30h1v1h-1zM69 30h1v1h-1zM70 30h1v1h-1zM71 30h1v1h-1zM72 30h1v1h-1zM73 30h1v1h-1zM74 30h1v1h-1z"/><path fill="#50AF75" d="M75 30h1v1h-1z"/><path fill="#5DB77C" d="M76 30h1v1h-1z"/><path fill="#68BE83" d="M77 30h1v1h-1z"/><path fill="#5FA975" d="M78 30h1v1h-1z"/><path fill="#3D563E" d="M79 30h1v1h-1z"/><path fill="#231815" d="M80 30h1v1h-1zM81 30h1v1h-1zM82 30h1v1h-1zM83 30h1v1h-1zM84 30h1v1h-1zM85 30h1v1h-1zM7 31h1v1H7zM8 31h1v1H8zM9 31h1v1H9zM10 31h1v1h-1zM11 31h1v1h-1z"/><path fill="#27221C" d="M12 31h1v1h-1z"/><path fill="#466B4C" d="M13 31h1v1h-1z"/><path fill="#64B47C" d="M14 31h1v1h-1z"/><path fill="#68BE83" d="M15 31h1v1h-1zM16 31h1v1h-1zM17 31h1v1h-1z"/><path fill="#5BB67B" d="M18 31h1v1h-1z"/><path fill="#49AB71" d="M19 31h1v1h-1z"/><path fill="#45A86E" d="M20 31h1v1h-1zM21 31h1v1h-1zM22 31h1v1h-1zM23 31h1v1h-1zM24 31h1v1h-1zM25 31h1v1h-1z"/><path fill="#6AA782" d="M26 31h1v1h-1z"/><path fill="#9BA69C" d="M27 31h1v1h-1z"/><path fill="#A7A6A3" d="M28 31h1v1h-1zM29 31h1v1h-1zM30 31h1v1h-1zM31 31h1v1h-1zM32 31h1v1h-1zM33 31h1v1h-1z"/><path fill="#B5B4B2" d="M34 31h1v1h-1z"/><path fill="#C0C0BE" d="M35 31h1v1h-1z"/><path fill="#C8C9C7" d="M36 31h1v1h-1z"/><path fill="#D3D4D3" d="M37 31h1v1h-1zM38 31h1v1h-1zM39 31h1v1h-1zM40 31h1v1h-1zM41 31h1v1h-1z"/><path fill="#CECECC" d="M42 31h1v1h-1z"/><path fill="#CBCAC9" d="M43 31h1v1h-1z"/><path fill="#D0D0CF" d="M44 31h1v1h-1z"/><path fill="#D3D4D3" d="M45 31h1v1h-1z"/><path fill="#D2D3D2" d="M46 31h1v1h-1z"/><path fill="#CAC9C8" d="M47 31h1v1h-1z"/><path fill="#C8C7C5" d="M48 31h1v1h-1z"/><path fill="#CECECC" d="M49 31h1v1h-1z"/><path fill="#D3D4D3" d="M50 31h1v1h-1zM51 31h1v1h-1z"/><path fill="#CECECD" d="M52 31h1v1h-1z"/><path fill="#C3C3C1" d="M53 31h1v1h-1z"/><path fill="#B8B7B5" d="M54 31h1v1h-1z"/><path fill="#AAA9A6" d="M55 31h1v1h-1z"/><path fill="#A7A6A3" d="M56 31h1v1h-1zM57 31h1v1h-1zM58 31h1v1h-1z"/><path fill="#A0A09D" d="M59 31h1v1h-1z"/><path fill="#929390" d="M60 31h1v1h-1z"/><path fill="#7E9887" d="M61 31h1v1h-1z"/><path fill="#58A376" d="M62 31h1v1h-1z"/><path fill="#45A86E" d="M63 31h1v1h-1zM64 31h1v1h-1zM65 31h1v1h-1zM66 31h1v1h-1zM67 31h1v1h-1zM68 31h1v1h-1zM69 31h1v1h-1zM70 31h1v1h-1zM71 31h1v1h-1z"/><path fill="#47A96F" d="M72 31h1v1h-1z"/><path fill="#57B379" d="M73 31h1v1h-1z"/><path fill="#64BB80" d="M74 31h1v1h-1z"/><path fill="#68BE83" d="M75 31h1v1h-1z"/><path fill="#5FA975" d="M76 31h1v1h-1z"/><path fill="#3D563E" d="M77 31h1v1h-1z"/><path fill="#231815" d="M78 31h1v1h-1zM79 31h1v1h-1zM80 31h1v1h-1zM81 31h1v1h-1zM82 31h1v1h-1zM83 31h1v1h-1zM8 32h1v1H8zM9 32h1v1H9zM10 32h1v1h-1zM11 32h1v1h-1zM12 32h1v1h-1zM13 32h1v1h-1z"/><path fill="#27221C" d="M14 32h1v1h-1z"/><path fill="#4E805A" d="M15 32h1v1h-1z"/><path fill="#68BE83" d="M16 32h1v1h-1zM17 32h1v1h-1zM18 32h1v1h-1zM19 32h1v1h-1z"/><path fill="#5FB97E" d="M20 32h1v1h-1z"/><path fill="#4EAE73" d="M21 32h1v1h-1z"/><path fill="#45A86E" d="M22 32h1v1h-1zM23 32h1v1h-1zM24 32h1v1h-1zM25 32h1v1h-1zM26 32h1v1h-1zM27 32h1v1h-1z"/><path fill="#5EA87B" d="M28 32h1v1h-1z"/><path fill="#82A78F" d="M29 32h1v1h-1z"/><path fill="#A1A6A0" d="M30 32h1v1h-1z"/><path fill="#A7A6A3" d="M31 32h1v1h-1zM32 32h1v1h-1zM33 32h1v1h-1zM34 32h1v1h-1zM35 32h1v1h-1zM36 32h1v1h-1zM37 32h1v1h-1z"/><path fill="#AFAFAC" d="M38 32h1v1h-1z"/><path fill="#B5B4B2" d="M39 32h1v1h-1z"/><path fill="#BDBDBB" d="M40 32h1v1h-1z"/><path fill="#C0C0BE" d="M41 32h1v1h-1z"/><path fill="#C8C9C7" d="M42 32h1v1h-1zM43 32h1v1h-1zM44 32h1v1h-1zM45 32h1v1h-1zM46 32h1v1h-1zM47 32h1v1h-1z"/><path fill="#C0C0BE" d="M48 32h1v1h-1z"/><path fill="#BDBDBB" d="M49 32h1v1h-1z"/><path fill="#B2B2AF" d="M50 32h1v1h-1z"/><path fill="#ADACA9" d="M51 32h1v1h-1z"/><path fill="#A7A6A3" d="M52 32h1v1h-1zM53 32h1v1h-1zM54 32h1v1h-1zM55 32h1v1h-1zM56 32h1v1h-1zM57 32h1v1h-1z"/><path fill="#A1A6A0" d="M58 32h1v1h-1z"/><path fill="#82A78F" d="M59 32h1v1h-1z"/><path fill="#57A878" d="M60 32h1v1h-1z"/><path fill="#45A86E" d="M61 32h1v1h-1zM62 32h1v1h-1zM63 32h1v1h-1zM64 32h1v1h-1zM65 32h1v1h-1zM66 32h1v1h-1zM67 32h1v1h-1zM68 32h1v1h-1zM69 32h1v1h-1z"/><path fill="#49AB71" d="M70 32h1v1h-1z"/><path fill="#5BB67B" d="M71 32h1v1h-1z"/><path fill="#68BE83" d="M72 32h1v1h-1zM73 32h1v1h-1z"/><path fill="#5FA975" d="M74 32h1v1h-1z"/><path fill="#3D563E" d="M75 32h1v1h-1z"/><path fill="#231815" d="M76 32h1v1h-1zM77 32h1v1h-1zM78 32h1v1h-1zM79 32h1v1h-1zM80 32h1v1h-1zM81 32h1v1h-1zM82 32h1v1h-1zM10 33h1v1h-1zM11 33h1v1h-1zM12 33h1v1h-1zM13 33h1v1h-1zM14 33h1v1h-1zM15 33h1v1h-1z"/><path fill="#2C2D23" d="M16 33h1v1h-1z"/><path fill="#4E805A" d="M17 33h1v1h-1z"/><path fill="#68BE83" d="M18 33h1v1h-1zM19 33h1v1h-1zM20 33h1v1h-1zM21 33h1v1h-1z"/><path fill="#5FB97E" d="M22 33h1v1h-1z"/><path fill="#52B076" d="M23 33h1v1h-1z"/><path fill="#45A86E" d="M24 33h1v1h-1zM25 33h1v1h-1zM26 33h1v1h-1zM27 33h1v1h-1zM28 33h1v1h-1zM29 33h1v1h-1zM30 33h1v1h-1z"/><path fill="#64A77F" d="M31 33h1v1h-1z"/><path fill="#82A78F" d="M32 33h1v1h-1z"/><path fill="#A1A6A0" d="M33 33h1v1h-1z"/><path fill="#A7A6A3" d="M34 33h1v1h-1zM35 33h1v1h-1zM36 33h1v1h-1zM37 33h1v1h-1zM38 33h1v1h-1zM39 33h1v1h-1zM40 33h1v1h-1zM41 33h1v1h-1zM42 33h1v1h-1zM43 33h1v1h-1zM44 33h1v1h-1zM45 33h1v1h-1zM46 33h1v1h-1zM47 33h1v1h-1zM48 33h1v1h-1zM49 33h1v1h-1zM50 33h1v1h-1zM51 33h1v1h-1zM52 33h1v1h-1zM53 33h1v1h-1zM54 33h1v1h-1zM55 33h1v1h-1z"/><path fill="#88A792" d="M56 33h1v1h-1z"/><path fill="#6AA782" d="M57 33h1v1h-1z"/><path fill="#4BA871" d="M58 33h1v1h-1z"/><path fill="#45A86E" d="M59 33h1v1h-1zM60 33h1v1h-1zM61 33h1v1h-1zM62 33h1v1h-1zM63 33h1v1h-1zM64 33h1v1h-1zM65 33h1v1h-1zM66 33h1v1h-1zM67 33h1v1h-1z"/><path fill="#4EAE73" d="M68 33h1v1h-1z"/><path fill="#5FB97E" d="M69 33h1v1h-1z"/><path fill="#68BE83" d="M70 33h1v1h-1zM71 33h1v1h-1z"/><path fill="#64B47C" d="M72 33h1v1h-1z"/><path fill="#416145" d="M73 33h1v1h-1z"/><path fill="#231815" d="M74 33h1v1h-1zM75 33h1v1h-1zM76 33h1v1h-1zM77 33h1v1h-1zM78 33h1v1h-1zM79 33h1v1h-1zM80 33h1v1h-1zM12 34h1v1h-1zM13 34h1v1h-1zM14 34h1v1h-1zM15 34h1v1h-1zM16 34h1v1h-1zM17 34h1v1h-1z"/><path fill="#344231" d="M18 34h1v1h-1z"/><path fill="#579568" d="M19 34h1v1h-1z"/><path fill="#68BE83" d="M20 34h1v1h-1zM21 34h1v1h-1zM22 34h1v1h-1zM23 34h1v1h-1z"/><path fill="#64BB80" d="M24 34h1v1h-1z"/><path fill="#52B076" d="M25 34h1v1h-1z"/><path fill="#45A86E" d="M26 34h1v1h-1zM27 34h1v1h-1zM28 34h1v1h-1zM29 34h1v1h-1zM30 34h1v1h-1zM31 34h1v1h-1zM32 34h1v1h-1zM33 34h1v1h-1z"/><path fill="#57A878" d="M34 34h1v1h-1z"/><path fill="#70A785" d="M35 34h1v1h-1z"/><path fill="#82A78F" d="M36 34h1v1h-1z"/><path fill="#95A699" d="M37 34h1v1h-1z"/><path fill="#A7A6A3" d="M38 34h1v1h-1zM39 34h1v1h-1zM40 34h1v1h-1zM41 34h1v1h-1zM42 34h1v1h-1zM43 34h1v1h-1zM44 34h1v1h-1zM45 34h1v1h-1zM46 34h1v1h-1zM47 34h1v1h-1zM48 34h1v1h-1zM49 34h1v1h-1zM50 34h1v1h-1zM51 34h1v1h-1z"/><path fill="#8FA796" d="M52 34h1v1h-1z"/><path fill="#76A789" d="M53 34h1v1h-1z"/><path fill="#5EA87B" d="M54 34h1v1h-1z"/><path fill="#45A86E" d="M55 34h1v1h-1zM56 34h1v1h-1zM57 34h1v1h-1zM58 34h1v1h-1zM59 34h1v1h-1zM60 34h1v1h-1zM61 34h1v1h-1zM62 34h1v1h-1zM63 34h1v1h-1zM64 34h1v1h-1zM65 34h1v1h-1z"/><path fill="#52B076" d="M66 34h1v1h-1z"/><path fill="#5FB97E" d="M67 34h1v1h-1z"/><path fill="#68BE83" d="M68 34h1v1h-1zM69 34h1v1h-1z"/><path fill="#64B47C" d="M70 34h1v1h-1z"/><path fill="#466B4C" d="M71 34h1v1h-1z"/><path fill="#27221C" d="M72 34h1v1h-1z"/><path fill="#231815" d="M73 34h1v1h-1zM74 34h1v1h-1zM75 34h1v1h-1zM76 34h1v1h-1zM77 34h1v1h-1zM78 34h1v1h-1zM14 35h1v1h-1zM15 35h1v1h-1zM16 35h1v1h-1zM17 35h1v1h-1zM18 35h1v1h-1zM19 35h1v1h-1z"/><path fill="#344231" d="M20 35h1v1h-1z"/><path fill="#5B9F6E" d="M21 35h1v1h-1z"/><path fill="#68BE83" d="M22 35h1v1h-1zM23 35h1v1h-1zM24 35h1v1h-1zM25 35h1v1h-1z"/><path fill="#64BB80" d="M26 35h1v1h-1z"/><path fill="#52B076" d="M27 35h1v1h-1z"/><path fill="#45A86E" d="M28 35h1v1h-1zM29 35h1v1h-1zM30 35h1v1h-1zM31 35h1v1h-1zM32 35h1v1h-1zM33 35h1v1h-1zM34 35h1v1h-1zM35 35h1v1h-1zM36 35h1v1h-1zM37 35h1v1h-1zM38 35h1v1h-1z"/><path fill="#57A878" d="M39 35h1v1h-1z"/><path fill="#5EA87B" d="M40 35h1v1h-1z"/><path fill="#6AA782" d="M41 35h1v1h-1z"/><path fill="#76A789" d="M42 35h1v1h-1zM43 35h1v1h-1zM44 35h1v1h-1zM45 35h1v1h-1zM46 35h1v1h-1zM47 35h1v1h-1z"/><path fill="#6AA782" d="M48 35h1v1h-1z"/><path fill="#5EA87B" d="M49 35h1v1h-1z"/><path fill="#51A875" d="M50 35h1v1h-1z"/><path fill="#45A86E" d="M51 35h1v1h-1zM52 35h1v1h-1zM53 35h1v1h-1zM54 35h1v1h-1zM55 35h1v1h-1zM56 35h1v1h-1zM57 35h1v1h-1zM58 35h1v1h-1zM59 35h1v1h-1zM60 35h1v1h-1zM61 35h1v1h-1zM62 35h1v1h-1zM63 35h1v1h-1z"/><path fill="#52B076" d="M64 35h1v1h-1z"/><path fill="#64BB80" d="M65 35h1v1h-1z"/><path fill="#68BE83" d="M66 35h1v1h-1zM67 35h1v1h-1z"/><path fill="#64B47C" d="M68 35h1v1h-1z"/><path fill="#466B4C" d="M69 35h1v1h-1z"/><path fill="#27221C" d="M70 35h1v1h-1z"/><path fill="#231815" d="M71 35h1v1h-1zM72 35h1v1h-1zM73 35h1v1h-1zM74 35h1v1h-1zM75 35h1v1h-1zM76 35h1v1h-1zM16 36h1v1h-1zM17 36h1v1h-1zM18 36h1v1h-1zM19 36h1v1h-1zM20 36h1v1h-1zM21 36h1v1h-1z"/><path fill="#3D563E" d="M22 36h1v1h-1z"/><path fill="#5FA975" d="M23 36h1v1h-1z"/><path fill="#68BE83" d="M24 36h1v1h-1zM25 36h1v1h-1zM26 36h1v1h-1zM27 36h1v1h-1z"/><path fill="#64BB80" d="M28 36h1v1h-1z"/><path fill="#52B076" d="M29 36h1v1h-1z"/><path fill="#45A86E" d="M30 36h1v1h-1zM31 36h1v1h-1zM32 36h1v1h-1zM33 36h1v1h-1zM34 36h1v1h-1zM35 36h1v1h-1zM36 36h1v1h-1zM37 36h1v1h-1zM38 36h1v1h-1zM39 36h1v1h-1zM40 36h1v1h-1zM41 36h1v1h-1zM42 36h1v1h-1zM43 36h1v1h-1zM44 36h1v1h-1zM45 36h1v1h-1zM46 36h1v1h-1zM47 36h1v1h-1zM48 36h1v1h-1zM49 36h1v1h-1zM50 36h1v1h-1zM51 36h1v1h-1zM52 36h1v1h-1zM53 36h1v1h-1zM54 36h1v1h-1zM55 36h1v1h-1zM56 36h1v1h-1zM57 36h1v1h-1zM58 36h1v1h-1zM59 36h1v1h-1zM60 36h1v1h-1z"/><path fill="#47A96F" d="M61 36h1v1h-1z"/><path fill="#52B076" d="M62 36h1v1h-1z"/><path fill="#64BB80" d="M63 36h1v1h-1z"/><path fill="#68BE83" d="M64 36h1v1h-1zM65 36h1v1h-1z"/><path fill="#64B47C" d="M66 36h1v1h-1z"/><path fill="#466B4C" d="M67 36h1v1h-1z"/><path fill="#27221C" d="M68 36h1v1h-1z"/><path fill="#231815" d="M69 36h1v1h-1zM70 36h1v1h-1zM71 36h1v1h-1zM72 36h1v1h-1zM73 36h1v1h-1zM74 36h1v1h-1zM18 37h1v1h-1zM19 37h1v1h-1zM20 37h1v1h-1zM21 37h1v1h-1zM22 37h1v1h-1zM23 37h1v1h-1z"/><path fill="#3D563E" d="M24 37h1v1h-1z"/><path fill="#5FA975" d="M25 37h1v1h-1z"/><path fill="#68BE83" d="M26 37h1v1h-1zM27 37h1v1h-1zM28 37h1v1h-1zM29 37h1v1h-1z"/><path fill="#64BB80" d="M30 37h1v1h-1z"/><path fill="#52B076" d="M31 37h1v1h-1z"/><path fill="#45A86E" d="M32 37h1v1h-1zM33 37h1v1h-1zM34 37h1v1h-1zM35 37h1v1h-1zM36 37h1v1h-1zM37 37h1v1h-1zM38 37h1v1h-1zM39 37h1v1h-1zM40 37h1v1h-1zM41 37h1v1h-1zM42 37h1v1h-1zM43 37h1v1h-1zM44 37h1v1h-1zM45 37h1v1h-1zM46 37h1v1h-1zM47 37h1v1h-1zM48 37h1v1h-1zM49 37h1v1h-1zM50 37h1v1h-1zM51 37h1v1h-1zM52 37h1v1h-1zM53 37h1v1h-1zM54 37h1v1h-1zM55 37h1v1h-1zM56 37h1v1h-1zM57 37h1v1h-1zM58 37h1v1h-1z"/><path fill="#47A96F" d="M59 37h1v1h-1z"/><path fill="#57B379" d="M60 37h1v1h-1z"/><path fill="#66BD82" d="M61 37h1v1h-1z"/><path fill="#68BE83" d="M62 37h1v1h-1zM63 37h1v1h-1z"/><path fill="#64B47C" d="M64 37h1v1h-1z"/><path fill="#466B4C" d="M65 37h1v1h-1z"/><path fill="#27221C" d="M66 37h1v1h-1z"/><path fill="#231815" d="M67 37h1v1h-1zM68 37h1v1h-1zM69 37h1v1h-1zM70 37h1v1h-1zM71 37h1v1h-1zM72 37h1v1h-1zM19 38h1v1h-1zM20 38h1v1h-1zM21 38h1v1h-1zM22 38h1v1h-1zM23 38h1v1h-1zM24 38h1v1h-1z"/><path fill="#27221C" d="M25 38h1v1h-1z"/><path fill="#466B4C" d="M26 38h1v1h-1z"/><path fill="#64B47C" d="M27 38h1v1h-1z"/><path fill="#68BE83" d="M28 38h1v1h-1zM29 38h1v1h-1zM30 38h1v1h-1zM31 38h1v1h-1z"/><path fill="#64BB80" d="M32 38h1v1h-1z"/><path fill="#52B076" d="M33 38h1v1h-1z"/><path fill="#45A86E" d="M34 38h1v1h-1zM35 38h1v1h-1zM36 38h1v1h-1zM37 38h1v1h-1zM38 38h1v1h-1zM39 38h1v1h-1zM40 38h1v1h-1zM41 38h1v1h-1zM42 38h1v1h-1zM43 38h1v1h-1zM44 38h1v1h-1zM45 38h1v1h-1zM46 38h1v1h-1zM47 38h1v1h-1zM48 38h1v1h-1zM49 38h1v1h-1zM50 38h1v1h-1zM51 38h1v1h-1zM52 38h1v1h-1zM53 38h1v1h-1zM54 38h1v1h-1zM55 38h1v1h-1zM56 38h1v1h-1z"/><path fill="#49AB71" d="M57 38h1v1h-1z"/><path fill="#57B379" d="M58 38h1v1h-1z"/><path fill="#66BD82" d="M59 38h1v1h-1z"/><path fill="#68BE83" d="M60 38h1v1h-1zM61 38h1v1h-1z"/><path fill="#64B47C" d="M62 38h1v1h-1z"/><path fill="#466B4C" d="M63 38h1v1h-1z"/><path fill="#27221C" d="M64 38h1v1h-1z"/><path fill="#231815" d="M65 38h1v1h-1zM66 38h1v1h-1zM67 38h1v1h-1zM68 38h1v1h-1zM69 38h1v1h-1zM70 38h1v1h-1zM21 39h1v1h-1zM22 39h1v1h-1zM23 39h1v1h-1zM24 39h1v1h-1zM25 39h1v1h-1zM26 39h1v1h-1z"/><path fill="#27221C" d="M27 39h1v1h-1z"/><path fill="#466B4C" d="M28 39h1v1h-1z"/><path fill="#64B47C" d="M29 39h1v1h-1z"/><path fill="#68BE83" d="M30 39h1v1h-1zM31 39h1v1h-1zM32 39h1v1h-1zM33 39h1v1h-1z"/><path fill="#64BB80" d="M34 39h1v1h-1z"/><path fill="#52B076" d="M35 39h1v1h-1z"/><path fill="#45A86E" d="M36 39h1v1h-1zM37 39h1v1h-1zM38 39h1v1h-1zM39 39h1v1h-1zM40 39h1v1h-1zM41 39h1v1h-1zM42 39h1v1h-1zM43 39h1v1h-1zM44 39h1v1h-1zM45 39h1v1h-1zM46 39h1v1h-1zM47 39h1v1h-1zM48 39h1v1h-1zM49 39h1v1h-1zM50 39h1v1h-1zM51 39h1v1h-1zM52 39h1v1h-1zM53 39h1v1h-1zM54 39h1v1h-1z"/><path fill="#49AB71" d="M55 39h1v1h-1z"/><path fill="#5BB67B" d="M56 39h1v1h-1z"/><path fill="#68BE83" d="M57 39h1v1h-1zM58 39h1v1h-1zM59 39h1v1h-1z"/><path fill="#64B47C" d="M60 39h1v1h-1z"/><path fill="#466B4C" d="M61 39h1v1h-1z"/><path fill="#27221C" d="M62 39h1v1h-1z"/><path fill="#231815" d="M63 39h1v1h-1zM64 39h1v1h-1zM65 39h1v1h-1zM66 39h1v1h-1zM67 39h1v1h-1zM68 39h1v1h-1zM23 40h1v1h-1zM24 40h1v1h-1zM25 40h1v1h-1zM26 40h1v1h-1zM27 40h1v1h-1zM28 40h1v1h-1z"/><path fill="#27221C" d="M29 40h1v1h-1z"/><path fill="#466B4C" d="M30 40h1v1h-1z"/><path fill="#64B47C" d="M31 40h1v1h-1z"/><path fill="#68BE83" d="M32 40h1v1h-1zM33 40h1v1h-1zM34 40h1v1h-1zM35 40h1v1h-1z"/><path fill="#64BB80" d="M36 40h1v1h-1z"/><path fill="#50AF75" d="M37 40h1v1h-1z"/><path fill="#45A86E" d="M38 40h1v1h-1zM39 40h1v1h-1zM40 40h1v1h-1zM41 40h1v1h-1zM42 40h1v1h-1zM43 40h1v1h-1zM44 40h1v1h-1zM45 40h1v1h-1zM46 40h1v1h-1zM47 40h1v1h-1zM48 40h1v1h-1zM49 40h1v1h-1zM50 40h1v1h-1zM51 40h1v1h-1zM52 40h1v1h-1z"/><path fill="#4EAE73" d="M53 40h1v1h-1z"/><path fill="#5DB77C" d="M54 40h1v1h-1z"/><path fill="#68BE83" d="M55 40h1v1h-1zM56 40h1v1h-1zM57 40h1v1h-1z"/><path fill="#64B47C" d="M58 40h1v1h-1z"/><path fill="#466B4C" d="M59 40h1v1h-1z"/><path fill="#27221C" d="M60 40h1v1h-1z"/><path fill="#231815" d="M61 40h1v1h-1zM62 40h1v1h-1zM63 40h1v1h-1zM64 40h1v1h-1zM65 40h1v1h-1zM66 40h1v1h-1zM25 41h1v1h-1zM26 41h1v1h-1zM27 41h1v1h-1zM28 41h1v1h-1zM29 41h1v1h-1zM30 41h1v1h-1z"/><path fill="#27221C" d="M31 41h1v1h-1z"/><path fill="#4A7553" d="M32 41h1v1h-1z"/><path fill="#68BE83" d="M33 41h1v1h-1zM34 41h1v1h-1zM35 41h1v1h-1zM36 41h1v1h-1zM37 41h1v1h-1z"/><path fill="#5FB97E" d="M38 41h1v1h-1z"/><path fill="#4EAE73" d="M39 41h1v1h-1z"/><path fill="#45A86E" d="M40 41h1v1h-1zM41 41h1v1h-1zM42 41h1v1h-1zM43 41h1v1h-1zM44 41h1v1h-1zM45 41h1v1h-1zM46 41h1v1h-1zM47 41h1v1h-1zM48 41h1v1h-1zM49 41h1v1h-1zM50 41h1v1h-1z"/><path fill="#52B076" d="M51 41h1v1h-1z"/><path fill="#61BA7F" d="M52 41h1v1h-1z"/><path fill="#68BE83" d="M53 41h1v1h-1zM54 41h1v1h-1zM55 41h1v1h-1z"/><path fill="#64B47C" d="M56 41h1v1h-1z"/><path fill="#466B4C" d="M57 41h1v1h-1z"/><path fill="#27221C" d="M58 41h1v1h-1z"/><path fill="#231815" d="M59 41h1v1h-1zM60 41h1v1h-1zM61 41h1v1h-1zM62 41h1v1h-1zM63 41h1v1h-1zM64 41h1v1h-1zM27 42h1v1h-1zM28 42h1v1h-1zM29 42h1v1h-1zM30 42h1v1h-1zM31 42h1v1h-1zM32 42h1v1h-1z"/><path fill="#2C2D23" d="M33 42h1v1h-1z"/><path fill="#4E805A" d="M34 42h1v1h-1z"/><path fill="#68BE83" d="M35 42h1v1h-1zM36 42h1v1h-1zM37 42h1v1h-1zM38 42h1v1h-1zM39 42h1v1h-1z"/><path fill="#5FB97E" d="M40 42h1v1h-1z"/><path fill="#4EAE73" d="M41 42h1v1h-1z"/><path fill="#45A86E" d="M42 42h1v1h-1zM43 42h1v1h-1zM44 42h1v1h-1zM45 42h1v1h-1zM46 42h1v1h-1zM47 42h1v1h-1z"/><path fill="#49AB71" d="M48 42h1v1h-1z"/><path fill="#57B379" d="M49 42h1v1h-1z"/><path fill="#66BD82" d="M50 42h1v1h-1z"/><path fill="#68BE83" d="M51 42h1v1h-1zM52 42h1v1h-1zM53 42h1v1h-1z"/><path fill="#5FA975" d="M54 42h1v1h-1z"/><path fill="#3D563E" d="M55 42h1v1h-1z"/><path fill="#231815" d="M56 42h1v1h-1zM57 42h1v1h-1zM58 42h1v1h-1zM59 42h1v1h-1zM60 42h1v1h-1zM61 42h1v1h-1zM62 42h1v1h-1zM29 43h1v1h-1zM30 43h1v1h-1zM31 43h1v1h-1zM32 43h1v1h-1zM33 43h1v1h-1zM34 43h1v1h-1z"/><path fill="#2C2D23" d="M35 43h1v1h-1z"/><path fill="#4E805A" d="M36 43h1v1h-1z"/><path fill="#68BE83" d="M37 43h1v1h-1zM38 43h1v1h-1zM39 43h1v1h-1zM40 43h1v1h-1zM41 43h1v1h-1z"/><path fill="#5FB97E" d="M42 43h1v1h-1z"/><path fill="#4CAC72" d="M43 43h1v1h-1z"/><path fill="#45A86E" d="M44 43h1v1h-1zM45 43h1v1h-1z"/><path fill="#52B076" d="M46 43h1v1h-1z"/><path fill="#5DB77C" d="M47 43h1v1h-1z"/><path fill="#68BE83" d="M48 43h1v1h-1zM49 43h1v1h-1zM50 43h1v1h-1zM51 43h1v1h-1z"/><path fill="#5FA975" d="M52 43h1v1h-1z"/><path fill="#3D563E" d="M53 43h1v1h-1z"/><path fill="#231815" d="M54 43h1v1h-1zM55 43h1v1h-1zM56 43h1v1h-1zM57 43h1v1h-1zM58 43h1v1h-1zM59 43h1v1h-1zM60 43h1v1h-1zM31 44h1v1h-1zM32 44h1v1h-1zM33 44h1v1h-1zM34 44h1v1h-1zM35 44h1v1h-1zM36 44h1v1h-1z"/><path fill="#27221C" d="M37 44h1v1h-1z"/><path fill="#466B4C" d="M38 44h1v1h-1z"/><path fill="#64B47C" d="M39 44h1v1h-1z"/><path fill="#68BE83" d="M40 44h1v1h-1zM41 44h1v1h-1zM42 44h1v1h-1zM43 44h1v1h-1z"/><path fill="#5FB97E" d="M44 44h1v1h-1z"/><path fill="#66BD82" d="M45 44h1v1h-1z"/><path fill="#68BE83" d="M46 44h1v1h-1zM47 44h1v1h-1zM48 44h1v1h-1zM49 44h1v1h-1z"/><path fill="#579568" d="M50 44h1v1h-1z"/><path fill="#344231" d="M51 44h1v1h-1z"/><path fill="#231815" d="M52 44h1v1h-1zM53 44h1v1h-1zM54 44h1v1h-1zM55 44h1v1h-1zM56 44h1v1h-1zM57 44h1v1h-1zM58 44h1v1h-1zM33 45h1v1h-1zM34 45h1v1h-1zM35 45h1v1h-1zM36 45h1v1h-1zM37 45h1v1h-1zM38 45h1v1h-1z"/><path fill="#27221C" d="M39 45h1v1h-1z"/><path fill="#466B4C" d="M40 45h1v1h-1z"/><path fill="#5FA975" d="M41 45h1v1h-1z"/><path fill="#68BE83" d="M42 45h1v1h-1zM43 45h1v1h-1zM44 45h1v1h-1zM45 45h1v1h-1zM46 45h1v1h-1z"/><path fill="#64B47C" d="M47 45h1v1h-1z"/><path fill="#4E805A" d="M48 45h1v1h-1z"/><path fill="#2C2D23" d="M49 45h1v1h-1z"/><path fill="#231815" d="M50 45h1v1h-1zM51 45h1v1h-1zM52 45h1v1h-1zM53 45h1v1h-1zM54 45h1v1h-1zM55 45h1v1h-1zM56 45h1v1h-1zM35 46h1v1h-1zM36 46h1v1h-1zM37 46h1v1h-1zM38 46h1v1h-1zM39 46h1v1h-1zM40 46h1v1h-1zM41 46h1v1h-1z"/><path fill="#3D563E" d="M42 46h1v1h-1z"/><path fill="#528A61" d="M43 46h1v1h-1z"/><path fill="#68BE83" d="M44 46h1v1h-1z"/><path fill="#528A61" d="M45 46h1v1h-1z"/><path fill="#3D563E" d="M46 46h1v1h-1z"/><path fill="#27221C" d="M47 46h1v1h-1z"/><path fill="#231815" d="M48 46h1v1h-1zM49 46h1v1h-1zM50 46h1v1h-1zM51 46h1v1h-1zM52 46h1v1h-1zM53 46h1v1h-1zM54 46h1v1h-1zM37 47h1v1h-1zM38 47h1v1h-1zM39 47h1v1h-1zM40 47h1v1h-1zM41 47h1v1h-1zM42 47h1v1h-1zM43 47h1v1h-1zM44 47h1v1h-1zM45 47h1v1h-1zM46 47h1v1h-1zM47 47h1v1h-1zM48 47h1v1h-1zM49 47h1v1h-1zM50 47h1v1h-1zM51 47h1v1h-1zM39 48h1v1h-1zM40 48h1v1h-1zM41 48h1v1h-1zM42 48h1v1h-1zM43 48h1v1h-1zM44 48h1v1h-1zM45 48h1v1h-1zM46 48h1v1h-1zM47 48h1v1h-1zM48 48h1v1h-1zM49 48h1v1h-1zM41 49h1v1h-1zM42 49h1v1h-1zM43 49h1v1h-1zM44 49h1v1h-1zM45 49h1v1h-1zM46 49h1v1h-1zM47 49h1v1h-1z"/></svg>