<svg baseProfile="full" height="90" width="80" xmlns="http://www.w3.org/2000/svg"><path fill="#231815" d="M40 0h1v1h-1zM41 0h1v1h-1zM42 0h1v1h-1zM43 0h1v1h-1zM39 1h1v1h-1zM40 1h1v1h-1zM41 1h1v1h-1zM42 1h1v1h-1zM43 1h1v1h-1zM44 1h1v1h-1zM45 1h1v1h-1zM39 2h1v1h-1zM40 2h1v1h-1zM41 2h1v1h-1zM42 2h1v1h-1zM43 2h1v1h-1zM44 2h1v1h-1zM45 2h1v1h-1zM46 2h1v1h-1zM39 3h1v1h-1zM40 3h1v1h-1zM41 3h1v1h-1zM42 3h1v1h-1zM43 3h1v1h-1zM44 3h1v1h-1zM45 3h1v1h-1zM46 3h1v1h-1zM47 3h1v1h-1zM48 3h1v1h-1zM39 4h1v1h-1zM40 4h1v1h-1zM41 4h1v1h-1zM42 4h1v1h-1z"/><path fill="#2A201D" d="M43 4h1v1h-1z"/><path fill="#231815" d="M44 4h1v1h-1zM45 4h1v1h-1zM46 4h1v1h-1zM47 4h1v1h-1zM48 4h1v1h-1zM49 4h1v1h-1zM50 4h1v1h-1zM39 5h1v1h-1zM40 5h1v1h-1zM41 5h1v1h-1zM42 5h1v1h-1z"/><path fill="#8A8A87" d="M43 5h1v1h-1z"/><path fill="#4C4643" d="M44 5h1v1h-1z"/><path fill="#231815" d="M45 5h1v1h-1zM46 5h1v1h-1zM47 5h1v1h-1zM48 5h1v1h-1zM49 5h1v1h-1zM50 5h1v1h-1zM51 5h1v1h-1zM39 6h1v1h-1zM40 6h1v1h-1zM41 6h1v1h-1zM42 6h1v1h-1z"/><path fill="#91928F" d="M43 6h1v1h-1zM44 6h1v1h-1z"/><path fill="#7C7B78" d="M45 6h1v1h-1z"/><path fill="#3F3734" d="M46 6h1v1h-1z"/><path fill="#231815" d="M47 6h1v1h-1zM48 6h1v1h-1zM49 6h1v1h-1zM50 6h1v1h-1zM51 6h1v1h-1zM52 6h1v1h-1zM53 6h1v1h-1zM39 7h1v1h-1zM40 7h1v1h-1zM41 7h1v1h-1zM42 7h1v1h-1z"/><path fill="#91928F" d="M43 7h1v1h-1zM44 7h1v1h-1zM45 7h1v1h-1zM46 7h1v1h-1z"/><path fill="#686461" d="M47 7h1v1h-1z"/><path fill="#2A201D" d="M48 7h1v1h-1z"/><path fill="#231815" d="M49 7h1v1h-1zM50 7h1v1h-1zM51 7h1v1h-1zM52 7h1v1h-1zM53 7h1v1h-1zM54 7h1v1h-1zM55 7h1v1h-1zM39 8h1v1h-1zM40 8h1v1h-1zM41 8h1v1h-1zM42 8h1v1h-1z"/><path fill="#91928F" d="M43 8h1v1h-1zM44 8h1v1h-1zM45 8h1v1h-1zM46 8h1v1h-1zM47 8h1v1h-1z"/><path fill="#8A8A87" d="M48 8h1v1h-1z"/><path fill="#534D4A" d="M49 8h1v1h-1z"/><path fill="#231815" d="M50 8h1v1h-1zM51 8h1v1h-1zM52 8h1v1h-1zM53 8h1v1h-1zM54 8h1v1h-1zM55 8h1v1h-1zM56 8h1v1h-1zM39 9h1v1h-1zM40 9h1v1h-1zM41 9h1v1h-1zM42 9h1v1h-1z"/><path fill="#91928F" d="M43 9h1v1h-1zM44 9h1v1h-1zM45 9h1v1h-1zM46 9h1v1h-1zM47 9h1v1h-1zM48 9h1v1h-1zM49 9h1v1h-1z"/><path fill="#838380" d="M50 9h1v1h-1z"/><path fill="#3F3734" d="M51 9h1v1h-1z"/><path fill="#231815" d="M52 9h1v1h-1zM53 9h1v1h-1zM54 9h1v1h-1zM55 9h1v1h-1zM56 9h1v1h-1zM57 9h1v1h-1zM58 9h1v1h-1zM39 10h1v1h-1zM40 10h1v1h-1zM41 10h1v1h-1z"/><path fill="#261C19" d="M42 10h1v1h-1z"/><path fill="#5F5B56" d="M43 10h1v1h-1z"/><path fill="#83827F" d="M44 10h1v1h-1z"/><path fill="#91928F" d="M45 10h1v1h-1zM46 10h1v1h-1zM47 10h1v1h-1zM48 10h1v1h-1zM49 10h1v1h-1zM50 10h1v1h-1zM51 10h1v1h-1z"/><path fill="#6F6C69" d="M52 10h1v1h-1z"/><path fill="#312724" d="M53 10h1v1h-1z"/><path fill="#231815" d="M54 10h1v1h-1zM55 10h1v1h-1zM56 10h1v1h-1zM57 10h1v1h-1zM58 10h1v1h-1zM59 10h1v1h-1zM60 10h1v1h-1zM39 11h1v1h-1zM40 11h1v1h-1zM41 11h1v1h-1z"/><path fill="#302723" d="M42 11h1v1h-1z"/><path fill="#58534E" d="M43 11h1v1h-1zM44 11h1v1h-1z"/><path fill="#66635E" d="M45 11h1v1h-1z"/><path fill="#8A8A87" d="M46 11h1v1h-1z"/><path fill="#91928F" d="M47 11h1v1h-1zM48 11h1v1h-1zM49 11h1v1h-1zM50 11h1v1h-1zM51 11h1v1h-1zM52 11h1v1h-1z"/><path fill="#8A8A87" d="M53 11h1v1h-1z"/><path fill="#5A5552" d="M54 11h1v1h-1z"/><path fill="#2A201D" d="M55 11h1v1h-1z"/><path fill="#231815" d="M56 11h1v1h-1zM57 11h1v1h-1zM58 11h1v1h-1zM59 11h1v1h-1zM60 11h1v1h-1zM61 11h1v1h-1zM62 11h1v1h-1zM39 12h1v1h-1zM40 12h1v1h-1zM41 12h1v1h-1z"/><path fill="#342B27" d="M42 12h1v1h-1z"/><path fill="#58534E" d="M43 12h1v1h-1zM44 12h1v1h-1zM45 12h1v1h-1zM46 12h1v1h-1z"/><path fill="#75736F" d="M47 12h1v1h-1z"/><path fill="#8D8E8B" d="M48 12h1v1h-1z"/><path fill="#91928F" d="M49 12h1v1h-1zM50 12h1v1h-1zM51 12h1v1h-1zM52 12h1v1h-1zM53 12h1v1h-1zM54 12h1v1h-1z"/><path fill="#838380" d="M55 12h1v1h-1z"/><path fill="#453E3B" d="M56 12h1v1h-1z"/><path fill="#231815" d="M57 12h1v1h-1zM58 12h1v1h-1zM59 12h1v1h-1zM60 12h1v1h-1zM61 12h1v1h-1zM62 12h1v1h-1zM63 12h1v1h-1zM39 13h1v1h-1zM40 13h1v1h-1zM41 13h1v1h-1z"/><path fill="#3F3734" d="M42 13h1v1h-1z"/><path fill="#868683" d="M43 13h1v1h-1z"/><path fill="#66635E" d="M44 13h1v1h-1z"/><path fill="#58534E" d="M45 13h1v1h-1zM46 13h1v1h-1zM47 13h1v1h-1z"/><path fill="#5C5752" d="M48 13h1v1h-1z"/><path fill="#7C7A77" d="M49 13h1v1h-1z"/><path fill="#91928F" d="M50 13h1v1h-1zM51 13h1v1h-1zM52 13h1v1h-1zM53 13h1v1h-1zM54 13h1v1h-1zM55 13h1v1h-1zM56 13h1v1h-1z"/><path fill="#767471" d="M57 13h1v1h-1z"/><path fill="#312724" d="M58 13h1v1h-1z"/><path fill="#231815" d="M59 13h1v1h-1zM60 13h1v1h-1zM61 13h1v1h-1zM62 13h1v1h-1zM63 13h1v1h-1zM64 13h1v1h-1zM65 13h1v1h-1zM39 14h1v1h-1zM40 14h1v1h-1zM41 14h1v1h-1z"/><path fill="#3F3734" d="M42 14h1v1h-1z"/><path fill="#91928F" d="M43 14h1v1h-1zM44 14h1v1h-1z"/><path fill="#7C7A77" d="M45 14h1v1h-1z"/><path fill="#5C5752" d="M46 14h1v1h-1z"/><path fill="#58534E" d="M47 14h1v1h-1zM48 14h1v1h-1zM49 14h1v1h-1z"/><path fill="#66635E" d="M50 14h1v1h-1z"/><path fill="#83827F" d="M51 14h1v1h-1z"/><path fill="#91928F" d="M52 14h1v1h-1zM53 14h1v1h-1zM54 14h1v1h-1zM55 14h1v1h-1zM56 14h1v1h-1zM57 14h1v1h-1zM58 14h1v1h-1z"/><path fill="#615D5A" d="M59 14h1v1h-1z"/><path fill="#2A201D" d="M60 14h1v1h-1z"/><path fill="#231815" d="M61 14h1v1h-1zM62 14h1v1h-1zM63 14h1v1h-1zM64 14h1v1h-1zM65 14h1v1h-1zM66 14h1v1h-1zM67 14h1v1h-1zM39 15h1v1h-1zM40 15h1v1h-1zM41 15h1v1h-1z"/><path fill="#3F3734" d="M42 15h1v1h-1z"/><path fill="#91928F" d="M43 15h1v1h-1zM44 15h1v1h-1zM45 15h1v1h-1z"/><path fill="#8D8E8B" d="M46 15h1v1h-1z"/><path fill="#716F6A" d="M47 15h1v1h-1z"/><path fill="#58534E" d="M48 15h1v1h-1zM49 15h1v1h-1zM50 15h1v1h-1zM51 15h1v1h-1z"/><path fill="#6D6B66" d="M52 15h1v1h-1z"/><path fill="#8D8E8B" d="M53 15h1v1h-1z"/><path fill="#91928F" d="M54 15h1v1h-1zM55 15h1v1h-1zM56 15h1v1h-1zM57 15h1v1h-1zM58 15h1v1h-1zM59 15h1v1h-1z"/><path fill="#8A8A87" d="M60 15h1v1h-1z"/><path fill="#4C4643" d="M61 15h1v1h-1z"/><path fill="#231815" d="M62 15h1v1h-1zM63 15h1v1h-1zM64 15h1v1h-1zM65 15h1v1h-1zM66 15h1v1h-1zM67 15h1v1h-1zM68 15h1v1h-1zM39 16h1v1h-1zM40 16h1v1h-1zM41 16h1v1h-1z"/><path fill="#3F3734" d="M42 16h1v1h-1z"/><path fill="#91928F" d="M43 16h1v1h-1zM44 16h1v1h-1zM45 16h1v1h-1zM46 16h1v1h-1zM47 16h1v1h-1z"/><path fill="#8A8A87" d="M48 16h1v1h-1z"/><path fill="#66635E" d="M49 16h1v1h-1z"/><path fill="#58534E" d="M50 16h1v1h-1zM51 16h1v1h-1zM52 16h1v1h-1z"/><path fill="#5C5752" d="M53 16h1v1h-1z"/><path fill="#75736F" d="M54 16h1v1h-1z"/><path fill="#91928F" d="M55 16h1v1h-1zM56 16h1v1h-1zM57 16h1v1h-1zM58 16h1v1h-1zM59 16h1v1h-1zM60 16h1v1h-1zM61 16h1v1h-1z"/><path fill="#767471" d="M62 16h1v1h-1z"/><path fill="#382F2C" d="M63 16h1v1h-1z"/><path fill="#231815" d="M64 16h1v1h-1zM65 16h1v1h-1zM66 16h1v1h-1zM67 16h1v1h-1zM68 16h1v1h-1zM69 16h1v1h-1zM70 16h1v1h-1zM39 17h1v1h-1zM40 17h1v1h-1zM41 17h1v1h-1z"/><path fill="#4C4643" d="M42 17h1v1h-1z"/><path fill="#91928F" d="M43 17h1v1h-1zM44 17h1v1h-1zM45 17h1v1h-1zM46 17h1v1h-1zM47 17h1v1h-1zM48 17h1v1h-1zM49 17h1v1h-1z"/><path fill="#7F7E7B" d="M50 17h1v1h-1z"/><path fill="#5F5B56" d="M51 17h1v1h-1z"/><path fill="#58534E" d="M52 17h1v1h-1zM53 17h1v1h-1zM54 17h1v1h-1z"/><path fill="#5F5B56" d="M55 17h1v1h-1z"/><path fill="#83827F" d="M56 17h1v1h-1z"/><path fill="#91928F" d="M57 17h1v1h-1zM58 17h1v1h-1zM59 17h1v1h-1zM60 17h1v1h-1zM61 17h1v1h-1zM62 17h1v1h-1zM63 17h1v1h-1z"/><path fill="#686461" d="M64 17h1v1h-1z"/><path fill="#2A201D" d="M65 17h1v1h-1z"/><path fill="#231815" d="M66 17h1v1h-1zM67 17h1v1h-1zM68 17h1v1h-1zM69 17h1v1h-1zM70 17h1v1h-1zM71 17h1v1h-1zM72 17h1v1h-1zM39 18h1v1h-1zM40 18h1v1h-1zM41 18h1v1h-1z"/><path fill="#5A5552" d="M42 18h1v1h-1z"/><path fill="#91928F" d="M43 18h1v1h-1zM44 18h1v1h-1zM45 18h1v1h-1zM46 18h1v1h-1zM47 18h1v1h-1zM48 18h1v1h-1zM49 18h1v1h-1zM50 18h1v1h-1z"/><path fill="#8D8E8B" d="M51 18h1v1h-1z"/><path fill="#75736F" d="M52 18h1v1h-1z"/><path fill="#58534E" d="M53 18h1v1h-1zM54 18h1v1h-1zM55 18h1v1h-1zM56 18h1v1h-1z"/><path fill="#6A6762" d="M57 18h1v1h-1z"/><path fill="#8A8A87" d="M58 18h1v1h-1z"/><path fill="#91928F" d="M59 18h1v1h-1zM60 18h1v1h-1zM61 18h1v1h-1zM62 18h1v1h-1zM63 18h1v1h-1zM64 18h1v1h-1z"/><path fill="#8A8A87" d="M65 18h1v1h-1z"/><path fill="#534D4A" d="M66 18h1v1h-1z"/><path fill="#231815" d="M67 18h1v1h-1zM68 18h1v1h-1zM69 18h1v1h-1zM70 18h1v1h-1zM71 18h1v1h-1zM72 18h1v1h-1zM73 18h1v1h-1zM39 19h1v1h-1zM40 19h1v1h-1zM41 19h1v1h-1z"/><path fill="#3E3632" d="M42 19h1v1h-1z"/><path fill="#716F6A" d="M43 19h1v1h-1z"/><path fill="#8D8E8B" d="M44 19h1v1h-1z"/><path fill="#91928F" d="M45 19h1v1h-1zM46 19h1v1h-1zM47 19h1v1h-1zM48 19h1v1h-1zM49 19h1v1h-1zM50 19h1v1h-1zM51 19h1v1h-1zM52 19h1v1h-1z"/><path fill="#8A8A87" d="M53 19h1v1h-1z"/><path fill="#66635E" d="M54 19h1v1h-1z"/><path fill="#58534E" d="M55 19h1v1h-1zM56 19h1v1h-1zM57 19h1v1h-1zM58 19h1v1h-1z"/><path fill="#75736F" d="M59 19h1v1h-1z"/><path fill="#8D8E8B" d="M60 19h1v1h-1z"/><path fill="#91928F" d="M61 19h1v1h-1zM62 19h1v1h-1zM63 19h1v1h-1zM64 19h1v1h-1zM65 19h1v1h-1zM66 19h1v1h-1z"/><path fill="#7C7B78" d="M67 19h1v1h-1z"/><path fill="#3F3734" d="M68 19h1v1h-1z"/><path fill="#231815" d="M69 19h1v1h-1zM70 19h1v1h-1zM71 19h1v1h-1zM72 19h1v1h-1zM73 19h1v1h-1zM74 19h1v1h-1zM75 19h1v1h-1zM39 20h1v1h-1zM40 20h1v1h-1zM41 20h1v1h-1z"/><path fill="#3E3632" d="M42 20h1v1h-1z"/><path fill="#58534E" d="M43 20h1v1h-1z"/><path fill="#5C5752" d="M44 20h1v1h-1z"/><path fill="#787673" d="M45 20h1v1h-1z"/><path fill="#91928F" d="M46 20h1v1h-1zM47 20h1v1h-1zM48 20h1v1h-1zM49 20h1v1h-1zM50 20h1v1h-1zM51 20h1v1h-1zM52 20h1v1h-1zM53 20h1v1h-1zM54 20h1v1h-1z"/><path fill="#83827F" d="M55 20h1v1h-1z"/><path fill="#5F5B56" d="M56 20h1v1h-1z"/><path fill="#58534E" d="M57 20h1v1h-1zM58 20h1v1h-1zM59 20h1v1h-1z"/><path fill="#5F5B56" d="M60 20h1v1h-1z"/><path fill="#7C7A77" d="M61 20h1v1h-1z"/><path fill="#91928F" d="M62 20h1v1h-1zM63 20h1v1h-1zM64 20h1v1h-1zM65 20h1v1h-1zM66 20h1v1h-1zM67 20h1v1h-1zM68 20h1v1h-1z"/><path fill="#6F6C69" d="M69 20h1v1h-1z"/><path fill="#312724" d="M70 20h1v1h-1z"/><path fill="#231815" d="M71 20h1v1h-1zM72 20h1v1h-1zM73 20h1v1h-1zM74 20h1v1h-1zM75 20h1v1h-1zM76 20h1v1h-1zM77 20h1v1h-1zM39 21h1v1h-1zM40 21h1v1h-1zM41 21h1v1h-1z"/><path fill="#3E3632" d="M42 21h1v1h-1z"/><path fill="#58534E" d="M43 21h1v1h-1zM44 21h1v1h-1zM45 21h1v1h-1z"/><path fill="#635F5A" d="M46 21h1v1h-1z"/><path fill="#83827F" d="M47 21h1v1h-1z"/><path fill="#91928F" d="M48 21h1v1h-1zM49 21h1v1h-1zM50 21h1v1h-1zM51 21h1v1h-1zM52 21h1v1h-1zM53 21h1v1h-1zM54 21h1v1h-1zM55 21h1v1h-1zM56 21h1v1h-1z"/><path fill="#75736F" d="M57 21h1v1h-1z"/><path fill="#5C5752" d="M58 21h1v1h-1z"/><path fill="#58534E" d="M59 21h1v1h-1zM60 21h1v1h-1zM61 21h1v1h-1z"/><path fill="#66635E" d="M62 21h1v1h-1z"/><path fill="#868683" d="M63 21h1v1h-1z"/><path fill="#91928F" d="M64 21h1v1h-1zM65 21h1v1h-1zM66 21h1v1h-1zM67 21h1v1h-1zM68 21h1v1h-1zM69 21h1v1h-1z"/><path fill="#8A8A87" d="M70 21h1v1h-1z"/><path fill="#5A5552" d="M71 21h1v1h-1z"/><path fill="#231815" d="M72 21h1v1h-1zM73 21h1v1h-1zM74 21h1v1h-1zM75 21h1v1h-1zM76 21h1v1h-1zM77 21h1v1h-1zM78 21h1v1h-1zM39 22h1v1h-1zM40 22h1v1h-1zM41 22h1v1h-1z"/><path fill="#3E3632" d="M42 22h1v1h-1z"/><path fill="#58534E" d="M43 22h1v1h-1zM44 22h1v1h-1zM45 22h1v1h-1zM46 22h1v1h-1zM47 22h1v1h-1z"/><path fill="#6D6B66" d="M48 22h1v1h-1z"/><path fill="#8D8E8B" d="M49 22h1v1h-1z"/><path fill="#91928F" d="M50 22h1v1h-1zM51 22h1v1h-1zM52 22h1v1h-1zM53 22h1v1h-1zM54 22h1v1h-1zM55 22h1v1h-1zM56 22h1v1h-1zM57 22h1v1h-1z"/><path fill="#8A8A87" d="M58 22h1v1h-1z"/><path fill="#6A6762" d="M59 22h1v1h-1z"/><path fill="#58534E" d="M60 22h1v1h-1zM61 22h1v1h-1zM62 22h1v1h-1zM63 22h1v1h-1z"/><path fill="#6D6B66" d="M64 22h1v1h-1z"/><path fill="#8D8E8B" d="M65 22h1v1h-1z"/><path fill="#91928F" d="M66 22h1v1h-1zM67 22h1v1h-1zM68 22h1v1h-1zM69 22h1v1h-1zM70 22h1v1h-1zM71 22h1v1h-1z"/><path fill="#838380" d="M72 22h1v1h-1z"/><path fill="#3F3734" d="M73 22h1v1h-1z"/><path fill="#231815" d="M74 22h1v1h-1zM75 22h1v1h-1zM76 22h1v1h-1zM77 22h1v1h-1zM78 22h1v1h-1zM79 22h1v1h-1zM39 23h1v1h-1zM40 23h1v1h-1zM41 23h1v1h-1z"/><path fill="#3E3632" d="M42 23h1v1h-1z"/><path fill="#58534E" d="M43 23h1v1h-1zM44 23h1v1h-1zM45 23h1v1h-1zM46 23h1v1h-1zM47 23h1v1h-1zM48 23h1v1h-1z"/><path fill="#5C5752" d="M49 23h1v1h-1z"/><path fill="#75736F" d="M50 23h1v1h-1z"/><path fill="#91928F" d="M51 23h1v1h-1zM52 23h1v1h-1zM53 23h1v1h-1zM54 23h1v1h-1zM55 23h1v1h-1zM56 23h1v1h-1zM57 23h1v1h-1zM58 23h1v1h-1zM59 23h1v1h-1z"/><path fill="#83827F" d="M60 23h1v1h-1z"/><path fill="#5F5B56" d="M61 23h1v1h-1z"/><path fill="#58534E" d="M62 23h1v1h-1zM63 23h1v1h-1zM64 23h1v1h-1z"/><path fill="#5C5752" d="M65 23h1v1h-1z"/><path fill="#787673" d="M66 23h1v1h-1z"/><path fill="#91928F" d="M67 23h1v1h-1zM68 23h1v1h-1zM69 23h1v1h-1zM70 23h1v1h-1zM71 23h1v1h-1zM72 23h1v1h-1zM73 23h1v1h-1z"/><path fill="#767471" d="M74 23h1v1h-1z"/><path fill="#312724" d="M75 23h1v1h-1z"/><path fill="#231815" d="M76 23h1v1h-1zM77 23h1v1h-1zM78 23h1v1h-1zM79 23h1v1h-1zM38 24h1v1h-1zM39 24h1v1h-1zM40 24h1v1h-1zM41 24h1v1h-1z"/><path fill="#47413C" d="M42 24h1v1h-1z"/><path fill="#58534E" d="M43 24h1v1h-1zM44 24h1v1h-1zM45 24h1v1h-1zM46 24h1v1h-1zM47 24h1v1h-1zM48 24h1v1h-1zM49 24h1v1h-1zM50 24h1v1h-1z"/><path fill="#5F5B56" d="M51 24h1v1h-1z"/><path fill="#83827F" d="M52 24h1v1h-1z"/><path fill="#91928F" d="M53 24h1v1h-1zM54 24h1v1h-1zM55 24h1v1h-1zM56 24h1v1h-1zM57 24h1v1h-1zM58 24h1v1h-1zM59 24h1v1h-1zM60 24h1v1h-1zM61 24h1v1h-1z"/><path fill="#787673" d="M62 24h1v1h-1z"/><path fill="#5C5752" d="M63 24h1v1h-1z"/><path fill="#58534E" d="M64 24h1v1h-1zM65 24h1v1h-1zM66 24h1v1h-1z"/><path fill="#5F5B56" d="M67 24h1v1h-1z"/><path fill="#83827F" d="M68 24h1v1h-1z"/><path fill="#91928F" d="M69 24h1v1h-1zM70 24h1v1h-1zM71 24h1v1h-1zM72 24h1v1h-1zM73 24h1v1h-1zM74 24h1v1h-1zM75 24h1v1h-1z"/><path fill="#231815" d="M76 24h1v1h-1zM77 24h1v1h-1zM78 24h1v1h-1zM79 24h1v1h-1zM38 25h1v1h-1zM39 25h1v1h-1zM40 25h1v1h-1zM41 25h1v1h-1z"/><path fill="#514C47" d="M42 25h1v1h-1z"/><path fill="#58534E" d="M43 25h1v1h-1zM44 25h1v1h-1zM45 25h1v1h-1zM46 25h1v1h-1zM47 25h1v1h-1zM48 25h1v1h-1zM49 25h1v1h-1zM50 25h1v1h-1zM51 25h1v1h-1zM52 25h1v1h-1z"/><path fill="#6A6762" d="M53 25h1v1h-1z"/><path fill="#8A8A87" d="M54 25h1v1h-1z"/><path fill="#91928F" d="M55 25h1v1h-1zM56 25h1v1h-1zM57 25h1v1h-1zM58 25h1v1h-1zM59 25h1v1h-1zM60 25h1v1h-1zM61 25h1v1h-1zM62 25h1v1h-1z"/><path fill="#8D8E8B" d="M63 25h1v1h-1z"/><path fill="#6D6B66" d="M64 25h1v1h-1z"/><path fill="#58534E" d="M65 25h1v1h-1zM66 25h1v1h-1zM67 25h1v1h-1zM68 25h1v1h-1z"/><path fill="#6A6762" d="M69 25h1v1h-1z"/><path fill="#8A8A87" d="M70 25h1v1h-1z"/><path fill="#91928F" d="M71 25h1v1h-1zM72 25h1v1h-1zM73 25h1v1h-1zM74 25h1v1h-1zM75 25h1v1h-1z"/><path fill="#231815" d="M76 25h1v1h-1zM77 25h1v1h-1zM78 25h1v1h-1zM79 25h1v1h-1zM37 26h1v1h-1zM38 26h1v1h-1zM39 26h1v1h-1zM40 26h1v1h-1z"/><path fill="#2D2320" d="M41 26h1v1h-1z"/><path fill="#58534E" d="M42 26h1v1h-1zM43 26h1v1h-1zM44 26h1v1h-1zM45 26h1v1h-1zM46 26h1v1h-1zM47 26h1v1h-1zM48 26h1v1h-1zM49 26h1v1h-1zM50 26h1v1h-1zM51 26h1v1h-1zM52 26h1v1h-1zM53 26h1v1h-1z"/><path fill="#5C5752" d="M54 26h1v1h-1z"/><path fill="#75736F" d="M55 26h1v1h-1z"/><path fill="#8D8E8B" d="M56 26h1v1h-1z"/><path fill="#91928F" d="M57 26h1v1h-1zM58 26h1v1h-1zM59 26h1v1h-1zM60 26h1v1h-1zM61 26h1v1h-1zM62 26h1v1h-1zM63 26h1v1h-1zM64 26h1v1h-1z"/><path fill="#83827F" d="M65 26h1v1h-1z"/><path fill="#635F5A" d="M66 26h1v1h-1z"/><path fill="#58534E" d="M67 26h1v1h-1zM68 26h1v1h-1zM69 26h1v1h-1zM70 26h1v1h-1z"/><path fill="#75736F" d="M71 26h1v1h-1z"/><path fill="#8D8E8B" d="M72 26h1v1h-1z"/><path fill="#91928F" d="M73 26h1v1h-1zM74 26h1v1h-1z"/><path fill="#767471" d="M75 26h1v1h-1z"/><path fill="#231815" d="M76 26h1v1h-1zM77 26h1v1h-1zM78 26h1v1h-1zM79 26h1v1h-1zM37 27h1v1h-1zM38 27h1v1h-1zM39 27h1v1h-1zM40 27h1v1h-1z"/><path fill="#413935" d="M41 27h1v1h-1z"/><path fill="#58534E" d="M42 27h1v1h-1zM43 27h1v1h-1zM44 27h1v1h-1zM45 27h1v1h-1zM46 27h1v1h-1zM47 27h1v1h-1zM48 27h1v1h-1zM49 27h1v1h-1zM50 27h1v1h-1zM51 27h1v1h-1zM52 27h1v1h-1zM53 27h1v1h-1zM54 27h1v1h-1zM55 27h1v1h-1z"/><path fill="#5F5B56" d="M56 27h1v1h-1z"/><path fill="#7F7E7B" d="M57 27h1v1h-1z"/><path fill="#91928F" d="M58 27h1v1h-1zM59 27h1v1h-1zM60 27h1v1h-1zM61 27h1v1h-1zM62 27h1v1h-1zM63 27h1v1h-1zM64 27h1v1h-1zM65 27h1v1h-1zM66 27h1v1h-1z"/><path fill="#787673" d="M67 27h1v1h-1z"/><path fill="#5C5752" d="M68 27h1v1h-1z"/><path fill="#58534E" d="M69 27h1v1h-1zM70 27h1v1h-1zM71 27h1v1h-1z"/><path fill="#5F5B56" d="M72 27h1v1h-1z"/><path fill="#7C7A77" d="M73 27h1v1h-1z"/><path fill="#91928F" d="M74 27h1v1h-1z"/><path fill="#767471" d="M75 27h1v1h-1z"/><path fill="#231815" d="M76 27h1v1h-1zM77 27h1v1h-1zM78 27h1v1h-1zM79 27h1v1h-1zM37 28h1v1h-1zM38 28h1v1h-1zM39 28h1v1h-1zM40 28h1v1h-1z"/><path fill="#554F4A" d="M41 28h1v1h-1z"/><path fill="#58534E" d="M42 28h1v1h-1zM43 28h1v1h-1zM44 28h1v1h-1zM45 28h1v1h-1zM46 28h1v1h-1zM47 28h1v1h-1zM48 28h1v1h-1zM49 28h1v1h-1zM50 28h1v1h-1zM51 28h1v1h-1zM52 28h1v1h-1zM53 28h1v1h-1zM54 28h1v1h-1zM55 28h1v1h-1zM56 28h1v1h-1zM57 28h1v1h-1z"/><path fill="#66635E" d="M58 28h1v1h-1z"/><path fill="#8A8A87" d="M59 28h1v1h-1z"/><path fill="#91928F" d="M60 28h1v1h-1zM61 28h1v1h-1zM62 28h1v1h-1zM63 28h1v1h-1zM64 28h1v1h-1zM65 28h1v1h-1zM66 28h1v1h-1zM67 28h1v1h-1z"/><path fill="#8D8E8B" d="M68 28h1v1h-1z"/><path fill="#716F6A" d="M69 28h1v1h-1z"/><path fill="#58534E" d="M70 28h1v1h-1zM71 28h1v1h-1zM72 28h1v1h-1zM73 28h1v1h-1z"/><path fill="#66635E" d="M74 28h1v1h-1z"/><path fill="#6B6864" d="M75 28h1v1h-1z"/><path fill="#231815" d="M76 28h1v1h-1zM77 28h1v1h-1zM78 28h1v1h-1zM79 28h1v1h-1zM36 29h1v1h-1zM37 29h1v1h-1zM38 29h1v1h-1zM39 29h1v1h-1z"/><path fill="#372E2A" d="M40 29h1v1h-1z"/><path fill="#58534E" d="M41 29h1v1h-1zM42 29h1v1h-1zM43 29h1v1h-1zM44 29h1v1h-1zM45 29h1v1h-1zM46 29h1v1h-1z"/><path fill="#686460" d="M47 29h1v1h-1z"/><path fill="#91908E" d="M48 29h1v1h-1z"/><path fill="#A9AAA9" d="M49 29h1v1h-1z"/><path fill="#BABBBC" d="M50 29h1v1h-1zM51 29h1v1h-1zM52 29h1v1h-1zM53 29h1v1h-1z"/><path fill="#B1B3B2" d="M54 29h1v1h-1z"/><path fill="#999997" d="M55 29h1v1h-1z"/><path fill="#797673" d="M56 29h1v1h-1z"/><path fill="#58534E" d="M57 29h1v1h-1zM58 29h1v1h-1zM59 29h1v1h-1z"/><path fill="#75736F" d="M60 29h1v1h-1z"/><path fill="#8D8E8B" d="M61 29h1v1h-1z"/><path fill="#91928F" d="M62 29h1v1h-1zM63 29h1v1h-1zM64 29h1v1h-1zM65 29h1v1h-1zM66 29h1v1h-1zM67 29h1v1h-1zM68 29h1v1h-1zM69 29h1v1h-1z"/><path fill="#868683" d="M70 29h1v1h-1z"/><path fill="#66635E" d="M71 29h1v1h-1z"/><path fill="#58534E" d="M72 29h1v1h-1zM73 29h1v1h-1zM74 29h1v1h-1z"/><path fill="#443D39" d="M75 29h1v1h-1z"/><path fill="#231815" d="M76 29h1v1h-1zM77 29h1v1h-1zM78 29h1v1h-1zM79 29h1v1h-1zM36 30h1v1h-1zM37 30h1v1h-1zM38 30h1v1h-1zM39 30h1v1h-1z"/><path fill="#514C47" d="M40 30h1v1h-1z"/><path fill="#58534E" d="M41 30h1v1h-1zM42 30h1v1h-1zM43 30h1v1h-1zM44 30h1v1h-1z"/><path fill="#898785" d="M45 30h1v1h-1z"/><path fill="#C2C4C5" d="M46 30h1v1h-1z"/><path fill="#DADEE0" d="M47 30h1v1h-1zM48 30h1v1h-1zM49 30h1v1h-1zM50 30h1v1h-1zM51 30h1v1h-1zM52 30h1v1h-1zM53 30h1v1h-1zM54 30h1v1h-1zM55 30h1v1h-1zM56 30h1v1h-1z"/><path fill="#D2D5D7" d="M57 30h1v1h-1z"/><path fill="#A9AAA9" d="M58 30h1v1h-1z"/><path fill="#686460" d="M59 30h1v1h-1z"/><path fill="#58534E" d="M60 30h1v1h-1z"/><path fill="#5C5752" d="M61 30h1v1h-1z"/><path fill="#7C7A77" d="M62 30h1v1h-1z"/><path fill="#91928F" d="M63 30h1v1h-1zM64 30h1v1h-1zM65 30h1v1h-1zM66 30h1v1h-1zM67 30h1v1h-1zM68 30h1v1h-1zM69 30h1v1h-1zM70 30h1v1h-1zM71 30h1v1h-1z"/><path fill="#7C7A77" d="M72 30h1v1h-1z"/><path fill="#5C5752" d="M73 30h1v1h-1z"/><path fill="#58534E" d="M74 30h1v1h-1z"/><path fill="#3E3632" d="M75 30h1v1h-1z"/><path fill="#231815" d="M76 30h1v1h-1zM77 30h1v1h-1zM78 30h1v1h-1zM35 31h1v1h-1zM36 31h1v1h-1zM37 31h1v1h-1zM38 31h1v1h-1z"/><path fill="#302723" d="M39 31h1v1h-1z"/><path fill="#58534E" d="M40 31h1v1h-1zM41 31h1v1h-1zM42 31h1v1h-1z"/><path fill="#797673" d="M43 31h1v1h-1z"/><path fill="#CACDCE" d="M44 31h1v1h-1z"/><path fill="#DADEE0" d="M45 31h1v1h-1zM46 31h1v1h-1zM47 31h1v1h-1zM48 31h1v1h-1zM49 31h1v1h-1zM50 31h1v1h-1zM51 31h1v1h-1zM52 31h1v1h-1zM53 31h1v1h-1zM54 31h1v1h-1zM55 31h1v1h-1zM56 31h1v1h-1zM57 31h1v1h-1zM58 31h1v1h-1zM59 31h1v1h-1z"/><path fill="#A1A1A0" d="M60 31h1v1h-1z"/><path fill="#605C57" d="M61 31h1v1h-1z"/><path fill="#58534E" d="M62 31h1v1h-1z"/><path fill="#66635E" d="M63 31h1v1h-1z"/><path fill="#868683" d="M64 31h1v1h-1z"/><path fill="#91928F" d="M65 31h1v1h-1zM66 31h1v1h-1zM67 31h1v1h-1zM68 31h1v1h-1zM69 31h1v1h-1zM70 31h1v1h-1zM71 31h1v1h-1zM72 31h1v1h-1z"/><path fill="#8D8E8B" d="M73 31h1v1h-1z"/><path fill="#716F6A" d="M74 31h1v1h-1z"/><path fill="#3E3632" d="M75 31h1v1h-1z"/><path fill="#231815" d="M76 31h1v1h-1zM77 31h1v1h-1zM78 31h1v1h-1zM35 32h1v1h-1zM36 32h1v1h-1zM37 32h1v1h-1zM38 32h1v1h-1z"/><path fill="#4B4440" d="M39 32h1v1h-1z"/><path fill="#58534E" d="M40 32h1v1h-1zM41 32h1v1h-1z"/><path fill="#999997" d="M42 32h1v1h-1z"/><path fill="#DADEE0" d="M43 32h1v1h-1zM44 32h1v1h-1zM45 32h1v1h-1zM46 32h1v1h-1zM47 32h1v1h-1zM48 32h1v1h-1zM49 32h1v1h-1zM50 32h1v1h-1z"/><path fill="#C2C4C5" d="M51 32h1v1h-1z"/><path fill="#BABBBC" d="M52 32h1v1h-1z"/><path fill="#D2D5D7" d="M53 32h1v1h-1z"/><path fill="#DADEE0" d="M54 32h1v1h-1zM55 32h1v1h-1zM56 32h1v1h-1zM57 32h1v1h-1zM58 32h1v1h-1zM59 32h1v1h-1zM60 32h1v1h-1z"/><path fill="#CACDCE" d="M61 32h1v1h-1z"/><path fill="#706D69" d="M62 32h1v1h-1z"/><path fill="#58534E" d="M63 32h1v1h-1zM64 32h1v1h-1z"/><path fill="#716F6A" d="M65 32h1v1h-1z"/><path fill="#8D8E8B" d="M66 32h1v1h-1z"/><path fill="#91928F" d="M67 32h1v1h-1zM68 32h1v1h-1zM69 32h1v1h-1zM70 32h1v1h-1zM71 32h1v1h-1zM72 32h1v1h-1zM73 32h1v1h-1zM74 32h1v1h-1z"/><path fill="#5A5552" d="M75 32h1v1h-1z"/><path fill="#231815" d="M76 32h1v1h-1zM77 32h1v1h-1zM78 32h1v1h-1zM34 33h1v1h-1zM35 33h1v1h-1zM36 33h1v1h-1zM37 33h1v1h-1z"/><path fill="#302723" d="M38 33h1v1h-1z"/><path fill="#58534E" d="M39 33h1v1h-1zM40 33h1v1h-1z"/><path fill="#A9AAA9" d="M41 33h1v1h-1z"/><path fill="#DADEE0" d="M42 33h1v1h-1zM43 33h1v1h-1zM44 33h1v1h-1zM45 33h1v1h-1zM46 33h1v1h-1z"/><path fill="#CACDCE" d="M47 33h1v1h-1z"/><path fill="#91908E" d="M48 33h1v1h-1z"/><path fill="#686460" d="M49 33h1v1h-1z"/><path fill="#58534E" d="M50 33h1v1h-1zM51 33h1v1h-1zM52 33h1v1h-1zM53 33h1v1h-1z"/><path fill="#605C57" d="M54 33h1v1h-1z"/><path fill="#817E7C" d="M55 33h1v1h-1z"/><path fill="#A9AAA9" d="M56 33h1v1h-1z"/><path fill="#DADEE0" d="M57 33h1v1h-1zM58 33h1v1h-1zM59 33h1v1h-1zM60 33h1v1h-1zM61 33h1v1h-1zM62 33h1v1h-1z"/><path fill="#898785" d="M63 33h1v1h-1z"/><path fill="#58534E" d="M64 33h1v1h-1zM65 33h1v1h-1z"/><path fill="#5C5752" d="M66 33h1v1h-1z"/><path fill="#787673" d="M67 33h1v1h-1z"/><path fill="#91928F" d="M68 33h1v1h-1zM69 33h1v1h-1zM70 33h1v1h-1zM71 33h1v1h-1zM72 33h1v1h-1zM73 33h1v1h-1zM74 33h1v1h-1z"/><path fill="#3F3734" d="M75 33h1v1h-1z"/><path fill="#231815" d="M76 33h1v1h-1zM77 33h1v1h-1zM78 33h1v1h-1zM34 34h1v1h-1zM35 34h1v1h-1zM36 34h1v1h-1zM37 34h1v1h-1z"/><path fill="#4B4440" d="M38 34h1v1h-1z"/><path fill="#58534E" d="M39 34h1v1h-1z"/><path fill="#A9AAA9" d="M40 34h1v1h-1z"/><path fill="#DADEE0" d="M41 34h1v1h-1zM42 34h1v1h-1zM43 34h1v1h-1zM44 34h1v1h-1z"/><path fill="#CACDCE" d="M45 34h1v1h-1z"/><path fill="#817E7C" d="M46 34h1v1h-1z"/><path fill="#58534E" d="M47 34h1v1h-1zM48 34h1v1h-1zM49 34h1v1h-1zM50 34h1v1h-1zM51 34h1v1h-1zM52 34h1v1h-1zM53 34h1v1h-1zM54 34h1v1h-1zM55 34h1v1h-1zM56 34h1v1h-1z"/><path fill="#605C57" d="M57 34h1v1h-1z"/><path fill="#A1A1A0" d="M58 34h1v1h-1z"/><path fill="#DADEE0" d="M59 34h1v1h-1zM60 34h1v1h-1zM61 34h1v1h-1zM62 34h1v1h-1zM63 34h1v1h-1z"/><path fill="#898785" d="M64 34h1v1h-1z"/><path fill="#58534E" d="M65 34h1v1h-1zM66 34h1v1h-1zM67 34h1v1h-1z"/><path fill="#635F5A" d="M68 34h1v1h-1z"/><path fill="#83827F" d="M69 34h1v1h-1z"/><path fill="#91928F" d="M70 34h1v1h-1zM71 34h1v1h-1zM72 34h1v1h-1zM73 34h1v1h-1zM74 34h1v1h-1z"/><path fill="#3F3734" d="M75 34h1v1h-1z"/><path fill="#231815" d="M76 34h1v1h-1zM77 34h1v1h-1zM78 34h1v1h-1zM33 35h1v1h-1zM34 35h1v1h-1zM35 35h1v1h-1zM36 35h1v1h-1z"/><path fill="#302723" d="M37 35h1v1h-1z"/><path fill="#58534E" d="M38 35h1v1h-1z"/><path fill="#91908E" d="M39 35h1v1h-1z"/><path fill="#DADEE0" d="M40 35h1v1h-1zM41 35h1v1h-1zM42 35h1v1h-1zM43 35h1v1h-1z"/><path fill="#B1B3B2" d="M44 35h1v1h-1z"/><path fill="#605C57" d="M45 35h1v1h-1z"/><path fill="#58534E" d="M46 35h1v1h-1zM47 35h1v1h-1zM48 35h1v1h-1zM49 35h1v1h-1zM50 35h1v1h-1zM51 35h1v1h-1zM52 35h1v1h-1zM53 35h1v1h-1zM54 35h1v1h-1zM55 35h1v1h-1zM56 35h1v1h-1zM57 35h1v1h-1zM58 35h1v1h-1z"/><path fill="#797673" d="M59 35h1v1h-1z"/><path fill="#D2D5D7" d="M60 35h1v1h-1z"/><path fill="#DADEE0" d="M61 35h1v1h-1zM62 35h1v1h-1zM63 35h1v1h-1zM64 35h1v1h-1z"/><path fill="#797673" d="M65 35h1v1h-1z"/><path fill="#58534E" d="M66 35h1v1h-1zM67 35h1v1h-1zM68 35h1v1h-1zM69 35h1v1h-1z"/><path fill="#6D6B66" d="M70 35h1v1h-1z"/><path fill="#8D8E8B" d="M71 35h1v1h-1z"/><path fill="#91928F" d="M72 35h1v1h-1zM73 35h1v1h-1zM74 35h1v1h-1z"/><path fill="#3F3734" d="M75 35h1v1h-1z"/><path fill="#231815" d="M76 35h1v1h-1zM77 35h1v1h-1zM78 35h1v1h-1zM33 36h1v1h-1zM34 36h1v1h-1zM35 36h1v1h-1zM36 36h1v1h-1z"/><path fill="#63605C" d="M37 36h1v1h-1z"/><path fill="#686460" d="M38 36h1v1h-1z"/><path fill="#DADEE0" d="M39 36h1v1h-1zM40 36h1v1h-1zM41 36h1v1h-1zM42 36h1v1h-1z"/><path fill="#A9AAA9" d="M43 36h1v1h-1z"/><path fill="#58534E" d="M44 36h1v1h-1zM45 36h1v1h-1zM46 36h1v1h-1zM47 36h1v1h-1zM48 36h1v1h-1zM49 36h1v1h-1zM50 36h1v1h-1zM51 36h1v1h-1zM52 36h1v1h-1zM53 36h1v1h-1zM54 36h1v1h-1zM55 36h1v1h-1zM56 36h1v1h-1zM57 36h1v1h-1zM58 36h1v1h-1zM59 36h1v1h-1z"/><path fill="#605C57" d="M60 36h1v1h-1z"/><path fill="#C2C4C5" d="M61 36h1v1h-1z"/><path fill="#DADEE0" d="M62 36h1v1h-1zM63 36h1v1h-1zM64 36h1v1h-1z"/><path fill="#D2D5D7" d="M65 36h1v1h-1z"/><path fill="#605C57" d="M66 36h1v1h-1z"/><path fill="#58534E" d="M67 36h1v1h-1zM68 36h1v1h-1zM69 36h1v1h-1zM70 36h1v1h-1z"/><path fill="#5C5752" d="M71 36h1v1h-1z"/><path fill="#75736F" d="M72 36h1v1h-1z"/><path fill="#91928F" d="M73 36h1v1h-1zM74 36h1v1h-1z"/><path fill="#382F2C" d="M75 36h1v1h-1z"/><path fill="#231815" d="M76 36h1v1h-1zM77 36h1v1h-1zM78 36h1v1h-1zM32 37h1v1h-1zM33 37h1v1h-1zM34 37h1v1h-1zM35 37h1v1h-1z"/><path fill="#4C4643" d="M36 37h1v1h-1z"/><path fill="#91928F" d="M37 37h1v1h-1z"/><path fill="#C4C7C8" d="M38 37h1v1h-1z"/><path fill="#DADEE0" d="M39 37h1v1h-1zM40 37h1v1h-1zM41 37h1v1h-1z"/><path fill="#BABBBC" d="M42 37h1v1h-1z"/><path fill="#58534E" d="M43 37h1v1h-1zM44 37h1v1h-1zM45 37h1v1h-1zM46 37h1v1h-1zM47 37h1v1h-1zM48 37h1v1h-1z"/><path fill="#645450" d="M49 37h1v1h-1z"/><path fill="#835755" d="M50 37h1v1h-1z"/><path fill="#955858" d="M51 37h1v1h-1z"/><path fill="#A2595A" d="M52 37h1v1h-1z"/><path fill="#955858" d="M53 37h1v1h-1z"/><path fill="#835755" d="M54 37h1v1h-1z"/><path fill="#645450" d="M55 37h1v1h-1z"/><path fill="#58534E" d="M56 37h1v1h-1zM57 37h1v1h-1zM58 37h1v1h-1zM59 37h1v1h-1zM60 37h1v1h-1z"/><path fill="#605C57" d="M61 37h1v1h-1z"/><path fill="#D2D5D7" d="M62 37h1v1h-1z"/><path fill="#DADEE0" d="M63 37h1v1h-1zM64 37h1v1h-1zM65 37h1v1h-1z"/><path fill="#A9AAA9" d="M66 37h1v1h-1z"/><path fill="#58534E" d="M67 37h1v1h-1zM68 37h1v1h-1zM69 37h1v1h-1zM70 37h1v1h-1zM71 37h1v1h-1zM72 37h1v1h-1z"/><path fill="#5F5B56" d="M73 37h1v1h-1z"/><path fill="#83827F" d="M74 37h1v1h-1z"/><path fill="#231815" d="M75 37h1v1h-1zM76 37h1v1h-1zM77 37h1v1h-1zM78 37h1v1h-1zM31 38h1v1h-1zM32 38h1v1h-1zM33 38h1v1h-1zM34 38h1v1h-1zM35 38h1v1h-1z"/><path fill="#838380" d="M36 38h1v1h-1z"/><path fill="#9FA09E" d="M37 38h1v1h-1z"/><path fill="#DADEE0" d="M38 38h1v1h-1zM39 38h1v1h-1zM40 38h1v1h-1z"/><path fill="#D2D5D7" d="M41 38h1v1h-1z"/><path fill="#686460" d="M42 38h1v1h-1z"/><path fill="#58534E" d="M43 38h1v1h-1zM44 38h1v1h-1zM45 38h1v1h-1zM46 38h1v1h-1z"/><path fill="#645450" d="M47 38h1v1h-1z"/><path fill="#A2595A" d="M48 38h1v1h-1z"/><path fill="#BA5B5E" d="M49 38h1v1h-1zM50 38h1v1h-1zM51 38h1v1h-1zM52 38h1v1h-1zM53 38h1v1h-1zM54 38h1v1h-1zM55 38h1v1h-1z"/><path fill="#A2595A" d="M56 38h1v1h-1z"/><path fill="#645450" d="M57 38h1v1h-1z"/><path fill="#58534E" d="M58 38h1v1h-1zM59 38h1v1h-1zM60 38h1v1h-1zM61 38h1v1h-1z"/><path fill="#706D69" d="M62 38h1v1h-1z"/><path fill="#DADEE0" d="M63 38h1v1h-1zM64 38h1v1h-1zM65 38h1v1h-1zM66 38h1v1h-1z"/><path fill="#686460" d="M67 38h1v1h-1z"/><path fill="#58534E" d="M68 38h1v1h-1zM69 38h1v1h-1zM70 38h1v1h-1zM71 38h1v1h-1zM72 38h1v1h-1zM73 38h1v1h-1zM74 38h1v1h-1z"/><path fill="#231815" d="M75 38h1v1h-1zM76 38h1v1h-1zM77 38h1v1h-1zM78 38h1v1h-1zM31 39h1v1h-1zM32 39h1v1h-1zM33 39h1v1h-1zM34 39h1v1h-1z"/><path fill="#4C4643" d="M35 39h1v1h-1z"/><path fill="#91928F" d="M36 39h1v1h-1z"/><path fill="#BFC2C2" d="M37 39h1v1h-1z"/><path fill="#DADEE0" d="M38 39h1v1h-1zM39 39h1v1h-1zM40 39h1v1h-1z"/><path fill="#B2B4B3" d="M41 39h1v1h-1z"/><path fill="#6A6762" d="M42 39h1v1h-1z"/><path fill="#58534E" d="M43 39h1v1h-1zM44 39h1v1h-1zM45 39h1v1h-1z"/><path fill="#6A5551" d="M46 39h1v1h-1z"/><path fill="#B45B5D" d="M47 39h1v1h-1z"/><path fill="#BA5B5E" d="M48 39h1v1h-1zM49 39h1v1h-1zM50 39h1v1h-1zM51 39h1v1h-1zM52 39h1v1h-1zM53 39h1v1h-1zM54 39h1v1h-1zM55 39h1v1h-1zM56 39h1v1h-1z"/><path fill="#B45B5D" d="M57 39h1v1h-1z"/><path fill="#7D5654" d="M58 39h1v1h-1z"/><path fill="#58534E" d="M59 39h1v1h-1zM60 39h1v1h-1zM61 39h1v1h-1zM62 39h1v1h-1z"/><path fill="#A1A1A0" d="M63 39h1v1h-1z"/><path fill="#DADEE0" d="M64 39h1v1h-1zM65 39h1v1h-1zM66 39h1v1h-1z"/><path fill="#A9AAA9" d="M67 39h1v1h-1z"/><path fill="#58534E" d="M68 39h1v1h-1zM69 39h1v1h-1zM70 39h1v1h-1zM71 39h1v1h-1zM72 39h1v1h-1zM73 39h1v1h-1zM74 39h1v1h-1z"/><path fill="#231815" d="M75 39h1v1h-1zM76 39h1v1h-1zM77 39h1v1h-1zM78 39h1v1h-1zM30 40h1v1h-1zM31 40h1v1h-1zM32 40h1v1h-1zM33 40h1v1h-1z"/><path fill="#2A201D" d="M34 40h1v1h-1z"/><path fill="#8A8A87" d="M35 40h1v1h-1z"/><path fill="#91928F" d="M36 40h1v1h-1z"/><path fill="#D5D9DB" d="M37 40h1v1h-1z"/><path fill="#DADEE0" d="M38 40h1v1h-1zM39 40h1v1h-1z"/><path fill="#D5D9DB" d="M40 40h1v1h-1z"/><path fill="#969794" d="M41 40h1v1h-1z"/><path fill="#91928F" d="M42 40h1v1h-1z"/><path fill="#83827F" d="M43 40h1v1h-1z"/><path fill="#5F5B56" d="M44 40h1v1h-1z"/><path fill="#645450" d="M45 40h1v1h-1z"/><path fill="#B45B5D" d="M46 40h1v1h-1z"/><path fill="#BA5B5E" d="M47 40h1v1h-1zM48 40h1v1h-1zM49 40h1v1h-1zM50 40h1v1h-1zM51 40h1v1h-1zM52 40h1v1h-1zM53 40h1v1h-1zM54 40h1v1h-1zM55 40h1v1h-1zM56 40h1v1h-1zM57 40h1v1h-1zM58 40h1v1h-1z"/><path fill="#715552" d="M59 40h1v1h-1z"/><path fill="#58534E" d="M60 40h1v1h-1zM61 40h1v1h-1zM62 40h1v1h-1z"/><path fill="#605C57" d="M63 40h1v1h-1z"/><path fill="#D2D5D7" d="M64 40h1v1h-1z"/><path fill="#DADEE0" d="M65 40h1v1h-1zM66 40h1v1h-1zM67 40h1v1h-1z"/><path fill="#605C57" d="M68 40h1v1h-1z"/><path fill="#58534E" d="M69 40h1v1h-1zM70 40h1v1h-1zM71 40h1v1h-1zM72 40h1v1h-1zM73 40h1v1h-1z"/><path fill="#554F4A" d="M74 40h1v1h-1z"/><path fill="#231815" d="M75 40h1v1h-1zM76 40h1v1h-1zM77 40h1v1h-1zM78 40h1v1h-1zM30 41h1v1h-1zM31 41h1v1h-1zM32 41h1v1h-1zM33 41h1v1h-1z"/><path fill="#5A5552" d="M34 41h1v1h-1z"/><path fill="#91928F" d="M35 41h1v1h-1z"/><path fill="#A3A5A3" d="M36 41h1v1h-1z"/><path fill="#DADEE0" d="M37 41h1v1h-1zM38 41h1v1h-1zM39 41h1v1h-1z"/><path fill="#BFC2C2" d="M40 41h1v1h-1z"/><path fill="#91928F" d="M41 41h1v1h-1zM42 41h1v1h-1zM43 41h1v1h-1zM44 41h1v1h-1z"/><path fill="#AE6769" d="M45 41h1v1h-1z"/><path fill="#BA5B5E" d="M46 41h1v1h-1zM47 41h1v1h-1zM48 41h1v1h-1zM49 41h1v1h-1zM50 41h1v1h-1zM51 41h1v1h-1zM52 41h1v1h-1zM53 41h1v1h-1zM54 41h1v1h-1zM55 41h1v1h-1zM56 41h1v1h-1zM57 41h1v1h-1zM58 41h1v1h-1z"/><path fill="#B45B5D" d="M59 41h1v1h-1z"/><path fill="#5E544F" d="M60 41h1v1h-1z"/><path fill="#58534E" d="M61 41h1v1h-1zM62 41h1v1h-1zM63 41h1v1h-1z"/><path fill="#A1A1A0" d="M64 41h1v1h-1z"/><path fill="#DADEE0" d="M65 41h1v1h-1zM66 41h1v1h-1zM67 41h1v1h-1z"/><path fill="#898785" d="M68 41h1v1h-1z"/><path fill="#58534E" d="M69 41h1v1h-1zM70 41h1v1h-1zM71 41h1v1h-1zM72 41h1v1h-1zM73 41h1v1h-1z"/><path fill="#4B4440" d="M74 41h1v1h-1z"/><path fill="#231815" d="M75 41h1v1h-1zM76 41h1v1h-1zM77 41h1v1h-1zM78 41h1v1h-1zM29 42h1v1h-1zM30 42h1v1h-1zM31 42h1v1h-1zM32 42h1v1h-1z"/><path fill="#312724" d="M33 42h1v1h-1z"/><path fill="#8A8A87" d="M34 42h1v1h-1z"/><path fill="#91928F" d="M35 42h1v1h-1z"/><path fill="#B1B3B2" d="M36 42h1v1h-1z"/><path fill="#DADEE0" d="M37 42h1v1h-1zM38 42h1v1h-1zM39 42h1v1h-1z"/><path fill="#ACAFAD" d="M40 42h1v1h-1z"/><path fill="#91928F" d="M41 42h1v1h-1zM42 42h1v1h-1zM43 42h1v1h-1z"/><path fill="#A79190" d="M44 42h1v1h-1z"/><path fill="#E88F92" d="M45 42h1v1h-1z"/><path fill="#D4787B" d="M46 42h1v1h-1z"/><path fill="#BD5E61" d="M47 42h1v1h-1z"/><path fill="#BA5B5E" d="M48 42h1v1h-1zM49 42h1v1h-1zM50 42h1v1h-1zM51 42h1v1h-1zM52 42h1v1h-1zM53 42h1v1h-1zM54 42h1v1h-1zM55 42h1v1h-1zM56 42h1v1h-1zM57 42h1v1h-1zM58 42h1v1h-1zM59 42h1v1h-1z"/><path fill="#895756" d="M60 42h1v1h-1z"/><path fill="#58534E" d="M61 42h1v1h-1zM62 42h1v1h-1zM63 42h1v1h-1z"/><path fill="#706D69" d="M64 42h1v1h-1z"/><path fill="#DADEE0" d="M65 42h1v1h-1zM66 42h1v1h-1zM67 42h1v1h-1z"/><path fill="#A9AAA9" d="M68 42h1v1h-1z"/><path fill="#58534E" d="M69 42h1v1h-1zM70 42h1v1h-1zM71 42h1v1h-1zM72 42h1v1h-1zM73 42h1v1h-1z"/><path fill="#4B4440" d="M74 42h1v1h-1z"/><path fill="#231815" d="M75 42h1v1h-1zM76 42h1v1h-1zM77 42h1v1h-1zM78 42h1v1h-1zM29 43h1v1h-1zM30 43h1v1h-1zM31 43h1v1h-1zM32 43h1v1h-1z"/><path fill="#686461" d="M33 43h1v1h-1z"/><path fill="#91928F" d="M34 43h1v1h-1zM35 43h1v1h-1z"/><path fill="#B6B8B8" d="M36 43h1v1h-1z"/><path fill="#DADEE0" d="M37 43h1v1h-1zM38 43h1v1h-1zM39 43h1v1h-1z"/><path fill="#9A9C99" d="M40 43h1v1h-1z"/><path fill="#91928F" d="M41 43h1v1h-1zM42 43h1v1h-1zM43 43h1v1h-1z"/><path fill="#C29091" d="M44 43h1v1h-1z"/><path fill="#E88F92" d="M45 43h1v1h-1zM46 43h1v1h-1z"/><path fill="#E58C8F" d="M47 43h1v1h-1z"/><path fill="#D17578" d="M48 43h1v1h-1z"/><path fill="#BD5E61" d="M49 43h1v1h-1z"/><path fill="#BA5B5E" d="M50 43h1v1h-1z"/><path fill="#895756" d="M51 43h1v1h-1z"/><path fill="#715552" d="M52 43h1v1h-1z"/><path fill="#895756" d="M53 43h1v1h-1z"/><path fill="#B45B5D" d="M54 43h1v1h-1z"/><path fill="#BA5B5E" d="M55 43h1v1h-1zM56 43h1v1h-1zM57 43h1v1h-1zM58 43h1v1h-1zM59 43h1v1h-1z"/><path fill="#AE5A5C" d="M60 43h1v1h-1z"/><path fill="#58534E" d="M61 43h1v1h-1zM62 43h1v1h-1zM63 43h1v1h-1zM64 43h1v1h-1z"/><path fill="#D2D5D7" d="M65 43h1v1h-1z"/><path fill="#DADEE0" d="M66 43h1v1h-1zM67 43h1v1h-1z"/><path fill="#CACDCE" d="M68 43h1v1h-1z"/><path fill="#58534E" d="M69 43h1v1h-1zM70 43h1v1h-1zM71 43h1v1h-1zM72 43h1v1h-1zM73 43h1v1h-1z"/><path fill="#4B4440" d="M74 43h1v1h-1z"/><path fill="#231815" d="M75 43h1v1h-1zM76 43h1v1h-1zM77 43h1v1h-1zM78 43h1v1h-1zM28 44h1v1h-1zM29 44h1v1h-1zM30 44h1v1h-1zM31 44h1v1h-1z"/><path fill="#3F3734" d="M32 44h1v1h-1z"/><path fill="#91928F" d="M33 44h1v1h-1zM34 44h1v1h-1zM35 44h1v1h-1z"/><path fill="#C8CBCC" d="M36 44h1v1h-1z"/><path fill="#DADEE0" d="M37 44h1v1h-1zM38 44h1v1h-1zM39 44h1v1h-1z"/><path fill="#91928F" d="M40 44h1v1h-1zM41 44h1v1h-1zM42 44h1v1h-1zM43 44h1v1h-1z"/><path fill="#D29091" d="M44 44h1v1h-1z"/><path fill="#E88F92" d="M45 44h1v1h-1zM46 44h1v1h-1zM47 44h1v1h-1zM48 44h1v1h-1z"/><path fill="#E2898C" d="M49 44h1v1h-1z"/><path fill="#A77878" d="M50 44h1v1h-1z"/><path fill="#5F5B56" d="M51 44h1v1h-1z"/><path fill="#58534E" d="M52 44h1v1h-1zM53 44h1v1h-1z"/><path fill="#715552" d="M54 44h1v1h-1z"/><path fill="#BA5B5E" d="M55 44h1v1h-1zM56 44h1v1h-1zM57 44h1v1h-1zM58 44h1v1h-1zM59 44h1v1h-1zM60 44h1v1h-1z"/><path fill="#6A5551" d="M61 44h1v1h-1z"/><path fill="#58534E" d="M62 44h1v1h-1zM63 44h1v1h-1zM64 44h1v1h-1z"/><path fill="#BABBBC" d="M65 44h1v1h-1z"/><path fill="#DADEE0" d="M66 44h1v1h-1zM67 44h1v1h-1zM68 44h1v1h-1z"/><path fill="#58534E" d="M69 44h1v1h-1zM70 44h1v1h-1zM71 44h1v1h-1zM72 44h1v1h-1zM73 44h1v1h-1z"/><path fill="#4B4440" d="M74 44h1v1h-1z"/><path fill="#231815" d="M75 44h1v1h-1zM76 44h1v1h-1zM77 44h1v1h-1zM78 44h1v1h-1zM27 45h1v1h-1zM28 45h1v1h-1zM29 45h1v1h-1zM30 45h1v1h-1zM31 45h1v1h-1z"/><path fill="#767471" d="M32 45h1v1h-1z"/><path fill="#91928F" d="M33 45h1v1h-1zM34 45h1v1h-1zM35 45h1v1h-1z"/><path fill="#C8CBCC" d="M36 45h1v1h-1z"/><path fill="#DADEE0" d="M37 45h1v1h-1zM38 45h1v1h-1zM39 45h1v1h-1z"/><path fill="#91928F" d="M40 45h1v1h-1zM41 45h1v1h-1zM42 45h1v1h-1zM43 45h1v1h-1z"/><path fill="#E88F92" d="M44 45h1v1h-1zM45 45h1v1h-1zM46 45h1v1h-1zM47 45h1v1h-1zM48 45h1v1h-1zM49 45h1v1h-1z"/><path fill="#96928F" d="M50 45h1v1h-1z"/><path fill="#91928F" d="M51 45h1v1h-1z"/><path fill="#787673" d="M52 45h1v1h-1z"/><path fill="#5C5752" d="M53 45h1v1h-1z"/><path fill="#58534E" d="M54 45h1v1h-1z"/><path fill="#A2595A" d="M55 45h1v1h-1z"/><path fill="#BA5B5E" d="M56 45h1v1h-1zM57 45h1v1h-1zM58 45h1v1h-1zM59 45h1v1h-1zM60 45h1v1h-1z"/><path fill="#715552" d="M61 45h1v1h-1z"/><path fill="#58534E" d="M62 45h1v1h-1zM63 45h1v1h-1zM64 45h1v1h-1z"/><path fill="#A1A1A0" d="M65 45h1v1h-1z"/><path fill="#DADEE0" d="M66 45h1v1h-1zM67 45h1v1h-1zM68 45h1v1h-1z"/><path fill="#58534E" d="M69 45h1v1h-1zM70 45h1v1h-1zM71 45h1v1h-1zM72 45h1v1h-1zM73 45h1v1h-1z"/><path fill="#4B4440" d="M74 45h1v1h-1z"/><path fill="#231815" d="M75 45h1v1h-1zM76 45h1v1h-1zM77 45h1v1h-1zM78 45h1v1h-1zM26 46h1v1h-1zM27 46h1v1h-1zM28 46h1v1h-1zM29 46h1v1h-1zM30 46h1v1h-1z"/><path fill="#4C4643" d="M31 46h1v1h-1z"/><path fill="#91928F" d="M32 46h1v1h-1zM33 46h1v1h-1zM34 46h1v1h-1zM35 46h1v1h-1z"/><path fill="#C8CBCC" d="M36 46h1v1h-1z"/><path fill="#DADEE0" d="M37 46h1v1h-1zM38 46h1v1h-1zM39 46h1v1h-1z"/><path fill="#91928F" d="M40 46h1v1h-1zM41 46h1v1h-1zM42 46h1v1h-1zM43 46h1v1h-1z"/><path fill="#E38F92" d="M44 46h1v1h-1z"/><path fill="#E88F92" d="M45 46h1v1h-1zM46 46h1v1h-1zM47 46h1v1h-1zM48 46h1v1h-1zM49 46h1v1h-1z"/><path fill="#96928F" d="M50 46h1v1h-1z"/><path fill="#91928F" d="M51 46h1v1h-1zM52 46h1v1h-1z"/><path fill="#8D8E8B" d="M53 46h1v1h-1z"/><path fill="#75736F" d="M54 46h1v1h-1z"/><path fill="#8F5857" d="M55 46h1v1h-1z"/><path fill="#BA5B5E" d="M56 46h1v1h-1zM57 46h1v1h-1zM58 46h1v1h-1zM59 46h1v1h-1zM60 46h1v1h-1z"/><path fill="#715552" d="M61 46h1v1h-1z"/><path fill="#58534E" d="M62 46h1v1h-1zM63 46h1v1h-1zM64 46h1v1h-1z"/><path fill="#999997" d="M65 46h1v1h-1z"/><path fill="#DADEE0" d="M66 46h1v1h-1zM67 46h1v1h-1zM68 46h1v1h-1z"/><path fill="#797673" d="M69 46h1v1h-1z"/><path fill="#58534E" d="M70 46h1v1h-1zM71 46h1v1h-1zM72 46h1v1h-1zM73 46h1v1h-1z"/><path fill="#4B4440" d="M74 46h1v1h-1z"/><path fill="#231815" d="M75 46h1v1h-1zM76 46h1v1h-1zM77 46h1v1h-1zM78 46h1v1h-1zM25 47h1v1h-1zM26 47h1v1h-1zM27 47h1v1h-1zM28 47h1v1h-1zM29 47h1v1h-1z"/><path fill="#382F2C" d="M30 47h1v1h-1z"/><path fill="#8A8A87" d="M31 47h1v1h-1z"/><path fill="#91928F" d="M32 47h1v1h-1zM33 47h1v1h-1zM34 47h1v1h-1zM35 47h1v1h-1z"/><path fill="#BABDBD" d="M36 47h1v1h-1z"/><path fill="#DADEE0" d="M37 47h1v1h-1zM38 47h1v1h-1zM39 47h1v1h-1z"/><path fill="#969794" d="M40 47h1v1h-1z"/><path fill="#91928F" d="M41 47h1v1h-1zM42 47h1v1h-1zM43 47h1v1h-1z"/><path fill="#D29091" d="M44 47h1v1h-1z"/><path fill="#E88F92" d="M45 47h1v1h-1zM46 47h1v1h-1zM47 47h1v1h-1zM48 47h1v1h-1zM49 47h1v1h-1z"/><path fill="#BD9191" d="M50 47h1v1h-1z"/><path fill="#91928F" d="M51 47h1v1h-1zM52 47h1v1h-1zM53 47h1v1h-1zM54 47h1v1h-1z"/><path fill="#C9797B" d="M55 47h1v1h-1z"/><path fill="#BD5E61" d="M56 47h1v1h-1z"/><path fill="#BA5B5E" d="M57 47h1v1h-1zM58 47h1v1h-1zM59 47h1v1h-1zM60 47h1v1h-1z"/><path fill="#715552" d="M61 47h1v1h-1z"/><path fill="#58534E" d="M62 47h1v1h-1zM63 47h1v1h-1zM64 47h1v1h-1z"/><path fill="#999997" d="M65 47h1v1h-1z"/><path fill="#DADEE0" d="M66 47h1v1h-1zM67 47h1v1h-1zM68 47h1v1h-1z"/><path fill="#686460" d="M69 47h1v1h-1z"/><path fill="#58534E" d="M70 47h1v1h-1zM71 47h1v1h-1zM72 47h1v1h-1zM73 47h1v1h-1z"/><path fill="#413935" d="M74 47h1v1h-1z"/><path fill="#231815" d="M75 47h1v1h-1zM76 47h1v1h-1zM77 47h1v1h-1zM23 48h1v1h-1zM24 48h1v1h-1zM25 48h1v1h-1zM26 48h1v1h-1zM27 48h1v1h-1zM28 48h1v1h-1z"/><path fill="#382F2C" d="M29 48h1v1h-1z"/><path fill="#8A8A87" d="M30 48h1v1h-1z"/><path fill="#91928F" d="M31 48h1v1h-1zM32 48h1v1h-1zM33 48h1v1h-1zM34 48h1v1h-1zM35 48h1v1h-1z"/><path fill="#B6B8B8" d="M36 48h1v1h-1z"/><path fill="#DADEE0" d="M37 48h1v1h-1zM38 48h1v1h-1zM39 48h1v1h-1z"/><path fill="#A3A5A3" d="M40 48h1v1h-1z"/><path fill="#91928F" d="M41 48h1v1h-1zM42 48h1v1h-1zM43 48h1v1h-1z"/><path fill="#C29091" d="M44 48h1v1h-1z"/><path fill="#E88F92" d="M45 48h1v1h-1zM46 48h1v1h-1zM47 48h1v1h-1zM48 48h1v1h-1zM49 48h1v1h-1zM50 48h1v1h-1z"/><path fill="#B79190" d="M51 48h1v1h-1z"/><path fill="#91928F" d="M52 48h1v1h-1zM53 48h1v1h-1z"/><path fill="#C79091" d="M54 48h1v1h-1z"/><path fill="#E88F92" d="M55 48h1v1h-1z"/><path fill="#E58C8F" d="M56 48h1v1h-1z"/><path fill="#D17578" d="M57 48h1v1h-1z"/><path fill="#BD5E61" d="M58 48h1v1h-1z"/><path fill="#BA5B5E" d="M59 48h1v1h-1zM60 48h1v1h-1z"/><path fill="#675753" d="M61 48h1v1h-1z"/><path fill="#58534E" d="M62 48h1v1h-1zM63 48h1v1h-1zM64 48h1v1h-1z"/><path fill="#B1B3B2" d="M65 48h1v1h-1z"/><path fill="#DADEE0" d="M66 48h1v1h-1zM67 48h1v1h-1zM68 48h1v1h-1z"/><path fill="#58534E" d="M69 48h1v1h-1zM70 48h1v1h-1zM71 48h1v1h-1zM72 48h1v1h-1zM73 48h1v1h-1z"/><path fill="#372E2A" d="M74 48h1v1h-1z"/><path fill="#231815" d="M75 48h1v1h-1zM76 48h1v1h-1zM77 48h1v1h-1zM22 49h1v1h-1zM23 49h1v1h-1zM24 49h1v1h-1zM25 49h1v1h-1zM26 49h1v1h-1zM27 49h1v1h-1z"/><path fill="#4C4643" d="M28 49h1v1h-1z"/><path fill="#8A8A87" d="M29 49h1v1h-1z"/><path fill="#91928F" d="M30 49h1v1h-1zM31 49h1v1h-1zM32 49h1v1h-1zM33 49h1v1h-1zM34 49h1v1h-1zM35 49h1v1h-1z"/><path fill="#A3A5A3" d="M36 49h1v1h-1z"/><path fill="#DADEE0" d="M37 49h1v1h-1zM38 49h1v1h-1zM39 49h1v1h-1z"/><path fill="#BABDBD" d="M40 49h1v1h-1z"/><path fill="#91928F" d="M41 49h1v1h-1zM42 49h1v1h-1zM43 49h1v1h-1z"/><path fill="#A79190" d="M44 49h1v1h-1z"/><path fill="#E88F92" d="M45 49h1v1h-1zM46 49h1v1h-1zM47 49h1v1h-1zM48 49h1v1h-1zM49 49h1v1h-1zM50 49h1v1h-1zM51 49h1v1h-1zM52 49h1v1h-1zM53 49h1v1h-1zM54 49h1v1h-1zM55 49h1v1h-1zM56 49h1v1h-1zM57 49h1v1h-1z"/><path fill="#E2898C" d="M58 49h1v1h-1z"/><path fill="#CB6F72" d="M59 49h1v1h-1z"/><path fill="#A85A5B" d="M60 49h1v1h-1z"/><path fill="#58534E" d="M61 49h1v1h-1zM62 49h1v1h-1zM63 49h1v1h-1zM64 49h1v1h-1z"/><path fill="#C2C4C5" d="M65 49h1v1h-1z"/><path fill="#DADEE0" d="M66 49h1v1h-1zM67 49h1v1h-1z"/><path fill="#D2D5D7" d="M68 49h1v1h-1z"/><path fill="#58534E" d="M69 49h1v1h-1zM70 49h1v1h-1zM71 49h1v1h-1zM72 49h1v1h-1zM73 49h1v1h-1z"/><path fill="#261C19" d="M74 49h1v1h-1z"/><path fill="#231815" d="M75 49h1v1h-1zM76 49h1v1h-1zM77 49h1v1h-1zM20 50h1v1h-1zM21 50h1v1h-1zM22 50h1v1h-1zM23 50h1v1h-1zM24 50h1v1h-1zM25 50h1v1h-1zM26 50h1v1h-1z"/><path fill="#615D5A" d="M27 50h1v1h-1z"/><path fill="#91928F" d="M28 50h1v1h-1zM29 50h1v1h-1zM30 50h1v1h-1zM31 50h1v1h-1zM32 50h1v1h-1zM33 50h1v1h-1zM34 50h1v1h-1zM35 50h1v1h-1z"/><path fill="#969794" d="M36 50h1v1h-1z"/><path fill="#DADEE0" d="M37 50h1v1h-1zM38 50h1v1h-1zM39 50h1v1h-1z"/><path fill="#D1D5D6" d="M40 50h1v1h-1z"/><path fill="#91928F" d="M41 50h1v1h-1zM42 50h1v1h-1zM43 50h1v1h-1zM44 50h1v1h-1z"/><path fill="#D29091" d="M45 50h1v1h-1z"/><path fill="#E88F92" d="M46 50h1v1h-1zM47 50h1v1h-1zM48 50h1v1h-1zM49 50h1v1h-1zM50 50h1v1h-1zM51 50h1v1h-1zM52 50h1v1h-1zM53 50h1v1h-1zM54 50h1v1h-1zM55 50h1v1h-1zM56 50h1v1h-1zM57 50h1v1h-1zM58 50h1v1h-1zM59 50h1v1h-1z"/><path fill="#B29190" d="M60 50h1v1h-1z"/><path fill="#7C7A77" d="M61 50h1v1h-1z"/><path fill="#5F5B56" d="M62 50h1v1h-1z"/><path fill="#58534E" d="M63 50h1v1h-1z"/><path fill="#605C57" d="M64 50h1v1h-1z"/><path fill="#DADEE0" d="M65 50h1v1h-1zM66 50h1v1h-1zM67 50h1v1h-1z"/><path fill="#BABBBC" d="M68 50h1v1h-1z"/><path fill="#58534E" d="M69 50h1v1h-1zM70 50h1v1h-1zM71 50h1v1h-1zM72 50h1v1h-1z"/><path fill="#47413C" d="M73 50h1v1h-1z"/><path fill="#231815" d="M74 50h1v1h-1zM75 50h1v1h-1zM76 50h1v1h-1zM77 50h1v1h-1zM19 51h1v1h-1zM20 51h1v1h-1zM21 51h1v1h-1zM22 51h1v1h-1zM23 51h1v1h-1zM24 51h1v1h-1z"/><path fill="#312724" d="M25 51h1v1h-1z"/><path fill="#7C7B78" d="M26 51h1v1h-1z"/><path fill="#91928F" d="M27 51h1v1h-1zM28 51h1v1h-1zM29 51h1v1h-1zM30 51h1v1h-1zM31 51h1v1h-1zM32 51h1v1h-1zM33 51h1v1h-1zM34 51h1v1h-1zM35 51h1v1h-1zM36 51h1v1h-1z"/><path fill="#C3C6C7" d="M37 51h1v1h-1z"/><path fill="#DADEE0" d="M38 51h1v1h-1zM39 51h1v1h-1zM40 51h1v1h-1z"/><path fill="#A3A5A3" d="M41 51h1v1h-1z"/><path fill="#91928F" d="M42 51h1v1h-1zM43 51h1v1h-1zM44 51h1v1h-1z"/><path fill="#A19190" d="M45 51h1v1h-1z"/><path fill="#E38F92" d="M46 51h1v1h-1z"/><path fill="#E88F92" d="M47 51h1v1h-1zM48 51h1v1h-1zM49 51h1v1h-1zM50 51h1v1h-1zM51 51h1v1h-1zM52 51h1v1h-1zM53 51h1v1h-1zM54 51h1v1h-1zM55 51h1v1h-1zM56 51h1v1h-1zM57 51h1v1h-1zM58 51h1v1h-1z"/><path fill="#D29091" d="M59 51h1v1h-1z"/><path fill="#91928F" d="M60 51h1v1h-1zM61 51h1v1h-1z"/><path fill="#8D8E8B" d="M62 51h1v1h-1z"/><path fill="#75736F" d="M63 51h1v1h-1z"/><path fill="#949492" d="M64 51h1v1h-1z"/><path fill="#DADEE0" d="M65 51h1v1h-1zM66 51h1v1h-1zM67 51h1v1h-1z"/><path fill="#999997" d="M68 51h1v1h-1z"/><path fill="#58534E" d="M69 51h1v1h-1zM70 51h1v1h-1zM71 51h1v1h-1zM72 51h1v1h-1z"/><path fill="#372E2A" d="M73 51h1v1h-1z"/><path fill="#231815" d="M74 51h1v1h-1zM75 51h1v1h-1zM76 51h1v1h-1zM77 51h1v1h-1zM18 52h1v1h-1zM19 52h1v1h-1zM20 52h1v1h-1zM21 52h1v1h-1zM22 52h1v1h-1zM23 52h1v1h-1z"/><path fill="#453E3B" d="M24 52h1v1h-1z"/><path fill="#8A8A87" d="M25 52h1v1h-1z"/><path fill="#91928F" d="M26 52h1v1h-1zM27 52h1v1h-1zM28 52h1v1h-1zM29 52h1v1h-1zM30 52h1v1h-1zM31 52h1v1h-1zM32 52h1v1h-1zM33 52h1v1h-1zM34 52h1v1h-1zM35 52h1v1h-1zM36 52h1v1h-1z"/><path fill="#ACAFAD" d="M37 52h1v1h-1z"/><path fill="#DADEE0" d="M38 52h1v1h-1zM39 52h1v1h-1zM40 52h1v1h-1z"/><path fill="#C8CBCC" d="M41 52h1v1h-1z"/><path fill="#91928F" d="M42 52h1v1h-1zM43 52h1v1h-1zM44 52h1v1h-1zM45 52h1v1h-1z"/><path fill="#A19190" d="M46 52h1v1h-1z"/><path fill="#E38F92" d="M47 52h1v1h-1z"/><path fill="#E88F92" d="M48 52h1v1h-1zM49 52h1v1h-1zM50 52h1v1h-1zM51 52h1v1h-1zM52 52h1v1h-1zM53 52h1v1h-1zM54 52h1v1h-1zM55 52h1v1h-1zM56 52h1v1h-1zM57 52h1v1h-1z"/><path fill="#D89091" d="M58 52h1v1h-1z"/><path fill="#96928F" d="M59 52h1v1h-1z"/><path fill="#91928F" d="M60 52h1v1h-1zM61 52h1v1h-1zM62 52h1v1h-1zM63 52h1v1h-1z"/><path fill="#D1D5D6" d="M64 52h1v1h-1z"/><path fill="#DADEE0" d="M65 52h1v1h-1zM66 52h1v1h-1zM67 52h1v1h-1z"/><path fill="#706D69" d="M68 52h1v1h-1z"/><path fill="#58534E" d="M69 52h1v1h-1zM70 52h1v1h-1zM71 52h1v1h-1z"/><path fill="#514C47" d="M72 52h1v1h-1z"/><path fill="#231815" d="M73 52h1v1h-1zM74 52h1v1h-1zM75 52h1v1h-1zM76 52h1v1h-1zM16 53h1v1h-1zM17 53h1v1h-1zM18 53h1v1h-1zM19 53h1v1h-1zM20 53h1v1h-1zM21 53h1v1h-1z"/><path fill="#2E2422" d="M22 53h1v1h-1z"/><path fill="#8A8787" d="M23 53h1v1h-1z"/><path fill="#B6B8B8" d="M24 53h1v1h-1z"/><path fill="#91928F" d="M25 53h1v1h-1zM26 53h1v1h-1zM27 53h1v1h-1zM28 53h1v1h-1zM29 53h1v1h-1zM30 53h1v1h-1zM31 53h1v1h-1zM32 53h1v1h-1zM33 53h1v1h-1zM34 53h1v1h-1zM35 53h1v1h-1zM36 53h1v1h-1zM37 53h1v1h-1z"/><path fill="#D1D5D6" d="M38 53h1v1h-1z"/><path fill="#DADEE0" d="M39 53h1v1h-1zM40 53h1v1h-1zM41 53h1v1h-1z"/><path fill="#B1B3B2" d="M42 53h1v1h-1z"/><path fill="#91928F" d="M43 53h1v1h-1zM44 53h1v1h-1zM45 53h1v1h-1zM46 53h1v1h-1z"/><path fill="#A19190" d="M47 53h1v1h-1z"/><path fill="#D89091" d="M48 53h1v1h-1z"/><path fill="#E88F92" d="M49 53h1v1h-1zM50 53h1v1h-1zM51 53h1v1h-1zM52 53h1v1h-1zM53 53h1v1h-1zM54 53h1v1h-1zM55 53h1v1h-1zM56 53h1v1h-1z"/><path fill="#D29091" d="M57 53h1v1h-1z"/><path fill="#96928F" d="M58 53h1v1h-1z"/><path fill="#91928F" d="M59 53h1v1h-1zM60 53h1v1h-1zM61 53h1v1h-1zM62 53h1v1h-1z"/><path fill="#B1B3B2" d="M63 53h1v1h-1z"/><path fill="#DADEE0" d="M64 53h1v1h-1zM65 53h1v1h-1zM66 53h1v1h-1z"/><path fill="#C1C3C4" d="M67 53h1v1h-1z"/><path fill="#58534E" d="M68 53h1v1h-1zM69 53h1v1h-1zM70 53h1v1h-1zM71 53h1v1h-1z"/><path fill="#3E3632" d="M72 53h1v1h-1z"/><path fill="#231815" d="M73 53h1v1h-1zM74 53h1v1h-1zM75 53h1v1h-1zM76 53h1v1h-1zM15 54h1v1h-1zM16 54h1v1h-1zM17 54h1v1h-1zM18 54h1v1h-1zM19 54h1v1h-1zM20 54h1v1h-1z"/><path fill="#453D3B" d="M21 54h1v1h-1z"/><path fill="#B8B9BA" d="M22 54h1v1h-1z"/><path fill="#DADEE0" d="M23 54h1v1h-1zM24 54h1v1h-1z"/><path fill="#DADDDE" d="M25 54h1v1h-1z"/><path fill="#AFB0AE" d="M26 54h1v1h-1z"/><path fill="#91928F" d="M27 54h1v1h-1zM28 54h1v1h-1zM29 54h1v1h-1zM30 54h1v1h-1zM31 54h1v1h-1zM32 54h1v1h-1zM33 54h1v1h-1zM34 54h1v1h-1zM35 54h1v1h-1zM36 54h1v1h-1zM37 54h1v1h-1z"/><path fill="#ACAFAD" d="M38 54h1v1h-1z"/><path fill="#DADEE0" d="M39 54h1v1h-1zM40 54h1v1h-1zM41 54h1v1h-1z"/><path fill="#D5D9DB" d="M42 54h1v1h-1z"/><path fill="#9FA09E" d="M43 54h1v1h-1z"/><path fill="#91928F" d="M44 54h1v1h-1zM45 54h1v1h-1zM46 54h1v1h-1zM47 54h1v1h-1zM48 54h1v1h-1z"/><path fill="#B29190" d="M49 54h1v1h-1z"/><path fill="#CD9091" d="M50 54h1v1h-1z"/><path fill="#E38F92" d="M51 54h1v1h-1z"/><path fill="#E88F92" d="M52 54h1v1h-1zM53 54h1v1h-1z"/><path fill="#DD8F92" d="M54 54h1v1h-1z"/><path fill="#C79091" d="M55 54h1v1h-1z"/><path fill="#A79190" d="M56 54h1v1h-1z"/><path fill="#91928F" d="M57 54h1v1h-1zM58 54h1v1h-1zM59 54h1v1h-1zM60 54h1v1h-1zM61 54h1v1h-1z"/><path fill="#9A9C99" d="M62 54h1v1h-1z"/><path fill="#D5D9DB" d="M63 54h1v1h-1z"/><path fill="#DADEE0" d="M64 54h1v1h-1zM65 54h1v1h-1zM66 54h1v1h-1z"/><path fill="#ACAFAD" d="M67 54h1v1h-1z"/><path fill="#868683" d="M68 54h1v1h-1z"/><path fill="#66635E" d="M69 54h1v1h-1z"/><path fill="#58534E" d="M70 54h1v1h-1z"/><path fill="#554F4A" d="M71 54h1v1h-1z"/><path fill="#261C19" d="M72 54h1v1h-1z"/><path fill="#231815" d="M73 54h1v1h-1zM74 54h1v1h-1zM75 54h1v1h-1zM13 55h1v1h-1zM14 55h1v1h-1zM15 55h1v1h-1zM16 55h1v1h-1zM17 55h1v1h-1zM18 55h1v1h-1zM19 55h1v1h-1z"/><path fill="#7F7B7B" d="M20 55h1v1h-1z"/><path fill="#DADEE0" d="M21 55h1v1h-1zM22 55h1v1h-1zM23 55h1v1h-1zM24 55h1v1h-1z"/><path fill="#FFF" d="M25 55h1v1h-1zM26 55h1v1h-1zM27 55h1v1h-1z"/><path fill="#F1F1F1" d="M28 55h1v1h-1z"/><path fill="#E4E4E3" d="M29 55h1v1h-1z"/><path fill="#C8C9C7" d="M30 55h1v1h-1z"/><path fill="#C1C2C0" d="M31 55h1v1h-1z"/><path fill="#ADADAB" d="M32 55h1v1h-1z"/><path fill="#989996" d="M33 55h1v1h-1z"/><path fill="#91928F" d="M34 55h1v1h-1zM35 55h1v1h-1zM36 55h1v1h-1zM37 55h1v1h-1zM38 55h1v1h-1z"/><path fill="#C8CBCC" d="M39 55h1v1h-1z"/><path fill="#DADEE0" d="M40 55h1v1h-1zM41 55h1v1h-1zM42 55h1v1h-1z"/><path fill="#D5D9DB" d="M43 55h1v1h-1z"/><path fill="#9FA09E" d="M44 55h1v1h-1z"/><path fill="#91928F" d="M45 55h1v1h-1zM46 55h1v1h-1zM47 55h1v1h-1zM48 55h1v1h-1zM49 55h1v1h-1zM50 55h1v1h-1zM51 55h1v1h-1zM52 55h1v1h-1zM53 55h1v1h-1zM54 55h1v1h-1zM55 55h1v1h-1zM56 55h1v1h-1zM57 55h1v1h-1zM58 55h1v1h-1zM59 55h1v1h-1zM60 55h1v1h-1z"/><path fill="#969794" d="M61 55h1v1h-1z"/><path fill="#CCD0D1" d="M62 55h1v1h-1z"/><path fill="#DADEE0" d="M63 55h1v1h-1zM64 55h1v1h-1zM65 55h1v1h-1z"/><path fill="#C8CBCC" d="M66 55h1v1h-1z"/><path fill="#91928F" d="M67 55h1v1h-1zM68 55h1v1h-1zM69 55h1v1h-1z"/><path fill="#83827F" d="M70 55h1v1h-1z"/><path fill="#453D3A" d="M71 55h1v1h-1z"/><path fill="#231815" d="M72 55h1v1h-1zM73 55h1v1h-1zM74 55h1v1h-1zM75 55h1v1h-1zM12 56h1v1h-1zM13 56h1v1h-1zM14 56h1v1h-1zM15 56h1v1h-1zM16 56h1v1h-1zM17 56h1v1h-1z"/><path fill="#453D3B" d="M18 56h1v1h-1z"/><path fill="#B8B9BA" d="M19 56h1v1h-1z"/><path fill="#DADEE0" d="M20 56h1v1h-1zM21 56h1v1h-1zM22 56h1v1h-1zM23 56h1v1h-1z"/><path fill="#E3E6E8" d="M24 56h1v1h-1z"/><path fill="#FFF" d="M25 56h1v1h-1zM26 56h1v1h-1zM27 56h1v1h-1zM28 56h1v1h-1zM29 56h1v1h-1zM30 56h1v1h-1zM31 56h1v1h-1zM32 56h1v1h-1zM33 56h1v1h-1zM34 56h1v1h-1z"/><path fill="#CFCFCE" d="M35 56h1v1h-1z"/><path fill="#91928F" d="M36 56h1v1h-1zM37 56h1v1h-1zM38 56h1v1h-1z"/><path fill="#9A9C99" d="M39 56h1v1h-1z"/><path fill="#D5D9DB" d="M40 56h1v1h-1z"/><path fill="#DADEE0" d="M41 56h1v1h-1zM42 56h1v1h-1zM43 56h1v1h-1z"/><path fill="#D5D9DB" d="M44 56h1v1h-1z"/><path fill="#9FA09E" d="M45 56h1v1h-1z"/><path fill="#91928F" d="M46 56h1v1h-1zM47 56h1v1h-1zM48 56h1v1h-1zM49 56h1v1h-1zM50 56h1v1h-1zM51 56h1v1h-1zM52 56h1v1h-1zM53 56h1v1h-1zM54 56h1v1h-1zM55 56h1v1h-1zM56 56h1v1h-1zM57 56h1v1h-1zM58 56h1v1h-1zM59 56h1v1h-1z"/><path fill="#969794" d="M60 56h1v1h-1z"/><path fill="#CCD0D1" d="M61 56h1v1h-1z"/><path fill="#DADEE0" d="M62 56h1v1h-1zM63 56h1v1h-1zM64 56h1v1h-1z"/><path fill="#D5D9DB" d="M65 56h1v1h-1z"/><path fill="#9FA09E" d="M66 56h1v1h-1z"/><path fill="#91928F" d="M67 56h1v1h-1zM68 56h1v1h-1zM69 56h1v1h-1z"/><path fill="#8A8A87" d="M70 56h1v1h-1z"/><path fill="#2A201D" d="M71 56h1v1h-1z"/><path fill="#231815" d="M72 56h1v1h-1zM73 56h1v1h-1zM74 56h1v1h-1zM75 56h1v1h-1zM10 57h1v1h-1zM11 57h1v1h-1zM12 57h1v1h-1zM13 57h1v1h-1zM14 57h1v1h-1zM15 57h1v1h-1zM16 57h1v1h-1z"/><path fill="#736F6E" d="M17 57h1v1h-1z"/><path fill="#DADEE0" d="M18 57h1v1h-1zM19 57h1v1h-1zM20 57h1v1h-1zM21 57h1v1h-1zM22 57h1v1h-1zM23 57h1v1h-1z"/><path fill="#E8EAEC" d="M24 57h1v1h-1z"/><path fill="#FFF" d="M25 57h1v1h-1zM26 57h1v1h-1zM27 57h1v1h-1zM28 57h1v1h-1zM29 57h1v1h-1zM30 57h1v1h-1zM31 57h1v1h-1zM32 57h1v1h-1zM33 57h1v1h-1zM34 57h1v1h-1z"/><path fill="#E4E4E3" d="M35 57h1v1h-1z"/><path fill="#91928F" d="M36 57h1v1h-1zM37 57h1v1h-1zM38 57h1v1h-1zM39 57h1v1h-1z"/><path fill="#A3A5A3" d="M40 57h1v1h-1z"/><path fill="#DADEE0" d="M41 57h1v1h-1zM42 57h1v1h-1zM43 57h1v1h-1zM44 57h1v1h-1zM45 57h1v1h-1z"/><path fill="#B6B8B8" d="M46 57h1v1h-1z"/><path fill="#91928F" d="M47 57h1v1h-1zM48 57h1v1h-1zM49 57h1v1h-1zM50 57h1v1h-1zM51 57h1v1h-1zM52 57h1v1h-1zM53 57h1v1h-1zM54 57h1v1h-1zM55 57h1v1h-1zM56 57h1v1h-1zM57 57h1v1h-1zM58 57h1v1h-1z"/><path fill="#A3A5A3" d="M59 57h1v1h-1z"/><path fill="#D5D9DB" d="M60 57h1v1h-1z"/><path fill="#DADEE0" d="M61 57h1v1h-1zM62 57h1v1h-1zM63 57h1v1h-1zM64 57h1v1h-1z"/><path fill="#ACAFAD" d="M65 57h1v1h-1z"/><path fill="#91928F" d="M66 57h1v1h-1zM67 57h1v1h-1zM68 57h1v1h-1zM69 57h1v1h-1z"/><path fill="#5A5552" d="M70 57h1v1h-1z"/><path fill="#231815" d="M71 57h1v1h-1zM72 57h1v1h-1zM73 57h1v1h-1zM74 57h1v1h-1zM9 58h1v1H9zM10 58h1v1h-1zM11 58h1v1h-1zM12 58h1v1h-1zM13 58h1v1h-1zM14 58h1v1h-1z"/><path fill="#3A312E" d="M15 58h1v1h-1z"/><path fill="#ACADAD" d="M16 58h1v1h-1z"/><path fill="#DADEE0" d="M17 58h1v1h-1zM18 58h1v1h-1zM19 58h1v1h-1zM20 58h1v1h-1zM21 58h1v1h-1zM22 58h1v1h-1zM23 58h1v1h-1z"/><path fill="#DCE0E2" d="M24 58h1v1h-1z"/><path fill="#E3E6E8" d="M25 58h1v1h-1z"/><path fill="#E8EAEC" d="M26 58h1v1h-1z"/><path fill="#EDEFF0" d="M27 58h1v1h-1z"/><path fill="#F6F7F7" d="M28 58h1v1h-1z"/><path fill="#F8F9F9" d="M29 58h1v1h-1z"/><path fill="#FFF" d="M30 58h1v1h-1zM31 58h1v1h-1zM32 58h1v1h-1zM33 58h1v1h-1zM34 58h1v1h-1zM35 58h1v1h-1z"/><path fill="#91928F" d="M36 58h1v1h-1zM37 58h1v1h-1zM38 58h1v1h-1zM39 58h1v1h-1zM40 58h1v1h-1z"/><path fill="#ACAFAD" d="M41 58h1v1h-1z"/><path fill="#DADEE0" d="M42 58h1v1h-1zM43 58h1v1h-1zM44 58h1v1h-1zM45 58h1v1h-1zM46 58h1v1h-1z"/><path fill="#D1D5D6" d="M47 58h1v1h-1z"/><path fill="#B1B3B2" d="M48 58h1v1h-1z"/><path fill="#969794" d="M49 58h1v1h-1z"/><path fill="#91928F" d="M50 58h1v1h-1zM51 58h1v1h-1zM52 58h1v1h-1zM53 58h1v1h-1zM54 58h1v1h-1zM55 58h1v1h-1zM56 58h1v1h-1z"/><path fill="#A8AAA8" d="M57 58h1v1h-1z"/><path fill="#C8CBCC" d="M58 58h1v1h-1z"/><path fill="#DADEE0" d="M59 58h1v1h-1zM60 58h1v1h-1zM61 58h1v1h-1zM62 58h1v1h-1zM63 58h1v1h-1z"/><path fill="#ACAFAD" d="M64 58h1v1h-1z"/><path fill="#91928F" d="M65 58h1v1h-1zM66 58h1v1h-1zM67 58h1v1h-1zM68 58h1v1h-1z"/><path fill="#838380" d="M69 58h1v1h-1z"/><path fill="#231815" d="M70 58h1v1h-1zM71 58h1v1h-1zM72 58h1v1h-1zM73 58h1v1h-1zM74 58h1v1h-1zM7 59h1v1H7zM8 59h1v1H8zM9 59h1v1H9zM10 59h1v1h-1zM11 59h1v1h-1zM12 59h1v1h-1zM13 59h1v1h-1z"/><path fill="#7F7B7B" d="M14 59h1v1h-1z"/><path fill="#CFD2D3" d="M15 59h1v1h-1z"/><path fill="#DADEE0" d="M16 59h1v1h-1zM17 59h1v1h-1zM18 59h1v1h-1zM19 59h1v1h-1zM20 59h1v1h-1zM21 59h1v1h-1zM22 59h1v1h-1zM23 59h1v1h-1zM24 59h1v1h-1zM25 59h1v1h-1zM26 59h1v1h-1zM27 59h1v1h-1zM28 59h1v1h-1zM29 59h1v1h-1zM30 59h1v1h-1z"/><path fill="#E1E4E6" d="M31 59h1v1h-1z"/><path fill="#F1F3F3" d="M32 59h1v1h-1z"/><path fill="#FFF" d="M33 59h1v1h-1zM34 59h1v1h-1zM35 59h1v1h-1z"/><path fill="#91928F" d="M36 59h1v1h-1zM37 59h1v1h-1zM38 59h1v1h-1zM39 59h1v1h-1zM40 59h1v1h-1zM41 59h1v1h-1z"/><path fill="#9FA09E" d="M42 59h1v1h-1z"/><path fill="#D5D9DB" d="M43 59h1v1h-1z"/><path fill="#DADEE0" d="M44 59h1v1h-1zM45 59h1v1h-1zM46 59h1v1h-1zM47 59h1v1h-1zM48 59h1v1h-1zM49 59h1v1h-1z"/><path fill="#CCD0D1" d="M50 59h1v1h-1z"/><path fill="#BABDBD" d="M51 59h1v1h-1z"/><path fill="#B6B8B8" d="M52 59h1v1h-1zM53 59h1v1h-1zM54 59h1v1h-1z"/><path fill="#C8CBCC" d="M55 59h1v1h-1z"/><path fill="#D5D9DB" d="M56 59h1v1h-1z"/><path fill="#DADEE0" d="M57 59h1v1h-1zM58 59h1v1h-1zM59 59h1v1h-1zM60 59h1v1h-1zM61 59h1v1h-1zM62 59h1v1h-1z"/><path fill="#ACAFAD" d="M63 59h1v1h-1z"/><path fill="#91928F" d="M64 59h1v1h-1zM65 59h1v1h-1zM66 59h1v1h-1zM67 59h1v1h-1zM68 59h1v1h-1z"/><path fill="#453E3B" d="M69 59h1v1h-1z"/><path fill="#231815" d="M70 59h1v1h-1zM71 59h1v1h-1zM72 59h1v1h-1zM73 59h1v1h-1zM5 60h1v1H5zM6 60h1v1H6zM7 60h1v1H7zM8 60h1v1H8zM9 60h1v1H9zM10 60h1v1h-1zM11 60h1v1h-1z"/><path fill="#453D3B" d="M12 60h1v1h-1z"/><path fill="#B8B9BA" d="M13 60h1v1h-1z"/><path fill="#DADEE0" d="M14 60h1v1h-1zM15 60h1v1h-1zM16 60h1v1h-1zM17 60h1v1h-1zM18 60h1v1h-1zM19 60h1v1h-1zM20 60h1v1h-1zM21 60h1v1h-1zM22 60h1v1h-1zM23 60h1v1h-1zM24 60h1v1h-1zM25 60h1v1h-1zM26 60h1v1h-1zM27 60h1v1h-1zM28 60h1v1h-1zM29 60h1v1h-1zM30 60h1v1h-1zM31 60h1v1h-1z"/><path fill="#E8EAEC" d="M32 60h1v1h-1z"/><path fill="#FFF" d="M33 60h1v1h-1zM34 60h1v1h-1zM35 60h1v1h-1z"/><path fill="#C6C8C7" d="M36 60h1v1h-1z"/><path fill="#9A9C99" d="M37 60h1v1h-1z"/><path fill="#91928F" d="M38 60h1v1h-1zM39 60h1v1h-1zM40 60h1v1h-1zM41 60h1v1h-1zM42 60h1v1h-1z"/><path fill="#969794" d="M43 60h1v1h-1z"/><path fill="#C3C6C7" d="M44 60h1v1h-1z"/><path fill="#DADEE0" d="M45 60h1v1h-1zM46 60h1v1h-1zM47 60h1v1h-1zM48 60h1v1h-1zM49 60h1v1h-1zM50 60h1v1h-1zM51 60h1v1h-1zM52 60h1v1h-1zM53 60h1v1h-1zM54 60h1v1h-1zM55 60h1v1h-1zM56 60h1v1h-1zM57 60h1v1h-1zM58 60h1v1h-1zM59 60h1v1h-1zM60 60h1v1h-1z"/><path fill="#D1D5D6" d="M61 60h1v1h-1z"/><path fill="#9FA09E" d="M62 60h1v1h-1z"/><path fill="#91928F" d="M63 60h1v1h-1zM64 60h1v1h-1zM65 60h1v1h-1zM66 60h1v1h-1zM67 60h1v1h-1z"/><path fill="#767471" d="M68 60h1v1h-1z"/><path fill="#231815" d="M69 60h1v1h-1zM70 60h1v1h-1zM71 60h1v1h-1zM72 60h1v1h-1zM73 60h1v1h-1zM4 61h1v1H4zM5 61h1v1H5zM6 61h1v1H6zM7 61h1v1H7zM8 61h1v1H8zM9 61h1v1H9zM10 61h1v1h-1z"/><path fill="#7F7B7B" d="M11 61h1v1h-1z"/><path fill="#DADEE0" d="M12 61h1v1h-1zM13 61h1v1h-1zM14 61h1v1h-1zM15 61h1v1h-1zM16 61h1v1h-1zM17 61h1v1h-1zM18 61h1v1h-1zM19 61h1v1h-1zM20 61h1v1h-1zM21 61h1v1h-1zM22 61h1v1h-1zM23 61h1v1h-1zM24 61h1v1h-1zM25 61h1v1h-1zM26 61h1v1h-1zM27 61h1v1h-1zM28 61h1v1h-1zM29 61h1v1h-1zM30 61h1v1h-1zM31 61h1v1h-1z"/><path fill="#E3E6E8" d="M32 61h1v1h-1z"/><path fill="#FFF" d="M33 61h1v1h-1zM34 61h1v1h-1zM35 61h1v1h-1z"/><path fill="#E3E6E8" d="M36 61h1v1h-1z"/><path fill="#D5D9DB" d="M37 61h1v1h-1z"/><path fill="#B6B8B8" d="M38 61h1v1h-1z"/><path fill="#969794" d="M39 61h1v1h-1z"/><path fill="#91928F" d="M40 61h1v1h-1zM41 61h1v1h-1zM42 61h1v1h-1zM43 61h1v1h-1zM44 61h1v1h-1z"/><path fill="#A3A5A3" d="M45 61h1v1h-1z"/><path fill="#C8CBCC" d="M46 61h1v1h-1z"/><path fill="#DADEE0" d="M47 61h1v1h-1zM48 61h1v1h-1zM49 61h1v1h-1zM50 61h1v1h-1zM51 61h1v1h-1zM52 61h1v1h-1zM53 61h1v1h-1zM54 61h1v1h-1zM55 61h1v1h-1zM56 61h1v1h-1zM57 61h1v1h-1zM58 61h1v1h-1z"/><path fill="#D1D5D6" d="M59 61h1v1h-1z"/><path fill="#B6B8B8" d="M60 61h1v1h-1z"/><path fill="#91928F" d="M61 61h1v1h-1zM62 61h1v1h-1zM63 61h1v1h-1zM64 61h1v1h-1zM65 61h1v1h-1zM66 61h1v1h-1z"/><path fill="#8A8A87" d="M67 61h1v1h-1z"/><path fill="#312724" d="M68 61h1v1h-1z"/><path fill="#231815" d="M69 61h1v1h-1zM70 61h1v1h-1zM71 61h1v1h-1zM72 61h1v1h-1zM2 62h1v1H2zM3 62h1v1H3zM4 62h1v1H4zM5 62h1v1H5zM6 62h1v1H6zM7 62h1v1H7zM8 62h1v1H8z"/><path fill="#514A48" d="M9 62h1v1H9z"/><path fill="#B8B9BA" d="M10 62h1v1h-1z"/><path fill="#DADEE0" d="M11 62h1v1h-1zM12 62h1v1h-1zM13 62h1v1h-1zM14 62h1v1h-1zM15 62h1v1h-1zM16 62h1v1h-1zM17 62h1v1h-1zM18 62h1v1h-1zM19 62h1v1h-1zM20 62h1v1h-1zM21 62h1v1h-1zM22 62h1v1h-1zM23 62h1v1h-1zM24 62h1v1h-1zM25 62h1v1h-1zM26 62h1v1h-1zM27 62h1v1h-1zM28 62h1v1h-1zM29 62h1v1h-1zM30 62h1v1h-1zM31 62h1v1h-1z"/><path fill="#E1E4E6" d="M32 62h1v1h-1z"/><path fill="#FFF" d="M33 62h1v1h-1zM34 62h1v1h-1zM35 62h1v1h-1z"/><path fill="#EAECEE" d="M36 62h1v1h-1z"/><path fill="#DADEE0" d="M37 62h1v1h-1zM38 62h1v1h-1z"/><path fill="#D1D5D6" d="M39 62h1v1h-1z"/><path fill="#ACAFAD" d="M40 62h1v1h-1z"/><path fill="#91928F" d="M41 62h1v1h-1zM42 62h1v1h-1zM43 62h1v1h-1zM44 62h1v1h-1zM45 62h1v1h-1zM46 62h1v1h-1z"/><path fill="#9A9C99" d="M47 62h1v1h-1z"/><path fill="#B6B8B8" d="M48 62h1v1h-1z"/><path fill="#C8CBCC" d="M49 62h1v1h-1z"/><path fill="#DADEE0" d="M50 62h1v1h-1zM51 62h1v1h-1zM52 62h1v1h-1zM53 62h1v1h-1zM54 62h1v1h-1zM55 62h1v1h-1z"/><path fill="#D1D5D6" d="M56 62h1v1h-1z"/><path fill="#BFC2C2" d="M57 62h1v1h-1z"/><path fill="#A8AAA8" d="M58 62h1v1h-1z"/><path fill="#91928F" d="M59 62h1v1h-1zM60 62h1v1h-1zM61 62h1v1h-1zM62 62h1v1h-1zM63 62h1v1h-1zM64 62h1v1h-1zM65 62h1v1h-1zM66 62h1v1h-1z"/><path fill="#534D4A" d="M67 62h1v1h-1z"/><path fill="#231815" d="M68 62h1v1h-1zM69 62h1v1h-1zM70 62h1v1h-1zM71 62h1v1h-1zM1 63h1v1H1zM2 63h1v1H2zM3 63h1v1H3zM4 63h1v1H4zM5 63h1v1H5zM6 63h1v1H6z"/><path fill="#2E2422" d="M7 63h1v1H7z"/><path fill="#8A8787" d="M8 63h1v1H8z"/><path fill="#DADEE0" d="M9 63h1v1H9zM10 63h1v1h-1z"/><path fill="#E3E6E8" d="M11 63h1v1h-1z"/><path fill="#FFF" d="M12 63h1v1h-1zM13 63h1v1h-1zM14 63h1v1h-1zM15 63h1v1h-1zM16 63h1v1h-1zM17 63h1v1h-1zM18 63h1v1h-1zM19 63h1v1h-1zM20 63h1v1h-1zM21 63h1v1h-1zM22 63h1v1h-1zM23 63h1v1h-1zM24 63h1v1h-1zM25 63h1v1h-1zM26 63h1v1h-1zM27 63h1v1h-1zM28 63h1v1h-1zM29 63h1v1h-1zM30 63h1v1h-1zM31 63h1v1h-1zM32 63h1v1h-1zM33 63h1v1h-1zM34 63h1v1h-1zM35 63h1v1h-1zM36 63h1v1h-1zM37 63h1v1h-1zM38 63h1v1h-1zM39 63h1v1h-1zM40 63h1v1h-1zM41 63h1v1h-1zM42 63h1v1h-1zM43 63h1v1h-1zM44 63h1v1h-1z"/><path fill="#C1C2C0" d="M45 63h1v1h-1z"/><path fill="#91928F" d="M46 63h1v1h-1zM47 63h1v1h-1zM48 63h1v1h-1zM49 63h1v1h-1zM50 63h1v1h-1z"/><path fill="#969794" d="M51 63h1v1h-1z"/><path fill="#A3A5A3" d="M52 63h1v1h-1zM53 63h1v1h-1z"/><path fill="#9FA09E" d="M54 63h1v1h-1z"/><path fill="#91928F" d="M55 63h1v1h-1zM56 63h1v1h-1zM57 63h1v1h-1zM58 63h1v1h-1zM59 63h1v1h-1zM60 63h1v1h-1zM61 63h1v1h-1zM62 63h1v1h-1zM63 63h1v1h-1zM64 63h1v1h-1zM65 63h1v1h-1z"/><path fill="#686461" d="M66 63h1v1h-1z"/><path fill="#231815" d="M67 63h1v1h-1zM68 63h1v1h-1zM69 63h1v1h-1zM70 63h1v1h-1zM71 63h1v1h-1zM0 64h1v1H0zM1 64h1v1H1zM2 64h1v1H2zM3 64h1v1H3zM4 64h1v1H4zM5 64h1v1H5z"/><path fill="#5C5654" d="M6 64h1v1H6z"/><path fill="#C3C5C7" d="M7 64h1v1H7z"/><path fill="#DADEE0" d="M8 64h1v1H8zM9 64h1v1H9zM10 64h1v1h-1z"/><path fill="#E3E6E8" d="M11 64h1v1h-1z"/><path fill="#FFF" d="M12 64h1v1h-1zM13 64h1v1h-1zM14 64h1v1h-1zM15 64h1v1h-1zM16 64h1v1h-1zM17 64h1v1h-1zM18 64h1v1h-1zM19 64h1v1h-1zM20 64h1v1h-1zM21 64h1v1h-1zM22 64h1v1h-1zM23 64h1v1h-1zM24 64h1v1h-1zM25 64h1v1h-1zM26 64h1v1h-1zM27 64h1v1h-1zM28 64h1v1h-1zM29 64h1v1h-1zM30 64h1v1h-1zM31 64h1v1h-1zM32 64h1v1h-1zM33 64h1v1h-1zM34 64h1v1h-1zM35 64h1v1h-1zM36 64h1v1h-1zM37 64h1v1h-1zM38 64h1v1h-1zM39 64h1v1h-1zM40 64h1v1h-1zM41 64h1v1h-1zM42 64h1v1h-1zM43 64h1v1h-1zM44 64h1v1h-1z"/><path fill="#F8F8F8" d="M45 64h1v1h-1z"/><path fill="#989996" d="M46 64h1v1h-1z"/><path fill="#91928F" d="M47 64h1v1h-1zM48 64h1v1h-1zM49 64h1v1h-1zM50 64h1v1h-1zM51 64h1v1h-1zM52 64h1v1h-1zM53 64h1v1h-1zM54 64h1v1h-1zM55 64h1v1h-1zM56 64h1v1h-1zM57 64h1v1h-1zM58 64h1v1h-1zM59 64h1v1h-1zM60 64h1v1h-1zM61 64h1v1h-1zM62 64h1v1h-1zM63 64h1v1h-1zM64 64h1v1h-1z"/><path fill="#7C7B78" d="M65 64h1v1h-1z"/><path fill="#2A201D" d="M66 64h1v1h-1z"/><path fill="#231815" d="M67 64h1v1h-1zM68 64h1v1h-1zM69 64h1v1h-1zM70 64h1v1h-1zM0 65h1v1H0zM1 65h1v1H1zM2 65h1v1H2zM3 65h1v1H3zM4 65h1v1H4z"/><path fill="#3A312E" d="M5 65h1v1H5z"/><path fill="#C3C5C7" d="M6 65h1v1H6z"/><path fill="#DADEE0" d="M7 65h1v1H7zM8 65h1v1H8zM9 65h1v1H9zM10 65h1v1h-1z"/><path fill="#E3E6E8" d="M11 65h1v1h-1z"/><path fill="#FFF" d="M12 65h1v1h-1zM13 65h1v1h-1zM14 65h1v1h-1zM15 65h1v1h-1zM16 65h1v1h-1zM17 65h1v1h-1zM18 65h1v1h-1zM19 65h1v1h-1zM20 65h1v1h-1zM21 65h1v1h-1zM22 65h1v1h-1zM23 65h1v1h-1zM24 65h1v1h-1zM25 65h1v1h-1zM26 65h1v1h-1zM27 65h1v1h-1zM28 65h1v1h-1zM29 65h1v1h-1zM30 65h1v1h-1zM31 65h1v1h-1zM32 65h1v1h-1zM33 65h1v1h-1zM34 65h1v1h-1zM35 65h1v1h-1zM36 65h1v1h-1zM37 65h1v1h-1zM38 65h1v1h-1zM39 65h1v1h-1zM40 65h1v1h-1zM41 65h1v1h-1zM42 65h1v1h-1zM43 65h1v1h-1zM44 65h1v1h-1zM45 65h1v1h-1z"/><path fill="#D6D6D5" d="M46 65h1v1h-1z"/><path fill="#91928F" d="M47 65h1v1h-1zM48 65h1v1h-1zM49 65h1v1h-1zM50 65h1v1h-1zM51 65h1v1h-1zM52 65h1v1h-1zM53 65h1v1h-1zM54 65h1v1h-1zM55 65h1v1h-1zM56 65h1v1h-1zM57 65h1v1h-1zM58 65h1v1h-1zM59 65h1v1h-1zM60 65h1v1h-1zM61 65h1v1h-1zM62 65h1v1h-1zM63 65h1v1h-1z"/><path fill="#6F6C69" d="M64 65h1v1h-1z"/><path fill="#2A201D" d="M65 65h1v1h-1z"/><path fill="#231815" d="M66 65h1v1h-1zM67 65h1v1h-1zM68 65h1v1h-1zM69 65h1v1h-1zM0 66h1v1H0zM1 66h1v1H1zM2 66h1v1H2zM3 66h1v1H3zM4 66h1v1H4zM5 66h1v1H5zM6 66h1v1H6z"/><path fill="#7F7B7B" d="M7 66h1v1H7z"/><path fill="#CFD2D3" d="M8 66h1v1H8z"/><path fill="#DADEE0" d="M9 66h1v1H9zM10 66h1v1h-1z"/><path fill="#DFE2E4" d="M11 66h1v1h-1z"/><path fill="#EDEFF0" d="M12 66h1v1h-1zM13 66h1v1h-1zM14 66h1v1h-1zM15 66h1v1h-1zM16 66h1v1h-1zM17 66h1v1h-1zM18 66h1v1h-1zM19 66h1v1h-1zM20 66h1v1h-1zM21 66h1v1h-1zM22 66h1v1h-1zM23 66h1v1h-1zM24 66h1v1h-1zM25 66h1v1h-1zM26 66h1v1h-1zM27 66h1v1h-1zM28 66h1v1h-1zM29 66h1v1h-1zM30 66h1v1h-1zM31 66h1v1h-1zM32 66h1v1h-1z"/><path fill="#FAFBFB" d="M33 66h1v1h-1z"/><path fill="#FFF" d="M34 66h1v1h-1zM35 66h1v1h-1zM36 66h1v1h-1z"/><path fill="#EDEFF0" d="M37 66h1v1h-1zM38 66h1v1h-1zM39 66h1v1h-1zM40 66h1v1h-1zM41 66h1v1h-1zM42 66h1v1h-1z"/><path fill="#FDFDFD" d="M43 66h1v1h-1z"/><path fill="#FFF" d="M44 66h1v1h-1zM45 66h1v1h-1zM46 66h1v1h-1z"/><path fill="#BABCBA" d="M47 66h1v1h-1z"/><path fill="#91928F" d="M48 66h1v1h-1zM49 66h1v1h-1zM50 66h1v1h-1zM51 66h1v1h-1zM52 66h1v1h-1zM53 66h1v1h-1zM54 66h1v1h-1zM55 66h1v1h-1zM56 66h1v1h-1zM57 66h1v1h-1zM58 66h1v1h-1zM59 66h1v1h-1zM60 66h1v1h-1zM61 66h1v1h-1zM62 66h1v1h-1z"/><path fill="#5A5552" d="M63 66h1v1h-1z"/><path fill="#231815" d="M64 66h1v1h-1zM65 66h1v1h-1zM66 66h1v1h-1zM67 66h1v1h-1zM68 66h1v1h-1zM1 67h1v1H1zM2 67h1v1H2zM3 67h1v1H3zM4 67h1v1H4zM5 67h1v1H5zM6 67h1v1H6zM7 67h1v1H7z"/><path fill="#3A312E" d="M8 67h1v1H8z"/><path fill="#A1A0A1" d="M9 67h1v1H9z"/><path fill="#DADEE0" d="M10 67h1v1h-1zM11 67h1v1h-1zM12 67h1v1h-1zM13 67h1v1h-1zM14 67h1v1h-1zM15 67h1v1h-1zM16 67h1v1h-1zM17 67h1v1h-1zM18 67h1v1h-1zM19 67h1v1h-1zM20 67h1v1h-1zM21 67h1v1h-1zM22 67h1v1h-1zM23 67h1v1h-1zM24 67h1v1h-1zM25 67h1v1h-1zM26 67h1v1h-1zM27 67h1v1h-1zM28 67h1v1h-1zM29 67h1v1h-1zM30 67h1v1h-1zM31 67h1v1h-1zM32 67h1v1h-1z"/><path fill="#EDEFF0" d="M33 67h1v1h-1z"/><path fill="#FFF" d="M34 67h1v1h-1zM35 67h1v1h-1zM36 67h1v1h-1z"/><path fill="#DADEE0" d="M37 67h1v1h-1zM38 67h1v1h-1zM39 67h1v1h-1zM40 67h1v1h-1zM41 67h1v1h-1zM42 67h1v1h-1z"/><path fill="#E6E8EA" d="M43 67h1v1h-1z"/><path fill="#FFF" d="M44 67h1v1h-1zM45 67h1v1h-1zM46 67h1v1h-1z"/><path fill="#FAFBFB" d="M47 67h1v1h-1z"/><path fill="#CCD0D1" d="M48 67h1v1h-1z"/><path fill="#A3A5A3" d="M49 67h1v1h-1z"/><path fill="#91928F" d="M50 67h1v1h-1zM51 67h1v1h-1zM52 67h1v1h-1zM53 67h1v1h-1zM54 67h1v1h-1zM55 67h1v1h-1zM56 67h1v1h-1zM57 67h1v1h-1zM58 67h1v1h-1zM59 67h1v1h-1zM60 67h1v1h-1z"/><path fill="#8A8A87" d="M61 67h1v1h-1z"/><path fill="#4C4643" d="M62 67h1v1h-1z"/><path fill="#231815" d="M63 67h1v1h-1zM64 67h1v1h-1zM65 67h1v1h-1zM66 67h1v1h-1zM67 67h1v1h-1zM68 67h1v1h-1zM3 68h1v1H3zM4 68h1v1H4zM5 68h1v1H5zM6 68h1v1H6zM7 68h1v1H7zM8 68h1v1H8zM9 68h1v1H9z"/><path fill="#514A48" d="M10 68h1v1h-1z"/><path fill="#C3C5C7" d="M11 68h1v1h-1z"/><path fill="#DADEE0" d="M12 68h1v1h-1zM13 68h1v1h-1zM14 68h1v1h-1zM15 68h1v1h-1zM16 68h1v1h-1zM17 68h1v1h-1zM18 68h1v1h-1zM19 68h1v1h-1zM20 68h1v1h-1zM21 68h1v1h-1zM22 68h1v1h-1zM23 68h1v1h-1zM24 68h1v1h-1zM25 68h1v1h-1zM26 68h1v1h-1zM27 68h1v1h-1zM28 68h1v1h-1zM29 68h1v1h-1zM30 68h1v1h-1zM31 68h1v1h-1zM32 68h1v1h-1z"/><path fill="#EDEFF0" d="M33 68h1v1h-1z"/><path fill="#FFF" d="M34 68h1v1h-1zM35 68h1v1h-1zM36 68h1v1h-1z"/><path fill="#DCE0E2" d="M37 68h1v1h-1z"/><path fill="#DADEE0" d="M38 68h1v1h-1zM39 68h1v1h-1zM40 68h1v1h-1zM41 68h1v1h-1zM42 68h1v1h-1zM43 68h1v1h-1z"/><path fill="#F6F7F7" d="M44 68h1v1h-1z"/><path fill="#FFF" d="M45 68h1v1h-1zM46 68h1v1h-1zM47 68h1v1h-1z"/><path fill="#EDEFF0" d="M48 68h1v1h-1z"/><path fill="#DADEE0" d="M49 68h1v1h-1z"/><path fill="#C3C6C7" d="M50 68h1v1h-1z"/><path fill="#9A9C99" d="M51 68h1v1h-1z"/><path fill="#91928F" d="M52 68h1v1h-1zM53 68h1v1h-1zM54 68h1v1h-1zM55 68h1v1h-1zM56 68h1v1h-1zM57 68h1v1h-1zM58 68h1v1h-1zM59 68h1v1h-1z"/><path fill="#838380" d="M60 68h1v1h-1z"/><path fill="#382F2C" d="M61 68h1v1h-1z"/><path fill="#231815" d="M62 68h1v1h-1zM63 68h1v1h-1zM64 68h1v1h-1zM65 68h1v1h-1zM66 68h1v1h-1zM67 68h1v1h-1zM5 69h1v1H5zM6 69h1v1H6zM7 69h1v1H7zM8 69h1v1H8zM9 69h1v1H9zM10 69h1v1h-1z"/><path fill="#2E2422" d="M11 69h1v1h-1z"/><path fill="#7F7B7B" d="M12 69h1v1h-1z"/><path fill="#DADEE0" d="M13 69h1v1h-1zM14 69h1v1h-1zM15 69h1v1h-1zM16 69h1v1h-1zM17 69h1v1h-1zM18 69h1v1h-1zM19 69h1v1h-1zM20 69h1v1h-1zM21 69h1v1h-1zM22 69h1v1h-1zM23 69h1v1h-1zM24 69h1v1h-1zM25 69h1v1h-1zM26 69h1v1h-1zM27 69h1v1h-1zM28 69h1v1h-1zM29 69h1v1h-1zM30 69h1v1h-1zM31 69h1v1h-1zM32 69h1v1h-1z"/><path fill="#E6E8EA" d="M33 69h1v1h-1z"/><path fill="#FFF" d="M34 69h1v1h-1zM35 69h1v1h-1zM36 69h1v1h-1z"/><path fill="#E3E6E8" d="M37 69h1v1h-1z"/><path fill="#DADEE0" d="M38 69h1v1h-1zM39 69h1v1h-1zM40 69h1v1h-1zM41 69h1v1h-1zM42 69h1v1h-1zM43 69h1v1h-1z"/><path fill="#DFE2E4" d="M44 69h1v1h-1z"/><path fill="#FFF" d="M45 69h1v1h-1zM46 69h1v1h-1zM47 69h1v1h-1zM48 69h1v1h-1z"/><path fill="#DFE2E4" d="M49 69h1v1h-1z"/><path fill="#DADEE0" d="M50 69h1v1h-1zM51 69h1v1h-1z"/><path fill="#BABDBD" d="M52 69h1v1h-1z"/><path fill="#969794" d="M53 69h1v1h-1z"/><path fill="#91928F" d="M54 69h1v1h-1zM55 69h1v1h-1zM56 69h1v1h-1zM57 69h1v1h-1zM58 69h1v1h-1z"/><path fill="#7C7B78" d="M59 69h1v1h-1z"/><path fill="#2A201D" d="M60 69h1v1h-1z"/><path fill="#231815" d="M61 69h1v1h-1zM62 69h1v1h-1zM63 69h1v1h-1zM64 69h1v1h-1zM65 69h1v1h-1zM6 70h1v1H6zM7 70h1v1H7zM8 70h1v1H8zM9 70h1v1H9zM10 70h1v1h-1zM11 70h1v1h-1zM12 70h1v1h-1z"/><path fill="#3A312E" d="M13 70h1v1h-1z"/><path fill="#ACADAD" d="M14 70h1v1h-1z"/><path fill="#DADEE0" d="M15 70h1v1h-1zM16 70h1v1h-1zM17 70h1v1h-1zM18 70h1v1h-1zM19 70h1v1h-1zM20 70h1v1h-1zM21 70h1v1h-1zM22 70h1v1h-1zM23 70h1v1h-1zM24 70h1v1h-1zM25 70h1v1h-1zM26 70h1v1h-1zM27 70h1v1h-1zM28 70h1v1h-1zM29 70h1v1h-1zM30 70h1v1h-1zM31 70h1v1h-1zM32 70h1v1h-1z"/><path fill="#E3E6E8" d="M33 70h1v1h-1z"/><path fill="#FFF" d="M34 70h1v1h-1zM35 70h1v1h-1zM36 70h1v1h-1z"/><path fill="#E3E6E8" d="M37 70h1v1h-1z"/><path fill="#DADEE0" d="M38 70h1v1h-1zM39 70h1v1h-1zM40 70h1v1h-1zM41 70h1v1h-1zM42 70h1v1h-1zM43 70h1v1h-1zM44 70h1v1h-1z"/><path fill="#EDEFF0" d="M45 70h1v1h-1z"/><path fill="#FFF" d="M46 70h1v1h-1zM47 70h1v1h-1zM48 70h1v1h-1z"/><path fill="#F6F7F7" d="M49 70h1v1h-1z"/><path fill="#DADEE0" d="M50 70h1v1h-1zM51 70h1v1h-1zM52 70h1v1h-1z"/><path fill="#D5D9DB" d="M53 70h1v1h-1z"/><path fill="#B1B3B2" d="M54 70h1v1h-1z"/><path fill="#91928F" d="M55 70h1v1h-1zM56 70h1v1h-1zM57 70h1v1h-1z"/><path fill="#686461" d="M58 70h1v1h-1z"/><path fill="#231815" d="M59 70h1v1h-1zM60 70h1v1h-1zM61 70h1v1h-1zM62 70h1v1h-1zM63 70h1v1h-1zM64 70h1v1h-1zM8 71h1v1H8zM9 71h1v1H9zM10 71h1v1h-1zM11 71h1v1h-1zM12 71h1v1h-1zM13 71h1v1h-1zM14 71h1v1h-1z"/><path fill="#5C5654" d="M15 71h1v1h-1z"/><path fill="#C3C5C7" d="M16 71h1v1h-1z"/><path fill="#DADEE0" d="M17 71h1v1h-1zM18 71h1v1h-1zM19 71h1v1h-1zM20 71h1v1h-1zM21 71h1v1h-1zM22 71h1v1h-1zM23 71h1v1h-1zM24 71h1v1h-1zM25 71h1v1h-1zM26 71h1v1h-1zM27 71h1v1h-1zM28 71h1v1h-1zM29 71h1v1h-1zM30 71h1v1h-1zM31 71h1v1h-1zM32 71h1v1h-1z"/><path fill="#DCE0E2" d="M33 71h1v1h-1z"/><path fill="#FFF" d="M34 71h1v1h-1zM35 71h1v1h-1zM36 71h1v1h-1z"/><path fill="#EDEFF0" d="M37 71h1v1h-1z"/><path fill="#DADEE0" d="M38 71h1v1h-1zM39 71h1v1h-1zM40 71h1v1h-1zM41 71h1v1h-1zM42 71h1v1h-1zM43 71h1v1h-1zM44 71h1v1h-1zM45 71h1v1h-1z"/><path fill="#FAFBFB" d="M46 71h1v1h-1z"/><path fill="#FFF" d="M47 71h1v1h-1z"/><path fill="#FDFDFD" d="M48 71h1v1h-1z"/><path fill="#E8EAEC" d="M49 71h1v1h-1z"/><path fill="#DADEE0" d="M50 71h1v1h-1zM51 71h1v1h-1zM52 71h1v1h-1zM53 71h1v1h-1zM54 71h1v1h-1z"/><path fill="#D1D5D6" d="M55 71h1v1h-1z"/><path fill="#A3A5A3" d="M56 71h1v1h-1z"/><path fill="#4C4643" d="M57 71h1v1h-1z"/><path fill="#231815" d="M58 71h1v1h-1zM59 71h1v1h-1zM60 71h1v1h-1zM61 71h1v1h-1zM62 71h1v1h-1zM63 71h1v1h-1zM10 72h1v1h-1zM11 72h1v1h-1zM12 72h1v1h-1zM13 72h1v1h-1zM14 72h1v1h-1zM15 72h1v1h-1z"/><path fill="#2E2422" d="M16 72h1v1h-1z"/><path fill="#7F7B7B" d="M17 72h1v1h-1z"/><path fill="#DADEE0" d="M18 72h1v1h-1zM19 72h1v1h-1zM20 72h1v1h-1zM21 72h1v1h-1zM22 72h1v1h-1zM23 72h1v1h-1zM24 72h1v1h-1zM25 72h1v1h-1zM26 72h1v1h-1zM27 72h1v1h-1zM28 72h1v1h-1zM29 72h1v1h-1zM30 72h1v1h-1zM31 72h1v1h-1zM32 72h1v1h-1zM33 72h1v1h-1z"/><path fill="#FFF" d="M34 72h1v1h-1zM35 72h1v1h-1zM36 72h1v1h-1z"/><path fill="#EDEFF0" d="M37 72h1v1h-1z"/><path fill="#DADEE0" d="M38 72h1v1h-1zM39 72h1v1h-1zM40 72h1v1h-1zM41 72h1v1h-1zM42 72h1v1h-1zM43 72h1v1h-1zM44 72h1v1h-1zM45 72h1v1h-1z"/><path fill="#E3E6E8" d="M46 72h1v1h-1z"/><path fill="#F1F3F3" d="M47 72h1v1h-1z"/><path fill="#DCE0E2" d="M48 72h1v1h-1z"/><path fill="#DADEE0" d="M49 72h1v1h-1zM50 72h1v1h-1zM51 72h1v1h-1zM52 72h1v1h-1zM53 72h1v1h-1zM54 72h1v1h-1z"/><path fill="#CFD2D3" d="M55 72h1v1h-1z"/><path fill="#514A48" d="M56 72h1v1h-1z"/><path fill="#231815" d="M57 72h1v1h-1zM58 72h1v1h-1zM59 72h1v1h-1zM60 72h1v1h-1zM61 72h1v1h-1zM62 72h1v1h-1zM11 73h1v1h-1zM12 73h1v1h-1zM13 73h1v1h-1zM14 73h1v1h-1zM15 73h1v1h-1zM16 73h1v1h-1zM17 73h1v1h-1z"/><path fill="#3A312E" d="M18 73h1v1h-1z"/><path fill="#ACADAD" d="M19 73h1v1h-1z"/><path fill="#DADEE0" d="M20 73h1v1h-1zM21 73h1v1h-1zM22 73h1v1h-1zM23 73h1v1h-1zM24 73h1v1h-1zM25 73h1v1h-1zM26 73h1v1h-1zM27 73h1v1h-1zM28 73h1v1h-1zM29 73h1v1h-1zM30 73h1v1h-1zM31 73h1v1h-1zM32 73h1v1h-1zM33 73h1v1h-1z"/><path fill="#FAFBFB" d="M34 73h1v1h-1z"/><path fill="#FFF" d="M35 73h1v1h-1zM36 73h1v1h-1z"/><path fill="#F6F7F7" d="M37 73h1v1h-1z"/><path fill="#DADEE0" d="M38 73h1v1h-1zM39 73h1v1h-1zM40 73h1v1h-1zM41 73h1v1h-1zM42 73h1v1h-1zM43 73h1v1h-1zM44 73h1v1h-1zM45 73h1v1h-1zM46 73h1v1h-1zM47 73h1v1h-1zM48 73h1v1h-1zM49 73h1v1h-1zM50 73h1v1h-1zM51 73h1v1h-1zM52 73h1v1h-1zM53 73h1v1h-1z"/><path fill="#B8B9BA" d="M54 73h1v1h-1z"/><path fill="#453D3B" d="M55 73h1v1h-1z"/><path fill="#231815" d="M56 73h1v1h-1zM57 73h1v1h-1zM58 73h1v1h-1zM59 73h1v1h-1zM60 73h1v1h-1zM13 74h1v1h-1zM14 74h1v1h-1zM15 74h1v1h-1zM16 74h1v1h-1zM17 74h1v1h-1zM18 74h1v1h-1zM19 74h1v1h-1z"/><path fill="#5C5654" d="M20 74h1v1h-1z"/><path fill="#CFD2D3" d="M21 74h1v1h-1z"/><path fill="#DADEE0" d="M22 74h1v1h-1zM23 74h1v1h-1zM24 74h1v1h-1zM25 74h1v1h-1zM26 74h1v1h-1zM27 74h1v1h-1zM28 74h1v1h-1zM29 74h1v1h-1zM30 74h1v1h-1zM31 74h1v1h-1zM32 74h1v1h-1zM33 74h1v1h-1z"/><path fill="#F6F7F7" d="M34 74h1v1h-1z"/><path fill="#FFF" d="M35 74h1v1h-1zM36 74h1v1h-1z"/><path fill="#F6F7F7" d="M37 74h1v1h-1z"/><path fill="#DADEE0" d="M38 74h1v1h-1zM39 74h1v1h-1zM40 74h1v1h-1zM41 74h1v1h-1zM42 74h1v1h-1zM43 74h1v1h-1zM44 74h1v1h-1zM45 74h1v1h-1zM46 74h1v1h-1zM47 74h1v1h-1zM48 74h1v1h-1zM49 74h1v1h-1zM50 74h1v1h-1zM51 74h1v1h-1zM52 74h1v1h-1z"/><path fill="#ACADAD" d="M53 74h1v1h-1z"/><path fill="#2E2422" d="M54 74h1v1h-1z"/><path fill="#231815" d="M55 74h1v1h-1zM56 74h1v1h-1zM57 74h1v1h-1zM58 74h1v1h-1zM59 74h1v1h-1zM14 75h1v1h-1zM15 75h1v1h-1zM16 75h1v1h-1zM17 75h1v1h-1zM18 75h1v1h-1zM19 75h1v1h-1zM20 75h1v1h-1z"/><path fill="#2E2422" d="M21 75h1v1h-1z"/><path fill="#8A8787" d="M22 75h1v1h-1z"/><path fill="#DADEE0" d="M23 75h1v1h-1zM24 75h1v1h-1zM25 75h1v1h-1zM26 75h1v1h-1zM27 75h1v1h-1zM28 75h1v1h-1zM29 75h1v1h-1zM30 75h1v1h-1zM31 75h1v1h-1zM32 75h1v1h-1zM33 75h1v1h-1z"/><path fill="#F1F3F3" d="M34 75h1v1h-1z"/><path fill="#FFF" d="M35 75h1v1h-1zM36 75h1v1h-1z"/><path fill="#FDFDFD" d="M37 75h1v1h-1z"/><path fill="#DADEE0" d="M38 75h1v1h-1zM39 75h1v1h-1zM40 75h1v1h-1zM41 75h1v1h-1zM42 75h1v1h-1zM43 75h1v1h-1zM44 75h1v1h-1zM45 75h1v1h-1zM46 75h1v1h-1zM47 75h1v1h-1zM48 75h1v1h-1zM49 75h1v1h-1zM50 75h1v1h-1zM51 75h1v1h-1z"/><path fill="#8A8787" d="M52 75h1v1h-1z"/><path fill="#231815" d="M53 75h1v1h-1zM54 75h1v1h-1zM55 75h1v1h-1zM56 75h1v1h-1zM57 75h1v1h-1zM58 75h1v1h-1zM16 76h1v1h-1zM17 76h1v1h-1zM18 76h1v1h-1zM19 76h1v1h-1zM20 76h1v1h-1zM21 76h1v1h-1zM22 76h1v1h-1z"/><path fill="#453D3B" d="M23 76h1v1h-1z"/><path fill="#ACADAD" d="M24 76h1v1h-1z"/><path fill="#DADEE0" d="M25 76h1v1h-1zM26 76h1v1h-1zM27 76h1v1h-1zM28 76h1v1h-1zM29 76h1v1h-1zM30 76h1v1h-1zM31 76h1v1h-1zM32 76h1v1h-1zM33 76h1v1h-1z"/><path fill="#EDEFF0" d="M34 76h1v1h-1z"/><path fill="#FFF" d="M35 76h1v1h-1zM36 76h1v1h-1zM37 76h1v1h-1z"/><path fill="#DADEE0" d="M38 76h1v1h-1zM39 76h1v1h-1zM40 76h1v1h-1zM41 76h1v1h-1zM42 76h1v1h-1zM43 76h1v1h-1zM44 76h1v1h-1zM45 76h1v1h-1zM46 76h1v1h-1zM47 76h1v1h-1zM48 76h1v1h-1zM49 76h1v1h-1zM50 76h1v1h-1z"/><path fill="#686261" d="M51 76h1v1h-1z"/><path fill="#231815" d="M52 76h1v1h-1zM53 76h1v1h-1zM54 76h1v1h-1zM55 76h1v1h-1zM56 76h1v1h-1zM57 76h1v1h-1zM18 77h1v1h-1zM19 77h1v1h-1zM20 77h1v1h-1zM21 77h1v1h-1zM22 77h1v1h-1zM23 77h1v1h-1zM24 77h1v1h-1z"/><path fill="#686261" d="M25 77h1v1h-1z"/><path fill="#CFD2D3" d="M26 77h1v1h-1z"/><path fill="#DADEE0" d="M27 77h1v1h-1zM28 77h1v1h-1zM29 77h1v1h-1zM30 77h1v1h-1zM31 77h1v1h-1zM32 77h1v1h-1zM33 77h1v1h-1z"/><path fill="#EAECEE" d="M34 77h1v1h-1z"/><path fill="#FFF" d="M35 77h1v1h-1zM36 77h1v1h-1zM37 77h1v1h-1z"/><path fill="#E1E4E6" d="M38 77h1v1h-1z"/><path fill="#DADEE0" d="M39 77h1v1h-1zM40 77h1v1h-1zM41 77h1v1h-1zM42 77h1v1h-1zM43 77h1v1h-1zM44 77h1v1h-1zM45 77h1v1h-1zM46 77h1v1h-1zM47 77h1v1h-1zM48 77h1v1h-1z"/><path fill="#CFD2D3" d="M49 77h1v1h-1z"/><path fill="#453D3B" d="M50 77h1v1h-1z"/><path fill="#231815" d="M51 77h1v1h-1zM52 77h1v1h-1zM53 77h1v1h-1zM54 77h1v1h-1zM55 77h1v1h-1zM56 77h1v1h-1zM19 78h1v1h-1zM20 78h1v1h-1zM21 78h1v1h-1zM22 78h1v1h-1zM23 78h1v1h-1zM24 78h1v1h-1zM25 78h1v1h-1z"/><path fill="#2E2422" d="M26 78h1v1h-1z"/><path fill="#8A8787" d="M27 78h1v1h-1z"/><path fill="#DADEE0" d="M28 78h1v1h-1zM29 78h1v1h-1zM30 78h1v1h-1zM31 78h1v1h-1zM32 78h1v1h-1zM33 78h1v1h-1z"/><path fill="#E3E6E8" d="M34 78h1v1h-1z"/><path fill="#FFF" d="M35 78h1v1h-1zM36 78h1v1h-1zM37 78h1v1h-1z"/><path fill="#E3E6E8" d="M38 78h1v1h-1z"/><path fill="#DADEE0" d="M39 78h1v1h-1zM40 78h1v1h-1zM41 78h1v1h-1zM42 78h1v1h-1zM43 78h1v1h-1zM44 78h1v1h-1zM45 78h1v1h-1zM46 78h1v1h-1zM47 78h1v1h-1z"/><path fill="#B8B9BA" d="M48 78h1v1h-1z"/><path fill="#3A312E" d="M49 78h1v1h-1z"/><path fill="#231815" d="M50 78h1v1h-1zM51 78h1v1h-1zM52 78h1v1h-1zM53 78h1v1h-1zM54 78h1v1h-1zM21 79h1v1h-1zM22 79h1v1h-1zM23 79h1v1h-1zM24 79h1v1h-1zM25 79h1v1h-1zM26 79h1v1h-1zM27 79h1v1h-1z"/><path fill="#453D3B" d="M28 79h1v1h-1z"/><path fill="#ACADAD" d="M29 79h1v1h-1z"/><path fill="#DADEE0" d="M30 79h1v1h-1zM31 79h1v1h-1zM32 79h1v1h-1zM33 79h1v1h-1z"/><path fill="#E3E6E8" d="M34 79h1v1h-1z"/><path fill="#FFF" d="M35 79h1v1h-1zM36 79h1v1h-1zM37 79h1v1h-1z"/><path fill="#E8EAEC" d="M38 79h1v1h-1z"/><path fill="#DADEE0" d="M39 79h1v1h-1zM40 79h1v1h-1zM41 79h1v1h-1zM42 79h1v1h-1zM43 79h1v1h-1zM44 79h1v1h-1zM45 79h1v1h-1zM46 79h1v1h-1z"/><path fill="#A1A0A1" d="M47 79h1v1h-1z"/><path fill="#2E2422" d="M48 79h1v1h-1z"/><path fill="#231815" d="M49 79h1v1h-1zM50 79h1v1h-1zM51 79h1v1h-1zM52 79h1v1h-1zM53 79h1v1h-1zM23 80h1v1h-1zM24 80h1v1h-1zM25 80h1v1h-1zM26 80h1v1h-1zM27 80h1v1h-1zM28 80h1v1h-1zM29 80h1v1h-1z"/><path fill="#736F6E" d="M30 80h1v1h-1z"/><path fill="#CFD2D3" d="M31 80h1v1h-1z"/><path fill="#DADEE0" d="M32 80h1v1h-1zM33 80h1v1h-1zM34 80h1v1h-1z"/><path fill="#FFF" d="M35 80h1v1h-1z"/><path fill="#FAFBFB" d="M36 80h1v1h-1z"/><path fill="#F6F7F7" d="M37 80h1v1h-1z"/><path fill="#E8EAEC" d="M38 80h1v1h-1z"/><path fill="#DADEE0" d="M39 80h1v1h-1zM40 80h1v1h-1zM41 80h1v1h-1zM42 80h1v1h-1zM43 80h1v1h-1zM44 80h1v1h-1zM45 80h1v1h-1z"/><path fill="#8A8787" d="M46 80h1v1h-1z"/><path fill="#231815" d="M47 80h1v1h-1zM48 80h1v1h-1zM49 80h1v1h-1zM50 80h1v1h-1zM51 80h1v1h-1zM52 80h1v1h-1zM24 81h1v1h-1zM25 81h1v1h-1zM26 81h1v1h-1zM27 81h1v1h-1zM28 81h1v1h-1zM29 81h1v1h-1zM30 81h1v1h-1z"/><path fill="#2E2422" d="M31 81h1v1h-1z"/><path fill="#959494" d="M32 81h1v1h-1z"/><path fill="#DADEE0" d="M33 81h1v1h-1zM34 81h1v1h-1zM35 81h1v1h-1zM36 81h1v1h-1zM37 81h1v1h-1zM38 81h1v1h-1zM39 81h1v1h-1zM40 81h1v1h-1zM41 81h1v1h-1zM42 81h1v1h-1zM43 81h1v1h-1z"/><path fill="#CFD2D3" d="M44 81h1v1h-1z"/><path fill="#686261" d="M45 81h1v1h-1z"/><path fill="#231815" d="M46 81h1v1h-1zM47 81h1v1h-1zM48 81h1v1h-1zM49 81h1v1h-1zM50 81h1v1h-1zM51 81h1v1h-1zM26 82h1v1h-1zM27 82h1v1h-1zM28 82h1v1h-1zM29 82h1v1h-1zM30 82h1v1h-1zM31 82h1v1h-1zM32 82h1v1h-1z"/><path fill="#514A48" d="M33 82h1v1h-1z"/><path fill="#B8B9BA" d="M34 82h1v1h-1z"/><path fill="#DADEE0" d="M35 82h1v1h-1zM36 82h1v1h-1zM37 82h1v1h-1zM38 82h1v1h-1zM39 82h1v1h-1zM40 82h1v1h-1zM41 82h1v1h-1zM42 82h1v1h-1z"/><path fill="#CFD2D3" d="M43 82h1v1h-1z"/><path fill="#453D3B" d="M44 82h1v1h-1z"/><path fill="#231815" d="M45 82h1v1h-1zM46 82h1v1h-1zM47 82h1v1h-1zM48 82h1v1h-1zM49 82h1v1h-1zM50 82h1v1h-1zM28 83h1v1h-1zM29 83h1v1h-1zM30 83h1v1h-1zM31 83h1v1h-1zM32 83h1v1h-1zM33 83h1v1h-1zM34 83h1v1h-1z"/><path fill="#736F6E" d="M35 83h1v1h-1z"/><path fill="#CFD2D3" d="M36 83h1v1h-1z"/><path fill="#DADEE0" d="M37 83h1v1h-1zM38 83h1v1h-1zM39 83h1v1h-1zM40 83h1v1h-1zM41 83h1v1h-1z"/><path fill="#B8B9BA" d="M42 83h1v1h-1z"/><path fill="#2E2422" d="M43 83h1v1h-1z"/><path fill="#231815" d="M44 83h1v1h-1zM45 83h1v1h-1zM46 83h1v1h-1zM47 83h1v1h-1zM48 83h1v1h-1zM29 84h1v1h-1zM30 84h1v1h-1zM31 84h1v1h-1zM32 84h1v1h-1zM33 84h1v1h-1zM34 84h1v1h-1zM35 84h1v1h-1z"/><path fill="#2E2422" d="M36 84h1v1h-1z"/><path fill="#959494" d="M37 84h1v1h-1z"/><path fill="#DADEE0" d="M38 84h1v1h-1zM39 84h1v1h-1zM40 84h1v1h-1z"/><path fill="#959494" d="M41 84h1v1h-1z"/><path fill="#2E2422" d="M42 84h1v1h-1z"/><path fill="#231815" d="M43 84h1v1h-1zM44 84h1v1h-1zM45 84h1v1h-1zM46 84h1v1h-1zM47 84h1v1h-1zM31 85h1v1h-1zM32 85h1v1h-1zM33 85h1v1h-1zM34 85h1v1h-1zM35 85h1v1h-1zM36 85h1v1h-1zM37 85h1v1h-1z"/><path fill="#514A48" d="M38 85h1v1h-1z"/><path fill="#C3C5C7" d="M39 85h1v1h-1z"/><path fill="#7F7B7B" d="M40 85h1v1h-1z"/><path fill="#231815" d="M41 85h1v1h-1zM42 85h1v1h-1zM43 85h1v1h-1zM44 85h1v1h-1zM45 85h1v1h-1zM46 85h1v1h-1zM33 86h1v1h-1zM34 86h1v1h-1zM35 86h1v1h-1zM36 86h1v1h-1zM37 86h1v1h-1zM38 86h1v1h-1zM39 86h1v1h-1zM40 86h1v1h-1zM41 86h1v1h-1zM42 86h1v1h-1zM43 86h1v1h-1zM44 86h1v1h-1zM45 86h1v1h-1zM34 87h1v1h-1zM35 87h1v1h-1zM36 87h1v1h-1zM37 87h1v1h-1zM38 87h1v1h-1zM39 87h1v1h-1zM40 87h1v1h-1zM41 87h1v1h-1zM42 87h1v1h-1zM43 87h1v1h-1zM44 87h1v1h-1zM36 88h1v1h-1zM37 88h1v1h-1zM38 88h1v1h-1zM39 88h1v1h-1zM40 88h1v1h-1zM41 88h1v1h-1zM42 88h1v1h-1zM38 89h1v1h-1zM39 89h1v1h-1zM40 89h1v1h-1zM41 89h1v1h-1z"/></svg>