<svg baseProfile="full" height="90" width="60" xmlns="http://www.w3.org/2000/svg"><path fill="#231815" d="M45 0h1v1h-1zM46 0h1v1h-1zM47 0h1v1h-1zM48 0h1v1h-1zM43 1h1v1h-1zM44 1h1v1h-1zM45 1h1v1h-1zM46 1h1v1h-1zM47 1h1v1h-1zM48 1h1v1h-1zM49 1h1v1h-1zM38 2h1v1h-1zM39 2h1v1h-1zM40 2h1v1h-1zM41 2h1v1h-1zM42 2h1v1h-1zM43 2h1v1h-1zM44 2h1v1h-1zM45 2h1v1h-1zM46 2h1v1h-1zM47 2h1v1h-1zM48 2h1v1h-1zM49 2h1v1h-1zM35 3h1v1h-1zM36 3h1v1h-1zM37 3h1v1h-1zM38 3h1v1h-1zM39 3h1v1h-1zM40 3h1v1h-1zM41 3h1v1h-1zM42 3h1v1h-1zM43 3h1v1h-1zM44 3h1v1h-1z"/><path fill="#5D120F" d="M45 3h1v1h-1z"/><path fill="#C32F0E" d="M46 3h1v1h-1z"/><path fill="#6D2312" d="M47 3h1v1h-1z"/><path fill="#231815" d="M48 3h1v1h-1zM49 3h1v1h-1zM33 4h1v1h-1zM34 4h1v1h-1zM35 4h1v1h-1zM36 4h1v1h-1zM37 4h1v1h-1zM38 4h1v1h-1zM39 4h1v1h-1zM40 4h1v1h-1zM41 4h1v1h-1zM42 4h1v1h-1z"/><path fill="#3F1412" d="M43 4h1v1h-1z"/><path fill="#9A0508" d="M44 4h1v1h-1z"/><path fill="#B60005" d="M45 4h1v1h-1z"/><path fill="#D8240A" d="M46 4h1v1h-1z"/><path fill="#9E2A0F" d="M47 4h1v1h-1z"/><path fill="#231815" d="M48 4h1v1h-1zM49 4h1v1h-1zM50 4h1v1h-1zM31 5h1v1h-1zM32 5h1v1h-1zM33 5h1v1h-1zM34 5h1v1h-1zM35 5h1v1h-1zM36 5h1v1h-1z"/><path fill="#612112" d="M37 5h1v1h-1z"/><path fill="#922810" d="M38 5h1v1h-1z"/><path fill="#B72D0E" d="M39 5h1v1h-1z"/><path fill="#C32F0E" d="M40 5h1v1h-1z"/><path fill="#612112" d="M41 5h1v1h-1zM42 5h1v1h-1z"/><path fill="#C61C0A" d="M43 5h1v1h-1z"/><path fill="#BC0706" d="M44 5h1v1h-1z"/><path fill="#B60005" d="M45 5h1v1h-1z"/><path fill="#B90305" d="M46 5h1v1h-1z"/><path fill="#AD230D" d="M47 5h1v1h-1z"/><path fill="#231815" d="M48 5h1v1h-1zM49 5h1v1h-1zM50 5h1v1h-1zM29 6h1v1h-1zM30 6h1v1h-1zM31 6h1v1h-1zM32 6h1v1h-1zM33 6h1v1h-1z"/><path fill="#2F1A14" d="M34 6h1v1h-1z"/><path fill="#862611" d="M35 6h1v1h-1z"/><path fill="#DC320D" d="M36 6h1v1h-1z"/><path fill="#E8340C" d="M37 6h1v1h-1zM38 6h1v1h-1zM39 6h1v1h-1zM40 6h1v1h-1zM41 6h1v1h-1zM42 6h1v1h-1zM43 6h1v1h-1zM44 6h1v1h-1z"/><path fill="#D21D09" d="M45 6h1v1h-1z"/><path fill="#B90305" d="M46 6h1v1h-1z"/><path fill="#B60005" d="M47 6h1v1h-1z"/><path fill="#231815" d="M48 6h1v1h-1zM49 6h1v1h-1zM50 6h1v1h-1zM28 7h1v1h-1zM29 7h1v1h-1zM30 7h1v1h-1zM31 7h1v1h-1zM32 7h1v1h-1z"/><path fill="#862611" d="M33 7h1v1h-1z"/><path fill="#DC320D" d="M34 7h1v1h-1z"/><path fill="#E8340C" d="M35 7h1v1h-1zM36 7h1v1h-1zM37 7h1v1h-1zM38 7h1v1h-1zM39 7h1v1h-1zM40 7h1v1h-1zM41 7h1v1h-1zM42 7h1v1h-1zM43 7h1v1h-1zM44 7h1v1h-1zM45 7h1v1h-1z"/><path fill="#DF2A0B" d="M46 7h1v1h-1z"/><path fill="#B90305" d="M47 7h1v1h-1z"/><path fill="#231815" d="M48 7h1v1h-1zM49 7h1v1h-1zM50 7h1v1h-1zM51 7h1v1h-1zM27 8h1v1h-1zM28 8h1v1h-1zM29 8h1v1h-1zM30 8h1v1h-1z"/><path fill="#481D13" d="M31 8h1v1h-1z"/><path fill="#C32F0E" d="M32 8h1v1h-1z"/><path fill="#E8340C" d="M33 8h1v1h-1zM34 8h1v1h-1zM35 8h1v1h-1z"/><path fill="#E93D15" d="M36 8h1v1h-1z"/><path fill="#EA451D" d="M37 8h1v1h-1zM38 8h1v1h-1z"/><path fill="#E94119" d="M39 8h1v1h-1z"/><path fill="#E8340C" d="M40 8h1v1h-1zM41 8h1v1h-1zM42 8h1v1h-1zM43 8h1v1h-1zM44 8h1v1h-1zM45 8h1v1h-1zM46 8h1v1h-1z"/><path fill="#BD280D" d="M47 8h1v1h-1z"/><path fill="#231815" d="M48 8h1v1h-1zM49 8h1v1h-1zM50 8h1v1h-1zM51 8h1v1h-1zM26 9h1v1h-1zM27 9h1v1h-1zM28 9h1v1h-1zM29 9h1v1h-1z"/><path fill="#6D2312" d="M30 9h1v1h-1z"/><path fill="#DC320D" d="M31 9h1v1h-1z"/><path fill="#E8340C" d="M32 9h1v1h-1z"/><path fill="#E83810" d="M33 9h1v1h-1z"/><path fill="#EB572F" d="M34 9h1v1h-1z"/><path fill="#ED7048" d="M35 9h1v1h-1z"/><path fill="#EE7951" d="M36 9h1v1h-1zM37 9h1v1h-1zM38 9h1v1h-1zM39 9h1v1h-1z"/><path fill="#ED6840" d="M40 9h1v1h-1z"/><path fill="#E83810" d="M41 9h1v1h-1z"/><path fill="#E8340C" d="M42 9h1v1h-1zM43 9h1v1h-1zM44 9h1v1h-1zM45 9h1v1h-1zM46 9h1v1h-1zM47 9h1v1h-1z"/><path fill="#481D13" d="M48 9h1v1h-1z"/><path fill="#231815" d="M49 9h1v1h-1zM50 9h1v1h-1zM51 9h1v1h-1zM52 9h1v1h-1zM25 10h1v1h-1zM26 10h1v1h-1zM27 10h1v1h-1zM28 10h1v1h-1z"/><path fill="#6D2312" d="M29 10h1v1h-1z"/><path fill="#E8340C" d="M30 10h1v1h-1zM31 10h1v1h-1z"/><path fill="#EB572F" d="M32 10h1v1h-1z"/><path fill="#EE754D" d="M33 10h1v1h-1z"/><path fill="#EE7951" d="M34 10h1v1h-1zM35 10h1v1h-1zM36 10h1v1h-1zM37 10h1v1h-1zM38 10h1v1h-1zM39 10h1v1h-1zM40 10h1v1h-1z"/><path fill="#ED6840" d="M41 10h1v1h-1z"/><path fill="#E8340C" d="M42 10h1v1h-1zM43 10h1v1h-1zM44 10h1v1h-1zM45 10h1v1h-1zM46 10h1v1h-1zM47 10h1v1h-1zM48 10h1v1h-1z"/><path fill="#B72D0E" d="M49 10h1v1h-1z"/><path fill="#231815" d="M50 10h1v1h-1zM51 10h1v1h-1zM52 10h1v1h-1zM25 11h1v1h-1zM26 11h1v1h-1zM27 11h1v1h-1z"/><path fill="#6D2312" d="M28 11h1v1h-1z"/><path fill="#E8340C" d="M29 11h1v1h-1z"/><path fill="#E83810" d="M30 11h1v1h-1z"/><path fill="#ED6840" d="M31 11h1v1h-1z"/><path fill="#EE7951" d="M32 11h1v1h-1zM33 11h1v1h-1zM34 11h1v1h-1zM35 11h1v1h-1zM36 11h1v1h-1zM37 11h1v1h-1zM38 11h1v1h-1zM39 11h1v1h-1zM40 11h1v1h-1zM41 11h1v1h-1z"/><path fill="#EB572F" d="M42 11h1v1h-1z"/><path fill="#E8340C" d="M43 11h1v1h-1zM44 11h1v1h-1zM45 11h1v1h-1zM46 11h1v1h-1zM47 11h1v1h-1zM48 11h1v1h-1zM49 11h1v1h-1z"/><path fill="#481D13" d="M50 11h1v1h-1z"/><path fill="#231815" d="M51 11h1v1h-1zM52 11h1v1h-1zM24 12h1v1h-1zM25 12h1v1h-1zM26 12h1v1h-1z"/><path fill="#481D13" d="M27 12h1v1h-1z"/><path fill="#E8340C" d="M28 12h1v1h-1z"/><path fill="#E83810" d="M29 12h1v1h-1z"/><path fill="#ED6C44" d="M30 12h1v1h-1z"/><path fill="#EE7951" d="M31 12h1v1h-1zM32 12h1v1h-1zM33 12h1v1h-1zM34 12h1v1h-1zM35 12h1v1h-1zM36 12h1v1h-1zM37 12h1v1h-1zM38 12h1v1h-1zM39 12h1v1h-1zM40 12h1v1h-1zM41 12h1v1h-1zM42 12h1v1h-1z"/><path fill="#E94119" d="M43 12h1v1h-1z"/><path fill="#E8340C" d="M44 12h1v1h-1zM45 12h1v1h-1zM46 12h1v1h-1zM47 12h1v1h-1zM48 12h1v1h-1zM49 12h1v1h-1z"/><path fill="#9E2A0F" d="M50 12h1v1h-1z"/><path fill="#231815" d="M51 12h1v1h-1zM52 12h1v1h-1zM53 12h1v1h-1zM23 13h1v1h-1zM24 13h1v1h-1zM25 13h1v1h-1z"/><path fill="#2F1A14" d="M26 13h1v1h-1z"/><path fill="#CF310D" d="M27 13h1v1h-1z"/><path fill="#E83810" d="M28 13h1v1h-1z"/><path fill="#ED6C44" d="M29 13h1v1h-1z"/><path fill="#EE7951" d="M30 13h1v1h-1zM31 13h1v1h-1zM32 13h1v1h-1zM33 13h1v1h-1zM34 13h1v1h-1zM35 13h1v1h-1zM36 13h1v1h-1zM37 13h1v1h-1zM38 13h1v1h-1zM39 13h1v1h-1zM40 13h1v1h-1zM41 13h1v1h-1zM42 13h1v1h-1z"/><path fill="#ED6840" d="M43 13h1v1h-1z"/><path fill="#E8340C" d="M44 13h1v1h-1zM45 13h1v1h-1zM46 13h1v1h-1zM47 13h1v1h-1zM48 13h1v1h-1zM49 13h1v1h-1z"/><path fill="#CF310D" d="M50 13h1v1h-1z"/><path fill="#231815" d="M51 13h1v1h-1zM52 13h1v1h-1zM53 13h1v1h-1zM23 14h1v1h-1zM24 14h1v1h-1zM25 14h1v1h-1z"/><path fill="#922810" d="M26 14h1v1h-1z"/><path fill="#E8340C" d="M27 14h1v1h-1z"/><path fill="#EB5B33" d="M28 14h1v1h-1z"/><path fill="#EE7C54" d="M29 14h1v1h-1z"/><path fill="#F29773" d="M30 14h1v1h-1z"/><path fill="#F4A583" d="M31 14h1v1h-1zM32 14h1v1h-1z"/><path fill="#F39A77" d="M33 14h1v1h-1z"/><path fill="#EF815A" d="M34 14h1v1h-1z"/><path fill="#EE7951" d="M35 14h1v1h-1zM36 14h1v1h-1zM37 14h1v1h-1zM38 14h1v1h-1zM39 14h1v1h-1zM40 14h1v1h-1zM41 14h1v1h-1zM42 14h1v1h-1zM43 14h1v1h-1z"/><path fill="#EA451D" d="M44 14h1v1h-1z"/><path fill="#E8340C" d="M45 14h1v1h-1zM46 14h1v1h-1zM47 14h1v1h-1zM48 14h1v1h-1zM49 14h1v1h-1zM50 14h1v1h-1z"/><path fill="#481D13" d="M51 14h1v1h-1z"/><path fill="#231815" d="M52 14h1v1h-1zM53 14h1v1h-1zM22 15h1v1h-1zM23 15h1v1h-1zM24 15h1v1h-1z"/><path fill="#481D13" d="M25 15h1v1h-1z"/><path fill="#E8340C" d="M26 15h1v1h-1z"/><path fill="#EA451D" d="M27 15h1v1h-1z"/><path fill="#EE7C54" d="M28 15h1v1h-1z"/><path fill="#F39D7A" d="M29 15h1v1h-1z"/><path fill="#F4A583" d="M30 15h1v1h-1zM31 15h1v1h-1zM32 15h1v1h-1zM33 15h1v1h-1z"/><path fill="#F39D7A" d="M34 15h1v1h-1z"/><path fill="#EE7951" d="M35 15h1v1h-1zM36 15h1v1h-1zM37 15h1v1h-1zM38 15h1v1h-1zM39 15h1v1h-1z"/><path fill="#ED7248" d="M40 15h1v1h-1z"/><path fill="#ED7045" d="M41 15h1v1h-1z"/><path fill="#EE774E" d="M42 15h1v1h-1z"/><path fill="#EE7951" d="M43 15h1v1h-1z"/><path fill="#EC633B" d="M44 15h1v1h-1z"/><path fill="#E8340C" d="M45 15h1v1h-1zM46 15h1v1h-1zM47 15h1v1h-1zM48 15h1v1h-1zM49 15h1v1h-1zM50 15h1v1h-1z"/><path fill="#792411" d="M51 15h1v1h-1z"/><path fill="#231815" d="M52 15h1v1h-1zM53 15h1v1h-1zM17 16h1v1h-1zM18 16h1v1h-1zM19 16h1v1h-1zM20 16h1v1h-1zM21 16h1v1h-1zM22 16h1v1h-1zM23 16h1v1h-1zM24 16h1v1h-1z"/><path fill="#481D13" d="M25 16h1v1h-1z"/><path fill="#E8340C" d="M26 16h1v1h-1z"/><path fill="#ED6840" d="M27 16h1v1h-1z"/><path fill="#F18F6A" d="M28 16h1v1h-1z"/><path fill="#F4A583" d="M29 16h1v1h-1zM30 16h1v1h-1zM31 16h1v1h-1zM32 16h1v1h-1zM33 16h1v1h-1zM34 16h1v1h-1z"/><path fill="#F0845E" d="M35 16h1v1h-1z"/><path fill="#EE7951" d="M36 16h1v1h-1zM37 16h1v1h-1z"/><path fill="#ED7248" d="M38 16h1v1h-1z"/><path fill="#EB5B29" d="M39 16h1v1h-1z"/><path fill="#EA5420" d="M40 16h1v1h-1zM41 16h1v1h-1z"/><path fill="#EA5623" d="M42 16h1v1h-1z"/><path fill="#C8261D" d="M43 16h1v1h-1z"/><path fill="#D23D2B" d="M44 16h1v1h-1z"/><path fill="#E93D15" d="M45 16h1v1h-1z"/><path fill="#E8340C" d="M46 16h1v1h-1zM47 16h1v1h-1zM48 16h1v1h-1zM49 16h1v1h-1zM50 16h1v1h-1z"/><path fill="#922810" d="M51 16h1v1h-1z"/><path fill="#231815" d="M52 16h1v1h-1zM53 16h1v1h-1zM54 16h1v1h-1zM14 17h1v1h-1zM15 17h1v1h-1zM16 17h1v1h-1zM17 17h1v1h-1zM18 17h1v1h-1zM19 17h1v1h-1zM20 17h1v1h-1zM21 17h1v1h-1zM22 17h1v1h-1zM23 17h1v1h-1zM24 17h1v1h-1zM25 17h1v1h-1z"/><path fill="#C72F14" d="M26 17h1v1h-1z"/><path fill="#EE7951" d="M27 17h1v1h-1z"/><path fill="#F3A07D" d="M28 17h1v1h-1z"/><path fill="#F4A583" d="M29 17h1v1h-1zM30 17h1v1h-1zM31 17h1v1h-1zM32 17h1v1h-1zM33 17h1v1h-1zM34 17h1v1h-1z"/><path fill="#F18C67" d="M35 17h1v1h-1z"/><path fill="#EE7951" d="M36 17h1v1h-1z"/><path fill="#EE744B" d="M37 17h1v1h-1z"/><path fill="#EC602F" d="M38 17h1v1h-1z"/><path fill="#EF7D52" d="M39 17h1v1h-1z"/><path fill="#EE774B" d="M40 17h1v1h-1z"/><path fill="#EB5926" d="M41 17h1v1h-1z"/><path fill="#EA5420" d="M42 17h1v1h-1z"/><path fill="#BD0B08" d="M43 17h1v1h-1z"/><path fill="#B60005" d="M44 17h1v1h-1z"/><path fill="#CF1A09" d="M45 17h1v1h-1z"/><path fill="#E8340C" d="M46 17h1v1h-1zM47 17h1v1h-1zM48 17h1v1h-1zM49 17h1v1h-1zM50 17h1v1h-1z"/><path fill="#B72D0E" d="M51 17h1v1h-1z"/><path fill="#231815" d="M52 17h1v1h-1zM53 17h1v1h-1zM54 17h1v1h-1zM13 18h1v1h-1zM14 18h1v1h-1zM15 18h1v1h-1zM16 18h1v1h-1zM17 18h1v1h-1zM18 18h1v1h-1z"/><path fill="#2F1A14" d="M19 18h1v1h-1z"/><path fill="#541F13" d="M20 18h1v1h-1zM21 18h1v1h-1z"/><path fill="#862611" d="M22 18h1v1h-1zM23 18h1v1h-1z"/><path fill="#6D0C0D" d="M24 18h1v1h-1z"/><path fill="#88080A" d="M25 18h1v1h-1z"/><path fill="#D23827" d="M26 18h1v1h-1z"/><path fill="#EE7951" d="M27 18h1v1h-1z"/><path fill="#F4A583" d="M28 18h1v1h-1zM29 18h1v1h-1zM30 18h1v1h-1zM31 18h1v1h-1zM32 18h1v1h-1zM33 18h1v1h-1zM34 18h1v1h-1z"/><path fill="#F0845E" d="M35 18h1v1h-1z"/><path fill="#EE754D" d="M36 18h1v1h-1z"/><path fill="#EB5928" d="M37 18h1v1h-1z"/><path fill="#F0875E" d="M38 18h1v1h-1z"/><path fill="#F4A583" d="M39 18h1v1h-1zM40 18h1v1h-1z"/><path fill="#F29670" d="M41 18h1v1h-1z"/><path fill="#EB5926" d="M42 18h1v1h-1z"/><path fill="#D02A13" d="M43 18h1v1h-1z"/><path fill="#B60005" d="M44 18h1v1h-1zM45 18h1v1h-1z"/><path fill="#E22E0B" d="M46 18h1v1h-1z"/><path fill="#E8340C" d="M47 18h1v1h-1zM48 18h1v1h-1zM49 18h1v1h-1zM50 18h1v1h-1z"/><path fill="#B72D0E" d="M51 18h1v1h-1z"/><path fill="#231815" d="M52 18h1v1h-1zM53 18h1v1h-1zM54 18h1v1h-1zM12 19h1v1h-1zM13 19h1v1h-1zM14 19h1v1h-1zM15 19h1v1h-1z"/><path fill="#573B31" d="M16 19h1v1h-1z"/><path fill="#A1462D" d="M17 19h1v1h-1z"/><path fill="#CF310D" d="M18 19h1v1h-1z"/><path fill="#E8340C" d="M19 19h1v1h-1zM20 19h1v1h-1zM21 19h1v1h-1zM22 19h1v1h-1zM23 19h1v1h-1z"/><path fill="#B60005" d="M24 19h1v1h-1zM25 19h1v1h-1z"/><path fill="#C8261D" d="M26 19h1v1h-1z"/><path fill="#EE7951" d="M27 19h1v1h-1z"/><path fill="#F4A280" d="M28 19h1v1h-1z"/><path fill="#F4A583" d="M29 19h1v1h-1zM30 19h1v1h-1zM31 19h1v1h-1zM32 19h1v1h-1zM33 19h1v1h-1zM34 19h1v1h-1z"/><path fill="#EE7C54" d="M35 19h1v1h-1z"/><path fill="#EA4920" d="M36 19h1v1h-1z"/><path fill="#EA5420" d="M37 19h1v1h-1z"/><path fill="#F08258" d="M38 19h1v1h-1z"/><path fill="#F4A583" d="M39 19h1v1h-1zM40 19h1v1h-1zM41 19h1v1h-1z"/><path fill="#F08258" d="M42 19h1v1h-1z"/><path fill="#E74F1E" d="M43 19h1v1h-1z"/><path fill="#B90507" d="M44 19h1v1h-1z"/><path fill="#B60005" d="M45 19h1v1h-1z"/><path fill="#C91408" d="M46 19h1v1h-1z"/><path fill="#E8340C" d="M47 19h1v1h-1zM48 19h1v1h-1zM49 19h1v1h-1zM50 19h1v1h-1z"/><path fill="#B72D0E" d="M51 19h1v1h-1z"/><path fill="#231815" d="M52 19h1v1h-1zM53 19h1v1h-1zM54 19h1v1h-1zM12 20h1v1h-1zM13 20h1v1h-1zM14 20h1v1h-1z"/><path fill="#A6705A" d="M15 20h1v1h-1z"/><path fill="#F4A583" d="M16 20h1v1h-1zM17 20h1v1h-1z"/><path fill="#F0825E" d="M18 20h1v1h-1z"/><path fill="#E8340C" d="M19 20h1v1h-1zM20 20h1v1h-1zM21 20h1v1h-1zM22 20h1v1h-1z"/><path fill="#E22E0B" d="M23 20h1v1h-1z"/><path fill="#B60005" d="M24 20h1v1h-1zM25 20h1v1h-1z"/><path fill="#C41E18" d="M26 20h1v1h-1z"/><path fill="#EE7951" d="M27 20h1v1h-1z"/><path fill="#F29570" d="M28 20h1v1h-1z"/><path fill="#F4A583" d="M29 20h1v1h-1zM30 20h1v1h-1zM31 20h1v1h-1zM32 20h1v1h-1zM33 20h1v1h-1z"/><path fill="#F18F6A" d="M34 20h1v1h-1z"/><path fill="#ED6840" d="M35 20h1v1h-1z"/><path fill="#E93C11" d="M36 20h1v1h-1z"/><path fill="#EA5420" d="M37 20h1v1h-1z"/><path fill="#EB5926" d="M38 20h1v1h-1z"/><path fill="#F29670" d="M39 20h1v1h-1z"/><path fill="#F4A583" d="M40 20h1v1h-1zM41 20h1v1h-1zM42 20h1v1h-1z"/><path fill="#EB5E2C" d="M43 20h1v1h-1z"/><path fill="#C61A0D" d="M44 20h1v1h-1z"/><path fill="#B60005" d="M45 20h1v1h-1z"/><path fill="#B90305" d="M46 20h1v1h-1z"/><path fill="#E8340C" d="M47 20h1v1h-1zM48 20h1v1h-1zM49 20h1v1h-1zM50 20h1v1h-1z"/><path fill="#B72D0E" d="M51 20h1v1h-1z"/><path fill="#231815" d="M52 20h1v1h-1zM53 20h1v1h-1zM54 20h1v1h-1zM12 21h1v1h-1zM13 21h1v1h-1zM14 21h1v1h-1z"/><path fill="#F4A583" d="M15 21h1v1h-1zM16 21h1v1h-1zM17 21h1v1h-1zM18 21h1v1h-1z"/><path fill="#E8340C" d="M19 21h1v1h-1zM20 21h1v1h-1zM21 21h1v1h-1zM22 21h1v1h-1z"/><path fill="#D21D09" d="M23 21h1v1h-1z"/><path fill="#B60005" d="M24 21h1v1h-1zM25 21h1v1h-1z"/><path fill="#CB2D22" d="M26 21h1v1h-1z"/><path fill="#EE7951" d="M27 21h1v1h-1z"/><path fill="#EE7C54" d="M28 21h1v1h-1z"/><path fill="#F39D7A" d="M29 21h1v1h-1z"/><path fill="#F4A583" d="M30 21h1v1h-1zM31 21h1v1h-1zM32 21h1v1h-1z"/><path fill="#F1926D" d="M33 21h1v1h-1z"/><path fill="#EE7951" d="M34 21h1v1h-1z"/><path fill="#EB522A" d="M35 21h1v1h-1z"/><path fill="#E8360D" d="M36 21h1v1h-1z"/><path fill="#EA5420" d="M37 21h1v1h-1zM38 21h1v1h-1z"/><path fill="#EB5926" d="M39 21h1v1h-1z"/><path fill="#F2916A" d="M40 21h1v1h-1z"/><path fill="#F4A583" d="M41 21h1v1h-1zM42 21h1v1h-1z"/><path fill="#F08258" d="M43 21h1v1h-1z"/><path fill="#D02A13" d="M44 21h1v1h-1z"/><path fill="#B60005" d="M45 21h1v1h-1zM46 21h1v1h-1z"/><path fill="#D8240A" d="M47 21h1v1h-1z"/><path fill="#E8340C" d="M48 21h1v1h-1zM49 21h1v1h-1zM50 21h1v1h-1z"/><path fill="#B72D0E" d="M51 21h1v1h-1z"/><path fill="#231815" d="M52 21h1v1h-1zM53 21h1v1h-1zM54 21h1v1h-1zM12 22h1v1h-1zM13 22h1v1h-1zM14 22h1v1h-1z"/><path fill="#C08268" d="M15 22h1v1h-1z"/><path fill="#F4A583" d="M16 22h1v1h-1zM17 22h1v1h-1z"/><path fill="#EF744F" d="M18 22h1v1h-1z"/><path fill="#E8340C" d="M19 22h1v1h-1zM20 22h1v1h-1zM21 22h1v1h-1zM22 22h1v1h-1z"/><path fill="#BC0706" d="M23 22h1v1h-1z"/><path fill="#B60005" d="M24 22h1v1h-1zM25 22h1v1h-1z"/><path fill="#D23D2B" d="M26 22h1v1h-1z"/><path fill="#EE7951" d="M27 22h1v1h-1zM28 22h1v1h-1zM29 22h1v1h-1z"/><path fill="#F0845E" d="M30 22h1v1h-1zM31 22h1v1h-1z"/><path fill="#EF7F57" d="M32 22h1v1h-1z"/><path fill="#EE7951" d="M33 22h1v1h-1zM34 22h1v1h-1z"/><path fill="#EA451D" d="M35 22h1v1h-1z"/><path fill="#E8340C" d="M36 22h1v1h-1z"/><path fill="#E94617" d="M37 22h1v1h-1z"/><path fill="#EA5420" d="M38 22h1v1h-1zM39 22h1v1h-1zM40 22h1v1h-1z"/><path fill="#EE7245" d="M41 22h1v1h-1z"/><path fill="#F39B77" d="M42 22h1v1h-1z"/><path fill="#F18C64" d="M43 22h1v1h-1z"/><path fill="#DD3F19" d="M44 22h1v1h-1z"/><path fill="#B60005" d="M45 22h1v1h-1zM46 22h1v1h-1z"/><path fill="#CF1A09" d="M47 22h1v1h-1z"/><path fill="#E8340C" d="M48 22h1v1h-1zM49 22h1v1h-1zM50 22h1v1h-1z"/><path fill="#AA2B0F" d="M51 22h1v1h-1z"/><path fill="#231815" d="M52 22h1v1h-1zM53 22h1v1h-1zM54 22h1v1h-1zM12 23h1v1h-1zM13 23h1v1h-1zM14 23h1v1h-1z"/><path fill="#49241B" d="M15 23h1v1h-1z"/><path fill="#EB502A" d="M16 23h1v1h-1z"/><path fill="#EA421B" d="M17 23h1v1h-1z"/><path fill="#E8340C" d="M18 23h1v1h-1zM19 23h1v1h-1zM20 23h1v1h-1zM21 23h1v1h-1z"/><path fill="#D52109" d="M22 23h1v1h-1z"/><path fill="#B60005" d="M23 23h1v1h-1zM24 23h1v1h-1zM25 23h1v1h-1z"/><path fill="#DD5339" d="M26 23h1v1h-1z"/><path fill="#EE7951" d="M27 23h1v1h-1zM28 23h1v1h-1zM29 23h1v1h-1zM30 23h1v1h-1zM31 23h1v1h-1zM32 23h1v1h-1zM33 23h1v1h-1zM34 23h1v1h-1z"/><path fill="#EA4E26" d="M35 23h1v1h-1z"/><path fill="#E8340C" d="M36 23h1v1h-1zM37 23h1v1h-1z"/><path fill="#E94416" d="M38 23h1v1h-1z"/><path fill="#EA521F" d="M39 23h1v1h-1z"/><path fill="#EA5420" d="M40 23h1v1h-1zM41 23h1v1h-1zM42 23h1v1h-1zM43 23h1v1h-1z"/><path fill="#DD3916" d="M44 23h1v1h-1z"/><path fill="#B60005" d="M45 23h1v1h-1zM46 23h1v1h-1z"/><path fill="#C61007" d="M47 23h1v1h-1z"/><path fill="#E8340C" d="M48 23h1v1h-1zM49 23h1v1h-1zM50 23h1v1h-1z"/><path fill="#862611" d="M51 23h1v1h-1z"/><path fill="#231815" d="M52 23h1v1h-1zM53 23h1v1h-1zM54 23h1v1h-1zM13 24h1v1h-1zM14 24h1v1h-1zM15 24h1v1h-1z"/><path fill="#862611" d="M16 24h1v1h-1z"/><path fill="#E8340C" d="M17 24h1v1h-1zM18 24h1v1h-1zM19 24h1v1h-1zM20 24h1v1h-1z"/><path fill="#E5310C" d="M21 24h1v1h-1z"/><path fill="#BC0706" d="M22 24h1v1h-1z"/><path fill="#B60005" d="M23 24h1v1h-1zM24 24h1v1h-1zM25 24h1v1h-1z"/><path fill="#EB714C" d="M26 24h1v1h-1z"/><path fill="#EE7951" d="M27 24h1v1h-1zM28 24h1v1h-1zM29 24h1v1h-1zM30 24h1v1h-1zM31 24h1v1h-1zM32 24h1v1h-1zM33 24h1v1h-1zM34 24h1v1h-1z"/><path fill="#ED6840" d="M35 24h1v1h-1z"/><path fill="#E8340C" d="M36 24h1v1h-1zM37 24h1v1h-1zM38 24h1v1h-1z"/><path fill="#E8360D" d="M39 24h1v1h-1z"/><path fill="#E93E12" d="M40 24h1v1h-1z"/><path fill="#E94416" d="M41 24h1v1h-1zM42 24h1v1h-1z"/><path fill="#E94014" d="M43 24h1v1h-1z"/><path fill="#D21D09" d="M44 24h1v1h-1z"/><path fill="#B60005" d="M45 24h1v1h-1zM46 24h1v1h-1z"/><path fill="#C30D07" d="M47 24h1v1h-1z"/><path fill="#E8340C" d="M48 24h1v1h-1zM49 24h1v1h-1zM50 24h1v1h-1z"/><path fill="#612112" d="M51 24h1v1h-1z"/><path fill="#231815" d="M52 24h1v1h-1zM53 24h1v1h-1zM13 25h1v1h-1zM14 25h1v1h-1zM15 25h1v1h-1zM16 25h1v1h-1z"/><path fill="#9E2A0F" d="M17 25h1v1h-1z"/><path fill="#E8340C" d="M18 25h1v1h-1zM19 25h1v1h-1zM20 25h1v1h-1z"/><path fill="#C61007" d="M21 25h1v1h-1z"/><path fill="#B60005" d="M22 25h1v1h-1zM23 25h1v1h-1zM24 25h1v1h-1z"/><path fill="#C8261D" d="M25 25h1v1h-1z"/><path fill="#EE7951" d="M26 25h1v1h-1zM27 25h1v1h-1zM28 25h1v1h-1zM29 25h1v1h-1zM30 25h1v1h-1zM31 25h1v1h-1zM32 25h1v1h-1zM33 25h1v1h-1zM34 25h1v1h-1zM35 25h1v1h-1z"/><path fill="#B60005" d="M36 25h1v1h-1zM37 25h1v1h-1z"/><path fill="#BF0A06" d="M38 25h1v1h-1z"/><path fill="#C30D07" d="M39 25h1v1h-1z"/><path fill="#C91408" d="M40 25h1v1h-1z"/><path fill="#CC1708" d="M41 25h1v1h-1z"/><path fill="#C30D07" d="M42 25h1v1h-1z"/><path fill="#BF0A06" d="M43 25h1v1h-1z"/><path fill="#B60005" d="M44 25h1v1h-1zM45 25h1v1h-1zM46 25h1v1h-1z"/><path fill="#CF1A09" d="M47 25h1v1h-1z"/><path fill="#E8340C" d="M48 25h1v1h-1z"/><path fill="#DC320D" d="M49 25h1v1h-1z"/><path fill="#481D13" d="M50 25h1v1h-1z"/><path fill="#231815" d="M51 25h1v1h-1zM52 25h1v1h-1zM53 25h1v1h-1zM14 26h1v1h-1zM15 26h1v1h-1zM16 26h1v1h-1zM17 26h1v1h-1z"/><path fill="#9E2A0F" d="M18 26h1v1h-1z"/><path fill="#E8340C" d="M19 26h1v1h-1z"/><path fill="#C91408" d="M20 26h1v1h-1z"/><path fill="#B60005" d="M21 26h1v1h-1zM22 26h1v1h-1zM23 26h1v1h-1zM24 26h1v1h-1z"/><path fill="#E05B3E" d="M25 26h1v1h-1z"/><path fill="#EE7951" d="M26 26h1v1h-1zM27 26h1v1h-1zM28 26h1v1h-1zM29 26h1v1h-1zM30 26h1v1h-1zM31 26h1v1h-1zM32 26h1v1h-1zM33 26h1v1h-1zM34 26h1v1h-1zM35 26h1v1h-1z"/><path fill="#D94C35" d="M36 26h1v1h-1z"/><path fill="#BA080A" d="M37 26h1v1h-1z"/><path fill="#B60005" d="M38 26h1v1h-1zM39 26h1v1h-1zM40 26h1v1h-1zM41 26h1v1h-1zM42 26h1v1h-1zM43 26h1v1h-1zM44 26h1v1h-1zM45 26h1v1h-1z"/><path fill="#B90305" d="M46 26h1v1h-1z"/><path fill="#E22E0B" d="M47 26h1v1h-1z"/><path fill="#E5310C" d="M48 26h1v1h-1z"/><path fill="#AD180B" d="M49 26h1v1h-1z"/><path fill="#231815" d="M50 26h1v1h-1zM51 26h1v1h-1zM52 26h1v1h-1zM53 26h1v1h-1zM15 27h1v1h-1zM16 27h1v1h-1zM17 27h1v1h-1zM18 27h1v1h-1z"/><path fill="#7C110D" d="M19 27h1v1h-1z"/><path fill="#B60005" d="M20 27h1v1h-1zM21 27h1v1h-1zM22 27h1v1h-1zM23 27h1v1h-1z"/><path fill="#C8261D" d="M24 27h1v1h-1z"/><path fill="#EE7951" d="M25 27h1v1h-1zM26 27h1v1h-1zM27 27h1v1h-1zM28 27h1v1h-1zM29 27h1v1h-1zM30 27h1v1h-1zM31 27h1v1h-1zM32 27h1v1h-1zM33 27h1v1h-1zM34 27h1v1h-1zM35 27h1v1h-1zM36 27h1v1h-1z"/><path fill="#E76A48" d="M37 27h1v1h-1z"/><path fill="#D32612" d="M38 27h1v1h-1z"/><path fill="#C30D07" d="M39 27h1v1h-1z"/><path fill="#B90305" d="M40 27h1v1h-1z"/><path fill="#B60005" d="M41 27h1v1h-1zM42 27h1v1h-1zM43 27h1v1h-1zM44 27h1v1h-1z"/><path fill="#C30D07" d="M45 27h1v1h-1z"/><path fill="#DF2A0B" d="M46 27h1v1h-1z"/><path fill="#E5310C" d="M47 27h1v1h-1z"/><path fill="#BF0A06" d="M48 27h1v1h-1z"/><path fill="#B60005" d="M49 27h1v1h-1z"/><path fill="#5A0F0F" d="M50 27h1v1h-1z"/><path fill="#231815" d="M51 27h1v1h-1zM52 27h1v1h-1zM53 27h1v1h-1zM54 27h1v1h-1zM16 28h1v1h-1zM17 28h1v1h-1zM18 28h1v1h-1zM19 28h1v1h-1z"/><path fill="#5A0F0F" d="M20 28h1v1h-1z"/><path fill="#B60005" d="M21 28h1v1h-1zM22 28h1v1h-1z"/><path fill="#C11713" d="M23 28h1v1h-1z"/><path fill="#EB714C" d="M24 28h1v1h-1z"/><path fill="#EE7951" d="M25 28h1v1h-1zM26 28h1v1h-1zM27 28h1v1h-1zM28 28h1v1h-1zM29 28h1v1h-1zM30 28h1v1h-1zM31 28h1v1h-1zM32 28h1v1h-1zM33 28h1v1h-1zM34 28h1v1h-1zM35 28h1v1h-1zM36 28h1v1h-1zM37 28h1v1h-1z"/><path fill="#EA451D" d="M38 28h1v1h-1z"/><path fill="#E8340C" d="M39 28h1v1h-1zM40 28h1v1h-1zM41 28h1v1h-1z"/><path fill="#DC270A" d="M42 28h1v1h-1zM43 28h1v1h-1z"/><path fill="#E8340C" d="M44 28h1v1h-1zM45 28h1v1h-1zM46 28h1v1h-1z"/><path fill="#C30D07" d="M47 28h1v1h-1z"/><path fill="#B60005" d="M48 28h1v1h-1zM49 28h1v1h-1z"/><path fill="#AD0206" d="M50 28h1v1h-1z"/><path fill="#5A0F0F" d="M51 28h1v1h-1z"/><path fill="#231815" d="M52 28h1v1h-1zM53 28h1v1h-1zM54 28h1v1h-1zM17 29h1v1h-1zM18 29h1v1h-1zM19 29h1v1h-1zM20 29h1v1h-1z"/><path fill="#910609" d="M21 29h1v1h-1z"/><path fill="#C11713" d="M22 29h1v1h-1z"/><path fill="#E46243" d="M23 29h1v1h-1z"/><path fill="#EE7951" d="M24 29h1v1h-1zM25 29h1v1h-1zM26 29h1v1h-1zM27 29h1v1h-1zM28 29h1v1h-1zM29 29h1v1h-1zM30 29h1v1h-1zM31 29h1v1h-1zM32 29h1v1h-1zM33 29h1v1h-1zM34 29h1v1h-1zM35 29h1v1h-1zM36 29h1v1h-1zM37 29h1v1h-1z"/><path fill="#EA451D" d="M38 29h1v1h-1z"/><path fill="#E8340C" d="M39 29h1v1h-1zM40 29h1v1h-1zM41 29h1v1h-1zM42 29h1v1h-1zM43 29h1v1h-1zM44 29h1v1h-1zM45 29h1v1h-1z"/><path fill="#CF1A09" d="M46 29h1v1h-1z"/><path fill="#B60005" d="M47 29h1v1h-1zM48 29h1v1h-1zM49 29h1v1h-1zM50 29h1v1h-1z"/><path fill="#BC1208" d="M51 29h1v1h-1z"/><path fill="#481D13" d="M52 29h1v1h-1z"/><path fill="#231815" d="M53 29h1v1h-1zM54 29h1v1h-1zM55 29h1v1h-1zM17 30h1v1h-1zM18 30h1v1h-1zM19 30h1v1h-1z"/><path fill="#4E1912" d="M20 30h1v1h-1z"/><path fill="#C0190D" d="M21 30h1v1h-1z"/><path fill="#EB714C" d="M22 30h1v1h-1z"/><path fill="#EE7951" d="M23 30h1v1h-1zM24 30h1v1h-1zM25 30h1v1h-1zM26 30h1v1h-1zM27 30h1v1h-1zM28 30h1v1h-1zM29 30h1v1h-1zM30 30h1v1h-1zM31 30h1v1h-1zM32 30h1v1h-1zM33 30h1v1h-1zM34 30h1v1h-1zM35 30h1v1h-1zM36 30h1v1h-1zM37 30h1v1h-1z"/><path fill="#EA451D" d="M38 30h1v1h-1z"/><path fill="#E8340C" d="M39 30h1v1h-1zM40 30h1v1h-1zM41 30h1v1h-1zM42 30h1v1h-1zM43 30h1v1h-1zM44 30h1v1h-1z"/><path fill="#E22E0B" d="M45 30h1v1h-1z"/><path fill="#B90305" d="M46 30h1v1h-1z"/><path fill="#B60005" d="M47 30h1v1h-1zM48 30h1v1h-1zM49 30h1v1h-1z"/><path fill="#D52109" d="M50 30h1v1h-1z"/><path fill="#E8340C" d="M51 30h1v1h-1z"/><path fill="#DC320D" d="M52 30h1v1h-1z"/><path fill="#3C1C14" d="M53 30h1v1h-1z"/><path fill="#231815" d="M54 30h1v1h-1zM55 30h1v1h-1zM56 30h1v1h-1zM17 31h1v1h-1zM18 31h1v1h-1z"/><path fill="#2F1A14" d="M19 31h1v1h-1z"/><path fill="#E8340C" d="M20 31h1v1h-1z"/><path fill="#EA4E26" d="M21 31h1v1h-1z"/><path fill="#EE7951" d="M22 31h1v1h-1zM23 31h1v1h-1zM24 31h1v1h-1zM25 31h1v1h-1zM26 31h1v1h-1zM27 31h1v1h-1zM28 31h1v1h-1zM29 31h1v1h-1zM30 31h1v1h-1zM31 31h1v1h-1zM32 31h1v1h-1zM33 31h1v1h-1zM34 31h1v1h-1zM35 31h1v1h-1zM36 31h1v1h-1zM37 31h1v1h-1z"/><path fill="#EA451D" d="M38 31h1v1h-1z"/><path fill="#E8340C" d="M39 31h1v1h-1zM40 31h1v1h-1zM41 31h1v1h-1zM42 31h1v1h-1zM43 31h1v1h-1zM44 31h1v1h-1z"/><path fill="#CF1A09" d="M45 31h1v1h-1z"/><path fill="#B60005" d="M46 31h1v1h-1zM47 31h1v1h-1zM48 31h1v1h-1z"/><path fill="#CF1A09" d="M49 31h1v1h-1z"/><path fill="#E8340C" d="M50 31h1v1h-1zM51 31h1v1h-1zM52 31h1v1h-1z"/><path fill="#C32F0E" d="M53 31h1v1h-1z"/><path fill="#2F1A14" d="M54 31h1v1h-1z"/><path fill="#231815" d="M55 31h1v1h-1zM56 31h1v1h-1zM57 31h1v1h-1zM16 32h1v1h-1zM17 32h1v1h-1zM18 32h1v1h-1z"/><path fill="#6D2312" d="M19 32h1v1h-1z"/><path fill="#E8340C" d="M20 32h1v1h-1z"/><path fill="#ED6840" d="M21 32h1v1h-1z"/><path fill="#EE7951" d="M22 32h1v1h-1zM23 32h1v1h-1zM24 32h1v1h-1zM25 32h1v1h-1zM26 32h1v1h-1zM27 32h1v1h-1zM28 32h1v1h-1zM29 32h1v1h-1zM30 32h1v1h-1zM31 32h1v1h-1zM32 32h1v1h-1zM33 32h1v1h-1zM34 32h1v1h-1zM35 32h1v1h-1zM36 32h1v1h-1zM37 32h1v1h-1z"/><path fill="#EA451D" d="M38 32h1v1h-1z"/><path fill="#E8340C" d="M39 32h1v1h-1zM40 32h1v1h-1zM41 32h1v1h-1zM42 32h1v1h-1zM43 32h1v1h-1zM44 32h1v1h-1z"/><path fill="#BC0706" d="M45 32h1v1h-1z"/><path fill="#B60005" d="M46 32h1v1h-1zM47 32h1v1h-1z"/><path fill="#BC0706" d="M48 32h1v1h-1z"/><path fill="#E8340C" d="M49 32h1v1h-1zM50 32h1v1h-1zM51 32h1v1h-1zM52 32h1v1h-1zM53 32h1v1h-1z"/><path fill="#AA2B0F" d="M54 32h1v1h-1z"/><path fill="#231815" d="M55 32h1v1h-1zM56 32h1v1h-1zM57 32h1v1h-1zM58 32h1v1h-1zM16 33h1v1h-1zM17 33h1v1h-1zM18 33h1v1h-1z"/><path fill="#AA2B0F" d="M19 33h1v1h-1z"/><path fill="#E93D15" d="M20 33h1v1h-1z"/><path fill="#EE7951" d="M21 33h1v1h-1zM22 33h1v1h-1zM23 33h1v1h-1zM24 33h1v1h-1zM25 33h1v1h-1zM26 33h1v1h-1zM27 33h1v1h-1zM28 33h1v1h-1zM29 33h1v1h-1zM30 33h1v1h-1zM31 33h1v1h-1zM32 33h1v1h-1zM33 33h1v1h-1zM34 33h1v1h-1zM35 33h1v1h-1zM36 33h1v1h-1zM37 33h1v1h-1z"/><path fill="#E83810" d="M38 33h1v1h-1z"/><path fill="#E8340C" d="M39 33h1v1h-1zM40 33h1v1h-1zM41 33h1v1h-1zM42 33h1v1h-1zM43 33h1v1h-1zM44 33h1v1h-1z"/><path fill="#B60005" d="M45 33h1v1h-1zM46 33h1v1h-1zM47 33h1v1h-1z"/><path fill="#D52109" d="M48 33h1v1h-1z"/><path fill="#E8340C" d="M49 33h1v1h-1zM50 33h1v1h-1zM51 33h1v1h-1zM52 33h1v1h-1zM53 33h1v1h-1zM54 33h1v1h-1z"/><path fill="#792411" d="M55 33h1v1h-1z"/><path fill="#231815" d="M56 33h1v1h-1zM57 33h1v1h-1zM58 33h1v1h-1zM16 34h1v1h-1zM17 34h1v1h-1z"/><path fill="#2F1A14" d="M18 34h1v1h-1z"/><path fill="#E8340C" d="M19 34h1v1h-1z"/><path fill="#EB5B33" d="M20 34h1v1h-1z"/><path fill="#EE7951" d="M21 34h1v1h-1zM22 34h1v1h-1zM23 34h1v1h-1zM24 34h1v1h-1zM25 34h1v1h-1zM26 34h1v1h-1zM27 34h1v1h-1zM28 34h1v1h-1zM29 34h1v1h-1zM30 34h1v1h-1zM31 34h1v1h-1zM32 34h1v1h-1zM33 34h1v1h-1zM34 34h1v1h-1zM35 34h1v1h-1zM36 34h1v1h-1z"/><path fill="#EE754D" d="M37 34h1v1h-1z"/><path fill="#E8340C" d="M38 34h1v1h-1zM39 34h1v1h-1zM40 34h1v1h-1zM41 34h1v1h-1zM42 34h1v1h-1zM43 34h1v1h-1zM44 34h1v1h-1z"/><path fill="#B60005" d="M45 34h1v1h-1zM46 34h1v1h-1zM47 34h1v1h-1z"/><path fill="#E22E0B" d="M48 34h1v1h-1z"/><path fill="#E8340C" d="M49 34h1v1h-1zM50 34h1v1h-1zM51 34h1v1h-1zM52 34h1v1h-1zM53 34h1v1h-1zM54 34h1v1h-1z"/><path fill="#DC320D" d="M55 34h1v1h-1z"/><path fill="#3C1C14" d="M56 34h1v1h-1z"/><path fill="#231815" d="M57 34h1v1h-1zM58 34h1v1h-1zM59 34h1v1h-1zM15 35h1v1h-1zM16 35h1v1h-1zM17 35h1v1h-1z"/><path fill="#6D2312" d="M18 35h1v1h-1z"/><path fill="#E8340C" d="M19 35h1v1h-1z"/><path fill="#ED7048" d="M20 35h1v1h-1z"/><path fill="#EE7951" d="M21 35h1v1h-1zM22 35h1v1h-1zM23 35h1v1h-1zM24 35h1v1h-1zM25 35h1v1h-1zM26 35h1v1h-1zM27 35h1v1h-1zM28 35h1v1h-1zM29 35h1v1h-1zM30 35h1v1h-1zM31 35h1v1h-1zM32 35h1v1h-1zM33 35h1v1h-1zM34 35h1v1h-1zM35 35h1v1h-1zM36 35h1v1h-1z"/><path fill="#ED6840" d="M37 35h1v1h-1z"/><path fill="#E8340C" d="M38 35h1v1h-1zM39 35h1v1h-1zM40 35h1v1h-1zM41 35h1v1h-1zM42 35h1v1h-1zM43 35h1v1h-1zM44 35h1v1h-1z"/><path fill="#B60005" d="M45 35h1v1h-1zM46 35h1v1h-1zM47 35h1v1h-1z"/><path fill="#E8340C" d="M48 35h1v1h-1zM49 35h1v1h-1zM50 35h1v1h-1zM51 35h1v1h-1zM52 35h1v1h-1zM53 35h1v1h-1zM54 35h1v1h-1zM55 35h1v1h-1z"/><path fill="#B72D0E" d="M56 35h1v1h-1z"/><path fill="#231815" d="M57 35h1v1h-1zM58 35h1v1h-1zM59 35h1v1h-1zM14 36h1v1h-1zM15 36h1v1h-1zM16 36h1v1h-1zM17 36h1v1h-1z"/><path fill="#B72D0E" d="M18 36h1v1h-1z"/><path fill="#E93D15" d="M19 36h1v1h-1z"/><path fill="#EB572F" d="M20 36h1v1h-1zM21 36h1v1h-1z"/><path fill="#EB5B33" d="M22 36h1v1h-1z"/><path fill="#ED6C44" d="M23 36h1v1h-1z"/><path fill="#EE7951" d="M24 36h1v1h-1zM25 36h1v1h-1zM26 36h1v1h-1zM27 36h1v1h-1zM28 36h1v1h-1zM29 36h1v1h-1zM30 36h1v1h-1zM31 36h1v1h-1zM32 36h1v1h-1zM33 36h1v1h-1zM34 36h1v1h-1zM35 36h1v1h-1zM36 36h1v1h-1z"/><path fill="#EB572F" d="M37 36h1v1h-1z"/><path fill="#E8340C" d="M38 36h1v1h-1zM39 36h1v1h-1zM40 36h1v1h-1zM41 36h1v1h-1zM42 36h1v1h-1zM43 36h1v1h-1zM44 36h1v1h-1z"/><path fill="#BC0706" d="M45 36h1v1h-1z"/><path fill="#B60005" d="M46 36h1v1h-1zM47 36h1v1h-1z"/><path fill="#E8340C" d="M48 36h1v1h-1zM49 36h1v1h-1zM50 36h1v1h-1zM51 36h1v1h-1zM52 36h1v1h-1zM53 36h1v1h-1zM54 36h1v1h-1zM55 36h1v1h-1zM56 36h1v1h-1z"/><path fill="#541F13" d="M57 36h1v1h-1z"/><path fill="#231815" d="M58 36h1v1h-1zM59 36h1v1h-1zM13 37h1v1h-1zM14 37h1v1h-1zM15 37h1v1h-1z"/><path fill="#2F1A14" d="M16 37h1v1h-1z"/><path fill="#B94324" d="M17 37h1v1h-1z"/><path fill="#ED6840" d="M18 37h1v1h-1z"/><path fill="#EE754D" d="M19 37h1v1h-1z"/><path fill="#ED6840" d="M20 37h1v1h-1z"/><path fill="#EA4A22" d="M21 37h1v1h-1z"/><path fill="#E8340C" d="M22 37h1v1h-1zM23 37h1v1h-1z"/><path fill="#B60005" d="M24 37h1v1h-1z"/><path fill="#CF3526" d="M25 37h1v1h-1z"/><path fill="#EE7951" d="M26 37h1v1h-1zM27 37h1v1h-1zM28 37h1v1h-1zM29 37h1v1h-1zM30 37h1v1h-1zM31 37h1v1h-1zM32 37h1v1h-1zM33 37h1v1h-1zM34 37h1v1h-1zM35 37h1v1h-1zM36 37h1v1h-1z"/><path fill="#EA451D" d="M37 37h1v1h-1z"/><path fill="#E8340C" d="M38 37h1v1h-1zM39 37h1v1h-1zM40 37h1v1h-1zM41 37h1v1h-1zM42 37h1v1h-1zM43 37h1v1h-1zM44 37h1v1h-1z"/><path fill="#4E1912" d="M45 37h1v1h-1z"/><path fill="#351513" d="M46 37h1v1h-1z"/><path fill="#481211" d="M47 37h1v1h-1z"/><path fill="#6A1F11" d="M48 37h1v1h-1z"/><path fill="#862611" d="M49 37h1v1h-1zM50 37h1v1h-1z"/><path fill="#9E2A0F" d="M51 37h1v1h-1z"/><path fill="#B72D0E" d="M52 37h1v1h-1zM53 37h1v1h-1zM54 37h1v1h-1z"/><path fill="#922810" d="M55 37h1v1h-1z"/><path fill="#792411" d="M56 37h1v1h-1z"/><path fill="#3C1C14" d="M57 37h1v1h-1z"/><path fill="#231815" d="M58 37h1v1h-1zM59 37h1v1h-1zM13 38h1v1h-1zM14 38h1v1h-1zM15 38h1v1h-1z"/><path fill="#AC4124" d="M16 38h1v1h-1z"/><path fill="#EF835D" d="M17 38h1v1h-1z"/><path fill="#F3A280" d="M18 38h1v1h-1z"/><path fill="#F5B090" d="M19 38h1v1h-1z"/><path fill="#F3A280" d="M20 38h1v1h-1z"/><path fill="#EF8059" d="M21 38h1v1h-1z"/><path fill="#EB572F" d="M22 38h1v1h-1z"/><path fill="#E8340C" d="M23 38h1v1h-1z"/><path fill="#D21D09" d="M24 38h1v1h-1z"/><path fill="#B60005" d="M25 38h1v1h-1z"/><path fill="#CB2D22" d="M26 38h1v1h-1z"/><path fill="#EE7951" d="M27 38h1v1h-1zM28 38h1v1h-1zM29 38h1v1h-1zM30 38h1v1h-1zM31 38h1v1h-1zM32 38h1v1h-1zM33 38h1v1h-1zM34 38h1v1h-1zM35 38h1v1h-1z"/><path fill="#EE754D" d="M36 38h1v1h-1z"/><path fill="#E8340C" d="M37 38h1v1h-1zM38 38h1v1h-1zM39 38h1v1h-1zM40 38h1v1h-1zM41 38h1v1h-1zM42 38h1v1h-1zM43 38h1v1h-1z"/><path fill="#C32F0E" d="M44 38h1v1h-1z"/><path fill="#231815" d="M45 38h1v1h-1zM46 38h1v1h-1zM47 38h1v1h-1zM48 38h1v1h-1zM49 38h1v1h-1zM50 38h1v1h-1zM51 38h1v1h-1zM52 38h1v1h-1zM53 38h1v1h-1zM54 38h1v1h-1zM55 38h1v1h-1zM56 38h1v1h-1zM57 38h1v1h-1zM58 38h1v1h-1zM59 38h1v1h-1zM13 39h1v1h-1zM14 39h1v1h-1z"/><path fill="#541F13" d="M15 39h1v1h-1z"/><path fill="#ED7048" d="M16 39h1v1h-1z"/><path fill="#F39F7C" d="M17 39h1v1h-1z"/><path fill="#F5B090" d="M18 39h1v1h-1zM19 39h1v1h-1zM20 39h1v1h-1z"/><path fill="#F5AD8C" d="M21 39h1v1h-1z"/><path fill="#EF8059" d="M22 39h1v1h-1z"/><path fill="#E93D15" d="M23 39h1v1h-1z"/><path fill="#E8340C" d="M24 39h1v1h-1z"/><path fill="#B90305" d="M25 39h1v1h-1z"/><path fill="#B60005" d="M26 39h1v1h-1z"/><path fill="#E05B3E" d="M27 39h1v1h-1z"/><path fill="#EE7951" d="M28 39h1v1h-1zM29 39h1v1h-1zM30 39h1v1h-1zM31 39h1v1h-1zM32 39h1v1h-1zM33 39h1v1h-1zM34 39h1v1h-1zM35 39h1v1h-1z"/><path fill="#EC633B" d="M36 39h1v1h-1z"/><path fill="#E8340C" d="M37 39h1v1h-1zM38 39h1v1h-1zM39 39h1v1h-1zM40 39h1v1h-1zM41 39h1v1h-1zM42 39h1v1h-1zM43 39h1v1h-1zM44 39h1v1h-1z"/><path fill="#922810" d="M45 39h1v1h-1z"/><path fill="#231815" d="M46 39h1v1h-1zM47 39h1v1h-1zM48 39h1v1h-1zM49 39h1v1h-1zM50 39h1v1h-1zM51 39h1v1h-1zM52 39h1v1h-1zM53 39h1v1h-1zM54 39h1v1h-1zM55 39h1v1h-1zM56 39h1v1h-1zM57 39h1v1h-1zM58 39h1v1h-1zM12 40h1v1h-1zM13 40h1v1h-1zM14 40h1v1h-1z"/><path fill="#9F2E14" d="M15 40h1v1h-1z"/><path fill="#EE7951" d="M16 40h1v1h-1z"/><path fill="#F18E69" d="M17 40h1v1h-1z"/><path fill="#F5B090" d="M18 40h1v1h-1zM19 40h1v1h-1zM20 40h1v1h-1zM21 40h1v1h-1z"/><path fill="#F39F7C" d="M22 40h1v1h-1z"/><path fill="#EB522A" d="M23 40h1v1h-1z"/><path fill="#E8340C" d="M24 40h1v1h-1z"/><path fill="#C30D07" d="M25 40h1v1h-1z"/><path fill="#B60005" d="M26 40h1v1h-1z"/><path fill="#D23D2B" d="M27 40h1v1h-1z"/><path fill="#EE7951" d="M28 40h1v1h-1zM29 40h1v1h-1zM30 40h1v1h-1zM31 40h1v1h-1zM32 40h1v1h-1zM33 40h1v1h-1zM34 40h1v1h-1zM35 40h1v1h-1z"/><path fill="#EA4E26" d="M36 40h1v1h-1z"/><path fill="#E8340C" d="M37 40h1v1h-1zM38 40h1v1h-1zM39 40h1v1h-1zM40 40h1v1h-1zM41 40h1v1h-1zM42 40h1v1h-1zM43 40h1v1h-1zM44 40h1v1h-1z"/><path fill="#B72D0E" d="M45 40h1v1h-1z"/><path fill="#231815" d="M46 40h1v1h-1zM47 40h1v1h-1zM48 40h1v1h-1zM51 40h1v1h-1zM52 40h1v1h-1zM53 40h1v1h-1zM54 40h1v1h-1zM55 40h1v1h-1zM12 41h1v1h-1zM13 41h1v1h-1zM14 41h1v1h-1z"/><path fill="#B83617" d="M15 41h1v1h-1z"/><path fill="#EE7951" d="M16 41h1v1h-1zM17 41h1v1h-1z"/><path fill="#F08A65" d="M18 41h1v1h-1z"/><path fill="#F4A988" d="M19 41h1v1h-1z"/><path fill="#F5B090" d="M20 41h1v1h-1zM21 41h1v1h-1z"/><path fill="#F3A280" d="M22 41h1v1h-1z"/><path fill="#EB572F" d="M23 41h1v1h-1z"/><path fill="#E8340C" d="M24 41h1v1h-1z"/><path fill="#BF0A06" d="M25 41h1v1h-1z"/><path fill="#B60005" d="M26 41h1v1h-1z"/><path fill="#C41E18" d="M27 41h1v1h-1z"/><path fill="#EE7951" d="M28 41h1v1h-1zM29 41h1v1h-1zM30 41h1v1h-1zM31 41h1v1h-1zM32 41h1v1h-1zM33 41h1v1h-1zM34 41h1v1h-1zM35 41h1v1h-1z"/><path fill="#E83810" d="M36 41h1v1h-1z"/><path fill="#E8340C" d="M37 41h1v1h-1zM38 41h1v1h-1zM39 41h1v1h-1zM40 41h1v1h-1zM41 41h1v1h-1zM42 41h1v1h-1zM43 41h1v1h-1zM44 41h1v1h-1z"/><path fill="#6D2312" d="M45 41h1v1h-1z"/><path fill="#231815" d="M46 41h1v1h-1zM47 41h1v1h-1zM48 41h1v1h-1zM12 42h1v1h-1zM13 42h1v1h-1zM14 42h1v1h-1z"/><path fill="#AA2B0F" d="M15 42h1v1h-1z"/><path fill="#EE754D" d="M16 42h1v1h-1z"/><path fill="#EE7951" d="M17 42h1v1h-1zM18 42h1v1h-1zM19 42h1v1h-1z"/><path fill="#EF835D" d="M20 42h1v1h-1z"/><path fill="#F08761" d="M21 42h1v1h-1z"/><path fill="#EE7C55" d="M22 42h1v1h-1z"/><path fill="#EA4A22" d="M23 42h1v1h-1z"/><path fill="#E5310C" d="M24 42h1v1h-1z"/><path fill="#B60005" d="M25 42h1v1h-1zM26 42h1v1h-1z"/><path fill="#C41E18" d="M27 42h1v1h-1z"/><path fill="#EE7951" d="M28 42h1v1h-1zM29 42h1v1h-1zM30 42h1v1h-1zM31 42h1v1h-1zM32 42h1v1h-1zM33 42h1v1h-1zM34 42h1v1h-1z"/><path fill="#EC5F37" d="M35 42h1v1h-1z"/><path fill="#E8340C" d="M36 42h1v1h-1zM37 42h1v1h-1zM38 42h1v1h-1zM39 42h1v1h-1zM40 42h1v1h-1zM41 42h1v1h-1zM42 42h1v1h-1zM43 42h1v1h-1zM44 42h1v1h-1z"/><path fill="#2F1A14" d="M45 42h1v1h-1z"/><path fill="#231815" d="M46 42h1v1h-1zM47 42h1v1h-1zM12 43h1v1h-1zM13 43h1v1h-1zM14 43h1v1h-1z"/><path fill="#6D2312" d="M15 43h1v1h-1z"/><path fill="#EB522A" d="M16 43h1v1h-1z"/><path fill="#EE7951" d="M17 43h1v1h-1zM18 43h1v1h-1zM19 43h1v1h-1zM20 43h1v1h-1zM21 43h1v1h-1z"/><path fill="#ED7048" d="M22 43h1v1h-1z"/><path fill="#E83810" d="M23 43h1v1h-1z"/><path fill="#D52109" d="M24 43h1v1h-1z"/><path fill="#B60005" d="M25 43h1v1h-1zM26 43h1v1h-1z"/><path fill="#D23D2B" d="M27 43h1v1h-1z"/><path fill="#EE7951" d="M28 43h1v1h-1zM29 43h1v1h-1zM30 43h1v1h-1zM31 43h1v1h-1zM32 43h1v1h-1zM33 43h1v1h-1zM34 43h1v1h-1z"/><path fill="#EA4A22" d="M35 43h1v1h-1z"/><path fill="#E8340C" d="M36 43h1v1h-1zM37 43h1v1h-1zM38 43h1v1h-1zM39 43h1v1h-1zM40 43h1v1h-1zM41 43h1v1h-1zM42 43h1v1h-1zM43 43h1v1h-1z"/><path fill="#AA2B0F" d="M44 43h1v1h-1z"/><path fill="#231815" d="M45 43h1v1h-1zM46 43h1v1h-1zM47 43h1v1h-1zM12 44h1v1h-1zM13 44h1v1h-1zM14 44h1v1h-1z"/><path fill="#541410" d="M15 44h1v1h-1z"/><path fill="#DF2A0B" d="M16 44h1v1h-1z"/><path fill="#EB5B33" d="M17 44h1v1h-1z"/><path fill="#EE7951" d="M18 44h1v1h-1zM19 44h1v1h-1zM20 44h1v1h-1z"/><path fill="#ED7048" d="M21 44h1v1h-1z"/><path fill="#E94119" d="M22 44h1v1h-1z"/><path fill="#E5310C" d="M23 44h1v1h-1z"/><path fill="#BC0706" d="M24 44h1v1h-1z"/><path fill="#B60005" d="M25 44h1v1h-1zM26 44h1v1h-1z"/><path fill="#DD5339" d="M27 44h1v1h-1z"/><path fill="#EE7951" d="M28 44h1v1h-1zM29 44h1v1h-1zM30 44h1v1h-1zM31 44h1v1h-1zM32 44h1v1h-1zM33 44h1v1h-1z"/><path fill="#ED7048" d="M34 44h1v1h-1z"/><path fill="#E8340C" d="M35 44h1v1h-1zM36 44h1v1h-1zM37 44h1v1h-1zM38 44h1v1h-1zM39 44h1v1h-1zM40 44h1v1h-1zM41 44h1v1h-1zM42 44h1v1h-1zM43 44h1v1h-1z"/><path fill="#612112" d="M44 44h1v1h-1z"/><path fill="#231815" d="M45 44h1v1h-1zM46 44h1v1h-1zM47 44h1v1h-1zM12 45h1v1h-1zM13 45h1v1h-1zM14 45h1v1h-1z"/><path fill="#7F090B" d="M15 45h1v1h-1z"/><path fill="#B90305" d="M16 45h1v1h-1z"/><path fill="#DC270A" d="M17 45h1v1h-1z"/><path fill="#E93D15" d="M18 45h1v1h-1z"/><path fill="#EA451D" d="M19 45h1v1h-1zM20 45h1v1h-1z"/><path fill="#E8340C" d="M21 45h1v1h-1z"/><path fill="#E5310C" d="M22 45h1v1h-1z"/><path fill="#BF0A06" d="M23 45h1v1h-1z"/><path fill="#B60005" d="M24 45h1v1h-1zM25 45h1v1h-1z"/><path fill="#C11713" d="M26 45h1v1h-1z"/><path fill="#EE7951" d="M27 45h1v1h-1zM28 45h1v1h-1zM29 45h1v1h-1zM30 45h1v1h-1zM31 45h1v1h-1zM32 45h1v1h-1zM33 45h1v1h-1z"/><path fill="#EB572F" d="M34 45h1v1h-1z"/><path fill="#E8340C" d="M35 45h1v1h-1zM36 45h1v1h-1zM37 45h1v1h-1zM38 45h1v1h-1zM39 45h1v1h-1zM40 45h1v1h-1zM41 45h1v1h-1zM42 45h1v1h-1z"/><path fill="#DC320D" d="M43 45h1v1h-1z"/><path fill="#231815" d="M44 45h1v1h-1zM45 45h1v1h-1zM46 45h1v1h-1zM12 46h1v1h-1zM13 46h1v1h-1z"/><path fill="#2F1A14" d="M14 46h1v1h-1z"/><path fill="#AD0206" d="M15 46h1v1h-1z"/><path fill="#B60005" d="M16 46h1v1h-1zM17 46h1v1h-1z"/><path fill="#BF0A06" d="M18 46h1v1h-1z"/><path fill="#CC1708" d="M19 46h1v1h-1z"/><path fill="#CF1A09" d="M20 46h1v1h-1z"/><path fill="#C61007" d="M21 46h1v1h-1z"/><path fill="#B90305" d="M22 46h1v1h-1z"/><path fill="#B60005" d="M23 46h1v1h-1zM24 46h1v1h-1zM25 46h1v1h-1z"/><path fill="#E46243" d="M26 46h1v1h-1z"/><path fill="#EE7951" d="M27 46h1v1h-1zM28 46h1v1h-1zM29 46h1v1h-1zM30 46h1v1h-1zM31 46h1v1h-1zM32 46h1v1h-1zM33 46h1v1h-1z"/><path fill="#E93D15" d="M34 46h1v1h-1z"/><path fill="#E8340C" d="M35 46h1v1h-1zM36 46h1v1h-1zM37 46h1v1h-1zM38 46h1v1h-1zM39 46h1v1h-1zM40 46h1v1h-1zM41 46h1v1h-1zM42 46h1v1h-1z"/><path fill="#9E2A0F" d="M43 46h1v1h-1z"/><path fill="#231815" d="M44 46h1v1h-1zM45 46h1v1h-1zM46 46h1v1h-1zM11 47h1v1h-1zM12 47h1v1h-1zM13 47h1v1h-1z"/><path fill="#6D2312" d="M14 47h1v1h-1z"/><path fill="#DA351B" d="M15 47h1v1h-1z"/><path fill="#BA080A" d="M16 47h1v1h-1z"/><path fill="#B60005" d="M17 47h1v1h-1zM18 47h1v1h-1zM19 47h1v1h-1zM20 47h1v1h-1zM21 47h1v1h-1zM22 47h1v1h-1zM23 47h1v1h-1z"/><path fill="#BA080A" d="M24 47h1v1h-1z"/><path fill="#D94C35" d="M25 47h1v1h-1z"/><path fill="#EE7951" d="M26 47h1v1h-1zM27 47h1v1h-1zM28 47h1v1h-1zM29 47h1v1h-1zM30 47h1v1h-1zM31 47h1v1h-1zM32 47h1v1h-1z"/><path fill="#EC633B" d="M33 47h1v1h-1z"/><path fill="#E8340C" d="M34 47h1v1h-1zM35 47h1v1h-1zM36 47h1v1h-1zM37 47h1v1h-1zM38 47h1v1h-1zM39 47h1v1h-1zM40 47h1v1h-1zM41 47h1v1h-1zM42 47h1v1h-1z"/><path fill="#541F13" d="M43 47h1v1h-1z"/><path fill="#231815" d="M44 47h1v1h-1zM45 47h1v1h-1zM6 48h1v1H6zM7 48h1v1H7zM8 48h1v1H8zM9 48h1v1H9zM10 48h1v1h-1zM11 48h1v1h-1zM12 48h1v1h-1zM13 48h1v1h-1z"/><path fill="#CF310D" d="M14 48h1v1h-1z"/><path fill="#ED6C44" d="M15 48h1v1h-1z"/><path fill="#E76A48" d="M16 48h1v1h-1z"/><path fill="#CB2D22" d="M17 48h1v1h-1z"/><path fill="#B60005" d="M18 48h1v1h-1zM19 48h1v1h-1zM20 48h1v1h-1zM21 48h1v1h-1zM22 48h1v1h-1z"/><path fill="#C8261D" d="M23 48h1v1h-1z"/><path fill="#E76A48" d="M24 48h1v1h-1z"/><path fill="#EE7951" d="M25 48h1v1h-1zM26 48h1v1h-1zM27 48h1v1h-1zM28 48h1v1h-1zM29 48h1v1h-1zM30 48h1v1h-1zM31 48h1v1h-1zM32 48h1v1h-1z"/><path fill="#EA451D" d="M33 48h1v1h-1z"/><path fill="#E8340C" d="M34 48h1v1h-1zM35 48h1v1h-1zM36 48h1v1h-1zM37 48h1v1h-1zM38 48h1v1h-1zM39 48h1v1h-1zM40 48h1v1h-1zM41 48h1v1h-1z"/><path fill="#CF310D" d="M42 48h1v1h-1z"/><path fill="#231815" d="M43 48h1v1h-1zM44 48h1v1h-1zM45 48h1v1h-1zM5 49h1v1H5zM6 49h1v1H6zM7 49h1v1H7zM8 49h1v1H8zM9 49h1v1H9zM10 49h1v1h-1zM11 49h1v1h-1zM12 49h1v1h-1z"/><path fill="#2F1A14" d="M13 49h1v1h-1z"/><path fill="#9F3218" d="M14 49h1v1h-1z"/><path fill="#EE7951" d="M15 49h1v1h-1zM16 49h1v1h-1zM17 49h1v1h-1zM18 49h1v1h-1z"/><path fill="#E05B3E" d="M19 49h1v1h-1zM20 49h1v1h-1zM21 49h1v1h-1z"/><path fill="#EB714C" d="M22 49h1v1h-1z"/><path fill="#EE7951" d="M23 49h1v1h-1zM24 49h1v1h-1zM25 49h1v1h-1zM26 49h1v1h-1zM27 49h1v1h-1zM28 49h1v1h-1zM29 49h1v1h-1zM30 49h1v1h-1zM31 49h1v1h-1z"/><path fill="#ED7048" d="M32 49h1v1h-1z"/><path fill="#E8340C" d="M33 49h1v1h-1zM34 49h1v1h-1zM35 49h1v1h-1zM36 49h1v1h-1zM37 49h1v1h-1zM38 49h1v1h-1zM39 49h1v1h-1zM40 49h1v1h-1zM41 49h1v1h-1z"/><path fill="#922810" d="M42 49h1v1h-1z"/><path fill="#231815" d="M43 49h1v1h-1zM44 49h1v1h-1zM45 49h1v1h-1zM4 50h1v1H4zM5 50h1v1H5zM6 50h1v1H6zM7 50h1v1H7zM8 50h1v1H8zM9 50h1v1H9zM10 50h1v1h-1zM11 50h1v1h-1zM12 50h1v1h-1zM13 50h1v1h-1zM14 50h1v1h-1z"/><path fill="#A2553B" d="M15 50h1v1h-1z"/><path fill="#EE7951" d="M16 50h1v1h-1zM17 50h1v1h-1zM18 50h1v1h-1zM19 50h1v1h-1zM20 50h1v1h-1zM21 50h1v1h-1zM22 50h1v1h-1zM23 50h1v1h-1zM24 50h1v1h-1zM25 50h1v1h-1zM26 50h1v1h-1zM27 50h1v1h-1zM28 50h1v1h-1zM29 50h1v1h-1zM30 50h1v1h-1zM31 50h1v1h-1z"/><path fill="#EA4E26" d="M32 50h1v1h-1z"/><path fill="#E8340C" d="M33 50h1v1h-1zM34 50h1v1h-1zM35 50h1v1h-1zM36 50h1v1h-1zM37 50h1v1h-1zM38 50h1v1h-1zM39 50h1v1h-1zM40 50h1v1h-1zM41 50h1v1h-1z"/><path fill="#3C1C14" d="M42 50h1v1h-1z"/><path fill="#231815" d="M43 50h1v1h-1zM44 50h1v1h-1zM4 51h1v1H4zM5 51h1v1H5zM6 51h1v1H6z"/><path fill="#B37961" d="M7 51h1v1H7z"/><path fill="#E79C7C" d="M8 51h1v1H8z"/><path fill="#DA9375" d="M9 51h1v1H9z"/><path fill="#C08268" d="M10 51h1v1h-1z"/><path fill="#89422E" d="M11 51h1v1h-1z"/><path fill="#5A1A11" d="M12 51h1v1h-1z"/><path fill="#2C1714" d="M13 51h1v1h-1z"/><path fill="#231815" d="M14 51h1v1h-1z"/><path fill="#BB6142" d="M15 51h1v1h-1z"/><path fill="#EE7951" d="M16 51h1v1h-1zM17 51h1v1h-1zM18 51h1v1h-1zM19 51h1v1h-1zM20 51h1v1h-1zM21 51h1v1h-1zM22 51h1v1h-1zM23 51h1v1h-1zM24 51h1v1h-1zM25 51h1v1h-1zM26 51h1v1h-1zM27 51h1v1h-1zM28 51h1v1h-1zM29 51h1v1h-1zM30 51h1v1h-1z"/><path fill="#EE754D" d="M31 51h1v1h-1z"/><path fill="#E8340C" d="M32 51h1v1h-1zM33 51h1v1h-1zM34 51h1v1h-1zM35 51h1v1h-1zM36 51h1v1h-1zM37 51h1v1h-1zM38 51h1v1h-1zM39 51h1v1h-1zM40 51h1v1h-1z"/><path fill="#C32F0E" d="M41 51h1v1h-1z"/><path fill="#231815" d="M42 51h1v1h-1zM43 51h1v1h-1zM44 51h1v1h-1zM4 52h1v1H4zM5 52h1v1H5zM6 52h1v1H6z"/><path fill="#E79C7C" d="M7 52h1v1H7z"/><path fill="#F4A583" d="M8 52h1v1H8zM9 52h1v1H9zM10 52h1v1h-1z"/><path fill="#EB502A" d="M11 52h1v1h-1z"/><path fill="#C30D07" d="M12 52h1v1h-1z"/><path fill="#B60005" d="M13 52h1v1h-1z"/><path fill="#C41E18" d="M14 52h1v1h-1z"/><path fill="#EE7951" d="M15 52h1v1h-1zM16 52h1v1h-1zM17 52h1v1h-1zM18 52h1v1h-1zM19 52h1v1h-1zM20 52h1v1h-1zM21 52h1v1h-1zM22 52h1v1h-1zM23 52h1v1h-1zM24 52h1v1h-1zM25 52h1v1h-1zM26 52h1v1h-1zM27 52h1v1h-1zM28 52h1v1h-1zM29 52h1v1h-1zM30 52h1v1h-1z"/><path fill="#EB572F" d="M31 52h1v1h-1z"/><path fill="#E8340C" d="M32 52h1v1h-1zM33 52h1v1h-1zM34 52h1v1h-1zM35 52h1v1h-1zM36 52h1v1h-1zM37 52h1v1h-1zM38 52h1v1h-1zM39 52h1v1h-1zM40 52h1v1h-1z"/><path fill="#792411" d="M41 52h1v1h-1z"/><path fill="#231815" d="M42 52h1v1h-1zM43 52h1v1h-1zM44 52h1v1h-1zM4 53h1v1H4zM5 53h1v1H5zM6 53h1v1H6z"/><path fill="#AC391E" d="M7 53h1v1H7z"/><path fill="#EF744F" d="M8 53h1v1H8z"/><path fill="#F0825E" d="M9 53h1v1H9z"/><path fill="#ED5E39" d="M10 53h1v1h-1z"/><path fill="#E22E0B" d="M11 53h1v1h-1z"/><path fill="#B60005" d="M12 53h1v1h-1zM13 53h1v1h-1z"/><path fill="#CF3526" d="M14 53h1v1h-1z"/><path fill="#EE7951" d="M15 53h1v1h-1zM16 53h1v1h-1zM17 53h1v1h-1zM18 53h1v1h-1zM19 53h1v1h-1zM20 53h1v1h-1zM21 53h1v1h-1zM22 53h1v1h-1zM23 53h1v1h-1zM24 53h1v1h-1zM25 53h1v1h-1zM26 53h1v1h-1zM27 53h1v1h-1zM28 53h1v1h-1zM29 53h1v1h-1z"/><path fill="#EE754D" d="M30 53h1v1h-1z"/><path fill="#E83810" d="M31 53h1v1h-1z"/><path fill="#E8340C" d="M32 53h1v1h-1zM33 53h1v1h-1zM34 53h1v1h-1zM35 53h1v1h-1zM36 53h1v1h-1zM37 53h1v1h-1zM38 53h1v1h-1zM39 53h1v1h-1zM40 53h1v1h-1z"/><path fill="#3C1C14" d="M41 53h1v1h-1z"/><path fill="#231815" d="M42 53h1v1h-1zM43 53h1v1h-1zM4 54h1v1H4zM5 54h1v1H5zM6 54h1v1H6z"/><path fill="#6D2312" d="M7 54h1v1H7z"/><path fill="#E8340C" d="M8 54h1v1H8zM9 54h1v1H9zM10 54h1v1h-1z"/><path fill="#BF0A06" d="M11 54h1v1h-1z"/><path fill="#B60005" d="M12 54h1v1h-1zM13 54h1v1h-1z"/><path fill="#E05B3E" d="M14 54h1v1h-1z"/><path fill="#EE7951" d="M15 54h1v1h-1zM16 54h1v1h-1zM17 54h1v1h-1zM18 54h1v1h-1zM19 54h1v1h-1zM20 54h1v1h-1zM21 54h1v1h-1zM22 54h1v1h-1zM23 54h1v1h-1zM24 54h1v1h-1zM25 54h1v1h-1zM26 54h1v1h-1zM27 54h1v1h-1zM28 54h1v1h-1zM29 54h1v1h-1z"/><path fill="#EB572F" d="M30 54h1v1h-1z"/><path fill="#E8340C" d="M31 54h1v1h-1zM32 54h1v1h-1zM33 54h1v1h-1zM34 54h1v1h-1zM35 54h1v1h-1zM36 54h1v1h-1zM37 54h1v1h-1zM38 54h1v1h-1zM39 54h1v1h-1z"/><path fill="#AA2B0F" d="M40 54h1v1h-1z"/><path fill="#231815" d="M41 54h1v1h-1zM42 54h1v1h-1zM43 54h1v1h-1zM5 55h1v1H5zM6 55h1v1H6zM7 55h1v1H7z"/><path fill="#CF310D" d="M8 55h1v1H8z"/><path fill="#E5310C" d="M9 55h1v1H9z"/><path fill="#C30D07" d="M10 55h1v1h-1z"/><path fill="#B60005" d="M11 55h1v1h-1zM12 55h1v1h-1z"/><path fill="#C41E18" d="M13 55h1v1h-1z"/><path fill="#EE7951" d="M14 55h1v1h-1zM15 55h1v1h-1zM16 55h1v1h-1zM17 55h1v1h-1zM18 55h1v1h-1zM19 55h1v1h-1zM20 55h1v1h-1zM21 55h1v1h-1zM22 55h1v1h-1zM23 55h1v1h-1zM24 55h1v1h-1zM25 55h1v1h-1zM26 55h1v1h-1zM27 55h1v1h-1zM28 55h1v1h-1zM29 55h1v1h-1z"/><path fill="#E93D15" d="M30 55h1v1h-1z"/><path fill="#E8340C" d="M31 55h1v1h-1zM32 55h1v1h-1zM33 55h1v1h-1zM34 55h1v1h-1zM35 55h1v1h-1zM36 55h1v1h-1zM37 55h1v1h-1zM38 55h1v1h-1z"/><path fill="#CF310D" d="M39 55h1v1h-1z"/><path fill="#612112" d="M40 55h1v1h-1z"/><path fill="#231815" d="M41 55h1v1h-1zM42 55h1v1h-1zM43 55h1v1h-1zM5 56h1v1H5zM6 56h1v1H6zM7 56h1v1H7z"/><path fill="#79190F" d="M8 56h1v1H8z"/><path fill="#B90305" d="M9 56h1v1H9z"/><path fill="#B60005" d="M10 56h1v1h-1zM11 56h1v1h-1zM12 56h1v1h-1z"/><path fill="#E46243" d="M13 56h1v1h-1z"/><path fill="#EE7951" d="M14 56h1v1h-1zM15 56h1v1h-1zM16 56h1v1h-1zM17 56h1v1h-1zM18 56h1v1h-1zM19 56h1v1h-1zM20 56h1v1h-1zM21 56h1v1h-1zM22 56h1v1h-1zM23 56h1v1h-1zM24 56h1v1h-1zM25 56h1v1h-1zM26 56h1v1h-1zM27 56h1v1h-1zM28 56h1v1h-1z"/><path fill="#EC5F37" d="M29 56h1v1h-1z"/><path fill="#E8340C" d="M30 56h1v1h-1zM31 56h1v1h-1zM32 56h1v1h-1zM33 56h1v1h-1zM34 56h1v1h-1zM35 56h1v1h-1zM36 56h1v1h-1zM37 56h1v1h-1z"/><path fill="#AA2B0F" d="M38 56h1v1h-1z"/><path fill="#231815" d="M39 56h1v1h-1zM40 56h1v1h-1zM41 56h1v1h-1zM42 56h1v1h-1zM6 57h1v1H6zM7 57h1v1H7z"/><path fill="#2C1714" d="M8 57h1v1H8z"/><path fill="#A40307" d="M9 57h1v1H9z"/><path fill="#B60005" d="M10 57h1v1h-1zM11 57h1v1h-1z"/><path fill="#D94C35" d="M12 57h1v1h-1z"/><path fill="#EF815A" d="M13 57h1v1h-1z"/><path fill="#F39A77" d="M14 57h1v1h-1z"/><path fill="#F4A583" d="M15 57h1v1h-1zM16 57h1v1h-1z"/><path fill="#F1926D" d="M17 57h1v1h-1z"/><path fill="#EE7951" d="M18 57h1v1h-1zM19 57h1v1h-1zM20 57h1v1h-1zM21 57h1v1h-1zM22 57h1v1h-1zM23 57h1v1h-1zM24 57h1v1h-1zM25 57h1v1h-1zM26 57h1v1h-1zM27 57h1v1h-1zM28 57h1v1h-1z"/><path fill="#E93D15" d="M29 57h1v1h-1z"/><path fill="#E8340C" d="M30 57h1v1h-1zM31 57h1v1h-1zM32 57h1v1h-1zM33 57h1v1h-1zM34 57h1v1h-1zM35 57h1v1h-1zM36 57h1v1h-1z"/><path fill="#E5310C" d="M37 57h1v1h-1z"/><path fill="#88130C" d="M38 57h1v1h-1z"/><path fill="#231815" d="M39 57h1v1h-1zM40 57h1v1h-1zM41 57h1v1h-1zM42 57h1v1h-1zM6 58h1v1H6zM7 58h1v1H7zM8 58h1v1H8z"/><path fill="#5A0F0F" d="M9 58h1v1H9z"/><path fill="#B60005" d="M10 58h1v1h-1z"/><path fill="#CB2D22" d="M11 58h1v1h-1z"/><path fill="#EE7C54" d="M12 58h1v1h-1z"/><path fill="#F3A07D" d="M13 58h1v1h-1z"/><path fill="#F4A583" d="M14 58h1v1h-1zM15 58h1v1h-1zM16 58h1v1h-1zM17 58h1v1h-1z"/><path fill="#F08A64" d="M18 58h1v1h-1z"/><path fill="#EE7951" d="M19 58h1v1h-1zM20 58h1v1h-1zM21 58h1v1h-1zM22 58h1v1h-1zM23 58h1v1h-1zM24 58h1v1h-1zM25 58h1v1h-1zM26 58h1v1h-1zM27 58h1v1h-1z"/><path fill="#EC5F37" d="M28 58h1v1h-1z"/><path fill="#E8340C" d="M29 58h1v1h-1zM30 58h1v1h-1zM31 58h1v1h-1zM32 58h1v1h-1zM33 58h1v1h-1zM34 58h1v1h-1zM35 58h1v1h-1z"/><path fill="#E5310C" d="M36 58h1v1h-1z"/><path fill="#BF0A06" d="M37 58h1v1h-1z"/><path fill="#B60005" d="M38 58h1v1h-1z"/><path fill="#5A0F0F" d="M39 58h1v1h-1z"/><path fill="#231815" d="M40 58h1v1h-1zM41 58h1v1h-1zM42 58h1v1h-1zM43 58h1v1h-1zM7 59h1v1H7zM8 59h1v1H8zM9 59h1v1H9z"/><path fill="#CA2519" d="M10 59h1v1h-1z"/><path fill="#EE7951" d="M11 59h1v1h-1z"/><path fill="#F18C67" d="M12 59h1v1h-1z"/><path fill="#F4A583" d="M13 59h1v1h-1zM14 59h1v1h-1zM15 59h1v1h-1zM16 59h1v1h-1zM17 59h1v1h-1z"/><path fill="#F29773" d="M18 59h1v1h-1z"/><path fill="#EE7951" d="M19 59h1v1h-1zM20 59h1v1h-1zM21 59h1v1h-1zM22 59h1v1h-1zM23 59h1v1h-1zM24 59h1v1h-1zM25 59h1v1h-1zM26 59h1v1h-1zM27 59h1v1h-1z"/><path fill="#E93D15" d="M28 59h1v1h-1z"/><path fill="#E8340C" d="M29 59h1v1h-1zM30 59h1v1h-1zM31 59h1v1h-1zM32 59h1v1h-1zM33 59h1v1h-1zM34 59h1v1h-1zM35 59h1v1h-1z"/><path fill="#C61007" d="M36 59h1v1h-1z"/><path fill="#B60005" d="M37 59h1v1h-1zM38 59h1v1h-1zM39 59h1v1h-1z"/><path fill="#85100C" d="M40 59h1v1h-1z"/><path fill="#231815" d="M41 59h1v1h-1zM42 59h1v1h-1zM43 59h1v1h-1zM44 59h1v1h-1zM6 60h1v1H6zM7 60h1v1H7zM8 60h1v1H8z"/><path fill="#481D13" d="M9 60h1v1H9z"/><path fill="#EC5F37" d="M10 60h1v1h-1z"/><path fill="#EE7951" d="M11 60h1v1h-1z"/><path fill="#F39A77" d="M12 60h1v1h-1z"/><path fill="#F4A583" d="M13 60h1v1h-1zM14 60h1v1h-1zM15 60h1v1h-1zM16 60h1v1h-1zM17 60h1v1h-1z"/><path fill="#F39A77" d="M18 60h1v1h-1z"/><path fill="#EE7951" d="M19 60h1v1h-1zM20 60h1v1h-1zM21 60h1v1h-1zM22 60h1v1h-1zM23 60h1v1h-1zM24 60h1v1h-1zM25 60h1v1h-1zM26 60h1v1h-1z"/><path fill="#EB572F" d="M27 60h1v1h-1z"/><path fill="#E8340C" d="M28 60h1v1h-1zM29 60h1v1h-1zM30 60h1v1h-1zM31 60h1v1h-1zM32 60h1v1h-1zM33 60h1v1h-1zM34 60h1v1h-1z"/><path fill="#D52109" d="M35 60h1v1h-1z"/><path fill="#B60005" d="M36 60h1v1h-1zM37 60h1v1h-1zM38 60h1v1h-1z"/><path fill="#BF0A06" d="M39 60h1v1h-1z"/><path fill="#E5310C" d="M40 60h1v1h-1z"/><path fill="#9E2A0F" d="M41 60h1v1h-1z"/><path fill="#231815" d="M42 60h1v1h-1zM43 60h1v1h-1zM44 60h1v1h-1zM45 60h1v1h-1zM6 61h1v1H6zM7 61h1v1H7zM8 61h1v1H8z"/><path fill="#9E2A0F" d="M9 61h1v1H9z"/><path fill="#ED6840" d="M10 61h1v1h-1z"/><path fill="#EE7951" d="M11 61h1v1h-1z"/><path fill="#F39A77" d="M12 61h1v1h-1z"/><path fill="#F4A583" d="M13 61h1v1h-1zM14 61h1v1h-1zM15 61h1v1h-1zM16 61h1v1h-1zM17 61h1v1h-1z"/><path fill="#F29570" d="M18 61h1v1h-1z"/><path fill="#EE7951" d="M19 61h1v1h-1zM20 61h1v1h-1zM21 61h1v1h-1zM22 61h1v1h-1zM23 61h1v1h-1zM24 61h1v1h-1zM25 61h1v1h-1z"/><path fill="#ED6C44" d="M26 61h1v1h-1z"/><path fill="#E8340C" d="M27 61h1v1h-1zM28 61h1v1h-1zM29 61h1v1h-1zM30 61h1v1h-1zM31 61h1v1h-1zM32 61h1v1h-1zM33 61h1v1h-1zM34 61h1v1h-1z"/><path fill="#BC0706" d="M35 61h1v1h-1z"/><path fill="#B60005" d="M36 61h1v1h-1zM37 61h1v1h-1z"/><path fill="#B90305" d="M38 61h1v1h-1z"/><path fill="#E22E0B" d="M39 61h1v1h-1z"/><path fill="#E8340C" d="M40 61h1v1h-1zM41 61h1v1h-1z"/><path fill="#9E2A0F" d="M42 61h1v1h-1z"/><path fill="#231815" d="M43 61h1v1h-1zM44 61h1v1h-1zM45 61h1v1h-1zM46 61h1v1h-1zM6 62h1v1H6zM7 62h1v1H7zM8 62h1v1H8z"/><path fill="#DC320D" d="M9 62h1v1H9z"/><path fill="#ED6840" d="M10 62h1v1h-1z"/><path fill="#EE7951" d="M11 62h1v1h-1z"/><path fill="#F1926D" d="M12 62h1v1h-1z"/><path fill="#F4A583" d="M13 62h1v1h-1zM14 62h1v1h-1zM15 62h1v1h-1zM16 62h1v1h-1zM17 62h1v1h-1z"/><path fill="#F0845E" d="M18 62h1v1h-1z"/><path fill="#EE7951" d="M19 62h1v1h-1zM20 62h1v1h-1zM21 62h1v1h-1zM22 62h1v1h-1zM23 62h1v1h-1zM24 62h1v1h-1z"/><path fill="#ED6C44" d="M25 62h1v1h-1z"/><path fill="#E83810" d="M26 62h1v1h-1z"/><path fill="#E8340C" d="M27 62h1v1h-1zM28 62h1v1h-1zM29 62h1v1h-1zM30 62h1v1h-1zM31 62h1v1h-1zM32 62h1v1h-1zM33 62h1v1h-1z"/><path fill="#D8240A" d="M34 62h1v1h-1z"/><path fill="#B60005" d="M35 62h1v1h-1zM36 62h1v1h-1zM37 62h1v1h-1z"/><path fill="#CF1A09" d="M38 62h1v1h-1z"/><path fill="#E8340C" d="M39 62h1v1h-1zM40 62h1v1h-1zM41 62h1v1h-1zM42 62h1v1h-1z"/><path fill="#9E2A0F" d="M43 62h1v1h-1z"/><path fill="#231815" d="M44 62h1v1h-1zM45 62h1v1h-1zM46 62h1v1h-1zM47 62h1v1h-1zM6 63h1v1H6zM7 63h1v1H7z"/><path fill="#612112" d="M8 63h1v1H8z"/><path fill="#E8340C" d="M9 63h1v1H9z"/><path fill="#EB522A" d="M10 63h1v1h-1z"/><path fill="#EE7951" d="M11 63h1v1h-1z"/><path fill="#EE7C54" d="M12 63h1v1h-1z"/><path fill="#F4A280" d="M13 63h1v1h-1z"/><path fill="#F4A583" d="M14 63h1v1h-1zM15 63h1v1h-1zM16 63h1v1h-1z"/><path fill="#F08A64" d="M17 63h1v1h-1z"/><path fill="#EE7951" d="M18 63h1v1h-1zM19 63h1v1h-1zM20 63h1v1h-1zM21 63h1v1h-1zM22 63h1v1h-1zM23 63h1v1h-1z"/><path fill="#ED6C44" d="M24 63h1v1h-1z"/><path fill="#E83810" d="M25 63h1v1h-1z"/><path fill="#E8340C" d="M26 63h1v1h-1zM27 63h1v1h-1zM28 63h1v1h-1zM29 63h1v1h-1zM30 63h1v1h-1zM31 63h1v1h-1zM32 63h1v1h-1zM33 63h1v1h-1z"/><path fill="#CC1708" d="M34 63h1v1h-1z"/><path fill="#B60005" d="M35 63h1v1h-1zM36 63h1v1h-1zM37 63h1v1h-1z"/><path fill="#E5310C" d="M38 63h1v1h-1z"/><path fill="#E8340C" d="M39 63h1v1h-1zM40 63h1v1h-1zM41 63h1v1h-1zM42 63h1v1h-1zM43 63h1v1h-1z"/><path fill="#862611" d="M44 63h1v1h-1z"/><path fill="#231815" d="M45 63h1v1h-1zM46 63h1v1h-1zM47 63h1v1h-1zM5 64h1v1H5zM6 64h1v1H6zM7 64h1v1H7z"/><path fill="#862611" d="M8 64h1v1H8z"/><path fill="#E8340C" d="M9 64h1v1H9z"/><path fill="#E83810" d="M10 64h1v1h-1z"/><path fill="#ED6C44" d="M11 64h1v1h-1z"/><path fill="#EE7951" d="M12 64h1v1h-1z"/><path fill="#EE7C54" d="M13 64h1v1h-1z"/><path fill="#F18C67" d="M14 64h1v1h-1z"/><path fill="#F18F6A" d="M15 64h1v1h-1z"/><path fill="#EF7F57" d="M16 64h1v1h-1z"/><path fill="#EE7951" d="M17 64h1v1h-1zM18 64h1v1h-1zM19 64h1v1h-1zM20 64h1v1h-1zM21 64h1v1h-1zM22 64h1v1h-1z"/><path fill="#EB5B33" d="M23 64h1v1h-1z"/><path fill="#E8340C" d="M24 64h1v1h-1zM25 64h1v1h-1zM26 64h1v1h-1zM27 64h1v1h-1zM28 64h1v1h-1zM29 64h1v1h-1zM30 64h1v1h-1zM31 64h1v1h-1zM32 64h1v1h-1zM33 64h1v1h-1z"/><path fill="#C30D07" d="M34 64h1v1h-1z"/><path fill="#B60005" d="M35 64h1v1h-1zM36 64h1v1h-1z"/><path fill="#C61007" d="M37 64h1v1h-1z"/><path fill="#E8340C" d="M38 64h1v1h-1zM39 64h1v1h-1zM40 64h1v1h-1zM41 64h1v1h-1zM42 64h1v1h-1zM43 64h1v1h-1zM44 64h1v1h-1z"/><path fill="#612112" d="M45 64h1v1h-1z"/><path fill="#231815" d="M46 64h1v1h-1zM47 64h1v1h-1zM48 64h1v1h-1zM5 65h1v1H5zM6 65h1v1H6zM7 65h1v1H7z"/><path fill="#B72D0E" d="M8 65h1v1H8z"/><path fill="#E8340C" d="M9 65h1v1H9zM10 65h1v1h-1z"/><path fill="#E83810" d="M11 65h1v1h-1z"/><path fill="#EC633B" d="M12 65h1v1h-1z"/><path fill="#EE7951" d="M13 65h1v1h-1zM14 65h1v1h-1zM15 65h1v1h-1zM16 65h1v1h-1zM17 65h1v1h-1zM18 65h1v1h-1zM19 65h1v1h-1zM20 65h1v1h-1z"/><path fill="#ED6840" d="M21 65h1v1h-1z"/><path fill="#EA451D" d="M22 65h1v1h-1z"/><path fill="#EB5227" d="M23 65h1v1h-1z"/><path fill="#EF784E" d="M24 65h1v1h-1z"/><path fill="#EE7245" d="M25 65h1v1h-1z"/><path fill="#ED6135" d="M26 65h1v1h-1z"/><path fill="#E93911" d="M27 65h1v1h-1z"/><path fill="#E8340C" d="M28 65h1v1h-1zM29 65h1v1h-1zM30 65h1v1h-1zM31 65h1v1h-1zM32 65h1v1h-1zM33 65h1v1h-1z"/><path fill="#C30D07" d="M34 65h1v1h-1z"/><path fill="#B60005" d="M35 65h1v1h-1zM36 65h1v1h-1z"/><path fill="#CF1A09" d="M37 65h1v1h-1z"/><path fill="#E8340C" d="M38 65h1v1h-1zM39 65h1v1h-1zM40 65h1v1h-1zM41 65h1v1h-1zM42 65h1v1h-1zM43 65h1v1h-1zM44 65h1v1h-1z"/><path fill="#DC320D" d="M45 65h1v1h-1z"/><path fill="#2F1A14" d="M46 65h1v1h-1z"/><path fill="#231815" d="M47 65h1v1h-1zM48 65h1v1h-1zM5 66h1v1H5zM6 66h1v1H6zM7 66h1v1H7z"/><path fill="#541F13" d="M8 66h1v1H8z"/><path fill="#E8340C" d="M9 66h1v1H9zM10 66h1v1h-1zM11 66h1v1h-1zM12 66h1v1h-1z"/><path fill="#EA451D" d="M13 66h1v1h-1z"/><path fill="#EC5F37" d="M14 66h1v1h-1z"/><path fill="#EE754D" d="M15 66h1v1h-1z"/><path fill="#EE7951" d="M16 66h1v1h-1zM17 66h1v1h-1z"/><path fill="#ED6C44" d="M18 66h1v1h-1z"/><path fill="#EB5B33" d="M19 66h1v1h-1z"/><path fill="#E94119" d="M20 66h1v1h-1z"/><path fill="#E8340C" d="M21 66h1v1h-1z"/><path fill="#EC5C30" d="M22 66h1v1h-1z"/><path fill="#F2976E" d="M23 66h1v1h-1z"/><path fill="#F4A583" d="M24 66h1v1h-1z"/><path fill="#F4A380" d="M25 66h1v1h-1z"/><path fill="#F29066" d="M26 66h1v1h-1z"/><path fill="#EF7A4B" d="M27 66h1v1h-1z"/><path fill="#B90305" d="M28 66h1v1h-1z"/><path fill="#D8240A" d="M29 66h1v1h-1z"/><path fill="#E8340C" d="M30 66h1v1h-1zM31 66h1v1h-1zM32 66h1v1h-1zM33 66h1v1h-1z"/><path fill="#C30D07" d="M34 66h1v1h-1z"/><path fill="#B60005" d="M35 66h1v1h-1zM36 66h1v1h-1z"/><path fill="#D8240A" d="M37 66h1v1h-1z"/><path fill="#E8340C" d="M38 66h1v1h-1zM39 66h1v1h-1zM40 66h1v1h-1zM41 66h1v1h-1zM42 66h1v1h-1zM43 66h1v1h-1zM44 66h1v1h-1zM45 66h1v1h-1z"/><path fill="#9E2A0F" d="M46 66h1v1h-1z"/><path fill="#231815" d="M47 66h1v1h-1zM48 66h1v1h-1zM49 66h1v1h-1zM5 67h1v1H5zM6 67h1v1H6zM7 67h1v1H7zM8 67h1v1H8z"/><path fill="#BF0A06" d="M9 67h1v1H9z"/><path fill="#E8340C" d="M10 67h1v1h-1zM11 67h1v1h-1zM12 67h1v1h-1zM13 67h1v1h-1zM14 67h1v1h-1zM15 67h1v1h-1zM16 67h1v1h-1zM17 67h1v1h-1zM18 67h1v1h-1zM19 67h1v1h-1zM20 67h1v1h-1z"/><path fill="#E93911" d="M21 67h1v1h-1z"/><path fill="#F07F50" d="M22 67h1v1h-1z"/><path fill="#F39B74" d="M23 67h1v1h-1z"/><path fill="#F4A583" d="M24 67h1v1h-1zM25 67h1v1h-1zM26 67h1v1h-1z"/><path fill="#F1885A" d="M27 67h1v1h-1z"/><path fill="#B60005" d="M28 67h1v1h-1z"/><path fill="#B90305" d="M29 67h1v1h-1z"/><path fill="#E5310C" d="M30 67h1v1h-1z"/><path fill="#E8340C" d="M31 67h1v1h-1zM32 67h1v1h-1zM33 67h1v1h-1z"/><path fill="#C91408" d="M34 67h1v1h-1z"/><path fill="#B60005" d="M35 67h1v1h-1zM36 67h1v1h-1z"/><path fill="#D21D09" d="M37 67h1v1h-1z"/><path fill="#E8340C" d="M38 67h1v1h-1zM39 67h1v1h-1zM40 67h1v1h-1zM41 67h1v1h-1zM42 67h1v1h-1z"/><path fill="#C32F0E" d="M43 67h1v1h-1z"/><path fill="#AA2B0F" d="M44 67h1v1h-1z"/><path fill="#792411" d="M45 67h1v1h-1z"/><path fill="#3C1C14" d="M46 67h1v1h-1z"/><path fill="#231815" d="M47 67h1v1h-1zM48 67h1v1h-1zM49 67h1v1h-1zM4 68h1v1H4zM5 68h1v1H5zM6 68h1v1H6zM7 68h1v1H7z"/><path fill="#6D0C0D" d="M8 68h1v1H8z"/><path fill="#B60005" d="M9 68h1v1H9z"/><path fill="#CC1708" d="M10 68h1v1h-1z"/><path fill="#E8340C" d="M11 68h1v1h-1zM12 68h1v1h-1zM13 68h1v1h-1zM14 68h1v1h-1zM15 68h1v1h-1zM16 68h1v1h-1zM17 68h1v1h-1zM18 68h1v1h-1zM19 68h1v1h-1zM20 68h1v1h-1z"/><path fill="#EA481E" d="M21 68h1v1h-1z"/><path fill="#F08454" d="M22 68h1v1h-1z"/><path fill="#F18E63" d="M23 68h1v1h-1z"/><path fill="#F4A583" d="M24 68h1v1h-1zM25 68h1v1h-1zM26 68h1v1h-1z"/><path fill="#F2956C" d="M27 68h1v1h-1z"/><path fill="#B60005" d="M28 68h1v1h-1zM29 68h1v1h-1z"/><path fill="#D52109" d="M30 68h1v1h-1z"/><path fill="#E8340C" d="M31 68h1v1h-1zM32 68h1v1h-1zM33 68h1v1h-1z"/><path fill="#481D13" d="M34 68h1v1h-1z"/><path fill="#231815" d="M35 68h1v1h-1zM36 68h1v1h-1zM37 68h1v1h-1zM38 68h1v1h-1zM39 68h1v1h-1zM40 68h1v1h-1zM41 68h1v1h-1zM42 68h1v1h-1zM43 68h1v1h-1zM44 68h1v1h-1zM45 68h1v1h-1zM46 68h1v1h-1zM47 68h1v1h-1zM48 68h1v1h-1zM3 69h1v1H3zM4 69h1v1H4zM5 69h1v1H5zM6 69h1v1H6z"/><path fill="#8F190D" d="M7 69h1v1H7z"/><path fill="#B60005" d="M8 69h1v1H8zM9 69h1v1H9zM10 69h1v1h-1z"/><path fill="#E22E0B" d="M11 69h1v1h-1z"/><path fill="#E8340C" d="M12 69h1v1h-1zM13 69h1v1h-1zM14 69h1v1h-1zM15 69h1v1h-1zM16 69h1v1h-1zM17 69h1v1h-1zM18 69h1v1h-1zM19 69h1v1h-1zM20 69h1v1h-1z"/><path fill="#EA481E" d="M21 69h1v1h-1z"/><path fill="#F08454" d="M22 69h1v1h-1zM23 69h1v1h-1z"/><path fill="#F39971" d="M24 69h1v1h-1z"/><path fill="#F4A583" d="M25 69h1v1h-1zM26 69h1v1h-1z"/><path fill="#F39B74" d="M27 69h1v1h-1z"/><path fill="#C52119" d="M28 69h1v1h-1z"/><path fill="#B60005" d="M29 69h1v1h-1z"/><path fill="#C61007" d="M30 69h1v1h-1z"/><path fill="#E8340C" d="M31 69h1v1h-1zM32 69h1v1h-1zM33 69h1v1h-1z"/><path fill="#2F1A14" d="M34 69h1v1h-1z"/><path fill="#231815" d="M35 69h1v1h-1zM36 69h1v1h-1zM37 69h1v1h-1zM38 69h1v1h-1zM39 69h1v1h-1zM40 69h1v1h-1zM41 69h1v1h-1zM42 69h1v1h-1zM43 69h1v1h-1zM44 69h1v1h-1zM45 69h1v1h-1zM46 69h1v1h-1zM47 69h1v1h-1zM2 70h1v1H2zM3 70h1v1H3zM4 70h1v1H4z"/><path fill="#2F1A14" d="M5 70h1v1H5z"/><path fill="#9E2A0F" d="M6 70h1v1H6z"/><path fill="#E8340C" d="M7 70h1v1H7z"/><path fill="#BC0706" d="M8 70h1v1H8z"/><path fill="#B60005" d="M9 70h1v1H9zM10 70h1v1h-1z"/><path fill="#CC1708" d="M11 70h1v1h-1z"/><path fill="#E8340C" d="M12 70h1v1h-1zM13 70h1v1h-1zM14 70h1v1h-1zM15 70h1v1h-1zM16 70h1v1h-1zM17 70h1v1h-1zM18 70h1v1h-1zM19 70h1v1h-1zM20 70h1v1h-1z"/><path fill="#E93911" d="M21 70h1v1h-1z"/><path fill="#F08454" d="M22 70h1v1h-1zM23 70h1v1h-1zM24 70h1v1h-1z"/><path fill="#F39D77" d="M25 70h1v1h-1z"/><path fill="#F4A583" d="M26 70h1v1h-1z"/><path fill="#F39D77" d="M27 70h1v1h-1z"/><path fill="#CC3223" d="M28 70h1v1h-1z"/><path fill="#B60005" d="M29 70h1v1h-1z"/><path fill="#B90305" d="M30 70h1v1h-1z"/><path fill="#E8340C" d="M31 70h1v1h-1zM32 70h1v1h-1zM33 70h1v1h-1z"/><path fill="#C32F0E" d="M34 70h1v1h-1z"/><path fill="#231815" d="M35 70h1v1h-1zM36 70h1v1h-1zM37 70h1v1h-1zM38 70h1v1h-1zM39 70h1v1h-1zM40 70h1v1h-1zM41 70h1v1h-1zM42 70h1v1h-1zM43 70h1v1h-1zM44 70h1v1h-1zM45 70h1v1h-1zM1 71h1v1H1zM2 71h1v1H2zM3 71h1v1H3z"/><path fill="#2F1A14" d="M4 71h1v1H4z"/><path fill="#C32F0E" d="M5 71h1v1H5z"/><path fill="#E8340C" d="M6 71h1v1H6zM7 71h1v1H7z"/><path fill="#C61007" d="M8 71h1v1H8z"/><path fill="#B60005" d="M9 71h1v1H9zM10 71h1v1h-1z"/><path fill="#BC0706" d="M11 71h1v1h-1z"/><path fill="#E8340C" d="M12 71h1v1h-1zM13 71h1v1h-1zM14 71h1v1h-1zM15 71h1v1h-1zM16 71h1v1h-1zM17 71h1v1h-1zM18 71h1v1h-1zM19 71h1v1h-1zM20 71h1v1h-1zM21 71h1v1h-1z"/><path fill="#ED6639" d="M22 71h1v1h-1z"/><path fill="#F08454" d="M23 71h1v1h-1zM24 71h1v1h-1z"/><path fill="#F08657" d="M25 71h1v1h-1z"/><path fill="#F39971" d="M26 71h1v1h-1z"/><path fill="#F29269" d="M27 71h1v1h-1z"/><path fill="#D3422D" d="M28 71h1v1h-1z"/><path fill="#B60005" d="M29 71h1v1h-1zM30 71h1v1h-1z"/><path fill="#E8340C" d="M31 71h1v1h-1zM32 71h1v1h-1zM33 71h1v1h-1z"/><path fill="#9E2A0F" d="M34 71h1v1h-1z"/><path fill="#231815" d="M35 71h1v1h-1zM36 71h1v1h-1zM37 71h1v1h-1zM0 72h1v1H0zM1 72h1v1H1zM2 72h1v1H2zM3 72h1v1H3z"/><path fill="#AA2B0F" d="M4 72h1v1H4z"/><path fill="#E8340C" d="M5 72h1v1H5zM6 72h1v1H6zM7 72h1v1H7z"/><path fill="#CF1A09" d="M8 72h1v1H8z"/><path fill="#B60005" d="M9 72h1v1H9zM10 72h1v1h-1zM11 72h1v1h-1z"/><path fill="#E5310C" d="M12 72h1v1h-1z"/><path fill="#E8340C" d="M13 72h1v1h-1zM14 72h1v1h-1zM15 72h1v1h-1zM16 72h1v1h-1z"/><path fill="#DC270A" d="M17 72h1v1h-1z"/><path fill="#D52109" d="M18 72h1v1h-1z"/><path fill="#E5310C" d="M19 72h1v1h-1z"/><path fill="#E8340C" d="M20 72h1v1h-1zM21 72h1v1h-1z"/><path fill="#E93911" d="M22 72h1v1h-1z"/><path fill="#EE6B3E" d="M23 72h1v1h-1z"/><path fill="#F08454" d="M24 72h1v1h-1zM25 72h1v1h-1zM26 72h1v1h-1zM27 72h1v1h-1z"/><path fill="#CF3A28" d="M28 72h1v1h-1z"/><path fill="#B60005" d="M29 72h1v1h-1zM30 72h1v1h-1z"/><path fill="#E8340C" d="M31 72h1v1h-1zM32 72h1v1h-1zM33 72h1v1h-1z"/><path fill="#481D13" d="M34 72h1v1h-1z"/><path fill="#231815" d="M35 72h1v1h-1zM36 72h1v1h-1zM0 73h1v1H0zM1 73h1v1H1zM2 73h1v1H2z"/><path fill="#922810" d="M3 73h1v1H3z"/><path fill="#E8340C" d="M4 73h1v1H4zM5 73h1v1H5zM6 73h1v1H6zM7 73h1v1H7z"/><path fill="#CF1A09" d="M8 73h1v1H8z"/><path fill="#B60005" d="M9 73h1v1H9zM10 73h1v1h-1zM11 73h1v1h-1z"/><path fill="#DC270A" d="M12 73h1v1h-1z"/><path fill="#E8340C" d="M13 73h1v1h-1zM14 73h1v1h-1zM15 73h1v1h-1zM16 73h1v1h-1z"/><path fill="#C61007" d="M17 73h1v1h-1z"/><path fill="#B60005" d="M18 73h1v1h-1z"/><path fill="#BC0706" d="M19 73h1v1h-1z"/><path fill="#D52109" d="M20 73h1v1h-1z"/><path fill="#E5310C" d="M21 73h1v1h-1z"/><path fill="#E8340C" d="M22 73h1v1h-1zM23 73h1v1h-1z"/><path fill="#EA481E" d="M24 73h1v1h-1z"/><path fill="#ED6135" d="M25 73h1v1h-1z"/><path fill="#EE7042" d="M26 73h1v1h-1zM27 73h1v1h-1z"/><path fill="#C11914" d="M28 73h1v1h-1z"/><path fill="#B60005" d="M29 73h1v1h-1zM30 73h1v1h-1z"/><path fill="#E8340C" d="M31 73h1v1h-1zM32 73h1v1h-1z"/><path fill="#AA2B0F" d="M33 73h1v1h-1z"/><path fill="#231815" d="M34 73h1v1h-1zM35 73h1v1h-1zM36 73h1v1h-1zM0 74h1v1H0zM1 74h1v1H1z"/><path fill="#3C1C14" d="M2 74h1v1H2z"/><path fill="#C32F0E" d="M3 74h1v1H3z"/><path fill="#E8340C" d="M4 74h1v1H4zM5 74h1v1H5zM6 74h1v1H6zM7 74h1v1H7z"/><path fill="#C61007" d="M8 74h1v1H8z"/><path fill="#B60005" d="M9 74h1v1H9zM10 74h1v1h-1zM11 74h1v1h-1z"/><path fill="#DC270A" d="M12 74h1v1h-1z"/><path fill="#E8340C" d="M13 74h1v1h-1zM14 74h1v1h-1zM15 74h1v1h-1zM16 74h1v1h-1z"/><path fill="#DF2A0B" d="M17 74h1v1h-1z"/><path fill="#B90305" d="M18 74h1v1h-1z"/><path fill="#B60005" d="M19 74h1v1h-1zM20 74h1v1h-1z"/><path fill="#B90305" d="M21 74h1v1h-1z"/><path fill="#C91408" d="M22 74h1v1h-1z"/><path fill="#D52109" d="M23 74h1v1h-1z"/><path fill="#DC270A" d="M24 74h1v1h-1z"/><path fill="#E8340C" d="M25 74h1v1h-1zM26 74h1v1h-1z"/><path fill="#D52109" d="M27 74h1v1h-1z"/><path fill="#B60005" d="M28 74h1v1h-1zM29 74h1v1h-1z"/><path fill="#BC0706" d="M30 74h1v1h-1z"/><path fill="#E8340C" d="M31 74h1v1h-1zM32 74h1v1h-1z"/><path fill="#3C1C14" d="M33 74h1v1h-1z"/><path fill="#231815" d="M34 74h1v1h-1zM35 74h1v1h-1zM36 74h1v1h-1zM0 75h1v1H0zM1 75h1v1H1zM2 75h1v1H2zM3 75h1v1H3zM4 75h1v1H4z"/><path fill="#3C1C14" d="M5 75h1v1H5z"/><path fill="#541F13" d="M6 75h1v1H6zM7 75h1v1H7z"/><path fill="#4B1511" d="M8 75h1v1H8z"/><path fill="#481211" d="M9 75h1v1H9zM10 75h1v1h-1z"/><path fill="#9A0508" d="M11 75h1v1h-1z"/><path fill="#DF2A0B" d="M12 75h1v1h-1z"/><path fill="#E8340C" d="M13 75h1v1h-1zM14 75h1v1h-1zM15 75h1v1h-1zM16 75h1v1h-1zM17 75h1v1h-1z"/><path fill="#DF2A0B" d="M18 75h1v1h-1z"/><path fill="#B90305" d="M19 75h1v1h-1z"/><path fill="#B60005" d="M20 75h1v1h-1zM21 75h1v1h-1zM22 75h1v1h-1zM23 75h1v1h-1zM24 75h1v1h-1zM25 75h1v1h-1zM26 75h1v1h-1zM27 75h1v1h-1zM28 75h1v1h-1zM29 75h1v1h-1z"/><path fill="#CF1A09" d="M30 75h1v1h-1z"/><path fill="#E8340C" d="M31 75h1v1h-1z"/><path fill="#862611" d="M32 75h1v1h-1z"/><path fill="#231815" d="M33 75h1v1h-1zM34 75h1v1h-1zM35 75h1v1h-1zM0 76h1v1H0zM1 76h1v1H1zM2 76h1v1H2zM3 76h1v1H3zM4 76h1v1H4zM5 76h1v1H5zM6 76h1v1H6zM7 76h1v1H7zM8 76h1v1H8zM9 76h1v1H9zM10 76h1v1h-1z"/><path fill="#4E1912" d="M11 76h1v1h-1z"/><path fill="#E8340C" d="M12 76h1v1h-1zM13 76h1v1h-1zM14 76h1v1h-1zM15 76h1v1h-1zM16 76h1v1h-1zM17 76h1v1h-1zM18 76h1v1h-1z"/><path fill="#E5310C" d="M19 76h1v1h-1z"/><path fill="#CF1A09" d="M20 76h1v1h-1z"/><path fill="#BC0706" d="M21 76h1v1h-1z"/><path fill="#B60005" d="M22 76h1v1h-1zM23 76h1v1h-1zM24 76h1v1h-1zM25 76h1v1h-1zM26 76h1v1h-1zM27 76h1v1h-1zM28 76h1v1h-1z"/><path fill="#C61007" d="M29 76h1v1h-1z"/><path fill="#E5310C" d="M30 76h1v1h-1z"/><path fill="#C32F0E" d="M31 76h1v1h-1z"/><path fill="#231815" d="M32 76h1v1h-1zM33 76h1v1h-1zM34 76h1v1h-1zM35 76h1v1h-1zM2 77h1v1H2zM3 77h1v1H3zM4 77h1v1H4zM5 77h1v1H5zM6 77h1v1H6zM7 77h1v1H7zM8 77h1v1H8zM9 77h1v1H9zM10 77h1v1h-1z"/><path fill="#2F1A14" d="M11 77h1v1h-1z"/><path fill="#C32F0E" d="M12 77h1v1h-1z"/><path fill="#E8340C" d="M13 77h1v1h-1zM14 77h1v1h-1zM15 77h1v1h-1zM16 77h1v1h-1zM17 77h1v1h-1zM18 77h1v1h-1zM19 77h1v1h-1zM20 77h1v1h-1zM21 77h1v1h-1z"/><path fill="#DF2A0B" d="M22 77h1v1h-1z"/><path fill="#D21D09" d="M23 77h1v1h-1z"/><path fill="#CF1A09" d="M24 77h1v1h-1zM25 77h1v1h-1zM26 77h1v1h-1z"/><path fill="#D21D09" d="M27 77h1v1h-1z"/><path fill="#E22E0B" d="M28 77h1v1h-1z"/><path fill="#E8340C" d="M29 77h1v1h-1z"/><path fill="#DC320D" d="M30 77h1v1h-1z"/><path fill="#3C1C14" d="M31 77h1v1h-1z"/><path fill="#231815" d="M32 77h1v1h-1zM33 77h1v1h-1zM34 77h1v1h-1zM9 78h1v1H9zM10 78h1v1h-1zM11 78h1v1h-1z"/><path fill="#2F1A14" d="M12 78h1v1h-1z"/><path fill="#B72D0E" d="M13 78h1v1h-1z"/><path fill="#E8340C" d="M14 78h1v1h-1zM15 78h1v1h-1zM16 78h1v1h-1zM17 78h1v1h-1zM18 78h1v1h-1zM19 78h1v1h-1zM20 78h1v1h-1zM21 78h1v1h-1zM22 78h1v1h-1zM23 78h1v1h-1zM24 78h1v1h-1zM25 78h1v1h-1zM26 78h1v1h-1zM27 78h1v1h-1zM28 78h1v1h-1z"/><path fill="#DC320D" d="M29 78h1v1h-1z"/><path fill="#481D13" d="M30 78h1v1h-1z"/><path fill="#231815" d="M31 78h1v1h-1zM32 78h1v1h-1zM33 78h1v1h-1zM10 79h1v1h-1zM11 79h1v1h-1zM12 79h1v1h-1zM13 79h1v1h-1z"/><path fill="#862611" d="M14 79h1v1h-1z"/><path fill="#B72D0E" d="M15 79h1v1h-1z"/><path fill="#C61C0A" d="M16 79h1v1h-1z"/><path fill="#BC0706" d="M17 79h1v1h-1z"/><path fill="#B60005" d="M18 79h1v1h-1zM19 79h1v1h-1zM20 79h1v1h-1z"/><path fill="#B90305" d="M21 79h1v1h-1z"/><path fill="#C61007" d="M22 79h1v1h-1z"/><path fill="#DC270A" d="M23 79h1v1h-1z"/><path fill="#E8340C" d="M24 79h1v1h-1zM25 79h1v1h-1zM26 79h1v1h-1zM27 79h1v1h-1z"/><path fill="#AA2B0F" d="M28 79h1v1h-1z"/><path fill="#2F1A14" d="M29 79h1v1h-1z"/><path fill="#231815" d="M30 79h1v1h-1zM31 79h1v1h-1zM32 79h1v1h-1zM11 80h1v1h-1zM12 80h1v1h-1zM13 80h1v1h-1zM14 80h1v1h-1zM15 80h1v1h-1z"/><path fill="#760B0C" d="M16 80h1v1h-1z"/><path fill="#B60005" d="M17 80h1v1h-1zM18 80h1v1h-1zM19 80h1v1h-1zM20 80h1v1h-1zM21 80h1v1h-1zM22 80h1v1h-1zM23 80h1v1h-1z"/><path fill="#6D170F" d="M24 80h1v1h-1z"/><path fill="#541F13" d="M25 80h1v1h-1z"/><path fill="#922810" d="M26 80h1v1h-1z"/><path fill="#541F13" d="M27 80h1v1h-1z"/><path fill="#231815" d="M28 80h1v1h-1zM29 80h1v1h-1zM30 80h1v1h-1zM31 80h1v1h-1zM12 81h1v1h-1zM13 81h1v1h-1zM14 81h1v1h-1zM15 81h1v1h-1z"/><path fill="#481211" d="M16 81h1v1h-1z"/><path fill="#B60005" d="M17 81h1v1h-1zM18 81h1v1h-1zM19 81h1v1h-1zM20 81h1v1h-1zM21 81h1v1h-1zM22 81h1v1h-1z"/><path fill="#910609" d="M23 81h1v1h-1z"/><path fill="#231815" d="M24 81h1v1h-1zM25 81h1v1h-1zM26 81h1v1h-1zM27 81h1v1h-1zM28 81h1v1h-1zM29 81h1v1h-1zM30 81h1v1h-1zM14 82h1v1h-1zM15 82h1v1h-1z"/><path fill="#2C1714" d="M16 82h1v1h-1z"/><path fill="#B60005" d="M17 82h1v1h-1zM18 82h1v1h-1zM19 82h1v1h-1zM20 82h1v1h-1zM21 82h1v1h-1zM22 82h1v1h-1z"/><path fill="#3F1412" d="M23 82h1v1h-1z"/><path fill="#231815" d="M24 82h1v1h-1zM25 82h1v1h-1zM26 82h1v1h-1zM27 82h1v1h-1zM28 82h1v1h-1zM29 82h1v1h-1zM14 83h1v1h-1zM15 83h1v1h-1zM16 83h1v1h-1z"/><path fill="#9A0508" d="M17 83h1v1h-1z"/><path fill="#B90305" d="M18 83h1v1h-1z"/><path fill="#C30D07" d="M19 83h1v1h-1z"/><path fill="#C61007" d="M20 83h1v1h-1z"/><path fill="#B90305" d="M21 83h1v1h-1z"/><path fill="#6D0C0D" d="M22 83h1v1h-1z"/><path fill="#231815" d="M23 83h1v1h-1zM24 83h1v1h-1zM25 83h1v1h-1zM26 83h1v1h-1zM14 84h1v1h-1zM15 84h1v1h-1zM16 84h1v1h-1z"/><path fill="#701B10" d="M17 84h1v1h-1z"/><path fill="#E5310C" d="M18 84h1v1h-1z"/><path fill="#E8340C" d="M19 84h1v1h-1zM20 84h1v1h-1z"/><path fill="#C02C0D" d="M21 84h1v1h-1z"/><path fill="#2C1714" d="M22 84h1v1h-1z"/><path fill="#231815" d="M23 84h1v1h-1zM24 84h1v1h-1zM25 84h1v1h-1zM15 85h1v1h-1zM16 85h1v1h-1z"/><path fill="#3C1C14" d="M17 85h1v1h-1z"/><path fill="#E8340C" d="M18 85h1v1h-1zM19 85h1v1h-1z"/><path fill="#DC320D" d="M20 85h1v1h-1z"/><path fill="#481D13" d="M21 85h1v1h-1z"/><path fill="#231815" d="M22 85h1v1h-1zM23 85h1v1h-1zM24 85h1v1h-1zM15 86h1v1h-1zM16 86h1v1h-1zM17 86h1v1h-1z"/><path fill="#862611" d="M18 86h1v1h-1z"/><path fill="#CF310D" d="M19 86h1v1h-1z"/><path fill="#481D13" d="M20 86h1v1h-1z"/><path fill="#231815" d="M21 86h1v1h-1zM22 86h1v1h-1zM23 86h1v1h-1zM15 87h1v1h-1zM16 87h1v1h-1zM17 87h1v1h-1zM18 87h1v1h-1zM19 87h1v1h-1zM20 87h1v1h-1zM21 87h1v1h-1zM22 87h1v1h-1zM16 88h1v1h-1zM17 88h1v1h-1zM18 88h1v1h-1zM19 88h1v1h-1zM20 88h1v1h-1zM21 88h1v1h-1zM22 88h1v1h-1zM17 89h1v1h-1zM18 89h1v1h-1zM19 89h1v1h-1zM20 89h1v1h-1z"/></svg>