<svg baseProfile="full" height="90" width="83" xmlns="http://www.w3.org/2000/svg"><path fill="#231815" d="M57 0h1v1h-1zM58 0h1v1h-1zM59 0h1v1h-1zM60 0h1v1h-1zM55 1h1v1h-1zM56 1h1v1h-1zM57 1h1v1h-1zM58 1h1v1h-1zM59 1h1v1h-1zM60 1h1v1h-1zM54 2h1v1h-1zM55 2h1v1h-1zM56 2h1v1h-1zM57 2h1v1h-1zM58 2h1v1h-1zM59 2h1v1h-1zM60 2h1v1h-1zM52 3h1v1h-1zM53 3h1v1h-1zM54 3h1v1h-1zM55 3h1v1h-1zM56 3h1v1h-1zM57 3h1v1h-1zM58 3h1v1h-1zM59 3h1v1h-1zM60 3h1v1h-1zM61 3h1v1h-1zM50 4h1v1h-1zM51 4h1v1h-1zM52 4h1v1h-1zM53 4h1v1h-1zM54 4h1v1h-1zM55 4h1v1h-1zM56 4h1v1h-1zM57 4h1v1h-1zM58 4h1v1h-1zM59 4h1v1h-1zM60 4h1v1h-1zM61 4h1v1h-1zM49 5h1v1h-1zM50 5h1v1h-1zM51 5h1v1h-1zM52 5h1v1h-1zM53 5h1v1h-1zM54 5h1v1h-1zM55 5h1v1h-1z"/><path fill="#312624" d="M56 5h1v1h-1z"/><path fill="#817472" d="M57 5h1v1h-1z"/><path fill="#231815" d="M58 5h1v1h-1zM59 5h1v1h-1zM60 5h1v1h-1zM61 5h1v1h-1zM47 6h1v1h-1zM48 6h1v1h-1zM49 6h1v1h-1zM50 6h1v1h-1zM51 6h1v1h-1zM52 6h1v1h-1zM53 6h1v1h-1zM54 6h1v1h-1z"/><path fill="#837D7B" d="M55 6h1v1h-1z"/><path fill="#F1F1F0" d="M56 6h1v1h-1z"/><path fill="#BB9797" d="M57 6h1v1h-1z"/><path fill="#231815" d="M58 6h1v1h-1zM59 6h1v1h-1zM60 6h1v1h-1zM61 6h1v1h-1zM46 7h1v1h-1zM47 7h1v1h-1zM48 7h1v1h-1zM49 7h1v1h-1zM50 7h1v1h-1zM51 7h1v1h-1zM52 7h1v1h-1z"/><path fill="#5A5250" d="M53 7h1v1h-1z"/><path fill="#D6D4D3" d="M54 7h1v1h-1z"/><path fill="#FFF" d="M55 7h1v1h-1zM56 7h1v1h-1z"/><path fill="#D28184" d="M57 7h1v1h-1z"/><path fill="#231815" d="M58 7h1v1h-1zM59 7h1v1h-1zM60 7h1v1h-1zM61 7h1v1h-1zM44 8h1v1h-1zM45 8h1v1h-1zM46 8h1v1h-1zM47 8h1v1h-1zM48 8h1v1h-1zM49 8h1v1h-1zM50 8h1v1h-1z"/><path fill="#312624" d="M51 8h1v1h-1z"/><path fill="#ADA8A7" d="M52 8h1v1h-1z"/><path fill="#FFF" d="M53 8h1v1h-1zM54 8h1v1h-1zM55 8h1v1h-1z"/><path fill="#FAECED" d="M56 8h1v1h-1z"/><path fill="#D56A6E" d="M57 8h1v1h-1z"/><path fill="#231815" d="M58 8h1v1h-1zM59 8h1v1h-1zM60 8h1v1h-1zM61 8h1v1h-1zM42 9h1v1h-1zM43 9h1v1h-1zM44 9h1v1h-1zM45 9h1v1h-1zM46 9h1v1h-1zM47 9h1v1h-1zM48 9h1v1h-1zM49 9h1v1h-1z"/><path fill="#837D7B" d="M50 9h1v1h-1z"/><path fill="#F1F1F0" d="M51 9h1v1h-1z"/><path fill="#FFF" d="M52 9h1v1h-1zM53 9h1v1h-1zM54 9h1v1h-1zM55 9h1v1h-1z"/><path fill="#EFC7C9" d="M56 9h1v1h-1z"/><path fill="#D56A6E" d="M57 9h1v1h-1z"/><path fill="#502D2B" d="M58 9h1v1h-1z"/><path fill="#231815" d="M59 9h1v1h-1zM60 9h1v1h-1zM61 9h1v1h-1zM41 10h1v1h-1zM42 10h1v1h-1zM43 10h1v1h-1zM44 10h1v1h-1zM45 10h1v1h-1zM46 10h1v1h-1zM47 10h1v1h-1z"/><path fill="#5A5250" d="M48 10h1v1h-1z"/><path fill="#D6D4D3" d="M49 10h1v1h-1z"/><path fill="#FFF" d="M50 10h1v1h-1zM51 10h1v1h-1zM52 10h1v1h-1zM53 10h1v1h-1zM54 10h1v1h-1zM55 10h1v1h-1z"/><path fill="#E2999B" d="M56 10h1v1h-1z"/><path fill="#D56A6E" d="M57 10h1v1h-1z"/><path fill="#5B3231" d="M58 10h1v1h-1z"/><path fill="#231815" d="M59 10h1v1h-1zM60 10h1v1h-1zM61 10h1v1h-1zM62 10h1v1h-1zM39 11h1v1h-1zM40 11h1v1h-1zM41 11h1v1h-1zM42 11h1v1h-1zM43 11h1v1h-1zM44 11h1v1h-1zM45 11h1v1h-1z"/><path fill="#312624" d="M46 11h1v1h-1z"/><path fill="#ADA8A7" d="M47 11h1v1h-1z"/><path fill="#FFF" d="M48 11h1v1h-1zM49 11h1v1h-1zM50 11h1v1h-1zM51 11h1v1h-1zM52 11h1v1h-1zM53 11h1v1h-1zM54 11h1v1h-1zM55 11h1v1h-1z"/><path fill="#D87377" d="M56 11h1v1h-1z"/><path fill="#D56A6E" d="M57 11h1v1h-1z"/><path fill="#7C4142" d="M58 11h1v1h-1z"/><path fill="#231815" d="M59 11h1v1h-1zM60 11h1v1h-1zM61 11h1v1h-1zM62 11h1v1h-1zM37 12h1v1h-1zM38 12h1v1h-1zM39 12h1v1h-1zM40 12h1v1h-1zM41 12h1v1h-1zM42 12h1v1h-1zM43 12h1v1h-1zM44 12h1v1h-1z"/><path fill="#837D7B" d="M45 12h1v1h-1z"/><path fill="#F1F1F0" d="M46 12h1v1h-1z"/><path fill="#FFF" d="M47 12h1v1h-1zM48 12h1v1h-1zM49 12h1v1h-1zM50 12h1v1h-1zM51 12h1v1h-1zM52 12h1v1h-1zM53 12h1v1h-1zM54 12h1v1h-1z"/><path fill="#F5DADB" d="M55 12h1v1h-1z"/><path fill="#D56A6E" d="M56 12h1v1h-1zM57 12h1v1h-1z"/><path fill="#924B4D" d="M58 12h1v1h-1z"/><path fill="#231815" d="M59 12h1v1h-1zM60 12h1v1h-1zM61 12h1v1h-1zM62 12h1v1h-1zM36 13h1v1h-1zM37 13h1v1h-1zM38 13h1v1h-1zM39 13h1v1h-1zM40 13h1v1h-1zM41 13h1v1h-1zM42 13h1v1h-1z"/><path fill="#4C4341" d="M43 13h1v1h-1z"/><path fill="#D6D4D3" d="M44 13h1v1h-1z"/><path fill="#FFF" d="M45 13h1v1h-1zM46 13h1v1h-1zM47 13h1v1h-1zM48 13h1v1h-1zM49 13h1v1h-1zM50 13h1v1h-1zM51 13h1v1h-1zM52 13h1v1h-1zM53 13h1v1h-1zM54 13h1v1h-1z"/><path fill="#E7ABAD" d="M55 13h1v1h-1z"/><path fill="#D56A6E" d="M56 13h1v1h-1zM57 13h1v1h-1z"/><path fill="#A95658" d="M58 13h1v1h-1z"/><path fill="#231815" d="M59 13h1v1h-1zM60 13h1v1h-1zM61 13h1v1h-1zM62 13h1v1h-1zM34 14h1v1h-1zM35 14h1v1h-1zM36 14h1v1h-1zM37 14h1v1h-1zM38 14h1v1h-1zM39 14h1v1h-1zM40 14h1v1h-1z"/><path fill="#312624" d="M41 14h1v1h-1z"/><path fill="#9F9A99" d="M42 14h1v1h-1z"/><path fill="#FFF" d="M43 14h1v1h-1zM44 14h1v1h-1zM45 14h1v1h-1zM46 14h1v1h-1zM47 14h1v1h-1zM48 14h1v1h-1zM49 14h1v1h-1zM50 14h1v1h-1zM51 14h1v1h-1zM52 14h1v1h-1zM53 14h1v1h-1zM54 14h1v1h-1z"/><path fill="#DD8689" d="M55 14h1v1h-1z"/><path fill="#D56A6E" d="M56 14h1v1h-1zM57 14h1v1h-1z"/><path fill="#CA6568" d="M58 14h1v1h-1z"/><path fill="#231815" d="M59 14h1v1h-1zM60 14h1v1h-1zM61 14h1v1h-1zM62 14h1v1h-1zM31 15h1v1h-1zM32 15h1v1h-1zM33 15h1v1h-1zM34 15h1v1h-1zM35 15h1v1h-1zM36 15h1v1h-1zM37 15h1v1h-1zM38 15h1v1h-1zM39 15h1v1h-1z"/><path fill="#766F6D" d="M40 15h1v1h-1z"/><path fill="#F1F1F0" d="M41 15h1v1h-1z"/><path fill="#FFF" d="M42 15h1v1h-1zM43 15h1v1h-1zM44 15h1v1h-1zM45 15h1v1h-1zM46 15h1v1h-1zM47 15h1v1h-1zM48 15h1v1h-1zM49 15h1v1h-1zM50 15h1v1h-1zM51 15h1v1h-1zM52 15h1v1h-1zM53 15h1v1h-1z"/><path fill="#FAECED" d="M54 15h1v1h-1z"/><path fill="#D56A6E" d="M55 15h1v1h-1zM56 15h1v1h-1zM57 15h1v1h-1zM58 15h1v1h-1z"/><path fill="#231815" d="M59 15h1v1h-1zM60 15h1v1h-1zM61 15h1v1h-1zM62 15h1v1h-1zM27 16h1v1h-1zM28 16h1v1h-1zM29 16h1v1h-1zM30 16h1v1h-1zM31 16h1v1h-1zM32 16h1v1h-1zM33 16h1v1h-1zM34 16h1v1h-1zM35 16h1v1h-1zM36 16h1v1h-1zM37 16h1v1h-1z"/><path fill="#4C4341" d="M38 16h1v1h-1z"/><path fill="#C8C5C5" d="M39 16h1v1h-1z"/><path fill="#FFF" d="M40 16h1v1h-1zM41 16h1v1h-1zM42 16h1v1h-1zM43 16h1v1h-1zM44 16h1v1h-1zM45 16h1v1h-1zM46 16h1v1h-1zM47 16h1v1h-1zM48 16h1v1h-1zM49 16h1v1h-1zM50 16h1v1h-1zM51 16h1v1h-1zM52 16h1v1h-1zM53 16h1v1h-1z"/><path fill="#EFC7C9" d="M54 16h1v1h-1z"/><path fill="#D56A6E" d="M55 16h1v1h-1zM56 16h1v1h-1zM57 16h1v1h-1zM58 16h1v1h-1z"/><path fill="#502D2B" d="M59 16h1v1h-1z"/><path fill="#231815" d="M60 16h1v1h-1zM61 16h1v1h-1zM62 16h1v1h-1zM23 17h1v1h-1zM24 17h1v1h-1zM25 17h1v1h-1zM26 17h1v1h-1zM27 17h1v1h-1zM28 17h1v1h-1zM29 17h1v1h-1zM30 17h1v1h-1zM31 17h1v1h-1zM32 17h1v1h-1zM33 17h1v1h-1zM34 17h1v1h-1zM35 17h1v1h-1z"/><path fill="#312624" d="M36 17h1v1h-1z"/><path fill="#9F9A99" d="M37 17h1v1h-1z"/><path fill="#FFF" d="M38 17h1v1h-1zM39 17h1v1h-1zM40 17h1v1h-1zM41 17h1v1h-1zM42 17h1v1h-1zM43 17h1v1h-1zM44 17h1v1h-1zM45 17h1v1h-1zM46 17h1v1h-1zM47 17h1v1h-1zM48 17h1v1h-1zM49 17h1v1h-1zM50 17h1v1h-1zM51 17h1v1h-1zM52 17h1v1h-1zM53 17h1v1h-1z"/><path fill="#E2999B" d="M54 17h1v1h-1z"/><path fill="#D56A6E" d="M55 17h1v1h-1zM56 17h1v1h-1zM57 17h1v1h-1zM58 17h1v1h-1z"/><path fill="#502D2B" d="M59 17h1v1h-1z"/><path fill="#231815" d="M60 17h1v1h-1zM61 17h1v1h-1zM62 17h1v1h-1zM63 17h1v1h-1zM20 18h1v1h-1zM21 18h1v1h-1zM22 18h1v1h-1zM23 18h1v1h-1zM24 18h1v1h-1zM25 18h1v1h-1zM26 18h1v1h-1zM27 18h1v1h-1zM28 18h1v1h-1zM29 18h1v1h-1zM30 18h1v1h-1zM31 18h1v1h-1zM32 18h1v1h-1zM33 18h1v1h-1zM34 18h1v1h-1z"/><path fill="#766F6D" d="M35 18h1v1h-1z"/><path fill="#F1F1F0" d="M36 18h1v1h-1z"/><path fill="#FFF" d="M37 18h1v1h-1zM38 18h1v1h-1zM39 18h1v1h-1zM40 18h1v1h-1zM41 18h1v1h-1zM42 18h1v1h-1zM43 18h1v1h-1zM44 18h1v1h-1zM45 18h1v1h-1zM46 18h1v1h-1zM47 18h1v1h-1zM48 18h1v1h-1zM49 18h1v1h-1zM50 18h1v1h-1zM51 18h1v1h-1zM52 18h1v1h-1zM53 18h1v1h-1z"/><path fill="#D56A6E" d="M54 18h1v1h-1zM55 18h1v1h-1zM56 18h1v1h-1zM57 18h1v1h-1zM58 18h1v1h-1z"/><path fill="#7C4142" d="M59 18h1v1h-1z"/><path fill="#231815" d="M60 18h1v1h-1zM61 18h1v1h-1zM62 18h1v1h-1zM63 18h1v1h-1zM16 19h1v1h-1zM17 19h1v1h-1zM18 19h1v1h-1zM19 19h1v1h-1zM20 19h1v1h-1zM21 19h1v1h-1zM22 19h1v1h-1zM23 19h1v1h-1zM24 19h1v1h-1zM25 19h1v1h-1zM26 19h1v1h-1zM27 19h1v1h-1zM28 19h1v1h-1zM29 19h1v1h-1zM30 19h1v1h-1z"/><path fill="#4B3938" d="M31 19h1v1h-1z"/><path fill="#806566" d="M32 19h1v1h-1z"/><path fill="#B59094" d="M33 19h1v1h-1z"/><path fill="#EDD1D4" d="M34 19h1v1h-1z"/><path fill="#FFF" d="M35 19h1v1h-1zM36 19h1v1h-1zM37 19h1v1h-1zM38 19h1v1h-1zM39 19h1v1h-1zM40 19h1v1h-1zM41 19h1v1h-1zM42 19h1v1h-1zM43 19h1v1h-1zM44 19h1v1h-1zM45 19h1v1h-1zM46 19h1v1h-1zM47 19h1v1h-1zM48 19h1v1h-1zM49 19h1v1h-1zM50 19h1v1h-1zM51 19h1v1h-1zM52 19h1v1h-1z"/><path fill="#F2D0D2" d="M53 19h1v1h-1z"/><path fill="#D56A6E" d="M54 19h1v1h-1zM55 19h1v1h-1zM56 19h1v1h-1zM57 19h1v1h-1zM58 19h1v1h-1z"/><path fill="#874647" d="M59 19h1v1h-1z"/><path fill="#231815" d="M60 19h1v1h-1zM61 19h1v1h-1zM62 19h1v1h-1zM63 19h1v1h-1zM12 20h1v1h-1zM13 20h1v1h-1zM14 20h1v1h-1zM15 20h1v1h-1zM16 20h1v1h-1zM17 20h1v1h-1zM18 20h1v1h-1zM19 20h1v1h-1zM20 20h1v1h-1zM21 20h1v1h-1zM22 20h1v1h-1zM23 20h1v1h-1zM24 20h1v1h-1zM25 20h1v1h-1zM26 20h1v1h-1z"/><path fill="#4B3938" d="M27 20h1v1h-1z"/><path fill="#806566" d="M28 20h1v1h-1z"/><path fill="#B59094" d="M29 20h1v1h-1z"/><path fill="#EABCC2" d="M30 20h1v1h-1z"/><path fill="#F7C7CD" d="M31 20h1v1h-1zM32 20h1v1h-1zM33 20h1v1h-1zM34 20h1v1h-1z"/><path fill="#FFFCFC" d="M35 20h1v1h-1z"/><path fill="#FFF" d="M36 20h1v1h-1zM37 20h1v1h-1zM38 20h1v1h-1zM39 20h1v1h-1zM40 20h1v1h-1zM41 20h1v1h-1zM42 20h1v1h-1zM43 20h1v1h-1zM44 20h1v1h-1zM45 20h1v1h-1zM46 20h1v1h-1zM47 20h1v1h-1zM48 20h1v1h-1zM49 20h1v1h-1zM50 20h1v1h-1zM51 20h1v1h-1zM52 20h1v1h-1z"/><path fill="#E7ABAD" d="M53 20h1v1h-1z"/><path fill="#D56A6E" d="M54 20h1v1h-1zM55 20h1v1h-1zM56 20h1v1h-1zM57 20h1v1h-1zM58 20h1v1h-1z"/><path fill="#A95658" d="M59 20h1v1h-1z"/><path fill="#231815" d="M60 20h1v1h-1zM61 20h1v1h-1zM62 20h1v1h-1zM63 20h1v1h-1zM8 21h1v1H8zM9 21h1v1H9zM10 21h1v1h-1zM11 21h1v1h-1zM12 21h1v1h-1zM13 21h1v1h-1zM14 21h1v1h-1zM15 21h1v1h-1zM16 21h1v1h-1zM17 21h1v1h-1zM18 21h1v1h-1zM19 21h1v1h-1zM20 21h1v1h-1zM21 21h1v1h-1zM22 21h1v1h-1z"/><path fill="#3E2E2C" d="M23 21h1v1h-1z"/><path fill="#735A5A" d="M24 21h1v1h-1z"/><path fill="#A88588" d="M25 21h1v1h-1z"/><path fill="#DDB1B6" d="M26 21h1v1h-1z"/><path fill="#F7C7CD" d="M27 21h1v1h-1zM28 21h1v1h-1zM29 21h1v1h-1zM30 21h1v1h-1zM31 21h1v1h-1zM32 21h1v1h-1zM33 21h1v1h-1zM34 21h1v1h-1z"/><path fill="#FCEAEC" d="M35 21h1v1h-1z"/><path fill="#FFF" d="M36 21h1v1h-1zM37 21h1v1h-1zM38 21h1v1h-1zM39 21h1v1h-1zM40 21h1v1h-1zM41 21h1v1h-1zM42 21h1v1h-1zM43 21h1v1h-1zM44 21h1v1h-1zM45 21h1v1h-1zM46 21h1v1h-1zM47 21h1v1h-1zM48 21h1v1h-1zM49 21h1v1h-1zM50 21h1v1h-1zM51 21h1v1h-1zM52 21h1v1h-1z"/><path fill="#DA7D80" d="M53 21h1v1h-1z"/><path fill="#D56A6E" d="M54 21h1v1h-1zM55 21h1v1h-1zM56 21h1v1h-1zM57 21h1v1h-1zM58 21h1v1h-1z"/><path fill="#BF6063" d="M59 21h1v1h-1z"/><path fill="#231815" d="M60 21h1v1h-1zM61 21h1v1h-1zM62 21h1v1h-1zM63 21h1v1h-1zM4 22h1v1H4zM5 22h1v1H5zM6 22h1v1H6zM7 22h1v1H7zM8 22h1v1H8zM9 22h1v1H9zM10 22h1v1h-1zM11 22h1v1h-1zM12 22h1v1h-1zM13 22h1v1h-1zM14 22h1v1h-1zM15 22h1v1h-1zM16 22h1v1h-1zM17 22h1v1h-1zM18 22h1v1h-1z"/><path fill="#3E2E2C" d="M19 22h1v1h-1z"/><path fill="#735A5A" d="M20 22h1v1h-1z"/><path fill="#A88588" d="M21 22h1v1h-1z"/><path fill="#DDB1B6" d="M22 22h1v1h-1z"/><path fill="#F7C7CD" d="M23 22h1v1h-1zM24 22h1v1h-1zM25 22h1v1h-1zM26 22h1v1h-1zM27 22h1v1h-1zM28 22h1v1h-1zM29 22h1v1h-1zM30 22h1v1h-1zM31 22h1v1h-1zM32 22h1v1h-1zM33 22h1v1h-1zM34 22h1v1h-1z"/><path fill="#F9D2D6" d="M35 22h1v1h-1z"/><path fill="#FFF" d="M36 22h1v1h-1zM37 22h1v1h-1zM38 22h1v1h-1zM39 22h1v1h-1zM40 22h1v1h-1zM41 22h1v1h-1zM42 22h1v1h-1zM43 22h1v1h-1zM44 22h1v1h-1zM45 22h1v1h-1zM46 22h1v1h-1zM47 22h1v1h-1zM48 22h1v1h-1zM49 22h1v1h-1zM50 22h1v1h-1zM51 22h1v1h-1z"/><path fill="#F7E3E4" d="M52 22h1v1h-1z"/><path fill="#D56A6E" d="M53 22h1v1h-1zM54 22h1v1h-1zM55 22h1v1h-1zM56 22h1v1h-1zM57 22h1v1h-1zM58 22h1v1h-1zM59 22h1v1h-1z"/><path fill="#231815" d="M60 22h1v1h-1zM61 22h1v1h-1zM62 22h1v1h-1zM63 22h1v1h-1zM1 23h1v1H1zM2 23h1v1H2zM3 23h1v1H3zM4 23h1v1H4zM5 23h1v1H5zM6 23h1v1H6zM7 23h1v1H7zM8 23h1v1H8zM9 23h1v1H9zM10 23h1v1h-1zM11 23h1v1h-1zM12 23h1v1h-1zM13 23h1v1h-1zM14 23h1v1h-1z"/><path fill="#302321" d="M15 23h1v1h-1z"/><path fill="#654F4F" d="M16 23h1v1h-1z"/><path fill="#9A7A7D" d="M17 23h1v1h-1z"/><path fill="#CFA6AB" d="M18 23h1v1h-1z"/><path fill="#F7C7CD" d="M19 23h1v1h-1zM20 23h1v1h-1zM21 23h1v1h-1zM22 23h1v1h-1zM23 23h1v1h-1zM24 23h1v1h-1zM25 23h1v1h-1zM26 23h1v1h-1zM27 23h1v1h-1zM28 23h1v1h-1zM29 23h1v1h-1zM30 23h1v1h-1zM31 23h1v1h-1zM32 23h1v1h-1zM33 23h1v1h-1zM34 23h1v1h-1zM35 23h1v1h-1z"/><path fill="#FEF8F9" d="M36 23h1v1h-1z"/><path fill="#FFF" d="M37 23h1v1h-1zM38 23h1v1h-1zM39 23h1v1h-1zM40 23h1v1h-1zM41 23h1v1h-1zM42 23h1v1h-1zM43 23h1v1h-1zM44 23h1v1h-1zM45 23h1v1h-1zM46 23h1v1h-1zM47 23h1v1h-1zM48 23h1v1h-1zM49 23h1v1h-1zM50 23h1v1h-1zM51 23h1v1h-1z"/><path fill="#EDBEC0" d="M52 23h1v1h-1z"/><path fill="#D56A6E" d="M53 23h1v1h-1zM54 23h1v1h-1zM55 23h1v1h-1zM56 23h1v1h-1zM57 23h1v1h-1zM58 23h1v1h-1zM59 23h1v1h-1z"/><path fill="#442726" d="M60 23h1v1h-1z"/><path fill="#231815" d="M61 23h1v1h-1zM62 23h1v1h-1zM63 23h1v1h-1zM0 24h1v1H0zM1 24h1v1H1zM2 24h1v1H2zM3 24h1v1H3zM4 24h1v1H4zM5 24h1v1H5zM6 24h1v1H6zM7 24h1v1H7zM8 24h1v1H8zM9 24h1v1H9zM10 24h1v1h-1z"/><path fill="#302321" d="M11 24h1v1h-1z"/><path fill="#654F4F" d="M12 24h1v1h-1z"/><path fill="#9A7A7D" d="M13 24h1v1h-1z"/><path fill="#CFA6AB" d="M14 24h1v1h-1z"/><path fill="#F7C7CD" d="M15 24h1v1h-1zM16 24h1v1h-1zM17 24h1v1h-1zM18 24h1v1h-1zM19 24h1v1h-1zM20 24h1v1h-1zM21 24h1v1h-1zM22 24h1v1h-1zM23 24h1v1h-1zM24 24h1v1h-1zM25 24h1v1h-1zM26 24h1v1h-1zM27 24h1v1h-1zM28 24h1v1h-1zM29 24h1v1h-1zM30 24h1v1h-1zM31 24h1v1h-1zM32 24h1v1h-1zM33 24h1v1h-1zM34 24h1v1h-1zM35 24h1v1h-1z"/><path fill="#FBE0E3" d="M36 24h1v1h-1z"/><path fill="#FFF" d="M37 24h1v1h-1zM38 24h1v1h-1zM39 24h1v1h-1zM40 24h1v1h-1zM41 24h1v1h-1zM42 24h1v1h-1zM43 24h1v1h-1zM44 24h1v1h-1zM45 24h1v1h-1zM46 24h1v1h-1zM47 24h1v1h-1zM48 24h1v1h-1zM49 24h1v1h-1zM50 24h1v1h-1zM51 24h1v1h-1z"/><path fill="#DD8689" d="M52 24h1v1h-1z"/><path fill="#D56A6E" d="M53 24h1v1h-1zM54 24h1v1h-1zM55 24h1v1h-1zM56 24h1v1h-1zM57 24h1v1h-1zM58 24h1v1h-1zM59 24h1v1h-1z"/><path fill="#502D2B" d="M60 24h1v1h-1z"/><path fill="#231815" d="M61 24h1v1h-1zM62 24h1v1h-1zM63 24h1v1h-1zM64 24h1v1h-1zM0 25h1v1H0zM1 25h1v1H1zM2 25h1v1H2zM3 25h1v1H3zM4 25h1v1H4zM5 25h1v1H5zM6 25h1v1H6zM7 25h1v1H7z"/><path fill="#584443" d="M8 25h1v1H8z"/><path fill="#8D7071" d="M9 25h1v1H9z"/><path fill="#CFA6AB" d="M10 25h1v1h-1z"/><path fill="#F7C7CD" d="M11 25h1v1h-1zM12 25h1v1h-1zM13 25h1v1h-1zM14 25h1v1h-1zM15 25h1v1h-1zM16 25h1v1h-1zM17 25h1v1h-1zM18 25h1v1h-1zM19 25h1v1h-1zM20 25h1v1h-1zM21 25h1v1h-1zM22 25h1v1h-1zM23 25h1v1h-1zM24 25h1v1h-1zM25 25h1v1h-1zM26 25h1v1h-1zM27 25h1v1h-1zM28 25h1v1h-1zM29 25h1v1h-1zM30 25h1v1h-1zM31 25h1v1h-1zM32 25h1v1h-1zM33 25h1v1h-1zM34 25h1v1h-1zM35 25h1v1h-1z"/><path fill="#F8CBD0" d="M36 25h1v1h-1z"/><path fill="#FFF" d="M37 25h1v1h-1zM38 25h1v1h-1zM39 25h1v1h-1zM40 25h1v1h-1zM41 25h1v1h-1zM42 25h1v1h-1zM43 25h1v1h-1zM44 25h1v1h-1zM45 25h1v1h-1zM46 25h1v1h-1zM47 25h1v1h-1zM48 25h1v1h-1zM49 25h1v1h-1zM50 25h1v1h-1z"/><path fill="#FCF6F6" d="M51 25h1v1h-1z"/><path fill="#D56A6E" d="M52 25h1v1h-1zM53 25h1v1h-1zM54 25h1v1h-1zM55 25h1v1h-1zM56 25h1v1h-1zM57 25h1v1h-1zM58 25h1v1h-1zM59 25h1v1h-1z"/><path fill="#7C4142" d="M60 25h1v1h-1z"/><path fill="#231815" d="M61 25h1v1h-1zM62 25h1v1h-1zM63 25h1v1h-1zM64 25h1v1h-1zM0 26h1v1H0zM1 26h1v1H1zM2 26h1v1H2zM3 26h1v1H3zM4 26h1v1H4z"/><path fill="#735A5A" d="M5 26h1v1H5z"/><path fill="#C29B9F" d="M6 26h1v1H6z"/><path fill="#F7C7CD" d="M7 26h1v1H7zM8 26h1v1H8zM9 26h1v1H9zM10 26h1v1h-1zM11 26h1v1h-1zM12 26h1v1h-1zM13 26h1v1h-1zM14 26h1v1h-1zM15 26h1v1h-1zM16 26h1v1h-1zM17 26h1v1h-1zM18 26h1v1h-1zM19 26h1v1h-1zM20 26h1v1h-1zM21 26h1v1h-1zM22 26h1v1h-1zM23 26h1v1h-1zM24 26h1v1h-1zM25 26h1v1h-1zM26 26h1v1h-1zM27 26h1v1h-1zM28 26h1v1h-1zM29 26h1v1h-1zM30 26h1v1h-1zM31 26h1v1h-1zM32 26h1v1h-1zM33 26h1v1h-1zM34 26h1v1h-1zM35 26h1v1h-1zM36 26h1v1h-1z"/><path fill="#FDEEEF" d="M37 26h1v1h-1z"/><path fill="#FFF" d="M38 26h1v1h-1zM39 26h1v1h-1zM40 26h1v1h-1zM41 26h1v1h-1zM42 26h1v1h-1zM43 26h1v1h-1zM44 26h1v1h-1zM45 26h1v1h-1zM46 26h1v1h-1zM47 26h1v1h-1zM48 26h1v1h-1zM49 26h1v1h-1zM50 26h1v1h-1z"/><path fill="#EFC7C9" d="M51 26h1v1h-1z"/><path fill="#D56A6E" d="M52 26h1v1h-1zM53 26h1v1h-1zM54 26h1v1h-1zM55 26h1v1h-1zM56 26h1v1h-1zM57 26h1v1h-1zM58 26h1v1h-1zM59 26h1v1h-1z"/><path fill="#874647" d="M60 26h1v1h-1z"/><path fill="#231815" d="M61 26h1v1h-1zM62 26h1v1h-1zM63 26h1v1h-1zM64 26h1v1h-1zM1 27h1v1H1zM2 27h1v1H2zM3 27h1v1H3zM4 27h1v1H4z"/><path fill="#5D3737" d="M5 27h1v1H5z"/><path fill="#E6999E" d="M6 27h1v1H6z"/><path fill="#F5C1C7" d="M7 27h1v1H7z"/><path fill="#F7C7CD" d="M8 27h1v1H8zM9 27h1v1H9zM10 27h1v1h-1zM11 27h1v1h-1zM12 27h1v1h-1zM13 27h1v1h-1zM14 27h1v1h-1zM15 27h1v1h-1zM16 27h1v1h-1zM17 27h1v1h-1zM18 27h1v1h-1zM19 27h1v1h-1zM20 27h1v1h-1zM21 27h1v1h-1zM22 27h1v1h-1zM23 27h1v1h-1zM24 27h1v1h-1zM25 27h1v1h-1zM26 27h1v1h-1zM27 27h1v1h-1zM28 27h1v1h-1zM29 27h1v1h-1zM30 27h1v1h-1zM31 27h1v1h-1zM32 27h1v1h-1zM33 27h1v1h-1zM34 27h1v1h-1zM35 27h1v1h-1zM36 27h1v1h-1z"/><path fill="#FAD9DD" d="M37 27h1v1h-1z"/><path fill="#FFF" d="M38 27h1v1h-1zM39 27h1v1h-1zM40 27h1v1h-1zM41 27h1v1h-1zM42 27h1v1h-1zM43 27h1v1h-1zM44 27h1v1h-1zM45 27h1v1h-1zM46 27h1v1h-1zM47 27h1v1h-1zM48 27h1v1h-1zM49 27h1v1h-1zM50 27h1v1h-1z"/><path fill="#E2999B" d="M51 27h1v1h-1z"/><path fill="#D56A6E" d="M52 27h1v1h-1zM53 27h1v1h-1zM54 27h1v1h-1zM55 27h1v1h-1zM56 27h1v1h-1zM57 27h1v1h-1zM58 27h1v1h-1zM59 27h1v1h-1z"/><path fill="#A95658" d="M60 27h1v1h-1z"/><path fill="#231815" d="M61 27h1v1h-1zM62 27h1v1h-1zM63 27h1v1h-1zM64 27h1v1h-1zM1 28h1v1H1zM2 28h1v1H2zM3 28h1v1H3zM4 28h1v1H4zM5 28h1v1H5z"/><path fill="#A95658" d="M6 28h1v1H6z"/><path fill="#D77074" d="M7 28h1v1H7z"/><path fill="#E6999E" d="M8 28h1v1H8z"/><path fill="#F5C1C7" d="M9 28h1v1H9z"/><path fill="#F7C7CD" d="M10 28h1v1h-1zM11 28h1v1h-1zM12 28h1v1h-1zM13 28h1v1h-1zM14 28h1v1h-1zM15 28h1v1h-1zM16 28h1v1h-1zM17 28h1v1h-1zM18 28h1v1h-1zM19 28h1v1h-1zM20 28h1v1h-1zM21 28h1v1h-1zM22 28h1v1h-1zM23 28h1v1h-1zM24 28h1v1h-1zM25 28h1v1h-1zM26 28h1v1h-1zM27 28h1v1h-1zM28 28h1v1h-1zM29 28h1v1h-1zM30 28h1v1h-1zM31 28h1v1h-1zM32 28h1v1h-1zM33 28h1v1h-1zM34 28h1v1h-1zM35 28h1v1h-1zM36 28h1v1h-1zM37 28h1v1h-1z"/><path fill="#FEF8F9" d="M38 28h1v1h-1z"/><path fill="#FFF" d="M39 28h1v1h-1zM40 28h1v1h-1zM41 28h1v1h-1zM42 28h1v1h-1zM43 28h1v1h-1zM44 28h1v1h-1zM45 28h1v1h-1zM46 28h1v1h-1zM47 28h1v1h-1zM48 28h1v1h-1zM49 28h1v1h-1zM50 28h1v1h-1z"/><path fill="#D87377" d="M51 28h1v1h-1z"/><path fill="#D56A6E" d="M52 28h1v1h-1zM53 28h1v1h-1zM54 28h1v1h-1zM55 28h1v1h-1zM56 28h1v1h-1zM57 28h1v1h-1zM58 28h1v1h-1zM59 28h1v1h-1z"/><path fill="#B45B5D" d="M60 28h1v1h-1z"/><path fill="#231815" d="M61 28h1v1h-1zM62 28h1v1h-1zM63 28h1v1h-1zM64 28h1v1h-1zM2 29h1v1H2zM3 29h1v1H3zM4 29h1v1H4zM5 29h1v1H5z"/><path fill="#392220" d="M6 29h1v1H6z"/><path fill="#CA6568" d="M7 29h1v1H7z"/><path fill="#D56A6E" d="M8 29h1v1H8z"/><path fill="#D77074" d="M9 29h1v1H9z"/><path fill="#E6999E" d="M10 29h1v1h-1z"/><path fill="#F5C1C7" d="M11 29h1v1h-1z"/><path fill="#F7C7CD" d="M12 29h1v1h-1zM13 29h1v1h-1zM14 29h1v1h-1zM15 29h1v1h-1zM16 29h1v1h-1zM17 29h1v1h-1zM18 29h1v1h-1zM19 29h1v1h-1zM20 29h1v1h-1zM21 29h1v1h-1zM22 29h1v1h-1zM23 29h1v1h-1zM24 29h1v1h-1zM25 29h1v1h-1zM26 29h1v1h-1zM27 29h1v1h-1zM28 29h1v1h-1zM29 29h1v1h-1zM30 29h1v1h-1zM31 29h1v1h-1zM32 29h1v1h-1zM33 29h1v1h-1zM34 29h1v1h-1zM35 29h1v1h-1zM36 29h1v1h-1zM37 29h1v1h-1z"/><path fill="#FCE7E9" d="M38 29h1v1h-1z"/><path fill="#FFF" d="M39 29h1v1h-1zM40 29h1v1h-1zM41 29h1v1h-1zM42 29h1v1h-1zM43 29h1v1h-1zM44 29h1v1h-1zM45 29h1v1h-1zM46 29h1v1h-1zM47 29h1v1h-1zM48 29h1v1h-1zM49 29h1v1h-1z"/><path fill="#F2D0D2" d="M50 29h1v1h-1z"/><path fill="#D56A6E" d="M51 29h1v1h-1zM52 29h1v1h-1zM53 29h1v1h-1zM54 29h1v1h-1zM55 29h1v1h-1zM56 29h1v1h-1zM57 29h1v1h-1zM58 29h1v1h-1zM59 29h1v1h-1zM60 29h1v1h-1z"/><path fill="#231815" d="M61 29h1v1h-1zM62 29h1v1h-1zM63 29h1v1h-1zM64 29h1v1h-1zM2 30h1v1H2zM3 30h1v1H3zM4 30h1v1H4zM5 30h1v1H5zM6 30h1v1H6z"/><path fill="#7C4142" d="M7 30h1v1H7z"/><path fill="#D56A6E" d="M8 30h1v1H8zM9 30h1v1H9zM10 30h1v1h-1zM11 30h1v1h-1z"/><path fill="#E28D92" d="M12 30h1v1h-1z"/><path fill="#F3BBC1" d="M13 30h1v1h-1z"/><path fill="#F7C7CD" d="M14 30h1v1h-1zM15 30h1v1h-1zM16 30h1v1h-1zM17 30h1v1h-1zM18 30h1v1h-1zM19 30h1v1h-1zM20 30h1v1h-1zM21 30h1v1h-1zM22 30h1v1h-1zM23 30h1v1h-1zM24 30h1v1h-1zM25 30h1v1h-1zM26 30h1v1h-1zM27 30h1v1h-1zM28 30h1v1h-1zM29 30h1v1h-1zM30 30h1v1h-1zM31 30h1v1h-1zM32 30h1v1h-1zM33 30h1v1h-1zM34 30h1v1h-1zM35 30h1v1h-1zM36 30h1v1h-1zM37 30h1v1h-1z"/><path fill="#F8CED3" d="M38 30h1v1h-1z"/><path fill="#FFF" d="M39 30h1v1h-1zM40 30h1v1h-1zM41 30h1v1h-1zM42 30h1v1h-1zM43 30h1v1h-1zM44 30h1v1h-1zM45 30h1v1h-1zM46 30h1v1h-1zM47 30h1v1h-1zM48 30h1v1h-1zM49 30h1v1h-1z"/><path fill="#E5A2A4" d="M50 30h1v1h-1z"/><path fill="#D56A6E" d="M51 30h1v1h-1zM52 30h1v1h-1zM53 30h1v1h-1zM54 30h1v1h-1zM55 30h1v1h-1zM56 30h1v1h-1zM57 30h1v1h-1zM58 30h1v1h-1zM59 30h1v1h-1zM60 30h1v1h-1z"/><path fill="#392220" d="M61 30h1v1h-1z"/><path fill="#231815" d="M62 30h1v1h-1zM63 30h1v1h-1zM64 30h1v1h-1zM3 31h1v1H3zM4 31h1v1H4zM5 31h1v1H5zM6 31h1v1H6zM7 31h1v1H7z"/><path fill="#BF6063" d="M8 31h1v1H8z"/><path fill="#D56A6E" d="M9 31h1v1H9zM10 31h1v1h-1zM11 31h1v1h-1zM12 31h1v1h-1zM13 31h1v1h-1z"/><path fill="#E28D92" d="M14 31h1v1h-1z"/><path fill="#F3BBC1" d="M15 31h1v1h-1z"/><path fill="#F7C7CD" d="M16 31h1v1h-1zM17 31h1v1h-1zM18 31h1v1h-1zM19 31h1v1h-1zM20 31h1v1h-1zM21 31h1v1h-1zM22 31h1v1h-1zM23 31h1v1h-1zM24 31h1v1h-1zM25 31h1v1h-1zM26 31h1v1h-1zM27 31h1v1h-1zM28 31h1v1h-1zM29 31h1v1h-1zM30 31h1v1h-1zM31 31h1v1h-1zM32 31h1v1h-1zM33 31h1v1h-1zM34 31h1v1h-1zM35 31h1v1h-1zM36 31h1v1h-1zM37 31h1v1h-1zM38 31h1v1h-1z"/><path fill="#FDF1F3" d="M39 31h1v1h-1z"/><path fill="#FFF" d="M40 31h1v1h-1zM41 31h1v1h-1zM42 31h1v1h-1zM43 31h1v1h-1zM44 31h1v1h-1zM45 31h1v1h-1zM46 31h1v1h-1zM47 31h1v1h-1zM48 31h1v1h-1zM49 31h1v1h-1z"/><path fill="#DA7D80" d="M50 31h1v1h-1z"/><path fill="#D56A6E" d="M51 31h1v1h-1zM52 31h1v1h-1zM53 31h1v1h-1zM54 31h1v1h-1zM55 31h1v1h-1zM56 31h1v1h-1zM57 31h1v1h-1zM58 31h1v1h-1zM59 31h1v1h-1zM60 31h1v1h-1z"/><path fill="#502D2B" d="M61 31h1v1h-1z"/><path fill="#231815" d="M62 31h1v1h-1zM63 31h1v1h-1zM64 31h1v1h-1zM65 31h1v1h-1zM4 32h1v1H4zM5 32h1v1H5zM6 32h1v1H6zM7 32h1v1H7z"/><path fill="#502D2B" d="M8 32h1v1H8z"/><path fill="#D56A6E" d="M9 32h1v1H9zM10 32h1v1h-1zM11 32h1v1h-1zM12 32h1v1h-1zM13 32h1v1h-1zM14 32h1v1h-1zM15 32h1v1h-1z"/><path fill="#E28D92" d="M16 32h1v1h-1z"/><path fill="#F3BBC1" d="M17 32h1v1h-1z"/><path fill="#F7C7CD" d="M18 32h1v1h-1zM19 32h1v1h-1zM20 32h1v1h-1zM21 32h1v1h-1zM22 32h1v1h-1zM23 32h1v1h-1zM24 32h1v1h-1zM25 32h1v1h-1zM26 32h1v1h-1zM27 32h1v1h-1zM28 32h1v1h-1zM29 32h1v1h-1zM30 32h1v1h-1zM31 32h1v1h-1zM32 32h1v1h-1zM33 32h1v1h-1zM34 32h1v1h-1zM35 32h1v1h-1zM36 32h1v1h-1zM37 32h1v1h-1zM38 32h1v1h-1z"/><path fill="#FADCE0" d="M39 32h1v1h-1z"/><path fill="#FFF" d="M40 32h1v1h-1zM41 32h1v1h-1zM42 32h1v1h-1zM43 32h1v1h-1zM44 32h1v1h-1zM45 32h1v1h-1zM46 32h1v1h-1zM47 32h1v1h-1zM48 32h1v1h-1z"/><path fill="#F7E3E4" d="M49 32h1v1h-1z"/><path fill="#D56A6E" d="M50 32h1v1h-1zM51 32h1v1h-1zM52 32h1v1h-1zM53 32h1v1h-1zM54 32h1v1h-1zM55 32h1v1h-1zM56 32h1v1h-1zM57 32h1v1h-1zM58 32h1v1h-1zM59 32h1v1h-1zM60 32h1v1h-1z"/><path fill="#713C3C" d="M61 32h1v1h-1z"/><path fill="#231815" d="M62 32h1v1h-1zM63 32h1v1h-1zM64 32h1v1h-1zM65 32h1v1h-1zM4 33h1v1H4zM5 33h1v1H5zM6 33h1v1H6zM7 33h1v1H7zM8 33h1v1H8z"/><path fill="#9D5052" d="M9 33h1v1H9z"/><path fill="#D56A6E" d="M10 33h1v1h-1zM11 33h1v1h-1zM12 33h1v1h-1zM13 33h1v1h-1zM14 33h1v1h-1zM15 33h1v1h-1zM16 33h1v1h-1zM17 33h1v1h-1z"/><path fill="#E28D92" d="M18 33h1v1h-1z"/><path fill="#EFB0B5" d="M19 33h1v1h-1z"/><path fill="#F7C7CD" d="M20 33h1v1h-1zM21 33h1v1h-1zM22 33h1v1h-1zM23 33h1v1h-1zM24 33h1v1h-1zM25 33h1v1h-1zM26 33h1v1h-1zM27 33h1v1h-1zM28 33h1v1h-1zM29 33h1v1h-1zM30 33h1v1h-1zM31 33h1v1h-1zM32 33h1v1h-1zM33 33h1v1h-1zM34 33h1v1h-1zM35 33h1v1h-1zM36 33h1v1h-1zM37 33h1v1h-1zM38 33h1v1h-1zM39 33h1v1h-1z"/><path fill="#FFFCFC" d="M40 33h1v1h-1z"/><path fill="#FFF" d="M41 33h1v1h-1zM42 33h1v1h-1zM43 33h1v1h-1zM44 33h1v1h-1zM45 33h1v1h-1zM46 33h1v1h-1zM47 33h1v1h-1zM48 33h1v1h-1z"/><path fill="#E7ABAD" d="M49 33h1v1h-1z"/><path fill="#D56A6E" d="M50 33h1v1h-1zM51 33h1v1h-1zM52 33h1v1h-1zM53 33h1v1h-1zM54 33h1v1h-1zM55 33h1v1h-1zM56 33h1v1h-1zM57 33h1v1h-1zM58 33h1v1h-1zM59 33h1v1h-1zM60 33h1v1h-1z"/><path fill="#7C4142" d="M61 33h1v1h-1z"/><path fill="#231815" d="M62 33h1v1h-1zM63 33h1v1h-1zM64 33h1v1h-1zM65 33h1v1h-1zM5 34h1v1H5zM6 34h1v1H6zM7 34h1v1H7zM8 34h1v1H8z"/><path fill="#2E1D1B" d="M9 34h1v1H9z"/><path fill="#CA6568" d="M10 34h1v1h-1z"/><path fill="#D56A6E" d="M11 34h1v1h-1zM12 34h1v1h-1zM13 34h1v1h-1zM14 34h1v1h-1zM15 34h1v1h-1zM16 34h1v1h-1zM17 34h1v1h-1zM18 34h1v1h-1zM19 34h1v1h-1z"/><path fill="#DE8186" d="M20 34h1v1h-1z"/><path fill="#EFB0B5" d="M21 34h1v1h-1z"/><path fill="#F7C7CD" d="M22 34h1v1h-1zM23 34h1v1h-1zM24 34h1v1h-1zM25 34h1v1h-1zM26 34h1v1h-1zM27 34h1v1h-1zM28 34h1v1h-1zM29 34h1v1h-1zM30 34h1v1h-1zM31 34h1v1h-1zM32 34h1v1h-1zM33 34h1v1h-1zM34 34h1v1h-1zM35 34h1v1h-1zM36 34h1v1h-1zM37 34h1v1h-1zM38 34h1v1h-1zM39 34h1v1h-1z"/><path fill="#FCE7E9" d="M40 34h1v1h-1z"/><path fill="#FFF" d="M41 34h1v1h-1zM42 34h1v1h-1zM43 34h1v1h-1zM44 34h1v1h-1zM45 34h1v1h-1zM46 34h1v1h-1zM47 34h1v1h-1zM48 34h1v1h-1z"/><path fill="#DD8689" d="M49 34h1v1h-1z"/><path fill="#D56A6E" d="M50 34h1v1h-1zM51 34h1v1h-1zM52 34h1v1h-1zM53 34h1v1h-1zM54 34h1v1h-1zM55 34h1v1h-1zM56 34h1v1h-1zM57 34h1v1h-1zM58 34h1v1h-1zM59 34h1v1h-1zM60 34h1v1h-1z"/><path fill="#A95658" d="M61 34h1v1h-1z"/><path fill="#231815" d="M62 34h1v1h-1zM63 34h1v1h-1zM64 34h1v1h-1zM65 34h1v1h-1zM5 35h1v1H5zM6 35h1v1H6zM7 35h1v1H7zM8 35h1v1H8zM9 35h1v1H9z"/><path fill="#713C3C" d="M10 35h1v1h-1z"/><path fill="#D56A6E" d="M11 35h1v1h-1zM12 35h1v1h-1zM13 35h1v1h-1zM14 35h1v1h-1zM15 35h1v1h-1zM16 35h1v1h-1zM17 35h1v1h-1zM18 35h1v1h-1zM19 35h1v1h-1zM20 35h1v1h-1zM21 35h1v1h-1z"/><path fill="#DE8186" d="M22 35h1v1h-1z"/><path fill="#EFB0B5" d="M23 35h1v1h-1z"/><path fill="#F7C7CD" d="M24 35h1v1h-1zM25 35h1v1h-1zM26 35h1v1h-1zM27 35h1v1h-1zM28 35h1v1h-1zM29 35h1v1h-1zM30 35h1v1h-1zM31 35h1v1h-1zM32 35h1v1h-1zM33 35h1v1h-1zM34 35h1v1h-1zM35 35h1v1h-1zM36 35h1v1h-1zM37 35h1v1h-1zM38 35h1v1h-1zM39 35h1v1h-1z"/><path fill="#F9D2D6" d="M40 35h1v1h-1z"/><path fill="#FFF" d="M41 35h1v1h-1zM42 35h1v1h-1zM43 35h1v1h-1zM44 35h1v1h-1zM45 35h1v1h-1zM46 35h1v1h-1zM47 35h1v1h-1z"/><path fill="#FAECED" d="M48 35h1v1h-1z"/><path fill="#D56A6E" d="M49 35h1v1h-1zM50 35h1v1h-1zM51 35h1v1h-1zM52 35h1v1h-1zM53 35h1v1h-1zM54 35h1v1h-1zM55 35h1v1h-1zM56 35h1v1h-1zM57 35h1v1h-1zM58 35h1v1h-1zM59 35h1v1h-1zM60 35h1v1h-1z"/><path fill="#B45B5D" d="M61 35h1v1h-1z"/><path fill="#231815" d="M62 35h1v1h-1zM63 35h1v1h-1zM64 35h1v1h-1zM65 35h1v1h-1zM6 36h1v1H6zM7 36h1v1H7zM8 36h1v1H8zM9 36h1v1H9zM10 36h1v1h-1z"/><path fill="#B45B5D" d="M11 36h1v1h-1z"/><path fill="#D56A6E" d="M12 36h1v1h-1zM13 36h1v1h-1zM14 36h1v1h-1zM15 36h1v1h-1zM16 36h1v1h-1zM17 36h1v1h-1zM18 36h1v1h-1zM19 36h1v1h-1zM20 36h1v1h-1zM21 36h1v1h-1zM22 36h1v1h-1zM23 36h1v1h-1z"/><path fill="#D9767A" d="M24 36h1v1h-1z"/><path fill="#EAA4A9" d="M25 36h1v1h-1z"/><path fill="#F7C7CD" d="M26 36h1v1h-1zM27 36h1v1h-1zM28 36h1v1h-1zM29 36h1v1h-1zM30 36h1v1h-1zM31 36h1v1h-1zM32 36h1v1h-1zM33 36h1v1h-1zM34 36h1v1h-1zM35 36h1v1h-1zM36 36h1v1h-1zM37 36h1v1h-1zM38 36h1v1h-1zM39 36h1v1h-1zM40 36h1v1h-1z"/><path fill="#FEF5F6" d="M41 36h1v1h-1z"/><path fill="#FFF" d="M42 36h1v1h-1zM43 36h1v1h-1zM44 36h1v1h-1zM45 36h1v1h-1zM46 36h1v1h-1zM47 36h1v1h-1z"/><path fill="#EDBEC0" d="M48 36h1v1h-1z"/><path fill="#D56A6E" d="M49 36h1v1h-1zM50 36h1v1h-1zM51 36h1v1h-1zM52 36h1v1h-1zM53 36h1v1h-1zM54 36h1v1h-1zM55 36h1v1h-1zM56 36h1v1h-1zM57 36h1v1h-1zM58 36h1v1h-1zM59 36h1v1h-1zM60 36h1v1h-1zM61 36h1v1h-1z"/><path fill="#231815" d="M62 36h1v1h-1zM63 36h1v1h-1zM64 36h1v1h-1zM65 36h1v1h-1zM7 37h1v1H7zM8 37h1v1H8zM9 37h1v1H9zM10 37h1v1h-1z"/><path fill="#502D2B" d="M11 37h1v1h-1z"/><path fill="#D56A6E" d="M12 37h1v1h-1zM13 37h1v1h-1zM14 37h1v1h-1zM15 37h1v1h-1zM16 37h1v1h-1zM17 37h1v1h-1zM18 37h1v1h-1zM19 37h1v1h-1zM20 37h1v1h-1zM21 37h1v1h-1zM22 37h1v1h-1zM23 37h1v1h-1zM24 37h1v1h-1zM25 37h1v1h-1z"/><path fill="#D9767A" d="M26 37h1v1h-1z"/><path fill="#EAA4A9" d="M27 37h1v1h-1z"/><path fill="#F7C7CD" d="M28 37h1v1h-1zM29 37h1v1h-1zM30 37h1v1h-1zM31 37h1v1h-1zM32 37h1v1h-1zM33 37h1v1h-1zM34 37h1v1h-1zM35 37h1v1h-1zM36 37h1v1h-1zM37 37h1v1h-1zM38 37h1v1h-1zM39 37h1v1h-1zM40 37h1v1h-1z"/><path fill="#FADCE0" d="M41 37h1v1h-1z"/><path fill="#FFF" d="M42 37h1v1h-1zM43 37h1v1h-1zM44 37h1v1h-1zM45 37h1v1h-1zM46 37h1v1h-1zM47 37h1v1h-1z"/><path fill="#DD8689" d="M48 37h1v1h-1z"/><path fill="#D56A6E" d="M49 37h1v1h-1zM50 37h1v1h-1zM51 37h1v1h-1zM52 37h1v1h-1zM53 37h1v1h-1zM54 37h1v1h-1zM55 37h1v1h-1zM56 37h1v1h-1zM57 37h1v1h-1zM58 37h1v1h-1zM59 37h1v1h-1zM60 37h1v1h-1zM61 37h1v1h-1z"/><path fill="#392220" d="M62 37h1v1h-1z"/><path fill="#231815" d="M63 37h1v1h-1zM64 37h1v1h-1zM65 37h1v1h-1zM66 37h1v1h-1zM7 38h1v1H7zM8 38h1v1H8zM9 38h1v1H9zM10 38h1v1h-1zM11 38h1v1h-1z"/><path fill="#874647" d="M12 38h1v1h-1z"/><path fill="#D56A6E" d="M13 38h1v1h-1zM14 38h1v1h-1zM15 38h1v1h-1zM16 38h1v1h-1zM17 38h1v1h-1zM18 38h1v1h-1zM19 38h1v1h-1zM20 38h1v1h-1zM21 38h1v1h-1zM22 38h1v1h-1zM23 38h1v1h-1zM24 38h1v1h-1zM25 38h1v1h-1zM26 38h1v1h-1zM27 38h1v1h-1z"/><path fill="#D77074" d="M28 38h1v1h-1z"/><path fill="#E6999E" d="M29 38h1v1h-1z"/><path fill="#F5C1C7" d="M30 38h1v1h-1z"/><path fill="#F7C7CD" d="M31 38h1v1h-1zM32 38h1v1h-1zM33 38h1v1h-1zM34 38h1v1h-1zM35 38h1v1h-1zM36 38h1v1h-1zM37 38h1v1h-1zM38 38h1v1h-1zM39 38h1v1h-1zM40 38h1v1h-1zM41 38h1v1h-1z"/><path fill="#FFFCFC" d="M42 38h1v1h-1z"/><path fill="#FFF" d="M43 38h1v1h-1zM44 38h1v1h-1zM45 38h1v1h-1zM46 38h1v1h-1z"/><path fill="#FCF6F6" d="M47 38h1v1h-1z"/><path fill="#D56A6E" d="M48 38h1v1h-1zM49 38h1v1h-1zM50 38h1v1h-1zM51 38h1v1h-1zM52 38h1v1h-1zM53 38h1v1h-1zM54 38h1v1h-1zM55 38h1v1h-1zM56 38h1v1h-1zM57 38h1v1h-1zM58 38h1v1h-1zM59 38h1v1h-1zM60 38h1v1h-1zM61 38h1v1h-1z"/><path fill="#5B3231" d="M62 38h1v1h-1z"/><path fill="#231815" d="M63 38h1v1h-1zM64 38h1v1h-1zM65 38h1v1h-1zM66 38h1v1h-1zM8 39h1v1H8zM9 39h1v1H9zM10 39h1v1h-1zM11 39h1v1h-1z"/><path fill="#2E1D1B" d="M12 39h1v1h-1z"/><path fill="#CA6568" d="M13 39h1v1h-1z"/><path fill="#D56A6E" d="M14 39h1v1h-1zM15 39h1v1h-1zM16 39h1v1h-1zM17 39h1v1h-1zM18 39h1v1h-1zM19 39h1v1h-1zM20 39h1v1h-1zM21 39h1v1h-1zM22 39h1v1h-1zM23 39h1v1h-1zM24 39h1v1h-1zM25 39h1v1h-1zM26 39h1v1h-1zM27 39h1v1h-1zM28 39h1v1h-1zM29 39h1v1h-1z"/><path fill="#D77074" d="M30 39h1v1h-1z"/><path fill="#E49398" d="M31 39h1v1h-1z"/><path fill="#F3BBC1" d="M32 39h1v1h-1z"/><path fill="#F7C7CD" d="M33 39h1v1h-1zM34 39h1v1h-1zM35 39h1v1h-1zM36 39h1v1h-1zM37 39h1v1h-1zM38 39h1v1h-1zM39 39h1v1h-1zM40 39h1v1h-1zM41 39h1v1h-1z"/><path fill="#FCE7E9" d="M42 39h1v1h-1z"/><path fill="#FFF" d="M43 39h1v1h-1zM44 39h1v1h-1zM45 39h1v1h-1zM46 39h1v1h-1z"/><path fill="#EFC7C9" d="M47 39h1v1h-1z"/><path fill="#D56A6E" d="M48 39h1v1h-1zM49 39h1v1h-1zM50 39h1v1h-1zM51 39h1v1h-1zM52 39h1v1h-1zM53 39h1v1h-1zM54 39h1v1h-1zM55 39h1v1h-1zM56 39h1v1h-1zM57 39h1v1h-1zM58 39h1v1h-1zM59 39h1v1h-1z"/><path fill="#D97377" d="M60 39h1v1h-1z"/><path fill="#E2888D" d="M61 39h1v1h-1z"/><path fill="#B87A7D" d="M62 39h1v1h-1z"/><path fill="#231815" d="M63 39h1v1h-1zM64 39h1v1h-1zM65 39h1v1h-1zM66 39h1v1h-1zM67 39h1v1h-1zM9 40h1v1H9zM10 40h1v1h-1zM11 40h1v1h-1zM12 40h1v1h-1z"/><path fill="#663736" d="M13 40h1v1h-1z"/><path fill="#D56A6E" d="M14 40h1v1h-1zM15 40h1v1h-1zM16 40h1v1h-1zM17 40h1v1h-1zM18 40h1v1h-1zM19 40h1v1h-1zM20 40h1v1h-1zM21 40h1v1h-1zM22 40h1v1h-1zM23 40h1v1h-1zM24 40h1v1h-1zM25 40h1v1h-1zM26 40h1v1h-1zM27 40h1v1h-1zM28 40h1v1h-1zM29 40h1v1h-1zM30 40h1v1h-1zM31 40h1v1h-1zM32 40h1v1h-1z"/><path fill="#E28D92" d="M33 40h1v1h-1z"/><path fill="#F3BBC1" d="M34 40h1v1h-1z"/><path fill="#F7C7CD" d="M35 40h1v1h-1zM36 40h1v1h-1zM37 40h1v1h-1zM38 40h1v1h-1zM39 40h1v1h-1zM40 40h1v1h-1zM41 40h1v1h-1z"/><path fill="#F8CED3" d="M42 40h1v1h-1z"/><path fill="#FFF" d="M43 40h1v1h-1zM44 40h1v1h-1zM45 40h1v1h-1zM46 40h1v1h-1z"/><path fill="#E2999B" d="M47 40h1v1h-1z"/><path fill="#D56A6E" d="M48 40h1v1h-1zM49 40h1v1h-1zM50 40h1v1h-1zM51 40h1v1h-1zM52 40h1v1h-1zM53 40h1v1h-1zM54 40h1v1h-1zM55 40h1v1h-1zM56 40h1v1h-1zM57 40h1v1h-1z"/><path fill="#DD7C80" d="M58 40h1v1h-1z"/><path fill="#E48E93" d="M59 40h1v1h-1z"/><path fill="#E99A9F" d="M60 40h1v1h-1zM61 40h1v1h-1zM62 40h1v1h-1z"/><path fill="#926163" d="M63 40h1v1h-1z"/><path fill="#231815" d="M64 40h1v1h-1zM65 40h1v1h-1zM66 40h1v1h-1zM67 40h1v1h-1zM68 40h1v1h-1zM9 41h1v1H9zM10 41h1v1h-1zM11 41h1v1h-1zM12 41h1v1h-1zM13 41h1v1h-1z"/><path fill="#A95658" d="M14 41h1v1h-1z"/><path fill="#D56A6E" d="M15 41h1v1h-1zM16 41h1v1h-1zM17 41h1v1h-1zM18 41h1v1h-1zM19 41h1v1h-1zM20 41h1v1h-1zM21 41h1v1h-1zM22 41h1v1h-1zM23 41h1v1h-1zM24 41h1v1h-1zM25 41h1v1h-1zM26 41h1v1h-1zM27 41h1v1h-1zM28 41h1v1h-1zM29 41h1v1h-1zM30 41h1v1h-1zM31 41h1v1h-1zM32 41h1v1h-1zM33 41h1v1h-1zM34 41h1v1h-1z"/><path fill="#DE8186" d="M35 41h1v1h-1z"/><path fill="#EFB0B5" d="M36 41h1v1h-1z"/><path fill="#F7C7CD" d="M37 41h1v1h-1zM38 41h1v1h-1zM39 41h1v1h-1zM40 41h1v1h-1zM41 41h1v1h-1zM42 41h1v1h-1z"/><path fill="#FDF1F3" d="M43 41h1v1h-1z"/><path fill="#FFF" d="M44 41h1v1h-1zM45 41h1v1h-1z"/><path fill="#FCF6F6" d="M46 41h1v1h-1z"/><path fill="#D56A6E" d="M47 41h1v1h-1zM48 41h1v1h-1zM49 41h1v1h-1zM50 41h1v1h-1zM51 41h1v1h-1zM52 41h1v1h-1zM53 41h1v1h-1zM54 41h1v1h-1z"/><path fill="#D87074" d="M55 41h1v1h-1z"/><path fill="#DF8287" d="M56 41h1v1h-1z"/><path fill="#E8979C" d="M57 41h1v1h-1z"/><path fill="#E99A9F" d="M58 41h1v1h-1zM59 41h1v1h-1zM60 41h1v1h-1zM61 41h1v1h-1zM62 41h1v1h-1zM63 41h1v1h-1z"/><path fill="#614140" d="M64 41h1v1h-1z"/><path fill="#231815" d="M65 41h1v1h-1zM66 41h1v1h-1zM67 41h1v1h-1zM68 41h1v1h-1zM69 41h1v1h-1zM10 42h1v1h-1zM11 42h1v1h-1zM12 42h1v1h-1zM13 42h1v1h-1z"/><path fill="#442726" d="M14 42h1v1h-1z"/><path fill="#D56A6E" d="M15 42h1v1h-1zM16 42h1v1h-1zM17 42h1v1h-1zM18 42h1v1h-1zM19 42h1v1h-1zM20 42h1v1h-1zM21 42h1v1h-1zM22 42h1v1h-1zM23 42h1v1h-1zM24 42h1v1h-1zM25 42h1v1h-1zM26 42h1v1h-1zM27 42h1v1h-1zM28 42h1v1h-1zM29 42h1v1h-1zM30 42h1v1h-1zM31 42h1v1h-1zM32 42h1v1h-1zM33 42h1v1h-1zM34 42h1v1h-1zM35 42h1v1h-1zM36 42h1v1h-1z"/><path fill="#D9767A" d="M37 42h1v1h-1z"/><path fill="#EAA4A9" d="M38 42h1v1h-1z"/><path fill="#F7C7CD" d="M39 42h1v1h-1zM40 42h1v1h-1zM41 42h1v1h-1zM42 42h1v1h-1z"/><path fill="#FAD9DD" d="M43 42h1v1h-1z"/><path fill="#FFF" d="M44 42h1v1h-1zM45 42h1v1h-1z"/><path fill="#EFC7C9" d="M46 42h1v1h-1z"/><path fill="#D56A6E" d="M47 42h1v1h-1zM48 42h1v1h-1zM49 42h1v1h-1zM50 42h1v1h-1zM51 42h1v1h-1zM52 42h1v1h-1z"/><path fill="#DB797D" d="M53 42h1v1h-1z"/><path fill="#E38B90" d="M54 42h1v1h-1z"/><path fill="#E99A9F" d="M55 42h1v1h-1zM56 42h1v1h-1zM57 42h1v1h-1zM58 42h1v1h-1zM59 42h1v1h-1zM60 42h1v1h-1zM61 42h1v1h-1zM62 42h1v1h-1zM63 42h1v1h-1z"/><path fill="#DD9296" d="M64 42h1v1h-1z"/><path fill="#3C2826" d="M65 42h1v1h-1z"/><path fill="#231815" d="M66 42h1v1h-1zM67 42h1v1h-1zM68 42h1v1h-1zM69 42h1v1h-1zM70 42h1v1h-1zM10 43h1v1h-1zM11 43h1v1h-1zM12 43h1v1h-1zM13 43h1v1h-1zM14 43h1v1h-1z"/><path fill="#7C4142" d="M15 43h1v1h-1z"/><path fill="#D56A6E" d="M16 43h1v1h-1zM17 43h1v1h-1zM18 43h1v1h-1zM19 43h1v1h-1zM20 43h1v1h-1zM21 43h1v1h-1zM22 43h1v1h-1zM23 43h1v1h-1zM24 43h1v1h-1zM25 43h1v1h-1zM26 43h1v1h-1zM27 43h1v1h-1zM28 43h1v1h-1zM29 43h1v1h-1zM30 43h1v1h-1zM31 43h1v1h-1zM32 43h1v1h-1zM33 43h1v1h-1zM34 43h1v1h-1zM35 43h1v1h-1zM36 43h1v1h-1zM37 43h1v1h-1zM38 43h1v1h-1z"/><path fill="#D77074" d="M39 43h1v1h-1z"/><path fill="#E6999E" d="M40 43h1v1h-1z"/><path fill="#F5C1C7" d="M41 43h1v1h-1z"/><path fill="#F7C7CD" d="M42 43h1v1h-1zM43 43h1v1h-1z"/><path fill="#FEF8F9" d="M44 43h1v1h-1z"/><path fill="#FFF" d="M45 43h1v1h-1z"/><path fill="#E08F92" d="M46 43h1v1h-1z"/><path fill="#D56A6E" d="M47 43h1v1h-1zM48 43h1v1h-1zM49 43h1v1h-1z"/><path fill="#D87074" d="M50 43h1v1h-1z"/><path fill="#DF8287" d="M51 43h1v1h-1z"/><path fill="#E79499" d="M52 43h1v1h-1z"/><path fill="#E99A9F" d="M53 43h1v1h-1zM54 43h1v1h-1zM55 43h1v1h-1zM56 43h1v1h-1zM57 43h1v1h-1zM58 43h1v1h-1zM59 43h1v1h-1zM60 43h1v1h-1zM61 43h1v1h-1zM62 43h1v1h-1zM63 43h1v1h-1zM64 43h1v1h-1z"/><path fill="#C48285" d="M65 43h1v1h-1z"/><path fill="#231815" d="M66 43h1v1h-1zM67 43h1v1h-1zM68 43h1v1h-1zM69 43h1v1h-1zM70 43h1v1h-1zM11 44h1v1h-1zM12 44h1v1h-1zM13 44h1v1h-1zM14 44h1v1h-1z"/><path fill="#2E1D1B" d="M15 44h1v1h-1z"/><path fill="#BF6063" d="M16 44h1v1h-1z"/><path fill="#D56A6E" d="M17 44h1v1h-1zM18 44h1v1h-1zM19 44h1v1h-1zM20 44h1v1h-1zM21 44h1v1h-1zM22 44h1v1h-1zM23 44h1v1h-1zM24 44h1v1h-1zM25 44h1v1h-1zM26 44h1v1h-1zM27 44h1v1h-1zM28 44h1v1h-1zM29 44h1v1h-1zM30 44h1v1h-1zM31 44h1v1h-1zM32 44h1v1h-1zM33 44h1v1h-1zM34 44h1v1h-1zM35 44h1v1h-1zM36 44h1v1h-1zM37 44h1v1h-1zM38 44h1v1h-1zM39 44h1v1h-1zM40 44h1v1h-1zM41 44h1v1h-1z"/><path fill="#E28D92" d="M42 44h1v1h-1z"/><path fill="#EFB0B5" d="M43 44h1v1h-1z"/><path fill="#FADCE0" d="M44 44h1v1h-1z"/><path fill="#FAECED" d="M45 44h1v1h-1z"/><path fill="#D56A6E" d="M46 44h1v1h-1zM47 44h1v1h-1z"/><path fill="#DB797D" d="M48 44h1v1h-1z"/><path fill="#E38B90" d="M49 44h1v1h-1z"/><path fill="#E99A9F" d="M50 44h1v1h-1zM51 44h1v1h-1zM52 44h1v1h-1zM53 44h1v1h-1zM54 44h1v1h-1zM55 44h1v1h-1zM56 44h1v1h-1zM57 44h1v1h-1zM58 44h1v1h-1zM59 44h1v1h-1zM60 44h1v1h-1zM61 44h1v1h-1zM62 44h1v1h-1zM63 44h1v1h-1zM64 44h1v1h-1zM65 44h1v1h-1z"/><path fill="#9F696B" d="M66 44h1v1h-1z"/><path fill="#231815" d="M67 44h1v1h-1zM68 44h1v1h-1zM69 44h1v1h-1zM70 44h1v1h-1zM71 44h1v1h-1zM12 45h1v1h-1zM13 45h1v1h-1zM14 45h1v1h-1zM15 45h1v1h-1z"/><path fill="#5B3231" d="M16 45h1v1h-1z"/><path fill="#D56A6E" d="M17 45h1v1h-1zM18 45h1v1h-1zM19 45h1v1h-1zM20 45h1v1h-1zM21 45h1v1h-1zM22 45h1v1h-1zM23 45h1v1h-1zM24 45h1v1h-1zM25 45h1v1h-1zM26 45h1v1h-1zM27 45h1v1h-1zM28 45h1v1h-1zM29 45h1v1h-1zM30 45h1v1h-1zM31 45h1v1h-1zM32 45h1v1h-1zM33 45h1v1h-1zM34 45h1v1h-1zM35 45h1v1h-1zM36 45h1v1h-1zM37 45h1v1h-1zM38 45h1v1h-1zM39 45h1v1h-1zM40 45h1v1h-1zM41 45h1v1h-1zM42 45h1v1h-1zM43 45h1v1h-1z"/><path fill="#DE8186" d="M44 45h1v1h-1z"/><path fill="#D48D90" d="M45 45h1v1h-1z"/><path fill="#DB8186" d="M46 45h1v1h-1z"/><path fill="#E8979C" d="M47 45h1v1h-1z"/><path fill="#E99A9F" d="M48 45h1v1h-1zM49 45h1v1h-1zM50 45h1v1h-1zM51 45h1v1h-1zM52 45h1v1h-1zM53 45h1v1h-1zM54 45h1v1h-1zM55 45h1v1h-1zM56 45h1v1h-1zM57 45h1v1h-1zM58 45h1v1h-1zM59 45h1v1h-1zM60 45h1v1h-1zM61 45h1v1h-1zM62 45h1v1h-1zM63 45h1v1h-1zM64 45h1v1h-1zM65 45h1v1h-1zM66 45h1v1h-1z"/><path fill="#6D4949" d="M67 45h1v1h-1z"/><path fill="#231815" d="M68 45h1v1h-1zM69 45h1v1h-1zM70 45h1v1h-1zM71 45h1v1h-1zM72 45h1v1h-1zM12 46h1v1h-1zM13 46h1v1h-1zM14 46h1v1h-1zM15 46h1v1h-1zM16 46h1v1h-1z"/><path fill="#A95658" d="M17 46h1v1h-1z"/><path fill="#D56A6E" d="M18 46h1v1h-1zM19 46h1v1h-1zM20 46h1v1h-1zM21 46h1v1h-1zM22 46h1v1h-1zM23 46h1v1h-1zM24 46h1v1h-1zM25 46h1v1h-1zM26 46h1v1h-1zM27 46h1v1h-1zM28 46h1v1h-1zM29 46h1v1h-1zM30 46h1v1h-1zM31 46h1v1h-1zM32 46h1v1h-1zM33 46h1v1h-1zM34 46h1v1h-1zM35 46h1v1h-1zM36 46h1v1h-1zM37 46h1v1h-1zM38 46h1v1h-1zM39 46h1v1h-1zM40 46h1v1h-1z"/><path fill="#D87074" d="M41 46h1v1h-1z"/><path fill="#DD7C80" d="M42 46h1v1h-1z"/><path fill="#E59196" d="M43 46h1v1h-1z"/><path fill="#E4959A" d="M44 46h1v1h-1z"/><path fill="#8E3E3F" d="M45 46h1v1h-1z"/><path fill="#88373A" d="M46 46h1v1h-1z"/><path fill="#A8585C" d="M47 46h1v1h-1z"/><path fill="#C9797D" d="M48 46h1v1h-1z"/><path fill="#E99A9F" d="M49 46h1v1h-1zM50 46h1v1h-1zM51 46h1v1h-1zM52 46h1v1h-1zM53 46h1v1h-1zM54 46h1v1h-1zM55 46h1v1h-1zM56 46h1v1h-1zM57 46h1v1h-1zM58 46h1v1h-1zM59 46h1v1h-1zM60 46h1v1h-1zM61 46h1v1h-1zM62 46h1v1h-1zM63 46h1v1h-1zM64 46h1v1h-1zM65 46h1v1h-1zM66 46h1v1h-1z"/><path fill="#DD9296" d="M67 46h1v1h-1z"/><path fill="#48302F" d="M68 46h1v1h-1z"/><path fill="#231815" d="M69 46h1v1h-1zM70 46h1v1h-1zM71 46h1v1h-1zM72 46h1v1h-1zM73 46h1v1h-1zM13 47h1v1h-1zM14 47h1v1h-1zM15 47h1v1h-1zM16 47h1v1h-1z"/><path fill="#392220" d="M17 47h1v1h-1z"/><path fill="#CA6568" d="M18 47h1v1h-1z"/><path fill="#D56A6E" d="M19 47h1v1h-1zM20 47h1v1h-1zM21 47h1v1h-1zM22 47h1v1h-1zM23 47h1v1h-1zM24 47h1v1h-1zM25 47h1v1h-1zM26 47h1v1h-1zM27 47h1v1h-1zM28 47h1v1h-1zM29 47h1v1h-1zM30 47h1v1h-1zM31 47h1v1h-1zM32 47h1v1h-1zM33 47h1v1h-1zM34 47h1v1h-1zM35 47h1v1h-1zM36 47h1v1h-1zM37 47h1v1h-1z"/><path fill="#D97377" d="M38 47h1v1h-1z"/><path fill="#DE7F83" d="M39 47h1v1h-1z"/><path fill="#E59196" d="M40 47h1v1h-1z"/><path fill="#E99A9F" d="M41 47h1v1h-1zM42 47h1v1h-1zM43 47h1v1h-1z"/><path fill="#C17374" d="M44 47h1v1h-1z"/><path fill="#8F403F" d="M45 47h1v1h-1z"/><path fill="#813033" d="M46 47h1v1h-1zM47 47h1v1h-1zM48 47h1v1h-1z"/><path fill="#8E3D41" d="M49 47h1v1h-1z"/><path fill="#B56569" d="M50 47h1v1h-1z"/><path fill="#DC8D92" d="M51 47h1v1h-1z"/><path fill="#E99A9F" d="M52 47h1v1h-1zM53 47h1v1h-1zM54 47h1v1h-1zM55 47h1v1h-1zM56 47h1v1h-1zM57 47h1v1h-1zM58 47h1v1h-1zM59 47h1v1h-1zM60 47h1v1h-1zM61 47h1v1h-1zM62 47h1v1h-1zM63 47h1v1h-1zM64 47h1v1h-1zM65 47h1v1h-1zM66 47h1v1h-1zM67 47h1v1h-1z"/><path fill="#C48285" d="M68 47h1v1h-1z"/><path fill="#2F201E" d="M69 47h1v1h-1z"/><path fill="#231815" d="M70 47h1v1h-1zM71 47h1v1h-1zM72 47h1v1h-1zM73 47h1v1h-1zM13 48h1v1h-1zM14 48h1v1h-1zM15 48h1v1h-1zM16 48h1v1h-1zM17 48h1v1h-1z"/><path fill="#7C4142" d="M18 48h1v1h-1z"/><path fill="#D56A6E" d="M19 48h1v1h-1zM20 48h1v1h-1zM21 48h1v1h-1zM22 48h1v1h-1zM23 48h1v1h-1zM24 48h1v1h-1zM25 48h1v1h-1zM26 48h1v1h-1zM27 48h1v1h-1zM28 48h1v1h-1zM29 48h1v1h-1zM30 48h1v1h-1zM31 48h1v1h-1zM32 48h1v1h-1zM33 48h1v1h-1zM34 48h1v1h-1z"/><path fill="#DB797D" d="M35 48h1v1h-1z"/><path fill="#E0858A" d="M36 48h1v1h-1z"/><path fill="#E79499" d="M37 48h1v1h-1z"/><path fill="#E99A9F" d="M38 48h1v1h-1zM39 48h1v1h-1zM40 48h1v1h-1zM41 48h1v1h-1zM42 48h1v1h-1z"/><path fill="#E4959A" d="M43 48h1v1h-1z"/><path fill="#9E514D" d="M44 48h1v1h-1z"/><path fill="#954744" d="M45 48h1v1h-1z"/><path fill="#813033" d="M46 48h1v1h-1zM47 48h1v1h-1zM48 48h1v1h-1zM49 48h1v1h-1zM50 48h1v1h-1zM51 48h1v1h-1z"/><path fill="#A25155" d="M52 48h1v1h-1z"/><path fill="#C9797D" d="M53 48h1v1h-1z"/><path fill="#E99A9F" d="M54 48h1v1h-1zM55 48h1v1h-1zM56 48h1v1h-1zM57 48h1v1h-1zM58 48h1v1h-1zM59 48h1v1h-1zM60 48h1v1h-1zM61 48h1v1h-1zM62 48h1v1h-1zM63 48h1v1h-1zM64 48h1v1h-1zM65 48h1v1h-1zM66 48h1v1h-1zM67 48h1v1h-1zM68 48h1v1h-1z"/><path fill="#9F696B" d="M69 48h1v1h-1z"/><path fill="#231815" d="M70 48h1v1h-1zM71 48h1v1h-1zM72 48h1v1h-1zM73 48h1v1h-1zM74 48h1v1h-1zM14 49h1v1h-1zM15 49h1v1h-1zM16 49h1v1h-1zM17 49h1v1h-1zM18 49h1v1h-1z"/><path fill="#BF6063" d="M19 49h1v1h-1z"/><path fill="#D56A6E" d="M20 49h1v1h-1zM21 49h1v1h-1zM22 49h1v1h-1zM23 49h1v1h-1zM24 49h1v1h-1zM25 49h1v1h-1zM26 49h1v1h-1zM27 49h1v1h-1zM28 49h1v1h-1zM29 49h1v1h-1zM30 49h1v1h-1z"/><path fill="#D87074" d="M31 49h1v1h-1z"/><path fill="#DE7F83" d="M32 49h1v1h-1z"/><path fill="#E38B90" d="M33 49h1v1h-1z"/><path fill="#E99A9F" d="M34 49h1v1h-1zM35 49h1v1h-1zM36 49h1v1h-1zM37 49h1v1h-1zM38 49h1v1h-1zM39 49h1v1h-1zM40 49h1v1h-1zM41 49h1v1h-1zM42 49h1v1h-1z"/><path fill="#CB7D7E" d="M43 49h1v1h-1z"/><path fill="#994C48" d="M44 49h1v1h-1zM45 49h1v1h-1z"/><path fill="#833234" d="M46 49h1v1h-1z"/><path fill="#813033" d="M47 49h1v1h-1zM48 49h1v1h-1zM49 49h1v1h-1zM50 49h1v1h-1zM51 49h1v1h-1zM52 49h1v1h-1zM53 49h1v1h-1z"/><path fill="#8E3D41" d="M54 49h1v1h-1z"/><path fill="#B56569" d="M55 49h1v1h-1z"/><path fill="#DC8D92" d="M56 49h1v1h-1z"/><path fill="#E99A9F" d="M57 49h1v1h-1zM58 49h1v1h-1zM59 49h1v1h-1zM60 49h1v1h-1zM61 49h1v1h-1zM62 49h1v1h-1zM63 49h1v1h-1zM64 49h1v1h-1zM65 49h1v1h-1zM66 49h1v1h-1zM67 49h1v1h-1zM68 49h1v1h-1zM69 49h1v1h-1z"/><path fill="#7A5151" d="M70 49h1v1h-1z"/><path fill="#231815" d="M71 49h1v1h-1zM72 49h1v1h-1zM73 49h1v1h-1zM74 49h1v1h-1zM75 49h1v1h-1zM15 50h1v1h-1zM16 50h1v1h-1zM17 50h1v1h-1zM18 50h1v1h-1z"/><path fill="#502D2B" d="M19 50h1v1h-1z"/><path fill="#D56A6E" d="M20 50h1v1h-1zM21 50h1v1h-1zM22 50h1v1h-1zM23 50h1v1h-1zM24 50h1v1h-1zM25 50h1v1h-1zM26 50h1v1h-1z"/><path fill="#D66D71" d="M27 50h1v1h-1z"/><path fill="#DB797D" d="M28 50h1v1h-1z"/><path fill="#E2888D" d="M29 50h1v1h-1z"/><path fill="#E79499" d="M30 50h1v1h-1z"/><path fill="#E99A9F" d="M31 50h1v1h-1zM32 50h1v1h-1zM33 50h1v1h-1zM34 50h1v1h-1zM35 50h1v1h-1zM36 50h1v1h-1zM37 50h1v1h-1zM38 50h1v1h-1zM39 50h1v1h-1zM40 50h1v1h-1zM41 50h1v1h-1zM42 50h1v1h-1z"/><path fill="#A35653" d="M43 50h1v1h-1z"/><path fill="#994C48" d="M44 50h1v1h-1zM45 50h1v1h-1z"/><path fill="#8A3B3B" d="M46 50h1v1h-1z"/><path fill="#813033" d="M47 50h1v1h-1zM48 50h1v1h-1zM49 50h1v1h-1zM50 50h1v1h-1zM51 50h1v1h-1zM52 50h1v1h-1zM53 50h1v1h-1zM54 50h1v1h-1zM55 50h1v1h-1zM56 50h1v1h-1z"/><path fill="#A25155" d="M57 50h1v1h-1z"/><path fill="#C9797D" d="M58 50h1v1h-1z"/><path fill="#E99A9F" d="M59 50h1v1h-1zM60 50h1v1h-1zM61 50h1v1h-1zM62 50h1v1h-1zM63 50h1v1h-1zM64 50h1v1h-1zM65 50h1v1h-1zM66 50h1v1h-1zM67 50h1v1h-1zM68 50h1v1h-1zM69 50h1v1h-1zM70 50h1v1h-1z"/><path fill="#48302F" d="M71 50h1v1h-1z"/><path fill="#231815" d="M72 50h1v1h-1zM73 50h1v1h-1zM74 50h1v1h-1zM75 50h1v1h-1zM76 50h1v1h-1zM15 51h1v1h-1zM16 51h1v1h-1zM17 51h1v1h-1zM18 51h1v1h-1zM19 51h1v1h-1z"/><path fill="#9D5052" d="M20 51h1v1h-1z"/><path fill="#D56A6E" d="M21 51h1v1h-1zM22 51h1v1h-1zM23 51h1v1h-1z"/><path fill="#DA767A" d="M24 51h1v1h-1z"/><path fill="#E0858A" d="M25 51h1v1h-1z"/><path fill="#E59196" d="M26 51h1v1h-1z"/><path fill="#E99A9F" d="M27 51h1v1h-1zM28 51h1v1h-1zM29 51h1v1h-1zM30 51h1v1h-1zM31 51h1v1h-1zM32 51h1v1h-1zM33 51h1v1h-1zM34 51h1v1h-1zM35 51h1v1h-1zM36 51h1v1h-1zM37 51h1v1h-1zM38 51h1v1h-1zM39 51h1v1h-1zM40 51h1v1h-1zM41 51h1v1h-1z"/><path fill="#CB7D7E" d="M42 51h1v1h-1z"/><path fill="#994C48" d="M43 51h1v1h-1zM44 51h1v1h-1zM45 51h1v1h-1z"/><path fill="#904240" d="M46 51h1v1h-1z"/><path fill="#813033" d="M47 51h1v1h-1zM48 51h1v1h-1zM49 51h1v1h-1zM50 51h1v1h-1zM51 51h1v1h-1zM52 51h1v1h-1zM53 51h1v1h-1zM54 51h1v1h-1zM55 51h1v1h-1zM56 51h1v1h-1zM57 51h1v1h-1zM58 51h1v1h-1z"/><path fill="#8E3D41" d="M59 51h1v1h-1z"/><path fill="#B56569" d="M60 51h1v1h-1z"/><path fill="#DC8D92" d="M61 51h1v1h-1z"/><path fill="#E99A9F" d="M62 51h1v1h-1zM63 51h1v1h-1zM64 51h1v1h-1zM65 51h1v1h-1zM66 51h1v1h-1zM67 51h1v1h-1zM68 51h1v1h-1zM69 51h1v1h-1zM70 51h1v1h-1z"/><path fill="#D08A8E" d="M71 51h1v1h-1z"/><path fill="#2F201E" d="M72 51h1v1h-1z"/><path fill="#231815" d="M73 51h1v1h-1zM74 51h1v1h-1zM75 51h1v1h-1zM76 51h1v1h-1zM16 52h1v1h-1zM17 52h1v1h-1zM18 52h1v1h-1zM19 52h1v1h-1z"/><path fill="#442726" d="M20 52h1v1h-1z"/><path fill="#DF8287" d="M21 52h1v1h-1z"/><path fill="#E48E93" d="M22 52h1v1h-1z"/><path fill="#E99A9F" d="M23 52h1v1h-1zM24 52h1v1h-1zM25 52h1v1h-1zM26 52h1v1h-1zM27 52h1v1h-1zM28 52h1v1h-1zM29 52h1v1h-1zM30 52h1v1h-1zM31 52h1v1h-1zM32 52h1v1h-1zM33 52h1v1h-1zM34 52h1v1h-1zM35 52h1v1h-1zM36 52h1v1h-1zM37 52h1v1h-1zM38 52h1v1h-1zM39 52h1v1h-1zM40 52h1v1h-1zM41 52h1v1h-1z"/><path fill="#A35653" d="M42 52h1v1h-1z"/><path fill="#994C48" d="M43 52h1v1h-1zM44 52h1v1h-1zM45 52h1v1h-1z"/><path fill="#984A47" d="M46 52h1v1h-1z"/><path fill="#813033" d="M47 52h1v1h-1zM48 52h1v1h-1zM49 52h1v1h-1zM50 52h1v1h-1zM51 52h1v1h-1zM52 52h1v1h-1zM53 52h1v1h-1zM54 52h1v1h-1zM55 52h1v1h-1zM56 52h1v1h-1zM57 52h1v1h-1zM58 52h1v1h-1zM59 52h1v1h-1zM60 52h1v1h-1zM61 52h1v1h-1z"/><path fill="#A25155" d="M62 52h1v1h-1z"/><path fill="#C9797D" d="M63 52h1v1h-1z"/><path fill="#E99A9F" d="M64 52h1v1h-1zM65 52h1v1h-1zM66 52h1v1h-1zM67 52h1v1h-1zM68 52h1v1h-1zM69 52h1v1h-1zM70 52h1v1h-1zM71 52h1v1h-1z"/><path fill="#B87A7D" d="M72 52h1v1h-1z"/><path fill="#231815" d="M73 52h1v1h-1zM74 52h1v1h-1zM75 52h1v1h-1zM76 52h1v1h-1zM77 52h1v1h-1zM16 53h1v1h-1zM17 53h1v1h-1zM18 53h1v1h-1zM19 53h1v1h-1zM20 53h1v1h-1z"/><path fill="#DD9296" d="M21 53h1v1h-1z"/><path fill="#E99A9F" d="M22 53h1v1h-1zM23 53h1v1h-1zM24 53h1v1h-1zM25 53h1v1h-1zM26 53h1v1h-1zM27 53h1v1h-1zM28 53h1v1h-1zM29 53h1v1h-1zM30 53h1v1h-1zM31 53h1v1h-1zM32 53h1v1h-1zM33 53h1v1h-1zM34 53h1v1h-1zM35 53h1v1h-1zM36 53h1v1h-1zM37 53h1v1h-1zM38 53h1v1h-1zM39 53h1v1h-1zM40 53h1v1h-1z"/><path fill="#D08284" d="M41 53h1v1h-1z"/><path fill="#994C48" d="M42 53h1v1h-1zM43 53h1v1h-1zM44 53h1v1h-1zM45 53h1v1h-1zM46 53h1v1h-1z"/><path fill="#863537" d="M47 53h1v1h-1z"/><path fill="#813033" d="M48 53h1v1h-1zM49 53h1v1h-1zM50 53h1v1h-1zM51 53h1v1h-1zM52 53h1v1h-1zM53 53h1v1h-1zM54 53h1v1h-1zM55 53h1v1h-1zM56 53h1v1h-1zM57 53h1v1h-1zM58 53h1v1h-1zM59 53h1v1h-1zM60 53h1v1h-1zM61 53h1v1h-1zM62 53h1v1h-1zM63 53h1v1h-1z"/><path fill="#8E3D41" d="M64 53h1v1h-1z"/><path fill="#BC6C70" d="M65 53h1v1h-1z"/><path fill="#E39398" d="M66 53h1v1h-1z"/><path fill="#E99A9F" d="M67 53h1v1h-1zM68 53h1v1h-1zM69 53h1v1h-1zM70 53h1v1h-1zM71 53h1v1h-1zM72 53h1v1h-1z"/><path fill="#86595A" d="M73 53h1v1h-1z"/><path fill="#231815" d="M74 53h1v1h-1zM75 53h1v1h-1zM76 53h1v1h-1zM77 53h1v1h-1zM78 53h1v1h-1zM17 54h1v1h-1zM18 54h1v1h-1zM19 54h1v1h-1zM20 54h1v1h-1z"/><path fill="#AB7174" d="M21 54h1v1h-1z"/><path fill="#E99A9F" d="M22 54h1v1h-1zM23 54h1v1h-1zM24 54h1v1h-1zM25 54h1v1h-1zM26 54h1v1h-1zM27 54h1v1h-1zM28 54h1v1h-1zM29 54h1v1h-1zM30 54h1v1h-1zM31 54h1v1h-1zM32 54h1v1h-1zM33 54h1v1h-1zM34 54h1v1h-1zM35 54h1v1h-1zM36 54h1v1h-1zM37 54h1v1h-1zM38 54h1v1h-1zM39 54h1v1h-1zM40 54h1v1h-1z"/><path fill="#AD605E" d="M41 54h1v1h-1z"/><path fill="#994C48" d="M42 54h1v1h-1zM43 54h1v1h-1zM44 54h1v1h-1zM45 54h1v1h-1zM46 54h1v1h-1z"/><path fill="#8D3E3E" d="M47 54h1v1h-1z"/><path fill="#813033" d="M48 54h1v1h-1zM49 54h1v1h-1zM50 54h1v1h-1zM51 54h1v1h-1zM52 54h1v1h-1zM53 54h1v1h-1zM54 54h1v1h-1zM55 54h1v1h-1zM56 54h1v1h-1zM57 54h1v1h-1zM58 54h1v1h-1zM59 54h1v1h-1zM60 54h1v1h-1zM61 54h1v1h-1zM62 54h1v1h-1zM63 54h1v1h-1zM64 54h1v1h-1zM65 54h1v1h-1zM66 54h1v1h-1z"/><path fill="#A8585C" d="M67 54h1v1h-1z"/><path fill="#CF8084" d="M68 54h1v1h-1z"/><path fill="#E99A9F" d="M69 54h1v1h-1zM70 54h1v1h-1zM71 54h1v1h-1zM72 54h1v1h-1zM73 54h1v1h-1z"/><path fill="#553938" d="M74 54h1v1h-1z"/><path fill="#231815" d="M75 54h1v1h-1zM76 54h1v1h-1zM77 54h1v1h-1zM78 54h1v1h-1zM79 54h1v1h-1zM17 55h1v1h-1zM18 55h1v1h-1zM19 55h1v1h-1zM20 55h1v1h-1z"/><path fill="#86595A" d="M21 55h1v1h-1z"/><path fill="#E99A9F" d="M22 55h1v1h-1zM23 55h1v1h-1zM24 55h1v1h-1zM25 55h1v1h-1zM26 55h1v1h-1zM27 55h1v1h-1zM28 55h1v1h-1zM29 55h1v1h-1zM30 55h1v1h-1zM31 55h1v1h-1zM32 55h1v1h-1zM33 55h1v1h-1zM34 55h1v1h-1zM35 55h1v1h-1zM36 55h1v1h-1zM37 55h1v1h-1zM38 55h1v1h-1zM39 55h1v1h-1z"/><path fill="#D58789" d="M40 55h1v1h-1z"/><path fill="#994C48" d="M41 55h1v1h-1zM42 55h1v1h-1zM43 55h1v1h-1zM44 55h1v1h-1zM45 55h1v1h-1zM46 55h1v1h-1z"/><path fill="#954744" d="M47 55h1v1h-1z"/><path fill="#813033" d="M48 55h1v1h-1zM49 55h1v1h-1zM50 55h1v1h-1zM51 55h1v1h-1zM52 55h1v1h-1zM53 55h1v1h-1zM54 55h1v1h-1zM55 55h1v1h-1zM56 55h1v1h-1zM57 55h1v1h-1zM58 55h1v1h-1zM59 55h1v1h-1zM60 55h1v1h-1zM61 55h1v1h-1zM62 55h1v1h-1zM63 55h1v1h-1zM64 55h1v1h-1zM65 55h1v1h-1zM66 55h1v1h-1zM67 55h1v1h-1zM68 55h1v1h-1z"/><path fill="#954447" d="M69 55h1v1h-1z"/><path fill="#C27277" d="M70 55h1v1h-1z"/><path fill="#E39398" d="M71 55h1v1h-1z"/><path fill="#E99A9F" d="M72 55h1v1h-1zM73 55h1v1h-1z"/><path fill="#DD9296" d="M74 55h1v1h-1z"/><path fill="#2F201E" d="M75 55h1v1h-1z"/><path fill="#231815" d="M76 55h1v1h-1zM77 55h1v1h-1zM78 55h1v1h-1zM79 55h1v1h-1zM80 55h1v1h-1zM17 56h1v1h-1zM18 56h1v1h-1zM19 56h1v1h-1zM20 56h1v1h-1z"/><path fill="#553938" d="M21 56h1v1h-1z"/><path fill="#E99A9F" d="M22 56h1v1h-1zM23 56h1v1h-1zM24 56h1v1h-1zM25 56h1v1h-1zM26 56h1v1h-1zM27 56h1v1h-1zM28 56h1v1h-1zM29 56h1v1h-1zM30 56h1v1h-1zM31 56h1v1h-1zM32 56h1v1h-1zM33 56h1v1h-1zM34 56h1v1h-1zM35 56h1v1h-1zM36 56h1v1h-1zM37 56h1v1h-1zM38 56h1v1h-1zM39 56h1v1h-1z"/><path fill="#B26463" d="M40 56h1v1h-1z"/><path fill="#994C48" d="M41 56h1v1h-1zM42 56h1v1h-1zM43 56h1v1h-1zM44 56h1v1h-1zM45 56h1v1h-1zM46 56h1v1h-1zM47 56h1v1h-1z"/><path fill="#843436" d="M48 56h1v1h-1z"/><path fill="#813033" d="M49 56h1v1h-1zM50 56h1v1h-1zM51 56h1v1h-1zM52 56h1v1h-1zM53 56h1v1h-1zM54 56h1v1h-1zM55 56h1v1h-1zM56 56h1v1h-1zM57 56h1v1h-1zM58 56h1v1h-1zM59 56h1v1h-1zM60 56h1v1h-1zM61 56h1v1h-1zM62 56h1v1h-1zM63 56h1v1h-1zM64 56h1v1h-1zM65 56h1v1h-1zM66 56h1v1h-1zM67 56h1v1h-1zM68 56h1v1h-1zM69 56h1v1h-1zM70 56h1v1h-1z"/><path fill="#88373A" d="M71 56h1v1h-1z"/><path fill="#AF5E62" d="M72 56h1v1h-1z"/><path fill="#DC8D92" d="M73 56h1v1h-1z"/><path fill="#E99A9F" d="M74 56h1v1h-1z"/><path fill="#C48285" d="M75 56h1v1h-1z"/><path fill="#231815" d="M76 56h1v1h-1zM77 56h1v1h-1zM78 56h1v1h-1zM79 56h1v1h-1zM80 56h1v1h-1zM18 57h1v1h-1zM19 57h1v1h-1zM20 57h1v1h-1zM21 57h1v1h-1z"/><path fill="#E99A9F" d="M22 57h1v1h-1zM23 57h1v1h-1zM24 57h1v1h-1zM25 57h1v1h-1zM26 57h1v1h-1zM27 57h1v1h-1zM28 57h1v1h-1zM29 57h1v1h-1zM30 57h1v1h-1zM31 57h1v1h-1zM32 57h1v1h-1zM33 57h1v1h-1zM34 57h1v1h-1zM35 57h1v1h-1zM36 57h1v1h-1zM37 57h1v1h-1zM38 57h1v1h-1z"/><path fill="#DF9094" d="M39 57h1v1h-1z"/><path fill="#994C48" d="M40 57h1v1h-1zM41 57h1v1h-1zM42 57h1v1h-1zM43 57h1v1h-1zM44 57h1v1h-1zM45 57h1v1h-1zM46 57h1v1h-1zM47 57h1v1h-1z"/><path fill="#8A3B3B" d="M48 57h1v1h-1z"/><path fill="#813033" d="M49 57h1v1h-1zM50 57h1v1h-1zM51 57h1v1h-1zM52 57h1v1h-1zM53 57h1v1h-1zM54 57h1v1h-1zM55 57h1v1h-1zM56 57h1v1h-1zM57 57h1v1h-1zM58 57h1v1h-1zM59 57h1v1h-1zM60 57h1v1h-1zM61 57h1v1h-1zM62 57h1v1h-1zM63 57h1v1h-1zM64 57h1v1h-1zM65 57h1v1h-1zM66 57h1v1h-1zM67 57h1v1h-1zM68 57h1v1h-1zM69 57h1v1h-1zM70 57h1v1h-1zM71 57h1v1h-1zM72 57h1v1h-1zM73 57h1v1h-1z"/><path fill="#9B4B4E" d="M74 57h1v1h-1z"/><path fill="#C9797D" d="M75 57h1v1h-1z"/><path fill="#926163" d="M76 57h1v1h-1z"/><path fill="#231815" d="M77 57h1v1h-1zM78 57h1v1h-1zM79 57h1v1h-1zM80 57h1v1h-1zM81 57h1v1h-1zM18 58h1v1h-1zM19 58h1v1h-1zM20 58h1v1h-1zM21 58h1v1h-1z"/><path fill="#B87A7D" d="M22 58h1v1h-1z"/><path fill="#E99A9F" d="M23 58h1v1h-1zM24 58h1v1h-1zM25 58h1v1h-1zM26 58h1v1h-1zM27 58h1v1h-1zM28 58h1v1h-1zM29 58h1v1h-1zM30 58h1v1h-1zM31 58h1v1h-1zM32 58h1v1h-1zM33 58h1v1h-1zM34 58h1v1h-1zM35 58h1v1h-1zM36 58h1v1h-1zM37 58h1v1h-1zM38 58h1v1h-1z"/><path fill="#B76969" d="M39 58h1v1h-1z"/><path fill="#994C48" d="M40 58h1v1h-1zM41 58h1v1h-1zM42 58h1v1h-1zM43 58h1v1h-1zM44 58h1v1h-1zM45 58h1v1h-1zM46 58h1v1h-1zM47 58h1v1h-1z"/><path fill="#924341" d="M48 58h1v1h-1z"/><path fill="#813033" d="M49 58h1v1h-1zM50 58h1v1h-1zM51 58h1v1h-1zM52 58h1v1h-1zM53 58h1v1h-1zM54 58h1v1h-1zM55 58h1v1h-1zM56 58h1v1h-1zM57 58h1v1h-1zM58 58h1v1h-1zM59 58h1v1h-1zM60 58h1v1h-1zM61 58h1v1h-1zM62 58h1v1h-1zM63 58h1v1h-1zM64 58h1v1h-1zM65 58h1v1h-1zM66 58h1v1h-1zM67 58h1v1h-1zM68 58h1v1h-1zM69 58h1v1h-1zM70 58h1v1h-1zM71 58h1v1h-1zM72 58h1v1h-1zM73 58h1v1h-1zM74 58h1v1h-1zM75 58h1v1h-1z"/><path fill="#8E3D41" d="M76 58h1v1h-1z"/><path fill="#351D1B" d="M77 58h1v1h-1z"/><path fill="#231815" d="M78 58h1v1h-1zM79 58h1v1h-1zM80 58h1v1h-1zM81 58h1v1h-1zM82 58h1v1h-1zM18 59h1v1h-1zM19 59h1v1h-1zM20 59h1v1h-1zM21 59h1v1h-1z"/><path fill="#86595A" d="M22 59h1v1h-1z"/><path fill="#E99A9F" d="M23 59h1v1h-1zM24 59h1v1h-1zM25 59h1v1h-1zM26 59h1v1h-1zM27 59h1v1h-1zM28 59h1v1h-1zM29 59h1v1h-1zM30 59h1v1h-1zM31 59h1v1h-1zM32 59h1v1h-1zM33 59h1v1h-1zM34 59h1v1h-1zM35 59h1v1h-1zM36 59h1v1h-1zM37 59h1v1h-1z"/><path fill="#E4959A" d="M38 59h1v1h-1z"/><path fill="#994C48" d="M39 59h1v1h-1zM40 59h1v1h-1zM41 59h1v1h-1zM42 59h1v1h-1zM43 59h1v1h-1zM44 59h1v1h-1zM45 59h1v1h-1zM46 59h1v1h-1zM47 59h1v1h-1zM48 59h1v1h-1z"/><path fill="#833234" d="M49 59h1v1h-1z"/><path fill="#813033" d="M50 59h1v1h-1zM51 59h1v1h-1zM52 59h1v1h-1zM53 59h1v1h-1zM54 59h1v1h-1zM55 59h1v1h-1zM56 59h1v1h-1zM57 59h1v1h-1zM58 59h1v1h-1zM59 59h1v1h-1zM60 59h1v1h-1zM61 59h1v1h-1zM62 59h1v1h-1zM63 59h1v1h-1zM64 59h1v1h-1zM65 59h1v1h-1zM66 59h1v1h-1zM67 59h1v1h-1zM68 59h1v1h-1zM69 59h1v1h-1zM70 59h1v1h-1zM71 59h1v1h-1z"/><path fill="#752D2F" d="M72 59h1v1h-1z"/><path fill="#5E2728" d="M73 59h1v1h-1z"/><path fill="#4C2322" d="M74 59h1v1h-1z"/><path fill="#351D1B" d="M75 59h1v1h-1z"/><path fill="#231815" d="M76 59h1v1h-1zM77 59h1v1h-1zM78 59h1v1h-1zM79 59h1v1h-1zM80 59h1v1h-1zM81 59h1v1h-1zM82 59h1v1h-1zM18 60h1v1h-1zM19 60h1v1h-1zM20 60h1v1h-1zM21 60h1v1h-1z"/><path fill="#614140" d="M22 60h1v1h-1z"/><path fill="#E99A9F" d="M23 60h1v1h-1zM24 60h1v1h-1zM25 60h1v1h-1zM26 60h1v1h-1zM27 60h1v1h-1zM28 60h1v1h-1zM29 60h1v1h-1zM30 60h1v1h-1zM31 60h1v1h-1zM32 60h1v1h-1zM33 60h1v1h-1zM34 60h1v1h-1zM35 60h1v1h-1zM36 60h1v1h-1zM37 60h1v1h-1z"/><path fill="#C17374" d="M38 60h1v1h-1z"/><path fill="#994C48" d="M39 60h1v1h-1zM40 60h1v1h-1zM41 60h1v1h-1zM42 60h1v1h-1zM43 60h1v1h-1zM44 60h1v1h-1zM45 60h1v1h-1zM46 60h1v1h-1zM47 60h1v1h-1zM48 60h1v1h-1z"/><path fill="#89393A" d="M49 60h1v1h-1z"/><path fill="#813033" d="M50 60h1v1h-1zM51 60h1v1h-1zM52 60h1v1h-1zM53 60h1v1h-1zM54 60h1v1h-1zM55 60h1v1h-1zM56 60h1v1h-1zM57 60h1v1h-1zM58 60h1v1h-1zM59 60h1v1h-1zM60 60h1v1h-1zM61 60h1v1h-1zM62 60h1v1h-1zM63 60h1v1h-1zM64 60h1v1h-1zM65 60h1v1h-1zM66 60h1v1h-1zM67 60h1v1h-1z"/><path fill="#6F2C2D" d="M68 60h1v1h-1z"/><path fill="#582626" d="M69 60h1v1h-1z"/><path fill="#40201E" d="M70 60h1v1h-1z"/><path fill="#2F1B19" d="M71 60h1v1h-1z"/><path fill="#231815" d="M72 60h1v1h-1zM73 60h1v1h-1zM74 60h1v1h-1zM75 60h1v1h-1zM76 60h1v1h-1zM77 60h1v1h-1zM78 60h1v1h-1zM79 60h1v1h-1zM80 60h1v1h-1zM81 60h1v1h-1zM82 60h1v1h-1zM19 61h1v1h-1zM20 61h1v1h-1zM21 61h1v1h-1z"/><path fill="#2F201E" d="M22 61h1v1h-1z"/><path fill="#E99A9F" d="M23 61h1v1h-1zM24 61h1v1h-1zM25 61h1v1h-1zM26 61h1v1h-1zM27 61h1v1h-1zM28 61h1v1h-1zM29 61h1v1h-1zM30 61h1v1h-1zM31 61h1v1h-1zM32 61h1v1h-1zM33 61h1v1h-1zM34 61h1v1h-1zM35 61h1v1h-1zM36 61h1v1h-1z"/><path fill="#E4959A" d="M37 61h1v1h-1z"/><path fill="#9E514D" d="M38 61h1v1h-1z"/><path fill="#994C48" d="M39 61h1v1h-1zM40 61h1v1h-1zM41 61h1v1h-1zM42 61h1v1h-1zM43 61h1v1h-1zM44 61h1v1h-1zM45 61h1v1h-1zM46 61h1v1h-1zM47 61h1v1h-1zM48 61h1v1h-1z"/><path fill="#904240" d="M49 61h1v1h-1z"/><path fill="#813033" d="M50 61h1v1h-1zM51 61h1v1h-1zM52 61h1v1h-1zM53 61h1v1h-1zM54 61h1v1h-1zM55 61h1v1h-1zM56 61h1v1h-1zM57 61h1v1h-1zM58 61h1v1h-1zM59 61h1v1h-1zM60 61h1v1h-1zM61 61h1v1h-1zM62 61h1v1h-1z"/><path fill="#7B2F31" d="M63 61h1v1h-1z"/><path fill="#64292A" d="M64 61h1v1h-1z"/><path fill="#522424" d="M65 61h1v1h-1z"/><path fill="#3B1E1D" d="M66 61h1v1h-1z"/><path fill="#231815" d="M67 61h1v1h-1zM68 61h1v1h-1zM69 61h1v1h-1zM70 61h1v1h-1zM71 61h1v1h-1zM72 61h1v1h-1zM73 61h1v1h-1zM74 61h1v1h-1zM75 61h1v1h-1zM76 61h1v1h-1zM77 61h1v1h-1zM78 61h1v1h-1zM79 61h1v1h-1zM80 61h1v1h-1zM81 61h1v1h-1zM82 61h1v1h-1zM19 62h1v1h-1zM20 62h1v1h-1zM21 62h1v1h-1zM22 62h1v1h-1z"/><path fill="#C48285" d="M23 62h1v1h-1z"/><path fill="#E99A9F" d="M24 62h1v1h-1zM25 62h1v1h-1zM26 62h1v1h-1zM27 62h1v1h-1zM28 62h1v1h-1zM29 62h1v1h-1zM30 62h1v1h-1zM31 62h1v1h-1zM32 62h1v1h-1zM33 62h1v1h-1zM34 62h1v1h-1zM35 62h1v1h-1zM36 62h1v1h-1z"/><path fill="#CB7D7E" d="M37 62h1v1h-1z"/><path fill="#994C48" d="M38 62h1v1h-1zM39 62h1v1h-1zM40 62h1v1h-1zM41 62h1v1h-1zM42 62h1v1h-1zM43 62h1v1h-1zM44 62h1v1h-1zM45 62h1v1h-1zM46 62h1v1h-1zM47 62h1v1h-1zM48 62h1v1h-1z"/><path fill="#984A47" d="M49 62h1v1h-1z"/><path fill="#813033" d="M50 62h1v1h-1zM51 62h1v1h-1zM52 62h1v1h-1zM53 62h1v1h-1zM54 62h1v1h-1zM55 62h1v1h-1zM56 62h1v1h-1zM57 62h1v1h-1zM58 62h1v1h-1z"/><path fill="#6F2C2D" d="M59 62h1v1h-1z"/><path fill="#5E2728" d="M60 62h1v1h-1z"/><path fill="#462120" d="M61 62h1v1h-1z"/><path fill="#351D1B" d="M62 62h1v1h-1z"/><path fill="#231815" d="M63 62h1v1h-1zM64 62h1v1h-1zM65 62h1v1h-1zM66 62h1v1h-1zM67 62h1v1h-1zM68 62h1v1h-1zM69 62h1v1h-1zM70 62h1v1h-1zM71 62h1v1h-1zM72 62h1v1h-1zM73 62h1v1h-1zM74 62h1v1h-1zM75 62h1v1h-1zM76 62h1v1h-1zM77 62h1v1h-1zM78 62h1v1h-1zM79 62h1v1h-1zM19 63h1v1h-1zM20 63h1v1h-1zM21 63h1v1h-1zM22 63h1v1h-1z"/><path fill="#926163" d="M23 63h1v1h-1z"/><path fill="#E99A9F" d="M24 63h1v1h-1zM25 63h1v1h-1zM26 63h1v1h-1zM27 63h1v1h-1zM28 63h1v1h-1zM29 63h1v1h-1zM30 63h1v1h-1zM31 63h1v1h-1zM32 63h1v1h-1zM33 63h1v1h-1zM34 63h1v1h-1zM35 63h1v1h-1zM36 63h1v1h-1z"/><path fill="#A35653" d="M37 63h1v1h-1z"/><path fill="#994C48" d="M38 63h1v1h-1zM39 63h1v1h-1zM40 63h1v1h-1zM41 63h1v1h-1zM42 63h1v1h-1zM43 63h1v1h-1zM44 63h1v1h-1zM45 63h1v1h-1zM46 63h1v1h-1zM47 63h1v1h-1zM48 63h1v1h-1zM49 63h1v1h-1z"/><path fill="#873738" d="M50 63h1v1h-1z"/><path fill="#813033" d="M51 63h1v1h-1zM52 63h1v1h-1zM53 63h1v1h-1zM54 63h1v1h-1z"/><path fill="#6A2A2C" d="M55 63h1v1h-1z"/><path fill="#522424" d="M56 63h1v1h-1z"/><path fill="#40201E" d="M57 63h1v1h-1z"/><path fill="#291A17" d="M58 63h1v1h-1z"/><path fill="#231815" d="M59 63h1v1h-1zM60 63h1v1h-1zM61 63h1v1h-1zM62 63h1v1h-1zM63 63h1v1h-1zM64 63h1v1h-1zM65 63h1v1h-1zM66 63h1v1h-1zM67 63h1v1h-1zM68 63h1v1h-1zM69 63h1v1h-1zM70 63h1v1h-1zM71 63h1v1h-1zM72 63h1v1h-1zM73 63h1v1h-1zM74 63h1v1h-1zM75 63h1v1h-1zM19 64h1v1h-1zM20 64h1v1h-1zM21 64h1v1h-1zM22 64h1v1h-1z"/><path fill="#6D4949" d="M23 64h1v1h-1z"/><path fill="#E99A9F" d="M24 64h1v1h-1zM25 64h1v1h-1zM26 64h1v1h-1zM27 64h1v1h-1zM28 64h1v1h-1zM29 64h1v1h-1zM30 64h1v1h-1zM31 64h1v1h-1zM32 64h1v1h-1zM33 64h1v1h-1zM34 64h1v1h-1zM35 64h1v1h-1z"/><path fill="#CB7D7E" d="M36 64h1v1h-1z"/><path fill="#994C48" d="M37 64h1v1h-1zM38 64h1v1h-1zM39 64h1v1h-1zM40 64h1v1h-1zM41 64h1v1h-1zM42 64h1v1h-1zM43 64h1v1h-1zM44 64h1v1h-1zM45 64h1v1h-1zM46 64h1v1h-1zM47 64h1v1h-1zM48 64h1v1h-1zM49 64h1v1h-1z"/><path fill="#8F403F" d="M50 64h1v1h-1z"/><path fill="#64292A" d="M51 64h1v1h-1z"/><path fill="#4C2322" d="M52 64h1v1h-1z"/><path fill="#351D1B" d="M53 64h1v1h-1z"/><path fill="#231815" d="M54 64h1v1h-1zM55 64h1v1h-1zM56 64h1v1h-1zM57 64h1v1h-1zM58 64h1v1h-1zM59 64h1v1h-1zM60 64h1v1h-1zM61 64h1v1h-1zM62 64h1v1h-1zM63 64h1v1h-1zM64 64h1v1h-1zM65 64h1v1h-1zM66 64h1v1h-1zM67 64h1v1h-1zM68 64h1v1h-1zM69 64h1v1h-1zM70 64h1v1h-1zM20 65h1v1h-1zM21 65h1v1h-1zM22 65h1v1h-1z"/><path fill="#3C2826" d="M23 65h1v1h-1z"/><path fill="#E99A9F" d="M24 65h1v1h-1zM25 65h1v1h-1zM26 65h1v1h-1zM27 65h1v1h-1zM28 65h1v1h-1zM29 65h1v1h-1zM30 65h1v1h-1zM31 65h1v1h-1zM32 65h1v1h-1zM33 65h1v1h-1zM34 65h1v1h-1zM35 65h1v1h-1z"/><path fill="#AD605E" d="M36 65h1v1h-1z"/><path fill="#994C48" d="M37 65h1v1h-1zM38 65h1v1h-1zM39 65h1v1h-1zM40 65h1v1h-1zM41 65h1v1h-1zM42 65h1v1h-1zM43 65h1v1h-1zM44 65h1v1h-1zM45 65h1v1h-1zM46 65h1v1h-1zM47 65h1v1h-1zM48 65h1v1h-1z"/><path fill="#83423E" d="M49 65h1v1h-1z"/><path fill="#321F1B" d="M50 65h1v1h-1z"/><path fill="#231815" d="M51 65h1v1h-1zM52 65h1v1h-1zM53 65h1v1h-1zM54 65h1v1h-1zM55 65h1v1h-1zM56 65h1v1h-1zM57 65h1v1h-1zM58 65h1v1h-1zM59 65h1v1h-1zM60 65h1v1h-1zM61 65h1v1h-1zM62 65h1v1h-1zM63 65h1v1h-1zM64 65h1v1h-1zM65 65h1v1h-1zM66 65h1v1h-1zM20 66h1v1h-1zM21 66h1v1h-1zM22 66h1v1h-1zM23 66h1v1h-1z"/><path fill="#D08A8E" d="M24 66h1v1h-1z"/><path fill="#E99A9F" d="M25 66h1v1h-1zM26 66h1v1h-1zM27 66h1v1h-1zM28 66h1v1h-1zM29 66h1v1h-1zM30 66h1v1h-1zM31 66h1v1h-1zM32 66h1v1h-1zM33 66h1v1h-1zM34 66h1v1h-1z"/><path fill="#D58789" d="M35 66h1v1h-1z"/><path fill="#994C48" d="M36 66h1v1h-1zM37 66h1v1h-1zM38 66h1v1h-1zM39 66h1v1h-1zM40 66h1v1h-1zM41 66h1v1h-1zM42 66h1v1h-1zM43 66h1v1h-1zM44 66h1v1h-1zM45 66h1v1h-1zM46 66h1v1h-1zM47 66h1v1h-1z"/><path fill="#83423E" d="M48 66h1v1h-1z"/><path fill="#2A1B18" d="M49 66h1v1h-1z"/><path fill="#231815" d="M50 66h1v1h-1zM51 66h1v1h-1zM52 66h1v1h-1zM53 66h1v1h-1zM54 66h1v1h-1zM55 66h1v1h-1zM56 66h1v1h-1zM57 66h1v1h-1zM58 66h1v1h-1zM59 66h1v1h-1zM60 66h1v1h-1zM61 66h1v1h-1zM62 66h1v1h-1zM20 67h1v1h-1zM21 67h1v1h-1zM22 67h1v1h-1zM23 67h1v1h-1z"/><path fill="#AB7174" d="M24 67h1v1h-1z"/><path fill="#E99A9F" d="M25 67h1v1h-1zM26 67h1v1h-1zM27 67h1v1h-1zM28 67h1v1h-1zM29 67h1v1h-1zM30 67h1v1h-1zM31 67h1v1h-1zM32 67h1v1h-1zM33 67h1v1h-1zM34 67h1v1h-1z"/><path fill="#B76969" d="M35 67h1v1h-1z"/><path fill="#994C48" d="M36 67h1v1h-1zM37 67h1v1h-1zM38 67h1v1h-1zM39 67h1v1h-1zM40 67h1v1h-1zM41 67h1v1h-1zM42 67h1v1h-1zM43 67h1v1h-1zM44 67h1v1h-1zM45 67h1v1h-1zM46 67h1v1h-1z"/><path fill="#6D3935" d="M47 67h1v1h-1z"/><path fill="#231815" d="M48 67h1v1h-1zM49 67h1v1h-1zM50 67h1v1h-1zM51 67h1v1h-1zM52 67h1v1h-1zM53 67h1v1h-1zM54 67h1v1h-1zM55 67h1v1h-1zM56 67h1v1h-1zM57 67h1v1h-1zM20 68h1v1h-1zM21 68h1v1h-1zM22 68h1v1h-1zM23 68h1v1h-1z"/><path fill="#7A5151" d="M24 68h1v1h-1z"/><path fill="#E99A9F" d="M25 68h1v1h-1zM26 68h1v1h-1zM27 68h1v1h-1zM28 68h1v1h-1zM29 68h1v1h-1zM30 68h1v1h-1zM31 68h1v1h-1zM32 68h1v1h-1zM33 68h1v1h-1z"/><path fill="#DF9094" d="M34 68h1v1h-1z"/><path fill="#994C48" d="M35 68h1v1h-1zM36 68h1v1h-1zM37 68h1v1h-1zM38 68h1v1h-1zM39 68h1v1h-1zM40 68h1v1h-1zM41 68h1v1h-1zM42 68h1v1h-1zM43 68h1v1h-1zM44 68h1v1h-1zM45 68h1v1h-1z"/><path fill="#5E322F" d="M46 68h1v1h-1z"/><path fill="#231815" d="M47 68h1v1h-1zM48 68h1v1h-1zM49 68h1v1h-1zM50 68h1v1h-1zM51 68h1v1h-1zM52 68h1v1h-1zM53 68h1v1h-1zM20 69h1v1h-1zM21 69h1v1h-1zM22 69h1v1h-1zM23 69h1v1h-1z"/><path fill="#48302F" d="M24 69h1v1h-1z"/><path fill="#E99A9F" d="M25 69h1v1h-1zM26 69h1v1h-1zM27 69h1v1h-1zM28 69h1v1h-1zM29 69h1v1h-1zM30 69h1v1h-1zM31 69h1v1h-1zM32 69h1v1h-1zM33 69h1v1h-1z"/><path fill="#BC6E6E" d="M34 69h1v1h-1z"/><path fill="#994C48" d="M35 69h1v1h-1zM36 69h1v1h-1zM37 69h1v1h-1zM38 69h1v1h-1zM39 69h1v1h-1zM40 69h1v1h-1zM41 69h1v1h-1zM42 69h1v1h-1zM43 69h1v1h-1zM44 69h1v1h-1z"/><path fill="#4F2C28" d="M45 69h1v1h-1z"/><path fill="#231815" d="M46 69h1v1h-1zM47 69h1v1h-1zM48 69h1v1h-1zM49 69h1v1h-1zM50 69h1v1h-1zM51 69h1v1h-1zM21 70h1v1h-1zM22 70h1v1h-1zM23 70h1v1h-1zM24 70h1v1h-1z"/><path fill="#DD9296" d="M25 70h1v1h-1z"/><path fill="#E99A9F" d="M26 70h1v1h-1zM27 70h1v1h-1zM28 70h1v1h-1zM29 70h1v1h-1zM30 70h1v1h-1zM31 70h1v1h-1zM32 70h1v1h-1z"/><path fill="#E4959A" d="M33 70h1v1h-1z"/><path fill="#9E514D" d="M34 70h1v1h-1z"/><path fill="#994C48" d="M35 70h1v1h-1zM36 70h1v1h-1zM37 70h1v1h-1zM38 70h1v1h-1zM39 70h1v1h-1zM40 70h1v1h-1zM41 70h1v1h-1zM42 70h1v1h-1z"/><path fill="#924945" d="M43 70h1v1h-1z"/><path fill="#412522" d="M44 70h1v1h-1z"/><path fill="#231815" d="M45 70h1v1h-1zM46 70h1v1h-1zM47 70h1v1h-1zM48 70h1v1h-1zM49 70h1v1h-1zM50 70h1v1h-1zM21 71h1v1h-1zM22 71h1v1h-1zM23 71h1v1h-1zM24 71h1v1h-1z"/><path fill="#B87A7D" d="M25 71h1v1h-1z"/><path fill="#E99A9F" d="M26 71h1v1h-1zM27 71h1v1h-1zM28 71h1v1h-1zM29 71h1v1h-1zM30 71h1v1h-1zM31 71h1v1h-1zM32 71h1v1h-1z"/><path fill="#C67879" d="M33 71h1v1h-1z"/><path fill="#994C48" d="M34 71h1v1h-1zM35 71h1v1h-1zM36 71h1v1h-1zM37 71h1v1h-1zM38 71h1v1h-1zM39 71h1v1h-1zM40 71h1v1h-1zM41 71h1v1h-1z"/><path fill="#924945" d="M42 71h1v1h-1z"/><path fill="#39221F" d="M43 71h1v1h-1z"/><path fill="#231815" d="M44 71h1v1h-1zM45 71h1v1h-1zM46 71h1v1h-1zM47 71h1v1h-1zM48 71h1v1h-1zM49 71h1v1h-1zM21 72h1v1h-1zM22 72h1v1h-1zM23 72h1v1h-1zM24 72h1v1h-1z"/><path fill="#86595A" d="M25 72h1v1h-1z"/><path fill="#E99A9F" d="M26 72h1v1h-1zM27 72h1v1h-1zM28 72h1v1h-1zM29 72h1v1h-1zM30 72h1v1h-1zM31 72h1v1h-1zM32 72h1v1h-1z"/><path fill="#A35653" d="M33 72h1v1h-1z"/><path fill="#994C48" d="M34 72h1v1h-1zM35 72h1v1h-1zM36 72h1v1h-1zM37 72h1v1h-1zM38 72h1v1h-1zM39 72h1v1h-1zM40 72h1v1h-1z"/><path fill="#83423E" d="M41 72h1v1h-1z"/><path fill="#2A1B18" d="M42 72h1v1h-1z"/><path fill="#231815" d="M43 72h1v1h-1zM44 72h1v1h-1zM45 72h1v1h-1zM46 72h1v1h-1zM47 72h1v1h-1zM48 72h1v1h-1zM21 73h1v1h-1zM22 73h1v1h-1zM23 73h1v1h-1zM24 73h1v1h-1z"/><path fill="#553938" d="M25 73h1v1h-1z"/><path fill="#E99A9F" d="M26 73h1v1h-1zM27 73h1v1h-1zM28 73h1v1h-1zM29 73h1v1h-1zM30 73h1v1h-1zM31 73h1v1h-1z"/><path fill="#CB7D7E" d="M32 73h1v1h-1z"/><path fill="#994C48" d="M33 73h1v1h-1zM34 73h1v1h-1zM35 73h1v1h-1zM36 73h1v1h-1zM37 73h1v1h-1zM38 73h1v1h-1zM39 73h1v1h-1z"/><path fill="#743C38" d="M40 73h1v1h-1z"/><path fill="#2A1B18" d="M41 73h1v1h-1z"/><path fill="#231815" d="M42 73h1v1h-1zM43 73h1v1h-1zM44 73h1v1h-1zM45 73h1v1h-1zM46 73h1v1h-1zM22 74h1v1h-1zM23 74h1v1h-1zM24 74h1v1h-1zM25 74h1v1h-1z"/><path fill="#E99A9F" d="M26 74h1v1h-1zM27 74h1v1h-1zM28 74h1v1h-1zM29 74h1v1h-1zM30 74h1v1h-1zM31 74h1v1h-1z"/><path fill="#AD605E" d="M32 74h1v1h-1z"/><path fill="#994C48" d="M33 74h1v1h-1zM34 74h1v1h-1zM35 74h1v1h-1zM36 74h1v1h-1zM37 74h1v1h-1zM38 74h1v1h-1z"/><path fill="#6D3935" d="M39 74h1v1h-1z"/><path fill="#231815" d="M40 74h1v1h-1zM41 74h1v1h-1zM42 74h1v1h-1zM43 74h1v1h-1zM44 74h1v1h-1zM45 74h1v1h-1zM22 75h1v1h-1zM23 75h1v1h-1zM24 75h1v1h-1zM25 75h1v1h-1z"/><path fill="#B87A7D" d="M26 75h1v1h-1z"/><path fill="#E99A9F" d="M27 75h1v1h-1zM28 75h1v1h-1zM29 75h1v1h-1zM30 75h1v1h-1z"/><path fill="#DA8B8F" d="M31 75h1v1h-1z"/><path fill="#994C48" d="M32 75h1v1h-1zM33 75h1v1h-1zM34 75h1v1h-1zM35 75h1v1h-1zM36 75h1v1h-1zM37 75h1v1h-1z"/><path fill="#572F2B" d="M38 75h1v1h-1z"/><path fill="#231815" d="M39 75h1v1h-1zM40 75h1v1h-1zM41 75h1v1h-1zM42 75h1v1h-1zM43 75h1v1h-1zM44 75h1v1h-1zM22 76h1v1h-1zM23 76h1v1h-1zM24 76h1v1h-1zM25 76h1v1h-1z"/><path fill="#926163" d="M26 76h1v1h-1z"/><path fill="#E99A9F" d="M27 76h1v1h-1zM28 76h1v1h-1zM29 76h1v1h-1zM30 76h1v1h-1z"/><path fill="#B76969" d="M31 76h1v1h-1z"/><path fill="#994C48" d="M32 76h1v1h-1zM33 76h1v1h-1zM34 76h1v1h-1zM35 76h1v1h-1zM36 76h1v1h-1z"/><path fill="#4F2C28" d="M37 76h1v1h-1z"/><path fill="#231815" d="M38 76h1v1h-1zM39 76h1v1h-1zM40 76h1v1h-1zM41 76h1v1h-1zM42 76h1v1h-1zM43 76h1v1h-1zM22 77h1v1h-1zM23 77h1v1h-1zM24 77h1v1h-1zM25 77h1v1h-1z"/><path fill="#614140" d="M26 77h1v1h-1z"/><path fill="#E99A9F" d="M27 77h1v1h-1zM28 77h1v1h-1zM29 77h1v1h-1z"/><path fill="#E4959A" d="M30 77h1v1h-1z"/><path fill="#994C48" d="M31 77h1v1h-1zM32 77h1v1h-1zM33 77h1v1h-1zM34 77h1v1h-1z"/><path fill="#924945" d="M35 77h1v1h-1z"/><path fill="#39221F" d="M36 77h1v1h-1z"/><path fill="#231815" d="M37 77h1v1h-1zM38 77h1v1h-1zM39 77h1v1h-1zM40 77h1v1h-1zM41 77h1v1h-1zM42 77h1v1h-1zM23 78h1v1h-1zM24 78h1v1h-1zM25 78h1v1h-1z"/><path fill="#2F201E" d="M26 78h1v1h-1z"/><path fill="#E99A9F" d="M27 78h1v1h-1zM28 78h1v1h-1zM29 78h1v1h-1z"/><path fill="#C17374" d="M30 78h1v1h-1z"/><path fill="#994C48" d="M31 78h1v1h-1zM32 78h1v1h-1zM33 78h1v1h-1z"/><path fill="#83423E" d="M34 78h1v1h-1z"/><path fill="#39221F" d="M35 78h1v1h-1z"/><path fill="#231815" d="M36 78h1v1h-1zM37 78h1v1h-1zM38 78h1v1h-1zM39 78h1v1h-1zM40 78h1v1h-1zM41 78h1v1h-1zM23 79h1v1h-1zM24 79h1v1h-1zM25 79h1v1h-1zM26 79h1v1h-1z"/><path fill="#C48285" d="M27 79h1v1h-1z"/><path fill="#E99A9F" d="M28 79h1v1h-1zM29 79h1v1h-1z"/><path fill="#A35653" d="M30 79h1v1h-1z"/><path fill="#994C48" d="M31 79h1v1h-1zM32 79h1v1h-1z"/><path fill="#83423E" d="M33 79h1v1h-1z"/><path fill="#2A1B18" d="M34 79h1v1h-1z"/><path fill="#231815" d="M35 79h1v1h-1zM36 79h1v1h-1zM37 79h1v1h-1zM38 79h1v1h-1zM39 79h1v1h-1zM40 79h1v1h-1zM23 80h1v1h-1zM24 80h1v1h-1zM25 80h1v1h-1zM26 80h1v1h-1z"/><path fill="#9F696B" d="M27 80h1v1h-1z"/><path fill="#E99A9F" d="M28 80h1v1h-1z"/><path fill="#D08284" d="M29 80h1v1h-1z"/><path fill="#994C48" d="M30 80h1v1h-1zM31 80h1v1h-1z"/><path fill="#6D3935" d="M32 80h1v1h-1z"/><path fill="#2A1B18" d="M33 80h1v1h-1z"/><path fill="#231815" d="M34 80h1v1h-1zM35 80h1v1h-1zM36 80h1v1h-1zM37 80h1v1h-1zM38 80h1v1h-1zM23 81h1v1h-1zM24 81h1v1h-1zM25 81h1v1h-1zM26 81h1v1h-1z"/><path fill="#6D4949" d="M27 81h1v1h-1z"/><path fill="#E99A9F" d="M28 81h1v1h-1z"/><path fill="#AD605E" d="M29 81h1v1h-1z"/><path fill="#994C48" d="M30 81h1v1h-1z"/><path fill="#653532" d="M31 81h1v1h-1z"/><path fill="#231815" d="M32 81h1v1h-1zM33 81h1v1h-1zM34 81h1v1h-1zM35 81h1v1h-1zM36 81h1v1h-1zM37 81h1v1h-1zM24 82h1v1h-1zM25 82h1v1h-1zM26 82h1v1h-1z"/><path fill="#3C2826" d="M27 82h1v1h-1z"/><path fill="#DF9094" d="M28 82h1v1h-1z"/><path fill="#994C48" d="M29 82h1v1h-1z"/><path fill="#4F2C28" d="M30 82h1v1h-1z"/><path fill="#231815" d="M31 82h1v1h-1zM32 82h1v1h-1zM33 82h1v1h-1zM34 82h1v1h-1zM35 82h1v1h-1zM36 82h1v1h-1zM24 83h1v1h-1zM25 83h1v1h-1zM26 83h1v1h-1zM27 83h1v1h-1z"/><path fill="#9C5B5A" d="M28 83h1v1h-1z"/><path fill="#482825" d="M29 83h1v1h-1z"/><path fill="#231815" d="M30 83h1v1h-1zM31 83h1v1h-1zM32 83h1v1h-1zM33 83h1v1h-1zM34 83h1v1h-1zM35 83h1v1h-1zM24 84h1v1h-1zM25 84h1v1h-1zM26 84h1v1h-1zM27 84h1v1h-1z"/><path fill="#2A1B18" d="M28 84h1v1h-1z"/><path fill="#231815" d="M29 84h1v1h-1zM30 84h1v1h-1zM31 84h1v1h-1zM32 84h1v1h-1zM33 84h1v1h-1zM34 84h1v1h-1zM24 85h1v1h-1zM25 85h1v1h-1zM26 85h1v1h-1zM27 85h1v1h-1zM28 85h1v1h-1zM29 85h1v1h-1zM30 85h1v1h-1zM31 85h1v1h-1zM32 85h1v1h-1zM33 85h1v1h-1zM24 86h1v1h-1zM25 86h1v1h-1zM26 86h1v1h-1zM27 86h1v1h-1zM28 86h1v1h-1zM29 86h1v1h-1zM30 86h1v1h-1zM31 86h1v1h-1zM25 87h1v1h-1zM26 87h1v1h-1zM27 87h1v1h-1zM28 87h1v1h-1zM29 87h1v1h-1zM30 87h1v1h-1zM25 88h1v1h-1zM26 88h1v1h-1zM27 88h1v1h-1zM28 88h1v1h-1zM29 88h1v1h-1zM25 89h1v1h-1zM26 89h1v1h-1zM27 89h1v1h-1zM28 89h1v1h-1z"/></svg>