<svg baseProfile="full" height="86" width="90" xmlns="http://www.w3.org/2000/svg"><path fill="#231815" d="M56 0h1v1h-1zM57 0h1v1h-1zM58 0h1v1h-1zM59 0h1v1h-1zM60 0h1v1h-1zM61 0h1v1h-1zM62 0h1v1h-1zM63 0h1v1h-1zM64 0h1v1h-1zM65 0h1v1h-1zM54 1h1v1h-1zM55 1h1v1h-1zM56 1h1v1h-1zM57 1h1v1h-1zM58 1h1v1h-1zM59 1h1v1h-1zM60 1h1v1h-1zM61 1h1v1h-1zM62 1h1v1h-1zM63 1h1v1h-1zM64 1h1v1h-1zM65 1h1v1h-1zM66 1h1v1h-1zM67 1h1v1h-1zM53 2h1v1h-1zM54 2h1v1h-1zM55 2h1v1h-1zM56 2h1v1h-1zM57 2h1v1h-1zM58 2h1v1h-1zM59 2h1v1h-1zM60 2h1v1h-1zM61 2h1v1h-1zM62 2h1v1h-1zM63 2h1v1h-1zM64 2h1v1h-1zM65 2h1v1h-1zM66 2h1v1h-1zM67 2h1v1h-1zM68 2h1v1h-1zM69 2h1v1h-1zM52 3h1v1h-1zM53 3h1v1h-1zM54 3h1v1h-1zM55 3h1v1h-1zM56 3h1v1h-1z"/><path fill="#2B2319" d="M57 3h1v1h-1z"/><path fill="#445220" d="M58 3h1v1h-1z"/><path fill="#598025" d="M59 3h1v1h-1z"/><path fill="#5E8926" d="M60 3h1v1h-1zM61 3h1v1h-1z"/><path fill="#4C7529" d="M62 3h1v1h-1z"/><path fill="#324A24" d="M63 3h1v1h-1z"/><path fill="#272619" d="M64 3h1v1h-1z"/><path fill="#231815" d="M65 3h1v1h-1zM66 3h1v1h-1zM67 3h1v1h-1zM68 3h1v1h-1zM69 3h1v1h-1zM70 3h1v1h-1zM52 4h1v1h-1zM53 4h1v1h-1zM54 4h1v1h-1zM55 4h1v1h-1z"/><path fill="#677134" d="M56 4h1v1h-1z"/><path fill="#A2BE4E" d="M57 4h1v1h-1z"/><path fill="#80B636" d="M58 4h1v1h-1z"/><path fill="#72AF2C" d="M59 4h1v1h-1zM60 4h1v1h-1zM61 4h1v1h-1z"/><path fill="#5C9D32" d="M62 4h1v1h-1z"/><path fill="#468B38" d="M63 4h1v1h-1zM64 4h1v1h-1z"/><path fill="#3D6E2F" d="M65 4h1v1h-1z"/><path fill="#272619" d="M66 4h1v1h-1z"/><path fill="#231815" d="M67 4h1v1h-1zM68 4h1v1h-1zM69 4h1v1h-1zM70 4h1v1h-1zM51 5h1v1h-1zM52 5h1v1h-1zM53 5h1v1h-1zM54 5h1v1h-1z"/><path fill="#77873B" d="M55 5h1v1h-1z"/><path fill="#AAC952" d="M56 5h1v1h-1zM57 5h1v1h-1z"/><path fill="#80B636" d="M58 5h1v1h-1z"/><path fill="#72AF2C" d="M59 5h1v1h-1zM60 5h1v1h-1zM61 5h1v1h-1z"/><path fill="#5C9D32" d="M62 5h1v1h-1z"/><path fill="#468B38" d="M63 5h1v1h-1zM64 5h1v1h-1zM65 5h1v1h-1z"/><path fill="#448436" d="M66 5h1v1h-1z"/><path fill="#2A2E1C" d="M67 5h1v1h-1z"/><path fill="#231815" d="M68 5h1v1h-1zM69 5h1v1h-1zM70 5h1v1h-1zM71 5h1v1h-1zM51 6h1v1h-1zM52 6h1v1h-1zM53 6h1v1h-1z"/><path fill="#3C3920" d="M54 6h1v1h-1z"/><path fill="#AAC952" d="M55 6h1v1h-1zM56 6h1v1h-1zM57 6h1v1h-1z"/><path fill="#76B12E" d="M58 6h1v1h-1z"/><path fill="#72AF2C" d="M59 6h1v1h-1zM60 6h1v1h-1zM61 6h1v1h-1z"/><path fill="#5C9D32" d="M62 6h1v1h-1z"/><path fill="#468B38" d="M63 6h1v1h-1zM64 6h1v1h-1zM65 6h1v1h-1zM66 6h1v1h-1z"/><path fill="#448436" d="M67 6h1v1h-1z"/><path fill="#272619" d="M68 6h1v1h-1z"/><path fill="#231815" d="M69 6h1v1h-1zM70 6h1v1h-1zM71 6h1v1h-1zM72 6h1v1h-1zM51 7h1v1h-1zM52 7h1v1h-1zM53 7h1v1h-1z"/><path fill="#454424" d="M54 7h1v1h-1z"/><path fill="#AAC952" d="M55 7h1v1h-1zM56 7h1v1h-1zM57 7h1v1h-1z"/><path fill="#72AF2C" d="M58 7h1v1h-1zM59 7h1v1h-1zM60 7h1v1h-1zM61 7h1v1h-1z"/><path fill="#5C9D32" d="M62 7h1v1h-1z"/><path fill="#468B38" d="M63 7h1v1h-1zM64 7h1v1h-1zM65 7h1v1h-1zM66 7h1v1h-1zM67 7h1v1h-1z"/><path fill="#3D6E2F" d="M68 7h1v1h-1z"/><path fill="#231815" d="M69 7h1v1h-1zM70 7h1v1h-1zM71 7h1v1h-1zM72 7h1v1h-1zM51 8h1v1h-1zM52 8h1v1h-1zM53 8h1v1h-1z"/><path fill="#677134" d="M54 8h1v1h-1z"/><path fill="#AAC952" d="M55 8h1v1h-1zM56 8h1v1h-1zM57 8h1v1h-1z"/><path fill="#72AF2C" d="M58 8h1v1h-1zM59 8h1v1h-1zM60 8h1v1h-1zM61 8h1v1h-1z"/><path fill="#519435" d="M62 8h1v1h-1z"/><path fill="#468B38" d="M63 8h1v1h-1zM64 8h1v1h-1zM65 8h1v1h-1zM66 8h1v1h-1zM67 8h1v1h-1zM68 8h1v1h-1z"/><path fill="#2A2E1C" d="M69 8h1v1h-1z"/><path fill="#231815" d="M70 8h1v1h-1zM71 8h1v1h-1zM72 8h1v1h-1zM51 9h1v1h-1zM52 9h1v1h-1zM53 9h1v1h-1z"/><path fill="#80923F" d="M54 9h1v1h-1z"/><path fill="#AAC952" d="M55 9h1v1h-1zM56 9h1v1h-1z"/><path fill="#A3C64D" d="M57 9h1v1h-1z"/><path fill="#72AF2C" d="M58 9h1v1h-1zM59 9h1v1h-1zM60 9h1v1h-1zM61 9h1v1h-1z"/><path fill="#4E9236" d="M62 9h1v1h-1z"/><path fill="#468B38" d="M63 9h1v1h-1zM64 9h1v1h-1zM65 9h1v1h-1zM66 9h1v1h-1zM67 9h1v1h-1zM68 9h1v1h-1z"/><path fill="#375929" d="M69 9h1v1h-1z"/><path fill="#231815" d="M70 9h1v1h-1zM71 9h1v1h-1zM72 9h1v1h-1zM73 9h1v1h-1zM50 10h1v1h-1zM51 10h1v1h-1zM52 10h1v1h-1zM53 10h1v1h-1z"/><path fill="#99B34A" d="M54 10h1v1h-1z"/><path fill="#AAC952" d="M55 10h1v1h-1zM56 10h1v1h-1z"/><path fill="#9CC349" d="M57 10h1v1h-1z"/><path fill="#72AF2C" d="M58 10h1v1h-1zM59 10h1v1h-1zM60 10h1v1h-1zM61 10h1v1h-1z"/><path fill="#468B38" d="M62 10h1v1h-1zM63 10h1v1h-1zM64 10h1v1h-1zM65 10h1v1h-1zM66 10h1v1h-1zM67 10h1v1h-1zM68 10h1v1h-1z"/><path fill="#427D34" d="M69 10h1v1h-1z"/><path fill="#231815" d="M70 10h1v1h-1zM71 10h1v1h-1zM72 10h1v1h-1zM73 10h1v1h-1zM50 11h1v1h-1zM51 11h1v1h-1zM52 11h1v1h-1z"/><path fill="#2B2319" d="M53 11h1v1h-1z"/><path fill="#AAC952" d="M54 11h1v1h-1zM55 11h1v1h-1zM56 11h1v1h-1z"/><path fill="#8EBC3F" d="M57 11h1v1h-1z"/><path fill="#72AF2C" d="M58 11h1v1h-1zM59 11h1v1h-1zM60 11h1v1h-1z"/><path fill="#67A62F" d="M61 11h1v1h-1z"/><path fill="#468B38" d="M62 11h1v1h-1zM63 11h1v1h-1zM64 11h1v1h-1zM65 11h1v1h-1zM66 11h1v1h-1zM67 11h1v1h-1zM68 11h1v1h-1zM69 11h1v1h-1z"/><path fill="#251F17" d="M70 11h1v1h-1z"/><path fill="#231815" d="M71 11h1v1h-1zM72 11h1v1h-1zM73 11h1v1h-1zM74 11h1v1h-1zM75 11h1v1h-1zM76 11h1v1h-1zM77 11h1v1h-1zM78 11h1v1h-1zM79 11h1v1h-1zM80 11h1v1h-1zM81 11h1v1h-1zM82 11h1v1h-1zM83 11h1v1h-1zM84 11h1v1h-1zM85 11h1v1h-1zM50 12h1v1h-1zM51 12h1v1h-1zM52 12h1v1h-1z"/><path fill="#454424" d="M53 12h1v1h-1z"/><path fill="#AAC952" d="M54 12h1v1h-1zM55 12h1v1h-1zM56 12h1v1h-1z"/><path fill="#7DB433" d="M57 12h1v1h-1z"/><path fill="#72AF2C" d="M58 12h1v1h-1zM59 12h1v1h-1zM60 12h1v1h-1z"/><path fill="#599B33" d="M61 12h1v1h-1z"/><path fill="#468B38" d="M62 12h1v1h-1zM63 12h1v1h-1zM64 12h1v1h-1zM65 12h1v1h-1zM66 12h1v1h-1z"/><path fill="#3F8337" d="M67 12h1v1h-1z"/><path fill="#327534" d="M68 12h1v1h-1z"/><path fill="#286A32" d="M69 12h1v1h-1z"/><path fill="#222A1C" d="M70 12h1v1h-1z"/><path fill="#231815" d="M71 12h1v1h-1zM72 12h1v1h-1zM73 12h1v1h-1zM74 12h1v1h-1zM75 12h1v1h-1zM76 12h1v1h-1zM77 12h1v1h-1zM78 12h1v1h-1zM79 12h1v1h-1zM80 12h1v1h-1zM81 12h1v1h-1zM82 12h1v1h-1zM83 12h1v1h-1zM84 12h1v1h-1zM85 12h1v1h-1zM86 12h1v1h-1zM50 13h1v1h-1zM51 13h1v1h-1zM52 13h1v1h-1z"/><path fill="#677134" d="M53 13h1v1h-1z"/><path fill="#AAC952" d="M54 13h1v1h-1zM55 13h1v1h-1z"/><path fill="#A3C64D" d="M56 13h1v1h-1z"/><path fill="#72AF2C" d="M57 13h1v1h-1zM58 13h1v1h-1zM59 13h1v1h-1zM60 13h1v1h-1z"/><path fill="#4C9037" d="M61 13h1v1h-1z"/><path fill="#468B38" d="M62 13h1v1h-1zM63 13h1v1h-1z"/><path fill="#3F8337" d="M64 13h1v1h-1z"/><path fill="#307234" d="M65 13h1v1h-1z"/><path fill="#236531" d="M66 13h1v1h-1z"/><path fill="#1E5F30" d="M67 13h1v1h-1zM68 13h1v1h-1zM69 13h1v1h-1z"/><path fill="#212E1D" d="M70 13h1v1h-1z"/><path fill="#231815" d="M71 13h1v1h-1zM72 13h1v1h-1zM73 13h1v1h-1zM74 13h1v1h-1zM75 13h1v1h-1zM76 13h1v1h-1zM77 13h1v1h-1zM78 13h1v1h-1zM79 13h1v1h-1zM80 13h1v1h-1zM81 13h1v1h-1zM82 13h1v1h-1zM83 13h1v1h-1zM84 13h1v1h-1zM85 13h1v1h-1zM86 13h1v1h-1zM87 13h1v1h-1zM49 14h1v1h-1zM50 14h1v1h-1zM51 14h1v1h-1zM52 14h1v1h-1z"/><path fill="#889D43" d="M53 14h1v1h-1z"/><path fill="#AAC952" d="M54 14h1v1h-1zM55 14h1v1h-1z"/><path fill="#84B738" d="M56 14h1v1h-1z"/><path fill="#72AF2C" d="M57 14h1v1h-1zM58 14h1v1h-1zM59 14h1v1h-1z"/><path fill="#67A62F" d="M60 14h1v1h-1z"/><path fill="#468B38" d="M61 14h1v1h-1z"/><path fill="#377B35" d="M62 14h1v1h-1z"/><path fill="#286A32" d="M63 14h1v1h-1z"/><path fill="#1E5F30" d="M64 14h1v1h-1zM65 14h1v1h-1zM66 14h1v1h-1zM67 14h1v1h-1zM68 14h1v1h-1zM69 14h1v1h-1z"/><path fill="#1F522B" d="M70 14h1v1h-1z"/><path fill="#22251A" d="M71 14h1v1h-1z"/><path fill="#2B2C1C" d="M72 14h1v1h-1z"/><path fill="#454424" d="M73 14h1v1h-1zM74 14h1v1h-1z"/><path fill="#565A2C" d="M75 14h1v1h-1z"/><path fill="#677134" d="M76 14h1v1h-1zM77 14h1v1h-1zM78 14h1v1h-1z"/><path fill="#889D43" d="M79 14h1v1h-1zM80 14h1v1h-1zM81 14h1v1h-1z"/><path fill="#6F7C37" d="M82 14h1v1h-1z"/><path fill="#5E6530" d="M83 14h1v1h-1z"/><path fill="#2B2319" d="M84 14h1v1h-1z"/><path fill="#231815" d="M85 14h1v1h-1zM86 14h1v1h-1zM87 14h1v1h-1zM88 14h1v1h-1zM49 15h1v1h-1zM50 15h1v1h-1zM51 15h1v1h-1zM52 15h1v1h-1z"/><path fill="#AAC952" d="M53 15h1v1h-1zM54 15h1v1h-1z"/><path fill="#95BF44" d="M55 15h1v1h-1z"/><path fill="#72AF2C" d="M56 15h1v1h-1zM57 15h1v1h-1zM58 15h1v1h-1zM59 15h1v1h-1z"/><path fill="#428432" d="M60 15h1v1h-1z"/><path fill="#236531" d="M61 15h1v1h-1z"/><path fill="#1E5F30" d="M62 15h1v1h-1zM63 15h1v1h-1zM64 15h1v1h-1zM65 15h1v1h-1zM66 15h1v1h-1zM67 15h1v1h-1z"/><path fill="#276632" d="M68 15h1v1h-1z"/><path fill="#53873D" d="M69 15h1v1h-1z"/><path fill="#76A145" d="M70 15h1v1h-1z"/><path fill="#99BC4E" d="M71 15h1v1h-1z"/><path fill="#AAC952" d="M72 15h1v1h-1zM73 15h1v1h-1zM74 15h1v1h-1zM75 15h1v1h-1zM76 15h1v1h-1zM77 15h1v1h-1zM78 15h1v1h-1zM79 15h1v1h-1zM80 15h1v1h-1zM81 15h1v1h-1zM82 15h1v1h-1zM83 15h1v1h-1z"/><path fill="#889D43" d="M84 15h1v1h-1z"/><path fill="#231815" d="M85 15h1v1h-1zM86 15h1v1h-1zM87 15h1v1h-1zM88 15h1v1h-1zM49 16h1v1h-1zM50 16h1v1h-1zM51 16h1v1h-1z"/><path fill="#454424" d="M52 16h1v1h-1z"/><path fill="#AAC952" d="M53 16h1v1h-1z"/><path fill="#95BF44" d="M54 16h1v1h-1z"/><path fill="#72AF2C" d="M55 16h1v1h-1zM56 16h1v1h-1zM57 16h1v1h-1z"/><path fill="#58962D" d="M58 16h1v1h-1z"/><path fill="#296930" d="M59 16h1v1h-1z"/><path fill="#1E5F30" d="M60 16h1v1h-1zM61 16h1v1h-1zM62 16h1v1h-1zM63 16h1v1h-1zM64 16h1v1h-1z"/><path fill="#276632" d="M65 16h1v1h-1z"/><path fill="#53873D" d="M66 16h1v1h-1z"/><path fill="#87AF4A" d="M67 16h1v1h-1z"/><path fill="#AAC952" d="M68 16h1v1h-1zM69 16h1v1h-1zM70 16h1v1h-1zM71 16h1v1h-1zM72 16h1v1h-1zM73 16h1v1h-1zM74 16h1v1h-1zM75 16h1v1h-1zM76 16h1v1h-1zM77 16h1v1h-1zM78 16h1v1h-1zM79 16h1v1h-1zM80 16h1v1h-1zM81 16h1v1h-1z"/><path fill="#9CC349" d="M82 16h1v1h-1z"/><path fill="#95BF44" d="M83 16h1v1h-1z"/><path fill="#8EBC3F" d="M84 16h1v1h-1z"/><path fill="#3A3F1D" d="M85 16h1v1h-1z"/><path fill="#231815" d="M86 16h1v1h-1zM87 16h1v1h-1zM88 16h1v1h-1zM49 17h1v1h-1zM50 17h1v1h-1zM51 17h1v1h-1z"/><path fill="#677134" d="M52 17h1v1h-1z"/><path fill="#8BBA3D" d="M53 17h1v1h-1z"/><path fill="#72AF2C" d="M54 17h1v1h-1zM55 17h1v1h-1z"/><path fill="#68A52D" d="M56 17h1v1h-1z"/><path fill="#33732F" d="M57 17h1v1h-1z"/><path fill="#1E5F30" d="M58 17h1v1h-1zM59 17h1v1h-1zM60 17h1v1h-1zM61 17h1v1h-1zM62 17h1v1h-1z"/><path fill="#306C34" d="M63 17h1v1h-1z"/><path fill="#76A145" d="M64 17h1v1h-1z"/><path fill="#A1C250" d="M65 17h1v1h-1z"/><path fill="#AAC952" d="M66 17h1v1h-1zM67 17h1v1h-1zM68 17h1v1h-1zM69 17h1v1h-1zM70 17h1v1h-1zM71 17h1v1h-1zM72 17h1v1h-1zM73 17h1v1h-1zM74 17h1v1h-1zM75 17h1v1h-1z"/><path fill="#A3C64D" d="M76 17h1v1h-1z"/><path fill="#99C146" d="M77 17h1v1h-1z"/><path fill="#8EBC3F" d="M78 17h1v1h-1z"/><path fill="#80B636" d="M79 17h1v1h-1z"/><path fill="#76B12E" d="M80 17h1v1h-1z"/><path fill="#72AF2C" d="M81 17h1v1h-1zM82 17h1v1h-1zM83 17h1v1h-1zM84 17h1v1h-1z"/><path fill="#547623" d="M85 17h1v1h-1z"/><path fill="#231815" d="M86 17h1v1h-1zM87 17h1v1h-1zM88 17h1v1h-1zM89 17h1v1h-1zM48 18h1v1h-1zM49 18h1v1h-1zM50 18h1v1h-1zM51 18h1v1h-1z"/><path fill="#67942A" d="M52 18h1v1h-1z"/><path fill="#72AF2C" d="M53 18h1v1h-1zM54 18h1v1h-1z"/><path fill="#48872E" d="M55 18h1v1h-1z"/><path fill="#1E5F30" d="M56 18h1v1h-1zM57 18h1v1h-1zM58 18h1v1h-1zM59 18h1v1h-1zM60 18h1v1h-1z"/><path fill="#306C34" d="M61 18h1v1h-1z"/><path fill="#76A145" d="M62 18h1v1h-1z"/><path fill="#AAC952" d="M63 18h1v1h-1zM64 18h1v1h-1zM65 18h1v1h-1zM66 18h1v1h-1zM67 18h1v1h-1zM68 18h1v1h-1zM69 18h1v1h-1zM70 18h1v1h-1zM71 18h1v1h-1z"/><path fill="#A0C44B" d="M72 18h1v1h-1z"/><path fill="#92BE41" d="M73 18h1v1h-1z"/><path fill="#84B738" d="M74 18h1v1h-1z"/><path fill="#76B12E" d="M75 18h1v1h-1z"/><path fill="#72AF2C" d="M76 18h1v1h-1zM77 18h1v1h-1zM78 18h1v1h-1zM79 18h1v1h-1zM80 18h1v1h-1zM81 18h1v1h-1zM82 18h1v1h-1zM83 18h1v1h-1zM84 18h1v1h-1z"/><path fill="#6DA62B" d="M85 18h1v1h-1z"/><path fill="#231815" d="M86 18h1v1h-1zM87 18h1v1h-1zM88 18h1v1h-1zM89 18h1v1h-1zM48 19h1v1h-1zM49 19h1v1h-1zM50 19h1v1h-1z"/><path fill="#282116" d="M51 19h1v1h-1z"/><path fill="#72AF2C" d="M52 19h1v1h-1z"/><path fill="#62A02D" d="M53 19h1v1h-1z"/><path fill="#2E6E2F" d="M54 19h1v1h-1z"/><path fill="#1E5F30" d="M55 19h1v1h-1zM56 19h1v1h-1zM57 19h1v1h-1zM58 19h1v1h-1z"/><path fill="#276632" d="M59 19h1v1h-1z"/><path fill="#76A145" d="M60 19h1v1h-1z"/><path fill="#AAC952" d="M61 19h1v1h-1zM62 19h1v1h-1zM63 19h1v1h-1zM64 19h1v1h-1zM65 19h1v1h-1zM66 19h1v1h-1zM67 19h1v1h-1z"/><path fill="#A7C750" d="M68 19h1v1h-1z"/><path fill="#95BF44" d="M69 19h1v1h-1z"/><path fill="#87B93A" d="M70 19h1v1h-1z"/><path fill="#76B12E" d="M71 19h1v1h-1z"/><path fill="#72AF2C" d="M72 19h1v1h-1zM73 19h1v1h-1zM74 19h1v1h-1zM75 19h1v1h-1zM76 19h1v1h-1zM77 19h1v1h-1zM78 19h1v1h-1zM79 19h1v1h-1zM80 19h1v1h-1zM81 19h1v1h-1zM82 19h1v1h-1zM83 19h1v1h-1zM84 19h1v1h-1zM85 19h1v1h-1z"/><path fill="#323419" d="M86 19h1v1h-1z"/><path fill="#231815" d="M87 19h1v1h-1zM88 19h1v1h-1zM89 19h1v1h-1zM48 20h1v1h-1zM49 20h1v1h-1zM50 20h1v1h-1z"/><path fill="#3C471C" d="M51 20h1v1h-1z"/><path fill="#48872E" d="M52 20h1v1h-1z"/><path fill="#1E5F30" d="M53 20h1v1h-1zM54 20h1v1h-1zM55 20h1v1h-1zM56 20h1v1h-1zM57 20h1v1h-1z"/><path fill="#5B8D3F" d="M58 20h1v1h-1z"/><path fill="#A1C250" d="M59 20h1v1h-1z"/><path fill="#AAC952" d="M60 20h1v1h-1zM61 20h1v1h-1zM62 20h1v1h-1zM63 20h1v1h-1zM64 20h1v1h-1z"/><path fill="#A7C750" d="M65 20h1v1h-1z"/><path fill="#95BF44" d="M66 20h1v1h-1z"/><path fill="#84B738" d="M67 20h1v1h-1z"/><path fill="#72AF2C" d="M68 20h1v1h-1zM69 20h1v1h-1zM70 20h1v1h-1zM71 20h1v1h-1zM72 20h1v1h-1zM73 20h1v1h-1zM74 20h1v1h-1zM75 20h1v1h-1zM76 20h1v1h-1zM77 20h1v1h-1zM78 20h1v1h-1zM79 20h1v1h-1zM80 20h1v1h-1zM81 20h1v1h-1zM82 20h1v1h-1zM83 20h1v1h-1zM84 20h1v1h-1zM85 20h1v1h-1z"/><path fill="#41511E" d="M86 20h1v1h-1z"/><path fill="#231815" d="M87 20h1v1h-1zM88 20h1v1h-1zM89 20h1v1h-1zM47 21h1v1h-1zM48 21h1v1h-1zM49 21h1v1h-1zM50 21h1v1h-1z"/><path fill="#254926" d="M51 21h1v1h-1z"/><path fill="#1E5F30" d="M52 21h1v1h-1zM53 21h1v1h-1zM54 21h1v1h-1zM55 21h1v1h-1z"/><path fill="#387336" d="M56 21h1v1h-1z"/><path fill="#90B54C" d="M57 21h1v1h-1z"/><path fill="#AAC952" d="M58 21h1v1h-1zM59 21h1v1h-1zM60 21h1v1h-1zM61 21h1v1h-1zM62 21h1v1h-1z"/><path fill="#9CC349" d="M63 21h1v1h-1z"/><path fill="#87B93A" d="M64 21h1v1h-1z"/><path fill="#72AF2C" d="M65 21h1v1h-1zM66 21h1v1h-1zM67 21h1v1h-1zM68 21h1v1h-1zM69 21h1v1h-1zM70 21h1v1h-1zM71 21h1v1h-1zM72 21h1v1h-1zM73 21h1v1h-1zM74 21h1v1h-1zM75 21h1v1h-1zM76 21h1v1h-1zM77 21h1v1h-1zM78 21h1v1h-1zM79 21h1v1h-1zM80 21h1v1h-1zM81 21h1v1h-1zM82 21h1v1h-1zM83 21h1v1h-1zM84 21h1v1h-1zM85 21h1v1h-1z"/><path fill="#4B6421" d="M86 21h1v1h-1z"/><path fill="#231815" d="M87 21h1v1h-1zM88 21h1v1h-1zM89 21h1v1h-1zM47 22h1v1h-1zM48 22h1v1h-1zM49 22h1v1h-1zM50 22h1v1h-1z"/><path fill="#1F562D" d="M51 22h1v1h-1z"/><path fill="#1E5F30" d="M52 22h1v1h-1zM53 22h1v1h-1zM54 22h1v1h-1z"/><path fill="#649441" d="M55 22h1v1h-1z"/><path fill="#AAC952" d="M56 22h1v1h-1zM57 22h1v1h-1zM58 22h1v1h-1zM59 22h1v1h-1z"/><path fill="#A7C750" d="M60 22h1v1h-1z"/><path fill="#95BF44" d="M61 22h1v1h-1z"/><path fill="#79B231" d="M62 22h1v1h-1z"/><path fill="#72AF2C" d="M63 22h1v1h-1zM64 22h1v1h-1zM65 22h1v1h-1zM66 22h1v1h-1zM67 22h1v1h-1zM68 22h1v1h-1zM69 22h1v1h-1zM70 22h1v1h-1zM71 22h1v1h-1zM72 22h1v1h-1zM73 22h1v1h-1zM74 22h1v1h-1zM75 22h1v1h-1zM76 22h1v1h-1zM77 22h1v1h-1zM78 22h1v1h-1zM79 22h1v1h-1zM80 22h1v1h-1zM81 22h1v1h-1zM82 22h1v1h-1z"/><path fill="#6FAD2D" d="M83 22h1v1h-1z"/><path fill="#62A231" d="M84 22h1v1h-1z"/><path fill="#549634" d="M85 22h1v1h-1z"/><path fill="#375426" d="M86 22h1v1h-1z"/><path fill="#231815" d="M87 22h1v1h-1zM88 22h1v1h-1zM89 22h1v1h-1zM47 23h1v1h-1zM48 23h1v1h-1zM49 23h1v1h-1z"/><path fill="#22251A" d="M50 23h1v1h-1z"/><path fill="#1E5F30" d="M51 23h1v1h-1zM52 23h1v1h-1z"/><path fill="#306C34" d="M53 23h1v1h-1z"/><path fill="#90B54C" d="M54 23h1v1h-1z"/><path fill="#AAC952" d="M55 23h1v1h-1zM56 23h1v1h-1zM57 23h1v1h-1z"/><path fill="#A7C750" d="M58 23h1v1h-1z"/><path fill="#8EBC3F" d="M59 23h1v1h-1z"/><path fill="#76B12E" d="M60 23h1v1h-1z"/><path fill="#72AF2C" d="M61 23h1v1h-1zM62 23h1v1h-1zM63 23h1v1h-1zM64 23h1v1h-1zM65 23h1v1h-1zM66 23h1v1h-1zM67 23h1v1h-1zM68 23h1v1h-1zM69 23h1v1h-1zM70 23h1v1h-1zM71 23h1v1h-1zM72 23h1v1h-1zM73 23h1v1h-1zM74 23h1v1h-1zM75 23h1v1h-1zM76 23h1v1h-1zM77 23h1v1h-1zM78 23h1v1h-1zM79 23h1v1h-1z"/><path fill="#6DAB2E" d="M80 23h1v1h-1z"/><path fill="#5F9F31" d="M81 23h1v1h-1z"/><path fill="#4E9236" d="M82 23h1v1h-1z"/><path fill="#468B38" d="M83 23h1v1h-1zM84 23h1v1h-1zM85 23h1v1h-1z"/><path fill="#355227" d="M86 23h1v1h-1z"/><path fill="#231815" d="M87 23h1v1h-1zM88 23h1v1h-1zM89 23h1v1h-1zM47 24h1v1h-1zM48 24h1v1h-1zM49 24h1v1h-1z"/><path fill="#213721" d="M50 24h1v1h-1z"/><path fill="#1E5F30" d="M51 24h1v1h-1z"/><path fill="#53873D" d="M52 24h1v1h-1z"/><path fill="#A1C250" d="M53 24h1v1h-1z"/><path fill="#AAC952" d="M54 24h1v1h-1zM55 24h1v1h-1z"/><path fill="#A7C750" d="M56 24h1v1h-1z"/><path fill="#8EBC3F" d="M57 24h1v1h-1z"/><path fill="#76B12E" d="M58 24h1v1h-1z"/><path fill="#72AF2C" d="M59 24h1v1h-1zM60 24h1v1h-1zM61 24h1v1h-1zM62 24h1v1h-1zM63 24h1v1h-1zM64 24h1v1h-1zM65 24h1v1h-1zM66 24h1v1h-1zM67 24h1v1h-1zM68 24h1v1h-1zM69 24h1v1h-1zM70 24h1v1h-1zM71 24h1v1h-1zM72 24h1v1h-1zM73 24h1v1h-1zM74 24h1v1h-1zM75 24h1v1h-1zM76 24h1v1h-1z"/><path fill="#6FAD2D" d="M77 24h1v1h-1z"/><path fill="#62A231" d="M78 24h1v1h-1z"/><path fill="#4E9236" d="M79 24h1v1h-1z"/><path fill="#468B38" d="M80 24h1v1h-1zM81 24h1v1h-1zM82 24h1v1h-1zM83 24h1v1h-1zM84 24h1v1h-1zM85 24h1v1h-1z"/><path fill="#324A24" d="M86 24h1v1h-1z"/><path fill="#231815" d="M87 24h1v1h-1zM88 24h1v1h-1zM89 24h1v1h-1zM46 25h1v1h-1zM47 25h1v1h-1zM48 25h1v1h-1zM49 25h1v1h-1z"/><path fill="#1F522B" d="M50 25h1v1h-1z"/><path fill="#76A145" d="M51 25h1v1h-1z"/><path fill="#AAC952" d="M52 25h1v1h-1zM53 25h1v1h-1zM54 25h1v1h-1z"/><path fill="#95BF44" d="M55 25h1v1h-1z"/><path fill="#76B12E" d="M56 25h1v1h-1z"/><path fill="#72AF2C" d="M57 25h1v1h-1zM58 25h1v1h-1zM59 25h1v1h-1zM60 25h1v1h-1zM61 25h1v1h-1zM62 25h1v1h-1zM63 25h1v1h-1zM64 25h1v1h-1zM65 25h1v1h-1zM66 25h1v1h-1zM67 25h1v1h-1zM68 25h1v1h-1zM69 25h1v1h-1zM70 25h1v1h-1zM71 25h1v1h-1zM72 25h1v1h-1zM73 25h1v1h-1zM74 25h1v1h-1z"/><path fill="#64A430" d="M75 25h1v1h-1z"/><path fill="#579934" d="M76 25h1v1h-1z"/><path fill="#468B38" d="M77 25h1v1h-1zM78 25h1v1h-1zM79 25h1v1h-1zM80 25h1v1h-1zM81 25h1v1h-1zM82 25h1v1h-1zM83 25h1v1h-1zM84 25h1v1h-1zM85 25h1v1h-1z"/><path fill="#2A2E1C" d="M86 25h1v1h-1z"/><path fill="#231815" d="M87 25h1v1h-1zM88 25h1v1h-1zM89 25h1v1h-1zM45 26h1v1h-1zM46 26h1v1h-1zM47 26h1v1h-1zM48 26h1v1h-1z"/><path fill="#2B281B" d="M49 26h1v1h-1z"/><path fill="#90B54C" d="M50 26h1v1h-1z"/><path fill="#AAC952" d="M51 26h1v1h-1zM52 26h1v1h-1z"/><path fill="#A0C44B" d="M53 26h1v1h-1z"/><path fill="#80B636" d="M54 26h1v1h-1z"/><path fill="#72AF2C" d="M55 26h1v1h-1zM56 26h1v1h-1zM57 26h1v1h-1zM58 26h1v1h-1zM59 26h1v1h-1zM60 26h1v1h-1zM61 26h1v1h-1zM62 26h1v1h-1zM63 26h1v1h-1zM64 26h1v1h-1zM65 26h1v1h-1zM66 26h1v1h-1zM67 26h1v1h-1zM68 26h1v1h-1zM69 26h1v1h-1zM70 26h1v1h-1zM71 26h1v1h-1z"/><path fill="#6FAD2D" d="M72 26h1v1h-1z"/><path fill="#5F9F31" d="M73 26h1v1h-1z"/><path fill="#4C9037" d="M74 26h1v1h-1z"/><path fill="#468B38" d="M75 26h1v1h-1zM76 26h1v1h-1zM77 26h1v1h-1zM78 26h1v1h-1zM79 26h1v1h-1zM80 26h1v1h-1zM81 26h1v1h-1zM82 26h1v1h-1zM83 26h1v1h-1zM84 26h1v1h-1z"/><path fill="#3D6E2F" d="M85 26h1v1h-1z"/><path fill="#231815" d="M86 26h1v1h-1zM87 26h1v1h-1zM88 26h1v1h-1zM89 26h1v1h-1zM44 27h1v1h-1zM45 27h1v1h-1zM46 27h1v1h-1zM47 27h1v1h-1z"/><path fill="#2B2319" d="M48 27h1v1h-1z"/><path fill="#91A847" d="M49 27h1v1h-1z"/><path fill="#AAC952" d="M50 27h1v1h-1z"/><path fill="#A7C750" d="M51 27h1v1h-1z"/><path fill="#8BBA3D" d="M52 27h1v1h-1z"/><path fill="#72AF2C" d="M53 27h1v1h-1zM54 27h1v1h-1zM55 27h1v1h-1zM56 27h1v1h-1zM57 27h1v1h-1zM58 27h1v1h-1zM59 27h1v1h-1zM60 27h1v1h-1zM61 27h1v1h-1zM62 27h1v1h-1zM63 27h1v1h-1zM64 27h1v1h-1zM65 27h1v1h-1zM66 27h1v1h-1zM67 27h1v1h-1zM68 27h1v1h-1zM69 27h1v1h-1z"/><path fill="#6DAB2E" d="M70 27h1v1h-1z"/><path fill="#599B33" d="M71 27h1v1h-1z"/><path fill="#498D37" d="M72 27h1v1h-1z"/><path fill="#468B38" d="M73 27h1v1h-1zM74 27h1v1h-1zM75 27h1v1h-1zM76 27h1v1h-1zM77 27h1v1h-1zM78 27h1v1h-1zM79 27h1v1h-1zM80 27h1v1h-1zM81 27h1v1h-1zM82 27h1v1h-1zM83 27h1v1h-1z"/><path fill="#3F7531" d="M84 27h1v1h-1z"/><path fill="#251F17" d="M85 27h1v1h-1z"/><path fill="#231815" d="M86 27h1v1h-1zM87 27h1v1h-1zM88 27h1v1h-1zM43 28h1v1h-1zM44 28h1v1h-1zM45 28h1v1h-1zM46 28h1v1h-1z"/><path fill="#2B2319" d="M47 28h1v1h-1z"/><path fill="#91A847" d="M48 28h1v1h-1z"/><path fill="#AAC952" d="M49 28h1v1h-1z"/><path fill="#9CC349" d="M50 28h1v1h-1z"/><path fill="#79B231" d="M51 28h1v1h-1z"/><path fill="#72AF2C" d="M52 28h1v1h-1zM53 28h1v1h-1zM54 28h1v1h-1zM55 28h1v1h-1zM56 28h1v1h-1zM57 28h1v1h-1zM58 28h1v1h-1zM59 28h1v1h-1zM60 28h1v1h-1zM61 28h1v1h-1zM62 28h1v1h-1zM63 28h1v1h-1zM64 28h1v1h-1zM65 28h1v1h-1zM66 28h1v1h-1zM67 28h1v1h-1z"/><path fill="#6DAB2E" d="M68 28h1v1h-1z"/><path fill="#579934" d="M69 28h1v1h-1z"/><path fill="#468B38" d="M70 28h1v1h-1zM71 28h1v1h-1zM72 28h1v1h-1zM73 28h1v1h-1zM74 28h1v1h-1zM75 28h1v1h-1zM76 28h1v1h-1zM77 28h1v1h-1zM78 28h1v1h-1zM79 28h1v1h-1zM80 28h1v1h-1zM81 28h1v1h-1z"/><path fill="#3F7531" d="M82 28h1v1h-1z"/><path fill="#324A24" d="M83 28h1v1h-1z"/><path fill="#251F17" d="M84 28h1v1h-1z"/><path fill="#231815" d="M85 28h1v1h-1zM86 28h1v1h-1zM87 28h1v1h-1zM88 28h1v1h-1zM42 29h1v1h-1zM43 29h1v1h-1zM44 29h1v1h-1zM45 29h1v1h-1z"/><path fill="#2B2319" d="M46 29h1v1h-1z"/><path fill="#91A847" d="M47 29h1v1h-1z"/><path fill="#AAC952" d="M48 29h1v1h-1z"/><path fill="#8EBC3F" d="M49 29h1v1h-1z"/><path fill="#72AF2C" d="M50 29h1v1h-1zM51 29h1v1h-1zM52 29h1v1h-1z"/><path fill="#76B12E" d="M53 29h1v1h-1z"/><path fill="#80B636" d="M54 29h1v1h-1z"/><path fill="#79B231" d="M55 29h1v1h-1z"/><path fill="#72AF2C" d="M56 29h1v1h-1zM57 29h1v1h-1zM58 29h1v1h-1zM59 29h1v1h-1zM60 29h1v1h-1zM61 29h1v1h-1zM62 29h1v1h-1zM63 29h1v1h-1zM64 29h1v1h-1zM65 29h1v1h-1z"/><path fill="#6FAD2D" d="M66 29h1v1h-1z"/><path fill="#5C9D32" d="M67 29h1v1h-1z"/><path fill="#498D37" d="M68 29h1v1h-1z"/><path fill="#468B38" d="M69 29h1v1h-1zM70 29h1v1h-1zM71 29h1v1h-1zM72 29h1v1h-1zM73 29h1v1h-1zM74 29h1v1h-1zM75 29h1v1h-1zM76 29h1v1h-1z"/><path fill="#3D6E2F" d="M77 29h1v1h-1z"/><path fill="#375929" d="M78 29h1v1h-1z"/><path fill="#324A24" d="M79 29h1v1h-1z"/><path fill="#2C351E" d="M80 29h1v1h-1z"/><path fill="#231815" d="M81 29h1v1h-1zM82 29h1v1h-1zM83 29h1v1h-1zM84 29h1v1h-1zM85 29h1v1h-1zM86 29h1v1h-1zM87 29h1v1h-1zM41 30h1v1h-1zM42 30h1v1h-1zM43 30h1v1h-1zM44 30h1v1h-1z"/><path fill="#2B2319" d="M45 30h1v1h-1z"/><path fill="#91A847" d="M46 30h1v1h-1z"/><path fill="#A3C64D" d="M47 30h1v1h-1z"/><path fill="#87B93A" d="M48 30h1v1h-1z"/><path fill="#8BBA3D" d="M49 30h1v1h-1z"/><path fill="#9BC34A" d="M50 30h1v1h-1z"/><path fill="#AECE59" d="M51 30h1v1h-1z"/><path fill="#BED766" d="M52 30h1v1h-1z"/><path fill="#C1D969" d="M53 30h1v1h-1zM54 30h1v1h-1z"/><path fill="#C0D868" d="M55 30h1v1h-1z"/><path fill="#8BBA3D" d="M56 30h1v1h-1z"/><path fill="#72AF2C" d="M57 30h1v1h-1zM58 30h1v1h-1zM59 30h1v1h-1zM60 30h1v1h-1zM61 30h1v1h-1zM62 30h1v1h-1zM63 30h1v1h-1zM64 30h1v1h-1z"/><path fill="#62A231" d="M65 30h1v1h-1z"/><path fill="#498D37" d="M66 30h1v1h-1z"/><path fill="#468B38" d="M67 30h1v1h-1zM68 30h1v1h-1zM69 30h1v1h-1zM70 30h1v1h-1zM71 30h1v1h-1z"/><path fill="#427D34" d="M72 30h1v1h-1z"/><path fill="#39602B" d="M73 30h1v1h-1z"/><path fill="#304322" d="M74 30h1v1h-1z"/><path fill="#2A2E1C" d="M75 30h1v1h-1z"/><path fill="#231815" d="M76 30h1v1h-1zM77 30h1v1h-1zM78 30h1v1h-1zM79 30h1v1h-1zM80 30h1v1h-1zM81 30h1v1h-1zM82 30h1v1h-1zM83 30h1v1h-1zM84 30h1v1h-1zM85 30h1v1h-1zM86 30h1v1h-1zM40 31h1v1h-1zM41 31h1v1h-1zM42 31h1v1h-1zM43 31h1v1h-1z"/><path fill="#2B2319" d="M44 31h1v1h-1z"/><path fill="#91A847" d="M45 31h1v1h-1z"/><path fill="#AAC952" d="M46 31h1v1h-1z"/><path fill="#A7C750" d="M47 31h1v1h-1z"/><path fill="#ADCB55" d="M48 31h1v1h-1z"/><path fill="#BBD563" d="M49 31h1v1h-1z"/><path fill="#C1D969" d="M50 31h1v1h-1zM51 31h1v1h-1zM52 31h1v1h-1zM53 31h1v1h-1zM54 31h1v1h-1z"/><path fill="#B7D25F" d="M55 31h1v1h-1z"/><path fill="#79B231" d="M56 31h1v1h-1z"/><path fill="#72AF2C" d="M57 31h1v1h-1zM58 31h1v1h-1zM59 31h1v1h-1zM60 31h1v1h-1zM61 31h1v1h-1zM62 31h1v1h-1z"/><path fill="#6DAB2E" d="M63 31h1v1h-1z"/><path fill="#519435" d="M64 31h1v1h-1z"/><path fill="#468B38" d="M65 31h1v1h-1zM66 31h1v1h-1zM67 31h1v1h-1zM68 31h1v1h-1z"/><path fill="#427D34" d="M69 31h1v1h-1z"/><path fill="#324A24" d="M70 31h1v1h-1z"/><path fill="#272619" d="M71 31h1v1h-1z"/><path fill="#231815" d="M72 31h1v1h-1zM73 31h1v1h-1zM74 31h1v1h-1zM75 31h1v1h-1zM76 31h1v1h-1zM77 31h1v1h-1zM78 31h1v1h-1zM79 31h1v1h-1zM80 31h1v1h-1zM81 31h1v1h-1zM82 31h1v1h-1zM83 31h1v1h-1zM84 31h1v1h-1zM85 31h1v1h-1zM39 32h1v1h-1zM40 32h1v1h-1zM41 32h1v1h-1zM42 32h1v1h-1z"/><path fill="#2B2319" d="M43 32h1v1h-1z"/><path fill="#91A847" d="M44 32h1v1h-1z"/><path fill="#AAC952" d="M45 32h1v1h-1zM46 32h1v1h-1z"/><path fill="#AECC56" d="M47 32h1v1h-1z"/><path fill="#C0D868" d="M48 32h1v1h-1z"/><path fill="#C1D969" d="M49 32h1v1h-1zM50 32h1v1h-1zM51 32h1v1h-1zM52 32h1v1h-1zM53 32h1v1h-1z"/><path fill="#B3CF5B" d="M54 32h1v1h-1z"/><path fill="#99C146" d="M55 32h1v1h-1z"/><path fill="#72AF2C" d="M56 32h1v1h-1zM57 32h1v1h-1zM58 32h1v1h-1zM59 32h1v1h-1zM60 32h1v1h-1zM61 32h1v1h-1z"/><path fill="#5F9F31" d="M62 32h1v1h-1z"/><path fill="#498D37" d="M63 32h1v1h-1z"/><path fill="#468B38" d="M64 32h1v1h-1zM65 32h1v1h-1zM66 32h1v1h-1z"/><path fill="#3D6E2F" d="M67 32h1v1h-1z"/><path fill="#2C351E" d="M68 32h1v1h-1z"/><path fill="#231815" d="M69 32h1v1h-1zM70 32h1v1h-1zM71 32h1v1h-1zM72 32h1v1h-1zM73 32h1v1h-1zM74 32h1v1h-1zM75 32h1v1h-1zM76 32h1v1h-1zM77 32h1v1h-1zM78 32h1v1h-1zM79 32h1v1h-1zM80 32h1v1h-1zM81 32h1v1h-1zM82 32h1v1h-1zM37 33h1v1h-1zM38 33h1v1h-1zM39 33h1v1h-1zM40 33h1v1h-1zM41 33h1v1h-1z"/><path fill="#2B2319" d="M42 33h1v1h-1z"/><path fill="#91A847" d="M43 33h1v1h-1z"/><path fill="#AAC952" d="M44 33h1v1h-1zM45 33h1v1h-1z"/><path fill="#AECC56" d="M46 33h1v1h-1z"/><path fill="#C0D868" d="M47 33h1v1h-1z"/><path fill="#C1D969" d="M48 33h1v1h-1zM49 33h1v1h-1zM50 33h1v1h-1zM51 33h1v1h-1zM52 33h1v1h-1z"/><path fill="#B3CF5B" d="M53 33h1v1h-1z"/><path fill="#AAC952" d="M54 33h1v1h-1z"/><path fill="#80B636" d="M55 33h1v1h-1z"/><path fill="#72AF2C" d="M56 33h1v1h-1zM57 33h1v1h-1zM58 33h1v1h-1zM59 33h1v1h-1z"/><path fill="#6FAD2D" d="M60 33h1v1h-1z"/><path fill="#549634" d="M61 33h1v1h-1z"/><path fill="#468B38" d="M62 33h1v1h-1zM63 33h1v1h-1zM64 33h1v1h-1z"/><path fill="#3D6E2F" d="M65 33h1v1h-1z"/><path fill="#2C351E" d="M66 33h1v1h-1z"/><path fill="#231815" d="M67 33h1v1h-1zM68 33h1v1h-1zM69 33h1v1h-1zM70 33h1v1h-1zM71 33h1v1h-1zM72 33h1v1h-1zM73 33h1v1h-1zM74 33h1v1h-1zM75 33h1v1h-1zM76 33h1v1h-1zM77 33h1v1h-1zM36 34h1v1h-1zM37 34h1v1h-1zM38 34h1v1h-1zM39 34h1v1h-1zM40 34h1v1h-1z"/><path fill="#3C3920" d="M41 34h1v1h-1z"/><path fill="#A2BE4E" d="M42 34h1v1h-1z"/><path fill="#AAC952" d="M43 34h1v1h-1zM44 34h1v1h-1z"/><path fill="#AECC56" d="M45 34h1v1h-1z"/><path fill="#C0D868" d="M46 34h1v1h-1z"/><path fill="#C1D969" d="M47 34h1v1h-1zM48 34h1v1h-1zM49 34h1v1h-1zM50 34h1v1h-1zM51 34h1v1h-1z"/><path fill="#B3CF5B" d="M52 34h1v1h-1z"/><path fill="#AAC952" d="M53 34h1v1h-1z"/><path fill="#A3C64D" d="M54 34h1v1h-1z"/><path fill="#72AF2C" d="M55 34h1v1h-1zM56 34h1v1h-1zM57 34h1v1h-1zM58 34h1v1h-1z"/><path fill="#6AA82E" d="M59 34h1v1h-1z"/><path fill="#4C9037" d="M60 34h1v1h-1z"/><path fill="#468B38" d="M61 34h1v1h-1zM62 34h1v1h-1zM63 34h1v1h-1z"/><path fill="#324A24" d="M64 34h1v1h-1z"/><path fill="#231815" d="M65 34h1v1h-1zM66 34h1v1h-1zM67 34h1v1h-1zM68 34h1v1h-1zM69 34h1v1h-1zM70 34h1v1h-1zM71 34h1v1h-1zM72 34h1v1h-1zM73 34h1v1h-1zM35 35h1v1h-1zM36 35h1v1h-1zM37 35h1v1h-1zM38 35h1v1h-1zM39 35h1v1h-1z"/><path fill="#3C3920" d="M40 35h1v1h-1z"/><path fill="#A2BE4E" d="M41 35h1v1h-1z"/><path fill="#AAC952" d="M42 35h1v1h-1zM43 35h1v1h-1z"/><path fill="#AECC56" d="M44 35h1v1h-1z"/><path fill="#C0D868" d="M45 35h1v1h-1z"/><path fill="#C1D969" d="M46 35h1v1h-1zM47 35h1v1h-1zM48 35h1v1h-1zM49 35h1v1h-1z"/><path fill="#C0D868" d="M50 35h1v1h-1z"/><path fill="#B1CE59" d="M51 35h1v1h-1z"/><path fill="#AAC952" d="M52 35h1v1h-1zM53 35h1v1h-1z"/><path fill="#8EBC3F" d="M54 35h1v1h-1z"/><path fill="#72AF2C" d="M55 35h1v1h-1zM56 35h1v1h-1zM57 35h1v1h-1z"/><path fill="#62A231" d="M58 35h1v1h-1z"/><path fill="#498D37" d="M59 35h1v1h-1z"/><path fill="#468B38" d="M60 35h1v1h-1zM61 35h1v1h-1z"/><path fill="#427D34" d="M62 35h1v1h-1z"/><path fill="#2A2E1C" d="M63 35h1v1h-1z"/><path fill="#231815" d="M64 35h1v1h-1zM65 35h1v1h-1zM66 35h1v1h-1zM67 35h1v1h-1zM68 35h1v1h-1zM69 35h1v1h-1zM70 35h1v1h-1zM34 36h1v1h-1zM35 36h1v1h-1zM36 36h1v1h-1zM37 36h1v1h-1zM38 36h1v1h-1z"/><path fill="#3C3920" d="M39 36h1v1h-1z"/><path fill="#A2BE4E" d="M40 36h1v1h-1z"/><path fill="#AAC952" d="M41 36h1v1h-1zM42 36h1v1h-1z"/><path fill="#B3CF5B" d="M43 36h1v1h-1z"/><path fill="#C1D969" d="M44 36h1v1h-1zM45 36h1v1h-1zM46 36h1v1h-1zM47 36h1v1h-1zM48 36h1v1h-1z"/><path fill="#C0D868" d="M49 36h1v1h-1z"/><path fill="#AECC56" d="M50 36h1v1h-1z"/><path fill="#AAC952" d="M51 36h1v1h-1zM52 36h1v1h-1zM53 36h1v1h-1z"/><path fill="#79B231" d="M54 36h1v1h-1z"/><path fill="#72AF2C" d="M55 36h1v1h-1zM56 36h1v1h-1z"/><path fill="#5C9D32" d="M57 36h1v1h-1z"/><path fill="#468B38" d="M58 36h1v1h-1zM59 36h1v1h-1zM60 36h1v1h-1z"/><path fill="#3F7531" d="M61 36h1v1h-1z"/><path fill="#251F17" d="M62 36h1v1h-1z"/><path fill="#231815" d="M63 36h1v1h-1zM64 36h1v1h-1zM65 36h1v1h-1zM66 36h1v1h-1zM67 36h1v1h-1zM33 37h1v1h-1zM34 37h1v1h-1zM35 37h1v1h-1zM36 37h1v1h-1zM37 37h1v1h-1z"/><path fill="#3C3920" d="M38 37h1v1h-1z"/><path fill="#A2BE4E" d="M39 37h1v1h-1z"/><path fill="#AAC952" d="M40 37h1v1h-1zM41 37h1v1h-1z"/><path fill="#B3CF5B" d="M42 37h1v1h-1z"/><path fill="#C1D969" d="M43 37h1v1h-1zM44 37h1v1h-1zM45 37h1v1h-1zM46 37h1v1h-1zM47 37h1v1h-1z"/><path fill="#C0D868" d="M48 37h1v1h-1z"/><path fill="#AECC56" d="M49 37h1v1h-1z"/><path fill="#AAC952" d="M50 37h1v1h-1zM51 37h1v1h-1zM52 37h1v1h-1z"/><path fill="#A0C44B" d="M53 37h1v1h-1z"/><path fill="#72AF2C" d="M54 37h1v1h-1zM55 37h1v1h-1z"/><path fill="#579934" d="M56 37h1v1h-1z"/><path fill="#468B38" d="M57 37h1v1h-1zM58 37h1v1h-1zM59 37h1v1h-1z"/><path fill="#3F7531" d="M60 37h1v1h-1z"/><path fill="#251F17" d="M61 37h1v1h-1z"/><path fill="#231815" d="M62 37h1v1h-1zM63 37h1v1h-1zM64 37h1v1h-1zM65 37h1v1h-1zM66 37h1v1h-1zM32 38h1v1h-1zM33 38h1v1h-1zM34 38h1v1h-1zM35 38h1v1h-1zM36 38h1v1h-1z"/><path fill="#433C2E" d="M37 38h1v1h-1z"/><path fill="#AFC369" d="M38 38h1v1h-1z"/><path fill="#B8CE6D" d="M39 38h1v1h-1z"/><path fill="#B1CC5F" d="M40 38h1v1h-1z"/><path fill="#B3CF5B" d="M41 38h1v1h-1z"/><path fill="#C1D969" d="M42 38h1v1h-1zM43 38h1v1h-1zM44 38h1v1h-1zM45 38h1v1h-1zM46 38h1v1h-1z"/><path fill="#C0D868" d="M47 38h1v1h-1z"/><path fill="#AECC56" d="M48 38h1v1h-1z"/><path fill="#AAC952" d="M49 38h1v1h-1zM50 38h1v1h-1zM51 38h1v1h-1zM52 38h1v1h-1z"/><path fill="#8BBA3D" d="M53 38h1v1h-1z"/><path fill="#72AF2C" d="M54 38h1v1h-1z"/><path fill="#579934" d="M55 38h1v1h-1z"/><path fill="#468B38" d="M56 38h1v1h-1zM57 38h1v1h-1zM58 38h1v1h-1z"/><path fill="#3F7531" d="M59 38h1v1h-1z"/><path fill="#251F17" d="M60 38h1v1h-1z"/><path fill="#231815" d="M61 38h1v1h-1zM62 38h1v1h-1zM63 38h1v1h-1zM64 38h1v1h-1zM65 38h1v1h-1zM31 39h1v1h-1zM32 39h1v1h-1zM33 39h1v1h-1zM34 39h1v1h-1zM35 39h1v1h-1z"/><path fill="#463D34" d="M36 39h1v1h-1z"/><path fill="#D4D2B2" d="M37 39h1v1h-1z"/><path fill="#E0DEBC" d="M38 39h1v1h-1zM39 39h1v1h-1z"/><path fill="#ECEAD2" d="M40 39h1v1h-1z"/><path fill="#F7F9E4" d="M41 39h1v1h-1z"/><path fill="#E0ECB0" d="M42 39h1v1h-1z"/><path fill="#C5DB72" d="M43 39h1v1h-1z"/><path fill="#C1D969" d="M44 39h1v1h-1zM45 39h1v1h-1z"/><path fill="#C0D868" d="M46 39h1v1h-1z"/><path fill="#AECC56" d="M47 39h1v1h-1z"/><path fill="#AAC952" d="M48 39h1v1h-1zM49 39h1v1h-1zM50 39h1v1h-1zM51 39h1v1h-1zM52 39h1v1h-1z"/><path fill="#76B032" d="M53 39h1v1h-1z"/><path fill="#4E9236" d="M54 39h1v1h-1z"/><path fill="#468B38" d="M55 39h1v1h-1zM56 39h1v1h-1zM57 39h1v1h-1z"/><path fill="#3F7531" d="M58 39h1v1h-1z"/><path fill="#251F17" d="M59 39h1v1h-1z"/><path fill="#231815" d="M60 39h1v1h-1zM61 39h1v1h-1zM62 39h1v1h-1zM63 39h1v1h-1zM30 40h1v1h-1zM31 40h1v1h-1zM32 40h1v1h-1zM33 40h1v1h-1zM34 40h1v1h-1z"/><path fill="#463D34" d="M35 40h1v1h-1z"/><path fill="#D4D2B2" d="M36 40h1v1h-1z"/><path fill="#E0DEBC" d="M37 40h1v1h-1zM38 40h1v1h-1z"/><path fill="#ECEAD2" d="M39 40h1v1h-1z"/><path fill="#FFFEF6" d="M40 40h1v1h-1zM41 40h1v1h-1zM42 40h1v1h-1z"/><path fill="#F7F9E4" d="M43 40h1v1h-1z"/><path fill="#D4E595" d="M44 40h1v1h-1z"/><path fill="#C0D868" d="M45 40h1v1h-1z"/><path fill="#AECC56" d="M46 40h1v1h-1z"/><path fill="#AAC952" d="M47 40h1v1h-1zM48 40h1v1h-1zM49 40h1v1h-1zM50 40h1v1h-1zM51 40h1v1h-1z"/><path fill="#9DC24C" d="M52 40h1v1h-1z"/><path fill="#4E9236" d="M53 40h1v1h-1z"/><path fill="#468B38" d="M54 40h1v1h-1zM55 40h1v1h-1zM56 40h1v1h-1z"/><path fill="#3F7531" d="M57 40h1v1h-1z"/><path fill="#251F17" d="M58 40h1v1h-1z"/><path fill="#231815" d="M59 40h1v1h-1zM60 40h1v1h-1zM61 40h1v1h-1zM62 40h1v1h-1zM29 41h1v1h-1zM30 41h1v1h-1zM31 41h1v1h-1zM32 41h1v1h-1zM33 41h1v1h-1z"/><path fill="#463D34" d="M34 41h1v1h-1z"/><path fill="#D4D2B2" d="M35 41h1v1h-1z"/><path fill="#E0DEBC" d="M36 41h1v1h-1zM37 41h1v1h-1z"/><path fill="#ECEAD2" d="M38 41h1v1h-1z"/><path fill="#FFFEF6" d="M39 41h1v1h-1zM40 41h1v1h-1zM41 41h1v1h-1zM42 41h1v1h-1zM43 41h1v1h-1z"/><path fill="#F9F8EB" d="M44 41h1v1h-1z"/><path fill="#C1D37D" d="M45 41h1v1h-1z"/><path fill="#AAC952" d="M46 41h1v1h-1zM47 41h1v1h-1zM48 41h1v1h-1zM49 41h1v1h-1zM50 41h1v1h-1z"/><path fill="#A4C550" d="M51 41h1v1h-1z"/><path fill="#59973D" d="M52 41h1v1h-1z"/><path fill="#468B38" d="M53 41h1v1h-1zM54 41h1v1h-1zM55 41h1v1h-1z"/><path fill="#3F7531" d="M56 41h1v1h-1z"/><path fill="#251F17" d="M57 41h1v1h-1z"/><path fill="#231815" d="M58 41h1v1h-1zM59 41h1v1h-1zM60 41h1v1h-1zM61 41h1v1h-1zM28 42h1v1h-1zM29 42h1v1h-1zM30 42h1v1h-1zM31 42h1v1h-1zM32 42h1v1h-1z"/><path fill="#463D34" d="M33 42h1v1h-1z"/><path fill="#D4D2B2" d="M34 42h1v1h-1z"/><path fill="#E0DEBC" d="M35 42h1v1h-1zM36 42h1v1h-1z"/><path fill="#ECEAD2" d="M37 42h1v1h-1z"/><path fill="#FFFEF6" d="M38 42h1v1h-1zM39 42h1v1h-1zM40 42h1v1h-1zM41 42h1v1h-1zM42 42h1v1h-1z"/><path fill="#F9F8EB" d="M43 42h1v1h-1z"/><path fill="#E2E0C0" d="M44 42h1v1h-1z"/><path fill="#E0DEBC" d="M45 42h1v1h-1z"/><path fill="#BED17A" d="M46 42h1v1h-1z"/><path fill="#AAC952" d="M47 42h1v1h-1zM48 42h1v1h-1zM49 42h1v1h-1z"/><path fill="#A4C550" d="M50 42h1v1h-1z"/><path fill="#59973D" d="M51 42h1v1h-1z"/><path fill="#468B38" d="M52 42h1v1h-1zM53 42h1v1h-1zM54 42h1v1h-1z"/><path fill="#3F7531" d="M55 42h1v1h-1z"/><path fill="#251F17" d="M56 42h1v1h-1z"/><path fill="#231815" d="M57 42h1v1h-1zM58 42h1v1h-1zM59 42h1v1h-1zM60 42h1v1h-1zM27 43h1v1h-1zM28 43h1v1h-1zM29 43h1v1h-1zM30 43h1v1h-1zM31 43h1v1h-1z"/><path fill="#463D34" d="M32 43h1v1h-1z"/><path fill="#D4D2B2" d="M33 43h1v1h-1z"/><path fill="#E0DEBC" d="M34 43h1v1h-1zM35 43h1v1h-1z"/><path fill="#ECEAD2" d="M36 43h1v1h-1z"/><path fill="#FFFEF6" d="M37 43h1v1h-1zM38 43h1v1h-1zM39 43h1v1h-1zM40 43h1v1h-1zM41 43h1v1h-1z"/><path fill="#F9F8EB" d="M42 43h1v1h-1z"/><path fill="#E2E0C0" d="M43 43h1v1h-1z"/><path fill="#E0DEBC" d="M44 43h1v1h-1zM45 43h1v1h-1z"/><path fill="#DDDDB5" d="M46 43h1v1h-1z"/><path fill="#B1CC5F" d="M47 43h1v1h-1z"/><path fill="#AAC952" d="M48 43h1v1h-1z"/><path fill="#A4C550" d="M49 43h1v1h-1z"/><path fill="#59973D" d="M50 43h1v1h-1z"/><path fill="#468B38" d="M51 43h1v1h-1zM52 43h1v1h-1zM53 43h1v1h-1z"/><path fill="#3F7531" d="M54 43h1v1h-1z"/><path fill="#251F17" d="M55 43h1v1h-1z"/><path fill="#231815" d="M56 43h1v1h-1zM57 43h1v1h-1zM58 43h1v1h-1zM59 43h1v1h-1zM26 44h1v1h-1zM27 44h1v1h-1zM28 44h1v1h-1zM29 44h1v1h-1zM30 44h1v1h-1z"/><path fill="#463D34" d="M31 44h1v1h-1z"/><path fill="#D4D2B2" d="M32 44h1v1h-1z"/><path fill="#E0DEBC" d="M33 44h1v1h-1zM34 44h1v1h-1z"/><path fill="#ECEAD2" d="M35 44h1v1h-1z"/><path fill="#FFFEF6" d="M36 44h1v1h-1zM37 44h1v1h-1zM38 44h1v1h-1zM39 44h1v1h-1zM40 44h1v1h-1z"/><path fill="#F9F8EB" d="M41 44h1v1h-1z"/><path fill="#E2E0C0" d="M42 44h1v1h-1z"/><path fill="#E0DEBC" d="M43 44h1v1h-1zM44 44h1v1h-1zM45 44h1v1h-1zM46 44h1v1h-1z"/><path fill="#CCD694" d="M47 44h1v1h-1z"/><path fill="#AAC952" d="M48 44h1v1h-1z"/><path fill="#659E40" d="M49 44h1v1h-1z"/><path fill="#468B38" d="M50 44h1v1h-1zM51 44h1v1h-1zM52 44h1v1h-1z"/><path fill="#3F7531" d="M53 44h1v1h-1z"/><path fill="#251F17" d="M54 44h1v1h-1z"/><path fill="#231815" d="M55 44h1v1h-1zM56 44h1v1h-1zM57 44h1v1h-1zM58 44h1v1h-1zM25 45h1v1h-1zM26 45h1v1h-1zM27 45h1v1h-1zM28 45h1v1h-1zM29 45h1v1h-1z"/><path fill="#463D34" d="M30 45h1v1h-1z"/><path fill="#D4D2B2" d="M31 45h1v1h-1z"/><path fill="#E0DEBC" d="M32 45h1v1h-1zM33 45h1v1h-1z"/><path fill="#ECEAD2" d="M34 45h1v1h-1z"/><path fill="#FFFEF6" d="M35 45h1v1h-1zM36 45h1v1h-1zM37 45h1v1h-1zM38 45h1v1h-1zM39 45h1v1h-1z"/><path fill="#F9F8EB" d="M40 45h1v1h-1z"/><path fill="#E2E0C0" d="M41 45h1v1h-1z"/><path fill="#E0DEBC" d="M42 45h1v1h-1zM43 45h1v1h-1zM44 45h1v1h-1zM45 45h1v1h-1zM46 45h1v1h-1zM47 45h1v1h-1z"/><path fill="#76A64D" d="M48 45h1v1h-1z"/><path fill="#468B38" d="M49 45h1v1h-1zM50 45h1v1h-1zM51 45h1v1h-1z"/><path fill="#3F7531" d="M52 45h1v1h-1z"/><path fill="#251F17" d="M53 45h1v1h-1z"/><path fill="#231815" d="M54 45h1v1h-1zM55 45h1v1h-1zM56 45h1v1h-1zM57 45h1v1h-1zM24 46h1v1h-1zM25 46h1v1h-1zM26 46h1v1h-1zM27 46h1v1h-1zM28 46h1v1h-1z"/><path fill="#463D34" d="M29 46h1v1h-1z"/><path fill="#D4D2B2" d="M30 46h1v1h-1z"/><path fill="#E0DEBC" d="M31 46h1v1h-1zM32 46h1v1h-1z"/><path fill="#ECEAD2" d="M33 46h1v1h-1z"/><path fill="#FFFEF6" d="M34 46h1v1h-1zM35 46h1v1h-1zM36 46h1v1h-1zM37 46h1v1h-1zM38 46h1v1h-1z"/><path fill="#F9F8EB" d="M39 46h1v1h-1z"/><path fill="#E2E0C0" d="M40 46h1v1h-1z"/><path fill="#E0DEBC" d="M41 46h1v1h-1zM42 46h1v1h-1zM43 46h1v1h-1zM44 46h1v1h-1zM45 46h1v1h-1z"/><path fill="#DDDBB9" d="M46 46h1v1h-1z"/><path fill="#C2C199" d="M47 46h1v1h-1z"/><path fill="#6F9A56" d="M48 46h1v1h-1z"/><path fill="#468B38" d="M49 46h1v1h-1zM50 46h1v1h-1z"/><path fill="#3F7531" d="M51 46h1v1h-1z"/><path fill="#251F17" d="M52 46h1v1h-1z"/><path fill="#231815" d="M53 46h1v1h-1zM54 46h1v1h-1zM55 46h1v1h-1zM56 46h1v1h-1zM23 47h1v1h-1zM24 47h1v1h-1zM25 47h1v1h-1zM26 47h1v1h-1zM27 47h1v1h-1z"/><path fill="#463D34" d="M28 47h1v1h-1z"/><path fill="#D4D2B2" d="M29 47h1v1h-1z"/><path fill="#E0DEBC" d="M30 47h1v1h-1zM31 47h1v1h-1z"/><path fill="#ECEAD2" d="M32 47h1v1h-1z"/><path fill="#FFFEF6" d="M33 47h1v1h-1zM34 47h1v1h-1zM35 47h1v1h-1zM36 47h1v1h-1zM37 47h1v1h-1z"/><path fill="#F9F8EB" d="M38 47h1v1h-1z"/><path fill="#E2E0C0" d="M39 47h1v1h-1z"/><path fill="#E0DEBC" d="M40 47h1v1h-1zM41 47h1v1h-1zM42 47h1v1h-1zM43 47h1v1h-1zM44 47h1v1h-1z"/><path fill="#DDDBB9" d="M45 47h1v1h-1z"/><path fill="#BCBC93" d="M46 47h1v1h-1z"/><path fill="#B4B489" d="M47 47h1v1h-1z"/><path fill="#92A770" d="M48 47h1v1h-1z"/><path fill="#468B38" d="M49 47h1v1h-1z"/><path fill="#3F7531" d="M50 47h1v1h-1z"/><path fill="#251F17" d="M51 47h1v1h-1z"/><path fill="#231815" d="M52 47h1v1h-1zM53 47h1v1h-1zM54 47h1v1h-1zM55 47h1v1h-1zM22 48h1v1h-1zM23 48h1v1h-1zM24 48h1v1h-1zM25 48h1v1h-1zM26 48h1v1h-1z"/><path fill="#463D34" d="M27 48h1v1h-1z"/><path fill="#D4D2B2" d="M28 48h1v1h-1z"/><path fill="#E0DEBC" d="M29 48h1v1h-1zM30 48h1v1h-1z"/><path fill="#ECEAD2" d="M31 48h1v1h-1z"/><path fill="#FFFEF6" d="M32 48h1v1h-1zM33 48h1v1h-1zM34 48h1v1h-1zM35 48h1v1h-1zM36 48h1v1h-1z"/><path fill="#F3F2E0" d="M37 48h1v1h-1z"/><path fill="#E0DEBC" d="M38 48h1v1h-1zM39 48h1v1h-1zM40 48h1v1h-1zM41 48h1v1h-1zM42 48h1v1h-1zM43 48h1v1h-1z"/><path fill="#DDDBB9" d="M44 48h1v1h-1z"/><path fill="#BCBC93" d="M45 48h1v1h-1z"/><path fill="#B4B489" d="M46 48h1v1h-1zM47 48h1v1h-1z"/><path fill="#A6AF7F" d="M48 48h1v1h-1z"/><path fill="#3F7531" d="M49 48h1v1h-1z"/><path fill="#251F17" d="M50 48h1v1h-1z"/><path fill="#231815" d="M51 48h1v1h-1zM52 48h1v1h-1zM53 48h1v1h-1zM54 48h1v1h-1zM21 49h1v1h-1zM22 49h1v1h-1zM23 49h1v1h-1zM24 49h1v1h-1zM25 49h1v1h-1z"/><path fill="#463D34" d="M26 49h1v1h-1z"/><path fill="#D4D2B2" d="M27 49h1v1h-1z"/><path fill="#E0DEBC" d="M28 49h1v1h-1zM29 49h1v1h-1z"/><path fill="#ECEAD2" d="M30 49h1v1h-1z"/><path fill="#FFFEF6" d="M31 49h1v1h-1zM32 49h1v1h-1zM33 49h1v1h-1zM34 49h1v1h-1zM35 49h1v1h-1z"/><path fill="#F3F2E0" d="M36 49h1v1h-1z"/><path fill="#E0DEBC" d="M37 49h1v1h-1zM38 49h1v1h-1zM39 49h1v1h-1zM40 49h1v1h-1zM41 49h1v1h-1zM42 49h1v1h-1z"/><path fill="#DBD9B6" d="M43 49h1v1h-1z"/><path fill="#BCBC93" d="M44 49h1v1h-1z"/><path fill="#B4B489" d="M45 49h1v1h-1zM46 49h1v1h-1zM47 49h1v1h-1z"/><path fill="#999773" d="M48 49h1v1h-1z"/><path fill="#251F17" d="M49 49h1v1h-1z"/><path fill="#231815" d="M50 49h1v1h-1zM51 49h1v1h-1zM52 49h1v1h-1zM53 49h1v1h-1zM20 50h1v1h-1zM21 50h1v1h-1zM22 50h1v1h-1zM23 50h1v1h-1zM24 50h1v1h-1z"/><path fill="#463D34" d="M25 50h1v1h-1z"/><path fill="#D4D2B2" d="M26 50h1v1h-1z"/><path fill="#E0DEBC" d="M27 50h1v1h-1zM28 50h1v1h-1z"/><path fill="#ECEAD2" d="M29 50h1v1h-1z"/><path fill="#FFFEF6" d="M30 50h1v1h-1zM31 50h1v1h-1zM32 50h1v1h-1zM33 50h1v1h-1zM34 50h1v1h-1z"/><path fill="#F3F2E0" d="M35 50h1v1h-1z"/><path fill="#E0DEBC" d="M36 50h1v1h-1zM37 50h1v1h-1zM38 50h1v1h-1zM39 50h1v1h-1zM40 50h1v1h-1zM41 50h1v1h-1z"/><path fill="#D8D6B2" d="M42 50h1v1h-1z"/><path fill="#B7B78C" d="M43 50h1v1h-1z"/><path fill="#B4B489" d="M44 50h1v1h-1zM45 50h1v1h-1zM46 50h1v1h-1z"/><path fill="#999773" d="M47 50h1v1h-1z"/><path fill="#2C221C" d="M48 50h1v1h-1z"/><path fill="#231815" d="M49 50h1v1h-1zM50 50h1v1h-1zM51 50h1v1h-1zM52 50h1v1h-1zM19 51h1v1h-1zM20 51h1v1h-1zM21 51h1v1h-1zM22 51h1v1h-1zM23 51h1v1h-1z"/><path fill="#463D34" d="M24 51h1v1h-1z"/><path fill="#D4D2B2" d="M25 51h1v1h-1z"/><path fill="#E0DEBC" d="M26 51h1v1h-1zM27 51h1v1h-1z"/><path fill="#ECEAD2" d="M28 51h1v1h-1z"/><path fill="#FFFEF6" d="M29 51h1v1h-1zM30 51h1v1h-1zM31 51h1v1h-1zM32 51h1v1h-1zM33 51h1v1h-1z"/><path fill="#F3F2E0" d="M34 51h1v1h-1z"/><path fill="#E0DEBC" d="M35 51h1v1h-1zM36 51h1v1h-1zM37 51h1v1h-1zM38 51h1v1h-1zM39 51h1v1h-1zM40 51h1v1h-1z"/><path fill="#D8D6B2" d="M41 51h1v1h-1z"/><path fill="#B7B78C" d="M42 51h1v1h-1z"/><path fill="#B4B489" d="M43 51h1v1h-1zM44 51h1v1h-1zM45 51h1v1h-1z"/><path fill="#999773" d="M46 51h1v1h-1z"/><path fill="#2C221C" d="M47 51h1v1h-1z"/><path fill="#231815" d="M48 51h1v1h-1zM49 51h1v1h-1zM50 51h1v1h-1zM51 51h1v1h-1zM18 52h1v1h-1zM19 52h1v1h-1zM20 52h1v1h-1zM21 52h1v1h-1zM22 52h1v1h-1z"/><path fill="#463D34" d="M23 52h1v1h-1z"/><path fill="#D4D2B2" d="M24 52h1v1h-1z"/><path fill="#E0DEBC" d="M25 52h1v1h-1zM26 52h1v1h-1z"/><path fill="#ECEAD2" d="M27 52h1v1h-1z"/><path fill="#FFFEF6" d="M28 52h1v1h-1zM29 52h1v1h-1zM30 52h1v1h-1zM31 52h1v1h-1zM32 52h1v1h-1z"/><path fill="#F3F2E0" d="M33 52h1v1h-1z"/><path fill="#E0DEBC" d="M34 52h1v1h-1zM35 52h1v1h-1zM36 52h1v1h-1zM37 52h1v1h-1zM38 52h1v1h-1zM39 52h1v1h-1z"/><path fill="#D8D6B2" d="M40 52h1v1h-1z"/><path fill="#B7B78C" d="M41 52h1v1h-1z"/><path fill="#B4B489" d="M42 52h1v1h-1zM43 52h1v1h-1zM44 52h1v1h-1z"/><path fill="#999773" d="M45 52h1v1h-1z"/><path fill="#2C221C" d="M46 52h1v1h-1z"/><path fill="#231815" d="M47 52h1v1h-1zM48 52h1v1h-1zM49 52h1v1h-1zM50 52h1v1h-1zM17 53h1v1h-1zM18 53h1v1h-1zM19 53h1v1h-1zM20 53h1v1h-1zM21 53h1v1h-1z"/><path fill="#463D34" d="M22 53h1v1h-1z"/><path fill="#D4D2B2" d="M23 53h1v1h-1z"/><path fill="#E0DEBC" d="M24 53h1v1h-1zM25 53h1v1h-1z"/><path fill="#ECEAD2" d="M26 53h1v1h-1z"/><path fill="#FFFEF6" d="M27 53h1v1h-1zM28 53h1v1h-1zM29 53h1v1h-1zM30 53h1v1h-1zM31 53h1v1h-1z"/><path fill="#F3F2E0" d="M32 53h1v1h-1z"/><path fill="#E0DEBC" d="M33 53h1v1h-1zM34 53h1v1h-1zM35 53h1v1h-1zM36 53h1v1h-1zM37 53h1v1h-1zM38 53h1v1h-1z"/><path fill="#D2D1AC" d="M39 53h1v1h-1z"/><path fill="#B7B78C" d="M40 53h1v1h-1z"/><path fill="#B4B489" d="M41 53h1v1h-1zM42 53h1v1h-1zM43 53h1v1h-1z"/><path fill="#878365" d="M44 53h1v1h-1z"/><path fill="#2C221C" d="M45 53h1v1h-1z"/><path fill="#231815" d="M46 53h1v1h-1zM47 53h1v1h-1zM48 53h1v1h-1zM49 53h1v1h-1zM16 54h1v1h-1zM17 54h1v1h-1zM18 54h1v1h-1zM19 54h1v1h-1zM20 54h1v1h-1z"/><path fill="#463D34" d="M21 54h1v1h-1z"/><path fill="#D4D2B2" d="M22 54h1v1h-1z"/><path fill="#E0DEBC" d="M23 54h1v1h-1zM24 54h1v1h-1z"/><path fill="#ECEAD2" d="M25 54h1v1h-1z"/><path fill="#FFFEF6" d="M26 54h1v1h-1zM27 54h1v1h-1zM28 54h1v1h-1zM29 54h1v1h-1zM30 54h1v1h-1z"/><path fill="#F3F2E0" d="M31 54h1v1h-1z"/><path fill="#E0DEBC" d="M32 54h1v1h-1zM33 54h1v1h-1zM34 54h1v1h-1zM35 54h1v1h-1zM36 54h1v1h-1zM37 54h1v1h-1z"/><path fill="#D0CEA9" d="M38 54h1v1h-1z"/><path fill="#B4B489" d="M39 54h1v1h-1zM40 54h1v1h-1zM41 54h1v1h-1zM42 54h1v1h-1z"/><path fill="#7E7A5E" d="M43 54h1v1h-1z"/><path fill="#231815" d="M44 54h1v1h-1zM45 54h1v1h-1zM46 54h1v1h-1zM47 54h1v1h-1zM48 54h1v1h-1zM15 55h1v1h-1zM16 55h1v1h-1zM17 55h1v1h-1zM18 55h1v1h-1zM19 55h1v1h-1z"/><path fill="#463D34" d="M20 55h1v1h-1z"/><path fill="#D4D2B2" d="M21 55h1v1h-1z"/><path fill="#E0DEBC" d="M22 55h1v1h-1zM23 55h1v1h-1z"/><path fill="#ECEAD2" d="M24 55h1v1h-1z"/><path fill="#FFFEF6" d="M25 55h1v1h-1zM26 55h1v1h-1zM27 55h1v1h-1zM28 55h1v1h-1zM29 55h1v1h-1z"/><path fill="#F3F2E0" d="M30 55h1v1h-1z"/><path fill="#E0DEBC" d="M31 55h1v1h-1zM32 55h1v1h-1zM33 55h1v1h-1zM34 55h1v1h-1zM35 55h1v1h-1zM36 55h1v1h-1z"/><path fill="#D0CEA9" d="M37 55h1v1h-1z"/><path fill="#B4B489" d="M38 55h1v1h-1zM39 55h1v1h-1zM40 55h1v1h-1zM41 55h1v1h-1z"/><path fill="#7E7A5E" d="M42 55h1v1h-1z"/><path fill="#231815" d="M43 55h1v1h-1zM44 55h1v1h-1zM45 55h1v1h-1zM46 55h1v1h-1zM47 55h1v1h-1zM14 56h1v1h-1zM15 56h1v1h-1zM16 56h1v1h-1zM17 56h1v1h-1zM18 56h1v1h-1z"/><path fill="#463D34" d="M19 56h1v1h-1z"/><path fill="#D4D2B2" d="M20 56h1v1h-1z"/><path fill="#E0DEBC" d="M21 56h1v1h-1zM22 56h1v1h-1z"/><path fill="#ECEAD2" d="M23 56h1v1h-1z"/><path fill="#FFFEF6" d="M24 56h1v1h-1zM25 56h1v1h-1zM26 56h1v1h-1zM27 56h1v1h-1zM28 56h1v1h-1z"/><path fill="#F3F2E0" d="M29 56h1v1h-1z"/><path fill="#E0DEBC" d="M30 56h1v1h-1zM31 56h1v1h-1zM32 56h1v1h-1zM33 56h1v1h-1zM34 56h1v1h-1zM35 56h1v1h-1z"/><path fill="#D0CEA9" d="M36 56h1v1h-1z"/><path fill="#B4B489" d="M37 56h1v1h-1zM38 56h1v1h-1zM39 56h1v1h-1zM40 56h1v1h-1z"/><path fill="#7E7A5E" d="M41 56h1v1h-1z"/><path fill="#231815" d="M42 56h1v1h-1zM43 56h1v1h-1zM44 56h1v1h-1zM45 56h1v1h-1zM46 56h1v1h-1zM13 57h1v1h-1zM14 57h1v1h-1zM15 57h1v1h-1zM16 57h1v1h-1zM17 57h1v1h-1z"/><path fill="#463D34" d="M18 57h1v1h-1z"/><path fill="#D4D2B2" d="M19 57h1v1h-1z"/><path fill="#E0DEBC" d="M20 57h1v1h-1zM21 57h1v1h-1z"/><path fill="#ECEAD2" d="M22 57h1v1h-1z"/><path fill="#FFFEF6" d="M23 57h1v1h-1zM24 57h1v1h-1zM25 57h1v1h-1zM26 57h1v1h-1zM27 57h1v1h-1z"/><path fill="#F3F2E0" d="M28 57h1v1h-1z"/><path fill="#E0DEBC" d="M29 57h1v1h-1zM30 57h1v1h-1zM31 57h1v1h-1zM32 57h1v1h-1zM33 57h1v1h-1zM34 57h1v1h-1z"/><path fill="#D0CEA9" d="M35 57h1v1h-1z"/><path fill="#B4B489" d="M36 57h1v1h-1zM37 57h1v1h-1zM38 57h1v1h-1zM39 57h1v1h-1z"/><path fill="#7E7A5E" d="M40 57h1v1h-1z"/><path fill="#231815" d="M41 57h1v1h-1zM42 57h1v1h-1zM43 57h1v1h-1zM44 57h1v1h-1zM45 57h1v1h-1zM12 58h1v1h-1zM13 58h1v1h-1zM14 58h1v1h-1zM15 58h1v1h-1zM16 58h1v1h-1z"/><path fill="#463D34" d="M17 58h1v1h-1z"/><path fill="#D4D2B2" d="M18 58h1v1h-1z"/><path fill="#E0DEBC" d="M19 58h1v1h-1zM20 58h1v1h-1z"/><path fill="#ECEAD2" d="M21 58h1v1h-1z"/><path fill="#FFFEF6" d="M22 58h1v1h-1zM23 58h1v1h-1zM24 58h1v1h-1zM25 58h1v1h-1zM26 58h1v1h-1z"/><path fill="#F3F2E0" d="M27 58h1v1h-1z"/><path fill="#E0DEBC" d="M28 58h1v1h-1zM29 58h1v1h-1zM30 58h1v1h-1zM31 58h1v1h-1zM32 58h1v1h-1zM33 58h1v1h-1z"/><path fill="#C7C69F" d="M34 58h1v1h-1z"/><path fill="#B4B489" d="M35 58h1v1h-1zM36 58h1v1h-1zM37 58h1v1h-1zM38 58h1v1h-1z"/><path fill="#7E7A5E" d="M39 58h1v1h-1z"/><path fill="#231815" d="M40 58h1v1h-1zM41 58h1v1h-1zM42 58h1v1h-1zM43 58h1v1h-1zM44 58h1v1h-1zM11 59h1v1h-1zM12 59h1v1h-1zM13 59h1v1h-1zM14 59h1v1h-1zM15 59h1v1h-1z"/><path fill="#463D34" d="M16 59h1v1h-1z"/><path fill="#D4D2B2" d="M17 59h1v1h-1z"/><path fill="#E0DEBC" d="M18 59h1v1h-1zM19 59h1v1h-1z"/><path fill="#ECEAD2" d="M20 59h1v1h-1z"/><path fill="#FFFEF6" d="M21 59h1v1h-1zM22 59h1v1h-1zM23 59h1v1h-1zM24 59h1v1h-1zM25 59h1v1h-1z"/><path fill="#F3F2E0" d="M26 59h1v1h-1z"/><path fill="#E0DEBC" d="M27 59h1v1h-1zM28 59h1v1h-1zM29 59h1v1h-1zM30 59h1v1h-1zM31 59h1v1h-1zM32 59h1v1h-1z"/><path fill="#C5C49C" d="M33 59h1v1h-1z"/><path fill="#B4B489" d="M34 59h1v1h-1zM35 59h1v1h-1zM36 59h1v1h-1zM37 59h1v1h-1z"/><path fill="#7E7A5E" d="M38 59h1v1h-1z"/><path fill="#231815" d="M39 59h1v1h-1zM40 59h1v1h-1zM41 59h1v1h-1zM42 59h1v1h-1zM43 59h1v1h-1zM10 60h1v1h-1zM11 60h1v1h-1zM12 60h1v1h-1zM13 60h1v1h-1zM14 60h1v1h-1z"/><path fill="#463D34" d="M15 60h1v1h-1z"/><path fill="#D4D2B2" d="M16 60h1v1h-1z"/><path fill="#E0DEBC" d="M17 60h1v1h-1zM18 60h1v1h-1z"/><path fill="#ECEAD2" d="M19 60h1v1h-1z"/><path fill="#FFFEF6" d="M20 60h1v1h-1zM21 60h1v1h-1zM22 60h1v1h-1zM23 60h1v1h-1zM24 60h1v1h-1z"/><path fill="#F0EED9" d="M25 60h1v1h-1z"/><path fill="#E0DEBC" d="M26 60h1v1h-1zM27 60h1v1h-1zM28 60h1v1h-1zM29 60h1v1h-1zM30 60h1v1h-1zM31 60h1v1h-1z"/><path fill="#C5C49C" d="M32 60h1v1h-1z"/><path fill="#B4B489" d="M33 60h1v1h-1zM34 60h1v1h-1zM35 60h1v1h-1zM36 60h1v1h-1z"/><path fill="#7E7A5E" d="M37 60h1v1h-1z"/><path fill="#231815" d="M38 60h1v1h-1zM39 60h1v1h-1zM40 60h1v1h-1zM41 60h1v1h-1zM42 60h1v1h-1zM9 61h1v1H9zM10 61h1v1h-1zM11 61h1v1h-1zM12 61h1v1h-1zM13 61h1v1h-1z"/><path fill="#463D34" d="M14 61h1v1h-1z"/><path fill="#D4D2B2" d="M15 61h1v1h-1z"/><path fill="#E0DEBC" d="M16 61h1v1h-1zM17 61h1v1h-1z"/><path fill="#ECEAD2" d="M18 61h1v1h-1z"/><path fill="#FFFEF6" d="M19 61h1v1h-1zM20 61h1v1h-1zM21 61h1v1h-1zM22 61h1v1h-1zM23 61h1v1h-1z"/><path fill="#ECEAD2" d="M24 61h1v1h-1z"/><path fill="#E0DEBC" d="M25 61h1v1h-1zM26 61h1v1h-1zM27 61h1v1h-1zM28 61h1v1h-1zM29 61h1v1h-1zM30 61h1v1h-1z"/><path fill="#C5C49C" d="M31 61h1v1h-1z"/><path fill="#B4B489" d="M32 61h1v1h-1zM33 61h1v1h-1zM34 61h1v1h-1zM35 61h1v1h-1z"/><path fill="#7E7A5E" d="M36 61h1v1h-1z"/><path fill="#231815" d="M37 61h1v1h-1zM38 61h1v1h-1zM39 61h1v1h-1zM40 61h1v1h-1zM41 61h1v1h-1zM8 62h1v1H8zM9 62h1v1H9zM10 62h1v1h-1zM11 62h1v1h-1zM12 62h1v1h-1z"/><path fill="#463D34" d="M13 62h1v1h-1z"/><path fill="#D4D2B2" d="M14 62h1v1h-1z"/><path fill="#E0DEBC" d="M15 62h1v1h-1zM16 62h1v1h-1z"/><path fill="#ECEAD2" d="M17 62h1v1h-1z"/><path fill="#FFFEF6" d="M18 62h1v1h-1zM19 62h1v1h-1zM20 62h1v1h-1zM21 62h1v1h-1zM22 62h1v1h-1z"/><path fill="#ECEAD2" d="M23 62h1v1h-1z"/><path fill="#E0DEBC" d="M24 62h1v1h-1zM25 62h1v1h-1zM26 62h1v1h-1zM27 62h1v1h-1zM28 62h1v1h-1zM29 62h1v1h-1z"/><path fill="#C5C49C" d="M30 62h1v1h-1z"/><path fill="#B4B489" d="M31 62h1v1h-1zM32 62h1v1h-1zM33 62h1v1h-1zM34 62h1v1h-1z"/><path fill="#7E7A5E" d="M35 62h1v1h-1z"/><path fill="#231815" d="M36 62h1v1h-1zM37 62h1v1h-1zM38 62h1v1h-1zM39 62h1v1h-1zM40 62h1v1h-1zM7 63h1v1H7zM8 63h1v1H8zM9 63h1v1H9zM10 63h1v1h-1zM11 63h1v1h-1z"/><path fill="#463D34" d="M12 63h1v1h-1z"/><path fill="#D4D2B2" d="M13 63h1v1h-1z"/><path fill="#E0DEBC" d="M14 63h1v1h-1zM15 63h1v1h-1z"/><path fill="#ECEAD2" d="M16 63h1v1h-1z"/><path fill="#FFFEF6" d="M17 63h1v1h-1zM18 63h1v1h-1zM19 63h1v1h-1zM20 63h1v1h-1zM21 63h1v1h-1z"/><path fill="#ECEAD2" d="M22 63h1v1h-1z"/><path fill="#E0DEBC" d="M23 63h1v1h-1zM24 63h1v1h-1zM25 63h1v1h-1zM26 63h1v1h-1zM27 63h1v1h-1z"/><path fill="#DDDBB9" d="M28 63h1v1h-1z"/><path fill="#BFBF96" d="M29 63h1v1h-1z"/><path fill="#B4B489" d="M30 63h1v1h-1zM31 63h1v1h-1zM32 63h1v1h-1zM33 63h1v1h-1z"/><path fill="#7E7A5E" d="M34 63h1v1h-1z"/><path fill="#231815" d="M35 63h1v1h-1zM36 63h1v1h-1zM37 63h1v1h-1zM38 63h1v1h-1zM39 63h1v1h-1zM6 64h1v1H6zM7 64h1v1H7zM8 64h1v1H8zM9 64h1v1H9zM10 64h1v1h-1z"/><path fill="#463D34" d="M11 64h1v1h-1z"/><path fill="#D4D2B2" d="M12 64h1v1h-1z"/><path fill="#E0DEBC" d="M13 64h1v1h-1zM14 64h1v1h-1z"/><path fill="#ECEAD2" d="M15 64h1v1h-1z"/><path fill="#FFFEF6" d="M16 64h1v1h-1zM17 64h1v1h-1zM18 64h1v1h-1zM19 64h1v1h-1zM20 64h1v1h-1z"/><path fill="#ECEAD2" d="M21 64h1v1h-1z"/><path fill="#E0DEBC" d="M22 64h1v1h-1zM23 64h1v1h-1zM24 64h1v1h-1zM25 64h1v1h-1zM26 64h1v1h-1z"/><path fill="#DDDBB9" d="M27 64h1v1h-1z"/><path fill="#BCBC93" d="M28 64h1v1h-1z"/><path fill="#B4B489" d="M29 64h1v1h-1zM30 64h1v1h-1zM31 64h1v1h-1zM32 64h1v1h-1z"/><path fill="#7E7A5E" d="M33 64h1v1h-1z"/><path fill="#231815" d="M34 64h1v1h-1zM35 64h1v1h-1zM36 64h1v1h-1zM37 64h1v1h-1zM38 64h1v1h-1zM5 65h1v1H5zM6 65h1v1H6zM7 65h1v1H7zM8 65h1v1H8zM9 65h1v1H9z"/><path fill="#463D34" d="M10 65h1v1h-1z"/><path fill="#D4D2B2" d="M11 65h1v1h-1z"/><path fill="#E0DEBC" d="M12 65h1v1h-1zM13 65h1v1h-1z"/><path fill="#ECEAD2" d="M14 65h1v1h-1z"/><path fill="#FFFEF6" d="M15 65h1v1h-1zM16 65h1v1h-1zM17 65h1v1h-1zM18 65h1v1h-1zM19 65h1v1h-1z"/><path fill="#ECEAD2" d="M20 65h1v1h-1z"/><path fill="#E0DEBC" d="M21 65h1v1h-1zM22 65h1v1h-1zM23 65h1v1h-1zM24 65h1v1h-1zM25 65h1v1h-1z"/><path fill="#DDDBB9" d="M26 65h1v1h-1z"/><path fill="#BCBC93" d="M27 65h1v1h-1z"/><path fill="#B4B489" d="M28 65h1v1h-1zM29 65h1v1h-1zM30 65h1v1h-1zM31 65h1v1h-1z"/><path fill="#7E7A5E" d="M32 65h1v1h-1z"/><path fill="#231815" d="M33 65h1v1h-1zM34 65h1v1h-1zM35 65h1v1h-1zM36 65h1v1h-1zM37 65h1v1h-1zM4 66h1v1H4zM5 66h1v1H5zM6 66h1v1H6zM7 66h1v1H7zM8 66h1v1H8z"/><path fill="#463D34" d="M9 66h1v1H9z"/><path fill="#D4D2B2" d="M10 66h1v1h-1z"/><path fill="#E0DEBC" d="M11 66h1v1h-1zM12 66h1v1h-1z"/><path fill="#ECEAD2" d="M13 66h1v1h-1z"/><path fill="#FFFEF6" d="M14 66h1v1h-1zM15 66h1v1h-1zM16 66h1v1h-1zM17 66h1v1h-1zM18 66h1v1h-1z"/><path fill="#ECEAD2" d="M19 66h1v1h-1z"/><path fill="#E0DEBC" d="M20 66h1v1h-1zM21 66h1v1h-1zM22 66h1v1h-1zM23 66h1v1h-1zM24 66h1v1h-1z"/><path fill="#DDDBB9" d="M25 66h1v1h-1z"/><path fill="#BCBC93" d="M26 66h1v1h-1z"/><path fill="#B4B489" d="M27 66h1v1h-1zM28 66h1v1h-1zM29 66h1v1h-1zM30 66h1v1h-1z"/><path fill="#7E7A5E" d="M31 66h1v1h-1z"/><path fill="#231815" d="M32 66h1v1h-1zM33 66h1v1h-1zM34 66h1v1h-1zM35 66h1v1h-1zM36 66h1v1h-1zM3 67h1v1H3zM4 67h1v1H4zM5 67h1v1H5zM6 67h1v1H6zM7 67h1v1H7z"/><path fill="#463D34" d="M8 67h1v1H8z"/><path fill="#D4D2B2" d="M9 67h1v1H9z"/><path fill="#E0DEBC" d="M10 67h1v1h-1zM11 67h1v1h-1z"/><path fill="#ECEAD2" d="M12 67h1v1h-1z"/><path fill="#FFFEF6" d="M13 67h1v1h-1zM14 67h1v1h-1zM15 67h1v1h-1zM16 67h1v1h-1zM17 67h1v1h-1z"/><path fill="#ECEAD2" d="M18 67h1v1h-1z"/><path fill="#E0DEBC" d="M19 67h1v1h-1zM20 67h1v1h-1zM21 67h1v1h-1zM22 67h1v1h-1zM23 67h1v1h-1z"/><path fill="#DDDBB9" d="M24 67h1v1h-1z"/><path fill="#BCBC93" d="M25 67h1v1h-1z"/><path fill="#B4B489" d="M26 67h1v1h-1zM27 67h1v1h-1zM28 67h1v1h-1zM29 67h1v1h-1z"/><path fill="#7E7A5E" d="M30 67h1v1h-1z"/><path fill="#231815" d="M31 67h1v1h-1zM32 67h1v1h-1zM33 67h1v1h-1zM34 67h1v1h-1zM35 67h1v1h-1zM2 68h1v1H2zM3 68h1v1H3zM4 68h1v1H4zM5 68h1v1H5zM6 68h1v1H6z"/><path fill="#463D34" d="M7 68h1v1H7z"/><path fill="#D4D2B2" d="M8 68h1v1H8z"/><path fill="#E0DEBC" d="M9 68h1v1H9zM10 68h1v1h-1z"/><path fill="#ECEAD2" d="M11 68h1v1h-1z"/><path fill="#FFFEF6" d="M12 68h1v1h-1zM13 68h1v1h-1zM14 68h1v1h-1zM15 68h1v1h-1zM16 68h1v1h-1z"/><path fill="#ECEAD2" d="M17 68h1v1h-1z"/><path fill="#E0DEBC" d="M18 68h1v1h-1zM19 68h1v1h-1zM20 68h1v1h-1zM21 68h1v1h-1zM22 68h1v1h-1z"/><path fill="#DDDBB9" d="M23 68h1v1h-1z"/><path fill="#BCBC93" d="M24 68h1v1h-1z"/><path fill="#B4B489" d="M25 68h1v1h-1zM26 68h1v1h-1zM27 68h1v1h-1zM28 68h1v1h-1z"/><path fill="#7E7A5E" d="M29 68h1v1h-1z"/><path fill="#231815" d="M30 68h1v1h-1zM31 68h1v1h-1zM32 68h1v1h-1zM33 68h1v1h-1zM34 68h1v1h-1zM1 69h1v1H1zM2 69h1v1H2zM3 69h1v1H3zM4 69h1v1H4zM5 69h1v1H5z"/><path fill="#6A6254" d="M6 69h1v1H6z"/><path fill="#E0DEBC" d="M7 69h1v1H7zM8 69h1v1H8zM9 69h1v1H9z"/><path fill="#ECEAD2" d="M10 69h1v1h-1z"/><path fill="#FFFEF6" d="M11 69h1v1h-1zM12 69h1v1h-1zM13 69h1v1h-1zM14 69h1v1h-1zM15 69h1v1h-1z"/><path fill="#ECEAD2" d="M16 69h1v1h-1z"/><path fill="#E0DEBC" d="M17 69h1v1h-1zM18 69h1v1h-1zM19 69h1v1h-1zM20 69h1v1h-1zM21 69h1v1h-1z"/><path fill="#D8D6B2" d="M22 69h1v1h-1z"/><path fill="#BAB98F" d="M23 69h1v1h-1z"/><path fill="#B4B489" d="M24 69h1v1h-1zM25 69h1v1h-1zM26 69h1v1h-1zM27 69h1v1h-1z"/><path fill="#7E7A5E" d="M28 69h1v1h-1z"/><path fill="#231815" d="M29 69h1v1h-1zM30 69h1v1h-1zM31 69h1v1h-1zM32 69h1v1h-1zM33 69h1v1h-1zM1 70h1v1H1zM2 70h1v1H2zM3 70h1v1H3zM4 70h1v1H4z"/><path fill="#5C5544" d="M5 70h1v1H5z"/><path fill="#CAC9A3" d="M6 70h1v1H6z"/><path fill="#D0CEA9" d="M7 70h1v1H7z"/><path fill="#DDDBB9" d="M8 70h1v1H8z"/><path fill="#ECEAD2" d="M9 70h1v1H9z"/><path fill="#FFFEF6" d="M10 70h1v1h-1zM11 70h1v1h-1zM12 70h1v1h-1zM13 70h1v1h-1zM14 70h1v1h-1z"/><path fill="#ECEAD2" d="M15 70h1v1h-1z"/><path fill="#E0DEBC" d="M16 70h1v1h-1zM17 70h1v1h-1zM18 70h1v1h-1zM19 70h1v1h-1zM20 70h1v1h-1z"/><path fill="#D8D6B2" d="M21 70h1v1h-1z"/><path fill="#B7B78C" d="M22 70h1v1h-1z"/><path fill="#B4B489" d="M23 70h1v1h-1zM24 70h1v1h-1zM25 70h1v1h-1zM26 70h1v1h-1z"/><path fill="#7E7A5E" d="M27 70h1v1h-1z"/><path fill="#231815" d="M28 70h1v1h-1zM29 70h1v1h-1zM30 70h1v1h-1zM31 70h1v1h-1zM32 70h1v1h-1zM0 71h1v1H0zM1 71h1v1H1zM2 71h1v1H2zM3 71h1v1H3z"/><path fill="#595341" d="M4 71h1v1H4z"/><path fill="#B4B489" d="M5 71h1v1H5zM6 71h1v1H6zM7 71h1v1H7zM8 71h1v1H8z"/><path fill="#D0D0B2" d="M9 71h1v1H9z"/><path fill="#F6F5E8" d="M10 71h1v1h-1z"/><path fill="#FFFEF6" d="M11 71h1v1h-1zM12 71h1v1h-1zM13 71h1v1h-1z"/><path fill="#ECEAD2" d="M14 71h1v1h-1z"/><path fill="#E0DEBC" d="M15 71h1v1h-1zM16 71h1v1h-1zM17 71h1v1h-1zM18 71h1v1h-1zM19 71h1v1h-1z"/><path fill="#D8D6B2" d="M20 71h1v1h-1z"/><path fill="#B7B78C" d="M21 71h1v1h-1z"/><path fill="#B4B489" d="M22 71h1v1h-1zM23 71h1v1h-1zM24 71h1v1h-1zM25 71h1v1h-1z"/><path fill="#7E7A5E" d="M26 71h1v1h-1z"/><path fill="#231815" d="M27 71h1v1h-1zM28 71h1v1h-1zM29 71h1v1h-1zM30 71h1v1h-1zM31 71h1v1h-1zM0 72h1v1H0zM1 72h1v1H1zM2 72h1v1H2z"/><path fill="#352C24" d="M3 72h1v1H3z"/><path fill="#ABAA82" d="M4 72h1v1H4z"/><path fill="#B4B489" d="M5 72h1v1H5zM6 72h1v1H6zM7 72h1v1H7zM8 72h1v1H8zM9 72h1v1H9z"/><path fill="#B9B990" d="M10 72h1v1h-1z"/><path fill="#E3E2CD" d="M11 72h1v1h-1z"/><path fill="#FFFEF6" d="M12 72h1v1h-1z"/><path fill="#ECEAD2" d="M13 72h1v1h-1z"/><path fill="#E0DEBC" d="M14 72h1v1h-1zM15 72h1v1h-1zM16 72h1v1h-1zM17 72h1v1h-1zM18 72h1v1h-1z"/><path fill="#D8D6B2" d="M19 72h1v1h-1z"/><path fill="#B7B78C" d="M20 72h1v1h-1z"/><path fill="#B4B489" d="M21 72h1v1h-1zM22 72h1v1h-1zM23 72h1v1h-1zM24 72h1v1h-1z"/><path fill="#7E7A5E" d="M25 72h1v1h-1z"/><path fill="#231815" d="M26 72h1v1h-1zM27 72h1v1h-1zM28 72h1v1h-1zM29 72h1v1h-1zM30 72h1v1h-1zM0 73h1v1H0zM1 73h1v1H1zM2 73h1v1H2z"/><path fill="#6C664F" d="M3 73h1v1H3z"/><path fill="#B4B489" d="M4 73h1v1H4zM5 73h1v1H5zM6 73h1v1H6zM7 73h1v1H7zM8 73h1v1H8zM9 73h1v1H9zM10 73h1v1h-1zM11 73h1v1h-1z"/><path fill="#CBCAA7" d="M12 73h1v1h-1z"/><path fill="#E0DEBC" d="M13 73h1v1h-1zM14 73h1v1h-1zM15 73h1v1h-1zM16 73h1v1h-1zM17 73h1v1h-1z"/><path fill="#D8D6B2" d="M18 73h1v1h-1z"/><path fill="#B7B78C" d="M19 73h1v1h-1z"/><path fill="#B4B489" d="M20 73h1v1h-1zM21 73h1v1h-1zM22 73h1v1h-1zM23 73h1v1h-1z"/><path fill="#7E7A5E" d="M24 73h1v1h-1z"/><path fill="#231815" d="M25 73h1v1h-1zM26 73h1v1h-1zM27 73h1v1h-1zM28 73h1v1h-1zM29 73h1v1h-1zM0 74h1v1H0zM1 74h1v1H1zM2 74h1v1H2z"/><path fill="#6C664F" d="M3 74h1v1H3z"/><path fill="#B4B489" d="M4 74h1v1H4zM5 74h1v1H5zM6 74h1v1H6zM7 74h1v1H7zM8 74h1v1H8zM9 74h1v1H9zM10 74h1v1h-1zM11 74h1v1h-1zM12 74h1v1h-1z"/><path fill="#C5C49C" d="M13 74h1v1h-1z"/><path fill="#E0DEBC" d="M14 74h1v1h-1zM15 74h1v1h-1zM16 74h1v1h-1z"/><path fill="#D8D6B2" d="M17 74h1v1h-1z"/><path fill="#B7B78C" d="M18 74h1v1h-1z"/><path fill="#B4B489" d="M19 74h1v1h-1zM20 74h1v1h-1zM21 74h1v1h-1zM22 74h1v1h-1z"/><path fill="#7E7A5E" d="M23 74h1v1h-1z"/><path fill="#231815" d="M24 74h1v1h-1zM25 74h1v1h-1zM26 74h1v1h-1zM27 74h1v1h-1zM28 74h1v1h-1zM0 75h1v1H0zM1 75h1v1H1zM2 75h1v1H2z"/><path fill="#473F32" d="M3 75h1v1H3z"/><path fill="#B4B489" d="M4 75h1v1H4zM5 75h1v1H5zM6 75h1v1H6zM7 75h1v1H7zM8 75h1v1H8zM9 75h1v1H9zM10 75h1v1h-1zM11 75h1v1h-1zM12 75h1v1h-1zM13 75h1v1h-1z"/><path fill="#D0CEA9" d="M14 75h1v1h-1z"/><path fill="#E0DEBC" d="M15 75h1v1h-1z"/><path fill="#D5D4AF" d="M16 75h1v1h-1z"/><path fill="#B7B78C" d="M17 75h1v1h-1z"/><path fill="#B4B489" d="M18 75h1v1h-1zM19 75h1v1h-1zM20 75h1v1h-1zM21 75h1v1h-1z"/><path fill="#7E7A5E" d="M22 75h1v1h-1z"/><path fill="#231815" d="M23 75h1v1h-1zM24 75h1v1h-1zM25 75h1v1h-1zM26 75h1v1h-1zM27 75h1v1h-1zM0 76h1v1H0zM1 76h1v1H1zM2 76h1v1H2zM3 76h1v1H3z"/><path fill="#908D6C" d="M4 76h1v1H4z"/><path fill="#B4B489" d="M5 76h1v1H5zM6 76h1v1H6zM7 76h1v1H7zM8 76h1v1H8zM9 76h1v1H9zM10 76h1v1h-1zM11 76h1v1h-1zM12 76h1v1h-1zM13 76h1v1h-1zM14 76h1v1h-1z"/><path fill="#CAC9A3" d="M15 76h1v1h-1z"/><path fill="#B4B489" d="M16 76h1v1h-1zM17 76h1v1h-1zM18 76h1v1h-1zM19 76h1v1h-1zM20 76h1v1h-1z"/><path fill="#7E7A5E" d="M21 76h1v1h-1z"/><path fill="#231815" d="M22 76h1v1h-1zM23 76h1v1h-1zM24 76h1v1h-1zM25 76h1v1h-1zM26 76h1v1h-1zM0 77h1v1H0zM1 77h1v1H1zM2 77h1v1H2zM3 77h1v1H3z"/><path fill="#3E352B" d="M4 77h1v1H4z"/><path fill="#ABAA82" d="M5 77h1v1H5z"/><path fill="#B4B489" d="M6 77h1v1H6zM7 77h1v1H7zM8 77h1v1H8zM9 77h1v1H9zM10 77h1v1h-1zM11 77h1v1h-1zM12 77h1v1h-1zM13 77h1v1h-1zM14 77h1v1h-1zM15 77h1v1h-1zM16 77h1v1h-1zM17 77h1v1h-1zM18 77h1v1h-1zM19 77h1v1h-1z"/><path fill="#7E7A5E" d="M20 77h1v1h-1z"/><path fill="#231815" d="M21 77h1v1h-1zM22 77h1v1h-1zM23 77h1v1h-1zM24 77h1v1h-1zM25 77h1v1h-1zM1 78h1v1H1zM2 78h1v1H2zM3 78h1v1H3zM4 78h1v1H4z"/><path fill="#473F32" d="M5 78h1v1H5z"/><path fill="#B4B489" d="M6 78h1v1H6zM7 78h1v1H7zM8 78h1v1H8zM9 78h1v1H9zM10 78h1v1h-1zM11 78h1v1h-1zM12 78h1v1h-1zM13 78h1v1h-1zM14 78h1v1h-1zM15 78h1v1h-1zM16 78h1v1h-1zM17 78h1v1h-1zM18 78h1v1h-1z"/><path fill="#7E7A5E" d="M19 78h1v1h-1z"/><path fill="#231815" d="M20 78h1v1h-1zM21 78h1v1h-1zM22 78h1v1h-1zM23 78h1v1h-1zM24 78h1v1h-1zM2 79h1v1H2zM3 79h1v1H3zM4 79h1v1H4zM5 79h1v1H5z"/><path fill="#3E352B" d="M6 79h1v1H6z"/><path fill="#ABAA82" d="M7 79h1v1H7z"/><path fill="#B4B489" d="M8 79h1v1H8zM9 79h1v1H9zM10 79h1v1h-1zM11 79h1v1h-1zM12 79h1v1h-1zM13 79h1v1h-1zM14 79h1v1h-1zM15 79h1v1h-1zM16 79h1v1h-1zM17 79h1v1h-1z"/><path fill="#7E7A5E" d="M18 79h1v1h-1z"/><path fill="#231815" d="M19 79h1v1h-1zM20 79h1v1h-1zM21 79h1v1h-1zM22 79h1v1h-1zM23 79h1v1h-1zM2 80h1v1H2zM3 80h1v1H3zM4 80h1v1H4zM5 80h1v1H5zM6 80h1v1H6z"/><path fill="#352C24" d="M7 80h1v1H7z"/><path fill="#908D6C" d="M8 80h1v1H8z"/><path fill="#B4B489" d="M9 80h1v1H9zM10 80h1v1h-1zM11 80h1v1h-1zM12 80h1v1h-1zM13 80h1v1h-1zM14 80h1v1h-1zM15 80h1v1h-1zM16 80h1v1h-1z"/><path fill="#7E7A5E" d="M17 80h1v1h-1z"/><path fill="#231815" d="M18 80h1v1h-1zM19 80h1v1h-1zM20 80h1v1h-1zM21 80h1v1h-1zM22 80h1v1h-1zM3 81h1v1H3zM4 81h1v1H4zM5 81h1v1H5zM6 81h1v1H6zM7 81h1v1H7zM8 81h1v1H8z"/><path fill="#504939" d="M9 81h1v1H9z"/><path fill="#A2A17B" d="M10 81h1v1h-1z"/><path fill="#B4B489" d="M11 81h1v1h-1zM12 81h1v1h-1zM13 81h1v1h-1zM14 81h1v1h-1zM15 81h1v1h-1z"/><path fill="#7E7A5E" d="M16 81h1v1h-1z"/><path fill="#231815" d="M17 81h1v1h-1zM18 81h1v1h-1zM19 81h1v1h-1zM20 81h1v1h-1zM21 81h1v1h-1zM4 82h1v1H4zM5 82h1v1H5zM6 82h1v1H6zM7 82h1v1H7zM8 82h1v1H8zM9 82h1v1H9zM10 82h1v1h-1z"/><path fill="#3E352B" d="M11 82h1v1h-1z"/><path fill="#757056" d="M12 82h1v1h-1z"/><path fill="#908D6C" d="M13 82h1v1h-1zM14 82h1v1h-1z"/><path fill="#625C48" d="M15 82h1v1h-1z"/><path fill="#231815" d="M16 82h1v1h-1zM17 82h1v1h-1zM18 82h1v1h-1zM19 82h1v1h-1zM20 82h1v1h-1zM6 83h1v1H6zM7 83h1v1H7zM8 83h1v1H8zM9 83h1v1H9zM10 83h1v1h-1zM11 83h1v1h-1zM12 83h1v1h-1zM13 83h1v1h-1zM14 83h1v1h-1zM15 83h1v1h-1zM16 83h1v1h-1zM17 83h1v1h-1zM18 83h1v1h-1zM19 83h1v1h-1zM7 84h1v1H7zM8 84h1v1H8zM9 84h1v1H9zM10 84h1v1h-1zM11 84h1v1h-1zM12 84h1v1h-1zM13 84h1v1h-1zM14 84h1v1h-1zM15 84h1v1h-1zM16 84h1v1h-1zM17 84h1v1h-1zM18 84h1v1h-1zM9 85h1v1H9zM10 85h1v1h-1zM11 85h1v1h-1zM12 85h1v1h-1zM13 85h1v1h-1zM14 85h1v1h-1zM15 85h1v1h-1zM16 85h1v1h-1zM17 85h1v1h-1z"/></svg>