<svg baseProfile="full" height="90" width="88" xmlns="http://www.w3.org/2000/svg"><path fill="#231815" d="M41 0h1v1h-1zM42 0h1v1h-1zM43 0h1v1h-1zM44 0h1v1h-1zM40 1h1v1h-1zM41 1h1v1h-1zM42 1h1v1h-1zM43 1h1v1h-1zM44 1h1v1h-1zM45 1h1v1h-1zM40 2h1v1h-1zM41 2h1v1h-1zM42 2h1v1h-1zM43 2h1v1h-1zM44 2h1v1h-1zM45 2h1v1h-1zM39 3h1v1h-1zM40 3h1v1h-1zM41 3h1v1h-1zM42 3h1v1h-1zM43 3h1v1h-1zM44 3h1v1h-1zM45 3h1v1h-1zM46 3h1v1h-1zM39 4h1v1h-1zM40 4h1v1h-1zM41 4h1v1h-1zM42 4h1v1h-1zM43 4h1v1h-1zM44 4h1v1h-1zM45 4h1v1h-1zM46 4h1v1h-1zM38 5h1v1h-1zM39 5h1v1h-1zM40 5h1v1h-1zM41 5h1v1h-1z"/><path fill="#5C6464" d="M42 5h1v1h-1z"/><path fill="#494B4A" d="M43 5h1v1h-1z"/><path fill="#231815" d="M44 5h1v1h-1zM45 5h1v1h-1zM46 5h1v1h-1zM47 5h1v1h-1zM38 6h1v1h-1zM39 6h1v1h-1zM40 6h1v1h-1zM41 6h1v1h-1z"/><path fill="#95B0B3" d="M42 6h1v1h-1z"/><path fill="#8CA3A6" d="M43 6h1v1h-1z"/><path fill="#231815" d="M44 6h1v1h-1zM45 6h1v1h-1zM46 6h1v1h-1zM47 6h1v1h-1zM38 7h1v1h-1zM39 7h1v1h-1zM40 7h1v1h-1z"/><path fill="#36312F" d="M41 7h1v1h-1z"/><path fill="#BBE2E8" d="M42 7h1v1h-1zM43 7h1v1h-1z"/><path fill="#36312F" d="M44 7h1v1h-1z"/><path fill="#231815" d="M45 7h1v1h-1zM46 7h1v1h-1zM47 7h1v1h-1zM48 7h1v1h-1zM37 8h1v1h-1zM38 8h1v1h-1zM39 8h1v1h-1zM40 8h1v1h-1z"/><path fill="#6F7D7F" d="M41 8h1v1h-1z"/><path fill="#BBE2E8" d="M42 8h1v1h-1zM43 8h1v1h-1z"/><path fill="#798A8C" d="M44 8h1v1h-1z"/><path fill="#231815" d="M45 8h1v1h-1zM46 8h1v1h-1zM47 8h1v1h-1zM48 8h1v1h-1zM37 9h1v1h-1zM38 9h1v1h-1zM39 9h1v1h-1zM40 9h1v1h-1z"/><path fill="#A8C9CE" d="M41 9h1v1h-1z"/><path fill="#BBE2E8" d="M42 9h1v1h-1zM43 9h1v1h-1z"/><path fill="#B2D5DB" d="M44 9h1v1h-1z"/><path fill="#231815" d="M45 9h1v1h-1zM46 9h1v1h-1zM47 9h1v1h-1zM48 9h1v1h-1zM36 10h1v1h-1zM37 10h1v1h-1zM38 10h1v1h-1zM39 10h1v1h-1z"/><path fill="#403E3D" d="M40 10h1v1h-1z"/><path fill="#BBE2E8" d="M41 10h1v1h-1zM42 10h1v1h-1zM43 10h1v1h-1zM44 10h1v1h-1z"/><path fill="#5C6464" d="M45 10h1v1h-1z"/><path fill="#231815" d="M46 10h1v1h-1zM47 10h1v1h-1zM48 10h1v1h-1zM49 10h1v1h-1zM36 11h1v1h-1zM37 11h1v1h-1zM38 11h1v1h-1zM39 11h1v1h-1z"/><path fill="#798A8C" d="M40 11h1v1h-1z"/><path fill="#BBE2E8" d="M41 11h1v1h-1zM42 11h1v1h-1zM43 11h1v1h-1zM44 11h1v1h-1z"/><path fill="#8CA3A6" d="M45 11h1v1h-1z"/><path fill="#231815" d="M46 11h1v1h-1zM47 11h1v1h-1zM48 11h1v1h-1zM49 11h1v1h-1zM36 12h1v1h-1zM37 12h1v1h-1zM38 12h1v1h-1zM39 12h1v1h-1z"/><path fill="#B2D5DB" d="M40 12h1v1h-1z"/><path fill="#BBE2E8" d="M41 12h1v1h-1zM42 12h1v1h-1zM43 12h1v1h-1zM44 12h1v1h-1zM45 12h1v1h-1z"/><path fill="#36312F" d="M46 12h1v1h-1z"/><path fill="#231815" d="M47 12h1v1h-1zM48 12h1v1h-1zM49 12h1v1h-1zM12 13h1v1h-1zM13 13h1v1h-1zM14 13h1v1h-1zM15 13h1v1h-1zM16 13h1v1h-1zM17 13h1v1h-1zM18 13h1v1h-1zM35 13h1v1h-1zM36 13h1v1h-1zM37 13h1v1h-1zM38 13h1v1h-1z"/><path fill="#535757" d="M39 13h1v1h-1z"/><path fill="#BBE2E8" d="M40 13h1v1h-1zM41 13h1v1h-1zM42 13h1v1h-1zM43 13h1v1h-1zM44 13h1v1h-1zM45 13h1v1h-1z"/><path fill="#6F7D7F" d="M46 13h1v1h-1z"/><path fill="#231815" d="M47 13h1v1h-1zM48 13h1v1h-1zM49 13h1v1h-1zM50 13h1v1h-1zM72 13h1v1h-1zM73 13h1v1h-1zM74 13h1v1h-1zM75 13h1v1h-1zM76 13h1v1h-1zM12 14h1v1h-1zM13 14h1v1h-1zM14 14h1v1h-1zM15 14h1v1h-1zM16 14h1v1h-1zM17 14h1v1h-1zM18 14h1v1h-1zM19 14h1v1h-1zM20 14h1v1h-1zM35 14h1v1h-1zM36 14h1v1h-1zM37 14h1v1h-1zM38 14h1v1h-1z"/><path fill="#829699" d="M39 14h1v1h-1z"/><path fill="#BBE2E8" d="M40 14h1v1h-1zM41 14h1v1h-1zM42 14h1v1h-1zM43 14h1v1h-1zM44 14h1v1h-1zM45 14h1v1h-1z"/><path fill="#A8C9CE" d="M46 14h1v1h-1z"/><path fill="#231815" d="M47 14h1v1h-1zM48 14h1v1h-1zM49 14h1v1h-1zM50 14h1v1h-1zM69 14h1v1h-1zM70 14h1v1h-1zM71 14h1v1h-1zM72 14h1v1h-1zM73 14h1v1h-1zM74 14h1v1h-1zM75 14h1v1h-1zM76 14h1v1h-1zM12 15h1v1h-1zM13 15h1v1h-1zM14 15h1v1h-1zM15 15h1v1h-1zM16 15h1v1h-1zM17 15h1v1h-1zM18 15h1v1h-1zM19 15h1v1h-1zM20 15h1v1h-1zM21 15h1v1h-1zM22 15h1v1h-1zM35 15h1v1h-1zM36 15h1v1h-1zM37 15h1v1h-1z"/><path fill="#2D2522" d="M38 15h1v1h-1z"/><path fill="#BBE2E8" d="M39 15h1v1h-1zM40 15h1v1h-1zM41 15h1v1h-1zM42 15h1v1h-1zM43 15h1v1h-1zM44 15h1v1h-1zM45 15h1v1h-1zM46 15h1v1h-1z"/><path fill="#535757" d="M47 15h1v1h-1z"/><path fill="#231815" d="M48 15h1v1h-1zM49 15h1v1h-1zM50 15h1v1h-1zM51 15h1v1h-1zM66 15h1v1h-1zM67 15h1v1h-1zM68 15h1v1h-1zM69 15h1v1h-1zM70 15h1v1h-1zM71 15h1v1h-1zM72 15h1v1h-1zM73 15h1v1h-1zM74 15h1v1h-1zM75 15h1v1h-1zM76 15h1v1h-1zM77 15h1v1h-1zM12 16h1v1h-1zM13 16h1v1h-1zM14 16h1v1h-1zM15 16h1v1h-1zM16 16h1v1h-1zM17 16h1v1h-1zM18 16h1v1h-1zM19 16h1v1h-1zM20 16h1v1h-1zM21 16h1v1h-1zM22 16h1v1h-1zM23 16h1v1h-1zM24 16h1v1h-1zM25 16h1v1h-1zM34 16h1v1h-1zM35 16h1v1h-1zM36 16h1v1h-1zM37 16h1v1h-1z"/><path fill="#5C6464" d="M38 16h1v1h-1z"/><path fill="#BBE2E8" d="M39 16h1v1h-1zM40 16h1v1h-1zM41 16h1v1h-1zM42 16h1v1h-1zM43 16h1v1h-1zM44 16h1v1h-1zM45 16h1v1h-1zM46 16h1v1h-1z"/><path fill="#8CA3A6" d="M47 16h1v1h-1z"/><path fill="#231815" d="M48 16h1v1h-1zM49 16h1v1h-1zM50 16h1v1h-1zM51 16h1v1h-1zM63 16h1v1h-1zM64 16h1v1h-1zM65 16h1v1h-1zM66 16h1v1h-1zM67 16h1v1h-1zM68 16h1v1h-1zM69 16h1v1h-1zM70 16h1v1h-1zM71 16h1v1h-1zM72 16h1v1h-1zM73 16h1v1h-1zM74 16h1v1h-1zM75 16h1v1h-1zM76 16h1v1h-1zM77 16h1v1h-1zM12 17h1v1h-1zM13 17h1v1h-1zM14 17h1v1h-1zM15 17h1v1h-1z"/><path fill="#638E99" d="M16 17h1v1h-1z"/><path fill="#537078" d="M17 17h1v1h-1z"/><path fill="#2E2C2B" d="M18 17h1v1h-1z"/><path fill="#231815" d="M19 17h1v1h-1zM20 17h1v1h-1zM21 17h1v1h-1zM22 17h1v1h-1zM23 17h1v1h-1zM24 17h1v1h-1zM25 17h1v1h-1zM26 17h1v1h-1zM27 17h1v1h-1zM34 17h1v1h-1zM35 17h1v1h-1zM36 17h1v1h-1zM37 17h1v1h-1z"/><path fill="#9FBCC0" d="M38 17h1v1h-1z"/><path fill="#BBE2E8" d="M39 17h1v1h-1zM40 17h1v1h-1zM41 17h1v1h-1zM42 17h1v1h-1zM43 17h1v1h-1zM44 17h1v1h-1zM45 17h1v1h-1zM46 17h1v1h-1zM47 17h1v1h-1z"/><path fill="#36312F" d="M48 17h1v1h-1z"/><path fill="#231815" d="M49 17h1v1h-1zM50 17h1v1h-1zM51 17h1v1h-1zM52 17h1v1h-1zM60 17h1v1h-1zM61 17h1v1h-1zM62 17h1v1h-1zM63 17h1v1h-1zM64 17h1v1h-1zM65 17h1v1h-1zM66 17h1v1h-1zM67 17h1v1h-1zM68 17h1v1h-1zM69 17h1v1h-1zM70 17h1v1h-1z"/><path fill="#333536" d="M71 17h1v1h-1z"/><path fill="#4E676D" d="M72 17h1v1h-1z"/><path fill="#485D62" d="M73 17h1v1h-1z"/><path fill="#231815" d="M74 17h1v1h-1zM75 17h1v1h-1zM76 17h1v1h-1zM77 17h1v1h-1zM12 18h1v1h-1zM13 18h1v1h-1zM14 18h1v1h-1zM15 18h1v1h-1z"/><path fill="#435357" d="M16 18h1v1h-1z"/><path fill="#78B5C5" d="M17 18h1v1h-1zM18 18h1v1h-1z"/><path fill="#638E99" d="M19 18h1v1h-1z"/><path fill="#383F41" d="M20 18h1v1h-1z"/><path fill="#231815" d="M21 18h1v1h-1zM22 18h1v1h-1zM23 18h1v1h-1zM24 18h1v1h-1zM25 18h1v1h-1zM26 18h1v1h-1zM27 18h1v1h-1zM28 18h1v1h-1zM29 18h1v1h-1zM30 18h1v1h-1zM33 18h1v1h-1zM34 18h1v1h-1zM35 18h1v1h-1zM36 18h1v1h-1z"/><path fill="#403E3D" d="M37 18h1v1h-1z"/><path fill="#BBE2E8" d="M38 18h1v1h-1zM39 18h1v1h-1zM40 18h1v1h-1zM41 18h1v1h-1zM42 18h1v1h-1zM43 18h1v1h-1zM44 18h1v1h-1zM45 18h1v1h-1zM46 18h1v1h-1zM47 18h1v1h-1z"/><path fill="#798A8C" d="M48 18h1v1h-1z"/><path fill="#231815" d="M49 18h1v1h-1zM50 18h1v1h-1zM51 18h1v1h-1zM52 18h1v1h-1zM57 18h1v1h-1zM58 18h1v1h-1zM59 18h1v1h-1zM60 18h1v1h-1zM61 18h1v1h-1zM62 18h1v1h-1zM63 18h1v1h-1zM64 18h1v1h-1zM65 18h1v1h-1zM66 18h1v1h-1zM67 18h1v1h-1z"/><path fill="#2E2C2B" d="M68 18h1v1h-1z"/><path fill="#537078" d="M69 18h1v1h-1z"/><path fill="#6DA1AF" d="M70 18h1v1h-1z"/><path fill="#78B5C5" d="M71 18h1v1h-1zM72 18h1v1h-1z"/><path fill="#3E494C" d="M73 18h1v1h-1z"/><path fill="#231815" d="M74 18h1v1h-1zM75 18h1v1h-1zM76 18h1v1h-1zM13 19h1v1h-1zM14 19h1v1h-1zM15 19h1v1h-1z"/><path fill="#282220" d="M16 19h1v1h-1z"/><path fill="#73ABBA" d="M17 19h1v1h-1z"/><path fill="#78B5C5" d="M18 19h1v1h-1zM19 19h1v1h-1zM20 19h1v1h-1z"/><path fill="#6DA1AF" d="M21 19h1v1h-1z"/><path fill="#435357" d="M22 19h1v1h-1z"/><path fill="#282220" d="M23 19h1v1h-1z"/><path fill="#231815" d="M24 19h1v1h-1zM25 19h1v1h-1zM26 19h1v1h-1zM27 19h1v1h-1zM28 19h1v1h-1zM29 19h1v1h-1zM30 19h1v1h-1zM31 19h1v1h-1zM32 19h1v1h-1zM33 19h1v1h-1zM34 19h1v1h-1zM35 19h1v1h-1zM36 19h1v1h-1z"/><path fill="#829699" d="M37 19h1v1h-1z"/><path fill="#BBE2E8" d="M38 19h1v1h-1zM39 19h1v1h-1zM40 19h1v1h-1zM41 19h1v1h-1zM42 19h1v1h-1zM43 19h1v1h-1zM44 19h1v1h-1zM45 19h1v1h-1zM46 19h1v1h-1zM47 19h1v1h-1z"/><path fill="#B2D5DB" d="M48 19h1v1h-1z"/><path fill="#2D2522" d="M49 19h1v1h-1z"/><path fill="#231815" d="M50 19h1v1h-1zM51 19h1v1h-1zM52 19h1v1h-1zM54 19h1v1h-1zM55 19h1v1h-1zM56 19h1v1h-1zM57 19h1v1h-1zM58 19h1v1h-1zM59 19h1v1h-1zM60 19h1v1h-1zM61 19h1v1h-1zM62 19h1v1h-1zM63 19h1v1h-1zM64 19h1v1h-1z"/><path fill="#2E2C2B" d="M65 19h1v1h-1z"/><path fill="#485D62" d="M66 19h1v1h-1z"/><path fill="#6898A4" d="M67 19h1v1h-1z"/><path fill="#78B5C5" d="M68 19h1v1h-1zM69 19h1v1h-1zM70 19h1v1h-1zM71 19h1v1h-1z"/><path fill="#73ABBA" d="M72 19h1v1h-1z"/><path fill="#231815" d="M73 19h1v1h-1zM74 19h1v1h-1zM75 19h1v1h-1zM76 19h1v1h-1zM13 20h1v1h-1zM14 20h1v1h-1zM15 20h1v1h-1zM16 20h1v1h-1z"/><path fill="#537078" d="M17 20h1v1h-1z"/><path fill="#78B5C5" d="M18 20h1v1h-1zM19 20h1v1h-1zM20 20h1v1h-1zM21 20h1v1h-1zM22 20h1v1h-1z"/><path fill="#73ABBA" d="M23 20h1v1h-1z"/><path fill="#587A83" d="M24 20h1v1h-1z"/><path fill="#333536" d="M25 20h1v1h-1z"/><path fill="#231815" d="M26 20h1v1h-1zM27 20h1v1h-1zM28 20h1v1h-1zM29 20h1v1h-1zM30 20h1v1h-1zM31 20h1v1h-1zM32 20h1v1h-1zM33 20h1v1h-1zM34 20h1v1h-1zM35 20h1v1h-1z"/><path fill="#2D2522" d="M36 20h1v1h-1z"/><path fill="#B2D5DB" d="M37 20h1v1h-1z"/><path fill="#BBE2E8" d="M38 20h1v1h-1zM39 20h1v1h-1zM40 20h1v1h-1zM41 20h1v1h-1zM42 20h1v1h-1zM43 20h1v1h-1zM44 20h1v1h-1zM45 20h1v1h-1zM46 20h1v1h-1zM47 20h1v1h-1zM48 20h1v1h-1z"/><path fill="#5C6464" d="M49 20h1v1h-1z"/><path fill="#231815" d="M50 20h1v1h-1zM51 20h1v1h-1zM52 20h1v1h-1zM53 20h1v1h-1zM54 20h1v1h-1zM55 20h1v1h-1zM56 20h1v1h-1zM57 20h1v1h-1zM58 20h1v1h-1zM59 20h1v1h-1zM60 20h1v1h-1zM61 20h1v1h-1z"/><path fill="#282220" d="M62 20h1v1h-1z"/><path fill="#435357" d="M63 20h1v1h-1z"/><path fill="#5D848E" d="M64 20h1v1h-1z"/><path fill="#78B5C5" d="M65 20h1v1h-1zM66 20h1v1h-1zM67 20h1v1h-1zM68 20h1v1h-1zM69 20h1v1h-1zM70 20h1v1h-1zM71 20h1v1h-1z"/><path fill="#587A83" d="M72 20h1v1h-1z"/><path fill="#231815" d="M73 20h1v1h-1zM74 20h1v1h-1zM75 20h1v1h-1zM76 20h1v1h-1zM13 21h1v1h-1zM14 21h1v1h-1zM15 21h1v1h-1zM16 21h1v1h-1z"/><path fill="#2E2C2B" d="M17 21h1v1h-1z"/><path fill="#78B5C5" d="M18 21h1v1h-1zM19 21h1v1h-1zM20 21h1v1h-1zM21 21h1v1h-1zM22 21h1v1h-1zM23 21h1v1h-1zM24 21h1v1h-1zM25 21h1v1h-1z"/><path fill="#6898A4" d="M26 21h1v1h-1z"/><path fill="#485D62" d="M27 21h1v1h-1z"/><path fill="#282220" d="M28 21h1v1h-1z"/><path fill="#231815" d="M29 21h1v1h-1zM30 21h1v1h-1zM31 21h1v1h-1zM32 21h1v1h-1zM33 21h1v1h-1zM34 21h1v1h-1zM35 21h1v1h-1z"/><path fill="#667071" d="M36 21h1v1h-1z"/><path fill="#BBE2E8" d="M37 21h1v1h-1zM38 21h1v1h-1zM39 21h1v1h-1zM40 21h1v1h-1zM41 21h1v1h-1zM42 21h1v1h-1zM43 21h1v1h-1zM44 21h1v1h-1zM45 21h1v1h-1zM46 21h1v1h-1zM47 21h1v1h-1zM48 21h1v1h-1z"/><path fill="#A8C9CE" d="M49 21h1v1h-1z"/><path fill="#231815" d="M50 21h1v1h-1zM51 21h1v1h-1zM52 21h1v1h-1zM53 21h1v1h-1zM54 21h1v1h-1zM55 21h1v1h-1zM56 21h1v1h-1zM57 21h1v1h-1zM58 21h1v1h-1z"/><path fill="#282220" d="M59 21h1v1h-1z"/><path fill="#435357" d="M60 21h1v1h-1z"/><path fill="#5D848E" d="M61 21h1v1h-1z"/><path fill="#78B5C5" d="M62 21h1v1h-1zM63 21h1v1h-1zM64 21h1v1h-1zM65 21h1v1h-1zM66 21h1v1h-1zM67 21h1v1h-1zM68 21h1v1h-1zM69 21h1v1h-1zM70 21h1v1h-1zM71 21h1v1h-1z"/><path fill="#333536" d="M72 21h1v1h-1z"/><path fill="#231815" d="M73 21h1v1h-1zM74 21h1v1h-1zM75 21h1v1h-1zM76 21h1v1h-1zM14 22h1v1h-1zM15 22h1v1h-1zM16 22h1v1h-1zM17 22h1v1h-1z"/><path fill="#587A83" d="M18 22h1v1h-1z"/><path fill="#78B5C5" d="M19 22h1v1h-1zM20 22h1v1h-1zM21 22h1v1h-1zM22 22h1v1h-1zM23 22h1v1h-1zM24 22h1v1h-1zM25 22h1v1h-1zM26 22h1v1h-1zM27 22h1v1h-1zM28 22h1v1h-1z"/><path fill="#5D848E" d="M29 22h1v1h-1z"/><path fill="#435357" d="M30 22h1v1h-1z"/><path fill="#282220" d="M31 22h1v1h-1z"/><path fill="#231815" d="M32 22h1v1h-1zM33 22h1v1h-1zM34 22h1v1h-1zM35 22h1v1h-1z"/><path fill="#A8C9CE" d="M36 22h1v1h-1z"/><path fill="#BBE2E8" d="M37 22h1v1h-1zM38 22h1v1h-1zM39 22h1v1h-1zM40 22h1v1h-1zM41 22h1v1h-1zM42 22h1v1h-1zM43 22h1v1h-1zM44 22h1v1h-1zM45 22h1v1h-1zM46 22h1v1h-1zM47 22h1v1h-1zM48 22h1v1h-1zM49 22h1v1h-1z"/><path fill="#5C6464" d="M50 22h1v1h-1z"/><path fill="#231815" d="M51 22h1v1h-1zM52 22h1v1h-1zM53 22h1v1h-1zM54 22h1v1h-1zM55 22h1v1h-1z"/><path fill="#282220" d="M56 22h1v1h-1z"/><path fill="#435357" d="M57 22h1v1h-1z"/><path fill="#5D848E" d="M58 22h1v1h-1z"/><path fill="#78B5C5" d="M59 22h1v1h-1zM60 22h1v1h-1zM61 22h1v1h-1zM62 22h1v1h-1zM63 22h1v1h-1zM64 22h1v1h-1zM65 22h1v1h-1zM66 22h1v1h-1zM67 22h1v1h-1zM68 22h1v1h-1zM69 22h1v1h-1zM70 22h1v1h-1z"/><path fill="#6898A4" d="M71 22h1v1h-1z"/><path fill="#231815" d="M72 22h1v1h-1zM73 22h1v1h-1zM74 22h1v1h-1zM75 22h1v1h-1zM14 23h1v1h-1zM15 23h1v1h-1zM16 23h1v1h-1zM17 23h1v1h-1z"/><path fill="#383F41" d="M18 23h1v1h-1z"/><path fill="#78B5C5" d="M19 23h1v1h-1zM20 23h1v1h-1zM21 23h1v1h-1zM22 23h1v1h-1zM23 23h1v1h-1zM24 23h1v1h-1zM25 23h1v1h-1zM26 23h1v1h-1zM27 23h1v1h-1zM28 23h1v1h-1zM29 23h1v1h-1zM30 23h1v1h-1z"/><path fill="#587A83" d="M31 23h1v1h-1z"/><path fill="#231815" d="M32 23h1v1h-1zM33 23h1v1h-1zM34 23h1v1h-1z"/><path fill="#5C6464" d="M35 23h1v1h-1z"/><path fill="#BBE2E8" d="M36 23h1v1h-1zM37 23h1v1h-1zM38 23h1v1h-1zM39 23h1v1h-1zM40 23h1v1h-1zM41 23h1v1h-1zM42 23h1v1h-1zM43 23h1v1h-1zM44 23h1v1h-1zM45 23h1v1h-1zM46 23h1v1h-1zM47 23h1v1h-1zM48 23h1v1h-1zM49 23h1v1h-1z"/><path fill="#A8C9CE" d="M50 23h1v1h-1z"/><path fill="#231815" d="M51 23h1v1h-1zM52 23h1v1h-1zM53 23h1v1h-1zM54 23h1v1h-1z"/><path fill="#638E99" d="M55 23h1v1h-1z"/><path fill="#78B5C5" d="M56 23h1v1h-1zM57 23h1v1h-1zM58 23h1v1h-1zM59 23h1v1h-1zM60 23h1v1h-1zM61 23h1v1h-1zM62 23h1v1h-1zM63 23h1v1h-1zM64 23h1v1h-1zM65 23h1v1h-1zM66 23h1v1h-1zM67 23h1v1h-1zM68 23h1v1h-1zM69 23h1v1h-1zM70 23h1v1h-1z"/><path fill="#435357" d="M71 23h1v1h-1z"/><path fill="#231815" d="M72 23h1v1h-1zM73 23h1v1h-1zM74 23h1v1h-1zM75 23h1v1h-1zM15 24h1v1h-1zM16 24h1v1h-1zM17 24h1v1h-1zM18 24h1v1h-1z"/><path fill="#638E99" d="M19 24h1v1h-1z"/><path fill="#78B5C5" d="M20 24h1v1h-1zM21 24h1v1h-1zM22 24h1v1h-1zM23 24h1v1h-1zM24 24h1v1h-1zM25 24h1v1h-1zM26 24h1v1h-1zM27 24h1v1h-1zM28 24h1v1h-1zM29 24h1v1h-1z"/><path fill="#73ABBA" d="M30 24h1v1h-1z"/><path fill="#282220" d="M31 24h1v1h-1z"/><path fill="#231815" d="M32 24h1v1h-1zM33 24h1v1h-1zM34 24h1v1h-1z"/><path fill="#A8C9CE" d="M35 24h1v1h-1z"/><path fill="#BBE2E8" d="M36 24h1v1h-1zM37 24h1v1h-1zM38 24h1v1h-1zM39 24h1v1h-1zM40 24h1v1h-1zM41 24h1v1h-1zM42 24h1v1h-1zM43 24h1v1h-1zM44 24h1v1h-1zM45 24h1v1h-1zM46 24h1v1h-1zM47 24h1v1h-1zM48 24h1v1h-1zM49 24h1v1h-1zM50 24h1v1h-1z"/><path fill="#5C6464" d="M51 24h1v1h-1z"/><path fill="#231815" d="M52 24h1v1h-1zM53 24h1v1h-1zM54 24h1v1h-1z"/><path fill="#587A83" d="M55 24h1v1h-1z"/><path fill="#78B5C5" d="M56 24h1v1h-1zM57 24h1v1h-1zM58 24h1v1h-1zM59 24h1v1h-1zM60 24h1v1h-1zM61 24h1v1h-1zM62 24h1v1h-1zM63 24h1v1h-1zM64 24h1v1h-1zM65 24h1v1h-1zM66 24h1v1h-1zM67 24h1v1h-1zM68 24h1v1h-1zM69 24h1v1h-1zM70 24h1v1h-1z"/><path fill="#282220" d="M71 24h1v1h-1z"/><path fill="#231815" d="M72 24h1v1h-1zM73 24h1v1h-1zM74 24h1v1h-1zM15 25h1v1h-1zM16 25h1v1h-1zM17 25h1v1h-1zM18 25h1v1h-1z"/><path fill="#435357" d="M19 25h1v1h-1z"/><path fill="#78B5C5" d="M20 25h1v1h-1zM21 25h1v1h-1zM22 25h1v1h-1zM23 25h1v1h-1zM24 25h1v1h-1zM25 25h1v1h-1zM26 25h1v1h-1zM27 25h1v1h-1zM28 25h1v1h-1zM29 25h1v1h-1z"/><path fill="#485D62" d="M30 25h1v1h-1z"/><path fill="#231815" d="M31 25h1v1h-1zM32 25h1v1h-1zM33 25h1v1h-1z"/><path fill="#616E6F" d="M34 25h1v1h-1z"/><path fill="#BBE2E8" d="M35 25h1v1h-1zM36 25h1v1h-1zM37 25h1v1h-1zM38 25h1v1h-1zM39 25h1v1h-1zM40 25h1v1h-1zM41 25h1v1h-1zM42 25h1v1h-1zM43 25h1v1h-1zM44 25h1v1h-1zM45 25h1v1h-1zM46 25h1v1h-1zM47 25h1v1h-1zM48 25h1v1h-1zM49 25h1v1h-1zM50 25h1v1h-1z"/><path fill="#A8C9CE" d="M51 25h1v1h-1z"/><path fill="#231815" d="M52 25h1v1h-1zM53 25h1v1h-1zM54 25h1v1h-1z"/><path fill="#2E2C2B" d="M55 25h1v1h-1z"/><path fill="#78B5C5" d="M56 25h1v1h-1zM57 25h1v1h-1zM58 25h1v1h-1zM59 25h1v1h-1zM60 25h1v1h-1zM61 25h1v1h-1zM62 25h1v1h-1zM63 25h1v1h-1zM64 25h1v1h-1zM65 25h1v1h-1zM66 25h1v1h-1zM67 25h1v1h-1zM68 25h1v1h-1zM69 25h1v1h-1z"/><path fill="#587A83" d="M70 25h1v1h-1z"/><path fill="#231815" d="M71 25h1v1h-1zM72 25h1v1h-1zM73 25h1v1h-1zM74 25h1v1h-1zM16 26h1v1h-1zM17 26h1v1h-1zM18 26h1v1h-1zM19 26h1v1h-1z"/><path fill="#73ABBA" d="M20 26h1v1h-1z"/><path fill="#78B5C5" d="M21 26h1v1h-1zM22 26h1v1h-1zM23 26h1v1h-1zM24 26h1v1h-1zM25 26h1v1h-1zM26 26h1v1h-1zM27 26h1v1h-1zM28 26h1v1h-1z"/><path fill="#6898A4" d="M29 26h1v1h-1z"/><path fill="#231815" d="M30 26h1v1h-1zM31 26h1v1h-1zM32 26h1v1h-1z"/><path fill="#282220" d="M33 26h1v1h-1z"/><path fill="#94C2CC" d="M34 26h1v1h-1z"/><path fill="#BBE2E8" d="M35 26h1v1h-1zM36 26h1v1h-1zM37 26h1v1h-1zM38 26h1v1h-1zM39 26h1v1h-1zM40 26h1v1h-1zM41 26h1v1h-1zM42 26h1v1h-1zM43 26h1v1h-1zM44 26h1v1h-1zM45 26h1v1h-1zM46 26h1v1h-1zM47 26h1v1h-1zM48 26h1v1h-1zM49 26h1v1h-1zM50 26h1v1h-1zM51 26h1v1h-1z"/><path fill="#5C6464" d="M52 26h1v1h-1z"/><path fill="#231815" d="M53 26h1v1h-1zM54 26h1v1h-1z"/><path fill="#2E2C2B" d="M55 26h1v1h-1z"/><path fill="#78B5C5" d="M56 26h1v1h-1zM57 26h1v1h-1zM58 26h1v1h-1zM59 26h1v1h-1zM60 26h1v1h-1zM61 26h1v1h-1zM62 26h1v1h-1zM63 26h1v1h-1zM64 26h1v1h-1zM65 26h1v1h-1zM66 26h1v1h-1zM67 26h1v1h-1zM68 26h1v1h-1zM69 26h1v1h-1z"/><path fill="#383F41" d="M70 26h1v1h-1z"/><path fill="#231815" d="M71 26h1v1h-1zM72 26h1v1h-1zM73 26h1v1h-1zM74 26h1v1h-1zM16 27h1v1h-1zM17 27h1v1h-1zM18 27h1v1h-1zM19 27h1v1h-1z"/><path fill="#537078" d="M20 27h1v1h-1z"/><path fill="#78B5C5" d="M21 27h1v1h-1zM22 27h1v1h-1zM23 27h1v1h-1zM24 27h1v1h-1zM25 27h1v1h-1zM26 27h1v1h-1zM27 27h1v1h-1zM28 27h1v1h-1z"/><path fill="#638E99" d="M29 27h1v1h-1z"/><path fill="#231815" d="M30 27h1v1h-1zM31 27h1v1h-1zM32 27h1v1h-1z"/><path fill="#537078" d="M33 27h1v1h-1z"/><path fill="#8DC3D0" d="M34 27h1v1h-1z"/><path fill="#BBE2E8" d="M35 27h1v1h-1zM36 27h1v1h-1zM37 27h1v1h-1zM38 27h1v1h-1zM39 27h1v1h-1zM40 27h1v1h-1zM41 27h1v1h-1zM42 27h1v1h-1zM43 27h1v1h-1zM44 27h1v1h-1zM45 27h1v1h-1zM46 27h1v1h-1zM47 27h1v1h-1zM48 27h1v1h-1zM49 27h1v1h-1zM50 27h1v1h-1zM51 27h1v1h-1z"/><path fill="#B2D5DB" d="M52 27h1v1h-1z"/><path fill="#5C6464" d="M53 27h1v1h-1z"/><path fill="#464F50" d="M54 27h1v1h-1z"/><path fill="#6898A4" d="M55 27h1v1h-1z"/><path fill="#78B5C5" d="M56 27h1v1h-1zM57 27h1v1h-1zM58 27h1v1h-1zM59 27h1v1h-1zM60 27h1v1h-1zM61 27h1v1h-1zM62 27h1v1h-1zM63 27h1v1h-1zM64 27h1v1h-1zM65 27h1v1h-1zM66 27h1v1h-1zM67 27h1v1h-1zM68 27h1v1h-1z"/><path fill="#6DA1AF" d="M69 27h1v1h-1z"/><path fill="#231815" d="M70 27h1v1h-1zM71 27h1v1h-1zM72 27h1v1h-1zM73 27h1v1h-1zM16 28h1v1h-1zM17 28h1v1h-1zM18 28h1v1h-1zM19 28h1v1h-1z"/><path fill="#2E2C2B" d="M20 28h1v1h-1z"/><path fill="#78B5C5" d="M21 28h1v1h-1zM22 28h1v1h-1zM23 28h1v1h-1zM24 28h1v1h-1zM25 28h1v1h-1zM26 28h1v1h-1zM27 28h1v1h-1zM28 28h1v1h-1z"/><path fill="#73ABBA" d="M29 28h1v1h-1z"/><path fill="#383F41" d="M30 28h1v1h-1z"/><path fill="#231815" d="M31 28h1v1h-1z"/><path fill="#435357" d="M32 28h1v1h-1z"/><path fill="#78B5C5" d="M33 28h1v1h-1z"/><path fill="#7CB8C7" d="M34 28h1v1h-1z"/><path fill="#B7DFE6" d="M35 28h1v1h-1z"/><path fill="#BBE2E8" d="M36 28h1v1h-1zM37 28h1v1h-1zM38 28h1v1h-1zM39 28h1v1h-1zM40 28h1v1h-1zM41 28h1v1h-1zM42 28h1v1h-1zM43 28h1v1h-1zM44 28h1v1h-1zM45 28h1v1h-1zM46 28h1v1h-1zM47 28h1v1h-1zM48 28h1v1h-1zM49 28h1v1h-1zM50 28h1v1h-1zM51 28h1v1h-1zM52 28h1v1h-1zM53 28h1v1h-1z"/><path fill="#A6D4DD" d="M54 28h1v1h-1z"/><path fill="#78B5C5" d="M55 28h1v1h-1zM56 28h1v1h-1zM57 28h1v1h-1zM58 28h1v1h-1zM59 28h1v1h-1zM60 28h1v1h-1zM61 28h1v1h-1zM62 28h1v1h-1zM63 28h1v1h-1zM64 28h1v1h-1zM65 28h1v1h-1zM66 28h1v1h-1zM67 28h1v1h-1zM68 28h1v1h-1z"/><path fill="#485D62" d="M69 28h1v1h-1z"/><path fill="#231815" d="M70 28h1v1h-1zM71 28h1v1h-1zM72 28h1v1h-1zM73 28h1v1h-1zM17 29h1v1h-1zM18 29h1v1h-1zM19 29h1v1h-1zM20 29h1v1h-1z"/><path fill="#638E99" d="M21 29h1v1h-1z"/><path fill="#78B5C5" d="M22 29h1v1h-1zM23 29h1v1h-1zM24 29h1v1h-1zM25 29h1v1h-1zM26 29h1v1h-1zM27 29h1v1h-1zM28 29h1v1h-1zM29 29h1v1h-1zM30 29h1v1h-1zM31 29h1v1h-1zM32 29h1v1h-1zM33 29h1v1h-1zM34 29h1v1h-1z"/><path fill="#9ECED9" d="M35 29h1v1h-1z"/><path fill="#BBE2E8" d="M36 29h1v1h-1zM37 29h1v1h-1zM38 29h1v1h-1zM39 29h1v1h-1zM40 29h1v1h-1zM41 29h1v1h-1zM42 29h1v1h-1zM43 29h1v1h-1zM44 29h1v1h-1zM45 29h1v1h-1zM46 29h1v1h-1zM47 29h1v1h-1zM48 29h1v1h-1zM49 29h1v1h-1zM50 29h1v1h-1zM51 29h1v1h-1zM52 29h1v1h-1zM53 29h1v1h-1z"/><path fill="#B7DFE6" d="M54 29h1v1h-1z"/><path fill="#78B5C5" d="M55 29h1v1h-1zM56 29h1v1h-1zM57 29h1v1h-1zM58 29h1v1h-1zM59 29h1v1h-1zM60 29h1v1h-1zM61 29h1v1h-1zM62 29h1v1h-1zM63 29h1v1h-1zM64 29h1v1h-1zM65 29h1v1h-1zM66 29h1v1h-1zM67 29h1v1h-1zM68 29h1v1h-1z"/><path fill="#2E2C2B" d="M69 29h1v1h-1z"/><path fill="#231815" d="M70 29h1v1h-1zM71 29h1v1h-1zM72 29h1v1h-1zM17 30h1v1h-1zM18 30h1v1h-1zM19 30h1v1h-1zM20 30h1v1h-1z"/><path fill="#435357" d="M21 30h1v1h-1z"/><path fill="#78B5C5" d="M22 30h1v1h-1zM23 30h1v1h-1zM24 30h1v1h-1zM25 30h1v1h-1zM26 30h1v1h-1zM27 30h1v1h-1zM28 30h1v1h-1zM29 30h1v1h-1zM30 30h1v1h-1zM31 30h1v1h-1zM32 30h1v1h-1zM33 30h1v1h-1zM34 30h1v1h-1z"/><path fill="#7CB8C7" d="M35 30h1v1h-1z"/><path fill="#B7DFE6" d="M36 30h1v1h-1z"/><path fill="#BBE2E8" d="M37 30h1v1h-1zM38 30h1v1h-1zM39 30h1v1h-1zM40 30h1v1h-1zM41 30h1v1h-1zM42 30h1v1h-1zM43 30h1v1h-1zM44 30h1v1h-1zM45 30h1v1h-1zM46 30h1v1h-1zM47 30h1v1h-1zM48 30h1v1h-1zM49 30h1v1h-1zM50 30h1v1h-1zM51 30h1v1h-1zM52 30h1v1h-1zM53 30h1v1h-1zM54 30h1v1h-1z"/><path fill="#7CB8C7" d="M55 30h1v1h-1z"/><path fill="#78B5C5" d="M56 30h1v1h-1zM57 30h1v1h-1zM58 30h1v1h-1z"/><path fill="#6898A4" d="M59 30h1v1h-1z"/><path fill="#3E494C" d="M60 30h1v1h-1z"/><path fill="#435357" d="M61 30h1v1h-1z"/><path fill="#6DA1AF" d="M62 30h1v1h-1z"/><path fill="#78B5C5" d="M63 30h1v1h-1zM64 30h1v1h-1zM65 30h1v1h-1zM66 30h1v1h-1zM67 30h1v1h-1z"/><path fill="#5D848E" d="M68 30h1v1h-1z"/><path fill="#231815" d="M69 30h1v1h-1zM70 30h1v1h-1zM71 30h1v1h-1zM72 30h1v1h-1zM18 31h1v1h-1zM19 31h1v1h-1zM20 31h1v1h-1z"/><path fill="#282220" d="M21 31h1v1h-1z"/><path fill="#78B5C5" d="M22 31h1v1h-1zM23 31h1v1h-1zM24 31h1v1h-1zM25 31h1v1h-1zM26 31h1v1h-1zM27 31h1v1h-1zM28 31h1v1h-1zM29 31h1v1h-1zM30 31h1v1h-1zM31 31h1v1h-1zM32 31h1v1h-1zM33 31h1v1h-1zM34 31h1v1h-1zM35 31h1v1h-1z"/><path fill="#85BDCC" d="M36 31h1v1h-1z"/><path fill="#B7DFE6" d="M37 31h1v1h-1z"/><path fill="#BBE2E8" d="M38 31h1v1h-1zM39 31h1v1h-1zM40 31h1v1h-1zM41 31h1v1h-1zM42 31h1v1h-1zM43 31h1v1h-1zM44 31h1v1h-1zM45 31h1v1h-1zM46 31h1v1h-1zM47 31h1v1h-1zM48 31h1v1h-1zM49 31h1v1h-1zM50 31h1v1h-1zM51 31h1v1h-1zM52 31h1v1h-1zM53 31h1v1h-1zM54 31h1v1h-1z"/><path fill="#89C0CE" d="M55 31h1v1h-1z"/><path fill="#78B5C5" d="M56 31h1v1h-1zM57 31h1v1h-1zM58 31h1v1h-1z"/><path fill="#383F41" d="M59 31h1v1h-1z"/><path fill="#231815" d="M60 31h1v1h-1zM61 31h1v1h-1z"/><path fill="#282220" d="M62 31h1v1h-1z"/><path fill="#537078" d="M63 31h1v1h-1z"/><path fill="#78B5C5" d="M64 31h1v1h-1zM65 31h1v1h-1zM66 31h1v1h-1zM67 31h1v1h-1z"/><path fill="#435357" d="M68 31h1v1h-1z"/><path fill="#231815" d="M69 31h1v1h-1zM70 31h1v1h-1zM71 31h1v1h-1zM72 31h1v1h-1zM18 32h1v1h-1zM19 32h1v1h-1zM20 32h1v1h-1zM21 32h1v1h-1z"/><path fill="#5D848E" d="M22 32h1v1h-1z"/><path fill="#78B5C5" d="M23 32h1v1h-1zM24 32h1v1h-1zM25 32h1v1h-1zM26 32h1v1h-1zM27 32h1v1h-1zM28 32h1v1h-1zM29 32h1v1h-1zM30 32h1v1h-1zM31 32h1v1h-1zM32 32h1v1h-1zM33 32h1v1h-1zM34 32h1v1h-1zM35 32h1v1h-1zM36 32h1v1h-1z"/><path fill="#85BDCC" d="M37 32h1v1h-1z"/><path fill="#B7DFE6" d="M38 32h1v1h-1z"/><path fill="#BBE2E8" d="M39 32h1v1h-1zM40 32h1v1h-1zM41 32h1v1h-1zM42 32h1v1h-1zM43 32h1v1h-1zM44 32h1v1h-1zM45 32h1v1h-1zM46 32h1v1h-1zM47 32h1v1h-1zM48 32h1v1h-1zM49 32h1v1h-1zM50 32h1v1h-1zM51 32h1v1h-1zM52 32h1v1h-1zM53 32h1v1h-1zM54 32h1v1h-1z"/><path fill="#7CB8C7" d="M55 32h1v1h-1z"/><path fill="#78B5C5" d="M56 32h1v1h-1zM57 32h1v1h-1z"/><path fill="#70A9B9" d="M58 32h1v1h-1z"/><path fill="#303335" d="M59 32h1v1h-1z"/><path fill="#231815" d="M60 32h1v1h-1zM61 32h1v1h-1zM62 32h1v1h-1zM63 32h1v1h-1z"/><path fill="#2E2C2B" d="M64 32h1v1h-1z"/><path fill="#587A83" d="M65 32h1v1h-1z"/><path fill="#78B5C5" d="M66 32h1v1h-1z"/><path fill="#73ABBA" d="M67 32h1v1h-1z"/><path fill="#231815" d="M68 32h1v1h-1zM69 32h1v1h-1zM70 32h1v1h-1zM71 32h1v1h-1zM18 33h1v1h-1zM19 33h1v1h-1zM20 33h1v1h-1zM21 33h1v1h-1z"/><path fill="#435357" d="M22 33h1v1h-1z"/><path fill="#78B5C5" d="M23 33h1v1h-1zM24 33h1v1h-1zM25 33h1v1h-1zM26 33h1v1h-1zM27 33h1v1h-1zM28 33h1v1h-1zM29 33h1v1h-1zM30 33h1v1h-1zM31 33h1v1h-1zM32 33h1v1h-1zM33 33h1v1h-1zM34 33h1v1h-1zM35 33h1v1h-1zM36 33h1v1h-1zM37 33h1v1h-1z"/><path fill="#80BBC9" d="M38 33h1v1h-1z"/><path fill="#AAD7DF" d="M39 33h1v1h-1z"/><path fill="#BBE2E8" d="M40 33h1v1h-1zM41 33h1v1h-1zM42 33h1v1h-1zM43 33h1v1h-1zM44 33h1v1h-1zM45 33h1v1h-1zM46 33h1v1h-1zM47 33h1v1h-1zM48 33h1v1h-1zM49 33h1v1h-1zM50 33h1v1h-1zM51 33h1v1h-1zM52 33h1v1h-1zM53 33h1v1h-1z"/><path fill="#AAD7DF" d="M54 33h1v1h-1z"/><path fill="#78B5C5" d="M55 33h1v1h-1zM56 33h1v1h-1zM57 33h1v1h-1z"/><path fill="#6194A5" d="M58 33h1v1h-1z"/><path fill="#4C717E" d="M59 33h1v1h-1z"/><path fill="#292625" d="M60 33h1v1h-1z"/><path fill="#231815" d="M61 33h1v1h-1zM62 33h1v1h-1zM63 33h1v1h-1zM64 33h1v1h-1zM65 33h1v1h-1z"/><path fill="#2E2C2B" d="M66 33h1v1h-1z"/><path fill="#435357" d="M67 33h1v1h-1z"/><path fill="#231815" d="M68 33h1v1h-1zM69 33h1v1h-1zM70 33h1v1h-1zM71 33h1v1h-1zM19 34h1v1h-1zM20 34h1v1h-1zM21 34h1v1h-1z"/><path fill="#282220" d="M22 34h1v1h-1z"/><path fill="#78B5C5" d="M23 34h1v1h-1zM24 34h1v1h-1z"/><path fill="#73ABBA" d="M25 34h1v1h-1z"/><path fill="#485D62" d="M26 34h1v1h-1z"/><path fill="#383F41" d="M27 34h1v1h-1z"/><path fill="#435357" d="M28 34h1v1h-1z"/><path fill="#78B5C5" d="M29 34h1v1h-1zM30 34h1v1h-1zM31 34h1v1h-1zM32 34h1v1h-1zM33 34h1v1h-1zM34 34h1v1h-1zM35 34h1v1h-1zM36 34h1v1h-1zM37 34h1v1h-1zM38 34h1v1h-1zM39 34h1v1h-1z"/><path fill="#89C0CE" d="M40 34h1v1h-1z"/><path fill="#AAD7DF" d="M41 34h1v1h-1z"/><path fill="#BBE2E8" d="M42 34h1v1h-1zM43 34h1v1h-1zM44 34h1v1h-1zM45 34h1v1h-1zM46 34h1v1h-1zM47 34h1v1h-1zM48 34h1v1h-1zM49 34h1v1h-1zM50 34h1v1h-1zM51 34h1v1h-1zM52 34h1v1h-1z"/><path fill="#B3DCE4" d="M53 34h1v1h-1z"/><path fill="#85BDCC" d="M54 34h1v1h-1z"/><path fill="#78B5C5" d="M55 34h1v1h-1zM56 34h1v1h-1z"/><path fill="#76B2C2" d="M57 34h1v1h-1z"/><path fill="#568596" d="M58 34h1v1h-1zM59 34h1v1h-1z"/><path fill="#537E8E" d="M60 34h1v1h-1z"/><path fill="#3D4F56" d="M61 34h1v1h-1z"/><path fill="#231815" d="M62 34h1v1h-1zM63 34h1v1h-1zM64 34h1v1h-1zM65 34h1v1h-1zM66 34h1v1h-1zM67 34h1v1h-1zM68 34h1v1h-1zM69 34h1v1h-1zM70 34h1v1h-1zM71 34h1v1h-1zM19 35h1v1h-1zM20 35h1v1h-1zM21 35h1v1h-1zM22 35h1v1h-1z"/><path fill="#587A83" d="M23 35h1v1h-1z"/><path fill="#4E676D" d="M24 35h1v1h-1z"/><path fill="#282220" d="M25 35h1v1h-1z"/><path fill="#231815" d="M26 35h1v1h-1zM27 35h1v1h-1zM28 35h1v1h-1z"/><path fill="#638E99" d="M29 35h1v1h-1z"/><path fill="#78B5C5" d="M30 35h1v1h-1zM31 35h1v1h-1zM32 35h1v1h-1zM33 35h1v1h-1zM34 35h1v1h-1zM35 35h1v1h-1zM36 35h1v1h-1zM37 35h1v1h-1zM38 35h1v1h-1zM39 35h1v1h-1zM40 35h1v1h-1zM41 35h1v1h-1z"/><path fill="#80BBC9" d="M42 35h1v1h-1z"/><path fill="#95C9D4" d="M43 35h1v1h-1z"/><path fill="#A2D1DB" d="M44 35h1v1h-1z"/><path fill="#AAD7DF" d="M45 35h1v1h-1z"/><path fill="#BBE2E8" d="M46 35h1v1h-1zM47 35h1v1h-1zM48 35h1v1h-1zM49 35h1v1h-1z"/><path fill="#B3DCE4" d="M50 35h1v1h-1z"/><path fill="#A6D4DD" d="M51 35h1v1h-1z"/><path fill="#91C6D2" d="M52 35h1v1h-1z"/><path fill="#7CB8C7" d="M53 35h1v1h-1z"/><path fill="#78B5C5" d="M54 35h1v1h-1zM55 35h1v1h-1zM56 35h1v1h-1z"/><path fill="#6BA3B3" d="M57 35h1v1h-1z"/><path fill="#568596" d="M58 35h1v1h-1zM59 35h1v1h-1zM60 35h1v1h-1zM61 35h1v1h-1z"/><path fill="#507786" d="M62 35h1v1h-1z"/><path fill="#364145" d="M63 35h1v1h-1z"/><path fill="#231815" d="M64 35h1v1h-1zM65 35h1v1h-1zM66 35h1v1h-1zM67 35h1v1h-1zM68 35h1v1h-1zM69 35h1v1h-1zM70 35h1v1h-1zM71 35h1v1h-1zM72 35h1v1h-1zM19 36h1v1h-1zM20 36h1v1h-1zM21 36h1v1h-1zM22 36h1v1h-1zM23 36h1v1h-1zM24 36h1v1h-1zM25 36h1v1h-1zM26 36h1v1h-1zM27 36h1v1h-1zM28 36h1v1h-1z"/><path fill="#6898A4" d="M29 36h1v1h-1z"/><path fill="#78B5C5" d="M30 36h1v1h-1zM31 36h1v1h-1zM32 36h1v1h-1zM33 36h1v1h-1zM34 36h1v1h-1zM35 36h1v1h-1zM36 36h1v1h-1zM37 36h1v1h-1zM38 36h1v1h-1zM39 36h1v1h-1zM40 36h1v1h-1zM41 36h1v1h-1zM42 36h1v1h-1zM43 36h1v1h-1zM44 36h1v1h-1zM45 36h1v1h-1zM46 36h1v1h-1zM47 36h1v1h-1zM48 36h1v1h-1zM49 36h1v1h-1zM50 36h1v1h-1zM51 36h1v1h-1zM52 36h1v1h-1zM53 36h1v1h-1zM54 36h1v1h-1zM55 36h1v1h-1zM56 36h1v1h-1z"/><path fill="#6397A8" d="M57 36h1v1h-1z"/><path fill="#568596" d="M58 36h1v1h-1zM59 36h1v1h-1zM60 36h1v1h-1zM61 36h1v1h-1zM62 36h1v1h-1zM63 36h1v1h-1z"/><path fill="#507786" d="M64 36h1v1h-1z"/><path fill="#364145" d="M65 36h1v1h-1z"/><path fill="#231815" d="M66 36h1v1h-1zM67 36h1v1h-1zM68 36h1v1h-1zM69 36h1v1h-1zM70 36h1v1h-1zM71 36h1v1h-1zM72 36h1v1h-1zM73 36h1v1h-1zM74 36h1v1h-1zM75 36h1v1h-1zM19 37h1v1h-1zM20 37h1v1h-1zM21 37h1v1h-1zM22 37h1v1h-1zM23 37h1v1h-1zM24 37h1v1h-1zM25 37h1v1h-1zM26 37h1v1h-1z"/><path fill="#2D2522" d="M27 37h1v1h-1z"/><path fill="#7E9397" d="M28 37h1v1h-1z"/><path fill="#AAD7DF" d="M29 37h1v1h-1z"/><path fill="#9ECED9" d="M30 37h1v1h-1z"/><path fill="#91C6D2" d="M31 37h1v1h-1z"/><path fill="#78B5C5" d="M32 37h1v1h-1zM33 37h1v1h-1zM34 37h1v1h-1zM35 37h1v1h-1zM36 37h1v1h-1zM37 37h1v1h-1zM38 37h1v1h-1zM39 37h1v1h-1zM40 37h1v1h-1zM41 37h1v1h-1zM42 37h1v1h-1zM43 37h1v1h-1zM44 37h1v1h-1zM45 37h1v1h-1zM46 37h1v1h-1zM47 37h1v1h-1zM48 37h1v1h-1zM49 37h1v1h-1zM50 37h1v1h-1zM51 37h1v1h-1zM52 37h1v1h-1zM53 37h1v1h-1zM54 37h1v1h-1zM55 37h1v1h-1zM56 37h1v1h-1z"/><path fill="#588899" d="M57 37h1v1h-1z"/><path fill="#568596" d="M58 37h1v1h-1zM59 37h1v1h-1zM60 37h1v1h-1zM61 37h1v1h-1zM62 37h1v1h-1zM63 37h1v1h-1zM64 37h1v1h-1zM65 37h1v1h-1z"/><path fill="#537E8E" d="M66 37h1v1h-1z"/><path fill="#3D4F56" d="M67 37h1v1h-1z"/><path fill="#292625" d="M68 37h1v1h-1z"/><path fill="#231815" d="M69 37h1v1h-1zM70 37h1v1h-1zM71 37h1v1h-1zM72 37h1v1h-1zM73 37h1v1h-1zM74 37h1v1h-1zM75 37h1v1h-1zM76 37h1v1h-1zM77 37h1v1h-1zM78 37h1v1h-1zM17 38h1v1h-1zM18 38h1v1h-1zM19 38h1v1h-1zM20 38h1v1h-1zM21 38h1v1h-1zM22 38h1v1h-1zM23 38h1v1h-1zM24 38h1v1h-1z"/><path fill="#2D2522" d="M25 38h1v1h-1z"/><path fill="#6F7D7F" d="M26 38h1v1h-1z"/><path fill="#B2D5DB" d="M27 38h1v1h-1z"/><path fill="#BBE2E8" d="M28 38h1v1h-1zM29 38h1v1h-1zM30 38h1v1h-1zM31 38h1v1h-1z"/><path fill="#B3DCE4" d="M32 38h1v1h-1z"/><path fill="#85BDCC" d="M33 38h1v1h-1z"/><path fill="#78B5C5" d="M34 38h1v1h-1zM35 38h1v1h-1zM36 38h1v1h-1zM37 38h1v1h-1zM38 38h1v1h-1zM39 38h1v1h-1zM40 38h1v1h-1zM41 38h1v1h-1zM42 38h1v1h-1zM43 38h1v1h-1zM44 38h1v1h-1zM45 38h1v1h-1zM46 38h1v1h-1zM47 38h1v1h-1zM48 38h1v1h-1zM49 38h1v1h-1zM50 38h1v1h-1zM51 38h1v1h-1zM52 38h1v1h-1zM53 38h1v1h-1zM54 38h1v1h-1zM55 38h1v1h-1z"/><path fill="#72ACBC" d="M56 38h1v1h-1z"/><path fill="#568596" d="M57 38h1v1h-1zM58 38h1v1h-1zM59 38h1v1h-1zM60 38h1v1h-1zM61 38h1v1h-1zM62 38h1v1h-1zM63 38h1v1h-1zM64 38h1v1h-1zM65 38h1v1h-1zM66 38h1v1h-1zM67 38h1v1h-1zM68 38h1v1h-1z"/><path fill="#435C66" d="M69 38h1v1h-1z"/><path fill="#333A3D" d="M70 38h1v1h-1z"/><path fill="#231815" d="M71 38h1v1h-1zM72 38h1v1h-1zM73 38h1v1h-1zM74 38h1v1h-1zM75 38h1v1h-1zM76 38h1v1h-1zM77 38h1v1h-1zM78 38h1v1h-1zM79 38h1v1h-1zM80 38h1v1h-1zM81 38h1v1h-1zM14 39h1v1h-1zM15 39h1v1h-1zM16 39h1v1h-1zM17 39h1v1h-1zM18 39h1v1h-1zM19 39h1v1h-1zM20 39h1v1h-1zM21 39h1v1h-1zM22 39h1v1h-1z"/><path fill="#2D2522" d="M23 39h1v1h-1z"/><path fill="#6F7D7F" d="M24 39h1v1h-1z"/><path fill="#B2D5DB" d="M25 39h1v1h-1z"/><path fill="#BBE2E8" d="M26 39h1v1h-1zM27 39h1v1h-1zM28 39h1v1h-1zM29 39h1v1h-1zM30 39h1v1h-1zM31 39h1v1h-1zM32 39h1v1h-1z"/><path fill="#B7DFE6" d="M33 39h1v1h-1z"/><path fill="#7CB8C7" d="M34 39h1v1h-1z"/><path fill="#78B5C5" d="M35 39h1v1h-1zM36 39h1v1h-1zM37 39h1v1h-1zM38 39h1v1h-1zM39 39h1v1h-1zM40 39h1v1h-1zM41 39h1v1h-1z"/><path fill="#85BDCC" d="M42 39h1v1h-1z"/><path fill="#95C9D4" d="M43 39h1v1h-1z"/><path fill="#9ACCD7" d="M44 39h1v1h-1z"/><path fill="#A2D1DB" d="M45 39h1v1h-1z"/><path fill="#AAD7DF" d="M46 39h1v1h-1zM47 39h1v1h-1zM48 39h1v1h-1zM49 39h1v1h-1zM50 39h1v1h-1zM51 39h1v1h-1z"/><path fill="#A6D4DD" d="M52 39h1v1h-1z"/><path fill="#9ACCD7" d="M53 39h1v1h-1z"/><path fill="#95C9D4" d="M54 39h1v1h-1z"/><path fill="#80BBC9" d="M55 39h1v1h-1z"/><path fill="#69A0B0" d="M56 39h1v1h-1z"/><path fill="#568596" d="M57 39h1v1h-1zM58 39h1v1h-1zM59 39h1v1h-1zM60 39h1v1h-1zM61 39h1v1h-1zM62 39h1v1h-1zM63 39h1v1h-1zM64 39h1v1h-1zM65 39h1v1h-1zM66 39h1v1h-1zM67 39h1v1h-1zM68 39h1v1h-1zM69 39h1v1h-1zM70 39h1v1h-1z"/><path fill="#507786" d="M71 39h1v1h-1z"/><path fill="#40555E" d="M72 39h1v1h-1z"/><path fill="#292625" d="M73 39h1v1h-1z"/><path fill="#231815" d="M74 39h1v1h-1zM75 39h1v1h-1zM76 39h1v1h-1zM77 39h1v1h-1zM78 39h1v1h-1zM79 39h1v1h-1zM80 39h1v1h-1zM81 39h1v1h-1zM82 39h1v1h-1zM83 39h1v1h-1zM11 40h1v1h-1zM12 40h1v1h-1zM13 40h1v1h-1zM14 40h1v1h-1zM15 40h1v1h-1zM16 40h1v1h-1zM17 40h1v1h-1zM18 40h1v1h-1zM19 40h1v1h-1zM20 40h1v1h-1z"/><path fill="#36312F" d="M21 40h1v1h-1z"/><path fill="#798A8C" d="M22 40h1v1h-1z"/><path fill="#B2D5DB" d="M23 40h1v1h-1z"/><path fill="#BBE2E8" d="M24 40h1v1h-1zM25 40h1v1h-1zM26 40h1v1h-1zM27 40h1v1h-1zM28 40h1v1h-1zM29 40h1v1h-1zM30 40h1v1h-1zM31 40h1v1h-1zM32 40h1v1h-1zM33 40h1v1h-1z"/><path fill="#95C9D4" d="M34 40h1v1h-1z"/><path fill="#78B5C5" d="M35 40h1v1h-1zM36 40h1v1h-1zM37 40h1v1h-1zM38 40h1v1h-1zM39 40h1v1h-1z"/><path fill="#85BDCC" d="M40 40h1v1h-1z"/><path fill="#B3DCE4" d="M41 40h1v1h-1z"/><path fill="#BBE2E8" d="M42 40h1v1h-1zM43 40h1v1h-1zM44 40h1v1h-1zM45 40h1v1h-1zM46 40h1v1h-1zM47 40h1v1h-1zM48 40h1v1h-1zM49 40h1v1h-1zM50 40h1v1h-1zM51 40h1v1h-1zM52 40h1v1h-1zM53 40h1v1h-1zM54 40h1v1h-1zM55 40h1v1h-1z"/><path fill="#80AEBB" d="M56 40h1v1h-1z"/><path fill="#568596" d="M57 40h1v1h-1zM58 40h1v1h-1zM59 40h1v1h-1zM60 40h1v1h-1zM61 40h1v1h-1zM62 40h1v1h-1zM63 40h1v1h-1zM64 40h1v1h-1zM65 40h1v1h-1zM66 40h1v1h-1zM67 40h1v1h-1zM68 40h1v1h-1zM69 40h1v1h-1zM70 40h1v1h-1zM71 40h1v1h-1zM72 40h1v1h-1zM73 40h1v1h-1z"/><path fill="#4C717E" d="M74 40h1v1h-1z"/><path fill="#39484D" d="M75 40h1v1h-1z"/><path fill="#292625" d="M76 40h1v1h-1z"/><path fill="#231815" d="M77 40h1v1h-1zM78 40h1v1h-1zM79 40h1v1h-1zM80 40h1v1h-1zM81 40h1v1h-1zM82 40h1v1h-1zM83 40h1v1h-1zM84 40h1v1h-1zM85 40h1v1h-1zM8 41h1v1H8zM9 41h1v1H9zM10 41h1v1h-1zM11 41h1v1h-1zM12 41h1v1h-1zM13 41h1v1h-1zM14 41h1v1h-1zM15 41h1v1h-1zM16 41h1v1h-1zM17 41h1v1h-1zM18 41h1v1h-1z"/><path fill="#535757" d="M19 41h1v1h-1z"/><path fill="#8CA3A6" d="M20 41h1v1h-1z"/><path fill="#BBE2E8" d="M21 41h1v1h-1zM22 41h1v1h-1zM23 41h1v1h-1zM24 41h1v1h-1zM25 41h1v1h-1zM26 41h1v1h-1zM27 41h1v1h-1zM28 41h1v1h-1zM29 41h1v1h-1zM30 41h1v1h-1zM31 41h1v1h-1zM32 41h1v1h-1zM33 41h1v1h-1z"/><path fill="#AAD7DF" d="M34 41h1v1h-1z"/><path fill="#78B5C5" d="M35 41h1v1h-1zM36 41h1v1h-1zM37 41h1v1h-1zM38 41h1v1h-1zM39 41h1v1h-1z"/><path fill="#AAD7DF" d="M40 41h1v1h-1z"/><path fill="#BBE2E8" d="M41 41h1v1h-1zM42 41h1v1h-1z"/><path fill="#CDEAEF" d="M43 41h1v1h-1z"/><path fill="#F4FBFE" d="M44 41h1v1h-1zM45 41h1v1h-1zM46 41h1v1h-1z"/><path fill="#EDF8FB" d="M47 41h1v1h-1z"/><path fill="#E2F3F7" d="M48 41h1v1h-1z"/><path fill="#D4EDF2" d="M49 41h1v1h-1z"/><path fill="#C6E7EC" d="M50 41h1v1h-1z"/><path fill="#BBE2E8" d="M51 41h1v1h-1zM52 41h1v1h-1zM53 41h1v1h-1zM54 41h1v1h-1zM55 41h1v1h-1zM56 41h1v1h-1z"/><path fill="#76A2B0" d="M57 41h1v1h-1z"/><path fill="#568596" d="M58 41h1v1h-1zM59 41h1v1h-1zM60 41h1v1h-1zM61 41h1v1h-1zM62 41h1v1h-1zM63 41h1v1h-1zM64 41h1v1h-1zM65 41h1v1h-1zM66 41h1v1h-1zM67 41h1v1h-1zM68 41h1v1h-1zM69 41h1v1h-1zM70 41h1v1h-1zM71 41h1v1h-1zM72 41h1v1h-1zM73 41h1v1h-1zM74 41h1v1h-1zM75 41h1v1h-1zM76 41h1v1h-1z"/><path fill="#46636E" d="M77 41h1v1h-1z"/><path fill="#364145" d="M78 41h1v1h-1z"/><path fill="#261F1D" d="M79 41h1v1h-1z"/><path fill="#231815" d="M80 41h1v1h-1zM81 41h1v1h-1zM82 41h1v1h-1zM83 41h1v1h-1zM84 41h1v1h-1zM85 41h1v1h-1zM86 41h1v1h-1zM87 41h1v1h-1zM5 42h1v1H5zM6 42h1v1H6zM7 42h1v1H7zM8 42h1v1H8zM9 42h1v1H9zM10 42h1v1h-1zM11 42h1v1h-1zM12 42h1v1h-1zM13 42h1v1h-1zM14 42h1v1h-1zM15 42h1v1h-1z"/><path fill="#403E3D" d="M16 42h1v1h-1z"/><path fill="#798A8C" d="M17 42h1v1h-1z"/><path fill="#A8C9CE" d="M18 42h1v1h-1z"/><path fill="#BBE2E8" d="M19 42h1v1h-1zM20 42h1v1h-1zM21 42h1v1h-1zM22 42h1v1h-1zM23 42h1v1h-1zM24 42h1v1h-1zM25 42h1v1h-1zM26 42h1v1h-1zM27 42h1v1h-1zM28 42h1v1h-1zM29 42h1v1h-1zM30 42h1v1h-1zM31 42h1v1h-1zM32 42h1v1h-1zM33 42h1v1h-1z"/><path fill="#AAD7DF" d="M34 42h1v1h-1z"/><path fill="#78B5C5" d="M35 42h1v1h-1zM36 42h1v1h-1zM37 42h1v1h-1zM38 42h1v1h-1z"/><path fill="#80BBC9" d="M39 42h1v1h-1z"/><path fill="#BBE2E8" d="M40 42h1v1h-1zM41 42h1v1h-1zM42 42h1v1h-1z"/><path fill="#E2F3F7" d="M43 42h1v1h-1z"/><path fill="#F4FBFE" d="M44 42h1v1h-1zM45 42h1v1h-1zM46 42h1v1h-1zM47 42h1v1h-1zM48 42h1v1h-1zM49 42h1v1h-1zM50 42h1v1h-1z"/><path fill="#F0F9FD" d="M51 42h1v1h-1z"/><path fill="#E2F3F7" d="M52 42h1v1h-1z"/><path fill="#BFE4E9" d="M53 42h1v1h-1z"/><path fill="#BBE2E8" d="M54 42h1v1h-1zM55 42h1v1h-1zM56 42h1v1h-1z"/><path fill="#AED6DE" d="M57 42h1v1h-1z"/><path fill="#5C8B9B" d="M58 42h1v1h-1z"/><path fill="#568596" d="M59 42h1v1h-1zM60 42h1v1h-1zM61 42h1v1h-1zM62 42h1v1h-1zM63 42h1v1h-1zM64 42h1v1h-1zM65 42h1v1h-1zM66 42h1v1h-1zM67 42h1v1h-1zM68 42h1v1h-1zM69 42h1v1h-1zM70 42h1v1h-1zM71 42h1v1h-1zM72 42h1v1h-1zM73 42h1v1h-1zM74 42h1v1h-1zM75 42h1v1h-1zM76 42h1v1h-1zM77 42h1v1h-1zM78 42h1v1h-1zM79 42h1v1h-1z"/><path fill="#435C66" d="M80 42h1v1h-1z"/><path fill="#333A3D" d="M81 42h1v1h-1z"/><path fill="#231815" d="M82 42h1v1h-1zM83 42h1v1h-1zM84 42h1v1h-1zM85 42h1v1h-1zM86 42h1v1h-1zM87 42h1v1h-1zM2 43h1v1H2zM3 43h1v1H3zM4 43h1v1H4zM5 43h1v1H5zM6 43h1v1H6zM7 43h1v1H7zM8 43h1v1H8zM9 43h1v1H9zM10 43h1v1h-1zM11 43h1v1h-1zM12 43h1v1h-1z"/><path fill="#36312F" d="M13 43h1v1h-1z"/><path fill="#667071" d="M14 43h1v1h-1z"/><path fill="#9FBCC0" d="M15 43h1v1h-1z"/><path fill="#BBE2E8" d="M16 43h1v1h-1zM17 43h1v1h-1zM18 43h1v1h-1zM19 43h1v1h-1zM20 43h1v1h-1zM21 43h1v1h-1zM22 43h1v1h-1zM23 43h1v1h-1zM24 43h1v1h-1zM25 43h1v1h-1zM26 43h1v1h-1zM27 43h1v1h-1zM28 43h1v1h-1zM29 43h1v1h-1zM30 43h1v1h-1zM31 43h1v1h-1zM32 43h1v1h-1zM33 43h1v1h-1z"/><path fill="#AAD7DF" d="M34 43h1v1h-1z"/><path fill="#78B5C5" d="M35 43h1v1h-1zM36 43h1v1h-1zM37 43h1v1h-1zM38 43h1v1h-1z"/><path fill="#91C6D2" d="M39 43h1v1h-1z"/><path fill="#BBE2E8" d="M40 43h1v1h-1zM41 43h1v1h-1zM42 43h1v1h-1z"/><path fill="#E6F5F9" d="M43 43h1v1h-1z"/><path fill="#F4FBFE" d="M44 43h1v1h-1zM45 43h1v1h-1zM46 43h1v1h-1zM47 43h1v1h-1zM48 43h1v1h-1zM49 43h1v1h-1zM50 43h1v1h-1zM51 43h1v1h-1zM52 43h1v1h-1z"/><path fill="#EDF8FB" d="M53 43h1v1h-1z"/><path fill="#BFE4E9" d="M54 43h1v1h-1z"/><path fill="#BBE2E8" d="M55 43h1v1h-1zM56 43h1v1h-1zM57 43h1v1h-1z"/><path fill="#82AEBA" d="M58 43h1v1h-1z"/><path fill="#568596" d="M59 43h1v1h-1zM60 43h1v1h-1zM61 43h1v1h-1zM62 43h1v1h-1zM63 43h1v1h-1zM64 43h1v1h-1zM65 43h1v1h-1zM66 43h1v1h-1zM67 43h1v1h-1zM68 43h1v1h-1zM69 43h1v1h-1zM70 43h1v1h-1zM71 43h1v1h-1zM72 43h1v1h-1zM73 43h1v1h-1zM74 43h1v1h-1zM75 43h1v1h-1zM76 43h1v1h-1zM77 43h1v1h-1zM78 43h1v1h-1zM79 43h1v1h-1zM80 43h1v1h-1zM81 43h1v1h-1z"/><path fill="#496A76" d="M82 43h1v1h-1z"/><path fill="#261F1D" d="M83 43h1v1h-1z"/><path fill="#231815" d="M84 43h1v1h-1zM85 43h1v1h-1zM86 43h1v1h-1zM87 43h1v1h-1zM0 44h1v1H0zM1 44h1v1H1zM2 44h1v1H2zM3 44h1v1H3zM4 44h1v1H4zM5 44h1v1H5zM6 44h1v1H6zM7 44h1v1H7zM8 44h1v1H8zM9 44h1v1H9z"/><path fill="#403E3D" d="M10 44h1v1h-1z"/><path fill="#798A8C" d="M11 44h1v1h-1z"/><path fill="#9FBCC0" d="M12 44h1v1h-1z"/><path fill="#BBE2E8" d="M13 44h1v1h-1zM14 44h1v1h-1zM15 44h1v1h-1zM16 44h1v1h-1zM17 44h1v1h-1zM18 44h1v1h-1zM19 44h1v1h-1zM20 44h1v1h-1zM21 44h1v1h-1zM22 44h1v1h-1zM23 44h1v1h-1zM24 44h1v1h-1zM25 44h1v1h-1zM26 44h1v1h-1zM27 44h1v1h-1zM28 44h1v1h-1zM29 44h1v1h-1zM30 44h1v1h-1zM31 44h1v1h-1zM32 44h1v1h-1zM33 44h1v1h-1z"/><path fill="#AAD7DF" d="M34 44h1v1h-1z"/><path fill="#78B5C5" d="M35 44h1v1h-1zM36 44h1v1h-1zM37 44h1v1h-1zM38 44h1v1h-1z"/><path fill="#9ECED9" d="M39 44h1v1h-1z"/><path fill="#BBE2E8" d="M40 44h1v1h-1zM41 44h1v1h-1zM42 44h1v1h-1z"/><path fill="#E6F5F9" d="M43 44h1v1h-1z"/><path fill="#F4FBFE" d="M44 44h1v1h-1zM45 44h1v1h-1zM46 44h1v1h-1zM47 44h1v1h-1zM48 44h1v1h-1zM49 44h1v1h-1zM50 44h1v1h-1zM51 44h1v1h-1zM52 44h1v1h-1zM53 44h1v1h-1z"/><path fill="#E9F6FA" d="M54 44h1v1h-1z"/><path fill="#BBE2E8" d="M55 44h1v1h-1zM56 44h1v1h-1zM57 44h1v1h-1z"/><path fill="#AED6DE" d="M58 44h1v1h-1z"/><path fill="#568596" d="M59 44h1v1h-1zM60 44h1v1h-1zM61 44h1v1h-1zM62 44h1v1h-1zM63 44h1v1h-1zM64 44h1v1h-1zM65 44h1v1h-1zM66 44h1v1h-1zM67 44h1v1h-1zM68 44h1v1h-1zM69 44h1v1h-1zM70 44h1v1h-1zM71 44h1v1h-1zM72 44h1v1h-1zM73 44h1v1h-1zM74 44h1v1h-1zM75 44h1v1h-1zM76 44h1v1h-1zM77 44h1v1h-1zM78 44h1v1h-1zM79 44h1v1h-1z"/><path fill="#496A76" d="M80 44h1v1h-1z"/><path fill="#364145" d="M81 44h1v1h-1z"/><path fill="#231815" d="M82 44h1v1h-1zM83 44h1v1h-1zM84 44h1v1h-1zM85 44h1v1h-1zM86 44h1v1h-1zM87 44h1v1h-1zM0 45h1v1H0zM1 45h1v1H1zM2 45h1v1H2zM3 45h1v1H3zM4 45h1v1H4zM5 45h1v1H5zM6 45h1v1H6z"/><path fill="#403E3D" d="M7 45h1v1H7z"/><path fill="#798A8C" d="M8 45h1v1H8z"/><path fill="#A8C9CE" d="M9 45h1v1H9z"/><path fill="#BBE2E8" d="M10 45h1v1h-1zM11 45h1v1h-1zM12 45h1v1h-1zM13 45h1v1h-1zM14 45h1v1h-1zM15 45h1v1h-1zM16 45h1v1h-1zM17 45h1v1h-1zM18 45h1v1h-1zM19 45h1v1h-1zM20 45h1v1h-1zM21 45h1v1h-1zM22 45h1v1h-1zM23 45h1v1h-1zM24 45h1v1h-1zM25 45h1v1h-1zM26 45h1v1h-1zM27 45h1v1h-1zM28 45h1v1h-1zM29 45h1v1h-1zM30 45h1v1h-1zM31 45h1v1h-1zM32 45h1v1h-1zM33 45h1v1h-1z"/><path fill="#A6D4DD" d="M34 45h1v1h-1z"/><path fill="#78B5C5" d="M35 45h1v1h-1zM36 45h1v1h-1zM37 45h1v1h-1zM38 45h1v1h-1z"/><path fill="#AAD7DF" d="M39 45h1v1h-1z"/><path fill="#BBE2E8" d="M40 45h1v1h-1zM41 45h1v1h-1zM42 45h1v1h-1z"/><path fill="#E6F5F9" d="M43 45h1v1h-1z"/><path fill="#F4FBFE" d="M44 45h1v1h-1zM45 45h1v1h-1zM46 45h1v1h-1zM47 45h1v1h-1zM48 45h1v1h-1zM49 45h1v1h-1zM50 45h1v1h-1zM51 45h1v1h-1zM52 45h1v1h-1zM53 45h1v1h-1zM54 45h1v1h-1z"/><path fill="#D8EFF3" d="M55 45h1v1h-1z"/><path fill="#BBE2E8" d="M56 45h1v1h-1zM57 45h1v1h-1zM58 45h1v1h-1z"/><path fill="#76A2B0" d="M59 45h1v1h-1z"/><path fill="#568596" d="M60 45h1v1h-1zM61 45h1v1h-1zM62 45h1v1h-1zM63 45h1v1h-1zM64 45h1v1h-1zM65 45h1v1h-1zM66 45h1v1h-1zM67 45h1v1h-1zM68 45h1v1h-1zM69 45h1v1h-1zM70 45h1v1h-1zM71 45h1v1h-1zM72 45h1v1h-1zM73 45h1v1h-1zM74 45h1v1h-1zM75 45h1v1h-1zM76 45h1v1h-1z"/><path fill="#537E8E" d="M77 45h1v1h-1z"/><path fill="#40555E" d="M78 45h1v1h-1z"/><path fill="#292625" d="M79 45h1v1h-1z"/><path fill="#231815" d="M80 45h1v1h-1zM81 45h1v1h-1zM82 45h1v1h-1zM83 45h1v1h-1zM84 45h1v1h-1zM85 45h1v1h-1zM86 45h1v1h-1zM87 45h1v1h-1zM0 46h1v1H0zM1 46h1v1H1zM2 46h1v1H2zM3 46h1v1H3z"/><path fill="#2D2522" d="M4 46h1v1H4z"/><path fill="#798A8C" d="M5 46h1v1H5z"/><path fill="#A8C9CE" d="M6 46h1v1H6z"/><path fill="#BBE2E8" d="M7 46h1v1H7zM8 46h1v1H8zM9 46h1v1H9zM10 46h1v1h-1zM11 46h1v1h-1zM12 46h1v1h-1zM13 46h1v1h-1zM14 46h1v1h-1zM15 46h1v1h-1zM16 46h1v1h-1zM17 46h1v1h-1zM18 46h1v1h-1zM19 46h1v1h-1zM20 46h1v1h-1zM21 46h1v1h-1zM22 46h1v1h-1zM23 46h1v1h-1zM24 46h1v1h-1zM25 46h1v1h-1zM26 46h1v1h-1zM27 46h1v1h-1zM28 46h1v1h-1zM29 46h1v1h-1zM30 46h1v1h-1zM31 46h1v1h-1zM32 46h1v1h-1zM33 46h1v1h-1z"/><path fill="#9ACCD7" d="M34 46h1v1h-1z"/><path fill="#78B5C5" d="M35 46h1v1h-1zM36 46h1v1h-1zM37 46h1v1h-1zM38 46h1v1h-1z"/><path fill="#AAD7DF" d="M39 46h1v1h-1z"/><path fill="#BBE2E8" d="M40 46h1v1h-1zM41 46h1v1h-1zM42 46h1v1h-1z"/><path fill="#E2F3F7" d="M43 46h1v1h-1z"/><path fill="#F4FBFE" d="M44 46h1v1h-1zM45 46h1v1h-1zM46 46h1v1h-1zM47 46h1v1h-1zM48 46h1v1h-1zM49 46h1v1h-1zM50 46h1v1h-1zM51 46h1v1h-1zM52 46h1v1h-1zM53 46h1v1h-1zM54 46h1v1h-1zM55 46h1v1h-1z"/><path fill="#C2E5EB" d="M56 46h1v1h-1z"/><path fill="#BBE2E8" d="M57 46h1v1h-1zM58 46h1v1h-1z"/><path fill="#95BFC9" d="M59 46h1v1h-1z"/><path fill="#568596" d="M60 46h1v1h-1zM61 46h1v1h-1zM62 46h1v1h-1zM63 46h1v1h-1zM64 46h1v1h-1zM65 46h1v1h-1zM66 46h1v1h-1zM67 46h1v1h-1zM68 46h1v1h-1zM69 46h1v1h-1zM70 46h1v1h-1zM71 46h1v1h-1zM72 46h1v1h-1zM73 46h1v1h-1zM74 46h1v1h-1z"/><path fill="#496A76" d="M75 46h1v1h-1z"/><path fill="#364145" d="M76 46h1v1h-1z"/><path fill="#231815" d="M77 46h1v1h-1zM78 46h1v1h-1zM79 46h1v1h-1zM80 46h1v1h-1zM81 46h1v1h-1zM82 46h1v1h-1zM83 46h1v1h-1zM84 46h1v1h-1zM85 46h1v1h-1zM0 47h1v1H0zM1 47h1v1H1zM2 47h1v1H2zM3 47h1v1H3zM4 47h1v1H4z"/><path fill="#494B4A" d="M5 47h1v1H5z"/><path fill="#829699" d="M6 47h1v1H6z"/><path fill="#BBE2E8" d="M7 47h1v1H7zM8 47h1v1H8zM9 47h1v1H9zM10 47h1v1h-1zM11 47h1v1h-1zM12 47h1v1h-1zM13 47h1v1h-1zM14 47h1v1h-1zM15 47h1v1h-1zM16 47h1v1h-1zM17 47h1v1h-1zM18 47h1v1h-1zM19 47h1v1h-1zM20 47h1v1h-1zM21 47h1v1h-1zM22 47h1v1h-1zM23 47h1v1h-1zM24 47h1v1h-1zM25 47h1v1h-1zM26 47h1v1h-1zM27 47h1v1h-1zM28 47h1v1h-1zM29 47h1v1h-1zM30 47h1v1h-1zM31 47h1v1h-1zM32 47h1v1h-1zM33 47h1v1h-1z"/><path fill="#8DC3D0" d="M34 47h1v1h-1z"/><path fill="#78B5C5" d="M35 47h1v1h-1zM36 47h1v1h-1zM37 47h1v1h-1zM38 47h1v1h-1z"/><path fill="#AAD7DF" d="M39 47h1v1h-1z"/><path fill="#BBE2E8" d="M40 47h1v1h-1zM41 47h1v1h-1zM42 47h1v1h-1z"/><path fill="#D4EDF2" d="M43 47h1v1h-1z"/><path fill="#F4FBFE" d="M44 47h1v1h-1zM45 47h1v1h-1zM46 47h1v1h-1zM47 47h1v1h-1zM48 47h1v1h-1zM49 47h1v1h-1zM50 47h1v1h-1zM51 47h1v1h-1zM52 47h1v1h-1zM53 47h1v1h-1zM54 47h1v1h-1zM55 47h1v1h-1z"/><path fill="#E6F5F9" d="M56 47h1v1h-1z"/><path fill="#BBE2E8" d="M57 47h1v1h-1zM58 47h1v1h-1z"/><path fill="#B5DCE3" d="M59 47h1v1h-1z"/><path fill="#568596" d="M60 47h1v1h-1zM61 47h1v1h-1zM62 47h1v1h-1zM63 47h1v1h-1zM64 47h1v1h-1zM65 47h1v1h-1zM66 47h1v1h-1zM67 47h1v1h-1zM68 47h1v1h-1zM69 47h1v1h-1zM70 47h1v1h-1zM71 47h1v1h-1z"/><path fill="#537E8E" d="M72 47h1v1h-1z"/><path fill="#40555E" d="M73 47h1v1h-1z"/><path fill="#292625" d="M74 47h1v1h-1z"/><path fill="#231815" d="M75 47h1v1h-1zM76 47h1v1h-1zM77 47h1v1h-1zM78 47h1v1h-1zM79 47h1v1h-1zM80 47h1v1h-1zM81 47h1v1h-1zM82 47h1v1h-1zM83 47h1v1h-1zM0 48h1v1H0zM1 48h1v1H1zM2 48h1v1H2zM3 48h1v1H3zM4 48h1v1H4zM5 48h1v1H5zM6 48h1v1H6z"/><path fill="#36312F" d="M7 48h1v1H7z"/><path fill="#667071" d="M8 48h1v1H8z"/><path fill="#A8C9CE" d="M9 48h1v1H9z"/><path fill="#BBE2E8" d="M10 48h1v1h-1zM11 48h1v1h-1zM12 48h1v1h-1zM13 48h1v1h-1zM14 48h1v1h-1zM15 48h1v1h-1zM16 48h1v1h-1zM17 48h1v1h-1zM18 48h1v1h-1zM19 48h1v1h-1zM20 48h1v1h-1zM21 48h1v1h-1zM22 48h1v1h-1zM23 48h1v1h-1zM24 48h1v1h-1zM25 48h1v1h-1zM26 48h1v1h-1zM27 48h1v1h-1zM28 48h1v1h-1zM29 48h1v1h-1zM30 48h1v1h-1zM31 48h1v1h-1zM32 48h1v1h-1zM33 48h1v1h-1z"/><path fill="#7CB8C7" d="M34 48h1v1h-1z"/><path fill="#78B5C5" d="M35 48h1v1h-1zM36 48h1v1h-1zM37 48h1v1h-1zM38 48h1v1h-1z"/><path fill="#AAD7DF" d="M39 48h1v1h-1z"/><path fill="#BBE2E8" d="M40 48h1v1h-1zM41 48h1v1h-1zM42 48h1v1h-1z"/><path fill="#C2E5EB" d="M43 48h1v1h-1z"/><path fill="#F4FBFE" d="M44 48h1v1h-1zM45 48h1v1h-1zM46 48h1v1h-1zM47 48h1v1h-1zM48 48h1v1h-1zM49 48h1v1h-1zM50 48h1v1h-1zM51 48h1v1h-1zM52 48h1v1h-1zM53 48h1v1h-1zM54 48h1v1h-1zM55 48h1v1h-1zM56 48h1v1h-1z"/><path fill="#C9E8EE" d="M57 48h1v1h-1z"/><path fill="#BBE2E8" d="M58 48h1v1h-1zM59 48h1v1h-1z"/><path fill="#6996A5" d="M60 48h1v1h-1z"/><path fill="#568596" d="M61 48h1v1h-1zM62 48h1v1h-1zM63 48h1v1h-1zM64 48h1v1h-1zM65 48h1v1h-1zM66 48h1v1h-1zM67 48h1v1h-1zM68 48h1v1h-1zM69 48h1v1h-1z"/><path fill="#496A76" d="M70 48h1v1h-1z"/><path fill="#364145" d="M71 48h1v1h-1z"/><path fill="#231815" d="M72 48h1v1h-1zM73 48h1v1h-1zM74 48h1v1h-1zM75 48h1v1h-1zM76 48h1v1h-1zM77 48h1v1h-1zM78 48h1v1h-1zM79 48h1v1h-1zM80 48h1v1h-1zM81 48h1v1h-1zM1 49h1v1H1zM2 49h1v1H2zM3 49h1v1H3zM4 49h1v1H4zM5 49h1v1H5zM6 49h1v1H6zM7 49h1v1H7zM8 49h1v1H8zM9 49h1v1H9z"/><path fill="#403E3D" d="M10 49h1v1h-1z"/><path fill="#829699" d="M11 49h1v1h-1z"/><path fill="#B2D5DB" d="M12 49h1v1h-1z"/><path fill="#BBE2E8" d="M13 49h1v1h-1zM14 49h1v1h-1zM15 49h1v1h-1zM16 49h1v1h-1zM17 49h1v1h-1zM18 49h1v1h-1zM19 49h1v1h-1zM20 49h1v1h-1zM21 49h1v1h-1zM22 49h1v1h-1zM23 49h1v1h-1zM24 49h1v1h-1zM25 49h1v1h-1zM26 49h1v1h-1zM27 49h1v1h-1zM28 49h1v1h-1zM29 49h1v1h-1zM30 49h1v1h-1zM31 49h1v1h-1zM32 49h1v1h-1z"/><path fill="#AEDAE1" d="M33 49h1v1h-1z"/><path fill="#78B5C5" d="M34 49h1v1h-1zM35 49h1v1h-1zM36 49h1v1h-1zM37 49h1v1h-1zM38 49h1v1h-1z"/><path fill="#9ECED9" d="M39 49h1v1h-1z"/><path fill="#BBE2E8" d="M40 49h1v1h-1zM41 49h1v1h-1zM42 49h1v1h-1zM43 49h1v1h-1z"/><path fill="#E6F5F9" d="M44 49h1v1h-1z"/><path fill="#F4FBFE" d="M45 49h1v1h-1zM46 49h1v1h-1zM47 49h1v1h-1zM48 49h1v1h-1zM49 49h1v1h-1zM50 49h1v1h-1zM51 49h1v1h-1zM52 49h1v1h-1zM53 49h1v1h-1zM54 49h1v1h-1zM55 49h1v1h-1zM56 49h1v1h-1z"/><path fill="#E6F5F9" d="M57 49h1v1h-1z"/><path fill="#BBE2E8" d="M58 49h1v1h-1zM59 49h1v1h-1z"/><path fill="#89B4BF" d="M60 49h1v1h-1z"/><path fill="#568596" d="M61 49h1v1h-1zM62 49h1v1h-1zM63 49h1v1h-1zM64 49h1v1h-1zM65 49h1v1h-1zM66 49h1v1h-1zM67 49h1v1h-1z"/><path fill="#435C66" d="M68 49h1v1h-1z"/><path fill="#2D2C2D" d="M69 49h1v1h-1z"/><path fill="#231815" d="M70 49h1v1h-1zM71 49h1v1h-1zM72 49h1v1h-1zM73 49h1v1h-1zM74 49h1v1h-1zM75 49h1v1h-1zM76 49h1v1h-1zM77 49h1v1h-1zM78 49h1v1h-1zM79 49h1v1h-1zM3 50h1v1H3zM4 50h1v1H4zM5 50h1v1H5zM6 50h1v1H6zM7 50h1v1H7zM8 50h1v1H8zM9 50h1v1H9zM10 50h1v1h-1zM11 50h1v1h-1zM12 50h1v1h-1z"/><path fill="#535757" d="M13 50h1v1h-1z"/><path fill="#829699" d="M14 50h1v1h-1z"/><path fill="#B2D5DB" d="M15 50h1v1h-1z"/><path fill="#BBE2E8" d="M16 50h1v1h-1zM17 50h1v1h-1zM18 50h1v1h-1zM19 50h1v1h-1zM20 50h1v1h-1zM21 50h1v1h-1zM22 50h1v1h-1zM23 50h1v1h-1zM24 50h1v1h-1zM25 50h1v1h-1zM26 50h1v1h-1zM27 50h1v1h-1zM28 50h1v1h-1zM29 50h1v1h-1zM30 50h1v1h-1zM31 50h1v1h-1zM32 50h1v1h-1z"/><path fill="#91C6D2" d="M33 50h1v1h-1z"/><path fill="#78B5C5" d="M34 50h1v1h-1zM35 50h1v1h-1zM36 50h1v1h-1zM37 50h1v1h-1zM38 50h1v1h-1z"/><path fill="#8DC3D0" d="M39 50h1v1h-1z"/><path fill="#BBE2E8" d="M40 50h1v1h-1zM41 50h1v1h-1zM42 50h1v1h-1zM43 50h1v1h-1z"/><path fill="#C2E5EB" d="M44 50h1v1h-1z"/><path fill="#EDF8FB" d="M45 50h1v1h-1z"/><path fill="#F4FBFE" d="M46 50h1v1h-1zM47 50h1v1h-1zM48 50h1v1h-1zM49 50h1v1h-1zM50 50h1v1h-1zM51 50h1v1h-1zM52 50h1v1h-1zM53 50h1v1h-1zM54 50h1v1h-1zM55 50h1v1h-1zM56 50h1v1h-1zM57 50h1v1h-1z"/><path fill="#C9E8EE" d="M58 50h1v1h-1z"/><path fill="#BBE2E8" d="M59 50h1v1h-1z"/><path fill="#9BC5CE" d="M60 50h1v1h-1z"/><path fill="#568596" d="M61 50h1v1h-1zM62 50h1v1h-1zM63 50h1v1h-1zM64 50h1v1h-1zM65 50h1v1h-1z"/><path fill="#40555E" d="M66 50h1v1h-1z"/><path fill="#292625" d="M67 50h1v1h-1z"/><path fill="#231815" d="M68 50h1v1h-1zM69 50h1v1h-1zM70 50h1v1h-1zM71 50h1v1h-1zM72 50h1v1h-1zM73 50h1v1h-1zM74 50h1v1h-1zM75 50h1v1h-1zM76 50h1v1h-1zM5 51h1v1H5zM6 51h1v1H6zM7 51h1v1H7zM8 51h1v1H8zM9 51h1v1H9zM10 51h1v1h-1zM11 51h1v1h-1zM12 51h1v1h-1zM13 51h1v1h-1zM14 51h1v1h-1zM15 51h1v1h-1z"/><path fill="#535757" d="M16 51h1v1h-1z"/><path fill="#829699" d="M17 51h1v1h-1z"/><path fill="#B2D5DB" d="M18 51h1v1h-1z"/><path fill="#BBE2E8" d="M19 51h1v1h-1zM20 51h1v1h-1zM21 51h1v1h-1zM22 51h1v1h-1zM23 51h1v1h-1zM24 51h1v1h-1zM25 51h1v1h-1zM26 51h1v1h-1zM27 51h1v1h-1zM28 51h1v1h-1zM29 51h1v1h-1zM30 51h1v1h-1zM31 51h1v1h-1z"/><path fill="#B3DCE4" d="M32 51h1v1h-1z"/><path fill="#78B5C5" d="M33 51h1v1h-1zM34 51h1v1h-1zM35 51h1v1h-1zM36 51h1v1h-1zM37 51h1v1h-1zM38 51h1v1h-1zM39 51h1v1h-1z"/><path fill="#B7DFE6" d="M40 51h1v1h-1z"/><path fill="#BBE2E8" d="M41 51h1v1h-1zM42 51h1v1h-1zM43 51h1v1h-1zM44 51h1v1h-1zM45 51h1v1h-1z"/><path fill="#D0EBF0" d="M46 51h1v1h-1z"/><path fill="#EDF8FB" d="M47 51h1v1h-1z"/><path fill="#F4FBFE" d="M48 51h1v1h-1zM49 51h1v1h-1zM50 51h1v1h-1zM51 51h1v1h-1zM52 51h1v1h-1zM53 51h1v1h-1zM54 51h1v1h-1zM55 51h1v1h-1zM56 51h1v1h-1zM57 51h1v1h-1z"/><path fill="#E6F5F9" d="M58 51h1v1h-1z"/><path fill="#BBE2E8" d="M59 51h1v1h-1z"/><path fill="#AED6DE" d="M60 51h1v1h-1z"/><path fill="#568596" d="M61 51h1v1h-1zM62 51h1v1h-1zM63 51h1v1h-1z"/><path fill="#435C66" d="M64 51h1v1h-1z"/><path fill="#292625" d="M65 51h1v1h-1z"/><path fill="#231815" d="M66 51h1v1h-1zM67 51h1v1h-1zM68 51h1v1h-1zM69 51h1v1h-1zM70 51h1v1h-1zM71 51h1v1h-1zM72 51h1v1h-1zM73 51h1v1h-1zM74 51h1v1h-1zM8 52h1v1H8zM9 52h1v1H9zM10 52h1v1h-1zM11 52h1v1h-1zM12 52h1v1h-1zM13 52h1v1h-1zM14 52h1v1h-1zM15 52h1v1h-1zM16 52h1v1h-1zM17 52h1v1h-1zM18 52h1v1h-1z"/><path fill="#535757" d="M19 52h1v1h-1z"/><path fill="#829699" d="M20 52h1v1h-1z"/><path fill="#B2D5DB" d="M21 52h1v1h-1z"/><path fill="#BBE2E8" d="M22 52h1v1h-1zM23 52h1v1h-1zM24 52h1v1h-1zM25 52h1v1h-1zM26 52h1v1h-1zM27 52h1v1h-1zM28 52h1v1h-1zM29 52h1v1h-1zM30 52h1v1h-1zM31 52h1v1h-1z"/><path fill="#89C0CE" d="M32 52h1v1h-1z"/><path fill="#78B5C5" d="M33 52h1v1h-1zM34 52h1v1h-1zM35 52h1v1h-1zM36 52h1v1h-1z"/><path fill="#76B2C2" d="M37 52h1v1h-1z"/><path fill="#70A9B9" d="M38 52h1v1h-1z"/><path fill="#6BA3B3" d="M39 52h1v1h-1z"/><path fill="#74A5B4" d="M40 52h1v1h-1z"/><path fill="#B5DCE3" d="M41 52h1v1h-1z"/><path fill="#BBE2E8" d="M42 52h1v1h-1zM43 52h1v1h-1zM44 52h1v1h-1zM45 52h1v1h-1zM46 52h1v1h-1zM47 52h1v1h-1z"/><path fill="#CDEAEF" d="M48 52h1v1h-1z"/><path fill="#E6F5F9" d="M49 52h1v1h-1z"/><path fill="#F4FBFE" d="M50 52h1v1h-1zM51 52h1v1h-1zM52 52h1v1h-1zM53 52h1v1h-1zM54 52h1v1h-1zM55 52h1v1h-1zM56 52h1v1h-1zM57 52h1v1h-1zM58 52h1v1h-1z"/><path fill="#C2E5EB" d="M59 52h1v1h-1z"/><path fill="#BBE2E8" d="M60 52h1v1h-1z"/><path fill="#568596" d="M61 52h1v1h-1z"/><path fill="#46636E" d="M62 52h1v1h-1z"/><path fill="#292625" d="M63 52h1v1h-1z"/><path fill="#231815" d="M64 52h1v1h-1zM65 52h1v1h-1zM66 52h1v1h-1zM67 52h1v1h-1zM68 52h1v1h-1zM69 52h1v1h-1zM70 52h1v1h-1zM71 52h1v1h-1zM10 53h1v1h-1zM11 53h1v1h-1zM12 53h1v1h-1zM13 53h1v1h-1zM14 53h1v1h-1zM15 53h1v1h-1zM16 53h1v1h-1zM17 53h1v1h-1zM18 53h1v1h-1zM19 53h1v1h-1zM20 53h1v1h-1zM21 53h1v1h-1z"/><path fill="#535757" d="M22 53h1v1h-1z"/><path fill="#829699" d="M23 53h1v1h-1z"/><path fill="#B2D5DB" d="M24 53h1v1h-1z"/><path fill="#BBE2E8" d="M25 53h1v1h-1zM26 53h1v1h-1zM27 53h1v1h-1zM28 53h1v1h-1zM29 53h1v1h-1zM30 53h1v1h-1z"/><path fill="#84B4C1" d="M31 53h1v1h-1z"/><path fill="#679DAE" d="M32 53h1v1h-1z"/><path fill="#659AAB" d="M33 53h1v1h-1z"/><path fill="#5F91A2" d="M34 53h1v1h-1z"/><path fill="#5C8E9F" d="M35 53h1v1h-1z"/><path fill="#568596" d="M36 53h1v1h-1zM37 53h1v1h-1zM38 53h1v1h-1zM39 53h1v1h-1zM40 53h1v1h-1z"/><path fill="#5C8B9B" d="M41 53h1v1h-1z"/><path fill="#89B4BF" d="M42 53h1v1h-1z"/><path fill="#AED6DE" d="M43 53h1v1h-1z"/><path fill="#BBE2E8" d="M44 53h1v1h-1zM45 53h1v1h-1zM46 53h1v1h-1zM47 53h1v1h-1zM48 53h1v1h-1zM49 53h1v1h-1z"/><path fill="#C2E5EB" d="M50 53h1v1h-1z"/><path fill="#D8EFF3" d="M51 53h1v1h-1z"/><path fill="#EDF8FB" d="M52 53h1v1h-1z"/><path fill="#F4FBFE" d="M53 53h1v1h-1zM54 53h1v1h-1zM55 53h1v1h-1zM56 53h1v1h-1zM57 53h1v1h-1zM58 53h1v1h-1z"/><path fill="#D4EDF2" d="M59 53h1v1h-1z"/><path fill="#BBE2E8" d="M60 53h1v1h-1z"/><path fill="#63818A" d="M61 53h1v1h-1z"/><path fill="#231815" d="M62 53h1v1h-1zM63 53h1v1h-1zM64 53h1v1h-1zM65 53h1v1h-1zM66 53h1v1h-1zM67 53h1v1h-1zM68 53h1v1h-1zM69 53h1v1h-1zM13 54h1v1h-1zM14 54h1v1h-1zM15 54h1v1h-1zM16 54h1v1h-1zM17 54h1v1h-1zM18 54h1v1h-1zM19 54h1v1h-1zM20 54h1v1h-1zM21 54h1v1h-1zM22 54h1v1h-1zM23 54h1v1h-1zM24 54h1v1h-1z"/><path fill="#535757" d="M25 54h1v1h-1z"/><path fill="#829699" d="M26 54h1v1h-1z"/><path fill="#B2D5DB" d="M27 54h1v1h-1z"/><path fill="#BBE2E8" d="M28 54h1v1h-1z"/><path fill="#AED6DE" d="M29 54h1v1h-1z"/><path fill="#6F9CAB" d="M30 54h1v1h-1z"/><path fill="#568596" d="M31 54h1v1h-1zM32 54h1v1h-1zM33 54h1v1h-1zM34 54h1v1h-1zM35 54h1v1h-1zM36 54h1v1h-1zM37 54h1v1h-1zM38 54h1v1h-1zM39 54h1v1h-1zM40 54h1v1h-1zM41 54h1v1h-1zM42 54h1v1h-1zM43 54h1v1h-1z"/><path fill="#6996A5" d="M44 54h1v1h-1z"/><path fill="#82AEBA" d="M45 54h1v1h-1z"/><path fill="#A2CBD4" d="M46 54h1v1h-1z"/><path fill="#B5DCE3" d="M47 54h1v1h-1z"/><path fill="#BBE2E8" d="M48 54h1v1h-1zM49 54h1v1h-1zM50 54h1v1h-1zM51 54h1v1h-1zM52 54h1v1h-1z"/><path fill="#C6E7EC" d="M53 54h1v1h-1z"/><path fill="#DBF0F4" d="M54 54h1v1h-1z"/><path fill="#E9F6FA" d="M55 54h1v1h-1z"/><path fill="#F4FBFE" d="M56 54h1v1h-1zM57 54h1v1h-1zM58 54h1v1h-1z"/><path fill="#D8EFF3" d="M59 54h1v1h-1z"/><path fill="#BBE2E8" d="M60 54h1v1h-1z"/><path fill="#596D72" d="M61 54h1v1h-1z"/><path fill="#231815" d="M62 54h1v1h-1zM63 54h1v1h-1zM64 54h1v1h-1zM65 54h1v1h-1z"/><path fill="#261F1D" d="M66 54h1v1h-1z"/><path fill="#231815" d="M67 54h1v1h-1zM68 54h1v1h-1zM69 54h1v1h-1zM16 55h1v1h-1zM17 55h1v1h-1zM18 55h1v1h-1zM19 55h1v1h-1zM20 55h1v1h-1zM21 55h1v1h-1zM22 55h1v1h-1zM23 55h1v1h-1zM24 55h1v1h-1zM25 55h1v1h-1zM26 55h1v1h-1zM27 55h1v1h-1z"/><path fill="#464C4D" d="M28 55h1v1h-1z"/><path fill="#435C66" d="M29 55h1v1h-1z"/><path fill="#568596" d="M30 55h1v1h-1zM31 55h1v1h-1zM32 55h1v1h-1zM33 55h1v1h-1zM34 55h1v1h-1zM35 55h1v1h-1zM36 55h1v1h-1zM37 55h1v1h-1zM38 55h1v1h-1zM39 55h1v1h-1zM40 55h1v1h-1zM41 55h1v1h-1zM42 55h1v1h-1zM43 55h1v1h-1zM44 55h1v1h-1zM45 55h1v1h-1zM46 55h1v1h-1zM47 55h1v1h-1z"/><path fill="#6996A5" d="M48 55h1v1h-1z"/><path fill="#7CA8B5" d="M49 55h1v1h-1z"/><path fill="#8FB9C4" d="M50 55h1v1h-1z"/><path fill="#A2CBD4" d="M51 55h1v1h-1z"/><path fill="#B5DCE3" d="M52 55h1v1h-1z"/><path fill="#BBE2E8" d="M53 55h1v1h-1zM54 55h1v1h-1zM55 55h1v1h-1z"/><path fill="#BFE4E9" d="M56 55h1v1h-1z"/><path fill="#C9E8EE" d="M57 55h1v1h-1zM58 55h1v1h-1z"/><path fill="#C2E5EB" d="M59 55h1v1h-1z"/><path fill="#AED6DE" d="M60 55h1v1h-1z"/><path fill="#598493" d="M61 55h1v1h-1z"/><path fill="#2D2C2D" d="M62 55h1v1h-1z"/><path fill="#231815" d="M63 55h1v1h-1z"/><path fill="#364145" d="M64 55h1v1h-1z"/><path fill="#507786" d="M65 55h1v1h-1z"/><path fill="#364145" d="M66 55h1v1h-1z"/><path fill="#231815" d="M67 55h1v1h-1zM68 55h1v1h-1zM69 55h1v1h-1zM70 55h1v1h-1zM18 56h1v1h-1zM19 56h1v1h-1zM20 56h1v1h-1zM21 56h1v1h-1zM22 56h1v1h-1zM23 56h1v1h-1zM24 56h1v1h-1zM25 56h1v1h-1zM26 56h1v1h-1zM27 56h1v1h-1zM28 56h1v1h-1zM29 56h1v1h-1z"/><path fill="#40555E" d="M30 56h1v1h-1z"/><path fill="#568596" d="M31 56h1v1h-1zM32 56h1v1h-1zM33 56h1v1h-1zM34 56h1v1h-1zM35 56h1v1h-1zM36 56h1v1h-1zM37 56h1v1h-1zM38 56h1v1h-1zM39 56h1v1h-1zM40 56h1v1h-1zM41 56h1v1h-1zM42 56h1v1h-1zM43 56h1v1h-1zM44 56h1v1h-1zM45 56h1v1h-1zM46 56h1v1h-1zM47 56h1v1h-1zM48 56h1v1h-1zM49 56h1v1h-1zM50 56h1v1h-1zM51 56h1v1h-1zM52 56h1v1h-1zM53 56h1v1h-1z"/><path fill="#6996A5" d="M54 56h1v1h-1z"/><path fill="#6F9CAB" d="M55 56h1v1h-1zM56 56h1v1h-1zM57 56h1v1h-1zM58 56h1v1h-1zM59 56h1v1h-1z"/><path fill="#568596" d="M60 56h1v1h-1zM61 56h1v1h-1zM62 56h1v1h-1zM63 56h1v1h-1zM64 56h1v1h-1zM65 56h1v1h-1z"/><path fill="#46636E" d="M66 56h1v1h-1z"/><path fill="#231815" d="M67 56h1v1h-1zM68 56h1v1h-1zM69 56h1v1h-1zM70 56h1v1h-1zM18 57h1v1h-1zM19 57h1v1h-1zM20 57h1v1h-1zM21 57h1v1h-1z"/><path fill="#496A76" d="M22 57h1v1h-1z"/><path fill="#435C66" d="M23 57h1v1h-1z"/><path fill="#333A3D" d="M24 57h1v1h-1z"/><path fill="#231815" d="M25 57h1v1h-1zM26 57h1v1h-1zM27 57h1v1h-1zM28 57h1v1h-1zM29 57h1v1h-1z"/><path fill="#3D4F56" d="M30 57h1v1h-1z"/><path fill="#568596" d="M31 57h1v1h-1zM32 57h1v1h-1zM33 57h1v1h-1zM34 57h1v1h-1zM35 57h1v1h-1zM36 57h1v1h-1zM37 57h1v1h-1zM38 57h1v1h-1zM39 57h1v1h-1zM40 57h1v1h-1zM41 57h1v1h-1zM42 57h1v1h-1zM43 57h1v1h-1zM44 57h1v1h-1zM45 57h1v1h-1zM46 57h1v1h-1zM47 57h1v1h-1zM48 57h1v1h-1zM49 57h1v1h-1zM50 57h1v1h-1zM51 57h1v1h-1zM52 57h1v1h-1zM53 57h1v1h-1zM54 57h1v1h-1zM55 57h1v1h-1zM56 57h1v1h-1zM57 57h1v1h-1zM58 57h1v1h-1zM59 57h1v1h-1zM60 57h1v1h-1zM61 57h1v1h-1zM62 57h1v1h-1zM63 57h1v1h-1zM64 57h1v1h-1zM65 57h1v1h-1z"/><path fill="#537E8E" d="M66 57h1v1h-1z"/><path fill="#231815" d="M67 57h1v1h-1zM68 57h1v1h-1zM69 57h1v1h-1zM70 57h1v1h-1zM18 58h1v1h-1zM19 58h1v1h-1zM20 58h1v1h-1z"/><path fill="#292625" d="M21 58h1v1h-1z"/><path fill="#568596" d="M22 58h1v1h-1zM23 58h1v1h-1zM24 58h1v1h-1z"/><path fill="#537E8E" d="M25 58h1v1h-1z"/><path fill="#435C66" d="M26 58h1v1h-1z"/><path fill="#333A3D" d="M27 58h1v1h-1z"/><path fill="#231815" d="M28 58h1v1h-1z"/><path fill="#292625" d="M29 58h1v1h-1z"/><path fill="#4C717E" d="M30 58h1v1h-1z"/><path fill="#568596" d="M31 58h1v1h-1zM32 58h1v1h-1zM33 58h1v1h-1zM34 58h1v1h-1zM35 58h1v1h-1zM36 58h1v1h-1zM37 58h1v1h-1zM38 58h1v1h-1zM39 58h1v1h-1zM40 58h1v1h-1zM41 58h1v1h-1zM42 58h1v1h-1zM43 58h1v1h-1zM44 58h1v1h-1zM45 58h1v1h-1zM46 58h1v1h-1zM47 58h1v1h-1zM48 58h1v1h-1zM49 58h1v1h-1zM50 58h1v1h-1zM51 58h1v1h-1zM52 58h1v1h-1zM53 58h1v1h-1zM54 58h1v1h-1zM55 58h1v1h-1zM56 58h1v1h-1zM57 58h1v1h-1zM58 58h1v1h-1zM59 58h1v1h-1zM60 58h1v1h-1zM61 58h1v1h-1zM62 58h1v1h-1zM63 58h1v1h-1zM64 58h1v1h-1zM65 58h1v1h-1zM66 58h1v1h-1z"/><path fill="#333A3D" d="M67 58h1v1h-1z"/><path fill="#231815" d="M68 58h1v1h-1zM69 58h1v1h-1zM70 58h1v1h-1zM71 58h1v1h-1zM17 59h1v1h-1zM18 59h1v1h-1zM19 59h1v1h-1zM20 59h1v1h-1z"/><path fill="#39484D" d="M21 59h1v1h-1z"/><path fill="#568596" d="M22 59h1v1h-1zM23 59h1v1h-1zM24 59h1v1h-1zM25 59h1v1h-1zM26 59h1v1h-1zM27 59h1v1h-1zM28 59h1v1h-1zM29 59h1v1h-1zM30 59h1v1h-1zM31 59h1v1h-1zM32 59h1v1h-1zM33 59h1v1h-1zM34 59h1v1h-1zM35 59h1v1h-1zM36 59h1v1h-1zM37 59h1v1h-1zM38 59h1v1h-1zM39 59h1v1h-1zM40 59h1v1h-1zM41 59h1v1h-1zM42 59h1v1h-1zM43 59h1v1h-1zM44 59h1v1h-1zM45 59h1v1h-1zM46 59h1v1h-1zM47 59h1v1h-1zM48 59h1v1h-1zM49 59h1v1h-1zM50 59h1v1h-1zM51 59h1v1h-1zM52 59h1v1h-1zM53 59h1v1h-1zM54 59h1v1h-1zM55 59h1v1h-1z"/><path fill="#537E8E" d="M56 59h1v1h-1z"/><path fill="#364145" d="M57 59h1v1h-1zM58 59h1v1h-1z"/><path fill="#537E8E" d="M59 59h1v1h-1z"/><path fill="#568596" d="M60 59h1v1h-1zM61 59h1v1h-1zM62 59h1v1h-1zM63 59h1v1h-1zM64 59h1v1h-1zM65 59h1v1h-1zM66 59h1v1h-1z"/><path fill="#435C66" d="M67 59h1v1h-1z"/><path fill="#231815" d="M68 59h1v1h-1zM69 59h1v1h-1zM70 59h1v1h-1zM71 59h1v1h-1zM17 60h1v1h-1zM18 60h1v1h-1zM19 60h1v1h-1zM20 60h1v1h-1z"/><path fill="#4C717E" d="M21 60h1v1h-1z"/><path fill="#568596" d="M22 60h1v1h-1zM23 60h1v1h-1zM24 60h1v1h-1zM25 60h1v1h-1zM26 60h1v1h-1zM27 60h1v1h-1zM28 60h1v1h-1zM29 60h1v1h-1zM30 60h1v1h-1zM31 60h1v1h-1zM32 60h1v1h-1z"/><path fill="#40555E" d="M33 60h1v1h-1z"/><path fill="#3D4F56" d="M34 60h1v1h-1z"/><path fill="#537E8E" d="M35 60h1v1h-1z"/><path fill="#568596" d="M36 60h1v1h-1zM37 60h1v1h-1zM38 60h1v1h-1zM39 60h1v1h-1zM40 60h1v1h-1zM41 60h1v1h-1zM42 60h1v1h-1zM43 60h1v1h-1zM44 60h1v1h-1zM45 60h1v1h-1zM46 60h1v1h-1zM47 60h1v1h-1zM48 60h1v1h-1zM49 60h1v1h-1zM50 60h1v1h-1zM51 60h1v1h-1zM52 60h1v1h-1zM53 60h1v1h-1zM54 60h1v1h-1zM55 60h1v1h-1z"/><path fill="#303335" d="M56 60h1v1h-1z"/><path fill="#231815" d="M57 60h1v1h-1zM58 60h1v1h-1z"/><path fill="#333A3D" d="M59 60h1v1h-1z"/><path fill="#568596" d="M60 60h1v1h-1zM61 60h1v1h-1zM62 60h1v1h-1zM63 60h1v1h-1zM64 60h1v1h-1zM65 60h1v1h-1zM66 60h1v1h-1zM67 60h1v1h-1z"/><path fill="#261F1D" d="M68 60h1v1h-1z"/><path fill="#231815" d="M69 60h1v1h-1zM70 60h1v1h-1zM71 60h1v1h-1zM16 61h1v1h-1zM17 61h1v1h-1zM18 61h1v1h-1zM19 61h1v1h-1z"/><path fill="#2D2C2D" d="M20 61h1v1h-1z"/><path fill="#568596" d="M21 61h1v1h-1zM22 61h1v1h-1zM23 61h1v1h-1zM24 61h1v1h-1zM25 61h1v1h-1zM26 61h1v1h-1zM27 61h1v1h-1zM28 61h1v1h-1zM29 61h1v1h-1zM30 61h1v1h-1zM31 61h1v1h-1z"/><path fill="#40555E" d="M32 61h1v1h-1z"/><path fill="#231815" d="M33 61h1v1h-1zM34 61h1v1h-1z"/><path fill="#303335" d="M35 61h1v1h-1z"/><path fill="#568596" d="M36 61h1v1h-1zM37 61h1v1h-1zM38 61h1v1h-1zM39 61h1v1h-1zM40 61h1v1h-1zM41 61h1v1h-1zM42 61h1v1h-1zM43 61h1v1h-1zM44 61h1v1h-1zM45 61h1v1h-1zM46 61h1v1h-1zM47 61h1v1h-1zM48 61h1v1h-1zM49 61h1v1h-1zM50 61h1v1h-1zM51 61h1v1h-1zM52 61h1v1h-1zM53 61h1v1h-1zM54 61h1v1h-1z"/><path fill="#496A76" d="M55 61h1v1h-1z"/><path fill="#231815" d="M56 61h1v1h-1zM57 61h1v1h-1zM58 61h1v1h-1z"/><path fill="#333A3D" d="M59 61h1v1h-1z"/><path fill="#568596" d="M60 61h1v1h-1zM61 61h1v1h-1zM62 61h1v1h-1zM63 61h1v1h-1zM64 61h1v1h-1zM65 61h1v1h-1zM66 61h1v1h-1zM67 61h1v1h-1z"/><path fill="#364145" d="M68 61h1v1h-1z"/><path fill="#231815" d="M69 61h1v1h-1zM70 61h1v1h-1zM71 61h1v1h-1zM72 61h1v1h-1zM16 62h1v1h-1zM17 62h1v1h-1zM18 62h1v1h-1zM19 62h1v1h-1z"/><path fill="#40555E" d="M20 62h1v1h-1z"/><path fill="#568596" d="M21 62h1v1h-1zM22 62h1v1h-1zM23 62h1v1h-1zM24 62h1v1h-1zM25 62h1v1h-1zM26 62h1v1h-1zM27 62h1v1h-1zM28 62h1v1h-1zM29 62h1v1h-1zM30 62h1v1h-1zM31 62h1v1h-1z"/><path fill="#364145" d="M32 62h1v1h-1z"/><path fill="#231815" d="M33 62h1v1h-1zM34 62h1v1h-1zM35 62h1v1h-1z"/><path fill="#435C66" d="M36 62h1v1h-1z"/><path fill="#568596" d="M37 62h1v1h-1zM38 62h1v1h-1zM39 62h1v1h-1zM40 62h1v1h-1zM41 62h1v1h-1zM42 62h1v1h-1zM43 62h1v1h-1zM44 62h1v1h-1zM45 62h1v1h-1zM46 62h1v1h-1zM47 62h1v1h-1zM48 62h1v1h-1zM49 62h1v1h-1zM50 62h1v1h-1zM51 62h1v1h-1zM52 62h1v1h-1zM53 62h1v1h-1zM54 62h1v1h-1z"/><path fill="#364145" d="M55 62h1v1h-1z"/><path fill="#231815" d="M56 62h1v1h-1zM57 62h1v1h-1zM58 62h1v1h-1z"/><path fill="#496A76" d="M59 62h1v1h-1z"/><path fill="#568596" d="M60 62h1v1h-1zM61 62h1v1h-1zM62 62h1v1h-1zM63 62h1v1h-1zM64 62h1v1h-1zM65 62h1v1h-1zM66 62h1v1h-1zM67 62h1v1h-1z"/><path fill="#46636E" d="M68 62h1v1h-1z"/><path fill="#231815" d="M69 62h1v1h-1zM70 62h1v1h-1zM71 62h1v1h-1zM72 62h1v1h-1zM16 63h1v1h-1zM17 63h1v1h-1zM18 63h1v1h-1zM19 63h1v1h-1z"/><path fill="#537E8E" d="M20 63h1v1h-1z"/><path fill="#568596" d="M21 63h1v1h-1zM22 63h1v1h-1zM23 63h1v1h-1zM24 63h1v1h-1zM25 63h1v1h-1zM26 63h1v1h-1zM27 63h1v1h-1zM28 63h1v1h-1zM29 63h1v1h-1zM30 63h1v1h-1zM31 63h1v1h-1z"/><path fill="#496A76" d="M32 63h1v1h-1z"/><path fill="#231815" d="M33 63h1v1h-1zM34 63h1v1h-1zM35 63h1v1h-1z"/><path fill="#261F1D" d="M36 63h1v1h-1z"/><path fill="#537E8E" d="M37 63h1v1h-1z"/><path fill="#568596" d="M38 63h1v1h-1zM39 63h1v1h-1zM40 63h1v1h-1zM41 63h1v1h-1zM42 63h1v1h-1zM43 63h1v1h-1zM44 63h1v1h-1zM45 63h1v1h-1zM46 63h1v1h-1zM47 63h1v1h-1zM48 63h1v1h-1zM49 63h1v1h-1zM50 63h1v1h-1zM51 63h1v1h-1zM52 63h1v1h-1zM53 63h1v1h-1z"/><path fill="#507786" d="M54 63h1v1h-1z"/><path fill="#231815" d="M55 63h1v1h-1zM56 63h1v1h-1zM57 63h1v1h-1z"/><path fill="#2D2C2D" d="M58 63h1v1h-1z"/><path fill="#568596" d="M59 63h1v1h-1zM60 63h1v1h-1zM61 63h1v1h-1zM62 63h1v1h-1zM63 63h1v1h-1zM64 63h1v1h-1zM65 63h1v1h-1zM66 63h1v1h-1zM67 63h1v1h-1zM68 63h1v1h-1z"/><path fill="#261F1D" d="M69 63h1v1h-1z"/><path fill="#231815" d="M70 63h1v1h-1zM71 63h1v1h-1zM72 63h1v1h-1zM15 64h1v1h-1zM16 64h1v1h-1zM17 64h1v1h-1zM18 64h1v1h-1z"/><path fill="#364145" d="M19 64h1v1h-1z"/><path fill="#568596" d="M20 64h1v1h-1zM21 64h1v1h-1zM22 64h1v1h-1zM23 64h1v1h-1zM24 64h1v1h-1zM25 64h1v1h-1zM26 64h1v1h-1zM27 64h1v1h-1zM28 64h1v1h-1zM29 64h1v1h-1zM30 64h1v1h-1zM31 64h1v1h-1zM32 64h1v1h-1z"/><path fill="#364145" d="M33 64h1v1h-1z"/><path fill="#231815" d="M34 64h1v1h-1zM35 64h1v1h-1zM36 64h1v1h-1z"/><path fill="#3D4F56" d="M37 64h1v1h-1z"/><path fill="#568596" d="M38 64h1v1h-1zM39 64h1v1h-1zM40 64h1v1h-1zM41 64h1v1h-1zM42 64h1v1h-1zM43 64h1v1h-1zM44 64h1v1h-1zM45 64h1v1h-1zM46 64h1v1h-1zM47 64h1v1h-1zM48 64h1v1h-1zM49 64h1v1h-1zM50 64h1v1h-1zM51 64h1v1h-1zM52 64h1v1h-1zM53 64h1v1h-1z"/><path fill="#39484D" d="M54 64h1v1h-1z"/><path fill="#231815" d="M55 64h1v1h-1zM56 64h1v1h-1zM57 64h1v1h-1z"/><path fill="#435C66" d="M58 64h1v1h-1z"/><path fill="#568596" d="M59 64h1v1h-1zM60 64h1v1h-1zM61 64h1v1h-1zM62 64h1v1h-1zM63 64h1v1h-1zM64 64h1v1h-1zM65 64h1v1h-1zM66 64h1v1h-1zM67 64h1v1h-1zM68 64h1v1h-1z"/><path fill="#364145" d="M69 64h1v1h-1z"/><path fill="#231815" d="M70 64h1v1h-1zM71 64h1v1h-1zM72 64h1v1h-1zM73 64h1v1h-1zM15 65h1v1h-1zM16 65h1v1h-1zM17 65h1v1h-1zM18 65h1v1h-1z"/><path fill="#496A76" d="M19 65h1v1h-1z"/><path fill="#568596" d="M20 65h1v1h-1zM21 65h1v1h-1zM22 65h1v1h-1zM23 65h1v1h-1zM24 65h1v1h-1zM25 65h1v1h-1zM26 65h1v1h-1zM27 65h1v1h-1zM28 65h1v1h-1zM29 65h1v1h-1zM30 65h1v1h-1zM31 65h1v1h-1zM32 65h1v1h-1z"/><path fill="#537E8E" d="M33 65h1v1h-1z"/><path fill="#261F1D" d="M34 65h1v1h-1z"/><path fill="#231815" d="M35 65h1v1h-1zM36 65h1v1h-1zM37 65h1v1h-1z"/><path fill="#507786" d="M38 65h1v1h-1z"/><path fill="#568596" d="M39 65h1v1h-1zM40 65h1v1h-1zM41 65h1v1h-1zM42 65h1v1h-1zM43 65h1v1h-1zM44 65h1v1h-1zM45 65h1v1h-1zM46 65h1v1h-1zM47 65h1v1h-1zM48 65h1v1h-1zM49 65h1v1h-1zM50 65h1v1h-1zM51 65h1v1h-1zM52 65h1v1h-1zM53 65h1v1h-1z"/><path fill="#261F1D" d="M54 65h1v1h-1z"/><path fill="#231815" d="M55 65h1v1h-1zM56 65h1v1h-1z"/><path fill="#292625" d="M57 65h1v1h-1z"/><path fill="#568596" d="M58 65h1v1h-1zM59 65h1v1h-1zM60 65h1v1h-1zM61 65h1v1h-1zM62 65h1v1h-1zM63 65h1v1h-1zM64 65h1v1h-1zM65 65h1v1h-1zM66 65h1v1h-1zM67 65h1v1h-1zM68 65h1v1h-1z"/><path fill="#496A76" d="M69 65h1v1h-1z"/><path fill="#231815" d="M70 65h1v1h-1zM71 65h1v1h-1zM72 65h1v1h-1zM73 65h1v1h-1zM14 66h1v1h-1zM15 66h1v1h-1zM16 66h1v1h-1zM17 66h1v1h-1z"/><path fill="#2D2C2D" d="M18 66h1v1h-1z"/><path fill="#568596" d="M19 66h1v1h-1zM20 66h1v1h-1zM21 66h1v1h-1zM22 66h1v1h-1zM23 66h1v1h-1zM24 66h1v1h-1zM25 66h1v1h-1zM26 66h1v1h-1zM27 66h1v1h-1zM28 66h1v1h-1zM29 66h1v1h-1zM30 66h1v1h-1zM31 66h1v1h-1z"/><path fill="#537E8E" d="M32 66h1v1h-1z"/><path fill="#435C66" d="M33 66h1v1h-1z"/><path fill="#292625" d="M34 66h1v1h-1z"/><path fill="#231815" d="M35 66h1v1h-1zM36 66h1v1h-1zM37 66h1v1h-1z"/><path fill="#364145" d="M38 66h1v1h-1z"/><path fill="#568596" d="M39 66h1v1h-1zM40 66h1v1h-1zM41 66h1v1h-1zM42 66h1v1h-1zM43 66h1v1h-1zM44 66h1v1h-1zM45 66h1v1h-1zM46 66h1v1h-1zM47 66h1v1h-1zM48 66h1v1h-1zM49 66h1v1h-1zM50 66h1v1h-1zM51 66h1v1h-1zM52 66h1v1h-1z"/><path fill="#435C66" d="M53 66h1v1h-1z"/><path fill="#231815" d="M54 66h1v1h-1zM55 66h1v1h-1zM56 66h1v1h-1z"/><path fill="#3D4F56" d="M57 66h1v1h-1z"/><path fill="#568596" d="M58 66h1v1h-1zM59 66h1v1h-1zM60 66h1v1h-1zM61 66h1v1h-1zM62 66h1v1h-1zM63 66h1v1h-1zM64 66h1v1h-1zM65 66h1v1h-1zM66 66h1v1h-1zM67 66h1v1h-1zM68 66h1v1h-1zM69 66h1v1h-1z"/><path fill="#292625" d="M70 66h1v1h-1z"/><path fill="#231815" d="M71 66h1v1h-1zM72 66h1v1h-1zM73 66h1v1h-1zM14 67h1v1h-1zM15 67h1v1h-1zM16 67h1v1h-1zM17 67h1v1h-1z"/><path fill="#435C66" d="M18 67h1v1h-1z"/><path fill="#568596" d="M19 67h1v1h-1zM20 67h1v1h-1zM21 67h1v1h-1zM22 67h1v1h-1zM23 67h1v1h-1zM24 67h1v1h-1zM25 67h1v1h-1zM26 67h1v1h-1zM27 67h1v1h-1zM28 67h1v1h-1z"/><path fill="#537E8E" d="M29 67h1v1h-1z"/><path fill="#435C66" d="M30 67h1v1h-1z"/><path fill="#333A3D" d="M31 67h1v1h-1z"/><path fill="#231815" d="M32 67h1v1h-1zM33 67h1v1h-1zM34 67h1v1h-1zM35 67h1v1h-1zM36 67h1v1h-1zM37 67h1v1h-1zM38 67h1v1h-1z"/><path fill="#496A76" d="M39 67h1v1h-1z"/><path fill="#568596" d="M40 67h1v1h-1zM41 67h1v1h-1zM42 67h1v1h-1zM43 67h1v1h-1zM44 67h1v1h-1zM45 67h1v1h-1zM46 67h1v1h-1zM47 67h1v1h-1zM48 67h1v1h-1zM49 67h1v1h-1zM50 67h1v1h-1zM51 67h1v1h-1zM52 67h1v1h-1z"/><path fill="#333A3D" d="M53 67h1v1h-1z"/><path fill="#231815" d="M54 67h1v1h-1zM55 67h1v1h-1zM56 67h1v1h-1z"/><path fill="#303335" d="M57 67h1v1h-1z"/><path fill="#435C66" d="M58 67h1v1h-1z"/><path fill="#568596" d="M59 67h1v1h-1zM60 67h1v1h-1zM61 67h1v1h-1zM62 67h1v1h-1zM63 67h1v1h-1zM64 67h1v1h-1zM65 67h1v1h-1zM66 67h1v1h-1zM67 67h1v1h-1zM68 67h1v1h-1zM69 67h1v1h-1z"/><path fill="#39484D" d="M70 67h1v1h-1z"/><path fill="#231815" d="M71 67h1v1h-1zM72 67h1v1h-1zM73 67h1v1h-1zM74 67h1v1h-1zM14 68h1v1h-1zM15 68h1v1h-1zM16 68h1v1h-1z"/><path fill="#261F1D" d="M17 68h1v1h-1z"/><path fill="#568596" d="M18 68h1v1h-1zM19 68h1v1h-1zM20 68h1v1h-1zM21 68h1v1h-1zM22 68h1v1h-1zM23 68h1v1h-1zM24 68h1v1h-1zM25 68h1v1h-1zM26 68h1v1h-1z"/><path fill="#496A76" d="M27 68h1v1h-1z"/><path fill="#364145" d="M28 68h1v1h-1z"/><path fill="#261F1D" d="M29 68h1v1h-1z"/><path fill="#231815" d="M30 68h1v1h-1zM31 68h1v1h-1zM32 68h1v1h-1zM33 68h1v1h-1zM34 68h1v1h-1zM35 68h1v1h-1zM36 68h1v1h-1zM37 68h1v1h-1zM38 68h1v1h-1z"/><path fill="#303335" d="M39 68h1v1h-1z"/><path fill="#568596" d="M40 68h1v1h-1zM41 68h1v1h-1zM42 68h1v1h-1zM43 68h1v1h-1zM44 68h1v1h-1zM45 68h1v1h-1zM46 68h1v1h-1zM47 68h1v1h-1zM48 68h1v1h-1zM49 68h1v1h-1zM50 68h1v1h-1zM51 68h1v1h-1z"/><path fill="#537E8E" d="M52 68h1v1h-1z"/><path fill="#231815" d="M53 68h1v1h-1zM54 68h1v1h-1zM55 68h1v1h-1zM56 68h1v1h-1zM57 68h1v1h-1zM58 68h1v1h-1z"/><path fill="#261F1D" d="M59 68h1v1h-1z"/><path fill="#364145" d="M60 68h1v1h-1z"/><path fill="#4C717E" d="M61 68h1v1h-1z"/><path fill="#568596" d="M62 68h1v1h-1zM63 68h1v1h-1zM64 68h1v1h-1zM65 68h1v1h-1zM66 68h1v1h-1zM67 68h1v1h-1zM68 68h1v1h-1zM69 68h1v1h-1z"/><path fill="#4C717E" d="M70 68h1v1h-1z"/><path fill="#231815" d="M71 68h1v1h-1zM72 68h1v1h-1zM73 68h1v1h-1zM74 68h1v1h-1zM13 69h1v1h-1zM14 69h1v1h-1zM15 69h1v1h-1zM16 69h1v1h-1z"/><path fill="#3D4F56" d="M17 69h1v1h-1z"/><path fill="#568596" d="M18 69h1v1h-1zM19 69h1v1h-1zM20 69h1v1h-1zM21 69h1v1h-1zM22 69h1v1h-1zM23 69h1v1h-1z"/><path fill="#537E8E" d="M24 69h1v1h-1z"/><path fill="#40555E" d="M25 69h1v1h-1z"/><path fill="#292625" d="M26 69h1v1h-1z"/><path fill="#231815" d="M27 69h1v1h-1zM28 69h1v1h-1zM29 69h1v1h-1zM30 69h1v1h-1zM31 69h1v1h-1zM32 69h1v1h-1zM33 69h1v1h-1zM34 69h1v1h-1zM35 69h1v1h-1zM36 69h1v1h-1zM37 69h1v1h-1zM38 69h1v1h-1zM39 69h1v1h-1z"/><path fill="#496A76" d="M40 69h1v1h-1z"/><path fill="#568596" d="M41 69h1v1h-1zM42 69h1v1h-1zM43 69h1v1h-1zM44 69h1v1h-1zM45 69h1v1h-1zM46 69h1v1h-1zM47 69h1v1h-1zM48 69h1v1h-1zM49 69h1v1h-1zM50 69h1v1h-1zM51 69h1v1h-1z"/><path fill="#40555E" d="M52 69h1v1h-1z"/><path fill="#231815" d="M53 69h1v1h-1zM54 69h1v1h-1zM55 69h1v1h-1zM56 69h1v1h-1zM57 69h1v1h-1zM58 69h1v1h-1zM59 69h1v1h-1zM60 69h1v1h-1zM61 69h1v1h-1z"/><path fill="#292625" d="M62 69h1v1h-1z"/><path fill="#40555E" d="M63 69h1v1h-1z"/><path fill="#537E8E" d="M64 69h1v1h-1z"/><path fill="#568596" d="M65 69h1v1h-1zM66 69h1v1h-1zM67 69h1v1h-1zM68 69h1v1h-1zM69 69h1v1h-1zM70 69h1v1h-1z"/><path fill="#292625" d="M71 69h1v1h-1z"/><path fill="#231815" d="M72 69h1v1h-1zM73 69h1v1h-1zM74 69h1v1h-1zM13 70h1v1h-1zM14 70h1v1h-1zM15 70h1v1h-1zM16 70h1v1h-1z"/><path fill="#537E8E" d="M17 70h1v1h-1z"/><path fill="#568596" d="M18 70h1v1h-1zM19 70h1v1h-1zM20 70h1v1h-1zM21 70h1v1h-1z"/><path fill="#4C717E" d="M22 70h1v1h-1z"/><path fill="#364145" d="M23 70h1v1h-1z"/><path fill="#261F1D" d="M24 70h1v1h-1z"/><path fill="#231815" d="M25 70h1v1h-1zM26 70h1v1h-1zM27 70h1v1h-1zM28 70h1v1h-1zM29 70h1v1h-1zM30 70h1v1h-1zM31 70h1v1h-1zM32 70h1v1h-1zM33 70h1v1h-1zM34 70h1v1h-1zM36 70h1v1h-1zM37 70h1v1h-1zM38 70h1v1h-1zM39 70h1v1h-1z"/><path fill="#2D2C2D" d="M40 70h1v1h-1z"/><path fill="#568596" d="M41 70h1v1h-1zM42 70h1v1h-1zM43 70h1v1h-1zM44 70h1v1h-1zM45 70h1v1h-1zM46 70h1v1h-1zM47 70h1v1h-1zM48 70h1v1h-1zM49 70h1v1h-1zM50 70h1v1h-1zM51 70h1v1h-1z"/><path fill="#303335" d="M52 70h1v1h-1z"/><path fill="#231815" d="M53 70h1v1h-1zM54 70h1v1h-1zM55 70h1v1h-1zM56 70h1v1h-1zM57 70h1v1h-1zM58 70h1v1h-1zM59 70h1v1h-1zM60 70h1v1h-1zM61 70h1v1h-1zM62 70h1v1h-1zM63 70h1v1h-1zM64 70h1v1h-1z"/><path fill="#364145" d="M65 70h1v1h-1z"/><path fill="#46636E" d="M66 70h1v1h-1z"/><path fill="#568596" d="M67 70h1v1h-1zM68 70h1v1h-1zM69 70h1v1h-1zM70 70h1v1h-1z"/><path fill="#39484D" d="M71 70h1v1h-1z"/><path fill="#231815" d="M72 70h1v1h-1zM73 70h1v1h-1zM74 70h1v1h-1zM75 70h1v1h-1zM12 71h1v1h-1zM13 71h1v1h-1zM14 71h1v1h-1zM15 71h1v1h-1z"/><path fill="#364145" d="M16 71h1v1h-1z"/><path fill="#568596" d="M17 71h1v1h-1zM18 71h1v1h-1zM19 71h1v1h-1z"/><path fill="#46636E" d="M20 71h1v1h-1z"/><path fill="#303335" d="M21 71h1v1h-1z"/><path fill="#231815" d="M22 71h1v1h-1zM23 71h1v1h-1zM24 71h1v1h-1zM25 71h1v1h-1zM26 71h1v1h-1zM27 71h1v1h-1zM28 71h1v1h-1zM29 71h1v1h-1zM30 71h1v1h-1zM31 71h1v1h-1zM37 71h1v1h-1zM38 71h1v1h-1zM39 71h1v1h-1zM40 71h1v1h-1z"/><path fill="#435C66" d="M41 71h1v1h-1z"/><path fill="#568596" d="M42 71h1v1h-1zM43 71h1v1h-1zM44 71h1v1h-1zM45 71h1v1h-1zM46 71h1v1h-1zM47 71h1v1h-1zM48 71h1v1h-1zM49 71h1v1h-1zM50 71h1v1h-1z"/><path fill="#537E8E" d="M51 71h1v1h-1z"/><path fill="#231815" d="M52 71h1v1h-1zM53 71h1v1h-1zM54 71h1v1h-1zM55 71h1v1h-1zM57 71h1v1h-1zM58 71h1v1h-1zM59 71h1v1h-1zM60 71h1v1h-1zM61 71h1v1h-1zM62 71h1v1h-1zM63 71h1v1h-1zM64 71h1v1h-1zM65 71h1v1h-1zM66 71h1v1h-1z"/><path fill="#292625" d="M67 71h1v1h-1z"/><path fill="#39484D" d="M68 71h1v1h-1z"/><path fill="#507786" d="M69 71h1v1h-1z"/><path fill="#568596" d="M70 71h1v1h-1z"/><path fill="#496A76" d="M71 71h1v1h-1z"/><path fill="#231815" d="M72 71h1v1h-1zM73 71h1v1h-1zM74 71h1v1h-1zM75 71h1v1h-1zM12 72h1v1h-1zM13 72h1v1h-1zM14 72h1v1h-1zM15 72h1v1h-1z"/><path fill="#496A76" d="M16 72h1v1h-1z"/><path fill="#507786" d="M17 72h1v1h-1z"/><path fill="#3D4F56" d="M18 72h1v1h-1z"/><path fill="#292625" d="M19 72h1v1h-1z"/><path fill="#231815" d="M20 72h1v1h-1zM21 72h1v1h-1zM22 72h1v1h-1zM23 72h1v1h-1zM24 72h1v1h-1zM25 72h1v1h-1zM26 72h1v1h-1zM27 72h1v1h-1zM28 72h1v1h-1zM37 72h1v1h-1zM38 72h1v1h-1zM39 72h1v1h-1zM40 72h1v1h-1z"/><path fill="#292625" d="M41 72h1v1h-1z"/><path fill="#568596" d="M42 72h1v1h-1zM43 72h1v1h-1zM44 72h1v1h-1zM45 72h1v1h-1zM46 72h1v1h-1zM47 72h1v1h-1zM48 72h1v1h-1zM49 72h1v1h-1zM50 72h1v1h-1z"/><path fill="#435C66" d="M51 72h1v1h-1z"/><path fill="#231815" d="M52 72h1v1h-1zM53 72h1v1h-1zM54 72h1v1h-1zM55 72h1v1h-1zM60 72h1v1h-1zM61 72h1v1h-1zM62 72h1v1h-1zM63 72h1v1h-1zM64 72h1v1h-1zM65 72h1v1h-1zM66 72h1v1h-1zM67 72h1v1h-1zM68 72h1v1h-1zM69 72h1v1h-1z"/><path fill="#2D2C2D" d="M70 72h1v1h-1z"/><path fill="#3D4F56" d="M71 72h1v1h-1z"/><path fill="#231815" d="M72 72h1v1h-1zM73 72h1v1h-1zM74 72h1v1h-1zM75 72h1v1h-1zM12 73h1v1h-1zM13 73h1v1h-1zM14 73h1v1h-1zM15 73h1v1h-1z"/><path fill="#333A3D" d="M16 73h1v1h-1z"/><path fill="#231815" d="M17 73h1v1h-1zM18 73h1v1h-1zM19 73h1v1h-1zM20 73h1v1h-1zM21 73h1v1h-1zM22 73h1v1h-1zM23 73h1v1h-1zM24 73h1v1h-1zM25 73h1v1h-1zM26 73h1v1h-1zM38 73h1v1h-1zM39 73h1v1h-1zM40 73h1v1h-1zM41 73h1v1h-1z"/><path fill="#435C66" d="M42 73h1v1h-1z"/><path fill="#568596" d="M43 73h1v1h-1zM44 73h1v1h-1zM45 73h1v1h-1zM46 73h1v1h-1zM47 73h1v1h-1zM48 73h1v1h-1zM49 73h1v1h-1zM50 73h1v1h-1z"/><path fill="#333A3D" d="M51 73h1v1h-1z"/><path fill="#231815" d="M52 73h1v1h-1zM53 73h1v1h-1zM54 73h1v1h-1zM55 73h1v1h-1zM62 73h1v1h-1zM63 73h1v1h-1zM64 73h1v1h-1zM65 73h1v1h-1zM66 73h1v1h-1zM67 73h1v1h-1zM68 73h1v1h-1zM69 73h1v1h-1zM70 73h1v1h-1zM71 73h1v1h-1zM72 73h1v1h-1zM73 73h1v1h-1zM74 73h1v1h-1zM75 73h1v1h-1zM12 74h1v1h-1zM13 74h1v1h-1zM14 74h1v1h-1zM15 74h1v1h-1zM16 74h1v1h-1zM17 74h1v1h-1zM18 74h1v1h-1zM19 74h1v1h-1zM20 74h1v1h-1zM21 74h1v1h-1zM22 74h1v1h-1zM23 74h1v1h-1zM38 74h1v1h-1zM39 74h1v1h-1zM40 74h1v1h-1zM41 74h1v1h-1z"/><path fill="#292625" d="M42 74h1v1h-1z"/><path fill="#568596" d="M43 74h1v1h-1zM44 74h1v1h-1zM45 74h1v1h-1zM46 74h1v1h-1zM47 74h1v1h-1zM48 74h1v1h-1zM49 74h1v1h-1zM50 74h1v1h-1z"/><path fill="#261F1D" d="M51 74h1v1h-1z"/><path fill="#231815" d="M52 74h1v1h-1zM53 74h1v1h-1zM54 74h1v1h-1zM65 74h1v1h-1zM66 74h1v1h-1zM67 74h1v1h-1zM68 74h1v1h-1zM69 74h1v1h-1zM70 74h1v1h-1zM71 74h1v1h-1zM72 74h1v1h-1zM73 74h1v1h-1zM74 74h1v1h-1zM75 74h1v1h-1zM12 75h1v1h-1zM13 75h1v1h-1zM14 75h1v1h-1zM15 75h1v1h-1zM16 75h1v1h-1zM17 75h1v1h-1zM18 75h1v1h-1zM19 75h1v1h-1zM20 75h1v1h-1zM21 75h1v1h-1zM39 75h1v1h-1zM40 75h1v1h-1zM41 75h1v1h-1zM42 75h1v1h-1z"/><path fill="#435C66" d="M43 75h1v1h-1z"/><path fill="#568596" d="M44 75h1v1h-1zM45 75h1v1h-1zM46 75h1v1h-1zM47 75h1v1h-1zM48 75h1v1h-1zM49 75h1v1h-1z"/><path fill="#496A76" d="M50 75h1v1h-1z"/><path fill="#231815" d="M51 75h1v1h-1zM52 75h1v1h-1zM53 75h1v1h-1zM54 75h1v1h-1zM68 75h1v1h-1zM69 75h1v1h-1zM70 75h1v1h-1zM71 75h1v1h-1zM72 75h1v1h-1zM73 75h1v1h-1zM74 75h1v1h-1zM75 75h1v1h-1zM12 76h1v1h-1zM13 76h1v1h-1zM14 76h1v1h-1zM15 76h1v1h-1zM16 76h1v1h-1zM17 76h1v1h-1zM18 76h1v1h-1zM39 76h1v1h-1zM40 76h1v1h-1zM41 76h1v1h-1zM42 76h1v1h-1z"/><path fill="#292625" d="M43 76h1v1h-1z"/><path fill="#568596" d="M44 76h1v1h-1zM45 76h1v1h-1zM46 76h1v1h-1zM47 76h1v1h-1zM48 76h1v1h-1zM49 76h1v1h-1z"/><path fill="#3D4F56" d="M50 76h1v1h-1z"/><path fill="#231815" d="M51 76h1v1h-1zM52 76h1v1h-1zM53 76h1v1h-1zM54 76h1v1h-1zM71 76h1v1h-1zM72 76h1v1h-1zM73 76h1v1h-1zM13 77h1v1h-1zM14 77h1v1h-1zM15 77h1v1h-1zM16 77h1v1h-1zM40 77h1v1h-1zM41 77h1v1h-1zM42 77h1v1h-1zM43 77h1v1h-1z"/><path fill="#435C66" d="M44 77h1v1h-1z"/><path fill="#568596" d="M45 77h1v1h-1zM46 77h1v1h-1zM47 77h1v1h-1zM48 77h1v1h-1zM49 77h1v1h-1z"/><path fill="#303335" d="M50 77h1v1h-1z"/><path fill="#231815" d="M51 77h1v1h-1zM52 77h1v1h-1zM53 77h1v1h-1zM40 78h1v1h-1zM41 78h1v1h-1zM42 78h1v1h-1zM43 78h1v1h-1z"/><path fill="#292625" d="M44 78h1v1h-1z"/><path fill="#568596" d="M45 78h1v1h-1zM46 78h1v1h-1zM47 78h1v1h-1zM48 78h1v1h-1z"/><path fill="#537E8E" d="M49 78h1v1h-1z"/><path fill="#231815" d="M50 78h1v1h-1zM51 78h1v1h-1zM52 78h1v1h-1zM53 78h1v1h-1zM41 79h1v1h-1zM42 79h1v1h-1zM43 79h1v1h-1zM44 79h1v1h-1z"/><path fill="#46636E" d="M45 79h1v1h-1z"/><path fill="#568596" d="M46 79h1v1h-1zM47 79h1v1h-1zM48 79h1v1h-1z"/><path fill="#46636E" d="M49 79h1v1h-1z"/><path fill="#231815" d="M50 79h1v1h-1zM51 79h1v1h-1zM52 79h1v1h-1zM53 79h1v1h-1zM41 80h1v1h-1zM42 80h1v1h-1zM43 80h1v1h-1zM44 80h1v1h-1z"/><path fill="#303335" d="M45 80h1v1h-1z"/><path fill="#568596" d="M46 80h1v1h-1zM47 80h1v1h-1zM48 80h1v1h-1z"/><path fill="#39484D" d="M49 80h1v1h-1z"/><path fill="#231815" d="M50 80h1v1h-1zM51 80h1v1h-1zM52 80h1v1h-1zM53 80h1v1h-1zM42 81h1v1h-1zM43 81h1v1h-1zM44 81h1v1h-1zM45 81h1v1h-1z"/><path fill="#496A76" d="M46 81h1v1h-1z"/><path fill="#568596" d="M47 81h1v1h-1zM48 81h1v1h-1z"/><path fill="#2D2C2D" d="M49 81h1v1h-1z"/><path fill="#231815" d="M50 81h1v1h-1zM51 81h1v1h-1zM52 81h1v1h-1zM42 82h1v1h-1zM43 82h1v1h-1zM44 82h1v1h-1zM45 82h1v1h-1z"/><path fill="#303335" d="M46 82h1v1h-1z"/><path fill="#568596" d="M47 82h1v1h-1z"/><path fill="#537E8E" d="M48 82h1v1h-1z"/><path fill="#231815" d="M49 82h1v1h-1zM50 82h1v1h-1zM51 82h1v1h-1zM52 82h1v1h-1zM43 83h1v1h-1zM44 83h1v1h-1zM45 83h1v1h-1zM46 83h1v1h-1z"/><path fill="#496A76" d="M47 83h1v1h-1z"/><path fill="#435C66" d="M48 83h1v1h-1z"/><path fill="#231815" d="M49 83h1v1h-1zM50 83h1v1h-1zM51 83h1v1h-1zM52 83h1v1h-1zM43 84h1v1h-1zM44 84h1v1h-1zM45 84h1v1h-1zM46 84h1v1h-1z"/><path fill="#2D2C2D" d="M47 84h1v1h-1z"/><path fill="#364145" d="M48 84h1v1h-1z"/><path fill="#231815" d="M49 84h1v1h-1zM50 84h1v1h-1zM51 84h1v1h-1zM52 84h1v1h-1zM44 85h1v1h-1zM45 85h1v1h-1zM46 85h1v1h-1zM47 85h1v1h-1zM48 85h1v1h-1zM49 85h1v1h-1zM50 85h1v1h-1zM51 85h1v1h-1zM44 86h1v1h-1zM45 86h1v1h-1zM46 86h1v1h-1zM47 86h1v1h-1zM48 86h1v1h-1zM49 86h1v1h-1zM50 86h1v1h-1zM51 86h1v1h-1zM45 87h1v1h-1zM46 87h1v1h-1zM47 87h1v1h-1zM48 87h1v1h-1zM49 87h1v1h-1zM50 87h1v1h-1zM51 87h1v1h-1zM46 88h1v1h-1zM47 88h1v1h-1zM48 88h1v1h-1zM49 88h1v1h-1zM50 88h1v1h-1zM47 89h1v1h-1zM48 89h1v1h-1zM49 89h1v1h-1z"/></svg>