<svg baseProfile="full" height="90" width="88" xmlns="http://www.w3.org/2000/svg"><path fill="#231815" d="M59 0h1v1h-1zM60 0h1v1h-1zM61 0h1v1h-1zM62 0h1v1h-1zM63 0h1v1h-1zM64 0h1v1h-1zM65 0h1v1h-1zM66 0h1v1h-1zM67 0h1v1h-1zM68 0h1v1h-1zM69 0h1v1h-1zM56 1h1v1h-1zM57 1h1v1h-1zM58 1h1v1h-1zM59 1h1v1h-1zM60 1h1v1h-1zM61 1h1v1h-1zM62 1h1v1h-1zM63 1h1v1h-1zM64 1h1v1h-1zM65 1h1v1h-1zM66 1h1v1h-1zM67 1h1v1h-1zM68 1h1v1h-1zM69 1h1v1h-1zM70 1h1v1h-1zM71 1h1v1h-1zM54 2h1v1h-1zM55 2h1v1h-1zM56 2h1v1h-1zM57 2h1v1h-1zM58 2h1v1h-1zM59 2h1v1h-1zM60 2h1v1h-1zM61 2h1v1h-1zM62 2h1v1h-1zM63 2h1v1h-1zM64 2h1v1h-1zM65 2h1v1h-1zM66 2h1v1h-1zM67 2h1v1h-1zM68 2h1v1h-1zM69 2h1v1h-1zM70 2h1v1h-1zM71 2h1v1h-1zM72 2h1v1h-1zM53 3h1v1h-1zM54 3h1v1h-1zM55 3h1v1h-1zM56 3h1v1h-1zM57 3h1v1h-1zM58 3h1v1h-1zM59 3h1v1h-1zM60 3h1v1h-1z"/><path fill="#3B322C" d="M61 3h1v1h-1z"/><path fill="#6A6659" d="M62 3h1v1h-1z"/><path fill="#828070" d="M63 3h1v1h-1z"/><path fill="#B2B39D" d="M64 3h1v1h-1z"/><path fill="#AEAC91" d="M65 3h1v1h-1z"/><path fill="#9D9778" d="M66 3h1v1h-1z"/><path fill="#665D4B" d="M67 3h1v1h-1z"/><path fill="#2E241E" d="M68 3h1v1h-1z"/><path fill="#231815" d="M69 3h1v1h-1zM70 3h1v1h-1zM71 3h1v1h-1zM72 3h1v1h-1zM73 3h1v1h-1zM53 4h1v1h-1zM54 4h1v1h-1zM55 4h1v1h-1zM56 4h1v1h-1zM57 4h1v1h-1z"/><path fill="#5E594E" d="M58 4h1v1h-1z"/><path fill="#9A9986" d="M59 4h1v1h-1z"/><path fill="#C9CDB3" d="M60 4h1v1h-1z"/><path fill="#E1E7CA" d="M61 4h1v1h-1zM62 4h1v1h-1zM63 4h1v1h-1zM64 4h1v1h-1zM65 4h1v1h-1z"/><path fill="#DDDFBC" d="M66 4h1v1h-1z"/><path fill="#D5D1A5" d="M67 4h1v1h-1z"/><path fill="#C7C39B" d="M68 4h1v1h-1z"/><path fill="#676252" d="M69 4h1v1h-1z"/><path fill="#231815" d="M70 4h1v1h-1zM71 4h1v1h-1zM72 4h1v1h-1zM73 4h1v1h-1zM74 4h1v1h-1zM52 5h1v1h-1zM53 5h1v1h-1zM54 5h1v1h-1zM55 5h1v1h-1z"/><path fill="#463D35" d="M56 5h1v1h-1z"/><path fill="#C9CDB3" d="M57 5h1v1h-1z"/><path fill="#E1E7CA" d="M58 5h1v1h-1zM59 5h1v1h-1zM60 5h1v1h-1zM61 5h1v1h-1zM62 5h1v1h-1zM63 5h1v1h-1zM64 5h1v1h-1zM65 5h1v1h-1zM66 5h1v1h-1z"/><path fill="#DBDCB8" d="M67 5h1v1h-1z"/><path fill="#D5D1A5" d="M68 5h1v1h-1z"/><path fill="#CBCAA3" d="M69 5h1v1h-1z"/><path fill="#8E8C75" d="M70 5h1v1h-1z"/><path fill="#2D231E" d="M71 5h1v1h-1z"/><path fill="#231815" d="M72 5h1v1h-1zM73 5h1v1h-1zM74 5h1v1h-1zM75 5h1v1h-1zM52 6h1v1h-1zM53 6h1v1h-1zM54 6h1v1h-1z"/><path fill="#443B30" d="M55 6h1v1h-1z"/><path fill="#D1D3B3" d="M56 6h1v1h-1z"/><path fill="#E1E7CA" d="M57 6h1v1h-1zM58 6h1v1h-1zM59 6h1v1h-1zM60 6h1v1h-1zM61 6h1v1h-1zM62 6h1v1h-1zM63 6h1v1h-1zM64 6h1v1h-1zM65 6h1v1h-1zM66 6h1v1h-1z"/><path fill="#E0E6C8" d="M67 6h1v1h-1z"/><path fill="#D6D2A7" d="M68 6h1v1h-1z"/><path fill="#D5D1A5" d="M69 6h1v1h-1z"/><path fill="#C2C4A1" d="M70 6h1v1h-1z"/><path fill="#A1A186" d="M71 6h1v1h-1z"/><path fill="#2D231E" d="M72 6h1v1h-1z"/><path fill="#231815" d="M73 6h1v1h-1zM74 6h1v1h-1zM75 6h1v1h-1zM76 6h1v1h-1zM51 7h1v1h-1zM52 7h1v1h-1zM53 7h1v1h-1zM54 7h1v1h-1z"/><path fill="#A9A381" d="M55 7h1v1h-1z"/><path fill="#E0E6C8" d="M56 7h1v1h-1z"/><path fill="#E1E7CA" d="M57 7h1v1h-1zM58 7h1v1h-1zM59 7h1v1h-1zM60 7h1v1h-1zM61 7h1v1h-1zM62 7h1v1h-1zM63 7h1v1h-1zM64 7h1v1h-1zM65 7h1v1h-1zM66 7h1v1h-1zM67 7h1v1h-1z"/><path fill="#DAD9B3" d="M68 7h1v1h-1z"/><path fill="#D5D1A5" d="M69 7h1v1h-1z"/><path fill="#CBCAA3" d="M70 7h1v1h-1z"/><path fill="#BEC1A0" d="M71 7h1v1h-1z"/><path fill="#8E8C75" d="M72 7h1v1h-1z"/><path fill="#231815" d="M73 7h1v1h-1zM74 7h1v1h-1zM75 7h1v1h-1zM76 7h1v1h-1zM77 7h1v1h-1zM51 8h1v1h-1zM52 8h1v1h-1zM53 8h1v1h-1z"/><path fill="#392F27" d="M54 8h1v1h-1z"/><path fill="#D8D7AE" d="M55 8h1v1h-1z"/><path fill="#E1E7CA" d="M56 8h1v1h-1zM57 8h1v1h-1zM58 8h1v1h-1zM59 8h1v1h-1zM60 8h1v1h-1zM61 8h1v1h-1zM62 8h1v1h-1zM63 8h1v1h-1zM64 8h1v1h-1zM65 8h1v1h-1zM66 8h1v1h-1zM67 8h1v1h-1z"/><path fill="#DCDDBA" d="M68 8h1v1h-1z"/><path fill="#D5D1A5" d="M69 8h1v1h-1z"/><path fill="#D1CEA4" d="M70 8h1v1h-1z"/><path fill="#BEC1A0" d="M71 8h1v1h-1zM72 8h1v1h-1z"/><path fill="#716D5B" d="M73 8h1v1h-1z"/><path fill="#231815" d="M74 8h1v1h-1zM75 8h1v1h-1zM76 8h1v1h-1zM77 8h1v1h-1zM78 8h1v1h-1zM51 9h1v1h-1zM52 9h1v1h-1zM53 9h1v1h-1z"/><path fill="#665D4B" d="M54 9h1v1h-1z"/><path fill="#DBDCB8" d="M55 9h1v1h-1z"/><path fill="#E1E7CA" d="M56 9h1v1h-1zM57 9h1v1h-1zM58 9h1v1h-1zM59 9h1v1h-1zM60 9h1v1h-1zM61 9h1v1h-1zM62 9h1v1h-1zM63 9h1v1h-1zM64 9h1v1h-1zM65 9h1v1h-1zM66 9h1v1h-1zM67 9h1v1h-1z"/><path fill="#DEE2C1" d="M68 9h1v1h-1z"/><path fill="#D5D1A5" d="M69 9h1v1h-1zM70 9h1v1h-1z"/><path fill="#BFC2A0" d="M71 9h1v1h-1z"/><path fill="#BEC1A0" d="M72 9h1v1h-1zM73 9h1v1h-1z"/><path fill="#534D40" d="M74 9h1v1h-1z"/><path fill="#231815" d="M75 9h1v1h-1zM76 9h1v1h-1zM77 9h1v1h-1zM78 9h1v1h-1zM79 9h1v1h-1zM51 10h1v1h-1zM52 10h1v1h-1zM53 10h1v1h-1z"/><path fill="#7C755D" d="M54 10h1v1h-1z"/><path fill="#DDE0BE" d="M55 10h1v1h-1z"/><path fill="#E1E7CA" d="M56 10h1v1h-1zM57 10h1v1h-1zM58 10h1v1h-1zM59 10h1v1h-1zM60 10h1v1h-1zM61 10h1v1h-1zM62 10h1v1h-1zM63 10h1v1h-1zM64 10h1v1h-1zM65 10h1v1h-1zM66 10h1v1h-1zM67 10h1v1h-1z"/><path fill="#DDE0BE" d="M68 10h1v1h-1z"/><path fill="#D5D1A5" d="M69 10h1v1h-1zM70 10h1v1h-1z"/><path fill="#C4C5A1" d="M71 10h1v1h-1z"/><path fill="#BEC1A0" d="M72 10h1v1h-1zM73 10h1v1h-1z"/><path fill="#B4B697" d="M74 10h1v1h-1z"/><path fill="#40382F" d="M75 10h1v1h-1z"/><path fill="#231815" d="M76 10h1v1h-1zM77 10h1v1h-1zM78 10h1v1h-1zM79 10h1v1h-1zM80 10h1v1h-1zM81 10h1v1h-1zM51 11h1v1h-1zM52 11h1v1h-1zM53 11h1v1h-1z"/><path fill="#A9A381" d="M54 11h1v1h-1z"/><path fill="#DEE2C1" d="M55 11h1v1h-1z"/><path fill="#E1E7CA" d="M56 11h1v1h-1zM57 11h1v1h-1zM58 11h1v1h-1zM59 11h1v1h-1zM60 11h1v1h-1zM61 11h1v1h-1zM62 11h1v1h-1zM63 11h1v1h-1zM64 11h1v1h-1zM65 11h1v1h-1zM66 11h1v1h-1zM67 11h1v1h-1z"/><path fill="#DBDCB8" d="M68 11h1v1h-1z"/><path fill="#D5D1A5" d="M69 11h1v1h-1zM70 11h1v1h-1z"/><path fill="#CAC9A3" d="M71 11h1v1h-1z"/><path fill="#BEC1A0" d="M72 11h1v1h-1zM73 11h1v1h-1zM74 11h1v1h-1z"/><path fill="#B4B697" d="M75 11h1v1h-1z"/><path fill="#534D40" d="M76 11h1v1h-1z"/><path fill="#231815" d="M77 11h1v1h-1zM78 11h1v1h-1zM79 11h1v1h-1zM80 11h1v1h-1zM81 11h1v1h-1zM82 11h1v1h-1zM51 12h1v1h-1zM52 12h1v1h-1zM53 12h1v1h-1z"/><path fill="#A9A381" d="M54 12h1v1h-1z"/><path fill="#E0E6C8" d="M55 12h1v1h-1z"/><path fill="#E1E7CA" d="M56 12h1v1h-1zM57 12h1v1h-1zM58 12h1v1h-1zM59 12h1v1h-1zM60 12h1v1h-1zM61 12h1v1h-1zM62 12h1v1h-1zM63 12h1v1h-1zM64 12h1v1h-1zM65 12h1v1h-1zM66 12h1v1h-1zM67 12h1v1h-1z"/><path fill="#D9D8B1" d="M68 12h1v1h-1z"/><path fill="#D5D1A5" d="M69 12h1v1h-1zM70 12h1v1h-1z"/><path fill="#CAC9A3" d="M71 12h1v1h-1z"/><path fill="#BEC1A0" d="M72 12h1v1h-1zM73 12h1v1h-1zM74 12h1v1h-1zM75 12h1v1h-1zM76 12h1v1h-1z"/><path fill="#8E8C75" d="M77 12h1v1h-1z"/><path fill="#2D231E" d="M78 12h1v1h-1z"/><path fill="#231815" d="M79 12h1v1h-1zM80 12h1v1h-1zM81 12h1v1h-1zM82 12h1v1h-1zM83 12h1v1h-1zM51 13h1v1h-1zM52 13h1v1h-1zM53 13h1v1h-1z"/><path fill="#9D9778" d="M54 13h1v1h-1z"/><path fill="#E1E7CA" d="M55 13h1v1h-1zM56 13h1v1h-1zM57 13h1v1h-1zM58 13h1v1h-1zM59 13h1v1h-1zM60 13h1v1h-1zM61 13h1v1h-1zM62 13h1v1h-1zM63 13h1v1h-1zM64 13h1v1h-1zM65 13h1v1h-1zM66 13h1v1h-1z"/><path fill="#E0E6C8" d="M67 13h1v1h-1z"/><path fill="#D5D1A5" d="M68 13h1v1h-1zM69 13h1v1h-1zM70 13h1v1h-1z"/><path fill="#CAC9A3" d="M71 13h1v1h-1z"/><path fill="#BEC1A0" d="M72 13h1v1h-1zM73 13h1v1h-1zM74 13h1v1h-1zM75 13h1v1h-1zM76 13h1v1h-1zM77 13h1v1h-1z"/><path fill="#ABAC8F" d="M78 13h1v1h-1z"/><path fill="#40382F" d="M79 13h1v1h-1z"/><path fill="#231815" d="M80 13h1v1h-1zM81 13h1v1h-1zM82 13h1v1h-1zM83 13h1v1h-1zM84 13h1v1h-1zM51 14h1v1h-1zM52 14h1v1h-1zM53 14h1v1h-1z"/><path fill="#7C755D" d="M54 14h1v1h-1z"/><path fill="#E1E7CA" d="M55 14h1v1h-1zM56 14h1v1h-1zM57 14h1v1h-1zM58 14h1v1h-1zM59 14h1v1h-1zM60 14h1v1h-1zM61 14h1v1h-1zM62 14h1v1h-1zM63 14h1v1h-1zM64 14h1v1h-1zM65 14h1v1h-1zM66 14h1v1h-1z"/><path fill="#DBDCB8" d="M67 14h1v1h-1z"/><path fill="#D5D1A5" d="M68 14h1v1h-1zM69 14h1v1h-1zM70 14h1v1h-1z"/><path fill="#CAC9A3" d="M71 14h1v1h-1z"/><path fill="#BEC1A0" d="M72 14h1v1h-1zM73 14h1v1h-1zM74 14h1v1h-1zM75 14h1v1h-1zM76 14h1v1h-1zM77 14h1v1h-1zM78 14h1v1h-1z"/><path fill="#B4B697" d="M79 14h1v1h-1z"/><path fill="#5D5749" d="M80 14h1v1h-1z"/><path fill="#231815" d="M81 14h1v1h-1zM82 14h1v1h-1zM83 14h1v1h-1zM84 14h1v1h-1zM85 14h1v1h-1zM51 15h1v1h-1zM52 15h1v1h-1zM53 15h1v1h-1z"/><path fill="#7C755D" d="M54 15h1v1h-1z"/><path fill="#E1E7CA" d="M55 15h1v1h-1zM56 15h1v1h-1zM57 15h1v1h-1zM58 15h1v1h-1zM59 15h1v1h-1zM60 15h1v1h-1zM61 15h1v1h-1zM62 15h1v1h-1zM63 15h1v1h-1zM64 15h1v1h-1zM65 15h1v1h-1z"/><path fill="#E0E4C5" d="M66 15h1v1h-1z"/><path fill="#D6D2A7" d="M67 15h1v1h-1z"/><path fill="#D5D1A5" d="M68 15h1v1h-1zM69 15h1v1h-1zM70 15h1v1h-1zM71 15h1v1h-1z"/><path fill="#CFCDA4" d="M72 15h1v1h-1z"/><path fill="#C7C7A2" d="M73 15h1v1h-1z"/><path fill="#BFC2A0" d="M74 15h1v1h-1z"/><path fill="#BEC1A0" d="M75 15h1v1h-1zM76 15h1v1h-1zM77 15h1v1h-1zM78 15h1v1h-1zM79 15h1v1h-1zM80 15h1v1h-1z"/><path fill="#5D5749" d="M81 15h1v1h-1z"/><path fill="#231815" d="M82 15h1v1h-1zM83 15h1v1h-1zM84 15h1v1h-1zM85 15h1v1h-1zM86 15h1v1h-1zM51 16h1v1h-1zM52 16h1v1h-1zM53 16h1v1h-1z"/><path fill="#504639" d="M54 16h1v1h-1z"/><path fill="#E1E7CA" d="M55 16h1v1h-1zM56 16h1v1h-1zM57 16h1v1h-1zM58 16h1v1h-1zM59 16h1v1h-1zM60 16h1v1h-1zM61 16h1v1h-1zM62 16h1v1h-1zM63 16h1v1h-1zM64 16h1v1h-1zM65 16h1v1h-1z"/><path fill="#D8D7AE" d="M66 16h1v1h-1z"/><path fill="#D5D1A5" d="M67 16h1v1h-1zM68 16h1v1h-1zM69 16h1v1h-1zM70 16h1v1h-1zM71 16h1v1h-1zM72 16h1v1h-1zM73 16h1v1h-1z"/><path fill="#D4D0A5" d="M74 16h1v1h-1z"/><path fill="#CCCBA3" d="M75 16h1v1h-1z"/><path fill="#C1C3A1" d="M76 16h1v1h-1z"/><path fill="#BEC1A0" d="M77 16h1v1h-1zM78 16h1v1h-1zM79 16h1v1h-1zM80 16h1v1h-1zM81 16h1v1h-1z"/><path fill="#5D5749" d="M82 16h1v1h-1z"/><path fill="#231815" d="M83 16h1v1h-1zM84 16h1v1h-1zM85 16h1v1h-1zM86 16h1v1h-1zM51 17h1v1h-1zM52 17h1v1h-1zM53 17h1v1h-1z"/><path fill="#392F27" d="M54 17h1v1h-1z"/><path fill="#E1E7CA" d="M55 17h1v1h-1zM56 17h1v1h-1zM57 17h1v1h-1zM58 17h1v1h-1zM59 17h1v1h-1zM60 17h1v1h-1zM61 17h1v1h-1zM62 17h1v1h-1zM63 17h1v1h-1zM64 17h1v1h-1z"/><path fill="#DDDFBC" d="M65 17h1v1h-1z"/><path fill="#D5D1A5" d="M66 17h1v1h-1zM67 17h1v1h-1zM68 17h1v1h-1zM69 17h1v1h-1zM70 17h1v1h-1zM71 17h1v1h-1zM72 17h1v1h-1zM73 17h1v1h-1zM74 17h1v1h-1zM75 17h1v1h-1zM76 17h1v1h-1z"/><path fill="#CCCBA3" d="M77 17h1v1h-1z"/><path fill="#BFC2A0" d="M78 17h1v1h-1z"/><path fill="#BEC1A0" d="M79 17h1v1h-1zM80 17h1v1h-1zM81 17h1v1h-1zM82 17h1v1h-1z"/><path fill="#534D40" d="M83 17h1v1h-1z"/><path fill="#231815" d="M84 17h1v1h-1zM85 17h1v1h-1zM86 17h1v1h-1zM87 17h1v1h-1zM51 18h1v1h-1zM52 18h1v1h-1zM53 18h1v1h-1zM54 18h1v1h-1z"/><path fill="#C9CDB3" d="M55 18h1v1h-1z"/><path fill="#E1E7CA" d="M56 18h1v1h-1zM57 18h1v1h-1zM58 18h1v1h-1zM59 18h1v1h-1zM60 18h1v1h-1zM61 18h1v1h-1zM62 18h1v1h-1zM63 18h1v1h-1z"/><path fill="#E0E6C8" d="M64 18h1v1h-1z"/><path fill="#D6D2A7" d="M65 18h1v1h-1z"/><path fill="#D5D1A5" d="M66 18h1v1h-1zM67 18h1v1h-1zM68 18h1v1h-1zM69 18h1v1h-1zM70 18h1v1h-1zM71 18h1v1h-1zM72 18h1v1h-1zM73 18h1v1h-1zM74 18h1v1h-1zM75 18h1v1h-1zM76 18h1v1h-1zM77 18h1v1h-1z"/><path fill="#D1CEA4" d="M78 18h1v1h-1z"/><path fill="#BFC2A0" d="M79 18h1v1h-1z"/><path fill="#BEC1A0" d="M80 18h1v1h-1zM81 18h1v1h-1zM82 18h1v1h-1z"/><path fill="#B4B697" d="M83 18h1v1h-1z"/><path fill="#2D231E" d="M84 18h1v1h-1z"/><path fill="#231815" d="M85 18h1v1h-1zM86 18h1v1h-1zM87 18h1v1h-1zM51 19h1v1h-1zM52 19h1v1h-1zM53 19h1v1h-1zM54 19h1v1h-1z"/><path fill="#B2B39D" d="M55 19h1v1h-1z"/><path fill="#E1E7CA" d="M56 19h1v1h-1zM57 19h1v1h-1zM58 19h1v1h-1zM59 19h1v1h-1zM60 19h1v1h-1zM61 19h1v1h-1zM62 19h1v1h-1zM63 19h1v1h-1z"/><path fill="#DCDDBA" d="M64 19h1v1h-1z"/><path fill="#D5D1A5" d="M65 19h1v1h-1zM66 19h1v1h-1zM67 19h1v1h-1zM68 19h1v1h-1zM69 19h1v1h-1zM70 19h1v1h-1zM71 19h1v1h-1zM72 19h1v1h-1zM73 19h1v1h-1zM74 19h1v1h-1zM75 19h1v1h-1zM76 19h1v1h-1zM77 19h1v1h-1zM78 19h1v1h-1z"/><path fill="#C8C8A2" d="M79 19h1v1h-1z"/><path fill="#BEC1A0" d="M80 19h1v1h-1zM81 19h1v1h-1zM82 19h1v1h-1zM83 19h1v1h-1z"/><path fill="#676252" d="M84 19h1v1h-1z"/><path fill="#231815" d="M85 19h1v1h-1zM86 19h1v1h-1zM87 19h1v1h-1zM50 20h1v1h-1zM51 20h1v1h-1zM52 20h1v1h-1zM53 20h1v1h-1zM54 20h1v1h-1z"/><path fill="#B8BAA1" d="M55 20h1v1h-1z"/><path fill="#E1E7CA" d="M56 20h1v1h-1zM57 20h1v1h-1zM58 20h1v1h-1zM59 20h1v1h-1zM60 20h1v1h-1zM61 20h1v1h-1zM62 20h1v1h-1zM63 20h1v1h-1z"/><path fill="#D7D4AA" d="M64 20h1v1h-1z"/><path fill="#D5D1A5" d="M65 20h1v1h-1zM66 20h1v1h-1zM67 20h1v1h-1zM68 20h1v1h-1zM69 20h1v1h-1zM70 20h1v1h-1zM71 20h1v1h-1zM72 20h1v1h-1zM73 20h1v1h-1zM74 20h1v1h-1zM75 20h1v1h-1zM76 20h1v1h-1zM77 20h1v1h-1zM78 20h1v1h-1z"/><path fill="#CFCDA4" d="M79 20h1v1h-1z"/><path fill="#BEC1A0" d="M80 20h1v1h-1zM81 20h1v1h-1zM82 20h1v1h-1zM83 20h1v1h-1z"/><path fill="#97977D" d="M84 20h1v1h-1z"/><path fill="#231815" d="M85 20h1v1h-1zM86 20h1v1h-1zM87 20h1v1h-1zM49 21h1v1h-1zM50 21h1v1h-1zM51 21h1v1h-1zM52 21h1v1h-1zM53 21h1v1h-1z"/><path fill="#615A4A" d="M54 21h1v1h-1z"/><path fill="#D7D7B0" d="M55 21h1v1h-1z"/><path fill="#E1E7CA" d="M56 21h1v1h-1zM57 21h1v1h-1zM58 21h1v1h-1zM59 21h1v1h-1zM60 21h1v1h-1zM61 21h1v1h-1z"/><path fill="#D8DEC1" d="M62 21h1v1h-1z"/><path fill="#C2C5A9" d="M63 21h1v1h-1z"/><path fill="#B9B794" d="M64 21h1v1h-1z"/><path fill="#C3C19A" d="M65 21h1v1h-1z"/><path fill="#D5D1A5" d="M66 21h1v1h-1zM67 21h1v1h-1zM68 21h1v1h-1zM69 21h1v1h-1zM70 21h1v1h-1zM71 21h1v1h-1zM72 21h1v1h-1zM73 21h1v1h-1zM74 21h1v1h-1zM75 21h1v1h-1zM76 21h1v1h-1zM77 21h1v1h-1zM78 21h1v1h-1z"/><path fill="#CFCDA4" d="M79 21h1v1h-1z"/><path fill="#BEC1A0" d="M80 21h1v1h-1zM81 21h1v1h-1zM82 21h1v1h-1zM83 21h1v1h-1z"/><path fill="#97977D" d="M84 21h1v1h-1z"/><path fill="#231815" d="M85 21h1v1h-1zM86 21h1v1h-1zM87 21h1v1h-1zM48 22h1v1h-1zM49 22h1v1h-1zM50 22h1v1h-1zM51 22h1v1h-1zM52 22h1v1h-1z"/><path fill="#615A4A" d="M53 22h1v1h-1z"/><path fill="#D4D0A5" d="M54 22h1v1h-1z"/><path fill="#D5D1A5" d="M55 22h1v1h-1z"/><path fill="#E1E7CA" d="M56 22h1v1h-1zM57 22h1v1h-1zM58 22h1v1h-1zM59 22h1v1h-1zM60 22h1v1h-1z"/><path fill="#BABDA2" d="M61 22h1v1h-1z"/><path fill="#9C9D83" d="M62 22h1v1h-1zM63 22h1v1h-1zM64 22h1v1h-1zM65 22h1v1h-1z"/><path fill="#A7A789" d="M66 22h1v1h-1z"/><path fill="#D1CEA3" d="M67 22h1v1h-1z"/><path fill="#D5D1A5" d="M68 22h1v1h-1zM69 22h1v1h-1zM70 22h1v1h-1zM71 22h1v1h-1zM72 22h1v1h-1zM73 22h1v1h-1zM74 22h1v1h-1zM75 22h1v1h-1zM76 22h1v1h-1zM77 22h1v1h-1zM78 22h1v1h-1z"/><path fill="#CBCAA3" d="M79 22h1v1h-1z"/><path fill="#BEC1A0" d="M80 22h1v1h-1zM81 22h1v1h-1zM82 22h1v1h-1zM83 22h1v1h-1z"/><path fill="#8E8C75" d="M84 22h1v1h-1z"/><path fill="#231815" d="M85 22h1v1h-1zM86 22h1v1h-1zM87 22h1v1h-1zM47 23h1v1h-1zM48 23h1v1h-1zM49 23h1v1h-1zM50 23h1v1h-1zM51 23h1v1h-1z"/><path fill="#5F5849" d="M52 23h1v1h-1z"/><path fill="#D1CEA4" d="M53 23h1v1h-1z"/><path fill="#D5D1A5" d="M54 23h1v1h-1zM55 23h1v1h-1z"/><path fill="#DEE2C1" d="M56 23h1v1h-1z"/><path fill="#E1E7CA" d="M57 23h1v1h-1zM58 23h1v1h-1zM59 23h1v1h-1z"/><path fill="#D4D9BD" d="M60 23h1v1h-1z"/><path fill="#9C9D83" d="M61 23h1v1h-1zM62 23h1v1h-1zM63 23h1v1h-1zM64 23h1v1h-1zM65 23h1v1h-1zM66 23h1v1h-1z"/><path fill="#ABAD90" d="M67 23h1v1h-1z"/><path fill="#C5C6A2" d="M68 23h1v1h-1z"/><path fill="#CFCDA4" d="M69 23h1v1h-1z"/><path fill="#D5D1A5" d="M70 23h1v1h-1zM71 23h1v1h-1zM72 23h1v1h-1zM73 23h1v1h-1zM74 23h1v1h-1zM75 23h1v1h-1zM76 23h1v1h-1zM77 23h1v1h-1zM78 23h1v1h-1z"/><path fill="#C4C5A1" d="M79 23h1v1h-1z"/><path fill="#BEC1A0" d="M80 23h1v1h-1zM81 23h1v1h-1zM82 23h1v1h-1zM83 23h1v1h-1z"/><path fill="#716D5B" d="M84 23h1v1h-1z"/><path fill="#231815" d="M85 23h1v1h-1zM86 23h1v1h-1zM87 23h1v1h-1zM46 24h1v1h-1zM47 24h1v1h-1zM48 24h1v1h-1zM49 24h1v1h-1zM50 24h1v1h-1z"/><path fill="#5F5849" d="M51 24h1v1h-1z"/><path fill="#D1CEA4" d="M52 24h1v1h-1z"/><path fill="#D5D1A5" d="M53 24h1v1h-1zM54 24h1v1h-1z"/><path fill="#D6D2A7" d="M55 24h1v1h-1z"/><path fill="#E0E4C5" d="M56 24h1v1h-1z"/><path fill="#E1E7CA" d="M57 24h1v1h-1zM58 24h1v1h-1zM59 24h1v1h-1z"/><path fill="#D0D5B8" d="M60 24h1v1h-1z"/><path fill="#9C9D83" d="M61 24h1v1h-1zM62 24h1v1h-1zM63 24h1v1h-1zM64 24h1v1h-1zM65 24h1v1h-1zM66 24h1v1h-1z"/><path fill="#A5A68A" d="M67 24h1v1h-1z"/><path fill="#BEC1A0" d="M68 24h1v1h-1zM69 24h1v1h-1z"/><path fill="#D1CEA4" d="M70 24h1v1h-1z"/><path fill="#D5D1A5" d="M71 24h1v1h-1zM72 24h1v1h-1zM73 24h1v1h-1zM74 24h1v1h-1zM75 24h1v1h-1zM76 24h1v1h-1zM77 24h1v1h-1z"/><path fill="#CFCDA4" d="M78 24h1v1h-1z"/><path fill="#BEC1A0" d="M79 24h1v1h-1zM80 24h1v1h-1zM81 24h1v1h-1zM82 24h1v1h-1zM83 24h1v1h-1z"/><path fill="#4A4238" d="M84 24h1v1h-1z"/><path fill="#231815" d="M85 24h1v1h-1zM86 24h1v1h-1zM87 24h1v1h-1zM45 25h1v1h-1zM46 25h1v1h-1zM47 25h1v1h-1zM48 25h1v1h-1zM49 25h1v1h-1z"/><path fill="#5F5849" d="M50 25h1v1h-1z"/><path fill="#D1CEA4" d="M51 25h1v1h-1z"/><path fill="#D5D1A5" d="M52 25h1v1h-1zM53 25h1v1h-1zM54 25h1v1h-1z"/><path fill="#DDDFBC" d="M55 25h1v1h-1z"/><path fill="#E1E7CA" d="M56 25h1v1h-1zM57 25h1v1h-1zM58 25h1v1h-1zM59 25h1v1h-1z"/><path fill="#DDE2C6" d="M60 25h1v1h-1z"/><path fill="#A0A287" d="M61 25h1v1h-1z"/><path fill="#9C9D83" d="M62 25h1v1h-1zM63 25h1v1h-1zM64 25h1v1h-1zM65 25h1v1h-1zM66 25h1v1h-1z"/><path fill="#B3B697" d="M67 25h1v1h-1z"/><path fill="#BEC1A0" d="M68 25h1v1h-1zM69 25h1v1h-1z"/><path fill="#C7C7A2" d="M70 25h1v1h-1z"/><path fill="#D5D1A5" d="M71 25h1v1h-1zM72 25h1v1h-1zM73 25h1v1h-1zM74 25h1v1h-1zM75 25h1v1h-1zM76 25h1v1h-1zM77 25h1v1h-1z"/><path fill="#C7C7A2" d="M78 25h1v1h-1z"/><path fill="#BEC1A0" d="M79 25h1v1h-1zM80 25h1v1h-1zM81 25h1v1h-1zM82 25h1v1h-1z"/><path fill="#B4B697" d="M83 25h1v1h-1z"/><path fill="#231815" d="M84 25h1v1h-1zM85 25h1v1h-1zM86 25h1v1h-1zM87 25h1v1h-1zM44 26h1v1h-1zM45 26h1v1h-1zM46 26h1v1h-1zM47 26h1v1h-1zM48 26h1v1h-1z"/><path fill="#5F5849" d="M49 26h1v1h-1z"/><path fill="#D1CEA4" d="M50 26h1v1h-1z"/><path fill="#D5D1A5" d="M51 26h1v1h-1zM52 26h1v1h-1z"/><path fill="#D6D2A7" d="M53 26h1v1h-1z"/><path fill="#DDDFBC" d="M54 26h1v1h-1z"/><path fill="#E1E7CA" d="M55 26h1v1h-1zM56 26h1v1h-1zM57 26h1v1h-1zM58 26h1v1h-1zM59 26h1v1h-1zM60 26h1v1h-1z"/><path fill="#D0D2B1" d="M61 26h1v1h-1z"/><path fill="#AAAA8C" d="M62 26h1v1h-1z"/><path fill="#9C9D83" d="M63 26h1v1h-1zM64 26h1v1h-1z"/><path fill="#A0A287" d="M65 26h1v1h-1z"/><path fill="#B1B495" d="M66 26h1v1h-1z"/><path fill="#BEC1A0" d="M67 26h1v1h-1zM68 26h1v1h-1zM69 26h1v1h-1zM70 26h1v1h-1z"/><path fill="#D5D1A5" d="M71 26h1v1h-1zM72 26h1v1h-1zM73 26h1v1h-1zM74 26h1v1h-1zM75 26h1v1h-1zM76 26h1v1h-1z"/><path fill="#D4D0A5" d="M77 26h1v1h-1z"/><path fill="#BEC1A0" d="M78 26h1v1h-1zM79 26h1v1h-1zM80 26h1v1h-1zM81 26h1v1h-1zM82 26h1v1h-1z"/><path fill="#84826C" d="M83 26h1v1h-1z"/><path fill="#231815" d="M84 26h1v1h-1zM85 26h1v1h-1zM86 26h1v1h-1zM87 26h1v1h-1zM43 27h1v1h-1zM44 27h1v1h-1zM45 27h1v1h-1zM46 27h1v1h-1zM47 27h1v1h-1z"/><path fill="#5F5849" d="M48 27h1v1h-1z"/><path fill="#D1CEA4" d="M49 27h1v1h-1z"/><path fill="#D5D1A5" d="M50 27h1v1h-1zM51 27h1v1h-1z"/><path fill="#D6D2A7" d="M52 27h1v1h-1z"/><path fill="#DFE3C3" d="M53 27h1v1h-1z"/><path fill="#E1E7CA" d="M54 27h1v1h-1zM55 27h1v1h-1zM56 27h1v1h-1zM57 27h1v1h-1zM58 27h1v1h-1zM59 27h1v1h-1z"/><path fill="#DCDDBA" d="M60 27h1v1h-1z"/><path fill="#D6D2A7" d="M61 27h1v1h-1z"/><path fill="#DDDFBC" d="M62 27h1v1h-1z"/><path fill="#E1E7CA" d="M63 27h1v1h-1zM64 27h1v1h-1zM65 27h1v1h-1z"/><path fill="#D6DBBD" d="M66 27h1v1h-1z"/><path fill="#C2C6A5" d="M67 27h1v1h-1z"/><path fill="#BEC1A0" d="M68 27h1v1h-1zM69 27h1v1h-1zM70 27h1v1h-1z"/><path fill="#CECCA3" d="M71 27h1v1h-1z"/><path fill="#D5D1A5" d="M72 27h1v1h-1zM73 27h1v1h-1zM74 27h1v1h-1zM75 27h1v1h-1zM76 27h1v1h-1z"/><path fill="#CAC9A3" d="M77 27h1v1h-1z"/><path fill="#BEC1A0" d="M78 27h1v1h-1zM79 27h1v1h-1zM80 27h1v1h-1zM81 27h1v1h-1zM82 27h1v1h-1z"/><path fill="#4A4238" d="M83 27h1v1h-1z"/><path fill="#231815" d="M84 27h1v1h-1zM85 27h1v1h-1zM86 27h1v1h-1zM42 28h1v1h-1zM43 28h1v1h-1zM44 28h1v1h-1zM45 28h1v1h-1zM46 28h1v1h-1z"/><path fill="#5F5849" d="M47 28h1v1h-1z"/><path fill="#D1CEA4" d="M48 28h1v1h-1z"/><path fill="#D5D1A5" d="M49 28h1v1h-1zM50 28h1v1h-1z"/><path fill="#D6D2A7" d="M51 28h1v1h-1z"/><path fill="#DFE3C3" d="M52 28h1v1h-1z"/><path fill="#E1E7CA" d="M53 28h1v1h-1zM54 28h1v1h-1zM55 28h1v1h-1zM56 28h1v1h-1zM57 28h1v1h-1z"/><path fill="#E0E6C8" d="M58 28h1v1h-1z"/><path fill="#D8D7AE" d="M59 28h1v1h-1z"/><path fill="#D5D1A5" d="M60 28h1v1h-1z"/><path fill="#DFE3C3" d="M61 28h1v1h-1z"/><path fill="#E1E7CA" d="M62 28h1v1h-1zM63 28h1v1h-1zM64 28h1v1h-1zM65 28h1v1h-1zM66 28h1v1h-1z"/><path fill="#DDE2C5" d="M67 28h1v1h-1z"/><path fill="#BEC1A0" d="M68 28h1v1h-1zM69 28h1v1h-1zM70 28h1v1h-1z"/><path fill="#C8C8A2" d="M71 28h1v1h-1z"/><path fill="#D5D1A5" d="M72 28h1v1h-1zM73 28h1v1h-1zM74 28h1v1h-1zM75 28h1v1h-1z"/><path fill="#D4D0A5" d="M76 28h1v1h-1z"/><path fill="#BFC2A0" d="M77 28h1v1h-1z"/><path fill="#BEC1A0" d="M78 28h1v1h-1zM79 28h1v1h-1zM80 28h1v1h-1zM81 28h1v1h-1z"/><path fill="#ABAC8F" d="M82 28h1v1h-1z"/><path fill="#231815" d="M83 28h1v1h-1zM84 28h1v1h-1zM85 28h1v1h-1zM86 28h1v1h-1zM41 29h1v1h-1zM42 29h1v1h-1zM43 29h1v1h-1zM44 29h1v1h-1zM45 29h1v1h-1z"/><path fill="#5F5849" d="M46 29h1v1h-1z"/><path fill="#D1CEA4" d="M47 29h1v1h-1z"/><path fill="#D5D1A5" d="M48 29h1v1h-1zM49 29h1v1h-1z"/><path fill="#D6D2A7" d="M50 29h1v1h-1z"/><path fill="#DFE3C3" d="M51 29h1v1h-1z"/><path fill="#E1E7CA" d="M52 29h1v1h-1zM53 29h1v1h-1zM54 29h1v1h-1zM55 29h1v1h-1zM56 29h1v1h-1z"/><path fill="#DFE3C3" d="M57 29h1v1h-1z"/><path fill="#D7D5AC" d="M58 29h1v1h-1z"/><path fill="#D5D1A5" d="M59 29h1v1h-1z"/><path fill="#D7D5AC" d="M60 29h1v1h-1z"/><path fill="#E1E7CA" d="M61 29h1v1h-1zM62 29h1v1h-1zM63 29h1v1h-1zM64 29h1v1h-1zM65 29h1v1h-1zM66 29h1v1h-1zM67 29h1v1h-1z"/><path fill="#C7CBAB" d="M68 29h1v1h-1z"/><path fill="#BEC1A0" d="M69 29h1v1h-1zM70 29h1v1h-1z"/><path fill="#C1C3A1" d="M71 29h1v1h-1z"/><path fill="#D5D1A5" d="M72 29h1v1h-1zM73 29h1v1h-1zM74 29h1v1h-1zM75 29h1v1h-1z"/><path fill="#CAC9A3" d="M76 29h1v1h-1z"/><path fill="#BEC1A0" d="M77 29h1v1h-1zM78 29h1v1h-1zM79 29h1v1h-1zM80 29h1v1h-1zM81 29h1v1h-1z"/><path fill="#5D5749" d="M82 29h1v1h-1z"/><path fill="#231815" d="M83 29h1v1h-1zM84 29h1v1h-1zM85 29h1v1h-1zM86 29h1v1h-1zM40 30h1v1h-1zM41 30h1v1h-1zM42 30h1v1h-1zM43 30h1v1h-1zM44 30h1v1h-1z"/><path fill="#5F5849" d="M45 30h1v1h-1z"/><path fill="#D1CEA4" d="M46 30h1v1h-1z"/><path fill="#D5D1A5" d="M47 30h1v1h-1zM48 30h1v1h-1z"/><path fill="#D6D2A7" d="M49 30h1v1h-1z"/><path fill="#DFE3C3" d="M50 30h1v1h-1z"/><path fill="#E1E7CA" d="M51 30h1v1h-1zM52 30h1v1h-1zM53 30h1v1h-1zM54 30h1v1h-1zM55 30h1v1h-1z"/><path fill="#DFE3C3" d="M56 30h1v1h-1z"/><path fill="#D6D2A7" d="M57 30h1v1h-1z"/><path fill="#D5D1A5" d="M58 30h1v1h-1zM59 30h1v1h-1z"/><path fill="#D6D2A7" d="M60 30h1v1h-1z"/><path fill="#E1E7CA" d="M61 30h1v1h-1zM62 30h1v1h-1zM63 30h1v1h-1zM64 30h1v1h-1zM65 30h1v1h-1zM66 30h1v1h-1zM67 30h1v1h-1z"/><path fill="#C2C6A5" d="M68 30h1v1h-1z"/><path fill="#BEC1A0" d="M69 30h1v1h-1zM70 30h1v1h-1zM71 30h1v1h-1z"/><path fill="#CBCAA3" d="M72 30h1v1h-1z"/><path fill="#D5D1A5" d="M73 30h1v1h-1zM74 30h1v1h-1z"/><path fill="#CECCA3" d="M75 30h1v1h-1z"/><path fill="#BEC1A0" d="M76 30h1v1h-1zM77 30h1v1h-1zM78 30h1v1h-1zM79 30h1v1h-1zM80 30h1v1h-1z"/><path fill="#ABAC8F" d="M81 30h1v1h-1z"/><path fill="#231815" d="M82 30h1v1h-1zM83 30h1v1h-1zM84 30h1v1h-1zM85 30h1v1h-1zM39 31h1v1h-1zM40 31h1v1h-1zM41 31h1v1h-1zM42 31h1v1h-1zM43 31h1v1h-1z"/><path fill="#5D5749" d="M44 31h1v1h-1z"/><path fill="#CECCA3" d="M45 31h1v1h-1z"/><path fill="#D5D1A5" d="M46 31h1v1h-1zM47 31h1v1h-1z"/><path fill="#D6D2A7" d="M48 31h1v1h-1z"/><path fill="#DFE3C3" d="M49 31h1v1h-1z"/><path fill="#E1E7CA" d="M50 31h1v1h-1zM51 31h1v1h-1zM52 31h1v1h-1zM53 31h1v1h-1zM54 31h1v1h-1z"/><path fill="#DEE2C1" d="M55 31h1v1h-1z"/><path fill="#D6D2A7" d="M56 31h1v1h-1z"/><path fill="#D5D1A5" d="M57 31h1v1h-1zM58 31h1v1h-1zM59 31h1v1h-1zM60 31h1v1h-1z"/><path fill="#DAD9B3" d="M61 31h1v1h-1z"/><path fill="#E0E6C8" d="M62 31h1v1h-1z"/><path fill="#E1E7CA" d="M63 31h1v1h-1zM64 31h1v1h-1zM65 31h1v1h-1z"/><path fill="#DFE5C7" d="M66 31h1v1h-1z"/><path fill="#CBCFB0" d="M67 31h1v1h-1z"/><path fill="#BEC1A0" d="M68 31h1v1h-1zM69 31h1v1h-1zM70 31h1v1h-1zM71 31h1v1h-1zM72 31h1v1h-1z"/><path fill="#C5C6A2" d="M73 31h1v1h-1zM74 31h1v1h-1z"/><path fill="#BEC1A0" d="M75 31h1v1h-1zM76 31h1v1h-1zM77 31h1v1h-1zM78 31h1v1h-1zM79 31h1v1h-1z"/><path fill="#B4B697" d="M80 31h1v1h-1z"/><path fill="#40382F" d="M81 31h1v1h-1z"/><path fill="#231815" d="M82 31h1v1h-1zM83 31h1v1h-1zM84 31h1v1h-1zM85 31h1v1h-1zM38 32h1v1h-1zM39 32h1v1h-1zM40 32h1v1h-1zM41 32h1v1h-1zM42 32h1v1h-1z"/><path fill="#5D5749" d="M43 32h1v1h-1z"/><path fill="#CCCBA3" d="M44 32h1v1h-1z"/><path fill="#D5D1A5" d="M45 32h1v1h-1zM46 32h1v1h-1z"/><path fill="#D6D2A7" d="M47 32h1v1h-1z"/><path fill="#DFE3C3" d="M48 32h1v1h-1z"/><path fill="#E1E7CA" d="M49 32h1v1h-1zM50 32h1v1h-1zM51 32h1v1h-1zM52 32h1v1h-1zM53 32h1v1h-1z"/><path fill="#DDDFBC" d="M54 32h1v1h-1z"/><path fill="#D5D1A5" d="M55 32h1v1h-1zM56 32h1v1h-1zM57 32h1v1h-1zM58 32h1v1h-1zM59 32h1v1h-1zM60 32h1v1h-1zM61 32h1v1h-1z"/><path fill="#D6D2A7" d="M62 32h1v1h-1z"/><path fill="#D2D4B1" d="M63 32h1v1h-1z"/><path fill="#D0D4B5" d="M64 32h1v1h-1z"/><path fill="#CBCFB0" d="M65 32h1v1h-1z"/><path fill="#C0C3A3" d="M66 32h1v1h-1z"/><path fill="#BEC1A0" d="M67 32h1v1h-1zM68 32h1v1h-1zM69 32h1v1h-1zM70 32h1v1h-1zM71 32h1v1h-1zM72 32h1v1h-1zM73 32h1v1h-1zM74 32h1v1h-1zM75 32h1v1h-1zM76 32h1v1h-1zM77 32h1v1h-1zM78 32h1v1h-1z"/><path fill="#A1A186" d="M79 32h1v1h-1z"/><path fill="#40382F" d="M80 32h1v1h-1z"/><path fill="#231815" d="M81 32h1v1h-1zM82 32h1v1h-1zM83 32h1v1h-1zM84 32h1v1h-1zM37 33h1v1h-1zM38 33h1v1h-1zM39 33h1v1h-1zM40 33h1v1h-1zM41 33h1v1h-1z"/><path fill="#5D5749" d="M42 33h1v1h-1z"/><path fill="#CCCBA3" d="M43 33h1v1h-1z"/><path fill="#D5D1A5" d="M44 33h1v1h-1zM45 33h1v1h-1z"/><path fill="#D6D2A7" d="M46 33h1v1h-1z"/><path fill="#DFE3C3" d="M47 33h1v1h-1z"/><path fill="#E1E7CA" d="M48 33h1v1h-1zM49 33h1v1h-1zM50 33h1v1h-1zM51 33h1v1h-1zM52 33h1v1h-1z"/><path fill="#DDDFBC" d="M53 33h1v1h-1z"/><path fill="#D5D1A5" d="M54 33h1v1h-1zM55 33h1v1h-1zM56 33h1v1h-1zM57 33h1v1h-1zM58 33h1v1h-1zM59 33h1v1h-1zM60 33h1v1h-1zM61 33h1v1h-1z"/><path fill="#CCCBA3" d="M62 33h1v1h-1z"/><path fill="#BEC1A0" d="M63 33h1v1h-1zM64 33h1v1h-1zM65 33h1v1h-1zM66 33h1v1h-1zM67 33h1v1h-1zM68 33h1v1h-1zM69 33h1v1h-1zM70 33h1v1h-1zM71 33h1v1h-1zM72 33h1v1h-1zM73 33h1v1h-1zM74 33h1v1h-1zM75 33h1v1h-1z"/><path fill="#ABAC8F" d="M76 33h1v1h-1z"/><path fill="#84826C" d="M77 33h1v1h-1z"/><path fill="#534D40" d="M78 33h1v1h-1z"/><path fill="#231815" d="M79 33h1v1h-1zM80 33h1v1h-1zM81 33h1v1h-1zM82 33h1v1h-1zM83 33h1v1h-1zM84 33h1v1h-1zM36 34h1v1h-1zM37 34h1v1h-1zM38 34h1v1h-1zM39 34h1v1h-1zM40 34h1v1h-1z"/><path fill="#5D5749" d="M41 34h1v1h-1z"/><path fill="#CCCBA3" d="M42 34h1v1h-1z"/><path fill="#D5D1A5" d="M43 34h1v1h-1zM44 34h1v1h-1z"/><path fill="#D6D2A7" d="M45 34h1v1h-1z"/><path fill="#DFE3C3" d="M46 34h1v1h-1z"/><path fill="#E1E7CA" d="M47 34h1v1h-1zM48 34h1v1h-1zM49 34h1v1h-1zM50 34h1v1h-1zM51 34h1v1h-1z"/><path fill="#DDDFBC" d="M52 34h1v1h-1z"/><path fill="#D5D1A5" d="M53 34h1v1h-1zM54 34h1v1h-1zM55 34h1v1h-1zM56 34h1v1h-1zM57 34h1v1h-1zM58 34h1v1h-1zM59 34h1v1h-1zM60 34h1v1h-1z"/><path fill="#CCCBA3" d="M61 34h1v1h-1z"/><path fill="#BEC1A0" d="M62 34h1v1h-1zM63 34h1v1h-1zM64 34h1v1h-1z"/><path fill="#B4B697" d="M65 34h1v1h-1z"/><path fill="#534D40" d="M66 34h1v1h-1z"/><path fill="#231815" d="M67 34h1v1h-1z"/><path fill="#362D26" d="M68 34h1v1h-1z"/><path fill="#4A4238" d="M69 34h1v1h-1zM70 34h1v1h-1zM71 34h1v1h-1zM72 34h1v1h-1zM73 34h1v1h-1zM74 34h1v1h-1z"/><path fill="#2D231E" d="M75 34h1v1h-1z"/><path fill="#231815" d="M76 34h1v1h-1zM77 34h1v1h-1zM78 34h1v1h-1zM79 34h1v1h-1zM80 34h1v1h-1zM81 34h1v1h-1zM82 34h1v1h-1zM83 34h1v1h-1zM35 35h1v1h-1zM36 35h1v1h-1zM37 35h1v1h-1zM38 35h1v1h-1zM39 35h1v1h-1z"/><path fill="#5D5749" d="M40 35h1v1h-1z"/><path fill="#CCCBA3" d="M41 35h1v1h-1z"/><path fill="#D5D1A5" d="M42 35h1v1h-1zM43 35h1v1h-1z"/><path fill="#D7D4AA" d="M44 35h1v1h-1z"/><path fill="#DFE3C3" d="M45 35h1v1h-1z"/><path fill="#E1E7CA" d="M46 35h1v1h-1zM47 35h1v1h-1zM48 35h1v1h-1zM49 35h1v1h-1zM50 35h1v1h-1z"/><path fill="#DDDFBC" d="M51 35h1v1h-1z"/><path fill="#D5D1A5" d="M52 35h1v1h-1zM53 35h1v1h-1zM54 35h1v1h-1zM55 35h1v1h-1zM56 35h1v1h-1zM57 35h1v1h-1zM58 35h1v1h-1zM59 35h1v1h-1z"/><path fill="#CCCBA3" d="M60 35h1v1h-1z"/><path fill="#BEC1A0" d="M61 35h1v1h-1zM62 35h1v1h-1zM63 35h1v1h-1zM64 35h1v1h-1z"/><path fill="#5D5749" d="M65 35h1v1h-1z"/><path fill="#231815" d="M66 35h1v1h-1zM67 35h1v1h-1zM68 35h1v1h-1zM69 35h1v1h-1zM70 35h1v1h-1zM71 35h1v1h-1zM72 35h1v1h-1zM73 35h1v1h-1zM74 35h1v1h-1zM75 35h1v1h-1zM76 35h1v1h-1zM77 35h1v1h-1zM78 35h1v1h-1zM79 35h1v1h-1zM80 35h1v1h-1zM81 35h1v1h-1zM34 36h1v1h-1zM35 36h1v1h-1zM36 36h1v1h-1zM37 36h1v1h-1zM38 36h1v1h-1z"/><path fill="#5D5749" d="M39 36h1v1h-1z"/><path fill="#CCCBA3" d="M40 36h1v1h-1z"/><path fill="#D5D1A5" d="M41 36h1v1h-1zM42 36h1v1h-1z"/><path fill="#D7D5AC" d="M43 36h1v1h-1z"/><path fill="#E0E6C8" d="M44 36h1v1h-1z"/><path fill="#E1E7CA" d="M45 36h1v1h-1zM46 36h1v1h-1zM47 36h1v1h-1zM48 36h1v1h-1zM49 36h1v1h-1z"/><path fill="#DDDFBC" d="M50 36h1v1h-1z"/><path fill="#D5D1A5" d="M51 36h1v1h-1zM52 36h1v1h-1zM53 36h1v1h-1zM54 36h1v1h-1zM55 36h1v1h-1zM56 36h1v1h-1zM57 36h1v1h-1zM58 36h1v1h-1z"/><path fill="#CCCBA3" d="M59 36h1v1h-1z"/><path fill="#BEC1A0" d="M60 36h1v1h-1zM61 36h1v1h-1zM62 36h1v1h-1zM63 36h1v1h-1z"/><path fill="#5D5749" d="M64 36h1v1h-1z"/><path fill="#231815" d="M65 36h1v1h-1zM66 36h1v1h-1zM67 36h1v1h-1zM68 36h1v1h-1zM69 36h1v1h-1zM70 36h1v1h-1zM71 36h1v1h-1zM72 36h1v1h-1zM73 36h1v1h-1zM74 36h1v1h-1zM75 36h1v1h-1zM76 36h1v1h-1zM77 36h1v1h-1zM78 36h1v1h-1zM79 36h1v1h-1zM80 36h1v1h-1zM33 37h1v1h-1zM34 37h1v1h-1zM35 37h1v1h-1zM36 37h1v1h-1zM37 37h1v1h-1z"/><path fill="#5D5749" d="M38 37h1v1h-1z"/><path fill="#CCCBA3" d="M39 37h1v1h-1z"/><path fill="#D5D1A5" d="M40 37h1v1h-1zM41 37h1v1h-1z"/><path fill="#D7D5AC" d="M42 37h1v1h-1z"/><path fill="#E0E6C8" d="M43 37h1v1h-1z"/><path fill="#E1E7CA" d="M44 37h1v1h-1zM45 37h1v1h-1zM46 37h1v1h-1zM47 37h1v1h-1zM48 37h1v1h-1z"/><path fill="#DDDFBC" d="M49 37h1v1h-1z"/><path fill="#D5D1A5" d="M50 37h1v1h-1zM51 37h1v1h-1zM52 37h1v1h-1zM53 37h1v1h-1zM54 37h1v1h-1zM55 37h1v1h-1zM56 37h1v1h-1zM57 37h1v1h-1z"/><path fill="#CCCBA3" d="M58 37h1v1h-1z"/><path fill="#BEC1A0" d="M59 37h1v1h-1zM60 37h1v1h-1zM61 37h1v1h-1zM62 37h1v1h-1z"/><path fill="#5D5749" d="M63 37h1v1h-1z"/><path fill="#231815" d="M64 37h1v1h-1zM65 37h1v1h-1zM66 37h1v1h-1zM67 37h1v1h-1zM68 37h1v1h-1zM69 37h1v1h-1zM70 37h1v1h-1zM71 37h1v1h-1zM72 37h1v1h-1zM73 37h1v1h-1zM74 37h1v1h-1zM75 37h1v1h-1zM76 37h1v1h-1zM77 37h1v1h-1zM32 38h1v1h-1zM33 38h1v1h-1zM34 38h1v1h-1zM35 38h1v1h-1zM36 38h1v1h-1z"/><path fill="#5D5749" d="M37 38h1v1h-1z"/><path fill="#CCCBA3" d="M38 38h1v1h-1z"/><path fill="#D5D1A5" d="M39 38h1v1h-1zM40 38h1v1h-1z"/><path fill="#D7D5AC" d="M41 38h1v1h-1z"/><path fill="#E0E6C8" d="M42 38h1v1h-1z"/><path fill="#E1E7CA" d="M43 38h1v1h-1zM44 38h1v1h-1zM45 38h1v1h-1zM46 38h1v1h-1zM47 38h1v1h-1z"/><path fill="#DAD9B3" d="M48 38h1v1h-1z"/><path fill="#D5D1A5" d="M49 38h1v1h-1zM50 38h1v1h-1zM51 38h1v1h-1zM52 38h1v1h-1zM53 38h1v1h-1zM54 38h1v1h-1zM55 38h1v1h-1zM56 38h1v1h-1z"/><path fill="#CCCBA3" d="M57 38h1v1h-1z"/><path fill="#BEC1A0" d="M58 38h1v1h-1zM59 38h1v1h-1zM60 38h1v1h-1zM61 38h1v1h-1z"/><path fill="#5D5749" d="M62 38h1v1h-1z"/><path fill="#231815" d="M63 38h1v1h-1zM64 38h1v1h-1zM65 38h1v1h-1zM66 38h1v1h-1zM67 38h1v1h-1zM31 39h1v1h-1zM32 39h1v1h-1zM33 39h1v1h-1zM34 39h1v1h-1zM35 39h1v1h-1z"/><path fill="#5D5749" d="M36 39h1v1h-1z"/><path fill="#C8C8A2" d="M37 39h1v1h-1z"/><path fill="#D5D1A5" d="M38 39h1v1h-1zM39 39h1v1h-1z"/><path fill="#D7D5AC" d="M40 39h1v1h-1z"/><path fill="#E0E6C8" d="M41 39h1v1h-1z"/><path fill="#E1E7CA" d="M42 39h1v1h-1zM43 39h1v1h-1zM44 39h1v1h-1zM45 39h1v1h-1zM46 39h1v1h-1z"/><path fill="#DAD9B3" d="M47 39h1v1h-1z"/><path fill="#D5D1A5" d="M48 39h1v1h-1zM49 39h1v1h-1zM50 39h1v1h-1zM51 39h1v1h-1zM52 39h1v1h-1zM53 39h1v1h-1zM54 39h1v1h-1zM55 39h1v1h-1z"/><path fill="#CCCBA3" d="M56 39h1v1h-1z"/><path fill="#BEC1A0" d="M57 39h1v1h-1zM58 39h1v1h-1zM59 39h1v1h-1zM60 39h1v1h-1z"/><path fill="#716D5B" d="M61 39h1v1h-1z"/><path fill="#231815" d="M62 39h1v1h-1zM63 39h1v1h-1zM64 39h1v1h-1zM65 39h1v1h-1zM66 39h1v1h-1zM30 40h1v1h-1zM31 40h1v1h-1zM32 40h1v1h-1zM33 40h1v1h-1zM34 40h1v1h-1z"/><path fill="#5D5749" d="M35 40h1v1h-1z"/><path fill="#C7C7A2" d="M36 40h1v1h-1z"/><path fill="#D5D1A5" d="M37 40h1v1h-1zM38 40h1v1h-1z"/><path fill="#D7D5AC" d="M39 40h1v1h-1z"/><path fill="#E0E6C8" d="M40 40h1v1h-1z"/><path fill="#E1E7CA" d="M41 40h1v1h-1zM42 40h1v1h-1zM43 40h1v1h-1zM44 40h1v1h-1zM45 40h1v1h-1z"/><path fill="#DAD9B3" d="M46 40h1v1h-1z"/><path fill="#D5D1A5" d="M47 40h1v1h-1zM48 40h1v1h-1zM49 40h1v1h-1zM50 40h1v1h-1zM51 40h1v1h-1zM52 40h1v1h-1zM53 40h1v1h-1zM54 40h1v1h-1z"/><path fill="#CCCBA3" d="M55 40h1v1h-1z"/><path fill="#BEC1A0" d="M56 40h1v1h-1zM57 40h1v1h-1zM58 40h1v1h-1zM59 40h1v1h-1z"/><path fill="#84826C" d="M60 40h1v1h-1z"/><path fill="#231815" d="M61 40h1v1h-1zM62 40h1v1h-1zM63 40h1v1h-1zM64 40h1v1h-1zM65 40h1v1h-1zM29 41h1v1h-1zM30 41h1v1h-1zM31 41h1v1h-1zM32 41h1v1h-1zM33 41h1v1h-1z"/><path fill="#5D5749" d="M34 41h1v1h-1z"/><path fill="#C7C7A2" d="M35 41h1v1h-1z"/><path fill="#D5D1A5" d="M36 41h1v1h-1zM37 41h1v1h-1z"/><path fill="#D7D5AC" d="M38 41h1v1h-1z"/><path fill="#E0E6C8" d="M39 41h1v1h-1z"/><path fill="#E1E7CA" d="M40 41h1v1h-1zM41 41h1v1h-1zM42 41h1v1h-1zM43 41h1v1h-1zM44 41h1v1h-1z"/><path fill="#DAD9B3" d="M45 41h1v1h-1z"/><path fill="#D5D1A5" d="M46 41h1v1h-1zM47 41h1v1h-1zM48 41h1v1h-1zM49 41h1v1h-1zM50 41h1v1h-1zM51 41h1v1h-1zM52 41h1v1h-1zM53 41h1v1h-1z"/><path fill="#CECCA3" d="M54 41h1v1h-1z"/><path fill="#BEC1A0" d="M55 41h1v1h-1zM56 41h1v1h-1zM57 41h1v1h-1zM58 41h1v1h-1z"/><path fill="#84826C" d="M59 41h1v1h-1z"/><path fill="#231815" d="M60 41h1v1h-1zM61 41h1v1h-1zM62 41h1v1h-1zM63 41h1v1h-1zM64 41h1v1h-1zM28 42h1v1h-1zM29 42h1v1h-1zM30 42h1v1h-1zM31 42h1v1h-1zM32 42h1v1h-1z"/><path fill="#5D5749" d="M33 42h1v1h-1z"/><path fill="#C7C7A2" d="M34 42h1v1h-1z"/><path fill="#D5D1A5" d="M35 42h1v1h-1zM36 42h1v1h-1z"/><path fill="#D7D5AC" d="M37 42h1v1h-1z"/><path fill="#E0E6C8" d="M38 42h1v1h-1z"/><path fill="#E1E7CA" d="M39 42h1v1h-1zM40 42h1v1h-1zM41 42h1v1h-1zM42 42h1v1h-1zM43 42h1v1h-1z"/><path fill="#DAD9B3" d="M44 42h1v1h-1z"/><path fill="#D5D1A5" d="M45 42h1v1h-1zM46 42h1v1h-1zM47 42h1v1h-1zM48 42h1v1h-1zM49 42h1v1h-1zM50 42h1v1h-1zM51 42h1v1h-1zM52 42h1v1h-1z"/><path fill="#D1CEA4" d="M53 42h1v1h-1z"/><path fill="#BFC2A0" d="M54 42h1v1h-1z"/><path fill="#BEC1A0" d="M55 42h1v1h-1zM56 42h1v1h-1zM57 42h1v1h-1z"/><path fill="#84826C" d="M58 42h1v1h-1z"/><path fill="#231815" d="M59 42h1v1h-1zM60 42h1v1h-1zM61 42h1v1h-1zM62 42h1v1h-1zM63 42h1v1h-1zM27 43h1v1h-1zM28 43h1v1h-1zM29 43h1v1h-1zM30 43h1v1h-1zM31 43h1v1h-1z"/><path fill="#5D5749" d="M32 43h1v1h-1z"/><path fill="#C7C7A2" d="M33 43h1v1h-1z"/><path fill="#D5D1A5" d="M34 43h1v1h-1zM35 43h1v1h-1z"/><path fill="#D7D5AC" d="M36 43h1v1h-1z"/><path fill="#E0E6C8" d="M37 43h1v1h-1z"/><path fill="#E1E7CA" d="M38 43h1v1h-1zM39 43h1v1h-1zM40 43h1v1h-1zM41 43h1v1h-1zM42 43h1v1h-1z"/><path fill="#DAD9B3" d="M43 43h1v1h-1z"/><path fill="#D5D1A5" d="M44 43h1v1h-1zM45 43h1v1h-1zM46 43h1v1h-1zM47 43h1v1h-1zM48 43h1v1h-1zM49 43h1v1h-1zM50 43h1v1h-1zM51 43h1v1h-1z"/><path fill="#D1CEA4" d="M52 43h1v1h-1z"/><path fill="#BFC2A0" d="M53 43h1v1h-1z"/><path fill="#BEC1A0" d="M54 43h1v1h-1zM55 43h1v1h-1zM56 43h1v1h-1z"/><path fill="#8E8C75" d="M57 43h1v1h-1z"/><path fill="#231815" d="M58 43h1v1h-1zM59 43h1v1h-1zM60 43h1v1h-1zM61 43h1v1h-1zM62 43h1v1h-1zM26 44h1v1h-1zM27 44h1v1h-1zM28 44h1v1h-1zM29 44h1v1h-1zM30 44h1v1h-1z"/><path fill="#5D5749" d="M31 44h1v1h-1z"/><path fill="#C7C7A2" d="M32 44h1v1h-1z"/><path fill="#D5D1A5" d="M33 44h1v1h-1zM34 44h1v1h-1z"/><path fill="#D8D7AE" d="M35 44h1v1h-1z"/><path fill="#E0E6C8" d="M36 44h1v1h-1z"/><path fill="#E1E7CA" d="M37 44h1v1h-1zM38 44h1v1h-1zM39 44h1v1h-1zM40 44h1v1h-1zM41 44h1v1h-1z"/><path fill="#DAD9B3" d="M42 44h1v1h-1z"/><path fill="#D5D1A5" d="M43 44h1v1h-1zM44 44h1v1h-1zM45 44h1v1h-1zM46 44h1v1h-1zM47 44h1v1h-1zM48 44h1v1h-1zM49 44h1v1h-1zM50 44h1v1h-1z"/><path fill="#D1CEA4" d="M51 44h1v1h-1z"/><path fill="#BFC2A0" d="M52 44h1v1h-1z"/><path fill="#BEC1A0" d="M53 44h1v1h-1zM54 44h1v1h-1zM55 44h1v1h-1z"/><path fill="#A1A186" d="M56 44h1v1h-1z"/><path fill="#2D231E" d="M57 44h1v1h-1z"/><path fill="#231815" d="M58 44h1v1h-1zM59 44h1v1h-1zM60 44h1v1h-1zM61 44h1v1h-1zM25 45h1v1h-1zM26 45h1v1h-1zM27 45h1v1h-1zM28 45h1v1h-1zM29 45h1v1h-1z"/><path fill="#5D5749" d="M30 45h1v1h-1z"/><path fill="#C7C7A2" d="M31 45h1v1h-1z"/><path fill="#D5D1A5" d="M32 45h1v1h-1zM33 45h1v1h-1z"/><path fill="#DAD9B3" d="M34 45h1v1h-1z"/><path fill="#E1E7CA" d="M35 45h1v1h-1zM36 45h1v1h-1zM37 45h1v1h-1zM38 45h1v1h-1zM39 45h1v1h-1zM40 45h1v1h-1z"/><path fill="#DAD9B3" d="M41 45h1v1h-1z"/><path fill="#D5D1A5" d="M42 45h1v1h-1zM43 45h1v1h-1zM44 45h1v1h-1zM45 45h1v1h-1zM46 45h1v1h-1zM47 45h1v1h-1zM48 45h1v1h-1zM49 45h1v1h-1z"/><path fill="#D1CEA4" d="M50 45h1v1h-1z"/><path fill="#BFC2A0" d="M51 45h1v1h-1z"/><path fill="#BEC1A0" d="M52 45h1v1h-1zM53 45h1v1h-1zM54 45h1v1h-1z"/><path fill="#A1A186" d="M55 45h1v1h-1z"/><path fill="#2D231E" d="M56 45h1v1h-1z"/><path fill="#231815" d="M57 45h1v1h-1zM58 45h1v1h-1zM59 45h1v1h-1zM60 45h1v1h-1zM24 46h1v1h-1zM25 46h1v1h-1zM26 46h1v1h-1zM27 46h1v1h-1zM28 46h1v1h-1z"/><path fill="#5D5749" d="M29 46h1v1h-1z"/><path fill="#C7C7A2" d="M30 46h1v1h-1z"/><path fill="#D5D1A5" d="M31 46h1v1h-1zM32 46h1v1h-1z"/><path fill="#DAD9B3" d="M33 46h1v1h-1z"/><path fill="#E1E7CA" d="M34 46h1v1h-1zM35 46h1v1h-1zM36 46h1v1h-1zM37 46h1v1h-1zM38 46h1v1h-1zM39 46h1v1h-1z"/><path fill="#DAD9B3" d="M40 46h1v1h-1z"/><path fill="#D5D1A5" d="M41 46h1v1h-1zM42 46h1v1h-1zM43 46h1v1h-1zM44 46h1v1h-1zM45 46h1v1h-1zM46 46h1v1h-1zM47 46h1v1h-1zM48 46h1v1h-1z"/><path fill="#D2CFA4" d="M49 46h1v1h-1z"/><path fill="#BFC2A0" d="M50 46h1v1h-1z"/><path fill="#BEC1A0" d="M51 46h1v1h-1zM52 46h1v1h-1zM53 46h1v1h-1z"/><path fill="#A1A186" d="M54 46h1v1h-1z"/><path fill="#2D231E" d="M55 46h1v1h-1z"/><path fill="#231815" d="M56 46h1v1h-1zM57 46h1v1h-1zM58 46h1v1h-1zM59 46h1v1h-1zM23 47h1v1h-1zM24 47h1v1h-1zM25 47h1v1h-1zM26 47h1v1h-1zM27 47h1v1h-1z"/><path fill="#5D5749" d="M28 47h1v1h-1z"/><path fill="#C4C5A1" d="M29 47h1v1h-1z"/><path fill="#D5D1A5" d="M30 47h1v1h-1zM31 47h1v1h-1z"/><path fill="#DAD9B3" d="M32 47h1v1h-1z"/><path fill="#E1E7CA" d="M33 47h1v1h-1zM34 47h1v1h-1zM35 47h1v1h-1zM36 47h1v1h-1zM37 47h1v1h-1zM38 47h1v1h-1z"/><path fill="#DAD9B3" d="M39 47h1v1h-1z"/><path fill="#D5D1A5" d="M40 47h1v1h-1zM41 47h1v1h-1zM42 47h1v1h-1zM43 47h1v1h-1zM44 47h1v1h-1zM45 47h1v1h-1zM46 47h1v1h-1zM47 47h1v1h-1z"/><path fill="#D4D0A5" d="M48 47h1v1h-1z"/><path fill="#C2C4A1" d="M49 47h1v1h-1z"/><path fill="#BEC1A0" d="M50 47h1v1h-1zM51 47h1v1h-1zM52 47h1v1h-1z"/><path fill="#A1A186" d="M53 47h1v1h-1z"/><path fill="#2D231E" d="M54 47h1v1h-1z"/><path fill="#231815" d="M55 47h1v1h-1zM56 47h1v1h-1zM57 47h1v1h-1zM58 47h1v1h-1zM22 48h1v1h-1zM23 48h1v1h-1zM24 48h1v1h-1zM25 48h1v1h-1zM26 48h1v1h-1z"/><path fill="#5D5749" d="M27 48h1v1h-1z"/><path fill="#C2C4A1" d="M28 48h1v1h-1z"/><path fill="#D4D0A5" d="M29 48h1v1h-1z"/><path fill="#D5D1A5" d="M30 48h1v1h-1z"/><path fill="#DAD9B3" d="M31 48h1v1h-1z"/><path fill="#E1E7CA" d="M32 48h1v1h-1zM33 48h1v1h-1zM34 48h1v1h-1zM35 48h1v1h-1zM36 48h1v1h-1zM37 48h1v1h-1z"/><path fill="#DAD9B3" d="M38 48h1v1h-1z"/><path fill="#D5D1A5" d="M39 48h1v1h-1zM40 48h1v1h-1zM41 48h1v1h-1zM42 48h1v1h-1zM43 48h1v1h-1zM44 48h1v1h-1zM45 48h1v1h-1zM46 48h1v1h-1z"/><path fill="#D4D0A5" d="M47 48h1v1h-1z"/><path fill="#C2C4A1" d="M48 48h1v1h-1z"/><path fill="#BEC1A0" d="M49 48h1v1h-1zM50 48h1v1h-1zM51 48h1v1h-1z"/><path fill="#B4B697" d="M52 48h1v1h-1z"/><path fill="#362D26" d="M53 48h1v1h-1z"/><path fill="#231815" d="M54 48h1v1h-1zM55 48h1v1h-1zM56 48h1v1h-1zM57 48h1v1h-1zM21 49h1v1h-1zM22 49h1v1h-1zM23 49h1v1h-1zM24 49h1v1h-1zM25 49h1v1h-1z"/><path fill="#5D5749" d="M26 49h1v1h-1z"/><path fill="#C2C4A1" d="M27 49h1v1h-1z"/><path fill="#D4D0A5" d="M28 49h1v1h-1z"/><path fill="#D5D1A5" d="M29 49h1v1h-1z"/><path fill="#DAD9B3" d="M30 49h1v1h-1z"/><path fill="#E1E7CA" d="M31 49h1v1h-1zM32 49h1v1h-1zM33 49h1v1h-1zM34 49h1v1h-1zM35 49h1v1h-1zM36 49h1v1h-1z"/><path fill="#DAD9B3" d="M37 49h1v1h-1z"/><path fill="#D5D1A5" d="M38 49h1v1h-1zM39 49h1v1h-1zM40 49h1v1h-1zM41 49h1v1h-1zM42 49h1v1h-1zM43 49h1v1h-1zM44 49h1v1h-1zM45 49h1v1h-1z"/><path fill="#D4D0A5" d="M46 49h1v1h-1z"/><path fill="#C2C4A1" d="M47 49h1v1h-1z"/><path fill="#BEC1A0" d="M48 49h1v1h-1zM49 49h1v1h-1zM50 49h1v1h-1z"/><path fill="#B4B697" d="M51 49h1v1h-1z"/><path fill="#40382F" d="M52 49h1v1h-1z"/><path fill="#231815" d="M53 49h1v1h-1zM54 49h1v1h-1zM55 49h1v1h-1zM56 49h1v1h-1zM20 50h1v1h-1zM21 50h1v1h-1zM22 50h1v1h-1zM23 50h1v1h-1zM24 50h1v1h-1z"/><path fill="#5D5749" d="M25 50h1v1h-1z"/><path fill="#C2C4A1" d="M26 50h1v1h-1z"/><path fill="#D4D0A5" d="M27 50h1v1h-1z"/><path fill="#D5D1A5" d="M28 50h1v1h-1z"/><path fill="#DAD9B3" d="M29 50h1v1h-1z"/><path fill="#E1E7CA" d="M30 50h1v1h-1zM31 50h1v1h-1zM32 50h1v1h-1zM33 50h1v1h-1zM34 50h1v1h-1zM35 50h1v1h-1z"/><path fill="#DAD9B3" d="M36 50h1v1h-1z"/><path fill="#D5D1A5" d="M37 50h1v1h-1zM38 50h1v1h-1zM39 50h1v1h-1zM40 50h1v1h-1zM41 50h1v1h-1zM42 50h1v1h-1zM43 50h1v1h-1zM44 50h1v1h-1z"/><path fill="#D4D0A5" d="M45 50h1v1h-1z"/><path fill="#C2C4A1" d="M46 50h1v1h-1z"/><path fill="#BEC1A0" d="M47 50h1v1h-1zM48 50h1v1h-1zM49 50h1v1h-1z"/><path fill="#B4B697" d="M50 50h1v1h-1z"/><path fill="#40382F" d="M51 50h1v1h-1z"/><path fill="#231815" d="M52 50h1v1h-1zM53 50h1v1h-1zM54 50h1v1h-1zM55 50h1v1h-1zM19 51h1v1h-1zM20 51h1v1h-1zM21 51h1v1h-1zM22 51h1v1h-1zM23 51h1v1h-1z"/><path fill="#5D5749" d="M24 51h1v1h-1z"/><path fill="#C2C4A1" d="M25 51h1v1h-1z"/><path fill="#D4D0A5" d="M26 51h1v1h-1z"/><path fill="#D5D1A5" d="M27 51h1v1h-1z"/><path fill="#DAD9B3" d="M28 51h1v1h-1z"/><path fill="#E1E7CA" d="M29 51h1v1h-1zM30 51h1v1h-1zM31 51h1v1h-1zM32 51h1v1h-1zM33 51h1v1h-1zM34 51h1v1h-1z"/><path fill="#DAD9B3" d="M35 51h1v1h-1z"/><path fill="#D5D1A5" d="M36 51h1v1h-1zM37 51h1v1h-1zM38 51h1v1h-1zM39 51h1v1h-1zM40 51h1v1h-1zM41 51h1v1h-1zM42 51h1v1h-1zM43 51h1v1h-1zM44 51h1v1h-1z"/><path fill="#C4C5A1" d="M45 51h1v1h-1z"/><path fill="#BEC1A0" d="M46 51h1v1h-1zM47 51h1v1h-1zM48 51h1v1h-1z"/><path fill="#B4B697" d="M49 51h1v1h-1z"/><path fill="#40382F" d="M50 51h1v1h-1z"/><path fill="#231815" d="M51 51h1v1h-1zM52 51h1v1h-1zM53 51h1v1h-1zM54 51h1v1h-1zM55 51h1v1h-1zM18 52h1v1h-1zM19 52h1v1h-1zM20 52h1v1h-1zM21 52h1v1h-1zM22 52h1v1h-1z"/><path fill="#5D5749" d="M23 52h1v1h-1z"/><path fill="#C2C4A1" d="M24 52h1v1h-1z"/><path fill="#D4D0A5" d="M25 52h1v1h-1z"/><path fill="#D5D1A5" d="M26 52h1v1h-1z"/><path fill="#DAD9B3" d="M27 52h1v1h-1z"/><path fill="#E1E7CA" d="M28 52h1v1h-1zM29 52h1v1h-1zM30 52h1v1h-1zM31 52h1v1h-1zM32 52h1v1h-1zM33 52h1v1h-1z"/><path fill="#DAD9B3" d="M34 52h1v1h-1z"/><path fill="#D5D1A5" d="M35 52h1v1h-1zM36 52h1v1h-1zM37 52h1v1h-1zM38 52h1v1h-1zM39 52h1v1h-1zM40 52h1v1h-1zM41 52h1v1h-1zM42 52h1v1h-1zM43 52h1v1h-1z"/><path fill="#C7C7A2" d="M44 52h1v1h-1z"/><path fill="#BEC1A0" d="M45 52h1v1h-1zM46 52h1v1h-1zM47 52h1v1h-1zM48 52h1v1h-1z"/><path fill="#4A4238" d="M49 52h1v1h-1z"/><path fill="#231815" d="M50 52h1v1h-1zM51 52h1v1h-1zM52 52h1v1h-1zM53 52h1v1h-1zM54 52h1v1h-1zM13 53h1v1h-1zM14 53h1v1h-1zM15 53h1v1h-1zM16 53h1v1h-1zM17 53h1v1h-1zM18 53h1v1h-1zM19 53h1v1h-1zM20 53h1v1h-1zM21 53h1v1h-1z"/><path fill="#716D5B" d="M22 53h1v1h-1z"/><path fill="#C2C4A1" d="M23 53h1v1h-1z"/><path fill="#D4D0A5" d="M24 53h1v1h-1z"/><path fill="#D5D1A5" d="M25 53h1v1h-1z"/><path fill="#DADBB5" d="M26 53h1v1h-1z"/><path fill="#E1E7CA" d="M27 53h1v1h-1zM28 53h1v1h-1zM29 53h1v1h-1zM30 53h1v1h-1zM31 53h1v1h-1zM32 53h1v1h-1z"/><path fill="#DAD9B3" d="M33 53h1v1h-1z"/><path fill="#D5D1A5" d="M34 53h1v1h-1zM35 53h1v1h-1zM36 53h1v1h-1zM37 53h1v1h-1zM38 53h1v1h-1zM39 53h1v1h-1zM40 53h1v1h-1zM41 53h1v1h-1zM42 53h1v1h-1z"/><path fill="#C7C7A2" d="M43 53h1v1h-1z"/><path fill="#BEC1A0" d="M44 53h1v1h-1zM45 53h1v1h-1zM46 53h1v1h-1zM47 53h1v1h-1z"/><path fill="#5D5749" d="M48 53h1v1h-1z"/><path fill="#231815" d="M49 53h1v1h-1zM50 53h1v1h-1zM51 53h1v1h-1zM52 53h1v1h-1zM53 53h1v1h-1zM7 54h1v1H7zM8 54h1v1H8zM9 54h1v1H9zM10 54h1v1h-1zM11 54h1v1h-1zM12 54h1v1h-1zM13 54h1v1h-1zM14 54h1v1h-1zM15 54h1v1h-1zM16 54h1v1h-1zM17 54h1v1h-1zM18 54h1v1h-1zM19 54h1v1h-1zM20 54h1v1h-1z"/><path fill="#84826C" d="M21 54h1v1h-1z"/><path fill="#C2C4A1" d="M22 54h1v1h-1z"/><path fill="#D4D0A5" d="M23 54h1v1h-1z"/><path fill="#D5D1A5" d="M24 54h1v1h-1z"/><path fill="#DDDFBC" d="M25 54h1v1h-1z"/><path fill="#E1E7CA" d="M26 54h1v1h-1zM27 54h1v1h-1zM28 54h1v1h-1zM29 54h1v1h-1zM30 54h1v1h-1zM31 54h1v1h-1z"/><path fill="#DAD9B3" d="M32 54h1v1h-1z"/><path fill="#D5D1A5" d="M33 54h1v1h-1zM34 54h1v1h-1zM35 54h1v1h-1zM36 54h1v1h-1zM37 54h1v1h-1zM38 54h1v1h-1zM39 54h1v1h-1zM40 54h1v1h-1zM41 54h1v1h-1z"/><path fill="#C7C7A2" d="M42 54h1v1h-1z"/><path fill="#BEC1A0" d="M43 54h1v1h-1zM44 54h1v1h-1zM45 54h1v1h-1zM46 54h1v1h-1z"/><path fill="#5D5749" d="M47 54h1v1h-1z"/><path fill="#231815" d="M48 54h1v1h-1zM49 54h1v1h-1zM50 54h1v1h-1zM51 54h1v1h-1zM52 54h1v1h-1zM5 55h1v1H5zM6 55h1v1H6zM7 55h1v1H7zM8 55h1v1H8zM9 55h1v1H9zM10 55h1v1h-1zM11 55h1v1h-1zM12 55h1v1h-1zM13 55h1v1h-1zM14 55h1v1h-1zM15 55h1v1h-1zM16 55h1v1h-1zM17 55h1v1h-1zM18 55h1v1h-1zM19 55h1v1h-1z"/><path fill="#84826C" d="M20 55h1v1h-1z"/><path fill="#BFC2A0" d="M21 55h1v1h-1z"/><path fill="#D4D0A5" d="M22 55h1v1h-1z"/><path fill="#D5D1A5" d="M23 55h1v1h-1z"/><path fill="#DDDFBC" d="M24 55h1v1h-1z"/><path fill="#E1E7CA" d="M25 55h1v1h-1zM26 55h1v1h-1zM27 55h1v1h-1zM28 55h1v1h-1zM29 55h1v1h-1zM30 55h1v1h-1z"/><path fill="#DAD9B3" d="M31 55h1v1h-1z"/><path fill="#D5D1A5" d="M32 55h1v1h-1zM33 55h1v1h-1zM34 55h1v1h-1zM35 55h1v1h-1zM36 55h1v1h-1zM37 55h1v1h-1zM38 55h1v1h-1zM39 55h1v1h-1zM40 55h1v1h-1z"/><path fill="#C8C8A2" d="M41 55h1v1h-1z"/><path fill="#BEC1A0" d="M42 55h1v1h-1zM43 55h1v1h-1zM44 55h1v1h-1zM45 55h1v1h-1z"/><path fill="#5D5749" d="M46 55h1v1h-1z"/><path fill="#231815" d="M47 55h1v1h-1zM48 55h1v1h-1zM49 55h1v1h-1zM50 55h1v1h-1zM51 55h1v1h-1zM3 56h1v1H3zM4 56h1v1H4zM5 56h1v1H5zM6 56h1v1H6zM7 56h1v1H7zM8 56h1v1H8zM9 56h1v1H9zM10 56h1v1h-1zM11 56h1v1h-1zM12 56h1v1h-1zM13 56h1v1h-1zM14 56h1v1h-1zM15 56h1v1h-1zM16 56h1v1h-1zM17 56h1v1h-1zM18 56h1v1h-1z"/><path fill="#84826C" d="M19 56h1v1h-1z"/><path fill="#BFC2A0" d="M20 56h1v1h-1z"/><path fill="#D1CEA4" d="M21 56h1v1h-1z"/><path fill="#D5D1A5" d="M22 56h1v1h-1z"/><path fill="#DDDFBC" d="M23 56h1v1h-1z"/><path fill="#E1E7CA" d="M24 56h1v1h-1zM25 56h1v1h-1zM26 56h1v1h-1zM27 56h1v1h-1zM28 56h1v1h-1zM29 56h1v1h-1z"/><path fill="#DDDFBC" d="M30 56h1v1h-1z"/><path fill="#D5D1A5" d="M31 56h1v1h-1zM32 56h1v1h-1zM33 56h1v1h-1zM34 56h1v1h-1zM35 56h1v1h-1zM36 56h1v1h-1zM37 56h1v1h-1zM38 56h1v1h-1zM39 56h1v1h-1z"/><path fill="#CCCBA3" d="M40 56h1v1h-1z"/><path fill="#BEC1A0" d="M41 56h1v1h-1zM42 56h1v1h-1zM43 56h1v1h-1zM44 56h1v1h-1z"/><path fill="#5D5749" d="M45 56h1v1h-1z"/><path fill="#231815" d="M46 56h1v1h-1zM47 56h1v1h-1zM48 56h1v1h-1zM49 56h1v1h-1zM50 56h1v1h-1zM2 57h1v1H2zM3 57h1v1H3zM4 57h1v1H4zM5 57h1v1H5zM6 57h1v1H6zM7 57h1v1H7zM8 57h1v1H8z"/><path fill="#40382F" d="M9 57h1v1H9z"/><path fill="#676252" d="M10 57h1v1h-1z"/><path fill="#84826C" d="M11 57h1v1h-1z"/><path fill="#97977D" d="M12 57h1v1h-1z"/><path fill="#A1A186" d="M13 57h1v1h-1z"/><path fill="#BEC1A0" d="M14 57h1v1h-1zM15 57h1v1h-1zM16 57h1v1h-1zM17 57h1v1h-1zM18 57h1v1h-1z"/><path fill="#BFC2A0" d="M19 57h1v1h-1z"/><path fill="#D1CEA4" d="M20 57h1v1h-1z"/><path fill="#D5D1A5" d="M21 57h1v1h-1z"/><path fill="#DDDFBC" d="M22 57h1v1h-1z"/><path fill="#E1E7CA" d="M23 57h1v1h-1zM24 57h1v1h-1zM25 57h1v1h-1zM26 57h1v1h-1zM27 57h1v1h-1zM28 57h1v1h-1z"/><path fill="#DDDFBC" d="M29 57h1v1h-1z"/><path fill="#D5D1A5" d="M30 57h1v1h-1zM31 57h1v1h-1zM32 57h1v1h-1zM33 57h1v1h-1zM34 57h1v1h-1zM35 57h1v1h-1zM36 57h1v1h-1zM37 57h1v1h-1zM38 57h1v1h-1z"/><path fill="#CCCBA3" d="M39 57h1v1h-1z"/><path fill="#BEC1A0" d="M40 57h1v1h-1zM41 57h1v1h-1zM42 57h1v1h-1zM43 57h1v1h-1z"/><path fill="#84826C" d="M44 57h1v1h-1z"/><path fill="#231815" d="M45 57h1v1h-1zM46 57h1v1h-1zM47 57h1v1h-1zM48 57h1v1h-1zM49 57h1v1h-1zM2 58h1v1H2zM3 58h1v1H3zM4 58h1v1H4zM5 58h1v1H5z"/><path fill="#2D231E" d="M6 58h1v1H6z"/><path fill="#676252" d="M7 58h1v1H7z"/><path fill="#ABAC8F" d="M8 58h1v1H8z"/><path fill="#BEC1A0" d="M9 58h1v1H9zM10 58h1v1h-1zM11 58h1v1h-1zM12 58h1v1h-1zM13 58h1v1h-1zM14 58h1v1h-1zM15 58h1v1h-1zM16 58h1v1h-1zM17 58h1v1h-1z"/><path fill="#BFC2A0" d="M18 58h1v1h-1z"/><path fill="#D1CEA4" d="M19 58h1v1h-1z"/><path fill="#D5D1A5" d="M20 58h1v1h-1z"/><path fill="#DDDFBC" d="M21 58h1v1h-1z"/><path fill="#E1E7CA" d="M22 58h1v1h-1zM23 58h1v1h-1zM24 58h1v1h-1zM25 58h1v1h-1zM26 58h1v1h-1zM27 58h1v1h-1z"/><path fill="#DDDFBC" d="M28 58h1v1h-1z"/><path fill="#D5D1A5" d="M29 58h1v1h-1zM30 58h1v1h-1zM31 58h1v1h-1zM32 58h1v1h-1zM33 58h1v1h-1zM34 58h1v1h-1zM35 58h1v1h-1zM36 58h1v1h-1zM37 58h1v1h-1z"/><path fill="#CCCBA3" d="M38 58h1v1h-1z"/><path fill="#BEC1A0" d="M39 58h1v1h-1zM40 58h1v1h-1zM41 58h1v1h-1zM42 58h1v1h-1z"/><path fill="#84826C" d="M43 58h1v1h-1z"/><path fill="#231815" d="M44 58h1v1h-1zM45 58h1v1h-1zM46 58h1v1h-1zM47 58h1v1h-1zM48 58h1v1h-1zM1 59h1v1H1zM2 59h1v1H2zM3 59h1v1H3zM4 59h1v1H4z"/><path fill="#433A30" d="M5 59h1v1H5z"/><path fill="#B6B491" d="M6 59h1v1H6z"/><path fill="#C5C6A2" d="M7 59h1v1H7z"/><path fill="#BEC1A0" d="M8 59h1v1H8zM9 59h1v1H9zM10 59h1v1h-1zM11 59h1v1h-1zM12 59h1v1h-1zM13 59h1v1h-1zM14 59h1v1h-1zM15 59h1v1h-1zM16 59h1v1h-1z"/><path fill="#C2C4A1" d="M17 59h1v1h-1z"/><path fill="#D4D0A5" d="M18 59h1v1h-1z"/><path fill="#D5D1A5" d="M19 59h1v1h-1z"/><path fill="#DDDFBC" d="M20 59h1v1h-1z"/><path fill="#E1E7CA" d="M21 59h1v1h-1zM22 59h1v1h-1zM23 59h1v1h-1zM24 59h1v1h-1zM25 59h1v1h-1zM26 59h1v1h-1z"/><path fill="#DDDFBC" d="M27 59h1v1h-1z"/><path fill="#D5D1A5" d="M28 59h1v1h-1zM29 59h1v1h-1zM30 59h1v1h-1zM31 59h1v1h-1zM32 59h1v1h-1zM33 59h1v1h-1zM34 59h1v1h-1zM35 59h1v1h-1zM36 59h1v1h-1z"/><path fill="#CCCBA3" d="M37 59h1v1h-1z"/><path fill="#BEC1A0" d="M38 59h1v1h-1zM39 59h1v1h-1zM40 59h1v1h-1zM41 59h1v1h-1z"/><path fill="#84826C" d="M42 59h1v1h-1z"/><path fill="#231815" d="M43 59h1v1h-1zM44 59h1v1h-1zM45 59h1v1h-1zM46 59h1v1h-1zM47 59h1v1h-1zM1 60h1v1H1zM2 60h1v1H2zM3 60h1v1H3z"/><path fill="#443B30" d="M4 60h1v1H4z"/><path fill="#CAC59C" d="M5 60h1v1H5z"/><path fill="#D5D1A5" d="M6 60h1v1H6zM7 60h1v1H7z"/><path fill="#C1C3A1" d="M8 60h1v1H8z"/><path fill="#BEC1A0" d="M9 60h1v1H9z"/><path fill="#C2C6A5" d="M10 60h1v1h-1z"/><path fill="#C7CBAB" d="M11 60h1v1h-1zM12 60h1v1h-1z"/><path fill="#C2C6A5" d="M13 60h1v1h-1z"/><path fill="#BEC1A0" d="M14 60h1v1h-1zM15 60h1v1h-1z"/><path fill="#C7C7A2" d="M16 60h1v1h-1z"/><path fill="#D4D0A5" d="M17 60h1v1h-1z"/><path fill="#D5D1A5" d="M18 60h1v1h-1z"/><path fill="#D8D7AE" d="M19 60h1v1h-1z"/><path fill="#E1E7CA" d="M20 60h1v1h-1zM21 60h1v1h-1zM22 60h1v1h-1zM23 60h1v1h-1zM24 60h1v1h-1zM25 60h1v1h-1z"/><path fill="#DDDFBC" d="M26 60h1v1h-1z"/><path fill="#D5D1A5" d="M27 60h1v1h-1zM28 60h1v1h-1zM29 60h1v1h-1zM30 60h1v1h-1zM31 60h1v1h-1zM32 60h1v1h-1zM33 60h1v1h-1zM34 60h1v1h-1zM35 60h1v1h-1z"/><path fill="#D1CEA4" d="M36 60h1v1h-1z"/><path fill="#BFC2A0" d="M37 60h1v1h-1z"/><path fill="#BEC1A0" d="M38 60h1v1h-1zM39 60h1v1h-1zM40 60h1v1h-1z"/><path fill="#84826C" d="M41 60h1v1h-1z"/><path fill="#231815" d="M42 60h1v1h-1zM43 60h1v1h-1zM44 60h1v1h-1zM45 60h1v1h-1zM46 60h1v1h-1zM0 61h1v1H0zM1 61h1v1H1zM2 61h1v1H2zM3 61h1v1H3z"/><path fill="#A9A381" d="M4 61h1v1H4z"/><path fill="#D5D1A5" d="M5 61h1v1H5z"/><path fill="#D8D7AE" d="M6 61h1v1H6z"/><path fill="#DDDFBC" d="M7 61h1v1H7z"/><path fill="#DDE2C3" d="M8 61h1v1H8z"/><path fill="#E1E7CA" d="M9 61h1v1H9zM10 61h1v1h-1zM11 61h1v1h-1zM12 61h1v1h-1zM13 61h1v1h-1zM14 61h1v1h-1z"/><path fill="#D9DDBE" d="M15 61h1v1h-1z"/><path fill="#D9D8B1" d="M16 61h1v1h-1z"/><path fill="#D5D1A5" d="M17 61h1v1h-1zM18 61h1v1h-1zM19 61h1v1h-1z"/><path fill="#DAD9B3" d="M20 61h1v1h-1z"/><path fill="#CFD3B6" d="M21 61h1v1h-1z"/><path fill="#DEE2C1" d="M22 61h1v1h-1zM23 61h1v1h-1zM24 61h1v1h-1z"/><path fill="#DBDCB8" d="M25 61h1v1h-1z"/><path fill="#D5D1A5" d="M26 61h1v1h-1zM27 61h1v1h-1zM28 61h1v1h-1zM29 61h1v1h-1zM30 61h1v1h-1zM31 61h1v1h-1zM32 61h1v1h-1zM33 61h1v1h-1zM34 61h1v1h-1z"/><path fill="#D1CEA4" d="M35 61h1v1h-1z"/><path fill="#BFC2A0" d="M36 61h1v1h-1z"/><path fill="#BEC1A0" d="M37 61h1v1h-1zM38 61h1v1h-1zM39 61h1v1h-1z"/><path fill="#97977D" d="M40 61h1v1h-1z"/><path fill="#231815" d="M41 61h1v1h-1zM42 61h1v1h-1zM43 61h1v1h-1zM44 61h1v1h-1zM45 61h1v1h-1zM0 62h1v1H0zM1 62h1v1H1zM2 62h1v1H2z"/><path fill="#443B30" d="M3 62h1v1H3z"/><path fill="#D6D2A7" d="M4 62h1v1H4z"/><path fill="#DEE2C1" d="M5 62h1v1H5z"/><path fill="#E1E7CA" d="M6 62h1v1H6zM7 62h1v1H7zM8 62h1v1H8zM9 62h1v1H9zM10 62h1v1h-1zM11 62h1v1h-1zM12 62h1v1h-1zM13 62h1v1h-1zM14 62h1v1h-1zM15 62h1v1h-1zM16 62h1v1h-1z"/><path fill="#DDDFBC" d="M17 62h1v1h-1z"/><path fill="#D1CEA3" d="M18 62h1v1h-1z"/><path fill="#AAAA8C" d="M19 62h1v1h-1z"/><path fill="#9C9D83" d="M20 62h1v1h-1zM21 62h1v1h-1zM22 62h1v1h-1z"/><path fill="#B1B190" d="M23 62h1v1h-1z"/><path fill="#D1CEA3" d="M24 62h1v1h-1z"/><path fill="#D5D1A5" d="M25 62h1v1h-1zM26 62h1v1h-1zM27 62h1v1h-1zM28 62h1v1h-1zM29 62h1v1h-1zM30 62h1v1h-1zM31 62h1v1h-1zM32 62h1v1h-1zM33 62h1v1h-1z"/><path fill="#D1CEA4" d="M34 62h1v1h-1z"/><path fill="#BFC2A0" d="M35 62h1v1h-1z"/><path fill="#BEC1A0" d="M36 62h1v1h-1zM37 62h1v1h-1zM38 62h1v1h-1z"/><path fill="#A1A186" d="M39 62h1v1h-1z"/><path fill="#2D231E" d="M40 62h1v1h-1z"/><path fill="#231815" d="M41 62h1v1h-1zM42 62h1v1h-1zM43 62h1v1h-1zM44 62h1v1h-1zM0 63h1v1H0zM1 63h1v1H1zM2 63h1v1H2z"/><path fill="#716954" d="M3 63h1v1H3z"/><path fill="#DEE2C1" d="M4 63h1v1H4z"/><path fill="#E1E7CA" d="M5 63h1v1H5zM6 63h1v1H6zM7 63h1v1H7zM8 63h1v1H8zM9 63h1v1H9zM10 63h1v1h-1zM11 63h1v1h-1zM12 63h1v1h-1zM13 63h1v1h-1zM14 63h1v1h-1zM15 63h1v1h-1zM16 63h1v1h-1zM17 63h1v1h-1z"/><path fill="#C2C5A9" d="M18 63h1v1h-1z"/><path fill="#9C9D83" d="M19 63h1v1h-1zM20 63h1v1h-1zM21 63h1v1h-1zM22 63h1v1h-1zM23 63h1v1h-1z"/><path fill="#AAAA8C" d="M24 63h1v1h-1z"/><path fill="#D5D1A5" d="M25 63h1v1h-1zM26 63h1v1h-1zM27 63h1v1h-1zM28 63h1v1h-1zM29 63h1v1h-1zM30 63h1v1h-1zM31 63h1v1h-1zM32 63h1v1h-1z"/><path fill="#D1CEA4" d="M33 63h1v1h-1z"/><path fill="#BFC2A0" d="M34 63h1v1h-1z"/><path fill="#BEC1A0" d="M35 63h1v1h-1zM36 63h1v1h-1zM37 63h1v1h-1z"/><path fill="#A1A186" d="M38 63h1v1h-1z"/><path fill="#2D231E" d="M39 63h1v1h-1z"/><path fill="#231815" d="M40 63h1v1h-1zM41 63h1v1h-1zM42 63h1v1h-1zM43 63h1v1h-1zM0 64h1v1H0zM1 64h1v1H1zM2 64h1v1H2z"/><path fill="#8F8A6E" d="M3 64h1v1H3z"/><path fill="#E1E7CA" d="M4 64h1v1H4zM5 64h1v1H5zM6 64h1v1H6zM7 64h1v1H7zM8 64h1v1H8zM9 64h1v1H9zM10 64h1v1h-1zM11 64h1v1h-1zM12 64h1v1h-1zM13 64h1v1h-1zM14 64h1v1h-1zM15 64h1v1h-1zM16 64h1v1h-1zM17 64h1v1h-1z"/><path fill="#D8DEC1" d="M18 64h1v1h-1z"/><path fill="#A0A287" d="M19 64h1v1h-1z"/><path fill="#9C9D83" d="M20 64h1v1h-1zM21 64h1v1h-1zM22 64h1v1h-1zM23 64h1v1h-1zM24 64h1v1h-1z"/><path fill="#D5D1A5" d="M25 64h1v1h-1zM26 64h1v1h-1zM27 64h1v1h-1zM28 64h1v1h-1zM29 64h1v1h-1zM30 64h1v1h-1zM31 64h1v1h-1z"/><path fill="#D4D0A5" d="M32 64h1v1h-1z"/><path fill="#C2C4A1" d="M33 64h1v1h-1z"/><path fill="#BEC1A0" d="M34 64h1v1h-1zM35 64h1v1h-1zM36 64h1v1h-1z"/><path fill="#A1A186" d="M37 64h1v1h-1z"/><path fill="#2D231E" d="M38 64h1v1h-1z"/><path fill="#231815" d="M39 64h1v1h-1zM40 64h1v1h-1zM41 64h1v1h-1zM42 64h1v1h-1zM0 65h1v1H0zM1 65h1v1H1zM2 65h1v1H2z"/><path fill="#A5A387" d="M3 65h1v1H3z"/><path fill="#E1E7CA" d="M4 65h1v1H4zM5 65h1v1H5zM6 65h1v1H6zM7 65h1v1H7zM8 65h1v1H8zM9 65h1v1H9zM10 65h1v1h-1zM11 65h1v1h-1zM12 65h1v1h-1zM13 65h1v1h-1zM14 65h1v1h-1zM15 65h1v1h-1zM16 65h1v1h-1zM17 65h1v1h-1zM18 65h1v1h-1z"/><path fill="#C7CBAF" d="M19 65h1v1h-1z"/><path fill="#9C9D83" d="M20 65h1v1h-1zM21 65h1v1h-1zM22 65h1v1h-1zM23 65h1v1h-1z"/><path fill="#A3A487" d="M24 65h1v1h-1z"/><path fill="#D5D1A5" d="M25 65h1v1h-1zM26 65h1v1h-1zM27 65h1v1h-1zM28 65h1v1h-1zM29 65h1v1h-1zM30 65h1v1h-1z"/><path fill="#D4D0A5" d="M31 65h1v1h-1z"/><path fill="#C2C4A1" d="M32 65h1v1h-1z"/><path fill="#BEC1A0" d="M33 65h1v1h-1zM34 65h1v1h-1zM35 65h1v1h-1z"/><path fill="#ABAC8F" d="M36 65h1v1h-1z"/><path fill="#2D231E" d="M37 65h1v1h-1z"/><path fill="#231815" d="M38 65h1v1h-1zM39 65h1v1h-1zM40 65h1v1h-1zM41 65h1v1h-1zM0 66h1v1H0zM1 66h1v1H1zM2 66h1v1H2z"/><path fill="#A6A489" d="M3 66h1v1H3z"/><path fill="#E1E7CA" d="M4 66h1v1H4zM5 66h1v1H5zM6 66h1v1H6zM7 66h1v1H7zM8 66h1v1H8zM9 66h1v1H9zM10 66h1v1h-1zM11 66h1v1h-1zM12 66h1v1h-1zM13 66h1v1h-1zM14 66h1v1h-1zM15 66h1v1h-1zM16 66h1v1h-1zM17 66h1v1h-1zM18 66h1v1h-1zM19 66h1v1h-1z"/><path fill="#A5A68C" d="M20 66h1v1h-1z"/><path fill="#9C9D83" d="M21 66h1v1h-1zM22 66h1v1h-1z"/><path fill="#A3A487" d="M23 66h1v1h-1z"/><path fill="#CAC79F" d="M24 66h1v1h-1z"/><path fill="#D5D1A5" d="M25 66h1v1h-1zM26 66h1v1h-1zM27 66h1v1h-1zM28 66h1v1h-1zM29 66h1v1h-1z"/><path fill="#D4D0A5" d="M30 66h1v1h-1z"/><path fill="#C2C4A1" d="M31 66h1v1h-1z"/><path fill="#BEC1A0" d="M32 66h1v1h-1zM33 66h1v1h-1zM34 66h1v1h-1z"/><path fill="#B4B697" d="M35 66h1v1h-1z"/><path fill="#40382F" d="M36 66h1v1h-1z"/><path fill="#231815" d="M37 66h1v1h-1zM38 66h1v1h-1zM39 66h1v1h-1zM40 66h1v1h-1zM0 67h1v1H0zM1 67h1v1H1zM2 67h1v1H2z"/><path fill="#A4A284" d="M3 67h1v1H3z"/><path fill="#E1E7CA" d="M4 67h1v1H4zM5 67h1v1H5zM6 67h1v1H6zM7 67h1v1H7zM8 67h1v1H8zM9 67h1v1H9zM10 67h1v1h-1z"/><path fill="#DDE0BE" d="M11 67h1v1h-1z"/><path fill="#D8D7AE" d="M12 67h1v1h-1z"/><path fill="#DDE0BE" d="M13 67h1v1h-1z"/><path fill="#E1E7CA" d="M14 67h1v1h-1zM15 67h1v1h-1zM16 67h1v1h-1zM17 67h1v1h-1zM18 67h1v1h-1zM19 67h1v1h-1z"/><path fill="#D0D2B1" d="M20 67h1v1h-1z"/><path fill="#C7C49D" d="M21 67h1v1h-1zM22 67h1v1h-1z"/><path fill="#D5D1A5" d="M23 67h1v1h-1zM24 67h1v1h-1zM25 67h1v1h-1zM26 67h1v1h-1zM27 67h1v1h-1zM28 67h1v1h-1z"/><path fill="#D4D0A5" d="M29 67h1v1h-1z"/><path fill="#C2C4A1" d="M30 67h1v1h-1z"/><path fill="#BEC1A0" d="M31 67h1v1h-1zM32 67h1v1h-1zM33 67h1v1h-1z"/><path fill="#B4B697" d="M34 67h1v1h-1z"/><path fill="#40382F" d="M35 67h1v1h-1z"/><path fill="#231815" d="M36 67h1v1h-1zM37 67h1v1h-1zM38 67h1v1h-1zM39 67h1v1h-1zM0 68h1v1H0zM1 68h1v1H1zM2 68h1v1H2z"/><path fill="#A39F80" d="M3 68h1v1H3z"/><path fill="#E1E7CA" d="M4 68h1v1H4zM5 68h1v1H5zM6 68h1v1H6zM7 68h1v1H7zM8 68h1v1H8zM9 68h1v1H9z"/><path fill="#DDDFBC" d="M10 68h1v1h-1z"/><path fill="#D5D1A5" d="M11 68h1v1h-1zM12 68h1v1h-1zM13 68h1v1h-1z"/><path fill="#E0E4C5" d="M14 68h1v1h-1z"/><path fill="#E1E7CA" d="M15 68h1v1h-1zM16 68h1v1h-1zM17 68h1v1h-1zM18 68h1v1h-1zM19 68h1v1h-1z"/><path fill="#E0E4C5" d="M20 68h1v1h-1z"/><path fill="#D5D1A5" d="M21 68h1v1h-1zM22 68h1v1h-1zM23 68h1v1h-1zM24 68h1v1h-1zM25 68h1v1h-1zM26 68h1v1h-1zM27 68h1v1h-1zM28 68h1v1h-1z"/><path fill="#CECCA3" d="M29 68h1v1h-1z"/><path fill="#BEC1A0" d="M30 68h1v1h-1zM31 68h1v1h-1zM32 68h1v1h-1z"/><path fill="#B4B697" d="M33 68h1v1h-1z"/><path fill="#40382F" d="M34 68h1v1h-1z"/><path fill="#231815" d="M35 68h1v1h-1zM36 68h1v1h-1zM37 68h1v1h-1zM38 68h1v1h-1zM0 69h1v1H0zM1 69h1v1H1zM2 69h1v1H2z"/><path fill="#7B745D" d="M3 69h1v1H3z"/><path fill="#E1E7CA" d="M4 69h1v1H4zM5 69h1v1H5zM6 69h1v1H6zM7 69h1v1H7zM8 69h1v1H8z"/><path fill="#DDDFBC" d="M9 69h1v1H9z"/><path fill="#D5D1A5" d="M10 69h1v1h-1zM11 69h1v1h-1zM12 69h1v1h-1zM13 69h1v1h-1z"/><path fill="#DADBB5" d="M14 69h1v1h-1z"/><path fill="#E1E7CA" d="M15 69h1v1h-1zM16 69h1v1h-1zM17 69h1v1h-1zM18 69h1v1h-1zM19 69h1v1h-1zM20 69h1v1h-1z"/><path fill="#D7D4AA" d="M21 69h1v1h-1z"/><path fill="#D5D1A5" d="M22 69h1v1h-1zM23 69h1v1h-1zM24 69h1v1h-1zM25 69h1v1h-1zM26 69h1v1h-1zM27 69h1v1h-1zM28 69h1v1h-1z"/><path fill="#CFCDA4" d="M29 69h1v1h-1z"/><path fill="#BEC1A0" d="M30 69h1v1h-1zM31 69h1v1h-1z"/><path fill="#B4B697" d="M32 69h1v1h-1z"/><path fill="#40382F" d="M33 69h1v1h-1z"/><path fill="#231815" d="M34 69h1v1h-1zM35 69h1v1h-1zM36 69h1v1h-1zM37 69h1v1h-1zM38 69h1v1h-1zM0 70h1v1H0zM1 70h1v1H1zM2 70h1v1H2z"/><path fill="#6D6653" d="M3 70h1v1H3z"/><path fill="#DDE0BE" d="M4 70h1v1H4z"/><path fill="#E1E7CA" d="M5 70h1v1H5zM6 70h1v1H6zM7 70h1v1H7z"/><path fill="#DDDFBC" d="M8 70h1v1H8z"/><path fill="#D5D1A5" d="M9 70h1v1H9zM10 70h1v1h-1zM11 70h1v1h-1zM12 70h1v1h-1zM13 70h1v1h-1z"/><path fill="#D8D7AE" d="M14 70h1v1h-1z"/><path fill="#E1E7CA" d="M15 70h1v1h-1zM16 70h1v1h-1zM17 70h1v1h-1zM18 70h1v1h-1zM19 70h1v1h-1zM20 70h1v1h-1z"/><path fill="#DAD9B3" d="M21 70h1v1h-1z"/><path fill="#D5D1A5" d="M22 70h1v1h-1zM23 70h1v1h-1zM24 70h1v1h-1zM25 70h1v1h-1zM26 70h1v1h-1zM27 70h1v1h-1zM28 70h1v1h-1z"/><path fill="#D4D0A5" d="M29 70h1v1h-1z"/><path fill="#BEC1A0" d="M30 70h1v1h-1zM31 70h1v1h-1z"/><path fill="#676252" d="M32 70h1v1h-1z"/><path fill="#231815" d="M33 70h1v1h-1zM34 70h1v1h-1zM35 70h1v1h-1zM36 70h1v1h-1zM37 70h1v1h-1zM0 71h1v1H0zM1 71h1v1H1zM2 71h1v1H2z"/><path fill="#4D4438" d="M3 71h1v1H3z"/><path fill="#D8D7AE" d="M4 71h1v1H4z"/><path fill="#E1E7CA" d="M5 71h1v1H5zM6 71h1v1H6z"/><path fill="#DCDDBA" d="M7 71h1v1H7z"/><path fill="#D5D1A5" d="M8 71h1v1H8zM9 71h1v1H9zM10 71h1v1h-1zM11 71h1v1h-1zM12 71h1v1h-1zM13 71h1v1h-1z"/><path fill="#D6D2A7" d="M14 71h1v1h-1z"/><path fill="#E1E7CA" d="M15 71h1v1h-1zM16 71h1v1h-1zM17 71h1v1h-1zM18 71h1v1h-1zM19 71h1v1h-1zM20 71h1v1h-1z"/><path fill="#DDDFBC" d="M21 71h1v1h-1z"/><path fill="#D5D1A5" d="M22 71h1v1h-1zM23 71h1v1h-1zM24 71h1v1h-1zM25 71h1v1h-1zM26 71h1v1h-1zM27 71h1v1h-1zM28 71h1v1h-1zM29 71h1v1h-1z"/><path fill="#BEC1A0" d="M30 71h1v1h-1zM31 71h1v1h-1z"/><path fill="#4A4238" d="M32 71h1v1h-1z"/><path fill="#231815" d="M33 71h1v1h-1zM34 71h1v1h-1zM35 71h1v1h-1zM36 71h1v1h-1zM0 72h1v1H0zM1 72h1v1H1zM2 72h1v1H2z"/><path fill="#2D231E" d="M3 72h1v1H3z"/><path fill="#C5C6A2" d="M4 72h1v1H4z"/><path fill="#D1D0A8" d="M5 72h1v1H5z"/><path fill="#D7D4AA" d="M6 72h1v1H6z"/><path fill="#D5D1A5" d="M7 72h1v1H7zM8 72h1v1H8zM9 72h1v1H9zM10 72h1v1h-1zM11 72h1v1h-1zM12 72h1v1h-1zM13 72h1v1h-1zM14 72h1v1h-1z"/><path fill="#E0E4C5" d="M15 72h1v1h-1z"/><path fill="#E1E7CA" d="M16 72h1v1h-1zM17 72h1v1h-1zM18 72h1v1h-1zM19 72h1v1h-1zM20 72h1v1h-1z"/><path fill="#DFE3C3" d="M21 72h1v1h-1z"/><path fill="#D5D1A5" d="M22 72h1v1h-1zM23 72h1v1h-1zM24 72h1v1h-1zM25 72h1v1h-1zM26 72h1v1h-1zM27 72h1v1h-1zM28 72h1v1h-1zM29 72h1v1h-1z"/><path fill="#BEC1A0" d="M30 72h1v1h-1zM31 72h1v1h-1z"/><path fill="#534D40" d="M32 72h1v1h-1z"/><path fill="#231815" d="M33 72h1v1h-1zM34 72h1v1h-1zM35 72h1v1h-1zM0 73h1v1H0zM1 73h1v1H1zM2 73h1v1H2zM3 73h1v1H3z"/><path fill="#A1A186" d="M4 73h1v1H4z"/><path fill="#BEC1A0" d="M5 73h1v1H5zM6 73h1v1H6zM7 73h1v1H7zM8 73h1v1H8z"/><path fill="#BFC2A0" d="M9 73h1v1H9z"/><path fill="#C4C5A1" d="M10 73h1v1h-1z"/><path fill="#CAC9A3" d="M11 73h1v1h-1z"/><path fill="#D5D1A5" d="M12 73h1v1h-1zM13 73h1v1h-1zM14 73h1v1h-1z"/><path fill="#DDDFBC" d="M15 73h1v1h-1z"/><path fill="#E1E7CA" d="M16 73h1v1h-1zM17 73h1v1h-1zM18 73h1v1h-1zM19 73h1v1h-1zM20 73h1v1h-1zM21 73h1v1h-1z"/><path fill="#D5D1A5" d="M22 73h1v1h-1zM23 73h1v1h-1zM24 73h1v1h-1zM25 73h1v1h-1zM26 73h1v1h-1zM27 73h1v1h-1zM28 73h1v1h-1zM29 73h1v1h-1z"/><path fill="#BEC1A0" d="M30 73h1v1h-1zM31 73h1v1h-1z"/><path fill="#716D5B" d="M32 73h1v1h-1z"/><path fill="#231815" d="M33 73h1v1h-1zM34 73h1v1h-1zM35 73h1v1h-1zM1 74h1v1H1zM2 74h1v1H2zM3 74h1v1H3z"/><path fill="#40382F" d="M4 74h1v1H4z"/><path fill="#97977D" d="M5 74h1v1H5z"/><path fill="#BEC1A0" d="M6 74h1v1H6zM7 74h1v1H7zM8 74h1v1H8zM9 74h1v1H9zM10 74h1v1h-1zM11 74h1v1h-1z"/><path fill="#CBCAA3" d="M12 74h1v1h-1z"/><path fill="#D5D1A5" d="M13 74h1v1h-1zM14 74h1v1h-1z"/><path fill="#DAD9B3" d="M15 74h1v1h-1z"/><path fill="#E1E7CA" d="M16 74h1v1h-1zM17 74h1v1h-1zM18 74h1v1h-1zM19 74h1v1h-1zM20 74h1v1h-1zM21 74h1v1h-1z"/><path fill="#D7D4AA" d="M22 74h1v1h-1z"/><path fill="#D5D1A5" d="M23 74h1v1h-1zM24 74h1v1h-1zM25 74h1v1h-1zM26 74h1v1h-1zM27 74h1v1h-1zM28 74h1v1h-1zM29 74h1v1h-1z"/><path fill="#BEC1A0" d="M30 74h1v1h-1zM31 74h1v1h-1z"/><path fill="#716D5B" d="M32 74h1v1h-1z"/><path fill="#231815" d="M33 74h1v1h-1zM34 74h1v1h-1zM35 74h1v1h-1zM1 75h1v1H1zM2 75h1v1H2zM3 75h1v1H3zM4 75h1v1H4zM5 75h1v1H5z"/><path fill="#40382F" d="M6 75h1v1H6z"/><path fill="#84826C" d="M7 75h1v1H7z"/><path fill="#B4B697" d="M8 75h1v1H8z"/><path fill="#BEC1A0" d="M9 75h1v1H9zM10 75h1v1h-1zM11 75h1v1h-1z"/><path fill="#C5C6A2" d="M12 75h1v1h-1z"/><path fill="#D5D1A5" d="M13 75h1v1h-1zM14 75h1v1h-1z"/><path fill="#D6D2A7" d="M15 75h1v1h-1z"/><path fill="#E1E7CA" d="M16 75h1v1h-1zM17 75h1v1h-1zM18 75h1v1h-1zM19 75h1v1h-1zM20 75h1v1h-1zM21 75h1v1h-1z"/><path fill="#D7D5AC" d="M22 75h1v1h-1z"/><path fill="#D5D1A5" d="M23 75h1v1h-1zM24 75h1v1h-1zM25 75h1v1h-1zM26 75h1v1h-1zM27 75h1v1h-1zM28 75h1v1h-1zM29 75h1v1h-1z"/><path fill="#BEC1A0" d="M30 75h1v1h-1zM31 75h1v1h-1z"/><path fill="#716D5B" d="M32 75h1v1h-1z"/><path fill="#231815" d="M33 75h1v1h-1zM34 75h1v1h-1zM35 75h1v1h-1zM1 76h1v1H1zM2 76h1v1H2zM3 76h1v1H3zM4 76h1v1H4zM5 76h1v1H5zM6 76h1v1H6zM7 76h1v1H7z"/><path fill="#2D231E" d="M8 76h1v1H8z"/><path fill="#7A7763" d="M9 76h1v1H9z"/><path fill="#BEC1A0" d="M10 76h1v1h-1zM11 76h1v1h-1z"/><path fill="#BFC2A0" d="M12 76h1v1h-1z"/><path fill="#D5D1A5" d="M13 76h1v1h-1zM14 76h1v1h-1zM15 76h1v1h-1z"/><path fill="#DDE0BE" d="M16 76h1v1h-1z"/><path fill="#E1E7CA" d="M17 76h1v1h-1zM18 76h1v1h-1zM19 76h1v1h-1zM20 76h1v1h-1zM21 76h1v1h-1z"/><path fill="#D5D1A5" d="M22 76h1v1h-1zM23 76h1v1h-1zM24 76h1v1h-1zM25 76h1v1h-1zM26 76h1v1h-1zM27 76h1v1h-1zM28 76h1v1h-1z"/><path fill="#D2CFA4" d="M29 76h1v1h-1z"/><path fill="#BEC1A0" d="M30 76h1v1h-1zM31 76h1v1h-1z"/><path fill="#716D5B" d="M32 76h1v1h-1z"/><path fill="#231815" d="M33 76h1v1h-1zM34 76h1v1h-1zM35 76h1v1h-1zM2 77h1v1H2zM3 77h1v1H3zM4 77h1v1H4zM5 77h1v1H5zM6 77h1v1H6zM7 77h1v1H7zM8 77h1v1H8zM9 77h1v1H9z"/><path fill="#5D5749" d="M10 77h1v1h-1z"/><path fill="#BEC1A0" d="M11 77h1v1h-1zM12 77h1v1h-1z"/><path fill="#D2CFA4" d="M13 77h1v1h-1z"/><path fill="#D5D1A5" d="M14 77h1v1h-1zM15 77h1v1h-1z"/><path fill="#D9D8B1" d="M16 77h1v1h-1z"/><path fill="#E1E7CA" d="M17 77h1v1h-1zM18 77h1v1h-1zM19 77h1v1h-1zM20 77h1v1h-1z"/><path fill="#DDDFBC" d="M21 77h1v1h-1z"/><path fill="#D5D1A5" d="M22 77h1v1h-1zM23 77h1v1h-1zM24 77h1v1h-1zM25 77h1v1h-1zM26 77h1v1h-1zM27 77h1v1h-1zM28 77h1v1h-1z"/><path fill="#CCCBA3" d="M29 77h1v1h-1z"/><path fill="#BEC1A0" d="M30 77h1v1h-1zM31 77h1v1h-1z"/><path fill="#716D5B" d="M32 77h1v1h-1z"/><path fill="#231815" d="M33 77h1v1h-1zM34 77h1v1h-1zM35 77h1v1h-1zM4 78h1v1H4zM5 78h1v1H5zM6 78h1v1H6zM7 78h1v1H7zM8 78h1v1H8zM9 78h1v1H9zM10 78h1v1h-1z"/><path fill="#7A7763" d="M11 78h1v1h-1z"/><path fill="#BEC1A0" d="M12 78h1v1h-1z"/><path fill="#CCCBA3" d="M13 78h1v1h-1z"/><path fill="#D5D1A5" d="M14 78h1v1h-1zM15 78h1v1h-1zM16 78h1v1h-1z"/><path fill="#DFE3C3" d="M17 78h1v1h-1z"/><path fill="#E1E7CA" d="M18 78h1v1h-1zM19 78h1v1h-1z"/><path fill="#E0E6C8" d="M20 78h1v1h-1z"/><path fill="#D7D4AA" d="M21 78h1v1h-1z"/><path fill="#D5D1A5" d="M22 78h1v1h-1zM23 78h1v1h-1zM24 78h1v1h-1zM25 78h1v1h-1zM26 78h1v1h-1zM27 78h1v1h-1zM28 78h1v1h-1z"/><path fill="#C7C7A2" d="M29 78h1v1h-1z"/><path fill="#BEC1A0" d="M30 78h1v1h-1zM31 78h1v1h-1z"/><path fill="#716D5B" d="M32 78h1v1h-1z"/><path fill="#231815" d="M33 78h1v1h-1zM34 78h1v1h-1zM35 78h1v1h-1zM7 79h1v1H7zM8 79h1v1H8zM9 79h1v1H9zM10 79h1v1h-1zM11 79h1v1h-1z"/><path fill="#A1A186" d="M12 79h1v1h-1z"/><path fill="#C5C6A2" d="M13 79h1v1h-1z"/><path fill="#D5D1A5" d="M14 79h1v1h-1zM15 79h1v1h-1zM16 79h1v1h-1z"/><path fill="#D7D5AC" d="M17 79h1v1h-1z"/><path fill="#DDE0BE" d="M18 79h1v1h-1z"/><path fill="#DCDDBA" d="M19 79h1v1h-1z"/><path fill="#D6D2A7" d="M20 79h1v1h-1z"/><path fill="#D5D1A5" d="M21 79h1v1h-1zM22 79h1v1h-1zM23 79h1v1h-1zM24 79h1v1h-1zM25 79h1v1h-1zM26 79h1v1h-1zM27 79h1v1h-1z"/><path fill="#D4D0A5" d="M28 79h1v1h-1z"/><path fill="#BEC1A0" d="M29 79h1v1h-1zM30 79h1v1h-1zM31 79h1v1h-1z"/><path fill="#534D40" d="M32 79h1v1h-1z"/><path fill="#231815" d="M33 79h1v1h-1zM34 79h1v1h-1zM35 79h1v1h-1zM8 80h1v1H8zM9 80h1v1H9zM10 80h1v1h-1zM11 80h1v1h-1z"/><path fill="#4A4238" d="M12 80h1v1h-1z"/><path fill="#BEC1A0" d="M13 80h1v1h-1z"/><path fill="#D2CFA4" d="M14 80h1v1h-1z"/><path fill="#D6D2A7" d="M15 80h1v1h-1z"/><path fill="#DBDCB8" d="M16 80h1v1h-1zM17 80h1v1h-1z"/><path fill="#D8D7AE" d="M18 80h1v1h-1z"/><path fill="#D5D1A5" d="M19 80h1v1h-1zM20 80h1v1h-1zM21 80h1v1h-1zM22 80h1v1h-1zM23 80h1v1h-1zM24 80h1v1h-1zM25 80h1v1h-1zM26 80h1v1h-1zM27 80h1v1h-1z"/><path fill="#C5C6A2" d="M28 80h1v1h-1z"/><path fill="#BEC1A0" d="M29 80h1v1h-1zM30 80h1v1h-1zM31 80h1v1h-1z"/><path fill="#4A4238" d="M32 80h1v1h-1z"/><path fill="#231815" d="M33 80h1v1h-1zM34 80h1v1h-1zM35 80h1v1h-1zM9 81h1v1H9zM10 81h1v1h-1zM11 81h1v1h-1zM12 81h1v1h-1z"/><path fill="#ABAC8F" d="M13 81h1v1h-1z"/><path fill="#C2C4A1" d="M14 81h1v1h-1z"/><path fill="#DFE3C3" d="M15 81h1v1h-1z"/><path fill="#E1E7CA" d="M16 81h1v1h-1zM17 81h1v1h-1zM18 81h1v1h-1z"/><path fill="#D8D7AE" d="M19 81h1v1h-1z"/><path fill="#D5D1A5" d="M20 81h1v1h-1zM21 81h1v1h-1zM22 81h1v1h-1zM23 81h1v1h-1zM24 81h1v1h-1zM25 81h1v1h-1zM26 81h1v1h-1z"/><path fill="#CCCBA3" d="M27 81h1v1h-1z"/><path fill="#BEC1A0" d="M28 81h1v1h-1zM29 81h1v1h-1zM30 81h1v1h-1zM31 81h1v1h-1z"/><path fill="#2D231E" d="M32 81h1v1h-1z"/><path fill="#231815" d="M33 81h1v1h-1zM34 81h1v1h-1zM35 81h1v1h-1zM9 82h1v1H9zM10 82h1v1h-1zM11 82h1v1h-1zM12 82h1v1h-1z"/><path fill="#534D40" d="M13 82h1v1h-1z"/><path fill="#CBCFB0" d="M14 82h1v1h-1z"/><path fill="#E1E7CA" d="M15 82h1v1h-1zM16 82h1v1h-1zM17 82h1v1h-1zM18 82h1v1h-1z"/><path fill="#DDE0BE" d="M19 82h1v1h-1z"/><path fill="#D5D1A5" d="M20 82h1v1h-1zM21 82h1v1h-1zM22 82h1v1h-1zM23 82h1v1h-1zM24 82h1v1h-1z"/><path fill="#D2CFA4" d="M25 82h1v1h-1z"/><path fill="#C5C6A2" d="M26 82h1v1h-1z"/><path fill="#BEC1A0" d="M27 82h1v1h-1zM28 82h1v1h-1zM29 82h1v1h-1zM30 82h1v1h-1z"/><path fill="#B4B697" d="M31 82h1v1h-1z"/><path fill="#231815" d="M32 82h1v1h-1zM33 82h1v1h-1zM34 82h1v1h-1zM35 82h1v1h-1zM10 83h1v1h-1zM11 83h1v1h-1zM12 83h1v1h-1zM13 83h1v1h-1z"/><path fill="#9F9F8A" d="M14 83h1v1h-1z"/><path fill="#E1E7CA" d="M15 83h1v1h-1zM16 83h1v1h-1zM17 83h1v1h-1zM18 83h1v1h-1zM19 83h1v1h-1z"/><path fill="#CAC9A3" d="M20 83h1v1h-1zM21 83h1v1h-1zM22 83h1v1h-1z"/><path fill="#C8C8A2" d="M23 83h1v1h-1z"/><path fill="#C2C4A1" d="M24 83h1v1h-1z"/><path fill="#BEC1A0" d="M25 83h1v1h-1zM26 83h1v1h-1zM27 83h1v1h-1zM28 83h1v1h-1zM29 83h1v1h-1zM30 83h1v1h-1z"/><path fill="#84826C" d="M31 83h1v1h-1z"/><path fill="#231815" d="M32 83h1v1h-1zM33 83h1v1h-1zM34 83h1v1h-1zM35 83h1v1h-1zM10 84h1v1h-1zM11 84h1v1h-1zM12 84h1v1h-1zM13 84h1v1h-1z"/><path fill="#2F2520" d="M14 84h1v1h-1z"/><path fill="#B2B39D" d="M15 84h1v1h-1z"/><path fill="#E1E7CA" d="M16 84h1v1h-1zM17 84h1v1h-1zM18 84h1v1h-1z"/><path fill="#DAE0C2" d="M19 84h1v1h-1z"/><path fill="#BEC1A0" d="M20 84h1v1h-1zM21 84h1v1h-1zM22 84h1v1h-1zM23 84h1v1h-1zM24 84h1v1h-1zM25 84h1v1h-1zM26 84h1v1h-1zM27 84h1v1h-1zM28 84h1v1h-1zM29 84h1v1h-1zM30 84h1v1h-1z"/><path fill="#4A4238" d="M31 84h1v1h-1z"/><path fill="#231815" d="M32 84h1v1h-1zM33 84h1v1h-1zM34 84h1v1h-1zM11 85h1v1h-1zM12 85h1v1h-1zM13 85h1v1h-1zM14 85h1v1h-1zM15 85h1v1h-1z"/><path fill="#6A6659" d="M16 85h1v1h-1z"/><path fill="#C9CDB3" d="M17 85h1v1h-1z"/><path fill="#E1E7CA" d="M18 85h1v1h-1z"/><path fill="#D0D4B5" d="M19 85h1v1h-1z"/><path fill="#BEC1A0" d="M20 85h1v1h-1zM21 85h1v1h-1zM22 85h1v1h-1zM23 85h1v1h-1zM24 85h1v1h-1zM25 85h1v1h-1zM26 85h1v1h-1zM27 85h1v1h-1zM28 85h1v1h-1z"/><path fill="#ABAC8F" d="M29 85h1v1h-1z"/><path fill="#534D40" d="M30 85h1v1h-1z"/><path fill="#231815" d="M31 85h1v1h-1zM32 85h1v1h-1zM33 85h1v1h-1zM34 85h1v1h-1zM12 86h1v1h-1zM13 86h1v1h-1zM14 86h1v1h-1zM15 86h1v1h-1zM16 86h1v1h-1zM17 86h1v1h-1z"/><path fill="#473F37" d="M18 86h1v1h-1z"/><path fill="#696454" d="M19 86h1v1h-1z"/><path fill="#7A7763" d="M20 86h1v1h-1z"/><path fill="#97977D" d="M21 86h1v1h-1zM22 86h1v1h-1zM23 86h1v1h-1zM24 86h1v1h-1zM25 86h1v1h-1z"/><path fill="#716D5B" d="M26 86h1v1h-1z"/><path fill="#5D5749" d="M27 86h1v1h-1z"/><path fill="#362D26" d="M28 86h1v1h-1z"/><path fill="#231815" d="M29 86h1v1h-1zM30 86h1v1h-1zM31 86h1v1h-1zM32 86h1v1h-1zM33 86h1v1h-1zM34 86h1v1h-1zM13 87h1v1h-1zM14 87h1v1h-1zM15 87h1v1h-1zM16 87h1v1h-1zM17 87h1v1h-1zM18 87h1v1h-1zM19 87h1v1h-1zM20 87h1v1h-1zM21 87h1v1h-1zM22 87h1v1h-1zM23 87h1v1h-1zM24 87h1v1h-1zM25 87h1v1h-1zM26 87h1v1h-1zM27 87h1v1h-1zM28 87h1v1h-1zM29 87h1v1h-1zM30 87h1v1h-1zM31 87h1v1h-1zM32 87h1v1h-1zM33 87h1v1h-1zM14 88h1v1h-1zM15 88h1v1h-1zM16 88h1v1h-1zM17 88h1v1h-1zM18 88h1v1h-1zM19 88h1v1h-1zM20 88h1v1h-1zM21 88h1v1h-1zM22 88h1v1h-1zM23 88h1v1h-1zM24 88h1v1h-1zM25 88h1v1h-1zM26 88h1v1h-1zM27 88h1v1h-1zM28 88h1v1h-1zM29 88h1v1h-1zM30 88h1v1h-1zM31 88h1v1h-1zM32 88h1v1h-1zM16 89h1v1h-1zM17 89h1v1h-1zM18 89h1v1h-1zM19 89h1v1h-1zM20 89h1v1h-1zM21 89h1v1h-1zM22 89h1v1h-1zM23 89h1v1h-1zM24 89h1v1h-1zM25 89h1v1h-1zM26 89h1v1h-1zM27 89h1v1h-1zM28 89h1v1h-1zM29 89h1v1h-1zM30 89h1v1h-1z"/></svg>