<svg baseProfile="full" height="80" width="90" xmlns="http://www.w3.org/2000/svg"><path fill="#231815" d="M71 0h1v1h-1zM72 0h1v1h-1zM73 0h1v1h-1zM74 0h1v1h-1zM75 0h1v1h-1zM76 0h1v1h-1zM77 0h1v1h-1zM78 0h1v1h-1zM79 0h1v1h-1zM80 0h1v1h-1zM81 0h1v1h-1zM82 0h1v1h-1zM68 1h1v1h-1zM69 1h1v1h-1zM70 1h1v1h-1zM71 1h1v1h-1zM72 1h1v1h-1zM73 1h1v1h-1zM74 1h1v1h-1zM75 1h1v1h-1zM76 1h1v1h-1zM77 1h1v1h-1zM78 1h1v1h-1zM79 1h1v1h-1zM80 1h1v1h-1zM81 1h1v1h-1zM82 1h1v1h-1zM83 1h1v1h-1zM84 1h1v1h-1zM65 2h1v1h-1zM66 2h1v1h-1zM67 2h1v1h-1zM68 2h1v1h-1zM69 2h1v1h-1zM70 2h1v1h-1zM71 2h1v1h-1zM72 2h1v1h-1zM73 2h1v1h-1zM74 2h1v1h-1zM75 2h1v1h-1zM76 2h1v1h-1zM77 2h1v1h-1zM78 2h1v1h-1zM79 2h1v1h-1zM80 2h1v1h-1zM81 2h1v1h-1zM82 2h1v1h-1zM83 2h1v1h-1zM84 2h1v1h-1zM85 2h1v1h-1zM64 3h1v1h-1zM65 3h1v1h-1zM66 3h1v1h-1zM67 3h1v1h-1zM68 3h1v1h-1zM69 3h1v1h-1zM70 3h1v1h-1z"/><path fill="#302621" d="M71 3h1v1h-1z"/><path fill="#655E4F" d="M72 3h1v1h-1z"/><path fill="#99957E" d="M73 3h1v1h-1z"/><path fill="#C1BFA1" d="M74 3h1v1h-1z"/><path fill="#E8E9C4" d="M75 3h1v1h-1z"/><path fill="#F5F6C3" d="M76 3h1v1h-1z"/><path fill="#F1EC68" d="M77 3h1v1h-1z"/><path fill="#EDE100" d="M78 3h1v1h-1z"/><path fill="#BBAF05" d="M79 3h1v1h-1z"/><path fill="#958909" d="M80 3h1v1h-1z"/><path fill="#493E11" d="M81 3h1v1h-1z"/><path fill="#231815" d="M82 3h1v1h-1zM83 3h1v1h-1zM84 3h1v1h-1zM85 3h1v1h-1zM86 3h1v1h-1zM62 4h1v1h-1zM63 4h1v1h-1zM64 4h1v1h-1zM65 4h1v1h-1zM66 4h1v1h-1zM67 4h1v1h-1zM68 4h1v1h-1z"/><path fill="#716A4E" d="M69 4h1v1h-1z"/><path fill="#B3B196" d="M70 4h1v1h-1z"/><path fill="#F5F7D0" d="M71 4h1v1h-1zM72 4h1v1h-1zM73 4h1v1h-1zM74 4h1v1h-1zM75 4h1v1h-1zM76 4h1v1h-1zM77 4h1v1h-1z"/><path fill="#EFE527" d="M78 4h1v1h-1z"/><path fill="#EDE100" d="M79 4h1v1h-1zM80 4h1v1h-1zM81 4h1v1h-1z"/><path fill="#BBAF05" d="M82 4h1v1h-1z"/><path fill="#3C3112" d="M83 4h1v1h-1z"/><path fill="#231815" d="M84 4h1v1h-1zM85 4h1v1h-1zM86 4h1v1h-1zM87 4h1v1h-1zM60 5h1v1h-1zM61 5h1v1h-1zM62 5h1v1h-1zM63 5h1v1h-1zM64 5h1v1h-1zM65 5h1v1h-1z"/><path fill="#302514" d="M66 5h1v1h-1z"/><path fill="#887D0B" d="M67 5h1v1h-1z"/><path fill="#E0D401" d="M68 5h1v1h-1z"/><path fill="#F3F08F" d="M69 5h1v1h-1z"/><path fill="#F5F7D0" d="M70 5h1v1h-1zM71 5h1v1h-1zM72 5h1v1h-1zM73 5h1v1h-1zM74 5h1v1h-1zM75 5h1v1h-1zM76 5h1v1h-1z"/><path fill="#F4F3A9" d="M77 5h1v1h-1z"/><path fill="#EDE100" d="M78 5h1v1h-1zM79 5h1v1h-1zM80 5h1v1h-1zM81 5h1v1h-1zM82 5h1v1h-1z"/><path fill="#E0D401" d="M83 5h1v1h-1z"/><path fill="#493E11" d="M84 5h1v1h-1z"/><path fill="#231815" d="M85 5h1v1h-1zM86 5h1v1h-1zM87 5h1v1h-1zM88 5h1v1h-1zM59 6h1v1h-1zM60 6h1v1h-1zM61 6h1v1h-1zM62 6h1v1h-1zM63 6h1v1h-1zM64 6h1v1h-1z"/><path fill="#887D0B" d="M65 6h1v1h-1z"/><path fill="#E0D401" d="M66 6h1v1h-1z"/><path fill="#EDE100" d="M67 6h1v1h-1zM68 6h1v1h-1z"/><path fill="#EEE20D" d="M69 6h1v1h-1z"/><path fill="#F2EF82" d="M70 6h1v1h-1z"/><path fill="#F5F6C3" d="M71 6h1v1h-1z"/><path fill="#F5F7D0" d="M72 6h1v1h-1zM73 6h1v1h-1zM74 6h1v1h-1z"/><path fill="#F3F29C" d="M75 6h1v1h-1z"/><path fill="#F0E94E" d="M76 6h1v1h-1z"/><path fill="#EDE100" d="M77 6h1v1h-1zM78 6h1v1h-1zM79 6h1v1h-1zM80 6h1v1h-1zM81 6h1v1h-1zM82 6h1v1h-1zM83 6h1v1h-1z"/><path fill="#E0D401" d="M84 6h1v1h-1z"/><path fill="#493E11" d="M85 6h1v1h-1z"/><path fill="#231815" d="M86 6h1v1h-1zM87 6h1v1h-1zM88 6h1v1h-1zM58 7h1v1h-1zM59 7h1v1h-1zM60 7h1v1h-1zM61 7h1v1h-1zM62 7h1v1h-1z"/><path fill="#564A10" d="M63 7h1v1h-1z"/><path fill="#D4C803" d="M64 7h1v1h-1z"/><path fill="#EDE100" d="M65 7h1v1h-1zM66 7h1v1h-1zM67 7h1v1h-1zM68 7h1v1h-1zM69 7h1v1h-1zM70 7h1v1h-1zM71 7h1v1h-1z"/><path fill="#EBDF00" d="M72 7h1v1h-1z"/><path fill="#E6DB00" d="M73 7h1v1h-1z"/><path fill="#E3D900" d="M74 7h1v1h-1z"/><path fill="#DED500" d="M75 7h1v1h-1zM76 7h1v1h-1z"/><path fill="#D9D100" d="M77 7h1v1h-1zM78 7h1v1h-1zM79 7h1v1h-1zM80 7h1v1h-1z"/><path fill="#DED500" d="M81 7h1v1h-1zM82 7h1v1h-1z"/><path fill="#E2D800" d="M83 7h1v1h-1z"/><path fill="#E3D900" d="M84 7h1v1h-1z"/><path fill="#C1B604" d="M85 7h1v1h-1z"/><path fill="#231815" d="M86 7h1v1h-1zM87 7h1v1h-1zM88 7h1v1h-1zM89 7h1v1h-1zM57 8h1v1h-1zM58 8h1v1h-1zM59 8h1v1h-1zM60 8h1v1h-1zM61 8h1v1h-1z"/><path fill="#958909" d="M62 8h1v1h-1z"/><path fill="#EDE100" d="M63 8h1v1h-1zM64 8h1v1h-1zM65 8h1v1h-1zM66 8h1v1h-1zM67 8h1v1h-1zM68 8h1v1h-1z"/><path fill="#EBDF00" d="M69 8h1v1h-1z"/><path fill="#E4DA00" d="M70 8h1v1h-1z"/><path fill="#DDD400" d="M71 8h1v1h-1z"/><path fill="#D9D100" d="M72 8h1v1h-1zM73 8h1v1h-1zM74 8h1v1h-1zM75 8h1v1h-1zM76 8h1v1h-1zM77 8h1v1h-1zM78 8h1v1h-1zM79 8h1v1h-1zM80 8h1v1h-1zM81 8h1v1h-1zM82 8h1v1h-1zM83 8h1v1h-1zM84 8h1v1h-1zM85 8h1v1h-1z"/><path fill="#5C520E" d="M86 8h1v1h-1z"/><path fill="#231815" d="M87 8h1v1h-1zM88 8h1v1h-1zM89 8h1v1h-1zM56 9h1v1h-1zM57 9h1v1h-1zM58 9h1v1h-1zM59 9h1v1h-1z"/><path fill="#302514" d="M60 9h1v1h-1z"/><path fill="#C7BB04" d="M61 9h1v1h-1z"/><path fill="#EDE100" d="M62 9h1v1h-1zM63 9h1v1h-1zM64 9h1v1h-1zM65 9h1v1h-1zM66 9h1v1h-1z"/><path fill="#E8DD00" d="M67 9h1v1h-1z"/><path fill="#DFD600" d="M68 9h1v1h-1z"/><path fill="#D9D100" d="M69 9h1v1h-1zM70 9h1v1h-1zM71 9h1v1h-1zM72 9h1v1h-1zM73 9h1v1h-1zM74 9h1v1h-1zM75 9h1v1h-1zM76 9h1v1h-1zM77 9h1v1h-1zM78 9h1v1h-1zM79 9h1v1h-1zM80 9h1v1h-1zM81 9h1v1h-1zM82 9h1v1h-1zM83 9h1v1h-1zM84 9h1v1h-1zM85 9h1v1h-1z"/><path fill="#A09707" d="M86 9h1v1h-1z"/><path fill="#231815" d="M87 9h1v1h-1zM88 9h1v1h-1zM89 9h1v1h-1zM27 10h1v1h-1zM28 10h1v1h-1zM29 10h1v1h-1zM30 10h1v1h-1zM31 10h1v1h-1zM48 10h1v1h-1zM49 10h1v1h-1zM50 10h1v1h-1zM51 10h1v1h-1zM52 10h1v1h-1zM53 10h1v1h-1zM54 10h1v1h-1zM55 10h1v1h-1zM56 10h1v1h-1zM57 10h1v1h-1zM58 10h1v1h-1z"/><path fill="#1C261C" d="M59 10h1v1h-1z"/><path fill="#4C8525" d="M60 10h1v1h-1z"/><path fill="#85A919" d="M61 10h1v1h-1z"/><path fill="#CFD107" d="M62 10h1v1h-1z"/><path fill="#EDE100" d="M63 10h1v1h-1zM64 10h1v1h-1z"/><path fill="#E8DD00" d="M65 10h1v1h-1z"/><path fill="#DED500" d="M66 10h1v1h-1z"/><path fill="#D9D100" d="M67 10h1v1h-1zM68 10h1v1h-1zM69 10h1v1h-1zM70 10h1v1h-1zM71 10h1v1h-1zM72 10h1v1h-1zM73 10h1v1h-1zM74 10h1v1h-1zM75 10h1v1h-1zM76 10h1v1h-1zM77 10h1v1h-1zM78 10h1v1h-1zM79 10h1v1h-1zM80 10h1v1h-1zM81 10h1v1h-1zM82 10h1v1h-1zM83 10h1v1h-1zM84 10h1v1h-1zM85 10h1v1h-1z"/><path fill="#ACA305" d="M86 10h1v1h-1z"/><path fill="#231815" d="M87 10h1v1h-1zM88 10h1v1h-1zM89 10h1v1h-1zM27 11h1v1h-1zM28 11h1v1h-1zM29 11h1v1h-1zM30 11h1v1h-1zM31 11h1v1h-1zM32 11h1v1h-1zM44 11h1v1h-1zM45 11h1v1h-1zM46 11h1v1h-1zM47 11h1v1h-1zM48 11h1v1h-1zM49 11h1v1h-1zM50 11h1v1h-1zM51 11h1v1h-1zM52 11h1v1h-1zM53 11h1v1h-1zM54 11h1v1h-1zM55 11h1v1h-1zM56 11h1v1h-1zM57 11h1v1h-1z"/><path fill="#1C261C" d="M58 11h1v1h-1z"/><path fill="#025D37" d="M59 11h1v1h-1z"/><path fill="#006239" d="M60 11h1v1h-1zM61 11h1v1h-1zM62 11h1v1h-1z"/><path fill="#3B822B" d="M63 11h1v1h-1z"/><path fill="#AABB0E" d="M64 11h1v1h-1z"/><path fill="#D9D100" d="M65 11h1v1h-1zM66 11h1v1h-1zM67 11h1v1h-1zM68 11h1v1h-1zM69 11h1v1h-1z"/><path fill="#C2BA03" d="M70 11h1v1h-1z"/><path fill="#73690C" d="M71 11h1v1h-1z"/><path fill="#3A2F12" d="M72 11h1v1h-1z"/><path fill="#231815" d="M73 11h1v1h-1zM74 11h1v1h-1zM75 11h1v1h-1zM76 11h1v1h-1z"/><path fill="#5C520E" d="M77 11h1v1h-1z"/><path fill="#958C08" d="M78 11h1v1h-1z"/><path fill="#CEC501" d="M79 11h1v1h-1z"/><path fill="#D9D100" d="M80 11h1v1h-1zM81 11h1v1h-1zM82 11h1v1h-1zM83 11h1v1h-1zM84 11h1v1h-1zM85 11h1v1h-1z"/><path fill="#514610" d="M86 11h1v1h-1z"/><path fill="#231815" d="M87 11h1v1h-1zM88 11h1v1h-1zM89 11h1v1h-1zM26 12h1v1h-1zM27 12h1v1h-1zM28 12h1v1h-1zM29 12h1v1h-1zM30 12h1v1h-1zM31 12h1v1h-1zM32 12h1v1h-1zM33 12h1v1h-1zM34 12h1v1h-1zM41 12h1v1h-1zM42 12h1v1h-1zM43 12h1v1h-1zM44 12h1v1h-1zM45 12h1v1h-1zM46 12h1v1h-1zM47 12h1v1h-1zM48 12h1v1h-1zM49 12h1v1h-1zM50 12h1v1h-1zM51 12h1v1h-1zM52 12h1v1h-1zM53 12h1v1h-1zM54 12h1v1h-1zM55 12h1v1h-1zM56 12h1v1h-1z"/><path fill="#1A2E22" d="M57 12h1v1h-1z"/><path fill="#025D37" d="M58 12h1v1h-1z"/><path fill="#006239" d="M59 12h1v1h-1zM60 12h1v1h-1zM61 12h1v1h-1zM62 12h1v1h-1zM63 12h1v1h-1zM64 12h1v1h-1z"/><path fill="#518C24" d="M65 12h1v1h-1z"/><path fill="#CBCA04" d="M66 12h1v1h-1z"/><path fill="#D9D100" d="M67 12h1v1h-1zM68 12h1v1h-1z"/><path fill="#73690C" d="M69 12h1v1h-1z"/><path fill="#231815" d="M70 12h1v1h-1zM71 12h1v1h-1zM72 12h1v1h-1zM73 12h1v1h-1zM74 12h1v1h-1zM75 12h1v1h-1zM76 12h1v1h-1zM77 12h1v1h-1zM78 12h1v1h-1z"/><path fill="#3A2F12" d="M79 12h1v1h-1z"/><path fill="#ACA305" d="M80 12h1v1h-1z"/><path fill="#D9D100" d="M81 12h1v1h-1zM82 12h1v1h-1zM83 12h1v1h-1z"/><path fill="#ACA305" d="M84 12h1v1h-1z"/><path fill="#453B11" d="M85 12h1v1h-1z"/><path fill="#231815" d="M86 12h1v1h-1zM87 12h1v1h-1zM88 12h1v1h-1zM89 12h1v1h-1zM26 13h1v1h-1zM27 13h1v1h-1zM28 13h1v1h-1z"/><path fill="#384C3E" d="M29 13h1v1h-1z"/><path fill="#2F372D" d="M30 13h1v1h-1z"/><path fill="#231815" d="M31 13h1v1h-1zM32 13h1v1h-1zM33 13h1v1h-1zM34 13h1v1h-1zM35 13h1v1h-1zM39 13h1v1h-1zM40 13h1v1h-1zM41 13h1v1h-1zM42 13h1v1h-1zM43 13h1v1h-1zM44 13h1v1h-1zM45 13h1v1h-1zM46 13h1v1h-1zM47 13h1v1h-1zM48 13h1v1h-1z"/><path fill="#1A392E" d="M49 13h1v1h-1z"/><path fill="#145140" d="M50 13h1v1h-1z"/><path fill="#0F614D" d="M51 13h1v1h-1z"/><path fill="#097A5F" d="M52 13h1v1h-1z"/><path fill="#078265" d="M53 13h1v1h-1z"/><path fill="#009A78" d="M54 13h1v1h-1zM55 13h1v1h-1zM56 13h1v1h-1zM57 13h1v1h-1zM58 13h1v1h-1z"/><path fill="#00906C" d="M59 13h1v1h-1z"/><path fill="#008560" d="M60 13h1v1h-1z"/><path fill="#007049" d="M61 13h1v1h-1z"/><path fill="#006239" d="M62 13h1v1h-1zM63 13h1v1h-1zM64 13h1v1h-1zM65 13h1v1h-1z"/><path fill="#29772E" d="M66 13h1v1h-1z"/><path fill="#C0BF05" d="M67 13h1v1h-1z"/><path fill="#453B11" d="M68 13h1v1h-1z"/><path fill="#231815" d="M69 13h1v1h-1zM70 13h1v1h-1zM71 13h1v1h-1zM72 13h1v1h-1zM73 13h1v1h-1zM74 13h1v1h-1zM75 13h1v1h-1zM76 13h1v1h-1zM77 13h1v1h-1zM78 13h1v1h-1zM79 13h1v1h-1zM80 13h1v1h-1z"/><path fill="#675D0D" d="M81 13h1v1h-1zM82 13h1v1h-1z"/><path fill="#453B11" d="M83 13h1v1h-1z"/><path fill="#231815" d="M84 13h1v1h-1zM85 13h1v1h-1zM86 13h1v1h-1zM87 13h1v1h-1zM88 13h1v1h-1zM25 14h1v1h-1zM26 14h1v1h-1zM27 14h1v1h-1z"/><path fill="#27221D" d="M28 14h1v1h-1z"/><path fill="#61B58F" d="M29 14h1v1h-1z"/><path fill="#65BF97" d="M30 14h1v1h-1z"/><path fill="#3C5746" d="M31 14h1v1h-1z"/><path fill="#231815" d="M32 14h1v1h-1zM33 14h1v1h-1zM34 14h1v1h-1zM35 14h1v1h-1zM36 14h1v1h-1zM37 14h1v1h-1zM38 14h1v1h-1zM39 14h1v1h-1zM40 14h1v1h-1zM41 14h1v1h-1zM42 14h1v1h-1zM43 14h1v1h-1zM44 14h1v1h-1z"/><path fill="#184134" d="M45 14h1v1h-1z"/><path fill="#0F614D" d="M46 14h1v1h-1z"/><path fill="#078265" d="M47 14h1v1h-1z"/><path fill="#009A78" d="M48 14h1v1h-1zM49 14h1v1h-1zM50 14h1v1h-1zM51 14h1v1h-1zM52 14h1v1h-1zM53 14h1v1h-1zM54 14h1v1h-1zM55 14h1v1h-1zM56 14h1v1h-1zM57 14h1v1h-1zM58 14h1v1h-1zM59 14h1v1h-1zM60 14h1v1h-1zM61 14h1v1h-1z"/><path fill="#009370" d="M62 14h1v1h-1z"/><path fill="#007049" d="M63 14h1v1h-1z"/><path fill="#006239" d="M64 14h1v1h-1zM65 14h1v1h-1zM66 14h1v1h-1z"/><path fill="#182F20" d="M67 14h1v1h-1z"/><path fill="#231815" d="M68 14h1v1h-1zM69 14h1v1h-1zM70 14h1v1h-1zM71 14h1v1h-1zM72 14h1v1h-1zM73 14h1v1h-1zM76 14h1v1h-1zM77 14h1v1h-1zM78 14h1v1h-1zM79 14h1v1h-1zM80 14h1v1h-1zM81 14h1v1h-1zM82 14h1v1h-1zM83 14h1v1h-1zM84 14h1v1h-1zM85 14h1v1h-1zM86 14h1v1h-1zM87 14h1v1h-1zM24 15h1v1h-1zM25 15h1v1h-1zM26 15h1v1h-1zM27 15h1v1h-1z"/><path fill="#446C56" d="M28 15h1v1h-1z"/><path fill="#65BF97" d="M29 15h1v1h-1zM30 15h1v1h-1zM31 15h1v1h-1z"/><path fill="#3C5746" d="M32 15h1v1h-1z"/><path fill="#231815" d="M33 15h1v1h-1zM34 15h1v1h-1zM35 15h1v1h-1zM36 15h1v1h-1zM37 15h1v1h-1zM38 15h1v1h-1zM39 15h1v1h-1zM40 15h1v1h-1zM41 15h1v1h-1z"/><path fill="#184134" d="M42 15h1v1h-1z"/><path fill="#0B7159" d="M43 15h1v1h-1z"/><path fill="#009A78" d="M44 15h1v1h-1zM45 15h1v1h-1zM46 15h1v1h-1zM47 15h1v1h-1zM48 15h1v1h-1z"/><path fill="#13A17E" d="M49 15h1v1h-1z"/><path fill="#2CAA86" d="M50 15h1v1h-1z"/><path fill="#39AF89" d="M51 15h1v1h-1z"/><path fill="#4CB68F" d="M52 15h1v1h-1z"/><path fill="#5FBD95" d="M53 15h1v1h-1z"/><path fill="#65BF97" d="M54 15h1v1h-1zM55 15h1v1h-1zM56 15h1v1h-1zM57 15h1v1h-1zM58 15h1v1h-1z"/><path fill="#52B891" d="M59 15h1v1h-1z"/><path fill="#39AF89" d="M60 15h1v1h-1z"/><path fill="#0D9F7C" d="M61 15h1v1h-1z"/><path fill="#009A78" d="M62 15h1v1h-1zM63 15h1v1h-1z"/><path fill="#007E59" d="M64 15h1v1h-1z"/><path fill="#006239" d="M65 15h1v1h-1z"/><path fill="#0F4229" d="M66 15h1v1h-1z"/><path fill="#231815" d="M67 15h1v1h-1zM68 15h1v1h-1zM69 15h1v1h-1zM70 15h1v1h-1zM78 15h1v1h-1zM79 15h1v1h-1zM80 15h1v1h-1zM81 15h1v1h-1zM82 15h1v1h-1zM83 15h1v1h-1zM84 15h1v1h-1zM85 15h1v1h-1zM86 15h1v1h-1zM24 16h1v1h-1zM25 16h1v1h-1zM26 16h1v1h-1z"/><path fill="#27221D" d="M27 16h1v1h-1z"/><path fill="#61B58F" d="M28 16h1v1h-1z"/><path fill="#65BF97" d="M29 16h1v1h-1zM30 16h1v1h-1zM31 16h1v1h-1zM32 16h1v1h-1z"/><path fill="#3C5746" d="M33 16h1v1h-1z"/><path fill="#231815" d="M34 16h1v1h-1zM35 16h1v1h-1zM36 16h1v1h-1zM37 16h1v1h-1zM38 16h1v1h-1z"/><path fill="#21201B" d="M39 16h1v1h-1z"/><path fill="#125947" d="M40 16h1v1h-1z"/><path fill="#029272" d="M41 16h1v1h-1z"/><path fill="#009A78" d="M42 16h1v1h-1zM43 16h1v1h-1zM44 16h1v1h-1zM45 16h1v1h-1z"/><path fill="#20A682" d="M46 16h1v1h-1z"/><path fill="#3FB18B" d="M47 16h1v1h-1z"/><path fill="#5FBD95" d="M48 16h1v1h-1z"/><path fill="#65BF97" d="M49 16h1v1h-1zM50 16h1v1h-1zM51 16h1v1h-1zM52 16h1v1h-1zM53 16h1v1h-1zM54 16h1v1h-1zM55 16h1v1h-1zM56 16h1v1h-1zM57 16h1v1h-1zM58 16h1v1h-1zM59 16h1v1h-1zM60 16h1v1h-1zM61 16h1v1h-1z"/><path fill="#26A884" d="M62 16h1v1h-1z"/><path fill="#009A78" d="M63 16h1v1h-1zM64 16h1v1h-1z"/><path fill="#007B55" d="M65 16h1v1h-1z"/><path fill="#1F211A" d="M66 16h1v1h-1z"/><path fill="#231815" d="M67 16h1v1h-1zM68 16h1v1h-1zM69 16h1v1h-1zM80 16h1v1h-1zM81 16h1v1h-1zM82 16h1v1h-1zM83 16h1v1h-1zM84 16h1v1h-1zM16 17h1v1h-1zM17 17h1v1h-1zM18 17h1v1h-1zM19 17h1v1h-1zM20 17h1v1h-1zM24 17h1v1h-1zM25 17h1v1h-1zM26 17h1v1h-1z"/><path fill="#647766" d="M27 17h1v1h-1z"/><path fill="#6DC29B" d="M28 17h1v1h-1z"/><path fill="#65BF97" d="M29 17h1v1h-1zM30 17h1v1h-1zM31 17h1v1h-1zM32 17h1v1h-1zM33 17h1v1h-1z"/><path fill="#3C5746" d="M34 17h1v1h-1z"/><path fill="#231815" d="M35 17h1v1h-1zM36 17h1v1h-1zM37 17h1v1h-1z"/><path fill="#143F2D" d="M38 17h1v1h-1z"/><path fill="#029272" d="M39 17h1v1h-1z"/><path fill="#009A78" d="M40 17h1v1h-1zM41 17h1v1h-1zM42 17h1v1h-1z"/><path fill="#0D9F7C" d="M43 17h1v1h-1z"/><path fill="#3FB18B" d="M44 17h1v1h-1z"/><path fill="#5FBD95" d="M45 17h1v1h-1z"/><path fill="#65BF97" d="M46 17h1v1h-1zM47 17h1v1h-1zM48 17h1v1h-1zM49 17h1v1h-1zM50 17h1v1h-1zM51 17h1v1h-1zM52 17h1v1h-1zM53 17h1v1h-1zM54 17h1v1h-1zM55 17h1v1h-1zM56 17h1v1h-1zM57 17h1v1h-1zM58 17h1v1h-1zM59 17h1v1h-1zM60 17h1v1h-1zM61 17h1v1h-1zM62 17h1v1h-1z"/><path fill="#20A682" d="M63 17h1v1h-1z"/><path fill="#009A78" d="M64 17h1v1h-1zM65 17h1v1h-1z"/><path fill="#1C2D24" d="M66 17h1v1h-1z"/><path fill="#231815" d="M67 17h1v1h-1zM68 17h1v1h-1zM69 17h1v1h-1zM15 18h1v1h-1zM16 18h1v1h-1zM17 18h1v1h-1zM18 18h1v1h-1zM19 18h1v1h-1zM20 18h1v1h-1zM21 18h1v1h-1zM22 18h1v1h-1zM23 18h1v1h-1zM24 18h1v1h-1zM25 18h1v1h-1zM26 18h1v1h-1z"/><path fill="#9CC9AD" d="M27 18h1v1h-1z"/><path fill="#85CAA7" d="M28 18h1v1h-1z"/><path fill="#65BF97" d="M29 18h1v1h-1zM30 18h1v1h-1zM31 18h1v1h-1zM32 18h1v1h-1zM33 18h1v1h-1zM34 18h1v1h-1z"/><path fill="#37604A" d="M35 18h1v1h-1z"/><path fill="#182F20" d="M36 18h1v1h-1z"/><path fill="#075432" d="M37 18h1v1h-1z"/><path fill="#006239" d="M38 18h1v1h-1z"/><path fill="#007751" d="M39 18h1v1h-1z"/><path fill="#009A78" d="M40 18h1v1h-1z"/><path fill="#19A380" d="M41 18h1v1h-1z"/><path fill="#4CB68F" d="M42 18h1v1h-1z"/><path fill="#65BF97" d="M43 18h1v1h-1zM44 18h1v1h-1zM45 18h1v1h-1zM46 18h1v1h-1zM47 18h1v1h-1zM48 18h1v1h-1zM49 18h1v1h-1zM50 18h1v1h-1zM51 18h1v1h-1zM52 18h1v1h-1zM53 18h1v1h-1zM54 18h1v1h-1zM55 18h1v1h-1zM56 18h1v1h-1zM57 18h1v1h-1zM58 18h1v1h-1zM59 18h1v1h-1zM60 18h1v1h-1zM61 18h1v1h-1zM62 18h1v1h-1z"/><path fill="#52B891" d="M63 18h1v1h-1z"/><path fill="#009A78" d="M64 18h1v1h-1zM65 18h1v1h-1z"/><path fill="#125947" d="M66 18h1v1h-1z"/><path fill="#231815" d="M67 18h1v1h-1zM68 18h1v1h-1zM69 18h1v1h-1zM15 19h1v1h-1zM16 19h1v1h-1zM17 19h1v1h-1zM18 19h1v1h-1zM19 19h1v1h-1zM20 19h1v1h-1zM21 19h1v1h-1zM22 19h1v1h-1zM23 19h1v1h-1zM24 19h1v1h-1zM25 19h1v1h-1z"/><path fill="#535F52" d="M26 19h1v1h-1z"/><path fill="#A4D5B7" d="M27 19h1v1h-1z"/><path fill="#A0D4B5" d="M28 19h1v1h-1z"/><path fill="#69C099" d="M29 19h1v1h-1z"/><path fill="#65BF97" d="M30 19h1v1h-1zM31 19h1v1h-1zM32 19h1v1h-1zM33 19h1v1h-1zM34 19h1v1h-1zM35 19h1v1h-1z"/><path fill="#207F56" d="M36 19h1v1h-1z"/><path fill="#006239" d="M37 19h1v1h-1zM38 19h1v1h-1zM39 19h1v1h-1z"/><path fill="#20865E" d="M40 19h1v1h-1z"/><path fill="#65BF97" d="M41 19h1v1h-1zM42 19h1v1h-1zM43 19h1v1h-1zM44 19h1v1h-1zM45 19h1v1h-1z"/><path fill="#4CA880" d="M46 19h1v1h-1zM47 19h1v1h-1z"/><path fill="#45A27A" d="M48 19h1v1h-1z"/><path fill="#339168" d="M49 19h1v1h-1zM50 19h1v1h-1zM51 19h1v1h-1zM52 19h1v1h-1z"/><path fill="#207F56" d="M53 19h1v1h-1z"/><path fill="#197951" d="M54 19h1v1h-1z"/><path fill="#207F56" d="M55 19h1v1h-1z"/><path fill="#339168" d="M56 19h1v1h-1zM57 19h1v1h-1z"/><path fill="#45A27A" d="M58 19h1v1h-1z"/><path fill="#5FB991" d="M59 19h1v1h-1z"/><path fill="#65BF97" d="M60 19h1v1h-1zM61 19h1v1h-1zM62 19h1v1h-1zM63 19h1v1h-1z"/><path fill="#069C7A" d="M64 19h1v1h-1z"/><path fill="#009A78" d="M65 19h1v1h-1z"/><path fill="#097A5F" d="M66 19h1v1h-1z"/><path fill="#231815" d="M67 19h1v1h-1zM68 19h1v1h-1zM69 19h1v1h-1zM15 20h1v1h-1zM16 20h1v1h-1zM17 20h1v1h-1z"/><path fill="#2B241F" d="M18 20h1v1h-1z"/><path fill="#43473E" d="M19 20h1v1h-1z"/><path fill="#2B241F" d="M20 20h1v1h-1z"/><path fill="#231815" d="M21 20h1v1h-1zM22 20h1v1h-1zM23 20h1v1h-1zM24 20h1v1h-1zM25 20h1v1h-1z"/><path fill="#8CB299" d="M26 20h1v1h-1z"/><path fill="#A4D5B7" d="M27 20h1v1h-1zM28 20h1v1h-1z"/><path fill="#7DC7A3" d="M29 20h1v1h-1z"/><path fill="#65BF97" d="M30 20h1v1h-1zM31 20h1v1h-1zM32 20h1v1h-1zM33 20h1v1h-1zM34 20h1v1h-1zM35 20h1v1h-1z"/><path fill="#5FB991" d="M36 20h1v1h-1z"/><path fill="#13734B" d="M37 20h1v1h-1z"/><path fill="#006239" d="M38 20h1v1h-1zM39 20h1v1h-1zM40 20h1v1h-1z"/><path fill="#207F56" d="M41 20h1v1h-1z"/><path fill="#197951" d="M42 20h1v1h-1z"/><path fill="#0D6E45" d="M43 20h1v1h-1z"/><path fill="#006239" d="M44 20h1v1h-1zM45 20h1v1h-1zM46 20h1v1h-1zM47 20h1v1h-1zM48 20h1v1h-1zM49 20h1v1h-1zM50 20h1v1h-1zM51 20h1v1h-1zM52 20h1v1h-1zM53 20h1v1h-1zM54 20h1v1h-1zM55 20h1v1h-1zM56 20h1v1h-1zM57 20h1v1h-1zM58 20h1v1h-1z"/><path fill="#13734B" d="M59 20h1v1h-1z"/><path fill="#65BF97" d="M60 20h1v1h-1zM61 20h1v1h-1zM62 20h1v1h-1zM63 20h1v1h-1z"/><path fill="#19A380" d="M64 20h1v1h-1z"/><path fill="#009A78" d="M65 20h1v1h-1zM66 20h1v1h-1z"/><path fill="#231815" d="M67 20h1v1h-1zM68 20h1v1h-1zM69 20h1v1h-1zM15 21h1v1h-1zM16 21h1v1h-1zM17 21h1v1h-1z"/><path fill="#43473E" d="M18 21h1v1h-1z"/><path fill="#A4D5B7" d="M19 21h1v1h-1zM20 21h1v1h-1zM21 21h1v1h-1z"/><path fill="#097A5F" d="M22 21h1v1h-1z"/><path fill="#0B7159" d="M23 21h1v1h-1z"/><path fill="#125947" d="M24 21h1v1h-1z"/><path fill="#15755D" d="M25 21h1v1h-1z"/><path fill="#A4D5B7" d="M26 21h1v1h-1zM27 21h1v1h-1zM28 21h1v1h-1z"/><path fill="#9CD2B3" d="M29 21h1v1h-1z"/><path fill="#65BF97" d="M30 21h1v1h-1zM31 21h1v1h-1zM32 21h1v1h-1zM33 21h1v1h-1zM34 21h1v1h-1zM35 21h1v1h-1zM36 21h1v1h-1z"/><path fill="#58B38B" d="M37 21h1v1h-1z"/><path fill="#06683F" d="M38 21h1v1h-1z"/><path fill="#006239" d="M39 21h1v1h-1zM40 21h1v1h-1zM41 21h1v1h-1zM42 21h1v1h-1zM43 21h1v1h-1zM44 21h1v1h-1zM45 21h1v1h-1zM46 21h1v1h-1zM47 21h1v1h-1zM48 21h1v1h-1zM49 21h1v1h-1zM50 21h1v1h-1zM51 21h1v1h-1zM52 21h1v1h-1zM53 21h1v1h-1zM54 21h1v1h-1zM55 21h1v1h-1zM56 21h1v1h-1zM57 21h1v1h-1zM58 21h1v1h-1zM59 21h1v1h-1z"/><path fill="#4CA880" d="M60 21h1v1h-1z"/><path fill="#65BF97" d="M61 21h1v1h-1zM62 21h1v1h-1zM63 21h1v1h-1z"/><path fill="#19A380" d="M64 21h1v1h-1z"/><path fill="#009A78" d="M65 21h1v1h-1zM66 21h1v1h-1z"/><path fill="#1F2821" d="M67 21h1v1h-1z"/><path fill="#231815" d="M68 21h1v1h-1zM69 21h1v1h-1zM70 21h1v1h-1zM15 22h1v1h-1zM16 22h1v1h-1zM17 22h1v1h-1z"/><path fill="#5B6B5C" d="M18 22h1v1h-1z"/><path fill="#A4D5B7" d="M19 22h1v1h-1zM20 22h1v1h-1z"/><path fill="#9AD1B3" d="M21 22h1v1h-1z"/><path fill="#009A78" d="M22 22h1v1h-1zM23 22h1v1h-1zM24 22h1v1h-1zM25 22h1v1h-1z"/><path fill="#67BF9F" d="M26 22h1v1h-1z"/><path fill="#A4D5B7" d="M27 22h1v1h-1zM28 22h1v1h-1zM29 22h1v1h-1z"/><path fill="#71C39D" d="M30 22h1v1h-1z"/><path fill="#65BF97" d="M31 22h1v1h-1zM32 22h1v1h-1zM33 22h1v1h-1zM34 22h1v1h-1zM35 22h1v1h-1zM36 22h1v1h-1zM37 22h1v1h-1z"/><path fill="#52AE85" d="M38 22h1v1h-1z"/><path fill="#006239" d="M39 22h1v1h-1zM40 22h1v1h-1zM41 22h1v1h-1zM42 22h1v1h-1zM43 22h1v1h-1zM44 22h1v1h-1zM45 22h1v1h-1zM46 22h1v1h-1zM47 22h1v1h-1zM48 22h1v1h-1z"/><path fill="#06683F" d="M49 22h1v1h-1z"/><path fill="#197951" d="M50 22h1v1h-1zM51 22h1v1h-1zM52 22h1v1h-1zM53 22h1v1h-1z"/><path fill="#207F56" d="M54 22h1v1h-1z"/><path fill="#26855C" d="M55 22h1v1h-1z"/><path fill="#197951" d="M56 22h1v1h-1z"/><path fill="#006239" d="M57 22h1v1h-1zM58 22h1v1h-1zM59 22h1v1h-1z"/><path fill="#4CA880" d="M60 22h1v1h-1z"/><path fill="#65BF97" d="M61 22h1v1h-1zM62 22h1v1h-1zM63 22h1v1h-1z"/><path fill="#19A380" d="M64 22h1v1h-1z"/><path fill="#009A78" d="M65 22h1v1h-1zM66 22h1v1h-1z"/><path fill="#1A392E" d="M67 22h1v1h-1z"/><path fill="#231815" d="M68 22h1v1h-1zM69 22h1v1h-1zM70 22h1v1h-1zM15 23h1v1h-1zM16 23h1v1h-1zM17 23h1v1h-1z"/><path fill="#647766" d="M18 23h1v1h-1z"/><path fill="#A4D5B7" d="M19 23h1v1h-1zM20 23h1v1h-1z"/><path fill="#7BC6A7" d="M21 23h1v1h-1z"/><path fill="#009A78" d="M22 23h1v1h-1zM23 23h1v1h-1zM24 23h1v1h-1zM25 23h1v1h-1z"/><path fill="#0A9E7C" d="M26 23h1v1h-1z"/><path fill="#9AD1B3" d="M27 23h1v1h-1z"/><path fill="#A4D5B7" d="M28 23h1v1h-1zM29 23h1v1h-1z"/><path fill="#81C9A5" d="M30 23h1v1h-1z"/><path fill="#65BF97" d="M31 23h1v1h-1zM32 23h1v1h-1zM33 23h1v1h-1zM34 23h1v1h-1zM35 23h1v1h-1zM36 23h1v1h-1zM37 23h1v1h-1zM38 23h1v1h-1z"/><path fill="#45A27A" d="M39 23h1v1h-1z"/><path fill="#197951" d="M40 23h1v1h-1z"/><path fill="#207F56" d="M41 23h1v1h-1z"/><path fill="#339168" d="M42 23h1v1h-1zM43 23h1v1h-1z"/><path fill="#4CA880" d="M44 23h1v1h-1zM45 23h1v1h-1z"/><path fill="#58B38B" d="M46 23h1v1h-1z"/><path fill="#65BF97" d="M47 23h1v1h-1zM48 23h1v1h-1zM49 23h1v1h-1zM50 23h1v1h-1zM51 23h1v1h-1zM52 23h1v1h-1zM53 23h1v1h-1zM54 23h1v1h-1zM55 23h1v1h-1zM56 23h1v1h-1z"/><path fill="#006239" d="M57 23h1v1h-1zM58 23h1v1h-1zM59 23h1v1h-1z"/><path fill="#4CA880" d="M60 23h1v1h-1z"/><path fill="#65BF97" d="M61 23h1v1h-1zM62 23h1v1h-1zM63 23h1v1h-1z"/><path fill="#19A380" d="M64 23h1v1h-1z"/><path fill="#009A78" d="M65 23h1v1h-1zM66 23h1v1h-1z"/><path fill="#184134" d="M67 23h1v1h-1z"/><path fill="#231815" d="M68 23h1v1h-1zM69 23h1v1h-1zM70 23h1v1h-1zM15 24h1v1h-1zM16 24h1v1h-1zM17 24h1v1h-1z"/><path fill="#647766" d="M18 24h1v1h-1z"/><path fill="#A4D5B7" d="M19 24h1v1h-1zM20 24h1v1h-1z"/><path fill="#7BC6A7" d="M21 24h1v1h-1z"/><path fill="#009A78" d="M22 24h1v1h-1zM23 24h1v1h-1zM24 24h1v1h-1zM25 24h1v1h-1zM26 24h1v1h-1z"/><path fill="#33AC8C" d="M27 24h1v1h-1z"/><path fill="#A4D5B7" d="M28 24h1v1h-1zM29 24h1v1h-1z"/><path fill="#7DC7A3" d="M30 24h1v1h-1z"/><path fill="#65BF97" d="M31 24h1v1h-1zM32 24h1v1h-1zM33 24h1v1h-1zM34 24h1v1h-1zM35 24h1v1h-1zM36 24h1v1h-1zM37 24h1v1h-1zM38 24h1v1h-1zM39 24h1v1h-1zM40 24h1v1h-1zM41 24h1v1h-1zM42 24h1v1h-1zM43 24h1v1h-1zM44 24h1v1h-1zM45 24h1v1h-1zM46 24h1v1h-1zM47 24h1v1h-1zM48 24h1v1h-1zM49 24h1v1h-1zM50 24h1v1h-1zM51 24h1v1h-1zM52 24h1v1h-1zM53 24h1v1h-1zM54 24h1v1h-1zM55 24h1v1h-1zM56 24h1v1h-1z"/><path fill="#006239" d="M57 24h1v1h-1zM58 24h1v1h-1zM59 24h1v1h-1z"/><path fill="#4CA880" d="M60 24h1v1h-1z"/><path fill="#65BF97" d="M61 24h1v1h-1zM62 24h1v1h-1zM63 24h1v1h-1z"/><path fill="#069C7A" d="M64 24h1v1h-1z"/><path fill="#009A78" d="M65 24h1v1h-1zM66 24h1v1h-1z"/><path fill="#125947" d="M67 24h1v1h-1z"/><path fill="#231815" d="M68 24h1v1h-1zM69 24h1v1h-1zM70 24h1v1h-1zM15 25h1v1h-1zM16 25h1v1h-1zM17 25h1v1h-1z"/><path fill="#6C8270" d="M18 25h1v1h-1z"/><path fill="#A4D5B7" d="M19 25h1v1h-1zM20 25h1v1h-1z"/><path fill="#7BC6A7" d="M21 25h1v1h-1z"/><path fill="#009A78" d="M22 25h1v1h-1zM23 25h1v1h-1zM24 25h1v1h-1zM25 25h1v1h-1zM26 25h1v1h-1zM27 25h1v1h-1z"/><path fill="#5CBB97" d="M28 25h1v1h-1z"/><path fill="#85CAA7" d="M29 25h1v1h-1z"/><path fill="#69C099" d="M30 25h1v1h-1z"/><path fill="#65BF97" d="M31 25h1v1h-1zM32 25h1v1h-1zM33 25h1v1h-1zM34 25h1v1h-1z"/><path fill="#69C099" d="M35 25h1v1h-1z"/><path fill="#75C59F" d="M36 25h1v1h-1zM37 25h1v1h-1z"/><path fill="#7DC7A3" d="M38 25h1v1h-1z"/><path fill="#85CAA7" d="M39 25h1v1h-1zM40 25h1v1h-1z"/><path fill="#90CEAD" d="M41 25h1v1h-1z"/><path fill="#94D0AF" d="M42 25h1v1h-1zM43 25h1v1h-1z"/><path fill="#A4D5B7" d="M44 25h1v1h-1zM45 25h1v1h-1zM46 25h1v1h-1z"/><path fill="#A0D4B5" d="M47 25h1v1h-1z"/><path fill="#71C39D" d="M48 25h1v1h-1z"/><path fill="#65BF97" d="M49 25h1v1h-1zM50 25h1v1h-1zM51 25h1v1h-1zM52 25h1v1h-1zM53 25h1v1h-1zM54 25h1v1h-1zM55 25h1v1h-1z"/><path fill="#52AE85" d="M56 25h1v1h-1z"/><path fill="#006239" d="M57 25h1v1h-1zM58 25h1v1h-1zM59 25h1v1h-1z"/><path fill="#52AE85" d="M60 25h1v1h-1z"/><path fill="#65BF97" d="M61 25h1v1h-1zM62 25h1v1h-1z"/><path fill="#5FBD95" d="M63 25h1v1h-1z"/><path fill="#009A78" d="M64 25h1v1h-1zM65 25h1v1h-1zM66 25h1v1h-1z"/><path fill="#125947" d="M67 25h1v1h-1z"/><path fill="#231815" d="M68 25h1v1h-1zM69 25h1v1h-1zM70 25h1v1h-1zM15 26h1v1h-1zM16 26h1v1h-1zM17 26h1v1h-1z"/><path fill="#84A68F" d="M18 26h1v1h-1z"/><path fill="#A4D5B7" d="M19 26h1v1h-1zM20 26h1v1h-1z"/><path fill="#7BC6A7" d="M21 26h1v1h-1z"/><path fill="#009A78" d="M22 26h1v1h-1zM23 26h1v1h-1zM24 26h1v1h-1zM25 26h1v1h-1zM26 26h1v1h-1zM27 26h1v1h-1z"/><path fill="#13A17E" d="M28 26h1v1h-1z"/><path fill="#65BF97" d="M29 26h1v1h-1zM30 26h1v1h-1z"/><path fill="#7DC7A3" d="M31 26h1v1h-1z"/><path fill="#94D0AF" d="M32 26h1v1h-1z"/><path fill="#A0D4B5" d="M33 26h1v1h-1z"/><path fill="#A4D5B7" d="M34 26h1v1h-1zM35 26h1v1h-1zM36 26h1v1h-1zM37 26h1v1h-1zM38 26h1v1h-1zM39 26h1v1h-1zM40 26h1v1h-1zM41 26h1v1h-1zM42 26h1v1h-1zM43 26h1v1h-1zM44 26h1v1h-1zM45 26h1v1h-1zM46 26h1v1h-1zM47 26h1v1h-1z"/><path fill="#8CCDAB" d="M48 26h1v1h-1z"/><path fill="#65BF97" d="M49 26h1v1h-1zM50 26h1v1h-1zM51 26h1v1h-1zM52 26h1v1h-1zM53 26h1v1h-1zM54 26h1v1h-1zM55 26h1v1h-1z"/><path fill="#4CA880" d="M56 26h1v1h-1z"/><path fill="#006239" d="M57 26h1v1h-1zM58 26h1v1h-1zM59 26h1v1h-1z"/><path fill="#65BF97" d="M60 26h1v1h-1zM61 26h1v1h-1zM62 26h1v1h-1z"/><path fill="#45B38D" d="M63 26h1v1h-1z"/><path fill="#009A78" d="M64 26h1v1h-1zM65 26h1v1h-1zM66 26h1v1h-1z"/><path fill="#125947" d="M67 26h1v1h-1z"/><path fill="#231815" d="M68 26h1v1h-1zM69 26h1v1h-1zM70 26h1v1h-1zM15 27h1v1h-1zM16 27h1v1h-1zM17 27h1v1h-1z"/><path fill="#84A68F" d="M18 27h1v1h-1z"/><path fill="#A4D5B7" d="M19 27h1v1h-1zM20 27h1v1h-1z"/><path fill="#7BC6A7" d="M21 27h1v1h-1z"/><path fill="#009A78" d="M22 27h1v1h-1zM23 27h1v1h-1zM24 27h1v1h-1zM25 27h1v1h-1zM26 27h1v1h-1zM27 27h1v1h-1zM28 27h1v1h-1z"/><path fill="#39AF89" d="M29 27h1v1h-1z"/><path fill="#81C9A5" d="M30 27h1v1h-1z"/><path fill="#A4D5B7" d="M31 27h1v1h-1zM32 27h1v1h-1zM33 27h1v1h-1zM34 27h1v1h-1zM35 27h1v1h-1zM36 27h1v1h-1zM37 27h1v1h-1zM38 27h1v1h-1zM39 27h1v1h-1zM40 27h1v1h-1zM41 27h1v1h-1zM42 27h1v1h-1zM43 27h1v1h-1zM44 27h1v1h-1zM45 27h1v1h-1zM46 27h1v1h-1zM47 27h1v1h-1z"/><path fill="#9CD2B3" d="M48 27h1v1h-1z"/><path fill="#65BF97" d="M49 27h1v1h-1zM50 27h1v1h-1zM51 27h1v1h-1zM52 27h1v1h-1zM53 27h1v1h-1zM54 27h1v1h-1zM55 27h1v1h-1z"/><path fill="#3F9C74" d="M56 27h1v1h-1z"/><path fill="#006239" d="M57 27h1v1h-1zM58 27h1v1h-1zM59 27h1v1h-1z"/><path fill="#65BF97" d="M60 27h1v1h-1zM61 27h1v1h-1zM62 27h1v1h-1z"/><path fill="#2CAA86" d="M63 27h1v1h-1z"/><path fill="#009A78" d="M64 27h1v1h-1zM65 27h1v1h-1zM66 27h1v1h-1z"/><path fill="#125947" d="M67 27h1v1h-1z"/><path fill="#231815" d="M68 27h1v1h-1zM69 27h1v1h-1zM70 27h1v1h-1zM15 28h1v1h-1zM16 28h1v1h-1zM17 28h1v1h-1z"/><path fill="#84A68F" d="M18 28h1v1h-1z"/><path fill="#A4D5B7" d="M19 28h1v1h-1zM20 28h1v1h-1z"/><path fill="#71C3A3" d="M21 28h1v1h-1z"/><path fill="#009A78" d="M22 28h1v1h-1zM23 28h1v1h-1zM24 28h1v1h-1zM25 28h1v1h-1zM26 28h1v1h-1zM27 28h1v1h-1zM28 28h1v1h-1zM29 28h1v1h-1z"/><path fill="#4DB693" d="M30 28h1v1h-1z"/><path fill="#A4D5B7" d="M31 28h1v1h-1zM32 28h1v1h-1zM33 28h1v1h-1zM34 28h1v1h-1zM35 28h1v1h-1zM36 28h1v1h-1zM37 28h1v1h-1z"/><path fill="#9AD1B3" d="M38 28h1v1h-1z"/><path fill="#7BC6A7" d="M39 28h1v1h-1zM40 28h1v1h-1z"/><path fill="#71C3A3" d="M41 28h1v1h-1z"/><path fill="#52B898" d="M42 28h1v1h-1zM43 28h1v1h-1z"/><path fill="#3EB090" d="M44 28h1v1h-1z"/><path fill="#48B494" d="M45 28h1v1h-1z"/><path fill="#A4D5B7" d="M46 28h1v1h-1zM47 28h1v1h-1zM48 28h1v1h-1z"/><path fill="#71C39D" d="M49 28h1v1h-1z"/><path fill="#65BF97" d="M50 28h1v1h-1zM51 28h1v1h-1zM52 28h1v1h-1zM53 28h1v1h-1zM54 28h1v1h-1zM55 28h1v1h-1z"/><path fill="#339168" d="M56 28h1v1h-1z"/><path fill="#006239" d="M57 28h1v1h-1zM58 28h1v1h-1z"/><path fill="#197951" d="M59 28h1v1h-1z"/><path fill="#65BF97" d="M60 28h1v1h-1zM61 28h1v1h-1zM62 28h1v1h-1z"/><path fill="#13A17E" d="M63 28h1v1h-1z"/><path fill="#009A78" d="M64 28h1v1h-1zM65 28h1v1h-1zM66 28h1v1h-1z"/><path fill="#125947" d="M67 28h1v1h-1z"/><path fill="#231815" d="M68 28h1v1h-1zM69 28h1v1h-1zM70 28h1v1h-1zM15 29h1v1h-1zM16 29h1v1h-1zM17 29h1v1h-1z"/><path fill="#9CC9AD" d="M18 29h1v1h-1z"/><path fill="#A4D5B7" d="M19 29h1v1h-1zM20 29h1v1h-1z"/><path fill="#52B898" d="M21 29h1v1h-1z"/><path fill="#009A78" d="M22 29h1v1h-1zM23 29h1v1h-1zM24 29h1v1h-1zM25 29h1v1h-1zM26 29h1v1h-1zM27 29h1v1h-1zM28 29h1v1h-1zM29 29h1v1h-1zM30 29h1v1h-1z"/><path fill="#0A9E7C" d="M31 29h1v1h-1z"/><path fill="#29A988" d="M32 29h1v1h-1zM33 29h1v1h-1zM34 29h1v1h-1zM35 29h1v1h-1z"/><path fill="#009A78" d="M36 29h1v1h-1zM37 29h1v1h-1zM38 29h1v1h-1zM39 29h1v1h-1zM40 29h1v1h-1zM41 29h1v1h-1zM42 29h1v1h-1zM43 29h1v1h-1zM44 29h1v1h-1zM45 29h1v1h-1z"/><path fill="#9AD1B3" d="M46 29h1v1h-1z"/><path fill="#A4D5B7" d="M47 29h1v1h-1zM48 29h1v1h-1z"/><path fill="#81C9A5" d="M49 29h1v1h-1z"/><path fill="#65BF97" d="M50 29h1v1h-1zM51 29h1v1h-1zM52 29h1v1h-1zM53 29h1v1h-1zM54 29h1v1h-1zM55 29h1v1h-1z"/><path fill="#26855C" d="M56 29h1v1h-1z"/><path fill="#006239" d="M57 29h1v1h-1zM58 29h1v1h-1z"/><path fill="#197951" d="M59 29h1v1h-1z"/><path fill="#65BF97" d="M60 29h1v1h-1zM61 29h1v1h-1z"/><path fill="#58BA93" d="M62 29h1v1h-1z"/><path fill="#009A78" d="M63 29h1v1h-1zM64 29h1v1h-1zM65 29h1v1h-1zM66 29h1v1h-1z"/><path fill="#125947" d="M67 29h1v1h-1z"/><path fill="#231815" d="M68 29h1v1h-1zM69 29h1v1h-1zM70 29h1v1h-1zM15 30h1v1h-1zM16 30h1v1h-1zM17 30h1v1h-1z"/><path fill="#A4D5B7" d="M18 30h1v1h-1zM19 30h1v1h-1zM20 30h1v1h-1z"/><path fill="#3EB090" d="M21 30h1v1h-1z"/><path fill="#009A78" d="M22 30h1v1h-1zM23 30h1v1h-1zM24 30h1v1h-1zM25 30h1v1h-1zM26 30h1v1h-1zM27 30h1v1h-1zM28 30h1v1h-1zM29 30h1v1h-1zM30 30h1v1h-1zM31 30h1v1h-1zM32 30h1v1h-1zM33 30h1v1h-1zM34 30h1v1h-1zM35 30h1v1h-1zM36 30h1v1h-1zM37 30h1v1h-1zM38 30h1v1h-1zM39 30h1v1h-1zM40 30h1v1h-1zM41 30h1v1h-1zM42 30h1v1h-1zM43 30h1v1h-1zM44 30h1v1h-1zM45 30h1v1h-1z"/><path fill="#71C3A3" d="M46 30h1v1h-1z"/><path fill="#A4D5B7" d="M47 30h1v1h-1zM48 30h1v1h-1z"/><path fill="#94D0AF" d="M49 30h1v1h-1z"/><path fill="#65BF97" d="M50 30h1v1h-1zM51 30h1v1h-1zM52 30h1v1h-1zM53 30h1v1h-1zM54 30h1v1h-1zM55 30h1v1h-1z"/><path fill="#197951" d="M56 30h1v1h-1z"/><path fill="#006239" d="M57 30h1v1h-1zM58 30h1v1h-1z"/><path fill="#339168" d="M59 30h1v1h-1z"/><path fill="#65BF97" d="M60 30h1v1h-1zM61 30h1v1h-1z"/><path fill="#39AF89" d="M62 30h1v1h-1z"/><path fill="#009A78" d="M63 30h1v1h-1zM64 30h1v1h-1zM65 30h1v1h-1zM66 30h1v1h-1z"/><path fill="#125947" d="M67 30h1v1h-1z"/><path fill="#231815" d="M68 30h1v1h-1zM69 30h1v1h-1zM70 30h1v1h-1zM15 31h1v1h-1zM16 31h1v1h-1zM17 31h1v1h-1z"/><path fill="#A4D5B7" d="M18 31h1v1h-1zM19 31h1v1h-1zM20 31h1v1h-1z"/><path fill="#15A180" d="M21 31h1v1h-1z"/><path fill="#009A78" d="M22 31h1v1h-1zM23 31h1v1h-1zM24 31h1v1h-1zM25 31h1v1h-1zM26 31h1v1h-1zM27 31h1v1h-1zM28 31h1v1h-1z"/><path fill="#009573" d="M29 31h1v1h-1z"/><path fill="#008867" d="M30 31h1v1h-1z"/><path fill="#008664" d="M31 31h1v1h-1zM32 31h1v1h-1z"/><path fill="#008D6C" d="M33 31h1v1h-1z"/><path fill="#009776" d="M34 31h1v1h-1z"/><path fill="#009A78" d="M35 31h1v1h-1zM36 31h1v1h-1zM37 31h1v1h-1zM38 31h1v1h-1zM39 31h1v1h-1zM40 31h1v1h-1zM41 31h1v1h-1zM42 31h1v1h-1zM43 31h1v1h-1zM44 31h1v1h-1zM45 31h1v1h-1z"/><path fill="#3EB090" d="M46 31h1v1h-1z"/><path fill="#A4D5B7" d="M47 31h1v1h-1zM48 31h1v1h-1zM49 31h1v1h-1z"/><path fill="#69C099" d="M50 31h1v1h-1z"/><path fill="#65BF97" d="M51 31h1v1h-1zM52 31h1v1h-1zM53 31h1v1h-1zM54 31h1v1h-1zM55 31h1v1h-1z"/><path fill="#06683F" d="M56 31h1v1h-1z"/><path fill="#006239" d="M57 31h1v1h-1zM58 31h1v1h-1z"/><path fill="#39966E" d="M59 31h1v1h-1z"/><path fill="#65BF97" d="M60 31h1v1h-1zM61 31h1v1h-1z"/><path fill="#13A17E" d="M62 31h1v1h-1z"/><path fill="#009A78" d="M63 31h1v1h-1zM64 31h1v1h-1zM65 31h1v1h-1zM66 31h1v1h-1z"/><path fill="#184134" d="M67 31h1v1h-1z"/><path fill="#231815" d="M68 31h1v1h-1zM69 31h1v1h-1zM70 31h1v1h-1zM14 32h1v1h-1zM15 32h1v1h-1zM16 32h1v1h-1z"/><path fill="#2B241F" d="M17 32h1v1h-1z"/><path fill="#A4D5B7" d="M18 32h1v1h-1zM19 32h1v1h-1z"/><path fill="#5CBB9B" d="M20 32h1v1h-1z"/><path fill="#009A78" d="M21 32h1v1h-1zM22 32h1v1h-1zM23 32h1v1h-1zM24 32h1v1h-1zM25 32h1v1h-1zM26 32h1v1h-1z"/><path fill="#009573" d="M27 32h1v1h-1z"/><path fill="#00805F" d="M28 32h1v1h-1z"/><path fill="#007150" d="M29 32h1v1h-1zM30 32h1v1h-1zM31 32h1v1h-1zM32 32h1v1h-1zM33 32h1v1h-1zM34 32h1v1h-1z"/><path fill="#007E5D" d="M35 32h1v1h-1z"/><path fill="#00906E" d="M36 32h1v1h-1z"/><path fill="#009A78" d="M37 32h1v1h-1zM38 32h1v1h-1zM39 32h1v1h-1zM40 32h1v1h-1zM41 32h1v1h-1zM42 32h1v1h-1zM43 32h1v1h-1zM44 32h1v1h-1zM45 32h1v1h-1z"/><path fill="#15A180" d="M46 32h1v1h-1z"/><path fill="#A4D5B7" d="M47 32h1v1h-1zM48 32h1v1h-1zM49 32h1v1h-1z"/><path fill="#79C6A1" d="M50 32h1v1h-1z"/><path fill="#65BF97" d="M51 32h1v1h-1zM52 32h1v1h-1zM53 32h1v1h-1zM54 32h1v1h-1zM55 32h1v1h-1z"/><path fill="#006239" d="M56 32h1v1h-1zM57 32h1v1h-1zM58 32h1v1h-1z"/><path fill="#4CA880" d="M59 32h1v1h-1z"/><path fill="#65BF97" d="M60 32h1v1h-1z"/><path fill="#58BA93" d="M61 32h1v1h-1z"/><path fill="#009A78" d="M62 32h1v1h-1zM63 32h1v1h-1zM64 32h1v1h-1zM65 32h1v1h-1zM66 32h1v1h-1z"/><path fill="#1A392E" d="M67 32h1v1h-1z"/><path fill="#231815" d="M68 32h1v1h-1zM69 32h1v1h-1zM70 32h1v1h-1zM14 33h1v1h-1zM15 33h1v1h-1zM16 33h1v1h-1z"/><path fill="#253C32" d="M17 33h1v1h-1z"/><path fill="#29A988" d="M18 33h1v1h-1z"/><path fill="#1FA584" d="M19 33h1v1h-1z"/><path fill="#009A78" d="M20 33h1v1h-1zM21 33h1v1h-1zM22 33h1v1h-1zM23 33h1v1h-1zM24 33h1v1h-1z"/><path fill="#009776" d="M25 33h1v1h-1z"/><path fill="#00805F" d="M26 33h1v1h-1z"/><path fill="#007150" d="M27 33h1v1h-1zM28 33h1v1h-1zM29 33h1v1h-1zM30 33h1v1h-1zM31 33h1v1h-1zM32 33h1v1h-1zM33 33h1v1h-1zM34 33h1v1h-1zM35 33h1v1h-1zM36 33h1v1h-1z"/><path fill="#007B5A" d="M37 33h1v1h-1z"/><path fill="#009573" d="M38 33h1v1h-1z"/><path fill="#009A78" d="M39 33h1v1h-1zM40 33h1v1h-1zM41 33h1v1h-1zM42 33h1v1h-1zM43 33h1v1h-1zM44 33h1v1h-1zM45 33h1v1h-1zM46 33h1v1h-1z"/><path fill="#85CAAB" d="M47 33h1v1h-1z"/><path fill="#A4D5B7" d="M48 33h1v1h-1zM49 33h1v1h-1z"/><path fill="#8CCDAB" d="M50 33h1v1h-1z"/><path fill="#65BF97" d="M51 33h1v1h-1zM52 33h1v1h-1zM53 33h1v1h-1zM54 33h1v1h-1z"/><path fill="#4CA880" d="M55 33h1v1h-1z"/><path fill="#006239" d="M56 33h1v1h-1zM57 33h1v1h-1zM58 33h1v1h-1z"/><path fill="#58B38B" d="M59 33h1v1h-1z"/><path fill="#65BF97" d="M60 33h1v1h-1z"/><path fill="#2CAA86" d="M61 33h1v1h-1z"/><path fill="#009A78" d="M62 33h1v1h-1zM63 33h1v1h-1zM64 33h1v1h-1zM65 33h1v1h-1zM66 33h1v1h-1z"/><path fill="#1A392E" d="M67 33h1v1h-1z"/><path fill="#231815" d="M68 33h1v1h-1zM69 33h1v1h-1zM70 33h1v1h-1zM14 34h1v1h-1zM15 34h1v1h-1zM16 34h1v1h-1z"/><path fill="#1A392E" d="M17 34h1v1h-1z"/><path fill="#009A78" d="M18 34h1v1h-1zM19 34h1v1h-1zM20 34h1v1h-1zM21 34h1v1h-1zM22 34h1v1h-1zM23 34h1v1h-1z"/><path fill="#008867" d="M24 34h1v1h-1z"/><path fill="#007453" d="M25 34h1v1h-1z"/><path fill="#007150" d="M26 34h1v1h-1zM27 34h1v1h-1zM28 34h1v1h-1zM29 34h1v1h-1zM30 34h1v1h-1z"/><path fill="#36893C" d="M31 34h1v1h-1z"/><path fill="#298341" d="M32 34h1v1h-1z"/><path fill="#007150" d="M33 34h1v1h-1zM34 34h1v1h-1zM35 34h1v1h-1zM36 34h1v1h-1zM37 34h1v1h-1z"/><path fill="#007453" d="M38 34h1v1h-1z"/><path fill="#008867" d="M39 34h1v1h-1z"/><path fill="#009A78" d="M40 34h1v1h-1zM41 34h1v1h-1zM42 34h1v1h-1zM43 34h1v1h-1zM44 34h1v1h-1zM45 34h1v1h-1zM46 34h1v1h-1z"/><path fill="#5CBB9B" d="M47 34h1v1h-1z"/><path fill="#A4D5B7" d="M48 34h1v1h-1zM49 34h1v1h-1z"/><path fill="#9CD2B3" d="M50 34h1v1h-1z"/><path fill="#65BF97" d="M51 34h1v1h-1zM52 34h1v1h-1zM53 34h1v1h-1zM54 34h1v1h-1z"/><path fill="#45A27A" d="M55 34h1v1h-1z"/><path fill="#006239" d="M56 34h1v1h-1zM57 34h1v1h-1zM58 34h1v1h-1z"/><path fill="#65BF97" d="M59 34h1v1h-1zM60 34h1v1h-1z"/><path fill="#069C7A" d="M61 34h1v1h-1z"/><path fill="#009A78" d="M62 34h1v1h-1zM63 34h1v1h-1zM64 34h1v1h-1zM65 34h1v1h-1zM66 34h1v1h-1z"/><path fill="#231815" d="M67 34h1v1h-1zM68 34h1v1h-1zM69 34h1v1h-1zM70 34h1v1h-1zM14 35h1v1h-1zM15 35h1v1h-1zM16 35h1v1h-1z"/><path fill="#1A392E" d="M17 35h1v1h-1z"/><path fill="#009A78" d="M18 35h1v1h-1zM19 35h1v1h-1zM20 35h1v1h-1zM21 35h1v1h-1z"/><path fill="#009271" d="M22 35h1v1h-1z"/><path fill="#007958" d="M23 35h1v1h-1z"/><path fill="#007150" d="M24 35h1v1h-1zM25 35h1v1h-1zM26 35h1v1h-1zM27 35h1v1h-1zM28 35h1v1h-1z"/><path fill="#519532" d="M29 35h1v1h-1z"/><path fill="#BEC50A" d="M30 35h1v1h-1z"/><path fill="#D9D100" d="M31 35h1v1h-1zM32 35h1v1h-1z"/><path fill="#CBCB05" d="M33 35h1v1h-1z"/><path fill="#6DA128" d="M34 35h1v1h-1z"/><path fill="#0E774B" d="M35 35h1v1h-1z"/><path fill="#007150" d="M36 35h1v1h-1zM37 35h1v1h-1zM38 35h1v1h-1zM39 35h1v1h-1z"/><path fill="#007E5D" d="M40 35h1v1h-1z"/><path fill="#009776" d="M41 35h1v1h-1z"/><path fill="#009A78" d="M42 35h1v1h-1zM43 35h1v1h-1zM44 35h1v1h-1zM45 35h1v1h-1zM46 35h1v1h-1z"/><path fill="#1FA584" d="M47 35h1v1h-1z"/><path fill="#A4D5B7" d="M48 35h1v1h-1zM49 35h1v1h-1zM50 35h1v1h-1z"/><path fill="#65BF97" d="M51 35h1v1h-1zM52 35h1v1h-1zM53 35h1v1h-1zM54 35h1v1h-1z"/><path fill="#339168" d="M55 35h1v1h-1z"/><path fill="#006239" d="M56 35h1v1h-1zM57 35h1v1h-1z"/><path fill="#13734B" d="M58 35h1v1h-1z"/><path fill="#65BF97" d="M59 35h1v1h-1z"/><path fill="#3FB18B" d="M60 35h1v1h-1z"/><path fill="#009A78" d="M61 35h1v1h-1zM62 35h1v1h-1zM63 35h1v1h-1zM64 35h1v1h-1zM65 35h1v1h-1zM66 35h1v1h-1z"/><path fill="#231815" d="M67 35h1v1h-1zM68 35h1v1h-1zM69 35h1v1h-1zM14 36h1v1h-1zM15 36h1v1h-1zM16 36h1v1h-1z"/><path fill="#145140" d="M17 36h1v1h-1z"/><path fill="#009A78" d="M18 36h1v1h-1zM19 36h1v1h-1z"/><path fill="#009776" d="M20 36h1v1h-1z"/><path fill="#008362" d="M21 36h1v1h-1z"/><path fill="#007150" d="M22 36h1v1h-1zM23 36h1v1h-1zM24 36h1v1h-1zM25 36h1v1h-1zM26 36h1v1h-1z"/><path fill="#519532" d="M27 36h1v1h-1z"/><path fill="#BEC50A" d="M28 36h1v1h-1z"/><path fill="#D9D100" d="M29 36h1v1h-1zM30 36h1v1h-1zM31 36h1v1h-1zM32 36h1v1h-1zM33 36h1v1h-1zM34 36h1v1h-1z"/><path fill="#CBCB05" d="M35 36h1v1h-1z"/><path fill="#5F9B2D" d="M36 36h1v1h-1z"/><path fill="#007150" d="M37 36h1v1h-1zM38 36h1v1h-1zM39 36h1v1h-1zM40 36h1v1h-1z"/><path fill="#007958" d="M41 36h1v1h-1z"/><path fill="#009776" d="M42 36h1v1h-1z"/><path fill="#009A78" d="M43 36h1v1h-1zM44 36h1v1h-1zM45 36h1v1h-1zM46 36h1v1h-1zM47 36h1v1h-1z"/><path fill="#7BC6A7" d="M48 36h1v1h-1z"/><path fill="#A4D5B7" d="M49 36h1v1h-1z"/><path fill="#A0D4B5" d="M50 36h1v1h-1z"/><path fill="#65BF97" d="M51 36h1v1h-1zM52 36h1v1h-1zM53 36h1v1h-1zM54 36h1v1h-1z"/><path fill="#339168" d="M55 36h1v1h-1z"/><path fill="#006239" d="M56 36h1v1h-1zM57 36h1v1h-1zM58 36h1v1h-1z"/><path fill="#3F9C74" d="M59 36h1v1h-1z"/><path fill="#13A17E" d="M60 36h1v1h-1z"/><path fill="#009A78" d="M61 36h1v1h-1zM62 36h1v1h-1zM63 36h1v1h-1zM64 36h1v1h-1zM65 36h1v1h-1z"/><path fill="#078265" d="M66 36h1v1h-1z"/><path fill="#231815" d="M67 36h1v1h-1zM68 36h1v1h-1zM69 36h1v1h-1zM14 37h1v1h-1zM15 37h1v1h-1zM16 37h1v1h-1z"/><path fill="#125947" d="M17 37h1v1h-1z"/><path fill="#009A78" d="M18 37h1v1h-1z"/><path fill="#00906E" d="M19 37h1v1h-1z"/><path fill="#007655" d="M20 37h1v1h-1z"/><path fill="#007150" d="M21 37h1v1h-1zM22 37h1v1h-1zM23 37h1v1h-1zM24 37h1v1h-1z"/><path fill="#298341" d="M25 37h1v1h-1z"/><path fill="#A3B914" d="M26 37h1v1h-1z"/><path fill="#D9D100" d="M27 37h1v1h-1zM28 37h1v1h-1zM29 37h1v1h-1zM30 37h1v1h-1zM31 37h1v1h-1zM32 37h1v1h-1zM33 37h1v1h-1zM34 37h1v1h-1zM35 37h1v1h-1zM36 37h1v1h-1z"/><path fill="#A3B914" d="M37 37h1v1h-1z"/><path fill="#0E774B" d="M38 37h1v1h-1z"/><path fill="#007150" d="M39 37h1v1h-1zM40 37h1v1h-1zM41 37h1v1h-1z"/><path fill="#007958" d="M42 37h1v1h-1z"/><path fill="#009776" d="M43 37h1v1h-1z"/><path fill="#009A78" d="M44 37h1v1h-1zM45 37h1v1h-1zM46 37h1v1h-1zM47 37h1v1h-1z"/><path fill="#0A9E7C" d="M48 37h1v1h-1z"/><path fill="#80C8A7" d="M49 37h1v1h-1z"/><path fill="#7DC7A3" d="M50 37h1v1h-1z"/><path fill="#65BF97" d="M51 37h1v1h-1zM52 37h1v1h-1zM53 37h1v1h-1zM54 37h1v1h-1z"/><path fill="#52AE85" d="M55 37h1v1h-1z"/><path fill="#006239" d="M56 37h1v1h-1zM57 37h1v1h-1zM58 37h1v1h-1zM59 37h1v1h-1z"/><path fill="#008964" d="M60 37h1v1h-1z"/><path fill="#009A78" d="M61 37h1v1h-1zM62 37h1v1h-1zM63 37h1v1h-1zM64 37h1v1h-1zM65 37h1v1h-1z"/><path fill="#097A5F" d="M66 37h1v1h-1z"/><path fill="#231815" d="M67 37h1v1h-1zM68 37h1v1h-1zM69 37h1v1h-1zM14 38h1v1h-1zM15 38h1v1h-1zM16 38h1v1h-1z"/><path fill="#125644" d="M17 38h1v1h-1z"/><path fill="#008362" d="M18 38h1v1h-1z"/><path fill="#007150" d="M19 38h1v1h-1zM20 38h1v1h-1zM21 38h1v1h-1zM22 38h1v1h-1z"/><path fill="#0E774B" d="M23 38h1v1h-1z"/><path fill="#7AA723" d="M24 38h1v1h-1z"/><path fill="#D9D100" d="M25 38h1v1h-1zM26 38h1v1h-1zM27 38h1v1h-1zM28 38h1v1h-1zM29 38h1v1h-1zM30 38h1v1h-1zM31 38h1v1h-1zM32 38h1v1h-1zM33 38h1v1h-1zM34 38h1v1h-1zM35 38h1v1h-1zM36 38h1v1h-1zM37 38h1v1h-1z"/><path fill="#CBCB05" d="M38 38h1v1h-1z"/><path fill="#298341" d="M39 38h1v1h-1z"/><path fill="#007150" d="M40 38h1v1h-1zM41 38h1v1h-1zM42 38h1v1h-1z"/><path fill="#007958" d="M43 38h1v1h-1z"/><path fill="#009776" d="M44 38h1v1h-1z"/><path fill="#009A78" d="M45 38h1v1h-1zM46 38h1v1h-1zM47 38h1v1h-1zM48 38h1v1h-1z"/><path fill="#2CAA86" d="M49 38h1v1h-1z"/><path fill="#65BF97" d="M50 38h1v1h-1zM51 38h1v1h-1zM52 38h1v1h-1zM53 38h1v1h-1zM54 38h1v1h-1zM55 38h1v1h-1z"/><path fill="#3F9C74" d="M56 38h1v1h-1z"/><path fill="#006239" d="M57 38h1v1h-1zM58 38h1v1h-1zM59 38h1v1h-1z"/><path fill="#00663D" d="M60 38h1v1h-1z"/><path fill="#00906C" d="M61 38h1v1h-1z"/><path fill="#009A78" d="M62 38h1v1h-1zM63 38h1v1h-1zM64 38h1v1h-1zM65 38h1v1h-1z"/><path fill="#125947" d="M66 38h1v1h-1z"/><path fill="#231815" d="M67 38h1v1h-1zM68 38h1v1h-1zM69 38h1v1h-1zM14 39h1v1h-1zM15 39h1v1h-1zM16 39h1v1h-1z"/><path fill="#0F4A36" d="M17 39h1v1h-1z"/><path fill="#007150" d="M18 39h1v1h-1zM19 39h1v1h-1zM20 39h1v1h-1zM21 39h1v1h-1z"/><path fill="#448F37" d="M22 39h1v1h-1z"/><path fill="#CBCB05" d="M23 39h1v1h-1z"/><path fill="#D9D100" d="M24 39h1v1h-1zM25 39h1v1h-1zM26 39h1v1h-1zM27 39h1v1h-1zM28 39h1v1h-1zM29 39h1v1h-1zM30 39h1v1h-1zM31 39h1v1h-1zM32 39h1v1h-1zM33 39h1v1h-1zM34 39h1v1h-1zM35 39h1v1h-1zM36 39h1v1h-1zM37 39h1v1h-1zM38 39h1v1h-1z"/><path fill="#CBCB05" d="M39 39h1v1h-1z"/><path fill="#298341" d="M40 39h1v1h-1z"/><path fill="#007150" d="M41 39h1v1h-1zM42 39h1v1h-1zM43 39h1v1h-1z"/><path fill="#007958" d="M44 39h1v1h-1z"/><path fill="#009776" d="M45 39h1v1h-1z"/><path fill="#009A78" d="M46 39h1v1h-1zM47 39h1v1h-1zM48 39h1v1h-1z"/><path fill="#069C7A" d="M49 39h1v1h-1z"/><path fill="#5FBD95" d="M50 39h1v1h-1z"/><path fill="#65BF97" d="M51 39h1v1h-1zM52 39h1v1h-1zM53 39h1v1h-1zM54 39h1v1h-1zM55 39h1v1h-1zM56 39h1v1h-1z"/><path fill="#3F9C74" d="M57 39h1v1h-1z"/><path fill="#006239" d="M58 39h1v1h-1zM59 39h1v1h-1zM60 39h1v1h-1z"/><path fill="#00663D" d="M61 39h1v1h-1z"/><path fill="#00906C" d="M62 39h1v1h-1z"/><path fill="#009A78" d="M63 39h1v1h-1zM64 39h1v1h-1zM65 39h1v1h-1z"/><path fill="#16493A" d="M66 39h1v1h-1z"/><path fill="#231815" d="M67 39h1v1h-1zM68 39h1v1h-1zM69 39h1v1h-1zM14 40h1v1h-1zM15 40h1v1h-1zM16 40h1v1h-1z"/><path fill="#0B553E" d="M17 40h1v1h-1z"/><path fill="#007150" d="M18 40h1v1h-1zM19 40h1v1h-1z"/><path fill="#1B7D46" d="M20 40h1v1h-1z"/><path fill="#A3B914" d="M21 40h1v1h-1z"/><path fill="#D9D100" d="M22 40h1v1h-1zM23 40h1v1h-1zM24 40h1v1h-1zM25 40h1v1h-1zM26 40h1v1h-1zM27 40h1v1h-1zM28 40h1v1h-1zM29 40h1v1h-1zM30 40h1v1h-1zM31 40h1v1h-1zM32 40h1v1h-1zM33 40h1v1h-1zM34 40h1v1h-1zM35 40h1v1h-1zM36 40h1v1h-1zM37 40h1v1h-1zM38 40h1v1h-1zM39 40h1v1h-1z"/><path fill="#CBCB05" d="M40 40h1v1h-1z"/><path fill="#298341" d="M41 40h1v1h-1z"/><path fill="#007150" d="M42 40h1v1h-1zM43 40h1v1h-1zM44 40h1v1h-1z"/><path fill="#00805F" d="M45 40h1v1h-1z"/><path fill="#009A78" d="M46 40h1v1h-1zM47 40h1v1h-1zM48 40h1v1h-1zM49 40h1v1h-1z"/><path fill="#19A380" d="M50 40h1v1h-1z"/><path fill="#65BF97" d="M51 40h1v1h-1zM52 40h1v1h-1zM53 40h1v1h-1zM54 40h1v1h-1zM55 40h1v1h-1zM56 40h1v1h-1zM57 40h1v1h-1z"/><path fill="#3F9C74" d="M58 40h1v1h-1z"/><path fill="#006239" d="M59 40h1v1h-1zM60 40h1v1h-1zM61 40h1v1h-1z"/><path fill="#006D45" d="M62 40h1v1h-1z"/><path fill="#009774" d="M63 40h1v1h-1z"/><path fill="#009A78" d="M64 40h1v1h-1zM65 40h1v1h-1z"/><path fill="#1C3028" d="M66 40h1v1h-1z"/><path fill="#231815" d="M67 40h1v1h-1zM68 40h1v1h-1zM69 40h1v1h-1zM14 41h1v1h-1zM15 41h1v1h-1zM16 41h1v1h-1z"/><path fill="#1F231C" d="M17 41h1v1h-1z"/><path fill="#007150" d="M18 41h1v1h-1z"/><path fill="#5F9B2D" d="M19 41h1v1h-1z"/><path fill="#CBCB05" d="M20 41h1v1h-1z"/><path fill="#D9D100" d="M21 41h1v1h-1zM22 41h1v1h-1zM23 41h1v1h-1zM24 41h1v1h-1zM25 41h1v1h-1zM26 41h1v1h-1zM27 41h1v1h-1zM28 41h1v1h-1zM29 41h1v1h-1zM30 41h1v1h-1zM31 41h1v1h-1zM32 41h1v1h-1zM33 41h1v1h-1zM34 41h1v1h-1zM35 41h1v1h-1zM36 41h1v1h-1zM37 41h1v1h-1zM38 41h1v1h-1zM39 41h1v1h-1zM40 41h1v1h-1z"/><path fill="#CBCB05" d="M41 41h1v1h-1z"/><path fill="#298341" d="M42 41h1v1h-1z"/><path fill="#007150" d="M43 41h1v1h-1zM44 41h1v1h-1zM45 41h1v1h-1z"/><path fill="#008B69" d="M46 41h1v1h-1z"/><path fill="#009A78" d="M47 41h1v1h-1zM48 41h1v1h-1zM49 41h1v1h-1zM50 41h1v1h-1z"/><path fill="#26A884" d="M51 41h1v1h-1z"/><path fill="#65BF97" d="M52 41h1v1h-1zM53 41h1v1h-1zM54 41h1v1h-1zM55 41h1v1h-1zM56 41h1v1h-1zM57 41h1v1h-1zM58 41h1v1h-1z"/><path fill="#3F9C74" d="M59 41h1v1h-1z"/><path fill="#006239" d="M60 41h1v1h-1zM61 41h1v1h-1zM62 41h1v1h-1z"/><path fill="#006D45" d="M63 41h1v1h-1z"/><path fill="#009774" d="M64 41h1v1h-1z"/><path fill="#009A78" d="M65 41h1v1h-1z"/><path fill="#231815" d="M66 41h1v1h-1zM67 41h1v1h-1zM68 41h1v1h-1zM69 41h1v1h-1zM12 42h1v1h-1zM13 42h1v1h-1zM14 42h1v1h-1zM15 42h1v1h-1zM16 42h1v1h-1z"/><path fill="#2C2917" d="M17 42h1v1h-1z"/><path fill="#A3B914" d="M18 42h1v1h-1z"/><path fill="#D9D100" d="M19 42h1v1h-1zM20 42h1v1h-1zM21 42h1v1h-1zM22 42h1v1h-1zM23 42h1v1h-1zM24 42h1v1h-1zM25 42h1v1h-1zM26 42h1v1h-1zM27 42h1v1h-1zM28 42h1v1h-1zM29 42h1v1h-1zM30 42h1v1h-1zM31 42h1v1h-1zM32 42h1v1h-1zM33 42h1v1h-1zM34 42h1v1h-1zM35 42h1v1h-1zM36 42h1v1h-1zM37 42h1v1h-1zM38 42h1v1h-1zM39 42h1v1h-1zM40 42h1v1h-1zM41 42h1v1h-1z"/><path fill="#BEC50A" d="M42 42h1v1h-1z"/><path fill="#0E774B" d="M43 42h1v1h-1z"/><path fill="#007150" d="M44 42h1v1h-1zM45 42h1v1h-1z"/><path fill="#007453" d="M46 42h1v1h-1z"/><path fill="#009776" d="M47 42h1v1h-1z"/><path fill="#009A78" d="M48 42h1v1h-1zM49 42h1v1h-1zM50 42h1v1h-1zM51 42h1v1h-1z"/><path fill="#26A884" d="M52 42h1v1h-1z"/><path fill="#65BF97" d="M53 42h1v1h-1zM54 42h1v1h-1zM55 42h1v1h-1zM56 42h1v1h-1zM57 42h1v1h-1zM58 42h1v1h-1zM59 42h1v1h-1z"/><path fill="#2C8B62" d="M60 42h1v1h-1z"/><path fill="#006239" d="M61 42h1v1h-1zM62 42h1v1h-1zM63 42h1v1h-1z"/><path fill="#007751" d="M64 42h1v1h-1z"/><path fill="#097A5F" d="M65 42h1v1h-1z"/><path fill="#231815" d="M66 42h1v1h-1zM67 42h1v1h-1zM68 42h1v1h-1zM11 43h1v1h-1zM12 43h1v1h-1zM13 43h1v1h-1zM14 43h1v1h-1zM15 43h1v1h-1z"/><path fill="#453B11" d="M16 43h1v1h-1z"/><path fill="#C2BA03" d="M17 43h1v1h-1z"/><path fill="#D9D100" d="M18 43h1v1h-1zM19 43h1v1h-1zM20 43h1v1h-1zM21 43h1v1h-1zM22 43h1v1h-1zM23 43h1v1h-1zM24 43h1v1h-1zM25 43h1v1h-1zM26 43h1v1h-1zM27 43h1v1h-1zM28 43h1v1h-1zM29 43h1v1h-1zM30 43h1v1h-1zM31 43h1v1h-1zM32 43h1v1h-1zM33 43h1v1h-1zM34 43h1v1h-1zM35 43h1v1h-1zM36 43h1v1h-1zM37 43h1v1h-1zM38 43h1v1h-1zM39 43h1v1h-1zM40 43h1v1h-1zM41 43h1v1h-1zM42 43h1v1h-1z"/><path fill="#95B319" d="M43 43h1v1h-1z"/><path fill="#007150" d="M44 43h1v1h-1zM45 43h1v1h-1zM46 43h1v1h-1z"/><path fill="#00805F" d="M47 43h1v1h-1z"/><path fill="#009A78" d="M48 43h1v1h-1zM49 43h1v1h-1zM50 43h1v1h-1zM51 43h1v1h-1zM52 43h1v1h-1z"/><path fill="#3FB18B" d="M53 43h1v1h-1z"/><path fill="#65BF97" d="M54 43h1v1h-1zM55 43h1v1h-1zM56 43h1v1h-1zM57 43h1v1h-1zM58 43h1v1h-1zM59 43h1v1h-1zM60 43h1v1h-1z"/><path fill="#26855C" d="M61 43h1v1h-1z"/><path fill="#006239" d="M62 43h1v1h-1zM63 43h1v1h-1zM64 43h1v1h-1z"/><path fill="#0F4931" d="M65 43h1v1h-1z"/><path fill="#231815" d="M66 43h1v1h-1zM67 43h1v1h-1zM68 43h1v1h-1zM10 44h1v1h-1zM11 44h1v1h-1zM12 44h1v1h-1zM13 44h1v1h-1zM14 44h1v1h-1z"/><path fill="#675D0D" d="M15 44h1v1h-1z"/><path fill="#D9D100" d="M16 44h1v1h-1zM17 44h1v1h-1zM18 44h1v1h-1zM19 44h1v1h-1zM20 44h1v1h-1zM21 44h1v1h-1zM22 44h1v1h-1zM23 44h1v1h-1zM24 44h1v1h-1zM25 44h1v1h-1zM26 44h1v1h-1zM27 44h1v1h-1zM28 44h1v1h-1zM29 44h1v1h-1zM30 44h1v1h-1zM31 44h1v1h-1zM32 44h1v1h-1zM33 44h1v1h-1zM34 44h1v1h-1zM35 44h1v1h-1zM36 44h1v1h-1zM37 44h1v1h-1zM38 44h1v1h-1zM39 44h1v1h-1zM40 44h1v1h-1zM41 44h1v1h-1zM42 44h1v1h-1zM43 44h1v1h-1z"/><path fill="#448F37" d="M44 44h1v1h-1z"/><path fill="#007150" d="M45 44h1v1h-1zM46 44h1v1h-1zM47 44h1v1h-1z"/><path fill="#009573" d="M48 44h1v1h-1z"/><path fill="#009A78" d="M49 44h1v1h-1zM50 44h1v1h-1zM51 44h1v1h-1zM52 44h1v1h-1zM53 44h1v1h-1z"/><path fill="#3FB18B" d="M54 44h1v1h-1z"/><path fill="#65BF97" d="M55 44h1v1h-1zM56 44h1v1h-1zM57 44h1v1h-1zM58 44h1v1h-1zM59 44h1v1h-1zM60 44h1v1h-1zM61 44h1v1h-1z"/><path fill="#26855C" d="M62 44h1v1h-1z"/><path fill="#006239" d="M63 44h1v1h-1zM64 44h1v1h-1z"/><path fill="#182F20" d="M65 44h1v1h-1z"/><path fill="#231815" d="M66 44h1v1h-1zM67 44h1v1h-1zM68 44h1v1h-1zM9 45h1v1H9zM10 45h1v1h-1zM11 45h1v1h-1zM12 45h1v1h-1zM13 45h1v1h-1z"/><path fill="#898009" d="M14 45h1v1h-1z"/><path fill="#D9D100" d="M15 45h1v1h-1zM16 45h1v1h-1zM17 45h1v1h-1zM18 45h1v1h-1zM19 45h1v1h-1zM20 45h1v1h-1zM21 45h1v1h-1zM22 45h1v1h-1zM23 45h1v1h-1zM24 45h1v1h-1zM25 45h1v1h-1zM26 45h1v1h-1zM27 45h1v1h-1zM28 45h1v1h-1zM29 45h1v1h-1zM30 45h1v1h-1zM31 45h1v1h-1zM32 45h1v1h-1zM33 45h1v1h-1zM34 45h1v1h-1zM35 45h1v1h-1zM36 45h1v1h-1zM37 45h1v1h-1zM38 45h1v1h-1zM39 45h1v1h-1zM40 45h1v1h-1zM41 45h1v1h-1zM42 45h1v1h-1zM43 45h1v1h-1z"/><path fill="#BEC50A" d="M44 45h1v1h-1z"/><path fill="#007150" d="M45 45h1v1h-1zM46 45h1v1h-1zM47 45h1v1h-1z"/><path fill="#00805F" d="M48 45h1v1h-1z"/><path fill="#009A78" d="M49 45h1v1h-1zM50 45h1v1h-1zM51 45h1v1h-1zM52 45h1v1h-1zM53 45h1v1h-1zM54 45h1v1h-1z"/><path fill="#3FB18B" d="M55 45h1v1h-1z"/><path fill="#65BF97" d="M56 45h1v1h-1zM57 45h1v1h-1zM58 45h1v1h-1zM59 45h1v1h-1zM60 45h1v1h-1zM61 45h1v1h-1z"/><path fill="#5FB991" d="M62 45h1v1h-1z"/><path fill="#13734B" d="M63 45h1v1h-1z"/><path fill="#006239" d="M64 45h1v1h-1z"/><path fill="#211D17" d="M65 45h1v1h-1z"/><path fill="#231815" d="M66 45h1v1h-1zM67 45h1v1h-1zM68 45h1v1h-1zM8 46h1v1H8zM9 46h1v1H9zM10 46h1v1h-1zM11 46h1v1h-1z"/><path fill="#2E2414" d="M12 46h1v1h-1z"/><path fill="#958C08" d="M13 46h1v1h-1z"/><path fill="#D9D100" d="M14 46h1v1h-1zM15 46h1v1h-1zM16 46h1v1h-1zM17 46h1v1h-1zM18 46h1v1h-1zM19 46h1v1h-1zM20 46h1v1h-1zM21 46h1v1h-1zM22 46h1v1h-1zM23 46h1v1h-1zM24 46h1v1h-1zM25 46h1v1h-1zM26 46h1v1h-1zM27 46h1v1h-1zM28 46h1v1h-1zM29 46h1v1h-1zM30 46h1v1h-1zM31 46h1v1h-1zM32 46h1v1h-1zM33 46h1v1h-1zM34 46h1v1h-1zM35 46h1v1h-1zM36 46h1v1h-1zM37 46h1v1h-1zM38 46h1v1h-1zM39 46h1v1h-1zM40 46h1v1h-1zM41 46h1v1h-1zM42 46h1v1h-1zM43 46h1v1h-1zM44 46h1v1h-1z"/><path fill="#519532" d="M45 46h1v1h-1z"/><path fill="#007150" d="M46 46h1v1h-1zM47 46h1v1h-1zM48 46h1v1h-1z"/><path fill="#009776" d="M49 46h1v1h-1z"/><path fill="#009A78" d="M50 46h1v1h-1zM51 46h1v1h-1zM52 46h1v1h-1zM53 46h1v1h-1zM54 46h1v1h-1z"/><path fill="#069C7A" d="M55 46h1v1h-1z"/><path fill="#52B891" d="M56 46h1v1h-1z"/><path fill="#65BF97" d="M57 46h1v1h-1zM58 46h1v1h-1zM59 46h1v1h-1zM60 46h1v1h-1zM61 46h1v1h-1zM62 46h1v1h-1z"/><path fill="#5FB991" d="M63 46h1v1h-1z"/><path fill="#1C6142" d="M64 46h1v1h-1z"/><path fill="#231815" d="M65 46h1v1h-1zM66 46h1v1h-1zM67 46h1v1h-1zM68 46h1v1h-1zM7 47h1v1H7zM8 47h1v1H8zM9 47h1v1H9zM10 47h1v1h-1z"/><path fill="#2E2414" d="M11 47h1v1h-1z"/><path fill="#B7AE04" d="M12 47h1v1h-1z"/><path fill="#D9D100" d="M13 47h1v1h-1zM14 47h1v1h-1zM15 47h1v1h-1z"/><path fill="#DCD308" d="M16 47h1v1h-1z"/><path fill="#E2D91D" d="M17 47h1v1h-1z"/><path fill="#E7DD2E" d="M18 47h1v1h-1z"/><path fill="#E8DF32" d="M19 47h1v1h-1zM20 47h1v1h-1zM21 47h1v1h-1z"/><path fill="#E4DB26" d="M22 47h1v1h-1z"/><path fill="#DDD40D" d="M23 47h1v1h-1z"/><path fill="#D9D100" d="M24 47h1v1h-1zM25 47h1v1h-1zM26 47h1v1h-1zM27 47h1v1h-1zM28 47h1v1h-1zM29 47h1v1h-1zM30 47h1v1h-1zM31 47h1v1h-1zM32 47h1v1h-1zM33 47h1v1h-1zM34 47h1v1h-1zM35 47h1v1h-1zM36 47h1v1h-1zM37 47h1v1h-1zM38 47h1v1h-1zM39 47h1v1h-1zM40 47h1v1h-1zM41 47h1v1h-1zM42 47h1v1h-1zM43 47h1v1h-1zM44 47h1v1h-1z"/><path fill="#BEC50A" d="M45 47h1v1h-1z"/><path fill="#007150" d="M46 47h1v1h-1zM47 47h1v1h-1zM48 47h1v1h-1z"/><path fill="#008D6C" d="M49 47h1v1h-1z"/><path fill="#009A78" d="M50 47h1v1h-1zM51 47h1v1h-1zM52 47h1v1h-1zM53 47h1v1h-1zM54 47h1v1h-1zM55 47h1v1h-1z"/><path fill="#069C7A" d="M56 47h1v1h-1z"/><path fill="#52B891" d="M57 47h1v1h-1z"/><path fill="#65BF97" d="M58 47h1v1h-1zM59 47h1v1h-1zM60 47h1v1h-1zM61 47h1v1h-1zM62 47h1v1h-1zM63 47h1v1h-1z"/><path fill="#529A79" d="M64 47h1v1h-1z"/><path fill="#231815" d="M65 47h1v1h-1zM66 47h1v1h-1zM67 47h1v1h-1zM68 47h1v1h-1zM6 48h1v1H6zM7 48h1v1H7zM8 48h1v1H8zM9 48h1v1H9z"/><path fill="#2E2414" d="M10 48h1v1h-1z"/><path fill="#B7AE04" d="M11 48h1v1h-1z"/><path fill="#D9D100" d="M12 48h1v1h-1zM13 48h1v1h-1z"/><path fill="#DCD308" d="M14 48h1v1h-1z"/><path fill="#E6DC2A" d="M15 48h1v1h-1z"/><path fill="#EDE343" d="M16 48h1v1h-1zM17 48h1v1h-1zM18 48h1v1h-1zM19 48h1v1h-1zM20 48h1v1h-1zM21 48h1v1h-1zM22 48h1v1h-1zM23 48h1v1h-1z"/><path fill="#E7DD2E" d="M24 48h1v1h-1z"/><path fill="#DAD204" d="M25 48h1v1h-1z"/><path fill="#D9D100" d="M26 48h1v1h-1zM27 48h1v1h-1zM28 48h1v1h-1zM29 48h1v1h-1zM30 48h1v1h-1zM31 48h1v1h-1zM32 48h1v1h-1zM33 48h1v1h-1zM34 48h1v1h-1zM35 48h1v1h-1zM36 48h1v1h-1zM37 48h1v1h-1zM38 48h1v1h-1zM39 48h1v1h-1zM40 48h1v1h-1zM41 48h1v1h-1zM42 48h1v1h-1zM43 48h1v1h-1zM44 48h1v1h-1zM45 48h1v1h-1z"/><path fill="#298341" d="M46 48h1v1h-1z"/><path fill="#007150" d="M47 48h1v1h-1zM48 48h1v1h-1z"/><path fill="#008362" d="M49 48h1v1h-1z"/><path fill="#009A78" d="M50 48h1v1h-1zM51 48h1v1h-1zM52 48h1v1h-1zM53 48h1v1h-1zM54 48h1v1h-1zM55 48h1v1h-1zM56 48h1v1h-1z"/><path fill="#069C7A" d="M57 48h1v1h-1z"/><path fill="#52B891" d="M58 48h1v1h-1z"/><path fill="#65BF97" d="M59 48h1v1h-1zM60 48h1v1h-1zM61 48h1v1h-1zM62 48h1v1h-1zM63 48h1v1h-1zM64 48h1v1h-1z"/><path fill="#446C56" d="M65 48h1v1h-1z"/><path fill="#231815" d="M66 48h1v1h-1zM67 48h1v1h-1zM68 48h1v1h-1zM69 48h1v1h-1zM5 49h1v1H5zM6 49h1v1H6zM7 49h1v1H7zM8 49h1v1H8z"/><path fill="#2E2414" d="M9 49h1v1H9z"/><path fill="#B7AE04" d="M10 49h1v1h-1z"/><path fill="#D9D100" d="M11 49h1v1h-1zM12 49h1v1h-1z"/><path fill="#E1D819" d="M13 49h1v1h-1z"/><path fill="#ECE23F" d="M14 49h1v1h-1z"/><path fill="#EDE343" d="M15 49h1v1h-1zM16 49h1v1h-1zM17 49h1v1h-1zM18 49h1v1h-1zM19 49h1v1h-1zM20 49h1v1h-1zM21 49h1v1h-1zM22 49h1v1h-1zM23 49h1v1h-1zM24 49h1v1h-1z"/><path fill="#E9E036" d="M25 49h1v1h-1z"/><path fill="#DAD204" d="M26 49h1v1h-1z"/><path fill="#D9D100" d="M27 49h1v1h-1zM28 49h1v1h-1zM29 49h1v1h-1zM30 49h1v1h-1zM31 49h1v1h-1zM32 49h1v1h-1zM33 49h1v1h-1zM34 49h1v1h-1zM35 49h1v1h-1zM36 49h1v1h-1zM37 49h1v1h-1zM38 49h1v1h-1zM39 49h1v1h-1zM40 49h1v1h-1zM41 49h1v1h-1zM42 49h1v1h-1zM43 49h1v1h-1zM44 49h1v1h-1zM45 49h1v1h-1z"/><path fill="#5F9B2D" d="M46 49h1v1h-1z"/><path fill="#007150" d="M47 49h1v1h-1zM48 49h1v1h-1z"/><path fill="#007B5A" d="M49 49h1v1h-1z"/><path fill="#009A78" d="M50 49h1v1h-1zM51 49h1v1h-1zM52 49h1v1h-1zM53 49h1v1h-1zM54 49h1v1h-1zM55 49h1v1h-1zM56 49h1v1h-1zM57 49h1v1h-1z"/><path fill="#069C7A" d="M58 49h1v1h-1z"/><path fill="#58BA93" d="M59 49h1v1h-1z"/><path fill="#65BF97" d="M60 49h1v1h-1zM61 49h1v1h-1zM62 49h1v1h-1zM63 49h1v1h-1zM64 49h1v1h-1zM65 49h1v1h-1z"/><path fill="#3C5746" d="M66 49h1v1h-1z"/><path fill="#231815" d="M67 49h1v1h-1zM68 49h1v1h-1zM69 49h1v1h-1zM70 49h1v1h-1zM4 50h1v1H4zM5 50h1v1H5zM6 50h1v1H6zM7 50h1v1H7z"/><path fill="#2E2414" d="M8 50h1v1H8z"/><path fill="#B7AE04" d="M9 50h1v1H9z"/><path fill="#D9D100" d="M10 50h1v1h-1zM11 50h1v1h-1z"/><path fill="#E6DC2A" d="M12 50h1v1h-1z"/><path fill="#EDE343" d="M13 50h1v1h-1zM14 50h1v1h-1zM15 50h1v1h-1zM16 50h1v1h-1zM17 50h1v1h-1zM18 50h1v1h-1zM19 50h1v1h-1zM20 50h1v1h-1zM21 50h1v1h-1zM22 50h1v1h-1zM23 50h1v1h-1zM24 50h1v1h-1zM25 50h1v1h-1z"/><path fill="#E7DD2E" d="M26 50h1v1h-1z"/><path fill="#D9D100" d="M27 50h1v1h-1zM28 50h1v1h-1zM29 50h1v1h-1zM30 50h1v1h-1zM31 50h1v1h-1zM32 50h1v1h-1zM33 50h1v1h-1zM34 50h1v1h-1zM35 50h1v1h-1zM36 50h1v1h-1zM37 50h1v1h-1zM38 50h1v1h-1zM39 50h1v1h-1zM40 50h1v1h-1zM41 50h1v1h-1zM42 50h1v1h-1zM43 50h1v1h-1zM44 50h1v1h-1zM45 50h1v1h-1z"/><path fill="#6DA128" d="M46 50h1v1h-1z"/><path fill="#007150" d="M47 50h1v1h-1zM48 50h1v1h-1z"/><path fill="#007B5A" d="M49 50h1v1h-1z"/><path fill="#009A78" d="M50 50h1v1h-1zM51 50h1v1h-1zM52 50h1v1h-1zM53 50h1v1h-1zM54 50h1v1h-1zM55 50h1v1h-1zM56 50h1v1h-1zM57 50h1v1h-1zM58 50h1v1h-1z"/><path fill="#13A17E" d="M59 50h1v1h-1z"/><path fill="#5FBD95" d="M60 50h1v1h-1z"/><path fill="#65BF97" d="M61 50h1v1h-1zM62 50h1v1h-1zM63 50h1v1h-1zM64 50h1v1h-1zM65 50h1v1h-1z"/><path fill="#61B58F" d="M66 50h1v1h-1z"/><path fill="#2F372D" d="M67 50h1v1h-1z"/><path fill="#231815" d="M68 50h1v1h-1zM69 50h1v1h-1zM70 50h1v1h-1zM71 50h1v1h-1zM4 51h1v1H4zM5 51h1v1H5zM6 51h1v1H6zM7 51h1v1H7z"/><path fill="#ACA305" d="M8 51h1v1H8z"/><path fill="#D9D100" d="M9 51h1v1H9zM10 51h1v1h-1z"/><path fill="#E6DC2A" d="M11 51h1v1h-1z"/><path fill="#EDE343" d="M12 51h1v1h-1zM13 51h1v1h-1zM14 51h1v1h-1zM15 51h1v1h-1zM16 51h1v1h-1zM17 51h1v1h-1zM18 51h1v1h-1zM19 51h1v1h-1zM20 51h1v1h-1zM21 51h1v1h-1zM22 51h1v1h-1zM23 51h1v1h-1zM24 51h1v1h-1zM25 51h1v1h-1zM26 51h1v1h-1z"/><path fill="#DDD40D" d="M27 51h1v1h-1z"/><path fill="#D9D100" d="M28 51h1v1h-1zM29 51h1v1h-1zM30 51h1v1h-1zM31 51h1v1h-1zM32 51h1v1h-1zM33 51h1v1h-1zM34 51h1v1h-1zM35 51h1v1h-1zM36 51h1v1h-1zM37 51h1v1h-1zM38 51h1v1h-1zM39 51h1v1h-1zM40 51h1v1h-1zM41 51h1v1h-1zM42 51h1v1h-1zM43 51h1v1h-1zM44 51h1v1h-1zM45 51h1v1h-1z"/><path fill="#5F9B2D" d="M46 51h1v1h-1z"/><path fill="#007150" d="M47 51h1v1h-1zM48 51h1v1h-1z"/><path fill="#007B5A" d="M49 51h1v1h-1z"/><path fill="#009A78" d="M50 51h1v1h-1zM51 51h1v1h-1zM52 51h1v1h-1zM53 51h1v1h-1zM54 51h1v1h-1zM55 51h1v1h-1zM56 51h1v1h-1zM57 51h1v1h-1zM58 51h1v1h-1zM59 51h1v1h-1z"/><path fill="#13A17E" d="M60 51h1v1h-1z"/><path fill="#5FBD95" d="M61 51h1v1h-1z"/><path fill="#65BF97" d="M62 51h1v1h-1zM63 51h1v1h-1zM64 51h1v1h-1zM65 51h1v1h-1zM66 51h1v1h-1z"/><path fill="#59A07F" d="M67 51h1v1h-1z"/><path fill="#27221D" d="M68 51h1v1h-1z"/><path fill="#231815" d="M69 51h1v1h-1zM70 51h1v1h-1zM71 51h1v1h-1zM3 52h1v1H3zM4 52h1v1H4zM5 52h1v1H5zM6 52h1v1H6z"/><path fill="#958C08" d="M7 52h1v1H7z"/><path fill="#D9D100" d="M8 52h1v1H8zM9 52h1v1H9z"/><path fill="#E2D91D" d="M10 52h1v1h-1z"/><path fill="#EDE343" d="M11 52h1v1h-1zM12 52h1v1h-1zM13 52h1v1h-1zM14 52h1v1h-1zM15 52h1v1h-1zM16 52h1v1h-1zM17 52h1v1h-1zM18 52h1v1h-1zM19 52h1v1h-1zM20 52h1v1h-1zM21 52h1v1h-1zM22 52h1v1h-1zM23 52h1v1h-1zM24 52h1v1h-1zM25 52h1v1h-1zM26 52h1v1h-1z"/><path fill="#E4DB26" d="M27 52h1v1h-1z"/><path fill="#D9D100" d="M28 52h1v1h-1zM29 52h1v1h-1zM30 52h1v1h-1zM31 52h1v1h-1zM32 52h1v1h-1zM33 52h1v1h-1zM34 52h1v1h-1zM35 52h1v1h-1zM36 52h1v1h-1zM37 52h1v1h-1zM38 52h1v1h-1zM39 52h1v1h-1zM40 52h1v1h-1zM41 52h1v1h-1zM42 52h1v1h-1zM43 52h1v1h-1zM44 52h1v1h-1z"/><path fill="#CBCB05" d="M45 52h1v1h-1z"/><path fill="#0E774B" d="M46 52h1v1h-1z"/><path fill="#007150" d="M47 52h1v1h-1zM48 52h1v1h-1z"/><path fill="#007E5D" d="M49 52h1v1h-1z"/><path fill="#009A78" d="M50 52h1v1h-1zM51 52h1v1h-1zM52 52h1v1h-1zM53 52h1v1h-1zM54 52h1v1h-1zM55 52h1v1h-1zM56 52h1v1h-1zM57 52h1v1h-1zM58 52h1v1h-1zM59 52h1v1h-1zM60 52h1v1h-1z"/><path fill="#13A17E" d="M61 52h1v1h-1z"/><path fill="#5FBD95" d="M62 52h1v1h-1z"/><path fill="#65BF97" d="M63 52h1v1h-1zM64 52h1v1h-1zM65 52h1v1h-1zM66 52h1v1h-1zM67 52h1v1h-1z"/><path fill="#4C8066" d="M68 52h1v1h-1z"/><path fill="#231815" d="M69 52h1v1h-1zM70 52h1v1h-1zM71 52h1v1h-1zM72 52h1v1h-1zM2 53h1v1H2zM3 53h1v1H3zM4 53h1v1H4zM5 53h1v1H5z"/><path fill="#675D0D" d="M6 53h1v1H6z"/><path fill="#D9D100" d="M7 53h1v1H7zM8 53h1v1H8z"/><path fill="#DDD40D" d="M9 53h1v1H9z"/><path fill="#EDE343" d="M10 53h1v1h-1zM11 53h1v1h-1zM12 53h1v1h-1zM13 53h1v1h-1z"/><path fill="#EEE655" d="M14 53h1v1h-1z"/><path fill="#F2F09B" d="M15 53h1v1h-1z"/><path fill="#F5F7D0" d="M16 53h1v1h-1zM17 53h1v1h-1zM18 53h1v1h-1z"/><path fill="#F2F09B" d="M19 53h1v1h-1z"/><path fill="#EEE655" d="M20 53h1v1h-1z"/><path fill="#EDE343" d="M21 53h1v1h-1zM22 53h1v1h-1zM23 53h1v1h-1zM24 53h1v1h-1zM25 53h1v1h-1zM26 53h1v1h-1z"/><path fill="#E9E036" d="M27 53h1v1h-1z"/><path fill="#D9D100" d="M28 53h1v1h-1zM29 53h1v1h-1zM30 53h1v1h-1zM31 53h1v1h-1zM32 53h1v1h-1zM33 53h1v1h-1zM34 53h1v1h-1zM35 53h1v1h-1zM36 53h1v1h-1zM37 53h1v1h-1zM38 53h1v1h-1zM39 53h1v1h-1zM40 53h1v1h-1zM41 53h1v1h-1zM42 53h1v1h-1zM43 53h1v1h-1zM44 53h1v1h-1z"/><path fill="#519532" d="M45 53h1v1h-1z"/><path fill="#007150" d="M46 53h1v1h-1zM47 53h1v1h-1zM48 53h1v1h-1z"/><path fill="#00906E" d="M49 53h1v1h-1z"/><path fill="#009A78" d="M50 53h1v1h-1zM51 53h1v1h-1zM52 53h1v1h-1zM53 53h1v1h-1zM54 53h1v1h-1zM55 53h1v1h-1zM56 53h1v1h-1zM57 53h1v1h-1zM58 53h1v1h-1zM59 53h1v1h-1zM60 53h1v1h-1zM61 53h1v1h-1z"/><path fill="#13A17E" d="M62 53h1v1h-1z"/><path fill="#5FBD95" d="M63 53h1v1h-1z"/><path fill="#65BF97" d="M64 53h1v1h-1zM65 53h1v1h-1zM66 53h1v1h-1zM67 53h1v1h-1zM68 53h1v1h-1z"/><path fill="#3C5746" d="M69 53h1v1h-1z"/><path fill="#231815" d="M70 53h1v1h-1zM71 53h1v1h-1zM72 53h1v1h-1zM73 53h1v1h-1zM2 54h1v1H2zM3 54h1v1H3zM4 54h1v1H4z"/><path fill="#3A2F12" d="M5 54h1v1H5z"/><path fill="#CEC501" d="M6 54h1v1H6z"/><path fill="#D9D100" d="M7 54h1v1H7zM8 54h1v1H8z"/><path fill="#E8DF32" d="M9 54h1v1H9z"/><path fill="#EDE343" d="M10 54h1v1h-1zM11 54h1v1h-1zM12 54h1v1h-1z"/><path fill="#EFE75D" d="M13 54h1v1h-1z"/><path fill="#F5F6C7" d="M14 54h1v1h-1z"/><path fill="#F5F7D0" d="M15 54h1v1h-1zM16 54h1v1h-1zM17 54h1v1h-1zM18 54h1v1h-1zM19 54h1v1h-1z"/><path fill="#F5F6C7" d="M20 54h1v1h-1z"/><path fill="#EFE75D" d="M21 54h1v1h-1z"/><path fill="#EDE343" d="M22 54h1v1h-1zM23 54h1v1h-1zM24 54h1v1h-1zM25 54h1v1h-1zM26 54h1v1h-1zM27 54h1v1h-1z"/><path fill="#D9D100" d="M28 54h1v1h-1zM29 54h1v1h-1zM30 54h1v1h-1zM31 54h1v1h-1zM32 54h1v1h-1zM33 54h1v1h-1zM34 54h1v1h-1zM35 54h1v1h-1zM36 54h1v1h-1zM37 54h1v1h-1zM38 54h1v1h-1zM39 54h1v1h-1zM40 54h1v1h-1zM41 54h1v1h-1zM42 54h1v1h-1zM43 54h1v1h-1z"/><path fill="#A3B914" d="M44 54h1v1h-1z"/><path fill="#007150" d="M45 54h1v1h-1zM46 54h1v1h-1zM47 54h1v1h-1z"/><path fill="#007E5D" d="M48 54h1v1h-1z"/><path fill="#009A78" d="M49 54h1v1h-1zM50 54h1v1h-1zM51 54h1v1h-1zM52 54h1v1h-1zM53 54h1v1h-1zM54 54h1v1h-1zM55 54h1v1h-1zM56 54h1v1h-1zM57 54h1v1h-1zM58 54h1v1h-1zM59 54h1v1h-1zM60 54h1v1h-1zM61 54h1v1h-1zM62 54h1v1h-1z"/><path fill="#26A884" d="M63 54h1v1h-1z"/><path fill="#65BF97" d="M64 54h1v1h-1zM65 54h1v1h-1zM66 54h1v1h-1zM67 54h1v1h-1zM68 54h1v1h-1z"/><path fill="#61B58F" d="M69 54h1v1h-1z"/><path fill="#2B2D25" d="M70 54h1v1h-1z"/><path fill="#231815" d="M71 54h1v1h-1zM72 54h1v1h-1zM73 54h1v1h-1zM1 55h1v1H1zM2 55h1v1H2zM3 55h1v1H3zM4 55h1v1H4z"/><path fill="#ACA305" d="M5 55h1v1H5z"/><path fill="#D9D100" d="M6 55h1v1H6zM7 55h1v1H7z"/><path fill="#E1D819" d="M8 55h1v1H8z"/><path fill="#EDE343" d="M9 55h1v1H9zM10 55h1v1h-1zM11 55h1v1h-1zM12 55h1v1h-1z"/><path fill="#F3F2AD" d="M13 55h1v1h-1z"/><path fill="#F5F7D0" d="M14 55h1v1h-1zM15 55h1v1h-1zM16 55h1v1h-1zM17 55h1v1h-1zM18 55h1v1h-1zM19 55h1v1h-1zM20 55h1v1h-1z"/><path fill="#F3F2AD" d="M21 55h1v1h-1z"/><path fill="#EDE343" d="M22 55h1v1h-1zM23 55h1v1h-1zM24 55h1v1h-1zM25 55h1v1h-1zM26 55h1v1h-1zM27 55h1v1h-1z"/><path fill="#D9D100" d="M28 55h1v1h-1zM29 55h1v1h-1zM30 55h1v1h-1zM31 55h1v1h-1zM32 55h1v1h-1zM33 55h1v1h-1zM34 55h1v1h-1zM35 55h1v1h-1zM36 55h1v1h-1zM37 55h1v1h-1zM38 55h1v1h-1zM39 55h1v1h-1zM40 55h1v1h-1zM41 55h1v1h-1zM42 55h1v1h-1zM43 55h1v1h-1z"/><path fill="#298341" d="M44 55h1v1h-1z"/><path fill="#007150" d="M45 55h1v1h-1zM46 55h1v1h-1z"/><path fill="#007453" d="M47 55h1v1h-1z"/><path fill="#009776" d="M48 55h1v1h-1z"/><path fill="#009A78" d="M49 55h1v1h-1zM50 55h1v1h-1zM51 55h1v1h-1zM52 55h1v1h-1zM53 55h1v1h-1zM54 55h1v1h-1zM55 55h1v1h-1zM56 55h1v1h-1zM57 55h1v1h-1zM58 55h1v1h-1zM59 55h1v1h-1zM60 55h1v1h-1zM61 55h1v1h-1zM62 55h1v1h-1zM63 55h1v1h-1z"/><path fill="#26A884" d="M64 55h1v1h-1z"/><path fill="#65BF97" d="M65 55h1v1h-1zM66 55h1v1h-1zM67 55h1v1h-1z"/><path fill="#61B58F" d="M68 55h1v1h-1z"/><path fill="#559577" d="M69 55h1v1h-1z"/><path fill="#344236" d="M70 55h1v1h-1z"/><path fill="#231815" d="M71 55h1v1h-1zM72 55h1v1h-1zM73 55h1v1h-1zM1 56h1v1H1zM2 56h1v1H2zM3 56h1v1H3z"/><path fill="#514610" d="M4 56h1v1H4z"/><path fill="#D9D100" d="M5 56h1v1H5zM6 56h1v1H6zM7 56h1v1H7z"/><path fill="#E8DF32" d="M8 56h1v1H8z"/><path fill="#EDE343" d="M9 56h1v1H9zM10 56h1v1h-1zM11 56h1v1h-1z"/><path fill="#EFE75D" d="M12 56h1v1h-1z"/><path fill="#F5F7D0" d="M13 56h1v1h-1zM14 56h1v1h-1zM15 56h1v1h-1zM16 56h1v1h-1zM17 56h1v1h-1zM18 56h1v1h-1zM19 56h1v1h-1zM20 56h1v1h-1zM21 56h1v1h-1z"/><path fill="#EFE75D" d="M22 56h1v1h-1z"/><path fill="#EDE343" d="M23 56h1v1h-1zM24 56h1v1h-1zM25 56h1v1h-1zM26 56h1v1h-1zM27 56h1v1h-1z"/><path fill="#D9D100" d="M28 56h1v1h-1zM29 56h1v1h-1zM30 56h1v1h-1zM31 56h1v1h-1zM32 56h1v1h-1zM33 56h1v1h-1zM34 56h1v1h-1zM35 56h1v1h-1zM36 56h1v1h-1zM37 56h1v1h-1zM38 56h1v1h-1zM39 56h1v1h-1zM40 56h1v1h-1zM41 56h1v1h-1zM42 56h1v1h-1z"/><path fill="#7AA723" d="M43 56h1v1h-1z"/><path fill="#007150" d="M44 56h1v1h-1zM45 56h1v1h-1zM46 56h1v1h-1z"/><path fill="#008867" d="M47 56h1v1h-1z"/><path fill="#009A78" d="M48 56h1v1h-1zM49 56h1v1h-1zM50 56h1v1h-1zM51 56h1v1h-1zM52 56h1v1h-1zM53 56h1v1h-1zM54 56h1v1h-1zM55 56h1v1h-1zM56 56h1v1h-1zM57 56h1v1h-1zM58 56h1v1h-1zM59 56h1v1h-1zM60 56h1v1h-1zM61 56h1v1h-1z"/><path fill="#078265" d="M62 56h1v1h-1z"/><path fill="#097A5F" d="M63 56h1v1h-1z"/><path fill="#125947" d="M64 56h1v1h-1z"/><path fill="#2D5A48" d="M65 56h1v1h-1z"/><path fill="#344236" d="M66 56h1v1h-1z"/><path fill="#27221D" d="M67 56h1v1h-1z"/><path fill="#231815" d="M68 56h1v1h-1zM69 56h1v1h-1zM70 56h1v1h-1zM71 56h1v1h-1zM72 56h1v1h-1zM73 56h1v1h-1zM1 57h1v1H1zM2 57h1v1H2zM3 57h1v1H3z"/><path fill="#A09707" d="M4 57h1v1H4z"/><path fill="#D9D100" d="M5 57h1v1H5zM6 57h1v1H6z"/><path fill="#DCD308" d="M7 57h1v1H7z"/><path fill="#EDE343" d="M8 57h1v1H8zM9 57h1v1H9zM10 57h1v1h-1zM11 57h1v1h-1z"/><path fill="#EFE866" d="M12 57h1v1h-1z"/><path fill="#F5F7D0" d="M13 57h1v1h-1zM14 57h1v1h-1zM15 57h1v1h-1zM16 57h1v1h-1zM17 57h1v1h-1zM18 57h1v1h-1zM19 57h1v1h-1zM20 57h1v1h-1zM21 57h1v1h-1z"/><path fill="#EFE866" d="M22 57h1v1h-1z"/><path fill="#EDE343" d="M23 57h1v1h-1zM24 57h1v1h-1zM25 57h1v1h-1zM26 57h1v1h-1z"/><path fill="#ECE23F" d="M27 57h1v1h-1z"/><path fill="#D9D100" d="M28 57h1v1h-1zM29 57h1v1h-1zM30 57h1v1h-1zM31 57h1v1h-1zM32 57h1v1h-1zM33 57h1v1h-1zM34 57h1v1h-1zM35 57h1v1h-1zM36 57h1v1h-1zM37 57h1v1h-1zM38 57h1v1h-1zM39 57h1v1h-1zM40 57h1v1h-1zM41 57h1v1h-1z"/><path fill="#BEC50A" d="M42 57h1v1h-1z"/><path fill="#0E774B" d="M43 57h1v1h-1z"/><path fill="#007150" d="M44 57h1v1h-1zM45 57h1v1h-1z"/><path fill="#007B5A" d="M46 57h1v1h-1z"/><path fill="#009A78" d="M47 57h1v1h-1zM48 57h1v1h-1zM49 57h1v1h-1zM50 57h1v1h-1zM51 57h1v1h-1zM52 57h1v1h-1zM53 57h1v1h-1zM54 57h1v1h-1z"/><path fill="#029272" d="M55 57h1v1h-1z"/><path fill="#0D6953" d="M56 57h1v1h-1z"/><path fill="#125947" d="M57 57h1v1h-1z"/><path fill="#16493A" d="M58 57h1v1h-1z"/><path fill="#1A392E" d="M59 57h1v1h-1z"/><path fill="#1F2821" d="M60 57h1v1h-1z"/><path fill="#231815" d="M61 57h1v1h-1zM62 57h1v1h-1zM63 57h1v1h-1zM64 57h1v1h-1zM65 57h1v1h-1zM66 57h1v1h-1zM67 57h1v1h-1zM68 57h1v1h-1zM69 57h1v1h-1zM70 57h1v1h-1zM71 57h1v1h-1zM72 57h1v1h-1zM73 57h1v1h-1zM0 58h1v1H0zM1 58h1v1H1zM2 58h1v1H2z"/><path fill="#2E2414" d="M3 58h1v1H3z"/><path fill="#D9D100" d="M4 58h1v1H4zM5 58h1v1H5zM6 58h1v1H6z"/><path fill="#E1D819" d="M7 58h1v1H7z"/><path fill="#EDE343" d="M8 58h1v1H8zM9 58h1v1H9zM10 58h1v1h-1zM11 58h1v1h-1z"/><path fill="#EFE866" d="M12 58h1v1h-1z"/><path fill="#F5F7D0" d="M13 58h1v1h-1zM14 58h1v1h-1zM15 58h1v1h-1zM16 58h1v1h-1zM17 58h1v1h-1zM18 58h1v1h-1zM19 58h1v1h-1zM20 58h1v1h-1zM21 58h1v1h-1z"/><path fill="#EFE866" d="M22 58h1v1h-1z"/><path fill="#EDE343" d="M23 58h1v1h-1zM24 58h1v1h-1zM25 58h1v1h-1zM26 58h1v1h-1z"/><path fill="#E8DF32" d="M27 58h1v1h-1z"/><path fill="#D9D100" d="M28 58h1v1h-1zM29 58h1v1h-1zM30 58h1v1h-1zM31 58h1v1h-1zM32 58h1v1h-1zM33 58h1v1h-1zM34 58h1v1h-1zM35 58h1v1h-1zM36 58h1v1h-1zM37 58h1v1h-1zM38 58h1v1h-1zM39 58h1v1h-1zM40 58h1v1h-1zM41 58h1v1h-1z"/><path fill="#36893C" d="M42 58h1v1h-1z"/><path fill="#007150" d="M43 58h1v1h-1zM44 58h1v1h-1z"/><path fill="#007453" d="M45 58h1v1h-1z"/><path fill="#009573" d="M46 58h1v1h-1z"/><path fill="#009A78" d="M47 58h1v1h-1zM48 58h1v1h-1zM49 58h1v1h-1zM50 58h1v1h-1zM51 58h1v1h-1zM52 58h1v1h-1zM53 58h1v1h-1zM54 58h1v1h-1z"/><path fill="#1F2821" d="M55 58h1v1h-1z"/><path fill="#231815" d="M56 58h1v1h-1zM57 58h1v1h-1zM58 58h1v1h-1zM59 58h1v1h-1zM60 58h1v1h-1zM61 58h1v1h-1zM62 58h1v1h-1zM63 58h1v1h-1zM64 58h1v1h-1zM65 58h1v1h-1zM66 58h1v1h-1zM67 58h1v1h-1zM68 58h1v1h-1zM69 58h1v1h-1zM70 58h1v1h-1zM71 58h1v1h-1zM72 58h1v1h-1zM0 59h1v1H0zM1 59h1v1H1zM2 59h1v1H2z"/><path fill="#5C520E" d="M3 59h1v1H3z"/><path fill="#D9D100" d="M4 59h1v1H4zM5 59h1v1H5zM6 59h1v1H6z"/><path fill="#E4DB26" d="M7 59h1v1H7z"/><path fill="#EDE343" d="M8 59h1v1H8zM9 59h1v1H9zM10 59h1v1h-1zM11 59h1v1h-1z"/><path fill="#EFE75D" d="M12 59h1v1h-1z"/><path fill="#F5F7D0" d="M13 59h1v1h-1zM14 59h1v1h-1zM15 59h1v1h-1zM16 59h1v1h-1zM17 59h1v1h-1zM18 59h1v1h-1zM19 59h1v1h-1zM20 59h1v1h-1zM21 59h1v1h-1z"/><path fill="#EFE75D" d="M22 59h1v1h-1z"/><path fill="#EDE343" d="M23 59h1v1h-1zM24 59h1v1h-1zM25 59h1v1h-1zM26 59h1v1h-1z"/><path fill="#E3DA22" d="M27 59h1v1h-1z"/><path fill="#D9D100" d="M28 59h1v1h-1zM29 59h1v1h-1zM30 59h1v1h-1zM31 59h1v1h-1zM32 59h1v1h-1zM33 59h1v1h-1zM34 59h1v1h-1zM35 59h1v1h-1zM36 59h1v1h-1zM37 59h1v1h-1zM38 59h1v1h-1zM39 59h1v1h-1zM40 59h1v1h-1z"/><path fill="#95B319" d="M41 59h1v1h-1z"/><path fill="#007150" d="M42 59h1v1h-1zM43 59h1v1h-1zM44 59h1v1h-1z"/><path fill="#008867" d="M45 59h1v1h-1z"/><path fill="#009A78" d="M46 59h1v1h-1zM47 59h1v1h-1zM48 59h1v1h-1zM49 59h1v1h-1zM50 59h1v1h-1zM51 59h1v1h-1zM52 59h1v1h-1zM53 59h1v1h-1zM54 59h1v1h-1z"/><path fill="#231815" d="M55 59h1v1h-1zM56 59h1v1h-1zM57 59h1v1h-1zM58 59h1v1h-1zM59 59h1v1h-1zM60 59h1v1h-1zM61 59h1v1h-1zM62 59h1v1h-1zM63 59h1v1h-1zM64 59h1v1h-1zM65 59h1v1h-1zM66 59h1v1h-1zM67 59h1v1h-1zM0 60h1v1H0zM1 60h1v1H1zM2 60h1v1H2z"/><path fill="#898009" d="M3 60h1v1H3z"/><path fill="#D9D100" d="M4 60h1v1H4zM5 60h1v1H5zM6 60h1v1H6z"/><path fill="#E8DF32" d="M7 60h1v1H7z"/><path fill="#EDE343" d="M8 60h1v1H8zM9 60h1v1H9zM10 60h1v1h-1zM11 60h1v1h-1zM12 60h1v1h-1z"/><path fill="#F3F2AD" d="M13 60h1v1h-1z"/><path fill="#F5F7D0" d="M14 60h1v1h-1zM15 60h1v1h-1zM16 60h1v1h-1zM17 60h1v1h-1zM18 60h1v1h-1zM19 60h1v1h-1zM20 60h1v1h-1z"/><path fill="#F3F2AD" d="M21 60h1v1h-1z"/><path fill="#EDE343" d="M22 60h1v1h-1zM23 60h1v1h-1zM24 60h1v1h-1zM25 60h1v1h-1zM26 60h1v1h-1z"/><path fill="#DDD40D" d="M27 60h1v1h-1z"/><path fill="#D9D100" d="M28 60h1v1h-1zM29 60h1v1h-1zM30 60h1v1h-1zM31 60h1v1h-1zM32 60h1v1h-1zM33 60h1v1h-1zM34 60h1v1h-1zM35 60h1v1h-1zM36 60h1v1h-1zM37 60h1v1h-1zM38 60h1v1h-1zM39 60h1v1h-1z"/><path fill="#CBCB05" d="M40 60h1v1h-1z"/><path fill="#0E774B" d="M41 60h1v1h-1z"/><path fill="#007150" d="M42 60h1v1h-1zM43 60h1v1h-1z"/><path fill="#007B5A" d="M44 60h1v1h-1z"/><path fill="#009A78" d="M45 60h1v1h-1zM46 60h1v1h-1zM47 60h1v1h-1zM48 60h1v1h-1zM49 60h1v1h-1zM50 60h1v1h-1zM51 60h1v1h-1zM52 60h1v1h-1zM53 60h1v1h-1zM54 60h1v1h-1z"/><path fill="#184134" d="M55 60h1v1h-1z"/><path fill="#231815" d="M56 60h1v1h-1zM57 60h1v1h-1zM58 60h1v1h-1zM59 60h1v1h-1zM60 60h1v1h-1zM0 61h1v1H0zM1 61h1v1H1zM2 61h1v1H2z"/><path fill="#ACA305" d="M3 61h1v1H3z"/><path fill="#D9D100" d="M4 61h1v1H4zM5 61h1v1H5zM6 61h1v1H6z"/><path fill="#E8DF32" d="M7 61h1v1H7z"/><path fill="#EDE343" d="M8 61h1v1H8zM9 61h1v1H9zM10 61h1v1h-1zM11 61h1v1h-1zM12 61h1v1h-1z"/><path fill="#EEE655" d="M13 61h1v1h-1z"/><path fill="#F5F6C7" d="M14 61h1v1h-1z"/><path fill="#F5F7D0" d="M15 61h1v1h-1zM16 61h1v1h-1zM17 61h1v1h-1zM18 61h1v1h-1zM19 61h1v1h-1z"/><path fill="#F5F6C7" d="M20 61h1v1h-1z"/><path fill="#EEE655" d="M21 61h1v1h-1z"/><path fill="#EDE343" d="M22 61h1v1h-1zM23 61h1v1h-1zM24 61h1v1h-1zM25 61h1v1h-1z"/><path fill="#E8DF32" d="M26 61h1v1h-1z"/><path fill="#D9D100" d="M27 61h1v1h-1zM28 61h1v1h-1zM29 61h1v1h-1zM30 61h1v1h-1zM31 61h1v1h-1zM32 61h1v1h-1zM33 61h1v1h-1zM34 61h1v1h-1zM35 61h1v1h-1zM36 61h1v1h-1zM37 61h1v1h-1zM38 61h1v1h-1zM39 61h1v1h-1z"/><path fill="#36893C" d="M40 61h1v1h-1z"/><path fill="#007150" d="M41 61h1v1h-1zM42 61h1v1h-1z"/><path fill="#007453" d="M43 61h1v1h-1z"/><path fill="#009573" d="M44 61h1v1h-1z"/><path fill="#009A78" d="M45 61h1v1h-1zM46 61h1v1h-1zM47 61h1v1h-1zM48 61h1v1h-1zM49 61h1v1h-1zM50 61h1v1h-1zM51 61h1v1h-1zM52 61h1v1h-1zM53 61h1v1h-1zM54 61h1v1h-1z"/><path fill="#0D6953" d="M55 61h1v1h-1z"/><path fill="#231815" d="M56 61h1v1h-1zM57 61h1v1h-1zM58 61h1v1h-1zM0 62h1v1H0zM1 62h1v1H1zM2 62h1v1H2z"/><path fill="#ACA305" d="M3 62h1v1H3z"/><path fill="#D9D100" d="M4 62h1v1H4zM5 62h1v1H5zM6 62h1v1H6z"/><path fill="#E8DF32" d="M7 62h1v1H7z"/><path fill="#EDE343" d="M8 62h1v1H8zM9 62h1v1H9zM10 62h1v1h-1zM11 62h1v1h-1zM12 62h1v1h-1zM13 62h1v1h-1z"/><path fill="#EEE44C" d="M14 62h1v1h-1z"/><path fill="#F2F09B" d="M15 62h1v1h-1z"/><path fill="#F5F6C7" d="M16 62h1v1h-1z"/><path fill="#F5F7D0" d="M17 62h1v1h-1z"/><path fill="#F5F6C7" d="M18 62h1v1h-1z"/><path fill="#F2F09B" d="M19 62h1v1h-1z"/><path fill="#EEE44C" d="M20 62h1v1h-1z"/><path fill="#EDE343" d="M21 62h1v1h-1zM22 62h1v1h-1zM23 62h1v1h-1zM24 62h1v1h-1zM25 62h1v1h-1z"/><path fill="#DED611" d="M26 62h1v1h-1z"/><path fill="#D9D100" d="M27 62h1v1h-1zM28 62h1v1h-1zM29 62h1v1h-1zM30 62h1v1h-1zM31 62h1v1h-1zM32 62h1v1h-1zM33 62h1v1h-1zM34 62h1v1h-1zM35 62h1v1h-1zM36 62h1v1h-1zM37 62h1v1h-1zM38 62h1v1h-1z"/><path fill="#7AA723" d="M39 62h1v1h-1z"/><path fill="#007150" d="M40 62h1v1h-1zM41 62h1v1h-1zM42 62h1v1h-1z"/><path fill="#008D6C" d="M43 62h1v1h-1z"/><path fill="#009A78" d="M44 62h1v1h-1zM45 62h1v1h-1zM46 62h1v1h-1zM47 62h1v1h-1zM48 62h1v1h-1zM49 62h1v1h-1zM50 62h1v1h-1zM51 62h1v1h-1zM52 62h1v1h-1zM53 62h1v1h-1zM54 62h1v1h-1z"/><path fill="#048A6C" d="M55 62h1v1h-1z"/><path fill="#231815" d="M56 62h1v1h-1zM57 62h1v1h-1zM58 62h1v1h-1zM0 63h1v1H0zM1 63h1v1H1zM2 63h1v1H2z"/><path fill="#ACA305" d="M3 63h1v1H3z"/><path fill="#D9D100" d="M4 63h1v1H4zM5 63h1v1H5zM6 63h1v1H6z"/><path fill="#E6DC2A" d="M7 63h1v1H7z"/><path fill="#EDE343" d="M8 63h1v1H8zM9 63h1v1H9zM10 63h1v1h-1zM11 63h1v1h-1zM12 63h1v1h-1zM13 63h1v1h-1zM14 63h1v1h-1zM15 63h1v1h-1zM16 63h1v1h-1zM17 63h1v1h-1zM18 63h1v1h-1zM19 63h1v1h-1zM20 63h1v1h-1zM21 63h1v1h-1zM22 63h1v1h-1zM23 63h1v1h-1zM24 63h1v1h-1z"/><path fill="#E8DF32" d="M25 63h1v1h-1z"/><path fill="#D9D100" d="M26 63h1v1h-1zM27 63h1v1h-1zM28 63h1v1h-1zM29 63h1v1h-1zM30 63h1v1h-1zM31 63h1v1h-1zM32 63h1v1h-1zM33 63h1v1h-1zM34 63h1v1h-1zM35 63h1v1h-1zM36 63h1v1h-1zM37 63h1v1h-1z"/><path fill="#A09707" d="M38 63h1v1h-1z"/><path fill="#1A2E24" d="M39 63h1v1h-1z"/><path fill="#0B553E" d="M40 63h1v1h-1z"/><path fill="#007150" d="M41 63h1v1h-1z"/><path fill="#00805F" d="M42 63h1v1h-1z"/><path fill="#009A78" d="M43 63h1v1h-1zM44 63h1v1h-1zM45 63h1v1h-1zM46 63h1v1h-1zM47 63h1v1h-1zM48 63h1v1h-1zM49 63h1v1h-1zM50 63h1v1h-1zM51 63h1v1h-1zM52 63h1v1h-1zM53 63h1v1h-1zM54 63h1v1h-1zM55 63h1v1h-1z"/><path fill="#231815" d="M56 63h1v1h-1zM57 63h1v1h-1zM58 63h1v1h-1zM0 64h1v1H0zM1 64h1v1H1zM2 64h1v1H2z"/><path fill="#ACA305" d="M3 64h1v1H3z"/><path fill="#D9D100" d="M4 64h1v1H4zM5 64h1v1H5zM6 64h1v1H6z"/><path fill="#E1D819" d="M7 64h1v1H7z"/><path fill="#EDE343" d="M8 64h1v1H8zM9 64h1v1H9zM10 64h1v1h-1zM11 64h1v1h-1zM12 64h1v1h-1zM13 64h1v1h-1zM14 64h1v1h-1zM15 64h1v1h-1zM16 64h1v1h-1zM17 64h1v1h-1zM18 64h1v1h-1zM19 64h1v1h-1zM20 64h1v1h-1zM21 64h1v1h-1zM22 64h1v1h-1zM23 64h1v1h-1z"/><path fill="#ECE23F" d="M24 64h1v1h-1z"/><path fill="#DAD204" d="M25 64h1v1h-1z"/><path fill="#D9D100" d="M26 64h1v1h-1zM27 64h1v1h-1zM28 64h1v1h-1zM29 64h1v1h-1zM30 64h1v1h-1zM31 64h1v1h-1zM32 64h1v1h-1zM33 64h1v1h-1zM34 64h1v1h-1zM35 64h1v1h-1zM36 64h1v1h-1z"/><path fill="#958C08" d="M37 64h1v1h-1z"/><path fill="#231815" d="M38 64h1v1h-1zM39 64h1v1h-1zM40 64h1v1h-1z"/><path fill="#16392B" d="M41 64h1v1h-1z"/><path fill="#09775D" d="M42 64h1v1h-1z"/><path fill="#009A78" d="M43 64h1v1h-1zM44 64h1v1h-1zM45 64h1v1h-1zM46 64h1v1h-1zM47 64h1v1h-1zM48 64h1v1h-1zM49 64h1v1h-1zM50 64h1v1h-1zM51 64h1v1h-1zM52 64h1v1h-1zM53 64h1v1h-1zM54 64h1v1h-1zM55 64h1v1h-1z"/><path fill="#1F2821" d="M56 64h1v1h-1z"/><path fill="#231815" d="M57 64h1v1h-1zM58 64h1v1h-1zM59 64h1v1h-1zM0 65h1v1H0zM1 65h1v1H1zM2 65h1v1H2z"/><path fill="#958C08" d="M3 65h1v1H3z"/><path fill="#D9D100" d="M4 65h1v1H4zM5 65h1v1H5zM6 65h1v1H6z"/><path fill="#DAD204" d="M7 65h1v1H7z"/><path fill="#EDE343" d="M8 65h1v1H8zM9 65h1v1H9zM10 65h1v1h-1zM11 65h1v1h-1zM12 65h1v1h-1zM13 65h1v1h-1zM14 65h1v1h-1zM15 65h1v1h-1zM16 65h1v1h-1zM17 65h1v1h-1zM18 65h1v1h-1zM19 65h1v1h-1zM20 65h1v1h-1zM21 65h1v1h-1zM22 65h1v1h-1zM23 65h1v1h-1z"/><path fill="#DED611" d="M24 65h1v1h-1z"/><path fill="#D9D100" d="M25 65h1v1h-1zM26 65h1v1h-1zM27 65h1v1h-1zM28 65h1v1h-1zM29 65h1v1h-1zM30 65h1v1h-1zM31 65h1v1h-1zM32 65h1v1h-1zM33 65h1v1h-1zM34 65h1v1h-1zM35 65h1v1h-1z"/><path fill="#B7AE04" d="M36 65h1v1h-1z"/><path fill="#231815" d="M37 65h1v1h-1zM38 65h1v1h-1zM39 65h1v1h-1zM40 65h1v1h-1zM41 65h1v1h-1zM42 65h1v1h-1z"/><path fill="#1C3028" d="M43 65h1v1h-1z"/><path fill="#0D6953" d="M44 65h1v1h-1z"/><path fill="#009A78" d="M45 65h1v1h-1zM46 65h1v1h-1zM47 65h1v1h-1zM48 65h1v1h-1zM49 65h1v1h-1zM50 65h1v1h-1zM51 65h1v1h-1zM52 65h1v1h-1zM53 65h1v1h-1zM54 65h1v1h-1zM55 65h1v1h-1z"/><path fill="#231815" d="M56 65h1v1h-1zM57 65h1v1h-1zM58 65h1v1h-1zM59 65h1v1h-1zM0 66h1v1H0zM1 66h1v1H1zM2 66h1v1H2z"/><path fill="#73690C" d="M3 66h1v1H3z"/><path fill="#D9D100" d="M4 66h1v1H4zM5 66h1v1H5zM6 66h1v1H6zM7 66h1v1H7z"/><path fill="#E4DB26" d="M8 66h1v1H8z"/><path fill="#EDE343" d="M9 66h1v1H9zM10 66h1v1h-1zM11 66h1v1h-1zM12 66h1v1h-1zM13 66h1v1h-1zM14 66h1v1h-1zM15 66h1v1h-1zM16 66h1v1h-1zM17 66h1v1h-1zM18 66h1v1h-1zM19 66h1v1h-1zM20 66h1v1h-1zM21 66h1v1h-1zM22 66h1v1h-1z"/><path fill="#E1D819" d="M23 66h1v1h-1z"/><path fill="#D9D100" d="M24 66h1v1h-1zM25 66h1v1h-1zM26 66h1v1h-1zM27 66h1v1h-1zM28 66h1v1h-1zM29 66h1v1h-1zM30 66h1v1h-1zM31 66h1v1h-1zM32 66h1v1h-1zM33 66h1v1h-1zM34 66h1v1h-1z"/><path fill="#B7AE04" d="M35 66h1v1h-1z"/><path fill="#2E2414" d="M36 66h1v1h-1z"/><path fill="#231815" d="M37 66h1v1h-1zM38 66h1v1h-1zM39 66h1v1h-1zM40 66h1v1h-1zM41 66h1v1h-1zM42 66h1v1h-1zM43 66h1v1h-1zM44 66h1v1h-1z"/><path fill="#21201B" d="M45 66h1v1h-1z"/><path fill="#125947" d="M46 66h1v1h-1z"/><path fill="#048A6C" d="M47 66h1v1h-1z"/><path fill="#009A78" d="M48 66h1v1h-1zM49 66h1v1h-1zM50 66h1v1h-1zM51 66h1v1h-1zM52 66h1v1h-1z"/><path fill="#078265" d="M53 66h1v1h-1z"/><path fill="#097A5F" d="M54 66h1v1h-1z"/><path fill="#125947" d="M55 66h1v1h-1z"/><path fill="#231815" d="M56 66h1v1h-1zM57 66h1v1h-1zM58 66h1v1h-1zM0 67h1v1H0zM1 67h1v1H1zM2 67h1v1H2z"/><path fill="#3A2F12" d="M3 67h1v1H3z"/><path fill="#D9D100" d="M4 67h1v1H4zM5 67h1v1H5zM6 67h1v1H6zM7 67h1v1H7z"/><path fill="#DAD204" d="M8 67h1v1H8z"/><path fill="#E9E036" d="M9 67h1v1H9z"/><path fill="#EDE343" d="M10 67h1v1h-1zM11 67h1v1h-1zM12 67h1v1h-1zM13 67h1v1h-1zM14 67h1v1h-1zM15 67h1v1h-1zM16 67h1v1h-1zM17 67h1v1h-1zM18 67h1v1h-1zM19 67h1v1h-1zM20 67h1v1h-1z"/><path fill="#ECE23F" d="M21 67h1v1h-1z"/><path fill="#DDD40D" d="M22 67h1v1h-1z"/><path fill="#D9D100" d="M23 67h1v1h-1zM24 67h1v1h-1zM25 67h1v1h-1zM26 67h1v1h-1zM27 67h1v1h-1zM28 67h1v1h-1zM29 67h1v1h-1zM30 67h1v1h-1zM31 67h1v1h-1zM32 67h1v1h-1zM33 67h1v1h-1z"/><path fill="#B7AE04" d="M34 67h1v1h-1z"/><path fill="#2E2414" d="M35 67h1v1h-1z"/><path fill="#231815" d="M36 67h1v1h-1zM37 67h1v1h-1zM38 67h1v1h-1zM39 67h1v1h-1zM40 67h1v1h-1zM41 67h1v1h-1zM42 67h1v1h-1zM43 67h1v1h-1zM44 67h1v1h-1zM45 67h1v1h-1zM46 67h1v1h-1zM47 67h1v1h-1zM48 67h1v1h-1zM49 67h1v1h-1zM50 67h1v1h-1zM51 67h1v1h-1zM52 67h1v1h-1zM53 67h1v1h-1zM54 67h1v1h-1zM55 67h1v1h-1zM56 67h1v1h-1zM57 67h1v1h-1zM58 67h1v1h-1zM0 68h1v1H0zM1 68h1v1H1zM2 68h1v1H2zM3 68h1v1H3z"/><path fill="#ACA305" d="M4 68h1v1H4z"/><path fill="#D9D100" d="M5 68h1v1H5zM6 68h1v1H6zM7 68h1v1H7zM8 68h1v1H8z"/><path fill="#DAD204" d="M9 68h1v1H9z"/><path fill="#E9E036" d="M10 68h1v1h-1z"/><path fill="#EDE343" d="M11 68h1v1h-1zM12 68h1v1h-1zM13 68h1v1h-1zM14 68h1v1h-1zM15 68h1v1h-1zM16 68h1v1h-1zM17 68h1v1h-1zM18 68h1v1h-1zM19 68h1v1h-1z"/><path fill="#E6DC2A" d="M20 68h1v1h-1z"/><path fill="#DAD204" d="M21 68h1v1h-1z"/><path fill="#D9D100" d="M22 68h1v1h-1zM23 68h1v1h-1zM24 68h1v1h-1zM25 68h1v1h-1zM26 68h1v1h-1zM27 68h1v1h-1zM28 68h1v1h-1zM29 68h1v1h-1zM30 68h1v1h-1zM31 68h1v1h-1zM32 68h1v1h-1z"/><path fill="#B7AE04" d="M33 68h1v1h-1z"/><path fill="#2E2414" d="M34 68h1v1h-1z"/><path fill="#231815" d="M35 68h1v1h-1zM36 68h1v1h-1zM37 68h1v1h-1zM38 68h1v1h-1zM42 68h1v1h-1zM43 68h1v1h-1zM44 68h1v1h-1zM45 68h1v1h-1zM46 68h1v1h-1zM47 68h1v1h-1zM48 68h1v1h-1zM49 68h1v1h-1zM50 68h1v1h-1zM51 68h1v1h-1zM52 68h1v1h-1zM53 68h1v1h-1zM54 68h1v1h-1zM55 68h1v1h-1zM56 68h1v1h-1zM57 68h1v1h-1zM58 68h1v1h-1zM1 69h1v1H1zM2 69h1v1H2zM3 69h1v1H3z"/><path fill="#514610" d="M4 69h1v1H4z"/><path fill="#D9D100" d="M5 69h1v1H5zM6 69h1v1H6zM7 69h1v1H7zM8 69h1v1H8zM9 69h1v1H9zM10 69h1v1h-1z"/><path fill="#E3DA22" d="M11 69h1v1h-1z"/><path fill="#EBE13B" d="M12 69h1v1h-1z"/><path fill="#EDE343" d="M13 69h1v1h-1zM14 69h1v1h-1zM15 69h1v1h-1zM16 69h1v1h-1z"/><path fill="#EBE13B" d="M17 69h1v1h-1z"/><path fill="#E4DB26" d="M18 69h1v1h-1z"/><path fill="#DCD308" d="M19 69h1v1h-1z"/><path fill="#D9D100" d="M20 69h1v1h-1zM21 69h1v1h-1zM22 69h1v1h-1zM23 69h1v1h-1zM24 69h1v1h-1zM25 69h1v1h-1zM26 69h1v1h-1zM27 69h1v1h-1zM28 69h1v1h-1zM29 69h1v1h-1zM30 69h1v1h-1zM31 69h1v1h-1z"/><path fill="#B7AE04" d="M32 69h1v1h-1z"/><path fill="#2E2414" d="M33 69h1v1h-1z"/><path fill="#231815" d="M34 69h1v1h-1zM35 69h1v1h-1zM36 69h1v1h-1zM37 69h1v1h-1zM44 69h1v1h-1zM45 69h1v1h-1zM46 69h1v1h-1zM47 69h1v1h-1zM48 69h1v1h-1zM49 69h1v1h-1zM50 69h1v1h-1zM51 69h1v1h-1zM52 69h1v1h-1zM53 69h1v1h-1zM54 69h1v1h-1zM55 69h1v1h-1zM56 69h1v1h-1zM57 69h1v1h-1zM1 70h1v1H1zM2 70h1v1H2zM3 70h1v1H3zM4 70h1v1H4z"/><path fill="#A09707" d="M5 70h1v1H5z"/><path fill="#D9D100" d="M6 70h1v1H6zM7 70h1v1H7zM8 70h1v1H8zM9 70h1v1H9zM10 70h1v1h-1zM11 70h1v1h-1zM12 70h1v1h-1z"/><path fill="#DAD204" d="M13 70h1v1h-1z"/><path fill="#DED611" d="M14 70h1v1h-1zM15 70h1v1h-1z"/><path fill="#DAD204" d="M16 70h1v1h-1z"/><path fill="#D9D100" d="M17 70h1v1h-1zM18 70h1v1h-1zM19 70h1v1h-1zM20 70h1v1h-1zM21 70h1v1h-1zM22 70h1v1h-1zM23 70h1v1h-1zM24 70h1v1h-1zM25 70h1v1h-1zM26 70h1v1h-1zM27 70h1v1h-1zM28 70h1v1h-1zM29 70h1v1h-1zM30 70h1v1h-1z"/><path fill="#B7AE04" d="M31 70h1v1h-1z"/><path fill="#2E2414" d="M32 70h1v1h-1z"/><path fill="#231815" d="M33 70h1v1h-1zM34 70h1v1h-1zM35 70h1v1h-1zM36 70h1v1h-1zM2 71h1v1H2zM3 71h1v1H3zM4 71h1v1H4z"/><path fill="#2E2414" d="M5 71h1v1H5z"/><path fill="#B7AE04" d="M6 71h1v1H6z"/><path fill="#D9D100" d="M7 71h1v1H7zM8 71h1v1H8zM9 71h1v1H9zM10 71h1v1h-1zM11 71h1v1h-1zM12 71h1v1h-1zM13 71h1v1h-1zM14 71h1v1h-1zM15 71h1v1h-1zM16 71h1v1h-1zM17 71h1v1h-1zM18 71h1v1h-1zM19 71h1v1h-1zM20 71h1v1h-1zM21 71h1v1h-1zM22 71h1v1h-1zM23 71h1v1h-1zM24 71h1v1h-1zM25 71h1v1h-1zM26 71h1v1h-1zM27 71h1v1h-1zM28 71h1v1h-1zM29 71h1v1h-1z"/><path fill="#B7AE04" d="M30 71h1v1h-1z"/><path fill="#2E2414" d="M31 71h1v1h-1z"/><path fill="#231815" d="M32 71h1v1h-1zM33 71h1v1h-1zM34 71h1v1h-1zM35 71h1v1h-1zM2 72h1v1H2zM3 72h1v1H3zM4 72h1v1H4zM5 72h1v1H5z"/><path fill="#453B11" d="M6 72h1v1H6z"/><path fill="#CEC501" d="M7 72h1v1H7z"/><path fill="#D9D100" d="M8 72h1v1H8zM9 72h1v1H9zM10 72h1v1h-1zM11 72h1v1h-1zM12 72h1v1h-1zM13 72h1v1h-1zM14 72h1v1h-1zM15 72h1v1h-1zM16 72h1v1h-1zM17 72h1v1h-1zM18 72h1v1h-1zM19 72h1v1h-1zM20 72h1v1h-1zM21 72h1v1h-1zM22 72h1v1h-1zM23 72h1v1h-1zM24 72h1v1h-1zM25 72h1v1h-1zM26 72h1v1h-1zM27 72h1v1h-1zM28 72h1v1h-1z"/><path fill="#A09707" d="M29 72h1v1h-1z"/><path fill="#2E2414" d="M30 72h1v1h-1z"/><path fill="#231815" d="M31 72h1v1h-1zM32 72h1v1h-1zM33 72h1v1h-1zM34 72h1v1h-1zM3 73h1v1H3zM4 73h1v1H4zM5 73h1v1H5zM6 73h1v1H6z"/><path fill="#453B11" d="M7 73h1v1H7z"/><path fill="#B7AE04" d="M8 73h1v1H8z"/><path fill="#D9D100" d="M9 73h1v1H9zM10 73h1v1h-1zM11 73h1v1h-1zM12 73h1v1h-1zM13 73h1v1h-1zM14 73h1v1h-1zM15 73h1v1h-1zM16 73h1v1h-1zM17 73h1v1h-1zM18 73h1v1h-1zM19 73h1v1h-1zM20 73h1v1h-1zM21 73h1v1h-1zM22 73h1v1h-1zM23 73h1v1h-1zM24 73h1v1h-1zM25 73h1v1h-1zM26 73h1v1h-1zM27 73h1v1h-1z"/><path fill="#73690C" d="M28 73h1v1h-1z"/><path fill="#231815" d="M29 73h1v1h-1zM30 73h1v1h-1zM31 73h1v1h-1zM32 73h1v1h-1zM33 73h1v1h-1zM4 74h1v1H4zM5 74h1v1H5zM6 74h1v1H6zM7 74h1v1H7z"/><path fill="#2E2414" d="M8 74h1v1H8z"/><path fill="#898009" d="M9 74h1v1H9z"/><path fill="#D9D100" d="M10 74h1v1h-1zM11 74h1v1h-1zM12 74h1v1h-1zM13 74h1v1h-1zM14 74h1v1h-1zM15 74h1v1h-1zM16 74h1v1h-1zM17 74h1v1h-1zM18 74h1v1h-1zM19 74h1v1h-1zM20 74h1v1h-1zM21 74h1v1h-1zM22 74h1v1h-1zM23 74h1v1h-1zM24 74h1v1h-1zM25 74h1v1h-1z"/><path fill="#ACA305" d="M26 74h1v1h-1z"/><path fill="#3A2F12" d="M27 74h1v1h-1z"/><path fill="#231815" d="M28 74h1v1h-1zM29 74h1v1h-1zM30 74h1v1h-1zM31 74h1v1h-1zM32 74h1v1h-1zM5 75h1v1H5zM6 75h1v1H6zM7 75h1v1H7zM8 75h1v1H8zM9 75h1v1H9z"/><path fill="#514610" d="M10 75h1v1h-1z"/><path fill="#A09707" d="M11 75h1v1h-1z"/><path fill="#D9D100" d="M12 75h1v1h-1zM13 75h1v1h-1zM14 75h1v1h-1zM15 75h1v1h-1zM16 75h1v1h-1zM17 75h1v1h-1zM18 75h1v1h-1zM19 75h1v1h-1zM20 75h1v1h-1zM21 75h1v1h-1zM22 75h1v1h-1zM23 75h1v1h-1z"/><path fill="#958C08" d="M24 75h1v1h-1z"/><path fill="#514610" d="M25 75h1v1h-1z"/><path fill="#231815" d="M26 75h1v1h-1zM27 75h1v1h-1zM28 75h1v1h-1zM29 75h1v1h-1zM30 75h1v1h-1zM31 75h1v1h-1zM6 76h1v1H6zM7 76h1v1H7zM8 76h1v1H8zM9 76h1v1H9zM10 76h1v1h-1zM11 76h1v1h-1z"/><path fill="#3A2F12" d="M12 76h1v1h-1z"/><path fill="#73690C" d="M13 76h1v1h-1z"/><path fill="#A09707" d="M14 76h1v1h-1z"/><path fill="#B7AE04" d="M15 76h1v1h-1z"/><path fill="#D9D100" d="M16 76h1v1h-1zM17 76h1v1h-1zM18 76h1v1h-1zM19 76h1v1h-1z"/><path fill="#ACA305" d="M20 76h1v1h-1z"/><path fill="#898009" d="M21 76h1v1h-1z"/><path fill="#675D0D" d="M22 76h1v1h-1z"/><path fill="#2E2414" d="M23 76h1v1h-1z"/><path fill="#231815" d="M24 76h1v1h-1zM25 76h1v1h-1zM26 76h1v1h-1zM27 76h1v1h-1zM28 76h1v1h-1zM29 76h1v1h-1zM7 77h1v1H7zM8 77h1v1H8zM9 77h1v1H9zM10 77h1v1h-1zM11 77h1v1h-1zM12 77h1v1h-1zM13 77h1v1h-1zM14 77h1v1h-1zM15 77h1v1h-1zM16 77h1v1h-1zM17 77h1v1h-1zM18 77h1v1h-1zM19 77h1v1h-1zM20 77h1v1h-1zM21 77h1v1h-1zM22 77h1v1h-1zM23 77h1v1h-1zM24 77h1v1h-1zM25 77h1v1h-1zM26 77h1v1h-1zM27 77h1v1h-1zM28 77h1v1h-1zM9 78h1v1H9zM10 78h1v1h-1zM11 78h1v1h-1zM12 78h1v1h-1zM13 78h1v1h-1zM14 78h1v1h-1zM15 78h1v1h-1zM16 78h1v1h-1zM17 78h1v1h-1zM18 78h1v1h-1zM19 78h1v1h-1zM20 78h1v1h-1zM21 78h1v1h-1zM22 78h1v1h-1zM23 78h1v1h-1zM24 78h1v1h-1zM25 78h1v1h-1zM26 78h1v1h-1zM12 79h1v1h-1zM13 79h1v1h-1zM14 79h1v1h-1zM15 79h1v1h-1zM16 79h1v1h-1zM17 79h1v1h-1zM18 79h1v1h-1zM19 79h1v1h-1zM20 79h1v1h-1zM21 79h1v1h-1zM22 79h1v1h-1zM23 79h1v1h-1z"/></svg>