<svg baseProfile="full" height="90" width="85" xmlns="http://www.w3.org/2000/svg"><path fill="#231815" d="M7 0h1v1H7zM8 0h1v1H8zM9 0h1v1H9zM10 0h1v1h-1zM11 0h1v1h-1zM12 0h1v1h-1zM13 0h1v1h-1zM14 0h1v1h-1zM15 0h1v1h-1zM4 1h1v1H4zM5 1h1v1H5zM6 1h1v1H6zM7 1h1v1H7zM8 1h1v1H8zM9 1h1v1H9zM10 1h1v1h-1zM11 1h1v1h-1zM12 1h1v1h-1zM13 1h1v1h-1zM14 1h1v1h-1zM15 1h1v1h-1zM16 1h1v1h-1zM17 1h1v1h-1zM18 1h1v1h-1zM3 2h1v1H3zM4 2h1v1H4zM5 2h1v1H5zM6 2h1v1H6zM7 2h1v1H7zM8 2h1v1H8zM9 2h1v1H9zM10 2h1v1h-1zM11 2h1v1h-1zM12 2h1v1h-1zM13 2h1v1h-1zM14 2h1v1h-1zM15 2h1v1h-1zM16 2h1v1h-1zM17 2h1v1h-1zM18 2h1v1h-1zM19 2h1v1h-1zM20 2h1v1h-1zM2 3h1v1H2zM3 3h1v1H3zM4 3h1v1H4zM5 3h1v1H5zM6 3h1v1H6z"/><path fill="#1E4C23" d="M7 3h1v1H7z"/><path fill="#1A6F2D" d="M8 3h1v1H8z"/><path fill="#31913D" d="M9 3h1v1H9z"/><path fill="#36AD47" d="M10 3h1v1h-1zM11 3h1v1h-1zM12 3h1v1h-1z"/><path fill="#399340" d="M13 3h1v1h-1z"/><path fill="#1B662A" d="M14 3h1v1h-1z"/><path fill="#20321C" d="M15 3h1v1h-1z"/><path fill="#231815" d="M16 3h1v1h-1zM17 3h1v1h-1zM18 3h1v1h-1zM19 3h1v1h-1zM20 3h1v1h-1zM21 3h1v1h-1zM1 4h1v1H1zM2 4h1v1H2zM3 4h1v1H3zM4 4h1v1H4z"/><path fill="#1E4C23" d="M5 4h1v1H5z"/><path fill="#37A545" d="M6 4h1v1H6z"/><path fill="#68BD5A" d="M7 4h1v1H7z"/><path fill="#92C969" d="M8 4h1v1H8z"/><path fill="#9ACC6C" d="M9 4h1v1H9zM10 4h1v1h-1zM11 4h1v1h-1zM12 4h1v1h-1z"/><path fill="#9DCE71" d="M13 4h1v1h-1z"/><path fill="#9ECF7E" d="M14 4h1v1h-1z"/><path fill="#6CC06C" d="M15 4h1v1h-1z"/><path fill="#24843A" d="M16 4h1v1h-1z"/><path fill="#203B1F" d="M17 4h1v1h-1z"/><path fill="#231815" d="M18 4h1v1h-1zM19 4h1v1h-1zM20 4h1v1h-1zM21 4h1v1h-1zM22 4h1v1h-1zM23 4h1v1h-1zM0 5h1v1H0zM1 5h1v1H1zM2 5h1v1H2zM3 5h1v1H3z"/><path fill="#2B7433" d="M4 5h1v1H4z"/><path fill="#79C260" d="M5 5h1v1H5z"/><path fill="#9ACC6C" d="M6 5h1v1H6zM7 5h1v1H7zM8 5h1v1H8zM9 5h1v1H9zM10 5h1v1h-1z"/><path fill="#A0CF77" d="M11 5h1v1h-1z"/><path fill="#B8DBA2" d="M12 5h1v1h-1z"/><path fill="#CAE4C2" d="M13 5h1v1h-1zM14 5h1v1h-1zM15 5h1v1h-1z"/><path fill="#BFE0BA" d="M16 5h1v1h-1z"/><path fill="#2CAB4C" d="M17 5h1v1h-1z"/><path fill="#198032" d="M18 5h1v1h-1z"/><path fill="#203B1F" d="M19 5h1v1h-1z"/><path fill="#231815" d="M20 5h1v1h-1zM21 5h1v1h-1zM22 5h1v1h-1zM23 5h1v1h-1zM24 5h1v1h-1zM25 5h1v1h-1zM0 6h1v1H0zM1 6h1v1H1zM2 6h1v1H2z"/><path fill="#2E5A2C" d="M3 6h1v1H3z"/><path fill="#92C969" d="M4 6h1v1H4z"/><path fill="#9ACC6C" d="M5 6h1v1H5zM6 6h1v1H6zM7 6h1v1H7zM8 6h1v1H8zM9 6h1v1H9z"/><path fill="#ACD58C" d="M10 6h1v1h-1z"/><path fill="#C7E3BD" d="M11 6h1v1h-1z"/><path fill="#CAE4C2" d="M12 6h1v1h-1zM13 6h1v1h-1zM14 6h1v1h-1zM15 6h1v1h-1zM16 6h1v1h-1z"/><path fill="#42B35D" d="M17 6h1v1h-1z"/><path fill="#15A33B" d="M18 6h1v1h-1zM19 6h1v1h-1z"/><path fill="#198032" d="M20 6h1v1h-1z"/><path fill="#21291A" d="M21 6h1v1h-1z"/><path fill="#231815" d="M22 6h1v1h-1zM23 6h1v1h-1zM24 6h1v1h-1zM25 6h1v1h-1zM26 6h1v1h-1zM0 7h1v1H0zM1 7h1v1H1zM2 7h1v1H2z"/><path fill="#6AAB55" d="M3 7h1v1H3z"/><path fill="#9ACC6C" d="M4 7h1v1H4zM5 7h1v1H5zM6 7h1v1H6zM7 7h1v1H7zM8 7h1v1H8z"/><path fill="#A0CF77" d="M9 7h1v1H9z"/><path fill="#CAE4C2" d="M10 7h1v1h-1zM11 7h1v1h-1zM12 7h1v1h-1zM13 7h1v1h-1zM14 7h1v1h-1zM15 7h1v1h-1z"/><path fill="#A8D8A9" d="M16 7h1v1h-1z"/><path fill="#15A33B" d="M17 7h1v1h-1zM18 7h1v1h-1zM19 7h1v1h-1zM20 7h1v1h-1zM21 7h1v1h-1z"/><path fill="#1C5E28" d="M22 7h1v1h-1z"/><path fill="#222117" d="M23 7h1v1h-1z"/><path fill="#231815" d="M24 7h1v1h-1zM25 7h1v1h-1zM26 7h1v1h-1zM27 7h1v1h-1zM28 7h1v1h-1zM0 8h1v1H0zM1 8h1v1H1zM2 8h1v1H2z"/><path fill="#68BD5A" d="M3 8h1v1H3z"/><path fill="#9ACC6C" d="M4 8h1v1H4zM5 8h1v1H5zM6 8h1v1H6zM7 8h1v1H7zM8 8h1v1H8z"/><path fill="#B2D897" d="M9 8h1v1H9z"/><path fill="#CAE4C2" d="M10 8h1v1h-1zM11 8h1v1h-1zM12 8h1v1h-1zM13 8h1v1h-1zM14 8h1v1h-1z"/><path fill="#A8D8A9" d="M15 8h1v1h-1z"/><path fill="#2CAB4C" d="M16 8h1v1h-1z"/><path fill="#15A33B" d="M17 8h1v1h-1zM18 8h1v1h-1zM19 8h1v1h-1zM20 8h1v1h-1zM21 8h1v1h-1zM22 8h1v1h-1z"/><path fill="#169A39" d="M23 8h1v1h-1z"/><path fill="#1F4321" d="M24 8h1v1h-1z"/><path fill="#231815" d="M25 8h1v1h-1zM26 8h1v1h-1zM27 8h1v1h-1zM28 8h1v1h-1zM29 8h1v1h-1zM30 8h1v1h-1zM0 9h1v1H0zM1 9h1v1H1zM2 9h1v1H2z"/><path fill="#27973C" d="M3 9h1v1H3z"/><path fill="#89C766" d="M4 9h1v1H4z"/><path fill="#9ACC6C" d="M5 9h1v1H5zM6 9h1v1H6zM7 9h1v1H7zM8 9h1v1H8z"/><path fill="#A6D282" d="M9 9h1v1H9z"/><path fill="#C7E3BD" d="M10 9h1v1h-1z"/><path fill="#CAE4C2" d="M11 9h1v1h-1zM12 9h1v1h-1z"/><path fill="#B3DCB1" d="M13 9h1v1h-1z"/><path fill="#70C47F" d="M14 9h1v1h-1z"/><path fill="#20A743" d="M15 9h1v1h-1z"/><path fill="#15A33B" d="M16 9h1v1h-1zM17 9h1v1h-1zM18 9h1v1h-1zM19 9h1v1h-1zM20 9h1v1h-1zM21 9h1v1h-1zM22 9h1v1h-1zM23 9h1v1h-1zM24 9h1v1h-1z"/><path fill="#198032" d="M25 9h1v1h-1z"/><path fill="#21291A" d="M26 9h1v1h-1z"/><path fill="#231815" d="M27 9h1v1h-1zM28 9h1v1h-1zM29 9h1v1h-1zM30 9h1v1h-1zM31 9h1v1h-1zM32 9h1v1h-1zM33 9h1v1h-1zM34 9h1v1h-1zM0 10h1v1H0zM1 10h1v1H1zM2 10h1v1H2z"/><path fill="#1C5E28" d="M3 10h1v1H3z"/><path fill="#15A33B" d="M4 10h1v1H4z"/><path fill="#47B24D" d="M5 10h1v1H5z"/><path fill="#60BA57" d="M6 10h1v1H6z"/><path fill="#79C260" d="M7 10h1v1H7zM8 10h1v1H8zM9 10h1v1H9z"/><path fill="#5BB959" d="M10 10h1v1h-1z"/><path fill="#53B863" d="M11 10h1v1h-1z"/><path fill="#2CAB4C" d="M12 10h1v1h-1z"/><path fill="#15A33B" d="M13 10h1v1h-1zM14 10h1v1h-1zM15 10h1v1h-1zM16 10h1v1h-1zM17 10h1v1h-1zM18 10h1v1h-1zM19 10h1v1h-1zM20 10h1v1h-1zM21 10h1v1h-1zM22 10h1v1h-1zM23 10h1v1h-1zM24 10h1v1h-1zM25 10h1v1h-1zM26 10h1v1h-1z"/><path fill="#1B662A" d="M27 10h1v1h-1z"/><path fill="#222117" d="M28 10h1v1h-1z"/><path fill="#231815" d="M29 10h1v1h-1zM30 10h1v1h-1zM31 10h1v1h-1zM32 10h1v1h-1zM33 10h1v1h-1zM34 10h1v1h-1zM35 10h1v1h-1zM36 10h1v1h-1zM37 10h1v1h-1zM38 10h1v1h-1zM0 11h1v1H0zM1 11h1v1H1zM2 11h1v1H2zM3 11h1v1H3z"/><path fill="#1A6F2D" d="M4 11h1v1H4z"/><path fill="#15A33B" d="M5 11h1v1H5zM6 11h1v1H6zM7 11h1v1H7zM8 11h1v1H8zM9 11h1v1H9zM10 11h1v1h-1z"/><path fill="#198032" d="M11 11h1v1h-1z"/><path fill="#1B662A" d="M12 11h1v1h-1z"/><path fill="#1C5E28" d="M13 11h1v1h-1zM14 11h1v1h-1z"/><path fill="#1A6F2D" d="M15 11h1v1h-1z"/><path fill="#169A39" d="M16 11h1v1h-1z"/><path fill="#15A33B" d="M17 11h1v1h-1zM18 11h1v1h-1zM19 11h1v1h-1zM20 11h1v1h-1zM21 11h1v1h-1zM22 11h1v1h-1zM23 11h1v1h-1zM24 11h1v1h-1zM25 11h1v1h-1zM26 11h1v1h-1zM27 11h1v1h-1z"/><path fill="#169A39" d="M28 11h1v1h-1z"/><path fill="#1B662A" d="M29 11h1v1h-1z"/><path fill="#21291A" d="M30 11h1v1h-1z"/><path fill="#231815" d="M31 11h1v1h-1zM32 11h1v1h-1zM33 11h1v1h-1zM34 11h1v1h-1zM35 11h1v1h-1zM36 11h1v1h-1zM37 11h1v1h-1zM38 11h1v1h-1zM39 11h1v1h-1zM40 11h1v1h-1zM41 11h1v1h-1zM1 12h1v1H1zM2 12h1v1H2zM3 12h1v1H3zM4 12h1v1H4z"/><path fill="#20321C" d="M5 12h1v1H5z"/><path fill="#1D5526" d="M6 12h1v1H6z"/><path fill="#1C5E28" d="M7 12h1v1H7z"/><path fill="#1E4C23" d="M8 12h1v1H8z"/><path fill="#203B1F" d="M9 12h1v1H9z"/><path fill="#231815" d="M10 12h1v1h-1zM11 12h1v1h-1zM12 12h1v1h-1zM13 12h1v1h-1zM14 12h1v1h-1zM15 12h1v1h-1zM16 12h1v1h-1z"/><path fill="#1F4321" d="M17 12h1v1h-1z"/><path fill="#198032" d="M18 12h1v1h-1z"/><path fill="#15A33B" d="M19 12h1v1h-1zM20 12h1v1h-1zM21 12h1v1h-1zM22 12h1v1h-1zM23 12h1v1h-1zM24 12h1v1h-1zM25 12h1v1h-1zM26 12h1v1h-1zM27 12h1v1h-1zM28 12h1v1h-1zM29 12h1v1h-1zM30 12h1v1h-1z"/><path fill="#179236" d="M31 12h1v1h-1z"/><path fill="#19782F" d="M32 12h1v1h-1z"/><path fill="#1D5526" d="M33 12h1v1h-1z"/><path fill="#203B1F" d="M34 12h1v1h-1z"/><path fill="#231815" d="M35 12h1v1h-1zM36 12h1v1h-1zM37 12h1v1h-1zM38 12h1v1h-1zM39 12h1v1h-1zM40 12h1v1h-1zM41 12h1v1h-1zM42 12h1v1h-1zM43 12h1v1h-1zM44 12h1v1h-1zM2 13h1v1H2zM3 13h1v1H3zM4 13h1v1H4zM5 13h1v1H5zM6 13h1v1H6zM7 13h1v1H7zM8 13h1v1H8zM9 13h1v1H9zM10 13h1v1h-1zM11 13h1v1h-1zM12 13h1v1h-1zM13 13h1v1h-1zM14 13h1v1h-1zM15 13h1v1h-1zM16 13h1v1h-1zM17 13h1v1h-1zM18 13h1v1h-1z"/><path fill="#1D5526" d="M19 13h1v1h-1z"/><path fill="#15A33B" d="M20 13h1v1h-1zM21 13h1v1h-1zM22 13h1v1h-1zM23 13h1v1h-1zM24 13h1v1h-1zM25 13h1v1h-1zM26 13h1v1h-1zM27 13h1v1h-1zM28 13h1v1h-1zM29 13h1v1h-1z"/><path fill="#20A63F" d="M30 13h1v1h-1z"/><path fill="#25A841" d="M31 13h1v1h-1z"/><path fill="#15A33B" d="M32 13h1v1h-1zM33 13h1v1h-1zM34 13h1v1h-1zM35 13h1v1h-1z"/><path fill="#198032" d="M36 13h1v1h-1z"/><path fill="#1C5E28" d="M37 13h1v1h-1z"/><path fill="#20321C" d="M38 13h1v1h-1z"/><path fill="#231815" d="M39 13h1v1h-1zM40 13h1v1h-1zM41 13h1v1h-1zM42 13h1v1h-1zM43 13h1v1h-1zM44 13h1v1h-1zM45 13h1v1h-1zM3 14h1v1H3zM4 14h1v1H4zM5 14h1v1H5zM6 14h1v1H6zM7 14h1v1H7zM8 14h1v1H8zM9 14h1v1H9zM10 14h1v1h-1zM11 14h1v1h-1zM12 14h1v1h-1zM13 14h1v1h-1zM14 14h1v1h-1zM15 14h1v1h-1zM16 14h1v1h-1zM17 14h1v1h-1zM18 14h1v1h-1zM19 14h1v1h-1z"/><path fill="#1F4321" d="M20 14h1v1h-1z"/><path fill="#15A33B" d="M21 14h1v1h-1zM22 14h1v1h-1zM23 14h1v1h-1zM24 14h1v1h-1zM25 14h1v1h-1zM26 14h1v1h-1z"/><path fill="#25A841" d="M27 14h1v1h-1z"/><path fill="#51B450" d="M28 14h1v1h-1z"/><path fill="#6CBB5A" d="M29 14h1v1h-1zM30 14h1v1h-1zM31 14h1v1h-1zM32 14h1v1h-1zM33 14h1v1h-1z"/><path fill="#61B856" d="M34 14h1v1h-1z"/><path fill="#56B552" d="M35 14h1v1h-1z"/><path fill="#41AF4B" d="M36 14h1v1h-1z"/><path fill="#30AB45" d="M37 14h1v1h-1z"/><path fill="#1AA53D" d="M38 14h1v1h-1z"/><path fill="#179236" d="M39 14h1v1h-1z"/><path fill="#1B662A" d="M40 14h1v1h-1z"/><path fill="#20321C" d="M41 14h1v1h-1z"/><path fill="#231815" d="M42 14h1v1h-1zM43 14h1v1h-1zM44 14h1v1h-1zM45 14h1v1h-1zM46 14h1v1h-1zM47 14h1v1h-1zM5 15h1v1H5zM6 15h1v1H6zM7 15h1v1H7zM8 15h1v1H8zM16 15h1v1h-1zM17 15h1v1h-1zM18 15h1v1h-1zM19 15h1v1h-1zM20 15h1v1h-1z"/><path fill="#1A6F2D" d="M21 15h1v1h-1z"/><path fill="#15A33B" d="M22 15h1v1h-1zM23 15h1v1h-1zM24 15h1v1h-1zM25 15h1v1h-1z"/><path fill="#36AC47" d="M26 15h1v1h-1z"/><path fill="#6CBB5A" d="M27 15h1v1h-1zM28 15h1v1h-1zM29 15h1v1h-1zM30 15h1v1h-1zM31 15h1v1h-1zM32 15h1v1h-1zM33 15h1v1h-1zM34 15h1v1h-1zM35 15h1v1h-1zM36 15h1v1h-1zM37 15h1v1h-1zM38 15h1v1h-1z"/><path fill="#51B450" d="M39 15h1v1h-1z"/><path fill="#36AC47" d="M40 15h1v1h-1z"/><path fill="#15A33B" d="M41 15h1v1h-1z"/><path fill="#198032" d="M42 15h1v1h-1z"/><path fill="#203B1F" d="M43 15h1v1h-1z"/><path fill="#231815" d="M44 15h1v1h-1zM45 15h1v1h-1zM46 15h1v1h-1zM47 15h1v1h-1zM48 15h1v1h-1zM18 16h1v1h-1zM19 16h1v1h-1zM20 16h1v1h-1z"/><path fill="#20321C" d="M21 16h1v1h-1z"/><path fill="#15A33B" d="M22 16h1v1h-1zM23 16h1v1h-1zM24 16h1v1h-1z"/><path fill="#20A63F" d="M25 16h1v1h-1z"/><path fill="#67BA58" d="M26 16h1v1h-1z"/><path fill="#6CBB5A" d="M27 16h1v1h-1zM28 16h1v1h-1zM29 16h1v1h-1zM30 16h1v1h-1zM31 16h1v1h-1zM32 16h1v1h-1zM33 16h1v1h-1zM34 16h1v1h-1zM35 16h1v1h-1zM36 16h1v1h-1zM37 16h1v1h-1zM38 16h1v1h-1zM39 16h1v1h-1zM40 16h1v1h-1z"/><path fill="#67BA58" d="M41 16h1v1h-1z"/><path fill="#41AF4B" d="M42 16h1v1h-1z"/><path fill="#15A33B" d="M43 16h1v1h-1z"/><path fill="#198032" d="M44 16h1v1h-1z"/><path fill="#21291A" d="M45 16h1v1h-1z"/><path fill="#231815" d="M46 16h1v1h-1zM47 16h1v1h-1zM48 16h1v1h-1zM49 16h1v1h-1zM19 17h1v1h-1zM20 17h1v1h-1zM21 17h1v1h-1z"/><path fill="#15A33B" d="M22 17h1v1h-1zM23 17h1v1h-1zM24 17h1v1h-1z"/><path fill="#51B450" d="M25 17h1v1h-1z"/><path fill="#6CBB5A" d="M26 17h1v1h-1zM27 17h1v1h-1zM28 17h1v1h-1zM29 17h1v1h-1zM30 17h1v1h-1zM31 17h1v1h-1zM32 17h1v1h-1zM33 17h1v1h-1zM34 17h1v1h-1zM35 17h1v1h-1zM36 17h1v1h-1zM37 17h1v1h-1zM38 17h1v1h-1zM39 17h1v1h-1zM40 17h1v1h-1zM41 17h1v1h-1zM42 17h1v1h-1z"/><path fill="#5CB754" d="M43 17h1v1h-1z"/><path fill="#25A841" d="M44 17h1v1h-1z"/><path fill="#169A39" d="M45 17h1v1h-1z"/><path fill="#1F4321" d="M46 17h1v1h-1z"/><path fill="#231815" d="M47 17h1v1h-1zM48 17h1v1h-1zM49 17h1v1h-1zM50 17h1v1h-1zM19 18h1v1h-1zM20 18h1v1h-1zM21 18h1v1h-1z"/><path fill="#15A33B" d="M22 18h1v1h-1zM23 18h1v1h-1z"/><path fill="#20A63F" d="M24 18h1v1h-1z"/><path fill="#6CBB5A" d="M25 18h1v1h-1zM26 18h1v1h-1zM27 18h1v1h-1zM28 18h1v1h-1zM29 18h1v1h-1z"/><path fill="#6FBC5B" d="M30 18h1v1h-1z"/><path fill="#7DC161" d="M31 18h1v1h-1z"/><path fill="#8FC868" d="M32 18h1v1h-1z"/><path fill="#97CB6B" d="M33 18h1v1h-1z"/><path fill="#9ACC6C" d="M34 18h1v1h-1zM35 18h1v1h-1z"/><path fill="#91C969" d="M36 18h1v1h-1z"/><path fill="#86C564" d="M37 18h1v1h-1z"/><path fill="#78BF5F" d="M38 18h1v1h-1z"/><path fill="#6CBB5A" d="M39 18h1v1h-1zM40 18h1v1h-1zM41 18h1v1h-1zM42 18h1v1h-1zM43 18h1v1h-1z"/><path fill="#67BA58" d="M44 18h1v1h-1z"/><path fill="#36AC47" d="M45 18h1v1h-1z"/><path fill="#15A33B" d="M46 18h1v1h-1z"/><path fill="#1E4C23" d="M47 18h1v1h-1z"/><path fill="#231815" d="M48 18h1v1h-1zM49 18h1v1h-1zM50 18h1v1h-1zM51 18h1v1h-1zM52 18h1v1h-1zM19 19h1v1h-1zM20 19h1v1h-1zM21 19h1v1h-1z"/><path fill="#15A33B" d="M22 19h1v1h-1zM23 19h1v1h-1z"/><path fill="#3BAE49" d="M24 19h1v1h-1z"/><path fill="#6CBB5A" d="M25 19h1v1h-1zM26 19h1v1h-1zM27 19h1v1h-1zM28 19h1v1h-1z"/><path fill="#75BE5D" d="M29 19h1v1h-1z"/><path fill="#94CA6A" d="M30 19h1v1h-1z"/><path fill="#9ACC6C" d="M31 19h1v1h-1zM32 19h1v1h-1zM33 19h1v1h-1zM34 19h1v1h-1zM35 19h1v1h-1zM36 19h1v1h-1zM37 19h1v1h-1zM38 19h1v1h-1z"/><path fill="#8FC868" d="M39 19h1v1h-1z"/><path fill="#75BE5D" d="M40 19h1v1h-1z"/><path fill="#6CBB5A" d="M41 19h1v1h-1zM42 19h1v1h-1zM43 19h1v1h-1zM44 19h1v1h-1zM45 19h1v1h-1z"/><path fill="#36AC47" d="M46 19h1v1h-1z"/><path fill="#15A33B" d="M47 19h1v1h-1z"/><path fill="#1C5E28" d="M48 19h1v1h-1z"/><path fill="#231815" d="M49 19h1v1h-1zM50 19h1v1h-1zM51 19h1v1h-1zM52 19h1v1h-1zM53 19h1v1h-1zM54 19h1v1h-1zM55 19h1v1h-1zM19 20h1v1h-1zM20 20h1v1h-1z"/><path fill="#20321C" d="M21 20h1v1h-1z"/><path fill="#15A33B" d="M22 20h1v1h-1zM23 20h1v1h-1z"/><path fill="#51B450" d="M24 20h1v1h-1z"/><path fill="#6CBB5A" d="M25 20h1v1h-1zM26 20h1v1h-1zM27 20h1v1h-1z"/><path fill="#75BE5D" d="M28 20h1v1h-1z"/><path fill="#97CB6B" d="M29 20h1v1h-1z"/><path fill="#9ACC6C" d="M30 20h1v1h-1zM31 20h1v1h-1zM32 20h1v1h-1zM33 20h1v1h-1zM34 20h1v1h-1zM35 20h1v1h-1zM36 20h1v1h-1zM37 20h1v1h-1zM38 20h1v1h-1zM39 20h1v1h-1zM40 20h1v1h-1z"/><path fill="#7DC161" d="M41 20h1v1h-1z"/><path fill="#6CBB5A" d="M42 20h1v1h-1zM43 20h1v1h-1zM44 20h1v1h-1zM45 20h1v1h-1zM46 20h1v1h-1z"/><path fill="#25A841" d="M47 20h1v1h-1z"/><path fill="#15A33B" d="M48 20h1v1h-1z"/><path fill="#198032" d="M49 20h1v1h-1z"/><path fill="#21291A" d="M50 20h1v1h-1z"/><path fill="#231815" d="M51 20h1v1h-1zM52 20h1v1h-1zM53 20h1v1h-1zM54 20h1v1h-1zM55 20h1v1h-1zM56 20h1v1h-1zM57 20h1v1h-1zM58 20h1v1h-1zM19 21h1v1h-1zM20 21h1v1h-1z"/><path fill="#203B1F" d="M21 21h1v1h-1z"/><path fill="#15A33B" d="M22 21h1v1h-1zM23 21h1v1h-1z"/><path fill="#5CB754" d="M24 21h1v1h-1z"/><path fill="#6CBB5A" d="M25 21h1v1h-1zM26 21h1v1h-1zM27 21h1v1h-1z"/><path fill="#94CA6A" d="M28 21h1v1h-1z"/><path fill="#9ACC6C" d="M29 21h1v1h-1zM30 21h1v1h-1zM31 21h1v1h-1zM32 21h1v1h-1zM33 21h1v1h-1zM34 21h1v1h-1zM35 21h1v1h-1zM36 21h1v1h-1zM37 21h1v1h-1zM38 21h1v1h-1zM39 21h1v1h-1zM40 21h1v1h-1zM41 21h1v1h-1z"/><path fill="#7DC161" d="M42 21h1v1h-1z"/><path fill="#6CBB5A" d="M43 21h1v1h-1zM44 21h1v1h-1zM45 21h1v1h-1zM46 21h1v1h-1z"/><path fill="#67BA58" d="M47 21h1v1h-1z"/><path fill="#1AA53D" d="M48 21h1v1h-1z"/><path fill="#15A33B" d="M49 21h1v1h-1z"/><path fill="#169A39" d="M50 21h1v1h-1z"/><path fill="#1C5E28" d="M51 21h1v1h-1z"/><path fill="#21291A" d="M52 21h1v1h-1z"/><path fill="#231815" d="M53 21h1v1h-1zM54 21h1v1h-1zM55 21h1v1h-1zM56 21h1v1h-1zM57 21h1v1h-1zM58 21h1v1h-1zM59 21h1v1h-1zM60 21h1v1h-1zM61 21h1v1h-1zM19 22h1v1h-1zM20 22h1v1h-1z"/><path fill="#203B1F" d="M21 22h1v1h-1z"/><path fill="#15A33B" d="M22 22h1v1h-1zM23 22h1v1h-1z"/><path fill="#6CBB5A" d="M24 22h1v1h-1zM25 22h1v1h-1zM26 22h1v1h-1z"/><path fill="#7AC060" d="M27 22h1v1h-1z"/><path fill="#9ACC6C" d="M28 22h1v1h-1zM29 22h1v1h-1zM30 22h1v1h-1zM31 22h1v1h-1zM32 22h1v1h-1zM33 22h1v1h-1zM34 22h1v1h-1zM35 22h1v1h-1zM36 22h1v1h-1zM37 22h1v1h-1zM38 22h1v1h-1zM39 22h1v1h-1zM40 22h1v1h-1zM41 22h1v1h-1zM42 22h1v1h-1z"/><path fill="#75BE5D" d="M43 22h1v1h-1z"/><path fill="#6CBB5A" d="M44 22h1v1h-1zM45 22h1v1h-1zM46 22h1v1h-1zM47 22h1v1h-1z"/><path fill="#51B450" d="M48 22h1v1h-1z"/><path fill="#15A33B" d="M49 22h1v1h-1zM50 22h1v1h-1zM51 22h1v1h-1zM52 22h1v1h-1z"/><path fill="#19782F" d="M53 22h1v1h-1z"/><path fill="#1D5526" d="M54 22h1v1h-1z"/><path fill="#21291A" d="M55 22h1v1h-1z"/><path fill="#231815" d="M56 22h1v1h-1zM57 22h1v1h-1zM58 22h1v1h-1zM59 22h1v1h-1zM60 22h1v1h-1zM61 22h1v1h-1zM62 22h1v1h-1zM63 22h1v1h-1zM19 23h1v1h-1zM20 23h1v1h-1z"/><path fill="#203B1F" d="M21 23h1v1h-1z"/><path fill="#15A33B" d="M22 23h1v1h-1zM23 23h1v1h-1z"/><path fill="#6CBB5A" d="M24 23h1v1h-1zM25 23h1v1h-1zM26 23h1v1h-1z"/><path fill="#83C463" d="M27 23h1v1h-1z"/><path fill="#9ACC6C" d="M28 23h1v1h-1zM29 23h1v1h-1zM30 23h1v1h-1zM31 23h1v1h-1zM32 23h1v1h-1zM33 23h1v1h-1zM34 23h1v1h-1zM35 23h1v1h-1zM36 23h1v1h-1zM37 23h1v1h-1zM38 23h1v1h-1zM39 23h1v1h-1zM40 23h1v1h-1zM41 23h1v1h-1zM42 23h1v1h-1z"/><path fill="#8FC868" d="M43 23h1v1h-1z"/><path fill="#6CBB5A" d="M44 23h1v1h-1zM45 23h1v1h-1zM46 23h1v1h-1zM47 23h1v1h-1zM48 23h1v1h-1z"/><path fill="#51B450" d="M49 23h1v1h-1z"/><path fill="#2BA943" d="M50 23h1v1h-1zM51 23h1v1h-1z"/><path fill="#1AA53D" d="M52 23h1v1h-1z"/><path fill="#15A33B" d="M53 23h1v1h-1zM54 23h1v1h-1zM55 23h1v1h-1z"/><path fill="#188934" d="M56 23h1v1h-1z"/><path fill="#1D5526" d="M57 23h1v1h-1z"/><path fill="#21291A" d="M58 23h1v1h-1z"/><path fill="#231815" d="M59 23h1v1h-1zM60 23h1v1h-1zM61 23h1v1h-1zM62 23h1v1h-1zM63 23h1v1h-1zM64 23h1v1h-1zM65 23h1v1h-1zM66 23h1v1h-1zM19 24h1v1h-1zM20 24h1v1h-1zM21 24h1v1h-1z"/><path fill="#15A33B" d="M22 24h1v1h-1zM23 24h1v1h-1z"/><path fill="#6CBB5A" d="M24 24h1v1h-1zM25 24h1v1h-1zM26 24h1v1h-1z"/><path fill="#8FC868" d="M27 24h1v1h-1z"/><path fill="#9ACC6C" d="M28 24h1v1h-1zM29 24h1v1h-1zM30 24h1v1h-1zM31 24h1v1h-1zM32 24h1v1h-1zM33 24h1v1h-1zM34 24h1v1h-1zM35 24h1v1h-1zM36 24h1v1h-1zM37 24h1v1h-1zM38 24h1v1h-1zM39 24h1v1h-1zM40 24h1v1h-1zM41 24h1v1h-1zM42 24h1v1h-1zM43 24h1v1h-1z"/><path fill="#72BD5C" d="M44 24h1v1h-1z"/><path fill="#6CBB5A" d="M45 24h1v1h-1zM46 24h1v1h-1zM47 24h1v1h-1zM48 24h1v1h-1zM49 24h1v1h-1zM50 24h1v1h-1zM51 24h1v1h-1zM52 24h1v1h-1z"/><path fill="#67BA58" d="M53 24h1v1h-1z"/><path fill="#56B552" d="M54 24h1v1h-1z"/><path fill="#41AF4B" d="M55 24h1v1h-1z"/><path fill="#30AB45" d="M56 24h1v1h-1z"/><path fill="#1AA53D" d="M57 24h1v1h-1z"/><path fill="#15A33B" d="M58 24h1v1h-1z"/><path fill="#188934" d="M59 24h1v1h-1z"/><path fill="#1D5526" d="M60 24h1v1h-1z"/><path fill="#222117" d="M61 24h1v1h-1z"/><path fill="#231815" d="M62 24h1v1h-1zM63 24h1v1h-1zM64 24h1v1h-1zM65 24h1v1h-1zM66 24h1v1h-1zM67 24h1v1h-1zM19 25h1v1h-1zM20 25h1v1h-1zM21 25h1v1h-1z"/><path fill="#15A33B" d="M22 25h1v1h-1zM23 25h1v1h-1z"/><path fill="#6CBB5A" d="M24 25h1v1h-1zM25 25h1v1h-1zM26 25h1v1h-1z"/><path fill="#83C463" d="M27 25h1v1h-1z"/><path fill="#9ACC6C" d="M28 25h1v1h-1zM29 25h1v1h-1zM30 25h1v1h-1zM31 25h1v1h-1zM32 25h1v1h-1zM33 25h1v1h-1zM34 25h1v1h-1zM35 25h1v1h-1zM36 25h1v1h-1zM37 25h1v1h-1zM38 25h1v1h-1zM39 25h1v1h-1zM40 25h1v1h-1zM41 25h1v1h-1zM42 25h1v1h-1zM43 25h1v1h-1z"/><path fill="#7DC161" d="M44 25h1v1h-1z"/><path fill="#6CBB5A" d="M45 25h1v1h-1zM46 25h1v1h-1zM47 25h1v1h-1zM48 25h1v1h-1zM49 25h1v1h-1zM50 25h1v1h-1zM51 25h1v1h-1zM52 25h1v1h-1zM53 25h1v1h-1zM54 25h1v1h-1zM55 25h1v1h-1zM56 25h1v1h-1zM57 25h1v1h-1z"/><path fill="#56B552" d="M58 25h1v1h-1z"/><path fill="#3BAE49" d="M59 25h1v1h-1z"/><path fill="#20A63F" d="M60 25h1v1h-1z"/><path fill="#15A33B" d="M61 25h1v1h-1z"/><path fill="#1A6F2D" d="M62 25h1v1h-1z"/><path fill="#203B1F" d="M63 25h1v1h-1z"/><path fill="#231815" d="M64 25h1v1h-1zM65 25h1v1h-1zM66 25h1v1h-1zM67 25h1v1h-1zM68 25h1v1h-1zM69 25h1v1h-1zM19 26h1v1h-1zM20 26h1v1h-1zM21 26h1v1h-1z"/><path fill="#169A39" d="M22 26h1v1h-1z"/><path fill="#15A33B" d="M23 26h1v1h-1z"/><path fill="#6CBB5A" d="M24 26h1v1h-1zM25 26h1v1h-1zM26 26h1v1h-1z"/><path fill="#80C262" d="M27 26h1v1h-1z"/><path fill="#9ACC6C" d="M28 26h1v1h-1zM29 26h1v1h-1zM30 26h1v1h-1zM31 26h1v1h-1zM32 26h1v1h-1zM33 26h1v1h-1zM34 26h1v1h-1zM35 26h1v1h-1zM36 26h1v1h-1zM37 26h1v1h-1zM38 26h1v1h-1zM39 26h1v1h-1zM40 26h1v1h-1zM41 26h1v1h-1zM42 26h1v1h-1zM43 26h1v1h-1z"/><path fill="#83C463" d="M44 26h1v1h-1z"/><path fill="#6CBB5A" d="M45 26h1v1h-1zM46 26h1v1h-1zM47 26h1v1h-1zM48 26h1v1h-1zM49 26h1v1h-1zM50 26h1v1h-1zM51 26h1v1h-1zM52 26h1v1h-1zM53 26h1v1h-1zM54 26h1v1h-1zM55 26h1v1h-1zM56 26h1v1h-1zM57 26h1v1h-1zM58 26h1v1h-1zM59 26h1v1h-1zM60 26h1v1h-1z"/><path fill="#51B450" d="M61 26h1v1h-1z"/><path fill="#2BA943" d="M62 26h1v1h-1z"/><path fill="#15A33B" d="M63 26h1v1h-1z"/><path fill="#198032" d="M64 26h1v1h-1z"/><path fill="#203B1F" d="M65 26h1v1h-1z"/><path fill="#231815" d="M66 26h1v1h-1zM67 26h1v1h-1zM68 26h1v1h-1zM69 26h1v1h-1zM70 26h1v1h-1zM71 26h1v1h-1zM19 27h1v1h-1zM20 27h1v1h-1zM21 27h1v1h-1z"/><path fill="#198032" d="M22 27h1v1h-1z"/><path fill="#15A33B" d="M23 27h1v1h-1z"/><path fill="#5CB754" d="M24 27h1v1h-1z"/><path fill="#6CBB5A" d="M25 27h1v1h-1zM26 27h1v1h-1z"/><path fill="#72BD5C" d="M27 27h1v1h-1z"/><path fill="#9ACC6C" d="M28 27h1v1h-1zM29 27h1v1h-1zM30 27h1v1h-1zM31 27h1v1h-1zM32 27h1v1h-1zM33 27h1v1h-1zM34 27h1v1h-1zM35 27h1v1h-1zM36 27h1v1h-1zM37 27h1v1h-1zM38 27h1v1h-1zM39 27h1v1h-1zM40 27h1v1h-1zM41 27h1v1h-1zM42 27h1v1h-1zM43 27h1v1h-1z"/><path fill="#83C463" d="M44 27h1v1h-1z"/><path fill="#6CBB5A" d="M45 27h1v1h-1zM46 27h1v1h-1z"/><path fill="#6FBC5B" d="M47 27h1v1h-1z"/><path fill="#78BF5F" d="M48 27h1v1h-1z"/><path fill="#7DC161" d="M49 27h1v1h-1z"/><path fill="#83C463" d="M50 27h1v1h-1zM51 27h1v1h-1zM52 27h1v1h-1z"/><path fill="#7DC161" d="M53 27h1v1h-1z"/><path fill="#78BF5F" d="M54 27h1v1h-1z"/><path fill="#72BD5C" d="M55 27h1v1h-1z"/><path fill="#6CBB5A" d="M56 27h1v1h-1zM57 27h1v1h-1zM58 27h1v1h-1zM59 27h1v1h-1zM60 27h1v1h-1zM61 27h1v1h-1zM62 27h1v1h-1z"/><path fill="#56B552" d="M63 27h1v1h-1z"/><path fill="#25A841" d="M64 27h1v1h-1z"/><path fill="#15A33B" d="M65 27h1v1h-1z"/><path fill="#198032" d="M66 27h1v1h-1z"/><path fill="#203B1F" d="M67 27h1v1h-1z"/><path fill="#231815" d="M68 27h1v1h-1zM69 27h1v1h-1zM70 27h1v1h-1zM71 27h1v1h-1zM72 27h1v1h-1zM19 28h1v1h-1zM20 28h1v1h-1zM21 28h1v1h-1z"/><path fill="#1B662A" d="M22 28h1v1h-1z"/><path fill="#15A33B" d="M23 28h1v1h-1z"/><path fill="#46B14C" d="M24 28h1v1h-1z"/><path fill="#6CBB5A" d="M25 28h1v1h-1zM26 28h1v1h-1zM27 28h1v1h-1z"/><path fill="#86C564" d="M28 28h1v1h-1z"/><path fill="#9ACC6C" d="M29 28h1v1h-1zM30 28h1v1h-1zM31 28h1v1h-1zM32 28h1v1h-1zM33 28h1v1h-1zM34 28h1v1h-1zM35 28h1v1h-1zM36 28h1v1h-1zM37 28h1v1h-1zM38 28h1v1h-1zM39 28h1v1h-1zM40 28h1v1h-1zM41 28h1v1h-1zM42 28h1v1h-1zM43 28h1v1h-1z"/><path fill="#86C564" d="M44 28h1v1h-1zM45 28h1v1h-1z"/><path fill="#94CA6A" d="M46 28h1v1h-1z"/><path fill="#9ACC6C" d="M47 28h1v1h-1zM48 28h1v1h-1zM49 28h1v1h-1zM50 28h1v1h-1zM51 28h1v1h-1zM52 28h1v1h-1zM53 28h1v1h-1zM54 28h1v1h-1zM55 28h1v1h-1z"/><path fill="#94CA6A" d="M56 28h1v1h-1z"/><path fill="#89C665" d="M57 28h1v1h-1z"/><path fill="#7AC060" d="M58 28h1v1h-1z"/><path fill="#6CBB5A" d="M59 28h1v1h-1zM60 28h1v1h-1zM61 28h1v1h-1zM62 28h1v1h-1zM63 28h1v1h-1zM64 28h1v1h-1z"/><path fill="#46B14C" d="M65 28h1v1h-1z"/><path fill="#1AA53D" d="M66 28h1v1h-1z"/><path fill="#15A33B" d="M67 28h1v1h-1z"/><path fill="#1A6F2D" d="M68 28h1v1h-1z"/><path fill="#222117" d="M69 28h1v1h-1z"/><path fill="#231815" d="M70 28h1v1h-1zM71 28h1v1h-1zM72 28h1v1h-1zM73 28h1v1h-1zM19 29h1v1h-1zM20 29h1v1h-1zM21 29h1v1h-1z"/><path fill="#1E4C23" d="M22 29h1v1h-1z"/><path fill="#15A33B" d="M23 29h1v1h-1z"/><path fill="#25A841" d="M24 29h1v1h-1z"/><path fill="#6CBB5A" d="M25 29h1v1h-1zM26 29h1v1h-1zM27 29h1v1h-1z"/><path fill="#6FBC5B" d="M28 29h1v1h-1z"/><path fill="#94CA6A" d="M29 29h1v1h-1z"/><path fill="#9ACC6C" d="M30 29h1v1h-1zM31 29h1v1h-1zM32 29h1v1h-1zM33 29h1v1h-1zM34 29h1v1h-1zM35 29h1v1h-1zM36 29h1v1h-1zM37 29h1v1h-1zM38 29h1v1h-1zM39 29h1v1h-1zM40 29h1v1h-1zM41 29h1v1h-1zM42 29h1v1h-1zM43 29h1v1h-1zM44 29h1v1h-1zM45 29h1v1h-1zM46 29h1v1h-1zM47 29h1v1h-1zM48 29h1v1h-1zM49 29h1v1h-1zM50 29h1v1h-1zM51 29h1v1h-1zM52 29h1v1h-1zM53 29h1v1h-1zM54 29h1v1h-1zM55 29h1v1h-1zM56 29h1v1h-1zM57 29h1v1h-1zM58 29h1v1h-1z"/><path fill="#94CA6A" d="M59 29h1v1h-1z"/><path fill="#7DC161" d="M60 29h1v1h-1z"/><path fill="#6CBB5A" d="M61 29h1v1h-1zM62 29h1v1h-1zM63 29h1v1h-1zM64 29h1v1h-1zM65 29h1v1h-1z"/><path fill="#5CB754" d="M66 29h1v1h-1z"/><path fill="#25A841" d="M67 29h1v1h-1z"/><path fill="#15A33B" d="M68 29h1v1h-1z"/><path fill="#169A39" d="M69 29h1v1h-1z"/><path fill="#203B1F" d="M70 29h1v1h-1z"/><path fill="#231815" d="M71 29h1v1h-1zM72 29h1v1h-1zM73 29h1v1h-1zM74 29h1v1h-1zM20 30h1v1h-1zM21 30h1v1h-1z"/><path fill="#222117" d="M22 30h1v1h-1z"/><path fill="#15A33B" d="M23 30h1v1h-1zM24 30h1v1h-1z"/><path fill="#56B552" d="M25 30h1v1h-1z"/><path fill="#6CBB5A" d="M26 30h1v1h-1zM27 30h1v1h-1zM28 30h1v1h-1z"/><path fill="#75BE5D" d="M29 30h1v1h-1z"/><path fill="#97CB6B" d="M30 30h1v1h-1z"/><path fill="#9ACC6C" d="M31 30h1v1h-1zM32 30h1v1h-1zM33 30h1v1h-1zM34 30h1v1h-1zM35 30h1v1h-1zM36 30h1v1h-1zM37 30h1v1h-1zM38 30h1v1h-1zM39 30h1v1h-1zM40 30h1v1h-1zM41 30h1v1h-1zM42 30h1v1h-1zM43 30h1v1h-1zM44 30h1v1h-1zM45 30h1v1h-1zM46 30h1v1h-1zM47 30h1v1h-1zM48 30h1v1h-1zM49 30h1v1h-1zM50 30h1v1h-1zM51 30h1v1h-1zM52 30h1v1h-1zM53 30h1v1h-1zM54 30h1v1h-1zM55 30h1v1h-1zM56 30h1v1h-1zM57 30h1v1h-1zM58 30h1v1h-1zM59 30h1v1h-1zM60 30h1v1h-1z"/><path fill="#94CA6A" d="M61 30h1v1h-1z"/><path fill="#78BF5F" d="M62 30h1v1h-1z"/><path fill="#6CBB5A" d="M63 30h1v1h-1zM64 30h1v1h-1zM65 30h1v1h-1zM66 30h1v1h-1z"/><path fill="#67BA58" d="M67 30h1v1h-1z"/><path fill="#25A841" d="M68 30h1v1h-1z"/><path fill="#15A33B" d="M69 30h1v1h-1zM70 30h1v1h-1z"/><path fill="#1C5E28" d="M71 30h1v1h-1z"/><path fill="#231815" d="M72 30h1v1h-1zM73 30h1v1h-1zM74 30h1v1h-1zM75 30h1v1h-1zM20 31h1v1h-1zM21 31h1v1h-1zM22 31h1v1h-1z"/><path fill="#19782F" d="M23 31h1v1h-1z"/><path fill="#15A33B" d="M24 31h1v1h-1z"/><path fill="#2BA943" d="M25 31h1v1h-1z"/><path fill="#6CBB5A" d="M26 31h1v1h-1zM27 31h1v1h-1zM28 31h1v1h-1zM29 31h1v1h-1z"/><path fill="#6FBC5B" d="M30 31h1v1h-1z"/><path fill="#8FC868" d="M31 31h1v1h-1z"/><path fill="#9ACC6C" d="M32 31h1v1h-1zM33 31h1v1h-1zM34 31h1v1h-1zM35 31h1v1h-1zM36 31h1v1h-1zM37 31h1v1h-1zM38 31h1v1h-1zM39 31h1v1h-1zM40 31h1v1h-1zM41 31h1v1h-1zM42 31h1v1h-1zM43 31h1v1h-1zM44 31h1v1h-1zM45 31h1v1h-1zM46 31h1v1h-1zM47 31h1v1h-1zM48 31h1v1h-1zM49 31h1v1h-1zM50 31h1v1h-1zM51 31h1v1h-1zM52 31h1v1h-1zM53 31h1v1h-1zM54 31h1v1h-1zM55 31h1v1h-1zM56 31h1v1h-1zM57 31h1v1h-1zM58 31h1v1h-1zM59 31h1v1h-1zM60 31h1v1h-1zM61 31h1v1h-1zM62 31h1v1h-1z"/><path fill="#86C564" d="M63 31h1v1h-1z"/><path fill="#6CBB5A" d="M64 31h1v1h-1zM65 31h1v1h-1zM66 31h1v1h-1zM67 31h1v1h-1z"/><path fill="#67BA58" d="M68 31h1v1h-1z"/><path fill="#25A841" d="M69 31h1v1h-1z"/><path fill="#15A33B" d="M70 31h1v1h-1zM71 31h1v1h-1z"/><path fill="#1A6F2D" d="M72 31h1v1h-1z"/><path fill="#231815" d="M73 31h1v1h-1zM74 31h1v1h-1zM75 31h1v1h-1zM76 31h1v1h-1zM20 32h1v1h-1zM21 32h1v1h-1zM22 32h1v1h-1z"/><path fill="#1E4C23" d="M23 32h1v1h-1z"/><path fill="#15A33B" d="M24 32h1v1h-1zM25 32h1v1h-1z"/><path fill="#56B552" d="M26 32h1v1h-1z"/><path fill="#6CBB5A" d="M27 32h1v1h-1zM28 32h1v1h-1zM29 32h1v1h-1zM30 32h1v1h-1zM31 32h1v1h-1z"/><path fill="#7DC161" d="M32 32h1v1h-1z"/><path fill="#91C969" d="M33 32h1v1h-1z"/><path fill="#9ACC6C" d="M34 32h1v1h-1zM35 32h1v1h-1zM36 32h1v1h-1zM37 32h1v1h-1zM38 32h1v1h-1zM39 32h1v1h-1zM40 32h1v1h-1zM41 32h1v1h-1zM42 32h1v1h-1zM43 32h1v1h-1zM44 32h1v1h-1zM45 32h1v1h-1zM46 32h1v1h-1zM47 32h1v1h-1zM48 32h1v1h-1zM49 32h1v1h-1zM50 32h1v1h-1zM51 32h1v1h-1zM52 32h1v1h-1zM53 32h1v1h-1zM54 32h1v1h-1zM55 32h1v1h-1zM56 32h1v1h-1zM57 32h1v1h-1zM58 32h1v1h-1zM59 32h1v1h-1zM60 32h1v1h-1zM61 32h1v1h-1zM62 32h1v1h-1zM63 32h1v1h-1z"/><path fill="#91C969" d="M64 32h1v1h-1z"/><path fill="#6FBC5B" d="M65 32h1v1h-1z"/><path fill="#6CBB5A" d="M66 32h1v1h-1zM67 32h1v1h-1zM68 32h1v1h-1z"/><path fill="#67BA58" d="M69 32h1v1h-1z"/><path fill="#1AA53D" d="M70 32h1v1h-1z"/><path fill="#15A33B" d="M71 32h1v1h-1zM72 32h1v1h-1z"/><path fill="#1A6F2D" d="M73 32h1v1h-1z"/><path fill="#231815" d="M74 32h1v1h-1zM75 32h1v1h-1zM76 32h1v1h-1zM77 32h1v1h-1zM20 33h1v1h-1zM21 33h1v1h-1zM22 33h1v1h-1z"/><path fill="#222117" d="M23 33h1v1h-1z"/><path fill="#15A33B" d="M24 33h1v1h-1zM25 33h1v1h-1z"/><path fill="#2BA943" d="M26 33h1v1h-1z"/><path fill="#6CBB5A" d="M27 33h1v1h-1zM28 33h1v1h-1zM29 33h1v1h-1zM30 33h1v1h-1zM31 33h1v1h-1zM32 33h1v1h-1zM33 33h1v1h-1z"/><path fill="#72BD5C" d="M34 33h1v1h-1z"/><path fill="#7DC161" d="M35 33h1v1h-1z"/><path fill="#83C463" d="M36 33h1v1h-1z"/><path fill="#9ACC6C" d="M37 33h1v1h-1zM38 33h1v1h-1zM39 33h1v1h-1zM40 33h1v1h-1zM41 33h1v1h-1zM42 33h1v1h-1zM43 33h1v1h-1zM44 33h1v1h-1zM45 33h1v1h-1zM46 33h1v1h-1z"/><path fill="#A3D17C" d="M47 33h1v1h-1z"/><path fill="#B2D897" d="M48 33h1v1h-1zM49 33h1v1h-1zM50 33h1v1h-1z"/><path fill="#AFD792" d="M51 33h1v1h-1z"/><path fill="#A0CF77" d="M52 33h1v1h-1z"/><path fill="#9ACC6C" d="M53 33h1v1h-1zM54 33h1v1h-1zM55 33h1v1h-1zM56 33h1v1h-1zM57 33h1v1h-1zM58 33h1v1h-1zM59 33h1v1h-1zM60 33h1v1h-1zM61 33h1v1h-1zM62 33h1v1h-1zM63 33h1v1h-1zM64 33h1v1h-1z"/><path fill="#91C969" d="M65 33h1v1h-1z"/><path fill="#6FBC5B" d="M66 33h1v1h-1z"/><path fill="#6CBB5A" d="M67 33h1v1h-1zM68 33h1v1h-1zM69 33h1v1h-1z"/><path fill="#51B450" d="M70 33h1v1h-1z"/><path fill="#15A33B" d="M71 33h1v1h-1zM72 33h1v1h-1zM73 33h1v1h-1z"/><path fill="#1A6F2D" d="M74 33h1v1h-1z"/><path fill="#231815" d="M75 33h1v1h-1zM76 33h1v1h-1zM77 33h1v1h-1zM78 33h1v1h-1zM21 34h1v1h-1zM22 34h1v1h-1zM23 34h1v1h-1z"/><path fill="#19782F" d="M24 34h1v1h-1z"/><path fill="#15A33B" d="M25 34h1v1h-1zM26 34h1v1h-1z"/><path fill="#56B552" d="M27 34h1v1h-1z"/><path fill="#6CBB5A" d="M28 34h1v1h-1zM29 34h1v1h-1zM30 34h1v1h-1zM31 34h1v1h-1zM32 34h1v1h-1zM33 34h1v1h-1zM34 34h1v1h-1zM35 34h1v1h-1z"/><path fill="#89C665" d="M36 34h1v1h-1z"/><path fill="#9ACC6C" d="M37 34h1v1h-1zM38 34h1v1h-1zM39 34h1v1h-1zM40 34h1v1h-1zM41 34h1v1h-1zM42 34h1v1h-1zM43 34h1v1h-1zM44 34h1v1h-1z"/><path fill="#A3D17C" d="M45 34h1v1h-1z"/><path fill="#C1E0B2" d="M46 34h1v1h-1z"/><path fill="#CAE4C2" d="M47 34h1v1h-1zM48 34h1v1h-1zM49 34h1v1h-1zM50 34h1v1h-1zM51 34h1v1h-1zM52 34h1v1h-1z"/><path fill="#BBDDA7" d="M53 34h1v1h-1z"/><path fill="#9DCE71" d="M54 34h1v1h-1z"/><path fill="#9ACC6C" d="M55 34h1v1h-1zM56 34h1v1h-1zM57 34h1v1h-1zM58 34h1v1h-1zM59 34h1v1h-1zM60 34h1v1h-1zM61 34h1v1h-1zM62 34h1v1h-1zM63 34h1v1h-1zM64 34h1v1h-1zM65 34h1v1h-1z"/><path fill="#8FC868" d="M66 34h1v1h-1z"/><path fill="#6CBB5A" d="M67 34h1v1h-1zM68 34h1v1h-1zM69 34h1v1h-1zM70 34h1v1h-1z"/><path fill="#30AB45" d="M71 34h1v1h-1z"/><path fill="#15A33B" d="M72 34h1v1h-1zM73 34h1v1h-1zM74 34h1v1h-1z"/><path fill="#1C5E28" d="M75 34h1v1h-1z"/><path fill="#231815" d="M76 34h1v1h-1zM77 34h1v1h-1zM78 34h1v1h-1zM79 34h1v1h-1zM21 35h1v1h-1zM22 35h1v1h-1zM23 35h1v1h-1z"/><path fill="#1D5526" d="M24 35h1v1h-1z"/><path fill="#15A33B" d="M25 35h1v1h-1zM26 35h1v1h-1z"/><path fill="#36AC47" d="M27 35h1v1h-1z"/><path fill="#6CBB5A" d="M28 35h1v1h-1zM29 35h1v1h-1zM30 35h1v1h-1zM31 35h1v1h-1zM32 35h1v1h-1zM33 35h1v1h-1zM34 35h1v1h-1z"/><path fill="#80C262" d="M35 35h1v1h-1z"/><path fill="#9ACC6C" d="M36 35h1v1h-1zM37 35h1v1h-1zM38 35h1v1h-1zM39 35h1v1h-1zM40 35h1v1h-1zM41 35h1v1h-1zM42 35h1v1h-1zM43 35h1v1h-1z"/><path fill="#A6D282" d="M44 35h1v1h-1z"/><path fill="#CAE4C2" d="M45 35h1v1h-1zM46 35h1v1h-1zM47 35h1v1h-1zM48 35h1v1h-1zM49 35h1v1h-1zM50 35h1v1h-1zM51 35h1v1h-1zM52 35h1v1h-1zM53 35h1v1h-1z"/><path fill="#C1E0B2" d="M54 35h1v1h-1z"/><path fill="#9DCE71" d="M55 35h1v1h-1z"/><path fill="#9ACC6C" d="M56 35h1v1h-1zM57 35h1v1h-1zM58 35h1v1h-1zM59 35h1v1h-1zM60 35h1v1h-1zM61 35h1v1h-1zM62 35h1v1h-1zM63 35h1v1h-1zM64 35h1v1h-1zM65 35h1v1h-1zM66 35h1v1h-1z"/><path fill="#86C564" d="M67 35h1v1h-1z"/><path fill="#6CBB5A" d="M68 35h1v1h-1zM69 35h1v1h-1zM70 35h1v1h-1z"/><path fill="#61B856" d="M71 35h1v1h-1z"/><path fill="#15A33B" d="M72 35h1v1h-1zM73 35h1v1h-1zM74 35h1v1h-1zM75 35h1v1h-1z"/><path fill="#1F4321" d="M76 35h1v1h-1z"/><path fill="#231815" d="M77 35h1v1h-1zM78 35h1v1h-1zM79 35h1v1h-1zM21 36h1v1h-1zM22 36h1v1h-1zM23 36h1v1h-1z"/><path fill="#21291A" d="M24 36h1v1h-1z"/><path fill="#15A33B" d="M25 36h1v1h-1zM26 36h1v1h-1zM27 36h1v1h-1z"/><path fill="#67BA58" d="M28 36h1v1h-1z"/><path fill="#6CBB5A" d="M29 36h1v1h-1zM30 36h1v1h-1zM31 36h1v1h-1zM32 36h1v1h-1zM33 36h1v1h-1z"/><path fill="#72BD5C" d="M34 36h1v1h-1z"/><path fill="#97CB6B" d="M35 36h1v1h-1z"/><path fill="#9ACC6C" d="M36 36h1v1h-1zM37 36h1v1h-1zM38 36h1v1h-1zM39 36h1v1h-1zM40 36h1v1h-1zM41 36h1v1h-1zM42 36h1v1h-1zM43 36h1v1h-1z"/><path fill="#C4E1B7" d="M44 36h1v1h-1z"/><path fill="#CAE4C2" d="M45 36h1v1h-1zM46 36h1v1h-1zM47 36h1v1h-1zM48 36h1v1h-1zM49 36h1v1h-1zM50 36h1v1h-1zM51 36h1v1h-1zM52 36h1v1h-1zM53 36h1v1h-1zM54 36h1v1h-1z"/><path fill="#B8DBA2" d="M55 36h1v1h-1z"/><path fill="#9ACC6C" d="M56 36h1v1h-1zM57 36h1v1h-1zM58 36h1v1h-1zM59 36h1v1h-1zM60 36h1v1h-1zM61 36h1v1h-1zM62 36h1v1h-1zM63 36h1v1h-1zM64 36h1v1h-1zM65 36h1v1h-1zM66 36h1v1h-1zM67 36h1v1h-1z"/><path fill="#78BF5F" d="M68 36h1v1h-1z"/><path fill="#6CBB5A" d="M69 36h1v1h-1zM70 36h1v1h-1zM71 36h1v1h-1z"/><path fill="#2BA943" d="M72 36h1v1h-1z"/><path fill="#15A33B" d="M73 36h1v1h-1zM74 36h1v1h-1zM75 36h1v1h-1z"/><path fill="#169A39" d="M76 36h1v1h-1z"/><path fill="#222117" d="M77 36h1v1h-1z"/><path fill="#231815" d="M78 36h1v1h-1zM79 36h1v1h-1zM80 36h1v1h-1zM22 37h1v1h-1zM23 37h1v1h-1zM24 37h1v1h-1z"/><path fill="#169A39" d="M25 37h1v1h-1z"/><path fill="#15A33B" d="M26 37h1v1h-1zM27 37h1v1h-1z"/><path fill="#51B450" d="M28 37h1v1h-1z"/><path fill="#6CBB5A" d="M29 37h1v1h-1zM30 37h1v1h-1zM31 37h1v1h-1zM32 37h1v1h-1zM33 37h1v1h-1z"/><path fill="#8FC868" d="M34 37h1v1h-1z"/><path fill="#9ACC6C" d="M35 37h1v1h-1zM36 37h1v1h-1zM37 37h1v1h-1zM38 37h1v1h-1zM39 37h1v1h-1zM40 37h1v1h-1zM41 37h1v1h-1zM42 37h1v1h-1z"/><path fill="#A9D487" d="M43 37h1v1h-1z"/><path fill="#CAE4C2" d="M44 37h1v1h-1zM45 37h1v1h-1zM46 37h1v1h-1zM47 37h1v1h-1zM48 37h1v1h-1zM49 37h1v1h-1zM50 37h1v1h-1zM51 37h1v1h-1zM52 37h1v1h-1zM53 37h1v1h-1zM54 37h1v1h-1zM55 37h1v1h-1z"/><path fill="#9ACC6C" d="M56 37h1v1h-1zM57 37h1v1h-1zM58 37h1v1h-1zM59 37h1v1h-1zM60 37h1v1h-1zM61 37h1v1h-1zM62 37h1v1h-1zM63 37h1v1h-1zM64 37h1v1h-1zM65 37h1v1h-1zM66 37h1v1h-1zM67 37h1v1h-1z"/><path fill="#8FC868" d="M68 37h1v1h-1z"/><path fill="#6CBB5A" d="M69 37h1v1h-1zM70 37h1v1h-1zM71 37h1v1h-1z"/><path fill="#4BB24E" d="M72 37h1v1h-1z"/><path fill="#15A33B" d="M73 37h1v1h-1zM74 37h1v1h-1zM75 37h1v1h-1zM76 37h1v1h-1z"/><path fill="#19782F" d="M77 37h1v1h-1z"/><path fill="#231815" d="M78 37h1v1h-1zM79 37h1v1h-1zM80 37h1v1h-1zM81 37h1v1h-1zM22 38h1v1h-1zM23 38h1v1h-1zM24 38h1v1h-1z"/><path fill="#198032" d="M25 38h1v1h-1z"/><path fill="#15A33B" d="M26 38h1v1h-1zM27 38h1v1h-1z"/><path fill="#41AF4B" d="M28 38h1v1h-1z"/><path fill="#6CBB5A" d="M29 38h1v1h-1zM30 38h1v1h-1zM31 38h1v1h-1zM32 38h1v1h-1z"/><path fill="#75BE5D" d="M33 38h1v1h-1z"/><path fill="#9ACC6C" d="M34 38h1v1h-1zM35 38h1v1h-1zM36 38h1v1h-1zM37 38h1v1h-1zM38 38h1v1h-1zM39 38h1v1h-1zM40 38h1v1h-1zM41 38h1v1h-1zM42 38h1v1h-1z"/><path fill="#B2D897" d="M43 38h1v1h-1z"/><path fill="#CAE4C2" d="M44 38h1v1h-1zM45 38h1v1h-1zM46 38h1v1h-1zM47 38h1v1h-1zM48 38h1v1h-1zM49 38h1v1h-1zM50 38h1v1h-1zM51 38h1v1h-1zM52 38h1v1h-1zM53 38h1v1h-1zM54 38h1v1h-1zM55 38h1v1h-1z"/><path fill="#A6D282" d="M56 38h1v1h-1z"/><path fill="#9ACC6C" d="M57 38h1v1h-1zM58 38h1v1h-1zM59 38h1v1h-1zM60 38h1v1h-1zM61 38h1v1h-1zM62 38h1v1h-1zM63 38h1v1h-1zM64 38h1v1h-1zM65 38h1v1h-1zM66 38h1v1h-1zM67 38h1v1h-1zM68 38h1v1h-1z"/><path fill="#78BF5F" d="M69 38h1v1h-1z"/><path fill="#6CBB5A" d="M70 38h1v1h-1zM71 38h1v1h-1z"/><path fill="#67BA58" d="M72 38h1v1h-1z"/><path fill="#15A33B" d="M73 38h1v1h-1zM74 38h1v1h-1zM75 38h1v1h-1zM76 38h1v1h-1zM77 38h1v1h-1z"/><path fill="#203B1F" d="M78 38h1v1h-1z"/><path fill="#231815" d="M79 38h1v1h-1zM80 38h1v1h-1zM81 38h1v1h-1zM22 39h1v1h-1zM23 39h1v1h-1zM24 39h1v1h-1z"/><path fill="#1B662A" d="M25 39h1v1h-1z"/><path fill="#15A33B" d="M26 39h1v1h-1zM27 39h1v1h-1z"/><path fill="#2BA943" d="M28 39h1v1h-1z"/><path fill="#6CBB5A" d="M29 39h1v1h-1zM30 39h1v1h-1zM31 39h1v1h-1zM32 39h1v1h-1z"/><path fill="#89C665" d="M33 39h1v1h-1z"/><path fill="#9ACC6C" d="M34 39h1v1h-1zM35 39h1v1h-1zM36 39h1v1h-1zM37 39h1v1h-1zM38 39h1v1h-1zM39 39h1v1h-1zM40 39h1v1h-1zM41 39h1v1h-1zM42 39h1v1h-1z"/><path fill="#ACD58C" d="M43 39h1v1h-1z"/><path fill="#CAE4C2" d="M44 39h1v1h-1zM45 39h1v1h-1zM46 39h1v1h-1zM47 39h1v1h-1zM48 39h1v1h-1zM49 39h1v1h-1zM50 39h1v1h-1zM51 39h1v1h-1zM52 39h1v1h-1zM53 39h1v1h-1zM54 39h1v1h-1zM55 39h1v1h-1z"/><path fill="#9DCE71" d="M56 39h1v1h-1z"/><path fill="#9ACC6C" d="M57 39h1v1h-1zM58 39h1v1h-1zM59 39h1v1h-1zM60 39h1v1h-1zM61 39h1v1h-1zM62 39h1v1h-1zM63 39h1v1h-1zM64 39h1v1h-1zM65 39h1v1h-1zM66 39h1v1h-1zM67 39h1v1h-1zM68 39h1v1h-1z"/><path fill="#8CC766" d="M69 39h1v1h-1z"/><path fill="#6CBB5A" d="M70 39h1v1h-1zM71 39h1v1h-1zM72 39h1v1h-1z"/><path fill="#25A841" d="M73 39h1v1h-1z"/><path fill="#15A33B" d="M74 39h1v1h-1zM75 39h1v1h-1zM76 39h1v1h-1zM77 39h1v1h-1z"/><path fill="#179236" d="M78 39h1v1h-1z"/><path fill="#231815" d="M79 39h1v1h-1zM80 39h1v1h-1zM81 39h1v1h-1zM82 39h1v1h-1zM22 40h1v1h-1zM23 40h1v1h-1zM24 40h1v1h-1z"/><path fill="#1C5E28" d="M25 40h1v1h-1z"/><path fill="#15A33B" d="M26 40h1v1h-1zM27 40h1v1h-1z"/><path fill="#2BA943" d="M28 40h1v1h-1z"/><path fill="#6CBB5A" d="M29 40h1v1h-1zM30 40h1v1h-1zM31 40h1v1h-1zM32 40h1v1h-1z"/><path fill="#97CB6B" d="M33 40h1v1h-1z"/><path fill="#9ACC6C" d="M34 40h1v1h-1zM35 40h1v1h-1zM36 40h1v1h-1zM37 40h1v1h-1zM38 40h1v1h-1zM39 40h1v1h-1zM40 40h1v1h-1zM41 40h1v1h-1zM42 40h1v1h-1z"/><path fill="#9DCE71" d="M43 40h1v1h-1z"/><path fill="#C7E3BD" d="M44 40h1v1h-1z"/><path fill="#CAE4C2" d="M45 40h1v1h-1zM46 40h1v1h-1zM47 40h1v1h-1zM48 40h1v1h-1zM49 40h1v1h-1zM50 40h1v1h-1zM51 40h1v1h-1zM52 40h1v1h-1zM53 40h1v1h-1zM54 40h1v1h-1z"/><path fill="#BEDEAD" d="M55 40h1v1h-1z"/><path fill="#9ACC6C" d="M56 40h1v1h-1zM57 40h1v1h-1zM58 40h1v1h-1zM59 40h1v1h-1zM60 40h1v1h-1zM61 40h1v1h-1zM62 40h1v1h-1zM63 40h1v1h-1zM64 40h1v1h-1zM65 40h1v1h-1zM66 40h1v1h-1zM67 40h1v1h-1zM68 40h1v1h-1zM69 40h1v1h-1z"/><path fill="#6FBC5B" d="M70 40h1v1h-1z"/><path fill="#6CBB5A" d="M71 40h1v1h-1zM72 40h1v1h-1z"/><path fill="#36AC47" d="M73 40h1v1h-1z"/><path fill="#15A33B" d="M74 40h1v1h-1zM75 40h1v1h-1zM76 40h1v1h-1zM77 40h1v1h-1zM78 40h1v1h-1z"/><path fill="#1E4C23" d="M79 40h1v1h-1z"/><path fill="#231815" d="M80 40h1v1h-1zM81 40h1v1h-1zM82 40h1v1h-1zM22 41h1v1h-1zM23 41h1v1h-1zM24 41h1v1h-1z"/><path fill="#1D5526" d="M25 41h1v1h-1z"/><path fill="#15A33B" d="M26 41h1v1h-1zM27 41h1v1h-1zM28 41h1v1h-1z"/><path fill="#6CBB5A" d="M29 41h1v1h-1zM30 41h1v1h-1zM31 41h1v1h-1z"/><path fill="#78BF5F" d="M32 41h1v1h-1z"/><path fill="#9ACC6C" d="M33 41h1v1h-1zM34 41h1v1h-1zM35 41h1v1h-1zM36 41h1v1h-1zM37 41h1v1h-1zM38 41h1v1h-1zM39 41h1v1h-1zM40 41h1v1h-1zM41 41h1v1h-1zM42 41h1v1h-1zM43 41h1v1h-1z"/><path fill="#ACD58C" d="M44 41h1v1h-1z"/><path fill="#CAE4C2" d="M45 41h1v1h-1zM46 41h1v1h-1zM47 41h1v1h-1zM48 41h1v1h-1zM49 41h1v1h-1zM50 41h1v1h-1zM51 41h1v1h-1zM52 41h1v1h-1zM53 41h1v1h-1z"/><path fill="#C7E3BD" d="M54 41h1v1h-1z"/><path fill="#A3D17C" d="M55 41h1v1h-1z"/><path fill="#9ACC6C" d="M56 41h1v1h-1zM57 41h1v1h-1zM58 41h1v1h-1zM59 41h1v1h-1zM60 41h1v1h-1zM61 41h1v1h-1zM62 41h1v1h-1zM63 41h1v1h-1zM64 41h1v1h-1zM65 41h1v1h-1zM66 41h1v1h-1zM67 41h1v1h-1zM68 41h1v1h-1zM69 41h1v1h-1z"/><path fill="#7DC161" d="M70 41h1v1h-1z"/><path fill="#6CBB5A" d="M71 41h1v1h-1zM72 41h1v1h-1z"/><path fill="#41AF4B" d="M73 41h1v1h-1z"/><path fill="#15A33B" d="M74 41h1v1h-1zM75 41h1v1h-1zM76 41h1v1h-1zM77 41h1v1h-1zM78 41h1v1h-1z"/><path fill="#198032" d="M79 41h1v1h-1z"/><path fill="#231815" d="M80 41h1v1h-1zM81 41h1v1h-1zM82 41h1v1h-1zM23 42h1v1h-1zM24 42h1v1h-1z"/><path fill="#203B1F" d="M25 42h1v1h-1z"/><path fill="#15A33B" d="M26 42h1v1h-1zM27 42h1v1h-1zM28 42h1v1h-1z"/><path fill="#6CBB5A" d="M29 42h1v1h-1zM30 42h1v1h-1zM31 42h1v1h-1z"/><path fill="#83C463" d="M32 42h1v1h-1z"/><path fill="#9ACC6C" d="M33 42h1v1h-1zM34 42h1v1h-1zM35 42h1v1h-1zM36 42h1v1h-1zM37 42h1v1h-1zM38 42h1v1h-1zM39 42h1v1h-1zM40 42h1v1h-1zM41 42h1v1h-1zM42 42h1v1h-1zM43 42h1v1h-1zM44 42h1v1h-1z"/><path fill="#ACD58C" d="M45 42h1v1h-1z"/><path fill="#C7E3BD" d="M46 42h1v1h-1z"/><path fill="#CAE4C2" d="M47 42h1v1h-1zM48 42h1v1h-1zM49 42h1v1h-1zM50 42h1v1h-1zM51 42h1v1h-1zM52 42h1v1h-1z"/><path fill="#C4E1B7" d="M53 42h1v1h-1z"/><path fill="#A3D17C" d="M54 42h1v1h-1z"/><path fill="#9ACC6C" d="M55 42h1v1h-1zM56 42h1v1h-1zM57 42h1v1h-1zM58 42h1v1h-1zM59 42h1v1h-1zM60 42h1v1h-1zM61 42h1v1h-1zM62 42h1v1h-1zM63 42h1v1h-1zM64 42h1v1h-1zM65 42h1v1h-1zM66 42h1v1h-1zM67 42h1v1h-1zM68 42h1v1h-1zM69 42h1v1h-1z"/><path fill="#86C564" d="M70 42h1v1h-1z"/><path fill="#6CBB5A" d="M71 42h1v1h-1zM72 42h1v1h-1z"/><path fill="#46B14C" d="M73 42h1v1h-1z"/><path fill="#15A33B" d="M74 42h1v1h-1zM75 42h1v1h-1zM76 42h1v1h-1zM77 42h1v1h-1zM78 42h1v1h-1zM79 42h1v1h-1z"/><path fill="#20321C" d="M80 42h1v1h-1z"/><path fill="#231815" d="M81 42h1v1h-1zM82 42h1v1h-1zM83 42h1v1h-1zM23 43h1v1h-1zM24 43h1v1h-1z"/><path fill="#203B1F" d="M25 43h1v1h-1z"/><path fill="#15A33B" d="M26 43h1v1h-1zM27 43h1v1h-1zM28 43h1v1h-1z"/><path fill="#6CBB5A" d="M29 43h1v1h-1zM30 43h1v1h-1zM31 43h1v1h-1z"/><path fill="#8CC766" d="M32 43h1v1h-1z"/><path fill="#9ACC6C" d="M33 43h1v1h-1zM34 43h1v1h-1zM35 43h1v1h-1zM36 43h1v1h-1zM37 43h1v1h-1zM38 43h1v1h-1zM39 43h1v1h-1zM40 43h1v1h-1zM41 43h1v1h-1zM42 43h1v1h-1zM43 43h1v1h-1zM44 43h1v1h-1zM45 43h1v1h-1z"/><path fill="#9DCE71" d="M46 43h1v1h-1z"/><path fill="#AFD792" d="M47 43h1v1h-1z"/><path fill="#BBDDA7" d="M48 43h1v1h-1z"/><path fill="#BEDEAD" d="M49 43h1v1h-1zM50 43h1v1h-1z"/><path fill="#B8DBA2" d="M51 43h1v1h-1z"/><path fill="#ACD58C" d="M52 43h1v1h-1z"/><path fill="#9ACC6C" d="M53 43h1v1h-1zM54 43h1v1h-1zM55 43h1v1h-1zM56 43h1v1h-1zM57 43h1v1h-1zM58 43h1v1h-1zM59 43h1v1h-1zM60 43h1v1h-1zM61 43h1v1h-1zM62 43h1v1h-1zM63 43h1v1h-1zM64 43h1v1h-1zM65 43h1v1h-1zM66 43h1v1h-1zM67 43h1v1h-1zM68 43h1v1h-1zM69 43h1v1h-1z"/><path fill="#8FC868" d="M70 43h1v1h-1z"/><path fill="#6CBB5A" d="M71 43h1v1h-1zM72 43h1v1h-1z"/><path fill="#56B552" d="M73 43h1v1h-1z"/><path fill="#15A33B" d="M74 43h1v1h-1zM75 43h1v1h-1zM76 43h1v1h-1zM77 43h1v1h-1zM78 43h1v1h-1zM79 43h1v1h-1z"/><path fill="#1B662A" d="M80 43h1v1h-1z"/><path fill="#231815" d="M81 43h1v1h-1zM82 43h1v1h-1zM83 43h1v1h-1zM23 44h1v1h-1zM24 44h1v1h-1z"/><path fill="#203B1F" d="M25 44h1v1h-1z"/><path fill="#15A33B" d="M26 44h1v1h-1zM27 44h1v1h-1zM28 44h1v1h-1z"/><path fill="#6CBB5A" d="M29 44h1v1h-1zM30 44h1v1h-1zM31 44h1v1h-1z"/><path fill="#8FC868" d="M32 44h1v1h-1z"/><path fill="#9ACC6C" d="M33 44h1v1h-1zM34 44h1v1h-1zM35 44h1v1h-1zM36 44h1v1h-1zM37 44h1v1h-1zM38 44h1v1h-1zM39 44h1v1h-1zM40 44h1v1h-1zM41 44h1v1h-1zM42 44h1v1h-1zM43 44h1v1h-1zM44 44h1v1h-1zM45 44h1v1h-1zM46 44h1v1h-1zM47 44h1v1h-1zM48 44h1v1h-1zM49 44h1v1h-1zM50 44h1v1h-1zM51 44h1v1h-1zM52 44h1v1h-1zM53 44h1v1h-1zM54 44h1v1h-1zM55 44h1v1h-1zM56 44h1v1h-1zM57 44h1v1h-1zM58 44h1v1h-1zM59 44h1v1h-1zM60 44h1v1h-1zM61 44h1v1h-1zM62 44h1v1h-1zM63 44h1v1h-1zM64 44h1v1h-1zM65 44h1v1h-1zM66 44h1v1h-1zM67 44h1v1h-1zM68 44h1v1h-1zM69 44h1v1h-1z"/><path fill="#91C969" d="M70 44h1v1h-1z"/><path fill="#6CBB5A" d="M71 44h1v1h-1zM72 44h1v1h-1z"/><path fill="#56B552" d="M73 44h1v1h-1z"/><path fill="#15A33B" d="M74 44h1v1h-1zM75 44h1v1h-1zM76 44h1v1h-1zM77 44h1v1h-1zM78 44h1v1h-1zM79 44h1v1h-1z"/><path fill="#179236" d="M80 44h1v1h-1z"/><path fill="#231815" d="M81 44h1v1h-1zM82 44h1v1h-1zM83 44h1v1h-1zM23 45h1v1h-1zM24 45h1v1h-1z"/><path fill="#203B1F" d="M25 45h1v1h-1z"/><path fill="#15A33B" d="M26 45h1v1h-1zM27 45h1v1h-1zM28 45h1v1h-1z"/><path fill="#6CBB5A" d="M29 45h1v1h-1zM30 45h1v1h-1zM31 45h1v1h-1z"/><path fill="#8FC868" d="M32 45h1v1h-1z"/><path fill="#9ACC6C" d="M33 45h1v1h-1zM34 45h1v1h-1zM35 45h1v1h-1zM36 45h1v1h-1zM37 45h1v1h-1zM38 45h1v1h-1zM39 45h1v1h-1zM40 45h1v1h-1zM41 45h1v1h-1zM42 45h1v1h-1zM43 45h1v1h-1zM44 45h1v1h-1zM45 45h1v1h-1zM46 45h1v1h-1zM47 45h1v1h-1zM48 45h1v1h-1zM49 45h1v1h-1zM50 45h1v1h-1zM51 45h1v1h-1zM52 45h1v1h-1zM53 45h1v1h-1zM54 45h1v1h-1zM55 45h1v1h-1zM56 45h1v1h-1zM57 45h1v1h-1zM58 45h1v1h-1zM59 45h1v1h-1zM60 45h1v1h-1zM61 45h1v1h-1zM62 45h1v1h-1zM63 45h1v1h-1zM64 45h1v1h-1zM65 45h1v1h-1zM66 45h1v1h-1zM67 45h1v1h-1zM68 45h1v1h-1zM69 45h1v1h-1zM70 45h1v1h-1z"/><path fill="#6CBB5A" d="M71 45h1v1h-1zM72 45h1v1h-1z"/><path fill="#51B450" d="M73 45h1v1h-1z"/><path fill="#15A33B" d="M74 45h1v1h-1zM75 45h1v1h-1zM76 45h1v1h-1zM77 45h1v1h-1zM78 45h1v1h-1zM79 45h1v1h-1zM80 45h1v1h-1z"/><path fill="#21291A" d="M81 45h1v1h-1z"/><path fill="#231815" d="M82 45h1v1h-1zM83 45h1v1h-1zM23 46h1v1h-1zM24 46h1v1h-1z"/><path fill="#203B1F" d="M25 46h1v1h-1z"/><path fill="#15A33B" d="M26 46h1v1h-1zM27 46h1v1h-1z"/><path fill="#20A63F" d="M28 46h1v1h-1z"/><path fill="#6CBB5A" d="M29 46h1v1h-1zM30 46h1v1h-1zM31 46h1v1h-1z"/><path fill="#8FC868" d="M32 46h1v1h-1z"/><path fill="#9ACC6C" d="M33 46h1v1h-1zM34 46h1v1h-1zM35 46h1v1h-1zM36 46h1v1h-1zM37 46h1v1h-1zM38 46h1v1h-1zM39 46h1v1h-1zM40 46h1v1h-1zM41 46h1v1h-1zM42 46h1v1h-1zM43 46h1v1h-1zM44 46h1v1h-1zM45 46h1v1h-1zM46 46h1v1h-1zM47 46h1v1h-1zM48 46h1v1h-1zM49 46h1v1h-1zM50 46h1v1h-1zM51 46h1v1h-1zM52 46h1v1h-1zM53 46h1v1h-1zM54 46h1v1h-1zM55 46h1v1h-1zM56 46h1v1h-1zM57 46h1v1h-1zM58 46h1v1h-1zM59 46h1v1h-1zM60 46h1v1h-1zM61 46h1v1h-1zM62 46h1v1h-1zM63 46h1v1h-1zM64 46h1v1h-1zM65 46h1v1h-1zM66 46h1v1h-1zM67 46h1v1h-1zM68 46h1v1h-1zM69 46h1v1h-1zM70 46h1v1h-1z"/><path fill="#6CBB5A" d="M71 46h1v1h-1zM72 46h1v1h-1z"/><path fill="#41AF4B" d="M73 46h1v1h-1z"/><path fill="#15A33B" d="M74 46h1v1h-1zM75 46h1v1h-1zM76 46h1v1h-1zM77 46h1v1h-1zM78 46h1v1h-1zM79 46h1v1h-1zM80 46h1v1h-1z"/><path fill="#1E4C23" d="M81 46h1v1h-1z"/><path fill="#231815" d="M82 46h1v1h-1zM83 46h1v1h-1zM84 46h1v1h-1zM22 47h1v1h-1zM23 47h1v1h-1zM24 47h1v1h-1z"/><path fill="#203B1F" d="M25 47h1v1h-1z"/><path fill="#15A33B" d="M26 47h1v1h-1zM27 47h1v1h-1z"/><path fill="#2BA943" d="M28 47h1v1h-1z"/><path fill="#6CBB5A" d="M29 47h1v1h-1zM30 47h1v1h-1zM31 47h1v1h-1z"/><path fill="#8FC868" d="M32 47h1v1h-1z"/><path fill="#9ACC6C" d="M33 47h1v1h-1zM34 47h1v1h-1zM35 47h1v1h-1zM36 47h1v1h-1zM37 47h1v1h-1zM38 47h1v1h-1zM39 47h1v1h-1zM40 47h1v1h-1zM41 47h1v1h-1zM42 47h1v1h-1zM43 47h1v1h-1zM44 47h1v1h-1zM45 47h1v1h-1zM46 47h1v1h-1zM47 47h1v1h-1zM48 47h1v1h-1zM49 47h1v1h-1zM50 47h1v1h-1zM51 47h1v1h-1zM52 47h1v1h-1zM53 47h1v1h-1zM54 47h1v1h-1zM55 47h1v1h-1zM56 47h1v1h-1zM57 47h1v1h-1zM58 47h1v1h-1zM59 47h1v1h-1zM60 47h1v1h-1zM61 47h1v1h-1zM62 47h1v1h-1zM63 47h1v1h-1zM64 47h1v1h-1zM65 47h1v1h-1zM66 47h1v1h-1zM67 47h1v1h-1zM68 47h1v1h-1zM69 47h1v1h-1z"/><path fill="#91C969" d="M70 47h1v1h-1z"/><path fill="#6CBB5A" d="M71 47h1v1h-1zM72 47h1v1h-1z"/><path fill="#41AF4B" d="M73 47h1v1h-1z"/><path fill="#15A33B" d="M74 47h1v1h-1zM75 47h1v1h-1zM76 47h1v1h-1zM77 47h1v1h-1zM78 47h1v1h-1zM79 47h1v1h-1zM80 47h1v1h-1z"/><path fill="#1B662A" d="M81 47h1v1h-1z"/><path fill="#231815" d="M82 47h1v1h-1zM83 47h1v1h-1zM84 47h1v1h-1zM22 48h1v1h-1zM23 48h1v1h-1zM24 48h1v1h-1z"/><path fill="#1D5526" d="M25 48h1v1h-1z"/><path fill="#15A33B" d="M26 48h1v1h-1zM27 48h1v1h-1z"/><path fill="#25A841" d="M28 48h1v1h-1z"/><path fill="#6CBB5A" d="M29 48h1v1h-1zM30 48h1v1h-1zM31 48h1v1h-1z"/><path fill="#8CC766" d="M32 48h1v1h-1z"/><path fill="#9ACC6C" d="M33 48h1v1h-1zM34 48h1v1h-1zM35 48h1v1h-1zM36 48h1v1h-1zM37 48h1v1h-1zM38 48h1v1h-1zM39 48h1v1h-1zM40 48h1v1h-1zM41 48h1v1h-1zM42 48h1v1h-1zM43 48h1v1h-1zM44 48h1v1h-1zM45 48h1v1h-1zM46 48h1v1h-1zM47 48h1v1h-1zM48 48h1v1h-1zM49 48h1v1h-1zM50 48h1v1h-1zM51 48h1v1h-1zM52 48h1v1h-1zM53 48h1v1h-1zM54 48h1v1h-1zM55 48h1v1h-1zM56 48h1v1h-1zM57 48h1v1h-1zM58 48h1v1h-1zM59 48h1v1h-1zM60 48h1v1h-1zM61 48h1v1h-1zM62 48h1v1h-1zM63 48h1v1h-1zM64 48h1v1h-1zM65 48h1v1h-1zM66 48h1v1h-1zM67 48h1v1h-1zM68 48h1v1h-1zM69 48h1v1h-1z"/><path fill="#8FC868" d="M70 48h1v1h-1z"/><path fill="#6CBB5A" d="M71 48h1v1h-1zM72 48h1v1h-1z"/><path fill="#2BA943" d="M73 48h1v1h-1z"/><path fill="#15A33B" d="M74 48h1v1h-1zM75 48h1v1h-1zM76 48h1v1h-1zM77 48h1v1h-1zM78 48h1v1h-1zM79 48h1v1h-1zM80 48h1v1h-1z"/><path fill="#198032" d="M81 48h1v1h-1z"/><path fill="#231815" d="M82 48h1v1h-1zM83 48h1v1h-1zM84 48h1v1h-1zM22 49h1v1h-1zM23 49h1v1h-1zM24 49h1v1h-1z"/><path fill="#1C5E28" d="M25 49h1v1h-1z"/><path fill="#15A33B" d="M26 49h1v1h-1zM27 49h1v1h-1zM28 49h1v1h-1z"/><path fill="#6CBB5A" d="M29 49h1v1h-1zM30 49h1v1h-1zM31 49h1v1h-1z"/><path fill="#83C463" d="M32 49h1v1h-1z"/><path fill="#9ACC6C" d="M33 49h1v1h-1zM34 49h1v1h-1zM35 49h1v1h-1zM36 49h1v1h-1zM37 49h1v1h-1zM38 49h1v1h-1zM39 49h1v1h-1zM40 49h1v1h-1zM41 49h1v1h-1zM42 49h1v1h-1zM43 49h1v1h-1zM44 49h1v1h-1zM45 49h1v1h-1zM46 49h1v1h-1zM47 49h1v1h-1zM48 49h1v1h-1zM49 49h1v1h-1zM50 49h1v1h-1zM51 49h1v1h-1zM52 49h1v1h-1zM53 49h1v1h-1zM54 49h1v1h-1zM55 49h1v1h-1zM56 49h1v1h-1zM57 49h1v1h-1zM58 49h1v1h-1zM59 49h1v1h-1zM60 49h1v1h-1zM61 49h1v1h-1zM62 49h1v1h-1zM63 49h1v1h-1zM64 49h1v1h-1zM65 49h1v1h-1zM66 49h1v1h-1zM67 49h1v1h-1zM68 49h1v1h-1zM69 49h1v1h-1z"/><path fill="#86C564" d="M70 49h1v1h-1z"/><path fill="#6CBB5A" d="M71 49h1v1h-1zM72 49h1v1h-1z"/><path fill="#1AA53D" d="M73 49h1v1h-1z"/><path fill="#15A33B" d="M74 49h1v1h-1zM75 49h1v1h-1zM76 49h1v1h-1zM77 49h1v1h-1zM78 49h1v1h-1zM79 49h1v1h-1zM80 49h1v1h-1z"/><path fill="#169A39" d="M81 49h1v1h-1z"/><path fill="#231815" d="M82 49h1v1h-1zM83 49h1v1h-1zM84 49h1v1h-1zM22 50h1v1h-1zM23 50h1v1h-1zM24 50h1v1h-1z"/><path fill="#1C5E28" d="M25 50h1v1h-1z"/><path fill="#15A33B" d="M26 50h1v1h-1zM27 50h1v1h-1zM28 50h1v1h-1z"/><path fill="#6CBB5A" d="M29 50h1v1h-1zM30 50h1v1h-1zM31 50h1v1h-1z"/><path fill="#78BF5F" d="M32 50h1v1h-1z"/><path fill="#9ACC6C" d="M33 50h1v1h-1zM34 50h1v1h-1zM35 50h1v1h-1zM36 50h1v1h-1zM37 50h1v1h-1zM38 50h1v1h-1zM39 50h1v1h-1zM40 50h1v1h-1zM41 50h1v1h-1zM42 50h1v1h-1zM43 50h1v1h-1zM44 50h1v1h-1zM45 50h1v1h-1zM46 50h1v1h-1zM47 50h1v1h-1zM48 50h1v1h-1zM49 50h1v1h-1zM50 50h1v1h-1zM51 50h1v1h-1zM52 50h1v1h-1zM53 50h1v1h-1zM54 50h1v1h-1zM55 50h1v1h-1zM56 50h1v1h-1zM57 50h1v1h-1zM58 50h1v1h-1zM59 50h1v1h-1zM60 50h1v1h-1zM61 50h1v1h-1zM62 50h1v1h-1zM63 50h1v1h-1zM64 50h1v1h-1zM65 50h1v1h-1zM66 50h1v1h-1zM67 50h1v1h-1zM68 50h1v1h-1zM69 50h1v1h-1z"/><path fill="#7DC161" d="M70 50h1v1h-1z"/><path fill="#6CBB5A" d="M71 50h1v1h-1z"/><path fill="#5CB754" d="M72 50h1v1h-1z"/><path fill="#15A33B" d="M73 50h1v1h-1zM74 50h1v1h-1zM75 50h1v1h-1zM76 50h1v1h-1zM77 50h1v1h-1zM78 50h1v1h-1zM79 50h1v1h-1zM80 50h1v1h-1zM81 50h1v1h-1z"/><path fill="#231815" d="M82 50h1v1h-1zM83 50h1v1h-1zM84 50h1v1h-1zM22 51h1v1h-1zM23 51h1v1h-1zM24 51h1v1h-1z"/><path fill="#1F4321" d="M25 51h1v1h-1z"/><path fill="#15A33B" d="M26 51h1v1h-1zM27 51h1v1h-1zM28 51h1v1h-1z"/><path fill="#56B552" d="M29 51h1v1h-1z"/><path fill="#6CBB5A" d="M30 51h1v1h-1zM31 51h1v1h-1zM32 51h1v1h-1z"/><path fill="#97CB6B" d="M33 51h1v1h-1z"/><path fill="#9ACC6C" d="M34 51h1v1h-1zM35 51h1v1h-1zM36 51h1v1h-1zM37 51h1v1h-1zM38 51h1v1h-1zM39 51h1v1h-1zM40 51h1v1h-1zM41 51h1v1h-1zM42 51h1v1h-1zM43 51h1v1h-1zM44 51h1v1h-1zM45 51h1v1h-1zM46 51h1v1h-1zM47 51h1v1h-1zM48 51h1v1h-1zM49 51h1v1h-1zM50 51h1v1h-1zM51 51h1v1h-1zM52 51h1v1h-1zM53 51h1v1h-1zM54 51h1v1h-1zM55 51h1v1h-1zM56 51h1v1h-1zM57 51h1v1h-1zM58 51h1v1h-1zM59 51h1v1h-1zM60 51h1v1h-1zM61 51h1v1h-1zM62 51h1v1h-1zM63 51h1v1h-1zM64 51h1v1h-1zM65 51h1v1h-1zM66 51h1v1h-1zM67 51h1v1h-1zM68 51h1v1h-1zM69 51h1v1h-1z"/><path fill="#6FBC5B" d="M70 51h1v1h-1z"/><path fill="#6CBB5A" d="M71 51h1v1h-1z"/><path fill="#46B14C" d="M72 51h1v1h-1z"/><path fill="#15A33B" d="M73 51h1v1h-1zM74 51h1v1h-1zM75 51h1v1h-1zM76 51h1v1h-1zM77 51h1v1h-1zM78 51h1v1h-1zM79 51h1v1h-1zM80 51h1v1h-1zM81 51h1v1h-1z"/><path fill="#231815" d="M82 51h1v1h-1zM83 51h1v1h-1zM84 51h1v1h-1zM23 52h1v1h-1zM24 52h1v1h-1z"/><path fill="#203B1F" d="M25 52h1v1h-1z"/><path fill="#15A33B" d="M26 52h1v1h-1zM27 52h1v1h-1zM28 52h1v1h-1z"/><path fill="#41AF4B" d="M29 52h1v1h-1z"/><path fill="#6CBB5A" d="M30 52h1v1h-1zM31 52h1v1h-1zM32 52h1v1h-1z"/><path fill="#89C665" d="M33 52h1v1h-1z"/><path fill="#9ACC6C" d="M34 52h1v1h-1zM35 52h1v1h-1zM36 52h1v1h-1zM37 52h1v1h-1zM38 52h1v1h-1zM39 52h1v1h-1zM40 52h1v1h-1zM41 52h1v1h-1zM42 52h1v1h-1zM43 52h1v1h-1zM44 52h1v1h-1zM45 52h1v1h-1zM46 52h1v1h-1zM47 52h1v1h-1zM48 52h1v1h-1zM49 52h1v1h-1zM50 52h1v1h-1zM51 52h1v1h-1zM52 52h1v1h-1zM53 52h1v1h-1zM54 52h1v1h-1zM55 52h1v1h-1zM56 52h1v1h-1zM57 52h1v1h-1zM58 52h1v1h-1zM59 52h1v1h-1zM60 52h1v1h-1zM61 52h1v1h-1zM62 52h1v1h-1zM63 52h1v1h-1zM64 52h1v1h-1zM65 52h1v1h-1zM66 52h1v1h-1zM67 52h1v1h-1zM68 52h1v1h-1z"/><path fill="#8CC766" d="M69 52h1v1h-1z"/><path fill="#6CBB5A" d="M70 52h1v1h-1zM71 52h1v1h-1z"/><path fill="#20A63F" d="M72 52h1v1h-1z"/><path fill="#15A33B" d="M73 52h1v1h-1zM74 52h1v1h-1zM75 52h1v1h-1zM76 52h1v1h-1zM77 52h1v1h-1zM78 52h1v1h-1zM79 52h1v1h-1zM80 52h1v1h-1zM81 52h1v1h-1z"/><path fill="#231815" d="M82 52h1v1h-1zM83 52h1v1h-1zM84 52h1v1h-1zM23 53h1v1h-1zM24 53h1v1h-1z"/><path fill="#203B1F" d="M25 53h1v1h-1z"/><path fill="#15A33B" d="M26 53h1v1h-1zM27 53h1v1h-1zM28 53h1v1h-1z"/><path fill="#25A841" d="M29 53h1v1h-1z"/><path fill="#6CBB5A" d="M30 53h1v1h-1zM31 53h1v1h-1zM32 53h1v1h-1z"/><path fill="#72BD5C" d="M33 53h1v1h-1z"/><path fill="#9ACC6C" d="M34 53h1v1h-1zM35 53h1v1h-1zM36 53h1v1h-1zM37 53h1v1h-1zM38 53h1v1h-1zM39 53h1v1h-1zM40 53h1v1h-1zM41 53h1v1h-1zM42 53h1v1h-1zM43 53h1v1h-1zM44 53h1v1h-1zM45 53h1v1h-1zM46 53h1v1h-1zM47 53h1v1h-1zM48 53h1v1h-1zM49 53h1v1h-1zM50 53h1v1h-1zM51 53h1v1h-1zM52 53h1v1h-1zM53 53h1v1h-1zM54 53h1v1h-1zM55 53h1v1h-1zM56 53h1v1h-1zM57 53h1v1h-1zM58 53h1v1h-1zM59 53h1v1h-1zM60 53h1v1h-1zM61 53h1v1h-1zM62 53h1v1h-1zM63 53h1v1h-1zM64 53h1v1h-1zM65 53h1v1h-1zM66 53h1v1h-1zM67 53h1v1h-1zM68 53h1v1h-1z"/><path fill="#78BF5F" d="M69 53h1v1h-1z"/><path fill="#6CBB5A" d="M70 53h1v1h-1z"/><path fill="#56B552" d="M71 53h1v1h-1z"/><path fill="#15A33B" d="M72 53h1v1h-1zM73 53h1v1h-1zM74 53h1v1h-1zM75 53h1v1h-1zM76 53h1v1h-1zM77 53h1v1h-1zM78 53h1v1h-1zM79 53h1v1h-1zM80 53h1v1h-1zM81 53h1v1h-1z"/><path fill="#21291A" d="M82 53h1v1h-1z"/><path fill="#231815" d="M83 53h1v1h-1zM84 53h1v1h-1zM23 54h1v1h-1zM24 54h1v1h-1z"/><path fill="#21291A" d="M25 54h1v1h-1z"/><path fill="#15A33B" d="M26 54h1v1h-1zM27 54h1v1h-1zM28 54h1v1h-1zM29 54h1v1h-1z"/><path fill="#61B856" d="M30 54h1v1h-1z"/><path fill="#6CBB5A" d="M31 54h1v1h-1zM32 54h1v1h-1zM33 54h1v1h-1z"/><path fill="#89C665" d="M34 54h1v1h-1z"/><path fill="#9ACC6C" d="M35 54h1v1h-1zM36 54h1v1h-1zM37 54h1v1h-1zM38 54h1v1h-1zM39 54h1v1h-1zM40 54h1v1h-1zM41 54h1v1h-1zM42 54h1v1h-1zM43 54h1v1h-1zM44 54h1v1h-1zM45 54h1v1h-1zM46 54h1v1h-1zM47 54h1v1h-1zM48 54h1v1h-1zM49 54h1v1h-1zM50 54h1v1h-1zM51 54h1v1h-1zM52 54h1v1h-1zM53 54h1v1h-1zM54 54h1v1h-1zM55 54h1v1h-1zM56 54h1v1h-1zM57 54h1v1h-1zM58 54h1v1h-1zM59 54h1v1h-1zM60 54h1v1h-1zM61 54h1v1h-1zM62 54h1v1h-1zM63 54h1v1h-1zM64 54h1v1h-1zM65 54h1v1h-1zM66 54h1v1h-1zM67 54h1v1h-1z"/><path fill="#8FC868" d="M68 54h1v1h-1z"/><path fill="#6CBB5A" d="M69 54h1v1h-1zM70 54h1v1h-1z"/><path fill="#2BA943" d="M71 54h1v1h-1z"/><path fill="#15A33B" d="M72 54h1v1h-1zM73 54h1v1h-1zM74 54h1v1h-1zM75 54h1v1h-1zM76 54h1v1h-1zM77 54h1v1h-1zM78 54h1v1h-1zM79 54h1v1h-1zM80 54h1v1h-1zM81 54h1v1h-1z"/><path fill="#231815" d="M82 54h1v1h-1zM83 54h1v1h-1zM84 54h1v1h-1zM23 55h1v1h-1zM24 55h1v1h-1zM25 55h1v1h-1z"/><path fill="#15A33B" d="M26 55h1v1h-1zM27 55h1v1h-1zM28 55h1v1h-1zM29 55h1v1h-1z"/><path fill="#36AC47" d="M30 55h1v1h-1z"/><path fill="#6CBB5A" d="M31 55h1v1h-1zM32 55h1v1h-1zM33 55h1v1h-1z"/><path fill="#72BD5C" d="M34 55h1v1h-1z"/><path fill="#97CB6B" d="M35 55h1v1h-1z"/><path fill="#9ACC6C" d="M36 55h1v1h-1zM37 55h1v1h-1zM38 55h1v1h-1zM39 55h1v1h-1zM40 55h1v1h-1zM41 55h1v1h-1zM42 55h1v1h-1zM43 55h1v1h-1zM44 55h1v1h-1zM45 55h1v1h-1zM46 55h1v1h-1zM47 55h1v1h-1zM48 55h1v1h-1zM49 55h1v1h-1zM50 55h1v1h-1zM51 55h1v1h-1zM52 55h1v1h-1zM53 55h1v1h-1zM54 55h1v1h-1zM55 55h1v1h-1zM56 55h1v1h-1zM57 55h1v1h-1zM58 55h1v1h-1zM59 55h1v1h-1zM60 55h1v1h-1zM61 55h1v1h-1zM62 55h1v1h-1zM63 55h1v1h-1zM64 55h1v1h-1zM65 55h1v1h-1zM66 55h1v1h-1zM67 55h1v1h-1z"/><path fill="#75BE5D" d="M68 55h1v1h-1z"/><path fill="#6CBB5A" d="M69 55h1v1h-1z"/><path fill="#51B450" d="M70 55h1v1h-1z"/><path fill="#15A33B" d="M71 55h1v1h-1zM72 55h1v1h-1zM73 55h1v1h-1zM74 55h1v1h-1zM75 55h1v1h-1zM76 55h1v1h-1zM77 55h1v1h-1zM78 55h1v1h-1zM79 55h1v1h-1zM80 55h1v1h-1zM81 55h1v1h-1z"/><path fill="#231815" d="M82 55h1v1h-1zM83 55h1v1h-1zM84 55h1v1h-1zM23 56h1v1h-1zM24 56h1v1h-1zM25 56h1v1h-1z"/><path fill="#188934" d="M26 56h1v1h-1z"/><path fill="#15A33B" d="M27 56h1v1h-1zM28 56h1v1h-1zM29 56h1v1h-1zM30 56h1v1h-1z"/><path fill="#5CB754" d="M31 56h1v1h-1z"/><path fill="#6CBB5A" d="M32 56h1v1h-1zM33 56h1v1h-1zM34 56h1v1h-1z"/><path fill="#80C262" d="M35 56h1v1h-1z"/><path fill="#9ACC6C" d="M36 56h1v1h-1zM37 56h1v1h-1zM38 56h1v1h-1zM39 56h1v1h-1zM40 56h1v1h-1zM41 56h1v1h-1zM42 56h1v1h-1zM43 56h1v1h-1zM44 56h1v1h-1zM45 56h1v1h-1zM46 56h1v1h-1zM47 56h1v1h-1zM48 56h1v1h-1zM49 56h1v1h-1zM50 56h1v1h-1zM51 56h1v1h-1zM52 56h1v1h-1zM53 56h1v1h-1zM54 56h1v1h-1zM55 56h1v1h-1zM56 56h1v1h-1zM57 56h1v1h-1zM58 56h1v1h-1zM59 56h1v1h-1zM60 56h1v1h-1zM61 56h1v1h-1zM62 56h1v1h-1zM63 56h1v1h-1zM64 56h1v1h-1zM65 56h1v1h-1zM66 56h1v1h-1z"/><path fill="#83C463" d="M67 56h1v1h-1z"/><path fill="#6CBB5A" d="M68 56h1v1h-1z"/><path fill="#67BA58" d="M69 56h1v1h-1z"/><path fill="#20A63F" d="M70 56h1v1h-1z"/><path fill="#15A33B" d="M71 56h1v1h-1zM72 56h1v1h-1zM73 56h1v1h-1zM74 56h1v1h-1zM75 56h1v1h-1zM76 56h1v1h-1zM77 56h1v1h-1zM78 56h1v1h-1zM79 56h1v1h-1zM80 56h1v1h-1zM81 56h1v1h-1z"/><path fill="#231815" d="M82 56h1v1h-1zM83 56h1v1h-1zM84 56h1v1h-1zM23 57h1v1h-1zM24 57h1v1h-1zM25 57h1v1h-1z"/><path fill="#1A6F2D" d="M26 57h1v1h-1z"/><path fill="#15A33B" d="M27 57h1v1h-1zM28 57h1v1h-1zM29 57h1v1h-1zM30 57h1v1h-1z"/><path fill="#25A841" d="M31 57h1v1h-1z"/><path fill="#6CBB5A" d="M32 57h1v1h-1zM33 57h1v1h-1zM34 57h1v1h-1zM35 57h1v1h-1z"/><path fill="#89C665" d="M36 57h1v1h-1z"/><path fill="#9ACC6C" d="M37 57h1v1h-1zM38 57h1v1h-1zM39 57h1v1h-1zM40 57h1v1h-1zM41 57h1v1h-1zM42 57h1v1h-1zM43 57h1v1h-1zM44 57h1v1h-1zM45 57h1v1h-1zM46 57h1v1h-1zM47 57h1v1h-1zM48 57h1v1h-1zM49 57h1v1h-1zM50 57h1v1h-1zM51 57h1v1h-1zM52 57h1v1h-1zM53 57h1v1h-1zM54 57h1v1h-1zM55 57h1v1h-1zM56 57h1v1h-1zM57 57h1v1h-1zM58 57h1v1h-1zM59 57h1v1h-1zM60 57h1v1h-1zM61 57h1v1h-1zM62 57h1v1h-1zM63 57h1v1h-1zM64 57h1v1h-1zM65 57h1v1h-1z"/><path fill="#8CC766" d="M66 57h1v1h-1z"/><path fill="#6CBB5A" d="M67 57h1v1h-1zM68 57h1v1h-1z"/><path fill="#36AC47" d="M69 57h1v1h-1z"/><path fill="#15A33B" d="M70 57h1v1h-1zM71 57h1v1h-1zM72 57h1v1h-1zM73 57h1v1h-1zM74 57h1v1h-1zM75 57h1v1h-1zM76 57h1v1h-1zM77 57h1v1h-1zM78 57h1v1h-1zM79 57h1v1h-1zM80 57h1v1h-1z"/><path fill="#198032" d="M81 57h1v1h-1z"/><path fill="#231815" d="M82 57h1v1h-1zM83 57h1v1h-1zM84 57h1v1h-1zM23 58h1v1h-1zM24 58h1v1h-1zM25 58h1v1h-1z"/><path fill="#1E4C23" d="M26 58h1v1h-1z"/><path fill="#15A33B" d="M27 58h1v1h-1zM28 58h1v1h-1zM29 58h1v1h-1zM30 58h1v1h-1zM31 58h1v1h-1z"/><path fill="#3BAE49" d="M32 58h1v1h-1z"/><path fill="#6CBB5A" d="M33 58h1v1h-1zM34 58h1v1h-1zM35 58h1v1h-1zM36 58h1v1h-1z"/><path fill="#89C665" d="M37 58h1v1h-1z"/><path fill="#9ACC6C" d="M38 58h1v1h-1zM39 58h1v1h-1zM40 58h1v1h-1zM41 58h1v1h-1zM42 58h1v1h-1zM43 58h1v1h-1zM44 58h1v1h-1zM45 58h1v1h-1zM46 58h1v1h-1zM47 58h1v1h-1zM48 58h1v1h-1zM49 58h1v1h-1zM50 58h1v1h-1zM51 58h1v1h-1zM52 58h1v1h-1zM53 58h1v1h-1zM54 58h1v1h-1zM55 58h1v1h-1zM56 58h1v1h-1zM57 58h1v1h-1zM58 58h1v1h-1zM59 58h1v1h-1zM60 58h1v1h-1zM61 58h1v1h-1zM62 58h1v1h-1zM63 58h1v1h-1zM64 58h1v1h-1z"/><path fill="#91C969" d="M65 58h1v1h-1z"/><path fill="#6FBC5B" d="M66 58h1v1h-1z"/><path fill="#6CBB5A" d="M67 58h1v1h-1z"/><path fill="#46B14C" d="M68 58h1v1h-1z"/><path fill="#15A33B" d="M69 58h1v1h-1zM70 58h1v1h-1zM71 58h1v1h-1zM72 58h1v1h-1zM73 58h1v1h-1zM74 58h1v1h-1zM75 58h1v1h-1zM76 58h1v1h-1zM77 58h1v1h-1zM78 58h1v1h-1zM79 58h1v1h-1zM80 58h1v1h-1z"/><path fill="#19782F" d="M81 58h1v1h-1z"/><path fill="#231815" d="M82 58h1v1h-1zM83 58h1v1h-1zM84 58h1v1h-1zM24 59h1v1h-1zM25 59h1v1h-1z"/><path fill="#21291A" d="M26 59h1v1h-1z"/><path fill="#15A33B" d="M27 59h1v1h-1zM28 59h1v1h-1zM29 59h1v1h-1zM30 59h1v1h-1zM31 59h1v1h-1zM32 59h1v1h-1z"/><path fill="#4BB24E" d="M33 59h1v1h-1z"/><path fill="#6CBB5A" d="M34 59h1v1h-1zM35 59h1v1h-1zM36 59h1v1h-1zM37 59h1v1h-1z"/><path fill="#89C665" d="M38 59h1v1h-1z"/><path fill="#9ACC6C" d="M39 59h1v1h-1zM40 59h1v1h-1zM41 59h1v1h-1zM42 59h1v1h-1zM43 59h1v1h-1zM44 59h1v1h-1zM45 59h1v1h-1zM46 59h1v1h-1zM47 59h1v1h-1zM48 59h1v1h-1zM49 59h1v1h-1zM50 59h1v1h-1zM51 59h1v1h-1zM52 59h1v1h-1zM53 59h1v1h-1zM54 59h1v1h-1zM55 59h1v1h-1zM56 59h1v1h-1zM57 59h1v1h-1zM58 59h1v1h-1zM59 59h1v1h-1zM60 59h1v1h-1zM61 59h1v1h-1zM62 59h1v1h-1zM63 59h1v1h-1z"/><path fill="#8FC868" d="M64 59h1v1h-1z"/><path fill="#6FBC5B" d="M65 59h1v1h-1z"/><path fill="#6CBB5A" d="M66 59h1v1h-1z"/><path fill="#4BB24E" d="M67 59h1v1h-1z"/><path fill="#15A33B" d="M68 59h1v1h-1zM69 59h1v1h-1zM70 59h1v1h-1zM71 59h1v1h-1zM72 59h1v1h-1zM73 59h1v1h-1zM74 59h1v1h-1zM75 59h1v1h-1zM76 59h1v1h-1zM77 59h1v1h-1zM78 59h1v1h-1zM79 59h1v1h-1zM80 59h1v1h-1z"/><path fill="#1C5E28" d="M81 59h1v1h-1z"/><path fill="#231815" d="M82 59h1v1h-1zM83 59h1v1h-1zM84 59h1v1h-1zM24 60h1v1h-1zM25 60h1v1h-1zM26 60h1v1h-1z"/><path fill="#188934" d="M27 60h1v1h-1z"/><path fill="#15A33B" d="M28 60h1v1h-1zM29 60h1v1h-1zM30 60h1v1h-1zM31 60h1v1h-1zM32 60h1v1h-1zM33 60h1v1h-1z"/><path fill="#4BB24E" d="M34 60h1v1h-1z"/><path fill="#6CBB5A" d="M35 60h1v1h-1zM36 60h1v1h-1zM37 60h1v1h-1zM38 60h1v1h-1z"/><path fill="#80C262" d="M39 60h1v1h-1z"/><path fill="#9ACC6C" d="M40 60h1v1h-1zM41 60h1v1h-1zM42 60h1v1h-1zM43 60h1v1h-1zM44 60h1v1h-1zM45 60h1v1h-1zM46 60h1v1h-1zM47 60h1v1h-1zM48 60h1v1h-1zM49 60h1v1h-1zM50 60h1v1h-1zM51 60h1v1h-1zM52 60h1v1h-1zM53 60h1v1h-1zM54 60h1v1h-1zM55 60h1v1h-1zM56 60h1v1h-1zM57 60h1v1h-1zM58 60h1v1h-1zM59 60h1v1h-1zM60 60h1v1h-1zM61 60h1v1h-1zM62 60h1v1h-1z"/><path fill="#83C463" d="M63 60h1v1h-1z"/><path fill="#6CBB5A" d="M64 60h1v1h-1zM65 60h1v1h-1z"/><path fill="#4BB24E" d="M66 60h1v1h-1z"/><path fill="#15A33B" d="M67 60h1v1h-1zM68 60h1v1h-1zM69 60h1v1h-1zM70 60h1v1h-1zM71 60h1v1h-1zM72 60h1v1h-1zM73 60h1v1h-1zM74 60h1v1h-1zM75 60h1v1h-1zM76 60h1v1h-1zM77 60h1v1h-1zM78 60h1v1h-1zM79 60h1v1h-1zM80 60h1v1h-1z"/><path fill="#203B1F" d="M81 60h1v1h-1z"/><path fill="#231815" d="M82 60h1v1h-1zM83 60h1v1h-1zM84 60h1v1h-1zM24 61h1v1h-1zM25 61h1v1h-1zM26 61h1v1h-1z"/><path fill="#1D5526" d="M27 61h1v1h-1z"/><path fill="#15A33B" d="M28 61h1v1h-1zM29 61h1v1h-1zM30 61h1v1h-1zM31 61h1v1h-1zM32 61h1v1h-1zM33 61h1v1h-1zM34 61h1v1h-1z"/><path fill="#36AC47" d="M35 61h1v1h-1z"/><path fill="#67BA58" d="M36 61h1v1h-1z"/><path fill="#6CBB5A" d="M37 61h1v1h-1zM38 61h1v1h-1zM39 61h1v1h-1z"/><path fill="#75BE5D" d="M40 61h1v1h-1z"/><path fill="#8FC868" d="M41 61h1v1h-1z"/><path fill="#9ACC6C" d="M42 61h1v1h-1zM43 61h1v1h-1zM44 61h1v1h-1zM45 61h1v1h-1zM46 61h1v1h-1zM47 61h1v1h-1zM48 61h1v1h-1zM49 61h1v1h-1zM50 61h1v1h-1zM51 61h1v1h-1zM52 61h1v1h-1zM53 61h1v1h-1zM54 61h1v1h-1zM55 61h1v1h-1zM56 61h1v1h-1zM57 61h1v1h-1zM58 61h1v1h-1zM59 61h1v1h-1zM60 61h1v1h-1z"/><path fill="#91C969" d="M61 61h1v1h-1z"/><path fill="#78BF5F" d="M62 61h1v1h-1z"/><path fill="#6CBB5A" d="M63 61h1v1h-1zM64 61h1v1h-1z"/><path fill="#3BAE49" d="M65 61h1v1h-1z"/><path fill="#15A33B" d="M66 61h1v1h-1zM67 61h1v1h-1zM68 61h1v1h-1zM69 61h1v1h-1zM70 61h1v1h-1zM71 61h1v1h-1zM72 61h1v1h-1zM73 61h1v1h-1zM74 61h1v1h-1zM75 61h1v1h-1zM76 61h1v1h-1zM77 61h1v1h-1zM78 61h1v1h-1zM79 61h1v1h-1zM80 61h1v1h-1z"/><path fill="#231815" d="M81 61h1v1h-1zM82 61h1v1h-1zM83 61h1v1h-1zM24 62h1v1h-1zM25 62h1v1h-1zM26 62h1v1h-1z"/><path fill="#222117" d="M27 62h1v1h-1z"/><path fill="#15A33B" d="M28 62h1v1h-1zM29 62h1v1h-1zM30 62h1v1h-1zM31 62h1v1h-1zM32 62h1v1h-1zM33 62h1v1h-1zM34 62h1v1h-1zM35 62h1v1h-1z"/><path fill="#25A841" d="M36 62h1v1h-1z"/><path fill="#56B552" d="M37 62h1v1h-1z"/><path fill="#6CBB5A" d="M38 62h1v1h-1zM39 62h1v1h-1zM40 62h1v1h-1zM41 62h1v1h-1z"/><path fill="#7DC161" d="M42 62h1v1h-1z"/><path fill="#8FC868" d="M43 62h1v1h-1z"/><path fill="#9ACC6C" d="M44 62h1v1h-1zM45 62h1v1h-1zM46 62h1v1h-1zM47 62h1v1h-1zM48 62h1v1h-1zM49 62h1v1h-1zM50 62h1v1h-1zM51 62h1v1h-1zM52 62h1v1h-1zM53 62h1v1h-1zM54 62h1v1h-1zM55 62h1v1h-1zM56 62h1v1h-1zM57 62h1v1h-1zM58 62h1v1h-1z"/><path fill="#91C969" d="M59 62h1v1h-1z"/><path fill="#7DC161" d="M60 62h1v1h-1z"/><path fill="#6CBB5A" d="M61 62h1v1h-1zM62 62h1v1h-1z"/><path fill="#5CB754" d="M63 62h1v1h-1z"/><path fill="#25A841" d="M64 62h1v1h-1z"/><path fill="#15A33B" d="M65 62h1v1h-1zM66 62h1v1h-1zM67 62h1v1h-1zM68 62h1v1h-1zM69 62h1v1h-1zM70 62h1v1h-1zM71 62h1v1h-1zM72 62h1v1h-1zM73 62h1v1h-1zM74 62h1v1h-1zM75 62h1v1h-1zM76 62h1v1h-1zM77 62h1v1h-1zM78 62h1v1h-1zM79 62h1v1h-1z"/><path fill="#19782F" d="M80 62h1v1h-1z"/><path fill="#231815" d="M81 62h1v1h-1zM82 62h1v1h-1zM83 62h1v1h-1zM25 63h1v1h-1zM26 63h1v1h-1zM27 63h1v1h-1z"/><path fill="#1A6F2D" d="M28 63h1v1h-1z"/><path fill="#15A33B" d="M29 63h1v1h-1zM30 63h1v1h-1zM31 63h1v1h-1zM32 63h1v1h-1zM33 63h1v1h-1zM34 63h1v1h-1zM35 63h1v1h-1zM36 63h1v1h-1zM37 63h1v1h-1z"/><path fill="#36AC47" d="M38 63h1v1h-1z"/><path fill="#61B856" d="M39 63h1v1h-1z"/><path fill="#6CBB5A" d="M40 63h1v1h-1zM41 63h1v1h-1zM42 63h1v1h-1zM43 63h1v1h-1z"/><path fill="#75BE5D" d="M44 63h1v1h-1z"/><path fill="#86C564" d="M45 63h1v1h-1z"/><path fill="#91C969" d="M46 63h1v1h-1z"/><path fill="#9ACC6C" d="M47 63h1v1h-1zM48 63h1v1h-1zM49 63h1v1h-1zM50 63h1v1h-1zM51 63h1v1h-1zM52 63h1v1h-1zM53 63h1v1h-1zM54 63h1v1h-1zM55 63h1v1h-1z"/><path fill="#91C969" d="M56 63h1v1h-1z"/><path fill="#86C564" d="M57 63h1v1h-1z"/><path fill="#75BE5D" d="M58 63h1v1h-1z"/><path fill="#6CBB5A" d="M59 63h1v1h-1zM60 63h1v1h-1z"/><path fill="#67BA58" d="M61 63h1v1h-1z"/><path fill="#41AF4B" d="M62 63h1v1h-1z"/><path fill="#15A33B" d="M63 63h1v1h-1zM64 63h1v1h-1zM65 63h1v1h-1zM66 63h1v1h-1zM67 63h1v1h-1zM68 63h1v1h-1zM69 63h1v1h-1zM70 63h1v1h-1zM71 63h1v1h-1zM72 63h1v1h-1zM73 63h1v1h-1zM74 63h1v1h-1zM75 63h1v1h-1zM76 63h1v1h-1zM77 63h1v1h-1zM78 63h1v1h-1zM79 63h1v1h-1z"/><path fill="#1E4C23" d="M80 63h1v1h-1z"/><path fill="#231815" d="M81 63h1v1h-1zM82 63h1v1h-1zM83 63h1v1h-1zM25 64h1v1h-1zM26 64h1v1h-1zM27 64h1v1h-1z"/><path fill="#21291A" d="M28 64h1v1h-1z"/><path fill="#15A33B" d="M29 64h1v1h-1zM30 64h1v1h-1zM31 64h1v1h-1zM32 64h1v1h-1zM33 64h1v1h-1zM34 64h1v1h-1zM35 64h1v1h-1zM36 64h1v1h-1zM37 64h1v1h-1zM38 64h1v1h-1zM39 64h1v1h-1z"/><path fill="#30AB45" d="M40 64h1v1h-1z"/><path fill="#51B450" d="M41 64h1v1h-1z"/><path fill="#6CBB5A" d="M42 64h1v1h-1zM43 64h1v1h-1zM44 64h1v1h-1zM45 64h1v1h-1zM46 64h1v1h-1zM47 64h1v1h-1z"/><path fill="#78BF5F" d="M48 64h1v1h-1zM49 64h1v1h-1z"/><path fill="#7DC161" d="M50 64h1v1h-1z"/><path fill="#83C463" d="M51 64h1v1h-1z"/><path fill="#80C262" d="M52 64h1v1h-1z"/><path fill="#78BF5F" d="M53 64h1v1h-1zM54 64h1v1h-1z"/><path fill="#6CBB5A" d="M55 64h1v1h-1zM56 64h1v1h-1zM57 64h1v1h-1zM58 64h1v1h-1z"/><path fill="#5CB754" d="M59 64h1v1h-1z"/><path fill="#36AC47" d="M60 64h1v1h-1z"/><path fill="#1AA53D" d="M61 64h1v1h-1z"/><path fill="#15A33B" d="M62 64h1v1h-1zM63 64h1v1h-1zM64 64h1v1h-1zM65 64h1v1h-1zM66 64h1v1h-1zM67 64h1v1h-1zM68 64h1v1h-1zM69 64h1v1h-1zM70 64h1v1h-1zM71 64h1v1h-1zM72 64h1v1h-1zM73 64h1v1h-1zM74 64h1v1h-1zM75 64h1v1h-1zM76 64h1v1h-1zM77 64h1v1h-1zM78 64h1v1h-1zM79 64h1v1h-1z"/><path fill="#222117" d="M80 64h1v1h-1z"/><path fill="#231815" d="M81 64h1v1h-1zM82 64h1v1h-1zM83 64h1v1h-1zM26 65h1v1h-1zM27 65h1v1h-1zM28 65h1v1h-1z"/><path fill="#1A6F2D" d="M29 65h1v1h-1z"/><path fill="#15A33B" d="M30 65h1v1h-1zM31 65h1v1h-1zM32 65h1v1h-1zM33 65h1v1h-1zM34 65h1v1h-1zM35 65h1v1h-1zM36 65h1v1h-1zM37 65h1v1h-1zM38 65h1v1h-1zM39 65h1v1h-1zM40 65h1v1h-1zM41 65h1v1h-1z"/><path fill="#1AA53D" d="M42 65h1v1h-1z"/><path fill="#30AB45" d="M43 65h1v1h-1z"/><path fill="#46B14C" d="M44 65h1v1h-1z"/><path fill="#56B552" d="M45 65h1v1h-1z"/><path fill="#6CBB5A" d="M46 65h1v1h-1zM47 65h1v1h-1zM48 65h1v1h-1zM49 65h1v1h-1zM50 65h1v1h-1zM51 65h1v1h-1zM52 65h1v1h-1zM53 65h1v1h-1zM54 65h1v1h-1z"/><path fill="#67BA58" d="M55 65h1v1h-1z"/><path fill="#51B450" d="M56 65h1v1h-1z"/><path fill="#3BAE49" d="M57 65h1v1h-1z"/><path fill="#25A841" d="M58 65h1v1h-1z"/><path fill="#15A33B" d="M59 65h1v1h-1zM60 65h1v1h-1zM61 65h1v1h-1zM62 65h1v1h-1zM63 65h1v1h-1zM64 65h1v1h-1zM65 65h1v1h-1zM66 65h1v1h-1zM67 65h1v1h-1zM68 65h1v1h-1zM69 65h1v1h-1zM70 65h1v1h-1zM71 65h1v1h-1zM72 65h1v1h-1zM73 65h1v1h-1zM74 65h1v1h-1zM75 65h1v1h-1zM76 65h1v1h-1zM77 65h1v1h-1zM78 65h1v1h-1z"/><path fill="#1A6F2D" d="M79 65h1v1h-1z"/><path fill="#231815" d="M80 65h1v1h-1zM81 65h1v1h-1zM82 65h1v1h-1zM26 66h1v1h-1zM27 66h1v1h-1zM28 66h1v1h-1z"/><path fill="#222117" d="M29 66h1v1h-1z"/><path fill="#169A39" d="M30 66h1v1h-1z"/><path fill="#15A33B" d="M31 66h1v1h-1zM32 66h1v1h-1zM33 66h1v1h-1zM34 66h1v1h-1zM35 66h1v1h-1zM36 66h1v1h-1zM37 66h1v1h-1zM38 66h1v1h-1zM39 66h1v1h-1zM40 66h1v1h-1zM41 66h1v1h-1zM42 66h1v1h-1zM43 66h1v1h-1zM44 66h1v1h-1zM45 66h1v1h-1zM46 66h1v1h-1zM47 66h1v1h-1z"/><path fill="#2BA943" d="M48 66h1v1h-1zM49 66h1v1h-1zM50 66h1v1h-1zM51 66h1v1h-1zM52 66h1v1h-1zM53 66h1v1h-1z"/><path fill="#15A33B" d="M54 66h1v1h-1zM55 66h1v1h-1zM56 66h1v1h-1zM57 66h1v1h-1zM58 66h1v1h-1zM59 66h1v1h-1zM60 66h1v1h-1zM61 66h1v1h-1zM62 66h1v1h-1zM63 66h1v1h-1zM64 66h1v1h-1zM65 66h1v1h-1zM66 66h1v1h-1zM67 66h1v1h-1zM68 66h1v1h-1zM69 66h1v1h-1zM70 66h1v1h-1zM71 66h1v1h-1zM72 66h1v1h-1zM73 66h1v1h-1zM74 66h1v1h-1zM75 66h1v1h-1zM76 66h1v1h-1zM77 66h1v1h-1zM78 66h1v1h-1z"/><path fill="#21291A" d="M79 66h1v1h-1z"/><path fill="#231815" d="M80 66h1v1h-1zM81 66h1v1h-1zM82 66h1v1h-1zM27 67h1v1h-1zM28 67h1v1h-1zM29 67h1v1h-1z"/><path fill="#1F4321" d="M30 67h1v1h-1z"/><path fill="#15A33B" d="M31 67h1v1h-1zM32 67h1v1h-1zM33 67h1v1h-1zM34 67h1v1h-1zM35 67h1v1h-1zM36 67h1v1h-1zM37 67h1v1h-1zM38 67h1v1h-1zM39 67h1v1h-1zM40 67h1v1h-1zM41 67h1v1h-1zM42 67h1v1h-1zM43 67h1v1h-1zM44 67h1v1h-1zM45 67h1v1h-1zM46 67h1v1h-1zM47 67h1v1h-1zM48 67h1v1h-1zM49 67h1v1h-1zM50 67h1v1h-1zM51 67h1v1h-1zM52 67h1v1h-1zM53 67h1v1h-1zM54 67h1v1h-1zM55 67h1v1h-1zM56 67h1v1h-1zM57 67h1v1h-1zM58 67h1v1h-1zM59 67h1v1h-1zM60 67h1v1h-1zM61 67h1v1h-1zM62 67h1v1h-1zM63 67h1v1h-1zM64 67h1v1h-1zM65 67h1v1h-1zM66 67h1v1h-1zM67 67h1v1h-1zM68 67h1v1h-1zM69 67h1v1h-1zM70 67h1v1h-1zM71 67h1v1h-1zM72 67h1v1h-1zM73 67h1v1h-1zM74 67h1v1h-1zM75 67h1v1h-1zM76 67h1v1h-1zM77 67h1v1h-1z"/><path fill="#196A2D" d="M78 67h1v1h-1z"/><path fill="#231815" d="M79 67h1v1h-1zM80 67h1v1h-1zM81 67h1v1h-1zM27 68h1v1h-1zM28 68h1v1h-1zM29 68h1v1h-1zM30 68h1v1h-1z"/><path fill="#1A6F2D" d="M31 68h1v1h-1z"/><path fill="#15A33B" d="M32 68h1v1h-1zM33 68h1v1h-1zM34 68h1v1h-1zM35 68h1v1h-1zM36 68h1v1h-1zM37 68h1v1h-1zM38 68h1v1h-1zM39 68h1v1h-1zM40 68h1v1h-1zM41 68h1v1h-1zM42 68h1v1h-1zM43 68h1v1h-1zM44 68h1v1h-1zM45 68h1v1h-1zM46 68h1v1h-1zM47 68h1v1h-1zM48 68h1v1h-1zM49 68h1v1h-1zM50 68h1v1h-1zM51 68h1v1h-1zM52 68h1v1h-1zM53 68h1v1h-1zM54 68h1v1h-1zM55 68h1v1h-1zM56 68h1v1h-1zM57 68h1v1h-1zM58 68h1v1h-1zM59 68h1v1h-1zM60 68h1v1h-1zM61 68h1v1h-1zM62 68h1v1h-1zM63 68h1v1h-1zM64 68h1v1h-1zM65 68h1v1h-1zM66 68h1v1h-1zM67 68h1v1h-1zM68 68h1v1h-1zM69 68h1v1h-1zM70 68h1v1h-1zM71 68h1v1h-1zM72 68h1v1h-1zM73 68h1v1h-1zM74 68h1v1h-1zM75 68h1v1h-1zM76 68h1v1h-1z"/><path fill="#11913A" d="M77 68h1v1h-1z"/><path fill="#143926" d="M78 68h1v1h-1z"/><path fill="#231815" d="M79 68h1v1h-1zM80 68h1v1h-1zM81 68h1v1h-1zM82 68h1v1h-1zM28 69h1v1h-1zM29 69h1v1h-1zM30 69h1v1h-1z"/><path fill="#222117" d="M31 69h1v1h-1z"/><path fill="#188934" d="M32 69h1v1h-1z"/><path fill="#15A33B" d="M33 69h1v1h-1zM34 69h1v1h-1zM35 69h1v1h-1zM36 69h1v1h-1zM37 69h1v1h-1zM38 69h1v1h-1zM39 69h1v1h-1zM40 69h1v1h-1zM41 69h1v1h-1zM42 69h1v1h-1zM43 69h1v1h-1zM44 69h1v1h-1zM45 69h1v1h-1zM46 69h1v1h-1zM47 69h1v1h-1zM48 69h1v1h-1zM49 69h1v1h-1zM50 69h1v1h-1zM51 69h1v1h-1zM52 69h1v1h-1zM53 69h1v1h-1zM54 69h1v1h-1zM55 69h1v1h-1zM56 69h1v1h-1zM57 69h1v1h-1zM58 69h1v1h-1zM59 69h1v1h-1zM60 69h1v1h-1zM61 69h1v1h-1zM62 69h1v1h-1zM63 69h1v1h-1zM64 69h1v1h-1zM65 69h1v1h-1zM66 69h1v1h-1zM67 69h1v1h-1zM68 69h1v1h-1zM69 69h1v1h-1zM70 69h1v1h-1zM71 69h1v1h-1zM72 69h1v1h-1zM73 69h1v1h-1zM74 69h1v1h-1zM75 69h1v1h-1z"/><path fill="#108C3A" d="M76 69h1v1h-1z"/><path fill="#065F37" d="M77 69h1v1h-1z"/><path fill="#075635" d="M78 69h1v1h-1z"/><path fill="#1C291E" d="M79 69h1v1h-1z"/><path fill="#231815" d="M80 69h1v1h-1zM81 69h1v1h-1zM82 69h1v1h-1zM29 70h1v1h-1zM30 70h1v1h-1zM31 70h1v1h-1z"/><path fill="#222117" d="M32 70h1v1h-1z"/><path fill="#179236" d="M33 70h1v1h-1z"/><path fill="#15A33B" d="M34 70h1v1h-1zM35 70h1v1h-1zM36 70h1v1h-1zM37 70h1v1h-1zM38 70h1v1h-1zM39 70h1v1h-1zM40 70h1v1h-1zM41 70h1v1h-1zM42 70h1v1h-1zM43 70h1v1h-1zM44 70h1v1h-1zM45 70h1v1h-1zM46 70h1v1h-1zM47 70h1v1h-1zM48 70h1v1h-1zM49 70h1v1h-1zM50 70h1v1h-1zM51 70h1v1h-1zM52 70h1v1h-1zM53 70h1v1h-1zM54 70h1v1h-1zM55 70h1v1h-1zM56 70h1v1h-1zM57 70h1v1h-1zM58 70h1v1h-1zM59 70h1v1h-1zM60 70h1v1h-1zM61 70h1v1h-1zM62 70h1v1h-1zM63 70h1v1h-1zM64 70h1v1h-1zM65 70h1v1h-1zM66 70h1v1h-1zM67 70h1v1h-1zM68 70h1v1h-1zM69 70h1v1h-1zM70 70h1v1h-1zM71 70h1v1h-1zM72 70h1v1h-1zM73 70h1v1h-1zM74 70h1v1h-1z"/><path fill="#0F883A" d="M75 70h1v1h-1z"/><path fill="#055A37" d="M76 70h1v1h-1zM77 70h1v1h-1zM78 70h1v1h-1z"/><path fill="#075635" d="M79 70h1v1h-1z"/><path fill="#1D291D" d="M80 70h1v1h-1z"/><path fill="#231815" d="M81 70h1v1h-1zM82 70h1v1h-1zM83 70h1v1h-1zM29 71h1v1h-1zM30 71h1v1h-1zM31 71h1v1h-1zM32 71h1v1h-1z"/><path fill="#20321C" d="M33 71h1v1h-1z"/><path fill="#169A39" d="M34 71h1v1h-1z"/><path fill="#15A33B" d="M35 71h1v1h-1zM36 71h1v1h-1zM37 71h1v1h-1zM38 71h1v1h-1zM39 71h1v1h-1zM40 71h1v1h-1zM41 71h1v1h-1zM42 71h1v1h-1zM43 71h1v1h-1zM44 71h1v1h-1zM45 71h1v1h-1zM46 71h1v1h-1zM47 71h1v1h-1zM48 71h1v1h-1zM49 71h1v1h-1zM50 71h1v1h-1zM51 71h1v1h-1zM52 71h1v1h-1zM53 71h1v1h-1zM54 71h1v1h-1zM55 71h1v1h-1zM56 71h1v1h-1zM57 71h1v1h-1zM58 71h1v1h-1zM59 71h1v1h-1zM60 71h1v1h-1zM61 71h1v1h-1zM62 71h1v1h-1zM63 71h1v1h-1zM64 71h1v1h-1zM65 71h1v1h-1zM66 71h1v1h-1zM67 71h1v1h-1zM68 71h1v1h-1zM69 71h1v1h-1zM70 71h1v1h-1zM71 71h1v1h-1zM72 71h1v1h-1zM73 71h1v1h-1z"/><path fill="#0C7A39" d="M74 71h1v1h-1z"/><path fill="#055A37" d="M75 71h1v1h-1zM76 71h1v1h-1zM77 71h1v1h-1zM78 71h1v1h-1z"/><path fill="#02713D" d="M79 71h1v1h-1z"/><path fill="#096536" d="M80 71h1v1h-1z"/><path fill="#231815" d="M81 71h1v1h-1zM82 71h1v1h-1zM83 71h1v1h-1zM30 72h1v1h-1zM31 72h1v1h-1zM32 72h1v1h-1zM33 72h1v1h-1z"/><path fill="#20321C" d="M34 72h1v1h-1z"/><path fill="#188934" d="M35 72h1v1h-1z"/><path fill="#15A33B" d="M36 72h1v1h-1zM37 72h1v1h-1zM38 72h1v1h-1zM39 72h1v1h-1zM40 72h1v1h-1zM41 72h1v1h-1zM42 72h1v1h-1zM43 72h1v1h-1zM44 72h1v1h-1zM45 72h1v1h-1zM46 72h1v1h-1zM47 72h1v1h-1zM48 72h1v1h-1zM49 72h1v1h-1zM50 72h1v1h-1zM51 72h1v1h-1zM52 72h1v1h-1zM53 72h1v1h-1zM54 72h1v1h-1zM55 72h1v1h-1zM56 72h1v1h-1zM57 72h1v1h-1zM58 72h1v1h-1zM59 72h1v1h-1zM60 72h1v1h-1zM61 72h1v1h-1zM62 72h1v1h-1zM63 72h1v1h-1zM64 72h1v1h-1zM65 72h1v1h-1zM66 72h1v1h-1zM67 72h1v1h-1zM68 72h1v1h-1zM69 72h1v1h-1zM70 72h1v1h-1zM71 72h1v1h-1z"/><path fill="#149E3B" d="M72 72h1v1h-1z"/><path fill="#096C38" d="M73 72h1v1h-1z"/><path fill="#055A37" d="M74 72h1v1h-1zM75 72h1v1h-1zM76 72h1v1h-1zM77 72h1v1h-1z"/><path fill="#02713D" d="M78 72h1v1h-1z"/><path fill="#007F41" d="M79 72h1v1h-1zM80 72h1v1h-1z"/><path fill="#1F251B" d="M81 72h1v1h-1z"/><path fill="#231815" d="M82 72h1v1h-1zM83 72h1v1h-1zM31 73h1v1h-1zM32 73h1v1h-1zM33 73h1v1h-1zM34 73h1v1h-1z"/><path fill="#222117" d="M35 73h1v1h-1z"/><path fill="#188934" d="M36 73h1v1h-1z"/><path fill="#15A33B" d="M37 73h1v1h-1zM38 73h1v1h-1zM39 73h1v1h-1zM40 73h1v1h-1zM41 73h1v1h-1zM42 73h1v1h-1zM43 73h1v1h-1zM44 73h1v1h-1zM45 73h1v1h-1zM46 73h1v1h-1zM47 73h1v1h-1zM48 73h1v1h-1zM49 73h1v1h-1zM50 73h1v1h-1zM51 73h1v1h-1zM52 73h1v1h-1zM53 73h1v1h-1zM54 73h1v1h-1zM55 73h1v1h-1zM56 73h1v1h-1zM57 73h1v1h-1zM58 73h1v1h-1zM59 73h1v1h-1zM60 73h1v1h-1zM61 73h1v1h-1zM62 73h1v1h-1zM63 73h1v1h-1zM64 73h1v1h-1zM65 73h1v1h-1zM66 73h1v1h-1zM67 73h1v1h-1zM68 73h1v1h-1zM69 73h1v1h-1zM70 73h1v1h-1z"/><path fill="#108C3A" d="M71 73h1v1h-1z"/><path fill="#065F37" d="M72 73h1v1h-1z"/><path fill="#055A37" d="M73 73h1v1h-1zM74 73h1v1h-1zM75 73h1v1h-1z"/><path fill="#055C38" d="M76 73h1v1h-1z"/><path fill="#02713D" d="M77 73h1v1h-1z"/><path fill="#007F41" d="M78 73h1v1h-1zM79 73h1v1h-1zM80 73h1v1h-1z"/><path fill="#144528" d="M81 73h1v1h-1z"/><path fill="#231815" d="M82 73h1v1h-1zM83 73h1v1h-1zM84 73h1v1h-1zM32 74h1v1h-1zM33 74h1v1h-1zM34 74h1v1h-1zM35 74h1v1h-1z"/><path fill="#222117" d="M36 74h1v1h-1z"/><path fill="#1A6F2D" d="M37 74h1v1h-1z"/><path fill="#15A33B" d="M38 74h1v1h-1zM39 74h1v1h-1zM40 74h1v1h-1zM41 74h1v1h-1zM42 74h1v1h-1zM43 74h1v1h-1zM44 74h1v1h-1zM45 74h1v1h-1zM46 74h1v1h-1zM47 74h1v1h-1zM48 74h1v1h-1zM49 74h1v1h-1zM50 74h1v1h-1zM51 74h1v1h-1zM52 74h1v1h-1zM53 74h1v1h-1zM54 74h1v1h-1zM55 74h1v1h-1zM56 74h1v1h-1zM57 74h1v1h-1zM58 74h1v1h-1zM59 74h1v1h-1zM60 74h1v1h-1zM61 74h1v1h-1zM62 74h1v1h-1zM63 74h1v1h-1zM64 74h1v1h-1zM65 74h1v1h-1zM66 74h1v1h-1zM67 74h1v1h-1zM68 74h1v1h-1z"/><path fill="#149E3B" d="M69 74h1v1h-1z"/><path fill="#0C7A39" d="M70 74h1v1h-1z"/><path fill="#055A37" d="M71 74h1v1h-1zM72 74h1v1h-1zM73 74h1v1h-1zM74 74h1v1h-1z"/><path fill="#045F38" d="M75 74h1v1h-1z"/><path fill="#01783F" d="M76 74h1v1h-1z"/><path fill="#007F41" d="M77 74h1v1h-1zM78 74h1v1h-1zM79 74h1v1h-1zM80 74h1v1h-1z"/><path fill="#124C2B" d="M81 74h1v1h-1z"/><path fill="#231815" d="M82 74h1v1h-1zM83 74h1v1h-1zM84 74h1v1h-1zM33 75h1v1h-1zM34 75h1v1h-1zM35 75h1v1h-1zM36 75h1v1h-1zM37 75h1v1h-1z"/><path fill="#1E4C23" d="M38 75h1v1h-1z"/><path fill="#169A39" d="M39 75h1v1h-1z"/><path fill="#15A33B" d="M40 75h1v1h-1zM41 75h1v1h-1zM42 75h1v1h-1zM43 75h1v1h-1zM44 75h1v1h-1zM45 75h1v1h-1zM46 75h1v1h-1zM47 75h1v1h-1zM48 75h1v1h-1zM49 75h1v1h-1zM50 75h1v1h-1zM51 75h1v1h-1zM52 75h1v1h-1zM53 75h1v1h-1zM54 75h1v1h-1zM55 75h1v1h-1zM56 75h1v1h-1zM57 75h1v1h-1zM58 75h1v1h-1zM59 75h1v1h-1zM60 75h1v1h-1zM61 75h1v1h-1zM62 75h1v1h-1zM63 75h1v1h-1zM64 75h1v1h-1zM65 75h1v1h-1zM66 75h1v1h-1zM67 75h1v1h-1z"/><path fill="#108C3A" d="M68 75h1v1h-1z"/><path fill="#076338" d="M69 75h1v1h-1z"/><path fill="#055A37" d="M70 75h1v1h-1zM71 75h1v1h-1zM72 75h1v1h-1zM73 75h1v1h-1z"/><path fill="#03663A" d="M74 75h1v1h-1z"/><path fill="#007D40" d="M75 75h1v1h-1z"/><path fill="#007F41" d="M76 75h1v1h-1zM77 75h1v1h-1zM78 75h1v1h-1zM79 75h1v1h-1zM80 75h1v1h-1z"/><path fill="#124C2B" d="M81 75h1v1h-1z"/><path fill="#231815" d="M82 75h1v1h-1zM83 75h1v1h-1zM84 75h1v1h-1zM34 76h1v1h-1zM35 76h1v1h-1zM36 76h1v1h-1zM37 76h1v1h-1zM38 76h1v1h-1z"/><path fill="#20321C" d="M39 76h1v1h-1z"/><path fill="#188934" d="M40 76h1v1h-1z"/><path fill="#15A33B" d="M41 76h1v1h-1zM42 76h1v1h-1zM43 76h1v1h-1zM44 76h1v1h-1zM45 76h1v1h-1zM46 76h1v1h-1zM47 76h1v1h-1zM48 76h1v1h-1zM49 76h1v1h-1zM50 76h1v1h-1zM51 76h1v1h-1zM52 76h1v1h-1zM53 76h1v1h-1zM54 76h1v1h-1zM55 76h1v1h-1zM56 76h1v1h-1zM57 76h1v1h-1zM58 76h1v1h-1zM59 76h1v1h-1zM60 76h1v1h-1zM61 76h1v1h-1zM62 76h1v1h-1zM63 76h1v1h-1zM64 76h1v1h-1zM65 76h1v1h-1z"/><path fill="#139A3B" d="M66 76h1v1h-1z"/><path fill="#0A7138" d="M67 76h1v1h-1z"/><path fill="#055A37" d="M68 76h1v1h-1zM69 76h1v1h-1zM70 76h1v1h-1zM71 76h1v1h-1z"/><path fill="#055C38" d="M72 76h1v1h-1z"/><path fill="#026F3D" d="M73 76h1v1h-1z"/><path fill="#007F41" d="M74 76h1v1h-1zM75 76h1v1h-1zM76 76h1v1h-1zM77 76h1v1h-1zM78 76h1v1h-1zM79 76h1v1h-1zM80 76h1v1h-1z"/><path fill="#163F26" d="M81 76h1v1h-1z"/><path fill="#231815" d="M82 76h1v1h-1zM83 76h1v1h-1zM84 76h1v1h-1zM36 77h1v1h-1zM37 77h1v1h-1zM38 77h1v1h-1zM39 77h1v1h-1zM40 77h1v1h-1z"/><path fill="#1D5526" d="M41 77h1v1h-1z"/><path fill="#169A39" d="M42 77h1v1h-1z"/><path fill="#15A33B" d="M43 77h1v1h-1zM44 77h1v1h-1zM45 77h1v1h-1zM46 77h1v1h-1zM47 77h1v1h-1zM48 77h1v1h-1zM49 77h1v1h-1zM50 77h1v1h-1zM51 77h1v1h-1zM52 77h1v1h-1zM53 77h1v1h-1zM54 77h1v1h-1zM55 77h1v1h-1zM56 77h1v1h-1zM57 77h1v1h-1zM58 77h1v1h-1zM59 77h1v1h-1zM60 77h1v1h-1zM61 77h1v1h-1zM62 77h1v1h-1zM63 77h1v1h-1z"/><path fill="#149E3B" d="M64 77h1v1h-1z"/><path fill="#0C7A39" d="M65 77h1v1h-1z"/><path fill="#055A37" d="M66 77h1v1h-1zM67 77h1v1h-1zM68 77h1v1h-1zM69 77h1v1h-1zM70 77h1v1h-1z"/><path fill="#04633A" d="M71 77h1v1h-1z"/><path fill="#017A40" d="M72 77h1v1h-1z"/><path fill="#007F41" d="M73 77h1v1h-1zM74 77h1v1h-1zM75 77h1v1h-1zM76 77h1v1h-1zM77 77h1v1h-1zM78 77h1v1h-1zM79 77h1v1h-1zM80 77h1v1h-1z"/><path fill="#1F251B" d="M81 77h1v1h-1z"/><path fill="#231815" d="M82 77h1v1h-1zM83 77h1v1h-1zM37 78h1v1h-1zM38 78h1v1h-1zM39 78h1v1h-1zM40 78h1v1h-1zM41 78h1v1h-1z"/><path fill="#222117" d="M42 78h1v1h-1z"/><path fill="#1C5E28" d="M43 78h1v1h-1z"/><path fill="#169A39" d="M44 78h1v1h-1z"/><path fill="#15A33B" d="M45 78h1v1h-1zM46 78h1v1h-1zM47 78h1v1h-1zM48 78h1v1h-1zM49 78h1v1h-1zM50 78h1v1h-1zM51 78h1v1h-1zM52 78h1v1h-1zM53 78h1v1h-1zM54 78h1v1h-1zM55 78h1v1h-1zM56 78h1v1h-1zM57 78h1v1h-1zM58 78h1v1h-1zM59 78h1v1h-1zM60 78h1v1h-1zM61 78h1v1h-1z"/><path fill="#139A3B" d="M62 78h1v1h-1z"/><path fill="#0B7539" d="M63 78h1v1h-1z"/><path fill="#065F37" d="M64 78h1v1h-1z"/><path fill="#055A37" d="M65 78h1v1h-1zM66 78h1v1h-1zM67 78h1v1h-1zM68 78h1v1h-1z"/><path fill="#045F38" d="M69 78h1v1h-1z"/><path fill="#02713D" d="M70 78h1v1h-1z"/><path fill="#007F41" d="M71 78h1v1h-1zM72 78h1v1h-1zM73 78h1v1h-1zM74 78h1v1h-1zM75 78h1v1h-1zM76 78h1v1h-1zM77 78h1v1h-1zM78 78h1v1h-1zM79 78h1v1h-1z"/><path fill="#0B5F33" d="M80 78h1v1h-1z"/><path fill="#231815" d="M81 78h1v1h-1zM82 78h1v1h-1zM83 78h1v1h-1zM38 79h1v1h-1zM39 79h1v1h-1zM40 79h1v1h-1zM41 79h1v1h-1zM42 79h1v1h-1zM43 79h1v1h-1zM44 79h1v1h-1z"/><path fill="#1E4C23" d="M45 79h1v1h-1z"/><path fill="#19782F" d="M46 79h1v1h-1z"/><path fill="#15A33B" d="M47 79h1v1h-1zM48 79h1v1h-1zM49 79h1v1h-1zM50 79h1v1h-1zM51 79h1v1h-1zM52 79h1v1h-1zM53 79h1v1h-1zM54 79h1v1h-1zM55 79h1v1h-1zM56 79h1v1h-1zM57 79h1v1h-1zM58 79h1v1h-1zM59 79h1v1h-1z"/><path fill="#108C3A" d="M60 79h1v1h-1z"/><path fill="#0A7138" d="M61 79h1v1h-1z"/><path fill="#055A37" d="M62 79h1v1h-1zM63 79h1v1h-1zM64 79h1v1h-1zM65 79h1v1h-1zM66 79h1v1h-1z"/><path fill="#055C38" d="M67 79h1v1h-1z"/><path fill="#036D3C" d="M68 79h1v1h-1z"/><path fill="#007D40" d="M69 79h1v1h-1z"/><path fill="#007F41" d="M70 79h1v1h-1zM71 79h1v1h-1zM72 79h1v1h-1zM73 79h1v1h-1zM74 79h1v1h-1zM75 79h1v1h-1zM76 79h1v1h-1zM77 79h1v1h-1zM78 79h1v1h-1zM79 79h1v1h-1z"/><path fill="#1C2B1D" d="M80 79h1v1h-1z"/><path fill="#231815" d="M81 79h1v1h-1zM82 79h1v1h-1zM83 79h1v1h-1zM40 80h1v1h-1zM41 80h1v1h-1zM42 80h1v1h-1zM43 80h1v1h-1zM44 80h1v1h-1zM45 80h1v1h-1zM46 80h1v1h-1zM47 80h1v1h-1z"/><path fill="#203B1F" d="M48 80h1v1h-1z"/><path fill="#1C5E28" d="M49 80h1v1h-1z"/><path fill="#1A6F2D" d="M50 80h1v1h-1z"/><path fill="#198032" d="M51 80h1v1h-1zM52 80h1v1h-1z"/><path fill="#15A33B" d="M53 80h1v1h-1z"/><path fill="#188934" d="M54 80h1v1h-1z"/><path fill="#149E3B" d="M55 80h1v1h-1z"/><path fill="#11913A" d="M56 80h1v1h-1z"/><path fill="#0E8339" d="M57 80h1v1h-1z"/><path fill="#0A7138" d="M58 80h1v1h-1z"/><path fill="#065F37" d="M59 80h1v1h-1z"/><path fill="#055A37" d="M60 80h1v1h-1zM61 80h1v1h-1zM62 80h1v1h-1zM63 80h1v1h-1zM64 80h1v1h-1z"/><path fill="#055C38" d="M65 80h1v1h-1z"/><path fill="#036D3C" d="M66 80h1v1h-1z"/><path fill="#007D40" d="M67 80h1v1h-1z"/><path fill="#007F41" d="M68 80h1v1h-1zM69 80h1v1h-1zM70 80h1v1h-1zM71 80h1v1h-1zM72 80h1v1h-1zM73 80h1v1h-1zM74 80h1v1h-1zM75 80h1v1h-1zM76 80h1v1h-1zM77 80h1v1h-1zM78 80h1v1h-1z"/><path fill="#124C2B" d="M79 80h1v1h-1z"/><path fill="#231815" d="M80 80h1v1h-1zM81 80h1v1h-1zM82 80h1v1h-1zM42 81h1v1h-1zM43 81h1v1h-1zM44 81h1v1h-1zM45 81h1v1h-1zM46 81h1v1h-1zM47 81h1v1h-1zM48 81h1v1h-1zM49 81h1v1h-1zM50 81h1v1h-1zM51 81h1v1h-1zM52 81h1v1h-1zM53 81h1v1h-1zM54 81h1v1h-1z"/><path fill="#1C291E" d="M55 81h1v1h-1z"/><path fill="#055A37" d="M56 81h1v1h-1zM57 81h1v1h-1zM58 81h1v1h-1zM59 81h1v1h-1zM60 81h1v1h-1zM61 81h1v1h-1zM62 81h1v1h-1z"/><path fill="#046139" d="M63 81h1v1h-1z"/><path fill="#02713D" d="M64 81h1v1h-1z"/><path fill="#007D40" d="M65 81h1v1h-1z"/><path fill="#007F41" d="M66 81h1v1h-1zM67 81h1v1h-1zM68 81h1v1h-1zM69 81h1v1h-1zM70 81h1v1h-1zM71 81h1v1h-1zM72 81h1v1h-1zM73 81h1v1h-1zM74 81h1v1h-1zM75 81h1v1h-1zM76 81h1v1h-1zM77 81h1v1h-1z"/><path fill="#0D5831" d="M78 81h1v1h-1z"/><path fill="#231815" d="M79 81h1v1h-1zM80 81h1v1h-1zM81 81h1v1h-1zM82 81h1v1h-1zM45 82h1v1h-1zM46 82h1v1h-1zM47 82h1v1h-1zM48 82h1v1h-1zM49 82h1v1h-1zM50 82h1v1h-1zM51 82h1v1h-1zM52 82h1v1h-1zM53 82h1v1h-1zM54 82h1v1h-1zM55 82h1v1h-1z"/><path fill="#143926" d="M56 82h1v1h-1z"/><path fill="#055A37" d="M57 82h1v1h-1zM58 82h1v1h-1zM59 82h1v1h-1z"/><path fill="#046139" d="M60 82h1v1h-1z"/><path fill="#036A3B" d="M61 82h1v1h-1z"/><path fill="#01783F" d="M62 82h1v1h-1z"/><path fill="#007F41" d="M63 82h1v1h-1zM64 82h1v1h-1zM65 82h1v1h-1zM66 82h1v1h-1zM67 82h1v1h-1zM68 82h1v1h-1zM69 82h1v1h-1zM70 82h1v1h-1zM71 82h1v1h-1zM72 82h1v1h-1zM73 82h1v1h-1zM74 82h1v1h-1zM75 82h1v1h-1zM76 82h1v1h-1z"/><path fill="#0D5831" d="M77 82h1v1h-1z"/><path fill="#231815" d="M78 82h1v1h-1zM79 82h1v1h-1zM80 82h1v1h-1zM81 82h1v1h-1zM48 83h1v1h-1zM49 83h1v1h-1zM50 83h1v1h-1zM51 83h1v1h-1zM52 83h1v1h-1zM53 83h1v1h-1zM54 83h1v1h-1zM55 83h1v1h-1zM56 83h1v1h-1z"/><path fill="#0F482C" d="M57 83h1v1h-1z"/><path fill="#01763F" d="M58 83h1v1h-1z"/><path fill="#007D40" d="M59 83h1v1h-1z"/><path fill="#007F41" d="M60 83h1v1h-1zM61 83h1v1h-1zM62 83h1v1h-1zM63 83h1v1h-1zM64 83h1v1h-1zM65 83h1v1h-1zM66 83h1v1h-1zM67 83h1v1h-1zM68 83h1v1h-1zM69 83h1v1h-1zM70 83h1v1h-1zM71 83h1v1h-1zM72 83h1v1h-1zM73 83h1v1h-1zM74 83h1v1h-1z"/><path fill="#02793E" d="M75 83h1v1h-1z"/><path fill="#183823" d="M76 83h1v1h-1z"/><path fill="#231815" d="M77 83h1v1h-1zM78 83h1v1h-1zM79 83h1v1h-1zM80 83h1v1h-1zM54 84h1v1h-1zM55 84h1v1h-1zM56 84h1v1h-1zM57 84h1v1h-1z"/><path fill="#144528" d="M58 84h1v1h-1z"/><path fill="#007F41" d="M59 84h1v1h-1zM60 84h1v1h-1zM61 84h1v1h-1zM62 84h1v1h-1zM63 84h1v1h-1zM64 84h1v1h-1zM65 84h1v1h-1zM66 84h1v1h-1zM67 84h1v1h-1zM68 84h1v1h-1zM69 84h1v1h-1zM70 84h1v1h-1zM71 84h1v1h-1zM72 84h1v1h-1zM73 84h1v1h-1z"/><path fill="#0D5831" d="M74 84h1v1h-1z"/><path fill="#211E18" d="M75 84h1v1h-1z"/><path fill="#231815" d="M76 84h1v1h-1zM77 84h1v1h-1zM78 84h1v1h-1zM79 84h1v1h-1zM55 85h1v1h-1zM56 85h1v1h-1zM57 85h1v1h-1zM58 85h1v1h-1z"/><path fill="#1F251B" d="M59 85h1v1h-1z"/><path fill="#096536" d="M60 85h1v1h-1z"/><path fill="#007F41" d="M61 85h1v1h-1zM62 85h1v1h-1zM63 85h1v1h-1zM64 85h1v1h-1zM65 85h1v1h-1zM66 85h1v1h-1zM67 85h1v1h-1zM68 85h1v1h-1zM69 85h1v1h-1zM70 85h1v1h-1z"/><path fill="#02793E" d="M71 85h1v1h-1z"/><path fill="#0F522E" d="M72 85h1v1h-1z"/><path fill="#1F251B" d="M73 85h1v1h-1z"/><path fill="#231815" d="M74 85h1v1h-1zM75 85h1v1h-1zM76 85h1v1h-1zM77 85h1v1h-1zM78 85h1v1h-1zM56 86h1v1h-1zM57 86h1v1h-1zM58 86h1v1h-1zM59 86h1v1h-1zM60 86h1v1h-1z"/><path fill="#1C2B1D" d="M61 86h1v1h-1z"/><path fill="#0F522E" d="M62 86h1v1h-1z"/><path fill="#096536" d="M63 86h1v1h-1z"/><path fill="#007F41" d="M64 86h1v1h-1zM65 86h1v1h-1zM66 86h1v1h-1zM67 86h1v1h-1z"/><path fill="#096536" d="M68 86h1v1h-1z"/><path fill="#0F522E" d="M69 86h1v1h-1z"/><path fill="#183823" d="M70 86h1v1h-1z"/><path fill="#231815" d="M71 86h1v1h-1zM72 86h1v1h-1zM73 86h1v1h-1zM74 86h1v1h-1zM75 86h1v1h-1zM76 86h1v1h-1zM77 86h1v1h-1zM57 87h1v1h-1zM58 87h1v1h-1zM59 87h1v1h-1zM60 87h1v1h-1zM61 87h1v1h-1zM62 87h1v1h-1zM63 87h1v1h-1zM64 87h1v1h-1zM65 87h1v1h-1zM66 87h1v1h-1zM67 87h1v1h-1zM68 87h1v1h-1zM69 87h1v1h-1zM70 87h1v1h-1zM71 87h1v1h-1zM72 87h1v1h-1zM73 87h1v1h-1zM74 87h1v1h-1zM75 87h1v1h-1zM59 88h1v1h-1zM60 88h1v1h-1zM61 88h1v1h-1zM62 88h1v1h-1zM63 88h1v1h-1zM64 88h1v1h-1zM65 88h1v1h-1zM66 88h1v1h-1zM67 88h1v1h-1zM68 88h1v1h-1zM69 88h1v1h-1zM70 88h1v1h-1zM71 88h1v1h-1zM72 88h1v1h-1zM73 88h1v1h-1zM61 89h1v1h-1zM62 89h1v1h-1zM63 89h1v1h-1zM64 89h1v1h-1zM65 89h1v1h-1zM66 89h1v1h-1zM67 89h1v1h-1zM68 89h1v1h-1zM69 89h1v1h-1zM70 89h1v1h-1z"/></svg>