<svg baseProfile="full" height="90" width="90" xmlns="http://www.w3.org/2000/svg"><path fill="#002" d="M70 0h1v1h-1zM71 0h1v1h-1zM72 0h1v1h-1zM73 0h1v1h-1zM74 0h1v1h-1zM75 0h1v1h-1zM69 1h1v1h-1zM70 1h1v1h-1zM71 1h1v1h-1zM72 1h1v1h-1zM73 1h1v1h-1zM74 1h1v1h-1zM75 1h1v1h-1zM76 1h1v1h-1zM77 1h1v1h-1zM78 1h1v1h-1zM68 2h1v1h-1zM69 2h1v1h-1zM70 2h1v1h-1zM71 2h1v1h-1zM72 2h1v1h-1zM73 2h1v1h-1zM74 2h1v1h-1zM75 2h1v1h-1zM76 2h1v1h-1zM77 2h1v1h-1zM78 2h1v1h-1zM79 2h1v1h-1zM67 3h1v1h-1zM68 3h1v1h-1zM69 3h1v1h-1zM70 3h1v1h-1z"/><path fill="#1A1A38" d="M71 3h1v1h-1z"/><path fill="#6E6F80" d="M72 3h1v1h-1zM73 3h1v1h-1z"/><path fill="#535368" d="M74 3h1v1h-1z"/><path fill="#002" d="M75 3h1v1h-1zM76 3h1v1h-1zM77 3h1v1h-1zM78 3h1v1h-1zM79 3h1v1h-1zM80 3h1v1h-1zM81 3h1v1h-1zM66 4h1v1h-1zM67 4h1v1h-1zM68 4h1v1h-1zM69 4h1v1h-1z"/><path fill="#262642" d="M70 4h1v1h-1z"/><path fill="#C8C9CB" d="M71 4h1v1h-1z"/><path fill="#DCDDDD" d="M72 4h1v1h-1zM73 4h1v1h-1zM74 4h1v1h-1z"/><path fill="#CECFD1" d="M75 4h1v1h-1z"/><path fill="#6E6F80" d="M76 4h1v1h-1z"/><path fill="#0E0E2E" d="M77 4h1v1h-1z"/><path fill="#002" d="M78 4h1v1h-1zM79 4h1v1h-1zM80 4h1v1h-1zM81 4h1v1h-1zM82 4h1v1h-1zM65 5h1v1h-1zM66 5h1v1h-1zM67 5h1v1h-1zM68 5h1v1h-1z"/><path fill="#262642" d="M69 5h1v1h-1z"/><path fill="#BCBCC0" d="M70 5h1v1h-1z"/><path fill="#D5D6D6" d="M71 5h1v1h-1z"/><path fill="#DCDDDD" d="M72 5h1v1h-1zM73 5h1v1h-1zM74 5h1v1h-1zM75 5h1v1h-1zM76 5h1v1h-1z"/><path fill="#C1C1C6" d="M77 5h1v1h-1z"/><path fill="#373751" d="M78 5h1v1h-1z"/><path fill="#002" d="M79 5h1v1h-1zM80 5h1v1h-1zM81 5h1v1h-1zM82 5h1v1h-1zM83 5h1v1h-1zM64 6h1v1h-1zM65 6h1v1h-1zM66 6h1v1h-1zM67 6h1v1h-1z"/><path fill="#262642" d="M68 6h1v1h-1z"/><path fill="#BCBCC0" d="M69 6h1v1h-1z"/><path fill="#C9C9CA" d="M70 6h1v1h-1z"/><path fill="#D0D1D1" d="M71 6h1v1h-1z"/><path fill="#DCDDDD" d="M72 6h1v1h-1zM73 6h1v1h-1zM74 6h1v1h-1zM75 6h1v1h-1zM76 6h1v1h-1zM77 6h1v1h-1zM78 6h1v1h-1z"/><path fill="#6E6F80" d="M79 6h1v1h-1z"/><path fill="#002" d="M80 6h1v1h-1zM81 6h1v1h-1zM82 6h1v1h-1zM83 6h1v1h-1zM84 6h1v1h-1zM63 7h1v1h-1zM64 7h1v1h-1zM65 7h1v1h-1zM66 7h1v1h-1z"/><path fill="#2C2C48" d="M67 7h1v1h-1z"/><path fill="#D2D2D5" d="M68 7h1v1h-1z"/><path fill="#C9C9CA" d="M69 7h1v1h-1zM70 7h1v1h-1z"/><path fill="#CACACB" d="M71 7h1v1h-1z"/><path fill="#DCDDDD" d="M72 7h1v1h-1zM73 7h1v1h-1zM74 7h1v1h-1zM75 7h1v1h-1zM76 7h1v1h-1zM77 7h1v1h-1zM78 7h1v1h-1zM79 7h1v1h-1z"/><path fill="#8A8A97" d="M80 7h1v1h-1z"/><path fill="#002" d="M81 7h1v1h-1zM82 7h1v1h-1zM83 7h1v1h-1zM84 7h1v1h-1zM85 7h1v1h-1zM62 8h1v1h-1zM63 8h1v1h-1zM64 8h1v1h-1zM65 8h1v1h-1z"/><path fill="#2C2C48" d="M66 8h1v1h-1z"/><path fill="#DCDDDF" d="M67 8h1v1h-1z"/><path fill="#EBECEC" d="M68 8h1v1h-1z"/><path fill="#CBCBCC" d="M69 8h1v1h-1z"/><path fill="#C9C9CA" d="M70 8h1v1h-1zM71 8h1v1h-1z"/><path fill="#D5D6D6" d="M72 8h1v1h-1z"/><path fill="#DCDDDD" d="M73 8h1v1h-1zM74 8h1v1h-1zM75 8h1v1h-1zM76 8h1v1h-1zM77 8h1v1h-1zM78 8h1v1h-1zM79 8h1v1h-1zM80 8h1v1h-1z"/><path fill="#8A8A97" d="M81 8h1v1h-1z"/><path fill="#002" d="M82 8h1v1h-1zM83 8h1v1h-1zM84 8h1v1h-1zM85 8h1v1h-1zM86 8h1v1h-1zM61 9h1v1h-1zM62 9h1v1h-1zM63 9h1v1h-1zM64 9h1v1h-1z"/><path fill="#2C2C48" d="M65 9h1v1h-1z"/><path fill="#DCDDDF" d="M66 9h1v1h-1z"/><path fill="#EBECEC" d="M67 9h1v1h-1zM68 9h1v1h-1z"/><path fill="#DADBDB" d="M69 9h1v1h-1z"/><path fill="#C9C9CA" d="M70 9h1v1h-1zM71 9h1v1h-1z"/><path fill="#CACACB" d="M72 9h1v1h-1z"/><path fill="#DBDCDC" d="M73 9h1v1h-1z"/><path fill="#DCDDDD" d="M74 9h1v1h-1zM75 9h1v1h-1zM76 9h1v1h-1zM77 9h1v1h-1zM78 9h1v1h-1zM79 9h1v1h-1zM80 9h1v1h-1zM81 9h1v1h-1z"/><path fill="#8A8A97" d="M82 9h1v1h-1z"/><path fill="#002" d="M83 9h1v1h-1zM84 9h1v1h-1zM85 9h1v1h-1zM86 9h1v1h-1zM60 10h1v1h-1zM61 10h1v1h-1zM62 10h1v1h-1zM63 10h1v1h-1z"/><path fill="#2C2C48" d="M64 10h1v1h-1z"/><path fill="#DCDDDF" d="M65 10h1v1h-1z"/><path fill="#EBECEC" d="M66 10h1v1h-1zM67 10h1v1h-1zM68 10h1v1h-1z"/><path fill="#F0F1F1" d="M69 10h1v1h-1z"/><path fill="#CCCCCD" d="M70 10h1v1h-1z"/><path fill="#C9C9CA" d="M71 10h1v1h-1zM72 10h1v1h-1z"/><path fill="#D0D1D1" d="M73 10h1v1h-1z"/><path fill="#DCDDDD" d="M74 10h1v1h-1zM75 10h1v1h-1zM76 10h1v1h-1zM77 10h1v1h-1zM78 10h1v1h-1zM79 10h1v1h-1zM80 10h1v1h-1zM81 10h1v1h-1zM82 10h1v1h-1z"/><path fill="#6E6F80" d="M83 10h1v1h-1z"/><path fill="#002" d="M84 10h1v1h-1zM85 10h1v1h-1zM86 10h1v1h-1zM87 10h1v1h-1zM59 11h1v1h-1zM60 11h1v1h-1zM61 11h1v1h-1zM62 11h1v1h-1z"/><path fill="#2C1D40" d="M63 11h1v1h-1z"/><path fill="#DCD8DD" d="M64 11h1v1h-1z"/><path fill="#EBECEC" d="M65 11h1v1h-1zM66 11h1v1h-1zM67 11h1v1h-1z"/><path fill="#F3F3F3" d="M68 11h1v1h-1z"/><path fill="#FFF" d="M69 11h1v1h-1z"/><path fill="#E7E7E8" d="M70 11h1v1h-1z"/><path fill="#C9C9CA" d="M71 11h1v1h-1zM72 11h1v1h-1zM73 11h1v1h-1z"/><path fill="#D5D6D6" d="M74 11h1v1h-1z"/><path fill="#DCDDDD" d="M75 11h1v1h-1zM76 11h1v1h-1zM77 11h1v1h-1zM78 11h1v1h-1zM79 11h1v1h-1zM80 11h1v1h-1zM81 11h1v1h-1zM82 11h1v1h-1zM83 11h1v1h-1z"/><path fill="#373751" d="M84 11h1v1h-1z"/><path fill="#002" d="M85 11h1v1h-1zM86 11h1v1h-1zM87 11h1v1h-1zM88 11h1v1h-1zM58 12h1v1h-1zM59 12h1v1h-1zM60 12h1v1h-1zM61 12h1v1h-1z"/><path fill="#2C1D40" d="M62 12h1v1h-1z"/><path fill="#DA92B7" d="M63 12h1v1h-1z"/><path fill="#EACEDC" d="M64 12h1v1h-1z"/><path fill="#EBECEC" d="M65 12h1v1h-1zM66 12h1v1h-1z"/><path fill="#F3F3F3" d="M67 12h1v1h-1z"/><path fill="#FFF" d="M68 12h1v1h-1zM69 12h1v1h-1zM70 12h1v1h-1z"/><path fill="#D7D7D7" d="M71 12h1v1h-1z"/><path fill="#C9C9CA" d="M72 12h1v1h-1zM73 12h1v1h-1z"/><path fill="#CACACB" d="M74 12h1v1h-1z"/><path fill="#D8D9D9" d="M75 12h1v1h-1z"/><path fill="#DCDDDD" d="M76 12h1v1h-1zM77 12h1v1h-1zM78 12h1v1h-1zM79 12h1v1h-1zM80 12h1v1h-1zM81 12h1v1h-1zM82 12h1v1h-1zM83 12h1v1h-1z"/><path fill="#C1C1C6" d="M84 12h1v1h-1z"/><path fill="#0E0E2E" d="M85 12h1v1h-1z"/><path fill="#002" d="M86 12h1v1h-1zM87 12h1v1h-1zM88 12h1v1h-1zM57 13h1v1h-1zM58 13h1v1h-1zM59 13h1v1h-1zM60 13h1v1h-1z"/><path fill="#2C1D40" d="M61 13h1v1h-1z"/><path fill="#DA92B7" d="M62 13h1v1h-1z"/><path fill="#E89CC1" d="M63 13h1v1h-1z"/><path fill="#E9B0CC" d="M64 13h1v1h-1z"/><path fill="#EBECEC" d="M65 13h1v1h-1z"/><path fill="#F3F3F3" d="M66 13h1v1h-1z"/><path fill="#FFF" d="M67 13h1v1h-1zM68 13h1v1h-1zM69 13h1v1h-1z"/><path fill="#FEFEFE" d="M70 13h1v1h-1z"/><path fill="#EDEDED" d="M71 13h1v1h-1z"/><path fill="#CBCBCC" d="M72 13h1v1h-1z"/><path fill="#C9C9CA" d="M73 13h1v1h-1zM74 13h1v1h-1z"/><path fill="#CACACB" d="M75 13h1v1h-1z"/><path fill="#D8D9D9" d="M76 13h1v1h-1z"/><path fill="#DCDDDD" d="M77 13h1v1h-1zM78 13h1v1h-1zM79 13h1v1h-1zM80 13h1v1h-1zM81 13h1v1h-1zM82 13h1v1h-1zM83 13h1v1h-1zM84 13h1v1h-1z"/><path fill="#6E6F80" d="M85 13h1v1h-1z"/><path fill="#002" d="M86 13h1v1h-1zM87 13h1v1h-1zM88 13h1v1h-1zM56 14h1v1h-1zM57 14h1v1h-1zM58 14h1v1h-1zM59 14h1v1h-1z"/><path fill="#2C2C48" d="M60 14h1v1h-1z"/><path fill="#DCD3DA" d="M61 14h1v1h-1z"/><path fill="#E89CC1" d="M62 14h1v1h-1zM63 14h1v1h-1zM64 14h1v1h-1z"/><path fill="#F2E9EE" d="M65 14h1v1h-1z"/><path fill="#FFF" d="M66 14h1v1h-1zM67 14h1v1h-1zM68 14h1v1h-1z"/><path fill="#FEFEFE" d="M69 14h1v1h-1z"/><path fill="#EFF0F0" d="M70 14h1v1h-1z"/><path fill="#EBECEC" d="M71 14h1v1h-1z"/><path fill="#E5E5E6" d="M72 14h1v1h-1z"/><path fill="#CBCBCC" d="M73 14h1v1h-1z"/><path fill="#C9C9CA" d="M74 14h1v1h-1zM75 14h1v1h-1z"/><path fill="#CACACB" d="M76 14h1v1h-1z"/><path fill="#D8D9D9" d="M77 14h1v1h-1z"/><path fill="#DCDDDD" d="M78 14h1v1h-1zM79 14h1v1h-1zM80 14h1v1h-1zM81 14h1v1h-1zM82 14h1v1h-1zM83 14h1v1h-1zM84 14h1v1h-1z"/><path fill="#CECFD1" d="M85 14h1v1h-1z"/><path fill="#002" d="M86 14h1v1h-1zM87 14h1v1h-1zM88 14h1v1h-1zM89 14h1v1h-1zM55 15h1v1h-1zM56 15h1v1h-1zM57 15h1v1h-1zM58 15h1v1h-1z"/><path fill="#2C2C48" d="M59 15h1v1h-1z"/><path fill="#DCDDDF" d="M60 15h1v1h-1z"/><path fill="#EBECEC" d="M61 15h1v1h-1z"/><path fill="#E9B0CC" d="M62 15h1v1h-1z"/><path fill="#E89CC1" d="M63 15h1v1h-1z"/><path fill="#F1C1D8" d="M64 15h1v1h-1z"/><path fill="#FFF" d="M65 15h1v1h-1zM66 15h1v1h-1zM67 15h1v1h-1z"/><path fill="#FEFEFE" d="M68 15h1v1h-1z"/><path fill="#EFF0F0" d="M69 15h1v1h-1z"/><path fill="#EBECEC" d="M70 15h1v1h-1zM71 15h1v1h-1zM72 15h1v1h-1z"/><path fill="#DEDFDF" d="M73 15h1v1h-1z"/><path fill="#C9C9CA" d="M74 15h1v1h-1zM75 15h1v1h-1zM76 15h1v1h-1z"/><path fill="#CACACB" d="M77 15h1v1h-1z"/><path fill="#D5D6D6" d="M78 15h1v1h-1z"/><path fill="#DCDDDD" d="M79 15h1v1h-1zM80 15h1v1h-1zM81 15h1v1h-1zM82 15h1v1h-1zM83 15h1v1h-1zM84 15h1v1h-1zM85 15h1v1h-1z"/><path fill="#535368" d="M86 15h1v1h-1z"/><path fill="#002" d="M87 15h1v1h-1zM88 15h1v1h-1zM89 15h1v1h-1zM54 16h1v1h-1zM55 16h1v1h-1zM56 16h1v1h-1zM57 16h1v1h-1z"/><path fill="#2C2C48" d="M58 16h1v1h-1z"/><path fill="#DCDDDF" d="M59 16h1v1h-1z"/><path fill="#EBECEC" d="M60 16h1v1h-1zM61 16h1v1h-1z"/><path fill="#EAD8E1" d="M62 16h1v1h-1z"/><path fill="#F1C1D8" d="M63 16h1v1h-1z"/><path fill="#FFF" d="M64 16h1v1h-1zM65 16h1v1h-1zM66 16h1v1h-1z"/><path fill="#FEFEFE" d="M67 16h1v1h-1z"/><path fill="#EFF0F0" d="M68 16h1v1h-1z"/><path fill="#EBECEC" d="M69 16h1v1h-1zM70 16h1v1h-1zM71 16h1v1h-1zM72 16h1v1h-1zM73 16h1v1h-1z"/><path fill="#DEDFDF" d="M74 16h1v1h-1z"/><path fill="#CBCBCC" d="M75 16h1v1h-1z"/><path fill="#C9C9CA" d="M76 16h1v1h-1zM77 16h1v1h-1zM78 16h1v1h-1z"/><path fill="#D0D1D1" d="M79 16h1v1h-1z"/><path fill="#DBDCDC" d="M80 16h1v1h-1z"/><path fill="#DCDDDD" d="M81 16h1v1h-1zM82 16h1v1h-1zM83 16h1v1h-1zM84 16h1v1h-1zM85 16h1v1h-1z"/><path fill="#6E6F80" d="M86 16h1v1h-1z"/><path fill="#002" d="M87 16h1v1h-1zM88 16h1v1h-1zM89 16h1v1h-1zM53 17h1v1h-1zM54 17h1v1h-1zM55 17h1v1h-1zM56 17h1v1h-1z"/><path fill="#2C2C48" d="M57 17h1v1h-1z"/><path fill="#DCDDDF" d="M58 17h1v1h-1z"/><path fill="#EBECEC" d="M59 17h1v1h-1zM60 17h1v1h-1zM61 17h1v1h-1z"/><path fill="#F3F3F3" d="M62 17h1v1h-1z"/><path fill="#FFF" d="M63 17h1v1h-1zM64 17h1v1h-1zM65 17h1v1h-1z"/><path fill="#FEF9FB" d="M66 17h1v1h-1z"/><path fill="#EFEBED" d="M67 17h1v1h-1z"/><path fill="#EBECEC" d="M68 17h1v1h-1zM69 17h1v1h-1zM70 17h1v1h-1zM71 17h1v1h-1zM72 17h1v1h-1zM73 17h1v1h-1z"/><path fill="#DEDFDF" d="M74 17h1v1h-1z"/><path fill="#C9C9CA" d="M75 17h1v1h-1zM76 17h1v1h-1zM77 17h1v1h-1zM78 17h1v1h-1zM79 17h1v1h-1z"/><path fill="#CACACB" d="M80 17h1v1h-1z"/><path fill="#D5D6D6" d="M81 17h1v1h-1z"/><path fill="#DCDDDD" d="M82 17h1v1h-1zM83 17h1v1h-1zM84 17h1v1h-1zM85 17h1v1h-1z"/><path fill="#6E6F80" d="M86 17h1v1h-1z"/><path fill="#002" d="M87 17h1v1h-1zM88 17h1v1h-1zM89 17h1v1h-1zM52 18h1v1h-1zM53 18h1v1h-1zM54 18h1v1h-1zM55 18h1v1h-1z"/><path fill="#2C2C48" d="M56 18h1v1h-1z"/><path fill="#DCDDDF" d="M57 18h1v1h-1z"/><path fill="#EBECEC" d="M58 18h1v1h-1zM59 18h1v1h-1zM60 18h1v1h-1z"/><path fill="#F3F3F3" d="M61 18h1v1h-1z"/><path fill="#FFF" d="M62 18h1v1h-1zM63 18h1v1h-1zM64 18h1v1h-1z"/><path fill="#FEF9FB" d="M65 18h1v1h-1z"/><path fill="#ECAFCD" d="M66 18h1v1h-1z"/><path fill="#E9B5CE" d="M67 18h1v1h-1z"/><path fill="#EBECEC" d="M68 18h1v1h-1zM69 18h1v1h-1zM70 18h1v1h-1zM71 18h1v1h-1zM72 18h1v1h-1z"/><path fill="#DEDFDF" d="M73 18h1v1h-1z"/><path fill="#C9C9CA" d="M74 18h1v1h-1zM75 18h1v1h-1zM76 18h1v1h-1zM77 18h1v1h-1zM78 18h1v1h-1zM79 18h1v1h-1zM80 18h1v1h-1zM81 18h1v1h-1z"/><path fill="#CACACB" d="M82 18h1v1h-1z"/><path fill="#D0D1D1" d="M83 18h1v1h-1z"/><path fill="#D5D6D6" d="M84 18h1v1h-1z"/><path fill="#C8C9CB" d="M85 18h1v1h-1z"/><path fill="#1A1A38" d="M86 18h1v1h-1z"/><path fill="#002" d="M87 18h1v1h-1zM88 18h1v1h-1zM89 18h1v1h-1zM51 19h1v1h-1zM52 19h1v1h-1zM53 19h1v1h-1zM54 19h1v1h-1z"/><path fill="#2C2C48" d="M55 19h1v1h-1z"/><path fill="#DCDDDF" d="M56 19h1v1h-1z"/><path fill="#EBECEC" d="M57 19h1v1h-1zM58 19h1v1h-1zM59 19h1v1h-1z"/><path fill="#F3F3F3" d="M60 19h1v1h-1z"/><path fill="#FFF" d="M61 19h1v1h-1zM62 19h1v1h-1zM63 19h1v1h-1z"/><path fill="#FEF9FB" d="M64 19h1v1h-1z"/><path fill="#ECAFCD" d="M65 19h1v1h-1z"/><path fill="#E89CC1" d="M66 19h1v1h-1zM67 19h1v1h-1z"/><path fill="#EAC4D7" d="M68 19h1v1h-1z"/><path fill="#EBECEC" d="M69 19h1v1h-1zM70 19h1v1h-1zM71 19h1v1h-1z"/><path fill="#DEDFDF" d="M72 19h1v1h-1z"/><path fill="#C9C9CA" d="M73 19h1v1h-1zM74 19h1v1h-1zM75 19h1v1h-1zM76 19h1v1h-1zM77 19h1v1h-1zM78 19h1v1h-1zM79 19h1v1h-1zM80 19h1v1h-1zM81 19h1v1h-1zM82 19h1v1h-1zM83 19h1v1h-1z"/><path fill="#BCBCC0" d="M84 19h1v1h-1z"/><path fill="#262642" d="M85 19h1v1h-1z"/><path fill="#002" d="M86 19h1v1h-1zM87 19h1v1h-1zM88 19h1v1h-1zM89 19h1v1h-1zM50 20h1v1h-1zM51 20h1v1h-1zM52 20h1v1h-1zM53 20h1v1h-1z"/><path fill="#2C2C48" d="M54 20h1v1h-1z"/><path fill="#DCDDDF" d="M55 20h1v1h-1z"/><path fill="#EBECEC" d="M56 20h1v1h-1zM57 20h1v1h-1zM58 20h1v1h-1z"/><path fill="#F3F3F3" d="M59 20h1v1h-1z"/><path fill="#FFF" d="M60 20h1v1h-1zM61 20h1v1h-1zM62 20h1v1h-1z"/><path fill="#FEFEFE" d="M63 20h1v1h-1z"/><path fill="#EFF0F0" d="M64 20h1v1h-1z"/><path fill="#E9B5CE" d="M65 20h1v1h-1z"/><path fill="#E89CC1" d="M66 20h1v1h-1zM67 20h1v1h-1zM68 20h1v1h-1z"/><path fill="#EACEDC" d="M69 20h1v1h-1z"/><path fill="#EBECEC" d="M70 20h1v1h-1z"/><path fill="#DEDFDF" d="M71 20h1v1h-1z"/><path fill="#C9C9CA" d="M72 20h1v1h-1zM73 20h1v1h-1zM74 20h1v1h-1zM75 20h1v1h-1zM76 20h1v1h-1zM77 20h1v1h-1zM78 20h1v1h-1zM79 20h1v1h-1z"/><path fill="#D6D6D7" d="M80 20h1v1h-1z"/><path fill="#CBCBCC" d="M81 20h1v1h-1z"/><path fill="#C9C9CA" d="M82 20h1v1h-1z"/><path fill="#BCBCC0" d="M83 20h1v1h-1z"/><path fill="#262642" d="M84 20h1v1h-1z"/><path fill="#002" d="M85 20h1v1h-1zM86 20h1v1h-1zM87 20h1v1h-1zM88 20h1v1h-1zM49 21h1v1h-1zM50 21h1v1h-1zM51 21h1v1h-1zM52 21h1v1h-1z"/><path fill="#2C2C48" d="M53 21h1v1h-1z"/><path fill="#DCDDDF" d="M54 21h1v1h-1z"/><path fill="#EBECEC" d="M55 21h1v1h-1zM56 21h1v1h-1zM57 21h1v1h-1z"/><path fill="#F3F3F3" d="M58 21h1v1h-1z"/><path fill="#FFF" d="M59 21h1v1h-1zM60 21h1v1h-1zM61 21h1v1h-1z"/><path fill="#FEFEFE" d="M62 21h1v1h-1z"/><path fill="#EFF0F0" d="M63 21h1v1h-1z"/><path fill="#EBECEC" d="M64 21h1v1h-1z"/><path fill="#EBE7E9" d="M65 21h1v1h-1z"/><path fill="#E9ABC9" d="M66 21h1v1h-1z"/><path fill="#E89CC1" d="M67 21h1v1h-1zM68 21h1v1h-1zM69 21h1v1h-1z"/><path fill="#E5C0D2" d="M70 21h1v1h-1z"/><path fill="#C9C9CA" d="M71 21h1v1h-1zM72 21h1v1h-1zM73 21h1v1h-1zM74 21h1v1h-1zM75 21h1v1h-1zM76 21h1v1h-1zM77 21h1v1h-1zM78 21h1v1h-1z"/><path fill="#DEDFDF" d="M79 21h1v1h-1z"/><path fill="#EBECEC" d="M80 21h1v1h-1zM81 21h1v1h-1z"/><path fill="#D2D2D5" d="M82 21h1v1h-1z"/><path fill="#262642" d="M83 21h1v1h-1z"/><path fill="#002" d="M84 21h1v1h-1zM85 21h1v1h-1zM86 21h1v1h-1zM87 21h1v1h-1zM48 22h1v1h-1zM49 22h1v1h-1zM50 22h1v1h-1zM51 22h1v1h-1z"/><path fill="#2C2C48" d="M52 22h1v1h-1z"/><path fill="#DCDDDF" d="M53 22h1v1h-1z"/><path fill="#EBECEC" d="M54 22h1v1h-1zM55 22h1v1h-1zM56 22h1v1h-1z"/><path fill="#F3F3F3" d="M57 22h1v1h-1z"/><path fill="#FFF" d="M58 22h1v1h-1zM59 22h1v1h-1zM60 22h1v1h-1z"/><path fill="#FEFEFE" d="M61 22h1v1h-1z"/><path fill="#EFF0F0" d="M62 22h1v1h-1z"/><path fill="#EBECEC" d="M63 22h1v1h-1zM64 22h1v1h-1zM65 22h1v1h-1z"/><path fill="#EBE7E9" d="M66 22h1v1h-1z"/><path fill="#E9ABC9" d="M67 22h1v1h-1z"/><path fill="#E89CC1" d="M68 22h1v1h-1zM69 22h1v1h-1zM70 22h1v1h-1z"/><path fill="#DEAAC4" d="M71 22h1v1h-1z"/><path fill="#CBC6C9" d="M72 22h1v1h-1z"/><path fill="#C9C9CA" d="M73 22h1v1h-1zM74 22h1v1h-1zM75 22h1v1h-1zM76 22h1v1h-1zM77 22h1v1h-1z"/><path fill="#DEDFDF" d="M78 22h1v1h-1z"/><path fill="#EBECEC" d="M79 22h1v1h-1zM80 22h1v1h-1z"/><path fill="#DCDDDF" d="M81 22h1v1h-1z"/><path fill="#2C2C48" d="M82 22h1v1h-1z"/><path fill="#002" d="M83 22h1v1h-1zM84 22h1v1h-1zM85 22h1v1h-1zM86 22h1v1h-1zM47 23h1v1h-1zM48 23h1v1h-1zM49 23h1v1h-1zM50 23h1v1h-1z"/><path fill="#2C2C48" d="M51 23h1v1h-1z"/><path fill="#DCDDDF" d="M52 23h1v1h-1z"/><path fill="#EBECEC" d="M53 23h1v1h-1zM54 23h1v1h-1zM55 23h1v1h-1z"/><path fill="#F3F3F3" d="M56 23h1v1h-1z"/><path fill="#FFF" d="M57 23h1v1h-1zM58 23h1v1h-1zM59 23h1v1h-1z"/><path fill="#FEFEFE" d="M60 23h1v1h-1z"/><path fill="#EFF0F0" d="M61 23h1v1h-1z"/><path fill="#EBECEC" d="M62 23h1v1h-1zM63 23h1v1h-1zM64 23h1v1h-1zM65 23h1v1h-1zM66 23h1v1h-1z"/><path fill="#EBE7E9" d="M67 23h1v1h-1z"/><path fill="#E6A9C7" d="M68 23h1v1h-1z"/><path fill="#E89CC1" d="M69 23h1v1h-1zM70 23h1v1h-1zM71 23h1v1h-1z"/><path fill="#E4A2C2" d="M72 23h1v1h-1z"/><path fill="#D1BEC8" d="M73 23h1v1h-1z"/><path fill="#C9C9CA" d="M74 23h1v1h-1zM75 23h1v1h-1zM76 23h1v1h-1z"/><path fill="#DEDFDF" d="M77 23h1v1h-1z"/><path fill="#EBECEC" d="M78 23h1v1h-1zM79 23h1v1h-1z"/><path fill="#DCDDDF" d="M80 23h1v1h-1z"/><path fill="#2C2C48" d="M81 23h1v1h-1z"/><path fill="#002" d="M82 23h1v1h-1zM83 23h1v1h-1zM84 23h1v1h-1zM85 23h1v1h-1zM46 24h1v1h-1zM47 24h1v1h-1zM48 24h1v1h-1zM49 24h1v1h-1z"/><path fill="#2C2C48" d="M50 24h1v1h-1z"/><path fill="#DCDDDF" d="M51 24h1v1h-1z"/><path fill="#EBECEC" d="M52 24h1v1h-1zM53 24h1v1h-1zM54 24h1v1h-1z"/><path fill="#F3F3F3" d="M55 24h1v1h-1z"/><path fill="#FFF" d="M56 24h1v1h-1zM57 24h1v1h-1zM58 24h1v1h-1z"/><path fill="#FEFEFE" d="M59 24h1v1h-1z"/><path fill="#EFF0F0" d="M60 24h1v1h-1z"/><path fill="#EBECEC" d="M61 24h1v1h-1zM62 24h1v1h-1zM63 24h1v1h-1zM64 24h1v1h-1zM65 24h1v1h-1zM66 24h1v1h-1z"/><path fill="#DEDFDF" d="M67 24h1v1h-1z"/><path fill="#CBC6C9" d="M68 24h1v1h-1z"/><path fill="#DEAAC4" d="M69 24h1v1h-1z"/><path fill="#E89CC1" d="M70 24h1v1h-1zM71 24h1v1h-1zM72 24h1v1h-1zM73 24h1v1h-1z"/><path fill="#DEAAC4" d="M74 24h1v1h-1z"/><path fill="#CDC3C9" d="M75 24h1v1h-1z"/><path fill="#DEDFDF" d="M76 24h1v1h-1z"/><path fill="#EBECEC" d="M77 24h1v1h-1zM78 24h1v1h-1z"/><path fill="#DCDDDF" d="M79 24h1v1h-1z"/><path fill="#2C2C48" d="M80 24h1v1h-1z"/><path fill="#002" d="M81 24h1v1h-1zM82 24h1v1h-1zM83 24h1v1h-1zM84 24h1v1h-1zM45 25h1v1h-1zM46 25h1v1h-1zM47 25h1v1h-1zM48 25h1v1h-1z"/><path fill="#2C2C48" d="M49 25h1v1h-1z"/><path fill="#DCDDDF" d="M50 25h1v1h-1z"/><path fill="#EBECEC" d="M51 25h1v1h-1zM52 25h1v1h-1zM53 25h1v1h-1z"/><path fill="#F3F3F3" d="M54 25h1v1h-1z"/><path fill="#FFF" d="M55 25h1v1h-1zM56 25h1v1h-1zM57 25h1v1h-1z"/><path fill="#FEFEFE" d="M58 25h1v1h-1z"/><path fill="#EFF0F0" d="M59 25h1v1h-1z"/><path fill="#EBECEC" d="M60 25h1v1h-1zM61 25h1v1h-1zM62 25h1v1h-1zM63 25h1v1h-1zM64 25h1v1h-1zM65 25h1v1h-1z"/><path fill="#DEDFDF" d="M66 25h1v1h-1z"/><path fill="#C9C9CA" d="M67 25h1v1h-1zM68 25h1v1h-1zM69 25h1v1h-1z"/><path fill="#D7B5C6" d="M70 25h1v1h-1z"/><path fill="#E89CC1" d="M71 25h1v1h-1zM72 25h1v1h-1zM73 25h1v1h-1zM74 25h1v1h-1zM75 25h1v1h-1z"/><path fill="#E9B0CC" d="M76 25h1v1h-1z"/><path fill="#EACEDC" d="M77 25h1v1h-1z"/><path fill="#DCD8DD" d="M78 25h1v1h-1z"/><path fill="#2C2C48" d="M79 25h1v1h-1z"/><path fill="#002" d="M80 25h1v1h-1zM81 25h1v1h-1zM82 25h1v1h-1zM83 25h1v1h-1zM44 26h1v1h-1zM45 26h1v1h-1zM46 26h1v1h-1zM47 26h1v1h-1z"/><path fill="#2C2C48" d="M48 26h1v1h-1z"/><path fill="#DCDDDF" d="M49 26h1v1h-1z"/><path fill="#EBECEC" d="M50 26h1v1h-1zM51 26h1v1h-1zM52 26h1v1h-1z"/><path fill="#F3F3F3" d="M53 26h1v1h-1z"/><path fill="#FFF" d="M54 26h1v1h-1zM55 26h1v1h-1zM56 26h1v1h-1z"/><path fill="#FEFEFE" d="M57 26h1v1h-1z"/><path fill="#EFF0F0" d="M58 26h1v1h-1z"/><path fill="#EBECEC" d="M59 26h1v1h-1zM60 26h1v1h-1zM61 26h1v1h-1zM62 26h1v1h-1zM63 26h1v1h-1zM64 26h1v1h-1z"/><path fill="#DEDFDF" d="M65 26h1v1h-1z"/><path fill="#C9C9CA" d="M66 26h1v1h-1zM67 26h1v1h-1zM68 26h1v1h-1zM69 26h1v1h-1zM70 26h1v1h-1z"/><path fill="#CDC3C9" d="M71 26h1v1h-1z"/><path fill="#E0A7C3" d="M72 26h1v1h-1z"/><path fill="#E89CC1" d="M73 26h1v1h-1zM74 26h1v1h-1zM75 26h1v1h-1zM76 26h1v1h-1z"/><path fill="#DA92B7" d="M77 26h1v1h-1z"/><path fill="#2C1D40" d="M78 26h1v1h-1z"/><path fill="#002" d="M79 26h1v1h-1zM80 26h1v1h-1zM81 26h1v1h-1zM82 26h1v1h-1zM43 27h1v1h-1zM44 27h1v1h-1zM45 27h1v1h-1zM46 27h1v1h-1z"/><path fill="#2C2C48" d="M47 27h1v1h-1z"/><path fill="#DCDDDF" d="M48 27h1v1h-1z"/><path fill="#EBECEC" d="M49 27h1v1h-1zM50 27h1v1h-1zM51 27h1v1h-1z"/><path fill="#F3F3F3" d="M52 27h1v1h-1z"/><path fill="#FFF" d="M53 27h1v1h-1zM54 27h1v1h-1zM55 27h1v1h-1z"/><path fill="#FEFEFE" d="M56 27h1v1h-1z"/><path fill="#EFF0F0" d="M57 27h1v1h-1z"/><path fill="#EBECEC" d="M58 27h1v1h-1zM59 27h1v1h-1zM60 27h1v1h-1zM61 27h1v1h-1zM62 27h1v1h-1zM63 27h1v1h-1z"/><path fill="#DEDFDF" d="M64 27h1v1h-1z"/><path fill="#C9C9CA" d="M65 27h1v1h-1zM66 27h1v1h-1zM67 27h1v1h-1zM68 27h1v1h-1zM69 27h1v1h-1zM70 27h1v1h-1zM71 27h1v1h-1zM72 27h1v1h-1z"/><path fill="#E2CFD9" d="M73 27h1v1h-1z"/><path fill="#E9B0CC" d="M74 27h1v1h-1z"/><path fill="#E89CC1" d="M75 27h1v1h-1z"/><path fill="#DA92B7" d="M76 27h1v1h-1z"/><path fill="#2C1D40" d="M77 27h1v1h-1z"/><path fill="#002" d="M78 27h1v1h-1zM79 27h1v1h-1zM80 27h1v1h-1zM81 27h1v1h-1zM42 28h1v1h-1zM43 28h1v1h-1zM44 28h1v1h-1zM45 28h1v1h-1z"/><path fill="#2C2C48" d="M46 28h1v1h-1z"/><path fill="#DCDDDF" d="M47 28h1v1h-1z"/><path fill="#EBECEC" d="M48 28h1v1h-1zM49 28h1v1h-1zM50 28h1v1h-1z"/><path fill="#F3F3F3" d="M51 28h1v1h-1z"/><path fill="#FFF" d="M52 28h1v1h-1zM53 28h1v1h-1zM54 28h1v1h-1z"/><path fill="#FEFEFE" d="M55 28h1v1h-1z"/><path fill="#EFF0F0" d="M56 28h1v1h-1z"/><path fill="#EBECEC" d="M57 28h1v1h-1zM58 28h1v1h-1zM59 28h1v1h-1zM60 28h1v1h-1zM61 28h1v1h-1zM62 28h1v1h-1z"/><path fill="#DEDFDF" d="M63 28h1v1h-1z"/><path fill="#C9C9CA" d="M64 28h1v1h-1zM65 28h1v1h-1zM66 28h1v1h-1zM67 28h1v1h-1zM68 28h1v1h-1zM69 28h1v1h-1zM70 28h1v1h-1zM71 28h1v1h-1z"/><path fill="#DEDFDF" d="M72 28h1v1h-1z"/><path fill="#EBECEC" d="M73 28h1v1h-1zM74 28h1v1h-1z"/><path fill="#DCD3DA" d="M75 28h1v1h-1z"/><path fill="#2C1D40" d="M76 28h1v1h-1z"/><path fill="#002" d="M77 28h1v1h-1zM78 28h1v1h-1zM79 28h1v1h-1zM80 28h1v1h-1zM41 29h1v1h-1zM42 29h1v1h-1zM43 29h1v1h-1zM44 29h1v1h-1z"/><path fill="#2C2C48" d="M45 29h1v1h-1z"/><path fill="#DCDDDF" d="M46 29h1v1h-1z"/><path fill="#EBECEC" d="M47 29h1v1h-1zM48 29h1v1h-1zM49 29h1v1h-1z"/><path fill="#F3F3F3" d="M50 29h1v1h-1z"/><path fill="#FFF" d="M51 29h1v1h-1zM52 29h1v1h-1zM53 29h1v1h-1z"/><path fill="#FEFEFE" d="M54 29h1v1h-1z"/><path fill="#EFF0F0" d="M55 29h1v1h-1z"/><path fill="#EBECEC" d="M56 29h1v1h-1zM57 29h1v1h-1zM58 29h1v1h-1zM59 29h1v1h-1zM60 29h1v1h-1zM61 29h1v1h-1z"/><path fill="#DEDFDF" d="M62 29h1v1h-1z"/><path fill="#C9C9CA" d="M63 29h1v1h-1zM64 29h1v1h-1zM65 29h1v1h-1zM66 29h1v1h-1zM67 29h1v1h-1zM68 29h1v1h-1zM69 29h1v1h-1zM70 29h1v1h-1z"/><path fill="#DEDFDF" d="M71 29h1v1h-1z"/><path fill="#EBECEC" d="M72 29h1v1h-1zM73 29h1v1h-1z"/><path fill="#DCDDDF" d="M74 29h1v1h-1z"/><path fill="#2C2C48" d="M75 29h1v1h-1z"/><path fill="#002" d="M76 29h1v1h-1zM77 29h1v1h-1zM78 29h1v1h-1zM79 29h1v1h-1zM23 30h1v1h-1zM24 30h1v1h-1zM25 30h1v1h-1zM26 30h1v1h-1zM27 30h1v1h-1zM28 30h1v1h-1zM29 30h1v1h-1zM30 30h1v1h-1zM40 30h1v1h-1zM41 30h1v1h-1zM42 30h1v1h-1zM43 30h1v1h-1z"/><path fill="#2C2C48" d="M44 30h1v1h-1z"/><path fill="#DCDDDF" d="M45 30h1v1h-1z"/><path fill="#EBECEC" d="M46 30h1v1h-1zM47 30h1v1h-1zM48 30h1v1h-1z"/><path fill="#F3F3F3" d="M49 30h1v1h-1z"/><path fill="#FFF" d="M50 30h1v1h-1zM51 30h1v1h-1zM52 30h1v1h-1z"/><path fill="#FEFEFE" d="M53 30h1v1h-1z"/><path fill="#EFF0F0" d="M54 30h1v1h-1z"/><path fill="#EBECEC" d="M55 30h1v1h-1zM56 30h1v1h-1zM57 30h1v1h-1zM58 30h1v1h-1zM59 30h1v1h-1zM60 30h1v1h-1z"/><path fill="#DEDFDF" d="M61 30h1v1h-1z"/><path fill="#C9C9CA" d="M62 30h1v1h-1zM63 30h1v1h-1zM64 30h1v1h-1zM65 30h1v1h-1zM66 30h1v1h-1zM67 30h1v1h-1zM68 30h1v1h-1zM69 30h1v1h-1z"/><path fill="#DEDFDF" d="M70 30h1v1h-1z"/><path fill="#EBECEC" d="M71 30h1v1h-1zM72 30h1v1h-1z"/><path fill="#DCDDDF" d="M73 30h1v1h-1z"/><path fill="#2C2C48" d="M74 30h1v1h-1z"/><path fill="#002" d="M75 30h1v1h-1zM76 30h1v1h-1zM77 30h1v1h-1zM78 30h1v1h-1zM18 31h1v1h-1zM19 31h1v1h-1zM20 31h1v1h-1zM21 31h1v1h-1zM22 31h1v1h-1zM23 31h1v1h-1zM24 31h1v1h-1zM25 31h1v1h-1zM26 31h1v1h-1zM27 31h1v1h-1zM28 31h1v1h-1zM29 31h1v1h-1zM30 31h1v1h-1zM31 31h1v1h-1zM32 31h1v1h-1zM33 31h1v1h-1zM34 31h1v1h-1zM35 31h1v1h-1zM36 31h1v1h-1zM39 31h1v1h-1zM40 31h1v1h-1zM41 31h1v1h-1zM42 31h1v1h-1z"/><path fill="#2C2C48" d="M43 31h1v1h-1z"/><path fill="#DCDDDF" d="M44 31h1v1h-1z"/><path fill="#EBECEC" d="M45 31h1v1h-1zM46 31h1v1h-1zM47 31h1v1h-1z"/><path fill="#F3F3F3" d="M48 31h1v1h-1z"/><path fill="#FFF" d="M49 31h1v1h-1zM50 31h1v1h-1zM51 31h1v1h-1z"/><path fill="#FEFEFE" d="M52 31h1v1h-1z"/><path fill="#EFF0F0" d="M53 31h1v1h-1z"/><path fill="#EBECEC" d="M54 31h1v1h-1zM55 31h1v1h-1zM56 31h1v1h-1zM57 31h1v1h-1zM58 31h1v1h-1zM59 31h1v1h-1z"/><path fill="#DEDFDF" d="M60 31h1v1h-1z"/><path fill="#C9C9CA" d="M61 31h1v1h-1zM62 31h1v1h-1zM63 31h1v1h-1zM64 31h1v1h-1zM65 31h1v1h-1zM66 31h1v1h-1zM67 31h1v1h-1zM68 31h1v1h-1z"/><path fill="#DEDFDF" d="M69 31h1v1h-1z"/><path fill="#EBECEC" d="M70 31h1v1h-1zM71 31h1v1h-1z"/><path fill="#DCDDDF" d="M72 31h1v1h-1z"/><path fill="#2C2C48" d="M73 31h1v1h-1z"/><path fill="#002" d="M74 31h1v1h-1zM75 31h1v1h-1zM76 31h1v1h-1zM77 31h1v1h-1zM15 32h1v1h-1zM16 32h1v1h-1zM17 32h1v1h-1zM18 32h1v1h-1zM19 32h1v1h-1zM20 32h1v1h-1zM21 32h1v1h-1zM22 32h1v1h-1zM23 32h1v1h-1zM24 32h1v1h-1zM25 32h1v1h-1zM26 32h1v1h-1zM27 32h1v1h-1zM28 32h1v1h-1zM29 32h1v1h-1zM30 32h1v1h-1zM31 32h1v1h-1zM32 32h1v1h-1zM33 32h1v1h-1zM34 32h1v1h-1zM35 32h1v1h-1zM36 32h1v1h-1zM37 32h1v1h-1zM38 32h1v1h-1zM39 32h1v1h-1zM40 32h1v1h-1zM41 32h1v1h-1z"/><path fill="#2C2C48" d="M42 32h1v1h-1z"/><path fill="#DCDDDF" d="M43 32h1v1h-1z"/><path fill="#EBECEC" d="M44 32h1v1h-1zM45 32h1v1h-1zM46 32h1v1h-1z"/><path fill="#F3F3F3" d="M47 32h1v1h-1z"/><path fill="#FFF" d="M48 32h1v1h-1zM49 32h1v1h-1zM50 32h1v1h-1z"/><path fill="#FEFEFE" d="M51 32h1v1h-1z"/><path fill="#EFF0F0" d="M52 32h1v1h-1z"/><path fill="#EBECEC" d="M53 32h1v1h-1zM54 32h1v1h-1zM55 32h1v1h-1zM56 32h1v1h-1zM57 32h1v1h-1zM58 32h1v1h-1z"/><path fill="#DEDFDF" d="M59 32h1v1h-1z"/><path fill="#C9C9CA" d="M60 32h1v1h-1zM61 32h1v1h-1zM62 32h1v1h-1zM63 32h1v1h-1zM64 32h1v1h-1zM65 32h1v1h-1zM66 32h1v1h-1zM67 32h1v1h-1z"/><path fill="#DEDFDF" d="M68 32h1v1h-1z"/><path fill="#EBECEC" d="M69 32h1v1h-1zM70 32h1v1h-1z"/><path fill="#DCDDDF" d="M71 32h1v1h-1z"/><path fill="#2C2C48" d="M72 32h1v1h-1z"/><path fill="#002" d="M73 32h1v1h-1zM74 32h1v1h-1zM75 32h1v1h-1zM76 32h1v1h-1zM13 33h1v1h-1zM14 33h1v1h-1zM15 33h1v1h-1zM16 33h1v1h-1zM17 33h1v1h-1zM18 33h1v1h-1zM19 33h1v1h-1zM20 33h1v1h-1zM21 33h1v1h-1zM22 33h1v1h-1zM23 33h1v1h-1z"/><path fill="#290F38" d="M24 33h1v1h-1z"/><path fill="#361440" d="M25 33h1v1h-1z"/><path fill="#3A314F" d="M26 33h1v1h-1z"/><path fill="#3B3B55" d="M27 33h1v1h-1zM28 33h1v1h-1z"/><path fill="#39274A" d="M29 33h1v1h-1z"/><path fill="#1B0A31" d="M30 33h1v1h-1z"/><path fill="#002" d="M31 33h1v1h-1zM32 33h1v1h-1zM33 33h1v1h-1zM34 33h1v1h-1zM35 33h1v1h-1zM36 33h1v1h-1zM37 33h1v1h-1zM38 33h1v1h-1zM39 33h1v1h-1zM40 33h1v1h-1z"/><path fill="#2C2C48" d="M41 33h1v1h-1z"/><path fill="#DCDDDF" d="M42 33h1v1h-1z"/><path fill="#EBECEC" d="M43 33h1v1h-1zM44 33h1v1h-1zM45 33h1v1h-1z"/><path fill="#F3F3F3" d="M46 33h1v1h-1z"/><path fill="#FFF" d="M47 33h1v1h-1zM48 33h1v1h-1zM49 33h1v1h-1z"/><path fill="#FEFEFE" d="M50 33h1v1h-1z"/><path fill="#EFF0F0" d="M51 33h1v1h-1z"/><path fill="#EBECEC" d="M52 33h1v1h-1zM53 33h1v1h-1zM54 33h1v1h-1zM55 33h1v1h-1zM56 33h1v1h-1zM57 33h1v1h-1z"/><path fill="#DEDFDF" d="M58 33h1v1h-1z"/><path fill="#C9C9CA" d="M59 33h1v1h-1zM60 33h1v1h-1zM61 33h1v1h-1zM62 33h1v1h-1zM63 33h1v1h-1zM64 33h1v1h-1zM65 33h1v1h-1zM66 33h1v1h-1z"/><path fill="#DEDFDF" d="M67 33h1v1h-1z"/><path fill="#EBECEC" d="M68 33h1v1h-1zM69 33h1v1h-1z"/><path fill="#DCDDDF" d="M70 33h1v1h-1z"/><path fill="#2C2C48" d="M71 33h1v1h-1z"/><path fill="#002" d="M72 33h1v1h-1zM73 33h1v1h-1zM74 33h1v1h-1zM75 33h1v1h-1zM11 34h1v1h-1zM12 34h1v1h-1zM13 34h1v1h-1zM14 34h1v1h-1zM15 34h1v1h-1zM16 34h1v1h-1zM17 34h1v1h-1zM18 34h1v1h-1z"/><path fill="#3B3B55" d="M19 34h1v1h-1z"/><path fill="#767687" d="M20 34h1v1h-1z"/><path fill="#B0B1BA" d="M21 34h1v1h-1z"/><path fill="#D285B0" d="M22 34h1v1h-1z"/><path fill="#D94F98" d="M23 34h1v1h-1zM24 34h1v1h-1zM25 34h1v1h-1z"/><path fill="#EAE2E7" d="M26 34h1v1h-1z"/><path fill="#EBECEC" d="M27 34h1v1h-1zM28 34h1v1h-1z"/><path fill="#DE76AD" d="M29 34h1v1h-1z"/><path fill="#D94F98" d="M30 34h1v1h-1zM31 34h1v1h-1z"/><path fill="#C476A4" d="M32 34h1v1h-1z"/><path fill="#A2A2AD" d="M33 34h1v1h-1z"/><path fill="#767687" d="M34 34h1v1h-1z"/><path fill="#3B3B55" d="M35 34h1v1h-1z"/><path fill="#002" d="M36 34h1v1h-1zM37 34h1v1h-1zM38 34h1v1h-1zM39 34h1v1h-1z"/><path fill="#2C2C48" d="M40 34h1v1h-1z"/><path fill="#DCDDDF" d="M41 34h1v1h-1z"/><path fill="#EBECEC" d="M42 34h1v1h-1zM43 34h1v1h-1zM44 34h1v1h-1z"/><path fill="#F3F3F3" d="M45 34h1v1h-1z"/><path fill="#FFF" d="M46 34h1v1h-1zM47 34h1v1h-1zM48 34h1v1h-1z"/><path fill="#FEFEFE" d="M49 34h1v1h-1z"/><path fill="#EFF0F0" d="M50 34h1v1h-1z"/><path fill="#EBECEC" d="M51 34h1v1h-1zM52 34h1v1h-1zM53 34h1v1h-1zM54 34h1v1h-1zM55 34h1v1h-1zM56 34h1v1h-1z"/><path fill="#DEDFDF" d="M57 34h1v1h-1z"/><path fill="#C9C9CA" d="M58 34h1v1h-1zM59 34h1v1h-1zM60 34h1v1h-1zM61 34h1v1h-1zM62 34h1v1h-1zM63 34h1v1h-1zM64 34h1v1h-1zM65 34h1v1h-1z"/><path fill="#DEDFDF" d="M66 34h1v1h-1z"/><path fill="#EBECEC" d="M67 34h1v1h-1zM68 34h1v1h-1z"/><path fill="#DCDDDF" d="M69 34h1v1h-1z"/><path fill="#2C2C48" d="M70 34h1v1h-1z"/><path fill="#002" d="M71 34h1v1h-1zM72 34h1v1h-1zM73 34h1v1h-1zM74 34h1v1h-1zM9 35h1v1H9zM10 35h1v1h-1zM11 35h1v1h-1zM12 35h1v1h-1zM13 35h1v1h-1zM14 35h1v1h-1zM15 35h1v1h-1z"/><path fill="#494A61" d="M16 35h1v1h-1z"/><path fill="#A2A2AD" d="M17 35h1v1h-1z"/><path fill="#EBECEC" d="M18 35h1v1h-1zM19 35h1v1h-1zM20 35h1v1h-1zM21 35h1v1h-1z"/><path fill="#DE76AD" d="M22 35h1v1h-1z"/><path fill="#D94F98" d="M23 35h1v1h-1zM24 35h1v1h-1z"/><path fill="#DF80B2" d="M25 35h1v1h-1z"/><path fill="#EBECEC" d="M26 35h1v1h-1zM27 35h1v1h-1zM28 35h1v1h-1z"/><path fill="#D94F98" d="M29 35h1v1h-1zM30 35h1v1h-1zM31 35h1v1h-1z"/><path fill="#E4B1CD" d="M32 35h1v1h-1z"/><path fill="#EBECEC" d="M33 35h1v1h-1zM34 35h1v1h-1z"/><path fill="#9394A0" d="M35 35h1v1h-1z"/><path fill="#002" d="M36 35h1v1h-1zM37 35h1v1h-1zM38 35h1v1h-1z"/><path fill="#2C2C48" d="M39 35h1v1h-1z"/><path fill="#DCDDDF" d="M40 35h1v1h-1z"/><path fill="#EBECEC" d="M41 35h1v1h-1zM42 35h1v1h-1zM43 35h1v1h-1z"/><path fill="#F3F3F3" d="M44 35h1v1h-1z"/><path fill="#FFF" d="M45 35h1v1h-1zM46 35h1v1h-1zM47 35h1v1h-1z"/><path fill="#FEFEFE" d="M48 35h1v1h-1z"/><path fill="#EFF0F0" d="M49 35h1v1h-1z"/><path fill="#EBECEC" d="M50 35h1v1h-1zM51 35h1v1h-1zM52 35h1v1h-1zM53 35h1v1h-1zM54 35h1v1h-1zM55 35h1v1h-1z"/><path fill="#DEDFDF" d="M56 35h1v1h-1z"/><path fill="#C9C9CA" d="M57 35h1v1h-1zM58 35h1v1h-1zM59 35h1v1h-1zM60 35h1v1h-1zM61 35h1v1h-1zM62 35h1v1h-1zM63 35h1v1h-1zM64 35h1v1h-1z"/><path fill="#DEDFDF" d="M65 35h1v1h-1z"/><path fill="#EBECEC" d="M66 35h1v1h-1zM67 35h1v1h-1z"/><path fill="#DCDDDF" d="M68 35h1v1h-1z"/><path fill="#2C2C48" d="M69 35h1v1h-1z"/><path fill="#002" d="M70 35h1v1h-1zM71 35h1v1h-1zM72 35h1v1h-1zM73 35h1v1h-1zM8 36h1v1H8zM9 36h1v1H9zM10 36h1v1h-1zM11 36h1v1h-1zM12 36h1v1h-1z"/><path fill="#0F0F2F" d="M13 36h1v1h-1z"/><path fill="#67677A" d="M14 36h1v1h-1z"/><path fill="#CECFD3" d="M15 36h1v1h-1z"/><path fill="#EBECEC" d="M16 36h1v1h-1zM17 36h1v1h-1zM18 36h1v1h-1zM19 36h1v1h-1zM20 36h1v1h-1zM21 36h1v1h-1z"/><path fill="#D94F98" d="M22 36h1v1h-1z"/><path fill="#DC5DA0" d="M23 36h1v1h-1z"/><path fill="#DD62A2" d="M24 36h1v1h-1z"/><path fill="#E6AACA" d="M25 36h1v1h-1z"/><path fill="#F4F4F4" d="M26 36h1v1h-1z"/><path fill="#F5F6F6" d="M27 36h1v1h-1z"/><path fill="#F4EFF2" d="M28 36h1v1h-1z"/><path fill="#DD62A2" d="M29 36h1v1h-1zM30 36h1v1h-1zM31 36h1v1h-1z"/><path fill="#E7C5D7" d="M32 36h1v1h-1z"/><path fill="#EBECEC" d="M33 36h1v1h-1z"/><path fill="#DADBDD" d="M34 36h1v1h-1z"/><path fill="#002" d="M35 36h1v1h-1zM36 36h1v1h-1zM37 36h1v1h-1z"/><path fill="#2C2C48" d="M38 36h1v1h-1z"/><path fill="#DCDDDF" d="M39 36h1v1h-1z"/><path fill="#EBECEC" d="M40 36h1v1h-1zM41 36h1v1h-1zM42 36h1v1h-1z"/><path fill="#F3F3F3" d="M43 36h1v1h-1z"/><path fill="#FFF" d="M44 36h1v1h-1zM45 36h1v1h-1zM46 36h1v1h-1z"/><path fill="#FEFEFE" d="M47 36h1v1h-1z"/><path fill="#EFF0F0" d="M48 36h1v1h-1z"/><path fill="#EBECEC" d="M49 36h1v1h-1zM50 36h1v1h-1zM51 36h1v1h-1zM52 36h1v1h-1zM53 36h1v1h-1zM54 36h1v1h-1z"/><path fill="#DEDFDF" d="M55 36h1v1h-1z"/><path fill="#C9C9CA" d="M56 36h1v1h-1zM57 36h1v1h-1zM58 36h1v1h-1zM59 36h1v1h-1zM60 36h1v1h-1zM61 36h1v1h-1zM62 36h1v1h-1zM63 36h1v1h-1z"/><path fill="#DEDFDF" d="M64 36h1v1h-1z"/><path fill="#EBECEC" d="M65 36h1v1h-1zM66 36h1v1h-1z"/><path fill="#DCDDDF" d="M67 36h1v1h-1z"/><path fill="#2C2C48" d="M68 36h1v1h-1z"/><path fill="#002" d="M69 36h1v1h-1zM70 36h1v1h-1zM71 36h1v1h-1zM72 36h1v1h-1zM7 37h1v1H7zM8 37h1v1H8zM9 37h1v1H9zM10 37h1v1h-1zM11 37h1v1h-1z"/><path fill="#58596E" d="M12 37h1v1h-1z"/><path fill="#CECFD3" d="M13 37h1v1h-1z"/><path fill="#EBECEC" d="M14 37h1v1h-1zM15 37h1v1h-1zM16 37h1v1h-1zM17 37h1v1h-1zM18 37h1v1h-1z"/><path fill="#F1F2F2" d="M19 37h1v1h-1z"/><path fill="#F6F7F7" d="M20 37h1v1h-1z"/><path fill="#F8EFF4" d="M21 37h1v1h-1z"/><path fill="#E89CC1" d="M22 37h1v1h-1zM23 37h1v1h-1zM24 37h1v1h-1z"/><path fill="#F9E6F0" d="M25 37h1v1h-1z"/><path fill="#FFF" d="M26 37h1v1h-1zM27 37h1v1h-1z"/><path fill="#F9E6F0" d="M28 37h1v1h-1z"/><path fill="#E89CC1" d="M29 37h1v1h-1zM30 37h1v1h-1zM31 37h1v1h-1z"/><path fill="#FFF" d="M32 37h1v1h-1z"/><path fill="#FEFEFE" d="M33 37h1v1h-1z"/><path fill="#E2E2E2" d="M34 37h1v1h-1z"/><path fill="#0D0D2D" d="M35 37h1v1h-1z"/><path fill="#002" d="M36 37h1v1h-1z"/><path fill="#2C2C48" d="M37 37h1v1h-1z"/><path fill="#DCDDDF" d="M38 37h1v1h-1z"/><path fill="#EBECEC" d="M39 37h1v1h-1zM40 37h1v1h-1zM41 37h1v1h-1z"/><path fill="#F3F3F3" d="M42 37h1v1h-1z"/><path fill="#FFF" d="M43 37h1v1h-1zM44 37h1v1h-1zM45 37h1v1h-1z"/><path fill="#FEFEFE" d="M46 37h1v1h-1z"/><path fill="#EFF0F0" d="M47 37h1v1h-1z"/><path fill="#EBECEC" d="M48 37h1v1h-1zM49 37h1v1h-1zM50 37h1v1h-1zM51 37h1v1h-1zM52 37h1v1h-1zM53 37h1v1h-1z"/><path fill="#DEDFDF" d="M54 37h1v1h-1z"/><path fill="#C9C9CA" d="M55 37h1v1h-1zM56 37h1v1h-1zM57 37h1v1h-1zM58 37h1v1h-1zM59 37h1v1h-1zM60 37h1v1h-1zM61 37h1v1h-1zM62 37h1v1h-1z"/><path fill="#DEDFDF" d="M63 37h1v1h-1z"/><path fill="#EBECEC" d="M64 37h1v1h-1zM65 37h1v1h-1z"/><path fill="#DCDDDF" d="M66 37h1v1h-1z"/><path fill="#2C2C48" d="M67 37h1v1h-1z"/><path fill="#002" d="M68 37h1v1h-1zM69 37h1v1h-1zM70 37h1v1h-1zM71 37h1v1h-1zM6 38h1v1H6zM7 38h1v1H7zM8 38h1v1H8zM9 38h1v1H9z"/><path fill="#0F0F2F" d="M10 38h1v1h-1z"/><path fill="#B0B1BA" d="M11 38h1v1h-1z"/><path fill="#EBECEC" d="M12 38h1v1h-1zM13 38h1v1h-1zM14 38h1v1h-1zM15 38h1v1h-1z"/><path fill="#F0F1F1" d="M16 38h1v1h-1z"/><path fill="#F8F8F8" d="M17 38h1v1h-1z"/><path fill="#FEFEFE" d="M18 38h1v1h-1z"/><path fill="#FFF" d="M19 38h1v1h-1zM20 38h1v1h-1z"/><path fill="#F9E6F0" d="M21 38h1v1h-1z"/><path fill="#E89CC1" d="M22 38h1v1h-1zM23 38h1v1h-1zM24 38h1v1h-1z"/><path fill="#F9E6F0" d="M25 38h1v1h-1z"/><path fill="#FFF" d="M26 38h1v1h-1zM27 38h1v1h-1z"/><path fill="#F9E6F0" d="M28 38h1v1h-1z"/><path fill="#E89CC1" d="M29 38h1v1h-1zM30 38h1v1h-1zM31 38h1v1h-1z"/><path fill="#FFF" d="M32 38h1v1h-1zM33 38h1v1h-1z"/><path fill="#D7D7D7" d="M34 38h1v1h-1z"/><path fill="#B0B0B5" d="M35 38h1v1h-1z"/><path fill="#717181" d="M36 38h1v1h-1z"/><path fill="#D2D2D5" d="M37 38h1v1h-1z"/><path fill="#EBECEC" d="M38 38h1v1h-1zM39 38h1v1h-1zM40 38h1v1h-1z"/><path fill="#F3F3F3" d="M41 38h1v1h-1z"/><path fill="#FFF" d="M42 38h1v1h-1zM43 38h1v1h-1zM44 38h1v1h-1z"/><path fill="#FEFEFE" d="M45 38h1v1h-1z"/><path fill="#EFF0F0" d="M46 38h1v1h-1z"/><path fill="#EBECEC" d="M47 38h1v1h-1zM48 38h1v1h-1zM49 38h1v1h-1zM50 38h1v1h-1zM51 38h1v1h-1zM52 38h1v1h-1z"/><path fill="#DEDFDF" d="M53 38h1v1h-1z"/><path fill="#C9C9CA" d="M54 38h1v1h-1zM55 38h1v1h-1zM56 38h1v1h-1zM57 38h1v1h-1zM58 38h1v1h-1zM59 38h1v1h-1zM60 38h1v1h-1zM61 38h1v1h-1z"/><path fill="#DEDFDF" d="M62 38h1v1h-1z"/><path fill="#EBECEC" d="M63 38h1v1h-1zM64 38h1v1h-1z"/><path fill="#DCDDDF" d="M65 38h1v1h-1z"/><path fill="#2C2C48" d="M66 38h1v1h-1z"/><path fill="#002" d="M67 38h1v1h-1zM68 38h1v1h-1zM69 38h1v1h-1zM70 38h1v1h-1zM5 39h1v1H5zM6 39h1v1H6zM7 39h1v1H7zM8 39h1v1H8z"/><path fill="#2C2C48" d="M9 39h1v1H9z"/><path fill="#DCDDDF" d="M10 39h1v1h-1z"/><path fill="#EBECEC" d="M11 39h1v1h-1zM12 39h1v1h-1zM13 39h1v1h-1z"/><path fill="#F3F3F3" d="M14 39h1v1h-1z"/><path fill="#FDFDFD" d="M15 39h1v1h-1z"/><path fill="#FFF" d="M16 39h1v1h-1zM17 39h1v1h-1zM18 39h1v1h-1zM19 39h1v1h-1zM20 39h1v1h-1z"/><path fill="#F9E6F0" d="M21 39h1v1h-1z"/><path fill="#E89CC1" d="M22 39h1v1h-1zM23 39h1v1h-1zM24 39h1v1h-1z"/><path fill="#F9E6F0" d="M25 39h1v1h-1z"/><path fill="#FFF" d="M26 39h1v1h-1zM27 39h1v1h-1z"/><path fill="#F9E6F0" d="M28 39h1v1h-1z"/><path fill="#E89CC1" d="M29 39h1v1h-1zM30 39h1v1h-1zM31 39h1v1h-1z"/><path fill="#FFF" d="M32 39h1v1h-1zM33 39h1v1h-1z"/><path fill="#D7D7D7" d="M34 39h1v1h-1z"/><path fill="#C9C9CA" d="M35 39h1v1h-1zM36 39h1v1h-1z"/><path fill="#E3E3E4" d="M37 39h1v1h-1z"/><path fill="#EBECEC" d="M38 39h1v1h-1zM39 39h1v1h-1z"/><path fill="#F3F3F3" d="M40 39h1v1h-1z"/><path fill="#FFF" d="M41 39h1v1h-1zM42 39h1v1h-1zM43 39h1v1h-1z"/><path fill="#FEFEFE" d="M44 39h1v1h-1z"/><path fill="#EFF0F0" d="M45 39h1v1h-1z"/><path fill="#EBECEC" d="M46 39h1v1h-1zM47 39h1v1h-1zM48 39h1v1h-1zM49 39h1v1h-1zM50 39h1v1h-1zM51 39h1v1h-1z"/><path fill="#DEDFDF" d="M52 39h1v1h-1z"/><path fill="#C9C9CA" d="M53 39h1v1h-1zM54 39h1v1h-1zM55 39h1v1h-1zM56 39h1v1h-1zM57 39h1v1h-1zM58 39h1v1h-1zM59 39h1v1h-1zM60 39h1v1h-1z"/><path fill="#DEDFDF" d="M61 39h1v1h-1z"/><path fill="#EBECEC" d="M62 39h1v1h-1zM63 39h1v1h-1z"/><path fill="#DCDDDF" d="M64 39h1v1h-1z"/><path fill="#2C2C48" d="M65 39h1v1h-1z"/><path fill="#002" d="M66 39h1v1h-1zM67 39h1v1h-1zM68 39h1v1h-1zM69 39h1v1h-1zM4 40h1v1H4zM5 40h1v1H5zM6 40h1v1H6zM7 40h1v1H7z"/><path fill="#2C2C48" d="M8 40h1v1H8z"/><path fill="#DCDDDF" d="M9 40h1v1H9z"/><path fill="#EBECEC" d="M10 40h1v1h-1zM11 40h1v1h-1z"/><path fill="#EFF0F0" d="M12 40h1v1h-1z"/><path fill="#FAFAFA" d="M13 40h1v1h-1z"/><path fill="#FFF" d="M14 40h1v1h-1zM15 40h1v1h-1zM16 40h1v1h-1zM17 40h1v1h-1zM18 40h1v1h-1zM19 40h1v1h-1zM20 40h1v1h-1z"/><path fill="#F9E6F0" d="M21 40h1v1h-1z"/><path fill="#E89CC1" d="M22 40h1v1h-1zM23 40h1v1h-1zM24 40h1v1h-1z"/><path fill="#F9E6F0" d="M25 40h1v1h-1z"/><path fill="#FFF" d="M26 40h1v1h-1zM27 40h1v1h-1z"/><path fill="#FEF9FB" d="M28 40h1v1h-1z"/><path fill="#E89CC1" d="M29 40h1v1h-1zM30 40h1v1h-1zM31 40h1v1h-1z"/><path fill="#F9E6F0" d="M32 40h1v1h-1z"/><path fill="#FFF" d="M33 40h1v1h-1z"/><path fill="#DADADB" d="M34 40h1v1h-1z"/><path fill="#C9C9CA" d="M35 40h1v1h-1zM36 40h1v1h-1z"/><path fill="#DCDDDD" d="M37 40h1v1h-1z"/><path fill="#EBECEC" d="M38 40h1v1h-1z"/><path fill="#F3F3F3" d="M39 40h1v1h-1z"/><path fill="#FFF" d="M40 40h1v1h-1zM41 40h1v1h-1zM42 40h1v1h-1z"/><path fill="#FEFEFE" d="M43 40h1v1h-1z"/><path fill="#EFF0F0" d="M44 40h1v1h-1z"/><path fill="#EBECEC" d="M45 40h1v1h-1zM46 40h1v1h-1zM47 40h1v1h-1zM48 40h1v1h-1zM49 40h1v1h-1zM50 40h1v1h-1z"/><path fill="#DEDFDF" d="M51 40h1v1h-1z"/><path fill="#C9C9CA" d="M52 40h1v1h-1zM53 40h1v1h-1zM54 40h1v1h-1zM55 40h1v1h-1zM56 40h1v1h-1zM57 40h1v1h-1zM58 40h1v1h-1zM59 40h1v1h-1z"/><path fill="#DEDFDF" d="M60 40h1v1h-1z"/><path fill="#EBECEC" d="M61 40h1v1h-1zM62 40h1v1h-1z"/><path fill="#DCDDDF" d="M63 40h1v1h-1z"/><path fill="#2C2C48" d="M64 40h1v1h-1z"/><path fill="#002" d="M65 40h1v1h-1zM66 40h1v1h-1zM67 40h1v1h-1zM68 40h1v1h-1zM3 41h1v1H3zM4 41h1v1H4zM5 41h1v1H5zM6 41h1v1H6z"/><path fill="#2C2C48" d="M7 41h1v1H7z"/><path fill="#DCDDDF" d="M8 41h1v1H8z"/><path fill="#EBECEC" d="M9 41h1v1H9zM10 41h1v1h-1z"/><path fill="#F4F4F4" d="M11 41h1v1h-1z"/><path fill="#FFF" d="M12 41h1v1h-1zM13 41h1v1h-1zM14 41h1v1h-1zM15 41h1v1h-1zM16 41h1v1h-1zM17 41h1v1h-1zM18 41h1v1h-1zM19 41h1v1h-1zM20 41h1v1h-1z"/><path fill="#FAE9F2" d="M21 41h1v1h-1z"/><path fill="#E89CC1" d="M22 41h1v1h-1zM23 41h1v1h-1zM24 41h1v1h-1z"/><path fill="#F9E6F0" d="M25 41h1v1h-1z"/><path fill="#FFF" d="M26 41h1v1h-1zM27 41h1v1h-1zM28 41h1v1h-1z"/><path fill="#E89CC1" d="M29 41h1v1h-1zM30 41h1v1h-1zM31 41h1v1h-1z"/><path fill="#F2CEE0" d="M32 41h1v1h-1z"/><path fill="#FAFAFA" d="M33 41h1v1h-1z"/><path fill="#E4E4E4" d="M34 41h1v1h-1z"/><path fill="#C9C9CA" d="M35 41h1v1h-1zM36 41h1v1h-1z"/><path fill="#D4D4D5" d="M37 41h1v1h-1z"/><path fill="#F3F3F3" d="M38 41h1v1h-1z"/><path fill="#FFF" d="M39 41h1v1h-1zM40 41h1v1h-1zM41 41h1v1h-1z"/><path fill="#FEFEFE" d="M42 41h1v1h-1z"/><path fill="#EFF0F0" d="M43 41h1v1h-1z"/><path fill="#EBECEC" d="M44 41h1v1h-1zM45 41h1v1h-1zM46 41h1v1h-1zM47 41h1v1h-1zM48 41h1v1h-1zM49 41h1v1h-1z"/><path fill="#DEDFDF" d="M50 41h1v1h-1z"/><path fill="#C9C9CA" d="M51 41h1v1h-1zM52 41h1v1h-1zM53 41h1v1h-1zM54 41h1v1h-1zM55 41h1v1h-1zM56 41h1v1h-1zM57 41h1v1h-1zM58 41h1v1h-1z"/><path fill="#DEDFDF" d="M59 41h1v1h-1z"/><path fill="#EBECEC" d="M60 41h1v1h-1zM61 41h1v1h-1z"/><path fill="#DCDDDF" d="M62 41h1v1h-1z"/><path fill="#2C2C48" d="M63 41h1v1h-1z"/><path fill="#002" d="M64 41h1v1h-1zM65 41h1v1h-1zM66 41h1v1h-1zM67 41h1v1h-1zM3 42h1v1H3zM4 42h1v1H4zM5 42h1v1H5z"/><path fill="#0F0F2F" d="M6 42h1v1H6z"/><path fill="#CECFD3" d="M7 42h1v1H7z"/><path fill="#EBECEC" d="M8 42h1v1H8zM9 42h1v1H9z"/><path fill="#F8F8F8" d="M10 42h1v1h-1z"/><path fill="#FFF" d="M11 42h1v1h-1zM12 42h1v1h-1zM13 42h1v1h-1zM14 42h1v1h-1zM15 42h1v1h-1zM16 42h1v1h-1zM17 42h1v1h-1zM18 42h1v1h-1zM19 42h1v1h-1zM20 42h1v1h-1zM21 42h1v1h-1z"/><path fill="#E89CC1" d="M22 42h1v1h-1zM23 42h1v1h-1zM24 42h1v1h-1z"/><path fill="#F5D4E4" d="M25 42h1v1h-1z"/><path fill="#FEFEFE" d="M26 42h1v1h-1z"/><path fill="#F9F9F9" d="M27 42h1v1h-1z"/><path fill="#F4F4F4" d="M28 42h1v1h-1z"/><path fill="#E286B6" d="M29 42h1v1h-1z"/><path fill="#DA549B" d="M30 42h1v1h-1z"/><path fill="#D94F98" d="M31 42h1v1h-1z"/><path fill="#E194BD" d="M32 42h1v1h-1z"/><path fill="#EBECEC" d="M33 42h1v1h-1z"/><path fill="#E5E5E6" d="M34 42h1v1h-1z"/><path fill="#C9C9CA" d="M35 42h1v1h-1zM36 42h1v1h-1zM37 42h1v1h-1z"/><path fill="#F8F8F8" d="M38 42h1v1h-1z"/><path fill="#FFF" d="M39 42h1v1h-1zM40 42h1v1h-1z"/><path fill="#FEFEFE" d="M41 42h1v1h-1z"/><path fill="#EFF0F0" d="M42 42h1v1h-1z"/><path fill="#EBECEC" d="M43 42h1v1h-1zM44 42h1v1h-1zM45 42h1v1h-1zM46 42h1v1h-1zM47 42h1v1h-1zM48 42h1v1h-1z"/><path fill="#DEDFDF" d="M49 42h1v1h-1z"/><path fill="#C9C9CA" d="M50 42h1v1h-1zM51 42h1v1h-1zM52 42h1v1h-1zM53 42h1v1h-1zM54 42h1v1h-1zM55 42h1v1h-1zM56 42h1v1h-1zM57 42h1v1h-1z"/><path fill="#DEDFDF" d="M58 42h1v1h-1z"/><path fill="#EBECEC" d="M59 42h1v1h-1zM60 42h1v1h-1z"/><path fill="#DCDDDF" d="M61 42h1v1h-1z"/><path fill="#2C2C48" d="M62 42h1v1h-1z"/><path fill="#002" d="M63 42h1v1h-1zM64 42h1v1h-1zM65 42h1v1h-1zM66 42h1v1h-1zM2 43h1v1H2zM3 43h1v1H3zM4 43h1v1H4zM5 43h1v1H5z"/><path fill="#848594" d="M6 43h1v1H6z"/><path fill="#EBECEC" d="M7 43h1v1H7zM8 43h1v1H8z"/><path fill="#F8F8F8" d="M9 43h1v1H9z"/><path fill="#FFF" d="M10 43h1v1h-1zM11 43h1v1h-1zM12 43h1v1h-1zM13 43h1v1h-1zM14 43h1v1h-1zM15 43h1v1h-1zM16 43h1v1h-1zM17 43h1v1h-1zM18 43h1v1h-1zM19 43h1v1h-1zM20 43h1v1h-1zM21 43h1v1h-1z"/><path fill="#ECAFCD" d="M22 43h1v1h-1z"/><path fill="#E89CC1" d="M23 43h1v1h-1z"/><path fill="#E489B7" d="M24 43h1v1h-1z"/><path fill="#E7A9C9" d="M25 43h1v1h-1z"/><path fill="#EBECEC" d="M26 43h1v1h-1zM27 43h1v1h-1zM28 43h1v1h-1z"/><path fill="#E194BD" d="M29 43h1v1h-1z"/><path fill="#D94F98" d="M30 43h1v1h-1zM31 43h1v1h-1z"/><path fill="#DB63A3" d="M32 43h1v1h-1z"/><path fill="#EBECEC" d="M33 43h1v1h-1zM34 43h1v1h-1z"/><path fill="#CFD0D0" d="M35 43h1v1h-1z"/><path fill="#C9C9CA" d="M36 43h1v1h-1zM37 43h1v1h-1z"/><path fill="#DDDDDE" d="M38 43h1v1h-1z"/><path fill="#FFF" d="M39 43h1v1h-1z"/><path fill="#FEFEFE" d="M40 43h1v1h-1z"/><path fill="#EFF0F0" d="M41 43h1v1h-1z"/><path fill="#EBECEC" d="M42 43h1v1h-1zM43 43h1v1h-1zM44 43h1v1h-1zM45 43h1v1h-1zM46 43h1v1h-1zM47 43h1v1h-1z"/><path fill="#DEDFDF" d="M48 43h1v1h-1z"/><path fill="#C9C9CA" d="M49 43h1v1h-1zM50 43h1v1h-1zM51 43h1v1h-1zM52 43h1v1h-1zM53 43h1v1h-1zM54 43h1v1h-1zM55 43h1v1h-1zM56 43h1v1h-1z"/><path fill="#DEDFDF" d="M57 43h1v1h-1z"/><path fill="#EBECEC" d="M58 43h1v1h-1zM59 43h1v1h-1z"/><path fill="#DCDDDF" d="M60 43h1v1h-1z"/><path fill="#2C2C48" d="M61 43h1v1h-1z"/><path fill="#002" d="M62 43h1v1h-1zM63 43h1v1h-1zM64 43h1v1h-1zM65 43h1v1h-1zM2 44h1v1H2zM3 44h1v1H3zM4 44h1v1H4z"/><path fill="#3B3B55" d="M5 44h1v1H5z"/><path fill="#EBECEC" d="M6 44h1v1H6zM7 44h1v1H7z"/><path fill="#F4F4F4" d="M8 44h1v1H8z"/><path fill="#FFF" d="M9 44h1v1H9zM10 44h1v1h-1zM11 44h1v1h-1zM12 44h1v1h-1zM13 44h1v1h-1zM14 44h1v1h-1zM15 44h1v1h-1zM16 44h1v1h-1zM17 44h1v1h-1zM18 44h1v1h-1zM19 44h1v1h-1zM20 44h1v1h-1z"/><path fill="#FEFEFE" d="M21 44h1v1h-1z"/><path fill="#E9AACA" d="M22 44h1v1h-1z"/><path fill="#DB599D" d="M23 44h1v1h-1z"/><path fill="#D94F98" d="M24 44h1v1h-1z"/><path fill="#DC6CA8" d="M25 44h1v1h-1z"/><path fill="#EBECEC" d="M26 44h1v1h-1zM27 44h1v1h-1zM28 44h1v1h-1z"/><path fill="#E5BBD2" d="M29 44h1v1h-1z"/><path fill="#D94F98" d="M30 44h1v1h-1zM31 44h1v1h-1zM32 44h1v1h-1z"/><path fill="#E8CFDC" d="M33 44h1v1h-1z"/><path fill="#EBECEC" d="M34 44h1v1h-1z"/><path fill="#DEDFDF" d="M35 44h1v1h-1z"/><path fill="#C9C9CA" d="M36 44h1v1h-1zM37 44h1v1h-1zM38 44h1v1h-1z"/><path fill="#F0F0F1" d="M39 44h1v1h-1z"/><path fill="#EFF0F0" d="M40 44h1v1h-1z"/><path fill="#EBECEC" d="M41 44h1v1h-1zM42 44h1v1h-1zM43 44h1v1h-1zM44 44h1v1h-1zM45 44h1v1h-1zM46 44h1v1h-1z"/><path fill="#DEDFDF" d="M47 44h1v1h-1z"/><path fill="#C9C9CA" d="M48 44h1v1h-1zM49 44h1v1h-1zM50 44h1v1h-1zM51 44h1v1h-1zM52 44h1v1h-1zM53 44h1v1h-1zM54 44h1v1h-1zM55 44h1v1h-1z"/><path fill="#DEDFDF" d="M56 44h1v1h-1z"/><path fill="#EBECEC" d="M57 44h1v1h-1zM58 44h1v1h-1z"/><path fill="#DCDDDF" d="M59 44h1v1h-1z"/><path fill="#2C2C48" d="M60 44h1v1h-1z"/><path fill="#002" d="M61 44h1v1h-1zM62 44h1v1h-1zM63 44h1v1h-1zM64 44h1v1h-1zM1 45h1v1H1zM2 45h1v1H2zM3 45h1v1H3zM4 45h1v1H4z"/><path fill="#B0B1BA" d="M5 45h1v1H5z"/><path fill="#EBECEC" d="M6 45h1v1H6z"/><path fill="#EEE" d="M7 45h1v1H7z"/><path fill="#FFF" d="M8 45h1v1H8zM9 45h1v1H9zM10 45h1v1h-1zM11 45h1v1h-1zM12 45h1v1h-1zM13 45h1v1h-1zM14 45h1v1h-1zM15 45h1v1h-1zM16 45h1v1h-1zM17 45h1v1h-1zM18 45h1v1h-1zM19 45h1v1h-1z"/><path fill="#F6F7F7" d="M20 45h1v1h-1z"/><path fill="#ECEDED" d="M21 45h1v1h-1z"/><path fill="#E4B1CD" d="M22 45h1v1h-1z"/><path fill="#D94F98" d="M23 45h1v1h-1zM24 45h1v1h-1zM25 45h1v1h-1z"/><path fill="#E9D8E2" d="M26 45h1v1h-1z"/><path fill="#EBECEC" d="M27 45h1v1h-1zM28 45h1v1h-1zM29 45h1v1h-1z"/><path fill="#DA599D" d="M30 45h1v1h-1z"/><path fill="#D94F98" d="M31 45h1v1h-1zM32 45h1v1h-1z"/><path fill="#E08AB8" d="M33 45h1v1h-1z"/><path fill="#EBECEC" d="M34 45h1v1h-1zM35 45h1v1h-1z"/><path fill="#D2D2D3" d="M36 45h1v1h-1z"/><path fill="#C9C9CA" d="M37 45h1v1h-1zM38 45h1v1h-1z"/><path fill="#CDCDCE" d="M39 45h1v1h-1z"/><path fill="#E9EAEA" d="M40 45h1v1h-1z"/><path fill="#EBECEC" d="M41 45h1v1h-1zM42 45h1v1h-1zM43 45h1v1h-1zM44 45h1v1h-1zM45 45h1v1h-1z"/><path fill="#DEDFDF" d="M46 45h1v1h-1z"/><path fill="#C9C9CA" d="M47 45h1v1h-1zM48 45h1v1h-1zM49 45h1v1h-1zM50 45h1v1h-1zM51 45h1v1h-1zM52 45h1v1h-1zM53 45h1v1h-1zM54 45h1v1h-1z"/><path fill="#DEDFDF" d="M55 45h1v1h-1z"/><path fill="#EBECEC" d="M56 45h1v1h-1zM57 45h1v1h-1z"/><path fill="#DCDDDF" d="M58 45h1v1h-1z"/><path fill="#2C2C48" d="M59 45h1v1h-1z"/><path fill="#002" d="M60 45h1v1h-1zM61 45h1v1h-1zM62 45h1v1h-1zM63 45h1v1h-1zM1 46h1v1H1zM2 46h1v1H2zM3 46h1v1H3z"/><path fill="#1D1E3B" d="M4 46h1v1H4z"/><path fill="#EBECEC" d="M5 46h1v1H5zM6 46h1v1H6z"/><path fill="#FAFAFA" d="M7 46h1v1H7z"/><path fill="#FFF" d="M8 46h1v1H8zM9 46h1v1H9zM10 46h1v1h-1zM11 46h1v1h-1zM12 46h1v1h-1zM13 46h1v1h-1zM14 46h1v1h-1zM15 46h1v1h-1zM16 46h1v1h-1zM17 46h1v1h-1z"/><path fill="#FAFAFA" d="M18 46h1v1h-1z"/><path fill="#EFF0F0" d="M19 46h1v1h-1z"/><path fill="#EBECEC" d="M20 46h1v1h-1zM21 46h1v1h-1z"/><path fill="#E9D8E2" d="M22 46h1v1h-1z"/><path fill="#D94F98" d="M23 46h1v1h-1zM24 46h1v1h-1zM25 46h1v1h-1z"/><path fill="#E3A7C7" d="M26 46h1v1h-1z"/><path fill="#EBECEC" d="M27 46h1v1h-1zM28 46h1v1h-1zM29 46h1v1h-1z"/><path fill="#E29EC2" d="M30 46h1v1h-1z"/><path fill="#D94F98" d="M31 46h1v1h-1zM32 46h1v1h-1zM33 46h1v1h-1z"/><path fill="#E9D8E2" d="M34 46h1v1h-1z"/><path fill="#EBECEC" d="M35 46h1v1h-1z"/><path fill="#E5E5E6" d="M36 46h1v1h-1z"/><path fill="#C9C9CA" d="M37 46h1v1h-1zM38 46h1v1h-1zM39 46h1v1h-1z"/><path fill="#D6D6D7" d="M40 46h1v1h-1z"/><path fill="#EBECEC" d="M41 46h1v1h-1zM42 46h1v1h-1zM43 46h1v1h-1zM44 46h1v1h-1z"/><path fill="#DEDFDF" d="M45 46h1v1h-1z"/><path fill="#C9C9CA" d="M46 46h1v1h-1zM47 46h1v1h-1zM48 46h1v1h-1zM49 46h1v1h-1zM50 46h1v1h-1zM51 46h1v1h-1zM52 46h1v1h-1zM53 46h1v1h-1z"/><path fill="#DEDFDF" d="M54 46h1v1h-1z"/><path fill="#EBECEC" d="M55 46h1v1h-1zM56 46h1v1h-1z"/><path fill="#DCDDDF" d="M57 46h1v1h-1z"/><path fill="#2C2C48" d="M58 46h1v1h-1z"/><path fill="#002" d="M59 46h1v1h-1zM60 46h1v1h-1zM61 46h1v1h-1zM62 46h1v1h-1zM1 47h1v1H1zM2 47h1v1H2zM3 47h1v1H3z"/><path fill="#848594" d="M4 47h1v1H4z"/><path fill="#EBECEC" d="M5 47h1v1H5z"/><path fill="#F0F1F1" d="M6 47h1v1H6z"/><path fill="#FFF" d="M7 47h1v1H7zM8 47h1v1H8zM9 47h1v1H9zM10 47h1v1h-1zM11 47h1v1h-1zM12 47h1v1h-1zM13 47h1v1h-1zM14 47h1v1h-1zM15 47h1v1h-1zM16 47h1v1h-1z"/><path fill="#F5F6F6" d="M17 47h1v1h-1z"/><path fill="#EBECEC" d="M18 47h1v1h-1zM19 47h1v1h-1zM20 47h1v1h-1zM21 47h1v1h-1zM22 47h1v1h-1z"/><path fill="#DC6CA8" d="M23 47h1v1h-1z"/><path fill="#D94F98" d="M24 47h1v1h-1zM25 47h1v1h-1z"/><path fill="#DB63A3" d="M26 47h1v1h-1z"/><path fill="#EBECEC" d="M27 47h1v1h-1zM28 47h1v1h-1zM29 47h1v1h-1z"/><path fill="#E9D8E2" d="M30 47h1v1h-1z"/><path fill="#D94F98" d="M31 47h1v1h-1zM32 47h1v1h-1zM33 47h1v1h-1z"/><path fill="#DF80B2" d="M34 47h1v1h-1z"/><path fill="#EBECEC" d="M35 47h1v1h-1zM36 47h1v1h-1z"/><path fill="#DADBDB" d="M37 47h1v1h-1z"/><path fill="#C9C9CA" d="M38 47h1v1h-1zM39 47h1v1h-1zM40 47h1v1h-1z"/><path fill="#D6D6D7" d="M41 47h1v1h-1z"/><path fill="#EBECEC" d="M42 47h1v1h-1zM43 47h1v1h-1z"/><path fill="#DEDFDF" d="M44 47h1v1h-1z"/><path fill="#C9C9CA" d="M45 47h1v1h-1zM46 47h1v1h-1zM47 47h1v1h-1zM48 47h1v1h-1zM49 47h1v1h-1zM50 47h1v1h-1zM51 47h1v1h-1zM52 47h1v1h-1z"/><path fill="#DEDFDF" d="M53 47h1v1h-1z"/><path fill="#EBECEC" d="M54 47h1v1h-1zM55 47h1v1h-1z"/><path fill="#DCDDDF" d="M56 47h1v1h-1z"/><path fill="#2C2C48" d="M57 47h1v1h-1z"/><path fill="#002" d="M58 47h1v1h-1zM59 47h1v1h-1zM60 47h1v1h-1zM61 47h1v1h-1zM1 48h1v1H1zM2 48h1v1H2zM3 48h1v1H3z"/><path fill="#BFC0C6" d="M4 48h1v1H4z"/><path fill="#EBECEC" d="M5 48h1v1H5z"/><path fill="#F9F9F9" d="M6 48h1v1H6z"/><path fill="#FFF" d="M7 48h1v1H7zM8 48h1v1H8zM9 48h1v1H9zM10 48h1v1h-1zM11 48h1v1h-1zM12 48h1v1h-1zM13 48h1v1h-1zM14 48h1v1h-1z"/><path fill="#FEFEFE" d="M15 48h1v1h-1z"/><path fill="#F0F1F1" d="M16 48h1v1h-1z"/><path fill="#EBECEC" d="M17 48h1v1h-1zM18 48h1v1h-1zM19 48h1v1h-1zM20 48h1v1h-1zM21 48h1v1h-1zM22 48h1v1h-1z"/><path fill="#E4B1CD" d="M23 48h1v1h-1z"/><path fill="#D94F98" d="M24 48h1v1h-1zM25 48h1v1h-1zM26 48h1v1h-1z"/><path fill="#E7C5D7" d="M27 48h1v1h-1z"/><path fill="#EBECEC" d="M28 48h1v1h-1zM29 48h1v1h-1zM30 48h1v1h-1z"/><path fill="#E194BD" d="M31 48h1v1h-1z"/><path fill="#D94F98" d="M32 48h1v1h-1zM33 48h1v1h-1zM34 48h1v1h-1z"/><path fill="#E5BBD2" d="M35 48h1v1h-1z"/><path fill="#EBECEC" d="M36 48h1v1h-1zM37 48h1v1h-1z"/><path fill="#D6D6D7" d="M38 48h1v1h-1z"/><path fill="#C9C9CA" d="M39 48h1v1h-1zM40 48h1v1h-1zM41 48h1v1h-1z"/><path fill="#D6D6D7" d="M42 48h1v1h-1z"/><path fill="#DEDFDF" d="M43 48h1v1h-1z"/><path fill="#C9C9CA" d="M44 48h1v1h-1zM45 48h1v1h-1zM46 48h1v1h-1zM47 48h1v1h-1zM48 48h1v1h-1zM49 48h1v1h-1zM50 48h1v1h-1zM51 48h1v1h-1z"/><path fill="#DEDFDF" d="M52 48h1v1h-1z"/><path fill="#EBECEC" d="M53 48h1v1h-1zM54 48h1v1h-1z"/><path fill="#DCDDDF" d="M55 48h1v1h-1z"/><path fill="#2C2C48" d="M56 48h1v1h-1z"/><path fill="#002" d="M57 48h1v1h-1zM58 48h1v1h-1zM59 48h1v1h-1zM60 48h1v1h-1zM0 49h1v1H0zM1 49h1v1H1zM2 49h1v1H2z"/><path fill="#0F0F2F" d="M3 49h1v1H3z"/><path fill="#EBECEC" d="M4 49h1v1H4z"/><path fill="#ECEDED" d="M5 49h1v1H5z"/><path fill="#FFF" d="M6 49h1v1H6zM7 49h1v1H7zM8 49h1v1H8zM9 49h1v1H9zM10 49h1v1h-1zM11 49h1v1h-1zM12 49h1v1h-1zM13 49h1v1h-1z"/><path fill="#FBFBFB" d="M14 49h1v1h-1z"/><path fill="#EFF0F0" d="M15 49h1v1h-1z"/><path fill="#EBECEC" d="M16 49h1v1h-1zM17 49h1v1h-1zM18 49h1v1h-1zM19 49h1v1h-1zM20 49h1v1h-1zM21 49h1v1h-1zM22 49h1v1h-1z"/><path fill="#EAE2E7" d="M23 49h1v1h-1z"/><path fill="#DA599D" d="M24 49h1v1h-1z"/><path fill="#D94F98" d="M25 49h1v1h-1zM26 49h1v1h-1z"/><path fill="#DE76AD" d="M27 49h1v1h-1z"/><path fill="#EBECEC" d="M28 49h1v1h-1zM29 49h1v1h-1zM30 49h1v1h-1z"/><path fill="#EAE2E7" d="M31 49h1v1h-1z"/><path fill="#DA599D" d="M32 49h1v1h-1z"/><path fill="#D94F98" d="M33 49h1v1h-1zM34 49h1v1h-1z"/><path fill="#DA599D" d="M35 49h1v1h-1z"/><path fill="#EAE2E7" d="M36 49h1v1h-1z"/><path fill="#EBECEC" d="M37 49h1v1h-1z"/><path fill="#E9EAEA" d="M38 49h1v1h-1z"/><path fill="#CFD0D0" d="M39 49h1v1h-1z"/><path fill="#C9C9CA" d="M40 49h1v1h-1zM41 49h1v1h-1zM42 49h1v1h-1zM43 49h1v1h-1zM44 49h1v1h-1zM45 49h1v1h-1zM46 49h1v1h-1zM47 49h1v1h-1zM48 49h1v1h-1zM49 49h1v1h-1zM50 49h1v1h-1z"/><path fill="#DEDFDF" d="M51 49h1v1h-1z"/><path fill="#EBECEC" d="M52 49h1v1h-1zM53 49h1v1h-1z"/><path fill="#DCDDDF" d="M54 49h1v1h-1z"/><path fill="#2C2C48" d="M55 49h1v1h-1z"/><path fill="#002" d="M56 49h1v1h-1zM57 49h1v1h-1zM58 49h1v1h-1zM59 49h1v1h-1zM0 50h1v1H0zM1 50h1v1H1zM2 50h1v1H2z"/><path fill="#3B3B55" d="M3 50h1v1H3z"/><path fill="#EBECEC" d="M4 50h1v1H4z"/><path fill="#F1F2F2" d="M5 50h1v1H5z"/><path fill="#FFF" d="M6 50h1v1H6zM7 50h1v1H7zM8 50h1v1H8zM9 50h1v1H9zM10 50h1v1h-1zM11 50h1v1h-1zM12 50h1v1h-1z"/><path fill="#FBFBFB" d="M13 50h1v1h-1z"/><path fill="#ECEDED" d="M14 50h1v1h-1z"/><path fill="#EBECEC" d="M15 50h1v1h-1zM16 50h1v1h-1zM17 50h1v1h-1zM18 50h1v1h-1zM19 50h1v1h-1zM20 50h1v1h-1zM21 50h1v1h-1zM22 50h1v1h-1zM23 50h1v1h-1z"/><path fill="#E29EC2" d="M24 50h1v1h-1z"/><path fill="#D94F98" d="M25 50h1v1h-1zM26 50h1v1h-1zM27 50h1v1h-1z"/><path fill="#E5BBD2" d="M28 50h1v1h-1z"/><path fill="#EBECEC" d="M29 50h1v1h-1zM30 50h1v1h-1zM31 50h1v1h-1z"/><path fill="#E5BBD2" d="M32 50h1v1h-1z"/><path fill="#D94F98" d="M33 50h1v1h-1zM34 50h1v1h-1zM35 50h1v1h-1z"/><path fill="#DC6CA8" d="M36 50h1v1h-1z"/><path fill="#EAE2E7" d="M37 50h1v1h-1z"/><path fill="#EBECEC" d="M38 50h1v1h-1z"/><path fill="#E9EAEA" d="M39 50h1v1h-1z"/><path fill="#CFD0D0" d="M40 50h1v1h-1z"/><path fill="#C9C9CA" d="M41 50h1v1h-1zM42 50h1v1h-1zM43 50h1v1h-1zM44 50h1v1h-1zM45 50h1v1h-1zM46 50h1v1h-1zM47 50h1v1h-1zM48 50h1v1h-1zM49 50h1v1h-1z"/><path fill="#DEDFDF" d="M50 50h1v1h-1z"/><path fill="#EBECEC" d="M51 50h1v1h-1zM52 50h1v1h-1z"/><path fill="#DCDDDF" d="M53 50h1v1h-1z"/><path fill="#2C2C48" d="M54 50h1v1h-1z"/><path fill="#002" d="M55 50h1v1h-1zM56 50h1v1h-1zM57 50h1v1h-1zM58 50h1v1h-1zM0 51h1v1H0zM1 51h1v1H1zM2 51h1v1H2z"/><path fill="#767687" d="M3 51h1v1H3z"/><path fill="#EBECEC" d="M4 51h1v1H4z"/><path fill="#F6F7F7" d="M5 51h1v1H5z"/><path fill="#FFF" d="M6 51h1v1H6zM7 51h1v1H7zM8 51h1v1H8zM9 51h1v1H9zM10 51h1v1h-1zM11 51h1v1h-1z"/><path fill="#FEFEFE" d="M12 51h1v1h-1z"/><path fill="#EFF0F0" d="M13 51h1v1h-1z"/><path fill="#EBECEC" d="M14 51h1v1h-1zM15 51h1v1h-1zM16 51h1v1h-1zM17 51h1v1h-1zM18 51h1v1h-1zM19 51h1v1h-1zM20 51h1v1h-1zM21 51h1v1h-1zM22 51h1v1h-1zM23 51h1v1h-1z"/><path fill="#EAE2E7" d="M24 51h1v1h-1z"/><path fill="#DA599D" d="M25 51h1v1h-1z"/><path fill="#D94F98" d="M26 51h1v1h-1zM27 51h1v1h-1z"/><path fill="#DB63A3" d="M28 51h1v1h-1z"/><path fill="#EAE2E7" d="M29 51h1v1h-1z"/><path fill="#EBECEC" d="M30 51h1v1h-1zM31 51h1v1h-1zM32 51h1v1h-1z"/><path fill="#E08AB8" d="M33 51h1v1h-1z"/><path fill="#D94F98" d="M34 51h1v1h-1zM35 51h1v1h-1zM36 51h1v1h-1z"/><path fill="#E08AB8" d="M37 51h1v1h-1z"/><path fill="#EBECEC" d="M38 51h1v1h-1zM39 51h1v1h-1z"/><path fill="#E9EAEA" d="M40 51h1v1h-1z"/><path fill="#D6D6D7" d="M41 51h1v1h-1z"/><path fill="#C9C9CA" d="M42 51h1v1h-1zM43 51h1v1h-1zM44 51h1v1h-1zM45 51h1v1h-1zM46 51h1v1h-1zM47 51h1v1h-1zM48 51h1v1h-1z"/><path fill="#DEDFDF" d="M49 51h1v1h-1z"/><path fill="#EBECEC" d="M50 51h1v1h-1zM51 51h1v1h-1z"/><path fill="#DCDDDF" d="M52 51h1v1h-1z"/><path fill="#2C2C48" d="M53 51h1v1h-1z"/><path fill="#002" d="M54 51h1v1h-1zM55 51h1v1h-1zM56 51h1v1h-1zM57 51h1v1h-1zM0 52h1v1H0zM1 52h1v1H1zM2 52h1v1H2z"/><path fill="#767687" d="M3 52h1v1H3z"/><path fill="#EBECEC" d="M4 52h1v1H4z"/><path fill="#FAFAFA" d="M5 52h1v1H5z"/><path fill="#FFF" d="M6 52h1v1H6zM7 52h1v1H7zM8 52h1v1H8zM9 52h1v1H9z"/><path fill="#F2F2F2" d="M10 52h1v1h-1z"/><path fill="#EBEBEB" d="M11 52h1v1h-1z"/><path fill="#DEDEDF" d="M12 52h1v1h-1z"/><path fill="#DADBDB" d="M13 52h1v1h-1z"/><path fill="#DEDFDF" d="M14 52h1v1h-1z"/><path fill="#E3E3E4" d="M15 52h1v1h-1z"/><path fill="#EBECEC" d="M16 52h1v1h-1zM17 52h1v1h-1zM18 52h1v1h-1zM19 52h1v1h-1zM20 52h1v1h-1zM21 52h1v1h-1zM22 52h1v1h-1zM23 52h1v1h-1zM24 52h1v1h-1z"/><path fill="#E29EC2" d="M25 52h1v1h-1z"/><path fill="#D94F98" d="M26 52h1v1h-1zM27 52h1v1h-1zM28 52h1v1h-1z"/><path fill="#E194BD" d="M29 52h1v1h-1z"/><path fill="#EBECEC" d="M30 52h1v1h-1zM31 52h1v1h-1zM32 52h1v1h-1z"/><path fill="#EAE2E7" d="M33 52h1v1h-1z"/><path fill="#DC6CA8" d="M34 52h1v1h-1z"/><path fill="#D94F98" d="M35 52h1v1h-1zM36 52h1v1h-1zM37 52h1v1h-1z"/><path fill="#E08AB8" d="M38 52h1v1h-1z"/><path fill="#EAE2E7" d="M39 52h1v1h-1z"/><path fill="#EBECEC" d="M40 52h1v1h-1zM41 52h1v1h-1z"/><path fill="#DADBDB" d="M42 52h1v1h-1z"/><path fill="#C9C9CA" d="M43 52h1v1h-1zM44 52h1v1h-1zM45 52h1v1h-1zM46 52h1v1h-1zM47 52h1v1h-1z"/><path fill="#CDCDCE" d="M48 52h1v1h-1z"/><path fill="#DCDDDD" d="M49 52h1v1h-1z"/><path fill="#E3E3E4" d="M50 52h1v1h-1z"/><path fill="#D2D2D5" d="M51 52h1v1h-1z"/><path fill="#2C2C48" d="M52 52h1v1h-1z"/><path fill="#002" d="M53 52h1v1h-1zM54 52h1v1h-1zM55 52h1v1h-1zM56 52h1v1h-1zM57 52h1v1h-1zM0 53h1v1H0zM1 53h1v1H1zM2 53h1v1H2z"/><path fill="#767687" d="M3 53h1v1H3z"/><path fill="#EBECEC" d="M4 53h1v1H4z"/><path fill="#FDFDFD" d="M5 53h1v1H5z"/><path fill="#FFF" d="M6 53h1v1H6z"/><path fill="#FCFCFC" d="M7 53h1v1H7z"/><path fill="#DDDDDE" d="M8 53h1v1H8z"/><path fill="#CCCCCD" d="M9 53h1v1H9z"/><path fill="#C9C9CA" d="M10 53h1v1h-1zM11 53h1v1h-1zM12 53h1v1h-1zM13 53h1v1h-1zM14 53h1v1h-1zM15 53h1v1h-1zM16 53h1v1h-1z"/><path fill="#D2D2D3" d="M17 53h1v1h-1z"/><path fill="#DCDDDD" d="M18 53h1v1h-1z"/><path fill="#E9EAEA" d="M19 53h1v1h-1z"/><path fill="#EBECEC" d="M20 53h1v1h-1zM21 53h1v1h-1zM22 53h1v1h-1zM23 53h1v1h-1zM24 53h1v1h-1zM25 53h1v1h-1z"/><path fill="#DB63A3" d="M26 53h1v1h-1z"/><path fill="#D94F98" d="M27 53h1v1h-1zM28 53h1v1h-1zM29 53h1v1h-1z"/><path fill="#E5BBD2" d="M30 53h1v1h-1z"/><path fill="#EBECEC" d="M31 53h1v1h-1zM32 53h1v1h-1zM33 53h1v1h-1z"/><path fill="#EAE2E7" d="M34 53h1v1h-1z"/><path fill="#DA599D" d="M35 53h1v1h-1z"/><path fill="#D94F98" d="M36 53h1v1h-1zM37 53h1v1h-1zM38 53h1v1h-1z"/><path fill="#DC6CA8" d="M39 53h1v1h-1z"/><path fill="#EAE2E7" d="M40 53h1v1h-1z"/><path fill="#EBECEC" d="M41 53h1v1h-1zM42 53h1v1h-1z"/><path fill="#E5E5E6" d="M43 53h1v1h-1z"/><path fill="#D2D2D3" d="M44 53h1v1h-1z"/><path fill="#C9C9CA" d="M45 53h1v1h-1zM46 53h1v1h-1zM47 53h1v1h-1zM48 53h1v1h-1zM49 53h1v1h-1zM50 53h1v1h-1z"/><path fill="#9797A0" d="M51 53h1v1h-1z"/><path fill="#002" d="M52 53h1v1h-1zM53 53h1v1h-1zM54 53h1v1h-1zM55 53h1v1h-1zM56 53h1v1h-1zM57 53h1v1h-1zM58 53h1v1h-1zM0 54h1v1H0zM1 54h1v1H1zM2 54h1v1H2z"/><path fill="#767687" d="M3 54h1v1H3z"/><path fill="#EBECEC" d="M4 54h1v1H4z"/><path fill="#FFF" d="M5 54h1v1H5z"/><path fill="#EEE" d="M6 54h1v1H6z"/><path fill="#CCCCCD" d="M7 54h1v1H7z"/><path fill="#C9C9CA" d="M8 54h1v1H8zM9 54h1v1H9zM10 54h1v1h-1zM11 54h1v1h-1zM12 54h1v1h-1zM13 54h1v1h-1zM14 54h1v1h-1zM15 54h1v1h-1zM16 54h1v1h-1zM17 54h1v1h-1zM18 54h1v1h-1zM19 54h1v1h-1z"/><path fill="#D6D6D7" d="M20 54h1v1h-1z"/><path fill="#E7E8E8" d="M21 54h1v1h-1z"/><path fill="#EBECEC" d="M22 54h1v1h-1zM23 54h1v1h-1zM24 54h1v1h-1zM25 54h1v1h-1z"/><path fill="#E7C5D7" d="M26 54h1v1h-1z"/><path fill="#D94F98" d="M27 54h1v1h-1zM28 54h1v1h-1zM29 54h1v1h-1z"/><path fill="#DA599D" d="M30 54h1v1h-1z"/><path fill="#E8CFDC" d="M31 54h1v1h-1z"/><path fill="#EBECEC" d="M32 54h1v1h-1zM33 54h1v1h-1zM34 54h1v1h-1z"/><path fill="#E8CFDC" d="M35 54h1v1h-1z"/><path fill="#DA599D" d="M36 54h1v1h-1z"/><path fill="#D94F98" d="M37 54h1v1h-1zM38 54h1v1h-1zM39 54h1v1h-1z"/><path fill="#DA599D" d="M40 54h1v1h-1z"/><path fill="#E5BBD2" d="M41 54h1v1h-1z"/><path fill="#EBECEC" d="M42 54h1v1h-1zM43 54h1v1h-1zM44 54h1v1h-1z"/><path fill="#DEDFDF" d="M45 54h1v1h-1z"/><path fill="#CFD0D0" d="M46 54h1v1h-1z"/><path fill="#C9C9CA" d="M47 54h1v1h-1zM48 54h1v1h-1zM49 54h1v1h-1zM50 54h1v1h-1z"/><path fill="#B0B0B5" d="M51 54h1v1h-1z"/><path fill="#0D0D2D" d="M52 54h1v1h-1z"/><path fill="#002" d="M53 54h1v1h-1z"/><path fill="#9394A0" d="M54 54h1v1h-1z"/><path fill="#3B3B55" d="M55 54h1v1h-1z"/><path fill="#002" d="M56 54h1v1h-1zM57 54h1v1h-1zM58 54h1v1h-1zM0 55h1v1H0zM1 55h1v1H1zM2 55h1v1H2z"/><path fill="#767687" d="M3 55h1v1H3z"/><path fill="#EBECEC" d="M4 55h1v1H4z"/><path fill="#EEE" d="M5 55h1v1H5z"/><path fill="#C9C9CA" d="M6 55h1v1H6zM7 55h1v1H7zM8 55h1v1H8zM9 55h1v1H9z"/><path fill="#CBCBCC" d="M10 55h1v1h-1z"/><path fill="#D3D2D2" d="M11 55h1v1h-1z"/><path fill="#D9D7D6" d="M12 55h1v1h-1zM13 55h1v1h-1z"/><path fill="#D1D0D0" d="M14 55h1v1h-1z"/><path fill="#CDCDCD" d="M15 55h1v1h-1z"/><path fill="#C9C9CA" d="M16 55h1v1h-1zM17 55h1v1h-1zM18 55h1v1h-1zM19 55h1v1h-1zM20 55h1v1h-1zM21 55h1v1h-1z"/><path fill="#D6D6D7" d="M22 55h1v1h-1z"/><path fill="#E9EAEA" d="M23 55h1v1h-1z"/><path fill="#EBECEC" d="M24 55h1v1h-1zM25 55h1v1h-1zM26 55h1v1h-1z"/><path fill="#E29EC2" d="M27 55h1v1h-1z"/><path fill="#D94F98" d="M28 55h1v1h-1zM29 55h1v1h-1zM30 55h1v1h-1z"/><path fill="#DC6CA8" d="M31 55h1v1h-1z"/><path fill="#EAE2E7" d="M32 55h1v1h-1z"/><path fill="#EBECEC" d="M33 55h1v1h-1zM34 55h1v1h-1zM35 55h1v1h-1z"/><path fill="#EAE2E7" d="M36 55h1v1h-1z"/><path fill="#DC6CA8" d="M37 55h1v1h-1z"/><path fill="#D94F98" d="M38 55h1v1h-1zM39 55h1v1h-1zM40 55h1v1h-1zM41 55h1v1h-1z"/><path fill="#DF80B2" d="M42 55h1v1h-1z"/><path fill="#E9D8E2" d="M43 55h1v1h-1z"/><path fill="#EBECEC" d="M44 55h1v1h-1zM45 55h1v1h-1zM46 55h1v1h-1z"/><path fill="#E5E5E6" d="M47 55h1v1h-1z"/><path fill="#CFD0D0" d="M48 55h1v1h-1z"/><path fill="#C9C9CA" d="M49 55h1v1h-1zM50 55h1v1h-1zM51 55h1v1h-1z"/><path fill="#CBCBCC" d="M52 55h1v1h-1z"/><path fill="#E7E8E8" d="M53 55h1v1h-1z"/><path fill="#EBECEC" d="M54 55h1v1h-1z"/><path fill="#767687" d="M55 55h1v1h-1z"/><path fill="#002" d="M56 55h1v1h-1zM57 55h1v1h-1zM58 55h1v1h-1zM0 56h1v1H0zM1 56h1v1H1zM2 56h1v1H2z"/><path fill="#767687" d="M3 56h1v1H3z"/><path fill="#E9EAEA" d="M4 56h1v1H4z"/><path fill="#CCCCCD" d="M5 56h1v1H5z"/><path fill="#C9C9CA" d="M6 56h1v1H6zM7 56h1v1H7z"/><path fill="#CBCBCC" d="M8 56h1v1H8z"/><path fill="#DDDBD9" d="M9 56h1v1H9z"/><path fill="#E9E5E2" d="M10 56h1v1h-1zM11 56h1v1h-1zM12 56h1v1h-1zM13 56h1v1h-1zM14 56h1v1h-1zM15 56h1v1h-1z"/><path fill="#E5E2DF" d="M16 56h1v1h-1z"/><path fill="#DBD9D8" d="M17 56h1v1h-1z"/><path fill="#CDCDCD" d="M18 56h1v1h-1z"/><path fill="#C9C9CA" d="M19 56h1v1h-1zM20 56h1v1h-1zM21 56h1v1h-1zM22 56h1v1h-1z"/><path fill="#CBCBCC" d="M23 56h1v1h-1z"/><path fill="#DCDDDD" d="M24 56h1v1h-1z"/><path fill="#EBECEC" d="M25 56h1v1h-1zM26 56h1v1h-1zM27 56h1v1h-1z"/><path fill="#DE76AD" d="M28 56h1v1h-1z"/><path fill="#D94F98" d="M29 56h1v1h-1zM30 56h1v1h-1zM31 56h1v1h-1z"/><path fill="#DC6CA8" d="M32 56h1v1h-1z"/><path fill="#EAE2E7" d="M33 56h1v1h-1z"/><path fill="#EBECEC" d="M34 56h1v1h-1zM35 56h1v1h-1zM36 56h1v1h-1z"/><path fill="#EAE2E7" d="M37 56h1v1h-1z"/><path fill="#E08AB8" d="M38 56h1v1h-1z"/><path fill="#D94F98" d="M39 56h1v1h-1zM40 56h1v1h-1zM41 56h1v1h-1zM42 56h1v1h-1zM43 56h1v1h-1z"/><path fill="#E08AB8" d="M44 56h1v1h-1z"/><path fill="#E7C5D7" d="M45 56h1v1h-1z"/><path fill="#EBECEC" d="M46 56h1v1h-1zM47 56h1v1h-1z"/><path fill="#D2D2D3" d="M48 56h1v1h-1z"/><path fill="#C9C9CA" d="M49 56h1v1h-1zM50 56h1v1h-1zM51 56h1v1h-1zM52 56h1v1h-1z"/><path fill="#EBECEC" d="M53 56h1v1h-1zM54 56h1v1h-1z"/><path fill="#A2A2AD" d="M55 56h1v1h-1z"/><path fill="#002" d="M56 56h1v1h-1zM57 56h1v1h-1zM58 56h1v1h-1zM0 57h1v1H0zM1 57h1v1H1zM2 57h1v1H2z"/><path fill="#67677A" d="M3 57h1v1H3z"/><path fill="#DADBDB" d="M4 57h1v1H4z"/><path fill="#C9C9CA" d="M5 57h1v1H5zM6 57h1v1H6z"/><path fill="#CBCBCC" d="M7 57h1v1H7z"/><path fill="#E3E0DE" d="M8 57h1v1H8z"/><path fill="#E9E5E2" d="M9 57h1v1H9zM10 57h1v1h-1zM11 57h1v1h-1zM12 57h1v1h-1zM13 57h1v1h-1zM14 57h1v1h-1zM15 57h1v1h-1zM16 57h1v1h-1zM17 57h1v1h-1zM18 57h1v1h-1z"/><path fill="#E1DEDC" d="M19 57h1v1h-1z"/><path fill="#D1D0D0" d="M20 57h1v1h-1z"/><path fill="#C9C9CA" d="M21 57h1v1h-1zM22 57h1v1h-1zM23 57h1v1h-1zM24 57h1v1h-1z"/><path fill="#D4D4D5" d="M25 57h1v1h-1z"/><path fill="#E9EAEA" d="M26 57h1v1h-1z"/><path fill="#EBECEC" d="M27 57h1v1h-1z"/><path fill="#EAE2E7" d="M28 57h1v1h-1z"/><path fill="#DC6CA8" d="M29 57h1v1h-1z"/><path fill="#D94F98" d="M30 57h1v1h-1zM31 57h1v1h-1zM32 57h1v1h-1z"/><path fill="#DC6CA8" d="M33 57h1v1h-1z"/><path fill="#EAE2E7" d="M34 57h1v1h-1z"/><path fill="#EBECEC" d="M35 57h1v1h-1zM36 57h1v1h-1zM37 57h1v1h-1zM38 57h1v1h-1z"/><path fill="#E5BBD2" d="M39 57h1v1h-1z"/><path fill="#DA599D" d="M40 57h1v1h-1z"/><path fill="#D94F98" d="M41 57h1v1h-1zM42 57h1v1h-1zM43 57h1v1h-1zM44 57h1v1h-1zM45 57h1v1h-1z"/><path fill="#DB63A3" d="M46 57h1v1h-1z"/><path fill="#E08AB8" d="M47 57h1v1h-1z"/><path fill="#CF97B9" d="M48 57h1v1h-1z"/><path fill="#C9A2BB" d="M49 57h1v1h-1z"/><path fill="#C9BFC6" d="M50 57h1v1h-1z"/><path fill="#C9C9CA" d="M51 57h1v1h-1z"/><path fill="#C9BFC6" d="M52 57h1v1h-1z"/><path fill="#E1BED2" d="M53 57h1v1h-1z"/><path fill="#E4B1CD" d="M54 57h1v1h-1z"/><path fill="#C476A4" d="M55 57h1v1h-1z"/><path fill="#002" d="M56 57h1v1h-1zM57 57h1v1h-1zM58 57h1v1h-1zM0 58h1v1H0zM1 58h1v1H1zM2 58h1v1H2z"/><path fill="#3B3B55" d="M3 58h1v1H3z"/><path fill="#CDCDCE" d="M4 58h1v1H4z"/><path fill="#C9C9CA" d="M5 58h1v1H5zM6 58h1v1H6z"/><path fill="#DBD9D8" d="M7 58h1v1H7z"/><path fill="#E9E5E2" d="M8 58h1v1H8zM9 58h1v1H9zM10 58h1v1h-1zM11 58h1v1h-1zM12 58h1v1h-1zM13 58h1v1h-1zM14 58h1v1h-1zM15 58h1v1h-1zM16 58h1v1h-1zM17 58h1v1h-1zM18 58h1v1h-1zM19 58h1v1h-1zM20 58h1v1h-1z"/><path fill="#DDDBD9" d="M21 58h1v1h-1z"/><path fill="#CBCBCC" d="M22 58h1v1h-1z"/><path fill="#C9C9CA" d="M23 58h1v1h-1zM24 58h1v1h-1zM25 58h1v1h-1z"/><path fill="#CFD0D0" d="M26 58h1v1h-1z"/><path fill="#E5E5E6" d="M27 58h1v1h-1z"/><path fill="#EBECEC" d="M28 58h1v1h-1z"/><path fill="#E9D8E2" d="M29 58h1v1h-1z"/><path fill="#DA599D" d="M30 58h1v1h-1z"/><path fill="#D94F98" d="M31 58h1v1h-1zM32 58h1v1h-1zM33 58h1v1h-1z"/><path fill="#DC6CA8" d="M34 58h1v1h-1z"/><path fill="#E8CFDC" d="M35 58h1v1h-1z"/><path fill="#EBECEC" d="M36 58h1v1h-1zM37 58h1v1h-1zM38 58h1v1h-1zM39 58h1v1h-1z"/><path fill="#EAE2E7" d="M40 58h1v1h-1z"/><path fill="#E29EC2" d="M41 58h1v1h-1z"/><path fill="#D94F98" d="M42 58h1v1h-1zM43 58h1v1h-1zM44 58h1v1h-1zM45 58h1v1h-1zM46 58h1v1h-1zM47 58h1v1h-1z"/><path fill="#C92F8D" d="M48 58h1v1h-1z"/><path fill="#C82D8C" d="M49 58h1v1h-1zM50 58h1v1h-1zM51 58h1v1h-1zM52 58h1v1h-1z"/><path fill="#D54795" d="M53 58h1v1h-1z"/><path fill="#D94F98" d="M54 58h1v1h-1zM55 58h1v1h-1z"/><path fill="#002" d="M56 58h1v1h-1zM57 58h1v1h-1zM58 58h1v1h-1zM0 59h1v1H0zM1 59h1v1H1zM2 59h1v1H2z"/><path fill="#0F0F2F" d="M3 59h1v1H3z"/><path fill="#C9C9CA" d="M4 59h1v1H4zM5 59h1v1H5zM6 59h1v1H6z"/><path fill="#E7E3E1" d="M7 59h1v1H7z"/><path fill="#E9E5E2" d="M8 59h1v1H8zM9 59h1v1H9zM10 59h1v1h-1zM11 59h1v1h-1zM12 59h1v1h-1zM13 59h1v1h-1zM14 59h1v1h-1zM15 59h1v1h-1zM16 59h1v1h-1zM17 59h1v1h-1zM18 59h1v1h-1zM19 59h1v1h-1zM20 59h1v1h-1zM21 59h1v1h-1z"/><path fill="#E7E3E1" d="M22 59h1v1h-1z"/><path fill="#D3D2D2" d="M23 59h1v1h-1z"/><path fill="#C9C9CA" d="M24 59h1v1h-1zM25 59h1v1h-1zM26 59h1v1h-1z"/><path fill="#CBCBCC" d="M27 59h1v1h-1z"/><path fill="#E5E5E6" d="M28 59h1v1h-1z"/><path fill="#EBECEC" d="M29 59h1v1h-1z"/><path fill="#E8CFDC" d="M30 59h1v1h-1z"/><path fill="#DA599D" d="M31 59h1v1h-1z"/><path fill="#D94F98" d="M32 59h1v1h-1zM33 59h1v1h-1zM34 59h1v1h-1z"/><path fill="#DA599D" d="M35 59h1v1h-1z"/><path fill="#E5BBD2" d="M36 59h1v1h-1z"/><path fill="#EBECEC" d="M37 59h1v1h-1zM38 59h1v1h-1zM39 59h1v1h-1zM40 59h1v1h-1zM41 59h1v1h-1z"/><path fill="#EAE2E7" d="M42 59h1v1h-1z"/><path fill="#E29EC2" d="M43 59h1v1h-1z"/><path fill="#DB63A3" d="M44 59h1v1h-1z"/><path fill="#D94F98" d="M45 59h1v1h-1zM46 59h1v1h-1zM47 59h1v1h-1z"/><path fill="#C82D8C" d="M48 59h1v1h-1zM49 59h1v1h-1zM50 59h1v1h-1zM51 59h1v1h-1zM52 59h1v1h-1z"/><path fill="#D54795" d="M53 59h1v1h-1z"/><path fill="#D94F98" d="M54 59h1v1h-1zM55 59h1v1h-1z"/><path fill="#1B0A31" d="M56 59h1v1h-1z"/><path fill="#002" d="M57 59h1v1h-1zM58 59h1v1h-1zM59 59h1v1h-1zM1 60h1v1H1zM2 60h1v1H2zM3 60h1v1H3z"/><path fill="#A3A3AB" d="M4 60h1v1H4z"/><path fill="#C9C9CA" d="M5 60h1v1H5z"/><path fill="#D1D0D0" d="M6 60h1v1H6z"/><path fill="#E9E5E2" d="M7 60h1v1H7zM8 60h1v1H8zM9 60h1v1H9zM10 60h1v1h-1zM11 60h1v1h-1zM12 60h1v1h-1zM13 60h1v1h-1zM14 60h1v1h-1zM15 60h1v1h-1zM16 60h1v1h-1zM17 60h1v1h-1zM18 60h1v1h-1zM19 60h1v1h-1zM20 60h1v1h-1zM21 60h1v1h-1zM22 60h1v1h-1zM23 60h1v1h-1z"/><path fill="#DBD9D8" d="M24 60h1v1h-1z"/><path fill="#C9C9CA" d="M25 60h1v1h-1zM26 60h1v1h-1zM27 60h1v1h-1z"/><path fill="#CBCBCC" d="M28 60h1v1h-1z"/><path fill="#E5E5E6" d="M29 60h1v1h-1z"/><path fill="#EBECEC" d="M30 60h1v1h-1z"/><path fill="#E9D8E2" d="M31 60h1v1h-1z"/><path fill="#DC6CA8" d="M32 60h1v1h-1z"/><path fill="#D94F98" d="M33 60h1v1h-1zM34 60h1v1h-1zM35 60h1v1h-1zM36 60h1v1h-1z"/><path fill="#E194BD" d="M37 60h1v1h-1z"/><path fill="#EAE2E7" d="M38 60h1v1h-1z"/><path fill="#EBECEC" d="M39 60h1v1h-1zM40 60h1v1h-1zM41 60h1v1h-1zM42 60h1v1h-1zM43 60h1v1h-1zM44 60h1v1h-1z"/><path fill="#E7C5D7" d="M45 60h1v1h-1z"/><path fill="#E194BD" d="M46 60h1v1h-1z"/><path fill="#D86EA9" d="M47 60h1v1h-1z"/><path fill="#C92F8D" d="M48 60h1v1h-1z"/><path fill="#C82D8C" d="M49 60h1v1h-1zM50 60h1v1h-1zM51 60h1v1h-1zM52 60h1v1h-1z"/><path fill="#D24093" d="M53 60h1v1h-1z"/><path fill="#D94F98" d="M54 60h1v1h-1z"/><path fill="#DE76AD" d="M55 60h1v1h-1z"/><path fill="#39274A" d="M56 60h1v1h-1z"/><path fill="#002" d="M57 60h1v1h-1zM58 60h1v1h-1zM59 60h1v1h-1zM1 61h1v1H1zM2 61h1v1H2zM3 61h1v1H3z"/><path fill="#717181" d="M4 61h1v1H4z"/><path fill="#C9C9CA" d="M5 61h1v1H5z"/><path fill="#D1D0D0" d="M6 61h1v1H6z"/><path fill="#E9E5E2" d="M7 61h1v1H7zM8 61h1v1H8zM9 61h1v1H9zM10 61h1v1h-1zM11 61h1v1h-1zM12 61h1v1h-1zM13 61h1v1h-1zM14 61h1v1h-1zM15 61h1v1h-1zM16 61h1v1h-1zM17 61h1v1h-1zM18 61h1v1h-1zM19 61h1v1h-1zM20 61h1v1h-1zM21 61h1v1h-1zM22 61h1v1h-1zM23 61h1v1h-1zM24 61h1v1h-1z"/><path fill="#DFDCDB" d="M25 61h1v1h-1z"/><path fill="#CBCBCC" d="M26 61h1v1h-1z"/><path fill="#C9C9CA" d="M27 61h1v1h-1zM28 61h1v1h-1z"/><path fill="#CBCBCC" d="M29 61h1v1h-1z"/><path fill="#E5E5E6" d="M30 61h1v1h-1z"/><path fill="#EBECEC" d="M31 61h1v1h-1z"/><path fill="#EAE2E7" d="M32 61h1v1h-1z"/><path fill="#DE76AD" d="M33 61h1v1h-1z"/><path fill="#D94F98" d="M34 61h1v1h-1zM35 61h1v1h-1zM36 61h1v1h-1zM37 61h1v1h-1z"/><path fill="#DB63A3" d="M38 61h1v1h-1z"/><path fill="#E5BBD2" d="M39 61h1v1h-1z"/><path fill="#EBECEC" d="M40 61h1v1h-1zM41 61h1v1h-1zM42 61h1v1h-1zM43 61h1v1h-1zM44 61h1v1h-1zM45 61h1v1h-1zM46 61h1v1h-1z"/><path fill="#DCDDDD" d="M47 61h1v1h-1z"/><path fill="#C9C9CA" d="M48 61h1v1h-1zM49 61h1v1h-1z"/><path fill="#CAA4BB" d="M50 61h1v1h-1z"/><path fill="#C9A2BB" d="M51 61h1v1h-1zM52 61h1v1h-1z"/><path fill="#DBD3D8" d="M53 61h1v1h-1z"/><path fill="#EBECEC" d="M54 61h1v1h-1zM55 61h1v1h-1z"/><path fill="#3B3B55" d="M56 61h1v1h-1z"/><path fill="#002" d="M57 61h1v1h-1zM58 61h1v1h-1zM59 61h1v1h-1zM1 62h1v1H1zM2 62h1v1H2zM3 62h1v1H3z"/><path fill="#3F3F57" d="M4 62h1v1H4z"/><path fill="#C9C9CA" d="M5 62h1v1H5z"/><path fill="#D1D0D0" d="M6 62h1v1H6z"/><path fill="#E9E5E2" d="M7 62h1v1H7zM8 62h1v1H8zM9 62h1v1H9zM10 62h1v1h-1zM11 62h1v1h-1zM12 62h1v1h-1zM13 62h1v1h-1zM14 62h1v1h-1zM15 62h1v1h-1zM16 62h1v1h-1zM17 62h1v1h-1zM18 62h1v1h-1zM19 62h1v1h-1zM20 62h1v1h-1zM21 62h1v1h-1zM22 62h1v1h-1zM23 62h1v1h-1zM24 62h1v1h-1zM25 62h1v1h-1z"/><path fill="#E3E0DE" d="M26 62h1v1h-1z"/><path fill="#CBCBCC" d="M27 62h1v1h-1z"/><path fill="#C9C9CA" d="M28 62h1v1h-1zM29 62h1v1h-1z"/><path fill="#CBCBCC" d="M30 62h1v1h-1z"/><path fill="#E5E5E6" d="M31 62h1v1h-1z"/><path fill="#EBECEC" d="M32 62h1v1h-1zM33 62h1v1h-1z"/><path fill="#E29EC2" d="M34 62h1v1h-1z"/><path fill="#D94F98" d="M35 62h1v1h-1zM36 62h1v1h-1zM37 62h1v1h-1zM38 62h1v1h-1zM39 62h1v1h-1z"/><path fill="#DE76AD" d="M40 62h1v1h-1z"/><path fill="#E7C5D7" d="M41 62h1v1h-1z"/><path fill="#EBECEC" d="M42 62h1v1h-1zM43 62h1v1h-1zM44 62h1v1h-1zM45 62h1v1h-1zM46 62h1v1h-1z"/><path fill="#D4D4D5" d="M47 62h1v1h-1z"/><path fill="#C9C9CA" d="M48 62h1v1h-1zM49 62h1v1h-1zM50 62h1v1h-1zM51 62h1v1h-1zM52 62h1v1h-1z"/><path fill="#DADBDB" d="M53 62h1v1h-1z"/><path fill="#EBECEC" d="M54 62h1v1h-1zM55 62h1v1h-1z"/><path fill="#3B3B55" d="M56 62h1v1h-1z"/><path fill="#002" d="M57 62h1v1h-1zM58 62h1v1h-1zM59 62h1v1h-1zM1 63h1v1H1zM2 63h1v1H2zM3 63h1v1H3zM4 63h1v1H4z"/><path fill="#BCBCC0" d="M5 63h1v1H5z"/><path fill="#CFCECF" d="M6 63h1v1H6z"/><path fill="#E9E5E2" d="M7 63h1v1H7zM8 63h1v1H8zM9 63h1v1H9zM10 63h1v1h-1zM11 63h1v1h-1zM12 63h1v1h-1zM13 63h1v1h-1zM14 63h1v1h-1zM15 63h1v1h-1zM16 63h1v1h-1zM17 63h1v1h-1zM18 63h1v1h-1zM19 63h1v1h-1zM20 63h1v1h-1zM21 63h1v1h-1zM22 63h1v1h-1zM23 63h1v1h-1zM24 63h1v1h-1zM25 63h1v1h-1zM26 63h1v1h-1z"/><path fill="#E3E0DE" d="M27 63h1v1h-1z"/><path fill="#CBCBCC" d="M28 63h1v1h-1z"/><path fill="#C9C9CA" d="M29 63h1v1h-1zM30 63h1v1h-1z"/><path fill="#CFD0D0" d="M31 63h1v1h-1z"/><path fill="#E9EAEA" d="M32 63h1v1h-1z"/><path fill="#EBECEC" d="M33 63h1v1h-1zM34 63h1v1h-1z"/><path fill="#E7C5D7" d="M35 63h1v1h-1z"/><path fill="#DB63A3" d="M36 63h1v1h-1z"/><path fill="#D94F98" d="M37 63h1v1h-1zM38 63h1v1h-1zM39 63h1v1h-1zM40 63h1v1h-1zM41 63h1v1h-1z"/><path fill="#DB63A3" d="M42 63h1v1h-1z"/><path fill="#E3A7C7" d="M43 63h1v1h-1z"/><path fill="#E9D8E2" d="M44 63h1v1h-1z"/><path fill="#EBECEC" d="M45 63h1v1h-1zM46 63h1v1h-1z"/><path fill="#CBCBCC" d="M47 63h1v1h-1z"/><path fill="#C9C9CA" d="M48 63h1v1h-1zM49 63h1v1h-1zM50 63h1v1h-1zM51 63h1v1h-1zM52 63h1v1h-1z"/><path fill="#E0E1E1" d="M53 63h1v1h-1z"/><path fill="#EBECEC" d="M54 63h1v1h-1z"/><path fill="#EAE2E7" d="M55 63h1v1h-1z"/><path fill="#3A314F" d="M56 63h1v1h-1z"/><path fill="#002" d="M57 63h1v1h-1zM58 63h1v1h-1zM59 63h1v1h-1zM2 64h1v1H2zM3 64h1v1H3zM4 64h1v1H4z"/><path fill="#717181" d="M5 64h1v1H5z"/><path fill="#C9C9CA" d="M6 64h1v1H6z"/><path fill="#E9E5E2" d="M7 64h1v1H7zM8 64h1v1H8zM9 64h1v1H9zM10 64h1v1h-1zM11 64h1v1h-1zM12 64h1v1h-1zM13 64h1v1h-1zM14 64h1v1h-1zM15 64h1v1h-1zM16 64h1v1h-1zM17 64h1v1h-1zM18 64h1v1h-1zM19 64h1v1h-1zM20 64h1v1h-1zM21 64h1v1h-1zM22 64h1v1h-1zM23 64h1v1h-1zM24 64h1v1h-1zM25 64h1v1h-1zM26 64h1v1h-1zM27 64h1v1h-1z"/><path fill="#DFDCDB" d="M28 64h1v1h-1z"/><path fill="#C9C9CA" d="M29 64h1v1h-1zM30 64h1v1h-1zM31 64h1v1h-1z"/><path fill="#D4D4D5" d="M32 64h1v1h-1z"/><path fill="#EBECEC" d="M33 64h1v1h-1zM34 64h1v1h-1zM35 64h1v1h-1zM36 64h1v1h-1z"/><path fill="#E29EC2" d="M37 64h1v1h-1z"/><path fill="#DA599D" d="M38 64h1v1h-1z"/><path fill="#D94F98" d="M39 64h1v1h-1zM40 64h1v1h-1zM41 64h1v1h-1zM42 64h1v1h-1zM43 64h1v1h-1zM44 64h1v1h-1z"/><path fill="#DC6CA8" d="M45 64h1v1h-1z"/><path fill="#D989B6" d="M46 64h1v1h-1z"/><path fill="#C98FB3" d="M47 64h1v1h-1z"/><path fill="#C9A2BB" d="M48 64h1v1h-1zM49 64h1v1h-1z"/><path fill="#C9ACBE" d="M50 64h1v1h-1z"/><path fill="#C9A2BB" d="M51 64h1v1h-1zM52 64h1v1h-1z"/><path fill="#DD97BD" d="M53 64h1v1h-1z"/><path fill="#DF80B2" d="M54 64h1v1h-1z"/><path fill="#D94F98" d="M55 64h1v1h-1z"/><path fill="#361440" d="M56 64h1v1h-1z"/><path fill="#002" d="M57 64h1v1h-1zM58 64h1v1h-1zM59 64h1v1h-1zM2 65h1v1H2zM3 65h1v1H3zM4 65h1v1H4z"/><path fill="#191937" d="M5 65h1v1H5z"/><path fill="#C9C9CA" d="M6 65h1v1H6z"/><path fill="#DFDCDB" d="M7 65h1v1H7z"/><path fill="#E9E5E2" d="M8 65h1v1H8zM9 65h1v1H9zM10 65h1v1h-1zM11 65h1v1h-1zM12 65h1v1h-1zM13 65h1v1h-1zM14 65h1v1h-1zM15 65h1v1h-1zM16 65h1v1h-1zM17 65h1v1h-1zM18 65h1v1h-1zM19 65h1v1h-1zM20 65h1v1h-1zM21 65h1v1h-1zM22 65h1v1h-1zM23 65h1v1h-1zM24 65h1v1h-1zM25 65h1v1h-1zM26 65h1v1h-1zM27 65h1v1h-1zM28 65h1v1h-1z"/><path fill="#DBD9D8" d="M29 65h1v1h-1z"/><path fill="#C9C9CA" d="M30 65h1v1h-1zM31 65h1v1h-1zM32 65h1v1h-1z"/><path fill="#DCDDDD" d="M33 65h1v1h-1z"/><path fill="#EBECEC" d="M34 65h1v1h-1zM35 65h1v1h-1zM36 65h1v1h-1zM37 65h1v1h-1z"/><path fill="#EAE2E7" d="M38 65h1v1h-1z"/><path fill="#E29EC2" d="M39 65h1v1h-1z"/><path fill="#DA599D" d="M40 65h1v1h-1z"/><path fill="#D94F98" d="M41 65h1v1h-1zM42 65h1v1h-1zM43 65h1v1h-1zM44 65h1v1h-1zM45 65h1v1h-1z"/><path fill="#CD3890" d="M46 65h1v1h-1z"/><path fill="#C82D8C" d="M47 65h1v1h-1zM48 65h1v1h-1zM49 65h1v1h-1zM50 65h1v1h-1zM51 65h1v1h-1zM52 65h1v1h-1z"/><path fill="#D54795" d="M53 65h1v1h-1z"/><path fill="#D94F98" d="M54 65h1v1h-1zM55 65h1v1h-1z"/><path fill="#290F38" d="M56 65h1v1h-1z"/><path fill="#002" d="M57 65h1v1h-1zM58 65h1v1h-1zM59 65h1v1h-1zM2 66h1v1H2zM3 66h1v1H3zM4 66h1v1H4zM5 66h1v1H5z"/><path fill="#9797A0" d="M6 66h1v1H6z"/><path fill="#D5D4D3" d="M7 66h1v1H7z"/><path fill="#E9E5E2" d="M8 66h1v1H8zM9 66h1v1H9zM10 66h1v1h-1zM11 66h1v1h-1zM12 66h1v1h-1zM13 66h1v1h-1zM14 66h1v1h-1zM15 66h1v1h-1zM16 66h1v1h-1zM17 66h1v1h-1zM18 66h1v1h-1zM19 66h1v1h-1zM20 66h1v1h-1zM21 66h1v1h-1zM22 66h1v1h-1zM23 66h1v1h-1zM24 66h1v1h-1zM25 66h1v1h-1zM26 66h1v1h-1zM27 66h1v1h-1zM28 66h1v1h-1zM29 66h1v1h-1z"/><path fill="#D3D2D2" d="M30 66h1v1h-1z"/><path fill="#C9C9CA" d="M31 66h1v1h-1zM32 66h1v1h-1z"/><path fill="#CBCBCC" d="M33 66h1v1h-1z"/><path fill="#E9EAEA" d="M34 66h1v1h-1z"/><path fill="#EBECEC" d="M35 66h1v1h-1zM36 66h1v1h-1zM37 66h1v1h-1zM38 66h1v1h-1zM39 66h1v1h-1z"/><path fill="#EAE2E7" d="M40 66h1v1h-1z"/><path fill="#E4B1CD" d="M41 66h1v1h-1z"/><path fill="#DC6CA8" d="M42 66h1v1h-1z"/><path fill="#D94F98" d="M43 66h1v1h-1zM44 66h1v1h-1z"/><path fill="#D74B97" d="M45 66h1v1h-1z"/><path fill="#C82D8C" d="M46 66h1v1h-1zM47 66h1v1h-1zM48 66h1v1h-1zM49 66h1v1h-1zM50 66h1v1h-1zM51 66h1v1h-1zM52 66h1v1h-1z"/><path fill="#D94F98" d="M53 66h1v1h-1zM54 66h1v1h-1zM55 66h1v1h-1z"/><path fill="#002" d="M56 66h1v1h-1zM57 66h1v1h-1zM58 66h1v1h-1zM59 66h1v1h-1zM3 67h1v1H3zM4 67h1v1H4zM5 67h1v1H5z"/><path fill="#32324C" d="M6 67h1v1H6z"/><path fill="#CBCBCC" d="M7 67h1v1H7z"/><path fill="#E7E3E1" d="M8 67h1v1H8z"/><path fill="#E9E5E2" d="M9 67h1v1H9zM10 67h1v1h-1zM11 67h1v1h-1zM12 67h1v1h-1zM13 67h1v1h-1zM14 67h1v1h-1zM15 67h1v1h-1zM16 67h1v1h-1zM17 67h1v1h-1zM18 67h1v1h-1zM19 67h1v1h-1zM20 67h1v1h-1zM21 67h1v1h-1zM22 67h1v1h-1zM23 67h1v1h-1zM24 67h1v1h-1zM25 67h1v1h-1zM26 67h1v1h-1zM27 67h1v1h-1zM28 67h1v1h-1zM29 67h1v1h-1z"/><path fill="#E7E3E1" d="M30 67h1v1h-1z"/><path fill="#CBCBCC" d="M31 67h1v1h-1z"/><path fill="#C9C9CA" d="M32 67h1v1h-1zM33 67h1v1h-1z"/><path fill="#D6D6D7" d="M34 67h1v1h-1z"/><path fill="#EBECEC" d="M35 67h1v1h-1zM36 67h1v1h-1zM37 67h1v1h-1zM38 67h1v1h-1zM39 67h1v1h-1zM40 67h1v1h-1zM41 67h1v1h-1zM42 67h1v1h-1z"/><path fill="#E9D8E2" d="M43 67h1v1h-1z"/><path fill="#E4B1CD" d="M44 67h1v1h-1z"/><path fill="#D479AD" d="M45 67h1v1h-1z"/><path fill="#C84A98" d="M46 67h1v1h-1z"/><path fill="#C82D8C" d="M47 67h1v1h-1zM48 67h1v1h-1zM49 67h1v1h-1zM50 67h1v1h-1zM51 67h1v1h-1z"/><path fill="#C92F8D" d="M52 67h1v1h-1z"/><path fill="#D94F98" d="M53 67h1v1h-1z"/><path fill="#DE76AD" d="M54 67h1v1h-1z"/><path fill="#D285B0" d="M55 67h1v1h-1z"/><path fill="#002" d="M56 67h1v1h-1zM57 67h1v1h-1zM58 67h1v1h-1zM3 68h1v1H3zM4 68h1v1H4zM5 68h1v1H5zM6 68h1v1H6z"/><path fill="#8A8A96" d="M7 68h1v1H7z"/><path fill="#D9D7D6" d="M8 68h1v1H8z"/><path fill="#E9E5E2" d="M9 68h1v1H9zM10 68h1v1h-1zM11 68h1v1h-1zM12 68h1v1h-1zM13 68h1v1h-1zM14 68h1v1h-1zM15 68h1v1h-1zM16 68h1v1h-1zM17 68h1v1h-1zM18 68h1v1h-1zM19 68h1v1h-1zM20 68h1v1h-1zM21 68h1v1h-1zM22 68h1v1h-1zM23 68h1v1h-1zM24 68h1v1h-1zM25 68h1v1h-1zM26 68h1v1h-1zM27 68h1v1h-1zM28 68h1v1h-1zM29 68h1v1h-1zM30 68h1v1h-1z"/><path fill="#DDDBD9" d="M31 68h1v1h-1z"/><path fill="#C9C9CA" d="M32 68h1v1h-1zM33 68h1v1h-1zM34 68h1v1h-1z"/><path fill="#E7E8E8" d="M35 68h1v1h-1z"/><path fill="#EBECEC" d="M36 68h1v1h-1zM37 68h1v1h-1zM38 68h1v1h-1zM39 68h1v1h-1zM40 68h1v1h-1zM41 68h1v1h-1zM42 68h1v1h-1zM43 68h1v1h-1z"/><path fill="#E9EAEA" d="M44 68h1v1h-1z"/><path fill="#CBCBCC" d="M45 68h1v1h-1z"/><path fill="#C9C9CA" d="M46 68h1v1h-1zM47 68h1v1h-1z"/><path fill="#CAB8C3" d="M48 68h1v1h-1z"/><path fill="#C9A2BB" d="M49 68h1v1h-1zM50 68h1v1h-1zM51 68h1v1h-1z"/><path fill="#D3CACF" d="M52 68h1v1h-1z"/><path fill="#EBECEC" d="M53 68h1v1h-1zM54 68h1v1h-1z"/><path fill="#B0B1BA" d="M55 68h1v1h-1z"/><path fill="#002" d="M56 68h1v1h-1zM57 68h1v1h-1zM58 68h1v1h-1zM4 69h1v1H4zM5 69h1v1H5zM6 69h1v1H6z"/><path fill="#191937" d="M7 69h1v1H7z"/><path fill="#CBCBCC" d="M8 69h1v1H8z"/><path fill="#E7E3E1" d="M9 69h1v1H9z"/><path fill="#E9E5E2" d="M10 69h1v1h-1zM11 69h1v1h-1zM12 69h1v1h-1zM13 69h1v1h-1zM14 69h1v1h-1zM15 69h1v1h-1zM16 69h1v1h-1zM17 69h1v1h-1zM18 69h1v1h-1zM19 69h1v1h-1zM20 69h1v1h-1zM21 69h1v1h-1zM22 69h1v1h-1zM23 69h1v1h-1zM24 69h1v1h-1zM25 69h1v1h-1zM26 69h1v1h-1zM27 69h1v1h-1zM28 69h1v1h-1zM29 69h1v1h-1zM30 69h1v1h-1zM31 69h1v1h-1z"/><path fill="#D1D0D0" d="M32 69h1v1h-1z"/><path fill="#C9C9CA" d="M33 69h1v1h-1zM34 69h1v1h-1z"/><path fill="#D6D6D7" d="M35 69h1v1h-1z"/><path fill="#EBECEC" d="M36 69h1v1h-1zM37 69h1v1h-1zM38 69h1v1h-1zM39 69h1v1h-1zM40 69h1v1h-1zM41 69h1v1h-1zM42 69h1v1h-1zM43 69h1v1h-1z"/><path fill="#D8D8D9" d="M44 69h1v1h-1z"/><path fill="#C9C9CA" d="M45 69h1v1h-1zM46 69h1v1h-1zM47 69h1v1h-1zM48 69h1v1h-1zM49 69h1v1h-1zM50 69h1v1h-1zM51 69h1v1h-1z"/><path fill="#DADBDB" d="M52 69h1v1h-1z"/><path fill="#EBECEC" d="M53 69h1v1h-1zM54 69h1v1h-1z"/><path fill="#767687" d="M55 69h1v1h-1z"/><path fill="#002" d="M56 69h1v1h-1zM57 69h1v1h-1zM58 69h1v1h-1zM4 70h1v1H4zM5 70h1v1H5zM6 70h1v1H6zM7 70h1v1H7z"/><path fill="#656576" d="M8 70h1v1H8z"/><path fill="#D7D5D5" d="M9 70h1v1H9z"/><path fill="#E9E5E2" d="M10 70h1v1h-1zM11 70h1v1h-1zM12 70h1v1h-1zM13 70h1v1h-1zM14 70h1v1h-1zM15 70h1v1h-1zM16 70h1v1h-1zM17 70h1v1h-1zM18 70h1v1h-1zM19 70h1v1h-1zM20 70h1v1h-1zM21 70h1v1h-1zM22 70h1v1h-1zM23 70h1v1h-1zM24 70h1v1h-1zM25 70h1v1h-1zM26 70h1v1h-1zM27 70h1v1h-1zM28 70h1v1h-1zM29 70h1v1h-1zM30 70h1v1h-1zM31 70h1v1h-1z"/><path fill="#E1DEDC" d="M32 70h1v1h-1z"/><path fill="#C9C9CA" d="M33 70h1v1h-1zM34 70h1v1h-1zM35 70h1v1h-1z"/><path fill="#E9EAEA" d="M36 70h1v1h-1z"/><path fill="#EBECEC" d="M37 70h1v1h-1zM38 70h1v1h-1zM39 70h1v1h-1zM40 70h1v1h-1zM41 70h1v1h-1zM42 70h1v1h-1z"/><path fill="#E5E5E6" d="M43 70h1v1h-1z"/><path fill="#C9C9CA" d="M44 70h1v1h-1zM45 70h1v1h-1zM46 70h1v1h-1zM47 70h1v1h-1zM48 70h1v1h-1zM49 70h1v1h-1zM50 70h1v1h-1zM51 70h1v1h-1z"/><path fill="#E3E3E4" d="M52 70h1v1h-1z"/><path fill="#EBECEC" d="M53 70h1v1h-1zM54 70h1v1h-1z"/><path fill="#3B3B55" d="M55 70h1v1h-1z"/><path fill="#002" d="M56 70h1v1h-1zM57 70h1v1h-1zM58 70h1v1h-1zM5 71h1v1H5zM6 71h1v1H6zM7 71h1v1H7zM8 71h1v1H8z"/><path fill="#A3A3AB" d="M9 71h1v1H9z"/><path fill="#E3E0DE" d="M10 71h1v1h-1z"/><path fill="#E9E5E2" d="M11 71h1v1h-1zM12 71h1v1h-1zM13 71h1v1h-1zM14 71h1v1h-1zM15 71h1v1h-1zM16 71h1v1h-1zM17 71h1v1h-1zM18 71h1v1h-1zM19 71h1v1h-1zM20 71h1v1h-1zM21 71h1v1h-1zM22 71h1v1h-1zM23 71h1v1h-1zM24 71h1v1h-1zM25 71h1v1h-1zM26 71h1v1h-1zM27 71h1v1h-1zM28 71h1v1h-1zM29 71h1v1h-1zM30 71h1v1h-1zM31 71h1v1h-1zM32 71h1v1h-1z"/><path fill="#CDCDCD" d="M33 71h1v1h-1z"/><path fill="#C9C9CA" d="M34 71h1v1h-1zM35 71h1v1h-1z"/><path fill="#DCDDDD" d="M36 71h1v1h-1z"/><path fill="#EBECEC" d="M37 71h1v1h-1zM38 71h1v1h-1zM39 71h1v1h-1zM40 71h1v1h-1zM41 71h1v1h-1zM42 71h1v1h-1z"/><path fill="#D2D2D3" d="M43 71h1v1h-1z"/><path fill="#C9C9CA" d="M44 71h1v1h-1zM45 71h1v1h-1zM46 71h1v1h-1zM47 71h1v1h-1zM48 71h1v1h-1zM49 71h1v1h-1zM50 71h1v1h-1z"/><path fill="#CBCBCC" d="M51 71h1v1h-1z"/><path fill="#EBECEC" d="M52 71h1v1h-1zM53 71h1v1h-1zM54 71h1v1h-1z"/><path fill="#002" d="M55 71h1v1h-1zM56 71h1v1h-1zM57 71h1v1h-1zM58 71h1v1h-1zM6 72h1v1H6zM7 72h1v1H7zM8 72h1v1H8z"/><path fill="#191937" d="M9 72h1v1H9z"/><path fill="#C0C0C3" d="M10 72h1v1h-1z"/><path fill="#E7E3E1" d="M11 72h1v1h-1z"/><path fill="#E9E5E2" d="M12 72h1v1h-1zM13 72h1v1h-1zM14 72h1v1h-1zM15 72h1v1h-1zM16 72h1v1h-1zM17 72h1v1h-1zM18 72h1v1h-1zM19 72h1v1h-1zM20 72h1v1h-1zM21 72h1v1h-1zM22 72h1v1h-1zM23 72h1v1h-1zM24 72h1v1h-1zM25 72h1v1h-1zM26 72h1v1h-1zM27 72h1v1h-1zM28 72h1v1h-1zM29 72h1v1h-1zM30 72h1v1h-1zM31 72h1v1h-1zM32 72h1v1h-1z"/><path fill="#DBD9D8" d="M33 72h1v1h-1z"/><path fill="#C9C9CA" d="M34 72h1v1h-1zM35 72h1v1h-1z"/><path fill="#D2D2D3" d="M36 72h1v1h-1z"/><path fill="#EBECEC" d="M37 72h1v1h-1zM38 72h1v1h-1zM39 72h1v1h-1zM40 72h1v1h-1zM41 72h1v1h-1z"/><path fill="#DADBDB" d="M42 72h1v1h-1z"/><path fill="#C9C9CA" d="M43 72h1v1h-1zM44 72h1v1h-1zM45 72h1v1h-1zM46 72h1v1h-1zM47 72h1v1h-1zM48 72h1v1h-1zM49 72h1v1h-1zM50 72h1v1h-1z"/><path fill="#D6D6D7" d="M51 72h1v1h-1z"/><path fill="#EBECEC" d="M52 72h1v1h-1zM53 72h1v1h-1z"/><path fill="#A2A2AD" d="M54 72h1v1h-1z"/><path fill="#002" d="M55 72h1v1h-1zM56 72h1v1h-1zM57 72h1v1h-1zM6 73h1v1H6zM7 73h1v1H7zM8 73h1v1H8zM9 73h1v1H9z"/><path fill="#3F3F57" d="M10 73h1v1h-1z"/><path fill="#D5D4D3" d="M11 73h1v1h-1z"/><path fill="#E9E5E2" d="M12 73h1v1h-1zM13 73h1v1h-1zM14 73h1v1h-1zM15 73h1v1h-1zM16 73h1v1h-1zM17 73h1v1h-1zM18 73h1v1h-1zM19 73h1v1h-1zM20 73h1v1h-1zM21 73h1v1h-1zM22 73h1v1h-1zM23 73h1v1h-1zM24 73h1v1h-1zM25 73h1v1h-1zM26 73h1v1h-1zM27 73h1v1h-1zM28 73h1v1h-1zM29 73h1v1h-1zM30 73h1v1h-1zM31 73h1v1h-1zM32 73h1v1h-1z"/><path fill="#E5E2DF" d="M33 73h1v1h-1z"/><path fill="#C9C9CA" d="M34 73h1v1h-1zM35 73h1v1h-1zM36 73h1v1h-1z"/><path fill="#EBECEC" d="M37 73h1v1h-1zM38 73h1v1h-1zM39 73h1v1h-1zM40 73h1v1h-1z"/><path fill="#E3E3E4" d="M41 73h1v1h-1z"/><path fill="#C9C9CA" d="M42 73h1v1h-1zM43 73h1v1h-1zM44 73h1v1h-1zM45 73h1v1h-1zM46 73h1v1h-1zM47 73h1v1h-1zM48 73h1v1h-1zM49 73h1v1h-1zM50 73h1v1h-1z"/><path fill="#E3E3E4" d="M51 73h1v1h-1z"/><path fill="#EBECEC" d="M52 73h1v1h-1zM53 73h1v1h-1z"/><path fill="#494A61" d="M54 73h1v1h-1z"/><path fill="#002" d="M55 73h1v1h-1zM56 73h1v1h-1zM57 73h1v1h-1zM7 74h1v1H7zM8 74h1v1H8zM9 74h1v1H9zM10 74h1v1h-1z"/><path fill="#656576" d="M11 74h1v1h-1z"/><path fill="#D9D7D6" d="M12 74h1v1h-1z"/><path fill="#E9E5E2" d="M13 74h1v1h-1zM14 74h1v1h-1zM15 74h1v1h-1zM16 74h1v1h-1zM17 74h1v1h-1zM18 74h1v1h-1zM19 74h1v1h-1zM20 74h1v1h-1zM21 74h1v1h-1zM22 74h1v1h-1zM23 74h1v1h-1zM24 74h1v1h-1zM25 74h1v1h-1zM26 74h1v1h-1zM27 74h1v1h-1zM28 74h1v1h-1zM29 74h1v1h-1zM30 74h1v1h-1zM31 74h1v1h-1zM32 74h1v1h-1zM33 74h1v1h-1z"/><path fill="#CDCDCD" d="M34 74h1v1h-1z"/><path fill="#C9C9CA" d="M35 74h1v1h-1zM36 74h1v1h-1z"/><path fill="#E3E3E4" d="M37 74h1v1h-1z"/><path fill="#EBECEC" d="M38 74h1v1h-1zM39 74h1v1h-1z"/><path fill="#E5E5E6" d="M40 74h1v1h-1z"/><path fill="#CBCBCC" d="M41 74h1v1h-1z"/><path fill="#C9C9CA" d="M42 74h1v1h-1zM43 74h1v1h-1zM44 74h1v1h-1zM45 74h1v1h-1zM46 74h1v1h-1zM47 74h1v1h-1zM48 74h1v1h-1zM49 74h1v1h-1z"/><path fill="#CFD0D0" d="M50 74h1v1h-1z"/><path fill="#EBECEC" d="M51 74h1v1h-1zM52 74h1v1h-1z"/><path fill="#CECFD3" d="M53 74h1v1h-1z"/><path fill="#002" d="M54 74h1v1h-1zM55 74h1v1h-1zM56 74h1v1h-1zM57 74h1v1h-1zM8 75h1v1H8zM9 75h1v1H9zM10 75h1v1h-1zM11 75h1v1h-1z"/><path fill="#7E7E8B" d="M12 75h1v1h-1z"/><path fill="#DDDBD9" d="M13 75h1v1h-1z"/><path fill="#E9E5E2" d="M14 75h1v1h-1zM15 75h1v1h-1zM16 75h1v1h-1zM17 75h1v1h-1zM18 75h1v1h-1zM19 75h1v1h-1zM20 75h1v1h-1zM21 75h1v1h-1zM22 75h1v1h-1zM23 75h1v1h-1zM24 75h1v1h-1zM25 75h1v1h-1zM26 75h1v1h-1zM27 75h1v1h-1zM28 75h1v1h-1zM29 75h1v1h-1zM30 75h1v1h-1zM31 75h1v1h-1zM32 75h1v1h-1zM33 75h1v1h-1z"/><path fill="#D1D0D0" d="M34 75h1v1h-1z"/><path fill="#C9C9CA" d="M35 75h1v1h-1zM36 75h1v1h-1z"/><path fill="#DEDFDF" d="M37 75h1v1h-1z"/><path fill="#EBECEC" d="M38 75h1v1h-1z"/><path fill="#E9EAEA" d="M39 75h1v1h-1z"/><path fill="#CFD0D0" d="M40 75h1v1h-1z"/><path fill="#C9C9CA" d="M41 75h1v1h-1zM42 75h1v1h-1zM43 75h1v1h-1zM44 75h1v1h-1zM45 75h1v1h-1zM46 75h1v1h-1zM47 75h1v1h-1zM48 75h1v1h-1zM49 75h1v1h-1z"/><path fill="#E0E1E1" d="M50 75h1v1h-1z"/><path fill="#EBECEC" d="M51 75h1v1h-1zM52 75h1v1h-1z"/><path fill="#67677A" d="M53 75h1v1h-1z"/><path fill="#002" d="M54 75h1v1h-1zM55 75h1v1h-1zM56 75h1v1h-1zM8 76h1v1H8zM9 76h1v1H9zM10 76h1v1h-1zM11 76h1v1h-1zM12 76h1v1h-1z"/><path fill="#7E7E8B" d="M13 76h1v1h-1z"/><path fill="#DDDBD9" d="M14 76h1v1h-1z"/><path fill="#E9E5E2" d="M15 76h1v1h-1zM16 76h1v1h-1zM17 76h1v1h-1zM18 76h1v1h-1zM19 76h1v1h-1zM20 76h1v1h-1zM21 76h1v1h-1zM22 76h1v1h-1zM23 76h1v1h-1zM24 76h1v1h-1zM25 76h1v1h-1zM26 76h1v1h-1zM27 76h1v1h-1zM28 76h1v1h-1zM29 76h1v1h-1zM30 76h1v1h-1zM31 76h1v1h-1zM32 76h1v1h-1zM33 76h1v1h-1z"/><path fill="#D9D7D6" d="M34 76h1v1h-1z"/><path fill="#C9C9CA" d="M35 76h1v1h-1zM36 76h1v1h-1z"/><path fill="#DADBDB" d="M37 76h1v1h-1z"/><path fill="#E5E5E6" d="M38 76h1v1h-1z"/><path fill="#CFD0D0" d="M39 76h1v1h-1z"/><path fill="#C9C9CA" d="M40 76h1v1h-1zM41 76h1v1h-1zM42 76h1v1h-1zM43 76h1v1h-1zM44 76h1v1h-1zM45 76h1v1h-1zM46 76h1v1h-1zM47 76h1v1h-1zM48 76h1v1h-1z"/><path fill="#D2D2D3" d="M49 76h1v1h-1z"/><path fill="#EBECEC" d="M50 76h1v1h-1zM51 76h1v1h-1z"/><path fill="#CECFD3" d="M52 76h1v1h-1z"/><path fill="#0F0F2F" d="M53 76h1v1h-1z"/><path fill="#002" d="M54 76h1v1h-1zM55 76h1v1h-1zM56 76h1v1h-1zM9 77h1v1H9zM10 77h1v1h-1zM11 77h1v1h-1zM12 77h1v1h-1zM13 77h1v1h-1z"/><path fill="#7E7E8B" d="M14 77h1v1h-1z"/><path fill="#D9D7D6" d="M15 77h1v1h-1z"/><path fill="#E9E5E2" d="M16 77h1v1h-1zM17 77h1v1h-1zM18 77h1v1h-1zM19 77h1v1h-1zM20 77h1v1h-1zM21 77h1v1h-1zM22 77h1v1h-1zM23 77h1v1h-1zM24 77h1v1h-1zM25 77h1v1h-1zM26 77h1v1h-1zM27 77h1v1h-1zM28 77h1v1h-1zM29 77h1v1h-1zM30 77h1v1h-1zM31 77h1v1h-1zM32 77h1v1h-1zM33 77h1v1h-1z"/><path fill="#D9D7D6" d="M34 77h1v1h-1z"/><path fill="#C9C9CA" d="M35 77h1v1h-1zM36 77h1v1h-1z"/><path fill="#D4D4D5" d="M37 77h1v1h-1z"/><path fill="#CBCBCC" d="M38 77h1v1h-1z"/><path fill="#C9C9CA" d="M39 77h1v1h-1zM40 77h1v1h-1zM41 77h1v1h-1zM42 77h1v1h-1zM43 77h1v1h-1zM44 77h1v1h-1zM45 77h1v1h-1zM46 77h1v1h-1zM47 77h1v1h-1zM48 77h1v1h-1z"/><path fill="#E5E5E6" d="M49 77h1v1h-1z"/><path fill="#EBECEC" d="M50 77h1v1h-1zM51 77h1v1h-1z"/><path fill="#58596E" d="M52 77h1v1h-1z"/><path fill="#002" d="M53 77h1v1h-1zM54 77h1v1h-1zM55 77h1v1h-1zM10 78h1v1h-1zM11 78h1v1h-1zM12 78h1v1h-1zM13 78h1v1h-1zM14 78h1v1h-1z"/><path fill="#656576" d="M15 78h1v1h-1z"/><path fill="#D5D4D3" d="M16 78h1v1h-1z"/><path fill="#E7E3E1" d="M17 78h1v1h-1z"/><path fill="#E9E5E2" d="M18 78h1v1h-1zM19 78h1v1h-1zM20 78h1v1h-1zM21 78h1v1h-1zM22 78h1v1h-1zM23 78h1v1h-1zM24 78h1v1h-1zM25 78h1v1h-1zM26 78h1v1h-1zM27 78h1v1h-1zM28 78h1v1h-1zM29 78h1v1h-1zM30 78h1v1h-1zM31 78h1v1h-1zM32 78h1v1h-1zM33 78h1v1h-1z"/><path fill="#D3D2D2" d="M34 78h1v1h-1z"/><path fill="#C9C9CA" d="M35 78h1v1h-1zM36 78h1v1h-1zM37 78h1v1h-1zM38 78h1v1h-1zM39 78h1v1h-1zM40 78h1v1h-1zM41 78h1v1h-1zM42 78h1v1h-1zM43 78h1v1h-1zM44 78h1v1h-1zM45 78h1v1h-1zM46 78h1v1h-1zM47 78h1v1h-1z"/><path fill="#DCDDDD" d="M48 78h1v1h-1z"/><path fill="#EBECEC" d="M49 78h1v1h-1zM50 78h1v1h-1z"/><path fill="#B0B1BA" d="M51 78h1v1h-1z"/><path fill="#002" d="M52 78h1v1h-1zM53 78h1v1h-1zM54 78h1v1h-1zM55 78h1v1h-1zM11 79h1v1h-1zM12 79h1v1h-1zM13 79h1v1h-1zM14 79h1v1h-1zM15 79h1v1h-1z"/><path fill="#3F3F57" d="M16 79h1v1h-1z"/><path fill="#C2C2C4" d="M17 79h1v1h-1z"/><path fill="#E3E0DE" d="M18 79h1v1h-1z"/><path fill="#E9E5E2" d="M19 79h1v1h-1zM20 79h1v1h-1zM21 79h1v1h-1zM22 79h1v1h-1zM23 79h1v1h-1zM24 79h1v1h-1zM25 79h1v1h-1zM26 79h1v1h-1zM27 79h1v1h-1zM28 79h1v1h-1zM29 79h1v1h-1zM30 79h1v1h-1zM31 79h1v1h-1zM32 79h1v1h-1zM33 79h1v1h-1z"/><path fill="#CBCBCC" d="M34 79h1v1h-1z"/><path fill="#C9C9CA" d="M35 79h1v1h-1zM36 79h1v1h-1zM37 79h1v1h-1zM38 79h1v1h-1zM39 79h1v1h-1zM40 79h1v1h-1zM41 79h1v1h-1zM42 79h1v1h-1zM43 79h1v1h-1zM44 79h1v1h-1zM45 79h1v1h-1zM46 79h1v1h-1z"/><path fill="#D6D6D7" d="M47 79h1v1h-1z"/><path fill="#EBECEC" d="M48 79h1v1h-1zM49 79h1v1h-1z"/><path fill="#DCDDDF" d="M50 79h1v1h-1z"/><path fill="#0F0F2F" d="M51 79h1v1h-1z"/><path fill="#002" d="M52 79h1v1h-1zM53 79h1v1h-1zM54 79h1v1h-1zM12 80h1v1h-1zM13 80h1v1h-1zM14 80h1v1h-1zM15 80h1v1h-1zM16 80h1v1h-1z"/><path fill="#191937" d="M17 80h1v1h-1z"/><path fill="#A3A3AB" d="M18 80h1v1h-1z"/><path fill="#D7D5D5" d="M19 80h1v1h-1z"/><path fill="#E7E3E1" d="M20 80h1v1h-1z"/><path fill="#E9E5E2" d="M21 80h1v1h-1zM22 80h1v1h-1zM23 80h1v1h-1zM24 80h1v1h-1zM25 80h1v1h-1zM26 80h1v1h-1zM27 80h1v1h-1zM28 80h1v1h-1zM29 80h1v1h-1zM30 80h1v1h-1zM31 80h1v1h-1zM32 80h1v1h-1z"/><path fill="#DDDBD9" d="M33 80h1v1h-1z"/><path fill="#C9C9CA" d="M34 80h1v1h-1zM35 80h1v1h-1zM36 80h1v1h-1zM37 80h1v1h-1zM38 80h1v1h-1zM39 80h1v1h-1zM40 80h1v1h-1zM41 80h1v1h-1zM42 80h1v1h-1zM43 80h1v1h-1zM44 80h1v1h-1zM45 80h1v1h-1z"/><path fill="#D6D6D7" d="M46 80h1v1h-1z"/><path fill="#EBECEC" d="M47 80h1v1h-1zM48 80h1v1h-1z"/><path fill="#DCDDDF" d="M49 80h1v1h-1z"/><path fill="#2C2C48" d="M50 80h1v1h-1z"/><path fill="#002" d="M51 80h1v1h-1zM52 80h1v1h-1zM53 80h1v1h-1zM54 80h1v1h-1zM13 81h1v1h-1zM14 81h1v1h-1zM15 81h1v1h-1zM16 81h1v1h-1zM17 81h1v1h-1zM18 81h1v1h-1z"/><path fill="#656576" d="M19 81h1v1h-1z"/><path fill="#CBCBCC" d="M20 81h1v1h-1z"/><path fill="#D9D7D6" d="M21 81h1v1h-1z"/><path fill="#E7E3E1" d="M22 81h1v1h-1z"/><path fill="#E9E5E2" d="M23 81h1v1h-1zM24 81h1v1h-1zM25 81h1v1h-1zM26 81h1v1h-1zM27 81h1v1h-1zM28 81h1v1h-1zM29 81h1v1h-1zM30 81h1v1h-1zM31 81h1v1h-1z"/><path fill="#E3E0DE" d="M32 81h1v1h-1z"/><path fill="#CBCBCC" d="M33 81h1v1h-1z"/><path fill="#C9C9CA" d="M34 81h1v1h-1zM35 81h1v1h-1zM36 81h1v1h-1zM37 81h1v1h-1zM38 81h1v1h-1zM39 81h1v1h-1zM40 81h1v1h-1zM41 81h1v1h-1zM42 81h1v1h-1zM43 81h1v1h-1zM44 81h1v1h-1z"/><path fill="#DCDDDD" d="M45 81h1v1h-1z"/><path fill="#EBECEC" d="M46 81h1v1h-1zM47 81h1v1h-1z"/><path fill="#DCDDDF" d="M48 81h1v1h-1z"/><path fill="#2C2C48" d="M49 81h1v1h-1z"/><path fill="#002" d="M50 81h1v1h-1zM51 81h1v1h-1zM52 81h1v1h-1zM53 81h1v1h-1zM15 82h1v1h-1zM16 82h1v1h-1zM17 82h1v1h-1zM18 82h1v1h-1zM19 82h1v1h-1z"/><path fill="#191937" d="M20 82h1v1h-1z"/><path fill="#8A8A96" d="M21 82h1v1h-1z"/><path fill="#CBCBCC" d="M22 82h1v1h-1z"/><path fill="#D5D4D3" d="M23 82h1v1h-1z"/><path fill="#DFDCDB" d="M24 82h1v1h-1z"/><path fill="#E9E5E2" d="M25 82h1v1h-1zM26 82h1v1h-1zM27 82h1v1h-1zM28 82h1v1h-1zM29 82h1v1h-1z"/><path fill="#E7E3E1" d="M30 82h1v1h-1z"/><path fill="#DBD9D8" d="M31 82h1v1h-1z"/><path fill="#CBCBCC" d="M32 82h1v1h-1z"/><path fill="#C9C9CA" d="M33 82h1v1h-1zM34 82h1v1h-1zM35 82h1v1h-1zM36 82h1v1h-1zM37 82h1v1h-1zM38 82h1v1h-1zM39 82h1v1h-1zM40 82h1v1h-1zM41 82h1v1h-1zM42 82h1v1h-1z"/><path fill="#D2D2D3" d="M43 82h1v1h-1z"/><path fill="#E7E8E8" d="M44 82h1v1h-1z"/><path fill="#EBECEC" d="M45 82h1v1h-1zM46 82h1v1h-1z"/><path fill="#CECFD3" d="M47 82h1v1h-1z"/><path fill="#2C2C48" d="M48 82h1v1h-1z"/><path fill="#002" d="M49 82h1v1h-1zM50 82h1v1h-1zM51 82h1v1h-1zM52 82h1v1h-1zM16 83h1v1h-1zM17 83h1v1h-1zM18 83h1v1h-1zM19 83h1v1h-1zM20 83h1v1h-1zM21 83h1v1h-1z"/><path fill="#32324C" d="M22 83h1v1h-1z"/><path fill="#9797A0" d="M23 83h1v1h-1z"/><path fill="#C9C9CA" d="M24 83h1v1h-1zM25 83h1v1h-1z"/><path fill="#CFCECF" d="M26 83h1v1h-1z"/><path fill="#D1D0D0" d="M27 83h1v1h-1zM28 83h1v1h-1zM29 83h1v1h-1z"/><path fill="#C9C9CA" d="M30 83h1v1h-1zM31 83h1v1h-1zM32 83h1v1h-1zM33 83h1v1h-1zM34 83h1v1h-1zM35 83h1v1h-1zM36 83h1v1h-1zM37 83h1v1h-1zM38 83h1v1h-1zM39 83h1v1h-1zM40 83h1v1h-1z"/><path fill="#D4D4D5" d="M41 83h1v1h-1z"/><path fill="#E3E3E4" d="M42 83h1v1h-1z"/><path fill="#EBECEC" d="M43 83h1v1h-1zM44 83h1v1h-1zM45 83h1v1h-1z"/><path fill="#848594" d="M46 83h1v1h-1z"/><path fill="#0F0F2F" d="M47 83h1v1h-1z"/><path fill="#002" d="M48 83h1v1h-1zM49 83h1v1h-1zM50 83h1v1h-1zM51 83h1v1h-1zM18 84h1v1h-1zM19 84h1v1h-1zM20 84h1v1h-1zM21 84h1v1h-1zM22 84h1v1h-1zM23 84h1v1h-1z"/><path fill="#191937" d="M24 84h1v1h-1z"/><path fill="#717181" d="M25 84h1v1h-1z"/><path fill="#BCBCC0" d="M26 84h1v1h-1z"/><path fill="#C9C9CA" d="M27 84h1v1h-1zM28 84h1v1h-1zM29 84h1v1h-1zM30 84h1v1h-1zM31 84h1v1h-1zM32 84h1v1h-1zM33 84h1v1h-1zM34 84h1v1h-1zM35 84h1v1h-1z"/><path fill="#CDCDCE" d="M36 84h1v1h-1z"/><path fill="#D2D2D3" d="M37 84h1v1h-1z"/><path fill="#D8D8D9" d="M38 84h1v1h-1z"/><path fill="#E0E1E1" d="M39 84h1v1h-1z"/><path fill="#E9EAEA" d="M40 84h1v1h-1z"/><path fill="#EBECEC" d="M41 84h1v1h-1zM42 84h1v1h-1zM43 84h1v1h-1z"/><path fill="#B0B1BA" d="M44 84h1v1h-1z"/><path fill="#3B3B55" d="M45 84h1v1h-1z"/><path fill="#002" d="M46 84h1v1h-1zM47 84h1v1h-1zM48 84h1v1h-1zM49 84h1v1h-1zM50 84h1v1h-1zM19 85h1v1h-1zM20 85h1v1h-1zM21 85h1v1h-1zM22 85h1v1h-1zM23 85h1v1h-1zM24 85h1v1h-1zM25 85h1v1h-1zM26 85h1v1h-1z"/><path fill="#3F3F57" d="M27 85h1v1h-1z"/><path fill="#717181" d="M28 85h1v1h-1z"/><path fill="#A3A3AB" d="M29 85h1v1h-1z"/><path fill="#C9C9CA" d="M30 85h1v1h-1z"/><path fill="#CDCDCE" d="M31 85h1v1h-1z"/><path fill="#DADBDB" d="M32 85h1v1h-1z"/><path fill="#E9EAEA" d="M33 85h1v1h-1z"/><path fill="#EBECEC" d="M34 85h1v1h-1zM35 85h1v1h-1zM36 85h1v1h-1zM37 85h1v1h-1zM38 85h1v1h-1zM39 85h1v1h-1zM40 85h1v1h-1z"/><path fill="#BFC0C6" d="M41 85h1v1h-1z"/><path fill="#848594" d="M42 85h1v1h-1z"/><path fill="#1D1E3B" d="M43 85h1v1h-1z"/><path fill="#002" d="M44 85h1v1h-1zM45 85h1v1h-1zM46 85h1v1h-1zM47 85h1v1h-1zM48 85h1v1h-1zM49 85h1v1h-1zM21 86h1v1h-1zM22 86h1v1h-1zM23 86h1v1h-1zM24 86h1v1h-1zM25 86h1v1h-1zM26 86h1v1h-1zM27 86h1v1h-1zM28 86h1v1h-1zM29 86h1v1h-1z"/><path fill="#0F0F2F" d="M30 86h1v1h-1z"/><path fill="#3B3B55" d="M31 86h1v1h-1z"/><path fill="#67677A" d="M32 86h1v1h-1z"/><path fill="#767687" d="M33 86h1v1h-1zM34 86h1v1h-1zM35 86h1v1h-1zM36 86h1v1h-1zM37 86h1v1h-1zM38 86h1v1h-1z"/><path fill="#3B3B55" d="M39 86h1v1h-1z"/><path fill="#0F0F2F" d="M40 86h1v1h-1z"/><path fill="#002" d="M41 86h1v1h-1zM42 86h1v1h-1zM43 86h1v1h-1zM44 86h1v1h-1zM45 86h1v1h-1zM46 86h1v1h-1zM47 86h1v1h-1zM48 86h1v1h-1zM23 87h1v1h-1zM24 87h1v1h-1zM25 87h1v1h-1zM26 87h1v1h-1zM27 87h1v1h-1zM28 87h1v1h-1zM29 87h1v1h-1zM30 87h1v1h-1zM31 87h1v1h-1zM32 87h1v1h-1zM33 87h1v1h-1zM34 87h1v1h-1zM35 87h1v1h-1zM36 87h1v1h-1zM37 87h1v1h-1zM38 87h1v1h-1zM39 87h1v1h-1zM40 87h1v1h-1zM41 87h1v1h-1zM42 87h1v1h-1zM43 87h1v1h-1zM44 87h1v1h-1zM45 87h1v1h-1zM46 87h1v1h-1zM26 88h1v1h-1zM27 88h1v1h-1zM28 88h1v1h-1zM29 88h1v1h-1zM30 88h1v1h-1zM31 88h1v1h-1zM32 88h1v1h-1zM33 88h1v1h-1zM34 88h1v1h-1zM35 88h1v1h-1zM36 88h1v1h-1zM37 88h1v1h-1zM38 88h1v1h-1zM39 88h1v1h-1zM40 88h1v1h-1zM41 88h1v1h-1zM42 88h1v1h-1zM43 88h1v1h-1zM44 88h1v1h-1zM30 89h1v1h-1zM31 89h1v1h-1zM32 89h1v1h-1zM33 89h1v1h-1zM34 89h1v1h-1zM35 89h1v1h-1zM36 89h1v1h-1zM37 89h1v1h-1zM38 89h1v1h-1zM39 89h1v1h-1zM40 89h1v1h-1z"/></svg>