<svg baseProfile="full" height="90" width="86" xmlns="http://www.w3.org/2000/svg"><path fill="#231815" d="M37 0h1v1h-1zM38 0h1v1h-1zM39 0h1v1h-1zM40 0h1v1h-1zM41 0h1v1h-1zM42 0h1v1h-1zM43 0h1v1h-1zM44 0h1v1h-1zM45 0h1v1h-1zM46 0h1v1h-1zM35 1h1v1h-1zM36 1h1v1h-1zM37 1h1v1h-1zM38 1h1v1h-1zM39 1h1v1h-1zM40 1h1v1h-1zM41 1h1v1h-1zM42 1h1v1h-1zM43 1h1v1h-1zM44 1h1v1h-1zM45 1h1v1h-1zM46 1h1v1h-1zM47 1h1v1h-1zM35 2h1v1h-1zM36 2h1v1h-1zM37 2h1v1h-1zM38 2h1v1h-1zM39 2h1v1h-1zM40 2h1v1h-1zM41 2h1v1h-1zM42 2h1v1h-1zM43 2h1v1h-1zM44 2h1v1h-1zM45 2h1v1h-1zM46 2h1v1h-1zM47 2h1v1h-1zM48 2h1v1h-1zM34 3h1v1h-1zM35 3h1v1h-1zM36 3h1v1h-1zM37 3h1v1h-1z"/><path fill="#3A2921" d="M38 3h1v1h-1z"/><path fill="#51392C" d="M39 3h1v1h-1zM40 3h1v1h-1zM41 3h1v1h-1z"/><path fill="#4E2C1C" d="M42 3h1v1h-1zM43 3h1v1h-1zM44 3h1v1h-1z"/><path fill="#231815" d="M45 3h1v1h-1zM46 3h1v1h-1zM47 3h1v1h-1zM48 3h1v1h-1zM33 4h1v1h-1zM34 4h1v1h-1zM35 4h1v1h-1zM36 4h1v1h-1z"/><path fill="#463126" d="M37 4h1v1h-1z"/><path fill="#D0956C" d="M38 4h1v1h-1z"/><path fill="#DB9D72" d="M39 4h1v1h-1zM40 4h1v1h-1z"/><path fill="#D37F4E" d="M41 4h1v1h-1z"/><path fill="#CD6832" d="M42 4h1v1h-1zM43 4h1v1h-1zM44 4h1v1h-1z"/><path fill="#4E2C1C" d="M45 4h1v1h-1z"/><path fill="#231815" d="M46 4h1v1h-1zM47 4h1v1h-1zM48 4h1v1h-1zM49 4h1v1h-1zM50 4h1v1h-1zM51 4h1v1h-1zM52 4h1v1h-1zM53 4h1v1h-1zM54 4h1v1h-1zM55 4h1v1h-1zM56 4h1v1h-1zM57 4h1v1h-1zM58 4h1v1h-1zM59 4h1v1h-1zM60 4h1v1h-1zM61 4h1v1h-1zM62 4h1v1h-1zM63 4h1v1h-1zM64 4h1v1h-1zM65 4h1v1h-1zM66 4h1v1h-1zM67 4h1v1h-1zM68 4h1v1h-1zM69 4h1v1h-1zM70 4h1v1h-1zM32 5h1v1h-1zM33 5h1v1h-1zM34 5h1v1h-1zM35 5h1v1h-1z"/><path fill="#2F201B" d="M36 5h1v1h-1z"/><path fill="#C48C66" d="M37 5h1v1h-1z"/><path fill="#DB9D72" d="M38 5h1v1h-1zM39 5h1v1h-1z"/><path fill="#D6895A" d="M40 5h1v1h-1z"/><path fill="#CD6832" d="M41 5h1v1h-1zM42 5h1v1h-1zM43 5h1v1h-1zM44 5h1v1h-1z"/><path fill="#48281B" d="M45 5h1v1h-1z"/><path fill="#231815" d="M46 5h1v1h-1zM47 5h1v1h-1zM48 5h1v1h-1zM49 5h1v1h-1zM50 5h1v1h-1zM51 5h1v1h-1zM52 5h1v1h-1zM53 5h1v1h-1zM54 5h1v1h-1zM55 5h1v1h-1zM56 5h1v1h-1zM57 5h1v1h-1zM58 5h1v1h-1zM59 5h1v1h-1zM60 5h1v1h-1zM61 5h1v1h-1zM62 5h1v1h-1zM63 5h1v1h-1zM64 5h1v1h-1zM65 5h1v1h-1zM66 5h1v1h-1zM67 5h1v1h-1zM68 5h1v1h-1zM69 5h1v1h-1zM70 5h1v1h-1zM71 5h1v1h-1zM72 5h1v1h-1zM31 6h1v1h-1zM32 6h1v1h-1zM33 6h1v1h-1zM34 6h1v1h-1z"/><path fill="#2F201B" d="M35 6h1v1h-1z"/><path fill="#B98461" d="M36 6h1v1h-1z"/><path fill="#DB9D72" d="M37 6h1v1h-1zM38 6h1v1h-1z"/><path fill="#D78C5E" d="M39 6h1v1h-1z"/><path fill="#CD6832" d="M40 6h1v1h-1zM41 6h1v1h-1zM42 6h1v1h-1zM43 6h1v1h-1z"/><path fill="#9A4326" d="M44 6h1v1h-1z"/><path fill="#442018" d="M45 6h1v1h-1z"/><path fill="#231815" d="M46 6h1v1h-1zM47 6h1v1h-1zM48 6h1v1h-1zM49 6h1v1h-1zM50 6h1v1h-1zM51 6h1v1h-1zM52 6h1v1h-1zM53 6h1v1h-1zM54 6h1v1h-1zM55 6h1v1h-1zM56 6h1v1h-1zM57 6h1v1h-1zM58 6h1v1h-1zM59 6h1v1h-1zM60 6h1v1h-1zM61 6h1v1h-1zM62 6h1v1h-1zM63 6h1v1h-1zM64 6h1v1h-1zM65 6h1v1h-1zM66 6h1v1h-1zM67 6h1v1h-1zM68 6h1v1h-1zM69 6h1v1h-1zM70 6h1v1h-1zM71 6h1v1h-1zM72 6h1v1h-1zM73 6h1v1h-1zM74 6h1v1h-1zM30 7h1v1h-1zM31 7h1v1h-1zM32 7h1v1h-1zM33 7h1v1h-1zM34 7h1v1h-1z"/><path fill="#B98461" d="M35 7h1v1h-1z"/><path fill="#DB9D72" d="M36 7h1v1h-1zM37 7h1v1h-1z"/><path fill="#D89366" d="M38 7h1v1h-1z"/><path fill="#CE6B36" d="M39 7h1v1h-1z"/><path fill="#CD6832" d="M40 7h1v1h-1zM41 7h1v1h-1zM42 7h1v1h-1z"/><path fill="#9A4326" d="M43 7h1v1h-1z"/><path fill="#7C2D1E" d="M44 7h1v1h-1z"/><path fill="#762C1D" d="M45 7h1v1h-1z"/><path fill="#50231A" d="M46 7h1v1h-1z"/><path fill="#583028" d="M47 7h1v1h-1z"/><path fill="#918C8A" d="M48 7h1v1h-1zM49 7h1v1h-1zM50 7h1v1h-1zM51 7h1v1h-1zM52 7h1v1h-1zM53 7h1v1h-1zM54 7h1v1h-1zM55 7h1v1h-1zM56 7h1v1h-1zM57 7h1v1h-1zM58 7h1v1h-1zM59 7h1v1h-1zM60 7h1v1h-1zM61 7h1v1h-1zM62 7h1v1h-1zM63 7h1v1h-1zM64 7h1v1h-1zM65 7h1v1h-1zM66 7h1v1h-1zM67 7h1v1h-1zM68 7h1v1h-1z"/><path fill="#3F3532" d="M69 7h1v1h-1z"/><path fill="#231815" d="M70 7h1v1h-1zM71 7h1v1h-1zM72 7h1v1h-1zM73 7h1v1h-1zM74 7h1v1h-1zM75 7h1v1h-1zM29 8h1v1h-1zM30 8h1v1h-1zM31 8h1v1h-1zM32 8h1v1h-1zM33 8h1v1h-1z"/><path fill="#966B4F" d="M34 8h1v1h-1z"/><path fill="#DB9D72" d="M35 8h1v1h-1zM36 8h1v1h-1z"/><path fill="#DA9A6E" d="M37 8h1v1h-1z"/><path fill="#CE6B36" d="M38 8h1v1h-1z"/><path fill="#CD6832" d="M39 8h1v1h-1zM40 8h1v1h-1zM41 8h1v1h-1z"/><path fill="#AA4E29" d="M42 8h1v1h-1z"/><path fill="#7C2D1E" d="M43 8h1v1h-1zM44 8h1v1h-1zM45 8h1v1h-1z"/><path fill="#843A2C" d="M46 8h1v1h-1z"/><path fill="#E6D8D5" d="M47 8h1v1h-1z"/><path fill="#FFF" d="M48 8h1v1h-1zM49 8h1v1h-1zM50 8h1v1h-1zM51 8h1v1h-1zM52 8h1v1h-1zM53 8h1v1h-1zM54 8h1v1h-1zM55 8h1v1h-1zM56 8h1v1h-1zM57 8h1v1h-1zM58 8h1v1h-1zM59 8h1v1h-1zM60 8h1v1h-1zM61 8h1v1h-1zM62 8h1v1h-1zM63 8h1v1h-1zM64 8h1v1h-1zM65 8h1v1h-1zM66 8h1v1h-1zM67 8h1v1h-1zM68 8h1v1h-1zM69 8h1v1h-1z"/><path fill="#9F9A99" d="M70 8h1v1h-1z"/><path fill="#312624" d="M71 8h1v1h-1z"/><path fill="#231815" d="M72 8h1v1h-1zM73 8h1v1h-1zM74 8h1v1h-1zM75 8h1v1h-1zM76 8h1v1h-1zM28 9h1v1h-1zM29 9h1v1h-1zM30 9h1v1h-1zM31 9h1v1h-1zM32 9h1v1h-1z"/><path fill="#966B4F" d="M33 9h1v1h-1z"/><path fill="#DB9D72" d="M34 9h1v1h-1zM35 9h1v1h-1z"/><path fill="#DA9A6E" d="M36 9h1v1h-1z"/><path fill="#D0723E" d="M37 9h1v1h-1z"/><path fill="#CD6832" d="M38 9h1v1h-1zM39 9h1v1h-1zM40 9h1v1h-1z"/><path fill="#AF522B" d="M41 9h1v1h-1z"/><path fill="#7C2D1E" d="M42 9h1v1h-1zM43 9h1v1h-1zM44 9h1v1h-1z"/><path fill="#843A2C" d="M45 9h1v1h-1z"/><path fill="#E6D8D5" d="M46 9h1v1h-1z"/><path fill="#FFF" d="M47 9h1v1h-1zM48 9h1v1h-1zM49 9h1v1h-1zM50 9h1v1h-1zM51 9h1v1h-1zM52 9h1v1h-1zM53 9h1v1h-1zM54 9h1v1h-1zM55 9h1v1h-1zM56 9h1v1h-1zM57 9h1v1h-1zM58 9h1v1h-1zM59 9h1v1h-1zM60 9h1v1h-1zM61 9h1v1h-1zM62 9h1v1h-1zM63 9h1v1h-1zM64 9h1v1h-1zM65 9h1v1h-1zM66 9h1v1h-1zM67 9h1v1h-1zM68 9h1v1h-1zM69 9h1v1h-1zM70 9h1v1h-1z"/><path fill="#E4E2E2" d="M71 9h1v1h-1z"/><path fill="#5A5250" d="M72 9h1v1h-1z"/><path fill="#231815" d="M73 9h1v1h-1zM74 9h1v1h-1zM75 9h1v1h-1zM76 9h1v1h-1zM77 9h1v1h-1zM78 9h1v1h-1zM27 10h1v1h-1zM28 10h1v1h-1zM29 10h1v1h-1zM30 10h1v1h-1zM31 10h1v1h-1z"/><path fill="#7F5B44" d="M32 10h1v1h-1z"/><path fill="#DB9D72" d="M33 10h1v1h-1zM34 10h1v1h-1zM35 10h1v1h-1z"/><path fill="#D17946" d="M36 10h1v1h-1z"/><path fill="#CD6832" d="M37 10h1v1h-1zM38 10h1v1h-1zM39 10h1v1h-1z"/><path fill="#AF522B" d="M40 10h1v1h-1z"/><path fill="#7C2D1E" d="M41 10h1v1h-1zM42 10h1v1h-1zM43 10h1v1h-1zM44 10h1v1h-1z"/><path fill="#E6D8D5" d="M45 10h1v1h-1z"/><path fill="#FFF" d="M46 10h1v1h-1zM47 10h1v1h-1zM48 10h1v1h-1zM49 10h1v1h-1zM50 10h1v1h-1zM51 10h1v1h-1zM52 10h1v1h-1zM53 10h1v1h-1zM54 10h1v1h-1zM55 10h1v1h-1zM56 10h1v1h-1zM57 10h1v1h-1zM58 10h1v1h-1zM59 10h1v1h-1zM60 10h1v1h-1zM61 10h1v1h-1zM62 10h1v1h-1zM63 10h1v1h-1zM64 10h1v1h-1zM65 10h1v1h-1zM66 10h1v1h-1zM67 10h1v1h-1zM68 10h1v1h-1zM69 10h1v1h-1zM70 10h1v1h-1zM71 10h1v1h-1zM72 10h1v1h-1z"/><path fill="#918C8A" d="M73 10h1v1h-1z"/><path fill="#231815" d="M74 10h1v1h-1zM75 10h1v1h-1zM76 10h1v1h-1zM77 10h1v1h-1zM78 10h1v1h-1zM79 10h1v1h-1zM26 11h1v1h-1zM27 11h1v1h-1zM28 11h1v1h-1zM29 11h1v1h-1zM30 11h1v1h-1z"/><path fill="#684A38" d="M31 11h1v1h-1z"/><path fill="#DB9D72" d="M32 11h1v1h-1zM33 11h1v1h-1zM34 11h1v1h-1z"/><path fill="#D27C4A" d="M35 11h1v1h-1z"/><path fill="#CD6832" d="M36 11h1v1h-1zM37 11h1v1h-1zM38 11h1v1h-1z"/><path fill="#B4562C" d="M39 11h1v1h-1z"/><path fill="#7C2D1E" d="M40 11h1v1h-1zM41 11h1v1h-1zM42 11h1v1h-1zM43 11h1v1h-1z"/><path fill="#CEB0AB" d="M44 11h1v1h-1z"/><path fill="#FFF" d="M45 11h1v1h-1zM46 11h1v1h-1zM47 11h1v1h-1zM48 11h1v1h-1zM49 11h1v1h-1zM50 11h1v1h-1zM51 11h1v1h-1zM52 11h1v1h-1zM53 11h1v1h-1zM54 11h1v1h-1zM55 11h1v1h-1zM56 11h1v1h-1zM57 11h1v1h-1zM58 11h1v1h-1zM59 11h1v1h-1zM60 11h1v1h-1zM61 11h1v1h-1zM62 11h1v1h-1zM63 11h1v1h-1zM64 11h1v1h-1zM65 11h1v1h-1zM66 11h1v1h-1zM67 11h1v1h-1zM68 11h1v1h-1zM69 11h1v1h-1zM70 11h1v1h-1zM71 11h1v1h-1zM72 11h1v1h-1zM73 11h1v1h-1z"/><path fill="#C8C5C5" d="M74 11h1v1h-1z"/><path fill="#312624" d="M75 11h1v1h-1z"/><path fill="#231815" d="M76 11h1v1h-1zM77 11h1v1h-1zM78 11h1v1h-1zM79 11h1v1h-1zM80 11h1v1h-1zM25 12h1v1h-1zM26 12h1v1h-1zM27 12h1v1h-1zM28 12h1v1h-1zM29 12h1v1h-1z"/><path fill="#684A38" d="M30 12h1v1h-1z"/><path fill="#DB9D72" d="M31 12h1v1h-1zM32 12h1v1h-1zM33 12h1v1h-1z"/><path fill="#D6895A" d="M34 12h1v1h-1z"/><path fill="#CD6832" d="M35 12h1v1h-1zM36 12h1v1h-1zM37 12h1v1h-1z"/><path fill="#BE5D2E" d="M38 12h1v1h-1z"/><path fill="#81311F" d="M39 12h1v1h-1z"/><path fill="#7C2D1E" d="M40 12h1v1h-1zM41 12h1v1h-1zM42 12h1v1h-1z"/><path fill="#CEB0AB" d="M43 12h1v1h-1z"/><path fill="#FFF" d="M44 12h1v1h-1zM45 12h1v1h-1zM46 12h1v1h-1zM47 12h1v1h-1zM48 12h1v1h-1zM49 12h1v1h-1zM50 12h1v1h-1zM51 12h1v1h-1zM52 12h1v1h-1zM53 12h1v1h-1zM54 12h1v1h-1zM55 12h1v1h-1zM56 12h1v1h-1zM57 12h1v1h-1zM58 12h1v1h-1zM59 12h1v1h-1zM60 12h1v1h-1zM61 12h1v1h-1zM62 12h1v1h-1zM63 12h1v1h-1zM64 12h1v1h-1zM65 12h1v1h-1zM66 12h1v1h-1zM67 12h1v1h-1zM68 12h1v1h-1zM69 12h1v1h-1zM70 12h1v1h-1zM71 12h1v1h-1zM72 12h1v1h-1zM73 12h1v1h-1zM74 12h1v1h-1z"/><path fill="#E4E2E2" d="M75 12h1v1h-1z"/><path fill="#4C4341" d="M76 12h1v1h-1z"/><path fill="#231815" d="M77 12h1v1h-1zM78 12h1v1h-1zM79 12h1v1h-1zM80 12h1v1h-1zM81 12h1v1h-1zM25 13h1v1h-1zM26 13h1v1h-1zM27 13h1v1h-1zM28 13h1v1h-1z"/><path fill="#463126" d="M29 13h1v1h-1z"/><path fill="#D0956C" d="M30 13h1v1h-1z"/><path fill="#DB9D72" d="M31 13h1v1h-1zM32 13h1v1h-1z"/><path fill="#D6895A" d="M33 13h1v1h-1z"/><path fill="#CD6832" d="M34 13h1v1h-1zM35 13h1v1h-1zM36 13h1v1h-1z"/><path fill="#BE5D2E" d="M37 13h1v1h-1z"/><path fill="#81311F" d="M38 13h1v1h-1z"/><path fill="#7C2D1E" d="M39 13h1v1h-1zM40 13h1v1h-1zM41 13h1v1h-1z"/><path fill="#CEB0AB" d="M42 13h1v1h-1z"/><path fill="#FFF" d="M43 13h1v1h-1zM44 13h1v1h-1zM45 13h1v1h-1zM46 13h1v1h-1zM47 13h1v1h-1zM48 13h1v1h-1zM49 13h1v1h-1z"/><path fill="#F5F5F5" d="M50 13h1v1h-1z"/><path fill="#D7D8D7" d="M51 13h1v1h-1z"/><path fill="#C2C4C3" d="M52 13h1v1h-1z"/><path fill="#AEB0AF" d="M53 13h1v1h-1zM54 13h1v1h-1zM55 13h1v1h-1zM56 13h1v1h-1zM57 13h1v1h-1zM58 13h1v1h-1zM59 13h1v1h-1z"/><path fill="#868986" d="M60 13h1v1h-1zM61 13h1v1h-1zM62 13h1v1h-1zM63 13h1v1h-1z"/><path fill="#A4A6A4" d="M64 13h1v1h-1z"/><path fill="#AEB0AF" d="M65 13h1v1h-1zM66 13h1v1h-1zM67 13h1v1h-1z"/><path fill="#C2C4C3" d="M68 13h1v1h-1z"/><path fill="#FFF" d="M69 13h1v1h-1zM70 13h1v1h-1zM71 13h1v1h-1zM72 13h1v1h-1zM73 13h1v1h-1zM74 13h1v1h-1zM75 13h1v1h-1z"/><path fill="#F1F1F0" d="M76 13h1v1h-1z"/><path fill="#766F6D" d="M77 13h1v1h-1z"/><path fill="#231815" d="M78 13h1v1h-1zM79 13h1v1h-1zM80 13h1v1h-1zM81 13h1v1h-1zM82 13h1v1h-1zM24 14h1v1h-1zM25 14h1v1h-1zM26 14h1v1h-1zM27 14h1v1h-1z"/><path fill="#463126" d="M28 14h1v1h-1z"/><path fill="#D0956C" d="M29 14h1v1h-1z"/><path fill="#DB9D72" d="M30 14h1v1h-1zM31 14h1v1h-1z"/><path fill="#D89366" d="M32 14h1v1h-1z"/><path fill="#CE6B36" d="M33 14h1v1h-1z"/><path fill="#CD6832" d="M34 14h1v1h-1zM35 14h1v1h-1z"/><path fill="#BE5D2E" d="M36 14h1v1h-1z"/><path fill="#81311F" d="M37 14h1v1h-1z"/><path fill="#7C2D1E" d="M38 14h1v1h-1zM39 14h1v1h-1zM40 14h1v1h-1z"/><path fill="#B58980" d="M41 14h1v1h-1z"/><path fill="#FFF" d="M42 14h1v1h-1zM43 14h1v1h-1zM44 14h1v1h-1zM45 14h1v1h-1zM46 14h1v1h-1zM47 14h1v1h-1z"/><path fill="#EBEBEB" d="M48 14h1v1h-1z"/><path fill="#868986" d="M49 14h1v1h-1z"/><path fill="#5D615E" d="M50 14h1v1h-1zM51 14h1v1h-1zM52 14h1v1h-1zM53 14h1v1h-1zM54 14h1v1h-1zM55 14h1v1h-1zM56 14h1v1h-1zM57 14h1v1h-1zM58 14h1v1h-1zM59 14h1v1h-1zM60 14h1v1h-1zM61 14h1v1h-1zM62 14h1v1h-1zM63 14h1v1h-1zM64 14h1v1h-1zM65 14h1v1h-1zM66 14h1v1h-1zM67 14h1v1h-1zM68 14h1v1h-1z"/><path fill="#868986" d="M69 14h1v1h-1z"/><path fill="#EBEBEB" d="M70 14h1v1h-1z"/><path fill="#FFF" d="M71 14h1v1h-1zM72 14h1v1h-1zM73 14h1v1h-1zM74 14h1v1h-1zM75 14h1v1h-1zM76 14h1v1h-1zM77 14h1v1h-1z"/><path fill="#9F9A99" d="M78 14h1v1h-1z"/><path fill="#231815" d="M79 14h1v1h-1zM80 14h1v1h-1zM81 14h1v1h-1zM82 14h1v1h-1zM83 14h1v1h-1zM23 15h1v1h-1zM24 15h1v1h-1zM25 15h1v1h-1zM26 15h1v1h-1z"/><path fill="#2F201B" d="M27 15h1v1h-1z"/><path fill="#D0956C" d="M28 15h1v1h-1z"/><path fill="#DB9D72" d="M29 15h1v1h-1zM30 15h1v1h-1z"/><path fill="#D9966A" d="M31 15h1v1h-1z"/><path fill="#CE6B36" d="M32 15h1v1h-1z"/><path fill="#CD6832" d="M33 15h1v1h-1zM34 15h1v1h-1z"/><path fill="#C86431" d="M35 15h1v1h-1z"/><path fill="#8B3822" d="M36 15h1v1h-1z"/><path fill="#7C2D1E" d="M37 15h1v1h-1zM38 15h1v1h-1zM39 15h1v1h-1z"/><path fill="#AD7C72" d="M40 15h1v1h-1z"/><path fill="#FFF" d="M41 15h1v1h-1zM42 15h1v1h-1zM43 15h1v1h-1zM44 15h1v1h-1zM45 15h1v1h-1zM46 15h1v1h-1z"/><path fill="#E1E1E1" d="M47 15h1v1h-1z"/><path fill="#676B68" d="M48 15h1v1h-1z"/><path fill="#5D615E" d="M49 15h1v1h-1zM50 15h1v1h-1zM51 15h1v1h-1zM52 15h1v1h-1zM53 15h1v1h-1zM54 15h1v1h-1zM55 15h1v1h-1zM56 15h1v1h-1zM57 15h1v1h-1zM58 15h1v1h-1zM59 15h1v1h-1zM60 15h1v1h-1zM61 15h1v1h-1zM62 15h1v1h-1zM63 15h1v1h-1zM64 15h1v1h-1zM65 15h1v1h-1zM66 15h1v1h-1zM67 15h1v1h-1zM68 15h1v1h-1zM69 15h1v1h-1z"/><path fill="#676B68" d="M70 15h1v1h-1z"/><path fill="#CCCECD" d="M71 15h1v1h-1z"/><path fill="#FFF" d="M72 15h1v1h-1zM73 15h1v1h-1zM74 15h1v1h-1zM75 15h1v1h-1zM76 15h1v1h-1zM77 15h1v1h-1zM78 15h1v1h-1z"/><path fill="#BAB7B6" d="M79 15h1v1h-1z"/><path fill="#312624" d="M80 15h1v1h-1z"/><path fill="#231815" d="M81 15h1v1h-1zM82 15h1v1h-1zM83 15h1v1h-1zM84 15h1v1h-1zM22 16h1v1h-1zM23 16h1v1h-1zM24 16h1v1h-1zM25 16h1v1h-1z"/><path fill="#2F201B" d="M26 16h1v1h-1z"/><path fill="#B98461" d="M27 16h1v1h-1z"/><path fill="#DB9D72" d="M28 16h1v1h-1zM29 16h1v1h-1z"/><path fill="#DA9A6E" d="M30 16h1v1h-1z"/><path fill="#D0723E" d="M31 16h1v1h-1z"/><path fill="#CD6832" d="M32 16h1v1h-1zM33 16h1v1h-1z"/><path fill="#C86431" d="M34 16h1v1h-1z"/><path fill="#8B3822" d="M35 16h1v1h-1z"/><path fill="#7C2D1E" d="M36 16h1v1h-1zM37 16h1v1h-1zM38 16h1v1h-1z"/><path fill="#AD7C72" d="M39 16h1v1h-1z"/><path fill="#FFF" d="M40 16h1v1h-1zM41 16h1v1h-1zM42 16h1v1h-1zM43 16h1v1h-1zM44 16h1v1h-1zM45 16h1v1h-1z"/><path fill="#E1E1E1" d="M46 16h1v1h-1z"/><path fill="#676B68" d="M47 16h1v1h-1z"/><path fill="#5D615E" d="M48 16h1v1h-1zM49 16h1v1h-1zM50 16h1v1h-1zM51 16h1v1h-1z"/><path fill="#5B6767" d="M52 16h1v1h-1z"/><path fill="#547880" d="M53 16h1v1h-1zM54 16h1v1h-1zM55 16h1v1h-1zM56 16h1v1h-1zM57 16h1v1h-1z"/><path fill="#4E899A" d="M58 16h1v1h-1z"/><path fill="#4C8FA3" d="M59 16h1v1h-1zM60 16h1v1h-1zM61 16h1v1h-1zM62 16h1v1h-1zM63 16h1v1h-1z"/><path fill="#4E899A" d="M64 16h1v1h-1z"/><path fill="#547880" d="M65 16h1v1h-1zM66 16h1v1h-1z"/><path fill="#596D6F" d="M67 16h1v1h-1z"/><path fill="#5D615E" d="M68 16h1v1h-1zM69 16h1v1h-1zM70 16h1v1h-1zM71 16h1v1h-1z"/><path fill="#A4A6A4" d="M72 16h1v1h-1z"/><path fill="#FFF" d="M73 16h1v1h-1zM74 16h1v1h-1zM75 16h1v1h-1zM76 16h1v1h-1zM77 16h1v1h-1zM78 16h1v1h-1zM79 16h1v1h-1z"/><path fill="#D6D4D3" d="M80 16h1v1h-1z"/><path fill="#312624" d="M81 16h1v1h-1z"/><path fill="#231815" d="M82 16h1v1h-1zM83 16h1v1h-1zM84 16h1v1h-1zM85 16h1v1h-1zM21 17h1v1h-1zM22 17h1v1h-1zM23 17h1v1h-1zM24 17h1v1h-1zM25 17h1v1h-1z"/><path fill="#B98461" d="M26 17h1v1h-1z"/><path fill="#DB9D72" d="M27 17h1v1h-1zM28 17h1v1h-1zM29 17h1v1h-1z"/><path fill="#D17542" d="M30 17h1v1h-1z"/><path fill="#CD6832" d="M31 17h1v1h-1zM32 17h1v1h-1z"/><path fill="#C86431" d="M33 17h1v1h-1z"/><path fill="#8B3822" d="M34 17h1v1h-1z"/><path fill="#7C2D1E" d="M35 17h1v1h-1zM36 17h1v1h-1zM37 17h1v1h-1z"/><path fill="#9D6256" d="M38 17h1v1h-1z"/><path fill="#FFF" d="M39 17h1v1h-1zM40 17h1v1h-1zM41 17h1v1h-1zM42 17h1v1h-1zM43 17h1v1h-1zM44 17h1v1h-1z"/><path fill="#E1E1E1" d="M45 17h1v1h-1z"/><path fill="#676B68" d="M46 17h1v1h-1z"/><path fill="#5D615E" d="M47 17h1v1h-1zM48 17h1v1h-1zM49 17h1v1h-1z"/><path fill="#508491" d="M50 17h1v1h-1z"/><path fill="#3CB7DE" d="M51 17h1v1h-1z"/><path fill="#3ABDE7" d="M52 17h1v1h-1zM53 17h1v1h-1zM54 17h1v1h-1zM55 17h1v1h-1zM56 17h1v1h-1zM57 17h1v1h-1zM58 17h1v1h-1zM59 17h1v1h-1zM60 17h1v1h-1zM61 17h1v1h-1zM62 17h1v1h-1zM63 17h1v1h-1zM64 17h1v1h-1zM65 17h1v1h-1zM66 17h1v1h-1z"/><path fill="#3CB7DE" d="M67 17h1v1h-1z"/><path fill="#508491" d="M68 17h1v1h-1z"/><path fill="#5D615E" d="M69 17h1v1h-1zM70 17h1v1h-1zM71 17h1v1h-1zM72 17h1v1h-1z"/><path fill="#7B7F7C" d="M73 17h1v1h-1z"/><path fill="#F5F5F5" d="M74 17h1v1h-1z"/><path fill="#FFF" d="M75 17h1v1h-1zM76 17h1v1h-1zM77 17h1v1h-1zM78 17h1v1h-1zM79 17h1v1h-1zM80 17h1v1h-1z"/><path fill="#D6D4D3" d="M81 17h1v1h-1z"/><path fill="#3F3532" d="M82 17h1v1h-1z"/><path fill="#231815" d="M83 17h1v1h-1zM84 17h1v1h-1zM85 17h1v1h-1zM20 18h1v1h-1zM21 18h1v1h-1zM22 18h1v1h-1zM23 18h1v1h-1zM24 18h1v1h-1z"/><path fill="#966B4F" d="M25 18h1v1h-1z"/><path fill="#DB9D72" d="M26 18h1v1h-1zM27 18h1v1h-1zM28 18h1v1h-1z"/><path fill="#D27C4A" d="M29 18h1v1h-1z"/><path fill="#CD6832" d="M30 18h1v1h-1zM31 18h1v1h-1zM32 18h1v1h-1z"/><path fill="#953F24" d="M33 18h1v1h-1z"/><path fill="#7C2D1E" d="M34 18h1v1h-1zM35 18h1v1h-1zM36 18h1v1h-1z"/><path fill="#955448" d="M37 18h1v1h-1z"/><path fill="#F7F2F1" d="M38 18h1v1h-1z"/><path fill="#FFF" d="M39 18h1v1h-1zM40 18h1v1h-1zM41 18h1v1h-1zM42 18h1v1h-1zM43 18h1v1h-1z"/><path fill="#EBEBEB" d="M44 18h1v1h-1z"/><path fill="#676B68" d="M45 18h1v1h-1z"/><path fill="#5D615E" d="M46 18h1v1h-1zM47 18h1v1h-1zM48 18h1v1h-1z"/><path fill="#508491" d="M49 18h1v1h-1z"/><path fill="#3ABDE7" d="M50 18h1v1h-1zM51 18h1v1h-1zM52 18h1v1h-1zM53 18h1v1h-1zM54 18h1v1h-1zM55 18h1v1h-1zM56 18h1v1h-1zM57 18h1v1h-1zM58 18h1v1h-1zM59 18h1v1h-1zM60 18h1v1h-1zM61 18h1v1h-1zM62 18h1v1h-1zM63 18h1v1h-1zM64 18h1v1h-1zM65 18h1v1h-1zM66 18h1v1h-1zM67 18h1v1h-1zM68 18h1v1h-1z"/><path fill="#479BB4" d="M69 18h1v1h-1z"/><path fill="#5B6767" d="M70 18h1v1h-1z"/><path fill="#5D615E" d="M71 18h1v1h-1zM72 18h1v1h-1zM73 18h1v1h-1z"/><path fill="#7B7F7C" d="M74 18h1v1h-1z"/><path fill="#F5F5F5" d="M75 18h1v1h-1z"/><path fill="#FFF" d="M76 18h1v1h-1zM77 18h1v1h-1zM78 18h1v1h-1zM79 18h1v1h-1zM80 18h1v1h-1zM81 18h1v1h-1z"/><path fill="#766F6D" d="M82 18h1v1h-1z"/><path fill="#231815" d="M83 18h1v1h-1zM84 18h1v1h-1zM85 18h1v1h-1zM19 19h1v1h-1zM20 19h1v1h-1zM21 19h1v1h-1zM22 19h1v1h-1zM23 19h1v1h-1z"/><path fill="#966B4F" d="M24 19h1v1h-1z"/><path fill="#DB9D72" d="M25 19h1v1h-1zM26 19h1v1h-1zM27 19h1v1h-1z"/><path fill="#D58656" d="M28 19h1v1h-1z"/><path fill="#CD6832" d="M29 19h1v1h-1zM30 19h1v1h-1zM31 19h1v1h-1z"/><path fill="#9A4326" d="M32 19h1v1h-1z"/><path fill="#7C2D1E" d="M33 19h1v1h-1zM34 19h1v1h-1zM35 19h1v1h-1z"/><path fill="#955448" d="M36 19h1v1h-1z"/><path fill="#F7F2F1" d="M37 19h1v1h-1z"/><path fill="#FFF" d="M38 19h1v1h-1zM39 19h1v1h-1zM40 19h1v1h-1zM41 19h1v1h-1zM42 19h1v1h-1z"/><path fill="#F5F5F5" d="M43 19h1v1h-1z"/><path fill="#7B7F7C" d="M44 19h1v1h-1z"/><path fill="#5D615E" d="M45 19h1v1h-1zM46 19h1v1h-1zM47 19h1v1h-1z"/><path fill="#508491" d="M48 19h1v1h-1z"/><path fill="#3ABDE7" d="M49 19h1v1h-1zM50 19h1v1h-1zM51 19h1v1h-1zM52 19h1v1h-1zM53 19h1v1h-1zM54 19h1v1h-1zM55 19h1v1h-1zM56 19h1v1h-1zM57 19h1v1h-1zM58 19h1v1h-1zM59 19h1v1h-1zM60 19h1v1h-1zM61 19h1v1h-1zM62 19h1v1h-1zM63 19h1v1h-1zM64 19h1v1h-1zM65 19h1v1h-1zM66 19h1v1h-1zM67 19h1v1h-1zM68 19h1v1h-1zM69 19h1v1h-1z"/><path fill="#41ACCD" d="M70 19h1v1h-1z"/><path fill="#567278" d="M71 19h1v1h-1z"/><path fill="#5D615E" d="M72 19h1v1h-1zM73 19h1v1h-1zM74 19h1v1h-1z"/><path fill="#B8BAB9" d="M75 19h1v1h-1z"/><path fill="#FFF" d="M76 19h1v1h-1zM77 19h1v1h-1zM78 19h1v1h-1zM79 19h1v1h-1zM80 19h1v1h-1zM81 19h1v1h-1z"/><path fill="#918C8A" d="M82 19h1v1h-1z"/><path fill="#231815" d="M83 19h1v1h-1zM84 19h1v1h-1zM85 19h1v1h-1zM18 20h1v1h-1zM19 20h1v1h-1zM20 20h1v1h-1zM21 20h1v1h-1zM22 20h1v1h-1z"/><path fill="#684A38" d="M23 20h1v1h-1z"/><path fill="#DB9D72" d="M24 20h1v1h-1zM25 20h1v1h-1zM26 20h1v1h-1z"/><path fill="#D6895A" d="M27 20h1v1h-1z"/><path fill="#CD6832" d="M28 20h1v1h-1zM29 20h1v1h-1zM30 20h1v1h-1z"/><path fill="#9A4326" d="M31 20h1v1h-1z"/><path fill="#7C2D1E" d="M32 20h1v1h-1zM33 20h1v1h-1zM34 20h1v1h-1z"/><path fill="#843A2C" d="M35 20h1v1h-1z"/><path fill="#F7F2F1" d="M36 20h1v1h-1z"/><path fill="#FFF" d="M37 20h1v1h-1zM38 20h1v1h-1zM39 20h1v1h-1zM40 20h1v1h-1zM41 20h1v1h-1zM42 20h1v1h-1z"/><path fill="#868986" d="M43 20h1v1h-1z"/><path fill="#5D615E" d="M44 20h1v1h-1zM45 20h1v1h-1zM46 20h1v1h-1z"/><path fill="#508491" d="M47 20h1v1h-1z"/><path fill="#3ABDE7" d="M48 20h1v1h-1zM49 20h1v1h-1zM50 20h1v1h-1zM51 20h1v1h-1zM52 20h1v1h-1zM53 20h1v1h-1zM54 20h1v1h-1zM55 20h1v1h-1zM56 20h1v1h-1zM57 20h1v1h-1zM58 20h1v1h-1zM59 20h1v1h-1zM60 20h1v1h-1zM61 20h1v1h-1zM62 20h1v1h-1zM63 20h1v1h-1zM64 20h1v1h-1zM65 20h1v1h-1zM66 20h1v1h-1z"/><path fill="#84D6F0" d="M67 20h1v1h-1z"/><path fill="#9DDEF3" d="M68 20h1v1h-1z"/><path fill="#78D2EF" d="M69 20h1v1h-1z"/><path fill="#3ABDE7" d="M70 20h1v1h-1z"/><path fill="#3CB7DE" d="M71 20h1v1h-1z"/><path fill="#596D6F" d="M72 20h1v1h-1z"/><path fill="#5D615E" d="M73 20h1v1h-1zM74 20h1v1h-1z"/><path fill="#AEB0AF" d="M75 20h1v1h-1z"/><path fill="#FFF" d="M76 20h1v1h-1zM77 20h1v1h-1zM78 20h1v1h-1zM79 20h1v1h-1zM80 20h1v1h-1zM81 20h1v1h-1z"/><path fill="#918C8A" d="M82 20h1v1h-1z"/><path fill="#231815" d="M83 20h1v1h-1zM84 20h1v1h-1zM85 20h1v1h-1zM18 21h1v1h-1zM19 21h1v1h-1zM20 21h1v1h-1zM21 21h1v1h-1z"/><path fill="#5D4232" d="M22 21h1v1h-1z"/><path fill="#DB9D72" d="M23 21h1v1h-1zM24 21h1v1h-1zM25 21h1v1h-1z"/><path fill="#D89366" d="M26 21h1v1h-1z"/><path fill="#CE6B36" d="M27 21h1v1h-1z"/><path fill="#CD6832" d="M28 21h1v1h-1zM29 21h1v1h-1z"/><path fill="#AF522B" d="M30 21h1v1h-1z"/><path fill="#7C2D1E" d="M31 21h1v1h-1zM32 21h1v1h-1zM33 21h1v1h-1z"/><path fill="#843A2C" d="M34 21h1v1h-1z"/><path fill="#E6D8D5" d="M35 21h1v1h-1z"/><path fill="#FFF" d="M36 21h1v1h-1zM37 21h1v1h-1zM38 21h1v1h-1zM39 21h1v1h-1zM40 21h1v1h-1zM41 21h1v1h-1z"/><path fill="#9A9C9A" d="M42 21h1v1h-1z"/><path fill="#5D615E" d="M43 21h1v1h-1zM44 21h1v1h-1zM45 21h1v1h-1z"/><path fill="#567278" d="M46 21h1v1h-1z"/><path fill="#3ABDE7" d="M47 21h1v1h-1zM48 21h1v1h-1zM49 21h1v1h-1zM50 21h1v1h-1zM51 21h1v1h-1zM52 21h1v1h-1zM53 21h1v1h-1zM54 21h1v1h-1zM55 21h1v1h-1zM56 21h1v1h-1zM57 21h1v1h-1zM58 21h1v1h-1zM59 21h1v1h-1zM60 21h1v1h-1zM61 21h1v1h-1zM62 21h1v1h-1zM63 21h1v1h-1zM64 21h1v1h-1z"/><path fill="#46C1E9" d="M65 21h1v1h-1z"/><path fill="#DAF3FB" d="M66 21h1v1h-1z"/><path fill="#FFF" d="M67 21h1v1h-1zM68 21h1v1h-1zM69 21h1v1h-1z"/><path fill="#5FC9EC" d="M70 21h1v1h-1z"/><path fill="#3ABDE7" d="M71 21h1v1h-1z"/><path fill="#5B6767" d="M72 21h1v1h-1z"/><path fill="#5D615E" d="M73 21h1v1h-1zM74 21h1v1h-1z"/><path fill="#C2C4C3" d="M75 21h1v1h-1z"/><path fill="#FFF" d="M76 21h1v1h-1zM77 21h1v1h-1zM78 21h1v1h-1zM79 21h1v1h-1zM80 21h1v1h-1zM81 21h1v1h-1z"/><path fill="#9F9A99" d="M82 21h1v1h-1z"/><path fill="#231815" d="M83 21h1v1h-1zM84 21h1v1h-1zM85 21h1v1h-1zM17 22h1v1h-1zM18 22h1v1h-1zM19 22h1v1h-1zM20 22h1v1h-1z"/><path fill="#463126" d="M21 22h1v1h-1z"/><path fill="#D0956C" d="M22 22h1v1h-1z"/><path fill="#DB9D72" d="M23 22h1v1h-1zM24 22h1v1h-1z"/><path fill="#D9966A" d="M25 22h1v1h-1z"/><path fill="#CE6B36" d="M26 22h1v1h-1z"/><path fill="#CD6832" d="M27 22h1v1h-1zM28 22h1v1h-1z"/><path fill="#AF522B" d="M29 22h1v1h-1z"/><path fill="#7C2D1E" d="M30 22h1v1h-1zM31 22h1v1h-1zM32 22h1v1h-1z"/><path fill="#843A2C" d="M33 22h1v1h-1z"/><path fill="#E6D8D5" d="M34 22h1v1h-1z"/><path fill="#FFF" d="M35 22h1v1h-1zM36 22h1v1h-1zM37 22h1v1h-1zM38 22h1v1h-1zM39 22h1v1h-1zM40 22h1v1h-1z"/><path fill="#C2C4C3" d="M41 22h1v1h-1z"/><path fill="#5D615E" d="M42 22h1v1h-1zM43 22h1v1h-1zM44 22h1v1h-1z"/><path fill="#567278" d="M45 22h1v1h-1z"/><path fill="#3CB7DE" d="M46 22h1v1h-1z"/><path fill="#3ABDE7" d="M47 22h1v1h-1zM48 22h1v1h-1zM49 22h1v1h-1zM50 22h1v1h-1zM51 22h1v1h-1zM52 22h1v1h-1zM53 22h1v1h-1zM54 22h1v1h-1zM55 22h1v1h-1zM56 22h1v1h-1zM57 22h1v1h-1zM58 22h1v1h-1zM59 22h1v1h-1zM60 22h1v1h-1zM61 22h1v1h-1zM62 22h1v1h-1zM63 22h1v1h-1z"/><path fill="#46C1E9" d="M64 22h1v1h-1z"/><path fill="#DAF3FB" d="M65 22h1v1h-1z"/><path fill="#FFF" d="M66 22h1v1h-1zM67 22h1v1h-1zM68 22h1v1h-1zM69 22h1v1h-1z"/><path fill="#9DDEF3" d="M70 22h1v1h-1z"/><path fill="#3ABDE7" d="M71 22h1v1h-1z"/><path fill="#5D615E" d="M72 22h1v1h-1zM73 22h1v1h-1zM74 22h1v1h-1z"/><path fill="#D7D8D7" d="M75 22h1v1h-1z"/><path fill="#FFF" d="M76 22h1v1h-1zM77 22h1v1h-1zM78 22h1v1h-1zM79 22h1v1h-1zM80 22h1v1h-1zM81 22h1v1h-1z"/><path fill="#C8C5C5" d="M82 22h1v1h-1z"/><path fill="#231815" d="M83 22h1v1h-1zM84 22h1v1h-1zM85 22h1v1h-1zM17 23h1v1h-1zM18 23h1v1h-1zM19 23h1v1h-1z"/><path fill="#2F201B" d="M20 23h1v1h-1z"/><path fill="#C48C66" d="M21 23h1v1h-1z"/><path fill="#DB9D72" d="M22 23h1v1h-1zM23 23h1v1h-1z"/><path fill="#DA9A6E" d="M24 23h1v1h-1z"/><path fill="#D0723E" d="M25 23h1v1h-1z"/><path fill="#CD6832" d="M26 23h1v1h-1zM27 23h1v1h-1z"/><path fill="#B9592D" d="M28 23h1v1h-1z"/><path fill="#7C2D1E" d="M29 23h1v1h-1zM30 23h1v1h-1zM31 23h1v1h-1zM32 23h1v1h-1z"/><path fill="#DECBC7" d="M33 23h1v1h-1z"/><path fill="#FFF" d="M34 23h1v1h-1zM35 23h1v1h-1zM36 23h1v1h-1zM37 23h1v1h-1zM38 23h1v1h-1zM39 23h1v1h-1z"/><path fill="#E1E1E1" d="M40 23h1v1h-1z"/><path fill="#5D615E" d="M41 23h1v1h-1zM42 23h1v1h-1zM43 23h1v1h-1z"/><path fill="#5B6767" d="M44 23h1v1h-1z"/><path fill="#41ACCD" d="M45 23h1v1h-1z"/><path fill="#3ABDE7" d="M46 23h1v1h-1zM47 23h1v1h-1zM48 23h1v1h-1zM49 23h1v1h-1zM50 23h1v1h-1zM51 23h1v1h-1zM52 23h1v1h-1zM53 23h1v1h-1zM54 23h1v1h-1zM55 23h1v1h-1zM56 23h1v1h-1zM57 23h1v1h-1zM58 23h1v1h-1zM59 23h1v1h-1zM60 23h1v1h-1zM61 23h1v1h-1zM62 23h1v1h-1zM63 23h1v1h-1z"/><path fill="#DAF3FB" d="M64 23h1v1h-1z"/><path fill="#FFF" d="M65 23h1v1h-1zM66 23h1v1h-1zM67 23h1v1h-1zM68 23h1v1h-1zM69 23h1v1h-1z"/><path fill="#90DAF2" d="M70 23h1v1h-1z"/><path fill="#3ABDE7" d="M71 23h1v1h-1z"/><path fill="#5D615E" d="M72 23h1v1h-1zM73 23h1v1h-1zM74 23h1v1h-1z"/><path fill="#D7D8D7" d="M75 23h1v1h-1z"/><path fill="#FFF" d="M76 23h1v1h-1zM77 23h1v1h-1zM78 23h1v1h-1zM79 23h1v1h-1zM80 23h1v1h-1zM81 23h1v1h-1z"/><path fill="#C8C5C5" d="M82 23h1v1h-1z"/><path fill="#231815" d="M83 23h1v1h-1zM84 23h1v1h-1zM85 23h1v1h-1zM16 24h1v1h-1zM17 24h1v1h-1zM18 24h1v1h-1zM19 24h1v1h-1z"/><path fill="#AD7C5B" d="M20 24h1v1h-1z"/><path fill="#DB9D72" d="M21 24h1v1h-1z"/><path fill="#DA9A6E" d="M22 24h1v1h-1z"/><path fill="#D6895A" d="M23 24h1v1h-1z"/><path fill="#CF6F3A" d="M24 24h1v1h-1z"/><path fill="#CD6832" d="M25 24h1v1h-1zM26 24h1v1h-1z"/><path fill="#BE5D2E" d="M27 24h1v1h-1z"/><path fill="#81311F" d="M28 24h1v1h-1z"/><path fill="#7C2D1E" d="M29 24h1v1h-1zM30 24h1v1h-1zM31 24h1v1h-1z"/><path fill="#CEB0AB" d="M32 24h1v1h-1z"/><path fill="#FFF" d="M33 24h1v1h-1zM34 24h1v1h-1zM35 24h1v1h-1zM36 24h1v1h-1zM37 24h1v1h-1zM38 24h1v1h-1z"/><path fill="#F5F5F5" d="M39 24h1v1h-1z"/><path fill="#717572" d="M40 24h1v1h-1z"/><path fill="#5D615E" d="M41 24h1v1h-1zM42 24h1v1h-1zM43 24h1v1h-1z"/><path fill="#45A0BC" d="M44 24h1v1h-1z"/><path fill="#3ABDE7" d="M45 24h1v1h-1zM46 24h1v1h-1zM47 24h1v1h-1zM48 24h1v1h-1zM49 24h1v1h-1zM50 24h1v1h-1zM51 24h1v1h-1zM52 24h1v1h-1zM53 24h1v1h-1zM54 24h1v1h-1zM55 24h1v1h-1zM56 24h1v1h-1zM57 24h1v1h-1zM58 24h1v1h-1zM59 24h1v1h-1zM60 24h1v1h-1zM61 24h1v1h-1zM62 24h1v1h-1z"/><path fill="#90DAF2" d="M63 24h1v1h-1z"/><path fill="#FFF" d="M64 24h1v1h-1zM65 24h1v1h-1zM66 24h1v1h-1zM67 24h1v1h-1zM68 24h1v1h-1zM69 24h1v1h-1z"/><path fill="#5FC9EC" d="M70 24h1v1h-1z"/><path fill="#3ABDE7" d="M71 24h1v1h-1z"/><path fill="#5D615E" d="M72 24h1v1h-1zM73 24h1v1h-1zM74 24h1v1h-1z"/><path fill="#D7D8D7" d="M75 24h1v1h-1z"/><path fill="#FFF" d="M76 24h1v1h-1zM77 24h1v1h-1zM78 24h1v1h-1zM79 24h1v1h-1zM80 24h1v1h-1zM81 24h1v1h-1z"/><path fill="#C8C5C5" d="M82 24h1v1h-1z"/><path fill="#231815" d="M83 24h1v1h-1zM84 24h1v1h-1zM85 24h1v1h-1zM16 25h1v1h-1zM17 25h1v1h-1zM18 25h1v1h-1zM19 25h1v1h-1z"/><path fill="#D17542" d="M20 25h1v1h-1z"/><path fill="#CE6B36" d="M21 25h1v1h-1z"/><path fill="#CD6832" d="M22 25h1v1h-1zM23 25h1v1h-1zM24 25h1v1h-1zM25 25h1v1h-1z"/><path fill="#C86431" d="M26 25h1v1h-1z"/><path fill="#863421" d="M27 25h1v1h-1z"/><path fill="#7C2D1E" d="M28 25h1v1h-1zM29 25h1v1h-1zM30 25h1v1h-1z"/><path fill="#C6A39D" d="M31 25h1v1h-1z"/><path fill="#FFF" d="M32 25h1v1h-1zM33 25h1v1h-1zM34 25h1v1h-1zM35 25h1v1h-1zM36 25h1v1h-1zM37 25h1v1h-1zM38 25h1v1h-1z"/><path fill="#909290" d="M39 25h1v1h-1z"/><path fill="#5D615E" d="M40 25h1v1h-1zM41 25h1v1h-1zM42 25h1v1h-1z"/><path fill="#4C8FA3" d="M43 25h1v1h-1z"/><path fill="#3ABDE7" d="M44 25h1v1h-1zM45 25h1v1h-1zM46 25h1v1h-1zM47 25h1v1h-1zM48 25h1v1h-1zM49 25h1v1h-1zM50 25h1v1h-1zM51 25h1v1h-1zM52 25h1v1h-1zM53 25h1v1h-1zM54 25h1v1h-1zM55 25h1v1h-1zM56 25h1v1h-1zM57 25h1v1h-1zM58 25h1v1h-1zM59 25h1v1h-1zM60 25h1v1h-1zM61 25h1v1h-1zM62 25h1v1h-1z"/><path fill="#F3FBFE" d="M63 25h1v1h-1z"/><path fill="#FFF" d="M64 25h1v1h-1zM65 25h1v1h-1zM66 25h1v1h-1zM67 25h1v1h-1zM68 25h1v1h-1z"/><path fill="#E6F7FC" d="M69 25h1v1h-1z"/><path fill="#3ABDE7" d="M70 25h1v1h-1z"/><path fill="#3EB2D6" d="M71 25h1v1h-1z"/><path fill="#5D615E" d="M72 25h1v1h-1zM73 25h1v1h-1zM74 25h1v1h-1z"/><path fill="#E1E1E1" d="M75 25h1v1h-1z"/><path fill="#FFF" d="M76 25h1v1h-1zM77 25h1v1h-1zM78 25h1v1h-1zM79 25h1v1h-1zM80 25h1v1h-1zM81 25h1v1h-1z"/><path fill="#C8C5C5" d="M82 25h1v1h-1z"/><path fill="#231815" d="M83 25h1v1h-1zM84 25h1v1h-1zM85 25h1v1h-1zM16 26h1v1h-1zM17 26h1v1h-1zM18 26h1v1h-1zM19 26h1v1h-1z"/><path fill="#CD6832" d="M20 26h1v1h-1zM21 26h1v1h-1zM22 26h1v1h-1zM23 26h1v1h-1zM24 26h1v1h-1zM25 26h1v1h-1z"/><path fill="#9A4326" d="M26 26h1v1h-1z"/><path fill="#7C2D1E" d="M27 26h1v1h-1zM28 26h1v1h-1zM29 26h1v1h-1z"/><path fill="#AD7C72" d="M30 26h1v1h-1z"/><path fill="#FFF" d="M31 26h1v1h-1zM32 26h1v1h-1zM33 26h1v1h-1zM34 26h1v1h-1zM35 26h1v1h-1zM36 26h1v1h-1zM37 26h1v1h-1z"/><path fill="#CCCECD" d="M38 26h1v1h-1z"/><path fill="#5D615E" d="M39 26h1v1h-1zM40 26h1v1h-1zM41 26h1v1h-1z"/><path fill="#547880" d="M42 26h1v1h-1z"/><path fill="#3ABDE7" d="M43 26h1v1h-1zM44 26h1v1h-1zM45 26h1v1h-1zM46 26h1v1h-1zM47 26h1v1h-1zM48 26h1v1h-1zM49 26h1v1h-1zM50 26h1v1h-1zM51 26h1v1h-1zM52 26h1v1h-1zM53 26h1v1h-1zM54 26h1v1h-1zM55 26h1v1h-1zM56 26h1v1h-1zM57 26h1v1h-1zM58 26h1v1h-1zM59 26h1v1h-1zM60 26h1v1h-1zM61 26h1v1h-1z"/><path fill="#84D6F0" d="M62 26h1v1h-1z"/><path fill="#FFF" d="M63 26h1v1h-1zM64 26h1v1h-1zM65 26h1v1h-1zM66 26h1v1h-1zM67 26h1v1h-1zM68 26h1v1h-1z"/><path fill="#9DDEF3" d="M69 26h1v1h-1z"/><path fill="#3ABDE7" d="M70 26h1v1h-1z"/><path fill="#43A6C5" d="M71 26h1v1h-1z"/><path fill="#5D615E" d="M72 26h1v1h-1zM73 26h1v1h-1zM74 26h1v1h-1z"/><path fill="#FFF" d="M75 26h1v1h-1zM76 26h1v1h-1zM77 26h1v1h-1zM78 26h1v1h-1zM79 26h1v1h-1zM80 26h1v1h-1zM81 26h1v1h-1z"/><path fill="#C8C5C5" d="M82 26h1v1h-1z"/><path fill="#231815" d="M83 26h1v1h-1zM84 26h1v1h-1zM85 26h1v1h-1zM16 27h1v1h-1zM17 27h1v1h-1zM18 27h1v1h-1zM19 27h1v1h-1z"/><path fill="#CD6832" d="M20 27h1v1h-1zM21 27h1v1h-1zM22 27h1v1h-1zM23 27h1v1h-1zM24 27h1v1h-1zM25 27h1v1h-1z"/><path fill="#8B3822" d="M26 27h1v1h-1z"/><path fill="#7C2D1E" d="M27 27h1v1h-1zM28 27h1v1h-1z"/><path fill="#A56F64" d="M29 27h1v1h-1z"/><path fill="#FFF" d="M30 27h1v1h-1zM31 27h1v1h-1zM32 27h1v1h-1zM33 27h1v1h-1zM34 27h1v1h-1zM35 27h1v1h-1zM36 27h1v1h-1zM37 27h1v1h-1z"/><path fill="#717572" d="M38 27h1v1h-1z"/><path fill="#5D615E" d="M39 27h1v1h-1zM40 27h1v1h-1z"/><path fill="#5B6767" d="M41 27h1v1h-1z"/><path fill="#3CB7DE" d="M42 27h1v1h-1z"/><path fill="#3ABDE7" d="M43 27h1v1h-1zM44 27h1v1h-1zM45 27h1v1h-1zM46 27h1v1h-1zM47 27h1v1h-1zM48 27h1v1h-1zM49 27h1v1h-1zM50 27h1v1h-1zM51 27h1v1h-1zM52 27h1v1h-1zM53 27h1v1h-1zM54 27h1v1h-1zM55 27h1v1h-1zM56 27h1v1h-1zM57 27h1v1h-1zM58 27h1v1h-1zM59 27h1v1h-1zM60 27h1v1h-1zM61 27h1v1h-1z"/><path fill="#B5E6F6" d="M62 27h1v1h-1z"/><path fill="#FFF" d="M63 27h1v1h-1zM64 27h1v1h-1zM65 27h1v1h-1zM66 27h1v1h-1zM67 27h1v1h-1z"/><path fill="#DAF3FB" d="M68 27h1v1h-1z"/><path fill="#3ABDE7" d="M69 27h1v1h-1zM70 27h1v1h-1z"/><path fill="#45A0BC" d="M71 27h1v1h-1z"/><path fill="#5D615E" d="M72 27h1v1h-1zM73 27h1v1h-1zM74 27h1v1h-1z"/><path fill="#FFF" d="M75 27h1v1h-1zM76 27h1v1h-1zM77 27h1v1h-1zM78 27h1v1h-1zM79 27h1v1h-1zM80 27h1v1h-1zM81 27h1v1h-1z"/><path fill="#C8C5C5" d="M82 27h1v1h-1z"/><path fill="#231815" d="M83 27h1v1h-1zM84 27h1v1h-1zM85 27h1v1h-1zM16 28h1v1h-1zM17 28h1v1h-1zM18 28h1v1h-1zM19 28h1v1h-1z"/><path fill="#CD6832" d="M20 28h1v1h-1zM21 28h1v1h-1zM22 28h1v1h-1zM23 28h1v1h-1zM24 28h1v1h-1zM25 28h1v1h-1z"/><path fill="#7C2D1E" d="M26 28h1v1h-1zM27 28h1v1h-1zM28 28h1v1h-1z"/><path fill="#D6BDB9" d="M29 28h1v1h-1z"/><path fill="#FFF" d="M30 28h1v1h-1zM31 28h1v1h-1zM32 28h1v1h-1zM33 28h1v1h-1zM34 28h1v1h-1zM35 28h1v1h-1zM36 28h1v1h-1z"/><path fill="#D7D8D7" d="M37 28h1v1h-1z"/><path fill="#5D615E" d="M38 28h1v1h-1zM39 28h1v1h-1zM40 28h1v1h-1z"/><path fill="#45A0BC" d="M41 28h1v1h-1z"/><path fill="#3ABDE7" d="M42 28h1v1h-1zM43 28h1v1h-1zM44 28h1v1h-1zM45 28h1v1h-1zM46 28h1v1h-1zM47 28h1v1h-1zM48 28h1v1h-1zM49 28h1v1h-1zM50 28h1v1h-1zM51 28h1v1h-1zM52 28h1v1h-1zM53 28h1v1h-1zM54 28h1v1h-1zM55 28h1v1h-1zM56 28h1v1h-1zM57 28h1v1h-1zM58 28h1v1h-1zM59 28h1v1h-1zM60 28h1v1h-1zM61 28h1v1h-1z"/><path fill="#CEEFF9" d="M62 28h1v1h-1z"/><path fill="#FFF" d="M63 28h1v1h-1zM64 28h1v1h-1zM65 28h1v1h-1zM66 28h1v1h-1z"/><path fill="#F3FBFE" d="M67 28h1v1h-1z"/><path fill="#5FC9EC" d="M68 28h1v1h-1z"/><path fill="#3ABDE7" d="M69 28h1v1h-1zM70 28h1v1h-1z"/><path fill="#547880" d="M71 28h1v1h-1z"/><path fill="#5D615E" d="M72 28h1v1h-1zM73 28h1v1h-1z"/><path fill="#7B7F7C" d="M74 28h1v1h-1z"/><path fill="#FFF" d="M75 28h1v1h-1zM76 28h1v1h-1zM77 28h1v1h-1zM78 28h1v1h-1zM79 28h1v1h-1zM80 28h1v1h-1zM81 28h1v1h-1z"/><path fill="#C8C5C5" d="M82 28h1v1h-1z"/><path fill="#231815" d="M83 28h1v1h-1zM84 28h1v1h-1zM85 28h1v1h-1zM16 29h1v1h-1zM17 29h1v1h-1zM18 29h1v1h-1zM19 29h1v1h-1z"/><path fill="#CD6832" d="M20 29h1v1h-1zM21 29h1v1h-1zM22 29h1v1h-1zM23 29h1v1h-1zM24 29h1v1h-1zM25 29h1v1h-1z"/><path fill="#7C2D1E" d="M26 29h1v1h-1zM27 29h1v1h-1zM28 29h1v1h-1z"/><path fill="#DECBC7" d="M29 29h1v1h-1z"/><path fill="#FFF" d="M30 29h1v1h-1zM31 29h1v1h-1zM32 29h1v1h-1zM33 29h1v1h-1zM34 29h1v1h-1zM35 29h1v1h-1zM36 29h1v1h-1z"/><path fill="#D7D8D7" d="M37 29h1v1h-1z"/><path fill="#5D615E" d="M38 29h1v1h-1zM39 29h1v1h-1zM40 29h1v1h-1z"/><path fill="#3EB2D6" d="M41 29h1v1h-1z"/><path fill="#3ABDE7" d="M42 29h1v1h-1zM43 29h1v1h-1zM44 29h1v1h-1zM45 29h1v1h-1zM46 29h1v1h-1zM47 29h1v1h-1zM48 29h1v1h-1zM49 29h1v1h-1zM50 29h1v1h-1zM51 29h1v1h-1zM52 29h1v1h-1zM53 29h1v1h-1zM54 29h1v1h-1zM55 29h1v1h-1zM56 29h1v1h-1zM57 29h1v1h-1zM58 29h1v1h-1zM59 29h1v1h-1zM60 29h1v1h-1zM61 29h1v1h-1z"/><path fill="#C1EAF8" d="M62 29h1v1h-1z"/><path fill="#FFF" d="M63 29h1v1h-1zM64 29h1v1h-1zM65 29h1v1h-1z"/><path fill="#F3FBFE" d="M66 29h1v1h-1z"/><path fill="#6BCEED" d="M67 29h1v1h-1z"/><path fill="#3ABDE7" d="M68 29h1v1h-1zM69 29h1v1h-1z"/><path fill="#4E899A" d="M70 29h1v1h-1z"/><path fill="#5D615E" d="M71 29h1v1h-1zM72 29h1v1h-1zM73 29h1v1h-1z"/><path fill="#A4A6A4" d="M74 29h1v1h-1z"/><path fill="#FFF" d="M75 29h1v1h-1zM76 29h1v1h-1zM77 29h1v1h-1zM78 29h1v1h-1zM79 29h1v1h-1zM80 29h1v1h-1zM81 29h1v1h-1z"/><path fill="#A09E9C" d="M82 29h1v1h-1z"/><path fill="#231815" d="M83 29h1v1h-1zM84 29h1v1h-1zM85 29h1v1h-1zM16 30h1v1h-1zM17 30h1v1h-1zM18 30h1v1h-1zM19 30h1v1h-1z"/><path fill="#CD6832" d="M20 30h1v1h-1zM21 30h1v1h-1zM22 30h1v1h-1zM23 30h1v1h-1zM24 30h1v1h-1zM25 30h1v1h-1z"/><path fill="#7C2D1E" d="M26 30h1v1h-1zM27 30h1v1h-1zM28 30h1v1h-1z"/><path fill="#DECBC7" d="M29 30h1v1h-1z"/><path fill="#FFF" d="M30 30h1v1h-1zM31 30h1v1h-1zM32 30h1v1h-1zM33 30h1v1h-1zM34 30h1v1h-1zM35 30h1v1h-1zM36 30h1v1h-1zM37 30h1v1h-1z"/><path fill="#5D615E" d="M38 30h1v1h-1zM39 30h1v1h-1zM40 30h1v1h-1z"/><path fill="#43A6C5" d="M41 30h1v1h-1z"/><path fill="#3ABDE7" d="M42 30h1v1h-1zM43 30h1v1h-1zM44 30h1v1h-1zM45 30h1v1h-1zM46 30h1v1h-1zM47 30h1v1h-1zM48 30h1v1h-1zM49 30h1v1h-1zM50 30h1v1h-1zM51 30h1v1h-1zM52 30h1v1h-1zM53 30h1v1h-1zM54 30h1v1h-1zM55 30h1v1h-1zM56 30h1v1h-1zM57 30h1v1h-1zM58 30h1v1h-1zM59 30h1v1h-1zM60 30h1v1h-1zM61 30h1v1h-1z"/><path fill="#6BCEED" d="M62 30h1v1h-1z"/><path fill="#F3FBFE" d="M63 30h1v1h-1z"/><path fill="#FFF" d="M64 30h1v1h-1z"/><path fill="#CEEFF9" d="M65 30h1v1h-1z"/><path fill="#5FC9EC" d="M66 30h1v1h-1z"/><path fill="#3ABDE7" d="M67 30h1v1h-1zM68 30h1v1h-1z"/><path fill="#479BB4" d="M69 30h1v1h-1z"/><path fill="#5D615E" d="M70 30h1v1h-1zM71 30h1v1h-1zM72 30h1v1h-1z"/><path fill="#717572" d="M73 30h1v1h-1z"/><path fill="#F5F5F5" d="M74 30h1v1h-1z"/><path fill="#FFF" d="M75 30h1v1h-1zM76 30h1v1h-1zM77 30h1v1h-1zM78 30h1v1h-1zM79 30h1v1h-1zM80 30h1v1h-1z"/><path fill="#E1E1E1" d="M81 30h1v1h-1z"/><path fill="#4E4B48" d="M82 30h1v1h-1z"/><path fill="#231815" d="M83 30h1v1h-1zM84 30h1v1h-1zM85 30h1v1h-1zM16 31h1v1h-1zM17 31h1v1h-1zM18 31h1v1h-1zM19 31h1v1h-1z"/><path fill="#CD6832" d="M20 31h1v1h-1zM21 31h1v1h-1zM22 31h1v1h-1zM23 31h1v1h-1zM24 31h1v1h-1zM25 31h1v1h-1z"/><path fill="#7C2D1E" d="M26 31h1v1h-1zM27 31h1v1h-1zM28 31h1v1h-1z"/><path fill="#DECBC7" d="M29 31h1v1h-1z"/><path fill="#FFF" d="M30 31h1v1h-1zM31 31h1v1h-1zM32 31h1v1h-1zM33 31h1v1h-1zM34 31h1v1h-1zM35 31h1v1h-1zM36 31h1v1h-1zM37 31h1v1h-1z"/><path fill="#717572" d="M38 31h1v1h-1z"/><path fill="#5D615E" d="M39 31h1v1h-1zM40 31h1v1h-1z"/><path fill="#4C8FA3" d="M41 31h1v1h-1z"/><path fill="#3ABDE7" d="M42 31h1v1h-1zM43 31h1v1h-1zM44 31h1v1h-1zM45 31h1v1h-1zM46 31h1v1h-1zM47 31h1v1h-1zM48 31h1v1h-1zM49 31h1v1h-1zM50 31h1v1h-1zM51 31h1v1h-1zM52 31h1v1h-1zM53 31h1v1h-1zM54 31h1v1h-1zM55 31h1v1h-1zM56 31h1v1h-1zM57 31h1v1h-1zM58 31h1v1h-1zM59 31h1v1h-1zM60 31h1v1h-1zM61 31h1v1h-1zM62 31h1v1h-1zM63 31h1v1h-1zM64 31h1v1h-1zM65 31h1v1h-1zM66 31h1v1h-1zM67 31h1v1h-1z"/><path fill="#479BB4" d="M68 31h1v1h-1z"/><path fill="#5D615E" d="M69 31h1v1h-1zM70 31h1v1h-1zM71 31h1v1h-1z"/><path fill="#676B68" d="M72 31h1v1h-1z"/><path fill="#E1E1E1" d="M73 31h1v1h-1z"/><path fill="#FFF" d="M74 31h1v1h-1zM75 31h1v1h-1zM76 31h1v1h-1zM77 31h1v1h-1zM78 31h1v1h-1zM79 31h1v1h-1z"/><path fill="#F5F5F5" d="M80 31h1v1h-1z"/><path fill="#717572" d="M81 31h1v1h-1z"/><path fill="#403D3A" d="M82 31h1v1h-1z"/><path fill="#231815" d="M83 31h1v1h-1zM84 31h1v1h-1zM85 31h1v1h-1zM16 32h1v1h-1zM17 32h1v1h-1zM18 32h1v1h-1zM19 32h1v1h-1z"/><path fill="#CD6832" d="M20 32h1v1h-1zM21 32h1v1h-1zM22 32h1v1h-1zM23 32h1v1h-1zM24 32h1v1h-1zM25 32h1v1h-1z"/><path fill="#7C2D1E" d="M26 32h1v1h-1zM27 32h1v1h-1zM28 32h1v1h-1z"/><path fill="#DECBC7" d="M29 32h1v1h-1z"/><path fill="#FFF" d="M30 32h1v1h-1zM31 32h1v1h-1zM32 32h1v1h-1zM33 32h1v1h-1zM34 32h1v1h-1zM35 32h1v1h-1zM36 32h1v1h-1zM37 32h1v1h-1z"/><path fill="#909290" d="M38 32h1v1h-1z"/><path fill="#5D615E" d="M39 32h1v1h-1zM40 32h1v1h-1z"/><path fill="#527E89" d="M41 32h1v1h-1z"/><path fill="#3ABDE7" d="M42 32h1v1h-1zM43 32h1v1h-1zM44 32h1v1h-1zM45 32h1v1h-1zM46 32h1v1h-1zM47 32h1v1h-1zM48 32h1v1h-1zM49 32h1v1h-1zM50 32h1v1h-1zM51 32h1v1h-1zM52 32h1v1h-1zM53 32h1v1h-1zM54 32h1v1h-1zM55 32h1v1h-1zM56 32h1v1h-1zM57 32h1v1h-1zM58 32h1v1h-1zM59 32h1v1h-1zM60 32h1v1h-1zM61 32h1v1h-1zM62 32h1v1h-1zM63 32h1v1h-1zM64 32h1v1h-1zM65 32h1v1h-1zM66 32h1v1h-1z"/><path fill="#479BB4" d="M67 32h1v1h-1z"/><path fill="#5D615E" d="M68 32h1v1h-1zM69 32h1v1h-1zM70 32h1v1h-1zM71 32h1v1h-1z"/><path fill="#CCCECD" d="M72 32h1v1h-1z"/><path fill="#FFF" d="M73 32h1v1h-1zM74 32h1v1h-1zM75 32h1v1h-1zM76 32h1v1h-1zM77 32h1v1h-1zM78 32h1v1h-1z"/><path fill="#F5F5F5" d="M79 32h1v1h-1z"/><path fill="#7B7F7C" d="M80 32h1v1h-1z"/><path fill="#5D615E" d="M81 32h1v1h-1z"/><path fill="#403D3A" d="M82 32h1v1h-1z"/><path fill="#231815" d="M83 32h1v1h-1zM84 32h1v1h-1zM85 32h1v1h-1zM16 33h1v1h-1zM17 33h1v1h-1zM18 33h1v1h-1zM19 33h1v1h-1z"/><path fill="#CD6832" d="M20 33h1v1h-1zM21 33h1v1h-1zM22 33h1v1h-1zM23 33h1v1h-1zM24 33h1v1h-1zM25 33h1v1h-1z"/><path fill="#7C2D1E" d="M26 33h1v1h-1zM27 33h1v1h-1zM28 33h1v1h-1z"/><path fill="#DECBC7" d="M29 33h1v1h-1z"/><path fill="#FFF" d="M30 33h1v1h-1zM31 33h1v1h-1zM32 33h1v1h-1zM33 33h1v1h-1zM34 33h1v1h-1zM35 33h1v1h-1zM36 33h1v1h-1zM37 33h1v1h-1z"/><path fill="#B8BAB9" d="M38 33h1v1h-1z"/><path fill="#5D615E" d="M39 33h1v1h-1zM40 33h1v1h-1z"/><path fill="#5B6767" d="M41 33h1v1h-1z"/><path fill="#3ABDE7" d="M42 33h1v1h-1zM43 33h1v1h-1zM44 33h1v1h-1zM45 33h1v1h-1zM46 33h1v1h-1zM47 33h1v1h-1zM48 33h1v1h-1zM49 33h1v1h-1zM50 33h1v1h-1zM51 33h1v1h-1zM52 33h1v1h-1zM53 33h1v1h-1zM54 33h1v1h-1zM55 33h1v1h-1zM56 33h1v1h-1zM57 33h1v1h-1zM58 33h1v1h-1zM59 33h1v1h-1zM60 33h1v1h-1zM61 33h1v1h-1zM62 33h1v1h-1zM63 33h1v1h-1zM64 33h1v1h-1zM65 33h1v1h-1z"/><path fill="#41ACCD" d="M66 33h1v1h-1z"/><path fill="#5D615E" d="M67 33h1v1h-1zM68 33h1v1h-1zM69 33h1v1h-1zM70 33h1v1h-1z"/><path fill="#C2C4C3" d="M71 33h1v1h-1z"/><path fill="#FFF" d="M72 33h1v1h-1zM73 33h1v1h-1zM74 33h1v1h-1zM75 33h1v1h-1zM76 33h1v1h-1zM77 33h1v1h-1z"/><path fill="#F5F5F5" d="M78 33h1v1h-1z"/><path fill="#7B7F7C" d="M79 33h1v1h-1z"/><path fill="#5D615E" d="M80 33h1v1h-1zM81 33h1v1h-1z"/><path fill="#403D3A" d="M82 33h1v1h-1z"/><path fill="#231815" d="M83 33h1v1h-1zM84 33h1v1h-1zM85 33h1v1h-1zM16 34h1v1h-1zM17 34h1v1h-1zM18 34h1v1h-1zM19 34h1v1h-1z"/><path fill="#CD6832" d="M20 34h1v1h-1zM21 34h1v1h-1zM22 34h1v1h-1zM23 34h1v1h-1zM24 34h1v1h-1zM25 34h1v1h-1z"/><path fill="#7C2D1E" d="M26 34h1v1h-1zM27 34h1v1h-1zM28 34h1v1h-1z"/><path fill="#DECBC7" d="M29 34h1v1h-1z"/><path fill="#FFF" d="M30 34h1v1h-1zM31 34h1v1h-1zM32 34h1v1h-1zM33 34h1v1h-1zM34 34h1v1h-1zM35 34h1v1h-1zM36 34h1v1h-1zM37 34h1v1h-1z"/><path fill="#E1E1E1" d="M38 34h1v1h-1z"/><path fill="#5D615E" d="M39 34h1v1h-1zM40 34h1v1h-1zM41 34h1v1h-1z"/><path fill="#45A0BC" d="M42 34h1v1h-1z"/><path fill="#3ABDE7" d="M43 34h1v1h-1zM44 34h1v1h-1zM45 34h1v1h-1zM46 34h1v1h-1zM47 34h1v1h-1zM48 34h1v1h-1zM49 34h1v1h-1zM50 34h1v1h-1zM51 34h1v1h-1zM52 34h1v1h-1zM53 34h1v1h-1zM54 34h1v1h-1zM55 34h1v1h-1zM56 34h1v1h-1zM57 34h1v1h-1zM58 34h1v1h-1zM59 34h1v1h-1zM60 34h1v1h-1zM61 34h1v1h-1zM62 34h1v1h-1zM63 34h1v1h-1zM64 34h1v1h-1z"/><path fill="#43A6C5" d="M65 34h1v1h-1z"/><path fill="#5B6767" d="M66 34h1v1h-1z"/><path fill="#5D615E" d="M67 34h1v1h-1zM68 34h1v1h-1zM69 34h1v1h-1z"/><path fill="#C2C4C3" d="M70 34h1v1h-1z"/><path fill="#FFF" d="M71 34h1v1h-1zM72 34h1v1h-1zM73 34h1v1h-1zM74 34h1v1h-1zM75 34h1v1h-1zM76 34h1v1h-1zM77 34h1v1h-1z"/><path fill="#9A9C9A" d="M78 34h1v1h-1z"/><path fill="#5D615E" d="M79 34h1v1h-1zM80 34h1v1h-1zM81 34h1v1h-1z"/><path fill="#403D3A" d="M82 34h1v1h-1z"/><path fill="#231815" d="M83 34h1v1h-1zM84 34h1v1h-1zM85 34h1v1h-1zM16 35h1v1h-1zM17 35h1v1h-1zM18 35h1v1h-1zM19 35h1v1h-1z"/><path fill="#CD6832" d="M20 35h1v1h-1zM21 35h1v1h-1zM22 35h1v1h-1zM23 35h1v1h-1zM24 35h1v1h-1zM25 35h1v1h-1z"/><path fill="#8B3822" d="M26 35h1v1h-1z"/><path fill="#7C2D1E" d="M27 35h1v1h-1zM28 35h1v1h-1z"/><path fill="#BE968F" d="M29 35h1v1h-1z"/><path fill="#FFF" d="M30 35h1v1h-1zM31 35h1v1h-1zM32 35h1v1h-1zM33 35h1v1h-1zM34 35h1v1h-1zM35 35h1v1h-1zM36 35h1v1h-1zM37 35h1v1h-1zM38 35h1v1h-1z"/><path fill="#717572" d="M39 35h1v1h-1z"/><path fill="#5D615E" d="M40 35h1v1h-1zM41 35h1v1h-1z"/><path fill="#508491" d="M42 35h1v1h-1z"/><path fill="#3ABDE7" d="M43 35h1v1h-1zM44 35h1v1h-1zM45 35h1v1h-1zM46 35h1v1h-1zM47 35h1v1h-1zM48 35h1v1h-1zM49 35h1v1h-1zM50 35h1v1h-1zM51 35h1v1h-1zM52 35h1v1h-1zM53 35h1v1h-1zM54 35h1v1h-1zM55 35h1v1h-1zM56 35h1v1h-1zM57 35h1v1h-1zM58 35h1v1h-1zM59 35h1v1h-1zM60 35h1v1h-1zM61 35h1v1h-1zM62 35h1v1h-1zM63 35h1v1h-1z"/><path fill="#479BB4" d="M64 35h1v1h-1z"/><path fill="#5D615E" d="M65 35h1v1h-1zM66 35h1v1h-1zM67 35h1v1h-1zM68 35h1v1h-1z"/><path fill="#C2C4C3" d="M69 35h1v1h-1z"/><path fill="#FFF" d="M70 35h1v1h-1zM71 35h1v1h-1zM72 35h1v1h-1zM73 35h1v1h-1zM74 35h1v1h-1zM75 35h1v1h-1zM76 35h1v1h-1z"/><path fill="#9A9C9A" d="M77 35h1v1h-1z"/><path fill="#5D615E" d="M78 35h1v1h-1zM79 35h1v1h-1zM80 35h1v1h-1z"/><path fill="#6B6D6A" d="M81 35h1v1h-1z"/><path fill="#615955" d="M82 35h1v1h-1z"/><path fill="#231815" d="M83 35h1v1h-1zM84 35h1v1h-1zM85 35h1v1h-1zM16 36h1v1h-1zM17 36h1v1h-1zM18 36h1v1h-1zM19 36h1v1h-1z"/><path fill="#CD6832" d="M20 36h1v1h-1zM21 36h1v1h-1zM22 36h1v1h-1zM23 36h1v1h-1zM24 36h1v1h-1zM25 36h1v1h-1z"/><path fill="#903C23" d="M26 36h1v1h-1z"/><path fill="#7C2D1E" d="M27 36h1v1h-1zM28 36h1v1h-1z"/><path fill="#BE968F" d="M29 36h1v1h-1z"/><path fill="#FFF" d="M30 36h1v1h-1zM31 36h1v1h-1zM32 36h1v1h-1zM33 36h1v1h-1zM34 36h1v1h-1zM35 36h1v1h-1zM36 36h1v1h-1zM37 36h1v1h-1zM38 36h1v1h-1z"/><path fill="#AEB0AF" d="M39 36h1v1h-1z"/><path fill="#5D615E" d="M40 36h1v1h-1zM41 36h1v1h-1zM42 36h1v1h-1z"/><path fill="#3EB2D6" d="M43 36h1v1h-1z"/><path fill="#3ABDE7" d="M44 36h1v1h-1zM45 36h1v1h-1zM46 36h1v1h-1zM47 36h1v1h-1zM48 36h1v1h-1zM49 36h1v1h-1zM50 36h1v1h-1zM51 36h1v1h-1zM52 36h1v1h-1zM53 36h1v1h-1zM54 36h1v1h-1zM55 36h1v1h-1zM56 36h1v1h-1zM57 36h1v1h-1zM58 36h1v1h-1zM59 36h1v1h-1zM60 36h1v1h-1zM61 36h1v1h-1zM62 36h1v1h-1z"/><path fill="#479BB4" d="M63 36h1v1h-1z"/><path fill="#5D615E" d="M64 36h1v1h-1zM65 36h1v1h-1zM66 36h1v1h-1zM67 36h1v1h-1z"/><path fill="#C2C4C3" d="M68 36h1v1h-1z"/><path fill="#FFF" d="M69 36h1v1h-1zM70 36h1v1h-1zM71 36h1v1h-1zM72 36h1v1h-1zM73 36h1v1h-1zM74 36h1v1h-1zM75 36h1v1h-1z"/><path fill="#9A9C9A" d="M76 36h1v1h-1z"/><path fill="#5D615E" d="M77 36h1v1h-1zM78 36h1v1h-1zM79 36h1v1h-1z"/><path fill="#6B6D6A" d="M80 36h1v1h-1z"/><path fill="#A39E98" d="M81 36h1v1h-1z"/><path fill="#665D59" d="M82 36h1v1h-1z"/><path fill="#231815" d="M83 36h1v1h-1zM84 36h1v1h-1zM85 36h1v1h-1zM16 37h1v1h-1zM17 37h1v1h-1zM18 37h1v1h-1zM19 37h1v1h-1z"/><path fill="#CD6832" d="M20 37h1v1h-1zM21 37h1v1h-1zM22 37h1v1h-1zM23 37h1v1h-1zM24 37h1v1h-1zM25 37h1v1h-1z"/><path fill="#903C23" d="M26 37h1v1h-1z"/><path fill="#7C2D1E" d="M27 37h1v1h-1zM28 37h1v1h-1z"/><path fill="#BE968F" d="M29 37h1v1h-1z"/><path fill="#FFF" d="M30 37h1v1h-1zM31 37h1v1h-1zM32 37h1v1h-1zM33 37h1v1h-1zM34 37h1v1h-1zM35 37h1v1h-1zM36 37h1v1h-1zM37 37h1v1h-1zM38 37h1v1h-1z"/><path fill="#EBEBEB" d="M39 37h1v1h-1z"/><path fill="#5D615E" d="M40 37h1v1h-1zM41 37h1v1h-1zM42 37h1v1h-1z"/><path fill="#567278" d="M43 37h1v1h-1z"/><path fill="#43A6C5" d="M44 37h1v1h-1z"/><path fill="#41ACCD" d="M45 37h1v1h-1z"/><path fill="#3ABDE7" d="M46 37h1v1h-1zM47 37h1v1h-1zM48 37h1v1h-1zM49 37h1v1h-1zM50 37h1v1h-1zM51 37h1v1h-1zM52 37h1v1h-1zM53 37h1v1h-1zM54 37h1v1h-1zM55 37h1v1h-1zM56 37h1v1h-1zM57 37h1v1h-1zM58 37h1v1h-1zM59 37h1v1h-1zM60 37h1v1h-1z"/><path fill="#43A6C5" d="M61 37h1v1h-1z"/><path fill="#508491" d="M62 37h1v1h-1z"/><path fill="#5D615E" d="M63 37h1v1h-1zM64 37h1v1h-1zM65 37h1v1h-1zM66 37h1v1h-1z"/><path fill="#C2C4C3" d="M67 37h1v1h-1z"/><path fill="#FFF" d="M68 37h1v1h-1zM69 37h1v1h-1zM70 37h1v1h-1zM71 37h1v1h-1zM72 37h1v1h-1zM73 37h1v1h-1z"/><path fill="#F5F5F5" d="M74 37h1v1h-1z"/><path fill="#9A9C9A" d="M75 37h1v1h-1z"/><path fill="#5D615E" d="M76 37h1v1h-1zM77 37h1v1h-1zM78 37h1v1h-1z"/><path fill="#626562" d="M79 37h1v1h-1z"/><path fill="#9A9690" d="M80 37h1v1h-1z"/><path fill="#A8A29C" d="M81 37h1v1h-1z"/><path fill="#665D59" d="M82 37h1v1h-1z"/><path fill="#231815" d="M83 37h1v1h-1zM84 37h1v1h-1zM85 37h1v1h-1zM16 38h1v1h-1zM17 38h1v1h-1zM18 38h1v1h-1zM19 38h1v1h-1z"/><path fill="#CD6832" d="M20 38h1v1h-1zM21 38h1v1h-1zM22 38h1v1h-1zM23 38h1v1h-1zM24 38h1v1h-1zM25 38h1v1h-1z"/><path fill="#903C23" d="M26 38h1v1h-1z"/><path fill="#7C2D1E" d="M27 38h1v1h-1zM28 38h1v1h-1z"/><path fill="#B58980" d="M29 38h1v1h-1z"/><path fill="#FFF" d="M30 38h1v1h-1zM31 38h1v1h-1zM32 38h1v1h-1zM33 38h1v1h-1zM34 38h1v1h-1zM35 38h1v1h-1zM36 38h1v1h-1zM37 38h1v1h-1zM38 38h1v1h-1zM39 38h1v1h-1z"/><path fill="#9A9C9A" d="M40 38h1v1h-1z"/><path fill="#5D615E" d="M41 38h1v1h-1zM42 38h1v1h-1zM43 38h1v1h-1zM44 38h1v1h-1zM45 38h1v1h-1zM46 38h1v1h-1zM47 38h1v1h-1zM48 38h1v1h-1zM49 38h1v1h-1zM50 38h1v1h-1zM51 38h1v1h-1zM52 38h1v1h-1zM53 38h1v1h-1zM54 38h1v1h-1zM55 38h1v1h-1zM56 38h1v1h-1zM57 38h1v1h-1zM58 38h1v1h-1zM59 38h1v1h-1zM60 38h1v1h-1zM61 38h1v1h-1zM62 38h1v1h-1zM63 38h1v1h-1zM64 38h1v1h-1zM65 38h1v1h-1z"/><path fill="#C2C4C3" d="M66 38h1v1h-1z"/><path fill="#FFF" d="M67 38h1v1h-1zM68 38h1v1h-1zM69 38h1v1h-1zM70 38h1v1h-1zM71 38h1v1h-1zM72 38h1v1h-1z"/><path fill="#F5F5F5" d="M73 38h1v1h-1z"/><path fill="#7B7F7C" d="M74 38h1v1h-1z"/><path fill="#5D615E" d="M75 38h1v1h-1zM76 38h1v1h-1zM77 38h1v1h-1z"/><path fill="#626562" d="M78 38h1v1h-1z"/><path fill="#9A9690" d="M79 38h1v1h-1z"/><path fill="#A8A29C" d="M80 38h1v1h-1zM81 38h1v1h-1z"/><path fill="#4D433F" d="M82 38h1v1h-1z"/><path fill="#231815" d="M83 38h1v1h-1zM84 38h1v1h-1zM85 38h1v1h-1zM16 39h1v1h-1zM17 39h1v1h-1zM18 39h1v1h-1zM19 39h1v1h-1z"/><path fill="#CD6832" d="M20 39h1v1h-1zM21 39h1v1h-1zM22 39h1v1h-1zM23 39h1v1h-1zM24 39h1v1h-1zM25 39h1v1h-1z"/><path fill="#953F24" d="M26 39h1v1h-1z"/><path fill="#7C2D1E" d="M27 39h1v1h-1zM28 39h1v1h-1zM29 39h1v1h-1z"/><path fill="#CEB0AB" d="M30 39h1v1h-1z"/><path fill="#FFF" d="M31 39h1v1h-1zM32 39h1v1h-1zM33 39h1v1h-1zM34 39h1v1h-1zM35 39h1v1h-1zM36 39h1v1h-1zM37 39h1v1h-1zM38 39h1v1h-1zM39 39h1v1h-1z"/><path fill="#F5F5F5" d="M40 39h1v1h-1z"/><path fill="#7B7F7C" d="M41 39h1v1h-1z"/><path fill="#5D615E" d="M42 39h1v1h-1zM43 39h1v1h-1zM44 39h1v1h-1zM45 39h1v1h-1zM46 39h1v1h-1zM47 39h1v1h-1zM48 39h1v1h-1zM49 39h1v1h-1zM50 39h1v1h-1zM51 39h1v1h-1zM52 39h1v1h-1zM53 39h1v1h-1zM54 39h1v1h-1zM55 39h1v1h-1zM56 39h1v1h-1zM57 39h1v1h-1zM58 39h1v1h-1zM59 39h1v1h-1zM60 39h1v1h-1zM61 39h1v1h-1zM62 39h1v1h-1zM63 39h1v1h-1z"/><path fill="#676B68" d="M64 39h1v1h-1z"/><path fill="#CCCECD" d="M65 39h1v1h-1z"/><path fill="#FFF" d="M66 39h1v1h-1zM67 39h1v1h-1zM68 39h1v1h-1zM69 39h1v1h-1zM70 39h1v1h-1zM71 39h1v1h-1z"/><path fill="#F5F5F5" d="M72 39h1v1h-1z"/><path fill="#7B7F7C" d="M73 39h1v1h-1z"/><path fill="#5D615E" d="M74 39h1v1h-1zM75 39h1v1h-1zM76 39h1v1h-1z"/><path fill="#6B6D6A" d="M77 39h1v1h-1z"/><path fill="#9A9690" d="M78 39h1v1h-1z"/><path fill="#A8A29C" d="M79 39h1v1h-1zM80 39h1v1h-1zM81 39h1v1h-1z"/><path fill="#443B37" d="M82 39h1v1h-1z"/><path fill="#231815" d="M83 39h1v1h-1zM84 39h1v1h-1zM85 39h1v1h-1zM16 40h1v1h-1zM17 40h1v1h-1zM18 40h1v1h-1zM19 40h1v1h-1z"/><path fill="#CD6832" d="M20 40h1v1h-1zM21 40h1v1h-1zM22 40h1v1h-1z"/><path fill="#D78C5E" d="M23 40h1v1h-1z"/><path fill="#DA9A6E" d="M24 40h1v1h-1z"/><path fill="#DB9D72" d="M25 40h1v1h-1z"/><path fill="#BD7A58" d="M26 40h1v1h-1z"/><path fill="#7C2D1E" d="M27 40h1v1h-1zM28 40h1v1h-1zM29 40h1v1h-1zM30 40h1v1h-1z"/><path fill="#CEB0AB" d="M31 40h1v1h-1z"/><path fill="#FFF" d="M32 40h1v1h-1zM33 40h1v1h-1zM34 40h1v1h-1zM35 40h1v1h-1zM36 40h1v1h-1zM37 40h1v1h-1zM38 40h1v1h-1zM39 40h1v1h-1zM40 40h1v1h-1z"/><path fill="#F5F5F5" d="M41 40h1v1h-1z"/><path fill="#9A9C9A" d="M42 40h1v1h-1z"/><path fill="#676B68" d="M43 40h1v1h-1z"/><path fill="#5D615E" d="M44 40h1v1h-1zM45 40h1v1h-1zM46 40h1v1h-1zM47 40h1v1h-1zM48 40h1v1h-1zM49 40h1v1h-1zM50 40h1v1h-1zM51 40h1v1h-1zM52 40h1v1h-1zM53 40h1v1h-1zM54 40h1v1h-1zM55 40h1v1h-1zM56 40h1v1h-1zM57 40h1v1h-1zM58 40h1v1h-1zM59 40h1v1h-1zM60 40h1v1h-1zM61 40h1v1h-1zM62 40h1v1h-1z"/><path fill="#909290" d="M63 40h1v1h-1z"/><path fill="#EBEBEB" d="M64 40h1v1h-1z"/><path fill="#FFF" d="M65 40h1v1h-1zM66 40h1v1h-1zM67 40h1v1h-1zM68 40h1v1h-1zM69 40h1v1h-1zM70 40h1v1h-1z"/><path fill="#F5F5F5" d="M71 40h1v1h-1z"/><path fill="#7B7F7C" d="M72 40h1v1h-1z"/><path fill="#5D615E" d="M73 40h1v1h-1zM74 40h1v1h-1zM75 40h1v1h-1z"/><path fill="#6B6D6A" d="M76 40h1v1h-1z"/><path fill="#A39E98" d="M77 40h1v1h-1z"/><path fill="#A8A29C" d="M78 40h1v1h-1zM79 40h1v1h-1zM80 40h1v1h-1zM81 40h1v1h-1z"/><path fill="#3C322E" d="M82 40h1v1h-1z"/><path fill="#231815" d="M83 40h1v1h-1zM84 40h1v1h-1zM85 40h1v1h-1zM16 41h1v1h-1zM17 41h1v1h-1zM18 41h1v1h-1zM19 41h1v1h-1z"/><path fill="#CD6832" d="M20 41h1v1h-1zM21 41h1v1h-1zM22 41h1v1h-1z"/><path fill="#D6895A" d="M23 41h1v1h-1z"/><path fill="#DB9D72" d="M24 41h1v1h-1zM25 41h1v1h-1zM26 41h1v1h-1z"/><path fill="#B77353" d="M27 41h1v1h-1z"/><path fill="#7C2D1E" d="M28 41h1v1h-1zM29 41h1v1h-1zM30 41h1v1h-1zM31 41h1v1h-1z"/><path fill="#CEB0AB" d="M32 41h1v1h-1z"/><path fill="#FFF" d="M33 41h1v1h-1zM34 41h1v1h-1zM35 41h1v1h-1zM36 41h1v1h-1zM37 41h1v1h-1zM38 41h1v1h-1zM39 41h1v1h-1zM40 41h1v1h-1zM41 41h1v1h-1zM42 41h1v1h-1zM43 41h1v1h-1zM44 41h1v1h-1z"/><path fill="#F5F5F5" d="M45 41h1v1h-1z"/><path fill="#D7D8D7" d="M46 41h1v1h-1zM47 41h1v1h-1zM48 41h1v1h-1zM49 41h1v1h-1zM50 41h1v1h-1zM51 41h1v1h-1zM52 41h1v1h-1zM53 41h1v1h-1zM54 41h1v1h-1zM55 41h1v1h-1zM56 41h1v1h-1zM57 41h1v1h-1zM58 41h1v1h-1zM59 41h1v1h-1zM60 41h1v1h-1z"/><path fill="#F5F5F5" d="M61 41h1v1h-1z"/><path fill="#FFF" d="M62 41h1v1h-1zM63 41h1v1h-1zM64 41h1v1h-1zM65 41h1v1h-1zM66 41h1v1h-1zM67 41h1v1h-1zM68 41h1v1h-1zM69 41h1v1h-1z"/><path fill="#F5F5F5" d="M70 41h1v1h-1z"/><path fill="#7B7F7C" d="M71 41h1v1h-1z"/><path fill="#5D615E" d="M72 41h1v1h-1zM73 41h1v1h-1zM74 41h1v1h-1z"/><path fill="#6B6D6A" d="M75 41h1v1h-1z"/><path fill="#A39E98" d="M76 41h1v1h-1z"/><path fill="#A8A29C" d="M77 41h1v1h-1zM78 41h1v1h-1zM79 41h1v1h-1zM80 41h1v1h-1z"/><path fill="#766E69" d="M81 41h1v1h-1z"/><path fill="#231815" d="M82 41h1v1h-1zM83 41h1v1h-1zM84 41h1v1h-1zM85 41h1v1h-1zM16 42h1v1h-1zM17 42h1v1h-1zM18 42h1v1h-1zM19 42h1v1h-1z"/><path fill="#CD6832" d="M20 42h1v1h-1zM21 42h1v1h-1zM22 42h1v1h-1zM23 42h1v1h-1z"/><path fill="#D6895A" d="M24 42h1v1h-1z"/><path fill="#DB9D72" d="M25 42h1v1h-1zM26 42h1v1h-1zM27 42h1v1h-1z"/><path fill="#B77353" d="M28 42h1v1h-1z"/><path fill="#7C2D1E" d="M29 42h1v1h-1zM30 42h1v1h-1zM31 42h1v1h-1zM32 42h1v1h-1z"/><path fill="#CEB0AB" d="M33 42h1v1h-1z"/><path fill="#FFF" d="M34 42h1v1h-1zM35 42h1v1h-1zM36 42h1v1h-1zM37 42h1v1h-1zM38 42h1v1h-1zM39 42h1v1h-1zM40 42h1v1h-1zM41 42h1v1h-1zM42 42h1v1h-1zM43 42h1v1h-1zM44 42h1v1h-1zM45 42h1v1h-1zM46 42h1v1h-1zM47 42h1v1h-1zM48 42h1v1h-1zM49 42h1v1h-1zM50 42h1v1h-1zM51 42h1v1h-1zM52 42h1v1h-1zM53 42h1v1h-1zM54 42h1v1h-1zM55 42h1v1h-1zM56 42h1v1h-1zM57 42h1v1h-1zM58 42h1v1h-1zM59 42h1v1h-1zM60 42h1v1h-1zM61 42h1v1h-1zM62 42h1v1h-1zM63 42h1v1h-1zM64 42h1v1h-1zM65 42h1v1h-1zM66 42h1v1h-1zM67 42h1v1h-1zM68 42h1v1h-1z"/><path fill="#E1E1E1" d="M69 42h1v1h-1z"/><path fill="#7B7F7C" d="M70 42h1v1h-1z"/><path fill="#5D615E" d="M71 42h1v1h-1zM72 42h1v1h-1zM73 42h1v1h-1z"/><path fill="#6B6D6A" d="M74 42h1v1h-1z"/><path fill="#A39E98" d="M75 42h1v1h-1z"/><path fill="#A8A29C" d="M76 42h1v1h-1zM77 42h1v1h-1zM78 42h1v1h-1zM79 42h1v1h-1z"/><path fill="#8F8883" d="M80 42h1v1h-1z"/><path fill="#2B211D" d="M81 42h1v1h-1z"/><path fill="#231815" d="M82 42h1v1h-1zM83 42h1v1h-1zM84 42h1v1h-1zM85 42h1v1h-1zM16 43h1v1h-1zM17 43h1v1h-1zM18 43h1v1h-1zM19 43h1v1h-1z"/><path fill="#CD6832" d="M20 43h1v1h-1zM21 43h1v1h-1zM22 43h1v1h-1zM23 43h1v1h-1zM24 43h1v1h-1z"/><path fill="#D6895A" d="M25 43h1v1h-1z"/><path fill="#DB9D72" d="M26 43h1v1h-1zM27 43h1v1h-1zM28 43h1v1h-1z"/><path fill="#B77353" d="M29 43h1v1h-1z"/><path fill="#7C2D1E" d="M30 43h1v1h-1zM31 43h1v1h-1zM32 43h1v1h-1zM33 43h1v1h-1z"/><path fill="#CEB0AB" d="M34 43h1v1h-1z"/><path fill="#FFF" d="M35 43h1v1h-1zM36 43h1v1h-1zM37 43h1v1h-1zM38 43h1v1h-1zM39 43h1v1h-1zM40 43h1v1h-1zM41 43h1v1h-1zM42 43h1v1h-1zM43 43h1v1h-1zM44 43h1v1h-1zM45 43h1v1h-1zM46 43h1v1h-1zM47 43h1v1h-1zM48 43h1v1h-1zM49 43h1v1h-1zM50 43h1v1h-1zM51 43h1v1h-1zM52 43h1v1h-1zM53 43h1v1h-1zM54 43h1v1h-1zM55 43h1v1h-1zM56 43h1v1h-1zM57 43h1v1h-1zM58 43h1v1h-1zM59 43h1v1h-1zM60 43h1v1h-1zM61 43h1v1h-1zM62 43h1v1h-1zM63 43h1v1h-1zM64 43h1v1h-1zM65 43h1v1h-1zM66 43h1v1h-1zM67 43h1v1h-1z"/><path fill="#E1E1E1" d="M68 43h1v1h-1z"/><path fill="#676B68" d="M69 43h1v1h-1z"/><path fill="#5D615E" d="M70 43h1v1h-1zM71 43h1v1h-1zM72 43h1v1h-1z"/><path fill="#6B6D6A" d="M73 43h1v1h-1z"/><path fill="#A39E98" d="M74 43h1v1h-1z"/><path fill="#A8A29C" d="M75 43h1v1h-1zM76 43h1v1h-1zM77 43h1v1h-1zM78 43h1v1h-1z"/><path fill="#A09994" d="M79 43h1v1h-1z"/><path fill="#342926" d="M80 43h1v1h-1z"/><path fill="#231815" d="M81 43h1v1h-1zM82 43h1v1h-1zM83 43h1v1h-1zM84 43h1v1h-1zM16 44h1v1h-1zM17 44h1v1h-1zM18 44h1v1h-1zM19 44h1v1h-1z"/><path fill="#CD6832" d="M20 44h1v1h-1zM21 44h1v1h-1zM22 44h1v1h-1zM23 44h1v1h-1zM24 44h1v1h-1zM25 44h1v1h-1z"/><path fill="#D6895A" d="M26 44h1v1h-1z"/><path fill="#DB9D72" d="M27 44h1v1h-1zM28 44h1v1h-1zM29 44h1v1h-1z"/><path fill="#B77353" d="M30 44h1v1h-1z"/><path fill="#7C2D1E" d="M31 44h1v1h-1zM32 44h1v1h-1zM33 44h1v1h-1zM34 44h1v1h-1z"/><path fill="#CEB0AB" d="M35 44h1v1h-1z"/><path fill="#FFF" d="M36 44h1v1h-1zM37 44h1v1h-1zM38 44h1v1h-1zM39 44h1v1h-1zM40 44h1v1h-1zM41 44h1v1h-1zM42 44h1v1h-1zM43 44h1v1h-1zM44 44h1v1h-1zM45 44h1v1h-1zM46 44h1v1h-1zM47 44h1v1h-1zM48 44h1v1h-1zM49 44h1v1h-1zM50 44h1v1h-1zM51 44h1v1h-1zM52 44h1v1h-1zM53 44h1v1h-1zM54 44h1v1h-1zM55 44h1v1h-1zM56 44h1v1h-1zM57 44h1v1h-1zM58 44h1v1h-1zM59 44h1v1h-1zM60 44h1v1h-1zM61 44h1v1h-1zM62 44h1v1h-1zM63 44h1v1h-1zM64 44h1v1h-1zM65 44h1v1h-1zM66 44h1v1h-1z"/><path fill="#E1E1E1" d="M67 44h1v1h-1z"/><path fill="#676B68" d="M68 44h1v1h-1z"/><path fill="#5D615E" d="M69 44h1v1h-1zM70 44h1v1h-1zM71 44h1v1h-1z"/><path fill="#70716E" d="M72 44h1v1h-1z"/><path fill="#A39E98" d="M73 44h1v1h-1z"/><path fill="#A8A29C" d="M74 44h1v1h-1zM75 44h1v1h-1zM76 44h1v1h-1zM77 44h1v1h-1z"/><path fill="#A09994" d="M78 44h1v1h-1z"/><path fill="#3C322E" d="M79 44h1v1h-1z"/><path fill="#231815" d="M80 44h1v1h-1zM81 44h1v1h-1zM82 44h1v1h-1zM83 44h1v1h-1zM16 45h1v1h-1zM17 45h1v1h-1zM18 45h1v1h-1zM19 45h1v1h-1z"/><path fill="#CD6832" d="M20 45h1v1h-1zM21 45h1v1h-1zM22 45h1v1h-1zM23 45h1v1h-1zM24 45h1v1h-1zM25 45h1v1h-1zM26 45h1v1h-1z"/><path fill="#D6895A" d="M27 45h1v1h-1z"/><path fill="#DB9D72" d="M28 45h1v1h-1zM29 45h1v1h-1zM30 45h1v1h-1z"/><path fill="#B77353" d="M31 45h1v1h-1z"/><path fill="#7C2D1E" d="M32 45h1v1h-1zM33 45h1v1h-1zM34 45h1v1h-1zM35 45h1v1h-1z"/><path fill="#CEB0AB" d="M36 45h1v1h-1z"/><path fill="#FFF" d="M37 45h1v1h-1zM38 45h1v1h-1zM39 45h1v1h-1zM40 45h1v1h-1zM41 45h1v1h-1zM42 45h1v1h-1zM43 45h1v1h-1zM44 45h1v1h-1zM45 45h1v1h-1zM46 45h1v1h-1zM47 45h1v1h-1zM48 45h1v1h-1zM49 45h1v1h-1zM50 45h1v1h-1zM51 45h1v1h-1zM52 45h1v1h-1zM53 45h1v1h-1zM54 45h1v1h-1zM55 45h1v1h-1zM56 45h1v1h-1zM57 45h1v1h-1zM58 45h1v1h-1zM59 45h1v1h-1zM60 45h1v1h-1zM61 45h1v1h-1zM62 45h1v1h-1zM63 45h1v1h-1zM64 45h1v1h-1zM65 45h1v1h-1z"/><path fill="#D7D8D7" d="M66 45h1v1h-1z"/><path fill="#676B68" d="M67 45h1v1h-1z"/><path fill="#5D615E" d="M68 45h1v1h-1zM69 45h1v1h-1zM70 45h1v1h-1z"/><path fill="#797975" d="M71 45h1v1h-1z"/><path fill="#A8A29C" d="M72 45h1v1h-1zM73 45h1v1h-1zM74 45h1v1h-1zM75 45h1v1h-1zM76 45h1v1h-1zM77 45h1v1h-1z"/><path fill="#4D433F" d="M78 45h1v1h-1z"/><path fill="#231815" d="M79 45h1v1h-1zM80 45h1v1h-1zM81 45h1v1h-1zM82 45h1v1h-1zM16 46h1v1h-1zM17 46h1v1h-1zM18 46h1v1h-1zM19 46h1v1h-1z"/><path fill="#CD6832" d="M20 46h1v1h-1zM21 46h1v1h-1zM22 46h1v1h-1zM23 46h1v1h-1zM24 46h1v1h-1zM25 46h1v1h-1zM26 46h1v1h-1zM27 46h1v1h-1z"/><path fill="#D6895A" d="M28 46h1v1h-1z"/><path fill="#DB9D72" d="M29 46h1v1h-1zM30 46h1v1h-1zM31 46h1v1h-1z"/><path fill="#B77353" d="M32 46h1v1h-1z"/><path fill="#7C2D1E" d="M33 46h1v1h-1zM34 46h1v1h-1zM35 46h1v1h-1zM36 46h1v1h-1z"/><path fill="#CEB0AB" d="M37 46h1v1h-1z"/><path fill="#FFF" d="M38 46h1v1h-1zM39 46h1v1h-1zM40 46h1v1h-1zM41 46h1v1h-1zM42 46h1v1h-1zM43 46h1v1h-1zM44 46h1v1h-1zM45 46h1v1h-1zM46 46h1v1h-1zM47 46h1v1h-1zM48 46h1v1h-1zM49 46h1v1h-1zM50 46h1v1h-1zM51 46h1v1h-1zM52 46h1v1h-1zM53 46h1v1h-1zM54 46h1v1h-1zM55 46h1v1h-1zM56 46h1v1h-1zM57 46h1v1h-1zM58 46h1v1h-1zM59 46h1v1h-1zM60 46h1v1h-1zM61 46h1v1h-1zM62 46h1v1h-1z"/><path fill="#EBEBEB" d="M63 46h1v1h-1z"/><path fill="#D7D8D7" d="M64 46h1v1h-1z"/><path fill="#B8BAB9" d="M65 46h1v1h-1z"/><path fill="#5D615E" d="M66 46h1v1h-1zM67 46h1v1h-1zM68 46h1v1h-1zM69 46h1v1h-1z"/><path fill="#797975" d="M70 46h1v1h-1z"/><path fill="#A8A29C" d="M71 46h1v1h-1zM72 46h1v1h-1zM73 46h1v1h-1zM74 46h1v1h-1zM75 46h1v1h-1zM76 46h1v1h-1z"/><path fill="#554C48" d="M77 46h1v1h-1z"/><path fill="#231815" d="M78 46h1v1h-1zM79 46h1v1h-1zM80 46h1v1h-1zM81 46h1v1h-1zM82 46h1v1h-1zM15 47h1v1h-1zM16 47h1v1h-1zM17 47h1v1h-1zM18 47h1v1h-1z"/><path fill="#442018" d="M19 47h1v1h-1z"/><path fill="#7C2D1E" d="M20 47h1v1h-1zM21 47h1v1h-1zM22 47h1v1h-1zM23 47h1v1h-1zM24 47h1v1h-1zM25 47h1v1h-1zM26 47h1v1h-1zM27 47h1v1h-1zM28 47h1v1h-1zM29 47h1v1h-1zM30 47h1v1h-1zM31 47h1v1h-1zM32 47h1v1h-1zM33 47h1v1h-1zM34 47h1v1h-1zM35 47h1v1h-1zM36 47h1v1h-1zM37 47h1v1h-1z"/><path fill="#8F7872" d="M38 47h1v1h-1z"/><path fill="#868986" d="M39 47h1v1h-1zM40 47h1v1h-1zM41 47h1v1h-1zM42 47h1v1h-1zM43 47h1v1h-1zM44 47h1v1h-1zM45 47h1v1h-1zM46 47h1v1h-1zM47 47h1v1h-1zM48 47h1v1h-1zM49 47h1v1h-1zM50 47h1v1h-1zM51 47h1v1h-1zM52 47h1v1h-1zM53 47h1v1h-1zM54 47h1v1h-1zM55 47h1v1h-1zM56 47h1v1h-1zM57 47h1v1h-1z"/><path fill="#7B7F7C" d="M58 47h1v1h-1z"/><path fill="#5D615E" d="M59 47h1v1h-1zM60 47h1v1h-1zM61 47h1v1h-1zM62 47h1v1h-1zM63 47h1v1h-1zM64 47h1v1h-1zM65 47h1v1h-1zM66 47h1v1h-1zM67 47h1v1h-1zM68 47h1v1h-1z"/><path fill="#797975" d="M69 47h1v1h-1z"/><path fill="#A8A29C" d="M70 47h1v1h-1zM71 47h1v1h-1zM72 47h1v1h-1zM73 47h1v1h-1zM74 47h1v1h-1zM75 47h1v1h-1z"/><path fill="#554C48" d="M76 47h1v1h-1z"/><path fill="#231815" d="M77 47h1v1h-1zM78 47h1v1h-1zM79 47h1v1h-1zM80 47h1v1h-1zM81 47h1v1h-1zM15 48h1v1h-1zM16 48h1v1h-1zM17 48h1v1h-1zM18 48h1v1h-1z"/><path fill="#712A1D" d="M19 48h1v1h-1z"/><path fill="#7C2D1E" d="M20 48h1v1h-1zM21 48h1v1h-1zM22 48h1v1h-1zM23 48h1v1h-1zM24 48h1v1h-1zM25 48h1v1h-1zM26 48h1v1h-1zM27 48h1v1h-1zM28 48h1v1h-1zM29 48h1v1h-1zM30 48h1v1h-1zM31 48h1v1h-1zM32 48h1v1h-1zM33 48h1v1h-1zM34 48h1v1h-1zM35 48h1v1h-1zM36 48h1v1h-1zM37 48h1v1h-1z"/><path fill="#743A2E" d="M38 48h1v1h-1z"/><path fill="#5D615E" d="M39 48h1v1h-1zM40 48h1v1h-1zM41 48h1v1h-1zM42 48h1v1h-1zM43 48h1v1h-1zM44 48h1v1h-1zM45 48h1v1h-1zM46 48h1v1h-1zM47 48h1v1h-1zM48 48h1v1h-1zM49 48h1v1h-1zM50 48h1v1h-1zM51 48h1v1h-1zM52 48h1v1h-1zM53 48h1v1h-1zM54 48h1v1h-1zM55 48h1v1h-1zM56 48h1v1h-1zM57 48h1v1h-1zM58 48h1v1h-1zM59 48h1v1h-1zM60 48h1v1h-1zM61 48h1v1h-1zM62 48h1v1h-1zM63 48h1v1h-1zM64 48h1v1h-1zM65 48h1v1h-1zM66 48h1v1h-1zM67 48h1v1h-1z"/><path fill="#8C8A85" d="M68 48h1v1h-1z"/><path fill="#A8A29C" d="M69 48h1v1h-1zM70 48h1v1h-1zM71 48h1v1h-1zM72 48h1v1h-1zM73 48h1v1h-1zM74 48h1v1h-1z"/><path fill="#554C48" d="M75 48h1v1h-1z"/><path fill="#231815" d="M76 48h1v1h-1zM77 48h1v1h-1zM78 48h1v1h-1zM79 48h1v1h-1zM80 48h1v1h-1zM14 49h1v1h-1zM15 49h1v1h-1zM16 49h1v1h-1zM17 49h1v1h-1z"/><path fill="#50231A" d="M18 49h1v1h-1z"/><path fill="#7C2D1E" d="M19 49h1v1h-1zM20 49h1v1h-1zM21 49h1v1h-1zM22 49h1v1h-1zM23 49h1v1h-1zM24 49h1v1h-1zM25 49h1v1h-1zM26 49h1v1h-1zM27 49h1v1h-1zM28 49h1v1h-1zM29 49h1v1h-1zM30 49h1v1h-1zM31 49h1v1h-1zM32 49h1v1h-1zM33 49h1v1h-1zM34 49h1v1h-1zM35 49h1v1h-1zM36 49h1v1h-1zM37 49h1v1h-1z"/><path fill="#743A2E" d="M38 49h1v1h-1z"/><path fill="#5D615E" d="M39 49h1v1h-1zM40 49h1v1h-1zM41 49h1v1h-1zM42 49h1v1h-1zM43 49h1v1h-1zM44 49h1v1h-1zM45 49h1v1h-1zM46 49h1v1h-1zM47 49h1v1h-1zM48 49h1v1h-1zM49 49h1v1h-1zM50 49h1v1h-1zM51 49h1v1h-1zM52 49h1v1h-1zM53 49h1v1h-1zM54 49h1v1h-1zM55 49h1v1h-1zM56 49h1v1h-1zM57 49h1v1h-1zM58 49h1v1h-1zM59 49h1v1h-1zM60 49h1v1h-1zM61 49h1v1h-1zM62 49h1v1h-1zM63 49h1v1h-1zM64 49h1v1h-1zM65 49h1v1h-1z"/><path fill="#70716E" d="M66 49h1v1h-1z"/><path fill="#918E89" d="M67 49h1v1h-1z"/><path fill="#A8A29C" d="M68 49h1v1h-1zM69 49h1v1h-1zM70 49h1v1h-1zM71 49h1v1h-1zM72 49h1v1h-1zM73 49h1v1h-1z"/><path fill="#554C48" d="M74 49h1v1h-1z"/><path fill="#231815" d="M75 49h1v1h-1zM76 49h1v1h-1zM77 49h1v1h-1zM78 49h1v1h-1zM79 49h1v1h-1zM14 50h1v1h-1zM15 50h1v1h-1zM16 50h1v1h-1z"/><path fill="#2F201B" d="M17 50h1v1h-1z"/><path fill="#8E4832" d="M18 50h1v1h-1z"/><path fill="#944933" d="M19 50h1v1h-1zM20 50h1v1h-1z"/><path fill="#883B29" d="M21 50h1v1h-1z"/><path fill="#7C2D1E" d="M22 50h1v1h-1zM23 50h1v1h-1zM24 50h1v1h-1zM25 50h1v1h-1zM26 50h1v1h-1zM27 50h1v1h-1zM28 50h1v1h-1zM29 50h1v1h-1zM30 50h1v1h-1zM31 50h1v1h-1zM32 50h1v1h-1zM33 50h1v1h-1zM34 50h1v1h-1zM35 50h1v1h-1zM36 50h1v1h-1zM37 50h1v1h-1z"/><path fill="#7E4236" d="M38 50h1v1h-1z"/><path fill="#83827D" d="M39 50h1v1h-1zM40 50h1v1h-1zM41 50h1v1h-1zM42 50h1v1h-1zM43 50h1v1h-1zM44 50h1v1h-1zM45 50h1v1h-1zM46 50h1v1h-1zM47 50h1v1h-1zM48 50h1v1h-1zM49 50h1v1h-1zM50 50h1v1h-1zM51 50h1v1h-1zM52 50h1v1h-1zM53 50h1v1h-1zM54 50h1v1h-1zM55 50h1v1h-1zM56 50h1v1h-1zM57 50h1v1h-1z"/><path fill="#878681" d="M58 50h1v1h-1z"/><path fill="#95928D" d="M59 50h1v1h-1zM60 50h1v1h-1zM61 50h1v1h-1zM62 50h1v1h-1z"/><path fill="#9A9690" d="M63 50h1v1h-1z"/><path fill="#A8A29C" d="M64 50h1v1h-1zM65 50h1v1h-1zM66 50h1v1h-1zM67 50h1v1h-1zM68 50h1v1h-1zM69 50h1v1h-1zM70 50h1v1h-1zM71 50h1v1h-1zM72 50h1v1h-1z"/><path fill="#554C48" d="M73 50h1v1h-1z"/><path fill="#231815" d="M74 50h1v1h-1zM75 50h1v1h-1zM76 50h1v1h-1zM77 50h1v1h-1zM78 50h1v1h-1zM13 51h1v1h-1zM14 51h1v1h-1zM15 51h1v1h-1zM16 51h1v1h-1z"/><path fill="#8B6349" d="M17 51h1v1h-1z"/><path fill="#DB9D72" d="M18 51h1v1h-1zM19 51h1v1h-1zM20 51h1v1h-1zM21 51h1v1h-1z"/><path fill="#D17946" d="M22 51h1v1h-1z"/><path fill="#CD6832" d="M23 51h1v1h-1zM24 51h1v1h-1zM25 51h1v1h-1zM26 51h1v1h-1zM27 51h1v1h-1zM28 51h1v1h-1zM29 51h1v1h-1zM30 51h1v1h-1zM31 51h1v1h-1zM32 51h1v1h-1z"/><path fill="#C36130" d="M33 51h1v1h-1z"/><path fill="#7C2D1E" d="M34 51h1v1h-1zM35 51h1v1h-1zM36 51h1v1h-1zM37 51h1v1h-1z"/><path fill="#874A3E" d="M38 51h1v1h-1z"/><path fill="#A8A29C" d="M39 51h1v1h-1zM40 51h1v1h-1zM41 51h1v1h-1zM42 51h1v1h-1zM43 51h1v1h-1zM44 51h1v1h-1zM45 51h1v1h-1zM46 51h1v1h-1zM47 51h1v1h-1zM48 51h1v1h-1zM49 51h1v1h-1zM50 51h1v1h-1zM51 51h1v1h-1zM52 51h1v1h-1zM53 51h1v1h-1zM54 51h1v1h-1zM55 51h1v1h-1zM56 51h1v1h-1zM57 51h1v1h-1zM58 51h1v1h-1zM59 51h1v1h-1zM60 51h1v1h-1zM61 51h1v1h-1zM62 51h1v1h-1zM63 51h1v1h-1zM64 51h1v1h-1zM65 51h1v1h-1zM66 51h1v1h-1zM67 51h1v1h-1zM68 51h1v1h-1zM69 51h1v1h-1zM70 51h1v1h-1zM71 51h1v1h-1z"/><path fill="#554C48" d="M72 51h1v1h-1z"/><path fill="#231815" d="M73 51h1v1h-1zM74 51h1v1h-1zM75 51h1v1h-1zM76 51h1v1h-1zM77 51h1v1h-1zM12 52h1v1h-1zM13 52h1v1h-1zM14 52h1v1h-1zM15 52h1v1h-1z"/><path fill="#3A2921" d="M16 52h1v1h-1z"/><path fill="#DB9D72" d="M17 52h1v1h-1zM18 52h1v1h-1zM19 52h1v1h-1zM20 52h1v1h-1z"/><path fill="#D89062" d="M21 52h1v1h-1z"/><path fill="#CD6832" d="M22 52h1v1h-1zM23 52h1v1h-1zM24 52h1v1h-1zM25 52h1v1h-1zM26 52h1v1h-1zM27 52h1v1h-1zM28 52h1v1h-1zM29 52h1v1h-1zM30 52h1v1h-1zM31 52h1v1h-1zM32 52h1v1h-1z"/><path fill="#9A4326" d="M33 52h1v1h-1z"/><path fill="#7C2D1E" d="M34 52h1v1h-1zM35 52h1v1h-1zM36 52h1v1h-1zM37 52h1v1h-1z"/><path fill="#874A3E" d="M38 52h1v1h-1z"/><path fill="#A8A29C" d="M39 52h1v1h-1zM40 52h1v1h-1zM41 52h1v1h-1zM42 52h1v1h-1zM43 52h1v1h-1zM44 52h1v1h-1zM45 52h1v1h-1zM46 52h1v1h-1zM47 52h1v1h-1zM48 52h1v1h-1zM49 52h1v1h-1zM50 52h1v1h-1zM51 52h1v1h-1zM52 52h1v1h-1zM53 52h1v1h-1zM54 52h1v1h-1zM55 52h1v1h-1zM56 52h1v1h-1zM57 52h1v1h-1zM58 52h1v1h-1zM59 52h1v1h-1zM60 52h1v1h-1zM61 52h1v1h-1zM62 52h1v1h-1zM63 52h1v1h-1zM64 52h1v1h-1zM65 52h1v1h-1zM66 52h1v1h-1zM67 52h1v1h-1zM68 52h1v1h-1zM69 52h1v1h-1zM70 52h1v1h-1z"/><path fill="#554C48" d="M71 52h1v1h-1z"/><path fill="#231815" d="M72 52h1v1h-1zM73 52h1v1h-1zM74 52h1v1h-1zM75 52h1v1h-1zM76 52h1v1h-1zM12 53h1v1h-1zM13 53h1v1h-1zM14 53h1v1h-1zM15 53h1v1h-1z"/><path fill="#AD7C5B" d="M16 53h1v1h-1z"/><path fill="#DB9D72" d="M17 53h1v1h-1zM18 53h1v1h-1zM19 53h1v1h-1zM20 53h1v1h-1z"/><path fill="#CF6F3A" d="M21 53h1v1h-1z"/><path fill="#CD6832" d="M22 53h1v1h-1zM23 53h1v1h-1zM24 53h1v1h-1zM25 53h1v1h-1zM26 53h1v1h-1zM27 53h1v1h-1zM28 53h1v1h-1zM29 53h1v1h-1zM30 53h1v1h-1zM31 53h1v1h-1z"/><path fill="#C36130" d="M32 53h1v1h-1z"/><path fill="#7C2D1E" d="M33 53h1v1h-1zM34 53h1v1h-1zM35 53h1v1h-1zM36 53h1v1h-1zM37 53h1v1h-1z"/><path fill="#874A3E" d="M38 53h1v1h-1z"/><path fill="#A8A29C" d="M39 53h1v1h-1zM40 53h1v1h-1zM41 53h1v1h-1zM42 53h1v1h-1zM43 53h1v1h-1zM44 53h1v1h-1zM45 53h1v1h-1zM46 53h1v1h-1zM47 53h1v1h-1zM48 53h1v1h-1zM49 53h1v1h-1zM50 53h1v1h-1zM51 53h1v1h-1zM52 53h1v1h-1zM53 53h1v1h-1zM54 53h1v1h-1zM55 53h1v1h-1zM56 53h1v1h-1zM57 53h1v1h-1zM58 53h1v1h-1zM59 53h1v1h-1zM60 53h1v1h-1zM61 53h1v1h-1zM62 53h1v1h-1zM63 53h1v1h-1zM64 53h1v1h-1zM65 53h1v1h-1zM66 53h1v1h-1zM67 53h1v1h-1zM68 53h1v1h-1z"/><path fill="#A09994" d="M69 53h1v1h-1z"/><path fill="#443B37" d="M70 53h1v1h-1z"/><path fill="#231815" d="M71 53h1v1h-1zM72 53h1v1h-1zM73 53h1v1h-1zM74 53h1v1h-1zM75 53h1v1h-1zM11 54h1v1h-1zM12 54h1v1h-1zM13 54h1v1h-1zM14 54h1v1h-1z"/><path fill="#51392C" d="M15 54h1v1h-1z"/><path fill="#DB9D72" d="M16 54h1v1h-1zM17 54h1v1h-1zM18 54h1v1h-1zM19 54h1v1h-1z"/><path fill="#D48352" d="M20 54h1v1h-1z"/><path fill="#CD6832" d="M21 54h1v1h-1zM22 54h1v1h-1zM23 54h1v1h-1zM24 54h1v1h-1zM25 54h1v1h-1zM26 54h1v1h-1zM27 54h1v1h-1zM28 54h1v1h-1zM29 54h1v1h-1zM30 54h1v1h-1zM31 54h1v1h-1z"/><path fill="#9A4326" d="M32 54h1v1h-1z"/><path fill="#7C2D1E" d="M33 54h1v1h-1zM34 54h1v1h-1zM35 54h1v1h-1zM36 54h1v1h-1zM37 54h1v1h-1z"/><path fill="#874A3E" d="M38 54h1v1h-1z"/><path fill="#A8A29C" d="M39 54h1v1h-1zM40 54h1v1h-1zM41 54h1v1h-1zM42 54h1v1h-1zM43 54h1v1h-1zM44 54h1v1h-1zM45 54h1v1h-1zM46 54h1v1h-1zM47 54h1v1h-1zM48 54h1v1h-1zM49 54h1v1h-1zM50 54h1v1h-1zM51 54h1v1h-1zM52 54h1v1h-1zM53 54h1v1h-1zM54 54h1v1h-1zM55 54h1v1h-1zM56 54h1v1h-1zM57 54h1v1h-1zM58 54h1v1h-1zM59 54h1v1h-1zM60 54h1v1h-1zM61 54h1v1h-1zM62 54h1v1h-1zM63 54h1v1h-1zM64 54h1v1h-1zM65 54h1v1h-1zM66 54h1v1h-1zM67 54h1v1h-1z"/><path fill="#A09994" d="M68 54h1v1h-1z"/><path fill="#3C322E" d="M69 54h1v1h-1z"/><path fill="#231815" d="M70 54h1v1h-1zM71 54h1v1h-1zM72 54h1v1h-1zM73 54h1v1h-1zM74 54h1v1h-1zM11 55h1v1h-1zM12 55h1v1h-1zM13 55h1v1h-1zM14 55h1v1h-1z"/><path fill="#894C37" d="M15 55h1v1h-1z"/><path fill="#AC6548" d="M16 55h1v1h-1zM17 55h1v1h-1zM18 55h1v1h-1zM19 55h1v1h-1z"/><path fill="#A54E2C" d="M20 55h1v1h-1z"/><path fill="#A54B28" d="M21 55h1v1h-1zM22 55h1v1h-1zM23 55h1v1h-1zM24 55h1v1h-1zM25 55h1v1h-1zM26 55h1v1h-1zM27 55h1v1h-1zM28 55h1v1h-1zM29 55h1v1h-1z"/><path fill="#B4562C" d="M30 55h1v1h-1zM31 55h1v1h-1z"/><path fill="#7C2D1E" d="M32 55h1v1h-1zM33 55h1v1h-1zM34 55h1v1h-1zM35 55h1v1h-1zM36 55h1v1h-1zM37 55h1v1h-1z"/><path fill="#874A3E" d="M38 55h1v1h-1z"/><path fill="#A8A29C" d="M39 55h1v1h-1zM40 55h1v1h-1zM41 55h1v1h-1zM42 55h1v1h-1zM43 55h1v1h-1zM44 55h1v1h-1zM45 55h1v1h-1zM46 55h1v1h-1zM47 55h1v1h-1zM48 55h1v1h-1zM49 55h1v1h-1zM50 55h1v1h-1zM51 55h1v1h-1zM52 55h1v1h-1zM53 55h1v1h-1zM54 55h1v1h-1zM55 55h1v1h-1zM56 55h1v1h-1zM57 55h1v1h-1zM58 55h1v1h-1zM59 55h1v1h-1zM60 55h1v1h-1zM61 55h1v1h-1zM62 55h1v1h-1zM63 55h1v1h-1zM64 55h1v1h-1zM65 55h1v1h-1zM66 55h1v1h-1z"/><path fill="#8F8883" d="M67 55h1v1h-1z"/><path fill="#2B211D" d="M68 55h1v1h-1z"/><path fill="#231815" d="M69 55h1v1h-1zM70 55h1v1h-1zM71 55h1v1h-1zM72 55h1v1h-1zM73 55h1v1h-1zM10 56h1v1h-1zM11 56h1v1h-1zM12 56h1v1h-1zM13 56h1v1h-1z"/><path fill="#442018" d="M14 56h1v1h-1z"/><path fill="#7C2D1E" d="M15 56h1v1h-1zM16 56h1v1h-1zM17 56h1v1h-1zM18 56h1v1h-1zM19 56h1v1h-1zM20 56h1v1h-1zM21 56h1v1h-1zM22 56h1v1h-1zM23 56h1v1h-1zM24 56h1v1h-1zM25 56h1v1h-1zM26 56h1v1h-1zM27 56h1v1h-1zM28 56h1v1h-1zM29 56h1v1h-1zM30 56h1v1h-1zM31 56h1v1h-1zM32 56h1v1h-1zM33 56h1v1h-1zM34 56h1v1h-1zM35 56h1v1h-1zM36 56h1v1h-1zM37 56h1v1h-1z"/><path fill="#874A3E" d="M38 56h1v1h-1z"/><path fill="#A8A29C" d="M39 56h1v1h-1zM40 56h1v1h-1zM41 56h1v1h-1zM42 56h1v1h-1zM43 56h1v1h-1zM44 56h1v1h-1zM45 56h1v1h-1zM46 56h1v1h-1zM47 56h1v1h-1zM48 56h1v1h-1zM49 56h1v1h-1zM50 56h1v1h-1zM51 56h1v1h-1zM52 56h1v1h-1zM53 56h1v1h-1zM54 56h1v1h-1zM55 56h1v1h-1zM56 56h1v1h-1zM57 56h1v1h-1zM58 56h1v1h-1zM59 56h1v1h-1zM60 56h1v1h-1zM61 56h1v1h-1zM62 56h1v1h-1z"/><path fill="#8F8883" d="M63 56h1v1h-1z"/><path fill="#87807A" d="M64 56h1v1h-1zM65 56h1v1h-1z"/><path fill="#665D59" d="M66 56h1v1h-1z"/><path fill="#231815" d="M67 56h1v1h-1zM68 56h1v1h-1zM69 56h1v1h-1zM70 56h1v1h-1zM71 56h1v1h-1zM72 56h1v1h-1zM10 57h1v1h-1zM11 57h1v1h-1zM12 57h1v1h-1z"/><path fill="#291916" d="M13 57h1v1h-1z"/><path fill="#712A1D" d="M14 57h1v1h-1z"/><path fill="#7C2D1E" d="M15 57h1v1h-1zM16 57h1v1h-1zM17 57h1v1h-1zM18 57h1v1h-1zM19 57h1v1h-1zM20 57h1v1h-1zM21 57h1v1h-1zM22 57h1v1h-1zM23 57h1v1h-1zM24 57h1v1h-1zM25 57h1v1h-1zM26 57h1v1h-1zM27 57h1v1h-1zM28 57h1v1h-1zM29 57h1v1h-1zM30 57h1v1h-1zM31 57h1v1h-1zM32 57h1v1h-1zM33 57h1v1h-1zM34 57h1v1h-1zM35 57h1v1h-1zM36 57h1v1h-1zM37 57h1v1h-1z"/><path fill="#66352B" d="M38 57h1v1h-1z"/><path fill="#443B37" d="M39 57h1v1h-1zM40 57h1v1h-1zM41 57h1v1h-1zM42 57h1v1h-1zM43 57h1v1h-1zM44 57h1v1h-1zM45 57h1v1h-1zM46 57h1v1h-1zM47 57h1v1h-1zM48 57h1v1h-1zM49 57h1v1h-1zM50 57h1v1h-1zM51 57h1v1h-1zM52 57h1v1h-1zM53 57h1v1h-1z"/><path fill="#2B211D" d="M54 57h1v1h-1z"/><path fill="#231815" d="M55 57h1v1h-1zM56 57h1v1h-1zM57 57h1v1h-1zM58 57h1v1h-1zM59 57h1v1h-1zM60 57h1v1h-1zM61 57h1v1h-1zM62 57h1v1h-1zM63 57h1v1h-1zM64 57h1v1h-1zM65 57h1v1h-1zM66 57h1v1h-1zM67 57h1v1h-1zM68 57h1v1h-1zM69 57h1v1h-1zM70 57h1v1h-1zM71 57h1v1h-1zM9 58h1v1H9zM10 58h1v1h-1zM11 58h1v1h-1zM12 58h1v1h-1z"/><path fill="#50231A" d="M13 58h1v1h-1z"/><path fill="#7C2D1E" d="M14 58h1v1h-1zM15 58h1v1h-1zM16 58h1v1h-1zM17 58h1v1h-1zM18 58h1v1h-1zM19 58h1v1h-1zM20 58h1v1h-1zM21 58h1v1h-1zM22 58h1v1h-1zM23 58h1v1h-1zM24 58h1v1h-1zM25 58h1v1h-1zM26 58h1v1h-1zM27 58h1v1h-1zM28 58h1v1h-1zM29 58h1v1h-1zM30 58h1v1h-1zM31 58h1v1h-1zM32 58h1v1h-1zM33 58h1v1h-1zM34 58h1v1h-1zM35 58h1v1h-1zM36 58h1v1h-1z"/><path fill="#762C1D" d="M37 58h1v1h-1z"/><path fill="#291916" d="M38 58h1v1h-1z"/><path fill="#231815" d="M39 58h1v1h-1zM40 58h1v1h-1zM41 58h1v1h-1zM42 58h1v1h-1zM43 58h1v1h-1zM44 58h1v1h-1zM45 58h1v1h-1zM46 58h1v1h-1zM47 58h1v1h-1zM48 58h1v1h-1zM49 58h1v1h-1zM50 58h1v1h-1zM51 58h1v1h-1zM52 58h1v1h-1zM53 58h1v1h-1zM54 58h1v1h-1zM55 58h1v1h-1zM56 58h1v1h-1zM57 58h1v1h-1zM58 58h1v1h-1zM59 58h1v1h-1zM60 58h1v1h-1zM61 58h1v1h-1zM62 58h1v1h-1zM63 58h1v1h-1zM64 58h1v1h-1zM65 58h1v1h-1zM66 58h1v1h-1zM67 58h1v1h-1zM68 58h1v1h-1zM69 58h1v1h-1zM9 59h1v1H9zM10 59h1v1h-1zM11 59h1v1h-1z"/><path fill="#3A2921" d="M12 59h1v1h-1z"/><path fill="#BE805C" d="M13 59h1v1h-1z"/><path fill="#C3815D" d="M14 59h1v1h-1z"/><path fill="#B16C4D" d="M15 59h1v1h-1z"/><path fill="#AC6548" d="M16 59h1v1h-1z"/><path fill="#A75434" d="M17 59h1v1h-1z"/><path fill="#A54B28" d="M18 59h1v1h-1zM19 59h1v1h-1zM20 59h1v1h-1zM21 59h1v1h-1zM22 59h1v1h-1zM23 59h1v1h-1zM24 59h1v1h-1zM25 59h1v1h-1zM26 59h1v1h-1zM27 59h1v1h-1zM28 59h1v1h-1z"/><path fill="#9F4727" d="M29 59h1v1h-1z"/><path fill="#7C2D1E" d="M30 59h1v1h-1zM31 59h1v1h-1zM32 59h1v1h-1zM33 59h1v1h-1zM34 59h1v1h-1zM35 59h1v1h-1zM36 59h1v1h-1z"/><path fill="#5B251B" d="M37 59h1v1h-1z"/><path fill="#231815" d="M38 59h1v1h-1zM39 59h1v1h-1zM40 59h1v1h-1zM41 59h1v1h-1zM42 59h1v1h-1zM43 59h1v1h-1zM44 59h1v1h-1zM45 59h1v1h-1zM46 59h1v1h-1zM47 59h1v1h-1zM48 59h1v1h-1zM49 59h1v1h-1zM50 59h1v1h-1zM51 59h1v1h-1zM52 59h1v1h-1zM53 59h1v1h-1zM54 59h1v1h-1zM55 59h1v1h-1zM56 59h1v1h-1zM57 59h1v1h-1zM58 59h1v1h-1zM59 59h1v1h-1zM60 59h1v1h-1zM61 59h1v1h-1zM62 59h1v1h-1zM63 59h1v1h-1zM64 59h1v1h-1zM65 59h1v1h-1zM66 59h1v1h-1zM67 59h1v1h-1zM68 59h1v1h-1zM8 60h1v1H8zM9 60h1v1H9zM10 60h1v1h-1zM11 60h1v1h-1z"/><path fill="#966B4F" d="M12 60h1v1h-1z"/><path fill="#DB9D72" d="M13 60h1v1h-1zM14 60h1v1h-1zM15 60h1v1h-1z"/><path fill="#DA9A6E" d="M16 60h1v1h-1z"/><path fill="#CE6B36" d="M17 60h1v1h-1z"/><path fill="#CD6832" d="M18 60h1v1h-1zM19 60h1v1h-1zM20 60h1v1h-1zM21 60h1v1h-1zM22 60h1v1h-1zM23 60h1v1h-1zM24 60h1v1h-1zM25 60h1v1h-1zM26 60h1v1h-1zM27 60h1v1h-1zM28 60h1v1h-1z"/><path fill="#A54B28" d="M29 60h1v1h-1z"/><path fill="#7C2D1E" d="M30 60h1v1h-1zM31 60h1v1h-1zM32 60h1v1h-1zM33 60h1v1h-1zM34 60h1v1h-1zM35 60h1v1h-1zM36 60h1v1h-1z"/><path fill="#2E1B16" d="M37 60h1v1h-1z"/><path fill="#231815" d="M38 60h1v1h-1zM39 60h1v1h-1zM40 60h1v1h-1zM41 60h1v1h-1zM42 60h1v1h-1zM43 60h1v1h-1zM44 60h1v1h-1zM45 60h1v1h-1zM46 60h1v1h-1zM47 60h1v1h-1zM48 60h1v1h-1zM49 60h1v1h-1zM50 60h1v1h-1zM51 60h1v1h-1zM52 60h1v1h-1zM53 60h1v1h-1zM54 60h1v1h-1zM55 60h1v1h-1zM56 60h1v1h-1zM57 60h1v1h-1zM58 60h1v1h-1zM59 60h1v1h-1zM60 60h1v1h-1zM61 60h1v1h-1zM62 60h1v1h-1zM63 60h1v1h-1zM7 61h1v1H7zM8 61h1v1H8zM9 61h1v1H9zM10 61h1v1h-1z"/><path fill="#463126" d="M11 61h1v1h-1z"/><path fill="#DB9D72" d="M12 61h1v1h-1zM13 61h1v1h-1zM14 61h1v1h-1zM15 61h1v1h-1z"/><path fill="#D27C4A" d="M16 61h1v1h-1z"/><path fill="#CD6832" d="M17 61h1v1h-1zM18 61h1v1h-1zM19 61h1v1h-1zM20 61h1v1h-1zM21 61h1v1h-1zM22 61h1v1h-1zM23 61h1v1h-1zM24 61h1v1h-1zM25 61h1v1h-1zM26 61h1v1h-1zM27 61h1v1h-1z"/><path fill="#C86431" d="M28 61h1v1h-1z"/><path fill="#81311F" d="M29 61h1v1h-1z"/><path fill="#7C2D1E" d="M30 61h1v1h-1zM31 61h1v1h-1zM32 61h1v1h-1zM33 61h1v1h-1zM34 61h1v1h-1zM35 61h1v1h-1z"/><path fill="#60261B" d="M36 61h1v1h-1z"/><path fill="#231815" d="M37 61h1v1h-1zM38 61h1v1h-1zM39 61h1v1h-1zM40 61h1v1h-1zM7 62h1v1H7zM8 62h1v1H8zM9 62h1v1H9zM10 62h1v1h-1z"/><path fill="#AD7C5B" d="M11 62h1v1h-1z"/><path fill="#DB9D72" d="M12 62h1v1h-1zM13 62h1v1h-1zM14 62h1v1h-1z"/><path fill="#D89062" d="M15 62h1v1h-1z"/><path fill="#CD6832" d="M16 62h1v1h-1zM17 62h1v1h-1zM18 62h1v1h-1zM19 62h1v1h-1zM20 62h1v1h-1zM21 62h1v1h-1zM22 62h1v1h-1zM23 62h1v1h-1zM24 62h1v1h-1zM25 62h1v1h-1zM26 62h1v1h-1zM27 62h1v1h-1z"/><path fill="#A54B28" d="M28 62h1v1h-1z"/><path fill="#7C2D1E" d="M29 62h1v1h-1zM30 62h1v1h-1zM31 62h1v1h-1zM32 62h1v1h-1zM33 62h1v1h-1zM34 62h1v1h-1zM35 62h1v1h-1z"/><path fill="#391D17" d="M36 62h1v1h-1z"/><path fill="#231815" d="M37 62h1v1h-1zM38 62h1v1h-1zM39 62h1v1h-1zM6 63h1v1H6zM7 63h1v1H7zM8 63h1v1H8zM9 63h1v1H9z"/><path fill="#5D4232" d="M10 63h1v1h-1z"/><path fill="#DB9D72" d="M11 63h1v1h-1zM12 63h1v1h-1zM13 63h1v1h-1zM14 63h1v1h-1z"/><path fill="#D17542" d="M15 63h1v1h-1z"/><path fill="#CD6832" d="M16 63h1v1h-1zM17 63h1v1h-1zM18 63h1v1h-1zM19 63h1v1h-1zM20 63h1v1h-1zM21 63h1v1h-1zM22 63h1v1h-1zM23 63h1v1h-1zM24 63h1v1h-1zM25 63h1v1h-1zM26 63h1v1h-1z"/><path fill="#C86431" d="M27 63h1v1h-1z"/><path fill="#81311F" d="M28 63h1v1h-1z"/><path fill="#7C2D1E" d="M29 63h1v1h-1zM30 63h1v1h-1zM31 63h1v1h-1zM32 63h1v1h-1zM33 63h1v1h-1zM34 63h1v1h-1z"/><path fill="#712A1D" d="M35 63h1v1h-1z"/><path fill="#231815" d="M36 63h1v1h-1zM37 63h1v1h-1zM38 63h1v1h-1zM39 63h1v1h-1zM6 64h1v1H6zM7 64h1v1H7zM8 64h1v1H8zM9 64h1v1H9z"/><path fill="#712A1D" d="M10 64h1v1h-1z"/><path fill="#7C2D1E" d="M11 64h1v1h-1zM12 64h1v1h-1zM13 64h1v1h-1zM14 64h1v1h-1zM15 64h1v1h-1zM16 64h1v1h-1zM17 64h1v1h-1zM18 64h1v1h-1zM19 64h1v1h-1zM20 64h1v1h-1zM21 64h1v1h-1zM22 64h1v1h-1zM23 64h1v1h-1zM24 64h1v1h-1zM25 64h1v1h-1zM26 64h1v1h-1zM27 64h1v1h-1zM28 64h1v1h-1zM29 64h1v1h-1zM30 64h1v1h-1zM31 64h1v1h-1zM32 64h1v1h-1zM33 64h1v1h-1zM34 64h1v1h-1z"/><path fill="#442018" d="M35 64h1v1h-1z"/><path fill="#231815" d="M36 64h1v1h-1zM37 64h1v1h-1zM38 64h1v1h-1zM39 64h1v1h-1zM5 65h1v1H5zM6 65h1v1H6zM7 65h1v1H7zM8 65h1v1H8z"/><path fill="#4A2119" d="M9 65h1v1H9z"/><path fill="#7C2D1E" d="M10 65h1v1h-1zM11 65h1v1h-1zM12 65h1v1h-1zM13 65h1v1h-1zM14 65h1v1h-1zM15 65h1v1h-1zM16 65h1v1h-1zM17 65h1v1h-1zM18 65h1v1h-1zM19 65h1v1h-1zM20 65h1v1h-1zM21 65h1v1h-1zM22 65h1v1h-1zM23 65h1v1h-1zM24 65h1v1h-1zM25 65h1v1h-1zM26 65h1v1h-1zM27 65h1v1h-1zM28 65h1v1h-1zM29 65h1v1h-1zM30 65h1v1h-1zM31 65h1v1h-1zM32 65h1v1h-1zM33 65h1v1h-1z"/><path fill="#762C1D" d="M34 65h1v1h-1z"/><path fill="#231815" d="M35 65h1v1h-1zM36 65h1v1h-1zM37 65h1v1h-1zM38 65h1v1h-1zM5 66h1v1H5zM6 66h1v1H6zM7 66h1v1H7z"/><path fill="#291916" d="M8 66h1v1H8z"/><path fill="#762C1D" d="M9 66h1v1H9z"/><path fill="#7C2D1E" d="M10 66h1v1h-1zM11 66h1v1h-1zM12 66h1v1h-1zM13 66h1v1h-1zM14 66h1v1h-1zM15 66h1v1h-1zM16 66h1v1h-1zM17 66h1v1h-1zM18 66h1v1h-1zM19 66h1v1h-1zM20 66h1v1h-1zM21 66h1v1h-1zM22 66h1v1h-1zM23 66h1v1h-1zM24 66h1v1h-1zM25 66h1v1h-1zM26 66h1v1h-1zM27 66h1v1h-1zM28 66h1v1h-1zM29 66h1v1h-1zM30 66h1v1h-1zM31 66h1v1h-1zM32 66h1v1h-1zM33 66h1v1h-1z"/><path fill="#50231A" d="M34 66h1v1h-1z"/><path fill="#231815" d="M35 66h1v1h-1zM36 66h1v1h-1zM37 66h1v1h-1zM38 66h1v1h-1zM4 67h1v1H4zM5 67h1v1H5zM6 67h1v1H6zM7 67h1v1H7z"/><path fill="#67392A" d="M8 67h1v1H8z"/><path fill="#944933" d="M9 67h1v1H9zM10 67h1v1h-1zM11 67h1v1h-1z"/><path fill="#93462F" d="M12 67h1v1h-1z"/><path fill="#903C23" d="M13 67h1v1h-1zM14 67h1v1h-1zM15 67h1v1h-1zM16 67h1v1h-1zM17 67h1v1h-1zM18 67h1v1h-1z"/><path fill="#81311F" d="M19 67h1v1h-1z"/><path fill="#7C2D1E" d="M20 67h1v1h-1zM21 67h1v1h-1zM22 67h1v1h-1zM23 67h1v1h-1zM24 67h1v1h-1zM25 67h1v1h-1zM26 67h1v1h-1zM27 67h1v1h-1zM28 67h1v1h-1zM29 67h1v1h-1zM30 67h1v1h-1zM31 67h1v1h-1zM32 67h1v1h-1zM33 67h1v1h-1z"/><path fill="#291916" d="M34 67h1v1h-1z"/><path fill="#231815" d="M35 67h1v1h-1zM36 67h1v1h-1zM37 67h1v1h-1zM3 68h1v1H3zM4 68h1v1H4zM5 68h1v1H5zM6 68h1v1H6z"/><path fill="#3A2921" d="M7 68h1v1H7z"/><path fill="#DB9D72" d="M8 68h1v1H8zM9 68h1v1H9zM10 68h1v1h-1zM11 68h1v1h-1z"/><path fill="#D17542" d="M12 68h1v1h-1z"/><path fill="#CD6832" d="M13 68h1v1h-1zM14 68h1v1h-1zM15 68h1v1h-1zM16 68h1v1h-1zM17 68h1v1h-1zM18 68h1v1h-1zM19 68h1v1h-1zM20 68h1v1h-1zM21 68h1v1h-1zM22 68h1v1h-1zM23 68h1v1h-1zM24 68h1v1h-1z"/><path fill="#AF522B" d="M25 68h1v1h-1z"/><path fill="#7C2D1E" d="M26 68h1v1h-1zM27 68h1v1h-1zM28 68h1v1h-1zM29 68h1v1h-1zM30 68h1v1h-1zM31 68h1v1h-1zM32 68h1v1h-1z"/><path fill="#5B251B" d="M33 68h1v1h-1z"/><path fill="#231815" d="M34 68h1v1h-1zM35 68h1v1h-1zM36 68h1v1h-1zM37 68h1v1h-1zM3 69h1v1H3zM4 69h1v1H4zM5 69h1v1H5zM6 69h1v1H6z"/><path fill="#A27355" d="M7 69h1v1H7z"/><path fill="#DB9D72" d="M8 69h1v1H8zM9 69h1v1H9zM10 69h1v1h-1z"/><path fill="#D78C5E" d="M11 69h1v1h-1z"/><path fill="#CD6832" d="M12 69h1v1h-1zM13 69h1v1h-1zM14 69h1v1h-1zM15 69h1v1h-1zM16 69h1v1h-1zM17 69h1v1h-1zM18 69h1v1h-1zM19 69h1v1h-1zM20 69h1v1h-1zM21 69h1v1h-1zM22 69h1v1h-1zM23 69h1v1h-1zM24 69h1v1h-1z"/><path fill="#863421" d="M25 69h1v1h-1z"/><path fill="#7C2D1E" d="M26 69h1v1h-1zM27 69h1v1h-1zM28 69h1v1h-1zM29 69h1v1h-1zM30 69h1v1h-1zM31 69h1v1h-1zM32 69h1v1h-1z"/><path fill="#2E1B16" d="M33 69h1v1h-1z"/><path fill="#231815" d="M34 69h1v1h-1zM35 69h1v1h-1zM36 69h1v1h-1zM2 70h1v1H2zM3 70h1v1H3zM4 70h1v1H4zM5 70h1v1H5z"/><path fill="#51392C" d="M6 70h1v1H6z"/><path fill="#DB9D72" d="M7 70h1v1H7zM8 70h1v1H8zM9 70h1v1H9zM10 70h1v1h-1z"/><path fill="#CF6F3A" d="M11 70h1v1h-1z"/><path fill="#CD6832" d="M12 70h1v1h-1zM13 70h1v1h-1zM14 70h1v1h-1zM15 70h1v1h-1zM16 70h1v1h-1zM17 70h1v1h-1zM18 70h1v1h-1zM19 70h1v1h-1zM20 70h1v1h-1zM21 70h1v1h-1zM22 70h1v1h-1zM23 70h1v1h-1z"/><path fill="#AF522B" d="M24 70h1v1h-1z"/><path fill="#7C2D1E" d="M25 70h1v1h-1zM26 70h1v1h-1zM27 70h1v1h-1zM28 70h1v1h-1zM29 70h1v1h-1zM30 70h1v1h-1zM31 70h1v1h-1z"/><path fill="#66281C" d="M32 70h1v1h-1z"/><path fill="#231815" d="M33 70h1v1h-1zM34 70h1v1h-1zM35 70h1v1h-1zM36 70h1v1h-1zM2 71h1v1H2zM3 71h1v1H3zM4 71h1v1H4zM5 71h1v1H5z"/><path fill="#8B6349" d="M6 71h1v1H6z"/><path fill="#AD7C5B" d="M7 71h1v1H7zM8 71h1v1H8zM9 71h1v1H9z"/><path fill="#A96B47" d="M10 71h1v1h-1z"/><path fill="#A3542B" d="M11 71h1v1h-1zM12 71h1v1h-1zM13 71h1v1h-1zM14 71h1v1h-1zM15 71h1v1h-1zM16 71h1v1h-1zM17 71h1v1h-1zM18 71h1v1h-1zM19 71h1v1h-1zM20 71h1v1h-1zM21 71h1v1h-1zM22 71h1v1h-1zM23 71h1v1h-1z"/><path fill="#702F1E" d="M24 71h1v1h-1z"/><path fill="#712A1D" d="M25 71h1v1h-1z"/><path fill="#7C2D1E" d="M26 71h1v1h-1zM27 71h1v1h-1zM28 71h1v1h-1zM29 71h1v1h-1zM30 71h1v1h-1zM31 71h1v1h-1z"/><path fill="#391D17" d="M32 71h1v1h-1z"/><path fill="#231815" d="M33 71h1v1h-1zM34 71h1v1h-1zM35 71h1v1h-1zM1 72h1v1H1zM2 72h1v1H2zM3 72h1v1H3zM4 72h1v1H4zM5 72h1v1H5zM6 72h1v1H6zM7 72h1v1H7zM8 72h1v1H8zM9 72h1v1H9zM10 72h1v1h-1zM11 72h1v1h-1zM12 72h1v1h-1zM13 72h1v1h-1zM14 72h1v1h-1zM15 72h1v1h-1zM16 72h1v1h-1zM17 72h1v1h-1zM18 72h1v1h-1zM19 72h1v1h-1zM20 72h1v1h-1zM21 72h1v1h-1zM22 72h1v1h-1zM23 72h1v1h-1zM24 72h1v1h-1zM25 72h1v1h-1z"/><path fill="#4A2119" d="M26 72h1v1h-1z"/><path fill="#7C2D1E" d="M27 72h1v1h-1zM28 72h1v1h-1zM29 72h1v1h-1zM30 72h1v1h-1z"/><path fill="#712A1D" d="M31 72h1v1h-1z"/><path fill="#231815" d="M32 72h1v1h-1zM33 72h1v1h-1zM34 72h1v1h-1zM35 72h1v1h-1zM1 73h1v1H1zM2 73h1v1H2zM3 73h1v1H3zM4 73h1v1H4zM5 73h1v1H5zM6 73h1v1H6zM7 73h1v1H7zM8 73h1v1H8zM9 73h1v1H9zM10 73h1v1h-1zM11 73h1v1h-1zM12 73h1v1h-1zM13 73h1v1h-1zM14 73h1v1h-1zM15 73h1v1h-1zM16 73h1v1h-1zM17 73h1v1h-1zM18 73h1v1h-1zM19 73h1v1h-1zM20 73h1v1h-1zM21 73h1v1h-1zM22 73h1v1h-1zM23 73h1v1h-1zM24 73h1v1h-1zM25 73h1v1h-1zM26 73h1v1h-1z"/><path fill="#712A1D" d="M27 73h1v1h-1z"/><path fill="#7C2D1E" d="M28 73h1v1h-1zM29 73h1v1h-1zM30 73h1v1h-1z"/><path fill="#442018" d="M31 73h1v1h-1z"/><path fill="#231815" d="M32 73h1v1h-1zM33 73h1v1h-1zM34 73h1v1h-1zM35 73h1v1h-1zM0 74h1v1H0zM1 74h1v1H1zM2 74h1v1H2zM3 74h1v1H3zM4 74h1v1H4zM5 74h1v1H5zM6 74h1v1H6zM7 74h1v1H7zM8 74h1v1H8zM9 74h1v1H9zM10 74h1v1h-1zM11 74h1v1h-1zM12 74h1v1h-1zM13 74h1v1h-1zM14 74h1v1h-1zM15 74h1v1h-1zM16 74h1v1h-1zM17 74h1v1h-1zM18 74h1v1h-1zM19 74h1v1h-1zM20 74h1v1h-1zM21 74h1v1h-1zM22 74h1v1h-1zM23 74h1v1h-1zM24 74h1v1h-1zM25 74h1v1h-1zM26 74h1v1h-1z"/><path fill="#50231A" d="M27 74h1v1h-1z"/><path fill="#7C2D1E" d="M28 74h1v1h-1zM29 74h1v1h-1z"/><path fill="#712A1D" d="M30 74h1v1h-1z"/><path fill="#231815" d="M31 74h1v1h-1zM32 74h1v1h-1zM33 74h1v1h-1zM34 74h1v1h-1zM0 75h1v1H0zM1 75h1v1H1zM2 75h1v1H2z"/><path fill="#3F3532" d="M3 75h1v1H3z"/><path fill="#FFF" d="M4 75h1v1H4zM5 75h1v1H5zM6 75h1v1H6zM7 75h1v1H7zM8 75h1v1H8zM9 75h1v1H9zM10 75h1v1h-1zM11 75h1v1h-1zM12 75h1v1h-1zM13 75h1v1h-1zM14 75h1v1h-1zM15 75h1v1h-1zM16 75h1v1h-1zM17 75h1v1h-1zM18 75h1v1h-1z"/><path fill="#FBFAFA" d="M19 75h1v1h-1z"/><path fill="#C1BAB7" d="M20 75h1v1h-1z"/><path fill="#B8B0AD" d="M21 75h1v1h-1zM22 75h1v1h-1zM23 75h1v1h-1z"/><path fill="#5B514E" d="M24 75h1v1h-1z"/><path fill="#231815" d="M25 75h1v1h-1zM26 75h1v1h-1z"/><path fill="#391D17" d="M27 75h1v1h-1z"/><path fill="#7C2D1E" d="M28 75h1v1h-1zM29 75h1v1h-1z"/><path fill="#50231A" d="M30 75h1v1h-1z"/><path fill="#231815" d="M31 75h1v1h-1zM32 75h1v1h-1zM33 75h1v1h-1zM34 75h1v1h-1zM0 76h1v1H0zM1 76h1v1H1zM2 76h1v1H2z"/><path fill="#837D7B" d="M3 76h1v1H3z"/><path fill="#FFF" d="M4 76h1v1H4zM5 76h1v1H5zM6 76h1v1H6zM7 76h1v1H7zM8 76h1v1H8zM9 76h1v1H9zM10 76h1v1h-1zM11 76h1v1h-1zM12 76h1v1h-1zM13 76h1v1h-1zM14 76h1v1h-1zM15 76h1v1h-1zM16 76h1v1h-1zM17 76h1v1h-1zM18 76h1v1h-1zM19 76h1v1h-1z"/><path fill="#DCD8D6" d="M20 76h1v1h-1z"/><path fill="#B8B0AD" d="M21 76h1v1h-1zM22 76h1v1h-1zM23 76h1v1h-1z"/><path fill="#807774" d="M24 76h1v1h-1z"/><path fill="#231815" d="M25 76h1v1h-1zM26 76h1v1h-1zM27 76h1v1h-1z"/><path fill="#7C2D1E" d="M28 76h1v1h-1z"/><path fill="#762C1D" d="M29 76h1v1h-1z"/><path fill="#291916" d="M30 76h1v1h-1z"/><path fill="#231815" d="M31 76h1v1h-1zM32 76h1v1h-1zM33 76h1v1h-1zM0 77h1v1H0zM1 77h1v1H1zM2 77h1v1H2z"/><path fill="#918C8A" d="M3 77h1v1H3z"/><path fill="#FFF" d="M4 77h1v1H4zM5 77h1v1H5zM6 77h1v1H6zM7 77h1v1H7zM8 77h1v1H8zM9 77h1v1H9zM10 77h1v1h-1zM11 77h1v1h-1zM12 77h1v1h-1zM13 77h1v1h-1zM14 77h1v1h-1zM15 77h1v1h-1zM16 77h1v1h-1zM17 77h1v1h-1zM18 77h1v1h-1zM19 77h1v1h-1z"/><path fill="#DCD8D6" d="M20 77h1v1h-1z"/><path fill="#B8B0AD" d="M21 77h1v1h-1zM22 77h1v1h-1zM23 77h1v1h-1z"/><path fill="#938A87" d="M24 77h1v1h-1z"/><path fill="#231815" d="M25 77h1v1h-1zM26 77h1v1h-1zM27 77h1v1h-1z"/><path fill="#7C2D1E" d="M28 77h1v1h-1z"/><path fill="#50231A" d="M29 77h1v1h-1z"/><path fill="#231815" d="M30 77h1v1h-1zM31 77h1v1h-1zM32 77h1v1h-1zM33 77h1v1h-1zM0 78h1v1H0zM1 78h1v1H1zM2 78h1v1H2z"/><path fill="#C8C5C5" d="M3 78h1v1H3z"/><path fill="#FFF" d="M4 78h1v1H4zM5 78h1v1H5zM6 78h1v1H6zM7 78h1v1H7zM8 78h1v1H8zM9 78h1v1H9zM10 78h1v1h-1zM11 78h1v1h-1zM12 78h1v1h-1zM13 78h1v1h-1zM14 78h1v1h-1zM15 78h1v1h-1zM16 78h1v1h-1zM17 78h1v1h-1zM18 78h1v1h-1zM19 78h1v1h-1z"/><path fill="#D3CECC" d="M20 78h1v1h-1z"/><path fill="#B8B0AD" d="M21 78h1v1h-1zM22 78h1v1h-1zM23 78h1v1h-1z"/><path fill="#AFA7A4" d="M24 78h1v1h-1z"/><path fill="#231815" d="M25 78h1v1h-1zM26 78h1v1h-1zM27 78h1v1h-1z"/><path fill="#66281C" d="M28 78h1v1h-1z"/><path fill="#291916" d="M29 78h1v1h-1z"/><path fill="#231815" d="M30 78h1v1h-1zM31 78h1v1h-1zM32 78h1v1h-1zM0 79h1v1H0zM1 79h1v1H1zM2 79h1v1H2z"/><path fill="#B6B2B0" d="M3 79h1v1H3z"/><path fill="#FFF" d="M4 79h1v1H4zM5 79h1v1H5zM6 79h1v1H6zM7 79h1v1H7zM8 79h1v1H8zM9 79h1v1H9zM10 79h1v1h-1zM11 79h1v1h-1zM12 79h1v1h-1zM13 79h1v1h-1zM14 79h1v1h-1zM15 79h1v1h-1zM16 79h1v1h-1zM17 79h1v1h-1z"/><path fill="#FBFAFA" d="M18 79h1v1h-1z"/><path fill="#DCD8D6" d="M19 79h1v1h-1z"/><path fill="#B8B0AD" d="M20 79h1v1h-1zM21 79h1v1h-1zM22 79h1v1h-1zM23 79h1v1h-1zM24 79h1v1h-1z"/><path fill="#231815" d="M25 79h1v1h-1zM26 79h1v1h-1zM27 79h1v1h-1z"/><path fill="#442018" d="M28 79h1v1h-1z"/><path fill="#231815" d="M29 79h1v1h-1zM30 79h1v1h-1zM31 79h1v1h-1zM32 79h1v1h-1zM0 80h1v1H0zM1 80h1v1H1zM2 80h1v1H2z"/><path fill="#938A87" d="M3 80h1v1H3z"/><path fill="#B8B0AD" d="M4 80h1v1H4zM5 80h1v1H5zM6 80h1v1H6zM7 80h1v1H7zM8 80h1v1H8zM9 80h1v1H9zM10 80h1v1h-1zM11 80h1v1h-1zM12 80h1v1h-1zM13 80h1v1h-1zM14 80h1v1h-1zM15 80h1v1h-1zM16 80h1v1h-1zM17 80h1v1h-1zM18 80h1v1h-1zM19 80h1v1h-1zM20 80h1v1h-1zM21 80h1v1h-1zM22 80h1v1h-1zM23 80h1v1h-1zM24 80h1v1h-1z"/><path fill="#231815" d="M25 80h1v1h-1zM26 80h1v1h-1zM27 80h1v1h-1zM28 80h1v1h-1zM29 80h1v1h-1zM30 80h1v1h-1zM31 80h1v1h-1zM0 81h1v1H0zM1 81h1v1H1zM2 81h1v1H2z"/><path fill="#6E6461" d="M3 81h1v1H3z"/><path fill="#B8B0AD" d="M4 81h1v1H4zM5 81h1v1H5zM6 81h1v1H6zM7 81h1v1H7zM8 81h1v1H8zM9 81h1v1H9zM10 81h1v1h-1zM11 81h1v1h-1zM12 81h1v1h-1zM13 81h1v1h-1zM14 81h1v1h-1zM15 81h1v1h-1zM16 81h1v1h-1zM17 81h1v1h-1zM18 81h1v1h-1zM19 81h1v1h-1zM20 81h1v1h-1zM21 81h1v1h-1zM22 81h1v1h-1zM23 81h1v1h-1zM24 81h1v1h-1z"/><path fill="#231815" d="M25 81h1v1h-1zM26 81h1v1h-1zM27 81h1v1h-1zM28 81h1v1h-1zM29 81h1v1h-1zM30 81h1v1h-1zM31 81h1v1h-1zM0 82h1v1H0zM1 82h1v1H1zM2 82h1v1H2z"/><path fill="#645B58" d="M3 82h1v1H3z"/><path fill="#B8B0AD" d="M4 82h1v1H4zM5 82h1v1H5zM6 82h1v1H6zM7 82h1v1H7zM8 82h1v1H8zM9 82h1v1H9zM10 82h1v1h-1zM11 82h1v1h-1zM12 82h1v1h-1zM13 82h1v1h-1zM14 82h1v1h-1zM15 82h1v1h-1zM16 82h1v1h-1zM17 82h1v1h-1zM18 82h1v1h-1zM19 82h1v1h-1zM20 82h1v1h-1zM21 82h1v1h-1zM22 82h1v1h-1zM23 82h1v1h-1z"/><path fill="#A59D9A" d="M24 82h1v1h-1z"/><path fill="#231815" d="M25 82h1v1h-1zM26 82h1v1h-1zM27 82h1v1h-1zM28 82h1v1h-1zM29 82h1v1h-1zM30 82h1v1h-1zM0 83h1v1H0zM1 83h1v1H1zM2 83h1v1H2z"/><path fill="#483E3B" d="M3 83h1v1H3z"/><path fill="#B8B0AD" d="M4 83h1v1H4zM5 83h1v1H5zM6 83h1v1H6zM7 83h1v1H7zM8 83h1v1H8zM9 83h1v1H9zM10 83h1v1h-1zM11 83h1v1h-1zM12 83h1v1h-1zM13 83h1v1h-1zM14 83h1v1h-1zM15 83h1v1h-1zM16 83h1v1h-1zM17 83h1v1h-1zM18 83h1v1h-1zM19 83h1v1h-1zM20 83h1v1h-1zM21 83h1v1h-1zM22 83h1v1h-1zM23 83h1v1h-1z"/><path fill="#938A87" d="M24 83h1v1h-1z"/><path fill="#231815" d="M25 83h1v1h-1zM26 83h1v1h-1zM27 83h1v1h-1zM28 83h1v1h-1zM29 83h1v1h-1zM30 83h1v1h-1zM0 84h1v1H0zM1 84h1v1H1zM2 84h1v1H2zM3 84h1v1H3z"/><path fill="#AFA7A4" d="M4 84h1v1H4z"/><path fill="#B8B0AD" d="M5 84h1v1H5zM6 84h1v1H6zM7 84h1v1H7zM8 84h1v1H8zM9 84h1v1H9zM10 84h1v1h-1zM11 84h1v1h-1zM12 84h1v1h-1zM13 84h1v1h-1zM14 84h1v1h-1zM15 84h1v1h-1zM16 84h1v1h-1zM17 84h1v1h-1zM18 84h1v1h-1zM19 84h1v1h-1zM20 84h1v1h-1zM21 84h1v1h-1zM22 84h1v1h-1zM23 84h1v1h-1z"/><path fill="#938A87" d="M24 84h1v1h-1z"/><path fill="#231815" d="M25 84h1v1h-1zM26 84h1v1h-1zM27 84h1v1h-1zM28 84h1v1h-1zM29 84h1v1h-1zM0 85h1v1H0zM1 85h1v1H1zM2 85h1v1H2zM3 85h1v1H3z"/><path fill="#5B514E" d="M4 85h1v1H4z"/><path fill="#B8B0AD" d="M5 85h1v1H5zM6 85h1v1H6zM7 85h1v1H7zM8 85h1v1H8zM9 85h1v1H9zM10 85h1v1h-1zM11 85h1v1h-1zM12 85h1v1h-1zM13 85h1v1h-1zM14 85h1v1h-1zM15 85h1v1h-1zM16 85h1v1h-1zM17 85h1v1h-1zM18 85h1v1h-1zM19 85h1v1h-1zM20 85h1v1h-1zM21 85h1v1h-1zM22 85h1v1h-1z"/><path fill="#9C9491" d="M23 85h1v1h-1z"/><path fill="#5B514E" d="M24 85h1v1h-1z"/><path fill="#231815" d="M25 85h1v1h-1zM26 85h1v1h-1zM27 85h1v1h-1zM28 85h1v1h-1zM29 85h1v1h-1zM1 86h1v1H1zM2 86h1v1H2zM3 86h1v1H3zM4 86h1v1H4zM5 86h1v1H5zM6 86h1v1H6z"/><path fill="#3F3532" d="M7 86h1v1H7z"/><path fill="#483E3B" d="M8 86h1v1H8zM9 86h1v1H9zM10 86h1v1h-1zM11 86h1v1h-1zM12 86h1v1h-1zM13 86h1v1h-1zM14 86h1v1h-1zM15 86h1v1h-1zM16 86h1v1h-1zM17 86h1v1h-1zM18 86h1v1h-1zM19 86h1v1h-1zM20 86h1v1h-1z"/><path fill="#231815" d="M21 86h1v1h-1zM22 86h1v1h-1zM23 86h1v1h-1zM24 86h1v1h-1zM25 86h1v1h-1zM26 86h1v1h-1zM27 86h1v1h-1zM28 86h1v1h-1zM1 87h1v1H1zM2 87h1v1H2zM3 87h1v1H3zM4 87h1v1H4zM5 87h1v1H5zM6 87h1v1H6zM7 87h1v1H7zM8 87h1v1H8zM9 87h1v1H9zM10 87h1v1h-1zM11 87h1v1h-1zM12 87h1v1h-1zM13 87h1v1h-1zM14 87h1v1h-1zM15 87h1v1h-1zM16 87h1v1h-1zM17 87h1v1h-1zM18 87h1v1h-1zM19 87h1v1h-1zM20 87h1v1h-1zM21 87h1v1h-1zM22 87h1v1h-1zM23 87h1v1h-1zM24 87h1v1h-1zM25 87h1v1h-1zM26 87h1v1h-1zM27 87h1v1h-1zM28 87h1v1h-1zM2 88h1v1H2zM3 88h1v1H3zM4 88h1v1H4zM5 88h1v1H5zM6 88h1v1H6zM7 88h1v1H7zM8 88h1v1H8zM9 88h1v1H9zM10 88h1v1h-1zM11 88h1v1h-1zM12 88h1v1h-1zM13 88h1v1h-1zM14 88h1v1h-1zM15 88h1v1h-1zM16 88h1v1h-1zM17 88h1v1h-1zM18 88h1v1h-1zM19 88h1v1h-1zM20 88h1v1h-1zM21 88h1v1h-1zM22 88h1v1h-1zM23 88h1v1h-1zM24 88h1v1h-1zM25 88h1v1h-1zM26 88h1v1h-1zM27 88h1v1h-1zM4 89h1v1H4zM5 89h1v1H5zM6 89h1v1H6zM7 89h1v1H7zM8 89h1v1H8zM9 89h1v1H9zM10 89h1v1h-1zM11 89h1v1h-1zM12 89h1v1h-1zM13 89h1v1h-1zM14 89h1v1h-1zM15 89h1v1h-1zM16 89h1v1h-1zM17 89h1v1h-1zM18 89h1v1h-1zM19 89h1v1h-1zM20 89h1v1h-1zM21 89h1v1h-1zM22 89h1v1h-1zM23 89h1v1h-1z"/></svg>