<svg baseProfile="full" height="64" width="90" xmlns="http://www.w3.org/2000/svg"><path fill="#231815" d="M35 0h1v1h-1zM36 0h1v1h-1zM37 0h1v1h-1zM38 0h1v1h-1zM39 0h1v1h-1zM40 0h1v1h-1zM33 1h1v1h-1zM34 1h1v1h-1zM35 1h1v1h-1zM36 1h1v1h-1zM37 1h1v1h-1zM38 1h1v1h-1zM39 1h1v1h-1zM40 1h1v1h-1zM41 1h1v1h-1zM31 2h1v1h-1zM32 2h1v1h-1zM33 2h1v1h-1zM34 2h1v1h-1zM35 2h1v1h-1zM36 2h1v1h-1zM37 2h1v1h-1zM38 2h1v1h-1zM39 2h1v1h-1zM40 2h1v1h-1zM41 2h1v1h-1zM42 2h1v1h-1zM29 3h1v1h-1zM30 3h1v1h-1zM31 3h1v1h-1zM32 3h1v1h-1zM33 3h1v1h-1zM34 3h1v1h-1z"/><path fill="#2C2121" d="M35 3h1v1h-1z"/><path fill="#3E3438" d="M36 3h1v1h-1z"/><path fill="#473D43" d="M37 3h1v1h-1z"/><path fill="#43383D" d="M38 3h1v1h-1z"/><path fill="#2A1F1E" d="M39 3h1v1h-1z"/><path fill="#231815" d="M40 3h1v1h-1zM41 3h1v1h-1zM42 3h1v1h-1zM27 4h1v1h-1zM28 4h1v1h-1zM29 4h1v1h-1zM30 4h1v1h-1zM31 4h1v1h-1zM32 4h1v1h-1z"/><path fill="#2C2121" d="M33 4h1v1h-1z"/><path fill="#3E3438" d="M34 4h1v1h-1z"/><path fill="#473D43" d="M35 4h1v1h-1zM36 4h1v1h-1zM37 4h1v1h-1zM38 4h1v1h-1z"/><path fill="#453B40" d="M39 4h1v1h-1z"/><path fill="#2A1F1E" d="M40 4h1v1h-1z"/><path fill="#231815" d="M41 4h1v1h-1zM42 4h1v1h-1zM43 4h1v1h-1zM25 5h1v1h-1zM26 5h1v1h-1zM27 5h1v1h-1zM28 5h1v1h-1zM29 5h1v1h-1zM30 5h1v1h-1z"/><path fill="#322928" d="M31 5h1v1h-1z"/><path fill="#473F43" d="M32 5h1v1h-1z"/><path fill="#473D43" d="M33 5h1v1h-1zM34 5h1v1h-1zM35 5h1v1h-1zM36 5h1v1h-1zM37 5h1v1h-1zM38 5h1v1h-1zM39 5h1v1h-1z"/><path fill="#3E3438" d="M40 5h1v1h-1z"/><path fill="#231815" d="M41 5h1v1h-1zM42 5h1v1h-1zM43 5h1v1h-1zM23 6h1v1h-1zM24 6h1v1h-1zM25 6h1v1h-1zM26 6h1v1h-1zM27 6h1v1h-1zM28 6h1v1h-1z"/><path fill="#322928" d="M29 6h1v1h-1z"/><path fill="#4F4A4E" d="M30 6h1v1h-1z"/><path fill="#5A555B" d="M31 6h1v1h-1z"/><path fill="#483F45" d="M32 6h1v1h-1z"/><path fill="#473D43" d="M33 6h1v1h-1z"/><path fill="#43383D" d="M34 6h1v1h-1z"/><path fill="#3A2F32" d="M35 6h1v1h-1z"/><path fill="#352B2C" d="M36 6h1v1h-1zM37 6h1v1h-1z"/><path fill="#43383D" d="M38 6h1v1h-1z"/><path fill="#473D43" d="M39 6h1v1h-1zM40 6h1v1h-1z"/><path fill="#2E2423" d="M41 6h1v1h-1z"/><path fill="#231815" d="M42 6h1v1h-1zM43 6h1v1h-1zM44 6h1v1h-1zM21 7h1v1h-1zM22 7h1v1h-1zM23 7h1v1h-1zM24 7h1v1h-1zM25 7h1v1h-1zM26 7h1v1h-1z"/><path fill="#2A201F" d="M27 7h1v1h-1z"/><path fill="#4F4A4E" d="M28 7h1v1h-1z"/><path fill="#5E5A61" d="M29 7h1v1h-1z"/><path fill="#58535A" d="M30 7h1v1h-1z"/><path fill="#483F45" d="M31 7h1v1h-1z"/><path fill="#43383D" d="M32 7h1v1h-1z"/><path fill="#312626" d="M33 7h1v1h-1z"/><path fill="#231815" d="M34 7h1v1h-1zM35 7h1v1h-1zM36 7h1v1h-1zM37 7h1v1h-1zM38 7h1v1h-1z"/><path fill="#3A2F32" d="M39 7h1v1h-1z"/><path fill="#473D43" d="M40 7h1v1h-1z"/><path fill="#3E3438" d="M41 7h1v1h-1z"/><path fill="#231815" d="M42 7h1v1h-1zM43 7h1v1h-1zM44 7h1v1h-1zM19 8h1v1h-1zM20 8h1v1h-1zM21 8h1v1h-1zM22 8h1v1h-1zM23 8h1v1h-1zM24 8h1v1h-1z"/><path fill="#2A201F" d="M25 8h1v1h-1z"/><path fill="#484145" d="M26 8h1v1h-1z"/><path fill="#5E5A61" d="M27 8h1v1h-1z"/><path fill="#5D585F" d="M28 8h1v1h-1z"/><path fill="#514A50" d="M29 8h1v1h-1z"/><path fill="#473D43" d="M30 8h1v1h-1z"/><path fill="#352B2C" d="M31 8h1v1h-1z"/><path fill="#251A18" d="M32 8h1v1h-1z"/><path fill="#231815" d="M33 8h1v1h-1zM34 8h1v1h-1zM35 8h1v1h-1zM36 8h1v1h-1zM37 8h1v1h-1zM38 8h1v1h-1z"/><path fill="#251A18" d="M39 8h1v1h-1z"/><path fill="#453B40" d="M40 8h1v1h-1z"/><path fill="#473D43" d="M41 8h1v1h-1z"/><path fill="#281D1B" d="M42 8h1v1h-1z"/><path fill="#231815" d="M43 8h1v1h-1zM44 8h1v1h-1zM45 8h1v1h-1zM17 9h1v1h-1zM18 9h1v1h-1zM19 9h1v1h-1zM20 9h1v1h-1zM21 9h1v1h-1zM22 9h1v1h-1z"/><path fill="#2A201F" d="M23 9h1v1h-1z"/><path fill="#484145" d="M24 9h1v1h-1z"/><path fill="#5E5A61" d="M25 9h1v1h-1zM26 9h1v1h-1z"/><path fill="#554F56" d="M27 9h1v1h-1z"/><path fill="#483F45" d="M28 9h1v1h-1z"/><path fill="#3E3438" d="M29 9h1v1h-1z"/><path fill="#281D1B" d="M30 9h1v1h-1z"/><path fill="#231815" d="M31 9h1v1h-1zM32 9h1v1h-1zM33 9h1v1h-1zM34 9h1v1h-1zM35 9h1v1h-1zM36 9h1v1h-1zM37 9h1v1h-1zM38 9h1v1h-1zM39 9h1v1h-1z"/><path fill="#372D2F" d="M40 9h1v1h-1z"/><path fill="#473D43" d="M41 9h1v1h-1z"/><path fill="#312626" d="M42 9h1v1h-1z"/><path fill="#231815" d="M43 9h1v1h-1zM44 9h1v1h-1zM45 9h1v1h-1zM15 10h1v1h-1zM16 10h1v1h-1zM17 10h1v1h-1zM18 10h1v1h-1zM19 10h1v1h-1zM20 10h1v1h-1z"/><path fill="#271C1A" d="M21 10h1v1h-1z"/><path fill="#41393B" d="M22 10h1v1h-1z"/><path fill="#5A565C" d="M23 10h1v1h-1z"/><path fill="#5E5A61" d="M24 10h1v1h-1z"/><path fill="#575158" d="M25 10h1v1h-1z"/><path fill="#4A4147" d="M26 10h1v1h-1z"/><path fill="#43383D" d="M27 10h1v1h-1z"/><path fill="#2C2121" d="M28 10h1v1h-1z"/><path fill="#231815" d="M29 10h1v1h-1zM30 10h1v1h-1zM31 10h1v1h-1zM32 10h1v1h-1zM33 10h1v1h-1zM34 10h1v1h-1zM37 10h1v1h-1zM38 10h1v1h-1zM39 10h1v1h-1z"/><path fill="#2E2423" d="M40 10h1v1h-1z"/><path fill="#473D43" d="M41 10h1v1h-1z"/><path fill="#3C3135" d="M42 10h1v1h-1z"/><path fill="#231815" d="M43 10h1v1h-1zM44 10h1v1h-1zM45 10h1v1h-1zM13 11h1v1h-1zM14 11h1v1h-1zM15 11h1v1h-1zM16 11h1v1h-1zM17 11h1v1h-1zM18 11h1v1h-1z"/><path fill="#271C1A" d="M19 11h1v1h-1z"/><path fill="#41393B" d="M20 11h1v1h-1z"/><path fill="#5A565C" d="M21 11h1v1h-1z"/><path fill="#5E5A61" d="M22 11h1v1h-1z"/><path fill="#58535A" d="M23 11h1v1h-1z"/><path fill="#4D444B" d="M24 11h1v1h-1z"/><path fill="#453B40" d="M25 11h1v1h-1z"/><path fill="#352B2C" d="M26 11h1v1h-1z"/><path fill="#231815" d="M27 11h1v1h-1zM28 11h1v1h-1zM29 11h1v1h-1zM30 11h1v1h-1zM31 11h1v1h-1zM32 11h1v1h-1zM38 11h1v1h-1zM39 11h1v1h-1z"/><path fill="#251A18" d="M40 11h1v1h-1z"/><path fill="#473D43" d="M41 11h1v1h-1z"/><path fill="#43383D" d="M42 11h1v1h-1z"/><path fill="#231815" d="M43 11h1v1h-1zM44 11h1v1h-1zM45 11h1v1h-1zM12 12h1v1h-1zM13 12h1v1h-1zM14 12h1v1h-1zM15 12h1v1h-1zM16 12h1v1h-1zM17 12h1v1h-1z"/><path fill="#393132" d="M18 12h1v1h-1z"/><path fill="#575258" d="M19 12h1v1h-1z"/><path fill="#5E5A61" d="M20 12h1v1h-1z"/><path fill="#5A555B" d="M21 12h1v1h-1z"/><path fill="#4D444B" d="M22 12h1v1h-1z"/><path fill="#473D43" d="M23 12h1v1h-1z"/><path fill="#3C3135" d="M24 12h1v1h-1z"/><path fill="#281D1B" d="M25 12h1v1h-1z"/><path fill="#231815" d="M26 12h1v1h-1zM27 12h1v1h-1zM28 12h1v1h-1zM29 12h1v1h-1zM30 12h1v1h-1zM38 12h1v1h-1zM39 12h1v1h-1zM40 12h1v1h-1z"/><path fill="#473D43" d="M41 12h1v1h-1zM42 12h1v1h-1z"/><path fill="#231815" d="M43 12h1v1h-1zM44 12h1v1h-1zM45 12h1v1h-1zM10 13h1v1h-1zM11 13h1v1h-1zM12 13h1v1h-1zM13 13h1v1h-1zM14 13h1v1h-1zM15 13h1v1h-1z"/><path fill="#352D2D" d="M16 13h1v1h-1z"/><path fill="#575258" d="M17 13h1v1h-1z"/><path fill="#5E5A61" d="M18 13h1v1h-1z"/><path fill="#5B565D" d="M19 13h1v1h-1z"/><path fill="#50484E" d="M20 13h1v1h-1z"/><path fill="#473D43" d="M21 13h1v1h-1z"/><path fill="#43383D" d="M22 13h1v1h-1z"/><path fill="#2C2121" d="M23 13h1v1h-1z"/><path fill="#231815" d="M24 13h1v1h-1zM25 13h1v1h-1zM26 13h1v1h-1zM27 13h1v1h-1zM28 13h1v1h-1zM29 13h1v1h-1zM38 13h1v1h-1zM39 13h1v1h-1zM40 13h1v1h-1z"/><path fill="#3E3438" d="M41 13h1v1h-1z"/><path fill="#473D43" d="M42 13h1v1h-1z"/><path fill="#2C2121" d="M43 13h1v1h-1z"/><path fill="#231815" d="M44 13h1v1h-1zM45 13h1v1h-1zM8 14h1v1H8zM9 14h1v1H9zM10 14h1v1h-1zM11 14h1v1h-1zM12 14h1v1h-1zM13 14h1v1h-1z"/><path fill="#322928" d="M14 14h1v1h-1z"/><path fill="#4F4A4E" d="M15 14h1v1h-1z"/><path fill="#5E5A61" d="M16 14h1v1h-1z"/><path fill="#5B565D" d="M17 14h1v1h-1z"/><path fill="#50484E" d="M18 14h1v1h-1z"/><path fill="#473D43" d="M19 14h1v1h-1z"/><path fill="#453B40" d="M20 14h1v1h-1z"/><path fill="#352B2C" d="M21 14h1v1h-1z"/><path fill="#231815" d="M22 14h1v1h-1zM23 14h1v1h-1zM24 14h1v1h-1zM25 14h1v1h-1zM26 14h1v1h-1zM27 14h1v1h-1zM38 14h1v1h-1zM39 14h1v1h-1zM40 14h1v1h-1z"/><path fill="#3E3438" d="M41 14h1v1h-1z"/><path fill="#453B40" d="M42 14h1v1h-1z"/><path fill="#251A18" d="M43 14h1v1h-1z"/><path fill="#231815" d="M44 14h1v1h-1zM45 14h1v1h-1zM6 15h1v1H6zM7 15h1v1H7zM8 15h1v1H8zM9 15h1v1H9zM10 15h1v1h-1zM11 15h1v1h-1z"/><path fill="#2A201F" d="M12 15h1v1h-1z"/><path fill="#4F4A4E" d="M13 15h1v1h-1z"/><path fill="#5E5A61" d="M14 15h1v1h-1z"/><path fill="#5D585F" d="M15 15h1v1h-1z"/><path fill="#50484E" d="M16 15h1v1h-1z"/><path fill="#473D43" d="M17 15h1v1h-1zM18 15h1v1h-1z"/><path fill="#3C3135" d="M19 15h1v1h-1z"/><path fill="#281D1B" d="M20 15h1v1h-1z"/><path fill="#231815" d="M21 15h1v1h-1zM22 15h1v1h-1zM23 15h1v1h-1zM24 15h1v1h-1zM25 15h1v1h-1zM38 15h1v1h-1zM39 15h1v1h-1zM40 15h1v1h-1z"/><path fill="#3E3438" d="M41 15h1v1h-1z"/><path fill="#312626" d="M42 15h1v1h-1z"/><path fill="#231815" d="M43 15h1v1h-1zM44 15h1v1h-1zM45 15h1v1h-1zM4 16h1v1H4zM5 16h1v1H5zM6 16h1v1H6zM7 16h1v1H7zM8 16h1v1H8zM9 16h1v1H9zM10 16h1v1h-1zM11 16h1v1h-1z"/><path fill="#2A201F" d="M12 16h1v1h-1z"/><path fill="#41393B" d="M13 16h1v1h-1z"/><path fill="#50494F" d="M14 16h1v1h-1z"/><path fill="#483F45" d="M15 16h1v1h-1z"/><path fill="#473D43" d="M16 16h1v1h-1z"/><path fill="#43383D" d="M17 16h1v1h-1z"/><path fill="#2C2121" d="M18 16h1v1h-1z"/><path fill="#231815" d="M19 16h1v1h-1zM20 16h1v1h-1zM21 16h1v1h-1zM22 16h1v1h-1zM23 16h1v1h-1zM24 16h1v1h-1zM38 16h1v1h-1zM39 16h1v1h-1zM40 16h1v1h-1z"/><path fill="#281D1B" d="M41 16h1v1h-1z"/><path fill="#231815" d="M42 16h1v1h-1zM43 16h1v1h-1zM44 16h1v1h-1zM45 16h1v1h-1zM3 17h1v1H3zM4 17h1v1H4zM5 17h1v1H5zM6 17h1v1H6zM7 17h1v1H7zM8 17h1v1H8zM9 17h1v1H9zM10 17h1v1h-1zM11 17h1v1h-1zM12 17h1v1h-1zM13 17h1v1h-1z"/><path fill="#251A18" d="M14 17h1v1h-1z"/><path fill="#352B2C" d="M15 17h1v1h-1zM16 17h1v1h-1z"/><path fill="#231815" d="M17 17h1v1h-1zM18 17h1v1h-1zM19 17h1v1h-1zM20 17h1v1h-1zM21 17h1v1h-1zM22 17h1v1h-1zM38 17h1v1h-1zM39 17h1v1h-1zM40 17h1v1h-1zM41 17h1v1h-1zM42 17h1v1h-1zM43 17h1v1h-1zM44 17h1v1h-1zM2 18h1v1H2zM3 18h1v1H3zM4 18h1v1H4zM5 18h1v1H5z"/><path fill="#251A18" d="M6 18h1v1H6z"/><path fill="#352B2C" d="M7 18h1v1H7z"/><path fill="#3E3438" d="M8 18h1v1H8zM9 18h1v1H9z"/><path fill="#352B2C" d="M10 18h1v1h-1z"/><path fill="#2A1F1E" d="M11 18h1v1h-1z"/><path fill="#231815" d="M12 18h1v1h-1zM13 18h1v1h-1zM14 18h1v1h-1zM15 18h1v1h-1zM16 18h1v1h-1zM17 18h1v1h-1zM18 18h1v1h-1zM19 18h1v1h-1zM20 18h1v1h-1zM39 18h1v1h-1zM40 18h1v1h-1zM41 18h1v1h-1zM42 18h1v1h-1zM43 18h1v1h-1zM2 19h1v1H2zM3 19h1v1H3zM4 19h1v1H4z"/><path fill="#312626" d="M5 19h1v1H5z"/><path fill="#43383D" d="M6 19h1v1H6z"/><path fill="#473D43" d="M7 19h1v1H7zM8 19h1v1H8zM9 19h1v1H9zM10 19h1v1h-1zM11 19h1v1h-1z"/><path fill="#43383D" d="M12 19h1v1h-1z"/><path fill="#312626" d="M13 19h1v1h-1z"/><path fill="#231815" d="M14 19h1v1h-1zM15 19h1v1h-1zM16 19h1v1h-1zM17 19h1v1h-1zM18 19h1v1h-1zM19 19h1v1h-1zM40 19h1v1h-1zM41 19h1v1h-1zM1 20h1v1H1zM2 20h1v1H2zM3 20h1v1H3z"/><path fill="#281D1B" d="M4 20h1v1H4z"/><path fill="#473D43" d="M5 20h1v1H5zM6 20h1v1H6zM7 20h1v1H7zM8 20h1v1H8zM9 20h1v1H9zM10 20h1v1h-1zM11 20h1v1h-1zM12 20h1v1h-1zM13 20h1v1h-1z"/><path fill="#3E3438" d="M14 20h1v1h-1z"/><path fill="#251A18" d="M15 20h1v1h-1z"/><path fill="#231815" d="M16 20h1v1h-1zM17 20h1v1h-1zM18 20h1v1h-1zM19 20h1v1h-1zM79 20h1v1h-1zM80 20h1v1h-1zM81 20h1v1h-1zM82 20h1v1h-1zM83 20h1v1h-1zM84 20h1v1h-1zM85 20h1v1h-1zM1 21h1v1H1zM2 21h1v1H2zM3 21h1v1H3z"/><path fill="#3A2F32" d="M4 21h1v1H4z"/><path fill="#473D43" d="M5 21h1v1H5zM6 21h1v1H6z"/><path fill="#50575A" d="M7 21h1v1H7z"/><path fill="#5F807E" d="M8 21h1v1H8z"/><path fill="#648F8B" d="M9 21h1v1H9z"/><path fill="#628A87" d="M10 21h1v1h-1z"/><path fill="#566667" d="M11 21h1v1h-1z"/><path fill="#494248" d="M12 21h1v1h-1z"/><path fill="#473D43" d="M13 21h1v1h-1zM14 21h1v1h-1z"/><path fill="#453B40" d="M15 21h1v1h-1z"/><path fill="#2A1F1E" d="M16 21h1v1h-1z"/><path fill="#231815" d="M17 21h1v1h-1zM18 21h1v1h-1zM19 21h1v1h-1zM20 21h1v1h-1zM77 21h1v1h-1zM78 21h1v1h-1zM79 21h1v1h-1zM80 21h1v1h-1zM81 21h1v1h-1zM82 21h1v1h-1zM83 21h1v1h-1zM84 21h1v1h-1zM85 21h1v1h-1zM86 21h1v1h-1zM1 22h1v1H1zM2 22h1v1H2z"/><path fill="#251A18" d="M3 22h1v1H3z"/><path fill="#473D43" d="M4 22h1v1H4zM5 22h1v1H5z"/><path fill="#5C6365" d="M6 22h1v1H6z"/><path fill="#B2C7C5" d="M7 22h1v1H7zM8 22h1v1H8z"/><path fill="#779D9A" d="M9 22h1v1H9z"/><path fill="#648F8B" d="M10 22h1v1h-1zM11 22h1v1h-1z"/><path fill="#5F807E" d="M12 22h1v1h-1z"/><path fill="#4C4C51" d="M13 22h1v1h-1z"/><path fill="#473D43" d="M14 22h1v1h-1zM15 22h1v1h-1z"/><path fill="#453B40" d="M16 22h1v1h-1z"/><path fill="#2A1F1E" d="M17 22h1v1h-1z"/><path fill="#231815" d="M18 22h1v1h-1zM19 22h1v1h-1zM20 22h1v1h-1zM21 22h1v1h-1zM75 22h1v1h-1zM76 22h1v1h-1zM77 22h1v1h-1zM78 22h1v1h-1zM79 22h1v1h-1zM80 22h1v1h-1zM81 22h1v1h-1z"/><path fill="#2A1F1E" d="M82 22h1v1h-1z"/><path fill="#251A18" d="M83 22h1v1h-1z"/><path fill="#231815" d="M84 22h1v1h-1zM85 22h1v1h-1zM86 22h1v1h-1zM0 23h1v1H0zM1 23h1v1H1zM2 23h1v1H2z"/><path fill="#312626" d="M3 23h1v1H3z"/><path fill="#473D43" d="M4 23h1v1H4z"/><path fill="#4E5255" d="M5 23h1v1H5z"/><path fill="#E2EAE9" d="M6 23h1v1H6z"/><path fill="#FFF" d="M7 23h1v1H7zM8 23h1v1H8z"/><path fill="#F5F8F8" d="M9 23h1v1H9z"/><path fill="#779D9A" d="M10 23h1v1h-1z"/><path fill="#648F8B" d="M11 23h1v1h-1zM12 23h1v1h-1z"/><path fill="#5F807E" d="M13 23h1v1h-1z"/><path fill="#494248" d="M14 23h1v1h-1z"/><path fill="#473D43" d="M15 23h1v1h-1zM16 23h1v1h-1z"/><path fill="#453B40" d="M17 23h1v1h-1z"/><path fill="#2A1F1E" d="M18 23h1v1h-1z"/><path fill="#231815" d="M19 23h1v1h-1zM20 23h1v1h-1zM21 23h1v1h-1zM73 23h1v1h-1zM74 23h1v1h-1zM75 23h1v1h-1zM76 23h1v1h-1zM77 23h1v1h-1zM78 23h1v1h-1z"/><path fill="#251A18" d="M79 23h1v1h-1z"/><path fill="#312626" d="M80 23h1v1h-1z"/><path fill="#43383D" d="M81 23h1v1h-1z"/><path fill="#473D43" d="M82 23h1v1h-1z"/><path fill="#40363A" d="M83 23h1v1h-1z"/><path fill="#251A18" d="M84 23h1v1h-1z"/><path fill="#231815" d="M85 23h1v1h-1zM86 23h1v1h-1zM87 23h1v1h-1zM0 24h1v1H0zM1 24h1v1H1zM2 24h1v1H2z"/><path fill="#3A2F32" d="M3 24h1v1H3z"/><path fill="#473D43" d="M4 24h1v1H4z"/><path fill="#97A5A5" d="M5 24h1v1H5z"/><path fill="#FFF" d="M6 24h1v1H6zM7 24h1v1H7zM8 24h1v1H8zM9 24h1v1H9z"/><path fill="#BBCECC" d="M10 24h1v1h-1z"/><path fill="#648F8B" d="M11 24h1v1h-1zM12 24h1v1h-1zM13 24h1v1h-1z"/><path fill="#576B6C" d="M14 24h1v1h-1z"/><path fill="#473D43" d="M15 24h1v1h-1zM16 24h1v1h-1zM17 24h1v1h-1z"/><path fill="#43383D" d="M18 24h1v1h-1z"/><path fill="#251A18" d="M19 24h1v1h-1z"/><path fill="#231815" d="M20 24h1v1h-1zM21 24h1v1h-1zM22 24h1v1h-1zM71 24h1v1h-1zM72 24h1v1h-1zM73 24h1v1h-1zM74 24h1v1h-1zM75 24h1v1h-1zM76 24h1v1h-1z"/><path fill="#271C1A" d="M77 24h1v1h-1z"/><path fill="#41393B" d="M78 24h1v1h-1z"/><path fill="#554F55" d="M79 24h1v1h-1z"/><path fill="#473D43" d="M80 24h1v1h-1zM81 24h1v1h-1zM82 24h1v1h-1zM83 24h1v1h-1z"/><path fill="#3A2F32" d="M84 24h1v1h-1z"/><path fill="#231815" d="M85 24h1v1h-1zM86 24h1v1h-1zM87 24h1v1h-1zM0 25h1v1H0zM1 25h1v1H1zM2 25h1v1H2z"/><path fill="#40363A" d="M3 25h1v1H3z"/><path fill="#4B474C" d="M4 25h1v1H4z"/><path fill="#B2C7C5" d="M5 25h1v1H5z"/><path fill="#FFF" d="M6 25h1v1H6zM7 25h1v1H7zM8 25h1v1H8zM9 25h1v1H9z"/><path fill="#E6F2F3" d="M10 25h1v1h-1z"/><path fill="#89B6B9" d="M11 25h1v1h-1z"/><path fill="#699491" d="M12 25h1v1h-1z"/><path fill="#648F8B" d="M13 25h1v1h-1zM14 25h1v1h-1z"/><path fill="#4B474C" d="M15 25h1v1h-1z"/><path fill="#473D43" d="M16 25h1v1h-1zM17 25h1v1h-1zM18 25h1v1h-1z"/><path fill="#352B2C" d="M19 25h1v1h-1z"/><path fill="#231815" d="M20 25h1v1h-1zM21 25h1v1h-1zM22 25h1v1h-1zM69 25h1v1h-1zM70 25h1v1h-1zM71 25h1v1h-1zM72 25h1v1h-1zM73 25h1v1h-1zM74 25h1v1h-1z"/><path fill="#271C1A" d="M75 25h1v1h-1z"/><path fill="#41393B" d="M76 25h1v1h-1z"/><path fill="#5A565C" d="M77 25h1v1h-1z"/><path fill="#5D585F" d="M78 25h1v1h-1z"/><path fill="#4B4249" d="M79 25h1v1h-1z"/><path fill="#473D43" d="M80 25h1v1h-1zM81 25h1v1h-1zM82 25h1v1h-1zM83 25h1v1h-1zM84 25h1v1h-1z"/><path fill="#281D1B" d="M85 25h1v1h-1z"/><path fill="#231815" d="M86 25h1v1h-1zM87 25h1v1h-1zM88 25h1v1h-1zM0 26h1v1H0zM1 26h1v1H1zM2 26h1v1H2z"/><path fill="#473D43" d="M3 26h1v1H3z"/><path fill="#546163" d="M4 26h1v1H4z"/><path fill="#B6CCCB" d="M5 26h1v1H5z"/><path fill="#FFF" d="M6 26h1v1H6zM7 26h1v1H7zM8 26h1v1H8zM9 26h1v1H9z"/><path fill="#EBF7F9" d="M10 26h1v1h-1z"/><path fill="#AEDDE6" d="M11 26h1v1h-1z"/><path fill="#A0CED5" d="M12 26h1v1h-1z"/><path fill="#699491" d="M13 26h1v1h-1z"/><path fill="#648F8B" d="M14 26h1v1h-1z"/><path fill="#597070" d="M15 26h1v1h-1z"/><path fill="#473D43" d="M16 26h1v1h-1zM17 26h1v1h-1zM18 26h1v1h-1z"/><path fill="#453B40" d="M19 26h1v1h-1z"/><path fill="#251A18" d="M20 26h1v1h-1z"/><path fill="#231815" d="M21 26h1v1h-1zM22 26h1v1h-1zM23 26h1v1h-1zM67 26h1v1h-1zM68 26h1v1h-1zM69 26h1v1h-1zM70 26h1v1h-1zM71 26h1v1h-1zM72 26h1v1h-1z"/><path fill="#2A201F" d="M73 26h1v1h-1z"/><path fill="#484145" d="M74 26h1v1h-1z"/><path fill="#5E5A61" d="M75 26h1v1h-1zM76 26h1v1h-1z"/><path fill="#5B565D" d="M77 26h1v1h-1z"/><path fill="#4B4249" d="M78 26h1v1h-1z"/><path fill="#3E3438" d="M79 26h1v1h-1z"/><path fill="#352B2C" d="M80 26h1v1h-1zM81 26h1v1h-1z"/><path fill="#3E3438" d="M82 26h1v1h-1z"/><path fill="#473D43" d="M83 26h1v1h-1zM84 26h1v1h-1z"/><path fill="#372D2F" d="M85 26h1v1h-1z"/><path fill="#231815" d="M86 26h1v1h-1zM87 26h1v1h-1zM88 26h1v1h-1zM0 27h1v1H0zM1 27h1v1H1z"/><path fill="#251A18" d="M2 27h1v1H2z"/><path fill="#473D43" d="M3 27h1v1H3z"/><path fill="#597070" d="M4 27h1v1H4z"/><path fill="#CDE7EB" d="M5 27h1v1H5z"/><path fill="#FFF" d="M6 27h1v1H6zM7 27h1v1H7zM8 27h1v1H8zM9 27h1v1H9z"/><path fill="#E6F4F7" d="M10 27h1v1h-1z"/><path fill="#AEDDE6" d="M11 27h1v1h-1zM12 27h1v1h-1z"/><path fill="#A0CED5" d="M13 27h1v1h-1z"/><path fill="#699491" d="M14 27h1v1h-1z"/><path fill="#648F8B" d="M15 27h1v1h-1z"/><path fill="#494248" d="M16 27h1v1h-1z"/><path fill="#473D43" d="M17 27h1v1h-1zM18 27h1v1h-1zM19 27h1v1h-1z"/><path fill="#312626" d="M20 27h1v1h-1z"/><path fill="#231815" d="M21 27h1v1h-1zM22 27h1v1h-1zM23 27h1v1h-1zM33 27h1v1h-1zM34 27h1v1h-1zM35 27h1v1h-1zM36 27h1v1h-1zM37 27h1v1h-1zM38 27h1v1h-1zM39 27h1v1h-1zM40 27h1v1h-1zM41 27h1v1h-1zM42 27h1v1h-1zM43 27h1v1h-1zM65 27h1v1h-1zM66 27h1v1h-1zM67 27h1v1h-1zM68 27h1v1h-1zM69 27h1v1h-1zM70 27h1v1h-1z"/><path fill="#2A201F" d="M71 27h1v1h-1z"/><path fill="#484145" d="M72 27h1v1h-1z"/><path fill="#5E5A61" d="M73 27h1v1h-1zM74 27h1v1h-1zM75 27h1v1h-1z"/><path fill="#575158" d="M76 27h1v1h-1z"/><path fill="#443A3F" d="M77 27h1v1h-1z"/><path fill="#2C2121" d="M78 27h1v1h-1z"/><path fill="#231815" d="M79 27h1v1h-1zM80 27h1v1h-1zM81 27h1v1h-1zM82 27h1v1h-1z"/><path fill="#372D2F" d="M83 27h1v1h-1z"/><path fill="#473D43" d="M84 27h1v1h-1z"/><path fill="#43383D" d="M85 27h1v1h-1z"/><path fill="#231815" d="M86 27h1v1h-1zM87 27h1v1h-1zM88 27h1v1h-1zM0 28h1v1H0zM1 28h1v1H1z"/><path fill="#2C2121" d="M2 28h1v1H2z"/><path fill="#473D43" d="M3 28h1v1H3z"/><path fill="#6F8E90" d="M4 28h1v1H4z"/><path fill="#B8E1E9" d="M5 28h1v1H5z"/><path fill="#FFF" d="M6 28h1v1H6zM7 28h1v1H7zM8 28h1v1H8zM9 28h1v1H9z"/><path fill="#C2E6EC" d="M10 28h1v1h-1z"/><path fill="#AEDDE6" d="M11 28h1v1h-1zM12 28h1v1h-1zM13 28h1v1h-1z"/><path fill="#97C5CA" d="M14 28h1v1h-1z"/><path fill="#648F8B" d="M15 28h1v1h-1z"/><path fill="#525C5E" d="M16 28h1v1h-1z"/><path fill="#473D43" d="M17 28h1v1h-1zM18 28h1v1h-1zM19 28h1v1h-1z"/><path fill="#3C3135" d="M20 28h1v1h-1z"/><path fill="#231815" d="M21 28h1v1h-1zM22 28h1v1h-1zM23 28h1v1h-1zM31 28h1v1h-1zM32 28h1v1h-1zM33 28h1v1h-1zM34 28h1v1h-1zM35 28h1v1h-1zM36 28h1v1h-1zM37 28h1v1h-1zM38 28h1v1h-1zM39 28h1v1h-1zM40 28h1v1h-1zM41 28h1v1h-1zM42 28h1v1h-1zM43 28h1v1h-1zM44 28h1v1h-1zM45 28h1v1h-1zM63 28h1v1h-1zM64 28h1v1h-1zM65 28h1v1h-1zM66 28h1v1h-1zM67 28h1v1h-1zM68 28h1v1h-1z"/><path fill="#271C1A" d="M69 28h1v1h-1z"/><path fill="#41393B" d="M70 28h1v1h-1z"/><path fill="#5E5A61" d="M71 28h1v1h-1zM72 28h1v1h-1zM73 28h1v1h-1z"/><path fill="#5D585F" d="M74 28h1v1h-1z"/><path fill="#514A50" d="M75 28h1v1h-1z"/><path fill="#372D2F" d="M76 28h1v1h-1z"/><path fill="#251A18" d="M77 28h1v1h-1z"/><path fill="#231815" d="M78 28h1v1h-1zM79 28h1v1h-1zM80 28h1v1h-1zM81 28h1v1h-1zM82 28h1v1h-1zM83 28h1v1h-1z"/><path fill="#3E3438" d="M84 28h1v1h-1z"/><path fill="#473D43" d="M85 28h1v1h-1z"/><path fill="#2A1F1E" d="M86 28h1v1h-1z"/><path fill="#231815" d="M87 28h1v1h-1zM88 28h1v1h-1zM89 28h1v1h-1zM0 29h1v1H0zM1 29h1v1H1z"/><path fill="#2C2121" d="M2 29h1v1H2z"/><path fill="#473D43" d="M3 29h1v1H3z"/><path fill="#89B6B9" d="M4 29h1v1H4z"/><path fill="#AEDDE6" d="M5 29h1v1H5z"/><path fill="#CCEAEF" d="M6 29h1v1H6z"/><path fill="#FAFDFD" d="M7 29h1v1H7z"/><path fill="#FFF" d="M8 29h1v1H8z"/><path fill="#DCF0F4" d="M9 29h1v1H9z"/><path fill="#AEDDE6" d="M10 29h1v1h-1zM11 29h1v1h-1zM12 29h1v1h-1zM13 29h1v1h-1zM14 29h1v1h-1z"/><path fill="#77A3A2" d="M15 29h1v1h-1z"/><path fill="#597070" d="M16 29h1v1h-1z"/><path fill="#473D43" d="M17 29h1v1h-1zM18 29h1v1h-1zM19 29h1v1h-1zM20 29h1v1h-1z"/><path fill="#231815" d="M21 29h1v1h-1zM22 29h1v1h-1zM23 29h1v1h-1zM30 29h1v1h-1zM31 29h1v1h-1zM32 29h1v1h-1zM33 29h1v1h-1zM34 29h1v1h-1zM35 29h1v1h-1z"/><path fill="#2A1F1E" d="M36 29h1v1h-1z"/><path fill="#2C2121" d="M37 29h1v1h-1zM38 29h1v1h-1z"/><path fill="#2A1F1E" d="M39 29h1v1h-1z"/><path fill="#231815" d="M40 29h1v1h-1zM41 29h1v1h-1zM42 29h1v1h-1zM43 29h1v1h-1zM44 29h1v1h-1zM45 29h1v1h-1zM46 29h1v1h-1zM47 29h1v1h-1zM61 29h1v1h-1zM62 29h1v1h-1zM63 29h1v1h-1zM64 29h1v1h-1zM65 29h1v1h-1zM66 29h1v1h-1z"/><path fill="#271C1A" d="M67 29h1v1h-1z"/><path fill="#41393B" d="M68 29h1v1h-1z"/><path fill="#5A565C" d="M69 29h1v1h-1z"/><path fill="#5E5A61" d="M70 29h1v1h-1zM71 29h1v1h-1zM72 29h1v1h-1z"/><path fill="#575158" d="M73 29h1v1h-1z"/><path fill="#463D42" d="M74 29h1v1h-1z"/><path fill="#2E2423" d="M75 29h1v1h-1z"/><path fill="#231815" d="M76 29h1v1h-1zM77 29h1v1h-1zM78 29h1v1h-1zM79 29h1v1h-1zM80 29h1v1h-1zM81 29h1v1h-1zM82 29h1v1h-1zM83 29h1v1h-1z"/><path fill="#312626" d="M84 29h1v1h-1z"/><path fill="#473D43" d="M85 29h1v1h-1z"/><path fill="#332829" d="M86 29h1v1h-1z"/><path fill="#231815" d="M87 29h1v1h-1zM88 29h1v1h-1zM89 29h1v1h-1zM0 30h1v1H0zM1 30h1v1H1z"/><path fill="#2C2121" d="M2 30h1v1H2z"/><path fill="#473D43" d="M3 30h1v1H3z"/><path fill="#89B6B9" d="M4 30h1v1H4z"/><path fill="#AEDDE6" d="M5 30h1v1H5zM6 30h1v1H6zM7 30h1v1H7zM8 30h1v1H8zM9 30h1v1H9zM10 30h1v1h-1zM11 30h1v1h-1zM12 30h1v1h-1zM13 30h1v1h-1zM14 30h1v1h-1z"/><path fill="#9CCACF" d="M15 30h1v1h-1z"/><path fill="#608582" d="M16 30h1v1h-1z"/><path fill="#473D43" d="M17 30h1v1h-1zM18 30h1v1h-1zM19 30h1v1h-1zM20 30h1v1h-1z"/><path fill="#2E2423" d="M21 30h1v1h-1z"/><path fill="#231815" d="M22 30h1v1h-1zM23 30h1v1h-1zM24 30h1v1h-1zM25 30h1v1h-1zM26 30h1v1h-1zM27 30h1v1h-1zM29 30h1v1h-1zM30 30h1v1h-1zM31 30h1v1h-1zM32 30h1v1h-1z"/><path fill="#251A18" d="M33 30h1v1h-1z"/><path fill="#3A2F32" d="M34 30h1v1h-1z"/><path fill="#453B40" d="M35 30h1v1h-1z"/><path fill="#473D43" d="M36 30h1v1h-1zM37 30h1v1h-1zM38 30h1v1h-1zM39 30h1v1h-1zM40 30h1v1h-1z"/><path fill="#3E3438" d="M41 30h1v1h-1z"/><path fill="#332829" d="M42 30h1v1h-1z"/><path fill="#251A18" d="M43 30h1v1h-1z"/><path fill="#231815" d="M44 30h1v1h-1zM45 30h1v1h-1zM46 30h1v1h-1zM47 30h1v1h-1zM48 30h1v1h-1zM59 30h1v1h-1zM60 30h1v1h-1zM61 30h1v1h-1zM62 30h1v1h-1zM63 30h1v1h-1zM64 30h1v1h-1z"/><path fill="#271C1A" d="M65 30h1v1h-1z"/><path fill="#41393B" d="M66 30h1v1h-1z"/><path fill="#5A565C" d="M67 30h1v1h-1z"/><path fill="#5E5A61" d="M68 30h1v1h-1zM69 30h1v1h-1zM70 30h1v1h-1z"/><path fill="#5B565D" d="M71 30h1v1h-1z"/><path fill="#4D444B" d="M72 30h1v1h-1z"/><path fill="#3C3135" d="M73 30h1v1h-1z"/><path fill="#251A18" d="M74 30h1v1h-1z"/><path fill="#231815" d="M75 30h1v1h-1zM76 30h1v1h-1zM77 30h1v1h-1zM78 30h1v1h-1zM79 30h1v1h-1zM81 30h1v1h-1zM82 30h1v1h-1zM83 30h1v1h-1zM84 30h1v1h-1z"/><path fill="#473D43" d="M85 30h1v1h-1z"/><path fill="#3C3135" d="M86 30h1v1h-1z"/><path fill="#231815" d="M87 30h1v1h-1zM88 30h1v1h-1zM89 30h1v1h-1zM0 31h1v1H0zM1 31h1v1H1z"/><path fill="#2A1F1E" d="M2 31h1v1H2z"/><path fill="#473D43" d="M3 31h1v1H3z"/><path fill="#89B6B9" d="M4 31h1v1H4z"/><path fill="#AEDDE6" d="M5 31h1v1H5zM6 31h1v1H6zM7 31h1v1H7zM8 31h1v1H8zM9 31h1v1H9zM10 31h1v1h-1zM11 31h1v1h-1zM12 31h1v1h-1zM13 31h1v1h-1zM14 31h1v1h-1zM15 31h1v1h-1z"/><path fill="#729E9C" d="M16 31h1v1h-1z"/><path fill="#473D43" d="M17 31h1v1h-1zM18 31h1v1h-1zM19 31h1v1h-1zM20 31h1v1h-1z"/><path fill="#372D2F" d="M21 31h1v1h-1z"/><path fill="#231815" d="M22 31h1v1h-1zM23 31h1v1h-1zM24 31h1v1h-1zM25 31h1v1h-1zM26 31h1v1h-1zM27 31h1v1h-1zM28 31h1v1h-1zM29 31h1v1h-1zM30 31h1v1h-1zM31 31h1v1h-1z"/><path fill="#2A1F1E" d="M32 31h1v1h-1z"/><path fill="#43383D" d="M33 31h1v1h-1z"/><path fill="#473D43" d="M34 31h1v1h-1zM35 31h1v1h-1zM36 31h1v1h-1zM37 31h1v1h-1zM38 31h1v1h-1zM39 31h1v1h-1zM40 31h1v1h-1zM41 31h1v1h-1zM42 31h1v1h-1zM43 31h1v1h-1z"/><path fill="#3A2F32" d="M44 31h1v1h-1z"/><path fill="#281D1B" d="M45 31h1v1h-1z"/><path fill="#231815" d="M46 31h1v1h-1zM47 31h1v1h-1zM48 31h1v1h-1zM49 31h1v1h-1zM50 31h1v1h-1zM57 31h1v1h-1zM58 31h1v1h-1zM59 31h1v1h-1zM60 31h1v1h-1zM61 31h1v1h-1zM62 31h1v1h-1z"/><path fill="#271C1A" d="M63 31h1v1h-1z"/><path fill="#41393B" d="M64 31h1v1h-1z"/><path fill="#5A565C" d="M65 31h1v1h-1z"/><path fill="#5E5A61" d="M66 31h1v1h-1zM67 31h1v1h-1zM68 31h1v1h-1z"/><path fill="#5D585F" d="M69 31h1v1h-1z"/><path fill="#534C52" d="M70 31h1v1h-1z"/><path fill="#453B40" d="M71 31h1v1h-1z"/><path fill="#332829" d="M72 31h1v1h-1z"/><path fill="#231815" d="M73 31h1v1h-1zM74 31h1v1h-1zM75 31h1v1h-1zM76 31h1v1h-1zM77 31h1v1h-1zM82 31h1v1h-1zM83 31h1v1h-1zM84 31h1v1h-1z"/><path fill="#3E3438" d="M85 31h1v1h-1z"/><path fill="#43383D" d="M86 31h1v1h-1z"/><path fill="#231815" d="M87 31h1v1h-1zM88 31h1v1h-1zM89 31h1v1h-1zM0 32h1v1H0zM1 32h1v1H1zM2 32h1v1H2z"/><path fill="#473D43" d="M3 32h1v1H3z"/><path fill="#7BA7A7" d="M4 32h1v1H4z"/><path fill="#AEDDE6" d="M5 32h1v1H5zM6 32h1v1H6zM7 32h1v1H7zM8 32h1v1H8zM9 32h1v1H9zM10 32h1v1h-1zM11 32h1v1h-1zM12 32h1v1h-1zM13 32h1v1h-1zM14 32h1v1h-1zM15 32h1v1h-1z"/><path fill="#84B1B3" d="M16 32h1v1h-1z"/><path fill="#4E5255" d="M17 32h1v1h-1z"/><path fill="#473D43" d="M18 32h1v1h-1zM19 32h1v1h-1zM20 32h1v1h-1z"/><path fill="#453B40" d="M21 32h1v1h-1z"/><path fill="#312626" d="M22 32h1v1h-1z"/><path fill="#2C2121" d="M23 32h1v1h-1z"/><path fill="#231815" d="M24 32h1v1h-1zM25 32h1v1h-1zM26 32h1v1h-1zM27 32h1v1h-1zM28 32h1v1h-1zM29 32h1v1h-1zM30 32h1v1h-1z"/><path fill="#2A1F1E" d="M31 32h1v1h-1z"/><path fill="#453B40" d="M32 32h1v1h-1z"/><path fill="#473D43" d="M33 32h1v1h-1zM34 32h1v1h-1zM35 32h1v1h-1zM36 32h1v1h-1zM37 32h1v1h-1zM38 32h1v1h-1z"/><path fill="#4E5255" d="M39 32h1v1h-1z"/><path fill="#4C4C51" d="M40 32h1v1h-1z"/><path fill="#473D43" d="M41 32h1v1h-1zM42 32h1v1h-1zM43 32h1v1h-1zM44 32h1v1h-1z"/><path fill="#453B40" d="M45 32h1v1h-1z"/><path fill="#332829" d="M46 32h1v1h-1z"/><path fill="#231815" d="M47 32h1v1h-1zM48 32h1v1h-1zM49 32h1v1h-1zM50 32h1v1h-1zM55 32h1v1h-1zM56 32h1v1h-1zM57 32h1v1h-1zM58 32h1v1h-1zM59 32h1v1h-1zM60 32h1v1h-1zM61 32h1v1h-1z"/><path fill="#393132" d="M62 32h1v1h-1z"/><path fill="#5A565C" d="M63 32h1v1h-1z"/><path fill="#5E5A61" d="M64 32h1v1h-1zM65 32h1v1h-1zM66 32h1v1h-1zM67 32h1v1h-1z"/><path fill="#554F56" d="M68 32h1v1h-1z"/><path fill="#4A4147" d="M69 32h1v1h-1z"/><path fill="#40363A" d="M70 32h1v1h-1z"/><path fill="#2A1F1E" d="M71 32h1v1h-1z"/><path fill="#231815" d="M72 32h1v1h-1zM73 32h1v1h-1zM74 32h1v1h-1zM75 32h1v1h-1zM76 32h1v1h-1zM82 32h1v1h-1zM83 32h1v1h-1zM84 32h1v1h-1z"/><path fill="#372D2F" d="M85 32h1v1h-1z"/><path fill="#473D43" d="M86 32h1v1h-1z"/><path fill="#231815" d="M87 32h1v1h-1zM88 32h1v1h-1zM89 32h1v1h-1zM0 33h1v1H0zM1 33h1v1H1zM2 33h1v1H2z"/><path fill="#473D43" d="M3 33h1v1H3z"/><path fill="#668484" d="M4 33h1v1H4z"/><path fill="#AEDDE6" d="M5 33h1v1H5zM6 33h1v1H6zM7 33h1v1H7zM8 33h1v1H8zM9 33h1v1H9zM10 33h1v1h-1zM11 33h1v1h-1zM12 33h1v1h-1zM13 33h1v1h-1zM14 33h1v1h-1zM15 33h1v1h-1z"/><path fill="#97C5CA" d="M16 33h1v1h-1z"/><path fill="#4E5255" d="M17 33h1v1h-1z"/><path fill="#473D43" d="M18 33h1v1h-1zM19 33h1v1h-1zM20 33h1v1h-1zM21 33h1v1h-1zM22 33h1v1h-1zM23 33h1v1h-1zM24 33h1v1h-1z"/><path fill="#40363A" d="M25 33h1v1h-1z"/><path fill="#332829" d="M26 33h1v1h-1z"/><path fill="#231815" d="M27 33h1v1h-1zM28 33h1v1h-1zM29 33h1v1h-1zM30 33h1v1h-1z"/><path fill="#3C3135" d="M31 33h1v1h-1z"/><path fill="#473D43" d="M32 33h1v1h-1zM33 33h1v1h-1zM34 33h1v1h-1zM35 33h1v1h-1z"/><path fill="#4B474C" d="M36 33h1v1h-1z"/><path fill="#597070" d="M37 33h1v1h-1z"/><path fill="#648F8B" d="M38 33h1v1h-1zM39 33h1v1h-1zM40 33h1v1h-1z"/><path fill="#628A87" d="M41 33h1v1h-1z"/><path fill="#597070" d="M42 33h1v1h-1z"/><path fill="#4B474C" d="M43 33h1v1h-1z"/><path fill="#473D43" d="M44 33h1v1h-1zM45 33h1v1h-1zM46 33h1v1h-1z"/><path fill="#3C3135" d="M47 33h1v1h-1z"/><path fill="#251A18" d="M48 33h1v1h-1z"/><path fill="#231815" d="M49 33h1v1h-1zM50 33h1v1h-1zM51 33h1v1h-1zM53 33h1v1h-1zM54 33h1v1h-1zM55 33h1v1h-1zM56 33h1v1h-1zM57 33h1v1h-1zM58 33h1v1h-1zM59 33h1v1h-1z"/><path fill="#393132" d="M60 33h1v1h-1z"/><path fill="#575258" d="M61 33h1v1h-1z"/><path fill="#5E5A61" d="M62 33h1v1h-1zM63 33h1v1h-1zM64 33h1v1h-1zM65 33h1v1h-1z"/><path fill="#58535A" d="M66 33h1v1h-1z"/><path fill="#4D444B" d="M67 33h1v1h-1z"/><path fill="#473D43" d="M68 33h1v1h-1z"/><path fill="#372D2F" d="M69 33h1v1h-1z"/><path fill="#231815" d="M70 33h1v1h-1zM71 33h1v1h-1zM72 33h1v1h-1zM73 33h1v1h-1zM74 33h1v1h-1zM82 33h1v1h-1zM83 33h1v1h-1zM84 33h1v1h-1z"/><path fill="#352B2C" d="M85 33h1v1h-1z"/><path fill="#473D43" d="M86 33h1v1h-1z"/><path fill="#281D1B" d="M87 33h1v1h-1z"/><path fill="#231815" d="M88 33h1v1h-1zM89 33h1v1h-1zM0 34h1v1H0zM1 34h1v1H1zM2 34h1v1H2z"/><path fill="#3E3438" d="M3 34h1v1H3z"/><path fill="#5D7B79" d="M4 34h1v1H4z"/><path fill="#A0CED5" d="M5 34h1v1H5z"/><path fill="#AEDDE6" d="M6 34h1v1H6zM7 34h1v1H7zM8 34h1v1H8zM9 34h1v1H9zM10 34h1v1h-1zM11 34h1v1h-1zM12 34h1v1h-1zM13 34h1v1h-1zM14 34h1v1h-1zM15 34h1v1h-1z"/><path fill="#9CCACF" d="M16 34h1v1h-1z"/><path fill="#4E5255" d="M17 34h1v1h-1z"/><path fill="#473D43" d="M18 34h1v1h-1zM19 34h1v1h-1zM20 34h1v1h-1zM21 34h1v1h-1zM22 34h1v1h-1zM23 34h1v1h-1zM24 34h1v1h-1zM25 34h1v1h-1zM26 34h1v1h-1z"/><path fill="#40363A" d="M27 34h1v1h-1z"/><path fill="#251A18" d="M28 34h1v1h-1z"/><path fill="#231815" d="M29 34h1v1h-1zM30 34h1v1h-1z"/><path fill="#453B40" d="M31 34h1v1h-1z"/><path fill="#473D43" d="M32 34h1v1h-1zM33 34h1v1h-1zM34 34h1v1h-1z"/><path fill="#4C4C51" d="M35 34h1v1h-1z"/><path fill="#89A6A4" d="M36 34h1v1h-1z"/><path fill="#CFDCDB" d="M37 34h1v1h-1zM38 34h1v1h-1z"/><path fill="#94B2AF" d="M39 34h1v1h-1z"/><path fill="#648F8B" d="M40 34h1v1h-1zM41 34h1v1h-1zM42 34h1v1h-1z"/><path fill="#628A87" d="M43 34h1v1h-1z"/><path fill="#50575A" d="M44 34h1v1h-1z"/><path fill="#473D43" d="M45 34h1v1h-1zM46 34h1v1h-1zM47 34h1v1h-1z"/><path fill="#3E3438" d="M48 34h1v1h-1z"/><path fill="#231815" d="M49 34h1v1h-1zM50 34h1v1h-1zM51 34h1v1h-1zM52 34h1v1h-1zM53 34h1v1h-1zM54 34h1v1h-1zM55 34h1v1h-1zM56 34h1v1h-1zM57 34h1v1h-1z"/><path fill="#393132" d="M58 34h1v1h-1z"/><path fill="#575258" d="M59 34h1v1h-1z"/><path fill="#5E5A61" d="M60 34h1v1h-1zM61 34h1v1h-1zM62 34h1v1h-1zM63 34h1v1h-1z"/><path fill="#5B565D" d="M64 34h1v1h-1z"/><path fill="#50484E" d="M65 34h1v1h-1z"/><path fill="#473D43" d="M66 34h1v1h-1z"/><path fill="#453B40" d="M67 34h1v1h-1z"/><path fill="#2E2423" d="M68 34h1v1h-1z"/><path fill="#231815" d="M69 34h1v1h-1zM70 34h1v1h-1zM71 34h1v1h-1zM72 34h1v1h-1zM73 34h1v1h-1zM82 34h1v1h-1zM83 34h1v1h-1zM84 34h1v1h-1z"/><path fill="#2C2121" d="M85 34h1v1h-1z"/><path fill="#473D43" d="M86 34h1v1h-1z"/><path fill="#2C2121" d="M87 34h1v1h-1z"/><path fill="#231815" d="M88 34h1v1h-1zM89 34h1v1h-1zM0 35h1v1H0zM1 35h1v1H1zM2 35h1v1H2z"/><path fill="#372D2F" d="M3 35h1v1H3z"/><path fill="#566667" d="M4 35h1v1H4z"/><path fill="#84B1B3" d="M5 35h1v1H5z"/><path fill="#AEDDE6" d="M6 35h1v1H6zM7 35h1v1H7zM8 35h1v1H8zM9 35h1v1H9zM10 35h1v1h-1zM11 35h1v1h-1zM12 35h1v1h-1zM13 35h1v1h-1zM14 35h1v1h-1zM15 35h1v1h-1z"/><path fill="#9CCACF" d="M16 35h1v1h-1z"/><path fill="#4E5255" d="M17 35h1v1h-1z"/><path fill="#473D43" d="M18 35h1v1h-1zM19 35h1v1h-1zM20 35h1v1h-1zM21 35h1v1h-1zM22 35h1v1h-1zM23 35h1v1h-1zM24 35h1v1h-1zM25 35h1v1h-1zM26 35h1v1h-1zM27 35h1v1h-1z"/><path fill="#40363A" d="M28 35h1v1h-1z"/><path fill="#352B2C" d="M29 35h1v1h-1z"/><path fill="#3C3135" d="M30 35h1v1h-1z"/><path fill="#473D43" d="M31 35h1v1h-1zM32 35h1v1h-1zM33 35h1v1h-1z"/><path fill="#494248" d="M34 35h1v1h-1z"/><path fill="#93ADAB" d="M35 35h1v1h-1z"/><path fill="#FFF" d="M36 35h1v1h-1zM37 35h1v1h-1zM38 35h1v1h-1zM39 35h1v1h-1z"/><path fill="#9EB9B7" d="M40 35h1v1h-1z"/><path fill="#648F8B" d="M41 35h1v1h-1zM42 35h1v1h-1zM43 35h1v1h-1zM44 35h1v1h-1z"/><path fill="#525C5E" d="M45 35h1v1h-1z"/><path fill="#473D43" d="M46 35h1v1h-1zM47 35h1v1h-1zM48 35h1v1h-1z"/><path fill="#3A2F32" d="M49 35h1v1h-1z"/><path fill="#231815" d="M50 35h1v1h-1zM51 35h1v1h-1zM52 35h1v1h-1zM53 35h1v1h-1zM54 35h1v1h-1zM55 35h1v1h-1z"/><path fill="#322928" d="M56 35h1v1h-1z"/><path fill="#534E53" d="M57 35h1v1h-1z"/><path fill="#5E5A61" d="M58 35h1v1h-1zM59 35h1v1h-1zM60 35h1v1h-1zM61 35h1v1h-1z"/><path fill="#5D585F" d="M62 35h1v1h-1z"/><path fill="#534C52" d="M63 35h1v1h-1z"/><path fill="#473D43" d="M64 35h1v1h-1zM65 35h1v1h-1z"/><path fill="#3E3438" d="M66 35h1v1h-1z"/><path fill="#251A18" d="M67 35h1v1h-1z"/><path fill="#231815" d="M68 35h1v1h-1zM69 35h1v1h-1zM70 35h1v1h-1zM71 35h1v1h-1zM72 35h1v1h-1zM83 35h1v1h-1zM84 35h1v1h-1z"/><path fill="#2C2121" d="M85 35h1v1h-1z"/><path fill="#473D43" d="M86 35h1v1h-1z"/><path fill="#251A18" d="M87 35h1v1h-1z"/><path fill="#231815" d="M88 35h1v1h-1zM89 35h1v1h-1zM0 36h1v1H0zM1 36h1v1H1zM2 36h1v1H2z"/><path fill="#312626" d="M3 36h1v1H3z"/><path fill="#50575A" d="M4 36h1v1H4z"/><path fill="#699491" d="M5 36h1v1H5z"/><path fill="#A9D8E0" d="M6 36h1v1H6z"/><path fill="#AEDDE6" d="M7 36h1v1H7zM8 36h1v1H8zM9 36h1v1H9zM10 36h1v1h-1zM11 36h1v1h-1zM12 36h1v1h-1zM13 36h1v1h-1zM14 36h1v1h-1zM15 36h1v1h-1z"/><path fill="#9CCACF" d="M16 36h1v1h-1z"/><path fill="#4E5255" d="M17 36h1v1h-1z"/><path fill="#473D43" d="M18 36h1v1h-1zM19 36h1v1h-1zM20 36h1v1h-1zM21 36h1v1h-1zM22 36h1v1h-1zM23 36h1v1h-1zM24 36h1v1h-1zM25 36h1v1h-1zM26 36h1v1h-1zM27 36h1v1h-1zM28 36h1v1h-1zM29 36h1v1h-1zM30 36h1v1h-1zM31 36h1v1h-1zM32 36h1v1h-1zM33 36h1v1h-1z"/><path fill="#597070" d="M34 36h1v1h-1z"/><path fill="#ECF1F1" d="M35 36h1v1h-1z"/><path fill="#FFF" d="M36 36h1v1h-1zM37 36h1v1h-1zM38 36h1v1h-1zM39 36h1v1h-1z"/><path fill="#F5F8F8" d="M40 36h1v1h-1z"/><path fill="#729B98" d="M41 36h1v1h-1z"/><path fill="#648F8B" d="M42 36h1v1h-1zM43 36h1v1h-1zM44 36h1v1h-1zM45 36h1v1h-1z"/><path fill="#4E5255" d="M46 36h1v1h-1z"/><path fill="#473D43" d="M47 36h1v1h-1zM48 36h1v1h-1zM49 36h1v1h-1z"/><path fill="#3E3438" d="M50 36h1v1h-1z"/><path fill="#332929" d="M51 36h1v1h-1z"/><path fill="#322928" d="M52 36h1v1h-1zM53 36h1v1h-1z"/><path fill="#3D3536" d="M54 36h1v1h-1z"/><path fill="#534E53" d="M55 36h1v1h-1z"/><path fill="#5E5A61" d="M56 36h1v1h-1zM57 36h1v1h-1zM58 36h1v1h-1zM59 36h1v1h-1z"/><path fill="#5D585F" d="M60 36h1v1h-1z"/><path fill="#534C52" d="M61 36h1v1h-1z"/><path fill="#483F45" d="M62 36h1v1h-1z"/><path fill="#473D43" d="M63 36h1v1h-1zM64 36h1v1h-1z"/><path fill="#332829" d="M65 36h1v1h-1z"/><path fill="#231815" d="M66 36h1v1h-1zM67 36h1v1h-1zM68 36h1v1h-1zM69 36h1v1h-1zM70 36h1v1h-1zM83 36h1v1h-1zM84 36h1v1h-1z"/><path fill="#2C2121" d="M85 36h1v1h-1z"/><path fill="#3C3135" d="M86 36h1v1h-1z"/><path fill="#231815" d="M87 36h1v1h-1zM88 36h1v1h-1zM89 36h1v1h-1zM1 37h1v1H1zM2 37h1v1H2z"/><path fill="#251A18" d="M3 37h1v1H3z"/><path fill="#494248" d="M4 37h1v1H4z"/><path fill="#648F8B" d="M5 37h1v1H5z"/><path fill="#7BA7A7" d="M6 37h1v1H6z"/><path fill="#AEDDE6" d="M7 37h1v1H7zM8 37h1v1H8zM9 37h1v1H9zM10 37h1v1h-1zM11 37h1v1h-1zM12 37h1v1h-1zM13 37h1v1h-1zM14 37h1v1h-1zM15 37h1v1h-1z"/><path fill="#92C0C4" d="M16 37h1v1h-1z"/><path fill="#4C4C51" d="M17 37h1v1h-1z"/><path fill="#473D43" d="M18 37h1v1h-1zM19 37h1v1h-1zM20 37h1v1h-1zM21 37h1v1h-1zM22 37h1v1h-1zM23 37h1v1h-1zM24 37h1v1h-1zM25 37h1v1h-1zM26 37h1v1h-1zM27 37h1v1h-1zM28 37h1v1h-1zM29 37h1v1h-1zM30 37h1v1h-1zM31 37h1v1h-1zM32 37h1v1h-1z"/><path fill="#4B474C" d="M33 37h1v1h-1z"/><path fill="#94B5B3" d="M34 37h1v1h-1z"/><path fill="#FFF" d="M35 37h1v1h-1zM36 37h1v1h-1zM37 37h1v1h-1zM38 37h1v1h-1zM39 37h1v1h-1zM40 37h1v1h-1z"/><path fill="#C8E5EA" d="M41 37h1v1h-1z"/><path fill="#80ACAD" d="M42 37h1v1h-1z"/><path fill="#648F8B" d="M43 37h1v1h-1zM44 37h1v1h-1zM45 37h1v1h-1z"/><path fill="#608582" d="M46 37h1v1h-1z"/><path fill="#494248" d="M47 37h1v1h-1z"/><path fill="#473D43" d="M48 37h1v1h-1zM49 37h1v1h-1zM50 37h1v1h-1z"/><path fill="#554F56" d="M51 37h1v1h-1z"/><path fill="#5E5A61" d="M52 37h1v1h-1zM53 37h1v1h-1zM54 37h1v1h-1zM55 37h1v1h-1zM56 37h1v1h-1zM57 37h1v1h-1z"/><path fill="#5D585F" d="M58 37h1v1h-1z"/><path fill="#534C52" d="M59 37h1v1h-1z"/><path fill="#483F45" d="M60 37h1v1h-1z"/><path fill="#473D43" d="M61 37h1v1h-1zM62 37h1v1h-1z"/><path fill="#43383D" d="M63 37h1v1h-1z"/><path fill="#2A1F1E" d="M64 37h1v1h-1z"/><path fill="#231815" d="M65 37h1v1h-1zM66 37h1v1h-1zM67 37h1v1h-1zM68 37h1v1h-1zM69 37h1v1h-1zM83 37h1v1h-1zM84 37h1v1h-1z"/><path fill="#2C2121" d="M85 37h1v1h-1zM86 37h1v1h-1z"/><path fill="#231815" d="M87 37h1v1h-1zM88 37h1v1h-1zM89 37h1v1h-1zM1 38h1v1H1zM2 38h1v1H2zM3 38h1v1H3z"/><path fill="#3C3135" d="M4 38h1v1H4z"/><path fill="#5B7575" d="M5 38h1v1H5z"/><path fill="#648F8B" d="M6 38h1v1H6z"/><path fill="#92C0C4" d="M7 38h1v1H7z"/><path fill="#AEDDE6" d="M8 38h1v1H8zM9 38h1v1H9zM10 38h1v1h-1zM11 38h1v1h-1zM12 38h1v1h-1zM13 38h1v1h-1zM14 38h1v1h-1zM15 38h1v1h-1z"/><path fill="#7BA7A7" d="M16 38h1v1h-1z"/><path fill="#473D43" d="M17 38h1v1h-1zM18 38h1v1h-1zM19 38h1v1h-1zM20 38h1v1h-1z"/><path fill="#3E3438" d="M21 38h1v1h-1z"/><path fill="#2E2423" d="M22 38h1v1h-1zM23 38h1v1h-1z"/><path fill="#372D2F" d="M24 38h1v1h-1z"/><path fill="#43383D" d="M25 38h1v1h-1z"/><path fill="#473D43" d="M26 38h1v1h-1zM27 38h1v1h-1zM28 38h1v1h-1zM29 38h1v1h-1zM30 38h1v1h-1zM31 38h1v1h-1zM32 38h1v1h-1z"/><path fill="#586668" d="M33 38h1v1h-1z"/><path fill="#BEE1E7" d="M34 38h1v1h-1z"/><path fill="#FFF" d="M35 38h1v1h-1zM36 38h1v1h-1zM37 38h1v1h-1zM38 38h1v1h-1zM39 38h1v1h-1zM40 38h1v1h-1z"/><path fill="#D7EEF3" d="M41 38h1v1h-1z"/><path fill="#AEDDE6" d="M42 38h1v1h-1z"/><path fill="#80ACAD" d="M43 38h1v1h-1z"/><path fill="#648F8B" d="M44 38h1v1h-1zM45 38h1v1h-1zM46 38h1v1h-1z"/><path fill="#566667" d="M47 38h1v1h-1z"/><path fill="#473D43" d="M48 38h1v1h-1zM49 38h1v1h-1zM50 38h1v1h-1z"/><path fill="#483F45" d="M51 38h1v1h-1z"/><path fill="#58535A" d="M52 38h1v1h-1z"/><path fill="#5E5A61" d="M53 38h1v1h-1zM54 38h1v1h-1zM55 38h1v1h-1z"/><path fill="#5D585F" d="M56 38h1v1h-1z"/><path fill="#534C52" d="M57 38h1v1h-1z"/><path fill="#483F45" d="M58 38h1v1h-1z"/><path fill="#473D43" d="M59 38h1v1h-1zM60 38h1v1h-1zM61 38h1v1h-1z"/><path fill="#3A2F32" d="M62 38h1v1h-1z"/><path fill="#251A18" d="M63 38h1v1h-1z"/><path fill="#231815" d="M64 38h1v1h-1zM65 38h1v1h-1zM66 38h1v1h-1zM67 38h1v1h-1zM83 38h1v1h-1zM84 38h1v1h-1z"/><path fill="#251A18" d="M85 38h1v1h-1z"/><path fill="#231815" d="M86 38h1v1h-1zM87 38h1v1h-1zM88 38h1v1h-1zM1 39h1v1H1zM2 39h1v1H2zM3 39h1v1H3z"/><path fill="#312626" d="M4 39h1v1H4z"/><path fill="#50575A" d="M5 39h1v1H5z"/><path fill="#648F8B" d="M6 39h1v1H6zM7 39h1v1H7z"/><path fill="#92C0C4" d="M8 39h1v1H8z"/><path fill="#AEDDE6" d="M9 39h1v1H9zM10 39h1v1h-1zM11 39h1v1h-1zM12 39h1v1h-1zM13 39h1v1h-1zM14 39h1v1h-1z"/><path fill="#9CCACF" d="M15 39h1v1h-1z"/><path fill="#5D7B79" d="M16 39h1v1h-1z"/><path fill="#473D43" d="M17 39h1v1h-1zM18 39h1v1h-1zM19 39h1v1h-1z"/><path fill="#453B40" d="M20 39h1v1h-1z"/><path fill="#251A18" d="M21 39h1v1h-1z"/><path fill="#231815" d="M22 39h1v1h-1zM23 39h1v1h-1zM24 39h1v1h-1zM25 39h1v1h-1z"/><path fill="#332829" d="M26 39h1v1h-1z"/><path fill="#453B40" d="M27 39h1v1h-1z"/><path fill="#473D43" d="M28 39h1v1h-1zM29 39h1v1h-1zM30 39h1v1h-1zM31 39h1v1h-1zM32 39h1v1h-1z"/><path fill="#779397" d="M33 39h1v1h-1z"/><path fill="#C2E6EC" d="M34 39h1v1h-1z"/><path fill="#FFF" d="M35 39h1v1h-1zM36 39h1v1h-1zM37 39h1v1h-1zM38 39h1v1h-1zM39 39h1v1h-1zM40 39h1v1h-1z"/><path fill="#D7EEF3" d="M41 39h1v1h-1z"/><path fill="#AEDDE6" d="M42 39h1v1h-1zM43 39h1v1h-1z"/><path fill="#80ACAD" d="M44 39h1v1h-1z"/><path fill="#648F8B" d="M45 39h1v1h-1zM46 39h1v1h-1z"/><path fill="#628A87" d="M47 39h1v1h-1z"/><path fill="#494248" d="M48 39h1v1h-1z"/><path fill="#473D43" d="M49 39h1v1h-1zM50 39h1v1h-1zM51 39h1v1h-1zM52 39h1v1h-1z"/><path fill="#4B4249" d="M53 39h1v1h-1z"/><path fill="#4D444B" d="M54 39h1v1h-1zM55 39h1v1h-1z"/><path fill="#473D43" d="M56 39h1v1h-1zM57 39h1v1h-1zM58 39h1v1h-1zM59 39h1v1h-1z"/><path fill="#453B40" d="M60 39h1v1h-1z"/><path fill="#2E2423" d="M61 39h1v1h-1z"/><path fill="#231815" d="M62 39h1v1h-1zM63 39h1v1h-1zM64 39h1v1h-1zM65 39h1v1h-1zM66 39h1v1h-1zM83 39h1v1h-1zM84 39h1v1h-1zM85 39h1v1h-1zM86 39h1v1h-1zM87 39h1v1h-1zM88 39h1v1h-1zM1 40h1v1H1zM2 40h1v1H2zM3 40h1v1H3zM4 40h1v1H4z"/><path fill="#43383D" d="M5 40h1v1H5z"/><path fill="#608582" d="M6 40h1v1H6z"/><path fill="#648F8B" d="M7 40h1v1H7zM8 40h1v1H8z"/><path fill="#7BA7A7" d="M9 40h1v1H9z"/><path fill="#A5D3DB" d="M10 40h1v1h-1z"/><path fill="#AEDDE6" d="M11 40h1v1h-1zM12 40h1v1h-1zM13 40h1v1h-1z"/><path fill="#9CCACF" d="M14 40h1v1h-1z"/><path fill="#699491" d="M15 40h1v1h-1z"/><path fill="#546163" d="M16 40h1v1h-1z"/><path fill="#473D43" d="M17 40h1v1h-1zM18 40h1v1h-1zM19 40h1v1h-1z"/><path fill="#3E3438" d="M20 40h1v1h-1z"/><path fill="#231815" d="M21 40h1v1h-1zM22 40h1v1h-1zM23 40h1v1h-1zM24 40h1v1h-1zM25 40h1v1h-1zM26 40h1v1h-1z"/><path fill="#281D1B" d="M27 40h1v1h-1z"/><path fill="#40363A" d="M28 40h1v1h-1z"/><path fill="#473D43" d="M29 40h1v1h-1zM30 40h1v1h-1zM31 40h1v1h-1zM32 40h1v1h-1z"/><path fill="#93BAC1" d="M33 40h1v1h-1z"/><path fill="#B8E1E9" d="M34 40h1v1h-1z"/><path fill="#FFF" d="M35 40h1v1h-1zM36 40h1v1h-1zM37 40h1v1h-1zM38 40h1v1h-1zM39 40h1v1h-1zM40 40h1v1h-1z"/><path fill="#BDE3EB" d="M41 40h1v1h-1z"/><path fill="#AEDDE6" d="M42 40h1v1h-1zM43 40h1v1h-1zM44 40h1v1h-1z"/><path fill="#729E9C" d="M45 40h1v1h-1z"/><path fill="#648F8B" d="M46 40h1v1h-1zM47 40h1v1h-1z"/><path fill="#546163" d="M48 40h1v1h-1z"/><path fill="#473D43" d="M49 40h1v1h-1zM50 40h1v1h-1zM51 40h1v1h-1zM52 40h1v1h-1zM53 40h1v1h-1zM54 40h1v1h-1zM55 40h1v1h-1zM56 40h1v1h-1zM57 40h1v1h-1zM58 40h1v1h-1z"/><path fill="#40363A" d="M59 40h1v1h-1z"/><path fill="#281D1B" d="M60 40h1v1h-1z"/><path fill="#231815" d="M61 40h1v1h-1zM62 40h1v1h-1zM63 40h1v1h-1zM64 40h1v1h-1zM65 40h1v1h-1zM83 40h1v1h-1zM84 40h1v1h-1zM85 40h1v1h-1zM86 40h1v1h-1zM87 40h1v1h-1zM2 41h1v1H2zM3 41h1v1H3zM4 41h1v1H4z"/><path fill="#2E2423" d="M5 41h1v1H5z"/><path fill="#4E5255" d="M6 41h1v1H6z"/><path fill="#648F8B" d="M7 41h1v1H7zM8 41h1v1H8zM9 41h1v1H9zM10 41h1v1h-1z"/><path fill="#729E9C" d="M11 41h1v1h-1z"/><path fill="#77A3A2" d="M12 41h1v1h-1z"/><path fill="#729E9C" d="M13 41h1v1h-1z"/><path fill="#648F8B" d="M14 41h1v1h-1zM15 41h1v1h-1z"/><path fill="#4B474C" d="M16 41h1v1h-1z"/><path fill="#473D43" d="M17 41h1v1h-1zM18 41h1v1h-1zM19 41h1v1h-1z"/><path fill="#3C3135" d="M20 41h1v1h-1z"/><path fill="#231815" d="M21 41h1v1h-1zM22 41h1v1h-1zM23 41h1v1h-1zM24 41h1v1h-1zM25 41h1v1h-1zM26 41h1v1h-1zM27 41h1v1h-1z"/><path fill="#251A18" d="M28 41h1v1h-1z"/><path fill="#3A2F32" d="M29 41h1v1h-1z"/><path fill="#473D43" d="M30 41h1v1h-1zM31 41h1v1h-1zM32 41h1v1h-1z"/><path fill="#A0CED5" d="M33 41h1v1h-1z"/><path fill="#AEDDE6" d="M34 41h1v1h-1z"/><path fill="#E6F4F7" d="M35 41h1v1h-1z"/><path fill="#FFF" d="M36 41h1v1h-1zM37 41h1v1h-1zM38 41h1v1h-1zM39 41h1v1h-1z"/><path fill="#EBF7F9" d="M40 41h1v1h-1z"/><path fill="#AEDDE6" d="M41 41h1v1h-1zM42 41h1v1h-1zM43 41h1v1h-1zM44 41h1v1h-1z"/><path fill="#9CCACF" d="M45 41h1v1h-1z"/><path fill="#648F8B" d="M46 41h1v1h-1zM47 41h1v1h-1z"/><path fill="#5F807E" d="M48 41h1v1h-1z"/><path fill="#473D43" d="M49 41h1v1h-1zM50 41h1v1h-1zM51 41h1v1h-1zM52 41h1v1h-1zM53 41h1v1h-1zM54 41h1v1h-1zM55 41h1v1h-1zM56 41h1v1h-1zM57 41h1v1h-1z"/><path fill="#352B2C" d="M58 41h1v1h-1z"/><path fill="#231815" d="M59 41h1v1h-1zM60 41h1v1h-1zM61 41h1v1h-1zM62 41h1v1h-1zM63 41h1v1h-1zM83 41h1v1h-1zM84 41h1v1h-1zM85 41h1v1h-1zM86 41h1v1h-1zM87 41h1v1h-1zM2 42h1v1H2zM3 42h1v1H3zM4 42h1v1H4zM5 42h1v1H5z"/><path fill="#3C3135" d="M6 42h1v1H6z"/><path fill="#576B6C" d="M7 42h1v1H7z"/><path fill="#648F8B" d="M8 42h1v1H8zM9 42h1v1H9zM10 42h1v1h-1zM11 42h1v1h-1zM12 42h1v1h-1zM13 42h1v1h-1zM14 42h1v1h-1z"/><path fill="#566667" d="M15 42h1v1h-1z"/><path fill="#473D43" d="M16 42h1v1h-1zM17 42h1v1h-1zM18 42h1v1h-1zM19 42h1v1h-1z"/><path fill="#332829" d="M20 42h1v1h-1z"/><path fill="#231815" d="M21 42h1v1h-1zM22 42h1v1h-1zM23 42h1v1h-1zM25 42h1v1h-1zM26 42h1v1h-1zM27 42h1v1h-1zM28 42h1v1h-1zM29 42h1v1h-1z"/><path fill="#3C3135" d="M30 42h1v1h-1z"/><path fill="#473D43" d="M31 42h1v1h-1zM32 42h1v1h-1z"/><path fill="#AEDDE6" d="M33 42h1v1h-1zM34 42h1v1h-1z"/><path fill="#B3DFE8" d="M35 42h1v1h-1z"/><path fill="#EBF7F9" d="M36 42h1v1h-1z"/><path fill="#FFF" d="M37 42h1v1h-1zM38 42h1v1h-1z"/><path fill="#F0F9FA" d="M39 42h1v1h-1z"/><path fill="#B3DFE8" d="M40 42h1v1h-1z"/><path fill="#AEDDE6" d="M41 42h1v1h-1zM42 42h1v1h-1zM43 42h1v1h-1zM44 42h1v1h-1zM45 42h1v1h-1z"/><path fill="#77A3A2" d="M46 42h1v1h-1z"/><path fill="#648F8B" d="M47 42h1v1h-1zM48 42h1v1h-1z"/><path fill="#4B474C" d="M49 42h1v1h-1z"/><path fill="#473D43" d="M50 42h1v1h-1zM51 42h1v1h-1zM52 42h1v1h-1zM53 42h1v1h-1zM54 42h1v1h-1zM55 42h1v1h-1z"/><path fill="#453B40" d="M56 42h1v1h-1z"/><path fill="#2C2121" d="M57 42h1v1h-1z"/><path fill="#231815" d="M58 42h1v1h-1zM59 42h1v1h-1zM60 42h1v1h-1zM61 42h1v1h-1zM62 42h1v1h-1zM83 42h1v1h-1zM84 42h1v1h-1zM85 42h1v1h-1zM86 42h1v1h-1zM3 43h1v1H3zM4 43h1v1H4zM5 43h1v1H5z"/><path fill="#251A18" d="M6 43h1v1H6z"/><path fill="#40363A" d="M7 43h1v1H7z"/><path fill="#597070" d="M8 43h1v1H8z"/><path fill="#648F8B" d="M9 43h1v1H9zM10 43h1v1h-1zM11 43h1v1h-1zM12 43h1v1h-1zM13 43h1v1h-1z"/><path fill="#5F807E" d="M14 43h1v1h-1z"/><path fill="#473D43" d="M15 43h1v1h-1zM16 43h1v1h-1zM17 43h1v1h-1zM18 43h1v1h-1zM19 43h1v1h-1z"/><path fill="#281D1B" d="M20 43h1v1h-1z"/><path fill="#231815" d="M21 43h1v1h-1zM22 43h1v1h-1zM23 43h1v1h-1zM26 43h1v1h-1zM27 43h1v1h-1zM28 43h1v1h-1zM29 43h1v1h-1z"/><path fill="#2C2121" d="M30 43h1v1h-1z"/><path fill="#473D43" d="M31 43h1v1h-1zM32 43h1v1h-1z"/><path fill="#A9D8E0" d="M33 43h1v1h-1z"/><path fill="#AEDDE6" d="M34 43h1v1h-1zM35 43h1v1h-1zM36 43h1v1h-1z"/><path fill="#BDE3EB" d="M37 43h1v1h-1zM38 43h1v1h-1z"/><path fill="#AEDDE6" d="M39 43h1v1h-1zM40 43h1v1h-1zM41 43h1v1h-1zM42 43h1v1h-1zM43 43h1v1h-1zM44 43h1v1h-1zM45 43h1v1h-1z"/><path fill="#92C0C4" d="M46 43h1v1h-1z"/><path fill="#648F8B" d="M47 43h1v1h-1zM48 43h1v1h-1z"/><path fill="#525C5E" d="M49 43h1v1h-1z"/><path fill="#473D43" d="M50 43h1v1h-1zM51 43h1v1h-1zM52 43h1v1h-1zM53 43h1v1h-1zM54 43h1v1h-1z"/><path fill="#40363A" d="M55 43h1v1h-1z"/><path fill="#251A18" d="M56 43h1v1h-1z"/><path fill="#231815" d="M57 43h1v1h-1zM58 43h1v1h-1zM59 43h1v1h-1zM60 43h1v1h-1zM61 43h1v1h-1zM4 44h1v1H4zM5 44h1v1H5zM6 44h1v1H6z"/><path fill="#251A18" d="M7 44h1v1H7z"/><path fill="#40363A" d="M8 44h1v1H8z"/><path fill="#525C5E" d="M9 44h1v1H9z"/><path fill="#5F807E" d="M10 44h1v1h-1z"/><path fill="#648F8B" d="M11 44h1v1h-1z"/><path fill="#628A87" d="M12 44h1v1h-1z"/><path fill="#566667" d="M13 44h1v1h-1z"/><path fill="#494248" d="M14 44h1v1h-1z"/><path fill="#473D43" d="M15 44h1v1h-1zM16 44h1v1h-1zM17 44h1v1h-1zM18 44h1v1h-1z"/><path fill="#3E3438" d="M19 44h1v1h-1z"/><path fill="#231815" d="M20 44h1v1h-1zM21 44h1v1h-1zM22 44h1v1h-1zM28 44h1v1h-1zM29 44h1v1h-1z"/><path fill="#2C2121" d="M30 44h1v1h-1z"/><path fill="#473D43" d="M31 44h1v1h-1zM32 44h1v1h-1z"/><path fill="#9CCACF" d="M33 44h1v1h-1z"/><path fill="#AEDDE6" d="M34 44h1v1h-1zM35 44h1v1h-1zM36 44h1v1h-1zM37 44h1v1h-1zM38 44h1v1h-1zM39 44h1v1h-1zM40 44h1v1h-1zM41 44h1v1h-1zM42 44h1v1h-1zM43 44h1v1h-1zM44 44h1v1h-1zM45 44h1v1h-1zM46 44h1v1h-1z"/><path fill="#648F8B" d="M47 44h1v1h-1zM48 44h1v1h-1z"/><path fill="#566667" d="M49 44h1v1h-1z"/><path fill="#473D43" d="M50 44h1v1h-1zM51 44h1v1h-1zM52 44h1v1h-1zM53 44h1v1h-1zM54 44h1v1h-1z"/><path fill="#2A1F1E" d="M55 44h1v1h-1z"/><path fill="#231815" d="M56 44h1v1h-1zM57 44h1v1h-1zM58 44h1v1h-1zM59 44h1v1h-1zM4 45h1v1H4zM5 45h1v1H5zM6 45h1v1H6zM7 45h1v1H7z"/><path fill="#251A18" d="M8 45h1v1H8z"/><path fill="#3E3438" d="M9 45h1v1H9z"/><path fill="#473D43" d="M10 45h1v1h-1zM11 45h1v1h-1zM12 45h1v1h-1zM13 45h1v1h-1zM14 45h1v1h-1zM15 45h1v1h-1zM16 45h1v1h-1zM17 45h1v1h-1zM18 45h1v1h-1z"/><path fill="#2C2121" d="M19 45h1v1h-1z"/><path fill="#231815" d="M20 45h1v1h-1zM21 45h1v1h-1zM22 45h1v1h-1zM28 45h1v1h-1zM29 45h1v1h-1z"/><path fill="#2C2121" d="M30 45h1v1h-1z"/><path fill="#473D43" d="M31 45h1v1h-1zM32 45h1v1h-1z"/><path fill="#8FB6BB" d="M33 45h1v1h-1z"/><path fill="#AEDDE6" d="M34 45h1v1h-1zM35 45h1v1h-1zM36 45h1v1h-1zM37 45h1v1h-1zM38 45h1v1h-1zM39 45h1v1h-1zM40 45h1v1h-1zM41 45h1v1h-1zM42 45h1v1h-1zM43 45h1v1h-1zM44 45h1v1h-1zM45 45h1v1h-1zM46 45h1v1h-1z"/><path fill="#77A3A2" d="M47 45h1v1h-1z"/><path fill="#648F8B" d="M48 45h1v1h-1z"/><path fill="#5D7B79" d="M49 45h1v1h-1z"/><path fill="#473D43" d="M50 45h1v1h-1zM51 45h1v1h-1zM52 45h1v1h-1zM53 45h1v1h-1z"/><path fill="#3A2F32" d="M54 45h1v1h-1z"/><path fill="#231815" d="M55 45h1v1h-1zM56 45h1v1h-1zM57 45h1v1h-1zM58 45h1v1h-1zM5 46h1v1H5zM6 46h1v1H6zM7 46h1v1H7zM8 46h1v1H8zM9 46h1v1H9z"/><path fill="#312626" d="M10 46h1v1h-1z"/><path fill="#43383D" d="M11 46h1v1h-1z"/><path fill="#473D43" d="M12 46h1v1h-1zM13 46h1v1h-1zM14 46h1v1h-1zM15 46h1v1h-1zM16 46h1v1h-1zM17 46h1v1h-1z"/><path fill="#312626" d="M18 46h1v1h-1z"/><path fill="#231815" d="M19 46h1v1h-1zM20 46h1v1h-1zM21 46h1v1h-1zM22 46h1v1h-1zM28 46h1v1h-1zM29 46h1v1h-1zM30 46h1v1h-1z"/><path fill="#473D43" d="M31 46h1v1h-1zM32 46h1v1h-1z"/><path fill="#79989B" d="M33 46h1v1h-1z"/><path fill="#AEDDE6" d="M34 46h1v1h-1zM35 46h1v1h-1zM36 46h1v1h-1zM37 46h1v1h-1zM38 46h1v1h-1zM39 46h1v1h-1zM40 46h1v1h-1zM41 46h1v1h-1zM42 46h1v1h-1zM43 46h1v1h-1zM44 46h1v1h-1zM45 46h1v1h-1zM46 46h1v1h-1z"/><path fill="#89B6B9" d="M47 46h1v1h-1z"/><path fill="#648F8B" d="M48 46h1v1h-1z"/><path fill="#5D7B79" d="M49 46h1v1h-1z"/><path fill="#473D43" d="M50 46h1v1h-1zM51 46h1v1h-1zM52 46h1v1h-1zM53 46h1v1h-1z"/><path fill="#2A1F1E" d="M54 46h1v1h-1z"/><path fill="#231815" d="M55 46h1v1h-1zM56 46h1v1h-1zM57 46h1v1h-1zM6 47h1v1H6zM7 47h1v1H7zM8 47h1v1H8zM9 47h1v1H9zM10 47h1v1h-1zM11 47h1v1h-1z"/><path fill="#2C2121" d="M12 47h1v1h-1z"/><path fill="#352B2C" d="M13 47h1v1h-1z"/><path fill="#3A2F32" d="M14 47h1v1h-1z"/><path fill="#352B2C" d="M15 47h1v1h-1z"/><path fill="#332829" d="M16 47h1v1h-1z"/><path fill="#281D1B" d="M17 47h1v1h-1z"/><path fill="#231815" d="M18 47h1v1h-1zM19 47h1v1h-1zM20 47h1v1h-1zM21 47h1v1h-1zM28 47h1v1h-1zM29 47h1v1h-1zM30 47h1v1h-1z"/><path fill="#453B40" d="M31 47h1v1h-1z"/><path fill="#473D43" d="M32 47h1v1h-1z"/><path fill="#5A6B6D" d="M33 47h1v1h-1z"/><path fill="#AEDDE6" d="M34 47h1v1h-1zM35 47h1v1h-1zM36 47h1v1h-1zM37 47h1v1h-1zM38 47h1v1h-1zM39 47h1v1h-1zM40 47h1v1h-1zM41 47h1v1h-1zM42 47h1v1h-1zM43 47h1v1h-1zM44 47h1v1h-1zM45 47h1v1h-1zM46 47h1v1h-1z"/><path fill="#89B6B9" d="M47 47h1v1h-1z"/><path fill="#648F8B" d="M48 47h1v1h-1z"/><path fill="#5D7B79" d="M49 47h1v1h-1z"/><path fill="#473D43" d="M50 47h1v1h-1zM51 47h1v1h-1zM52 47h1v1h-1zM53 47h1v1h-1z"/><path fill="#231815" d="M54 47h1v1h-1zM55 47h1v1h-1zM56 47h1v1h-1zM8 48h1v1H8zM9 48h1v1H9zM10 48h1v1h-1zM11 48h1v1h-1zM12 48h1v1h-1zM13 48h1v1h-1zM14 48h1v1h-1zM15 48h1v1h-1zM16 48h1v1h-1zM17 48h1v1h-1zM18 48h1v1h-1zM19 48h1v1h-1zM20 48h1v1h-1zM28 48h1v1h-1zM29 48h1v1h-1zM30 48h1v1h-1z"/><path fill="#3E3438" d="M31 48h1v1h-1z"/><path fill="#473D43" d="M32 48h1v1h-1z"/><path fill="#4E5255" d="M33 48h1v1h-1z"/><path fill="#92C0C4" d="M34 48h1v1h-1z"/><path fill="#AEDDE6" d="M35 48h1v1h-1zM36 48h1v1h-1zM37 48h1v1h-1zM38 48h1v1h-1zM39 48h1v1h-1zM40 48h1v1h-1zM41 48h1v1h-1zM42 48h1v1h-1zM43 48h1v1h-1zM44 48h1v1h-1zM45 48h1v1h-1zM46 48h1v1h-1z"/><path fill="#89B6B9" d="M47 48h1v1h-1z"/><path fill="#648F8B" d="M48 48h1v1h-1z"/><path fill="#5D7B79" d="M49 48h1v1h-1z"/><path fill="#473D43" d="M50 48h1v1h-1zM51 48h1v1h-1zM52 48h1v1h-1z"/><path fill="#3E3438" d="M53 48h1v1h-1z"/><path fill="#231815" d="M54 48h1v1h-1zM55 48h1v1h-1zM56 48h1v1h-1zM9 49h1v1H9zM10 49h1v1h-1zM11 49h1v1h-1zM12 49h1v1h-1zM13 49h1v1h-1zM14 49h1v1h-1zM15 49h1v1h-1zM16 49h1v1h-1zM17 49h1v1h-1zM18 49h1v1h-1zM19 49h1v1h-1zM28 49h1v1h-1zM29 49h1v1h-1zM30 49h1v1h-1z"/><path fill="#352B2C" d="M31 49h1v1h-1z"/><path fill="#473D43" d="M32 49h1v1h-1zM33 49h1v1h-1z"/><path fill="#6A8F8D" d="M34 49h1v1h-1z"/><path fill="#AEDDE6" d="M35 49h1v1h-1zM36 49h1v1h-1zM37 49h1v1h-1zM38 49h1v1h-1zM39 49h1v1h-1zM40 49h1v1h-1zM41 49h1v1h-1zM42 49h1v1h-1zM43 49h1v1h-1zM44 49h1v1h-1zM45 49h1v1h-1zM46 49h1v1h-1z"/><path fill="#89B6B9" d="M47 49h1v1h-1z"/><path fill="#648F8B" d="M48 49h1v1h-1z"/><path fill="#5B7575" d="M49 49h1v1h-1z"/><path fill="#473D43" d="M50 49h1v1h-1zM51 49h1v1h-1zM52 49h1v1h-1z"/><path fill="#372D2F" d="M53 49h1v1h-1z"/><path fill="#231815" d="M54 49h1v1h-1zM55 49h1v1h-1zM56 49h1v1h-1zM12 50h1v1h-1zM13 50h1v1h-1zM14 50h1v1h-1zM15 50h1v1h-1zM16 50h1v1h-1zM17 50h1v1h-1zM28 50h1v1h-1zM29 50h1v1h-1zM30 50h1v1h-1z"/><path fill="#2A1F1E" d="M31 50h1v1h-1z"/><path fill="#473D43" d="M32 50h1v1h-1zM33 50h1v1h-1z"/><path fill="#566667" d="M34 50h1v1h-1z"/><path fill="#89B6B9" d="M35 50h1v1h-1z"/><path fill="#AEDDE6" d="M36 50h1v1h-1zM37 50h1v1h-1zM38 50h1v1h-1zM39 50h1v1h-1zM40 50h1v1h-1zM41 50h1v1h-1zM42 50h1v1h-1zM43 50h1v1h-1zM44 50h1v1h-1zM45 50h1v1h-1zM46 50h1v1h-1z"/><path fill="#80ACAD" d="M47 50h1v1h-1z"/><path fill="#648F8B" d="M48 50h1v1h-1z"/><path fill="#566667" d="M49 50h1v1h-1z"/><path fill="#473D43" d="M50 50h1v1h-1zM51 50h1v1h-1zM52 50h1v1h-1z"/><path fill="#312626" d="M53 50h1v1h-1z"/><path fill="#231815" d="M54 50h1v1h-1zM55 50h1v1h-1zM56 50h1v1h-1zM29 51h1v1h-1zM30 51h1v1h-1zM31 51h1v1h-1z"/><path fill="#40363A" d="M32 51h1v1h-1z"/><path fill="#473D43" d="M33 51h1v1h-1z"/><path fill="#494248" d="M34 51h1v1h-1z"/><path fill="#628A87" d="M35 51h1v1h-1z"/><path fill="#A0CED5" d="M36 51h1v1h-1z"/><path fill="#AEDDE6" d="M37 51h1v1h-1zM38 51h1v1h-1zM39 51h1v1h-1zM40 51h1v1h-1zM41 51h1v1h-1zM42 51h1v1h-1zM43 51h1v1h-1zM44 51h1v1h-1zM45 51h1v1h-1zM46 51h1v1h-1z"/><path fill="#6D9996" d="M47 51h1v1h-1z"/><path fill="#648F8B" d="M48 51h1v1h-1z"/><path fill="#4E5255" d="M49 51h1v1h-1z"/><path fill="#473D43" d="M50 51h1v1h-1zM51 51h1v1h-1zM52 51h1v1h-1z"/><path fill="#281D1B" d="M53 51h1v1h-1z"/><path fill="#231815" d="M54 51h1v1h-1zM55 51h1v1h-1zM29 52h1v1h-1zM30 52h1v1h-1zM31 52h1v1h-1z"/><path fill="#312626" d="M32 52h1v1h-1z"/><path fill="#473D43" d="M33 52h1v1h-1zM34 52h1v1h-1z"/><path fill="#566667" d="M35 52h1v1h-1z"/><path fill="#699491" d="M36 52h1v1h-1z"/><path fill="#A0CED5" d="M37 52h1v1h-1z"/><path fill="#AEDDE6" d="M38 52h1v1h-1zM39 52h1v1h-1zM40 52h1v1h-1zM41 52h1v1h-1zM42 52h1v1h-1zM43 52h1v1h-1zM44 52h1v1h-1zM45 52h1v1h-1z"/><path fill="#92C0C4" d="M46 52h1v1h-1z"/><path fill="#648F8B" d="M47 52h1v1h-1z"/><path fill="#628A87" d="M48 52h1v1h-1z"/><path fill="#473D43" d="M49 52h1v1h-1zM50 52h1v1h-1zM51 52h1v1h-1z"/><path fill="#43383D" d="M52 52h1v1h-1z"/><path fill="#231815" d="M53 52h1v1h-1zM54 52h1v1h-1zM55 52h1v1h-1zM29 53h1v1h-1zM30 53h1v1h-1zM31 53h1v1h-1zM32 53h1v1h-1z"/><path fill="#43383D" d="M33 53h1v1h-1z"/><path fill="#473D43" d="M34 53h1v1h-1zM35 53h1v1h-1z"/><path fill="#5F807E" d="M36 53h1v1h-1z"/><path fill="#699491" d="M37 53h1v1h-1z"/><path fill="#97C5CA" d="M38 53h1v1h-1z"/><path fill="#AEDDE6" d="M39 53h1v1h-1zM40 53h1v1h-1zM41 53h1v1h-1zM42 53h1v1h-1zM43 53h1v1h-1zM44 53h1v1h-1z"/><path fill="#A0CED5" d="M45 53h1v1h-1z"/><path fill="#699491" d="M46 53h1v1h-1z"/><path fill="#648F8B" d="M47 53h1v1h-1z"/><path fill="#597070" d="M48 53h1v1h-1z"/><path fill="#473D43" d="M49 53h1v1h-1zM50 53h1v1h-1zM51 53h1v1h-1z"/><path fill="#332829" d="M52 53h1v1h-1z"/><path fill="#231815" d="M53 53h1v1h-1zM54 53h1v1h-1zM55 53h1v1h-1zM30 54h1v1h-1zM31 54h1v1h-1zM32 54h1v1h-1z"/><path fill="#2E2423" d="M33 54h1v1h-1z"/><path fill="#473D43" d="M34 54h1v1h-1zM35 54h1v1h-1z"/><path fill="#4B474C" d="M36 54h1v1h-1z"/><path fill="#628A87" d="M37 54h1v1h-1z"/><path fill="#648F8B" d="M38 54h1v1h-1z"/><path fill="#77A3A2" d="M39 54h1v1h-1z"/><path fill="#97C5CA" d="M40 54h1v1h-1z"/><path fill="#AEDDE6" d="M41 54h1v1h-1zM42 54h1v1h-1z"/><path fill="#A9D8E0" d="M43 54h1v1h-1z"/><path fill="#92C0C4" d="M44 54h1v1h-1z"/><path fill="#699491" d="M45 54h1v1h-1z"/><path fill="#648F8B" d="M46 54h1v1h-1z"/><path fill="#628A87" d="M47 54h1v1h-1z"/><path fill="#494248" d="M48 54h1v1h-1z"/><path fill="#473D43" d="M49 54h1v1h-1zM50 54h1v1h-1zM51 54h1v1h-1z"/><path fill="#251A18" d="M52 54h1v1h-1z"/><path fill="#231815" d="M53 54h1v1h-1zM54 54h1v1h-1zM55 54h1v1h-1zM30 55h1v1h-1zM31 55h1v1h-1zM32 55h1v1h-1zM33 55h1v1h-1z"/><path fill="#3C3135" d="M34 55h1v1h-1z"/><path fill="#473D43" d="M35 55h1v1h-1zM36 55h1v1h-1z"/><path fill="#4C4C51" d="M37 55h1v1h-1z"/><path fill="#628A87" d="M38 55h1v1h-1z"/><path fill="#648F8B" d="M39 55h1v1h-1zM40 55h1v1h-1zM41 55h1v1h-1zM42 55h1v1h-1zM43 55h1v1h-1zM44 55h1v1h-1zM45 55h1v1h-1zM46 55h1v1h-1z"/><path fill="#50575A" d="M47 55h1v1h-1z"/><path fill="#473D43" d="M48 55h1v1h-1zM49 55h1v1h-1zM50 55h1v1h-1z"/><path fill="#372D2F" d="M51 55h1v1h-1z"/><path fill="#231815" d="M52 55h1v1h-1zM53 55h1v1h-1zM54 55h1v1h-1zM31 56h1v1h-1zM32 56h1v1h-1zM33 56h1v1h-1z"/><path fill="#251A18" d="M34 56h1v1h-1z"/><path fill="#40363A" d="M35 56h1v1h-1z"/><path fill="#473D43" d="M36 56h1v1h-1zM37 56h1v1h-1z"/><path fill="#494248" d="M38 56h1v1h-1z"/><path fill="#5B7575" d="M39 56h1v1h-1z"/><path fill="#648F8B" d="M40 56h1v1h-1zM41 56h1v1h-1zM42 56h1v1h-1zM43 56h1v1h-1zM44 56h1v1h-1z"/><path fill="#628A87" d="M45 56h1v1h-1z"/><path fill="#50575A" d="M46 56h1v1h-1z"/><path fill="#473D43" d="M47 56h1v1h-1zM48 56h1v1h-1zM49 56h1v1h-1z"/><path fill="#453B40" d="M50 56h1v1h-1z"/><path fill="#251A18" d="M51 56h1v1h-1z"/><path fill="#231815" d="M52 56h1v1h-1zM53 56h1v1h-1zM54 56h1v1h-1zM32 57h1v1h-1zM33 57h1v1h-1zM34 57h1v1h-1z"/><path fill="#251A18" d="M35 57h1v1h-1z"/><path fill="#40363A" d="M36 57h1v1h-1z"/><path fill="#473D43" d="M37 57h1v1h-1zM38 57h1v1h-1zM39 57h1v1h-1z"/><path fill="#4B474C" d="M40 57h1v1h-1z"/><path fill="#566667" d="M41 57h1v1h-1zM42 57h1v1h-1zM43 57h1v1h-1z"/><path fill="#525C5E" d="M44 57h1v1h-1z"/><path fill="#494248" d="M45 57h1v1h-1z"/><path fill="#473D43" d="M46 57h1v1h-1zM47 57h1v1h-1zM48 57h1v1h-1zM49 57h1v1h-1z"/><path fill="#2C2121" d="M50 57h1v1h-1z"/><path fill="#231815" d="M51 57h1v1h-1zM52 57h1v1h-1zM53 57h1v1h-1zM32 58h1v1h-1zM33 58h1v1h-1zM34 58h1v1h-1zM35 58h1v1h-1z"/><path fill="#251A18" d="M36 58h1v1h-1z"/><path fill="#3E3438" d="M37 58h1v1h-1z"/><path fill="#473D43" d="M38 58h1v1h-1zM39 58h1v1h-1zM40 58h1v1h-1zM41 58h1v1h-1zM42 58h1v1h-1zM43 58h1v1h-1zM44 58h1v1h-1zM45 58h1v1h-1zM46 58h1v1h-1zM47 58h1v1h-1zM48 58h1v1h-1z"/><path fill="#312626" d="M49 58h1v1h-1z"/><path fill="#231815" d="M50 58h1v1h-1zM51 58h1v1h-1zM52 58h1v1h-1zM53 58h1v1h-1zM33 59h1v1h-1zM34 59h1v1h-1zM35 59h1v1h-1zM36 59h1v1h-1zM37 59h1v1h-1z"/><path fill="#332829" d="M38 59h1v1h-1z"/><path fill="#453B40" d="M39 59h1v1h-1z"/><path fill="#473D43" d="M40 59h1v1h-1zM41 59h1v1h-1zM42 59h1v1h-1zM43 59h1v1h-1zM44 59h1v1h-1zM45 59h1v1h-1zM46 59h1v1h-1z"/><path fill="#453B40" d="M47 59h1v1h-1z"/><path fill="#2E2423" d="M48 59h1v1h-1z"/><path fill="#231815" d="M49 59h1v1h-1zM50 59h1v1h-1zM51 59h1v1h-1zM52 59h1v1h-1zM34 60h1v1h-1zM35 60h1v1h-1zM36 60h1v1h-1zM37 60h1v1h-1zM38 60h1v1h-1z"/><path fill="#251A18" d="M39 60h1v1h-1z"/><path fill="#312626" d="M40 60h1v1h-1z"/><path fill="#3E3438" d="M41 60h1v1h-1z"/><path fill="#473D43" d="M42 60h1v1h-1zM43 60h1v1h-1zM44 60h1v1h-1z"/><path fill="#40363A" d="M45 60h1v1h-1z"/><path fill="#352B2C" d="M46 60h1v1h-1z"/><path fill="#251A18" d="M47 60h1v1h-1z"/><path fill="#231815" d="M48 60h1v1h-1zM49 60h1v1h-1zM50 60h1v1h-1zM51 60h1v1h-1zM36 61h1v1h-1zM37 61h1v1h-1zM38 61h1v1h-1zM39 61h1v1h-1zM40 61h1v1h-1zM41 61h1v1h-1zM42 61h1v1h-1zM43 61h1v1h-1zM44 61h1v1h-1zM45 61h1v1h-1zM46 61h1v1h-1zM47 61h1v1h-1zM48 61h1v1h-1zM49 61h1v1h-1zM50 61h1v1h-1zM37 62h1v1h-1zM38 62h1v1h-1zM39 62h1v1h-1zM40 62h1v1h-1zM41 62h1v1h-1zM42 62h1v1h-1zM43 62h1v1h-1zM44 62h1v1h-1zM45 62h1v1h-1zM46 62h1v1h-1zM47 62h1v1h-1zM48 62h1v1h-1zM49 62h1v1h-1zM39 63h1v1h-1zM40 63h1v1h-1zM41 63h1v1h-1zM42 63h1v1h-1zM43 63h1v1h-1zM44 63h1v1h-1zM45 63h1v1h-1zM46 63h1v1h-1zM47 63h1v1h-1z"/></svg>